<svg xmlns="http://www.w3.org/2000/svg" viewBox="0.703125 49.5859375 317.0390625 64.828125"><path d="M28 100L25 88L9 88L5 100L1 100L15 50L18 50L33 100L28 100ZM17 61L10 84L23 84L17 61L17 59L17 61ZM62 90L62 90Q62 92 61 94Q60 96 59 98Q57 99 55 100Q53 101 51 101L51 101L48 101Q46 101 44 100Q42 99 41 98Q39 96 39 94Q38 92 38 90L38 90L38 50L42 50L42 67Q44 65 46 64Q48 63 50 63L50 63L51 63Q53 63 55 64Q57 65 59 66Q60 68 61 70Q62 72 62 74L62 74L62 90ZM57 90L57 74Q57 72 57 71Q56 70 56 69Q55 68 54 68Q52 67 51 67L51 67L48 67Q47 67 46 68Q45 68 44 69Q43 70 43 71Q42 72 42 74L42 74L42 90Q42 92 43 93Q43 94 44 95Q45 96 46 96Q47 97 48 97L48 97L51 97Q52 97 54 96Q55 96 56 95Q56 94 57 93Q57 92 57 90L57 90ZM94 90L94 90Q94 92 94 94Q93 96 91 98Q90 99 88 100Q86 101 84 101L84 101L81 101Q79 101 77 100Q75 99 74 98Q72 96 71 94Q70 92 70 90L70 90L70 74Q70 72 71 70Q72 68 74 66Q75 65 77 64Q79 63 81 63L81 63L84 63Q86 63 88 64Q90 65 91 66Q93 68 94 70Q94 72 94 74L94 74L94 82L75 82L75 90Q75 92 75 93Q76 94 77 95Q77 96 79 96Q80 97 81 97L81 97L84 97Q85 97 86 96Q87 96 88 95Q89 94 90 93Q90 92 90 90L90 90L90 88L94 89L94 90ZM90 79L90 74Q90 72 90 71Q89 70 88 69Q87 68 86 68Q85 67 84 67L84 67L81 67Q80 67 79 68Q77 68 77 69Q76 70 75 71Q75 72 75 74L75 74L75 79L90 79ZM109 100L105 100L105 50L109 50L109 100ZM150 68L146 68Q145 68 144 69Q143 69 142 70Q141 71 140 72Q140 73 140 74L140 74L140 100L136 100L136 64L137 64L139 68Q141 66 143 64Q145 63 148 63L148 63L150 63L150 68ZM180 90L180 90Q180 92 179 94Q179 96 177 98Q176 99 174 100Q172 101 170 101L170 101L167 101Q165 101 163 100Q161 99 159 98Q158 96 157 94Q156 92 156 90L156 90L156 74Q156 72 157 70Q158 68 159 66Q161 65 163 64Q165 63 167 63L167 63L170 63Q172 63 174 64Q176 65 177 66Q179 68 179 70Q180 72 180 74L180 74L180 82L161 82L161 90Q161 92 161 93Q162 94 162 95Q163 96 164 96Q165 97 167 97L167 97L170 97Q171 97 172 96Q173 96 174 95Q175 94 175 93Q176 92 176 90L176 90L176 88L180 89L180 90ZM176 79L176 74Q176 72 175 71Q175 70 174 69Q173 68 172 68Q171 67 170 67L170 67L167 67Q165 67 164 68Q163 68 162 69Q162 70 161 71Q161 72 161 74L161 74L161 79L176 79ZM213 105L213 105Q213 107 212 109Q212 110 210 112Q209 113 207 114Q205 114 203 114L203 114L201 114Q199 114 197 114Q195 113 193 112Q192 110 191 109Q190 107 190 105L190 105L190 104Q190 102 191 101Q192 99 193 97L193 97Q192 96 191 95Q190 93 190 91L190 91Q190 89 190 87Q191 86 193 85L193 85Q191 83 190 81Q189 79 189 77L189 77L189 74Q189 72 190 70Q191 68 192 66Q193 65 195 64Q197 63 199 63L199 63L201 63Q204 63 206 64Q208 66 210 68L210 68L212 64L214 64L214 77Q214 79 213 81Q212 83 211 84Q209 86 207 86Q205 87 203 87L203 87L197 87Q196 87 195 87Q195 88 194 88Q194 89 193 89Q193 90 193 91L193 91Q193 92 193 92Q194 93 194 93Q195 94 195 94Q196 95 197 95L197 95L203 95Q205 95 207 95Q209 96 210 97Q212 99 212 100Q213 102 213 104L213 104L213 105ZM209 77L209 74Q209 72 209 71Q208 70 208 69Q207 68 206 68Q204 67 203 67L203 67L199 67Q198 67 197 68Q196 68 195 69Q194 70 194 71Q193 72 193 74L193 74L193 77Q193 78 194 79Q194 80 195 81Q196 82 197 83Q198 83 199 83L199 83L203 83Q204 83 206 83Q207 82 208 81Q208 80 209 79Q209 78 209 77L209 77ZM209 105L209 104Q209 103 209 102Q208 101 207 100Q207 99 205 99Q204 99 203 99L203 99L201 99Q199 99 198 99Q197 99 196 100Q195 101 195 102Q194 103 194 104L194 104L194 105Q194 106 195 107Q195 108 196 109Q197 110 198 110Q199 110 201 110L201 110L203 110Q204 110 205 110Q207 110 207 109Q208 108 209 107Q209 106 209 105L209 105ZM246 100L244 100L242 96Q240 98 238 100Q236 101 233 101L233 101L232 101Q230 101 228 100Q226 99 225 98Q223 96 222 94Q222 92 222 90L222 90L222 64L226 64L226 90Q226 92 226 93Q227 94 228 95Q229 96 230 96Q231 97 232 97L232 97L235 97Q236 97 237 96Q239 96 239 95Q240 94 241 93Q241 92 241 90L241 90L241 64L246 64L246 100ZM260 100L256 100L256 50L260 50L260 100ZM294 100L293 100L290 96Q289 98 287 100Q284 101 282 101L282 101L281 101Q279 101 277 100Q275 99 273 98Q272 96 271 94Q270 92 270 90L270 90L270 90Q270 88 271 86Q272 84 273 82Q275 81 277 80Q279 79 281 79L281 79L290 79L290 74Q290 72 289 71Q289 70 288 69Q287 68 286 68Q285 67 284 67L284 67L281 67Q280 67 279 68Q277 68 277 69Q276 70 275 71Q275 72 275 74L275 74L275 75L270 74L270 74Q270 72 271 70Q272 68 274 66Q275 65 277 64Q279 63 281 63L281 63L284 63Q286 63 288 64Q290 65 291 66Q293 68 293 70Q294 72 294 74L294 74L294 100ZM290 90L290 83L281 83Q279 83 278 83Q277 84 276 84Q275 85 275 86Q274 88 274 89L274 89L274 90Q274 92 275 93Q275 94 276 95Q277 96 278 96Q279 97 281 97L281 97L284 97Q285 97 286 96Q287 96 288 95Q289 94 289 93Q290 92 290 90L290 90ZM318 68L313 68Q312 68 311 69Q310 69 309 70Q308 71 308 72Q307 73 307 74L307 74L307 100L303 100L303 64L304 64L307 68Q308 66 310 64Q313 63 315 63L315 63L318 63L318 68Z"/></svg>