<svg xmlns="http://www.w3.org/2000/svg" viewBox="0.43200000000000005 44.343999999999994 694.0079999999999 73.656"><path d="M26 99L31 99L26 83L12 83L6 99L11 99L11 100L0 100L0 99L4 99L22 49L28 49L46 99L50 99L50 100L26 100L26 99ZM25 81L19 63L12 81L25 81ZM77 81Q77 73 76 71Q76 68 73 68Q71 68 70 71Q68 73 68 78L68 78L68 91Q68 94 69 96Q71 99 73 99Q75 99 76 95Q77 92 77 84L77 84L77 81ZM51 46L68 46L68 71Q71 65 77 65L77 65Q91 65 91 83L91 83Q91 92 87 96Q83 101 76 101L76 101Q72 101 70 100Q68 98 68 96L68 96L67 100L51 100L51 99L55 99L55 47L51 47L51 46ZM117 68L117 68Q114 68 112 71Q110 75 110 79L110 79L110 99L115 99L115 100L93 100L93 99L97 99L97 67L93 67L93 66L110 66L110 73Q111 69 114 67Q117 65 120 65Q123 65 126 67Q128 69 128 72Q128 76 126 78Q124 80 121 80Q118 80 116 77Q115 75 116 71L116 71L119 71Q120 68 117 68ZM139 61Q135 61 134 59Q132 57 132 54Q132 51 134 49Q136 47 139 47Q143 47 145 49Q147 51 147 54Q147 57 145 59Q143 61 139 61ZM128 67L128 66L146 66L146 99L150 99L150 100L129 100L129 99L133 99L133 67L128 67ZM151 47L151 46L169 46L169 99L173 99L173 100L151 100L151 99L155 99L155 47L151 47ZM188 51L188 50L225 50L226 65L225 65Q222 57 219 54Q215 51 208 51L208 51L206 51L206 75L210 75Q213 75 215 72Q218 70 218 65L218 65L220 65L220 86L218 86Q217 81 215 79Q213 76 210 76L210 76L206 76L206 98L215 98L215 100L188 100L188 98L192 98L192 51L188 51ZM243 83L243 83L245 83L245 78Q245 71 244 68Q244 66 242 66L242 66Q240 66 239 67Q238 67 238 69Q238 70 239 71L239 71L240 71Q241 72 241 75Q241 77 239 78Q237 80 235 80L235 80Q228 80 228 74L228 74Q228 65 244 65L244 65Q252 65 255 68Q259 71 259 79L259 79L259 93Q259 97 261 97L261 97Q263 97 264 90L264 90L265 90Q264 96 262 98Q260 101 255 101L255 101Q247 101 246 95L246 95Q245 98 243 99Q241 101 237 101L237 101Q227 101 227 92L227 92Q227 87 231 85Q235 83 243 83ZM240 92Q240 96 241 97Q241 98 242 98Q243 98 244 96Q245 94 245 91L245 91L245 84L245 84Q240 84 240 91L240 91L240 92ZM268 90L268 90L268 67L264 67L264 66L268 66L268 56L281 53L281 66L291 66L291 67L281 67L281 91Q281 95 282 96Q283 98 285 98Q287 98 289 96Q290 94 291 90L291 90L292 90Q291 95 289 98Q286 101 280 101Q274 101 271 98Q268 96 268 90ZM314 46L314 46Q312 46 311 48Q310 50 310 54L310 54L310 66L320 66L320 67L310 67L310 99L319 99L319 100L293 100L293 99L297 99L297 67L292 67L292 66L297 66L297 65Q297 55 301 50Q305 44 314 44L314 44Q320 44 323 47Q325 49 325 52Q325 56 324 57Q322 59 319 59Q317 59 315 57Q314 56 314 54Q314 52 314 50L314 50L317 50Q318 46 314 46ZM337 83L337 83L339 83L339 78Q339 71 338 68Q337 66 335 66L335 66Q334 66 333 67Q332 67 332 69Q332 70 332 71L332 71L334 71Q335 72 335 75Q335 77 333 78Q331 80 328 80L328 80Q322 80 322 74L322 74Q322 65 337 65L337 65Q346 65 349 68Q352 71 352 79L352 79L352 93Q352 97 354 97L354 97Q357 97 357 90L357 90L358 90Q358 96 356 98Q354 101 349 101L349 101Q340 101 339 95L339 95Q338 98 336 99Q335 101 331 101L331 101Q320 101 320 92L320 92Q320 87 324 85Q328 83 337 83ZM334 92Q334 96 334 97Q335 98 336 98Q337 98 338 96Q339 94 339 91L339 91L339 84L338 84Q334 84 334 91L334 91L334 92ZM379 66L379 66Q376 66 375 70Q373 73 373 81L373 81L373 85Q373 92 375 95Q376 98 381 98Q385 98 388 95Q390 93 391 89L391 89L392 89Q391 95 387 98L387 98Q383 101 377 101L377 101Q368 101 364 96Q359 92 359 83Q359 74 365 70Q370 65 379 65L379 65Q385 65 388 67Q392 70 392 74Q392 77 390 79Q389 81 386 81Q383 81 381 79Q379 78 379 75L379 75Q379 74 380 72L380 72L382 72Q383 71 383 70L383 70Q383 66 379 66ZM413 101Q403 101 399 96Q394 91 394 83Q394 74 399 70Q405 65 413 65L413 65Q429 65 428 81L428 81L408 81L408 84Q408 91 410 95Q412 98 416 98L416 98Q425 98 427 90L427 90L428 90Q427 95 423 98Q420 101 413 101L413 101ZM408 76L408 80L416 80L416 76Q416 71 415 69Q414 66 412 66Q410 66 409 69Q408 71 408 76L408 76ZM468 68L468 68Q465 68 463 71Q461 75 461 79L461 79L461 99L466 99L466 100L444 100L444 99L448 99L448 67L444 67L444 66L461 66L461 73Q462 69 465 67Q468 65 471 65Q474 65 476 67Q479 69 479 72Q479 76 477 78Q475 80 472 80Q469 80 467 77Q466 75 467 71L467 71L470 71Q471 68 468 68ZM498 101Q489 101 484 96Q480 91 480 83Q480 74 485 70Q490 65 498 65L498 65Q514 65 514 81L514 81L493 81L493 84Q493 91 495 95Q497 98 502 98L502 98Q510 98 512 90L512 90L514 90Q512 95 509 98Q505 101 498 101L498 101ZM494 76L494 80L501 80L501 76Q501 71 500 69Q500 66 498 66Q496 66 495 69Q494 71 494 76L494 76ZM545 62L545 62L547 61Q548 59 546 59L546 59Q542 59 542 63L542 63Q542 65 543 68L543 68Q548 71 548 77Q548 83 544 86Q541 89 534 89L534 89Q531 89 528 88L528 88Q525 90 525 92Q525 93 529 93L529 93L537 93Q553 93 553 104L553 104Q553 111 548 114Q543 118 533 118L533 118Q515 118 515 110L515 110Q515 106 520 105L520 105L525 106Q524 109 524 110L524 110Q524 117 533 117L533 117Q539 117 542 115Q545 112 545 109Q545 106 543 105Q541 104 536 104L536 104L529 104Q523 104 521 102Q518 100 518 97Q518 95 520 93Q522 91 526 88L526 88Q518 86 518 77L518 77Q518 72 522 68Q526 65 534 65L534 65Q538 65 542 67L542 67Q541 65 541 63L541 63Q541 59 543 57Q545 56 548 56Q551 56 552 57Q554 58 554 61Q554 63 553 65Q551 66 550 66Q548 66 547 65Q545 64 545 62ZM530 75L530 75L530 79Q530 84 531 86Q532 88 533 88Q535 88 536 86Q537 84 537 79L537 79L537 75Q537 70 536 68Q535 66 533 66Q532 66 531 68Q530 70 530 75ZM596 99L596 100L580 100L579 95Q578 98 575 99Q573 101 569 101L569 101Q558 101 558 89L558 89L558 67L554 67L554 66L571 66L571 90Q571 95 572 96Q572 97 574 97Q576 97 577 95Q579 93 579 89L579 89L579 67L575 67L575 66L592 66L592 99L596 99ZM597 47L597 46L615 46L615 99L619 99L619 100L598 100L598 99L601 99L601 47L597 47ZM638 83L638 83L640 83L640 78Q640 71 639 68Q638 66 636 66L636 66Q635 66 634 67Q633 67 633 69Q633 70 633 71L633 71L635 71Q635 72 635 75Q635 77 634 78Q632 80 629 80L629 80Q623 80 623 74L623 74Q623 65 638 65L638 65Q646 65 650 68Q653 71 653 79L653 79L653 93Q653 97 655 97L655 97Q658 97 658 90L658 90L659 90Q659 96 657 98Q655 101 650 101L650 101Q641 101 640 95L640 95Q639 98 637 99Q635 101 632 101L632 101Q621 101 621 92L621 92Q621 87 625 85Q629 83 638 83ZM635 92Q635 96 635 97Q635 98 637 98Q638 98 639 96Q640 94 640 91L640 91L640 84L639 84Q635 84 635 91L635 91L635 92ZM684 68L684 68Q681 68 679 71Q677 75 677 79L677 79L677 99L682 99L682 100L660 100L660 99L664 99L664 67L660 67L660 66L677 66L677 73Q678 69 681 67Q683 65 687 65Q690 65 692 67Q694 69 694 72Q694 76 693 78Q691 80 688 80Q685 80 683 77Q682 75 683 71L683 71L685 71Q687 68 684 68Z"/></svg>