<svg xmlns="http://www.w3.org/2000/svg" viewBox="0.06 -7.73 59.44332031249999 7.83"><path d="M3.61-0.19L4.32-0.19L3.59-2.35L1.61-2.35L0.84-0.19L1.59-0.19L1.59 0L0.06 0L0.06-0.19L0.53-0.19L3.08-7.06L3.90-7.06L6.42-0.19L6.88-0.19L6.88 0L3.61 0L3.61-0.19ZM3.51-2.57L2.64-5.19L1.70-2.57L3.51-2.57ZM10.69-2.69Q10.69-3.72 10.59-4.08Q10.49-4.43 10.20-4.43Q9.91-4.43 9.68-4.07Q9.45-3.71 9.45-3.08L9.45-3.08L9.45-1.22Q9.45-0.79 9.63-0.49Q9.80-0.19 10.13-0.19Q10.45-0.19 10.57-0.63Q10.69-1.07 10.69-2.17L10.69-2.17L10.69-2.69ZM7.04-7.50L9.45-7.50L9.45-4Q9.83-4.86 10.75-4.86L10.75-4.86Q12.62-4.86 12.62-2.37L12.62-2.37Q12.62-1.10 12.11-0.50Q11.59 0.10 10.56 0.10L10.56 0.10Q10.04 0.10 9.77-0.06Q9.49-0.22 9.39-0.59L9.39-0.59L9.32 0L7.04 0L7.04-0.18L7.59-0.18L7.59-7.32L7.04-7.32L7.04-7.50ZM16.26-4.48L16.26-4.48Q15.89-4.48 15.61-4Q15.33-3.52 15.33-2.86L15.33-2.86L15.33-0.18L16.04-0.18L16.04 0L12.92 0L12.92-0.18L13.47-0.18L13.47-4.58L12.92-4.58L12.92-4.76L15.33-4.76L15.33-3.80Q15.46-4.31 15.83-4.58Q16.20-4.86 16.67-4.86Q17.14-4.86 17.44-4.59Q17.73-4.33 17.73-3.85Q17.73-3.36 17.51-3.10Q17.29-2.84 16.84-2.84Q16.38-2.84 16.16-3.14Q15.95-3.44 16.11-3.97L16.11-3.97L16.47-3.97Q16.72-4.48 16.26-4.48ZM19.34-5.45Q18.81-5.45 18.59-5.72Q18.36-5.99 18.36-6.39Q18.36-6.79 18.61-7.05Q18.85-7.31 19.35-7.31Q19.85-7.31 20.11-7.08Q20.37-6.84 20.37-6.41Q20.37-5.97 20.12-5.71Q19.87-5.45 19.34-5.45ZM17.83-4.58L17.83-4.76L20.28-4.76L20.28-0.18L20.84-0.18L20.84 0L17.87 0L17.87-0.18L18.42-0.18L18.42-4.58L17.83-4.58ZM21.00-7.32L21.00-7.50L23.45-7.50L23.45-0.18L24.01-0.18L24.01 0L21.04 0L21.04-0.18L21.59-0.18L21.59-7.32L21.00-7.32ZM26.11-6.78L26.11-7L31.31-7L31.41-4.92L31.23-4.92Q30.86-6 30.38-6.39Q29.89-6.78 28.93-6.78L28.93-6.78L28.65-6.78L28.65-3.53L29.10-3.53Q29.58-3.53 29.90-3.88Q30.22-4.23 30.34-4.84L30.34-4.84L30.49-4.84L30.49-1.88L30.32-1.88Q30.16-2.63 29.88-2.95Q29.59-3.27 29.10-3.27L29.10-3.27L28.65-3.27L28.65-0.22L29.89-0.22L29.89 0L26.11 0L26.11-0.22L26.70-0.22L26.70-6.78L26.11-6.78ZM33.77-2.35L33.77-2.35L34.06-2.35L34.06-3.12Q34.06-4.07 33.95-4.40Q33.85-4.72 33.55-4.72L33.55-4.72Q33.37-4.72 33.23-4.63Q33.08-4.53 33.08-4.37Q33.08-4.20 33.14-4.03L33.14-4.03L33.39-4.03Q33.47-3.82 33.47-3.52Q33.47-3.23 33.22-3.02Q32.97-2.80 32.59-2.80L32.59-2.80Q31.73-2.80 31.73-3.63L31.73-3.63Q31.73-4.86 33.82-4.86L33.82-4.86Q35.01-4.86 35.47-4.46Q35.92-4.05 35.92-2.97L35.92-2.97L35.92-0.94Q35.92-0.42 36.21-0.42L36.21-0.42Q36.55-0.42 36.61-1.45L36.61-1.45L36.76-1.44Q36.72-0.56 36.43-0.23Q36.14 0.10 35.48 0.10L35.48 0.10Q34.28 0.10 34.10-0.64L34.10-0.64Q33.97-0.26 33.71-0.08Q33.45 0.10 32.95 0.10L32.95 0.10Q31.47 0.10 31.47-1.11L31.47-1.11Q31.47-1.82 32.03-2.08Q32.60-2.35 33.77-2.35ZM33.37-1.12Q33.37-0.60 33.42-0.45Q33.48-0.30 33.63-0.30Q33.79-0.30 33.92-0.56Q34.06-0.81 34.06-1.26L34.06-1.26L34.06-2.19L33.99-2.19Q33.37-2.19 33.37-1.28L33.37-1.28L33.37-1.12ZM37.21-1.43L37.21-1.43L37.21-4.58L36.66-4.58L36.66-4.76L37.21-4.76L37.21-6.05L39.07-6.51L39.07-4.76L40.37-4.76L40.37-4.58L39.07-4.58L39.07-1.21Q39.07-0.74 39.16-0.52Q39.26-0.30 39.56-0.30Q39.86-0.30 40.09-0.60Q40.31-0.90 40.38-1.42L40.38-1.42L40.55-1.40Q40.47-0.71 40.11-0.30Q39.75 0.10 38.92 0.10Q38.09 0.10 37.65-0.23Q37.21-0.56 37.21-1.43ZM43.68-7.56L43.68-7.56Q43.30-7.56 43.18-7.28Q43.06-6.99 43.06-6.36L43.06-6.36L43.06-4.76L44.38-4.76L44.38-4.58L43.06-4.58L43.06-0.18L44.28-0.18L44.28 0L40.65 0L40.65-0.18L41.20-0.18L41.20-4.58L40.62-4.58L40.62-4.76L41.20-4.76L41.20-4.80Q41.20-6.24 41.75-6.99Q42.30-7.73 43.59-7.73L43.59-7.73Q44.44-7.73 44.81-7.40Q45.18-7.06 45.18-6.62Q45.18-6.18 44.95-5.96Q44.72-5.74 44.34-5.74Q43.96-5.74 43.75-5.94Q43.55-6.13 43.55-6.38Q43.55-6.64 43.61-6.88L43.61-6.88L43.99-6.88Q44.19-7.56 43.68-7.56ZM46.78-2.35L46.78-2.35L47.07-2.35L47.07-3.12Q47.07-4.07 46.96-4.40Q46.86-4.72 46.56-4.72L46.56-4.72Q46.38-4.72 46.23-4.63Q46.09-4.53 46.09-4.37Q46.09-4.20 46.15-4.03L46.15-4.03L46.40-4.03Q46.48-3.82 46.48-3.52Q46.48-3.23 46.23-3.02Q45.98-2.80 45.60-2.80L45.60-2.80Q44.74-2.80 44.74-3.63L44.74-3.63Q44.74-4.86 46.83-4.86L46.83-4.86Q48.02-4.86 48.47-4.46Q48.93-4.05 48.93-2.97L48.93-2.97L48.93-0.94Q48.93-0.42 49.22-0.42L49.22-0.42Q49.56-0.42 49.62-1.45L49.62-1.45L49.77-1.44Q49.73-0.56 49.44-0.23Q49.15 0.10 48.49 0.10L48.49 0.10Q47.29 0.10 47.11-0.64L47.11-0.64Q46.98-0.26 46.72-0.08Q46.46 0.10 45.96 0.10L45.96 0.10Q44.48 0.10 44.48-1.11L44.48-1.11Q44.48-1.82 45.04-2.08Q45.61-2.35 46.78-2.35ZM46.38-1.12Q46.38-0.60 46.43-0.45Q46.49-0.30 46.64-0.30Q46.80-0.30 46.93-0.56Q47.07-0.81 47.07-1.26L47.07-1.26L47.07-2.19L47.00-2.19Q46.38-2.19 46.38-1.28L46.38-1.28L46.38-1.12ZM52.67-4.68L52.67-4.68Q52.23-4.68 52.04-4.20Q51.85-3.72 51.85-2.61L51.85-2.61L51.85-2.09Q51.85-1.10 52.07-0.67Q52.29-0.24 52.88-0.24Q53.47-0.24 53.82-0.64Q54.17-1.04 54.27-1.55L54.27-1.55L54.45-1.53Q54.26-0.67 53.75-0.29L53.75-0.29Q53.23 0.10 52.32 0.10L52.32 0.10Q51.16 0.10 50.54-0.53Q49.92-1.15 49.92-2.35Q49.92-3.56 50.62-4.21Q51.33-4.86 52.59-4.86L52.59-4.86Q53.48-4.86 53.95-4.51Q54.42-4.17 54.42-3.65Q54.42-3.13 54.19-2.89Q53.97-2.65 53.57-2.65Q53.18-2.65 52.94-2.86Q52.70-3.07 52.70-3.48L52.70-3.48Q52.70-3.66 52.75-3.84L52.75-3.84L53.08-3.84Q53.15-4.04 53.15-4.20L53.15-4.20Q53.15-4.68 52.67-4.68ZM57.33 0.10Q56.04 0.10 55.39-0.57Q54.75-1.23 54.75-2.42Q54.75-3.60 55.47-4.23Q56.20-4.86 57.32-4.86L57.32-4.86Q59.59-4.86 59.50-2.58L59.50-2.58L56.68-2.58L56.68-2.19Q56.68-1.21 56.93-0.71Q57.18-0.21 57.80-0.21L57.80-0.21Q58.96-0.21 59.32-1.45L59.32-1.45L59.50-1.42Q59.31-0.70 58.81-0.30Q58.32 0.10 57.33 0.10L57.33 0.10ZM56.69-3.27L56.69-2.78L57.72-2.78L57.72-3.27Q57.72-4.08 57.62-4.38Q57.53-4.67 57.24-4.67Q56.96-4.67 56.82-4.36Q56.69-4.04 56.69-3.27L56.69-3.27Z"/></svg>