<svg xmlns="http://www.w3.org/2000/svg" viewBox="-0.5760000000000001 46.57599999999999 585.7199999999999 70.84800000000001"><path d="M24 101L24 100L24 95Q27 95 28 94Q29 94 29 94Q29 93 29 92L29 92Q29 92 29 90L29 90L28 86Q24 86 22 86L22 86Q20 86 17 86L17 86L16 86L14 91Q14 92 14 93L14 93Q14 94 15 94Q15 95 17 95L17 95L19 95L20 95L19 100Q18 100 15 100Q11 100 8 100L8 100L-1 100L-0 95Q1 94 2 93Q3 92 4 90L4 90L16 54L31 53L32 53Q33 58 36 71Q40 83 42 90L42 90Q42 92 44 93Q45 95 47 95L47 95L47 95L47 100Q46 100 43 100Q40 100 37 100L37 100Q33 100 29 100Q25 100 24 101L24 101ZM18 79L22 79Q22 79 27 79L27 79L23 64L22 64L18 79ZM47 101L48 95Q50 95 51 94Q51 93 51 90L51 90L51 58Q51 56 51 55Q51 54 50 54Q49 54 47 54L47 54L46 53L47 49Q56 48 63 47L63 47L64 48Q62 54 62 92L62 92Q62 94 62 94Q62 95 63 95L63 95L66 95L66 95L65 100Q59 100 56 100L56 100Q53 100 47 101L47 101ZM85 101Q77 101 72 96Q68 92 68 84L68 84Q68 79 70 74Q72 70 76 68Q80 66 86 66L86 66Q98 66 98 79L98 79Q98 81 98 83L98 83L97 84L79 84Q79 88 81 91Q84 93 87 93L87 93Q91 93 96 91L96 91L96 91L98 95Q95 97 91 99Q88 101 85 101L85 101ZM79 79L87 79Q88 79 88 78Q88 78 88 77L88 77Q88 72 84 72L84 72Q79 72 79 79L79 79ZM136 70Q132 71 131 71L131 71L130 71Q133 74 133 78L133 78Q133 82 131 85Q129 88 125 89Q122 91 117 91L117 91Q114 91 112 90L112 90Q111 92 111 92L111 92Q111 94 113 94Q115 95 120 95L120 95Q124 96 128 96Q131 97 133 99Q136 100 136 104L136 104Q136 107 133 110Q130 114 125 115Q121 117 116 117L116 117Q110 117 106 115Q102 112 102 107L102 107Q104 105 109 102L109 102L109 102Q106 101 104 99Q102 97 102 94L102 94Q105 92 108 89L108 89L108 89Q105 87 104 85Q103 82 103 79L103 79Q103 75 105 72Q107 69 110 67Q114 66 118 66L118 66Q119 66 123 66L123 66Q125 66 126 66L126 66Q129 66 136 64L136 64L137 64L136 70ZM118 85Q123 85 123 79L123 79Q123 76 121 74Q120 72 118 72L118 72Q115 72 114 73Q113 75 113 78L113 78Q113 82 114 83Q116 85 118 85L118 85ZM115 103Q114 104 113 105Q113 106 113 107L113 107Q113 109 114 110Q116 111 119 111L119 111Q122 111 124 110Q126 109 126 107L126 107Q126 106 125 105Q124 105 122 104Q120 104 115 103L115 103ZM139 95Q141 95 142 94Q143 93 143 91L143 91L143 77Q143 75 142 74Q142 73 140 73L140 73L138 73L138 72L139 68Q143 67 148 67Q152 66 153 66L153 66L154 66Q154 67 154 69Q153 71 153 73L153 73L154 73Q156 70 159 68Q161 66 164 66L164 66Q165 66 166 66Q166 66 167 66L167 66L167 67Q167 68 166 73Q165 78 165 82L165 82L160 82Q160 78 159 77Q159 76 158 76L158 76Q157 76 156 76Q155 77 154 78L154 78Q154 80 153 85Q153 89 153 92L153 92Q153 93 154 94Q154 95 156 95L156 95Q157 95 158 94Q159 94 159 94L159 94L160 95L159 100Q158 100 154 100Q151 100 148 100L148 100Q146 100 143 100Q140 100 139 100L139 100L139 95ZM185 101Q177 101 173 96Q168 92 168 84L168 84Q168 79 170 74Q173 70 177 68Q181 66 186 66L186 66Q199 66 199 79L199 79Q199 81 198 83L198 83L197 84L179 84Q179 88 182 91Q184 93 188 93L188 93Q191 93 196 91L196 91L197 91L198 95Q195 97 192 99Q188 101 185 101L185 101ZM179 79L187 79Q188 79 188 78Q188 78 188 77L188 77Q188 72 185 72L185 72Q179 72 179 79L179 79ZM205 117Q204 117 202 116Q201 115 200 113Q198 112 198 111L198 111L199 110Q204 109 208 107Q211 105 214 101L214 101L212 97Q210 90 207 84Q205 77 204 75L204 75Q203 73 202 72Q201 72 200 72L200 72L199 71L200 66L205 66Q209 66 213 66Q217 66 217 66L217 66L218 66L217 71Q215 71 214 72Q214 72 214 73L214 73Q214 75 216 81Q217 87 218 89L218 89L219 89Q225 74 225 73L225 73Q225 72 224 72Q224 72 223 72L223 72L221 72L221 71L221 66Q222 66 224 66Q227 66 229 66L229 66L236 66L235 72Q234 72 233 73Q233 73 232 75L232 75L223 97Q214 117 205 117L205 117ZM262 101Q258 101 256 99Q254 98 254 95L254 95L253 95Q251 97 249 99Q247 101 245 101L245 101Q243 101 240 99Q238 98 237 95Q235 92 235 89L235 89Q235 87 236 85Q238 84 240 83L240 83L254 80L254 79Q254 76 252 75Q250 73 248 73L248 73Q246 73 243 74Q241 75 239 77L239 77L238 76L237 71Q241 69 245 67Q249 66 251 66L251 66Q258 66 261 68Q264 71 264 76L264 76Q264 77 263 82L263 82Q263 83 263 86Q262 88 262 90L262 90Q262 91 263 92Q264 92 265 92L265 92Q266 92 268 91L268 91L269 93Q268 96 265 98Q263 100 262 101L262 101ZM249 93Q250 93 251 92Q252 92 253 91L253 91L253 85L247 86Q246 87 246 87Q245 88 245 88L245 88Q245 90 246 91Q247 93 249 93L249 93ZM299 101Q291 101 287 96Q282 92 282 84L282 84Q282 79 284 74Q287 70 291 68Q295 66 300 66L300 66Q313 66 313 79L313 79Q313 81 312 83L312 83L311 84L293 84Q293 88 296 91Q298 93 302 93L302 93Q305 93 310 91L310 91L311 91L312 95Q309 97 306 99Q302 101 299 101L299 101ZM293 79L301 79Q302 79 302 78Q302 78 302 77L302 77Q302 72 299 72L299 72Q293 72 293 79L293 79ZM332 100L332 100L332 96Q334 96 334 96Q335 95 335 95L335 95Q335 94 334 93L334 93L330 88Q330 88 328 90Q327 91 327 93Q326 94 326 94L326 94Q326 95 326 95Q327 96 328 96L328 96L328 96L328 100Q327 100 325 100Q322 100 320 100L320 100Q319 100 317 100Q315 100 314 100L314 100L314 100L314 96Q316 95 317 94Q318 93 321 89L321 89L326 83L322 76Q320 74 318 73Q317 72 315 71L315 71L314 71L315 66Q316 66 318 66Q320 66 324 66L324 66Q327 66 330 66Q332 66 333 66L333 66L334 67L333 71Q331 71 331 72L331 72Q331 73 331 74Q331 75 332 76L332 76L335 79L338 75Q338 75 338 74Q339 74 339 73Q339 73 339 72L339 72Q339 72 339 71Q338 71 337 71L337 71L337 71L337 66L344 66Q346 66 348 66Q350 66 351 66L351 66L351 67L350 71Q346 74 344 77L344 77L339 84L344 91Q346 93 347 94Q349 95 351 95L351 95L351 96L350 100Q349 100 347 100Q345 100 343 100L343 100Q340 100 337 100Q333 100 332 100L332 100ZM365 101Q355 101 355 92L355 92L355 77Q355 74 354 74Q354 73 351 73L351 73L350 72L351 68Q354 67 357 65Q360 63 362 61Q364 60 365 60L365 60L367 61Q367 61 367 63Q366 65 366 68L366 68L373 67L374 68L373 73L366 73Q365 79 365 87L365 87Q365 90 366 91Q367 93 369 93L369 93Q370 93 372 92Q373 92 373 92L373 92L374 94Q374 95 372 96Q370 98 368 99Q367 101 365 101L365 101ZM377 95Q379 95 380 94Q381 93 381 91L381 91L381 77Q381 75 380 74Q380 73 378 73L378 73L376 73L376 72L376 68Q381 67 385 67Q390 66 391 66L391 66L392 66Q392 67 392 69Q391 71 391 73L391 73L392 73Q394 70 397 68Q399 66 402 66L402 66Q403 66 403 66Q404 66 404 66L404 66L405 67Q404 68 404 73Q403 78 403 82L403 82L398 82Q398 78 397 77Q397 76 395 76L395 76Q395 76 394 76Q393 77 392 78L392 78Q391 80 391 85Q391 89 391 92L391 92Q391 93 391 94Q392 95 393 95L393 95Q395 95 396 94Q397 94 397 94L397 94L398 95L397 100Q396 100 392 100Q389 100 386 100L386 100Q383 100 380 100Q377 100 376 100L376 100L377 95ZM432 101Q429 101 427 99Q425 98 425 95L425 95L424 95Q422 97 420 99Q418 101 416 101L416 101Q413 101 411 99Q409 98 407 95Q406 92 406 89L406 89Q406 87 407 85Q408 84 410 83L410 83L424 80L424 79Q424 76 423 75Q421 73 418 73L418 73Q416 73 414 74Q412 75 410 77L410 77L409 76L408 71Q412 69 416 67Q420 66 422 66L422 66Q428 66 432 68Q435 71 435 76L435 76Q435 77 434 82L434 82Q434 83 434 86Q433 88 433 90L433 90Q433 91 434 92Q435 92 436 92L436 92Q437 92 439 91L439 91L440 93Q438 96 436 98Q434 100 432 101L432 101ZM420 93Q421 93 422 92Q423 92 424 91L424 91L424 85L418 86Q417 87 416 87Q416 88 416 88L416 88Q416 90 417 91Q418 93 420 93L420 93ZM469 101Q466 101 463 100Q461 100 459 100Q457 99 456 99L456 99L456 99L456 58Q456 56 455 55Q454 54 453 54L453 54L451 54L451 53L451 49Q456 48 461 48Q466 47 468 47L468 47L468 48Q467 50 466 70L466 70Q472 66 474 66L474 66Q480 66 484 70Q487 74 487 82L487 82Q487 87 485 92Q483 96 478 98Q474 101 469 101L469 101ZM470 94Q473 94 475 91Q476 89 476 85L476 85Q476 79 475 77Q473 74 470 74L470 74Q469 74 468 74Q467 75 466 75L466 75L466 93Q466 93 468 93Q469 94 470 94L470 94ZM507 101Q499 101 495 96Q491 92 491 84L491 84Q491 79 493 74Q495 70 499 68Q503 66 509 66L509 66Q516 66 520 70Q524 74 524 82L524 82Q524 88 522 92Q520 96 516 99Q512 101 507 101L507 101ZM508 94Q510 94 512 92Q513 90 513 86L513 86Q513 79 511 76Q510 73 507 73L507 73Q505 73 503 75Q502 77 502 81L502 81Q502 88 504 91Q505 94 508 94L508 94ZM527 101L528 95Q530 95 531 94Q531 93 531 90L531 90L531 58Q531 56 531 55Q531 54 530 54Q529 54 526 54L526 54L526 53L526 49Q536 48 543 47L543 47L544 48Q541 54 541 92L541 92Q541 94 542 94Q542 95 543 95L543 95L546 95L546 95L545 100Q539 100 536 100L536 100Q533 100 527 101L527 101ZM577 101Q574 101 572 100Q570 98 570 96L570 96L569 95Q563 101 561 101L561 101Q555 101 551 96Q548 92 548 85L548 85Q548 79 550 75Q552 71 557 68Q561 66 566 66L566 66Q568 66 569 66L569 66L569 58Q569 56 568 55Q568 54 566 54L566 54Q565 54 565 54Q564 54 564 54L564 54L565 49Q570 49 574 48Q579 47 581 47L581 47L582 48Q581 49 580 61Q579 73 579 90L579 90Q579 91 580 92Q580 92 581 92L581 92Q582 92 583 92Q584 92 584 91L584 91L585 93Q585 93 584 95Q583 97 581 98Q579 100 577 101L577 101ZM565 93Q566 93 567 92Q568 92 568 92Q569 91 569 91L569 91L569 74Q569 74 568 73Q568 73 567 73Q566 73 565 73L565 73Q562 73 560 75Q559 77 559 82L559 82Q559 87 560 90Q562 93 565 93L565 93Z"/></svg>