<svg xmlns="http://www.w3.org/2000/svg" viewBox="-0.9360000000000002 46.57599999999999 518.976 70.84800000000001"><path d="M24 101L24 100L24 97Q28 96 29 96Q30 95 30 94L30 94Q30 93 30 91L30 91L28 84Q26 84 21 84L21 84Q17 84 13 85L13 85L11 91Q10 93 10 94L10 94Q10 95 11 96Q12 96 14 96L14 96L18 96L18 97L18 100Q17 100 13 100Q10 100 7 100L7 100Q5 100 2 100Q-0 100-1 100L-1 100L-0 96Q2 96 3 95Q4 94 5 91L5 91L18 54L26 53L27 53Q27 55 29 62Q31 68 33 76Q35 85 38 91L38 91Q38 94 40 95Q41 96 44 96L44 96L44 97L44 100Q43 100 40 100Q38 100 35 100L35 100Q32 100 28 100Q25 101 24 101L24 101ZM15 80L20 80Q23 80 26 80L26 80L21 62L21 62L15 80ZM44 101L44 97Q46 97 47 96Q48 95 48 94Q48 93 48 90L48 90L48 56Q48 54 48 53Q47 52 45 52L45 52Q44 52 44 52L44 52L43 52L44 49Q50 48 56 47L56 47L57 48Q56 49 55 63Q55 76 55 93L55 93Q55 95 55 96Q56 96 57 96L57 96L59 96L60 97L59 100Q58 100 57 100L57 100Q54 100 52 100L52 100Q49 100 44 101L44 101ZM79 101Q71 101 67 96Q63 92 63 85L63 85Q63 80 65 75Q67 71 71 69Q75 66 79 66L79 66Q85 66 88 69Q91 72 91 78L91 78Q91 80 90 81L90 81L89 82L70 82Q70 88 73 92Q75 95 80 95L80 95Q84 95 89 93L89 93L89 93L90 96Q88 98 84 99Q81 101 79 101L79 101ZM70 79L82 78Q83 78 83 78Q83 78 83 77L83 77Q83 74 82 72Q81 71 78 71L78 71Q75 71 73 73Q71 75 70 79L70 79ZM127 70L122 70L121 71Q124 74 124 78L124 78Q124 81 122 84Q120 87 117 89Q113 91 109 91L109 91Q107 91 105 90L105 90Q103 92 103 93L103 93Q103 95 105 95Q107 96 112 96L112 96Q116 97 119 98Q122 98 124 100Q127 101 127 104L127 104Q127 108 124 111Q121 114 117 116Q113 117 108 117L108 117Q103 117 100 115Q96 112 96 108L96 108Q97 106 99 105Q101 103 104 102L104 102L104 101Q100 101 98 99Q96 97 96 94L96 94Q99 91 102 89L102 89L102 89Q99 87 98 85Q97 83 97 79L97 79Q97 76 98 73Q100 70 104 68Q107 66 111 66L111 66Q112 66 115 67L115 67Q117 67 118 67L118 67Q121 67 128 65L128 65L128 65L127 70ZM111 87Q114 87 115 85Q117 83 117 79L117 79Q117 76 115 73Q113 71 110 71L110 71Q107 71 105 73Q104 75 104 78L104 78Q104 82 106 84Q107 87 111 87L111 87ZM107 102Q106 103 105 105Q104 106 104 108L104 108Q104 110 106 112Q107 113 111 113L111 113Q113 113 116 112Q118 111 119 110Q120 108 120 107L120 107Q120 105 119 105Q118 104 116 103Q113 103 107 102L107 102ZM133 97Q135 97 136 95Q136 94 136 91L136 91L136 76Q136 74 136 73Q135 72 133 72L133 72Q133 72 133 72Q132 72 132 72L132 72L132 71L132 69Q135 68 139 67Q142 66 143 66L143 66L144 67Q144 67 143 70Q143 72 143 74L143 74L143 74Q146 71 148 69Q151 67 154 67L154 67Q154 67 155 67Q156 67 156 67L156 67L156 67Q156 68 155 72Q155 76 155 79L155 79L151 79Q151 76 151 75Q150 74 149 74L149 74Q148 74 146 75Q145 76 143 78L143 78Q143 80 143 85Q143 89 143 92L143 92Q143 95 143 95Q144 96 146 96L146 96Q147 96 148 96Q149 96 149 96L149 96L149 96L149 100Q148 100 145 100Q143 100 140 100L140 100Q138 100 135 100Q133 100 132 100L132 100L133 97ZM175 101Q167 101 163 96Q159 92 159 85L159 85Q159 80 161 75Q163 71 167 69Q171 66 175 66L175 66Q181 66 184 69Q187 72 187 78L187 78Q187 80 186 81L186 81L185 82L166 82Q166 88 169 92Q171 95 176 95L176 95Q180 95 185 93L185 93L185 93L186 96Q184 98 180 99Q177 101 175 101L175 101ZM166 79L178 78Q179 78 179 78Q179 78 179 77L179 77Q179 74 178 72Q177 71 174 71L174 71Q171 71 169 73Q167 75 166 79L166 79ZM193 117Q192 117 190 115Q188 113 188 113L188 113L189 112Q193 112 197 109Q200 106 203 100L203 100Q196 81 193 74L193 74Q193 72 192 71Q191 71 189 71L189 71L189 70L189 67L195 67Q198 67 201 67Q204 67 205 67L205 67L205 67L204 70Q202 70 201 71Q200 71 200 72L200 72Q200 73 202 77Q203 82 204 86Q206 91 206 92L206 92L207 92Q214 74 214 72L214 72Q214 71 214 71Q213 70 212 70L212 70L209 70L209 70L209 67Q210 67 212 67Q214 67 217 67L217 67L223 67L222 71Q221 71 220 72Q219 72 219 74L219 74L209 96Q206 105 203 109Q201 114 198 116Q196 117 193 117L193 117ZM248 101Q242 101 241 95L241 95L241 95Q238 98 236 99Q234 101 233 101L233 101Q229 101 226 98Q224 95 224 91L224 91Q224 89 225 87Q226 86 228 85L228 85L241 82L241 79Q241 76 240 74Q238 72 235 72L235 72Q233 72 231 73Q229 74 227 75L227 75L226 75L225 72Q228 70 232 68Q236 66 237 66L237 66Q243 66 246 69Q248 71 248 76L248 76Q248 77 248 82L248 82Q247 90 247 92L247 92Q247 93 248 94Q248 95 250 95L250 95Q251 95 252 94Q253 94 254 93L254 93L255 95Q254 97 252 98Q250 100 248 101L248 101ZM235 95Q236 95 238 94Q239 93 241 92L241 92L241 85L232 87Q230 88 230 90L230 90Q230 92 232 93Q233 95 235 95L235 95ZM292 97Q294 97 295 96Q295 95 296 93L296 93L296 79Q296 76 294 74Q293 72 290 72L290 72Q287 72 283 76L283 76Q283 76 283 78L283 78Q282 90 282 93L282 93Q282 95 283 96Q283 96 284 96L284 96Q285 96 286 96Q286 96 287 96L287 96L287 96L286 100Q285 100 283 100Q281 100 279 100L279 100Q276 100 274 100Q272 100 271 100L271 100L272 97Q274 96 275 96Q276 95 276 93L276 93L276 76Q276 74 275 73Q274 72 272 72L272 72L271 72L271 71L271 68Q275 68 278 67Q282 66 283 66L283 66L283 67Q283 67 283 69Q283 70 282 72L282 72L283 72Q285 70 288 68Q291 66 293 66L293 66Q296 66 299 68Q301 69 302 72L302 72Q304 70 308 68Q311 66 313 66L313 66Q318 66 320 69Q323 71 323 76L323 76Q323 77 322 83L322 83Q322 91 322 93L322 93Q322 95 322 96Q323 96 324 96L324 96Q325 96 326 96Q326 96 327 96L327 96L327 97L326 100Q325 100 323 100Q321 100 319 100L319 100Q317 100 315 100Q312 100 312 100L312 100L312 97Q314 96 315 96Q315 95 316 93L316 93L316 79Q316 76 314 74Q313 72 310 72L310 72Q307 72 303 76L303 76L302 93Q302 95 302 96Q303 96 304 96L304 96Q305 96 306 96Q306 96 307 96L307 96L307 97L306 100Q305 100 303 100Q301 100 299 100L299 100Q297 100 295 100Q292 101 291 101L291 101L292 97ZM347 101Q339 101 335 96Q331 92 331 85L331 85Q331 80 333 75Q335 71 339 69Q343 66 347 66L347 66Q353 66 356 69Q359 72 359 78L359 78Q359 80 358 81L358 81L357 82L338 82Q338 88 341 92Q343 95 348 95L348 95Q352 95 357 93L357 93L357 93L358 96Q356 98 352 99Q349 101 347 101L347 101ZM338 79L350 78Q351 78 351 78Q351 78 351 77L351 77Q351 74 350 72Q349 71 346 71L346 71Q343 71 341 73Q339 75 338 79L338 79ZM393 101Q388 101 387 96L387 96L386 96Q379 101 377 101L377 101Q371 101 367 96Q364 92 364 85L364 85Q364 80 366 76Q368 71 373 69Q377 66 382 66L382 66Q384 66 386 67L386 67L386 56Q386 54 385 53Q385 52 383 52L383 52Q383 52 382 52Q382 52 382 52L382 52L382 49Q385 48 389 48Q393 47 394 47L394 47L395 48Q394 49 393 62Q393 76 393 92L393 92Q393 93 393 94Q394 95 395 95L395 95Q396 95 397 94Q398 94 398 94Q399 93 399 93L399 93L400 95Q400 95 399 96Q398 98 397 99Q395 100 393 101L393 101ZM379 95Q381 95 382 94Q384 94 385 93Q386 92 386 92L386 92L386 73Q386 73 385 72Q384 72 383 72Q382 71 380 71L380 71Q376 71 373 74Q371 77 371 83L371 83Q371 86 372 89Q373 92 375 93Q377 95 379 95L379 95ZM403 101L403 97Q405 97 406 96Q407 95 407 93L407 93L407 76Q407 73 407 72Q406 72 404 72L404 72Q404 72 403 72Q403 72 403 72L403 72L403 69Q406 68 410 67Q414 67 415 66L415 66L415 67Q415 69 414 76Q414 84 414 93L414 93Q414 95 414 96Q415 96 416 96L416 96Q417 96 417 96Q418 96 418 96L418 96L418 97L418 100Q417 100 415 100Q413 100 411 100L411 100Q409 100 406 100Q403 101 403 101L403 101ZM410 59Q408 59 407 58Q406 56 406 55L406 55Q406 52 407 51Q408 50 411 50L411 50Q413 50 414 51Q415 52 415 54L415 54Q415 56 413 57Q412 59 410 59L410 59ZM427 75Q427 72 424 72L424 72Q424 72 423 72Q422 72 422 72L422 72L423 69Q426 68 430 67Q433 67 434 66L434 66L435 67Q434 69 434 75Q433 82 433 88L433 88Q433 92 434 93Q435 95 438 95L438 95Q440 95 442 94Q443 93 446 91L446 91L446 75Q446 73 445 72Q444 72 442 72L442 72L441 72L441 68Q445 68 449 67Q452 67 453 66L453 66L454 67Q453 69 453 76Q452 83 452 92L452 92Q452 93 453 94Q454 95 455 95L455 95Q456 95 457 94Q458 94 458 94Q459 93 459 93L459 93L460 94Q460 95 459 96Q457 98 456 99Q454 101 453 101L453 101Q447 101 446 95L446 95L446 95Q443 98 440 99Q438 101 437 101L437 101Q432 101 429 99Q426 96 426 92L426 92L427 75ZM483 97Q485 97 486 96Q487 95 487 93L487 93L487 79Q487 76 486 74Q484 72 482 72L482 72Q478 72 474 76L474 76Q474 76 474 78L474 78Q473 90 473 93L473 93Q473 95 474 96Q474 96 476 96L476 96Q476 96 477 96Q478 96 478 96L478 96L478 96L477 100Q477 100 475 100Q473 100 470 100L470 100Q468 100 466 100Q463 100 463 100L463 100L463 97Q465 96 466 96Q467 95 467 93L467 93L467 76Q467 74 466 73Q465 72 463 72L463 72L462 72L462 71L463 68Q466 68 470 67Q473 66 474 66L474 66L475 67Q474 67 474 69Q474 70 474 72L474 72L474 72Q476 70 479 68Q482 66 484 66L484 66Q488 66 490 68Q493 69 494 72L494 72Q496 70 499 68Q502 66 504 66L504 66Q509 66 511 69Q514 71 514 76L514 76Q514 77 514 83L514 83Q513 91 513 93L513 93Q513 95 514 96Q514 96 516 96L516 96Q516 96 517 96Q518 96 518 96L518 96L518 97L517 100Q517 100 515 100Q512 100 510 100L510 100Q508 100 506 100Q503 100 503 100L503 100L503 97Q505 96 506 96Q507 95 507 93L507 93L507 79Q507 76 506 74Q504 72 502 72L502 72Q498 72 494 76L494 76L493 93Q493 95 494 96Q494 96 496 96L496 96Q496 96 497 96Q498 96 498 96L498 96L498 97L497 100Q497 100 495 100Q493 100 490 100L490 100Q489 100 486 100Q483 101 483 101L483 101L483 97Z"/></svg>