<svg xmlns="http://www.w3.org/2000/svg" viewBox="-2.5920000000000005 46.791999999999994 715.176 70.632"><path d="M40 90Q40 92 41 93Q42 95 44 95L44 95L44 95L43 100Q42 100 40 100Q37 100 34 100L34 100Q30 100 26 100Q23 100 21 101L21 101L21 100L22 95Q24 95 25 94Q27 94 27 94Q27 93 27 92L27 92L27 90L27 86L21 86Q20 86 18 86Q16 86 15 86L15 86L13 91Q13 92 13 93L13 93Q13 95 15 95L15 95L17 95L18 95L17 100Q16 100 12 100Q9 100 6 100L6 100L-3 100L-1 95Q0 94 1 93Q2 92 3 90L3 90L19 54L34 53L35 53Q35 58 37 71Q39 83 40 90L40 90ZM18 79L22 79Q23 79 25 79L25 79L26 79L25 64L24 64L18 79ZM58 91Q59 91 60 90Q61 89 63 88L63 88L64 88L65 91Q60 96 57 99Q54 101 52 101L52 101Q48 101 48 97L48 97Q48 96 49 89Q50 81 51 76L51 76Q54 56 54 55L54 55Q54 54 54 53Q53 52 52 52L52 52L49 52L50 48Q54 48 59 47Q63 47 65 47L65 47L66 48Q66 50 64 58Q62 66 61 75Q59 85 58 91L58 91L58 91ZM95 73Q95 76 93 79Q91 81 87 83Q84 85 77 87L77 87Q77 90 78 91Q79 93 81 93L81 93Q83 93 85 91Q87 90 88 87L88 87L90 87L93 91Q91 95 86 98Q82 101 78 101L78 101Q73 101 70 97Q67 94 67 88L67 88Q67 82 70 77Q72 72 77 69Q81 66 86 66L86 66Q90 66 92 68Q95 70 95 73L95 73ZM84 73Q81 73 80 75Q78 78 77 82L77 82Q86 79 86 75L86 75Q86 74 85 74Q85 73 84 73L84 73ZM102 117Q98 117 95 116Q92 115 90 112Q88 110 89 107L89 107L89 106Q92 105 101 100L101 100L101 99Q99 98 97 96Q96 93 96 89L96 89Q96 84 99 79Q101 73 105 70Q110 66 114 66L114 66L119 68L120 66L121 65L128 66L129 68Q128 71 127 74Q126 78 126 81L126 81Q126 81 125 87L125 87Q125 95 124 98L124 98Q124 102 120 107Q116 111 111 114Q106 117 102 117L102 117ZM108 91Q110 91 112 86Q115 81 117 75L117 75Q116 74 114 73Q113 73 111 73L111 73Q110 73 109 75Q108 76 107 79Q107 82 107 85L107 85Q107 88 107 89Q108 91 108 91L108 91ZM106 110Q110 110 112 107Q115 105 115 100L115 100L117 87L116 87Q112 94 110 96Q108 99 106 100L106 100Q99 105 99 106L99 106Q99 107 101 109Q103 110 106 110L106 110ZM132 99Q132 96 134 86Q136 76 136 75L136 75Q136 72 133 72L133 72L131 72L132 67Q135 67 140 67Q145 67 146 66L146 66L147 68Q147 69 146 72Q145 75 145 79L145 79L145 79Q148 73 151 69Q154 66 157 66L157 66Q158 66 158 67Q159 68 159 69L159 69Q159 71 158 74Q158 76 157 79Q157 81 156 81L156 81L152 82Q153 81 153 80L153 80Q153 78 151 78L151 78Q150 78 147 82Q145 85 143 91L143 91L142 97Q142 99 139 100Q136 101 133 101L133 101L132 99ZM186 73Q186 76 184 79Q182 81 179 83Q175 85 168 87L168 87Q168 90 170 91Q171 93 173 93L173 93Q175 93 176 91Q178 90 179 87L179 87L181 87L184 91Q182 95 178 98Q173 101 169 101L169 101Q164 101 161 97Q158 94 158 88L158 88Q158 82 161 77Q164 72 168 69Q172 66 177 66L177 66Q181 66 184 68Q186 70 186 73L186 73ZM175 73Q173 73 171 75Q169 78 168 82L168 82Q177 79 177 75L177 75Q177 74 176 74Q176 73 175 73L175 73ZM206 67L218 66Q219 67 219 68Q220 70 220 72L220 72Q220 76 216 83Q213 90 206 100L206 100Q199 109 194 113Q189 117 185 117L185 117Q183 117 180 116Q178 115 178 113L178 113Q179 109 182 106L182 106L183 106Q185 109 188 109L188 109Q189 109 191 108Q193 106 195 104L195 104Q193 84 192 74L192 74Q191 73 191 73Q190 72 189 72L189 72Q189 72 188 72Q187 72 187 72L187 72L187 67L201 66L202 67Q202 75 202 92L202 92L203 92Q206 87 208 82Q209 78 209 75L209 75Q209 74 208 72Q208 71 206 70L206 70L206 67ZM249 91Q249 91 250 90Q251 90 253 88L253 88L254 88L256 91Q250 97 247 99Q244 101 242 101L242 101Q240 101 239 100Q239 99 239 98L239 98Q239 97 241 87L241 87L240 87Q237 93 235 96Q232 99 229 101L229 101Q225 101 223 98Q220 95 220 90L220 90Q220 84 223 79Q225 73 229 70Q233 66 238 66L238 66L244 68L244 66L245 65L253 66L253 68Q250 82 248 91L248 91L249 91ZM232 91Q233 91 236 86Q239 81 241 75L241 75Q240 74 238 73Q237 73 236 73L236 73Q234 73 233 75Q232 77 231 80Q231 83 231 86L231 86Q231 88 231 90Q232 91 232 91L232 91ZM295 73Q295 76 293 79Q291 81 287 83Q284 85 277 87L277 87Q277 90 278 91Q279 93 281 93L281 93Q283 93 285 91Q287 90 288 87L288 87L290 87L293 91Q291 95 286 98Q282 101 278 101L278 101Q273 101 270 97Q267 94 267 88L267 88Q267 82 270 77Q272 72 277 69Q281 66 286 66L286 66Q290 66 292 68Q295 70 295 73L295 73ZM284 73Q281 73 280 75Q278 78 277 82L277 82Q286 79 286 75L286 75Q286 74 285 74Q285 73 284 73L284 73ZM326 66Q329 66 332 68L332 68Q330 73 328 77L328 77L326 77Q326 75 325 74Q324 73 323 73L323 73Q322 73 320 75Q319 77 317 81L317 81Q319 88 320 90Q321 93 322 93L322 93Q323 93 324 92Q324 91 326 90L326 90L327 90L329 93Q325 97 322 99Q319 101 317 101L317 101Q315 101 314 100Q313 99 312 97Q311 95 310 90L310 90Q307 96 305 98Q302 101 299 101L299 101Q297 101 296 100Q294 99 293 98L293 98Q295 93 297 89L297 89L299 89Q300 93 302 93L302 93Q303 93 305 91Q306 89 308 85L308 85Q306 80 306 78Q305 76 304 75Q304 74 303 74L303 74Q302 74 301 74Q300 75 299 77L299 77L298 77L296 73Q300 69 303 67Q306 66 309 66L309 66Q310 66 311 66Q312 67 313 69Q314 71 316 76L316 76Q318 70 320 68Q323 66 326 66L326 66ZM352 88L353 91Q349 95 346 98Q343 101 342 101L342 101Q338 101 336 99Q334 97 334 94L334 94Q334 93 334 93L334 93L337 73L337 72L332 72L332 72L333 68L338 67Q338 64 339 62Q339 60 339 59L339 59L349 56L350 57Q350 58 349 61Q348 64 348 67L348 67L355 67L356 67L355 72L348 72L347 73L344 89L344 90Q344 91 345 91L345 91Q346 91 347 90Q348 89 350 87L350 87L352 88ZM356 99Q356 96 358 86Q360 76 360 75L360 75Q360 72 357 72L357 72L355 72L356 67Q359 67 364 67Q369 67 370 66L370 66L371 68Q371 69 370 72Q369 75 369 79L369 79L369 79Q372 73 375 69Q378 66 381 66L381 66Q382 66 382 67Q383 68 383 69L383 69Q383 71 382 74Q382 76 381 79Q381 81 380 81L380 81L376 82Q377 81 377 80L377 80Q377 78 375 78L375 78Q374 78 371 82Q369 85 367 91L367 91L366 97Q366 99 363 100Q360 101 357 101L357 101L356 99ZM410 91Q411 91 412 90Q413 90 415 88L415 88L416 88L417 91Q412 97 409 99Q406 101 404 101L404 101Q402 101 401 100Q400 99 400 98L400 98Q400 97 403 87L403 87L402 87Q399 93 396 96Q394 99 391 101L391 101Q387 101 384 98Q382 95 382 90L382 90Q382 84 385 79Q387 73 391 70Q395 66 400 66L400 66L405 68L406 66L407 65L414 66L415 68Q412 82 410 91L410 91L410 91ZM394 91Q395 91 398 86Q401 81 403 75L403 75Q402 74 400 73Q399 73 398 73L398 73Q396 73 395 75Q394 77 393 80Q393 83 393 86L393 86Q393 88 393 90Q393 91 394 91L394 91ZM429 96Q432 81 434 69Q436 56 436 55L436 55Q436 54 435 53Q435 52 433 52L433 52L431 52L432 48Q436 48 446 47L446 47L447 48Q444 66 441 80L441 80L442 80Q445 75 447 71Q450 68 452 66L452 66Q457 66 460 69Q462 72 462 78L462 78Q462 84 460 89Q457 94 453 98Q448 101 444 101L444 101Q440 101 436 100Q433 99 430 97L430 97L429 96ZM450 75Q449 75 446 80Q443 85 441 92L441 92Q442 92 444 93Q445 93 446 93L446 93Q448 93 449 92Q450 90 451 87Q452 84 452 81L452 81Q452 78 451 77Q451 75 450 75L450 75ZM477 101Q471 101 468 97Q465 94 465 87L465 87Q465 81 468 76Q470 71 474 68Q479 66 484 66L484 66Q489 66 492 69Q495 72 495 78L495 78Q495 85 493 90Q491 95 486 98Q482 101 477 101L477 101ZM480 94Q482 94 483 91Q485 88 485 81L485 81Q485 77 484 75Q483 73 481 73L481 73Q476 73 476 85L476 85Q476 90 477 92Q478 94 480 94L480 94ZM510 91Q510 91 511 90Q512 89 514 88L514 88L515 88L517 91Q512 96 509 99Q506 101 503 101L503 101Q499 101 499 97L499 97Q499 96 500 89Q502 81 502 76L502 76Q506 56 506 55L506 55Q506 54 505 53Q504 52 503 52L503 52L501 52L501 48Q505 48 510 47Q515 47 516 47L516 47L517 48Q517 50 515 58Q514 66 512 75Q510 85 509 91L509 91L510 91ZM547 91Q547 91 548 90Q549 90 551 88L551 88L552 88L554 91Q548 97 545 99Q542 101 540 101L540 101Q537 101 537 98L537 98Q537 96 539 87L539 87L538 87Q535 93 533 96Q530 99 527 101L527 101Q523 101 521 98Q518 95 518 90L518 90Q518 84 521 79Q523 73 528 70Q532 66 536 66L536 66L541 67L542 56Q543 55 543 55L543 55Q543 53 542 53Q541 52 540 52L540 52L538 52L538 48Q542 48 547 47Q552 47 553 47L553 47L554 48Q553 53 551 67Q548 82 546 91L546 91L547 91ZM530 91Q532 91 534 86Q537 81 539 75L539 75Q539 74 537 73Q535 73 534 73L534 73Q533 73 531 75Q530 77 530 80Q529 83 529 86L529 86Q529 88 529 90Q530 91 530 91L530 91ZM577 91Q578 91 579 90Q580 89 582 88L582 88L583 88L584 91Q579 96 576 99Q573 101 571 101L571 101Q567 101 567 97L567 97Q570 77 570 75L570 75Q570 73 570 73Q569 72 568 72L568 72L565 72L566 67Q572 67 581 66L581 66L582 68Q581 72 579 79Q578 86 577 91L577 91L577 91ZM576 61Q574 61 572 60Q571 58 571 56L571 56Q571 53 573 51Q575 49 578 49L578 49Q581 49 582 50Q583 51 583 54L583 54Q583 57 581 59Q579 61 576 61L576 61ZM606 88L607 91Q604 95 601 98Q598 101 596 101L596 101Q592 101 590 99Q588 97 588 94L588 94Q588 93 588 93L588 93L592 73L591 72L587 72L587 72L587 68L592 67Q593 64 593 62Q593 60 593 59L593 59L604 56L605 57Q605 58 604 61Q603 64 602 67L602 67L610 67L610 67L609 72L602 72L601 73L598 89L598 90Q598 91 600 91L600 91Q600 91 601 90Q603 89 605 87L605 87L606 88ZM636 91Q637 91 638 90Q639 90 641 88L641 88L642 88L644 91Q638 97 635 99Q632 101 630 101L630 101Q628 101 627 100Q626 99 626 98L626 98Q626 97 629 87L629 87L628 87Q625 93 622 96Q620 99 617 101L617 101Q613 101 610 98Q608 95 608 90L608 90Q608 84 611 79Q613 73 617 70Q621 66 626 66L626 66L632 68L632 66L633 65L640 66L641 68Q638 82 636 91L636 91L636 91ZM620 91Q621 91 624 86Q627 81 629 75L629 75Q628 74 626 73Q625 73 624 73L624 73Q622 73 621 75Q620 77 619 80Q619 83 619 86L619 86Q619 88 619 90Q619 91 620 91L620 91ZM656 91Q657 91 658 90Q659 89 661 88L661 88L662 88L663 91Q658 96 655 99Q652 101 650 101L650 101Q646 101 646 97L646 97Q646 96 647 89Q648 81 649 76L649 76Q652 56 652 55L652 55Q652 54 652 53Q651 52 650 52L650 52L647 52L648 48Q652 48 657 47Q661 47 663 47L663 47L664 48Q663 50 662 58Q660 66 659 75Q657 85 656 91L656 91L656 91ZM677 91Q678 91 679 90Q680 89 682 88L682 88L683 88L684 91Q679 96 676 99Q673 101 671 101L671 101Q667 101 667 97L667 97Q670 77 670 75L670 75Q670 73 669 73Q669 72 668 72L668 72L665 72L666 67Q672 67 681 66L681 66L682 68Q680 72 679 79Q678 86 677 91L677 91L677 91ZM676 61Q673 61 672 60Q671 58 671 56L671 56Q671 53 673 51Q675 49 678 49L678 49Q680 49 682 50Q683 51 683 54L683 54Q683 57 681 59Q679 61 676 61L676 61ZM702 73Q701 73 699 75Q698 76 697 79Q696 82 696 86L696 86Q696 89 697 91Q698 93 700 93L700 93Q702 93 703 91Q705 89 706 87L706 87L708 87L711 91Q709 95 705 98Q701 101 697 101L697 101Q692 101 689 97Q686 94 686 88L686 88Q686 82 689 77Q691 72 696 69Q700 66 705 66L705 66Q707 66 709 66Q711 67 712 67L712 67L713 68L709 76L707 77Q705 73 702 73L702 73Z"/></svg>