<svg xmlns="http://www.w3.org/2000/svg" viewBox="-1.08 46.57599999999999 475.20000000000005 70.84800000000001"><path d="M23.90 100.72L23.69 100.22L23.98 97.41Q27.65 97.12 29.02 96.54Q30.38 95.97 30.38 94.67L30.38 94.67Q30.38 93.23 29.74 91.22L29.74 91.22L27.36 83.37Q25.63 83.30 19.87 83.30L19.87 83.30Q16.42 83.30 12.02 83.87L12.02 83.87L9.36 91.36Q8.71 93.30 8.71 94.17L8.71 94.17Q8.71 95.75 9.72 96.44Q10.73 97.12 13.03 97.12L13.03 97.12L17.14 97.12L17.28 97.41L16.85 100.50Q15.98 100.43 12.89 100.22Q9.79 100 6.84 100L6.84 100Q4.18 100 1.91 100.07Q-0.36 100.14-1.08 100.22L-1.08 100.22L-0.50 96.83Q1.51 96.62 2.74 95.43Q3.96 94.24 5.11 91.29L5.11 91.29L19.15 54.50L23.69 53.27L24.26 53.27Q24.70 55.00 26.46 61.26Q28.22 67.53 30.78 76.10Q33.34 84.66 35.71 91.86L35.71 91.86Q36.58 94.53 38.02 95.61Q39.46 96.69 42.62 96.98L42.62 96.98L42.77 97.26L42.26 100.22Q41.40 100.22 39.13 100.11Q36.86 100 34.63 100L34.63 100Q31.18 100 27.97 100.29Q24.77 100.58 23.90 100.72L23.90 100.72ZM13.32 80.34L19.66 80.34Q22.25 80.34 26.35 79.98L26.35 79.98L20.66 61.12L20.16 61.12L13.32 80.34ZM42.55 100.86L42.84 97.91Q44.86 97.34 45.68 96.47Q46.51 95.61 46.69 94.38Q46.87 93.16 46.87 90.28L46.87 90.28L46.87 54.93Q46.87 52.70 46.37 51.90Q45.86 51.11 44.28 51.11L44.28 51.11Q43.92 51.11 42.62 51.26L42.62 51.26L42.41 51.11L42.70 48.66Q48.74 47.80 53.35 46.58L53.35 46.58L53.78 47.51Q52.99 48.74 52.38 62.92Q51.77 77.10 51.77 92.94L51.77 92.94Q51.77 95.10 52.34 96.04Q52.92 96.98 54.29 96.98L54.29 96.98L56.81 96.83L56.95 97.12L56.38 100.22Q51.62 100 49.97 100L49.97 100Q47.52 100 42.55 100.86L42.55 100.86ZM75.89 100.86Q71.42 100.86 67.97 98.88Q64.51 96.90 62.64 93.27Q60.77 89.63 60.77 84.95L60.77 84.95Q60.77 80.13 62.96 75.88Q65.16 71.63 68.83 69.11Q72.50 66.59 76.68 66.59L76.68 66.59Q81.94 66.59 84.67 69.26Q87.41 71.92 87.41 77.03L87.41 77.03Q87.41 79.12 86.98 80.56L86.98 80.56L86.04 81.42L66.17 81.42Q66.10 88.41 68.94 92.19Q71.78 95.97 76.90 95.97L76.90 95.97Q80.93 95.97 85.68 93.74L85.68 93.74L86.11 93.88L86.90 95.97Q84.31 97.84 81.18 99.35Q78.05 100.86 75.89 100.86L75.89 100.86ZM66.46 78.76L79.49 78.11Q80.57 77.97 80.93 77.61Q81.29 77.25 81.29 76.17L81.29 76.17Q81.29 73.29 79.74 71.78Q78.19 70.26 75.31 70.26L75.31 70.26Q71.93 70.26 69.52 72.57Q67.10 74.87 66.46 78.76L66.46 78.76ZM123.91 69.54Q122.54 69.76 117.72 70.19L117.72 70.19L117.43 70.55Q120.31 73.72 120.31 77.90L120.31 77.90Q120.31 81.35 118.40 84.30Q116.50 87.26 113.26 88.95Q110.02 90.64 106.13 90.64L106.13 90.64Q104.04 90.64 102.10 90.06L102.10 90.06Q100.44 91 99.72 91.79Q99 92.58 99 93.38L99 93.38Q99 95.03 101.23 95.68Q103.46 96.33 108.22 96.90L108.22 96.90Q112.90 97.48 115.78 98.09Q118.66 98.70 120.74 100.29Q122.83 101.87 122.83 104.68L122.83 104.68Q122.83 107.85 120.28 110.80Q117.72 113.75 113.58 115.59Q109.44 117.42 105.05 117.42L105.05 117.42Q99.94 117.42 97.02 114.87Q94.10 112.31 94.10 107.85L94.10 107.85Q95.11 106.55 97.02 104.82Q98.93 103.10 101.23 101.37L101.23 101.37L101.23 100.94Q97.49 100.29 95.47 98.49Q93.46 96.69 93.38 93.88L93.38 93.88Q96.19 91.22 99.43 89.27L99.43 89.27L99.43 88.98Q96.91 87.54 95.51 85.13Q94.10 82.72 94.10 79.70L94.10 79.70Q94.10 76.17 95.94 73.18Q97.78 70.19 100.84 68.39Q103.90 66.59 107.50 66.59L107.50 66.59Q109.15 66.59 111.60 67.02L111.60 67.02Q113.40 67.38 114.55 67.38L114.55 67.38Q117.79 67.02 124.49 65.22L124.49 65.22L124.70 65.51L123.91 69.54ZM107.78 87.47Q111.10 87.47 113.00 85.38Q114.91 83.30 114.91 79.62L114.91 79.62Q114.91 75.45 112.61 72.86Q110.30 70.26 106.63 70.26L106.63 70.26Q103.32 70.26 101.41 72.42Q99.50 74.58 99.50 78.26L99.50 78.26Q99.50 82.36 101.81 84.92Q104.11 87.47 107.78 87.47L107.78 87.47ZM104.33 101.51Q102.17 103.02 101.02 104.86Q99.86 106.70 99.86 108.50L99.86 108.50Q99.86 110.94 101.95 112.42Q104.04 113.90 107.50 113.90L107.50 113.90Q110.23 113.90 112.72 112.92Q115.20 111.95 116.71 110.30Q118.22 108.64 118.22 106.77L118.22 106.77Q118.22 105.33 117.14 104.46Q116.06 103.60 113.15 102.95Q110.23 102.30 104.33 101.51L104.33 101.51ZM130.03 97.41Q132.19 97.19 132.91 96.00Q133.63 94.82 133.63 91.43L133.63 91.43L133.63 75.59Q133.63 73.22 132.98 72.21Q132.34 71.20 130.90 71.20L130.90 71.20Q130.32 71.20 129.92 71.27Q129.53 71.34 129.38 71.42L129.38 71.42L129.02 70.91L129.24 68.68Q131.98 68.18 135.04 67.46Q138.10 66.74 138.96 66.52L138.96 66.52L139.46 66.95Q139.32 67.60 139.03 69.94Q138.74 72.28 138.82 74.37L138.82 74.37L139.10 74.58Q141.26 71.20 144.18 69.04Q147.10 66.88 149.26 66.88L149.26 66.88Q150.26 66.88 150.80 66.99Q151.34 67.10 151.49 67.17L151.49 67.17L151.70 67.46Q151.56 68.46 151.09 71.74Q150.62 75.02 150.55 77.75L150.55 77.75L147.74 77.97Q147.74 75.02 147.35 74.04Q146.95 73.07 145.80 73.07L145.80 73.07Q144.22 73.07 142.42 74.40Q140.62 75.74 139.10 77.97L139.10 77.97Q139.03 80.06 138.82 84.88Q138.60 89.70 138.53 92.66L138.53 92.66Q138.53 95.10 139.25 95.97Q139.97 96.83 141.98 96.83L141.98 96.83Q142.92 96.83 143.86 96.76Q144.79 96.69 145.15 96.69L145.15 96.69L145.22 96.98L144.58 100.14Q143.86 100.14 141.70 100.07Q139.54 100 137.23 100L137.23 100Q134.57 100 132.41 100.11Q130.25 100.22 129.67 100.29L129.67 100.29L130.03 97.41ZM170.35 100.86Q165.89 100.86 162.43 98.88Q158.98 96.90 157.10 93.27Q155.23 89.63 155.23 84.95L155.23 84.95Q155.23 80.13 157.43 75.88Q159.62 71.63 163.30 69.11Q166.97 66.59 171.14 66.59L171.14 66.59Q176.40 66.59 179.14 69.26Q181.87 71.92 181.87 77.03L181.87 77.03Q181.87 79.12 181.44 80.56L181.44 80.56L180.50 81.42L160.63 81.42Q160.56 88.41 163.40 92.19Q166.25 95.97 171.36 95.97L171.36 95.97Q175.39 95.97 180.14 93.74L180.14 93.74L180.58 93.88L181.37 95.97Q178.78 97.84 175.64 99.35Q172.51 100.86 170.35 100.86L170.35 100.86ZM160.92 78.76L173.95 78.11Q175.03 77.97 175.39 77.61Q175.75 77.25 175.75 76.17L175.75 76.17Q175.75 73.29 174.20 71.78Q172.66 70.26 169.78 70.26L169.78 70.26Q166.39 70.26 163.98 72.57Q161.57 74.87 160.92 78.76L160.92 78.76ZM187.49 117.35Q186.91 117.35 185.62 115.66Q184.32 113.97 184.32 113.25L184.32 113.25L184.68 112.74Q188.71 112.74 192.20 109.40Q195.70 106.05 198.22 100L198.22 100Q192.67 82.43 189.29 73.50L189.29 73.50Q188.64 71.70 187.45 70.91Q186.26 70.12 184.39 70.05L184.39 70.05L184.25 69.76L184.68 67.38L190.66 67.46Q193.32 67.46 195.95 67.24Q198.58 67.02 199.30 66.95L199.30 66.95L199.44 67.31L199.01 69.54Q196.56 69.62 195.73 70.01Q194.90 70.41 194.90 71.42L194.90 71.42Q194.90 72.57 196.31 77.39Q197.71 82.22 199.22 87.00Q200.74 91.79 201.24 93.23L201.24 93.23L201.53 93.23Q209.81 73.43 209.81 71.70L209.81 71.70Q209.81 69.83 207.07 69.83L207.07 69.83L203.76 69.83L203.62 69.54L204.05 67.17Q204.70 67.24 206.93 67.35Q209.16 67.46 211.39 67.46L211.39 67.46L217.51 67.38L217.01 70.05Q215.42 70.34 214.60 71.16Q213.77 71.99 212.98 74.15L212.98 74.15L203.83 96.04Q200.09 105.11 197.71 109.50Q195.34 113.90 193.03 115.66Q190.73 117.42 187.49 117.35L187.49 117.35ZM242.64 100.86Q236.81 100.86 236.23 95.03L236.23 95.03L235.94 94.96Q233.35 97.55 231.23 99.06Q229.10 100.58 228.02 100.58L228.02 100.58Q223.99 100.58 221.40 98.06Q218.81 95.54 218.81 91.65L218.81 91.65Q218.81 89.56 219.85 87.98Q220.90 86.39 222.62 85.89L222.62 85.89L236.30 82.14L236.38 78.98Q236.38 75.38 234.72 73.36Q233.06 71.34 230.04 71.34L230.04 71.34Q228.02 71.34 225.79 72.28Q223.56 73.22 221.40 74.94L221.40 74.94L221.04 74.73L220.18 71.63Q223.56 69.69 226.98 68.14Q230.40 66.59 231.91 66.59L231.91 66.59Q236.59 66.59 239.26 69.04Q241.92 71.49 241.92 75.88L241.92 75.88Q241.92 77.46 241.42 82.36L241.42 82.36Q240.62 90.28 240.62 92.44L240.62 92.44Q240.62 94.02 241.42 94.89Q242.21 95.75 243.58 95.75L243.58 95.75Q244.73 95.75 245.95 95.21Q247.18 94.67 247.90 93.95L247.90 93.95L248.90 95.10Q247.82 96.90 246.13 98.60Q244.44 100.29 242.64 100.86L242.64 100.86ZM229.25 95.68Q230.62 95.68 232.45 94.71Q234.29 93.74 235.80 92.22L235.80 92.22L236.16 84.88L226.37 87.83Q224.28 88.48 224.28 90.86L224.28 90.86Q224.28 92.94 225.68 94.31Q227.09 95.68 229.25 95.68L229.25 95.68ZM267.91 97.41Q270.07 97.19 270.79 96.00Q271.51 94.82 271.51 91.43L271.51 91.43L271.51 75.59Q271.51 73.22 270.86 72.21Q270.22 71.20 268.78 71.20L268.78 71.20Q268.20 71.20 267.80 71.27Q267.41 71.34 267.26 71.42L267.26 71.42L266.90 70.91L267.12 68.68Q269.86 68.18 272.92 67.46Q275.98 66.74 276.84 66.52L276.84 66.52L277.34 66.95Q277.20 67.60 276.91 69.94Q276.62 72.28 276.70 74.37L276.70 74.37L276.98 74.58Q279.14 71.20 282.06 69.04Q284.98 66.88 287.14 66.88L287.14 66.88Q288.14 66.88 288.68 66.99Q289.22 67.10 289.37 67.17L289.37 67.17L289.58 67.46Q289.44 68.46 288.97 71.74Q288.50 75.02 288.43 77.75L288.43 77.75L285.62 77.97Q285.62 75.02 285.23 74.04Q284.83 73.07 283.68 73.07L283.68 73.07Q282.10 73.07 280.30 74.40Q278.50 75.74 276.98 77.97L276.98 77.97Q276.91 80.06 276.70 84.88Q276.48 89.70 276.41 92.66L276.41 92.66Q276.41 95.10 277.13 95.97Q277.85 96.83 279.86 96.83L279.86 96.83Q280.80 96.83 281.74 96.76Q282.67 96.69 283.03 96.69L283.03 96.69L283.10 96.98L282.46 100.14Q281.74 100.14 279.58 100.07Q277.42 100 275.11 100L275.11 100Q272.45 100 270.29 100.11Q268.13 100.22 267.55 100.29L267.55 100.29L267.91 97.41ZM308.23 100.86Q303.77 100.86 300.31 98.88Q296.86 96.90 294.98 93.27Q293.11 89.63 293.11 84.95L293.11 84.95Q293.11 80.13 295.31 75.88Q297.50 71.63 301.18 69.11Q304.85 66.59 309.02 66.59L309.02 66.59Q314.28 66.59 317.02 69.26Q319.75 71.92 319.75 77.03L319.75 77.03Q319.75 79.12 319.32 80.56L319.32 80.56L318.38 81.42L298.51 81.42Q298.44 88.41 301.28 92.19Q304.13 95.97 309.24 95.97L309.24 95.97Q313.27 95.97 318.02 93.74L318.02 93.74L318.46 93.88L319.25 95.97Q316.66 97.84 313.52 99.35Q310.39 100.86 308.23 100.86L308.23 100.86ZM298.80 78.76L311.83 78.11Q312.91 77.97 313.27 77.61Q313.63 77.25 313.63 76.17L313.63 76.17Q313.63 73.29 312.08 71.78Q310.54 70.26 307.66 70.26L307.66 70.26Q304.27 70.26 301.86 72.57Q299.45 74.87 298.80 78.76L298.80 78.76ZM356.26 69.54Q354.89 69.76 350.06 70.19L350.06 70.19L349.78 70.55Q352.66 73.72 352.66 77.90L352.66 77.90Q352.66 81.35 350.75 84.30Q348.84 87.26 345.60 88.95Q342.36 90.64 338.47 90.64L338.47 90.64Q336.38 90.64 334.44 90.06L334.44 90.06Q332.78 91 332.06 91.79Q331.34 92.58 331.34 93.38L331.34 93.38Q331.34 95.03 333.58 95.68Q335.81 96.33 340.56 96.90L340.56 96.90Q345.24 97.48 348.12 98.09Q351.00 98.70 353.09 100.29Q355.18 101.87 355.18 104.68L355.18 104.68Q355.18 107.85 352.62 110.80Q350.06 113.75 345.92 115.59Q341.78 117.42 337.39 117.42L337.39 117.42Q332.28 117.42 329.36 114.87Q326.45 112.31 326.45 107.85L326.45 107.85Q327.46 106.55 329.36 104.82Q331.27 103.10 333.58 101.37L333.58 101.37L333.58 100.94Q329.83 100.29 327.82 98.49Q325.80 96.69 325.73 93.88L325.73 93.88Q328.54 91.22 331.78 89.27L331.78 89.27L331.78 88.98Q329.26 87.54 327.85 85.13Q326.45 82.72 326.45 79.70L326.45 79.70Q326.45 76.17 328.28 73.18Q330.12 70.19 333.18 68.39Q336.24 66.59 339.84 66.59L339.84 66.59Q341.50 66.59 343.94 67.02L343.94 67.02Q345.74 67.38 346.90 67.38L346.90 67.38Q350.14 67.02 356.83 65.22L356.83 65.22L357.05 65.51L356.26 69.54ZM340.13 87.47Q343.44 87.47 345.35 85.38Q347.26 83.30 347.26 79.62L347.26 79.62Q347.26 75.45 344.95 72.86Q342.65 70.26 338.98 70.26L338.98 70.26Q335.66 70.26 333.76 72.42Q331.85 74.58 331.85 78.26L331.85 78.26Q331.85 82.36 334.15 84.92Q336.46 87.47 340.13 87.47L340.13 87.47ZM336.67 101.51Q334.51 103.02 333.36 104.86Q332.21 106.70 332.21 108.50L332.21 108.50Q332.21 110.94 334.30 112.42Q336.38 113.90 339.84 113.90L339.84 113.90Q342.58 113.90 345.06 112.92Q347.54 111.95 349.06 110.30Q350.57 108.64 350.57 106.77L350.57 106.77Q350.57 105.33 349.49 104.46Q348.41 103.60 345.49 102.95Q342.58 102.30 336.67 101.51L336.67 101.51ZM364.61 75.02Q364.61 71.13 361.94 71.13L361.94 71.13Q361.44 71.13 360.86 71.24Q360.29 71.34 360.14 71.42L360.14 71.42L360.43 68.75Q363.24 68.32 366.48 67.56Q369.72 66.81 370.73 66.59L370.73 66.59L371.16 67.46Q370.44 69.33 369.86 75.95Q369.29 82.58 369.29 88.84L369.29 88.84Q369.29 95.90 375.05 95.90L375.05 95.90Q377.21 95.90 379.08 94.85Q380.95 93.81 383.76 91.79L383.76 91.79L383.76 75.09Q383.76 72.93 382.97 72.06Q382.18 71.20 380.16 71.20L380.16 71.20L378.43 71.27L378.72 68.68Q381.89 68.25 385.34 67.53Q388.80 66.81 389.81 66.59L389.81 66.59L390.24 67.46Q389.59 69.11 389.12 76.46Q388.66 83.80 388.66 92.44L388.66 92.44Q388.66 94.02 389.45 94.89Q390.24 95.75 391.61 95.75L391.61 95.75Q392.62 95.75 393.59 95.36Q394.56 94.96 395.17 94.53Q395.78 94.10 395.93 93.95L395.93 93.95L396.94 95.10Q396.65 95.54 395.60 96.90Q394.56 98.27 393.16 99.57Q391.75 100.86 390.67 100.86L390.67 100.86Q384.84 100.86 384.26 95.03L384.26 95.03L383.90 94.89Q380.45 97.55 377.68 99.21Q374.90 100.86 373.90 100.86L373.90 100.86Q369.29 100.86 366.80 98.70Q364.32 96.54 364.32 92.51L364.32 92.51L364.61 75.02ZM399.02 100.86L399.31 97.91Q401.33 97.34 402.16 96.47Q402.98 95.61 403.16 94.38Q403.34 93.16 403.34 90.28L403.34 90.28L403.34 54.93Q403.34 52.70 402.84 51.90Q402.34 51.11 400.75 51.11L400.75 51.11Q400.39 51.11 399.10 51.26L399.10 51.26L398.88 51.11L399.17 48.66Q405.22 47.80 409.82 46.58L409.82 46.58L410.26 47.51Q409.46 48.74 408.85 62.92Q408.24 77.10 408.24 92.94L408.24 92.94Q408.24 95.10 408.82 96.04Q409.39 96.98 410.76 96.98L410.76 96.98L413.28 96.83L413.42 97.12L412.85 100.22Q408.10 100 406.44 100L406.44 100Q403.99 100 399.02 100.86L399.02 100.86ZM441.43 100.86Q435.60 100.86 435.02 95.03L435.02 95.03L434.74 94.96Q432.14 97.55 430.02 99.06Q427.90 100.58 426.82 100.58L426.82 100.58Q422.78 100.58 420.19 98.06Q417.60 95.54 417.60 91.65L417.60 91.65Q417.60 89.56 418.64 87.98Q419.69 86.39 421.42 85.89L421.42 85.89L435.10 82.14L435.17 78.98Q435.17 75.38 433.51 73.36Q431.86 71.34 428.83 71.34L428.83 71.34Q426.82 71.34 424.58 72.28Q422.35 73.22 420.19 74.94L420.19 74.94L419.83 74.73L418.97 71.63Q422.35 69.69 425.77 68.14Q429.19 66.59 430.70 66.59L430.70 66.59Q435.38 66.59 438.05 69.04Q440.71 71.49 440.71 75.88L440.71 75.88Q440.71 77.46 440.21 82.36L440.21 82.36Q439.42 90.28 439.42 92.44L439.42 92.44Q439.42 94.02 440.21 94.89Q441 95.75 442.37 95.75L442.37 95.75Q443.52 95.75 444.74 95.21Q445.97 94.67 446.69 93.95L446.69 93.95L447.70 95.10Q446.62 96.90 444.92 98.60Q443.23 100.29 441.43 100.86L441.43 100.86ZM428.04 95.68Q429.41 95.68 431.24 94.71Q433.08 93.74 434.59 92.22L434.59 92.22L434.95 84.88L425.16 87.83Q423.07 88.48 423.07 90.86L423.07 90.86Q423.07 92.94 424.48 94.31Q425.88 95.68 428.04 95.68L428.04 95.68ZM452.45 97.41Q454.61 97.19 455.33 96.00Q456.05 94.82 456.05 91.43L456.05 91.43L456.05 75.59Q456.05 73.22 455.40 72.21Q454.75 71.20 453.31 71.20L453.31 71.20Q452.74 71.20 452.34 71.27Q451.94 71.34 451.80 71.42L451.80 71.42L451.44 70.91L451.66 68.68Q454.39 68.18 457.45 67.46Q460.51 66.74 461.38 66.52L461.38 66.52L461.88 66.95Q461.74 67.60 461.45 69.94Q461.16 72.28 461.23 74.37L461.23 74.37L461.52 74.58Q463.68 71.20 466.60 69.04Q469.51 66.88 471.67 66.88L471.67 66.88Q472.68 66.88 473.22 66.99Q473.76 67.10 473.90 67.17L473.90 67.17L474.12 67.46Q473.98 68.46 473.51 71.74Q473.04 75.02 472.97 77.75L472.97 77.75L470.16 77.97Q470.16 75.02 469.76 74.04Q469.37 73.07 468.22 73.07L468.22 73.07Q466.63 73.07 464.83 74.40Q463.03 75.74 461.52 77.97L461.52 77.97Q461.45 80.06 461.23 84.88Q461.02 89.70 460.94 92.66L460.94 92.66Q460.94 95.10 461.66 95.97Q462.38 96.83 464.40 96.83L464.40 96.83Q465.34 96.83 466.27 96.76Q467.21 96.69 467.57 96.69L467.57 96.69L467.64 96.98L466.99 100.14Q466.27 100.14 464.11 100.07Q461.95 100 459.65 100L459.65 100Q456.98 100 454.82 100.11Q452.66 100.22 452.09 100.29L452.09 100.29L452.45 97.41Z"/></svg>