<svg xmlns="http://www.w3.org/2000/svg" viewBox="-0.33 -7.42 37.599999999999994 9.84"><path d="M5.93-1.53Q5.97-1.19 6.08-1.04Q6.19-0.89 6.40-0.86L6.40-0.86L6.46-0.76L6.28 0.03Q6.14 0.03 5.74 0.02Q5.34 0.01 4.90 0.01L4.90 0.01Q4.32 0.01 3.75 0.03Q3.18 0.05 3.02 0.06L3.02 0.06L2.95-0.03L3.11-0.87Q3.40-0.90 3.54-0.94Q3.67-0.97 3.72-1.03Q3.77-1.09 3.77-1.21L3.77-1.21L3.77-1.39L3.77-1.78L3.04-1.80Q2.84-1.80 2.60-1.78Q2.36-1.76 2.27-1.75L2.27-1.75L2.14-1.31Q2.08-1.12 2.08-1.04L2.08-1.04Q2.08-0.96 2.14-0.93Q2.19-0.89 2.31-0.89L2.31-0.89L2.58-0.89L2.65-0.79L2.47 0.04Q2.32 0.03 1.89 0.02Q1.45 0.01 0.97 0.01L0.97 0.01L-0.33 0.02L-0.16-0.85Q0.20-0.94 0.39-1.40L0.39-1.40L2.50-6.42L5.17-6.58L5.31-6.46L5.93-1.53ZM2.74-3.01L3.22-3.01Q3.29-3.01 3.71-3.03L3.71-3.03L3.61-4.78L3.39-4.78L2.74-3.01ZM8.74-1.54Q8.78-1.54 8.89-1.63Q9.01-1.72 9.26-1.95L9.26-1.95L9.49-1.91L9.69-1.43Q8.91-0.53 8.46-0.21Q8.01 0.12 7.59 0.12L7.59 0.12Q6.93 0.12 6.93-0.55L6.93-0.55Q6.93-0.72 7.41-3.64L7.41-3.64Q7.81-5.98 7.81-6.15L7.81-6.15Q7.81-6.32 7.73-6.40Q7.65-6.48 7.48-6.48L7.48-6.48L7.20-6.48L7.32-7.30Q7.89-7.30 8.63-7.35Q9.36-7.40 9.59-7.42L9.59-7.42L9.75-7.22Q9.61-6.55 9.22-4.53Q8.83-2.51 8.70-1.57L8.70-1.57L8.74-1.54ZM13.96-3.71Q13.96-3.24 13.71-2.91Q13.46-2.57 12.93-2.30Q12.39-2.03 11.47-1.75L11.47-1.75Q11.55-1.26 12.02-1.26L12.02-1.26Q12.52-1.26 12.93-1.97L12.93-1.97L13.15-1.94L13.67-1.36Q13.50-0.95 13.14-0.61Q12.78-0.27 12.32-0.07Q11.86 0.12 11.40 0.12L11.40 0.12Q10.66 0.12 10.21-0.39Q9.76-0.89 9.76-1.73L9.76-1.73Q9.76-2.57 10.15-3.28Q10.53-3.99 11.18-4.41Q11.82-4.83 12.58-4.83L12.58-4.83Q13.22-4.83 13.59-4.53Q13.96-4.23 13.96-3.71L13.96-3.71ZM12.21-3.63Q11.94-3.63 11.76-3.36Q11.57-3.09 11.50-2.57L11.50-2.57Q11.97-2.75 12.22-2.96Q12.46-3.17 12.46-3.40L12.46-3.40Q12.46-3.50 12.39-3.56Q12.32-3.63 12.21-3.63L12.21-3.63ZM14.99 2.42Q14.43 2.42 13.99 2.25Q13.55 2.08 13.30 1.78Q13.06 1.48 13.06 1.09L13.06 1.09Q13.06 1 13.07 0.95L13.07 0.95L13.11 0.82Q13.67 0.51 14.68 0.05L14.68 0.05L14.69-0.02Q14.33-0.18 14.13-0.55Q13.94-0.92 13.94-1.44L13.94-1.44Q13.94-2.21 14.32-2.98Q14.70-3.75 15.29-4.24Q15.88-4.73 16.48-4.73L16.48-4.73L17.20-4.52L17.25-4.73L17.45-4.84L18.78-4.73L18.93-4.45Q18.80-4.15 18.68-3.65Q18.56-3.15 18.52-2.81L18.52-2.81Q18.51-2.75 18.45-1.94L18.45-1.94Q18.44-1.76 18.40-1.20Q18.36-0.64 18.32-0.35L18.32-0.35Q18.26 0.19 17.69 0.84Q17.11 1.50 16.34 1.96Q15.58 2.42 14.99 2.42L14.99 2.42ZM15.92-1.43Q16.08-1.43 16.40-2.06Q16.72-2.69 16.92-3.42L16.92-3.42Q16.89-3.44 16.78-3.50Q16.67-3.56 16.51-3.62Q16.35-3.67 16.19-3.67L16.19-3.67Q16.09-3.67 15.99-3.43Q15.89-3.19 15.83-2.82Q15.76-2.45 15.76-2.09L15.76-2.09Q15.76-1.79 15.80-1.61Q15.85-1.43 15.92-1.43L15.92-1.43ZM15.59 1.17Q16.10 1.17 16.41 0.87Q16.73 0.57 16.80 0L16.80 0L17.01-1.74L16.91-1.77Q16.27-0.78 16-0.43Q15.73-0.08 15.49 0.08L15.49 0.08Q15.22 0.25 14.95 0.47Q14.68 0.68 14.68 0.72L14.68 0.72Q14.68 0.91 14.95 1.04Q15.21 1.17 15.59 1.17L15.59 1.17ZM19.11-0.16Q19.19-0.62 19.41-1.93Q19.64-3.24 19.64-3.49L19.64-3.49Q19.64-3.79 19.31-3.79L19.31-3.79L19.03-3.79L19.15-4.61Q19.71-4.61 20.43-4.66Q21.16-4.71 21.38-4.73L21.38-4.73L21.52-4.52Q21.49-4.41 21.39-4.01Q21.30-3.61 21.24-3.22L21.24-3.22L21.31-3.23Q22.07-4.82 22.90-4.82L22.90-4.82Q22.99-4.77 23.07-4.68Q23.16-4.59 23.20-4.50L23.20-4.50Q23.17-4.17 23.05-3.65Q22.94-3.13 22.82-2.71Q22.71-2.29 22.68-2.17L22.68-2.17L21.97-2.17Q22.01-2.38 22.01-2.54L22.01-2.54Q22.01-2.82 21.86-2.82L21.86-2.82Q21.68-2.82 21.42-2.39Q21.16-1.96 20.88-1.20L20.88-1.20L20.79-0.45Q20.76-0.24 20.32-0.09Q19.88 0.07 19.31 0.07L19.31 0.07L19.11-0.16ZM27.22-3.71Q27.22-3.24 26.97-2.91Q26.72-2.57 26.18-2.30Q25.65-2.03 24.73-1.75L24.73-1.75Q24.81-1.26 25.28-1.26L25.28-1.26Q25.78-1.26 26.19-1.97L26.19-1.97L26.41-1.94L26.93-1.36Q26.76-0.95 26.40-0.61Q26.04-0.27 25.58-0.07Q25.12 0.12 24.66 0.12L24.66 0.12Q23.92 0.12 23.47-0.39Q23.02-0.89 23.02-1.73L23.02-1.73Q23.02-2.57 23.40-3.28Q23.79-3.99 24.43-4.41Q25.08-4.83 25.84-4.83L25.84-4.83Q26.48-4.83 26.85-4.53Q27.22-4.23 27.22-3.71L27.22-3.71ZM25.47-3.63Q25.20-3.63 25.02-3.36Q24.83-3.09 24.76-2.57L24.76-2.57Q25.23-2.75 25.47-2.96Q25.72-3.17 25.72-3.40L25.72-3.40Q25.72-3.50 25.65-3.56Q25.58-3.63 25.47-3.63L25.47-3.63ZM29.88-4.57L31.76-4.84Q31.88-4.69 31.95-4.44Q32.01-4.18 32.01-3.86L32.01-3.86Q32.01-3.25 31.53-2.31Q31.05-1.36 30.06 0L30.06 0Q29.12 1.28 28.41 1.85Q27.70 2.42 27.03 2.42L27.03 2.42Q26.64 2.42 26.33 2.25Q26.02 2.08 25.93 1.82L25.93 1.82Q26.14 1.13 26.58 0.61L26.58 0.61L26.73 0.60Q26.94 0.87 27.12 0.99Q27.30 1.12 27.48 1.12L27.48 1.12Q27.67 1.12 27.88 0.98Q28.09 0.85 28.36 0.56L28.36 0.56Q27.93-2.81 27.77-3.52L27.77-3.52Q27.73-3.69 27.66-3.75Q27.60-3.82 27.47-3.82L27.47-3.82L27.21-3.81L27.27-4.60L29.33-4.76L29.44-4.67Q29.50-3.76 29.51-1.33L29.51-1.33L29.65-1.33Q29.92-1.94 30.10-2.52Q30.28-3.11 30.28-3.40L30.28-3.40Q30.28-3.63 30.14-3.81Q30.01-4 29.77-4.09L29.77-4.09L29.88-4.57ZM36.32-1.54Q36.42-1.54 36.84-1.95L36.84-1.95L37.07-1.91L37.27-1.43Q36.71-0.80 36.35-0.48Q35.99-0.15 35.71-0.01Q35.44 0.12 35.15 0.12L35.15 0.12Q34.64 0.12 34.64-0.36L34.64-0.36Q34.64-0.54 34.89-1.58L34.89-1.58L34.79-1.58Q34.38-0.88 34.07-0.49Q33.77-0.10 33.46 0.12L33.46 0.12Q32.75 0.12 32.35-0.29Q31.95-0.71 31.95-1.45L31.95-1.45Q31.95-2.22 32.32-2.98Q32.70-3.75 33.29-4.24Q33.89-4.72 34.49-4.72L34.49-4.72L35.21-4.52L35.26-4.72L35.45-4.84L36.79-4.72L36.87-4.49Q36.45-2.58 36.28-1.57L36.28-1.57L36.32-1.54ZM33.92-1.43Q34.08-1.43 34.40-2.06Q34.73-2.69 34.93-3.41L34.93-3.41Q34.52-3.67 34.19-3.67L34.19-3.67Q34.10-3.67 34.00-3.43Q33.91-3.19 33.84-2.82Q33.78-2.45 33.78-2.09L33.78-2.09Q33.78-1.81 33.82-1.62Q33.86-1.43 33.92-1.43L33.92-1.43Z"/></svg>