<svg xmlns="http://www.w3.org/2000/svg" viewBox="-0.7200000000000001 46.57599999999999 407.23199999999997 70.84800000000001"><path d="M24.19 100.58L23.83 100L24.19 95.75Q26.64 95.54 27.76 95.28Q28.87 95.03 29.30 94.56Q29.74 94.10 29.74 93.16L29.74 93.16Q29.74 92.30 29.38 90.64L29.38 90.64L27.86 85.10Q24.12 84.95 21.24 84.95L21.24 84.95Q19.94 84.95 15.84 85.31L15.84 85.31L14.33 85.46L12.53 91Q12.10 92.58 12.10 93.23L12.10 93.23Q12.10 94.53 12.85 95.03Q13.61 95.54 15.48 95.54L15.48 95.54L18.58 95.54L18.94 96.04L18.43 100.43Q17.42 100.36 14.11 100.18Q10.80 100 7.92 100L7.92 100Q4.90 100 2.48 100.07Q0.07 100.14-0.72 100.22L-0.72 100.22L-0.22 95.54Q1.44 95.25 2.52 94.17Q3.60 93.09 4.54 90.64L4.54 90.64L17.42 54.14L28.44 52.98L29.23 53.34Q30.31 57.45 33.73 70.16Q37.15 82.86 39.60 90.57L39.60 90.57Q40.39 93.16 41.62 94.24Q42.84 95.32 45.29 95.54L45.29 95.54L45.58 96.04L45.07 100.22Q44.14 100.14 41.54 100.07Q38.95 100 36.29 100L36.29 100Q32.47 100 28.84 100.25Q25.20 100.50 24.19 100.58L24.19 100.58ZM16.06 79.41L21.24 79.41Q22.03 79.41 26.57 79.19L26.57 79.19L22.32 63.14L21.38 63.14L16.06 79.41ZM45.72 100.65L46.22 96.26Q47.88 95.90 48.64 95.21Q49.39 94.53 49.61 93.48Q49.82 92.44 49.82 90.35L49.82 90.35L49.82 56.94Q49.82 55.00 49.50 54.17Q49.18 53.34 48.24 53.09Q47.30 52.84 45.14 52.98L45.14 52.98L44.86 52.70L45.29 48.88Q54.00 47.73 59.83 46.58L59.83 46.58L60.34 47.94Q59.33 50.32 58.72 62.63Q58.10 74.94 58.10 92.44L58.10 92.44Q58.10 94.24 58.61 94.96Q59.11 95.68 60.26 95.68L60.26 95.68L62.64 95.54L62.86 95.97L62.06 100.22L59.69 100.14Q55.66 100 53.93 100L53.93 100Q51.19 100 45.72 100.65L45.72 100.65ZM81.65 100.86Q74.09 100.86 69.73 96.44Q65.38 92.01 65.38 84.30L65.38 84.30Q65.38 79.12 67.61 74.94Q69.84 70.77 73.73 68.36Q77.62 65.94 82.37 65.94L82.37 65.94Q94.46 65.94 94.46 78.18L94.46 78.18Q94.46 80.34 93.96 82.22L93.96 82.22L93.10 83.08L74.45 83.08Q74.52 88.34 76.93 91.11Q79.34 93.88 83.66 93.88L83.66 93.88Q87.41 93.88 92.23 91.72L92.23 91.72L92.74 92.01L93.89 95.54Q91.22 97.55 87.73 99.21Q84.24 100.86 81.65 100.86L81.65 100.86ZM74.45 79.12L84.31 78.54Q85.18 78.47 85.43 78.18Q85.68 77.90 85.68 76.89L85.68 76.89Q85.68 71.56 81.14 71.56L81.14 71.56Q78.34 71.56 76.57 73.50Q74.81 75.45 74.45 79.12L74.45 79.12ZM131.40 70.05Q127.58 70.41 126.07 70.48L126.07 70.48L125.78 70.91Q128.66 74.01 128.66 78.04L128.66 78.04Q128.66 81.64 126.65 84.59Q124.63 87.54 121.10 89.20Q117.58 90.86 113.18 90.86L113.18 90.86Q110.81 90.86 108.50 90.28L108.50 90.28Q107.57 91.07 107.17 91.61Q106.78 92.15 106.78 92.73L106.78 92.73Q106.78 94.10 108.86 94.67Q110.95 95.25 115.49 95.75L115.49 95.75Q120.31 96.26 123.41 96.90Q126.50 97.55 128.77 99.24Q131.04 100.94 131.04 104.03L131.04 104.03Q131.04 107.42 128.30 110.51Q125.57 113.61 121.18 115.52Q116.78 117.42 111.96 117.42L111.96 117.42Q106.20 117.42 102.74 114.65Q99.29 111.88 99.29 107.27L99.29 107.27Q101.16 105.33 106.49 102.02L106.49 102.02L106.49 101.51Q103.03 100.94 101.12 99.03Q99.22 97.12 99.07 94.17L99.07 94.17Q101.66 91.50 104.98 89.34L104.98 89.34L104.98 88.91Q102.38 87.40 100.94 84.88Q99.50 82.36 99.50 79.19L99.50 79.19Q99.50 75.45 101.45 72.39Q103.39 69.33 106.78 67.60Q110.16 65.87 114.41 65.87L114.41 65.87Q116.21 65.87 118.66 66.30L118.66 66.30Q120.96 66.59 121.82 66.59L121.82 66.59Q124.42 66.45 131.90 64.22L131.90 64.22L132.34 64.50L131.40 70.05ZM114.48 86.10Q117.07 86.10 118.48 84.30Q119.88 82.50 119.88 79.12L119.88 79.12Q119.88 75.52 118.26 73.36Q116.64 71.20 113.69 71.20L113.69 71.20Q111.17 71.20 109.76 72.96Q108.36 74.73 108.36 78.26L108.36 78.26Q108.36 81.78 109.98 83.94Q111.60 86.10 114.48 86.10L114.48 86.10ZM110.95 102.45Q109.66 103.53 108.94 104.90Q108.22 106.26 108.22 107.63L108.22 107.63Q108.22 109.72 109.91 110.91Q111.60 112.10 114.70 112.10L114.70 112.10Q118.22 112.10 120.64 110.55Q123.05 109 123.05 106.77L123.05 106.77Q123.05 105.62 122.18 104.93Q121.32 104.25 118.84 103.71Q116.35 103.17 110.95 102.45L110.95 102.45ZM135.94 95.90Q138.10 95.75 138.85 94.74Q139.61 93.74 139.61 90.93L139.61 90.93L139.61 76.60Q139.61 74.15 138.96 73.25Q138.31 72.35 136.51 72.35L136.51 72.35L135.14 72.42L134.78 71.92L135.22 68.32Q139.03 67.67 143.03 66.88Q147.02 66.09 148.18 65.87L148.18 65.87L148.82 66.52Q148.68 67.17 148.43 69.26Q148.18 71.34 148.10 73.29L148.10 73.29L148.54 73.58Q150.77 70.19 153.47 68.32Q156.17 66.45 158.62 66.45L158.62 66.45Q159.62 66.45 160.27 66.52Q160.92 66.59 161.14 66.66L161.14 66.66L161.42 67.24Q161.21 68.46 160.70 72.53Q160.20 76.60 159.98 80.27L159.98 80.27L155.38 80.56Q155.38 77.10 154.98 75.99Q154.58 74.87 153.36 74.87L153.36 74.87Q152.21 74.87 150.91 75.74Q149.62 76.60 148.46 78.11L148.46 78.11Q148.39 80.13 148.14 84.70Q147.89 89.27 147.82 92.01L147.82 92.01Q147.82 93.88 148.43 94.60Q149.04 95.32 150.62 95.32L150.62 95.32Q151.70 95.32 152.78 95.25Q153.86 95.18 154.22 95.10L154.22 95.10L154.44 95.54L153.65 100.29Q152.64 100.22 149.94 100.11Q147.24 100 144.36 100L144.36 100Q141.62 100 138.89 100.11Q136.15 100.22 135.36 100.29L135.36 100.29L135.94 95.90ZM179.78 100.86Q172.22 100.86 167.87 96.44Q163.51 92.01 163.51 84.30L163.51 84.30Q163.51 79.12 165.74 74.94Q167.98 70.77 171.86 68.36Q175.75 65.94 180.50 65.94L180.50 65.94Q192.60 65.94 192.60 78.18L192.60 78.18Q192.60 80.34 192.10 82.22L192.10 82.22L191.23 83.08L172.58 83.08Q172.66 88.34 175.07 91.11Q177.48 93.88 181.80 93.88L181.80 93.88Q185.54 93.88 190.37 91.72L190.37 91.72L190.87 92.01L192.02 95.54Q189.36 97.55 185.87 99.21Q182.38 100.86 179.78 100.86L179.78 100.86ZM172.58 79.12L182.45 78.54Q183.31 78.47 183.56 78.18Q183.82 77.90 183.82 76.89L183.82 76.89Q183.82 71.56 179.28 71.56L179.28 71.56Q176.47 71.56 174.71 73.50Q172.94 75.45 172.58 79.12L172.58 79.12ZM198.65 117.35Q198.00 117.35 196.70 116.24Q195.41 115.12 194.36 113.72Q193.32 112.31 193.32 111.59L193.32 111.59L193.82 110.73Q198.43 110.37 202.03 107.74Q205.63 105.11 208.08 100.58L208.08 100.58Q207.86 100.14 207.76 99.71Q207.65 99.28 207.50 98.92L207.50 98.92Q206.57 96.40 203.36 87.36Q200.16 78.33 198.43 74.22L198.43 74.22Q197.71 72.57 196.67 71.88Q195.62 71.20 194.04 71.13L194.04 71.13L193.90 70.77L194.40 66.74L200.02 66.81Q203.26 66.81 207.07 66.59Q210.89 66.38 210.89 66.30L210.89 66.30L211.03 66.66L210.46 70.77Q208.37 70.84 207.68 71.24Q207.00 71.63 207.00 72.50L207.00 72.50Q207.00 73.58 208.12 77.57Q209.23 81.57 210.42 85.49Q211.61 89.42 211.97 90.57L211.97 90.57L212.69 90.57Q219.24 73.94 219.24 72.50L219.24 72.50Q219.24 71.70 218.74 71.34Q218.23 70.98 217.08 70.98L217.08 70.98L214.78 70.98L214.56 70.62L215.14 66.59Q215.86 66.66 218.02 66.74Q220.18 66.81 222.77 66.81L222.77 66.81L229.39 66.74L228.82 71.06Q227.23 71.42 226.51 72.10Q225.79 72.78 225.14 74.58L225.14 74.58L216.00 96.83Q211.39 107.99 207.40 112.71Q203.40 117.42 198.65 117.35L198.65 117.35ZM254.88 100.86Q251.71 100.86 249.88 99.46Q248.04 98.06 247.68 95.32L247.68 95.32L247.10 95.10Q244.80 97.48 242.64 99.03Q240.48 100.58 239.18 100.58L239.18 100.58Q234.94 100.58 232.13 97.59Q229.32 94.60 229.32 90.14L229.32 90.14Q229.32 87.90 230.47 86.28Q231.62 84.66 233.50 84.16L233.50 84.16L247.39 80.92L247.46 79.19Q247.46 76.10 245.81 74.37Q244.15 72.64 241.27 72.64L241.27 72.64Q239.33 72.64 237.06 73.61Q234.79 74.58 232.85 76.02L232.85 76.02L232.20 75.74L230.98 71.42Q234.58 69.40 238.54 67.67Q242.50 65.94 244.15 65.94L244.15 65.94Q250.13 65.94 253.12 68.64Q256.10 71.34 256.10 75.74L256.10 75.74Q256.10 77.32 255.46 82.22L255.46 82.22Q254.66 89.20 254.66 90.57L254.66 90.57Q254.66 91.94 255.38 92.73Q256.10 93.52 257.26 93.52L257.26 93.52Q258.12 93.52 259.09 93.12Q260.06 92.73 260.71 92.30L260.71 92.30L261.79 93.81Q260.50 96.11 258.59 98.24Q256.68 100.36 254.88 100.86L254.88 100.86ZM241.85 93.74Q242.93 93.74 244.40 93.16Q245.88 92.58 247.03 91.65L247.03 91.65L247.25 84.81L239.54 86.97Q237.82 87.40 237.82 89.34L237.82 89.34Q237.82 91.22 238.93 92.48Q240.05 93.74 241.85 93.74L241.85 93.74ZM291.60 100.72Q289.08 100.72 286.56 100.47Q284.04 100.22 282.38 99.96Q280.73 99.71 280.30 99.64L280.30 99.64L279.58 98.85L279.58 56.94Q279.58 54.64 278.93 53.74Q278.28 52.84 276.55 52.84L276.55 52.84Q275.98 52.84 275.54 52.91Q275.11 52.98 274.90 52.98L274.90 52.98L274.61 52.62L275.04 48.88Q279.14 48.30 283.68 47.55Q288.22 46.79 289.58 46.58L289.58 46.58L290.09 47.94Q288.79 49.46 288.22 70.77L288.22 70.77Q294.84 66.09 296.06 66.09L296.06 66.09Q302.33 66.09 306.04 70.37Q309.74 74.66 309.74 82L309.74 82Q309.74 87.40 307.40 91.65Q305.06 95.90 300.96 98.31Q296.86 100.72 291.60 100.72L291.60 100.72ZM293.26 94.89Q296.71 94.89 298.66 92.22Q300.60 89.56 300.60 84.74L300.60 84.74Q300.60 79.34 298.62 76.10Q296.64 72.86 293.47 72.86L293.47 72.86Q292.25 72.86 290.74 73.58Q289.22 74.30 288.07 75.30L288.07 75.30L287.86 93.74Q288.65 94.17 290.23 94.53Q291.82 94.89 293.26 94.89L293.26 94.89ZM329.11 100.86Q324.58 100.86 321.12 98.81Q317.66 96.76 315.79 93.02Q313.92 89.27 313.92 84.38L313.92 84.38Q313.92 78.98 316.12 74.80Q318.31 70.62 322.24 68.28Q326.16 65.94 331.27 65.94L331.27 65.94Q338.26 65.94 342.32 70.37Q346.39 74.80 346.39 82.36L346.39 82.36Q346.39 87.76 344.23 91.97Q342.07 96.18 338.15 98.52Q334.22 100.86 329.11 100.86L329.11 100.86ZM330.55 95.46Q333.65 95.46 335.27 92.98Q336.89 90.50 336.89 85.67L336.89 85.67Q336.89 78.90 335.02 75.45Q333.14 71.99 329.62 71.99L329.62 71.99Q326.52 71.99 324.90 74.48Q323.28 76.96 323.28 81.78L323.28 81.78Q323.28 88.55 325.15 92.01Q327.02 95.46 330.55 95.46L330.55 95.46ZM349.92 100.65L350.42 96.26Q352.08 95.90 352.84 95.21Q353.59 94.53 353.81 93.48Q354.02 92.44 354.02 90.35L354.02 90.35L354.02 56.94Q354.02 55.00 353.70 54.17Q353.38 53.34 352.44 53.09Q351.50 52.84 349.34 52.98L349.34 52.98L349.06 52.70L349.49 48.88Q358.20 47.73 364.03 46.58L364.03 46.58L364.54 47.94Q363.53 50.32 362.92 62.63Q362.30 74.94 362.30 92.44L362.30 92.44Q362.30 94.24 362.81 94.96Q363.31 95.68 364.46 95.68L364.46 95.68L366.84 95.54L367.06 95.97L366.26 100.22L363.89 100.14Q359.86 100 358.13 100L358.13 100Q355.39 100 349.92 100.65L349.92 100.65ZM399.31 100.86Q392.90 100.86 392.11 95.68L392.11 95.68L391.68 95.54Q384.70 100.58 383.26 100.58L383.26 100.58Q376.99 100.58 373.28 96.33Q369.58 92.08 369.58 84.81L369.58 84.81Q369.58 79.48 371.92 75.20Q374.26 70.91 378.40 68.50Q382.54 66.09 387.72 66.09L387.72 66.09Q389.45 66.09 391.46 66.30L391.46 66.30L391.46 57.02Q391.46 54.78 390.78 53.88Q390.10 52.98 388.44 52.98L388.44 52.98Q387.86 52.98 387.36 53.06Q386.86 53.13 386.71 53.20L386.71 53.20L387.14 48.95Q391.39 48.45 395.71 47.66Q400.03 46.86 401.33 46.58L401.33 46.58L401.98 47.80Q401.04 49.17 400.39 61.84Q399.74 74.51 399.74 90.57L399.74 90.57Q399.74 91.94 400.36 92.73Q400.97 93.52 402.05 93.52L402.05 93.52Q402.84 93.52 403.56 93.23Q404.28 92.94 404.75 92.66Q405.22 92.37 405.36 92.30L405.36 92.30L406.51 93.81Q406.30 94.24 405.29 95.68Q404.28 97.12 402.66 98.70Q401.04 100.29 399.31 100.86L399.31 100.86ZM385.92 93.95Q387.07 93.95 388.33 93.41Q389.59 92.87 390.42 92.30Q391.25 91.72 391.46 91.50L391.46 91.50L391.46 73.29Q391.32 73.22 390.60 72.93Q389.88 72.64 388.73 72.35Q387.58 72.06 386.14 72.06L386.14 72.06Q382.61 72.06 380.66 74.69Q378.72 77.32 378.72 82.14L378.72 82.14Q378.72 87.47 380.70 90.71Q382.68 93.95 385.92 93.95L385.92 93.95Z"/></svg>