<svg xmlns="http://www.w3.org/2000/svg" viewBox="-0.41000000000000003 -7.3500000000000005 32.93 9.760000000000002"><path d="M4.85-1.19Q4.92-0.82 5.08-0.68Q5.24-0.53 5.62-0.48L5.62-0.48L5.64-0.44L5.52 0.03Q5.40 0.03 5.08 0.01Q4.76 0 4.44 0L4.44 0Q3.96 0 3.50 0.04Q3.05 0.07 2.92 0.09L2.92 0.09L2.89 0.02L2.98-0.44Q3.35-0.47 3.53-0.52Q3.71-0.56 3.78-0.65Q3.85-0.74 3.85-0.91L3.85-0.91Q3.85-1 3.84-1.09Q3.83-1.18 3.82-1.25L3.82-1.25L3.67-2.23Q3.48-2.24 2.73-2.24L2.73-2.24Q2.39-2.24 1.72-2.17L1.72-2.17L1.30-1.21Q1.18-0.96 1.18-0.79L1.18-0.79Q1.18-0.62 1.29-0.55Q1.40-0.47 1.65-0.47L1.65-0.47L2.15-0.47L2.16-0.43L2.05 0.06Q1.93 0.05 1.51 0.03Q1.08 0 0.69 0L0.69 0Q0.32 0 0.01 0.01Q-0.31 0.02-0.41 0.03L-0.41 0.03L-0.27-0.51Q-0.01-0.54 0.17-0.70Q0.35-0.85 0.53-1.24L0.53-1.24L2.93-6.33L3.91-6.50L4.01-6.48Q4.01-6.41 4.30-4.45Q4.60-2.48 4.85-1.19L4.85-1.19ZM2-2.77L2.77-2.77Q3.05-2.77 3.60-2.82L3.60-2.82L3.23-5.31L3.13-5.31L2-2.77ZM7.00-0.79Q7.07-0.79 7.20-0.89Q7.32-0.98 7.74-1.34L7.74-1.34L7.88-1.33L8.03-1.04Q7.45-0.44 7.08-0.16Q6.71 0.12 6.49 0.12L6.49 0.12Q6.11 0.12 6.11-0.25L6.11-0.25Q6.11-0.31 6.47-2.60L6.47-2.60Q6.57-3.27 6.80-4.77Q7.03-6.27 7.03-6.42L7.03-6.42Q7.03-6.63 6.94-6.72Q6.85-6.81 6.63-6.81L6.63-6.81L6.25-6.81L6.32-7.28Q6.74-7.28 7.31-7.31Q7.88-7.34 8.06-7.35L8.06-7.35L8.17-7.21Q8.10-6.90 7.88-5.80Q7.65-4.71 7.38-3.29Q7.11-1.88 6.97-0.83L6.97-0.83L7.00-0.79ZM11.80-3.83Q11.80-3.19 11.25-2.74Q10.70-2.29 9.40-1.87L9.40-1.87Q9.38-1.31 9.56-0.97Q9.74-0.64 10.07-0.64L10.07-0.64Q10.36-0.64 10.65-0.86Q10.93-1.08 11.13-1.47L11.13-1.47L11.28-1.45L11.51-1.14Q11.23-0.59 10.74-0.24Q10.25 0.12 9.77 0.12L9.77 0.12Q9.19 0.12 8.85-0.34Q8.51-0.79 8.51-1.57L8.51-1.57Q8.51-2.34 8.86-3.06Q9.20-3.78 9.75-4.23Q10.30-4.68 10.89-4.68L10.89-4.68Q11.32-4.68 11.56-4.46Q11.80-4.23 11.80-3.83L11.80-3.83ZM10.56-3.97Q10.19-3.97 9.86-3.50Q9.53-3.04 9.43-2.37L9.43-2.37Q10.22-2.62 10.58-2.90Q10.93-3.18 10.93-3.56L10.93-3.56Q10.93-3.97 10.56-3.97L10.56-3.97ZM12.72 2.41Q12.27 2.41 11.88 2.23Q11.48 2.04 11.26 1.74Q11.03 1.44 11.05 1.11L11.05 1.11L11.08 1.04Q11.58 0.66 12.89-0.09L12.89-0.09L12.90-0.17Q12.63-0.32 12.49-0.67Q12.34-1.01 12.34-1.48L12.34-1.48Q12.34-2.22 12.68-2.96Q13.01-3.69 13.54-4.16Q14.06-4.63 14.59-4.63L14.59-4.63L15.55-4.46L15.65-4.70L15.73-4.73L16.24-4.59L16.34-4.46Q15.71-3.27 15.62-2.47L15.62-2.47Q15.59-2.25 15.57-1.81Q15.54-1.38 15.53-1.19L15.53-1.19Q15.52-0.99 15.50-0.61Q15.47-0.23 15.45-0.07L15.45-0.07Q15.39 0.49 14.95 1.07Q14.50 1.65 13.89 2.03Q13.27 2.41 12.72 2.41L12.72 2.41ZM13.59-0.98Q13.80-0.98 14.25-1.71Q14.69-2.44 15.24-3.68L15.24-3.68Q14.64-3.98 14.28-3.98L14.28-3.98Q14.03-3.98 13.79-3.69Q13.55-3.40 13.40-2.94Q13.25-2.47 13.25-1.99L13.25-1.99Q13.25-1.58 13.35-1.28Q13.45-0.98 13.59-0.98L13.59-0.98ZM13.10 1.70Q13.72 1.70 14.14 1.27Q14.56 0.84 14.65 0.09L14.65 0.09L14.90-1.92L14.81-1.94Q14.32-1.06 14.03-0.68Q13.74-0.29 13.40-0.05L13.40-0.05L12.84 0.33Q12.39 0.64 12.20 0.78Q12.01 0.92 12.01 1L12.01 1Q12.01 1.16 12.17 1.32Q12.33 1.49 12.59 1.59Q12.84 1.70 13.10 1.70L13.10 1.70ZM16.96-0.03Q17.05-0.53 17.28-1.95Q17.51-3.36 17.51-3.61L17.51-3.61Q17.51-3.83 17.41-3.93Q17.32-4.02 17.10-4.02L17.10-4.02L16.71-4.02L16.79-4.49Q17.21-4.49 17.78-4.52Q18.35-4.55 18.53-4.56L18.53-4.56L18.63-4.42Q18.58-4.25 18.42-3.67Q18.26-3.09 18.15-2.51L18.15-2.51L18.19-2.50Q18.61-3.43 19.12-4.02Q19.62-4.61 20.02-4.64L20.02-4.64Q20.11-4.59 20.18-4.43Q20.25-4.27 20.26-4.10L20.26-4.10Q20.25-3.90 20.21-3.71Q20.16-3.52 20.12-3.40Q20.07-3.27 20.06-3.24L20.06-3.24L19.84-3.22Q19.78-3.43 19.61-3.43L19.61-3.43Q19.27-3.43 18.82-2.84Q18.38-2.25 17.99-1.26L17.99-1.26L17.85-0.20Q17.83-0.12 17.55-0.01Q17.27 0.09 17.06 0.09L17.06 0.09L16.96-0.03ZM23.48-3.83Q23.48-3.19 22.93-2.74Q22.38-2.29 21.08-1.87L21.08-1.87Q21.06-1.31 21.24-0.97Q21.42-0.64 21.75-0.64L21.75-0.64Q22.04-0.64 22.32-0.86Q22.61-1.08 22.81-1.47L22.81-1.47L22.96-1.45L23.19-1.14Q22.91-0.59 22.42-0.24Q21.93 0.12 21.45 0.12L21.45 0.12Q20.87 0.12 20.53-0.34Q20.19-0.79 20.19-1.57L20.19-1.57Q20.19-2.34 20.54-3.06Q20.88-3.78 21.43-4.23Q21.98-4.68 22.57-4.68L22.57-4.68Q23-4.68 23.24-4.46Q23.48-4.23 23.48-3.83L23.48-3.83ZM22.24-3.97Q21.87-3.97 21.54-3.50Q21.21-3.04 21.11-2.37L21.11-2.37Q21.90-2.62 22.26-2.90Q22.61-3.18 22.61-3.56L22.61-3.56Q22.61-3.97 22.24-3.97L22.24-3.97ZM26.62-4.45L27.64-4.68Q27.79-4.58 27.88-4.36Q27.97-4.14 27.97-3.88L27.97-3.88Q27.97-2.85 26.14-0.17L26.14-0.17Q25.22 1.17 24.60 1.77Q23.97 2.36 23.47 2.36L23.47 2.36Q23.16 2.36 22.93 2.25Q22.70 2.13 22.64 1.95L22.64 1.95Q22.72 1.46 22.92 1.11L22.92 1.11L23.06 1.11Q23.37 1.47 23.72 1.47L23.72 1.47Q24.30 1.47 25.07 0.46L25.07 0.46Q24.88-1.95 24.64-3.60L24.64-3.60Q24.60-3.82 24.52-3.90Q24.44-3.98 24.26-3.98L24.26-3.98L24.04-3.96Q23.86-3.94 23.79-3.94L23.79-3.94L23.82-4.40L25.42-4.62L25.53-4.53Q25.70-3.21 25.70-1.05L25.70-1.05L25.70-0.65L25.81-0.65Q26.41-1.63 26.73-2.35Q27.05-3.08 27.05-3.45L27.05-3.45Q27.05-3.67 26.92-3.88Q26.79-4.08 26.56-4.22L26.56-4.22L26.62-4.45ZM31.49-0.79Q31.56-0.79 31.69-0.89Q31.81-0.98 32.23-1.34L32.23-1.34L32.37-1.33L32.52-1.04Q31.82-0.35 31.50-0.12Q31.17 0.12 30.94 0.12L30.94 0.12Q30.77 0.12 30.68 0.04Q30.58-0.05 30.58-0.19L30.58-0.19Q30.58-0.43 30.98-2.12L30.98-2.12L30.91-2.13Q30.44-1.27 30.02-0.73Q29.60-0.20 29.15 0.12L29.15 0.12Q28.71 0.12 28.46-0.25Q28.20-0.62 28.20-1.27L28.20-1.27Q28.20-2.07 28.55-2.85Q28.89-3.63 29.44-4.13Q29.98-4.62 30.54-4.62L30.54-4.62L31.49-4.46L31.57-4.70L31.65-4.73L32.16-4.58L32.24-4.44Q32.01-3.60 31.79-2.59Q31.57-1.58 31.46-0.83L31.46-0.83L31.49-0.79ZM29.41-0.84Q29.57-0.84 29.87-1.24Q30.17-1.63 30.53-2.29Q30.89-2.94 31.19-3.67L31.19-3.67Q30.97-3.80 30.71-3.89Q30.44-3.98 30.26-3.98L30.26-3.98Q29.97-3.98 29.71-3.67Q29.45-3.36 29.29-2.85Q29.13-2.34 29.13-1.79L29.13-1.79Q29.13-1.38 29.21-1.11Q29.29-0.84 29.41-0.84L29.41-0.84Z"/></svg>