<svg xmlns="http://www.w3.org/2000/svg" viewBox="-0.39 -7.37 34.400000000000006 9.780000000000001"><path d="M5.19-1.30Q5.25-0.94 5.40-0.79Q5.54-0.64 5.86-0.60L5.86-0.60L5.90-0.54L5.76 0.03Q5.63 0.02 5.29 0.01Q4.94 0 4.58 0L4.58 0Q4.07 0 3.58 0.04Q3.09 0.07 2.95 0.08L2.95 0.08L2.91 0L3.02-0.57Q3.51-0.61 3.67-0.70Q3.83-0.78 3.83-1L3.83-1Q3.83-1.07 3.82-1.15Q3.81-1.22 3.80-1.29L3.80-1.29L3.70-2.09L2.83-2.10Q2.67-2.10 1.89-2.04L1.89-2.04L1.56-1.24Q1.46-1 1.46-0.87L1.46-0.87Q1.46-0.73 1.55-0.67Q1.65-0.60 1.85-0.60L1.85-0.60L2.28-0.60L2.31-0.54L2.18 0.06Q2.05 0.05 1.61 0.03Q1.17 0 0.78 0L0.78 0Q0.38 0 0.05 0.01Q-0.28 0.02-0.39 0.03L-0.39 0.03L-0.24-0.61Q0-0.65 0.17-0.80Q0.33-0.95 0.48-1.29L0.48-1.29L2.80-6.36L4.31-6.53L4.41-6.47Q4.49-5.91 4.74-4.16Q4.99-2.40 5.19-1.30L5.19-1.30ZM2.23-2.85L2.91-2.85Q3.21-2.85 3.63-2.89L3.63-2.89L3.35-5.14L3.21-5.14L2.23-2.85ZM7.54-1.02Q7.60-1.02 7.75-1.14Q7.90-1.26 8.21-1.53L8.21-1.53L8.38-1.51L8.54-1.16Q7.89-0.47 7.50-0.18Q7.10 0.12 6.82 0.12L6.82 0.12Q6.36 0.12 6.36-0.34L6.36-0.34Q6.36-0.48 6.76-2.98L6.76-2.98Q7.27-6.08 7.27-6.34L7.27-6.34Q7.27-6.53 7.18-6.62Q7.09-6.71 6.89-6.71L6.89-6.71L6.54-6.71L6.63-7.28Q7.09-7.28 7.71-7.32Q8.34-7.35 8.53-7.37L8.53-7.37L8.65-7.21Q8.58-6.90 8.36-5.82Q8.14-4.73 7.88-3.36Q7.63-1.99 7.50-1.06L7.50-1.06L7.54-1.02ZM12.46-3.79Q12.46-3.35 12.21-3.02Q11.97-2.68 11.45-2.40Q10.92-2.12 10.03-1.83L10.03-1.83Q10.03-1.37 10.20-1.10Q10.37-0.83 10.67-0.83L10.67-0.83Q10.95-0.83 11.21-1.03Q11.48-1.24 11.68-1.62L11.68-1.62L11.86-1.60L12.17-1.21Q11.90-0.64 11.36-0.26Q10.82 0.12 10.27 0.12L10.27 0.12Q9.63 0.12 9.26-0.35Q8.89-0.82 8.89-1.62L8.89-1.62Q8.89-2.41 9.25-3.13Q9.60-3.85 10.19-4.29Q10.77-4.73 11.41-4.73L11.41-4.73Q11.90-4.73 12.18-4.48Q12.46-4.23 12.46-3.79L12.46-3.79ZM11.07-3.87Q10.73-3.87 10.45-3.46Q10.17-3.06 10.07-2.43L10.07-2.43Q10.76-2.66 11.08-2.92Q11.40-3.18 11.40-3.51L11.40-3.51Q11.40-3.68 11.32-3.77Q11.23-3.87 11.07-3.87L11.07-3.87ZM13.43 2.41Q12.93 2.41 12.52 2.23Q12.10 2.04 11.88 1.73Q11.65 1.42 11.68 1.06L11.68 1.06L11.71 0.97Q12.16 0.66 13.44-0.04L13.44-0.04L13.45-0.12Q13.16-0.27 13.00-0.63Q12.83-0.98 12.83-1.47L12.83-1.47Q12.83-2.22 13.18-2.96Q13.53-3.71 14.08-4.19Q14.63-4.66 15.18-4.66L15.18-4.66L16.06-4.48L16.14-4.71L16.26-4.76L17.03-4.63L17.14-4.46Q16.89-3.96 16.73-3.46Q16.57-2.96 16.52-2.57L16.52-2.57Q16.50-2.41 16.48-2.04Q16.45-1.66 16.44-1.47L16.44-1.47Q16.38-0.42 16.34-0.16L16.34-0.16Q16.28 0.39 15.80 0.99Q15.32 1.60 14.66 2.00Q13.99 2.41 13.43 2.41L13.43 2.41ZM14.31-1.12Q14.51-1.12 14.91-1.81Q15.31-2.50 15.76-3.60L15.76-3.60Q15.20-3.88 14.87-3.88L14.87-3.88Q14.66-3.88 14.47-3.61Q14.27-3.34 14.15-2.91Q14.03-2.47 14.03-2.02L14.03-2.02Q14.03-1.65 14.12-1.39Q14.20-1.12 14.31-1.12L14.31-1.12ZM13.87 1.53Q14.46 1.53 14.85 1.14Q15.24 0.75 15.32 0.06L15.32 0.06L15.55-1.86L15.46-1.89Q14.93-0.98 14.65-0.60Q14.36-0.23 14.05-0.01L14.05-0.01L13.74 0.20Q13.24 0.54 13.04 0.69Q12.84 0.84 12.84 0.91L12.84 0.91Q12.84 1.06 12.99 1.21Q13.14 1.35 13.38 1.44Q13.62 1.53 13.87 1.53L13.87 1.53ZM17.63-0.07Q17.72-0.56 17.95-1.94Q18.17-3.32 18.17-3.57L18.17-3.57Q18.17-3.77 18.09-3.86Q18.00-3.95 17.79-3.95L17.79-3.95L17.44-3.95L17.53-4.53Q17.99-4.53 18.61-4.57Q19.23-4.60 19.42-4.61L19.42-4.61L19.54-4.45Q19.49-4.30 19.35-3.77Q19.20-3.25 19.11-2.73L19.11-2.73L19.17-2.73Q19.57-3.61 20.04-4.15Q20.51-4.68 20.92-4.70L20.92-4.70Q21.01-4.65 21.09-4.51Q21.17-4.37 21.18-4.23L21.18-4.23Q21.17-3.99 21.10-3.70Q21.03-3.40 20.97-3.19Q20.90-2.97 20.88-2.91L20.88-2.91L20.50-2.89Q20.51-3.24 20.32-3.24L20.32-3.24Q20.03-3.24 19.65-2.71Q19.26-2.17 18.89-1.24L18.89-1.24L18.77-0.28Q18.75-0.16 18.42-0.04Q18.08 0.08 17.76 0.08L17.76 0.08L17.63-0.07ZM24.65-3.79Q24.65-3.35 24.41-3.02Q24.16-2.68 23.64-2.40Q23.11-2.12 22.22-1.83L22.22-1.83Q22.22-1.37 22.39-1.10Q22.56-0.83 22.86-0.83L22.86-0.83Q23.14-0.83 23.41-1.03Q23.67-1.24 23.87-1.62L23.87-1.62L24.05-1.60L24.36-1.21Q24.09-0.64 23.55-0.26Q23.01 0.12 22.46 0.12L22.46 0.12Q21.82 0.12 21.45-0.35Q21.08-0.82 21.08-1.62L21.08-1.62Q21.08-2.41 21.44-3.13Q21.79-3.85 22.38-4.29Q22.96-4.73 23.60-4.73L23.60-4.73Q24.09-4.73 24.37-4.48Q24.65-4.23 24.65-3.79L24.65-3.79ZM23.26-3.87Q22.92-3.87 22.64-3.46Q22.36-3.06 22.26-2.43L22.26-2.43Q22.95-2.66 23.27-2.92Q23.59-3.18 23.59-3.51L23.59-3.51Q23.59-3.68 23.51-3.77Q23.42-3.87 23.26-3.87L23.26-3.87ZM27.65-4.49L28.94-4.73Q29.08-4.61 29.16-4.38Q29.24-4.15 29.24-3.87L29.24-3.87Q29.24-2.80 27.38-0.12L27.38-0.12Q26.46 1.20 25.80 1.79Q25.14 2.38 24.59 2.38L24.59 2.38Q24.26 2.38 24.01 2.25Q23.75 2.12 23.68 1.91L23.68 1.91Q23.81 1.34 24.07 0.96L24.07 0.96L24.22 0.95Q24.57 1.36 24.91 1.36L24.91 1.36Q25.17 1.36 25.46 1.15Q25.75 0.93 26.11 0.49L26.11 0.49Q25.86-2.15 25.63-3.58L25.63-3.58Q25.59-3.78 25.51-3.85Q25.43-3.93 25.27-3.93L25.27-3.93Q25.26-3.93 24.87-3.90L24.87-3.90L24.91-4.46L26.65-4.67L26.76-4.57Q26.90-3.29 26.90-1.27L26.90-1.27L26.90-0.86L27.02-0.86Q27.51-1.72 27.79-2.40Q28.07-3.08 28.07-3.43L28.07-3.43Q28.07-3.66 27.94-3.85Q27.81-4.05 27.58-4.18L27.58-4.18L27.65-4.49ZM33.01-1.02Q33.08-1.02 33.21-1.12Q33.34-1.22 33.68-1.53L33.68-1.53L33.85-1.51L34.01-1.16Q33.28-0.40 32.92-0.14Q32.56 0.12 32.27 0.12L32.27 0.12Q32.07 0.12 31.97 0.03Q31.86-0.07 31.86-0.24L31.86-0.24Q31.86-0.44 32.21-1.95L32.21-1.95L32.13-1.96Q31.68-1.16 31.30-0.67Q30.91-0.17 30.51 0.12L30.51 0.12Q29.98 0.12 29.69-0.26Q29.39-0.64 29.39-1.32L29.39-1.32Q29.39-2.12 29.75-2.90Q30.10-3.67 30.66-4.16Q31.21-4.65 31.79-4.65L31.79-4.65L32.66-4.48L32.74-4.70L32.85-4.76L33.62-4.63L33.70-4.46Q33.48-3.62 33.29-2.68Q33.09-1.74 32.98-1.06L32.98-1.06L33.01-1.02ZM30.83-1.02Q30.97-1.02 31.24-1.39Q31.51-1.75 31.82-2.35Q32.12-2.94 32.37-3.59L32.37-3.59Q32.16-3.72 31.92-3.80Q31.68-3.88 31.50-3.88L31.50-3.88Q31.28-3.88 31.07-3.59Q30.86-3.30 30.73-2.83Q30.60-2.37 30.60-1.88L30.60-1.88Q30.60-1.51 30.67-1.27Q30.73-1.02 30.83-1.02L30.83-1.02Z"/></svg>