<svg xmlns="http://www.w3.org/2000/svg" viewBox="-2.5920000000000005 46.791999999999994 527.6160000000001 70.632"><path d="M39.82 89.92Q40.18 92.44 41.11 93.48Q42.05 94.53 43.99 94.82L43.99 94.82L44.28 95.39L43.20 100.22Q42.26 100.22 39.60 100.14Q36.94 100.07 34.06 100.07L34.06 100.07Q30.17 100.07 26.35 100.25Q22.54 100.43 21.46 100.50L21.46 100.50L21.10 99.93L22.03 94.89Q24.34 94.67 25.45 94.38Q26.57 94.10 26.96 93.59Q27.36 93.09 27.36 92.08L27.36 92.08L27.29 90.35L26.86 85.96L21.02 85.82Q19.87 85.82 17.82 86.00Q15.77 86.18 14.83 86.25L14.83 86.25L13.18 90.86Q12.53 92.44 12.53 93.16L12.53 93.16Q12.53 94.74 14.83 94.74L14.83 94.74L17.42 94.74L17.78 95.25L16.63 100.36Q15.62 100.29 12.31 100.18Q9.00 100.07 6.26 100.07L6.26 100.07L-2.59 100.14L-1.44 94.82Q0.07 94.46 1.19 93.41Q2.30 92.37 3.17 90.35L3.17 90.35L19.15 53.99L33.84 52.84L34.70 53.42Q35.28 57.66 37.01 70.52Q38.74 83.37 39.82 89.92L39.82 89.92ZM17.71 78.98L21.96 78.98Q22.82 78.98 24.84 78.83L24.84 78.83L26.42 78.76L24.98 64.14L23.69 64.14L17.71 78.98ZM58.25 90.93Q58.68 90.93 59.62 90.17Q60.55 89.42 62.64 87.62L62.64 87.62L64.01 87.83L65.30 90.78Q60.19 96.40 57.20 98.63Q54.22 100.86 51.70 100.86L51.70 100.86Q47.74 100.86 47.74 96.83L47.74 96.83Q47.74 96.11 48.92 88.55Q50.11 80.99 50.83 76.46L50.83 76.46Q54.14 56.30 54.14 55.00L54.14 55.00Q54.14 53.63 53.57 53.06Q52.99 52.48 51.62 52.48L51.62 52.48L49.32 52.48L50.04 47.51Q53.71 47.51 58.57 47.22Q63.43 46.94 64.94 46.79L64.94 46.79L65.95 48.02Q65.52 50.25 63.94 58.06Q62.35 65.87 60.59 75.38Q58.82 84.88 58.03 90.71L58.03 90.71L58.25 90.93ZM94.75 72.93Q94.75 76.24 92.99 78.65Q91.22 81.06 87.37 83.04Q83.52 85.02 77.04 87.04L77.04 87.04Q77.18 89.63 78.30 91.11Q79.42 92.58 81.36 92.58L81.36 92.58Q83.30 92.58 85.07 91.22Q86.83 89.85 88.27 87.18L88.27 87.18L89.71 87.33L92.66 90.78Q90.79 95.03 86.47 97.95Q82.15 100.86 77.76 100.86L77.76 100.86Q72.86 100.86 69.91 97.37Q66.96 93.88 66.96 87.98L66.96 87.98Q66.96 82.14 69.62 77.00Q72.29 71.85 76.68 68.75Q81.07 65.66 86.11 65.66L86.11 65.66Q90.14 65.66 92.45 67.60Q94.75 69.54 94.75 72.93L94.75 72.93ZM83.52 72.93Q81.29 72.93 79.60 75.41Q77.90 77.90 77.26 82L77.26 82Q85.68 79.12 85.68 75.09L85.68 75.09Q85.68 74.08 85.10 73.50Q84.53 72.93 83.52 72.93L83.52 72.93ZM102.02 117.42Q98.06 117.42 94.93 116.09Q91.80 114.76 90.11 112.42Q88.42 110.08 88.70 107.27L88.70 107.27L88.99 106.48Q91.73 104.68 100.94 100L100.94 100L101.02 99.42Q98.64 98.34 97.38 95.75Q96.12 93.16 96.12 89.49L96.12 89.49Q96.12 84.02 98.71 78.62Q101.30 73.22 105.41 69.72Q109.51 66.23 113.62 66.23L113.62 66.23L119.45 67.60L119.95 66.02L121.03 65.44L128.45 66.30L129.38 67.96Q128.02 70.77 126.97 74.37Q125.93 77.97 125.57 80.70L125.57 80.70Q125.57 80.63 125.06 87.47L125.06 87.47Q124.63 95.39 124.20 98.20L124.20 98.20Q123.77 102.16 120.02 106.66Q116.28 111.16 111.20 114.29Q106.13 117.42 102.02 117.42L102.02 117.42ZM108.43 90.93Q109.73 90.93 112.36 86.10Q114.98 81.28 117.36 74.66L117.36 74.66Q115.70 73.79 114.30 73.25Q112.90 72.71 111.46 72.71L111.46 72.71Q110.30 72.71 109.22 74.58Q108.14 76.46 107.46 79.37Q106.78 82.29 106.78 85.24L106.78 85.24Q106.78 87.69 107.24 89.31Q107.71 90.93 108.43 90.93L108.43 90.93ZM105.62 109.86Q109.58 109.86 112.14 107.34Q114.70 104.82 115.20 100.22L115.20 100.22L116.86 86.97L116.14 86.82Q111.96 93.59 109.94 96.22Q107.93 98.85 105.98 100.22L105.98 100.22Q98.57 105.11 98.57 105.98L98.57 105.98Q98.57 107.49 100.73 108.68Q102.89 109.86 105.62 109.86L105.62 109.86ZM131.90 99.21Q132.48 95.75 134.10 86.03Q135.72 76.31 135.72 74.51L135.72 74.51Q135.72 72.06 133.13 72.06L133.13 72.06L130.82 72.06L131.62 67.10Q135.22 67.10 140.00 66.81Q144.79 66.52 146.30 66.38L146.30 66.38L147.24 67.74Q146.95 68.68 146.05 72.06Q145.15 75.45 144.65 78.76L144.65 78.76L145.08 78.69Q147.89 72.71 151.02 69.29Q154.15 65.87 157.18 65.80L157.18 65.80Q157.82 66.16 158.40 66.95Q158.98 67.74 159.19 68.68L159.19 68.68Q159.05 70.70 158.40 73.58Q157.75 76.46 157.14 78.65Q156.53 80.85 156.31 81.50L156.31 81.50L152.50 81.57Q152.57 81.06 152.57 80.20L152.57 80.20Q152.57 78.04 151.42 78.04L151.42 78.04Q149.69 78.04 147.31 81.57Q144.94 85.10 142.63 91.22L142.63 91.22L141.84 97.41Q141.70 98.56 138.96 99.57Q136.22 100.58 133.06 100.58L133.06 100.58L131.90 99.21ZM185.98 72.93Q185.98 76.24 184.21 78.65Q182.45 81.06 178.60 83.04Q174.74 85.02 168.26 87.04L168.26 87.04Q168.41 89.63 169.52 91.11Q170.64 92.58 172.58 92.58L172.58 92.58Q174.53 92.58 176.29 91.22Q178.06 89.85 179.50 87.18L179.50 87.18L180.94 87.33L183.89 90.78Q182.02 95.03 177.70 97.95Q173.38 100.86 168.98 100.86L168.98 100.86Q164.09 100.86 161.14 97.37Q158.18 93.88 158.18 87.98L158.18 87.98Q158.18 82.14 160.85 77.00Q163.51 71.85 167.90 68.75Q172.30 65.66 177.34 65.66L177.34 65.66Q181.37 65.66 183.67 67.60Q185.98 69.54 185.98 72.93L185.98 72.93ZM174.74 72.93Q172.51 72.93 170.82 75.41Q169.13 77.90 168.48 82L168.48 82Q176.90 79.12 176.90 75.09L176.90 75.09Q176.90 74.08 176.33 73.50Q175.75 72.93 174.74 72.93L174.74 72.93ZM206.42 67.38L217.66 65.58Q218.59 66.59 219.13 68.32Q219.67 70.05 219.67 72.14L219.67 72.14Q219.67 76.24 216.25 83.04Q212.83 89.85 205.92 99.57L205.92 99.57Q199.22 108.93 194.33 113.10Q189.43 117.28 185.11 117.28L185.11 117.28Q182.52 117.28 180.47 116.20Q178.42 115.12 177.91 113.46L177.91 113.46Q178.99 109 181.58 105.76L181.58 105.76L182.59 105.69Q185.26 109 187.78 109L187.78 109Q189.43 109 191.27 107.70Q193.10 106.41 195.41 103.74L195.41 103.74Q193.25 84.02 191.59 74.44L191.59 74.44Q191.30 73.07 190.76 72.57Q190.22 72.06 189.22 72.06L189.22 72.06Q188.71 72.06 188.06 72.14Q187.42 72.21 186.77 72.21L186.77 72.21L187.13 67.38L200.74 66.09L201.53 66.74Q202.25 74.87 202.25 92.22L202.25 92.22L203.18 92.22Q205.99 86.97 207.68 82.36Q209.38 77.75 209.38 75.38L209.38 75.38Q209.38 73.72 208.44 72.35Q207.50 70.98 205.78 70.19L205.78 70.19L206.42 67.38ZM248.54 90.93Q248.98 90.93 249.88 90.24Q250.78 89.56 252.94 87.62L252.94 87.62L254.30 87.83L255.60 90.78Q249.98 96.76 247.18 98.81Q244.37 100.86 241.85 100.86L241.85 100.86Q240.26 100.86 239.40 100.07Q238.54 99.28 238.54 97.84L238.54 97.84Q238.54 96.54 240.77 87.18L240.77 87.18L240.12 87.11Q237.02 92.58 234.50 95.79Q231.98 98.99 229.39 100.86L229.39 100.86Q225.00 100.86 222.52 98.02Q220.03 95.18 220.03 90.06L220.03 90.06Q220.03 84.38 222.66 78.87Q225.29 73.36 229.39 69.83Q233.50 66.30 237.74 66.30L237.74 66.30L243.58 67.60L244.01 66.09L245.09 65.44L252.50 66.38L253.08 67.82Q249.70 81.57 248.33 90.71L248.33 90.71L248.54 90.93ZM232.13 91.29Q233.50 91.29 236.41 86.14Q239.33 80.99 241.49 74.73L241.49 74.73Q239.98 73.79 238.39 73.25Q236.81 72.71 235.66 72.71L235.66 72.71Q234.43 72.71 233.32 74.62Q232.20 76.53 231.48 79.59Q230.76 82.65 230.76 85.74L230.76 85.74Q230.76 88.19 231.16 89.74Q231.55 91.29 232.13 91.29L232.13 91.29ZM266.54 91.36Q266.54 87.18 269.06 84.52Q271.58 81.86 275.04 80.34L275.04 80.34Q269.86 76.46 269.86 70.70L269.86 70.70Q269.86 66.95 272.09 63.78Q274.32 60.62 278.10 58.74Q281.88 56.87 286.27 56.87L286.27 56.87Q291.17 56.87 294.48 59.50Q297.79 62.13 297.79 66.23L297.79 66.23Q297.79 69.98 295.70 72.53Q293.62 75.09 290.59 76.60L290.59 76.60Q293.11 78.33 294.59 80.52Q296.06 82.72 296.06 85.89L296.06 85.89Q296.06 89.99 293.76 93.41Q291.46 96.83 287.53 98.85Q283.61 100.86 278.93 100.86L278.93 100.86Q273.46 100.86 270 98.24Q266.54 95.61 266.54 91.36L266.54 91.36ZM280.01 68.18Q280.01 70.05 281.41 71.27Q282.82 72.50 285.77 74.08L285.77 74.08Q286.99 72.78 287.71 71.38Q288.43 69.98 288.43 68.10L288.43 68.10Q288.43 66.02 287.42 64.86Q286.42 63.71 284.62 63.71L284.62 63.71Q282.60 63.71 281.30 65.01Q280.01 66.30 280.01 68.18L280.01 68.18ZM280.58 94.53Q282.89 94.53 284.36 93.09Q285.84 91.65 285.84 89.42L285.84 89.42Q285.84 87.54 284.29 86.25Q282.74 84.95 279.14 82.94L279.14 82.94Q277.63 84.30 276.70 85.78Q275.76 87.26 275.76 89.27L275.76 89.27Q275.76 91.50 277.09 93.02Q278.42 94.53 280.58 94.53L280.58 94.53ZM312.55 100.86Q306.43 100.86 303.12 96.94Q299.81 93.02 299.81 85.96L299.81 85.96Q299.81 79.26 302.22 74.08Q304.63 68.90 308.99 66.02Q313.34 63.14 318.89 63.14L318.89 63.14Q324.94 63.14 328.21 67.02Q331.49 70.91 331.49 77.90L331.49 77.90Q331.49 84.66 329.11 89.88Q326.74 95.10 322.45 97.98Q318.17 100.86 312.55 100.86L312.55 100.86ZM315 89.56Q319.68 89.56 322.09 87.47Q324.50 85.38 324.50 81.50L324.50 81.50Q324.50 78.26 322.34 76.49Q320.18 74.73 316.15 74.73L316.15 74.73Q311.62 74.73 309.17 76.85Q306.72 78.98 306.72 82.86L306.72 82.86Q306.72 86.03 308.88 87.80Q311.04 89.56 315 89.56L315 89.56ZM346.25 100.86Q340.13 100.86 336.82 96.94Q333.50 93.02 333.50 85.96L333.50 85.96Q333.50 79.26 335.92 74.08Q338.33 68.90 342.68 66.02Q347.04 63.14 352.58 63.14L352.58 63.14Q358.63 63.14 361.91 67.02Q365.18 70.91 365.18 77.90L365.18 77.90Q365.18 84.66 362.81 89.88Q360.43 95.10 356.15 97.98Q351.86 100.86 346.25 100.86L346.25 100.86ZM348.70 89.56Q353.38 89.56 355.79 87.47Q358.20 85.38 358.20 81.50L358.20 81.50Q358.20 78.26 356.04 76.49Q353.88 74.73 349.85 74.73L349.85 74.73Q345.31 74.73 342.86 76.85Q340.42 78.98 340.42 82.86L340.42 82.86Q340.42 86.03 342.58 87.80Q344.74 89.56 348.70 89.56L348.70 89.56ZM389.88 90.93Q390.24 90.93 391.21 90.17Q392.18 89.42 394.20 87.62L394.20 87.62L395.64 87.83L396.94 90.78Q391.90 96.33 388.87 98.60Q385.85 100.86 383.33 100.86L383.33 100.86Q379.37 100.86 379.37 96.76L379.37 96.76Q382.68 76.53 382.68 74.66L382.68 74.66Q382.68 73.29 382.10 72.68Q381.53 72.06 380.16 72.06L380.16 72.06L377.86 72.06L378.58 67.10Q384.70 67.10 393.34 66.38L393.34 66.38L394.34 67.67Q392.98 72.50 391.64 79.05Q390.31 85.60 389.59 90.71L389.59 90.71L389.88 90.93ZM388.51 61.12Q385.99 61.12 384.70 59.79Q383.40 58.46 383.40 56.15L383.40 56.15Q383.40 52.84 385.42 50.79Q387.43 48.74 390.60 48.74L390.60 48.74Q393.05 48.74 394.34 50.10Q395.64 51.47 395.64 53.78L395.64 53.78Q395.64 57.02 393.66 59.07Q391.68 61.12 388.51 61.12L388.51 61.12ZM418.46 87.62L419.76 90.64Q416.30 95.25 413.24 98.06Q410.18 100.86 408.53 100.86L408.53 100.86Q404.71 100.86 402.62 99.03Q400.54 97.19 400.54 93.81L400.54 93.81Q400.54 93.02 400.61 92.58L400.61 92.58L404.06 72.71L403.49 72.21L399.24 72.14L399.02 71.78L399.53 67.82L404.86 67.02Q405.29 64.14 405.58 61.84Q405.86 59.54 405.94 58.82L405.94 58.82L416.38 56.30L417.17 57.16Q416.95 58.02 416.20 60.98Q415.44 63.93 414.79 67.10L414.79 67.10L422.21 67.02L422.64 67.46L421.85 72.14L414.58 72.06L413.64 72.57L410.62 88.84L410.54 89.56Q410.54 91.14 411.98 91.14L411.98 91.14Q412.78 91.14 413.89 90.32Q415.01 89.49 417.02 87.40L417.02 87.40L418.46 87.62ZM448.92 90.93Q449.35 90.93 450.25 90.24Q451.15 89.56 453.31 87.62L453.31 87.62L454.68 87.83L455.98 90.78Q450.36 96.76 447.55 98.81Q444.74 100.86 442.22 100.86L442.22 100.86Q440.64 100.86 439.78 100.07Q438.91 99.28 438.91 97.84L438.91 97.84Q438.91 96.54 441.14 87.18L441.14 87.18L440.50 87.11Q437.40 92.58 434.88 95.79Q432.36 98.99 429.77 100.86L429.77 100.86Q425.38 100.86 422.89 98.02Q420.41 95.18 420.41 90.06L420.41 90.06Q420.41 84.38 423.04 78.87Q425.66 73.36 429.77 69.83Q433.87 66.30 438.12 66.30L438.12 66.30L443.95 67.60L444.38 66.09L445.46 65.44L452.88 66.38L453.46 67.82Q450.07 81.57 448.70 90.71L448.70 90.71L448.92 90.93ZM432.50 91.29Q433.87 91.29 436.79 86.14Q439.70 80.99 441.86 74.73L441.86 74.73Q440.35 73.79 438.77 73.25Q437.18 72.71 436.03 72.71L436.03 72.71Q434.81 72.71 433.69 74.62Q432.58 76.53 431.86 79.59Q431.14 82.65 431.14 85.74L431.14 85.74Q431.14 88.19 431.53 89.74Q431.93 91.29 432.50 91.29L432.50 91.29ZM468.65 90.93Q469.08 90.93 470.02 90.17Q470.95 89.42 473.04 87.62L473.04 87.62L474.41 87.83L475.70 90.78Q470.59 96.40 467.60 98.63Q464.62 100.86 462.10 100.86L462.10 100.86Q458.14 100.86 458.14 96.83L458.14 96.83Q458.14 96.11 459.32 88.55Q460.51 80.99 461.23 76.46L461.23 76.46Q464.54 56.30 464.54 55.00L464.54 55.00Q464.54 53.63 463.97 53.06Q463.39 52.48 462.02 52.48L462.02 52.48L459.72 52.48L460.44 47.51Q464.11 47.51 468.97 47.22Q473.83 46.94 475.34 46.79L475.34 46.79L476.35 48.02Q475.92 50.25 474.34 58.06Q472.75 65.87 470.99 75.38Q469.22 84.88 468.43 90.71L468.43 90.71L468.65 90.93ZM489.67 90.93Q490.03 90.93 491.00 90.17Q491.98 89.42 493.99 87.62L493.99 87.62L495.43 87.83L496.73 90.78Q491.69 96.33 488.66 98.60Q485.64 100.86 483.12 100.86L483.12 100.86Q479.16 100.86 479.16 96.76L479.16 96.76Q482.47 76.53 482.47 74.66L482.47 74.66Q482.47 73.29 481.90 72.68Q481.32 72.06 479.95 72.06L479.95 72.06L477.65 72.06L478.37 67.10Q484.49 67.10 493.13 66.38L493.13 66.38L494.14 67.67Q492.77 72.50 491.44 79.05Q490.10 85.60 489.38 90.71L489.38 90.71L489.67 90.93ZM488.30 61.12Q485.78 61.12 484.49 59.79Q483.19 58.46 483.19 56.15L483.19 56.15Q483.19 52.84 485.21 50.79Q487.22 48.74 490.39 48.74L490.39 48.74Q492.84 48.74 494.14 50.10Q495.43 51.47 495.43 53.78L495.43 53.78Q495.43 57.02 493.45 59.07Q491.47 61.12 488.30 61.12L488.30 61.12ZM514.66 72.93Q513.00 72.93 511.63 74.66Q510.26 76.38 509.47 79.30Q508.68 82.22 508.68 85.67L508.68 85.67Q508.68 88.91 509.69 90.71Q510.70 92.51 512.57 92.51L512.57 92.51Q514.22 92.51 515.88 91Q517.54 89.49 518.69 86.90L518.69 86.90L520.06 87.11L523.01 90.57Q521.21 94.89 517.14 97.88Q513.07 100.86 509.04 100.86L509.04 100.86Q504.14 100.86 501.23 97.44Q498.31 94.02 498.31 88.26L498.31 88.26Q498.31 82.29 500.94 77.07Q503.57 71.85 507.96 68.75Q512.35 65.66 517.39 65.66L517.39 65.66Q519.48 65.66 521.46 66.09Q523.44 66.52 524.74 67.31L524.74 67.31L525.02 68.46L521.71 76.38L519.26 76.53Q517.39 72.93 514.66 72.93L514.66 72.93Z"/></svg>