<svg xmlns="http://www.w3.org/2000/svg" viewBox="-0.13 -7.42 35.51 9.84"><path d="M3.34 0.09L3.30 0.02L3.34-0.47Q3.85-0.51 4.01-0.58Q4.18-0.65 4.18-0.84L4.18-0.84Q4.18-1.02 4.11-1.26L4.11-1.26L3.83-2.20Q3.58-2.21 2.85-2.21L2.85-2.21Q2.36-2.21 1.82-2.14L1.82-2.14L1.50-1.22Q1.42-0.96 1.42-0.87L1.42-0.87Q1.42-0.67 1.54-0.58Q1.67-0.50 1.96-0.50L1.96-0.50L2.47-0.50L2.50-0.45L2.44 0.06Q2.31 0.05 1.87 0.03Q1.43 0 1.02 0L1.02 0Q0.63 0 0.30 0.01Q-0.02 0.02-0.13 0.03L-0.13 0.03L-0.05-0.52Q0.21-0.56 0.37-0.71Q0.53-0.87 0.67-1.25L0.67-1.25L2.55-6.34L3.59-6.51L3.69-6.48Q3.76-6.23 4-5.34Q4.24-4.45 4.58-3.27Q4.92-2.10 5.21-1.21L5.21-1.21Q5.32-0.84 5.50-0.70Q5.69-0.55 6.09-0.51L6.09-0.51L6.12-0.46L6.05 0.03Q5.93 0.02 5.59 0.01Q5.26 0 4.92 0L4.92 0Q4.41 0 3.94 0.04Q3.47 0.07 3.34 0.09L3.34 0.09ZM2.03-2.79L2.83-2.79Q3.23-2.79 3.67-2.83L3.67-2.83L2.98-5.27L2.88-5.27L2.03-2.79ZM6.11 0.11L6.17-0.40Q6.42-0.46 6.54-0.57Q6.65-0.68 6.68-0.84Q6.70-1.01 6.70-1.35L6.70-1.35L6.70-6.13Q6.70-6.45 6.63-6.56Q6.55-6.67 6.31-6.67L6.31-6.67Q6.17-6.67 6.08-6.66L6.08-6.66L6.04-6.69L6.09-7.12Q6.99-7.23 7.82-7.42L7.82-7.42L7.88-7.26Q7.76-7.02 7.68-5.17Q7.59-3.32 7.59-1.01L7.59-1.01Q7.59-0.74 7.67-0.62Q7.74-0.50 7.92-0.50L7.92-0.50L8.26-0.52L8.28-0.47L8.19 0.03Q8.06 0.03 7.98 0.02L7.98 0.02Q7.48 0 7.19 0L7.19 0Q6.75 0 6.11 0.11L6.11 0.11ZM10.91 0.12Q9.91 0.12 9.32-0.49Q8.73-1.11 8.73-2.13L8.73-2.13Q8.73-2.82 9.04-3.41Q9.34-3.99 9.87-4.33Q10.39-4.68 11.01-4.68L11.01-4.68Q11.79-4.68 12.19-4.29Q12.59-3.89 12.59-3.12L12.59-3.12Q12.59-2.81 12.53-2.59L12.53-2.59L12.40-2.48L9.72-2.48Q9.72-1.62 10.09-1.16Q10.45-0.70 11.12-0.70L11.12-0.70Q11.68-0.70 12.32-1L12.32-1L12.38-0.97L12.52-0.59Q12.16-0.32 11.70-0.10Q11.24 0.12 10.91 0.12L10.91 0.12ZM9.74-2.93L11.35-3.01Q11.48-3.02 11.53-3.07Q11.57-3.12 11.57-3.26L11.57-3.26Q11.57-3.64 11.38-3.85Q11.19-4.05 10.83-4.05L10.83-4.05Q10.40-4.05 10.11-3.75Q9.81-3.46 9.74-2.93L9.74-2.93ZM17.68-4.20L16.88-4.12L16.84-4.07Q17.24-3.63 17.24-3.06L17.24-3.06Q17.24-2.57 16.97-2.17Q16.70-1.76 16.23-1.53Q15.76-1.29 15.19-1.29L15.19-1.29Q14.88-1.29 14.58-1.37L14.58-1.37Q14.24-1.14 14.24-0.96L14.24-0.96Q14.24-0.75 14.54-0.67Q14.84-0.58 15.49-0.51L15.49-0.51Q16.15-0.43 16.57-0.34Q16.98-0.25 17.28-0.03Q17.58 0.20 17.58 0.61L17.58 0.61Q17.58 1.06 17.22 1.48Q16.85 1.90 16.26 2.16Q15.67 2.42 15.03 2.42L15.03 2.42Q14.28 2.42 13.84 2.06Q13.40 1.69 13.40 1.06L13.40 1.06Q13.53 0.90 13.81 0.67Q14.08 0.44 14.39 0.23L14.39 0.23L14.39 0.17Q13.89 0.08 13.62-0.18Q13.35-0.43 13.33-0.83L13.33-0.83Q13.71-1.21 14.16-1.49L14.16-1.49L14.16-1.54Q13.80-1.75 13.61-2.08Q13.41-2.42 13.41-2.85L13.41-2.85Q13.41-3.36 13.67-3.78Q13.93-4.20 14.38-4.45Q14.83-4.69 15.37-4.69L15.37-4.69Q15.59-4.69 15.95-4.63L15.95-4.63Q16.20-4.58 16.37-4.58L16.37-4.58Q16.80-4.63 17.76-4.90L17.76-4.90L17.80-4.85L17.68-4.20ZM15.39-1.83Q15.81-1.83 16.04-2.10Q16.27-2.37 16.27-2.86L16.27-2.86Q16.27-3.40 16.00-3.73Q15.72-4.07 15.26-4.07L15.26-4.07Q14.85-4.07 14.62-3.79Q14.38-3.52 14.38-3.02L14.38-3.02Q14.38-2.48 14.66-2.16Q14.93-1.83 15.39-1.83L15.39-1.83ZM14.91 0.27Q14.67 0.45 14.54 0.68Q14.40 0.90 14.40 1.12L14.40 1.12Q14.40 1.44 14.67 1.63Q14.93 1.82 15.39 1.82L15.39 1.82Q15.74 1.82 16.05 1.70Q16.36 1.58 16.54 1.38Q16.72 1.18 16.72 0.94L16.72 0.94Q16.72 0.76 16.59 0.66Q16.45 0.55 16.08 0.47Q15.70 0.38 14.91 0.27L14.91 0.27ZM18.43-0.45Q18.73-0.48 18.83-0.64Q18.93-0.79 18.93-1.22L18.93-1.22L18.93-3.32Q18.93-3.66 18.84-3.79Q18.75-3.93 18.53-3.93L18.53-3.93Q18.46-3.93 18.41-3.92Q18.35-3.91 18.33-3.90L18.33-3.90L18.28-3.97L18.32-4.37Q18.78-4.45 19.26-4.55Q19.74-4.66 19.88-4.69L19.88-4.69L19.96-4.62Q19.94-4.53 19.90-4.22Q19.86-3.91 19.87-3.63L19.87-3.63L19.91-3.60Q20.22-4.06 20.61-4.34Q21-4.63 21.32-4.63L21.32-4.63Q21.45-4.63 21.54-4.62Q21.63-4.60 21.65-4.59L21.65-4.59L21.68-4.53Q21.65-4.38 21.59-3.88Q21.52-3.37 21.50-2.93L21.50-2.93L21-2.90Q21-3.34 20.95-3.48Q20.89-3.62 20.73-3.62L20.73-3.62Q20.53-3.62 20.32-3.47Q20.10-3.32 19.91-3.05L19.91-3.05Q19.90-2.77 19.87-2.12Q19.83-1.46 19.82-1.06L19.82-1.06Q19.82-0.76 19.91-0.65Q20.01-0.53 20.27-0.53L20.27-0.53Q20.41-0.53 20.55-0.55Q20.68-0.56 20.73-0.56L20.73-0.56L20.75-0.51L20.65 0.03Q20.53 0.02 20.20 0.01Q19.87 0 19.51 0L19.51 0Q19.14 0 18.80 0.01Q18.46 0.03 18.37 0.04L18.37 0.04L18.43-0.45ZM24.26 0.12Q23.26 0.12 22.67-0.49Q22.08-1.11 22.08-2.13L22.08-2.13Q22.08-2.82 22.38-3.41Q22.69-3.99 23.21-4.33Q23.74-4.68 24.36-4.68L24.36-4.68Q25.14-4.68 25.54-4.29Q25.94-3.89 25.94-3.12L25.94-3.12Q25.94-2.81 25.88-2.59L25.88-2.59L25.75-2.48L23.07-2.48Q23.07-1.62 23.43-1.16Q23.80-0.70 24.47-0.70L24.47-0.70Q25.03-0.70 25.67-1L25.67-1L25.73-0.97L25.87-0.59Q25.51-0.32 25.05-0.10Q24.59 0.12 24.26 0.12L24.26 0.12ZM23.09-2.93L24.70-3.01Q24.83-3.02 24.88-3.07Q24.92-3.12 24.92-3.26L24.92-3.26Q24.92-3.64 24.73-3.85Q24.54-4.05 24.18-4.05L24.18-4.05Q23.75-4.05 23.45-3.75Q23.16-3.46 23.09-2.93L23.09-2.93ZM26.74 2.41Q26.64 2.41 26.40 2.14Q26.17 1.86 26.17 1.74L26.17 1.74L26.23 1.64Q26.83 1.62 27.32 1.20Q27.81 0.78 28.15 0.04L28.15 0.04Q27.24-2.69 26.86-3.63L26.86-3.63Q26.77-3.88 26.61-3.98Q26.46-4.08 26.22-4.09L26.22-4.09L26.20-4.13L26.26-4.57L27.07-4.56Q27.46-4.56 27.88-4.59Q28.29-4.62 28.41-4.63L28.41-4.63L28.43-4.58L28.36-4.15Q28.04-4.14 27.93-4.08Q27.83-4.03 27.83-3.90L27.83-3.90Q27.83-3.75 28.01-3.13Q28.19-2.51 28.38-1.90Q28.57-1.29 28.63-1.11L28.63-1.11L28.69-1.11Q29.74-3.66 29.74-3.88L29.74-3.88Q29.74-4.01 29.65-4.07Q29.57-4.12 29.39-4.12L29.39-4.12L28.99-4.12L28.97-4.16L29.04-4.60Q29.13-4.59 29.45-4.58Q29.78-4.56 30.08-4.56L30.08-4.56L30.96-4.57L30.89-4.09Q30.67-4.05 30.56-3.94Q30.45-3.83 30.35-3.56L30.35-3.56L29.08-0.50Q28.60 0.66 28.24 1.28Q27.89 1.90 27.54 2.16Q27.19 2.42 26.74 2.41L26.74 2.41ZM34.47 0.12Q33.61 0.12 33.53-0.67L33.53-0.67L33.47-0.69Q33.12-0.34 32.83-0.13Q32.53 0.08 32.37 0.08L32.37 0.08Q31.80 0.08 31.43-0.30Q31.05-0.68 31.05-1.25L31.05-1.25Q31.05-1.56 31.20-1.78Q31.35-2 31.60-2.07L31.60-2.07L33.51-2.56L33.52-2.91Q33.52-3.38 33.29-3.64Q33.06-3.90 32.65-3.90L32.65-3.90Q32.38-3.90 32.07-3.77Q31.76-3.64 31.46-3.41L31.46-3.41L31.40-3.45L31.25-3.95Q31.72-4.23 32.23-4.46Q32.75-4.68 32.98-4.68L32.98-4.68Q33.71-4.68 34.10-4.33Q34.49-3.97 34.49-3.36L34.49-3.36Q34.49-3.24 34.41-2.46L34.41-2.46Q34.30-1.40 34.30-1.17L34.30-1.17Q34.30-0.97 34.40-0.85Q34.50-0.73 34.69-0.73L34.69-0.73Q34.83-0.73 34.98-0.80Q35.14-0.87 35.23-0.95L35.23-0.95L35.38-0.76Q35.22-0.48 34.97-0.22Q34.72 0.04 34.47 0.12L34.47 0.12ZM32.63-0.72Q32.80-0.72 33.03-0.83Q33.26-0.95 33.45-1.12L33.45-1.12L33.49-2.10L32.27-1.75Q32-1.66 32-1.37L32-1.37Q32-1.09 32.17-0.91Q32.35-0.72 32.63-0.72L32.63-0.72Z"/></svg>