<svg xmlns="http://www.w3.org/2000/svg" viewBox="2.4480000000000004 44.70399999999999 364.0320000000001 59.040000000000006"><path d="M18.94 100Q18.36 100 17.96 99.64Q17.57 99.28 17.57 98.78L17.57 98.78L17.57 89.34Q17.57 88.48 13.90 87.76Q10.22 87.04 7.85 87.04L7.85 87.04Q7.70 87.04 7.38 88.12Q7.06 89.20 6.91 89.70L6.91 89.70Q5.98 93.45 5.04 97.70L5.04 97.70L4.68 99.28Q4.54 99.86 3.96 99.86L3.96 99.86Q3.38 99.86 2.92 99.50Q2.45 99.14 2.45 98.63L2.45 98.63L2.52 98.49L2.52 98.42L3.31 94.82Q4.18 91.43 4.82 88.19L4.82 88.19Q5.54 84.52 5.90 83.44L5.90 83.44Q6.48 81.06 8.21 71.56L8.21 71.56L8.64 69.18Q10.51 58.10 11.23 55.22L11.23 55.22Q11.59 53.49 12.53 50.10L12.53 50.10Q12.89 48.66 13.54 47.22L13.54 47.22Q14.18 46.00 14.62 46.00L14.62 46.00Q15.77 46.00 16.27 46.72L16.27 46.72Q16.63 47.37 17.39 53.85Q18.14 60.33 18.72 66.95L18.72 66.95L19.66 78.90Q19.66 82 20.09 88.26L20.09 88.26Q20.52 94.60 20.52 97.70L20.52 97.70L20.52 97.98Q20.52 98.78 20.30 99.42L20.30 99.42Q20.02 100 18.94 100L18.94 100ZM16.06 86.10Q17.50 86.10 17.50 85.38L17.50 85.38Q17.50 80.92 16.99 73.18Q16.49 65.44 15.91 59.54L15.91 59.54Q15.77 57.02 15.34 53.99L15.34 53.99L15.05 51.18Q15.05 51.26 14.90 50.39L14.90 50.39L14.76 49.53Q14.18 51.11 13.64 53.92Q13.10 56.73 12.53 60.54L12.53 60.54Q10.80 71.27 9.58 76.67L9.58 76.67L8.93 79.12Q7.85 82.72 7.85 84.59L7.85 84.59L7.85 85.02Q11.02 86.03 15.12 86.03L15.12 86.03L15.55 86.03Q15.77 86.10 16.06 86.10L16.06 86.10ZM59.04 103.74Q57.60 103.74 57.60 99.14L57.60 99.14L57.60 94.38Q57.60 84.02 57.17 78.18L57.17 78.18L56.95 75.52Q56.66 73.72 56.66 72.35L56.66 72.35Q56.66 69.90 56.81 67.89L56.81 67.89L56.95 63.42Q56.95 61.19 56.66 60.04L56.66 60.04Q55.22 61.05 47.95 90.35L47.95 90.35L47.88 91.43Q47.66 93.23 47.30 94.31L47.30 94.31Q47.09 95.10 46.69 95.54Q46.30 95.97 45.79 95.97L45.79 95.97Q44.64 95.97 44.14 95.39Q43.63 94.82 43.63 93.59L43.63 93.59Q43.63 91.65 41.80 83.51Q39.96 75.38 37.84 67.89Q35.71 60.40 34.92 59.61L34.92 59.61Q34.85 62.13 34.34 71.49L34.34 71.49Q33.34 88.05 33.34 97.55L33.34 97.55L33.41 100.43Q33.12 101.37 31.90 101.37L31.90 101.37Q31.68 101.37 31.18 100.97Q30.67 100.58 30.67 100.36L30.67 100.36Q30.67 93.88 31.82 77.61L31.82 77.61Q32.90 62.49 32.90 54.93L32.90 54.93Q32.90 54.57 32.76 54.21L32.76 54.21Q32.54 53.78 32.54 53.56L32.54 53.56Q32.54 52.48 34.42 52.48L34.42 52.48Q35.64 52.48 35.86 53.56L35.86 53.56Q36.14 55.00 36.14 55.72L36.14 55.72L36.22 56.58Q36.58 58.46 38.30 62.34L38.30 62.34Q39.67 65.44 40.39 67.74L40.39 67.74Q40.82 69.47 41.18 70.55L41.18 70.55Q42.34 74.73 42.70 76.74L42.70 76.74L43.63 78.62Q43.85 79.70 44.50 82.14L44.50 82.14Q45.14 84.88 45.43 86.61Q45.72 88.34 45.72 89.92L45.72 89.92Q46.51 88.70 50.22 75.20Q53.93 61.70 54.58 57.95L54.58 57.95Q54.65 57.81 54.68 57.56Q54.72 57.30 54.79 56.87L54.79 56.87Q54.94 55.94 55.44 54.06L55.44 54.06Q56.02 52.62 57.17 52.62L57.17 52.62Q57.67 52.62 58.32 53.06Q58.97 53.49 58.97 53.92L58.97 53.92Q58.97 83.94 59.90 85.67L59.90 85.67L59.90 89.42Q59.83 91.07 59.83 93.23L59.83 93.23Q59.83 97.84 60.34 100.14L60.34 100.14Q60.41 100.22 60.44 100.36Q60.48 100.50 60.55 100.72L60.55 100.72Q60.62 101.01 60.62 101.37L60.62 101.37Q60.62 102.16 60.16 102.95Q59.69 103.74 59.04 103.74L59.04 103.74ZM56.66 59.75L56.66 59.61L56.59 59.61L56.45 59.68L56.66 59.75ZM85.61 100.65Q84.53 100.65 84.24 100.40Q83.95 100.14 83.81 99.06L83.81 99.06Q83.16 93.81 83.02 92.51L83.02 92.51L82.66 89.63Q81.07 89.27 79.06 89.27L79.06 89.27L76.46 89.13Q74.74 88.91 73.94 88.91L73.94 88.91Q73.51 88.91 73.44 89.27L73.44 89.27Q73.44 89.49 73.37 89.49L73.37 89.49L73.22 90.93Q73.15 92.22 72.43 96.11L72.43 96.11Q72.07 98.06 71.57 99.14L71.57 99.14Q70.99 100.36 70.49 100.36L70.49 100.36Q70.06 100.36 69.55 99.96Q69.05 99.57 69.05 99.14L69.05 99.14L69.12 98.92L69.19 98.70Q70.49 93.59 71.35 88.55L71.35 88.55L72.22 84.09L73.08 78.62Q73.08 78.62 73.87 73.86L73.87 73.86Q74.23 71.92 75.17 67.60L75.17 67.60Q76.18 62.70 76.39 60.90L76.39 60.90Q76.46 60.69 76.68 58.24L76.68 58.24Q76.97 55.50 77.18 54.21L77.18 54.21Q77.40 52.34 77.62 52.05L77.62 52.05L78.12 52.05Q78.34 52.12 78.62 52.12L78.62 52.12Q79.49 52.12 79.92 51.69L79.92 51.69Q80.42 51.69 80.82 52.01Q81.22 52.34 81.22 52.77L81.22 52.77Q81.22 56.22 81.72 60.69L81.72 60.69Q82.01 62.99 82.15 64.50L82.15 64.50Q82.94 73.79 86.18 99.35L86.18 99.35L86.18 99.57Q86.18 100.29 85.61 100.65L85.61 100.65ZM81.58 87.69L82.30 87.69Q81.58 77.32 79.56 57.09L79.56 57.09L75.67 76.31Q74.02 84.59 74.02 86.75L74.02 86.75Q74.02 87.11 76.75 87.40Q79.49 87.69 81.58 87.69L81.58 87.69ZM99.50 99.57L98.71 98.99L98.64 96.33Q98.57 95.18 98.57 93.74L98.57 93.74Q98.57 93.02 98.64 92.51L98.64 92.51L98.71 91.22Q98.71 90.50 98.42 89.49L98.42 89.49Q98.42 84.66 97.70 71.56L97.70 71.56Q96.98 58.89 96.91 54.35L96.91 54.35Q92.45 54.35 90.94 54.14L90.94 54.14Q89.50 53.78 89.50 52.98L89.50 52.98Q89.86 52.19 90.86 52.19L90.86 52.19Q93.02 52.19 97.13 52.48L97.13 52.48Q100.87 52.84 103.39 52.84L103.39 52.84L104.90 52.84L106.42 52.77Q107.71 52.77 107.71 53.70L107.71 53.70Q107.71 54.14 107.24 54.39Q106.78 54.64 106.13 54.64L106.13 54.64Q104.69 54.64 103.10 54.50L103.10 54.50L100.01 54.35Q99.72 54.35 99.72 54.57L99.72 54.57Q99.65 54.78 99.65 55.94L99.65 55.94Q99.65 62.92 100.51 77.10L100.51 77.10Q101.30 91.79 101.30 98.20L101.30 98.20Q101.30 98.70 100.69 99.14Q100.08 99.57 99.50 99.57L99.50 99.57ZM119.23 100Q117.58 100 117.29 99.28L117.29 99.28Q116.93 99.28 116.71 99.35L116.71 99.35L116.14 99.35Q114.55 99.35 114.12 98.63L114.12 98.63Q114.12 98.13 114.70 97.77L114.70 97.77L115.06 97.41L117.14 97.41L117.43 97.12L117.58 96.47L117.65 95.61Q117.65 91.22 117.43 87.76L117.43 87.76L117.29 85.10L117.14 79.84Q117.14 77.03 117.36 71.42L117.36 71.42L117.50 63.06Q117.50 57.59 117.14 54.71L117.14 54.71Q116.50 54.50 114.98 54.50L114.98 54.50L114.19 54.57Q113.76 54.64 113.26 54.64L113.26 54.64Q111.89 54.64 111.89 53.42L111.89 53.42Q111.89 53.13 112.54 52.84Q113.18 52.55 113.62 52.55L113.62 52.55Q116.35 52.55 119.09 52.84L119.09 52.84Q120.74 52.91 122.40 53.49L122.40 53.49Q123.70 53.92 123.70 54.71L123.70 54.71Q123.70 54.86 123.48 55.29L123.48 55.29L121.82 55.43Q121.32 55.00 119.74 55.00L119.74 55.00L119.38 55.22Q119.59 55.86 119.59 59.03L119.59 59.03Q119.59 63.78 119.52 67.60L119.52 67.60L119.38 76.17Q119.38 79.41 119.66 84.02L119.66 84.02Q119.88 89.27 119.88 91.94L119.88 91.94L119.88 92.87Q119.81 93.38 119.81 94.17L119.81 94.17Q119.81 95.82 120.02 96.18L120.02 96.18L119.95 96.33Q119.95 97.05 121.54 97.05L121.54 97.05Q122.18 97.05 122.62 96.98L122.62 96.98L123.70 96.98Q125.78 96.98 125.78 97.98L125.78 97.98Q125.78 98.63 125.35 99.03Q124.92 99.42 124.20 99.42L124.20 99.42Q123.55 99.42 123.05 99.28L123.05 99.28Q122.47 99.21 121.82 99.21L121.82 99.21Q121.39 99.21 120.53 99.57L120.53 99.57Q119.66 100 119.23 100L119.23 100ZM139.46 101.15L137.74 100.50Q136.37 100.07 135.40 99.28Q134.42 98.49 133.56 96.90L133.56 96.90Q132.05 94.02 131.76 88.62L131.76 88.62Q131.62 86.18 131.62 84.30L131.62 84.30L131.62 76.10Q131.62 71.42 131.90 67.02L131.90 67.02Q132.12 63.78 132.55 61.55Q132.98 59.32 133.92 57.09L133.92 57.09Q134.93 54.78 136.15 53.85L136.15 53.85Q136.66 53.42 138.10 52.84L138.10 52.84Q139.03 52.48 139.90 52.05L139.90 52.05L142.78 52.05L142.99 52.05Q143.06 52.12 143.21 52.12L143.21 52.12L143.57 52.19L143.86 52.41Q144.07 52.62 144.07 52.70L144.07 52.70Q144.14 52.84 144.14 53.13L144.14 53.13L143.21 54.21L140.18 54.21Q138.82 54.21 137.70 55.54Q136.58 56.87 136.01 58.89L136.01 58.89Q135.43 60.69 135.07 63.14Q134.71 65.58 134.64 67.38L134.64 67.38Q134.50 69.69 134.50 70.55L134.50 70.55L134.35 70.91Q134.35 74.94 134.21 78.18L134.21 78.18L134.06 85.46Q134.06 88.62 134.50 91.29L134.50 91.29Q134.86 94.17 136.58 96.47L136.58 96.47Q138.24 98.78 141.70 98.78L141.70 98.78Q142.78 98.78 143.50 98.13L143.50 98.13Q144.58 98.13 144.58 98.92L144.58 98.92Q144.58 99.42 143.68 100.11Q142.78 100.79 141.84 101.15L141.84 101.15L139.46 101.15ZM168.34 101.58Q167.04 101.58 166.36 101.48Q165.67 101.37 164.88 101.01L164.88 101.01Q164.02 100.58 163.58 99.78L163.58 99.78Q163.58 98.92 164.38 98.92L164.38 98.92Q165.17 98.92 166.39 99.42L166.39 99.42Q167.54 100 168.34 100L168.34 100Q169.92 100 171.25 98.70Q172.58 97.41 173.30 95.32L173.30 95.32Q174.74 91.22 174.74 88.05L174.74 88.05Q174.74 84.52 173.74 80.92Q172.73 77.32 171.07 74.15L171.07 74.15Q170.71 73.36 169.85 71.78L169.85 71.78Q168.05 68.18 167.11 66.16Q166.18 64.14 165.46 61.70L165.46 61.70Q164.45 58.46 164.45 54.71L164.45 54.71Q164.45 52.34 165.20 50.14Q165.96 47.94 167.62 46.36L167.62 46.36Q169.42 44.70 171.65 44.70L171.65 44.70Q172.51 44.70 173.74 45.39Q174.96 46.07 174.96 46.72L174.96 46.72Q174.96 47.30 174.53 47.30L174.53 47.30Q174.10 47.30 173.38 46.94L173.38 46.94Q172.73 46.58 172.15 46.58L172.15 46.58Q170.50 46.58 169.24 47.80Q167.98 49.02 167.40 50.82L167.40 50.82Q166.90 52.34 166.90 54.14L166.90 54.14Q166.90 56.94 167.62 59.93Q168.34 62.92 169.56 65.51L169.56 65.51L172.08 70.77L172.80 72.28Q174.31 75.38 175.14 77.39Q175.97 79.41 176.54 81.93L176.54 81.93Q177.34 85.31 177.34 88.41L177.34 88.41Q177.34 92.58 175.18 96.90L175.18 96.90Q174.10 98.99 172.30 100.29Q170.50 101.58 168.34 101.58L168.34 101.58ZM196.42 101.15Q194.40 101.15 192.17 99.57Q189.94 97.98 189.00 95.97L189.00 95.97Q188.14 94.10 187.24 84.09Q186.34 74.08 186.34 69.18L186.34 69.18L186.34 65.37Q186.26 63.71 186.26 61.70L186.26 61.70Q186.26 57.95 186.70 54.28L186.70 54.28Q186.98 52.48 187.45 51.18Q187.92 49.89 188.78 48.66L188.78 48.66Q190.37 46.22 193.54 45.42L193.54 45.42Q195.19 44.99 197.21 44.99L197.21 44.99Q198.58 44.99 199.98 45.78Q201.38 46.58 201.38 47.66L201.38 47.66Q201.38 48.45 200.23 48.45L200.23 48.45Q199.80 48.45 198.58 47.94L198.58 47.94Q197.50 47.44 196.63 47.44L196.63 47.44Q194.62 47.44 193.00 48.27Q191.38 49.10 190.44 50.46L190.44 50.46Q189.65 51.62 189.07 53.63Q188.50 55.65 188.35 57.66L188.35 57.66Q188.14 59.46 188.14 61.98L188.14 61.98L188.21 66.02Q188.28 67.74 188.28 69.76L188.28 69.76Q188.28 74.73 189.29 84.38Q190.30 94.02 191.23 95.54L191.23 95.54Q192.10 96.90 193.79 97.62Q195.48 98.34 197.35 98.34L197.35 98.34Q200.66 98.34 202.39 96.26L202.39 96.26Q203.04 95.39 203.76 95.39L203.76 95.39Q204.41 95.39 204.41 96.40L204.41 96.40Q204.41 97.70 203.62 98.67Q202.82 99.64 201.46 100.14L201.46 100.14Q199.15 101.15 196.42 101.15L196.42 101.15ZM235.15 101.22L234.14 100.86Q233.28 99.93 232.27 95.90Q231.26 91.86 230.40 86.82L230.40 86.82Q229.82 82.72 228.74 78.69L228.74 78.69Q227.88 75.09 227.09 75.09L227.09 75.09L226.87 75.09Q225.29 75.09 225.29 76.10L225.29 76.10Q225.29 81.28 225.86 91.86L225.86 91.86Q226.15 98.34 226.51 99.42L226.51 99.42L225.94 100.65L224.93 100.65L224.35 100.07Q223.20 66.81 223.20 54.71L223.20 54.71Q223.20 53.92 223.31 53.42Q223.42 52.91 223.78 52.48L223.78 52.48Q224.06 51.98 224.78 51.98L224.78 51.98Q228.46 51.98 230.69 53.78Q232.92 55.58 232.92 58.96L232.92 58.96L232.92 64.22Q232.92 65.58 232.02 67.89Q231.12 70.19 230.04 72.14L230.04 72.14L229.10 73.94Q229.90 77.61 232.24 87.15Q234.58 96.69 234.79 97.26L234.79 97.26Q234.86 97.34 234.97 97.62Q235.08 97.91 235.44 98.49L235.44 98.49Q235.94 99.50 235.94 100.22L235.94 100.22Q235.94 101.22 235.15 101.22L235.15 101.22ZM225.65 73.29Q227.02 73.29 228.10 71.92Q229.18 70.55 229.82 68.39L229.82 68.39Q230.98 64.00 230.98 61.41L230.98 61.41Q230.98 59.75 230.80 58.67Q230.62 57.59 230.18 56.37L230.18 56.37Q229.32 53.85 226.08 53.85L226.08 53.85Q225.72 53.85 225.50 54.46Q225.29 55.07 225.29 55.72L225.29 55.72Q225.29 60.54 225.43 64.43L225.43 64.43Q225.50 68.32 225.50 73.14L225.50 73.14L225.65 73.29ZM245.38 100.94Q244.08 100.94 243.94 99.42L243.94 99.42L243.94 98.49Q244.01 98.13 244.01 97.62L244.01 97.62L243.72 97.34Q244.30 95.82 244.30 94.38L244.30 94.38Q244.30 92.73 244.08 89.63L244.08 89.63L243.94 84.88Q243.94 81.28 244.15 74.08L244.15 74.08Q244.44 67.67 244.44 63.21L244.44 63.21L244.30 58.89Q244.15 56.94 244.15 54.57L244.15 54.57Q244.15 53.49 244.66 53.02Q245.16 52.55 246.24 52.55L246.24 52.55Q246.96 52.55 247.39 52.98L247.39 52.98Q247.54 53.06 249.48 53.27L249.48 53.27Q251.28 53.49 252.58 53.92L252.58 53.92Q253.94 54.35 253.94 55.00L253.94 55.00Q253.94 55.72 252.58 56.44L252.58 56.44Q248.47 55.07 246.74 55.07L246.74 55.07L246.38 55.50Q246.46 56.15 246.46 58.60L246.46 58.60Q246.46 61.70 246.31 64.14L246.31 64.14Q246.24 66.66 246.24 69.76L246.24 69.76Q246.24 71.78 247.25 71.78L247.25 71.78L248.40 71.70Q248.98 71.63 249.62 71.63L249.62 71.63Q252.43 71.63 252.43 72.93L252.43 72.93Q252.43 73.72 252.07 74.26Q251.71 74.80 250.99 74.80L250.99 74.80Q249.91 74.80 249.34 74.22L249.34 74.22L247.03 73.86L246.67 73.86L246.31 74.22L246.31 74.44Q246.46 75.66 246.46 80.13L246.46 80.13Q246.46 82.94 246.38 85.24L246.38 85.24L246.31 90.35Q246.31 93.16 246.53 96.11L246.53 96.11Q246.60 97.77 247.25 98.31Q247.90 98.85 249.62 98.85L249.62 98.85L250.92 98.78Q251.57 98.70 252.36 98.70L252.36 98.70Q254.45 98.70 254.45 99.64L254.45 99.64Q254.45 100.94 251.28 100.94L251.28 100.94L245.38 100.94ZM270.94 100.50Q267.62 100.50 266.04 99.71Q264.46 98.92 263.70 96.65Q262.94 94.38 262.37 89.42L262.37 89.42Q261.50 82.14 261.50 78.11L261.50 78.11Q261.50 75.66 261.79 72.50L261.79 72.50L262.22 67.96Q262.58 62.56 263.05 59.79Q263.52 57.02 265.14 54.89Q266.76 52.77 270.14 52.41L270.14 52.41Q270.50 52.34 271.30 52.34L271.30 52.34Q273.53 52.34 273.53 53.34L273.53 53.34Q273.53 53.78 273.06 54.10Q272.59 54.42 272.09 54.42L272.09 54.42L271.37 54.35L270.72 54.28Q269.50 54.28 268.52 55.07Q267.55 55.86 266.90 57.38L266.90 57.38Q265.39 60.98 264.96 64.43L264.96 64.43Q264.38 68.97 264.24 72.35L264.24 72.35L264.17 77.90Q264.17 81.42 264.38 83.15L264.38 83.15Q264.89 83.94 265.07 85.56Q265.25 87.18 265.39 89.99L265.39 89.99Q265.54 92.51 266.04 94.28Q266.54 96.04 267.84 97.19L267.84 97.19Q269.28 98.42 271.80 98.42L271.80 98.42Q273.89 98.42 274.75 96.11L274.75 96.11Q275.76 93.66 275.90 91.07L275.90 91.07Q276.12 87.83 276.12 85.60L276.12 85.60L276.12 81.64Q275.40 80.92 273.60 80.92L273.60 80.92L273.02 80.92Q272.66 80.99 272.23 80.99L272.23 80.99Q270.50 80.99 270.50 80.13L270.50 80.13Q270.50 78.90 272.23 78.90L272.23 78.90Q273.46 78.90 274.25 78.98L274.25 78.98L275.83 79.05Q277.20 79.26 277.99 79.55L277.99 79.55Q278.86 79.84 278.86 80.34L278.86 80.34Q278.86 81.28 278.42 83.01L278.42 83.01Q278.06 85.02 278.06 85.74L278.06 85.74Q278.06 88.77 278.21 91.22L278.21 91.22Q278.28 93.74 278.28 96.76L278.28 96.76Q274.61 100.50 270.94 100.50L270.94 100.50ZM294.41 101.08Q293.26 101.08 291.92 100.32Q290.59 99.57 289.73 98.56L289.73 98.56Q288.72 97.26 288.14 91.29Q287.57 85.31 287.42 77.61L287.42 77.61Q287.42 75.88 287.35 75.02L287.35 75.02Q287.21 56.94 286.78 53.63L286.78 53.63L287.21 52.62Q288.86 52.84 288.86 56.58L288.86 56.58L289.08 75.66Q289.08 77.68 289.44 83.30L289.44 83.30Q289.87 88.34 289.87 90.93L289.87 90.93Q289.87 99.14 295.27 99.14L295.27 99.14Q298.58 99.14 299.52 84.02L299.52 84.02L299.59 82.58Q300.10 62.78 300.10 53.27L300.10 53.27L300.02 52.62Q299.95 52.34 299.95 51.98L299.95 51.98Q299.95 51.18 301.18 51.18L301.18 51.18Q302.04 51.18 302.26 51.62L302.26 51.62Q302.40 52.34 302.40 54.14L302.40 54.14Q302.40 59.61 301.97 61.48L301.97 61.48L302.04 61.91Q302.04 62.85 301.82 64.79L301.82 64.79L301.68 67.67L301.68 68.39Q301.75 68.68 301.75 69.11L301.75 69.11Q301.61 70.84 301.61 72.42L301.61 72.42Q301.54 72.93 301.54 74.01L301.54 74.01Q301.39 80.85 301.25 85.89L301.25 85.89Q301.03 92.15 299.52 96.47L299.52 96.47Q297.94 101.08 294.41 101.08L294.41 101.08ZM314.50 100.94Q313.49 100.94 313.27 99.28L313.27 99.28Q313.42 98.85 313.42 96.90L313.42 96.90Q313.42 90.28 313.63 77.25L313.63 77.25Q313.85 64.29 313.85 58.53L313.85 58.53L313.99 55.94L314.21 53.78Q314.21 53.27 314.71 53.27L314.71 53.27Q315.07 53.27 315.72 53.49L315.72 53.49L315.94 53.56Q315.94 55.14 315.86 56.44L315.86 56.44L315.86 59.25L315.86 67.10Q315.94 70.55 315.94 74.94L315.94 74.94Q315.86 75.30 315.86 76.53L315.86 76.53L315.79 78.04Q315.72 79.48 315.72 80.99L315.72 80.99Q315.72 82.65 315.79 84.02L315.79 84.02L315.86 87.11L315.65 87.69L315.72 87.62Q315.72 87.83 315.65 87.90L315.65 87.90L315.65 88.19Q315.65 88.77 315.86 89.20L315.86 89.20L315.65 96.11L315.65 96.54Q315.65 97.77 315.72 97.98L315.72 97.98Q315.72 98.34 316.08 98.34L316.08 98.34L319.82 98.49Q321.48 98.49 322.09 98.52Q322.70 98.56 322.85 98.56L322.85 98.56L323.06 98.56Q323.42 98.56 323.78 98.96Q324.14 99.35 324.14 99.78L324.14 99.78Q324.14 100.65 322.99 100.72L322.99 100.72Q321.77 100.65 317.02 100.65L317.02 100.65L317.16 100.72Q316.44 100.72 315.79 100.79L315.79 100.79Q315.22 100.94 314.50 100.94L314.50 100.94ZM345.31 100.65Q344.23 100.65 343.94 100.40Q343.66 100.14 343.51 99.06L343.51 99.06Q342.86 93.81 342.72 92.51L342.72 92.51L342.36 89.63Q340.78 89.27 338.76 89.27L338.76 89.27L336.17 89.13Q334.44 88.91 333.65 88.91L333.65 88.91Q333.22 88.91 333.14 89.27L333.14 89.27Q333.14 89.49 333.07 89.49L333.07 89.49L332.93 90.93Q332.86 92.22 332.14 96.11L332.14 96.11Q331.78 98.06 331.27 99.14L331.27 99.14Q330.70 100.36 330.19 100.36L330.19 100.36Q329.76 100.36 329.26 99.96Q328.75 99.57 328.75 99.14L328.75 99.14L328.82 98.92L328.90 98.70Q330.19 93.59 331.06 88.55L331.06 88.55L331.92 84.09L332.78 78.62Q332.78 78.62 333.58 73.86L333.58 73.86Q333.94 71.92 334.87 67.60L334.87 67.60Q335.88 62.70 336.10 60.90L336.10 60.90Q336.17 60.69 336.38 58.24L336.38 58.24Q336.67 55.50 336.89 54.21L336.89 54.21Q337.10 52.34 337.32 52.05L337.32 52.05L337.82 52.05Q338.04 52.12 338.33 52.12L338.33 52.12Q339.19 52.12 339.62 51.69L339.62 51.69Q340.13 51.69 340.52 52.01Q340.92 52.34 340.92 52.77L340.92 52.77Q340.92 56.22 341.42 60.69L341.42 60.69Q341.71 62.99 341.86 64.50L341.86 64.50Q342.65 73.79 345.89 99.35L345.89 99.35L345.89 99.57Q345.89 100.29 345.31 100.65L345.31 100.65ZM341.28 87.69L342.00 87.69Q341.28 77.32 339.26 57.09L339.26 57.09L335.38 76.31Q333.72 84.59 333.72 86.75L333.72 86.75Q333.72 87.11 336.46 87.40Q339.19 87.69 341.28 87.69L341.28 87.69ZM365.69 101.22L364.68 100.86Q363.82 99.93 362.81 95.90Q361.80 91.86 360.94 86.82L360.94 86.82Q360.36 82.72 359.28 78.69L359.28 78.69Q358.42 75.09 357.62 75.09L357.62 75.09L357.41 75.09Q355.82 75.09 355.82 76.10L355.82 76.10Q355.82 81.28 356.40 91.86L356.40 91.86Q356.69 98.34 357.05 99.42L357.05 99.42L356.47 100.65L355.46 100.65L354.89 100.07Q353.74 66.81 353.74 54.71L353.74 54.71Q353.74 53.92 353.84 53.42Q353.95 52.91 354.31 52.48L354.31 52.48Q354.60 51.98 355.32 51.98L355.32 51.98Q358.99 51.98 361.22 53.78Q363.46 55.58 363.46 58.96L363.46 58.96L363.46 64.22Q363.46 65.58 362.56 67.89Q361.66 70.19 360.58 72.14L360.58 72.14L359.64 73.94Q360.43 77.61 362.77 87.15Q365.11 96.69 365.33 97.26L365.33 97.26Q365.40 97.34 365.51 97.62Q365.62 97.91 365.98 98.49L365.98 98.49Q366.48 99.50 366.48 100.22L366.48 100.22Q366.48 101.22 365.69 101.22L365.69 101.22ZM356.18 73.29Q357.55 73.29 358.63 71.92Q359.71 70.55 360.36 68.39L360.36 68.39Q361.51 64.00 361.51 61.41L361.51 61.41Q361.51 59.75 361.33 58.67Q361.15 57.59 360.72 56.37L360.72 56.37Q359.86 53.85 356.62 53.85L356.62 53.85Q356.26 53.85 356.04 54.46Q355.82 55.07 355.82 55.72L355.82 55.72Q355.82 60.54 355.97 64.43L355.97 64.43Q356.04 68.32 356.04 73.14L356.04 73.14L356.18 73.29Z"/></svg>