<svg xmlns="http://www.w3.org/2000/svg" viewBox="2.4480000000000004 44.70399999999999 364.0320000000001 59.040000000000006"><path d="M19 100Q18 100 18 100Q18 99 18 99L18 99L18 89Q18 88 14 88Q10 87 8 87L8 87Q8 87 7 88Q7 89 7 90L7 90Q6 93 5 98L5 98L5 99Q5 100 4 100L4 100Q3 100 3 99Q2 99 2 99L2 99L3 98L3 98L3 95Q4 91 5 88L5 88Q6 85 6 83L6 83Q6 81 8 72L8 72L9 69Q11 58 11 55L11 55Q12 53 13 50L13 50Q13 49 14 47L14 47Q14 46 15 46L15 46Q16 46 16 47L16 47Q17 47 17 54Q18 60 19 67L19 67L20 79Q20 82 20 88L20 88Q21 95 21 98L21 98L21 98Q21 99 20 99L20 99Q20 100 19 100L19 100ZM16 86Q17 86 17 85L17 85Q17 81 17 73Q16 65 16 60L16 60Q16 57 15 54L15 54L15 51Q15 51 15 50L15 50L15 50Q14 51 14 54Q13 57 13 61L13 61Q11 71 10 77L10 77L9 79Q8 83 8 85L8 85L8 85Q11 86 15 86L15 86L16 86Q16 86 16 86L16 86ZM59 104Q58 104 58 99L58 99L58 94Q58 84 57 78L57 78L57 76Q57 74 57 72L57 72Q57 70 57 68L57 68L57 63Q57 61 57 60L57 60Q55 61 48 90L48 90L48 91Q48 93 47 94L47 94Q47 95 47 96Q46 96 46 96L46 96Q45 96 44 95Q44 95 44 94L44 94Q44 92 42 84Q40 75 38 68Q36 60 35 60L35 60Q35 62 34 71L34 71Q33 88 33 98L33 98L33 100Q33 101 32 101L32 101Q32 101 31 101Q31 101 31 100L31 100Q31 94 32 78L32 78Q33 62 33 55L33 55Q33 55 33 54L33 54Q33 54 33 54L33 54Q33 52 34 52L34 52Q36 52 36 54L36 54Q36 55 36 56L36 56L36 57Q37 58 38 62L38 62Q40 65 40 68L40 68Q41 69 41 71L41 71Q42 75 43 77L43 77L44 79Q44 80 44 82L44 82Q45 85 45 87Q46 88 46 90L46 90Q47 89 50 75Q54 62 55 58L55 58Q55 58 55 58Q55 57 55 57L55 57Q55 56 55 54L55 54Q56 53 57 53L57 53Q58 53 58 53Q59 53 59 54L59 54Q59 84 60 86L60 86L60 89Q60 91 60 93L60 93Q60 98 60 100L60 100Q60 100 60 100Q60 101 61 101L61 101Q61 101 61 101L61 101Q61 102 60 103Q60 104 59 104L59 104ZM57 60L57 60L57 60L56 60L57 60ZM86 101Q85 101 84 100Q84 100 84 99L84 99Q83 94 83 93L83 93L83 90Q81 89 79 89L79 89L76 89Q75 89 74 89L74 89Q74 89 73 89L73 89Q73 89 73 89L73 89L73 91Q73 92 72 96L72 96Q72 98 72 99L72 99Q71 100 70 100L70 100Q70 100 70 100Q69 100 69 99L69 99L69 99L69 99Q70 94 71 89L71 89L72 84L73 79Q73 79 74 74L74 74Q74 72 75 68L75 68Q76 63 76 61L76 61Q76 61 77 58L77 58Q77 56 77 54L77 54Q77 52 78 52L78 52L78 52Q78 52 79 52L79 52Q79 52 80 52L80 52Q80 52 81 52Q81 52 81 53L81 53Q81 56 82 61L82 61Q82 63 82 65L82 65Q83 74 86 99L86 99L86 100Q86 100 86 101L86 101ZM82 88L82 88Q82 77 80 57L80 57L76 76Q74 85 74 87L74 87Q74 87 77 87Q79 88 82 88L82 88ZM100 100L99 99L99 96Q99 95 99 94L99 94Q99 93 99 93L99 93L99 91Q99 90 98 89L98 89Q98 85 98 72L98 72Q97 59 97 54L97 54Q92 54 91 54L91 54Q89 54 89 53L89 53Q90 52 91 52L91 52Q93 52 97 52L97 52Q101 53 103 53L103 53L105 53L106 53Q108 53 108 54L108 54Q108 54 107 54Q107 55 106 55L106 55Q105 55 103 54L103 54L100 54Q100 54 100 55L100 55Q100 55 100 56L100 56Q100 63 101 77L101 77Q101 92 101 98L101 98Q101 99 101 99Q100 100 100 100L100 100ZM119 100Q118 100 117 99L117 99Q117 99 117 99L117 99L116 99Q115 99 114 99L114 99Q114 98 115 98L115 98L115 97L117 97L117 97L118 96L118 96Q118 91 117 88L117 88L117 85L117 80Q117 77 117 71L117 71L118 63Q118 58 117 55L117 55Q116 54 115 54L115 54L114 55Q114 55 113 55L113 55Q112 55 112 53L112 53Q112 53 113 53Q113 53 114 53L114 53Q116 53 119 53L119 53Q121 53 122 53L122 53Q124 54 124 55L124 55Q124 55 123 55L123 55L122 55Q121 55 120 55L120 55L119 55Q120 56 120 59L120 59Q120 64 120 68L120 68L119 76Q119 79 120 84L120 84Q120 89 120 92L120 92L120 93Q120 93 120 94L120 94Q120 96 120 96L120 96L120 96Q120 97 122 97L122 97Q122 97 123 97L123 97L124 97Q126 97 126 98L126 98Q126 99 125 99Q125 99 124 99L124 99Q124 99 123 99L123 99Q122 99 122 99L122 99Q121 99 121 100L121 100Q120 100 119 100L119 100ZM139 101L138 101Q136 100 135 99Q134 98 134 97L134 97Q132 94 132 89L132 89Q132 86 132 84L132 84L132 76Q132 71 132 67L132 67Q132 64 133 62Q133 59 134 57L134 57Q135 55 136 54L136 54Q137 53 138 53L138 53Q139 52 140 52L140 52L143 52L143 52Q143 52 143 52L143 52L144 52L144 52Q144 53 144 53L144 53Q144 53 144 53L144 53L143 54L140 54Q139 54 138 56Q137 57 136 59L136 59Q135 61 135 63Q135 66 135 67L135 67Q134 70 134 71L134 71L134 71Q134 75 134 78L134 78L134 85Q134 89 134 91L134 91Q135 94 137 96L137 96Q138 99 142 99L142 99Q143 99 143 98L143 98Q145 98 145 99L145 99Q145 99 144 100Q143 101 142 101L142 101L139 101ZM168 102Q167 102 166 101Q166 101 165 101L165 101Q164 101 164 100L164 100Q164 99 164 99L164 99Q165 99 166 99L166 99Q168 100 168 100L168 100Q170 100 171 99Q173 97 173 95L173 95Q175 91 175 88L175 88Q175 85 174 81Q173 77 171 74L171 74Q171 73 170 72L170 72Q168 68 167 66Q166 64 165 62L165 62Q164 58 164 55L164 55Q164 52 165 50Q166 48 168 46L168 46Q169 45 172 45L172 45Q173 45 174 45Q175 46 175 47L175 47Q175 47 175 47L175 47Q174 47 173 47L173 47Q173 47 172 47L172 47Q170 47 169 48Q168 49 167 51L167 51Q167 52 167 54L167 54Q167 57 168 60Q168 63 170 66L170 66L172 71L173 72Q174 75 175 77Q176 79 177 82L177 82Q177 85 177 88L177 88Q177 93 175 97L175 97Q174 99 172 100Q170 102 168 102L168 102ZM196 101Q194 101 192 100Q190 98 189 96L189 96Q188 94 187 84Q186 74 186 69L186 69L186 65Q186 64 186 62L186 62Q186 58 187 54L187 54Q187 52 187 51Q188 50 189 49L189 49Q190 46 194 45L194 45Q195 45 197 45L197 45Q199 45 200 46Q201 47 201 48L201 48Q201 48 200 48L200 48Q200 48 199 48L199 48Q197 47 197 47L197 47Q195 47 193 48Q191 49 190 50L190 50Q190 52 189 54Q188 56 188 58L188 58Q188 59 188 62L188 62L188 66Q188 68 188 70L188 70Q188 75 189 84Q190 94 191 96L191 96Q192 97 194 98Q195 98 197 98L197 98Q201 98 202 96L202 96Q203 95 204 95L204 95Q204 95 204 96L204 96Q204 98 204 99Q203 100 201 100L201 100Q199 101 196 101L196 101ZM235 101L234 101Q233 100 232 96Q231 92 230 87L230 87Q230 83 229 79L229 79Q228 75 227 75L227 75L227 75Q225 75 225 76L225 76Q225 81 226 92L226 92Q226 98 227 99L227 99L226 101L225 101L224 100Q223 67 223 55L223 55Q223 54 223 53Q223 53 224 52L224 52Q224 52 225 52L225 52Q228 52 231 54Q233 56 233 59L233 59L233 64Q233 66 232 68Q231 70 230 72L230 72L229 74Q230 78 232 87Q235 97 235 97L235 97Q235 97 235 98Q235 98 235 98L235 98Q236 99 236 100L236 100Q236 101 235 101L235 101ZM226 73Q227 73 228 72Q229 71 230 68L230 68Q231 64 231 61L231 61Q231 60 231 59Q231 58 230 56L230 56Q229 54 226 54L226 54Q226 54 226 54Q225 55 225 56L225 56Q225 61 225 64L225 64Q226 68 226 73L226 73L226 73ZM245 101Q244 101 244 99L244 99L244 98Q244 98 244 98L244 98L244 97Q244 96 244 94L244 94Q244 93 244 90L244 90L244 85Q244 81 244 74L244 74Q244 68 244 63L244 63L244 59Q244 57 244 55L244 55Q244 53 245 53Q245 53 246 53L246 53Q247 53 247 53L247 53Q248 53 249 53L249 53Q251 53 253 54L253 54Q254 54 254 55L254 55Q254 56 253 56L253 56Q248 55 247 55L247 55L246 56Q246 56 246 59L246 59Q246 62 246 64L246 64Q246 67 246 70L246 70Q246 72 247 72L247 72L248 72Q249 72 250 72L250 72Q252 72 252 73L252 73Q252 74 252 74Q252 75 251 75L251 75Q250 75 249 74L249 74L247 74L247 74L246 74L246 74Q246 76 246 80L246 80Q246 83 246 85L246 85L246 90Q246 93 247 96L247 96Q247 98 247 98Q248 99 250 99L250 99L251 99Q252 99 252 99L252 99Q254 99 254 100L254 100Q254 101 251 101L251 101L245 101ZM271 101Q268 101 266 100Q264 99 264 97Q263 94 262 89L262 89Q262 82 262 78L262 78Q262 76 262 72L262 72L262 68Q263 63 263 60Q264 57 265 55Q267 53 270 52L270 52Q271 52 271 52L271 52Q274 52 274 53L274 53Q274 54 273 54Q273 54 272 54L272 54L271 54L271 54Q269 54 269 55Q268 56 267 57L267 57Q265 61 265 64L265 64Q264 69 264 72L264 72L264 78Q264 81 264 83L264 83Q265 84 265 86Q265 87 265 90L265 90Q266 93 266 94Q267 96 268 97L268 97Q269 98 272 98L272 98Q274 98 275 96L275 96Q276 94 276 91L276 91Q276 88 276 86L276 86L276 82Q275 81 274 81L274 81L273 81Q273 81 272 81L272 81Q271 81 271 80L271 80Q271 79 272 79L272 79Q273 79 274 79L274 79L276 79Q277 79 278 80L278 80Q279 80 279 80L279 80Q279 81 278 83L278 83Q278 85 278 86L278 86Q278 89 278 91L278 91Q278 94 278 97L278 97Q275 101 271 101L271 101ZM294 101Q293 101 292 100Q291 100 290 99L290 99Q289 97 288 91Q288 85 287 78L287 78Q287 76 287 75L287 75Q287 57 287 54L287 54L287 53Q289 53 289 57L289 57L289 76Q289 78 289 83L289 83Q290 88 290 91L290 91Q290 99 295 99L295 99Q299 99 300 84L300 84L300 83Q300 63 300 53L300 53L300 53Q300 52 300 52L300 52Q300 51 301 51L301 51Q302 51 302 52L302 52Q302 52 302 54L302 54Q302 60 302 61L302 61L302 62Q302 63 302 65L302 65L302 68L302 68Q302 69 302 69L302 69Q302 71 302 72L302 72Q302 73 302 74L302 74Q301 81 301 86L301 86Q301 92 300 96L300 96Q298 101 294 101L294 101ZM314 101Q313 101 313 99L313 99Q313 99 313 97L313 97Q313 90 314 77L314 77Q314 64 314 59L314 59L314 56L314 54Q314 53 315 53L315 53Q315 53 316 53L316 53L316 54Q316 55 316 56L316 56L316 59L316 67Q316 71 316 75L316 75Q316 75 316 77L316 77L316 78Q316 79 316 81L316 81Q316 83 316 84L316 84L316 87L316 88L316 88Q316 88 316 88L316 88L316 88Q316 89 316 89L316 89L316 96L316 97Q316 98 316 98L316 98Q316 98 316 98L316 98L320 98Q321 98 322 99Q323 99 323 99L323 99L323 99Q323 99 324 99Q324 99 324 100L324 100Q324 101 323 101L323 101Q322 101 317 101L317 101L317 101Q316 101 316 101L316 101Q315 101 314 101L314 101ZM345 101Q344 101 344 100Q344 100 344 99L344 99Q343 94 343 93L343 93L342 90Q341 89 339 89L339 89L336 89Q334 89 334 89L334 89Q333 89 333 89L333 89Q333 89 333 89L333 89L333 91Q333 92 332 96L332 96Q332 98 331 99L331 99Q331 100 330 100L330 100Q330 100 329 100Q329 100 329 99L329 99L329 99L329 99Q330 94 331 89L331 89L332 84L333 79Q333 79 334 74L334 74Q334 72 335 68L335 68Q336 63 336 61L336 61Q336 61 336 58L336 58Q337 56 337 54L337 54Q337 52 337 52L337 52L338 52Q338 52 338 52L338 52Q339 52 340 52L340 52Q340 52 341 52Q341 52 341 53L341 53Q341 56 341 61L341 61Q342 63 342 65L342 65Q343 74 346 99L346 99L346 100Q346 100 345 101L345 101ZM341 88L342 88Q341 77 339 57L339 57L335 76Q334 85 334 87L334 87Q334 87 336 87Q339 88 341 88L341 88ZM366 101L365 101Q364 100 363 96Q362 92 361 87L361 87Q360 83 359 79L359 79Q358 75 358 75L358 75L357 75Q356 75 356 76L356 76Q356 81 356 92L356 92Q357 98 357 99L357 99L356 101L355 101L355 100Q354 67 354 55L354 55Q354 54 354 53Q354 53 354 52L354 52Q355 52 355 52L355 52Q359 52 361 54Q363 56 363 59L363 59L363 64Q363 66 363 68Q362 70 361 72L361 72L360 74Q360 78 363 87Q365 97 365 97L365 97Q365 97 366 98Q366 98 366 98L366 98Q366 99 366 100L366 100Q366 101 366 101L366 101ZM356 73Q358 73 359 72Q360 71 360 68L360 68Q362 64 362 61L362 61Q362 60 361 59Q361 58 361 56L361 56Q360 54 357 54L357 54Q356 54 356 54Q356 55 356 56L356 56Q356 61 356 64L356 64Q356 68 356 73L356 73L356 73Z"/></svg>