<svg xmlns="http://www.w3.org/2000/svg" viewBox="1.2240000000000002 44.63199999999999 300.6000000000001 59.11200000000001"><path d="M19 100Q17 100 17 100Q16 99 16 98L16 98L16 89Q15 88 13 88Q10 87 8 87L8 87Q7 88 7 91L7 91L6 92Q6 93 6 94Q6 96 5 97Q5 98 4 99L4 99Q2 99 1 98L1 98Q2 97 3 91L3 91L5 78Q7 68 8 62Q10 55 11 51L11 51Q13 46 14 46L14 46Q16 46 17 46L17 46Q17 49 18 60L18 60Q19 71 19 75L19 75Q19 79 20 86L20 86Q21 93 21 98L21 98Q21 100 19 100L19 100ZM15 85Q15 85 16 84L16 84Q16 81 16 76L16 76Q14 60 14 57L14 57L14 56Q13 57 12 62Q11 68 10 75Q8 81 8 84L8 84Q11 85 15 85L15 85ZM59 104Q56 104 56 99L56 99L56 95L56 90Q56 86 56 81L56 81Q55 74 55 72L55 72L55 67Q56 65 56 63L56 63Q55 64 53 73L53 73Q51 81 49 89L49 89Q47 96 45 96L45 96Q44 96 43 95Q42 94 42 93L42 93Q42 90 40 79Q37 69 35 63L35 63L35 71Q34 81 34 88L34 88Q34 94 34 97L34 97Q34 97 34 98L34 98L34 99Q34 100 33 101Q33 101 31 101L31 101Q31 101 30 101Q29 100 29 100L29 100Q29 92 31 78L31 78Q32 63 32 56L32 56Q31 55 31 54L31 54Q31 53 32 53Q33 52 34 52L34 52Q35 52 37 59Q40 66 42 75Q45 83 46 87L46 87Q46 85 47 83L47 83L47 82Q49 72 52 63L52 63Q53 58 54 56L54 56Q56 53 57 53L57 53Q58 53 59 53Q59 54 59 55L59 55Q59 60 60 70L60 70Q60 80 60 85L60 85L60 89L60 93Q60 94 60 95L60 95L61 98Q61 98 61 99Q61 99 61 99L61 99Q61 100 61 101L61 101Q61 102 60 103Q60 104 59 104L59 104ZM84 101Q83 101 82 100Q81 100 81 98L81 98Q81 96 80 91L80 91L80 89L73 88Q72 90 72 95L72 95Q71 99 70 100L70 100Q70 100 69 100L69 100Q68 100 67 100Q66 99 66 98L66 98L67 98L67 98Q71 79 74 61L74 61Q74 61 74 60Q74 60 74 58L74 58Q74 56 75 54Q75 53 75 52L75 52L78 52Q79 52 80 52Q80 53 80 54L80 54Q80 59 82 70L82 70Q83 81 83 85L83 85Q83 86 84 88L84 88Q84 89 84 90L84 90Q84 90 85 94L85 94Q85 98 85 99L85 99L85 99Q85 100 84 101L84 101ZM79 87Q79 86 79 84L79 84Q79 78 78 68L78 68L77 60Q74 77 73 86L73 86Q74 86 79 87L79 87ZM97 100L96 99L95 96Q95 95 95 93L95 93L95 91Q95 90 94 75Q94 60 93 56L93 56Q89 56 88 55L88 55Q87 54 87 54L87 54Q87 53 88 53Q89 52 90 52L90 52Q92 52 94 52L94 52Q97 53 99 53L99 53L100 53L101 53Q103 53 103 55L103 55Q103 55 102 56Q101 57 100 57L100 57Q100 57 98 56L98 56L97 56L97 56L97 57Q97 63 98 77L98 77Q99 90 99 98L99 98Q99 98 99 99Q98 100 97 100L97 100ZM114 100Q107 100 107 98L107 98Q107 96 110 96L110 96L110 96L111 96Q112 96 112 96Q112 95 112 94L112 94Q112 93 112 91L112 91Q112 89 111 84L111 84Q111 73 111 68L111 68Q111 66 111 64L111 64L111 60Q111 58 111 57L111 57Q110 57 109 57L109 57Q107 57 107 55L107 55Q107 54 108 54Q109 53 111 53L111 53Q114 52 116 52L116 52Q117 52 118 53Q118 53 118 54L118 54Q118 55 118 55Q117 56 117 56L117 56Q116 56 116 56L116 56L115 56Q115 56 114 56Q114 57 114 57L114 57Q114 64 115 78L115 78Q115 81 115 86L115 86Q116 89 116 93L116 93L116 96Q116 96 117 96L117 96Q120 96 120 98L120 98L120 98L118 100Q118 100 118 100Q118 100 116 100L116 100Q114 100 114 100L114 100ZM136 101Q134 101 133 101Q131 100 130 99L130 99Q125 96 125 83L125 83L125 81L125 78L125 77Q125 74 125 72Q125 69 125 67L125 67Q126 64 126 62Q126 60 127 58L127 58Q128 56 130 55Q131 54 133 53L133 53Q135 52 137 52L137 52Q138 52 139 53Q140 53 140 54L140 54Q140 55 139 55Q139 56 138 56L138 56L135 56Q133 56 132 58Q131 59 131 62L131 62Q130 68 130 71L130 71L130 71L129 78Q129 81 129 85L129 85Q129 88 130 90L130 90Q130 92 131 94L131 94Q132 96 134 97L134 97Q135 97 136 97L136 97Q137 97 138 97L138 97Q139 97 139 97Q140 97 140 98L140 98Q140 101 136 101L136 101ZM164 102Q161 102 159 101L159 101Q158 100 158 99L158 99Q158 98 158 98Q159 97 160 97L160 97Q160 97 162 98L162 98Q163 98 164 98L164 98Q165 98 166 97Q167 96 168 94L168 94Q169 90 169 88L169 88Q169 84 168 81Q167 78 165 74L165 74L164 72Q163 68 162 66Q161 64 160 62L160 62Q159 58 159 55L159 55Q159 53 160 50Q161 48 162 46L162 46Q164 45 167 45L167 45Q168 45 169 45Q171 46 171 47L171 47L170 49Q168 49 167 48L167 48Q166 48 165 49Q164 50 163 52L163 52Q163 53 163 55L163 55Q163 57 164 60Q164 63 166 66L166 66L171 76Q172 78 173 81Q173 85 173 88L173 88Q173 93 171 97L171 97Q170 99 168 100Q166 102 164 102L164 102ZM191 101Q189 101 188 100Q186 99 185 98L185 98Q184 96 183 94Q182 92 182 89L182 89Q181 85 180 78L180 78Q180 76 180 72L180 72L180 68Q180 66 180 64L180 64Q180 59 181 57L181 57Q181 56 181 55L181 55Q181 50 184 48Q187 45 192 45L192 45Q194 45 196 46Q197 47 197 49L197 49Q197 49 197 50Q196 50 195 50L195 50Q194 50 194 50Q193 50 193 49L193 49L192 49L192 49Q189 49 187 50L187 50Q186 51 185 53L185 53Q185 54 185 55Q185 57 185 58L185 58Q185 58 185 60L185 60L185 62L185 65Q185 66 184 67L184 67Q184 69 184 70L184 70L184 72Q184 74 184 79L184 79Q184 83 185 88L185 88Q186 91 188 94L188 94Q189 97 192 97L192 97Q194 97 195 95L195 95Q197 94 198 94L198 94Q199 94 200 95L200 95Q200 98 198 99L198 99Q196 101 194 101L194 101Q192 101 191 101L191 101ZM221 101Q220 101 219 99L219 99Q219 98 219 97L219 97Q219 94 219 89L219 89Q220 85 220 82L220 82Q220 78 220 70L220 70L220 59Q220 58 220 57L220 57L219 55L219 55Q219 53 220 52Q220 51 222 51L222 51Q224 51 226 52Q228 54 229 55L229 55Q231 59 231 64L231 64Q231 68 231 70Q230 73 228 75L228 75Q230 77 231 80Q232 83 232 87L232 87Q232 92 230 95L230 95Q228 99 225 100L225 100Q223 101 221 101L221 101ZM223 73Q227 73 227 64L227 64Q227 55 224 55L224 55Q223 56 223 62L223 62L223 73ZM223 97Q225 97 227 94Q228 92 228 89L228 89Q228 86 228 84L228 84Q227 82 227 81Q226 80 226 79L226 79Q225 78 223 77L223 77Q223 81 223 88L223 88Q223 89 223 91L223 91L223 93Q223 94 223 94L223 94L223 94L223 97ZM248 101Q246 101 245 100Q243 99 242 97L242 97Q240 93 239 87L239 87Q239 83 239 78L239 78Q239 77 239 77L239 77L239 75Q239 75 239 75L239 75L239 74L239 69Q239 66 239 61L239 61Q240 58 241 54L241 54Q241 53 242 52Q243 52 244 52L244 52Q247 52 249 53Q252 54 253 56L253 56Q255 57 256 60Q257 63 257 66L257 66Q257 69 257 72L257 72L257 72Q257 75 258 77L258 77L258 81Q258 101 248 101L248 101ZM248 98Q249 98 250 97Q251 96 252 94L252 94Q253 91 253 87L253 87Q254 83 254 80L254 80Q254 77 253 72L253 72Q253 66 253 63L253 63L253 62Q253 59 251 57Q249 55 247 55L247 55Q244 55 244 58L244 58Q243 60 243 64L243 64Q243 65 243 66L243 66L243 68L243 71Q243 73 243 75L243 75Q243 79 243 83L243 83Q243 88 244 93L244 93Q245 98 248 98L248 98ZM277 101Q274 100 270 100L270 100Q269 101 268 101L268 101Q267 101 266 100Q266 99 266 99L266 99Q266 93 266 83L266 83Q267 72 267 66L267 66L267 66Q266 61 266 59L266 59Q266 52 269 52L269 52Q269 52 270 53Q270 53 270 54L270 54Q270 55 270 57L270 57Q270 59 270 60L270 60Q270 64 270 68L270 68Q270 72 270 77L270 77Q270 78 270 80L270 80L270 81L270 87Q269 89 269 92L269 92Q269 97 272 97L272 97Q272 97 272 97Q273 97 273 97L273 97Q274 97 275 97L275 97Q279 97 279 99L279 99Q279 100 278 101Q277 101 277 101L277 101ZM287 100Q285 100 285 91L285 91L285 80Q285 75 285 68L285 68Q285 66 285 61L285 61Q285 56 285 55L285 55Q285 54 285 53Q286 52 287 52L287 52Q290 52 292 54Q294 55 296 57L296 57Q300 61 301 66L301 66Q302 69 302 72L302 72Q302 72 302 73L302 73L302 75L302 79Q302 84 301 86L301 86Q301 90 300 93L300 93Q298 96 296 98L296 98Q294 99 292 100L292 100L287 100ZM290 97Q292 97 293 96Q294 95 295 94L295 94Q296 93 296 91Q297 89 297 88L297 88Q298 84 298 81L298 81Q298 80 298 78L298 78Q298 57 290 56L290 56Q289 59 289 63L289 63Q289 68 290 79L290 79Q290 89 290 95L290 95L290 97Z"/></svg>