<svg xmlns="http://www.w3.org/2000/svg" viewBox="0.15 -8.59 22.36 8.67"><path d="M1.82 0L0.15 0L0.98-8.59L3.89-8.59L4.71 0L3.08 0L2.96-1.39L1.92-1.39L1.82 0ZM2.37-7.13L2.05-2.76L2.83-2.76L2.45-7.13L2.37-7.13ZM5.20 0L5.20-7.32L6.95-7.32L6.95-6.39Q7.06-6.84 7.33-7.12Q7.60-7.40 8.05-7.40L8.05-7.40Q8.79-7.40 9.14-6.95Q9.50-6.49 9.50-5.65L9.50-5.65L9.50 0L7.78 0L7.78-5.47Q7.78-5.71 7.69-5.88Q7.59-6.05 7.39-6.05L7.39-6.05Q7.12-6.05 7.04-5.80Q6.95-5.56 6.95-5.15L6.95-5.15L6.95 0L5.20 0ZM11.70 0.08Q11.01 0.08 10.75-0.21Q10.49-0.50 10.49-1.14L10.49-1.14L10.49-5.71L10-5.71L10-7.04L10.49-7.04L10.49-8.59L12.19-8.59L12.19-7.04L12.69-7.04L12.69-5.71L12.19-5.71L12.19-1.60Q12.19-1.41 12.22-1.32Q12.25-1.23 12.38-1.23L12.38-1.23Q12.48-1.23 12.57-1.24Q12.66-1.25 12.69-1.25L12.69-1.25L12.69-0.05Q12.54-0.01 12.25 0.04Q11.97 0.08 11.70 0.08L11.70 0.08ZM15.37 0.08Q13.18 0.08 13.18-2.19L13.18-2.19L13.18-5.13Q13.18-6.17 13.77-6.79Q14.35-7.40 15.37-7.40L15.37-7.40Q16.39-7.40 16.98-6.79Q17.56-6.17 17.56-5.13L17.56-5.13L17.56-2.19Q17.56 0.08 15.37 0.08L15.37 0.08ZM15.37-1.27Q15.58-1.27 15.68-1.42Q15.78-1.57 15.78-1.83L15.78-1.83L15.78-5.41Q15.78-6.05 15.37-6.05L15.37-6.05Q14.96-6.05 14.96-5.41L14.96-5.41L14.96-1.83Q14.96-1.57 15.06-1.42Q15.16-1.27 15.37-1.27L15.37-1.27ZM18.21 0L18.21-7.32L19.96-7.32L19.96-6.39Q20.07-6.84 20.34-7.12Q20.61-7.40 21.06-7.40L21.06-7.40Q21.80-7.40 22.16-6.95Q22.51-6.49 22.51-5.65L22.51-5.65L22.51 0L20.79 0L20.79-5.47Q20.79-5.71 20.70-5.88Q20.60-6.05 20.40-6.05L20.40-6.05Q20.13-6.05 20.04-5.80Q19.96-5.56 19.96-5.15L19.96-5.15L19.96 0L18.21 0Z"/></svg>