<svg xmlns="http://www.w3.org/2000/svg" viewBox="-0.33 -7.23 58.360000000000014 7.3500000000000005"><path d="M-0.33 0L2.81-6.86L4.05-6.86L5.27 0L4.23 0L3.98-1.47L1.33-1.47L0.67 0L-0.33 0ZM1.74-2.38L3.84-2.38L3.39-5.06Q3.36-5.26 3.34-5.58Q3.32-5.90 3.32-6L3.32-6L3.28-6Q3.25-5.90 3.14-5.58Q3.03-5.25 2.94-5.06L2.94-5.06L1.74-2.38ZM5.79 0L6.53-5.26L7.27-5.26L7.27-4.43Q7.48-4.86 7.71-5.12Q7.95-5.38 8.33-5.38L8.33-5.38Q8.49-5.38 8.60-5.34Q8.71-5.31 8.74-5.30L8.74-5.30L8.61-4.35L8.31-4.35Q7.89-4.35 7.57-4.01Q7.24-3.67 7.15-3.01L7.15-3.01L6.73 0L5.79 0ZM10.44 0.12Q9.66 0.12 9.24-0.35Q8.82-0.82 8.82-1.77L8.82-1.77Q8.82-3.25 9.30-4.32Q9.78-5.38 10.98-5.38L10.98-5.38Q11.76-5.38 12.14-4.91Q12.52-4.44 12.52-3.47L12.52-3.47L12.52-3.30L11.56-3.30L11.56-3.46Q11.56-4.01 11.42-4.29Q11.27-4.56 10.95-4.56L10.95-4.56Q10.49-4.56 10.23-4.04Q9.97-3.53 9.88-2.91Q9.78-2.29 9.78-1.88L9.78-1.88Q9.78-0.70 10.46-0.70L10.46-0.70Q10.83-0.70 11.09-1.05Q11.34-1.41 11.42-1.93L11.42-1.93L12.35-1.93Q12.22-1.04 11.74-0.46Q11.26 0.12 10.44 0.12L10.44 0.12ZM12.96 0L13.97-7.23L14.91-7.23L14.55-4.67Q15.04-5.38 15.85-5.38L15.85-5.38Q16.46-5.38 16.75-5.04Q17.03-4.70 17.03-4.15L17.03-4.15Q17.03-3.88 16.63-1.08L16.63-1.08L16.48 0L15.54 0Q16.07-3.61 16.07-3.89L16.07-3.89Q16.07-4.22 15.92-4.38Q15.77-4.54 15.47-4.54L15.47-4.54Q15.03-4.54 14.72-4.13Q14.41-3.71 14.31-3.01L14.31-3.01L13.89 0L12.96 0ZM18.49-6.22L18.62-7.23L19.56-7.23L19.42-6.22L18.49-6.22ZM17.62 0L18.35-5.26L19.29-5.26L18.55 0L17.62 0ZM20.68 0L19.86-5.26L20.83-5.26L21.21-2.61L21.27-2.05L21.37-1.26L21.41-1.26L21.55-1.62Q21.75-2.16 21.93-2.60L21.93-2.60L23.04-5.26L24.03-5.26L21.67 0L20.68 0ZM25.72 0.12Q24 0.12 24-1.77L24-1.77Q24-2.63 24.20-3.45Q24.40-4.26 24.91-4.82Q25.42-5.38 26.29-5.38L26.29-5.38Q28.02-5.38 28.02-3.47L28.02-3.47Q28.02-2.61 27.82-1.80Q27.62-0.99 27.11-0.43Q26.59 0.12 25.72 0.12L25.72 0.12ZM25.74-0.70Q26.27-0.70 26.57-1.22Q26.86-1.73 26.95-2.35Q27.05-2.98 27.05-3.46L27.05-3.46Q27.05-4.56 26.28-4.56L26.28-4.56Q25.75-4.56 25.45-4.05Q25.16-3.55 25.07-2.94Q24.97-2.32 24.97-1.85L24.97-1.85Q24.97-1.27 25.16-0.98Q25.34-0.70 25.74-0.70L25.74-0.70ZM30.95 0L31.92-6.86L32.77-6.86L34.60-2.72Q34.69-2.49 34.77-2.24Q34.86-1.99 34.89-1.89L34.89-1.89L34.92-1.90Q34.93-2 34.95-2.25Q34.98-2.50 35.01-2.70L35.01-2.70L35.59-6.86L36.49-6.86L35.52 0L34.69 0L32.85-4.18Q32.78-4.34 32.68-4.63Q32.58-4.92 32.55-5.02L32.55-5.02L32.52-5Q32.51-4.91 32.49-4.63Q32.47-4.35 32.44-4.20L32.44-4.20L31.85 0L30.95 0ZM38.21 0.12Q37.59 0.12 37.23-0.36Q36.86-0.85 36.86-1.80L36.86-1.80Q36.86-2.97 37.15-3.77Q37.44-4.58 37.90-4.98Q38.36-5.38 38.87-5.38L38.87-5.38Q39.69-5.38 39.97-4.56L39.97-4.56L40.15-5.26L40.89-5.26Q40.79-4.61 40.54-2.83Q40.28-1.06 40.28-0.98L40.28-0.98Q40.28-0.70 40.52-0.70L40.52-0.70L40.79-0.70L40.70-0.04Q40.45 0.12 40.13 0.12L40.13 0.12Q39.80 0.12 39.60-0.08Q39.40-0.28 39.38-0.67L39.38-0.67Q38.88 0.12 38.21 0.12L38.21 0.12ZM38.48-0.70Q38.90-0.70 39.17-1.19Q39.44-1.68 39.55-2.33Q39.67-2.99 39.67-3.48L39.67-3.48Q39.67-4.56 39.03-4.56L39.03-4.56Q38.57-4.56 38.30-4.07Q38.03-3.58 37.92-2.94Q37.81-2.31 37.81-1.80L37.81-1.80Q37.81-0.70 38.48-0.70L38.48-0.70ZM41.30 0L42.04-5.26L42.78-5.26L42.78-4.43Q42.99-4.86 43.23-5.12Q43.46-5.38 43.84-5.38L43.84-5.38Q44.00-5.38 44.11-5.34Q44.22-5.31 44.25-5.30L44.25-5.30L44.12-4.35L43.82-4.35Q43.40-4.35 43.08-4.01Q42.75-3.67 42.66-3.01L42.66-3.01L42.24 0L41.30 0ZM44.18 0L44.92-5.26L45.66-5.26L45.66-4.43Q45.87-4.86 46.11-5.12Q46.34-5.38 46.72-5.38L46.72-5.38Q46.88-5.38 46.99-5.34Q47.10-5.31 47.13-5.30L47.13-5.30L47.00-4.35L46.70-4.35Q46.28-4.35 45.96-4.01Q45.63-3.67 45.54-3.01L45.54-3.01L45.12 0L44.18 0ZM48.94 0.12Q47.22 0.12 47.22-1.77L47.22-1.77Q47.22-2.63 47.42-3.45Q47.62-4.26 48.13-4.82Q48.64-5.38 49.51-5.38L49.51-5.38Q51.24-5.38 51.24-3.47L51.24-3.47Q51.24-2.61 51.04-1.80Q50.84-0.99 50.33-0.43Q49.81 0.12 48.94 0.12L48.94 0.12ZM48.96-0.70Q49.49-0.70 49.79-1.22Q50.08-1.73 50.18-2.35Q50.27-2.98 50.27-3.46L50.27-3.46Q50.27-4.56 49.50-4.56L49.50-4.56Q48.97-4.56 48.68-4.05Q48.38-3.55 48.29-2.94Q48.19-2.32 48.19-1.85L48.19-1.85Q48.19-1.27 48.38-0.98Q48.56-0.70 48.96-0.70L48.96-0.70ZM52.58 0L52.01-5.26L52.90-5.26L53.17-2.55Q53.24-1.83 53.26-1.07L53.26-1.07L53.30-1.07Q53.32-1.21 53.42-1.69Q53.52-2.16 53.64-2.55L53.64-2.55L54.52-5.26L55.57-5.26L55.70-2.54Q55.72-2.30 55.72-1.07L55.72-1.07L55.76-1.07Q55.79-1.22 55.91-1.69Q56.03-2.16 56.17-2.54L56.17-2.54L57.16-5.26L58.03-5.26L56.01 0L55.01 0L54.86-3.13Q54.85-3.50 54.86-3.81Q54.87-4.12 54.87-4.23L54.87-4.23L54.82-4.23Q54.80-4.09 54.72-3.64Q54.63-3.19 54.52-2.85L54.52-2.85L53.58 0L52.58 0Z"/></svg>