<svg xmlns="http://www.w3.org/2000/svg" viewBox="-1.8720000000000003 47.943999999999996 731.8080000000002 52.92000000000001"><path d="M-2 100L21 51L31 51L40 100L31 100L29 90L12 90L7 100L-2 100ZM15 82L28 82L26 69Q25 66 25 63Q25 60 25 59L25 59L25 59Q24 60 23 63Q22 66 21 69L21 69L15 82ZM44 100L50 62L57 62L57 68Q58 65 60 63Q62 61 64 61L64 61Q66 61 67 62Q68 62 68 62L68 62L67 70L64 70Q61 70 59 72Q56 74 56 79L56 79L53 100L44 100ZM80 101Q74 101 71 98Q68 94 68 88L68 88Q68 77 72 69Q76 61 85 61L85 61Q91 61 94 65Q97 68 97 75L97 75L97 76L88 76L88 75Q88 72 87 70Q86 69 84 69L84 69Q82 69 80 72Q78 76 78 80Q77 84 77 86L77 86Q77 90 78 92Q79 94 81 94L81 94Q83 94 85 91Q86 89 87 86L87 86L95 86Q94 93 90 97Q87 101 80 101L80 101ZM100 100L107 48L116 48L113 66Q117 61 123 61L123 61Q127 61 129 64Q132 66 132 71L132 71Q132 72 132 74Q131 75 131 79L131 79L128 100L119 100Q123 75 123 74L123 74Q123 71 122 70Q121 69 119 69L119 69Q116 69 114 71Q112 73 112 77L112 77L109 100L100 100ZM142 56L143 48L152 48L151 56L142 56ZM136 100L141 62L150 62L145 100L136 100ZM160 100L154 62L163 62L165 78Q166 80 166 84Q166 88 166 90L166 90L167 90Q167 88 168 84Q170 80 171 78L171 78L178 62L186 62L169 100L160 100ZM200 101Q186 101 186 87L186 87Q186 77 190 69Q194 61 204 61L204 61Q217 61 217 75L217 75Q217 86 213 93Q209 101 200 101L200 101ZM200 94Q205 94 207 87Q208 81 208 75L208 75Q208 69 204 69L204 69Q199 69 197 75Q195 81 195 87L195 87Q195 90 196 92Q197 94 200 94L200 94ZM238 100L245 51L253 51L265 78Q265 79 266 80Q266 82 266 82L266 82L266 82Q266 82 267 80Q267 79 267 78L267 78L271 51L279 51L272 100L264 100L252 73Q252 72 252 70Q251 69 251 68L251 68L251 68Q251 69 250 70Q250 71 250 72L250 72L246 100L238 100ZM291 101Q286 101 283 97Q280 94 280 87L280 87Q280 79 282 73Q284 67 288 64Q291 61 295 61L295 61Q301 61 303 67L303 67L304 62L311 62Q310 67 308 79Q306 91 306 92L306 92Q306 94 308 94L308 94L309 94L309 100Q307 101 304 101L304 101Q302 101 300 100Q299 98 298 96L298 96Q297 98 295 100Q293 101 291 101L291 101ZM293 93Q296 93 297 90Q299 87 300 83Q300 79 300 76L300 76Q300 72 299 70Q299 69 296 69L296 69Q294 69 292 72Q290 75 290 79Q289 83 289 86L289 86Q289 93 293 93L293 93ZM313 100L319 62L326 62L326 68Q327 65 329 63Q331 61 333 61L333 61Q335 61 336 62Q337 62 337 62L337 62L336 70L333 70Q330 70 328 72Q325 74 325 79L325 79L322 100L313 100ZM336 100L342 62L349 62L349 68Q350 65 352 63Q354 61 356 61L356 61Q358 61 359 62Q360 62 360 62L360 62L359 70L356 70Q353 70 351 72Q348 74 348 79L348 79L345 100L336 100ZM374 101Q360 101 360 87L360 87Q360 77 364 69Q368 61 378 61L378 61Q391 61 391 75L391 75Q391 86 387 93Q383 101 374 101L374 101ZM374 94Q379 94 381 87Q382 81 382 75L382 75Q382 69 377 69L377 69Q372 69 371 75Q369 81 369 87L369 87Q369 90 370 92Q371 94 374 94L374 94ZM401 100L397 62L405 62L406 78Q406 81 407 85Q407 89 407 90L407 90L407 90Q407 90 408 86Q409 81 410 78L410 78L415 62L424 62L425 78Q425 80 425 84Q425 89 425 90L425 90L426 90Q426 89 427 85Q428 81 429 78L429 78L434 62L442 62L428 100L419 100L418 82Q418 79 418 76Q418 73 418 72L418 72L417 72Q417 73 417 76Q416 79 415 82L415 82L409 100L401 100ZM475 101Q468 101 466 95L466 95L464 100L458 100L465 48L473 48L471 66Q473 64 475 62Q477 61 480 61L480 61Q484 61 487 65Q490 68 490 75L490 75Q490 81 488 87Q487 92 484 97Q480 101 475 101L475 101ZM473 93Q478 93 479 87Q481 82 481 76L481 76Q481 72 480 71Q479 69 476 69L476 69Q473 69 471 72Q470 75 469 79Q468 83 468 86L468 86Q468 93 473 93L473 93ZM508 101Q495 101 495 87L495 87Q495 77 499 69Q503 61 512 61L512 61Q526 61 526 75L526 75Q526 86 522 93Q518 101 508 101L508 101ZM508 94Q513 94 515 87Q517 81 517 75L517 75Q517 69 512 69L512 69Q507 69 505 75Q504 81 504 87L504 87Q504 90 505 92Q506 94 508 94L508 94ZM530 100L537 48L546 48L538 100L530 100ZM557 101Q553 101 550 97Q547 94 547 87L547 87Q547 79 549 73Q551 67 555 64Q558 61 562 61L562 61Q568 61 570 66L570 66L573 48L581 48L574 100L567 100L567 95Q563 101 557 101L557 101ZM560 93Q564 93 565 90Q567 87 568 83Q569 79 569 76L569 76Q569 72 567 71Q566 69 564 69L564 69Q559 69 558 75Q556 81 556 87L556 87Q556 90 557 91Q558 93 560 93L560 93ZM605 56L606 48L615 48L613 56L605 56ZM599 100L604 62L613 62L607 100L599 100ZM624 101Q620 101 618 99Q617 97 617 93L617 93Q617 92 618 82Q619 73 620 69L620 69L616 69L617 62L621 62L622 51L631 51L629 62L635 62L634 69L628 69Q628 73 627 82Q625 91 625 91L625 91Q625 94 628 94L628 94L630 94L629 100Q628 100 627 101Q625 101 624 101L624 101ZM645 101Q640 101 637 97Q635 94 635 87L635 87Q635 79 637 73Q639 67 642 64Q645 61 649 61L649 61Q655 61 657 67L657 67L658 62L665 62Q664 67 663 79Q661 91 661 92L661 92Q661 94 662 94L662 94L664 94L663 100Q661 101 659 101L659 101Q656 101 655 100Q653 98 653 96L653 96Q651 98 649 100Q647 101 645 101L645 101ZM647 93Q650 93 652 90Q653 87 654 83Q655 79 655 76L655 76Q655 72 654 70Q653 69 651 69L651 69Q648 69 646 72Q645 75 644 79Q643 83 643 86L643 86Q643 93 647 93L647 93ZM668 100L675 48L683 48L676 100L668 100ZM690 56L691 48L700 48L699 56L690 56ZM684 100L689 62L698 62L693 100L684 100ZM713 101Q707 101 704 98Q701 94 701 88L701 88Q701 77 705 69Q709 61 718 61L718 61Q724 61 727 65Q730 68 730 75L730 75L730 76L721 76L721 75Q721 72 720 70Q720 69 718 69L718 69Q715 69 713 72Q712 76 711 80Q710 84 710 86L710 86Q710 90 711 92Q712 94 714 94L714 94Q716 94 718 91Q719 89 720 86L720 86L729 86Q727 93 724 97Q720 101 713 101L713 101Z"/></svg>