<svg xmlns="http://www.w3.org/2000/svg" viewBox="0 47.943999999999996 576.72 52.92000000000001"><path d="M0 100L15.91 50.61L26.64 50.61L42.55 100L33.12 100L30.10 90.28L11.88 90.28L8.93 100L0 100ZM14.40 82.07L27.58 82.07L22.61 65.58Q22.10 64.00 21.67 61.77Q21.24 59.54 21.17 58.89L21.17 58.89L20.88 58.89Q20.74 59.61 20.30 61.88Q19.87 64.14 19.44 65.58L19.44 65.58L14.40 82.07ZM46.58 100L46.58 62.13L53.78 62.13L54.79 67.67L55.22 67.67Q56.16 64.79 57.67 63.03Q59.18 61.26 61.78 61.26L61.78 61.26Q63.14 61.26 64.15 61.52Q65.16 61.77 65.38 61.84L65.38 61.84L65.38 70.19L62.28 70.19Q59.11 70.19 57.17 72.21Q55.22 74.22 55.22 78.90L55.22 78.90L55.22 100L46.58 100ZM82.87 100.86Q75.46 100.86 72.00 96.08Q68.54 91.29 68.54 81.06L68.54 81.06Q68.54 70.91 72.04 66.09Q75.53 61.26 82.58 61.26L82.58 61.26Q88.85 61.26 92.34 64.97Q95.83 68.68 95.83 76.38L95.83 76.38L86.98 76.38Q86.98 68.54 82.58 68.54L82.58 68.54Q79.92 68.54 78.73 71.31Q77.54 74.08 77.54 79.70L77.54 79.70L77.54 82.43Q77.54 88.05 78.80 90.82Q80.06 93.59 82.87 93.59L82.87 93.59Q85.18 93.59 86.22 91.65Q87.26 89.70 87.26 85.74L87.26 85.74L95.83 85.74Q95.83 93.45 92.45 97.16Q89.06 100.86 82.87 100.86L82.87 100.86ZM102.38 100L102.38 47.94L111.02 47.94L111.02 66.16L111.31 66.16Q112.75 64.07 115.06 62.67Q117.36 61.26 120.46 61.26L120.46 61.26Q125.14 61.26 127.84 64.18Q130.54 67.10 130.54 73.43L130.54 73.43L130.54 100L121.90 100L121.90 75.81Q121.90 72.28 120.64 70.70Q119.38 69.11 116.93 69.11L116.93 69.11Q114.41 69.11 112.72 71.31Q111.02 73.50 111.02 76.67L111.02 76.67L111.02 100L102.38 100ZM138.38 55.79L138.38 47.94L147.02 47.94L147.02 55.79L138.38 55.79ZM138.38 100L138.38 62.13L147.02 62.13L147.02 100L138.38 100ZM162.94 100L151.20 62.13L160.27 62.13L165.17 78.40Q165.74 80.20 166.54 84.30Q167.33 88.41 167.54 89.78L167.54 89.78L167.83 89.78Q168.05 88.48 168.70 84.48Q169.34 80.49 169.99 78.40L169.99 78.40L174.82 62.13L183.46 62.13L171.72 100L162.94 100ZM201.82 100.86Q194.18 100.86 190.44 96.04Q186.70 91.22 186.70 81.06L186.70 81.06Q186.70 70.91 190.44 66.09Q194.18 61.26 201.82 61.26L201.82 61.26Q209.45 61.26 213.19 66.09Q216.94 70.91 216.94 81.06L216.94 81.06Q216.94 91.22 213.19 96.04Q209.45 100.86 201.82 100.86L201.82 100.86ZM201.82 93.59Q205.06 93.59 206.50 90.82Q207.94 88.05 207.94 82.43L207.94 82.43L207.94 79.70Q207.94 74.08 206.50 71.31Q205.06 68.54 201.82 68.54L201.82 68.54Q198.58 68.54 197.14 71.31Q195.70 74.08 195.70 79.70L195.70 79.70L195.70 82.43Q195.70 88.05 197.14 90.82Q198.58 93.59 201.82 93.59L201.82 93.59ZM240.55 100L240.55 50.61L248.69 50.61L263.95 77.82Q264.46 78.62 265.21 80.24Q265.97 81.86 266.18 82.43L266.18 82.43L266.40 82.22L266.33 78.11L266.33 50.61L274.54 50.61L274.54 100L266.33 100L251.06 72.78Q250.49 71.63 249.80 70.19Q249.12 68.75 248.83 68.18L248.83 68.18L248.54 68.39Q248.54 68.82 248.62 70.05Q248.69 71.27 248.69 72.50L248.69 72.50L248.69 100L240.55 100ZM289.37 100.86Q285.84 100.86 282.85 98.45Q279.86 96.04 279.86 90.21L279.86 90.21Q279.86 83.01 284.76 79.98Q289.66 76.96 298.66 76.96L298.66 76.96L298.66 73Q298.66 70.77 297.83 69.54Q297 68.32 294.70 68.32L294.70 68.32Q292.32 68.32 291.24 69.51Q290.16 70.70 290.16 72.28L290.16 72.28L290.16 73.36L281.74 73.36Q281.66 72.93 281.66 71.78L281.66 71.78Q281.66 67.02 285.16 64.14Q288.65 61.26 294.48 61.26L294.48 61.26Q300.96 61.26 304.16 64.14Q307.37 67.02 307.37 72.42L307.37 72.42L307.37 91.07Q307.37 92.37 307.94 92.98Q308.52 93.59 309.38 93.59L309.38 93.59L311.11 93.59L311.11 99.71Q308.95 100.86 306 100.86L306 100.86Q303.48 100.86 301.72 99.53Q299.95 98.20 299.30 95.90L299.30 95.90L298.94 95.90Q297.14 98.42 295.02 99.64Q292.90 100.86 289.37 100.86L289.37 100.86ZM292.97 93.66Q295.85 93.66 297.25 91.36Q298.66 89.06 298.66 85.38L298.66 85.38L298.66 83.22Q294.26 83.22 291.49 84.63Q288.72 86.03 288.72 89.42L288.72 89.42Q288.72 91.43 289.76 92.55Q290.81 93.66 292.97 93.66L292.97 93.66ZM315.65 100L315.65 62.13L322.85 62.13L323.86 67.67L324.29 67.67Q325.22 64.79 326.74 63.03Q328.25 61.26 330.84 61.26L330.84 61.26Q332.21 61.26 333.22 61.52Q334.22 61.77 334.44 61.84L334.44 61.84L334.44 70.19L331.34 70.19Q328.18 70.19 326.23 72.21Q324.29 74.22 324.29 78.90L324.29 78.90L324.29 100L315.65 100ZM338.62 100L338.62 62.13L345.82 62.13L346.82 67.67L347.26 67.67Q348.19 64.79 349.70 63.03Q351.22 61.26 353.81 61.26L353.81 61.26Q355.18 61.26 356.18 61.52Q357.19 61.77 357.41 61.84L357.41 61.84L357.41 70.19L354.31 70.19Q351.14 70.19 349.20 72.21Q347.26 74.22 347.26 78.90L347.26 78.90L347.26 100L338.62 100ZM375.70 100.86Q368.06 100.86 364.32 96.04Q360.58 91.22 360.58 81.06L360.58 81.06Q360.58 70.91 364.32 66.09Q368.06 61.26 375.70 61.26L375.70 61.26Q383.33 61.26 387.07 66.09Q390.82 70.91 390.82 81.06L390.82 81.06Q390.82 91.22 387.07 96.04Q383.33 100.86 375.70 100.86L375.70 100.86ZM375.70 93.59Q378.94 93.59 380.38 90.82Q381.82 88.05 381.82 82.43L381.82 82.43L381.82 79.70Q381.82 74.08 380.38 71.31Q378.94 68.54 375.70 68.54L375.70 68.54Q372.46 68.54 371.02 71.31Q369.58 74.08 369.58 79.70L369.58 79.70L369.58 82.43Q369.58 88.05 371.02 90.82Q372.46 93.59 375.70 93.59L375.70 93.59ZM402.98 100L393.77 62.13L402.41 62.13L406.01 77.68Q406.73 80.85 407.12 84.81Q407.52 88.77 407.52 89.56L407.52 89.56L407.81 89.56Q407.88 88.48 408.31 84.81Q408.74 81.14 409.39 77.75L409.39 77.75L412.63 62.13L421.27 62.13L424.51 77.82Q425.02 80.13 425.48 84.20Q425.95 88.26 426.10 89.56L426.10 89.56L426.38 89.56Q426.53 88.34 427.14 84.41Q427.75 80.49 428.26 77.82L428.26 77.82L431.57 62.13L439.56 62.13L430.42 100L421.70 100L417.96 81.93Q417.46 79.55 417.20 76.53Q416.95 73.50 416.88 72.57L416.88 72.57L416.45 72.57Q416.38 73.50 416.12 76.46Q415.87 79.41 415.37 81.86L415.37 81.86L411.70 100L402.98 100ZM477.00 100.86Q474.26 100.86 472.03 99.46Q469.80 98.06 468.43 95.32L468.43 95.32L468.07 95.32L467.21 100L460.01 100L460.01 47.94L468.65 47.94L468.65 66.02L469.01 66.02Q470.02 63.78 472.28 62.52Q474.55 61.26 477.43 61.26L477.43 61.26Q482.76 61.26 485.96 66.20Q489.17 71.13 489.17 80.99L489.17 80.99Q489.17 91 485.96 95.93Q482.76 100.86 477.00 100.86L477.00 100.86ZM474.41 93.02Q477.43 93.02 478.80 90.39Q480.17 87.76 480.17 82.43L480.17 82.43L480.17 79.70Q480.17 74.37 478.80 71.74Q477.43 69.11 474.41 69.11L474.41 69.11Q471.38 69.11 470.02 71.81Q468.65 74.51 468.65 79.84L468.65 79.84L468.65 82.43Q468.65 87.76 470.02 90.39Q471.38 93.02 474.41 93.02L474.41 93.02ZM510.19 100.86Q502.56 100.86 498.82 96.04Q495.07 91.22 495.07 81.06L495.07 81.06Q495.07 70.91 498.82 66.09Q502.56 61.26 510.19 61.26L510.19 61.26Q517.82 61.26 521.57 66.09Q525.31 70.91 525.31 81.06L525.31 81.06Q525.31 91.22 521.57 96.04Q517.82 100.86 510.19 100.86L510.19 100.86ZM510.19 93.59Q513.43 93.59 514.87 90.82Q516.31 88.05 516.31 82.43L516.31 82.43L516.31 79.70Q516.31 74.08 514.87 71.31Q513.43 68.54 510.19 68.54L510.19 68.54Q506.95 68.54 505.51 71.31Q504.07 74.08 504.07 79.70L504.07 79.70L504.07 82.43Q504.07 88.05 505.51 90.82Q506.95 93.59 510.19 93.59L510.19 93.59ZM532.08 100L532.08 47.94L540.72 47.94L540.72 100L532.08 100ZM559.73 100.86Q553.97 100.86 550.76 95.93Q547.56 91 547.56 80.99L547.56 80.99Q547.56 71.13 550.76 66.20Q553.97 61.26 559.30 61.26L559.30 61.26Q562.18 61.26 564.44 62.52Q566.71 63.78 567.72 66.02L567.72 66.02L568.08 66.02L568.08 47.94L576.72 47.94L576.72 100L569.52 100L568.66 95.32L568.30 95.32Q566.93 98.06 564.70 99.46Q562.46 100.86 559.73 100.86L559.73 100.86ZM562.32 93.02Q565.34 93.02 566.71 90.39Q568.08 87.76 568.08 82.43L568.08 82.43L568.08 79.84Q568.08 74.51 566.71 71.81Q565.34 69.11 562.32 69.11L562.32 69.11Q559.30 69.11 557.93 71.74Q556.56 74.37 556.56 79.70L556.56 79.70L556.56 82.43Q556.56 87.76 557.93 90.39Q559.30 93.02 562.32 93.02L562.32 93.02Z"/></svg>