<svg xmlns="http://www.w3.org/2000/svg" viewBox="-0.26 -7.23 61.669999999999995 7.3500000000000005"><path d="M-0.26 0L2.88-6.86L4.35-6.86L5.58 0L4.28 0L4.06-1.35L1.61-1.35L1.02 0L-0.26 0ZM2.12-2.49L3.87-2.49L3.57-4.37Q3.52-4.70 3.49-5.13Q3.46-5.57 3.45-5.70L3.45-5.70L3.41-5.70Q3.37-5.56 3.23-5.12Q3.09-4.68 2.95-4.37L2.95-4.37L2.12-2.49ZM6.15 0L6.88-5.26L7.85-5.26L7.85-4.46Q8.05-4.87 8.30-5.13Q8.56-5.38 8.93-5.38L8.93-5.38Q9.12-5.38 9.25-5.34Q9.38-5.31 9.41-5.30L9.41-5.30L9.26-4.14L8.88-4.14Q8.44-4.14 8.13-3.86Q7.83-3.58 7.74-2.93L7.74-2.93L7.33 0L6.15 0ZM11.14 0.12Q10.30 0.12 9.88-0.34Q9.47-0.79 9.47-1.72L9.47-1.72Q9.47-3.25 9.98-4.32Q10.49-5.38 11.80-5.38L11.80-5.38Q12.65-5.38 13.04-4.91Q13.43-4.43 13.43-3.43L13.43-3.43L13.43-3.28L12.21-3.28L12.21-3.43Q12.21-3.91 12.10-4.14Q11.99-4.37 11.71-4.37L11.71-4.37Q11.32-4.37 11.09-3.89Q10.87-3.40 10.78-2.81Q10.69-2.23 10.69-1.91L10.69-1.91Q10.69-1.38 10.80-1.14Q10.92-0.89 11.23-0.89L11.23-0.89Q11.53-0.89 11.74-1.19Q11.95-1.48 12.05-1.95L12.05-1.95L13.24-1.95Q13.03-1 12.54-0.44Q12.06 0.12 11.14 0.12L11.14 0.12ZM13.90 0L14.90-7.23L16.09-7.23L15.73-4.71Q16.28-5.38 17.03-5.38L17.03-5.38Q17.65-5.38 17.98-5.03Q18.30-4.67 18.30-4.03L18.30-4.03Q18.30-3.91 18.27-3.68Q18.24-3.44 18.17-2.93L18.17-2.93L17.77 0L16.59 0Q17.08-3.53 17.08-3.63L17.08-3.63Q17.08-3.98 16.95-4.13Q16.81-4.29 16.50-4.29L16.50-4.29Q16.14-4.29 15.87-3.99Q15.60-3.69 15.53-3.16L15.53-3.16L15.09 0L13.90 0ZM19.76-6.14L19.91-7.23L21.10-7.23L20.95-6.14L19.76-6.14ZM18.91 0L19.64-5.26L20.83-5.26L20.10 0L18.91 0ZM22.29 0L21.40-5.26L22.59-5.26L22.96-3Q23-2.75 23.05-2.18Q23.10-1.61 23.11-1.42L23.11-1.42L23.15-1.42Q23.21-1.60 23.39-2.16Q23.58-2.71 23.71-3L23.71-3L24.68-5.26L25.89-5.26L23.50 0L22.29 0ZM27.74 0.12Q25.88 0.12 25.88-1.80L25.88-1.80Q25.88-3.25 26.43-4.32Q26.97-5.38 28.31-5.38L28.31-5.38Q30.17-5.38 30.17-3.43L30.17-3.43Q30.17-1.98 29.63-0.93Q29.08 0.12 27.74 0.12L27.74 0.12ZM27.78-0.89Q28.48-0.89 28.71-1.78Q28.94-2.66 28.94-3.43L28.94-3.43Q28.94-4.37 28.27-4.37L28.27-4.37Q27.57-4.37 27.34-3.48Q27.11-2.60 27.11-1.83L27.11-1.83Q27.11-1.36 27.27-1.13Q27.43-0.89 27.78-0.89L27.78-0.89ZM33.09 0L34.05-6.86L35.17-6.86L36.74-3.08Q36.81-2.91 36.88-2.71Q36.94-2.52 36.96-2.44L36.96-2.44L36.99-2.47Q37-2.54 37.02-2.72Q37.04-2.90 37.06-3.04L37.06-3.04L37.59-6.86L38.72-6.86L37.76 0L36.63 0L35.06-3.78Q35-3.94 34.94-4.14Q34.87-4.34 34.84-4.42L34.84-4.42L34.80-4.39Q34.80-4.33 34.78-4.16Q34.76-3.98 34.74-3.82L34.74-3.82L34.21 0L33.09 0ZM40.37 0.12Q39.69 0.12 39.32-0.35Q38.95-0.82 38.95-1.74L38.95-1.74Q38.95-2.95 39.23-3.77Q39.51-4.59 39.97-4.99Q40.42-5.38 40.94-5.38L40.94-5.38Q41.74-5.38 42.04-4.63L42.04-4.63L42.24-5.26L43.17-5.26Q43.07-4.64 42.81-2.94Q42.55-1.24 42.55-1.17L42.55-1.17Q42.55-0.89 42.79-0.89L42.79-0.89L42.97-0.89L42.85-0.04Q42.58 0.12 42.26 0.12L42.26 0.12Q41.93 0.12 41.72-0.07Q41.51-0.25 41.43-0.58L41.43-0.58Q41.25-0.23 40.96-0.06Q40.66 0.12 40.37 0.12L40.37 0.12ZM40.68-0.91Q41.06-0.91 41.29-1.33Q41.52-1.76 41.61-2.33Q41.70-2.90 41.70-3.38L41.70-3.38Q41.70-3.87 41.58-4.11Q41.46-4.35 41.17-4.35L41.17-4.35Q40.79-4.35 40.56-3.90Q40.33-3.45 40.24-2.88Q40.14-2.30 40.14-1.90L40.14-1.90Q40.14-0.91 40.68-0.91L40.68-0.91ZM43.52 0L44.25-5.26L45.22-5.26L45.22-4.46Q45.42-4.87 45.68-5.13Q45.93-5.38 46.30-5.38L46.30-5.38Q46.49-5.38 46.62-5.34Q46.75-5.31 46.78-5.30L46.78-5.30L46.63-4.14L46.25-4.14Q45.81-4.14 45.51-3.86Q45.20-3.58 45.11-2.93L45.11-2.93L44.70 0L43.52 0ZM46.71 0L47.44-5.26L48.41-5.26L48.41-4.46Q48.61-4.87 48.87-5.13Q49.12-5.38 49.49-5.38L49.49-5.38Q49.68-5.38 49.81-5.34Q49.94-5.31 49.97-5.30L49.97-5.30L49.82-4.14L49.44-4.14Q49.00-4.14 48.70-3.86Q48.39-3.58 48.30-2.93L48.30-2.93L47.89 0L46.71 0ZM51.89 0.12Q50.03 0.12 50.03-1.80L50.03-1.80Q50.03-3.25 50.58-4.32Q51.12-5.38 52.46-5.38L52.46-5.38Q54.32-5.38 54.32-3.43L54.32-3.43Q54.32-1.98 53.78-0.93Q53.23 0.12 51.89 0.12L51.89 0.12ZM51.93-0.89Q52.63-0.89 52.86-1.78Q53.09-2.66 53.09-3.43L53.09-3.43Q53.09-4.37 52.42-4.37L52.42-4.37Q51.72-4.37 51.49-3.48Q51.26-2.60 51.26-1.83L51.26-1.83Q51.26-1.36 51.42-1.13Q51.58-0.89 51.93-0.89L51.93-0.89ZM55.65 0L55.10-5.26L56.23-5.26L56.41-3.09Q56.45-2.63 56.48-2.08Q56.50-1.53 56.50-1.37L56.50-1.37L56.54-1.37Q56.54-1.43 56.66-2.01Q56.79-2.59 56.95-3.08L56.95-3.08L57.70-5.26L58.90-5.26L59.03-3.07Q59.05-2.75 59.06-2.16Q59.07-1.56 59.07-1.37L59.07-1.37L59.11-1.37Q59.16-1.55 59.31-2.12Q59.47-2.69 59.60-3.07L59.60-3.07L60.34-5.26L61.41-5.26L59.42 0L58.24 0L58.07-2.51Q58.05-2.85 58.03-3.30Q58.01-3.75 58.01-3.89L58.01-3.89L57.95-3.89Q57.95-3.80 57.88-3.34Q57.82-2.88 57.70-2.52L57.70-2.52L56.84 0L55.65 0Z"/></svg>