<svg xmlns="http://www.w3.org/2000/svg" viewBox="-0.07200000000000001 47.943999999999996 642.6000000000001 52.92000000000001"><path d="M-0 100L16 51L25 51L40 100L33 100L30 89L10 89L7 100L-0 100ZM12 83L28 83L21 63Q21 61 21 59Q20 57 20 57L20 57L20 57Q20 57 19 59Q19 61 19 63L19 63L12 83ZM45 100L45 62L50 62L51 67L51 67Q53 61 58 61L58 61Q59 61 60 62Q60 62 61 62L61 62L61 69L58 69Q55 69 53 71Q51 73 51 78L51 78L51 100L45 100ZM77 101Q70 101 67 96Q64 91 64 81L64 81Q64 71 67 66Q70 61 77 61L77 61Q89 61 89 76L89 76L82 76Q82 71 81 69Q80 67 77 67L77 67Q74 67 72 70Q71 73 71 80L71 80L71 82Q71 89 72 92Q74 95 77 95L77 95Q80 95 81 93Q83 90 83 86L83 86L89 86Q89 93 86 97Q83 101 77 101L77 101ZM96 100L96 48L103 48L103 66L103 66Q106 61 112 61L112 61Q121 61 121 73L121 73L121 100L115 100L115 74Q115 70 113 69Q112 67 109 67L109 67Q107 67 105 70Q103 73 103 77L103 77L103 100L96 100ZM129 55L129 48L136 48L136 55L129 55ZM129 100L129 62L136 62L136 100L129 100ZM151 100L140 62L148 62L153 80Q153 82 153 83Q154 85 154 86L154 86Q155 90 155 91L155 91L156 91L156 87Q157 82 158 80L158 80L163 62L170 62L159 100L151 100ZM187 101Q180 101 177 96Q173 91 173 81L173 81Q173 71 177 66Q180 61 187 61L187 61Q194 61 198 66Q201 71 201 81L201 81Q201 91 198 96Q194 101 187 101L187 101ZM187 95Q194 95 194 82L194 82L194 80Q194 67 187 67L187 67Q184 67 182 70Q180 73 180 80L180 80L180 82Q180 89 182 92Q184 95 187 95L187 95ZM225 100L225 51L232 51L249 80Q250 81 251 84Q252 86 252 86L252 86L252 86L252 81L252 51L258 51L258 100L252 100L235 70Q234 69 233 67Q232 65 232 64L232 64L232 64Q232 65 232 66Q232 68 232 70L232 70L232 100L225 100ZM275 101Q271 101 268 99Q265 96 265 90L265 90Q265 83 270 80Q275 77 284 77L284 77L284 73Q284 70 283 69Q282 67 279 67L279 67Q276 67 275 69Q274 70 274 72L274 72L274 73L267 73Q267 73 267 72L267 72Q267 67 270 64Q274 61 279 61L279 61Q285 61 288 64Q291 67 291 72L291 72L291 92Q291 94 292 94Q292 95 293 95L293 95L295 95L295 100Q294 101 291 101L291 101Q289 101 287 99Q285 98 285 96L285 96L284 96Q281 101 275 101L275 101ZM277 95Q280 95 282 93Q284 90 284 86L284 86L284 83Q278 83 275 84Q272 86 272 90L272 90Q272 93 273 94Q275 95 277 95L277 95ZM300 100L300 62L306 62L306 67L307 67Q309 61 313 61L313 61Q314 61 315 62Q316 62 316 62L316 62L316 69L314 69Q311 69 309 71Q307 73 307 78L307 78L307 100L300 100ZM321 100L321 62L326 62L327 67L328 67Q330 61 334 61L334 61Q335 61 336 62Q337 62 337 62L337 62L337 69L335 69Q332 69 330 71Q328 73 328 78L328 78L328 100L321 100ZM354 101Q347 101 344 96Q340 91 340 81L340 81Q340 71 344 66Q347 61 354 61L354 61Q362 61 365 66Q368 71 368 81L368 81Q368 91 365 96Q362 101 354 101L354 101ZM354 95Q361 95 361 82L361 82L361 80Q361 67 354 67L354 67Q351 67 349 70Q348 73 348 80L348 80L348 82Q348 89 349 92Q351 95 354 95L354 95ZM381 100L371 62L379 62L383 82Q384 84 384 87Q384 90 384 92L384 92L385 92Q385 91 385 87Q386 84 386 82L386 82L390 62L397 62L401 82Q401 84 402 87Q402 90 402 92L402 92L402 92Q403 91 403 87Q403 84 404 82L404 82L408 62L415 62L406 100L398 100L394 79Q394 77 394 74Q393 71 393 71L393 71L393 71Q393 71 393 74Q392 77 392 79L392 79L388 100L381 100ZM436 100L436 62L441 62L442 67L442 67Q444 64 446 63Q448 61 451 61L451 61Q457 61 459 67L459 67Q461 64 463 63Q466 61 469 61L469 61Q478 61 478 73L478 73L478 100L471 100L471 74Q471 70 470 69Q468 67 466 67L466 67Q464 67 462 70Q460 72 460 77L460 77L460 100L453 100L453 74Q453 70 452 69Q451 67 449 67L449 67Q446 67 444 70Q442 72 442 77L442 77L442 100L436 100ZM499 101Q492 101 488 96Q485 91 485 81L485 81Q485 71 488 66Q492 61 499 61L499 61Q505 61 509 66Q512 70 512 80L512 80L512 83L492 83Q492 89 493 92Q495 95 499 95L499 95Q502 95 503 93Q505 91 505 87L505 87L512 87Q512 93 508 97Q505 101 499 101L499 101ZM492 77L505 77Q505 72 503 70Q502 67 499 67L499 67Q495 67 494 70Q492 72 492 77L492 77ZM529 101Q524 101 521 96Q517 91 517 81L517 81Q517 71 521 66Q524 61 529 61L529 61Q532 61 534 62Q536 64 537 66L537 66L537 66L537 48L544 48L544 100L539 100L538 96L538 96Q536 98 534 99Q532 101 529 101L529 101ZM531 95Q534 95 536 92Q537 89 537 82L537 82L537 80Q537 67 531 67L531 67Q528 67 526 70Q525 73 525 80L525 80L525 82Q525 89 526 92Q528 95 531 95L531 95ZM552 55L552 48L559 48L559 55L552 55ZM552 100L552 62L559 62L559 100L552 100ZM576 101Q567 101 567 89L567 89L567 62L574 62L574 88Q574 92 575 93Q576 95 579 95L579 95Q582 95 584 92Q586 90 586 85L586 85L586 62L592 62L592 100L587 100L586 96L586 96Q584 98 582 99Q579 101 576 101L576 101ZM601 100L601 62L606 62L607 67L607 67Q609 64 611 63Q613 61 616 61L616 61Q622 61 624 67L624 67Q626 64 628 63Q631 61 633 61L633 61Q643 61 643 73L643 73L643 100L636 100L636 74Q636 70 635 69Q633 67 631 67L631 67Q628 67 627 70Q625 72 625 77L625 77L625 100L618 100L618 74Q618 70 617 69Q616 67 614 67L614 67Q611 67 609 70Q607 72 607 77L607 77L607 100L601 100Z"/></svg>