<svg xmlns="http://www.w3.org/2000/svg" viewBox="0 -7.23 61.05 7.3500000000000005"><path d="M0 0L2.21-6.86L3.70-6.86L5.91 0L4.60 0L4.18-1.35L1.65-1.35L1.24 0L0 0ZM2-2.49L3.83-2.49L3.14-4.78Q3.07-5 3.01-5.31Q2.95-5.62 2.94-5.71L2.94-5.71L2.90-5.71Q2.88-5.61 2.82-5.29Q2.76-4.98 2.70-4.78L2.70-4.78L2-2.49ZM6.47 0L6.47-5.26L7.47-5.26L7.61-4.49L7.67-4.49Q7.80-4.89 8.01-5.13Q8.22-5.38 8.58-5.38L8.58-5.38Q8.77-5.38 8.91-5.34Q9.05-5.31 9.08-5.30L9.08-5.30L9.08-4.14L8.65-4.14Q8.21-4.14 7.94-3.86Q7.67-3.58 7.67-2.93L7.67-2.93L7.67 0L6.47 0ZM11.51 0.12Q10.48 0.12 10-0.55Q9.52-1.21 9.52-2.63L9.52-2.63Q9.52-4.04 10.00-4.71Q10.49-5.38 11.47-5.38L11.47-5.38Q12.34-5.38 12.82-4.87Q13.31-4.35 13.31-3.28L13.31-3.28L12.08-3.28Q12.08-4.37 11.47-4.37L11.47-4.37Q11.10-4.37 10.93-3.98Q10.77-3.60 10.77-2.82L10.77-2.82L10.77-2.44Q10.77-1.66 10.95-1.28Q11.12-0.89 11.51-0.89L11.51-0.89Q11.83-0.89 11.97-1.16Q12.12-1.43 12.12-1.98L12.12-1.98L13.31-1.98Q13.31-0.91 12.84-0.40Q12.37 0.12 11.51 0.12L11.51 0.12ZM14.22 0L14.22-7.23L15.42-7.23L15.42-4.70L15.46-4.70Q15.66-4.99 15.98-5.19Q16.30-5.38 16.73-5.38L16.73-5.38Q17.38-5.38 17.75-4.98Q18.13-4.57 18.13-3.69L18.13-3.69L18.13 0L16.93 0L16.93-3.36Q16.93-3.85 16.75-4.07Q16.58-4.29 16.24-4.29L16.24-4.29Q15.89-4.29 15.65-3.98Q15.42-3.68 15.42-3.24L15.42-3.24L15.42 0L14.22 0ZM19.22-6.14L19.22-7.23L20.42-7.23L20.42-6.14L19.22-6.14ZM19.22 0L19.22-5.26L20.42-5.26L20.42 0L19.22 0ZM22.63 0L21-5.26L22.26-5.26L22.94-3Q23.02-2.75 23.13-2.18Q23.24-1.61 23.27-1.42L23.27-1.42L23.31-1.42Q23.34-1.60 23.43-2.16Q23.52-2.71 23.61-3L23.61-3L24.28-5.26L25.48-5.26L23.85 0L22.63 0ZM28.03 0.12Q26.97 0.12 26.45-0.55Q25.93-1.22 25.93-2.63L25.93-2.63Q25.93-4.04 26.45-4.71Q26.97-5.38 28.03-5.38L28.03-5.38Q29.09-5.38 29.61-4.71Q30.13-4.04 30.13-2.63L30.13-2.63Q30.13-1.22 29.61-0.55Q29.09 0.12 28.03 0.12L28.03 0.12ZM28.03-0.89Q28.48-0.89 28.68-1.28Q28.88-1.66 28.88-2.44L28.88-2.44L28.88-2.82Q28.88-3.60 28.68-3.98Q28.48-4.37 28.03-4.37L28.03-4.37Q27.58-4.37 27.38-3.98Q27.18-3.60 27.18-2.82L27.18-2.82L27.18-2.44Q27.18-1.66 27.38-1.28Q27.58-0.89 28.03-0.89L28.03-0.89ZM33.41 0L33.41-6.86L34.54-6.86L36.66-3.08Q36.73-2.97 36.84-2.75Q36.94-2.52 36.97-2.44L36.97-2.44L37-2.47L36.99-3.04L36.99-6.86L38.13-6.86L38.13 0L36.99 0L34.87-3.78Q34.79-3.94 34.70-4.14Q34.60-4.34 34.56-4.42L34.56-4.42L34.52-4.39Q34.52-4.33 34.53-4.16Q34.54-3.99 34.54-3.82L34.54-3.82L34.54 0L33.41 0ZM40.19 0.12Q39.70 0.12 39.29-0.21Q38.87-0.55 38.87-1.36L38.87-1.36Q38.87-2.36 39.55-2.78Q40.23-3.20 41.48-3.20L41.48-3.20L41.48-3.75Q41.48-4.06 41.37-4.23Q41.25-4.40 40.93-4.40L40.93-4.40Q40.60-4.40 40.45-4.24Q40.30-4.07 40.30-3.85L40.30-3.85L40.30-3.70L39.13-3.70Q39.12-3.76 39.12-3.92L39.12-3.92Q39.12-4.58 39.61-4.98Q40.09-5.38 40.90-5.38L40.90-5.38Q41.80-5.38 42.25-4.98Q42.69-4.58 42.69-3.83L42.69-3.83L42.69-1.24Q42.69-1.06 42.77-0.97Q42.85-0.89 42.97-0.89L42.97-0.89L43.21-0.89L43.21-0.04Q42.91 0.12 42.50 0.12L42.50 0.12Q42.15 0.12 41.91-0.07Q41.66-0.25 41.57-0.57L41.57-0.57L41.52-0.57Q41.27-0.22 40.98-0.05Q40.68 0.12 40.19 0.12L40.19 0.12ZM40.69-0.88Q41.09-0.88 41.29-1.20Q41.48-1.52 41.48-2.03L41.48-2.03L41.48-2.33Q40.87-2.33 40.49-2.14Q40.10-1.94 40.10-1.47L40.10-1.47Q40.10-1.19 40.25-1.03Q40.39-0.88 40.69-0.88L40.69-0.88ZM43.84 0L43.84-5.26L44.84-5.26L44.98-4.49L45.04-4.49Q45.17-4.89 45.38-5.13Q45.59-5.38 45.95-5.38L45.95-5.38Q46.14-5.38 46.28-5.34Q46.42-5.31 46.45-5.30L46.45-5.30L46.45-4.14L46.02-4.14Q45.58-4.14 45.31-3.86Q45.04-3.58 45.04-2.93L45.04-2.93L45.04 0L43.84 0ZM47.03 0L47.03-5.26L48.03-5.26L48.17-4.49L48.23-4.49Q48.36-4.89 48.57-5.13Q48.78-5.38 49.14-5.38L49.14-5.38Q49.33-5.38 49.47-5.34Q49.61-5.31 49.64-5.30L49.64-5.30L49.64-4.14L49.21-4.14Q48.77-4.14 48.50-3.86Q48.23-3.58 48.23-2.93L48.23-2.93L48.23 0L47.03 0ZM52.18 0.12Q51.12 0.12 50.60-0.55Q50.08-1.22 50.08-2.63L50.08-2.63Q50.08-4.04 50.60-4.71Q51.12-5.38 52.18-5.38L52.18-5.38Q53.24-5.38 53.76-4.71Q54.28-4.04 54.28-2.63L54.28-2.63Q54.28-1.22 53.76-0.55Q53.24 0.12 52.18 0.12L52.18 0.12ZM52.18-0.89Q52.63-0.89 52.83-1.28Q53.03-1.66 53.03-2.44L53.03-2.44L53.03-2.82Q53.03-3.60 52.83-3.98Q52.63-4.37 52.18-4.37L52.18-4.37Q51.73-4.37 51.53-3.98Q51.33-3.60 51.33-2.82L51.33-2.82L51.33-2.44Q51.33-1.66 51.53-1.28Q51.73-0.89 52.18-0.89L52.18-0.89ZM55.97 0L54.69-5.26L55.89-5.26L56.39-3.10Q56.49-2.66 56.55-2.11Q56.60-1.56 56.60-1.45L56.60-1.45L56.64-1.45Q56.65-1.60 56.71-2.11Q56.77-2.62 56.86-3.09L56.86-3.09L57.31-5.26L58.51-5.26L58.96-3.08Q59.03-2.76 59.09-2.19Q59.16-1.63 59.18-1.45L59.18-1.45L59.22-1.45Q59.24-1.62 59.33-2.17Q59.41-2.71 59.48-3.08L59.48-3.08L59.94-5.26L61.05-5.26L59.78 0L58.57 0L58.05-2.51Q57.98-2.84 57.95-3.26Q57.91-3.68 57.90-3.81L57.90-3.81L57.84-3.81Q57.83-3.68 57.80-3.27Q57.76-2.86 57.69-2.52L57.69-2.52L57.18 0L55.97 0Z"/></svg>