<svg xmlns="http://www.w3.org/2000/svg" viewBox="-2.088 47.943999999999996 857.2320000000001 52.92000000000001"><path d="M-2 100L21 51L30 51L39 100L31 100L29 90L11 90L6 100L-2 100ZM14 82L28 82L25 66Q25 64 25 61Q24 59 24 58L24 58L24 58Q24 59 23 62Q22 64 21 66L21 66L14 82ZM43 100L48 62L55 62L55 68Q56 65 58 63Q59 61 62 61L62 61Q64 61 64 62Q65 62 65 62L65 62L64 69L62 69Q59 69 57 72Q54 74 54 79L54 79L51 100L43 100ZM78 101Q66 101 66 87L66 87Q66 77 69 69Q73 61 82 61L82 61Q88 61 91 65Q93 68 93 75L93 75L93 76L86 76L86 75Q86 71 85 70Q84 68 82 68L82 68Q79 68 77 71Q75 75 74 79Q74 84 74 86L74 86Q74 90 75 92Q76 94 78 94L78 94Q80 94 82 92Q84 90 84 86L84 86L92 86Q91 93 87 97Q84 101 78 101L78 101ZM97 100L104 48L112 48L109 66Q113 61 118 61L118 61Q123 61 125 64Q127 66 127 71L127 71Q127 72 125 84L125 84L123 100L116 100L117 93Q119 74 119 73L119 73Q119 70 118 69Q117 68 115 68L115 68Q112 68 110 71Q108 73 107 78L107 78L104 100L97 100ZM138 56L139 48L146 48L145 56L138 56ZM132 100L137 62L144 62L139 100L132 100ZM155 100L149 62L156 62L159 80Q159 82 160 85Q160 89 160 90L160 90L160 90L161 88Q164 82 164 80L164 80L172 62L180 62L163 100L155 100ZM192 101Q179 101 179 87L179 87Q179 77 183 69Q187 61 196 61L196 61Q209 61 209 75L209 75Q209 85 206 93Q202 101 192 101L192 101ZM193 94Q198 94 200 88Q201 81 201 75L201 75Q201 68 196 68L196 68Q193 68 191 71Q189 75 188 79Q187 84 187 87L187 87Q187 91 189 92Q190 94 193 94L193 94ZM231 100L237 51L245 51L257 79Q257 80 258 82Q258 84 259 84L259 84L259 84Q259 84 259 82Q259 81 259 79L259 79L263 51L271 51L264 100L257 100L244 71Q244 70 243 68Q243 67 243 66L243 66L242 66Q242 67 242 68Q242 70 242 71L242 71L238 100L231 100ZM283 101Q278 101 276 97Q273 94 273 87L273 87Q273 79 275 73Q277 67 280 64Q284 61 287 61L287 61Q293 61 295 67L295 67L297 62L303 62Q302 67 300 79Q298 92 298 92L298 92Q298 94 300 94L300 94L302 94L301 100Q299 101 297 101L297 101Q294 101 293 99Q291 98 291 96L291 96Q289 98 287 100Q285 101 283 101L283 101ZM285 94Q288 94 290 91Q291 88 292 83Q293 79 293 75L293 75Q293 72 292 70Q291 68 289 68L289 68Q286 68 284 71Q282 75 281 79Q281 83 281 87L281 87Q281 94 285 94L285 94ZM305 100L311 62L317 62L317 68Q318 65 320 63Q322 61 325 61L325 61Q326 61 327 62Q327 62 328 62L328 62L327 69L324 69Q321 69 319 72Q317 74 316 79L316 79L313 100L305 100ZM327 100L332 62L339 62L339 68Q340 65 342 63Q344 61 346 61L346 61Q348 61 348 62Q349 62 349 62L349 62L348 69L346 69Q343 69 341 72Q338 74 338 79L338 79L335 100L327 100ZM363 101Q350 101 350 87L350 87Q350 77 354 69Q358 61 367 61L367 61Q380 61 380 75L380 75Q380 85 376 93Q372 101 363 101L363 101ZM363 94Q368 94 370 88Q372 81 372 75L372 75Q372 68 367 68L367 68Q363 68 361 71Q359 75 359 79Q358 84 358 87L358 87Q358 91 359 92Q360 94 363 94L363 94ZM390 100L385 62L393 62L394 80Q395 82 395 85Q395 88 395 90L395 90L395 91L395 91Q395 91 396 87Q397 83 398 80L398 80L404 62L412 62L413 80Q413 84 413 91L413 91L413 91Q414 90 415 86Q416 82 417 80L417 80L423 62L430 62L415 100L408 100L407 80Q406 77 406 75Q406 72 406 71L406 71L406 71Q406 71 405 75Q405 78 404 81L404 81L397 100L390 100ZM458 101Q452 101 449 98Q445 95 445 90L445 90Q445 90 445 89Q446 88 446 87L446 87L453 87Q453 89 453 89L453 89Q453 92 455 93Q456 94 459 94L459 94Q461 94 462 93Q464 92 464 90L464 90Q464 88 462 86Q461 85 458 84L458 84Q455 82 453 81Q451 80 450 78Q449 76 449 73L449 73Q449 67 452 64Q456 61 462 61L462 61Q468 61 471 65Q474 68 474 73L474 73L466 73Q466 70 465 69Q464 68 461 68L461 68Q459 68 458 69Q457 70 457 72L457 72Q457 74 458 75Q460 76 463 78L463 78Q466 79 468 80Q469 81 471 83Q472 85 472 89L472 89Q472 95 468 98Q464 101 458 101L458 101ZM490 101Q484 101 481 98Q478 94 478 87L478 87Q478 77 482 69Q485 61 494 61L494 61Q506 61 506 74L506 74Q506 79 505 83L505 83L486 83Q486 85 486 87L486 87Q486 91 487 93Q488 94 490 94L490 94Q493 94 494 92Q496 90 497 87L497 87L504 87Q503 93 500 97Q496 101 490 101L490 101ZM487 77L498 77L498 74Q498 71 497 69Q496 68 494 68L494 68Q491 68 489 70Q488 73 487 77L487 77ZM510 100L515 62L521 62L521 67Q525 61 531 61L531 61Q534 61 536 63Q538 65 539 68L539 68Q540 65 543 63Q545 61 549 61L549 61Q553 61 555 64Q557 66 557 71L557 71Q557 72 554 90L554 90L553 100L545 100L547 85Q549 74 549 73L549 73Q549 68 545 68L545 68Q543 68 541 71Q539 73 538 77L538 77L535 100L528 100L529 88Q531 74 531 73L531 73Q531 68 528 68L528 68Q525 68 523 71Q521 73 521 78L521 78L518 100L510 100ZM567 56L568 48L576 48L575 56L567 56ZM561 100L566 62L574 62L569 100L561 100ZM609 101Q603 101 600 95L600 95L599 100L593 100L600 48L608 48L605 66Q607 64 609 63Q611 61 614 61L614 61Q618 61 621 65Q624 68 624 75L624 75Q624 81 622 87Q620 93 617 97Q614 101 609 101L609 101ZM607 94Q611 94 613 91Q614 87 615 83Q616 79 616 75L616 75Q616 72 615 70Q614 68 611 68L611 68Q608 68 606 71Q604 75 603 79Q603 83 603 87L603 87Q603 90 604 92Q605 94 607 94L607 94ZM642 101Q629 101 629 87L629 87Q629 77 633 69Q636 61 646 61L646 61Q659 61 659 75L659 75Q659 85 655 93Q651 101 642 101L642 101ZM642 94Q647 94 649 88Q651 81 651 75L651 75Q651 68 646 68L646 68Q642 68 640 71Q638 75 637 79Q637 84 637 87L637 87Q637 91 638 92Q639 94 642 94L642 94ZM663 100L670 48L677 48L670 100L663 100ZM689 101Q684 101 682 97Q679 94 679 87L679 87Q679 79 681 73Q683 67 687 64Q690 61 694 61L694 61Q699 61 702 66L702 66L704 48L712 48L705 100L698 100L698 95Q695 101 689 101L689 101ZM692 94Q695 94 697 91Q699 87 699 83Q700 79 700 75L700 75Q700 68 695 68L695 68Q692 68 690 71Q688 75 688 79Q687 83 687 87L687 87Q687 90 688 92Q689 94 692 94L692 94ZM735 56L737 48L744 48L743 56L735 56ZM729 100L735 62L742 62L737 100L729 100ZM753 101Q749 101 748 99Q746 97 746 94L746 94Q746 92 747 82Q749 72 749 69L749 69L746 69L747 62L750 62L752 52L760 52L758 62L763 62L762 69L757 69Q757 72 755 82Q754 91 754 92L754 92Q754 94 756 94L756 94L759 94L758 100Q757 100 756 101Q754 101 753 101L753 101ZM774 101Q769 101 766 97Q764 94 764 87L764 87Q764 79 766 73Q768 67 771 64Q774 61 778 61L778 61Q784 61 786 67L786 67L787 62L793 62Q793 67 791 79Q789 92 789 92L789 92Q789 94 791 94L791 94L792 94L791 100Q790 101 787 101L787 101Q785 101 783 99Q782 98 782 96L782 96Q780 98 778 100Q776 101 774 101L774 101ZM776 94Q779 94 780 91Q782 88 783 83Q784 79 784 75L784 75Q784 72 783 70Q782 68 779 68L779 68Q776 68 775 71Q773 75 772 79Q771 83 771 87L771 87Q771 94 776 94L776 94ZM796 100L803 48L811 48L804 100L796 100ZM817 56L818 48L826 48L825 56L817 56ZM811 100L817 62L824 62L819 100L811 100ZM839 101Q827 101 827 87L827 87Q827 77 831 69Q835 61 844 61L844 61Q850 61 852 65Q855 68 855 75L855 75L855 76L847 76L847 75Q847 71 846 70Q845 68 843 68L843 68Q840 68 838 71Q837 75 836 79Q835 84 835 86L835 86Q835 90 836 92Q837 94 840 94L840 94Q842 94 844 92Q846 90 846 86L846 86L854 86Q853 93 849 97Q846 101 839 101L839 101Z"/></svg>