<svg xmlns="http://www.w3.org/2000/svg" viewBox="-2.3760000000000003 47.943999999999996 787.3199999999999 52.92000000000001"><path d="M-2.38 100L20.23 50.61L29.16 50.61L37.94 100L30.46 100L28.66 89.42L9.58 89.42L4.82 100L-2.38 100ZM12.53 82.86L27.65 82.86L24.41 63.57Q24.19 62.13 24.05 59.82Q23.90 57.52 23.90 56.80L23.90 56.80L23.62 56.80Q23.40 57.52 22.61 59.86Q21.82 62.20 21.17 63.57L21.17 63.57L12.53 82.86ZM41.69 100L47.02 62.13L52.34 62.13L52.34 68.10Q53.86 65.01 55.55 63.14Q57.24 61.26 59.98 61.26L59.98 61.26Q61.13 61.26 61.92 61.52Q62.71 61.77 62.93 61.84L62.93 61.84L61.99 68.68L59.83 68.68Q56.81 68.68 54.47 71.13Q52.13 73.58 51.48 78.33L51.48 78.33L48.46 100L41.69 100ZM75.17 100.86Q69.55 100.86 66.53 97.48Q63.50 94.10 63.50 87.26L63.50 87.26Q63.50 76.60 66.96 68.93Q70.42 61.26 79.06 61.26L79.06 61.26Q84.67 61.26 87.41 64.65Q90.14 68.03 90.14 75.02L90.14 75.02L90.14 76.24L83.23 76.24L83.23 75.09Q83.23 71.13 82.19 69.15Q81.14 67.17 78.84 67.17L78.84 67.17Q75.53 67.17 73.66 70.88Q71.78 74.58 71.10 79.05Q70.42 83.51 70.42 86.46L70.42 86.46Q70.42 94.96 75.31 94.96L75.31 94.96Q77.98 94.96 79.81 92.40Q81.65 89.85 82.22 86.10L82.22 86.10L88.92 86.10Q87.98 92.51 84.53 96.69Q81.07 100.86 75.17 100.86L75.17 100.86ZM93.31 100L100.58 47.94L107.35 47.94L104.76 66.38Q108.29 61.26 114.12 61.26L114.12 61.26Q118.51 61.26 120.56 63.71Q122.62 66.16 122.62 70.12L122.62 70.12Q122.62 72.06 119.74 92.22L119.74 92.22L118.66 100L111.89 100Q115.70 74.01 115.70 71.99L115.70 71.99Q115.70 69.62 114.62 68.46Q113.54 67.31 111.38 67.31L111.38 67.31Q108.22 67.31 105.98 70.30Q103.75 73.29 103.03 78.33L103.03 78.33L100.01 100L93.31 100ZM133.13 55.22L134.06 47.94L140.83 47.94L139.82 55.22L133.13 55.22ZM126.86 100L132.12 62.13L138.89 62.13L133.56 100L126.86 100ZM148.90 100L142.99 62.13L149.98 62.13L152.71 81.21L153.14 85.24L153.86 90.93L154.15 90.93L155.16 88.34Q156.60 84.45 157.90 81.28L157.90 81.28L165.89 62.13L173.02 62.13L156.02 100L148.90 100ZM185.18 100.86Q172.80 100.86 172.80 87.26L172.80 87.26Q172.80 81.06 174.24 75.20Q175.68 69.33 179.35 65.30Q183.02 61.26 189.29 61.26L189.29 61.26Q201.74 61.26 201.74 75.02L201.74 75.02Q201.74 81.21 200.30 87.04Q198.86 92.87 195.16 96.87Q191.45 100.86 185.18 100.86L185.18 100.86ZM185.33 94.96Q189.14 94.96 191.27 91.25Q193.39 87.54 194.08 83.04Q194.76 78.54 194.76 75.09L194.76 75.09Q194.76 67.17 189.22 67.17L189.22 67.17Q185.40 67.17 183.28 70.80Q181.15 74.44 180.47 78.87Q179.78 83.30 179.78 86.68L179.78 86.68Q179.78 90.86 181.12 92.91Q182.45 94.96 185.33 94.96L185.33 94.96ZM222.84 100L229.82 50.61L235.94 50.61L249.12 80.42Q249.77 82.07 250.38 83.87Q250.99 85.67 251.21 86.39L251.21 86.39L251.42 86.32Q251.50 85.60 251.68 83.80Q251.86 82 252.07 80.56L252.07 80.56L256.25 50.61L262.73 50.61L255.74 100L249.77 100L236.52 69.90Q236.02 68.75 235.30 66.66Q234.58 64.58 234.36 63.86L234.36 63.86L234.14 64.00Q234.07 64.65 233.93 66.66Q233.78 68.68 233.57 69.76L233.57 69.76L229.32 100L222.84 100ZM275.11 100.86Q270.65 100.86 268.02 97.37Q265.39 93.88 265.39 87.04L265.39 87.04Q265.39 78.62 267.48 72.82Q269.57 67.02 272.88 64.14Q276.19 61.26 279.86 61.26L279.86 61.26Q285.77 61.26 287.78 67.17L287.78 67.17L289.08 62.13L294.41 62.13Q293.69 66.81 291.85 79.59Q290.02 92.37 290.02 92.94L290.02 92.94Q290.02 94.96 291.74 94.96L291.74 94.96L293.69 94.96L293.04 99.71Q291.24 100.86 288.94 100.86L288.94 100.86Q286.56 100.86 285.12 99.42Q283.68 97.98 283.54 95.18L283.54 95.18Q279.94 100.86 275.11 100.86L275.11 100.86ZM277.06 94.96Q280.08 94.96 282.02 91.43Q283.97 87.90 284.80 83.19Q285.62 78.47 285.62 74.94L285.62 74.94Q285.62 67.17 281.02 67.17L281.02 67.17Q277.70 67.17 275.76 70.70Q273.82 74.22 273.02 78.80Q272.23 83.37 272.23 87.04L272.23 87.04Q272.23 94.96 277.06 94.96L277.06 94.96ZM297.36 100L302.69 62.13L308.02 62.13L308.02 68.10Q309.53 65.01 311.22 63.14Q312.91 61.26 315.65 61.26L315.65 61.26Q316.80 61.26 317.59 61.52Q318.38 61.77 318.60 61.84L318.60 61.84L317.66 68.68L315.50 68.68Q312.48 68.68 310.14 71.13Q307.80 73.58 307.15 78.33L307.15 78.33L304.13 100L297.36 100ZM318.10 100L323.42 62.13L328.75 62.13L328.75 68.10Q330.26 65.01 331.96 63.14Q333.65 61.26 336.38 61.26L336.38 61.26Q337.54 61.26 338.33 61.52Q339.12 61.77 339.34 61.84L339.34 61.84L338.40 68.68L336.24 68.68Q333.22 68.68 330.88 71.13Q328.54 73.58 327.89 78.33L327.89 78.33L324.86 100L318.10 100ZM352.37 100.86Q339.98 100.86 339.98 87.26L339.98 87.26Q339.98 81.06 341.42 75.20Q342.86 69.33 346.54 65.30Q350.21 61.26 356.47 61.26L356.47 61.26Q368.93 61.26 368.93 75.02L368.93 75.02Q368.93 81.21 367.49 87.04Q366.05 92.87 362.34 96.87Q358.63 100.86 352.37 100.86L352.37 100.86ZM352.51 94.96Q356.33 94.96 358.45 91.25Q360.58 87.54 361.26 83.04Q361.94 78.54 361.94 75.09L361.94 75.09Q361.94 67.17 356.40 67.17L356.40 67.17Q352.58 67.17 350.46 70.80Q348.34 74.44 347.65 78.87Q346.97 83.30 346.97 86.68L346.97 86.68Q346.97 90.86 348.30 92.91Q349.63 94.96 352.51 94.96L352.51 94.96ZM378.58 100L374.47 62.13L380.88 62.13L382.82 81.64Q383.33 86.82 383.47 92.30L383.47 92.30L383.76 92.30Q383.90 91.29 384.62 87.87Q385.34 84.45 386.21 81.64L386.21 81.64L392.54 62.13L400.10 62.13L401.04 81.71Q401.18 83.44 401.18 92.30L401.18 92.30L401.47 92.30Q401.69 91.22 402.55 87.83Q403.42 84.45 404.42 81.71L404.42 81.71L411.55 62.13L417.82 62.13L403.27 100L396.07 100L394.99 77.46Q394.92 74.80 394.99 72.57Q395.06 70.34 395.06 69.54L395.06 69.54L394.70 69.54Q394.56 70.55 393.95 73.79Q393.34 77.03 392.54 79.48L392.54 79.48L385.78 100L378.58 100ZM433.15 100L438.48 62.13L443.81 62.13L443.81 67.53Q445.18 65.01 447.52 63.14Q449.86 61.26 453.46 61.26L453.46 61.26Q456.84 61.26 458.71 63.03Q460.58 64.79 461.09 67.74L461.09 67.74Q464.76 61.26 470.95 61.26L470.95 61.26Q474.98 61.26 476.89 63.71Q478.80 66.16 478.80 70.12L478.80 70.12Q478.80 72.06 475.92 92.22L475.92 92.22L474.84 100L468.14 100L469.08 93.30Q471.89 73.50 471.89 71.78L471.89 71.78Q471.89 67.31 468.22 67.31L468.22 67.31Q465.34 67.31 463.25 70.12Q461.16 72.93 460.51 77.68L460.51 77.68L457.42 100L450.65 100L451.87 91.58Q452.23 88.98 453.35 80.99Q454.46 73 454.46 71.78L454.46 71.78Q454.46 67.31 450.79 67.31L450.79 67.31Q447.77 67.31 445.68 70.30Q443.59 73.29 442.87 78.33L442.87 78.33L439.85 100L433.15 100ZM496.44 100.86Q484.20 100.86 484.20 87.26L484.20 87.26Q484.20 76.74 487.91 69.00Q491.62 61.26 500.54 61.26L500.54 61.26Q512.21 61.26 512.21 74.66L512.21 74.66Q512.21 79.34 511.56 82.94L511.56 82.94L491.33 82.94Q491.11 85.17 491.11 86.61L491.11 86.61Q491.11 90.86 492.44 92.94Q493.78 95.03 496.58 95.03L496.58 95.03Q499.32 95.03 501.26 92.76Q503.21 90.50 503.78 87.11L503.78 87.11L510.70 87.11Q509.62 93.16 505.98 97.01Q502.34 100.86 496.44 100.86L496.44 100.86ZM492.12 77.32L505.15 77.32L505.22 74.73Q505.22 70.91 504.04 69.00Q502.85 67.10 500.33 67.10L500.33 67.10Q497.09 67.10 495.07 70.01Q493.06 72.93 492.12 77.32L492.12 77.32ZM526.90 100.86Q522.36 100.86 519.73 97.37Q517.10 93.88 517.10 87.04L517.10 87.04Q517.10 78.62 519.19 72.82Q521.28 67.02 524.66 64.14Q528.05 61.26 531.79 61.26L531.79 61.26Q537.12 61.26 539.42 66.30L539.42 66.30L542.09 47.94L548.78 47.94L541.51 100L536.11 100L536.11 94.74Q532.51 100.86 526.90 100.86L526.90 100.86ZM529.06 94.82Q532.37 94.82 534.38 91.32Q536.40 87.83 537.19 83.22Q537.98 78.62 537.98 74.94L537.98 74.94Q537.98 67.31 533.02 67.31L533.02 67.31Q529.56 67.31 527.54 70.77Q525.53 74.22 524.74 78.80Q523.94 83.37 523.94 87.18L523.94 87.18Q523.94 94.82 529.06 94.82L529.06 94.82ZM555.98 55.22L556.92 47.94L563.69 47.94L562.68 55.22L555.98 55.22ZM549.72 100L554.98 62.13L561.74 62.13L556.42 100L549.72 100ZM574.06 100.86Q569.66 100.86 567.61 98.42Q565.56 95.97 565.56 92.01L565.56 92.01Q565.56 90.06 568.44 69.90L568.44 69.90L569.52 62.13L576.22 62.13L575.28 69.04Q572.47 88.84 572.47 90.14L572.47 90.14Q572.47 92.58 573.52 93.70Q574.56 94.82 576.72 94.82L576.72 94.82Q579.96 94.82 582.19 91.83Q584.42 88.84 585.14 83.80L585.14 83.80L588.10 62.13L594.86 62.13L589.54 100L584.14 100L584.14 94.67Q582.70 97.19 580.25 99.03Q577.80 100.86 574.06 100.86L574.06 100.86ZM598.10 100L603.43 62.13L608.76 62.13L608.76 67.53Q610.13 65.01 612.47 63.14Q614.81 61.26 618.41 61.26L618.41 61.26Q621.79 61.26 623.66 63.03Q625.54 64.79 626.04 67.74L626.04 67.74Q629.71 61.26 635.90 61.26L635.90 61.26Q639.94 61.26 641.84 63.71Q643.75 66.16 643.75 70.12L643.75 70.12Q643.75 72.06 640.87 92.22L640.87 92.22L639.79 100L633.10 100L634.03 93.30Q636.84 73.50 636.84 71.78L636.84 71.78Q636.84 67.31 633.17 67.31L633.17 67.31Q630.29 67.31 628.20 70.12Q626.11 72.93 625.46 77.68L625.46 77.68L622.37 100L615.60 100L616.82 91.58Q617.18 88.98 618.30 80.99Q619.42 73 619.42 71.78L619.42 71.78Q619.42 67.31 615.74 67.31L615.74 67.31Q612.72 67.31 610.63 70.30Q608.54 73.29 607.82 78.33L607.82 78.33L604.80 100L598.10 100ZM670.68 55.22L671.62 47.94L678.38 47.94L677.38 55.22L670.68 55.22ZM664.42 100L669.67 62.13L676.44 62.13L671.11 100L664.42 100ZM686.30 100.79Q682.92 100.79 681.44 98.92Q679.97 97.05 679.97 94.10L679.97 94.10Q679.97 92.94 681.44 82.40Q682.92 71.85 683.50 68.03L683.50 68.03L680.11 68.03L680.90 62.13L684.36 62.13L685.80 51.54L692.93 51.54L691.06 62.13L696.31 62.13L695.45 68.03L690.26 68.03Q689.76 71.70 688.32 81.78Q686.88 91.86 686.88 92.37L686.88 92.37Q686.88 94.96 689.47 94.96L689.47 94.96L691.63 94.96L690.98 99.78Q690.12 100.22 688.79 100.50Q687.46 100.79 686.30 100.79L686.30 100.79ZM706.61 100.86Q702.14 100.86 699.52 97.37Q696.89 93.88 696.89 87.04L696.89 87.04Q696.89 78.62 698.98 72.82Q701.06 67.02 704.38 64.14Q707.69 61.26 711.36 61.26L711.36 61.26Q717.26 61.26 719.28 67.17L719.28 67.17L720.58 62.13L725.90 62.13Q725.18 66.81 723.35 79.59Q721.51 92.37 721.51 92.94L721.51 92.94Q721.51 94.96 723.24 94.96L723.24 94.96L725.18 94.96L724.54 99.71Q722.74 100.86 720.43 100.86L720.43 100.86Q718.06 100.86 716.62 99.42Q715.18 97.98 715.03 95.18L715.03 95.18Q711.43 100.86 706.61 100.86L706.61 100.86ZM708.55 94.96Q711.58 94.96 713.52 91.43Q715.46 87.90 716.29 83.19Q717.12 78.47 717.12 74.94L717.12 74.94Q717.12 67.17 712.51 67.17L712.51 67.17Q709.20 67.17 707.26 70.70Q705.31 74.22 704.52 78.80Q703.73 83.37 703.73 87.04L703.73 87.04Q703.73 94.96 708.55 94.96L708.55 94.96ZM728.86 100L736.06 47.94L742.82 47.94L735.55 100L728.86 100ZM749.30 55.22L750.24 47.94L757.01 47.94L756 55.22L749.30 55.22ZM743.04 100L748.30 62.13L755.06 62.13L749.74 100L743.04 100ZM769.97 100.86Q764.35 100.86 761.33 97.48Q758.30 94.10 758.30 87.26L758.30 87.26Q758.30 76.60 761.76 68.93Q765.22 61.26 773.86 61.26L773.86 61.26Q779.47 61.26 782.21 64.65Q784.94 68.03 784.94 75.02L784.94 75.02L784.94 76.24L778.03 76.24L778.03 75.09Q778.03 71.13 776.99 69.15Q775.94 67.17 773.64 67.17L773.64 67.17Q770.33 67.17 768.46 70.88Q766.58 74.58 765.90 79.05Q765.22 83.51 765.22 86.46L765.22 86.46Q765.22 94.96 770.11 94.96L770.11 94.96Q772.78 94.96 774.61 92.40Q776.45 89.85 777.02 86.10L777.02 86.10L783.72 86.10Q782.78 92.51 779.33 96.69Q775.87 100.86 769.97 100.86L769.97 100.86Z"/></svg>