<svg xmlns="http://www.w3.org/2000/svg" viewBox="-2.088 47.943999999999996 857.2320000000001 52.92000000000001"><path d="M-2.09 100L20.52 50.61L30.24 50.61L39.02 100L30.67 100L28.94 89.85L10.58 89.85L6.12 100L-2.09 100ZM13.90 82.43L27.72 82.43L25.06 66.02Q24.77 64.14 24.59 61.44Q24.41 58.74 24.41 57.88L24.41 57.88L24.12 57.88Q23.83 58.74 22.93 61.52Q22.03 64.29 21.24 66.02L21.24 66.02L13.90 82.43ZM43.06 100L48.31 62.13L54.50 62.13L54.50 67.96Q55.94 65.01 57.71 63.14Q59.47 61.26 62.21 61.26L62.21 61.26Q63.50 61.26 64.33 61.52Q65.16 61.77 65.38 61.84L65.38 61.84L64.37 69.40L61.92 69.40Q58.82 69.40 56.56 71.63Q54.29 73.86 53.64 78.62L53.64 78.62L50.62 100L43.06 100ZM77.69 100.86Q65.81 100.86 65.81 87.47L65.81 87.47Q65.81 76.60 69.41 68.93Q73.01 61.26 82.01 61.26L82.01 61.26Q87.84 61.26 90.65 64.68Q93.46 68.10 93.46 75.16L93.46 75.16L93.46 76.31L85.54 76.31L85.54 75.16Q85.54 71.42 84.64 69.62Q83.74 67.82 81.58 67.82L81.58 67.82Q78.55 67.82 76.79 71.42Q75.02 75.02 74.38 79.37Q73.73 83.73 73.73 86.39L73.73 86.39Q73.73 90.35 74.74 92.33Q75.74 94.31 78.05 94.31L78.05 94.31Q80.50 94.31 82.19 91.94Q83.88 89.56 84.46 86.03L84.46 86.03L92.16 86.03Q90.86 92.66 87.41 96.76Q83.95 100.86 77.69 100.86L77.69 100.86ZM96.70 100L103.90 47.94L111.53 47.94L108.94 66.23Q112.82 61.26 118.30 61.26L118.30 61.26Q122.76 61.26 124.96 63.75Q127.15 66.23 127.15 70.55L127.15 70.55Q127.15 71.85 125.42 84.38L125.42 84.38L123.26 100L115.63 100L116.64 92.66Q119.30 74.37 119.30 72.93L119.30 72.93Q119.30 70.48 118.30 69.36Q117.29 68.25 115.06 68.25L115.06 68.25Q112.18 68.25 110.09 70.80Q108 73.36 107.42 77.82L107.42 77.82L104.33 100L96.70 100ZM137.66 55.50L138.74 47.94L146.38 47.94L145.37 55.50L137.66 55.50ZM131.54 100L136.80 62.13L144.43 62.13L139.18 100L131.54 100ZM154.66 100L148.54 62.13L156.31 62.13L158.98 79.77Q159.26 81.64 159.59 85.17Q159.91 88.70 160.06 90.35L160.06 90.35L160.34 90.35L161.35 87.62Q163.51 81.78 164.30 79.84L164.30 79.84L171.79 62.13L179.64 62.13L162.58 100L154.66 100ZM192.38 100.86Q179.50 100.86 179.50 87.18L179.50 87.18Q179.50 76.82 183.31 69.04Q187.13 61.26 196.49 61.26L196.49 61.26Q209.38 61.26 209.38 75.16L209.38 75.16Q209.38 85.46 205.56 93.16Q201.74 100.86 192.38 100.86L192.38 100.86ZM192.60 94.31Q197.86 94.31 199.66 87.72Q201.46 81.14 201.46 75.16L201.46 75.16Q201.46 67.82 196.34 67.82L196.34 67.82Q192.67 67.82 190.66 71.45Q188.64 75.09 188.03 79.37Q187.42 83.66 187.42 86.75L187.42 86.75Q187.42 90.57 188.64 92.44Q189.86 94.31 192.60 94.31L192.60 94.31ZM230.54 100L237.46 50.61L244.51 50.61L256.75 79.12Q257.18 80.06 257.80 81.93Q258.41 83.80 258.62 84.45L258.62 84.45L258.84 84.23Q258.91 83.58 259.06 82.07Q259.20 80.56 259.42 79.34L259.42 79.34L263.45 50.61L270.72 50.61L263.81 100L256.75 100L244.44 71.34Q243.86 69.98 243.32 68.32Q242.78 66.66 242.57 66.02L242.57 66.02L242.35 66.23Q242.28 66.81 242.17 68.28Q242.06 69.76 241.85 71.13L241.85 71.13L237.74 100L230.54 100ZM282.89 100.86Q278.21 100.86 275.54 97.44Q272.88 94.02 272.88 87.26L272.88 87.26Q272.88 78.69 274.93 72.82Q276.98 66.95 280.26 64.11Q283.54 61.26 287.28 61.26L287.28 61.26Q293.11 61.26 295.20 66.88L295.20 66.88L296.57 62.13L302.62 62.13Q301.90 66.74 300.02 79.23Q298.15 91.72 298.15 92.30L298.15 92.30Q298.15 94.31 299.88 94.31L299.88 94.31L301.54 94.31L300.74 99.71Q298.94 100.86 296.57 100.86L296.57 100.86Q294.19 100.86 292.72 99.50Q291.24 98.13 290.88 95.54L290.88 95.54Q289.30 98.20 287.21 99.53Q285.12 100.86 282.89 100.86L282.89 100.86ZM284.98 94.17Q287.86 94.17 289.62 90.86Q291.38 87.54 292.14 83.15Q292.90 78.76 292.90 75.30L292.90 75.30Q292.90 71.63 291.89 69.80Q290.88 67.96 288.65 67.96L288.65 67.96Q285.70 67.96 283.86 71.34Q282.02 74.73 281.30 79.08Q280.58 83.44 280.58 86.68L280.58 86.68Q280.58 94.17 284.98 94.17L284.98 94.17ZM305.35 100L310.61 62.13L316.80 62.13L316.80 67.96Q318.24 65.01 320.00 63.14Q321.77 61.26 324.50 61.26L324.50 61.26Q325.80 61.26 326.63 61.52Q327.46 61.77 327.67 61.84L327.67 61.84L326.66 69.40L324.22 69.40Q321.12 69.40 318.85 71.63Q316.58 73.86 315.94 78.62L315.94 78.62L312.91 100L305.35 100ZM327.17 100L332.42 62.13L338.62 62.13L338.62 67.96Q340.06 65.01 341.82 63.14Q343.58 61.26 346.32 61.26L346.32 61.26Q347.62 61.26 348.44 61.52Q349.27 61.77 349.49 61.84L349.49 61.84L348.48 69.40L346.03 69.40Q342.94 69.40 340.67 71.63Q338.40 73.86 337.75 78.62L337.75 78.62L334.73 100L327.17 100ZM362.88 100.86Q349.99 100.86 349.99 87.18L349.99 87.18Q349.99 76.82 353.81 69.04Q357.62 61.26 366.98 61.26L366.98 61.26Q379.87 61.26 379.87 75.16L379.87 75.16Q379.87 85.46 376.06 93.16Q372.24 100.86 362.88 100.86L362.88 100.86ZM363.10 94.31Q368.35 94.31 370.15 87.72Q371.95 81.14 371.95 75.16L371.95 75.16Q371.95 67.82 366.84 67.82L366.84 67.82Q363.17 67.82 361.15 71.45Q359.14 75.09 358.52 79.37Q357.91 83.66 357.91 86.75L357.91 86.75Q357.91 90.57 359.14 92.44Q360.36 94.31 363.10 94.31L363.10 94.31ZM389.52 100L385.49 62.13L392.83 62.13L394.42 79.70Q394.63 81.93 394.78 85.10Q394.92 88.26 394.99 89.56L394.99 89.56L395.06 91.22L395.35 91.22Q395.35 90.86 396.18 86.86Q397.01 82.86 398.02 79.77L398.02 79.77L403.92 62.13L411.98 62.13L412.99 79.77Q413.21 83.94 413.21 91.22L413.21 91.22L413.50 91.22Q413.78 90.06 414.76 86.25Q415.73 82.43 416.74 79.77L416.74 79.77L422.93 62.13L429.91 62.13L415.44 100L407.66 100L406.51 79.70Q406.37 77.39 406.33 74.51Q406.30 71.63 406.30 70.77L406.30 70.77L405.94 70.77Q405.94 71.27 405.36 74.69Q404.78 78.11 403.92 80.70L403.92 80.70L397.44 100L389.52 100ZM458.28 100.86Q452.38 100.86 448.81 98.06Q445.25 95.25 445.25 90.42L445.25 90.42Q445.25 89.56 445.39 88.59Q445.54 87.62 445.54 87.40L445.54 87.40L453.46 87.40Q453.17 88.55 453.17 89.42L453.17 89.42Q453.17 92.01 454.79 93.23Q456.41 94.46 458.86 94.46L458.86 94.46Q460.80 94.46 462.31 93.27Q463.82 92.08 463.82 90.06L463.82 90.06Q463.82 87.76 462.31 86.46Q460.80 85.17 457.56 83.73L457.56 83.73Q454.68 82.43 452.95 81.24Q451.22 80.06 449.96 78.00Q448.70 75.95 448.70 72.71L448.70 72.71Q448.70 67.38 452.38 64.32Q456.05 61.26 461.88 61.26L461.88 61.26Q468.00 61.26 470.77 64.65Q473.54 68.03 473.54 73.22L473.54 73.22L465.70 73.22Q465.70 70.41 464.62 69.04Q463.54 67.67 461.09 67.67L461.09 67.67Q459.36 67.67 458.03 68.79Q456.70 69.90 456.70 71.70L456.70 71.70Q456.70 73.94 458.21 75.12Q459.72 76.31 462.89 77.61L462.89 77.61Q465.77 78.83 467.57 79.95Q469.37 81.06 470.66 83.15Q471.96 85.24 471.96 88.55L471.96 88.55Q471.96 94.67 468.11 97.77Q464.26 100.86 458.28 100.86L458.28 100.86ZM490.03 100.86Q483.91 100.86 480.85 97.55Q477.79 94.24 477.79 87.47L477.79 87.47Q477.79 76.53 481.50 68.90Q485.21 61.26 494.28 61.26L494.28 61.26Q506.02 61.26 506.02 74.37L506.02 74.37Q506.02 78.83 505.30 83.08L505.30 83.08L485.71 83.08Q485.57 84.59 485.57 86.54L485.57 86.54Q485.57 90.57 486.68 92.51Q487.80 94.46 490.25 94.46L490.25 94.46Q492.62 94.46 494.32 92.30Q496.01 90.14 496.58 86.97L496.58 86.97L504.43 86.97Q503.21 93.16 499.64 97.01Q496.08 100.86 490.03 100.86L490.03 100.86ZM486.58 77.18L498.10 77.18L498.17 74.44Q498.17 71.06 497.16 69.36Q496.15 67.67 493.99 67.67L493.99 67.67Q491.11 67.67 489.31 70.34Q487.51 73 486.58 77.18L486.58 77.18ZM509.83 100L515.16 62.13L521.35 62.13L521.35 67.24Q525.02 61.26 530.93 61.26L530.93 61.26Q534.24 61.26 536.18 62.96Q538.13 64.65 538.78 67.60L538.78 67.60Q540.43 64.86 542.77 63.06Q545.11 61.26 548.64 61.26L548.64 61.26Q552.67 61.26 554.72 63.78Q556.78 66.30 556.78 70.55L556.78 70.55Q556.78 72.42 554.33 89.78L554.33 89.78L552.89 100L545.26 100L547.34 85.17Q548.93 73.72 548.93 72.57L548.93 72.57Q548.93 68.25 545.33 68.25L545.33 68.25Q542.74 68.25 540.79 70.70Q538.85 73.14 538.27 77.46L538.27 77.46L535.25 100L527.62 100L529.20 88.34Q531.22 74.01 531.22 72.57L531.22 72.57Q531.22 68.25 527.69 68.25L527.69 68.25Q525.02 68.25 523.08 70.80Q521.14 73.36 520.56 77.82L520.56 77.82L517.54 100L509.83 100ZM567.14 55.50L568.22 47.94L575.86 47.94L574.85 55.50L567.14 55.50ZM561.02 100L566.28 62.13L573.91 62.13L568.66 100L561.02 100ZM608.98 100.86Q602.57 100.86 600.41 94.89L600.41 94.89L598.82 100L592.85 100L600.05 47.94L607.75 47.94L605.23 66.09Q606.89 63.78 609.16 62.52Q611.42 61.26 614.02 61.26L614.02 61.26Q618.48 61.26 621.11 64.72Q623.74 68.18 623.74 75.02L623.74 75.02Q623.74 81.50 622.04 87.44Q620.35 93.38 617.04 97.12Q613.73 100.86 608.98 100.86L608.98 100.86ZM607.39 93.88Q610.70 93.88 612.58 90.64Q614.45 87.40 615.17 83.15Q615.89 78.90 615.89 75.23L615.89 75.23Q615.89 71.70 614.74 69.98Q613.58 68.25 611.14 68.25L611.14 68.25Q607.90 68.25 605.99 71.49Q604.08 74.73 603.32 79.01Q602.57 83.30 602.57 86.82L602.57 86.82Q602.57 90.35 603.72 92.12Q604.87 93.88 607.39 93.88L607.39 93.88ZM641.59 100.86Q628.70 100.86 628.70 87.18L628.70 87.18Q628.70 76.82 632.52 69.04Q636.34 61.26 645.70 61.26L645.70 61.26Q658.58 61.26 658.58 75.16L658.58 75.16Q658.58 85.46 654.77 93.16Q650.95 100.86 641.59 100.86L641.59 100.86ZM641.81 94.31Q647.06 94.31 648.86 87.72Q650.66 81.14 650.66 75.16L650.66 75.16Q650.66 67.82 645.55 67.82L645.55 67.82Q641.88 67.82 639.86 71.45Q637.85 75.09 637.24 79.37Q636.62 83.66 636.62 86.75L636.62 86.75Q636.62 90.57 637.85 92.44Q639.07 94.31 641.81 94.31L641.81 94.31ZM662.62 100L669.82 47.94L677.45 47.94L670.25 100L662.62 100ZM689.04 100.86Q684.29 100.86 681.62 97.41Q678.96 93.95 678.96 87.26L678.96 87.26Q678.96 78.69 681.05 72.82Q683.14 66.95 686.52 64.11Q689.90 61.26 693.72 61.26L693.72 61.26Q699.34 61.26 701.57 66.23L701.57 66.23L704.23 47.94L711.86 47.94L704.59 100L698.40 100L698.40 94.67Q694.73 100.86 689.04 100.86L689.04 100.86ZM691.56 93.88Q694.80 93.88 696.71 90.64Q698.62 87.40 699.37 83.12Q700.13 78.83 700.13 75.30L700.13 75.30Q700.13 68.25 695.38 68.25L695.38 68.25Q692.06 68.25 690.16 71.49Q688.25 74.73 687.53 78.98Q686.81 83.22 686.81 86.90L686.81 86.90Q686.81 90.42 687.92 92.15Q689.04 93.88 691.56 93.88L691.56 93.88ZM735.48 55.50L736.56 47.94L744.19 47.94L743.18 55.50L735.48 55.50ZM729.36 100L734.62 62.13L742.25 62.13L736.99 100L729.36 100ZM752.98 100.79Q749.23 100.79 747.58 98.81Q745.92 96.83 745.92 93.59L745.92 93.59Q745.92 92.44 747.36 82.40Q748.80 72.35 749.38 68.68L749.38 68.68L745.70 68.68L746.64 62.13L750.24 62.13L751.75 51.54L759.74 51.54L757.87 62.13L763.20 62.13L762.34 68.68L757.01 68.68Q756.50 72.21 755.14 81.78Q753.77 91.36 753.77 91.79L753.77 91.79Q753.77 94.31 756.43 94.31L756.43 94.31L758.66 94.31L757.94 99.93Q756.94 100.29 755.53 100.54Q754.13 100.79 752.98 100.79L752.98 100.79ZM773.57 100.86Q768.89 100.86 766.22 97.44Q763.56 94.02 763.56 87.26L763.56 87.26Q763.56 78.69 765.61 72.82Q767.66 66.95 770.94 64.11Q774.22 61.26 777.96 61.26L777.96 61.26Q783.79 61.26 785.88 66.88L785.88 66.88L787.25 62.13L793.30 62.13Q792.58 66.74 790.70 79.23Q788.83 91.72 788.83 92.30L788.83 92.30Q788.83 94.31 790.56 94.31L790.56 94.31L792.22 94.31L791.42 99.71Q789.62 100.86 787.25 100.86L787.25 100.86Q784.87 100.86 783.40 99.50Q781.92 98.13 781.56 95.54L781.56 95.54Q779.98 98.20 777.89 99.53Q775.80 100.86 773.57 100.86L773.57 100.86ZM775.66 94.17Q778.54 94.17 780.30 90.86Q782.06 87.54 782.82 83.15Q783.58 78.76 783.58 75.30L783.58 75.30Q783.58 71.63 782.57 69.80Q781.56 67.96 779.33 67.96L779.33 67.96Q776.38 67.96 774.54 71.34Q772.70 74.73 771.98 79.08Q771.26 83.44 771.26 86.68L771.26 86.68Q771.26 94.17 775.66 94.17L775.66 94.17ZM795.96 100L803.16 47.94L810.79 47.94L803.59 100L795.96 100ZM817.42 55.50L818.50 47.94L826.13 47.94L825.12 55.50L817.42 55.50ZM811.30 100L816.55 62.13L824.18 62.13L818.93 100L811.30 100ZM839.38 100.86Q827.50 100.86 827.50 87.47L827.50 87.47Q827.50 76.60 831.10 68.93Q834.70 61.26 843.70 61.26L843.70 61.26Q849.53 61.26 852.34 64.68Q855.14 68.10 855.14 75.16L855.14 75.16L855.14 76.31L847.22 76.31L847.22 75.16Q847.22 71.42 846.32 69.62Q845.42 67.82 843.26 67.82L843.26 67.82Q840.24 67.82 838.48 71.42Q836.71 75.02 836.06 79.37Q835.42 83.73 835.42 86.39L835.42 86.39Q835.42 90.35 836.42 92.33Q837.43 94.31 839.74 94.31L839.74 94.31Q842.18 94.31 843.88 91.94Q845.57 89.56 846.14 86.03L846.14 86.03L853.85 86.03Q852.55 92.66 849.10 96.76Q845.64 100.86 839.38 100.86L839.38 100.86Z"/></svg>