<svg xmlns="http://www.w3.org/2000/svg" viewBox="0.2490234375 -7.24609375 28.251953125 7.34375"><path d="M6.96 0L5.53 0L4.92-1.76L2.30-1.76L1.69 0L0.25 0L2.76-6.88L4.46-6.88L6.96 0ZM3.71-5.48L3.61-5.82L3.58-5.71Q3.53-5.54 3.46-5.31Q3.39-5.09 2.62-2.84L2.62-2.84L4.60-2.84L3.92-4.82L3.71-5.48ZM9.29 0L7.92 0L7.92-4.04Q7.92-4.48 7.91-4.77Q7.90-5.06 7.88-5.28L7.88-5.28L9.19-5.28Q9.20-5.20 9.23-4.75Q9.25-4.30 9.25-4.16L9.25-4.16L9.27-4.16Q9.47-4.71 9.63-4.94Q9.79-5.17 10-5.28Q10.21-5.39 10.54-5.39L10.54-5.39Q10.80-5.39 10.96-5.31L10.96-5.31L10.96-4.17Q10.63-4.24 10.38-4.24L10.38-4.24Q9.86-4.24 9.58-3.82Q9.29-3.41 9.29-2.59L9.29-2.59L9.29 0ZM13.18-6.24L11.81-6.24L11.81-7.25L13.18-7.25L13.18-6.24ZM13.18 0L11.81 0L11.81-5.28L13.18-5.28L13.18 0ZM19.06 0L17.70 0L17.70-2.96Q17.70-4.36 16.90-4.36L16.90-4.36Q16.48-4.36 16.22-3.93Q15.96-3.51 15.96-2.83L15.96-2.83L15.96 0L14.59 0L14.59-4.10Q14.59-4.53 14.58-4.80Q14.57-5.07 14.55-5.28L14.55-5.28L15.86-5.28Q15.87-5.19 15.90-4.79Q15.92-4.38 15.92-4.23L15.92-4.23L15.94-4.23Q16.20-4.84 16.57-5.11Q16.95-5.39 17.48-5.39L17.48-5.39Q18.69-5.39 18.95-4.23L18.95-4.23L18.98-4.23Q19.25-4.85 19.62-5.12Q20-5.39 20.58-5.39L20.58-5.39Q21.35-5.39 21.76-4.86Q22.16-4.34 22.16-3.35L22.16-3.35L22.16 0L20.80 0L20.80-2.96Q20.80-4.36 20-4.36L20-4.36Q19.60-4.36 19.34-3.97Q19.09-3.58 19.06-2.90L19.06-2.90L19.06 0ZM28.50-2.65L28.50-2.65Q28.50-1.36 27.79-0.63Q27.08 0.10 25.82 0.10L25.82 0.10Q24.58 0.10 23.88-0.63Q23.17-1.37 23.17-2.65L23.17-2.65Q23.17-3.92 23.88-4.65Q24.58-5.38 25.84-5.38L25.84-5.38Q27.14-5.38 27.82-4.68Q28.50-3.97 28.50-2.65ZM27.07-2.65L27.07-2.65Q27.07-3.59 26.76-4.01Q26.45-4.44 25.86-4.44L25.86-4.44Q24.61-4.44 24.61-2.65L24.61-2.65Q24.61-1.76 24.92-1.30Q25.22-0.84 25.80-0.84L25.80-0.84Q27.07-0.84 27.07-2.65Z"/></svg>