<svg xmlns="http://www.w3.org/2000/svg" viewBox="-3.55078125 47.828125 354.796875 52.875"><path d="M44 100L37 100L35 86L12 86L4 100L-4 100L26 50L34 50L44 100ZM30 61L29 56Q29 56 28 58Q27 59 15 80L15 80L34 80L30 61ZM74 62L73 67Q72 67 70 67L70 67Q66 67 63 70Q60 74 59 80L59 80L56 100L49 100L55 71L56 66L56 62L62 62L61 70L61 70Q64 65 66 63Q68 61 71 61L71 61Q73 61 74 62L74 62ZM88 54L82 54L83 48L90 48L88 54ZM79 100L73 100L81 62L87 62L79 100ZM117 100L111 100L116 78Q116 73 116 72L116 72Q116 69 115 68Q114 66 111 66L111 66Q107 66 104 70Q101 73 100 79L100 79L95 100L89 100L95 70Q96 67 96 62L96 62L102 62Q102 62 102 65Q102 67 101 68L101 68L101 68Q104 64 107 63Q109 61 113 61L113 61Q117 61 120 63Q122 65 123 69L123 69Q125 65 128 63Q131 61 135 61L135 61Q140 61 142 64Q145 66 145 71L145 71Q145 74 144 77L144 77L139 100L133 100L138 78Q138 73 138 72L138 72Q138 69 137 68Q136 66 133 66L133 66Q129 66 126 70Q123 73 122 79L122 79L117 100ZM186 76L186 76Q186 81 184 85Q183 90 180 94Q178 97 174 99Q170 101 165 101L165 101Q158 101 154 97Q150 92 150 85L150 85Q150 78 153 73Q155 67 160 64Q164 61 171 61L171 61Q178 61 182 65Q186 69 186 76ZM179 76L179 76Q179 66 170 66L170 66Q166 66 163 68Q160 71 158 76Q157 81 157 85L157 85Q157 91 159 93Q161 96 166 96L166 96Q169 96 171 95Q174 94 175 91Q177 88 178 84Q179 80 179 76ZM224 54L218 54L219 48L226 48L224 54ZM215 100L209 100L217 62L223 62L215 100ZM234 101L234 101Q231 101 229 99Q227 97 227 94L227 94Q227 92 228 90L228 90L232 67L228 67L229 62L233 62L237 53L241 53L239 62L247 62L246 67L239 67L234 89Q234 91 234 93L234 93Q234 96 237 96L237 96Q238 96 240 95L240 95L240 100Q236 101 234 101ZM277 100L277 100Q273 100 272 99Q270 98 270 95L270 95L271 93L270 93Q267 97 264 99Q261 101 257 101L257 101Q252 101 249 98Q246 95 246 90L246 90Q246 84 250 80Q255 77 265 77L265 77L273 77Q274 73 274 72L274 72Q274 69 272 68Q270 66 267 66L267 66Q263 66 261 68Q258 69 258 72L258 72L251 71Q253 66 257 64Q261 61 267 61L267 61Q273 61 277 64Q280 67 280 72L280 72Q280 74 280 77L280 77L277 90Q277 92 277 94L277 94Q277 96 279 96L279 96Q280 96 282 96L282 96L281 100Q279 100 277 100ZM272 86L272 81L265 81Q261 81 259 82Q257 83 255 84Q254 85 253 86Q252 88 252 90L252 90Q252 93 254 94Q256 96 258 96L258 96Q262 96 265 94Q267 93 269 91Q271 88 272 86L272 86ZM292 100L285 100L295 48L302 48L292 100ZM316 54L310 54L311 48L318 48L316 54ZM308 100L301 100L309 62L315 62L308 100ZM333 96L333 96Q340 96 343 88L343 88L348 89Q344 101 332 101L332 101Q326 101 322 97Q318 93 318 86L318 86Q318 79 321 73Q324 67 328 64Q332 61 338 61L338 61Q344 61 347 64Q351 67 351 72L351 72L345 73Q345 70 343 68Q341 66 338 66L338 66Q333 66 331 69Q328 71 326 76Q325 81 325 86L325 86Q325 96 333 96Z"/></svg>