<svg xmlns="http://www.w3.org/2000/svg" viewBox="0.140625 47.828125 430.8046875 67.11328125"><path d="M48 100L41 100L35 86L13 86L7 100L0 100L20 50L28 50L48 100ZM25 58L24 56L24 57Q23 59 21 64L21 64L15 80L33 80L27 64Q26 62 25 58L25 58ZM59 100L53 100L53 71Q53 67 53 62L53 62L59 62Q59 68 59 70L59 70L59 70Q61 65 63 63Q65 61 68 61L68 61Q70 61 71 62L71 62L71 67Q70 67 67 67L67 67Q63 67 61 70Q59 74 59 80L59 80L59 100ZM83 54L77 54L77 48L83 48L83 54ZM83 100L77 100L77 62L83 62L83 100ZM121 100L115 100L115 76Q115 70 113 68Q112 66 108 66L108 66Q104 66 102 69Q99 72 99 78L99 78L99 100L93 100L93 70Q93 63 93 62L93 62L99 62Q99 62 99 63Q99 64 99 65Q99 66 99 68L99 68L99 68Q101 64 104 63Q106 61 110 61L110 61Q115 61 117 63Q120 65 121 68L121 68L121 68Q123 65 125 63Q128 61 132 61L132 61Q138 61 141 64Q143 68 143 75L143 75L143 100L137 100L137 76Q137 70 135 68Q134 66 130 66L130 66Q126 66 124 69Q121 72 121 78L121 78L121 100ZM185 81L185 81Q185 91 181 96Q176 101 168 101L168 101Q160 101 155 96Q151 91 151 81L151 81Q151 61 168 61L168 61Q177 61 181 66Q185 71 185 81ZM178 81L178 81Q178 73 176 70Q174 66 168 66L168 66Q163 66 160 70Q158 73 158 81L158 81Q158 88 160 92Q163 96 168 96L168 96Q173 96 176 92Q178 89 178 81ZM219 100L213 100L213 71Q213 67 213 62L213 62L219 62Q219 68 219 70L219 70L219 70Q221 65 223 63Q225 61 228 61L228 61Q230 61 231 62L231 62L231 67Q230 67 227 67L227 67Q223 67 221 70Q219 74 219 80L219 80L219 100ZM269 82L242 82Q242 89 244 92Q247 96 252 96L252 96Q256 96 259 94Q261 93 262 90L262 90L268 92Q264 101 252 101L252 101Q244 101 239 96Q235 91 235 81L235 81Q235 71 239 66Q244 61 252 61L252 61Q269 61 269 81L269 81L269 82ZM242 77L262 77Q262 71 259 69Q257 66 252 66L252 66Q247 66 245 69Q242 72 242 77L242 77ZM291 115L291 115Q285 115 281 112Q278 110 277 106L277 106L283 105Q284 107 286 109Q288 110 291 110L291 110Q301 110 301 99L301 99L301 93L301 93Q299 97 296 98Q293 100 289 100L289 100Q282 100 278 96Q275 91 275 81L275 81Q275 71 279 66Q282 61 289 61L289 61Q293 61 296 63Q299 65 301 68L301 68L301 68Q301 67 301 65Q301 62 301 62L301 62L307 62Q307 64 307 70L307 70L307 99Q307 115 291 115ZM301 81L301 81Q301 76 300 73Q298 70 296 68Q294 66 291 66L291 66Q286 66 284 70Q282 73 282 81L282 81Q282 89 284 92Q286 96 291 96L291 96Q294 96 296 94Q298 92 300 89Q301 86 301 81ZM317 62L323 62L323 86Q323 90 324 92Q325 94 326 95Q328 96 331 96L331 96Q336 96 338 93Q341 90 341 84L341 84L341 62L347 62L347 92Q347 99 347 100L347 100L341 100Q341 100 341 99Q341 98 341 97Q341 96 341 93L341 93L341 93Q339 97 336 99Q333 101 329 101L329 101Q323 101 320 98Q317 94 317 87L317 87L317 62ZM363 100L357 100L357 48L363 48L363 100ZM383 101L383 101Q377 101 374 98Q371 95 371 89L371 89Q371 83 375 80Q379 77 388 77L388 77L396 77L396 75Q396 70 394 68Q392 66 388 66L388 66Q384 66 382 68Q380 69 379 72L379 72L373 72Q374 61 388 61L388 61Q395 61 399 65Q403 68 403 74L403 74L403 90Q403 93 403 95Q404 96 406 96L406 96Q407 96 408 96L408 96L408 100Q406 100 403 100L403 100Q400 100 398 99Q397 97 396 93L396 93L396 93Q394 97 390 99Q387 101 383 101ZM384 96L384 96Q388 96 390 94Q393 93 395 90Q396 87 396 84L396 84L396 81L389 81Q385 81 382 82Q380 83 379 85Q378 87 378 89L378 89Q378 93 379 94Q381 96 384 96ZM419 100L413 100L413 71Q413 67 413 62L413 62L419 62Q419 68 419 70L419 70L419 70Q421 65 423 63Q425 61 428 61L428 61Q430 61 431 62L431 62L431 67Q430 67 428 67L428 67Q424 67 422 70Q419 74 419 80L419 80L419 100Z"/></svg>