<svg xmlns="http://www.w3.org/2000/svg" viewBox="-1.4765625 47.828125 564.46875 52.91015625"><path d="M46.79 100L36.53 100L34.59 87.34L15.71 87.34L8.86 100L-1.48 100L26.19 50.46L38.43 50.46L46.79 100ZM30.80 58.09L30.80 58.09Q30.06 60.34 27.35 65.55L27.35 65.55L19.90 79.54L33.79 79.54L31.43 63.65Q30.80 58.90 30.80 58.09ZM83.29 61.75L81.67 70.01Q79.24 69.48 77.66 69.48L77.66 69.48Q73.34 69.48 70.61 72.54Q67.89 75.60 66.66 81.93L66.66 81.93L63.11 100L53.23 100L58.89 70.82Q59.73 66.60 60.36 61.96L60.36 61.96L69.79 61.96L69.01 68.01L68.73 69.73L68.87 69.73Q71.44 65.02 73.93 63.14Q76.43 61.26 79.66 61.26L79.66 61.26Q81.32 61.26 83.29 61.75L83.29 61.75ZM99.81 55.11L89.93 55.11L91.37 47.83L101.25 47.83L99.81 55.11ZM91.09 100L81.25 100L88.63 61.96L98.51 61.96L91.09 100ZM146.50 68.64L146.50 68.64Q143.30 68.64 140.94 71.35Q138.59 74.05 137.67 78.66L137.67 78.66L133.49 100L123.68 100L128.00 77.68Q128.60 74.48 128.60 72.89L128.60 72.89Q128.60 68.64 124.17 68.64L124.17 68.64Q121.08 68.64 118.67 71.29Q116.26 73.95 115.31 78.77L115.31 78.77L111.16 100L101.25 100L107.09 70.08Q107.79 66.74 108.46 61.96L108.46 61.96L118.02 61.96Q118.02 62.35 117.65 64.69Q117.28 67.02 117.04 68.46L117.04 68.46L117.14 68.46Q119.85 64.39 122.47 62.84Q125.09 61.29 128.67 61.29L128.67 61.29Q133.03 61.29 135.56 63.38Q138.09 65.48 138.59 69.45L138.59 69.45Q141.40 65.05 144.30 63.17Q147.20 61.29 151.03 61.29L151.03 61.29Q155.88 61.29 158.47 63.86Q161.05 66.43 161.05 71.28L161.05 71.28Q161.05 73.53 160.31 77.04L160.31 77.04L155.81 100L146.00 100L150.29 77.96Q150.93 74.79 150.93 73.07L150.93 73.07L150.93 72.89Q150.82 68.64 146.50 68.64ZM205.70 75.99L205.70 75.99Q205.70 83.27 202.83 88.93Q199.97 94.59 194.71 97.64Q189.46 100.70 182.85 100.70L182.85 100.70Q175.18 100.70 170.72 96.57Q166.25 92.44 166.25 85.27L166.25 85.27Q166.25 78.20 169.05 72.75Q171.84 67.30 177.01 64.30Q182.18 61.29 188.79 61.29L188.79 61.29Q197.05 61.29 201.38 65.14Q205.70 68.99 205.70 75.99ZM195.36 76.73L195.36 76.73Q195.36 68.04 188.05 68.04L188.05 68.04Q184.04 68.04 181.67 70.15Q179.30 72.26 177.96 76.57Q176.63 80.88 176.63 84.85L176.63 84.85Q176.63 93.95 183.94 93.95L183.94 93.95Q187.88 93.95 190.18 91.97Q192.48 89.98 193.80 85.94Q195.12 81.89 195.36 76.73ZM258.08 61.26L258.08 61.26Q263.67 61.26 266.80 64.58Q269.93 67.90 269.93 73.70L269.93 73.70L269.93 74.20Q269.93 80.80 267.75 87.54Q265.57 94.27 261.62 97.49Q257.66 100.70 251.54 100.70L251.54 100.70Q247.15 100.70 244.41 98.88Q241.66 97.05 240.54 93.74L240.54 93.74L240.47 93.74L239.48 97.64L238.78 100L229.25 100Q229.43 99.47 229.94 97.12Q230.45 94.76 230.98 92.16L230.98 92.16L239.63 47.83L249.50 47.83L246.55 62.84Q245.57 67.90 245.43 67.90L245.43 67.90L245.57 67.90Q247.54 64.95 250.68 63.10Q253.83 61.26 258.08 61.26ZM253.86 68.11L253.86 68.11Q249.43 68.11 246.78 71.21Q244.13 74.30 242.93 80.52L242.93 80.52Q242.33 83.79 242.33 85.90L242.33 85.90Q242.33 89.66 244.20 91.79Q246.06 93.92 249.40 93.92L249.40 93.92Q252.95 93.92 254.95 91.72Q256.96 89.52 258.29 84.27Q259.63 79.01 259.63 75.60L259.63 75.60Q259.63 71.91 258.38 70.01Q257.13 68.11 253.86 68.11ZM313.66 75.99L313.66 75.99Q313.66 83.27 310.80 88.93Q307.93 94.59 302.68 97.64Q297.42 100.70 290.81 100.70L290.81 100.70Q283.15 100.70 278.68 96.57Q274.22 92.44 274.22 85.27L274.22 85.27Q274.22 78.20 277.01 72.75Q279.81 67.30 284.98 64.30Q290.14 61.29 296.75 61.29L296.75 61.29Q305.02 61.29 309.34 65.14Q313.66 68.99 313.66 75.99ZM303.33 76.73L303.33 76.73Q303.33 68.04 296.02 68.04L296.02 68.04Q292.01 68.04 289.63 70.15Q287.26 72.26 285.93 76.57Q284.59 80.88 284.59 84.85L284.59 84.85Q284.59 93.95 291.90 93.95L291.90 93.95Q295.84 93.95 298.14 91.97Q300.45 89.98 301.76 85.94Q303.08 81.89 303.33 76.73ZM327.06 100L317.21 100L327.34 47.83L337.22 47.83L327.06 100ZM362.46 94.38L362.32 94.38Q359.82 97.64 356.92 99.19Q354.02 100.74 349.77 100.74L349.77 100.74Q344.36 100.74 341.19 97.15Q338.03 93.57 338.03 87.55L338.03 87.55Q338.03 80.84 340.28 74.41Q342.53 67.97 346.59 64.62Q350.65 61.26 356.38 61.26L356.38 61.26Q365.38 61.26 367.42 68.22L367.42 68.22L367.59 68.22Q367.66 67.52 367.88 66.11Q368.09 64.70 368.51 62.52L368.51 62.52L371.46 47.83L381.20 47.83L372.83 91.88Q372.13 95.82 371.81 100L371.81 100L361.93 100Q361.93 97.79 362.46 94.38L362.46 94.38ZM354.09 93.95L354.09 93.95Q356.94 93.95 358.98 92.74Q361.02 91.53 362.46 89.01Q363.90 86.50 364.75 82.70Q365.59 78.91 365.59 76.06L365.59 76.06Q365.59 71.84 363.94 69.92Q362.29 68.01 358.98 68.01L358.98 68.01Q355.39 68.01 353.13 70.43Q350.86 72.86 349.66 77.54Q348.47 82.21 348.47 86.18L348.47 86.18Q348.47 93.95 354.09 93.95ZM419.77 55.11L409.89 55.11L411.33 47.83L421.21 47.83L419.77 55.11ZM411.05 100L401.20 100L408.59 61.96L418.46 61.96L411.05 100ZM433.20 100.56L433.20 100.56Q428.84 100.56 426.45 98.51Q424.05 96.45 424.05 92.65L424.05 92.65Q424.05 90.16 424.62 87.13L424.62 87.13L428.20 68.64L423 68.64L424.30 61.96L430.00 61.96L434.81 53.03L441 53.03L439.31 61.96L446.41 61.96L445.18 68.64L437.98 68.64L434.32 87.45Q433.93 89.42 433.93 90.58L433.93 90.58Q433.93 92.20 434.76 92.99Q435.59 93.78 436.99 93.78L436.99 93.78Q438.12 93.78 440.79 93.32L440.79 93.32L439.66 99.72Q436.82 100.56 433.20 100.56ZM475.31 100.35L475.31 100.35Q471.80 100.35 469.90 98.88Q468 97.40 468 94.97L468 94.97Q468 93.67 468.18 92.72L468.18 92.72L467.96 92.72Q465.01 97.29 462.13 99.00Q459.25 100.70 455.10 100.70L455.10 100.70Q450.18 100.70 447.24 97.77Q444.30 94.83 444.30 90.23L444.30 90.23Q444.30 83.72 448.79 80.40Q453.27 77.08 463.32 76.90L463.32 76.90L470.04 76.80Q470.78 73.46 470.78 72.19L470.78 72.19Q470.78 67.69 466.31 67.69L466.31 67.69Q463.01 67.69 461.39 68.97Q459.77 70.26 459.18 72.68L459.18 72.68L449.93 71.59Q451.13 66.53 455.33 63.89Q459.53 61.26 466.49 61.26L466.49 61.26Q473.77 61.26 477.16 63.82Q480.55 66.39 480.55 71.63L480.55 71.63Q480.55 72.93 479.71 77.15L479.71 77.15L477.21 89.56Q476.93 91.14 476.93 92.09L476.93 92.09Q476.93 92.93 477.28 93.39Q477.63 93.85 478.09 94.06Q478.55 94.27 479.00 94.32Q479.46 94.38 479.71 94.38L479.71 94.38Q480.76 94.38 481.89 94.13L481.89 94.13L481.39 99.58Q479.92 100.14 478.41 100.25Q476.89 100.35 475.31 100.35ZM468.18 85.55L468.95 82.32L463.25 82.32Q459.14 82.39 456.77 84.00Q454.39 85.62 454.39 88.57L454.39 88.57Q454.39 91.04 455.78 92.42Q457.17 93.81 459.53 93.81L459.53 93.81Q462.45 93.81 464.84 91.54Q467.23 89.28 468.18 85.55L468.18 85.55ZM495.07 100L485.23 100L495.35 47.83L505.23 47.83L495.07 100ZM523.79 55.11L513.91 55.11L515.36 47.83L525.23 47.83L523.79 55.11ZM515.07 100L505.23 100L512.61 61.96L522.49 61.96L515.07 100ZM542.85 93.92L542.85 93.92Q545.77 93.92 547.66 92.07Q549.56 90.23 550.69 86.61L550.69 86.61L560.21 88.36Q556.45 100.70 542.29 100.70L542.29 100.70Q534.55 100.70 530.38 96.75Q526.22 92.79 526.22 85.76L526.22 85.76Q526.22 78.91 529.00 72.89Q531.77 66.88 536.40 64.07Q541.02 61.26 547.91 61.26L547.91 61.26Q554.55 61.26 558.53 64.62Q562.50 67.97 562.99 73.95L562.99 73.95L553.01 74.76Q552.62 68.04 547.14 68.04L547.14 68.04Q543.38 68.04 541.25 70.63Q539.12 73.21 537.40 79.79L537.40 79.79Q536.59 83.83 536.59 85.69L536.59 85.69Q536.59 93.92 542.85 93.92Z"/></svg>