<svg xmlns="http://www.w3.org/2000/svg" viewBox="0.1318359375 -7.40234375 24.4384765625 7.5244140625"><path d="M4.36 0L4.36-1.34L5.10-1.34L4.77-2.40L2.49-2.40L2.16-1.34L2.94-1.34L2.94 0L0.13 0L0.13-1.34L0.68-1.34L2.70-7.40L4.66-7.40L6.63-1.34L7.17-1.34L7.17 0L4.36 0ZM3.62-6.06L2.88-3.65L4.37-3.65L3.62-6.06ZM12.26-5.05L12.26-3.22L10.89-3.22L10.89-3.74Q10.69-3.74 10.52-3.71Q10.36-3.69 10.23-3.62Q10.11-3.56 10.02-3.45Q9.94-3.33 9.90-3.17L9.90-3.17L9.90-1.34L10.93-1.34L10.93 0L7.63 0L7.63-1.34L8.39-1.34L8.39-3.72L7.64-3.72L7.64-5.06L9.89-5.06L9.89-4.70Q10.11-4.87 10.38-4.97Q10.64-5.06 10.96-5.06L10.96-5.06Q11.28-5.06 11.63-5.05Q11.97-5.05 12.26-5.05L12.26-5.05ZM12.90-3.72L12.90-5.06L15.54-5.06L15.54-3.72L14.93-3.72L15.75-1.55L16.55-3.72L16.00-3.72L16.00-5.06L18.64-5.06L18.64-3.72L17.97-3.72L16.46 0.02L14.97 0.02L13.46-3.72L12.90-3.72ZM19.19-2.55L19.19-2.55Q19.19-3.10 19.39-3.58Q19.59-4.07 19.95-4.43Q20.30-4.79 20.80-5Q21.29-5.21 21.88-5.21L21.88-5.21Q22.47-5.21 22.97-5Q23.46-4.79 23.82-4.43Q24.17-4.07 24.37-3.58Q24.57-3.10 24.57-2.55L24.57-2.55Q24.57-2.00 24.38-1.51Q24.18-1.03 23.83-0.66Q23.48-0.30 22.98-0.09Q22.49 0.12 21.88 0.12L21.88 0.12Q21.27 0.12 20.77-0.09Q20.28-0.30 19.93-0.66Q19.58-1.02 19.38-1.51Q19.19-1.99 19.19-2.55ZM20.65-2.55L20.65-2.55Q20.65-2.26 20.75-2.02Q20.84-1.78 21.01-1.60Q21.18-1.43 21.40-1.33Q21.63-1.23 21.88-1.23L21.88-1.23Q22.14-1.23 22.36-1.33Q22.58-1.42 22.75-1.60Q22.91-1.77 23.00-2.01Q23.10-2.26 23.10-2.55L23.10-2.55Q23.10-2.85 23.00-3.10Q22.91-3.34 22.75-3.51Q22.58-3.68 22.36-3.77Q22.14-3.86 21.88-3.86L21.88-3.86Q21.63-3.86 21.40-3.77Q21.18-3.68 21.01-3.51Q20.84-3.34 20.75-3.10Q20.65-2.85 20.65-2.55Z"/></svg>