<svg xmlns="http://www.w3.org/2000/svg" viewBox="0.94921875 45.296875 357.328125 55.58203125"><path d="M31.39 100L31.39 90.37L36.70 90.37L34.31 82.70L17.93 82.70L15.54 90.37L21.16 90.37L21.16 100L0.95 100L0.95 90.37L4.92 90.37L19.44 46.70L33.54 46.70L47.74 90.37L51.61 90.37L51.61 100L31.39 100ZM26.05 56.37L20.71 73.70L31.46 73.70L26.05 56.37ZM88.28 63.65L88.28 76.83L78.40 76.83L78.40 73.07Q76.96 73.07 75.76 73.26Q74.57 73.46 73.67 73.91Q72.77 74.37 72.16 75.18Q71.54 75.99 71.30 77.18L71.30 77.18L71.30 90.37L78.71 90.37L78.71 100L54.95 100L54.95 90.37L60.40 90.37L60.40 73.21L55.02 73.21L55.02 63.58L71.23 63.58L71.23 66.14Q72.77 64.91 74.71 64.25Q76.64 63.58 78.93 63.58L78.93 63.58Q81.25 63.58 83.71 63.61Q86.17 63.65 88.28 63.65L88.28 63.65ZM92.88 73.21L92.88 63.58L111.90 63.58L111.90 73.21L107.47 73.21L113.41 88.86L119.14 73.21L115.21 73.21L115.21 63.58L134.23 63.58L134.23 73.21L129.38 73.21L118.51 100.14L107.79 100.14L96.93 73.21L92.88 73.21ZM138.16 81.65L138.16 81.65Q138.16 77.68 139.61 74.20Q141.05 70.71 143.61 68.11Q146.18 65.51 149.73 64Q153.28 62.49 157.54 62.49L157.54 62.49Q161.79 62.49 165.36 64Q168.93 65.51 171.49 68.11Q174.06 70.71 175.48 74.20Q176.91 77.68 176.91 81.65L176.91 81.65Q176.91 85.62 175.52 89.12Q174.13 92.62 171.58 95.24Q169.03 97.86 165.46 99.37Q161.89 100.88 157.54 100.88L157.54 100.88Q153.14 100.88 149.57 99.37Q146.00 97.86 143.47 95.25Q140.94 92.65 139.55 89.15Q138.16 85.66 138.16 81.65ZM148.68 81.65L148.68 81.65Q148.68 83.72 149.38 85.46Q150.08 87.20 151.29 88.47Q152.51 89.73 154.11 90.44Q155.71 91.14 157.54 91.14L157.54 91.14Q159.40 91.14 161.00 90.46Q162.60 89.77 163.78 88.50Q164.95 87.24 165.62 85.50Q166.29 83.76 166.29 81.65L166.29 81.65Q166.29 79.47 165.62 77.71Q164.95 75.95 163.78 74.72Q162.60 73.49 161.00 72.84Q159.40 72.19 157.54 72.23L157.54 72.23Q155.71 72.19 154.11 72.84Q152.51 73.49 151.29 74.72Q150.08 75.95 149.38 77.71Q148.68 79.47 148.68 81.65ZM194.84 54.93L194.84 45.30L210.73 45.30L210.73 64.39Q212.63 63.47 214.63 62.98Q216.63 62.49 218.74 62.49L218.74 62.49Q222.79 62.49 226.23 64Q229.68 65.51 232.17 68.11Q234.67 70.71 236.09 74.20Q237.52 77.68 237.52 81.58L237.52 81.58Q237.52 85.52 236.13 89.00Q234.74 92.48 232.24 95.06Q229.75 97.64 226.30 99.14Q222.86 100.63 218.74 100.63L218.74 100.63Q216.53 100.63 214.52 100.21Q212.52 99.79 210.73 99.02L210.73 99.02L210.73 100L199.93 100L199.93 54.93L194.84 54.93ZM218.00 72.19L218.00 72.19Q215.68 72.19 213.84 73.25Q211.99 74.30 210.73 76.27L210.73 76.27L210.73 87.17Q211.85 88.86 213.73 89.89Q215.61 90.93 217.93 90.93L217.93 90.93Q219.73 90.93 221.34 90.28Q222.96 89.63 224.17 88.42Q225.39 87.20 226.09 85.50Q226.79 83.79 226.79 81.65L226.79 81.65Q226.79 79.47 226.09 77.71Q225.39 75.95 224.19 74.72Q223.00 73.49 221.40 72.84Q219.80 72.19 218.00 72.19ZM242.23 81.65L242.23 81.65Q242.23 77.68 243.67 74.20Q245.11 70.71 247.68 68.11Q250.24 65.51 253.79 64Q257.34 62.49 261.60 62.49L261.60 62.49Q265.85 62.49 269.42 64Q272.99 65.51 275.55 68.11Q278.12 70.71 279.54 74.20Q280.97 77.68 280.97 81.65L280.97 81.65Q280.97 85.62 279.58 89.12Q278.19 92.62 275.64 95.24Q273.09 97.86 269.53 99.37Q265.96 100.88 261.60 100.88L261.60 100.88Q257.20 100.88 253.63 99.37Q250.07 97.86 247.54 95.25Q245.00 92.65 243.62 89.15Q242.23 85.66 242.23 81.65ZM252.74 81.65L252.74 81.65Q252.74 83.72 253.44 85.46Q254.14 87.20 255.36 88.47Q256.57 89.73 258.17 90.44Q259.77 91.14 261.60 91.14L261.60 91.14Q263.46 91.14 265.06 90.46Q266.66 89.77 267.84 88.50Q269.02 87.24 269.68 85.50Q270.35 83.76 270.35 81.65L270.35 81.65Q270.35 79.47 269.68 77.71Q269.02 75.95 267.84 74.72Q266.66 73.49 265.06 72.84Q263.46 72.19 261.60 72.23L261.60 72.23Q259.77 72.19 258.17 72.84Q256.57 73.49 255.36 74.72Q254.14 75.95 253.44 77.71Q252.74 79.47 252.74 81.65ZM285.54 54.93L285.54 45.30L301.96 45.30L301.96 90.37L307.58 90.37L307.58 100L285.54 100L285.54 90.37L291.16 90.37L291.16 54.93L285.54 54.93ZM335.25 54.93L335.25 45.30L351.18 45.30L351.18 90.37L358.28 90.37L358.28 100L340.35 100L340.35 98.59Q338.45 99.58 336.46 100.14Q334.48 100.70 332.44 100.70L332.44 100.70Q328.25 100.70 324.76 99.21Q321.26 97.71 318.74 95.11Q316.23 92.51 314.82 89.01Q313.42 85.52 313.42 81.51L313.42 81.51Q313.42 77.50 314.81 74.04Q316.20 70.57 318.67 68.01Q321.15 65.44 324.62 63.96Q328.08 62.49 332.23 62.49L332.23 62.49Q334.51 62.49 336.52 62.93Q338.52 63.37 340.35 64.18L340.35 64.18L340.35 54.93L335.25 54.93ZM333.04 91L333.04 91Q335.36 90.93 337.24 89.80Q339.12 88.68 340.35 86.85L340.35 86.85L340.35 76.13Q339.12 74.27 337.17 73.23Q335.21 72.19 333.04 72.23L333.04 72.23Q331.21 72.19 329.61 72.86Q328.01 73.53 326.79 74.76Q325.58 75.99 324.88 77.71Q324.18 79.43 324.18 81.61L324.18 81.61Q324.18 83.76 324.88 85.50Q325.58 87.24 326.79 88.45Q328.01 89.66 329.61 90.30Q331.21 90.93 333.04 91Z"/></svg>