<svg xmlns="http://www.w3.org/2000/svg" viewBox="-5.2734375 45.296875 382.5 55.58203125"><path d="M31 100L32 94L37 94L35 82L15 82L9 94L13 94L12 100L-5 100L-4 94L1 94L27 47L39 47L44 94L50 94L48 100L31 100ZM32 52L19 76L35 76L32 52ZM87 64L85 74L78 74L79 69Q75 69 73 71Q71 73 69 76L69 76L65 94L71 94L70 100L56 100L63 70L56 70L58 64L72 64L70 69Q71 67 73 66Q74 66 75 65Q76 64 78 64Q79 63 80 63L80 63Q82 63 82 63Q83 63 84 63Q85 64 87 64L87 64ZM92 70L93 64L106 64L105 70L102 70L104 92L119 70L116 70L117 64L130 64L129 70L126 70L105 101L99 101L95 70L92 70ZM132 84L132 84Q132 81 132 78Q133 76 134 73Q136 71 138 69Q140 67 142 65Q144 64 147 63Q150 62 153 62L153 62Q156 62 159 64Q162 65 165 67Q167 70 168 73Q170 76 170 79L170 79Q170 82 169 85Q168 88 167 90Q165 93 163 95Q161 97 159 98Q157 99 154 100Q151 101 148 101L148 101Q145 101 142 100Q139 98 136 96Q134 94 133 91Q132 88 132 84ZM139 84L139 84Q139 86 140 88Q140 90 142 92Q143 93 145 94Q147 95 149 95L149 95Q151 95 154 94Q156 92 158 90Q160 88 161 86Q162 83 162 79L162 79Q162 77 161 75Q161 73 159 72Q158 70 156 69Q154 69 152 69L152 69Q150 69 147 70Q145 71 143 73Q141 75 140 78Q139 80 139 84ZM194 70L196 64L209 64L202 94L208 94L207 100L194 100L201 70L194 70ZM203 51L203 51Q203 50 203 49Q203 48 204 47Q205 47 205 47Q206 46 207 46L207 46Q208 46 209 47Q210 47 211 47Q211 48 212 49Q212 50 212 51L212 51Q212 52 212 53Q211 53 211 54Q210 55 209 55Q208 55 207 55L207 55Q206 55 205 55Q205 55 204 54Q203 53 203 53Q203 52 203 51ZM219 70L221 64L227 64L229 55L237 52L234 64L241 64L240 70L232 70L228 89Q227 90 227 91Q227 91 227 92L227 92Q227 94 228 94Q229 95 231 95L231 95Q233 95 236 94L236 94L236 99Q234 100 233 100Q231 101 229 101L229 101Q227 101 225 100Q223 100 222 99Q221 97 220 95Q220 93 220 90L220 90L225 70L219 70ZM269 100L269 98Q267 99 265 100Q262 101 260 101L260 101Q257 101 254 99Q251 98 250 96Q248 94 246 92Q245 89 245 86L245 86Q245 81 247 76Q249 72 252 69Q255 66 259 64Q263 63 268 63L268 63Q271 63 273 63Q275 64 277 65L277 65L277 64L284 64L277 94L283 94L281 100L269 100ZM261 95L261 95Q263 95 264 94Q265 94 267 93Q268 93 269 92Q270 92 271 91L271 91L275 71Q274 70 272 70Q271 69 267 69L267 69Q265 69 262 70Q259 71 257 73Q255 75 254 78Q253 81 253 85L253 85Q253 87 253 89Q254 91 255 92Q256 93 258 94Q259 95 261 95ZM296 51L297 45L311 45L300 94L306 94L305 100L292 100L303 51L296 51ZM317 70L318 64L332 64L325 94L330 94L329 100L316 100L323 70L317 70ZM325 51L325 51Q325 50 325 49Q326 48 326 47Q327 47 328 47Q328 46 329 46L329 46Q330 46 331 47Q332 47 333 47Q333 48 334 49Q334 50 334 51L334 51Q334 52 334 53Q333 53 333 54Q332 55 331 55Q330 55 329 55L329 55Q328 55 328 55Q327 55 326 54Q326 53 325 53Q325 52 325 51ZM369 74L369 74Q368 73 367 72Q366 71 365 70Q364 69 363 69Q361 69 360 69L360 69Q358 69 356 70Q353 71 352 73Q350 75 348 77Q347 80 347 84L347 84Q347 86 348 88Q349 90 350 92Q351 93 353 94Q355 95 357 95L357 95Q358 95 359 94Q361 94 362 94Q363 93 364 92Q365 91 366 90L366 90L371 94Q370 96 368 97Q366 98 364 99Q362 100 360 101Q358 101 356 101L356 101Q353 101 350 100Q347 98 345 96Q342 94 341 91Q340 88 340 84L340 84Q340 79 342 75Q343 71 346 69Q349 66 353 64Q357 62 360 62L360 62Q362 62 364 63Q366 63 367 64Q369 65 370 66Q372 67 373 68L373 68L377 68L376 74L369 74Z"/></svg>