<svg xmlns="http://www.w3.org/2000/svg" viewBox="-0.732421875 -7.40234375 24.2822265625 7.5244140625"><path d="M4.30 0L4.49-0.84L5.11-0.84L4.93-2.51L2.12-2.51L1.19-0.84L1.86-0.84L1.67 0L-0.73 0L-0.54-0.84L0.10-0.84L3.81-7.40L5.39-7.40L6.16-0.84L6.89-0.84L6.70 0L4.30 0ZM4.47-6.71L2.59-3.35L4.83-3.35L4.47-6.71ZM12.12-5.03L11.80-3.66L10.81-3.66L10.95-4.26Q10.47-4.26 10.14-4.02Q9.81-3.77 9.59-3.38L9.59-3.38L9.01-0.84L9.85-0.84L9.66 0L7.83 0L8.80-4.22L7.84-4.22L8.04-5.06L9.95-5.06L9.79-4.37Q9.92-4.52 10.08-4.66Q10.23-4.79 10.41-4.89Q10.58-4.99 10.77-5.04Q10.96-5.10 11.15-5.10L11.15-5.10Q11.32-5.10 11.45-5.09Q11.58-5.09 11.72-5.08Q11.87-5.06 12.12-5.03L12.12-5.03ZM12.72-4.22L12.92-5.06L14.77-5.06L14.57-4.22L14.18-4.22L14.49-1.10L16.47-4.22L16.06-4.22L16.26-5.06L18.11-5.06L17.91-4.22L17.52-4.22L14.62 0.08L13.76 0.08L13.20-4.22L12.72-4.22ZM18.27-2.19L18.27-2.19Q18.27-2.61 18.37-3.00Q18.48-3.38 18.67-3.72Q18.86-4.06 19.13-4.33Q19.40-4.60 19.73-4.80Q20.06-5.00 20.43-5.10Q20.81-5.21 21.21-5.21L21.21-5.21Q21.71-5.21 22.14-5.03Q22.57-4.85 22.88-4.54Q23.19-4.23 23.37-3.82Q23.55-3.40 23.55-2.92L23.55-2.92Q23.55-2.50 23.44-2.10Q23.33-1.71 23.14-1.38Q22.95-1.04 22.68-0.76Q22.41-0.48 22.08-0.29Q21.75-0.09 21.38 0.01Q21.00 0.12 20.60 0.12L20.60 0.12Q20.09 0.12 19.66-0.06Q19.24-0.23 18.93-0.55Q18.61-0.86 18.44-1.28Q18.27-1.70 18.27-2.19ZM19.29-2.26L19.29-2.26Q19.29-1.92 19.39-1.64Q19.49-1.36 19.67-1.16Q19.85-0.96 20.10-0.85Q20.36-0.74 20.66-0.74L20.66-0.74Q21.02-0.74 21.35-0.90Q21.69-1.05 21.95-1.33Q22.21-1.61 22.37-2.00Q22.53-2.39 22.53-2.86L22.53-2.86Q22.53-3.20 22.42-3.48Q22.32-3.75 22.13-3.95Q21.95-4.14 21.70-4.25Q21.45-4.35 21.15-4.35L21.15-4.35Q20.79-4.35 20.45-4.20Q20.12-4.04 19.86-3.77Q19.60-3.49 19.44-3.11Q19.29-2.72 19.29-2.26Z"/></svg>