<svg xmlns="http://www.w3.org/2000/svg" viewBox="0.94921875 45.296875 357.328125 55.58203125"><path d="M31 100L31 90L37 90L34 83L18 83L16 90L21 90L21 100L1 100L1 90L5 90L19 47L34 47L48 90L52 90L52 100L31 100ZM26 56L21 74L31 74L26 56ZM88 64L88 77L78 77L78 73Q77 73 76 73Q75 73 74 74Q73 74 72 75Q72 76 71 77L71 77L71 90L79 90L79 100L55 100L55 90L60 90L60 73L55 73L55 64L71 64L71 66Q73 65 75 64Q77 64 79 64L79 64Q81 64 84 64Q86 64 88 64L88 64ZM93 73L93 64L112 64L112 73L107 73L113 89L119 73L115 73L115 64L134 64L134 73L129 73L119 100L108 100L97 73L93 73ZM138 82L138 82Q138 78 140 74Q141 71 144 68Q146 66 150 64Q153 62 158 62L158 62Q162 62 165 64Q169 66 171 68Q174 71 175 74Q177 78 177 82L177 82Q177 86 176 89Q174 93 172 95Q169 98 165 99Q162 101 158 101L158 101Q153 101 150 99Q146 98 143 95Q141 93 140 89Q138 86 138 82ZM149 82L149 82Q149 84 149 85Q150 87 151 88Q153 90 154 90Q156 91 158 91L158 91Q159 91 161 90Q163 90 164 89Q165 87 166 85Q166 84 166 82L166 82Q166 79 166 78Q165 76 164 75Q163 73 161 73Q159 72 158 72L158 72Q156 72 154 73Q153 73 151 75Q150 76 149 78Q149 79 149 82ZM195 55L195 45L211 45L211 64Q213 63 215 63Q217 62 219 62L219 62Q223 62 226 64Q230 66 232 68Q235 71 236 74Q238 78 238 82L238 82Q238 86 236 89Q235 92 232 95Q230 98 226 99Q223 101 219 101L219 101Q217 101 215 100Q213 100 211 99L211 99L211 100L200 100L200 55L195 55ZM218 72L218 72Q216 72 214 73Q212 74 211 76L211 76L211 87Q212 89 214 90Q216 91 218 91L218 91Q220 91 221 90Q223 90 224 88Q225 87 226 85Q227 84 227 82L227 82Q227 79 226 78Q225 76 224 75Q223 73 221 73Q220 72 218 72ZM242 82L242 82Q242 78 244 74Q245 71 248 68Q250 66 254 64Q257 62 262 62L262 62Q266 62 269 64Q273 66 276 68Q278 71 280 74Q281 78 281 82L281 82Q281 86 280 89Q278 93 276 95Q273 98 270 99Q266 101 262 101L262 101Q257 101 254 99Q250 98 248 95Q245 93 244 89Q242 86 242 82ZM253 82L253 82Q253 84 253 85Q254 87 255 88Q257 90 258 90Q260 91 262 91L262 91Q263 91 265 90Q267 90 268 89Q269 87 270 85Q270 84 270 82L270 82Q270 79 270 78Q269 76 268 75Q267 73 265 73Q263 72 262 72L262 72Q260 72 258 73Q257 73 255 75Q254 76 253 78Q253 79 253 82ZM286 55L286 45L302 45L302 90L308 90L308 100L286 100L286 90L291 90L291 55L286 55ZM335 55L335 45L351 45L351 90L358 90L358 100L340 100L340 99Q338 100 336 100Q334 101 332 101L332 101Q328 101 325 99Q321 98 319 95Q316 93 315 89Q313 86 313 82L313 82Q313 78 315 74Q316 71 319 68Q321 65 325 64Q328 62 332 62L332 62Q335 62 337 63Q339 63 340 64L340 64L340 55L335 55ZM333 91L333 91Q335 91 337 90Q339 89 340 87L340 87L340 76Q339 74 337 73Q335 72 333 72L333 72Q331 72 330 73Q328 74 327 75Q326 76 325 78Q324 79 324 82L324 82Q324 84 325 85Q326 87 327 88Q328 90 330 90Q331 91 333 91Z"/></svg>