<svg xmlns="http://www.w3.org/2000/svg" viewBox="-1.6560000000000001 45.855999999999995 329.184 69.12"><path d="M1 100Q-2 100-2 99L-2 99Q-2 99-1 98L-1 98L21 51Q21 49 24 49L24 49L26 49Q28 49 29 51L29 51L41 98Q41 98 41 99L41 99Q41 100 38 100L38 100L37 100Q34 100 34 99L34 99L31 87L10 87L5 99Q4 100 2 100L2 100L1 100ZM13 82L30 82L24 60Q24 59 24 56L24 56L24 56Q23 59 22 60L22 60L13 82ZM56 100Q53 100 49 99Q46 98 46 95L46 95Q46 94 46 93Q47 92 47 92L47 92Q47 92 49 93Q50 94 52 95Q54 95 56 95L56 95Q59 95 61 94Q64 92 64 89L64 89Q64 87 62 86Q60 84 57 83L57 83Q54 82 52 81Q51 80 49 78Q48 76 48 73L48 73Q48 68 52 65Q55 62 61 62L61 62Q64 62 67 63Q70 64 70 65L70 65Q70 66 69 67Q68 69 67 69L67 69Q67 69 66 68Q65 68 64 67Q63 67 61 67L61 67Q58 67 56 68Q54 70 54 72L54 72Q54 74 56 76Q58 77 61 78L61 78Q64 79 66 80Q67 81 69 83Q70 85 70 88L70 88Q70 92 68 94Q66 97 63 99Q60 100 56 100L56 100ZM111 95Q111 95 111 95L111 95Q111 96 111 98L111 98Q111 99 109 100Q108 100 106 100L106 100Q100 100 100 93L100 93L100 93Q98 97 95 99Q92 100 89 100L89 100Q86 100 83 99Q81 98 79 94Q77 91 77 85L77 85Q77 78 79 73Q81 68 85 65Q89 62 94 62L94 62Q99 62 104 66L104 66Q104 64 105 63Q105 62 107 62L107 62L107 62Q108 62 109 63Q109 63 109 64L109 64Q109 68 107 79Q106 91 106 92L106 92Q106 94 107 95Q107 95 109 95L109 95Q109 95 110 95Q110 95 111 95L111 95ZM102 74Q102 72 102 70L102 70Q99 67 95 67L95 67Q88 67 86 72Q83 77 83 84L83 84Q83 90 85 93Q87 95 90 95L90 95Q93 95 96 92Q99 89 101 83L101 83L102 74ZM137 62Q140 62 143 63Q146 65 148 68Q150 71 150 77L150 77Q150 84 148 89Q146 94 142 97Q138 100 132 100L132 100Q129 100 127 99Q124 98 122 97L122 97L121 113Q121 114 120 115Q119 115 118 115L118 115L117 115Q115 115 115 113L115 113L119 72Q119 68 119 67L119 67Q119 66 119 65Q119 65 119 65L119 65Q119 64 121 63Q122 63 123 63L123 63Q125 63 125 68L125 68L125 69Q127 65 130 64Q133 62 137 62L137 62ZM131 95Q138 95 141 90Q144 85 144 78L144 78Q144 67 135 67L135 67Q132 67 129 70Q126 73 124 79L124 79L123 92Q124 93 126 94Q129 95 131 95L131 95ZM183 56Q181 56 180 55Q180 55 180 54L180 54L180 50Q180 48 184 48L184 48Q185 48 186 49Q187 49 187 50L187 50L186 54Q186 55 185 55Q184 56 183 56L183 56ZM183 100Q176 100 176 94L176 94Q176 92 177 87L177 87Q177 83 178 75Q179 67 179 64L179 64Q179 63 180 63Q181 62 182 62L182 62L182 62Q184 62 185 63Q185 63 185 64L185 64Q185 68 184 79Q182 91 182 92L182 92Q182 94 183 95Q184 95 185 95L185 95Q185 95 186 95Q186 95 187 95L187 95Q187 95 187 95L187 95Q187 96 187 98L187 98Q187 99 185 100Q184 100 183 100L183 100ZM205 100Q202 100 199 99Q197 97 197 93L197 93Q197 91 198 81Q199 71 199 68L199 68L196 68Q195 68 195 67Q195 67 195 66L195 66Q195 62 196 62L196 62L200 62L201 55Q201 54 202 54Q202 53 204 53L204 53L204 53Q206 53 206 54Q207 54 207 55L207 55L206 62L212 62Q213 62 213 63Q213 63 213 64L213 64Q213 64 213 65Q213 66 212 67Q211 68 210 68L210 68L205 68Q205 71 204 81Q203 90 203 91L203 91Q203 93 204 94Q205 95 206 95L206 95Q208 95 209 95Q209 95 210 95L210 95Q210 95 210 95L210 95Q210 97 210 98L210 98Q210 99 208 100Q207 100 205 100L205 100ZM252 95Q253 95 253 95L253 95Q253 96 252 98L252 98Q252 99 251 100Q249 100 248 100L248 100Q241 100 241 93L241 93L241 93Q239 97 236 99Q234 100 230 100L230 100Q228 100 225 99Q222 98 220 94Q218 91 218 85L218 85Q218 78 220 73Q223 68 227 65Q231 62 236 62L236 62Q241 62 245 66L245 66Q246 64 246 63Q247 62 248 62L248 62L249 62Q250 62 250 63Q250 63 250 64L250 64Q250 68 249 79Q248 91 248 92L248 92Q248 94 248 95Q249 95 250 95L250 95Q251 95 251 95Q252 95 252 95L252 95ZM243 74Q244 72 244 70L244 70Q240 67 236 67L236 67Q230 67 227 72Q224 77 224 84L224 84Q224 90 226 93Q228 95 232 95L232 95Q235 95 237 92Q240 89 242 83L242 83L243 74ZM267 100Q264 100 262 99Q260 97 260 94L260 94Q260 93 260 92L260 92L265 47Q265 47 266 46Q266 46 268 46L268 46L268 46Q270 46 270 46Q271 47 271 48L271 48L266 91Q266 92 266 93L266 93Q266 94 267 95Q267 95 269 95L269 95Q269 95 270 95Q270 95 271 95L271 95Q271 95 271 95L271 95Q271 96 271 98L271 98Q271 99 269 100Q268 100 267 100L267 100ZM287 56Q285 56 285 55Q284 55 284 54L284 54L284 50Q285 48 288 48L288 48Q290 48 290 49Q291 49 291 50L291 50L291 54Q291 55 290 55Q289 56 287 56L287 56ZM287 100Q281 100 281 94L281 94Q281 92 281 87L281 87Q281 83 282 75Q283 67 283 64L283 64Q284 63 284 63Q285 62 286 62L286 62L287 62Q288 62 289 63Q290 63 290 64L290 64Q289 68 288 79Q287 91 287 92L287 92Q287 94 287 95Q288 95 289 95L289 95Q290 95 290 95Q291 95 291 95L291 95Q292 95 292 95L292 95Q292 96 291 98L291 98Q291 99 290 100Q288 100 287 100L287 100ZM314 100Q306 100 302 97Q298 93 298 85L298 85Q298 75 303 69Q308 62 317 62L317 62Q321 62 323 63Q325 63 326 64Q328 65 328 66L328 66Q328 66 327 68Q326 69 325 69L325 69Q325 69 324 69Q323 69 323 68L323 68Q321 67 317 67L317 67Q311 67 308 71Q305 76 305 85L305 85Q305 90 307 93Q309 95 314 95L314 95Q319 95 322 94L322 94Q324 93 324 93L324 93Q324 93 324 93Q325 93 325 94L325 94Q325 96 324 97Q324 98 323 98L323 98Q322 99 319 100Q316 100 314 100L314 100Z"/></svg>