<svg xmlns="http://www.w3.org/2000/svg" viewBox="-2.3040000000000003 45.711999999999996 658.0080000000002 69.19200000000001"><path d="M1 100Q-2 100-2 99L-2 99Q-2 98-2 97L-2 97L19 51Q20 49 23 49L23 49L26 49Q30 49 30 51L30 51L42 98Q42 98 42 99L42 99Q42 99 41 100Q40 100 38 100L38 100L36 100Q33 100 32 99L32 99L30 89L11 89L7 99Q6 100 3 100L3 100L1 100ZM15 81L28 81L24 65Q24 63 24 60L24 60L23 60Q23 63 22 65L22 65L15 81ZM56 101Q53 101 49 100Q46 99 46 96L46 96Q46 93 46 92Q47 91 47 91L47 91Q47 91 49 91Q50 92 52 93Q53 93 55 93L55 93Q58 93 60 92Q61 91 61 89L61 89Q61 88 60 87Q60 86 59 85Q58 85 55 84L55 84Q52 83 50 80Q47 78 47 74L47 74Q47 68 51 65Q55 62 61 62L61 62Q65 62 68 63Q71 64 71 66L71 66Q71 67 70 69Q69 71 68 71L68 71Q68 71 67 70Q66 70 65 69Q63 69 62 69L62 69Q59 69 58 70Q57 71 57 72L57 72Q57 74 58 75Q58 76 59 76Q60 77 63 78L63 78Q67 79 69 81Q70 83 70 87L70 87Q70 93 66 97Q62 101 56 101L56 101ZM111 93Q112 93 112 94L112 94Q112 95 111 97L111 97Q111 99 109 100Q108 101 106 101L106 101Q99 101 98 94L98 94Q96 97 94 99Q91 101 88 101L88 101Q83 101 79 97Q76 93 76 85L76 85Q76 78 78 73Q80 68 84 65Q88 62 93 62L93 62Q95 62 98 63Q100 64 101 66L101 66Q102 64 102 64Q103 63 103 63Q104 62 106 62L106 62L106 62Q110 62 110 64L110 64L109 69Q107 90 107 91L107 91Q107 92 107 93Q108 93 109 93L109 93Q110 93 110 93Q111 93 111 93L111 93ZM99 76Q100 74 100 71L100 71Q97 69 94 69L94 69Q90 69 87 73Q85 77 85 84L85 84Q85 93 91 93L91 93Q93 93 95 91Q97 90 98 86L98 86L99 76ZM138 62Q141 62 144 63Q147 65 149 69Q151 72 151 77L151 77Q151 84 149 89Q146 95 142 98Q138 101 133 101L133 101Q129 101 125 97L125 97L123 113Q123 115 119 115L119 115L118 115Q116 115 115 114Q114 114 114 113L114 113L118 74Q119 70 119 68L119 68Q119 67 119 66Q119 66 119 65L119 65Q119 64 121 63Q123 63 125 63L125 63Q127 63 127 68L127 68L127 68Q129 65 132 63Q135 62 138 62L138 62ZM131 93Q137 93 139 89Q142 85 142 78L142 78Q142 74 140 71Q138 69 135 69L135 69Q132 69 130 71Q128 73 127 76L127 76L125 91Q128 93 131 93L131 93ZM184 101Q180 101 177 100Q173 99 173 96L173 96Q173 93 174 92Q174 91 175 91L175 91Q175 91 176 91Q178 92 179 93Q181 93 183 93L183 93Q186 93 187 92Q189 91 189 89L189 89Q189 88 188 87Q187 86 186 85Q185 85 183 84L183 84Q179 83 177 80Q175 78 175 74L175 74Q175 68 179 65Q183 62 189 62L189 62Q192 62 196 63Q199 64 199 66L199 66Q199 67 197 69Q196 71 195 71L195 71Q195 71 194 70Q193 70 192 69Q191 69 189 69L189 69Q187 69 186 70Q184 71 184 72L184 72Q184 74 185 75Q186 76 187 76Q188 77 190 78L190 78Q194 79 196 81Q198 83 198 87L198 87Q198 93 194 97Q190 101 184 101L184 101ZM237 72Q237 79 232 82Q227 85 220 85L220 85Q217 85 213 85L213 85Q213 89 216 91Q218 93 222 93L222 93Q225 93 227 93Q229 92 232 91L232 91Q233 90 233 90L233 90Q233 90 233 90Q234 90 234 91L234 91Q234 92 233 93Q233 95 233 96L233 96Q232 98 228 99Q225 101 221 101L221 101Q213 101 209 97Q204 93 204 85L204 85Q204 74 209 68Q215 62 224 62L224 62Q229 62 232 63Q235 65 236 67Q237 70 237 72L237 72ZM214 79L218 79Q222 79 225 77Q228 76 228 73L228 73Q228 71 227 70Q226 69 223 69L223 69Q216 69 214 79L214 79ZM299 93Q299 93 299 93Q299 93 299 94L299 94Q299 95 299 97L299 97Q298 99 297 100Q295 101 293 101L293 101Q289 101 287 98Q285 96 285 92L285 92Q285 91 286 81L286 81Q287 74 287 74L287 74Q287 69 283 69L283 69Q280 69 278 71Q276 73 275 76L275 76L272 98Q272 100 268 100L268 100L267 100Q265 100 264 100Q263 99 263 98L263 98L266 74Q266 72 265 70Q264 69 262 69L262 69Q259 69 257 71Q255 73 254 76L254 76L251 98Q251 100 247 100L247 100L246 100Q244 100 243 100Q242 99 242 98L242 98L245 74Q245 71 245 68L245 68L245 65Q245 64 247 63Q249 63 252 63L252 63Q253 63 254 64Q254 66 254 68L254 68Q256 65 259 64Q262 62 266 62L266 62Q273 62 275 68L275 68Q277 65 280 64Q283 62 287 62L287 62Q296 62 296 71L296 71Q296 73 296 76Q295 79 295 81L295 81Q294 89 294 91L294 91Q294 92 295 93Q295 93 297 93L297 93Q297 93 298 93Q298 93 299 93L299 93ZM312 57Q310 57 309 56Q308 56 308 55L308 55L309 50Q309 49 310 48Q311 48 313 48L313 48Q316 48 317 48Q318 49 318 50L318 50L317 55Q317 57 312 57L312 57ZM312 101Q304 101 304 92L304 92Q304 92 304 89L304 89Q305 86 305 85L305 85L307 64Q307 62 311 62L311 62L312 62Q316 62 316 64L316 64Q316 68 314 79Q313 90 313 91L313 91Q313 92 314 93Q314 93 316 93L316 93Q316 93 317 93Q317 93 318 93L318 93Q318 93 318 93Q318 93 318 94L318 94Q318 95 318 97L318 97Q317 99 316 100Q314 101 312 101L312 101ZM362 62Q367 62 371 66Q375 70 375 77L375 77Q375 84 373 89Q370 95 366 98Q362 101 357 101L357 101Q352 101 348 97L348 97Q347 99 347 99Q346 100 344 100L344 100L343 100Q340 100 340 98L340 98L345 48Q345 46 349 46L349 46L350 46Q352 46 353 46Q354 47 354 48L354 48L352 67Q354 65 356 63Q359 62 362 62L362 62ZM355 93Q361 93 363 89Q366 85 366 78L366 78Q366 73 364 71Q362 69 359 69L359 69Q357 69 355 71Q353 73 351 76L351 76L350 86Q350 88 349 91L349 91Q352 93 355 93L355 93ZM397 101Q389 101 385 97Q381 93 381 85L381 85Q381 75 386 68Q391 62 401 62L401 62Q408 62 412 66Q416 70 416 78L416 78Q416 89 411 95Q406 101 397 101L397 101ZM397 93Q402 93 404 89Q407 85 407 78L407 78Q407 73 405 71Q403 69 400 69L400 69Q395 69 393 73Q390 77 390 84L390 84Q390 93 397 93L397 93ZM431 101Q427 101 425 99Q423 97 423 93L423 93Q423 92 423 90L423 90L428 48Q428 47 429 46Q429 46 431 46L431 46L433 46Q435 46 436 46Q437 47 437 48L437 48L432 90Q432 90 432 91L432 91Q432 92 432 93Q433 93 434 93L434 93Q435 93 436 93Q436 93 436 93L436 93Q437 93 437 93Q437 93 437 94L437 94Q437 95 437 97L437 97Q436 99 435 100Q433 101 431 101L431 101ZM480 93Q480 93 480 93Q480 93 480 94L480 94Q480 95 480 97L480 97Q479 99 478 100Q476 101 474 101L474 101Q467 101 466 94L466 94Q465 97 462 99Q459 101 456 101L456 101Q453 101 450 99Q447 97 445 94Q443 90 443 85L443 85Q443 78 445 73Q447 68 451 65Q455 62 460 62L460 62Q465 62 469 65L469 65L471 48Q471 46 475 46L475 46L476 46Q478 46 479 46Q480 47 480 48L480 48Q479 54 477 72Q475 90 475 91L475 91Q475 92 476 93Q476 93 478 93L478 93Q478 93 479 93Q479 93 480 93L480 93ZM467 86L468 71Q466 69 462 69L462 69Q457 69 455 73Q452 77 452 84L452 84Q452 89 454 91Q456 93 459 93L459 93Q461 93 463 91Q465 89 467 86L467 86ZM510 57Q507 57 506 56Q506 56 506 55L506 55L506 50Q506 49 507 48Q509 48 511 48L511 48Q513 48 514 48Q515 49 515 50L515 50L515 55Q515 57 510 57L510 57ZM510 101Q502 101 502 92L502 92Q502 92 502 89L502 89Q502 86 502 85L502 85L505 64Q505 62 509 62L509 62L510 62Q514 62 514 64L514 64Q513 68 512 79Q511 90 511 91L511 91Q511 92 511 93Q512 93 513 93L513 93Q514 93 514 93Q515 93 515 93L515 93Q516 93 516 93Q516 93 516 94L516 94Q516 95 515 97L515 97Q515 99 513 100Q512 101 510 101L510 101ZM532 101Q528 101 525 98Q523 96 523 92L523 92Q523 90 524 82Q525 73 525 70L525 70L523 70Q522 70 522 69Q521 68 521 67L521 67Q521 62 524 62L524 62L526 62L527 55Q527 53 530 53L530 53L532 53Q535 53 535 55L535 55L535 62L540 62Q540 62 541 63Q541 63 541 64L541 64Q541 66 540 68Q539 70 537 70L537 70L534 70Q534 73 533 80Q532 87 532 90L532 90Q532 93 534 93L534 93Q536 93 536 93Q537 93 537 93L537 93Q538 93 538 94L538 94Q538 95 537 97L537 97Q537 99 535 100Q534 101 532 101L532 101ZM580 93Q581 93 581 94L581 94Q581 95 580 97L580 97Q580 99 578 100Q576 101 574 101L574 101Q568 101 567 94L567 94Q565 97 562 99Q560 101 557 101L557 101Q552 101 548 97Q545 93 545 85L545 85Q545 78 547 73Q549 68 553 65Q556 62 561 62L561 62Q564 62 566 63Q569 64 570 66L570 66Q571 64 571 64Q571 63 572 63Q573 62 574 62L574 62L575 62Q578 62 578 64L578 64L578 69Q576 90 576 91L576 91Q576 92 576 93Q577 93 578 93L578 93Q579 93 579 93Q580 93 580 93L580 93ZM568 76Q568 74 569 71L569 71Q566 69 563 69L563 69Q558 69 556 73Q554 77 554 84L554 84Q554 93 560 93L560 93Q562 93 564 91Q566 90 567 86L567 86L568 76ZM593 101Q589 101 587 99Q585 97 585 93L585 93Q585 92 585 90L585 90L590 48Q590 47 591 46Q592 46 593 46L593 46L596 46Q598 46 598 46Q599 47 599 48L599 48L594 90Q594 90 594 91L594 91Q594 92 595 93Q595 93 597 93L597 93Q597 93 598 93Q599 93 599 93L599 93Q599 93 599 93Q599 93 599 94L599 94Q599 95 599 97L599 97Q599 99 597 100Q595 101 593 101L593 101ZM614 57Q612 57 611 56Q610 56 610 55L610 55L610 50Q611 49 612 48Q613 48 615 48L615 48Q618 48 619 48Q620 49 620 50L620 50L619 55Q619 57 614 57L614 57ZM614 101Q606 101 606 92L606 92Q606 92 606 89L606 89Q607 86 607 85L607 85L609 64Q609 62 613 62L613 62L614 62Q618 62 618 64L618 64Q618 68 616 79Q615 90 615 91L615 91Q615 92 616 93Q616 93 618 93L618 93Q618 93 619 93Q619 93 620 93L620 93Q620 93 620 93Q620 93 620 94L620 94Q620 95 620 97L620 97Q619 99 618 100Q616 101 614 101L614 101ZM641 101Q633 101 629 97Q625 93 625 85L625 85Q625 75 630 68Q634 62 645 62L645 62Q649 62 652 63Q656 64 656 66L656 66Q656 67 655 68Q654 69 654 70Q653 71 652 71L652 71Q652 71 651 71Q651 71 651 70L651 70Q650 70 648 69Q647 69 645 69L645 69Q640 69 637 73Q634 77 634 84L634 84Q634 89 636 91Q638 93 642 93L642 93Q645 93 647 93Q649 92 651 91L651 91Q652 91 652 91L652 91Q653 91 653 91Q653 91 653 92L653 92Q653 96 652 97L652 97Q650 99 647 100Q644 101 641 101L641 101Z"/></svg>