<svg xmlns="http://www.w3.org/2000/svg" viewBox="0.6480000000000001 45.78399999999999 426.6 69.12"><path d="M4.10 100.14Q0.65 100.14 0.65 98.85L0.65 98.85Q0.65 98.42 0.86 97.70L0.86 97.70L17.57 50.68Q18.00 49.46 20.81 49.46L20.81 49.46L23.33 49.46Q26.14 49.46 26.57 50.68L26.57 50.68L43.27 97.77Q43.49 98.42 43.49 98.85L43.49 98.85Q43.49 100.14 40.25 100.14L40.25 100.14L38.95 100.14Q36.22 100.14 35.71 98.92L35.71 98.92L31.90 87.98L11.95 87.98L8.21 98.92Q7.70 100.14 5.18 100.14L5.18 100.14L4.10 100.14ZM14.26 81.35L29.59 81.35L23.04 62.34Q22.75 61.34 22.50 59.97Q22.25 58.60 22.10 58.02L22.10 58.02L21.96 58.02Q21.38 61.05 20.88 62.34L20.88 62.34L14.26 81.35ZM58.18 100.65Q55.15 100.65 52.49 99.93Q49.82 99.21 48.20 98.13Q46.58 97.05 46.58 95.97L46.58 95.97Q46.58 95.03 47.63 93.41Q48.67 91.79 49.46 91.79L49.46 91.79Q49.61 91.79 50.90 92.55Q52.20 93.30 53.86 93.88Q55.51 94.46 57.60 94.46L57.60 94.46Q63.86 94.46 63.86 89.42L63.86 89.42Q63.86 87.18 62.28 85.92Q60.70 84.66 56.95 83.44L56.95 83.44Q51.91 81.93 49.68 79.44Q47.45 76.96 47.45 72.64L47.45 72.64Q47.45 67.82 50.83 64.83Q54.22 61.84 59.69 61.84L59.69 61.84Q63.43 61.84 66.53 62.81Q69.62 63.78 69.62 65.22L69.62 65.22Q69.62 66.30 68.72 67.96Q67.82 69.62 67.03 69.62L67.03 69.62Q66.74 69.54 65.09 68.72Q63.43 67.89 60.62 67.89L60.62 67.89Q58.10 67.89 56.52 68.93Q54.94 69.98 54.94 71.85L54.94 71.85Q54.94 74.08 56.48 75.41Q58.03 76.74 61.27 77.90L61.27 77.90Q65.09 79.19 67.21 80.56Q69.34 81.93 70.31 83.94Q71.28 85.96 71.28 89.06L71.28 89.06Q71.28 92.37 69.59 95.03Q67.90 97.70 64.91 99.17Q61.92 100.65 58.18 100.65L58.18 100.65ZM89.06 100.50Q83.59 100.50 80.42 97.73Q77.26 94.96 77.26 89.78L77.26 89.78Q77.26 82.50 83.30 79.59Q89.35 76.67 100.22 76.60L100.22 76.60L100.22 73.50Q100.22 70.98 98.50 69.47Q96.77 67.96 92.95 67.96L92.95 67.96Q90.00 67.96 87.80 68.64Q85.61 69.33 84.06 70.08Q82.51 70.84 82.30 70.84L82.30 70.84Q81.50 70.84 80.46 69.15Q79.42 67.46 79.42 66.59L79.42 66.59Q79.42 65.58 81.32 64.47Q83.23 63.35 86.36 62.60Q89.50 61.84 93.02 61.84L93.02 61.84Q100.15 61.84 103.86 64.90Q107.57 67.96 107.57 73.36L107.57 73.36L107.57 88.77Q107.57 93.59 108.00 95.75Q108.43 97.91 108.43 98.20L108.43 98.20Q108.43 99.21 106.67 99.64Q104.90 100.07 103.39 100.07L103.39 100.07Q102.24 100.07 101.77 98.99Q101.30 97.91 101.05 96.69Q100.80 95.46 100.73 95.03L100.73 95.03Q98.78 97.34 95.87 98.92Q92.95 100.50 89.06 100.50L89.06 100.50ZM90.29 94.31Q93.46 94.31 95.83 93.02Q98.21 91.72 100.22 89.49L100.22 89.49L100.22 82.29Q93.24 82.29 89.06 83.62Q84.89 84.95 84.89 89.20L84.89 89.20Q84.89 91.65 86.29 92.98Q87.70 94.31 90.29 94.31L90.29 94.31ZM122.26 114.90Q118.94 114.90 118.94 113.18L118.94 113.18L118.94 73.79Q118.94 69.04 118.51 66.88Q118.08 64.72 118.08 64.43L118.08 64.43Q118.08 63.42 119.88 62.99Q121.68 62.56 123.19 62.56L123.19 62.56Q124.27 62.56 124.78 63.60Q125.28 64.65 125.53 65.76Q125.78 66.88 125.86 67.24L125.86 67.24Q128.09 64.65 130.86 63.24Q133.63 61.84 136.73 61.84L136.73 61.84Q140.98 61.84 144.11 64.25Q147.24 66.66 148.90 71.06Q150.55 75.45 150.55 81.21L150.55 81.21Q150.55 90.28 146.56 95.39Q142.56 100.50 135.79 100.50L135.79 100.50Q132.91 100.50 130.68 99.64Q128.45 98.78 126.36 97.19L126.36 97.19L126.36 113.18Q126.36 114.90 123.05 114.90L123.05 114.90L122.26 114.90ZM134.14 94.24Q138.53 94.24 140.72 91Q142.92 87.76 142.92 81.57L142.92 81.57Q142.92 75.09 140.90 71.60Q138.89 68.10 135.00 68.10L135.00 68.10Q132.70 68.10 130.46 69.36Q128.23 70.62 126.36 72.86L126.36 72.86L126.36 91.58Q129.67 94.24 134.14 94.24L134.14 94.24ZM216.43 61.84Q221.11 61.84 224.32 64.50Q227.52 67.17 227.52 73.50L227.52 73.50L227.52 98.34Q227.52 100.14 224.21 100.14L224.21 100.14L223.42 100.14Q220.10 100.14 220.10 98.34L220.10 98.34L220.10 74.37Q220.10 71.42 218.56 69.80Q217.01 68.18 213.98 68.18L213.98 68.18Q211.32 68.18 209.30 69.72Q207.29 71.27 206.06 73L206.06 73L206.06 73.65L206.06 98.34Q206.06 100.14 202.75 100.14L202.75 100.14L202.03 100.14Q198.72 100.14 198.72 98.34L198.72 98.34L198.72 74.37Q198.72 71.42 197.17 69.80Q195.62 68.18 192.53 68.18L192.53 68.18Q190.51 68.18 188.78 69.15Q187.06 70.12 185.98 71.24Q184.90 72.35 184.68 72.86L184.68 72.86L184.68 98.34Q184.68 100.14 181.37 100.14L181.37 100.14L180.58 100.14Q177.26 100.14 177.26 98.34L177.26 98.34L177.26 73.79Q177.26 69.04 176.83 66.88Q176.40 64.72 176.40 64.43L176.40 64.43Q176.40 63.42 178.20 62.99Q180.00 62.56 181.51 62.56L181.51 62.56Q182.59 62.56 183.10 63.64Q183.60 64.72 183.85 65.84Q184.10 66.95 184.18 67.31L184.18 67.31Q186.05 65.01 188.89 63.42Q191.74 61.84 194.98 61.84L194.98 61.84Q198.36 61.84 201.10 63.17Q203.83 64.50 205.06 67.67L205.06 67.67Q207.14 65.15 210.17 63.50Q213.19 61.84 216.43 61.84L216.43 61.84ZM254.38 100.50Q236.38 100.50 236.38 81.42L236.38 81.42Q236.38 71.70 240.77 66.77Q245.16 61.84 253.37 61.84L253.37 61.84Q260.93 61.84 264.67 66.74Q268.42 71.63 268.42 80.63L268.42 80.63Q268.42 81.35 267.37 82.65Q266.33 83.94 265.68 83.94L265.68 83.94L244.15 83.94Q244.58 89.42 247.10 91.90Q249.62 94.38 254.45 94.38L254.45 94.38Q257.18 94.38 259.24 93.74Q261.29 93.09 262.76 92.33Q264.24 91.58 264.46 91.58L264.46 91.58Q265.25 91.58 266.29 93.23Q267.34 94.89 267.34 95.68L267.34 95.68Q267.34 96.83 265.43 97.95Q263.52 99.06 260.50 99.78Q257.47 100.50 254.38 100.50L254.38 100.50ZM244.15 78.18L260.86 78.18Q260.86 73.22 258.95 70.59Q257.04 67.96 253.22 67.96L253.22 67.96Q245.09 67.96 244.15 78.18L244.15 78.18ZM288.86 100.50Q284.76 100.50 281.63 98.09Q278.50 95.68 276.77 91.29Q275.04 86.90 275.04 81.21L275.04 81.21Q275.04 75.16 276.88 70.80Q278.71 66.45 282.02 64.14Q285.34 61.84 289.80 61.84L289.80 61.84Q292.68 61.84 294.95 62.70Q297.22 63.57 299.30 65.15L299.30 65.15L299.30 47.58Q299.30 45.78 302.54 45.78L302.54 45.78L303.34 45.78Q306.65 45.78 306.65 47.58L306.65 47.58L306.65 88.77Q306.65 93.59 307.08 95.75Q307.51 97.91 307.51 98.20L307.51 98.20Q307.51 99.21 305.71 99.64Q303.91 100.07 302.40 100.07L302.40 100.07Q301.32 100.07 300.85 98.99Q300.38 97.91 300.13 96.72Q299.88 95.54 299.81 95.10L299.81 95.10Q295.06 100.50 288.86 100.50L288.86 100.50ZM290.66 94.24Q292.90 94.24 295.13 92.98Q297.36 91.72 299.30 89.49L299.30 89.49L299.30 70.77Q295.85 68.10 291.53 68.10L291.53 68.10Q287.14 68.10 284.90 71.34Q282.67 74.58 282.67 80.78L282.67 80.78Q282.67 87.26 284.72 90.75Q286.78 94.24 290.66 94.24L290.66 94.24ZM321.70 56.15Q317.95 56.15 317.95 54.14L317.95 54.14L317.95 49.89Q317.95 47.87 321.84 47.87L321.84 47.87Q325.58 47.87 325.58 49.89L325.58 49.89L325.58 54.14Q325.58 56.15 321.70 56.15L321.70 56.15ZM321.41 100.14Q318.10 100.14 318.10 98.34L318.10 98.34L318.10 64.00Q318.10 62.20 321.41 62.20L321.41 62.20L322.13 62.20Q325.44 62.20 325.44 64.00L325.44 64.00L325.44 98.34Q325.44 100.14 322.13 100.14L322.13 100.14L321.41 100.14ZM347.76 100.50Q342.29 100.50 339.30 97.44Q336.31 94.38 336.31 88.84L336.31 88.84L336.31 64.00Q336.31 62.20 339.62 62.20L339.62 62.20L340.42 62.20Q343.73 62.20 343.73 64.00L343.73 64.00L343.73 87.98Q343.73 90.93 345.38 92.55Q347.04 94.17 350.21 94.17L350.21 94.17Q352.51 94.17 354.67 92.84Q356.83 91.50 358.27 89.42L358.27 89.42L358.27 64.00Q358.27 62.20 361.58 62.20L361.58 62.20L362.38 62.20Q365.69 62.20 365.69 64.00L365.69 64.00L365.69 88.77Q365.69 93.59 366.12 95.75Q366.55 97.91 366.55 98.20L366.55 98.20Q366.55 99.21 364.75 99.64Q362.95 100.07 361.44 100.07L361.44 100.07Q360.36 100.07 359.89 98.99Q359.42 97.91 359.17 96.69Q358.92 95.46 358.85 95.03L358.85 95.03Q356.76 97.55 353.81 99.03Q350.86 100.50 347.76 100.50L347.76 100.50ZM416.16 61.84Q420.84 61.84 424.04 64.50Q427.25 67.17 427.25 73.50L427.25 73.50L427.25 98.34Q427.25 100.14 423.94 100.14L423.94 100.14L423.14 100.14Q419.83 100.14 419.83 98.34L419.83 98.34L419.83 74.37Q419.83 71.42 418.28 69.80Q416.74 68.18 413.71 68.18L413.71 68.18Q411.05 68.18 409.03 69.72Q407.02 71.27 405.79 73L405.79 73L405.79 73.65L405.79 98.34Q405.79 100.14 402.48 100.14L402.48 100.14L401.76 100.14Q398.45 100.14 398.45 98.34L398.45 98.34L398.45 74.37Q398.45 71.42 396.90 69.80Q395.35 68.18 392.26 68.18L392.26 68.18Q390.24 68.18 388.51 69.15Q386.78 70.12 385.70 71.24Q384.62 72.35 384.41 72.86L384.41 72.86L384.41 98.34Q384.41 100.14 381.10 100.14L381.10 100.14L380.30 100.14Q376.99 100.14 376.99 98.34L376.99 98.34L376.99 73.79Q376.99 69.04 376.56 66.88Q376.13 64.72 376.13 64.43L376.13 64.43Q376.13 63.42 377.93 62.99Q379.73 62.56 381.24 62.56L381.24 62.56Q382.32 62.56 382.82 63.64Q383.33 64.72 383.58 65.84Q383.83 66.95 383.90 67.31L383.90 67.31Q385.78 65.01 388.62 63.42Q391.46 61.84 394.70 61.84L394.70 61.84Q398.09 61.84 400.82 63.17Q403.56 64.50 404.78 67.67L404.78 67.67Q406.87 65.15 409.90 63.50Q412.92 61.84 416.16 61.84L416.16 61.84Z"/></svg>