<svg xmlns="http://www.w3.org/2000/svg" viewBox="0.28800000000000003 45.78399999999999 477.216 69.12"><path d="M4 100Q0 100 0 99L0 99Q0 98 1 97L1 97L17 51Q17 49 21 49L21 49L24 49Q27 49 27 51L27 51L44 97Q44 98 44 99L44 99Q44 100 40 100L40 100L38 100Q35 100 34 99L34 99L31 89L13 89L9 99Q9 100 6 100L6 100L4 100ZM15 81L28 81L23 65Q23 63 22 61L22 61L22 61Q22 61 22 62Q21 64 21 65L21 65L15 81ZM58 101Q55 101 53 100Q50 99 48 98Q46 97 46 96L46 96Q46 95 48 93Q49 91 50 91L50 91Q50 91 51 92Q53 92 54 93Q56 93 58 93L58 93Q63 93 63 89L63 89Q63 87 61 86Q60 85 56 84L56 84Q52 82 50 80Q47 78 47 73L47 73Q47 68 51 65Q54 62 60 62L60 62Q64 62 67 63Q70 64 70 66L70 66Q70 67 69 69Q68 71 68 71L68 71Q67 71 66 70Q64 69 61 69L61 69Q59 69 58 70Q57 71 57 72L57 72Q57 74 57 75Q58 76 60 76Q61 77 64 78L64 78Q68 80 70 82Q72 84 72 89L72 89Q72 94 68 97Q64 101 58 101L58 101ZM88 101Q83 101 80 98Q77 95 77 90L77 90Q77 77 99 77L99 77L99 74Q99 69 92 69L92 69Q90 69 88 70Q86 70 84 71Q83 72 83 72L83 72Q82 72 80 70Q79 68 79 67L79 67Q79 66 81 64Q83 63 86 63Q89 62 93 62L93 62Q101 62 104 65Q108 68 108 74L108 74L108 88Q108 93 108 95Q109 97 109 98L109 98Q109 99 106 100Q104 100 102 100L102 100Q101 100 101 99Q100 98 100 97Q100 96 99 95L99 95Q98 97 95 99Q92 101 88 101L88 101ZM91 93Q93 93 95 92Q97 91 99 88L99 88L99 83Q93 83 90 84Q86 86 86 89L86 89Q86 91 87 92Q89 93 91 93L91 93ZM122 115Q120 115 119 114Q119 114 119 113L119 113L119 74Q119 70 118 67Q118 65 118 65L118 65Q118 64 120 63Q122 63 124 63L124 63Q125 63 126 64Q127 65 127 66Q127 67 127 67L127 67Q129 65 132 63Q134 62 137 62L137 62Q141 62 145 64Q148 67 149 71Q151 75 151 81L151 81Q151 90 147 95Q143 101 136 101L136 101Q131 101 128 98L128 98L128 113Q128 115 124 115L124 115L122 115ZM134 93Q142 93 142 81L142 81Q142 75 140 72Q138 69 135 69L135 69Q133 69 131 71Q129 72 128 74L128 74L128 91Q130 93 134 93L134 93ZM186 101Q183 101 180 100Q177 99 176 98Q174 97 174 96L174 96Q174 95 175 93Q176 91 177 91L177 91Q178 91 179 92Q180 92 182 93Q183 93 185 93L185 93Q190 93 190 89L190 89Q190 87 189 86Q187 85 184 84L184 84Q179 82 177 80Q175 78 175 73L175 73Q175 68 178 65Q182 62 188 62L188 62Q191 62 195 63Q198 64 198 66L198 66Q198 67 197 69Q196 71 195 71L195 71Q195 71 193 70Q191 69 189 69L189 69Q187 69 185 70Q184 71 184 72L184 72Q184 74 185 75Q186 76 187 76Q188 77 191 78L191 78Q195 80 197 82Q199 84 199 89L199 89Q199 94 196 97Q192 101 186 101L186 101ZM223 101Q214 101 209 96Q205 91 205 81L205 81Q205 71 209 67Q214 62 222 62L222 62Q230 62 234 67Q237 72 237 80L237 80Q237 81 236 83Q235 84 234 84L234 84L214 84Q215 89 217 91Q219 93 223 93L223 93Q227 93 231 91L231 91Q232 91 233 91L233 91Q234 91 235 93Q236 95 236 96L236 96Q236 97 234 98Q232 99 229 100Q226 101 223 101L223 101ZM214 78L228 78Q228 74 227 71Q225 69 222 69L222 69Q215 69 214 78L214 78ZM285 62Q296 62 296 74L296 74L296 98Q296 100 292 100L292 100L291 100Q287 100 287 98L287 98L287 75Q287 69 282 69L282 69Q280 69 278 71Q276 72 275 74L275 74L275 98Q275 100 271 100L271 100L270 100Q268 100 267 100Q266 99 266 98L266 98L266 75Q266 69 261 69L261 69Q259 69 257 71Q255 72 254 74L254 74L254 98Q254 100 250 100L250 100L249 100Q245 100 245 98L245 98L245 74Q245 70 245 67Q244 65 244 65L244 65Q244 64 247 63Q249 63 251 63L251 63Q252 63 253 64Q253 65 253 66Q254 67 254 67L254 67Q256 65 258 63Q261 62 265 62L265 62Q272 62 274 67L274 67Q276 65 279 63Q282 62 285 62L285 62ZM311 57Q306 57 306 55L306 55L306 50Q306 48 311 48L311 48Q315 48 315 50L315 50L315 55Q315 56 314 56Q313 57 311 57L311 57ZM310 100Q306 100 306 98L306 98L306 64Q306 62 310 62L310 62L312 62Q315 62 315 64L315 64L315 98Q315 100 312 100L312 100L310 100ZM362 101Q358 101 356 99Q353 98 351 95L351 95Q351 97 350 99L350 99Q350 99 349 100Q349 100 347 100L347 100L346 100Q343 100 343 98L343 98L343 48Q343 46 347 46L347 46L348 46Q352 46 352 48L352 48L352 65Q356 62 360 62L360 62Q367 62 371 67Q375 72 375 81L375 81Q375 87 374 91Q372 96 369 98Q366 101 362 101L362 101ZM359 93Q363 93 364 90Q366 87 366 81L366 81Q366 69 358 69L358 69Q355 69 352 71L352 71L352 88Q353 91 355 92Q357 93 359 93L359 93ZM399 101Q391 101 386 96Q382 91 382 81L382 81Q382 72 386 67Q391 62 399 62L399 62Q408 62 412 67Q416 72 416 81L416 81Q416 91 412 96Q408 101 399 101L399 101ZM399 93Q403 93 405 90Q407 87 407 81L407 81Q407 75 405 72Q403 69 399 69L399 69Q395 69 393 72Q391 75 391 81L391 81Q391 87 393 90Q395 93 399 93L399 93ZM435 101Q430 101 427 98Q425 95 425 89L425 89L425 48Q425 46 428 46L428 46L430 46Q434 46 434 48L434 48L434 89Q434 91 434 92Q435 93 437 93L437 93Q437 93 438 93Q439 93 439 93L439 93Q440 93 440 95Q441 97 441 97L441 97Q441 101 435 101L435 101ZM458 101Q454 101 451 98Q448 96 446 91Q444 87 444 81L444 81Q444 72 448 67Q452 62 459 62L459 62Q464 62 468 65L468 65L468 48Q468 46 471 46L471 46L473 46Q477 46 477 48L477 48L477 88Q477 93 477 95Q478 97 478 98L478 98Q478 99 475 100Q473 100 471 100L471 100Q470 100 469 99Q469 98 468 97Q468 96 468 95L468 95Q466 98 464 99Q461 101 458 101L458 101ZM460 93Q464 93 468 88L468 88L468 71Q465 69 461 69L461 69Q453 69 453 81L453 81Q453 87 455 90Q457 93 460 93L460 93Z"/></svg>