<svg xmlns="http://www.w3.org/2000/svg" viewBox="-2.3040000000000003 45.711999999999996 658.0080000000002 69.19200000000001"><path d="M1.44 100.14Q-2.30 100.14-2.30 98.78L-2.30 98.78Q-2.30 98.34-1.87 97.48L-1.87 97.48L19.44 50.82Q20.02 49.46 23.18 49.46L23.18 49.46L26.35 49.46Q29.52 49.46 29.88 50.82L29.88 50.82L41.54 97.55Q41.69 97.98 41.69 98.56L41.69 98.56Q41.69 99.28 40.79 99.71Q39.89 100.14 38.09 100.14L38.09 100.14L35.86 100.14Q32.69 100.14 32.33 98.78L32.33 98.78L29.88 88.91L11.16 88.91L6.70 98.78Q6.05 100.14 3.38 100.14L3.38 100.14L1.44 100.14ZM14.69 80.85L28.01 80.85L24.26 64.86Q23.76 62.85 23.76 60.40L23.76 60.40L23.47 60.40Q22.68 63.14 21.96 64.86L21.96 64.86L14.69 80.85ZM56.09 100.50Q52.85 100.50 49.36 99.53Q45.86 98.56 45.86 95.90L45.86 95.90Q45.86 92.94 46.33 91.83Q46.80 90.71 47.30 90.71L47.30 90.71Q47.45 90.71 48.78 91.43Q50.11 92.15 51.77 92.73Q53.42 93.30 55.44 93.30L55.44 93.30Q58.18 93.30 59.72 92.15Q61.27 91 61.27 88.91L61.27 88.91Q61.27 87.54 60.48 86.64Q59.69 85.74 58.68 85.28Q57.67 84.81 55.15 83.87L55.15 83.87Q51.62 82.50 49.54 80.45Q47.45 78.40 47.45 74.22L47.45 74.22Q47.45 68.32 51.30 65.08Q55.15 61.84 61.20 61.84L61.20 61.84Q64.80 61.84 68.00 62.81Q71.21 63.78 71.21 65.80L71.21 65.80Q71.21 66.88 69.98 68.72Q68.76 70.55 67.90 70.55L67.90 70.55Q67.61 70.55 66.67 70.12Q65.74 69.69 64.58 69.36Q63.43 69.04 61.78 69.04L61.78 69.04Q59.40 69.04 58.07 69.90Q56.74 70.77 56.74 72.50L56.74 72.50Q56.74 73.94 57.56 74.87Q58.39 75.81 59.44 76.35Q60.48 76.89 62.93 77.90L62.93 77.90Q66.53 79.34 68.51 81.32Q70.49 83.30 70.49 87.18L70.49 87.18Q70.49 93.30 66.49 96.90Q62.50 100.50 56.09 100.50L56.09 100.50ZM111.24 92.87Q111.82 92.87 111.82 93.59L111.82 93.59Q111.82 94.67 111.38 97.26L111.38 97.26Q111.10 98.85 109.37 99.68Q107.64 100.50 105.77 100.50L105.77 100.50Q99.00 100.50 98.06 94.38L98.06 94.38Q96.34 97.26 93.64 98.92Q90.94 100.58 87.84 100.58L87.84 100.58Q82.80 100.58 79.42 96.65Q76.03 92.73 76.03 84.95L76.03 84.95Q76.03 78.18 78.12 72.93Q80.21 67.67 83.95 64.76Q87.70 61.84 92.59 61.84L92.59 61.84Q95.40 61.84 97.67 63.03Q99.94 64.22 101.45 65.73L101.45 65.73Q101.95 64.22 102.28 63.57Q102.60 62.92 103.36 62.60Q104.11 62.27 105.62 62.27L105.62 62.27L106.34 62.27Q109.66 62.27 109.66 63.93L109.66 63.93L109.15 68.90Q106.92 89.78 106.92 90.71L106.92 90.71Q106.92 92.22 107.50 92.76Q108.07 93.30 109.22 93.30L109.22 93.30Q109.80 93.30 110.41 93.09Q111.02 92.87 111.24 92.87L111.24 92.87ZM99.29 76.31Q99.50 73.94 100.15 71.42L100.15 71.42Q97.42 69.11 94.39 69.11L94.39 69.11Q89.71 69.11 87.44 73.18Q85.18 77.25 85.18 84.38L85.18 84.38Q85.18 93.09 90.86 93.09L90.86 93.09Q92.95 93.09 94.97 91.32Q96.98 89.56 98.35 86.03L98.35 86.03L99.29 76.31ZM137.66 61.84Q141.19 61.84 144.14 63.50Q147.10 65.15 148.90 68.61Q150.70 72.06 150.70 77.32L150.70 77.32Q150.70 84.09 148.50 89.34Q146.30 94.60 142.34 97.55Q138.38 100.50 133.27 100.50L133.27 100.50Q128.81 100.50 124.78 97.34L124.78 97.34L123.19 112.82Q122.98 114.90 119.16 114.90L119.16 114.90L117.79 114.90Q115.99 114.90 115.09 114.33Q114.19 113.75 114.19 112.89L114.19 112.89L118.30 73.65Q118.66 69.69 118.66 68.39L118.66 68.39Q118.66 67.10 118.58 66.30Q118.51 65.51 118.51 64.94L118.51 64.94Q118.51 63.86 120.56 63.28Q122.62 62.70 125.28 62.70L125.28 62.70Q127.44 62.70 127.44 67.53L127.44 67.53L127.44 67.74Q129.17 64.94 131.87 63.39Q134.57 61.84 137.66 61.84L137.66 61.84ZM131.40 93.30Q136.51 93.30 139.03 89.13Q141.55 84.95 141.55 77.82L141.55 77.82Q141.55 73.50 139.75 71.38Q137.95 69.26 134.64 69.26L134.64 69.26Q132.48 69.26 130.39 71.09Q128.30 72.93 126.86 76.38L126.86 76.38L125.42 91.07Q128.16 93.30 131.40 93.30L131.40 93.30ZM183.60 100.50Q180.36 100.50 176.87 99.53Q173.38 98.56 173.38 95.90L173.38 95.90Q173.38 92.94 173.84 91.83Q174.31 90.71 174.82 90.71L174.82 90.71Q174.96 90.71 176.29 91.43Q177.62 92.15 179.28 92.73Q180.94 93.30 182.95 93.30L182.95 93.30Q185.69 93.30 187.24 92.15Q188.78 91 188.78 88.91L188.78 88.91Q188.78 87.54 187.99 86.64Q187.20 85.74 186.19 85.28Q185.18 84.81 182.66 83.87L182.66 83.87Q179.14 82.50 177.05 80.45Q174.96 78.40 174.96 74.22L174.96 74.22Q174.96 68.32 178.81 65.08Q182.66 61.84 188.71 61.84L188.71 61.84Q192.31 61.84 195.52 62.81Q198.72 63.78 198.72 65.80L198.72 65.80Q198.72 66.88 197.50 68.72Q196.27 70.55 195.41 70.55L195.41 70.55Q195.12 70.55 194.18 70.12Q193.25 69.69 192.10 69.36Q190.94 69.04 189.29 69.04L189.29 69.04Q186.91 69.04 185.58 69.90Q184.25 70.77 184.25 72.50L184.25 72.50Q184.25 73.94 185.08 74.87Q185.90 75.81 186.95 76.35Q187.99 76.89 190.44 77.90L190.44 77.90Q194.04 79.34 196.02 81.32Q198.00 83.30 198.00 87.18L198.00 87.18Q198.00 93.30 194.00 96.90Q190.01 100.50 183.60 100.50L183.60 100.50ZM237.17 71.92Q237.17 78.69 232.20 81.89Q227.23 85.10 220.25 85.10L220.25 85.10Q216.58 85.10 213.26 84.59L213.26 84.59Q213.34 89.49 215.57 91.40Q217.80 93.30 221.90 93.30L221.90 93.30Q224.71 93.30 226.94 92.55Q229.18 91.79 231.62 90.64L231.62 90.64Q232.70 89.99 233.06 89.99L233.06 89.99Q233.35 89.99 233.46 90.14Q233.57 90.28 233.57 90.93L233.57 90.93Q233.57 91.58 233.42 93.20Q233.28 94.82 233.06 95.61L233.06 95.61Q232.42 98.13 228.49 99.32Q224.57 100.50 220.82 100.50L220.82 100.50Q212.98 100.50 208.55 96.69Q204.12 92.87 204.12 85.02L204.12 85.02Q204.12 73.79 209.45 67.82Q214.78 61.84 223.92 61.84L223.92 61.84Q228.89 61.84 231.84 63.50Q234.79 65.15 235.98 67.42Q237.17 69.69 237.17 71.92L237.17 71.92ZM213.70 78.69L217.73 78.69Q222.05 78.69 225.18 77.25Q228.31 75.81 228.31 73L228.31 73Q228.31 71.20 226.91 70.12Q225.50 69.04 223.20 69.04L223.20 69.04Q215.57 69.04 213.70 78.69L213.70 78.69ZM298.58 92.87Q298.87 92.87 298.98 93.02Q299.09 93.16 299.09 93.59L299.09 93.59Q299.09 95.10 298.66 97.26L298.66 97.26Q298.44 98.85 296.71 99.68Q294.98 100.50 293.11 100.50L293.11 100.50Q289.15 100.50 287.17 98.49Q285.19 96.47 285.19 92.15L285.19 92.15Q285.19 91 286.27 80.99L286.27 80.99Q286.99 73.65 286.99 73.65L286.99 73.65Q286.99 69.33 282.53 69.33L282.53 69.33Q280.30 69.33 278.21 70.98Q276.12 72.64 274.68 75.52L274.68 75.52L272.45 98.13Q272.23 100.14 268.49 100.14L268.49 100.14L267.05 100.14Q265.25 100.14 264.31 99.57Q263.38 98.99 263.45 98.20L263.45 98.20L265.97 73.79Q266.18 71.63 265.00 70.48Q263.81 69.33 261.50 69.33L261.50 69.33Q259.34 69.33 257.22 71.02Q255.10 72.71 253.66 75.88L253.66 75.88L251.42 98.13Q251.21 100.14 247.46 100.14L247.46 100.14L246.02 100.14Q244.22 100.14 243.29 99.60Q242.35 99.06 242.42 98.20L242.42 98.20L244.87 74.30Q245.30 70.70 245.30 68.39L245.30 68.39L245.23 64.94Q245.23 63.86 247.28 63.28Q249.34 62.70 252 62.70L252 62.70Q253.15 62.70 253.66 64.29Q254.16 65.87 254.16 67.96L254.16 67.96Q256.18 65.30 259.31 63.57Q262.44 61.84 265.61 61.84L265.61 61.84Q273.46 61.84 274.82 68.18L274.82 68.18Q276.77 65.37 280.01 63.60Q283.25 61.84 286.63 61.84L286.63 61.84Q296.14 61.84 296.14 71.06L296.14 71.06Q295.99 72.78 295.70 75.66Q295.42 78.54 295.20 81.06L295.20 81.06Q294.26 89.49 294.26 90.71L294.26 90.71Q294.26 92.15 294.84 92.73Q295.42 93.30 296.57 93.30L296.57 93.30Q297.14 93.30 297.76 93.09Q298.37 92.87 298.58 92.87L298.58 92.87ZM312.19 56.94Q309.82 56.94 308.84 56.40Q307.87 55.86 307.87 54.64L307.87 54.64L308.52 49.96Q308.66 48.81 309.78 48.23Q310.90 47.66 313.34 47.66L313.34 47.66Q315.72 47.66 316.66 48.23Q317.59 48.81 317.59 49.96L317.59 49.96L317.09 54.64Q316.87 56.94 312.19 56.94L312.19 56.94ZM312.12 100.50Q304.20 100.50 304.20 92.22L304.20 92.22Q304.20 92.22 304.49 88.91L304.49 88.91Q304.63 86.39 304.78 85.31L304.78 85.31L307.01 64.22Q307.22 62.20 311.04 62.20L311.04 62.20L312.41 62.20Q316.01 62.20 316.01 64.22L316.01 64.22Q315.58 68.18 314.42 79.05Q313.27 89.92 313.27 90.71L313.27 90.71Q313.27 92.15 313.85 92.73Q314.42 93.30 315.58 93.30L315.58 93.30Q316.15 93.30 316.76 93.09Q317.38 92.87 317.59 92.87L317.59 92.87Q317.88 92.87 317.99 93.02Q318.10 93.16 318.10 93.59L318.10 93.59Q318.10 95.10 317.74 97.26L317.74 97.26Q317.45 98.85 315.72 99.68Q313.99 100.50 312.12 100.50L312.12 100.50ZM361.73 61.84Q367.42 61.84 371.20 65.69Q374.98 69.54 374.98 77.32L374.98 77.32Q374.98 84.09 372.71 89.34Q370.44 94.60 366.37 97.55Q362.30 100.50 356.98 100.50L356.98 100.50Q352.08 100.50 347.90 96.69L347.90 96.69Q347.33 98.56 346.61 99.32Q345.89 100.07 343.87 100.14L343.87 100.14L343.08 100.14Q339.77 100.14 339.77 98.42L339.77 98.42L345.17 47.80Q345.38 45.78 349.13 45.78L349.13 45.78L350.50 45.78Q352.37 45.78 353.23 46.32Q354.10 46.86 354.10 47.73L354.10 47.73L352.08 67.17Q353.81 64.58 356.33 63.21Q358.85 61.84 361.73 61.84L361.73 61.84ZM355.18 93.23Q360.65 93.23 363.24 89.13Q365.83 85.02 365.83 77.90L365.83 77.90Q365.83 73.36 364.03 71.31Q362.23 69.26 358.70 69.26L358.70 69.26Q356.62 69.26 354.60 70.98Q352.58 72.71 351.14 76.17L351.14 76.17L350.14 85.67Q349.85 87.98 349.34 91.07L349.34 91.07Q351.94 93.23 355.18 93.23L355.18 93.23ZM396.65 100.50Q389.09 100.50 385.16 96.51Q381.24 92.51 381.24 84.88L381.24 84.88Q381.24 74.94 385.92 68.39Q390.60 61.84 400.75 61.84L400.75 61.84Q408.17 61.84 412.06 65.87Q415.94 69.90 415.94 77.61L415.94 77.61Q415.94 88.55 410.80 94.53Q405.65 100.50 396.65 100.50L396.65 100.50ZM397.30 93.30Q401.83 93.30 404.28 89.34Q406.73 85.38 406.73 77.97L406.73 77.97Q406.73 73.43 405.04 71.24Q403.34 69.04 399.89 69.04L399.89 69.04Q395.35 69.04 392.87 73.07Q390.38 77.10 390.38 84.45L390.38 84.45Q390.38 93.30 397.30 93.30L397.30 93.30ZM430.92 100.50Q426.67 100.50 424.84 98.56Q423 96.62 423 92.73L423 92.73Q423 92.08 423.14 90.50L423.14 90.50L427.61 47.66Q427.75 46.65 428.58 46.18Q429.41 45.71 431.14 45.71L431.14 45.71L433.44 45.71Q435.46 45.71 436.07 46.22Q436.68 46.72 436.54 48.02L436.54 48.02L432 89.56Q431.93 90.06 431.93 90.86L431.93 90.86Q431.93 92.15 432.47 92.73Q433.01 93.30 434.45 93.30L434.45 93.30Q435.02 93.30 435.64 93.09Q436.25 92.87 436.46 92.87L436.46 92.87Q436.75 92.87 436.86 93.02Q436.97 93.16 436.97 93.59L436.97 93.59Q436.97 94.67 436.54 97.26L436.54 97.26Q436.32 98.85 434.56 99.68Q432.79 100.50 430.92 100.50L430.92 100.50ZM479.59 92.87Q479.88 92.87 479.99 93.02Q480.10 93.16 480.10 93.59L480.10 93.59Q480.10 94.67 479.66 97.26L479.66 97.26Q479.38 98.85 477.65 99.68Q475.92 100.50 474.05 100.50L474.05 100.50Q467.28 100.50 466.34 94.31L466.34 94.31Q464.62 97.26 461.92 98.88Q459.22 100.50 455.98 100.50L455.98 100.50Q452.52 100.50 449.60 98.85Q446.69 97.19 444.92 93.70Q443.16 90.21 443.16 84.95L443.16 84.95Q443.16 78.18 445.32 72.93Q447.48 67.67 451.40 64.76Q455.33 61.84 460.37 61.84L460.37 61.84Q465.26 61.84 468.86 64.86L468.86 64.86L470.74 47.80Q470.95 45.78 474.70 45.78L474.70 45.78L476.06 45.78Q477.94 45.78 478.80 46.32Q479.66 46.86 479.66 47.73L479.66 47.73Q478.94 54.28 477.07 72.10Q475.20 89.92 475.20 90.71L475.20 90.71Q475.20 92.15 475.78 92.73Q476.35 93.30 477.50 93.30L477.50 93.30Q478.15 93.30 478.76 93.09Q479.38 92.87 479.59 92.87L479.59 92.87ZM466.70 85.96L468.22 71.20Q465.70 69.11 462.24 69.11L462.24 69.11Q457.27 69.11 454.82 73.22Q452.38 77.32 452.38 84.38L452.38 84.38Q452.38 88.91 454.03 91Q455.69 93.09 459.07 93.09L459.07 93.09Q461.16 93.09 463.21 91.29Q465.26 89.49 466.70 85.96L466.70 85.96ZM509.83 56.94Q507.46 56.94 506.48 56.40Q505.51 55.86 505.51 54.64L505.51 54.64L506.16 49.96Q506.30 48.81 507.42 48.23Q508.54 47.66 510.98 47.66L510.98 47.66Q513.36 47.66 514.30 48.23Q515.23 48.81 515.23 49.96L515.23 49.96L514.73 54.64Q514.51 56.94 509.83 56.94L509.83 56.94ZM509.76 100.50Q501.84 100.50 501.84 92.22L501.84 92.22Q501.84 92.22 502.13 88.91L502.13 88.91Q502.27 86.39 502.42 85.31L502.42 85.31L504.65 64.22Q504.86 62.20 508.68 62.20L508.68 62.20L510.05 62.20Q513.65 62.20 513.65 64.22L513.65 64.22Q513.22 68.18 512.06 79.05Q510.91 89.92 510.91 90.71L510.91 90.71Q510.91 92.15 511.49 92.73Q512.06 93.30 513.22 93.30L513.22 93.30Q513.79 93.30 514.40 93.09Q515.02 92.87 515.23 92.87L515.23 92.87Q515.52 92.87 515.63 93.02Q515.74 93.16 515.74 93.59L515.74 93.59Q515.74 95.10 515.38 97.26L515.38 97.26Q515.09 98.85 513.36 99.68Q511.63 100.50 509.76 100.50L509.76 100.50ZM531.65 100.50Q527.62 100.50 525.20 98.42Q522.79 96.33 522.79 91.58L522.79 91.58Q522.79 90.42 523.73 81.60Q524.66 72.78 525.02 69.62L525.02 69.62L522.79 69.62Q521.93 69.62 521.53 69.04Q521.14 68.46 521.14 67.24L521.14 67.24Q521.14 62.34 523.51 62.34L523.51 62.34L525.74 62.34L526.54 55.22Q526.75 53.20 530.50 53.20L530.50 53.20L531.86 53.20Q535.46 53.20 535.46 55.22L535.46 55.22L534.74 62.34L539.64 62.34Q540.36 62.34 540.58 62.67Q540.79 62.99 540.79 63.78L540.79 63.78Q540.79 65.66 539.82 67.64Q538.85 69.62 536.98 69.62L536.98 69.62L533.95 69.62Q533.59 72.78 532.84 79.77Q532.08 86.75 531.79 90.28L531.79 90.28Q531.79 93.30 534.46 93.30L534.46 93.30Q535.61 93.30 536.36 93.05Q537.12 92.80 537.34 92.80L537.34 92.80Q537.91 92.80 537.91 93.59L537.91 93.59Q537.91 94.82 537.48 97.26L537.48 97.26Q537.19 98.92 535.46 99.71Q533.74 100.50 531.65 100.50L531.65 100.50ZM579.96 92.87Q580.54 92.87 580.54 93.59L580.54 93.59Q580.54 94.67 580.10 97.26L580.10 97.26Q579.82 98.85 578.09 99.68Q576.36 100.50 574.49 100.50L574.49 100.50Q567.72 100.50 566.78 94.38L566.78 94.38Q565.06 97.26 562.36 98.92Q559.66 100.58 556.56 100.58L556.56 100.58Q551.52 100.58 548.14 96.65Q544.75 92.73 544.75 84.95L544.75 84.95Q544.75 78.18 546.84 72.93Q548.93 67.67 552.67 64.76Q556.42 61.84 561.31 61.84L561.31 61.84Q564.12 61.84 566.39 63.03Q568.66 64.22 570.17 65.73L570.17 65.73Q570.67 64.22 571.00 63.57Q571.32 62.92 572.08 62.60Q572.83 62.27 574.34 62.27L574.34 62.27L575.06 62.27Q578.38 62.27 578.38 63.93L578.38 63.93L577.87 68.90Q575.64 89.78 575.64 90.71L575.64 90.71Q575.64 92.22 576.22 92.76Q576.79 93.30 577.94 93.30L577.94 93.30Q578.52 93.30 579.13 93.09Q579.74 92.87 579.96 92.87L579.96 92.87ZM568.01 76.31Q568.22 73.94 568.87 71.42L568.87 71.42Q566.14 69.11 563.11 69.11L563.11 69.11Q558.43 69.11 556.16 73.18Q553.90 77.25 553.90 84.38L553.90 84.38Q553.90 93.09 559.58 93.09L559.58 93.09Q561.67 93.09 563.69 91.32Q565.70 89.56 567.07 86.03L567.07 86.03L568.01 76.31ZM593.21 100.50Q588.96 100.50 587.12 98.56Q585.29 96.62 585.29 92.73L585.29 92.73Q585.29 92.08 585.43 90.50L585.43 90.50L589.90 47.66Q590.04 46.65 590.87 46.18Q591.70 45.71 593.42 45.71L593.42 45.71L595.73 45.71Q597.74 45.71 598.36 46.22Q598.97 46.72 598.82 48.02L598.82 48.02L594.29 89.56Q594.22 90.06 594.22 90.86L594.22 90.86Q594.22 92.15 594.76 92.73Q595.30 93.30 596.74 93.30L596.74 93.30Q597.31 93.30 597.92 93.09Q598.54 92.87 598.75 92.87L598.75 92.87Q599.04 92.87 599.15 93.02Q599.26 93.16 599.26 93.59L599.26 93.59Q599.26 94.67 598.82 97.26L598.82 97.26Q598.61 98.85 596.84 99.68Q595.08 100.50 593.21 100.50L593.21 100.50ZM614.16 56.94Q611.78 56.94 610.81 56.40Q609.84 55.86 609.84 54.64L609.84 54.64L610.49 49.96Q610.63 48.81 611.75 48.23Q612.86 47.66 615.31 47.66L615.31 47.66Q617.69 47.66 618.62 48.23Q619.56 48.81 619.56 49.96L619.56 49.96L619.06 54.64Q618.84 56.94 614.16 56.94L614.16 56.94ZM614.09 100.50Q606.17 100.50 606.17 92.22L606.17 92.22Q606.17 92.22 606.46 88.91L606.46 88.91Q606.60 86.39 606.74 85.31L606.74 85.31L608.98 64.22Q609.19 62.20 613.01 62.20L613.01 62.20L614.38 62.20Q617.98 62.20 617.98 64.22L617.98 64.22Q617.54 68.18 616.39 79.05Q615.24 89.92 615.24 90.71L615.24 90.71Q615.24 92.15 615.82 92.73Q616.39 93.30 617.54 93.30L617.54 93.30Q618.12 93.30 618.73 93.09Q619.34 92.87 619.56 92.87L619.56 92.87Q619.85 92.87 619.96 93.02Q620.06 93.16 620.06 93.59L620.06 93.59Q620.06 95.10 619.70 97.26L619.70 97.26Q619.42 98.85 617.69 99.68Q615.96 100.50 614.09 100.50L614.09 100.50ZM641.09 100.50Q632.95 100.50 628.99 96.80Q625.03 93.09 625.03 85.31L625.03 85.31Q625.03 74.94 629.75 68.39Q634.46 61.84 644.76 61.84L644.76 61.84Q648.79 61.84 652.21 62.99Q655.63 64.14 655.70 66.38L655.70 66.38Q655.70 66.95 655.09 68.14Q654.48 69.33 653.65 70.23Q652.82 71.13 652.18 71.13L652.18 71.13Q651.89 71.13 651.46 70.88Q651.02 70.62 650.81 70.48L650.81 70.48Q649.66 69.83 648.29 69.44Q646.92 69.04 644.76 69.04L644.76 69.04Q639.72 69.04 637.02 72.82Q634.32 76.60 634.32 84.45L634.32 84.45Q634.32 88.98 636.19 91.14Q638.06 93.30 642.17 93.30L642.17 93.30Q644.83 93.30 646.78 92.73Q648.72 92.15 650.74 91.22L650.74 91.22Q651.89 90.64 652.32 90.64L652.32 90.64Q652.61 90.64 652.68 90.78Q652.75 90.93 652.75 91.58L652.75 91.58Q652.75 96.11 651.60 97.48L651.60 97.48Q650.16 99.06 647.03 99.78Q643.90 100.50 641.09 100.50L641.09 100.50Z"/></svg>