<svg xmlns="http://www.w3.org/2000/svg" viewBox="-2.664 45.63999999999999 492.91200000000015 69.19200000000001"><path d="M1.51 100.14Q-2.66 100.14-2.66 98.70L-2.66 98.70Q-2.66 98.13-2.23 97.26L-2.23 97.26L18.72 50.97Q19.37 49.46 22.97 49.46L22.97 49.46L26.71 49.46Q30.31 49.46 30.67 50.97L30.67 50.97L42.05 97.26Q42.26 97.91 42.26 98.49L42.26 98.49Q42.26 99.28 41.26 99.71Q40.25 100.14 38.38 100.14L38.38 100.14L35.21 100.14Q31.68 100.14 31.32 98.63L31.32 98.63L29.23 89.85L11.81 89.85L7.85 98.63Q7.13 100.14 4.39 100.14L4.39 100.14L1.51 100.14ZM15.91 80.34L27.00 80.34L24.12 67.53Q23.69 65.66 23.54 62.92L23.54 62.92L23.26 62.92Q22.39 65.87 21.67 67.53L21.67 67.53L15.91 80.34ZM56.09 100.58Q52.85 100.58 49.28 99.64Q45.72 98.70 45.72 96.18L45.72 96.18Q45.72 89.70 47.30 89.70L47.30 89.70Q47.52 89.70 48.85 90.39Q50.18 91.07 51.77 91.61Q53.35 92.15 55.22 92.15L55.22 92.15Q57.60 92.15 58.79 91.29Q59.98 90.42 59.98 88.77L59.98 88.77Q59.98 87.26 58.82 86.46Q57.67 85.67 56.12 85.10Q54.58 84.52 54 84.30L54 84.30Q50.83 83.01 49.00 80.99Q47.16 78.98 47.16 74.87L47.16 74.87Q47.16 68.61 51.12 65.19Q55.08 61.77 61.42 61.77L61.42 61.77Q65.30 61.77 68.62 62.81Q71.93 63.86 71.93 66.16L71.93 66.16Q71.93 66.88 71.24 68.18Q70.56 69.47 69.66 70.52Q68.76 71.56 68.11 71.56L68.11 71.56Q67.82 71.56 66.24 70.84Q64.66 70.12 62.21 70.12L62.21 70.12Q58.10 70.12 58.10 72.78L58.10 72.78Q58.10 74.44 59.22 75.27Q60.34 76.10 61.85 76.71Q63.36 77.32 64.01 77.61L64.01 77.61Q67.18 78.98 69.05 80.96Q70.92 82.94 70.92 86.68L70.92 86.68Q70.92 93.16 66.82 96.87Q62.71 100.58 56.09 100.58L56.09 100.58ZM111.60 91.72Q111.96 91.72 112.07 91.86Q112.18 92.01 112.18 92.51L112.18 92.51Q112.18 93.88 111.67 96.83L111.67 96.83Q111.38 98.63 109.44 99.60Q107.50 100.58 105.34 100.58L105.34 100.58Q98.50 100.58 97.06 95.10L97.06 95.10Q95.47 97.55 92.88 99.10Q90.29 100.65 87.26 100.65L87.26 100.65Q81.94 100.65 78.77 96.58Q75.60 92.51 75.60 85.02L75.60 85.02Q75.60 78.18 77.62 72.93Q79.63 67.67 83.27 64.76Q86.90 61.84 91.58 61.84L91.58 61.84Q94.32 61.84 96.52 62.99Q98.71 64.14 100.30 65.66L100.30 65.66Q100.73 64.14 101.09 63.53Q101.45 62.92 102.31 62.60Q103.18 62.27 104.98 62.27L104.98 62.27L105.84 62.27Q110.02 62.27 110.02 64.07L110.02 64.07L109.37 70.41Q107.35 89.13 107.35 89.85L107.35 89.85Q107.35 91.07 107.86 91.61Q108.36 92.15 109.51 92.15L109.51 92.15Q110.16 92.15 110.77 91.94Q111.38 91.72 111.60 91.72L111.60 91.72ZM97.85 77.82Q98.14 75.16 98.78 72.21L98.78 72.21Q96.55 70.26 94.03 70.26L94.03 70.26Q90.36 70.26 88.38 73.90Q86.40 77.54 86.40 84.38L86.40 84.38Q86.40 91.94 91.30 91.94L91.30 91.94Q94.25 91.94 96.91 87.76L96.91 87.76L97.85 77.82ZM138.17 61.77Q144.00 61.77 147.46 65.84Q150.91 69.90 150.91 77.39L150.91 77.39Q150.91 84.23 148.75 89.49Q146.59 94.74 142.70 97.66Q138.82 100.58 133.85 100.58L133.85 100.58Q129.82 100.58 126.14 97.70L126.14 97.70L124.56 112.53Q124.34 114.83 120.02 114.83L120.02 114.83L118.01 114.83Q115.99 114.83 114.95 114.18Q113.90 113.54 113.90 112.60L113.90 112.60L117.94 74.30Q118.22 71.49 118.22 69.18L118.22 69.18L118.15 66.66Q118.08 66.16 118.08 65.15L118.08 65.15Q118.08 64.00 120.46 63.28Q122.83 62.56 126.43 62.56L126.43 62.56Q128.74 62.56 128.74 66.88L128.74 66.88Q130.32 64.58 132.80 63.17Q135.29 61.77 138.17 61.77L138.17 61.77ZM131.40 92.15Q135.58 92.15 137.84 88.52Q140.11 84.88 140.11 78.04L140.11 78.04Q140.11 70.48 134.14 70.48L134.14 70.48Q131.04 70.48 128.38 74.87L128.38 74.87L126.86 90.50Q128.88 92.15 131.40 92.15L131.40 92.15ZM196.27 61.77Q202.25 61.77 205.81 65.84Q209.38 69.90 209.38 77.39L209.38 77.39Q209.38 84.23 207.18 89.49Q204.98 94.74 201.02 97.66Q197.06 100.58 191.95 100.58L191.95 100.58Q187.13 100.58 183.24 96.83L183.24 96.83Q182.81 98.27 182.41 98.88Q182.02 99.50 181.19 99.82Q180.36 100.14 178.56 100.14L178.56 100.14L177.70 100.14Q173.52 100.14 173.52 98.34L173.52 98.34L178.85 48.02Q179.06 45.71 183.38 45.71L183.38 45.71L185.40 45.71Q187.42 45.71 188.46 46.36Q189.50 47.01 189.50 47.94L189.50 47.94L187.56 65.87Q189.22 63.93 191.45 62.85Q193.68 61.77 196.27 61.77L196.27 61.77ZM189.50 92.15Q193.82 92.15 196.20 88.52Q198.58 84.88 198.58 78.04L198.58 78.04Q198.58 74.15 197.06 72.32Q195.55 70.48 192.24 70.48L192.24 70.48Q189.36 70.48 186.70 74.51L186.70 74.51L185.69 83.94L184.82 90.28Q186.98 92.15 189.50 92.15L189.50 92.15ZM230.62 100.58Q222.91 100.58 218.95 96.54Q214.99 92.51 214.99 84.81L214.99 84.81Q214.99 74.80 219.64 68.28Q224.28 61.77 234.72 61.77L234.72 61.77Q242.42 61.77 246.38 65.80Q250.34 69.83 250.34 77.61L250.34 77.61Q250.34 88.55 245.09 94.56Q239.83 100.58 230.62 100.58L230.62 100.58ZM231.48 92.15Q235.22 92.15 237.35 88.52Q239.47 84.88 239.47 78.11L239.47 78.11Q239.47 74.15 238.10 72.17Q236.74 70.19 233.86 70.19L233.86 70.19Q230.04 70.19 227.92 73.83Q225.79 77.46 225.79 84.30L225.79 84.30Q225.79 92.15 231.48 92.15L231.48 92.15ZM264.67 100.58Q259.78 100.58 257.87 98.49Q255.96 96.40 255.96 92.30L255.96 92.30Q255.96 90.42 256.10 89.34L256.10 89.34L260.50 47.80Q260.64 46.65 261.47 46.14Q262.30 45.64 264.24 45.64L264.24 45.64L267.70 45.64Q269.71 45.64 270.40 46.04Q271.08 46.43 271.08 47.37L271.08 47.37L271.01 48.09L266.54 88.62Q266.47 89.13 266.47 89.92L266.47 89.92Q266.47 91.07 266.98 91.61Q267.48 92.15 268.85 92.15L268.85 92.15Q269.50 92.15 270.11 91.94Q270.72 91.72 270.94 91.72L270.94 91.72Q271.30 91.72 271.40 91.86Q271.51 92.01 271.51 92.51L271.51 92.51Q271.51 93.88 271.01 96.83L271.01 96.83Q270.72 98.63 268.78 99.60Q266.83 100.58 264.67 100.58L264.67 100.58ZM313.56 91.72Q313.92 91.72 314.03 91.86Q314.14 92.01 314.14 92.51L314.14 92.51Q314.14 93.88 313.63 96.83L313.63 96.83Q313.34 98.63 311.40 99.60Q309.46 100.58 307.30 100.58L307.30 100.58Q303.91 100.58 301.82 99.24Q299.74 97.91 299.02 95.03L299.02 95.03Q297.43 97.55 294.88 99.06Q292.32 100.58 289.22 100.58L289.22 100.58Q283.54 100.58 280.19 96.51Q276.84 92.44 276.84 84.95L276.84 84.95Q276.84 78.11 278.96 72.86Q281.09 67.60 284.87 64.68Q288.65 61.77 293.54 61.77L293.54 61.77Q297.65 61.77 301.25 64.72L301.25 64.72L303.05 48.02Q303.26 45.71 307.58 45.71L307.58 45.71L309.60 45.71Q311.62 45.71 312.66 46.36Q313.70 47.01 313.70 47.94L313.70 47.94Q312.98 54.35 311.47 68.64Q309.96 82.94 309.31 89.78L309.31 89.78Q309.31 91 309.82 91.58Q310.32 92.15 311.47 92.15L311.47 92.15Q312.12 92.15 312.73 91.94Q313.34 91.72 313.56 91.72L313.56 91.72ZM298.94 87.62L300.53 71.92Q298.37 70.19 295.99 70.19L295.99 70.19Q292.03 70.19 289.84 73.83Q287.64 77.46 287.64 84.30L287.64 84.30Q287.64 91.86 293.26 91.86L293.26 91.86Q296.28 91.86 298.94 87.62L298.94 87.62ZM343.80 57.74Q341.06 57.74 339.91 57.09Q338.76 56.44 338.76 55.00L338.76 55.00L339.34 49.96Q339.70 47.30 345.02 47.30L345.02 47.30Q347.76 47.30 348.91 47.94Q350.06 48.59 350.06 49.96L350.06 49.96L349.49 55.00Q349.06 57.74 343.80 57.74L343.80 57.74ZM343.73 100.58Q339.41 100.58 337.21 98.38Q335.02 96.18 335.02 91.43L335.02 91.43L335.23 88.34Q335.38 87.33 335.45 86.39Q335.52 85.46 335.59 84.59L335.59 84.59L337.75 64.50Q337.97 62.20 342.29 62.20L342.29 62.20L344.30 62.20Q346.32 62.20 347.36 62.85Q348.41 63.50 348.41 64.43L348.41 64.43Q347.98 68.32 347.04 76.92Q346.10 85.53 345.74 89.78L345.74 89.78Q345.74 91 346.25 91.58Q346.75 92.15 347.90 92.15L347.90 92.15Q348.55 92.15 349.16 91.94Q349.78 91.72 349.99 91.72L349.99 91.72Q350.35 91.72 350.46 91.86Q350.57 92.01 350.57 92.51L350.57 92.51Q350.57 93.88 350.06 96.83L350.06 96.83Q349.78 98.63 347.83 99.60Q345.89 100.58 343.73 100.58L343.73 100.58ZM365.40 100.58Q360.94 100.58 358.49 98.24Q356.04 95.90 356.04 91L356.04 91Q356.04 89.99 356.90 81.86Q357.77 73.72 358.13 70.77L358.13 70.77L356.69 70.77Q355.68 70.77 355.25 70.16Q354.82 69.54 354.82 68.18L354.82 68.18Q354.82 62.34 357.55 62.34L357.55 62.34L358.99 62.34L359.71 55.50Q359.93 53.20 364.25 53.20L364.25 53.20L366.26 53.20Q368.28 53.20 369.32 53.85Q370.37 54.50 370.37 55.43L370.37 55.43L369.65 62.34L373.90 62.34Q374.62 62.34 374.83 62.67Q375.05 62.99 375.05 63.78L375.05 63.78Q375.05 66.16 373.93 68.46Q372.82 70.77 370.87 70.77L370.87 70.77L368.78 70.77L366.77 89.78Q366.77 91 367.27 91.58Q367.78 92.15 368.93 92.15L368.93 92.15Q369.86 92.15 370.66 91.94Q371.45 91.72 371.66 91.72L371.66 91.72Q372.02 91.72 372.13 91.86Q372.24 92.01 372.24 92.51L372.24 92.51Q372.24 93.88 371.74 96.83L371.74 96.83Q371.45 98.63 369.50 99.60Q367.56 100.58 365.40 100.58L365.40 100.58ZM414.36 91.72Q414.72 91.72 414.83 91.86Q414.94 92.01 414.94 92.51L414.94 92.51Q414.94 93.88 414.43 96.83L414.43 96.83Q414.14 98.63 412.20 99.60Q410.26 100.58 408.10 100.58L408.10 100.58Q401.26 100.58 399.82 95.10L399.82 95.10Q398.23 97.55 395.64 99.10Q393.05 100.65 390.02 100.65L390.02 100.65Q384.70 100.65 381.53 96.58Q378.36 92.51 378.36 85.02L378.36 85.02Q378.36 78.18 380.38 72.93Q382.39 67.67 386.03 64.76Q389.66 61.84 394.34 61.84L394.34 61.84Q397.08 61.84 399.28 62.99Q401.47 64.14 403.06 65.66L403.06 65.66Q403.49 64.14 403.85 63.53Q404.21 62.92 405.07 62.60Q405.94 62.27 407.74 62.27L407.74 62.27L408.60 62.27Q412.78 62.27 412.78 64.07L412.78 64.07L412.13 70.41Q410.11 89.13 410.11 89.85L410.11 89.85Q410.11 91.07 410.62 91.61Q411.12 92.15 412.27 92.15L412.27 92.15Q412.92 92.15 413.53 91.94Q414.14 91.72 414.36 91.72L414.36 91.72ZM400.61 77.82Q400.90 75.16 401.54 72.21L401.54 72.21Q399.31 70.26 396.79 70.26L396.79 70.26Q393.12 70.26 391.14 73.90Q389.16 77.54 389.16 84.38L389.16 84.38Q389.16 91.94 394.06 91.94L394.06 91.94Q397.01 91.94 399.67 87.76L399.67 87.76L400.61 77.82ZM426.96 100.58Q422.06 100.58 420.16 98.49Q418.25 96.40 418.25 92.30L418.25 92.30Q418.25 90.42 418.39 89.34L418.39 89.34L422.78 47.80Q422.93 46.65 423.76 46.14Q424.58 45.64 426.53 45.64L426.53 45.64L429.98 45.64Q432.00 45.64 432.68 46.04Q433.37 46.43 433.37 47.37L433.37 47.37L433.30 48.09L428.83 88.62Q428.76 89.13 428.76 89.92L428.76 89.92Q428.76 91.07 429.26 91.61Q429.77 92.15 431.14 92.15L431.14 92.15Q431.78 92.15 432.40 91.94Q433.01 91.72 433.22 91.72L433.22 91.72Q433.58 91.72 433.69 91.86Q433.80 92.01 433.80 92.51L433.80 92.51Q433.80 93.88 433.30 96.83L433.30 96.83Q433.01 98.63 431.06 99.60Q429.12 100.58 426.96 100.58L426.96 100.58ZM448.13 57.74Q445.39 57.74 444.24 57.09Q443.09 56.44 443.09 55.00L443.09 55.00L443.66 49.96Q444.02 47.30 449.35 47.30L449.35 47.30Q452.09 47.30 453.24 47.94Q454.39 48.59 454.39 49.96L454.39 49.96L453.82 55.00Q453.38 57.74 448.13 57.74L448.13 57.74ZM448.06 100.58Q443.74 100.58 441.54 98.38Q439.34 96.18 439.34 91.43L439.34 91.43L439.56 88.34Q439.70 87.33 439.78 86.39Q439.85 85.46 439.92 84.59L439.92 84.59L442.08 64.50Q442.30 62.20 446.62 62.20L446.62 62.20L448.63 62.20Q450.65 62.20 451.69 62.85Q452.74 63.50 452.74 64.43L452.74 64.43Q452.30 68.32 451.37 76.92Q450.43 85.53 450.07 89.78L450.07 89.78Q450.07 91 450.58 91.58Q451.08 92.15 452.23 92.15L452.23 92.15Q452.88 92.15 453.49 91.94Q454.10 91.72 454.32 91.72L454.32 91.72Q454.68 91.72 454.79 91.86Q454.90 92.01 454.90 92.51L454.90 92.51Q454.90 93.88 454.39 96.83L454.39 96.83Q454.10 98.63 452.16 99.60Q450.22 100.58 448.06 100.58L448.06 100.58ZM475.06 100.58Q466.78 100.58 462.74 96.80Q458.71 93.02 458.71 85.31L458.71 85.31Q458.71 74.87 463.46 68.32Q468.22 61.77 478.87 61.77L478.87 61.77Q482.76 61.77 486.47 62.88Q490.18 64.00 490.25 66.74L490.25 66.74Q490.25 67.46 489.56 68.79Q488.88 70.12 487.94 71.16Q487.01 72.21 486.29 72.21L486.29 72.21Q486.00 72.21 485.14 71.70L485.14 71.70Q483.84 70.98 482.58 70.59Q481.32 70.19 479.23 70.19L479.23 70.19Q469.73 70.19 469.73 84.23L469.73 84.23Q469.73 88.26 471.35 90.21Q472.97 92.15 476.42 92.15L476.42 92.15Q479.16 92.15 481.28 91.50Q483.41 90.86 485.35 89.85L485.35 89.85Q486.50 89.27 486.86 89.27L486.86 89.27Q487.15 89.27 487.26 89.45Q487.37 89.63 487.37 90.28L487.37 90.28Q487.37 95.39 486.14 96.98L486.14 96.98Q484.70 98.78 481.39 99.68Q478.08 100.58 475.06 100.58L475.06 100.58Z"/></svg>