<svg xmlns="http://www.w3.org/2000/svg" viewBox="2.8800000000000003 44.559999999999995 468.5040000000001 73.44"><path d="M23 100L3 100L3 96L9 94L9 55L3 54L3 50L16 50L24 50Q32 50 36 53Q40 56 40 62L40 62Q40 71 31 74L31 74Q36 75 39 78Q42 81 42 86L42 86Q42 100 23 100L23 100ZM22 77L16 77L16 94L24 94Q34 94 34 86L34 86Q34 81 31 79Q28 77 22 77L22 77ZM24 55L16 55L16 71L22 71Q27 71 30 69Q32 67 32 63L32 63Q32 59 30 57Q28 55 24 55L24 55ZM58 45L58 45Q62 45 62 50L62 50Q62 53 61 54Q59 55 57 55L57 55Q55 55 54 54Q53 52 53 50L53 50Q53 48 54 46Q56 45 58 45ZM48 62L62 62L62 94L67 96L67 100L48 100L48 96L54 94L54 68L48 66L48 62ZM78 53L85 52L85 62L96 62L96 68L85 68L85 91Q85 95 89 95L89 95Q91 95 95 93L95 93L96 97Q92 101 86 101L86 101Q83 101 80 98Q78 96 78 90L78 90L78 68L71 68L71 63L78 62L78 53ZM107 53L114 52L114 62L124 62L124 68L114 68L114 91Q114 95 117 95L117 95Q120 95 123 93L123 93L125 97Q120 101 115 101L115 101Q111 101 109 98Q107 96 107 90L107 90L107 68L99 68L99 63L107 62L107 53ZM162 78L162 82L137 82Q137 88 140 91Q142 95 147 95L147 95Q149 95 150 95Q152 94 153 94Q155 94 156 93Q157 92 158 92L158 92L159 91L162 95Q159 97 157 98Q155 99 153 100Q150 101 147 101L147 101Q138 101 134 96Q129 90 129 81L129 81Q129 77 131 73Q132 70 134 67Q137 64 140 63Q143 61 147 61L147 61Q162 61 162 78L162 78ZM137 77L137 77L154 77Q154 72 152 69Q151 67 146 67L146 67Q142 67 140 70Q137 72 137 77ZM167 62L179 62L180 67Q185 61 191 61L191 61Q194 61 196 62L196 62L197 62L197 73L192 73L191 67Q185 67 181 73L181 73L181 94L188 96L188 100L167 100L167 96L174 94L174 68L167 66L167 62ZM217 62L229 62L230 67Q235 61 241 61L241 61Q244 61 247 62L247 62L247 62L247 73L242 73L241 67Q235 67 231 73L231 73L231 94L238 96L238 100L217 100L217 96L224 94L224 68L217 66L217 62ZM284 78L283 82L258 82Q258 88 261 91Q264 95 269 95L269 95Q271 95 272 95Q274 94 275 94Q276 94 278 93Q279 92 280 92L280 92L281 91L284 95Q281 97 279 98Q277 99 274 100Q271 101 268 101L268 101Q260 101 255 96Q251 90 251 81L251 81Q251 77 252 73Q254 70 256 67Q258 64 261 63Q265 61 269 61L269 61Q284 61 284 78L284 78ZM259 77L259 77L276 77Q276 72 274 69Q272 67 268 67L268 67Q264 67 262 70Q259 72 259 77ZM306 88L306 88Q302 88 300 88L300 88L300 95L311 95Q318 95 322 97Q325 100 325 105L325 105Q325 111 321 115Q316 118 307 118L307 118Q289 118 289 108L289 108Q289 103 294 100L294 100Q295 99 297 99L297 99Q295 98 294 97Q293 96 293 95L293 95Q293 92 295 88L295 88L296 86Q296 86 295 85Q294 84 293 83L293 83Q291 80 291 75L291 75Q291 68 295 65Q299 61 307 61L307 61Q311 61 313 62L313 62L314 62L327 62L327 66L320 67Q321 70 321 74L321 74Q321 81 317 85Q313 88 306 88ZM309 100L309 100L301 100Q301 100 300 101Q299 102 298 102L298 102Q297 104 297 106L297 106Q297 110 299 111Q302 113 308 113L308 113Q319 113 319 106L319 106Q319 102 316 101Q314 100 309 100ZM306 66L306 66Q298 66 298 75L298 75Q298 79 300 81Q302 83 306 83L306 83Q310 83 312 81Q314 79 314 75L314 75Q314 66 306 66ZM354 62L367 62L367 94L373 96L373 100L361 100L361 95Q358 98 354 99Q350 101 347 101L347 101Q342 101 339 97Q336 94 336 88L336 88L336 68L330 66L330 62L343 62L343 87Q343 91 345 93Q346 95 349 95L349 95Q352 95 355 93Q357 92 359 90L359 90L360 89L360 68L354 66L354 62ZM377 45L390 45L390 94L398 96L398 100L377 100L377 96L383 94L383 50L377 49L377 45ZM404 73L403 64Q411 61 418 61L418 61Q424 61 427 64Q431 66 431 72L431 72L431 94L436 96L436 100L425 100L424 95Q418 101 412 101L412 101Q407 101 404 98Q401 95 401 90L401 90Q401 79 418 79L418 79L424 79L424 73Q424 67 417 67L417 67Q413 67 410 67L410 67L409 68L408 73L404 73ZM424 89L424 83L418 83Q413 83 411 85Q409 86 409 89L409 89Q409 92 410 93Q411 95 414 95L414 95Q415 95 416 95Q417 94 419 93Q420 93 421 92Q422 91 422 91L422 91L424 89ZM442 62L453 62L454 67Q459 61 465 61L465 61Q468 61 471 62L471 62L471 62L471 73L466 73L465 67Q459 67 455 73L455 73L455 94L462 96L462 100L442 100L442 96L448 94L448 68L442 66L442 62Z"/></svg>