<svg xmlns="http://www.w3.org/2000/svg" viewBox="0.36000000000000004 44.559999999999995 383.4000000000001 56.160000000000004"><path d="M1 96L7 94L14 55L8 54L8 50L22 50L29 50Q35 50 39 52Q43 55 43 61Q43 66 40 70Q37 73 32 74L32 74Q42 76 42 84Q42 91 36 96Q31 100 22 100L22 100L0 100L1 96ZM17 77L15 94L21 94Q27 94 31 91Q34 88 34 84Q34 80 31 78Q28 77 23 77L23 77L17 77ZM29 55L29 55L21 55L18 71L24 71Q27 71 31 69L31 69Q33 68 34 66Q36 64 36 61Q36 59 34 57Q32 55 29 55ZM64 99L51 100L56 68L50 66L50 62L64 62L58 94L65 95L64 99ZM66 49Q66 51 64 53Q63 55 61 55Q59 55 58 54Q57 53 57 51Q57 49 58 47Q59 45 62 45Q64 45 65 46Q66 47 66 49ZM90 94L91 94L93 97Q87 101 83 101L83 101Q76 101 76 92L76 92Q76 90 76 88L76 88L79 68L72 68L73 63L80 62L82 53L89 52L87 62L97 62L96 68L86 68L83 87Q83 90 83 91Q83 93 83 94Q84 95 85 95L85 95Q87 95 90 94L90 94ZM117 94L118 94L119 97Q114 101 110 101L110 101Q102 101 102 92L102 92Q102 90 103 88L103 88L106 68L99 68L100 63L107 62L108 53L115 52L114 62L124 62L123 68L113 68L110 87Q109 90 109 91Q109 93 110 94Q111 95 112 95L112 95Q114 95 117 94L117 94ZM157 70L157 70Q157 77 150 81Q143 84 132 84L132 84Q132 86 132 87L132 87Q132 95 139 95L139 95Q142 95 145 94Q148 93 149 93L149 93L151 92L153 95Q153 96 151 97Q150 98 145 99Q141 101 137 101L137 101Q131 101 128 97Q124 94 124 88L124 88Q124 77 130 69Q137 61 145 61L145 61Q151 61 154 64Q157 66 157 70ZM132 79L132 79Q140 79 145 77Q150 75 150 71L150 71Q150 67 145 67L145 67Q141 67 137 70Q134 74 132 79ZM193 62L193 62L190 73L186 73L186 68Q184 68 181 70Q179 71 178 74L178 74Q174 80 173 84L173 84L172 86L170 100L163 100L169 68L162 66L163 62L176 62L174 74Q176 69 179 65L179 65Q181 64 183 62Q186 61 189 61L189 61Q191 61 193 62ZM229 99L216 100L221 68L215 66L216 62L229 62L224 94L230 95L229 99ZM231 49Q231 51 230 53Q229 55 227 55Q224 55 223 54Q222 53 222 51Q222 49 224 47Q225 45 227 45Q229 45 230 46Q231 47 231 49ZM256 94L257 94L258 97Q253 101 249 101L249 101Q241 101 241 92L241 92Q241 90 242 88L242 88L245 68L238 68L239 63L246 62L247 53L254 52L253 62L263 62L262 68L252 68L249 87Q248 90 248 91Q248 93 249 94Q250 95 251 95L251 95Q253 95 256 94L256 94ZM300 62L295 94L301 95L300 99L287 100L290 87Q287 93 283 96L283 96Q282 98 279 99Q276 101 274 101L274 101Q270 101 267 97Q264 94 264 88L264 88Q264 76 271 68Q277 61 286 61L286 61Q288 61 290 62Q292 62 293 63L293 63L294 63L296 62L300 62ZM290 77L291 75L292 68Q290 67 286 67L286 67Q280 67 276 72Q272 77 272 87L272 87Q272 91 273 93Q274 95 276 95Q278 95 281 93Q283 91 285 88L285 88Q289 82 290 77L290 77ZM321 99L308 100L316 50L309 49L310 45L323 45L316 94L322 95L321 99ZM345 99L332 100L337 68L331 66L331 62L345 62L339 94L345 95L345 99ZM347 49Q347 51 345 53Q344 55 342 55Q340 55 339 54Q338 53 338 51Q338 49 339 47Q340 45 342 45Q345 45 346 46Q347 47 347 49ZM382 74L377 74L377 68Q376 67 373 67L373 67Q367 67 363 73Q360 79 360 87Q360 95 366 95L366 95Q369 95 371 94Q374 93 376 93L376 93L377 92L379 95Q379 96 377 97Q376 98 372 99Q368 101 365 101L365 101Q359 101 356 97Q352 94 352 87L352 87Q352 76 358 68Q364 61 374 61L374 61Q376 61 379 62Q381 63 383 63L383 63L384 64L382 74Z"/></svg>