<svg xmlns="http://www.w3.org/2000/svg" viewBox="2.8800000000000003 42.75999999999999 380.3760000000001 58.10400000000001"><path d="M2.88 49.60L19.22 49.24L26.78 49.24Q34.06 49.24 38.34 52.37Q42.62 55.50 42.62 61.70L42.62 61.70Q42.62 70.84 33.98 73.58L33.98 73.58Q44.28 76.53 44.28 85.10L44.28 85.10Q44.28 100 25.56 100L25.56 100L2.88 100L2.88 93.74Q4.68 93.09 8.28 91.94L8.28 91.94L8.28 57.74L2.88 55.58L2.88 49.60ZM23.40 77.54L23.40 77.54L19.22 77.54L19.22 91.58L25.20 91.58Q28.94 91.58 30.92 89.85Q32.90 88.12 32.90 85.10L32.90 85.10Q32.90 81.21 30.60 79.37Q28.30 77.54 23.40 77.54ZM25.34 57.74L19.22 57.74L19.22 69.98L23.40 69.98Q31.46 69.98 31.46 63.28L31.46 63.28Q31.46 60.54 29.77 59.14Q28.08 57.74 25.34 57.74L25.34 57.74ZM49.82 67.46L49.82 61.70L66.17 61.12L66.17 92.44L71.21 94.24L71.21 100L49.82 100L49.82 94.24L55.58 92.44L55.58 68.90L49.82 67.46ZM54.22 49.24L54.22 49.24Q54.22 46.29 56.05 44.52Q57.89 42.76 60.41 42.76L60.41 42.76Q66.46 42.76 66.46 49.24L66.46 49.24Q66.46 52.26 64.62 54.03Q62.78 55.79 60.41 55.79L60.41 55.79Q57.46 55.79 55.84 54.10Q54.22 52.41 54.22 49.24ZM91.44 100.72L91.44 100.72Q85.46 100.72 83.23 96.87Q81.00 93.02 81.00 83.44L81.00 83.44L81.00 69.98L74.30 69.98L74.30 63.14L81.00 62.20L81.00 52.26L91.58 50.32L91.58 62.20L101.66 62.20L101.66 69.98L91.58 69.98L91.58 86.25Q91.58 89.85 92.38 91.29Q93.17 92.73 95.40 92.73L95.40 92.73Q97.99 92.73 101.09 91.07L101.09 91.07L103.68 96.26Q97.34 100.72 91.44 100.72ZM122.90 100.72L122.90 100.72Q116.93 100.72 114.70 96.87Q112.46 93.02 112.46 83.44L112.46 83.44L112.46 69.98L105.77 69.98L105.77 63.14L112.46 62.20L112.46 52.26L123.05 50.32L123.05 62.20L133.13 62.20L133.13 69.98L123.05 69.98L123.05 86.25Q123.05 89.85 123.84 91.29Q124.63 92.73 126.86 92.73L126.86 92.73Q129.46 92.73 132.55 91.07L132.55 91.07L135.14 96.26Q128.81 100.72 122.90 100.72ZM174.17 77.32L173.74 82.72L149.83 82.94Q150.12 87.40 152.46 89.85Q154.80 92.30 158.47 92.30L158.47 92.30Q161.14 92.30 164.16 91.47Q167.18 90.64 168.84 89.78L168.84 89.78L170.57 88.91L173.66 94.67Q172.87 95.32 171.43 96.33Q169.99 97.34 165.67 99.03Q161.35 100.72 157.25 100.72L157.25 100.72Q148.10 100.72 143.32 95.64Q138.53 90.57 138.53 81.28L138.53 81.28Q138.53 71.70 143.64 66.05Q148.75 60.40 157.75 60.40L157.75 60.40Q165.67 60.40 169.92 64.94Q174.17 69.47 174.17 77.32L174.17 77.32ZM157.03 68.82L157.03 68.82Q154.08 68.82 152.24 70.84Q150.41 72.86 149.98 76.24L149.98 76.24L162.94 76.24Q162.94 68.82 157.03 68.82ZM178.63 67.46L178.63 61.70L193.54 61.12L194.18 66.09Q194.76 65.44 195.77 64.50Q196.78 63.57 199.40 61.98Q202.03 60.40 204.19 60.40L204.19 60.40Q205.92 60.40 207.54 60.72Q209.16 61.05 209.95 61.41L209.95 61.41L210.67 61.70L210.10 75.38L203.83 75.38L202.75 69.26Q200.88 69.26 198.94 70.26Q196.99 71.27 195.98 72.28L195.98 72.28L194.98 73.29L194.98 92.44L201.82 94.24L201.82 100L178.63 100L178.63 94.24L184.39 92.44L184.39 68.90L178.63 67.46ZM227.59 50.54L227.59 44.78L243.58 44.20L243.58 64.22Q248.54 60.40 253.87 60.40L253.87 60.40Q261.07 60.40 264.85 65.37Q268.63 70.34 268.63 79.48L268.63 79.48Q268.63 89.78 263.30 95.32Q257.98 100.86 247.75 100.86L247.75 100.86Q244.22 100.86 240.55 100.47Q236.88 100.07 234.94 99.71L234.94 99.71L232.99 99.28L232.99 51.98L227.59 50.54ZM244.30 71.34L243.58 72.14L243.58 91.86Q245.23 92.44 248.90 92.44L248.90 92.44Q257.47 92.44 257.47 80.20L257.47 80.20Q257.47 68.90 250.42 68.90L250.42 68.90Q248.47 68.90 246.78 69.69Q245.09 70.48 244.30 71.34L244.30 71.34ZM293.11 60.40L293.11 60.40Q301.82 60.40 306.54 65.48Q311.26 70.55 311.26 79.84L311.26 79.84Q311.26 89.49 306.04 95.10Q300.82 100.72 292.03 100.72L292.03 100.72Q273.67 100.72 273.67 80.92L273.67 80.92Q273.67 71.27 278.93 65.84Q284.18 60.40 293.11 60.40ZM292.75 68.68L292.75 68.68Q288.65 68.68 286.74 71.34Q284.83 74.01 284.83 80.56L284.83 80.56Q284.83 86.75 286.63 89.60Q288.43 92.44 292.39 92.44Q296.35 92.44 298.22 89.63Q300.10 86.82 300.10 80.20L300.10 80.20Q300.10 74.37 298.33 71.52Q296.57 68.68 292.75 68.68ZM315.58 50.54L315.58 44.78L332.21 44.20L332.21 92.44L339.05 94.24L339.05 100L315.58 100L315.58 94.24L321.34 92.44L321.34 51.98L315.58 50.54ZM383.26 93.74L383.26 99.50L368.14 100L367.49 96.18Q362.95 100.72 356.62 100.72L356.62 100.72Q349.20 100.72 345.53 95.68Q341.86 90.64 341.86 81.50L341.86 81.50Q341.86 71.27 347.00 65.84Q352.15 60.40 362.23 60.40L362.23 60.40Q364.61 60.40 366.91 61.12L366.91 61.12L366.91 51.98L361.15 50.54L361.15 44.78L377.50 44.20L377.50 92.30L383.26 93.74ZM366.19 89.20L366.91 88.19L366.91 69.76Q365.11 68.68 361.30 68.68L361.30 68.68Q353.02 68.68 353.02 80.92L353.02 80.92Q353.02 92.30 359.93 92.30L359.93 92.30Q361.94 92.30 363.71 91.25Q365.47 90.21 366.19 89.20L366.19 89.20Z"/></svg>