<svg xmlns="http://www.w3.org/2000/svg" viewBox="0.4 -7.65 27.000000000000004 7.75"><path d="M3.25 0L0.40 0L0.40-0.60L1.25-0.80L1.25-6.20L0.40-6.40L0.40-6.95L2.25-7L3.40-7Q4.38-7 4.96-6.56Q5.55-6.12 5.55-5.25L5.55-5.25Q5.55-3.96 4.25-3.63L4.25-3.63Q5.03-3.45 5.42-3.03Q5.80-2.61 5.80-2L5.80-2Q5.80 0 3.25 0L3.25 0ZM3-3.25L2.25-3.25L2.25-0.80L3.30-0.80Q4.75-0.80 4.75-1.95L4.75-1.95Q4.75-2.67 4.32-2.96Q3.88-3.25 3-3.25L3-3.25ZM3.35-6.20L2.25-6.20L2.25-4L3-4Q3.70-4 4.10-4.29Q4.50-4.57 4.50-5.11L4.50-5.11Q4.50-5.66 4.18-5.93Q3.86-6.20 3.35-6.20L3.35-6.20ZM8-7.65L8-7.65Q8.65-7.65 8.65-6.90L8.65-6.90Q8.65-6.59 8.43-6.42Q8.21-6.25 7.96-6.25L7.96-6.25Q7.69-6.25 7.52-6.44Q7.35-6.62 7.35-6.95L7.35-6.95Q7.35-7.28 7.54-7.46Q7.72-7.65 8-7.65ZM6.70-5.25L8.55-5.30L8.55-0.80L9.30-0.55L9.30 0L6.70 0L6.70-0.55L7.55-0.80L7.55-4.50L6.70-4.70L6.70-5.25ZM10.85-6.51L11.85-6.71L11.85-5.25L13.30-5.25L13.30-4.50L11.85-4.50L11.85-1.29Q11.85-0.68 12.35-0.68L12.35-0.68Q12.67-0.68 13.13-0.93L13.13-0.93L13.40-0.40Q12.72 0.10 12 0.10L12 0.10Q11.49 0.10 11.17-0.24Q10.85-0.57 10.85-1.35L10.85-1.35L10.85-4.50L9.85-4.50L9.85-5.15L10.85-5.25L10.85-6.51ZM14.80-6.51L15.80-6.71L15.80-5.25L17.25-5.25L17.25-4.50L15.80-4.50L15.80-1.29Q15.80-0.68 16.30-0.68L16.30-0.68Q16.62-0.68 17.08-0.93L17.08-0.93L17.35-0.40Q16.67 0.10 15.95 0.10L15.95 0.10Q15.44 0.10 15.12-0.24Q14.80-0.57 14.80-1.35L14.80-1.35L14.80-4.50L13.80-4.50L13.80-5.15L14.80-5.25L14.80-6.51ZM22.50-3.05L22.45-2.52L19-2.50Q19-1.68 19.39-1.19Q19.79-0.70 20.45-0.70L20.45-0.70Q20.67-0.70 20.89-0.74Q21.11-0.78 21.30-0.84Q21.50-0.90 21.66-0.97Q21.82-1.05 21.93-1.12L21.93-1.12L22.13-1.25L22.48-0.73Q22.14-0.46 21.86-0.30Q21.57-0.15 21.19-0.03Q20.80 0.10 20.35 0.10L20.35 0.10Q19.17 0.10 18.56-0.61Q17.95-1.33 17.95-2.57L17.95-2.57Q17.95-3.19 18.13-3.71Q18.31-4.23 18.64-4.61Q18.96-4.98 19.41-5.19Q19.86-5.40 20.40-5.40L20.40-5.40Q22.50-5.40 22.50-3.05L22.50-3.05ZM19.04-3.25L19.04-3.25L21.44-3.25Q21.44-3.86 21.18-4.24Q20.92-4.62 20.34-4.62L20.34-4.62Q19.77-4.62 19.43-4.24Q19.09-3.85 19.04-3.25ZM23.25-5.25L24.90-5.30L24.99-4.57Q25.73-5.40 26.50-5.40L26.50-5.40Q26.91-5.40 27.29-5.28L27.29-5.28L27.40-5.25L27.35-3.80L26.70-3.80L26.55-4.55Q25.69-4.55 25.10-3.77L25.10-3.77L25.10-0.80L26.10-0.55L26.10 0L23.25 0L23.25-0.55L24.10-0.80L24.10-4.50L23.25-4.70L23.25-5.25Z"/></svg>