<svg xmlns="http://www.w3.org/2000/svg" viewBox="0.05 -7.65 26.7 7.75"><path d="M0.15-0.60L1.04-0.80L1.89-6.20L1.08-6.40L1.17-6.95L3.02-7L4.06-7Q4.90-7 5.46-6.61Q6.01-6.22 6.01-5.46Q6.01-4.70 5.54-4.24Q5.07-3.77 4.45-3.63L4.45-3.63Q5.77-3.33 5.77-2.27Q5.77-1.20 5.01-0.60Q4.26 0 3.07 0L3.07 0L0.05 0L0.15-0.60ZM2.42-3.25L2.04-0.80L2.97-0.80Q3.79-0.80 4.25-1.20Q4.70-1.60 4.70-2.19Q4.70-2.77 4.33-3.01Q3.95-3.25 3.17-3.25L3.17-3.25L2.42-3.25ZM3.96-6.20L3.96-6.20L2.89-6.20L2.54-4L3.27-4Q3.81-4 4.34-4.27L4.34-4.27Q4.62-4.41 4.79-4.70Q4.95-4.98 4.95-5.37Q4.95-5.76 4.67-5.98Q4.40-6.20 3.96-6.20ZM8.88-0.10L7.04 0L7.76-4.50L6.91-4.70L7.01-5.25L8.84-5.30L8.12-0.80L8.97-0.65L8.88-0.10ZM9.14-7.08Q9.14-6.77 8.96-6.51Q8.77-6.25 8.48-6.25Q8.19-6.25 8.04-6.38Q7.89-6.52 7.89-6.83Q7.89-7.13 8.08-7.39Q8.26-7.65 8.55-7.65Q8.84-7.65 8.99-7.52Q9.14-7.38 9.14-7.08ZM12.55-0.85L12.69-0.90L12.85-0.36Q12.10 0.10 11.54 0.10L11.54 0.10Q10.53 0.10 10.53-1.09L10.53-1.09Q10.53-1.38 10.59-1.73L10.59-1.73L11.03-4.50L10.04-4.50L10.15-5.15L11.15-5.25L11.35-6.51L12.34-6.71L12.10-5.25L13.48-5.25L13.36-4.50L11.98-4.50L11.55-1.83Q11.49-1.44 11.49-1.19Q11.49-0.93 11.58-0.82Q11.67-0.70 11.83-0.70L11.83-0.70Q12.13-0.70 12.55-0.85L12.55-0.85ZM16.24-0.85L16.38-0.90L16.54-0.36Q15.79 0.10 15.23 0.10L15.23 0.10Q14.22 0.10 14.22-1.09L14.22-1.09Q14.22-1.38 14.28-1.73L14.28-1.73L14.72-4.50L13.73-4.50L13.84-5.15L14.84-5.25L15.04-6.51L16.03-6.71L15.79-5.25L17.17-5.25L17.05-4.50L15.67-4.50L15.24-1.83Q15.18-1.44 15.18-1.19Q15.18-0.93 15.27-0.82Q15.36-0.70 15.52-0.70L15.52-0.70Q15.82-0.70 16.24-0.85L16.24-0.85ZM21.81-4.10L21.81-4.10Q21.81-3.24 20.84-2.71Q19.86-2.17 18.30-2.17L18.30-2.17Q18.27-1.95 18.27-1.74L18.27-1.74Q18.27-0.70 19.37-0.70L19.37-0.70Q19.69-0.70 20.10-0.81Q20.51-0.92 20.76-1.04L20.76-1.04L21.01-1.15L21.31-0.64Q21.19-0.56 20.98-0.43Q20.77-0.31 20.18-0.10Q19.59 0.10 19.07 0.10L19.07 0.10Q18.25 0.10 17.76-0.38Q17.27-0.86 17.27-1.65L17.27-1.65Q17.27-3.23 18.11-4.32Q18.96-5.40 20.16-5.40L20.16-5.40Q20.92-5.40 21.36-5.04Q21.81-4.69 21.81-4.10ZM18.39-2.87L18.39-2.87Q19.46-2.87 20.16-3.19Q20.86-3.51 20.86-4L20.86-4Q20.86-4.65 20.11-4.65L20.11-4.65Q19.56-4.65 19.07-4.15Q18.58-3.65 18.39-2.87ZM26.75-5.30L26.75-5.30L26.45-3.80L25.80-3.80L25.80-4.50Q25.49-4.50 25.18-4.23Q24.88-3.96 24.67-3.58L24.67-3.58Q24.23-2.78 24.03-2.17L24.03-2.17L23.95-1.90L23.63 0L22.68 0L23.41-4.50L22.56-4.70L22.65-5.25L24.49-5.30L24.10-3.56Q24.42-4.32 24.89-4.80L24.89-4.80Q25.11-5.03 25.47-5.21Q25.84-5.40 26.25-5.40L26.25-5.40Q26.47-5.40 26.75-5.30Z"/></svg>