<svg xmlns="http://www.w3.org/2000/svg" viewBox="2.4480000000000004 47.943999999999996 568.2960000000002 67.464"><path d="M3 58L3 52L23 52Q39 52 39 64L39 64Q39 71 32 74L32 74Q36 75 39 78Q41 81 41 86L41 86Q41 93 36 96Q32 100 23 100L23 100L2 100L2 94L5 94Q7 94 7 92L7 92L7 58L3 58ZM23 78L16 78L16 93L22 93Q32 93 32 86L32 86Q32 82 29 80Q27 78 23 78L23 78ZM22 59L16 59L16 72L21 72Q25 72 28 70Q30 68 30 65Q30 61 28 60Q25 59 22 59L22 59ZM50 92L50 92L50 72Q50 71 50 70Q49 70 48 70L48 70L45 70L45 64L58 64L58 69Q59 66 62 65Q64 63 68 63Q71 63 75 64L75 64L75 75L68 76L68 72Q68 71 67 70L67 70Q66 70 65 70L65 70Q62 70 61 72Q59 74 59 77L59 77L59 94L65 94L65 100L46 100L46 95L48 94Q49 94 50 94Q50 93 50 92ZM97 63L97 63Q102 63 106 65Q109 68 109 73L109 73Q109 76 107 78Q106 81 104 82Q102 83 99 84L99 84Q94 86 88 86L88 86Q88 90 91 92Q93 94 97 94Q102 94 106 91L106 91L109 97Q107 98 104 100Q101 101 96 101L96 101Q87 101 83 96Q79 91 79 83Q79 74 84 68Q89 63 97 63ZM94 79Q96 79 99 77Q101 75 101 73L101 73Q101 69 97 69L97 69Q93 69 90 72Q88 75 88 80L88 80Q91 80 94 79ZM132 63L132 63Q137 63 140 65Q144 68 144 73L144 73Q144 76 142 78Q141 81 139 82Q137 83 134 84L134 84Q129 86 123 86L123 86Q123 90 125 92Q128 94 132 94Q137 94 141 91L141 91L144 97Q142 98 139 100Q136 101 131 101L131 101Q122 101 118 96Q114 91 114 83Q114 74 119 68Q123 63 132 63ZM129 79Q131 79 133 77Q136 75 136 73L136 73Q136 69 131 69L131 69Q127 69 125 72Q123 75 123 80L123 80Q126 80 129 79ZM178 94L178 94Q187 94 187 87L187 87Q187 83 183 81L183 81Q181 80 178 79Q174 79 172 78Q170 77 168 75L168 75Q164 72 164 65Q164 59 168 55Q173 51 180 51Q188 51 194 54L194 54L194 65L187 66L187 61Q187 60 186 60L186 60Q186 58 181 58Q177 58 175 60Q173 61 173 65L173 65Q173 67 175 69L175 69Q176 70 178 71Q180 71 183 72Q185 73 187 74Q189 75 192 76L192 76Q196 80 196 86Q196 93 191 97Q186 101 178 101Q170 101 164 98L164 98L164 87L171 86L171 90Q171 92 172 92Q172 93 173 93Q175 94 178 94ZM219 63L219 63Q224 63 227 65Q230 68 230 73L230 73Q230 76 229 78Q228 81 226 82Q224 83 221 84L221 84Q216 86 210 86L210 86Q210 90 212 92Q214 94 219 94Q223 94 228 91L228 91L231 97Q229 98 226 100Q222 101 218 101L218 101Q209 101 205 96Q201 91 201 83Q201 74 206 68Q210 63 219 63ZM215 79Q218 79 220 77Q223 75 223 73L223 73Q223 69 218 69L218 69Q214 69 212 72Q210 75 210 80L210 80Q213 80 215 79ZM240 92L240 92L240 72Q240 71 240 70Q239 70 238 70L238 70L235 70L235 64L247 64L247 69Q249 66 251 65Q254 63 258 63Q261 63 264 64L264 64L264 75L258 76L258 72Q258 71 257 70L257 70Q256 70 255 70L255 70Q252 70 250 72Q249 74 249 77L249 77L249 94L255 94L255 100L236 100L236 95L238 94Q239 94 239 94Q240 93 240 92ZM269 64L282 64L282 94L286 94L286 100L269 100L269 95L271 94Q273 94 273 92L273 92L273 72Q273 71 273 70Q272 70 271 70L271 70L269 70L269 64ZM273 58Q271 56 271 54Q271 51 273 50Q274 48 277 48Q279 48 281 50Q282 51 282 54Q282 56 281 58Q279 59 277 59Q274 59 273 58ZM295 92L295 92L295 70L288 70L288 64L295 64L295 61Q295 54 298 51L298 51Q301 48 307 48Q313 48 317 50L317 50L315 56Q312 54 309 54Q305 54 304 56Q303 57 303 60L303 60L303 64L314 64L314 70L303 70L303 94L309 94L309 100L290 100L290 95L293 94Q294 94 294 94Q295 93 295 92ZM336 92L336 92L336 72Q336 71 335 70Q335 70 334 70L334 70L331 70L331 64L343 64L343 69Q344 66 347 65Q350 63 353 63Q357 63 360 64L360 64L360 75L353 76L353 72Q353 71 353 70L353 70Q352 70 351 70L351 70Q348 70 346 72Q344 74 344 77L344 77L344 94L350 94L350 100L331 100L331 95L334 94Q335 94 335 94Q336 93 336 92ZM382 63L382 63Q388 63 391 65Q394 68 394 73L394 73Q394 76 393 78Q391 81 389 82Q387 83 385 84L385 84Q380 86 374 86L374 86Q374 90 376 92Q378 94 383 94Q387 94 392 91L392 91L394 97Q393 98 389 100Q386 101 382 101L382 101Q373 101 369 96Q365 91 365 83Q365 74 369 68Q374 63 382 63ZM379 79Q382 79 384 77Q386 75 386 73L386 73Q386 69 382 69L382 69Q378 69 376 72Q374 75 373 80L373 80Q377 80 379 79ZM431 100Q431 108 427 112Q423 115 414 115Q406 115 401 113L401 113L401 103L408 102L408 106Q408 108 410 109Q412 109 415 109L415 109Q419 109 421 106Q423 104 423 99L423 99L423 95Q420 99 413 99L413 99Q410 99 407 97Q404 96 402 93L402 93Q399 88 399 82L399 82Q399 72 404 68Q410 63 418 63L418 63Q425 63 431 65L431 65L431 92Q431 98 431 100L431 100ZM423 85L423 85L423 70Q421 69 417 69L417 69Q413 69 411 72Q408 75 408 81L408 81Q408 92 416 92L416 92Q419 92 421 90Q423 89 423 85ZM473 94L475 94L475 100L463 100L463 95Q460 101 452 101L452 101Q441 101 441 88L441 88L441 72Q441 70 439 70L439 70L437 70L437 64L449 64L449 87Q449 90 450 92Q451 94 455 94Q458 94 460 92Q462 90 462 87L462 87L462 72Q462 71 462 70Q461 70 460 70L460 70L458 70L458 64L471 64L471 92Q471 93 471 94Q472 94 473 94L473 94ZM480 49L492 49L492 94L497 94L497 100L479 100L479 95L482 94Q484 94 484 92L484 92L484 57Q484 55 482 55L482 55L480 55L480 49ZM533 65L533 65L533 92Q533 93 534 94Q534 94 535 94L535 94L537 94L537 100L526 100L526 96L526 96Q522 101 516 101L516 101Q509 101 505 96Q501 92 501 83L501 83Q501 74 506 68Q511 63 520 63L520 63Q527 63 533 65ZM525 89L525 89L525 70Q523 69 519 69L519 69Q515 69 512 73Q510 77 510 83L510 83Q510 95 518 95L518 95Q521 95 523 93Q525 91 525 89ZM546 92L546 92L546 72Q546 71 546 70Q545 70 544 70L544 70L541 70L541 64L554 64L554 69Q555 66 558 65Q560 63 564 63Q568 63 571 64L571 64L571 75L564 76L564 72Q564 71 563 70L563 70Q563 70 561 70L561 70Q559 70 557 72Q555 74 555 77L555 77L555 94L561 94L561 100L542 100L542 95L544 94Q545 94 546 94Q546 93 546 92Z"/></svg>