<svg xmlns="http://www.w3.org/2000/svg" viewBox="3.0240000000000005 45.99999999999999 499.60799999999995 55.008"><path d="M23 101Q17 101 12 98Q8 96 5 91Q3 86 3 79L3 79Q3 71 7 64Q11 57 18 53Q24 49 32 49L32 49Q36 49 39 49Q43 50 45 52L45 52L43 60Q36 57 31 57L31 57Q25 57 21 60Q17 63 15 68Q13 73 13 78L13 78Q13 92 25 92L25 92Q30 92 38 89L38 89L37 98Q34 99 30 100Q26 101 23 101L23 101ZM57 101Q51 101 48 97Q44 92 44 86L44 86Q44 80 46 75Q49 70 54 67Q58 63 64 63L64 63Q67 63 69 64Q71 65 73 67L73 67L74 64L81 64L77 89Q77 90 77 91L77 91Q77 93 78 93Q78 93 80 93L80 93L78 101Q75 101 73 100Q71 100 70 99Q69 98 68 97L68 97Q66 98 63 100Q61 101 57 101L57 101ZM60 93Q66 93 68 89Q70 84 70 79L70 79Q70 71 64 71L64 71Q61 71 58 73Q56 75 55 78Q53 81 53 85L53 85Q53 89 55 91Q57 93 60 93L60 93ZM105 101Q98 101 94 96L94 96L93 100L85 100L95 46L104 46L100 67Q102 65 104 64Q107 63 110 63L110 63Q116 63 119 68Q123 72 123 79L123 79Q123 84 120 89Q118 95 114 98Q110 101 105 101L105 101ZM103 93Q106 93 109 92Q111 90 112 87Q113 83 113 80L113 80Q113 76 112 73Q110 71 107 71L107 71Q104 71 101 73Q99 75 98 78Q97 81 97 85L97 85Q97 89 98 91Q100 93 103 93L103 93ZM133 59L134 50L143 50L142 59L133 59ZM126 100L132 64L141 64L134 100L126 100ZM143 100L149 64L157 64L158 66Q160 65 162 64Q164 63 167 63L167 63Q172 63 175 67Q177 70 177 76L177 76Q177 77 177 81Q176 85 174 100L174 100L165 100Q168 79 168 77L168 77Q168 74 167 72Q166 71 163 71L163 71Q161 71 160 72Q158 72 157 74L157 74L152 100L143 100ZM216 101Q210 101 206 96L206 96L205 100L197 100L207 46L216 46L212 67Q214 65 216 64Q219 63 221 63L221 63Q228 63 231 68Q235 72 235 79L235 79Q235 84 232 89Q230 95 226 98Q222 101 216 101L216 101ZM215 93Q218 93 220 92Q223 90 224 87Q225 83 225 80L225 80Q225 76 224 73Q222 71 219 71L219 71Q215 71 213 73Q211 75 210 78Q208 81 208 85L208 85Q208 89 210 91Q212 93 215 93L215 93ZM253 101Q248 101 245 99Q242 97 240 93Q238 90 238 85L238 85Q238 80 241 75Q244 70 248 66Q253 63 259 63L259 63Q264 63 267 65Q271 68 272 71Q274 75 274 79L274 79Q274 85 271 90Q269 95 264 98Q259 101 253 101L253 101ZM254 93Q257 93 260 92Q262 90 264 86Q265 83 265 80L265 80Q265 75 263 73Q261 71 258 71L258 71Q255 71 253 73Q250 75 249 78Q247 81 247 85L247 85Q247 89 249 91Q251 93 254 93L254 93ZM286 101Q282 101 280 99Q278 97 278 94L278 94Q278 92 279 87L279 87L286 46L295 46L288 87Q288 90 288 91L288 91Q288 93 288 93Q289 93 291 93L291 93L289 101L286 101ZM328 46L337 46L327 100L319 100L320 96Q315 101 309 101L309 101Q303 101 300 97Q296 93 296 86L296 86Q296 80 299 75Q301 70 305 67Q309 63 315 63L315 63Q321 63 324 68L324 68L328 46ZM312 93Q316 93 318 91Q320 89 321 86Q322 82 322 79L322 79Q322 71 316 71L316 71Q313 71 311 73Q308 75 307 78Q306 81 306 85L306 85Q306 89 307 91Q309 93 312 93L312 93ZM359 59L360 50L369 50L368 59L359 59ZM352 100L358 64L367 64L360 100L352 100ZM380 101Q376 101 374 99Q372 96 372 93L372 93Q372 92 376 71L376 71L371 71L373 64L377 64L379 56L388 55L386 64L394 64L392 71L385 71Q382 90 382 91L382 91Q382 93 383 93Q383 93 386 93L386 93L389 93L386 101L380 101ZM407 101Q401 101 398 97Q394 92 394 86L394 86Q394 80 397 75Q399 70 404 67Q408 63 414 63L414 63Q417 63 419 64Q421 65 423 67L423 67L424 64L431 64L427 89Q427 90 427 91L427 91Q427 93 428 93Q428 93 430 93L430 93L428 101Q425 101 423 100Q421 100 420 99Q419 98 418 97L418 97Q416 98 413 100Q411 101 407 101L407 101ZM410 93Q416 93 418 89Q420 84 420 79L420 79Q420 71 414 71L414 71Q411 71 408 73Q406 75 405 78Q403 81 403 85L403 85Q403 89 405 91Q407 93 410 93L410 93ZM444 101Q440 101 438 99Q436 97 436 94L436 94Q436 92 437 87L437 87L444 46L453 46L446 87Q446 90 446 91L446 91Q446 93 446 93Q447 93 449 93L449 93L447 101L444 101ZM461 59L463 50L472 50L470 59L461 59ZM454 100L460 64L469 64L463 100L454 100ZM487 101Q479 101 476 97Q472 92 472 86L472 86Q472 80 475 75Q477 70 482 67Q487 63 493 63L493 63Q499 63 503 66L503 66L501 74Q497 71 493 71L493 71Q490 71 487 73Q484 74 483 78Q482 81 482 85L482 85Q482 89 483 91Q485 93 489 93L489 93Q493 93 498 90L498 90L497 98Q493 101 487 101L487 101Z"/></svg>