<svg xmlns="http://www.w3.org/2000/svg" viewBox="0.35000000000000003 -7.5 23.82 7.64"><path d="M3.94 0.14Q2.88 0.14 2.06-0.31Q1.25-0.76 0.80-1.58Q0.35-2.41 0.35-3.50L0.35-3.50Q0.35-4.58 0.82-5.41Q1.28-6.23 2.10-6.69Q2.93-7.14 3.98-7.14L3.98-7.14Q4.99-7.14 5.79-6.73L5.79-6.73L5.65-5.51Q5.22-5.70 4.83-5.80Q4.43-5.91 3.97-5.91L3.97-5.91Q2.90-5.91 2.33-5.25Q1.75-4.59 1.75-3.50L1.75-3.50Q1.75-2.41 2.31-1.75Q2.88-1.09 3.94-1.09L3.94-1.09Q4.41-1.09 4.80-1.19Q5.20-1.29 5.65-1.49L5.65-1.49L5.79-0.27Q4.92 0.14 3.94 0.14L3.94 0.14ZM7.75 0.10Q7.13 0.10 6.71-0.30Q6.30-0.71 6.30-1.40L6.30-1.40Q6.30-2.05 6.77-2.44Q7.24-2.84 7.88-3.00Q8.52-3.17 9.11-3.19L9.11-3.19Q9.09-3.63 8.88-3.82Q8.68-4.01 8.21-4.01L8.21-4.01Q7.88-4.01 7.56-3.92Q7.25-3.83 6.84-3.63L6.84-3.63L6.73-4.64Q7.64-5.08 8.55-5.08L8.55-5.08Q9.43-5.08 9.89-4.60Q10.36-4.12 10.36-3.07L10.36-3.07L10.36-1.72Q10.36-1.34 10.39-1.18Q10.43-1.01 10.52-0.96Q10.60-0.92 10.80-0.92L10.80-0.92L10.96-0.92L10.85 0.10L10.40 0.10Q9.99 0.10 9.71-0.06Q9.43-0.21 9.28-0.48L9.28-0.48Q9.04-0.21 8.63-0.06Q8.21 0.10 7.75 0.10L7.75 0.10ZM8.27-0.85Q8.46-0.85 8.70-0.95Q8.94-1.04 9.12-1.21L9.12-1.21L9.12-2.35Q8.52-2.32 8.06-2.09Q7.60-1.86 7.60-1.45L7.60-1.45Q7.60-1.14 7.76-0.99Q7.92-0.85 8.27-0.85L8.27-0.85ZM14.25-5.08Q14.96-5.08 15.47-4.73Q15.98-4.38 16.24-3.79Q16.50-3.20 16.50-2.49L16.50-2.49Q16.50-1.78 16.24-1.19Q15.98-0.60 15.47-0.25Q14.96 0.10 14.25 0.10L14.25 0.10Q13.46 0.10 12.82-0.33L12.82-0.33L12.80 0L11.64 0L11.64-7.50L12.88-7.50L12.88-4.63Q13.49-5.08 14.25-5.08L14.25-5.08ZM14.07-0.92Q14.62-0.92 14.93-1.35Q15.23-1.78 15.23-2.49L15.23-2.49Q15.23-3.20 14.93-3.63Q14.62-4.06 14.07-4.06L14.07-4.06Q13.44-4.06 13.13-3.64Q12.82-3.22 12.82-2.49L12.82-2.49Q12.82-1.76 13.13-1.34Q13.44-0.92 14.07-0.92L14.07-0.92ZM17.36-5.76L17.36-7L18.60-7L18.60-5.76L17.36-5.76ZM17.36 0L17.36-5L18.60-5L18.60 0L17.36 0ZM22.28-5.08Q23.21-5.08 23.69-4.46Q24.17-3.84 24.17-2.79L24.17-2.79L24.17 0L22.93 0L22.93-2.69Q22.93-3.39 22.70-3.73Q22.46-4.06 21.94-4.06L21.94-4.06Q21.37-4.06 21-3.63L21-3.63L21 0L19.76 0L19.76-5L20.92-5L20.94-4.65Q21.57-5.08 22.28-5.08L22.28-5.08Z"/></svg>