<svg xmlns="http://www.w3.org/2000/svg" viewBox="3.0960000000000005 45.99999999999999 643.8960000000001 55.008"><path d="M23 101Q17 101 12 98Q8 96 5 91Q3 86 3 79L3 79Q3 71 7 64Q11 57 17 53Q24 49 32 49L32 49Q35 49 39 49Q42 50 45 52L45 52L42 60Q39 58 37 57Q34 57 31 57L31 57Q25 57 21 60Q17 63 15 68Q12 73 12 79L12 79Q12 85 15 89Q18 93 24 93L24 93Q29 93 37 90L37 90L36 98Q34 99 30 100Q26 101 23 101L23 101ZM56 101Q50 101 47 97Q43 93 43 86L43 86Q43 80 46 75Q48 70 53 67Q57 64 63 64L63 64Q69 64 71 67L71 67L73 64L80 64L76 89Q75 90 75 92L75 92Q75 93 76 94Q77 94 79 94L79 94L77 101Q73 101 72 100Q70 100 69 99Q68 98 67 96L67 96Q65 98 62 100Q60 101 56 101L56 101ZM59 94Q62 94 65 92Q67 90 68 86Q69 83 69 79L69 79Q69 75 68 73Q66 70 63 70L63 70Q60 70 57 72Q55 74 53 78Q52 81 52 85L52 85Q52 89 54 91Q56 94 59 94L59 94ZM102 101Q96 101 92 96L92 96L91 100L84 100L93 46L102 46L98 67Q100 66 102 65Q105 64 107 64L107 64Q113 64 117 68Q120 72 120 79L120 79Q120 85 118 90Q116 95 112 98Q108 101 102 101L102 101ZM101 94Q104 94 107 92Q109 90 110 87Q112 83 112 80L112 80Q112 75 110 73Q108 70 105 70L105 70Q102 70 99 72Q97 74 96 78Q94 81 94 85L94 85Q94 94 101 94L101 94ZM131 58L132 50L140 50L139 58L131 58ZM123 100L130 64L138 64L131 100L123 100ZM140 100L146 64L154 64L154 67Q156 65 158 64Q160 64 163 64L163 64Q169 64 171 67Q174 70 174 76L174 76Q174 77 173 81Q173 86 170 100L170 100L162 100Q164 88 165 83Q166 77 166 77L166 77Q166 73 164 72Q163 70 160 70L160 70Q156 70 153 74L153 74L148 100L140 100ZM204 101Q197 101 192 98L192 98L194 91Q200 94 204 94L204 94Q207 94 209 93Q210 92 210 90L210 90Q210 88 209 87Q207 86 205 85L205 85Q200 84 198 82Q196 80 196 76L196 76Q196 72 198 70Q199 67 203 65Q206 64 211 64L211 64Q217 64 221 66L221 66L219 73Q215 70 210 70L210 70Q207 70 206 71Q204 72 204 74L204 74Q204 75 205 76Q205 77 207 78Q208 78 211 79L211 79Q214 81 216 83Q218 85 218 89L218 89Q218 92 217 95Q215 97 212 99Q209 101 204 101L204 101ZM239 101Q232 101 228 96Q224 92 224 85L224 85Q224 80 226 75Q229 70 233 67Q238 64 244 64L244 64Q249 64 252 66Q255 69 255 74L255 74Q255 79 250 82Q246 85 238 85L238 85Q235 85 232 85L232 85Q232 90 235 92Q237 94 241 94L241 94Q246 94 252 91L252 91L251 98Q249 99 246 100Q243 101 239 101L239 101ZM237 80Q243 80 245 78Q248 77 248 74L248 74Q248 72 247 71Q245 70 243 70L243 70Q240 70 237 73Q234 76 233 80L233 80Q235 80 237 80L237 80ZM257 100L264 64L270 64L270 67Q272 66 275 65Q277 64 280 64L280 64Q283 64 285 65Q288 66 289 70L289 70Q291 67 294 65Q297 64 302 64L302 64Q307 64 310 67Q313 70 313 75L313 75Q313 76 312 80Q311 85 309 100L309 100L300 100Q303 87 303 82Q304 77 304 76L304 76Q304 73 303 72Q302 70 299 70L299 70Q295 70 293 73Q291 75 291 78L291 78L287 100L279 100Q281 88 282 83Q283 77 283 76L283 76Q283 70 277 70L277 70Q273 70 270 74L270 74L266 100L257 100ZM324 58L326 50L334 50L332 58L324 58ZM317 100L323 64L331 64L325 100L317 100ZM367 101Q361 101 357 96L357 96L356 100L349 100L358 46L367 46L363 67Q365 66 367 65Q370 64 372 64L372 64Q379 64 382 68Q385 72 385 79L385 79Q385 85 383 90Q381 95 377 98Q373 101 367 101L367 101ZM367 94Q370 94 372 92Q374 90 375 87Q377 83 377 80L377 80Q377 75 375 73Q373 70 370 70L370 70Q367 70 365 72Q362 74 361 78Q359 81 359 85L359 85Q359 94 367 94L367 94ZM404 101Q397 101 393 96Q389 92 389 85L389 85Q389 80 392 75Q394 70 399 67Q404 64 410 64L410 64Q417 64 420 68Q424 72 424 79L424 79Q424 85 421 90Q419 95 414 98Q409 101 404 101L404 101ZM405 94Q408 94 410 92Q413 90 414 87Q416 83 416 80L416 80Q416 75 414 73Q412 70 408 70L408 70Q405 70 403 72Q400 74 399 78Q398 81 398 85L398 85Q398 89 399 92Q401 94 405 94L405 94ZM436 101Q432 101 430 99Q428 97 428 94L428 94Q428 93 429 87L429 87L436 46L445 46L437 88Q437 91 437 92L437 92Q437 93 438 94Q438 94 440 94L440 94L438 101L436 101ZM477 46L485 46L476 100L468 100L469 96Q464 101 458 101L458 101Q452 101 449 97Q446 92 446 86L446 86Q446 80 448 75Q450 70 455 67Q459 64 464 64L464 64Q470 64 473 68L473 68L477 46ZM461 94Q464 94 467 92Q469 90 470 86Q472 83 472 79L472 79Q472 75 470 73Q468 70 465 70L465 70Q462 70 459 72Q457 74 456 78Q454 81 454 85L454 85Q454 89 456 92Q458 94 461 94L461 94ZM507 58L509 50L517 50L515 58L507 58ZM500 100L506 64L514 64L508 100L500 100ZM527 101Q524 101 522 99Q520 97 520 93L520 93Q520 92 524 71L524 71L519 71L521 64L525 64L526 56L535 55L533 64L541 64L539 71L532 71Q530 82 529 86Q528 91 528 92L528 92Q528 93 529 94Q530 94 533 94L533 94L535 94L533 101L527 101ZM554 101Q548 101 544 97Q541 93 541 86L541 86Q541 80 543 75Q546 70 550 67Q555 64 561 64L561 64Q566 64 569 67L569 67L570 64L577 64L573 89Q573 90 573 92L573 92Q573 93 574 94Q574 94 576 94L576 94L574 101Q571 101 569 100Q567 100 566 99Q565 98 565 96L565 96Q562 98 560 100Q557 101 554 101L554 101ZM557 94Q560 94 562 92Q565 90 566 86Q567 83 567 79L567 79Q567 75 565 73Q563 70 560 70L560 70Q557 70 555 72Q552 74 551 78Q550 81 550 85L550 85Q550 89 551 91Q553 94 557 94L557 94ZM589 101Q586 101 584 99Q582 97 582 94L582 94Q582 93 583 87L583 87L590 46L599 46L591 88Q591 91 591 92L591 92Q591 93 592 94Q592 94 594 94L594 94L592 101L589 101ZM607 58L608 50L617 50L615 58L607 58ZM599 100L606 64L614 64L608 100L599 100ZM631 101Q624 101 621 97Q617 92 617 86L617 86Q617 80 620 75Q622 70 627 67Q631 64 638 64L638 64Q643 64 647 66L647 66L645 73Q641 70 638 70L638 70Q634 70 631 72Q628 74 627 78Q626 81 626 85L626 85Q626 89 628 91Q629 94 634 94L634 94Q638 94 642 91L642 91L641 98Q637 101 631 101L631 101Z"/></svg>