<svg xmlns="http://www.w3.org/2000/svg" viewBox="3.3120000000000003 45.99999999999999 319.3200000000001 55.008"><path d="M21.96 101.01Q16.27 101.01 12.06 98.45Q7.85 95.90 5.58 91.07Q3.31 86.25 3.31 79.55L3.31 79.55Q3.31 70.84 7.09 63.75Q10.87 56.66 17.24 52.62Q23.62 48.59 31.03 48.59L31.03 48.59Q34.42 48.59 37.73 49.42Q41.04 50.25 43.27 51.54L43.27 51.54L41.40 57.88L39.89 57.23Q37.08 56.01 34.92 55.40Q32.76 54.78 30.10 54.78L30.10 54.78Q24.34 54.78 19.94 58.20Q15.55 61.62 13.21 67.24Q10.87 72.86 10.87 79.19L10.87 79.19Q10.87 86.32 14.00 90.57Q17.14 94.82 23.26 94.82L23.26 94.82Q25.78 94.82 28.26 94.17Q30.74 93.52 33.91 92.30L33.91 92.30L35.42 91.79L34.99 98.13Q32.26 99.42 28.73 100.22Q25.20 101.01 21.96 101.01L21.96 101.01ZM53.93 100.72Q48.60 100.72 45.40 96.87Q42.19 93.02 42.19 86.61L42.19 86.61Q42.19 80.92 44.60 75.70Q47.02 70.48 51.30 67.24Q55.58 64.00 60.77 64.00L60.77 64.00Q66.67 64.00 68.98 68.46L68.98 68.46L70.34 64.72L76.10 64.72L71.86 89.70Q71.57 91.22 71.57 92.51L71.57 92.51Q71.57 94.24 72.32 94.89Q73.08 95.54 74.95 95.54L74.95 95.54L73.15 100.72Q70.63 100.72 69.12 100.43Q67.61 100.14 66.53 99.03Q65.45 97.91 64.94 95.54L64.94 95.54Q60.55 100.72 53.93 100.72L53.93 100.72ZM56.09 94.96Q58.90 94.96 61.52 93.20Q64.15 91.43 65.77 88.05Q67.39 84.66 67.39 80.06L67.39 80.06Q67.39 74.87 65.38 72.32Q63.36 69.76 60.05 69.76L60.05 69.76Q56.95 69.76 54.43 71.88Q51.91 74.01 50.44 77.57Q48.96 81.14 48.96 85.24L48.96 85.24Q48.96 89.56 50.72 92.26Q52.49 94.96 56.09 94.96L56.09 94.96ZM97.27 100.72Q90.50 100.72 87.48 95.54L87.48 95.54L86.18 100L80.28 100L89.78 46.00L96.34 46.00L92.38 68.54Q96.26 64.00 102.24 64.00L102.24 64.00Q108 64.00 111.13 68.25Q114.26 72.50 114.26 78.83L114.26 78.83Q114.26 85.60 111.92 90.57Q109.58 95.54 105.70 98.13Q101.81 100.72 97.27 100.72L97.27 100.72ZM96.91 94.96Q99.94 94.96 102.35 92.94Q104.76 90.93 106.13 87.36Q107.50 83.80 107.50 79.48L107.50 79.48Q107.50 75.09 105.70 72.42Q103.90 69.76 100.44 69.76L100.44 69.76Q97.56 69.76 94.97 71.67Q92.38 73.58 90.79 77.14Q89.21 80.70 89.21 85.31L89.21 85.31Q89.21 90.28 91.30 92.62Q93.38 94.96 96.91 94.96L96.91 94.96ZM125.35 56.80L126.58 49.60L133.13 49.60L131.90 56.80L125.35 56.80ZM117.72 100L123.91 64.72L130.46 64.72L124.27 100L117.72 100ZM133.13 100L139.32 64.72L144.86 64.72L144.65 68.46Q147.31 65.94 149.80 64.97Q152.28 64.00 155.16 64.00L155.16 64.00Q160.63 64.00 163.15 66.88Q165.67 69.76 165.67 75.30L165.67 75.30Q165.67 76.74 164.99 81.06Q164.30 85.38 161.71 100L161.71 100L155.16 100Q157.75 85.38 158.40 81.32Q159.05 77.25 159.05 76.17L159.05 76.17Q159.05 72.86 157.57 71.31Q156.10 69.76 153.00 69.76L153.00 69.76Q150.26 69.76 148.00 70.91Q145.73 72.06 144.22 74.37L144.22 74.37L139.68 100L133.13 100ZM192.46 56.80L193.68 49.60L200.23 49.60L199.01 56.80L192.46 56.80ZM184.82 100L191.02 64.72L197.57 64.72L191.38 100L184.82 100ZM210.17 100.72Q206.50 100.72 204.80 98.88Q203.11 97.05 203.11 94.17L203.11 94.17Q203.11 92.94 207.22 69.76L207.22 69.76L202.03 69.76L203.47 64.72L208.08 64.72L209.66 56.01L216.29 55.36L214.63 64.72L222.62 64.72L221.69 69.76L213.70 69.76Q211.54 81.86 210.71 86.90Q209.88 91.94 209.88 92.73L209.88 92.73Q209.88 94.60 210.92 95.07Q211.97 95.54 215.28 95.54L215.28 95.54L217.01 95.54L215.57 100.72L210.17 100.72ZM234.58 100.72Q229.25 100.72 226.04 96.87Q222.84 93.02 222.84 86.61L222.84 86.61Q222.84 80.92 225.25 75.70Q227.66 70.48 231.95 67.24Q236.23 64.00 241.42 64.00L241.42 64.00Q247.32 64.00 249.62 68.46L249.62 68.46L250.99 64.72L256.75 64.72L252.50 89.70Q252.22 91.22 252.22 92.51L252.22 92.51Q252.22 94.24 252.97 94.89Q253.73 95.54 255.60 95.54L255.60 95.54L253.80 100.72Q251.28 100.72 249.77 100.43Q248.26 100.14 247.18 99.03Q246.10 97.91 245.59 95.54L245.59 95.54Q241.20 100.72 234.58 100.72L234.58 100.72ZM236.74 94.96Q239.54 94.96 242.17 93.20Q244.80 91.43 246.42 88.05Q248.04 84.66 248.04 80.06L248.04 80.06Q248.04 74.87 246.02 72.32Q244.01 69.76 240.70 69.76L240.70 69.76Q237.60 69.76 235.08 71.88Q232.56 74.01 231.08 77.57Q229.61 81.14 229.61 85.24L229.61 85.24Q229.61 89.56 231.37 92.26Q233.14 94.96 236.74 94.96L236.74 94.96ZM268.56 100.72Q264.96 100.72 263.30 99.03Q261.65 97.34 261.65 94.53L261.65 94.53Q261.65 93.66 262.37 89.20L262.37 89.20L269.93 46.00L276.48 46.00L268.85 89.85Q268.49 92.08 268.49 92.66L268.49 92.66Q268.49 94.38 269.35 94.96Q270.22 95.54 272.52 95.54L272.52 95.54L270.79 100.72L268.56 100.72ZM285.12 56.80L286.34 49.60L292.90 49.60L291.67 56.80L285.12 56.80ZM277.49 100L283.68 64.72L290.23 64.72L284.04 100L277.49 100ZM307.30 100.72Q300.38 100.72 297.11 96.58Q293.83 92.44 293.83 85.67L293.83 85.67Q293.83 79.91 296.14 74.94Q298.44 69.98 302.94 66.99Q307.44 64.00 313.70 64.00L313.70 64.00Q316.37 64.00 318.78 64.54Q321.19 65.08 322.63 66.09L322.63 66.09L320.76 71.92Q317.38 69.76 313.70 69.76L313.70 69.76Q307.37 69.76 303.95 73.97Q300.53 78.18 300.53 84.74L300.53 84.74Q300.53 89.70 302.72 92.37Q304.92 95.03 309.38 95.03L309.38 95.03Q313.06 95.03 317.16 92.87L317.16 92.87L316.94 98.42Q312.62 100.72 307.30 100.72L307.30 100.72Z"/></svg>