<svg xmlns="http://www.w3.org/2000/svg" viewBox="2.5200000000000005 45.99999999999999 329.256 55.008"><path d="M28.37 101.01Q20.74 101.01 14.87 97.77Q9.00 94.53 5.76 88.59Q2.52 82.65 2.52 74.80L2.52 74.80Q2.52 67.02 5.87 61.08Q9.22 55.14 15.16 51.87Q21.10 48.59 28.66 48.59L28.66 48.59Q35.93 48.59 41.69 51.54L41.69 51.54L40.68 60.33Q37.58 58.96 34.74 58.20Q31.90 57.45 28.58 57.45L28.58 57.45Q20.88 57.45 16.74 62.20Q12.60 66.95 12.60 74.80L12.60 74.80Q12.60 82.65 16.67 87.40Q20.74 92.15 28.37 92.15L28.37 92.15Q31.75 92.15 34.60 91.43Q37.44 90.71 40.68 89.27L40.68 89.27L41.69 98.06Q35.42 101.01 28.37 101.01L28.37 101.01ZM55.80 100.72Q51.34 100.72 48.35 97.80Q45.36 94.89 45.36 89.92L45.36 89.92Q45.36 85.24 48.74 82.40Q52.13 79.55 56.74 78.36Q61.34 77.18 65.59 77.03L65.59 77.03Q65.45 73.86 63.97 72.50Q62.50 71.13 59.11 71.13L59.11 71.13Q56.74 71.13 54.47 71.78Q52.20 72.42 49.25 73.86L49.25 73.86L48.46 66.59Q55.01 63.42 61.56 63.42L61.56 63.42Q67.90 63.42 71.24 66.88Q74.59 70.34 74.59 77.90L74.59 77.90L74.59 87.62Q74.59 90.35 74.84 91.54Q75.10 92.73 75.71 93.05Q76.32 93.38 77.76 93.38L77.76 93.38L78.91 93.38L78.12 100.72L74.88 100.72Q71.93 100.72 69.91 99.60Q67.90 98.49 66.82 96.54L66.82 96.54Q65.09 98.49 62.10 99.60Q59.11 100.72 55.80 100.72L55.80 100.72ZM59.54 93.88Q60.91 93.88 62.64 93.20Q64.37 92.51 65.66 91.29L65.66 91.29L65.66 83.08Q61.34 83.30 58.03 84.95Q54.72 86.61 54.72 89.56L54.72 89.56Q54.72 91.79 55.87 92.84Q57.02 93.88 59.54 93.88L59.54 93.88ZM102.60 63.42Q107.71 63.42 111.38 65.94Q115.06 68.46 116.93 72.71Q118.80 76.96 118.80 82.07L118.80 82.07Q118.80 87.18 116.93 91.43Q115.06 95.68 111.38 98.20Q107.71 100.72 102.60 100.72L102.60 100.72Q96.91 100.72 92.30 97.62L92.30 97.62L92.16 100L83.81 100L83.81 46.00L92.74 46.00L92.74 66.66Q97.13 63.42 102.60 63.42L102.60 63.42ZM101.30 93.38Q105.26 93.38 107.46 90.28Q109.66 87.18 109.66 82.07L109.66 82.07Q109.66 76.96 107.46 73.86Q105.26 70.77 101.30 70.77L101.30 70.77Q96.77 70.77 94.54 73.79Q92.30 76.82 92.30 82.07L92.30 82.07Q92.30 87.33 94.54 90.35Q96.77 93.38 101.30 93.38L101.30 93.38ZM124.99 58.53L124.99 49.60L133.92 49.60L133.92 58.53L124.99 58.53ZM124.99 100L124.99 64.00L133.92 64.00L133.92 100L124.99 100ZM160.42 63.42Q167.11 63.42 170.57 67.89Q174.02 72.35 174.02 79.91L174.02 79.91L174.02 100L165.10 100L165.10 80.63Q165.10 75.59 163.40 73.18Q161.71 70.77 157.97 70.77L157.97 70.77Q153.86 70.77 151.20 73.86L151.20 73.86L151.20 100L142.27 100L142.27 64.00L150.62 64.00L150.77 66.52Q155.30 63.42 160.42 63.42L160.42 63.42ZM216.94 63.42Q222.05 63.42 225.72 65.94Q229.39 68.46 231.26 72.71Q233.14 76.96 233.14 82.07L233.14 82.07Q233.14 87.18 231.26 91.43Q229.39 95.68 225.72 98.20Q222.05 100.72 216.94 100.72L216.94 100.72Q211.25 100.72 206.64 97.62L206.64 97.62L206.50 100L198.14 100L198.14 46.00L207.07 46.00L207.07 66.66Q211.46 63.42 216.94 63.42L216.94 63.42ZM215.64 93.38Q219.60 93.38 221.80 90.28Q223.99 87.18 223.99 82.07L223.99 82.07Q223.99 76.96 221.80 73.86Q219.60 70.77 215.64 70.77L215.64 70.77Q211.10 70.77 208.87 73.79Q206.64 76.82 206.64 82.07L206.64 82.07Q206.64 87.33 208.87 90.35Q211.10 93.38 215.64 93.38L215.64 93.38ZM255.67 100.72Q249.98 100.72 245.81 98.20Q241.63 95.68 239.40 91.43Q237.17 87.18 237.17 82.07L237.17 82.07Q237.17 76.96 239.40 72.64Q241.63 68.32 245.81 65.80Q249.98 63.28 255.67 63.28L255.67 63.28Q261.36 63.28 265.54 65.80Q269.71 68.32 271.94 72.64Q274.18 76.96 274.18 82.07L274.18 82.07Q274.18 87.18 271.94 91.43Q269.71 95.68 265.54 98.20Q261.36 100.72 255.67 100.72L255.67 100.72ZM255.67 93.38Q260.06 93.38 262.55 90.28Q265.03 87.18 265.03 82.07L265.03 82.07Q265.03 76.89 262.55 73.76Q260.06 70.62 255.67 70.62L255.67 70.62Q251.28 70.62 248.80 73.76Q246.31 76.89 246.31 82.07L246.31 82.07Q246.31 87.18 248.80 90.28Q251.28 93.38 255.67 93.38L255.67 93.38ZM289.58 100.72Q284.98 100.72 282.67 98.09Q280.37 95.46 280.37 91.29L280.37 91.29L280.37 46.00L289.30 46.00L289.30 87.62Q289.30 90.50 289.62 91.68Q289.94 92.87 290.77 93.12Q291.60 93.38 293.62 93.38L293.62 93.38L292.82 100.72L289.58 100.72ZM322.85 46.00L331.78 46.00L331.78 100L323.35 100L323.21 97.70Q321.12 99.21 318.85 99.96Q316.58 100.72 313.49 100.72L313.49 100.72Q308.23 100.72 304.45 98.20Q300.67 95.68 298.73 91.43Q296.78 87.18 296.78 82.07L296.78 82.07Q296.78 76.96 298.73 72.71Q300.67 68.46 304.45 65.94Q308.23 63.42 313.49 63.42L313.49 63.42Q318.74 63.42 322.85 66.30L322.85 66.30L322.85 46.00ZM314.78 93.38Q319.03 93.38 321.16 90.35Q323.28 87.33 323.28 82.07L323.28 82.07Q323.28 76.82 321.16 73.79Q319.03 70.77 314.78 70.77L314.78 70.77Q310.61 70.77 308.27 73.86Q305.93 76.96 305.93 82.07L305.93 82.07Q305.93 87.18 308.27 90.28Q310.61 93.38 314.78 93.38L314.78 93.38Z"/></svg>