<svg xmlns="http://www.w3.org/2000/svg" viewBox="0.36 -7.5 23.62 7.64"><path d="M3.93 0.14Q2.89 0.14 2.08-0.31Q1.27-0.76 0.82-1.58Q0.36-2.41 0.36-3.50L0.36-3.50Q0.36-4.59 0.83-5.42Q1.29-6.24 2.11-6.69Q2.93-7.14 3.97-7.14L3.97-7.14Q4.49-7.14 4.96-7.03Q5.43-6.92 5.80-6.73L5.80-6.73L5.68-5.63Q4.81-6.04 3.96-6.04L3.96-6.04Q3.22-6.04 2.69-5.71Q2.17-5.39 1.90-4.82Q1.63-4.24 1.63-3.50L1.63-3.50Q1.63-2.76 1.90-2.19Q2.16-1.61 2.68-1.28Q3.20-0.96 3.94-0.96L3.94-0.96Q4.41-0.96 4.83-1.06Q5.24-1.16 5.68-1.36L5.68-1.36L5.80-0.27Q4.96 0.14 3.93 0.14L3.93 0.14ZM7.81 0.10Q7.17 0.10 6.75-0.30Q6.34-0.71 6.34-1.37L6.34-1.37Q6.34-2.02 6.80-2.41Q7.26-2.80 7.91-2.96Q8.55-3.13 9.19-3.15L9.19-3.15Q9.18-3.67 8.96-3.88Q8.74-4.08 8.23-4.08L8.23-4.08Q7.91-4.08 7.60-3.98Q7.28-3.89 6.89-3.68L6.89-3.68L6.77-4.59Q7.61-5.05 8.54-5.05L8.54-5.05Q9.44-5.05 9.88-4.55Q10.32-4.06 10.32-2.92L10.32-2.92L10.32-1.69Q10.32-1.30 10.36-1.13Q10.39-0.95 10.48-0.88Q10.58-0.81 10.80-0.81L10.80-0.81L10.94-0.81L10.81 0.10L10.50 0.10Q10.02 0.10 9.76-0.06Q9.49-0.22 9.33-0.53L9.33-0.53Q9.07-0.24 8.67-0.07Q8.27 0.10 7.81 0.10L7.81 0.10ZM8.21-0.77Q8.46-0.77 8.73-0.90Q9.01-1.02 9.20-1.24L9.20-1.24L9.20-2.39Q8.43-2.36 7.96-2.12Q7.50-1.88 7.50-1.42L7.50-1.42Q7.50-0.77 8.21-0.77L8.21-0.77ZM14.15-5.05Q14.85-5.05 15.36-4.70Q15.86-4.35 16.13-3.77Q16.39-3.18 16.39-2.48L16.39-2.48Q16.39-1.77 16.12-1.18Q15.84-0.59 15.34-0.24Q14.83 0.10 14.15 0.10L14.15 0.10Q13.27 0.10 12.69-0.42L12.69-0.42L12.64 0L11.61 0L11.61-7.50L12.73-7.50L12.73-4.53Q13.35-5.05 14.15-5.05L14.15-5.05ZM14.00-0.84Q14.57-0.84 14.91-1.29Q15.24-1.75 15.24-2.48L15.24-2.48Q15.24-3.21 14.91-3.66Q14.57-4.11 14.00-4.11L14.00-4.11Q13.37-4.11 13.02-3.68Q12.67-3.25 12.67-2.48L12.67-2.48Q12.67-1.70 13.02-1.27Q13.37-0.84 14.00-0.84L14.00-0.84ZM17.27-5.85L17.27-7L18.39-7L18.39-5.85L17.27-5.85ZM17.27 0L17.27-4.96L18.39-4.96L18.39 0L17.27 0ZM22.05-5.05Q23.02-5.05 23.50-4.44Q23.98-3.83 23.98-2.76L23.98-2.76L23.98 0L22.87 0L22.87-2.69Q22.87-3.43 22.62-3.77Q22.36-4.11 21.77-4.11L21.77-4.11Q21.07-4.11 20.69-3.62L20.69-3.62L20.69 0L19.57 0L19.57-4.96L20.56-4.96L20.60-4.55Q21.24-5.05 22.05-5.05L22.05-5.05Z"/></svg>