<svg xmlns="http://www.w3.org/2000/svg" viewBox="0.37 -7.5 23.509999999999994 7.64"><path d="M3.93 0.14Q2.90 0.14 2.09-0.31Q1.28-0.76 0.83-1.58Q0.37-2.41 0.37-3.50L0.37-3.50Q0.37-4.59 0.83-5.42Q1.30-6.24 2.12-6.69Q2.93-7.14 3.97-7.14L3.97-7.14Q4.49-7.14 4.96-7.03Q5.44-6.92 5.81-6.73L5.81-6.73L5.70-5.71Q4.79-6.12 3.96-6.12L3.96-6.12Q3.19-6.12 2.66-5.78Q2.12-5.44 1.84-4.85Q1.57-4.26 1.57-3.50L1.57-3.50Q1.57-2.74 1.84-2.15Q2.11-1.56 2.64-1.22Q3.17-0.88 3.93-0.88L3.93-0.88Q4.42-0.88 4.84-0.98Q5.26-1.09 5.70-1.29L5.70-1.29L5.81-0.26Q4.92 0.14 3.93 0.14L3.93 0.14ZM7.84 0.10Q7.19 0.10 6.78-0.30Q6.36-0.70 6.36-1.35L6.36-1.35Q6.36-2 6.81-2.39Q7.27-2.78 7.92-2.94Q8.57-3.11 9.24-3.12L9.24-3.12Q9.23-3.69 9.00-3.91Q8.76-4.12 8.24-4.12L8.24-4.12Q7.92-4.12 7.61-4.03Q7.29-3.93 6.91-3.70L6.91-3.70L6.79-4.55Q7.16-4.78 7.61-4.91Q8.05-5.03 8.52-5.03L8.52-5.03Q9.44-5.03 9.86-4.53Q10.28-4.03 10.28-2.83L10.28-2.83L10.28-1.68Q10.28-1.29 10.32-1.10Q10.35-0.91 10.46-0.83Q10.56-0.75 10.79-0.75L10.79-0.75L10.91-0.75L10.79 0.10L10.56 0.10Q10.04 0.10 9.78-0.06Q9.51-0.22 9.35-0.56L9.35-0.56Q9.08-0.25 8.69-0.07Q8.30 0.10 7.84 0.10L7.84 0.10ZM8.16-0.72Q8.45-0.72 8.75-0.86Q9.04-1 9.24-1.25L9.24-1.25L9.24-2.41Q7.44-2.35 7.44-1.40L7.44-1.40Q7.44-0.72 8.16-0.72L8.16-0.72ZM14.10-5.03Q14.78-5.03 15.29-4.68Q15.79-4.33 16.05-3.75Q16.32-3.16 16.32-2.47L16.32-2.47Q16.32-1.76 16.04-1.18Q15.76-0.59 15.25-0.24Q14.75 0.10 14.10 0.10L14.10 0.10Q13.65 0.10 13.27-0.05Q12.89-0.20 12.61-0.48L12.61-0.48L12.55 0L11.60 0L11.60-7.50L12.64-7.50L12.64-4.46Q12.92-4.73 13.29-4.88Q13.67-5.03 14.10-5.03L14.10-5.03ZM13.96-0.79Q14.55-0.79 14.90-1.27Q15.26-1.74 15.26-2.47L15.26-2.47Q15.26-3.21 14.91-3.68Q14.56-4.14 13.96-4.14L13.96-4.14Q13.34-4.14 12.96-3.70Q12.59-3.26 12.59-2.47L12.59-2.47Q12.59-1.66 12.96-1.23Q13.33-0.79 13.96-0.79L13.96-0.79ZM17.23-5.90L17.23-7L18.27-7L18.27-5.90L17.23-5.90ZM17.23 0L17.23-4.94L18.27-4.94L18.27 0L17.23 0ZM21.93-5.03Q22.92-5.03 23.40-4.42Q23.88-3.82 23.88-2.74L23.88-2.74L23.88 0L22.84 0L22.84-2.70Q22.84-3.45 22.57-3.79Q22.30-4.14 21.68-4.14L21.68-4.14Q21.30-4.14 21.00-4Q20.70-3.86 20.51-3.59L20.51-3.59L20.51 0L19.47 0L19.47-4.94L20.36-4.94L20.42-4.49Q21.09-5.03 21.93-5.03L21.93-5.03Z"/></svg>