<svg xmlns="http://www.w3.org/2000/svg" viewBox="2.8080000000000003 45.99999999999999 394.20000000000005 72"><path d="M28 101Q21 101 15 98Q9 95 6 89Q3 83 3 75L3 75Q3 67 6 61Q9 55 15 52Q21 49 29 49L29 49Q32 49 36 49Q39 50 42 52L42 52L41 58Q35 55 28 55L28 55Q23 55 19 57Q14 60 12 65Q10 69 10 75L10 75Q10 80 12 85Q14 90 19 92Q23 95 28 95L28 95Q35 95 41 92L41 92L42 98Q36 101 28 101L28 101ZM57 101Q52 101 49 98Q46 95 46 90L46 90Q46 84 52 81Q59 78 67 78L67 78Q67 73 65 71Q64 70 59 70L59 70Q57 70 55 70Q53 71 50 73L50 73L49 68Q51 66 55 65Q58 64 61 64L61 64Q66 64 68 66Q71 67 72 71Q74 75 74 81L74 81L74 88Q74 91 74 92Q74 94 75 95Q76 96 78 96L78 96L78 96L77 101L77 101Q74 101 72 100Q70 100 69 98Q69 97 68 96L68 96Q63 101 57 101L57 101ZM58 96Q61 96 63 94Q66 93 67 91L67 91L67 82Q59 83 56 84Q53 86 53 90L53 90Q53 93 54 94Q56 96 58 96L58 96ZM101 64Q105 64 109 67Q113 69 115 73Q117 77 117 82L117 82Q117 87 114 92Q112 96 109 98Q105 101 101 101L101 101Q97 101 94 99Q91 98 90 96L90 96L89 100L83 100L83 46L90 46L90 69Q92 67 95 65Q97 64 101 64L101 64ZM100 95Q104 95 107 91Q110 88 110 82L110 82Q110 77 107 73Q104 70 100 70L100 70Q95 70 92 73Q89 76 89 82L89 82Q89 89 92 92Q95 95 100 95L100 95ZM123 57L123 50L130 50L130 57L123 57ZM123 100L123 65L130 65L130 100L123 100ZM156 64Q170 64 170 81L170 81L170 100L164 100L164 81Q164 75 162 72Q160 70 155 70L155 70Q151 70 149 71Q146 72 145 74L145 74L145 100L139 100L139 65L144 65L144 68Q147 66 150 65Q153 64 156 64L156 64ZM195 100L195 65L200 65L201 71Q204 67 206 66Q209 64 212 64L212 64Q212 64 213 64L213 64L213 71Q212 71 210 71L210 71Q208 71 205 72Q203 74 202 75L202 75L202 100L195 100ZM234 101Q228 101 223 98Q219 96 217 92Q215 87 215 82L215 82Q215 77 217 73Q219 69 223 66Q227 64 232 64L232 64Q239 64 243 68Q247 72 247 79L247 79Q247 81 247 82L247 82L221 82Q222 89 225 92Q229 95 235 95L235 95Q240 95 245 93L245 93L246 98Q239 101 234 101L234 101ZM222 78L240 78Q240 74 238 72Q236 70 232 70L232 70Q228 70 225 72Q223 74 222 78L222 78ZM268 118Q260 118 256 115Q251 113 251 107L251 107Q251 102 257 99L257 99Q254 97 254 95L254 95Q254 91 258 90L258 90Q255 88 253 85Q252 82 252 78L252 78Q252 74 254 71Q255 68 259 66Q262 64 266 64L266 64Q271 64 275 67L275 67Q279 65 284 65L284 65L284 65L284 69L282 69Q281 69 280 69Q279 69 278 69L278 69Q279 71 280 73Q281 75 281 78L281 78Q281 82 279 85Q277 88 274 90Q271 92 266 92L266 92Q264 92 262 91L262 91Q260 92 260 93L260 93Q260 95 264 95L264 95L273 97Q279 98 282 100Q285 103 285 107L285 107Q285 112 281 115Q276 118 268 118L268 118ZM266 87Q270 87 273 84Q275 82 275 78L275 78Q275 74 273 72Q270 69 266 69L266 69Q262 69 260 72Q258 74 258 78L258 78Q258 82 260 84Q262 87 266 87L266 87ZM268 112Q273 112 276 111Q279 110 279 107L279 107Q279 105 277 104Q276 103 272 102L272 102L262 101Q260 102 259 103Q257 105 257 106L257 106Q257 109 260 111Q263 112 268 112L268 112ZM312 65L318 65L318 100L313 100L312 96Q310 98 308 100Q306 101 302 101L302 101Q296 101 293 97Q289 93 289 85L289 85L289 65L296 65L296 83Q296 89 298 92Q300 95 304 95L304 95Q306 95 309 94Q311 93 312 91L312 91L312 65ZM336 101Q332 101 329 98Q327 96 327 92L327 92L327 46L334 46L334 88Q334 92 334 93Q334 95 336 95Q337 96 339 96L339 96L338 101L336 101ZM352 101Q348 101 345 98Q342 95 342 90L342 90Q342 84 348 81Q354 78 363 78L363 78Q363 73 361 71Q359 70 355 70L355 70Q353 70 350 70Q348 71 346 73L346 73L345 68Q347 66 350 65Q353 64 357 64L357 64Q361 64 364 66Q367 67 368 71Q369 75 369 81L369 81L369 88Q369 91 369 92Q370 94 371 95Q371 96 373 96L373 96L374 96L373 101L372 101Q369 101 368 100Q366 100 365 98Q364 97 363 96L363 96Q359 101 352 101L352 101ZM354 96Q356 96 359 94Q361 93 363 91L363 91L363 82Q355 83 352 84Q348 86 348 90L348 90Q348 93 350 94Q351 96 354 96L354 96ZM379 100L379 65L384 65L385 71Q388 67 390 66Q393 64 395 64L395 64Q396 64 397 64L397 64L396 71Q395 71 394 71L394 71Q392 71 389 72Q387 74 386 75L386 75L386 100L379 100Z"/></svg>