<svg xmlns="http://www.w3.org/2000/svg" viewBox="2.8080000000000003 49.672 346.46400000000006 51.336"><path d="M22.25 100.94Q14.40 100.94 10.19 98.27Q5.98 95.61 4.39 90.32Q2.81 85.02 2.81 76.17L2.81 76.17Q2.81 65.80 4.64 60.33Q6.48 54.86 10.37 52.77Q14.26 50.68 21.17 50.68L21.17 50.68Q28.22 50.68 36.58 52.84L36.58 52.84L36.22 62.92Q29.45 61.98 25.27 61.98L25.27 61.98Q21.46 61.98 19.44 63.17Q17.42 64.36 16.67 66.92Q15.91 69.47 15.91 74.15L15.91 74.15Q15.91 76.53 15.98 77.82L15.98 77.82Q16.20 83.15 16.85 85.53Q17.50 87.90 19.15 88.77Q20.81 89.63 24.48 89.63L24.48 89.63Q29.45 89.63 36.22 88.84L36.22 88.84L36.43 99.21Q28.66 100.94 22.25 100.94L22.25 100.94ZM52.42 100.94Q46.44 100.94 43.52 97.88Q40.61 94.82 40.61 88.55L40.61 88.55Q40.61 82.58 43.81 80.16Q47.02 77.75 54.22 77.39L54.22 77.39L59.54 77.10L59.54 75.45Q59.54 74.22 58.93 73.90Q58.32 73.58 56.38 73.58L56.38 73.58L49.90 73.72Q43.70 74.01 43.27 73.86L43.27 73.86L42.98 65.44Q50.76 63.06 58.10 63.06L58.10 63.06Q65.52 63.06 68.76 65.98Q72.00 68.90 72.00 75.45L72.00 75.45L72.00 88.12Q72.07 88.91 72.14 89.88Q72.22 90.86 72.43 91.18Q72.65 91.50 73.22 91.65L73.22 91.65L72.86 100.94Q68.40 100.94 66.20 100.54Q64.01 100.14 61.42 98.70L61.42 98.70Q56.95 100.94 52.42 100.94L52.42 100.94ZM55.30 90.93Q56.45 90.93 58.82 90.57L58.82 90.57L59.54 90.50L59.54 85.53L55.73 85.82Q54.50 85.96 53.78 86.68Q53.06 87.40 53.06 88.70L53.06 88.70Q53.06 90.93 55.30 90.93L55.30 90.93ZM80.28 100L80.28 100ZM80.28 100L80.28 64.00L92.81 64.00L92.81 100L80.28 100ZM80.35 61.70L80.35 49.67L92.88 49.67L92.88 61.70L80.35 61.70ZM100.80 100L100.80 64.00L113.26 64.00L113.26 67.10Q119.52 63.86 123.62 63.06L123.62 63.06L123.62 75.66Q121.39 76.17 118.08 76.60L118.08 76.60Q117.50 76.67 114.48 77.18L114.48 77.18L113.33 77.39L113.33 100L100.80 100ZM144.58 100.94Q139.39 100.94 135.47 98.49Q131.54 96.04 129.42 91.65Q127.30 87.26 127.30 81.71L127.30 81.71Q127.30 76.31 129.38 72.10Q131.47 67.89 135.36 65.48Q139.25 63.06 144.58 63.06L144.58 63.06Q149.90 63.06 153.83 65.44Q157.75 67.82 159.84 72.03Q161.93 76.24 161.93 81.71L161.93 81.71Q161.93 87.33 159.80 91.68Q157.68 96.04 153.72 98.49Q149.76 100.94 144.58 100.94L144.58 100.94ZM144.58 90.42Q146.45 90.42 147.89 88.23Q149.33 86.03 149.33 81.71L149.33 81.71Q149.33 77.75 147.96 75.66Q146.59 73.58 144.58 73.58L144.58 73.58Q142.56 73.58 141.23 75.66Q139.90 77.75 139.90 81.71L139.90 81.71Q139.90 86.03 141.30 88.23Q142.70 90.42 144.58 90.42L144.58 90.42ZM200.66 101.01Q195.26 101.01 186.91 100.14L186.91 100.14L183.67 99.78L183.67 50.46L196.20 50.46L196.20 64.58Q196.78 64.36 198.14 63.89Q199.51 63.42 200.63 63.24Q201.74 63.06 203.11 63.06L203.11 63.06Q210.38 63.06 214.02 67.53Q217.66 71.99 217.66 82L217.66 82Q217.66 92.08 213.59 96.54Q209.52 101.01 200.66 101.01L200.66 101.01ZM199.30 89.78Q202.25 89.78 203.62 88.12Q204.98 86.46 204.98 82.22L204.98 82.22Q204.98 74.22 199.80 74.22L199.80 74.22Q198.14 74.22 196.20 74.37L196.20 74.37L196.20 89.56Q197.86 89.78 199.30 89.78L199.30 89.78ZM224.14 100L224.14 50.46L236.66 50.46L236.66 100L224.14 100ZM254.45 100.94Q248.47 100.94 245.56 97.88Q242.64 94.82 242.64 88.55L242.64 88.55Q242.64 82.58 245.84 80.16Q249.05 77.75 256.25 77.39L256.25 77.39L261.58 77.10L261.58 75.45Q261.58 74.22 260.96 73.90Q260.35 73.58 258.41 73.58L258.41 73.58L251.93 73.72Q245.74 74.01 245.30 73.86L245.30 73.86L245.02 65.44Q252.79 63.06 260.14 63.06L260.14 63.06Q267.55 63.06 270.79 65.98Q274.03 68.90 274.03 75.45L274.03 75.45L274.03 88.12Q274.10 88.91 274.18 89.88Q274.25 90.86 274.46 91.18Q274.68 91.50 275.26 91.65L275.26 91.65L274.90 100.94Q270.43 100.94 268.24 100.54Q266.04 100.14 263.45 98.70L263.45 98.70Q258.98 100.94 254.45 100.94L254.45 100.94ZM257.33 90.93Q258.48 90.93 260.86 90.57L260.86 90.57L261.58 90.50L261.58 85.53L257.76 85.82Q256.54 85.96 255.82 86.68Q255.10 87.40 255.10 88.70L255.10 88.70Q255.10 90.93 257.33 90.93L257.33 90.93ZM295.42 100.94Q287.78 100.94 284.11 96.33Q280.44 91.72 280.44 82L280.44 82Q280.44 74.30 282.38 70.16Q284.33 66.02 287.78 64.54Q291.24 63.06 296.64 63.06L296.64 63.06Q298.80 63.06 301.46 63.50Q304.13 63.93 308.45 64.94L308.45 64.94L308.16 74.73Q301.46 74.22 299.81 74.22L299.81 74.22Q297.00 74.22 295.56 74.91Q294.12 75.59 293.62 77.18Q293.11 78.76 293.11 81.78L293.11 81.78Q293.11 85.02 293.65 86.72Q294.19 88.41 295.63 89.09Q297.07 89.78 299.81 89.78L299.81 89.78L308.09 89.27L308.45 99.14Q300.31 100.94 295.42 100.94L295.42 100.94ZM314.93 100L314.93 50.46L327.46 50.46L327.46 77.90L329.83 76.96L334.80 64.00L348.77 64.00L340.99 81.42L349.27 100L335.23 100L330.26 87.76L327.46 88.70L327.46 100L314.93 100Z"/></svg>