<svg xmlns="http://www.w3.org/2000/svg" viewBox="0.59 -7.0200000000000005 20.18 7.12"><path d="M3.21 0.10Q2.15 0.10 1.58-0.29Q1.01-0.69 0.80-1.45Q0.59-2.21 0.59-3.46L0.59-3.46Q0.59-4.70 0.80-5.46Q1.01-6.23 1.56-6.63Q2.12-7.02 3.16-7.02L3.16-7.02Q3.97-7.02 5.03-6.80L5.03-6.80L5-6.15Q3.99-6.33 3.26-6.33L3.26-6.33Q2.48-6.33 2.08-6.05Q1.68-5.77 1.54-5.15Q1.39-4.53 1.39-3.35L1.39-3.35Q1.39-2.33 1.53-1.76Q1.66-1.18 2.08-0.89Q2.50-0.59 3.35-0.59L3.35-0.59Q4.04-0.59 5-0.77L5-0.77L5.03-0.11Q4 0.10 3.21 0.10L3.21 0.10ZM7.25 0.10Q6.56 0.10 6.20-0.29Q5.84-0.68 5.84-1.41L5.84-1.41Q5.84-2.13 6.21-2.48Q6.57-2.83 7.37-2.91L7.37-2.91L8.94-3.06L8.94-3.49Q8.94-4.44 8.12-4.44L8.12-4.44Q7.31-4.44 6.15-4.31L6.15-4.31L6.12-4.88Q7.19-5.10 8.07-5.10L8.07-5.10Q8.92-5.10 9.30-4.71Q9.69-4.33 9.69-3.49L9.69-3.49L9.69-0.93Q9.72-0.56 10.27-0.49L10.27-0.49L10.24 0.10Q9.45 0.10 9.05-0.30L9.05-0.30Q8.16 0.10 7.25 0.10L7.25 0.10ZM7.37-0.53Q8.04-0.53 8.71-0.76L8.71-0.76L8.94-0.84L8.94-2.49L7.46-2.35Q7.01-2.31 6.81-2.09Q6.61-1.87 6.61-1.45L6.61-1.45Q6.61-0.53 7.37-0.53L7.37-0.53ZM11.17 0L11.17 0ZM11.17 0L11.17-5L11.91-5L11.91 0L11.17 0ZM11.17-6.13L11.17-7L11.91-7L11.91-6.13L11.17-6.13ZM13.35 0L13.35-5L14.09-5L14.09-4.32Q14.95-4.91 15.92-5.11L15.92-5.11L15.92-4.35Q15.53-4.27 15.07-4.11Q14.62-3.94 14.35-3.80L14.35-3.80L14.10-3.67L14.10 0L13.35 0ZM18.63 0.10Q17.83 0.10 17.36-0.17Q16.89-0.43 16.69-0.99Q16.49-1.55 16.49-2.47L16.49-2.47Q16.49-3.42 16.70-4.00Q16.91-4.57 17.38-4.83Q17.85-5.10 18.63-5.10L18.63-5.10Q19.42-5.10 19.89-4.83Q20.35-4.56 20.56-3.99Q20.77-3.42 20.77-2.47L20.77-2.47Q20.77-1.55 20.57-0.99Q20.37-0.43 19.91-0.17Q19.44 0.10 18.63 0.10L18.63 0.10ZM18.64-0.55Q19.19-0.55 19.48-0.73Q19.77-0.92 19.89-1.32Q20-1.73 20-2.47L20-2.47Q20-3.25 19.88-3.67Q19.76-4.09 19.47-4.27Q19.18-4.45 18.64-4.45L18.64-4.45Q18.10-4.45 17.80-4.27Q17.51-4.09 17.39-3.67Q17.26-3.25 17.26-2.47L17.26-2.47Q17.26-1.74 17.38-1.33Q17.49-0.92 17.79-0.73Q18.08-0.55 18.64-0.55L18.64-0.55Z"/></svg>