<svg xmlns="http://www.w3.org/2000/svg" viewBox="3.3840000000000003 49.599999999999994 303.624 51.26400000000001"><path d="M23 101Q15 101 11 98Q6 95 5 90Q3 85 3 76L3 76Q3 66 5 60Q7 55 11 53Q15 50 22 50L22 50Q28 50 36 52L36 52L36 60Q29 59 25 59L25 59Q20 59 18 60Q15 62 15 65Q14 68 14 74L14 74L14 77Q14 83 15 86Q15 89 17 91Q20 92 24 92L24 92Q29 92 36 91L36 91L36 99Q29 101 23 101L23 101ZM52 101Q41 101 41 89L41 89Q41 83 44 81Q47 78 54 78L54 78L61 77L61 75Q61 73 61 72Q60 71 57 71L57 71Q55 71 51 72Q47 72 44 72L44 72L43 65Q51 63 58 63L58 63Q65 63 68 66Q71 69 71 75L71 75L71 90Q71 92 72 93Q72 93 74 94L74 94L73 101Q69 101 67 100Q65 100 63 98L63 98Q58 101 52 101L52 101ZM54 93Q57 93 60 92L60 92L61 92L61 84L55 85Q51 85 51 89L51 89Q51 93 54 93L54 93ZM80 100L80 100ZM80 100L80 64L90 64L90 100L80 100ZM80 59L80 50L90 50L90 59L80 59ZM99 100L99 64L109 64L109 68Q115 64 120 63L120 63L120 73Q115 74 110 75L110 75L109 76L109 100L99 100ZM140 101Q132 101 128 96Q124 91 124 82L124 82Q124 73 128 68Q132 63 140 63L140 63Q149 63 153 68Q157 73 157 82L157 82Q157 91 153 96Q149 101 140 101L140 101ZM140 93Q144 93 146 90Q147 88 147 82L147 82Q147 76 146 74Q144 71 140 71L140 71Q137 71 135 74Q134 76 134 82L134 82Q134 88 135 90Q137 93 140 93L140 93ZM195 101Q190 101 183 100L183 100L180 100L180 50L190 50L190 65Q192 64 194 64Q196 63 198 63L198 63Q205 63 208 68Q212 72 212 82L212 82Q212 89 210 93Q208 97 205 99Q201 101 195 101L195 101ZM194 92Q199 92 200 90Q202 88 202 82L202 82Q202 76 200 74Q199 72 196 72L196 72Q193 72 190 73L190 73L190 92Q192 92 194 92L194 92ZM234 101Q226 101 221 96Q217 91 217 82L217 82Q217 73 221 68Q226 63 234 63L234 63Q242 63 246 68Q250 73 250 82L250 82Q250 91 246 96Q242 101 234 101L234 101ZM234 93Q237 93 239 90Q240 88 240 82L240 82Q240 76 239 74Q237 71 234 71L234 71Q230 71 229 74Q227 76 227 82L227 82Q227 88 229 90Q230 93 234 93L234 93ZM258 100L258 50L267 50L267 100L258 100ZM288 101Q281 101 278 96Q275 92 275 83L275 83Q275 72 278 68Q282 63 289 63L289 63Q292 63 297 64L297 64L297 50L307 50L307 100L297 100L297 98Q294 100 292 100Q290 101 288 101L288 101ZM290 92Q293 92 296 91L296 91L297 91L297 72Q294 71 291 71L291 71Q287 71 286 74Q284 76 284 82L284 82Q284 88 286 90Q287 92 290 92L290 92Z"/></svg>