<svg xmlns="http://www.w3.org/2000/svg" viewBox="4.6080000000000005 47.727999999999994 289.29600000000005 69.33600000000001"><path d="M23 101Q16 101 12 98Q8 95 6 89Q5 84 5 75L5 75Q5 66 6 61Q7 55 11 52Q16 49 23 49L23 49Q29 49 36 51L36 51L36 54Q29 52 23 52L23 52Q17 52 14 55Q11 57 10 62Q8 67 8 76L8 76Q8 84 10 88Q11 93 14 95Q17 97 24 97L24 97Q29 97 36 96L36 96L36 99Q29 101 23 101L23 101ZM52 101Q47 101 45 98Q42 95 42 90L42 90Q42 85 45 83Q47 80 53 79L53 79L66 78L66 75Q66 71 64 69Q62 67 59 67L59 67Q56 67 53 67Q50 67 44 68L44 68L44 65Q52 63 58 63L58 63Q64 63 66 66Q69 69 69 75L69 75L69 95Q69 96 70 97Q72 97 74 98L74 98L74 101Q71 101 69 100Q67 99 66 98L66 98Q59 101 52 101L52 101ZM52 98Q58 98 64 96L64 96L66 95L66 81L53 82Q49 83 48 84Q46 86 46 90L46 90Q46 98 52 98L52 98ZM80 100L80 100ZM80 100L80 64L84 64L84 100L80 100ZM80 54L80 50L84 50L84 54L80 54ZM95 100L95 64L98 64L98 69Q105 65 112 63L112 63L112 67Q109 67 106 69Q102 70 100 71L100 71L98 73L98 100L95 100ZM131 101Q126 101 122 99Q119 97 118 93Q117 89 117 82L117 82Q117 75 118 71Q119 67 123 65Q126 63 131 63L131 63Q137 63 141 65Q144 67 145 71Q146 75 146 82L146 82Q146 89 145 93Q144 97 141 99Q137 101 131 101L131 101ZM132 97Q136 97 139 96Q141 95 142 91Q143 88 143 82L143 82Q143 76 142 73Q141 69 138 68Q136 67 132 67L132 67Q127 67 125 68Q122 69 121 73Q120 76 120 82L120 82Q120 88 121 91Q122 95 124 96Q127 97 132 97L132 97ZM172 100L172 48L176 48L176 100L172 100ZM187 100L187 100ZM187 100L187 64L191 64L191 100L187 100ZM187 54L187 50L191 50L191 54L187 54ZM214 117Q208 117 205 116Q202 115 201 113Q199 110 199 106L199 106Q199 104 200 102Q201 101 202 100Q203 99 205 97L205 97Q204 96 204 95Q204 94 204 92L204 92Q204 91 204 90Q204 89 206 86L206 86Q200 84 200 75L200 75Q200 69 203 66Q206 63 213 63L213 63Q216 63 220 64L220 64L230 64L230 67L223 67Q226 69 226 76L226 76Q226 82 223 85Q219 87 212 87L212 87Q210 87 209 87L209 87Q208 87 208 88Q208 88 208 88L208 88Q208 90 207 90Q207 91 207 92L207 92Q207 94 209 95Q210 95 213 95L213 95L217 95Q221 95 224 96Q227 97 228 99Q230 101 230 105L230 105Q230 112 226 114Q222 117 214 117L214 117ZM213 84Q218 84 220 82Q222 80 222 75L222 75Q222 70 220 68Q218 66 213 66L213 66Q208 66 206 68Q203 70 203 75L203 75Q203 80 206 82Q208 84 213 84L213 84ZM214 114Q219 114 221 113Q224 112 225 110Q226 109 226 105L226 105Q226 103 225 101Q224 100 222 99Q220 99 216 99L216 99L208 98Q205 100 204 102Q203 103 203 106L203 106Q203 109 204 111Q205 113 207 113Q210 114 214 114L214 114ZM237 100L237 48L241 48L241 66Q247 63 253 63L253 63Q258 63 260 65Q263 67 264 70Q265 74 265 81L265 81L265 100L261 100L261 81Q261 75 261 72Q260 69 258 68Q256 67 252 67L252 67Q248 67 242 69L242 69L241 69L241 100L237 100ZM286 101Q283 101 281 100Q279 98 278 96Q277 93 277 88L277 88L277 67L272 67L272 64L277 64L277 53L281 53L281 64L293 64L293 67L281 67L281 85Q281 90 281 93Q281 95 283 96Q284 98 287 98L287 98L294 97L294 100Q289 101 286 101L286 101Z"/></svg>