<svg xmlns="http://www.w3.org/2000/svg" viewBox="4.824000000000001 47.43999999999999 451.008 69.696"><path d="M23 101Q16 101 12 98Q8 95 6 89Q5 84 5 75L5 75Q5 66 6 61Q8 55 12 52Q16 49 23 49L23 49Q29 49 36 50L36 50L36 53Q28 51 23 51L23 51Q16 51 13 54Q10 56 9 61Q8 67 8 77L8 77Q8 84 9 89Q10 93 14 96Q17 98 24 98L24 98Q29 98 36 97L36 97L36 99Q29 101 23 101L23 101ZM52 101Q48 101 45 98Q43 95 43 90L43 90Q43 86 45 83Q47 80 53 80L53 80L66 78L66 75Q66 70 64 68Q63 66 59 66L59 66Q56 66 54 66Q51 66 45 67L45 67L44 65Q52 63 58 63L58 63Q64 63 66 66Q69 69 69 75L69 75L69 95Q69 96 70 97Q72 98 74 98L74 98L74 101Q72 101 70 100Q68 99 67 97L67 97Q59 101 52 101L52 101ZM52 98Q58 98 64 96L64 96L66 95L66 81L53 82Q49 82 47 84Q45 86 45 90L45 90Q45 98 52 98L52 98ZM80 100L80 100ZM80 100L80 64L83 64L83 100L80 100ZM80 54L80 50L83 50L83 54L80 54ZM94 100L94 64L97 64L97 70Q103 65 111 63L111 63L111 66Q108 66 104 68Q100 70 99 71L99 71L97 72L97 100L94 100ZM130 101Q124 101 121 99Q118 97 116 93Q115 90 115 82L115 82Q115 75 117 71Q118 67 121 65Q124 63 130 63L130 63Q136 63 139 65Q142 67 143 71Q145 75 145 82L145 82Q145 90 143 93Q142 97 139 99Q136 101 130 101L130 101ZM130 98Q135 98 138 97Q140 95 141 92Q142 89 142 82L142 82Q142 76 141 72Q140 69 137 67Q135 66 130 66L130 66Q125 66 123 67Q120 69 119 72Q118 76 118 82L118 82Q118 89 119 92Q120 95 122 97Q125 98 130 98L130 98ZM183 101Q175 101 172 96Q169 92 169 83L169 83Q169 73 172 68Q176 63 183 63L183 63Q190 63 194 68Q197 72 197 81L197 81L197 83L172 83Q171 89 173 92Q174 95 176 97Q179 98 184 98L184 98Q186 98 189 98Q191 98 193 98L193 98L196 98L196 100Q187 101 183 101L183 101ZM171 81L194 81Q194 73 192 69Q189 66 184 66L184 66Q178 66 175 69Q172 73 171 81L171 81ZM202 100L215 82L202 64L205 64L216 80L227 64L230 64L218 82L230 100L227 100L216 84L205 100L202 100ZM247 101Q244 101 242 100Q240 98 239 96Q238 93 238 88L238 88L238 66L233 66L233 64L238 64L238 52L241 52L241 64L254 64L254 66L241 66L241 85Q241 91 241 93Q242 96 243 97Q244 98 247 98L247 98L254 98L255 100Q249 101 247 101L247 101ZM261 100L261 64L263 64L263 70Q269 65 278 63L278 63L278 66Q275 66 271 68Q267 70 265 71L265 71L263 72L263 100L261 100ZM292 101Q287 101 285 98Q282 95 282 90L282 90Q282 86 285 83Q287 80 292 80L292 80L306 78L306 75Q306 70 304 68Q302 66 299 66L299 66Q296 66 293 66Q291 66 284 67L284 67L284 65Q292 63 298 63L298 63Q303 63 306 66Q308 69 308 75L308 75L308 95Q309 96 310 97Q311 98 314 98L314 98L314 101Q311 101 309 100Q307 99 306 97L306 97Q299 101 292 101L292 101ZM292 98Q298 98 304 96L304 96L306 95L306 81L292 82Q289 82 287 84Q285 86 285 90L285 90Q285 98 292 98L292 98ZM336 100L336 47L339 47L339 100L336 100ZM351 100L351 100ZM351 100L351 64L353 64L353 100L351 100ZM351 54L351 50L353 50L353 54L351 54ZM376 117Q370 117 367 116Q364 115 363 113Q362 110 362 106L362 106Q362 104 363 102Q363 101 364 100Q365 99 368 97L368 97Q367 96 367 95Q367 94 367 92L367 92Q367 91 367 90Q367 89 369 86L369 86Q363 84 363 75L363 75Q363 69 366 66Q369 63 375 63L375 63Q379 63 383 64L383 64L393 64L393 67L385 67Q386 68 387 70Q388 72 388 75L388 75Q388 82 385 84Q382 87 375 87L375 87Q372 87 371 87L371 87L370 88Q370 89 369 90Q369 91 369 92L369 92Q369 94 371 95Q372 96 375 96L375 96L380 96Q384 96 387 97Q389 97 390 99Q392 102 392 106L392 106Q392 110 390 112Q389 115 385 116Q382 117 376 117L376 117ZM375 85Q381 85 383 83Q385 81 385 75L385 75Q385 70 383 68Q381 66 375 66L375 66Q370 66 367 68Q365 70 365 75L365 75Q365 81 367 83Q370 85 375 85L375 85ZM376 115Q381 115 384 114Q387 113 388 111Q389 109 389 105L389 105Q389 102 388 101Q388 99 385 99Q383 98 379 98L379 98L370 98Q368 99 367 100Q366 102 365 103Q365 104 365 106L365 106Q365 110 366 111Q367 113 369 114Q372 115 376 115L376 115ZM400 100L400 47L402 47L402 66Q409 63 415 63L415 63Q420 63 422 65Q425 67 426 70Q427 74 427 81L427 81L427 100L424 100L424 81Q424 75 423 72Q423 68 421 67Q419 66 415 66L415 66Q412 66 409 66Q407 67 404 68L404 68L402 68L402 100L400 100ZM448 101Q445 101 443 100Q441 98 440 96Q439 93 439 88L439 88L439 66L434 66L434 64L439 64L439 52L442 52L442 64L455 64L455 66L442 66L442 85Q442 91 442 93Q443 96 444 97Q445 98 448 98L448 98L455 98L456 100Q450 101 448 101L448 101Z"/></svg>