<svg xmlns="http://www.w3.org/2000/svg" viewBox="0.47000000000000003 -6.99 21.330000000000002 7.11"><path d="M3.14 0.12Q2.06 0.12 1.48-0.26Q0.90-0.64 0.69-1.39Q0.47-2.13 0.47-3.37L0.47-3.37Q0.47-4.73 0.70-5.49Q0.94-6.25 1.49-6.58Q2.04-6.92 3.03-6.92L3.03-6.92Q3.94-6.92 5.06-6.65L5.06-6.65L5.02-5.55Q4.03-5.70 3.41-5.70L3.41-5.70Q2.78-5.70 2.46-5.50Q2.14-5.30 2.02-4.84Q1.89-4.39 1.89-3.56L1.89-3.56L1.89-3.19Q1.91-2.33 2.02-1.91Q2.12-1.48 2.43-1.29Q2.74-1.10 3.38-1.10L3.38-1.10Q4.06-1.10 5.02-1.24L5.02-1.24L5.05-0.11Q3.96 0.12 3.14 0.12L3.14 0.12ZM7.27 0.12Q5.72 0.12 5.72-1.52L5.72-1.52Q5.72-2.30 6.13-2.65Q6.55-2.99 7.47-3.05L7.47-3.05L8.54-3.13L8.54-3.44Q8.54-3.74 8.40-3.86Q8.27-3.98 7.95-3.98L7.95-3.98Q7.62-3.98 7.04-3.96Q6.46-3.93 6.07-3.90L6.07-3.90L6.03-4.83Q7.11-5.12 8.07-5.12L8.07-5.12Q9.03-5.12 9.46-4.72Q9.88-4.32 9.88-3.44L9.88-3.44L9.88-1.36Q9.90-1.11 9.96-1.02Q10.03-0.93 10.21-0.89L10.21-0.89L10.17 0.12Q9.65 0.12 9.34 0.05Q9.04-0.02 8.74-0.23L8.74-0.23Q8.01 0.12 7.27 0.12L7.27 0.12ZM7.56-0.97Q7.94-0.97 8.39-1.09L8.39-1.09L8.54-1.13L8.54-2.20L7.63-2.12Q7.07-2.07 7.07-1.52L7.07-1.52Q7.07-0.97 7.56-0.97L7.56-0.97ZM11.16 0L11.16 0ZM11.16 0L11.16-5L12.50-5L12.50 0L11.16 0ZM11.16-5.64L11.16-6.99L12.50-6.99L12.50-5.64L11.16-5.64ZM13.74 0L13.74-5L15.07-5L15.07-4.47Q15.93-4.97 16.67-5.12L16.67-5.12L16.67-3.77Q15.92-3.62 15.28-3.42L15.28-3.42L15.08-3.35L15.08 0L13.74 0ZM19.50 0.12Q18.37 0.12 17.79-0.57Q17.20-1.25 17.20-2.51L17.20-2.51Q17.20-3.76 17.79-4.44Q18.37-5.12 19.50-5.12L19.50-5.12Q20.63-5.12 21.21-4.44Q21.80-3.76 21.80-2.51L21.80-2.51Q21.80-1.25 21.21-0.57Q20.63 0.12 19.50 0.12L19.50 0.12ZM19.50-1.02Q19.98-1.02 20.21-1.37Q20.44-1.72 20.44-2.51L20.44-2.51Q20.44-3.30 20.21-3.64Q19.98-3.98 19.50-3.98L19.50-3.98Q19.02-3.98 18.79-3.64Q18.56-3.30 18.56-2.51L18.56-2.51Q18.56-1.72 18.79-1.37Q19.02-1.02 19.50-1.02L19.50-1.02Z"/></svg>