<svg xmlns="http://www.w3.org/2000/svg" viewBox="4.6080000000000005 47.727999999999994 289.29600000000005 69.33600000000001"><path d="M23.33 100.65Q15.77 100.65 11.70 97.73Q7.63 94.82 6.12 89.31Q4.61 83.80 4.61 74.80L4.61 74.80Q4.61 66.16 6.01 60.72Q7.42 55.29 11.48 52.23Q15.55 49.17 23.18 49.17L23.18 49.17Q28.66 49.17 36.14 50.54L36.14 50.54L35.93 53.85Q28.87 52.48 23.04 52.48L23.04 52.48Q16.92 52.48 13.82 54.68Q10.73 56.87 9.58 61.84Q8.42 66.81 8.42 76.17L8.42 76.17Q8.42 83.73 9.54 88.16Q10.66 92.58 14.04 94.96Q17.42 97.34 24.05 97.34L24.05 97.34Q29.23 97.34 35.93 95.90L35.93 95.90L36.14 99.21Q29.16 100.65 23.33 100.65L23.33 100.65ZM52.13 100.65Q47.38 100.65 44.89 97.91Q42.41 95.18 42.41 90.21L42.41 90.21Q42.41 85.24 44.86 82.68Q47.30 80.13 52.70 79.48L52.70 79.48L65.59 78.18L65.59 74.73Q65.59 70.55 63.83 68.57Q62.06 66.59 58.97 66.59L58.97 66.59Q55.80 66.59 53.06 66.81Q50.33 67.02 44.50 67.67L44.50 67.67L44.28 64.72Q52.06 63.35 58.10 63.35L58.10 63.35Q63.79 63.35 66.46 66.09Q69.12 68.82 69.12 74.73L69.12 74.73L69.12 94.67Q69.19 95.82 70.49 96.62Q71.78 97.41 74.09 97.70L74.09 97.70L73.94 100.65Q71.35 100.65 69.30 99.86Q67.25 99.06 66.10 97.62L66.10 97.62Q59.33 100.65 52.13 100.65L52.13 100.65ZM52.42 97.55Q58.03 97.55 63.65 95.54L63.65 95.54L65.59 94.89L65.59 81.14L53.14 82.36Q49.39 82.65 47.77 84.45Q46.15 86.25 46.15 89.78L46.15 89.78Q46.15 97.55 52.42 97.55L52.42 97.55ZM80.42 100L80.42 100ZM80.42 100L80.42 64.00L83.88 64.00L83.88 100L80.42 100ZM80.42 54.35L80.42 49.60L83.88 49.60L83.88 54.35L80.42 54.35ZM94.90 100L94.90 64.00L98.42 64.00L98.42 69.33Q104.54 64.86 112.32 63.21L112.32 63.21L112.32 66.88Q109.37 67.46 105.73 68.90Q102.10 70.34 100.44 71.49L100.44 71.49L98.50 72.57L98.50 100L94.90 100ZM131.47 100.65Q125.57 100.65 122.36 98.88Q119.16 97.12 117.86 93.20Q116.57 89.27 116.57 82.36L116.57 82.36Q116.57 75.09 117.94 71.02Q119.30 66.95 122.51 65.15Q125.71 63.35 131.47 63.35L131.47 63.35Q137.30 63.35 140.51 65.19Q143.71 67.02 145.04 71.09Q146.38 75.16 146.38 82.36L146.38 82.36Q146.38 89.27 145.12 93.20Q143.86 97.12 140.65 98.88Q137.45 100.65 131.47 100.65L131.47 100.65ZM131.62 97.48Q136.30 97.48 138.64 96.04Q140.98 94.60 141.84 91.47Q142.70 88.34 142.70 82.36L142.70 82.36Q142.70 76.02 141.77 72.68Q140.83 69.33 138.49 67.92Q136.15 66.52 131.62 66.52L131.62 66.52Q127.01 66.52 124.60 67.92Q122.18 69.33 121.25 72.68Q120.31 76.02 120.31 82.36L120.31 82.36Q120.31 88.26 121.18 91.43Q122.04 94.60 124.45 96.04Q126.86 97.48 131.62 97.48L131.62 97.48ZM172.15 100L172.15 47.73L175.75 47.73L175.75 100L172.15 100ZM187.13 100L187.13 100ZM187.13 100L187.13 64.00L190.58 64.00L190.58 100L187.13 100ZM187.13 54.35L187.13 49.60L190.58 49.60L190.58 54.35L187.13 54.35ZM213.55 117.06Q207.94 117.06 204.88 115.95Q201.82 114.83 200.63 112.53Q199.44 110.22 199.44 106.26L199.44 106.26Q199.44 103.74 199.98 102.30Q200.52 100.86 201.60 99.82Q202.68 98.78 205.34 96.76L205.34 96.76Q204.48 96.18 204.05 94.92Q203.62 93.66 203.62 92.22L203.62 92.22Q203.62 91.29 204.01 90.21Q204.41 89.13 205.85 86.32L205.85 86.32Q199.87 84.23 199.87 75.45L199.87 75.45Q199.87 69.26 202.97 66.27Q206.06 63.28 212.83 63.28L212.83 63.28Q216.22 63.28 220.18 64.22L220.18 64.22L230.40 63.93L230.40 67.24L222.98 67.24Q225.65 69.47 225.65 75.52L225.65 75.52Q225.65 81.93 222.52 84.63Q219.38 87.33 212.40 87.33L212.40 87.33Q210.10 87.33 208.58 87.04L208.58 87.04Q208.44 87.33 208.33 87.72Q208.22 88.12 208.01 88.48L208.01 88.48Q207.58 89.56 207.29 90.46Q207.00 91.36 207.00 92.08L207.00 92.08Q207.00 94.17 208.55 94.82Q210.10 95.46 213.34 95.46L213.34 95.46L216.72 95.46Q221.11 95.39 223.85 96.11Q226.58 96.83 228.10 99.03Q229.61 101.22 229.61 105.40L229.61 105.40Q229.61 111.52 225.97 114.29Q222.34 117.06 213.55 117.06L213.55 117.06ZM212.76 84.38Q217.87 84.38 219.96 82.36Q222.05 80.34 222.05 75.30L222.05 75.30Q222.05 70.34 219.96 68.32Q217.87 66.30 212.90 66.30L212.90 66.30Q207.72 66.30 205.56 68.36Q203.40 70.41 203.40 75.38L203.40 75.38Q203.40 80.34 205.52 82.36Q207.65 84.38 212.76 84.38L212.76 84.38ZM213.98 114.04Q218.52 114.04 221.11 113.21Q223.70 112.38 224.82 110.48Q225.94 108.57 225.94 105.33L225.94 105.33Q225.94 102.59 225.18 101.19Q224.42 99.78 222.37 99.17Q220.32 98.56 216.22 98.63L216.22 98.63L207.86 98.34Q204.84 100.43 203.90 101.84Q202.97 103.24 202.97 105.98L202.97 105.98Q202.97 109.07 203.98 110.80Q204.98 112.53 207.32 113.28Q209.66 114.04 213.98 114.04L213.98 114.04ZM237.24 100L237.24 47.73L240.84 47.73L240.84 66.16Q246.96 63.35 253.01 63.35L253.01 63.35Q257.76 63.35 260.28 64.97Q262.80 66.59 263.81 70.37Q264.82 74.15 264.82 81.21L264.82 81.21L264.82 100L261.22 100L261.22 81.35Q261.22 75.16 260.53 72.06Q259.85 68.97 257.98 67.74Q256.10 66.52 252.29 66.52L252.29 66.52Q247.54 66.52 242.35 68.54L242.35 68.54L240.84 69.11L240.84 100L237.24 100ZM286.27 100.79Q282.82 100.79 280.87 99.64Q278.93 98.49 278.06 95.72Q277.20 92.94 277.20 87.83L277.20 87.83L277.20 67.17L271.73 67.17L271.73 64.00L277.20 64.00L277.20 52.55L280.66 52.55L280.66 64.00L293.26 64.00L293.26 67.17L280.66 67.17L280.66 85.38Q280.66 90.35 281.02 92.76Q281.38 95.18 282.64 96.40Q283.90 97.62 286.78 97.62L286.78 97.62L293.62 97.05L293.90 100.07Q288.86 100.79 286.27 100.79L286.27 100.79Z"/></svg>