<svg xmlns="http://www.w3.org/2000/svg" viewBox="2.8080000000000003 49.672 346.46400000000006 51.336"><path d="M22 101Q14 101 10 98Q6 96 4 90Q3 85 3 76L3 76Q3 66 5 60Q6 55 10 53Q14 51 21 51L21 51Q28 51 37 53L37 53L36 63Q29 62 25 62L25 62Q21 62 19 63Q17 64 17 67Q16 69 16 74L16 74Q16 77 16 78L16 78Q16 83 17 86Q17 88 19 89Q21 90 24 90L24 90Q29 90 36 89L36 89L36 99Q29 101 22 101L22 101ZM52 101Q46 101 44 98Q41 95 41 89L41 89Q41 83 44 80Q47 78 54 77L54 77L60 77L60 75Q60 74 59 74Q58 74 56 74L56 74L50 74Q44 74 43 74L43 74L43 65Q51 63 58 63L58 63Q66 63 69 66Q72 69 72 75L72 75L72 88Q72 89 72 90Q72 91 72 91Q73 92 73 92L73 92L73 101Q68 101 66 101Q64 100 61 99L61 99Q57 101 52 101L52 101ZM55 91Q56 91 59 91L59 91L60 90L60 86L56 86Q55 86 54 87Q53 87 53 89L53 89Q53 91 55 91L55 91ZM80 100L80 100ZM80 100L80 64L93 64L93 100L80 100ZM80 62L80 50L93 50L93 62L80 62ZM101 100L101 64L113 64L113 67Q120 64 124 63L124 63L124 76Q121 76 118 77L118 77Q118 77 114 77L114 77L113 77L113 100L101 100ZM145 101Q139 101 135 98Q132 96 129 92Q127 87 127 82L127 82Q127 76 129 72Q131 68 135 65Q139 63 145 63L145 63Q150 63 154 65Q158 68 160 72Q162 76 162 82L162 82Q162 87 160 92Q158 96 154 98Q150 101 145 101L145 101ZM145 90Q146 90 148 88Q149 86 149 82L149 82Q149 78 148 76Q147 74 145 74L145 74Q143 74 141 76Q140 78 140 82L140 82Q140 86 141 88Q143 90 145 90L145 90ZM201 101Q195 101 187 100L187 100L184 100L184 50L196 50L196 65Q197 64 198 64Q200 63 201 63Q202 63 203 63L203 63Q210 63 214 68Q218 72 218 82L218 82Q218 92 214 97Q210 101 201 101L201 101ZM199 90Q202 90 204 88Q205 86 205 82L205 82Q205 74 200 74L200 74Q198 74 196 74L196 74L196 90Q198 90 199 90L199 90ZM224 100L224 50L237 50L237 100L224 100ZM254 101Q248 101 246 98Q243 95 243 89L243 89Q243 83 246 80Q249 78 256 77L256 77L262 77L262 75Q262 74 261 74Q260 74 258 74L258 74L252 74Q246 74 245 74L245 74L245 65Q253 63 260 63L260 63Q268 63 271 66Q274 69 274 75L274 75L274 88Q274 89 274 90Q274 91 274 91Q275 92 275 92L275 92L275 101Q270 101 268 101Q266 100 263 99L263 99Q259 101 254 101L254 101ZM257 91Q258 91 261 91L261 91L262 90L262 86L258 86Q257 86 256 87Q255 87 255 89L255 89Q255 91 257 91L257 91ZM295 101Q288 101 284 96Q280 92 280 82L280 82Q280 74 282 70Q284 66 288 65Q291 63 297 63L297 63Q299 63 301 63Q304 64 308 65L308 65L308 75Q301 74 300 74L300 74Q297 74 296 75Q294 76 294 77Q293 79 293 82L293 82Q293 85 294 87Q294 88 296 89Q297 90 300 90L300 90L308 89L308 99Q300 101 295 101L295 101ZM315 100L315 50L327 50L327 78L330 77L335 64L349 64L341 81L349 100L335 100L330 88L327 89L327 100L315 100Z"/></svg>