<svg xmlns="http://www.w3.org/2000/svg" viewBox="3.9600000000000004 48.736 456.76800000000003 52.056000000000004"><path d="M23 101Q15 101 11 98Q7 95 6 90Q4 84 4 75L4 75Q4 66 6 61Q7 55 11 52Q15 50 22 50L22 50Q28 50 36 51L36 51L36 57Q29 56 24 56L24 56Q18 56 16 58Q13 60 12 64Q11 68 11 76L11 76Q11 83 12 87Q13 91 16 93Q19 95 24 95L24 95Q29 95 36 93L36 93L36 99Q28 101 23 101L23 101ZM52 101Q47 101 44 98Q42 95 42 90L42 90Q42 84 45 82Q47 79 53 79L53 79L64 78L64 75Q64 72 62 70Q61 69 58 69L58 69Q52 69 44 70L44 70L44 65Q52 63 58 63L58 63Q64 63 67 66Q70 69 70 75L70 75L70 92Q70 94 71 95Q72 95 74 96L74 96L74 101Q70 101 68 100Q66 99 65 98L65 98Q58 101 52 101L52 101ZM53 95Q58 95 62 94L62 94L64 93L64 83L54 84Q51 84 50 85Q49 87 49 89L49 89Q49 95 53 95L53 95ZM80 100L80 100ZM80 100L80 64L87 64L87 100L80 100ZM80 57L80 50L87 50L87 57L80 57ZM97 100L97 64L104 64L104 69Q110 64 116 63L116 63L116 70Q113 71 110 72Q107 73 105 74L105 74L104 74L104 100L97 100ZM136 101Q128 101 124 96Q120 92 120 82L120 82Q120 72 124 68Q128 63 136 63L136 63Q144 63 148 68Q152 72 152 82L152 82Q152 92 148 96Q145 101 136 101L136 101ZM136 95Q140 95 141 94Q143 93 144 90Q145 87 145 82L145 82Q145 77 144 74Q143 71 141 70Q139 69 136 69L136 69Q133 69 131 70Q129 71 128 74Q127 77 127 82L127 82Q127 87 128 90Q129 93 131 94Q133 95 136 95L136 95ZM188 101Q183 101 177 100L177 100L175 99L175 94Q184 95 187 95L187 95Q191 95 193 94Q195 92 195 90L195 90Q195 88 194 87Q193 86 192 86Q190 85 187 85L187 85L185 84Q181 84 179 83Q177 82 175 80Q174 78 174 74L174 74Q174 63 188 63L188 63Q192 63 198 64L198 64L201 65L200 70Q192 69 188 69L188 69Q181 69 181 74L181 74Q181 75 182 76Q183 77 184 78Q185 78 188 79L188 79Q189 79 190 79L190 79Q194 80 197 81Q199 82 200 84Q202 86 202 89L202 89Q202 95 198 98Q195 101 188 101L188 101ZM223 101Q215 101 211 97Q208 92 208 83L208 83Q208 73 212 68Q215 63 223 63L223 63Q238 63 238 80L238 80L238 85L215 85Q215 89 216 91Q217 93 219 94Q221 95 225 95L225 95Q227 95 230 95Q232 95 235 94L235 94L237 94L237 99Q228 101 223 101L223 101ZM215 80L231 80Q231 74 230 71Q228 69 223 69L223 69Q219 69 217 71Q215 74 215 80L215 80ZM246 100L246 64L253 64L253 66Q255 65 258 64Q260 63 263 63L263 63Q266 63 268 64Q270 65 272 67L272 67Q275 65 278 64Q282 63 285 63L285 63Q290 63 292 65Q295 67 296 71Q297 74 297 81L297 81L297 100L290 100L290 81Q290 76 289 74Q289 71 288 70Q286 69 283 69L283 69Q281 69 279 70Q277 70 275 71L275 71L274 71Q275 75 275 81L275 81L275 100L268 100L268 81Q268 77 268 74Q267 71 266 70Q264 69 262 69L262 69Q260 69 257 70Q255 70 254 71L254 71L253 71L253 100L246 100ZM306 100L306 100ZM306 100L306 64L313 64L313 100L306 100ZM306 57L306 50L313 50L313 57L306 57ZM351 101Q346 101 341 100L341 100L339 100L339 49L345 49L345 66Q348 64 350 64Q353 63 356 63L356 63Q360 63 363 65Q366 67 367 71Q369 75 369 82L369 82Q369 89 367 93Q365 97 362 99Q358 101 351 101L351 101ZM352 95Q356 95 358 93Q360 92 361 89Q362 87 362 82L362 82Q362 77 361 74Q360 72 359 70Q357 69 354 69L354 69Q350 69 345 71L345 71L345 94Q350 95 352 95L352 95ZM391 101Q383 101 379 96Q375 92 375 82L375 82Q375 72 379 68Q383 63 391 63L391 63Q399 63 403 68Q407 72 407 82L407 82Q407 92 403 96Q400 101 391 101L391 101ZM391 95Q395 95 396 94Q398 93 399 90Q400 87 400 82L400 82Q400 77 399 74Q398 71 396 70Q394 69 391 69L391 69Q388 69 386 70Q384 71 383 74Q382 77 382 82L382 82Q382 87 383 90Q384 93 386 94Q388 95 391 95L391 95ZM416 100L416 49L422 49L422 100L416 100ZM444 101Q437 101 434 96Q430 92 430 83L430 83Q430 72 434 68Q438 63 446 63L446 63Q449 63 454 64L454 64L454 49L461 49L461 100L454 100L454 98Q448 101 444 101L444 101ZM445 95Q447 95 449 94Q451 94 453 93L453 93L454 93L454 70Q450 69 446 69L446 69Q441 69 439 72Q437 75 437 82L437 82Q437 89 439 92Q441 95 445 95L445 95Z"/></svg>