<svg xmlns="http://www.w3.org/2000/svg" viewBox="3.4560000000000004 49.16799999999999 609.5520000000002 67.39200000000001"><path d="M37.87 52.70Q36.07 51.47 32.36 50.75Q28.66 50.03 25.99 50.03L25.99 50.03Q19.15 50.03 14.04 53.45Q8.93 56.87 6.19 62.74Q3.46 68.61 3.46 75.81L3.46 75.81Q3.46 82.72 5.94 88.44Q8.42 94.17 13.39 97.59Q18.36 101.01 25.56 101.01L25.56 101.01Q28.58 101.01 32.22 100.22Q35.86 99.42 37.87 98.34L37.87 98.34L36.14 95.32Q33.84 96.33 31.36 96.90Q28.87 97.48 25.34 97.48L25.34 97.48Q19.94 97.48 15.95 94.53Q11.95 91.58 9.86 86.64Q7.78 81.71 7.78 75.74L7.78 75.74Q7.78 69.26 10.15 64.22Q12.53 59.18 16.70 56.33Q20.88 53.49 25.99 53.49L25.99 53.49Q29.52 53.49 31.61 53.99Q33.70 54.50 36.43 55.65L36.43 55.65L37.87 52.70ZM47.38 69.90Q50.04 68.61 52.09 68.03Q54.14 67.46 57.38 67.46L57.38 67.46Q61.49 67.46 63.61 69.72Q65.74 71.99 65.74 75.81L65.74 75.81L65.74 79.77L56.02 79.77Q50.47 79.77 47.02 82.54Q43.56 85.31 43.56 90.21L43.56 90.21Q43.56 94.96 46.58 97.95Q49.61 100.94 55.30 100.94L55.30 100.94Q58.32 100.94 61.24 99.60Q64.15 98.27 65.95 96.26L65.95 96.26L66.53 100L69.70 100L69.70 75.52Q69.70 70.34 66.38 67.24Q63.07 64.14 57.17 64.14L57.17 64.14Q54.79 64.14 51.34 65.01Q47.88 65.87 46.01 67.17L46.01 67.17L47.38 69.90ZM47.59 90.21Q47.59 86.90 49.79 84.74Q51.98 82.58 56.09 82.58L56.09 82.58L65.74 82.58L65.74 91.86Q63.86 94.46 61.20 96.04Q58.54 97.62 55.37 97.62L55.37 97.62Q51.70 97.62 49.64 95.46Q47.59 93.30 47.59 90.21L47.59 90.21ZM91.15 66.02L84.82 66.02L84.82 55.14L80.86 56.73L80.86 66.02L75.67 66.02L75.67 68.97L80.86 68.97L80.86 91.65Q80.86 96.11 82.98 98.52Q85.10 100.94 88.78 100.94L88.78 100.94Q90.14 100.94 91.58 100.58L91.58 100.58Q93.31 100.07 93.53 100.07L93.53 100.07L92.66 96.90Q91.15 97.55 89.71 97.55L89.71 97.55Q87.19 97.55 86.00 95.75Q84.82 93.95 84.82 91.14L84.82 91.14L84.82 68.97L92.66 68.97L91.15 66.02ZM103.10 69.90Q105.77 68.61 107.82 68.03Q109.87 67.46 113.11 67.46L113.11 67.46Q117.22 67.46 119.34 69.72Q121.46 71.99 121.46 75.81L121.46 75.81L121.46 79.77L111.74 79.77Q106.20 79.77 102.74 82.54Q99.29 85.31 99.29 90.21L99.29 90.21Q99.29 94.96 102.31 97.95Q105.34 100.94 111.02 100.94L111.02 100.94Q114.05 100.94 116.96 99.60Q119.88 98.27 121.68 96.26L121.68 96.26L122.26 100L125.42 100L125.42 75.52Q125.42 70.34 122.11 67.24Q118.80 64.14 112.90 64.14L112.90 64.14Q110.52 64.14 107.06 65.01Q103.61 65.87 101.74 67.17L101.74 67.17L103.10 69.90ZM103.32 90.21Q103.32 86.90 105.52 84.74Q107.71 82.58 111.82 82.58L111.82 82.58L121.46 82.58L121.46 91.86Q119.59 94.46 116.93 96.04Q114.26 97.62 111.10 97.62L111.10 97.62Q107.42 97.62 105.37 95.46Q103.32 93.30 103.32 90.21L103.32 90.21ZM172.08 64.14Q177.19 64.14 179.57 67.24Q181.94 70.34 181.94 75.74L181.94 75.74L181.94 100L177.98 100L177.98 76.17Q177.98 72.06 176.69 69.80Q175.39 67.53 172.01 67.53L172.01 67.53Q169.56 67.53 166.46 69.29Q163.37 71.06 160.63 73.94L160.63 73.94Q160.70 74.51 160.70 75.74L160.70 75.74L160.70 100L156.74 100L156.74 76.17Q156.74 72.06 155.48 69.80Q154.22 67.53 150.84 67.53L150.84 67.53Q148.25 67.53 144.97 69.47Q141.70 71.42 138.89 74.58L138.89 74.58L138.89 100L134.93 100L134.93 65.08L138.10 65.08L138.82 70.48Q141.05 67.89 144.58 66.02Q148.10 64.14 150.91 64.14L150.91 64.14Q158.11 64.14 159.98 70.48L159.98 70.48Q162.22 67.89 165.74 66.02Q169.27 64.14 172.08 64.14L172.08 64.14ZM194.04 69.90Q196.70 68.61 198.76 68.03Q200.81 67.46 204.05 67.46L204.05 67.46Q208.15 67.46 210.28 69.72Q212.40 71.99 212.40 75.81L212.40 75.81L212.40 79.77L202.68 79.77Q197.14 79.77 193.68 82.54Q190.22 85.31 190.22 90.21L190.22 90.21Q190.22 94.96 193.25 97.95Q196.27 100.94 201.96 100.94L201.96 100.94Q204.98 100.94 207.90 99.60Q210.82 98.27 212.62 96.26L212.62 96.26L213.19 100L216.36 100L216.36 75.52Q216.36 70.34 213.05 67.24Q209.74 64.14 203.83 64.14L203.83 64.14Q201.46 64.14 198.00 65.01Q194.54 65.87 192.67 67.17L192.67 67.17L194.04 69.90ZM194.26 90.21Q194.26 86.90 196.45 84.74Q198.65 82.58 202.75 82.58L202.75 82.58L212.40 82.58L212.40 91.86Q210.53 94.46 207.86 96.04Q205.20 97.62 202.03 97.62L202.03 97.62Q198.36 97.62 196.31 95.46Q194.26 93.30 194.26 90.21L194.26 90.21ZM229.82 100L229.82 74.66Q232.06 72.21 235.62 70.19Q239.18 68.18 242.28 68.18L242.28 68.18L241.06 65.08Q238.61 65.08 235.33 66.84Q232.06 68.61 229.61 70.62L229.61 70.62L228.31 65.08L225.86 65.08L225.86 100L229.82 100ZM250.56 69.90Q253.22 68.61 255.28 68.03Q257.33 67.46 260.57 67.46L260.57 67.46Q264.67 67.46 266.80 69.72Q268.92 71.99 268.92 75.81L268.92 75.81L268.92 79.77L259.20 79.77Q253.66 79.77 250.20 82.54Q246.74 85.31 246.74 90.21L246.74 90.21Q246.74 94.96 249.77 97.95Q252.79 100.94 258.48 100.94L258.48 100.94Q261.50 100.94 264.42 99.60Q267.34 98.27 269.14 96.26L269.14 96.26L269.71 100L272.88 100L272.88 75.52Q272.88 70.34 269.57 67.24Q266.26 64.14 260.35 64.14L260.35 64.14Q257.98 64.14 254.52 65.01Q251.06 65.87 249.19 67.17L249.19 67.17L250.56 69.90ZM250.78 90.21Q250.78 86.90 252.97 84.74Q255.17 82.58 259.27 82.58L259.27 82.58L268.92 82.58L268.92 91.86Q267.05 94.46 264.38 96.04Q261.72 97.62 258.55 97.62L258.55 97.62Q254.88 97.62 252.83 95.46Q250.78 93.30 250.78 90.21L250.78 90.21ZM286.34 100L286.34 74.58Q289.15 71.42 292.54 69.47Q295.92 67.53 298.80 67.53L298.80 67.53Q305.50 67.53 305.50 76.17L305.50 76.17L305.50 100L309.46 100L309.46 75.74Q309.46 70.41 306.86 67.28Q304.27 64.14 298.87 64.14L298.87 64.14Q295.70 64.14 292.10 65.98Q288.50 67.82 286.27 70.48L286.27 70.48L285.55 65.08L282.38 65.08L282.38 100L286.34 100ZM363.38 82.65Q363.38 74.37 359.71 69.26Q356.04 64.14 349.34 64.14L349.34 64.14Q341.86 64.14 337.86 69.18Q333.86 74.22 333.86 82.36L333.86 82.36Q333.86 90.93 338.11 95.93Q342.36 100.94 350.93 100.94L350.93 100.94Q353.95 100.94 357.08 100.11Q360.22 99.28 362.59 97.91L362.59 97.91L361.15 94.96Q358.56 96.26 356.11 96.98Q353.66 97.70 350.50 97.70L350.50 97.70Q344.16 97.70 341.06 93.56Q337.97 89.42 337.90 82.65L337.90 82.65L363.38 82.65ZM338.04 79.84Q338.54 74.37 341.32 70.91Q344.09 67.46 348.98 67.46L348.98 67.46Q353.88 67.46 356.33 70.84Q358.78 74.22 359.28 79.84L359.28 79.84L338.04 79.84ZM366.84 100L371.30 100L380.59 85.38L390.02 100L394.42 100L383.62 83.30L395.35 65.08L391.03 65.08L381.53 80.34L371.66 64.43L368.14 66.02L378.50 82.43L366.84 100ZM412.92 66.02L406.58 66.02L406.58 55.14L402.62 56.73L402.62 66.02L397.44 66.02L397.44 68.97L402.62 68.97L402.62 91.65Q402.62 96.11 404.75 98.52Q406.87 100.94 410.54 100.94L410.54 100.94Q411.91 100.94 413.35 100.58L413.35 100.58Q415.08 100.07 415.30 100.07L415.30 100.07L414.43 96.90Q412.92 97.55 411.48 97.55L411.48 97.55Q408.96 97.55 407.77 95.75Q406.58 93.95 406.58 91.14L406.58 91.14L406.58 68.97L414.43 68.97L412.92 66.02ZM426.17 100L426.17 74.66Q428.40 72.21 431.96 70.19Q435.53 68.18 438.62 68.18L438.62 68.18L437.40 65.08Q434.95 65.08 431.68 66.84Q428.40 68.61 425.95 70.62L425.95 70.62L424.66 65.08L422.21 65.08L422.21 100L426.17 100ZM446.90 69.90Q449.57 68.61 451.62 68.03Q453.67 67.46 456.91 67.46L456.91 67.46Q461.02 67.46 463.14 69.72Q465.26 71.99 465.26 75.81L465.26 75.81L465.26 79.77L455.54 79.77Q450.00 79.77 446.54 82.54Q443.09 85.31 443.09 90.21L443.09 90.21Q443.09 94.96 446.11 97.95Q449.14 100.94 454.82 100.94L454.82 100.94Q457.85 100.94 460.76 99.60Q463.68 98.27 465.48 96.26L465.48 96.26L466.06 100L469.22 100L469.22 75.52Q469.22 70.34 465.91 67.24Q462.60 64.14 456.70 64.14L456.70 64.14Q454.32 64.14 450.86 65.01Q447.41 65.87 445.54 67.17L445.54 67.17L446.90 69.90ZM447.12 90.21Q447.12 86.90 449.32 84.74Q451.51 82.58 455.62 82.58L455.62 82.58L465.26 82.58L465.26 91.86Q463.39 94.46 460.73 96.04Q458.06 97.62 454.90 97.62L454.90 97.62Q451.22 97.62 449.17 95.46Q447.12 93.30 447.12 90.21L447.12 90.21ZM496.58 100L500.54 100L500.54 49.17L496.58 49.89L496.58 100ZM512.93 57.09Q514.22 57.09 515.12 56.22Q516.02 55.36 516.02 54.06L516.02 54.06Q516.02 52.77 515.12 51.90Q514.22 51.04 512.93 51.04L512.93 51.04Q511.56 51.04 510.73 51.90Q509.90 52.77 509.90 54.06L509.90 54.06Q509.90 55.36 510.73 56.22Q511.56 57.09 512.93 57.09L512.93 57.09ZM510.98 100L514.94 100L514.94 65.08L510.98 65.08L510.98 100ZM548.86 65.08L551.23 65.08L551.23 104.46Q551.23 109.79 547.45 113.18Q543.67 116.56 536.98 116.56L536.98 116.56Q534.60 116.56 530.82 115.70Q527.04 114.83 525.10 113.61L525.10 113.61L526.46 110.73Q529.06 111.95 531.36 112.56Q533.66 113.18 536.83 113.25L536.83 113.25Q541.44 113.25 544.36 111.09Q547.27 108.93 547.27 104.82L547.27 104.82L547.27 97.48Q543.10 100.94 537.98 100.94L537.98 100.94Q530.50 100.94 526.54 95.90Q522.58 90.86 522.58 82.43L522.58 82.43Q522.58 77.18 524.41 73.04Q526.25 68.90 529.81 66.52Q533.38 64.14 538.42 64.14L538.42 64.14Q543.02 64.14 547.92 67.89L547.92 67.89L548.86 65.08ZM537.98 97.62Q540.94 97.62 543.10 96.51Q545.26 95.39 547.27 93.30L547.27 93.30L547.27 71.20Q545.26 69.47 543.13 68.46Q541.01 67.46 538.20 67.46L538.20 67.46Q532.66 67.46 529.67 71.67Q526.68 75.88 526.61 82.36L526.61 82.36Q526.61 89.13 529.49 93.38Q532.37 97.62 537.98 97.62L537.98 97.62ZM578.66 64.14Q584.06 64.14 586.66 67.28Q589.25 70.41 589.25 75.74L589.25 75.74L589.25 100L585.29 100L585.29 76.17Q585.29 67.53 578.59 67.53L578.59 67.53Q575.71 67.53 572.33 69.47Q568.94 71.42 566.14 74.58L566.14 74.58L566.14 100L562.18 100L562.18 49.89L566.14 49.17L566.14 70.41Q568.37 67.74 571.93 65.94Q575.50 64.14 578.66 64.14L578.66 64.14ZM610.63 66.02L604.30 66.02L604.30 55.14L600.34 56.73L600.34 66.02L595.15 66.02L595.15 68.97L600.34 68.97L600.34 91.65Q600.34 96.11 602.46 98.52Q604.58 100.94 608.26 100.94L608.26 100.94Q609.62 100.94 611.06 100.58L611.06 100.58Q612.79 100.07 613.01 100.07L613.01 100.07L612.14 96.90Q610.63 97.55 609.19 97.55L609.19 97.55Q606.67 97.55 605.48 95.75Q604.30 93.95 604.30 91.14L604.30 91.14L604.30 68.97L612.14 68.97L610.63 66.02Z"/></svg>