<svg xmlns="http://www.w3.org/2000/svg" viewBox="3.0960000000000005 49.16799999999999 546.768 67.39200000000001"><path d="M38 53Q36 52 33 51Q29 50 26 50L26 50Q19 50 14 53Q9 57 6 63Q3 69 3 76L3 76Q3 83 6 88Q8 94 13 98Q19 101 26 101L26 101Q29 101 33 100Q36 99 38 98L38 98L36 94Q34 95 32 95Q29 96 25 96L25 96Q20 96 17 93Q13 91 11 86Q9 81 9 76L9 76Q9 70 11 65Q14 60 17 58Q21 55 26 55L26 55Q30 55 32 55Q34 56 37 57L37 57L38 53ZM48 71Q50 70 52 70Q55 69 58 69L58 69Q62 69 63 71Q65 74 65 77L65 77L65 79L56 79Q51 79 47 82Q44 85 44 90L44 90Q44 95 47 98Q50 101 56 101L56 101Q58 101 61 100Q64 98 66 96L66 96L67 100L71 100L71 76Q71 72 69 70Q68 67 65 66Q61 64 57 64L57 64Q55 64 51 65Q48 66 46 67L46 67L48 71ZM49 90Q49 87 51 85Q53 83 56 83L56 83L65 83L65 91Q63 93 61 95Q58 96 56 96L56 96Q52 96 51 94Q49 93 49 90L49 90ZM94 66L87 66L87 55L82 57L82 66L76 66L76 70L82 70L82 91Q82 96 84 98Q87 101 91 101L91 101Q94 101 97 100L97 100L95 95Q94 96 92 96L92 96Q90 96 88 95Q87 93 87 90L87 90L87 70L95 70L94 66ZM106 71Q108 70 111 70Q113 69 116 69L116 69Q120 69 122 71Q123 74 123 77L123 77L123 79L114 79Q109 79 105 82Q102 85 102 90L102 90Q102 95 105 98Q108 101 114 101L114 101Q117 101 119 100Q122 98 124 96L124 96L125 100L129 100L129 76Q129 72 128 70Q126 67 123 66Q120 64 116 64L116 64Q113 64 110 65Q106 66 104 67L104 67L106 71ZM107 90Q107 87 109 85Q111 83 114 83L114 83L124 83L124 91Q122 93 119 95Q116 96 114 96L114 96Q110 96 109 94Q107 93 107 90L107 90ZM178 64Q183 64 186 67Q188 71 188 76L188 76L188 100L182 100L182 77Q182 73 181 71Q180 69 177 69L177 69Q174 69 172 71Q169 72 166 75L166 75Q166 75 166 76L166 76L166 100L160 100L160 77Q160 73 159 71Q158 69 155 69L155 69Q152 69 149 71Q146 72 144 75L144 75L144 100L138 100L138 65L142 65L143 70Q146 67 149 66Q153 64 156 64L156 64Q159 64 162 66Q164 67 165 70L165 70Q168 67 171 66Q175 64 178 64L178 64ZM200 71Q202 70 205 70Q207 69 210 69L210 69Q214 69 216 71Q218 74 218 77L218 77L218 79L209 79Q203 79 199 82Q196 85 196 90L196 90Q196 95 199 98Q202 101 208 101L208 101Q211 101 213 100Q216 98 218 96L218 96L219 100L223 100L223 76Q223 72 222 70Q220 67 217 66Q214 64 210 64L210 64Q207 64 204 65Q200 66 198 67L198 67L200 71ZM201 90Q201 87 203 85Q205 83 208 83L208 83L218 83L218 91Q216 93 213 95Q211 96 208 96L208 96Q204 96 203 94Q201 93 201 90L201 90ZM238 100L238 76Q240 73 244 72Q247 70 250 70L250 70L249 65Q246 65 243 67Q240 69 237 71L237 71L235 65L232 65L232 100L238 100ZM258 71Q261 70 263 70Q265 69 268 69L268 69Q272 69 274 71Q276 74 276 77L276 77L276 79L267 79Q261 79 258 82Q254 85 254 90L254 90Q254 95 257 98Q260 101 266 101L266 101Q269 101 272 100Q275 98 277 96L277 96L277 100L282 100L282 76Q282 72 280 70Q278 67 275 66Q272 64 268 64L268 64Q266 64 262 65Q258 66 257 67L257 67L258 71ZM260 90Q260 87 262 85Q263 83 267 83L267 83L276 83L276 91Q274 93 272 95Q269 96 266 96L266 96Q263 96 261 94Q260 93 260 90L260 90ZM296 100L296 75Q299 72 302 71Q305 69 308 69L308 69Q311 69 313 71Q314 73 314 77L314 77L314 100L320 100L320 76Q320 71 317 67Q314 64 309 64L309 64Q305 64 302 66Q298 67 296 70L296 70L295 65L290 65L290 100L296 100ZM351 100L351 76Q353 73 357 72Q361 70 363 70L363 70L362 65Q359 65 356 67Q353 69 350 71L350 71L349 65L345 65L345 100L351 100ZM398 83Q398 75 394 69Q390 64 383 64L383 64Q378 64 374 66Q370 69 368 73Q366 77 366 82L366 82Q366 91 371 96Q376 101 385 101L385 101Q388 101 391 100Q394 99 397 97L397 97L395 93Q392 95 390 95Q388 96 385 96L385 96Q379 96 376 93Q373 89 372 83L372 83L398 83ZM372 80Q373 75 376 72Q378 69 383 69L383 69Q391 69 392 80L392 80L372 80ZM430 65L433 65L433 104Q433 107 431 110Q429 113 426 115Q422 117 417 117L417 117Q415 117 411 116Q407 115 405 113L405 113L407 109Q410 111 412 111Q414 112 417 112L417 112Q422 112 424 110Q427 108 427 104L427 104L427 98Q425 99 423 100Q421 101 419 101L419 101Q411 101 407 96Q402 91 402 82L402 82Q402 77 404 73Q407 69 410 66Q414 64 419 64L419 64Q421 64 424 65Q426 66 428 68L428 68L430 65ZM419 96Q422 96 424 95Q426 94 427 93L427 93L427 72Q424 69 419 69L419 69Q414 69 411 73Q408 76 408 82L408 82Q408 89 411 92Q414 96 419 96L419 96ZM466 65L466 90Q463 93 460 94Q457 96 454 96L454 96Q451 96 449 94Q448 92 448 88L448 88L448 65L442 65L442 89Q442 94 445 98Q448 101 453 101L453 101Q456 101 460 99Q464 98 466 95L466 95L467 100L471 100L471 65L466 65ZM481 100L487 100L487 49L481 50L481 100ZM500 71Q502 70 504 70Q507 69 510 69L510 69Q514 69 515 71Q517 74 517 77L517 77L517 79L508 79Q503 79 499 82Q496 85 496 90L496 90Q496 95 499 98Q502 101 508 101L508 101Q510 101 513 100Q516 98 518 96L518 96L519 100L523 100L523 76Q523 72 521 70Q520 67 517 66Q513 64 509 64L509 64Q507 64 503 65Q500 66 498 67L498 67L500 71ZM501 90Q501 87 503 85Q505 83 508 83L508 83L517 83L517 91Q515 93 513 95Q510 96 508 96L508 96Q504 96 503 94Q501 93 501 90L501 90ZM537 100L537 76Q540 73 543 72Q547 70 550 70L550 70L548 65Q546 65 543 67Q539 69 537 71L537 71L535 65L532 65L532 100L537 100Z"/></svg>