<svg xmlns="http://www.w3.org/2000/svg" viewBox="2.8800000000000003 49.239999999999995 591.624 51.98400000000001"><path d="M38.59 52.98Q36.22 51.54 32.47 50.79Q28.73 50.03 26.14 50.03L26.14 50.03Q19.15 50.03 13.86 53.38Q8.57 56.73 5.72 62.60Q2.88 68.46 2.88 75.81L2.88 75.81Q2.88 82.86 5.51 88.59Q8.14 94.31 13.28 97.66Q18.43 101.01 25.70 101.01L25.70 101.01Q28.80 101.01 32.62 100.18Q36.43 99.35 38.81 98.13L38.81 98.13L36.14 92.94Q31.46 95.10 25.42 95.10L25.42 95.10Q20.74 95.10 17.24 92.51Q13.75 89.92 11.92 85.49Q10.08 81.06 10.08 75.74L10.08 75.74Q10.08 69.98 12.17 65.44Q14.26 60.90 17.89 58.42Q21.53 55.94 25.99 55.94L25.99 55.94Q29.16 55.94 31.18 56.37Q33.19 56.80 36.43 57.95L36.43 57.95L38.59 52.98ZM47.66 72.71Q52.99 70.34 57.74 70.34L57.74 70.34Q61.63 70.34 63.18 72.60Q64.73 74.87 64.73 79.12L64.73 79.12L56.45 79.12Q50.62 79.12 47.12 81.96Q43.63 84.81 43.63 89.92L43.63 89.92Q43.63 94.89 46.73 97.88Q49.82 100.86 55.80 100.86L55.80 100.86Q58.46 100.86 61.27 99.64Q64.08 98.42 66.02 96.69L66.02 96.69L66.89 100L71.71 100L71.71 76.31Q71.71 73 69.88 70.19Q68.04 67.38 64.80 65.76Q61.56 64.14 57.60 64.14L57.60 64.14Q55.15 64.14 51.37 65.04Q47.59 65.94 45.72 67.24L45.72 67.24L47.66 72.71ZM49.82 89.92Q49.82 87.33 51.55 85.53Q53.28 83.73 56.30 83.73L56.30 83.73L64.80 83.73L64.80 90.78Q62.93 92.87 60.55 94.13Q58.18 95.39 55.66 95.39L55.66 95.39Q52.85 95.39 51.34 93.77Q49.82 92.15 49.82 89.92L49.82 89.92ZM95.04 65.51L88.70 65.51L88.70 55.22L81.79 56.80L81.79 65.51L76.82 65.51L76.90 70.77L81.79 70.77L81.79 90.28Q81.79 95.54 84.78 98.38Q87.77 101.22 92.95 101.22L92.95 101.22Q94.39 101.22 96.08 100.76Q97.78 100.29 98.86 99.71L98.86 99.71L97.06 94.46Q94.97 95.25 93.67 95.25L93.67 95.25Q91.15 95.25 89.93 93.63Q88.70 92.01 88.70 89.20L88.70 89.20L88.70 70.77L97.20 70.77L95.04 65.51ZM107.71 72.71Q113.04 70.34 117.79 70.34L117.79 70.34Q121.68 70.34 123.23 72.60Q124.78 74.87 124.78 79.12L124.78 79.12L116.50 79.12Q110.66 79.12 107.17 81.96Q103.68 84.81 103.68 89.92L103.68 89.92Q103.68 94.89 106.78 97.88Q109.87 100.86 115.85 100.86L115.85 100.86Q118.51 100.86 121.32 99.64Q124.13 98.42 126.07 96.69L126.07 96.69L126.94 100L131.76 100L131.76 76.31Q131.76 73 129.92 70.19Q128.09 67.38 124.85 65.76Q121.61 64.14 117.65 64.14L117.65 64.14Q115.20 64.14 111.42 65.04Q107.64 65.94 105.77 67.24L105.77 67.24L107.71 72.71ZM109.87 89.92Q109.87 87.33 111.60 85.53Q113.33 83.73 116.35 83.73L116.35 83.73L124.85 83.73L124.85 90.78Q122.98 92.87 120.60 94.13Q118.22 95.39 115.70 95.39L115.70 95.39Q112.90 95.39 111.38 93.77Q109.87 92.15 109.87 89.92L109.87 89.92ZM181.44 63.93Q186.91 63.93 189.65 67.49Q192.38 71.06 192.38 76.96L192.38 76.96L192.38 100L185.47 100L185.47 77.61Q185.47 73.86 184.21 71.85Q182.95 69.83 180 69.83L180 69.83Q177.91 69.83 175.25 71.24Q172.58 72.64 169.92 74.94L169.92 74.94Q169.99 75.59 169.99 76.96L169.99 76.96L169.99 100L163.08 100L163.08 77.61Q163.08 73.86 161.82 71.85Q160.56 69.83 157.61 69.83L157.61 69.83Q155.38 69.83 152.60 71.38Q149.83 72.93 147.02 75.38L147.02 75.38L147.02 100L140.11 100L140.11 65.08L144.94 65.08L146.16 69.69Q148.90 67.17 152.39 65.55Q155.88 63.93 159.05 63.93L159.05 63.93Q162.50 63.93 164.92 65.44Q167.33 66.95 168.55 69.69L168.55 69.69Q171.29 67.17 174.78 65.55Q178.27 63.93 181.44 63.93L181.44 63.93ZM203.83 72.71Q209.16 70.34 213.91 70.34L213.91 70.34Q217.80 70.34 219.35 72.60Q220.90 74.87 220.90 79.12L220.90 79.12L212.62 79.12Q206.78 79.12 203.29 81.96Q199.80 84.81 199.80 89.92L199.80 89.92Q199.80 94.89 202.90 97.88Q205.99 100.86 211.97 100.86L211.97 100.86Q214.63 100.86 217.44 99.64Q220.25 98.42 222.19 96.69L222.19 96.69L223.06 100L227.88 100L227.88 76.31Q227.88 73 226.04 70.19Q224.21 67.38 220.97 65.76Q217.73 64.14 213.77 64.14L213.77 64.14Q211.32 64.14 207.54 65.04Q203.76 65.94 201.89 67.24L201.89 67.24L203.83 72.71ZM205.99 89.92Q205.99 87.33 207.72 85.53Q209.45 83.73 212.47 83.73L212.47 83.73L220.97 83.73L220.97 90.78Q219.10 92.87 216.72 94.13Q214.34 95.39 211.82 95.39L211.82 95.39Q209.02 95.39 207.50 93.77Q205.99 92.15 205.99 89.92L205.99 89.92ZM243.14 100L243.14 76.89Q245.88 74.30 249.34 72.46Q252.79 70.62 255.53 70.62L255.53 70.62L254.02 65.08Q251.50 65.08 248.15 66.88Q244.80 68.68 242.35 70.77L242.35 70.77L240.12 65.08L236.23 65.08L236.23 100L243.14 100ZM263.66 72.71Q268.99 70.34 273.74 70.34L273.74 70.34Q277.63 70.34 279.18 72.60Q280.73 74.87 280.73 79.12L280.73 79.12L272.45 79.12Q266.62 79.12 263.12 81.96Q259.63 84.81 259.63 89.92L259.63 89.92Q259.63 94.89 262.73 97.88Q265.82 100.86 271.80 100.86L271.80 100.86Q274.46 100.86 277.27 99.64Q280.08 98.42 282.02 96.69L282.02 96.69L282.89 100L287.71 100L287.71 76.31Q287.71 73 285.88 70.19Q284.04 67.38 280.80 65.76Q277.56 64.14 273.60 64.14L273.60 64.14Q271.15 64.14 267.37 65.04Q263.59 65.94 261.72 67.24L261.72 67.24L263.66 72.71ZM265.82 89.92Q265.82 87.33 267.55 85.53Q269.28 83.73 272.30 83.73L272.30 83.73L280.80 83.73L280.80 90.78Q278.93 92.87 276.55 94.13Q274.18 95.39 271.66 95.39L271.66 95.39Q268.85 95.39 267.34 93.77Q265.82 92.15 265.82 89.92L265.82 89.92ZM302.98 100L302.98 75.38Q305.78 72.93 308.66 71.38Q311.54 69.83 313.99 69.83L313.99 69.83Q317.23 69.83 318.49 71.81Q319.75 73.79 319.75 77.61L319.75 77.61L319.75 100L326.66 100L326.66 76.96Q326.66 70.98 323.89 67.46Q321.12 63.93 315.43 63.93L315.43 63.93Q311.98 63.93 308.45 65.55Q304.92 67.17 302.11 69.69L302.11 69.69L300.89 65.08L296.06 65.08L296.06 100L302.98 100ZM392.90 63.93Q398.38 63.93 401.11 67.49Q403.85 71.06 403.85 76.96L403.85 76.96L403.85 100L396.94 100L396.94 77.61Q396.94 73.86 395.68 71.85Q394.42 69.83 391.46 69.83L391.46 69.83Q389.38 69.83 386.71 71.24Q384.05 72.64 381.38 74.94L381.38 74.94Q381.46 75.59 381.46 76.96L381.46 76.96L381.46 100L374.54 100L374.54 77.61Q374.54 73.86 373.28 71.85Q372.02 69.83 369.07 69.83L369.07 69.83Q366.84 69.83 364.07 71.38Q361.30 72.93 358.49 75.38L358.49 75.38L358.49 100L351.58 100L351.58 65.08L356.40 65.08L357.62 69.69Q360.36 67.17 363.85 65.55Q367.34 63.93 370.51 63.93L370.51 63.93Q373.97 63.93 376.38 65.44Q378.79 66.95 380.02 69.69L380.02 69.69Q382.75 67.17 386.24 65.55Q389.74 63.93 392.90 63.93L392.90 63.93ZM442.01 84.09L442.01 82.22Q442.01 74.30 438.16 69.22Q434.30 64.14 426.74 64.14L426.74 64.14Q421.63 64.14 417.85 66.45Q414.07 68.75 412.06 72.93Q410.04 77.10 410.04 82.50L410.04 82.50Q410.04 90.93 414.94 95.90Q419.83 100.86 428.98 100.86L428.98 100.86Q435.31 100.86 441.65 97.05L441.65 97.05L439.49 92.01Q435.82 93.74 433.76 94.42Q431.71 95.10 428.98 95.10L428.98 95.10Q423.36 95.10 420.52 92.15Q417.67 89.20 417.24 84.09L417.24 84.09L442.01 84.09ZM417.38 79.41Q417.89 75.02 420.23 72.53Q422.57 70.05 426.53 70.05L426.53 70.05Q433.94 70.05 435.31 79.41L435.31 79.41L417.38 79.41ZM471.31 49.96L478.30 49.24L478.30 100L474.34 100L472.97 97.34Q470.81 99.06 468.18 100Q465.55 100.94 463.68 100.94L463.68 100.94Q458.35 100.94 454.43 98.63Q450.50 96.33 448.42 92.12Q446.33 87.90 446.33 82.29L446.33 82.29Q446.33 76.89 448.49 72.78Q450.65 68.68 454.61 66.41Q458.57 64.14 463.75 64.14L463.75 64.14Q465.26 64.14 467.32 64.72Q469.37 65.30 471.31 66.38L471.31 66.38L471.31 49.96ZM453.38 82.22Q453.38 87.98 456.08 91.50Q458.78 95.03 463.68 95.03L463.68 95.03Q466.06 95.03 467.86 94.31Q469.66 93.59 471.31 92.08L471.31 92.08L471.31 72.78Q469.66 71.34 467.82 70.70Q465.98 70.05 463.68 70.05L463.68 70.05Q458.86 70.05 456.12 73.47Q453.38 76.89 453.38 82.22L453.38 82.22ZM491.04 58.82Q492.84 58.82 494.14 57.56Q495.43 56.30 495.43 54.50L495.43 54.50Q495.43 52.70 494.14 51.44Q492.84 50.18 491.04 50.18L491.04 50.18Q489.24 50.18 488.02 51.44Q486.79 52.70 486.79 54.50L486.79 54.50Q486.79 56.30 488.02 57.56Q489.24 58.82 491.04 58.82L491.04 58.82ZM487.66 100L494.64 100L494.64 65.08L487.66 65.08L487.66 100ZM526.68 65.08L526.68 89.70Q523.87 92.15 520.99 93.70Q518.11 95.25 515.66 95.25L515.66 95.25Q512.42 95.25 511.16 93.27Q509.90 91.29 509.90 87.47L509.90 87.47L509.90 65.08L502.99 65.08L502.99 88.12Q502.99 94.10 505.76 97.62Q508.54 101.15 514.22 101.15L514.22 101.15Q517.68 101.15 521.21 99.53Q524.74 97.91 527.54 95.39L527.54 95.39L528.77 100L533.59 100L533.59 65.08L526.68 65.08ZM583.56 63.93Q589.03 63.93 591.77 67.49Q594.50 71.06 594.50 76.96L594.50 76.96L594.50 100L587.59 100L587.59 77.61Q587.59 73.86 586.33 71.85Q585.07 69.83 582.12 69.83L582.12 69.83Q580.03 69.83 577.37 71.24Q574.70 72.64 572.04 74.94L572.04 74.94Q572.11 75.59 572.11 76.96L572.11 76.96L572.11 100L565.20 100L565.20 77.61Q565.20 73.86 563.94 71.85Q562.68 69.83 559.73 69.83L559.73 69.83Q557.50 69.83 554.72 71.38Q551.95 72.93 549.14 75.38L549.14 75.38L549.14 100L542.23 100L542.23 65.08L547.06 65.08L548.28 69.69Q551.02 67.17 554.51 65.55Q558 63.93 561.17 63.93L561.17 63.93Q564.62 63.93 567.04 65.44Q569.45 66.95 570.67 69.69L570.67 69.69Q573.41 67.17 576.90 65.55Q580.39 63.93 583.56 63.93L583.56 63.93Z"/></svg>