<svg xmlns="http://www.w3.org/2000/svg" viewBox="2.3040000000000003 49.16799999999999 691.2720000000002 51.912000000000006"><path d="M40.39 53.70Q37.51 51.98 33.70 51.04Q29.88 50.10 26.71 50.10L26.71 50.10Q19.58 50.10 14.04 53.38Q8.50 56.66 5.40 62.49Q2.30 68.32 2.30 75.74L2.30 75.74Q2.30 83.01 5.18 88.73Q8.06 94.46 13.57 97.70Q19.08 100.94 26.71 100.94L26.71 100.94Q30.17 100.94 34.16 100.04Q38.16 99.14 40.90 97.55L40.90 97.55L36.65 89.20Q31.75 91.65 26.64 91.65L26.64 91.65Q23.04 91.65 20.16 89.60Q17.28 87.54 15.62 83.91Q13.97 80.27 13.97 75.66L13.97 75.66Q13.97 70.84 15.70 67.13Q17.42 63.42 20.34 61.41Q23.26 59.39 26.64 59.39L26.64 59.39Q29.30 59.39 31.21 59.82Q33.12 60.26 37.01 61.48L37.01 61.48L40.39 53.70ZM48.89 75.88Q50.90 74.94 53.57 74.30Q56.23 73.65 58.32 73.65L58.32 73.65Q60.55 73.65 61.88 74.91Q63.22 76.17 63.36 78.47L63.36 78.47L57.89 78.47Q51.62 78.47 48.02 81.14Q44.42 83.80 44.42 89.13L44.42 89.13Q44.42 94.53 47.66 97.66Q50.90 100.79 57.24 100.79L57.24 100.79Q61.92 100.79 65.81 96.33L65.81 96.33L68.47 100L74.74 100L74.74 77.75Q74.74 73.72 72.90 70.59Q71.06 67.46 67.68 65.73Q64.30 64.00 59.90 64.00L59.90 64.00Q56.59 64.00 52.42 64.97Q48.24 65.94 45.86 67.24L45.86 67.24L48.89 75.88ZM53.93 89.06Q53.93 87.40 55.04 86.32Q56.16 85.24 57.96 85.24L57.96 85.24L63.43 85.24L63.43 89.49Q60.48 92.22 57.31 92.22L57.31 92.22Q55.80 92.22 54.86 91.29Q53.93 90.35 53.93 89.06L53.93 89.06ZM102.96 65.87L95.18 65.87L95.18 55.29L83.95 57.02L83.95 65.87L78.91 65.87L78.91 74.66L83.95 74.66L83.95 87.83Q83.95 94.17 88.20 97.62Q92.45 101.08 99.07 101.08L99.07 101.08Q101.23 101.08 103.75 100.29Q106.27 99.50 107.50 98.49L107.50 98.49L104.26 90.64Q102.02 91.79 99.79 91.79L99.79 91.79Q97.63 91.79 96.41 90.28Q95.18 88.77 95.18 86.32L95.18 86.32L95.18 74.66L104.98 74.66L102.96 65.87ZM115.49 75.88Q117.50 74.94 120.17 74.30Q122.83 73.65 124.92 73.65L124.92 73.65Q127.15 73.65 128.48 74.91Q129.82 76.17 129.96 78.47L129.96 78.47L124.49 78.47Q118.22 78.47 114.62 81.14Q111.02 83.80 111.02 89.13L111.02 89.13Q111.02 94.53 114.26 97.66Q117.50 100.79 123.84 100.79L123.84 100.79Q128.52 100.79 132.41 96.33L132.41 96.33L135.07 100L141.34 100L141.34 77.75Q141.34 73.72 139.50 70.59Q137.66 67.46 134.28 65.73Q130.90 64.00 126.50 64.00L126.50 64.00Q123.19 64.00 119.02 64.97Q114.84 65.94 112.46 67.24L112.46 67.24L115.49 75.88ZM120.53 89.06Q120.53 87.40 121.64 86.32Q122.76 85.24 124.56 85.24L124.56 85.24L130.03 85.24L130.03 89.49Q127.08 92.22 123.91 92.22L123.91 92.22Q122.40 92.22 121.46 91.29Q120.53 90.35 120.53 89.06L120.53 89.06ZM193.54 63.93Q199.80 63.93 202.54 67.35Q205.27 70.77 205.27 77.10L205.27 77.10L205.27 100L194.04 100L194.04 78.62Q194.04 75.95 193.21 74.55Q192.38 73.14 190.15 73.14L190.15 73.14Q188.64 73.14 186.77 73.97Q184.90 74.80 182.59 76.17L182.59 76.17L182.59 77.10L182.59 100L171.36 100L171.36 78.62Q171.36 75.95 170.53 74.55Q169.70 73.14 167.47 73.14L167.47 73.14Q165.96 73.14 164.05 73.97Q162.14 74.80 159.84 76.17L159.84 76.17L159.84 100L148.54 100L148.54 65.08L155.52 65.08L157.46 68.75Q160.63 66.59 164.16 65.26Q167.69 63.93 170.78 63.93L170.78 63.93Q177.84 63.93 180.65 68.46L180.65 68.46Q183.74 66.45 187.13 65.19Q190.51 63.93 193.54 63.93L193.54 63.93ZM215.93 75.88Q217.94 74.94 220.61 74.30Q223.27 73.65 225.36 73.65L225.36 73.65Q227.59 73.65 228.92 74.91Q230.26 76.17 230.40 78.47L230.40 78.47L224.93 78.47Q218.66 78.47 215.06 81.14Q211.46 83.80 211.46 89.13L211.46 89.13Q211.46 94.53 214.70 97.66Q217.94 100.79 224.28 100.79L224.28 100.79Q228.96 100.79 232.85 96.33L232.85 96.33L235.51 100L241.78 100L241.78 77.75Q241.78 73.72 239.94 70.59Q238.10 67.46 234.72 65.73Q231.34 64.00 226.94 64.00L226.94 64.00Q223.63 64.00 219.46 64.97Q215.28 65.94 212.90 67.24L212.90 67.24L215.93 75.88ZM220.97 89.06Q220.97 87.40 222.08 86.32Q223.20 85.24 225.00 85.24L225.00 85.24L230.47 85.24L230.47 89.49Q227.52 92.22 224.35 92.22L224.35 92.22Q222.84 92.22 221.90 91.29Q220.97 90.35 220.97 89.06L220.97 89.06ZM260.28 100L260.28 79.12Q262.87 76.89 266.15 75.48Q269.42 74.08 271.94 74.08L271.94 74.08L269.71 65.08Q267.05 65.08 263.74 66.63Q260.42 68.18 257.90 70.12L257.90 70.12L254.74 65.15L248.98 65.15L248.98 100L260.28 100ZM279.79 75.88Q281.81 74.94 284.47 74.30Q287.14 73.65 289.22 73.65L289.22 73.65Q291.46 73.65 292.79 74.91Q294.12 76.17 294.26 78.47L294.26 78.47L288.79 78.47Q282.53 78.47 278.93 81.14Q275.33 83.80 275.33 89.13L275.33 89.13Q275.33 94.53 278.57 97.66Q281.81 100.79 288.14 100.79L288.14 100.79Q292.82 100.79 296.71 96.33L296.71 96.33L299.38 100L305.64 100L305.64 77.75Q305.64 73.72 303.80 70.59Q301.97 67.46 298.58 65.73Q295.20 64.00 290.81 64.00L290.81 64.00Q287.50 64.00 283.32 64.97Q279.14 65.94 276.77 67.24L276.77 67.24L279.79 75.88ZM284.83 89.06Q284.83 87.40 285.95 86.32Q287.06 85.24 288.86 85.24L288.86 85.24L294.34 85.24L294.34 89.49Q291.38 92.22 288.22 92.22L288.22 92.22Q286.70 92.22 285.77 91.29Q284.83 90.35 284.83 89.06L284.83 89.06ZM324.14 100L324.14 76.17Q329.33 73.14 332.35 73.14L332.35 73.14Q334.51 73.14 335.59 74.62Q336.67 76.10 336.67 78.62L336.67 78.62L336.67 100L347.98 100L347.98 77.75Q347.98 71.34 345.06 67.64Q342.14 63.93 335.66 63.93L335.66 63.93Q332.35 63.93 328.64 65.26Q324.94 66.59 321.77 68.75L321.77 68.75L319.82 65.08L312.84 65.08L312.84 100L324.14 100ZM403.56 85.60L403.56 82.22Q403.56 77.10 401.72 73Q399.89 68.90 396.22 66.45Q392.54 64.00 387.22 64.00L387.22 64.00Q381.89 64.00 377.75 66.27Q373.61 68.54 371.30 72.75Q369.00 76.96 369.00 82.58L369.00 82.58Q369.00 91.14 374.51 95.97Q380.02 100.79 389.59 100.79L389.59 100.79Q393.84 100.79 397.40 99.71Q400.97 98.63 403.42 96.83L403.42 96.83L400.25 88.98Q395.35 91.72 390.38 91.72L390.38 91.72Q382.75 91.72 381.17 85.60L381.17 85.60L403.56 85.60ZM381.02 79.19Q381.31 76.53 382.93 74.91Q384.55 73.29 386.93 73.29L386.93 73.29Q389.45 73.29 390.92 74.91Q392.40 76.53 392.83 79.19L392.83 79.19L381.02 79.19ZM405.86 100L418.46 100L424.22 91L429.77 100L442.30 100L430.99 83.44L442.87 65.08L430.49 65.08L424.22 74.87L417.24 64.00L406.51 66.81L417.46 82.43L405.86 100ZM468.36 65.87L460.58 65.87L460.58 55.29L449.35 57.02L449.35 65.87L444.31 65.87L444.31 74.66L449.35 74.66L449.35 87.83Q449.35 94.17 453.60 97.62Q457.85 101.08 464.47 101.08L464.47 101.08Q466.63 101.08 469.15 100.29Q471.67 99.50 472.90 98.49L472.90 98.49L469.66 90.64Q467.42 91.79 465.19 91.79L465.19 91.79Q463.03 91.79 461.81 90.28Q460.58 88.77 460.58 86.32L460.58 86.32L460.58 74.66L470.38 74.66L468.36 65.87ZM488.81 100L488.81 79.12Q491.40 76.89 494.68 75.48Q497.95 74.08 500.47 74.08L500.47 74.08L498.24 65.08Q495.58 65.08 492.26 66.63Q488.95 68.18 486.43 70.12L486.43 70.12L483.26 65.15L477.50 65.15L477.50 100L488.81 100ZM508.32 75.88Q510.34 74.94 513.00 74.30Q515.66 73.65 517.75 73.65L517.75 73.65Q519.98 73.65 521.32 74.91Q522.65 76.17 522.79 78.47L522.79 78.47L517.32 78.47Q511.06 78.47 507.46 81.14Q503.86 83.80 503.86 89.13L503.86 89.13Q503.86 94.53 507.10 97.66Q510.34 100.79 516.67 100.79L516.67 100.79Q521.35 100.79 525.24 96.33L525.24 96.33L527.90 100L534.17 100L534.17 77.75Q534.17 73.72 532.33 70.59Q530.50 67.46 527.11 65.73Q523.73 64.00 519.34 64.00L519.34 64.00Q516.02 64.00 511.85 64.97Q507.67 65.94 505.30 67.24L505.30 67.24L508.32 75.88ZM513.36 89.06Q513.36 87.40 514.48 86.32Q515.59 85.24 517.39 85.24L517.39 85.24L522.86 85.24L522.86 89.49Q519.91 92.22 516.74 92.22L516.74 92.22Q515.23 92.22 514.30 91.29Q513.36 90.35 513.36 89.06L513.36 89.06ZM575.21 64.00Q583.34 64.00 588.13 68.75Q592.92 73.50 592.92 82.22L592.92 82.22Q592.92 90.93 588.06 95.86Q583.20 100.79 574.78 100.79L574.78 100.79Q570.24 100.79 565.85 97.70L565.85 97.70L563.83 100L558.07 100L558.07 49.96L569.30 49.17L569.30 65.22Q572.11 64.00 575.21 64.00L575.21 64.00ZM574.27 91.79Q577.44 91.79 579.38 89.16Q581.33 86.54 581.33 82.29L581.33 82.29Q581.33 77.97 579.38 75.52Q577.44 73.07 573.98 73.07L573.98 73.07Q571.75 73.07 569.30 74.73L569.30 74.73L569.30 90.28Q571.82 91.79 574.27 91.79L574.27 91.79ZM634.68 82.58Q634.68 88.19 632.20 92.30Q629.71 96.40 625.32 98.60Q620.93 100.79 615.31 100.79L615.31 100.79Q609.62 100.79 605.30 98.67Q600.98 96.54 598.57 92.40Q596.16 88.26 596.16 82.43L596.16 82.43Q596.16 76.82 598.64 72.64Q601.13 68.46 605.48 66.23Q609.84 64.00 615.46 64.00L615.46 64.00Q621.14 64.00 625.50 66.20Q629.86 68.39 632.27 72.57Q634.68 76.74 634.68 82.58L634.68 82.58ZM615.38 91.50Q618.84 91.50 620.93 89.06Q623.02 86.61 623.02 82.58L623.02 82.58Q623.02 78.54 620.96 75.95Q618.91 73.36 615.53 73.36L615.53 73.36Q612.00 73.36 609.91 75.84Q607.82 78.33 607.82 82.43L607.82 82.43Q607.82 86.54 609.88 89.02Q611.93 91.50 615.38 91.50L615.38 91.50ZM640.73 100L651.96 100L651.96 49.17L640.73 49.96L640.73 100ZM682.27 49.96L693.58 49.17L693.58 100L687.82 100L685.73 97.19Q683.57 98.85 681.05 99.82Q678.53 100.79 675.86 100.79L675.86 100.79Q667.73 100.79 662.90 96.04Q658.08 91.29 658.08 82.58L658.08 82.58Q658.08 73.86 662.98 68.93Q667.87 64.00 676.30 64.00L676.30 64.00Q679.25 64.00 682.27 65.44L682.27 65.44L682.27 49.96ZM669.74 82.50Q669.74 86.82 671.69 89.31Q673.63 91.79 677.09 91.79L677.09 91.79Q679.46 91.79 682.27 89.78L682.27 89.78L682.27 74.87Q679.68 73.07 676.80 73.07L676.80 73.07Q673.63 73.07 671.69 75.66Q669.74 78.26 669.74 82.50L669.74 82.50Z"/></svg>