<svg xmlns="http://www.w3.org/2000/svg" viewBox="2.5200000000000005 49.16799999999999 491.25600000000014 52.272000000000006"><path d="M39 53Q36 52 32 51Q29 50 26 50L26 50Q19 50 14 53Q8 57 5 62Q3 68 3 76L3 76Q3 83 5 89Q8 94 13 98Q18 101 26 101L26 101Q29 101 33 100Q37 99 40 98L40 98L36 91Q31 93 25 93L25 93Q21 93 18 91Q15 88 14 84Q12 80 12 76L12 76Q12 70 14 66Q16 62 19 60Q22 58 26 58L26 58Q28 58 30 58Q32 59 34 59L34 59L36 60L39 53ZM48 75Q50 74 53 73Q56 73 58 73L58 73Q61 73 62 74Q64 76 64 78L64 78L57 78Q51 78 47 81Q44 84 44 90L44 90Q44 95 47 98Q50 101 56 101L56 101Q61 101 65 96L65 96L67 100L73 100L73 77Q73 73 71 70Q69 67 66 66Q62 64 58 64L58 64Q56 64 51 65Q47 66 45 67L45 67L48 75ZM52 90Q52 88 53 86Q54 85 57 85L57 85L64 85L64 90Q60 93 56 93L56 93Q54 93 53 92Q52 91 52 90L52 90ZM98 65L92 65L92 55L82 57L82 65L78 65L78 72L82 72L82 89Q82 95 86 98Q90 101 96 101L96 101Q98 101 100 101Q102 100 103 99L103 99L100 93Q98 93 97 93L97 93Q94 93 93 92Q92 90 92 87L92 87L92 72L101 72L98 65ZM112 75Q114 74 116 73Q119 73 122 73L122 73Q124 73 126 74Q127 76 127 78L127 78L121 78Q114 78 111 81Q107 84 107 90L107 90Q107 95 110 98Q114 101 120 101L120 101Q125 101 129 96L129 96L131 100L137 100L137 77Q137 73 135 70Q133 67 129 66Q126 64 122 64L122 64Q119 64 115 65Q111 66 109 67L109 67L112 75ZM115 90Q115 88 117 86Q118 85 120 85L120 85L127 85L127 90Q124 93 120 93L120 93Q118 93 117 92Q115 91 115 90L115 90ZM187 64Q193 64 196 67Q198 70 198 77L198 77L198 100L189 100L189 79Q189 75 188 73Q187 72 185 72L185 72Q183 72 181 73Q179 74 176 76L176 76L176 77L176 100L167 100L167 79Q167 75 166 73Q165 72 162 72L162 72Q160 72 158 73Q157 74 154 76L154 76L154 100L144 100L144 65L151 65L152 69Q155 67 159 65Q162 64 165 64L165 64Q172 64 175 69L175 69Q178 66 181 65Q185 64 187 64L187 64ZM209 75Q211 74 214 73Q217 73 220 73L220 73Q222 73 224 74Q225 76 225 78L225 78L218 78Q212 78 209 81Q205 84 205 90L205 90Q205 95 208 98Q211 101 218 101L218 101Q222 101 227 96L227 96L228 100L235 100L235 77Q235 73 233 70Q230 67 227 66Q224 64 219 64L219 64Q217 64 213 65Q209 66 207 67L207 67L209 75ZM213 90Q213 88 214 86Q216 85 218 85L218 85L225 85L225 90Q222 93 218 93L218 93Q216 93 214 92Q213 91 213 90L213 90ZM252 100L252 79Q255 76 258 74Q262 73 264 73L264 73L262 65Q259 65 256 67Q253 69 250 71L250 71L247 65L242 65L242 100L252 100ZM272 75Q274 74 277 73Q280 73 282 73L282 73Q285 73 286 74Q288 76 288 78L288 78L281 78Q275 78 271 81Q268 84 268 90L268 90Q268 95 271 98Q274 101 280 101L280 101Q285 101 290 96L290 96L291 100L297 100L297 77Q297 73 295 70Q293 67 290 66Q286 64 282 64L282 64Q280 64 275 65Q271 66 269 67L269 67L272 75ZM276 90Q276 88 277 86Q278 85 281 85L281 85L288 85L288 90Q284 93 280 93L280 93Q278 93 277 92Q276 91 276 90L276 90ZM314 100L314 76Q317 74 319 73Q321 72 324 72L324 72Q326 72 327 74Q329 75 329 79L329 79L329 100L338 100L338 78Q338 71 335 68Q333 64 326 64L326 64Q323 64 319 65Q316 67 313 69L313 69L311 65L305 65L305 100L314 100ZM378 64Q386 64 391 69Q396 74 396 82L396 82Q396 88 394 92Q392 96 388 99Q384 101 378 101L378 101Q376 101 374 100Q371 99 369 98L369 98L367 100L363 100L363 50L372 49L372 66Q375 64 378 64L378 64ZM378 93Q382 93 384 90Q386 87 386 82L386 82Q386 78 384 75Q382 72 378 72L378 72Q375 72 372 74L372 74L372 91Q375 93 378 93L378 93ZM437 82Q437 88 435 92Q432 96 428 99Q424 101 418 101L418 101Q413 101 408 99Q404 96 402 92Q400 88 400 83L400 83Q400 77 402 73Q404 69 408 66Q413 64 418 64L418 64Q424 64 428 66Q432 69 435 73Q437 77 437 82L437 82ZM418 93Q422 93 425 90Q427 87 427 82L427 82Q427 78 425 75Q422 72 418 72L418 72Q414 72 412 75Q409 78 409 83L409 83Q409 87 412 90Q414 93 418 93L418 93ZM443 100L453 100L453 49L443 50L443 100ZM484 50L494 49L494 100L489 100L487 97Q482 101 477 101L477 101Q469 101 464 96Q459 91 459 83L459 83Q459 77 461 73Q463 69 467 66Q471 64 477 64L477 64Q479 64 481 65Q483 65 484 66L484 66L484 50ZM469 83Q469 87 471 90Q473 93 477 93L477 93Q479 93 481 92Q482 91 484 90L484 90L484 75Q482 74 481 73Q479 72 477 72L477 72Q473 72 471 75Q469 78 469 83L469 83Z"/></svg>