<svg xmlns="http://www.w3.org/2000/svg" viewBox="2.736 49.16799999999999 642.816 52.128000000000014"><path d="M39 53Q36 52 32 51Q29 50 26 50L26 50Q19 50 14 53Q8 57 6 63Q3 68 3 76L3 76Q3 83 5 89Q8 94 13 98Q18 101 26 101L26 101Q29 101 33 100Q37 99 39 98L39 98L36 92Q31 94 25 94L25 94Q21 94 18 92Q15 89 13 85Q11 81 11 76L11 76Q11 70 13 66Q15 62 18 59Q22 57 26 57L26 57Q29 57 31 57Q33 58 36 59L36 59L39 53ZM48 74Q53 71 58 71L58 71Q64 71 64 79L64 79L57 79Q51 79 47 82Q44 85 44 90L44 90Q44 95 47 98Q50 101 56 101L56 101Q59 101 61 100Q64 98 66 96L66 96L67 100L72 100L72 77Q72 73 70 70Q68 67 65 66Q62 64 58 64L58 64Q55 64 51 65Q47 66 46 67L46 67L48 74ZM51 90Q51 87 52 86Q54 84 56 84L56 84L64 84L64 90Q62 92 60 93Q58 94 56 94L56 94Q53 94 52 93Q51 92 51 90L51 90ZM96 65L90 65L90 55L82 57L82 65L77 65L77 72L82 72L82 90Q82 95 85 98Q89 101 94 101L94 101Q96 101 98 101Q100 100 101 99L101 99L99 94Q97 94 95 94L95 94Q93 94 91 93Q90 91 90 88L90 88L90 72L99 72L96 65ZM110 74Q115 71 120 71L120 71Q126 71 126 79L126 79L118 79Q113 79 109 82Q105 85 105 90L105 90Q105 95 109 98Q112 101 118 101L118 101Q120 101 123 100Q125 98 128 96L128 96L129 100L134 100L134 77Q134 73 132 70Q130 67 127 66Q124 64 120 64L120 64Q117 64 113 65Q109 66 107 67L107 67L110 74ZM112 90Q112 87 114 86Q116 84 118 84L118 84L126 84L126 90Q124 92 122 93Q120 94 118 94L118 94Q115 94 114 93Q112 92 112 90L112 90ZM184 64Q190 64 193 67Q195 71 195 77L195 77L195 100L187 100L187 78Q187 74 186 73Q185 71 182 71L182 71Q180 71 178 72Q176 73 173 75L173 75Q173 76 173 77L173 77L173 100L165 100L165 78Q165 74 164 73Q163 71 160 71L160 71Q156 71 150 76L150 76L150 100L142 100L142 65L148 65L149 69Q152 67 156 65Q159 64 162 64L162 64Q169 64 171 69L171 69Q174 67 178 65Q181 64 184 64L184 64ZM206 74Q212 71 217 71L217 71Q223 71 223 79L223 79L215 79Q209 79 206 82Q202 85 202 90L202 90Q202 95 205 98Q209 101 215 101L215 101Q217 101 220 100Q222 98 224 96L224 96L226 100L231 100L231 77Q231 73 229 70Q227 67 224 66Q220 64 216 64L216 64Q214 64 210 65Q206 66 204 67L204 67L206 74ZM209 90Q209 87 211 86Q212 84 215 84L215 84L223 84L223 90Q221 92 219 93Q217 94 214 94L214 94Q212 94 211 93Q209 92 209 90L209 90ZM247 100L247 78Q250 75 254 73Q257 72 260 72L260 72L258 65Q255 65 252 67Q249 69 246 71L246 71L243 65L239 65L239 100L247 100ZM268 74Q273 71 278 71L278 71Q284 71 284 79L284 79L276 79Q271 79 267 82Q264 85 264 90L264 90Q264 95 267 98Q270 101 276 101L276 101Q278 101 281 100Q284 98 286 96L286 96L287 100L292 100L292 77Q292 73 290 70Q288 67 285 66Q282 64 278 64L278 64Q275 64 271 65Q267 66 265 67L265 67L268 74ZM271 90Q271 87 272 86Q274 84 276 84L276 84L284 84L284 90Q282 92 280 93Q278 94 276 94L276 94Q273 94 272 93Q271 92 271 90L271 90ZM308 100L308 76Q314 71 319 71L319 71Q324 71 324 78L324 78L324 100L332 100L332 78Q332 71 329 68Q327 64 321 64L321 64Q317 64 314 65Q310 67 307 69L307 69L306 65L300 65L300 100L308 100ZM355 98Q357 99 360 100Q364 101 366 101L366 101Q373 101 377 98Q381 95 381 90L381 90Q381 83 369 79L369 79Q366 78 364 77Q363 76 363 74L363 74Q363 73 364 72Q366 71 368 71L368 71Q370 71 372 71Q374 72 377 73L377 73L380 68Q377 66 374 65Q370 64 368 64L368 64Q362 64 358 67Q355 70 355 75L355 75Q355 81 366 85L366 85Q373 87 373 91L373 91Q373 92 371 93Q369 94 366 94L366 94Q362 94 357 92L357 92L355 98ZM417 85L417 82Q417 74 413 69Q409 64 402 64L402 64Q397 64 393 66Q389 69 387 73Q385 77 385 83L385 83Q385 91 390 96Q395 101 404 101L404 101Q411 101 417 97L417 97L415 91Q412 93 409 93Q407 94 404 94L404 94Q394 94 393 85L393 85L417 85ZM393 79Q394 75 396 73Q398 71 402 71L402 71Q405 71 407 73Q409 75 410 79L410 79L393 79ZM465 64Q471 64 474 67Q477 71 477 77L477 77L477 100L468 100L468 78Q468 74 467 73Q466 71 464 71L464 71Q461 71 459 72Q457 73 454 75L454 75Q454 76 454 77L454 77L454 100L446 100L446 78Q446 74 445 73Q444 71 441 71L441 71Q437 71 432 76L432 76L432 100L424 100L424 65L429 65L430 69Q433 67 437 65Q440 64 443 64L443 64Q450 64 453 69L453 69Q456 67 459 65Q463 64 465 64L465 64ZM489 59Q491 59 492 58Q493 57 493 55L493 55Q493 53 492 51Q491 50 489 50L489 50Q487 50 485 51Q484 53 484 55L484 55Q484 57 485 58Q487 59 489 59L489 59ZM485 100L493 100L493 65L485 65L485 100ZM533 64Q538 64 542 66Q546 69 548 73Q551 77 551 83L551 83Q551 88 548 92Q546 96 542 99Q538 101 533 101L533 101Q531 101 529 100Q526 99 524 98L524 98L522 100L518 100L518 50L526 49L526 66Q530 64 533 64L533 64ZM533 94Q537 94 540 91Q542 88 542 83L542 83Q542 77 540 74Q537 71 533 71L533 71Q531 71 529 72Q528 72 526 73L526 73L526 92Q529 94 533 94L533 94ZM591 83Q591 88 588 92Q586 96 582 99Q578 101 572 101L572 101Q567 101 563 99Q559 96 557 92Q554 88 554 83L554 83Q554 77 557 73Q559 69 563 66Q567 64 573 64L573 64Q578 64 582 66Q586 69 588 73Q591 77 591 83L591 83ZM572 94Q577 94 579 91Q582 87 582 83L582 83Q582 77 580 74Q577 71 573 71L573 71Q568 71 566 74Q563 78 563 83L563 83Q563 88 565 91Q568 94 572 94L572 94ZM597 100L605 100L605 49L597 50L597 100ZM637 50L646 49L646 100L641 100L639 97Q637 99 635 100Q632 101 630 101L630 101Q624 101 620 99Q617 96 614 92Q612 88 612 82L612 82Q612 77 614 73Q617 69 621 66Q625 64 630 64L630 64Q632 64 634 65Q636 65 637 67L637 67L637 50ZM621 82Q621 88 623 91Q626 94 630 94L630 94Q632 94 634 93Q636 93 637 91L637 91L637 74Q636 72 634 72Q632 71 630 71L630 71Q626 71 623 74Q621 77 621 82L621 82Z"/></svg>