<svg xmlns="http://www.w3.org/2000/svg" viewBox="3.24 49.16799999999999 454.32000000000005 67.39200000000001"><path d="M38.09 52.70Q36.29 51.47 32.54 50.75Q28.80 50.03 26.14 50.03L26.14 50.03Q19.22 50.03 14.04 53.45Q8.86 56.87 6.05 62.74Q3.24 68.61 3.24 75.81L3.24 75.81Q3.24 82.65 5.80 88.41Q8.35 94.17 13.43 97.59Q18.50 101.01 25.70 101.01L25.70 101.01Q28.80 101.01 32.44 100.22Q36.07 99.42 38.09 98.34L38.09 98.34L36.36 94.89Q34.06 95.90 31.57 96.47Q29.09 97.05 25.56 97.05L25.56 97.05Q20.16 97.05 16.16 94.20Q12.17 91.36 10.08 86.50Q7.99 81.64 7.99 75.74L7.99 75.74Q7.99 69.54 10.40 64.58Q12.82 59.61 16.96 56.76Q21.10 53.92 26.21 53.92L26.21 53.92Q29.74 53.92 31.86 54.42Q33.98 54.93 36.65 56.01L36.65 56.01L38.09 52.70ZM47.45 70.34Q50.26 69.04 52.16 68.46Q54.07 67.89 57.46 67.89L57.46 67.89Q61.56 67.89 63.68 70.16Q65.81 72.42 65.81 76.24L65.81 76.24L65.81 79.77L56.09 79.77Q50.54 79.70 47.09 82.50Q43.63 85.31 43.63 90.21L43.63 90.21Q43.63 94.96 46.66 97.95Q49.68 100.94 55.37 100.94L55.37 100.94Q58.25 100.94 61.24 99.53Q64.22 98.13 66.02 96.26L66.02 96.26L66.60 100L70.27 100L70.27 75.52Q70.27 70.34 66.74 67.24Q63.22 64.14 57.24 64.14L57.24 64.14Q54.86 64.14 51.41 65.01Q47.95 65.87 46.08 67.17L46.08 67.17L47.45 70.34ZM48.02 90.21Q48.02 87.04 50.11 84.88Q52.20 82.72 55.94 82.72L55.94 82.72L65.81 82.72L65.81 91.58Q63.79 94.02 61.09 95.64Q58.39 97.26 55.22 97.26L55.22 97.26Q51.62 97.26 49.82 95.14Q48.02 93.02 48.02 90.21L48.02 90.21ZM91.94 65.80L85.61 65.80L85.61 55.14L81.07 56.73L81.07 65.80L75.89 65.80L75.96 69.18L81.07 69.18L81.07 91.65Q81.07 96.11 83.38 98.52Q85.68 100.94 89.57 100.94L89.57 100.94Q91.66 100.94 92.88 100.54Q94.10 100.14 94.32 100.07L94.32 100.07L93.46 96.40Q91.94 97.05 90.50 97.05L90.50 97.05Q87.98 97.05 86.80 95.46Q85.61 93.88 85.61 91.14L85.61 91.14L85.61 69.18L93.46 69.18L91.94 65.80ZM103.68 70.34Q106.49 69.04 108.40 68.46Q110.30 67.89 113.69 67.89L113.69 67.89Q117.79 67.89 119.92 70.16Q122.04 72.42 122.04 76.24L122.04 76.24L122.04 79.77L112.32 79.77Q106.78 79.70 103.32 82.50Q99.86 85.31 99.86 90.21L99.86 90.21Q99.86 94.96 102.89 97.95Q105.91 100.94 111.60 100.94L111.60 100.94Q114.48 100.94 117.47 99.53Q120.46 98.13 122.26 96.26L122.26 96.26L122.83 100L126.50 100L126.50 75.52Q126.50 70.34 122.98 67.24Q119.45 64.14 113.47 64.14L113.47 64.14Q111.10 64.14 107.64 65.01Q104.18 65.87 102.31 67.17L102.31 67.17L103.68 70.34ZM104.26 90.21Q104.26 87.04 106.34 84.88Q108.43 82.72 112.18 82.72L112.18 82.72L122.04 82.72L122.04 91.58Q120.02 94.02 117.32 95.64Q114.62 97.26 111.46 97.26L111.46 97.26Q107.86 97.26 106.06 95.14Q104.26 93.02 104.26 90.21L104.26 90.21ZM173.66 64.14Q178.85 64.14 181.26 67.28Q183.67 70.41 183.67 75.74L183.67 75.74L183.67 99.93L179.21 99.93L179.21 76.60Q179.21 72.57 177.88 70.26Q176.54 67.96 173.16 67.96L173.16 67.96Q170.86 67.96 167.69 69.76Q164.52 71.56 162.14 74.30L162.14 74.30Q162.22 74.73 162.22 75.74L162.22 75.74L162.22 99.93L157.75 99.93L157.75 76.60Q157.75 72.57 156.42 70.26Q155.09 67.96 151.70 67.96L151.70 67.96Q149.26 67.96 145.84 70.01Q142.42 72.06 140.04 75.09L140.04 75.09L140.04 100L135.58 100L135.58 65.08L139.25 65.08L139.97 70.41Q142.20 67.82 145.73 65.98Q149.26 64.14 152.21 64.14L152.21 64.14Q159.41 64.14 161.42 70.41L161.42 70.41Q163.66 67.82 167.18 65.98Q170.71 64.14 173.66 64.14L173.66 64.14ZM195.62 70.34Q198.43 69.04 200.34 68.46Q202.25 67.89 205.63 67.89L205.63 67.89Q209.74 67.89 211.86 70.16Q213.98 72.42 213.98 76.24L213.98 76.24L213.98 79.77L204.26 79.77Q198.72 79.70 195.26 82.50Q191.81 85.31 191.81 90.21L191.81 90.21Q191.81 94.96 194.83 97.95Q197.86 100.94 203.54 100.94L203.54 100.94Q206.42 100.94 209.41 99.53Q212.40 98.13 214.20 96.26L214.20 96.26L214.78 100L218.45 100L218.45 75.52Q218.45 70.34 214.92 67.24Q211.39 64.14 205.42 64.14L205.42 64.14Q203.04 64.14 199.58 65.01Q196.13 65.87 194.26 67.17L194.26 67.17L195.62 70.34ZM196.20 90.21Q196.20 87.04 198.29 84.88Q200.38 82.72 204.12 82.72L204.12 82.72L213.98 82.72L213.98 91.58Q211.97 94.02 209.27 95.64Q206.57 97.26 203.40 97.26L203.40 97.26Q199.80 97.26 198.00 95.14Q196.20 93.02 196.20 90.21L196.20 90.21ZM231.98 100L231.98 75.09Q234.22 72.64 237.78 70.62Q241.34 68.61 244.44 68.61L244.44 68.61L243.22 65.08Q240.77 65.08 237.49 66.84Q234.22 68.61 231.77 70.62L231.77 70.62L230.47 65.08L227.52 65.08L227.52 100L231.98 100ZM252.72 70.34Q255.53 69.04 257.44 68.46Q259.34 67.89 262.73 67.89L262.73 67.89Q266.83 67.89 268.96 70.16Q271.08 72.42 271.08 76.24L271.08 76.24L271.08 79.77L261.36 79.77Q255.82 79.70 252.36 82.50Q248.90 85.31 248.90 90.21L248.90 90.21Q248.90 94.96 251.93 97.95Q254.95 100.94 260.64 100.94L260.64 100.94Q263.52 100.94 266.51 99.53Q269.50 98.13 271.30 96.26L271.30 96.26L271.87 100L275.54 100L275.54 75.52Q275.54 70.34 272.02 67.24Q268.49 64.14 262.51 64.14L262.51 64.14Q260.14 64.14 256.68 65.01Q253.22 65.87 251.35 67.17L251.35 67.17L252.72 70.34ZM253.30 90.21Q253.30 87.04 255.38 84.88Q257.47 82.72 261.22 82.72L261.22 82.72L271.08 82.72L271.08 91.58Q269.06 94.02 266.36 95.64Q263.66 97.26 260.50 97.26L260.50 97.26Q256.90 97.26 255.10 95.14Q253.30 93.02 253.30 90.21L253.30 90.21ZM289.08 100L289.08 75.09Q291.46 72.06 295.09 70.01Q298.73 67.96 301.46 67.96L301.46 67.96Q308.23 67.96 308.23 76.60L308.23 76.60L308.23 99.93L312.70 99.93L312.70 75.74Q312.70 70.48 310.03 67.31Q307.37 64.14 301.97 64.14L301.97 64.14Q298.73 64.14 294.98 65.98Q291.24 67.82 289.01 70.41L289.01 70.41L288.29 65.08L284.62 65.08L284.62 100L289.08 100ZM339.41 100L343.87 100L343.87 49.17L339.41 49.89L339.41 100ZM356.18 57.45Q357.55 57.45 358.60 56.48Q359.64 55.50 359.64 54.06L359.64 54.06Q359.64 52.62 358.60 51.65Q357.55 50.68 356.18 50.68L356.18 50.68Q354.67 50.68 353.74 51.65Q352.80 52.62 352.80 54.06L352.80 54.06Q352.80 55.50 353.74 56.48Q354.67 57.45 356.18 57.45L356.18 57.45ZM353.95 100L358.49 100L358.49 65.08L353.95 65.08L353.95 100ZM391.97 65.08L394.92 65.08L394.92 104.46Q394.92 107.92 393.12 110.66Q391.32 113.39 387.94 114.98Q384.55 116.56 380.09 116.56L380.09 116.56Q377.71 116.56 374.00 115.70Q370.30 114.83 368.21 113.61L368.21 113.61L369.58 110.30Q371.88 111.38 374.26 112.06Q376.63 112.74 379.94 112.82L379.94 112.82Q384.55 112.82 387.47 110.66Q390.38 108.50 390.38 104.39L390.38 104.39L390.38 97.91Q386.28 100.94 381.60 100.94L381.60 100.94Q374.04 100.94 369.86 95.90Q365.69 90.86 365.69 82.50L365.69 82.50Q365.76 77.25 367.67 73.07Q369.58 68.90 373.21 66.52Q376.85 64.14 381.89 64.14L381.89 64.14Q386.28 64.14 390.96 67.74L390.96 67.74L391.97 65.08ZM381.53 97.19Q386.64 97.19 390.38 93.45L390.38 93.45L390.38 71.34Q388.58 69.69 386.53 68.79Q384.48 67.89 381.67 67.89L381.67 67.89Q376.13 67.89 373.21 71.96Q370.30 76.02 370.22 82.43L370.22 82.43Q370.22 89.20 373.03 93.20Q375.84 97.19 381.53 97.19L381.53 97.19ZM422.78 64.14Q428.18 64.14 430.85 67.31Q433.51 70.48 433.51 75.74L433.51 75.74L433.51 99.93L429.05 99.93L429.05 76.60Q429.05 67.96 422.28 67.96L422.28 67.96Q419.54 67.96 415.91 70.01Q412.27 72.06 409.90 75.09L409.90 75.09L409.90 100L405.43 100L405.43 49.89L409.90 49.17L409.90 70.34Q412.13 67.74 415.84 65.94Q419.54 64.14 422.78 64.14L422.78 64.14ZM455.18 65.80L448.85 65.80L448.85 55.14L444.31 56.73L444.31 65.80L439.13 65.80L439.20 69.18L444.31 69.18L444.31 91.65Q444.31 96.11 446.62 98.52Q448.92 100.94 452.81 100.94L452.81 100.94Q454.90 100.94 456.12 100.54Q457.34 100.14 457.56 100.07L457.56 100.07L456.70 96.40Q455.18 97.05 453.74 97.05L453.74 97.05Q451.22 97.05 450.04 95.46Q448.85 93.88 448.85 91.14L448.85 91.14L448.85 69.18L456.70 69.18L455.18 65.80Z"/></svg>