<svg xmlns="http://www.w3.org/2000/svg" viewBox="3.6000000000000005 49.16799999999999 427.53600000000006 51.84"><path d="M37.66 52.70Q35.86 51.47 32.22 50.75Q28.58 50.03 25.92 50.03L25.92 50.03Q19.08 50.03 14.00 53.45Q8.93 56.87 6.26 62.74Q3.60 68.61 3.60 75.81L3.60 75.81Q3.60 82.72 6.01 88.44Q8.42 94.17 13.36 97.59Q18.29 101.01 25.49 101.01L25.49 101.01Q28.51 101.01 32.08 100.22Q35.64 99.42 37.66 98.34L37.66 98.34L35.93 95.75Q33.62 96.76 31.14 97.34Q28.66 97.91 25.13 97.91L25.13 97.91Q19.73 97.91 15.73 94.89Q11.74 91.86 9.65 86.79Q7.56 81.71 7.56 75.74L7.56 75.74Q7.56 68.97 9.94 63.86Q12.31 58.74 16.45 55.97Q20.59 53.20 25.78 53.13L25.78 53.13Q29.30 53.13 31.39 53.63Q33.48 54.14 36.22 55.29L36.22 55.29L37.66 52.70ZM47.38 69.54Q50.04 68.25 52.13 67.67Q54.22 67.10 57.38 67.10L57.38 67.10Q61.49 67.10 63.61 69.36Q65.74 71.63 65.74 75.45L65.74 75.45L65.74 79.77L56.02 79.77Q50.47 79.77 47.02 82.54Q43.56 85.31 43.56 90.21L43.56 90.21Q43.56 94.96 46.58 97.95Q49.61 100.94 55.30 100.94L55.30 100.94Q58.46 100.94 61.27 99.64Q64.08 98.34 65.95 96.26L65.95 96.26L66.53 100L69.26 100L69.26 75.52Q69.26 70.26 66.13 67.20Q63 64.14 57.17 64.14L57.17 64.14Q54.79 64.14 51.34 65.01Q47.88 65.87 46.01 67.17L46.01 67.17L47.38 69.54ZM47.23 90.21Q47.23 86.75 49.50 84.59Q51.77 82.43 56.30 82.43L56.30 82.43L65.74 82.43L65.74 92.15Q63.94 94.82 61.38 96.40Q58.82 97.98 55.58 97.98L55.58 97.98Q51.77 97.98 49.50 95.75Q47.23 93.52 47.23 90.21L47.23 90.21ZM90.50 66.16L84.17 66.16L84.17 55.14L80.64 56.73L80.64 66.16L75.46 66.16L75.46 68.82L80.64 68.82L80.64 91.65Q80.64 96.11 82.66 98.52Q84.67 100.94 88.13 100.94L88.13 100.94Q89.50 100.94 90.94 100.58L90.94 100.58Q92.66 100.07 92.88 100.07L92.88 100.07L92.02 97.34Q90.50 97.98 89.06 97.98L89.06 97.98Q86.62 97.98 85.39 96.00Q84.17 94.02 84.17 91.14L84.17 91.14L84.17 68.82L92.02 68.82L90.50 66.16ZM102.60 69.54Q105.26 68.25 107.35 67.67Q109.44 67.10 112.61 67.10L112.61 67.10Q116.71 67.10 118.84 69.36Q120.96 71.63 120.96 75.45L120.96 75.45L120.96 79.77L111.24 79.77Q105.70 79.77 102.24 82.54Q98.78 85.31 98.78 90.21L98.78 90.21Q98.78 94.96 101.81 97.95Q104.83 100.94 110.52 100.94L110.52 100.94Q113.69 100.94 116.50 99.64Q119.30 98.34 121.18 96.26L121.18 96.26L121.75 100L124.49 100L124.49 75.52Q124.49 70.26 121.36 67.20Q118.22 64.14 112.39 64.14L112.39 64.14Q110.02 64.14 106.56 65.01Q103.10 65.87 101.23 67.17L101.23 67.17L102.60 69.54ZM102.46 90.21Q102.46 86.75 104.72 84.59Q106.99 82.43 111.53 82.43L111.53 82.43L120.96 82.43L120.96 92.15Q119.16 94.82 116.60 96.40Q114.05 97.98 110.81 97.98L110.81 97.98Q106.99 97.98 104.72 95.75Q102.46 93.52 102.46 90.21L102.46 90.21ZM170.71 64.14Q175.75 64.14 178.06 67.24Q180.36 70.34 180.36 75.74L180.36 75.74L180.36 100L176.83 100L176.83 75.74Q176.83 71.56 175.61 69.33Q174.38 67.10 171 67.10L171 67.10Q165.96 67.10 159.34 73.58L159.34 73.58Q159.41 74.30 159.41 75.74L159.41 75.74L159.41 100L155.88 100L155.88 75.74Q155.88 71.56 154.66 69.33Q153.43 67.10 150.05 67.10L150.05 67.10Q147.31 67.10 144.18 69.00Q141.05 70.91 137.81 74.15L137.81 74.15L137.81 100L134.28 100L134.28 65.08L137.02 65.08L137.74 70.55Q139.97 67.96 143.50 66.05Q147.02 64.14 149.76 64.14L149.76 64.14Q156.82 64.14 158.76 70.48L158.76 70.48Q160.99 67.89 164.48 66.02Q167.98 64.14 170.71 64.14L170.71 64.14ZM192.67 69.54Q195.34 68.25 197.42 67.67Q199.51 67.10 202.68 67.10L202.68 67.10Q206.78 67.10 208.91 69.36Q211.03 71.63 211.03 75.45L211.03 75.45L211.03 79.77L201.31 79.77Q195.77 79.77 192.31 82.54Q188.86 85.31 188.86 90.21L188.86 90.21Q188.86 94.96 191.88 97.95Q194.90 100.94 200.59 100.94L200.59 100.94Q203.76 100.94 206.57 99.64Q209.38 98.34 211.25 96.26L211.25 96.26L211.82 100L214.56 100L214.56 75.52Q214.56 70.26 211.43 67.20Q208.30 64.14 202.46 64.14L202.46 64.14Q200.09 64.14 196.63 65.01Q193.18 65.87 191.30 67.17L191.30 67.17L192.67 69.54ZM192.53 90.21Q192.53 86.75 194.80 84.59Q197.06 82.43 201.60 82.43L201.60 82.43L211.03 82.43L211.03 92.15Q209.23 94.82 206.68 96.40Q204.12 97.98 200.88 97.98L200.88 97.98Q197.06 97.98 194.80 95.75Q192.53 93.52 192.53 90.21L192.53 90.21ZM227.88 100L227.88 74.30Q230.11 71.85 233.68 69.83Q237.24 67.82 240.34 67.82L240.34 67.82L239.11 65.08Q236.66 65.08 233.39 66.84Q230.11 68.61 227.66 70.62L227.66 70.62L226.37 65.08L224.35 65.08L224.35 100L227.88 100ZM248.62 69.54Q251.28 68.25 253.37 67.67Q255.46 67.10 258.62 67.10L258.62 67.10Q262.73 67.10 264.85 69.36Q266.98 71.63 266.98 75.45L266.98 75.45L266.98 79.77L257.26 79.77Q251.71 79.77 248.26 82.54Q244.80 85.31 244.80 90.21L244.80 90.21Q244.80 94.96 247.82 97.95Q250.85 100.94 256.54 100.94L256.54 100.94Q259.70 100.94 262.51 99.64Q265.32 98.34 267.19 96.26L267.19 96.26L267.77 100L270.50 100L270.50 75.52Q270.50 70.26 267.37 67.20Q264.24 64.14 258.41 64.14L258.41 64.14Q256.03 64.14 252.58 65.01Q249.12 65.87 247.25 67.17L247.25 67.17L248.62 69.54ZM248.47 90.21Q248.47 86.75 250.74 84.59Q253.01 82.43 257.54 82.43L257.54 82.43L266.98 82.43L266.98 92.15Q265.18 94.82 262.62 96.40Q260.06 97.98 256.82 97.98L256.82 97.98Q253.01 97.98 250.74 95.75Q248.47 93.52 248.47 90.21L248.47 90.21ZM283.82 100L283.82 74.15Q290.74 67.10 296.42 67.10L296.42 67.10Q300.10 67.10 301.54 69.40Q302.98 71.70 302.98 75.74L302.98 75.74L302.98 100L306.50 100L306.50 75.74Q306.50 70.41 303.98 67.28Q301.46 64.14 296.14 64.14L296.14 64.14Q292.97 64.14 289.51 66.02Q286.06 67.89 283.75 70.55L283.75 70.55L283.03 65.08L280.30 65.08L280.30 100L283.82 100ZM345.02 66.16L338.69 66.16L338.69 55.14L335.16 56.73L335.16 66.16L329.98 66.16L329.98 68.82L335.16 68.82L335.16 91.65Q335.16 96.11 337.18 98.52Q339.19 100.94 342.65 100.94L342.65 100.94Q344.02 100.94 345.46 100.58L345.46 100.58Q347.18 100.07 347.40 100.07L347.40 100.07L346.54 97.34Q345.02 97.98 343.58 97.98L343.58 97.98Q341.14 97.98 339.91 96.00Q338.69 94.02 338.69 91.14L338.69 91.14L338.69 68.82L346.54 68.82L345.02 66.16ZM371.16 64.14Q376.49 64.14 379.01 67.28Q381.53 70.41 381.53 75.74L381.53 75.74L381.53 100L378.00 100L378.00 75.74Q378.00 71.70 376.56 69.40Q375.12 67.10 371.45 67.10L371.45 67.10Q365.76 67.10 358.85 74.15L358.85 74.15L358.85 100L355.32 100L355.32 49.89L358.85 49.17L358.85 70.48Q361.15 67.82 364.57 65.98Q367.99 64.14 371.16 64.14L371.16 64.14ZM393.05 56.80Q394.27 56.80 395.06 56.01Q395.86 55.22 395.86 54.06L395.86 54.06Q395.86 52.91 395.03 52.12Q394.20 51.33 393.05 51.33L393.05 51.33Q391.82 51.33 391.07 52.12Q390.31 52.91 390.31 54.06L390.31 54.06Q390.31 55.22 391.07 56.01Q391.82 56.80 393.05 56.80L393.05 56.80ZM391.32 100L394.85 100L394.85 65.08L391.32 65.08L391.32 100ZM408.46 100L408.46 74.15Q415.37 67.10 421.06 67.10L421.06 67.10Q424.73 67.10 426.17 69.40Q427.61 71.70 427.61 75.74L427.61 75.74L427.61 100L431.14 100L431.14 75.74Q431.14 70.41 428.62 67.28Q426.10 64.14 420.77 64.14L420.77 64.14Q417.60 64.14 414.14 66.02Q410.69 67.89 408.38 70.55L408.38 70.55L407.66 65.08L404.93 65.08L404.93 100L408.46 100Z"/></svg>