<svg xmlns="http://www.w3.org/2000/svg" viewBox="2.3040000000000003 50.10399999999999 495.21600000000007 50.976000000000006"><path d="M40.39 53.70Q37.51 51.98 33.70 51.04Q29.88 50.10 26.71 50.10L26.71 50.10Q19.58 50.10 14.04 53.38Q8.50 56.66 5.40 62.49Q2.30 68.32 2.30 75.74L2.30 75.74Q2.30 83.01 5.18 88.73Q8.06 94.46 13.57 97.70Q19.08 100.94 26.71 100.94L26.71 100.94Q30.17 100.94 34.16 100.04Q38.16 99.14 40.90 97.55L40.90 97.55L36.65 89.20Q31.75 91.65 26.64 91.65L26.64 91.65Q23.04 91.65 20.16 89.60Q17.28 87.54 15.62 83.91Q13.97 80.27 13.97 75.66L13.97 75.66Q13.97 70.84 15.70 67.13Q17.42 63.42 20.34 61.41Q23.26 59.39 26.64 59.39L26.64 59.39Q29.30 59.39 31.21 59.82Q33.12 60.26 37.01 61.48L37.01 61.48L40.39 53.70ZM48.89 75.88Q50.90 74.94 53.57 74.30Q56.23 73.65 58.32 73.65L58.32 73.65Q60.55 73.65 61.88 74.91Q63.22 76.17 63.36 78.47L63.36 78.47L57.89 78.47Q51.62 78.47 48.02 81.14Q44.42 83.80 44.42 89.13L44.42 89.13Q44.42 94.53 47.66 97.66Q50.90 100.79 57.24 100.79L57.24 100.79Q61.92 100.79 65.81 96.33L65.81 96.33L68.47 100L74.74 100L74.74 77.75Q74.74 73.72 72.90 70.59Q71.06 67.46 67.68 65.73Q64.30 64.00 59.90 64.00L59.90 64.00Q56.59 64.00 52.42 64.97Q48.24 65.94 45.86 67.24L45.86 67.24L48.89 75.88ZM53.93 89.06Q53.93 87.40 55.04 86.32Q56.16 85.24 57.96 85.24L57.96 85.24L63.43 85.24L63.43 89.49Q60.48 92.22 57.31 92.22L57.31 92.22Q55.80 92.22 54.86 91.29Q53.93 90.35 53.93 89.06L53.93 89.06ZM102.96 65.87L95.18 65.87L95.18 55.29L83.95 57.02L83.95 65.87L78.91 65.87L78.91 74.66L83.95 74.66L83.95 87.83Q83.95 94.17 88.20 97.62Q92.45 101.08 99.07 101.08L99.07 101.08Q101.23 101.08 103.75 100.29Q106.27 99.50 107.50 98.49L107.50 98.49L104.26 90.64Q102.02 91.79 99.79 91.79L99.79 91.79Q97.63 91.79 96.41 90.28Q95.18 88.77 95.18 86.32L95.18 86.32L95.18 74.66L104.98 74.66L102.96 65.87ZM115.49 75.88Q117.50 74.94 120.17 74.30Q122.83 73.65 124.92 73.65L124.92 73.65Q127.15 73.65 128.48 74.91Q129.82 76.17 129.96 78.47L129.96 78.47L124.49 78.47Q118.22 78.47 114.62 81.14Q111.02 83.80 111.02 89.13L111.02 89.13Q111.02 94.53 114.26 97.66Q117.50 100.79 123.84 100.79L123.84 100.79Q128.52 100.79 132.41 96.33L132.41 96.33L135.07 100L141.34 100L141.34 77.75Q141.34 73.72 139.50 70.59Q137.66 67.46 134.28 65.73Q130.90 64.00 126.50 64.00L126.50 64.00Q123.19 64.00 119.02 64.97Q114.84 65.94 112.46 67.24L112.46 67.24L115.49 75.88ZM120.53 89.06Q120.53 87.40 121.64 86.32Q122.76 85.24 124.56 85.24L124.56 85.24L130.03 85.24L130.03 89.49Q127.08 92.22 123.91 92.22L123.91 92.22Q122.40 92.22 121.46 91.29Q120.53 90.35 120.53 89.06L120.53 89.06ZM193.54 63.93Q199.80 63.93 202.54 67.35Q205.27 70.77 205.27 77.10L205.27 77.10L205.27 100L194.04 100L194.04 78.62Q194.04 75.95 193.21 74.55Q192.38 73.14 190.15 73.14L190.15 73.14Q188.64 73.14 186.77 73.97Q184.90 74.80 182.59 76.17L182.59 76.17L182.59 77.10L182.59 100L171.36 100L171.36 78.62Q171.36 75.95 170.53 74.55Q169.70 73.14 167.47 73.14L167.47 73.14Q165.96 73.14 164.05 73.97Q162.14 74.80 159.84 76.17L159.84 76.17L159.84 100L148.54 100L148.54 65.08L155.52 65.08L157.46 68.75Q160.63 66.59 164.16 65.26Q167.69 63.93 170.78 63.93L170.78 63.93Q177.84 63.93 180.65 68.46L180.65 68.46Q183.74 66.45 187.13 65.19Q190.51 63.93 193.54 63.93L193.54 63.93ZM215.93 75.88Q217.94 74.94 220.61 74.30Q223.27 73.65 225.36 73.65L225.36 73.65Q227.59 73.65 228.92 74.91Q230.26 76.17 230.40 78.47L230.40 78.47L224.93 78.47Q218.66 78.47 215.06 81.14Q211.46 83.80 211.46 89.13L211.46 89.13Q211.46 94.53 214.70 97.66Q217.94 100.79 224.28 100.79L224.28 100.79Q228.96 100.79 232.85 96.33L232.85 96.33L235.51 100L241.78 100L241.78 77.75Q241.78 73.72 239.94 70.59Q238.10 67.46 234.72 65.73Q231.34 64.00 226.94 64.00L226.94 64.00Q223.63 64.00 219.46 64.97Q215.28 65.94 212.90 67.24L212.90 67.24L215.93 75.88ZM220.97 89.06Q220.97 87.40 222.08 86.32Q223.20 85.24 225.00 85.24L225.00 85.24L230.47 85.24L230.47 89.49Q227.52 92.22 224.35 92.22L224.35 92.22Q222.84 92.22 221.90 91.29Q220.97 90.35 220.97 89.06L220.97 89.06ZM260.28 100L260.28 79.12Q262.87 76.89 266.15 75.48Q269.42 74.08 271.94 74.08L271.94 74.08L269.71 65.08Q267.05 65.08 263.74 66.63Q260.42 68.18 257.90 70.12L257.90 70.12L254.74 65.15L248.98 65.15L248.98 100L260.28 100ZM279.79 75.88Q281.81 74.94 284.47 74.30Q287.14 73.65 289.22 73.65L289.22 73.65Q291.46 73.65 292.79 74.91Q294.12 76.17 294.26 78.47L294.26 78.47L288.79 78.47Q282.53 78.47 278.93 81.14Q275.33 83.80 275.33 89.13L275.33 89.13Q275.33 94.53 278.57 97.66Q281.81 100.79 288.14 100.79L288.14 100.79Q292.82 100.79 296.71 96.33L296.71 96.33L299.38 100L305.64 100L305.64 77.75Q305.64 73.72 303.80 70.59Q301.97 67.46 298.58 65.73Q295.20 64.00 290.81 64.00L290.81 64.00Q287.50 64.00 283.32 64.97Q279.14 65.94 276.77 67.24L276.77 67.24L279.79 75.88ZM284.83 89.06Q284.83 87.40 285.95 86.32Q287.06 85.24 288.86 85.24L288.86 85.24L294.34 85.24L294.34 89.49Q291.38 92.22 288.22 92.22L288.22 92.22Q286.70 92.22 285.77 91.29Q284.83 90.35 284.83 89.06L284.83 89.06ZM324.14 100L324.14 76.17Q329.33 73.14 332.35 73.14L332.35 73.14Q334.51 73.14 335.59 74.62Q336.67 76.10 336.67 78.62L336.67 78.62L336.67 100L347.98 100L347.98 77.75Q347.98 71.34 345.06 67.64Q342.14 63.93 335.66 63.93L335.66 63.93Q332.35 63.93 328.64 65.26Q324.94 66.59 321.77 68.75L321.77 68.75L319.82 65.08L312.84 65.08L312.84 100L324.14 100ZM387.07 53.70Q382.39 53.70 378.65 55.40Q374.90 57.09 372.82 60.04Q370.73 62.99 370.73 66.74L370.73 66.74Q370.73 69.33 372.20 71.70Q373.68 74.08 376.06 75.45L376.06 75.45Q373.18 76.89 371.09 79.95Q369.00 83.01 369.00 86.25L369.00 86.25Q369.00 90.57 371.20 93.88Q373.39 97.19 377.50 99.06Q381.60 100.94 387.07 100.94L387.07 100.94Q392.54 100.94 396.58 99.03Q400.61 97.12 402.77 93.77Q404.93 90.42 404.93 86.25L404.93 86.25Q404.93 83.01 402.88 79.98Q400.82 76.96 397.94 75.52L397.94 75.52Q400.32 74.08 401.80 71.70Q403.27 69.33 403.27 66.74L403.27 66.74Q403.27 62.99 401.15 60.04Q399.02 57.09 395.35 55.40Q391.68 53.70 387.07 53.70L387.07 53.70ZM386.93 62.92Q389.30 62.92 390.74 64.18Q392.18 65.44 392.18 67.10L392.18 67.10Q392.18 69.04 390.85 70.41Q389.52 71.78 387.07 72.14L387.07 72.14Q384.55 71.78 383.18 70.44Q381.82 69.11 381.82 67.24L381.82 67.24Q381.82 65.58 383.26 64.25Q384.70 62.92 386.93 62.92L386.93 62.92ZM387.07 79.48Q390.24 79.98 392.11 81.89Q393.98 83.80 393.98 86.03L393.98 86.03Q393.98 88.41 391.82 90.10Q389.66 91.79 387.00 91.79L387.00 91.79Q384.26 91.79 382.18 90.14Q380.09 88.48 380.09 86.03L380.09 86.03Q380.09 83.73 381.92 81.86Q383.76 79.98 387.07 79.48L387.07 79.48ZM408.17 79.55Q408.17 85.67 410.94 90.57Q413.71 95.46 418.64 98.24Q423.58 101.01 429.70 101.01L429.70 101.01Q435.89 101.01 440.78 98.24Q445.68 95.46 448.45 90.53Q451.22 85.60 451.22 79.41L451.22 79.41Q451.22 73.36 448.45 68.54Q445.68 63.71 440.78 61.01Q435.89 58.31 429.77 58.31L429.77 58.31Q423.58 58.31 418.64 61.05Q413.71 63.78 410.94 68.64Q408.17 73.50 408.17 79.55L408.17 79.55ZM419.33 79.34Q419.33 74.22 422.24 70.91Q425.16 67.60 429.70 67.60L429.70 67.60Q432.72 67.60 435.13 69.15Q437.54 70.70 438.88 73.43Q440.21 76.17 440.21 79.62L440.21 79.62Q440.21 83.01 438.88 85.78Q437.54 88.55 435.13 90.10Q432.72 91.65 429.77 91.65L429.77 91.65Q426.74 91.65 424.37 90.06Q421.99 88.48 420.66 85.67Q419.33 82.86 419.33 79.34L419.33 79.34ZM454.46 79.55Q454.46 85.67 457.24 90.57Q460.01 95.46 464.94 98.24Q469.87 101.01 475.99 101.01L475.99 101.01Q482.18 101.01 487.08 98.24Q491.98 95.46 494.75 90.53Q497.52 85.60 497.52 79.41L497.52 79.41Q497.52 73.36 494.75 68.54Q491.98 63.71 487.08 61.01Q482.18 58.31 476.06 58.31L476.06 58.31Q469.87 58.31 464.94 61.05Q460.01 63.78 457.24 68.64Q454.46 73.50 454.46 79.55L454.46 79.55ZM465.62 79.34Q465.62 74.22 468.54 70.91Q471.46 67.60 475.99 67.60L475.99 67.60Q479.02 67.60 481.43 69.15Q483.84 70.70 485.17 73.43Q486.50 76.17 486.50 79.62L486.50 79.62Q486.50 83.01 485.17 85.78Q483.84 88.55 481.43 90.10Q479.02 91.65 476.06 91.65L476.06 91.65Q473.04 91.65 470.66 90.06Q468.29 88.48 466.96 85.67Q465.62 82.86 465.62 79.34L465.62 79.34Z"/></svg>