<svg xmlns="http://www.w3.org/2000/svg" viewBox="3.24 48.59199999999999 466.48800000000006 52.38"><path d="M32.98 100.97Q19.08 100.94 11.16 93.95Q3.24 86.97 3.24 74.80Q3.24 62.63 11.09 55.61Q18.94 48.59 32.62 48.59L32.62 48.59Q43.06 48.59 50.54 52.48L50.54 52.48L50.69 64.86L50.11 64.86Q46.44 51.62 33.34 51.62L33.34 51.62Q24.84 51.62 19.91 57.77Q14.98 63.93 14.98 74.58Q14.98 85.24 19.69 91.50Q24.41 97.77 32.47 97.98L32.47 97.98Q40.82 97.98 45.22 93.81L45.22 93.81Q49.68 89.49 51.41 78.98L51.41 78.98L51.98 78.98L52.70 91.36Q46.87 101.01 32.98 100.97ZM58.61 100L58.61 99.28L59.47 99.28Q61.20 99.28 62.42 98.16Q63.65 97.05 63.65 95.46L63.65 95.46L63.65 61.34Q63.65 59.75 62.42 58.64Q61.20 57.52 59.47 57.52L59.47 57.52L58.61 57.52L58.61 56.80L79.06 56.80L79.06 57.52L78.19 57.52Q76.54 57.52 75.31 58.60Q74.09 59.68 74.02 61.26L74.02 61.26L74.02 95.46Q74.09 97.12 75.31 98.20Q76.54 99.28 78.19 99.28L78.19 99.28L79.06 99.28L79.06 100L58.61 100ZM115.92 57.52L115.92 56.80L136.15 56.80L136.15 57.52L134.93 57.52Q133.27 57.52 132.16 58.53Q131.04 59.54 130.97 61.12L130.97 61.12L130.97 92.58Q130.97 97.05 131.54 99.93L131.54 99.93L131.69 100.94L131.04 100.94L97.99 71.78L97.99 95.61Q98.06 97.19 99.18 98.24Q100.30 99.28 101.95 99.28L101.95 99.28L103.18 99.28L103.18 100L83.02 100L83.02 99.28L84.17 99.28Q85.82 99.28 86.98 98.24Q88.13 97.19 88.13 95.61L88.13 95.61L88.13 63.93Q88.13 59.61 87.55 56.80L87.55 56.80L87.41 55.79L88.06 55.86L121.03 84.88L121.03 61.19Q121.03 59.61 119.92 58.56Q118.80 57.52 117.14 57.52L117.14 57.52L115.92 57.52ZM177.12 100L140.11 100L140.11 99.42L163.80 59.61L148.39 59.61Q145.30 59.68 143.57 61.48Q141.84 63.28 141.84 66.45L141.84 66.45L141.84 67.02L141.12 67.02L141.12 55.65Q141.98 56.01 144.47 56.37Q146.95 56.73 148.97 56.73L148.97 56.73L170.14 56.73Q172.22 56.73 174.56 56.44Q176.90 56.15 177.55 55.86L177.55 55.86L177.55 56.44L154.15 97.19L166.61 97.19Q176.18 97.05 179.50 86.75L179.50 86.75L180.29 86.75L177.12 100ZM221.11 86.75L218.38 100L184.46 100L184.46 99.28L185.33 99.28Q186.98 99.28 188.10 98.20Q189.22 97.12 189.29 95.54L189.29 95.54L189.29 61.26Q189.22 59.68 188.10 58.60Q186.98 57.52 185.33 57.52L185.33 57.52L184.46 57.52L184.46 56.80L209.81 56.80Q211.75 56.80 214.06 56.44Q216.36 56.08 217.30 55.72L217.30 55.72L217.30 67.17L216.58 67.17L216.58 66.52Q216.58 63.35 214.85 61.55Q213.12 59.75 210.02 59.68L210.02 59.68L199.66 59.68L199.66 77.18L207.86 77.18Q210.31 77.10 211.82 75.52Q213.34 73.94 213.34 71.49L213.34 71.49L213.34 70.98L214.06 70.98L214.06 86.25L213.34 86.25L213.34 85.74Q213.34 82.36 210.82 80.85L210.82 80.85Q209.52 80.06 207.94 80.06L207.94 80.06L199.66 80.06L199.66 97.12L208.30 97.12Q212.76 97.05 215.89 94.35Q219.02 91.65 220.46 86.75L220.46 86.75L221.11 86.75ZM258.62 100L224.71 100L224.71 99.28L225.58 99.28Q227.23 99.28 228.35 98.20Q229.46 97.12 229.46 95.54L229.46 95.54L229.46 61.34Q229.46 59.75 228.31 58.64Q227.16 57.52 225.58 57.52L225.58 57.52L224.71 57.52L224.71 56.80L244.73 56.80L244.73 57.52L243.86 57.52Q242.21 57.52 241.06 58.60Q239.90 59.68 239.90 61.34L239.90 61.34L239.90 97.12L248.54 97.12Q253.01 97.05 256.10 94.35Q259.20 91.65 260.64 86.75L260.64 86.75L261.43 86.75L258.62 100ZM317.88 67.53L317.88 67.53Q317.88 70.19 316.73 72.21L316.73 72.21Q314.50 76.10 309.96 76.46L309.96 76.46Q314.78 76.82 318.02 79.88Q321.26 82.94 321.26 87.69L321.26 87.69Q321.26 96.98 310.10 99.35L310.10 99.35Q306.94 100 303.19 100L303.19 100L282.31 100L282.31 99.28L283.10 99.28Q284.76 99.28 285.88 98.20Q286.99 97.12 287.06 95.46L287.06 95.46L287.06 61.34Q286.99 58.74 284.62 57.81L284.62 57.81Q283.90 57.52 283.10 57.52L283.10 57.52L282.31 57.52L282.31 56.80L301.61 56.80Q317.88 56.80 317.88 67.53ZM309.60 87.04L309.60 87.04Q309.60 83.73 308.23 81.50L308.23 81.50Q305.71 77.18 299.52 77.18L299.52 77.18Q299.45 77.18 299.38 77.18L299.38 77.18L299.38 76.53Q302.83 76.53 304.99 74.51Q307.15 72.50 307.15 68.25L307.15 68.25Q307.15 59.61 299.30 59.61L299.30 59.61L297.29 59.61L297.29 97.12L300.17 97.12Q304.34 97.12 306.97 94.67Q309.60 92.22 309.60 87.04ZM326.95 78.40Q326.95 68.03 333.90 61.95Q340.85 55.86 352.40 55.86Q363.96 55.86 370.94 61.95Q377.93 68.03 377.93 78.40Q377.93 88.77 370.94 94.85Q363.96 100.94 352.44 100.94Q340.92 100.94 333.94 94.85Q326.95 88.77 326.95 78.40ZM337.97 78.40Q337.97 87.47 341.89 92.76Q345.82 98.06 352.40 98.06Q358.99 98.06 362.92 92.76Q366.84 87.47 366.84 78.40Q366.84 69.33 362.92 64.04Q358.99 58.74 352.40 58.74Q345.82 58.74 341.89 64.04Q337.97 69.33 337.97 78.40ZM415.87 100L381.96 100L381.96 99.28L382.82 99.28Q384.48 99.28 385.60 98.20Q386.71 97.12 386.71 95.54L386.71 95.54L386.71 61.34Q386.71 59.75 385.56 58.64Q384.41 57.52 382.82 57.52L382.82 57.52L381.96 57.52L381.96 56.80L401.98 56.80L401.98 57.52L401.11 57.52Q399.46 57.52 398.30 58.60Q397.15 59.68 397.15 61.34L397.15 61.34L397.15 97.12L405.79 97.12Q410.26 97.05 413.35 94.35Q416.45 91.65 417.89 86.75L417.89 86.75L418.68 86.75L415.87 100ZM463.18 62.52Q469.73 68.25 469.73 78.40Q469.73 88.55 463.18 94.28Q456.62 100 445.03 100L445.03 100L420.70 100L420.70 99.28L421.63 99.28Q423.29 99.28 424.44 98.13Q425.59 96.98 425.66 95.39L425.66 95.39L425.66 61.26Q425.52 59.68 424.37 58.60Q423.22 57.52 421.56 57.52L421.56 57.52L420.70 57.52L420.70 56.80L445.03 56.80Q456.62 56.80 463.18 62.52ZM436.03 97.12L444.17 97.12Q450.94 97.12 454.86 92.15Q458.78 87.18 458.78 78.40Q458.78 69.62 454.86 64.61Q450.94 59.61 444.17 59.61L444.17 59.61L436.03 59.61L436.03 97.12Z"/></svg>