<svg xmlns="http://www.w3.org/2000/svg" viewBox="2.5200000000000005 48.59199999999999 514.224 52.38"><path d="M3 75L3 75Q3 67 6 61Q10 55 17 52Q24 49 34 49Q45 49 53 52L53 52L52 66L51 66Q49 58 45 55Q41 52 35 52L35 52Q27 52 23 58Q18 64 18 75Q18 85 23 91Q27 97 34 97L34 97Q42 97 46 93L46 93Q50 90 52 79L52 79L52 79L54 92Q49 101 34 101Q19 101 11 94Q3 87 3 75ZM81 99L81 99L82 99L82 100L59 100L59 99L59 99Q61 99 62 98Q63 97 63 96L63 96L63 61Q63 60 62 59Q61 58 59 58L59 58L59 58L59 57L82 57L82 58L81 58Q79 58 78 59L78 59Q77 60 77 61L77 61L77 96Q77 97 78 98Q79 99 81 99ZM139 57L139 58L137 58Q136 58 134 59Q133 60 133 61L133 61L133 93Q133 98 134 100L134 100L134 101L134 101L103 75L103 96Q103 97 105 98Q106 99 107 99L107 99L108 99L108 100L84 100L84 99L85 99Q87 99 88 98Q89 97 89 96L89 96L89 63Q89 59 89 57L89 57L88 56L89 56L119 81L119 61Q119 60 118 59Q117 58 115 58L115 58L114 58L114 57L139 57ZM180 100L141 100L141 99L163 60L151 60Q147 60 145 62Q143 65 143 69L143 69L143 69L142 69L142 56Q143 56 145 56Q148 57 150 57L150 57L174 57Q177 57 179 56Q181 56 181 56L181 56L181 56L160 97L168 97Q173 97 176 94Q180 90 182 85L182 85L182 85L180 100ZM223 100L186 100L186 99L187 99Q188 99 189 98L189 98Q190 97 190 96L190 96L190 61Q190 60 189 59Q188 58 187 58L187 58L186 58L186 57L214 57Q216 57 218 56Q220 56 221 56L221 56L221 69L220 69L220 69Q220 65 218 62Q216 60 212 60L212 60L204 60L204 77L210 77Q213 77 215 75Q217 73 217 70L217 70L217 69L218 69L218 88L217 88L217 88Q217 85 215 83Q213 80 210 80L210 80L204 80L204 97L211 97Q216 97 219 94Q223 90 224 85L224 85L225 85L223 100ZM266 85L264 100L227 100L227 99L228 99Q229 99 231 98Q232 97 232 96L232 96L232 61Q232 60 231 59Q229 58 228 58L228 58L227 58L227 57L250 57L250 58L250 58Q247 58 246 60L246 60Q246 60 246 61L246 61L246 97L253 97Q257 97 261 94Q264 90 265 85L265 85L266 85ZM323 62L323 62Q325 64 325 68Q325 72 323 74Q320 76 317 76L317 76Q321 77 325 80Q328 83 328 88L328 88Q328 94 322 97Q317 100 308 100L308 100L285 100L285 99L286 99Q288 99 289 98Q290 97 290 96L290 96L290 61Q290 60 289 59Q288 58 286 58L286 58L285 58L285 57L308 57Q320 57 323 62ZM304 97Q307 97 310 94Q312 92 312 87Q312 82 311 80Q309 77 306 77L306 77Q306 77 306 77L306 77L306 77Q308 77 309 75Q310 73 310 69L310 69Q310 60 304 60L304 60L304 60L304 97ZM369 85L367 100L330 100L330 99L331 99Q333 99 334 98Q335 97 335 96L335 96L335 61Q335 60 334 59Q333 58 331 58L331 58L330 58L330 57L354 57L354 58L353 58Q350 58 349 60L349 60Q349 60 349 61L349 61L349 97L356 97Q360 97 364 94Q367 90 369 85L369 85L369 85ZM419 99L419 99L420 99L420 100L394 100L394 99L395 99Q396 99 397 99Q398 98 398 97Q398 96 397 96L397 96L395 91L382 91L380 96Q380 96 380 97Q380 98 380 99Q381 99 382 99L382 99L383 99L383 100L368 100L368 99L369 99Q370 99 372 98Q373 98 374 96L374 96L389 64Q392 56 393 54L393 54L393 54L414 96Q415 99 419 99ZM389 76L383 88L394 88L389 76ZM444 101Q432 101 424 95Q417 89 417 78Q417 68 424 62Q432 56 445 56L445 56Q454 56 460 59L460 59L459 71L459 71Q457 64 454 62Q451 59 446 59L446 59Q439 59 435 64Q432 69 432 78Q432 87 435 92L435 92Q438 97 445 98L445 98Q450 98 452 96L452 96Q455 95 456 91L456 91Q458 88 459 82L459 82L460 82L462 94Q457 101 444 101ZM488 99L488 99L488 99L488 100L465 100L465 99L466 99Q468 99 469 98Q470 97 470 96L470 96L470 61Q470 60 469 59Q467 57 466 57L466 57L465 57L465 57L488 57L488 57L488 57Q486 57 485 59Q484 60 484 61L484 61L484 96Q484 97 485 98Q486 99 488 99ZM517 100L509 100L509 100Q497 100 493 94L493 94Q491 91 488 86Q486 81 486 81L486 81L500 60Q501 59 500 58Q500 57 499 57L499 57L498 57L498 57L513 57L513 57L512 57Q509 57 506 60L506 60L497 72L510 94Q513 99 517 99L517 99L517 100Z"/></svg>