<svg xmlns="http://www.w3.org/2000/svg" viewBox="0.45 -7.140000000000001 35.86 7.275"><path d="M4.58 0.14Q2.65 0.13 1.55-0.84Q0.45-1.81 0.45-3.50Q0.45-5.19 1.54-6.17Q2.63-7.14 4.53-7.14L4.53-7.14Q5.98-7.14 7.02-6.60L7.02-6.60L7.04-4.88L6.96-4.88Q6.45-6.72 4.63-6.72L4.63-6.72Q3.45-6.72 2.77-5.87Q2.08-5.01 2.08-3.53Q2.08-2.05 2.73-1.18Q3.39-0.31 4.51-0.28L4.51-0.28Q5.67-0.28 6.28-0.86L6.28-0.86Q6.90-1.46 7.14-2.92L7.14-2.92L7.22-2.92L7.32-1.20Q6.51 0.14 4.58 0.14ZM8.14 0L8.14-0.10L8.26-0.10Q8.50-0.10 8.67-0.26Q8.84-0.41 8.84-0.63L8.84-0.63L8.84-5.37Q8.84-5.59 8.67-5.75Q8.50-5.90 8.26-5.90L8.26-5.90L8.14-5.90L8.14-6L10.98-6L10.98-5.90L10.86-5.90Q10.63-5.90 10.46-5.75Q10.29-5.60 10.28-5.38L10.28-5.38L10.28-0.63Q10.29-0.40 10.46-0.25Q10.63-0.10 10.86-0.10L10.86-0.10L10.98-0.10L10.98 0L8.14 0ZM16.10-5.90L16.10-6L18.91-6L18.91-5.90L18.74-5.90Q18.51-5.90 18.36-5.76Q18.20-5.62 18.19-5.40L18.19-5.40L18.19-1.03Q18.19-0.41 18.27-0.01L18.27-0.01L18.29 0.13L18.20 0.13L13.61-3.92L13.61-0.61Q13.62-0.39 13.78-0.24Q13.93-0.10 14.16-0.10L14.16-0.10L14.33-0.10L14.33 0L11.53 0L11.53-0.10L11.69-0.10Q11.92-0.10 12.08-0.24Q12.24-0.39 12.24-0.61L12.24-0.61L12.24-5.01Q12.24-5.61 12.16-6L12.16-6L12.14-6.14L12.23-6.13L16.81-2.10L16.81-5.39Q16.81-5.61 16.66-5.75Q16.50-5.90 16.27-5.90L16.27-5.90L16.10-5.90ZM24.60 0L19.46 0L19.46-0.08L22.75-5.61L20.61-5.61Q20.18-5.60 19.94-5.35Q19.70-5.10 19.70-4.66L19.70-4.66L19.70-4.58L19.60-4.58L19.60-6.16Q19.72-6.11 20.06-6.06Q20.41-6.01 20.69-6.01L20.69-6.01L23.63-6.01Q23.92-6.01 24.24-6.05Q24.57-6.09 24.66-6.13L24.66-6.13L24.66-6.05L21.41-0.39L23.14-0.39Q24.47-0.41 24.93-1.84L24.93-1.84L25.04-1.84L24.60 0ZM30.71-1.84L30.33 0L25.62 0L25.62-0.10L25.74-0.10Q25.97-0.10 26.13-0.25Q26.28-0.40 26.29-0.62L26.29-0.62L26.29-5.38Q26.28-5.60 26.13-5.75Q25.97-5.90 25.74-5.90L25.74-5.90L25.62-5.90L25.62-6L29.14-6Q29.41-6 29.73-6.05Q30.05-6.10 30.18-6.15L30.18-6.15L30.18-4.56L30.08-4.56L30.08-4.65Q30.08-5.09 29.84-5.34Q29.60-5.59 29.17-5.60L29.17-5.60L27.73-5.60L27.73-3.17L28.87-3.17Q29.21-3.18 29.42-3.40Q29.63-3.62 29.63-3.96L29.63-3.96L29.63-4.03L29.73-4.03L29.73-1.91L29.63-1.91L29.63-1.98Q29.63-2.45 29.28-2.66L29.28-2.66Q29.10-2.77 28.88-2.77L28.88-2.77L27.73-2.77L27.73-0.40L28.93-0.40Q29.55-0.41 29.98-0.79Q30.42-1.16 30.62-1.84L30.62-1.84L30.71-1.84ZM35.92 0L31.21 0L31.21-0.10L31.33-0.10Q31.56-0.10 31.71-0.25Q31.87-0.40 31.87-0.62L31.87-0.62L31.87-5.37Q31.87-5.59 31.71-5.75Q31.55-5.90 31.33-5.90L31.33-5.90L31.21-5.90L31.21-6L33.99-6L33.99-5.90L33.87-5.90Q33.64-5.90 33.48-5.75Q33.32-5.60 33.32-5.37L33.32-5.37L33.32-0.40L34.52-0.40Q35.14-0.41 35.57-0.79Q36-1.16 36.20-1.84L36.20-1.84L36.31-1.84L35.92 0Z"/></svg>