<svg xmlns="http://www.w3.org/2000/svg" viewBox="2.5200000000000005 48.59199999999999 514.224 52.38"><path d="M2.52 74.73L2.52 74.73Q2.52 66.59 6.26 60.69Q10.01 54.78 17.10 51.69Q24.19 48.59 34.49 48.59Q44.78 48.59 52.56 51.90L52.56 51.90L51.84 65.66L51.19 65.66Q49.10 58.38 45.14 55.29Q41.18 52.19 35.28 52.19L35.28 52.19Q27.29 52.19 22.82 58.10Q18.36 64.00 18.36 74.55Q18.36 85.10 22.50 91.14Q26.64 97.19 33.98 97.41L33.98 97.41Q42.48 97.41 46.30 93.38L46.30 93.38Q49.90 89.63 51.91 78.98L51.91 78.98L52.49 78.98L54.22 92.08Q48.89 101.01 34.09 100.97Q19.30 100.94 10.91 94.06Q2.52 87.18 2.52 74.73ZM80.93 99.28L80.93 99.28L81.72 99.28L81.72 100L58.61 100L58.61 99.28L59.40 99.28Q60.91 99.28 61.99 98.20Q63.07 97.12 63.07 95.54L63.07 95.54L63.07 61.26Q63.07 59.68 61.99 58.60Q60.91 57.52 59.40 57.52L59.40 57.52L58.61 57.52L58.61 56.80L81.65 56.80L81.65 57.52L80.93 57.52Q78.77 57.52 77.76 59.32L77.76 59.32Q77.26 60.18 77.18 61.26L77.18 61.26L77.18 95.54Q77.26 97.12 78.34 98.20Q79.42 99.28 80.93 99.28ZM138.53 56.80L138.53 57.52L137.30 57.52Q135.65 57.52 134.50 58.53Q133.34 59.54 133.34 61.05L133.34 61.05L133.34 93.02Q133.34 97.70 133.99 100.07L133.99 100.07L134.21 100.86L133.56 100.86L103.32 75.45L103.32 95.68Q103.39 97.19 104.51 98.24Q105.62 99.28 107.28 99.28L107.28 99.28L108.43 99.28L108.43 100L84.10 100L84.10 99.28L85.25 99.28Q86.90 99.28 88.06 98.24Q89.21 97.19 89.21 95.68L89.21 95.68L89.21 63.50Q89.21 59.18 88.56 56.66L88.56 56.66L88.34 55.86L88.99 55.86L119.16 81.35L119.16 61.12Q119.16 59.61 118.04 58.56Q116.93 57.52 115.27 57.52L115.27 57.52L114.05 57.52L114.05 56.80L138.53 56.80ZM179.78 100L141.12 100L141.12 99.42L162.79 60.04L151.42 60.04Q147.31 60.04 145.04 62.38Q142.78 64.72 142.78 68.90L142.78 68.90L142.78 69.18L142.06 69.18L142.06 55.65Q142.92 56.01 145.33 56.37Q147.74 56.73 149.69 56.73L149.69 56.73L174.02 56.73Q176.69 56.73 178.60 56.44Q180.50 56.15 180.86 55.94L180.86 55.94L180.86 56.44L159.98 96.76L167.76 96.76Q172.66 96.76 176.40 93.59Q180.14 90.42 181.66 84.88L181.66 84.88L182.38 84.88L179.78 100ZM222.62 100L185.76 100L185.76 99.28L186.55 99.28Q188.06 99.28 188.86 98.49L188.86 98.49Q190.30 97.12 190.30 95.54L190.30 95.54L190.30 61.34Q190.30 59.68 189.18 58.60Q188.06 57.52 186.55 57.52L186.55 57.52L185.76 57.52L185.76 56.80L213.84 56.80Q215.64 56.80 217.87 56.44Q220.10 56.08 220.97 55.72L220.97 55.72L220.97 69.33L220.25 69.33L220.25 68.97Q220.25 64.79 218.05 62.49Q215.86 60.18 211.82 60.11L211.82 60.11L204.41 60.11L204.41 77.03L209.95 77.03Q213.12 76.96 215.10 74.91Q217.08 72.86 217.08 69.62L217.08 69.62L217.08 69.47L217.80 69.47L217.80 88.05L217.08 88.05L217.08 87.76Q217.08 84.59 215.10 82.50Q213.12 80.42 209.95 80.42L209.95 80.42L204.41 80.42L204.41 96.69L211.32 96.69Q215.64 96.69 219.17 93.52Q222.70 90.35 223.99 84.88L223.99 84.88L224.64 84.88L222.62 100ZM266.11 84.88L264.02 100L227.16 100L227.16 99.28L227.95 99.28Q229.46 99.28 230.58 98.20Q231.70 97.12 231.70 95.54L231.70 95.54L231.70 61.26Q231.70 59.68 230.58 58.60Q229.46 57.52 227.95 57.52L227.95 57.52L227.16 57.52L227.16 56.80L250.42 56.80L250.42 57.52L249.62 57.52Q247.10 57.52 246.17 59.75L246.17 59.75Q245.81 60.47 245.81 61.26L245.81 61.26L245.81 96.69L252.72 96.69Q257.04 96.69 260.53 93.52Q264.02 90.35 265.39 84.88L265.39 84.88L266.11 84.88ZM323.50 62.20L323.50 62.20Q324.86 64.43 324.86 68.14Q324.86 71.85 322.56 74.15Q320.26 76.46 317.02 76.46L317.02 76.46Q321.48 76.67 324.61 79.59Q327.74 82.50 327.74 87.54L327.74 87.54Q327.74 93.88 322.49 96.94Q317.23 100 308.30 100L308.30 100L285.41 100L285.41 99.28L286.20 99.28Q287.78 99.28 288.86 98.20Q289.94 97.12 289.94 95.54L289.94 95.54L289.94 61.26Q289.94 59.68 288.86 58.60Q287.78 57.52 286.20 57.52L286.20 57.52L285.41 57.52L285.41 56.80L307.80 56.80Q320.18 56.80 323.50 62.20ZM303.77 96.69Q307.37 96.54 309.60 94.13Q311.83 91.72 311.83 86.90Q311.83 82.07 310.50 79.62Q309.17 77.18 305.93 77.18L305.93 77.18Q305.86 77.18 305.78 77.18L305.78 77.18L305.78 76.60Q308.45 76.60 309.42 74.58Q310.39 72.57 310.39 68.68L310.39 68.68Q310.39 60.04 303.98 60.04L303.98 60.04L303.77 60.04L303.77 96.69ZM369.29 84.88L367.20 100L330.34 100L330.34 99.28L331.13 99.28Q332.64 99.28 333.76 98.20Q334.87 97.12 334.87 95.54L334.87 95.54L334.87 61.26Q334.87 59.68 333.76 58.60Q332.64 57.52 331.13 57.52L331.13 57.52L330.34 57.52L330.34 56.80L353.59 56.80L353.59 57.52L352.80 57.52Q350.28 57.52 349.34 59.75L349.34 59.75Q348.98 60.47 348.98 61.26L348.98 61.26L348.98 96.69L355.90 96.69Q360.22 96.69 363.71 93.52Q367.20 90.35 368.57 84.88L368.57 84.88L369.29 84.88ZM419.18 99.28L419.18 99.28L419.76 99.28L419.76 100L394.42 100L394.42 99.28L394.99 99.28Q396.43 99.28 397.12 98.52Q397.80 97.77 397.80 97.08Q397.80 96.40 397.44 95.61L397.44 95.61L395.35 90.86L382.03 90.86L379.87 95.82Q379.58 96.47 379.58 97.12Q379.58 97.77 380.27 98.52Q380.95 99.28 382.39 99.28L382.39 99.28L382.90 99.28L382.90 100L368.06 100L368.06 99.28L368.64 99.28Q370.15 99.28 371.70 98.42Q373.25 97.55 374.11 95.75L374.11 95.75L388.94 63.78Q392.47 56.08 392.69 54.21L392.69 54.21L393.26 54.21L413.57 95.61Q415.44 99.28 419.18 99.28ZM388.66 75.52L383.40 87.62L393.91 87.62L388.66 75.52ZM444.46 100.83Q431.71 100.79 424.44 94.96Q417.17 89.13 417.17 78.44Q417.17 67.74 424.37 61.84Q431.57 55.94 444.60 55.94L444.60 55.94Q453.74 55.94 460.30 58.53L460.30 58.53L459.36 70.77L458.86 70.77Q456.98 64.43 453.78 61.80Q450.58 59.18 445.82 59.18L445.82 59.18Q438.70 59.18 435.28 64.25Q431.86 69.33 431.86 78.11Q431.86 86.90 435.17 92.08L435.17 92.08Q438.48 97.41 444.60 97.62L444.60 97.62Q449.64 97.62 452.23 96.11L452.23 96.11Q455.04 94.53 456.48 91.22L456.48 91.22Q457.85 88.05 459.14 82L459.14 82L459.65 82L461.52 93.52Q457.20 100.86 444.46 100.83ZM487.73 99.28L487.73 99.28L488.45 99.28L488.45 100L465.26 100L465.26 99.28L465.98 99.28Q467.57 99.28 468.65 98.20Q469.73 97.12 469.80 95.54L469.80 95.54L469.80 61.19Q469.73 59.61 468.61 58.53Q467.50 57.45 465.98 57.45L465.98 57.45L465.19 57.45L465.19 56.73L488.45 56.73L488.45 57.45L487.73 57.45Q486.14 57.45 485.03 58.53Q483.91 59.61 483.91 61.26L483.91 61.26L483.91 95.54Q483.91 97.12 485.03 98.20Q486.14 99.28 487.73 99.28ZM516.74 100L509.33 100L508.54 100Q497.38 100 492.70 93.52L492.70 93.52Q490.68 90.78 488.20 85.78Q485.71 80.78 485.71 80.70L485.71 80.70L500.04 60.26Q500.83 59.18 500.36 58.28Q499.90 57.38 498.67 57.38L498.67 57.38L498.10 57.38L498.10 56.80L512.78 56.80L512.78 57.38L512.50 57.38Q508.75 57.38 506.23 60.04L506.23 60.04L496.58 72.14L510.19 94.38Q513.22 99.28 516.74 99.42L516.74 99.42L516.74 100Z"/></svg>