<svg xmlns="http://www.w3.org/2000/svg" viewBox="4.32 48.59199999999999 590.472 52.416000000000004"><path d="M30 101Q19 101 11 94Q4 87 4 75Q4 63 11 56Q19 49 30 49L30 49Q40 49 48 53L48 53L49 64L48 64Q47 57 42 54Q37 51 30 51L30 51Q21 51 15 57Q10 64 10 75Q10 85 15 92Q21 99 30 99L30 99Q38 99 43 94L43 94Q49 90 51 79L51 79L51 79L50 90Q44 101 30 101L30 101ZM59 99L60 99Q62 99 63 98Q65 97 65 95L65 95L65 61Q65 60 63 59Q62 58 60 58L60 58L59 58L59 57L75 57L75 58L74 58Q72 58 71 59Q69 60 69 61L69 61L69 95Q69 97 71 98Q72 99 74 99L74 99L75 99L75 100L59 100L59 99ZM132 58L131 58Q130 58 129 59Q127 60 127 61L127 61L127 92Q127 96 128 100L128 100L128 101L127 101L90 66L90 96Q90 97 91 98Q92 99 94 99L94 99L95 99L95 100L81 100L81 99L83 99Q84 99 85 98Q87 97 87 96L87 96L87 65Q87 60 86 57L86 57L86 56L87 56L124 91L124 61Q124 60 123 59Q122 58 120 58L120 58L119 58L119 57L132 57L132 58ZM140 63L140 63L140 64L140 64L140 56Q141 56 143 56Q146 57 148 57L148 57L164 57Q167 57 169 56Q172 56 172 56L172 56L172 56L145 98L165 98Q168 98 170 97Q173 96 174 94Q175 92 176 90L176 90L177 90L173 100L139 100L139 99L165 59L144 59Q142 59 141 61L141 61Q140 62 140 63ZM183 99L184 99Q185 99 187 98Q188 97 188 95L188 95L188 61Q188 60 187 59Q185 58 184 58L184 58L183 58L183 57L204 57Q207 57 209 56Q211 56 212 56L212 56L212 64L211 64L211 63Q211 61 210 60Q209 59 207 59L207 59L192 59L192 77L205 77Q206 77 207 76Q208 76 208 74L208 74L208 73L209 73L209 83L208 83L208 83Q208 80 206 80L206 80Q206 80 205 79L205 79L192 79L192 98L204 98Q207 98 209 97Q212 95 213 94Q214 92 215 90L215 90L216 90L212 100L183 100L183 99ZM221 99L222 99Q224 99 225 98Q226 97 227 95L227 95L227 61Q226 60 225 59Q224 58 222 58L222 58L221 58L221 57L236 57L236 58L235 58Q234 58 232 59Q231 60 231 61L231 61L231 98L242 98Q246 98 248 97Q250 95 251 94Q253 92 254 90L254 90L255 90L251 100L221 100L221 99ZM291 59L291 59L288 59L288 95Q288 98 290 99L290 99Q291 99 292 99L292 99L293 99L293 100L278 100L278 99L279 99Q281 99 282 98Q283 97 283 95L283 95L283 61Q283 60 282 59Q281 58 279 58L279 58L278 58L278 57L296 57Q303 57 307 60Q311 63 311 68Q311 73 307 76Q304 80 299 80L299 80Q302 81 305 86L305 86Q305 86 307 89Q310 92 312 94Q313 96 314 97L314 97Q317 99 320 99L320 99L320 100L318 100Q312 100 309 98L309 98Q307 96 305 94L305 94Q304 93 301 89Q298 84 298 84L298 84Q294 79 290 79L290 79L290 78Q299 78 300 77L300 77Q303 76 304 75L304 75Q305 72 305 68L305 68Q305 64 303 62Q300 59 296 59L296 59Q294 59 291 59ZM323 99L324 99Q326 99 327 98Q328 97 328 95L328 95L328 61Q328 60 327 59Q326 58 324 58L324 58L323 58L323 57L344 57Q347 57 349 56Q352 56 352 56L352 56L352 64L351 64L351 63Q351 61 350 60Q349 59 348 59L348 59L333 59L333 77L345 77Q347 77 347 76Q348 76 348 74L348 74L348 73L349 73L349 83L348 83L348 83Q348 80 347 80L347 80Q346 80 345 79L345 79L333 79L333 98L344 98Q347 98 350 97Q352 95 353 94Q354 92 356 90L356 90L356 90L352 100L323 100L323 99ZM386 101Q375 101 368 95Q362 89 362 78Q362 68 368 62Q375 56 385 56Q395 56 402 60L402 60L404 70L403 70Q402 64 397 61Q393 58 385 58Q377 58 372 63Q367 69 367 78Q367 88 372 93Q377 99 386 99Q395 99 401 93L401 93L402 83Q402 82 401 81Q400 80 398 80L398 80L397 80L397 79L410 79L410 80L409 80Q406 80 406 83L406 83L406 92Q403 95 398 98Q393 101 386 101L386 101ZM460 57L460 58L459 58Q457 58 456 59L456 59Q455 60 455 61L455 61L455 85Q455 92 450 97Q446 101 437 101Q429 101 424 97Q419 92 419 85L419 85L419 61Q419 59 418 58Q417 58 416 58L416 58L415 58L415 57L428 57L428 58L427 58Q426 58 425 58Q424 59 424 61L424 61L424 84Q424 91 427 95Q431 99 438 99Q444 99 448 95Q452 91 452 85L452 85L452 61Q452 59 451 58Q450 58 448 58L448 58L447 58L447 57L460 57ZM466 99L467 99Q469 99 470 98Q471 97 471 95L471 95L471 61Q471 60 470 59Q469 58 467 58L467 58L466 58L466 57L481 57L481 58L480 58Q479 58 477 59Q476 60 476 61L476 61L476 98L487 98Q491 98 493 97Q495 95 496 94Q498 92 499 90L499 90L499 90L495 100L466 100L466 99ZM548 99L548 99L549 99L549 100L534 100L534 99L535 99Q536 99 537 98Q538 97 538 97Q538 96 537 95L537 95L533 85L515 85L511 95Q511 96 511 97Q511 97 511 98Q512 99 514 99L514 99L514 99L514 100L500 100L500 99L501 99Q503 99 504 98Q506 97 507 95L507 95Q522 61 523 60L523 60Q524 57 524 56L524 56L525 56L543 95Q545 99 548 99ZM524 63L516 83L532 83L524 63ZM566 59L566 59L562 59L562 95Q562 98 564 99L564 99Q565 99 566 99L566 99L567 99L567 100L553 100L553 99L554 99Q555 99 556 98Q558 97 558 95L558 95L558 61Q558 60 556 59Q555 58 554 58L554 58L553 58L553 57L571 57Q577 57 581 60Q585 63 585 68Q585 73 582 76Q579 80 574 80L574 80Q576 81 580 86L580 86Q579 86 582 89Q585 92 586 94Q588 96 589 97L589 97Q591 99 595 99L595 99L595 100L593 100Q587 100 584 98L584 98Q581 96 579 94L579 94Q579 93 576 89Q572 84 572 84L572 84Q568 79 565 79L565 79L565 78Q573 78 575 77L575 77Q577 76 578 75L578 75Q580 72 580 68L580 68Q580 64 577 62Q575 59 570 59L570 59Q569 59 566 59Z"/></svg>