<svg xmlns="http://www.w3.org/2000/svg" viewBox="0.64 -7.91 54.83 8.01"><path d="M4.50-7.91Q5.26-7.91 5.82-7.71Q6.37-7.51 6.94-7.05L6.94-7.05Q7.06-6.96 7.10-6.87Q7.14-6.77 7.14-6.64L7.14-6.64Q7.14-6.44 7.00-6.31Q6.85-6.18 6.66-6.18L6.66-6.18Q6.47-6.18 6.31-6.31L6.31-6.31Q5.90-6.66 5.51-6.82Q5.12-6.97 4.50-6.97L4.50-6.97Q3.72-6.97 3.06-6.56Q2.41-6.15 2.02-5.45Q1.64-4.74 1.64-3.91L1.64-3.91Q1.64-3.07 2.02-2.37Q2.41-1.67 3.06-1.26Q3.72-0.85 4.50-0.85L4.50-0.85Q5.46-0.85 6.34-1.51L6.34-1.51Q6.51-1.63 6.67-1.63L6.67-1.63Q6.86-1.63 6.99-1.50Q7.11-1.36 7.11-1.14L7.11-1.14Q7.11-0.93 6.95-0.77L6.95-0.77Q5.87 0.10 4.50 0.10L4.50 0.10Q3.43 0.10 2.54-0.43Q1.66-0.96 1.15-1.88Q0.64-2.80 0.64-3.91L0.64-3.91Q0.64-5.01 1.15-5.92Q1.66-6.84 2.54-7.38Q3.43-7.91 4.50-7.91L4.50-7.91ZM10.75-5.51Q11.54-5.51 12.16-5.16Q12.79-4.80 13.14-4.17Q13.50-3.54 13.50-2.73L13.50-2.73Q13.50-1.93 13.15-1.30Q12.80-0.67 12.18-0.32Q11.55 0.04 10.75 0.04L10.75 0.04Q9.95 0.04 9.32-0.32Q8.69-0.67 8.34-1.30Q7.99-1.93 7.99-2.73L7.99-2.73Q7.99-3.54 8.34-4.17Q8.69-4.80 9.32-5.16Q9.95-5.51 10.75-5.51L10.75-5.51ZM10.75-4.61Q10.24-4.61 9.84-4.37Q9.43-4.13 9.20-3.70Q8.97-3.27 8.97-2.73L8.97-2.73Q8.97-2.19 9.20-1.77Q9.43-1.34 9.84-1.10Q10.24-0.86 10.75-0.86L10.75-0.86Q11.26-0.86 11.66-1.10Q12.07-1.34 12.29-1.77Q12.52-2.19 12.52-2.73L12.52-2.73Q12.52-3.27 12.29-3.70Q12.07-4.13 11.66-4.37Q11.26-4.61 10.75-4.61L10.75-4.61ZM20.77-5.52Q21.64-5.52 22.18-4.95Q22.71-4.38 22.71-3.36L22.71-3.36L22.71-0.50Q22.71-0.28 22.57-0.14Q22.43 0.01 22.20 0.01L22.20 0.01Q21.98 0.01 21.84-0.14Q21.69-0.28 21.69-0.50L21.69-0.50L21.69-3.36Q21.69-3.97 21.39-4.29Q21.08-4.60 20.57-4.60L20.57-4.60Q20.05-4.60 19.71-4.24Q19.38-3.88 19.38-3.32L19.38-3.32L19.38-0.50Q19.38-0.28 19.24-0.14Q19.10 0.01 18.87 0.01L18.87 0.01Q18.65 0.01 18.51-0.14Q18.36-0.28 18.36-0.50L18.36-0.50L18.36-3.36Q18.36-3.97 18.05-4.29Q17.75-4.60 17.24-4.60L17.24-4.60Q16.71-4.60 16.38-4.24Q16.04-3.88 16.04-3.32L16.04-3.32L16.04-0.50Q16.04-0.28 15.90-0.14Q15.76 0.01 15.53 0.01L15.53 0.01Q15.31 0.01 15.17-0.14Q15.02-0.28 15.02-0.50L15.02-0.50L15.02-4.95Q15.02-5.18 15.17-5.32Q15.31-5.46 15.53-5.46L15.53-5.46Q15.75-5.46 15.89-5.33Q16.03-5.19 16.04-4.97L16.04-4.97Q16.30-5.23 16.66-5.38Q17.02-5.52 17.44-5.52L17.44-5.52Q17.95-5.52 18.36-5.32Q18.76-5.11 19.02-4.73L19.02-4.73Q19.32-5.10 19.77-5.31Q20.22-5.52 20.77-5.52L20.77-5.52ZM26.76-6.89Q26.20-6.89 25.86-6.52Q25.52-6.15 25.52-5.54L25.52-5.54L25.52-5.27L26.54-5.27Q26.75-5.27 26.88-5.15Q27.01-5.03 27.01-4.83L27.01-4.83Q27.01-4.65 26.88-4.53Q26.75-4.41 26.54-4.41L26.54-4.41L25.52-4.41L25.52-0.51Q25.52-0.28 25.38-0.14Q25.24 0 24.99 0L24.99 0Q24.79 0 24.64-0.14Q24.50-0.28 24.50-0.51L24.50-0.51L24.50-4.41L24.07-4.41Q23.86-4.41 23.73-4.53Q23.60-4.65 23.60-4.83L23.60-4.83Q23.60-5.03 23.73-5.15Q23.86-5.27 24.07-5.27L24.07-5.27L24.50-5.27L24.50-5.44Q24.50-6.15 24.79-6.69Q25.07-7.22 25.59-7.52Q26.10-7.81 26.76-7.81L26.76-7.81Q26.98-7.81 27.13-7.68Q27.27-7.55 27.27-7.35L27.27-7.35Q27.27-7.15 27.13-7.02Q26.98-6.89 26.76-6.89L26.76-6.89ZM30.35-5.51Q31.14-5.51 31.77-5.16Q32.39-4.80 32.75-4.17Q33.10-3.54 33.10-2.73L33.10-2.73Q33.10-1.93 32.75-1.30Q32.40-0.67 31.78-0.32Q31.15 0.04 30.35 0.04L30.35 0.04Q29.55 0.04 28.92-0.32Q28.29-0.67 27.94-1.30Q27.59-1.93 27.59-2.73L27.59-2.73Q27.59-3.54 27.94-4.17Q28.29-4.80 28.92-5.16Q29.55-5.51 30.35-5.51L30.35-5.51ZM30.35-4.61Q29.84-4.61 29.44-4.37Q29.03-4.13 28.80-3.70Q28.57-3.27 28.57-2.73L28.57-2.73Q28.57-2.19 28.80-1.77Q29.03-1.34 29.44-1.10Q29.84-0.86 30.35-0.86L30.35-0.86Q30.86-0.86 31.27-1.10Q31.67-1.34 31.90-1.77Q32.12-2.19 32.12-2.73L32.12-2.73Q32.12-3.27 31.90-3.70Q31.67-4.13 31.27-4.37Q30.86-4.61 30.35-4.61L30.35-4.61ZM37.30-5.53Q37.83-5.53 38.13-5.37Q38.43-5.21 38.43-4.97L38.43-4.97Q38.43-4.90 38.42-4.87L38.42-4.87Q38.33-4.55 38.02-4.55L38.02-4.55Q37.97-4.55 37.87-4.57L37.87-4.57Q37.47-4.64 37.22-4.64L37.22-4.64Q36.50-4.64 36.06-4.31Q35.62-3.98 35.62-3.42L35.62-3.42L35.62-0.50Q35.62-0.26 35.49-0.13Q35.37 0 35.12 0L35.12 0Q34.88 0 34.75-0.13Q34.62-0.25 34.62-0.50L34.62-0.50L34.62-4.97Q34.62-5.21 34.75-5.34Q34.88-5.47 35.12-5.47L35.12-5.47Q35.62-5.47 35.62-4.97L35.62-4.97L35.62-4.78Q35.92-5.13 36.36-5.33Q36.80-5.53 37.30-5.53L37.30-5.53ZM41.81-1Q41.99-1 42.11-0.86Q42.24-0.72 42.24-0.50L42.24-0.50Q42.24-0.28 42.07-0.14Q41.91 0 41.65 0L41.65 0L41.47 0Q40.98 0 40.57-0.26Q40.17-0.51 39.94-0.95Q39.71-1.39 39.71-1.94L39.71-1.94L39.71-4.41L39.25-4.41Q39.04-4.41 38.91-4.53Q38.78-4.65 38.78-4.83L38.78-4.83Q38.78-5.03 38.91-5.15Q39.04-5.27 39.25-5.27L39.25-5.27L39.71-5.27L39.71-6.71Q39.71-6.93 39.85-7.07Q39.99-7.21 40.21-7.21L40.21-7.21Q40.43-7.21 40.57-7.07Q40.71-6.93 40.71-6.71L40.71-6.71L40.71-5.27L41.56-5.27Q41.77-5.27 41.90-5.15Q42.03-5.03 42.03-4.83L42.03-4.83Q42.03-4.65 41.90-4.53Q41.77-4.41 41.56-4.41L41.56-4.41L40.71-4.41L40.71-1.94Q40.71-1.54 40.93-1.27Q41.15-1 41.47-1L41.47-1L41.81-1ZM45.97-5.51Q46.74-5.51 47.36-5.15Q47.99-4.78 48.35-4.15Q48.72-3.51 48.72-2.73L48.72-2.73L48.72-0.50Q48.72-0.28 48.57-0.14Q48.43 0.01 48.21 0.01L48.21 0.01Q47.99 0.01 47.84-0.14Q47.70-0.28 47.70-0.50L47.70-0.50L47.70-0.87Q47.35-0.44 46.85-0.20Q46.35 0.04 45.77 0.04L45.77 0.04Q45.05 0.04 44.46-0.32Q43.88-0.68 43.54-1.31Q43.21-1.95 43.21-2.73L43.21-2.73Q43.21-3.51 43.57-4.15Q43.93-4.78 44.56-5.15Q45.20-5.51 45.97-5.51L45.97-5.51ZM45.97-0.86Q46.47-0.86 46.88-1.10Q47.28-1.35 47.51-1.78Q47.74-2.20 47.74-2.73L47.74-2.73Q47.74-3.26 47.51-3.69Q47.28-4.12 46.88-4.37Q46.47-4.61 45.97-4.61L45.97-4.61Q45.47-4.61 45.06-4.37Q44.66-4.12 44.42-3.69Q44.19-3.26 44.19-2.73L44.19-2.73Q44.19-2.20 44.42-1.78Q44.66-1.35 45.06-1.10Q45.47-0.86 45.97-0.86L45.97-0.86ZM52.72-5.51Q53.49-5.51 54.11-5.15Q54.74-4.78 55.10-4.15Q55.47-3.51 55.47-2.73L55.47-2.73L55.47-0.50Q55.47-0.28 55.32-0.14Q55.18 0.01 54.96 0.01L54.96 0.01Q54.74 0.01 54.59-0.14Q54.45-0.28 54.45-0.50L54.45-0.50L54.45-0.87Q54.10-0.44 53.60-0.20Q53.10 0.04 52.52 0.04L52.52 0.04Q51.80 0.04 51.21-0.32Q50.63-0.68 50.29-1.31Q49.96-1.95 49.96-2.73L49.96-2.73Q49.96-3.51 50.32-4.15Q50.68-4.78 51.31-5.15Q51.95-5.51 52.72-5.51L52.72-5.51ZM52.72-0.86Q53.22-0.86 53.63-1.10Q54.03-1.35 54.26-1.78Q54.49-2.20 54.49-2.73L54.49-2.73Q54.49-3.26 54.26-3.69Q54.03-4.12 53.63-4.37Q53.22-4.61 52.72-4.61L52.72-4.61Q52.22-4.61 51.81-4.37Q51.41-4.12 51.17-3.69Q50.94-3.26 50.94-2.73L50.94-2.73Q50.94-2.20 51.17-1.78Q51.41-1.35 51.81-1.10Q52.22-0.86 52.72-0.86L52.72-0.86Z"/></svg>