<svg xmlns="http://www.w3.org/2000/svg" viewBox="4.6080000000000005 43.047999999999995 583.1280000000002 57.672000000000004"><path d="M32.40 43.05Q37.87 43.05 41.87 44.49Q45.86 45.93 49.97 49.24L49.97 49.24Q50.83 49.89 51.12 50.57Q51.41 51.26 51.41 52.19L51.41 52.19Q51.41 53.63 50.36 54.57Q49.32 55.50 47.95 55.50L47.95 55.50Q46.58 55.50 45.43 54.57L45.43 54.57Q42.48 52.05 39.67 50.93Q36.86 49.82 32.40 49.82L32.40 49.82Q26.78 49.82 22.07 52.77Q17.35 55.72 14.58 60.80Q11.81 65.87 11.81 71.85L11.81 71.85Q11.81 77.90 14.58 82.94Q17.35 87.98 22.07 90.93Q26.78 93.88 32.40 93.88L32.40 93.88Q39.31 93.88 45.65 89.13L45.65 89.13Q46.87 88.26 48.02 88.26L48.02 88.26Q49.39 88.26 50.29 89.24Q51.19 90.21 51.19 91.79L51.19 91.79Q51.19 93.30 50.04 94.46L50.04 94.46Q42.26 100.72 32.40 100.72L32.40 100.72Q24.70 100.72 18.32 96.90Q11.95 93.09 8.28 86.46Q4.61 79.84 4.61 71.85L4.61 71.85Q4.61 63.93 8.28 57.34Q11.95 50.75 18.32 46.90Q24.70 43.05 32.40 43.05L32.40 43.05ZM77.40 60.33Q83.09 60.33 87.59 62.88Q92.09 65.44 94.64 69.98Q97.20 74.51 97.20 80.34L97.20 80.34Q97.20 86.10 94.68 90.64Q92.16 95.18 87.66 97.73Q83.16 100.29 77.40 100.29L77.40 100.29Q71.64 100.29 67.10 97.73Q62.57 95.18 60.05 90.64Q57.53 86.10 57.53 80.34L57.53 80.34Q57.53 74.51 60.05 69.98Q62.57 65.44 67.10 62.88Q71.64 60.33 77.40 60.33L77.40 60.33ZM77.40 66.81Q73.73 66.81 70.81 68.54Q67.90 70.26 66.24 73.36Q64.58 76.46 64.58 80.34L64.58 80.34Q64.58 84.23 66.24 87.29Q67.90 90.35 70.81 92.08Q73.73 93.81 77.40 93.81L77.40 93.81Q81.07 93.81 83.99 92.08Q86.90 90.35 88.52 87.29Q90.14 84.23 90.14 80.34L90.14 80.34Q90.14 76.46 88.52 73.36Q86.90 70.26 83.99 68.54Q81.07 66.81 77.40 66.81L77.40 66.81ZM149.54 60.26Q155.81 60.26 159.66 64.36Q163.51 68.46 163.51 75.81L163.51 75.81L163.51 96.40Q163.51 97.98 162.50 99.03Q161.50 100.07 159.84 100.07L159.84 100.07Q158.26 100.07 157.21 99.03Q156.17 97.98 156.17 96.40L156.17 96.40L156.17 75.81Q156.17 71.42 153.97 69.15Q151.78 66.88 148.10 66.88L148.10 66.88Q144.36 66.88 141.95 69.47Q139.54 72.06 139.54 76.10L139.54 76.10L139.54 96.40Q139.54 97.98 138.53 99.03Q137.52 100.07 135.86 100.07L135.86 100.07Q134.28 100.07 133.24 99.03Q132.19 97.98 132.19 96.40L132.19 96.40L132.19 75.81Q132.19 71.42 130.00 69.15Q127.80 66.88 124.13 66.88L124.13 66.88Q120.31 66.88 117.90 69.47Q115.49 72.06 115.49 76.10L115.49 76.10L115.49 96.40Q115.49 97.98 114.48 99.03Q113.47 100.07 111.82 100.07L111.82 100.07Q110.23 100.07 109.19 99.03Q108.14 97.98 108.14 96.40L108.14 96.40L108.14 64.36Q108.14 62.70 109.19 61.70Q110.23 60.69 111.82 60.69L111.82 60.69Q113.40 60.69 114.41 61.66Q115.42 62.63 115.49 64.22L115.49 64.22Q117.36 62.34 119.95 61.30Q122.54 60.26 125.57 60.26L125.57 60.26Q129.24 60.26 132.16 61.73Q135.07 63.21 136.94 65.94L136.94 65.94Q139.10 63.28 142.34 61.77Q145.58 60.26 149.54 60.26L149.54 60.26ZM192.67 50.39Q188.64 50.39 186.19 53.06Q183.74 55.72 183.74 60.11L183.74 60.11L183.74 62.06L191.09 62.06Q192.60 62.06 193.54 62.92Q194.47 63.78 194.47 65.22L194.47 65.22Q194.47 66.52 193.54 67.38Q192.60 68.25 191.09 68.25L191.09 68.25L183.74 68.25L183.74 96.33Q183.74 97.98 182.74 98.99Q181.73 100 179.93 100L179.93 100Q178.49 100 177.44 98.99Q176.40 97.98 176.40 96.33L176.40 96.33L176.40 68.25L173.30 68.25Q171.79 68.25 170.86 67.38Q169.92 66.52 169.92 65.22L169.92 65.22Q169.92 63.78 170.86 62.92Q171.79 62.06 173.30 62.06L173.30 62.06L176.40 62.06L176.40 60.83Q176.40 55.72 178.45 51.87Q180.50 48.02 184.21 45.89Q187.92 43.77 192.67 43.77L192.67 43.77Q194.26 43.77 195.30 44.70Q196.34 45.64 196.34 47.08L196.34 47.08Q196.34 48.52 195.30 49.46Q194.26 50.39 192.67 50.39L192.67 50.39ZM218.52 60.33Q224.21 60.33 228.71 62.88Q233.21 65.44 235.76 69.98Q238.32 74.51 238.32 80.34L238.32 80.34Q238.32 86.10 235.80 90.64Q233.28 95.18 228.78 97.73Q224.28 100.29 218.52 100.29L218.52 100.29Q212.76 100.29 208.22 97.73Q203.69 95.18 201.17 90.64Q198.65 86.10 198.65 80.34L198.65 80.34Q198.65 74.51 201.17 69.98Q203.69 65.44 208.22 62.88Q212.76 60.33 218.52 60.33L218.52 60.33ZM218.52 66.81Q214.85 66.81 211.93 68.54Q209.02 70.26 207.36 73.36Q205.70 76.46 205.70 80.34L205.70 80.34Q205.70 84.23 207.36 87.29Q209.02 90.35 211.93 92.08Q214.85 93.81 218.52 93.81L218.52 93.81Q222.19 93.81 225.11 92.08Q228.02 90.35 229.64 87.29Q231.26 84.23 231.26 80.34L231.26 80.34Q231.26 76.46 229.64 73.36Q228.02 70.26 225.11 68.54Q222.19 66.81 218.52 66.81L218.52 66.81ZM268.56 60.18Q272.38 60.18 274.54 61.34Q276.70 62.49 276.70 64.22L276.70 64.22Q276.70 64.72 276.62 64.94L276.62 64.94Q275.98 67.24 273.74 67.24L273.74 67.24Q273.38 67.24 272.66 67.10L272.66 67.10Q269.78 66.59 267.98 66.59L267.98 66.59Q262.80 66.59 259.63 68.97Q256.46 71.34 256.46 75.38L256.46 75.38L256.46 96.40Q256.46 98.13 255.56 99.06Q254.66 100 252.86 100L252.86 100Q251.14 100 250.20 99.10Q249.26 98.20 249.26 96.40L249.26 96.40L249.26 64.22Q249.26 62.49 250.20 61.55Q251.14 60.62 252.86 60.62L252.86 60.62Q256.46 60.62 256.46 64.22L256.46 64.22L256.46 65.58Q258.62 63.06 261.79 61.62Q264.96 60.18 268.56 60.18L268.56 60.18ZM301.03 92.80Q302.33 92.80 303.23 93.81Q304.13 94.82 304.13 96.40L304.13 96.40Q304.13 97.98 302.94 98.99Q301.75 100 299.88 100L299.88 100L298.58 100Q295.06 100 292.14 98.16Q289.22 96.33 287.57 93.16Q285.91 89.99 285.91 86.03L285.91 86.03L285.91 68.25L282.60 68.25Q281.09 68.25 280.15 67.38Q279.22 66.52 279.22 65.22L279.22 65.22Q279.22 63.78 280.15 62.92Q281.09 62.06 282.60 62.06L282.60 62.06L285.91 62.06L285.91 51.69Q285.91 50.10 286.92 49.10Q287.93 48.09 289.51 48.09L289.51 48.09Q291.10 48.09 292.10 49.10Q293.11 50.10 293.11 51.69L293.11 51.69L293.11 62.06L299.23 62.06Q300.74 62.06 301.68 62.92Q302.62 63.78 302.62 65.22L302.62 65.22Q302.62 66.52 301.68 67.38Q300.74 68.25 299.23 68.25L299.23 68.25L293.11 68.25L293.11 86.03Q293.11 88.91 294.70 90.86Q296.28 92.80 298.58 92.80L298.58 92.80L301.03 92.80ZM330.98 60.33Q336.53 60.33 341.03 62.96Q345.53 65.58 348.16 70.16Q350.78 74.73 350.78 80.34L350.78 80.34L350.78 96.40Q350.78 97.98 349.74 99.03Q348.70 100.07 347.11 100.07L347.11 100.07Q345.53 100.07 344.48 99.03Q343.44 97.98 343.44 96.40L343.44 96.40L343.44 93.74Q340.92 96.83 337.32 98.56Q333.72 100.29 329.54 100.29L329.54 100.29Q324.36 100.29 320.15 97.70Q315.94 95.10 313.52 90.53Q311.11 85.96 311.11 80.34L311.11 80.34Q311.11 74.73 313.70 70.16Q316.30 65.58 320.87 62.96Q325.44 60.33 330.98 60.33L330.98 60.33ZM330.98 93.81Q334.58 93.81 337.50 92.04Q340.42 90.28 342.07 87.22Q343.73 84.16 343.73 80.34L343.73 80.34Q343.73 76.53 342.07 73.43Q340.42 70.34 337.50 68.57Q334.58 66.81 330.98 66.81L330.98 66.81Q327.38 66.81 324.47 68.57Q321.55 70.34 319.86 73.43Q318.17 76.53 318.17 80.34L318.17 80.34Q318.17 84.16 319.86 87.22Q321.55 90.28 324.47 92.04Q327.38 93.81 330.98 93.81L330.98 93.81ZM379.58 60.33Q385.13 60.33 389.63 62.96Q394.13 65.58 396.76 70.16Q399.38 74.73 399.38 80.34L399.38 80.34L399.38 96.40Q399.38 97.98 398.34 99.03Q397.30 100.07 395.71 100.07L395.71 100.07Q394.13 100.07 393.08 99.03Q392.04 97.98 392.04 96.40L392.04 96.40L392.04 93.74Q389.52 96.83 385.92 98.56Q382.32 100.29 378.14 100.29L378.14 100.29Q372.96 100.29 368.75 97.70Q364.54 95.10 362.12 90.53Q359.71 85.96 359.71 80.34L359.71 80.34Q359.71 74.73 362.30 70.16Q364.90 65.58 369.47 62.96Q374.04 60.33 379.58 60.33L379.58 60.33ZM379.58 93.81Q383.18 93.81 386.10 92.04Q389.02 90.28 390.67 87.22Q392.33 84.16 392.33 80.34L392.33 80.34Q392.33 76.53 390.67 73.43Q389.02 70.34 386.10 68.57Q383.18 66.81 379.58 66.81L379.58 66.81Q375.98 66.81 373.07 68.57Q370.15 70.34 368.46 73.43Q366.77 76.53 366.77 80.34L366.77 80.34Q366.77 84.16 368.46 87.22Q370.15 90.28 373.07 92.04Q375.98 93.81 379.58 93.81L379.58 93.81ZM435.10 43.77Q433.44 43.77 432.43 44.78Q431.42 45.78 431.42 47.44L431.42 47.44L431.42 80.27Q431.42 85.89 434.05 90.46Q436.68 95.03 441.18 97.66Q445.68 100.29 451.22 100.29L451.22 100.29Q456.77 100.29 461.34 97.66Q465.91 95.03 468.50 90.46Q471.10 85.89 471.10 80.27L471.10 80.27Q471.10 74.66 468.68 70.08Q466.27 65.51 462.06 62.92Q457.85 60.33 452.66 60.33L452.66 60.33Q448.49 60.33 444.89 62.06Q441.29 63.78 438.77 66.88L438.77 66.88L438.77 47.44Q438.77 45.78 437.72 44.78Q436.68 43.77 435.10 43.77L435.10 43.77ZM451.22 93.81Q447.62 93.81 444.71 92.04Q441.79 90.28 440.14 87.18Q438.48 84.09 438.48 80.27L438.48 80.27Q438.48 76.46 440.14 73.40Q441.79 70.34 444.71 68.57Q447.62 66.81 451.22 66.81L451.22 66.81Q454.82 66.81 457.74 68.57Q460.66 70.34 462.35 73.40Q464.04 76.46 464.04 80.27L464.04 80.27Q464.04 84.09 462.35 87.18Q460.66 90.28 457.74 92.04Q454.82 93.81 451.22 93.81L451.22 93.81ZM499.90 60.33Q505.58 60.33 510.08 62.88Q514.58 65.44 517.14 69.98Q519.70 74.51 519.70 80.34L519.70 80.34Q519.70 86.10 517.18 90.64Q514.66 95.18 510.16 97.73Q505.66 100.29 499.90 100.29L499.90 100.29Q494.14 100.29 489.60 97.73Q485.06 95.18 482.54 90.64Q480.02 86.10 480.02 80.34L480.02 80.34Q480.02 74.51 482.54 69.98Q485.06 65.44 489.60 62.88Q494.14 60.33 499.90 60.33L499.90 60.33ZM499.90 66.81Q496.22 66.81 493.31 68.54Q490.39 70.26 488.74 73.36Q487.08 76.46 487.08 80.34L487.08 80.34Q487.08 84.23 488.74 87.29Q490.39 90.35 493.31 92.08Q496.22 93.81 499.90 93.81L499.90 93.81Q503.57 93.81 506.48 92.08Q509.40 90.35 511.02 87.29Q512.64 84.23 512.64 80.34L512.64 80.34Q512.64 76.46 511.02 73.36Q509.40 70.26 506.48 68.54Q503.57 66.81 499.90 66.81L499.90 66.81ZM529.20 47.37Q529.20 45.78 530.21 44.78Q531.22 43.77 532.80 43.77L532.80 43.77Q534.38 43.77 535.39 44.78Q536.40 45.78 536.40 47.37L536.40 47.37L536.40 86.68Q536.40 89.34 537.41 91.07Q538.42 92.80 540.00 92.80L540.00 92.80L541.80 92.80Q543.24 92.80 544.14 93.81Q545.04 94.82 545.04 96.40L545.04 96.40Q545.04 97.98 543.67 98.99Q542.30 100 540.14 100L540.14 100L540.00 100Q536.90 100 534.42 98.31Q531.94 96.62 530.57 93.56Q529.20 90.50 529.20 86.68L529.20 86.68L529.20 47.37ZM584.06 43.77Q585.72 43.77 586.73 44.78Q587.74 45.78 587.74 47.44L587.74 47.44L587.74 80.27Q587.74 85.89 585.11 90.46Q582.48 95.03 577.98 97.66Q573.48 100.29 567.94 100.29L567.94 100.29Q562.39 100.29 557.82 97.66Q553.25 95.03 550.66 90.46Q548.06 85.89 548.06 80.27L548.06 80.27Q548.06 74.66 550.48 70.08Q552.89 65.51 557.10 62.92Q561.31 60.33 566.50 60.33L566.50 60.33Q570.67 60.33 574.27 62.06Q577.87 63.78 580.39 66.88L580.39 66.88L580.39 47.44Q580.39 45.78 581.44 44.78Q582.48 43.77 584.06 43.77L584.06 43.77ZM567.94 93.81Q571.54 93.81 574.45 92.04Q577.37 90.28 579.02 87.18Q580.68 84.09 580.68 80.27L580.68 80.27Q580.68 76.46 579.02 73.40Q577.37 70.34 574.45 68.57Q571.54 66.81 567.94 66.81L567.94 66.81Q564.34 66.81 561.42 68.57Q558.50 70.34 556.81 73.40Q555.12 76.46 555.12 80.27L555.12 80.27Q555.12 84.09 556.81 87.18Q558.50 90.28 561.42 92.04Q564.34 93.81 567.94 93.81L567.94 93.81Z"/></svg>