<svg xmlns="http://www.w3.org/2000/svg" viewBox="4.32 43.047999999999995 582.1200000000001 72"><path d="M32 43Q43 43 50 49L50 49Q51 50 51 51L51 51Q51 52 50 52Q50 53 49 53L49 53Q48 53 47 52L47 52Q41 47 32 47L32 47Q26 47 21 51Q15 54 12 60Q9 65 9 72L9 72Q9 78 12 84Q15 90 21 93Q26 96 32 96L32 96Q41 96 47 91L47 91Q48 91 48 91L48 91Q49 91 50 91Q51 92 51 93L51 93Q51 94 50 95L50 95Q44 101 32 101L32 101Q25 101 18 97Q12 93 8 86Q4 80 4 72L4 72Q4 64 8 58Q12 51 18 47Q25 43 32 43L32 43ZM77 60Q82 60 87 63Q92 65 94 70Q97 75 97 80L97 80Q97 86 94 91Q92 95 87 98Q82 100 77 100L77 100Q71 100 67 98Q62 95 59 91Q57 86 57 80L57 80Q57 75 59 70Q62 65 67 63Q71 60 77 60L77 60ZM77 64Q72 64 69 66Q65 68 63 72Q61 76 61 80L61 80Q61 85 63 89Q65 92 69 94Q72 96 77 96L77 96Q81 96 85 94Q88 92 91 89Q93 85 93 80L93 80Q93 76 91 72Q88 68 85 66Q81 64 77 64L77 64ZM149 60Q154 60 157 62Q160 64 162 68Q164 72 164 77L164 77L164 98Q164 99 164 99Q163 100 162 100L162 100Q161 100 160 99Q160 99 160 98L160 98L160 77Q160 71 157 68Q154 64 149 64L149 64Q144 64 141 68Q138 71 138 77L138 77L138 77L138 98Q138 99 138 99Q137 100 136 100L136 100Q135 100 134 99Q134 99 134 98L134 98L134 77Q134 71 131 68Q128 64 123 64L123 64Q118 64 115 68Q112 71 112 76L112 76L112 98Q112 99 111 99Q111 100 110 100L110 100Q109 100 108 99Q108 99 108 98L108 98L108 63Q108 62 108 61Q109 61 110 61L110 61Q111 61 111 61Q112 62 112 63L112 63L112 66Q114 63 117 62Q120 60 123 60L123 60Q128 60 131 62Q134 64 136 68L136 68Q138 64 141 62Q145 60 149 60L149 60ZM194 48Q189 48 186 51Q184 55 184 61L184 61L184 62L193 62Q194 62 195 63Q195 63 195 64L195 64Q195 65 195 65Q194 66 193 66L193 66L184 66L184 98Q184 99 183 99Q183 100 182 100L182 100Q181 100 180 99Q180 99 180 98L180 98L180 66L174 66Q173 66 173 65Q172 65 172 64L172 64Q172 63 173 63Q173 62 174 62L174 62L180 62L180 61Q180 53 183 48Q187 44 194 44L194 44Q195 44 196 44Q196 45 196 46L196 46Q196 47 196 47Q195 48 194 48L194 48ZM219 60Q225 60 229 63Q234 65 237 70Q239 75 239 80L239 80Q239 86 237 91Q234 95 229 98Q225 100 219 100L219 100Q213 100 209 98Q204 95 202 91Q199 86 199 80L199 80Q199 75 202 70Q204 65 209 63Q213 60 219 60L219 60ZM219 64Q215 64 211 66Q208 68 205 72Q203 76 203 80L203 80Q203 85 205 89Q208 92 211 94Q215 96 219 96L219 96Q224 96 227 94Q231 92 233 89Q235 85 235 80L235 80Q235 76 233 72Q231 68 227 66Q224 64 219 64L219 64ZM267 60Q272 60 272 63L272 63Q272 63 272 63L272 63Q272 64 271 64Q271 65 270 65L270 65Q270 65 269 64Q267 64 267 64L267 64Q263 64 260 66Q258 67 256 70Q254 73 254 76L254 76L254 98Q254 99 254 99Q253 100 252 100L252 100Q251 100 251 99Q250 99 250 98L250 98L250 63Q250 62 251 61Q251 61 252 61L252 61Q253 61 254 61Q254 62 254 63L254 63L254 67Q256 64 260 62Q263 60 267 60L267 60ZM299 96Q300 96 301 96Q302 97 302 98L302 98Q302 99 301 99Q300 100 299 100L299 100L298 100Q294 100 291 98Q288 96 286 93Q284 90 284 86L284 86L284 66L278 66Q278 66 277 65Q277 65 277 64L277 64Q277 63 277 63Q278 62 278 62L278 62L284 62L284 50Q284 49 285 49Q285 48 286 48L286 48Q287 48 288 49Q289 49 289 50L289 50L289 62L298 62Q299 62 299 63Q300 63 300 64L300 64Q300 65 299 65Q299 66 298 66L298 66L289 66L289 86Q289 90 291 93Q294 96 298 96L298 96L299 96ZM329 60Q334 60 339 63Q343 65 346 70Q349 75 349 80L349 80L349 98Q349 99 348 99Q348 100 347 100L347 100Q346 100 345 99Q344 99 344 98L344 98L344 92Q342 96 338 98Q334 100 329 100L329 100Q323 100 318 98Q314 95 311 91Q308 86 308 80L308 80Q308 75 311 70Q314 65 318 63Q323 60 329 60L329 60ZM329 96Q333 96 337 94Q340 92 342 89Q344 85 344 80L344 80Q344 76 342 72Q340 68 337 66Q333 64 329 64L329 64Q324 64 321 66Q317 68 315 72Q313 76 313 80L313 80Q313 85 315 89Q317 92 321 94Q324 96 329 96L329 96ZM377 60Q383 60 388 63Q392 65 395 70Q398 75 398 80L398 80L398 98Q398 99 397 99Q396 100 395 100L395 100Q394 100 394 99Q393 99 393 98L393 98L393 92Q391 96 387 98Q383 100 377 100L377 100Q372 100 367 98Q363 95 360 91Q357 86 357 80L357 80Q357 75 360 70Q363 65 367 63Q372 60 377 60L377 60ZM377 96Q382 96 386 94Q389 92 391 89Q393 85 393 80L393 80Q393 76 391 72Q389 68 386 66Q382 64 377 64L377 64Q373 64 369 66Q366 68 364 72Q362 76 362 80L362 80Q362 85 364 89Q366 92 369 94Q373 96 377 96L377 96ZM428 46Q428 45 429 44Q429 44 430 44L430 44Q431 44 432 44Q432 45 432 46L432 46L432 88Q432 91 434 94Q435 96 437 96L437 96L439 96Q440 96 440 96Q441 97 441 98L441 98Q441 99 440 99Q440 100 439 100L439 100L437 100Q433 100 431 97Q428 93 428 88L428 88L428 46ZM450 63Q450 62 451 61Q452 61 453 61L453 61Q454 61 454 61Q455 62 455 63L455 63L455 98Q455 99 454 99Q454 100 453 100L453 100Q452 100 451 99Q450 99 450 98L450 98L450 63ZM453 46Q454 46 455 47Q456 47 456 49L456 49Q456 50 455 51Q454 52 452 52L452 52Q451 52 450 51Q449 50 449 49L449 49Q449 47 450 47Q451 46 453 46L453 46ZM487 60Q493 60 497 63Q502 65 505 70Q507 75 507 80L507 80L507 94Q507 100 505 105Q502 110 497 112Q493 115 487 115L487 115Q482 115 477 113Q473 111 470 107L470 107Q470 106 470 106L470 106Q470 105 470 104L470 104Q471 104 472 104L472 104Q473 104 474 105L474 105Q476 108 479 109Q483 111 487 111L487 111Q492 111 495 109Q499 107 501 103Q503 99 503 94L503 94L503 91Q501 96 497 98Q492 100 487 100L487 100Q481 100 477 98Q472 95 470 91Q467 86 467 80L467 80Q467 75 470 70Q472 65 477 63Q481 60 487 60L487 60ZM487 96Q492 96 495 94Q499 92 501 89Q503 85 503 80L503 80Q503 76 501 72Q499 68 495 66Q492 64 487 64L487 64Q482 64 479 66Q475 68 473 72Q471 76 471 80L471 80Q471 85 473 89Q475 92 479 94Q482 96 487 96L487 96ZM536 60Q541 60 545 62Q550 64 552 69Q554 73 554 78L554 78L554 98Q554 99 554 99Q553 100 552 100L552 100Q551 100 550 99Q550 99 550 98L550 98L550 78Q550 72 546 68Q542 64 536 64L536 64Q532 64 529 66Q526 67 524 70Q522 73 522 76L522 76L522 98Q522 99 522 99Q521 100 520 100L520 100Q519 100 519 99Q518 99 518 98L518 98L518 46Q518 45 519 44Q519 44 520 44L520 44Q521 44 522 44Q522 45 522 46L522 46L522 67Q525 63 528 62Q532 60 536 60L536 60ZM584 96Q585 96 586 96Q586 97 586 98L586 98Q586 99 586 99Q585 100 584 100L584 100L583 100Q579 100 575 98Q572 96 571 93Q569 90 569 86L569 86L569 66L563 66Q562 66 562 65Q561 65 561 64L561 64Q561 63 562 63Q562 62 563 62L563 62L569 62L569 50Q569 49 570 49Q570 48 571 48L571 48Q572 48 573 49Q573 49 573 50L573 50L573 62L583 62Q584 62 584 63Q585 63 585 64L585 64Q585 65 584 65Q584 66 583 66L583 66L573 66L573 86Q573 90 576 93Q579 96 583 96L583 96L584 96Z"/></svg>