<svg xmlns="http://www.w3.org/2000/svg" viewBox="3.6000000000000005 46.288 574.488 54.64800000000001"><path d="M24.41 100.86L24.41 100.86Q13.90 100.86 8.75 95.46Q3.60 90.06 3.60 80.42L3.60 80.42Q3.60 69.11 10.30 59.90L10.30 59.90Q13.54 55.43 18.97 52.66Q24.41 49.89 31.72 49.89Q39.02 49.89 45.65 53.63L45.65 53.63Q46.44 53.99 46.44 54.50Q46.44 55.00 46.37 55.29L46.37 55.29L44.78 64.29Q44.64 65.37 43.42 65.37L43.42 65.37L39.53 65.37Q38.81 65.37 38.63 65.15Q38.45 64.94 38.59 64.29L38.59 64.29L39.74 59.18Q36.00 56.22 30.71 56.22Q25.42 56.22 21.82 58.28Q18.22 60.33 16.27 63.86L16.27 63.86Q12.46 70.62 12.46 79.70L12.46 79.70Q12.46 86.54 15.62 90.53Q18.79 94.53 25.13 94.53Q31.46 94.53 33.91 92.44L33.91 92.44L34.56 87.76Q34.70 87.04 34.92 86.82Q35.14 86.61 35.86 86.61L35.86 86.61L39.82 86.61Q40.54 86.61 40.72 86.82Q40.90 87.04 40.75 87.69L40.75 87.69L39.17 96.69Q38.88 97.84 37.94 98.27L37.94 98.27Q32.11 100.86 24.41 100.86ZM55.30 100L49.61 100Q48.60 100 48.60 99.42L48.60 99.42Q48.60 99.21 48.67 98.92L48.67 98.92L53.64 70.19L50.54 70.19Q49.82 70.26 49.64 70.05Q49.46 69.83 49.61 69.18L49.61 69.18L50.26 65.44Q50.40 64.36 51.62 64.36L51.62 64.36L60.77 64.36Q61.49 64.36 61.67 64.58Q61.85 64.79 61.70 65.44L61.70 65.44L60.70 71.34Q65.23 63.57 72.72 63.57L72.72 63.57Q77.47 63.57 77.47 64.94L77.47 64.94Q77.47 65.15 77.40 65.44L77.40 65.44L75.74 74.94Q75.60 76.02 74.38 76.02L74.38 76.02L70.27 76.02Q69.55 76.02 69.37 75.81Q69.19 75.59 69.34 74.94L69.34 74.94L69.98 71.13Q68.98 70.98 68.54 70.98L68.54 70.98Q61.56 70.98 59.83 80.78L59.83 80.78L56.66 98.92Q56.59 99.57 56.30 99.78Q56.02 100 55.30 100L55.30 100ZM106.92 96.69L106.92 96.69Q101.16 100.86 93.74 100.86Q86.33 100.86 82.87 97.08Q79.42 93.30 79.42 86.68L79.42 86.68Q79.42 77.97 84.24 71.06L84.24 71.06Q86.62 67.67 90.54 65.62Q94.46 63.57 99.61 63.57Q104.76 63.57 107.64 66.20Q110.52 68.82 110.52 73.14L110.52 73.14Q110.45 79.62 105.19 82.58Q99.94 85.53 92.45 85.53L92.45 85.53Q90.72 85.53 87.84 85.24L87.84 85.24Q87.77 85.82 87.77 86.82L87.77 86.82Q87.77 90.42 89.75 92.62Q91.73 94.82 96.05 94.82Q100.37 94.82 104.47 92.37L104.47 92.37Q105.48 91.86 105.98 92.80L105.98 92.80L107.21 95.03Q107.78 95.97 106.92 96.69ZM97.63 69.76L97.63 69.76Q93.89 69.76 91.51 72.64Q89.14 75.52 88.42 79.91L88.42 79.91Q89.86 80.20 91.15 80.20L91.15 80.20Q95.69 80.20 98.96 78.54Q102.24 76.89 102.24 73.50L102.24 73.50Q102.24 71.70 100.98 70.73Q99.72 69.76 97.63 69.76ZM129.38 64.36L136.58 64.36Q137.59 64.36 137.59 64.94L137.59 64.94Q137.59 65.15 137.52 65.44L137.52 65.44L136.87 69.26Q136.73 69.90 136.48 70.12Q136.22 70.34 135.50 70.26L135.50 70.26L128.30 70.26L125.28 87.18Q124.85 89.63 124.85 91.47Q124.85 93.30 125.60 94.20Q126.36 95.10 128.45 95.10Q130.54 95.10 132.55 94.31L132.55 94.31Q133.56 93.95 133.99 94.96L133.99 94.96L134.64 97.41Q135.00 98.49 133.99 98.92L133.99 98.92Q129.67 100.86 124.96 100.86Q120.24 100.86 118.33 98.92Q116.42 96.98 116.42 93.52L116.42 93.52Q116.42 91.50 117.14 87.62L117.14 87.62L120.31 70.26L116.28 70.26Q115.27 70.34 115.27 69.76L115.27 69.76Q115.27 69.54 115.34 69.26L115.34 69.26L115.92 65.44Q116.06 64.79 116.32 64.58Q116.57 64.36 117.29 64.36L117.29 64.36L121.32 64.36L122.98 54.64Q123.12 53.99 123.37 53.78Q123.62 53.56 124.34 53.56L124.34 53.56L130.10 53.56Q130.82 53.56 131.00 53.78Q131.18 53.99 131.04 54.64L131.04 54.64L129.38 64.36ZM167.04 96.69L167.04 96.69Q161.28 100.86 153.86 100.86Q146.45 100.86 142.99 97.08Q139.54 93.30 139.54 86.68L139.54 86.68Q139.54 77.97 144.36 71.06L144.36 71.06Q146.74 67.67 150.66 65.62Q154.58 63.57 159.73 63.57Q164.88 63.57 167.76 66.20Q170.64 68.82 170.64 73.14L170.64 73.14Q170.57 79.62 165.31 82.58Q160.06 85.53 152.57 85.53L152.57 85.53Q150.84 85.53 147.96 85.24L147.96 85.24Q147.89 85.82 147.89 86.82L147.89 86.82Q147.89 90.42 149.87 92.62Q151.85 94.82 156.17 94.82Q160.49 94.82 164.59 92.37L164.59 92.37Q165.60 91.86 166.10 92.80L166.10 92.80L167.33 95.03Q167.90 95.97 167.04 96.69ZM157.75 69.76L157.75 69.76Q154.01 69.76 151.63 72.64Q149.26 75.52 148.54 79.91L148.54 79.91Q149.98 80.20 151.27 80.20L151.27 80.20Q155.81 80.20 159.08 78.54Q162.36 76.89 162.36 73.50L162.36 73.50Q162.36 71.70 161.10 70.73Q159.84 69.76 157.75 69.76ZM202.90 100L186.70 100Q185.69 100 185.69 99.42L185.69 99.42Q185.69 99.21 185.76 98.92L185.76 98.92L186.34 95.32Q186.48 94.67 186.73 94.46Q186.98 94.24 187.70 94.31L187.70 94.31L191.38 94.31L197.86 56.94L194.18 56.94Q193.46 57.02 193.28 56.80Q193.10 56.58 193.25 55.94L193.25 55.94L193.90 52.19Q194.04 51.11 195.26 51.04L195.26 51.04Q208.94 50.68 210.60 50.68L210.60 50.68Q218.74 50.68 222.98 53.74Q227.23 56.80 227.23 62.34L227.23 62.34Q227.23 72.35 215.71 77.10L215.71 77.10L221.11 93.16Q221.98 95.68 223.70 95.68L223.70 95.68Q224.64 95.68 225.86 95.18Q227.09 94.67 227.52 95.68L227.52 95.68L228.10 96.90Q228.24 97.19 228.24 97.66Q228.24 98.13 227.59 98.49L227.59 98.49Q224.21 100.86 220.75 100.86Q217.30 100.86 215.78 99.46Q214.27 98.06 213.19 95.03L213.19 95.03L207.65 78.98L206.21 78.98Q203.90 78.98 202.18 78.76L202.18 78.76L199.44 94.31L203.90 94.31Q204.62 94.24 204.80 94.46Q204.98 94.67 204.84 95.32L204.84 95.32L204.26 98.92Q204.12 99.57 203.87 99.78Q203.62 100 202.90 100L202.90 100ZM208.66 56.66L208.66 56.66L206.06 56.66L202.97 73.94Q203.54 74.01 205.20 74.01L205.20 74.01Q211.18 74.01 214.99 71.38Q218.81 68.75 218.81 63.50L218.81 63.50Q218.81 56.66 208.66 56.66ZM267.55 77.82L267.55 77.82Q267.55 88.26 261.97 94.56Q256.39 100.86 246.53 100.86L246.53 100.86Q240.05 100.86 236.48 97.19Q232.92 93.52 232.92 86.54L232.92 86.54Q232.92 76.46 238.25 70.01Q243.58 63.57 253.22 63.57L253.22 63.57Q263.45 63.57 266.54 71.70L266.54 71.70Q267.55 74.37 267.55 77.82ZM259.06 77.97L259.06 77.97Q259.06 69.83 252.00 69.83L252.00 69.83Q248.83 69.83 246.56 71.49Q244.30 73.14 243.22 75.88L243.22 75.88Q241.27 80.78 241.27 86.54L241.27 86.54Q241.27 94.89 247.75 94.89L247.75 94.89Q250.92 94.89 253.26 93.16Q255.60 91.43 256.75 88.62L256.75 88.62Q259.06 83.37 259.06 77.97ZM283.10 90.28L283.10 90.28Q283.10 94.24 288.22 94.24L288.22 94.24Q291.53 94.24 294.30 92.08Q297.07 89.92 297.58 87.18L297.58 87.18L301.46 65.44Q301.54 64.79 301.82 64.58Q302.11 64.36 302.83 64.36L302.83 64.36L308.59 64.36Q309.31 64.36 309.49 64.58Q309.67 64.79 309.53 65.44L309.53 65.44L304.63 93.02Q304.56 93.38 304.56 93.74L304.56 93.74Q304.56 95.03 306.00 95.03L306.00 95.03Q306.79 95.03 307.91 94.53Q309.02 94.02 309.53 94.96L309.53 94.96L310.18 96.11Q310.39 96.47 310.39 96.90Q310.39 97.34 309.82 97.77L309.82 97.77Q305.57 100.86 301.90 100.86L301.90 100.86Q296.14 100.86 296.28 95.39L296.28 95.39Q291.67 100.86 284.04 100.86L284.04 100.86Q274.61 100.86 274.61 92.22L274.61 92.22Q274.61 90.57 274.97 88.62L274.97 88.62L278.28 70.05L275.26 70.12Q274.25 70.19 274.25 69.62L274.25 69.62Q274.25 69.40 274.32 69.11L274.32 69.11L274.97 65.44Q275.04 64.79 275.33 64.58Q275.62 64.36 276.34 64.36L276.34 64.36L286.27 64.36Q286.99 64.36 287.17 64.58Q287.35 64.79 287.21 65.44L287.21 65.44L283.61 85.53Q283.10 88.55 283.10 90.28ZM323.28 100L317.59 100Q316.58 100 316.58 99.42L316.58 99.42Q316.58 99.21 316.66 98.92L316.66 98.92L321.70 70.12L318.60 70.12Q317.88 70.19 317.70 69.98Q317.52 69.76 317.66 69.11L317.66 69.11L318.24 65.44Q318.38 64.79 318.64 64.58Q318.89 64.36 319.61 64.36L319.61 64.36L328.68 64.36Q329.40 64.36 329.58 64.58Q329.76 64.79 329.62 65.44L329.62 65.44L328.97 69.62Q334.08 63.57 341.78 63.57L341.78 63.57Q346.32 63.57 348.88 65.91Q351.43 68.25 351.43 72.57L351.43 72.57Q351.43 74.51 350.86 77.10L350.86 77.10L347.54 92.87Q347.47 93.38 347.47 93.74L347.47 93.74Q347.47 95.10 348.62 95.10L348.62 95.10Q349.49 95.10 350.68 94.60Q351.86 94.10 352.30 95.03L352.30 95.03L352.87 96.18Q353.09 96.54 353.09 96.98Q353.09 97.41 352.51 97.84L352.51 97.84Q348.62 100.94 344.66 100.94L344.66 100.94Q339.05 100.94 339.05 96.18L339.05 96.18Q339.05 95.25 339.26 94.10L339.26 94.10L342.36 79.12Q342.86 76.46 342.86 74.58L342.86 74.58Q342.86 70.41 338.04 70.41L338.04 70.41Q334.44 70.41 331.67 72.42Q328.90 74.44 328.39 77.39L328.39 77.39L324.65 98.92Q324.58 99.57 324.29 99.78Q324.00 100 323.28 100L323.28 100ZM387.29 46.29L397.22 46.29Q398.23 46.29 398.23 46.86L398.23 46.86Q398.23 47.08 398.16 47.37L398.16 47.37L390.02 93.02Q389.95 93.38 389.95 93.74L389.95 93.74Q389.95 95.03 391.39 95.03L391.39 95.03Q392.18 95.03 393.30 94.53Q394.42 94.02 394.92 94.96L394.92 94.96L395.57 96.11Q396.07 97.05 395.21 97.77L395.21 97.77Q390.96 100.86 387.54 100.86Q384.12 100.86 382.90 99.39Q381.67 97.91 381.67 95.03L381.67 95.03Q377.57 100.86 370.30 100.86L370.30 100.86Q364.61 100.86 361.51 97.48Q358.42 94.10 358.42 87.26L358.42 87.26Q358.42 80.06 361.22 74.22L361.22 74.22Q364.32 67.53 370.22 65.01L370.22 65.01Q373.46 63.57 377.14 63.57Q380.81 63.57 383.26 64.86Q385.70 66.16 386.64 67.60L386.64 67.60L389.30 52.05L386.21 52.05Q385.49 52.12 385.31 51.90Q385.13 51.69 385.27 51.04L385.27 51.04L385.92 47.37Q385.99 46.72 386.28 46.50Q386.57 46.29 387.29 46.29L387.29 46.29ZM383.04 86.97L385.49 73.50Q382.82 69.76 378.07 69.69L378.07 69.69Q374.83 69.69 372.46 71.27Q370.08 72.86 368.86 75.52L368.86 75.52Q366.55 80.42 366.55 85.46Q366.55 90.50 368.17 92.58Q369.79 94.67 373.28 94.67Q376.78 94.67 379.62 92.62Q382.46 90.57 383.04 86.97L383.04 86.97ZM419.33 64.36L419.33 64.36L429.34 64.36Q430.06 64.36 430.24 64.58Q430.42 64.79 430.27 65.44L430.27 65.44L425.38 92.87Q425.30 93.38 425.30 93.74L425.30 93.74Q425.30 95.10 426.53 95.10L426.53 95.10Q427.39 95.10 428.58 94.60Q429.77 94.10 430.20 95.03L430.20 95.03L430.78 96.18Q431.28 97.12 430.42 97.84L430.42 97.84Q426.53 100.94 422.57 100.94L422.57 100.94Q417.02 100.94 417.02 95.97L417.02 95.97Q417.02 95.10 417.17 94.10L417.17 94.10L421.27 70.19L418.18 70.19Q417.46 70.26 417.28 70.05Q417.10 69.83 417.24 69.18L417.24 69.18L417.96 65.44Q418.10 64.36 419.33 64.36ZM432 52.91Q432 55.14 430.38 56.69Q428.76 58.24 426.46 58.24Q424.15 58.24 422.86 56.87Q421.56 55.50 421.56 53.31Q421.56 51.11 423.25 49.53Q424.94 47.94 427.18 47.94Q429.41 47.94 430.70 49.31Q432 50.68 432 52.91ZM452.23 64.36L459.43 64.36Q460.44 64.36 460.44 64.94L460.44 64.94Q460.44 65.15 460.37 65.44L460.37 65.44L459.72 69.26Q459.58 69.90 459.32 70.12Q459.07 70.34 458.35 70.26L458.35 70.26L451.15 70.26L448.13 87.18Q447.70 89.63 447.70 91.47Q447.70 93.30 448.45 94.20Q449.21 95.10 451.30 95.10Q453.38 95.10 455.40 94.31L455.40 94.31Q456.41 93.95 456.84 94.96L456.84 94.96L457.49 97.41Q457.85 98.49 456.84 98.92L456.84 98.92Q452.52 100.86 447.80 100.86Q443.09 100.86 441.18 98.92Q439.27 96.98 439.27 93.52L439.27 93.52Q439.27 91.50 439.99 87.62L439.99 87.62L443.16 70.26L439.13 70.26Q438.12 70.34 438.12 69.76L438.12 69.76Q438.12 69.54 438.19 69.26L438.19 69.26L438.77 65.44Q438.91 64.79 439.16 64.58Q439.42 64.36 440.14 64.36L440.14 64.36L444.17 64.36L445.82 54.64Q445.97 53.99 446.22 53.78Q446.47 53.56 447.19 53.56L447.19 53.56L452.95 53.56Q453.67 53.56 453.85 53.78Q454.03 53.99 453.89 54.64L453.89 54.64L452.23 64.36ZM492.55 64.36L492.55 64.36L497.59 64.36Q498.31 64.36 498.49 64.58Q498.67 64.79 498.53 65.44L498.53 65.44L493.63 93.02Q493.56 93.38 493.56 93.74L493.56 93.74Q493.56 95.03 495.07 95.03L495.07 95.03Q495.86 95.03 496.98 94.53Q498.10 94.02 498.60 94.96L498.60 94.96L499.25 96.11Q499.46 96.47 499.46 96.90Q499.46 97.34 498.89 97.77L498.89 97.77Q494.64 100.86 490.97 100.86L490.97 100.86Q485.35 100.86 485.35 95.46L485.35 95.46Q485.35 95.25 485.35 95.03L485.35 95.03Q481.18 100.86 473.90 100.86L473.90 100.86Q468.22 100.86 465.12 97.59Q462.02 94.31 462.02 87.62L462.02 87.62Q462.02 78.69 466.34 71.49L466.34 71.49Q468.50 67.96 472.28 65.76Q476.06 63.57 480.96 63.57L480.96 63.57Q487.22 63.57 490.68 67.96L490.68 67.96L491.18 65.44Q491.26 64.79 491.54 64.58Q491.83 64.36 492.55 64.36ZM486.65 86.90L489.10 73.50Q486.43 69.76 481.68 69.69L481.68 69.69Q478.44 69.69 476.06 71.31Q473.69 72.93 472.46 75.59L472.46 75.59Q470.16 80.63 470.16 85.64Q470.16 90.64 471.78 92.66Q473.40 94.67 476.86 94.67Q480.31 94.67 483.19 92.58Q486.07 90.50 486.65 86.90L486.65 86.90ZM511.63 46.29L521.64 46.29Q522.65 46.29 522.65 46.86L522.65 46.86Q522.65 47.08 522.58 47.37L522.58 47.37L514.44 92.87Q514.37 93.30 514.37 93.74L514.37 93.74Q514.37 95.10 515.66 95.10L515.66 95.10Q516.53 95.10 517.72 94.60Q518.90 94.10 519.34 95.03L519.34 95.03L519.91 96.18Q520.42 97.12 519.55 97.84L519.55 97.84Q515.66 100.94 511.70 100.94L511.70 100.94Q506.16 100.94 506.16 95.97L506.16 95.97Q506.16 95.10 506.30 94.10L506.30 94.10L513.65 52.05L510.55 52.05Q509.83 52.12 509.65 51.90Q509.47 51.69 509.62 51.04L509.62 51.04L510.26 47.37Q510.34 46.72 510.62 46.50Q510.91 46.29 511.63 46.29L511.63 46.29ZM529.49 64.36L529.49 64.36L539.50 64.36Q540.22 64.36 540.40 64.58Q540.58 64.79 540.43 65.44L540.43 65.44L535.54 92.87Q535.46 93.38 535.46 93.74L535.46 93.74Q535.46 95.10 536.69 95.10L536.69 95.10Q537.55 95.10 538.74 94.60Q539.93 94.10 540.36 95.03L540.36 95.03L540.94 96.18Q541.44 97.12 540.58 97.84L540.58 97.84Q536.69 100.94 532.73 100.94L532.73 100.94Q527.18 100.94 527.18 95.97L527.18 95.97Q527.18 95.10 527.33 94.10L527.33 94.10L531.43 70.19L528.34 70.19Q527.62 70.26 527.44 70.05Q527.26 69.83 527.40 69.18L527.40 69.18L528.12 65.44Q528.26 64.36 529.49 64.36ZM542.16 52.91Q542.16 55.14 540.54 56.69Q538.92 58.24 536.62 58.24Q534.31 58.24 533.02 56.87Q531.72 55.50 531.72 53.31Q531.72 51.11 533.41 49.53Q535.10 47.94 537.34 47.94Q539.57 47.94 540.86 49.31Q542.16 50.68 542.16 52.91ZM571.82 75.38L571.82 75.38Q571.82 69.76 565.63 69.76L565.63 69.76Q561.67 69.76 559.15 72.42Q556.63 75.09 555.77 78.51Q554.90 81.93 554.90 85.89L554.90 85.89Q554.90 94.82 563.40 94.82L563.40 94.82Q567.22 94.82 571.54 92.37L571.54 92.37Q572.47 91.79 573.05 92.80L573.05 92.80L574.20 95.10Q574.85 96.04 573.84 96.69L573.84 96.69Q567.94 100.86 560.70 100.86Q553.46 100.86 550.01 96.87Q546.55 92.87 546.55 86.10L546.55 86.10Q546.55 77.03 551.74 70.30Q556.92 63.57 566.50 63.57L566.50 63.57Q572.83 63.57 575.46 66.77Q578.09 69.98 578.09 74.44L578.09 74.44Q578.09 75.16 578.02 75.88L578.02 75.88Q577.94 77.03 576.79 77.03L576.79 77.03L572.90 77.03Q572.26 77.03 572.04 76.82Q571.82 76.60 571.82 76.10Q571.82 75.59 571.82 75.38Z"/></svg>