<svg xmlns="http://www.w3.org/2000/svg" viewBox="0.7734375 51.1328125 636.890625 49.5703125"><path d="M27.49 53.10L27.49 53.10Q34.66 53.10 42.05 55.14L42.05 55.14Q42.05 55.98 41.73 60.52Q41.41 65.05 41.34 65.55L41.34 65.55Q41.20 66.04 40.61 66.32Q40.01 66.60 39.38 66.60L39.38 66.60Q39.23 66.60 38.39 66.39L38.39 66.39Q38.32 65.41 38.04 64.35Q37.76 63.30 36.98 61.93Q36.21 60.55 35.02 59.54Q33.82 58.52 31.75 57.78Q29.67 57.04 27.07 57.04L27.07 57.04Q22.57 57.04 18.84 60.55Q15.12 64.07 13.04 69.94Q10.97 75.81 10.97 82.63L10.97 82.63Q10.97 88.96 13.61 92.83Q16.24 96.70 21.45 96.70L21.45 96.70Q24.40 96.70 27.28 95.99Q30.16 95.29 31.78 94.16L31.78 94.16Q32.98 93.32 34.03 91.81Q35.09 90.30 35.61 89.24Q36.14 88.19 36.21 88.19L36.21 88.19Q38.04 88.19 38.25 89.10L38.25 89.10Q38.04 90.09 37.02 93.25Q36 96.41 35.44 96.91L35.44 96.91Q31.43 100.49 20.95 100.49L20.95 100.49Q11.74 100.49 6.26 95.18Q0.77 89.88 0.77 81.79L0.77 81.79Q0.77 76.02 3.20 70.61Q5.63 65.20 9.46 61.43Q13.29 57.67 18.07 55.39Q22.85 53.10 27.49 53.10ZM53.65 68.43L53.65 68.43Q55.27 68.43 56.32 69.45Q57.38 70.47 57.38 72.44L57.38 72.44Q57.38 74.55 57.02 76.23L57.02 76.23Q56.53 79.05 56.46 79.33L56.46 79.33Q58.50 74.55 61.35 71.49Q64.20 68.43 67.71 68.43L67.71 68.43Q70.24 68.43 72.35 71.17L72.35 71.17Q72.35 73.91 71.33 76.06Q70.31 78.20 68.06 78.20L68.06 78.20Q66.94 78.20 65.60 76.66Q64.27 75.11 63.14 75.11L63.14 75.11Q61.38 75.11 58.08 81.47Q54.77 87.84 53.58 93.74L53.58 93.74L52.31 100Q50.34 100.42 48.30 100.42L48.30 100.42Q46.27 100.42 44.23 100L44.23 100L48.45 77.99Q48.59 77.29 48.59 76.38L48.59 76.38Q48.59 74.69 47.88 74.69L47.88 74.69Q46.90 74.69 45.11 76.16Q43.31 77.64 42.75 78.41L42.75 78.41Q42.61 78.41 42.01 77.71Q41.41 77.01 41.41 76.73L41.41 76.73Q42.19 74.83 46.44 71.63Q50.70 68.43 53.65 68.43ZM84.30 68.43L84.30 68.43Q85.92 68.43 86.98 69.45Q88.03 70.47 88.03 72.44L88.03 72.44Q88.03 73.21 87.75 75.14Q87.47 77.08 87.33 77.64L87.33 77.64L84.73 91Q84.59 91.42 84.59 92.62L84.59 92.62Q84.59 94.30 85.29 94.30L85.29 94.30Q86.27 94.30 88.07 92.83Q89.86 91.35 90.42 90.58L90.42 90.58Q90.63 90.58 91.20 91.28Q91.76 91.98 91.76 92.27L91.76 92.27Q90.98 94.16 86.73 97.36Q82.48 100.56 79.52 100.56L79.52 100.56Q77.98 100.56 76.89 99.54Q75.80 98.52 75.80 96.55L75.80 96.55Q75.80 95.78 76.08 93.85Q76.36 91.91 76.50 91.35L76.50 91.35L79.10 77.99Q79.24 77.29 79.24 76.38L79.24 76.38Q79.24 74.69 78.54 74.69L78.54 74.69Q77.55 74.69 75.76 76.16Q73.97 77.64 73.41 78.41L73.41 78.41Q73.27 78.41 72.67 77.71Q72.07 77.01 72.07 76.73L72.07 76.73Q72.84 74.83 77.10 71.63Q81.35 68.43 84.30 68.43ZM86.55 51.70L86.55 51.70Q88.31 51.70 89.47 52.96Q90.63 54.23 90.63 56.05L90.63 56.05Q90.63 58.38 88.98 60.20Q87.33 62.03 85.15 62.03L85.15 62.03Q83.39 62.03 82.23 60.77Q81.07 59.50 81.07 57.60L81.07 57.60Q81.07 55.28 82.72 53.49Q84.38 51.70 86.55 51.70ZM117.42 68.43L117.42 68.43Q120.52 68.43 121.99 70.61Q123.47 72.79 123.47 76.09L123.47 76.09Q123.47 77.01 123.33 78.34L123.33 78.34Q125.23 74.76 128.29 71.59Q131.34 68.43 133.59 68.43L133.59 68.43Q136.69 68.43 138.16 70.61Q139.64 72.79 139.64 76.09L139.64 76.09Q139.64 77.78 138.52 83.62L138.52 83.62L137.11 91Q136.97 91.42 136.97 92.62L136.97 92.62Q136.97 94.30 137.67 94.30L137.67 94.30Q138.66 94.30 140.45 92.83Q142.24 91.35 142.80 90.58L142.80 90.58Q143.02 90.58 143.58 91.28Q144.14 91.98 144.14 92.27L144.14 92.27Q143.37 94.16 139.11 97.36Q134.86 100.56 131.91 100.56L131.91 100.56Q130.36 100.56 129.27 99.54Q128.18 98.52 128.18 96.55L128.18 96.55Q128.18 94.52 128.88 91.35L128.88 91.35L130.50 82.98Q131.20 79.47 131.20 78.91L131.20 78.91Q131.34 76.02 129.16 76.02L129.16 76.02Q127.41 76.02 124.59 82Q121.78 87.98 120.80 92.62L120.80 92.62L119.32 100Q117.91 100.42 115.17 100.42L115.17 100.42Q112.50 100.42 111.02 100L111.02 100L114.40 82.98Q115.10 79.96 115.10 78.91L115.10 78.91Q115.10 76.02 112.99 76.02L112.99 76.02Q111.23 76.02 108.42 82Q105.61 87.98 104.63 92.62L104.63 92.62L103.15 100Q101.74 100.42 99.21 100.42L99.21 100.42Q96.75 100.42 95.06 100L95.06 100L99.28 77.99Q99.42 77.29 99.42 76.38L99.42 76.38Q99.42 74.69 98.72 74.69L98.72 74.69Q97.73 74.69 95.94 76.16Q94.15 77.64 93.59 78.41L93.59 78.41Q93.45 78.41 92.85 77.71Q92.25 77.01 92.25 76.73L92.25 76.73Q93.02 74.83 97.28 71.63Q101.53 68.43 104.48 68.43L104.48 68.43Q106.10 68.43 107.16 69.45Q108.21 70.47 108.21 72.44L108.21 72.44Q108.21 73.28 107.65 76.94L107.65 76.94L107.37 78.77Q109.20 75.04 112.15 71.73Q115.10 68.43 117.42 68.43ZM159.75 68.43L159.75 68.43Q164.25 68.43 166.64 70.47L166.64 70.47Q167.41 71.45 167.41 73.07L167.41 73.07Q167.41 75.04 166.64 76.16Q165.87 77.29 164.60 77.29L164.60 77.29Q163.41 77.29 162.53 76.45Q161.65 75.60 161.19 74.58Q160.73 73.56 159.93 72.72Q159.12 71.88 157.99 71.88L157.99 71.88Q156.66 71.88 156.09 72.58Q155.53 73.28 155.53 74.90L155.53 74.90Q155.53 76.23 156.90 78.45Q158.27 80.66 159.89 82.74Q161.51 84.81 162.88 87.34Q164.25 89.88 164.25 91.70L164.25 91.70Q164.25 95.50 160.77 98.03Q157.29 100.56 152.44 100.56L152.44 100.56Q148.08 100.56 145.41 98.31L145.41 98.31Q144.77 97.54 144.77 95.92L144.77 95.92Q144.77 93.95 145.55 92.83Q146.32 91.70 147.59 91.70L147.59 91.70Q148.78 91.70 149.73 92.55Q150.68 93.39 151.17 94.41Q151.66 95.43 152.47 96.27Q153.28 97.12 154.20 97.12L154.20 97.12Q155.53 97.12 156.09 96.41Q156.66 95.71 156.66 94.09L156.66 94.09Q156.66 92.76 155.29 90.54Q153.91 88.33 152.30 86.25Q150.68 84.18 149.31 81.65Q147.94 79.12 147.94 77.29L147.94 77.29Q147.94 73.42 151.42 70.93Q154.90 68.43 159.75 68.43ZM184.43 72.16L184.43 72.16Q182.39 72.16 180.60 75.43Q178.80 78.70 177.82 83.34Q176.84 87.98 176.91 92.27L176.91 92.27Q177.05 96.70 179.23 96.70L179.23 96.70Q181.41 96.70 183.23 93.14Q185.06 89.59 185.94 85.06Q186.82 80.52 186.75 76.66L186.75 76.66Q186.61 72.16 184.43 72.16ZM185.13 68.43L185.13 68.43Q190.55 68.43 193.01 71.56Q195.47 74.69 195.47 79.82L195.47 79.82Q195.47 85.02 193.22 89.77Q190.97 94.52 187.03 97.47Q183.09 100.42 178.52 100.42L178.52 100.42Q173.04 100.42 170.61 97.29Q168.19 94.16 168.19 89.03L168.19 89.03Q168.19 84.25 170.40 79.50Q172.62 74.76 176.59 71.59Q180.56 68.43 185.13 68.43ZM208.55 68.43L208.55 68.43Q210.16 68.43 211.22 69.45Q212.27 70.47 212.27 72.44L212.27 72.44Q212.27 73.28 211.71 76.94L211.71 76.94Q211.71 77.08 211.68 77.25Q211.64 77.43 211.57 77.85Q211.50 78.27 211.46 78.52Q211.43 78.77 211.43 78.77L211.43 78.77Q213.26 75.04 216.21 71.73Q219.16 68.43 221.48 68.43L221.48 68.43Q224.58 68.43 226.05 70.61Q227.53 72.79 227.53 76.09L227.53 76.09Q227.53 77.78 226.41 83.62L226.41 83.62L225 91Q224.86 91.42 224.86 92.62L224.86 92.62Q224.86 94.30 225.56 94.30L225.56 94.30Q226.55 94.30 228.34 92.83Q230.13 91.35 230.70 90.58L230.70 90.58Q230.91 90.58 231.47 91.28Q232.03 91.98 232.03 92.27L232.03 92.27Q231.26 94.16 227.00 97.36Q222.75 100.56 219.80 100.56L219.80 100.56Q218.25 100.56 217.16 99.54Q216.07 98.52 216.07 96.55L216.07 96.55Q216.07 94.52 216.77 91.35L216.77 91.35L218.39 82.98Q219.09 79.47 219.09 78.91L219.09 78.91Q219.09 77.43 218.64 76.73Q218.18 76.02 217.05 76.02L217.05 76.02Q215.30 76.02 212.48 82Q209.67 87.98 208.69 92.62L208.69 92.62L207.21 100Q205.80 100.42 203.27 100.42L203.27 100.42Q200.81 100.42 199.13 100L199.13 100L203.34 77.99Q203.48 77.29 203.48 76.38L203.48 76.38Q203.48 74.69 202.78 74.69L202.78 74.69Q201.80 74.69 200.00 76.16Q198.21 77.64 197.65 78.41L197.65 78.41Q197.51 78.41 196.91 77.71Q196.31 77.01 196.31 76.73L196.31 76.73Q197.09 74.83 201.34 71.63Q205.59 68.43 208.55 68.43ZM255.73 90.51L255.73 90.51L260.65 65.05Q261.56 60.34 261.56 59.43L261.56 59.43Q261.56 58.02 260.65 57.67Q259.73 57.32 256.29 57.32L256.29 57.32Q253.62 57.32 251.58 58.90Q249.54 60.48 247.92 64.21L247.92 64.21Q247.71 64.56 247.22 64.56L247.22 64.56Q246.80 64.56 246.16 64.39Q245.53 64.21 245.46 64.07L245.46 64.07L248.91 52.61Q251.58 53.38 253.27 53.38L253.27 53.38Q256.01 53.38 260.37 53.59Q264.73 53.80 267.47 53.80Q270.21 53.80 274.71 53.59Q279.21 53.38 281.95 53.38L281.95 53.38Q283.57 53.38 286.66 52.61L286.66 52.61L285.61 64.14Q285.47 64.28 284.77 64.46Q284.06 64.63 283.64 64.63L283.64 64.63Q283.08 64.63 283.08 64.28L283.08 64.28Q282.94 60.55 281.46 58.94Q279.98 57.32 277.38 57.32L277.38 57.32Q274.99 57.32 273.66 57.53Q272.32 57.74 272.04 57.99Q271.76 58.23 271.62 58.59L271.62 58.59Q270.63 60.77 269.86 64.84L269.86 64.84L264.94 90.23Q264.23 93.88 264.23 95.85L264.23 95.85Q264.23 96.55 265.61 97.22Q266.98 97.89 267.61 97.89L267.61 97.89Q267.75 97.89 267.75 98.24L267.75 98.24Q267.75 99.58 267.26 100.28L267.26 100.28Q266.41 100.21 264.62 100.07Q262.83 99.93 261.28 99.86Q259.73 99.79 258.47 99.79L258.47 99.79Q256.71 99.79 253.48 100Q250.24 100.21 249.47 100.28L249.47 100.28Q249.40 100.21 249.40 99.86L249.40 99.86Q249.40 99.37 249.54 98.63Q249.68 97.89 249.82 97.89L249.82 97.89Q250.59 97.89 252.11 97.43Q253.62 96.98 253.97 96.34L253.97 96.34Q255.02 94.52 255.73 90.51ZM303.54 68.43L303.54 68.43Q307.20 68.43 309.87 70.19Q312.54 71.95 312.54 74.97L312.54 74.97Q312.54 77.57 310.43 80.03Q308.32 82.49 305.44 84.04Q302.55 85.59 299.85 86.50Q297.14 87.41 295.66 87.41L295.66 87.41Q295.38 87.41 295.38 88.12L295.38 88.12Q295.38 92.27 296.61 93.74Q297.84 95.22 299.88 95.22L299.88 95.22Q301.99 95.22 304.10 93.71Q306.21 92.20 306.98 91.14L306.98 91.14Q307.13 91.14 307.72 91.84Q308.32 92.55 308.32 92.83L308.32 92.83Q307.48 94.80 303.75 97.61Q300.02 100.42 296.72 100.42L296.72 100.42Q291.66 100.42 289.09 97.43Q286.52 94.45 286.52 88.96L286.52 88.96Q286.52 83.90 288.88 79.12Q291.23 74.34 295.21 71.38Q299.18 68.43 303.54 68.43ZM302.84 72.23L302.84 72.23Q301.01 72.23 298.58 76.06Q296.16 79.89 296.16 83.62L296.16 83.62Q296.16 83.90 296.44 83.90L296.44 83.90Q299.74 83.90 302.13 80.88Q304.52 77.85 304.52 74.97L304.52 74.97Q304.52 72.23 302.84 72.23ZM327.94 68.43L327.94 68.43Q330.40 68.43 331.88 73.91L331.88 73.91L332.93 77.64L335.60 72.93Q338.48 68.43 342.28 68.43L342.28 68.43Q345.16 68.43 347.27 69.70L347.27 69.70Q347.77 70.54 347.77 71.73L347.77 71.73Q347.77 73.35 346.82 74.55Q345.87 75.74 344.04 75.74L344.04 75.74Q342.77 75.74 341.68 75.11Q340.59 74.48 339.89 74.48L339.89 74.48Q338.41 74.48 337.71 75.67L337.71 75.67L334.27 82.35L337.01 92.13Q337.64 94.09 338.70 94.09L338.70 94.09Q339.68 94.09 341.47 92.62Q343.27 91.14 343.83 90.37L343.83 90.37Q344.04 90.37 344.60 91.07Q345.16 91.77 345.16 92.05L345.16 92.05Q344.39 93.95 340.14 97.15Q335.88 100.35 332.93 100.35L332.93 100.35Q330.54 100.35 328.99 94.80L328.99 94.80L327.66 90.02L324.14 95.92Q321.19 100.42 317.46 100.42L317.46 100.42Q314.58 100.42 312.47 99.16L312.47 99.16Q311.98 98.31 311.98 97.12L311.98 97.12Q311.98 95.50 312.93 94.30Q313.88 93.11 315.70 93.11L315.70 93.11Q316.97 93.11 318.06 93.74Q319.15 94.38 319.85 94.38L319.85 94.38Q321.33 94.38 322.03 93.18L322.03 93.18L326.39 85.45L323.86 76.66Q323.23 74.69 322.17 74.69L322.17 74.69Q321.19 74.69 319.39 76.16Q317.60 77.64 317.04 78.41L317.04 78.41Q316.90 78.41 316.30 77.71Q315.70 77.01 315.70 76.73L315.70 76.73Q316.48 74.83 320.73 71.63Q324.98 68.43 327.94 68.43ZM354.02 69.84L355.36 62.95Q355.43 62.52 357.54 62.28Q359.65 62.03 361.55 62.03L361.55 62.03Q362.88 62.03 363.73 62.31L363.73 62.31L362.11 69.84L368.23 69.84Q368.93 69.84 368.93 71.03L368.93 71.03Q368.93 72.72 368.09 73.98L368.09 73.98L361.34 73.98L358.03 91Q357.89 91.42 357.89 92.62L357.89 92.62Q357.89 94.30 358.59 94.30L358.59 94.30Q359.58 94.30 361.34 92.83Q363.09 91.35 363.73 90.58L363.73 90.58Q363.87 90.58 364.46 91.28Q365.06 91.98 365.06 92.27L365.06 92.27Q364.29 94.16 360.04 97.36Q355.78 100.56 352.83 100.56L352.83 100.56Q351.21 100.56 350.16 99.54Q349.10 98.52 349.10 96.55L349.10 96.55Q349.10 95.78 349.38 93.85Q349.66 91.91 349.80 91.35L349.80 91.35L353.18 73.98L349.24 73.98Q348.96 73.98 348.96 73.14L348.96 73.14Q348.96 72.37 349.28 71.28Q349.59 70.19 349.95 69.84L349.95 69.84L354.02 69.84ZM402.19 68.43L402.19 68.43Q409.36 68.43 409.36 78.70L409.36 78.70Q409.36 83.34 407.43 87.59Q405.49 91.84 402.57 94.62Q399.66 97.40 396.28 99.05Q392.91 100.70 389.88 100.70L389.88 100.70Q386.51 100.70 384.22 98.38Q381.94 96.06 381.94 92.48L381.94 92.48Q381.94 90.86 382.36 88.61L382.36 88.61L387.56 61.75Q388.20 58.52 388.20 57.60L388.20 57.60Q388.20 56.05 384.75 56.05L384.75 56.05Q384.54 56.05 384.54 55.49L384.54 55.49Q384.54 54.51 385.17 53.88L385.17 53.88Q386.86 53.88 390.90 52.89Q394.95 51.91 396.77 51.13L396.77 51.13Q397.48 51.48 397.48 52.68L397.48 52.68Q397.48 53.59 396.28 58.94L396.28 58.94L393.05 75.67Q393.12 75.53 393.33 75.25L393.33 75.25Q394.10 74.05 394.73 73.21Q395.37 72.37 396.60 71.10Q397.83 69.84 399.23 69.13Q400.64 68.43 402.19 68.43ZM398.67 74.48L398.67 74.48Q396.42 74.48 393.96 78.87Q391.50 83.27 390.59 88.26L390.59 88.26Q389.81 91.21 390.20 93.95Q390.59 96.70 392.34 96.70L392.34 96.70Q394.45 96.70 396.46 93.71Q398.46 90.72 399.62 86.68Q400.78 82.63 400.78 79.19L400.78 79.19Q400.78 74.48 398.67 74.48ZM426.87 72.16L426.87 72.16Q424.83 72.16 423.04 75.43Q421.24 78.70 420.26 83.34Q419.27 87.98 419.34 92.27L419.34 92.27Q419.48 96.70 421.66 96.70L421.66 96.70Q423.84 96.70 425.67 93.14Q427.50 89.59 428.38 85.06Q429.26 80.52 429.19 76.66L429.19 76.66Q429.05 72.16 426.87 72.16ZM427.57 68.43L427.57 68.43Q432.98 68.43 435.45 71.56Q437.91 74.69 437.91 79.82L437.91 79.82Q437.91 85.02 435.66 89.77Q433.41 94.52 429.47 97.47Q425.53 100.42 420.96 100.42L420.96 100.42Q415.48 100.42 413.05 97.29Q410.63 94.16 410.63 89.03L410.63 89.03Q410.63 84.25 412.84 79.50Q415.05 74.76 419.03 71.59Q423 68.43 427.57 68.43ZM439.66 91.35L439.66 91.35L445.43 61.75Q446.06 58.45 446.06 57.60L446.06 57.60Q446.06 56.05 442.62 56.05L442.62 56.05Q442.41 56.05 442.41 55.49L442.41 55.49Q442.41 54.51 443.04 53.88L443.04 53.88Q444.80 53.88 448.84 52.89Q452.88 51.91 454.64 51.13L454.64 51.13Q455.34 51.48 455.34 52.68L455.34 52.68Q455.34 53.10 455.13 54.33Q454.92 55.56 454.57 57.11Q454.22 58.66 454.15 58.94L454.15 58.94L447.89 91Q447.75 91.70 447.75 92.62L447.75 92.62Q447.75 94.30 448.45 94.30L448.45 94.30Q449.51 94.30 451.27 92.83Q453.02 91.35 453.59 90.58L453.59 90.58Q453.80 90.58 454.36 91.28Q454.92 91.98 454.92 92.27L454.92 92.27Q454.22 94.16 449.96 97.36Q445.71 100.56 442.69 100.56L442.69 100.56Q441.14 100.56 440.05 99.54Q438.96 98.52 438.96 96.55L438.96 96.55Q438.96 95.78 439.24 93.85Q439.52 91.91 439.66 91.35ZM476.44 68.50L476.44 68.50Q476.65 68.50 476.79 68.50L476.79 68.50L478.13 61.96Q478.76 58.16 478.76 57.60L478.76 57.60Q478.76 56.05 475.31 56.05L475.31 56.05Q475.10 56.05 475.10 55.49L475.10 55.49Q475.10 54.51 475.73 53.88L475.73 53.88Q477.49 53.88 481.54 52.89Q485.58 51.91 487.34 51.13L487.34 51.13Q488.04 51.48 488.04 52.68L488.04 52.68Q488.04 53.10 487.79 54.33Q487.55 55.56 487.23 56.97Q486.91 58.38 486.84 58.80L486.84 58.80L480.59 91Q480.45 91.42 480.45 92.62L480.45 92.62Q480.45 94.30 481.15 94.30L481.15 94.30Q482.20 94.30 483.96 92.83Q485.72 91.35 486.28 90.58L486.28 90.58Q486.49 90.58 487.05 91.28Q487.62 91.98 487.62 92.27L487.62 92.27Q486.91 94.16 482.66 97.36Q478.41 100.56 475.38 100.56L475.38 100.56Q473.84 100.56 472.75 99.54Q471.66 98.52 471.66 96.77L471.66 96.77Q471.66 96.20 471.73 95.71L471.73 95.71Q471.80 95.01 471.87 94.66L471.87 94.66Q468.49 100.56 464.13 100.56L464.13 100.56Q460.34 100.56 458.12 97.68Q455.91 94.80 455.91 90.16L455.91 90.16Q455.91 86.64 457.45 82.95Q459 79.26 461.67 76.16Q464.34 73.07 468.25 70.93Q472.15 68.78 476.44 68.50ZM474.68 79.75L475.66 74.69Q475.80 73.77 475.24 73.35Q474.68 72.93 473.98 72.93L473.98 72.93Q471.94 72.93 470.04 75.07Q468.14 77.22 467.02 80.24Q465.89 83.27 465.22 86.25Q464.55 89.24 464.55 91.28L464.55 91.28Q464.55 95.22 466.73 95.22L466.73 95.22Q469.05 95.22 471.23 90.47Q473.41 85.73 474.68 79.75L474.68 79.75ZM513.91 68.43L513.91 68.43Q515.53 68.43 516.59 69.45Q517.64 70.47 517.64 72.44L517.64 72.44Q517.64 73.21 517.36 75.14Q517.08 77.08 516.94 77.64L516.94 77.64L514.34 91Q514.20 91.42 514.20 92.62L514.20 92.62Q514.20 94.30 514.90 94.30L514.90 94.30Q515.88 94.30 517.68 92.83Q519.47 91.35 520.03 90.58L520.03 90.58Q520.24 90.58 520.80 91.28Q521.37 91.98 521.37 92.27L521.37 92.27Q520.59 94.16 516.34 97.36Q512.09 100.56 509.13 100.56L509.13 100.56Q507.59 100.56 506.50 99.54Q505.41 98.52 505.41 96.55L505.41 96.55Q505.41 95.78 505.69 93.85Q505.97 91.91 506.11 91.35L506.11 91.35L508.71 77.99Q508.85 77.29 508.85 76.38L508.85 76.38Q508.85 74.69 508.15 74.69L508.15 74.69Q507.16 74.69 505.37 76.16Q503.58 77.64 503.02 78.41L503.02 78.41Q502.88 78.41 502.28 77.71Q501.68 77.01 501.68 76.73L501.68 76.73Q502.45 74.83 506.71 71.63Q510.96 68.43 513.91 68.43ZM516.16 51.70L516.16 51.70Q517.92 51.70 519.08 52.96Q520.24 54.23 520.24 56.05L520.24 56.05Q520.24 58.38 518.59 60.20Q516.94 62.03 514.76 62.03L514.76 62.03Q513 62.03 511.84 60.77Q510.68 59.50 510.68 57.60L510.68 57.60Q510.68 55.28 512.33 53.49Q513.98 51.70 516.16 51.70ZM528.26 69.84L529.59 62.95Q529.66 62.52 531.77 62.28Q533.88 62.03 535.78 62.03L535.78 62.03Q537.12 62.03 537.96 62.31L537.96 62.31L536.34 69.84L542.46 69.84Q543.16 69.84 543.16 71.03L543.16 71.03Q543.16 72.72 542.32 73.98L542.32 73.98L535.57 73.98L532.27 91Q532.13 91.42 532.13 92.62L532.13 92.62Q532.13 94.30 532.83 94.30L532.83 94.30Q533.81 94.30 535.57 92.83Q537.33 91.35 537.96 90.58L537.96 90.58Q538.10 90.58 538.70 91.28Q539.30 91.98 539.30 92.27L539.30 92.27Q538.52 94.16 534.27 97.36Q530.02 100.56 527.06 100.56L527.06 100.56Q525.45 100.56 524.39 99.54Q523.34 98.52 523.34 96.55L523.34 96.55Q523.34 95.78 523.62 93.85Q523.90 91.91 524.04 91.35L524.04 91.35L527.41 73.98L523.48 73.98Q523.20 73.98 523.20 73.14L523.20 73.14Q523.20 72.37 523.51 71.28Q523.83 70.19 524.18 69.84L524.18 69.84L528.26 69.84ZM564.75 68.43L564.75 68.43Q567 68.43 568.79 68.92Q570.59 69.41 571.36 69.98L571.36 69.98L567.28 91Q567.14 91.42 567.14 92.62L567.14 92.62Q567.14 94.30 567.84 94.30L567.84 94.30Q568.83 94.30 570.59 92.83Q572.34 91.35 572.98 90.58L572.98 90.58Q573.12 90.58 573.71 91.28Q574.31 91.98 574.31 92.27L574.31 92.27Q573.54 94.16 569.29 97.36Q565.03 100.56 562.08 100.56L562.08 100.56Q560.46 100.56 559.41 99.54Q558.35 98.52 558.35 96.77L558.35 96.77Q558.35 96.27 558.35 95.85L558.35 95.85Q558.42 95.01 558.49 94.66L558.49 94.66Q555.19 100.56 550.83 100.56L550.83 100.56Q546.96 100.56 544.78 97.68Q542.60 94.80 542.60 90.16L542.60 90.16Q542.60 86.57 544.32 82.74Q546.05 78.91 548.89 75.71Q551.74 72.51 555.96 70.47Q560.18 68.43 564.75 68.43ZM560.67 72.93L560.67 72.93Q558.56 72.93 556.70 75.07Q554.84 77.22 553.68 80.24Q552.52 83.27 551.88 86.25Q551.25 89.24 551.25 91.28L551.25 91.28Q551.25 95.22 553.43 95.22L553.43 95.22Q555.68 95.22 557.93 90.33Q560.18 85.45 561.30 79.75L561.30 79.75L562.57 73.42Q562.08 72.93 560.67 72.93ZM575.58 91.35L575.58 91.35L581.34 61.75Q581.98 58.45 581.98 57.60L581.98 57.60Q581.98 56.05 578.53 56.05L578.53 56.05Q578.32 56.05 578.32 55.49L578.32 55.49Q578.32 54.51 578.95 53.88L578.95 53.88Q580.71 53.88 584.75 52.89Q588.80 51.91 590.55 51.13L590.55 51.13Q591.26 51.48 591.26 52.68L591.26 52.68Q591.26 53.10 591.05 54.33Q590.84 55.56 590.48 57.11Q590.13 58.66 590.06 58.94L590.06 58.94L583.80 91Q583.66 91.70 583.66 92.62L583.66 92.62Q583.66 94.30 584.37 94.30L584.37 94.30Q585.42 94.30 587.18 92.83Q588.94 91.35 589.50 90.58L589.50 90.58Q589.71 90.58 590.27 91.28Q590.84 91.98 590.84 92.27L590.84 92.27Q590.13 94.16 585.88 97.36Q581.63 100.56 578.60 100.56L578.60 100.56Q577.05 100.56 575.96 99.54Q574.88 98.52 574.88 96.55L574.88 96.55Q574.88 95.78 575.16 93.85Q575.44 91.91 575.58 91.35ZM603.77 68.43L603.77 68.43Q605.39 68.43 606.45 69.45Q607.50 70.47 607.50 72.44L607.50 72.44Q607.50 73.21 607.22 75.14Q606.94 77.08 606.80 77.64L606.80 77.64L604.20 91Q604.05 91.42 604.05 92.62L604.05 92.62Q604.05 94.30 604.76 94.30L604.76 94.30Q605.74 94.30 607.54 92.83Q609.33 91.35 609.89 90.58L609.89 90.58Q610.10 90.58 610.66 91.28Q611.23 91.98 611.23 92.27L611.23 92.27Q610.45 94.16 606.20 97.36Q601.95 100.56 598.99 100.56L598.99 100.56Q597.45 100.56 596.36 99.54Q595.27 98.52 595.27 96.55L595.27 96.55Q595.27 95.78 595.55 93.85Q595.83 91.91 595.97 91.35L595.97 91.35L598.57 77.99Q598.71 77.29 598.71 76.38L598.71 76.38Q598.71 74.69 598.01 74.69L598.01 74.69Q597.02 74.69 595.23 76.16Q593.44 77.64 592.88 78.41L592.88 78.41Q592.73 78.41 592.14 77.71Q591.54 77.01 591.54 76.73L591.54 76.73Q592.31 74.83 596.57 71.63Q600.82 68.43 603.77 68.43ZM606.02 51.70L606.02 51.70Q607.78 51.70 608.94 52.96Q610.10 54.23 610.10 56.05L610.10 56.05Q610.10 58.38 608.45 60.20Q606.80 62.03 604.62 62.03L604.62 62.03Q602.86 62.03 601.70 60.77Q600.54 59.50 600.54 57.60L600.54 57.60Q600.54 55.28 602.19 53.49Q603.84 51.70 606.02 51.70ZM629.30 68.43L629.30 68.43Q634.36 68.43 637.17 71.59L637.17 71.59Q637.66 73.07 637.66 73.91L637.66 73.91Q637.66 75.67 636.75 76.94Q635.84 78.20 634.36 78.20L634.36 78.20Q633.16 78.20 632.39 77.29Q631.62 76.38 631.30 75.25Q630.98 74.13 630.28 73.21Q629.58 72.30 628.52 72.30L628.52 72.30Q626.63 72.30 624.87 74.83Q623.11 77.36 622.09 81.02Q621.07 84.67 621.07 88.12L621.07 88.12Q621.07 95.22 625.57 95.22L625.57 95.22Q627.68 95.22 629.79 93.71Q631.90 92.20 632.67 91.14L632.67 91.14Q632.81 91.14 633.41 91.84Q634.01 92.55 634.01 92.83L634.01 92.83Q633.16 94.80 629.44 97.61Q625.71 100.42 622.41 100.42L622.41 100.42Q617.20 100.42 614.71 97.36Q612.21 94.30 612.21 89.03L612.21 89.03Q612.21 83.83 614.60 79.01Q616.99 74.20 620.96 71.31Q624.94 68.43 629.30 68.43Z"/></svg>