<svg xmlns="http://www.w3.org/2000/svg" viewBox="1.7578125 51.203125 707.4140625 49.5"><path d="M43.10 87.20L43.10 87.20Q43.10 88.12 42.05 92.65Q40.99 97.19 40.43 97.47L40.43 97.47Q34.31 100.42 24.12 100.42L24.12 100.42Q14.84 100.42 8.30 93.60Q1.76 86.78 1.76 77.36L1.76 77.36Q1.76 67.38 8.44 60.24Q15.12 53.10 24.89 53.10L24.89 53.10Q32.84 53.10 41.48 55L41.48 55Q41.70 55.07 41.91 59.61Q42.12 64.14 42.12 65.27L42.12 65.27Q42.12 66.32 40.43 66.32L40.43 66.32Q40.01 66.32 39.45 66.04L39.45 66.04Q39.16 64.77 38.43 63.44Q37.69 62.10 36.21 60.41Q34.73 58.73 31.85 57.64Q28.97 56.55 25.17 56.55L25.17 56.55Q18.28 56.55 14.45 62.24Q10.62 67.94 10.62 75.88L10.62 75.88Q10.62 84.74 14.94 90.89Q19.27 97.05 27.14 97.05L27.14 97.05Q33.40 97.05 37.05 93.11L37.05 93.11Q37.97 92.13 38.71 90.47Q39.45 88.82 39.83 87.70Q40.22 86.57 40.36 86.57L40.36 86.57Q42.82 86.57 43.10 87.20ZM67.43 68.92L67.43 68.92Q71.30 68.92 73.20 71.24L73.20 71.24Q73.20 77.22 69.82 77.22L69.82 77.22Q68.55 77.22 67.08 75.81Q65.60 74.41 64.05 74.41L64.05 74.41Q61.88 74.41 60.64 76.62Q59.41 78.84 59.41 81.23L59.41 81.23L59.41 90.02Q59.41 94.30 59.91 96.34L59.91 96.34Q60.05 96.84 61.77 97.36Q63.49 97.89 64.13 97.89L64.13 97.89Q64.34 97.89 64.37 98.91Q64.41 99.93 64.34 100.28L64.34 100.28Q63.77 100.21 60.61 100Q57.45 99.79 55.83 99.79L55.83 99.79Q54.14 99.79 50.94 100Q47.74 100.21 47.18 100.28L47.18 100.28Q46.90 100 46.90 98.95Q46.90 97.89 47.18 97.89L47.18 97.89Q48.02 97.89 49.75 97.36Q51.47 96.84 51.61 96.34L51.61 96.34Q52.10 94.23 52.10 91.21L52.10 91.21L52.10 79.75Q52.10 76.45 50.98 75.25L50.98 75.25Q50.41 74.55 49.39 74.20Q48.38 73.84 47.71 73.77Q47.04 73.70 47.04 73.56L47.04 73.56Q47.04 71.52 47.39 71.45L47.39 71.45Q50.63 71.17 58.71 69.34L58.71 69.34Q58.71 69.34 58.96 69.27Q59.20 69.20 59.27 69.20L59.27 69.20Q59.55 69.20 59.77 69.70Q59.98 70.19 59.94 70.50Q59.91 70.82 59.84 71.49Q59.77 72.16 59.66 72.89Q59.55 73.63 59.55 73.84L59.55 73.84Q60.82 71.95 63 70.43Q65.18 68.92 67.43 68.92ZM82.27 60.59Q81 59.29 81 57.50Q81 55.70 82.27 54.44Q83.53 53.17 85.36 53.17Q87.19 53.17 88.45 54.44Q89.72 55.70 89.72 57.50Q89.72 59.29 88.45 60.59Q87.19 61.89 85.36 61.89Q83.53 61.89 82.27 60.59ZM89.58 76.52L89.58 90.02Q89.58 94.30 90.14 96.34L90.14 96.34Q90.28 96.84 92.04 97.36Q93.80 97.89 94.43 97.89L94.43 97.89Q94.71 97.89 94.75 98.91Q94.78 99.93 94.64 100.28L94.64 100.28Q94.15 100.21 90.88 100Q87.61 99.79 86.06 99.79L86.06 99.79Q84.30 99.79 81.11 100Q77.91 100.21 77.41 100.28L77.41 100.28Q77.13 100 77.13 98.95Q77.13 97.89 77.41 97.89L77.41 97.89Q78.19 97.89 79.95 97.36Q81.70 96.84 81.84 96.34L81.84 96.34Q82.34 94.23 82.34 91.21L82.34 91.21L82.34 79.75Q82.34 76.45 81.21 75.25L81.21 75.25Q80.58 74.55 79.59 74.20Q78.61 73.84 77.91 73.77Q77.20 73.70 77.20 73.56L77.20 73.56Q77.20 71.52 77.63 71.45L77.63 71.45Q79.59 71.31 83.32 70.61Q87.05 69.91 88.88 69.34L88.88 69.34Q88.95 69.34 89.19 69.27Q89.44 69.20 89.44 69.20L89.44 69.20Q89.79 69.20 90 69.70Q90.21 70.19 90.14 70.47L90.14 70.47Q89.58 74.97 89.58 76.52L89.58 76.52ZM121.15 68.92L121.15 68.92Q123.82 68.92 125.72 70.29Q127.62 71.66 128.53 73.84L128.53 73.84Q130.57 71.73 133.66 70.33Q136.76 68.92 140.27 68.92L140.27 68.92Q142.80 68.92 144.60 70.05Q146.39 71.17 147.41 73.18Q148.43 75.18 148.89 77.54Q149.34 79.89 149.34 82.63L149.34 82.63L149.34 90.02Q149.34 94.30 149.84 96.34L149.84 96.34Q149.98 96.84 151.73 97.36Q153.49 97.89 154.13 97.89L154.13 97.89Q154.34 97.89 154.37 98.91Q154.41 99.93 154.27 100.28L154.27 100.28Q153.77 100.21 150.57 100Q147.38 99.79 145.76 99.79L145.76 99.79Q144.07 99.79 140.94 100Q137.81 100.21 137.18 100.28L137.18 100.28Q136.97 100 136.97 98.95Q136.97 97.89 137.18 97.89L137.18 97.89Q138.02 97.89 139.71 97.36Q141.40 96.84 141.54 96.34L141.54 96.34Q142.03 94.23 142.03 91.42L142.03 91.42L142.03 84.25Q142.03 74.05 135.49 74.05L135.49 74.05Q133.17 74.05 131.63 75.18Q130.08 76.30 129.80 77.36L129.80 77.36Q129.80 77.57 129.76 77.92Q129.73 78.27 129.80 78.48L129.80 78.48Q130.01 80.03 130.01 82.84L130.01 82.84L130.01 90.30Q130.01 94.30 130.50 96.34L130.50 96.34Q130.64 96.84 132.40 97.36Q134.16 97.89 134.79 97.89L134.79 97.89Q135 97.89 135.04 98.91Q135.07 99.93 134.93 100.28L134.93 100.28Q134.44 100.21 131.24 100Q128.04 99.79 126.42 99.79L126.42 99.79Q124.73 99.79 121.61 100Q118.48 100.21 117.84 100.28L117.84 100.28Q117.63 100 117.63 98.95Q117.63 97.89 117.84 97.89L117.84 97.89Q118.69 97.89 120.38 97.36Q122.06 96.84 122.20 96.34L122.20 96.34Q122.70 94.23 122.70 91.21L122.70 91.21L122.70 84.46Q122.70 78.98 121.08 76.52Q119.46 74.05 116.30 74.05L116.30 74.05Q114.19 74.05 112.43 75.25Q110.67 76.45 110.67 77.92L110.67 77.92L110.67 90.02Q110.67 94.30 111.23 96.34L111.23 96.34Q111.38 96.84 113.06 97.36Q114.75 97.89 115.38 97.89L115.38 97.89Q115.66 97.89 115.70 98.91Q115.73 99.93 115.59 100.28L115.59 100.28Q115.03 100.21 111.90 100Q108.77 99.79 107.16 99.79L107.16 99.79Q105.40 99.79 102.23 100Q99.07 100.21 98.51 100.28L98.51 100.28Q98.23 100 98.23 98.95Q98.23 97.89 98.51 97.89L98.51 97.89Q99.28 97.89 101.04 97.36Q102.80 96.84 102.94 96.34L102.94 96.34Q103.43 94.23 103.43 91.21L103.43 91.21L103.43 79.75Q103.43 76.45 102.30 75.25L102.30 75.25Q101.74 74.55 100.72 74.20Q99.70 73.84 99 73.77Q98.30 73.70 98.30 73.56L98.30 73.56Q98.30 71.52 98.72 71.45L98.72 71.45Q101.95 71.17 109.97 69.34L109.97 69.34Q110.04 69.27 110.18 69.24Q110.32 69.20 110.43 69.20Q110.53 69.20 110.53 69.20L110.53 69.20Q110.88 69.20 111.09 69.70Q111.30 70.19 111.23 70.47L111.23 70.47Q110.95 72.44 110.95 73L110.95 73Q110.95 73.28 111.09 73.35L111.09 73.35Q111.16 73.35 111.45 73.14L111.45 73.14Q113.13 71.45 115.77 70.19Q118.41 68.92 121.15 68.92ZM168.96 68.85L168.96 68.85Q172.90 68.85 177.12 70.05L177.12 70.05Q177.82 73.21 177.89 77.92L177.89 77.92Q177.89 78.48 176.98 78.48L176.98 78.48Q175.43 78.48 175.29 77.92L175.29 77.92Q174.80 75.46 173.21 73.74Q171.63 72.02 168.96 72.02L168.96 72.02Q166.92 72.02 165.76 72.93Q164.60 73.84 164.60 75.53L164.60 75.53Q164.60 76.52 164.99 77.32Q165.38 78.13 166.25 78.84Q167.13 79.54 167.80 79.96Q168.47 80.38 169.80 81.09L169.80 81.09Q170.30 81.37 170.51 81.44L170.51 81.44Q170.65 81.51 171.56 82Q172.48 82.49 172.72 82.63Q172.97 82.77 173.85 83.30Q174.73 83.83 175.08 84.11Q175.43 84.39 176.17 84.95Q176.91 85.52 177.22 85.94Q177.54 86.36 178.07 87.03Q178.59 87.70 178.80 88.29Q179.02 88.89 179.19 89.63Q179.37 90.37 179.37 91.14L179.37 91.14Q179.37 95.57 175.96 98.14Q172.55 100.70 167.70 100.70L167.70 100.70Q163.34 100.70 158.63 98.73L158.63 98.73Q158.27 97.54 157.92 94.83Q157.57 92.13 157.57 90.79L157.57 90.79Q157.99 90.44 158.55 90.44L158.55 90.44Q160.17 90.44 160.24 91L160.24 91Q160.80 93.95 163.02 95.75Q165.23 97.54 167.84 97.54L167.84 97.54Q169.80 97.54 171.07 96.55Q172.34 95.57 172.34 93.67L172.34 93.67Q172.34 92.97 172.16 92.37Q171.98 91.77 171.49 91.18Q171 90.58 170.68 90.19Q170.37 89.80 169.42 89.24Q168.47 88.68 168.01 88.43Q167.55 88.19 166.25 87.52Q164.95 86.85 164.46 86.57L164.46 86.57Q161.23 84.88 159.47 82.81Q157.71 80.73 157.71 77.78L157.71 77.78Q157.71 73.49 161.09 71.17Q164.46 68.85 168.96 68.85ZM198.21 72.23L198.21 72.23Q194.91 72.23 193.08 75.43Q191.25 78.63 191.25 83.05L191.25 83.05Q191.25 88.75 193.54 92.97Q195.82 97.19 199.90 97.19L199.90 97.19Q203.20 97.19 205.07 93.95Q206.93 90.72 206.93 86.36L206.93 86.36Q206.93 82.70 206.02 79.57Q205.10 76.45 203.06 74.34Q201.02 72.23 198.21 72.23ZM199.13 68.92L199.13 68.92Q205.73 68.92 210.41 73.53Q215.09 78.13 215.09 84.67L215.09 84.67Q215.09 91.21 210.48 95.85Q205.88 100.49 199.20 100.49L199.20 100.49Q192.52 100.49 187.88 95.85Q183.23 91.21 183.23 84.67L183.23 84.67Q183.23 78.06 187.84 73.49Q192.45 68.92 199.13 68.92ZM241.88 68.92L241.88 68.92Q250.95 68.92 250.95 83.34L250.95 83.34L250.95 90.02Q250.95 94.30 251.44 96.34L251.44 96.34Q251.58 96.84 253.37 97.36Q255.16 97.89 255.80 97.89L255.80 97.89Q256.01 97.89 256.04 98.91Q256.08 99.93 255.94 100.28L255.94 100.28Q255.52 100.21 252.25 100Q248.98 99.79 247.36 99.79L247.36 99.79Q245.67 99.79 242.68 100Q239.70 100.21 239.06 100.28L239.06 100.28Q238.78 100 238.78 98.95Q238.78 97.89 239.06 97.89L239.06 97.89Q239.84 97.89 241.42 97.36Q243 96.84 243.14 96.34L243.14 96.34Q243.70 94.23 243.70 91.21L243.70 91.21L243.70 84.53Q243.70 78.70 242.12 76.38Q240.54 74.05 237.09 74.05L237.09 74.05Q234.84 74.05 233.16 75.29Q231.47 76.52 231.47 77.92L231.47 77.92L231.47 90.02Q231.47 94.30 231.96 96.34L231.96 96.34Q232.10 96.84 233.82 97.36Q235.55 97.89 236.11 97.89L236.11 97.89Q236.39 97.89 236.43 98.91Q236.46 99.93 236.32 100.28L236.32 100.28Q235.76 100.21 232.63 100Q229.50 99.79 227.88 99.79L227.88 99.79Q226.20 99.79 223.00 100Q219.80 100.21 219.23 100.28L219.23 100.28Q218.95 100 218.95 98.95Q218.95 97.89 219.23 97.89L219.23 97.89Q220.08 97.89 221.80 97.36Q223.52 96.84 223.66 96.34L223.66 96.34Q224.16 94.23 224.16 91.21L224.16 91.21L224.16 79.75Q224.16 76.45 223.03 75.25L223.03 75.25Q222.47 74.55 221.45 74.20Q220.43 73.84 219.76 73.77Q219.09 73.70 219.09 73.56L219.09 73.56Q219.09 71.52 219.45 71.45L219.45 71.45Q222.68 71.17 230.77 69.34L230.77 69.34Q230.84 69.27 230.94 69.24Q231.05 69.20 231.15 69.20Q231.26 69.20 231.33 69.20L231.33 69.20Q231.61 69.20 231.82 69.70Q232.03 70.19 232.03 70.47L232.03 70.47Q231.75 72.44 231.75 73L231.75 73Q231.75 73.28 231.82 73.35L231.82 73.35Q231.89 73.35 232.17 73.14L232.17 73.14Q233.86 71.45 236.50 70.19Q239.13 68.92 241.88 68.92ZM288.25 53.70Q292.99 53.88 296.02 53.88Q299.04 53.88 303.82 53.70Q308.60 53.52 311.48 53.45L311.48 53.45Q313.24 53.45 316.34 52.75L316.34 52.75L317.67 63.51Q317.18 64 315.77 64L315.77 64Q315.21 64 315.07 63.65L315.07 63.65Q314.09 59.78 312.47 58.41Q310.85 57.04 307.41 57.04L307.41 57.04Q300.87 57.04 300.59 58.23L300.59 58.23Q299.95 60.27 299.95 64.84L299.95 64.84L299.95 90.23Q299.95 94.02 300.59 96.34L300.59 96.34Q300.66 96.84 302.48 97.36Q304.31 97.89 304.95 97.89L304.95 97.89Q305.23 97.89 305.23 99.16L305.23 99.16Q305.23 99.86 305.09 100.28L305.09 100.28Q304.17 100.21 302.38 100.07Q300.59 99.93 299.07 99.86Q297.56 99.79 296.16 99.79L296.16 99.79Q294.26 99.79 290.92 100Q287.58 100.21 286.80 100.28L286.80 100.28Q286.52 100 286.52 99.16L286.52 99.16Q286.52 97.89 286.80 97.89L286.80 97.89Q287.65 97.89 289.44 97.40Q291.23 96.91 291.45 96.34L291.45 96.34Q292.01 94.45 292.01 90.51L292.01 90.51L292.01 65.05Q292.01 59.22 291.38 58.23L291.38 58.23Q290.81 57.04 284.70 57.04L284.70 57.04Q281.25 57.04 279.63 58.41Q278.02 59.78 276.96 63.58L276.96 63.58Q276.89 64 276.26 64L276.26 64Q274.92 64 274.43 63.44L274.43 63.44L275.77 52.75Q278.86 53.45 280.62 53.45L280.62 53.45Q283.50 53.52 288.25 53.70ZM335.25 72.16L335.25 72.16Q333.56 72.16 332.23 73.14Q330.89 74.13 330.19 75.53Q329.48 76.94 329.17 78.17Q328.85 79.40 328.85 80.24L328.85 80.24Q328.85 80.73 329.27 80.73L329.27 80.73L340.66 80.73Q341.30 80.73 341.30 79.68L341.30 79.68Q341.30 77.22 339.64 74.69Q337.99 72.16 335.25 72.16ZM335.74 68.92L335.74 68.92Q339.05 68.92 341.65 70.22Q344.25 71.52 345.73 73.53Q347.20 75.53 347.98 77.68Q348.75 79.82 348.75 81.79L348.75 81.79Q348.75 83.34 348.22 83.72Q347.70 84.11 346.08 84.11L346.08 84.11L329.27 84.11Q328.78 84.11 328.78 84.53L328.78 84.53Q328.78 87.06 329.70 89.45Q330.61 91.84 332.82 93.60Q335.04 95.36 338.13 95.36L338.13 95.36Q339.19 95.36 340.17 95.25Q341.16 95.15 342 94.90Q342.84 94.66 343.48 94.45Q344.11 94.23 344.78 93.81Q345.45 93.39 345.73 93.21Q346.01 93.04 346.57 92.65Q347.13 92.27 347.13 92.27L347.13 92.27Q347.27 92.34 347.48 92.69Q347.70 93.04 347.70 93.39L347.70 93.39Q347.70 94.16 347.27 94.73L347.27 94.73Q346.22 96.63 343.13 98.52Q340.03 100.42 336.16 100.42L336.16 100.42Q330.05 100.42 325.62 95.89Q321.19 91.35 321.19 84.88L321.19 84.88Q321.19 77.78 325.30 73.35Q329.41 68.92 335.74 68.92ZM352.34 70.33L352.34 70.33Q352.34 69.63 352.62 69.20L352.62 69.20Q360.35 69.63 360.91 69.63L360.91 69.63Q361.48 69.63 369.35 69.20L369.35 69.20Q369.49 69.48 369.49 70.19L369.49 70.19Q369.49 71.45 369.21 71.45L369.21 71.45Q368.23 71.45 367.24 71.84Q366.26 72.23 366.26 72.93L366.26 72.93Q366.26 73.28 366.61 73.77L366.61 73.77L371.04 80.03Q371.53 79.33 372.94 77.43Q374.34 75.53 375.01 74.48Q375.68 73.42 375.68 72.86L375.68 72.86Q375.68 72.37 375.08 72.05Q374.48 71.73 373.82 71.66Q373.15 71.59 372.41 71.56Q371.67 71.52 371.60 71.45L371.60 71.45Q371.32 71.45 371.32 70.33L371.32 70.33Q371.32 69.48 371.60 69.20L371.60 69.20Q379.27 69.63 379.76 69.63L379.76 69.63Q380.25 69.63 387.07 69.20L387.07 69.20Q387.21 69.70 387.21 70.33L387.21 70.33Q387.21 71.45 387.07 71.45L387.07 71.45Q382.29 72.02 380.88 73.70L380.88 73.70L373.43 82.42Q373.29 82.70 373.29 82.98L373.29 82.98Q373.29 83.41 373.57 83.69L373.57 83.69L381.52 94.59Q383.63 97.54 387.35 98.03L387.35 98.03Q387.56 98.03 387.56 99.23L387.56 99.23Q387.56 99.86 387.28 100.28L387.28 100.28Q386.23 100.21 384.71 100.07Q383.20 99.93 381.97 99.86Q380.74 99.79 379.34 99.79L379.34 99.79Q377.79 99.79 376.45 99.86Q375.12 99.93 373.46 100.07Q371.81 100.21 370.62 100.28L370.62 100.28Q370.48 99.58 370.48 99.37L370.48 99.37Q370.48 97.89 370.69 97.89L370.69 97.89Q371.67 97.89 372.73 97.40Q373.78 96.91 373.78 96.20L373.78 96.20Q373.78 96.06 373.64 95.78L373.64 95.78L368.58 88.75L364.15 94.94Q363.66 95.57 363.66 96.20L363.66 96.20Q363.66 96.63 363.90 96.91Q364.15 97.19 364.71 97.36Q365.27 97.54 365.66 97.61Q366.05 97.68 366.86 97.79Q367.66 97.89 367.80 97.89L367.80 97.89Q368.02 97.89 368.02 99.09L368.02 99.09Q368.02 100 367.73 100.28L367.73 100.28Q366.68 100.21 365.24 100.07Q363.80 99.93 362.60 99.86Q361.41 99.79 360.07 99.79L360.07 99.79Q358.73 99.79 357.54 99.86Q356.34 99.93 354.87 100.07Q353.39 100.21 352.34 100.28L352.34 100.28Q352.20 99.72 352.20 99.09L352.20 99.09Q352.20 97.89 352.48 97.89L352.48 97.89Q357.05 97.19 358.59 95.22L358.59 95.22L366.12 86.08Q366.26 85.80 366.26 85.52L366.26 85.52Q366.26 85.30 366.05 85.02L366.05 85.02L357.96 74.05Q357.19 73 355.50 72.26Q353.81 71.52 352.62 71.52L352.62 71.52Q352.34 71.52 352.34 70.33ZM395.86 90.86L395.86 73.84L391.57 73.84Q391.08 73.84 391.08 72.02L391.08 72.02Q391.08 71.52 391.15 71.38L391.15 71.38Q393.96 70.12 396.56 67.66L396.56 67.66Q397.48 66.74 398.57 65.58Q399.66 64.42 400.39 63.51Q401.13 62.59 401.13 62.59L401.13 62.59Q401.84 62.59 402.47 62.77Q403.10 62.95 403.10 63.16L403.10 63.16L403.10 70.05Q404.93 70.05 408.20 70.08Q411.47 70.12 411.68 70.12L411.68 70.12Q412.24 70.12 412.24 70.75L412.24 70.75Q412.24 72.44 411.54 73.84L411.54 73.84L403.10 73.84L403.10 90.79Q403.10 93.60 404.30 95.08Q405.49 96.55 407.60 96.55L407.60 96.55Q408.30 96.55 409.08 96.38Q409.85 96.20 410.34 95.99Q410.84 95.78 411.26 95.57Q411.68 95.36 411.75 95.36L411.75 95.36Q412.03 95.29 412.38 95.99Q412.73 96.70 412.66 96.91L412.66 96.91Q412.24 97.89 409.68 99.19Q407.11 100.49 404.65 100.49L404.65 100.49Q400.99 100.49 398.43 98.14Q395.86 95.78 395.86 90.86L395.86 90.86ZM442.55 68.85L442.55 68.85Q446.48 68.85 450.70 70.05L450.70 70.05Q451.41 73.21 451.48 77.92L451.48 77.92Q451.48 78.48 450.56 78.48L450.56 78.48Q449.02 78.48 448.88 77.92L448.88 77.92Q448.38 75.46 446.80 73.74Q445.22 72.02 442.55 72.02L442.55 72.02Q440.51 72.02 439.35 72.93Q438.19 73.84 438.19 75.53L438.19 75.53Q438.19 76.52 438.57 77.32Q438.96 78.13 439.84 78.84Q440.72 79.54 441.39 79.96Q442.05 80.38 443.39 81.09L443.39 81.09Q443.88 81.37 444.09 81.44L444.09 81.44Q444.23 81.51 445.15 82Q446.06 82.49 446.31 82.63Q446.55 82.77 447.43 83.30Q448.31 83.83 448.66 84.11Q449.02 84.39 449.75 84.95Q450.49 85.52 450.81 85.94Q451.13 86.36 451.65 87.03Q452.18 87.70 452.39 88.29Q452.60 88.89 452.78 89.63Q452.95 90.37 452.95 91.14L452.95 91.14Q452.95 95.57 449.54 98.14Q446.13 100.70 441.28 100.70L441.28 100.70Q436.92 100.70 432.21 98.73L432.21 98.73Q431.86 97.54 431.51 94.83Q431.16 92.13 431.16 90.79L431.16 90.79Q431.58 90.44 432.14 90.44L432.14 90.44Q433.76 90.44 433.83 91L433.83 91Q434.39 93.95 436.61 95.75Q438.82 97.54 441.42 97.54L441.42 97.54Q443.39 97.54 444.66 96.55Q445.92 95.57 445.92 93.67L445.92 93.67Q445.92 92.97 445.75 92.37Q445.57 91.77 445.08 91.18Q444.59 90.58 444.27 90.19Q443.95 89.80 443.00 89.24Q442.05 88.68 441.60 88.43Q441.14 88.19 439.84 87.52Q438.54 86.85 438.05 86.57L438.05 86.57Q434.81 84.88 433.05 82.81Q431.30 80.73 431.30 77.78L431.30 77.78Q431.30 73.49 434.67 71.17Q438.05 68.85 442.55 68.85ZM470.74 72.16L470.74 72.16Q469.05 72.16 467.72 73.14Q466.38 74.13 465.68 75.53Q464.98 76.94 464.66 78.17Q464.34 79.40 464.34 80.24L464.34 80.24Q464.34 80.73 464.77 80.73L464.77 80.73L476.16 80.73Q476.79 80.73 476.79 79.68L476.79 79.68Q476.79 77.22 475.14 74.69Q473.48 72.16 470.74 72.16ZM471.23 68.92L471.23 68.92Q474.54 68.92 477.14 70.22Q479.74 71.52 481.22 73.53Q482.70 75.53 483.47 77.68Q484.24 79.82 484.24 81.79L484.24 81.79Q484.24 83.34 483.71 83.72Q483.19 84.11 481.57 84.11L481.57 84.11L464.77 84.11Q464.27 84.11 464.27 84.53L464.27 84.53Q464.27 87.06 465.19 89.45Q466.10 91.84 468.32 93.60Q470.53 95.36 473.63 95.36L473.63 95.36Q474.68 95.36 475.66 95.25Q476.65 95.15 477.49 94.90Q478.34 94.66 478.97 94.45Q479.60 94.23 480.27 93.81Q480.94 93.39 481.22 93.21Q481.50 93.04 482.06 92.65Q482.63 92.27 482.63 92.27L482.63 92.27Q482.77 92.34 482.98 92.69Q483.19 93.04 483.19 93.39L483.19 93.39Q483.19 94.16 482.77 94.73L482.77 94.73Q481.71 96.63 478.62 98.52Q475.52 100.42 471.66 100.42L471.66 100.42Q465.54 100.42 461.11 95.89Q456.68 91.35 456.68 84.88L456.68 84.88Q456.68 77.78 460.79 73.35Q464.91 68.92 471.23 68.92ZM510.47 68.92L510.47 68.92Q513.14 68.92 515.04 70.29Q516.94 71.66 517.85 73.84L517.85 73.84Q519.89 71.73 522.98 70.33Q526.08 68.92 529.59 68.92L529.59 68.92Q532.13 68.92 533.92 70.05Q535.71 71.17 536.73 73.18Q537.75 75.18 538.21 77.54Q538.66 79.89 538.66 82.63L538.66 82.63L538.66 90.02Q538.66 94.30 539.16 96.34L539.16 96.34Q539.30 96.84 541.05 97.36Q542.81 97.89 543.45 97.89L543.45 97.89Q543.66 97.89 543.69 98.91Q543.73 99.93 543.59 100.28L543.59 100.28Q543.09 100.21 539.89 100Q536.70 99.79 535.08 99.79L535.08 99.79Q533.39 99.79 530.26 100Q527.13 100.21 526.50 100.28L526.50 100.28Q526.29 100 526.29 98.95Q526.29 97.89 526.50 97.89L526.50 97.89Q527.34 97.89 529.03 97.36Q530.72 96.84 530.86 96.34L530.86 96.34Q531.35 94.23 531.35 91.42L531.35 91.42L531.35 84.25Q531.35 74.05 524.81 74.05L524.81 74.05Q522.49 74.05 520.95 75.18Q519.40 76.30 519.12 77.36L519.12 77.36Q519.12 77.57 519.08 77.92Q519.05 78.27 519.12 78.48L519.12 78.48Q519.33 80.03 519.33 82.84L519.33 82.84L519.33 90.30Q519.33 94.30 519.82 96.34L519.82 96.34Q519.96 96.84 521.72 97.36Q523.48 97.89 524.11 97.89L524.11 97.89Q524.32 97.89 524.36 98.91Q524.39 99.93 524.25 100.28L524.25 100.28Q523.76 100.21 520.56 100Q517.36 99.79 515.74 99.79L515.74 99.79Q514.05 99.79 510.93 100Q507.80 100.21 507.16 100.28L507.16 100.28Q506.95 100 506.95 98.95Q506.95 97.89 507.16 97.89L507.16 97.89Q508.01 97.89 509.70 97.36Q511.38 96.84 511.52 96.34L511.52 96.34Q512.02 94.23 512.02 91.21L512.02 91.21L512.02 84.46Q512.02 78.98 510.40 76.52Q508.78 74.05 505.62 74.05L505.62 74.05Q503.51 74.05 501.75 75.25Q499.99 76.45 499.99 77.92L499.99 77.92L499.99 90.02Q499.99 94.30 500.55 96.34L500.55 96.34Q500.70 96.84 502.38 97.36Q504.07 97.89 504.70 97.89L504.70 97.89Q504.98 97.89 505.02 98.91Q505.05 99.93 504.91 100.28L504.91 100.28Q504.35 100.21 501.22 100Q498.09 99.79 496.48 99.79L496.48 99.79Q494.72 99.79 491.55 100Q488.39 100.21 487.83 100.28L487.83 100.28Q487.55 100 487.55 98.95Q487.55 97.89 487.83 97.89L487.83 97.89Q488.60 97.89 490.36 97.36Q492.12 96.84 492.26 96.34L492.26 96.34Q492.75 94.23 492.75 91.21L492.75 91.21L492.75 79.75Q492.75 76.45 491.63 75.25L491.63 75.25Q491.06 74.55 490.04 74.20Q489.02 73.84 488.32 73.77Q487.62 73.70 487.62 73.56L487.62 73.56Q487.62 71.52 488.04 71.45L488.04 71.45Q491.27 71.17 499.29 69.34L499.29 69.34Q499.36 69.27 499.50 69.24Q499.64 69.20 499.75 69.20Q499.85 69.20 499.85 69.20L499.85 69.20Q500.20 69.20 500.41 69.70Q500.63 70.19 500.55 70.47L500.55 70.47Q500.27 72.44 500.27 73L500.27 73Q500.27 73.28 500.41 73.35L500.41 73.35Q500.48 73.35 500.77 73.14L500.77 73.14Q502.45 71.45 505.09 70.19Q507.73 68.92 510.47 68.92ZM552.02 60.59Q550.76 59.29 550.76 57.50Q550.76 55.70 552.02 54.44Q553.29 53.17 555.12 53.17Q556.95 53.17 558.21 54.44Q559.48 55.70 559.48 57.50Q559.48 59.29 558.21 60.59Q556.95 61.89 555.12 61.89Q553.29 61.89 552.02 60.59ZM559.34 76.52L559.34 90.02Q559.34 94.30 559.90 96.34L559.90 96.34Q560.04 96.84 561.80 97.36Q563.55 97.89 564.19 97.89L564.19 97.89Q564.47 97.89 564.50 98.91Q564.54 99.93 564.40 100.28L564.40 100.28Q563.91 100.21 560.64 100Q557.37 99.79 555.82 99.79L555.82 99.79Q554.06 99.79 550.86 100Q547.66 100.21 547.17 100.28L547.17 100.28Q546.89 100 546.89 98.95Q546.89 97.89 547.17 97.89L547.17 97.89Q547.95 97.89 549.70 97.36Q551.46 96.84 551.60 96.34L551.60 96.34Q552.09 94.23 552.09 91.21L552.09 91.21L552.09 79.75Q552.09 76.45 550.97 75.25L550.97 75.25Q550.34 74.55 549.35 74.20Q548.37 73.84 547.66 73.77Q546.96 73.70 546.96 73.56L546.96 73.56Q546.96 71.52 547.38 71.45L547.38 71.45Q549.35 71.31 553.08 70.61Q556.80 69.91 558.63 69.34L558.63 69.34Q558.70 69.34 558.95 69.27Q559.20 69.20 559.20 69.20L559.20 69.20Q559.55 69.20 559.76 69.70Q559.97 70.19 559.90 70.47L559.90 70.47Q559.34 74.97 559.34 76.52L559.34 76.52ZM600.54 68.92L600.54 68.92Q604.90 68.92 608.38 71.14Q611.86 73.35 613.65 76.76Q615.45 80.17 615.45 83.83L615.45 83.83Q615.45 90.72 610.56 95.61Q605.67 100.49 599.27 100.49L599.27 100.49Q596.32 100.49 594.14 99.96Q591.96 99.44 590.84 99.44L590.84 99.44Q590.20 99.44 589.01 99.93Q587.81 100.42 587.60 100.42L587.60 100.42Q587.39 100.42 586.58 100Q585.77 99.58 585.77 99.30L585.77 99.30Q585.77 99.09 585.91 98.03Q586.05 96.98 586.27 95.01Q586.48 93.04 586.48 90.72L586.48 90.72L586.48 62.03Q586.48 59.36 586.05 57.25L586.05 57.25Q585.70 56.13 582.40 56.13L582.40 56.13L581.77 56.13Q581.34 56.13 581.34 55L581.34 55Q581.34 53.88 581.77 53.88L581.77 53.88Q583.95 53.66 585.91 53.31Q587.88 52.96 589.18 52.61Q590.48 52.26 591.43 51.91Q592.38 51.55 592.91 51.38Q593.44 51.20 593.44 51.20L593.44 51.20L593.58 51.20Q593.86 51.20 594.14 51.59Q594.42 51.98 594.49 52.33L594.49 52.33Q593.72 55.07 593.72 58.94L593.72 58.94L593.72 70.19L593.72 70.26Q593.72 70.47 593.72 70.57Q593.72 70.68 593.75 70.89Q593.79 71.10 593.89 71.10Q594 71.10 594.14 71.03L594.14 71.03Q595.13 70.33 596.99 69.63Q598.85 68.92 600.54 68.92ZM598.99 72.72L598.99 72.72Q596.67 72.72 595.20 74.05Q593.72 75.39 593.72 77.22L593.72 77.22L593.72 92.13Q593.72 94.59 595.58 95.85Q597.45 97.12 599.98 97.12L599.98 97.12Q603.63 97.12 605.50 93.81Q607.36 90.51 607.36 85.80L607.36 85.80Q607.36 79.75 605.18 76.23Q603 72.72 598.99 72.72ZM634.50 72.23L634.50 72.23Q631.20 72.23 629.37 75.43Q627.54 78.63 627.54 83.05L627.54 83.05Q627.54 88.75 629.82 92.97Q632.11 97.19 636.19 97.19L636.19 97.19Q639.49 97.19 641.36 93.95Q643.22 90.72 643.22 86.36L643.22 86.36Q643.22 82.70 642.30 79.57Q641.39 76.45 639.35 74.34Q637.31 72.23 634.50 72.23ZM635.41 68.92L635.41 68.92Q642.02 68.92 646.70 73.53Q651.38 78.13 651.38 84.67L651.38 84.67Q651.38 91.21 646.77 95.85Q642.16 100.49 635.48 100.49L635.48 100.49Q628.80 100.49 624.16 95.85Q619.52 91.21 619.52 84.67L619.52 84.67Q619.52 78.06 624.13 73.49Q628.73 68.92 635.41 68.92ZM667.41 58.94L667.41 89.88Q667.41 94.23 667.90 96.20L667.90 96.20Q668.04 96.70 669.62 97.29Q671.20 97.89 671.77 97.89L671.77 97.89Q671.98 97.89 672.01 98.88Q672.05 99.86 671.91 100.21L671.91 100.21Q670.92 100.14 669.27 100.04Q667.62 99.93 666.28 99.86Q664.95 99.79 663.75 99.79L663.75 99.79Q662.41 99.79 661.08 99.86Q659.74 99.93 658.13 100.04Q656.51 100.14 655.45 100.21L655.45 100.21Q655.17 99.93 655.17 98.91Q655.17 97.89 655.45 97.89L655.45 97.89Q656.23 97.89 657.81 97.29Q659.39 96.70 659.53 96.20L659.53 96.20Q660.09 93.74 660.09 91L660.09 91L660.09 61.75Q660.09 59.08 659.67 56.97L659.67 56.97Q659.32 55.84 656.16 55.84L656.16 55.84L655.45 55.84Q655.03 55.84 655.03 55L655.03 55Q655.03 53.88 655.45 53.88L655.45 53.88Q657.63 53.66 659.60 53.31Q661.57 52.96 662.87 52.61Q664.17 52.26 665.12 51.94Q666.07 51.63 666.63 51.41L666.63 51.41L667.13 51.20L667.27 51.20Q667.55 51.20 667.86 51.63Q668.18 52.05 668.25 52.33L668.25 52.33Q667.41 55 667.41 58.94L667.41 58.94ZM691.10 72.16L691.10 72.16Q687.38 72.16 685.48 75.32Q683.58 78.48 683.58 83.83L683.58 83.83Q683.58 89.80 685.76 93.14Q687.94 96.48 691.88 96.48L691.88 96.48Q694.27 96.48 695.74 95.25Q697.22 94.02 697.22 92.13L697.22 92.13L697.22 77.36Q697.22 76.66 696.97 75.88Q696.73 75.11 696.13 74.23Q695.53 73.35 694.23 72.75Q692.93 72.16 691.10 72.16ZM691.73 68.78L691.73 68.78Q694.76 68.78 696.87 69.77L696.87 69.77Q697.22 69.77 697.22 68.64L697.22 68.64L697.22 62.03Q697.22 59.36 696.80 57.25L696.80 57.25Q696.45 56.13 693.14 56.13L693.14 56.13L692.58 56.13Q692.16 56.13 692.16 55L692.16 55Q692.16 53.88 692.58 53.88L692.58 53.88Q694.69 53.66 696.69 53.31Q698.70 52.96 700.00 52.61Q701.30 52.26 702.25 51.91Q703.20 51.55 703.69 51.38Q704.18 51.20 704.25 51.20L704.25 51.20L704.39 51.20Q704.67 51.20 704.95 51.59Q705.23 51.98 705.23 52.33L705.23 52.33Q704.53 55.07 704.53 58.94L704.53 58.94L704.53 89.88Q704.53 93.11 704.95 95.08L704.95 95.08Q705.02 95.57 705.66 95.85Q706.29 96.13 706.99 96.20Q707.70 96.27 708.33 96.31Q708.96 96.34 709.03 96.34L709.03 96.34Q709.17 96.48 709.17 97.19L709.17 97.19Q709.17 98.59 708.75 98.59L708.75 98.59Q707.77 98.66 706.25 98.88Q704.74 99.09 703.30 99.33Q701.86 99.58 700.56 99.82Q699.26 100.07 698.45 100.25Q697.64 100.42 697.64 100.42L697.64 100.42Q697.22 100.42 697.22 99.23L697.22 99.23L697.22 98.03Q697.22 97.82 697.11 97.75Q697.01 97.68 696.94 97.75L696.94 97.75Q693.56 100.35 689.63 100.35L689.63 100.35Q683.93 100.35 679.71 96.17Q675.49 91.98 675.49 85.66L675.49 85.66Q675.49 78.70 680.31 73.74Q685.13 68.78 691.73 68.78Z"/></svg>