<svg xmlns="http://www.w3.org/2000/svg" viewBox="1.7578125 51.1328125 583.2421875 49.5703125"><path d="M43 87L43 87Q43 88 42 93Q41 97 40 98L40 98Q32 100 24 100L24 100Q15 100 8 94Q2 87 2 77L2 77Q2 67 8 60Q15 53 25 53L25 53Q33 53 41 55L41 55Q41 55 42 60Q42 64 42 66Q42 67 41 67L41 67Q41 67 39 66L39 66Q39 65 38 64Q37 62 36 61Q34 59 32 58Q29 57 25 57L25 57Q13 57 13 76L13 76Q13 85 17 91Q20 97 28 97L28 97Q33 97 37 93L37 93Q37 92 38 90Q39 89 39 88Q40 87 40 87L40 87Q43 87 43 87ZM70 69L70 69Q73 69 76 71L76 71Q76 75 75 77Q74 78 72 78L72 78Q70 78 68 77Q67 75 65 75L65 75Q63 75 62 77Q61 80 61 82L61 82L61 90Q61 94 62 96L62 96Q62 96 64 97Q65 98 66 98L66 98Q66 98 66 99Q66 100 66 100L66 100Q65 100 62 100Q58 100 57 100L57 100Q55 100 51 100Q48 100 47 100L47 100Q47 100 47 99Q47 98 47 98L47 98Q48 98 50 97Q51 96 52 96L52 96Q52 94 52 91L52 91L52 81Q52 77 51 76L51 76Q50 75 49 75Q48 74 48 74Q47 74 47 74L47 74Q47 72 47 72L47 72Q48 72 50 71Q52 71 55 70Q58 69 60 69L60 69Q61 69 61 69L61 69Q61 69 62 69Q62 70 62 70L62 70Q62 71 62 72Q62 73 62 73L62 73Q65 69 70 69ZM85 60Q83 59 83 57Q83 55 85 53Q87 51 89 51Q91 51 92 53Q94 55 94 57Q94 59 92 60Q91 62 89 62Q87 62 85 60ZM94 77L94 90Q94 94 94 96L94 96Q95 96 96 97Q98 98 99 98L99 98Q99 98 99 99Q99 100 99 100L99 100Q98 100 95 100Q91 100 89 100L89 100Q88 100 84 100Q81 100 80 100L80 100Q79 100 79 99Q79 98 80 98L80 98Q81 98 82 97Q84 96 84 96L84 96Q85 94 85 91L85 91L85 81Q85 77 83 76L83 76Q83 75 82 75Q81 74 80 74Q80 74 80 74L80 74Q80 72 80 72L80 72Q81 72 86 71Q91 70 93 69L93 69Q93 69 93 69Q94 69 94 69L94 69Q94 69 94 69Q95 70 95 70L95 70Q95 71 94 72Q94 74 94 75Q94 76 94 77L94 77ZM128 69L128 69Q133 69 135 73L135 73Q140 69 148 69L148 69Q152 69 154 72Q157 76 157 83L157 83L157 90Q157 94 158 96L158 96Q158 96 159 97Q161 98 162 98L162 98Q162 98 162 99Q162 100 162 100L162 100Q161 100 158 100Q154 100 152 100L152 100Q151 100 147 100Q144 100 143 100L143 100Q143 100 143 99Q143 98 143 98L143 98Q144 98 145 97Q147 96 147 96L147 96Q148 94 148 91L148 91L148 84Q148 79 146 77Q145 75 142 75L142 75Q138 75 137 77L137 77Q137 78 137 79L137 79Q137 80 137 83L137 83L137 90Q137 94 137 96L137 96Q138 96 139 97Q141 98 142 98L142 98Q142 98 142 99Q142 100 142 100L142 100Q141 100 137 100Q134 100 132 100L132 100Q131 100 127 100Q124 100 123 100L123 100Q123 100 123 99Q123 98 123 98L123 98Q124 98 125 97Q127 96 127 96L127 96Q128 94 128 91L128 91L128 84Q128 79 126 77Q125 75 122 75L122 75Q120 75 118 75Q117 76 117 78L117 78L117 90Q117 94 117 96L117 96Q117 96 119 97Q121 98 122 98L122 98Q122 98 122 99Q122 100 122 100L122 100Q121 100 117 100Q114 100 112 100L112 100Q111 100 107 100Q103 100 103 100L103 100Q102 100 102 99Q102 98 103 98L103 98Q103 98 105 97Q107 96 107 96L107 96Q108 94 108 91L108 91L108 81Q108 77 106 76L106 76Q106 75 105 75Q104 74 103 74Q103 74 103 74L103 74Q103 72 103 72L103 72Q104 72 106 71Q108 71 111 70Q114 69 116 69L116 69Q116 69 116 69Q116 69 116 69L116 69L117 69Q117 69 117 69Q118 70 118 70L118 70Q117 72 117 72L117 72Q117 73 117 73L117 73Q118 73 118 72L118 72Q122 69 128 69ZM177 68L177 68Q183 68 186 70L186 70Q187 73 187 79L187 79Q187 79 186 79L186 79Q184 79 184 79L184 79Q183 76 181 74Q180 72 177 72L177 72Q175 72 174 73Q173 74 173 75L173 75Q173 77 175 78Q176 79 179 80L179 80Q181 81 182 82Q183 83 185 84Q186 85 187 87Q188 89 188 91L188 91Q188 96 185 98Q181 101 176 101L176 101Q173 101 170 100Q167 99 166 98L166 98Q165 93 165 89L165 89Q165 89 166 89L166 89Q168 89 168 90L168 90Q169 97 176 97L176 97Q177 97 179 96Q180 95 180 94L180 94Q180 92 178 91Q177 90 173 88L173 88Q169 86 167 83Q165 81 165 78L165 78Q165 73 168 71Q172 68 177 68ZM207 72L207 72Q205 72 204 74Q203 76 202 78Q202 80 202 82L202 82Q202 97 209 97L209 97Q212 97 213 94Q215 91 215 87L215 87Q215 72 207 72ZM197 73Q201 69 208 69Q215 69 220 73Q225 78 225 85Q225 91 220 96Q215 100 208 100L208 100Q201 100 197 96Q192 91 192 85Q192 78 197 73ZM254 69L254 69Q258 69 261 72Q263 76 263 83L263 83L263 90Q263 94 264 96L264 96Q264 96 266 97Q267 98 268 98L268 98Q268 98 268 99Q268 100 268 100L268 100Q267 100 264 100Q260 100 259 100L259 100Q257 100 253 100Q250 100 249 100L249 100Q249 100 249 99Q249 98 249 98L249 98Q250 98 252 97Q253 96 253 96L253 96Q254 94 254 91L254 91L254 84Q254 79 253 77Q251 75 248 75L248 75Q246 75 244 75Q243 76 243 78L243 78L243 90Q243 94 244 96L244 96Q244 96 245 97Q247 98 248 98L248 98Q248 98 248 99Q248 100 248 100L248 100Q247 100 244 100Q240 100 239 100L239 100Q237 100 233 100Q230 100 229 100L229 100Q229 100 229 99Q229 98 229 98L229 98Q230 98 231 97Q233 96 233 96L233 96Q234 94 234 91L234 91L234 81Q234 77 233 76L233 76Q232 75 231 75Q230 74 230 74Q229 74 229 74L229 74Q229 72 229 72L229 72Q230 72 232 71Q234 71 237 70Q240 69 242 69L242 69Q242 69 242 69Q243 69 243 69L243 69L243 69Q243 69 243 69Q244 70 244 70L244 70Q244 72 244 72L244 72Q244 73 244 73L244 73Q244 73 244 72L244 72Q248 69 254 69ZM301 54Q305 54 308 54Q311 54 316 54Q321 53 324 53L324 53Q326 53 329 53L329 53L330 64Q330 65 328 65L328 65Q327 65 327 64L327 64Q326 57 320 57L320 57Q314 57 314 59L314 59Q313 61 313 65L313 65L313 90Q313 94 314 96L314 96Q314 96 316 97Q318 98 318 98L318 98Q318 98 318 99L318 99Q318 100 318 100L318 100Q318 100 314 100Q310 100 309 100L309 100Q307 100 303 100Q299 100 298 100L298 100Q298 100 298 99L298 99Q298 98 298 98L298 98Q299 98 301 97Q303 96 303 96L303 96Q303 94 303 91L303 91L303 65Q303 60 303 59L303 59Q303 58 302 58Q302 58 301 58Q300 57 297 57L297 57Q294 57 292 59Q291 60 290 64L290 64Q289 65 289 65L289 65Q287 65 287 64L287 64L288 53Q291 53 293 53L293 53Q296 53 301 54ZM349 72L349 72Q346 72 345 75Q343 78 343 80L343 80Q343 81 344 81L344 81L353 81Q354 81 354 79L354 79Q354 77 352 75Q351 72 349 72ZM349 69L349 69Q355 69 359 73Q363 77 363 82L363 82Q363 84 362 84Q362 85 360 85L360 85L344 85Q343 85 343 85L343 85Q343 89 345 92Q348 95 352 95L352 95Q354 95 356 94Q358 94 359 93Q360 92 361 91L361 91Q362 92 362 93L362 93Q362 94 362 94L362 94Q361 96 357 98Q354 100 350 100L350 100Q343 100 338 96Q334 91 334 84L334 84Q334 78 338 73Q342 69 349 69ZM366 70L366 70Q366 69 366 69L366 69Q375 69 376 69L376 69Q377 69 386 69L386 69Q386 69 386 70L386 70Q386 71 385 71L385 71Q384 71 383 72Q382 72 382 73L382 73Q382 74 383 74L383 74L387 79Q388 79 389 77Q390 75 391 74Q392 73 392 73L392 73Q392 71 387 71L387 71Q387 71 387 70L387 70Q387 69 387 69L387 69Q395 69 396 69L396 69Q397 69 404 69L404 69Q405 69 405 70L405 70Q405 71 404 71L404 71Q399 72 398 73L398 73L390 82Q390 83 390 83L390 83Q390 83 390 83L390 83L399 94Q401 97 404 98L404 98Q405 98 405 99L405 99Q405 100 404 100L404 100Q403 100 401 100Q400 100 398 100Q397 100 395 100L395 100Q393 100 392 100Q390 100 388 100Q387 100 385 100L385 100Q385 100 385 99L385 99Q385 98 385 98L385 98Q386 98 388 97Q389 96 389 95L389 95Q389 95 389 95L389 95L384 89L380 95Q379 95 379 96L379 96Q379 96 380 96Q380 97 380 97Q381 97 382 97Q382 97 383 98Q383 98 384 98L384 98Q384 98 384 99L384 99Q384 100 384 100L384 100Q383 100 380 100Q377 100 375 100L375 100Q374 100 372 100Q371 100 369 100Q368 100 367 100L367 100Q366 100 366 99L366 99Q366 98 367 98L367 98Q369 97 370 97Q372 96 373 95L373 95L381 87Q381 86 381 86Q381 86 380 85L380 85L371 74Q370 73 369 72Q368 72 367 72L367 72Q366 72 366 70ZM414 90L414 74L409 74Q409 74 409 72L409 72Q409 71 409 71L409 71Q413 69 415 67L415 67Q416 66 418 65Q419 64 420 63Q421 62 421 62L421 62Q422 62 422 62Q423 63 423 63L423 63L423 70L430 70Q431 70 431 71L431 71Q431 73 430 74L430 74L423 74L423 91Q423 96 427 96L427 96Q428 96 429 96Q429 96 430 95Q430 95 431 95L431 95Q431 95 431 96Q431 96 431 97L431 97Q431 98 429 99Q426 100 423 100L423 100Q419 100 416 98Q414 96 414 90L414 90ZM470 69L470 69Q477 69 481 73Q486 78 486 84L486 84Q486 91 481 96Q476 101 469 101L469 101Q466 101 464 100Q462 99 460 99L460 99Q460 99 458 100Q457 101 456 101Q456 101 455 100Q454 99 454 99L454 99Q454 99 454 98Q454 97 455 95Q455 93 455 91L455 91L455 63Q455 60 454 58L454 58Q454 56 451 56L451 56L450 56Q450 56 450 55L450 55Q450 54 450 54L450 54Q452 54 454 53Q457 53 458 53Q460 52 461 52Q462 52 463 51L463 51L464 51L464 51Q464 51 464 52Q465 52 465 52L465 52Q464 55 464 59L464 59L464 70Q464 70 464 70Q464 70 464 70Q464 71 464 71Q464 71 464 71L464 71Q467 69 470 69ZM470 73L470 73Q467 73 465 74Q464 76 464 78L464 78L464 91Q464 94 465 95Q467 97 470 97L470 97Q473 97 474 94Q476 91 476 86L476 86Q476 73 470 73ZM505 72L505 72Q503 72 502 74Q500 76 500 78Q499 80 499 82L499 82Q499 97 507 97L507 97Q510 97 511 94Q512 91 512 87L512 87Q512 72 505 72ZM494 73Q499 69 506 69Q513 69 518 73Q522 78 522 85Q522 91 518 96Q513 100 506 100L506 100Q499 100 494 96Q489 91 489 85Q489 78 494 73ZM531 91L531 63Q531 59 531 58L531 58Q531 56 527 56L527 56L527 56Q526 56 526 55L526 55Q526 54 527 54L527 54Q529 54 531 53Q533 53 535 53Q537 52 538 52Q539 52 540 51L540 51L540 51L541 51Q541 51 541 52Q541 52 541 52L541 52Q541 55 541 59L541 59L541 90Q541 94 541 96L541 96Q541 96 543 97Q545 98 546 98L546 98Q546 98 546 99Q546 100 546 100L546 100Q545 100 541 100Q538 100 536 100L536 100Q534 100 531 100Q527 100 526 100L526 100Q526 100 526 99Q526 98 526 98L526 98Q527 98 529 97Q531 96 531 96L531 96Q531 94 531 91L531 91ZM566 72L566 72Q562 72 561 75Q559 78 559 83L559 83Q559 96 566 96L566 96Q568 96 569 95Q571 93 571 91L571 91L571 79Q571 78 571 77Q571 76 570 75Q570 74 569 73Q567 72 566 72ZM566 69L566 69Q569 69 571 69L571 69Q571 69 571 68L571 68L571 63Q571 60 571 58L571 58Q570 56 567 56L567 56L566 56Q566 56 566 55L566 55Q566 54 566 54L566 54Q569 54 571 53Q573 53 575 53Q576 52 577 52Q579 52 579 51L579 51L580 51L580 51Q580 51 581 52Q581 52 581 52L581 52Q580 55 580 59L580 59L580 90Q580 93 581 95L581 95Q581 95 581 96Q582 96 583 96Q583 96 584 96L584 96L585 96Q585 96 585 97L585 97Q585 99 585 99L585 99Q584 99 582 99Q580 99 578 99Q577 100 575 100Q574 100 573 100L573 100L572 100Q571 100 571 99L571 99L571 98Q571 97 571 97Q571 97 571 97L571 97Q568 100 564 100L564 100Q558 100 554 96Q549 92 549 85L549 85Q549 78 554 73Q559 69 566 69Z"/></svg>