<svg xmlns="http://www.w3.org/2000/svg" viewBox="1.7578125 51.203125 707.4140625 49.5"><path d="M43 87L43 87Q43 88 42 93Q41 97 40 97L40 97Q34 100 24 100L24 100Q15 100 8 94Q2 87 2 77L2 77Q2 67 8 60Q15 53 25 53L25 53Q33 53 41 55L41 55Q42 55 42 60Q42 64 42 65L42 65Q42 66 40 66L40 66Q40 66 39 66L39 66Q39 65 38 63Q38 62 36 60Q35 59 32 58Q29 57 25 57L25 57Q18 57 14 62Q11 68 11 76L11 76Q11 85 15 91Q19 97 27 97L27 97Q33 97 37 93L37 93Q38 92 39 90Q39 89 40 88Q40 87 40 87L40 87Q43 87 43 87ZM67 69L67 69Q71 69 73 71L73 71Q73 77 70 77L70 77Q69 77 67 76Q66 74 64 74L64 74Q62 74 61 77Q59 79 59 81L59 81L59 90Q59 94 60 96L60 96Q60 97 62 97Q63 98 64 98L64 98Q64 98 64 99Q64 100 64 100L64 100Q64 100 61 100Q57 100 56 100L56 100Q54 100 51 100Q48 100 47 100L47 100Q47 100 47 99Q47 98 47 98L47 98Q48 98 50 97Q51 97 52 96L52 96Q52 94 52 91L52 91L52 80Q52 76 51 75L51 75Q50 75 49 74Q48 74 48 74Q47 74 47 74L47 74Q47 72 47 71L47 71Q51 71 59 69L59 69Q59 69 59 69Q59 69 59 69L59 69Q60 69 60 70Q60 70 60 71Q60 71 60 71Q60 72 60 73Q60 74 60 74L60 74Q61 72 63 70Q65 69 67 69ZM82 61Q81 59 81 57Q81 56 82 54Q84 53 85 53Q87 53 88 54Q90 56 90 57Q90 59 88 61Q87 62 85 62Q84 62 82 61ZM90 77L90 90Q90 94 90 96L90 96Q90 97 92 97Q94 98 94 98L94 98Q95 98 95 99Q95 100 95 100L95 100Q94 100 91 100Q88 100 86 100L86 100Q84 100 81 100Q78 100 77 100L77 100Q77 100 77 99Q77 98 77 98L77 98Q78 98 80 97Q82 97 82 96L82 96Q82 94 82 91L82 91L82 80Q82 76 81 75L81 75Q81 75 80 74Q79 74 78 74Q77 74 77 74L77 74Q77 72 78 71L78 71Q80 71 83 71Q87 70 89 69L89 69Q89 69 89 69Q89 69 89 69L89 69Q90 69 90 70Q90 70 90 70L90 70Q90 75 90 77L90 77ZM121 69L121 69Q124 69 126 70Q128 72 129 74L129 74Q131 72 134 70Q137 69 140 69L140 69Q143 69 145 70Q146 71 147 73Q148 75 149 78Q149 80 149 83L149 83L149 90Q149 94 150 96L150 96Q150 97 152 97Q153 98 154 98L154 98Q154 98 154 99Q154 100 154 100L154 100Q154 100 151 100Q147 100 146 100L146 100Q144 100 141 100Q138 100 137 100L137 100Q137 100 137 99Q137 98 137 98L137 98Q138 98 140 97Q141 97 142 96L142 96Q142 94 142 91L142 91L142 84Q142 74 135 74L135 74Q133 74 132 75Q130 76 130 77L130 77Q130 78 130 78Q130 78 130 78L130 78Q130 80 130 83L130 83L130 90Q130 94 131 96L131 96Q131 97 132 97Q134 98 135 98L135 98Q135 98 135 99Q135 100 135 100L135 100Q134 100 131 100Q128 100 126 100L126 100Q125 100 122 100Q118 100 118 100L118 100Q118 100 118 99Q118 98 118 98L118 98Q119 98 120 97Q122 97 122 96L122 96Q123 94 123 91L123 91L123 84Q123 79 121 77Q119 74 116 74L116 74Q114 74 112 75Q111 76 111 78L111 78L111 90Q111 94 111 96L111 96Q111 97 113 97Q115 98 115 98L115 98Q116 98 116 99Q116 100 116 100L116 100Q115 100 112 100Q109 100 107 100L107 100Q105 100 102 100Q99 100 99 100L99 100Q98 100 98 99Q98 98 99 98L99 98Q99 98 101 97Q103 97 103 96L103 96Q103 94 103 91L103 91L103 80Q103 76 102 75L102 75Q102 75 101 74Q100 74 99 74Q98 74 98 74L98 74Q98 72 99 71L99 71Q102 71 110 69L110 69Q110 69 110 69Q110 69 110 69Q111 69 111 69L111 69Q111 69 111 70Q111 70 111 70L111 70Q111 72 111 73L111 73Q111 73 111 73L111 73Q111 73 111 73L111 73Q113 71 116 70Q118 69 121 69ZM169 69L169 69Q173 69 177 70L177 70Q178 73 178 78L178 78Q178 78 177 78L177 78Q175 78 175 78L175 78Q175 75 173 74Q172 72 169 72L169 72Q167 72 166 73Q165 74 165 76L165 76Q165 77 165 77Q165 78 166 79Q167 80 168 80Q168 80 170 81L170 81Q170 81 171 81L171 81Q171 82 172 82Q172 82 173 83Q173 83 174 83Q175 84 175 84Q175 84 176 85Q177 86 177 86Q178 86 178 87Q179 88 179 88Q179 89 179 90Q179 90 179 91L179 91Q179 96 176 98Q173 101 168 101L168 101Q163 101 159 99L159 99Q158 98 158 95Q158 92 158 91L158 91Q158 90 159 90L159 90Q160 90 160 91L160 91Q161 94 163 96Q165 98 168 98L168 98Q170 98 171 97Q172 96 172 94L172 94Q172 93 172 92Q172 92 171 91Q171 91 171 90Q170 90 169 89Q168 89 168 88Q168 88 166 88Q165 87 164 87L164 87Q161 85 159 83Q158 81 158 78L158 78Q158 73 161 71Q164 69 169 69ZM198 72L198 72Q195 72 193 75Q191 79 191 83L191 83Q191 89 194 93Q196 97 200 97L200 97Q203 97 205 94Q207 91 207 86L207 86Q207 83 206 80Q205 76 203 74Q201 72 198 72ZM199 69L199 69Q206 69 210 74Q215 78 215 85L215 85Q215 91 210 96Q206 100 199 100L199 100Q193 100 188 96Q183 91 183 85L183 85Q183 78 188 73Q192 69 199 69ZM242 69L242 69Q251 69 251 83L251 83L251 90Q251 94 251 96L251 96Q252 97 253 97Q255 98 256 98L256 98Q256 98 256 99Q256 100 256 100L256 100Q256 100 252 100Q249 100 247 100L247 100Q246 100 243 100Q240 100 239 100L239 100Q239 100 239 99Q239 98 239 98L239 98Q240 98 241 97Q243 97 243 96L243 96Q244 94 244 91L244 91L244 85Q244 79 242 76Q241 74 237 74L237 74Q235 74 233 75Q231 77 231 78L231 78L231 90Q231 94 232 96L232 96Q232 97 234 97Q236 98 236 98L236 98Q236 98 236 99Q236 100 236 100L236 100Q236 100 233 100Q230 100 228 100L228 100Q226 100 223 100Q220 100 219 100L219 100Q219 100 219 99Q219 98 219 98L219 98Q220 98 222 97Q224 97 224 96L224 96Q224 94 224 91L224 91L224 80Q224 76 223 75L223 75Q222 75 221 74Q220 74 220 74Q219 74 219 74L219 74Q219 72 219 71L219 71Q223 71 231 69L231 69Q231 69 231 69Q231 69 231 69Q231 69 231 69L231 69Q232 69 232 70Q232 70 232 70L232 70Q232 72 232 73L232 73Q232 73 232 73L232 73Q232 73 232 73L232 73Q234 71 236 70Q239 69 242 69ZM288 54Q293 54 296 54Q299 54 304 54Q309 54 311 53L311 53Q313 53 316 53L316 53L318 64Q317 64 316 64L316 64Q315 64 315 64L315 64Q314 60 312 58Q311 57 307 57L307 57Q301 57 301 58L301 58Q300 60 300 65L300 65L300 90Q300 94 301 96L301 96Q301 97 302 97Q304 98 305 98L305 98Q305 98 305 99L305 99Q305 100 305 100L305 100Q304 100 302 100Q301 100 299 100Q298 100 296 100L296 100Q294 100 291 100Q288 100 287 100L287 100Q287 100 287 99L287 99Q287 98 287 98L287 98Q288 98 289 97Q291 97 291 96L291 96Q292 94 292 91L292 91L292 65Q292 59 291 58L291 58Q291 57 285 57L285 57Q281 57 280 58Q278 60 277 64L277 64Q277 64 276 64L276 64Q275 64 274 63L274 63L276 53Q279 53 281 53L281 53Q284 54 288 54ZM335 72L335 72Q334 72 332 73Q331 74 330 76Q329 77 329 78Q329 79 329 80L329 80Q329 81 329 81L329 81L341 81Q341 81 341 80L341 80Q341 77 340 75Q338 72 335 72ZM336 69L336 69Q339 69 342 70Q344 72 346 74Q347 76 348 78Q349 80 349 82L349 82Q349 83 348 84Q348 84 346 84L346 84L329 84Q329 84 329 85L329 85Q329 87 330 89Q331 92 333 94Q335 95 338 95L338 95Q339 95 340 95Q341 95 342 95Q343 95 343 94Q344 94 345 94Q345 93 346 93Q346 93 347 93Q347 92 347 92L347 92Q347 92 347 93Q348 93 348 93L348 93Q348 94 347 95L347 95Q346 97 343 99Q340 100 336 100L336 100Q330 100 326 96Q321 91 321 85L321 85Q321 78 325 73Q329 69 336 69ZM352 70L352 70Q352 70 353 69L353 69Q360 70 361 70L361 70Q361 70 369 69L369 69Q369 69 369 70L369 70Q369 71 369 71L369 71Q368 71 367 72Q366 72 366 73L366 73Q366 73 367 74L367 74L371 80Q372 79 373 77Q374 76 375 74Q376 73 376 73L376 73Q376 72 375 72Q374 72 374 72Q373 72 372 72Q372 72 372 71L372 71Q371 71 371 70L371 70Q371 69 372 69L372 69Q379 70 380 70L380 70Q380 70 387 69L387 69Q387 70 387 70L387 70Q387 71 387 71L387 71Q382 72 381 74L381 74L373 82Q373 83 373 83L373 83Q373 83 374 84L374 84L382 95Q384 98 387 98L387 98Q388 98 388 99L388 99Q388 100 387 100L387 100Q386 100 385 100Q383 100 382 100Q381 100 379 100L379 100Q378 100 376 100Q375 100 373 100Q372 100 371 100L371 100Q370 100 370 99L370 99Q370 98 371 98L371 98Q372 98 373 97Q374 97 374 96L374 96Q374 96 374 96L374 96L369 89L364 95Q364 96 364 96L364 96Q364 97 364 97Q364 97 365 97Q365 98 366 98Q366 98 367 98Q368 98 368 98L368 98Q368 98 368 99L368 99Q368 100 368 100L368 100Q367 100 365 100Q364 100 363 100Q361 100 360 100L360 100Q359 100 358 100Q356 100 355 100Q353 100 352 100L352 100Q352 100 352 99L352 99Q352 98 352 98L352 98Q357 97 359 95L359 95L366 86Q366 86 366 86L366 86Q366 85 366 85L366 85L358 74Q357 73 356 72Q354 72 353 72L353 72Q352 72 352 70ZM396 91L396 74L392 74Q391 74 391 72L391 72Q391 72 391 71L391 71Q394 70 397 68L397 68Q397 67 399 66Q400 64 400 64Q401 63 401 63L401 63Q402 63 402 63Q403 63 403 63L403 63L403 70Q405 70 408 70Q411 70 412 70L412 70Q412 70 412 71L412 71Q412 72 412 74L412 74L403 74L403 91Q403 94 404 95Q405 97 408 97L408 97Q408 97 409 96Q410 96 410 96Q411 96 411 96Q412 95 412 95L412 95Q412 95 412 96Q413 97 413 97L413 97Q412 98 410 99Q407 100 405 100L405 100Q401 100 398 98Q396 96 396 91L396 91ZM443 69L443 69Q446 69 451 70L451 70Q451 73 451 78L451 78Q451 78 451 78L451 78Q449 78 449 78L449 78Q448 75 447 74Q445 72 443 72L443 72Q441 72 439 73Q438 74 438 76L438 76Q438 77 439 77Q439 78 440 79Q441 80 441 80Q442 80 443 81L443 81Q444 81 444 81L444 81Q444 82 445 82Q446 82 446 83Q447 83 447 83Q448 84 449 84Q449 84 450 85Q450 86 451 86Q451 86 452 87Q452 88 452 88Q453 89 453 90Q453 90 453 91L453 91Q453 96 450 98Q446 101 441 101L441 101Q437 101 432 99L432 99Q432 98 432 95Q431 92 431 91L431 91Q432 90 432 90L432 90Q434 90 434 91L434 91Q434 94 437 96Q439 98 441 98L441 98Q443 98 445 97Q446 96 446 94L446 94Q446 93 446 92Q446 92 445 91Q445 91 444 90Q444 90 443 89Q442 89 442 88Q441 88 440 88Q439 87 438 87L438 87Q435 85 433 83Q431 81 431 78L431 78Q431 73 435 71Q438 69 443 69ZM471 72L471 72Q469 72 468 73Q466 74 466 76Q465 77 465 78Q464 79 464 80L464 80Q464 81 465 81L465 81L476 81Q477 81 477 80L477 80Q477 77 475 75Q473 72 471 72ZM471 69L471 69Q475 69 477 70Q480 72 481 74Q483 76 483 78Q484 80 484 82L484 82Q484 83 484 84Q483 84 482 84L482 84L465 84Q464 84 464 85L464 85Q464 87 465 89Q466 92 468 94Q471 95 474 95L474 95Q475 95 476 95Q477 95 477 95Q478 95 479 94Q480 94 480 94Q481 93 481 93Q482 93 482 93Q483 92 483 92L483 92Q483 92 483 93Q483 93 483 93L483 93Q483 94 483 95L483 95Q482 97 479 99Q476 100 472 100L472 100Q466 100 461 96Q457 91 457 85L457 85Q457 78 461 73Q465 69 471 69ZM510 69L510 69Q513 69 515 70Q517 72 518 74L518 74Q520 72 523 70Q526 69 530 69L530 69Q532 69 534 70Q536 71 537 73Q538 75 538 78Q539 80 539 83L539 83L539 90Q539 94 539 96L539 96Q539 97 541 97Q543 98 543 98L543 98Q544 98 544 99Q544 100 544 100L544 100Q543 100 540 100Q537 100 535 100L535 100Q533 100 530 100Q527 100 527 100L527 100Q526 100 526 99Q526 98 527 98L527 98Q527 98 529 97Q531 97 531 96L531 96Q531 94 531 91L531 91L531 84Q531 74 525 74L525 74Q522 74 521 75Q519 76 519 77L519 77Q519 78 519 78Q519 78 519 78L519 78Q519 80 519 83L519 83L519 90Q519 94 520 96L520 96Q520 97 522 97Q523 98 524 98L524 98Q524 98 524 99Q524 100 524 100L524 100Q524 100 521 100Q517 100 516 100L516 100Q514 100 511 100Q508 100 507 100L507 100Q507 100 507 99Q507 98 507 98L507 98Q508 98 510 97Q511 97 512 96L512 96Q512 94 512 91L512 91L512 84Q512 79 510 77Q509 74 506 74L506 74Q504 74 502 75Q500 76 500 78L500 78L500 90Q500 94 501 96L501 96Q501 97 502 97Q504 98 505 98L505 98Q505 98 505 99Q505 100 505 100L505 100Q504 100 501 100Q498 100 496 100L496 100Q495 100 492 100Q488 100 488 100L488 100Q488 100 488 99Q488 98 488 98L488 98Q489 98 490 97Q492 97 492 96L492 96Q493 94 493 91L493 91L493 80Q493 76 492 75L492 75Q491 75 490 74Q489 74 488 74Q488 74 488 74L488 74Q488 72 488 71L488 71Q491 71 499 69L499 69Q499 69 500 69Q500 69 500 69Q500 69 500 69L500 69Q500 69 500 70Q501 70 501 70L501 70Q500 72 500 73L500 73Q500 73 500 73L500 73Q500 73 501 73L501 73Q502 71 505 70Q508 69 510 69ZM552 61Q551 59 551 57Q551 56 552 54Q553 53 555 53Q557 53 558 54Q559 56 559 57Q559 59 558 61Q557 62 555 62Q553 62 552 61ZM559 77L559 90Q559 94 560 96L560 96Q560 97 562 97Q564 98 564 98L564 98Q564 98 565 99Q565 100 564 100L564 100Q564 100 561 100Q557 100 556 100L556 100Q554 100 551 100Q548 100 547 100L547 100Q547 100 547 99Q547 98 547 98L547 98Q548 98 550 97Q551 97 552 96L552 96Q552 94 552 91L552 91L552 80Q552 76 551 75L551 75Q550 75 549 74Q548 74 548 74Q547 74 547 74L547 74Q547 72 547 71L547 71Q549 71 553 71Q557 70 559 69L559 69Q559 69 559 69Q559 69 559 69L559 69Q560 69 560 70Q560 70 560 70L560 70Q559 75 559 77L559 77ZM601 69L601 69Q605 69 608 71Q612 73 614 77Q615 80 615 84L615 84Q615 91 611 96Q606 100 599 100L599 100Q596 100 594 100Q592 99 591 99L591 99Q590 99 589 100Q588 100 588 100L588 100Q587 100 587 100Q586 100 586 99L586 99Q586 99 586 98Q586 97 586 95Q586 93 586 91L586 91L586 62Q586 59 586 57L586 57Q586 56 582 56L582 56L582 56Q581 56 581 55L581 55Q581 54 582 54L582 54Q584 54 586 53Q588 53 589 53Q590 52 591 52Q592 52 593 51Q593 51 593 51L593 51L594 51Q594 51 594 52Q594 52 594 52L594 52Q594 55 594 59L594 59L594 70L594 70Q594 70 594 71Q594 71 594 71Q594 71 594 71Q594 71 594 71L594 71Q595 70 597 70Q599 69 601 69ZM599 73L599 73Q597 73 595 74Q594 75 594 77L594 77L594 92Q594 95 596 96Q597 97 600 97L600 97Q604 97 605 94Q607 91 607 86L607 86Q607 80 605 76Q603 73 599 73ZM635 72L635 72Q631 72 629 75Q628 79 628 83L628 83Q628 89 630 93Q632 97 636 97L636 97Q639 97 641 94Q643 91 643 86L643 86Q643 83 642 80Q641 76 639 74Q637 72 635 72ZM635 69L635 69Q642 69 647 74Q651 78 651 85L651 85Q651 91 647 96Q642 100 635 100L635 100Q629 100 624 96Q620 91 620 85L620 85Q620 78 624 73Q629 69 635 69ZM667 59L667 90Q667 94 668 96L668 96Q668 97 670 97Q671 98 672 98L672 98Q672 98 672 99Q672 100 672 100L672 100Q671 100 669 100Q668 100 666 100Q665 100 664 100L664 100Q662 100 661 100Q660 100 658 100Q657 100 655 100L655 100Q655 100 655 99Q655 98 655 98L655 98Q656 98 658 97Q659 97 660 96L660 96Q660 94 660 91L660 91L660 62Q660 59 660 57L660 57Q659 56 656 56L656 56L655 56Q655 56 655 55L655 55Q655 54 655 54L655 54Q658 54 660 53Q662 53 663 53Q664 52 665 52Q666 52 667 51L667 51L667 51L667 51Q668 51 668 52Q668 52 668 52L668 52Q667 55 667 59L667 59ZM691 72L691 72Q687 72 685 75Q684 78 684 84L684 84Q684 90 686 93Q688 96 692 96L692 96Q694 96 696 95Q697 94 697 92L697 92L697 77Q697 77 697 76Q697 75 696 74Q696 73 694 73Q693 72 691 72ZM692 69L692 69Q695 69 697 70L697 70Q697 70 697 69L697 69L697 62Q697 59 697 57L697 57Q696 56 693 56L693 56L693 56Q692 56 692 55L692 55Q692 54 693 54L693 54Q695 54 697 53Q699 53 700 53Q701 52 702 52Q703 52 704 51Q704 51 704 51L704 51L704 51Q705 51 705 52Q705 52 705 52L705 52Q705 55 705 59L705 59L705 90Q705 93 705 95L705 95Q705 96 706 96Q706 96 707 96Q708 96 708 96Q709 96 709 96L709 96Q709 96 709 97L709 97Q709 99 709 99L709 99Q708 99 706 99Q705 99 703 99Q702 100 701 100Q699 100 698 100Q698 100 698 100L698 100Q697 100 697 99L697 99L697 98Q697 98 697 98Q697 98 697 98L697 98Q694 100 690 100L690 100Q684 100 680 96Q675 92 675 86L675 86Q675 79 680 74Q685 69 692 69Z"/></svg>