<svg xmlns="http://www.w3.org/2000/svg" viewBox="0.7734375 51.1328125 636.890625 49.5703125"><path d="M27 53L27 53Q35 53 42 55L42 55Q42 56 42 61Q41 65 41 66L41 66Q41 66 41 66Q40 67 39 67L39 67Q39 67 38 66L38 66Q38 65 38 64Q38 63 37 62Q36 61 35 60Q34 59 32 58Q30 57 27 57L27 57Q23 57 19 61Q15 64 13 70Q11 76 11 83L11 83Q11 89 14 93Q16 97 21 97L21 97Q24 97 27 96Q30 95 32 94L32 94Q33 93 34 92Q35 90 36 89Q36 88 36 88L36 88Q38 88 38 89L38 89Q38 90 37 93Q36 96 35 97L35 97Q31 100 21 100L21 100Q12 100 6 95Q1 90 1 82L1 82Q1 76 3 71Q6 65 9 61Q13 58 18 55Q23 53 27 53ZM54 68L54 68Q55 68 56 69Q57 70 57 72L57 72Q57 75 57 76L57 76Q57 79 56 79L56 79Q59 75 61 71Q64 68 68 68L68 68Q70 68 72 71L72 71Q72 74 71 76Q70 78 68 78L68 78Q67 78 66 77Q64 75 63 75L63 75Q61 75 58 81Q55 88 54 94L54 94L52 100Q50 100 48 100L48 100Q46 100 44 100L44 100L48 78Q49 77 49 76L49 76Q49 75 48 75L48 75Q47 75 45 76Q43 78 43 78L43 78Q43 78 42 78Q41 77 41 77L41 77Q42 75 46 72Q51 68 54 68ZM84 68L84 68Q86 68 87 69Q88 70 88 72L88 72Q88 73 88 75Q87 77 87 78L87 78L85 91Q85 91 85 93L85 93Q85 94 85 94L85 94Q86 94 88 93Q90 91 90 91L90 91Q91 91 91 91Q92 92 92 92L92 92Q91 94 87 97Q82 101 80 101L80 101Q78 101 77 100Q76 99 76 97L76 97Q76 96 76 94Q76 92 77 91L77 91L79 78Q79 77 79 76L79 76Q79 75 79 75L79 75Q78 75 76 76Q74 78 73 78L73 78Q73 78 73 78Q72 77 72 77L72 77Q73 75 77 72Q81 68 84 68ZM87 52L87 52Q88 52 89 53Q91 54 91 56L91 56Q91 58 89 60Q87 62 85 62L85 62Q83 62 82 61Q81 60 81 58L81 58Q81 55 83 53Q84 52 87 52ZM117 68L117 68Q121 68 122 71Q123 73 123 76L123 76Q123 77 123 78L123 78Q125 75 128 72Q131 68 134 68L134 68Q137 68 138 71Q140 73 140 76L140 76Q140 78 139 84L139 84L137 91Q137 91 137 93L137 93Q137 94 138 94L138 94Q139 94 140 93Q142 91 143 91L143 91Q143 91 144 91Q144 92 144 92L144 92Q143 94 139 97Q135 101 132 101L132 101Q130 101 129 100Q128 99 128 97L128 97Q128 95 129 91L129 91L131 83Q131 79 131 79L131 79Q131 76 129 76L129 76Q127 76 125 82Q122 88 121 93L121 93L119 100Q118 100 115 100L115 100Q113 100 111 100L111 100L114 83Q115 80 115 79L115 79Q115 76 113 76L113 76Q111 76 108 82Q106 88 105 93L105 93L103 100Q102 100 99 100L99 100Q97 100 95 100L95 100L99 78Q99 77 99 76L99 76Q99 75 99 75L99 75Q98 75 96 76Q94 78 94 78L94 78Q93 78 93 78Q92 77 92 77L92 77Q93 75 97 72Q102 68 104 68L104 68Q106 68 107 69Q108 70 108 72L108 72Q108 73 108 77L108 77L107 79Q109 75 112 72Q115 68 117 68ZM160 68L160 68Q164 68 167 70L167 70Q167 71 167 73L167 73Q167 75 167 76Q166 77 165 77L165 77Q163 77 163 76Q162 76 161 75Q161 74 160 73Q159 72 158 72L158 72Q157 72 156 73Q156 73 156 75L156 75Q156 76 157 78Q158 81 160 83Q162 85 163 87Q164 90 164 92L164 92Q164 96 161 98Q157 101 152 101L152 101Q148 101 145 98L145 98Q145 98 145 96L145 96Q145 94 146 93Q146 92 148 92L148 92Q149 92 150 93Q151 93 151 94Q152 95 152 96Q153 97 154 97L154 97Q156 97 156 96Q157 96 157 94L157 94Q157 93 155 91Q154 88 152 86Q151 84 149 82Q148 79 148 77L148 77Q148 73 151 71Q155 68 160 68ZM184 72L184 72Q182 72 181 75Q179 79 178 83Q177 88 177 92L177 92Q177 97 179 97L179 97Q181 97 183 93Q185 90 186 85Q187 81 187 77L187 77Q187 72 184 72ZM185 68L185 68Q191 68 193 72Q195 75 195 80L195 80Q195 85 193 90Q191 95 187 97Q183 100 179 100L179 100Q173 100 171 97Q168 94 168 89L168 89Q168 84 170 80Q173 75 177 72Q181 68 185 68ZM209 68L209 68Q210 68 211 69Q212 70 212 72L212 72Q212 73 212 77L212 77Q212 77 212 77Q212 77 212 78Q212 78 211 79Q211 79 211 79L211 79Q213 75 216 72Q219 68 221 68L221 68Q225 68 226 71Q228 73 228 76L228 76Q228 78 226 84L226 84L225 91Q225 91 225 93L225 93Q225 94 226 94L226 94Q227 94 228 93Q230 91 231 91L231 91Q231 91 231 91Q232 92 232 92L232 92Q231 94 227 97Q223 101 220 101L220 101Q218 101 217 100Q216 99 216 97L216 97Q216 95 217 91L217 91L218 83Q219 79 219 79L219 79Q219 77 219 77Q218 76 217 76L217 76Q215 76 212 82Q210 88 209 93L209 93L207 100Q206 100 203 100L203 100Q201 100 199 100L199 100L203 78Q203 77 203 76L203 76Q203 75 203 75L203 75Q202 75 200 76Q198 78 198 78L198 78Q198 78 197 78Q196 77 196 77L196 77Q197 75 201 72Q206 68 209 68ZM256 91L256 91L261 65Q262 60 262 59L262 59Q262 58 261 58Q260 57 256 57L256 57Q254 57 252 59Q250 60 248 64L248 64Q248 65 247 65L247 65Q247 65 246 64Q246 64 245 64L245 64L249 53Q252 53 253 53L253 53Q256 53 260 54Q265 54 267 54Q270 54 275 54Q279 53 282 53L282 53Q284 53 287 53L287 53L286 64Q285 64 285 64Q284 65 284 65L284 65Q283 65 283 64L283 64Q283 61 281 59Q280 57 277 57L277 57Q275 57 274 58Q272 58 272 58Q272 58 272 59L272 59Q271 61 270 65L270 65L265 90Q264 94 264 96L264 96Q264 97 266 97Q267 98 268 98L268 98Q268 98 268 98L268 98Q268 100 267 100L267 100Q266 100 265 100Q263 100 261 100Q260 100 258 100L258 100Q257 100 253 100Q250 100 249 100L249 100Q249 100 249 100L249 100Q249 99 250 99Q250 98 250 98L250 98Q251 98 252 97Q254 97 254 96L254 96Q255 95 256 91ZM304 68L304 68Q307 68 310 70Q313 72 313 75L313 75Q313 78 310 80Q308 82 305 84Q303 86 300 87Q297 87 296 87L296 87Q295 87 295 88L295 88Q295 92 297 94Q298 95 300 95L300 95Q302 95 304 94Q306 92 307 91L307 91Q307 91 308 92Q308 93 308 93L308 93Q307 95 304 98Q300 100 297 100L297 100Q292 100 289 97Q287 94 287 89L287 89Q287 84 289 79Q291 74 295 71Q299 68 304 68ZM303 72L303 72Q301 72 299 76Q296 80 296 84L296 84Q296 84 296 84L296 84Q300 84 302 81Q305 78 305 75L305 75Q305 72 303 72ZM328 68L328 68Q330 68 332 74L332 74L333 78L336 73Q338 68 342 68L342 68Q345 68 347 70L347 70Q348 71 348 72L348 72Q348 73 347 75Q346 76 344 76L344 76Q343 76 342 75Q341 74 340 74L340 74Q338 74 338 76L338 76L334 82L337 92Q338 94 339 94L339 94Q340 94 341 93Q343 91 344 90L344 90Q344 90 345 91Q345 92 345 92L345 92Q344 94 340 97Q336 100 333 100L333 100Q331 100 329 95L329 95L328 90L324 96Q321 100 317 100L317 100Q315 100 312 99L312 99Q312 98 312 97L312 97Q312 96 313 94Q314 93 316 93L316 93Q317 93 318 94Q319 94 320 94L320 94Q321 94 322 93L322 93L326 85L324 77Q323 75 322 75L322 75Q321 75 319 76Q318 78 317 78L317 78Q317 78 316 78Q316 77 316 77L316 77Q316 75 321 72Q325 68 328 68ZM354 70L355 63Q355 63 358 62Q360 62 362 62L362 62Q363 62 364 62L364 62L362 70L368 70Q369 70 369 71L369 71Q369 73 368 74L368 74L361 74L358 91Q358 91 358 93L358 93Q358 94 359 94L359 94Q360 94 361 93Q363 91 364 91L364 91Q364 91 364 91Q365 92 365 92L365 92Q364 94 360 97Q356 101 353 101L353 101Q351 101 350 100Q349 99 349 97L349 97Q349 96 349 94Q350 92 350 91L350 91L353 74L349 74Q349 74 349 73L349 73Q349 72 349 71Q350 70 350 70L350 70L354 70ZM402 68L402 68Q409 68 409 79L409 79Q409 83 407 88Q405 92 403 95Q400 97 396 99Q393 101 390 101L390 101Q387 101 384 98Q382 96 382 92L382 92Q382 91 382 89L382 89L388 62Q388 59 388 58L388 58Q388 56 385 56L385 56Q385 56 385 55L385 55Q385 55 385 54L385 54Q387 54 391 53Q395 52 397 51L397 51Q397 51 397 53L397 53Q397 54 396 59L396 59L393 76Q393 76 393 75L393 75Q394 74 395 73Q395 72 397 71Q398 70 399 69Q401 68 402 68ZM399 74L399 74Q396 74 394 79Q392 83 391 88L391 88Q390 91 390 94Q391 97 392 97L392 97Q394 97 396 94Q398 91 400 87Q401 83 401 79L401 79Q401 74 399 74ZM427 72L427 72Q425 72 423 75Q421 79 420 83Q419 88 419 92L419 92Q419 97 422 97L422 97Q424 97 426 93Q428 90 428 85Q429 81 429 77L429 77Q429 72 427 72ZM428 68L428 68Q433 68 435 72Q438 75 438 80L438 80Q438 85 436 90Q433 95 429 97Q426 100 421 100L421 100Q415 100 413 97Q411 94 411 89L411 89Q411 84 413 80Q415 75 419 72Q423 68 428 68ZM440 91L440 91L445 62Q446 58 446 58L446 58Q446 56 443 56L443 56Q442 56 442 55L442 55Q442 55 443 54L443 54Q445 54 449 53Q453 52 455 51L455 51Q455 51 455 53L455 53Q455 53 455 54Q455 56 455 57Q454 59 454 59L454 59L448 91Q448 92 448 93L448 93Q448 94 448 94L448 94Q450 94 451 93Q453 91 454 91L454 91Q454 91 454 91Q455 92 455 92L455 92Q454 94 450 97Q446 101 443 101L443 101Q441 101 440 100Q439 99 439 97L439 97Q439 96 439 94Q440 92 440 91ZM476 69L476 69Q477 69 477 69L477 69L478 62Q479 58 479 58L479 58Q479 56 475 56L475 56Q475 56 475 55L475 55Q475 55 476 54L476 54Q477 54 482 53Q486 52 487 51L487 51Q488 51 488 53L488 53Q488 53 488 54Q488 56 487 57Q487 58 487 59L487 59L481 91Q480 91 480 93L480 93Q480 94 481 94L481 94Q482 94 484 93Q486 91 486 91L486 91Q486 91 487 91Q488 92 488 92L488 92Q487 94 483 97Q478 101 475 101L475 101Q474 101 473 100Q472 99 472 97L472 97Q472 96 472 96L472 96Q472 95 472 95L472 95Q468 101 464 101L464 101Q460 101 458 98Q456 95 456 90L456 90Q456 87 457 83Q459 79 462 76Q464 73 468 71Q472 69 476 69ZM475 80L476 75Q476 74 475 73Q475 73 474 73L474 73Q472 73 470 75Q468 77 467 80Q466 83 465 86Q465 89 465 91L465 91Q465 95 467 95L467 95Q469 95 471 90Q473 86 475 80L475 80ZM514 68L514 68Q516 68 517 69Q518 70 518 72L518 72Q518 73 517 75Q517 77 517 78L517 78L514 91Q514 91 514 93L514 93Q514 94 515 94L515 94Q516 94 518 93Q519 91 520 91L520 91Q520 91 521 91Q521 92 521 92L521 92Q521 94 516 97Q512 101 509 101L509 101Q508 101 506 100Q505 99 505 97L505 97Q505 96 506 94Q506 92 506 91L506 91L509 78Q509 77 509 76L509 76Q509 75 508 75L508 75Q507 75 505 76Q504 78 503 78L503 78Q503 78 502 78Q502 77 502 77L502 77Q502 75 507 72Q511 68 514 68ZM516 52L516 52Q518 52 519 53Q520 54 520 56L520 56Q520 58 519 60Q517 62 515 62L515 62Q513 62 512 61Q511 60 511 58L511 58Q511 55 512 53Q514 52 516 52ZM528 70L530 63Q530 63 532 62Q534 62 536 62L536 62Q537 62 538 62L538 62L536 70L542 70Q543 70 543 71L543 71Q543 73 542 74L542 74L536 74L532 91Q532 91 532 93L532 93Q532 94 533 94L533 94Q534 94 536 93Q537 91 538 91L538 91Q538 91 539 91Q539 92 539 92L539 92Q539 94 534 97Q530 101 527 101L527 101Q525 101 524 100Q523 99 523 97L523 97Q523 96 524 94Q524 92 524 91L524 91L527 74L523 74Q523 74 523 73L523 73Q523 72 524 71Q524 70 524 70L524 70L528 70ZM565 68L565 68Q567 68 569 69Q571 69 571 70L571 70L567 91Q567 91 567 93L567 93Q567 94 568 94L568 94Q569 94 571 93Q572 91 573 91L573 91Q573 91 574 91Q574 92 574 92L574 92Q574 94 569 97Q565 101 562 101L562 101Q560 101 559 100Q558 99 558 97L558 97Q558 96 558 96L558 96Q558 95 558 95L558 95Q555 101 551 101L551 101Q547 101 545 98Q543 95 543 90L543 90Q543 87 544 83Q546 79 549 76Q552 73 556 70Q560 68 565 68ZM561 73L561 73Q559 73 557 75Q555 77 554 80Q553 83 552 86Q551 89 551 91L551 91Q551 95 553 95L553 95Q556 95 558 90Q560 85 561 80L561 80L563 73Q562 73 561 73ZM576 91L576 91L581 62Q582 58 582 58L582 58Q582 56 579 56L579 56Q578 56 578 55L578 55Q578 55 579 54L579 54Q581 54 585 53Q589 52 591 51L591 51Q591 51 591 53L591 53Q591 53 591 54Q591 56 590 57Q590 59 590 59L590 59L584 91Q584 92 584 93L584 93Q584 94 584 94L584 94Q585 94 587 93Q589 91 590 91L590 91Q590 91 590 91Q591 92 591 92L591 92Q590 94 586 97Q582 101 579 101L579 101Q577 101 576 100Q575 99 575 97L575 97Q575 96 575 94Q575 92 576 91ZM604 68L604 68Q605 68 606 69Q608 70 608 72L608 72Q608 73 607 75Q607 77 607 78L607 78L604 91Q604 91 604 93L604 93Q604 94 605 94L605 94Q606 94 608 93Q609 91 610 91L610 91Q610 91 611 91Q611 92 611 92L611 92Q610 94 606 97Q602 101 599 101L599 101Q597 101 596 100Q595 99 595 97L595 97Q595 96 596 94Q596 92 596 91L596 91L599 78Q599 77 599 76L599 76Q599 75 598 75L598 75Q597 75 595 76Q593 78 593 78L593 78Q593 78 592 78Q592 77 592 77L592 77Q592 75 597 72Q601 68 604 68ZM606 52L606 52Q608 52 609 53Q610 54 610 56L610 56Q610 58 608 60Q607 62 605 62L605 62Q603 62 602 61Q601 60 601 58L601 58Q601 55 602 53Q604 52 606 52ZM629 68L629 68Q634 68 637 72L637 72Q638 73 638 74L638 74Q638 76 637 77Q636 78 634 78L634 78Q633 78 632 77Q632 76 631 75Q631 74 630 73Q630 72 629 72L629 72Q627 72 625 75Q623 77 622 81Q621 85 621 88L621 88Q621 95 626 95L626 95Q628 95 630 94Q632 92 633 91L633 91Q633 91 633 92Q634 93 634 93L634 93Q633 95 629 98Q626 100 622 100L622 100Q617 100 615 97Q612 94 612 89L612 89Q612 84 615 79Q617 74 621 71Q625 68 629 68Z"/></svg>