<svg xmlns="http://www.w3.org/2000/svg" viewBox="3.09375 51.203125 608.6953125 64.76023706896555"><path d="M44 87L45 87Q45 88 44 93Q43 97 42 97L42 97Q37 100 25 100L25 100Q16 100 10 94Q3 87 3 77L3 77Q3 67 10 60Q16 53 26 53L26 53Q34 53 43 55L43 55Q43 64 43 65L43 65Q43 66 42 66L42 66Q41 66 41 66L41 66Q41 65 40 64Q40 63 39 61Q38 60 36 59Q35 58 32 57Q30 56 26 56L26 56Q19 56 15 62Q10 68 10 76L10 76Q10 82 12 86Q14 91 18 94Q22 97 28 97L28 97Q35 97 39 93L39 93Q40 92 41 91Q41 89 42 88Q42 87 42 87L42 87Q43 87 43 87Q44 87 44 87L44 87ZM67 69L67 69Q71 69 72 71L72 71Q72 74 71 75Q71 76 70 76L70 76Q68 76 67 75Q66 74 64 74L64 74Q62 74 61 76Q59 78 59 80L59 80L59 91Q59 95 59 97L59 97Q60 97 61 98Q63 98 64 98L64 98Q64 98 64 99Q64 100 64 100L64 100Q57 100 56 100L56 100Q56 100 49 100L49 100Q48 100 48 99Q48 98 49 98L49 98Q50 98 51 98Q53 97 53 97L53 97Q54 95 54 92L54 92L54 79Q54 76 53 75L53 75Q52 74 51 74Q50 73 49 73Q48 73 48 73L48 73Q48 71 49 71L49 71Q56 70 59 70L59 70Q59 70 59 70Q59 69 59 69L59 69Q59 69 59 70Q59 71 59 71L59 71L59 74Q60 73 62 71Q65 69 67 69ZM80 61Q79 60 79 58Q79 57 80 56Q81 55 82 55Q84 55 85 56Q86 57 86 58Q86 60 85 61Q84 62 82 62Q81 62 80 61ZM86 76L86 91Q86 95 86 97L86 97Q86 97 88 98Q90 98 90 98L90 98Q91 98 91 99Q91 100 91 100L91 100Q84 100 83 100Q83 100 75 100L75 100Q75 100 75 99Q75 98 75 98L75 98Q76 98 78 98Q80 97 80 97L80 97Q80 95 80 92L80 92L80 79Q80 76 79 75L79 75Q78 74 77 74Q76 73 76 73Q75 73 75 73L75 73Q75 71 76 71L76 71Q83 70 85 70L85 70L85 69Q86 69 86 69L86 69Q86 69 86 70Q86 71 86 71L86 71Q86 74 86 76L86 76ZM114 69L114 69Q117 69 119 71Q121 72 122 74L122 74Q127 69 132 69L132 69Q141 69 141 83L141 83L141 91Q141 95 142 97L142 97Q142 97 144 98Q145 98 146 98L146 98Q146 98 146 99Q146 100 146 100L146 100Q139 100 139 100L139 100Q138 100 131 100L131 100Q131 100 131 99Q131 98 131 98L131 98Q132 98 134 98Q135 97 135 97L135 97Q136 95 136 92L136 92L136 84Q136 73 129 73L129 73Q126 73 124 75Q122 77 122 78L122 78L122 78Q122 78 122 78L122 78Q123 80 123 83L123 83L123 91Q123 95 123 97L123 97Q123 97 125 98Q127 98 127 98L127 98Q128 98 128 99Q128 100 128 100L128 100Q121 100 120 100L120 100Q120 100 113 100L113 100Q112 100 112 99Q112 98 113 98L113 98Q113 98 115 98Q117 97 117 97L117 97Q117 95 117 92L117 92L117 85Q117 73 111 73L111 73Q108 73 106 75Q104 77 104 78L104 78L104 91Q104 95 105 97L105 97Q105 97 107 98Q108 98 109 98L109 98Q109 98 109 99Q109 100 109 100L109 100Q102 100 102 100L102 100Q101 100 94 100L94 100Q94 100 94 99Q94 98 94 98L94 98Q95 98 96 98Q98 97 98 97L98 97Q99 95 99 92L99 92L99 79Q99 76 98 75L98 75Q97 74 96 74Q95 73 94 73Q94 73 94 73L94 73Q94 71 94 71L94 71Q102 70 104 70L104 70Q104 70 104 70Q104 69 104 69L104 69Q104 69 104 70Q105 71 104 71L104 71Q104 73 104 74L104 74Q104 74 104 74L104 74Q104 74 105 74L105 74Q106 72 109 71Q112 69 114 69ZM161 69L161 69Q163 69 165 70Q168 70 169 70L169 70Q169 73 169 77L169 77Q169 78 169 78L169 78Q168 78 167 77L167 77Q167 75 165 73Q164 72 162 72L162 72Q157 72 157 76L157 76Q157 77 157 78Q157 79 158 79Q159 80 159 80Q160 81 161 81Q163 82 163 82L163 82Q163 83 165 83Q166 84 167 85Q167 85 168 86Q169 87 170 87Q170 88 171 89Q171 90 171 91L171 91Q171 95 168 98Q165 101 160 101L160 101Q159 101 158 101Q156 100 155 100Q153 100 152 99L152 99Q152 98 151 96Q151 94 151 92L151 92Q151 92 152 92L152 92Q153 92 153 92L153 92Q153 94 155 96Q158 98 160 98L160 98Q163 98 164 97Q165 96 165 93L165 93Q165 92 165 91Q165 90 164 89Q162 89 162 88Q161 88 159 87Q158 86 157 85L157 85Q151 82 151 78L151 78Q151 74 154 72Q157 69 161 69ZM190 72L190 72Q187 72 184 75Q182 79 182 84L182 84Q182 90 185 94Q188 98 192 98L192 98Q196 98 198 94Q200 91 200 86L200 86Q200 80 197 76Q194 72 190 72ZM191 69L191 69Q197 69 202 74Q206 78 206 85L206 85Q206 91 202 96Q198 100 191 100Q185 100 180 96Q176 91 176 85L176 85Q176 78 180 74Q185 69 191 69ZM232 69L232 69Q237 69 239 73Q241 76 241 84L241 84L241 91Q241 95 241 97L241 97Q241 97 243 98Q245 98 245 98L245 98Q246 98 246 99Q246 100 246 100L246 100Q239 100 238 100L238 100Q238 100 231 100L231 100Q230 100 230 99Q230 98 231 98L231 98Q232 98 233 98Q235 97 235 97L235 97Q235 95 235 92L235 92L235 85Q235 78 234 76Q232 73 228 73L228 73Q226 73 224 75Q222 77 222 78L222 78L222 91Q222 95 222 97L222 97Q222 97 224 98Q226 98 226 98L226 98Q227 98 227 99Q227 100 227 100L227 100Q220 100 219 100L219 100Q219 100 211 100L211 100Q211 100 211 99Q211 98 211 98L211 98Q212 98 214 98Q216 97 216 97L216 97Q216 95 216 92L216 92L216 79Q216 76 215 75L215 75Q215 74 214 74Q212 73 212 73Q211 73 211 73L211 73Q211 71 212 71L212 71Q219 70 221 70L221 70Q221 70 221 70Q222 69 222 69L222 69Q222 69 222 70Q222 71 222 71L222 71Q222 73 222 74L222 74Q222 74 222 74L222 74Q222 74 222 74L222 74Q224 72 226 71Q229 69 232 69ZM279 54Q284 54 287 54Q290 54 295 54Q300 54 302 54L302 54Q304 54 307 53L307 53L309 63Q308 63 307 63L307 63Q306 63 306 63L306 63Q305 59 304 58Q302 57 298 57L298 57Q291 57 291 58L291 58Q290 60 290 65L290 65L290 90Q290 94 291 97L291 97Q291 97 293 98Q294 98 295 98L295 98Q295 98 295 99L295 99Q295 100 295 100L295 100Q288 100 287 100L287 100Q287 100 279 100L279 100Q278 100 278 99L278 99Q278 98 279 98L279 98Q280 98 281 98Q283 97 283 97L283 97Q284 95 284 91L284 91L284 65Q284 59 283 58L283 58Q283 57 276 57L276 57Q272 57 270 58Q269 59 268 63L268 63Q268 63 267 63L267 63Q266 63 265 63L265 63L267 53Q270 54 272 54L272 54Q274 54 279 54ZM326 72L326 72Q323 72 321 75Q319 78 319 80L319 80Q319 81 319 81L319 81L333 81Q333 81 333 80L333 80Q333 78 331 75Q329 72 326 72ZM327 69L327 69Q330 69 333 71Q335 72 336 74Q338 76 338 78Q339 80 339 82L339 82Q339 83 338 83Q338 84 337 84L337 84L319 84Q319 84 319 84L319 84Q319 88 321 92Q324 96 329 96L329 96Q330 96 332 96Q333 95 334 95Q335 95 336 94Q336 94 337 93L337 93L337 93Q338 93 338 94L338 94Q338 95 337 95L337 95Q336 97 333 99Q330 100 327 100L327 100Q321 100 317 96Q313 92 313 85L313 85Q313 78 317 74Q321 69 327 69ZM342 72L342 70Q342 70 342 69L342 69Q349 70 349 70L349 70Q349 70 356 69L356 69Q356 70 356 70L356 70Q356 72 356 72L356 72Q353 72 353 73L353 73Q353 73 354 74L354 74L358 81Q359 80 360 78Q361 77 361 76Q362 75 362 74Q363 73 363 73L363 73Q363 72 362 72Q361 72 360 72Q359 72 359 72L359 72Q359 71 359 70L359 70Q359 70 359 69L359 69Q366 70 366 70Q367 70 373 69L373 69Q373 70 373 70L373 70Q373 72 373 72L373 72Q368 72 367 74L367 74L360 83Q360 83 360 83L360 83Q360 84 360 84L360 84L368 95Q369 98 373 98L373 98Q374 98 374 99L374 99Q374 100 373 100L373 100Q367 100 367 100L367 100Q367 100 359 100L359 100Q359 100 359 99L359 99Q359 98 359 98L359 98Q362 98 362 97L362 97Q362 97 362 96L362 96L356 88L352 95Q351 96 351 97L351 97Q351 98 355 98L355 98Q355 98 355 98L355 98Q355 98 355 99L355 99Q355 100 355 100L355 100Q348 100 348 100L348 100Q348 100 341 100L341 100Q341 100 341 99L341 99Q341 98 341 98L341 98Q346 97 348 95L348 95L355 85Q355 85 355 85Q355 85 355 85L355 85Q355 85 355 85L355 85L348 74Q347 73 345 72Q343 72 342 72L342 72ZM379 92L379 74L375 74Q375 74 375 72L375 72Q375 72 375 72L375 72Q377 71 379 68L379 68Q380 67 381 66Q381 65 382 64Q382 63 382 63L382 63Q385 63 385 63L385 63L385 70Q386 70 390 70Q394 70 394 70L394 70Q395 70 395 71L395 71Q395 72 394 74L394 74L385 74L385 91Q385 94 386 95Q387 97 390 97L390 97Q392 97 394 96L394 96Q394 96 395 96Q395 97 395 97L395 97Q394 98 392 99Q390 100 387 100L387 100Q384 100 381 98Q379 96 379 92L379 92ZM432 69L432 69Q436 69 438 71L438 71Q438 74 437 75Q436 76 435 76L435 76Q434 76 433 75Q432 74 430 74L430 74Q428 74 426 76Q424 78 424 80L424 80L424 91Q424 95 425 97L425 97Q425 97 427 98Q429 98 429 98L429 98Q430 98 430 99Q430 100 430 100L430 100Q423 100 422 100L422 100Q422 100 414 100L414 100Q414 100 414 99Q414 98 414 98L414 98Q415 98 417 98Q418 97 419 97L419 97Q419 95 419 92L419 92L419 79Q419 76 418 75L418 75Q417 74 416 74Q415 73 415 73Q414 73 414 73L414 73Q414 71 414 71L414 71Q422 70 424 70L424 70Q424 70 424 70Q424 69 424 69L424 69Q425 69 425 70Q425 71 425 71L425 71L424 74Q426 73 428 71Q430 69 432 69ZM454 72L454 72Q451 72 449 75Q447 78 447 80L447 80Q447 81 447 81L447 81L461 81Q461 81 461 80L461 80Q461 78 459 75Q457 72 454 72ZM455 69L455 69Q458 69 461 71Q463 72 464 74Q466 76 466 78Q467 80 467 82L467 82Q467 83 466 83Q466 84 465 84L465 84L447 84Q447 84 447 84L447 84Q447 88 449 92Q452 96 457 96L457 96Q458 96 460 96Q461 95 462 95Q463 95 464 94Q464 94 465 93L465 93L465 93Q466 93 466 94L466 94Q466 95 465 95L465 95Q464 97 461 99Q458 100 455 100L455 100Q449 100 445 96Q441 92 441 85L441 85Q441 78 445 74Q449 69 455 69ZM495 106L495 106Q495 103 492 102Q490 101 481 101L481 101Q481 101 481 101L481 101Q480 101 480 101Q479 102 479 102Q479 102 479 102Q478 102 478 103Q478 103 477 103Q477 103 477 104Q477 104 476 104Q476 105 476 105Q476 105 476 106Q476 106 476 107L476 107Q476 110 479 111Q482 113 486 113L486 113Q490 113 493 111Q495 109 495 106ZM477 79L477 79Q477 82 479 85Q481 87 484 87L484 87Q487 87 488 85Q490 83 490 80L490 80Q490 77 488 74Q486 72 484 72L484 72Q481 72 479 74Q477 76 477 79ZM484 70L484 70Q486 70 490 71Q493 71 495 71L495 71L500 71Q500 72 500 73L500 73Q500 74 500 74L500 74L495 74Q494 74 494 74L494 74L495 76Q496 78 496 79L496 79Q496 83 492 86Q489 89 484 89L484 89Q482 89 480 89L480 89Q479 90 478 91Q477 92 477 93Q477 94 478 95Q478 95 479 95Q480 96 481 96Q482 96 484 96L484 96Q484 96 484 96L484 96Q493 96 496 98Q500 99 500 103L500 103Q500 108 495 112Q491 116 484 116L484 116Q479 116 475 114Q471 112 471 108L471 108Q471 104 478 101L478 101Q476 100 474 99Q472 97 472 95L472 95Q472 94 474 92Q476 90 478 88L478 88Q475 88 474 85Q472 82 472 79L472 79Q472 75 475 72Q479 70 484 70ZM533 76L533 76L533 90Q533 93 533 95L533 95Q533 96 534 96Q534 96 535 97Q536 97 537 97L537 97L537 97Q537 97 537 97L537 97Q537 98 537 98Q537 99 537 99L537 99Q536 99 534 99Q533 99 532 99Q531 100 530 100Q529 100 528 100L528 100L528 101Q527 101 527 99L527 99L527 96L527 96Q522 100 518 100L518 100Q515 100 513 99Q512 98 511 96Q510 94 509 92Q509 90 509 87L509 87L509 79Q509 76 508 75L508 75Q507 74 506 74Q505 73 505 73Q504 73 504 73L504 73Q504 71 504 71L504 71Q512 70 514 70L514 70Q514 70 514 70Q514 69 514 69L514 69Q515 69 515 70Q515 71 515 71L515 71Q514 74 514 76L514 76L514 86Q514 91 516 94Q518 96 521 96L521 96Q523 96 525 95Q527 93 527 92L527 92L527 79Q527 76 526 75L526 75Q526 74 524 74Q523 73 523 73Q522 73 522 73L522 73Q522 71 523 71L523 71Q530 70 532 70L532 70Q532 70 532 70Q533 69 533 69L533 69Q533 69 533 70Q533 71 533 71L533 71Q533 74 533 76ZM544 92L544 92L544 61Q544 59 544 57L544 57Q544 56 540 56L540 56L540 56Q539 56 539 55L539 55Q539 54 540 54L540 54Q542 54 544 53Q545 53 547 53Q548 52 548 52Q549 52 549 51L549 51L550 51L550 51Q550 51 550 52Q551 52 551 52L551 52Q550 55 550 58L550 58L550 91Q550 95 550 97L550 97Q551 97 552 98Q554 98 555 98L555 98Q555 98 555 99Q555 100 555 100L555 100Q548 100 547 100L547 100Q547 100 540 100L540 100Q539 100 539 99Q539 98 540 98L540 98Q540 98 542 98Q544 97 544 97L544 97Q544 95 544 92ZM566 95Q567 96 569 96Q571 96 573 95Q574 94 574 93L574 93L574 86Q574 86 572 87Q569 87 568 88Q567 88 566 90Q565 91 565 93L565 93Q565 94 566 95ZM572 69L572 69Q576 69 578 71Q580 73 580 77L580 77L580 93Q580 95 580 96Q581 97 583 97L583 97Q584 97 585 96L585 96Q585 96 585 96L585 96Q585 97 585 98L585 98Q582 100 580 100L580 100Q578 100 577 99Q575 98 575 96L575 96Q575 96 574 97Q574 97 573 98Q572 98 571 99Q570 100 569 100Q568 100 566 100L566 100Q563 100 561 99Q559 97 559 94L559 94Q559 92 559 91Q560 89 561 88Q562 88 564 87Q566 86 567 85Q569 85 571 84Q573 83 574 83L574 83Q574 83 574 82L574 82L574 77Q574 74 573 73Q572 72 570 72L570 72Q567 72 566 73Q565 75 565 77L565 77Q565 80 562 80L562 80Q560 80 559 78L559 78Q559 75 563 72Q568 69 572 69ZM606 69L606 69Q610 69 612 71L612 71Q612 74 611 75Q610 76 609 76L609 76Q608 76 607 75Q606 74 604 74L604 74Q602 74 600 76Q599 78 599 80L599 80L599 91Q599 95 599 97L599 97Q599 97 601 98Q603 98 603 98L603 98Q604 98 604 99Q604 100 604 100L604 100Q597 100 596 100L596 100Q596 100 588 100L588 100Q588 100 588 99Q588 98 588 98L588 98Q589 98 591 98Q592 97 593 97L593 97Q593 95 593 92L593 92L593 79Q593 76 592 75L592 75Q591 74 590 74Q589 73 589 73Q588 73 588 73L588 73Q588 71 588 71L588 71Q596 70 598 70L598 70Q598 70 598 70Q599 69 599 69L599 69Q599 69 599 70Q599 71 599 71L599 71L598 74Q600 73 602 71Q604 69 606 69Z"/></svg>