<svg xmlns="http://www.w3.org/2000/svg" viewBox="1.7578125 51.484375 747 49.078125"><path d="M28 53L28 53Q34 53 43 56L43 56Q43 56 43 60Q42 65 42 65L42 65Q42 66 40 66L40 66Q40 66 39 66L39 66Q39 65 39 64Q39 62 38 60Q36 59 34 58Q32 57 28 57L28 57Q21 57 16 64Q10 72 10 82L10 82Q10 89 13 93Q16 97 22 97L22 97Q28 97 32 95L32 95Q33 94 35 92Q36 91 36 90Q37 89 37 89L37 89Q37 89 38 89Q39 90 39 90L39 90Q39 90 38 92Q37 94 37 95Q36 97 36 97L36 97Q34 99 30 100Q26 100 21 100L21 100Q12 100 7 95Q2 89 2 82L2 82Q2 75 6 68Q9 61 16 57Q22 53 28 53ZM56 69L56 69Q58 69 59 70Q59 71 59 73L59 73Q59 75 59 77L59 77Q58 81 58 81L58 81Q60 77 63 73Q66 69 69 69L69 69Q72 69 74 71L74 71Q74 77 70 77L70 77Q69 77 68 76Q67 75 66 75L66 75Q65 75 63 78Q61 81 59 85Q57 89 56 93L56 93L55 100Q53 100 51 100L51 100Q50 100 48 100L48 100L52 78Q53 77 53 76L53 76Q53 74 52 74L52 74Q51 74 50 76Q48 77 47 78L47 78Q47 78 47 77Q46 76 46 76L46 76Q47 74 50 72Q54 69 56 69ZM85 69L85 69Q86 69 87 70Q88 71 88 73L88 73Q88 74 87 77L87 77L84 92Q84 92 84 93L84 93Q84 95 85 95L85 95Q86 95 87 94Q88 93 89 93Q90 92 90 91L90 91Q90 91 91 92Q91 93 91 93L91 93Q90 95 87 98Q83 100 81 100L81 100Q79 100 78 99Q77 98 77 97L77 97Q77 95 78 92L78 92L81 78Q81 77 81 76L81 76Q81 74 80 74L80 74Q79 74 78 76Q77 77 76 78L76 78Q76 78 75 77Q75 76 75 76L75 76Q75 74 79 72Q82 69 85 69ZM87 53L87 53Q88 53 89 54Q90 55 90 57L90 57Q90 59 89 60Q88 62 86 62L86 62Q84 62 83 61Q82 60 82 58L82 58Q82 56 84 55Q85 53 87 53ZM118 69L118 69Q123 69 123 76L123 76Q123 77 122 80L122 80Q124 77 128 73Q132 69 134 69L134 69Q139 69 139 75L139 75Q139 78 138 83L138 83L136 92Q136 92 136 93L136 93Q136 95 137 95L137 95Q137 95 138 94Q140 93 140 93Q141 92 141 91L141 91Q142 91 142 92Q143 93 143 93L143 93Q142 95 138 98Q135 100 132 100L132 100Q131 100 130 99Q129 98 129 97L129 97Q129 95 130 92L130 92L132 82Q132 79 132 78L132 78Q132 77 132 76Q132 75 131 75L131 75Q128 75 125 81Q121 88 120 93L120 93L118 100Q117 100 115 100L115 100Q113 100 112 100L112 100L116 82Q116 79 116 78L116 78Q116 75 114 75L114 75Q113 75 111 78Q108 81 106 86Q104 90 104 93L104 93L102 100Q101 100 99 100L99 100Q98 100 96 100L96 100L100 78Q101 77 101 76L101 76Q101 74 100 74L100 74Q99 74 97 76Q96 77 95 78L95 78Q95 78 95 77Q94 76 94 76L94 76Q95 74 98 72Q102 69 104 69L104 69Q106 69 107 70Q107 71 107 73L107 73Q107 74 107 77L107 77L106 81Q108 77 112 73Q115 69 118 69ZM159 69L159 69Q163 69 165 71L165 71Q166 72 166 73L166 73Q166 75 165 76Q164 77 163 77L163 77Q162 77 160 74Q159 72 157 72L157 72Q155 72 155 73Q154 74 154 75L154 75Q154 77 155 79Q157 81 158 83Q160 85 161 87Q163 90 163 92L163 92Q163 96 159 98Q156 100 152 100L152 100Q147 100 145 98L145 98Q144 97 144 96L144 96Q144 95 145 93Q146 92 147 92L147 92Q148 92 149 93Q150 94 150 95Q151 96 152 96Q153 97 154 97L154 97Q155 97 156 96Q157 96 157 94L157 94Q157 92 154 89Q152 86 150 83Q148 80 148 78L148 78Q148 74 151 71Q154 69 159 69ZM183 72L183 72Q181 72 179 75Q177 78 176 82Q175 87 175 91L175 91Q175 94 176 95Q177 97 178 97L178 97Q180 97 182 94Q184 91 185 87Q186 82 186 79L186 79Q186 76 185 74Q185 72 183 72ZM184 69L184 69Q189 69 191 72Q193 75 193 80L193 80Q193 85 191 90Q189 95 185 97Q181 100 177 100L177 100Q172 100 170 97Q168 95 168 89L168 89Q168 85 170 80Q172 75 176 72Q180 69 184 69ZM206 69L206 69Q207 69 208 70Q209 71 209 73L209 73Q209 74 209 77L209 77Q209 77 209 78Q209 78 208 79Q208 80 208 80Q208 81 208 81L208 81Q210 78 214 73Q217 69 220 69L220 69Q225 69 225 75L225 75Q225 78 224 83L224 83L222 92Q222 92 222 93L222 93Q222 95 223 95L223 95Q223 95 224 94Q226 93 226 93Q227 92 227 91L227 91Q228 91 228 92Q229 93 229 93L229 93Q228 95 224 98Q221 100 218 100L218 100Q217 100 216 99Q215 98 215 97L215 97Q215 95 216 92L216 92L218 82Q218 79 218 78L218 78Q218 75 216 75L216 75Q215 75 213 78Q211 81 208 85Q206 90 206 94L206 94L204 100Q203 100 201 100L201 100Q199 100 198 100L198 100L202 78Q202 77 202 76L202 76Q202 74 202 74L202 74Q201 74 199 76Q198 77 197 78L197 78Q197 78 196 77Q196 76 196 76L196 76Q197 74 200 72Q204 69 206 69ZM250 90L250 90L255 65Q256 61 256 59L256 59Q256 58 256 58Q255 57 254 57Q253 57 250 57L250 57Q247 57 245 58Q243 60 241 64L241 64Q241 64 241 64L241 64Q239 64 239 63L239 63L242 53Q245 53 247 53L247 53Q250 53 254 54Q258 54 261 54Q264 54 268 54Q273 53 275 53L275 53Q277 53 280 53L280 53L279 64Q279 64 277 64L277 64Q277 64 277 64L277 64Q277 60 275 58Q274 57 271 57L271 57Q265 57 264 58L264 58Q263 60 262 65L262 65L258 90Q257 94 257 96L257 96Q257 97 258 98Q260 98 260 98L260 98Q261 98 261 98L261 98Q261 100 260 100L260 100Q252 100 252 100L252 100Q250 100 247 100Q244 100 244 100L244 100Q244 100 244 100L244 100Q244 98 244 98L244 98Q245 98 246 98Q248 97 248 97L248 97Q249 95 250 90ZM299 69L299 69Q302 69 304 71Q306 72 306 75L306 75Q306 78 303 81Q299 84 296 86Q292 87 290 87L290 87Q289 87 289 89L289 89Q289 96 294 96L294 96Q295 96 297 95Q299 94 299 93Q300 92 301 92L301 92Q301 92 301 92Q302 93 302 93L302 93Q301 95 298 98Q294 100 291 100L291 100Q287 100 284 98Q282 95 282 89L282 89Q282 85 285 80Q287 75 291 72Q295 69 299 69ZM298 72L298 72Q295 72 293 77Q290 81 290 84L290 84Q290 84 290 84L290 84Q293 84 296 81Q300 78 300 75L300 75Q300 74 299 73Q299 72 298 72ZM320 69L320 69Q323 69 324 75L324 75L325 79L329 73Q332 69 335 69L335 69Q338 69 340 70L340 70Q340 71 340 72L340 72Q340 73 340 74Q339 75 337 75L337 75Q336 75 335 75Q334 74 333 74L333 74Q332 74 331 75L331 75L327 83L330 93Q330 94 330 94Q331 95 331 95L331 95Q332 95 334 94Q335 93 336 92L336 92Q336 92 337 92Q337 93 337 93L337 93Q337 95 333 98Q330 100 327 100L327 100Q325 100 323 95L323 95L322 89L317 96Q315 100 311 100L311 100Q309 100 307 99L307 99Q306 98 306 97L306 97Q306 96 307 95Q308 94 309 94L309 94Q310 94 311 95Q312 96 313 96L313 96Q314 96 315 94L315 94L320 85L318 76Q317 74 316 74L316 74Q315 74 313 75Q312 77 311 78L311 78Q311 78 311 77Q310 76 310 76L310 76Q311 74 314 72Q317 69 320 69ZM348 70L350 62Q350 62 355 62L355 62Q356 62 356 62L356 62L355 70Q355 70 361 70L361 70Q362 70 362 71L362 71Q362 73 361 74L361 74L354 74L351 92Q350 92 350 93L350 93Q350 95 351 95L351 95Q352 95 353 94Q354 93 355 93Q356 92 356 91L356 91Q356 91 357 92Q357 93 357 93L357 93Q356 95 353 98Q349 100 347 100L347 100Q345 100 344 99Q343 98 343 97L343 97Q343 95 344 92L344 92L348 74L343 74Q343 74 343 73L343 73Q343 72 343 71Q344 70 344 70L344 70L348 70ZM386 69L386 69Q391 69 393 71L393 71Q393 72 393 73L393 73Q393 75 393 76Q392 77 391 77L391 77Q389 77 388 74Q386 72 384 72L384 72Q383 72 382 73Q381 74 381 75L381 75Q381 77 383 79Q384 81 386 83Q387 85 389 87Q390 90 390 92L390 92Q390 96 387 98Q384 100 379 100L379 100Q375 100 372 98L372 98Q372 97 372 96L372 96Q372 95 373 93Q373 92 375 92L375 92Q376 92 376 93Q377 94 378 95Q378 96 379 96Q380 97 381 97L381 97Q383 97 383 96Q384 96 384 94L384 94Q384 92 382 89Q380 86 378 83Q375 80 375 78L375 78Q375 74 379 71Q382 69 386 69ZM411 69L411 69Q414 69 416 71Q419 72 419 75L419 75Q419 78 415 81Q412 84 408 86Q404 87 402 87L402 87Q402 87 402 89L402 89Q402 96 406 96L406 96Q408 96 410 95Q411 94 412 93Q413 92 413 92L413 92Q413 92 414 92Q414 93 414 93L414 93Q413 95 410 98Q407 100 404 100L404 100Q399 100 397 98Q395 95 395 89L395 89Q395 85 397 80Q399 75 403 72Q407 69 411 69ZM410 72L410 72Q408 72 405 77Q402 81 402 84L402 84Q402 84 403 84L403 84Q406 84 409 81Q412 78 412 75L412 75Q412 74 412 73Q411 72 410 72ZM444 69L444 69Q449 69 449 76L449 76Q449 77 448 80L448 80Q450 77 454 73Q458 69 460 69L460 69Q465 69 465 75L465 75Q465 78 464 83L464 83L462 92Q462 92 462 93L462 93Q462 95 463 95L463 95Q463 95 465 94Q466 93 467 93Q467 92 468 91L468 91Q468 91 468 92Q469 93 469 93L469 93Q468 95 464 98Q461 100 458 100L458 100Q457 100 456 99Q455 98 455 97L455 97Q455 95 456 92L456 92L458 82Q458 79 458 78L458 78Q458 77 458 76Q458 75 457 75L457 75Q455 75 451 81Q447 88 446 93L446 93L445 100Q443 100 441 100L441 100Q440 100 438 100L438 100L442 82Q442 79 442 78L442 78Q442 75 441 75L441 75Q439 75 437 78Q435 81 433 86Q431 90 430 93L430 93L429 100Q427 100 425 100L425 100Q424 100 422 100L422 100L426 78Q427 77 427 76L427 76Q427 74 426 74L426 74Q425 74 424 76Q422 77 422 78L422 78Q421 78 421 77Q420 76 420 76L420 76Q421 74 425 72Q428 69 431 69L431 69Q432 69 433 70Q434 71 434 73L434 73Q434 74 433 77L433 77L432 81Q434 77 438 73Q441 69 444 69ZM482 69L482 69Q483 69 484 70Q485 71 485 73L485 73Q485 74 484 77L484 77L481 92Q481 92 481 93L481 93Q481 95 482 95L482 95Q483 95 484 94Q485 93 486 93Q486 92 487 91L487 91Q487 91 487 92Q488 93 488 93L488 93Q487 95 483 98Q480 100 477 100L477 100Q476 100 475 99Q474 98 474 97L474 97Q474 95 475 92L475 92L478 78Q478 77 478 76L478 76Q478 74 477 74L477 74Q476 74 475 76Q473 77 473 78L473 78Q473 78 472 77Q472 76 472 76L472 76Q472 74 476 72Q479 69 482 69ZM484 53L484 53Q485 53 486 54Q487 55 487 57L487 57Q487 59 486 60Q484 62 482 62L482 62Q481 62 480 61Q479 60 479 58L479 58Q479 56 481 55Q482 53 484 53ZM521 69L521 69Q524 69 526 71Q528 74 528 79L528 79Q528 88 522 94Q516 101 509 101L509 101Q506 101 504 98Q502 96 502 93L502 93Q502 91 502 89L502 89L508 61Q508 58 508 57L508 57Q508 56 504 56L504 56Q504 56 504 55L504 55Q504 54 505 54L505 54Q507 54 510 53Q513 52 515 51L515 51Q516 52 516 53L516 53Q516 54 515 59L515 59L511 77Q513 73 516 71Q519 69 521 69ZM518 74L518 74Q516 74 513 79Q510 84 509 89L509 89Q508 92 509 95Q509 97 512 97L512 97Q515 97 518 91Q521 86 521 80L521 80Q521 74 518 74ZM545 72L545 72Q543 72 541 75Q539 78 538 82Q537 87 537 91L537 91Q537 94 538 95Q539 97 541 97L541 97Q543 97 545 94Q547 91 548 87Q549 82 549 79L549 79Q549 76 548 74Q547 72 545 72ZM546 69L546 69Q551 69 553 72Q556 75 556 80L556 80Q556 85 553 90Q551 95 547 97Q544 100 540 100L540 100Q535 100 532 97Q530 95 530 89L530 89Q530 85 532 80Q535 75 538 72Q542 69 546 69ZM559 92L559 92L565 60Q566 58 566 57L566 57Q566 56 562 56L562 56Q562 56 562 55L562 55Q562 54 562 54L562 54Q564 54 568 53Q571 52 573 51L573 51Q573 52 573 53L573 53Q573 53 572 59L572 59L566 92Q565 93 565 93L565 93Q565 95 566 95L566 95Q567 95 568 94Q569 93 570 93Q571 92 571 91L571 91Q571 91 572 92Q572 93 572 93L572 93Q571 95 568 98Q564 100 562 100L562 100Q560 100 559 99Q559 98 559 97L559 97Q559 95 559 92ZM595 69L595 69Q596 69 596 69Q596 69 596 69L596 69L597 60Q598 58 598 57L598 57Q598 56 594 56L594 56Q594 56 594 55L594 55Q594 54 594 54L594 54Q596 54 600 53Q603 52 605 51L605 51Q605 52 605 53L605 53Q605 53 605 54Q605 55 604 57Q604 58 604 59L604 59L598 92Q597 92 597 93L597 93Q597 95 598 95L598 95Q599 95 600 94Q601 93 602 93Q603 92 603 91L603 91Q603 91 604 92Q604 93 604 93L604 93Q603 95 600 98Q596 100 594 100L594 100Q592 100 591 99Q591 98 591 97L591 97Q591 96 591 94L591 94Q591 94 591 93L591 93Q590 94 590 95Q589 96 588 97Q587 99 585 100Q584 100 582 100L582 100Q579 100 577 98Q575 95 575 91L575 91Q575 86 578 81Q580 76 585 72Q590 69 595 69ZM594 80L594 75Q595 74 594 74Q594 73 593 73L593 73Q590 73 587 76Q585 79 583 83Q582 87 582 90L582 90Q582 96 585 96L585 96Q587 96 590 91Q592 86 594 80L594 80ZM629 69L629 69Q630 69 631 70Q632 71 632 73L632 73Q632 74 632 77L632 77L629 92Q629 92 629 93L629 93Q629 95 629 95L629 95Q630 95 631 94Q632 93 633 93Q634 92 634 91L634 91Q634 91 635 92Q635 93 635 93L635 93Q635 95 631 98Q627 100 625 100L625 100Q623 100 623 99Q622 98 622 97L622 97Q622 95 622 92L622 92L625 78Q625 77 625 76L625 76Q625 74 625 74L625 74Q624 74 622 76Q621 77 620 78L620 78Q620 78 619 77Q619 76 619 76L619 76Q620 74 623 72Q627 69 629 69ZM631 53L631 53Q633 53 634 54Q635 55 635 57L635 57Q635 59 633 60Q632 62 630 62L630 62Q629 62 628 61Q627 60 627 58L627 58Q627 56 628 55Q629 53 631 53ZM645 70L646 62Q646 62 651 62L651 62Q652 62 653 62L653 62L651 70Q651 70 657 70L657 70Q658 70 658 71L658 71Q658 73 657 74L657 74L650 74L647 92Q647 92 647 93L647 93Q647 95 647 95L647 95Q648 95 649 94Q650 93 651 93Q652 92 652 91L652 91Q652 91 653 92Q653 93 653 93L653 93Q653 95 649 98Q645 100 643 100L643 100Q641 100 641 99Q640 98 640 97L640 97Q640 95 640 92L640 92L644 74L639 74Q639 74 639 73L639 73Q639 72 640 71Q640 70 640 70L640 70L645 70ZM679 69L679 69Q682 69 684 70L684 70L680 92Q680 92 680 93L680 93Q680 95 681 95L681 95Q681 95 683 94Q684 93 685 93Q685 92 686 91L686 91Q686 91 686 92Q687 93 687 93L687 93Q686 95 682 98Q679 100 676 100L676 100Q675 100 674 99Q673 98 673 97L673 97Q673 96 673 94L673 94Q674 93 674 93L674 93Q673 94 672 95Q671 96 670 98Q669 99 668 100Q666 100 665 100L665 100Q661 100 659 98Q657 95 657 91L657 91Q657 86 660 81Q663 76 668 72Q673 69 679 69ZM675 73L675 73Q671 73 668 79Q664 85 664 90L664 90Q664 96 667 96L667 96Q670 96 672 91Q675 86 676 80L676 80L677 73Q677 73 675 73ZM690 92L690 92L696 60Q697 58 697 57L697 57Q697 56 693 56L693 56Q693 56 693 55L693 55Q693 54 693 54L693 54Q696 54 699 53Q702 52 704 51L704 51Q704 52 704 53L704 53Q704 53 703 59L703 59L697 92Q697 93 697 93L697 93Q697 95 697 95L697 95Q698 95 699 94Q700 93 701 93Q702 92 702 91L702 91Q702 91 703 92Q703 93 703 93L703 93Q702 95 699 98Q695 100 693 100L693 100Q691 100 691 99Q690 98 690 97L690 97Q690 95 690 92ZM717 69L717 69Q718 69 719 70Q720 71 720 73L720 73Q720 74 719 77L719 77L716 92Q716 92 716 93L716 93Q716 95 717 95L717 95Q718 95 719 94Q720 93 721 93Q721 92 722 91L722 91Q722 91 722 92Q723 93 723 93L723 93Q722 95 718 98Q715 100 712 100L712 100Q711 100 710 99Q709 98 709 97L709 97Q709 95 710 92L710 92L713 78Q713 77 713 76L713 76Q713 74 712 74L712 74Q711 74 710 76Q708 77 708 78L708 78Q707 78 707 77Q707 76 707 76L707 76Q707 74 711 72Q714 69 717 69ZM719 53L719 53Q720 53 721 54Q722 55 722 57L722 57Q722 59 721 60Q719 62 717 62L717 62Q716 62 715 61Q714 60 714 58L714 58Q714 56 716 55Q717 53 719 53ZM741 69L741 69Q746 69 748 72L748 72Q749 73 749 74L749 74Q749 75 748 76Q747 77 746 77L746 77Q745 77 744 76Q744 76 743 75Q743 74 742 73Q742 72 741 72L741 72Q739 72 737 75Q735 77 734 81Q732 84 732 88L732 88Q732 96 737 96L737 96Q738 96 740 95Q742 94 742 93Q743 92 744 92L744 92Q744 92 744 92Q745 93 745 93L745 93Q744 95 740 98Q737 100 734 100L734 100Q730 100 727 97Q725 95 725 89L725 89Q725 85 727 80Q730 75 734 72Q738 69 741 69Z"/></svg>