<svg xmlns="http://www.w3.org/2000/svg" viewBox="0.244140625 -6.5625 49.970703125 6.630859375"><path d="M3.95-6.51L3.95-6.51Q4.78-6.51 6.00-6.15L6.00-6.15Q6.00-6.09 5.93-5.50Q5.86-4.90 5.84-4.82L5.84-4.82Q5.81-4.68 5.60-4.68L5.60-4.68Q5.51-4.68 5.47-4.71L5.47-4.71Q5.46-4.88 5.41-5.06Q5.36-5.24 5.21-5.49Q5.07-5.73 4.73-5.88Q4.38-6.04 3.89-6.04L3.89-6.04Q2.91-6.04 2.15-4.97Q1.40-3.91 1.40-2.47L1.40-2.47Q1.40-1.56 1.83-0.99Q2.27-0.41 3.10-0.41L3.10-0.41Q3.91-0.41 4.42-0.74L4.42-0.74Q4.63-0.88 4.79-1.08Q4.96-1.29 5.04-1.43Q5.12-1.56 5.13-1.56L5.13-1.56Q5.17-1.56 5.26-1.50Q5.35-1.45 5.36-1.39L5.36-1.39Q5.35-1.37 5.26-1.12Q5.17-0.87 5.08-0.66Q4.99-0.45 4.93-0.39L4.93-0.39Q4.72-0.19 4.14-0.06Q3.56 0.06 2.92 0.06L2.92 0.06Q1.70 0.06 0.97-0.71Q0.24-1.47 0.24-2.57L0.24-2.57Q0.24-3.54 0.77-4.45Q1.29-5.37 2.15-5.94Q3.02-6.51 3.95-6.51ZM7.83-4.32L7.83-4.32Q8.02-4.32 8.13-4.17Q8.25-4.03 8.25-3.79L8.25-3.79Q8.25-3.54 8.20-3.26L8.20-3.26Q8.09-2.66 8.08-2.64L8.08-2.64Q8.35-3.26 8.79-3.79Q9.23-4.32 9.63-4.32L9.63-4.32Q9.98-4.32 10.22-3.96L10.22-3.96Q10.22-3.15 9.75-3.15L9.75-3.15Q9.63-3.15 9.48-3.33Q9.34-3.50 9.20-3.50L9.20-3.50Q9.03-3.50 8.73-3.10Q8.43-2.70 8.14-2.08Q7.86-1.47 7.75-0.95L7.75-0.95L7.58 0Q7.36 0.04 7.14 0.04L7.14 0.04Q6.90 0.04 6.68 0L6.68 0L7.27-3.03Q7.29-3.24 7.29-3.34L7.29-3.34Q7.29-3.57 7.20-3.57L7.20-3.57Q7.08-3.57 6.88-3.39Q6.67-3.20 6.57-3.09L6.57-3.09Q6.55-3.09 6.48-3.18Q6.42-3.28 6.42-3.32L6.42-3.32Q6.52-3.54 7.01-3.93Q7.50-4.32 7.83-4.32ZM11.79-4.32L11.79-4.32Q11.96-4.32 12.08-4.17Q12.21-4.03 12.21-3.79L12.21-3.79Q12.21-3.54 12.13-3.16L12.13-3.16L11.73-1.14Q11.71-1.05 11.71-0.91L11.71-0.91Q11.71-0.66 11.81-0.66L11.81-0.66Q11.90-0.66 12.07-0.80Q12.24-0.93 12.34-1.04Q12.44-1.14 12.49-1.19L12.49-1.19Q12.51-1.19 12.58-1.10Q12.65-1.01 12.65-0.97L12.65-0.97Q12.53-0.73 12.03-0.33Q11.53 0.07 11.18 0.07L11.18 0.07Q11.00 0.07 10.87-0.07Q10.75-0.21 10.75-0.47L10.75-0.47Q10.75-0.68 10.83-1.08L10.83-1.08L11.21-3.03Q11.25-3.23 11.25-3.34L11.25-3.34Q11.25-3.57 11.15-3.57L11.15-3.57Q11.04-3.57 10.83-3.39Q10.63-3.20 10.53-3.09L10.53-3.09Q10.51-3.09 10.44-3.18Q10.37-3.28 10.37-3.32L10.37-3.32Q10.48-3.54 10.96-3.93Q11.45-4.32 11.79-4.32ZM12.08-6.50L12.08-6.50Q12.28-6.50 12.41-6.36Q12.54-6.22 12.54-6.02L12.54-6.02Q12.54-5.73 12.35-5.52Q12.16-5.30 11.89-5.30L11.89-5.30Q11.70-5.30 11.57-5.45Q11.45-5.61 11.45-5.82L11.45-5.82Q11.45-6.09 11.63-6.30Q11.82-6.50 12.08-6.50ZM16.34-4.32L16.34-4.32Q17.06-4.32 17.06-3.32L17.06-3.32Q17.06-3.21 16.97-2.72L16.97-2.72Q17.27-3.25 17.77-3.78Q18.27-4.32 18.60-4.32L18.60-4.32Q19.31-4.32 19.31-3.46L19.31-3.46Q19.31-3.11 19.15-2.40L19.15-2.40L18.90-1.14Q18.88-1.05 18.88-0.91L18.88-0.91Q18.88-0.66 18.97-0.66L18.97-0.66Q19.06-0.66 19.23-0.80Q19.39-0.93 19.50-1.04Q19.60-1.14 19.65-1.19L19.65-1.19Q19.67-1.19 19.74-1.10Q19.80-1.01 19.80-0.97L19.80-0.97Q19.70-0.73 19.19-0.33Q18.69 0.07 18.34 0.07L18.34 0.07Q18.15 0.07 18.04-0.07Q17.92-0.21 17.92-0.47L17.92-0.47Q17.92-0.66 18.00-1.08L18.00-1.08L18.28-2.47Q18.37-2.87 18.37-3.02L18.37-3.02Q18.37-3.22 18.32-3.33Q18.27-3.43 18.13-3.43L18.13-3.43Q17.84-3.43 17.32-2.58Q16.80-1.73 16.65-0.98L16.65-0.98L16.46 0Q16.20 0.04 16.01 0.04L16.01 0.04Q15.76 0.04 15.56 0L15.56 0L16.06-2.57Q16.13-2.90 16.13-3.04L16.13-3.04Q16.13-3.43 15.89-3.43L15.89-3.43Q15.70-3.43 15.39-3.01Q15.07-2.59 14.79-2.00Q14.51-1.41 14.42-0.94L14.42-0.94L14.23 0Q14.00 0.05 13.79 0.05L13.79 0.05Q13.58 0.05 13.34 0L13.34 0L13.93-3.03Q13.96-3.24 13.96-3.34L13.96-3.34Q13.96-3.57 13.87-3.57L13.87-3.57Q13.75-3.57 13.54-3.39Q13.33-3.20 13.24-3.09L13.24-3.09Q13.21-3.09 13.15-3.18Q13.09-3.28 13.09-3.32L13.09-3.32Q13.19-3.54 13.68-3.93Q14.16-4.32 14.49-4.32L14.49-4.32Q14.68-4.32 14.80-4.17Q14.92-4.03 14.92-3.79L14.92-3.79Q14.92-3.60 14.85-3.21L14.85-3.21L14.74-2.64Q15.04-3.19 15.52-3.75Q16.01-4.32 16.34-4.32ZM22.05-4.34L22.05-4.34Q22.64-4.34 22.97-4.00L22.97-4.00Q23.05-3.89 23.05-3.72L23.05-3.72Q23.05-3.50 22.94-3.35Q22.84-3.21 22.68-3.21L22.68-3.21Q22.48-3.21 22.26-3.54Q22.03-3.88 21.76-3.88L21.76-3.88Q21.56-3.88 21.46-3.76Q21.37-3.64 21.37-3.44L21.37-3.44Q21.37-3.22 21.55-2.92Q21.74-2.63 21.97-2.37Q22.20-2.11 22.39-1.77Q22.58-1.44 22.58-1.15L22.58-1.15Q22.58-0.62 22.14-0.27Q21.70 0.07 21.05 0.07L21.05 0.07Q20.47 0.07 20.13-0.27L20.13-0.27Q20.06-0.37 20.06-0.53L20.06-0.53Q20.06-0.75 20.16-0.90Q20.26-1.05 20.42-1.05L20.42-1.05Q20.56-1.05 20.67-0.95Q20.78-0.84 20.85-0.72Q20.92-0.60 21.05-0.49Q21.18-0.39 21.35-0.39L21.35-0.39Q21.54-0.39 21.65-0.51Q21.76-0.63 21.76-0.82L21.76-0.82Q21.76-1.09 21.46-1.49Q21.15-1.88 20.85-2.32Q20.55-2.75 20.55-3.12L20.55-3.12Q20.55-3.58 20.99-3.96Q21.43-4.34 22.05-4.34ZM25.43-3.86L25.43-3.86Q25.13-3.86 24.85-3.44Q24.57-3.03 24.41-2.44Q24.26-1.86 24.26-1.31L24.26-1.31Q24.27-0.89 24.39-0.65Q24.52-0.41 24.75-0.41L24.75-0.41Q25.06-0.41 25.33-0.84Q25.61-1.28 25.75-1.86Q25.89-2.44 25.88-2.95L25.88-2.95Q25.88-3.38 25.76-3.62Q25.64-3.86 25.43-3.86ZM25.54-4.32L25.54-4.32Q26.20-4.32 26.53-3.90Q26.86-3.49 26.86-2.77L26.86-2.77Q26.86-2.08 26.53-1.42Q26.21-0.76 25.69-0.35Q25.17 0.06 24.61 0.06L24.61 0.06Q23.94 0.06 23.61-0.35Q23.28-0.76 23.28-1.46L23.28-1.46Q23.28-2.13 23.60-2.79Q23.93-3.46 24.45-3.89Q24.98-4.32 25.54-4.32ZM28.63-4.32L28.63-4.32Q28.82-4.32 28.94-4.17Q29.06-4.03 29.06-3.79L29.06-3.79Q29.06-3.60 28.99-3.21L28.99-3.21Q28.98-3.17 28.97-3.12Q28.96-3.06 28.94-2.93Q28.92-2.80 28.90-2.72Q28.89-2.64 28.89-2.64L28.89-2.64Q29.10-3.08 29.65-3.70Q30.21-4.32 30.58-4.32L30.58-4.32Q31.24-4.32 31.24-3.46L31.24-3.46Q31.24-3.11 31.09-2.40L31.09-2.40L30.84-1.14Q30.81-1.05 30.81-0.91L30.81-0.91Q30.81-0.66 30.91-0.66L30.91-0.66Q31.01-0.66 31.17-0.80Q31.34-0.93 31.44-1.04Q31.54-1.14 31.58-1.19L31.58-1.19Q31.61-1.19 31.67-1.10Q31.74-1.01 31.74-0.97L31.74-0.97Q31.63-0.73 31.13-0.33Q30.63 0.07 30.27 0.07L30.27 0.07Q30.10 0.07 29.98-0.07Q29.85-0.21 29.85-0.47L29.85-0.47Q29.85-0.66 29.94-1.08L29.94-1.08L30.22-2.47Q30.30-2.87 30.30-3.02L30.30-3.02Q30.30-3.43 30.07-3.43L30.07-3.43Q29.89-3.43 29.58-3.03Q29.26-2.64 28.96-2.03Q28.65-1.43 28.55-0.90L28.55-0.90L28.36 0Q28.20 0.05 27.94 0.05L27.94 0.05Q27.68 0.05 27.48 0L27.48 0L28.07-3.03Q28.11-3.24 28.11-3.34L28.11-3.34Q28.11-3.57 28.01-3.57L28.01-3.57Q27.89-3.57 27.68-3.39Q27.47-3.20 27.38-3.09L27.38-3.09Q27.35-3.09 27.29-3.18Q27.23-3.28 27.23-3.32L27.23-3.32Q27.33-3.54 27.82-3.93Q28.30-4.32 28.63-4.32ZM34.74-1.35L34.74-1.35L35.42-4.85Q35.55-5.47 35.55-5.71L35.55-5.71Q35.55-5.81 35.51-5.86Q35.47-5.91 35.28-5.94Q35.09-5.97 34.70-5.97L34.70-5.97Q34.25-5.97 34.00-5.78Q33.75-5.60 33.52-5.06L33.52-5.06Q33.49-5 33.43-5L33.43-5Q33.25-5 33.20-5.08L33.20-5.08L33.66-6.56Q34.00-6.46 34.27-6.46L34.27-6.46Q34.66-6.46 35.26-6.43Q35.87-6.40 36.24-6.40Q36.61-6.40 37.24-6.43Q37.86-6.46 38.25-6.46L38.25-6.46Q38.51-6.46 38.90-6.56L38.90-6.56L38.78-5.07Q38.69-5 38.53-5L38.53-5Q38.45-5 38.45-5.05L38.45-5.05Q38.44-5.58 38.24-5.77Q38.04-5.97 37.63-5.97L37.63-5.97Q36.79-5.97 36.71-5.80L36.71-5.80Q36.59-5.55 36.46-4.88L36.46-4.88L35.77-1.36Q35.67-0.82 35.67-0.53L35.67-0.53Q35.67-0.42 35.87-0.34Q36.07-0.26 36.16-0.26L36.16-0.26Q36.18-0.26 36.18-0.21L36.18-0.21Q36.18-0.07 36.12 0.03L36.12 0.03Q35.04-0.03 34.99-0.03L34.99-0.03Q34.75-0.03 34.34 0Q33.93 0.03 33.84 0.03L33.84 0.03Q33.83 0.02 33.83-0.04L33.83-0.04Q33.83-0.26 33.90-0.26L33.90-0.26Q34.00-0.26 34.22-0.33Q34.44-0.39 34.49-0.48L34.49-0.48Q34.63-0.75 34.74-1.35ZM41.46-4.32L41.46-4.32Q41.93-4.32 42.22-4.08Q42.51-3.84 42.51-3.50L42.51-3.50Q42.51-3.04 42.05-2.62Q41.58-2.20 41.05-1.98Q40.53-1.77 40.21-1.77L40.21-1.77Q40.18-1.77 40.18-1.54L40.18-1.54Q40.18-0.61 40.80-0.61L40.80-0.61Q41.02-0.61 41.25-0.74Q41.48-0.88 41.59-0.98Q41.69-1.08 41.76-1.15L41.76-1.15Q41.78-1.15 41.85-1.06Q41.91-0.97 41.91-0.93L41.91-0.93Q41.79-0.67 41.32-0.31Q40.86 0.06 40.43 0.06L40.43 0.06Q39.82 0.06 39.51-0.35Q39.20-0.75 39.20-1.48L39.20-1.48Q39.20-2.14 39.53-2.80Q39.85-3.46 40.39-3.89Q40.92-4.32 41.46-4.32ZM41.37-3.85L41.37-3.85Q41.02-3.85 40.64-3.26Q40.26-2.67 40.26-2.23L40.26-2.23Q40.26-2.19 40.30-2.19L40.30-2.19Q40.70-2.19 41.15-2.63Q41.60-3.08 41.60-3.52L41.60-3.52Q41.60-3.66 41.54-3.75Q41.48-3.85 41.37-3.85ZM44.42-4.32L44.42-4.32Q44.79-4.32 45.03-3.52L45.03-3.52L45.21-2.91L45.70-3.73Q46.05-4.32 46.57-4.32L46.57-4.32Q46.93-4.32 47.21-4.13L47.21-4.13Q47.28-3.99 47.28-3.87L47.28-3.87Q47.28-3.68 47.16-3.54Q47.04-3.41 46.86-3.41L46.86-3.41Q46.71-3.41 46.55-3.53Q46.40-3.65 46.28-3.65L46.28-3.65Q46.11-3.65 46.00-3.44L46.00-3.44L45.37-2.35L45.77-0.98Q45.81-0.86 45.88-0.77Q45.95-0.68 46.02-0.68L46.02-0.68Q46.16-0.68 46.37-0.86Q46.58-1.04 46.65-1.15L46.65-1.15Q46.68-1.15 46.75-1.06Q46.82-0.98 46.82-0.94L46.82-0.94Q46.75-0.72 46.29-0.34Q45.83 0.05 45.47 0.05L45.47 0.05Q45.10 0.05 44.86-0.76L44.86-0.76L44.66-1.47L44.09-0.53Q43.73 0.06 43.22 0.06L43.22 0.06Q42.85 0.06 42.59-0.13L42.59-0.13Q42.52-0.25 42.52-0.39L42.52-0.39Q42.52-0.58 42.63-0.71Q42.74-0.85 42.93-0.85L42.93-0.85Q43.08-0.85 43.24-0.73Q43.40-0.61 43.52-0.61L43.52-0.61Q43.67-0.61 43.79-0.82L43.79-0.82L44.50-2.02L44.12-3.28Q44.03-3.59 43.88-3.59L43.88-3.59Q43.73-3.59 43.52-3.41Q43.31-3.23 43.24-3.12L43.24-3.12Q43.21-3.12 43.14-3.20Q43.08-3.29 43.08-3.33L43.08-3.33Q43.14-3.54 43.61-3.93Q44.07-4.32 44.42-4.32ZM48.39-4.14L48.60-5.21Q48.62-5.33 49.27-5.33L49.27-5.33Q49.41-5.33 49.51-5.31L49.51-5.31L49.27-4.14Q49.27-4.14 50.15-4.14L50.15-4.14Q50.21-4.14 50.21-4.00L50.21-4.00Q50.21-3.82 50.11-3.65L50.11-3.65L49.18-3.65L48.69-1.14Q48.66-1.05 48.66-0.91L48.66-0.91Q48.66-0.66 48.76-0.66L48.76-0.66Q48.86-0.66 49.02-0.80Q49.19-0.93 49.29-1.04Q49.39-1.14 49.44-1.19L49.44-1.19Q49.46-1.19 49.53-1.10Q49.60-1.01 49.60-0.97L49.60-0.97Q49.49-0.73 48.99-0.33Q48.49 0.07 48.13 0.07L48.13 0.07Q47.95 0.07 47.83-0.07Q47.71-0.21 47.71-0.47L47.71-0.47Q47.71-0.68 47.79-1.08L47.79-1.08L48.29-3.65L47.67-3.65Q47.64-3.65 47.64-3.77L47.64-3.77Q47.64-3.87 47.68-3.98Q47.72-4.10 47.76-4.14L47.76-4.14L48.39-4.14Z"/></svg>