<svg xmlns="http://www.w3.org/2000/svg" viewBox="4.21875 51.8359375 498.65625 48.5859375"><path d="M30.73 53.10L30.73 53.10Q35.51 53.10 45.70 56.27L45.70 56.27Q44.44 64.28 44.30 64.98L44.30 64.98Q44.09 66.04 42.61 66.04L42.61 66.04Q42.05 66.04 41.84 65.83L41.84 65.83Q41.84 64.77 41.77 63.93Q41.70 63.09 41.06 61.47Q40.43 59.85 39.34 58.80Q38.25 57.74 35.93 56.90Q33.61 56.05 30.38 56.05L30.38 56.05Q23.13 56.05 16.88 63.79Q10.62 71.52 10.62 81.79L10.62 81.79Q10.62 88.54 14.27 92.97Q17.93 97.40 24.61 97.40L24.61 97.40Q29.81 97.40 33.47 95.08L33.47 95.08Q35.23 94.02 36.53 92.55Q37.83 91.07 38.43 90.16Q39.02 89.24 39.09 89.24L39.09 89.24Q39.30 89.24 39.94 89.98Q40.57 90.72 40.50 91L40.50 91Q37.34 97.05 36.98 97.40L36.98 97.40Q35.93 98.59 31.50 99.51Q27.07 100.42 22.57 100.42L22.57 100.42Q14.20 100.42 9.21 94.69Q4.22 88.96 4.22 81.23L4.22 81.23Q4.22 76.59 6.29 71.59Q8.37 66.60 11.81 62.49Q15.26 58.38 20.29 55.74Q25.31 53.10 30.73 53.10ZM55.34 69.41L55.34 69.41Q56.46 69.41 57.09 70.43Q57.73 71.45 57.73 73.07L57.73 73.07Q57.73 74.62 57.30 76.80L57.30 76.80L56.18 82.70Q57.94 78.55 61.42 73.98Q64.90 69.41 67.29 69.41Q69.68 69.41 71.16 71.66L71.16 71.66Q71.16 76.38 68.55 76.38L68.55 76.38Q67.99 76.38 67.22 75.50Q66.45 74.62 65.60 74.62L65.60 74.62Q63.56 74.62 59.52 80.73Q55.48 86.85 54.42 92.62L54.42 92.62L53.09 100Q51.89 100.21 50.77 100.21L50.77 100.21Q49.43 100.21 48.16 100L48.16 100L52.38 78.34Q52.73 75.81 52.73 75.53L52.73 75.53Q52.73 73.77 52.03 73.77L52.03 73.77Q51.75 73.77 51.26 74.09Q50.77 74.41 50.24 74.90Q49.71 75.39 49.29 75.81Q48.87 76.23 48.52 76.66Q48.16 77.08 48.16 77.08L48.16 77.08Q48.02 77.08 47.64 76.41Q47.25 75.74 47.25 75.46L47.25 75.46Q48.09 74.05 50.80 71.73Q53.51 69.41 55.34 69.41ZM81.56 69.41L81.56 69.41Q82.69 69.41 83.32 70.43Q83.95 71.45 83.95 73.07L83.95 73.07Q83.95 74.55 83.53 76.80L83.53 76.80L80.44 92.55Q80.23 93.39 80.23 94.30L80.23 94.30Q80.23 96.06 80.93 96.06L80.93 96.06Q81.35 96.06 81.95 95.68Q82.55 95.29 83.14 94.73Q83.74 94.16 84.23 93.64Q84.73 93.11 85.15 92.69L85.15 92.69L85.57 92.20Q85.71 92.20 86.10 92.86Q86.48 93.53 86.48 93.81L86.48 93.81Q85.57 95.36 82.69 97.89Q79.80 100.42 77.63 100.42L77.63 100.42Q76.50 100.42 75.87 99.40Q75.23 98.38 75.23 96.77L75.23 96.77Q75.23 95.64 75.73 93.04L75.73 93.04L78.61 78.34Q78.96 76.16 78.96 75.53L78.96 75.53Q78.96 73.77 78.26 73.77L78.26 73.77Q77.98 73.77 77.48 74.09Q76.99 74.41 76.46 74.90Q75.94 75.39 75.52 75.81Q75.09 76.23 74.74 76.66L74.74 76.66L74.39 77.08Q74.25 77.08 73.86 76.41Q73.48 75.74 73.48 75.46L73.48 75.46Q74.32 74.05 77.03 71.73Q79.73 69.41 81.56 69.41ZM83.60 54.58L83.60 54.58Q84.66 54.58 85.39 55.42Q86.13 56.27 86.13 57.39L86.13 57.39Q86.13 59.08 85.04 60.34Q83.95 61.61 82.34 61.61L82.34 61.61Q81.21 61.61 80.58 60.73Q79.95 59.85 79.95 58.59L79.95 58.59Q79.95 56.97 81 55.77Q82.05 54.58 83.60 54.58ZM113.98 69.41L113.98 69.41Q115.88 69.41 116.89 70.54Q117.91 71.66 118.13 72.89Q118.34 74.13 118.34 76.09L118.34 76.09Q118.34 77.29 117.35 82.35L117.35 82.35Q119.67 78.34 123.86 73.88Q128.04 69.41 130.50 69.41L130.50 69.41Q132.82 69.41 133.66 70.57Q134.51 71.73 134.51 74.05L134.51 74.05Q134.51 77.22 133.52 81.72L133.52 81.72L131.20 92.55Q130.99 93.39 130.99 94.30L130.99 94.30Q130.99 96.06 131.70 96.06L131.70 96.06Q132.12 96.06 132.71 95.68Q133.31 95.29 133.91 94.73Q134.51 94.16 135 93.64Q135.49 93.11 135.91 92.69L135.91 92.69L136.34 92.20Q136.48 92.20 136.86 92.86Q137.25 93.53 137.25 93.81L137.25 93.81Q136.34 95.36 133.45 97.89Q130.57 100.42 128.39 100.42L128.39 100.42Q127.27 100.42 126.63 99.40Q126 98.38 126 96.77L126 96.77Q126 95.64 126.49 93.04L126.49 93.04L128.95 81.44Q129.45 79.12 129.45 77.64L129.45 77.64Q129.45 76.59 129.38 76.02Q129.30 75.46 129.02 75.04Q128.74 74.62 128.11 74.62L128.11 74.62Q125.72 74.62 121.04 80.73Q116.37 86.85 115.17 93.32L115.17 93.32L113.91 100Q113.63 100 112.82 100.11Q112.01 100.21 111.45 100.21Q110.88 100.21 110.14 100.11Q109.41 100 109.20 100L109.20 100L113.13 80.03Q113.41 78.55 113.41 77.36L113.41 77.36Q113.41 74.62 112.01 74.62L112.01 74.62Q109.55 74.62 104.98 81.30Q100.41 87.98 99.21 93.81L99.21 93.81L97.95 100Q96.12 100.28 95.55 100.28L95.55 100.28Q95.06 100.28 93.23 100L93.23 100L97.45 78.34Q97.80 75.81 97.80 75.53L97.80 75.53Q97.80 73.77 97.10 73.77L97.10 73.77Q96.82 73.77 96.33 74.09Q95.84 74.41 95.31 74.90Q94.78 75.39 94.36 75.81Q93.94 76.23 93.59 76.66Q93.23 77.08 93.23 77.08L93.23 77.08Q93.09 77.08 92.71 76.41Q92.32 75.74 92.32 75.46L92.32 75.46Q93.16 74.05 95.87 71.73Q98.58 69.41 100.41 69.41L100.41 69.41Q101.53 69.41 102.16 70.43Q102.80 71.45 102.80 73.07L102.80 73.07Q102.80 74.62 102.38 76.80L102.38 76.80L101.11 83.34Q103.71 78.84 107.61 74.13Q111.52 69.41 113.98 69.41ZM154.90 69.20L154.90 69.20Q158.91 69.20 161.23 71.88L161.23 71.88Q161.58 72.72 161.58 73.35L161.58 73.35Q161.58 74.62 160.91 75.53Q160.24 76.45 159.19 76.45L159.19 76.45Q158.20 76.45 157.43 75.43Q156.66 74.41 155.50 73.35Q154.34 72.30 152.44 72.30L152.44 72.30Q150.96 72.30 150.12 73.28Q149.27 74.27 149.27 75.53L149.27 75.53Q149.27 77.36 150.64 79.43Q152.02 81.51 153.63 83.13Q155.25 84.74 156.62 87.06Q157.99 89.38 157.99 91.77L157.99 91.77Q157.99 95.64 155.18 98.03Q152.37 100.42 147.94 100.42L147.94 100.42Q143.93 100.42 141.61 97.75L141.61 97.75Q141.26 97.19 141.26 96.41L141.26 96.41Q141.26 95.15 141.93 94.16Q142.59 93.18 143.65 93.18L143.65 93.18Q144.63 93.18 145.41 94.20Q146.18 95.22 147.34 96.27Q148.50 97.33 150.40 97.33L150.40 97.33Q151.95 97.33 152.89 96.31Q153.84 95.29 153.84 94.09L153.84 94.09Q153.84 92.27 152.47 90.19Q151.10 88.12 149.48 86.50Q147.87 84.88 146.50 82.56Q145.13 80.24 145.13 77.85L145.13 77.85Q145.13 74.90 147.94 72.05Q150.75 69.20 154.90 69.20ZM178.45 72.30L178.45 72.30Q174.94 72.30 172.05 77.82Q169.17 83.34 169.17 88.89L169.17 88.89Q169.17 92.97 170.47 95.22Q171.77 97.47 173.74 97.47L173.74 97.47Q177.26 97.47 179.96 91.95Q182.67 86.43 182.67 80.80L182.67 80.80Q182.67 76.66 181.55 74.48Q180.42 72.30 178.45 72.30ZM179.30 69.41L179.30 69.41Q183.45 69.41 185.73 72.30Q188.02 75.18 188.02 80.24L188.02 80.24Q188.02 87.48 182.92 93.92Q177.82 100.35 172.48 100.35L172.48 100.35Q168.26 100.35 166.04 97.61Q163.83 94.87 163.83 89.80L163.83 89.80Q163.83 82.49 168.89 75.95Q173.95 69.41 179.30 69.41ZM200.67 69.41L200.67 69.41Q201.80 69.41 202.43 70.43Q203.06 71.45 203.06 73.07L203.06 73.07Q203.06 74.62 202.64 76.80L202.64 76.80L201.38 83.27Q202.08 82 204.43 78.91Q206.79 75.81 210.20 72.61Q213.61 69.41 215.72 69.41L215.72 69.41Q219.23 69.41 219.23 74.05L219.23 74.05Q219.23 77.22 218.25 81.72L218.25 81.72L215.93 92.55Q215.72 93.39 215.72 94.30L215.72 94.30Q215.72 96.06 216.42 96.06L216.42 96.06Q216.84 96.06 217.44 95.68Q218.04 95.29 218.64 94.73Q219.23 94.16 219.73 93.64Q220.22 93.11 220.64 92.69L220.64 92.69L221.06 92.20Q221.20 92.20 221.59 92.86Q221.98 93.53 221.98 93.81L221.98 93.81Q221.06 95.36 218.18 97.89Q215.30 100.42 213.12 100.42L213.12 100.42Q211.99 100.42 211.36 99.40Q210.73 98.38 210.73 96.77L210.73 96.77Q210.73 95.64 211.22 93.04L211.22 93.04L213.68 81.44Q214.17 79.12 214.17 77.64L214.17 77.64Q214.17 74.62 212.84 74.62L212.84 74.62Q210.52 74.62 205.63 80.98Q200.74 87.34 199.34 94.52L199.34 94.52L198.14 100Q197.23 100.28 195.96 100.28Q194.70 100.28 193.57 100L193.57 100L197.72 78.34Q198.07 75.81 198.07 75.53L198.07 75.53Q198.07 73.77 197.37 73.77L197.37 73.77Q197.09 73.77 196.59 74.09Q196.10 74.41 195.57 74.90Q195.05 75.39 194.63 75.81Q194.20 76.23 193.85 76.66Q193.50 77.08 193.50 77.08L193.50 77.08Q193.36 77.08 192.97 76.41Q192.59 75.74 192.59 75.46L192.59 75.46Q193.43 74.05 196.14 71.73Q198.84 69.41 200.67 69.41ZM257.27 90.02L257.27 90.02L262.13 65.05Q263.04 60.20 263.04 58.23L263.04 58.23Q263.04 57.74 262.86 57.50Q262.69 57.25 261.07 57.00Q259.45 56.76 256.08 56.76L256.08 56.76Q252.35 56.76 250.80 57.92Q249.26 59.08 247.50 63.02L247.50 63.02Q247.36 63.37 246.80 63.37L246.80 63.37Q245.88 63.37 245.39 62.88L245.39 62.88L248.48 52.82Q251.16 53.59 252.91 53.59L252.91 53.59Q255.66 53.59 260.02 53.80Q264.38 54.02 267.12 54.02Q269.86 54.02 274.36 53.80Q278.86 53.59 281.60 53.59L281.60 53.59Q283.15 53.59 286.24 52.82L286.24 52.82L285.54 62.88Q284.91 63.37 283.92 63.37L283.92 63.37Q283.29 63.37 283.29 63.02L283.29 63.02Q283.29 59.22 281.92 57.99Q280.55 56.76 277.24 56.76L277.24 56.76Q270.28 56.76 269.79 57.81L269.79 57.81Q268.80 59.92 267.82 64.84L267.82 64.84L262.90 90.23Q262.13 94.09 262.13 96.55L262.13 96.55Q262.13 97.12 263.07 97.57Q264.02 98.03 264.94 98.17L264.94 98.17L265.92 98.31Q266.06 98.31 266.06 98.59L266.06 98.59Q266.06 99.37 265.64 100.21L265.64 100.21Q259.17 99.86 258.33 99.86L258.33 99.86Q258.19 99.86 250.59 100.21L250.59 100.21Q250.45 100.07 250.45 99.65L250.45 99.65Q250.45 98.31 250.95 98.31L250.95 98.31Q251.79 98.31 253.48 97.86Q255.16 97.40 255.45 96.77L255.45 96.77Q256.50 94.38 257.27 90.02ZM300.02 69.41L300.02 69.41Q303.26 69.41 304.70 71.07Q306.14 72.72 306.14 74.69L306.14 74.69Q306.14 77.78 302.98 80.80Q299.81 83.83 296.05 85.48Q292.29 87.13 289.97 87.13L289.97 87.13Q289.69 87.13 289.69 89.59L289.69 89.59Q289.69 92.76 290.92 94.41Q292.15 96.06 294.26 96.06L294.26 96.06Q294.82 96.06 295.35 95.92Q295.88 95.78 296.37 95.57Q296.86 95.36 297.35 95.11Q297.84 94.87 298.27 94.52Q298.69 94.16 299.07 93.88Q299.46 93.60 299.78 93.29Q300.09 92.97 300.27 92.76Q300.45 92.55 300.59 92.41L300.59 92.41L300.80 92.20Q300.94 92.20 301.32 92.86Q301.71 93.53 301.71 93.81L301.71 93.81Q300.73 95.50 297.77 97.96Q294.82 100.42 291.94 100.42L291.94 100.42Q288.28 100.42 286.35 97.57Q284.41 94.73 284.41 89.73L284.41 89.73Q284.41 82.98 289.55 76.20Q294.68 69.41 300.02 69.41ZM299.32 72.30L299.32 72.30Q296.02 72.30 293.10 77.04Q290.18 81.79 290.18 84.39L290.18 84.39Q290.18 84.67 290.46 84.67L290.46 84.67Q292.99 84.67 297.04 81.30Q301.08 77.92 301.08 74.41L301.08 74.41Q301.08 72.30 299.32 72.30ZM319.36 69.41L319.36 69.41Q322.31 69.41 324.14 75.53L324.14 75.53L325.62 80.52L329.77 73.42Q332.09 69.41 335.67 69.41L335.67 69.41Q338.06 69.41 339.75 70.82L339.75 70.82Q340.31 71.95 340.31 72.65L340.31 72.65Q340.31 73.70 339.57 74.44Q338.84 75.18 338.06 75.18L338.06 75.18Q337.15 75.18 335.99 74.09Q334.83 73 333.84 73L333.84 73Q333 73 331.95 74.83L331.95 74.83L326.67 83.83L329.70 93.74Q330.40 96.13 331.59 96.13L331.59 96.13Q332.65 96.13 333.84 95.04Q335.04 93.95 335.53 93.04L335.53 93.04Q335.81 93.04 336.23 93.60Q336.66 94.16 336.66 94.45L336.66 94.45Q336.45 95.64 334.05 98.00Q331.66 100.35 329.48 100.35L329.48 100.35Q326.53 100.35 324.70 94.23L324.70 94.23L323.09 88.75L318.66 96.41Q316.34 100.42 312.75 100.42L312.75 100.42Q310.36 100.42 308.67 99.02L308.67 99.02Q308.11 98.03 308.11 97.19L308.11 97.19Q308.11 96.13 308.85 95.39Q309.59 94.66 310.36 94.66L310.36 94.66Q311.27 94.66 312.43 95.75Q313.59 96.84 314.58 96.84L314.58 96.84Q315.42 96.84 316.48 95.01L316.48 95.01L322.03 85.45L319.15 76.02Q318.45 73.63 317.25 73.63L317.25 73.63Q316.20 73.63 315 74.72Q313.80 75.81 313.31 76.73L313.31 76.73Q313.03 76.73 312.61 76.16Q312.19 75.60 312.19 75.32L312.19 75.32Q312.40 74.13 314.79 71.77Q317.18 69.41 319.36 69.41ZM350.37 70.47L352.05 61.89Q352.27 61.19 355.50 61.19L355.50 61.19Q356.34 61.19 356.77 61.26L356.77 61.26L355.01 70.47L361.41 70.47Q361.76 70.47 361.76 71.38L361.76 71.38Q361.76 72.23 361.13 73.42L361.13 73.42L354.45 73.42L350.72 92.55Q350.51 93.39 350.51 94.30L350.51 94.30Q350.51 96.06 351.21 96.06L351.21 96.06Q351.63 96.06 352.23 95.68Q352.83 95.29 353.43 94.73Q354.02 94.16 354.52 93.64Q355.01 93.11 355.43 92.69L355.43 92.69L355.85 92.20Q355.99 92.20 356.38 92.86Q356.77 93.53 356.77 93.81L356.77 93.81Q355.85 95.36 352.97 97.89Q350.09 100.42 347.91 100.42L347.91 100.42Q346.78 100.42 346.15 99.40Q345.52 98.38 345.52 96.77L345.52 96.77Q345.52 95.64 346.01 93.04L346.01 93.04L349.80 73.42L344.81 73.42Q344.60 73.42 344.60 72.65L344.60 72.65Q344.60 71.73 345.45 70.47L345.45 70.47L350.37 70.47ZM387.28 69.41L387.28 69.41Q388.41 69.41 389.04 70.43Q389.67 71.45 389.67 73.07L389.67 73.07Q389.67 74.55 389.25 76.80L389.25 76.80L386.16 92.55Q385.95 93.39 385.95 94.30L385.95 94.30Q385.95 96.06 386.65 96.06L386.65 96.06Q387.07 96.06 387.67 95.68Q388.27 95.29 388.86 94.73Q389.46 94.16 389.95 93.64Q390.45 93.11 390.87 92.69L390.87 92.69L391.29 92.20Q391.43 92.20 391.82 92.86Q392.20 93.53 392.20 93.81L392.20 93.81Q391.29 95.36 388.41 97.89Q385.52 100.42 383.34 100.42L383.34 100.42Q382.22 100.42 381.59 99.40Q380.95 98.38 380.95 96.77L380.95 96.77Q380.95 95.64 381.45 93.04L381.45 93.04L384.33 78.34Q384.68 76.16 384.68 75.53L384.68 75.53Q384.68 73.77 383.98 73.77L383.98 73.77Q383.70 73.77 383.20 74.09Q382.71 74.41 382.18 74.90Q381.66 75.39 381.23 75.81Q380.81 76.23 380.46 76.66L380.46 76.66L380.11 77.08Q379.97 77.08 379.58 76.41Q379.20 75.74 379.20 75.46L379.20 75.46Q380.04 74.05 382.75 71.73Q385.45 69.41 387.28 69.41ZM389.32 54.58L389.32 54.58Q390.38 54.58 391.11 55.42Q391.85 56.27 391.85 57.39L391.85 57.39Q391.85 59.08 390.76 60.34Q389.67 61.61 388.05 61.61L388.05 61.61Q386.93 61.61 386.30 60.73Q385.66 59.85 385.66 58.59L385.66 58.59Q385.66 56.97 386.72 55.77Q387.77 54.58 389.32 54.58ZM404.09 70.47L405.77 61.89Q405.98 61.19 409.22 61.19L409.22 61.19Q410.06 61.19 410.48 61.26L410.48 61.26L408.73 70.47L415.13 70.47Q415.48 70.47 415.48 71.38L415.48 71.38Q415.48 72.23 414.84 73.42L414.84 73.42L408.16 73.42L404.44 92.55Q404.23 93.39 404.23 94.30L404.23 94.30Q404.23 96.06 404.93 96.06L404.93 96.06Q405.35 96.06 405.95 95.68Q406.55 95.29 407.14 94.73Q407.74 94.16 408.23 93.64Q408.73 93.11 409.15 92.69L409.15 92.69L409.57 92.20Q409.71 92.20 410.10 92.86Q410.48 93.53 410.48 93.81L410.48 93.81Q409.57 95.36 406.69 97.89Q403.80 100.42 401.63 100.42L401.63 100.42Q400.50 100.42 399.87 99.40Q399.23 98.38 399.23 96.77L399.23 96.77Q399.23 95.64 399.73 93.04L399.73 93.04L403.52 73.42L398.53 73.42Q398.32 73.42 398.32 72.65L398.32 72.65Q398.32 71.73 399.16 70.47L399.16 70.47L404.09 70.47ZM435.09 69.41L435.09 69.41Q437.77 69.41 440.23 70.33L440.23 70.33L435.94 92.55Q435.73 93.39 435.73 94.30L435.73 94.30Q435.73 96.06 436.43 96.06L436.43 96.06Q436.85 96.06 437.45 95.68Q438.05 95.29 438.64 94.73Q439.24 94.16 439.73 93.64Q440.23 93.11 440.65 92.69L440.65 92.69L441.07 92.20Q441.21 92.20 441.60 92.86Q441.98 93.53 441.98 93.81L441.98 93.81Q441.07 95.36 438.19 97.89Q435.30 100.42 433.13 100.42L433.13 100.42Q432 100.42 431.37 99.40Q430.73 98.38 430.73 96.77L430.73 96.77Q430.73 95.57 431.23 93.04L431.23 93.04Q431.37 92.27 431.47 91.81Q431.58 91.35 431.58 91.21L431.58 91.21Q430.88 92.48 429.96 93.78Q429.05 95.08 427.64 96.70Q426.23 98.31 424.65 99.33Q423.07 100.35 421.66 100.35L421.66 100.35Q418.57 100.35 416.78 97.57Q414.98 94.80 414.98 90.86L414.98 90.86Q414.98 85.87 417.97 80.84Q420.96 75.81 425.67 72.61Q430.38 69.41 435.09 69.41ZM432.14 72.65L432.14 72.65Q427.99 72.65 424.09 78.03Q420.19 83.41 420.19 89.38L420.19 89.38Q420.19 96.27 423.77 96.27L423.77 96.27Q426.30 96.27 429.43 91.14Q432.56 86.01 433.62 80.73L433.62 80.73L435.02 73.56Q434.18 72.65 432.14 72.65ZM447.82 93.04L447.82 93.04L454.43 58.94Q454.64 57.88 454.64 56.97L454.64 56.97Q454.64 55.63 450.35 55.63L450.35 55.63Q450.14 55.63 450.14 55.21L450.14 55.21Q450.14 54.37 450.70 53.80L450.70 53.80Q455.48 53.38 459.70 51.84L459.70 51.84Q460.13 52.05 460.13 53.17L460.13 53.17Q460.13 54.02 459.21 58.45L459.21 58.45L452.53 92.55Q452.32 93.39 452.32 94.30L452.32 94.30Q452.32 96.06 453.02 96.06L453.02 96.06Q453.45 96.06 454.04 95.68Q454.64 95.29 455.27 94.73Q455.91 94.16 456.40 93.64Q456.89 93.11 457.28 92.65Q457.66 92.20 457.66 92.20L457.66 92.20Q457.88 92.20 458.23 92.86Q458.58 93.53 458.58 93.81L458.58 93.81Q457.66 95.36 454.78 97.89Q451.90 100.42 449.72 100.42L449.72 100.42Q448.66 100.42 448.00 99.40Q447.33 98.38 447.33 96.77L447.33 96.77Q447.33 95.57 447.82 93.04ZM471.52 69.41L471.52 69.41Q472.64 69.41 473.27 70.43Q473.91 71.45 473.91 73.07L473.91 73.07Q473.91 74.55 473.48 76.80L473.48 76.80L470.39 92.55Q470.18 93.39 470.18 94.30L470.18 94.30Q470.18 96.06 470.88 96.06L470.88 96.06Q471.30 96.06 471.90 95.68Q472.50 95.29 473.10 94.73Q473.70 94.16 474.19 93.64Q474.68 93.11 475.10 92.69L475.10 92.69L475.52 92.20Q475.66 92.20 476.05 92.86Q476.44 93.53 476.44 93.81L476.44 93.81Q475.52 95.36 472.64 97.89Q469.76 100.42 467.58 100.42L467.58 100.42Q466.45 100.42 465.82 99.40Q465.19 98.38 465.19 96.77L465.19 96.77Q465.19 95.64 465.68 93.04L465.68 93.04L468.56 78.34Q468.91 76.16 468.91 75.53L468.91 75.53Q468.91 73.77 468.21 73.77L468.21 73.77Q467.93 73.77 467.44 74.09Q466.95 74.41 466.42 74.90Q465.89 75.39 465.47 75.81Q465.05 76.23 464.70 76.66L464.70 76.66L464.34 77.08Q464.20 77.08 463.82 76.41Q463.43 75.74 463.43 75.46L463.43 75.46Q464.27 74.05 466.98 71.73Q469.69 69.41 471.52 69.41ZM473.55 54.58L473.55 54.58Q474.61 54.58 475.35 55.42Q476.09 56.27 476.09 57.39L476.09 57.39Q476.09 59.08 475.00 60.34Q473.91 61.61 472.29 61.61L472.29 61.61Q471.16 61.61 470.53 60.73Q469.90 59.85 469.90 58.59L469.90 58.59Q469.90 56.97 470.95 55.77Q472.01 54.58 473.55 54.58ZM496.55 69.41L496.55 69.41Q499.85 69.41 502.66 71.80L502.66 71.80Q502.88 72.65 502.88 73.21L502.88 73.21Q502.88 74.55 502.21 75.39Q501.54 76.23 500.41 76.23Q499.29 76.23 498.09 74.27Q496.90 72.30 495.70 72.30L495.70 72.30Q492.68 72.30 489.41 77.18Q486.14 82.07 486.14 88.61L486.14 88.61Q486.14 96.06 490.78 96.06L490.78 96.06Q491.34 96.06 491.87 95.92Q492.40 95.78 492.89 95.57Q493.38 95.36 493.88 95.11Q494.37 94.87 494.79 94.52Q495.21 94.16 495.60 93.88Q495.98 93.60 496.30 93.29Q496.62 92.97 496.79 92.76Q496.97 92.55 497.11 92.41L497.11 92.41L497.32 92.20Q497.46 92.20 497.85 92.86Q498.23 93.53 498.23 93.81L498.23 93.81Q497.25 95.50 494.30 97.96Q491.34 100.42 488.46 100.42L488.46 100.42Q484.80 100.42 482.87 97.57Q480.94 94.73 480.94 89.73L480.94 89.73Q480.94 82.98 486.07 76.20Q491.20 69.41 496.55 69.41Z"/></svg>