<svg xmlns="http://www.w3.org/2000/svg" viewBox="3.24 48.879999999999995 353.5200000000001 65.52000000000001"><path d="M20.16 100.72Q14.33 100.72 10.66 98.38Q6.98 96.04 5.11 90.35Q3.24 84.66 3.24 74.80L3.24 74.80Q3.24 64.94 5.08 59.25Q6.91 53.56 10.44 51.22Q13.97 48.88 19.44 48.88L19.44 48.88Q22.97 48.88 26.06 49.31Q29.16 49.74 30.96 50.32L30.96 50.32L30.96 54.28L22.32 54.28Q17.28 54.28 14.58 58.82Q11.88 63.35 11.88 74.80L11.88 74.80Q11.88 82.65 13.21 87.15Q14.54 91.65 16.96 93.48Q19.37 95.32 23.04 95.32L23.04 95.32L31.68 95.32L31.68 99.28Q29.88 99.86 26.78 100.29Q23.69 100.72 20.16 100.72L20.16 100.72ZM47.88 100.72Q42.70 100.72 39.71 98.20Q36.72 95.68 36.72 89.20L36.72 89.20L36.72 64.00L45.36 64.00L45.36 89.20Q45.36 92.66 46.98 94.17Q48.60 95.68 51.12 95.68L51.12 95.68Q52.42 95.68 53.46 95.25Q54.50 94.82 55.08 94.24L55.08 94.24L55.08 64.00L63.72 64.00L63.72 100L57.60 100L56.52 97.84L56.16 97.84Q53.14 100.72 47.88 100.72L47.88 100.72ZM73.08 114.40L73.08 64.00L79.20 64.00L80.28 66.16L80.64 66.16Q83.66 63.28 88.56 63.28L88.56 63.28Q94.32 63.28 97.56 67.74Q100.80 72.21 100.80 82L100.80 82Q100.80 91.86 97.45 96.29Q94.10 100.72 87.84 100.72L87.84 100.72Q84.24 100.72 81.72 98.92L81.72 98.92L81.72 114.40L73.08 114.40ZM85.68 95.68Q88.70 95.68 90.43 92.62Q92.16 89.56 92.16 82L92.16 82Q92.16 74.44 90.43 71.38Q88.70 68.32 85.68 68.32L85.68 68.32Q84.46 68.32 83.63 68.68Q82.80 69.04 81.72 69.76L81.72 69.76L81.72 94.24Q82.30 94.82 83.38 95.25Q84.46 95.68 85.68 95.68L85.68 95.68ZM108.36 100L108.36 64.00L114.48 64.00L115.56 66.88L115.92 66.88Q118.94 64.00 124.20 64.00L124.20 64.00L128.88 64.00L128.88 70.12L120.96 70.12Q119.74 70.12 118.66 70.55Q117.58 70.98 117.00 71.56L117.00 71.56L117.00 100L108.36 100ZM145.44 100.72Q140.26 100.72 137.27 98.20Q134.28 95.68 134.28 89.20L134.28 89.20L134.28 64.00L142.92 64.00L142.92 89.20Q142.92 92.66 144.54 94.17Q146.16 95.68 148.68 95.68L148.68 95.68Q149.98 95.68 151.02 95.25Q152.06 94.82 152.64 94.24L152.64 94.24L152.64 64.00L161.28 64.00L161.28 100L155.16 100L154.08 97.84L153.72 97.84Q150.70 100.72 145.44 100.72L145.44 100.72ZM170.64 100L170.64 64.00L176.76 64.00L177.84 66.16L178.20 66.16Q181.22 63.28 186.48 63.28L186.48 63.28Q191.52 63.28 194.40 66.16L194.40 66.16Q197.86 63.28 203.76 63.28L203.76 63.28Q208.73 63.28 211.64 65.80Q214.56 68.32 214.56 74.80L214.56 74.80L214.56 100L205.92 100L205.92 74.80Q205.92 71.34 204.34 69.83Q202.75 68.32 200.52 68.32L200.52 68.32Q198.22 68.32 196.20 69.40L196.20 69.40Q196.49 70.26 196.70 71.78Q196.92 73.29 196.92 74.80L196.92 74.80L196.92 100L188.28 100L188.28 74.80Q188.28 71.34 186.77 69.83Q185.26 68.32 183.24 68.32L183.24 68.32Q182.02 68.32 180.94 68.75Q179.86 69.18 179.28 69.76L179.28 69.76L179.28 100L170.64 100ZM254.16 100.72Q250.49 100.72 247.79 100.22Q245.09 99.71 242.28 98.56L242.28 98.56L242.28 49.60L250.92 49.60L250.92 65.08Q253.44 63.28 257.04 63.28L257.04 63.28Q263.30 63.28 266.65 67.71Q270.00 72.14 270.00 82L270.00 82Q270.00 92.08 266.22 96.40Q262.44 100.72 254.16 100.72L254.16 100.72ZM250.92 95.68L254.16 95.68Q257.69 95.68 259.52 92.66Q261.36 89.63 261.36 82L261.36 82Q261.36 74.44 259.63 71.38Q257.90 68.32 254.88 68.32L254.88 68.32Q253.66 68.32 252.58 68.75Q251.50 69.18 250.92 69.76L250.92 69.76L250.92 95.68ZM290.16 100.72Q282.89 100.72 279.32 96.36Q275.76 92.01 275.76 82L275.76 82Q275.76 71.99 279.32 67.64Q282.89 63.28 290.16 63.28L290.16 63.28Q297.43 63.28 301.00 67.64Q304.56 71.99 304.56 82L304.56 82Q304.56 92.01 301.00 96.36Q297.43 100.72 290.16 100.72L290.16 100.72ZM290.16 96.04Q292.90 96.04 294.41 92.91Q295.92 89.78 295.92 82L295.92 82Q295.92 74.22 294.41 71.09Q292.90 67.96 290.16 67.96L290.16 67.96Q287.42 67.96 285.91 71.09Q284.40 74.22 284.40 82L284.40 82Q284.40 89.78 285.91 92.91Q287.42 96.04 290.16 96.04L290.16 96.04ZM321.12 100L312.48 100L312.48 49.60L321.12 49.60L321.12 100ZM341.28 100.72Q335.52 100.72 332.28 96.26Q329.04 91.79 329.04 82L329.04 82Q329.04 72.14 332.39 67.71Q335.74 63.28 342.00 63.28L342.00 63.28Q345.60 63.28 348.12 65.08L348.12 65.08L348.12 49.60L356.76 49.60L356.76 100L350.64 100L349.56 97.84L349.20 97.84Q346.18 100.72 341.28 100.72L341.28 100.72ZM344.16 95.68Q345.38 95.68 346.21 95.32Q347.04 94.96 348.12 94.24L348.12 94.24L348.12 69.76Q347.54 69.18 346.50 68.75Q345.46 68.32 344.16 68.32L344.16 68.32Q341.14 68.32 339.41 71.38Q337.68 74.44 337.68 82L337.68 82Q337.68 89.56 339.41 92.62Q341.14 95.68 344.16 95.68L344.16 95.68Z"/></svg>