<svg xmlns="http://www.w3.org/2000/svg" viewBox="0.5 -7.1000000000000005 27.5 9.100000000000001"><path d="M2.70 0.10Q1.96 0.10 1.48-0.23Q1-0.55 0.75-1.34Q0.50-2.13 0.50-3.50L0.50-3.50Q0.50-4.86 0.75-5.65Q1-6.44 1.46-6.77Q1.91-7.10 2.60-7.10L2.60-7.10Q3.02-7.10 3.44-7.04Q3.86-6.98 4.10-6.90L4.10-6.90L4.10-6.45L2.80-6.45Q2.13-6.45 1.77-5.80Q1.40-5.15 1.40-3.50L1.40-3.50Q1.40-2.37 1.58-1.72Q1.76-1.07 2.09-0.81Q2.42-0.55 2.90-0.55L2.90-0.55L4.20-0.55L4.20-0.10Q3.96-0.02 3.54 0.04Q3.13 0.10 2.70 0.10L2.70 0.10ZM6.45 0.10Q5.68 0.10 5.29-0.23Q4.90-0.55 4.90-1.40L4.90-1.40L4.90-5L5.80-5L5.80-1.40Q5.80-0.91 6.05-0.70Q6.30-0.50 6.75-0.50L6.75-0.50Q6.93-0.50 7.13-0.56Q7.33-0.62 7.45-0.70L7.45-0.70L7.45-5L8.35-5L8.35 0L7.60 0L7.55-0.30L7.50-0.30Q7.31-0.11 7.03-0.01Q6.75 0.10 6.45 0.10L6.45 0.10ZM9.65 2L9.65-5L10.40-5L10.45-4.70L10.50-4.70Q10.69-4.89 10.97-5.00Q11.25-5.10 11.55-5.10L11.55-5.10Q12.38-5.10 12.79-4.52Q13.20-3.94 13.20-2.50L13.20-2.50Q13.20-1.06 12.79-0.48Q12.38 0.10 11.55 0.10L11.55 0.10Q11.05 0.10 10.55-0.15L10.55-0.15L10.55 2L9.65 2ZM11.25-0.50Q11.78-0.50 12.04-0.94Q12.30-1.37 12.30-2.50L12.30-2.50Q12.30-3.63 12.04-4.07Q11.78-4.50 11.25-4.50L11.25-4.50Q11.07-4.50 10.87-4.44Q10.67-4.38 10.55-4.30L10.55-4.30L10.55-0.70Q10.67-0.62 10.87-0.56Q11.07-0.50 11.25-0.50L11.25-0.50ZM14.30 0L14.30-5L15.06-5L15.11-4.60L15.16-4.60Q15.64-5 16.40-5L16.40-5L16.90-5L16.90-4.25L15.90-4.25Q15.47-4.25 15.20-4.05L15.20-4.05L15.20 0L14.30 0ZM19.20 0.10Q18.43 0.10 18.04-0.23Q17.65-0.55 17.65-1.40L17.65-1.40L17.65-5L18.55-5L18.55-1.40Q18.55-0.91 18.80-0.70Q19.05-0.50 19.50-0.50L19.50-0.50Q19.68-0.50 19.88-0.56Q20.08-0.62 20.20-0.70L20.20-0.70L20.20-5L21.10-5L21.10 0L20.35 0L20.30-0.30L20.25-0.30Q20.06-0.11 19.78-0.01Q19.50 0.10 19.20 0.10L19.20 0.10ZM22.40 0L22.40-5L23.15-5L23.20-4.70L23.25-4.70Q23.45-4.90 23.69-5Q23.93-5.10 24.25-5.10L24.25-5.10Q25.02-5.10 25.37-4.66L25.37-4.66Q25.60-4.86 25.95-4.98Q26.31-5.10 26.60-5.10L26.60-5.10Q27.27-5.10 27.63-4.77Q28-4.44 28-3.60L28-3.60L28 0L27.10 0L27.10-3.60Q27.10-4.08 26.88-4.29Q26.65-4.50 26.30-4.50L26.30-4.50Q26.09-4.50 25.88-4.44Q25.67-4.38 25.55-4.30L25.55-4.30Q25.65-4 25.65-3.60L25.65-3.60L25.65 0L24.75 0L24.75-3.60Q24.75-4.08 24.52-4.29Q24.30-4.50 23.95-4.50L23.95-4.50Q23.78-4.50 23.60-4.44Q23.42-4.38 23.30-4.30L23.30-4.30L23.30 0L22.40 0Z"/></svg>