<svg xmlns="http://www.w3.org/2000/svg" viewBox="6.840000000000001 48.879999999999995 356.1120000000001 65.52000000000001"><path d="M19.30 100.72Q13.10 100.72 9.97 97.44Q6.84 94.17 6.84 86.18L6.84 86.18Q6.84 81.28 7.99 74.80L7.99 74.80Q9.72 65.01 12.53 59.32Q15.34 53.63 19.04 51.26Q22.75 48.88 27.72 48.88L27.72 48.88Q30.82 48.88 33.70 49.31Q36.58 49.74 38.23 50.32L38.23 50.32L37.66 53.56L28.30 53.56Q23.54 53.56 20.05 58.24Q16.56 62.92 14.47 74.80L14.47 74.80Q13.39 80.92 13.39 85.02L13.39 85.02Q13.39 91.07 15.48 93.56Q17.57 96.04 21.53 96.04L21.53 96.04L30.89 96.04L30.31 99.28Q28.51 99.86 25.45 100.29Q22.39 100.72 19.30 100.72L19.30 100.72ZM46.30 100.72Q41.54 100.72 39.13 99.06Q36.72 97.41 36.72 93.23L36.72 93.23Q36.72 91.58 37.01 89.92L37.01 89.92L41.62 64.00L48.10 64.00L43.49 89.92Q43.34 90.57 43.34 91.72L43.34 91.72Q43.34 94.24 44.86 95.32Q46.37 96.40 49.18 96.40L49.18 96.40Q50.47 96.40 51.98 95.97Q53.50 95.54 54.50 94.96L54.50 94.96L59.98 64.00L66.46 64.00L60.12 100L54.72 100L54.72 97.84L54.36 97.84Q52.78 99.21 50.62 99.96Q48.46 100.72 46.30 100.72L46.30 100.72ZM66.89 114.40L75.82 64.00L81.22 64.00L81.14 66.16L81.50 66.16Q83.16 64.79 85.28 64.04Q87.41 63.28 89.57 63.28L89.57 63.28Q94.25 63.28 96.62 65.76Q99.00 68.25 99.00 74.08L99.00 74.08Q99.00 77.10 98.21 82L98.21 82Q96.34 92.37 92.66 96.54Q88.99 100.72 83.02 100.72L83.02 100.72Q81.00 100.72 79.38 100.25Q77.76 99.78 76.10 98.92L76.10 98.92L73.37 114.40L66.89 114.40ZM81.58 96.40Q85.39 96.40 87.80 93.27Q90.22 90.14 91.73 82L91.73 82Q92.45 77.97 92.45 75.02L92.45 75.02Q92.45 70.91 90.97 69.26Q89.50 67.60 86.69 67.60L86.69 67.60Q85.39 67.60 83.88 68.03Q82.37 68.46 81.36 69.04L81.36 69.04L76.82 94.96Q77.54 95.54 78.91 95.97Q80.28 96.40 81.58 96.40L81.58 96.40ZM102.96 100L109.30 64.00L114.77 64.00L114.62 66.88L114.98 66.88Q118.87 64.00 124.42 64.00L124.42 64.00L128.02 64.00L127.01 69.40L119.81 69.40Q116.78 69.40 114.55 70.84L114.55 70.84L109.44 100L102.96 100ZM138.10 100.72Q133.34 100.72 130.93 99.06Q128.52 97.41 128.52 93.23L128.52 93.23Q128.52 91.58 128.81 89.92L128.81 89.92L133.42 64.00L139.90 64.00L135.29 89.92Q135.14 90.57 135.14 91.72L135.14 91.72Q135.14 94.24 136.66 95.32Q138.17 96.40 140.98 96.40L140.98 96.40Q142.27 96.40 143.78 95.97Q145.30 95.54 146.30 94.96L146.30 94.96L151.78 64.00L158.26 64.00L151.92 100L146.52 100L146.52 97.84L146.16 97.84Q144.58 99.21 142.42 99.96Q140.26 100.72 138.10 100.72L138.10 100.72ZM161.28 100L167.62 64.00L173.02 64.00L172.94 66.16L173.30 66.16Q175.03 64.72 176.87 64.00Q178.70 63.28 181.01 63.28L181.01 63.28Q186.55 63.28 188.57 66.45L188.57 66.45Q190.51 65.01 193.18 64.14Q195.84 63.28 197.93 63.28L197.93 63.28Q201.96 63.28 204.19 64.94Q206.42 66.59 206.42 70.70L206.42 70.70Q206.42 72.42 206.14 74.08L206.14 74.08L201.60 100L195.12 100L199.66 74.08Q199.80 73.43 199.80 72.28L199.80 72.28Q199.80 69.76 198.47 68.68Q197.14 67.60 195.05 67.60L195.05 67.60Q193.54 67.60 191.95 68.03Q190.37 68.46 189.36 69.04L189.36 69.04Q189.50 70.05 189.50 70.84L189.50 70.84Q189.50 72.42 189.22 74.08L189.22 74.08L184.68 100L178.20 100L182.74 74.08Q182.88 73.43 182.88 72.28L182.88 72.28Q182.88 69.76 181.55 68.68Q180.22 67.60 178.13 67.60L178.13 67.60Q176.90 67.60 175.54 68.03Q174.17 68.46 173.16 69.04L173.16 69.04L167.76 100L161.28 100ZM243.00 58.96L236.52 58.96L237.89 51.04L244.37 51.04L243.00 58.96ZM235.80 100L229.32 100L235.66 64.00L242.14 64.00L235.80 100ZM256.54 100.72Q252.50 100.72 250.34 99.03Q248.18 97.34 248.18 92.87L248.18 92.87Q248.18 90.93 248.62 88.48L248.62 88.48L251.93 69.40L247.61 69.40L248.47 64.72L252.79 64.72L254.30 56.08L260.78 56.08L259.27 64.72L269.35 64.72L268.78 67.96Q266.90 68.54 264.38 68.97Q261.86 69.40 259.85 69.40L259.85 69.40L258.41 69.40L255.10 88.48Q254.81 89.92 254.81 91.36L254.81 91.36Q254.81 94.10 255.92 95.25Q257.04 96.40 258.70 96.40L258.70 96.40L265.18 96.40L264.67 99.28Q263.30 99.78 260.75 100.25Q258.19 100.72 256.54 100.72L256.54 100.72ZM279.94 100.72Q275.26 100.72 272.88 98.27Q270.50 95.82 270.50 90.06L270.50 90.06Q270.50 86.75 271.37 82L271.37 82Q272.59 74.87 274.79 70.80Q276.98 66.74 280.30 65.01Q283.61 63.28 288.65 63.28L288.65 63.28Q294.84 63.28 299.81 65.44L299.81 65.44L293.76 100L288.36 100L288.36 97.84L288.00 97.84Q286.42 99.21 284.26 99.96Q282.10 100.72 279.94 100.72L279.94 100.72ZM282.82 96.40Q284.11 96.40 285.62 95.97Q287.14 95.54 288.14 94.96L288.14 94.96L292.97 67.60L287.93 67.60Q284.11 67.60 281.70 70.73Q279.29 73.86 277.85 82L277.85 82Q277.06 86.54 277.06 89.06L277.06 89.06Q277.06 93.09 278.53 94.74Q280.01 96.40 282.82 96.40L282.82 96.40ZM309.96 100L303.48 100L312.34 49.60L318.82 49.60L309.96 100ZM333.72 58.96L327.24 58.96L328.61 51.04L335.09 51.04L333.72 58.96ZM326.52 100L320.04 100L326.38 64.00L332.86 64.00L326.52 100ZM348.70 100.72Q342.72 100.72 339.95 98.27Q337.18 95.82 337.18 89.78L337.18 89.78Q337.18 86.18 337.97 82L337.97 82Q339.19 74.87 341.35 70.80Q343.51 66.74 346.68 65.01Q349.85 63.28 354.53 63.28L354.53 63.28Q356.54 63.28 358.92 63.71Q361.30 64.14 362.95 64.72L362.95 64.72L362.45 67.60L355.25 67.60Q352.37 67.60 350.39 68.86Q348.41 70.12 346.93 73.25Q345.46 76.38 344.45 82L344.45 82Q343.73 85.89 343.73 88.84L343.73 88.84Q343.73 93.09 345.46 94.74Q347.18 96.40 350.86 96.40L350.86 96.40L358.06 96.40L357.55 99.28Q355.75 99.86 353.23 100.29Q350.71 100.72 348.70 100.72L348.70 100.72Z"/></svg>