<svg xmlns="http://www.w3.org/2000/svg" viewBox="0.56 -7.2 53.239999999999995 10"><path d="M1.63 0.87Q1.27 0.87 1.01 0.78Q0.74 0.68 0.56 0.42L0.56 0.42Q0.82-0.83 1.40-2.69Q1.97-4.54 2.29-5.38L2.29-5.38Q2.41-5.70 2.61-6.01Q2.81-6.32 3.07-6.32L3.07-6.32Q3.21-6.32 3.35-6.22L3.35-6.22Q2.75-4.83 2.14-2.88Q1.52-0.93 1.19 0.57L1.19 0.57Q1.43 0.61 1.62 0.61L1.62 0.61Q2.65 0.61 3.59-0.16Q4.53-0.93 5.11-2.14Q5.69-3.34 5.69-4.57L5.69-4.57Q5.69-5.74 5.14-6.33Q4.59-6.93 3.64-6.93L3.64-6.93Q3-6.93 2.48-6.67Q1.95-6.42 1.65-5.97Q1.35-5.52 1.35-4.98L1.35-4.98Q1.35-4.76 1.40-4.61L1.40-4.61Q1.09-4.61 0.95-4.76Q0.80-4.92 0.80-5.17L0.80-5.17Q0.80-5.64 1.23-6.11Q1.66-6.58 2.39-6.89Q3.11-7.20 3.94-7.20L3.94-7.20Q5.21-7.20 5.82-6.45Q6.43-5.70 6.43-4.46L6.43-4.46Q6.43-3.06 5.73-1.83Q5.02-0.60 3.91 0.14Q2.79 0.87 1.63 0.87L1.63 0.87ZM6.91 0.47Q6.58 0.47 6.38 0.26Q6.17 0.04 6.17-0.36L6.17-0.36Q6.17-0.95 6.60-1.68Q7.02-2.41 7.67-2.92Q8.32-3.43 8.94-3.43L8.94-3.43Q9.33-3.43 9.59-3.22Q9.85-3.01 9.85-2.68L9.85-2.68Q9.85-2.45 9.72-2.35Q9.59-2.25 9.36-2.25L9.36-2.25Q9.41-2.43 9.41-2.60L9.41-2.60Q9.41-2.85 9.29-3.00Q9.17-3.16 8.92-3.16L8.92-3.16Q8.48-3.16 8.00-2.67Q7.51-2.18 7.19-1.50Q6.86-0.82 6.86-0.33L6.86-0.33Q6.86 0.06 7.13 0.06L7.13 0.06Q7.53 0.06 8.07-0.58Q8.61-1.21 9.23-2.12L9.23-2.12Q9.36-2.10 9.50-2.04Q9.63-1.97 9.63-1.87L9.63-1.87Q9.63-1.79 9.54-1.61Q9.44-1.44 9.42-1.41L9.42-1.41Q9.25-1.12 9.15-0.90Q9.05-0.67 9.05-0.48L9.05-0.48Q9.05-0.31 9.14-0.18Q9.22-0.04 9.39-0.04L9.39-0.04Q9.68-0.04 10.12-0.46Q10.56-0.87 10.99-1.62L10.99-1.62L11.09-1.52Q10.88-0.99 10.55-0.58Q10.22-0.16 9.84 0.07Q9.46 0.30 9.11 0.30L9.11 0.30Q8.76 0.30 8.58 0.10Q8.39-0.11 8.39-0.40L8.39-0.40Q8.39-0.53 8.42-0.69L8.42-0.69Q7.97-0.09 7.62 0.19Q7.26 0.47 6.91 0.47L6.91 0.47ZM14.02 0.20Q13.68 0.20 13.50 0.03Q13.32-0.15 13.32-0.44L13.32-0.44Q13.32-0.57 13.37-0.74Q13.41-0.92 13.46-1.09L13.46-1.09Q13.52-1.27 13.57-1.47Q13.61-1.67 13.61-1.83L13.61-1.83Q13.61-2.32 13.21-2.32L13.21-2.32Q12.83-2.32 12.42-1.92Q12-1.52 11.68-1.03Q11.35-0.54 10.94 0.15L10.94 0.15Q10.77 0.15 10.63 0.10Q10.49 0.04 10.41-0.07L10.41-0.07Q10.41-0.12 10.54-0.43L10.54-0.43Q10.79-1.07 10.95-1.59Q11.11-2.12 11.12-2.53L11.12-2.53Q11.19-2.61 11.32-2.68Q11.45-2.74 11.58-2.74L11.58-2.74Q11.85-2.74 11.85-2.48L11.85-2.48Q11.85-2.33 11.76-1.96Q11.67-1.58 11.53-1.16L11.53-1.16Q12.01-1.90 12.55-2.41Q13.09-2.92 13.61-2.92L13.61-2.92Q13.98-2.92 14.17-2.66Q14.35-2.39 14.35-2.02L14.35-2.02Q14.35-1.80 14.30-1.60Q14.24-1.40 14.13-1.14L14.13-1.14Q14.04-0.92 13.99-0.76Q13.94-0.60 13.94-0.44L13.94-0.44Q13.94-0.06 14.24-0.06L14.24-0.06Q14.58-0.06 14.95-0.51Q15.31-0.96 15.64-1.62L15.64-1.62L15.75-1.49Q15.03 0.20 14.02 0.20L14.02 0.20ZM16.52 0.56Q16.02 0.56 15.71 0.23Q15.40-0.10 15.40-0.72L15.40-0.72Q15.40-1.37 15.73-1.99Q16.06-2.61 16.58-3.00Q17.09-3.38 17.59-3.38L17.59-3.38Q17.97-3.38 18.14-3.17Q18.30-2.95 18.30-2.64L18.30-2.64Q18.30-2.34 18.16-2.13Q18.03-1.91 17.80-1.91L17.80-1.91Q17.63-1.91 17.51-2.06L17.51-2.06Q17.66-2.13 17.77-2.38Q17.88-2.62 17.88-2.85L17.88-2.85Q17.88-2.98 17.83-3.04Q17.78-3.10 17.66-3.10L17.66-3.10Q17.32-3.10 16.94-2.69Q16.55-2.29 16.29-1.71Q16.02-1.13 16.02-0.65L16.02-0.65Q16.02-0.29 16.19-0.06Q16.36 0.18 16.75 0.18L16.75 0.18Q17.36 0.18 17.96-0.32Q18.55-0.82 18.87-1.63L18.87-1.63L19-1.53Q18.77-0.93 18.37-0.46Q17.97 0.02 17.48 0.29Q17 0.56 16.52 0.56L16.52 0.56ZM20.60-4.32Q20.42-4.32 20.30-4.41Q20.19-4.49 20.19-4.65L20.19-4.65Q20.19-4.85 20.43-5.01Q20.67-5.17 20.92-5.17L20.92-5.17Q21.25-5.17 21.25-4.86L21.25-4.86Q21.25-4.67 21.05-4.50Q20.84-4.32 20.60-4.32L20.60-4.32ZM19.40 0.26Q19.03 0.26 18.83 0.03Q18.63-0.21 18.63-0.58L18.63-0.58Q18.63-0.97 18.86-1.66Q19.08-2.35 19.41-2.87Q19.75-3.39 20.07-3.39L20.07-3.39Q20.16-3.39 20.23-3.33Q20.29-3.27 20.29-3.17L20.29-3.17Q20.29-3.03 19.97-2.50L19.97-2.50Q19.64-1.95 19.45-1.52Q19.25-1.08 19.25-0.69L19.25-0.69Q19.25-0.34 19.36-0.21Q19.48-0.09 19.74-0.09L19.74-0.09Q20.52-0.09 21.28-1.62L21.28-1.62L21.37-1.52Q21.09-0.68 20.54-0.21Q20 0.26 19.40 0.26L19.40 0.26ZM24.32 0.20Q23.98 0.20 23.80 0.03Q23.62-0.15 23.62-0.44L23.62-0.44Q23.62-0.57 23.66-0.74Q23.71-0.92 23.76-1.09L23.76-1.09Q23.82-1.27 23.86-1.47Q23.91-1.67 23.91-1.83L23.91-1.83Q23.91-2.32 23.51-2.32L23.51-2.32Q23.13-2.32 22.71-1.92Q22.30-1.52 21.98-1.03Q21.65-0.54 21.24 0.15L21.24 0.15Q21.07 0.15 20.93 0.10Q20.79 0.04 20.71-0.07L20.71-0.07Q20.71-0.12 20.84-0.43L20.84-0.43Q21.09-1.07 21.25-1.59Q21.41-2.12 21.42-2.53L21.42-2.53Q21.49-2.61 21.62-2.68Q21.75-2.74 21.88-2.74L21.88-2.74Q22.15-2.74 22.15-2.48L22.15-2.48Q22.15-2.33 22.06-1.96Q21.97-1.58 21.83-1.16L21.83-1.16Q22.31-1.90 22.85-2.41Q23.39-2.92 23.91-2.92L23.91-2.92Q24.28-2.92 24.46-2.66Q24.65-2.39 24.65-2.02L24.65-2.02Q24.65-1.80 24.59-1.60Q24.54-1.40 24.43-1.14L24.43-1.14Q24.34-0.92 24.29-0.76Q24.24-0.60 24.24-0.44L24.24-0.44Q24.24-0.06 24.54-0.06L24.54-0.06Q24.88-0.06 25.25-0.51Q25.61-0.96 25.94-1.62L25.94-1.62L26.05-1.49Q25.33 0.20 24.32 0.20L24.32 0.20ZM26.13 2.80Q25.89 2.80 25.72 2.66Q25.55 2.51 25.55 2.22L25.55 2.22Q25.55 1.85 25.84 1.54Q26.13 1.22 26.50 0.99Q26.88 0.77 27.50 0.46L27.50 0.46Q27.78-0.26 28.01-1.19L28.01-1.19Q27.12 0.09 26.38 0.09L26.38 0.09Q26.03 0.09 25.83-0.18Q25.63-0.44 25.63-0.88L25.63-0.88Q25.63-1.54 26.05-2.14Q26.48-2.74 27.11-3.10Q27.73-3.47 28.28-3.47L28.28-3.47Q28.55-3.47 28.68-3.38Q28.82-3.29 28.82-3.15L28.82-3.15Q28.82-3.07 28.77-3.02Q28.73-2.96 28.70-2.95L28.70-2.95Q28.60-3.10 28.30-3.10L28.30-3.10Q27.80-3.10 27.34-2.72Q26.87-2.34 26.58-1.80Q26.29-1.26 26.29-0.83L26.29-0.83Q26.29-0.59 26.39-0.47Q26.48-0.34 26.64-0.34L26.64-0.34Q26.91-0.34 27.32-0.71Q27.72-1.08 28.12-1.66L28.12-1.66L28.24-2.19Q28.28-2.38 28.41-2.54Q28.53-2.70 28.75-2.70L28.75-2.70Q28.84-2.70 28.96-2.67L28.96-2.67Q28.96-2.40 28.74-1.58Q28.52-0.77 28.19 0.07L28.19 0.07Q28.71-0.18 29.16-0.63Q29.60-1.07 29.82-1.62L29.82-1.62L29.95-1.52Q29.74-0.91 29.20-0.41Q28.65 0.09 28.08 0.36L28.08 0.36Q27.61 1.50 27.13 2.15Q26.65 2.80 26.13 2.80L26.13 2.80ZM26.10 2.48Q26.33 2.48 26.68 2.04Q27.02 1.61 27.39 0.73L27.39 0.73Q26.66 1.10 26.26 1.42Q25.86 1.74 25.86 2.13L25.86 2.13Q25.86 2.29 25.93 2.39Q25.99 2.48 26.10 2.48L26.10 2.48ZM34.27 0.87Q33.71 0.87 33.23 0.67Q32.75 0.47 32.47 0.07Q32.18-0.34 32.18-0.92L32.18-0.92Q32.18-1.63 32.57-1.95Q32.96-2.26 33.46-2.26L33.46-2.26Q33.19-1.97 33.05-1.62Q32.91-1.27 32.91-0.92L32.91-0.92Q32.91-0.32 33.30 0.08Q33.70 0.48 34.44 0.48L34.44 0.48Q34.91 0.48 35.34 0.31Q35.76 0.14 36.03-0.19Q36.30-0.52 36.30-0.98L36.30-0.98Q36.30-1.38 36.10-1.69Q35.90-1.99 35.60-2.21Q35.30-2.42 34.80-2.72L34.80-2.72Q34.29-3.02 33.98-3.25Q33.68-3.47 33.47-3.79Q33.26-4.11 33.26-4.53L33.26-4.53Q33.26-5.11 33.62-5.74Q33.98-6.36 34.64-6.78Q35.29-7.20 36.11-7.20L36.11-7.20Q36.66-7.20 36.91-6.93Q37.16-6.66 37.16-6.20L37.16-6.20Q37.16-5.70 36.92-5.08Q36.68-4.46 36.39-4L36.39-4Q36.06-4.07 36.06-4.43L36.06-4.43Q36.06-4.62 36.14-4.86Q36.21-5.10 36.35-5.46L36.35-5.46Q36.50-5.85 36.58-6.09Q36.65-6.34 36.65-6.53L36.65-6.53Q36.65-6.74 36.53-6.85Q36.40-6.96 36.09-6.96L36.09-6.96Q35.50-6.96 35.00-6.59Q34.49-6.23 34.19-5.71Q33.89-5.19 33.89-4.76L33.89-4.76Q33.89-4.44 34.07-4.19Q34.24-3.94 34.50-3.75Q34.76-3.57 35.21-3.32L35.21-3.32Q35.75-3.01 36.08-2.77Q36.41-2.52 36.65-2.15Q36.88-1.77 36.88-1.26L36.88-1.26Q36.88-0.60 36.50-0.12Q36.11 0.36 35.51 0.61Q34.91 0.87 34.27 0.87L34.27 0.87ZM38.67 0.56Q38.17 0.56 37.86 0.23Q37.55-0.10 37.55-0.72L37.55-0.72Q37.55-1.37 37.88-1.99Q38.21-2.61 38.73-3.00Q39.24-3.38 39.74-3.38L39.74-3.38Q40.12-3.38 40.29-3.17Q40.45-2.95 40.45-2.64L40.45-2.64Q40.45-2.34 40.31-2.13Q40.18-1.91 39.95-1.91L39.95-1.91Q39.78-1.91 39.66-2.06L39.66-2.06Q39.81-2.13 39.92-2.38Q40.03-2.62 40.03-2.85L40.03-2.85Q40.03-2.98 39.98-3.04Q39.93-3.10 39.81-3.10L39.81-3.10Q39.47-3.10 39.09-2.69Q38.70-2.29 38.44-1.71Q38.17-1.13 38.17-0.65L38.17-0.65Q38.17-0.29 38.34-0.06Q38.51 0.18 38.90 0.18L38.90 0.18Q39.51 0.18 40.11-0.32Q40.70-0.82 41.02-1.63L41.02-1.63L41.15-1.53Q40.92-0.93 40.52-0.46Q40.12 0.02 39.64 0.29Q39.15 0.56 38.67 0.56L38.67 0.56ZM42.56 0.26Q42.22 0.26 42.02 0.08Q41.83-0.10 41.83-0.39L41.83-0.39Q41.83-0.73 42.12-1.37L42.12-1.37Q42.25-1.70 42.31-1.90Q42.38-2.09 42.38-2.26L42.38-2.26Q42.38-2.51 42.27-2.66Q42.15-2.80 42.01-2.90Q41.87-2.99 41.82-3.02L41.82-3.02Q41.60-2.46 41.35-1.93Q41.10-1.39 40.93-1.10L40.93-1.10L40.84-1.27Q41.32-2.20 41.65-3.17L41.65-3.17Q41.55-3.27 41.55-3.41L41.55-3.41Q41.55-3.59 41.63-3.75Q41.70-3.91 41.80-4Q41.91-4.09 41.97-4.09L41.97-4.09Q42.11-4.09 42.11-3.85L42.11-3.85Q42.11-3.81 42.06-3.67Q42.01-3.53 42-3.48L42-3.48Q42-3.38 42.09-3.29Q42.17-3.21 42.36-3.08L42.36-3.08Q42.67-2.86 42.84-2.65Q43.02-2.43 43.02-2.09L43.02-2.09Q43.02-1.87 42.95-1.66Q42.88-1.44 42.74-1.09L42.74-1.09Q42.52-0.61 42.52-0.40L42.52-0.40Q42.52-0.10 42.82-0.10L42.82-0.10Q43.12-0.10 43.46-0.34Q43.81-0.58 44.10-0.94Q44.39-1.29 44.52-1.59L44.52-1.59L44.65-1.49Q44.34-0.80 43.75-0.27Q43.16 0.26 42.56 0.26L42.56 0.26ZM46.23-4.32Q46.05-4.32 45.93-4.41Q45.82-4.49 45.82-4.65L45.82-4.65Q45.82-4.85 46.06-5.01Q46.30-5.17 46.55-5.17L46.55-5.17Q46.88-5.17 46.88-4.86L46.88-4.86Q46.88-4.67 46.67-4.50Q46.47-4.32 46.23-4.32L46.23-4.32ZM45.03 0.26Q44.66 0.26 44.46 0.03Q44.26-0.21 44.26-0.58L44.26-0.58Q44.26-0.97 44.48-1.66Q44.71-2.35 45.04-2.87Q45.38-3.39 45.70-3.39L45.70-3.39Q45.79-3.39 45.85-3.33Q45.92-3.27 45.92-3.17L45.92-3.17Q45.92-3.03 45.60-2.50L45.60-2.50Q45.27-1.95 45.07-1.52Q44.88-1.08 44.88-0.69L44.88-0.69Q44.88-0.34 44.99-0.21Q45.11-0.09 45.37-0.09L45.37-0.09Q46.15-0.09 46.91-1.62L46.91-1.62L47.00-1.52Q46.72-0.68 46.17-0.21Q45.63 0.26 45.03 0.26L45.03 0.26ZM46.09 2.80Q46.01 2.80 45.94 2.72Q45.87 2.64 45.82 2.54Q45.77 2.44 45.78 2.42L45.78 2.42Q45.92 1.94 46.12 1.36L46.12 1.36Q46.34 0.72 46.49 0.19Q46.64-0.34 46.80-1.25Q46.97-2.15 47.14-3.56L47.14-3.56Q47.15-3.66 47.19-3.70Q47.22-3.73 47.33-3.73L47.33-3.73Q47.57-3.73 47.69-3.60Q47.81-3.46 47.81-3.27L47.81-3.27Q47.81-2.99 47.58-1.92L47.58-1.92Q47.89-2.52 48.34-2.96Q48.78-3.39 49.31-3.39L49.31-3.39Q49.75-3.39 50.03-3.08Q50.32-2.76 50.32-2.25L50.32-2.25Q50.32-1.72 50.01-1.13Q49.70-0.53 49.16-0.14Q48.61 0.26 47.96 0.26L47.96 0.26Q47.71 0.26 47.55 0.21Q47.38 0.15 47.38 0.08L47.38 0.08Q47.38 0.05 47.45 0.04Q47.53 0.03 47.63 0.03L47.63 0.03Q48.15 0.03 48.62-0.30Q49.09-0.63 49.38-1.14Q49.67-1.65 49.67-2.16L49.67-2.16Q49.67-2.50 49.52-2.71Q49.38-2.93 49.10-2.93L49.10-2.93Q48.78-2.93 48.45-2.67Q48.11-2.40 47.84-2.02Q47.58-1.65 47.44-1.32L47.44-1.32Q47.07 0.26 46.73 1.43Q46.38 2.59 46.21 2.75L46.21 2.75Q46.16 2.80 46.09 2.80L46.09 2.80ZM51.48 0.46Q50.59 0.46 50.59-0.53L50.59-0.53Q50.59-0.96 50.74-1.59Q50.90-2.23 51.17-2.94L51.17-2.94Q50.93-2.98 50.81-3.02L50.81-3.02L50.81-3.20Q51.17-3.16 51.25-3.16L51.25-3.16Q51.69-4.30 52.19-5.13Q52.70-5.97 52.99-5.97L52.99-5.97Q53.07-5.97 53.13-5.91Q53.20-5.85 53.20-5.75L53.20-5.75Q53.20-5.62 53.07-5.37Q52.95-5.12 52.65-4.60L52.65-4.60Q52.60-4.50 52.34-4.04Q52.08-3.59 51.87-3.13L51.87-3.13L52.24-3.13Q53.07-3.13 53.67-3.19L53.67-3.19L53.67-3.01Q52.58-2.89 51.91-2.89L51.91-2.89L51.76-2.89Q51.21-1.63 51.21-0.71L51.21-0.71Q51.21-0.28 51.34-0.10Q51.47 0.09 51.77 0.09L51.77 0.09Q52.28 0.09 52.78-0.36Q53.28-0.82 53.67-1.62L53.67-1.62L53.80-1.52Q53.43-0.65 52.80-0.10Q52.17 0.46 51.48 0.46L51.48 0.46Z"/></svg>