<svg xmlns="http://www.w3.org/2000/svg" viewBox="3.4560000000000004 43.839999999999996 541.4399999999999 69.40800000000002"><path d="M16.70 95.68L27.86 95.68Q35.50 95.68 39.10 90.93L39.10 90.93Q43.06 85.89 43.06 74.51L43.06 74.51Q43.06 63.28 39.10 57.81L39.10 57.81Q35.35 52.48 27.14 52.48L27.14 52.48L16.70 52.48L16.70 95.68ZM3.46 48.16L27.65 48.16Q38.38 48.16 44.35 54.21L44.35 54.21Q47.74 57.66 49.54 62.70Q51.34 67.74 51.34 73.50L51.34 73.50Q51.34 79.62 49.46 84.88Q47.59 90.14 44.14 93.74L44.14 93.74Q41.11 96.98 36.94 98.49Q32.76 100 27.00 100L27.00 100L3.46 100L3.46 96.90L9.50 95.39L9.50 52.77L3.46 51.26L3.46 48.16ZM93.74 80.20L93.74 80.20Q93.74 84.95 92.34 89.13Q90.94 93.30 88.42 96.04L88.42 96.04Q84.17 100.72 75.89 100.72L75.89 100.72Q67.82 100.72 63.58 96.18L63.58 96.18Q61.13 93.52 59.80 89.60Q58.46 85.67 58.46 81.06L58.46 81.06Q58.46 76.31 59.83 72.06Q61.20 67.82 63.79 65.08L63.79 65.08Q66.10 62.63 69.12 61.52Q72.14 60.40 76.18 60.40L76.18 60.40Q80.14 60.40 83.30 61.52Q86.47 62.63 88.63 64.94L88.63 64.94Q91.15 67.60 92.45 71.60Q93.74 75.59 93.74 80.20ZM66.17 80.27L66.17 80.27Q66.17 88.91 68.76 93.16L68.76 93.16Q69.98 95.03 71.68 96.00Q73.37 96.98 76.10 96.98L76.10 96.98Q81.07 96.98 83.52 93.59L83.52 93.59Q84.82 91.72 85.43 88.41Q86.04 85.10 86.04 80.78L86.04 80.78Q86.04 72.21 83.45 67.96L83.45 67.96Q82.22 66.09 80.50 65.12Q78.77 64.14 76.03 64.14L76.03 64.14Q70.99 64.14 68.76 67.46L68.76 67.46Q66.17 71.49 66.17 80.27ZM105.19 95.68L105.19 65.44L99.65 64.07L99.65 61.12L110.02 61.12L111.60 68.32L111.89 68.32Q113.98 64.65 117.47 62.52Q120.96 60.40 124.92 60.40L124.92 60.40Q127.94 60.40 130.21 61.52Q132.48 62.63 133.56 64.29L133.56 64.29Q134.71 66.09 135.43 69.04L135.43 69.04Q137.74 64.94 141.41 62.67Q145.08 60.40 149.26 60.40L149.26 60.40Q152.14 60.40 154.44 61.52Q156.74 62.63 157.97 64.58L157.97 64.58Q158.62 65.58 159.05 67.02Q159.48 68.46 159.77 70.59Q160.06 72.71 160.16 75.59Q160.27 78.47 160.27 82.36L160.27 82.36L160.27 95.68L165.82 97.05L165.82 100L148.46 100L148.46 97.05L153.29 95.68L153.29 79.62Q153.29 75.02 153.04 72.68Q152.78 70.34 152.14 69.04L152.14 69.04Q150.34 65.51 146.09 65.51L146.09 65.51Q144.22 65.51 142.52 66.23Q140.83 66.95 139.46 68.18L139.46 68.18Q137.88 69.62 137.12 71.52Q136.37 73.43 136.22 76.46L136.22 76.46L136.22 95.68L141.05 97.05L141.05 100L124.42 100L124.42 97.05L129.24 95.68L129.24 79.62Q129.24 75.02 128.99 72.68Q128.74 70.34 128.09 69.04L128.09 69.04Q126.29 65.51 122.04 65.51L122.04 65.51Q120.17 65.51 118.48 66.23Q116.78 66.95 115.42 68.18L115.42 68.18Q113.83 69.62 113.08 71.52Q112.32 73.43 112.18 76.46L112.18 76.46L112.18 95.68L117.00 97.05L117.00 100L99.65 100L99.65 97.05L105.19 95.68ZM175.39 65.44L169.85 64.07L169.85 61.12L182.38 61.12L182.38 95.68L187.92 97.05L187.92 100L169.85 100L169.85 97.05L175.39 95.68L175.39 65.44ZM174.38 49.53L174.38 49.53Q174.38 47.44 175.57 46.22Q176.76 44.99 178.85 44.99L178.85 44.99Q180.94 44.99 182.16 46.22Q183.38 47.44 183.38 49.53L183.38 49.53Q183.38 51.62 182.16 52.80Q180.94 53.99 178.85 53.99L178.85 53.99Q176.76 53.99 175.57 52.80Q174.38 51.62 174.38 49.53ZM197.86 95.68L197.86 65.44L192.31 64.07L192.31 61.12L202.68 61.12L204.26 68.32L204.55 68.32Q206.71 64.65 210.35 62.52Q213.98 60.40 218.23 60.40L218.23 60.40Q221.11 60.40 223.42 61.41Q225.72 62.42 227.09 64.29L227.09 64.29Q228.53 66.30 229.14 69.94Q229.75 73.58 229.75 79.77L229.75 79.77L229.75 95.68L235.30 97.05L235.30 100L217.94 100L217.94 97.05L222.77 95.68L222.77 79.62Q222.77 75.02 222.52 72.68Q222.26 70.34 221.62 69.04L221.62 69.04Q219.82 65.51 215.28 65.51L215.28 65.51Q213.26 65.51 211.39 66.23Q209.52 66.95 208.08 68.18L208.08 68.18Q206.50 69.62 205.74 71.52Q204.98 73.43 204.84 76.46L204.84 76.46L204.84 95.68L209.66 97.05L209.66 100L192.31 100L192.31 97.05L197.86 95.68ZM272.66 80.99L247.54 80.99Q247.54 86.25 248.98 89.70L248.98 89.70Q250.42 93.09 253.04 94.49Q255.67 95.90 258.84 95.90L258.84 95.90Q262.30 95.90 265.07 94.49Q267.84 93.09 270.07 90.64L270.07 90.64L272.38 92.37Q271.08 94.10 269.60 95.61Q268.13 97.12 266.26 98.27Q264.38 99.42 262.08 100.07Q259.78 100.72 256.97 100.72L256.97 100.72Q252.00 100.72 248.18 98.60Q244.37 96.47 242.35 92.37L242.35 92.37Q241.27 90.14 240.77 87.44Q240.26 84.74 240.26 81.57L240.26 81.57Q240.26 71.42 244.87 65.91Q249.48 60.40 257.54 60.40L257.54 60.40Q264.96 60.40 268.92 64.97Q272.88 69.54 272.88 77.61L272.88 77.61Q272.88 78.33 272.84 78.94Q272.81 79.55 272.66 80.99L272.66 80.99ZM257.11 64.29L257.11 64.29Q248.47 64.29 247.61 77.46L247.61 77.46L265.61 77.46L265.61 75.09Q265.61 69.90 263.41 67.10Q261.22 64.29 257.11 64.29ZM318.60 65.30L318.60 65.30Q317.95 64.86 317.16 64.86L317.16 64.86Q315.79 64.86 314.28 66.56Q312.77 68.25 311.62 70.84L311.62 70.84Q310.61 73.29 310.03 76.20Q309.46 79.12 309.46 82.22L309.46 82.22L309.46 95.68L317.23 97.05L317.23 100L296.93 100L296.93 97.05L302.47 95.68L302.47 65.44L296.93 64.07L296.93 61.12L307.30 61.12L308.88 70.62L309.17 70.62Q310.82 65.73 313.60 63.06Q316.37 60.40 319.82 60.40L319.82 60.40Q322.63 60.40 324.50 62.16Q326.38 63.93 326.38 66.88L326.38 66.88Q326.38 69.04 325.26 70.30Q324.14 71.56 322.27 71.56L322.27 71.56Q320.40 71.56 319.32 70.37Q318.24 69.18 318.24 67.24L318.24 67.24Q318.24 66.81 318.31 66.45Q318.38 66.09 318.60 65.30ZM362.74 80.99L337.61 80.99Q337.61 86.25 339.05 89.70L339.05 89.70Q340.49 93.09 343.12 94.49Q345.74 95.90 348.91 95.90L348.91 95.90Q352.37 95.90 355.14 94.49Q357.91 93.09 360.14 90.64L360.14 90.64L362.45 92.37Q361.15 94.10 359.68 95.61Q358.20 97.12 356.33 98.27Q354.46 99.42 352.15 100.07Q349.85 100.72 347.04 100.72L347.04 100.72Q342.07 100.72 338.26 98.60Q334.44 96.47 332.42 92.37L332.42 92.37Q331.34 90.14 330.84 87.44Q330.34 84.74 330.34 81.57L330.34 81.57Q330.34 71.42 334.94 65.91Q339.55 60.40 347.62 60.40L347.62 60.40Q355.03 60.40 358.99 64.97Q362.95 69.54 362.95 77.61L362.95 77.61Q362.95 78.33 362.92 78.94Q362.88 79.55 362.74 80.99L362.74 80.99ZM347.18 64.29L347.18 64.29Q338.54 64.29 337.68 77.46L337.68 77.46L355.68 77.46L355.68 75.09Q355.68 69.90 353.48 67.10Q351.29 64.29 347.18 64.29ZM402.62 100.72L402.62 100.72Q402.62 103.46 401.44 105.76Q400.25 108.06 397.98 109.72Q395.71 111.38 392.44 112.31Q389.16 113.25 385.06 113.25L385.06 113.25Q376.78 113.25 372.53 110.91Q368.28 108.57 368.28 104.25L368.28 104.25Q368.28 100.86 370.30 99.06Q372.31 97.26 375.84 96.69L375.84 96.69L375.84 96.40Q371.09 95.03 371.09 90.78L371.09 90.78Q371.09 88.55 372.71 86.64Q374.33 84.74 377.78 83.51L377.78 83.51Q374.18 82.22 372.28 79.48Q370.37 76.74 370.37 72.78L370.37 72.78Q370.37 69.90 371.41 67.64Q372.46 65.37 374.36 63.75Q376.27 62.13 378.97 61.26Q381.67 60.40 385.06 60.40L385.06 60.40Q391.75 60.40 395.64 63.71L395.64 63.71L398.09 62.85L404.71 59.68L405.94 59.68L405.94 66.02L404.71 66.02L399.67 65.44L397.22 65.44Q399.31 68.32 399.31 72.35L399.31 72.35Q399.31 78.04 395.42 81.32Q391.54 84.59 384.55 84.59L384.55 84.59Q383.76 84.59 383.08 84.56Q382.39 84.52 381.67 84.45L381.67 84.45Q375.98 85.31 375.98 88.70L375.98 88.70Q375.98 90.35 377.28 90.96Q378.58 91.58 382.32 91.58L382.32 91.58L390.67 91.58Q396.58 91.58 399.60 93.77Q402.62 95.97 402.62 100.72ZM387.50 97.12L382.82 97.12Q378 97.12 375.84 98.78Q373.68 100.43 373.68 103.10L373.68 103.10Q373.68 109.65 384.91 109.65L384.91 109.65Q391.03 109.65 394.24 107.81Q397.44 105.98 397.44 102.30L397.44 102.30Q397.44 99.42 395.24 98.27Q393.05 97.12 387.50 97.12L387.50 97.12ZM376.70 72.50L376.70 72.50Q376.70 76.82 378.65 79.05Q380.59 81.28 384.84 81.28L384.84 81.28Q389.09 81.28 391.03 79.05Q392.98 76.82 392.98 72.50L392.98 72.50Q392.98 68.18 391.03 65.94Q389.09 63.71 384.84 63.71L384.84 63.71Q380.59 63.71 378.65 65.94Q376.70 68.18 376.70 72.50ZM420.34 61.12L420.34 81.50Q420.34 83.80 420.41 85.53Q420.48 87.26 420.59 88.48Q420.70 89.70 420.91 90.57Q421.13 91.43 421.49 92.08L421.49 92.08Q423.14 95.61 427.54 95.61L427.54 95.61Q429.48 95.61 431.28 94.89Q433.08 94.17 434.45 92.94L434.45 92.94Q436.03 91.50 436.79 89.60Q437.54 87.69 437.69 84.66L437.69 84.66L437.69 65.44L431.42 64.07L431.42 61.12L444.67 61.12L444.67 95.68L450.22 97.05L450.22 100L439.06 100.72L438.26 92.80L437.98 92.80Q435.89 96.47 432.29 98.60Q428.69 100.72 424.58 100.72L424.58 100.72Q421.85 100.72 419.58 99.71Q417.31 98.70 416.02 96.83L416.02 96.83Q414.58 94.82 413.96 91.18Q413.35 87.54 413.35 81.35L413.35 81.35L413.35 65.44L408.53 64.07L408.53 61.12L420.34 61.12ZM459.58 95.68L459.58 48.16L454.03 46.79L454.03 43.84L466.56 43.84L466.56 95.68L472.10 97.05L472.10 100L454.03 100L454.03 97.05L459.58 95.68ZM476.93 91.58L476.93 91.58Q476.93 88.77 478.19 86.61Q479.45 84.45 482.18 82.76Q484.92 81.06 489.24 79.84Q493.56 78.62 499.61 77.68L499.61 77.68Q499.25 73.43 498.78 71.06Q498.31 68.68 497.52 67.24L497.52 67.24Q496.51 65.37 494.71 64.47Q492.91 63.57 490.82 63.57L490.82 63.57Q488.81 63.57 487.19 64.29Q485.57 65.01 484.99 66.23L484.99 66.23Q486 67.02 486.47 68.14Q486.94 69.26 486.94 70.26L486.94 70.26Q486.94 72.06 485.75 73.11Q484.56 74.15 482.83 74.15L482.83 74.15Q481.10 74.15 479.99 73Q478.87 71.85 478.87 69.76L478.87 69.76Q478.87 67.53 480.10 65.76Q481.32 64.00 483.30 62.81Q485.28 61.62 487.76 61.01Q490.25 60.40 492.70 60.40L492.70 60.40Q498.82 60.40 502.34 63.93L502.34 63.93Q506.81 68.39 506.81 79.77L506.81 79.77L506.81 90.21Q506.81 93.81 507.28 95.14Q507.74 96.47 509.33 96.47L509.33 96.47L512.57 96.47L512.57 98.63Q507.38 100.72 504.50 100.72L504.50 100.72Q503.42 100.72 502.70 100.36Q501.98 100 501.55 99.10Q501.12 98.20 500.94 96.69Q500.76 95.18 500.76 92.87L500.76 92.87L500.47 92.87Q498.24 96.54 494.57 98.63Q490.90 100.72 486.65 100.72L486.65 100.72Q482.11 100.72 479.52 98.31Q476.93 95.90 476.93 91.58ZM489.67 96.54L489.67 96.54Q491.69 96.54 493.88 95.50Q496.08 94.46 497.59 92.58L497.59 92.58Q499.82 89.85 499.82 84.52L499.82 84.52Q499.82 83.30 499.75 82.11Q499.68 80.92 499.54 79.84L499.54 79.84Q495.14 80.70 492.23 81.64Q489.31 82.58 487.55 83.76Q485.78 84.95 485.06 86.50Q484.34 88.05 484.34 90.06L484.34 90.06Q484.34 93.16 485.75 94.85Q487.15 96.54 489.67 96.54ZM537.12 65.30L537.12 65.30Q536.47 64.86 535.68 64.86L535.68 64.86Q534.31 64.86 532.80 66.56Q531.29 68.25 530.14 70.84L530.14 70.84Q529.13 73.29 528.55 76.20Q527.98 79.12 527.98 82.22L527.98 82.22L527.98 95.68L535.75 97.05L535.75 100L515.45 100L515.45 97.05L520.99 95.68L520.99 65.44L515.45 64.07L515.45 61.12L525.82 61.12L527.40 70.62L527.69 70.62Q529.34 65.73 532.12 63.06Q534.89 60.40 538.34 60.40L538.34 60.40Q541.15 60.40 543.02 62.16Q544.90 63.93 544.90 66.88L544.90 66.88Q544.90 69.04 543.78 70.30Q542.66 71.56 540.79 71.56L540.79 71.56Q538.92 71.56 537.84 70.37Q536.76 69.18 536.76 67.24L536.76 67.24Q536.76 66.81 536.83 66.45Q536.90 66.09 537.12 65.30Z"/></svg>