<svg xmlns="http://www.w3.org/2000/svg" viewBox="2.9520000000000004 43.839999999999996 451.87200000000007 56.88"><path d="M18.36 94.60L27.36 94.60Q31.25 94.60 33.98 93.41Q36.72 92.22 38.59 89.85L38.59 89.85Q40.54 87.40 41.54 83.62Q42.55 79.84 42.55 74.51L42.55 74.51Q42.55 64.29 38.59 58.89L38.59 58.89Q36.65 56.22 33.73 54.89Q30.82 53.56 26.64 53.56L26.64 53.56L18.36 53.56L18.36 94.60ZM2.95 48.16L29.30 48.16Q40.03 48.16 46.01 54.21L46.01 54.21Q49.39 57.66 51.19 62.70Q52.99 67.74 52.99 73.50L52.99 73.50Q52.99 79.62 51.12 84.88Q49.25 90.14 45.79 93.74L45.79 93.74Q42.77 96.98 38.59 98.49Q34.42 100 28.66 100L28.66 100L2.95 100L2.95 95.82L9.00 94.31L9.00 53.85L2.95 52.34L2.95 48.16ZM96.19 80.56L96.19 80.56Q96.19 85.17 94.86 89.24Q93.53 93.30 91.01 96.04L91.01 96.04Q88.63 98.56 85.32 99.64Q82.01 100.72 77.47 100.72L77.47 100.72Q72.94 100.72 69.62 99.64Q66.31 98.56 63.94 96.04L63.94 96.04Q61.42 93.30 60.08 89.24Q58.75 85.17 58.75 80.56L58.75 80.56Q58.75 75.95 60.08 71.88Q61.42 67.82 63.94 65.08L63.94 65.08Q66.31 62.56 69.62 61.48Q72.94 60.40 77.47 60.40L77.47 60.40Q82.01 60.40 85.32 61.48Q88.63 62.56 91.01 65.08L91.01 65.08Q93.53 67.82 94.86 71.88Q96.19 75.95 96.19 80.56ZM70.92 93.02L70.92 93.02Q72.86 95.90 77.47 95.90L77.47 95.90Q82.08 95.90 84.02 93.02L84.02 93.02Q86.33 89.49 86.33 80.56L86.33 80.56Q86.33 71.63 84.02 68.10L84.02 68.10Q82.08 65.22 77.47 65.22L77.47 65.22Q72.86 65.22 70.92 68.10L70.92 68.10Q68.62 71.63 68.62 80.56L68.62 80.56Q68.62 89.49 70.92 93.02ZM106.63 94.60L106.63 66.52L101.09 65.15L101.09 61.12L113.62 61.12L115.20 68.32L115.49 68.32Q117.58 64.65 121.07 62.52Q124.56 60.40 128.52 60.40L128.52 60.40Q131.54 60.40 133.81 61.52Q136.08 62.63 137.16 64.29L137.16 64.29Q138.31 66.09 139.03 69.04L139.03 69.04Q141.34 64.94 145.01 62.67Q148.68 60.40 152.86 60.40L152.86 60.40Q155.74 60.40 158.04 61.52Q160.34 62.63 161.57 64.58L161.57 64.58Q162.22 65.58 162.65 67.02Q163.08 68.46 163.37 70.59Q163.66 72.71 163.76 75.59Q163.87 78.47 163.87 82.36L163.87 82.36L163.87 94.60L169.42 95.97L169.42 100L149.90 100L149.90 95.97L154.73 94.60L154.73 80.70Q154.73 78.40 154.66 76.71Q154.58 75.02 154.44 73.76Q154.30 72.50 154.08 71.63Q153.86 70.77 153.58 70.12L153.58 70.12Q152.86 68.39 151.67 67.71Q150.48 67.02 149.18 67.02L149.18 67.02Q147.31 67.02 145.87 67.53Q144.43 68.03 143.06 69.26L143.06 69.26Q141.48 70.70 140.72 72.60Q139.97 74.51 139.82 77.54L139.82 77.54L139.82 94.60L144.65 95.97L144.65 100L125.86 100L125.86 95.97L130.68 94.60L130.68 80.70Q130.68 78.40 130.61 76.71Q130.54 75.02 130.39 73.76Q130.25 72.50 130.03 71.63Q129.82 70.77 129.53 70.12L129.53 70.12Q128.81 68.39 127.62 67.71Q126.43 67.02 125.14 67.02L125.14 67.02Q123.26 67.02 121.82 67.53Q120.38 68.03 119.02 69.26L119.02 69.26Q117.43 70.70 116.68 72.60Q115.92 74.51 115.78 77.54L115.78 77.54L115.78 94.60L120.60 95.97L120.60 100L101.09 100L101.09 95.97L106.63 94.60ZM178.27 66.52L172.73 65.15L172.73 61.12L187.42 61.12L187.42 94.60L192.96 95.97L192.96 100L172.73 100L172.73 95.97L178.27 94.60L178.27 66.52ZM177.48 50.18L177.48 50.18Q177.48 47.87 178.88 46.43Q180.29 44.99 182.81 44.99L182.81 44.99Q185.33 44.99 186.77 46.43Q188.21 47.87 188.21 50.18L188.21 50.18Q188.21 52.48 186.80 53.88Q185.40 55.29 182.81 55.29L182.81 55.29Q180.22 55.29 178.85 53.88Q177.48 52.48 177.48 50.18ZM202.10 94.60L202.10 66.52L196.56 65.15L196.56 61.12L209.09 61.12L210.67 68.32L210.96 68.32Q213.12 64.65 216.76 62.52Q220.39 60.40 224.64 60.40L224.64 60.40Q227.52 60.40 229.82 61.41Q232.13 62.42 233.50 64.29L233.50 64.29Q234.94 66.30 235.55 69.94Q236.16 73.58 236.16 79.77L236.16 79.77L236.16 94.60L241.70 95.97L241.70 100L222.19 100L222.19 95.97L227.02 94.60L227.02 80.70Q227.02 76.38 226.76 73.97Q226.51 71.56 225.86 70.12L225.86 70.12Q225.07 68.25 223.70 67.53Q222.34 66.81 220.46 66.81L220.46 66.81Q216.94 66.81 214.49 69.11L214.49 69.11Q211.54 71.85 211.25 77.54L211.25 77.54L211.25 94.60L216.07 95.97L216.07 100L196.56 100L196.56 95.97L202.10 94.60ZM280.15 81.57L255.02 81.57Q255.02 86.46 256.46 89.70L256.46 89.70Q258.77 94.82 264.38 94.82L264.38 94.82Q267.62 94.82 270.72 93.41Q273.82 92.01 276.05 89.06L276.05 89.06L279.94 92.08Q277.42 95.68 273.13 98.20Q268.85 100.72 262.58 100.72L262.58 100.72Q257.26 100.72 253.48 98.60Q249.70 96.47 247.68 92.37L247.68 92.37Q246.60 90.14 246.10 87.44Q245.59 84.74 245.59 81.50L245.59 81.50Q245.59 71.42 250.20 65.91Q254.81 60.40 263.38 60.40L263.38 60.40Q267.26 60.40 270.43 61.59Q273.60 62.78 275.80 64.97Q277.99 67.17 279.18 70.37Q280.37 73.58 280.37 77.61L280.37 77.61Q280.37 78.40 280.33 79.16Q280.30 79.91 280.15 81.57L280.15 81.57ZM263.23 65.37L263.23 65.37Q255.82 65.37 255.10 76.96L255.10 76.96L270.94 76.96L270.94 75.09Q270.94 70.41 268.92 67.89Q266.90 65.37 263.23 65.37ZM341.42 80.20L341.42 80.20Q341.42 84.95 340.06 89.09Q338.69 93.23 336.24 96.04L336.24 96.04Q332.21 100.72 324.65 100.72L324.65 100.72Q320.98 100.72 318.10 99.03Q315.22 97.34 312.98 92.73L312.98 92.73L310.82 100L305.28 100L305.28 49.24L299.74 47.87L299.74 43.84L314.42 43.84L314.42 65.30Q316.58 62.56 319.25 61.48Q321.91 60.40 325.22 60.40L325.22 60.40Q328.90 60.40 331.88 61.48Q334.87 62.56 336.74 64.94L336.74 64.94Q338.98 67.67 340.20 71.63Q341.42 75.59 341.42 80.20ZM314.42 80.56L314.42 80.56Q314.42 84.88 315.14 87.62Q315.86 90.35 316.94 92.08L316.94 92.08Q318.10 93.88 319.68 94.89Q321.26 95.90 323.57 95.90L323.57 95.90Q325.87 95.90 327.20 94.92Q328.54 93.95 329.47 92.44L329.47 92.44Q330.55 90.57 331.13 87.94Q331.70 85.31 331.70 81.57L331.70 81.57Q331.70 77.46 331.09 74.26Q330.48 71.06 329.54 69.04L329.54 69.04Q328.68 67.17 327.24 66.20Q325.80 65.22 323.50 65.22L323.50 65.22Q321.55 65.22 319.79 65.94Q318.02 66.66 316.94 68.54L316.94 68.54Q315.86 70.41 315.14 73.32Q314.42 76.24 314.42 80.56ZM384.26 80.56L384.26 80.56Q384.26 85.17 382.93 89.24Q381.60 93.30 379.08 96.04L379.08 96.04Q376.70 98.56 373.39 99.64Q370.08 100.72 365.54 100.72L365.54 100.72Q361.01 100.72 357.70 99.64Q354.38 98.56 352.01 96.04L352.01 96.04Q349.49 93.30 348.16 89.24Q346.82 85.17 346.82 80.56L346.82 80.56Q346.82 75.95 348.16 71.88Q349.49 67.82 352.01 65.08L352.01 65.08Q354.38 62.56 357.70 61.48Q361.01 60.40 365.54 60.40L365.54 60.40Q370.08 60.40 373.39 61.48Q376.70 62.56 379.08 65.08L379.08 65.08Q381.60 67.82 382.93 71.88Q384.26 75.95 384.26 80.56ZM358.99 93.02L358.99 93.02Q360.94 95.90 365.54 95.90L365.54 95.90Q370.15 95.90 372.10 93.02L372.10 93.02Q374.40 89.49 374.40 80.56L374.40 80.56Q374.40 71.63 372.10 68.10L372.10 68.10Q370.15 65.22 365.54 65.22L365.54 65.22Q360.94 65.22 358.99 68.10L358.99 68.10Q356.69 71.63 356.69 80.56L356.69 80.56Q356.69 89.49 358.99 93.02ZM394.06 94.53L394.06 49.31L388.51 47.94L388.51 43.84L403.20 43.84L403.20 94.53L408.74 95.90L408.74 100L388.51 100L388.51 95.90L394.06 94.53ZM413.14 80.63L413.14 80.63Q413.14 75.88 414.43 71.74Q415.73 67.60 418.03 65.08L418.03 65.08Q422.28 60.40 429.48 60.40L429.48 60.40Q432.86 60.40 435.46 61.62Q438.05 62.85 440.14 66.02L440.14 66.02L440.14 49.24L434.59 47.87L434.59 43.84L449.28 43.84L449.28 94.60L454.82 95.97L454.82 100L441.50 100.72L440.93 94.82Q438.70 98.20 435.89 99.46Q433.08 100.72 429.34 100.72L429.34 100.72Q425.38 100.72 422.68 99.53Q419.98 98.34 418.10 96.18L418.10 96.18Q415.87 93.66 414.50 89.63Q413.14 85.60 413.14 80.63ZM440.14 80.85L440.14 80.85Q440.14 76.67 439.42 73.61Q438.70 70.55 437.69 68.90L437.69 68.90Q435.46 65.30 431.06 65.30L431.06 65.30Q429.34 65.30 427.54 66.02Q425.74 66.74 424.73 68.61L424.73 68.61Q423.79 70.34 423.32 73.32Q422.86 76.31 422.86 79.98L422.86 79.98Q422.86 84.16 423.43 87.26Q424.01 90.35 424.87 92.01L424.87 92.01Q425.88 93.88 427.61 94.89Q429.34 95.90 431.42 95.90L431.42 95.90Q433.08 95.90 434.81 95.14Q436.54 94.38 437.69 92.58L437.69 92.58Q438.84 90.71 439.49 87.69Q440.14 84.66 440.14 80.85Z"/></svg>