<svg xmlns="http://www.w3.org/2000/svg" viewBox="5.472 45.06399999999999 345.4560000000001 71.64000000000001"><path d="M5.47 98.20L5.47 98.20L5.47 49.10Q5.47 48.38 6.08 47.87Q6.70 47.37 7.63 47.37L7.63 47.37L20.38 47.37Q27.22 47.37 31.32 51.08Q35.42 54.78 35.42 62.70L35.42 62.70L35.42 84.59Q35.42 92.58 31.32 96.29Q27.22 100 20.38 100L20.38 100L7.63 100Q6.70 100 6.08 99.46Q5.47 98.92 5.47 98.20ZM10.22 51.76L10.22 95.61L20.38 95.61Q25.27 95.61 27.97 92.84Q30.67 90.06 30.67 84.59L30.67 84.59L30.67 62.70Q30.67 57.23 27.97 54.50Q25.27 51.76 20.38 51.76L20.38 51.76L10.22 51.76ZM43.49 86.82L43.49 86.82L43.49 78.98Q43.49 73.50 47.52 69.51Q51.55 65.51 57.10 65.51Q62.64 65.51 66.74 69.47Q70.85 73.43 70.85 78.98L70.85 78.98L70.85 86.82Q70.85 92.22 66.71 96.36Q62.57 100.50 57.10 100.50L57.10 100.50Q51.70 100.50 47.59 96.36Q43.49 92.22 43.49 86.82ZM48.17 78.98L48.17 86.82Q48.17 90.50 50.80 93.34Q53.42 96.18 57.10 96.18L57.10 96.18Q60.84 96.18 63.50 93.34Q66.17 90.50 66.17 86.82L66.17 86.82L66.17 78.98Q66.17 75.45 63.47 72.64Q60.77 69.83 57.10 69.83Q53.42 69.83 50.80 72.64Q48.17 75.45 48.17 78.98L48.17 78.98ZM76.39 95.32L76.39 95.32Q76.39 94.60 76.90 93.88Q77.40 93.16 78.05 93.16L78.05 93.16Q78.55 93.16 79.63 93.99Q80.71 94.82 82.73 95.68Q84.74 96.54 87.55 96.54L87.55 96.54Q91.37 96.54 93.17 95.10Q94.97 93.66 94.97 91.43L94.97 91.43Q94.97 88.84 93.13 87.29Q91.30 85.74 88.70 85.02Q86.11 84.30 83.48 83.44Q80.86 82.58 79.02 80.60Q77.18 78.62 77.18 75.30L77.18 75.30Q77.18 71.34 80.03 68.43Q82.87 65.51 88.56 65.51L88.56 65.51Q92.09 65.51 95.15 66.63Q98.21 67.74 98.21 69.04L98.21 69.04Q98.21 69.76 97.63 70.62Q97.06 71.49 96.26 71.49L96.26 71.49Q96.05 71.49 93.60 70.48Q91.15 69.47 88.63 69.47L88.63 69.47Q85.03 69.47 83.23 71.20Q81.43 72.93 81.43 75.09L81.43 75.09Q81.43 77.32 83.27 78.62Q85.10 79.91 87.73 80.60Q90.36 81.28 92.99 82.18Q95.62 83.08 97.45 85.35Q99.29 87.62 99.29 91.22L99.29 91.22Q99.29 95.54 96.23 98.02Q93.17 100.50 87.70 100.50L87.70 100.50Q82.94 100.50 79.67 98.81Q76.39 97.12 76.39 95.32ZM106.27 54.96Q105.34 54.06 105.34 52.84Q105.34 51.62 106.27 50.75Q107.21 49.89 108.58 49.89L108.58 49.89Q109.87 49.89 110.77 50.75Q111.67 51.62 111.67 52.84Q111.67 54.06 110.77 54.96Q109.87 55.86 108.58 55.86L108.58 55.86Q107.21 55.86 106.27 54.96ZM106.27 98.13L106.27 98.13L106.27 67.67Q106.27 66.95 106.92 66.45Q107.57 65.94 108.58 65.94Q109.58 65.94 110.27 66.45Q110.95 66.95 110.95 67.67L110.95 67.67L110.95 98.13Q110.95 98.85 110.23 99.42Q109.51 100 108.58 100Q107.64 100 106.96 99.42Q106.27 98.85 106.27 98.13ZM117.86 95.32L117.86 95.32Q117.86 94.60 118.37 93.88Q118.87 93.16 119.52 93.16L119.52 93.16Q120.02 93.16 121.10 93.99Q122.18 94.82 124.20 95.68Q126.22 96.54 129.02 96.54L129.02 96.54Q132.84 96.54 134.64 95.10Q136.44 93.66 136.44 91.43L136.44 91.43Q136.44 88.84 134.60 87.29Q132.77 85.74 130.18 85.02Q127.58 84.30 124.96 83.44Q122.33 82.58 120.49 80.60Q118.66 78.62 118.66 75.30L118.66 75.30Q118.66 71.34 121.50 68.43Q124.34 65.51 130.03 65.51L130.03 65.51Q133.56 65.51 136.62 66.63Q139.68 67.74 139.68 69.04L139.68 69.04Q139.68 69.76 139.10 70.62Q138.53 71.49 137.74 71.49L137.74 71.49Q137.52 71.49 135.07 70.48Q132.62 69.47 130.10 69.47L130.10 69.47Q126.50 69.47 124.70 71.20Q122.90 72.93 122.90 75.09L122.90 75.09Q122.90 77.32 124.74 78.62Q126.58 79.91 129.20 80.60Q131.83 81.28 134.46 82.18Q137.09 83.08 138.92 85.35Q140.76 87.62 140.76 91.22L140.76 91.22Q140.76 95.54 137.70 98.02Q134.64 100.50 129.17 100.50L129.17 100.50Q124.42 100.50 121.14 98.81Q117.86 97.12 117.86 95.32ZM162.14 98.13L162.14 98.13L162.14 67.67Q162.14 66.95 162.79 66.45Q163.44 65.94 164.45 65.94L164.45 65.94Q165.38 65.94 166.03 66.45Q166.68 66.95 166.68 67.67L166.68 67.67L166.68 71.20Q167.98 68.82 170.50 67.17Q173.02 65.51 176.33 65.51L176.33 65.51L178.85 65.51Q179.57 65.51 180.14 66.16Q180.72 66.81 180.72 67.67Q180.72 68.54 180.14 69.18Q179.57 69.83 178.85 69.83L178.85 69.83L176.33 69.83Q172.58 69.83 169.70 72.75Q166.82 75.66 166.82 80.34L166.82 80.34L166.82 98.13Q166.82 98.85 166.14 99.42Q165.46 100 164.45 100L164.45 100Q163.51 100 162.83 99.42Q162.14 98.85 162.14 98.13ZM183.38 86.82L183.38 86.82L183.38 78.76Q183.38 73.36 187.42 69.44Q191.45 65.51 197.14 65.51L197.14 65.51Q202.61 65.51 206.60 69.26Q210.60 73 210.60 78.62L210.60 78.62Q210.60 80.63 210.13 81.86Q209.66 83.08 208.62 83.58Q207.58 84.09 206.71 84.23Q205.85 84.38 204.34 84.38L204.34 84.38L188.06 84.38L188.06 87.04Q188.06 91.29 191.12 93.84Q194.18 96.40 199.01 96.40L199.01 96.40Q201.46 96.40 203.29 95.68Q205.13 94.96 206.10 94.24Q207.07 93.52 207.65 93.52L207.65 93.52Q208.44 93.52 209.05 94.28Q209.66 95.03 209.66 95.75L209.66 95.75Q209.66 97.26 206.57 98.88Q203.47 100.50 198.86 100.50L198.86 100.50Q192.02 100.50 187.70 96.72Q183.38 92.94 183.38 86.82ZM188.06 78.18L188.06 80.92L202.46 80.92Q204.62 80.92 205.34 80.45Q206.06 79.98 206.06 78.47L206.06 78.47Q206.06 74.87 203.51 72.14Q200.95 69.40 197.06 69.40L197.06 69.40Q193.32 69.40 190.69 71.99Q188.06 74.58 188.06 78.18L188.06 78.18ZM214.92 107.13L214.92 107.13Q214.92 101.73 221.04 99.28L221.04 99.28Q217.08 97.91 217.08 94.31L217.08 94.31Q217.08 91.07 220.68 89.13L220.68 89.13Q216.72 85.82 216.72 80.06L216.72 80.06L216.72 77.32Q216.72 72.06 220.14 68.79Q223.56 65.51 229.10 65.51L229.10 65.51Q234.14 65.51 237.53 68.54L237.53 68.54Q238.61 66.45 239.98 65.22Q241.34 64.00 242.64 64.00L242.64 64.00Q243.65 64.00 244.22 64.58Q244.80 65.15 244.80 65.87L244.80 65.87Q244.80 67.17 243.58 67.46L243.58 67.46Q241.06 67.96 239.54 70.55L239.54 70.55Q241.56 73.22 241.56 77.32L241.56 77.32L241.56 80.06Q241.56 85.24 238.03 88.62Q234.50 92.01 229.03 92.01L229.03 92.01Q226.08 92.01 223.49 90.78L223.49 90.78Q221.26 92.01 221.26 93.59L221.26 93.59Q221.26 95.10 222.91 95.90Q224.57 96.69 227.05 96.90Q229.54 97.12 232.45 97.59Q235.37 98.06 237.85 98.78Q240.34 99.50 241.99 101.44Q243.65 103.38 243.65 106.48L243.65 106.48Q243.65 111.38 239.76 114.04Q235.87 116.70 229.54 116.70L229.54 116.70Q223.06 116.70 218.99 114.11Q214.92 111.52 214.92 107.13ZM219.46 106.70L219.46 106.70Q219.46 109.65 222.16 111.45Q224.86 113.25 229.46 113.25L229.46 113.25Q234.00 113.25 236.56 111.45Q239.11 109.65 239.11 106.62L239.11 106.62Q239.11 105.18 238.39 104.10Q237.67 103.02 236.70 102.45Q235.73 101.87 234.14 101.44Q232.56 101.01 231.37 100.86Q230.18 100.72 228.38 100.58L228.38 100.58L225.86 100.29Q219.46 102.30 219.46 106.70ZM221.26 77.32L221.26 79.98Q221.26 83.73 223.38 86.10Q225.50 88.48 229.18 88.48L229.18 88.48Q232.70 88.48 234.83 86.10Q236.95 83.73 236.95 80.06L236.95 80.06L236.95 77.32Q236.95 73.72 234.83 71.38Q232.70 69.04 229.10 69.04Q225.50 69.04 223.38 71.38Q221.26 73.72 221.26 77.32L221.26 77.32ZM249.84 86.97L249.84 86.97L249.84 67.74Q249.84 67.10 250.52 66.52Q251.21 65.94 252.22 65.94L252.22 65.94Q253.08 65.94 253.80 66.52Q254.52 67.10 254.52 67.74L254.52 67.74L254.52 86.97Q254.52 90.57 257.18 93.38Q259.85 96.18 263.52 96.18Q267.19 96.18 269.86 93.38Q272.52 90.57 272.52 86.97L272.52 86.97L272.52 67.67Q272.52 66.95 273.24 66.45Q273.96 65.94 274.90 65.94Q275.83 65.94 276.52 66.45Q277.20 66.95 277.20 67.67L277.20 67.67L277.20 86.97Q277.20 92.37 273.13 96.44Q269.06 100.50 263.52 100.50L263.52 100.50Q257.90 100.50 253.87 96.44Q249.84 92.37 249.84 86.97ZM286.49 98.13L286.49 98.13L286.49 46.79Q286.49 46.07 287.14 45.57Q287.78 45.06 288.79 45.06Q289.80 45.06 290.48 45.57Q291.17 46.07 291.17 46.79L291.17 46.79L291.17 98.13Q291.17 98.85 290.48 99.42Q289.80 100 288.79 100L288.79 100Q287.86 100 287.17 99.42Q286.49 98.85 286.49 98.13ZM298.44 91L298.44 91Q298.44 85.46 302.72 83.30Q307.01 81.14 315.22 81.14L315.22 81.14L318.89 81.14L318.89 79.41Q318.89 75.45 316.80 72.53Q314.71 69.62 310.39 69.62L310.39 69.62Q307.51 69.62 305.17 70.66Q302.83 71.70 302.69 71.70L302.69 71.70Q301.82 71.70 301.32 70.91Q300.82 70.12 300.82 69.18L300.82 69.18Q300.82 67.82 303.91 66.66Q307.01 65.51 310.54 65.51L310.54 65.51Q317.30 65.51 320.44 69.44Q323.57 73.36 323.57 79.41L323.57 79.41L323.57 98.13Q323.57 98.92 322.92 99.46Q322.27 100 321.26 100L321.26 100Q320.33 100 319.72 99.46Q319.10 98.92 319.10 98.13L319.10 98.13L319.10 94.96Q314.28 100.50 308.23 100.50L308.23 100.50Q303.91 100.50 301.18 98.09Q298.44 95.68 298.44 91ZM303.12 90.57L303.12 90.57Q303.12 93.59 304.85 95.07Q306.58 96.54 309.38 96.54L309.38 96.54Q312.77 96.54 315.83 94.02Q318.89 91.50 318.89 88.98L318.89 88.98L318.89 84.38L315.86 84.38Q312.98 84.38 311.00 84.59Q309.02 84.81 307.08 85.38Q305.14 85.96 304.13 87.26Q303.12 88.55 303.12 90.57ZM332.35 98.13L332.35 98.13L332.35 67.67Q332.35 66.95 333.00 66.45Q333.65 65.94 334.66 65.94L334.66 65.94Q335.59 65.94 336.24 66.45Q336.89 66.95 336.89 67.67L336.89 67.67L336.89 71.20Q338.18 68.82 340.70 67.17Q343.22 65.51 346.54 65.51L346.54 65.51L349.06 65.51Q349.78 65.51 350.35 66.16Q350.93 66.81 350.93 67.67Q350.93 68.54 350.35 69.18Q349.78 69.83 349.06 69.83L349.06 69.83L346.54 69.83Q342.79 69.83 339.91 72.75Q337.03 75.66 337.03 80.34L337.03 80.34L337.03 98.13Q337.03 98.85 336.35 99.42Q335.66 100 334.66 100L334.66 100Q333.72 100 333.04 99.42Q332.35 98.85 332.35 98.13Z"/></svg>