<svg xmlns="http://www.w3.org/2000/svg" viewBox="5.688000000000001 44.84799999999999 263.088 72.072"><path d="M5.69 98.49L5.69 98.49L5.69 48.88Q5.69 48.30 6.19 47.84Q6.70 47.37 7.42 47.37L7.42 47.37L20.16 47.37Q26.71 47.37 30.71 51.00Q34.70 54.64 34.70 62.49L34.70 62.49L34.70 84.88Q34.70 92.73 30.71 96.36Q26.71 100 20.16 100L20.16 100L7.42 100Q6.70 100 6.19 99.53Q5.69 99.06 5.69 98.49ZM9.29 50.82L9.29 96.54L20.16 96.54Q25.42 96.54 28.26 93.63Q31.10 90.71 31.10 84.88L31.10 84.88L31.10 62.49Q31.10 56.66 28.26 53.74Q25.42 50.82 20.16 50.82L20.16 50.82L9.29 50.82ZM43.27 87.11L43.27 87.11L43.27 78.76Q43.27 73.43 47.16 69.51Q51.05 65.58 56.45 65.58L56.45 65.58Q61.78 65.58 65.74 69.47Q69.70 73.36 69.70 78.76L69.70 78.76L69.70 87.11Q69.70 92.37 65.70 96.40Q61.70 100.43 56.45 100.43Q51.19 100.43 47.23 96.44Q43.27 92.44 43.27 87.11ZM46.80 78.76L46.80 87.11Q46.80 91 49.64 94.06Q52.49 97.12 56.45 97.12Q60.41 97.12 63.29 94.06Q66.17 91 66.17 87.11L66.17 87.11L66.17 78.76Q66.17 74.94 63.29 71.92Q60.41 68.90 56.45 68.90Q52.49 68.90 49.64 71.92Q46.80 74.94 46.80 78.76L46.80 78.76ZM75.67 95.54L75.67 95.54Q75.67 94.96 76.07 94.42Q76.46 93.88 76.97 93.88L76.97 93.88Q77.40 93.81 78.12 94.38L78.12 94.38L79.78 95.54Q80.64 96.11 82.44 96.69Q84.24 97.26 86.47 97.26L86.47 97.26Q90.50 97.26 92.45 95.72Q94.39 94.17 94.39 91.72L94.39 91.72Q94.39 88.84 92.56 87.18Q90.72 85.53 88.09 84.77Q85.46 84.02 82.80 83.15Q80.14 82.29 78.30 80.34Q76.46 78.40 76.46 75.09L76.46 75.09Q76.46 71.34 79.24 68.46Q82.01 65.58 87.41 65.58L87.41 65.58Q90.79 65.58 93.71 66.63Q96.62 67.67 96.62 68.82L96.62 68.82Q96.62 69.40 96.12 70.05Q95.62 70.70 95.04 70.70L95.04 70.70Q94.97 70.70 92.52 69.72Q90.07 68.75 87.48 68.75L87.48 68.75Q83.59 68.75 81.68 70.70Q79.78 72.64 79.78 75.02L79.78 75.02Q79.78 77.46 81.61 78.83Q83.45 80.20 86.11 80.92Q88.78 81.64 91.44 82.54Q94.10 83.44 95.94 85.64Q97.78 87.83 97.78 91.50L97.78 91.50Q97.78 95.68 94.82 98.06Q91.87 100.43 86.54 100.43L86.54 100.43Q81.94 100.43 78.80 98.81Q75.67 97.19 75.67 95.54ZM104.11 52.62L104.11 52.62Q104.11 51.62 104.90 50.86Q105.70 50.10 106.85 50.10L106.85 50.10Q107.93 50.10 108.72 50.86Q109.51 51.62 109.51 52.62L109.51 52.62Q109.51 53.70 108.72 54.50Q107.93 55.29 106.85 55.29L106.85 55.29Q105.70 55.29 104.90 54.50Q104.11 53.70 104.11 52.62ZM105.12 98.42L105.12 98.42L105.12 67.46Q105.12 66.02 106.85 66.02L106.85 66.02Q108.65 66.02 108.65 67.46L108.65 67.46L108.65 98.42Q108.65 98.99 108.11 99.50Q107.57 100 106.85 100Q106.13 100 105.62 99.53Q105.12 99.06 105.12 98.42ZM115.99 95.54L115.99 95.54Q115.99 94.96 116.39 94.42Q116.78 93.88 117.29 93.88L117.29 93.88Q117.72 93.81 118.44 94.38L118.44 94.38L120.10 95.54Q120.96 96.11 122.76 96.69Q124.56 97.26 126.79 97.26L126.79 97.26Q130.82 97.26 132.77 95.72Q134.71 94.17 134.71 91.72L134.71 91.72Q134.71 88.84 132.88 87.18Q131.04 85.53 128.41 84.77Q125.78 84.02 123.12 83.15Q120.46 82.29 118.62 80.34Q116.78 78.40 116.78 75.09L116.78 75.09Q116.78 71.34 119.56 68.46Q122.33 65.58 127.73 65.58L127.73 65.58Q131.11 65.58 134.03 66.63Q136.94 67.67 136.94 68.82L136.94 68.82Q136.94 69.40 136.44 70.05Q135.94 70.70 135.36 70.70L135.36 70.70Q135.29 70.70 132.84 69.72Q130.39 68.75 127.80 68.75L127.80 68.75Q123.91 68.75 122.00 70.70Q120.10 72.64 120.10 75.02L120.10 75.02Q120.10 77.46 121.93 78.83Q123.77 80.20 126.43 80.92Q129.10 81.64 131.76 82.54Q134.42 83.44 136.26 85.64Q138.10 87.83 138.10 91.50L138.10 91.50Q138.10 95.68 135.14 98.06Q132.19 100.43 126.86 100.43L126.86 100.43Q122.26 100.43 119.12 98.81Q115.99 97.19 115.99 95.54ZM160.42 98.42L160.42 98.42L160.42 46.36Q160.42 45.71 160.92 45.28Q161.42 44.85 162.14 44.85L162.14 44.85Q162.94 44.85 163.44 45.28Q163.94 45.71 163.94 46.36L163.94 46.36L163.94 98.42Q163.94 98.99 163.40 99.50Q162.86 100 162.14 100Q161.42 100 160.92 99.53Q160.42 99.06 160.42 98.42ZM173.02 52.62L173.02 52.62Q173.02 51.62 173.81 50.86Q174.60 50.10 175.75 50.10L175.75 50.10Q176.83 50.10 177.62 50.86Q178.42 51.62 178.42 52.62L178.42 52.62Q178.42 53.70 177.62 54.50Q176.83 55.29 175.75 55.29L175.75 55.29Q174.60 55.29 173.81 54.50Q173.02 53.70 173.02 52.62ZM174.02 98.42L174.02 98.42L174.02 67.46Q174.02 66.02 175.75 66.02L175.75 66.02Q177.55 66.02 177.55 67.46L177.55 67.46L177.55 98.42Q177.55 98.99 177.01 99.50Q176.47 100 175.75 100Q175.03 100 174.53 99.53Q174.02 99.06 174.02 98.42ZM184.32 107.49L184.32 107.49Q184.32 101.87 190.66 99.57L190.66 99.57Q186.48 98.20 186.48 94.53L186.48 94.53Q186.48 91.22 190.01 89.42L190.01 89.42Q186.19 86.03 186.19 80.34L186.19 80.34L186.19 77.39Q186.19 72.21 189.50 68.90Q192.82 65.58 198.14 65.58L198.14 65.58Q203.40 65.58 206.64 68.82L206.64 68.82Q207.65 66.81 209.12 65.58Q210.60 64.36 211.90 64.36L211.90 64.36Q212.83 64.36 213.30 64.86Q213.77 65.37 213.77 66.02L213.77 66.02Q213.77 67.31 212.47 67.46L212.47 67.46Q209.95 67.60 208.30 70.70L208.30 70.70Q210.17 73.22 210.17 77.39L210.17 77.39L210.17 80.34Q210.17 85.53 206.78 88.91Q203.40 92.30 198.07 92.30L198.07 92.30Q194.83 92.30 192.38 90.93L192.38 90.93Q189.79 92.22 189.79 94.10Q189.79 95.97 192.13 96.80Q194.47 97.62 197.78 97.88Q201.10 98.13 204.41 98.70Q207.72 99.28 210.06 101.30Q212.40 103.31 212.40 106.91L212.40 106.91Q212.40 111.66 208.66 114.29Q204.91 116.92 198.58 116.92Q192.24 116.92 188.28 114.33Q184.32 111.74 184.32 107.49ZM187.78 107.13L187.78 107.13Q187.78 110.22 190.66 112.13Q193.54 114.04 198.58 114.04L198.58 114.04Q203.47 114.04 206.17 112.17Q208.87 110.30 208.87 107.06L208.87 107.06Q208.87 105.47 208.12 104.36Q207.36 103.24 206.28 102.59Q205.20 101.94 203.51 101.51Q201.82 101.08 200.56 100.97Q199.30 100.86 197.42 100.72L197.42 100.72L194.83 100.43Q187.78 102.52 187.78 107.13ZM189.65 77.39L189.65 80.27Q189.65 84.23 191.95 86.79Q194.26 89.34 198.22 89.34L198.22 89.34Q202.10 89.34 204.41 86.82Q206.71 84.30 206.71 80.34L206.71 80.34L206.71 77.39Q206.71 73.50 204.41 71.02Q202.10 68.54 198.14 68.54Q194.18 68.54 191.92 71.02Q189.65 73.50 189.65 77.39L189.65 77.39ZM219.31 98.42L219.31 98.42L219.31 46.36Q219.31 45.71 219.82 45.28Q220.32 44.85 221.04 44.85L221.04 44.85Q221.83 44.85 222.34 45.28Q222.84 45.71 222.84 46.36L222.84 46.36L222.84 71.06Q224.06 68.75 226.55 67.17Q229.03 65.58 232.42 65.58L232.42 65.58Q237.67 65.58 241.49 69.47Q245.30 73.36 245.30 78.76L245.30 78.76L245.30 98.42Q245.30 100 243.50 100L243.50 100Q241.78 100 241.78 98.42L241.78 98.42L241.78 78.76Q241.78 74.94 238.90 71.92Q236.02 68.90 232.13 68.90L232.13 68.90Q228.46 68.90 225.65 71.60Q222.84 74.30 222.84 78.76L222.84 78.76L222.84 98.42Q222.84 98.99 222.30 99.50Q221.76 100 221.04 100Q220.32 100 219.82 99.53Q219.31 99.06 219.31 98.42ZM254.30 89.70L254.30 89.70L254.30 51.04Q254.30 50.39 254.84 49.96Q255.38 49.53 256.03 49.53L256.03 49.53Q256.75 49.53 257.29 49.96Q257.83 50.39 257.83 51.04L257.83 51.04L257.83 66.02L267.41 66.02Q267.98 66.02 268.38 66.48Q268.78 66.95 268.78 67.60L268.78 67.60Q268.78 68.18 268.34 68.64Q267.91 69.11 267.41 69.11L267.41 69.11L257.83 69.11L257.83 89.70Q257.83 93.52 259.49 95.10Q261.14 96.69 265.25 96.69L265.25 96.69L267.05 96.69Q267.77 96.69 268.24 97.16Q268.70 97.62 268.70 98.34L268.70 98.34Q268.70 98.99 268.24 99.50Q267.77 100 267.05 100L267.05 100L265.25 100Q254.30 100 254.30 89.70Z"/></svg>