<svg xmlns="http://www.w3.org/2000/svg" viewBox="5.976000000000001 44.70399999999999 401.76000000000005 72.36000000000001"><path d="M6 99L6 99L6 49Q6 47 7 47L7 47L20 47Q26 47 30 51Q34 54 34 62L34 62L34 85Q34 93 30 96Q26 100 20 100L20 100L7 100Q6 100 6 99ZM9 50L9 97L20 97Q26 97 29 94Q32 91 32 85L32 85L32 62Q32 56 29 53Q26 50 20 50L20 50L9 50ZM43 87L43 87L43 79Q43 73 47 69Q51 66 56 66Q61 66 65 69Q69 73 69 79L69 79L69 87Q69 93 65 96Q61 100 56 100Q51 100 47 96Q43 93 43 87ZM46 79L46 87Q46 91 49 95Q52 98 56 98Q60 98 63 95Q66 91 66 87L66 87L66 79Q66 75 63 71Q60 68 56 68Q52 68 49 71Q46 75 46 79L46 79ZM75 96L75 96Q75 95 75 95Q76 95 76 95Q76 95 77 95L77 95L79 96Q80 97 81 97Q83 98 86 98L86 98Q90 98 92 96Q94 95 94 92L94 92Q94 89 92 87Q90 85 88 85L88 85L82 83Q80 82 78 80Q76 78 76 75L76 75Q76 71 79 68Q81 66 86 66L86 66Q90 66 92 67Q95 68 95 69L95 69Q95 69 95 70Q94 70 94 70L94 70Q94 70 92 69Q89 68 87 68L87 68Q82 68 80 70Q78 72 78 75L78 75Q78 77 80 79Q82 80 85 81Q87 82 90 83Q93 84 95 86Q96 88 96 92L96 92Q96 96 94 98Q91 100 86 100L86 100Q81 100 78 99Q75 97 75 96ZM104 54Q103 53 103 52Q103 52 104 51Q104 50 105 50Q106 50 107 51Q108 52 108 52Q108 53 107 54Q106 55 105 55Q104 55 104 54ZM104 99L104 99L104 67Q104 67 104 66Q105 66 105 66L105 66Q107 66 107 67L107 67L107 99Q107 99 106 100Q106 100 105 100Q105 100 104 100Q104 99 104 99ZM114 96L114 96Q114 95 115 95Q115 95 115 95Q116 95 116 95L116 95L118 96Q119 97 121 97Q122 98 125 98L125 98Q129 98 131 96Q133 95 133 92L133 92Q133 89 131 87Q129 85 127 85L127 85L121 83Q119 82 117 80Q115 78 115 75L115 75Q115 71 118 68Q120 66 126 66L126 66Q129 66 132 67Q134 68 134 69L134 69Q134 69 134 70Q134 70 133 70L133 70Q133 70 131 69Q128 68 126 68L126 68Q122 68 120 70Q118 72 118 75L118 75Q118 77 119 79Q121 80 124 81Q127 82 129 83Q132 84 134 86Q136 88 136 92L136 92Q136 96 133 98Q130 100 125 100L125 100Q120 100 117 99Q114 97 114 96ZM156 87L156 87L156 78Q156 73 160 69Q164 66 169 66L169 66Q174 66 178 69Q182 73 182 79L182 79Q182 80 182 82Q181 83 180 83Q179 84 178 84Q177 84 176 84L176 84L159 84L159 87Q159 92 162 95Q166 98 171 98L171 98Q174 98 176 97Q177 96 178 96Q179 95 180 95L180 95Q180 95 181 95Q181 96 181 96L181 96Q181 97 180 98Q179 99 176 100Q174 100 171 100L171 100Q165 100 161 97Q156 93 156 87ZM159 78L159 81L175 81Q178 81 179 81Q179 80 179 79L179 79Q179 75 177 71Q174 68 169 68L169 68Q165 68 162 71Q159 74 159 78L159 78ZM187 99L187 99Q187 99 187 98L187 98L197 83L187 68Q187 67 187 67L187 67Q187 66 187 66Q188 66 188 66L188 66Q189 66 189 66L189 66L199 81L208 66Q208 66 209 66L209 66Q210 66 210 66Q210 66 210 67L210 67Q210 67 210 68L210 68L200 83L210 98Q210 99 210 99L210 99Q210 100 210 100Q210 100 209 100L209 100Q208 100 208 100L208 100L199 85L189 100Q189 100 188 100L188 100Q188 100 187 100Q187 100 187 99ZM217 90L217 90L217 51Q217 50 217 50Q218 49 218 49L218 49Q219 49 219 50Q220 50 220 51L220 51L220 66L229 66Q230 66 230 66Q230 67 230 67Q230 68 230 68Q230 69 229 69L229 69L220 69L220 90Q220 94 221 96Q223 97 228 97L228 97L229 97Q230 97 230 98Q230 98 230 99Q230 99 230 100Q230 100 229 100L229 100L228 100Q217 100 217 90ZM237 99L237 99L237 67Q237 66 238 66L238 66Q239 66 239 67L239 67L239 71Q242 66 249 66L249 66L252 66Q252 66 253 66Q253 66 253 67Q253 67 253 68Q252 68 252 68L252 68L249 68Q245 68 242 71Q239 74 239 79L239 79L239 99Q239 99 239 100Q238 100 238 100Q237 100 237 100Q237 99 237 99ZM254 91L254 91Q254 86 259 83Q263 81 271 81L271 81L275 81L275 79Q275 75 273 71Q271 68 266 68L266 68Q264 68 262 69Q260 69 259 70Q259 70 258 70L258 70Q258 70 257 70Q257 69 257 69L257 69Q257 68 260 67Q263 66 266 66L266 66Q272 66 275 70Q278 73 278 79L278 79L278 99Q278 100 277 100L277 100Q276 100 276 100Q275 99 275 99L275 99L275 95Q271 100 264 100L264 100Q260 100 257 98Q254 96 254 91ZM257 91L257 91Q257 94 259 96Q261 98 264 98L264 98Q268 98 272 95Q275 92 275 90L275 90L275 84L271 84Q268 84 266 84Q264 84 261 85Q259 86 258 87Q257 89 257 91ZM302 99L302 99L302 46Q302 45 304 45L304 45Q305 45 305 46L305 46L305 99Q305 99 304 100Q304 100 304 100Q303 100 303 100Q302 99 302 99ZM315 54Q314 53 314 52Q314 52 315 51Q316 50 317 50Q317 50 318 51Q319 52 319 52Q319 53 318 54Q317 55 317 55Q316 55 315 54ZM315 99L315 99L315 67Q315 67 316 66Q316 66 317 66L317 66Q318 66 318 67L318 67L318 99Q318 99 317 100Q317 100 317 100Q316 100 316 100Q315 99 315 99ZM325 108L325 108Q325 102 332 100L332 100Q327 99 327 95L327 95Q327 91 331 90L331 90Q327 86 327 81L327 81L327 77Q327 72 330 69Q333 66 339 66L339 66Q344 66 347 69L347 69Q348 67 350 66Q351 65 353 65L353 65Q354 65 354 66L354 66Q354 67 354 67Q353 67 353 67L353 67Q350 67 348 71L348 71Q350 73 350 77L350 77L350 81Q350 86 347 89Q344 93 338 93L338 93Q335 93 333 91L333 91Q330 92 330 95L330 95Q330 96 331 97Q333 98 336 98Q338 98 341 99Q344 99 347 100Q349 101 351 102Q352 104 352 107L352 107Q352 112 349 115Q345 117 339 117L339 117Q333 117 329 115Q325 112 325 108ZM328 108L328 108Q328 111 331 113Q334 115 339 115L339 115Q344 115 347 113Q350 111 350 107L350 107Q350 106 349 105Q348 103 347 103Q346 102 344 102Q342 101 341 101Q340 101 338 101Q336 101 335 101L335 101Q328 103 328 108ZM329 77L329 81Q329 85 332 87Q334 90 339 90L339 90Q343 90 345 87Q348 85 348 81L348 81L348 77Q348 73 345 71Q343 68 339 68L339 68Q334 68 332 71Q329 73 329 77L329 77ZM360 99L360 99L360 46Q360 45 361 45L361 45Q362 45 362 46L362 46L362 71Q365 66 372 66L372 66Q377 66 381 69Q385 73 385 79L385 79L385 99Q385 100 384 100L384 100Q382 100 382 99L382 99L382 79Q382 75 379 71Q376 68 372 68L372 68Q368 68 365 71Q362 74 362 79L362 79L362 99Q362 99 362 100Q362 100 361 100Q361 100 360 100Q360 99 360 99ZM394 90L394 90L394 51Q394 50 395 50Q395 49 395 49L395 49Q396 49 396 50Q397 50 397 51L397 51L397 66L407 66Q407 66 407 66Q408 67 408 67Q408 68 407 68Q407 69 407 69L407 69L397 69L397 90Q397 94 399 96Q400 97 405 97L405 97L406 97Q407 97 407 98Q408 98 408 99Q408 99 407 100Q407 100 406 100L406 100L405 100Q394 100 394 90Z"/></svg>