<svg xmlns="http://www.w3.org/2000/svg" viewBox="3.8880000000000003 46.14399999999999 473.04000000000013 54.57600000000001"><path d="M3.89 96.62L3.89 96.62L3.89 50.75Q3.89 49.38 5.26 48.38Q6.62 47.37 8.78 47.37L8.78 47.37L21.53 47.37Q29.59 47.37 34.42 51.47Q39.24 55.58 39.24 64.36L39.24 64.36L39.24 83.01Q39.24 91.79 34.42 95.90Q29.59 100 21.53 100L21.53 100L8.78 100Q6.62 100 5.26 98.99Q3.89 97.98 3.89 96.62ZM15.12 57.16L15.12 90.21L21.53 90.21Q28.01 90.21 28.01 83.01L28.01 83.01L28.01 64.36Q28.01 57.16 21.53 57.16L21.53 57.16L15.12 57.16ZM44.42 85.46L44.42 85.46L44.42 80.42Q44.42 74.30 49.25 69.80Q54.07 65.30 60.77 65.30L60.77 65.30Q67.39 65.30 72.29 69.76Q77.18 74.22 77.18 80.42L77.18 80.42L77.18 85.46Q77.18 91.50 72.25 96.11Q67.32 100.72 60.77 100.72Q54.22 100.72 49.32 96.11Q44.42 91.50 44.42 85.46ZM55.58 80.42L55.58 85.46Q55.58 87.62 57.10 89.31Q58.61 91 60.77 91Q62.93 91 64.48 89.31Q66.02 87.62 66.02 85.46L66.02 85.46L66.02 80.42Q66.02 78.33 64.44 76.67Q62.86 75.02 60.77 75.02Q58.68 75.02 57.13 76.67Q55.58 78.33 55.58 80.42L55.58 80.42ZM80.64 94.10L80.64 94.10Q80.64 92.58 81.72 90.89Q82.80 89.20 84.31 89.20L84.31 89.20Q85.18 89.20 86.44 89.99Q87.70 90.78 89.60 91.61Q91.51 92.44 94.03 92.44L94.03 92.44Q98.50 92.44 98.50 90.06L98.50 90.06Q98.50 88.77 96.77 87.94Q95.04 87.11 92.56 86.54Q90.07 85.96 87.59 85.02Q85.10 84.09 83.38 81.93Q81.65 79.77 81.65 76.38L81.65 76.38Q81.65 71.78 84.89 68.54Q88.13 65.30 95.18 65.30L95.18 65.30Q100.01 65.30 103.72 66.77Q107.42 68.25 107.42 70.48L107.42 70.48Q107.42 71.92 106.27 73.83Q105.12 75.74 103.39 75.74L103.39 75.74Q102.67 75.74 100.08 74.66Q97.49 73.58 95.33 73.58L95.33 73.58Q93.31 73.58 92.27 74.26Q91.22 74.94 91.22 75.88L91.22 75.88Q91.22 76.96 92.99 77.61Q94.75 78.26 97.24 78.87Q99.72 79.48 102.20 80.45Q104.69 81.42 106.45 83.76Q108.22 86.10 108.22 89.63L108.22 89.63Q108.22 94.82 104.58 97.77Q100.94 100.72 94.32 100.72L94.32 100.72Q88.70 100.72 84.67 98.74Q80.64 96.76 80.64 94.10ZM114.62 57.56Q112.90 56.01 112.90 53.92Q112.90 51.83 114.62 50.32Q116.35 48.81 118.80 48.81L118.80 48.81Q121.18 48.81 122.90 50.32Q124.63 51.83 124.63 53.92Q124.63 56.01 122.90 57.56Q121.18 59.10 118.80 59.10L118.80 59.10Q116.35 59.10 114.62 57.56ZM113.26 96.54L113.26 96.54L113.26 69.11Q113.26 67.60 114.80 66.66Q116.35 65.73 118.80 65.73L118.80 65.73Q121.18 65.73 122.80 66.66Q124.42 67.60 124.42 69.11L124.42 69.11L124.42 96.54Q124.42 97.84 122.76 98.92Q121.10 100 118.80 100L118.80 100Q116.42 100 114.84 98.96Q113.26 97.91 113.26 96.54ZM129.10 94.10L129.10 94.10Q129.10 92.58 130.18 90.89Q131.26 89.20 132.77 89.20L132.77 89.20Q133.63 89.20 134.89 89.99Q136.15 90.78 138.06 91.61Q139.97 92.44 142.49 92.44L142.49 92.44Q146.95 92.44 146.95 90.06L146.95 90.06Q146.95 88.77 145.22 87.94Q143.50 87.11 141.01 86.54Q138.53 85.96 136.04 85.02Q133.56 84.09 131.83 81.93Q130.10 79.77 130.10 76.38L130.10 76.38Q130.10 71.78 133.34 68.54Q136.58 65.30 143.64 65.30L143.64 65.30Q148.46 65.30 152.17 66.77Q155.88 68.25 155.88 70.48L155.88 70.48Q155.88 71.92 154.73 73.83Q153.58 75.74 151.85 75.74L151.85 75.74Q151.13 75.74 148.54 74.66Q145.94 73.58 143.78 73.58L143.78 73.58Q141.77 73.58 140.72 74.26Q139.68 74.94 139.68 75.88L139.68 75.88Q139.68 76.96 141.44 77.61Q143.21 78.26 145.69 78.87Q148.18 79.48 150.66 80.45Q153.14 81.42 154.91 83.76Q156.67 86.10 156.67 89.63L156.67 89.63Q156.67 94.82 153.04 97.77Q149.40 100.72 142.78 100.72L142.78 100.72Q137.16 100.72 133.13 98.74Q129.10 96.76 129.10 94.10ZM174.82 85.46L174.82 85.46L174.82 80.20Q174.82 74.08 179.68 69.69Q184.54 65.30 191.38 65.30L191.38 65.30Q197.78 65.30 202.32 69.15Q206.86 73 206.86 78.98L206.86 78.98Q206.86 81.28 206.28 82.72Q205.70 84.16 204.55 84.74Q203.40 85.31 202.43 85.49Q201.46 85.67 199.87 85.67L199.87 85.67L185.98 85.67L185.98 86.10Q185.98 88.77 187.99 90.39Q190.01 92.01 193.32 92.01L193.32 92.01Q195.84 92.01 198.61 90.68Q201.38 89.34 202.32 89.34L202.32 89.34Q204.12 89.34 205.27 91.04Q206.42 92.73 206.42 94.24L206.42 94.24Q206.42 96.47 202.57 98.60Q198.72 100.72 193.03 100.72L193.03 100.72Q184.97 100.72 179.89 96.51Q174.82 92.30 174.82 85.46ZM185.98 77.68L185.98 79.41L194.90 79.41Q196.42 79.41 196.42 77.68L196.42 77.68Q196.42 75.66 194.87 74.51Q193.32 73.36 191.16 73.36L191.16 73.36Q189.07 73.36 187.52 74.51Q185.98 75.66 185.98 77.68L185.98 77.68ZM209.88 95.18L209.88 95.18Q209.88 94.24 210.53 93.30L210.53 93.30L218.66 82.50L211.32 72.71Q210.60 71.78 210.60 70.91L210.60 70.91Q210.60 69.11 213.26 67.20Q215.93 65.30 218.16 65.30L218.16 65.30Q219.82 65.30 220.54 66.45L220.54 66.45L226.30 75.88L232.13 66.52Q232.85 65.30 234.65 65.30L234.65 65.30Q236.74 65.30 239.40 67.20Q242.06 69.11 242.06 70.91L242.06 70.91Q242.06 71.70 241.34 72.71L241.34 72.71L233.93 82.58L242.14 93.30Q242.78 94.10 242.78 95.18L242.78 95.18Q242.78 96.90 240.23 98.81Q237.67 100.72 235.44 100.72L235.44 100.72Q233.71 100.72 232.92 99.57L232.92 99.57L226.30 89.63L219.74 99.57Q218.88 100.72 217.08 100.72L217.08 100.72Q215.21 100.72 212.54 98.85Q209.88 96.98 209.88 95.18ZM247.18 87.83L247.18 87.83L247.18 54.21Q247.18 52.77 248.90 51.80Q250.63 50.82 252.72 50.82L252.72 50.82Q254.95 50.82 256.64 51.80Q258.34 52.77 258.34 54.21L258.34 54.21L258.34 65.73L266.47 65.73Q267.77 65.73 268.49 66.92Q269.21 68.10 269.21 69.69L269.21 69.69Q269.21 71.34 268.49 72.50Q267.77 73.65 266.47 73.65L266.47 73.65L258.34 73.65L258.34 87.83Q258.34 89.42 258.98 90.03Q259.63 90.64 261.29 90.64L261.29 90.64L264.38 90.64Q266.69 90.64 267.91 92.04Q269.14 93.45 269.14 95.32L269.14 95.32Q269.14 97.26 267.91 98.63Q266.69 100 264.38 100L264.38 100L261.29 100Q247.18 100 247.18 87.83ZM273.53 96.54L273.53 96.54L273.53 69.11Q273.53 67.60 275.08 66.66Q276.62 65.73 279.00 65.73L279.00 65.73Q281.09 65.73 282.53 66.66Q283.97 67.60 283.97 69.11L283.97 69.11L283.97 71.78Q285.12 69.18 287.53 67.24Q289.94 65.30 292.54 65.30L292.54 65.30L294.62 65.30Q296.21 65.30 297.40 66.74Q298.58 68.18 298.58 70.12L298.58 70.12Q298.58 72.14 297.40 73.58Q296.21 75.02 294.62 75.02L294.62 75.02L292.54 75.02Q289.44 75.02 287.06 78.00Q284.69 80.99 284.69 85.74L284.69 85.74L284.69 96.54Q284.69 97.84 283.00 98.92Q281.30 100 279.00 100Q276.70 100 275.11 98.96Q273.53 97.91 273.53 96.54ZM299.95 91.14L299.95 91.14Q299.95 85.17 304.31 82.72Q308.66 80.27 316.80 80.27L316.80 80.27L319.39 80.27L319.39 79.55Q319.39 77.39 318.10 75.81Q316.80 74.22 313.99 74.22L313.99 74.22Q310.54 74.22 308.30 75.41Q306.07 76.60 305.57 76.60L305.57 76.60Q303.84 76.60 302.83 74.91Q301.82 73.22 301.82 71.06L301.82 71.06Q301.82 68.68 305.82 66.99Q309.82 65.30 314.14 65.30L314.14 65.30Q322.42 65.30 326.48 69.33Q330.55 73.36 330.55 79.41L330.55 79.41L330.55 96.54Q330.55 97.98 329.00 98.99Q327.46 100 325.08 100L325.08 100Q322.99 100 321.55 98.99Q320.11 97.98 320.11 96.54L320.11 96.54L320.11 94.96Q315.14 100.72 309.17 100.72L309.17 100.72Q305.21 100.72 302.58 98.27Q299.95 95.82 299.95 91.14ZM311.18 89.56L311.18 89.56Q311.18 92.58 313.99 92.58L313.99 92.58Q315.79 92.58 317.59 90.57Q319.39 88.55 319.39 85.96L319.39 85.96L319.39 85.67L319.10 85.67Q316.73 85.67 315.18 85.89Q313.63 86.10 312.41 87.00Q311.18 87.90 311.18 89.56ZM351.22 96.54L351.22 96.54L351.22 49.53Q351.22 48.02 352.76 47.08Q354.31 46.14 356.69 46.14L356.69 46.14Q359.14 46.14 360.76 47.08Q362.38 48.02 362.38 49.53L362.38 49.53L362.38 70.77Q363.60 68.46 366.01 66.88Q368.42 65.30 371.52 65.30L371.52 65.30Q376.78 65.30 380.52 69.76Q384.26 74.22 384.26 80.42L384.26 80.42L384.26 85.46Q384.26 91.50 380.48 96.11Q376.70 100.72 371.74 100.72L371.74 100.72Q368.42 100.72 365.62 99.03Q362.81 97.34 361.66 94.96L361.66 94.96L361.66 96.54Q361.66 97.84 360.18 98.92Q358.70 100 356.69 100L356.69 100Q354.38 100 352.80 98.96Q351.22 97.91 351.22 96.54ZM362.38 80.42L362.38 86.39Q362.38 87.54 364.10 89.27Q365.83 91 367.92 91Q370.01 91 371.56 89.31Q373.10 87.62 373.10 85.46L373.10 85.46L373.10 80.42Q373.10 78.33 371.56 76.67Q370.01 75.02 367.85 75.02L367.85 75.02Q365.76 75.02 364.07 76.53Q362.38 78.04 362.38 80.42L362.38 80.42ZM388.22 85.46L388.22 85.46L388.22 80.42Q388.22 74.30 393.05 69.80Q397.87 65.30 404.57 65.30L404.57 65.30Q411.19 65.30 416.09 69.76Q420.98 74.22 420.98 80.42L420.98 80.42L420.98 85.46Q420.98 91.50 416.05 96.11Q411.12 100.72 404.57 100.72Q398.02 100.72 393.12 96.11Q388.22 91.50 388.22 85.46ZM399.38 80.42L399.38 85.46Q399.38 87.62 400.90 89.31Q402.41 91 404.57 91Q406.73 91 408.28 89.31Q409.82 87.62 409.82 85.46L409.82 85.46L409.82 80.42Q409.82 78.33 408.24 76.67Q406.66 75.02 404.57 75.02Q402.48 75.02 400.93 76.67Q399.38 78.33 399.38 80.42L399.38 80.42ZM426.82 96.54L426.82 96.54L426.82 49.53Q426.82 48.02 428.36 47.08Q429.91 46.14 432.36 46.14L432.36 46.14Q434.74 46.14 436.36 47.08Q437.98 48.02 437.98 49.53L437.98 49.53L437.98 96.54Q437.98 97.84 436.32 98.92Q434.66 100 432.36 100L432.36 100Q429.98 100 428.40 98.96Q426.82 97.91 426.82 96.54ZM443.88 85.46L443.88 85.46L443.88 80.42Q443.88 74.22 447.62 69.76Q451.37 65.30 456.62 65.30L456.62 65.30Q459.72 65.30 462.13 66.88Q464.54 68.46 465.77 70.77L465.77 70.77L465.77 49.53Q465.77 48.02 467.39 47.08Q469.01 46.14 471.46 46.14L471.46 46.14Q473.83 46.14 475.38 47.08Q476.93 48.02 476.93 49.53L476.93 49.53L476.93 96.54Q476.93 97.91 475.34 98.96Q473.76 100 471.46 100L471.46 100Q469.44 100 467.96 98.92Q466.49 97.84 466.49 96.54L466.49 96.54L466.49 94.96Q465.34 97.34 462.53 99.03Q459.72 100.72 456.41 100.72L456.41 100.72Q451.44 100.72 447.66 96.11Q443.88 91.50 443.88 85.46ZM455.04 80.42L455.04 85.46Q455.04 87.62 456.59 89.31Q458.14 91 460.22 91Q462.31 91 464.04 89.27Q465.77 87.54 465.77 86.39L465.77 86.39L465.77 80.42Q465.77 78.04 464.08 76.53Q462.38 75.02 460.30 75.02L460.30 75.02Q458.14 75.02 456.59 76.67Q455.04 78.33 455.04 80.42L455.04 80.42Z"/></svg>