<svg xmlns="http://www.w3.org/2000/svg" viewBox="0.76 -7.3100000000000005 18.79 7.380000000000001"><path d="M0.76-0.25L0.76-0.25L0.76-7.07Q0.76-7.17 0.84-7.24Q0.93-7.31 1.06-7.31L1.06-7.31L2.83-7.31Q3.78-7.31 4.35-6.79Q4.92-6.28 4.92-5.18L4.92-5.18L4.92-2.14Q4.92-1.03 4.35-0.52Q3.78 0 2.83 0L2.83 0L1.06 0Q0.93 0 0.84-0.07Q0.76-0.15 0.76-0.25ZM1.42-6.70L1.42-0.61L2.83-0.61Q3.51-0.61 3.89-0.99Q4.26-1.38 4.26-2.14L4.26-2.14L4.26-5.18Q4.26-5.94 3.89-6.32Q3.51-6.70 2.83-6.70L2.83-6.70L1.42-6.70ZM6.04-1.83L6.04-1.83L6.04-2.92Q6.04-3.68 6.60-4.24Q7.16-4.79 7.93-4.79Q8.70-4.79 9.27-4.24Q9.84-3.69 9.84-2.92L9.84-2.92L9.84-1.83Q9.84-1.08 9.27-0.51Q8.69 0.07 7.93 0.07L7.93 0.07Q7.18 0.07 6.61-0.51Q6.04-1.08 6.04-1.83ZM6.69-2.92L6.69-1.83Q6.69-1.32 7.06-0.93Q7.42-0.53 7.93-0.53L7.93-0.53Q8.45-0.53 8.82-0.93Q9.19-1.32 9.19-1.83L9.19-1.83L9.19-2.92Q9.19-3.41 8.82-3.80Q8.44-4.19 7.93-4.19Q7.42-4.19 7.06-3.80Q6.69-3.41 6.69-2.92L6.69-2.92ZM10.61-0.65L10.61-0.65Q10.61-0.75 10.68-0.85Q10.75-0.95 10.84-0.95L10.84-0.95Q10.91-0.95 11.06-0.83Q11.21-0.72 11.49-0.60Q11.77-0.48 12.16-0.48L12.16-0.48Q12.69-0.48 12.94-0.68Q13.19-0.88 13.19-1.19L13.19-1.19Q13.19-1.55 12.94-1.77Q12.68-1.98 12.32-2.08Q11.96-2.18 11.60-2.30Q11.23-2.42 10.98-2.69Q10.72-2.97 10.72-3.43L10.72-3.43Q10.72-3.98 11.12-4.38Q11.51-4.79 12.30-4.79L12.30-4.79Q12.79-4.79 13.22-4.63Q13.64-4.48 13.64-4.30L13.64-4.30Q13.64-4.20 13.56-4.08Q13.48-3.96 13.37-3.96L13.37-3.96Q13.34-3.96 13.00-4.10Q12.66-4.24 12.31-4.24L12.31-4.24Q11.81-4.24 11.56-4Q11.31-3.76 11.31-3.46L11.31-3.46Q11.31-3.15 11.57-2.97Q11.82-2.79 12.19-2.69Q12.55-2.60 12.92-2.48Q13.28-2.35 13.54-2.04Q13.79-1.72 13.79-1.22L13.79-1.22Q13.79-0.62 13.37-0.28Q12.94 0.07 12.18 0.07L12.18 0.07Q11.52 0.07 11.07-0.17Q10.61-0.40 10.61-0.65ZM14.76-6.25Q14.63-6.38 14.63-6.55Q14.63-6.72 14.76-6.84Q14.89-6.96 15.08-6.96L15.08-6.96Q15.26-6.96 15.39-6.84Q15.51-6.72 15.51-6.55Q15.51-6.38 15.39-6.25Q15.26-6.13 15.08-6.13L15.08-6.13Q14.89-6.13 14.76-6.25ZM14.76-0.26L14.76-0.26L14.76-4.49Q14.76-4.59 14.85-4.66Q14.94-4.73 15.08-4.73Q15.22-4.73 15.32-4.66Q15.41-4.59 15.41-4.49L15.41-4.49L15.41-0.26Q15.41-0.16 15.31-0.08Q15.21 0 15.08 0Q14.95 0 14.86-0.08Q14.76-0.16 14.76-0.26ZM16.37-0.65L16.37-0.65Q16.37-0.75 16.44-0.85Q16.51-0.95 16.60-0.95L16.60-0.95Q16.67-0.95 16.82-0.83Q16.97-0.72 17.25-0.60Q17.53-0.48 17.92-0.48L17.92-0.48Q18.45-0.48 18.70-0.68Q18.95-0.88 18.95-1.19L18.95-1.19Q18.95-1.55 18.70-1.77Q18.44-1.98 18.08-2.08Q17.72-2.18 17.36-2.30Q16.99-2.42 16.73-2.69Q16.48-2.97 16.48-3.43L16.48-3.43Q16.48-3.98 16.88-4.38Q17.27-4.79 18.06-4.79L18.06-4.79Q18.55-4.79 18.97-4.63Q19.40-4.48 19.40-4.30L19.40-4.30Q19.40-4.20 19.32-4.08Q19.24-3.96 19.13-3.96L19.13-3.96Q19.10-3.96 18.76-4.10Q18.42-4.24 18.07-4.24L18.07-4.24Q17.57-4.24 17.32-4Q17.07-3.76 17.07-3.46L17.07-3.46Q17.07-3.15 17.32-2.97Q17.58-2.79 17.95-2.69Q18.31-2.60 18.68-2.48Q19.04-2.35 19.29-2.04Q19.55-1.72 19.55-1.22L19.55-1.22Q19.55-0.62 19.13-0.28Q18.70 0.07 17.94 0.07L17.94 0.07Q17.28 0.07 16.82-0.17Q16.37-0.40 16.37-0.65Z"/></svg>