<svg xmlns="http://www.w3.org/2000/svg" viewBox="3.8880000000000003 47.367999999999995 287.3520000000001 53.352000000000004"><path d="M3.89 96.62L3.89 96.62L3.89 50.75Q3.89 49.38 5.26 48.38Q6.62 47.37 8.78 47.37L8.78 47.37L21.53 47.37Q29.59 47.37 34.42 51.47Q39.24 55.58 39.24 64.36L39.24 64.36L39.24 83.01Q39.24 91.79 34.42 95.90Q29.59 100 21.53 100L21.53 100L8.78 100Q6.62 100 5.26 98.99Q3.89 97.98 3.89 96.62ZM15.12 57.16L15.12 90.21L21.53 90.21Q28.01 90.21 28.01 83.01L28.01 83.01L28.01 64.36Q28.01 57.16 21.53 57.16L21.53 57.16L15.12 57.16ZM44.42 85.46L44.42 85.46L44.42 80.42Q44.42 74.30 49.25 69.80Q54.07 65.30 60.77 65.30L60.77 65.30Q67.39 65.30 72.29 69.76Q77.18 74.22 77.18 80.42L77.18 80.42L77.18 85.46Q77.18 91.50 72.25 96.11Q67.32 100.72 60.77 100.72Q54.22 100.72 49.32 96.11Q44.42 91.50 44.42 85.46ZM55.58 80.42L55.58 85.46Q55.58 87.62 57.10 89.31Q58.61 91 60.77 91Q62.93 91 64.48 89.31Q66.02 87.62 66.02 85.46L66.02 85.46L66.02 80.42Q66.02 78.33 64.44 76.67Q62.86 75.02 60.77 75.02Q58.68 75.02 57.13 76.67Q55.58 78.33 55.58 80.42L55.58 80.42ZM80.64 94.10L80.64 94.10Q80.64 92.58 81.72 90.89Q82.80 89.20 84.31 89.20L84.31 89.20Q85.18 89.20 86.44 89.99Q87.70 90.78 89.60 91.61Q91.51 92.44 94.03 92.44L94.03 92.44Q98.50 92.44 98.50 90.06L98.50 90.06Q98.50 88.77 96.77 87.94Q95.04 87.11 92.56 86.54Q90.07 85.96 87.59 85.02Q85.10 84.09 83.38 81.93Q81.65 79.77 81.65 76.38L81.65 76.38Q81.65 71.78 84.89 68.54Q88.13 65.30 95.18 65.30L95.18 65.30Q100.01 65.30 103.72 66.77Q107.42 68.25 107.42 70.48L107.42 70.48Q107.42 71.92 106.27 73.83Q105.12 75.74 103.39 75.74L103.39 75.74Q102.67 75.74 100.08 74.66Q97.49 73.58 95.33 73.58L95.33 73.58Q93.31 73.58 92.27 74.26Q91.22 74.94 91.22 75.88L91.22 75.88Q91.22 76.96 92.99 77.61Q94.75 78.26 97.24 78.87Q99.72 79.48 102.20 80.45Q104.69 81.42 106.45 83.76Q108.22 86.10 108.22 89.63L108.22 89.63Q108.22 94.82 104.58 97.77Q100.94 100.72 94.32 100.72L94.32 100.72Q88.70 100.72 84.67 98.74Q80.64 96.76 80.64 94.10ZM114.62 57.56Q112.90 56.01 112.90 53.92Q112.90 51.83 114.62 50.32Q116.35 48.81 118.80 48.81L118.80 48.81Q121.18 48.81 122.90 50.32Q124.63 51.83 124.63 53.92Q124.63 56.01 122.90 57.56Q121.18 59.10 118.80 59.10L118.80 59.10Q116.35 59.10 114.62 57.56ZM113.26 96.54L113.26 96.54L113.26 69.11Q113.26 67.60 114.80 66.66Q116.35 65.73 118.80 65.73L118.80 65.73Q121.18 65.73 122.80 66.66Q124.42 67.60 124.42 69.11L124.42 69.11L124.42 96.54Q124.42 97.84 122.76 98.92Q121.10 100 118.80 100L118.80 100Q116.42 100 114.84 98.96Q113.26 97.91 113.26 96.54ZM129.10 94.10L129.10 94.10Q129.10 92.58 130.18 90.89Q131.26 89.20 132.77 89.20L132.77 89.20Q133.63 89.20 134.89 89.99Q136.15 90.78 138.06 91.61Q139.97 92.44 142.49 92.44L142.49 92.44Q146.95 92.44 146.95 90.06L146.95 90.06Q146.95 88.77 145.22 87.94Q143.50 87.11 141.01 86.54Q138.53 85.96 136.04 85.02Q133.56 84.09 131.83 81.93Q130.10 79.77 130.10 76.38L130.10 76.38Q130.10 71.78 133.34 68.54Q136.58 65.30 143.64 65.30L143.64 65.30Q148.46 65.30 152.17 66.77Q155.88 68.25 155.88 70.48L155.88 70.48Q155.88 71.92 154.73 73.83Q153.58 75.74 151.85 75.74L151.85 75.74Q151.13 75.74 148.54 74.66Q145.94 73.58 143.78 73.58L143.78 73.58Q141.77 73.58 140.72 74.26Q139.68 74.94 139.68 75.88L139.68 75.88Q139.68 76.96 141.44 77.61Q143.21 78.26 145.69 78.87Q148.18 79.48 150.66 80.45Q153.14 81.42 154.91 83.76Q156.67 86.10 156.67 89.63L156.67 89.63Q156.67 94.82 153.04 97.77Q149.40 100.72 142.78 100.72L142.78 100.72Q137.16 100.72 133.13 98.74Q129.10 96.76 129.10 94.10ZM174.82 85.60L174.82 85.60L174.82 84.74Q174.82 74.22 183.74 71.20L183.74 71.20Q176.62 68.75 176.62 60.18L176.62 60.18Q176.62 53.70 180.90 50.54Q185.18 47.37 192.53 47.37Q199.87 47.37 204.16 50.54Q208.44 53.70 208.44 60.18L208.44 60.18Q208.44 68.75 201.31 71.20L201.31 71.20Q210.17 74.22 210.17 84.74L210.17 84.74L210.17 85.60Q210.17 93.23 205.34 96.83Q200.52 100.43 192.53 100.43Q184.54 100.43 179.68 96.83Q174.82 93.23 174.82 85.60ZM186.05 82.65L186.05 84.23Q186.05 91.43 192.53 91.43L192.53 91.43Q198.94 91.43 198.94 84.23L198.94 84.23L198.94 82.65Q198.94 75.81 192.53 75.81L192.53 75.81Q186.05 75.81 186.05 82.65L186.05 82.65ZM187.42 61.62L187.42 61.62Q187.42 66.81 192.53 66.81Q197.64 66.81 197.64 61.62L197.64 61.62Q197.64 56.37 192.53 56.37Q187.42 56.37 187.42 61.62ZM214.92 83.44L214.92 83.44L214.92 64.36Q214.92 55.58 219.74 51.47Q224.57 47.37 232.56 47.37L232.56 47.37Q240.62 47.37 245.45 51.47Q250.27 55.58 250.27 64.36L250.27 64.36L250.27 83.44Q250.27 92.22 245.45 96.33Q240.62 100.43 232.56 100.43L232.56 100.43Q224.57 100.43 219.74 96.33Q214.92 92.22 214.92 83.44ZM226.15 64.36L226.15 83.44Q226.15 90.64 232.56 90.64L232.56 90.64Q239.04 90.64 239.04 83.44L239.04 83.44L239.04 64.36Q239.04 57.16 232.56 57.16L232.56 57.16Q226.15 57.16 226.15 64.36L226.15 64.36ZM229.93 76.60Q228.96 75.59 228.96 73.94Q228.96 72.28 229.93 71.31Q230.90 70.34 232.63 70.34L232.63 70.34Q234.29 70.34 235.26 71.31Q236.23 72.28 236.23 73.94Q236.23 75.59 235.26 76.60Q234.29 77.61 232.63 77.61L232.63 77.61Q230.90 77.61 229.93 76.60ZM255.89 83.44L255.89 83.44L255.89 64.36Q255.89 55.58 260.71 51.47Q265.54 47.37 273.53 47.37L273.53 47.37Q281.59 47.37 286.42 51.47Q291.24 55.58 291.24 64.36L291.24 64.36L291.24 83.44Q291.24 92.22 286.42 96.33Q281.59 100.43 273.53 100.43L273.53 100.43Q265.54 100.43 260.71 96.33Q255.89 92.22 255.89 83.44ZM267.12 64.36L267.12 83.44Q267.12 90.64 273.53 90.64L273.53 90.64Q280.01 90.64 280.01 83.44L280.01 83.44L280.01 64.36Q280.01 57.16 273.53 57.16L273.53 57.16Q267.12 57.16 267.12 64.36L267.12 64.36ZM270.90 76.60Q269.93 75.59 269.93 73.94Q269.93 72.28 270.90 71.31Q271.87 70.34 273.60 70.34L273.60 70.34Q275.26 70.34 276.23 71.31Q277.20 72.28 277.20 73.94Q277.20 75.59 276.23 76.60Q275.26 77.61 273.60 77.61L273.60 77.61Q271.87 77.61 270.90 76.60Z"/></svg>