<svg xmlns="http://www.w3.org/2000/svg" viewBox="5.472 45.06399999999999 345.4560000000001 71.64000000000001"><path d="M5 98L5 98L5 49Q5 48 6 48Q7 47 8 47L8 47L20 47Q27 47 31 51Q35 55 35 63L35 63L35 85Q35 93 31 96Q27 100 20 100L20 100L8 100Q7 100 6 99Q5 99 5 98ZM10 52L10 96L20 96Q25 96 28 93Q31 90 31 85L31 85L31 63Q31 57 28 54Q25 52 20 52L20 52L10 52ZM43 87L43 87L43 79Q43 74 48 70Q52 66 57 66Q63 66 67 69Q71 73 71 79L71 79L71 87Q71 92 67 96Q63 101 57 101L57 101Q52 101 48 96Q43 92 43 87ZM48 79L48 87Q48 90 51 93Q53 96 57 96L57 96Q61 96 64 93Q66 90 66 87L66 87L66 79Q66 75 63 73Q61 70 57 70Q53 70 51 73Q48 75 48 79L48 79ZM76 95L76 95Q76 95 77 94Q77 93 78 93L78 93Q79 93 80 94Q81 95 83 96Q85 97 88 97L88 97Q91 97 93 95Q95 94 95 91L95 91Q95 89 93 87Q91 86 89 85Q86 84 83 83Q81 83 79 81Q77 79 77 75L77 75Q77 71 80 68Q83 66 89 66L89 66Q92 66 95 67Q98 68 98 69L98 69Q98 70 98 71Q97 71 96 71L96 71Q96 71 94 70Q91 69 89 69L89 69Q85 69 83 71Q81 73 81 75L81 75Q81 77 83 79Q85 80 88 81Q90 81 93 82Q96 83 97 85Q99 88 99 91L99 91Q99 96 96 98Q93 101 88 101L88 101Q83 101 80 99Q76 97 76 95ZM106 55Q105 54 105 53Q105 52 106 51Q107 50 109 50L109 50Q110 50 111 51Q112 52 112 53Q112 54 111 55Q110 56 109 56L109 56Q107 56 106 55ZM106 98L106 98L106 68Q106 67 107 66Q108 66 109 66Q110 66 110 66Q111 67 111 68L111 68L111 98Q111 99 110 99Q110 100 109 100Q108 100 107 99Q106 99 106 98ZM118 95L118 95Q118 95 118 94Q119 93 120 93L120 93Q120 93 121 94Q122 95 124 96Q126 97 129 97L129 97Q133 97 135 95Q136 94 136 91L136 91Q136 89 135 87Q133 86 130 85Q128 84 125 83Q122 83 120 81Q119 79 119 75L119 75Q119 71 122 68Q124 66 130 66L130 66Q134 66 137 67Q140 68 140 69L140 69Q140 70 139 71Q139 71 138 71L138 71Q138 71 135 70Q133 69 130 69L130 69Q127 69 125 71Q123 73 123 75L123 75Q123 77 125 79Q127 80 129 81Q132 81 134 82Q137 83 139 85Q141 88 141 91L141 91Q141 96 138 98Q135 101 129 101L129 101Q124 101 121 99Q118 97 118 95ZM162 98L162 98L162 68Q162 67 163 66Q163 66 164 66L164 66Q165 66 166 66Q167 67 167 68L167 68L167 71Q168 69 170 67Q173 66 176 66L176 66L179 66Q180 66 180 66Q181 67 181 68Q181 69 180 69Q180 70 179 70L179 70L176 70Q173 70 170 73Q167 76 167 80L167 80L167 98Q167 99 166 99Q165 100 164 100L164 100Q164 100 163 99Q162 99 162 98ZM183 87L183 87L183 79Q183 73 187 69Q191 66 197 66L197 66Q203 66 207 69Q211 73 211 79L211 79Q211 81 210 82Q210 83 209 84Q208 84 207 84Q206 84 204 84L204 84L188 84L188 87Q188 91 191 94Q194 96 199 96L199 96Q201 96 203 96Q205 95 206 94Q207 94 208 94L208 94Q208 94 209 94Q210 95 210 96L210 96Q210 97 207 99Q203 101 199 101L199 101Q192 101 188 97Q183 93 183 87ZM188 78L188 81L202 81Q205 81 205 80Q206 80 206 78L206 78Q206 75 204 72Q201 69 197 69L197 69Q193 69 191 72Q188 75 188 78L188 78ZM215 107L215 107Q215 102 221 99L221 99Q217 98 217 94L217 94Q217 91 221 89L221 89Q217 86 217 80L217 80L217 77Q217 72 220 69Q224 66 229 66L229 66Q234 66 238 69L238 69Q239 66 240 65Q241 64 243 64L243 64Q244 64 244 65Q245 65 245 66L245 66Q245 67 244 67L244 67Q241 68 240 71L240 71Q242 73 242 77L242 77L242 80Q242 85 238 89Q235 92 229 92L229 92Q226 92 223 91L223 91Q221 92 221 94L221 94Q221 95 223 96Q225 97 227 97Q230 97 232 98Q235 98 238 99Q240 99 242 101Q244 103 244 106L244 106Q244 111 240 114Q236 117 230 117L230 117Q223 117 219 114Q215 112 215 107ZM219 107L219 107Q219 110 222 111Q225 113 229 113L229 113Q234 113 237 111Q239 110 239 107L239 107Q239 105 238 104Q238 103 237 102Q236 102 234 101Q233 101 231 101Q230 101 228 101L228 101L226 100Q219 102 219 107ZM221 77L221 80Q221 84 223 86Q226 88 229 88L229 88Q233 88 235 86Q237 84 237 80L237 80L237 77Q237 74 235 71Q233 69 229 69Q226 69 223 71Q221 74 221 77L221 77ZM250 87L250 87L250 68Q250 67 251 67Q251 66 252 66L252 66Q253 66 254 67Q255 67 255 68L255 68L255 87Q255 91 257 93Q260 96 264 96Q267 96 270 93Q273 91 273 87L273 87L273 68Q273 67 273 66Q274 66 275 66Q276 66 277 66Q277 67 277 68L277 68L277 87Q277 92 273 96Q269 101 264 101L264 101Q258 101 254 96Q250 92 250 87ZM286 98L286 98L286 47Q286 46 287 46Q288 45 289 45Q290 45 290 46Q291 46 291 47L291 47L291 98Q291 99 290 99Q290 100 289 100L289 100Q288 100 287 99Q286 99 286 98ZM298 91L298 91Q298 85 303 83Q307 81 315 81L315 81L319 81L319 79Q319 75 317 73Q315 70 310 70L310 70Q308 70 305 71Q303 72 303 72L303 72Q302 72 301 71Q301 70 301 69L301 69Q301 68 304 67Q307 66 311 66L311 66Q317 66 320 69Q324 73 324 79L324 79L324 98Q324 99 323 99Q322 100 321 100L321 100Q320 100 320 99Q319 99 319 98L319 98L319 95Q314 101 308 101L308 101Q304 101 301 98Q298 96 298 91ZM303 91L303 91Q303 94 305 95Q307 97 309 97L309 97Q313 97 316 94Q319 92 319 89L319 89L319 84L316 84Q313 84 311 85Q309 85 307 85Q305 86 304 87Q303 89 303 91ZM332 98L332 98L332 68Q332 67 333 66Q334 66 335 66L335 66Q336 66 336 66Q337 67 337 68L337 68L337 71Q338 69 341 67Q343 66 347 66L347 66L349 66Q350 66 350 66Q351 67 351 68Q351 69 350 69Q350 70 349 70L349 70L347 70Q343 70 340 73Q337 76 337 80L337 80L337 98Q337 99 336 99Q336 100 335 100L335 100Q334 100 333 99Q332 99 332 98Z"/></svg>