<svg xmlns="http://www.w3.org/2000/svg" viewBox="0.66 -7.3100000000000005 19.88 7.390000000000001"><path d="M0.66-0.34L0.66-0.34L0.66-6.97Q0.66-7.11 0.80-7.21Q0.93-7.31 1.13-7.31L1.13-7.31L2.90-7.31Q3.92-7.31 4.54-6.77Q5.15-6.23 5.15-5.08L5.15-5.08L5.15-2.23Q5.15-1.08 4.54-0.54Q3.92 0 2.90 0L2.90 0L1.13 0Q0.93 0 0.80-0.10Q0.66-0.20 0.66-0.34ZM1.72-6.37L1.72-0.94L2.90-0.94Q4.09-0.94 4.09-2.23L4.09-2.23L4.09-5.08Q4.09-6.37 2.90-6.37L2.90-6.37L1.72-6.37ZM6.09-1.91L6.09-1.91L6.09-2.83Q6.09-3.62 6.70-4.21Q7.31-4.80 8.16-4.80L8.16-4.80Q8.99-4.80 9.61-4.21Q10.23-3.63 10.23-2.83L10.23-2.83L10.23-1.91Q10.23-1.13 9.61-0.53Q8.98 0.08 8.16 0.08L8.16 0.08Q7.33 0.08 6.71-0.52Q6.09-1.12 6.09-1.91ZM7.14-2.83L7.14-1.91Q7.14-1.50 7.44-1.18Q7.74-0.85 8.16-0.85L8.16-0.85Q8.57-0.85 8.88-1.18Q9.18-1.50 9.18-1.91L9.18-1.91L9.18-2.83Q9.18-3.23 8.88-3.55Q8.57-3.87 8.16-3.87L8.16-3.87Q7.74-3.87 7.44-3.55Q7.14-3.23 7.14-2.83L7.14-2.83ZM10.87-0.72L10.87-0.72Q10.87-0.87 10.98-1.03Q11.08-1.19 11.23-1.19L11.23-1.19Q11.32-1.19 11.48-1.07Q11.64-0.96 11.91-0.84Q12.18-0.73 12.56-0.73L12.56-0.73Q13.41-0.73 13.41-1.27L13.41-1.27Q13.41-1.56 13.16-1.73Q12.91-1.89 12.56-1.99Q12.20-2.08 11.85-2.20Q11.50-2.32 11.25-2.61Q11.00-2.90 11.00-3.36L11.00-3.36Q11.00-3.95 11.42-4.38Q11.84-4.80 12.71-4.80L12.71-4.80Q13.28-4.80 13.75-4.63Q14.21-4.45 14.21-4.21L14.21-4.21Q14.21-4.07 14.10-3.89Q13.98-3.70 13.81-3.70L13.81-3.70Q13.75-3.70 13.40-3.85Q13.05-3.99 12.73-3.99L12.73-3.99Q12.33-3.99 12.13-3.81Q11.92-3.63 11.92-3.41L11.92-3.41Q11.92-3.17 12.17-3.03Q12.42-2.89 12.78-2.80Q13.14-2.71 13.50-2.58Q13.85-2.45 14.10-2.13Q14.35-1.81 14.35-1.31L14.35-1.31Q14.35-0.66 13.89-0.29Q13.43 0.08 12.59 0.08L12.59 0.08Q11.88 0.08 11.38-0.17Q10.87-0.42 10.87-0.72ZM15.10-6.48L15.10-6.48Q15.10-6.71 15.28-6.87Q15.46-7.03 15.71-7.03Q15.96-7.03 16.14-6.87Q16.32-6.71 16.32-6.48L16.32-6.48Q16.32-6.26 16.14-6.09Q15.96-5.93 15.71-5.93Q15.46-5.93 15.28-6.09Q15.10-6.26 15.10-6.48ZM15.19-0.35L15.19-0.35L15.19-4.40Q15.19-4.55 15.34-4.65Q15.48-4.74 15.71-4.74Q15.94-4.74 16.09-4.65Q16.24-4.55 16.24-4.40L16.24-4.40L16.24-0.35Q16.24-0.22 16.09-0.11Q15.93 0 15.71 0Q15.49 0 15.34-0.11Q15.19-0.22 15.19-0.35ZM17.06-0.72L17.06-0.72Q17.06-0.87 17.16-1.03Q17.27-1.19 17.42-1.19L17.42-1.19Q17.51-1.19 17.67-1.07Q17.83-0.96 18.10-0.84Q18.37-0.73 18.75-0.73L18.75-0.73Q19.60-0.73 19.60-1.27L19.60-1.27Q19.60-1.56 19.35-1.73Q19.10-1.89 18.74-1.99Q18.39-2.08 18.04-2.20Q17.69-2.32 17.44-2.61Q17.19-2.90 17.19-3.36L17.19-3.36Q17.19-3.95 17.61-4.38Q18.03-4.80 18.90-4.80L18.90-4.80Q19.47-4.80 19.93-4.63Q20.40-4.45 20.40-4.21L20.40-4.21Q20.40-4.07 20.29-3.89Q20.17-3.70 20-3.70L20-3.70Q19.94-3.70 19.59-3.85Q19.24-3.99 18.92-3.99L18.92-3.99Q18.52-3.99 18.31-3.81Q18.11-3.63 18.11-3.41L18.11-3.41Q18.11-3.17 18.36-3.03Q18.61-2.89 18.97-2.80Q19.33-2.71 19.68-2.58Q20.04-2.45 20.29-2.13Q20.54-1.81 20.54-1.31L20.54-1.31Q20.54-0.66 20.08-0.29Q19.62 0.08 18.78 0.08L18.78 0.08Q18.07 0.08 17.56-0.17Q17.06-0.42 17.06-0.72Z"/></svg>