<svg xmlns="http://www.w3.org/2000/svg" viewBox="1.8000000000000003 49.239999999999995 707.256 52.128"><path d="M3.53 100.36Q2.81 100.36 2.30 100.07Q1.80 99.78 1.80 99.35L1.80 99.35Q1.80 98.42 3.67 97.98L3.67 97.98Q6.34 97.26 7.42 96.29Q8.50 95.32 8.50 93.02L8.50 93.02L8.50 60.40Q8.50 58.02 7.52 56.98Q6.55 55.94 3.89 55.36L3.89 55.36Q2.02 55.00 2.02 53.92L2.02 53.92Q2.02 53.42 2.48 53.16Q2.95 52.91 3.74 52.91L3.74 52.91Q5.90 52.91 9.65 53.06L9.65 53.06Q13.39 53.20 15.19 53.20L15.19 53.20Q20.95 53.20 28.87 53.06L28.87 53.06Q31.10 52.98 32.72 52.84Q34.34 52.70 34.63 52.70L34.63 52.70Q36.14 52.70 36.29 53.78L36.29 53.78L36.79 57.02Q37.44 60.76 37.44 62.49L37.44 62.49Q37.44 63.06 37.15 63.42Q36.86 63.78 36.43 63.78L36.43 63.78Q35.71 63.78 35.28 62.78L35.28 62.78Q34.70 61.26 34.16 59.93Q33.62 58.60 33.05 58.02L33.05 58.02Q31.03 55.86 27.94 55.86L27.94 55.86L21.24 55.86Q19.87 55.86 18.83 56.66Q17.78 57.45 17.78 58.74L17.78 58.74L17.78 72.86Q17.78 74.51 19.44 74.51L19.44 74.51L25.99 74.51Q27.79 74.51 28.62 73.58Q29.45 72.64 30.17 70.48L30.17 70.48Q30.60 69.04 31.54 69.04L31.54 69.04Q31.90 69.04 32.18 69.44Q32.47 69.83 32.47 70.48L32.47 70.48Q32.18 73.36 32.18 76.02L32.18 76.02Q32.18 79.70 32.40 81.86L32.40 81.86L32.40 82.22Q32.40 83.51 31.68 83.51L31.68 83.51Q31.18 83.51 30.71 82.97Q30.24 82.43 30.02 81.50L30.02 81.50Q29.45 79.41 28.66 78.44Q27.86 77.46 26.50 77.46L26.50 77.46L19.80 77.46Q18.72 77.46 18.25 77.86Q17.78 78.26 17.78 79.19L17.78 79.19L17.78 92.87Q17.78 95.18 18.76 96.11Q19.73 97.05 21.89 97.05L21.89 97.05L27.79 97.05Q31.68 97.05 33.62 95.61L33.62 95.61Q35.57 94.10 37.73 89.99L37.73 89.99Q38.23 89.06 39.02 89.06L39.02 89.06Q39.74 89.13 39.74 90.28L39.74 90.28Q39.74 92.58 37.51 99.28L37.51 99.28Q37.08 100.29 36.07 100.29L36.07 100.29L27.43 100.14Q18.22 100 12.96 100L12.96 100Q11.59 100 8.42 100.14L8.42 100.14Q6.05 100.36 3.53 100.36L3.53 100.36ZM44.06 100.36Q43.34 100.36 42.84 100.07Q42.34 99.78 42.34 99.35L42.34 99.35Q42.34 98.42 44.21 97.98L44.21 97.98Q46.94 97.26 48.02 96.26Q49.10 95.25 49.10 93.02L49.10 93.02L49.10 60.40Q49.10 57.95 48.13 56.87Q47.16 55.79 44.57 55.36L44.57 55.36Q43.63 55.22 43.16 54.82Q42.70 54.42 42.70 53.92L42.70 53.92Q42.70 53.42 43.16 53.16Q43.63 52.91 44.42 52.91L44.42 52.91Q47.45 52.91 49.54 53.13L49.54 53.13Q51.84 53.27 53.42 53.27L53.42 53.27Q54.36 53.27 55.48 53.20Q56.59 53.13 57.17 53.06L57.17 53.06Q59.69 52.70 62.93 52.70L62.93 52.70Q71.71 52.70 75.92 55.18Q80.14 57.66 80.14 63.42L80.14 63.42Q80.14 65.58 79.24 67.53Q78.34 69.47 76.90 70.70L76.90 70.70Q75.74 71.78 74.59 72.42Q73.44 73.07 71.78 73.58L71.78 73.58Q71.50 73.72 71.50 73.97Q71.50 74.22 71.78 74.30L71.78 74.30Q76.61 75.45 79.74 77.97Q82.87 80.49 82.87 86.03L82.87 86.03Q82.87 89.70 81.68 92.08Q80.50 94.46 78.98 95.68Q77.47 96.90 75.31 97.98L75.31 97.98Q70.56 100.29 62.86 100.29L62.86 100.29Q61.70 100.29 58.97 100.14L58.97 100.14Q55.80 100 54 100L54 100Q52.27 100 49.10 100.14L49.10 100.14Q46.66 100.36 44.06 100.36L44.06 100.36ZM61.42 73.43Q65.45 73.43 68.40 71.42L68.40 71.42Q69.34 70.62 70.16 69.00Q70.99 67.38 70.99 64.72L70.99 64.72Q70.99 55.50 62.57 55.50L62.57 55.50Q60.26 55.50 59.33 56.26Q58.39 57.02 58.39 58.67L58.39 58.67L58.39 70.84Q58.39 72.21 59.33 72.82Q60.26 73.43 61.42 73.43L61.42 73.43ZM63.22 96.69Q65.74 96.69 67.90 95.36Q70.06 94.02 71.35 91.68Q72.65 89.34 72.65 86.54L72.65 86.54Q72.65 83.08 71.39 80.99Q70.13 78.90 68.47 77.90L68.47 77.90Q67.54 77.25 65.88 76.74Q64.22 76.24 61.99 76.24L61.99 76.24Q60.48 76.24 59.44 76.92Q58.39 77.61 58.39 78.62L58.39 78.62L58.39 91.94Q58.39 96.69 63.22 96.69L63.22 96.69ZM129.02 101.01Q122.18 101.01 116.42 97.98Q110.66 94.96 107.28 89.56Q103.90 84.16 103.90 77.46L103.90 77.46Q103.90 70.70 107.35 64.90Q110.81 59.10 117.00 55.65Q123.19 52.19 130.90 52.19L130.90 52.19Q133.70 52.19 138.49 53.02Q143.28 53.85 145.30 54.71L145.30 54.71Q146.38 55.22 146.45 56.15L146.45 56.15Q147.24 61.98 147.24 64.43L147.24 64.43Q147.24 65.01 146.92 65.44Q146.59 65.87 146.09 65.87L146.09 65.87Q145.37 65.87 145.01 65.44Q144.65 65.01 144.29 64.14L144.29 64.14Q142.70 60.83 141.19 59.18L141.19 59.18Q137.81 55.65 131.26 55.65L131.26 55.65Q126.14 55.65 122.29 58.42Q118.44 61.19 116.39 65.84Q114.34 70.48 114.34 75.88L114.34 75.88Q114.34 82.43 116.32 87.33Q118.30 92.22 121.90 94.89Q125.50 97.55 130.18 97.55L130.18 97.55Q133.92 97.55 136.37 95.46L136.37 95.46Q137.16 94.89 137.66 93.52Q138.17 92.15 138.24 90.50L138.24 90.50L138.38 85.17Q138.38 83.37 137.16 82.79L137.16 82.79Q136.30 82.07 134.71 81.64Q133.13 81.21 131.76 81.06L131.76 81.06Q131.18 80.92 130.64 80.52Q130.10 80.13 130.10 79.62L130.10 79.62Q130.10 79.12 130.61 78.80Q131.11 78.47 131.62 78.47L131.62 78.47Q133.27 78.47 136.73 78.62L136.73 78.62Q140.33 78.76 141.98 78.76L141.98 78.76Q143.21 78.76 145.94 78.62L145.94 78.62Q148.54 78.47 150.05 78.47L150.05 78.47Q150.55 78.47 150.98 78.76Q151.42 79.05 151.42 79.62L151.42 79.62Q151.42 80.20 150.98 80.52Q150.55 80.85 149.98 80.99L149.98 80.99Q148.10 81.50 147.38 82.25Q146.66 83.01 146.45 84.52L146.45 84.52Q145.94 86.97 145.94 89.92L145.94 89.92L145.94 92.15Q145.94 92.58 146.30 92.94Q146.66 93.30 146.74 93.45L146.74 93.45Q146.88 93.59 147.20 94.02Q147.53 94.46 147.53 94.89L147.53 94.89Q147.53 96.26 146.23 96.40L146.23 96.40Q145.80 96.47 144.29 97.19L144.29 97.19Q141.05 98.78 137.38 99.89Q133.70 101.01 129.02 101.01L129.02 101.01ZM162.43 101.01Q159.84 101.01 157.79 98.99Q155.74 96.98 155.74 94.53L155.74 94.53Q155.74 92.15 157.10 90.60Q158.47 89.06 161.50 87.76L161.50 87.76L168.19 84.88Q169.63 84.30 169.96 83.84Q170.28 83.37 170.28 81.93L170.28 81.93L170.42 77.68Q170.50 75.66 169.56 74.44Q168.62 73.22 166.90 73.22L166.90 73.22Q165.96 73.22 164.95 73.58Q163.94 73.94 163.37 74.51L163.37 74.51Q162.86 74.94 162.86 76.17L162.86 76.17L162.94 77.97Q162.94 78.69 160.74 79.73Q158.54 80.78 157.10 80.78L157.10 80.78Q156.60 80.78 156.31 80.42Q156.02 80.06 156.02 79.55L156.02 79.55Q156.02 77.32 159.19 74.66L159.19 74.66Q161.78 72.42 165.20 70.88Q168.62 69.33 170.93 69.33L170.93 69.33Q174.38 69.33 176.47 71.60Q178.56 73.86 178.49 77.54L178.49 77.54L178.13 92.94Q178.06 94.53 178.74 95.61Q179.42 96.69 180.43 96.69L180.43 96.69Q182.02 96.69 182.88 95.82L182.88 95.82Q183.17 95.54 183.38 95.54L183.38 95.54Q183.74 95.54 184.00 95.79Q184.25 96.04 184.25 96.40L184.25 96.40Q184.25 97.19 183.10 98.34L183.10 98.34Q181.87 99.64 180.36 100.32Q178.85 101.01 177.41 101.01L177.41 101.01Q175.46 101.01 173.99 100.04Q172.51 99.06 171.22 97.05L171.22 97.05L171.00 97.05Q168.62 99.14 166.64 100.07Q164.66 101.01 162.43 101.01L162.43 101.01ZM166.46 96.69Q168.26 96.69 169.34 95.39L169.34 95.39Q169.99 94.89 170.06 93.16L170.06 93.16L170.21 88.55L170.21 88.26Q170.21 87.33 169.56 87.33L169.56 87.33Q169.13 87.33 168.48 87.62L168.48 87.62Q165.74 88.77 164.63 89.96Q163.51 91.14 163.51 93.09L163.51 93.09Q163.51 94.96 164.38 95.82Q165.24 96.69 166.46 96.69L166.46 96.69ZM187.20 100.22Q186.55 100.22 186.16 99.96Q185.76 99.71 185.76 99.28L185.76 99.28Q185.76 98.70 186.16 98.42Q186.55 98.13 187.42 97.91L187.42 97.91Q188.93 97.48 189.54 96.87Q190.15 96.26 190.15 95.18L190.15 95.18L190.15 78.98Q190.15 77.18 189.61 76.13Q189.07 75.09 187.70 74.73L187.70 74.73Q186.84 74.44 186.84 73.50L186.84 73.50Q186.84 72.64 187.63 72.42L187.63 72.42Q189.72 71.92 192.28 70.91Q194.83 69.90 196.56 68.97L196.56 68.97Q197.71 68.32 198 68.32L198 68.32Q198.58 68.32 198.58 69.04L198.58 69.04L198.36 74.66Q198.36 74.80 198.43 74.94Q198.50 75.09 198.58 75.09L198.58 75.09Q200.45 72.64 202.82 70.95Q205.20 69.26 207.50 69.26L207.50 69.26Q209.52 69.26 210.60 70.08Q211.68 70.91 211.68 72.28L211.68 72.28Q211.68 73.79 210.49 75.52Q209.30 77.25 207.94 77.25L207.94 77.25Q207.14 77.25 205.42 76.38L205.42 76.38Q203.54 75.52 202.82 75.52L202.82 75.52Q200.74 75.52 199.44 77.00Q198.14 78.47 198.14 82.07L198.14 82.07L198.14 94.74Q198.14 95.97 199.01 96.65Q199.87 97.34 201.96 97.98L201.96 97.98Q202.82 98.20 203.18 98.49Q203.54 98.78 203.54 99.28L203.54 99.28Q203.54 100.22 202.25 100.22L202.25 100.22Q200.02 100.22 198.07 100L198.07 100Q195.62 99.86 194.40 99.86L194.40 99.86Q193.32 99.86 191.02 100L191.02 100Q189.29 100.22 187.20 100.22L187.20 100.22ZM220.97 101.01Q218.38 101.01 216.32 98.99Q214.27 96.98 214.27 94.53L214.27 94.53Q214.27 92.15 215.64 90.60Q217.01 89.06 220.03 87.76L220.03 87.76L226.73 84.88Q228.17 84.30 228.49 83.84Q228.82 83.37 228.82 81.93L228.82 81.93L228.96 77.68Q229.03 75.66 228.10 74.44Q227.16 73.22 225.43 73.22L225.43 73.22Q224.50 73.22 223.49 73.58Q222.48 73.94 221.90 74.51L221.90 74.51Q221.40 74.94 221.40 76.17L221.40 76.17L221.47 77.97Q221.47 78.69 219.28 79.73Q217.08 80.78 215.64 80.78L215.64 80.78Q215.14 80.78 214.85 80.42Q214.56 80.06 214.56 79.55L214.56 79.55Q214.56 77.32 217.73 74.66L217.73 74.66Q220.32 72.42 223.74 70.88Q227.16 69.33 229.46 69.33L229.46 69.33Q232.92 69.33 235.01 71.60Q237.10 73.86 237.02 77.54L237.02 77.54L236.66 92.94Q236.59 94.53 237.28 95.61Q237.96 96.69 238.97 96.69L238.97 96.69Q240.55 96.69 241.42 95.82L241.42 95.82Q241.70 95.54 241.92 95.54L241.92 95.54Q242.28 95.54 242.53 95.79Q242.78 96.04 242.78 96.40L242.78 96.40Q242.78 97.19 241.63 98.34L241.63 98.34Q240.41 99.64 238.90 100.32Q237.38 101.01 235.94 101.01L235.94 101.01Q234.00 101.01 232.52 100.04Q231.05 99.06 229.75 97.05L229.75 97.05L229.54 97.05Q227.16 99.14 225.18 100.07Q223.20 101.01 220.97 101.01L220.97 101.01ZM225.00 96.69Q226.80 96.69 227.88 95.39L227.88 95.39Q228.53 94.89 228.60 93.16L228.60 93.16L228.74 88.55L228.74 88.26Q228.74 87.33 228.10 87.33L228.10 87.33Q227.66 87.33 227.02 87.62L227.02 87.62Q224.28 88.77 223.16 89.96Q222.05 91.14 222.05 93.09L222.05 93.09Q222.05 94.96 222.91 95.82Q223.78 96.69 225.00 96.69L225.00 96.69ZM245.59 100.22Q245.02 100.22 244.58 99.96Q244.15 99.71 244.15 99.28L244.15 99.28Q244.15 98.49 245.81 97.91L245.81 97.91Q247.32 97.48 248.00 96.98Q248.69 96.47 248.69 95.18L248.69 95.18L248.69 79.05Q248.69 77.18 248.15 76.02Q247.61 74.87 246.24 74.66L246.24 74.66Q245.52 74.51 245.52 73.43L245.52 73.43Q245.52 72.57 246.17 72.35L246.17 72.35Q251.35 71.13 255.82 68.61L255.82 68.61Q256.39 68.18 256.68 68.18L256.68 68.18Q256.97 68.18 257.11 68.39Q257.26 68.61 257.26 68.90L257.26 68.90L257.11 70.48Q257.04 70.98 256.97 71.70Q256.90 72.42 256.90 73.29L256.90 73.29Q256.90 74.01 257.04 74.15L257.04 74.15L257.18 74.15Q259.49 71.92 262.12 70.62Q264.74 69.33 268.06 69.33L268.06 69.33Q270.36 69.33 272.23 70.73Q274.10 72.14 275.04 74.66L275.04 74.66L275.33 74.66Q280.30 69.33 286.49 69.33L286.49 69.33Q289.94 69.33 292.10 72.21Q294.26 75.09 294.26 79.55L294.26 79.55L294.26 95.25Q294.26 96.54 294.91 97.01Q295.56 97.48 297.07 97.91L297.07 97.91Q298.66 98.42 298.66 99.28L298.66 99.28Q298.66 99.71 298.26 99.96Q297.86 100.22 297.29 100.22L297.29 100.22Q295.20 100.22 293.54 100L293.54 100Q291.53 99.86 290.30 99.86L290.30 99.86Q289.08 99.86 287.21 100L287.21 100Q285.70 100.22 283.68 100.22L283.68 100.22Q283.10 100.22 282.74 99.96Q282.38 99.71 282.38 99.28L282.38 99.28Q282.38 98.70 282.74 98.45Q283.10 98.20 283.90 97.91L283.90 97.91Q285.05 97.62 285.62 97.12Q286.20 96.62 286.20 95.46L286.20 95.46L286.20 80.63Q286.20 77.97 284.90 76.20Q283.61 74.44 281.66 74.44L281.66 74.44Q278.93 74.44 276.77 76.17L276.77 76.17Q275.40 77.32 275.40 79.91L275.40 79.91L275.40 95.25Q275.40 96.54 276.01 97.01Q276.62 97.48 277.99 97.91L277.99 97.91Q279.50 98.49 279.50 99.28L279.50 99.28Q279.50 99.71 279.14 99.96Q278.78 100.22 278.21 100.22L278.21 100.22Q276.26 100.22 274.61 100L274.61 100Q272.74 99.86 271.51 99.86L271.51 99.86Q270.29 99.86 268.42 100L268.42 100Q266.83 100.22 264.82 100.22L264.82 100.22Q264.31 100.22 263.92 99.96Q263.52 99.71 263.52 99.28L263.52 99.28Q263.52 98.78 263.88 98.49Q264.24 98.20 265.03 97.91L265.03 97.91Q266.26 97.62 266.83 97.12Q267.41 96.62 267.41 95.46L267.41 95.46L267.41 80.63Q267.41 77.97 266.11 76.24Q264.82 74.51 262.87 74.44L262.87 74.44Q260.21 74.44 257.90 76.17L257.90 76.17Q256.68 77.03 256.68 79.77L256.68 79.77L256.68 95.25Q256.68 96.47 257.22 97.01Q257.76 97.55 258.98 97.91L258.98 97.91Q260.50 98.49 260.50 99.28L260.50 99.28Q260.50 99.71 260.14 99.96Q259.78 100.22 259.20 100.22L259.20 100.22Q257.18 100.22 255.67 100L255.67 100Q253.80 99.86 252.58 99.86L252.58 99.86Q251.35 99.86 249.34 100L249.34 100Q247.75 100.22 245.59 100.22L245.59 100.22ZM316.94 101.01Q312.77 101.01 309.31 99.10Q305.86 97.19 303.88 93.77Q301.90 90.35 301.90 86.10L301.90 86.10Q301.90 81.71 304.09 77.82Q306.29 73.94 310.10 71.60Q313.92 69.26 318.46 69.26L318.46 69.26Q322.70 69.26 326.27 71.31Q329.83 73.36 331.92 76.78Q334.01 80.20 334.01 84.16L334.01 84.16Q334.01 88.77 332.06 92.62Q330.12 96.47 326.27 98.74Q322.42 101.01 316.94 101.01L316.94 101.01ZM318.38 98.20Q322.20 98.20 323.86 95.25L323.86 95.25Q325.37 92.51 325.37 85.89L325.37 85.89Q325.37 82.14 324.36 79.01Q323.35 75.88 321.52 74.01Q319.68 72.14 317.30 72.14L317.30 72.14Q314.42 72.14 312.77 74.08L312.77 74.08Q311.47 75.52 311.00 78.04Q310.54 80.56 310.54 84.38L310.54 84.38Q310.54 87.90 311.58 91.07Q312.62 94.24 314.42 96.22Q316.22 98.20 318.38 98.20L318.38 98.20ZM339.05 100.22Q338.47 100.22 338.04 99.96Q337.61 99.71 337.61 99.28L337.61 99.28Q337.61 98.70 338.00 98.45Q338.40 98.20 339.26 97.91L339.26 97.91Q340.78 97.48 341.46 96.98Q342.14 96.47 342.14 95.18L342.14 95.18L342.14 79.05Q342.14 77.18 341.64 76.06Q341.14 74.94 339.70 74.66L339.70 74.66Q338.98 74.37 338.98 73.43L338.98 73.43Q338.98 72.57 339.62 72.35L339.62 72.35Q344.88 71.13 348.98 68.75L348.98 68.75Q349.13 68.68 349.49 68.43Q349.85 68.18 350.14 68.18L350.14 68.18Q350.71 68.18 350.71 68.97L350.71 68.97L350.57 70.48Q350.35 73.07 350.35 73.22L350.35 73.22Q350.35 74.08 350.50 74.22L350.50 74.22Q353.09 71.78 355.68 70.55Q358.27 69.33 361.51 69.33L361.51 69.33Q365.26 69.33 367.70 72.17Q370.15 75.02 370.15 79.55L370.15 79.55L370.15 95.25Q370.15 96.54 370.80 97.01Q371.45 97.48 372.96 97.91L372.96 97.91Q373.68 98.20 374.11 98.52Q374.54 98.85 374.54 99.35L374.54 99.35Q374.54 99.78 374.11 100Q373.68 100.22 373.18 100.22L373.18 100.22Q371.09 100.22 369.43 100L369.43 100Q367.42 99.86 366.19 99.86L366.19 99.86Q365.04 99.86 362.88 100L362.88 100Q361.30 100.22 359.14 100.22L359.14 100.22Q358.70 100.22 358.31 100Q357.91 99.78 357.91 99.35L357.91 99.35Q357.91 98.42 359.35 97.91L359.35 97.91Q360.79 97.48 361.44 97.01Q362.09 96.54 362.09 95.25L362.09 95.25L362.09 80.63Q362.09 77.75 360.68 76.10Q359.28 74.44 356.90 74.44L356.90 74.44Q353.52 74.44 350.71 76.67L350.71 76.67Q350.14 77.03 350.14 78.11L350.14 78.11L350.14 95.25Q350.14 96.54 350.78 97.01Q351.43 97.48 352.87 97.91L352.87 97.91Q354.38 98.34 354.38 99.28L354.38 99.28Q354.38 99.71 354.02 99.96Q353.66 100.22 353.09 100.22L353.09 100.22Q351.07 100.22 349.42 100L349.42 100Q347.40 99.86 346.25 99.86L346.25 99.86Q345.17 99.86 342.86 100L342.86 100Q341.14 100.22 339.05 100.22L339.05 100.22ZM401.62 101.37Q401.40 101.37 401.00 100.97Q400.61 100.58 400.61 100.36L400.61 100.36Q400.90 98.56 401.04 96.33L401.04 96.33L401.04 95.90Q399.60 98.06 397.04 99.53Q394.49 101.01 391.54 101.01L391.54 101.01Q387.58 101.01 384.44 98.96Q381.31 96.90 379.55 93.48Q377.78 90.06 377.78 86.10L377.78 86.10Q377.78 81.42 379.91 77.64Q382.03 73.86 385.88 71.67Q389.74 69.47 394.70 69.47L394.70 69.47Q397.15 69.47 399.38 70.12L399.38 70.12L400.32 70.34Q400.68 70.34 400.68 69.11L400.68 69.11L400.68 60.04Q400.68 57.45 400.00 56.33Q399.31 55.22 397.66 54.86L397.66 54.86Q396.86 54.64 396.86 53.78L396.86 53.78Q396.86 52.98 397.58 52.77L397.58 52.77Q402.84 51.54 406.94 49.74L406.94 49.74Q408.02 49.24 408.38 49.24L408.38 49.24Q409.10 49.24 409.10 49.96L409.10 49.96Q409.10 50.03 408.92 51.65Q408.74 53.27 408.67 56.51L408.67 56.51L408.46 91.58Q408.46 94.10 408.82 95.14Q409.18 96.18 410.04 96.18L410.04 96.18Q411.12 96.18 412.99 95.97L412.99 95.97L413.35 95.97Q413.71 95.97 413.89 96.11Q414.07 96.26 414.07 96.69L414.07 96.69Q414.07 97.26 413.68 97.80Q413.28 98.34 412.92 98.34L412.92 98.34Q407.59 99.06 402.84 100.94L402.84 100.94Q401.98 101.37 401.62 101.37L401.62 101.37ZM394.85 96.47Q396.29 96.47 397.94 95.79Q399.60 95.10 400.68 93.88L400.68 93.88L400.68 78.90Q400.68 77.46 399.64 75.95Q398.59 74.44 396.94 73.47Q395.28 72.50 393.48 72.50L393.48 72.50Q391.68 72.50 390.02 73.83Q388.37 75.16 387.29 77.79Q386.21 80.42 386.21 84.23L386.21 84.23Q386.21 88.34 387.54 91.11Q388.87 93.88 390.89 95.18Q392.90 96.47 394.85 96.47L394.85 96.47ZM442.08 101.01Q437.11 101.01 433.80 98.56L433.80 98.56Q433.30 97.62 433.01 95.46Q432.72 93.30 432.79 91.14L432.79 91.14Q432.79 90.71 433.15 90.50Q433.51 90.28 434.02 90.28L434.02 90.28Q434.45 90.28 434.84 90.57Q435.24 90.86 435.38 91.22L435.38 91.22Q436.61 94.53 438.48 96.36Q440.35 98.20 442.73 98.20L442.73 98.20Q444.67 98.20 445.86 97.01Q447.05 95.82 447.05 94.02L447.05 94.02Q447.05 92.22 445.75 90.93Q444.46 89.63 441.79 88.12L441.79 88.12Q437.98 86.03 436.00 83.80Q434.02 81.57 434.02 78.26L434.02 78.26Q434.02 74.30 437.04 71.78Q440.06 69.26 444.96 69.26L444.96 69.26Q447.12 69.26 448.96 69.72Q450.79 70.19 451.66 70.77L451.66 70.77Q452.23 71.49 452.59 73.36Q452.95 75.23 452.95 77.39L452.95 77.39Q452.95 77.68 452.63 77.86Q452.30 78.04 451.87 78.04L451.87 78.04Q451.37 78.04 450.86 77.79Q450.36 77.54 450.22 77.18L450.22 77.18Q448.20 71.78 444.53 71.78L444.53 71.78Q442.80 71.78 441.50 72.86Q440.21 73.94 440.21 75.74L440.21 75.74Q440.21 77.18 441.40 78.40Q442.58 79.62 445.10 80.99L445.10 80.99Q449.86 83.58 451.76 85.78Q453.67 87.98 453.67 91.50L453.67 91.50Q453.67 95.90 450.61 98.45Q447.55 101.01 442.08 101.01L442.08 101.01ZM471.02 101.01Q467.14 101.01 464.08 98.99Q461.02 96.98 459.29 93.41Q457.56 89.85 457.56 85.31L457.56 85.31Q457.56 80.99 459.61 77.32Q461.66 73.65 465.12 71.49Q468.58 69.33 472.68 69.33L472.68 69.33Q477.22 69.33 480.24 72.06Q483.26 74.80 483.26 78.98L483.26 78.98Q483.26 80.27 482.72 80.92Q482.18 81.57 481.03 81.57L481.03 81.57L466.42 81.57Q465.41 81.57 464.98 82.14Q464.54 82.72 464.54 84.09L464.54 84.09Q464.54 87.11 465.84 89.56Q467.14 92.01 469.40 93.45Q471.67 94.89 474.48 94.89L474.48 94.89Q478.22 94.89 481.68 91.79L481.68 91.79Q482.26 91.22 482.62 91.22L482.62 91.22Q482.90 91.22 483.12 91.47Q483.34 91.72 483.34 92.08L483.34 92.08Q483.34 93.02 482.47 94.53L482.47 94.53Q481.18 97.26 478.08 99.14Q474.98 101.01 471.02 101.01L471.02 101.01ZM466.49 78.76L471.53 78.76Q474.70 78.76 476.14 78.40L476.14 78.40Q476.78 78.26 476.78 76.53L476.78 76.53Q476.78 74.58 475.31 73.25Q473.83 71.92 471.67 71.92L471.67 71.92Q470.16 71.92 468.72 72.82Q467.28 73.72 466.38 75.12Q465.48 76.53 465.48 77.90L465.48 77.90Q465.48 78.76 466.49 78.76L466.49 78.76ZM488.16 100.22Q487.58 100.22 487.15 99.96Q486.72 99.71 486.72 99.28L486.72 99.28Q486.72 98.49 488.38 97.91L488.38 97.91Q489.89 97.48 490.57 96.98Q491.26 96.47 491.26 95.18L491.26 95.18L491.26 79.05Q491.26 77.18 490.72 76.02Q490.18 74.87 488.81 74.66L488.81 74.66Q488.09 74.51 488.09 73.43L488.09 73.43Q488.09 72.57 488.74 72.35L488.74 72.35Q493.92 71.13 498.38 68.61L498.38 68.61Q498.96 68.18 499.25 68.18L499.25 68.18Q499.54 68.18 499.68 68.39Q499.82 68.61 499.82 68.90L499.82 68.90L499.68 70.48Q499.61 70.98 499.54 71.70Q499.46 72.42 499.46 73.29L499.46 73.29Q499.46 74.01 499.61 74.15L499.61 74.15L499.75 74.15Q502.06 71.92 504.68 70.62Q507.31 69.33 510.62 69.33L510.62 69.33Q512.93 69.33 514.80 70.73Q516.67 72.14 517.61 74.66L517.61 74.66L517.90 74.66Q522.86 69.33 529.06 69.33L529.06 69.33Q532.51 69.33 534.67 72.21Q536.83 75.09 536.83 79.55L536.83 79.55L536.83 95.25Q536.83 96.54 537.48 97.01Q538.13 97.48 539.64 97.91L539.64 97.91Q541.22 98.42 541.22 99.28L541.22 99.28Q541.22 99.71 540.83 99.96Q540.43 100.22 539.86 100.22L539.86 100.22Q537.77 100.22 536.11 100L536.11 100Q534.10 99.86 532.87 99.86L532.87 99.86Q531.65 99.86 529.78 100L529.78 100Q528.26 100.22 526.25 100.22L526.25 100.22Q525.67 100.22 525.31 99.96Q524.95 99.71 524.95 99.28L524.95 99.28Q524.95 98.70 525.31 98.45Q525.67 98.20 526.46 97.91L526.46 97.91Q527.62 97.62 528.19 97.12Q528.77 96.62 528.77 95.46L528.77 95.46L528.77 80.63Q528.77 77.97 527.47 76.20Q526.18 74.44 524.23 74.44L524.23 74.44Q521.50 74.44 519.34 76.17L519.34 76.17Q517.97 77.32 517.97 79.91L517.97 79.91L517.97 95.25Q517.97 96.54 518.58 97.01Q519.19 97.48 520.56 97.91L520.56 97.91Q522.07 98.49 522.07 99.28L522.07 99.28Q522.07 99.71 521.71 99.96Q521.35 100.22 520.78 100.22L520.78 100.22Q518.83 100.22 517.18 100L517.18 100Q515.30 99.86 514.08 99.86L514.08 99.86Q512.86 99.86 510.98 100L510.98 100Q509.40 100.22 507.38 100.22L507.38 100.22Q506.88 100.22 506.48 99.96Q506.09 99.71 506.09 99.28L506.09 99.28Q506.09 98.78 506.45 98.49Q506.81 98.20 507.60 97.91L507.60 97.91Q508.82 97.62 509.40 97.12Q509.98 96.62 509.98 95.46L509.98 95.46L509.98 80.63Q509.98 77.97 508.68 76.24Q507.38 74.51 505.44 74.44L505.44 74.44Q502.78 74.44 500.47 76.17L500.47 76.17Q499.25 77.03 499.25 79.77L499.25 79.77L499.25 95.25Q499.25 96.47 499.79 97.01Q500.33 97.55 501.55 97.91L501.55 97.91Q503.06 98.49 503.06 99.28L503.06 99.28Q503.06 99.71 502.70 99.96Q502.34 100.22 501.77 100.22L501.77 100.22Q499.75 100.22 498.24 100L498.24 100Q496.37 99.86 495.14 99.86L495.14 99.86Q493.92 99.86 491.90 100L491.90 100Q490.32 100.22 488.16 100.22L488.16 100.22ZM545.40 100.22Q544.82 100.22 544.46 99.96Q544.10 99.71 544.10 99.28L544.10 99.28Q544.10 98.34 545.54 97.98L545.54 97.98Q547.34 97.55 548.06 97.01Q548.78 96.47 548.78 95.32L548.78 95.32L548.78 79.70Q548.78 77.39 548.06 76.24Q547.34 75.09 545.62 74.80L545.62 74.80Q545.26 74.73 545.04 74.40Q544.82 74.08 544.82 73.65L544.82 73.65Q544.82 72.71 545.62 72.57L545.62 72.57Q550.37 71.49 555.55 68.61L555.55 68.61Q556.56 68.10 556.85 68.10L556.85 68.10Q557.64 68.10 557.64 68.82L557.64 68.82L557.42 71.27Q556.85 75.88 556.85 79.05L556.85 79.05L556.85 95.25Q556.85 96.33 557.53 96.87Q558.22 97.41 560.09 97.98L560.09 97.98Q560.88 98.27 561.24 98.52Q561.60 98.78 561.60 99.28L561.60 99.28Q561.60 100.14 560.30 100.14L560.30 100.14Q558.94 100.14 556.34 100L556.34 100Q554.04 99.86 552.74 99.86L552.74 99.86Q551.59 99.86 549.29 100L549.29 100Q547.49 100.22 545.40 100.22L545.40 100.22ZM552.60 63.93Q550.51 63.93 549.07 62.49Q547.63 61.05 547.63 59.03L547.63 59.03Q547.63 56.87 549.07 55.40Q550.51 53.92 552.60 53.92L552.60 53.92Q554.76 53.92 556.20 55.40Q557.64 56.87 557.64 59.03L557.64 59.03Q557.64 61.12 556.20 62.52Q554.76 63.93 552.60 63.93L552.60 63.93ZM598.25 101.01Q595.01 101.01 591.48 99.93L591.48 99.93Q590.83 99.78 589.50 99.42Q588.17 99.06 587.66 99.06L587.66 99.06Q586.58 99.06 585.50 100L585.50 100Q585 100.43 584.57 100.43L584.57 100.43Q584.06 100.43 583.70 100.18Q583.34 99.93 583.34 99.57L583.34 99.57Q583.34 98.99 583.70 97.05Q584.06 95.10 583.99 93.02L583.99 93.02L583.85 60.04Q583.85 55.65 580.82 54.86L580.82 54.86Q579.96 54.57 579.96 53.70L579.96 53.70Q579.96 52.91 580.75 52.77L580.75 52.77Q582.98 52.34 589.18 50.03L589.18 50.03L590.54 49.53Q591.12 49.24 591.41 49.24L591.41 49.24Q591.70 49.24 591.88 49.46Q592.06 49.67 592.06 49.96L592.06 49.96Q592.06 50.39 591.91 52.08Q591.77 53.78 591.77 55.50L591.77 55.50L591.77 70.70Q591.77 72.86 592.42 72.86L592.42 72.86Q594.65 71.20 597.24 70.26Q599.83 69.33 602.06 69.33L602.06 69.33Q605.74 69.33 608.76 71.24Q611.78 73.14 613.51 76.49Q615.24 79.84 615.24 83.94L615.24 83.94Q615.24 88.98 613.08 92.84Q610.92 96.69 607.07 98.85Q603.22 101.01 598.25 101.01L598.25 101.01ZM599.62 98.20Q602.86 98.20 604.76 94.64Q606.67 91.07 606.67 85.74L606.67 85.74Q606.67 82.72 605.77 79.80Q604.87 76.89 603.04 74.94Q601.20 73 598.54 73L598.54 73Q596.66 73 594.83 73.61Q592.99 74.22 591.77 75.23L591.77 75.23L591.77 90.06Q591.77 93.59 594.11 95.90Q596.45 98.20 599.62 98.20L599.62 98.20ZM634.18 101.01Q630 101.01 626.54 99.10Q623.09 97.19 621.11 93.77Q619.13 90.35 619.13 86.10L619.13 86.10Q619.13 81.71 621.32 77.82Q623.52 73.94 627.34 71.60Q631.15 69.26 635.69 69.26L635.69 69.26Q639.94 69.26 643.50 71.31Q647.06 73.36 649.15 76.78Q651.24 80.20 651.24 84.16L651.24 84.16Q651.24 88.77 649.30 92.62Q647.35 96.47 643.50 98.74Q639.65 101.01 634.18 101.01L634.18 101.01ZM635.62 98.20Q639.43 98.20 641.09 95.25L641.09 95.25Q642.60 92.51 642.60 85.89L642.60 85.89Q642.60 82.14 641.59 79.01Q640.58 75.88 638.75 74.01Q636.91 72.14 634.54 72.14L634.54 72.14Q631.66 72.14 630 74.08L630 74.08Q628.70 75.52 628.24 78.04Q627.77 80.56 627.77 84.38L627.77 84.38Q627.77 87.90 628.81 91.07Q629.86 94.24 631.66 96.22Q633.46 98.20 635.62 98.20L635.62 98.20ZM654.84 100.22Q654.26 100.22 653.83 100Q653.40 99.78 653.40 99.35L653.40 99.35Q653.40 98.85 653.83 98.52Q654.26 98.20 655.06 97.91L655.06 97.91Q655.27 97.84 656.17 97.55Q657.07 97.26 657.50 96.69Q657.94 96.11 657.94 95.18L657.94 95.18L657.94 60.04Q657.94 57.88 657.25 56.55Q656.57 55.22 654.91 54.86L654.91 54.86Q654.55 54.78 654.37 54.50Q654.19 54.21 654.19 53.78L654.19 53.78Q654.19 52.91 654.84 52.77L654.84 52.77Q657.79 52.12 663.48 50.03L663.48 50.03L664.99 49.46Q665.42 49.24 665.71 49.24L665.71 49.24Q666.36 49.24 666.36 49.96L666.36 49.96Q666.36 50.46 666.14 52.23Q665.93 53.99 665.93 56.51L665.93 56.51L665.93 95.10Q665.93 96.33 666.50 96.80Q667.08 97.26 667.80 97.52Q668.52 97.77 668.74 97.84L668.74 97.84Q670.39 98.34 670.39 99.28L670.39 99.28Q670.39 99.71 670.00 99.93Q669.60 100.14 668.95 100.14L668.95 100.14Q667.44 100.14 665.14 100L665.14 100Q662.98 99.86 661.75 99.86L661.75 99.86Q660.53 99.86 658.51 100L658.51 100Q656.93 100.22 654.84 100.22L654.84 100.22ZM696.60 101.37Q696.38 101.37 695.99 100.97Q695.59 100.58 695.59 100.36L695.59 100.36Q695.88 98.56 696.02 96.33L696.02 96.33L696.02 95.90Q694.58 98.06 692.03 99.53Q689.47 101.01 686.52 101.01L686.52 101.01Q682.56 101.01 679.43 98.96Q676.30 96.90 674.53 93.48Q672.77 90.06 672.77 86.10L672.77 86.10Q672.77 81.42 674.89 77.64Q677.02 73.86 680.87 71.67Q684.72 69.47 689.69 69.47L689.69 69.47Q692.14 69.47 694.37 70.12L694.37 70.12L695.30 70.34Q695.66 70.34 695.66 69.11L695.66 69.11L695.66 60.04Q695.66 57.45 694.98 56.33Q694.30 55.22 692.64 54.86L692.64 54.86Q691.85 54.64 691.85 53.78L691.85 53.78Q691.85 52.98 692.57 52.77L692.57 52.77Q697.82 51.54 701.93 49.74L701.93 49.74Q703.01 49.24 703.37 49.24L703.37 49.24Q704.09 49.24 704.09 49.96L704.09 49.96Q704.09 50.03 703.91 51.65Q703.73 53.27 703.66 56.51L703.66 56.51L703.44 91.58Q703.44 94.10 703.80 95.14Q704.16 96.18 705.02 96.18L705.02 96.18Q706.10 96.18 707.98 95.97L707.98 95.97L708.34 95.97Q708.70 95.97 708.88 96.11Q709.06 96.26 709.06 96.69L709.06 96.69Q709.06 97.26 708.66 97.80Q708.26 98.34 707.90 98.34L707.90 98.34Q702.58 99.06 697.82 100.94L697.82 100.94Q696.96 101.37 696.60 101.37L696.60 101.37ZM689.83 96.47Q691.27 96.47 692.93 95.79Q694.58 95.10 695.66 93.88L695.66 93.88L695.66 78.90Q695.66 77.46 694.62 75.95Q693.58 74.44 691.92 73.47Q690.26 72.50 688.46 72.50L688.46 72.50Q686.66 72.50 685.01 73.83Q683.35 75.16 682.27 77.79Q681.19 80.42 681.19 84.23L681.19 84.23Q681.19 88.34 682.52 91.11Q683.86 93.88 685.87 95.18Q687.89 96.47 689.83 96.47L689.83 96.47Z"/></svg>