<svg xmlns="http://www.w3.org/2000/svg" viewBox="-3.3840000000000003 49.096 887.8319999999999 51.984"><path d="M-2 100Q-3 100-3 99L-3 99Q-3 99-3 99Q-2 98-1 98L-1 98Q2 97 3 96Q5 95 5 93L5 93L15 60Q16 59 16 58L16 58Q16 57 15 56Q14 56 12 55L12 55Q10 55 11 54L11 54Q11 53 13 53L13 53L16 53Q22 53 22 53L22 53L34 53Q39 53 41 53Q43 52 44 52L44 52Q44 52 44 53Q45 53 45 54L45 54Q45 54 44 57L44 57Q43 61 43 62L43 62Q43 63 42 64Q42 64 42 64L42 64Q41 64 41 64Q41 63 41 62L41 62Q40 58 40 57Q39 56 36 56L36 56L29 56Q27 56 26 56Q25 57 25 60L25 60L21 73Q21 73 21 74L21 74Q21 75 22 75L22 75L29 75Q31 75 32 74Q34 73 35 71L35 71Q35 70 36 70Q36 69 37 69L37 69Q38 69 38 70L38 70Q38 70 37 71L37 71Q36 73 35 76L35 76Q34 79 34 82L34 82Q33 84 32 84L32 84Q32 84 32 83Q31 83 31 82L31 82Q32 77 29 77L29 77L21 77Q20 77 20 78Q19 78 19 79L19 79L15 92Q15 94 15 95L15 95Q15 96 15 97Q16 98 18 98L18 98L26 98Q29 98 32 96L32 96Q33 95 34 93Q35 92 37 90L37 90Q37 90 37 89Q37 89 38 89Q38 89 38 89L38 89Q39 89 39 90L39 90Q39 91 38 94Q36 97 35 99L35 99Q34 100 33 100L33 100L23 100Q13 100 8 100L8 100Q5 100 3 100L3 100Q-1 100-2 100L-2 100ZM40 100Q39 100 39 99L39 99Q39 99 39 99Q40 98 41 98L41 98Q44 97 45 96Q47 95 47 93L47 93L57 60Q58 59 58 58L58 58Q58 57 57 56Q56 56 55 55L55 55Q54 55 53 55Q53 55 53 54L53 54Q53 54 54 53Q54 53 55 53L55 53Q57 53 60 53L60 53Q60 53 61 53Q62 53 63 53L63 53Q64 53 67 53L67 53Q70 53 72 53L72 53Q79 53 82 55Q86 58 86 62L86 62Q86 65 84 68Q82 70 79 72Q76 73 73 74L73 74Q72 74 72 74Q72 74 73 75L73 75Q77 76 79 79Q82 81 82 86L82 86Q82 93 76 97Q69 100 60 100L60 100Q57 100 54 100L54 100Q51 100 50 100L50 100Q48 100 45 100L45 100Q44 100 43 100Q42 100 40 100L40 100ZM65 74Q67 74 70 72L70 72Q74 71 76 68Q77 65 77 62L77 62Q77 59 76 57Q74 55 71 55L71 55Q69 55 68 55Q68 56 67 57L67 57L63 72Q63 72 63 73L63 73Q63 74 65 74L65 74ZM60 98Q63 98 66 96Q69 94 71 91Q72 88 72 84L72 84Q72 80 70 78Q68 76 64 76L64 76Q63 76 62 76Q61 77 61 77L61 77L57 93Q56 94 56 94L56 94Q56 96 57 96L57 96Q58 98 60 98L60 98ZM127 101Q121 101 116 99Q112 97 109 92Q106 88 106 82L106 82Q106 80 107 77L107 77Q108 70 112 65Q117 59 123 56Q130 52 139 52L139 52Q141 52 142 53Q144 53 146 54L146 54Q147 54 148 54Q149 55 150 55L150 55Q151 55 152 54L152 54Q153 53 154 53L154 53Q154 53 154 54L154 54Q154 55 154 55L154 55Q153 57 151 60Q150 63 149 66L149 66Q149 68 147 68L147 68Q146 68 146 66L146 66Q146 65 146 65L146 65Q146 64 146 63L146 63Q146 60 145 58L145 58Q144 57 142 56Q140 55 138 55L138 55Q133 55 128 58Q123 61 120 67Q117 73 116 80L116 80Q115 83 115 84L115 84Q115 88 117 92Q119 95 122 97Q125 99 128 99L128 99Q131 99 133 97Q135 95 136 93L136 93L138 85Q138 84 138 84L138 84Q138 82 137 82L137 82Q136 82 133 81L133 81Q131 80 131 80L131 80Q131 79 132 79Q132 78 133 78L133 78Q135 78 138 79L138 79Q142 79 143 79L143 79Q145 79 147 79L147 79Q150 78 152 78L152 78Q152 78 152 79Q153 79 153 79L153 79Q153 81 151 81L151 81Q149 81 148 82Q147 83 146 84L146 84Q145 86 144 89Q143 92 143 92L143 92Q143 93 144 94Q144 94 145 95L145 95Q144 96 141 98Q138 99 134 100Q130 101 127 101L127 101ZM156 101Q154 101 153 100Q151 99 151 98L151 98Q151 94 155 89Q158 84 165 77L165 77Q168 74 171 72Q174 70 175 70L175 70Q176 70 177 70Q178 70 178 71L178 71Q179 72 179 72L179 72Q179 72 179 72Q179 72 180 72L180 72Q180 71 180 70Q181 69 181 69L181 69Q181 69 181 69Q182 68 182 68L182 68Q184 68 185 69Q187 70 187 71L187 71Q187 72 186 72L186 72L179 92Q179 93 179 93L179 93Q179 94 180 94L180 94Q181 94 183 93Q184 92 186 90L186 90Q186 90 186 90L186 90Q187 90 187 90Q187 90 187 91L187 91Q187 92 186 93Q185 95 183 97L183 97Q180 99 178 100Q176 101 174 101L174 101Q173 101 171 100Q170 99 170 97L170 97Q170 97 170 96L170 96Q170 96 173 89L173 89Q173 89 173 89L173 89Q173 88 173 88Q173 88 173 89L173 89Q167 95 163 98Q159 101 156 101L156 101ZM162 94Q163 94 166 92Q169 90 172 86L172 86Q175 83 176 80Q177 78 177 77L177 77Q177 76 176 75L176 75Q175 74 174 74L174 74Q173 74 171 76Q169 77 167 79L167 79Q164 81 162 85Q160 89 160 92L160 92Q160 93 160 94Q161 94 162 94L162 94ZM195 101Q194 101 193 100Q192 99 192 98L192 98Q192 97 193 95L193 95L200 77Q200 76 200 76L200 76Q200 75 199 75L199 75Q198 75 197 75Q196 75 195 76L195 76Q194 77 194 77L194 77Q194 77 193 76L193 76Q193 75 194 73Q195 72 197 71L197 71Q199 70 200 70Q202 69 203 69L203 69Q207 69 207 73L207 73Q207 75 206 77L206 77L203 84Q203 85 203 85L203 85Q203 85 203 85L203 85Q203 85 204 85L204 85Q212 69 219 69L219 69Q221 69 222 70Q223 71 223 73L223 73Q223 75 222 77Q221 78 220 79Q219 80 218 80L218 80Q217 80 217 80Q217 79 216 78L216 78Q216 75 215 75L215 75Q214 75 212 76Q211 77 209 80L209 80Q208 82 205 87Q203 91 200 95L200 95Q199 98 197 100Q196 101 195 101L195 101ZM220 101Q219 101 218 100Q216 99 216 98L216 98Q216 94 219 89Q223 84 230 77L230 77Q233 74 236 72Q238 70 240 70L240 70Q240 70 241 70Q242 70 243 71L243 71Q244 72 244 72L244 72Q244 72 244 72Q244 72 244 72L244 72Q245 71 245 70Q246 69 246 69L246 69Q246 69 246 69Q246 68 247 68L247 68Q248 68 250 69Q251 70 251 71L251 71Q251 72 251 72L251 72L244 92Q244 93 244 93L244 93Q244 94 245 94L245 94Q246 94 247 93Q249 92 251 90L251 90Q251 90 251 90L251 90Q251 90 252 90Q252 90 252 91L252 91Q252 92 251 93Q249 95 248 97L248 97Q245 99 243 100Q240 101 239 101L239 101Q237 101 236 100Q234 99 234 97L234 97Q234 97 235 96L235 96Q235 96 238 89L238 89Q238 89 238 89L238 89Q238 88 238 88Q237 88 237 89L237 89Q231 95 227 98Q223 101 220 101L220 101ZM227 94Q228 94 231 92Q234 90 237 86L237 86Q239 83 241 80Q242 78 242 77L242 77Q242 76 241 75L241 75Q239 74 239 74L239 74Q237 74 235 76Q233 77 231 79L231 79Q229 81 227 85Q225 89 225 92L225 92Q225 93 225 94Q226 94 227 94L227 94ZM260 101Q259 101 258 100Q257 99 257 98L257 98Q257 97 258 95L258 95L265 77Q266 76 266 76L266 76Q266 75 264 75L264 75Q262 75 259 78L259 78Q259 78 258 78L258 78Q258 78 258 78Q258 78 258 77L258 77Q258 77 258 75Q259 74 260 73L260 73Q262 71 264 70Q266 69 269 69L269 69Q270 69 271 70Q272 71 272 73L272 73Q272 74 272 75L272 75L268 85L268 85Q268 85 268 85L268 85Q268 85 269 85L269 85Q273 77 277 73Q281 69 285 69L285 69Q287 69 288 71Q290 72 290 74L290 74Q290 77 289 79L289 79L287 83L287 83Q287 83 287 83L287 83Q288 83 288 83L288 83Q292 76 296 73Q300 69 304 69L304 69Q306 69 307 71Q308 72 308 74L308 74Q308 76 307 79L307 79L302 92Q301 93 301 94L301 94Q301 95 302 95L302 95Q303 95 308 90L308 90Q309 89 309 89L309 89Q310 89 310 90Q310 90 310 90L310 90Q310 92 309 93L309 93Q305 96 302 99Q298 101 295 101L295 101Q294 101 293 100Q291 99 291 98L291 98Q291 98 292 98L292 98L301 76Q301 75 301 75L301 75Q301 74 301 74Q300 73 300 73L300 73Q298 73 294 79L294 79Q291 83 283 96L283 96Q282 98 280 100Q278 101 277 101L277 101Q276 101 275 100Q274 99 274 98L274 98Q274 97 275 94L275 94L283 76Q283 75 283 75L283 75Q283 74 283 74Q282 73 282 73L282 73Q281 73 279 75Q277 76 275 79L275 79Q273 83 265 96L265 96Q264 98 263 100Q262 101 260 101L260 101ZM323 101Q320 101 318 100Q316 98 315 96Q313 94 313 92L313 92Q313 87 316 82Q319 76 323 73Q328 69 333 69L333 69Q338 69 340 72Q343 75 343 79L343 79Q343 84 340 89Q338 94 333 97Q329 101 323 101L323 101ZM324 98Q326 98 329 94Q332 90 333 85Q335 79 335 75L335 75Q335 72 332 72L332 72Q330 72 328 76Q325 79 323 85Q321 90 321 95L321 95Q321 98 324 98L324 98ZM351 101Q350 101 348 100Q347 99 347 97L347 97Q347 96 347 96L347 96L355 77Q355 76 355 76L355 76Q355 75 355 75L355 75Q353 75 352 75Q350 76 349 78L349 78Q349 78 348 78L348 78Q348 78 348 78Q348 78 348 77L348 77Q348 77 348 75Q349 74 350 73L350 73Q354 69 359 69L359 69Q361 69 362 70Q363 71 363 73L363 73Q363 74 362 74L362 74L358 85L358 85Q358 85 359 85L359 85Q359 85 359 85L359 85Q368 69 375 69L375 69Q378 69 379 71Q380 72 380 75L380 75Q380 77 380 78L380 78L374 92Q373 93 373 94L373 94Q373 95 374 95L374 95Q375 95 377 93Q380 91 381 90L381 90Q381 90 382 90L382 90Q382 90 382 90Q382 90 382 90L382 90Q382 92 382 93L382 93Q378 96 374 99Q370 101 367 101L367 101Q366 101 365 100Q364 99 364 98L364 98Q364 98 364 97L364 97Q367 91 367 89L367 89Q371 83 373 77L373 77Q373 76 373 75L373 75Q373 73 372 73L372 73Q371 73 370 75Q368 77 365 80L365 80Q364 82 361 88Q357 93 355 97L355 97Q354 99 353 100Q352 101 351 101L351 101ZM426 53L414 92Q413 93 413 93L413 93Q413 94 414 94L414 94Q415 94 417 93Q419 91 421 90L421 90Q421 89 421 89L421 89Q422 89 422 90L422 90Q422 92 419 94Q417 97 414 99Q411 101 409 101L409 101Q407 101 406 100Q404 99 404 97L404 97Q404 97 405 95L405 95Q407 90 407 90L407 90Q407 89 407 89Q407 89 406 89L406 89Q401 96 398 98Q394 101 391 101L391 101Q388 101 387 99Q385 98 385 95L385 95Q385 91 388 86Q390 81 394 76L394 76Q397 73 400 71Q403 69 405 69L405 69Q407 69 408 70Q409 70 411 71L411 71Q412 72 412 72L412 72Q412 72 412 72Q412 72 413 72L413 72L416 59Q417 56 417 56L417 56Q417 55 417 55Q416 54 415 53L415 53Q413 53 413 53Q413 53 413 52L413 52Q413 52 413 52Q414 51 415 51L415 51Q417 50 421 50Q424 49 425 49L425 49Q427 49 427 50L427 50Q427 51 426 53L426 53ZM395 95Q398 95 402 92Q405 89 408 84Q410 80 410 76L410 76Q410 74 410 73Q409 72 407 72L407 72Q405 72 401 76Q398 80 396 84Q393 89 393 93L393 93Q393 94 394 95Q394 95 395 95L395 95ZM407 90L407 90L407 90ZM445 101Q442 101 440 100Q439 99 439 97L439 97Q439 95 440 94Q440 93 442 93L442 93Q442 93 443 93Q443 94 444 95L444 95Q446 96 447 97Q448 97 449 97L449 97Q450 97 451 96Q452 96 452 94L452 94Q452 92 449 88L449 88Q446 83 446 80L446 80Q446 78 448 75Q450 73 453 71Q456 69 457 69L457 69Q459 69 460 70Q462 71 463 72Q464 73 464 73L464 73Q464 74 462 76Q461 77 460 77L460 77Q459 77 458 76L458 76Q457 75 456 74Q455 74 454 74L454 74Q453 74 453 74Q452 75 452 76L452 76Q452 78 455 82L455 82Q459 87 459 90L459 90Q459 93 457 95Q454 98 451 99Q448 101 445 101L445 101ZM472 101Q470 101 468 100Q466 99 465 97Q463 95 463 93L463 93Q463 87 466 82Q469 76 473 73Q478 69 482 69L482 69Q486 69 488 71Q490 72 490 74L490 74Q490 78 485 81Q480 83 473 85L473 85Q472 85 472 85L472 85Q471 88 471 89L471 89Q471 92 472 93Q474 95 476 95L476 95Q478 95 480 94Q481 93 483 91L483 91Q484 90 484 90L484 90Q485 90 485 91L485 91Q485 92 485 92L485 92Q483 96 479 99Q476 101 472 101L472 101ZM473 82Q477 82 480 80Q483 78 483 74L483 74Q483 73 483 72Q482 72 481 72L481 72Q480 72 478 73Q476 75 474 77Q473 80 473 82L473 82L473 82Q473 82 473 82L473 82ZM496 101Q495 101 494 100Q492 99 492 98L492 98Q492 97 493 95L493 95L501 77Q501 76 501 76L501 76Q501 75 500 75L500 75Q497 75 494 78L494 78Q494 78 494 78L494 78Q493 78 493 78Q493 78 493 77L493 77Q493 77 494 75Q494 74 495 73L495 73Q497 71 499 70Q501 69 504 69L504 69Q506 69 507 70Q508 71 508 73L508 73Q508 74 507 75L507 75L503 85L503 85Q503 85 503 85L503 85Q504 85 504 85L504 85Q509 77 512 73Q516 69 520 69L520 69Q522 69 524 71Q525 72 525 74L525 74Q525 77 524 79L524 79L522 83L522 83Q522 83 523 83L523 83Q523 83 523 83L523 83Q527 76 531 73Q535 69 539 69L539 69Q541 69 542 71Q543 72 543 74L543 74Q543 76 542 79L542 79L537 92Q536 93 536 94L536 94Q536 95 537 95L537 95Q539 95 544 90L544 90Q544 89 545 89L545 89Q545 89 545 90Q545 90 545 90L545 90Q545 92 544 93L544 93Q541 96 537 99Q533 101 530 101L530 101Q529 101 528 100Q527 99 527 98L527 98Q527 98 527 98L527 98L536 76Q536 75 536 75L536 75Q536 74 536 74Q536 73 535 73L535 73Q533 73 529 79L529 79Q526 83 518 96L518 96Q517 98 515 100Q513 101 512 101L512 101Q511 101 510 100Q509 99 509 98L509 98Q509 97 511 94L511 94L518 76Q518 75 518 75L518 75Q518 74 518 74Q518 73 517 73L517 73Q516 73 514 75Q513 76 510 79L510 79Q508 83 501 96L501 96Q499 98 498 100Q497 101 496 101L496 101ZM554 101Q552 101 551 100Q550 99 550 98L550 98Q550 97 550 96L550 96Q552 92 556 82L556 82L558 78Q558 77 557 77L557 77Q556 77 553 79L553 79Q552 80 552 80L552 80Q551 80 551 79L551 79Q551 78 553 76Q555 74 558 72Q561 70 563 69L563 69Q564 69 564 69L564 69Q565 69 566 70Q567 71 567 72L567 72L559 93Q558 93 558 94L558 94Q558 94 559 94Q559 95 559 95L559 95Q560 95 562 93Q565 91 567 89L567 89Q567 89 567 89L567 89Q567 89 567 89Q568 90 568 90L568 90Q568 92 565 94Q563 97 559 99Q556 101 554 101L554 101ZM567 63Q566 63 565 62Q564 61 564 60L564 60Q564 58 565 56Q567 54 569 54L569 54Q571 54 572 55Q573 57 573 58L573 58Q573 60 571 62Q569 63 567 63L567 63ZM599 101Q595 101 593 99Q591 97 591 94L591 94Q591 90 593 86L593 86L601 60Q602 58 602 56L602 56Q602 56 601 55Q601 55 599 54L599 54Q598 54 598 53L598 53Q598 53 598 52Q598 52 599 52L599 52Q602 51 605 50Q609 49 610 49L610 49Q612 49 612 50L612 50Q612 51 611 53L611 53Q607 61 601 81L601 81Q601 81 601 82L601 82Q601 82 601 82L601 82Q601 82 602 81L602 81Q606 76 610 72Q614 69 617 69L617 69Q619 69 621 71Q623 73 623 75L623 75Q623 81 619 87Q615 93 610 97Q604 101 599 101L599 101ZM601 98Q602 98 605 96Q607 94 609 91L609 91Q611 88 613 83Q615 79 615 76L615 76Q615 75 615 75Q614 74 613 74L613 74Q609 74 603 83L603 83Q601 86 599 89Q598 92 598 94L598 94Q598 95 599 97Q600 98 601 98L601 98ZM634 101Q631 101 629 100Q627 98 626 96Q625 94 625 92L625 92Q625 87 627 82Q630 76 634 73Q639 69 644 69L644 69Q649 69 651 72Q654 75 654 79L654 79Q654 84 651 89Q649 94 644 97Q640 101 634 101L634 101ZM635 98Q637 98 640 94Q643 90 644 85Q646 79 646 75L646 75Q646 72 643 72L643 72Q641 72 639 76Q636 79 634 85Q632 90 632 95L632 95Q632 98 635 98L635 98ZM658 101Q657 101 655 100Q654 99 654 97L654 97Q654 97 654 96L654 96L667 59Q668 58 668 56L668 56Q668 55 667 54L667 54Q666 54 665 53L665 53Q665 53 665 52L665 52Q665 52 665 52L665 52Q667 51 669 51L669 51L672 50Q673 50 675 49Q676 49 677 49L677 49Q677 49 678 50Q678 50 678 50L678 50Q678 52 677 53L677 53L663 92Q663 93 663 93L663 93Q663 94 664 94L664 94Q665 94 667 93Q669 91 671 89L671 89Q671 88 672 88L672 88Q672 88 672 89L672 89Q672 91 670 94Q667 97 664 99Q660 101 658 101L658 101ZM716 53L704 92Q703 93 703 93L703 93Q703 94 704 94L704 94Q705 94 707 93Q709 91 711 90L711 90Q711 89 711 89L711 89Q712 89 712 90L712 90Q712 92 709 94Q707 97 704 99Q701 101 699 101L699 101Q697 101 696 100Q695 99 695 97L695 97Q695 97 695 95L695 95Q697 90 697 90L697 90Q697 89 697 89Q697 89 696 89L696 89Q691 96 688 98Q684 101 681 101L681 101Q678 101 677 99Q675 98 675 95L675 95Q675 91 678 86Q680 81 684 76L684 76Q687 73 690 71Q693 69 695 69L695 69Q697 69 698 70Q699 70 701 71L701 71Q702 72 702 72L702 72Q702 72 702 72Q703 72 703 72L703 72L707 59Q707 56 707 56L707 56Q707 55 707 55Q706 54 705 53L705 53Q704 53 703 53Q703 53 703 52L703 52Q703 52 703 52Q704 51 705 51L705 51Q707 50 711 50Q714 49 715 49L715 49Q717 49 717 50L717 50Q717 51 716 53L716 53ZM686 95Q688 95 692 92Q695 89 698 84Q700 80 700 76L700 76Q700 74 700 73Q699 72 697 72L697 72Q695 72 692 76Q688 80 686 84Q683 89 683 93L683 93Q683 94 684 95Q684 95 686 95L686 95ZM697 90L697 90L697 90ZM736 101Q735 101 734 100Q733 99 733 98L733 98Q733 97 733 96L733 96Q735 92 739 82L739 82L741 78Q741 77 740 77L740 77Q739 77 735 79L735 79Q735 80 735 80L735 80Q734 80 734 79L734 79Q734 78 736 76Q738 74 741 72Q744 70 746 69L746 69Q747 69 747 69L747 69Q748 69 749 70Q750 71 750 72L750 72L742 93Q741 93 741 94L741 94Q741 94 742 94Q742 95 742 95L742 95Q743 95 745 93Q748 91 750 89L750 89Q750 89 750 89L750 89Q750 89 750 89Q751 90 751 90L751 90Q751 92 748 94Q746 97 742 99Q739 101 736 101L736 101ZM750 63Q749 63 748 62Q747 61 747 60L747 60Q747 58 748 56Q750 54 752 54L752 54Q754 54 755 55Q755 57 755 58L755 58Q755 60 754 62Q752 63 750 63L750 63ZM760 101Q758 101 757 100Q756 98 756 97L756 97Q756 97 756 96Q756 95 757 94L757 94L763 75Q764 75 764 75L764 75Q764 74 763 74Q763 74 763 74L763 74L759 74Q758 74 758 73Q758 73 758 72L758 72Q758 72 758 72Q759 71 760 71Q760 70 761 70L761 70L764 70Q765 70 765 70Q766 70 766 69L766 69L768 65Q769 63 771 62Q772 61 773 61L773 61Q774 61 774 61Q775 62 775 62L775 62Q775 63 774 63L774 63L773 69L773 69Q773 70 774 70L774 70Q775 70 779 71L779 71Q780 71 780 71Q781 71 781 72L781 72Q781 72 780 73Q780 73 779 73L779 73Q776 73 774 74L774 74Q773 74 772 74Q771 74 771 75L771 75L766 91Q765 92 765 93L765 93Q765 94 766 94L766 94Q768 94 773 89L773 89Q774 89 774 89Q774 89 774 89L774 89Q775 89 775 89L775 89Q775 90 774 90L774 90Q773 92 771 95Q768 97 765 99Q762 101 760 101L760 101ZM781 101Q780 101 778 100Q777 99 777 98L777 98Q777 94 780 89Q783 84 791 77L791 77Q794 74 797 72Q799 70 800 70L800 70Q801 70 802 70Q803 70 804 71L804 71Q805 72 805 72L805 72Q805 72 805 72Q805 72 805 72L805 72Q806 71 806 70Q806 69 806 69L806 69Q806 69 807 69Q807 68 808 68L808 68Q809 68 811 69Q812 70 812 71L812 71Q812 72 812 72L812 72L805 92Q804 93 804 93L804 93Q804 94 805 94L805 94Q806 94 808 93Q810 92 811 90L811 90Q812 90 812 90L812 90Q812 90 812 90Q813 90 813 91L813 91Q813 92 811 93Q810 95 808 97L808 97Q806 99 804 100Q801 101 799 101L799 101Q798 101 797 100Q795 99 795 97L795 97Q795 97 796 96L796 96Q796 96 798 89L798 89Q799 89 799 89L799 89Q799 88 798 88Q798 88 798 89L798 89Q792 95 788 98Q784 101 781 101L781 101ZM788 94Q789 94 792 92Q795 90 798 86L798 86Q800 83 802 80Q803 78 803 77L803 77Q803 76 802 75L802 75Q800 74 799 74L799 74Q798 74 796 76Q794 77 792 79L792 79Q790 81 788 85Q785 89 785 92L785 92Q785 93 786 94Q787 94 788 94L788 94ZM819 101Q818 101 817 100Q816 99 816 97L816 97Q816 97 816 96L816 96L829 59Q829 58 829 56L829 56Q829 55 828 54L828 54Q827 54 826 53L826 53Q826 53 826 52L826 52Q826 52 826 52L826 52Q828 51 830 51L830 51L833 50Q834 50 836 49Q837 49 838 49L838 49Q839 49 839 50Q839 50 839 50L839 50Q839 52 838 53L838 53L825 92Q824 93 824 93L824 93Q824 94 825 94L825 94Q826 94 828 93Q830 91 832 89L832 89Q832 88 833 88L833 88Q833 88 833 89L833 89Q833 91 831 94Q828 97 825 99Q821 101 819 101L819 101ZM842 101Q841 101 840 100Q838 99 838 98L838 98Q838 97 839 96L839 96Q841 92 845 82L845 82L846 78Q847 77 846 77L846 77Q845 77 841 79L841 79Q841 80 840 80L840 80Q840 80 840 79L840 79Q840 78 842 76Q844 74 847 72Q850 70 852 69L852 69Q852 69 853 69L853 69Q854 69 855 70Q856 71 856 72L856 72L847 93Q847 93 847 94L847 94Q847 94 847 94Q848 95 848 95L848 95Q849 95 851 93Q853 91 855 89L855 89Q856 89 856 89L856 89Q856 89 856 89Q856 90 856 90L856 90Q856 92 854 94Q851 97 848 99Q845 101 842 101L842 101ZM856 63Q854 63 854 62Q853 61 853 60L853 60Q853 58 854 56Q856 54 858 54L858 54Q859 54 860 55Q861 57 861 58L861 58Q861 60 860 62Q858 63 856 63L856 63ZM868 101Q866 101 864 100Q862 99 861 97Q860 95 860 92L860 92Q860 87 862 81Q865 76 869 73Q874 69 879 69L879 69Q881 69 883 70Q884 71 884 73L884 73Q884 74 884 76Q883 77 882 77L882 77Q881 77 881 76Q880 76 880 75L880 75Q878 72 876 72L876 72Q874 72 872 75Q870 78 869 82Q867 86 867 89L867 89Q867 92 869 93Q870 94 872 94L872 94Q875 94 878 91L878 91Q879 90 880 90L880 90Q880 90 880 90Q880 91 880 91L880 91Q880 93 878 95Q877 98 874 99Q871 101 868 101L868 101Z"/></svg>