<svg xmlns="http://www.w3.org/2000/svg" viewBox="-0.5461538461538462 -7.07 61.726153846153856 7.220000000000001"><path d="M-0.38 0.05Q-0.47 0.05-0.52 0.01Q-0.56-0.04-0.54-0.10L-0.54-0.10Q-0.53-0.16-0.46-0.22Q-0.38-0.28-0.26-0.31L-0.26-0.31Q0.15-0.41 0.32-0.54Q0.49-0.66 0.58-0.96L0.58-0.96L1.98-5.51Q2.04-5.69 2.04-5.81L2.04-5.81Q2.04-5.97 1.93-6.05Q1.82-6.14 1.56-6.19L1.56-6.19Q1.34-6.25 1.37-6.40L1.37-6.40Q1.43-6.55 1.79-6.55L1.79-6.55L2.28-6.53Q2.78-6.49 3.04-6.49L3.04-6.49L4.69-6.50Q5.35-6.50 5.67-6.56Q5.98-6.62 6.04-6.62L6.04-6.62Q6.11-6.62 6.17-6.57Q6.22-6.51 6.22-6.42L6.22-6.42Q6.22-6.34 6.12-5.94L6.12-5.94Q5.96-5.42 5.95-5.14L5.95-5.14Q5.95-5.05 5.90-5.00Q5.85-4.94 5.79-4.94L5.79-4.94Q5.74-4.94 5.70-4.99Q5.65-5.03 5.64-5.12L5.64-5.12Q5.58-5.70 5.45-5.92Q5.31-6.15 4.94-6.15L4.94-6.15L4.16-6.15Q3.90-6.15 3.75-6.00Q3.59-5.84 3.47-5.43L3.47-5.43L2.99-3.79Q2.97-3.71 2.97-3.68L2.97-3.68Q2.97-3.54 3.17-3.54L3.17-3.54L4.08-3.54Q4.33-3.55 4.51-3.70Q4.69-3.84 4.86-4.12L4.86-4.12Q4.91-4.21 4.99-4.26Q5.07-4.32 5.14-4.32L5.14-4.32Q5.22-4.32 5.22-4.21L5.22-4.21Q5.22-4.16 5.19-4.08L5.19-4.08Q4.96-3.53 4.89-3.29L4.89-3.29Q4.80-3.01 4.68-2.48L4.68-2.48Q4.61-2.21 4.50-2.21L4.50-2.21Q4.43-2.21 4.38-2.29Q4.33-2.36 4.34-2.46L4.34-2.46Q4.37-3.13 4.02-3.13L4.02-3.13L3.02-3.13Q2.76-3.13 2.70-2.89L2.70-2.89L2.19-1.14Q2.13-0.95 2.13-0.80L2.13-0.80Q2.13-0.57 2.27-0.47Q2.41-0.36 2.70-0.36L2.70-0.36L3.57-0.36Q3.98-0.36 4.37-0.62L4.37-0.62Q4.55-0.74 4.70-0.94Q4.84-1.13 5.11-1.55L5.11-1.55Q5.15-1.61 5.19-1.65Q5.23-1.68 5.29-1.68L5.29-1.68Q5.35-1.68 5.37-1.63Q5.39-1.58 5.39-1.45L5.39-1.45Q5.39-1.28 5.21-0.82Q5.03-0.35 4.85-0.09L4.85-0.09Q4.75 0.04 4.56 0.04L4.56 0.04L3.67 0.03Q1.30 0 1.02 0L1.02 0Q0.70 0 0.32 0.03L0.32 0.03Q-0.18 0.05-0.38 0.05L-0.38 0.05ZM5.47 0.05Q5.30 0.05 5.30-0.07L5.30-0.07Q5.30-0.14 5.38-0.21Q5.46-0.27 5.59-0.31L5.59-0.31Q5.99-0.42 6.16-0.54Q6.32-0.66 6.42-0.96L6.42-0.96L7.83-5.51Q7.89-5.68 7.89-5.80L7.89-5.80Q7.89-5.96 7.78-6.04Q7.67-6.13 7.43-6.19L7.43-6.19Q7.25-6.23 7.25-6.34L7.25-6.34Q7.25-6.42 7.34-6.48Q7.42-6.54 7.53-6.54L7.53-6.54Q7.86-6.54 8.24-6.50L8.24-6.50Q8.32-6.50 8.48-6.49Q8.65-6.47 8.81-6.47L8.81-6.47Q9.10-6.47 9.38-6.50L9.38-6.50Q9.82-6.54 10.21-6.54L10.21-6.54Q11.13-6.54 11.62-6.21Q12.11-5.87 12.11-5.26L12.11-5.26Q12.11-4.68 11.57-4.23Q11.03-3.78 10.28-3.64L10.28-3.64Q10.23-3.63 10.22-3.59Q10.21-3.55 10.25-3.54L10.25-3.54Q10.87-3.32 11.21-2.94Q11.55-2.57 11.55-1.97L11.55-1.97Q11.55-0.93 10.66-0.45Q9.76 0.04 8.31 0.04L8.31 0.04Q7.93 0.04 7.58 0.01L7.58 0.01Q7.12-0.01 6.88-0.01L6.88-0.01Q6.66-0.01 6.49 0Q6.31 0.01 6.18 0.02L6.18 0.02Q5.80 0.05 5.47 0.05L5.47 0.05ZM9.13-3.64Q9.33-3.64 9.51-3.69Q9.68-3.73 9.92-3.82L9.92-3.82Q10.31-4.10 10.55-4.49Q10.78-4.88 10.78-5.36L10.78-5.36Q10.78-5.72 10.55-5.99Q10.32-6.26 9.98-6.26L9.98-6.26Q9.76-6.26 9.64-6.19Q9.53-6.11 9.47-5.93L9.47-5.93L8.86-3.89Q8.85-3.86 8.85-3.80L8.85-3.80Q8.85-3.64 9.13-3.64L9.13-3.64ZM8.41-0.28Q8.81-0.33 9.19-0.64Q9.56-0.94 9.79-1.38Q10.02-1.82 10.02-2.26L10.02-2.26Q10.02-2.72 9.77-3.02Q9.51-3.31 9.06-3.31L9.06-3.31Q8.85-3.31 8.75-3.26Q8.64-3.21 8.60-3.08L8.60-3.08L7.96-1.01Q7.93-0.89 7.93-0.75L7.93-0.75Q7.93-0.60 7.98-0.52L7.98-0.52Q8.15-0.28 8.41-0.28L8.41-0.28ZM17.76 0.14Q16.94 0.14 16.31-0.17Q15.68-0.48 15.33-1.05Q14.97-1.63 14.97-2.42L14.97-2.42Q14.97-2.93 15.11-3.43L15.11-3.43Q15.32-4.31 15.95-5.04Q16.57-5.78 17.51-6.21Q18.45-6.64 19.56-6.64L19.56-6.64Q19.86-6.64 20.11-6.58Q20.35-6.53 20.63-6.44L20.63-6.44Q20.67-6.43 20.80-6.38Q20.92-6.34 21-6.33Q21.08-6.31 21.16-6.31L21.16-6.31Q21.30-6.31 21.41-6.37L21.41-6.37Q21.58-6.47 21.69-6.47L21.69-6.47Q21.82-6.47 21.82-6.37L21.82-6.37Q21.82-6.32 21.77-6.25L21.77-6.25Q21.59-6.01 21.37-5.53Q21.15-5.04 21.04-4.65L21.04-4.65Q20.99-4.42 20.81-4.42L20.81-4.42Q20.60-4.42 20.63-4.83L20.63-4.83Q20.64-4.91 20.64-5.07L20.64-5.07Q20.64-5.55 20.44-5.83L20.44-5.83Q20.30-6.03 20.04-6.16Q19.78-6.29 19.48-6.29L19.48-6.29Q18.85-6.29 18.27-5.91Q17.69-5.52 17.23-4.76Q16.76-4 16.48-2.92L16.48-2.92Q16.37-2.48 16.37-2.12L16.37-2.12Q16.37-1.56 16.58-1.13Q16.79-0.69 17.16-0.45Q17.54-0.21 18.02-0.21L18.02-0.21Q18.38-0.21 18.66-0.45Q18.93-0.68 19.03-1.02L19.03-1.02L19.36-2.14Q19.38-2.22 19.38-2.26L19.38-2.26Q19.38-2.43 19.20-2.51L19.20-2.51Q19-2.59 18.61-2.67L18.61-2.67Q18.51-2.70 18.45-2.75Q18.39-2.81 18.41-2.89L18.41-2.89Q18.43-2.96 18.51-3Q18.59-3.04 18.68-3.04L18.68-3.04Q19.02-3.04 19.47-2.99L19.47-2.99Q20.01-2.95 20.20-2.95L20.20-2.95Q20.36-2.95 20.49-2.96Q20.62-2.97 20.72-2.98L20.72-2.98Q21.09-3.03 21.51-3.03L21.51-3.03Q21.69-3.03 21.64-2.88L21.64-2.88Q21.62-2.80 21.55-2.75Q21.49-2.70 21.38-2.67L21.38-2.67Q21.08-2.60 20.95-2.50Q20.81-2.41 20.70-2.20L20.70-2.20Q20.57-1.94 20.44-1.58Q20.31-1.23 20.31-1.13L20.31-1.13Q20.31-1.02 20.36-0.94Q20.40-0.85 20.51-0.74L20.51-0.74Q20.41-0.53 19.91-0.33Q19.42-0.12 18.80 0.01Q18.19 0.14 17.76 0.14L17.76 0.14ZM22.01 0.14Q21.80 0.14 21.60-0.03Q21.39-0.20 21.39-0.37L21.39-0.37Q21.39-0.81 21.80-1.44Q22.21-2.07 23.27-3.23L23.27-3.23Q23.71-3.70 24.09-3.99Q24.46-4.28 24.65-4.28L24.65-4.28Q24.91-4.28 25.24-4.02L25.24-4.02Q25.32-3.93 25.33-3.93L25.33-3.93L25.35-3.93Q25.37-3.93 25.38-3.96Q25.39-3.98 25.40-4L25.40-4Q25.53-4.25 25.55-4.32L25.55-4.32Q25.61-4.43 25.80-4.43L25.80-4.43Q26.02-4.43 26.28-4.28Q26.54-4.13 26.54-4L26.54-4Q26.54-3.96 26.52-3.90L26.52-3.90L25.52-1.18Q25.49-1.11 25.49-1.06L25.49-1.06Q25.49-0.92 25.63-0.92L25.63-0.92Q25.74-0.92 25.98-1.09Q26.21-1.26 26.46-1.52L26.46-1.52Q26.49-1.55 26.51-1.55L26.51-1.55Q26.56-1.55 26.59-1.51Q26.62-1.46 26.62-1.39L26.62-1.39Q26.62-1.25 26.44-1.01Q26.25-0.76 25.95-0.51L25.95-0.51Q25.58-0.21 25.23-0.04Q24.88 0.14 24.65 0.14L24.65 0.14Q24.42 0.14 24.21-0.04Q23.99-0.22 23.99-0.41L23.99-0.41Q23.99-0.47 24.04-0.64L24.04-0.64Q24.06-0.72 24.14-0.91Q24.22-1.09 24.26-1.19L24.26-1.19L24.38-1.47Q24.39-1.48 24.39-1.51L24.39-1.51Q24.39-1.55 24.37-1.56Q24.34-1.57 24.32-1.55L24.32-1.55Q23.54-0.67 22.99-0.27Q22.44 0.14 22.01 0.14L22.01 0.14ZM23.06-0.92Q23.23-0.92 23.60-1.24Q23.97-1.56 24.35-2.03L24.35-2.03Q24.67-2.42 24.86-2.73Q25.05-3.03 25.05-3.16L25.05-3.16Q25.05-3.25 24.85-3.42L24.85-3.42Q24.62-3.60 24.48-3.60L24.48-3.60Q24.33-3.60 24.06-3.42Q23.79-3.24 23.55-3L23.55-3Q23.23-2.68 23.00-2.17Q22.76-1.66 22.76-1.27L22.76-1.27Q22.76-1.10 22.84-1.01Q22.92-0.92 23.06-0.92L23.06-0.92ZM27.78 0.15Q27.61 0.15 27.41 0.01Q27.20-0.13 27.20-0.31L27.20-0.31Q27.20-0.44 27.27-0.64L27.27-0.64L28.28-3.25Q28.30-3.29 28.30-3.36L28.30-3.36Q28.30-3.48 28.17-3.48L28.17-3.48Q27.99-3.48 27.88-3.42Q27.77-3.36 27.58-3.21L27.58-3.21Q27.54-3.17 27.47-3.17L27.47-3.17Q27.37-3.17 27.37-3.30L27.37-3.30Q27.37-3.49 27.54-3.69Q27.71-3.88 27.99-4.04L27.99-4.04Q28.22-4.17 28.48-4.25Q28.73-4.33 28.96-4.33L28.96-4.33Q29.22-4.33 29.35-4.19Q29.48-4.05 29.48-3.80L29.48-3.80Q29.48-3.53 29.33-3.17L29.33-3.17L28.95-2.26L28.94-2.22Q28.94-2.18 28.98-2.18L28.98-2.18Q29.04-2.18 29.07-2.24L29.07-2.24Q29.64-3.27 30.14-3.81Q30.63-4.34 31.14-4.34L31.14-4.34Q31.45-4.34 31.62-4.16Q31.79-3.98 31.79-3.70L31.79-3.70Q31.79-3.44 31.67-3.19Q31.55-2.94 31.38-2.79Q31.20-2.63 31.04-2.63L31.04-2.63Q30.93-2.63 30.87-2.73Q30.81-2.83 30.77-3.05L30.77-3.05Q30.69-3.49 30.50-3.49L30.50-3.49Q30.33-3.49 30.17-3.29Q30.00-3.08 29.74-2.64L29.74-2.64Q29.42-2.13 28.84-1.10L28.84-1.10L28.57-0.63Q28.37-0.28 28.16-0.07Q27.95 0.15 27.78 0.15L27.78 0.15ZM31.43 0.14Q31.22 0.14 31.02-0.03Q30.81-0.20 30.81-0.37L30.81-0.37Q30.81-0.81 31.22-1.44Q31.63-2.07 32.69-3.23L32.69-3.23Q33.13-3.70 33.51-3.99Q33.88-4.28 34.07-4.28L34.07-4.28Q34.33-4.28 34.66-4.02L34.66-4.02Q34.74-3.93 34.75-3.93L34.75-3.93L34.77-3.93Q34.79-3.93 34.80-3.96Q34.81-3.98 34.82-4L34.82-4Q34.95-4.25 34.97-4.32L34.97-4.32Q35.03-4.43 35.22-4.43L35.22-4.43Q35.44-4.43 35.70-4.28Q35.96-4.13 35.96-4L35.96-4Q35.96-3.96 35.94-3.90L35.94-3.90L34.94-1.18Q34.91-1.11 34.91-1.06L34.91-1.06Q34.91-0.92 35.05-0.92L35.05-0.92Q35.16-0.92 35.40-1.09Q35.63-1.26 35.88-1.52L35.88-1.52Q35.91-1.55 35.93-1.55L35.93-1.55Q35.98-1.55 36.01-1.51Q36.04-1.46 36.04-1.39L36.04-1.39Q36.04-1.25 35.86-1.01Q35.67-0.76 35.37-0.51L35.37-0.51Q35.00-0.21 34.65-0.04Q34.30 0.14 34.07 0.14L34.07 0.14Q33.84 0.14 33.63-0.04Q33.41-0.22 33.41-0.41L33.41-0.41Q33.41-0.47 33.46-0.64L33.46-0.64Q33.48-0.72 33.56-0.91Q33.64-1.09 33.68-1.19L33.68-1.19L33.80-1.47Q33.81-1.48 33.81-1.51L33.81-1.51Q33.81-1.55 33.79-1.56Q33.76-1.57 33.74-1.55L33.74-1.55Q32.96-0.67 32.41-0.27Q31.86 0.14 31.43 0.14L31.43 0.14ZM32.48-0.92Q32.65-0.92 33.02-1.24Q33.39-1.56 33.77-2.03L33.77-2.03Q34.09-2.42 34.28-2.73Q34.47-3.03 34.47-3.16L34.47-3.16Q34.47-3.25 34.27-3.42L34.27-3.42Q34.04-3.60 33.90-3.60L33.90-3.60Q33.75-3.60 33.48-3.42Q33.21-3.24 32.97-3L32.97-3Q32.65-2.68 32.42-2.17Q32.18-1.66 32.18-1.27L32.18-1.27Q32.18-1.10 32.26-1.01Q32.34-0.92 32.48-0.92L32.48-0.92ZM37.26 0.15Q37.16 0.15 37.02 0.07Q36.88 0 36.79-0.13Q36.69-0.26 36.69-0.42L36.69-0.42Q36.71-0.57 36.77-0.72L36.77-0.72L37.83-3.25Q37.85-3.33 37.85-3.36L37.85-3.36Q37.85-3.48 37.71-3.48L37.71-3.48Q37.56-3.48 37.36-3.40Q37.15-3.32 36.93-3.10L36.93-3.10Q36.90-3.05 36.83-3.05L36.83-3.05Q36.80-3.05 36.77-3.08Q36.74-3.10 36.74-3.15L36.74-3.15Q36.73-3.25 36.87-3.46Q37.01-3.66 37.13-3.77L37.13-3.77Q37.43-4.05 37.71-4.19Q37.98-4.33 38.41-4.33L38.41-4.33Q38.67-4.33 38.83-4.17Q38.98-4.01 38.98-3.76L38.98-3.76Q38.98-3.61 38.90-3.42L38.90-3.42L38.33-2.10L38.32-2.06Q38.32-2.02 38.36-2.02L38.36-2.02Q38.41-2.02 38.44-2.08L38.44-2.08Q38.89-2.83 39.22-3.29Q39.55-3.76 39.92-4.04Q40.28-4.33 40.68-4.33L40.68-4.33Q41.04-4.33 41.23-4.11Q41.41-3.89 41.41-3.55L41.41-3.55Q41.41-3.18 41.22-2.83L41.22-2.83L41.08-2.51L41.07-2.47Q41.07-2.43 41.12-2.43L41.12-2.43Q41.18-2.43 41.22-2.48L41.22-2.48Q41.77-3.36 42.26-3.85Q42.75-4.33 43.32-4.33L43.32-4.33Q43.66-4.33 43.83-4.15Q43.99-3.96 43.99-3.64L43.99-3.64Q43.99-3.29 43.79-2.82L43.79-2.82L43.10-1.20Q43.04-1.07 43.04-0.99L43.04-0.99Q43.04-0.89 43.14-0.89L43.14-0.89Q43.24-0.89 43.49-1.06Q43.73-1.24 43.93-1.42L43.93-1.42Q44.06-1.57 44.12-1.57L44.12-1.57Q44.15-1.57 44.19-1.54Q44.22-1.50 44.22-1.45L44.22-1.45Q44.20-1.22 44.04-1.06L44.04-1.06Q43.58-0.52 43.03-0.19Q42.47 0.14 41.92 0.14L41.92 0.14Q41.77 0.14 41.60 0.03Q41.42-0.09 41.42-0.24L41.42-0.24Q41.42-0.27 41.44-0.33L41.44-0.33L42.80-3.34Q42.84-3.42 42.84-3.51L42.84-3.51Q42.84-3.59 42.80-3.64Q42.75-3.69 42.69-3.70L42.69-3.70Q42.45-3.70 41.96-2.98L41.96-2.98Q41.76-2.68 41.40-2.09Q41.03-1.50 40.85-1.21L40.85-1.21L40.41-0.48Q40.25-0.22 39.98-0.04Q39.71 0.15 39.55 0.15L39.55 0.15Q39.40 0.15 39.23-0.01Q39.06-0.16 39.06-0.31L39.06-0.31Q39.06-0.45 39.18-0.76L39.18-0.76L40.26-3.37Q40.30-3.46 40.30-3.55L40.30-3.55Q40.30-3.62 40.26-3.67Q40.22-3.71 40.15-3.71L40.15-3.71Q39.90-3.71 39.31-2.89L39.31-2.89Q39.11-2.62 38.84-2.14Q38.56-1.65 38.29-1.16L38.29-1.16L37.95-0.53Q37.76-0.19 37.60-0.02Q37.43 0.15 37.26 0.15L37.26 0.15ZM46.12 0.14Q45.74 0.14 45.41-0.04Q45.07-0.22 44.87-0.55Q44.67-0.87 44.67-1.28L44.67-1.28Q44.67-1.92 45.04-2.64Q45.40-3.35 46.06-3.84Q46.72-4.33 47.57-4.33L47.57-4.33Q48.25-4.33 48.65-3.95Q49.05-3.57 49.05-2.90L49.05-2.90Q49.05-2.26 48.69-1.54Q48.32-0.83 47.65-0.35Q46.98 0.14 46.12 0.14L46.12 0.14ZM46.31-0.25Q46.62-0.25 46.96-0.81Q47.30-1.37 47.53-2.16Q47.76-2.94 47.76-3.54L47.76-3.54Q47.76-3.96 47.42-3.96L47.42-3.96Q47.15-3.96 46.80-3.40Q46.45-2.84 46.21-2.06Q45.96-1.28 45.96-0.69L45.96-0.69Q45.96-0.47 46.06-0.36Q46.15-0.25 46.31-0.25L46.31-0.25ZM50.31 0.14Q50.21 0.14 50.06 0.06Q49.90-0.03 49.79-0.18Q49.68-0.33 49.68-0.50L49.68-0.50Q49.68-0.61 49.72-0.69L49.72-0.69L50.73-3.20Q50.76-3.29 50.76-3.34L50.76-3.34Q50.76-3.45 50.64-3.45L50.64-3.45Q50.13-3.45 49.83-3.10L49.83-3.10Q49.78-3.05 49.73-3.05L49.73-3.05Q49.63-3.05 49.62-3.15L49.62-3.15Q49.61-3.25 49.75-3.46Q49.89-3.66 50.01-3.77L50.01-3.77Q50.59-4.33 51.40-4.33L51.40-4.33Q51.67-4.33 51.82-4.17Q51.96-4.01 51.96-3.77L51.96-3.77Q51.96-3.62 51.90-3.47L51.90-3.47L51.37-2.16L51.36-2.13Q51.36-2.11 51.39-2.10Q51.41-2.08 51.44-2.08L51.44-2.08Q51.52-2.08 51.55-2.13L51.55-2.13Q52.14-3.19 52.67-3.76Q53.20-4.33 53.78-4.33L53.78-4.33Q54.16-4.33 54.35-4.11Q54.53-3.88 54.53-3.54L54.53-3.54Q54.53-3.24 54.41-2.97L54.41-2.97L53.66-1.20Q53.60-1.07 53.60-0.99L53.60-0.99Q53.60-0.89 53.70-0.89L53.70-0.89Q53.81-0.89 54.07-1.07Q54.33-1.26 54.48-1.40L54.48-1.40Q54.61-1.55 54.67-1.55L54.67-1.55Q54.70-1.55 54.74-1.51Q54.77-1.47 54.77-1.43L54.77-1.43Q54.77-1.25 54.64-1.07L54.64-1.07Q54.19-0.54 53.59-0.20Q52.99 0.14 52.48 0.14L52.48 0.14Q52.31 0.14 52.15 0.01Q51.98-0.13 51.98-0.29L51.98-0.29Q51.98-0.37 52.00-0.40L52.00-0.40Q52.15-0.75 52.28-1.02Q52.41-1.29 52.51-1.50L52.51-1.50Q52.58-1.65 52.85-2.22Q53.12-2.79 53.31-3.31L53.31-3.31Q53.36-3.44 53.36-3.55L53.36-3.55Q53.36-3.68 53.23-3.68L53.23-3.68Q53.07-3.68 52.88-3.46Q52.69-3.24 52.51-2.97Q52.33-2.70 52.27-2.62L52.27-2.62Q52.10-2.39 51.69-1.71Q51.27-1.02 50.97-0.50L50.97-0.50Q50.79-0.19 50.64-0.03Q50.48 0.14 50.31 0.14L50.31 0.14ZM55.90 0.14Q55.56 0.14 55.34-0.10Q55.11-0.34 55.11-0.70L55.11-0.70Q55.11-1.25 55.43-1.94Q55.74-2.63 56.28-3.28L56.28-3.28Q56.72-3.80 57.14-4.07Q57.56-4.34 57.93-4.34L57.93-4.34Q58.11-4.34 58.27-4.26Q58.43-4.19 58.57-4.10Q58.71-4.01 58.77-3.98L58.77-3.98Q58.81-3.96 58.86-3.94Q58.90-3.91 58.94-3.91L58.94-3.91Q58.98-3.91 59.01-4L59.01-4L59.48-5.50Q59.49-5.55 59.51-5.61Q59.53-5.66 59.54-5.71L59.54-5.71Q59.63-5.99 59.63-6.00Q59.62-6.02 59.62-6.05L59.62-6.05Q59.62-6.24 59.22-6.40L59.22-6.40Q59.00-6.47 59.00-6.55L59.00-6.55Q59.00-6.62 59.06-6.67Q59.12-6.71 59.30-6.77L59.30-6.77Q59.55-6.84 60.16-6.96Q60.77-7.07 60.93-7.07L60.93-7.07Q61.18-7.07 61.18-6.93L61.18-6.93Q61.18-6.80 61.09-6.53L61.09-6.53L59.28-1.16Q59.25-1.07 59.25-1.01L59.25-1.01Q59.25-0.91 59.32-0.91L59.32-0.91Q59.42-0.91 59.70-1.10Q59.97-1.30 60.20-1.54L60.20-1.54Q60.24-1.58 60.25-1.58L60.25-1.58Q60.30-1.58 60.34-1.54Q60.37-1.49 60.37-1.43L60.37-1.43Q60.37-1.19 60.01-0.81Q59.65-0.43 59.18-0.14Q58.71 0.14 58.41 0.14L58.41 0.14Q58.18 0.14 57.96-0.04Q57.74-0.23 57.74-0.42L57.74-0.42Q57.74-0.47 57.79-0.65L57.79-0.65Q57.86-0.82 57.95-1.02Q58.04-1.22 58.12-1.36Q58.19-1.51 58.16-1.42L58.16-1.42Q58.17-1.44 58.17-1.47L58.17-1.47Q58.17-1.51 58.14-1.51L58.14-1.51Q58.10-1.51 58.07-1.46L58.07-1.46Q57.39-0.64 56.87-0.25Q56.34 0.14 55.90 0.14L55.90 0.14ZM56.76-0.84Q57.09-0.84 57.55-1.27Q58.00-1.70 58.33-2.29Q58.66-2.87 58.66-3.29L58.66-3.29Q58.66-3.55 58.55-3.70Q58.43-3.84 58.23-3.84L58.23-3.84Q57.94-3.84 57.51-3.37Q57.08-2.89 56.77-2.25Q56.45-1.61 56.45-1.17L56.45-1.17Q56.45-0.84 56.76-0.84L56.76-0.84Z"/></svg>