<svg xmlns="http://www.w3.org/2000/svg" viewBox="2.232 49.312 654.9840000000002 52.128"><path d="M4.10 100.36Q2.23 100.36 2.23 99.50L2.23 99.50Q2.23 98.56 4.32 98.13L4.32 98.13Q7.06 97.55 8.21 96.44Q9.36 95.32 9.36 92.94L9.36 92.94L9.36 60.40Q9.36 57.95 8.35 56.91Q7.34 55.86 4.68 55.29L4.68 55.29Q2.59 54.86 2.59 53.85L2.59 53.85Q2.59 53.42 3.10 53.16Q3.60 52.91 4.46 52.91L4.46 52.91Q6.98 52.91 10.73 53.06L10.73 53.06Q14.33 53.20 16.49 53.20L16.49 53.20Q21.31 53.20 28.37 53.06L28.37 53.06Q30.74 53.06 32.44 52.95Q34.13 52.84 34.34 52.84L34.34 52.84Q34.85 52.84 35.28 53.06Q35.71 53.27 35.78 53.70L35.78 53.70L36.14 55.86Q36.94 59.97 36.94 61.77L36.94 61.77Q36.94 62.42 36.61 62.70Q36.29 62.99 35.93 62.99L35.93 62.99Q35.28 62.99 34.92 62.13L34.92 62.13Q34.85 61.84 34.45 60.72Q34.06 59.61 33.70 58.89Q33.34 58.17 32.98 57.74L32.98 57.74Q31.03 55.72 28.08 55.72L28.08 55.72L20.02 55.72Q19.01 55.72 18.00 56.48Q16.99 57.23 16.99 58.31L16.99 58.31L16.99 73Q16.99 73.72 17.42 74.15Q17.86 74.58 18.50 74.58L18.50 74.58L25.27 74.58Q27.22 74.58 28.04 73.72Q28.87 72.86 29.45 70.77L29.45 70.77Q29.95 69.33 30.82 69.33L30.82 69.33Q31.18 69.33 31.46 69.69Q31.75 70.05 31.75 70.62L31.75 70.62Q31.46 74.66 31.46 75.88L31.46 75.88Q31.46 78.54 31.68 81.57L31.68 81.57L31.68 81.86Q31.68 83.01 31.03 83.01L31.03 83.01Q29.88 83.01 29.30 80.92L29.30 80.92Q28.80 78.98 28.04 78.08Q27.29 77.18 25.92 77.18L25.92 77.18L19.22 77.18Q18.00 77.18 17.50 77.57Q16.99 77.97 16.99 79.05L16.99 79.05L16.99 92.80Q16.99 95.25 18.04 96.26Q19.08 97.26 21.38 97.26L21.38 97.26L27.07 97.26Q31.25 97.26 33.19 95.90L33.19 95.90Q34.34 95.10 35.28 93.81Q36.22 92.51 37.30 90.28L37.30 90.28Q37.87 89.34 38.52 89.42L38.52 89.42Q39.31 89.42 39.31 90.57L39.31 90.57Q39.31 91.72 38.59 94.35Q37.87 96.98 37.08 99.21L37.08 99.21Q36.58 100.36 35.86 100.36L35.86 100.36Q30.82 100.36 25.06 100.14L25.06 100.14Q23.11 100.07 20.05 100Q16.99 99.93 12.96 99.93L12.96 99.93Q10.94 99.93 8.86 100.14L8.86 100.14Q4.75 100.36 4.10 100.36L4.10 100.36ZM44.06 100.36Q43.20 100.36 42.70 100.14Q42.19 99.93 42.19 99.50L42.19 99.50Q42.19 98.56 44.28 98.13L44.28 98.13Q47.09 97.55 48.31 96.44Q49.54 95.32 49.54 92.94L49.54 92.94L49.54 60.40Q49.54 57.88 48.49 56.73Q47.45 55.58 44.86 55.29L44.86 55.29Q43.78 55.22 43.27 54.78Q42.77 54.35 42.77 53.85L42.77 53.85Q42.77 53.42 43.27 53.16Q43.78 52.91 44.64 52.91L44.64 52.91Q46.87 52.91 49.32 53.06L49.32 53.06L52.92 53.13Q54.65 53.13 56.38 52.91L56.38 52.91Q60.48 52.70 61.70 52.70L61.70 52.70Q70.42 52.70 74.56 55.18Q78.70 57.66 78.70 63.42L78.70 63.42Q78.70 65.66 77.87 67.53Q77.04 69.40 75.82 70.55L75.82 70.55Q74.66 71.63 73.62 72.28Q72.58 72.93 70.85 73.50L70.85 73.50Q70.56 73.65 70.56 73.90Q70.56 74.15 70.85 74.22L70.85 74.22Q73.87 75.09 76.10 76.24Q78.34 77.39 79.92 79.77Q81.50 82.14 81.50 86.03L81.50 86.03Q81.50 89.70 80.35 92.08Q79.20 94.46 77.65 95.64Q76.10 96.83 74.02 97.91L74.02 97.91Q69.12 100.29 61.63 100.29L61.63 100.29Q60.91 100.29 58.61 100.14L58.61 100.14Q55.73 100 53.71 100L53.71 100Q51.98 100 49.10 100.14L49.10 100.14Q46.80 100.36 44.06 100.36L44.06 100.36ZM60.26 73.36Q64.80 73.36 68.04 71.27L68.04 71.27Q69.05 70.62 69.98 68.97Q70.92 67.31 70.92 64.58L70.92 64.58Q70.92 55.22 61.49 55.22L61.49 55.22Q58.97 55.22 58.03 55.97Q57.10 56.73 57.10 58.38L57.10 58.38L57.10 70.70Q57.10 72.21 58.07 72.78Q59.04 73.36 60.26 73.36L60.26 73.36ZM62.28 96.98Q65.09 96.98 67.54 95.57Q69.98 94.17 71.46 91.76Q72.94 89.34 72.94 86.46L72.94 86.46Q72.94 82.94 71.53 80.81Q70.13 78.69 68.26 77.54L68.26 77.54Q65.52 75.81 60.91 75.81L60.91 75.81Q59.11 75.81 58.10 76.60Q57.10 77.39 57.10 78.33L57.10 78.33L57.10 92.08Q57.10 94.74 58.39 95.86Q59.69 96.98 62.28 96.98L62.28 96.98ZM127.37 101.01Q120.67 101.01 114.91 97.95Q109.15 94.89 105.73 89.52Q102.31 84.16 102.31 77.54L102.31 77.54Q102.31 70.70 105.84 64.90Q109.37 59.10 115.52 55.68Q121.68 52.26 129.10 52.26L129.10 52.26Q131.76 52.26 136.76 53.09Q141.77 53.92 143.50 54.71L143.50 54.71Q143.93 54.86 144.11 55.11Q144.29 55.36 144.43 55.86L144.43 55.86Q145.15 61.91 145.15 63.78L145.15 63.78Q145.15 64.36 144.83 64.79Q144.50 65.22 144.07 65.22L144.07 65.22Q143.35 65.22 142.99 64.79Q142.63 64.36 142.27 63.42L142.27 63.42Q141.19 60.83 139.61 59.03L139.61 59.03Q138.38 57.66 135.72 56.51Q133.06 55.36 129.02 55.36L129.02 55.36Q123.77 55.36 119.70 58.24Q115.63 61.12 113.44 65.91Q111.24 70.70 111.24 76.24L111.24 76.24Q111.24 82.79 113.54 87.72Q115.85 92.66 119.77 95.28Q123.70 97.91 128.45 97.91L128.45 97.91Q133.34 97.91 135.86 95.61L135.86 95.61Q136.73 94.82 137.30 93.41Q137.88 92.01 137.88 90.35L137.88 90.35Q137.88 88.91 137.95 87.98L137.95 87.98L138.02 85.53Q138.02 83.73 137.23 83.22L137.23 83.22Q136.37 82.43 134.39 81.89Q132.41 81.35 131.04 81.28L131.04 81.28Q130.54 81.21 130.00 80.81Q129.46 80.42 129.46 79.91L129.46 79.91Q129.46 79.48 130.00 79.12Q130.54 78.76 130.97 78.76L130.97 78.76Q132.70 78.76 135.72 78.90L135.72 78.90Q138.89 79.05 140.76 79.05L140.76 79.05Q141.98 79.05 144.29 78.90L144.29 78.90Q146.59 78.76 148.03 78.76L148.03 78.76Q148.46 78.76 148.93 79.05Q149.40 79.34 149.40 79.91L149.40 79.91Q149.40 80.42 148.93 80.78Q148.46 81.14 147.96 81.28L147.96 81.28Q146.30 81.78 145.58 82.54Q144.86 83.30 144.65 84.81L144.65 84.81Q144.29 87.40 144.29 90.21L144.29 90.21L144.29 92.30Q144.29 92.73 144.54 93.05Q144.79 93.38 144.86 93.52L144.86 93.52Q145.01 93.74 145.37 94.17Q145.73 94.60 145.73 94.89L145.73 94.89Q145.73 96.11 144.58 96.26L144.58 96.26Q143.93 96.40 142.56 97.12L142.56 97.12Q139.10 98.78 135.50 99.89Q131.90 101.01 127.37 101.01L127.37 101.01ZM160.49 101.01Q159.05 101.01 157.57 100.04Q156.10 99.06 155.16 97.59Q154.22 96.11 154.22 94.67L154.22 94.67Q154.22 92.37 155.52 90.93Q156.82 89.49 159.70 88.26L159.70 88.26L166.68 85.31Q168.12 84.74 168.41 84.30Q168.70 83.87 168.77 82.36L168.77 82.36L168.91 77.97Q168.98 75.95 167.94 74.69Q166.90 73.43 165.02 73.43L165.02 73.43Q164.02 73.43 162.97 73.79Q161.93 74.15 161.28 74.73L161.28 74.73Q160.70 75.30 160.70 76.60L160.70 76.60L160.78 78.18Q160.78 78.76 158.72 79.80Q156.67 80.85 155.45 80.85L155.45 80.85Q155.02 80.85 154.76 80.56Q154.51 80.27 154.51 79.91L154.51 79.91Q154.51 77.54 157.54 74.94L157.54 74.94Q160.06 72.71 163.30 71.24Q166.54 69.76 168.84 69.76L168.84 69.76Q171.86 69.76 173.74 71.81Q175.61 73.86 175.54 77.10L175.54 77.10L175.18 93.38Q175.10 94.96 175.82 95.97Q176.54 96.98 177.62 96.98L177.62 96.98Q179.35 96.98 180.22 96.11L180.22 96.11Q180.50 95.82 180.72 95.82L180.72 95.82Q181.08 95.82 181.33 96.08Q181.58 96.33 181.58 96.62L181.58 96.62Q181.58 97.41 180.58 98.42L180.58 98.42Q179.35 99.64 177.95 100.32Q176.54 101.01 175.25 101.01L175.25 101.01Q171.58 101.01 169.49 97.12L169.49 97.12L169.27 97.12Q166.90 99.21 164.81 100.11Q162.72 101.01 160.49 101.01L160.49 101.01ZM164.23 97.12Q166.25 97.12 167.76 95.61L167.76 95.61Q168.48 94.89 168.55 93.02L168.55 93.02L168.70 88.91L168.70 88.55Q168.70 87.54 168.05 87.54L168.05 87.54Q167.62 87.54 166.82 87.90L166.82 87.90Q163.66 89.13 162.32 90.42Q160.99 91.72 160.99 93.38L160.99 93.38Q160.99 95.18 161.96 96.15Q162.94 97.12 164.23 97.12L164.23 97.12ZM184.82 100.22Q183.38 100.22 183.38 99.35L183.38 99.35Q183.38 98.85 183.78 98.56Q184.18 98.27 185.04 98.06L185.04 98.06Q186.48 97.77 187.13 97.08Q187.78 96.40 187.78 95.32L187.78 95.32L187.78 79.48Q187.78 77.54 187.20 76.35Q186.62 75.16 185.11 74.80L185.11 74.80Q184.82 74.73 184.57 74.44Q184.32 74.15 184.32 73.72L184.32 73.72Q184.32 73 185.04 72.71L185.04 72.71Q186.91 72.21 189.18 71.20Q191.45 70.19 193.10 69.26L193.10 69.26Q194.04 68.68 194.40 68.68L194.40 68.68Q194.90 68.68 194.90 69.26L194.90 69.26L194.69 74.80Q194.69 75.09 194.83 75.09L194.83 75.09Q196.70 72.71 198.97 71.20Q201.24 69.69 203.40 69.69L203.40 69.69Q205.27 69.69 206.28 70.44Q207.29 71.20 207.29 72.42L207.29 72.42Q207.29 73.79 206.24 75.30Q205.20 76.82 203.98 76.82L203.98 76.82Q203.40 76.82 201.67 76.02L201.67 76.02Q201.38 75.88 200.63 75.56Q199.87 75.23 199.30 75.23L199.30 75.23Q197.21 75.23 195.84 76.67Q194.47 78.11 194.47 81.57L194.47 81.57L194.47 95.10Q194.47 96.18 195.34 96.83Q196.20 97.48 198.22 98.13L198.22 98.13Q199.08 98.34 199.48 98.63Q199.87 98.92 199.87 99.35L199.87 99.35Q199.87 100.22 198.50 100.22L198.50 100.22Q196.42 100.22 194.69 100L194.69 100Q192.53 99.86 191.38 99.86L191.38 99.86Q190.22 99.86 188.35 100L188.35 100Q186.84 100.22 184.82 100.22L184.82 100.22ZM216.29 101.01Q214.85 101.01 213.37 100.04Q211.90 99.06 210.96 97.59Q210.02 96.11 210.02 94.67L210.02 94.67Q210.02 92.37 211.32 90.93Q212.62 89.49 215.50 88.26L215.50 88.26L222.48 85.31Q223.92 84.74 224.21 84.30Q224.50 83.87 224.57 82.36L224.57 82.36L224.71 77.97Q224.78 75.95 223.74 74.69Q222.70 73.43 220.82 73.43L220.82 73.43Q219.82 73.43 218.77 73.79Q217.73 74.15 217.08 74.73L217.08 74.73Q216.50 75.30 216.50 76.60L216.50 76.60L216.58 78.18Q216.58 78.76 214.52 79.80Q212.47 80.85 211.25 80.85L211.25 80.85Q210.82 80.85 210.56 80.56Q210.31 80.27 210.31 79.91L210.31 79.91Q210.31 77.54 213.34 74.94L213.34 74.94Q215.86 72.71 219.10 71.24Q222.34 69.76 224.64 69.76L224.64 69.76Q227.66 69.76 229.54 71.81Q231.41 73.86 231.34 77.10L231.34 77.10L230.98 93.38Q230.90 94.96 231.62 95.97Q232.34 96.98 233.42 96.98L233.42 96.98Q235.15 96.98 236.02 96.11L236.02 96.11Q236.30 95.82 236.52 95.82L236.52 95.82Q236.88 95.82 237.13 96.08Q237.38 96.33 237.38 96.62L237.38 96.62Q237.38 97.41 236.38 98.42L236.38 98.42Q235.15 99.64 233.75 100.32Q232.34 101.01 231.05 101.01L231.05 101.01Q227.38 101.01 225.29 97.12L225.29 97.12L225.07 97.12Q222.70 99.21 220.61 100.11Q218.52 101.01 216.29 101.01L216.29 101.01ZM220.03 97.12Q222.05 97.12 223.56 95.61L223.56 95.61Q224.28 94.89 224.35 93.02L224.35 93.02L224.50 88.91L224.50 88.55Q224.50 87.54 223.85 87.54L223.85 87.54Q223.42 87.54 222.62 87.90L222.62 87.90Q219.46 89.13 218.12 90.42Q216.79 91.72 216.79 93.38L216.79 93.38Q216.79 95.18 217.76 96.15Q218.74 97.12 220.03 97.12L220.03 97.12ZM240.41 100.22Q238.97 100.22 238.97 99.35L238.97 99.35Q238.97 98.85 239.36 98.60Q239.76 98.34 240.62 98.06L240.62 98.06Q242.14 97.55 242.86 97.08Q243.58 96.62 243.58 95.32L243.58 95.32L243.58 79.48Q243.58 77.39 243.07 76.20Q242.57 75.02 241.06 74.73L241.06 74.73Q240.34 74.58 240.34 73.72L240.34 73.72Q240.34 72.78 240.98 72.71L240.98 72.71Q243.58 72.06 245.38 71.20Q247.18 70.34 249.55 68.90L249.55 68.90Q250.13 68.61 250.27 68.61L250.27 68.61Q250.78 68.61 250.78 69.18L250.78 69.18L250.63 70.77Q250.56 71.27 250.49 72.06Q250.42 72.86 250.42 73.72L250.42 73.72Q250.42 74.44 250.56 74.58L250.56 74.58L250.70 74.58Q255.67 69.76 261.72 69.76L261.72 69.76Q266.76 69.76 268.85 74.94L268.85 74.94L269.06 74.94Q274.25 69.76 280.51 69.76L280.51 69.76Q283.90 69.76 285.95 72.68Q288 75.59 288 79.84L288 79.84L288 95.39Q288 96.69 288.68 97.12Q289.37 97.55 290.95 98.06L290.95 98.06Q291.74 98.27 292.14 98.56Q292.54 98.85 292.54 99.35L292.54 99.35Q292.54 100.22 291.17 100.22L291.17 100.22Q289.22 100.22 287.78 100L287.78 100Q286.06 99.86 284.83 99.86L284.83 99.86Q283.61 99.86 281.88 100L281.88 100Q280.51 100.22 278.50 100.22L278.50 100.22Q277.13 100.22 277.13 99.35L277.13 99.35Q277.13 98.85 277.52 98.56Q277.92 98.27 278.71 98.06L278.71 98.06Q280.01 97.70 280.69 97.19Q281.38 96.69 281.38 95.54L281.38 95.54L281.38 80.49Q281.38 77.90 279.86 75.95Q278.35 74.01 276.26 74.01L276.26 74.01Q272.95 74.01 270.72 75.88L270.72 75.88Q269.06 77.18 269.06 80.27L269.06 80.27L269.06 95.39Q269.06 96.69 269.78 97.19Q270.50 97.70 271.94 98.06L271.94 98.06Q272.74 98.34 273.13 98.60Q273.53 98.85 273.53 99.35L273.53 99.35Q273.53 100.22 272.16 100.22L272.16 100.22Q270.22 100.22 268.78 100L268.78 100Q267.05 99.86 265.82 99.86L265.82 99.86Q264.60 99.86 262.87 100L262.87 100Q261.50 100.22 259.49 100.22L259.49 100.22Q258.91 100.22 258.52 100Q258.12 99.78 258.12 99.35L258.12 99.35Q258.12 98.85 258.52 98.60Q258.91 98.34 259.70 98.06L259.70 98.06Q261 97.70 261.72 97.19Q262.44 96.69 262.44 95.54L262.44 95.54L262.44 80.49Q262.44 77.90 260.96 75.99Q259.49 74.08 257.33 74.01L257.33 74.01Q254.16 74.01 251.78 75.88L251.78 75.88Q250.20 76.96 250.20 80.20L250.20 80.20L250.20 95.39Q250.20 96.62 250.85 97.12Q251.50 97.62 252.86 98.06L252.86 98.06Q253.66 98.34 254.05 98.60Q254.45 98.85 254.45 99.35L254.45 99.35Q254.45 100.22 253.08 100.22L253.08 100.22Q251.06 100.22 249.77 100L249.77 100Q248.04 99.86 246.89 99.86L246.89 99.86Q245.74 99.86 243.86 100L243.86 100Q242.50 100.22 240.41 100.22L240.41 100.22ZM310.97 101.01Q306.86 101.01 303.52 99.14Q300.17 97.26 298.22 93.88Q296.28 90.50 296.28 86.32L296.28 86.32Q296.28 82.14 298.44 78.29Q300.60 74.44 304.34 72.06Q308.09 69.69 312.48 69.69L312.48 69.69Q316.66 69.69 320.15 71.70Q323.64 73.72 325.66 77.10Q327.67 80.49 327.67 84.38L327.67 84.38Q327.67 88.84 325.76 92.66Q323.86 96.47 320.08 98.74Q316.30 101.01 310.97 101.01L310.97 101.01ZM312.48 98.49Q316.94 98.49 318.82 95.10L318.82 95.10Q320.33 92.30 320.33 86.10L320.33 86.10Q320.33 82.50 319.18 79.34Q318.02 76.17 315.97 74.22Q313.92 72.28 311.26 72.28L311.26 72.28Q309.53 72.28 308.23 72.82Q306.94 73.36 305.86 74.66L305.86 74.66Q304.63 76.24 304.13 78.72Q303.62 81.21 303.62 84.66L303.62 84.66Q303.62 88.19 304.78 91.36Q305.93 94.53 307.98 96.51Q310.03 98.49 312.48 98.49L312.48 98.49ZM333 100.22Q332.35 100.22 331.96 100Q331.56 99.78 331.56 99.35L331.56 99.35Q331.56 98.85 331.96 98.56Q332.35 98.27 333.22 98.06L333.22 98.06Q334.66 97.70 335.41 97.16Q336.17 96.62 336.17 95.32L336.17 95.32L336.17 79.48Q336.17 77.39 335.66 76.28Q335.16 75.16 333.65 74.73L333.65 74.73Q332.93 74.58 332.93 73.72L332.93 73.72Q332.93 72.78 333.58 72.71L333.58 72.71Q338.18 71.49 341.93 69.04L341.93 69.04Q342.50 68.61 342.86 68.61L342.86 68.61Q343.37 68.61 343.37 69.26L343.37 69.26L343.22 70.70Q343.15 71.20 343.08 71.99Q343.01 72.78 343.01 73.65L343.01 73.65Q343.01 74.44 343.15 74.58L343.15 74.58Q345.67 72.14 348.41 70.95Q351.14 69.76 354.46 69.76L354.46 69.76Q358.06 69.76 360.43 72.60Q362.81 75.45 362.81 79.84L362.81 79.84L362.81 95.39Q362.81 96.69 363.53 97.12Q364.25 97.55 365.83 98.06L365.83 98.06Q367.42 98.63 367.42 99.42L367.42 99.42Q367.42 100.22 366.05 100.22L366.05 100.22Q364.03 100.22 362.59 100L362.59 100Q360.72 99.86 359.57 99.86L359.57 99.86Q358.42 99.86 356.54 100L356.54 100Q355.18 100.22 353.09 100.22L353.09 100.22Q352.58 100.22 352.15 100.04Q351.72 99.86 351.72 99.42L351.72 99.42Q351.72 98.63 353.30 98.06L353.30 98.06Q354.89 97.55 355.57 97.12Q356.26 96.69 356.26 95.39L356.26 95.39L356.26 80.49Q356.26 77.54 354.67 75.84Q353.09 74.15 350.42 74.08L350.42 74.08Q346.46 74.08 343.37 76.60L343.37 76.60Q342.79 77.18 342.79 78.11L342.79 78.11L342.79 95.39Q342.79 96.69 343.51 97.19Q344.23 97.70 345.67 98.06L345.67 98.06Q347.26 98.49 347.26 99.35L347.26 99.35Q347.26 100.22 345.89 100.22L345.89 100.22Q343.94 100.22 342.50 100L342.50 100Q340.78 99.86 339.55 99.86L339.55 99.86Q338.40 99.86 336.53 100L336.53 100Q335.02 100.22 333 100.22L333 100.22ZM394.56 101.37Q394.42 101.37 394.06 101.01Q393.70 100.65 393.70 100.50L393.70 100.50Q393.70 100.07 393.84 98.92L393.84 98.92Q394.06 97.48 394.06 96.33L394.06 96.33L394.06 95.90Q392.76 97.98 390.24 99.50Q387.72 101.01 384.62 101.01L384.62 101.01Q380.66 101.01 377.60 98.92Q374.54 96.83 372.82 93.41Q371.09 89.99 371.09 86.18L371.09 86.18Q371.09 81.71 373.14 77.97Q375.19 74.22 378.97 71.99Q382.75 69.76 387.65 69.76L387.65 69.76Q390.02 69.76 392.54 70.55L392.54 70.55L393.48 70.77Q393.70 70.77 393.84 70.37Q393.98 69.98 393.98 69.26L393.98 69.26L393.98 59.68Q393.98 57.02 393.19 55.90Q392.40 54.78 390.60 54.42L390.60 54.42Q390.31 54.35 390.10 54.06Q389.88 53.78 389.88 53.42L389.88 53.42Q389.88 52.70 390.53 52.48L390.53 52.48Q394.85 51.47 399.17 49.67L399.17 49.67Q400.03 49.31 400.39 49.31L400.39 49.31Q400.97 49.31 400.97 49.89L400.97 49.89Q400.97 50.10 400.75 52.08Q400.54 54.06 400.54 57.95L400.54 57.95L400.39 91.86Q400.39 94.38 400.75 95.43Q401.11 96.47 401.98 96.47L401.98 96.47L405 96.26L405.36 96.26Q405.79 96.26 405.97 96.40Q406.15 96.54 406.15 96.98L406.15 96.98Q406.15 97.48 405.79 97.95Q405.43 98.42 405.07 98.42L405.07 98.42Q400.68 98.92 395.78 100.94L395.78 100.94Q394.92 101.37 394.56 101.37L394.56 101.37ZM387.58 96.83Q389.23 96.83 390.96 96.00Q392.69 95.18 393.91 93.81L393.91 93.81L393.91 79.77Q393.91 78.04 392.83 76.38Q391.75 74.73 389.92 73.68Q388.08 72.64 385.92 72.64L385.92 72.64Q384.05 72.64 382.21 73.83Q380.38 75.02 379.15 77.68Q377.93 80.34 377.93 84.45L377.93 84.45Q377.93 88.91 379.51 91.68Q381.10 94.46 383.33 95.64Q385.56 96.83 387.58 96.83L387.58 96.83ZM424.94 100.22Q423.50 100.22 423.50 99.35L423.50 99.35Q423.50 98.85 423.90 98.60Q424.30 98.34 425.16 98.06L425.16 98.06Q426.67 97.55 427.39 97.08Q428.11 96.62 428.11 95.32L428.11 95.32L428.11 79.48Q428.11 77.39 427.61 76.20Q427.10 75.02 425.59 74.73L425.59 74.73Q424.87 74.58 424.87 73.72L424.87 73.72Q424.87 72.78 425.52 72.71L425.52 72.71Q428.11 72.06 429.91 71.20Q431.71 70.34 434.09 68.90L434.09 68.90Q434.66 68.61 434.81 68.61L434.81 68.61Q435.31 68.61 435.31 69.18L435.31 69.18L435.17 70.77Q435.10 71.27 435.02 72.06Q434.95 72.86 434.95 73.72L434.95 73.72Q434.95 74.44 435.10 74.58L435.10 74.58L435.24 74.58Q440.21 69.76 446.26 69.76L446.26 69.76Q451.30 69.76 453.38 74.94L453.38 74.94L453.60 74.94Q458.78 69.76 465.05 69.76L465.05 69.76Q468.43 69.76 470.48 72.68Q472.54 75.59 472.54 79.84L472.54 79.84L472.54 95.39Q472.54 96.69 473.22 97.12Q473.90 97.55 475.49 98.06L475.49 98.06Q476.28 98.27 476.68 98.56Q477.07 98.85 477.07 99.35L477.07 99.35Q477.07 100.22 475.70 100.22L475.70 100.22Q473.76 100.22 472.32 100L472.32 100Q470.59 99.86 469.37 99.86L469.37 99.86Q468.14 99.86 466.42 100L466.42 100Q465.05 100.22 463.03 100.22L463.03 100.22Q461.66 100.22 461.66 99.35L461.66 99.35Q461.66 98.85 462.06 98.56Q462.46 98.27 463.25 98.06L463.25 98.06Q464.54 97.70 465.23 97.19Q465.91 96.69 465.91 95.54L465.91 95.54L465.91 80.49Q465.91 77.90 464.40 75.95Q462.89 74.01 460.80 74.01L460.80 74.01Q457.49 74.01 455.26 75.88L455.26 75.88Q453.60 77.18 453.60 80.27L453.60 80.27L453.60 95.39Q453.60 96.69 454.32 97.19Q455.04 97.70 456.48 98.06L456.48 98.06Q457.27 98.34 457.67 98.60Q458.06 98.85 458.06 99.35L458.06 99.35Q458.06 100.22 456.70 100.22L456.70 100.22Q454.75 100.22 453.31 100L453.31 100Q451.58 99.86 450.36 99.86L450.36 99.86Q449.14 99.86 447.41 100L447.41 100Q446.04 100.22 444.02 100.22L444.02 100.22Q443.45 100.22 443.05 100Q442.66 99.78 442.66 99.35L442.66 99.35Q442.66 98.85 443.05 98.60Q443.45 98.34 444.24 98.06L444.24 98.06Q445.54 97.70 446.26 97.19Q446.98 96.69 446.98 95.54L446.98 95.54L446.98 80.49Q446.98 77.90 445.50 75.99Q444.02 74.08 441.86 74.01L441.86 74.01Q438.70 74.01 436.32 75.88L436.32 75.88Q434.74 76.96 434.74 80.20L434.74 80.20L434.74 95.39Q434.74 96.62 435.38 97.12Q436.03 97.62 437.40 98.06L437.40 98.06Q438.19 98.34 438.59 98.60Q438.98 98.85 438.98 99.35L438.98 99.35Q438.98 100.22 437.62 100.22L437.62 100.22Q435.60 100.22 434.30 100L434.30 100Q432.58 99.86 431.42 99.86L431.42 99.86Q430.27 99.86 428.40 100L428.40 100Q427.03 100.22 424.94 100.22L424.94 100.22ZM493.85 101.08Q489.96 101.08 486.94 99.06Q483.91 97.05 482.22 93.48Q480.53 89.92 480.53 85.31L480.53 85.31Q480.53 81.14 482.51 77.57Q484.49 74.01 487.84 71.88Q491.18 69.76 495.07 69.76L495.07 69.76Q499.54 69.76 502.45 72.42Q505.37 75.09 505.37 79.12L505.37 79.12Q505.37 80.34 504.83 80.92Q504.29 81.50 503.14 81.50L503.14 81.50L488.23 81.50Q487.22 81.50 486.83 82.07Q486.43 82.65 486.43 84.16L486.43 84.16Q486.43 87.33 487.80 89.99Q489.17 92.66 491.58 94.20Q493.99 95.75 496.87 95.75L496.87 95.75Q500.90 95.75 504.07 92.58L504.07 92.58Q504.43 92.01 504.86 92.01L504.86 92.01Q505.51 92.01 505.51 92.80L505.51 92.80Q505.51 93.88 504.50 95.54L504.50 95.54Q502.99 97.98 500.15 99.53Q497.30 101.08 493.85 101.08L493.85 101.08ZM488.38 79.05L494.06 79.05Q497.30 79.05 499.03 78.69L499.03 78.69Q499.68 78.47 499.68 76.89L499.68 76.89Q499.68 74.87 498.02 73.47Q496.37 72.06 494.06 72.06L494.06 72.06Q492.55 72.06 490.97 73Q489.38 73.94 488.41 75.38Q487.44 76.82 487.44 78.18L487.44 78.18Q487.44 79.05 488.38 79.05L488.38 79.05ZM532.58 101.37Q532.44 101.37 532.08 101.01Q531.72 100.65 531.72 100.50L531.72 100.50Q531.72 100.07 531.86 98.92L531.86 98.92Q532.08 97.48 532.08 96.33L532.08 96.33L532.08 95.90Q530.78 97.98 528.26 99.50Q525.74 101.01 522.65 101.01L522.65 101.01Q518.69 101.01 515.63 98.92Q512.57 96.83 510.84 93.41Q509.11 89.99 509.11 86.18L509.11 86.18Q509.11 81.71 511.16 77.97Q513.22 74.22 517.00 71.99Q520.78 69.76 525.67 69.76L525.67 69.76Q528.05 69.76 530.57 70.55L530.57 70.55L531.50 70.77Q531.72 70.77 531.86 70.37Q532.01 69.98 532.01 69.26L532.01 69.26L532.01 59.68Q532.01 57.02 531.22 55.90Q530.42 54.78 528.62 54.42L528.62 54.42Q528.34 54.35 528.12 54.06Q527.90 53.78 527.90 53.42L527.90 53.42Q527.90 52.70 528.55 52.48L528.55 52.48Q532.87 51.47 537.19 49.67L537.19 49.67Q538.06 49.31 538.42 49.31L538.42 49.31Q538.99 49.31 538.99 49.89L538.99 49.89Q538.99 50.10 538.78 52.08Q538.56 54.06 538.56 57.95L538.56 57.95L538.42 91.86Q538.42 94.38 538.78 95.43Q539.14 96.47 540 96.47L540 96.47L543.02 96.26L543.38 96.26Q543.82 96.26 544.00 96.40Q544.18 96.54 544.18 96.98L544.18 96.98Q544.18 97.48 543.82 97.95Q543.46 98.42 543.10 98.42L543.10 98.42Q538.70 98.92 533.81 100.94L533.81 100.94Q532.94 101.37 532.58 101.37L532.58 101.37ZM525.60 96.83Q527.26 96.83 528.98 96.00Q530.71 95.18 531.94 93.81L531.94 93.81L531.94 79.77Q531.94 78.04 530.86 76.38Q529.78 74.73 527.94 73.68Q526.10 72.64 523.94 72.64L523.94 72.64Q522.07 72.64 520.24 73.83Q518.40 75.02 517.18 77.68Q515.95 80.34 515.95 84.45L515.95 84.45Q515.95 88.91 517.54 91.68Q519.12 94.46 521.35 95.64Q523.58 96.83 525.60 96.83L525.60 96.83ZM547.56 100.22Q546.19 100.22 546.19 99.35L546.19 99.35Q546.19 98.56 547.70 98.13L547.70 98.13Q549.50 97.62 550.22 97.08Q550.94 96.54 550.94 95.39L550.94 95.39L550.94 79.84Q550.94 75.23 547.70 74.73L547.70 74.73Q546.98 74.66 546.98 73.65L546.98 73.65Q546.98 72.78 547.63 72.71L547.63 72.71Q552.31 71.70 556.49 68.90L556.49 68.90Q557.35 68.39 557.64 68.39L557.64 68.39Q558.22 68.39 558.22 68.97L558.22 68.97Q558.22 69.40 557.93 72.28L557.93 72.28Q557.50 76.60 557.50 78.98L557.50 78.98L557.50 95.39Q557.50 96.47 558.25 97.08Q559.01 97.70 560.74 98.13L560.74 98.13Q562.25 98.56 562.25 99.35L562.25 99.35Q562.25 100.22 560.95 100.22L560.95 100.22Q559.08 100.22 557.42 100L557.42 100Q555.41 99.86 554.18 99.86L554.18 99.86Q552.96 99.86 551.09 100L551.09 100Q549.58 100.22 547.56 100.22L547.56 100.22ZM554.04 63.42Q552.24 63.42 550.98 62.16Q549.72 60.90 549.72 59.10L549.72 59.10Q549.72 57.23 550.98 55.97Q552.24 54.71 554.04 54.71L554.04 54.71Q555.91 54.71 557.21 55.97Q558.50 57.23 558.50 59.10L558.50 59.10Q558.50 60.90 557.21 62.16Q555.91 63.42 554.04 63.42L554.04 63.42ZM589.32 101.44Q588.74 101.44 588.74 100.79L588.74 100.79L588.89 98.70Q589.10 97.41 589.10 96.33L589.10 96.33L589.10 95.75Q584.06 101.01 577.37 101.01L577.37 101.01Q573.84 101.01 571.57 98.56Q569.30 96.11 569.30 91.94L569.30 91.94L569.30 77.68Q569.30 76.10 568.58 75.12Q567.86 74.15 566.28 73.65L566.28 73.65Q565.27 73.36 565.27 72.42L565.27 72.42Q565.27 71.34 566.35 71.20L566.35 71.20Q568.80 71.06 570.46 70.77Q572.11 70.48 574.63 69.83L574.63 69.83Q575.35 69.69 575.57 69.69L575.57 69.69Q576.43 69.69 576.36 70.70L576.36 70.70Q575.86 73.79 575.86 76.24L575.86 76.24L575.86 90.21Q575.86 92.80 577.51 94.64Q579.17 96.47 581.33 96.54L581.33 96.54Q583.20 96.54 584.42 96.26Q585.65 95.97 586.80 95.03L586.80 95.03Q589.39 93.02 589.39 89.92L589.39 89.92L589.39 77.32Q589.39 75.45 587.99 74.55Q586.58 73.65 584.93 73.58L584.93 73.58Q583.34 73.58 583.34 72.28L583.34 72.28Q583.34 71.06 584.93 71.06L584.93 71.06Q588.89 70.91 590.87 70.66Q592.85 70.41 594.94 69.83L594.94 69.83Q595.37 69.69 595.73 69.69L595.73 69.69Q596.16 69.69 596.45 69.90Q596.74 70.12 596.74 70.48L596.74 70.48Q596.74 70.70 596.66 70.88Q596.59 71.06 596.52 71.27L596.52 71.27Q596.38 72.14 596.20 73.79Q596.02 75.45 596.02 76.31L596.02 76.31L596.02 92.94Q596.02 96.26 597.31 96.26L597.31 96.26L600.19 96.11Q601.34 96.11 601.34 97.19L601.34 97.19Q601.34 98.20 600.26 98.34L600.26 98.34Q597.53 98.70 595.40 99.35Q593.28 100 590.90 100.94L590.90 100.94Q589.90 101.44 589.32 101.44L589.32 101.44ZM605.09 100.22Q603.65 100.22 603.65 99.35L603.65 99.35Q603.65 98.85 604.04 98.60Q604.44 98.34 605.30 98.06L605.30 98.06Q606.82 97.55 607.54 97.08Q608.26 96.62 608.26 95.32L608.26 95.32L608.26 79.48Q608.26 77.39 607.75 76.20Q607.25 75.02 605.74 74.73L605.74 74.73Q605.02 74.58 605.02 73.72L605.02 73.72Q605.02 72.78 605.66 72.71L605.66 72.71Q608.26 72.06 610.06 71.20Q611.86 70.34 614.23 68.90L614.23 68.90Q614.81 68.61 614.95 68.61L614.95 68.61Q615.46 68.61 615.46 69.18L615.46 69.18L615.31 70.77Q615.24 71.27 615.17 72.06Q615.10 72.86 615.10 73.72L615.10 73.72Q615.10 74.44 615.24 74.58L615.24 74.58L615.38 74.58Q620.35 69.76 626.40 69.76L626.40 69.76Q631.44 69.76 633.53 74.94L633.53 74.94L633.74 74.94Q638.93 69.76 645.19 69.76L645.19 69.76Q648.58 69.76 650.63 72.68Q652.68 75.59 652.68 79.84L652.68 79.84L652.68 95.39Q652.68 96.69 653.36 97.12Q654.05 97.55 655.63 98.06L655.63 98.06Q656.42 98.27 656.82 98.56Q657.22 98.85 657.22 99.35L657.22 99.35Q657.22 100.22 655.85 100.22L655.85 100.22Q653.90 100.22 652.46 100L652.46 100Q650.74 99.86 649.51 99.86L649.51 99.86Q648.29 99.86 646.56 100L646.56 100Q645.19 100.22 643.18 100.22L643.18 100.22Q641.81 100.22 641.81 99.35L641.81 99.35Q641.81 98.85 642.20 98.56Q642.60 98.27 643.39 98.06L643.39 98.06Q644.69 97.70 645.37 97.19Q646.06 96.69 646.06 95.54L646.06 95.54L646.06 80.49Q646.06 77.90 644.54 75.95Q643.03 74.01 640.94 74.01L640.94 74.01Q637.63 74.01 635.40 75.88L635.40 75.88Q633.74 77.18 633.74 80.27L633.74 80.27L633.74 95.39Q633.74 96.69 634.46 97.19Q635.18 97.70 636.62 98.06L636.62 98.06Q637.42 98.34 637.81 98.60Q638.21 98.85 638.21 99.35L638.21 99.35Q638.21 100.22 636.84 100.22L636.84 100.22Q634.90 100.22 633.46 100L633.46 100Q631.73 99.86 630.50 99.86L630.50 99.86Q629.28 99.86 627.55 100L627.55 100Q626.18 100.22 624.17 100.22L624.17 100.22Q623.59 100.22 623.20 100Q622.80 99.78 622.80 99.35L622.80 99.35Q622.80 98.85 623.20 98.60Q623.59 98.34 624.38 98.06L624.38 98.06Q625.68 97.70 626.40 97.19Q627.12 96.69 627.12 95.54L627.12 95.54L627.12 80.49Q627.12 77.90 625.64 75.99Q624.17 74.08 622.01 74.01L622.01 74.01Q618.84 74.01 616.46 75.88L616.46 75.88Q614.88 76.96 614.88 80.20L614.88 80.20L614.88 95.39Q614.88 96.62 615.53 97.12Q616.18 97.62 617.54 98.06L617.54 98.06Q618.34 98.34 618.73 98.60Q619.13 98.85 619.13 99.35L619.13 99.35Q619.13 100.22 617.76 100.22L617.76 100.22Q615.74 100.22 614.45 100L614.45 100Q612.72 99.86 611.57 99.86L611.57 99.86Q610.42 99.86 608.54 100L608.54 100Q607.18 100.22 605.09 100.22L605.09 100.22Z"/></svg>