<svg xmlns="http://www.w3.org/2000/svg" viewBox="-2.3040000000000003 48.95199999999999 554.9759999999999 52.27200000000001"><path d="M-0.58 100.36Q-2.30 100.36-2.30 99.57L-2.30 99.57Q-2.30 98.70 0.29 98.27L0.29 98.27Q3.82 97.70 5.36 96.51Q6.91 95.32 7.70 92.87L7.70 92.87L17.57 60.47Q18.07 58.96 18.07 57.88L18.07 57.88Q18.07 56.51 17.06 55.94Q16.06 55.36 13.54 55.00L13.54 55.00Q12.46 54.86 12.06 54.57Q11.66 54.28 11.66 53.78L11.66 53.78Q11.66 52.98 13.90 52.98L13.90 52.98Q15.19 52.98 16.34 53.06L16.34 53.06Q20.09 53.20 22.61 53.20L22.61 53.20L34.20 53.20Q40.68 53.20 42.30 52.84Q43.92 52.48 44.06 52.48L44.06 52.48Q44.35 52.48 44.60 52.80Q44.86 53.13 44.86 53.42L44.86 53.42Q44.86 53.70 44.35 55.22L44.35 55.22Q43.06 58.96 42.70 61.48L42.70 61.48Q42.62 62.20 42.23 62.52Q41.83 62.85 41.47 62.85L41.47 62.85Q41.11 62.85 40.86 62.34Q40.61 61.84 40.68 61.05L40.68 61.05Q40.75 60.47 40.75 59.54L40.75 59.54Q40.75 57.09 39.82 56.15Q38.88 55.22 36.43 55.22L36.43 55.22L27.65 55.22Q25.99 55.22 25.24 55.68Q24.48 56.15 24.12 57.38L24.12 57.38L19.30 72.64Q19.01 73.43 19.01 74.01L19.01 74.01Q19.01 74.94 20.45 74.87L20.45 74.87L29.38 74.66Q31.10 74.58 32.22 73.90Q33.34 73.22 34.34 71.99L34.34 71.99Q34.56 71.70 35.03 71.09Q35.50 70.48 35.93 70.12Q36.36 69.76 36.72 69.76L36.72 69.76Q37.37 69.76 37.37 70.55L37.37 70.55Q37.37 71.06 37.01 71.78L37.01 71.78Q35.93 73.94 35.06 76.17L35.06 76.17Q34.27 78.40 33.62 81.42L33.62 81.42Q33.26 82.94 32.69 82.94L32.69 82.94Q32.18 82.94 31.97 82.29Q31.75 81.64 31.75 80.99L31.75 80.99Q31.75 76.96 29.02 76.96L29.02 76.96L20.74 76.82Q19.22 76.82 18.43 77.21Q17.64 77.61 17.28 79.05L17.28 79.05L13.61 92.15Q12.96 94.38 12.96 95.75L12.96 95.75Q12.96 97.12 13.68 97.62Q14.40 98.13 16.06 98.13L16.06 98.13L27.22 98.13Q30.24 98.13 32.98 96.18L32.98 96.18Q34.92 94.82 36.86 91.65L36.86 91.65Q36.94 91.58 37.30 90.96Q37.66 90.35 38.16 90.35L38.16 90.35Q38.66 90.35 38.66 91.79L38.66 91.79Q38.66 92.73 37.69 95.10Q36.72 97.48 35.86 98.85L35.86 98.85Q34.92 100.36 33.48 100.36L33.48 100.36Q32.18 100.36 18.36 100.14L18.36 100.14Q12.67 99.93 8.06 99.93L8.06 99.93Q5.69 99.93 3.82 100.14L3.82 100.14Q3.24 100.14 1.98 100.25Q0.72 100.36-0.58 100.36L-0.58 100.36ZM41.76 100.36Q40.82 100.36 40.43 100.18Q40.03 100 40.03 99.57L40.03 99.57Q40.03 99.06 40.64 98.78Q41.26 98.49 42.62 98.27L42.62 98.27Q45.43 97.77 47.09 96.54Q48.74 95.32 49.54 92.87L49.54 92.87L59.40 60.47Q59.90 58.67 59.90 58.02L59.90 58.02Q59.90 56.80 59.11 56.22Q58.32 55.65 56.52 55.29L56.52 55.29Q55.37 55.07 54.97 54.82Q54.58 54.57 54.58 54.06L54.58 54.06Q54.58 53.63 55.26 53.42Q55.94 53.20 56.95 53.20L56.95 53.20Q58.61 53.20 59.90 53.42L59.90 53.42Q61.34 53.56 62.35 53.56L62.35 53.56Q63.22 53.56 64.51 53.42Q65.81 53.27 66.31 53.20L66.31 53.20Q68.47 52.84 69.70 52.84L69.70 52.84Q76.54 52.84 79.78 55.47Q83.02 58.10 83.02 62.20L83.02 62.20Q83.02 65.44 81.04 67.89Q79.06 70.34 76.07 71.81Q73.08 73.29 70.13 73.65L70.13 73.65Q69.62 73.72 69.62 73.97Q69.62 74.22 69.91 74.37L69.91 74.37Q74.45 76.10 76.68 78.76Q78.91 81.42 78.91 86.18L78.91 86.18Q78.91 90.28 76.39 93.48Q73.87 96.69 69.48 98.49Q65.09 100.29 59.62 100.29L59.62 100.29Q57.17 100.29 54.14 100L54.14 100Q52.20 99.78 50.54 99.78L50.54 99.78Q48.89 99.78 46.44 100.07L46.44 100.07Q43.85 100.36 41.76 100.36L41.76 100.36ZM61.99 73.29Q64.66 73.29 68.62 72.42L68.62 72.42Q72.50 70.77 74.84 68.21Q77.18 65.66 77.18 62.20L77.18 62.20Q77.18 59.10 74.81 57.05Q72.43 55.00 68.33 55.00L68.33 55.00Q66.96 55.00 66.35 55.25Q65.74 55.50 65.59 56.15L65.59 56.15L61.13 72.21Q61.06 72.35 61.06 72.64L61.06 72.64Q61.06 73.29 61.99 73.29L61.99 73.29ZM59.40 98.49Q62.64 98.49 65.84 96.72Q69.05 94.96 71.06 91.94Q73.08 88.91 73.08 85.24L73.08 85.24Q73.08 80.27 70.09 77.68Q67.10 75.09 61.20 75.09L61.20 75.09Q60.05 75.09 59.69 76.46L59.69 76.46L55.08 92.22Q54.79 93.09 54.79 94.17L54.79 94.17Q54.79 95.82 55.80 96.76L55.80 96.76Q56.74 97.62 57.49 98.06Q58.25 98.49 59.40 98.49L59.40 98.49ZM125.06 101.01Q118.73 101.01 113.72 98.85Q108.72 96.69 105.80 92.37Q102.89 88.05 102.89 81.71L102.89 81.71Q102.89 73.50 106.99 66.77Q111.10 60.04 118.22 56.15Q125.35 52.26 134.06 52.26L134.06 52.26Q137.38 52.26 141.05 53.63L141.05 53.63Q142.06 54.06 143.03 54.39Q144 54.71 144.79 54.71L144.79 54.71Q145.22 54.71 145.76 54.42Q146.30 54.14 146.45 54.06L146.45 54.06Q147.31 53.56 147.89 53.56L147.89 53.56Q148.61 53.56 148.61 54.14L148.61 54.14Q148.61 54.50 148.39 54.71L148.39 54.71Q147.02 56.58 145.51 59.64Q144 62.70 143.57 64.94L143.57 64.94Q143.42 65.66 143.03 66.12Q142.63 66.59 142.27 66.59L142.27 66.59Q141.12 66.59 141.12 65.15L141.12 65.15Q141.12 64.72 141.19 64.50L141.19 64.50Q141.41 63.50 141.41 62.49L141.41 62.49Q141.41 59.68 139.97 57.88L139.97 57.88Q138.89 56.37 137.05 55.36Q135.22 54.35 132.70 54.35L132.70 54.35Q126.29 54.35 120.89 58.56Q115.49 62.78 112.36 69.54Q109.22 76.31 109.22 83.58L109.22 83.58Q109.22 88.12 111.60 91.65Q113.98 95.18 117.65 97.08Q121.32 98.99 125.06 98.99L125.06 98.99Q128.16 98.99 130.18 97.26Q132.19 95.54 132.91 92.80L132.91 92.80L134.93 84.95Q135.07 84.52 135.07 83.80L135.07 83.80Q135.07 83.08 134.75 82.65Q134.42 82.22 133.63 82L133.63 82Q132.84 81.78 130.39 81.28L130.39 81.28Q129.24 81.06 128.70 80.85Q128.16 80.63 128.16 80.20L128.16 80.20Q128.16 79.70 128.81 79.41Q129.46 79.12 130.46 79.12L130.46 79.12Q132.77 79.12 134.71 79.34L134.71 79.34Q135.22 79.34 136.44 79.44Q137.66 79.55 138.89 79.55L138.89 79.55Q139.75 79.55 140.65 79.44Q141.55 79.34 141.98 79.34L141.98 79.34Q143.42 79.12 145.01 79.12L145.01 79.12Q145.66 79.12 146.09 79.41Q146.52 79.70 146.52 80.13L146.52 80.13Q146.52 80.56 145.91 80.96Q145.30 81.35 144.22 81.57L144.22 81.57Q142.56 81.86 141.66 82.54Q140.76 83.22 140.11 84.66L140.11 84.66Q139.18 86.61 138.35 89.56Q137.52 92.51 137.52 93.38L137.52 93.38Q137.52 94.46 138.31 95.68L138.31 95.68Q137.81 96.98 135.47 98.20Q133.13 99.42 130.18 100.22Q127.22 101.01 125.06 101.01L125.06 101.01ZM149.76 101.01Q148.39 101.01 147.24 100Q146.09 98.99 146.09 97.84L146.09 97.84Q146.09 94.02 149.87 88.34Q153.65 82.65 159.77 77.32L159.77 77.32Q167.47 70.55 169.70 70.55L169.70 70.55Q170.86 70.55 171.72 71.56L171.72 71.56Q172.58 72.78 172.66 72.78L172.66 72.78L173.02 72.21Q174.46 69.76 174.24 70.05L174.24 70.05Q174.67 69.33 175.10 69.33L175.10 69.33Q176.11 69.33 176.98 69.83Q177.84 70.34 177.84 70.84L177.84 70.84Q177.84 71.20 177.34 72.64L177.34 72.64L169.27 94.02Q168.98 94.67 168.98 95.25L168.98 95.25Q168.98 96.47 170.21 96.47L170.21 96.47Q171.50 96.47 173.34 95.21Q175.18 93.95 176.54 92.15L176.54 92.15Q176.76 91.79 177.19 91.79L177.19 91.79Q177.70 91.79 177.70 92.58L177.70 92.58Q177.70 93.09 176.69 94.56Q175.68 96.04 174.60 97.12L174.60 97.12Q172.58 98.99 170.53 100Q168.48 101.01 166.75 101.01L166.75 101.01Q165.60 101.01 164.63 100.11Q163.66 99.21 163.66 98.20L163.66 98.20Q163.66 97.41 164.09 96.54L164.09 96.54Q163.66 97.34 164.27 95.93Q164.88 94.53 165.78 92.62Q166.68 90.71 167.47 88.98L167.47 88.98Q167.83 88.19 167.80 87.80Q167.76 87.40 167.33 87.90L167.33 87.90Q160.78 95.25 156.89 98.13Q153 101.01 149.76 101.01L149.76 101.01ZM153.79 96.47Q155.38 96.47 158.54 93.84Q161.71 91.22 165.60 86.54L165.60 86.54Q168.34 83.37 169.92 80.70Q171.50 78.04 171.50 76.74L171.50 76.74Q171.50 76.17 170.57 75.38L170.57 75.38Q169.49 74.58 168.77 74.58L168.77 74.58Q167.47 74.58 165.20 75.88Q162.94 77.18 161.06 78.98L161.06 78.98Q157.39 82.58 154.55 87.08Q151.70 91.58 151.70 94.02L151.70 94.02Q151.70 95.10 152.28 95.79Q152.86 96.47 153.79 96.47L153.79 96.47ZM184.75 101.22Q184.18 101.22 183.56 100.68Q182.95 100.14 182.95 99.50L182.95 99.50Q182.95 98.70 183.42 97.26Q183.89 95.82 184.61 93.95L184.61 93.95L191.23 76.67Q191.52 76.02 191.52 75.16L191.52 75.16Q191.52 74.15 190.80 74.15L190.80 74.15Q189.86 74.15 188.89 74.40Q187.92 74.66 187.34 74.94L187.34 74.94Q187.13 75.09 186.77 75.09L186.77 75.09Q186.12 75.09 186.12 74.37L186.12 74.37Q186.12 73.79 186.66 73.07Q187.20 72.35 188.14 71.70L188.14 71.70Q190.15 70.19 192.67 70.19L192.67 70.19Q195.55 70.19 195.55 72.57L195.55 72.57Q195.55 74.08 194.11 77.75L194.11 77.75L190.87 85.89L190.80 86.18Q190.80 86.54 191.20 86.61Q191.59 86.68 191.74 86.32L191.74 86.32Q196.06 78.98 200.34 74.40Q204.62 69.83 207.14 69.83L207.14 69.83Q208.87 69.83 209.70 70.84Q210.53 71.85 210.53 73.43L210.53 73.43Q210.53 75.52 209.45 77.39Q208.37 79.26 206.93 79.26L206.93 79.26Q205.78 79.26 205.78 76.74L205.78 76.74Q205.78 74.44 204.41 74.44L204.41 74.44Q202.75 74.44 199.51 78.62L199.51 78.62Q197.78 80.85 194.58 85.82Q191.38 90.78 189.22 94.60L189.22 94.60Q189.07 94.82 187.63 97.48L187.63 97.48Q186.48 99.64 185.90 100.43Q185.33 101.22 184.75 101.22L184.75 101.22ZM208.08 101.01Q206.71 101.01 205.56 100Q204.41 98.99 204.41 97.84L204.41 97.84Q204.41 94.02 208.19 88.34Q211.97 82.65 218.09 77.32L218.09 77.32Q225.79 70.55 228.02 70.55L228.02 70.55Q229.18 70.55 230.04 71.56L230.04 71.56Q230.90 72.78 230.98 72.78L230.98 72.78L231.34 72.21Q232.78 69.76 232.56 70.05L232.56 70.05Q232.99 69.33 233.42 69.33L233.42 69.33Q234.43 69.33 235.30 69.83Q236.16 70.34 236.16 70.84L236.16 70.84Q236.16 71.20 235.66 72.64L235.66 72.64L227.59 94.02Q227.30 94.67 227.30 95.25L227.30 95.25Q227.30 96.47 228.53 96.47L228.53 96.47Q229.82 96.47 231.66 95.21Q233.50 93.95 234.86 92.15L234.86 92.15Q235.08 91.79 235.51 91.79L235.51 91.79Q236.02 91.79 236.02 92.58L236.02 92.58Q236.02 93.09 235.01 94.56Q234.00 96.04 232.92 97.12L232.92 97.12Q230.90 98.99 228.85 100Q226.80 101.01 225.07 101.01L225.07 101.01Q223.92 101.01 222.95 100.11Q221.98 99.21 221.98 98.20L221.98 98.20Q221.98 97.41 222.41 96.54L222.41 96.54Q221.98 97.34 222.59 95.93Q223.20 94.53 224.10 92.62Q225.00 90.71 225.79 88.98L225.79 88.98Q226.15 88.19 226.12 87.80Q226.08 87.40 225.65 87.90L225.65 87.90Q219.10 95.25 215.21 98.13Q211.32 101.01 208.08 101.01L208.08 101.01ZM212.11 96.47Q213.70 96.47 216.86 93.84Q220.03 91.22 223.92 86.54L223.92 86.54Q226.66 83.37 228.24 80.70Q229.82 78.04 229.82 76.74L229.82 76.74Q229.82 76.17 228.89 75.38L228.89 75.38Q227.81 74.58 227.09 74.58L227.09 74.58Q225.79 74.58 223.52 75.88Q221.26 77.18 219.38 78.98L219.38 78.98Q215.71 82.58 212.87 87.08Q210.02 91.58 210.02 94.02L210.02 94.02Q210.02 95.10 210.60 95.79Q211.18 96.47 212.11 96.47L212.11 96.47ZM244.15 101.22Q243.65 101.22 243.25 100.50Q242.86 99.78 242.86 99.06L242.86 99.06Q242.86 98.42 244.51 93.95L244.51 93.95L251.14 76.60Q251.28 76.02 251.28 75.74L251.28 75.74Q251.28 75.16 250.92 74.76Q250.56 74.37 249.91 74.37L249.91 74.37Q248.62 74.37 247.46 74.98Q246.31 75.59 244.73 77.68L244.73 77.68Q244.51 77.97 244.15 77.97L244.15 77.97Q243.72 77.97 243.65 77.39L243.65 77.39Q243.58 76.74 243.97 75.56Q244.37 74.37 244.87 73.79L244.87 73.79Q247.75 70.26 252.00 70.19L252.00 70.19Q253.44 70.19 254.52 70.80Q255.60 71.42 255.60 72.71L255.60 72.71Q255.60 73.43 255.31 74.08L255.31 74.08L251.21 84.74L251.14 85.02Q251.14 85.31 251.42 85.31Q251.71 85.31 251.86 85.02L251.86 85.02Q261.50 70.19 268.20 70.19L268.20 70.19Q269.93 70.19 271.12 71.31Q272.30 72.42 272.30 74.44L272.30 74.44Q272.30 75.74 271.80 77.18L271.80 77.18L269.21 84.74L269.14 85.02Q269.14 85.31 269.42 85.31Q269.71 85.31 269.86 85.02L269.86 85.02Q274.32 77.75 278.60 73.97Q282.89 70.19 286.49 70.19L286.49 70.19Q288.14 70.19 289.26 71.31Q290.38 72.42 290.38 74.51L290.38 74.51Q290.38 75.95 289.66 77.82L289.66 77.82L283.46 93.81Q283.03 94.96 283.03 95.54L283.03 95.54Q283.03 96.40 283.82 96.40L283.82 96.40Q285.98 96.40 291.82 90.57L291.82 90.57Q291.89 90.50 292.03 90.50L292.03 90.50Q292.25 90.50 292.43 90.68Q292.61 90.86 292.61 91.14L292.61 91.14Q292.61 92.37 291.31 93.74L291.31 93.74Q288.43 97.05 285.59 99.03Q282.74 101.01 279.65 101.01L279.65 101.01Q278.86 101.01 278.10 100.22Q277.34 99.42 277.34 98.42L277.34 98.42Q277.34 98.13 277.49 97.70L277.49 97.70L285.84 76.17Q286.06 75.52 286.06 75.02L286.06 75.02Q286.06 74.15 285.55 73.68Q285.05 73.22 284.33 73.22L284.33 73.22Q283.03 73.22 281.12 74.55Q279.22 75.88 276.98 78.62L276.98 78.62Q275.18 80.78 271.98 85.71Q268.78 90.64 266.69 94.38L266.69 94.38Q264.89 97.77 263.38 99.50Q261.86 101.22 261.00 101.22L261.00 101.22Q260.50 101.22 260.10 100.61Q259.70 100 259.70 99.28L259.70 99.28Q259.70 98.42 261.36 93.95L261.36 93.95L268.06 75.95Q268.27 75.30 268.27 74.80L268.27 74.80Q268.27 73.86 267.59 73.43Q266.90 73 266.40 73L266.40 73Q265.18 73 263.27 74.40Q261.36 75.81 259.20 78.47L259.20 78.47Q257.47 80.56 254.23 85.56Q250.99 90.57 248.90 94.38L248.90 94.38L248.18 95.75Q246.46 98.92 245.66 100.07Q244.87 101.22 244.15 101.22L244.15 101.22ZM303.34 101.01Q300.74 101.01 298.76 98.52Q296.78 96.04 296.78 92.87L296.78 92.87Q296.78 88.26 299.16 82.90Q301.54 77.54 305.53 73.86Q309.53 70.19 314.06 70.19L314.06 70.19Q317.59 70.19 319.61 72.60Q321.62 75.02 321.62 78.69L321.62 78.69Q321.62 83.22 319.28 88.48Q316.94 93.74 312.73 97.37Q308.52 101.01 303.34 101.01L303.34 101.01ZM304.49 98.85Q307.22 98.85 310.18 95.07Q313.13 91.29 315.07 86.00Q317.02 80.70 317.02 76.67L317.02 76.67Q317.02 74.58 316.33 73.47Q315.65 72.35 313.92 72.35L313.92 72.35Q311.26 72.35 308.30 75.84Q305.35 79.34 303.37 84.56Q301.39 89.78 301.39 94.38L301.39 94.38Q301.39 98.85 304.49 98.85L304.49 98.85ZM327.46 101.15Q326.74 101.15 326.12 100.32Q325.51 99.50 325.51 98.63L325.51 98.63Q325.51 98.42 325.66 97.98L325.66 97.98L334.01 77.54Q334.73 75.88 334.73 75.02L334.73 75.02Q334.73 74.37 334.15 74.37L334.15 74.37Q332.78 74.37 331.60 75.02Q330.41 75.66 328.82 77.68L328.82 77.68Q328.61 77.97 328.25 77.97L328.25 77.97Q327.82 77.97 327.74 77.39L327.74 77.39Q327.67 76.82 328.18 75.70Q328.68 74.58 329.26 73.79L329.26 73.79Q330.34 72.14 332.21 71.20Q334.08 70.26 336.46 70.19L336.46 70.19Q337.46 70.19 338.22 70.84Q338.98 71.49 338.98 72.50L338.98 72.50Q338.98 72.71 338.83 73.29L338.83 73.29L334.08 85.53L334.01 85.82Q334.01 86.10 334.30 86.10Q334.58 86.10 334.73 85.82L334.73 85.82Q339.05 78.47 343.62 74.33Q348.19 70.19 351.58 70.19L351.58 70.19Q353.30 70.19 354.49 71.49Q355.68 72.78 355.68 74.87L355.68 74.87Q355.68 76.46 354.96 78.11L354.96 78.11L348.34 93.81Q347.90 94.96 347.90 95.54L347.90 95.54Q347.90 96.40 348.70 96.40L348.70 96.40Q350.21 96.40 353.02 94.49Q355.82 92.58 356.90 91.50L356.90 91.50Q356.98 91.43 357.12 91.43L357.12 91.43Q357.34 91.43 357.52 91.61Q357.70 91.79 357.70 92.08L357.70 92.08Q357.70 92.66 357.41 93.09L357.41 93.09Q354.46 96.69 351.07 98.85Q347.69 101.01 344.45 101.01L344.45 101.01Q343.58 101.01 342.83 100.29Q342.07 99.57 342.07 98.63L342.07 98.63Q342.07 98.13 342.22 97.84L342.22 97.84L343.66 94.60Q344.38 93.02 346.57 87.94Q348.77 82.86 350.42 78.62L350.42 78.62Q351.29 76.24 351.29 75.09L351.29 75.09Q351.29 73.22 349.78 73.22L349.78 73.22Q348.55 73.22 346.68 74.62Q344.81 76.02 342.58 78.83L342.58 78.83Q340.85 80.92 336.96 86.93Q333.07 92.94 329.69 98.92L329.69 98.92Q329.04 100.14 328.54 100.65Q328.03 101.15 327.46 101.15L327.46 101.15ZM398.02 51.90L386.35 92.30Q385.99 93.59 385.99 94.53L385.99 94.53Q385.99 96.11 387.00 96.11L387.00 96.11Q388.37 96.11 390.49 94.64Q392.62 93.16 394.06 91.14L394.06 91.14Q394.34 90.78 394.63 90.78L394.63 90.78Q395.21 90.78 395.06 91.36L395.06 91.36Q395.06 92.66 393.01 95.00Q390.96 97.34 388.37 99.17Q385.78 101.01 384.26 101.01L384.26 101.01Q383.11 101.01 382.10 100Q381.10 98.99 381.10 97.77L381.10 97.77Q381.10 97.41 381.38 95.90L381.38 95.90L382.68 89.99Q382.75 89.49 382.61 89.31Q382.46 89.13 382.25 89.42L382.25 89.42Q377.28 95.68 373.54 98.34Q369.79 101.01 365.90 101.01L365.90 101.01Q363.82 101.01 362.52 99.57Q361.22 98.13 361.22 95.82L361.22 95.82Q361.22 91.79 363.78 86.36Q366.34 80.92 370.30 76.46L370.30 76.46Q373.10 73.29 375.98 71.52Q378.86 69.76 381.17 69.76L381.17 69.76Q382.10 69.76 382.72 70.01Q383.33 70.26 385.27 71.56L385.27 71.56Q387.00 72.64 387.07 72.71L387.07 72.71L387.36 72.21L392.18 56.01Q392.47 54.86 392.47 54.57L392.47 54.57Q392.47 53.78 392.04 53.31Q391.61 52.84 390.46 52.41L390.46 52.41Q389.23 51.98 388.76 51.80Q388.30 51.62 388.30 51.40L388.30 51.40Q388.30 50.90 388.87 50.61Q389.45 50.32 390.74 50.10L390.74 50.10Q396.65 49.24 397.44 49.24L397.44 49.24Q398.30 49.24 398.30 50.25L398.30 50.25Q398.30 51.04 398.02 51.90L398.02 51.90ZM368.57 97.62Q371.66 97.62 375.77 93.99Q379.87 90.35 382.82 85.35Q385.78 80.34 385.78 76.53L385.78 76.53Q385.78 74.44 384.84 73.25Q383.90 72.06 382.18 72.06L382.18 72.06Q379.51 72.06 375.70 76.13Q371.88 80.20 369.00 85.67Q366.12 91.14 366.12 94.89L366.12 94.89Q366.12 96.47 366.66 97.05Q367.20 97.62 368.57 97.62L368.57 97.62ZM417.17 101.01Q416.02 101.01 415.19 100.25Q414.36 99.50 414.36 98.56L414.36 98.56Q414.36 97.84 414.58 97.41L414.58 97.41Q417.67 91.14 421.63 80.85L421.63 80.85Q422.28 78.90 423.14 76.89L423.14 76.89Q423.22 76.74 423.22 76.46L423.22 76.46Q423.22 76.02 422.78 76.02L422.78 76.02Q422.14 76.02 420.26 76.92Q418.39 77.82 417.17 78.76L417.17 78.76Q417.02 78.90 416.66 78.90L416.66 78.90Q416.02 78.90 416.02 78.47L416.02 78.47Q416.02 77.75 417.49 76.31Q418.97 74.87 421.49 73.22Q424.01 71.56 426.89 70.26L426.89 70.26Q427.46 69.98 428.15 70.37Q428.83 70.77 429.23 71.45Q429.62 72.14 429.48 72.50L429.48 72.50L420.70 93.30Q420.19 94.38 420.19 95.39L420.19 95.39Q420.19 96.26 421.34 96.26L421.34 96.26Q422.64 96.26 424.40 94.74Q426.17 93.23 429.26 90.14L429.26 90.14Q429.41 89.99 429.55 89.99L429.55 89.99Q429.98 89.99 429.98 90.35L429.98 90.35Q429.98 91.86 427.68 94.42Q425.38 96.98 422.32 98.99Q419.26 101.01 417.17 101.01L417.17 101.01ZM431.71 63.06Q430.63 63.06 429.91 62.20Q429.19 61.34 429.19 60.26L429.19 60.26Q429.19 58.46 430.34 57.16Q431.50 55.86 433.22 55.86L433.22 55.86Q434.30 55.86 434.99 56.80Q435.67 57.74 435.67 58.96L435.67 58.96Q435.67 60.62 434.48 61.84Q433.30 63.06 431.71 63.06L431.71 63.06ZM438.19 101.01Q437.26 101.01 436.25 100.07Q435.24 99.14 435.24 98.34L435.24 98.34Q435.24 97.05 435.67 95.86Q436.10 94.67 436.25 94.31L436.25 94.31L443.09 75.09L443.16 74.80Q443.16 74.22 442.37 74.22L442.37 74.22L439.49 74.08Q438.19 74.01 438.19 73.07L438.19 73.07Q438.19 72.78 438.98 72.06Q439.78 71.34 440.64 71.34L440.64 71.34L443.23 71.34Q443.95 71.34 444.28 71.13Q444.60 70.91 444.96 70.05L444.96 70.05L446.69 66.52Q447.12 65.66 448.56 64.47Q450.00 63.28 450.58 63.28L450.58 63.28Q450.94 63.28 451.15 63.64Q451.37 64.00 451.37 64.58L451.37 64.58Q451.37 65.15 451.15 65.58L451.15 65.58L449.28 70.41L449.21 70.70Q449.21 70.98 449.46 71.09Q449.71 71.20 450.22 71.20L450.22 71.20Q452.16 71.20 455.62 71.78L455.62 71.78Q456.70 71.99 456.98 72.21Q457.27 72.42 457.27 72.86L457.27 72.86Q457.27 73.07 456.95 73.36Q456.62 73.65 455.90 73.72L455.90 73.72Q451.51 74.01 449.86 74.08L449.86 74.08Q447.98 74.15 447.62 75.16L447.62 75.16L441.22 92.87Q440.93 93.66 440.93 94.38L440.93 94.38Q440.93 95.75 442.51 95.75L442.51 95.75Q443.81 95.75 445.36 94.60Q446.90 93.45 448.70 91.72L448.70 91.72Q449.42 91 450.07 91L450.07 91Q450.65 91 450.65 91.50L450.65 91.50Q450.65 92.44 449.35 93.88L449.35 93.88Q446.69 96.76 443.20 98.88Q439.70 101.01 438.19 101.01L438.19 101.01ZM457.85 101.01Q456.48 101.01 455.33 100Q454.18 98.99 454.18 97.84L454.18 97.84Q454.18 94.02 457.96 88.34Q461.74 82.65 467.86 77.32L467.86 77.32Q475.56 70.55 477.79 70.55L477.79 70.55Q478.94 70.55 479.81 71.56L479.81 71.56Q480.67 72.78 480.74 72.78L480.74 72.78L481.10 72.21Q482.54 69.76 482.33 70.05L482.33 70.05Q482.76 69.33 483.19 69.33L483.19 69.33Q484.20 69.33 485.06 69.83Q485.93 70.34 485.93 70.84L485.93 70.84Q485.93 71.20 485.42 72.64L485.42 72.64L477.36 94.02Q477.07 94.67 477.07 95.25L477.07 95.25Q477.07 96.47 478.30 96.47L478.30 96.47Q479.59 96.47 481.43 95.21Q483.26 93.95 484.63 92.15L484.63 92.15Q484.85 91.79 485.28 91.79L485.28 91.79Q485.78 91.79 485.78 92.58L485.78 92.58Q485.78 93.09 484.78 94.56Q483.77 96.04 482.69 97.12L482.69 97.12Q480.67 98.99 478.62 100Q476.57 101.01 474.84 101.01L474.84 101.01Q473.69 101.01 472.72 100.11Q471.74 99.21 471.74 98.20L471.74 98.20Q471.74 97.41 472.18 96.54L472.18 96.54Q471.74 97.34 472.36 95.93Q472.97 94.53 473.87 92.62Q474.77 90.71 475.56 88.98L475.56 88.98Q475.92 88.19 475.88 87.80Q475.85 87.40 475.42 87.90L475.42 87.90Q468.86 95.25 464.98 98.13Q461.09 101.01 457.85 101.01L457.85 101.01ZM461.88 96.47Q463.46 96.47 466.63 93.84Q469.80 91.22 473.69 86.54L473.69 86.54Q476.42 83.37 478.01 80.70Q479.59 78.04 479.59 76.74L479.59 76.74Q479.59 76.17 478.66 75.38L478.66 75.38Q477.58 74.58 476.86 74.58L476.86 74.58Q475.56 74.58 473.29 75.88Q471.02 77.18 469.15 78.98L469.15 78.98Q465.48 82.58 462.64 87.08Q459.79 91.58 459.79 94.02L459.79 94.02Q459.79 95.10 460.37 95.79Q460.94 96.47 461.88 96.47L461.88 96.47ZM492.55 101.01Q491.54 101.01 490.43 100Q489.31 98.99 489.31 97.84L489.31 97.84L489.46 96.98L503.14 58.02Q503.86 56.08 503.86 54.21L503.86 54.21Q503.86 53.56 503.17 52.98Q502.49 52.41 501.48 52.19L501.48 52.19Q499.90 51.83 499.90 51.26L499.90 51.26Q499.90 50.54 500.33 50.46L500.33 50.46Q502.34 49.96 505.51 49.46Q508.68 48.95 509.54 48.95L509.54 48.95Q509.90 48.95 510.16 49.24Q510.41 49.53 510.41 50.03L510.41 50.03Q510.41 50.75 509.98 52.05L509.98 52.05L495.43 93.52Q495.07 94.53 495.07 95.61L495.07 95.61Q495.07 96.76 495.79 96.76L495.79 96.76Q497.16 96.76 499.54 94.56Q501.91 92.37 503.50 90.14L503.50 90.14Q504.00 89.49 504.54 88.98Q505.08 88.48 505.37 88.48L505.37 88.48Q505.58 88.48 505.66 88.77Q505.73 89.06 505.73 89.42L505.73 89.42Q505.73 91.65 503.32 94.38Q500.90 97.12 497.70 99.06Q494.50 101.01 492.55 101.01L492.55 101.01ZM513.86 101.01Q512.71 101.01 511.88 100.25Q511.06 99.50 511.06 98.56L511.06 98.56Q511.06 97.84 511.27 97.41L511.27 97.41Q514.37 91.14 518.33 80.85L518.33 80.85Q518.98 78.90 519.84 76.89L519.84 76.89Q519.91 76.74 519.91 76.46L519.91 76.46Q519.91 76.02 519.48 76.02L519.48 76.02Q518.83 76.02 516.96 76.92Q515.09 77.82 513.86 78.76L513.86 78.76Q513.72 78.90 513.36 78.90L513.36 78.90Q512.71 78.90 512.71 78.47L512.71 78.47Q512.71 77.75 514.19 76.31Q515.66 74.87 518.18 73.22Q520.70 71.56 523.58 70.26L523.58 70.26Q524.16 69.98 524.84 70.37Q525.53 70.77 525.92 71.45Q526.32 72.14 526.18 72.50L526.18 72.50L517.39 93.30Q516.89 94.38 516.89 95.39L516.89 95.39Q516.89 96.26 518.04 96.26L518.04 96.26Q519.34 96.26 521.10 94.74Q522.86 93.23 525.96 90.14L525.96 90.14Q526.10 89.99 526.25 89.99L526.25 89.99Q526.68 89.99 526.68 90.35L526.68 90.35Q526.68 91.86 524.38 94.42Q522.07 96.98 519.01 98.99Q515.95 101.01 513.86 101.01L513.86 101.01ZM528.41 63.06Q527.33 63.06 526.61 62.20Q525.89 61.34 525.89 60.26L525.89 60.26Q525.89 58.46 527.04 57.16Q528.19 55.86 529.92 55.86L529.92 55.86Q531 55.86 531.68 56.80Q532.37 57.74 532.37 58.96L532.37 58.96Q532.37 60.62 531.18 61.84Q529.99 63.06 528.41 63.06L528.41 63.06ZM535.97 101.08Q534.67 101.08 533.23 100.11Q531.79 99.14 530.86 97.44Q529.92 95.75 529.92 93.66L529.92 93.66Q529.92 88.98 532.19 83.48Q534.46 77.97 538.70 74.08Q542.95 70.19 548.71 70.19L548.71 70.19Q550.58 70.19 551.63 70.88Q552.67 71.56 552.67 72.50L552.67 72.50Q552.67 73.72 551.95 74.87Q551.23 76.02 550.51 76.02L550.51 76.02Q550.01 76.02 549.65 75.59Q549.29 75.16 548.78 74.30L548.78 74.30Q548.28 73.29 547.60 72.71Q546.91 72.14 545.83 72.14L545.83 72.14Q543.60 72.14 541.08 75.63Q538.56 79.12 536.83 84.09Q535.10 89.06 535.10 92.94L535.10 92.94Q535.10 95.18 536.00 96.11Q536.90 97.05 538.56 97.05L538.56 97.05Q540.65 97.05 541.91 96.33Q543.17 95.61 544.97 93.95L544.97 93.95Q545.04 93.88 545.36 93.56Q545.69 93.23 545.90 93.12Q546.12 93.02 546.41 93.02L546.41 93.02Q546.98 93.02 546.98 93.95L546.98 93.95Q546.98 94.82 545.33 96.58Q543.67 98.34 541.15 99.71Q538.63 101.08 535.97 101.08L535.97 101.08Z"/></svg>