<svg xmlns="http://www.w3.org/2000/svg" viewBox="-4.248 49.096 968.4720000000001 51.984"><path d="M-3.24 100.36Q-3.74 100.36-4.00 100.11Q-4.25 99.86-4.25 99.50L-4.25 99.50Q-4.25 98.99-3.74 98.49Q-3.24 97.98-2.38 97.70L-2.38 97.70Q0.43 96.90 1.58 96.08Q2.74 95.25 3.38 93.16L3.38 93.16L13.54 60.33Q13.90 59.25 13.90 58.24L13.90 58.24Q13.90 57.16 13.18 56.55Q12.46 55.94 10.73 55.50L10.73 55.50Q9.94 55.29 9.65 54.86Q9.36 54.42 9.50 53.99L9.50 53.99Q9.86 52.84 12.67 52.84L12.67 52.84Q14.18 52.84 16.34 53.06L16.34 53.06Q17.28 53.13 18.65 53.20Q20.02 53.27 21.74 53.27L21.74 53.27L33.70 53.20Q38.09 53.20 40.46 52.73Q42.84 52.26 43.34 52.26L43.34 52.26Q43.92 52.26 44.35 52.70Q44.78 53.13 44.78 53.85L44.78 53.85Q44.78 54.78 43.99 57.59L43.99 57.59Q42.91 61.77 42.91 63.35L42.91 63.35Q42.91 64.00 42.55 64.40Q42.19 64.79 41.76 64.79L41.76 64.79Q41.40 64.79 41.04 64.47Q40.68 64.14 40.61 63.57L40.61 63.57Q40.03 59.18 39.02 57.48Q38.02 55.79 35.35 55.79L35.35 55.79L30.46 55.79Q28.58 55.79 27.40 57.05Q26.21 58.31 25.20 61.70L25.20 61.70L22.03 72.71Q21.89 73.29 21.89 73.43L21.89 73.43Q21.89 74.44 23.33 74.44L23.33 74.44L29.38 74.44Q31.18 74.44 32.51 73.32Q33.84 72.21 35.14 69.98L35.14 69.98Q35.50 69.40 36.04 69.04Q36.58 68.68 37.08 68.68L37.08 68.68Q37.30 68.68 37.48 68.90Q37.66 69.11 37.66 69.47L37.66 69.47Q37.66 69.76 37.44 70.34L37.44 70.34Q35.78 74.30 35.21 76.31L35.21 76.31Q34.63 78.18 33.70 82.29L33.70 82.29Q33.19 84.30 32.33 84.30L32.33 84.30Q31.75 84.30 31.39 83.80Q31.03 83.30 31.10 82.58L31.10 82.58Q31.46 77.61 28.94 77.61L28.94 77.61L21.96 77.61Q20.38 77.61 19.87 79.26L19.87 79.26L16.27 91.72Q15.91 92.80 15.91 94.02L15.91 94.02Q15.91 97.26 20.16 97.26L20.16 97.26L25.34 97.26Q26.71 97.26 28.26 96.76Q29.81 96.26 31.10 95.39L31.10 95.39Q32.26 94.67 33.19 93.45Q34.13 92.22 35.78 89.85L35.78 89.85Q36.07 89.27 36.79 88.26L36.79 88.26Q37.15 87.69 37.40 87.54Q37.66 87.40 38.09 87.40L38.09 87.40Q38.52 87.40 38.70 87.76Q38.88 88.12 38.88 89.06L38.88 89.06Q38.88 90.35 37.51 93.88Q36.14 97.41 34.70 99.42L34.70 99.42Q34.06 100.29 32.69 100.29L32.69 100.29L29.59 100.22Q13.82 100 7.20 100L7.20 100Q4.75 100 1.94 100.22L1.94 100.22Q-1.94 100.36-3.24 100.36L-3.24 100.36ZM38.88 100.36Q38.38 100.36 38.05 100.11Q37.73 99.86 37.73 99.50L37.73 99.50Q37.73 98.99 38.30 98.49Q38.88 97.98 39.74 97.70L39.74 97.70Q42.55 96.90 43.67 96.08Q44.78 95.25 45.43 93.16L45.43 93.16L55.66 60.33Q56.09 59.10 56.09 58.38L56.09 58.38Q56.09 57.23 55.30 56.62Q54.50 56.01 52.78 55.50L52.78 55.50Q51.70 55.22 51.70 54.42L51.70 54.42Q51.70 53.78 52.24 53.31Q52.78 52.84 53.57 52.84L53.57 52.84Q56.16 52.84 59.18 53.13L59.18 53.13Q61.92 53.42 63.65 53.42L63.65 53.42Q65.74 53.42 67.82 53.20L67.82 53.20Q71.14 52.91 74.30 52.91L74.30 52.91Q80.93 52.91 84.49 55.29Q88.06 57.66 88.06 62.13L88.06 62.13Q88.06 66.23 84.17 69.47Q80.28 72.71 74.81 73.86L74.81 73.86Q74.52 73.94 74.41 74.22Q74.30 74.51 74.59 74.58L74.59 74.58Q84.10 77.82 84.10 85.74L84.10 85.74Q84.10 93.52 77.44 96.90Q70.78 100.29 59.83 100.29L59.83 100.29Q57.96 100.29 54.65 100.14L54.65 100.14Q51.19 100 49.32 100L49.32 100Q46.80 100 43.99 100.22L43.99 100.22Q40.25 100.36 38.88 100.36L38.88 100.36ZM66.53 73.94Q67.97 73.94 69.19 73.58Q70.42 73.22 72 72.50L72 72.50Q74.52 70.41 76.10 67.56Q77.69 64.72 77.69 61.19L77.69 61.19Q77.69 58.74 76.18 56.84Q74.66 54.93 72.58 54.93L72.58 54.93Q70.99 54.93 70.13 55.50Q69.26 56.08 68.76 57.59L68.76 57.59L64.37 71.92Q64.22 72.50 64.22 72.64L64.22 72.64Q64.22 73.94 66.53 73.94L66.53 73.94ZM60.77 97.84Q63.58 97.41 66.17 95.14Q68.76 92.87 70.34 89.67Q71.93 86.46 71.93 83.44L71.93 83.44Q71.93 80.42 70.38 78.40Q68.83 76.38 66.10 76.38L66.10 76.38Q64.37 76.38 63.54 76.74Q62.71 77.10 62.42 78.11L62.42 78.11L57.82 92.87Q57.53 94.02 57.53 94.74L57.53 94.74Q57.53 95.61 57.82 96.11L57.82 96.11Q58.18 96.76 59.00 97.30Q59.83 97.84 60.77 97.84L60.77 97.84ZM128.45 101.01Q122.62 101.01 118.12 98.78Q113.62 96.54 111.10 92.37Q108.58 88.19 108.58 82.58L108.58 82.58Q108.58 78.62 110.02 73.86L110.02 73.86Q111.82 67.96 116.42 62.99Q121.03 58.02 127.73 55.11Q134.42 52.19 142.27 52.19L142.27 52.19Q144.50 52.19 146.30 52.59Q148.10 52.98 150.12 53.63L150.12 53.63Q150.55 53.78 151.78 54.17Q153 54.57 153.94 54.57L153.94 54.57Q155.02 54.57 155.81 54.14L155.81 54.14Q157.10 53.34 157.97 53.34L157.97 53.34Q158.90 53.34 158.90 54.14L158.90 54.14Q158.90 54.50 158.54 55.07L158.54 55.07Q157.25 56.80 155.66 60.36Q154.08 63.93 153.22 66.88L153.22 66.88Q153 67.67 152.60 68.10Q152.21 68.54 151.49 68.54L151.49 68.54Q149.90 68.54 150.12 65.37L150.12 65.37Q150.19 64.79 150.19 63.71L150.19 63.71Q150.19 60.26 148.75 58.10L148.75 58.10Q147.74 56.66 145.84 55.72Q143.93 54.78 141.84 54.78L141.84 54.78Q135.58 54.78 129.92 60.58Q124.27 66.38 120.67 77.97L120.67 77.97Q119.52 81.64 119.52 85.10L119.52 85.10Q119.52 91 122.62 94.67Q125.71 98.34 130.75 98.34L130.75 98.34Q133.20 98.34 135.18 96.65Q137.16 94.96 137.88 92.58L137.88 92.58L140.33 84.52Q140.47 83.94 140.47 83.66L140.47 83.66Q140.47 82.50 139.25 81.93L139.25 81.93Q138.24 81.42 136.69 81.06Q135.14 80.70 134.78 80.63L134.78 80.63Q133.42 80.20 133.42 79.34L133.42 79.34Q133.42 78.69 134.03 78.29Q134.64 77.90 135.36 77.90L135.36 77.90Q136.51 77.90 138.46 78.04Q140.40 78.18 141.41 78.26L141.41 78.26Q144.79 78.62 146.88 78.62L146.88 78.62Q147.96 78.62 150.70 78.33L150.70 78.33Q155.02 77.97 157.03 77.97L157.03 77.97Q158.18 77.97 157.82 79.05L157.82 79.05Q157.61 79.70 157.18 80.06Q156.74 80.42 156.02 80.56L156.02 80.56Q153.79 81.06 152.78 81.82Q151.78 82.58 150.98 84.09L150.98 84.09Q150.05 85.89 149.08 88.37Q148.10 90.86 148.10 91.58L148.10 91.58Q148.10 92.37 148.50 93.02Q148.90 93.66 149.69 94.46L149.69 94.46Q148.90 96.04 145.08 97.55Q141.26 99.06 136.48 100.04Q131.69 101.01 128.45 101.01L128.45 101.01ZM160.27 101.01Q158.76 101.01 157.21 99.75Q155.66 98.49 155.66 97.26L155.66 97.26Q155.66 95.18 156.85 92.69Q158.04 90.21 160.92 86.46Q163.80 82.72 169.20 76.60L169.20 76.60Q172.15 73.22 174.92 71.06Q177.70 68.90 179.14 68.90L179.14 68.90Q180.07 68.90 181.37 69.44Q182.66 69.98 183.89 70.98L183.89 70.98Q184.39 71.49 184.54 71.49L184.54 71.49L184.61 71.49Q184.75 71.49 184.82 71.31Q184.90 71.13 184.97 70.98L184.97 70.98Q185.76 69.40 186.05 68.68L186.05 68.68Q186.19 68.32 186.73 68.07Q187.27 67.82 187.99 67.82L187.99 67.82Q189.79 67.82 191.84 69.04Q193.90 70.26 193.90 71.27L193.90 71.27Q193.90 71.70 193.82 71.78L193.82 71.78L186.84 90.93Q186.70 91.50 186.70 91.72L186.70 91.72Q186.70 92.66 187.56 92.66L187.56 92.66Q188.28 92.66 189.97 91.43Q191.66 90.21 193.46 88.41L193.46 88.41Q193.68 88.19 193.75 88.19L193.75 88.19Q194.11 88.19 194.40 88.55Q194.69 88.91 194.69 89.42L194.69 89.42Q194.69 90.57 193.25 92.40Q191.81 94.24 189.43 96.18L189.43 96.18Q186.70 98.42 184.07 99.71Q181.44 101.01 179.78 101.01L179.78 101.01Q177.98 101.01 176.29 99.64Q174.60 98.27 174.60 96.83L174.60 96.83Q174.60 96.40 174.96 95.18L174.96 95.18Q175.54 93.52 177.26 89.49L177.26 89.49L177.26 89.34Q177.26 89.13 177.05 89.02Q176.83 88.91 176.69 89.06L176.69 89.06Q171.36 95.18 167.36 98.09Q163.37 101.01 160.27 101.01L160.27 101.01ZM168.62 92.73Q169.78 92.73 172.33 90.53Q174.89 88.34 177.41 85.17L177.41 85.17Q179.64 82.43 180.94 80.31Q182.23 78.18 182.23 77.32L182.23 77.32Q182.23 76.67 180.65 75.38L180.65 75.38Q179.86 74.80 179.10 74.40Q178.34 74.01 177.84 74.01L177.84 74.01Q176.76 74.01 174.89 75.27Q173.02 76.53 171.36 78.26L171.36 78.26Q169.42 80.27 167.94 83.76Q166.46 87.26 166.46 90.14L166.46 90.14Q166.46 91.36 167.04 92.04Q167.62 92.73 168.62 92.73L168.62 92.73ZM203.26 101.01Q201.96 101.01 200.27 99.93Q198.58 98.85 198.58 97.41L198.58 97.41Q198.58 96.54 198.86 95.75L198.86 95.75L206.28 76.60Q206.42 76.02 206.42 75.88L206.42 75.88Q206.42 75.09 205.42 75.09L205.42 75.09Q204.19 75.09 203.44 75.48Q202.68 75.88 201.96 76.49Q201.24 77.10 200.95 77.32L200.95 77.32Q200.66 77.61 200.09 77.61L200.09 77.61Q199.37 77.61 199.37 76.67L199.37 76.67Q199.37 75.09 200.77 73.50Q202.18 71.92 204.41 70.70L204.41 70.70Q206.21 69.69 208.19 69.11Q210.17 68.54 211.90 68.54L211.90 68.54Q213.84 68.54 214.85 69.65Q215.86 70.77 215.86 72.64L215.86 72.64Q215.86 74.80 214.85 77.03L214.85 77.03L212.18 83.22Q212.11 83.30 212.11 83.51L212.11 83.51Q212.11 83.80 212.40 83.80L212.40 83.80Q212.83 83.80 213.05 83.37L213.05 83.37Q217.15 75.95 220.54 72.24Q223.92 68.54 227.88 68.54L227.88 68.54Q230.18 68.54 231.52 69.90Q232.85 71.27 232.85 73.36L232.85 73.36Q232.85 75.30 231.91 77.18Q230.98 79.05 229.61 80.24Q228.24 81.42 227.09 81.42L227.09 81.42Q226.22 81.42 225.76 80.70Q225.29 79.98 224.93 78.33L224.93 78.33Q224.57 76.74 224.14 75.84Q223.70 74.94 222.84 74.94L222.84 74.94Q221.54 74.94 220.36 76.49Q219.17 78.04 217.22 81.50L217.22 81.50Q214.34 86.75 209.23 95.68L209.23 95.68Q207.94 97.91 206.28 99.46Q204.62 101.01 203.26 101.01L203.26 101.01ZM230.18 101.01Q228.67 101.01 227.12 99.75Q225.58 98.49 225.58 97.26L225.58 97.26Q225.58 95.18 226.76 92.69Q227.95 90.21 230.83 86.46Q233.71 82.72 239.11 76.60L239.11 76.60Q242.06 73.22 244.84 71.06Q247.61 68.90 249.05 68.90L249.05 68.90Q249.98 68.90 251.28 69.44Q252.58 69.98 253.80 70.98L253.80 70.98Q254.30 71.49 254.45 71.49L254.45 71.49L254.52 71.49Q254.66 71.49 254.74 71.31Q254.81 71.13 254.88 70.98L254.88 70.98Q255.67 69.40 255.96 68.68L255.96 68.68Q256.10 68.32 256.64 68.07Q257.18 67.82 257.90 67.82L257.90 67.82Q259.70 67.82 261.76 69.04Q263.81 70.26 263.81 71.27L263.81 71.27Q263.81 71.70 263.74 71.78L263.74 71.78L256.75 90.93Q256.61 91.50 256.61 91.72L256.61 91.72Q256.61 92.66 257.47 92.66L257.47 92.66Q258.19 92.66 259.88 91.43Q261.58 90.21 263.38 88.41L263.38 88.41Q263.59 88.19 263.66 88.19L263.66 88.19Q264.02 88.19 264.31 88.55Q264.60 88.91 264.60 89.42L264.60 89.42Q264.60 90.57 263.16 92.40Q261.72 94.24 259.34 96.18L259.34 96.18Q256.61 98.42 253.98 99.71Q251.35 101.01 249.70 101.01L249.70 101.01Q247.90 101.01 246.20 99.64Q244.51 98.27 244.51 96.83L244.51 96.83Q244.51 96.40 244.87 95.18L244.87 95.18Q245.45 93.52 247.18 89.49L247.18 89.49L247.18 89.34Q247.18 89.13 246.96 89.02Q246.74 88.91 246.60 89.06L246.60 89.06Q241.27 95.18 237.28 98.09Q233.28 101.01 230.18 101.01L230.18 101.01ZM238.54 92.73Q239.69 92.73 242.24 90.53Q244.80 88.34 247.32 85.17L247.32 85.17Q249.55 82.43 250.85 80.31Q252.14 78.18 252.14 77.32L252.14 77.32Q252.14 76.67 250.56 75.38L250.56 75.38Q249.77 74.80 249.01 74.40Q248.26 74.01 247.75 74.01L247.75 74.01Q246.67 74.01 244.80 75.27Q242.93 76.53 241.27 78.26L241.27 78.26Q239.33 80.27 237.85 83.76Q236.38 87.26 236.38 90.14L236.38 90.14Q236.38 91.36 236.95 92.04Q237.53 92.73 238.54 92.73L238.54 92.73ZM273.46 101.01Q272.59 101.01 271.48 100.47Q270.36 99.93 269.57 98.88Q268.78 97.84 268.78 96.54L268.78 96.54Q268.92 95.54 269.14 95.03L269.14 95.03L276.98 76.60Q277.13 76.31 277.13 75.88L277.13 75.88Q277.13 75.09 276.19 75.09L276.19 75.09Q275.11 75.09 273.56 75.63Q272.02 76.17 270.50 77.68L270.50 77.68Q270.14 78.04 269.71 78.04L269.71 78.04Q268.99 78.04 268.99 77.32L268.99 77.32Q268.92 76.60 270.04 75.02Q271.15 73.43 272.16 72.64L272.16 72.64Q274.61 70.55 276.62 69.54Q278.64 68.54 281.88 68.54L281.88 68.54Q283.82 68.54 284.94 69.80Q286.06 71.06 286.06 72.93L286.06 72.93Q286.06 74.22 285.41 75.66L285.41 75.66L281.30 84.88Q281.23 84.95 281.23 85.17L281.23 85.17Q281.23 85.46 281.52 85.46L281.52 85.46Q281.95 85.46 282.17 85.02L282.17 85.02Q285.55 79.26 287.78 76.06Q290.02 72.86 292.64 70.70Q295.27 68.54 298.22 68.54L298.22 68.54Q301.03 68.54 302.44 70.19Q303.84 71.85 303.84 74.37L303.84 74.37Q303.84 77.25 302.18 80.13L302.18 80.13L301.54 81.35L301.46 81.64Q301.46 81.93 301.82 81.93L301.82 81.93Q302.33 81.93 302.62 81.50L302.62 81.50Q306.50 75.30 309.85 71.92Q313.20 68.54 317.45 68.54L317.45 68.54Q320.04 68.54 321.23 69.90Q322.42 71.27 322.42 73.65L322.42 73.65Q322.42 76.46 320.83 80.13L320.83 80.13L316.15 90.86Q315.72 91.79 315.72 92.30L315.72 92.30Q315.72 92.94 316.37 92.94L316.37 92.94Q317.02 92.94 318.78 91.72Q320.54 90.50 321.55 89.56L321.55 89.56Q322.85 88.26 323.21 88.26L323.21 88.26Q323.42 88.26 323.68 88.55Q323.93 88.84 323.93 89.20L323.93 89.20Q323.78 90.86 322.70 92.08L322.70 92.08Q319.18 96.11 314.96 98.56Q310.75 101.01 306.58 101.01L306.58 101.01Q305.50 101.01 304.13 100.14Q302.76 99.28 302.76 98.27L302.76 98.27Q302.76 98.06 302.90 97.62L302.90 97.62L312.98 75.88Q313.34 75.16 313.34 74.66L313.34 74.66Q313.34 74.08 313.06 73.76Q312.77 73.43 312.34 73.43L312.34 73.43Q311.47 73.43 310.36 74.69Q309.24 75.95 307.51 78.54L307.51 78.54Q306 80.85 302.26 87.04L302.26 87.04Q297 95.75 296.21 96.98L296.21 96.98Q295.20 98.56 293.15 99.78Q291.10 101.01 289.87 101.01L289.87 101.01Q288.72 101.01 287.28 99.78Q285.84 98.56 285.91 97.48L285.91 97.48Q285.91 96.26 286.56 94.67L286.56 94.67L294.55 75.66Q294.91 74.80 294.91 74.30L294.91 74.30Q294.91 73.36 293.98 73.36L293.98 73.36Q292.32 73.36 288.14 79.34L288.14 79.34Q285.98 82.43 282.10 89.92L282.10 89.92Q279.65 94.53 278.50 96.54L278.50 96.54Q276.05 101.01 273.46 101.01L273.46 101.01ZM338.26 101.01Q335.30 101.01 332.71 99.68Q330.12 98.34 328.54 95.93Q326.95 93.52 326.95 90.35L326.95 90.35Q326.95 85.74 329.62 80.63Q332.28 75.52 337.25 72.03Q342.22 68.54 348.70 68.54L348.70 68.54Q353.81 68.54 356.90 71.34Q360.00 74.15 360.00 79.19L360.00 79.19Q360.00 83.80 357.34 88.91Q354.67 94.02 349.70 97.52Q344.74 101.01 338.26 101.01L338.26 101.01ZM339.70 98.06Q341.78 98.06 344.16 93.95Q346.54 89.85 348.12 84.12Q349.70 78.40 349.70 74.08L349.70 74.08Q349.70 71.27 347.40 71.27L347.40 71.27Q345.60 71.27 343.19 75.41Q340.78 79.55 339.05 85.28Q337.32 91 337.32 95.18L337.32 95.18Q337.32 96.62 337.97 97.34Q338.62 98.06 339.70 98.06L339.70 98.06ZM369.79 101.01Q369 101.01 367.74 100.32Q366.48 99.64 365.58 98.45Q364.68 97.26 364.68 95.90L364.68 95.90Q364.68 95.03 364.97 94.38L364.97 94.38L372.02 76.82Q372.17 76.24 372.17 76.10L372.17 76.10Q372.17 75.30 371.02 75.30L371.02 75.30Q367.27 75.30 365.26 77.68L365.26 77.68Q364.90 78.04 364.46 78.04L364.46 78.04Q364.18 78.04 363.92 77.86Q363.67 77.68 363.67 77.25L363.67 77.25Q363.67 76.53 364.72 74.98Q365.76 73.43 366.70 72.64L366.70 72.64Q371.30 68.54 377.35 68.54L377.35 68.54Q379.44 68.54 380.59 69.80Q381.74 71.06 381.74 72.93L381.74 72.93Q381.74 74.30 381.24 75.38L381.24 75.38L377.64 84.23L377.57 84.45Q377.57 84.59 377.75 84.70Q377.93 84.81 378.14 84.81L378.14 84.81Q378.72 84.81 379.08 84.38L379.08 84.38Q383.40 76.60 387 72.57Q390.60 68.54 394.92 68.54L394.92 68.54Q397.87 68.54 399.28 70.23Q400.68 71.92 400.68 74.44L400.68 74.44Q400.68 76.67 399.74 78.76L399.74 78.76L394.56 90.86Q394.20 91.65 394.20 92.30L394.20 92.30Q394.20 92.94 394.85 92.94L394.85 92.94Q395.50 92.94 397.22 91.72Q398.95 90.50 399.89 89.56L399.89 89.56Q401.18 88.26 401.54 88.26L401.54 88.26Q401.76 88.26 402.01 88.55Q402.26 88.84 402.26 89.20L402.26 89.20Q402.26 90.78 401.18 92.08L401.18 92.08Q397.94 95.97 393.41 98.49Q388.87 101.01 385.13 101.01L385.13 101.01Q383.76 101.01 382.50 99.96Q381.24 98.92 381.24 97.70L381.24 97.70Q381.24 97.41 381.38 96.98L381.38 96.98Q383.54 92.22 385.13 88.98L385.13 88.98Q389.16 80.78 391.03 75.66L391.03 75.66Q391.32 75.02 391.32 74.37L391.32 74.37Q391.32 73.58 390.46 73.58L390.46 73.58Q389.45 73.58 388.26 74.98Q387.07 76.38 385.06 79.48L385.06 79.48L383.62 81.64Q382.54 83.22 379.80 87.76Q377.06 92.30 375.05 95.82L375.05 95.82Q373.61 98.27 372.35 99.64Q371.09 101.01 369.79 101.01L369.79 101.01ZM410.47 101.01Q407.88 101.01 406.19 99.24Q404.50 97.48 404.50 94.74L404.50 94.74Q404.50 90.86 406.73 85.96Q408.96 81.06 412.85 76.38L412.85 76.38Q419.40 68.54 424.87 68.54L424.87 68.54Q426.31 68.54 427.57 69.11Q428.83 69.69 429.91 70.34Q430.99 70.98 431.42 71.27L431.42 71.27Q432.00 71.63 432.50 71.63L432.50 71.63Q432.79 71.63 433.01 70.98L433.01 70.98L436.10 61.34Q436.82 58.96 437.11 58.10Q437.40 57.23 437.33 57.16Q437.26 57.09 437.26 56.87L437.26 56.87Q437.26 55.43 434.16 54.28L434.16 54.28Q433.37 53.92 433.04 53.67Q432.72 53.42 432.72 53.13L432.72 53.13Q432.72 52.62 433.15 52.30Q433.58 51.98 434.81 51.54L434.81 51.54Q436.54 50.97 441.47 50.03Q446.40 49.10 447.70 49.10L447.70 49.10Q449.71 49.10 449.71 50.10L449.71 50.10Q449.71 50.75 449.53 51.44Q449.35 52.12 448.99 53.20L448.99 53.20L435.60 91.50L435.46 92.37Q435.46 92.87 435.82 92.87L435.82 92.87Q436.46 92.87 438.41 91.47Q440.35 90.06 442.01 88.41L442.01 88.41Q442.22 88.19 442.30 88.19L442.30 88.19Q442.73 88.19 443.02 88.52Q443.30 88.84 443.30 89.34L443.30 89.34Q443.30 91.14 440.60 93.95Q437.90 96.76 434.34 98.88Q430.78 101.01 428.47 101.01L428.47 101.01Q426.67 101.01 424.98 99.64Q423.29 98.27 423.29 96.83L423.29 96.83Q423.29 96.40 423.65 95.18L423.65 95.18Q424.15 93.95 424.87 92.55Q425.59 91.14 426.20 90.10Q426.82 89.06 426.60 89.70L426.60 89.70L426.67 89.42Q426.67 89.13 426.46 89.13L426.46 89.13Q426.17 89.13 425.88 89.49L425.88 89.49Q420.98 95.39 417.20 98.20Q413.42 101.01 410.47 101.01L410.47 101.01ZM417.38 93.16Q419.62 93.16 422.68 90.21Q425.74 87.26 428.00 83.22Q430.27 79.19 430.27 76.24L430.27 76.24Q430.27 74.44 429.52 73.43Q428.76 72.42 427.32 72.42L427.32 72.42Q425.30 72.42 422.42 75.70Q419.54 78.98 417.38 83.40Q415.22 87.83 415.22 90.86L415.22 90.86Q415.22 91.94 415.80 92.55Q416.38 93.16 417.38 93.16L417.38 93.16ZM473.90 101.08Q471.82 101.08 469.51 99.86Q467.21 98.63 465.62 96.54Q464.04 94.46 464.04 92.01L464.04 92.01Q464.04 86.03 466.92 80.60Q469.80 75.16 474.34 71.85Q478.87 68.54 483.55 68.54L483.55 68.54Q487.80 68.54 489.92 70.12Q492.05 71.70 492.05 74.15L492.05 74.15Q492.05 78.54 487.22 80.92Q482.40 83.30 474.98 84.88L474.98 84.88Q474.48 84.95 474.34 85.53L474.34 85.53Q474.19 85.96 474.16 86.28Q474.12 86.61 474.12 86.82L474.12 86.82Q474.05 89.56 475.60 91.43Q477.14 93.30 479.95 93.30L479.95 93.30Q481.75 93.30 483.41 92.37Q485.06 91.43 486.86 89.56L486.86 89.56Q487.66 88.70 488.09 88.70L488.09 88.70Q488.74 88.70 488.74 89.49L488.74 89.49Q488.74 90.28 488.52 90.57L488.52 90.57Q486.14 95.18 482.51 98.13Q478.87 101.08 473.90 101.08L473.90 101.08ZM475.49 82.14Q479.52 80.99 481.82 79.16Q484.13 77.32 484.42 73.65L484.42 73.65Q484.49 72.78 483.95 72.03Q483.41 71.27 482.40 71.27L482.40 71.27Q479.95 71.27 477.83 74.33Q475.70 77.39 474.98 81.71L474.98 81.71L474.98 81.86Q474.98 82.29 475.49 82.14L475.49 82.14ZM494.28 101.01Q492.48 101.01 491.54 99.96Q490.61 98.92 490.61 97.41L490.61 97.41Q490.61 95.68 491.76 94.06Q492.91 92.44 494.21 92.44L494.21 92.44Q494.93 92.44 495.79 93.59L495.79 93.59Q496.66 94.46 497.95 94.46L497.95 94.46Q499.54 94.46 501.12 92.66L501.12 92.66Q501.84 91.79 502.70 90.93L502.70 90.93Q503.06 90.50 504.04 89.42Q505.01 88.34 505.37 87.76L505.37 87.76Q505.87 87.04 505.87 86.46L505.87 86.46Q505.87 86.25 505.73 85.67L505.73 85.67L502.99 76.60Q502.63 75.38 501.98 75.38L501.98 75.38Q500.33 75.38 497.30 78.90L497.30 78.90Q496.94 79.26 496.51 79.26L496.51 79.26Q496.22 79.26 495.97 79.08Q495.72 78.90 495.72 78.47L495.72 78.47Q495.72 76.53 497.16 74.19Q498.60 71.85 501.01 70.19Q503.42 68.54 506.16 68.54L506.16 68.54Q507.96 68.54 509.04 69.83Q510.12 71.13 510.91 73.58L510.91 73.58L513 79.98Q513.14 80.42 513.36 80.42L513.36 80.42Q513.65 80.42 513.94 79.91L513.94 79.91L518.04 74.22Q520.27 71.13 522.07 69.83Q523.87 68.54 525.60 68.54L525.60 68.54Q527.40 68.54 528.77 69.90Q530.14 71.27 530.14 72.57L530.14 72.57Q530.14 73.86 529.49 75.02Q528.84 76.17 527.94 76.85Q527.04 77.54 526.39 77.54L526.39 77.54Q525.60 77.54 525.24 77.28Q524.88 77.03 524.45 76.38L524.45 76.38Q524.09 75.74 523.73 75.45Q523.37 75.16 522.65 75.16L522.65 75.16Q521.93 75.16 521.10 75.52Q520.27 75.88 518.98 77.18L518.98 77.18Q517.25 78.90 514.94 82.72L514.94 82.72Q514.30 83.87 514.30 84.52L514.30 84.52Q514.30 84.74 514.44 85.46L514.44 85.46L516.31 92.51Q516.60 93.66 516.96 94.06Q517.32 94.46 517.90 94.46L517.90 94.46Q518.47 94.46 519.59 93.56Q520.70 92.66 521.93 90.78L521.93 90.78Q522.07 90.57 522.32 90.42Q522.58 90.28 522.79 90.28L522.79 90.28Q523.08 90.28 523.26 90.53Q523.44 90.78 523.44 91.22L523.44 91.22Q523.44 92.80 522 95.14Q520.56 97.48 518.26 99.24Q515.95 101.01 513.50 101.01L513.50 101.01Q511.63 101.01 510.16 99.57Q508.68 98.13 508.32 96.47L508.32 96.47L507.67 93.23L506.95 90.06Q506.66 89.13 506.16 89.85L506.16 89.85Q505.73 90.42 504.14 92.87L504.14 92.87Q503.35 94.24 502.56 95.32L502.56 95.32Q500.69 97.91 498.42 99.46Q496.15 101.01 494.28 101.01L494.28 101.01ZM535.61 101.01Q534.46 101.01 533.34 100.25Q532.22 99.50 531.54 98.38Q530.86 97.26 530.86 96.33L530.86 96.33Q530.86 95.54 531.58 93.59L531.58 93.59L538.34 75.66Q538.63 74.66 538.63 74.44L538.63 74.44Q538.63 73.43 537.55 73.43L537.55 73.43L533.95 73.29Q532.08 73.22 532.08 71.78L532.08 71.78Q532.08 71.56 532.66 70.91Q533.23 70.26 534.06 69.72Q534.89 69.18 535.75 69.18L535.75 69.18L539.42 69.18Q540.50 69.18 540.86 68.86Q541.22 68.54 541.94 67.24L541.94 67.24L544.03 63.14Q544.97 61.34 546.77 59.82Q548.57 58.31 549.94 58.31L549.94 58.31Q550.87 58.31 551.34 59.00Q551.81 59.68 551.81 60.69L551.81 60.69Q551.81 61.12 551.66 61.84L551.66 61.84L550.01 67.53Q549.86 67.96 549.86 68.54L549.86 68.54Q549.86 68.97 550.15 69.15Q550.44 69.33 551.09 69.33L551.09 69.33Q552.38 69.33 555.41 69.69L555.41 69.69Q556.99 69.90 557.39 70.26Q557.78 70.62 557.78 71.27L557.78 71.27Q557.78 71.63 557.24 72.10Q556.70 72.57 555.70 72.71L555.70 72.71Q553.54 73 551.81 73.07L551.81 73.07Q550.37 73.14 549.65 73.43Q548.93 73.72 548.64 74.58L548.64 74.58L543.53 88.84Q542.95 90.50 542.95 91.36L542.95 91.36Q542.95 92.01 543.20 92.15Q543.46 92.30 543.89 92.30L543.89 92.30Q544.97 92.30 547.24 90.50Q549.50 88.70 551.45 86.75L551.45 86.75Q551.66 86.54 551.74 86.54L551.74 86.54Q552.17 86.54 552.46 86.90Q552.74 87.26 552.74 87.69L552.74 87.69Q552.74 89.49 549.79 92.73Q546.84 95.97 542.81 98.49Q538.78 101.01 535.61 101.01L535.61 101.01ZM563.04 101.01Q561.74 101.01 560.05 99.93Q558.36 98.85 558.36 97.41L558.36 97.41Q558.36 96.54 558.65 95.75L558.65 95.75L566.06 76.60Q566.21 76.02 566.21 75.88L566.21 75.88Q566.21 75.09 565.20 75.09L565.20 75.09Q563.98 75.09 563.22 75.48Q562.46 75.88 561.74 76.49Q561.02 77.10 560.74 77.32L560.74 77.32Q560.45 77.61 559.87 77.61L559.87 77.61Q559.15 77.61 559.15 76.67L559.15 76.67Q559.15 75.09 560.56 73.50Q561.96 71.92 564.19 70.70L564.19 70.70Q565.99 69.69 567.97 69.11Q569.95 68.54 571.68 68.54L571.68 68.54Q573.62 68.54 574.63 69.65Q575.64 70.77 575.64 72.64L575.64 72.64Q575.64 74.80 574.63 77.03L574.63 77.03L571.97 83.22Q571.90 83.30 571.90 83.51L571.90 83.51Q571.90 83.80 572.18 83.80L572.18 83.80Q572.62 83.80 572.83 83.37L572.83 83.37Q576.94 75.95 580.32 72.24Q583.70 68.54 587.66 68.54L587.66 68.54Q589.97 68.54 591.30 69.90Q592.63 71.27 592.63 73.36L592.63 73.36Q592.63 75.30 591.70 77.18Q590.76 79.05 589.39 80.24Q588.02 81.42 586.87 81.42L586.87 81.42Q586.01 81.42 585.54 80.70Q585.07 79.98 584.71 78.33L584.71 78.33Q584.35 76.74 583.92 75.84Q583.49 74.94 582.62 74.94L582.62 74.94Q581.33 74.94 580.14 76.49Q578.95 78.04 577.01 81.50L577.01 81.50Q574.13 86.75 569.02 95.68L569.02 95.68Q567.72 97.91 566.06 99.46Q564.41 101.01 563.04 101.01L563.04 101.01ZM589.97 101.01Q588.46 101.01 586.91 99.75Q585.36 98.49 585.36 97.26L585.36 97.26Q585.36 95.18 586.55 92.69Q587.74 90.21 590.62 86.46Q593.50 82.72 598.90 76.60L598.90 76.60Q601.85 73.22 604.62 71.06Q607.39 68.90 608.83 68.90L608.83 68.90Q609.77 68.90 611.06 69.44Q612.36 69.98 613.58 70.98L613.58 70.98Q614.09 71.49 614.23 71.49L614.23 71.49L614.30 71.49Q614.45 71.49 614.52 71.31Q614.59 71.13 614.66 70.98L614.66 70.98Q615.46 69.40 615.74 68.68L615.74 68.68Q615.89 68.32 616.43 68.07Q616.97 67.82 617.69 67.82L617.69 67.82Q619.49 67.82 621.54 69.04Q623.59 70.26 623.59 71.27L623.59 71.27Q623.59 71.70 623.52 71.78L623.52 71.78L616.54 90.93Q616.39 91.50 616.39 91.72L616.39 91.72Q616.39 92.66 617.26 92.66L617.26 92.66Q617.98 92.66 619.67 91.43Q621.36 90.21 623.16 88.41L623.16 88.41Q623.38 88.19 623.45 88.19L623.45 88.19Q623.81 88.19 624.10 88.55Q624.38 88.91 624.38 89.42L624.38 89.42Q624.38 90.57 622.94 92.40Q621.50 94.24 619.13 96.18L619.13 96.18Q616.39 98.42 613.76 99.71Q611.14 101.01 609.48 101.01L609.48 101.01Q607.68 101.01 605.99 99.64Q604.30 98.27 604.30 96.83L604.30 96.83Q604.30 96.40 604.66 95.18L604.66 95.18Q605.23 93.52 606.96 89.49L606.96 89.49L606.96 89.34Q606.96 89.13 606.74 89.02Q606.53 88.91 606.38 89.06L606.38 89.06Q601.06 95.18 597.06 98.09Q593.06 101.01 589.97 101.01L589.97 101.01ZM598.32 92.73Q599.47 92.73 602.03 90.53Q604.58 88.34 607.10 85.17L607.10 85.17Q609.34 82.43 610.63 80.31Q611.93 78.18 611.93 77.32L611.93 77.32Q611.93 76.67 610.34 75.38L610.34 75.38Q609.55 74.80 608.80 74.40Q608.04 74.01 607.54 74.01L607.54 74.01Q606.46 74.01 604.58 75.27Q602.71 76.53 601.06 78.26L601.06 78.26Q599.11 80.27 597.64 83.76Q596.16 87.26 596.16 90.14L596.16 90.14Q596.16 91.36 596.74 92.04Q597.31 92.73 598.32 92.73L598.32 92.73ZM658.44 101.01Q654.05 101.01 651.67 98.88Q649.30 96.76 649.30 92.87L649.30 92.87Q649.30 90.14 650.52 86.46L650.52 86.46L658.15 61.77Q658.66 60.11 658.87 59.14Q659.09 58.17 659.09 57.38L659.09 57.38Q659.09 56.58 658.51 56.12Q657.94 55.65 656.50 55.07L656.50 55.07Q655.70 54.71 655.38 54.46Q655.06 54.21 655.06 53.92L655.06 53.92Q655.06 53.42 655.49 53.09Q655.92 52.77 657.14 52.34L657.14 52.34Q660.10 51.33 664.45 50.21Q668.81 49.10 669.67 49.10L669.67 49.10Q671.69 49.10 671.69 50.10L671.69 50.10Q671.69 51.76 670.97 53.20L670.97 53.20Q668.88 57.59 666.94 63.06Q664.99 68.54 661.10 80.99L661.10 80.99Q661.03 81.21 661.03 81.39Q661.03 81.57 661.10 81.57L661.10 81.57Q661.32 81.57 661.54 81.14L661.54 81.14Q665.71 75.23 669.96 71.88Q674.21 68.54 677.59 68.54L677.59 68.54Q680.26 68.54 682.16 70.37Q684.07 72.21 684.07 74.73L684.07 74.73Q684.07 80.56 680.11 86.75Q676.15 92.94 670.14 96.98Q664.13 101.01 658.44 101.01L658.44 101.01ZM660.67 98.13Q661.90 98.13 664.02 96.18Q666.14 94.24 667.73 91.72L667.73 91.72Q670.10 87.90 672.01 83.37Q673.92 78.83 673.92 76.82L673.92 76.82Q673.92 75.88 673.42 75.34Q672.91 74.80 672.05 74.80L672.05 74.80Q670.54 74.80 668.20 76.71Q665.86 78.62 663.26 82.22L663.26 82.22Q660.74 85.74 659.23 88.88Q657.72 92.01 657.72 93.66L657.72 93.66Q657.72 95.18 658.62 96.65Q659.52 98.13 660.67 98.13L660.67 98.13ZM696.82 101.01Q693.86 101.01 691.27 99.68Q688.68 98.34 687.10 95.93Q685.51 93.52 685.51 90.35L685.51 90.35Q685.51 85.74 688.18 80.63Q690.84 75.52 695.81 72.03Q700.78 68.54 707.26 68.54L707.26 68.54Q712.37 68.54 715.46 71.34Q718.56 74.15 718.56 79.19L718.56 79.19Q718.56 83.80 715.90 88.91Q713.23 94.02 708.26 97.52Q703.30 101.01 696.82 101.01L696.82 101.01ZM698.26 98.06Q700.34 98.06 702.72 93.95Q705.10 89.85 706.68 84.12Q708.26 78.40 708.26 74.08L708.26 74.08Q708.26 71.27 705.96 71.27L705.96 71.27Q704.16 71.27 701.75 75.41Q699.34 79.55 697.61 85.28Q695.88 91 695.88 95.18L695.88 95.18Q695.88 96.62 696.53 97.34Q697.18 98.06 698.26 98.06L698.26 98.06ZM722.95 101.01Q721.22 101.01 719.96 99.64Q718.70 98.27 718.70 96.83L718.70 96.83Q718.70 96.26 719.06 95.18L719.06 95.18L730.94 59.82Q731.59 57.88 731.59 56.87L731.59 56.87Q731.59 55.86 731.12 55.40Q730.66 54.93 729.65 54.78L729.65 54.78Q728.57 54.64 728.28 54.35Q727.99 54.06 728.14 53.49L728.14 53.49Q728.28 52.98 728.57 52.70Q728.86 52.41 729.65 52.19L729.65 52.19Q732.38 51.54 735.55 50.97L735.55 50.97Q740.16 50.18 741.67 49.60L741.67 49.60Q742.97 49.17 743.47 49.17L743.47 49.17Q743.90 49.17 744.16 49.74Q744.41 50.32 744.26 50.68L744.26 50.68Q743.54 53.13 743.18 54.06L743.18 54.06L730.37 90.86Q730.22 91.43 730.22 91.65L730.22 91.65Q730.22 92.58 731.09 92.58L731.09 92.58Q732.53 92.58 736.70 88.41L736.70 88.41Q736.92 88.19 736.99 88.19L736.99 88.19Q737.50 88.19 737.71 88.62Q737.93 89.06 737.93 89.42L737.93 89.42Q737.93 91.14 735.23 93.95Q732.53 96.76 728.93 98.88Q725.33 101.01 722.95 101.01L722.95 101.01ZM746.35 101.01Q743.76 101.01 742.07 99.24Q740.38 97.48 740.38 94.74L740.38 94.74Q740.38 90.86 742.61 85.96Q744.84 81.06 748.73 76.38L748.73 76.38Q755.28 68.54 760.75 68.54L760.75 68.54Q762.19 68.54 763.45 69.11Q764.71 69.69 765.79 70.34Q766.87 70.98 767.30 71.27L767.30 71.27Q767.88 71.63 768.38 71.63L768.38 71.63Q768.67 71.63 768.89 70.98L768.89 70.98L771.98 61.34Q772.70 58.96 772.99 58.10Q773.28 57.23 773.21 57.16Q773.14 57.09 773.14 56.87L773.14 56.87Q773.14 55.43 770.04 54.28L770.04 54.28Q769.25 53.92 768.92 53.67Q768.60 53.42 768.60 53.13L768.60 53.13Q768.60 52.62 769.03 52.30Q769.46 51.98 770.69 51.54L770.69 51.54Q772.42 50.97 777.35 50.03Q782.28 49.10 783.58 49.10L783.58 49.10Q785.59 49.10 785.59 50.10L785.59 50.10Q785.59 50.75 785.41 51.44Q785.23 52.12 784.87 53.20L784.87 53.20L771.48 91.50L771.34 92.37Q771.34 92.87 771.70 92.87L771.70 92.87Q772.34 92.87 774.29 91.47Q776.23 90.06 777.89 88.41L777.89 88.41Q778.10 88.19 778.18 88.19L778.18 88.19Q778.61 88.19 778.90 88.52Q779.18 88.84 779.18 89.34L779.18 89.34Q779.18 91.14 776.48 93.95Q773.78 96.76 770.22 98.88Q766.66 101.01 764.35 101.01L764.35 101.01Q762.55 101.01 760.86 99.64Q759.17 98.27 759.17 96.83L759.17 96.83Q759.17 96.40 759.53 95.18L759.53 95.18Q760.03 93.95 760.75 92.55Q761.47 91.14 762.08 90.10Q762.70 89.06 762.48 89.70L762.48 89.70L762.55 89.42Q762.55 89.13 762.34 89.13L762.34 89.13Q762.05 89.13 761.76 89.49L761.76 89.49Q756.86 95.39 753.08 98.20Q749.30 101.01 746.35 101.01L746.35 101.01ZM753.26 93.16Q755.50 93.16 758.56 90.21Q761.62 87.26 763.88 83.22Q766.15 79.19 766.15 76.24L766.15 76.24Q766.15 74.44 765.40 73.43Q764.64 72.42 763.20 72.42L763.20 72.42Q761.18 72.42 758.30 75.70Q755.42 78.98 753.26 83.40Q751.10 87.83 751.10 90.86L751.10 90.86Q751.10 91.94 751.68 92.55Q752.26 93.16 753.26 93.16L753.26 93.16ZM806.04 101.01Q804.24 101.01 802.80 99.64Q801.36 98.27 801.36 96.83L801.36 96.83Q801.36 95.97 801.72 95.18L801.72 95.18L807.05 82.58L808.85 78.11Q808.99 77.75 808.56 77.75L808.56 77.75Q807.91 77.75 806.98 78.22Q806.04 78.69 805.36 79.08Q804.67 79.48 804.24 79.77L804.24 79.77Q803.66 80.13 803.16 80.13L803.16 80.13Q802.30 80.13 802.30 79.12L802.30 79.12Q802.30 78.18 804.89 75.95Q807.48 73.72 810.79 71.52Q814.10 69.33 815.83 68.75L815.83 68.75Q816.41 68.61 816.77 68.61L816.77 68.61Q818.14 68.61 819.36 69.58Q820.58 70.55 820.58 71.70L820.58 71.70L820.44 72.28L812.52 92.01Q812.38 92.30 812.38 92.87L812.38 92.87Q812.38 93.38 812.74 93.38L812.74 93.38Q813.46 93.38 815.98 91.68Q818.50 89.99 819.94 88.55L819.94 88.55Q820.15 88.34 820.22 88.34L820.22 88.34Q820.66 88.34 820.94 88.70Q821.23 89.06 821.23 89.49L821.23 89.49Q821.23 91.22 818.57 93.99Q815.90 96.76 812.27 98.88Q808.63 101.01 806.04 101.01L806.04 101.01ZM819.00 63.86Q817.34 63.86 816.16 62.56Q814.97 61.26 814.97 59.54L814.97 59.54Q814.97 56.87 816.84 54.89Q818.71 52.91 821.45 52.91L821.45 52.91Q823.18 52.91 824.26 54.35Q825.34 55.79 825.34 57.59L825.34 57.59Q825.34 60.11 823.46 61.98Q821.59 63.86 819.00 63.86L819.00 63.86ZM831.24 101.01Q830.09 101.01 828.97 100.25Q827.86 99.50 827.17 98.38Q826.49 97.26 826.49 96.33L826.49 96.33Q826.49 95.54 827.21 93.59L827.21 93.59L833.98 75.66Q834.26 74.66 834.26 74.44L834.26 74.44Q834.26 73.43 833.18 73.43L833.18 73.43L829.58 73.29Q827.71 73.22 827.71 71.78L827.71 71.78Q827.71 71.56 828.29 70.91Q828.86 70.26 829.69 69.72Q830.52 69.18 831.38 69.18L831.38 69.18L835.06 69.18Q836.14 69.18 836.50 68.86Q836.86 68.54 837.58 67.24L837.58 67.24L839.66 63.14Q840.60 61.34 842.40 59.82Q844.20 58.31 845.57 58.31L845.57 58.31Q846.50 58.31 846.97 59.00Q847.44 59.68 847.44 60.69L847.44 60.69Q847.44 61.12 847.30 61.84L847.30 61.84L845.64 67.53Q845.50 67.96 845.50 68.54L845.50 68.54Q845.50 68.97 845.78 69.15Q846.07 69.33 846.72 69.33L846.72 69.33Q848.02 69.33 851.04 69.69L851.04 69.69Q852.62 69.90 853.02 70.26Q853.42 70.62 853.42 71.27L853.42 71.27Q853.42 71.63 852.88 72.10Q852.34 72.57 851.33 72.71L851.33 72.71Q849.17 73 847.44 73.07L847.44 73.07Q846.00 73.14 845.28 73.43Q844.56 73.72 844.27 74.58L844.27 74.58L839.16 88.84Q838.58 90.50 838.58 91.36L838.58 91.36Q838.58 92.01 838.84 92.15Q839.09 92.30 839.52 92.30L839.52 92.30Q840.60 92.30 842.87 90.50Q845.14 88.70 847.08 86.75L847.08 86.75Q847.30 86.54 847.37 86.54L847.37 86.54Q847.80 86.54 848.09 86.90Q848.38 87.26 848.38 87.69L848.38 87.69Q848.38 89.49 845.42 92.73Q842.47 95.97 838.44 98.49Q834.41 101.01 831.24 101.01L831.24 101.01ZM853.99 101.01Q852.48 101.01 850.93 99.75Q849.38 98.49 849.38 97.26L849.38 97.26Q849.38 95.18 850.57 92.69Q851.76 90.21 854.64 86.46Q857.52 82.72 862.92 76.60L862.92 76.60Q865.87 73.22 868.64 71.06Q871.42 68.90 872.86 68.90L872.86 68.90Q873.79 68.90 875.09 69.44Q876.38 69.98 877.61 70.98L877.61 70.98Q878.11 71.49 878.26 71.49L878.26 71.49L878.33 71.49Q878.47 71.49 878.54 71.31Q878.62 71.13 878.69 70.98L878.69 70.98Q879.48 69.40 879.77 68.68L879.77 68.68Q879.91 68.32 880.45 68.07Q880.99 67.82 881.71 67.82L881.71 67.82Q883.51 67.82 885.56 69.04Q887.62 70.26 887.62 71.27L887.62 71.27Q887.62 71.70 887.54 71.78L887.54 71.78L880.56 90.93Q880.42 91.50 880.42 91.72L880.42 91.72Q880.42 92.66 881.28 92.66L881.28 92.66Q882.00 92.66 883.69 91.43Q885.38 90.21 887.18 88.41L887.18 88.41Q887.40 88.19 887.47 88.19L887.47 88.19Q887.83 88.19 888.12 88.55Q888.41 88.91 888.41 89.42L888.41 89.42Q888.41 90.57 886.97 92.40Q885.53 94.24 883.15 96.18L883.15 96.18Q880.42 98.42 877.79 99.71Q875.16 101.01 873.50 101.01L873.50 101.01Q871.70 101.01 870.01 99.64Q868.32 98.27 868.32 96.83L868.32 96.83Q868.32 96.40 868.68 95.18L868.68 95.18Q869.26 93.52 870.98 89.49L870.98 89.49L870.98 89.34Q870.98 89.13 870.77 89.02Q870.55 88.91 870.41 89.06L870.41 89.06Q865.08 95.18 861.08 98.09Q857.09 101.01 853.99 101.01L853.99 101.01ZM862.34 92.73Q863.50 92.73 866.05 90.53Q868.61 88.34 871.13 85.17L871.13 85.17Q873.36 82.43 874.66 80.31Q875.95 78.18 875.95 77.32L875.95 77.32Q875.95 76.67 874.37 75.38L874.37 75.38Q873.58 74.80 872.82 74.40Q872.06 74.01 871.56 74.01L871.56 74.01Q870.48 74.01 868.61 75.27Q866.74 76.53 865.08 78.26L865.08 78.26Q863.14 80.27 861.66 83.76Q860.18 87.26 860.18 90.14L860.18 90.14Q860.18 91.36 860.76 92.04Q861.34 92.73 862.34 92.73L862.34 92.73ZM894.96 101.01Q893.23 101.01 891.97 99.64Q890.71 98.27 890.71 96.83L890.71 96.83Q890.71 96.26 891.07 95.18L891.07 95.18L902.95 59.82Q903.60 57.88 903.60 56.87L903.60 56.87Q903.60 55.86 903.13 55.40Q902.66 54.93 901.66 54.78L901.66 54.78Q900.58 54.64 900.29 54.35Q900.00 54.06 900.14 53.49L900.14 53.49Q900.29 52.98 900.58 52.70Q900.86 52.41 901.66 52.19L901.66 52.19Q904.39 51.54 907.56 50.97L907.56 50.97Q912.17 50.18 913.68 49.60L913.68 49.60Q914.98 49.17 915.48 49.17L915.48 49.17Q915.91 49.17 916.16 49.74Q916.42 50.32 916.27 50.68L916.27 50.68Q915.55 53.13 915.19 54.06L915.19 54.06L902.38 90.86Q902.23 91.43 902.23 91.65L902.23 91.65Q902.23 92.58 903.10 92.58L903.10 92.58Q904.54 92.58 908.71 88.41L908.71 88.41Q908.93 88.19 909.00 88.19L909.00 88.19Q909.50 88.19 909.72 88.62Q909.94 89.06 909.94 89.42L909.94 89.42Q909.94 91.14 907.24 93.95Q904.54 96.76 900.94 98.88Q897.34 101.01 894.96 101.01L894.96 101.01ZM919.15 101.01Q917.35 101.01 915.91 99.64Q914.47 98.27 914.47 96.83L914.47 96.83Q914.47 95.97 914.83 95.18L914.83 95.18L920.16 82.58L921.96 78.11Q922.10 77.75 921.67 77.75L921.67 77.75Q921.02 77.75 920.09 78.22Q919.15 78.69 918.47 79.08Q917.78 79.48 917.35 79.77L917.35 79.77Q916.78 80.13 916.27 80.13L916.27 80.13Q915.41 80.13 915.41 79.12L915.41 79.12Q915.41 78.18 918 75.95Q920.59 73.72 923.90 71.52Q927.22 69.33 928.94 68.75L928.94 68.75Q929.52 68.61 929.88 68.61L929.88 68.61Q931.25 68.61 932.47 69.58Q933.70 70.55 933.70 71.70L933.70 71.70L933.55 72.28L925.63 92.01Q925.49 92.30 925.49 92.87L925.49 92.87Q925.49 93.38 925.85 93.38L925.85 93.38Q926.57 93.38 929.09 91.68Q931.61 89.99 933.05 88.55L933.05 88.55Q933.26 88.34 933.34 88.34L933.34 88.34Q933.77 88.34 934.06 88.70Q934.34 89.06 934.34 89.49L934.34 89.49Q934.34 91.22 931.68 93.99Q929.02 96.76 925.38 98.88Q921.74 101.01 919.15 101.01L919.15 101.01ZM932.11 63.86Q930.46 63.86 929.27 62.56Q928.08 61.26 928.08 59.54L928.08 59.54Q928.08 56.87 929.95 54.89Q931.82 52.91 934.56 52.91L934.56 52.91Q936.29 52.91 937.37 54.35Q938.45 55.79 938.45 57.59L938.45 57.59Q938.45 60.11 936.58 61.98Q934.70 63.86 932.11 63.86L932.11 63.86ZM948.31 101.01Q945.43 101.01 943.06 99.64Q940.68 98.27 939.28 95.97Q937.87 93.66 937.87 91L937.87 91Q937.87 84.88 940.54 79.73Q943.20 74.58 947.74 71.56Q952.27 68.54 957.53 68.54L957.53 68.54Q960.41 68.54 962.32 69.87Q964.22 71.20 964.22 73.29L964.22 73.29Q964.22 74.73 963.22 76.10Q962.21 77.46 961.13 77.46L961.13 77.46Q960.55 77.46 960.12 77.03Q959.69 76.60 958.82 75.16L958.82 75.16Q958.03 73.72 957.06 72.78Q956.09 71.85 955.30 71.85L955.30 71.85Q953.35 71.85 951.52 73.94Q949.68 76.02 948.56 79.44Q947.45 82.86 947.45 86.46L947.45 86.46Q947.45 89.13 948.92 90.68Q950.40 92.22 952.85 92.22L952.85 92.22Q954.72 92.22 956.45 91.32Q958.18 90.42 959.40 88.84L959.40 88.84Q959.69 88.48 960.05 88.23Q960.41 87.98 960.77 87.98L960.77 87.98Q961.06 87.98 961.27 88.19Q961.49 88.41 961.49 88.77L961.49 88.77Q961.49 91.43 959.44 94.31Q957.38 97.19 954.29 99.10Q951.19 101.01 948.31 101.01L948.31 101.01Z"/></svg>