<svg xmlns="http://www.w3.org/2000/svg" viewBox="0.15 -7.05 59.300000000000004 7.24"><path d="M0.35 0.05Q0.26 0.05 0.21 0Q0.16-0.05 0.16-0.11L0.16-0.11Q0.16-0.17 0.21-0.23Q0.27-0.29 0.36-0.32L0.36-0.32Q0.71-0.42 0.83-0.54Q0.96-0.66 0.96-0.95L0.96-0.95L0.96-5.51Q0.96-5.83 0.84-5.96Q0.72-6.10 0.36-6.18L0.36-6.18Q0.15-6.23 0.15-6.39L0.15-6.39Q0.15-6.46 0.21-6.50Q0.26-6.55 0.35-6.55L0.35-6.55Q0.71-6.55 1.10-6.52L1.10-6.52Q1.60-6.50 1.79-6.50L1.79-6.50Q3.13-6.50 4.12-6.53L4.12-6.53Q4.43-6.53 4.65-6.57Q4.86-6.61 4.89-6.61L4.89-6.61Q4.98-6.61 5.06-6.56Q5.14-6.51 5.15-6.40L5.15-6.40Q5.18-6.07 5.24-5.79L5.24-5.79Q5.32-5.23 5.32-5.05L5.32-5.05Q5.32-4.96 5.29-4.91Q5.25-4.85 5.19-4.85L5.19-4.85Q5.13-4.85 5.08-4.90Q5.02-4.94 4.98-5.02L4.98-5.02Q4.83-5.39 4.76-5.53Q4.69-5.67 4.59-5.77L4.59-5.77Q4.45-5.91 4.28-6Q4.11-6.09 3.86-6.09L3.86-6.09L3.23-6.09Q2.98-6.09 2.82-5.96Q2.66-5.84 2.66-5.63L2.66-5.63L2.66-3.79Q2.66-3.55 2.92-3.55L2.92-3.55L3.77-3.55Q4-3.55 4.12-3.70Q4.23-3.85 4.35-4.17L4.35-4.17Q4.43-4.35 4.56-4.35L4.56-4.35Q4.61-4.35 4.65-4.29Q4.69-4.22 4.68-4.12L4.68-4.12Q4.63-3.64 4.63-3.29L4.63-3.29Q4.63-2.86 4.67-2.46L4.67-2.46L4.67-2.38Q4.67-2.18 4.57-2.18L4.57-2.18Q4.50-2.18 4.43-2.25Q4.36-2.32 4.33-2.42L4.33-2.42Q4.24-2.76 4.12-2.92Q4-3.08 3.82-3.08L3.82-3.08L2.88-3.08Q2.66-3.08 2.66-2.85L2.66-2.85L2.66-0.96Q2.66-0.69 2.77-0.57Q2.89-0.45 3.15-0.45L3.15-0.45L4.04-0.45Q4.50-0.45 4.77-0.68L4.77-0.68Q5.06-0.92 5.34-1.48L5.34-1.48Q5.40-1.60 5.53-1.60L5.53-1.60Q5.63-1.60 5.63-1.40L5.63-1.40Q5.63-1.22 5.58-1.01Q5.53-0.80 5.42-0.46L5.42-0.46L5.31-0.08Q5.27 0.04 5.07 0.04L5.07 0.04L4.68 0.03Q2.73 0 1.79 0L1.79 0Q1.45 0 1.06 0.03L1.06 0.03Q0.54 0.05 0.35 0.05L0.35 0.05ZM6.12 0.05Q6.03 0.05 5.98 0Q5.93-0.05 5.93-0.11L5.93-0.11Q5.93-0.17 5.99-0.23Q6.04-0.29 6.13-0.32L6.13-0.32Q6.48-0.42 6.61-0.54Q6.73-0.66 6.73-0.95L6.73-0.95L6.73-5.51Q6.73-5.83 6.61-5.96Q6.49-6.10 6.13-6.18L6.13-6.18Q5.92-6.23 5.92-6.39L5.92-6.39Q5.92-6.46 5.98-6.50Q6.03-6.55 6.12-6.55L6.12-6.55Q6.48-6.55 6.92-6.51L6.92-6.51Q7.32-6.47 7.55-6.47L7.55-6.47Q7.75-6.47 8.13-6.51L8.13-6.51Q8.61-6.57 9.04-6.57L9.04-6.57Q10.27-6.57 10.88-6.23Q11.48-5.88 11.48-5.08L11.48-5.08Q11.48-4.78 11.34-4.50Q11.19-4.23 10.94-4.02L10.94-4.02Q10.61-3.74 10.20-3.65L10.20-3.65Q10.16-3.64 10.16-3.60Q10.16-3.56 10.20-3.55L10.20-3.55Q10.90-3.42 11.37-3.07Q11.84-2.72 11.84-1.94L11.84-1.94Q11.84-1.42 11.68-1.09Q11.51-0.76 11.30-0.59Q11.08-0.42 10.78-0.27L10.78-0.27Q10.13 0.04 9.03 0.04L9.03 0.04Q8.78 0.04 8.30 0.02L8.30 0.02Q7.82 0 7.56 0L7.56 0Q7.23 0 6.82 0.03L6.82 0.03Q6.32 0.05 6.12 0.05L6.12 0.05ZM8.82-3.68Q9.06-3.68 9.24-3.74Q9.42-3.80 9.59-3.95L9.59-3.95Q9.69-4.05 9.79-4.28Q9.88-4.50 9.88-4.85L9.88-4.85Q9.88-5.51 9.64-5.80Q9.41-6.10 8.94-6.10L8.94-6.10Q8.43-6.10 8.43-5.68L8.43-5.68L8.43-4.03Q8.43-3.87 8.55-3.77Q8.68-3.68 8.82-3.68L8.82-3.68ZM9-0.54Q9.28-0.54 9.52-0.71Q9.75-0.89 9.89-1.19Q10.03-1.49 10.03-1.86L10.03-1.86Q10.03-2.61 9.58-2.98L9.58-2.98Q9.49-3.06 9.30-3.13Q9.11-3.20 8.87-3.20L8.87-3.20Q8.71-3.20 8.57-3.12Q8.43-3.04 8.43-2.88L8.43-2.88L8.43-1.16Q8.43-0.86 8.58-0.70Q8.73-0.54 9-0.54L9-0.54ZM18.33 0.14Q17.36 0.14 16.55-0.28Q15.75-0.69 15.29-1.44Q14.82-2.19 14.82-3.15L14.82-3.15Q14.82-4.06 15.29-4.87Q15.75-5.67 16.62-6.16Q17.48-6.64 18.62-6.64L18.62-6.64Q19.03-6.64 19.66-6.53Q20.28-6.42 20.63-6.28L20.63-6.28Q20.82-6.20 20.85-6.01L20.85-6.01Q20.97-5.19 20.97-4.80L20.97-4.80Q20.97-4.70 20.93-4.65Q20.88-4.60 20.80-4.60L20.80-4.60Q20.69-4.60 20.63-4.65Q20.57-4.70 20.52-4.80L20.52-4.80Q20.26-5.36 20-5.62L20-5.62Q19.78-5.84 19.50-5.96Q19.22-6.09 18.80-6.09L18.80-6.09Q18.12-6.09 17.63-5.73Q17.14-5.36 16.89-4.75Q16.65-4.15 16.65-3.44L16.65-3.44Q16.65-2.03 17.11-1.23Q17.56-0.43 18.50-0.43L18.50-0.43Q18.76-0.43 19.07-0.65L19.07-0.65Q19.17-0.72 19.23-0.89Q19.28-1.05 19.29-1.27L19.29-1.27Q19.31-1.61 19.31-2.15L19.31-2.15Q19.31-2.41 19.05-2.51L19.05-2.51Q18.75-2.63 18.48-2.69L18.48-2.69Q18.38-2.72 18.30-2.78Q18.23-2.84 18.23-2.92L18.23-2.92Q18.23-2.99 18.30-3.03Q18.36-3.07 18.45-3.07L18.45-3.07Q18.83-3.07 19.28-3.04L19.28-3.04Q19.86-3.02 20.04-3.02L20.04-3.02Q20.23-3.02 20.67-3.04L20.67-3.04Q21.13-3.06 21.35-3.06L21.35-3.06Q21.51-3.06 21.51-2.91L21.51-2.91Q21.51-2.82 21.46-2.77Q21.42-2.72 21.32-2.70L21.32-2.70Q21.03-2.62 20.92-2.52Q20.81-2.42 20.77-2.21L20.77-2.21Q20.70-1.87 20.70-1.46L20.70-1.46L20.70-1.12Q20.70-1.06 20.77-0.99Q20.83-0.93 20.84-0.92L20.84-0.92Q20.94-0.82 20.94-0.70L20.94-0.70Q20.94-0.62 20.89-0.56Q20.84-0.49 20.73-0.48L20.73-0.48Q20.66-0.47 20.45-0.37L20.45-0.37Q20-0.16 19.50-0.01Q19 0.14 18.33 0.14L18.33 0.14ZM23.06 0.14Q22.62 0.14 22.32-0.14Q22.01-0.41 22.01-0.80L22.01-0.80Q22.01-1.14 22.23-1.38Q22.44-1.62 22.89-1.82L22.89-1.82L23.75-2.20Q23.95-2.29 24.00-2.36Q24.05-2.43 24.05-2.63L24.05-2.63L24.06-3.18Q24.08-3.78 23.66-3.78L23.66-3.78Q23.54-3.78 23.41-3.73Q23.28-3.67 23.22-3.60L23.22-3.60Q23.17-3.54 23.17-3.41L23.17-3.41Q23.17-3.34 23.18-3.25Q23.19-3.17 23.19-3.10L23.19-3.10Q23.19-3 22.84-2.85Q22.49-2.69 22.25-2.69L22.25-2.69Q22.17-2.69 22.12-2.75Q22.06-2.82 22.06-2.92L22.06-2.92Q22.06-3.08 22.17-3.23Q22.28-3.38 22.54-3.59L22.54-3.59Q22.94-3.91 23.45-4.13Q23.95-4.36 24.29-4.36L24.29-4.36Q24.86-4.36 25.20-4.00Q25.53-3.63 25.52-3.02L25.52-3.02L25.47-1.08Q25.46-0.85 25.55-0.69Q25.63-0.52 25.76-0.52L25.76-0.52Q25.94-0.52 26.08-0.65L26.08-0.65Q26.11-0.68 26.14-0.68L26.14-0.68Q26.19-0.68 26.23-0.65Q26.26-0.61 26.26-0.56L26.26-0.56Q26.26-0.44 26.06-0.24L26.06-0.24Q25.68 0.14 25.19 0.14L25.19 0.14Q24.88 0.14 24.65 0Q24.42-0.14 24.22-0.44L24.22-0.44L24.20-0.44Q23.87-0.12 23.61 0.01Q23.35 0.14 23.06 0.14L23.06 0.14ZM23.68-0.55Q23.84-0.55 23.94-0.68L23.94-0.68Q24.00-0.76 24.00-0.91L24.00-0.91L24.03-1.68Q24.03-1.82 23.93-1.82L23.93-1.82Q23.89-1.82 23.83-1.79L23.83-1.79Q23.55-1.64 23.45-1.50Q23.34-1.36 23.34-1.04L23.34-1.04Q23.34-0.78 23.44-0.67Q23.54-0.55 23.68-0.55L23.68-0.55ZM26.61 0.03Q26.53 0.03 26.47-0.01Q26.41-0.06 26.41-0.12L26.41-0.12Q26.41-0.26 26.64-0.33L26.64-0.33Q26.86-0.40 26.94-0.48Q27.01-0.55 27.01-0.71L27.01-0.71L27.01-3.04Q27.01-3.25 26.96-3.37Q26.90-3.48 26.74-3.53L26.74-3.53Q26.67-3.55 26.64-3.59Q26.60-3.63 26.60-3.72L26.60-3.72Q26.60-3.87 26.73-3.90L26.73-3.90Q27.09-3.98 27.49-4.11Q27.89-4.24 28.17-4.37L28.17-4.37Q28.36-4.48 28.42-4.48L28.42-4.48Q28.52-4.48 28.52-4.36L28.52-4.36L28.51-4.06L28.49-3.56Q28.49-3.46 28.53-3.46L28.53-3.46Q28.80-3.83 29.14-4.10Q29.48-4.37 29.83-4.37L29.83-4.37Q30.50-4.37 30.50-3.87L30.50-3.87Q30.50-3.61 30.30-3.33Q30.10-3.04 29.88-3.04L29.88-3.04Q29.79-3.04 29.68-3.08Q29.57-3.13 29.46-3.19L29.46-3.19Q29.18-3.33 29.08-3.33L29.08-3.33Q28.79-3.33 28.63-3.12Q28.46-2.90 28.46-2.36L28.46-2.36L28.46-0.82Q28.46-0.61 28.58-0.51Q28.69-0.41 28.98-0.32L28.98-0.32Q29.20-0.26 29.20-0.12L29.20-0.12Q29.20-0.06 29.16-0.01Q29.11 0.03 29.04 0.03L29.04 0.03Q28.71 0.03 28.36 0L28.36 0Q27.92-0.02 27.76-0.02L27.76-0.02Q27.60-0.02 27.22 0L27.22 0Q26.92 0.03 26.61 0.03L26.61 0.03ZM31.85 0.14Q31.41 0.14 31.11-0.14Q30.80-0.41 30.80-0.80L30.80-0.80Q30.80-1.14 31.02-1.38Q31.23-1.62 31.68-1.82L31.68-1.82L32.54-2.20Q32.74-2.29 32.79-2.36Q32.84-2.43 32.84-2.63L32.84-2.63L32.85-3.18Q32.87-3.78 32.45-3.78L32.45-3.78Q32.33-3.78 32.20-3.73Q32.07-3.67 32.01-3.60L32.01-3.60Q31.96-3.54 31.96-3.41L31.96-3.41Q31.96-3.34 31.97-3.25Q31.98-3.17 31.98-3.10L31.98-3.10Q31.98-3 31.63-2.85Q31.28-2.69 31.04-2.69L31.04-2.69Q30.96-2.69 30.91-2.75Q30.85-2.82 30.85-2.92L30.85-2.92Q30.85-3.08 30.96-3.23Q31.07-3.38 31.33-3.59L31.33-3.59Q31.73-3.91 32.23-4.13Q32.74-4.36 33.08-4.36L33.08-4.36Q33.65-4.36 33.98-4.00Q34.32-3.63 34.31-3.02L34.31-3.02L34.26-1.08Q34.25-0.85 34.34-0.69Q34.42-0.52 34.55-0.52L34.55-0.52Q34.73-0.52 34.87-0.65L34.87-0.65Q34.90-0.68 34.93-0.68L34.93-0.68Q34.98-0.68 35.02-0.65Q35.05-0.61 35.05-0.56L35.05-0.56Q35.05-0.44 34.85-0.24L34.85-0.24Q34.47 0.14 33.98 0.14L33.98 0.14Q33.67 0.14 33.44 0Q33.21-0.14 33.01-0.44L33.01-0.44L32.99-0.44Q32.66-0.12 32.40 0.01Q32.14 0.14 31.85 0.14L31.85 0.14ZM32.47-0.55Q32.63-0.55 32.73-0.68L32.73-0.68Q32.79-0.76 32.79-0.91L32.79-0.91L32.82-1.68Q32.82-1.82 32.72-1.82L32.72-1.82Q32.68-1.82 32.62-1.79L32.62-1.79Q32.34-1.64 32.23-1.50Q32.13-1.36 32.13-1.04L32.13-1.04Q32.13-0.78 32.23-0.67Q32.33-0.55 32.47-0.55L32.47-0.55ZM35.40 0.03Q35.33 0.03 35.27-0.01Q35.20-0.06 35.20-0.12L35.20-0.12Q35.20-0.25 35.43-0.33L35.43-0.33Q35.62-0.39 35.71-0.46Q35.80-0.53 35.80-0.71L35.80-0.71L35.80-3.03Q35.80-3.50 35.51-3.55L35.51-3.55Q35.39-3.57 35.39-3.74L35.39-3.74Q35.39-3.89 35.50-3.92L35.50-3.92Q36.67-4.21 37.10-4.45L37.10-4.45Q37.20-4.51 37.23-4.51L37.23-4.51Q37.33-4.51 37.33-4.39L37.33-4.39L37.31-4.17Q37.28-3.81 37.28-3.80L37.28-3.80Q37.28-3.70 37.30-3.68L37.30-3.68L37.32-3.68Q37.66-4.01 38.02-4.19Q38.37-4.36 38.79-4.36L38.79-4.36Q39.08-4.36 39.35-4.13Q39.62-3.91 39.74-3.57L39.74-3.57L39.79-3.57Q40.41-4.36 41.28-4.36L41.28-4.36Q41.76-4.36 42.09-3.98Q42.41-3.59 42.41-2.92L42.41-2.92L42.41-0.70Q42.41-0.52 42.49-0.46Q42.58-0.39 42.78-0.33L42.78-0.33Q42.98-0.26 42.98-0.12L42.98-0.12Q42.98-0.06 42.92-0.01Q42.87 0.03 42.81 0.03L42.81 0.03Q42.50 0.03 42.21 0L42.21 0Q41.85-0.02 41.69-0.02L41.69-0.02Q41.54-0.02 41.22 0L41.22 0Q40.98 0.03 40.69 0.03L40.69 0.03Q40.63 0.03 40.58-0.01Q40.53-0.06 40.53-0.12L40.53-0.12Q40.53-0.26 40.72-0.33L40.72-0.33Q40.85-0.37 40.91-0.43Q40.96-0.49 40.96-0.63L40.96-0.63L40.96-2.67Q40.96-3.03 40.83-3.24Q40.69-3.45 40.46-3.46L40.46-3.46Q40.35-3.46 40.21-3.40Q40.07-3.34 39.94-3.23L39.94-3.23Q39.88-3.17 39.86-3.10Q39.83-3.02 39.83-2.88L39.83-2.88L39.83-0.70Q39.83-0.51 39.88-0.45Q39.94-0.38 40.10-0.33L40.10-0.33Q40.30-0.26 40.30-0.12L40.30-0.12Q40.30-0.06 40.24-0.01Q40.19 0.03 40.13 0.03L40.13 0.03Q39.83 0.03 39.59 0L39.59 0Q39.27-0.02 39.11-0.02L39.11-0.02Q38.96-0.02 38.64 0L38.64 0Q38.40 0.03 38.11 0.03L38.11 0.03Q38.05 0.03 38-0.01Q37.95-0.06 37.95-0.12L37.95-0.12Q37.95-0.26 38.14-0.33L38.14-0.33Q38.27-0.37 38.33-0.43Q38.38-0.49 38.38-0.63L38.38-0.63L38.38-2.67Q38.38-3.03 38.25-3.23Q38.12-3.44 37.89-3.45L37.89-3.45Q37.64-3.45 37.35-3.24L37.35-3.24Q37.25-3.17 37.25-2.92L37.25-2.92L37.25-0.70Q37.25-0.52 37.30-0.45Q37.34-0.37 37.49-0.33L37.49-0.33Q37.68-0.26 37.68-0.12L37.68-0.12Q37.68-0.06 37.63-0.01Q37.58 0.03 37.52 0.03L37.52 0.03Q37.22 0.03 36.98 0L36.98 0Q36.68-0.02 36.51-0.02L36.51-0.02Q36.35-0.02 35.99 0L35.99 0Q35.71 0.03 35.40 0.03L35.40 0.03ZM45.51 0.14Q44.91 0.14 44.41-0.13Q43.91-0.40 43.63-0.89Q43.34-1.37 43.34-1.97L43.34-1.97Q43.34-2.62 43.66-3.17Q43.98-3.72 44.53-4.04Q45.07-4.37 45.73-4.37L45.73-4.37Q46.34-4.37 46.86-4.08Q47.37-3.79 47.67-3.31Q47.97-2.82 47.97-2.26L47.97-2.26Q47.97-1.59 47.69-1.04Q47.41-0.50 46.86-0.18Q46.30 0.14 45.51 0.14L45.51 0.14ZM45.70-0.33Q46.05-0.33 46.23-0.62L46.23-0.62Q46.45-0.99 46.45-2.02L46.45-2.02Q46.45-2.85 46.21-3.38Q45.97-3.90 45.58-3.90L45.58-3.90Q45.32-3.90 45.15-3.73L45.15-3.73Q44.98-3.56 44.92-3.20Q44.85-2.83 44.85-2.22L44.85-2.22Q44.85-1.74 44.96-1.30Q45.07-0.87 45.27-0.60Q45.46-0.33 45.70-0.33L45.70-0.33ZM48.58 0.03Q48.51 0.03 48.45-0.01Q48.38-0.06 48.38-0.12L48.38-0.12Q48.38-0.25 48.61-0.33L48.61-0.33Q48.80-0.39 48.89-0.46Q48.98-0.53 48.98-0.71L48.98-0.71L48.98-3.03Q48.98-3.50 48.68-3.55L48.68-3.55Q48.64-3.56 48.60-3.61Q48.57-3.66 48.57-3.74L48.57-3.74Q48.57-3.89 48.67-3.92L48.67-3.92Q49.05-4.01 49.49-4.15Q49.93-4.28 50.21-4.42L50.21-4.42Q50.23-4.43 50.30-4.47Q50.37-4.51 50.41-4.51L50.41-4.51Q50.51-4.51 50.51-4.38L50.51-4.38L50.49-4.17Q50.46-3.84 50.46-3.82L50.46-3.82Q50.46-3.69 50.48-3.67L50.48-3.67Q50.86-4.02 51.19-4.19Q51.52-4.36 51.95-4.36L51.95-4.36Q52.50-4.36 52.85-3.97Q53.20-3.58 53.20-2.92L53.20-2.92L53.20-0.70Q53.20-0.52 53.28-0.46Q53.37-0.39 53.57-0.33L53.57-0.33Q53.77-0.26 53.77-0.12L53.77-0.12Q53.77-0.06 53.72-0.01Q53.66 0.03 53.60 0.03L53.60 0.03Q53.29 0.03 53 0L53 0Q52.64-0.02 52.48-0.02L52.48-0.02Q52.31-0.02 51.97 0L51.97 0Q51.69 0.03 51.38 0.03L51.38 0.03Q51.32 0.03 51.27-0.01Q51.22-0.06 51.22-0.12L51.22-0.12Q51.22-0.26 51.41-0.33L51.41-0.33Q51.60-0.39 51.67-0.46Q51.75-0.52 51.75-0.70L51.75-0.70L51.75-2.67Q51.75-3.04 51.59-3.25Q51.43-3.46 51.17-3.46L51.17-3.46Q50.99-3.46 50.84-3.41Q50.69-3.35 50.51-3.23L50.51-3.23Q50.43-3.18 50.43-3.05L50.43-3.05L50.43-0.70Q50.43-0.52 50.51-0.46Q50.58-0.40 50.77-0.33L50.77-0.33Q50.96-0.26 50.96-0.12L50.96-0.12Q50.96-0.06 50.91-0.01Q50.86 0.03 50.80 0.03L50.80 0.03Q50.50 0.03 50.23 0L50.23 0Q49.89-0.02 49.73-0.02L49.73-0.02Q49.57-0.02 49.19 0L49.19 0Q48.89 0.03 48.58 0.03L48.58 0.03ZM59.32-0.62L59.36-0.62Q59.41-0.62 59.43-0.60Q59.45-0.58 59.45-0.51L59.45-0.51Q59.45-0.43 59.39-0.34Q59.32-0.24 59.27-0.24L59.27-0.24Q58.41-0.14 57.68 0.13L57.68 0.13Q57.56 0.19 57.50 0.19L57.50 0.19Q57.47 0.19 57.41 0.12Q57.35 0.05 57.35 0.01L57.35 0.01Q57.39-0.21 57.41-0.51L57.41-0.51L57.41-0.57Q57.19-0.24 56.83-0.05Q56.47 0.14 56.08 0.14L56.08 0.14Q55.54 0.14 55.09-0.14Q54.64-0.41 54.39-0.89Q54.13-1.37 54.13-1.96L54.13-1.96Q54.13-2.65 54.44-3.19Q54.75-3.73 55.30-4.03Q55.85-4.33 56.56-4.33L56.56-4.33Q56.85-4.33 57.15-4.25L57.15-4.25L57.28-4.22Q57.32-4.22 57.32-4.33L57.32-4.33L57.32-5.46Q57.32-5.82 57.24-5.98Q57.16-6.14 56.95-6.18L56.95-6.18Q56.83-6.21 56.83-6.34L56.83-6.34Q56.83-6.47 56.94-6.49L56.94-6.49Q57.30-6.56 57.73-6.70Q58.15-6.83 58.43-6.95L58.43-6.95Q58.65-7.05 58.69-7.05L58.69-7.05Q58.74-7.05 58.78-7.02Q58.81-6.98 58.81-6.93L58.81-6.93Q58.80-6.89 58.79-6.73Q58.77-6.56 58.76-6.38L58.76-6.38L58.70-1.22Q58.70-0.87 58.75-0.73Q58.80-0.59 58.93-0.59L58.93-0.59L59.32-0.62ZM58.81-6.93L58.81-6.92L58.81-6.93ZM56.63-0.58Q56.78-0.58 56.99-0.65Q57.20-0.72 57.32-0.84L57.32-0.84L57.31-3.15Q57.31-3.29 57.18-3.46Q57.05-3.62 56.86-3.73Q56.66-3.84 56.50-3.84L56.50-3.84Q56.14-3.84 55.91-3.39Q55.67-2.94 55.67-2.24L55.67-2.24Q55.67-1.51 55.94-1.04Q56.21-0.58 56.63-0.58L56.63-0.58Z"/></svg>