<svg xmlns="http://www.w3.org/2000/svg" viewBox="1.8000000000000003 49.239999999999995 707.256 52.128"><path d="M4 100Q3 100 2 100Q2 100 2 99L2 99Q2 98 4 98L4 98Q6 97 7 96Q8 95 8 93L8 93L8 60Q8 58 8 57Q7 56 4 55L4 55Q2 55 2 54L2 54Q2 53 2 53Q3 53 4 53L4 53Q6 53 10 53L10 53Q13 53 15 53L15 53Q21 53 29 53L29 53Q31 53 33 53Q34 53 35 53L35 53Q36 53 36 54L36 54L37 57Q37 61 37 62L37 62Q37 63 37 63Q37 64 36 64L36 64Q36 64 35 63L35 63Q35 61 34 60Q34 59 33 58L33 58Q31 56 28 56L28 56L21 56Q20 56 19 57Q18 57 18 59L18 59L18 73Q18 75 19 75L19 75L26 75Q28 75 29 74Q29 73 30 70L30 70Q31 69 32 69L32 69Q32 69 32 69Q32 70 32 70L32 70Q32 73 32 76L32 76Q32 80 32 82L32 82L32 82Q32 84 32 84L32 84Q31 84 31 83Q30 82 30 81L30 81Q29 79 29 78Q28 77 26 77L26 77L20 77Q19 77 18 78Q18 78 18 79L18 79L18 93Q18 95 19 96Q20 97 22 97L22 97L28 97Q32 97 34 96L34 96Q36 94 38 90L38 90Q38 89 39 89L39 89Q40 89 40 90L40 90Q40 93 38 99L38 99Q37 100 36 100L36 100L27 100Q18 100 13 100L13 100Q12 100 8 100L8 100Q6 100 4 100L4 100ZM44 100Q43 100 43 100Q42 100 42 99L42 99Q42 98 44 98L44 98Q47 97 48 96Q49 95 49 93L49 93L49 60Q49 58 48 57Q47 56 45 55L45 55Q44 55 43 55Q43 54 43 54L43 54Q43 53 43 53Q44 53 44 53L44 53Q47 53 50 53L50 53Q52 53 53 53L53 53Q54 53 55 53Q57 53 57 53L57 53Q60 53 63 53L63 53Q72 53 76 55Q80 58 80 63L80 63Q80 66 79 68Q78 69 77 71L77 71Q76 72 75 72Q73 73 72 74L72 74Q71 74 71 74Q71 74 72 74L72 74Q77 75 80 78Q83 80 83 86L83 86Q83 90 82 92Q80 94 79 96Q77 97 75 98L75 98Q71 100 63 100L63 100Q62 100 59 100L59 100Q56 100 54 100L54 100Q52 100 49 100L49 100Q47 100 44 100L44 100ZM61 73Q65 73 68 71L68 71Q69 71 70 69Q71 67 71 65L71 65Q71 56 63 56L63 56Q60 56 59 56Q58 57 58 59L58 59L58 71Q58 72 59 73Q60 73 61 73L61 73ZM63 97Q66 97 68 95Q70 94 71 92Q73 89 73 87L73 87Q73 83 71 81Q70 79 68 78L68 78Q68 77 66 77Q64 76 62 76L62 76Q60 76 59 77Q58 78 58 79L58 79L58 92Q58 97 63 97L63 97ZM129 101Q122 101 116 98Q111 95 107 90Q104 84 104 77L104 77Q104 71 107 65Q111 59 117 56Q123 52 131 52L131 52Q134 52 138 53Q143 54 145 55L145 55Q146 55 146 56L146 56Q147 62 147 64L147 64Q147 65 147 65Q147 66 146 66L146 66Q145 66 145 65Q145 65 144 64L144 64Q143 61 141 59L141 59Q138 56 131 56L131 56Q126 56 122 58Q118 61 116 66Q114 70 114 76L114 76Q114 82 116 87Q118 92 122 95Q125 98 130 98L130 98Q134 98 136 95L136 95Q137 95 138 94Q138 92 138 90L138 90L138 85Q138 83 137 83L137 83Q136 82 135 82Q133 81 132 81L132 81Q131 81 131 81Q130 80 130 80L130 80Q130 79 131 79Q131 78 132 78L132 78Q133 78 137 79L137 79Q140 79 142 79L142 79Q143 79 146 79L146 79Q149 78 150 78L150 78Q151 78 151 79Q151 79 151 80L151 80Q151 80 151 81Q151 81 150 81L150 81Q148 81 147 82Q147 83 146 85L146 85Q146 87 146 90L146 90L146 92Q146 93 146 93Q147 93 147 93L147 93Q147 94 147 94Q148 94 148 95L148 95Q148 96 146 96L146 96Q146 96 144 97L144 97Q141 99 137 100Q134 101 129 101L129 101ZM162 101Q160 101 158 99Q156 97 156 95L156 95Q156 92 157 91Q158 89 161 88L161 88L168 85Q170 84 170 84Q170 83 170 82L170 82L170 78Q170 76 170 74Q169 73 167 73L167 73Q166 73 165 74Q164 74 163 75L163 75Q163 75 163 76L163 76L163 78Q163 79 161 80Q159 81 157 81L157 81Q157 81 156 80Q156 80 156 80L156 80Q156 77 159 75L159 75Q162 72 165 71Q169 69 171 69L171 69Q174 69 176 72Q179 74 178 78L178 78L178 93Q178 95 179 96Q179 97 180 97L180 97Q182 97 183 96L183 96Q183 96 183 96L183 96Q184 96 184 96Q184 96 184 96L184 96Q184 97 183 98L183 98Q182 100 180 100Q179 101 177 101L177 101Q175 101 174 100Q173 99 171 97L171 97L171 97Q169 99 167 100Q165 101 162 101L162 101ZM166 97Q168 97 169 95L169 95Q170 95 170 93L170 93L170 89L170 88Q170 87 170 87L170 87Q169 87 168 88L168 88Q166 89 165 90Q164 91 164 93L164 93Q164 95 164 96Q165 97 166 97L166 97ZM187 100Q187 100 186 100Q186 100 186 99L186 99Q186 99 186 98Q187 98 187 98L187 98Q189 97 190 97Q190 96 190 95L190 95L190 79Q190 77 190 76Q189 75 188 75L188 75Q187 74 187 74L187 74Q187 73 188 72L188 72Q190 72 192 71Q195 70 197 69L197 69Q198 68 198 68L198 68Q199 68 199 69L199 69L198 75Q198 75 198 75Q199 75 199 75L199 75Q200 73 203 71Q205 69 208 69L208 69Q210 69 211 70Q212 71 212 72L212 72Q212 74 210 76Q209 77 208 77L208 77Q207 77 205 76L205 76Q204 76 203 76L203 76Q201 76 199 77Q198 78 198 82L198 82L198 95Q198 96 199 97Q200 97 202 98L202 98Q203 98 203 98Q204 99 204 99L204 99Q204 100 202 100L202 100Q200 100 198 100L198 100Q196 100 194 100L194 100Q193 100 191 100L191 100Q189 100 187 100L187 100ZM221 101Q218 101 216 99Q214 97 214 95L214 95Q214 92 216 91Q217 89 220 88L220 88L227 85Q228 84 228 84Q229 83 229 82L229 82L229 78Q229 76 228 74Q227 73 225 73L225 73Q224 73 223 74Q222 74 222 75L222 75Q221 75 221 76L221 76L221 78Q221 79 219 80Q217 81 216 81L216 81Q215 81 215 80Q215 80 215 80L215 80Q215 77 218 75L218 75Q220 72 224 71Q227 69 229 69L229 69Q233 69 235 72Q237 74 237 78L237 78L237 93Q237 95 237 96Q238 97 239 97L239 97Q241 97 241 96L241 96Q242 96 242 96L242 96Q242 96 243 96Q243 96 243 96L243 96Q243 97 242 98L242 98Q240 100 239 100Q237 101 236 101L236 101Q234 101 233 100Q231 99 230 97L230 97L230 97Q227 99 225 100Q223 101 221 101L221 101ZM225 97Q227 97 228 95L228 95Q229 95 229 93L229 93L229 89L229 88Q229 87 228 87L228 87Q228 87 227 88L227 88Q224 89 223 90Q222 91 222 93L222 93Q222 95 223 96Q224 97 225 97L225 97ZM246 100Q245 100 245 100Q244 100 244 99L244 99Q244 98 246 98L246 98Q247 97 248 97Q249 96 249 95L249 95L249 79Q249 77 248 76Q248 75 246 75L246 75Q246 75 246 73L246 73Q246 73 246 72L246 72Q251 71 256 69L256 69Q256 68 257 68L257 68Q257 68 257 68Q257 69 257 69L257 69L257 70Q257 71 257 72Q257 72 257 73L257 73Q257 74 257 74L257 74L257 74Q259 72 262 71Q265 69 268 69L268 69Q270 69 272 71Q274 72 275 75L275 75L275 75Q280 69 286 69L286 69Q290 69 292 72Q294 75 294 80L294 80L294 95Q294 97 295 97Q296 97 297 98L297 98Q299 98 299 99L299 99Q299 100 298 100Q298 100 297 100L297 100Q295 100 294 100L294 100Q292 100 290 100L290 100Q289 100 287 100L287 100Q286 100 284 100L284 100Q283 100 283 100Q282 100 282 99L282 99Q282 99 283 98Q283 98 284 98L284 98Q285 98 286 97Q286 97 286 95L286 95L286 81Q286 78 285 76Q284 74 282 74L282 74Q279 74 277 76L277 76Q275 77 275 80L275 80L275 95Q275 97 276 97Q277 97 278 98L278 98Q280 98 280 99L280 99Q280 100 279 100Q279 100 278 100L278 100Q276 100 275 100L275 100Q273 100 272 100L272 100Q270 100 268 100L268 100Q267 100 265 100L265 100Q264 100 264 100Q264 100 264 99L264 99Q264 99 264 98Q264 98 265 98L265 98Q266 98 267 97Q267 97 267 95L267 95L267 81Q267 78 266 76Q265 75 263 74L263 74Q260 74 258 76L258 76Q257 77 257 80L257 80L257 95Q257 96 257 97Q258 98 259 98L259 98Q260 98 260 99L260 99Q260 100 260 100Q260 100 259 100L259 100Q257 100 256 100L256 100Q254 100 253 100L253 100Q251 100 249 100L249 100Q248 100 246 100L246 100ZM317 101Q313 101 309 99Q306 97 304 94Q302 90 302 86L302 86Q302 82 304 78Q306 74 310 72Q314 69 318 69L318 69Q323 69 326 71Q330 73 332 77Q334 80 334 84L334 84Q334 89 332 93Q330 96 326 99Q322 101 317 101L317 101ZM318 98Q322 98 324 95L324 95Q325 93 325 86L325 86Q325 82 324 79Q323 76 322 74Q320 72 317 72L317 72Q314 72 313 74L313 74Q311 76 311 78Q311 81 311 84L311 84Q311 88 312 91Q313 94 314 96Q316 98 318 98L318 98ZM339 100Q338 100 338 100Q338 100 338 99L338 99Q338 99 338 98Q338 98 339 98L339 98Q341 97 341 97Q342 96 342 95L342 95L342 79Q342 77 342 76Q341 75 340 75L340 75Q339 74 339 73L339 73Q339 73 340 72L340 72Q345 71 349 69L349 69Q349 69 349 68Q350 68 350 68L350 68Q351 68 351 69L351 69L351 70Q350 73 350 73L350 73Q350 74 350 74L350 74Q353 72 356 71Q358 69 362 69L362 69Q365 69 368 72Q370 75 370 80L370 80L370 95Q370 97 371 97Q371 97 373 98L373 98Q374 98 374 99Q375 99 375 99L375 99Q375 100 374 100Q374 100 373 100L373 100Q371 100 369 100L369 100Q367 100 366 100L366 100Q365 100 363 100L363 100Q361 100 359 100L359 100Q359 100 358 100Q358 100 358 99L358 99Q358 98 359 98L359 98Q361 97 361 97Q362 97 362 95L362 95L362 81Q362 78 361 76Q359 74 357 74L357 74Q354 74 351 77L351 77Q350 77 350 78L350 78L350 95Q350 97 351 97Q351 97 353 98L353 98Q354 98 354 99L354 99Q354 100 354 100Q354 100 353 100L353 100Q351 100 349 100L349 100Q347 100 346 100L346 100Q345 100 343 100L343 100Q341 100 339 100L339 100ZM402 101Q401 101 401 101Q401 101 401 100L401 100Q401 99 401 96L401 96L401 96Q400 98 397 100Q394 101 392 101L392 101Q388 101 384 99Q381 97 380 93Q378 90 378 86L378 86Q378 81 380 78Q382 74 386 72Q390 69 395 69L395 69Q397 69 399 70L399 70L400 70Q401 70 401 69L401 69L401 60Q401 57 400 56Q399 55 398 55L398 55Q397 55 397 54L397 54Q397 53 398 53L398 53Q403 52 407 50L407 50Q408 49 408 49L408 49Q409 49 409 50L409 50Q409 50 409 52Q409 53 409 57L409 57L408 92Q408 94 409 95Q409 96 410 96L410 96Q411 96 413 96L413 96L413 96Q414 96 414 96Q414 96 414 97L414 97Q414 97 414 98Q413 98 413 98L413 98Q408 99 403 101L403 101Q402 101 402 101L402 101ZM395 96Q396 96 398 96Q400 95 401 94L401 94L401 79Q401 77 400 76Q399 74 397 73Q395 72 393 72L393 72Q392 72 390 74Q388 75 387 78Q386 80 386 84L386 84Q386 88 388 91Q389 94 391 95Q393 96 395 96L395 96ZM442 101Q437 101 434 99L434 99Q433 98 433 95Q433 93 433 91L433 91Q433 91 433 90Q434 90 434 90L434 90Q434 90 435 91Q435 91 435 91L435 91Q437 95 438 96Q440 98 443 98L443 98Q445 98 446 97Q447 96 447 94L447 94Q447 92 446 91Q444 90 442 88L442 88Q438 86 436 84Q434 82 434 78L434 78Q434 74 437 72Q440 69 445 69L445 69Q447 69 449 70Q451 70 452 71L452 71Q452 71 453 73Q453 75 453 77L453 77Q453 78 453 78Q452 78 452 78L452 78Q451 78 451 78Q450 78 450 77L450 77Q448 72 445 72L445 72Q443 72 442 73Q440 74 440 76L440 76Q440 77 441 78Q443 80 445 81L445 81Q450 84 452 86Q454 88 454 92L454 92Q454 96 451 98Q448 101 442 101L442 101ZM471 101Q467 101 464 99Q461 97 459 93Q458 90 458 85L458 85Q458 81 460 77Q462 74 465 71Q469 69 473 69L473 69Q477 69 480 72Q483 75 483 79L483 79Q483 80 483 81Q482 82 481 82L481 82L466 82Q465 82 465 82Q465 83 465 84L465 84Q465 87 466 90Q467 92 469 93Q472 95 474 95L474 95Q478 95 482 92L482 92Q482 91 483 91L483 91Q483 91 483 91Q483 92 483 92L483 92Q483 93 482 95L482 95Q481 97 478 99Q475 101 471 101L471 101ZM466 79L472 79Q475 79 476 78L476 78Q477 78 477 77L477 77Q477 75 475 73Q474 72 472 72L472 72Q470 72 469 73Q467 74 466 75Q465 77 465 78L465 78Q465 79 466 79L466 79ZM488 100Q488 100 487 100Q487 100 487 99L487 99Q487 98 488 98L488 98Q490 97 491 97Q491 96 491 95L491 95L491 79Q491 77 491 76Q490 75 489 75L489 75Q488 75 488 73L488 73Q488 73 489 72L489 72Q494 71 498 69L498 69Q499 68 499 68L499 68Q500 68 500 68Q500 69 500 69L500 69L500 70Q500 71 500 72Q499 72 499 73L499 73Q499 74 500 74L500 74L500 74Q502 72 505 71Q507 69 511 69L511 69Q513 69 515 71Q517 72 518 75L518 75L518 75Q523 69 529 69L529 69Q533 69 535 72Q537 75 537 80L537 80L537 95Q537 97 537 97Q538 97 540 98L540 98Q541 98 541 99L541 99Q541 100 541 100Q540 100 540 100L540 100Q538 100 536 100L536 100Q534 100 533 100L533 100Q532 100 530 100L530 100Q528 100 526 100L526 100Q526 100 525 100Q525 100 525 99L525 99Q525 99 525 98Q526 98 526 98L526 98Q528 98 528 97Q529 97 529 95L529 95L529 81Q529 78 527 76Q526 74 524 74L524 74Q521 74 519 76L519 76Q518 77 518 80L518 80L518 95Q518 97 519 97Q519 97 521 98L521 98Q522 98 522 99L522 99Q522 100 522 100Q521 100 521 100L521 100Q519 100 517 100L517 100Q515 100 514 100L514 100Q513 100 511 100L511 100Q509 100 507 100L507 100Q507 100 506 100Q506 100 506 99L506 99Q506 99 506 98Q507 98 508 98L508 98Q509 98 509 97Q510 97 510 95L510 95L510 81Q510 78 509 76Q507 75 505 74L505 74Q503 74 500 76L500 76Q499 77 499 80L499 80L499 95Q499 96 500 97Q500 98 502 98L502 98Q503 98 503 99L503 99Q503 100 503 100Q502 100 502 100L502 100Q500 100 498 100L498 100Q496 100 495 100L495 100Q494 100 492 100L492 100Q490 100 488 100L488 100ZM545 100Q545 100 544 100Q544 100 544 99L544 99Q544 98 546 98L546 98Q547 98 548 97Q549 96 549 95L549 95L549 80Q549 77 548 76Q547 75 546 75L546 75Q545 75 545 74Q545 74 545 74L545 74Q545 73 546 73L546 73Q550 71 556 69L556 69Q557 68 557 68L557 68Q558 68 558 69L558 69L557 71Q557 76 557 79L557 79L557 95Q557 96 558 97Q558 97 560 98L560 98Q561 98 561 99Q562 99 562 99L562 99Q562 100 560 100L560 100Q559 100 556 100L556 100Q554 100 553 100L553 100Q552 100 549 100L549 100Q547 100 545 100L545 100ZM553 64Q551 64 549 62Q548 61 548 59L548 59Q548 57 549 55Q551 54 553 54L553 54Q555 54 556 55Q558 57 558 59L558 59Q558 61 556 63Q555 64 553 64L553 64ZM598 101Q595 101 591 100L591 100Q591 100 590 99Q588 99 588 99L588 99Q587 99 586 100L586 100Q585 100 585 100L585 100Q584 100 584 100Q583 100 583 100L583 100Q583 99 584 97Q584 95 584 93L584 93L584 60Q584 56 581 55L581 55Q580 55 580 54L580 54Q580 53 581 53L581 53Q583 52 589 50L589 50L591 50Q591 49 591 49L591 49Q592 49 592 49Q592 50 592 50L592 50Q592 50 592 52Q592 54 592 56L592 56L592 71Q592 73 592 73L592 73Q595 71 597 70Q600 69 602 69L602 69Q606 69 609 71Q612 73 614 76Q615 80 615 84L615 84Q615 89 613 93Q611 97 607 99Q603 101 598 101L598 101ZM600 98Q603 98 605 95Q607 91 607 86L607 86Q607 83 606 80Q605 77 603 75Q601 73 599 73L599 73Q597 73 595 74Q593 74 592 75L592 75L592 90Q592 94 594 96Q596 98 600 98L600 98ZM634 101Q630 101 627 99Q623 97 621 94Q619 90 619 86L619 86Q619 82 621 78Q624 74 627 72Q631 69 636 69L636 69Q640 69 644 71Q647 73 649 77Q651 80 651 84L651 84Q651 89 649 93Q647 96 644 99Q640 101 634 101L634 101ZM636 98Q639 98 641 95L641 95Q643 93 643 86L643 86Q643 82 642 79Q641 76 639 74Q637 72 635 72L635 72Q632 72 630 74L630 74Q629 76 628 78Q628 81 628 84L628 84Q628 88 629 91Q630 94 632 96Q633 98 636 98L636 98ZM655 100Q654 100 654 100Q653 100 653 99L653 99Q653 99 654 99Q654 98 655 98L655 98Q655 98 656 98Q657 97 658 97Q658 96 658 95L658 95L658 60Q658 58 657 57Q657 55 655 55L655 55Q655 55 654 54Q654 54 654 54L654 54Q654 53 655 53L655 53Q658 52 663 50L663 50L665 49Q665 49 666 49L666 49Q666 49 666 50L666 50Q666 50 666 52Q666 54 666 57L666 57L666 95Q666 96 667 97Q667 97 668 98Q669 98 669 98L669 98Q670 98 670 99L670 99Q670 100 670 100Q670 100 669 100L669 100Q667 100 665 100L665 100Q663 100 662 100L662 100Q661 100 659 100L659 100Q657 100 655 100L655 100ZM697 101Q696 101 696 101Q696 101 696 100L696 100Q696 99 696 96L696 96L696 96Q695 98 692 100Q689 101 687 101L687 101Q683 101 679 99Q676 97 675 93Q673 90 673 86L673 86Q673 81 675 78Q677 74 681 72Q685 69 690 69L690 69Q692 69 694 70L694 70L695 70Q696 70 696 69L696 69L696 60Q696 57 695 56Q694 55 693 55L693 55Q692 55 692 54L692 54Q692 53 693 53L693 53Q698 52 702 50L702 50Q703 49 703 49L703 49Q704 49 704 50L704 50Q704 50 704 52Q704 53 704 57L704 57L703 92Q703 94 704 95Q704 96 705 96L705 96Q706 96 708 96L708 96L708 96Q709 96 709 96Q709 96 709 97L709 97Q709 97 709 98Q708 98 708 98L708 98Q703 99 698 101L698 101Q697 101 697 101L697 101ZM690 96Q691 96 693 96Q695 95 696 94L696 94L696 79Q696 77 695 76Q694 74 692 73Q690 72 688 72L688 72Q687 72 685 74Q683 75 682 78Q681 80 681 84L681 84Q681 88 683 91Q684 94 686 95Q688 96 690 96L690 96Z"/></svg>