<svg xmlns="http://www.w3.org/2000/svg" viewBox="-2.8800000000000003 49.023999999999994 832.6080000000002 52.12800000000001"><path d="M-1.37 100.36Q-2.88 100.36-2.88 99.50L-2.88 99.50Q-2.81 98.56-0.50 98.13L-0.50 98.13Q2.81 97.48 4.28 96.40Q5.76 95.32 6.48 92.94L6.48 92.94L16.42 60.40Q16.85 58.89 16.85 57.95L16.85 57.95Q16.85 56.66 15.95 56.12Q15.05 55.58 12.74 55.14L12.74 55.14Q11.02 54.86 11.02 53.99L11.02 53.99Q11.02 53.49 11.70 53.20Q12.38 52.91 13.54 52.91L13.54 52.91L16.42 52.98Q19.22 53.20 22.39 53.20L22.39 53.20L34.06 53.20Q39.89 53.20 41.76 52.80Q43.63 52.41 43.85 52.41L43.85 52.41Q44.21 52.41 44.53 52.77Q44.86 53.13 44.86 53.56L44.86 53.56Q44.86 53.99 44.21 55.94L44.21 55.94Q43.06 59.68 42.77 62.06L42.77 62.06Q42.70 62.70 42.30 63.06Q41.90 63.42 41.54 63.42L41.54 63.42Q41.18 63.42 40.93 62.96Q40.68 62.49 40.68 61.77L40.68 61.77Q40.68 58.10 39.78 56.73Q38.88 55.36 36.14 55.36L36.14 55.36L28.44 55.36Q26.71 55.36 25.85 56.04Q24.98 56.73 24.41 58.60L24.41 58.60L20.09 72.64Q19.87 73.36 19.87 73.86L19.87 73.86Q19.87 74.80 21.31 74.73L21.31 74.73L29.38 74.58Q31.10 74.51 32.29 73.72Q33.48 72.93 34.56 71.42L34.56 71.42Q35.06 70.77 35.71 70.12Q36.36 69.47 36.79 69.47L36.79 69.47Q37.37 69.47 37.37 70.26L37.37 70.26Q37.37 70.77 37.15 71.34L37.15 71.34Q35.78 74.15 35.14 76.24L35.14 76.24Q34.49 78.18 33.62 81.64L33.62 81.64Q33.19 83.37 32.62 83.37L32.62 83.37Q32.11 83.37 31.82 82.72Q31.54 82.07 31.54 81.42L31.54 81.42Q31.61 77.18 29.02 77.18L29.02 77.18L21.10 77.03Q19.80 77.03 19.08 77.46Q18.36 77.90 18.00 79.12L18.00 79.12L14.40 92.01Q13.82 94.17 13.82 95.25L13.82 95.25Q13.82 96.69 14.65 97.30Q15.48 97.91 17.28 97.91L17.28 97.91L26.64 97.91Q29.66 97.91 32.40 95.97L32.40 95.97Q33.55 95.18 34.56 93.88Q35.57 92.58 36.86 90.64L36.86 90.64Q37.15 90.21 37.48 89.85Q37.80 89.49 38.16 89.49L38.16 89.49Q38.74 89.49 38.74 91L38.74 91Q38.74 92.01 37.62 94.74Q36.50 97.48 35.50 98.99L35.50 98.99Q34.70 100.36 33.26 100.36L33.26 100.36Q27.43 100.36 20.59 100.14L20.59 100.14Q18.14 100.07 14.87 100Q11.59 99.93 7.85 99.93L7.85 99.93Q6.70 99.93 5.29 100.04Q3.89 100.14 3.24 100.14L3.24 100.14Q1.08 100.36-1.37 100.36L-1.37 100.36ZM40.97 100.36Q39.38 100.36 39.38 99.57L39.38 99.57Q39.38 98.56 41.83 98.13L41.83 98.13Q44.64 97.48 46.12 96.40Q47.59 95.32 48.38 92.94L48.38 92.94L58.32 60.40Q58.75 58.96 58.75 58.10L58.75 58.10Q58.75 56.94 57.96 56.37Q57.17 55.79 55.44 55.36L55.44 55.36Q54.50 55.14 54.14 54.89Q53.78 54.64 53.78 54.14L53.78 54.14Q53.78 53.70 54.43 53.42Q55.08 53.13 56.02 53.13L56.02 53.13Q58.18 53.13 59.69 53.34L59.69 53.34Q61.56 53.49 62.71 53.49L62.71 53.49Q63.86 53.49 66.74 53.20L66.74 53.20Q69.12 52.84 71.06 52.84L71.06 52.84Q77.83 52.84 81.14 55.40Q84.46 57.95 84.46 62.20L84.46 62.20Q84.46 65.30 82.51 67.71Q80.57 70.12 77.58 71.67Q74.59 73.22 71.50 73.72L71.50 73.72Q71.06 73.79 71.03 74.04Q70.99 74.30 71.28 74.44L71.28 74.44Q75.82 76.17 78.12 78.80Q80.42 81.42 80.42 86.03L80.42 86.03Q80.42 90.50 77.72 93.70Q75.02 96.90 70.31 98.60Q65.59 100.29 59.69 100.29L59.69 100.29Q59.04 100.29 54.29 100.07L54.29 100.07Q52.27 99.86 50.18 99.86L50.18 99.86Q49.03 99.86 47.74 99.93Q46.44 100 45.72 100.07L45.72 100.07Q42.84 100.36 40.97 100.36L40.97 100.36ZM63.29 73.50Q64.80 73.50 66.17 73.25Q67.54 73 69.62 72.42L69.62 72.42Q73.08 70.62 75.20 68.00Q77.33 65.37 77.33 61.91L77.33 61.91Q77.33 59.03 75.20 57.02Q73.08 55.00 69.55 55.00L69.55 55.00Q68.11 55.00 67.46 55.32Q66.82 55.65 66.53 56.58L66.53 56.58L62.06 72.14Q61.99 72.35 61.99 72.64L61.99 72.64Q61.99 73.50 63.29 73.50L63.29 73.50ZM59.83 98.27Q62.93 98.20 65.95 96.29Q68.98 94.38 70.88 91.29Q72.79 88.19 72.79 84.74L72.79 84.74Q72.79 80.34 70.16 77.90Q67.54 75.45 62.64 75.45L62.64 75.45Q60.91 75.45 60.48 76.96L60.48 76.96L55.87 92.44Q55.58 93.59 55.58 94.31L55.58 94.31Q55.58 95.75 56.38 96.54L56.38 96.54Q57.96 98.27 59.83 98.27L59.83 98.27ZM126.00 101.01Q119.88 101.01 115.06 98.81Q110.23 96.62 107.50 92.37Q104.76 88.12 104.76 82.14L104.76 82.14Q104.76 81.28 104.90 79.41L104.90 79.41Q105.41 71.85 109.66 65.66Q113.90 59.46 120.92 55.86Q127.94 52.26 136.44 52.26L136.44 52.26Q139.82 52.26 143.64 53.63L143.64 53.63Q144.72 54.06 145.69 54.35Q146.66 54.64 147.46 54.64L147.46 54.64Q148.18 54.64 149.11 54.06L149.11 54.06Q150.26 53.49 150.77 53.49L150.77 53.49Q151.56 53.49 151.56 54.14L151.56 54.14Q151.56 54.42 151.34 54.78L151.34 54.78Q149.98 56.66 148.43 59.86Q146.88 63.06 146.38 65.51L146.38 65.51Q145.87 67.17 144.94 67.17L144.94 67.17Q143.71 67.17 143.71 65.44L143.71 65.44Q143.71 65.01 143.78 64.72L143.78 64.72Q143.93 63.42 143.93 62.85L143.93 62.85Q143.93 59.90 142.49 57.95L142.49 57.95Q141.41 56.44 139.57 55.47Q137.74 54.50 135.36 54.50L135.36 54.50Q129.60 54.50 124.63 58.17Q119.66 61.84 116.46 68.14Q113.26 74.44 112.54 81.93L112.54 81.93Q112.46 82.58 112.46 83.73L112.46 83.73Q112.46 88.12 114.48 91.58Q116.50 95.03 119.77 96.90Q123.05 98.78 126.72 98.78L126.72 98.78Q129.67 98.78 131.65 97.08Q133.63 95.39 134.35 92.73L134.35 92.73L136.44 84.81Q136.58 84.38 136.58 83.73L136.58 83.73Q136.58 82.43 135.22 82L135.22 82Q134.28 81.71 133.13 81.42Q131.98 81.14 131.62 81.06L131.62 81.06Q129.67 80.63 129.67 79.91L129.67 79.91Q129.67 79.41 130.28 79.08Q130.90 78.76 131.83 78.76L131.83 78.76Q133.56 78.76 136.58 79.05L136.58 79.05Q137.30 79.12 138.71 79.19Q140.11 79.26 141.19 79.26L141.19 79.26Q141.98 79.26 142.99 79.19Q144 79.12 144.50 79.05L144.50 79.05Q146.81 78.76 148.46 78.76L148.46 78.76Q149.04 78.76 149.40 79.01Q149.76 79.26 149.76 79.70L149.76 79.70Q149.76 80.20 149.18 80.63Q148.61 81.06 147.60 81.28L147.60 81.28Q145.80 81.57 144.86 82.29Q143.93 83.01 143.21 84.52L143.21 84.52Q142.34 86.39 141.44 89.20Q140.54 92.01 140.54 92.87L140.54 92.87Q140.54 93.52 140.80 94.02Q141.05 94.53 141.62 95.32L141.62 95.32Q141.05 96.69 138.24 98.02Q135.43 99.35 131.98 100.18Q128.52 101.01 126.00 101.01L126.00 101.01ZM152.78 101.01Q151.42 101.01 150.16 99.93Q148.90 98.85 148.90 97.70L148.90 97.70Q148.90 94.10 152.39 88.80Q155.88 83.51 162.50 77.10L162.50 77.10Q169.99 70.05 172.44 70.05L172.44 70.05Q173.74 70.05 175.25 71.42L175.25 71.42L176.04 72.35Q176.33 72.35 176.47 71.85L176.47 71.85Q177.77 69.62 177.70 69.62L177.70 69.62Q177.98 68.90 178.85 68.90L178.85 68.90Q180.07 68.90 181.30 69.58Q182.52 70.26 182.52 70.98L182.52 70.98Q182.52 71.20 182.09 72.42L182.09 72.42L174.38 93.16Q174.17 93.81 174.17 94.31L174.17 94.31Q174.17 95.39 175.25 95.39L175.25 95.39Q176.40 95.39 178.20 94.13Q180.00 92.87 181.44 91.07L181.44 91.07Q181.80 90.71 182.02 90.71L182.02 90.71Q182.59 90.71 182.59 91.65L182.59 91.65Q182.59 92.37 181.48 93.95Q180.36 95.54 178.92 96.83L178.92 96.83Q176.69 98.85 174.46 99.93Q172.22 101.01 170.57 101.01L170.57 101.01Q169.20 101.01 168.01 99.96Q166.82 98.92 166.82 97.77L166.82 97.77Q166.82 97.05 167.26 96.11L167.26 96.11Q166.97 96.62 168.08 94.02Q169.20 91.43 170.28 89.13L170.28 89.13Q170.57 88.55 170.50 88.19Q170.42 87.83 170.06 88.26L170.06 88.26Q163.80 95.25 159.91 98.13Q156.02 101.01 152.78 101.01L152.78 101.01ZM158.11 95.39Q159.55 95.39 162.54 92.87Q165.53 90.35 169.06 86.10L169.06 86.10Q171.58 83.08 173.09 80.60Q174.60 78.11 174.60 76.89L174.60 76.89Q174.60 76.31 173.52 75.38L173.52 75.38Q172.15 74.44 171.43 74.44L171.43 74.44Q170.21 74.44 168.01 75.74Q165.82 77.03 164.09 78.76L164.09 78.76Q160.92 81.93 158.47 86.14Q156.02 90.35 156.02 92.87L156.02 92.87Q156.02 94.02 156.60 94.71Q157.18 95.39 158.11 95.39L158.11 95.39ZM190.15 101.15Q189.36 101.15 188.42 100.47Q187.49 99.78 187.49 98.92L187.49 98.92Q187.49 98.27 187.85 97.08Q188.21 95.90 188.78 94.46L188.78 94.46L195.62 76.67Q195.91 75.81 195.91 75.45L195.91 75.45Q195.91 74.44 195.05 74.44L195.05 74.44Q193.10 74.44 191.30 75.66L191.30 75.66Q191.02 75.88 190.73 75.88L190.73 75.88Q190.01 75.88 190.01 75.09L190.01 75.09Q189.94 74.22 190.76 73.25Q191.59 72.28 192.89 71.42L192.89 71.42Q195.48 69.69 198.29 69.69L198.29 69.69Q201.46 69.69 201.46 72.57L201.46 72.57Q201.46 74.37 200.16 77.54L200.16 77.54L197.06 85.10L196.99 85.38Q196.99 85.82 197.42 85.82L197.42 85.82Q197.78 85.82 197.93 85.46L197.93 85.46Q202.18 78.11 206.21 73.79Q210.24 69.47 213.19 69.47L213.19 69.47Q215.06 69.47 216.04 70.59Q217.01 71.70 217.01 73.43L217.01 73.43Q217.01 75.81 215.71 77.86Q214.42 79.91 212.83 79.91L212.83 79.91Q211.54 79.91 211.39 77.18L211.39 77.18Q211.18 74.58 209.81 74.58L209.81 74.58Q208.01 74.58 204.70 79.48L204.70 79.48Q203.26 81.50 200.16 86.39Q197.06 91.29 195.05 94.89L195.05 94.89Q193.03 98.49 192.06 99.82Q191.09 101.15 190.15 101.15L190.15 101.15ZM214.49 101.01Q213.12 101.01 211.86 99.93Q210.60 98.85 210.60 97.70L210.60 97.70Q210.60 94.10 214.09 88.80Q217.58 83.51 224.21 77.10L224.21 77.10Q231.70 70.05 234.14 70.05L234.14 70.05Q235.44 70.05 236.95 71.42L236.95 71.42L237.74 72.35Q238.03 72.35 238.18 71.85L238.18 71.85Q239.47 69.62 239.40 69.62L239.40 69.62Q239.69 68.90 240.55 68.90L240.55 68.90Q241.78 68.90 243.00 69.58Q244.22 70.26 244.22 70.98L244.22 70.98Q244.22 71.20 243.79 72.42L243.79 72.42L236.09 93.16Q235.87 93.81 235.87 94.31L235.87 94.31Q235.87 95.39 236.95 95.39L236.95 95.39Q238.10 95.39 239.90 94.13Q241.70 92.87 243.14 91.07L243.14 91.07Q243.50 90.71 243.72 90.71L243.72 90.71Q244.30 90.71 244.30 91.65L244.30 91.65Q244.30 92.37 243.18 93.95Q242.06 95.54 240.62 96.83L240.62 96.83Q238.39 98.85 236.16 99.93Q233.93 101.01 232.27 101.01L232.27 101.01Q230.90 101.01 229.72 99.96Q228.53 98.92 228.53 97.77L228.53 97.77Q228.53 97.05 228.96 96.11L228.96 96.11Q228.67 96.62 229.79 94.02Q230.90 91.43 231.98 89.13L231.98 89.13Q232.27 88.55 232.20 88.19Q232.13 87.83 231.77 88.26L231.77 88.26Q225.50 95.25 221.62 98.13Q217.73 101.01 214.49 101.01L214.49 101.01ZM219.82 95.39Q221.26 95.39 224.24 92.87Q227.23 90.35 230.76 86.10L230.76 86.10Q233.28 83.08 234.79 80.60Q236.30 78.11 236.30 76.89L236.30 76.89Q236.30 76.31 235.22 75.38L235.22 75.38Q233.86 74.44 233.14 74.44L233.14 74.44Q231.91 74.44 229.72 75.74Q227.52 77.03 225.79 78.76L225.79 78.76Q222.62 81.93 220.18 86.14Q217.73 90.35 217.73 92.87L217.73 92.87Q217.73 94.02 218.30 94.71Q218.88 95.39 219.82 95.39L219.82 95.39ZM252.72 101.15Q252.00 101.15 251.21 100.25Q250.42 99.35 250.42 98.34L250.42 98.34Q250.42 97.62 251.71 94.24L251.71 94.24L258.70 76.60Q258.84 76.02 258.84 75.81L258.84 75.81Q258.84 75.23 258.52 74.91Q258.19 74.58 257.62 74.58L257.62 74.58Q256.39 74.58 255.10 75.20Q253.80 75.81 252.22 77.68L252.22 77.68Q252.00 77.97 251.64 77.97L251.64 77.97Q251.06 77.97 251.06 77.32L251.06 77.32Q251.06 76.60 251.64 75.34Q252.22 74.08 252.86 73.43L252.86 73.43Q254.45 71.70 256.28 70.73Q258.12 69.76 260.71 69.69L260.71 69.69Q262.30 69.69 263.38 70.52Q264.46 71.34 264.46 72.78L264.46 72.78Q264.46 73.72 264.10 74.51L264.10 74.51L259.99 84.81L259.92 85.10Q259.92 85.38 260.21 85.38L260.21 85.38Q260.57 85.38 260.71 85.02L260.71 85.02Q265.46 77.54 269.39 73.61Q273.31 69.69 276.98 69.69L276.98 69.69Q279 69.69 280.22 71.02Q281.45 72.35 281.45 74.51L281.45 74.51Q281.45 76.02 280.66 78.04L280.66 78.04L278.64 83.73L278.57 84.02Q278.57 84.30 278.93 84.30L278.93 84.30Q279.22 84.30 279.43 84.02L279.43 84.02Q288.29 69.69 295.49 69.69L295.49 69.69Q297.43 69.69 298.55 70.95Q299.66 72.21 299.66 74.30L299.66 74.30Q299.66 76.31 298.73 78.47L298.73 78.47L292.97 92.94Q292.54 94.02 292.54 94.60L292.54 94.60Q292.54 95.39 293.33 95.39L293.33 95.39Q294.55 95.39 296.75 93.59Q298.94 91.79 300.46 90.28L300.46 90.28Q300.89 89.85 301.10 89.85L301.10 89.85Q301.32 89.85 301.54 90.06Q301.75 90.28 301.75 90.57L301.75 90.57Q301.75 91.86 300.46 93.23L300.46 93.23Q293.76 101.01 287.50 101.01L287.50 101.01Q286.63 101.01 285.70 100.18Q284.76 99.35 284.76 98.34L284.76 98.34Q284.76 98.13 284.90 97.70L284.90 97.70L293.76 76.10Q294.05 75.23 294.05 74.94L294.05 74.94Q294.05 74.15 293.58 73.72Q293.11 73.29 292.46 73.29L292.46 73.29Q291.31 73.29 289.62 74.66Q287.93 76.02 285.91 78.62L285.91 78.62Q284.11 80.92 280.98 85.82Q277.85 90.71 275.33 95.10L275.33 95.10Q273.74 97.91 272.09 99.53Q270.43 101.15 269.42 101.15L269.42 101.15Q268.70 101.15 268.02 100.36Q267.34 99.57 267.34 98.78L267.34 98.78Q267.34 97.84 268.70 94.17L268.70 94.17L275.76 75.88Q276.05 75.23 276.05 74.66L276.05 74.66Q276.05 73.94 275.62 73.54Q275.18 73.14 274.61 73.07L274.61 73.07Q273.46 73 271.66 74.44Q269.86 75.88 267.62 78.69L267.62 78.69Q265.90 80.99 262.91 85.82Q259.92 90.64 257.54 95.03L257.54 95.03Q255.67 98.49 254.66 99.82Q253.66 101.15 252.72 101.15L252.72 101.15ZM313.56 101.01Q311.47 101.01 309.64 99.78Q307.80 98.56 306.68 96.54Q305.57 94.53 305.57 92.15L305.57 92.15Q305.57 87.54 308.05 82.25Q310.54 76.96 314.78 73.32Q319.03 69.69 324.14 69.69L324.14 69.69Q328.10 69.69 330.44 72.24Q332.78 74.80 332.78 78.83L332.78 78.83Q332.78 83.44 330.34 88.66Q327.89 93.88 323.50 97.44Q319.10 101.01 313.56 101.01L313.56 101.01ZM314.78 98.63Q317.30 98.63 320.08 94.78Q322.85 90.93 324.72 85.49Q326.59 80.06 326.59 75.95L326.59 75.95Q326.59 72.06 323.71 72.06L323.71 72.06Q321.26 72.06 318.49 75.74Q315.72 79.41 313.81 84.77Q311.90 90.14 311.90 94.60L311.90 94.60Q311.90 98.63 314.78 98.63L314.78 98.63ZM339.84 101.08Q338.98 101.08 338.00 100.04Q337.03 98.99 337.03 97.77L337.03 97.77Q337.03 97.19 337.18 96.90L337.18 96.90L345.10 77.32Q345.67 75.95 345.67 75.38L345.67 75.38Q345.67 74.66 344.95 74.66L344.95 74.66Q343.58 74.66 342.25 75.23Q340.92 75.81 339.48 77.68L339.48 77.68Q339.26 77.97 338.90 77.97L338.90 77.97Q338.33 77.97 338.26 77.39L338.26 77.39Q338.18 76.74 338.83 75.52Q339.48 74.30 340.20 73.43L340.20 73.43Q341.57 71.78 343.66 70.77Q345.74 69.76 348.41 69.69L348.41 69.69Q349.78 69.69 350.64 70.52Q351.50 71.34 351.50 72.57L351.50 72.57Q351.50 73 351.22 73.86L351.22 73.86L346.82 85.17Q346.75 85.24 346.75 85.46L346.75 85.46Q346.75 85.74 347.11 85.74L347.11 85.74Q347.54 85.74 347.69 85.38L347.69 85.38Q352.01 77.97 356.29 73.83Q360.58 69.69 364.25 69.69L364.25 69.69Q366.34 69.69 367.56 71.16Q368.78 72.64 368.78 74.87L368.78 74.87Q368.78 76.60 368.06 78.33L368.06 78.33L361.87 92.94Q361.37 93.95 361.37 94.60L361.37 94.60Q361.37 95.39 362.16 95.39L362.16 95.39Q363.38 95.39 365.90 93.66Q368.42 91.94 369.43 90.93L369.43 90.93Q369.86 90.50 370.08 90.50L370.08 90.50Q370.30 90.50 370.51 90.71Q370.73 90.93 370.73 91.22L370.73 91.22Q370.73 92.01 370.22 92.80L370.22 92.80Q367.13 96.47 363.42 98.74Q359.71 101.01 356.33 101.01L356.33 101.01Q355.32 101.01 354.42 100.18Q353.52 99.35 353.52 98.34L353.52 98.34Q353.52 97.84 353.66 97.62L353.66 97.62L356.26 91.94Q360.72 81.78 362.30 77.75L362.30 77.75Q362.95 76.17 362.95 74.87L362.95 74.87Q362.95 73.43 361.73 73.29L361.73 73.29Q359.50 73.29 354.60 79.62L354.60 79.62Q353.02 81.64 349.45 87.26Q345.89 92.87 342.94 98.06L342.94 98.06Q342.07 99.57 341.35 100.32Q340.63 101.08 339.84 101.08L339.84 101.08ZM412.85 52.26L400.68 92.08Q400.39 93.38 400.39 93.88L400.39 93.88Q400.39 95.18 401.26 95.18L401.26 95.18Q402.41 95.18 404.46 93.74Q406.51 92.30 408.02 90.35L408.02 90.35Q408.31 90.06 408.53 90.06L408.53 90.06Q409.25 90.06 409.10 90.78L409.10 90.78Q409.10 92.22 406.87 94.71Q404.64 97.19 401.76 99.10Q398.88 101.01 397.15 101.01L397.15 101.01Q395.78 101.01 394.60 99.86Q393.41 98.70 393.41 97.48L393.41 97.48Q393.41 97.05 393.70 95.68L393.70 95.68L395.57 89.70Q395.57 89.34 395.35 89.24Q395.14 89.13 394.99 89.42L394.99 89.42Q390.02 95.61 386.28 98.31Q382.54 101.01 378.94 101.01L378.94 101.01Q376.63 101.01 375.23 99.50Q373.82 97.98 373.82 95.54L373.82 95.54Q373.82 91.58 376.31 86.28Q378.79 80.99 382.68 76.46L382.68 76.46Q385.63 73.07 388.55 71.24Q391.46 69.40 393.91 69.40L393.91 69.40Q395.06 69.40 395.86 69.80Q396.65 70.19 398.74 71.49L398.74 71.49L400.25 72.42Q400.39 72.42 400.50 72.24Q400.61 72.06 400.68 71.85L400.68 71.85L405.00 57.52Q405.50 55.72 405.50 55.50L405.50 55.50Q405.50 54.64 405.00 54.03Q404.50 53.42 403.20 52.98L403.20 52.98Q401.83 52.48 401.54 52.34Q401.26 52.19 401.26 51.90L401.26 51.90Q401.26 51.40 401.80 51.11Q402.34 50.82 403.63 50.54L403.63 50.54Q406.01 50.03 408.74 49.60Q411.48 49.17 412.13 49.17L412.13 49.17Q413.28 49.17 413.28 50.18L413.28 50.18Q413.28 51.11 412.85 52.26L412.85 52.26ZM382.82 96.33Q385.63 96.33 389.45 92.91Q393.26 89.49 396.00 84.74Q398.74 79.98 398.74 76.46L398.74 76.46Q398.74 74.37 397.84 73.25Q396.94 72.14 395.35 72.14L395.35 72.14Q392.90 72.14 389.34 75.99Q385.78 79.84 383.11 85.02Q380.45 90.21 380.45 93.74L380.45 93.74Q380.45 95.18 380.99 95.75Q381.53 96.33 382.82 96.33L382.82 96.33ZM395.57 89.85L395.50 89.99L395.57 89.85ZM433.44 101.15Q432.72 101.15 431.93 100.25Q431.14 99.35 431.14 98.34L431.14 98.34Q431.14 97.62 432.43 94.24L432.43 94.24L439.42 76.60Q439.56 76.02 439.56 75.81L439.56 75.81Q439.56 75.23 439.24 74.91Q438.91 74.58 438.34 74.58L438.34 74.58Q437.11 74.58 435.82 75.20Q434.52 75.81 432.94 77.68L432.94 77.68Q432.72 77.97 432.36 77.97L432.36 77.97Q431.78 77.97 431.78 77.32L431.78 77.32Q431.78 76.60 432.36 75.34Q432.94 74.08 433.58 73.43L433.58 73.43Q435.17 71.70 437.00 70.73Q438.84 69.76 441.43 69.69L441.43 69.69Q443.02 69.69 444.10 70.52Q445.18 71.34 445.18 72.78L445.18 72.78Q445.18 73.72 444.82 74.51L444.82 74.51L440.71 84.81L440.64 85.10Q440.64 85.38 440.93 85.38L440.93 85.38Q441.29 85.38 441.43 85.02L441.43 85.02Q446.18 77.54 450.11 73.61Q454.03 69.69 457.70 69.69L457.70 69.69Q459.72 69.69 460.94 71.02Q462.17 72.35 462.17 74.51L462.17 74.51Q462.17 76.02 461.38 78.04L461.38 78.04L459.36 83.73L459.29 84.02Q459.29 84.30 459.65 84.30L459.65 84.30Q459.94 84.30 460.15 84.02L460.15 84.02Q469.01 69.69 476.21 69.69L476.21 69.69Q478.15 69.69 479.27 70.95Q480.38 72.21 480.38 74.30L480.38 74.30Q480.38 76.31 479.45 78.47L479.45 78.47L473.69 92.94Q473.26 94.02 473.26 94.60L473.26 94.60Q473.26 95.39 474.05 95.39L474.05 95.39Q475.27 95.39 477.47 93.59Q479.66 91.79 481.18 90.28L481.18 90.28Q481.61 89.85 481.82 89.85L481.82 89.85Q482.04 89.85 482.26 90.06Q482.47 90.28 482.47 90.57L482.47 90.57Q482.47 91.86 481.18 93.23L481.18 93.23Q474.48 101.01 468.22 101.01L468.22 101.01Q467.35 101.01 466.42 100.18Q465.48 99.35 465.48 98.34L465.48 98.34Q465.48 98.13 465.62 97.70L465.62 97.70L474.48 76.10Q474.77 75.23 474.77 74.94L474.77 74.94Q474.77 74.15 474.30 73.72Q473.83 73.29 473.18 73.29L473.18 73.29Q472.03 73.29 470.34 74.66Q468.65 76.02 466.63 78.62L466.63 78.62Q464.83 80.92 461.70 85.82Q458.57 90.71 456.05 95.10L456.05 95.10Q454.46 97.91 452.81 99.53Q451.15 101.15 450.14 101.15L450.14 101.15Q449.42 101.15 448.74 100.36Q448.06 99.57 448.06 98.78L448.06 98.78Q448.06 97.84 449.42 94.17L449.42 94.17L456.48 75.88Q456.77 75.23 456.77 74.66L456.77 74.66Q456.77 73.94 456.34 73.54Q455.90 73.14 455.33 73.07L455.33 73.07Q454.18 73 452.38 74.44Q450.58 75.88 448.34 78.69L448.34 78.69Q446.62 80.99 443.63 85.82Q440.64 90.64 438.26 95.03L438.26 95.03Q436.39 98.49 435.38 99.82Q434.38 101.15 433.44 101.15L433.44 101.15ZM493.63 101.08Q491.98 101.08 490.21 99.89Q488.45 98.70 487.26 96.87Q486.07 95.03 486.07 93.16L486.07 93.16Q486.07 87.98 488.77 82.47Q491.47 76.96 495.86 73.32Q500.26 69.69 505.08 69.69L505.08 69.69Q508.10 69.69 509.72 70.91Q511.34 72.14 511.34 74.15L511.34 74.15Q511.34 78.33 506.74 80.67Q502.13 83.01 494.71 84.45L494.71 84.45Q494.28 84.52 494.10 84.63Q493.92 84.74 493.78 85.10L493.78 85.10Q492.70 88.62 492.62 90.42L492.62 90.42Q492.62 93.02 493.78 94.53Q494.93 96.04 497.09 96.04L497.09 96.04Q499.25 96.04 500.94 95.00Q502.63 93.95 504.29 92.22L504.29 92.22Q505.01 91.43 505.51 91.43L505.51 91.43Q506.23 91.43 506.23 92.15L506.23 92.15Q506.23 92.66 506.09 92.87L506.09 92.87Q501.26 101.08 493.63 101.08L493.63 101.08ZM495.22 82.43Q497.09 82.22 499.61 81.24Q502.13 80.27 504.11 78.47Q506.09 76.67 506.16 74.08L506.16 74.08Q506.16 73.14 505.66 72.46Q505.15 71.78 504.22 71.78L504.22 71.78Q502.49 71.78 500.29 73.61Q498.10 75.45 496.48 77.93Q494.86 80.42 494.71 82L494.71 82Q494.71 82.58 495.22 82.43L495.22 82.43ZM550.01 52.26L537.84 92.08Q537.55 93.38 537.55 93.88L537.55 93.88Q537.55 95.18 538.42 95.18L538.42 95.18Q539.57 95.18 541.62 93.74Q543.67 92.30 545.18 90.35L545.18 90.35Q545.47 90.06 545.69 90.06L545.69 90.06Q546.41 90.06 546.26 90.78L546.26 90.78Q546.26 92.22 544.03 94.71Q541.80 97.19 538.92 99.10Q536.04 101.01 534.31 101.01L534.31 101.01Q532.94 101.01 531.76 99.86Q530.57 98.70 530.57 97.48L530.57 97.48Q530.57 97.05 530.86 95.68L530.86 95.68L532.73 89.70Q532.73 89.34 532.51 89.24Q532.30 89.13 532.15 89.42L532.15 89.42Q527.18 95.61 523.44 98.31Q519.70 101.01 516.10 101.01L516.10 101.01Q513.79 101.01 512.39 99.50Q510.98 97.98 510.98 95.54L510.98 95.54Q510.98 91.58 513.47 86.28Q515.95 80.99 519.84 76.46L519.84 76.46Q522.79 73.07 525.71 71.24Q528.62 69.40 531.07 69.40L531.07 69.40Q532.22 69.40 533.02 69.80Q533.81 70.19 535.90 71.49L535.90 71.49L537.41 72.42Q537.55 72.42 537.66 72.24Q537.77 72.06 537.84 71.85L537.84 71.85L542.16 57.52Q542.66 55.72 542.66 55.50L542.66 55.50Q542.66 54.64 542.16 54.03Q541.66 53.42 540.36 52.98L540.36 52.98Q538.99 52.48 538.70 52.34Q538.42 52.19 538.42 51.90L538.42 51.90Q538.42 51.40 538.96 51.11Q539.50 50.82 540.79 50.54L540.79 50.54Q543.17 50.03 545.90 49.60Q548.64 49.17 549.29 49.17L549.29 49.17Q550.44 49.17 550.44 50.18L550.44 50.18Q550.44 51.11 550.01 52.26L550.01 52.26ZM519.98 96.33Q522.79 96.33 526.61 92.91Q530.42 89.49 533.16 84.74Q535.90 79.98 535.90 76.46L535.90 76.46Q535.90 74.37 535.00 73.25Q534.10 72.14 532.51 72.14L532.51 72.14Q530.06 72.14 526.50 75.99Q522.94 79.84 520.27 85.02Q517.61 90.21 517.61 93.74L517.61 93.74Q517.61 95.18 518.15 95.75Q518.69 96.33 519.98 96.33L519.98 96.33ZM532.73 89.85L532.66 89.99L532.73 89.85ZM554.47 101.01Q553.10 101.01 552.10 100.07Q551.09 99.14 551.09 98.06L551.09 98.06Q551.09 97.41 551.38 96.76L551.38 96.76Q553.61 92.08 555.52 87.33Q557.42 82.58 557.78 81.71L557.78 81.71Q558.72 79.05 559.51 77.25L559.51 77.25L559.58 76.96Q559.58 76.53 559.15 76.53L559.15 76.53Q558.50 76.53 556.88 77.32Q555.26 78.11 553.97 79.05L553.97 79.05Q553.54 79.26 553.25 79.26L553.25 79.26Q552.46 79.26 552.46 78.76L552.46 78.76Q552.46 77.97 554.29 76.28Q556.13 74.58 558.86 72.78Q561.60 70.98 564.19 69.83L564.19 69.83Q564.62 69.69 564.84 69.69L564.84 69.69Q565.92 69.69 566.78 70.70Q567.65 71.70 567.36 72.42L567.36 72.42L558.86 92.94Q558.43 93.88 558.43 94.67L558.43 94.67Q558.43 95.39 559.37 95.39L559.37 95.39Q561.38 95.39 567.07 89.70L567.07 89.70Q567.29 89.49 567.36 89.49L567.36 89.49Q567.65 89.49 567.83 89.67Q568.01 89.85 568.01 90.14L568.01 90.14Q568.01 91.72 565.56 94.35Q563.11 96.98 559.91 98.99Q556.70 101.01 554.47 101.01L554.47 101.01ZM568.51 63.28Q567.29 63.28 566.42 62.31Q565.56 61.34 565.56 60.04L565.56 60.04Q565.56 58.02 566.93 56.51Q568.30 55.00 570.31 55.00L570.31 55.00Q571.61 55.00 572.40 56.12Q573.19 57.23 573.19 58.60L573.19 58.60Q573.19 60.47 571.79 61.88Q570.38 63.28 568.51 63.28L568.51 63.28ZM577.37 101.01Q576.00 101.01 574.81 99.57Q573.62 98.13 573.62 96.76L573.62 96.76Q573.62 96.40 573.77 95.97L573.77 95.97L581.04 78.83Q581.62 77.54 581.62 76.82L581.62 76.82Q581.62 76.10 581.11 76.10L581.11 76.10Q580.54 76.10 578.95 77.28Q577.37 78.47 575.78 79.91L575.78 79.91Q575.42 80.27 574.99 80.27L574.99 80.27Q574.42 80.27 574.42 79.84L574.42 79.84Q574.42 78.90 575.42 77.46L575.42 77.46Q578.16 73.94 581.69 71.70Q585.22 69.47 587.52 69.47L587.52 69.47Q588.31 69.47 589.14 70.41Q589.97 71.34 589.97 72.28L589.97 72.28Q589.97 72.50 589.82 72.93L589.82 72.93Q586.80 79.48 584.57 84.59L584.57 84.59L581.33 91.79Q580.61 93.38 580.61 94.31L580.61 94.31Q580.61 95.25 581.26 95.25L581.26 95.25Q582.19 95.25 584.35 92.98Q586.51 90.71 590.40 86.10L590.40 86.10Q593.50 82.50 596.56 78.29Q599.62 74.08 600.77 71.99L600.77 71.99Q602.06 69.69 603.50 69.69L603.50 69.69Q604.66 69.69 605.48 70.88Q606.31 72.06 605.95 73L605.95 73L597.53 93.23Q597.10 94.17 597.10 94.89L597.10 94.89Q597.10 95.61 597.74 95.61L597.74 95.61Q598.82 95.61 601.34 93.77Q603.86 91.94 605.74 90.06L605.74 90.06Q605.88 89.92 605.95 89.92L605.95 89.92Q606.24 89.92 606.49 90.17Q606.74 90.42 606.74 90.71L606.74 90.71Q606.74 91.65 604.69 93.45Q602.64 95.25 600.91 95.97L600.91 95.97Q599.11 97.70 596.99 98.78Q594.86 99.86 592.85 99.86L592.85 99.86Q592.13 99.86 591.77 99.78L591.77 99.78Q591.19 99.64 590.76 98.99Q590.33 98.34 590.33 97.62L590.33 97.62Q590.33 97.34 590.47 96.90L590.47 96.90Q594.50 88.41 595.58 85.38L595.58 85.38Q595.66 85.17 595.66 84.88L595.66 84.88Q595.66 84.52 595.37 84.52L595.37 84.52Q595.08 84.52 594.72 84.88L594.72 84.88Q587.23 93.52 583.45 97.26Q579.67 101.01 577.37 101.01L577.37 101.01ZM615.17 101.15Q614.45 101.15 613.66 100.25Q612.86 99.35 612.86 98.34L612.86 98.34Q612.86 97.62 614.16 94.24L614.16 94.24L621.14 76.60Q621.29 76.02 621.29 75.81L621.29 75.81Q621.29 75.23 620.96 74.91Q620.64 74.58 620.06 74.58L620.06 74.58Q618.84 74.58 617.54 75.20Q616.25 75.81 614.66 77.68L614.66 77.68Q614.45 77.97 614.09 77.97L614.09 77.97Q613.51 77.97 613.51 77.32L613.51 77.32Q613.51 76.60 614.09 75.34Q614.66 74.08 615.31 73.43L615.31 73.43Q616.90 71.70 618.73 70.73Q620.57 69.76 623.16 69.69L623.16 69.69Q624.74 69.69 625.82 70.52Q626.90 71.34 626.90 72.78L626.90 72.78Q626.90 73.72 626.54 74.51L626.54 74.51L622.44 84.81L622.37 85.10Q622.37 85.38 622.66 85.38L622.66 85.38Q623.02 85.38 623.16 85.02L623.16 85.02Q627.91 77.54 631.84 73.61Q635.76 69.69 639.43 69.69L639.43 69.69Q641.45 69.69 642.67 71.02Q643.90 72.35 643.90 74.51L643.90 74.51Q643.90 76.02 643.10 78.04L643.10 78.04L641.09 83.73L641.02 84.02Q641.02 84.30 641.38 84.30L641.38 84.30Q641.66 84.30 641.88 84.02L641.88 84.02Q650.74 69.69 657.94 69.69L657.94 69.69Q659.88 69.69 661.00 70.95Q662.11 72.21 662.11 74.30L662.11 74.30Q662.11 76.31 661.18 78.47L661.18 78.47L655.42 92.94Q654.98 94.02 654.98 94.60L654.98 94.60Q654.98 95.39 655.78 95.39L655.78 95.39Q657.00 95.39 659.20 93.59Q661.39 91.79 662.90 90.28L662.90 90.28Q663.34 89.85 663.55 89.85L663.55 89.85Q663.77 89.85 663.98 90.06Q664.20 90.28 664.20 90.57L664.20 90.57Q664.20 91.86 662.90 93.23L662.90 93.23Q656.21 101.01 649.94 101.01L649.94 101.01Q649.08 101.01 648.14 100.18Q647.21 99.35 647.21 98.34L647.21 98.34Q647.21 98.13 647.35 97.70L647.35 97.70L656.21 76.10Q656.50 75.23 656.50 74.94L656.50 74.94Q656.50 74.15 656.03 73.72Q655.56 73.29 654.91 73.29L654.91 73.29Q653.76 73.29 652.07 74.66Q650.38 76.02 648.36 78.62L648.36 78.62Q646.56 80.92 643.43 85.82Q640.30 90.71 637.78 95.10L637.78 95.10Q636.19 97.91 634.54 99.53Q632.88 101.15 631.87 101.15L631.87 101.15Q631.15 101.15 630.47 100.36Q629.78 99.57 629.78 98.78L629.78 98.78Q629.78 97.84 631.15 94.17L631.15 94.17L638.21 75.88Q638.50 75.23 638.50 74.66L638.50 74.66Q638.50 73.94 638.06 73.54Q637.63 73.14 637.06 73.07L637.06 73.07Q635.90 73 634.10 74.44Q632.30 75.88 630.07 78.69L630.07 78.69Q628.34 80.99 625.36 85.82Q622.37 90.64 619.99 95.03L619.99 95.03Q618.12 98.49 617.11 99.82Q616.10 101.15 615.17 101.15L615.17 101.15ZM687.60 101.01Q686.23 101.01 685.22 100.07Q684.22 99.14 684.22 98.06L684.22 98.06Q684.22 97.41 684.50 96.76L684.50 96.76Q686.74 92.08 688.64 87.33Q690.55 82.58 690.91 81.71L690.91 81.71Q691.85 79.05 692.64 77.25L692.64 77.25L692.71 76.96Q692.71 76.53 692.28 76.53L692.28 76.53Q691.63 76.53 690.01 77.32Q688.39 78.11 687.10 79.05L687.10 79.05Q686.66 79.26 686.38 79.26L686.38 79.26Q685.58 79.26 685.58 78.76L685.58 78.76Q685.58 77.97 687.42 76.28Q689.26 74.58 691.99 72.78Q694.73 70.98 697.32 69.83L697.32 69.83Q697.75 69.69 697.97 69.69L697.97 69.69Q699.05 69.69 699.91 70.70Q700.78 71.70 700.49 72.42L700.49 72.42L691.99 92.94Q691.56 93.88 691.56 94.67L691.56 94.67Q691.56 95.39 692.50 95.39L692.50 95.39Q694.51 95.39 700.20 89.70L700.20 89.70Q700.42 89.49 700.49 89.49L700.49 89.49Q700.78 89.49 700.96 89.67Q701.14 89.85 701.14 90.14L701.14 90.14Q701.14 91.72 698.69 94.35Q696.24 96.98 693.04 98.99Q689.83 101.01 687.60 101.01L687.60 101.01ZM701.64 63.28Q700.42 63.28 699.55 62.31Q698.69 61.34 698.69 60.04L698.69 60.04Q698.69 58.02 700.06 56.51Q701.42 55.00 703.44 55.00L703.44 55.00Q704.74 55.00 705.53 56.12Q706.32 57.23 706.32 58.60L706.32 58.60Q706.32 60.47 704.92 61.88Q703.51 63.28 701.64 63.28L701.64 63.28ZM709.78 101.01Q708.70 101.01 707.51 99.86Q706.32 98.70 706.32 97.77L706.32 97.77Q706.32 96.90 706.57 96.00Q706.82 95.10 707.26 94.10L707.26 94.10L714.10 75.23Q714.17 75.02 714.17 74.73L714.17 74.73Q714.17 74.01 713.30 74.01L713.30 74.01L710.28 73.86Q708.77 73.79 708.77 72.71L708.77 72.71Q708.77 72.35 709.70 71.52Q710.64 70.70 711.58 70.70L711.58 70.70L714.53 70.70Q715.39 70.70 715.68 70.44Q715.97 70.19 716.47 69.26L716.47 69.26L718.27 65.51Q718.85 64.36 720.40 63.10Q721.94 61.84 722.74 61.84L722.74 61.84Q723.31 61.84 723.56 62.31Q723.82 62.78 723.82 63.42L723.82 63.42Q723.82 63.78 723.67 64.50L723.67 64.50L721.87 69.54Q721.80 69.76 721.80 70.05L721.80 70.05Q721.80 70.41 722.05 70.52Q722.30 70.62 722.81 70.62L722.81 70.62Q724.25 70.62 725.90 70.88Q727.56 71.13 727.92 71.20L727.92 71.20Q729.14 71.42 729.47 71.67Q729.79 71.92 729.79 72.42L729.79 72.42Q729.79 72.64 729.40 73Q729.00 73.36 728.21 73.43L728.21 73.43Q724.46 73.72 722.81 73.79L722.81 73.79Q721.58 73.86 721.04 74.12Q720.50 74.37 720.29 75.02L720.29 75.02L714.24 91.72Q713.88 92.58 713.88 93.52L713.88 93.52Q713.88 94.74 715.25 94.74L715.25 94.74Q717.19 94.74 721.87 90.28L721.87 90.28Q722.38 89.78 722.84 89.74Q723.31 89.70 723.31 90.06L723.31 90.06Q723.38 90.14 723.38 90.42L723.38 90.42Q723.38 91.07 722.74 92.08L722.74 92.08Q721.44 94.02 718.96 96.11Q716.47 98.20 713.92 99.60Q711.36 101.01 709.78 101.01L709.78 101.01ZM730.37 101.01Q729.00 101.01 727.74 99.93Q726.48 98.85 726.48 97.70L726.48 97.70Q726.48 94.10 729.97 88.80Q733.46 83.51 740.09 77.10L740.09 77.10Q747.58 70.05 750.02 70.05L750.02 70.05Q751.32 70.05 752.83 71.42L752.83 71.42L753.62 72.35Q753.91 72.35 754.06 71.85L754.06 71.85Q755.35 69.62 755.28 69.62L755.28 69.62Q755.57 68.90 756.43 68.90L756.43 68.90Q757.66 68.90 758.88 69.58Q760.10 70.26 760.10 70.98L760.10 70.98Q760.10 71.20 759.67 72.42L759.67 72.42L751.97 93.16Q751.75 93.81 751.75 94.31L751.75 94.31Q751.75 95.39 752.83 95.39L752.83 95.39Q753.98 95.39 755.78 94.13Q757.58 92.87 759.02 91.07L759.02 91.07Q759.38 90.71 759.60 90.71L759.60 90.71Q760.18 90.71 760.18 91.65L760.18 91.65Q760.18 92.37 759.06 93.95Q757.94 95.54 756.50 96.83L756.50 96.83Q754.27 98.85 752.04 99.93Q749.81 101.01 748.15 101.01L748.15 101.01Q746.78 101.01 745.60 99.96Q744.41 98.92 744.41 97.77L744.41 97.77Q744.41 97.05 744.84 96.11L744.84 96.11Q744.55 96.62 745.67 94.02Q746.78 91.43 747.86 89.13L747.86 89.13Q748.15 88.55 748.08 88.19Q748.01 87.83 747.65 88.26L747.65 88.26Q741.38 95.25 737.50 98.13Q733.61 101.01 730.37 101.01L730.37 101.01ZM735.70 95.39Q737.14 95.39 740.12 92.87Q743.11 90.35 746.64 86.10L746.64 86.10Q749.16 83.08 750.67 80.60Q752.18 78.11 752.18 76.89L752.18 76.89Q752.18 76.31 751.10 75.38L751.10 75.38Q749.74 74.44 749.02 74.44L749.02 74.44Q747.79 74.44 745.60 75.74Q743.40 77.03 741.67 78.76L741.67 78.76Q738.50 81.93 736.06 86.14Q733.61 90.35 733.61 92.87L733.61 92.87Q733.61 94.02 734.18 94.71Q734.76 95.39 735.70 95.39L735.70 95.39ZM766.94 101.01Q765.72 101.01 764.57 99.89Q763.42 98.78 763.42 97.55L763.42 97.55Q763.42 96.90 763.63 96.47L763.63 96.47L776.74 58.53Q777.31 56.80 777.31 55.94L777.31 55.94Q777.31 55.07 776.88 54.35L776.88 54.35Q776.16 53.20 774.79 52.55L774.79 52.55Q773.64 51.98 774.07 51.54L774.07 51.54Q775.01 51.11 776.27 50.72Q777.53 50.32 777.89 50.25L777.89 50.25Q779.76 49.82 782.03 49.42Q784.30 49.02 784.94 49.02L784.94 49.02Q785.30 49.02 785.56 49.38Q785.81 49.74 785.81 50.25L785.81 50.25Q785.74 50.97 785.16 52.62L785.16 52.62L771.12 92.73Q770.83 93.59 770.83 94.46L770.83 94.46Q770.83 95.54 771.62 95.54L771.62 95.54Q772.78 95.54 774.90 93.63Q777.02 91.72 778.68 89.63L778.68 89.63Q779.62 88.41 780.12 88.41L780.12 88.41Q780.48 88.41 780.55 88.66Q780.62 88.91 780.62 89.42L780.62 89.42Q780.62 91.50 778.14 94.28Q775.66 97.05 772.34 99.03Q769.03 101.01 766.94 101.01L766.94 101.01ZM789.12 101.01Q787.75 101.01 786.74 100.07Q785.74 99.14 785.74 98.06L785.74 98.06Q785.74 97.41 786.02 96.76L786.02 96.76Q788.26 92.08 790.16 87.33Q792.07 82.58 792.43 81.71L792.43 81.71Q793.37 79.05 794.16 77.25L794.16 77.25L794.23 76.96Q794.23 76.53 793.80 76.53L793.80 76.53Q793.15 76.53 791.53 77.32Q789.91 78.11 788.62 79.05L788.62 79.05Q788.18 79.26 787.90 79.26L787.90 79.26Q787.10 79.26 787.10 78.76L787.10 78.76Q787.10 77.97 788.94 76.28Q790.78 74.58 793.51 72.78Q796.25 70.98 798.84 69.83L798.84 69.83Q799.27 69.69 799.49 69.69L799.49 69.69Q800.57 69.69 801.43 70.70Q802.30 71.70 802.01 72.42L802.01 72.42L793.51 92.94Q793.08 93.88 793.08 94.67L793.08 94.67Q793.08 95.39 794.02 95.39L794.02 95.39Q796.03 95.39 801.72 89.70L801.72 89.70Q801.94 89.49 802.01 89.49L802.01 89.49Q802.30 89.49 802.48 89.67Q802.66 89.85 802.66 90.14L802.66 90.14Q802.66 91.72 800.21 94.35Q797.76 96.98 794.56 98.99Q791.35 101.01 789.12 101.01L789.12 101.01ZM803.16 63.28Q801.94 63.28 801.07 62.31Q800.21 61.34 800.21 60.04L800.21 60.04Q800.21 58.02 801.58 56.51Q802.94 55.00 804.96 55.00L804.96 55.00Q806.26 55.00 807.05 56.12Q807.84 57.23 807.84 58.60L807.84 58.60Q807.84 60.47 806.44 61.88Q805.03 63.28 803.16 63.28L803.16 63.28ZM813.24 101.08Q811.51 101.08 809.82 100Q808.13 98.92 807.05 97.08Q805.97 95.25 805.97 93.02L805.97 93.02Q805.97 87.90 808.34 82.43Q810.72 76.96 815.08 73.32Q819.43 69.69 824.98 69.69L824.98 69.69Q827.14 69.69 828.43 70.55Q829.73 71.42 829.73 72.71L829.73 72.71Q829.73 74.01 828.94 75.23Q828.14 76.46 827.28 76.46L827.28 76.46Q826.70 76.46 826.38 76.06Q826.06 75.66 825.41 74.51L825.41 74.51Q823.97 72.06 822.31 72.06L822.31 72.06Q820.15 72.06 817.85 75.16Q815.54 78.26 813.96 82.72Q812.38 87.18 812.38 91L812.38 91Q812.38 95.68 816.41 95.68L816.41 95.68Q818.42 95.68 819.86 94.89Q821.30 94.10 822.89 92.44L822.89 92.44Q823.68 91.58 824.26 91.58L824.26 91.58Q824.90 91.58 824.90 92.44L824.90 92.44Q824.90 93.81 823.14 95.90Q821.38 97.98 818.68 99.53Q815.98 101.08 813.24 101.08L813.24 101.08Z"/></svg>