<svg xmlns="http://www.w3.org/2000/svg" viewBox="0.37 -7.04 54.800000000000004 7.23"><path d="M0.66 0.05Q0.37 0.05 0.37-0.06L0.37-0.06Q0.37-0.13 0.45-0.17Q0.53-0.21 0.70-0.24L0.70-0.24Q1.09-0.31 1.27-0.48Q1.44-0.64 1.44-0.99L1.44-0.99L1.44-5.49Q1.44-5.84 1.29-6.00Q1.15-6.15 0.77-6.22L0.77-6.22Q0.44-6.28 0.44-6.42L0.44-6.42Q0.44-6.53 0.73-6.53L0.73-6.53Q1.11-6.53 1.65-6.51L1.65-6.51L2.50-6.50L3.87-6.51L4.72-6.53Q4.89-6.53 4.90-6.44L4.90-6.44Q4.92-6.36 4.99-6Q5.05-5.64 5.05-5.41L5.05-5.41Q5.05-5.26 4.91-5.26L4.91-5.26Q4.86-5.26 4.84-5.28Q4.82-5.30 4.80-5.36L4.80-5.36Q4.78-5.41 4.72-5.62Q4.66-5.83 4.58-5.91L4.58-5.91Q4.34-6.18 3.91-6.18L3.91-6.18L2.60-6.18Q2.50-6.18 2.37-6.08Q2.24-5.99 2.24-5.86L2.24-5.86L2.24-3.74Q2.24-3.65 2.29-3.58Q2.35-3.52 2.42-3.52L2.42-3.52L3.41-3.52Q3.69-3.52 3.80-3.62Q3.91-3.72 3.99-4.01L3.99-4.01Q4.05-4.23 4.17-4.23L4.17-4.23Q4.21-4.23 4.25-4.19Q4.30-4.14 4.30-4.07L4.30-4.07L4.29-3.81L4.27-3.37L4.28-2.84L4.29-2.60Q4.29-2.43 4.20-2.43L4.20-2.43Q4.05-2.43 3.97-2.75L3.97-2.75Q3.91-2.99 3.81-3.10Q3.70-3.20 3.51-3.20L3.51-3.20L2.58-3.20Q2.39-3.20 2.31-3.15Q2.24-3.10 2.24-2.94L2.24-2.94L2.24-1.02Q2.24-0.65 2.40-0.50Q2.55-0.35 2.90-0.35L2.90-0.35L3.64-0.35Q3.97-0.35 4.19-0.39Q4.40-0.43 4.55-0.52L4.55-0.52Q4.70-0.62 4.83-0.80Q4.95-0.97 5.12-1.29L5.12-1.29Q5.19-1.42 5.26-1.42L5.26-1.42Q5.39-1.42 5.39-1.28L5.39-1.28Q5.39-1.15 5.28-0.73Q5.17-0.32 5.08-0.12L5.08-0.12Q5.07-0.10 5.05-0.05Q5.03 0 5.00 0.03Q4.98 0.05 4.94 0.05L4.94 0.05Q4.74 0.05 3.18 0.02L3.18 0.02Q2.49-0.01 1.81-0.01L1.81-0.01Q1.53-0.01 1.29 0.02L1.29 0.02Q0.78 0.05 0.66 0.05L0.66 0.05ZM6.12 0.05Q5.83 0.05 5.83-0.06L5.83-0.06Q5.83-0.13 5.91-0.17Q5.99-0.21 6.16-0.24L6.16-0.24Q6.56-0.31 6.75-0.48Q6.94-0.65 6.94-0.99L6.94-0.99L6.94-5.49Q6.94-5.85 6.79-6.02Q6.63-6.19 6.27-6.22L6.27-6.22Q6.11-6.23 6.02-6.29Q5.94-6.35 5.94-6.42L5.94-6.42Q5.94-6.53 6.23-6.53L6.23-6.53Q6.68-6.53 6.83-6.52L6.83-6.52L7.27-6.52Q7.42-6.52 7.70-6.54L7.70-6.54Q8.21-6.57 8.38-6.57L8.38-6.57Q9.58-6.57 10.14-6.23Q10.70-5.88 10.70-5.08L10.70-5.08Q10.70-4.77 10.59-4.51Q10.49-4.25 10.36-4.12L10.36-4.12Q10.20-3.96 10.06-3.88Q9.93-3.79 9.69-3.69L9.69-3.69Q9.65-3.67 9.65-3.64Q9.65-3.60 9.69-3.59L9.69-3.59Q10.11-3.45 10.39-3.29Q10.68-3.13 10.89-2.81Q11.11-2.48 11.11-1.94L11.11-1.94Q11.11-1.43 10.95-1.10Q10.79-0.78 10.57-0.61Q10.36-0.45 10.07-0.30L10.07-0.30Q9.39 0.04 8.37 0.04L8.37 0.04L8.07 0.03Q7.80 0 7.42 0L7.42 0Q7.17 0 6.81 0.02L6.81 0.02Q6.53 0.05 6.12 0.05L6.12 0.05ZM8.18-3.71Q8.87-3.71 9.39-4L9.39-4Q9.55-4.09 9.70-4.33Q9.84-4.57 9.84-4.95L9.84-4.95Q9.84-5.49 9.53-5.88Q9.21-6.27 8.38-6.27L8.38-6.27Q7.99-6.27 7.85-6.17Q7.72-6.06 7.72-5.82L7.72-5.82L7.72-4.08Q7.72-3.71 8.18-3.71L8.18-3.71ZM8.51-0.37Q8.95-0.37 9.33-0.57Q9.71-0.77 9.94-1.12Q10.17-1.47 10.17-1.89L10.17-1.89Q10.17-2.40 9.95-2.71Q9.72-3.02 9.43-3.18L9.43-3.18Q8.98-3.43 8.29-3.43L8.29-3.43Q8-3.43 7.86-3.31Q7.72-3.20 7.72-3.07L7.72-3.07L7.72-1.08Q7.72-0.68 7.91-0.53Q8.10-0.37 8.51-0.37L8.51-0.37ZM17.43 0.14Q16.51 0.14 15.71-0.29Q14.91-0.72 14.44-1.47Q13.96-2.21 13.96-3.11L13.96-3.11Q13.96-4.08 14.46-4.88Q14.96-5.69 15.81-6.16Q16.66-6.63 17.64-6.63L17.64-6.63Q17.99-6.63 18.71-6.52Q19.44-6.40 19.64-6.30L19.64-6.30Q19.69-6.28 19.70-6.25Q19.72-6.23 19.73-6.18L19.73-6.18Q19.83-5.40 19.83-5.12L19.83-5.12Q19.83-5.04 19.79-4.98Q19.74-4.92 19.68-4.92L19.68-4.92Q19.59-4.92 19.54-4.99Q19.49-5.06 19.45-5.19L19.45-5.19Q19.34-5.49 19.14-5.72L19.14-5.72Q19-5.90 18.59-6.08Q18.17-6.25 17.55-6.25L17.55-6.25Q16.80-6.25 16.20-5.83Q15.61-5.42 15.28-4.73Q14.95-4.03 14.95-3.24L14.95-3.24Q14.95-2.33 15.32-1.65Q15.69-0.96 16.29-0.59Q16.89-0.23 17.57-0.23L17.57-0.23Q18.07-0.23 18.36-0.35Q18.65-0.46 18.79-0.60L18.79-0.60Q18.92-0.73 19.00-0.93Q19.09-1.13 19.09-1.37L19.09-1.37Q19.09-1.55 19.10-1.65L19.10-1.65L19.11-1.95Q19.11-2.19 19.06-2.25L19.06-2.25Q18.95-2.40 18.62-2.48Q18.29-2.56 18.08-2.56L18.08-2.56Q18.03-2.56 17.95-2.61Q17.88-2.66 17.88-2.73L17.88-2.73Q17.88-2.80 17.95-2.85Q18.03-2.90 18.08-2.90L18.08-2.90Q18.31-2.90 18.67-2.88L18.67-2.88Q19.05-2.86 19.34-2.86L19.34-2.86Q19.52-2.86 19.78-2.88L19.78-2.88Q20.04-2.90 20.23-2.90L20.23-2.90Q20.29-2.90 20.37-2.86Q20.44-2.82 20.44-2.74L20.44-2.74Q20.44-2.68 20.36-2.63Q20.28-2.57 20.23-2.56L20.23-2.56Q20.02-2.50 19.93-2.39Q19.84-2.28 19.81-2.07L19.81-2.07Q19.76-1.71 19.76-1.32L19.76-1.32L19.76-1.05Q19.76-1 19.79-0.96Q19.81-0.91 19.82-0.89L19.82-0.89Q19.84-0.86 19.89-0.81Q19.95-0.75 19.95-0.72L19.95-0.72Q19.95-0.55 19.81-0.53L19.81-0.53Q19.74-0.52 19.54-0.41L19.54-0.41Q19.05-0.18 18.55-0.02Q18.05 0.14 17.43 0.14L17.43 0.14ZM21.97 0.14Q21.80 0.14 21.61 0.01Q21.42-0.13 21.30-0.34Q21.17-0.54 21.17-0.72L21.17-0.72Q21.17-1.03 21.34-1.21Q21.50-1.39 21.88-1.55L21.88-1.55L22.90-1.97Q23.09-2.05 23.13-2.11Q23.17-2.17 23.18-2.37L23.18-2.37L23.20-3.01Q23.21-3.28 23.05-3.46Q22.89-3.65 22.61-3.65L22.61-3.65Q22.46-3.65 22.31-3.60Q22.16-3.55 22.06-3.47L22.06-3.47Q21.96-3.40 21.96-3.18L21.96-3.18L21.97-3Q21.97-2.92 21.71-2.79Q21.46-2.65 21.31-2.65L21.31-2.65Q21.26-2.65 21.23-2.68Q21.20-2.70 21.20-2.74L21.20-2.74Q21.20-2.90 21.30-3.08Q21.41-3.27 21.60-3.43L21.60-3.43Q21.94-3.74 22.37-3.94Q22.79-4.14 23.09-4.14L23.09-4.14Q23.45-4.14 23.69-3.89Q23.92-3.63 23.91-3.25L23.91-3.25L23.86-0.85Q23.85-0.64 23.95-0.51Q24.05-0.38 24.22-0.38L24.22-0.38Q24.47-0.38 24.59-0.49L24.59-0.49Q24.64-0.54 24.67-0.54L24.67-0.54Q24.72-0.54 24.75-0.51Q24.78-0.48 24.78-0.43L24.78-0.43Q24.78-0.39 24.75-0.33Q24.72-0.26 24.67-0.21L24.67-0.21Q24.51-0.05 24.32 0.04Q24.14 0.14 23.98 0.14L23.98 0.14Q23.52 0.14 23.25-0.38L23.25-0.38L23.22-0.38Q22.89-0.11 22.59 0.01Q22.29 0.14 21.97 0.14L21.97 0.14ZM22.44-0.34Q22.79-0.34 23.03-0.58L23.03-0.58Q23.09-0.64 23.12-0.73Q23.15-0.82 23.16-0.99L23.16-0.99L23.18-1.48L23.18-1.54Q23.18-1.62 23.16-1.66Q23.14-1.69 23.09-1.69L23.09-1.69Q23.03-1.69 22.89-1.64L22.89-1.64Q22.39-1.46 22.17-1.26Q21.95-1.06 21.95-0.87L21.95-0.87Q21.95-0.62 22.09-0.48Q22.24-0.34 22.44-0.34L22.44-0.34ZM25.28 0.03Q25.08 0.03 25.08-0.08L25.08-0.08Q25.08-0.15 25.13-0.18Q25.18-0.20 25.31-0.24L25.31-0.24Q25.69-0.33 25.69-0.62L25.69-0.62L25.69-2.77Q25.69-3.07 25.60-3.25Q25.51-3.44 25.28-3.49L25.28-3.49Q25.24-3.50 25.21-3.54Q25.18-3.58 25.18-3.62L25.18-3.62Q25.18-3.66 25.21-3.70Q25.24-3.73 25.27-3.74L25.27-3.74Q25.67-3.87 26.26-4.23L26.26-4.23Q26.37-4.30 26.41-4.30L26.41-4.30Q26.46-4.30 26.46-4.23L26.46-4.23Q26.46-3.96 26.43-3.48L26.43-3.48Q26.43-3.46 26.45-3.46L26.45-3.46Q26.70-3.76 27.01-3.95Q27.32-4.14 27.60-4.14L27.60-4.14Q27.81-4.14 27.95-4.05Q28.08-3.96 28.08-3.82L28.08-3.82Q28.08-3.66 27.95-3.48Q27.83-3.30 27.69-3.30L27.69-3.30Q27.59-3.30 27.41-3.39L27.41-3.39Q27.38-3.40 27.27-3.44Q27.17-3.48 27.09-3.48L27.09-3.48Q26.80-3.48 26.60-3.29Q26.40-3.10 26.40-2.64L26.40-2.64L26.40-0.62Q26.40-0.49 26.53-0.41Q26.66-0.32 26.93-0.24L26.93-0.24Q27.05-0.20 27.11-0.17Q27.16-0.14 27.16-0.08L27.16-0.08Q27.16 0.03 26.96 0.03L26.96 0.03Q26.69 0.03 26.49 0L26.49 0Q26.25-0.02 26.09-0.02L26.09-0.02Q25.93-0.02 25.71 0L25.71 0Q25.55 0.03 25.28 0.03L25.28 0.03ZM29.30 0.14Q29.13 0.14 28.94 0.01Q28.75-0.13 28.63-0.34Q28.50-0.54 28.50-0.72L28.50-0.72Q28.50-1.03 28.66-1.21Q28.83-1.39 29.21-1.55L29.21-1.55L30.23-1.97Q30.42-2.05 30.46-2.11Q30.50-2.17 30.51-2.37L30.51-2.37L30.53-3.01Q30.54-3.28 30.38-3.46Q30.22-3.65 29.94-3.65L29.94-3.65Q29.79-3.65 29.64-3.60Q29.49-3.55 29.39-3.47L29.39-3.47Q29.29-3.40 29.29-3.18L29.29-3.18L29.30-3Q29.30-2.92 29.04-2.79Q28.79-2.65 28.64-2.65L28.64-2.65Q28.59-2.65 28.56-2.68Q28.53-2.70 28.53-2.74L28.53-2.74Q28.53-2.90 28.63-3.08Q28.74-3.27 28.93-3.43L28.93-3.43Q29.27-3.74 29.70-3.94Q30.12-4.14 30.42-4.14L30.42-4.14Q30.78-4.14 31.02-3.89Q31.25-3.63 31.24-3.25L31.24-3.25L31.19-0.85Q31.18-0.64 31.28-0.51Q31.38-0.38 31.55-0.38L31.55-0.38Q31.80-0.38 31.92-0.49L31.92-0.49Q31.97-0.54 32-0.54L32-0.54Q32.05-0.54 32.08-0.51Q32.11-0.48 32.11-0.43L32.11-0.43Q32.11-0.39 32.08-0.33Q32.05-0.26 32-0.21L32-0.21Q31.84-0.05 31.65 0.04Q31.47 0.14 31.31 0.14L31.31 0.14Q30.85 0.14 30.58-0.38L30.58-0.38L30.55-0.38Q30.22-0.11 29.92 0.01Q29.62 0.14 29.30 0.14L29.30 0.14ZM29.77-0.34Q30.12-0.34 30.36-0.58L30.36-0.58Q30.42-0.64 30.45-0.73Q30.48-0.82 30.49-0.99L30.49-0.99L30.51-1.48L30.51-1.54Q30.51-1.62 30.49-1.66Q30.47-1.69 30.42-1.69L30.42-1.69Q30.36-1.69 30.22-1.64L30.22-1.64Q29.72-1.46 29.50-1.26Q29.28-1.06 29.28-0.87L29.28-0.87Q29.28-0.62 29.42-0.48Q29.57-0.34 29.77-0.34L29.77-0.34ZM32.56 0.03Q32.36 0.03 32.36-0.08L32.36-0.08Q32.36-0.14 32.41-0.17Q32.47-0.20 32.59-0.24L32.59-0.24Q32.81-0.31 32.91-0.38Q33.02-0.44 33.02-0.62L33.02-0.62L33.02-2.77Q33.02-3.09 32.95-3.27Q32.87-3.45 32.64-3.49L32.64-3.49Q32.55-3.51 32.55-3.62L32.55-3.62Q32.55-3.72 32.63-3.74L32.63-3.74Q32.90-3.81 33.06-3.89Q33.22-3.96 33.43-4.11L33.43-4.11L33.65-4.26Q33.66-4.26 33.68-4.28Q33.71-4.30 33.74-4.30L33.74-4.30Q33.76-4.30 33.78-4.28Q33.80-4.26 33.80-4.23L33.80-4.23L33.78-4.02Q33.77-3.94 33.76-3.83Q33.75-3.71 33.75-3.59L33.75-3.59Q33.75-3.49 33.77-3.47L33.77-3.47L33.79-3.47Q34.48-4.14 35.35-4.14L35.35-4.14Q35.72-4.14 35.96-3.98Q36.20-3.82 36.35-3.45L36.35-3.45L36.38-3.45Q37.16-4.14 38.01-4.14L38.01-4.14Q38.47-4.14 38.74-3.73Q39.01-3.31 39.01-2.75L39.01-2.75L39.01-0.62Q39.01-0.44 39.11-0.38Q39.22-0.31 39.44-0.24L39.44-0.24Q39.56-0.20 39.61-0.17Q39.67-0.14 39.67-0.08L39.67-0.08Q39.67-0.02 39.63 0.01Q39.58 0.03 39.47 0.03L39.47 0.03Q39.20 0.03 39.05 0L39.05 0Q38.85-0.02 38.68-0.02L38.68-0.02Q38.50-0.02 38.30 0L38.30 0Q38.12 0.03 37.85 0.03L37.85 0.03Q37.65 0.03 37.65-0.08L37.65-0.08Q37.65-0.15 37.70-0.18Q37.76-0.21 37.88-0.24L37.88-0.24Q38.09-0.29 38.20-0.36Q38.31-0.44 38.31-0.62L38.31-0.62L38.31-2.72Q38.31-3.09 38.07-3.38Q37.83-3.67 37.51-3.67L37.51-3.67Q36.98-3.67 36.64-3.40L36.64-3.40Q36.36-3.18 36.36-2.68L36.36-2.68L36.36-0.62Q36.36-0.44 36.48-0.36Q36.60-0.29 36.81-0.24L36.81-0.24Q37.04-0.19 37.04-0.08L37.04-0.08Q37.04 0.03 36.84 0.03L36.84 0.03Q36.57 0.03 36.40 0L36.40 0Q36.18-0.02 36.02-0.02L36.02-0.02Q35.84-0.02 35.64 0L35.64 0Q35.46 0.03 35.19 0.03L35.19 0.03Q34.99 0.03 34.99-0.08L34.99-0.08Q34.99-0.14 35.03-0.17Q35.08-0.19 35.13-0.21Q35.19-0.23 35.22-0.24L35.22-0.24Q35.45-0.31 35.55-0.38Q35.66-0.44 35.66-0.62L35.66-0.62L35.66-2.72Q35.66-3.09 35.42-3.38Q35.18-3.67 34.86-3.67L34.86-3.67Q34.33-3.67 33.99-3.40L33.99-3.40Q33.72-3.20 33.72-2.68L33.72-2.68L33.72-0.62Q33.72-0.44 33.82-0.38Q33.93-0.31 34.15-0.24L34.15-0.24Q34.18-0.23 34.24-0.21Q34.31-0.19 34.34-0.16Q34.38-0.13 34.38-0.08L34.38-0.08Q34.38 0.03 34.18 0.03L34.18 0.03Q33.92 0.03 33.75 0L33.75 0Q33.53-0.02 33.37-0.02L33.37-0.02Q33.21-0.02 32.99 0L32.99 0Q32.83 0.03 32.56 0.03L32.56 0.03ZM42.24 0.14Q41.69 0.14 41.23-0.12Q40.78-0.38 40.52-0.84Q40.25-1.30 40.25-1.87L40.25-1.87Q40.25-2.42 40.55-2.95Q40.84-3.48 41.34-3.81Q41.85-4.14 42.44-4.14L42.44-4.14Q43.01-4.14 43.48-3.87Q43.95-3.59 44.23-3.13Q44.50-2.66 44.50-2.13L44.50-2.13Q44.50-1.53 44.24-1.01Q43.98-0.49 43.47-0.18Q42.96 0.14 42.24 0.14L42.24 0.14ZM42.45-0.16Q43.20-0.16 43.48-0.71L43.48-0.71Q43.68-1.10 43.68-1.89L43.68-1.89Q43.68-2.37 43.50-2.82Q43.32-3.27 43-3.55Q42.68-3.83 42.27-3.83L42.27-3.83Q41.98-3.83 41.77-3.74Q41.56-3.65 41.39-3.43L41.39-3.43Q41.21-3.20 41.14-2.87Q41.07-2.53 41.07-2.10L41.07-2.10Q41.07-1.60 41.25-1.16Q41.43-0.71 41.74-0.43Q42.06-0.16 42.45-0.16L42.45-0.16ZM45.29 0.03Q45.09 0.03 45.09-0.08L45.09-0.08Q45.09-0.15 45.14-0.18Q45.19-0.20 45.32-0.24L45.32-0.24Q45.53-0.29 45.64-0.36Q45.75-0.44 45.75-0.62L45.75-0.62L45.75-2.77Q45.75-3.09 45.68-3.26Q45.61-3.43 45.38-3.49L45.38-3.49Q45.28-3.52 45.28-3.62L45.28-3.62Q45.28-3.73 45.37-3.74L45.37-3.74Q45.68-3.82 45.90-3.94Q46.11-4.06 46.37-4.25L46.37-4.25Q46.44-4.30 46.48-4.30L46.48-4.30Q46.53-4.30 46.53-4.23L46.53-4.23L46.51-4.02Q46.50-3.94 46.49-3.83Q46.48-3.71 46.48-3.59L46.48-3.59Q46.48-3.49 46.50-3.47L46.50-3.47Q46.86-3.81 47.25-3.98Q47.64-4.14 48.11-4.14L48.11-4.14Q48.59-4.14 48.91-3.74Q49.24-3.34 49.24-2.75L49.24-2.75L49.24-0.62Q49.24-0.44 49.34-0.38Q49.45-0.31 49.67-0.24L49.67-0.24Q49.79-0.20 49.84-0.17Q49.90-0.13 49.90-0.06L49.90-0.06Q49.90 0.03 49.70 0.03L49.70 0.03Q49.43 0.03 49.27 0L49.27 0Q49.07-0.02 48.90-0.02L48.90-0.02Q48.74-0.02 48.52 0L48.52 0Q48.36 0.03 48.08 0.03L48.08 0.03Q47.88 0.03 47.88-0.06L47.88-0.06Q47.88-0.13 47.94-0.17Q47.99-0.20 48.11-0.24L48.11-0.24Q48.33-0.31 48.44-0.38Q48.54-0.44 48.54-0.62L48.54-0.62L48.54-2.72Q48.54-3.15 48.30-3.40Q48.05-3.65 47.64-3.66L47.64-3.66Q47.02-3.66 46.53-3.26L46.53-3.26Q46.45-3.18 46.45-3.03L46.45-3.03L46.45-0.62Q46.45-0.44 46.56-0.36Q46.67-0.29 46.88-0.24L46.88-0.24Q47-0.21 47.05-0.18Q47.11-0.14 47.11-0.08L47.11-0.08Q47.11 0.03 46.91 0.03L46.91 0.03Q46.65 0.03 46.48 0L46.48 0Q46.26-0.02 46.10-0.02L46.10-0.02Q45.94-0.02 45.72 0L45.72 0Q45.56 0.03 45.29 0.03L45.29 0.03ZM53.70 0.19Q53.68 0.19 53.64 0.15Q53.59 0.11 53.59 0.09L53.59 0.09L53.61-0.17Q53.64-0.35 53.64-0.51L53.64-0.51L53.64-0.57Q53.46-0.29 53.12-0.07Q52.78 0.14 52.33 0.14L52.33 0.14Q51.78 0.14 51.36-0.15Q50.94-0.44 50.71-0.92Q50.48-1.39 50.48-1.90L50.48-1.90Q50.48-2.49 50.76-3.00Q51.03-3.52 51.54-3.83Q52.05-4.14 52.73-4.14L52.73-4.14Q52.92-4.14 53.12-4.11Q53.32-4.07 53.45-4.03L53.45-4.03Q53.54-4 53.58-4L53.58-4Q53.61-4 53.63-4.06Q53.65-4.12 53.65-4.24L53.65-4.24L53.65-5.66Q53.65-6.04 53.53-6.19Q53.41-6.34 53.15-6.39L53.15-6.39Q53.06-6.41 53.06-6.52L53.06-6.52Q53.06-6.61 53.14-6.64L53.14-6.64Q53.67-6.77 53.93-6.88Q54.19-7 54.22-7.01L54.22-7.01Q54.30-7.04 54.35-7.04L54.35-7.04Q54.41-7.04 54.42-6.98L54.42-6.98Q54.42-6.92 54.39-6.60Q54.35-6.28 54.35-5.62L54.35-5.62L54.35-1.10Q54.35-0.75 54.40-0.60Q54.45-0.45 54.56-0.45L54.56-0.45Q54.73-0.45 54.99-0.48L54.99-0.48L55.04-0.48Q55.17-0.48 55.17-0.39L55.17-0.39Q55.17-0.32 55.13-0.27Q55.08-0.21 55.03-0.21L55.03-0.21Q54.49-0.14 53.86 0.13L53.86 0.13Q53.75 0.19 53.70 0.19L53.70 0.19ZM52.69-0.38Q52.95-0.38 53.20-0.52Q53.45-0.65 53.64-0.87L53.64-0.87L53.65-2.67Q53.65-2.94 53.50-3.20Q53.34-3.46 53.05-3.63Q52.77-3.79 52.42-3.79L52.42-3.79Q52.15-3.79 51.87-3.64Q51.59-3.49 51.39-3.12Q51.19-2.75 51.19-2.13L51.19-2.13Q51.19-1.44 51.45-1.05Q51.71-0.66 52.05-0.52Q52.39-0.38 52.69-0.38L52.69-0.38Z"/></svg>