<svg xmlns="http://www.w3.org/2000/svg" viewBox="0.765 -8.08 87.79000000000003 8.175"><path d="M1.34-3.54L1.34-0.53L4.68-0.53L4.68 0L0.77 0L0.77-7.40L4.63-7.40L4.63-6.87L1.34-6.87L1.34-4.07L4.17-4.07L4.17-3.54L1.34-3.54ZM5.54 0L5.54-5.42L6.03-5.42L6.08-4.80L6.13-4.80Q6.40-5.13 6.77-5.32Q7.15-5.50 7.58-5.50L7.58-5.50Q9.02-5.50 9.02-3.83L9.02-3.83L9.02 0L8.44 0L8.44-3.80Q8.44-4.42 8.18-4.69Q7.93-4.96 7.46-4.96L7.46-4.96Q7.09-4.96 6.71-4.77Q6.34-4.58 6.12-4.17L6.12-4.17L6.12 0L5.54 0ZM12.05 0.10Q11.39 0.10 10.95-0.18Q10.51-0.46 10.28-1.08Q10.04-1.70 10.04-2.71L10.04-2.71Q10.04-3.72 10.30-4.33Q10.55-4.95 11.04-5.22Q11.54-5.50 12.28-5.50L12.28-5.50Q12.75-5.50 13.16-5.39L13.16-5.39L13.16-4.87Q12.74-4.98 12.35-4.98L12.35-4.98Q11.75-4.98 11.39-4.77Q11.02-4.57 10.84-4.08Q10.66-3.58 10.66-2.73L10.66-2.73Q10.66-1.86 10.82-1.36Q10.99-0.85 11.31-0.64Q11.64-0.43 12.16-0.43L12.16-0.43Q12.61-0.43 13.16-0.63L13.16-0.63L13.16-0.10Q12.61 0.10 12.05 0.10L12.05 0.10ZM15.54 0.10Q13.61 0.10 13.61-2.70L13.61-2.70Q13.61-4.17 14.11-4.83Q14.61-5.50 15.54-5.50L15.54-5.50Q17.48-5.50 17.48-2.71L17.48-2.71Q17.48-1.24 16.98-0.57Q16.48 0.10 15.54 0.10L15.54 0.10ZM15.54-0.40Q15.97-0.40 16.27-0.61Q16.56-0.82 16.72-1.32Q16.88-1.82 16.88-2.69L16.88-2.69Q16.88-3.56 16.71-4.08Q16.55-4.58 16.27-4.79Q15.97-5 15.54-5L15.54-5Q15.12-5 14.82-4.79Q14.53-4.58 14.37-4.08Q14.21-3.58 14.21-2.72L14.21-2.72Q14.21-1.84 14.37-1.33Q14.53-0.82 14.82-0.61Q15.12-0.40 15.54-0.40L15.54-0.40ZM20.12 0.10Q19.31 0.10 18.81-0.54Q18.30-1.17 18.30-2.60L18.30-2.60Q18.30-4.08 18.91-4.79Q19.51-5.50 20.70-5.50L20.70-5.50Q21.03-5.50 21.36-5.46L21.36-5.46L21.36-8.08L21.95-8.08L21.95 0L21.44 0L21.39-0.54L21.35-0.54Q21.16-0.26 20.84-0.08Q20.52 0.10 20.12 0.10L20.12 0.10ZM20.23-0.43Q20.57-0.43 20.88-0.61Q21.19-0.79 21.36-1.13L21.36-1.13L21.36-4.93Q21.23-4.96 21.03-4.98Q20.83-5.00 20.66-5.00L20.66-5.00Q19.79-5.00 19.34-4.45Q18.90-3.90 18.90-2.66L18.90-2.66Q18.90-1.79 19.07-1.30Q19.24-0.81 19.54-0.62Q19.82-0.43 20.23-0.43L20.23-0.43ZM26.63-2.71L26.63-2.50L23.62-2.50Q23.63-1.72 23.81-1.26Q23.99-0.81 24.34-0.61Q24.69-0.42 25.24-0.42L25.24-0.42Q25.71-0.42 26.38-0.62L26.38-0.62L26.38-0.10Q25.76 0.10 25.18 0.10L25.18 0.10Q24.45 0.10 23.97-0.18Q23.50-0.46 23.26-1.07Q23.02-1.69 23.02-2.71L23.02-2.71Q23.02-4.16 23.51-4.83Q24-5.50 24.87-5.50L24.87-5.50Q25.72-5.50 26.17-4.84Q26.63-4.18 26.63-2.71L26.63-2.71ZM24.87-5.03Q24.29-5.03 23.96-4.56Q23.64-4.09 23.62-2.94L23.62-2.94L26.04-2.94Q26.03-3.73 25.89-4.20Q25.74-4.66 25.49-4.84Q25.23-5.03 24.87-5.03L24.87-5.03ZM30.94 0.09Q30.59 0.09 30.20 0.02Q29.81-0.04 29.46-0.17L29.46-0.17L29.46-0.70Q30.24-0.43 30.96-0.43L30.96-0.43Q31.78-0.43 32.20-0.80Q32.62-1.17 32.62-1.90L32.62-1.90Q32.62-2.31 32.48-2.59Q32.35-2.87 32.06-3.06Q31.77-3.27 31.27-3.44L31.27-3.44L30.96-3.54Q30.17-3.82 29.77-4.30Q29.36-4.78 29.36-5.53L29.36-5.53Q29.36-6.14 29.63-6.58Q29.88-7.02 30.39-7.25Q30.90-7.49 31.64-7.49L31.64-7.49Q31.98-7.49 32.33-7.44Q32.68-7.40 32.94-7.31L32.94-7.31L32.94-6.78Q32.34-6.96 31.66-6.96L31.66-6.96Q30.80-6.96 30.38-6.61Q29.96-6.25 29.96-5.57L29.96-5.57Q29.96-5.17 30.09-4.90Q30.22-4.63 30.50-4.44Q30.78-4.25 31.26-4.08L31.26-4.08L31.57-3.97Q32.39-3.69 32.81-3.20Q33.23-2.71 33.23-1.94L33.23-1.94Q33.23-0.97 32.63-0.44Q32.03 0.09 30.94 0.09L30.94 0.09ZM35.59-5.50Q36.18-5.50 36.57-5.32Q36.95-5.15 37.15-4.75Q37.35-4.36 37.35-3.69L37.35-3.69L37.35 0L36.86 0L36.81-0.60L36.76-0.60Q36.53-0.26 36.18-0.09Q35.83 0.09 35.41 0.09L35.41 0.09Q34.98 0.09 34.65-0.09Q34.32-0.26 34.14-0.58Q33.96-0.91 33.96-1.36L33.96-1.36Q33.96-2.08 34.38-2.47Q34.81-2.87 35.68-2.95L35.68-2.95L36.77-3.08L36.77-3.71Q36.77-4.20 36.63-4.48Q36.50-4.76 36.23-4.87Q35.96-4.99 35.52-4.99L35.52-4.99Q35.24-4.99 34.91-4.93Q34.58-4.88 34.26-4.76L34.26-4.76L34.26-5.28Q34.53-5.38 34.90-5.44Q35.26-5.50 35.59-5.50L35.59-5.50ZM35.54-0.41Q35.88-0.41 36.21-0.58Q36.53-0.76 36.77-1.16L36.77-1.16L36.77-2.62L35.71-2.51Q35.12-2.45 34.84-2.18Q34.56-1.92 34.56-1.43L34.56-1.43Q34.56-0.92 34.81-0.66Q35.06-0.41 35.54-0.41L35.54-0.41ZM38.64 0L38.64-5.42L39.14-5.42L39.19-4.80L39.23-4.80Q39.50-5.13 39.88-5.32Q40.25-5.50 40.69-5.50L40.69-5.50Q42.12-5.50 42.12-3.83L42.12-3.83L42.12 0L41.54 0L41.54-3.80Q41.54-4.42 41.29-4.69Q41.03-4.96 40.56-4.96L40.56-4.96Q40.20-4.96 39.82-4.77Q39.45-4.58 39.22-4.17L39.22-4.17L39.22 0L38.64 0ZM44.39 0.10Q43.76 0.10 43.19-0.10L43.19-0.10L43.19-0.62Q43.84-0.42 44.38-0.42L44.38-0.42Q44.98-0.42 45.30-0.68Q45.62-0.94 45.62-1.42L45.62-1.42Q45.62-1.84 45.42-2.06Q45.23-2.29 44.81-2.41L44.81-2.41L44.30-2.54Q43.65-2.73 43.37-3.08Q43.09-3.43 43.09-3.99L43.09-3.99Q43.09-4.43 43.30-4.77Q43.51-5.11 43.92-5.30Q44.33-5.50 44.90-5.50L44.90-5.50Q45.44-5.50 45.92-5.38L45.92-5.38L45.92-4.87Q45.65-4.93 45.41-4.96Q45.18-4.99 44.92-4.99L44.92-4.99Q44.29-4.99 43.97-4.71Q43.65-4.44 43.65-4.00L43.65-4.00Q43.65-3.63 43.84-3.40Q44.03-3.18 44.43-3.06L44.43-3.06L44.94-2.93Q45.62-2.74 45.90-2.38Q46.18-2.02 46.18-1.45L46.18-1.45Q46.18-0.96 45.96-0.62Q45.75-0.27 45.35-0.09Q44.95 0.10 44.39 0.10L44.39 0.10ZM51.83 0.09Q50.92 0.09 50.30-0.27Q49.68-0.64 49.34-1.47Q49.01-2.31 49.01-3.69L49.01-3.69Q49.01-5.05 49.34-5.90Q49.68-6.74 50.32-7.11Q50.96-7.49 51.90-7.49L51.90-7.49Q52.58-7.49 53.23-7.30L53.23-7.30L53.23-6.77Q52.89-6.88 52.57-6.92Q52.25-6.96 51.89-6.96L51.89-6.96Q51.13-6.96 50.63-6.66Q50.14-6.36 49.88-5.64Q49.62-4.92 49.62-3.71L49.62-3.71Q49.62-2.47 49.88-1.75Q50.14-1.03 50.63-0.73Q51.12-0.44 51.86-0.44L51.86-0.44Q52.20-0.44 52.52-0.50Q52.85-0.56 53.23-0.70L53.23-0.70L53.23-0.15Q52.55 0.09 51.83 0.09L51.83 0.09ZM55.48 0.10Q53.55 0.10 53.55-2.70L53.55-2.70Q53.55-4.17 54.05-4.83Q54.55-5.50 55.48-5.50L55.48-5.50Q57.42-5.50 57.42-2.71L57.42-2.71Q57.42-1.24 56.92-0.57Q56.42 0.10 55.48 0.10L55.48 0.10ZM55.48-0.40Q55.91-0.40 56.20-0.61Q56.50-0.82 56.65-1.32Q56.81-1.82 56.81-2.69L56.81-2.69Q56.81-3.56 56.65-4.08Q56.49-4.58 56.20-4.79Q55.91-5 55.48-5L55.48-5Q55.05-5 54.76-4.79Q54.47-4.58 54.31-4.08Q54.15-3.58 54.15-2.72L54.15-2.72Q54.15-1.84 54.31-1.33Q54.47-0.82 54.76-0.61Q55.05-0.40 55.48-0.40L55.48-0.40ZM58.49 0L58.49-5.42L58.99-5.42L59.04-4.80L59.08-4.80Q59.35-5.13 59.73-5.32Q60.10-5.50 60.54-5.50L60.54-5.50Q61.97-5.50 61.97-3.83L61.97-3.83L61.97 0L61.39 0L61.39-3.80Q61.39-4.42 61.14-4.69Q60.88-4.96 60.41-4.96L60.41-4.96Q60.05-4.96 59.67-4.77Q59.30-4.58 59.07-4.17L59.07-4.17L59.07 0L58.49 0ZM64.82 0.10Q64.01 0.10 63.50-0.54Q63.00-1.17 63.00-2.60L63.00-2.60Q63.00-4.08 63.60-4.79Q64.21-5.50 65.39-5.50L65.39-5.50Q65.73-5.50 66.06-5.46L66.06-5.46L66.06-8.08L66.64-8.08L66.64 0L66.14 0L66.09-0.54L66.05-0.54Q65.86-0.26 65.54-0.08Q65.22 0.10 64.82 0.10L64.82 0.10ZM64.93-0.43Q65.27-0.43 65.58-0.61Q65.89-0.79 66.06-1.13L66.06-1.13L66.06-4.93Q65.93-4.96 65.73-4.98Q65.53-5.00 65.36-5.00L65.36-5.00Q64.48-5.00 64.04-4.45Q63.60-3.90 63.60-2.66L63.60-2.66Q63.60-1.79 63.77-1.30Q63.94-0.81 64.23-0.62Q64.52-0.43 64.93-0.43L64.93-0.43ZM71.32-2.71L71.32-2.50L68.32-2.50Q68.33-1.72 68.51-1.26Q68.69-0.81 69.04-0.61Q69.39-0.42 69.94-0.42L69.94-0.42Q70.41-0.42 71.08-0.62L71.08-0.62L71.08-0.10Q70.46 0.10 69.88 0.10L69.88 0.10Q69.15 0.10 68.67-0.18Q68.20-0.46 67.96-1.07Q67.72-1.69 67.72-2.71L67.72-2.71Q67.72-4.16 68.21-4.83Q68.70-5.50 69.57-5.50L69.57-5.50Q70.42-5.50 70.87-4.84Q71.32-4.18 71.32-2.71L71.32-2.71ZM69.57-5.03Q68.99-5.03 68.66-4.56Q68.34-4.09 68.32-2.94L68.32-2.94L70.74-2.94Q70.73-3.73 70.59-4.20Q70.44-4.66 70.19-4.84Q69.93-5.03 69.57-5.03L69.57-5.03ZM72.34 0L72.34-5.42L72.83-5.42L72.88-4.80L72.93-4.80Q73.20-5.13 73.57-5.32Q73.95-5.50 74.38-5.50L74.38-5.50Q75.82-5.50 75.82-3.83L75.82-3.83L75.82 0L75.24 0L75.24-3.80Q75.24-4.42 74.98-4.69Q74.73-4.96 74.26-4.96L74.26-4.96Q73.89-4.96 73.52-4.77Q73.14-4.58 72.92-4.17L72.92-4.17L72.92 0L72.34 0ZM78.08 0.10Q77.46 0.10 76.89-0.10L76.89-0.10L76.89-0.62Q77.53-0.42 78.08-0.42L78.08-0.42Q78.68-0.42 78.99-0.68Q79.31-0.94 79.31-1.42L79.31-1.42Q79.31-1.84 79.12-2.06Q78.92-2.29 78.51-2.41L78.51-2.41L78.00-2.54Q77.35-2.73 77.06-3.08Q76.78-3.43 76.78-3.99L76.78-3.99Q76.78-4.43 76.99-4.77Q77.21-5.11 77.62-5.30Q78.03-5.50 78.60-5.50L78.60-5.50Q79.14-5.50 79.61-5.38L79.61-5.38L79.61-4.87Q79.34-4.93 79.11-4.96Q78.88-4.99 78.61-4.99L78.61-4.99Q77.98-4.99 77.66-4.71Q77.34-4.44 77.34-4.00L77.34-4.00Q77.34-3.63 77.53-3.40Q77.72-3.18 78.13-3.06L78.13-3.06L78.64-2.93Q79.31-2.74 79.59-2.38Q79.87-2.02 79.87-1.45L79.87-1.45Q79.87-0.96 79.66-0.62Q79.45-0.27 79.04-0.09Q78.64 0.10 78.08 0.10L78.08 0.10ZM84.17-2.71L84.17-2.50L81.16-2.50Q81.18-1.72 81.36-1.26Q81.54-0.81 81.88-0.61Q82.23-0.42 82.78-0.42L82.78-0.42Q83.26-0.42 83.92-0.62L83.92-0.62L83.92-0.10Q83.30 0.10 82.73 0.10L82.73 0.10Q81.99 0.10 81.52-0.18Q81.04-0.46 80.80-1.07Q80.56-1.69 80.56-2.71L80.56-2.71Q80.56-4.16 81.05-4.83Q81.54-5.50 82.41-5.50L82.41-5.50Q83.26-5.50 83.71-4.84Q84.17-4.18 84.17-2.71L84.17-2.71ZM82.41-5.03Q81.83-5.03 81.51-4.56Q81.18-4.09 81.16-2.94L81.16-2.94L83.59-2.94Q83.58-3.73 83.43-4.20Q83.29-4.66 83.03-4.84Q82.78-5.03 82.41-5.03L82.41-5.03ZM86.73 0.10Q85.92 0.10 85.42-0.54Q84.92-1.17 84.92-2.60L84.92-2.60Q84.92-4.08 85.52-4.79Q86.12-5.50 87.31-5.50L87.31-5.50Q87.64-5.50 87.98-5.46L87.98-5.46L87.98-8.08L88.56-8.08L88.56 0L88.05 0L88.01-0.54L87.96-0.54Q87.77-0.26 87.45-0.08Q87.13 0.10 86.73 0.10L86.73 0.10ZM86.84-0.43Q87.18-0.43 87.49-0.61Q87.80-0.79 87.98-1.13L87.98-1.13L87.98-4.93Q87.84-4.96 87.64-4.98Q87.45-5.00 87.28-5.00L87.28-5.00Q86.40-5.00 85.96-4.45Q85.52-3.90 85.52-2.66L85.52-2.66Q85.52-1.79 85.69-1.30Q85.86-0.81 86.15-0.62Q86.44-0.43 86.84-0.43L86.84-0.43Z"/></svg>