<svg xmlns="http://www.w3.org/2000/svg" viewBox="5.724000000000001 41.82399999999999 742.5719999999999 58.824000000000005"><path d="M8.89 74.12L8.89 97.01L33.19 97.01L33.19 100L5.72 100L5.72 46.72L32.83 46.72L32.83 49.71L8.89 49.71L8.89 71.13L29.56 71.13L29.56 74.12L8.89 74.12ZM39.49 100L39.49 61.08L42.23 61.08L42.52 65.51L42.80 65.51Q44.78 63.10 47.50 61.80Q50.22 60.51 53.39 60.51L53.39 60.51Q63.61 60.51 63.61 72.21L63.61 72.21L63.61 100L60.44 100L60.44 72.35Q60.44 67.56 58.50 65.53Q56.56 63.50 52.92 63.50L52.92 63.50Q50.15 63.50 47.29 64.97Q44.42 66.45 42.66 69.65L42.66 69.65L42.66 100L39.49 100ZM85.39 100.65Q80.75 100.65 77.67 98.67Q74.59 96.69 72.99 92.26Q71.39 87.83 71.39 80.52L71.39 80.52Q71.39 73.22 73.15 68.81Q74.92 64.40 78.35 62.45Q81.79 60.51 87.05 60.51L87.05 60.51Q90.32 60.51 93.31 61.26L93.31 61.26L93.31 64.29Q90.32 63.46 87.34 63.46L87.34 63.46Q82.91 63.46 80.17 64.99Q77.44 66.52 76.09 70.21Q74.74 73.90 74.74 80.38L74.74 80.38Q74.74 86.93 75.96 90.73Q77.18 94.53 79.61 96.11Q82.04 97.70 85.86 97.70L85.86 97.70Q89.10 97.70 93.31 96.22L93.31 96.22L93.31 99.24Q89.24 100.65 85.39 100.65L85.39 100.65ZM110.16 100.65Q96.62 100.65 96.62 80.56L96.62 80.56Q96.62 70.01 100.13 65.26Q103.64 60.51 110.16 60.51L110.16 60.51Q123.70 60.51 123.70 80.56L123.70 80.56Q123.70 91.11 120.19 95.88Q116.68 100.65 110.16 100.65L110.16 100.65ZM110.16 97.80Q113.44 97.80 115.69 96.22Q117.94 94.64 119.16 90.87Q120.38 87.11 120.38 80.70L120.38 80.70Q120.38 74.15 119.16 70.34Q117.94 66.52 115.70 64.94Q113.47 63.35 110.16 63.35L110.16 63.35Q106.85 63.35 104.62 64.92Q102.38 66.48 101.16 70.25Q99.94 74.01 99.94 80.42L99.94 80.42Q99.94 86.97 101.16 90.80Q102.38 94.64 104.62 96.22Q106.85 97.80 110.16 97.80L110.16 97.80ZM142.81 100.65Q136.98 100.65 133.42 96.18Q129.85 91.72 129.85 81.32L129.85 81.32Q129.85 70.62 134.14 65.57Q138.42 60.51 146.70 60.51L146.70 60.51Q149.47 60.51 151.92 60.83L151.92 60.83L151.92 41.82L155.09 41.82L155.09 100L152.32 100L152.06 96.15L151.78 96.15Q150.37 98.13 148.05 99.39Q145.73 100.65 142.81 100.65L142.81 100.65ZM143.17 97.70Q145.84 97.70 148.23 96.27Q150.62 94.85 151.92 92.26L151.92 92.26L151.92 63.86Q150.88 63.68 149.33 63.53Q147.78 63.39 146.56 63.39L146.56 63.39Q139.86 63.39 136.51 67.53Q133.16 71.67 133.16 80.99L133.16 80.99Q133.16 87.51 134.44 91.18Q135.72 94.85 137.92 96.27Q140.11 97.70 143.17 97.70L143.17 97.70ZM188.35 80.56L188.35 81.82L166.50 81.82Q166.57 87.76 167.92 91.25Q169.27 94.74 171.86 96.24Q174.46 97.73 178.49 97.73L178.49 97.73Q181.91 97.73 186.62 96.26L186.62 96.26L186.62 99.24Q182.41 100.65 178.24 100.65L178.24 100.65Q173.16 100.65 169.87 98.69Q166.57 96.72 164.88 92.28Q163.19 87.83 163.19 80.52L163.19 80.52Q163.19 70.01 166.63 65.26Q170.06 60.51 176.08 60.51L176.08 60.51Q182.02 60.51 185.18 65.17Q188.35 69.83 188.35 80.56L188.35 80.56ZM176.08 63.28Q171.68 63.28 169.16 66.83Q166.64 70.37 166.50 79.08L166.50 79.08L185.11 79.08Q185.04 73.11 183.92 69.62Q182.81 66.12 180.85 64.70Q178.88 63.28 176.08 63.28L176.08 63.28ZM219.24 100.65Q216.79 100.65 214.07 100.18Q211.36 99.71 208.87 98.81L208.87 98.81L208.87 95.79Q214.38 97.70 219.42 97.70L219.42 97.70Q225.58 97.70 228.73 94.89Q231.88 92.08 231.88 86.50L231.88 86.50Q231.88 83.33 230.87 81.19Q229.86 79.05 227.66 77.54Q225.47 76.02 221.76 74.73L221.76 74.73L219.71 74.04Q213.98 72.03 211.14 68.64Q208.30 65.26 208.30 59.90L208.30 59.90Q208.30 53.34 212.38 49.71Q216.47 46.07 224.17 46.07L224.17 46.07Q226.48 46.07 228.94 46.41Q231.41 46.76 233.21 47.37L233.21 47.37L233.21 50.39Q228.85 49.02 224.14 49.02L224.14 49.02Q217.87 49.02 214.74 51.76Q211.61 54.50 211.61 59.68L211.61 59.68Q211.61 62.70 212.58 64.79Q213.55 66.88 215.68 68.36Q217.80 69.83 221.36 71.09L221.36 71.09L223.38 71.78Q229.32 73.83 232.27 77.30Q235.22 80.78 235.22 86.28L235.22 86.28Q235.22 93.20 231.07 96.92Q226.91 100.65 219.24 100.65L219.24 100.65ZM252.14 60.51Q256.21 60.51 258.88 61.71Q261.54 62.92 262.93 65.69Q264.31 68.46 264.31 73.11L264.31 73.11L264.31 100L261.58 100L261.29 95.64L261 95.64Q259.27 98.09 256.73 99.33Q254.20 100.58 251.10 100.58L251.10 100.58Q248.00 100.58 245.68 99.39Q243.36 98.20 242.08 95.90Q240.80 93.59 240.80 90.32L240.80 90.32Q240.80 85.28 243.77 82.49Q246.74 79.70 252.86 79.05L252.86 79.05L261.14 78.11L261.14 73Q261.14 69.33 260.10 67.22Q259.06 65.12 257.06 64.27Q255.06 63.42 251.89 63.42L251.89 63.42Q249.91 63.42 247.52 63.84Q245.12 64.25 242.82 65.04L242.82 65.04L242.82 62.06Q244.76 61.34 247.30 60.92Q249.84 60.51 252.14 60.51L252.14 60.51ZM251.60 97.73Q254.27 97.73 256.77 96.36Q259.27 95.00 261.14 91.86L261.14 91.86L261.14 80.85L252.90 81.75Q248.40 82.22 246.28 84.25Q244.15 86.28 244.15 89.96L244.15 89.96Q244.15 93.88 246.06 95.81Q247.97 97.73 251.60 97.73L251.60 97.73ZM274.03 100L274.03 61.08L276.77 61.08L277.06 65.51L277.34 65.51Q279.32 63.10 282.04 61.80Q284.76 60.51 287.93 60.51L287.93 60.51Q298.15 60.51 298.15 72.21L298.15 72.21L298.15 100L294.98 100L294.98 72.35Q294.98 67.56 293.04 65.53Q291.10 63.50 287.46 63.50L287.46 63.50Q284.69 63.50 281.83 64.97Q278.96 66.45 277.20 69.65L277.20 69.65L277.20 100L274.03 100ZM314.50 100.65Q310.28 100.65 306.18 99.28L306.18 99.28L306.18 96.29Q308.56 97.05 310.54 97.39Q312.52 97.73 314.50 97.73L314.50 97.73Q319.00 97.73 321.43 95.73Q323.86 93.74 323.86 89.99L323.86 89.99Q323.86 86.72 322.34 84.97Q320.83 83.22 317.63 82.32L317.63 82.32L314.17 81.35Q309.49 80.02 307.49 77.54Q305.50 75.05 305.50 71.09L305.50 71.09Q305.50 68.03 306.97 65.64Q308.45 63.24 311.29 61.88Q314.14 60.51 318.06 60.51L318.06 60.51Q321.73 60.51 325.19 61.30L325.19 61.30L325.19 64.29Q323.24 63.82 321.62 63.60Q320.00 63.39 318.13 63.39L318.13 63.39Q315.00 63.39 312.86 64.38Q310.72 65.37 309.67 67.10Q308.63 68.82 308.63 70.98L308.63 70.98Q308.63 73.94 310.10 75.68Q311.58 77.43 314.68 78.29L314.68 78.29L318.17 79.26Q323.06 80.63 325.04 83.19Q327.02 85.74 327.02 89.81L327.02 89.81Q327.02 94.92 323.73 97.79Q320.44 100.65 314.50 100.65L314.50 100.65ZM367.34 100.65Q361.01 100.65 356.67 98.06Q352.33 95.46 349.97 89.45Q347.62 83.44 347.62 73.43L347.62 73.43Q347.62 63.50 349.97 57.47Q352.33 51.44 356.78 48.75Q361.22 46.07 367.85 46.07L367.85 46.07Q372.56 46.07 377.39 47.48L377.39 47.48L377.39 50.54Q374.87 49.71 372.56 49.37Q370.26 49.02 367.67 49.02L367.67 49.02Q362.05 49.02 358.42 51.29Q354.78 53.56 352.87 58.89Q350.96 64.22 350.96 73.29L350.96 73.29Q350.96 82.54 352.89 87.90Q354.82 93.27 358.40 95.48Q361.98 97.70 367.38 97.70L367.38 97.70Q369.86 97.70 372.22 97.25Q374.58 96.80 377.39 95.82L377.39 95.82L377.39 98.85Q372.38 100.65 367.34 100.65L367.34 100.65ZM393.26 100.65Q379.73 100.65 379.73 80.56L379.73 80.56Q379.73 70.01 383.24 65.26Q386.75 60.51 393.26 60.51L393.26 60.51Q406.80 60.51 406.80 80.56L406.80 80.56Q406.80 91.11 403.29 95.88Q399.78 100.65 393.26 100.65L393.26 100.65ZM393.26 97.80Q396.54 97.80 398.79 96.22Q401.04 94.64 402.26 90.87Q403.49 87.11 403.49 80.70L403.49 80.70Q403.49 74.15 402.26 70.34Q401.04 66.52 398.81 64.94Q396.58 63.35 393.26 63.35L393.26 63.35Q389.95 63.35 387.72 64.92Q385.49 66.48 384.26 70.25Q383.04 74.01 383.04 80.42L383.04 80.42Q383.04 86.97 384.26 90.80Q385.49 94.64 387.72 96.22Q389.95 97.80 393.26 97.80L393.26 97.80ZM414.90 100L414.90 61.08L417.64 61.08L417.92 65.51L418.21 65.51Q420.19 63.10 422.91 61.80Q425.63 60.51 428.80 60.51L428.80 60.51Q439.02 60.51 439.02 72.21L439.02 72.21L439.02 100L435.85 100L435.85 72.35Q435.85 67.56 433.91 65.53Q431.96 63.50 428.33 63.50L428.33 63.50Q425.56 63.50 422.69 64.97Q419.83 66.45 418.07 69.65L418.07 69.65L418.07 100L414.90 100ZM459.76 100.65Q453.92 100.65 450.36 96.18Q446.80 91.72 446.80 81.32L446.80 81.32Q446.80 70.62 451.08 65.57Q455.36 60.51 463.64 60.51L463.64 60.51Q466.42 60.51 468.86 60.83L468.86 60.83L468.86 41.82L472.03 41.82L472.03 100L469.26 100L469.01 96.15L468.72 96.15Q467.32 98.13 464.99 99.39Q462.67 100.65 459.76 100.65L459.76 100.65ZM460.12 97.70Q462.78 97.70 465.17 96.27Q467.57 94.85 468.86 92.26L468.86 92.26L468.86 63.86Q467.82 63.68 466.27 63.53Q464.72 63.39 463.50 63.39L463.50 63.39Q456.80 63.39 453.46 67.53Q450.11 71.67 450.11 80.99L450.11 80.99Q450.11 87.51 451.39 91.18Q452.66 94.85 454.86 96.27Q457.06 97.70 460.12 97.70L460.12 97.70ZM505.30 80.56L505.30 81.82L483.44 81.82Q483.52 87.76 484.87 91.25Q486.22 94.74 488.81 96.24Q491.40 97.73 495.43 97.73L495.43 97.73Q498.85 97.73 503.57 96.26L503.57 96.26L503.57 99.24Q499.36 100.65 495.18 100.65L495.18 100.65Q490.10 100.65 486.81 98.69Q483.52 96.72 481.82 92.28Q480.13 87.83 480.13 80.52L480.13 80.52Q480.13 70.01 483.57 65.26Q487.01 60.51 493.02 60.51L493.02 60.51Q498.96 60.51 502.13 65.17Q505.30 69.83 505.30 80.56L505.30 80.56ZM493.02 63.28Q488.63 63.28 486.11 66.83Q483.59 70.37 483.44 79.08L483.44 79.08L502.06 79.08Q501.98 73.11 500.87 69.62Q499.75 66.12 497.79 64.70Q495.83 63.28 493.02 63.28L493.02 63.28ZM512.96 100L512.96 61.08L515.70 61.08L515.99 65.51L516.28 65.51Q518.26 63.10 520.97 61.80Q523.69 60.51 526.86 60.51L526.86 60.51Q537.08 60.51 537.08 72.21L537.08 72.21L537.08 100L533.92 100L533.92 72.35Q533.92 67.56 531.97 65.53Q530.03 63.50 526.39 63.50L526.39 63.50Q523.62 63.50 520.76 64.97Q517.90 66.45 516.13 69.65L516.13 69.65L516.13 100L512.96 100ZM553.43 100.65Q549.22 100.65 545.11 99.28L545.11 99.28L545.11 96.29Q547.49 97.05 549.47 97.39Q551.45 97.73 553.43 97.73L553.43 97.73Q557.93 97.73 560.36 95.73Q562.79 93.74 562.79 89.99L562.79 89.99Q562.79 86.72 561.28 84.97Q559.76 83.22 556.56 82.32L556.56 82.32L553.10 81.35Q548.42 80.02 546.43 77.54Q544.43 75.05 544.43 71.09L544.43 71.09Q544.43 68.03 545.90 65.64Q547.38 63.24 550.22 61.88Q553.07 60.51 556.99 60.51L556.99 60.51Q560.66 60.51 564.12 61.30L564.12 61.30L564.12 64.29Q562.18 63.82 560.56 63.60Q558.94 63.39 557.06 63.39L557.06 63.39Q553.93 63.39 551.79 64.38Q549.65 65.37 548.60 67.10Q547.56 68.82 547.56 70.98L547.56 70.98Q547.56 73.94 549.04 75.68Q550.51 77.43 553.61 78.29L553.61 78.29L557.10 79.26Q562.00 80.63 563.98 83.19Q565.96 85.74 565.96 89.81L565.96 89.81Q565.96 94.92 562.66 97.79Q559.37 100.65 553.43 100.65L553.43 100.65ZM596.38 80.56L596.38 81.82L574.52 81.82Q574.60 87.76 575.95 91.25Q577.30 94.74 579.89 96.24Q582.48 97.73 586.51 97.73L586.51 97.73Q589.93 97.73 594.65 96.26L594.65 96.26L594.65 99.24Q590.44 100.65 586.26 100.65L586.26 100.65Q581.18 100.65 577.89 98.69Q574.60 96.72 572.90 92.28Q571.21 87.83 571.21 80.52L571.21 80.52Q571.21 70.01 574.65 65.26Q578.09 60.51 584.10 60.51L584.10 60.51Q590.04 60.51 593.21 65.17Q596.38 69.83 596.38 80.56L596.38 80.56ZM584.10 63.28Q579.71 63.28 577.19 66.83Q574.67 70.37 574.52 79.08L574.52 79.08L593.14 79.08Q593.06 73.11 591.95 69.62Q590.83 66.12 588.87 64.70Q586.91 63.28 584.10 63.28L584.10 63.28ZM615.02 100.65Q609.19 100.65 605.63 96.18Q602.06 91.72 602.06 81.32L602.06 81.32Q602.06 70.62 606.35 65.57Q610.63 60.51 618.91 60.51L618.91 60.51Q621.68 60.51 624.13 60.83L624.13 60.83L624.13 41.82L627.30 41.82L627.30 100L624.53 100L624.28 96.15L623.99 96.15Q622.58 98.13 620.26 99.39Q617.94 100.65 615.02 100.65L615.02 100.65ZM615.38 97.70Q618.05 97.70 620.44 96.27Q622.84 94.85 624.13 92.26L624.13 92.26L624.13 63.86Q623.09 63.68 621.54 63.53Q619.99 63.39 618.77 63.39L618.77 63.39Q612.07 63.39 608.72 67.53Q605.38 71.67 605.38 80.99L605.38 80.99Q605.38 87.51 606.65 91.18Q607.93 94.85 610.13 96.27Q612.32 97.70 615.38 97.70L615.38 97.70ZM653.26 97.08L674.57 97.08L674.57 100L649.15 100L649.15 98.16L662.76 76.06Q666.07 70.70 667.51 66.83Q668.95 62.96 668.95 59.32L668.95 59.32Q668.95 53.78 666.25 51.40Q663.55 49.02 658.15 49.02L658.15 49.02Q653.11 49.02 648.54 51.04L648.54 51.04L648.54 48.02Q650.38 47.12 653.06 46.59Q655.74 46.07 658.30 46.07L658.30 46.07Q664.92 46.07 668.56 49.17Q672.19 52.26 672.19 58.89L672.19 58.89Q672.19 63.10 670.68 67.33Q669.17 71.56 665.39 77.64L665.39 77.64L653.26 97.08ZM695.52 100.65Q688.18 100.65 684.31 94.29Q680.44 87.94 680.44 73.36L680.44 73.36Q680.44 63.46 682.22 57.43Q684 51.40 687.33 48.74Q690.66 46.07 695.52 46.07L695.52 46.07Q700.34 46.07 703.67 48.74Q707.00 51.40 708.79 57.43Q710.57 63.46 710.57 73.36L710.57 73.36Q710.57 87.94 706.70 94.29Q702.83 100.65 695.52 100.65L695.52 100.65ZM695.52 97.70Q699.30 97.70 701.87 95.45Q704.45 93.20 705.87 87.85Q707.29 82.50 707.29 73.50L707.29 73.50Q707.29 64.36 705.87 58.96Q704.45 53.56 701.87 51.29Q699.30 49.02 695.52 49.02L695.52 49.02Q691.74 49.02 689.17 51.27Q686.59 53.52 685.17 58.87Q683.75 64.22 683.75 73.22L683.75 73.22Q683.75 82.36 685.17 87.76Q686.59 93.16 689.17 95.43Q691.74 97.70 695.52 97.70L695.52 97.70ZM733.25 100.65Q725.90 100.65 722.03 94.29Q718.16 87.94 718.16 73.36L718.16 73.36Q718.16 63.46 719.95 57.43Q721.73 51.40 725.06 48.74Q728.39 46.07 733.25 46.07L733.25 46.07Q738.07 46.07 741.40 48.74Q744.73 51.40 746.51 57.43Q748.30 63.46 748.30 73.36L748.30 73.36Q748.30 87.94 744.43 94.29Q740.56 100.65 733.25 100.65L733.25 100.65ZM733.25 97.70Q737.03 97.70 739.60 95.45Q742.18 93.20 743.60 87.85Q745.02 82.50 745.02 73.50L745.02 73.50Q745.02 64.36 743.60 58.96Q742.18 53.56 739.60 51.29Q737.03 49.02 733.25 49.02L733.25 49.02Q729.47 49.02 726.89 51.27Q724.32 53.52 722.90 58.87Q721.48 64.22 721.48 73.22L721.48 73.22Q721.48 82.36 722.90 87.76Q724.32 93.16 726.89 95.43Q729.47 97.70 733.25 97.70L733.25 97.70Z"/></svg>