<svg xmlns="http://www.w3.org/2000/svg" viewBox="3.168 41.82399999999999 920.3040000000003 58.96800000000001"><path d="M17 79L17 88L39 88L39 100L3 100L3 47L38 47L38 59L17 59L17 67L34 67L34 79L17 79ZM43 100L43 60L55 60L56 64L57 64Q60 60 66 60L66 60Q71 60 74 63Q77 67 77 75L77 75L77 100L64 100L64 76Q64 74 63 73Q62 72 61 72L61 72Q60 72 59 72Q58 73 57 74L57 74L57 100L43 100ZM101 101Q91 101 86 96Q82 91 82 80L82 80Q82 70 87 65Q92 60 102 60L102 60Q106 60 109 60L109 60L109 72Q107 71 105 71L105 71Q100 71 98 73Q96 75 96 80L96 80Q96 84 97 86Q98 88 99 88Q101 89 104 89L104 89Q106 89 109 88L109 88L109 99Q107 100 105 100Q103 101 101 101L101 101ZM129 101Q121 101 116 96Q112 91 112 80L112 80Q112 70 116 65Q121 60 129 60L129 60Q138 60 143 65Q147 70 147 80L147 80Q147 91 143 96Q138 101 129 101L129 101ZM129 91Q131 91 131 90Q132 89 133 87Q133 85 133 80L133 80Q133 76 133 74Q132 72 131 71Q131 70 129 70L129 70Q128 70 127 71Q127 72 126 74Q126 76 126 80L126 80Q126 85 126 87Q127 89 127 90Q128 91 129 91L129 91ZM165 101Q161 101 158 99Q155 96 153 92Q151 88 151 81L151 81Q151 71 156 65Q161 60 172 60L172 60L172 60L172 42L186 42L186 100L175 100L174 96L173 96Q172 98 170 99Q168 101 165 101L165 101ZM170 89Q171 89 172 88L172 88L172 70Q171 70 171 70L171 70Q169 70 167 71Q166 72 166 74Q165 76 165 80L165 80Q165 84 166 86Q166 88 167 88Q168 89 170 89L170 89ZM224 80L224 84L205 84Q205 86 206 88Q206 89 208 89Q210 90 213 90L213 90Q217 90 222 89L222 89L222 99Q219 100 216 100Q214 101 211 101L211 101Q204 101 199 99Q195 96 193 92Q191 87 191 80L191 80Q191 74 193 69Q195 65 198 62Q202 60 208 60L208 60Q216 60 220 65Q224 70 224 80L224 80ZM208 69Q207 69 206 69Q205 70 205 72Q205 73 205 76L205 76L211 76Q211 73 211 72Q210 70 210 69Q209 69 208 69L208 69ZM257 101Q254 101 250 100Q246 100 243 98L243 98L243 87Q250 89 257 89L257 89Q260 89 262 88Q264 87 264 85L264 85Q264 84 263 83Q263 82 262 82Q260 81 258 80L258 80L254 79Q248 77 245 73Q242 69 242 63L242 63Q242 58 244 54Q246 50 251 48Q256 46 263 46L263 46Q267 46 270 46Q273 47 275 47L275 47L275 59Q273 59 270 58Q267 58 265 58L265 58Q256 58 256 62L256 62Q256 63 256 64Q257 64 258 65Q259 66 261 66L261 66L265 68Q271 70 275 74Q278 77 278 84L278 84Q278 89 275 93Q273 97 268 99Q263 101 257 101L257 101ZM296 60Q302 60 306 61Q309 63 311 67Q313 70 313 77L313 77L313 100L302 100L301 96L300 96Q298 101 292 101L292 101Q288 101 286 99Q283 98 282 95Q280 93 280 89L280 89Q280 83 284 80Q288 76 296 76L296 76L300 76Q299 74 299 73Q298 72 297 71Q295 71 293 71L293 71Q291 71 288 71Q286 71 284 72L284 72L284 61Q286 60 289 60Q293 60 296 60L296 60ZM297 91Q298 91 300 90L300 90L300 83L298 84Q296 84 295 85Q294 86 294 87L294 87Q294 89 295 90Q296 91 297 91L297 91ZM318 100L318 60L330 60L331 64L332 64Q335 60 341 60L341 60Q346 60 349 63Q353 67 353 75L353 75L353 100L339 100L339 76Q339 74 338 73Q337 72 336 72L336 72Q335 72 334 72Q333 73 332 74L332 74L332 100L318 100ZM369 101Q362 101 357 99L357 99L357 88Q362 90 368 90L368 90Q371 90 372 89Q373 89 373 88L373 88Q373 87 372 87Q372 86 371 86L371 86L365 85Q361 84 358 81Q356 78 356 73L356 73Q356 69 358 66Q360 63 364 61Q368 60 374 60L374 60Q379 60 383 61L383 61L383 72Q379 71 374 71L374 71Q369 71 369 73L369 73Q369 74 369 74Q369 74 370 75L370 75L376 76Q381 77 383 80Q385 82 385 87L385 87Q385 92 383 95Q381 98 377 99Q374 101 369 101L369 101ZM429 101Q417 101 410 94Q404 88 404 74L404 74Q404 60 411 53Q417 46 430 46L430 46Q436 46 440 47L440 47L440 59Q435 58 431 58L431 58Q427 58 424 59Q421 61 420 64Q418 68 418 73L418 73Q418 79 420 83Q421 86 424 87Q427 89 431 89L431 89Q435 89 440 87L440 87L440 99Q438 100 435 100Q432 101 429 101L429 101ZM460 101Q451 101 446 96Q442 91 442 80L442 80Q442 70 446 65Q451 60 460 60L460 60Q468 60 473 65Q477 70 477 80L477 80Q477 91 473 96Q468 101 460 101L460 101ZM460 91Q461 91 462 90Q462 89 463 87Q463 85 463 80L463 80Q463 76 463 74Q462 72 462 71Q461 70 460 70L460 70Q458 70 457 71Q457 72 456 74Q456 76 456 80L456 80Q456 85 456 87Q457 89 457 90Q458 91 460 91L460 91ZM482 100L482 60L493 60L494 64L495 64Q498 60 504 60L504 60Q509 60 512 63Q516 67 516 75L516 75L516 100L502 100L502 76Q502 74 501 73Q500 72 499 72L499 72Q498 72 497 72Q496 73 495 74L495 74L495 100L482 100ZM534 101Q530 101 527 99Q524 96 522 92Q520 88 520 81L520 81Q520 71 525 65Q530 60 541 60L541 60L541 60L541 42L555 42L555 100L543 100L543 96L542 96Q541 98 539 99Q537 101 534 101L534 101ZM539 89Q540 89 541 88L541 88L541 70Q540 70 540 70L540 70Q538 70 536 71Q535 72 535 74Q534 76 534 80L534 80Q534 84 534 86Q535 88 536 88Q537 89 539 89L539 89ZM593 80L593 84L574 84Q574 86 575 88Q575 89 577 89Q579 90 582 90L582 90Q586 90 591 89L591 89L591 99Q588 100 585 100Q583 101 580 101L580 101Q573 101 568 99Q564 96 562 92Q559 87 559 80L559 80Q559 74 561 69Q563 65 567 62Q571 60 577 60L577 60Q585 60 589 65Q593 70 593 80L593 80ZM577 69Q576 69 575 69Q574 70 574 72Q574 73 573 76L573 76L580 76Q580 73 580 72Q579 70 579 69Q578 69 577 69L577 69ZM597 100L597 60L608 60L609 64L610 64Q613 60 619 60L619 60Q625 60 628 63Q631 67 631 75L631 75L631 100L617 100L617 76Q617 74 616 73Q615 72 614 72L614 72Q613 72 612 72Q611 73 611 74L611 74L611 100L597 100ZM647 101Q641 101 636 99L636 99L636 88Q641 90 647 90L647 90Q649 90 650 89Q651 89 651 88L651 88Q651 87 651 87Q650 86 649 86L649 86L644 85Q639 84 637 81Q634 78 634 73L634 73Q634 69 636 66Q638 63 642 61Q646 60 652 60L652 60Q657 60 661 61L661 61L661 72Q657 71 653 71L653 71Q647 71 647 73L647 73Q647 74 647 74Q648 74 649 75L649 75L654 76Q659 77 661 80Q663 82 663 87L663 87Q663 92 661 95Q659 98 656 99Q652 101 647 101L647 101ZM699 80L699 84L680 84Q680 86 681 88Q681 89 683 89Q685 90 688 90L688 90Q692 90 697 89L697 89L697 99Q694 100 691 100Q689 101 686 101L686 101Q679 101 674 99Q670 96 668 92Q666 87 666 80L666 80Q666 74 668 69Q670 65 673 62Q677 60 683 60L683 60Q691 60 695 65Q699 70 699 80L699 80ZM683 69Q682 69 681 69Q680 70 680 72Q680 73 680 76L680 76L686 76Q686 73 686 72Q685 70 685 69Q684 69 683 69L683 69ZM716 101Q712 101 709 99Q705 96 703 92Q701 88 701 81L701 81Q701 71 707 65Q712 60 723 60L723 60L723 60L723 42L737 42L737 100L725 100L724 96L724 96Q723 98 721 99Q718 101 716 101L716 101ZM720 89Q722 89 723 88L723 88L723 70Q722 70 721 70L721 70Q719 70 718 71Q717 72 716 74Q716 76 716 80L716 80Q716 84 716 86Q717 88 718 88Q719 89 720 89L720 89ZM773 101Q769 101 765 100Q762 100 758 98L758 98L758 42L772 42L772 64L773 64Q774 62 776 61Q778 60 781 60L781 60Q784 60 787 62Q790 64 792 69Q794 73 794 80L794 80Q794 90 789 95Q784 101 773 101L773 101ZM774 90Q776 90 777 89Q779 89 779 87Q780 84 780 81L780 81Q780 77 779 75Q779 73 778 72Q776 71 775 71L775 71Q773 71 772 72L772 72L772 90Q773 90 774 90L774 90ZM812 100L799 100L799 42L812 42L812 100ZM832 60Q838 60 842 61Q845 63 847 67Q849 70 849 77L849 77L849 100L838 100L837 96L836 96Q834 101 828 101L828 101Q824 101 822 99Q819 98 818 95Q816 93 816 89L816 89Q816 83 820 80Q824 76 832 76L832 76L835 76Q835 74 835 73Q834 72 833 71Q831 71 829 71L829 71Q827 71 824 71Q822 71 819 72L819 72L819 61Q822 60 825 60Q829 60 832 60L832 60ZM833 91Q834 91 835 90L835 90L835 83L834 84Q832 84 831 85Q830 86 830 87L830 87Q830 89 831 90Q831 91 833 91L833 91ZM872 101Q863 101 858 96Q853 91 853 80L853 80Q853 70 858 65Q864 60 873 60L873 60Q877 60 881 60L881 60L881 72Q878 71 876 71L876 71Q871 71 869 73Q867 75 867 80L867 80Q867 84 868 86Q869 88 871 88Q872 89 875 89L875 89Q877 89 881 88L881 88L881 99Q879 100 876 100Q874 101 872 101L872 101ZM923 100L909 100L901 85L899 85L899 100L885 100L885 42L899 42L899 74L901 74L908 60L922 60L912 79L923 100Z"/></svg>