<svg xmlns="http://www.w3.org/2000/svg" viewBox="4.392 41.82399999999999 970.8480000000002 58.89600000000001"><path d="M13 77L13 92L36 92L36 100L4 100L4 47L36 47L36 54L13 54L13 69L32 69L32 77L13 77ZM42 100L42 61L49 61L49 65L50 65Q52 63 54 61Q57 60 60 60L60 60Q65 60 68 63Q71 66 71 73L71 73L71 100L62 100L62 74Q62 71 61 69Q59 68 57 68L57 68Q55 68 53 69Q51 70 50 72L50 72L50 100L42 100ZM93 101Q85 101 81 96Q77 91 77 80L77 80Q77 70 81 65Q86 60 95 60L95 60Q98 60 102 61L102 61L102 68Q99 67 96 67L96 67Q93 67 90 69Q88 70 87 73Q86 75 86 80L86 80Q86 85 87 88Q88 91 90 92Q92 93 95 93L95 93Q98 93 102 92L102 92L102 99Q98 101 93 101L93 101ZM120 101Q113 101 108 96Q104 91 104 81L104 81Q104 60 120 60L120 60Q128 60 132 65Q136 70 136 80L136 80Q136 101 120 101L120 101ZM120 94Q122 94 124 93Q125 92 126 89Q127 86 127 81L127 81Q127 75 126 72Q125 69 124 68Q122 67 120 67L120 67Q118 67 116 68Q115 69 114 72Q113 75 113 80L113 80Q113 86 114 89Q115 92 116 93Q118 94 120 94L120 94ZM154 101Q150 101 147 99Q144 97 143 92Q141 88 141 81L141 81Q141 71 145 65Q150 60 160 60L160 60Q161 60 163 60L163 60L163 42L171 42L171 100L164 100L163 96L163 96Q162 98 159 99Q157 101 154 101L154 101ZM157 93Q159 93 160 93Q162 92 163 90L163 90L163 67Q161 67 159 67L159 67Q156 67 154 68Q152 70 151 72Q150 75 150 80L150 80Q150 85 151 88Q151 91 153 92Q155 93 157 93L157 93ZM207 80L207 83L186 83Q186 87 187 89Q188 92 191 93Q193 94 196 94L196 94Q200 94 205 92L205 92L205 99Q202 100 200 100Q198 101 195 101L195 101Q189 101 185 99Q181 97 179 92Q177 88 177 80L177 80Q177 70 181 65Q185 60 193 60L193 60Q207 60 207 80L207 80ZM193 66Q191 66 189 67Q188 68 187 71Q186 73 186 78L186 78L199 78Q199 73 198 71Q197 68 196 67Q194 66 193 66L193 66ZM239 101Q236 101 233 100Q229 100 227 99L227 99L227 91Q233 93 239 93L239 93Q244 93 246 91Q248 89 248 86L248 86Q248 84 248 82Q247 81 245 80Q243 79 240 78L240 78L237 76Q226 72 226 62L226 62Q226 57 228 53Q230 50 234 48Q238 46 244 46L244 46Q247 46 250 46Q253 47 255 47L255 47L255 55Q250 54 245 54L245 54Q234 54 234 61L234 61Q234 63 235 64Q236 66 237 67Q239 68 242 69L242 69L245 70Q251 72 254 75Q257 79 257 85L257 85Q257 90 255 93Q253 97 249 99Q245 101 239 101L239 101ZM275 60Q280 60 283 62Q286 63 288 66Q289 69 289 75L289 75L289 100L282 100L282 96L281 96Q280 98 277 99Q275 101 272 101L272 101Q269 101 266 99Q264 98 263 96Q261 93 261 90L261 90Q261 84 265 81Q268 78 275 77L275 77L281 77L281 75Q281 72 280 70Q279 69 278 68Q276 67 273 67L273 67Q271 67 269 68Q266 68 264 69L264 69L264 62Q266 61 269 61Q272 60 275 60L275 60ZM275 94Q277 94 278 93Q280 93 281 91L281 91L281 82L276 83Q270 83 270 89L270 89Q270 91 271 93Q273 94 275 94L275 94ZM297 100L297 61L304 61L305 65L305 65Q307 63 310 61Q312 60 315 60L315 60Q320 60 323 63Q326 66 326 73L326 73L326 100L318 100L318 74Q318 71 316 69Q315 68 312 68L312 68Q311 68 309 69Q307 70 306 72L306 72L306 100L297 100ZM342 101Q337 101 333 99L333 99L333 92Q337 94 342 94L342 94Q346 94 347 92Q349 91 349 89L349 89Q349 87 348 86Q347 85 345 84L345 84L341 83Q336 82 334 79Q332 77 332 72L332 72Q332 69 333 66Q335 63 339 62Q342 60 347 60L347 60Q351 60 355 61L355 61L355 68Q351 67 347 67L347 67Q343 67 341 69Q340 70 340 72L340 72Q340 74 341 75Q341 76 343 76L343 76L348 78Q353 79 355 81Q357 84 357 89L357 89Q357 92 355 95Q354 98 350 99Q347 101 342 101L342 101ZM399 101Q388 101 382 94Q377 88 377 73L377 73Q377 59 383 53Q389 46 400 46L400 46Q405 46 410 47L410 47L410 55Q405 54 401 54L401 54Q396 54 392 55Q389 57 387 62Q386 66 386 73L386 73Q386 81 387 85Q389 90 392 91Q395 93 400 93L400 93Q405 93 410 91L410 91L410 99Q408 100 405 100Q402 101 399 101L399 101ZM427 101Q420 101 416 96Q412 91 412 81L412 81Q412 60 427 60L427 60Q435 60 439 65Q443 70 443 80L443 80Q443 101 427 101L427 101ZM427 94Q430 94 431 93Q433 92 433 89Q434 86 434 81L434 81Q434 75 433 72Q433 69 431 68Q430 67 427 67L427 67Q425 67 424 68Q422 69 421 72Q421 75 421 80L421 80Q421 86 421 89Q422 92 424 93Q425 94 427 94L427 94ZM449 100L449 61L457 61L457 65L458 65Q460 63 462 61Q465 60 468 60L468 60Q473 60 476 63Q479 66 479 73L479 73L479 100L470 100L470 74Q470 71 468 69Q467 68 465 68L465 68Q463 68 461 69Q459 70 458 72L458 72L458 100L449 100ZM498 101Q494 101 491 99Q488 97 486 92Q484 88 484 81L484 81Q484 71 489 65Q494 60 503 60L503 60Q505 60 506 60L506 60L506 42L515 42L515 100L508 100L507 96L506 96Q505 98 503 99Q501 101 498 101L498 101ZM501 93Q502 93 504 93Q505 92 506 90L506 90L506 67Q504 67 503 67L503 67Q500 67 497 68Q495 70 494 72Q493 75 493 80L493 80Q493 85 494 88Q495 91 497 92Q498 93 501 93L501 93ZM550 80L550 83L530 83Q530 87 531 89Q532 92 534 93Q536 94 540 94L540 94Q544 94 549 92L549 92L549 99Q546 100 544 100Q541 101 539 101L539 101Q533 101 529 99Q525 97 523 92Q521 88 521 80L521 80Q521 70 525 65Q529 60 536 60L536 60Q550 60 550 80L550 80ZM536 66Q534 66 533 67Q532 68 531 71Q530 73 530 78L530 78L542 78Q542 73 541 71Q541 68 539 67Q538 66 536 66L536 66ZM556 100L556 61L563 61L564 65L565 65Q566 63 569 61Q572 60 575 60L575 60Q580 60 582 63Q585 66 585 73L585 73L585 100L577 100L577 74Q577 71 575 69Q574 68 572 68L572 68Q570 68 568 69Q566 70 565 72L565 72L565 100L556 100ZM602 101Q596 101 592 99L592 99L592 92Q597 94 601 94L601 94Q605 94 607 92Q608 91 608 89L608 89Q608 87 607 86Q606 85 604 84L604 84L600 83Q595 82 593 79Q591 77 591 72L591 72Q591 69 593 66Q594 63 598 62Q601 60 606 60L606 60Q610 60 614 61L614 61L614 68Q610 67 606 67L606 67Q602 67 601 69Q599 70 599 72L599 72Q599 74 600 75Q601 76 603 76L603 76L607 78Q612 79 614 81Q616 84 616 89L616 89Q616 92 614 95Q613 98 609 99Q606 101 602 101L602 101ZM649 80L649 83L629 83Q629 87 630 89Q631 92 633 93Q635 94 639 94L639 94Q643 94 647 92L647 92L647 99Q645 100 643 100Q640 101 638 101L638 101Q632 101 628 99Q624 97 622 92Q620 88 620 80L620 80Q620 70 624 65Q628 60 635 60L635 60Q649 60 649 80L649 80ZM635 66Q633 66 632 67Q630 68 630 71Q629 73 629 78L629 78L641 78Q641 73 640 71Q640 68 638 67Q637 66 635 66L635 66ZM667 101Q663 101 660 99Q657 97 655 92Q653 88 653 81L653 81Q653 71 658 65Q663 60 672 60L672 60Q674 60 675 60L675 60L675 42L684 42L684 100L677 100L676 96L675 96Q674 98 672 99Q670 101 667 101L667 101ZM670 93Q671 93 673 93Q674 92 675 90L675 90L675 67Q673 67 672 67L672 67Q669 67 666 68Q664 70 663 72Q662 75 662 80L662 80Q662 85 663 88Q664 91 666 92Q667 93 670 93L670 93ZM716 101Q710 101 706 99L706 99L706 92Q711 94 716 94L716 94Q719 94 721 92Q722 91 722 89L722 89Q722 87 721 86Q721 85 719 84L719 84L714 83Q709 82 707 79Q705 77 705 72L705 72Q705 69 707 66Q708 63 712 62Q715 60 720 60L720 60Q724 60 728 61L728 61L728 68Q725 67 721 67L721 67Q717 67 715 69Q713 70 713 72L713 72Q713 74 714 75Q715 76 717 76L717 76L721 78Q726 79 728 81Q730 84 730 89L730 89Q730 92 729 95Q727 98 724 99Q720 101 716 101L716 101ZM763 80L763 83L743 83Q743 87 744 89Q745 92 747 93Q749 94 753 94L753 94Q757 94 762 92L762 92L762 99Q759 100 757 100Q754 101 752 101L752 101Q746 101 742 99Q738 97 736 92Q734 88 734 80L734 80Q734 70 738 65Q742 60 749 60L749 60Q763 60 763 80L763 80ZM749 66Q747 66 746 67Q744 68 744 71Q743 73 743 78L743 78L755 78Q755 73 754 71Q754 68 752 67Q751 66 749 66L749 66ZM807 60Q811 60 814 63Q817 66 817 74L817 74L817 100L809 100L809 74Q809 68 804 68L804 68Q802 68 800 69Q799 70 797 71L797 71Q798 72 798 73L798 73L798 100L789 100L789 74Q789 71 788 69Q786 68 784 68L784 68Q782 68 781 69Q779 70 778 72L778 72L778 100L769 100L769 61L776 61L777 65L778 65Q781 60 787 60L787 60Q790 60 793 61Q795 63 796 65L796 65Q798 63 801 61Q804 60 807 60L807 60ZM834 100L825 100L825 61L834 61L834 100ZM829 54Q826 54 825 53Q824 51 824 49L824 49Q824 46 825 45Q826 44 829 44L829 44Q832 44 833 45Q835 46 835 49L835 49Q835 51 833 53Q832 54 829 54L829 54ZM869 101Q865 101 862 100Q859 100 857 99L857 99L857 42L865 42L865 65L866 65Q867 63 869 61Q872 60 874 60L874 60Q878 60 881 62Q884 64 886 69Q887 73 887 80L887 80Q887 90 883 95Q878 101 869 101L869 101ZM869 94Q872 94 874 93Q876 91 877 88Q878 85 878 81L878 81Q878 75 877 73Q877 70 875 69Q873 68 871 68L871 68Q869 68 868 68Q866 69 865 70L865 70L865 93Q867 94 869 94L869 94ZM908 101Q900 101 896 96Q892 91 892 81L892 81Q892 60 908 60L908 60Q915 60 920 65Q924 70 924 80L924 80Q924 101 908 101L908 101ZM908 94Q910 94 912 93Q913 92 914 89Q915 86 915 81L915 81Q915 75 914 72Q913 69 912 68Q910 67 908 67L908 67Q906 67 904 68Q903 69 902 72Q901 75 901 80L901 80Q901 86 902 89Q903 92 904 93Q906 94 908 94L908 94ZM939 100L930 100L930 42L939 42L939 100ZM958 101Q954 101 951 99Q948 97 947 92Q945 88 945 81L945 81Q945 71 949 65Q954 60 964 60L964 60Q965 60 967 60L967 60L967 42L975 42L975 100L968 100L967 96L967 96Q966 98 963 99Q961 101 958 101L958 101ZM961 93Q963 93 964 93Q966 92 967 90L967 90L967 67Q965 67 963 67L963 67Q960 67 958 68Q956 70 955 72Q954 75 954 80L954 80Q954 85 955 88Q955 91 957 92Q959 93 961 93L961 93Z"/></svg>