<svg xmlns="http://www.w3.org/2000/svg" viewBox="5.184000000000001 41.82399999999999 857.0880000000001 74.73600000000002"><path d="M10.66 75.12L10.66 95.07L34.34 95.07L34.34 100L5.18 100L5.18 46.72L33.98 46.72L33.98 51.65L10.66 51.65L10.66 70.19L30.60 70.19L30.60 75.12L10.66 75.12ZM40.36 100L40.36 60.94L44.96 60.94L45.40 65.30L45.76 65.30Q47.74 62.88 50.36 61.61Q52.99 60.33 56.12 60.33L56.12 60.33Q60.98 60.33 63.79 63.23Q66.60 66.12 66.60 72.71L66.60 72.71L66.60 100L61.13 100L61.13 73.04Q61.13 68.90 59.44 67.11Q57.74 65.33 54.61 65.33L54.61 65.33Q52.20 65.33 49.77 66.59Q47.34 67.85 45.83 70.48L45.83 70.48L45.83 100L40.36 100ZM88.63 100.68Q81.14 100.68 77.35 95.93Q73.55 91.18 73.55 80.49L73.55 80.49Q73.55 73.22 75.47 68.77Q77.40 64.32 81.05 62.33Q84.71 60.33 90.18 60.33L90.18 60.33Q93.67 60.33 96.70 61.08L96.70 61.08L96.70 65.87Q93.71 65.12 91.01 65.12L91.01 65.12Q86.87 65.12 84.33 66.52Q81.79 67.92 80.53 71.24Q79.27 74.55 79.27 80.31L79.27 80.31Q79.27 86.21 80.42 89.61Q81.58 93.02 83.84 94.46Q86.11 95.90 89.68 95.90L89.68 95.90Q92.63 95.90 96.70 94.53L96.70 94.53L96.70 99.28Q92.70 100.68 88.63 100.68L88.63 100.68ZM114.30 100.68Q99.83 100.68 99.83 80.52L99.83 80.52Q99.83 69.98 103.55 65.15Q107.28 60.33 114.30 60.33L114.30 60.33Q121.21 60.33 124.97 65.19Q128.74 70.05 128.74 80.49L128.74 80.49Q128.74 91 125.01 95.84Q121.28 100.68 114.30 100.68L114.30 100.68ZM114.30 96.22Q117.18 96.22 119.09 94.82Q121.00 93.41 122.04 89.99Q123.08 86.57 123.08 80.63L123.08 80.63Q123.08 74.58 122.04 71.09Q121.00 67.60 119.07 66.20Q117.14 64.79 114.30 64.79L114.30 64.79Q111.42 64.79 109.49 66.18Q107.57 67.56 106.52 71.00Q105.48 74.44 105.48 80.38L105.48 80.38Q105.48 86.43 106.52 89.92Q107.57 93.41 109.49 94.82Q111.42 96.22 114.30 96.22L114.30 96.22ZM147.53 100.68Q143.78 100.68 140.81 98.79Q137.84 96.90 136.08 92.57Q134.32 88.23 134.32 81.24L134.32 81.24Q134.32 70.62 138.76 65.49Q143.21 60.36 152.06 60.36L152.06 60.36Q153.97 60.36 156.31 60.62L156.31 60.62L156.31 41.82L161.78 41.82L161.78 100L157.07 100L156.67 96.04L156.31 96.04Q154.98 98.13 152.71 99.41Q150.44 100.68 147.53 100.68L147.53 100.68ZM148.86 95.86Q151.09 95.86 153.13 94.71Q155.16 93.56 156.31 91.43L156.31 91.43L156.31 65.30Q155.41 65.12 154.10 64.99Q152.78 64.86 151.70 64.86L151.70 64.86Q145.84 64.86 142.90 68.54Q139.97 72.21 139.97 80.70L139.97 80.70Q139.97 86.64 141.10 89.97Q142.24 93.30 144.18 94.58Q146.12 95.86 148.86 95.86L148.86 95.86ZM195.98 80.52L195.98 82.36L174.64 82.36Q174.74 87.51 175.97 90.50Q177.19 93.48 179.60 94.76Q182.02 96.04 185.87 96.04L185.87 96.04Q189.32 96.04 194.18 94.60L194.18 94.60L194.18 99.28Q191.77 100.04 189.65 100.36Q187.52 100.68 185.29 100.68L185.29 100.68Q179.71 100.68 176.15 98.69Q172.58 96.69 170.80 92.22Q169.02 87.76 169.02 80.42L169.02 80.42Q169.02 70.08 172.69 65.21Q176.36 60.33 182.92 60.33L182.92 60.33Q189.29 60.33 192.64 65.15Q195.98 69.98 195.98 80.52L195.98 80.52ZM182.88 64.43Q179.03 64.43 176.89 67.55Q174.74 70.66 174.64 78.44L174.64 78.44L190.66 78.44Q190.58 73.11 189.63 70.01Q188.68 66.92 187.00 65.67Q185.33 64.43 182.88 64.43L182.88 64.43ZM227.34 100.68Q224.71 100.68 221.74 100.18Q218.77 99.68 216.25 98.74L216.25 98.74L216.25 93.84Q221.90 95.79 227.38 95.79L227.38 95.79Q233.03 95.79 235.87 93.36Q238.72 90.93 238.72 86.14L238.72 86.14Q238.72 83.44 237.82 81.60Q236.92 79.77 234.94 78.44Q232.96 77.10 229.54 75.92L229.54 75.92L227.02 75.05Q221.33 73.07 218.38 69.58Q215.42 66.09 215.42 60.58L215.42 60.58Q215.42 56.04 217.37 52.79Q219.31 49.53 223.16 47.78Q227.02 46.04 232.56 46.04L232.56 46.04Q235.04 46.04 237.65 46.40Q240.26 46.76 242.17 47.40L242.17 47.40L242.17 52.30Q237.85 50.93 232.85 50.93L232.85 50.93Q221.08 50.93 221.08 60.18L221.08 60.18Q221.08 62.78 221.94 64.54Q222.80 66.30 224.68 67.60Q226.55 68.90 229.79 70.05L229.79 70.05L232.31 70.91Q238.32 72.96 241.34 76.51Q244.37 80.06 244.37 85.71L244.37 85.71Q244.37 90.42 242.37 93.79Q240.37 97.16 236.56 98.92Q232.74 100.68 227.34 100.68L227.34 100.68ZM261.47 60.33Q266.00 60.33 268.90 61.62Q271.80 62.92 273.28 65.89Q274.75 68.86 274.75 73.90L274.75 73.90L274.75 100L270.18 100L269.78 95.72L269.42 95.72Q267.80 98.16 265.34 99.41Q262.87 100.65 259.81 100.65L259.81 100.65Q256.68 100.65 254.30 99.39Q251.93 98.13 250.61 95.73Q249.30 93.34 249.30 90.03L249.30 90.03Q249.30 84.77 252.43 81.87Q255.56 78.98 262.15 78.36L262.15 78.36L269.39 77.61L269.39 73.65Q269.39 70.34 268.43 68.45Q267.48 66.56 265.61 65.78Q263.74 65.01 260.68 65.01L260.68 65.01Q258.62 65.01 256.23 65.39Q253.84 65.76 251.57 66.56L251.57 66.56L251.57 61.88Q253.66 61.16 256.37 60.74Q259.09 60.33 261.47 60.33L261.47 60.33ZM261.32 96.22Q263.56 96.22 265.66 95.10Q267.77 93.99 269.39 91.43L269.39 91.43L269.39 81.46L262.55 82.14Q258.62 82.54 256.73 84.34Q254.84 86.14 254.84 89.42L254.84 89.42Q254.84 92.84 256.52 94.53Q258.19 96.22 261.32 96.22L261.32 96.22ZM283.57 100L283.57 60.94L288.18 60.94L288.61 65.30L288.97 65.30Q290.95 62.88 293.58 61.61Q296.21 60.33 299.34 60.33L299.34 60.33Q304.20 60.33 307.01 63.23Q309.82 66.12 309.82 72.71L309.82 72.71L309.82 100L304.34 100L304.34 73.04Q304.34 68.90 302.65 67.11Q300.96 65.33 297.83 65.33L297.83 65.33Q295.42 65.33 292.99 66.59Q290.56 67.85 289.04 70.48L289.04 70.48L289.04 100L283.57 100ZM326.09 100.68Q321.37 100.68 317.16 99.21L317.16 99.21L317.16 94.56Q321.91 96.08 326.02 96.08L326.02 96.08Q330.08 96.08 332.21 94.37Q334.33 92.66 334.33 89.49L334.33 89.49Q334.33 86.79 333.04 85.33Q331.74 83.87 329.04 83.12L329.04 83.12L325.08 82.07Q320.47 80.81 318.40 78.24Q316.33 75.66 316.33 71.49L316.33 71.49Q316.33 68.21 317.92 65.69Q319.50 63.17 322.58 61.75Q325.66 60.33 329.98 60.33L329.98 60.33Q333.90 60.33 337.57 61.19L337.57 61.19L337.57 65.87Q335.63 65.40 333.90 65.19Q332.17 64.97 330.19 64.97L330.19 64.97Q325.80 64.97 323.64 66.77Q321.48 68.57 321.48 71.42L321.48 71.42Q321.48 73.86 322.72 75.29Q323.96 76.71 326.59 77.46L326.59 77.46L330.55 78.54Q335.38 79.84 337.43 82.43Q339.48 85.02 339.48 89.31L339.48 89.31Q339.48 92.84 337.88 95.41Q336.28 97.98 333.27 99.33Q330.26 100.68 326.09 100.68L326.09 100.68ZM380.63 100.68Q373.86 100.68 369.23 98.04Q364.61 95.39 362.11 89.38Q359.60 83.37 359.60 73.47L359.60 73.47Q359.60 59.00 365.09 52.52Q370.58 46.04 381.20 46.04L381.20 46.04Q386.17 46.04 390.82 47.40L390.82 47.40L390.82 52.34Q388.44 51.58 386.15 51.26Q383.87 50.93 381.35 50.93L381.35 50.93Q375.98 50.93 372.51 53.02Q369.04 55.11 367.24 60.04Q365.44 64.97 365.44 73.32L365.44 73.32Q365.44 81.86 367.24 86.79Q369.04 91.72 372.46 93.75Q375.88 95.79 381.13 95.79L381.13 95.79Q383.47 95.79 385.78 95.34Q388.08 94.89 390.82 93.95L390.82 93.95L390.82 98.88Q388.62 99.71 385.99 100.20Q383.36 100.68 380.63 100.68L380.63 100.68ZM407.45 100.68Q392.98 100.68 392.98 80.52L392.98 80.52Q392.98 69.98 396.70 65.15Q400.43 60.33 407.45 60.33L407.45 60.33Q414.36 60.33 418.12 65.19Q421.88 70.05 421.88 80.49L421.88 80.49Q421.88 91 418.16 95.84Q414.43 100.68 407.45 100.68L407.45 100.68ZM407.45 96.22Q410.33 96.22 412.24 94.82Q414.14 93.41 415.19 89.99Q416.23 86.57 416.23 80.63L416.23 80.63Q416.23 74.58 415.19 71.09Q414.14 67.60 412.22 66.20Q410.29 64.79 407.45 64.79L407.45 64.79Q404.57 64.79 402.64 66.18Q400.72 67.56 399.67 71.00Q398.63 74.44 398.63 80.38L398.63 80.38Q398.63 86.43 399.67 89.92Q400.72 93.41 402.64 94.82Q404.57 96.22 407.45 96.22L407.45 96.22ZM429.16 100L429.16 60.94L433.76 60.94L434.20 65.30L434.56 65.30Q436.54 62.88 439.16 61.61Q441.79 60.33 444.92 60.33L444.92 60.33Q449.78 60.33 452.59 63.23Q455.40 66.12 455.40 72.71L455.40 72.71L455.40 100L449.93 100L449.93 73.04Q449.93 68.90 448.24 67.11Q446.54 65.33 443.41 65.33L443.41 65.33Q441.00 65.33 438.57 66.59Q436.14 67.85 434.63 70.48L434.63 70.48L434.63 100L429.16 100ZM475.56 100.68Q471.82 100.68 468.85 98.79Q465.88 96.90 464.11 92.57Q462.35 88.23 462.35 81.24L462.35 81.24Q462.35 70.62 466.79 65.49Q471.24 60.36 480.10 60.36L480.10 60.36Q482.00 60.36 484.34 60.62L484.34 60.62L484.34 41.82L489.82 41.82L489.82 100L485.10 100L484.70 96.04L484.34 96.04Q483.01 98.13 480.74 99.41Q478.48 100.68 475.56 100.68L475.56 100.68ZM476.89 95.86Q479.12 95.86 481.16 94.71Q483.19 93.56 484.34 91.43L484.34 91.43L484.34 65.30Q483.44 65.12 482.13 64.99Q480.82 64.86 479.74 64.86L479.74 64.86Q473.87 64.86 470.93 68.54Q468.00 72.21 468.00 80.70L468.00 80.70Q468.00 86.64 469.13 89.97Q470.27 93.30 472.21 94.58Q474.16 95.86 476.89 95.86L476.89 95.86ZM524.02 80.52L524.02 82.36L502.67 82.36Q502.78 87.51 504.00 90.50Q505.22 93.48 507.64 94.76Q510.05 96.04 513.90 96.04L513.90 96.04Q517.36 96.04 522.22 94.60L522.22 94.60L522.22 99.28Q519.80 100.04 517.68 100.36Q515.56 100.68 513.32 100.68L513.32 100.68Q507.74 100.68 504.18 98.69Q500.62 96.69 498.83 92.22Q497.05 87.76 497.05 80.42L497.05 80.42Q497.05 70.08 500.72 65.21Q504.40 60.33 510.95 60.33L510.95 60.33Q517.32 60.33 520.67 65.15Q524.02 69.98 524.02 80.52L524.02 80.52ZM510.91 64.43Q507.06 64.43 504.92 67.55Q502.78 70.66 502.67 78.44L502.67 78.44L518.69 78.44Q518.62 73.11 517.66 70.01Q516.71 66.92 515.03 65.67Q513.36 64.43 510.91 64.43L510.91 64.43ZM530.89 100L530.89 60.94L535.50 60.94L535.93 65.30L536.29 65.30Q538.27 62.88 540.90 61.61Q543.53 60.33 546.66 60.33L546.66 60.33Q551.52 60.33 554.33 63.23Q557.14 66.12 557.14 72.71L557.14 72.71L557.14 100L551.66 100L551.66 73.04Q551.66 68.90 549.97 67.11Q548.28 65.33 545.15 65.33L545.15 65.33Q542.74 65.33 540.31 66.59Q537.88 67.85 536.36 70.48L536.36 70.48L536.36 100L530.89 100ZM573.41 100.68Q568.69 100.68 564.48 99.21L564.48 99.21L564.48 94.56Q569.23 96.08 573.34 96.08L573.34 96.08Q577.40 96.08 579.53 94.37Q581.65 92.66 581.65 89.49L581.65 89.49Q581.65 86.79 580.36 85.33Q579.06 83.87 576.36 83.12L576.36 83.12L572.40 82.07Q567.79 80.81 565.72 78.24Q563.65 75.66 563.65 71.49L563.65 71.49Q563.65 68.21 565.24 65.69Q566.82 63.17 569.90 61.75Q572.98 60.33 577.30 60.33L577.30 60.33Q581.22 60.33 584.89 61.19L584.89 61.19L584.89 65.87Q582.95 65.40 581.22 65.19Q579.49 64.97 577.51 64.97L577.51 64.97Q573.12 64.97 570.96 66.77Q568.80 68.57 568.80 71.42L568.80 71.42Q568.80 73.86 570.04 75.29Q571.28 76.71 573.91 77.46L573.91 77.46L577.87 78.54Q582.70 79.84 584.75 82.43Q586.80 85.02 586.80 89.31L586.80 89.31Q586.80 92.84 585.20 95.41Q583.60 97.98 580.59 99.33Q577.58 100.68 573.41 100.68L573.41 100.68ZM618.34 80.52L618.34 82.36L596.99 82.36Q597.10 87.51 598.32 90.50Q599.54 93.48 601.96 94.76Q604.37 96.04 608.22 96.04L608.22 96.04Q611.68 96.04 616.54 94.60L616.54 94.60L616.54 99.28Q614.12 100.04 612.00 100.36Q609.88 100.68 607.64 100.68L607.64 100.68Q602.06 100.68 598.50 98.69Q594.94 96.69 593.15 92.22Q591.37 87.76 591.37 80.42L591.37 80.42Q591.37 70.08 595.04 65.21Q598.72 60.33 605.27 60.33L605.27 60.33Q611.64 60.33 614.99 65.15Q618.34 69.98 618.34 80.52L618.34 80.52ZM605.23 64.43Q601.38 64.43 599.24 67.55Q597.10 70.66 596.99 78.44L596.99 78.44L613.01 78.44Q612.94 73.11 611.98 70.01Q611.03 66.92 609.35 65.67Q607.68 64.43 605.23 64.43L605.23 64.43ZM636.55 100.68Q632.81 100.68 629.84 98.79Q626.87 96.90 625.10 92.57Q623.34 88.23 623.34 81.24L623.34 81.24Q623.34 70.62 627.79 65.49Q632.23 60.36 641.09 60.36L641.09 60.36Q643.00 60.36 645.34 60.62L645.34 60.62L645.34 41.82L650.81 41.82L650.81 100L646.09 100L645.70 96.04L645.34 96.04Q644.00 98.13 641.74 99.41Q639.47 100.68 636.55 100.68L636.55 100.68ZM637.88 95.86Q640.12 95.86 642.15 94.71Q644.18 93.56 645.34 91.43L645.34 91.43L645.34 65.30Q644.44 65.12 643.12 64.99Q641.81 64.86 640.73 64.86L640.73 64.86Q634.86 64.86 631.93 68.54Q628.99 72.21 628.99 80.70L628.99 80.70Q628.99 86.64 630.13 89.97Q631.26 93.30 633.20 94.58Q635.15 95.86 637.88 95.86L637.88 95.86ZM675.07 100L675.07 60.94L679.64 60.94L680.11 66.27L680.47 66.27Q682.13 63.42 684.70 61.98Q687.28 60.54 690.34 60.54L690.34 60.54Q691.16 60.54 692.53 60.72L692.53 60.72L692.53 65.94Q691.67 65.80 690.01 65.80L690.01 65.80Q687.17 65.80 684.56 67.31Q681.95 68.82 680.54 71.49L680.54 71.49L680.54 100L675.07 100ZM721.76 80.52L721.76 82.36L700.42 82.36Q700.52 87.51 701.75 90.50Q702.97 93.48 705.38 94.76Q707.80 96.04 711.65 96.04L711.65 96.04Q715.10 96.04 719.96 94.60L719.96 94.60L719.96 99.28Q717.55 100.04 715.43 100.36Q713.30 100.68 711.07 100.68L711.07 100.68Q705.49 100.68 701.93 98.69Q698.36 96.69 696.58 92.22Q694.80 87.76 694.80 80.42L694.80 80.42Q694.80 70.08 698.47 65.21Q702.14 60.33 708.70 60.33L708.70 60.33Q715.07 60.33 718.42 65.15Q721.76 69.98 721.76 80.52L721.76 80.52ZM708.66 64.43Q704.81 64.43 702.67 67.55Q700.52 70.66 700.42 78.44L700.42 78.44L716.44 78.44Q716.36 73.11 715.41 70.01Q714.46 66.92 712.78 65.67Q711.11 64.43 708.66 64.43L708.66 64.43ZM738.61 116.56Q736.27 116.56 733.72 116.18Q731.16 115.80 729.14 115.08L729.14 115.08L729.14 110.37Q733.86 111.95 738.29 111.95L738.29 111.95Q741.85 111.95 744.14 110.85Q746.42 109.76 747.59 107.25Q748.76 104.75 748.76 100.58L748.76 100.58L748.76 96.22L748.40 96.22Q747.07 98.13 744.79 99.35Q742.50 100.58 739.62 100.58L739.62 100.58Q736.02 100.58 733.14 98.70Q730.26 96.83 728.51 92.51Q726.77 88.19 726.77 81.24L726.77 81.24Q726.77 70.62 731.21 65.49Q735.66 60.36 744.37 60.33L744.37 60.33Q746.82 60.33 749.54 60.76Q752.26 61.19 754.24 61.91L754.24 61.91L754.24 99.82Q754.24 108.68 750.37 112.62Q746.50 116.56 738.61 116.56L738.61 116.56ZM741.35 95.79Q743.58 95.79 745.61 94.69Q747.65 93.59 748.76 91.54L748.76 91.54L748.76 65.44Q747.76 65.19 746.46 65.03Q745.16 64.86 744.05 64.86L744.05 64.86Q738.25 64.86 735.34 68.55Q732.42 72.24 732.42 80.70L732.42 80.70Q732.42 86.61 733.54 89.92Q734.65 93.23 736.60 94.51Q738.54 95.79 741.35 95.79L741.35 95.79ZM773.42 100.68Q768.64 100.68 765.83 97.77Q763.02 94.85 763.02 88.16L763.02 88.16L763.02 60.94L768.49 60.94L768.49 87.94Q768.49 92.12 770.17 93.90Q771.84 95.68 774.86 95.68L774.86 95.68Q777.17 95.68 779.60 94.42Q782.03 93.16 783.47 90.57L783.47 90.57L783.47 60.94L788.94 60.94L788.94 100L784.33 100L783.90 95.75L783.54 95.75Q781.52 98.20 778.93 99.44Q776.34 100.68 773.42 100.68L773.42 100.68ZM803.56 100L798.08 100L798.08 41.82L803.56 41.82L803.56 100ZM822.71 60.33Q827.24 60.33 830.14 61.62Q833.04 62.92 834.52 65.89Q835.99 68.86 835.99 73.90L835.99 73.90L835.99 100L831.42 100L831.02 95.72L830.66 95.72Q829.04 98.16 826.58 99.41Q824.11 100.65 821.05 100.65L821.05 100.65Q817.92 100.65 815.54 99.39Q813.17 98.13 811.85 95.73Q810.54 93.34 810.54 90.03L810.54 90.03Q810.54 84.77 813.67 81.87Q816.80 78.98 823.39 78.36L823.39 78.36L830.63 77.61L830.63 73.65Q830.63 70.34 829.67 68.45Q828.72 66.56 826.85 65.78Q824.98 65.01 821.92 65.01L821.92 65.01Q819.86 65.01 817.47 65.39Q815.08 65.76 812.81 66.56L812.81 66.56L812.81 61.88Q814.90 61.16 817.61 60.74Q820.33 60.33 822.71 60.33L822.71 60.33ZM822.56 96.22Q824.80 96.22 826.90 95.10Q829.01 93.99 830.63 91.43L830.63 91.43L830.63 81.46L823.79 82.14Q819.86 82.54 817.97 84.34Q816.08 86.14 816.08 89.42L816.08 89.42Q816.08 92.84 817.76 94.53Q819.43 96.22 822.56 96.22L822.56 96.22ZM844.81 100L844.81 60.94L849.38 60.94L849.85 66.27L850.21 66.27Q851.87 63.42 854.44 61.98Q857.02 60.54 860.08 60.54L860.08 60.54Q860.90 60.54 862.27 60.72L862.27 60.72L862.27 65.94Q861.41 65.80 859.75 65.80L859.75 65.80Q856.91 65.80 854.30 67.31Q851.69 68.82 850.28 71.49L850.28 71.49L850.28 100L844.81 100Z"/></svg>