<svg xmlns="http://www.w3.org/2000/svg" viewBox="0.72 -8.08 89.67 8.175"><path d="M1.48-3.46L1.48-0.69L4.77-0.69L4.77 0L0.72 0L0.72-7.40L4.72-7.40L4.72-6.71L1.48-6.71L1.48-4.14L4.25-4.14L4.25-3.46L1.48-3.46ZM5.60 0L5.60-5.42L6.25-5.42L6.30-4.82L6.35-4.82Q6.63-5.16 6.99-5.33Q7.36-5.51 7.79-5.51L7.79-5.51Q8.47-5.51 8.86-5.11Q9.25-4.71 9.25-3.79L9.25-3.79L9.25 0L8.49 0L8.49-3.75Q8.49-4.32 8.25-4.57Q8.02-4.82 7.58-4.82L7.58-4.82Q7.25-4.82 6.91-4.64Q6.57-4.46 6.37-4.10L6.37-4.10L6.37 0L5.60 0ZM12.31 0.10Q11.27 0.10 10.74-0.57Q10.21-1.23 10.21-2.71L10.21-2.71Q10.21-3.72 10.48-4.34Q10.75-4.96 11.26-5.23Q11.77-5.51 12.53-5.51L12.53-5.51Q13.01-5.51 13.43-5.41L13.43-5.41L13.43-4.74Q13.02-4.84 12.64-4.84L12.64-4.84Q12.06-4.84 11.71-4.65Q11.36-4.46 11.19-4.00Q11.01-3.54 11.01-2.73L11.01-2.73Q11.01-1.92 11.17-1.44Q11.33-0.97 11.64-0.77Q11.96-0.57 12.46-0.57L12.46-0.57Q12.87-0.57 13.43-0.76L13.43-0.76L13.43-0.10Q12.88 0.10 12.31 0.10L12.31 0.10ZM15.87 0.10Q13.86 0.10 13.86-2.71L13.86-2.71Q13.86-4.17 14.38-4.84Q14.90-5.51 15.87-5.51L15.87-5.51Q16.83-5.51 17.36-4.83Q17.88-4.16 17.88-2.71L17.88-2.71Q17.88-1.25 17.36-0.58Q16.84 0.10 15.87 0.10L15.87 0.10ZM15.87-0.53Q16.27-0.53 16.54-0.72Q16.80-0.92 16.95-1.39Q17.09-1.86 17.09-2.69L17.09-2.69Q17.09-3.53 16.95-4.01Q16.80-4.50 16.54-4.70Q16.27-4.89 15.87-4.89L15.87-4.89Q15.47-4.89 15.21-4.70Q14.94-4.50 14.79-4.03Q14.65-3.55 14.65-2.73L14.65-2.73Q14.65-1.89 14.79-1.40Q14.94-0.92 15.21-0.72Q15.47-0.53 15.87-0.53L15.87-0.53ZM20.49 0.10Q19.97 0.10 19.56-0.17Q19.14-0.43 18.90-1.03Q18.65-1.64 18.65-2.60L18.65-2.60Q18.65-4.08 19.27-4.79Q19.89-5.50 21.12-5.50L21.12-5.50Q21.38-5.50 21.71-5.47L21.71-5.47L21.71-8.08L22.47-8.08L22.47 0L21.81 0L21.76-0.55L21.71-0.55Q21.52-0.26 21.21-0.08Q20.89 0.10 20.49 0.10L20.49 0.10ZM20.67-0.58Q20.98-0.58 21.27-0.73Q21.55-0.90 21.71-1.19L21.71-1.19L21.71-4.82Q21.58-4.84 21.40-4.86Q21.22-4.88 21.07-4.88L21.07-4.88Q20.25-4.88 19.85-4.37Q19.44-3.86 19.44-2.68L19.44-2.68Q19.44-1.85 19.60-1.39Q19.75-0.93 20.02-0.75Q20.29-0.58 20.67-0.58L20.67-0.58ZM27.22-2.71L27.22-2.45L24.25-2.45Q24.27-1.74 24.44-1.32Q24.61-0.91 24.94-0.73Q25.28-0.55 25.81-0.55L25.81-0.55Q26.29-0.55 26.97-0.75L26.97-0.75L26.97-0.10Q26.63 0.01 26.34 0.05Q26.04 0.10 25.73 0.10L25.73 0.10Q24.96 0.10 24.46-0.18Q23.97-0.46 23.72-1.08Q23.47-1.70 23.47-2.72L23.47-2.72Q23.47-4.16 23.98-4.83Q24.49-5.51 25.40-5.51L25.40-5.51Q26.29-5.51 26.75-4.84Q27.22-4.17 27.22-2.71L27.22-2.71ZM25.40-4.94Q24.86-4.94 24.57-4.51Q24.27-4.08 24.25-3.00L24.25-3.00L26.48-3.00Q26.47-3.73 26.34-4.17Q26.20-4.59 25.97-4.77Q25.74-4.94 25.40-4.94L25.40-4.94ZM31.57 0.10Q31.21 0.10 30.80 0.03Q30.38-0.04 30.04-0.18L30.04-0.18L30.04-0.85Q30.82-0.58 31.58-0.58L31.58-0.58Q32.37-0.58 32.76-0.92Q33.16-1.26 33.16-1.93L33.16-1.93Q33.16-2.30 33.03-2.56Q32.91-2.81 32.63-3.00Q32.35-3.18 31.88-3.35L31.88-3.35L31.53-3.46Q30.74-3.74 30.33-4.22Q29.92-4.71 29.92-5.48L29.92-5.48Q29.92-6.11 30.19-6.56Q30.46-7.01 31.00-7.25Q31.53-7.50 32.30-7.50L32.30-7.50Q32.64-7.50 33.01-7.45Q33.37-7.40 33.63-7.30L33.63-7.30L33.63-6.63Q33.03-6.82 32.34-6.82L32.34-6.82Q30.70-6.82 30.70-5.53L30.70-5.53Q30.70-5.17 30.82-4.92Q30.95-4.68 31.20-4.50Q31.46-4.32 31.91-4.16L31.91-4.16L32.27-4.04Q33.10-3.75 33.52-3.26Q33.94-2.77 33.94-1.99L33.94-1.99Q33.94-1.33 33.66-0.86Q33.38-0.40 32.85-0.15Q32.33 0.10 31.57 0.10L31.57 0.10ZM36.31-5.51Q36.94-5.51 37.35-5.33Q37.75-5.15 37.95-4.74Q38.16-4.33 38.16-3.63L38.16-3.63L38.16 0L37.52 0L37.47-0.59L37.42-0.59Q37.19-0.26 36.85-0.08Q36.51 0.09 36.08 0.09L36.08 0.09Q35.65 0.09 35.32-0.09Q34.99-0.26 34.81-0.59Q34.63-0.93 34.63-1.39L34.63-1.39Q34.63-2.12 35.06-2.52Q35.49-2.92 36.41-3.00L36.41-3.00L37.41-3.11L37.41-3.66Q37.41-4.12 37.28-4.38Q37.15-4.65 36.89-4.75Q36.63-4.86 36.20-4.86L36.20-4.86Q35.92-4.86 35.59-4.81Q35.25-4.75 34.94-4.65L34.94-4.65L34.94-5.29Q35.23-5.40 35.61-5.45Q35.98-5.51 36.31-5.51L36.31-5.51ZM36.29-0.53Q36.60-0.53 36.90-0.68Q37.19-0.83 37.41-1.19L37.41-1.19L37.41-2.58L36.46-2.48Q35.92-2.43 35.66-2.18Q35.39-1.93 35.39-1.47L35.39-1.47Q35.39-0.99 35.63-0.76Q35.86-0.53 36.29-0.53L36.29-0.53ZM39.38 0L39.38-5.42L40.02-5.42L40.09-4.82L40.13-4.82Q40.41-5.16 40.77-5.33Q41.14-5.51 41.58-5.51L41.58-5.51Q42.25-5.51 42.64-5.11Q43.03-4.71 43.03-3.79L43.03-3.79L43.03 0L42.27 0L42.27-3.75Q42.27-4.32 42.03-4.57Q41.80-4.82 41.37-4.82L41.37-4.82Q41.03-4.82 40.69-4.64Q40.35-4.46 40.15-4.10L40.15-4.10L40.15 0L39.38 0ZM45.29 0.10Q44.63 0.10 44.05-0.11L44.05-0.11L44.05-0.76Q44.71-0.55 45.28-0.55L45.28-0.55Q45.84-0.55 46.14-0.78Q46.43-1.02 46.43-1.46L46.43-1.46Q46.43-1.83 46.25-2.04Q46.07-2.24 45.70-2.35L45.70-2.35L45.15-2.49Q44.51-2.67 44.22-3.02Q43.93-3.38 43.93-3.96L43.93-3.96Q43.93-4.42 44.15-4.76Q44.38-5.12 44.80-5.31Q45.23-5.51 45.83-5.51L45.83-5.51Q46.38-5.51 46.88-5.39L46.88-5.39L46.88-4.74Q46.61-4.80 46.38-4.83Q46.13-4.87 45.86-4.87L45.86-4.87Q45.25-4.87 44.95-4.62Q44.65-4.37 44.65-3.97L44.65-3.97Q44.65-3.63 44.82-3.43Q44.99-3.23 45.36-3.13L45.36-3.13L45.91-2.98Q46.58-2.80 46.86-2.44Q47.15-2.08 47.15-1.49L47.15-1.49Q47.15-0.99 46.93-0.64Q46.70-0.28 46.29-0.09Q45.87 0.10 45.29 0.10L45.29 0.10ZM52.86 0.10Q51.92 0.10 51.28-0.27Q50.64-0.64 50.29-1.48Q49.94-2.31 49.94-3.69L49.94-3.69Q49.94-5.70 50.71-6.59Q51.47-7.50 52.94-7.50L52.94-7.50Q53.63-7.50 54.28-7.30L54.28-7.30L54.28-6.62Q53.95-6.73 53.63-6.77Q53.31-6.82 52.96-6.82L52.96-6.82Q52.22-6.82 51.74-6.53Q51.25-6.24 51.00-5.55Q50.75-4.87 50.75-3.71L50.75-3.71Q50.75-2.52 51.00-1.83Q51.25-1.15 51.73-0.87Q52.20-0.58 52.93-0.58L52.93-0.58Q53.26-0.58 53.58-0.65Q53.90-0.71 54.28-0.84L54.28-0.84L54.28-0.15Q53.97-0.04 53.61 0.03Q53.24 0.10 52.86 0.10L52.86 0.10ZM56.59 0.10Q54.58 0.10 54.58-2.71L54.58-2.71Q54.58-4.17 55.10-4.84Q55.61-5.51 56.59-5.51L56.59-5.51Q57.55-5.51 58.07-4.83Q58.59-4.16 58.59-2.71L58.59-2.71Q58.59-1.25 58.08-0.58Q57.56 0.10 56.59 0.10L56.59 0.10ZM56.59-0.53Q56.99-0.53 57.25-0.72Q57.52-0.92 57.66-1.39Q57.81-1.86 57.81-2.69L57.81-2.69Q57.81-3.53 57.66-4.01Q57.52-4.50 57.25-4.70Q56.98-4.89 56.59-4.89L56.59-4.89Q56.19-4.89 55.92-4.70Q55.65-4.50 55.51-4.03Q55.36-3.55 55.36-2.73L55.36-2.73Q55.36-1.89 55.51-1.40Q55.65-0.92 55.92-0.72Q56.19-0.53 56.59-0.53L56.59-0.53ZM59.60 0L59.60-5.42L60.24-5.42L60.30-4.82L60.35-4.82Q60.63-5.16 60.99-5.33Q61.36-5.51 61.79-5.51L61.79-5.51Q62.47-5.51 62.86-5.11Q63.25-4.71 63.25-3.79L63.25-3.79L63.25 0L62.49 0L62.49-3.75Q62.49-4.32 62.25-4.57Q62.02-4.82 61.58-4.82L61.58-4.82Q61.25-4.82 60.91-4.64Q60.57-4.46 60.36-4.10L60.36-4.10L60.36 0L59.60 0ZM66.05 0.10Q65.53 0.10 65.12-0.17Q64.70-0.43 64.46-1.03Q64.21-1.64 64.21-2.60L64.21-2.60Q64.21-4.08 64.83-4.79Q65.45-5.50 66.68-5.50L66.68-5.50Q66.94-5.50 67.27-5.47L67.27-5.47L67.27-8.08L68.03-8.08L68.03 0L67.37 0L67.32-0.55L67.27-0.55Q67.08-0.26 66.77-0.08Q66.45 0.10 66.05 0.10L66.05 0.10ZM66.23-0.58Q66.54-0.58 66.83-0.73Q67.11-0.90 67.27-1.19L67.27-1.19L67.27-4.82Q67.14-4.84 66.96-4.86Q66.78-4.88 66.63-4.88L66.63-4.88Q65.81-4.88 65.41-4.37Q65.00-3.86 65.00-2.68L65.00-2.68Q65.00-1.85 65.16-1.39Q65.31-0.93 65.58-0.75Q65.85-0.58 66.23-0.58L66.23-0.58ZM72.78-2.71L72.78-2.45L69.81-2.45Q69.83-1.74 70-1.32Q70.17-0.91 70.50-0.73Q70.84-0.55 71.38-0.55L71.38-0.55Q71.85-0.55 72.53-0.75L72.53-0.75L72.53-0.10Q72.19 0.01 71.90 0.05Q71.60 0.10 71.30 0.10L71.30 0.10Q70.52 0.10 70.02-0.18Q69.53-0.46 69.28-1.08Q69.03-1.70 69.03-2.72L69.03-2.72Q69.03-4.16 69.55-4.83Q70.05-5.51 70.97-5.51L70.97-5.51Q71.85-5.51 72.31-4.84Q72.78-4.17 72.78-2.71L72.78-2.71ZM70.96-4.94Q70.42-4.94 70.13-4.51Q69.83-4.08 69.81-3.00L69.81-3.00L72.04-3.00Q72.03-3.73 71.90-4.17Q71.77-4.59 71.53-4.77Q71.30-4.94 70.96-4.94L70.96-4.94ZM73.73 0L73.73-5.42L74.38-5.42L74.43-4.82L74.48-4.82Q74.76-5.16 75.13-5.33Q75.49-5.51 75.92-5.51L75.92-5.51Q76.60-5.51 76.99-5.11Q77.38-4.71 77.38-3.79L77.38-3.79L77.38 0L76.62 0L76.62-3.75Q76.62-4.32 76.38-4.57Q76.15-4.82 75.71-4.82L75.71-4.82Q75.38-4.82 75.04-4.64Q74.70-4.46 74.49-4.10L74.49-4.10L74.49 0L73.73 0ZM79.64 0.10Q78.98 0.10 78.40-0.11L78.40-0.11L78.40-0.76Q79.06-0.55 79.63-0.55L79.63-0.55Q80.19-0.55 80.49-0.78Q80.78-1.02 80.78-1.46L80.78-1.46Q80.78-1.83 80.61-2.04Q80.42-2.24 80.05-2.35L80.05-2.35L79.50-2.49Q78.86-2.67 78.57-3.02Q78.28-3.38 78.28-3.96L78.28-3.96Q78.28-4.42 78.50-4.76Q78.72-5.12 79.15-5.31Q79.58-5.51 80.18-5.51L80.18-5.51Q80.72-5.51 81.23-5.39L81.23-5.39L81.23-4.74Q80.97-4.80 80.72-4.83Q80.48-4.87 80.21-4.87L80.21-4.87Q79.60-4.87 79.30-4.62Q79-4.37 79-3.97L79-3.97Q79-3.63 79.17-3.43Q79.34-3.23 79.71-3.13L79.71-3.13L80.26-2.98Q80.93-2.80 81.22-2.44Q81.50-2.08 81.50-1.49L81.50-1.49Q81.50-0.99 81.28-0.64Q81.05-0.28 80.64-0.09Q80.22 0.10 79.64 0.10L79.64 0.10ZM85.88-2.71L85.88-2.45L82.92-2.45Q82.93-1.74 83.10-1.32Q83.27-0.91 83.61-0.73Q83.94-0.55 84.48-0.55L84.48-0.55Q84.96-0.55 85.63-0.75L85.63-0.75L85.63-0.10Q85.30 0.01 85 0.05Q84.70 0.10 84.40 0.10L84.40 0.10Q83.62 0.10 83.13-0.18Q82.63-0.46 82.38-1.08Q82.14-1.70 82.14-2.72L82.14-2.72Q82.14-4.16 82.65-4.83Q83.16-5.51 84.07-5.51L84.07-5.51Q84.95-5.51 85.42-4.84Q85.88-4.17 85.88-2.71L85.88-2.71ZM84.06-4.94Q83.53-4.94 83.23-4.51Q82.93-4.08 82.92-3.00L82.92-3.00L85.14-3.00Q85.13-3.73 85.00-4.17Q84.87-4.59 84.63-4.77Q84.40-4.94 84.06-4.94L84.06-4.94ZM88.41 0.10Q87.89 0.10 87.48-0.17Q87.06-0.43 86.82-1.03Q86.58-1.64 86.58-2.60L86.58-2.60Q86.58-4.08 87.19-4.79Q87.81-5.50 89.04-5.50L89.04-5.50Q89.31-5.50 89.63-5.47L89.63-5.47L89.63-8.08L90.39-8.08L90.39 0L89.73 0L89.68-0.55L89.63-0.55Q89.45-0.26 89.13-0.08Q88.81 0.10 88.41 0.10L88.41 0.10ZM88.59-0.58Q88.91-0.58 89.19-0.73Q89.47-0.90 89.63-1.19L89.63-1.19L89.63-4.82Q89.51-4.84 89.32-4.86Q89.14-4.88 88.99-4.88L88.99-4.88Q88.17-4.88 87.77-4.37Q87.36-3.86 87.36-2.68L87.36-2.68Q87.36-1.85 87.52-1.39Q87.67-0.93 87.95-0.75Q88.22-0.58 88.59-0.58L88.59-0.58Z"/></svg>