<svg xmlns="http://www.w3.org/2000/svg" viewBox="5.904000000000001 41.82399999999999 730.296 58.824000000000005"><path d="M8 74L8 98L33 98L33 100L6 100L6 47L32 47L32 49L8 49L8 71L29 71L29 74L8 74ZM39 100L39 61L41 61L42 66L42 66Q44 63 47 62Q49 61 53 61L53 61Q63 61 63 72L63 72L63 100L60 100L60 72Q60 67 58 65Q56 63 52 63L52 63Q50 63 47 64Q44 66 42 69L42 69L42 100L39 100ZM84 101Q80 101 77 99Q74 97 72 92Q71 88 71 81L71 81Q71 73 72 69Q74 64 78 62Q81 61 86 61L86 61Q89 61 92 61L92 61L92 64Q91 63 89 63Q87 63 86 63L86 63Q82 63 79 65Q76 66 75 70Q73 74 73 80L73 80Q73 87 75 91Q76 95 78 97Q81 98 85 98L85 98Q88 98 92 97L92 97L92 99Q88 101 84 101L84 101ZM109 101Q96 101 96 81L96 81Q96 70 99 65Q102 61 109 61L109 61Q122 61 122 81L122 81Q122 91 119 96Q115 101 109 101L109 101ZM109 98Q112 98 115 97Q117 95 118 91Q120 87 120 81L120 81Q120 74 118 70Q117 66 115 65Q112 63 109 63L109 63Q105 63 103 65Q101 66 99 70Q98 74 98 80L98 80Q98 87 99 91Q101 95 103 97Q105 98 109 98L109 98ZM141 101Q136 101 132 96Q128 92 128 81L128 81Q128 71 133 66Q137 61 145 61L145 61Q148 61 151 61L151 61L151 42L153 42L153 100L151 100L151 96L150 96Q149 98 147 99Q144 101 141 101L141 101ZM141 98Q144 98 147 97Q149 95 151 93L151 93L151 63Q149 63 148 63Q146 63 145 63L145 63Q138 63 135 67Q131 71 131 81L131 81Q131 88 132 92Q134 95 136 97Q138 98 141 98L141 98ZM186 81L186 82L164 82Q164 88 165 92Q167 95 169 97Q172 98 176 98L176 98Q179 98 184 97L184 97L184 99Q180 101 176 101L176 101Q171 101 168 99Q165 97 163 92Q161 88 161 81L161 81Q161 70 165 65Q168 61 174 61L174 61Q180 61 183 65Q186 70 186 81L186 81ZM174 63Q169 63 167 67Q164 70 164 79L164 79L183 79Q183 73 182 69Q181 66 179 64Q177 63 174 63L174 63ZM217 101Q214 101 212 100Q209 100 207 99L207 99L207 96Q212 98 217 98L217 98Q223 98 226 95Q230 92 230 87L230 87Q230 83 229 81Q228 79 225 77Q223 76 219 74L219 74L217 74Q212 72 209 68Q206 65 206 60L206 60Q206 53 210 50Q214 46 222 46L222 46Q224 46 226 46Q229 47 230 47L230 47L230 50Q226 48 221 48L221 48Q215 48 212 51Q209 54 209 60L209 60Q209 63 210 65Q211 67 213 69Q215 70 219 71L219 71L221 72Q227 74 229 78Q232 81 232 86L232 86Q232 93 228 97Q224 101 217 101L217 101ZM249 61Q253 61 256 62Q258 63 260 66Q261 68 261 73L261 73L261 100L259 100L259 96L258 96Q257 98 254 99Q251 101 248 101L248 101Q245 101 243 99Q241 98 239 96Q238 94 238 90L238 90Q238 85 241 83Q244 80 250 79L250 79L259 78L259 73Q259 69 257 67Q256 65 254 64Q252 63 249 63L249 63Q247 63 245 63Q242 64 240 65L240 65L240 62Q242 61 244 61Q247 61 249 61L249 61ZM249 98Q251 98 254 97Q257 95 259 92L259 92L259 81L250 82Q245 82 243 84Q241 86 241 90L241 90Q241 94 243 96Q245 98 249 98L249 98ZM271 100L271 61L273 61L273 66L274 66Q276 63 278 62Q281 61 284 61L284 61Q294 61 294 72L294 72L294 100L292 100L292 72Q292 67 290 65Q288 63 284 63L284 63Q281 63 278 64Q275 66 273 69L273 69L273 100L271 100ZM311 101Q307 101 303 99L303 99L303 97Q305 98 307 98Q309 98 311 98L311 98Q315 98 318 96Q321 94 321 90L321 90Q321 87 319 85Q317 83 314 82L314 82L311 81Q306 80 304 77Q302 75 302 71L302 71Q302 68 303 66Q305 63 308 62Q310 61 314 61L314 61Q318 61 321 61L321 61L321 64Q319 63 318 63Q316 63 314 63L314 63Q311 63 309 64Q307 65 306 67Q305 69 305 71L305 71Q305 74 306 76Q308 78 311 79L311 79L314 79Q319 81 321 83Q323 86 323 90L323 90Q323 95 320 98Q317 101 311 101L311 101ZM363 101Q357 101 353 98Q348 96 346 89Q344 83 344 73L344 73Q344 63 346 57Q348 51 353 49Q357 46 364 46L364 46Q368 46 373 48L373 48L373 50Q371 49 368 49Q366 48 363 48L363 48Q358 48 354 51Q350 53 348 59Q346 64 346 73L346 73Q346 83 348 88Q350 94 354 96Q358 98 363 98L363 98Q366 98 368 98Q370 97 373 96L373 96L373 99Q368 101 363 101L363 101ZM389 101Q375 101 375 81L375 81Q375 70 379 65Q382 61 389 61L389 61Q402 61 402 81L402 81Q402 91 399 96Q395 101 389 101L389 101ZM389 98Q392 98 394 97Q397 95 398 91Q399 87 399 81L399 81Q399 74 398 70Q397 66 394 65Q392 63 389 63L389 63Q385 63 383 65Q381 66 379 70Q378 74 378 80L378 80Q378 87 379 91Q381 95 383 97Q385 98 389 98L389 98ZM410 100L410 61L412 61L413 66L413 66Q415 63 418 62Q421 61 424 61L424 61Q434 61 434 72L434 72L434 100L431 100L431 72Q431 67 429 65Q427 63 424 63L424 63Q421 63 418 64Q415 66 413 69L413 69L413 100L410 100ZM455 101Q449 101 445 96Q442 92 442 81L442 81Q442 71 446 66Q450 61 458 61L458 61Q461 61 464 61L464 61L464 42L466 42L466 100L464 100L464 96L464 96Q462 98 460 99Q458 101 455 101L455 101ZM455 98Q458 98 460 97Q463 95 464 93L464 93L464 63Q463 63 461 63Q460 63 458 63L458 63Q451 63 448 67Q444 71 444 81L444 81Q444 88 446 92Q447 95 449 97Q452 98 455 98L455 98ZM499 81L499 82L477 82Q477 88 479 92Q480 95 483 97Q485 98 490 98L490 98Q493 98 498 97L498 97L498 99Q493 101 489 101L489 101Q484 101 481 99Q478 97 476 92Q475 88 475 81L475 81Q475 70 478 65Q481 61 487 61L487 61Q493 61 496 65Q499 70 499 81L499 81ZM487 63Q483 63 480 67Q477 70 477 79L477 79L497 79Q497 73 495 69Q494 66 492 64Q490 63 487 63L487 63ZM507 100L507 61L509 61L510 66L510 66Q512 63 515 62Q517 61 521 61L521 61Q531 61 531 72L531 72L531 100L528 100L528 72Q528 67 526 65Q524 63 520 63L520 63Q518 63 515 64Q512 66 510 69L510 69L510 100L507 100ZM547 101Q543 101 539 99L539 99L539 97Q541 98 543 98Q545 98 547 98L547 98Q552 98 554 96Q557 94 557 90L557 90Q557 87 555 85Q554 83 550 82L550 82L547 81Q542 80 540 77Q538 75 538 71L538 71Q538 68 540 66Q541 63 544 62Q547 61 551 61L551 61Q554 61 557 61L557 61L557 64Q556 63 554 63Q552 63 551 63L551 63Q547 63 545 64Q543 65 542 67Q541 69 541 71L541 71Q541 74 542 76Q544 78 547 79L547 79L550 79Q555 81 557 83Q559 86 559 90L559 90Q559 95 556 98Q553 101 547 101L547 101ZM589 81L589 82L567 82Q567 88 569 92Q570 95 573 97Q575 98 580 98L580 98Q583 98 588 97L588 97L588 99Q584 101 579 101L579 101Q575 101 571 99Q568 97 566 92Q565 88 565 81L565 81Q565 70 568 65Q572 61 577 61L577 61Q583 61 586 65Q589 70 589 81L589 81ZM577 63Q573 63 570 67Q568 70 567 79L567 79L587 79Q587 73 586 69Q584 66 582 64Q580 63 577 63L577 63ZM608 101Q602 101 599 96Q595 92 595 81L595 81Q595 71 600 66Q604 61 612 61L612 61Q615 61 617 61L617 61L617 42L620 42L620 100L618 100L617 96L617 96Q616 98 613 99Q611 101 608 101L608 101ZM608 98Q611 98 614 97Q616 95 617 93L617 93L617 63Q616 63 615 63Q613 63 612 63L612 63Q605 63 601 67Q598 71 598 81L598 81Q598 88 599 92Q601 95 603 97Q605 98 608 98L608 98ZM657 98Q659 98 661 98L661 98L661 100Q659 101 657 101L657 101Q652 101 650 98Q647 96 647 90L647 90L647 63L640 63L640 61L647 61L647 47L650 47L650 61L660 61L660 63L650 63L650 90Q650 94 651 96Q653 98 657 98L657 98ZM666 100L666 42L669 42L669 66L669 66Q671 63 674 62Q677 61 680 61L680 61Q684 61 687 63Q690 66 690 72L690 72L690 100L687 100L687 72Q687 67 685 65Q683 63 680 63L680 63Q677 63 674 65Q671 66 669 69L669 69L669 100L666 100ZM702 100L700 100L700 61L702 61L702 100ZM701 51Q700 51 700 50Q699 50 699 49L699 49Q699 48 700 47Q700 47 701 47L701 47Q702 47 703 47Q703 48 703 49L703 49Q703 50 703 50Q702 51 701 51L701 51ZM713 100L713 61L715 61L715 66L715 66Q717 63 720 62Q723 61 726 61L726 61Q736 61 736 72L736 72L736 100L734 100L734 72Q734 67 732 65Q730 63 726 63L726 63Q723 63 720 64Q717 66 715 69L715 69L715 100L713 100Z"/></svg>