<svg xmlns="http://www.w3.org/2000/svg" viewBox="5.256 45.06399999999999 404.2080000000001 55.36800000000001"><path d="M16.63 100.29Q11.88 100.29 8.57 98.13Q5.26 95.97 5.26 89.56L5.26 89.56L5.26 58.02Q5.26 52.19 8.42 49.56Q11.59 46.94 16.06 46.94L16.06 46.94Q24.62 46.94 35.42 47.51L35.42 47.51L38.66 47.66L38.66 53.63L18.22 53.63Q12.53 53.63 12.53 59.32L12.53 59.32L12.53 70.34L35.42 70.77L35.42 76.38L12.53 76.89L12.53 87.76Q12.53 91.14 14.11 92.33Q15.70 93.52 18.36 93.52L18.36 93.52L38.66 93.52L38.66 99.50Q26.28 100.29 16.63 100.29L16.63 100.29ZM78.48 61.48L65.09 81.14L78.48 100L71.14 100L60.84 85.53L51.12 100L43.78 100L57.17 80.34L43.78 61.48L51.12 61.48L61.42 76.02L71.14 61.55L78.48 61.48ZM98.35 100.43Q92.23 100.43 88.56 98.70Q84.89 96.98 83.12 92.69Q81.36 88.41 81.36 80.70L81.36 80.70Q81.36 72.78 83.16 68.50Q84.96 64.22 88.60 62.60Q92.23 60.98 98.35 60.98L98.35 60.98Q104.47 60.98 108.11 62.63Q111.74 64.29 113.54 68.57Q115.34 72.86 115.34 80.70L115.34 80.70Q115.34 88.48 113.58 92.76Q111.82 97.05 108.18 98.74Q104.54 100.43 98.35 100.43L98.35 100.43ZM98.35 94.53Q101.95 94.53 104.00 93.56Q106.06 92.58 107.10 89.60Q108.14 86.61 108.14 80.63L108.14 80.63Q108.14 74.66 107.10 71.67Q106.06 68.68 104.00 67.74Q101.95 66.81 98.35 66.81L98.35 66.81Q94.68 66.81 92.70 67.74Q90.72 68.68 89.68 71.67Q88.63 74.66 88.63 80.63L88.63 80.63Q88.63 86.68 89.68 89.67Q90.72 92.66 92.70 93.59Q94.68 94.53 98.35 94.53L98.35 94.53ZM143.35 100L143.35 61.48L149.11 61.48L150.55 65.66Q153.79 63.42 157.14 62.13Q160.49 60.83 164.52 60.83L164.52 60.83Q167.98 60.83 170.50 62.34Q173.02 63.86 174.46 66.45L174.46 66.45Q177.34 64.22 181.48 62.52Q185.62 60.83 189.29 60.83L189.29 60.83Q195.48 60.83 198.43 64.47Q201.38 68.10 201.38 74.30L201.38 74.30L201.38 100L194.18 100L194.18 74.94Q194.18 71.49 192.20 69.44Q190.22 67.38 186.84 67.38L186.84 67.38Q184.10 67.38 181.12 68.43Q178.13 69.47 175.39 71.20L175.39 71.20Q175.97 73.14 175.97 75.02L175.97 75.02L175.97 100L168.77 100L168.77 74.94Q168.77 71.49 166.82 69.44Q164.88 67.38 161.50 67.38L161.50 67.38Q158.47 67.38 155.99 68.25Q153.50 69.11 150.55 70.84L150.55 70.84L150.55 100L143.35 100ZM226.44 100.43Q220.18 100.43 216.61 98.63Q213.05 96.83 211.50 92.58Q209.95 88.34 209.95 80.70L209.95 80.70Q209.95 72.93 211.50 68.68Q213.05 64.43 216.58 62.70Q220.10 60.98 226.37 60.98L226.37 60.98Q231.84 60.98 235.08 62.13Q238.32 63.28 239.83 66.09Q241.34 68.90 241.34 73.86L241.34 73.86Q241.34 78.98 238.39 81.24Q235.44 83.51 229.90 83.51L229.90 83.51L217.15 83.51Q217.22 87.90 218.12 90.32Q219.02 92.73 221.40 93.81Q223.78 94.89 228.24 94.89L228.24 94.89L240.26 94.89L240.26 99.21Q236.30 99.78 233.28 100.11Q230.26 100.43 226.44 100.43L226.44 100.43ZM217.08 78.98L229.25 78.98Q232.20 78.98 233.53 77.86Q234.86 76.74 234.86 73.94L234.86 73.94Q234.86 69.62 232.96 67.96Q231.05 66.30 226.37 66.30L226.37 66.30Q222.70 66.30 220.72 67.38Q218.74 68.46 217.91 71.16Q217.08 73.86 217.08 78.98L217.08 78.98ZM262.66 100.43Q255.60 100.43 252.22 95.79Q248.83 91.14 248.83 81.06L248.83 81.06Q248.83 73.79 250.24 69.44Q251.64 65.08 254.81 63.03Q257.98 60.98 263.38 60.98L263.38 60.98Q268.34 60.98 274.61 63.06L274.61 63.06L274.61 45.06L281.81 45.06L281.81 100L275.90 100L274.61 96.18Q272.81 97.77 269.24 99.10Q265.68 100.43 262.66 100.43L262.66 100.43ZM264.96 94.53Q269.42 94.53 274.61 91.65L274.61 91.65L274.61 68.25Q274.18 68.10 272.30 67.56Q270.43 67.02 268.78 66.77Q267.12 66.52 265.54 66.52L265.54 66.52Q262.01 66.52 259.99 67.78Q257.98 69.04 257.04 72.10Q256.10 75.16 256.10 80.70L256.10 80.70Q256.10 85.89 256.97 88.88Q257.83 91.86 259.78 93.20Q261.72 94.53 264.96 94.53L264.96 94.53ZM292.68 55.00Q292.10 55.00 291.74 54.68Q291.38 54.35 291.38 53.78L291.38 53.78L291.38 47.73Q291.38 46.43 292.68 46.43L292.68 46.43L298.01 46.43Q298.58 46.43 298.87 46.79Q299.16 47.15 299.16 47.73L299.16 47.73L299.16 53.78Q299.16 55.00 298.01 55.00L298.01 55.00L292.68 55.00ZM291.67 100L291.67 61.48L298.87 61.48L298.87 100L291.67 100ZM320.26 100.43Q314.71 100.43 311.80 97.48Q308.88 94.53 308.88 88.62L308.88 88.62L308.88 61.48L316.08 61.48L316.08 86.68Q316.08 90.78 317.95 92.40Q319.82 94.02 323.64 94.02L323.64 94.02Q328.97 94.02 334.30 90.64L334.30 90.64L334.30 61.48L341.50 61.48L341.50 100L335.74 100L334.30 95.82Q327.10 100.43 320.26 100.43L320.26 100.43ZM351.43 100L351.43 61.48L357.19 61.48L358.63 65.66Q361.87 63.42 365.22 62.13Q368.57 60.83 372.60 60.83L372.60 60.83Q376.06 60.83 378.58 62.34Q381.10 63.86 382.54 66.45L382.54 66.45Q385.42 64.22 389.56 62.52Q393.70 60.83 397.37 60.83L397.37 60.83Q403.56 60.83 406.51 64.47Q409.46 68.10 409.46 74.30L409.46 74.30L409.46 100L402.26 100L402.26 74.94Q402.26 71.49 400.28 69.44Q398.30 67.38 394.92 67.38L394.92 67.38Q392.18 67.38 389.20 68.43Q386.21 69.47 383.47 71.20L383.47 71.20Q384.05 73.14 384.05 75.02L384.05 75.02L384.05 100L376.85 100L376.85 74.94Q376.85 71.49 374.90 69.44Q372.96 67.38 369.58 67.38L369.58 67.38Q366.55 67.38 364.07 68.25Q361.58 69.11 358.63 70.84L358.63 70.84L358.63 100L351.43 100Z"/></svg>