<svg xmlns="http://www.w3.org/2000/svg" viewBox="6.192000000000001 45.06399999999999 637.7040000000001 55.36800000000001"><path d="M17 100Q13 100 9 98Q6 96 6 91L6 91Q6 90 6 89L6 89L11 58Q12 52 16 50Q19 47 25 47L25 47Q33 47 46 48L46 48L45 55L26 55Q23 55 22 56Q20 58 20 61L20 61L18 69L40 70L38 77L17 77L16 87Q16 88 16 88L16 88Q16 90 17 91Q18 92 21 92L21 92L40 92L38 99Q25 100 17 100L17 100ZM86 61L70 81L81 100L71 100L64 87L53 100L43 100L60 80L49 61L58 61L66 75L77 61L86 61ZM100 100Q85 100 85 87L85 87Q85 84 86 80L86 80Q87 72 89 68Q92 64 96 63Q100 61 106 61L106 61Q112 61 115 62Q118 64 120 67Q121 70 121 75L121 75Q121 78 120 83L120 83Q119 90 117 93Q114 97 110 99Q106 100 100 100L100 100ZM101 93Q104 93 106 92Q108 91 110 89Q111 86 112 81L112 81Q112 76 112 75L112 75Q112 71 111 70Q109 68 105 68L105 68Q102 68 100 69Q98 70 97 73Q95 76 95 81L95 81Q94 85 94 87L94 87Q94 90 96 92Q97 93 101 93L101 93ZM158 100Q153 100 149 100Q145 100 142 99L142 99L143 94L159 94Q165 94 165 90L165 90L166 88L166 87Q166 84 162 84L162 84L156 84Q151 84 148 83Q145 81 145 77L145 77Q145 75 145 74L145 74L146 71Q147 66 150 64Q154 61 161 61L161 61Q164 61 169 61Q173 62 176 63L176 63L175 68L159 68Q157 68 155 69Q154 70 154 72L154 72L154 73Q153 74 153 75L153 75Q153 76 154 77Q155 77 157 77L157 77L164 77Q169 77 171 79Q174 81 174 85L174 85Q174 86 174 88L174 88L173 91Q173 96 169 98Q165 100 158 100L158 100ZM196 100Q188 100 184 97Q181 93 181 86L181 86Q181 83 181 79L181 79Q183 70 188 65Q193 61 201 61L201 61Q208 61 212 63Q216 66 216 72L216 72Q216 79 211 82Q206 85 199 85L199 85Q193 85 190 84L190 84Q189 86 189 87L189 87Q189 91 192 92Q194 94 199 94L199 94L212 94L211 99Q204 100 196 100L196 100ZM196 80Q202 80 205 78Q207 77 207 73L207 73Q207 70 206 69Q204 68 201 68L201 68Q196 68 193 71Q191 74 190 79L190 79Q193 80 196 80L196 80ZM219 100L225 61L232 61L233 65Q240 61 247 61L247 61Q251 61 253 62Q255 64 256 67L256 67Q260 64 264 62Q267 61 271 61L271 61Q281 61 281 70L281 70Q281 73 281 75L281 75L277 100L268 100L272 76Q272 75 272 74L272 74Q272 69 267 69L267 69Q264 69 262 70Q259 71 256 73L256 73Q256 74 256 76L256 76L252 100L243 100L247 76Q247 75 247 74L247 74Q247 69 242 69L242 69Q239 69 237 70Q235 71 232 72L232 72L228 100L219 100ZM294 55Q293 55 293 55Q293 55 293 54L293 54L294 47Q294 46 295 46L295 46L302 46Q303 46 303 46Q303 47 303 47L303 47L302 54Q302 55 301 55L301 55L294 55ZM285 100L292 61L301 61L294 100L285 100ZM342 100Q339 100 335 99Q332 98 330 96L330 96L328 100L320 100L329 45L338 45L335 64Q338 63 341 62Q344 61 346 61L346 61Q352 61 355 64Q358 68 358 74L358 74Q358 77 357 83L357 83Q356 91 352 96Q348 100 342 100L342 100ZM339 93Q343 93 346 90Q348 87 349 81L349 81Q349 77 349 76L349 76Q349 72 348 70Q346 68 343 68L343 68Q341 68 339 69Q336 69 334 71L334 71L331 91Q333 92 335 93Q337 93 339 93L339 93ZM378 100Q363 100 363 87L363 87Q363 84 364 80L364 80Q365 72 368 68Q370 64 374 63Q378 61 384 61L384 61Q390 61 393 62Q397 64 398 67Q399 70 399 75L399 75Q399 78 398 83L398 83Q397 90 395 93Q393 97 389 99Q385 100 378 100L378 100ZM379 93Q382 93 384 92Q386 91 388 89Q389 86 390 81L390 81Q390 76 390 75L390 75Q390 71 389 70Q387 68 383 68L383 68Q380 68 378 69Q376 70 375 73Q373 76 373 81L373 81Q372 85 372 87L372 87Q372 90 374 92Q376 93 379 93L379 93ZM415 100Q410 100 407 98Q405 96 405 92L405 92Q405 89 405 87L405 87L412 45L421 45L414 84Q414 84 414 86Q414 88 414 89L414 89Q414 91 415 92Q416 93 418 93L418 93L421 94L420 100L415 100ZM438 100Q433 100 430 97Q427 94 427 87L427 87Q427 84 428 79L428 79Q429 73 431 69Q433 65 437 63Q441 61 447 61L447 61Q452 61 455 62L455 62L458 45L467 45L458 100L450 100L450 96Q447 98 444 99Q441 100 438 100L438 100ZM442 93Q444 93 446 92Q448 92 451 90L451 90L454 70Q451 68 447 68L447 68Q444 68 442 69Q440 70 438 73Q437 76 436 81L436 81Q436 83 436 86L436 86Q436 90 437 91Q439 93 442 93L442 93ZM492 55Q492 55 491 55Q491 55 491 54L491 54L492 47Q492 46 494 46L494 46L501 46Q501 46 501 46Q502 47 502 47L502 47L501 54Q500 55 499 55L499 55L492 55ZM484 100L490 61L499 61L493 100L484 100ZM517 100Q506 100 506 91L506 91Q506 89 507 85L507 85L510 69L504 69L505 63L511 61L514 51L521 51L519 61L529 61L528 69L518 69L516 85Q515 87 515 89L515 89Q515 91 516 92Q517 93 519 93L519 93L524 93L523 100L517 100ZM542 100Q537 100 534 97Q531 94 531 87L531 87Q531 85 532 79L532 79Q534 70 539 65Q543 61 552 61L552 61Q557 61 561 62Q566 63 568 65L568 65L563 100L555 100L554 96Q553 98 549 99Q545 100 542 100L542 100ZM546 93Q549 93 551 92Q553 92 555 90L555 90L559 70Q558 69 556 69Q554 68 552 68L552 68Q547 68 544 71Q542 74 541 80L541 80Q540 84 540 86L540 86Q540 89 542 91Q543 93 546 93L546 93ZM583 100Q578 100 576 98Q573 96 573 92L573 92Q573 89 573 87L573 87L580 45L589 45L583 84Q582 84 582 86Q582 88 582 89L582 89Q582 91 583 92Q584 93 586 93L586 93L589 94L588 100L583 100ZM602 55Q601 55 601 55Q601 55 601 54L601 54L602 47Q602 46 603 46L603 46L610 46Q611 46 611 46Q611 47 611 47L611 47L610 54Q610 55 609 55L609 55L602 55ZM593 100L600 61L609 61L602 100L593 100ZM626 100Q619 100 616 97Q612 94 612 86L612 86Q612 83 613 79L613 79Q616 61 631 61L631 61Q636 61 644 63L644 63L643 68L633 68Q628 68 625 71Q623 74 622 81L622 81Q621 84 621 85L621 85Q621 90 623 92Q625 94 629 94L629 94L640 94L639 99Q633 100 626 100L626 100Z"/></svg>