<svg xmlns="http://www.w3.org/2000/svg" viewBox="3.0980000000000008 48.80799999999999 529.1980000000001 52.128000000000014"><path d="M42 51L41 59L22 59Q20 59 19 60Q18 61 18 63L18 63L17 70L36 70L35 78L16 78L14 88Q14 90 15 91Q16 91 18 91L18 91L36 91L36 99Q29 100 14 100L14 100Q8 100 5 97Q3 94 3 88L3 88L7 60Q8 55 11 53Q14 50 19 50L19 50Q35 50 42 51L42 51ZM82 65L70 82L78 100L68 100L61 85L61 85L50 100L39 100L52 82L45 65L55 65L61 78L61 78L71 65L82 65ZM103 63L103 63Q113 63 117 68Q121 72 120 83L120 83Q118 93 114 97Q109 101 100 101L100 101Q90 101 86 96Q82 92 83 82L83 82Q85 72 89 68Q94 63 103 63ZM103 71L103 71Q99 71 97 74Q95 76 94 83L94 83Q93 89 94 91Q96 93 100 93L100 93Q104 93 106 91Q108 88 109 82L109 82Q110 76 109 74Q107 71 103 71ZM146 59L146 59L146 51Q154 49 162 49L162 49Q166 49 169 50Q172 50 174 52Q176 53 177 55Q178 58 178 61L178 61Q177 66 175 69Q173 73 168 77L168 77L153 91Q156 90 161 90L161 90L175 90L174 100L139 100L140 94Q140 91 141 89L141 89L156 76Q161 71 164 68Q166 65 167 62L167 62Q167 60 166 59Q164 59 161 59L161 59Q153 59 146 59ZM204 50L214 50L213 62Q212 67 211 70L211 70Q218 64 225 64L225 64Q231 64 234 68Q236 72 235 83L235 83Q233 93 229 97Q225 101 216 101L216 101Q212 101 206 100Q200 99 197 98L197 98L204 50ZM211 77L211 77L208 93Q213 93 214 93L214 93Q219 93 221 91Q223 89 224 82L224 82Q225 76 224 74Q223 72 221 72L221 72Q217 72 211 77ZM261 63L261 63Q271 63 274 68Q278 72 277 83L277 83Q276 93 271 97Q266 101 257 101L257 101Q247 101 243 96Q239 92 240 82L240 82Q242 72 246 68Q251 63 261 63ZM261 71L261 71Q256 71 254 74Q252 76 251 83L251 83Q251 89 252 91Q253 93 257 93L257 93Q261 93 263 91Q265 88 266 82L266 82Q267 76 266 74Q265 71 261 71ZM289 50L299 50L294 89Q293 91 294 91Q295 92 297 92L297 92L300 92L301 100Q298 101 292 101L292 101Q287 101 285 98Q282 96 283 91L283 91L289 50ZM335 50L346 50L339 100L330 100L330 94Q323 101 316 101L316 101Q310 101 307 96Q305 92 306 82L306 82Q307 76 308 72Q310 69 312 67Q314 65 316 64Q319 63 322 63L322 63Q328 63 334 64L334 64Q334 60 334 57L334 57L335 50ZM330 86L332 71L327 71Q321 71 320 73Q318 75 317 82L317 82Q316 88 317 90Q317 92 320 92Q322 92 325 91Q327 89 330 86L330 86ZM373 49L373 49L378 49Q381 49 381 52L381 52L380 56Q380 59 377 59L377 59L372 59Q369 59 370 56L370 56L370 52Q370 49 373 49ZM379 65L374 100L363 100L368 65L379 65ZM411 72L401 72L398 89Q398 91 399 91Q399 92 401 92L401 92L406 92L407 99Q403 101 397 101L397 101Q392 101 389 98Q387 95 388 90L388 90L390 72L384 72L385 65L391 65L393 55L403 55L402 65L412 65L411 72ZM451 66L446 100L438 100L438 94Q433 101 424 101L424 101Q417 101 415 97Q412 92 414 82L414 82Q414 77 416 73Q417 70 419 68Q420 66 423 65Q425 64 428 64Q430 63 434 63L434 63Q437 63 443 64Q448 65 451 66L451 66ZM438 86L440 71L434 71Q429 71 427 73Q425 75 424 82L424 82Q424 89 424 90Q425 92 427 92L427 92Q432 92 438 86L438 86ZM462 50L473 50L467 89Q467 91 467 91Q468 92 470 92L470 92L473 92L474 100Q471 101 466 101L466 101Q461 101 458 98Q456 96 456 91L456 91L462 50ZM489 49L489 49L493 49Q496 49 496 52L496 52L496 56Q495 59 492 59L492 59L488 59Q484 59 485 56L485 56L485 52Q485 49 489 49ZM494 65L489 100L479 100L484 65L494 65ZM528 92L528 92L529 99Q523 101 515 101L515 101Q505 101 501 96Q498 92 499 82L499 82Q501 72 505 68Q509 63 519 63L519 63Q527 63 532 66L532 66L531 72Q523 72 520 72L520 72Q515 72 513 74Q511 76 510 82L510 82Q509 89 511 90Q512 92 517 92L517 92Q524 92 528 92Z"/></svg>