<svg xmlns="http://www.w3.org/2000/svg" viewBox="0.3562745098039216 -7.0200000000000005 24.921651416122007 7.140000000000001"><path d="M5.96-6.81L5.74-5.47L3.26-5.47Q2.99-5.47 2.87-5.37Q2.75-5.27 2.72-5.01L2.72-5.01L2.61-4.19L5.20-4.19L5.04-2.91L2.43-2.91L2.29-1.87Q2.25-1.64 2.35-1.54Q2.44-1.43 2.69-1.43L2.69-1.43L5.16-1.43L5.12-0.07Q4.27 0.03 1.92 0.03L1.92 0.03Q1.07 0.03 0.67-0.45Q0.27-0.93 0.38-1.74L0.38-1.74L0.90-5.48Q1-6.16 1.44-6.54Q1.88-6.93 2.62-6.93L2.62-6.93Q5.04-6.93 5.96-6.81L5.96-6.81ZM11.82-4.97L10.10-2.54L11.20 0L9.48 0L8.68-1.99L7.30 0L5.41 0L7.25-2.54L6.24-4.97L7.94-4.97L8.68-3.10L9.98-4.97L11.82-4.97ZM14.74-5.11L14.74-5.11Q16.20-5.11 16.78-4.49Q17.36-3.86 17.15-2.41L17.15-2.41Q16.95-1.01 16.30-0.45Q15.64 0.12 14.22 0.12L14.22 0.12Q12.77 0.12 12.17-0.50Q11.58-1.12 11.79-2.55L11.79-2.55Q11.99-3.97 12.64-4.54Q13.29-5.11 14.74-5.11ZM14.71-3.83L14.71-3.83Q14.21-3.83 14.01-3.56Q13.81-3.28 13.68-2.41L13.68-2.41Q13.57-1.64 13.68-1.40Q13.80-1.15 14.28-1.15L14.28-1.15Q14.75-1.15 14.95-1.43Q15.15-1.71 15.27-2.55L15.27-2.55Q15.39-3.33 15.28-3.58Q15.17-3.83 14.71-3.83ZM20.56-5.40L20.56-5.40L20.59-6.80Q21.81-7.02 22.95-7.02L22.95-7.02Q24.24-7.02 24.80-6.66Q25.37-6.29 25.26-5.28L25.26-5.28Q25.20-4.72 24.92-4.25Q24.65-3.79 23.98-3.20L23.98-3.20L22.06-1.49Q22.50-1.62 23.04-1.62L23.04-1.62L24.96-1.62L24.74 0L19.62 0L19.76-1.01Q19.84-1.52 20.07-1.76L20.07-1.76L21.86-3.35Q22.74-4.16 23.03-4.49Q23.32-4.81 23.38-5.10L23.38-5.10Q23.42-5.31 23.28-5.38Q23.15-5.45 22.78-5.45L22.78-5.45Q21.51-5.45 20.56-5.40Z"/></svg>