<svg xmlns="http://www.w3.org/2000/svg" viewBox="0.88 -7.3203076171875 14.489999999999998 7.3803076171874995"><path d="M2.25 0.03Q1.63 0.04 1.26-0.21Q0.88-0.47 0.88-1.23L0.88-1.23L0.88-6.02Q0.88-6.70 1.24-7.02Q1.60-7.33 2.14-7.32L2.14-7.32L5.11-7.26L5.11-7.10L2.14-7.10Q1.66-7.10 1.39-6.83Q1.12-6.57 1.12-6.02L1.12-6.02L1.12-3.74L4.71-3.71L4.71-3.55L1.12-3.52L1.12-1.23Q1.12-0.60 1.42-0.40Q1.72-0.19 2.24-0.19L2.24-0.19L5.11-0.19L5.11-0.03L2.25 0.03ZM10.27-5.31L8.33-2.65L10.27 0L10 0L8.18-2.49L6.36 0L6.11 0L8.05-2.66L6.11-5.31L6.38-5.31L8.21-2.81L10.01-5.30L10.27-5.31ZM13.17 0.06Q12.42 0.06 11.95-0.15Q11.49-0.36 11.24-0.96Q10.99-1.55 10.99-2.66L10.99-2.66Q10.99-3.77 11.24-4.36Q11.49-4.95 11.95-5.16Q12.42-5.37 13.17-5.37L13.17-5.37Q13.92-5.37 14.39-5.16Q14.86-4.95 15.11-4.36Q15.37-3.77 15.37-2.66L15.37-2.66Q15.37-1.55 15.11-0.96Q14.86-0.36 14.39-0.15Q13.92 0.06 13.17 0.06L13.17 0.06ZM13.17-0.16Q13.86-0.16 14.27-0.34Q14.68-0.52 14.90-1.06Q15.13-1.60 15.13-2.66L15.13-2.66Q15.13-3.72 14.90-4.26Q14.68-4.80 14.27-4.98Q13.86-5.15 13.17-5.15L13.17-5.15Q12.48-5.15 12.07-4.98Q11.67-4.80 11.45-4.26Q11.23-3.72 11.23-2.66L11.23-2.66Q11.23-1.60 11.45-1.06Q11.67-0.52 12.07-0.34Q12.48-0.16 13.17-0.16L13.17-0.16Z"/></svg>