<svg xmlns="http://www.w3.org/2000/svg" viewBox="0.78 -7.0200000000000005 23.089999999999996 7.15"><path d="M2.34-0.83L5.08-0.83L5.13-0.06Q4.22 0.02 2.17 0.02L2.17 0.02Q1.53 0.02 1.16-0.32Q0.79-0.65 0.78-1.22L0.78-1.22L0.78-5.68Q0.79-6.25 1.16-6.58Q1.53-6.92 2.17-6.92L2.17-6.92Q4.22-6.92 5.13-6.84L5.13-6.84L5.08-6.06L2.34-6.06Q2.04-6.06 1.92-5.92Q1.79-5.77 1.79-5.42L1.79-5.42L1.79-4.04L4.70-4.04L4.70-3.23L1.79-3.23L1.79-1.47Q1.79-1.12 1.92-0.97Q2.04-0.83 2.34-0.83L2.34-0.83ZM9.70 0L8.38-2.16L8.19-2.16L6.87 0L5.82 0L7.42-2.52L5.94-4.88L6.98-4.88L8.18-2.91L8.39-2.91L9.58-4.88L10.62-4.88L9.15-2.52L10.75 0L9.70 0ZM11.89-4.42Q12.42-5.01 13.69-5.01Q14.96-5.01 15.49-4.42Q16.02-3.83 16.02-2.43Q16.02-1.03 15.49-0.45Q14.96 0.13 13.69 0.13Q12.42 0.13 11.89-0.45Q11.36-1.03 11.36-2.43Q11.36-3.83 11.89-4.42ZM14.73-3.82Q14.45-4.19 13.69-4.19Q12.93-4.19 12.65-3.82Q12.37-3.45 12.37-2.43L12.37-2.43Q12.37-1.42 12.65-1.05Q12.93-0.68 13.69-0.68Q14.45-0.68 14.73-1.05Q15.01-1.42 15.01-2.43L15.01-2.43Q15.01-3.45 14.73-3.82ZM19.41-5.99L19.41-5.99L19.35-6.77Q20.47-7.02 21.49-7.02L21.49-7.02Q22.58-7.02 23.10-6.71Q23.63-6.40 23.63-5.51L23.63-5.51Q23.63-4.87 23.37-4.33Q23.11-3.79 22.43-3.04L22.43-3.04L20.51-0.93Q20.98-0.97 21.61-0.97L21.61-0.97L23.87-0.97L23.87 0L19.30 0L19.30-0.63Q19.30-0.90 19.45-1.05L19.45-1.05L21.37-3.22Q22.65-4.60 22.62-5.45L22.62-5.45Q22.61-5.88 22.32-6.01Q22.04-6.14 21.40-6.14L21.40-6.14Q20.50-6.14 19.41-5.99Z"/></svg>