<svg xmlns="http://www.w3.org/2000/svg" viewBox="3.9600000000000004 49.455999999999996 550.224 51.48000000000001"><path d="M21 90L39 90L40 99Q33 100 15 100L15 100Q10 100 7 97Q4 94 4 90L4 90L4 61Q4 56 7 53Q10 50 15 50L15 50Q33 50 40 51L40 51L39 61L21 61Q17 61 17 64L17 64L17 70L37 70L37 79L17 79L17 87Q17 90 21 90L21 90ZM84 100L71 100L63 86L56 100L42 100L53 82L43 64L56 64L63 78L70 64L84 64L74 82L84 100ZM105 63L105 63Q116 63 120 67Q124 72 124 82L124 82Q124 92 120 97Q116 101 105 101Q94 101 90 97Q86 92 86 82L86 82Q86 72 90 67Q95 63 105 63ZM105 72L105 72Q102 72 101 74Q100 76 100 82L100 82Q100 88 101 90Q102 92 105 92L105 92Q108 92 109 90Q111 88 111 82L111 82Q111 76 109 74Q108 72 105 72ZM146 61L146 61L145 51Q154 49 163 49L163 49Q172 49 176 52Q181 55 181 61L181 61Q181 66 179 69Q177 72 173 77L173 77L160 89Q163 88 167 88L167 88L182 88L182 100L145 100L145 93Q145 90 147 88L147 88L158 76Q167 67 167 63L167 63Q167 62 165 61Q164 61 161 61L161 61Q152 61 146 61ZM227 86L227 86L216 86Q217 88 218 90Q220 91 223 91L223 91Q230 91 237 90L237 90L238 98Q232 101 222 101L222 101Q211 101 207 96Q202 92 202 82L202 82Q202 72 207 67Q211 63 221 63L221 63Q231 63 235 66Q239 69 239 76L239 76Q239 81 237 83Q234 86 227 86ZM216 79L216 79L223 79Q225 79 226 78Q227 77 227 76L227 76Q227 74 226 73Q225 72 222 72L222 72Q218 72 217 73Q216 75 216 79ZM283 100L270 100L262 86L254 100L241 100L252 82L242 64L255 64L262 78L269 64L282 64L272 82L283 100ZM313 72L304 72L304 88Q304 89 304 90Q305 91 307 91L307 91L311 91L313 99Q309 101 301 101L301 101Q296 101 293 98Q291 96 291 91L291 91L291 72L284 72L284 65L290 64L290 55L304 55L304 64L313 64L313 72ZM343 63L345 63L344 75L341 75Q337 75 331 77L331 77L331 100L318 100L318 64L328 64L329 69Q336 63 343 63L343 63ZM350 74L350 74L349 65Q359 63 369 63L369 63Q376 63 380 66Q384 69 384 77L384 77L384 100L373 100L372 95Q367 101 359 101L359 101Q354 101 351 98Q347 96 347 91L347 91L347 87Q347 83 350 80Q354 78 359 78L359 78L371 78L371 77Q371 75 370 74Q369 73 366 73L366 73Q359 73 350 74ZM360 88L360 88L360 89Q360 92 364 92L364 92Q367 92 371 89L371 89L371 85L363 85Q360 85 360 88ZM406 50L419 50L419 60Q419 65 418 69L418 69Q424 63 430 63L430 63Q438 63 441 67Q444 72 444 82L444 82Q444 85 443 88Q443 90 442 93Q440 95 438 97Q436 99 433 100Q430 101 425 101L425 101Q421 101 415 100Q409 99 406 98L406 98L406 50ZM419 75L419 75L419 91Q422 92 425 92L425 92Q428 92 429 90Q430 88 430 82L430 82Q430 77 429 75Q428 73 425 73L425 73Q422 73 419 75ZM468 63L468 63Q478 63 483 67Q487 72 487 82L487 82Q487 92 483 97Q478 101 468 101Q457 101 453 97Q448 92 448 82L448 82Q448 72 453 67Q457 63 468 63ZM468 72L468 72Q464 72 463 74Q462 76 462 82L462 82Q462 88 463 90Q464 92 468 92L468 92Q471 92 472 90Q473 88 473 82L473 82Q473 76 472 74Q471 72 468 72ZM493 50L506 50L506 88Q506 91 510 91L510 91L512 91L514 99Q511 101 504 101L504 101Q499 101 496 98Q493 96 493 91L493 91L493 50ZM541 50L554 50L554 100L544 100L543 94Q538 101 529 101L529 101Q523 101 520 96Q517 91 517 82L517 82Q517 71 520 67Q523 63 530 63L530 63Q537 63 541 66L541 66Q541 61 541 59L541 59L541 50ZM541 88L541 88L541 73Q537 72 535 72L535 72Q532 72 531 74Q530 76 530 82L530 82Q530 87 531 89Q532 90 535 90L535 90Q538 90 541 88Z"/></svg>