<svg xmlns="http://www.w3.org/2000/svg" viewBox="4.698 49.455999999999996 676.7820000000003 66.41639648437501"><path d="M39.67 50.61L39.24 52.84L18.86 52.84Q13.25 52.84 12.46 58.60L12.46 58.60L10.51 72.28L33.62 72.28L33.26 74.66L10.22 74.66L7.85 91.94Q7.49 94.46 8.75 95.97Q10.01 97.48 12.53 97.48L12.53 97.48L32.98 97.48L32.98 99.71Q26.06 100 12.02 100L12.02 100Q8.28 100 6.26 97.77Q4.25 95.54 4.82 91.94L4.82 91.94L9.58 57.88Q10.08 54.42 12.38 52.37Q14.69 50.32 18.36 50.32L18.36 50.32Q32.69 50.32 39.67 50.61L39.67 50.61ZM75.02 65.30L60.84 82L71.06 100L67.97 100L58.46 83.08L56.59 83.08L42.41 100L38.95 100L54.29 81.93L44.86 65.30L47.88 65.30L56.52 80.70L58.61 80.70L71.71 65.30L75.02 65.30ZM97.34 64.43L97.34 64.43Q105.91 64.43 108.86 68.61Q111.82 72.78 110.45 82.86L110.45 82.86Q109.01 92.80 105.05 96.83Q101.09 100.86 92.66 100.86L92.66 100.86Q84.10 100.86 81.11 96.69Q78.12 92.51 79.49 82.50L79.49 82.50Q80.93 72.57 84.89 68.50Q88.85 64.43 97.34 64.43ZM97.34 67.02L97.34 67.02Q90.29 67.02 87.01 70.44Q83.74 73.86 82.51 82.86L82.51 82.86Q81.29 91.65 83.52 95.00Q85.75 98.34 92.66 98.34L92.66 98.34Q99.65 98.34 102.96 94.89Q106.27 91.43 107.50 82.50L107.50 82.50Q108.72 73.72 106.49 70.37Q104.26 67.02 97.34 67.02ZM140.76 53.63L140.76 53.63L140.40 51.40Q148.68 49.46 154.94 49.46L154.94 49.46Q162.58 49.46 165.89 51.54Q169.20 53.63 168.41 59.75L168.41 59.75Q167.76 64.50 164.99 68.72Q162.22 72.93 156.17 78.90L156.17 78.90L137.52 97.34Q140.26 97.26 145.73 97.26L145.73 97.26L165.24 97.26L164.88 100L133.27 100L133.49 98.13Q133.78 97.12 134.14 96.76L134.14 96.76L153.36 77.75Q159.26 71.92 162.11 67.60Q164.95 63.28 165.38 59.03L165.38 59.03Q165.82 54.64 163.37 53.38Q160.92 52.12 155.16 52.12L155.16 52.12Q148.46 52.12 140.76 53.63ZM218.66 97.41L218.66 97.41L218.95 99.42Q214.06 100.86 205.13 100.86L205.13 100.86Q196.56 100.86 193.68 96.58Q190.80 92.30 192.24 82.22L192.24 82.22Q193.03 76.74 194.44 73.25Q195.84 69.76 198.14 67.82Q200.45 65.87 203.29 65.15Q206.14 64.43 210.46 64.43L210.46 64.43Q217.66 64.43 220.72 66.84Q223.78 69.26 222.41 75.23L222.41 75.23Q221.47 79.62 218.84 81.42Q216.22 83.22 210.46 83.80L210.46 83.80L194.76 85.46Q194.04 92.94 196.56 95.64Q199.08 98.34 205.92 98.34L205.92 98.34Q211.68 98.34 218.66 97.41ZM195.19 82.43L195.05 83.15L210.53 81.42Q214.99 80.92 216.86 79.62Q218.74 78.33 219.60 75.02L219.60 75.02Q219.89 73.22 220.00 71.92Q220.10 70.62 219.46 69.72Q218.81 68.82 218.12 68.28Q217.44 67.74 216.14 67.46Q214.85 67.17 213.59 67.06Q212.33 66.95 210.60 66.95L210.60 66.95Q206.71 66.95 204.37 67.49Q202.03 68.03 200.12 69.69Q198.22 71.34 197.10 74.37Q195.98 77.39 195.19 82.43L195.19 82.43ZM261.50 65.30L247.32 82L257.54 100L254.45 100L244.94 83.08L243.07 83.08L228.89 100L225.43 100L240.77 81.93L231.34 65.30L234.36 65.30L243.00 80.70L245.09 80.70L258.19 65.30L261.50 65.30ZM287.78 67.74L275.47 67.74L272.02 92.44Q271.15 97.84 276.62 97.84L276.62 97.84L282.82 97.84L282.89 99.93Q279.65 100.50 276.34 100.50L276.34 100.50Q272.23 100.50 270.40 98.45Q268.56 96.40 269.14 92.58L269.14 92.58L272.59 67.74L266.26 67.74L266.54 65.66L272.95 65.37L274.46 54.57L277.27 54.57L275.83 65.30L288.22 65.30L287.78 67.74ZM314.71 64.43L316.22 64.43L315.43 67.17L314.06 67.17Q310.68 67.17 306.97 69.29Q303.26 71.42 297.50 76.10L297.50 76.10L294.12 100L291.31 100L296.21 65.30L298.37 65.30L297.50 73.72Q307.51 64.43 314.71 64.43L314.71 64.43ZM350.64 65.51L345.82 100L343.58 100L344.52 91.50Q340.63 95.90 335.95 98.38Q331.27 100.86 327.38 100.86L327.38 100.86Q321.05 100.86 319.25 96.62Q317.45 92.37 319.03 82.43L319.03 82.43Q320.76 71.49 324.32 67.96Q327.89 64.43 336.89 64.43L336.89 64.43Q342.94 64.43 350.64 65.51L350.64 65.51ZM344.52 88.77L344.52 88.77L347.47 67.38Q339.26 66.95 337.46 66.95L337.46 66.95Q329.18 66.95 326.30 69.90Q323.42 72.86 321.91 82.79L321.91 82.79Q320.47 91.22 321.66 94.74Q322.85 98.27 327.67 98.27L327.67 98.27Q331.27 98.27 335.77 95.79Q340.27 93.30 344.52 88.77ZM382.18 49.60L384.98 49.60L379.01 92.44Q378.14 97.84 383.62 97.84L383.62 97.84L387.72 97.84L387.79 99.93Q386.21 100.50 382.75 100.50L382.75 100.50Q379.22 100.50 377.39 98.45Q375.55 96.40 376.06 92.73L376.06 92.73L382.18 49.60ZM402.48 50.82L402.48 50.82L403.78 50.82Q404.93 50.82 404.78 52.05L404.78 52.05L404.14 56.44Q404.06 57.45 402.98 57.45L402.98 57.45L401.76 57.45Q400.46 57.45 400.61 56.22L400.61 56.22L401.26 51.90Q401.33 50.82 402.48 50.82ZM402.55 65.30L397.66 100L394.85 100L399.74 65.30L402.55 65.30ZM443.66 65.51L444.10 65.51L438.77 100.14Q436.61 114.62 421.99 115.70L421.99 115.70Q415.30 116.20 408.74 115.26L408.74 115.26L409.10 113.25Q415.94 113.61 421.56 113.18L421.56 113.18Q427.75 112.60 431.32 109.54Q434.88 106.48 435.89 100.36L435.89 100.36Q437.18 92.94 437.98 90.93L437.98 90.93Q434.02 95.61 429.19 98.24Q424.37 100.86 420.26 100.86L420.26 100.86Q414.07 100.86 412.27 96.62Q410.47 92.37 411.98 82.43L411.98 82.43Q413.71 71.49 417.28 67.96Q420.84 64.43 429.70 64.43L429.70 64.43Q435.89 64.43 443.66 65.51L443.66 65.51ZM437.62 88.70L437.62 88.70L440.93 67.38Q432.14 66.95 430.42 66.95L430.42 66.95Q422.14 66.95 419.29 69.87Q416.45 72.78 414.86 82.79L414.86 82.79Q413.42 91.14 414.61 94.71Q415.80 98.27 420.70 98.27L420.70 98.27Q424.22 98.27 428.80 95.75Q433.37 93.23 437.62 88.70ZM459.00 49.60L461.81 49.60L459.72 64.79Q459.14 68.97 458.14 73.50L458.14 73.50Q468.86 64.43 475.85 64.43L475.85 64.43Q480.38 64.43 482.51 66.88Q484.63 69.33 483.98 74.01L483.98 74.01L480.31 100L477.43 100L481.10 74.44Q481.61 70.48 480.17 68.75Q478.73 67.02 475.13 67.02L475.13 67.02Q471.60 67.02 467.71 69.18Q463.82 71.34 458.14 76.02L458.14 76.02L454.68 100L451.87 100L459.00 49.60ZM514.58 67.74L502.27 67.74L498.82 92.44Q497.95 97.84 503.42 97.84L503.42 97.84L509.62 97.84L509.69 99.93Q506.45 100.50 503.14 100.50L503.14 100.50Q499.03 100.50 497.20 98.45Q495.36 96.40 495.94 92.58L495.94 92.58L499.39 67.74L493.06 67.74L493.34 65.66L499.75 65.37L501.26 54.57L504.07 54.57L502.63 65.30L515.02 65.30L514.58 67.74ZM542.45 50.82L542.45 50.82L543.74 50.82Q544.90 50.82 544.75 52.05L544.75 52.05L544.10 56.44Q544.03 57.45 542.95 57.45L542.95 57.45L541.73 57.45Q540.43 57.45 540.58 56.22L540.58 56.22L541.22 51.90Q541.30 50.82 542.45 50.82ZM542.52 65.30L537.62 100L534.82 100L539.71 65.30L542.52 65.30ZM572.40 67.74L560.09 67.74L556.63 92.44Q555.77 97.84 561.24 97.84L561.24 97.84L567.43 97.84L567.50 99.93Q564.26 100.50 560.95 100.50L560.95 100.50Q556.85 100.50 555.01 98.45Q553.18 96.40 553.75 92.58L553.75 92.58L557.21 67.74L550.87 67.74L551.16 65.66L557.57 65.37L559.08 54.57L561.89 54.57L560.45 65.30L572.83 65.30L572.40 67.74ZM608.76 65.51L603.94 100L601.70 100L602.64 91.50Q598.75 95.90 594.07 98.38Q589.39 100.86 585.50 100.86L585.50 100.86Q579.17 100.86 577.37 96.62Q575.57 92.37 577.15 82.43L577.15 82.43Q578.88 71.49 582.44 67.96Q586.01 64.43 595.01 64.43L595.01 64.43Q601.06 64.43 608.76 65.51L608.76 65.51ZM602.64 88.77L602.64 88.77L605.59 67.38Q597.38 66.95 595.58 66.95L595.58 66.95Q587.30 66.95 584.42 69.90Q581.54 72.86 580.03 82.79L580.03 82.79Q578.59 91.22 579.78 94.74Q580.97 98.27 585.79 98.27L585.79 98.27Q589.39 98.27 593.89 95.79Q598.39 93.30 602.64 88.77ZM623.88 49.60L626.69 49.60L620.71 92.44Q619.85 97.84 625.32 97.84L625.32 97.84L629.42 97.84L629.50 99.93Q627.91 100.50 624.46 100.50L624.46 100.50Q620.93 100.50 619.09 98.45Q617.26 96.40 617.76 92.73L617.76 92.73L623.88 49.60ZM644.18 50.82L644.18 50.82L645.48 50.82Q646.63 50.82 646.49 52.05L646.49 52.05L645.84 56.44Q645.77 57.45 644.69 57.45L644.69 57.45L643.46 57.45Q642.17 57.45 642.31 56.22L642.31 56.22L642.96 51.90Q643.03 50.82 644.18 50.82ZM644.26 65.30L639.36 100L636.55 100L641.45 65.30L644.26 65.30ZM677.45 97.48L677.45 97.48L677.74 99.50Q672.41 100.86 666.79 100.86L666.79 100.86Q657.94 100.86 654.84 96.69Q651.74 92.51 653.11 82.50L653.11 82.50Q654.48 72.57 658.66 68.50Q662.83 64.43 671.47 64.43L671.47 64.43Q677.45 64.43 681.48 65.80L681.48 65.80L680.90 67.74Q677.66 67.02 671.98 67.02L671.98 67.02Q664.34 67.02 660.85 70.37Q657.36 73.72 656.14 82.79L656.14 82.79Q654.84 91.79 657.29 95.03Q659.74 98.27 667.22 98.27L667.22 98.27Q673.34 98.27 677.45 97.48Z"/></svg>