<svg xmlns="http://www.w3.org/2000/svg" viewBox="0.6853125000000001 -7.0200000000000005 22.59017303466797 7.140000000000001"><path d="M5.47-6.86L5.43-6.68L2.57-6.68Q2.17-6.68 1.92-6.46Q1.67-6.23 1.62-5.85L1.62-5.85L1.34-3.80L4.62-3.80L4.59-3.59L1.31-3.59L0.95-1.03Q0.90-0.67 1.09-0.45Q1.28-0.22 1.64-0.22L1.64-0.22L4.52-0.22L4.53-0.04Q3.54 0 1.59 0L1.59 0Q1.14 0 0.89-0.29Q0.63-0.59 0.70-1.03L0.70-1.03L1.38-5.89Q1.44-6.34 1.74-6.62Q2.04-6.90 2.52-6.90L2.52-6.90Q4.49-6.90 5.47-6.86L5.47-6.86ZM10.29-4.80L8.27-2.50L9.74 0L9.47 0L8.06-2.40L7.79-2.40L5.73 0L5.41 0L7.59-2.51L6.23-4.80L6.50-4.80L7.79-2.62L8.08-2.62L9.99-4.80L10.29-4.80ZM13.42-4.92L13.42-4.92Q14.59-4.92 14.99-4.35Q15.39-3.78 15.19-2.38L15.19-2.38Q14.99-1 14.45-0.44Q13.91 0.12 12.76 0.12L12.76 0.12Q11.59 0.12 11.19-0.45Q10.79-1.02 10.99-2.42L10.99-2.42Q11.19-3.80 11.73-4.36Q12.27-4.92 13.42-4.92ZM14.79-4.20Q14.45-4.69 13.42-4.69Q12.39-4.69 11.91-4.18Q11.42-3.67 11.24-2.38L11.24-2.38Q11.06-1.10 11.40-0.60Q11.73-0.11 12.76-0.11Q13.79-0.11 14.28-0.62Q14.76-1.13 14.94-2.42L14.94-2.42Q15.12-3.70 14.79-4.20ZM19.49-6.57L19.49-6.57L19.43-6.75Q20.58-7.02 21.42-7.02L21.42-7.02Q22.48-7.02 22.93-6.74Q23.37-6.46 23.25-5.62L23.25-5.62Q23.16-4.95 22.76-4.36Q22.36-3.76 21.50-2.90L21.50-2.90L18.80-0.22L19.97-0.22L22.80-0.22L22.77 0L18.43 0L18.45-0.15Q18.47-0.22 18.52-0.28L18.52-0.28L21.31-3.05Q22.14-3.88 22.54-4.50Q22.93-5.12 23-5.74L23-5.74Q23.04-6.09 22.95-6.31Q22.86-6.53 22.63-6.63Q22.40-6.73 22.15-6.76Q21.90-6.79 21.48-6.79L21.48-6.79Q20.55-6.79 19.49-6.57Z"/></svg>