<svg xmlns="http://www.w3.org/2000/svg" viewBox="5.6160000000000005 49.455999999999996 446.47200000000015 51.48000000000001"><path d="M16.85 94.02L36.58 94.02L36.94 99.57Q30.38 100.14 15.62 100.14L15.62 100.14Q11.02 100.14 8.35 97.73Q5.69 95.32 5.62 91.22L5.62 91.22L5.62 59.10Q5.69 55.00 8.35 52.59Q11.02 50.18 15.62 50.18L15.62 50.18Q30.38 50.18 36.94 50.75L36.94 50.75L36.58 56.37L16.85 56.37Q14.69 56.37 13.79 57.41Q12.89 58.46 12.89 60.98L12.89 60.98L12.89 70.91L33.84 70.91L33.84 76.74L12.89 76.74L12.89 89.42Q12.89 91.94 13.79 92.98Q14.69 94.02 16.85 94.02L16.85 94.02ZM69.84 100L60.34 84.45L58.97 84.45L49.46 100L41.90 100L53.42 81.86L42.77 64.86L50.26 64.86L58.90 79.05L60.41 79.05L68.98 64.86L76.46 64.86L65.88 81.86L77.40 100L69.84 100ZM85.61 68.18Q89.42 63.93 98.57 63.93Q107.71 63.93 111.53 68.18Q115.34 72.42 115.34 82.50Q115.34 92.58 111.53 96.76Q107.71 100.94 98.57 100.94Q89.42 100.94 85.61 96.76Q81.79 92.58 81.79 82.50Q81.79 72.42 85.61 68.18ZM106.06 72.50Q104.04 69.83 98.57 69.83Q93.10 69.83 91.08 72.50Q89.06 75.16 89.06 82.50L89.06 82.50Q89.06 89.78 91.08 92.44Q93.10 95.10 98.57 95.10Q104.04 95.10 106.06 92.44Q108.07 89.78 108.07 82.50L108.07 82.50Q108.07 75.16 106.06 72.50ZM139.75 56.87L139.75 56.87L139.32 51.26Q147.38 49.46 154.73 49.46L154.73 49.46Q162.58 49.46 166.36 51.69Q170.14 53.92 170.14 60.33L170.14 60.33Q170.14 64.94 168.26 68.82Q166.39 72.71 161.50 78.11L161.50 78.11L147.67 93.30Q151.06 93.02 155.59 93.02L155.59 93.02L171.86 93.02L171.86 100L138.96 100L138.96 95.46Q138.96 93.52 140.04 92.44L140.04 92.44L153.86 76.82Q163.08 66.88 162.86 60.76L162.86 60.76Q162.79 57.66 160.74 56.73Q158.69 55.79 154.08 55.79L154.08 55.79Q147.60 55.79 139.75 56.87ZM196.99 64.86L202.75 64.86L203.11 70.26Q210.46 63.93 217.22 63.93L217.22 63.93Q224.50 63.93 226.15 70.05L226.15 70.05Q233.14 63.93 239.98 63.93L239.98 63.93Q244.58 63.93 247.00 66.41Q249.41 68.90 249.41 73.65L249.41 73.65L249.41 100L242.57 100L242.57 75.66Q242.50 72.57 241.34 71.20Q240.19 69.83 237.46 69.83L237.46 69.83Q235.08 69.83 232.92 70.91Q230.76 71.99 226.58 75.02L226.58 75.02L226.58 100L219.89 100L219.89 75.66Q219.89 72.50 218.66 71.16Q217.44 69.83 214.78 69.83L214.78 69.83Q212.47 69.83 210.28 70.91Q208.08 71.99 203.90 74.94L203.90 74.94L203.90 100L196.99 100L196.99 64.86ZM281.45 85.82L281.45 85.82L265.68 85.82Q266.18 91.29 268.52 93.16Q270.86 95.03 276.19 95.03L276.19 95.03Q280.87 95.03 288.50 94.17L288.50 94.17L289.15 98.78Q284.40 100.86 275.26 100.86L275.26 100.86Q266.04 100.86 262.19 96.69Q258.34 92.51 258.34 82.36L258.34 82.36Q258.34 72.14 262.12 68.03Q265.90 63.93 274.61 63.93L274.61 63.93Q282.67 63.93 286.34 66.88Q290.02 69.83 290.02 75.74L290.02 75.74Q290.02 85.82 281.45 85.82ZM265.61 80.42L265.61 80.42L279.58 80.42Q283.03 80.42 283.03 75.74L283.03 75.74Q282.96 72.50 281.20 71.16Q279.43 69.83 274.97 69.83L274.97 69.83Q269.78 69.83 267.77 72.03Q265.75 74.22 265.61 80.42ZM329.40 100L323.93 100L323.35 95.18Q316.58 100.86 309.53 100.86L309.53 100.86Q303.05 100.86 300.13 96.22Q297.22 91.58 297.22 82.29L297.22 82.29Q297.22 72.21 300.46 68.07Q303.70 63.93 310.61 63.93L310.61 63.93Q317.23 63.93 322.70 67.10L322.70 67.10Q322.42 64.00 322.42 60.18L322.42 60.18L322.42 49.60L329.40 49.60L329.40 100ZM322.42 90.42L322.42 90.42L322.42 71.70Q315.86 69.98 312.34 69.98L312.34 69.98Q307.87 69.98 306.14 72.46Q304.42 74.94 304.42 82.22Q304.42 89.49 306.11 92.15Q307.80 94.82 311.90 94.82L311.90 94.82Q314.57 94.82 316.62 93.88Q318.67 92.94 322.42 90.42ZM342.29 49.89L342.29 49.89L345.60 49.89Q347.62 49.89 347.62 51.90L347.62 51.90L347.62 55.94Q347.62 58.02 345.60 58.02L345.60 58.02L342.29 58.02Q340.27 58.02 340.27 55.94L340.27 55.94L340.27 51.90Q340.27 49.89 342.29 49.89ZM347.40 64.86L347.40 100L340.49 100L340.49 64.86L347.40 64.86ZM381.96 64.86L388.87 64.86L388.87 100L383.33 100L382.82 95.18Q375.12 100.94 367.85 100.94L367.85 100.94Q358.27 100.94 358.27 91.22L358.27 91.22L358.27 64.86L365.26 64.86L365.26 89.20Q365.18 92.44 366.34 93.70Q367.49 94.96 370.30 94.96L370.30 94.96Q374.40 94.96 381.96 90.28L381.96 90.28L381.96 64.86ZM399.67 64.86L405.43 64.86L405.79 70.26Q413.14 63.93 419.90 63.93L419.90 63.93Q427.18 63.93 428.83 70.05L428.83 70.05Q435.82 63.93 442.66 63.93L442.66 63.93Q447.26 63.93 449.68 66.41Q452.09 68.90 452.09 73.65L452.09 73.65L452.09 100L445.25 100L445.25 75.66Q445.18 72.57 444.02 71.20Q442.87 69.83 440.14 69.83L440.14 69.83Q437.76 69.83 435.60 70.91Q433.44 71.99 429.26 75.02L429.26 75.02L429.26 100L422.57 100L422.57 75.66Q422.57 72.50 421.34 71.16Q420.12 69.83 417.46 69.83L417.46 69.83Q415.15 69.83 412.96 70.91Q410.76 71.99 406.58 74.94L406.58 74.94L406.58 100L399.67 100L399.67 64.86Z"/></svg>