<svg xmlns="http://www.w3.org/2000/svg" viewBox="4.6080000000000005 49.455999999999996 338.47200000000004 51.48000000000001"><path d="M19.01 91.43L38.09 91.43L38.59 99.50Q31.82 100.22 15.55 100.22L15.55 100.22Q10.58 100.22 7.63 97.52Q4.68 94.82 4.61 90.21L4.61 90.21L4.61 60.11Q4.68 55.50 7.63 52.80Q10.58 50.10 15.55 50.10L15.55 50.10Q31.82 50.10 38.59 50.82L38.59 50.82L38.09 58.96L19.01 58.96Q17.21 58.96 16.42 59.82Q15.62 60.69 15.62 62.63L15.62 62.63L15.62 70.19L35.42 70.19L35.42 78.11L15.62 78.11L15.62 87.69Q15.62 89.70 16.42 90.57Q17.21 91.43 19.01 91.43L19.01 91.43ZM70.42 100L61.99 85.10L61.56 85.10L53.14 100L42.19 100L53.14 81.78L42.98 64.50L53.86 64.50L61.42 78.18L62.14 78.18L69.70 64.50L80.57 64.50L70.42 81.78L81.36 100L70.42 100ZM102.31 63.50L102.31 63.50Q112.25 63.50 116.39 67.78Q120.53 72.06 120.53 82.29Q120.53 92.51 116.39 96.72Q112.25 100.94 102.31 100.94L102.31 100.94Q92.30 100.94 88.16 96.72Q84.02 92.51 84.02 82.29L84.02 82.29Q84.02 71.99 88.16 67.74Q92.30 63.50 102.31 63.50ZM102.31 71.49L102.31 71.49Q98.06 71.49 96.62 73.65Q95.18 75.81 95.18 82.29L95.18 82.29Q95.18 88.62 96.62 90.78Q98.06 92.94 102.31 92.94L102.31 92.94Q106.42 92.94 107.89 90.78Q109.37 88.62 109.37 82.29L109.37 82.29Q109.37 75.88 107.93 73.68Q106.49 71.49 102.31 71.49ZM143.14 59.46L143.14 59.46L142.70 51.18Q151.06 49.46 159.41 49.46Q167.76 49.46 171.90 51.90Q176.04 54.35 176.04 60.98L176.04 60.98Q176.04 65.44 174.42 68.86Q172.80 72.28 167.98 77.39L167.98 77.39L155.23 90.64Q157.97 90.14 162.58 90.14L162.58 90.14L177.48 90.14L177.48 100L142.27 100L142.27 93.88Q142.27 91.07 143.86 89.42L143.86 89.42L156.02 76.31Q164.95 67.02 164.88 62.13L164.88 62.13Q164.81 60.04 163.30 59.43Q161.78 58.82 158.11 58.82L158.11 58.82Q150.48 58.82 143.14 59.46ZM200.52 49.60L211.25 49.60L211.25 60.90Q211.25 65.87 210.31 69.26L210.31 69.26Q215.93 63.50 222.91 63.50L222.91 63.50Q229.82 63.50 232.88 67.78Q235.94 72.06 235.94 81.93L235.94 81.93Q235.94 91.07 232.20 95.97Q228.46 100.86 218.59 100.86L218.59 100.86Q214.27 100.86 208.91 100.14Q203.54 99.42 200.52 98.13L200.52 98.13L200.52 49.60ZM211.18 75.02L211.18 75.02L211.18 92.30Q214.85 93.09 218.38 92.94L218.38 92.94Q222.05 92.80 223.52 90.50Q225.00 88.19 225.00 82L225.00 82Q225.00 76.10 223.78 74.04Q222.55 71.99 218.66 71.99L218.66 71.99Q215.71 71.99 211.18 75.02ZM260.06 63.50L260.06 63.50Q270 63.50 274.14 67.78Q278.28 72.06 278.28 82.29Q278.28 92.51 274.14 96.72Q270 100.94 260.06 100.94L260.06 100.94Q250.06 100.94 245.92 96.72Q241.78 92.51 241.78 82.29L241.78 82.29Q241.78 71.99 245.92 67.74Q250.06 63.50 260.06 63.50ZM260.06 71.49L260.06 71.49Q255.82 71.49 254.38 73.65Q252.94 75.81 252.94 82.29L252.94 82.29Q252.94 88.62 254.38 90.78Q255.82 92.94 260.06 92.94L260.06 92.94Q264.17 92.94 265.64 90.78Q267.12 88.62 267.12 82.29L267.12 82.29Q267.12 75.88 265.68 73.68Q264.24 71.49 260.06 71.49ZM285.62 49.60L296.21 49.60L296.21 88.41Q296.21 92.01 300.24 92.01L300.24 92.01L303.12 92.01L304.34 99.42Q301.61 100.86 295.85 100.86L295.85 100.86Q291.10 100.86 288.36 98.31Q285.62 95.75 285.62 91.07L285.62 91.07L285.62 49.60ZM332.42 49.60L343.08 49.60L343.08 100L334.66 100L333.79 94.82Q328.68 100.86 320.26 100.86L320.26 100.86Q313.63 100.86 310.64 96.08Q307.66 91.29 307.66 81.93L307.66 81.93Q307.66 71.70 310.97 67.60Q314.28 63.50 321.26 63.50L321.26 63.50Q328.10 63.50 332.78 66.66L332.78 66.66Q332.42 62.70 332.42 59.25L332.42 59.25L332.42 49.60ZM332.42 89.20L332.42 89.20L332.42 72.78Q327.60 71.42 324.86 71.42L324.86 71.42Q321.26 71.42 319.93 73.43Q318.60 75.45 318.60 81.86L318.60 81.86Q318.60 87.98 319.90 90.03Q321.19 92.08 324.50 92.08L324.50 92.08Q326.74 92.08 328.32 91.47Q329.90 90.86 332.42 89.20Z"/></svg>