<svg xmlns="http://www.w3.org/2000/svg" viewBox="0.6900000000000001 -7.38 15.53 7.43"><path d="M2.40 0.05Q1.70 0.05 1.20-0.26Q0.69-0.57 0.69-1.51L0.69-1.51L0.69-5.77Q0.69-6.62 1.15-7Q1.61-7.38 2.26-7.38L2.26-7.38Q3.20-7.38 3.88-7.35Q4.56-7.32 5.44-7.27L5.44-7.27L5.44-6.24L2.65-6.24Q2.30-6.24 2.11-6.07Q1.92-5.89 1.92-5.54L1.92-5.54L1.92-4.23L4.99-4.16L4.99-3.19L1.92-3.12L1.92-1.85Q1.92-1.11 2.64-1.11L2.64-1.11L5.44-1.11L5.44-0.08Q4.18 0.03 2.40 0.05L2.40 0.05ZM11.10-5.36L9.26-2.61L11.10 0L9.84 0L8.54-1.84L7.33 0L6.07 0L7.91-2.74L6.07-5.36L7.33-5.36L8.64-3.50L9.84-5.35L11.10-5.36ZM13.80 0.05Q12.93 0.05 12.41-0.20Q11.89-0.45 11.64-1.04Q11.40-1.63 11.40-2.69L11.40-2.69Q11.40-3.79 11.64-4.38Q11.89-4.97 12.40-5.20Q12.92-5.43 13.80-5.43L13.80-5.43Q14.69-5.43 15.21-5.20Q15.72-4.96 15.97-4.37Q16.22-3.77 16.22-2.69L16.22-2.69Q16.22-1.61 15.98-1.02Q15.74-0.43 15.22-0.19Q14.70 0.05 13.80 0.05L13.80 0.05ZM13.80-0.94Q14.25-0.94 14.49-1.06Q14.74-1.18 14.86-1.55Q14.98-1.93 14.98-2.70L14.98-2.70Q14.98-3.46 14.86-3.83Q14.74-4.21 14.49-4.33Q14.25-4.44 13.80-4.44L13.80-4.44Q13.36-4.44 13.12-4.33Q12.87-4.21 12.75-3.83Q12.63-3.46 12.63-2.70L12.63-2.70Q12.63-1.93 12.75-1.55Q12.87-1.18 13.12-1.06Q13.36-0.94 13.80-0.94L13.80-0.94Z"/></svg>