<svg xmlns="http://www.w3.org/2000/svg" viewBox="0.55 -7.43 16.27 7.489999999999999"><path d="M2.51 0.06Q0.55 0.06 0.55-1.71L0.55-1.71L0.55-5.59Q0.55-6.58 1.09-7.00Q1.64-7.43 2.40-7.43L2.40-7.43Q4.20-7.43 5.68-7.28L5.68-7.28L5.68-5.64L3-5.64Q2.49-5.64 2.49-5.20L2.49-5.20L2.49-4.58L5.18-4.48L5.18-2.94L2.49-2.84L2.49-2.28Q2.49-2.02 2.60-1.89Q2.72-1.76 2.92-1.76L2.92-1.76L5.68-1.76L5.68-0.12Q5.06-0.03 4.19 0.01Q3.31 0.06 2.51 0.06L2.51 0.06ZM11.68-5.39L9.90-2.59L11.68 0L9.73 0L8.79-1.37L8 0L6.04 0L7.82-2.79L6.04-5.39L7.99-5.39L8.93-4.01L9.72-5.39L11.68-5.39ZM14.25 0.05Q13.28 0.05 12.72-0.23Q12.17-0.50 11.92-1.09Q11.68-1.69 11.68-2.71L11.68-2.71Q11.68-3.80 11.92-4.40Q12.17-4.99 12.72-5.24Q13.27-5.48 14.25-5.48L14.25-5.48Q15.23-5.48 15.78-5.23Q16.33-4.97 16.57-4.37Q16.82-3.77 16.82-2.71L16.82-2.71Q16.82-1.65 16.59-1.06Q16.35-0.47 15.80-0.21Q15.25 0.05 14.25 0.05L14.25 0.05ZM14.25-1.49Q14.52-1.49 14.64-1.56Q14.77-1.64 14.82-1.90Q14.88-2.15 14.88-2.72L14.88-2.72Q14.88-3.28 14.82-3.54Q14.77-3.79 14.64-3.87Q14.52-3.94 14.25-3.94L14.25-3.94Q13.98-3.94 13.85-3.87Q13.73-3.79 13.67-3.54Q13.62-3.28 13.62-2.72L13.62-2.72Q13.62-2.15 13.67-1.90Q13.73-1.64 13.85-1.56Q13.98-1.49 14.25-1.49L14.25-1.49Z"/></svg>