<svg xmlns="http://www.w3.org/2000/svg" viewBox="0.56421875 -7.0200000000000005 23.23231017561984 7.15"><path d="M5.62-6.85L5.50-6.16L2.75-6.16Q2.41-6.16 2.25-6Q2.09-5.84 2.04-5.48L2.04-5.48L1.83-3.98L4.80-3.98L4.71-3.30L1.74-3.30L1.48-1.39Q1.43-1.05 1.56-0.90Q1.69-0.74 2.03-0.74L2.03-0.74L4.73-0.74L4.71-0.05Q3.83 0.01 1.92 0.01L1.92 0.01Q1.17 0.01 0.83-0.35Q0.49-0.72 0.58-1.37L0.58-1.37L1.19-5.73Q1.27-6.29 1.64-6.60Q2.01-6.91 2.64-6.91L2.64-6.91Q4.70-6.91 5.62-6.85L5.62-6.85ZM10.78-4.87L8.94-2.51L10.21 0L9.35 0L8.27-2.20L8.04-2.20L6.34 0L5.39 0L7.38-2.52L6.21-4.87L7.06-4.87L8.02-2.86L8.30-2.86L9.86-4.87L10.78-4.87ZM11.98-4.42Q12.56-4.99 13.80-4.99Q15.04-4.99 15.51-4.39Q15.97-3.79 15.77-2.39L15.77-2.39Q15.58-1.01 14.99-0.44Q14.40 0.13 13.18 0.13L13.18 0.13Q11.95 0.13 11.47-0.47Q11-1.07 11.19-2.46L11.19-2.46Q11.39-3.84 11.98-4.42ZM13.80-4.27L13.80-4.27Q12.98-4.27 12.61-3.88Q12.23-3.49 12.08-2.39L12.08-2.39Q11.93-1.35 12.17-0.97Q12.40-0.59 13.18-0.59L13.18-0.59Q14-0.59 14.38-0.99Q14.75-1.39 14.90-2.46L14.90-2.46Q15.05-3.51 14.82-3.89Q14.58-4.27 13.80-4.27ZM19.72-6.08L19.72-6.08L19.71-6.76Q20.86-7.02 21.82-7.02L21.82-7.02Q22.87-7.02 23.38-6.70Q23.88-6.38 23.78-5.50L23.78-5.50Q23.70-4.87 23.36-4.32Q23.01-3.77 22.22-3L22.22-3L19.96-0.81Q20.41-0.85 21.03-0.85L21.03-0.85L23.38-0.85L23.26 0L18.73 0L18.81-0.57Q18.84-0.82 18.96-0.94L18.96-0.94L21.29-3.20Q22.07-3.95 22.46-4.49Q22.84-5.03 22.89-5.53L22.89-5.53Q22.94-5.98 22.68-6.11Q22.41-6.24 21.75-6.24L21.75-6.24Q20.73-6.24 19.72-6.08Z"/></svg>