<svg xmlns="http://www.w3.org/2000/svg" viewBox="4.9342500000000005 49.455999999999996 467.3137500000001 51.40800000000001"><path d="M39.38 50.61L39.10 51.90L18.50 51.90Q15.62 51.90 13.82 53.52Q12.02 55.14 11.66 57.88L11.66 57.88L9.65 72.64L33.26 72.64L33.05 74.15L9.43 74.15L6.84 92.58Q6.48 95.18 7.85 96.80Q9.22 98.42 11.81 98.42L11.81 98.42L32.54 98.42L32.62 99.71Q25.49 100 11.45 100L11.45 100Q8.21 100 6.37 97.88Q4.54 95.75 5.04 92.58L5.04 92.58L9.94 57.59Q10.37 54.35 12.53 52.34Q14.69 50.32 18.14 50.32L18.14 50.32Q32.33 50.32 39.38 50.61L39.38 50.61ZM74.09 65.44L59.54 82L70.13 100L68.18 100L58.03 82.72L56.09 82.72L41.26 100L38.95 100L54.65 81.93L44.86 65.44L46.80 65.44L56.09 81.14L58.18 81.14L71.93 65.44L74.09 65.44ZM96.62 64.58L96.62 64.58Q105.05 64.58 107.93 68.68Q110.81 72.78 109.37 82.86L109.37 82.86Q107.93 92.80 104.04 96.83Q100.15 100.86 91.87 100.86L91.87 100.86Q83.45 100.86 80.57 96.76Q77.69 92.66 79.13 82.58L79.13 82.58Q80.57 72.64 84.46 68.61Q88.34 64.58 96.62 64.58ZM106.45 69.80Q104.04 66.23 96.62 66.23Q89.21 66.23 85.72 69.90Q82.22 73.58 80.93 82.86L80.93 82.86Q79.63 92.08 82.04 95.64Q84.46 99.21 91.87 99.21Q99.29 99.21 102.78 95.54Q106.27 91.86 107.57 82.58L107.57 82.58Q108.86 73.36 106.45 69.80ZM140.33 52.70L140.33 52.70L139.90 51.40Q148.18 49.46 154.22 49.46L154.22 49.46Q161.86 49.46 165.06 51.47Q168.26 53.49 167.40 59.54L167.40 59.54Q166.75 64.36 163.87 68.64Q160.99 72.93 154.80 79.12L154.80 79.12L135.36 98.42L143.78 98.42L164.16 98.42L163.94 100L132.70 100L132.84 98.92Q132.98 98.42 133.34 97.98L133.34 97.98L153.43 78.04Q159.41 72.06 162.25 67.60Q165.10 63.14 165.60 58.67L165.60 58.67Q165.89 56.15 165.24 54.57Q164.59 52.98 162.94 52.26Q161.28 51.54 159.48 51.33Q157.68 51.11 154.66 51.11L154.66 51.11Q147.96 51.11 140.33 52.70ZM210.60 67.02L197.86 67.02L194.18 93.16Q193.32 98.85 199.08 98.85L199.08 98.85L205.49 98.85L205.56 100Q202.61 100.43 199.44 100.43L199.44 100.43Q191.45 100.43 192.46 93.09L192.46 93.09L196.13 67.02L189.79 67.02L190.01 65.80L196.34 65.44L197.86 54.57L199.58 54.57L198.07 65.44L210.89 65.44L210.60 67.02ZM221.40 49.60L223.13 49.60L220.97 65.15Q220.32 69.76 219.46 73.86L219.46 73.86Q230.40 64.58 237.46 64.58L237.46 64.58Q246.89 64.58 245.59 74.08L245.59 74.08L241.92 100L240.19 100L243.86 74.15Q244.44 69.98 242.82 68.10Q241.20 66.23 237.17 66.23L237.17 66.23Q233.57 66.23 229.46 68.46Q225.36 70.70 219.46 75.59L219.46 75.59L216 100L214.27 100L221.40 49.60ZM262.73 51.11L262.73 51.11L263.45 51.11Q264.38 51.11 264.24 52.05L264.24 52.05L263.59 56.51Q263.52 57.30 262.73 57.30L262.73 57.30L262.01 57.30Q261 57.30 261.14 56.37L261.14 56.37L261.79 51.90Q261.86 51.11 262.73 51.11ZM262.01 65.44L257.11 100L255.38 100L260.28 65.44L262.01 65.44ZM275.69 65.44L276.98 65.44L275.90 73.86Q286.92 64.58 293.98 64.58L293.98 64.58Q303.41 64.58 302.11 74.08L302.11 74.08L298.44 100L296.71 100L300.38 74.15Q300.96 69.98 299.34 68.10Q297.72 66.23 293.69 66.23L293.69 66.23Q290.09 66.23 285.95 68.46Q281.81 70.70 275.98 75.45L275.98 75.45L272.52 100L270.79 100L275.69 65.44ZM335.81 51.11L335.81 51.11L336.53 51.11Q337.46 51.11 337.32 52.05L337.32 52.05L336.67 56.51Q336.60 57.30 335.81 57.30L335.81 57.30L335.09 57.30Q334.08 57.30 334.22 56.37L334.22 56.37L334.87 51.90Q334.94 51.11 335.81 51.11ZM335.09 65.44L330.19 100L328.46 100L333.36 65.44L335.09 65.44ZM364.75 67.02L352.01 67.02L348.34 93.16Q347.47 98.85 353.23 98.85L353.23 98.85L359.64 98.85L359.71 100Q356.76 100.43 353.59 100.43L353.59 100.43Q345.60 100.43 346.61 93.09L346.61 93.09L350.28 67.02L343.94 67.02L344.16 65.80L350.50 65.44L352.01 54.57L353.74 54.57L352.22 65.44L365.04 65.44L364.75 67.02ZM395.64 100L394.34 100L395.42 91.22Q391.18 95.90 386.32 98.38Q381.46 100.86 377.78 100.86L377.78 100.86Q371.45 100.86 369.72 96.40Q367.99 91.94 369.72 82.58L369.72 82.58Q371.45 71.70 374.90 68.14Q378.36 64.58 387.65 64.58L387.65 64.58Q392.76 64.58 400.54 65.44L400.54 65.44L395.64 100ZM395.50 89.13L395.50 89.13L398.59 66.66Q390.74 66.16 387.86 66.16L387.86 66.16Q384.19 66.16 381.85 66.59Q379.51 67.02 377.71 68.03Q375.91 69.04 374.80 71.09Q373.68 73.14 372.89 75.84Q372.10 78.54 371.45 82.86L371.45 82.86Q369.86 91.43 371.20 95.32Q372.53 99.21 377.78 99.21L377.78 99.21Q381.38 99.21 386.32 96.51Q391.25 93.81 395.50 89.13ZM416.23 49.60L417.96 49.60L411.84 93.16Q410.98 98.85 416.74 98.85L416.74 98.85L420.98 98.85L421.06 100Q419.69 100.43 416.45 100.43L416.45 100.43Q413.06 100.43 411.34 98.49Q409.61 96.54 410.11 93.09L410.11 93.09L416.23 49.60ZM435.74 51.11L435.74 51.11L436.46 51.11Q437.40 51.11 437.26 52.05L437.26 52.05L436.61 56.51Q436.54 57.30 435.74 57.30L435.74 57.30L435.02 57.30Q434.02 57.30 434.16 56.37L434.16 56.37L434.81 51.90Q434.88 51.11 435.74 51.11ZM435.02 65.44L430.13 100L428.40 100L433.30 65.44L435.02 65.44ZM468.22 98.34L468.22 98.34L468.43 99.64Q462.96 100.86 457.92 100.86L457.92 100.86Q449.21 100.86 446.15 96.72Q443.09 92.58 444.46 82.58L444.46 82.58Q445.82 72.64 449.93 68.61Q454.03 64.58 462.60 64.58L462.60 64.58Q468.50 64.58 472.25 65.80L472.25 65.80L471.74 67.10Q468.58 66.23 462.96 66.23L462.96 66.23Q454.97 66.23 451.30 69.80Q447.62 73.36 446.26 82.79L446.26 82.79Q444.96 92.22 447.55 95.72Q450.14 99.21 458.06 99.21L458.06 99.21Q463.82 99.21 468.22 98.34Z"/></svg>