<svg xmlns="http://www.w3.org/2000/svg" viewBox="6.336 46.71999999999999 243.57600000000002 53.71200000000001"><path d="M16.20 100.22Q11.74 100.29 9.04 98.45Q6.34 96.62 6.34 91.14L6.34 91.14L6.34 56.66Q6.34 51.76 8.93 49.49Q11.52 47.22 15.41 47.30L15.41 47.30L36.79 47.73L36.79 48.88L15.41 48.88Q11.95 48.88 10.01 50.79Q8.06 52.70 8.06 56.66L8.06 56.66L8.06 73.07L33.91 73.29L33.91 74.44L8.06 74.66L8.06 91.14Q8.06 95.68 10.22 97.16Q12.38 98.63 16.13 98.63L16.13 98.63L36.79 98.63L36.79 99.78L16.20 100.22ZM73.94 61.77L59.98 80.92L73.94 100L72 100L58.90 82.07L45.79 100L43.99 100L57.96 80.85L43.99 61.77L45.94 61.77L59.11 79.77L72.07 61.84L73.94 61.77ZM94.82 100.43Q89.42 100.43 86.08 98.92Q82.73 97.41 80.93 93.12Q79.13 88.84 79.13 80.85L79.13 80.85Q79.13 72.86 80.93 68.61Q82.73 64.36 86.08 62.85Q89.42 61.34 94.82 61.34L94.82 61.34Q100.22 61.34 103.61 62.85Q106.99 64.36 108.83 68.61Q110.66 72.86 110.66 80.85L110.66 80.85Q110.66 88.84 108.83 93.12Q106.99 97.41 103.61 98.92Q100.22 100.43 94.82 100.43L94.82 100.43ZM94.82 98.85Q99.79 98.85 102.74 97.55Q105.70 96.26 107.32 92.37Q108.94 88.48 108.94 80.85L108.94 80.85Q108.94 73.22 107.32 69.33Q105.70 65.44 102.74 64.18Q99.79 62.92 94.82 62.92L94.82 62.92Q89.86 62.92 86.94 64.18Q84.02 65.44 82.44 69.33Q80.86 73.22 80.86 80.85L80.86 80.85Q80.86 88.48 82.44 92.37Q84.02 96.26 86.94 97.55Q89.86 98.85 94.82 98.85L94.82 98.85ZM151.85 100L151.85 48.66L139.75 53.06L139.75 51.90L151.85 46.72L153.58 46.72L153.58 100L151.85 100ZM180.50 100Q175.10 100 171.61 97.19Q168.12 94.38 168.12 88.34L168.12 88.34L168.12 58.53Q168.12 52.91 171.61 49.89Q175.10 46.86 180.50 46.86L180.50 46.86L190.15 46.86Q196.42 46.86 199.33 50.07Q202.25 53.27 202.25 58.53L202.25 58.53L202.25 88.34Q202.25 100 190.15 100L190.15 100L180.50 100ZM180.50 98.42L190.15 98.42Q200.52 98.42 200.52 88.34L200.52 88.34L200.52 58.53Q200.52 53.63 197.89 51.04Q195.26 48.45 190.15 48.45L190.15 48.45L180.50 48.45Q175.68 48.45 172.76 51.15Q169.85 53.85 169.85 58.53L169.85 58.53L169.85 88.34Q169.85 93.23 172.69 95.82Q175.54 98.42 180.50 98.42L180.50 98.42ZM228.17 100Q222.77 100 219.28 97.19Q215.78 94.38 215.78 88.34L215.78 88.34L215.78 58.53Q215.78 52.91 219.28 49.89Q222.77 46.86 228.17 46.86L228.17 46.86L237.82 46.86Q244.08 46.86 247.00 50.07Q249.91 53.27 249.91 58.53L249.91 58.53L249.91 88.34Q249.91 100 237.82 100L237.82 100L228.17 100ZM228.17 98.42L237.82 98.42Q248.18 98.42 248.18 88.34L248.18 88.34L248.18 58.53Q248.18 53.63 245.56 51.04Q242.93 48.45 237.82 48.45L237.82 48.45L228.17 48.45Q223.34 48.45 220.43 51.15Q217.51 53.85 217.51 58.53L217.51 58.53L217.51 88.34Q217.51 93.23 220.36 95.82Q223.20 98.42 228.17 98.42L228.17 98.42Z"/></svg>