<svg xmlns="http://www.w3.org/2000/svg" viewBox="4.046000000000001 49.455999999999996 344.3620000000001 51.48000000000001"><path d="M40 51L40 56L20 56Q17 56 16 57Q15 58 15 61L15 61L13 71L35 71L34 76L13 76L11 90Q10 92 11 94Q12 95 15 95L15 95L34 95L34 100Q28 100 14 100L14 100Q8 100 6 97Q4 95 4 90L4 90L9 59Q9 55 12 52Q14 50 19 50L19 50Q34 50 40 51L40 51ZM78 65L64 82L74 100L67 100L60 84L58 84L46 100L39 100L53 82L45 65L51 65L58 79L60 79L71 65L78 65ZM86 68Q90 64 99 64Q108 64 112 68Q115 73 114 83L114 83Q112 93 108 97Q104 101 95 101L95 101Q86 101 83 97Q79 92 81 82L81 82Q82 72 86 68ZM99 69L99 69Q93 69 91 72Q88 75 87 83L87 83Q86 90 88 93Q89 96 95 96L95 96Q101 96 104 93Q106 90 107 82L107 82Q108 75 107 72Q105 69 99 69ZM142 56L142 56L142 51Q150 49 157 49L157 49Q165 49 168 52Q172 54 171 60L171 60Q171 65 168 69Q166 73 160 78L160 78L144 94Q147 94 151 94L151 94L168 94L167 100L135 100L135 96Q136 94 137 93L137 93L153 77Q159 72 162 68Q164 64 165 60L165 60Q165 57 163 56Q161 55 157 55L157 55Q149 55 142 56ZM201 50L201 50L204 50Q205 50 206 51Q206 51 206 52L206 52L205 56Q205 58 203 58L203 58L201 58Q199 58 199 56L199 56L199 52Q200 50 201 50ZM204 65L199 100L193 100L198 65L204 65ZM234 70L223 70L220 90Q220 93 221 94Q222 95 224 95L224 95L230 95L230 100Q227 101 222 101Q218 101 216 98Q214 96 214 91L214 91L217 70L211 70L211 65L218 65L219 55L225 55L224 65L235 65L234 70ZM273 66L268 100L263 100L263 93Q257 101 248 101L248 101Q241 101 239 97Q237 92 239 82L239 82Q239 76 241 73Q242 69 245 67Q247 65 249 65Q252 64 256 64L256 64Q264 64 273 66L273 66ZM263 88L263 88L266 69Q261 69 258 69L258 69Q251 69 248 72Q246 74 245 83L245 83Q244 90 244 93Q245 96 249 96L249 96Q255 96 263 88ZM286 50L292 50L286 90Q286 93 287 94Q288 95 290 95L290 95L294 95L294 100Q292 101 288 101L288 101Q284 101 281 98Q279 96 280 92L280 92L286 50ZM309 50L309 50L311 50Q312 50 313 51Q313 51 313 52L313 52L313 56Q312 58 311 58L311 58L308 58Q306 58 306 56L306 56L307 52Q307 50 309 50ZM311 65L306 100L300 100L305 65L311 65ZM344 95L344 95L345 99Q339 101 333 101L333 101Q323 101 320 97Q317 92 318 82L318 82Q320 72 324 68Q328 64 337 64L337 64Q344 64 348 66L348 66L347 70Q344 69 338 69L338 69Q332 69 329 72Q326 75 325 83L325 83Q324 91 326 93Q328 96 334 96L334 96Q340 96 344 95Z"/></svg>