<svg xmlns="http://www.w3.org/2000/svg" viewBox="5.832000000000001 49.455999999999996 421.4880000000001 65.088"><path d="M16.49 94.74L36.43 94.74L36.72 99.64Q30.10 100.07 15.41 100.07L15.41 100.07Q11.02 100.07 8.46 97.73Q5.90 95.39 5.83 91.43L5.83 91.43L5.83 58.89Q5.90 54.93 8.46 52.59Q11.02 50.25 15.41 50.25L15.41 50.25Q30.10 50.25 36.72 50.68L36.72 50.68L36.43 55.65L16.49 55.65Q12.17 55.65 12.17 60.40L12.17 60.40L12.17 71.20L33.62 71.20L33.62 76.31L12.17 76.31L12.17 89.92Q12.17 94.74 16.49 94.74L16.49 94.74ZM70.06 100L60.05 84.16L58.61 84.16L48.67 100L41.98 100L53.71 81.93L42.84 64.94L49.46 64.94L58.54 79.41L60.19 79.41L69.19 64.94L75.82 64.94L64.94 81.93L76.68 100L70.06 100ZM97.99 64.07L97.99 64.07Q107.06 64.07 110.77 68.25Q114.48 72.42 114.48 82.50Q114.48 92.58 110.77 96.76Q107.06 100.94 97.99 100.94L97.99 100.94Q88.99 100.94 85.25 96.76Q81.50 92.58 81.50 82.50Q81.50 72.42 85.25 68.25Q88.99 64.07 97.99 64.07ZM105.95 72.06Q103.75 69.26 97.99 69.26Q92.23 69.26 90.07 72.06Q87.91 74.87 87.91 82.50Q87.91 90.14 90.07 92.94Q92.23 95.75 97.99 95.75Q103.75 95.75 105.95 92.94Q108.14 90.14 108.14 82.50Q108.14 74.87 105.95 72.06ZM139.32 56.22L139.32 56.22L138.89 51.33Q146.88 49.46 154.01 49.46L154.01 49.46Q161.86 49.46 165.56 51.65Q169.27 53.85 169.27 60.18L169.27 60.18Q169.27 64.86 167.33 68.79Q165.38 72.71 160.42 78.26L160.42 78.26L146.16 94.17Q149.54 93.88 154.22 93.88L154.22 93.88L171.07 93.88L171.07 100L138.46 100L138.46 96.04Q138.46 94.31 139.39 93.30L139.39 93.30L153.79 77.03Q158.69 71.78 160.85 67.85Q163.01 63.93 162.86 60.47L162.86 60.47Q162.79 57.09 160.60 56.08Q158.40 55.07 153.58 55.07L153.58 55.07Q146.38 55.07 139.32 56.22ZM217.01 64.07L218.59 64.07L217.87 69.83L215.86 69.83Q213.19 69.83 210.35 70.88Q207.50 71.92 202.75 74.30L202.75 74.30L202.75 100L196.63 100L196.63 64.94L201.38 64.94L202.03 70.48Q210.17 64.07 217.01 64.07L217.01 64.07ZM245.66 85.46L245.66 85.46L229.32 85.46Q229.82 91.50 232.27 93.59Q234.72 95.68 240.41 95.68L240.41 95.68Q246.38 95.68 252.58 94.82L252.58 94.82L253.22 98.92Q248.54 100.86 239.62 100.86L239.62 100.86Q230.54 100.86 226.69 96.65Q222.84 92.44 222.84 82.36L222.84 82.36Q222.84 72.21 226.58 68.14Q230.33 64.07 238.97 64.07L238.97 64.07Q246.82 64.07 250.42 66.92Q254.02 69.76 254.02 75.52L254.02 75.52Q254.16 85.46 245.66 85.46ZM229.25 80.70L229.25 80.70L244.08 80.70Q247.90 80.70 247.90 75.52L247.90 75.52Q247.82 72.14 245.88 70.70Q243.94 69.26 239.26 69.26L239.26 69.26Q233.71 69.26 231.55 71.67Q229.39 74.08 229.25 80.70ZM296.21 64.94L295.85 68.32L290.66 68.75Q292.10 71.13 292.10 75.23L292.10 75.23Q292.10 81.14 288.72 83.76Q285.34 86.39 277.06 86.39L277.06 86.39Q273.02 86.39 269.78 85.67L269.78 85.67Q268.42 87.33 268.99 89.31Q269.57 91.29 272.23 91.72L272.23 91.72L285.34 93.81Q290.23 94.53 292.21 96.87Q294.19 99.21 294.19 103.67L294.19 103.67Q294.19 109.79 290.56 112.17Q286.92 114.54 277.49 114.54L277.49 114.54Q267.98 114.54 264.28 112.20Q260.57 109.86 260.57 103.89L260.57 103.89Q260.57 100.79 261.86 98.92Q263.16 97.05 266.26 95.39L266.26 95.39Q263.59 93.30 263.81 89.85Q264.02 86.39 266.54 84.45L266.54 84.45Q262.08 82.07 262.08 75.30L262.08 75.30Q262.08 69.26 265.43 66.66Q268.78 64.07 277.13 64.07L277.13 64.07Q282.10 64.07 285.26 64.94L285.26 64.94L296.21 64.94ZM269.78 80.24Q271.87 81.71 277.06 81.71Q282.24 81.71 284.33 80.24Q286.42 78.76 286.42 75.23Q286.42 71.70 284.36 70.23Q282.31 68.75 277.06 68.75L277.06 68.75Q271.87 68.75 269.78 70.23Q267.70 71.70 267.70 75.23Q267.70 78.76 269.78 80.24ZM282.17 98.34L282.17 98.34L270.22 96.69Q266.54 99.50 266.54 103.38L266.54 103.38Q266.54 107.06 268.70 108.21Q270.86 109.36 277.42 109.36L277.42 109.36Q283.82 109.36 286.02 108.17Q288.22 106.98 288.22 103.38L288.22 103.38Q288.22 100.79 287.10 99.86Q285.98 98.92 282.17 98.34ZM327.10 64.94L333.22 64.94L333.22 100L328.32 100L327.89 94.96Q319.97 100.94 312.77 100.94L312.77 100.94Q303.19 100.94 303.19 91.29L303.19 91.29L303.19 64.94L309.31 64.94L309.31 89.56Q309.24 92.87 310.54 94.24Q311.83 95.61 314.86 95.61L314.86 95.61Q317.52 95.61 320.26 94.42Q322.99 93.23 327.10 90.57L327.10 90.57L327.10 64.94ZM344.52 49.60L350.64 49.60L350.64 90.35Q350.57 92.66 351.79 93.84Q353.02 95.03 355.39 95.03L355.39 95.03L358.78 95.03L359.50 99.71Q357.55 100.65 353.09 100.65L353.09 100.65Q349.13 100.65 346.82 98.31Q344.52 95.97 344.52 91.72L344.52 91.72L344.52 49.60ZM366.05 70.19L366.05 70.19L365.47 65.66Q375.12 64.07 382.39 64.07L382.39 64.07Q388.51 64.07 391.46 66.63Q394.42 69.18 394.42 75.30L394.42 75.30L394.42 100L389.59 100L388.87 94.24Q386.35 96.76 382.57 98.70Q378.79 100.65 374.40 100.65L374.40 100.65Q369.58 100.65 366.73 98.09Q363.89 95.54 363.89 90.86L363.89 90.86L363.89 87.04Q363.89 82.94 366.44 80.67Q369.00 78.40 373.61 78.40L373.61 78.40L388.22 78.40L388.22 75.30Q388.22 71.99 386.71 70.62Q385.20 69.26 381.10 69.26L381.10 69.26Q375.91 69.26 366.05 70.19ZM370.15 87.90L370.15 87.90L370.15 90.14Q370.15 92.87 371.45 94.13Q372.74 95.39 375.62 95.39L375.62 95.39Q378.36 95.46 381.85 94.10Q385.34 92.73 388.22 90.14L388.22 90.14L388.22 83.08L374.69 83.08Q372.24 83.15 371.20 84.38Q370.15 85.60 370.15 87.90ZM425.74 64.07L427.32 64.07L426.60 69.83L424.58 69.83Q421.92 69.83 419.08 70.88Q416.23 71.92 411.48 74.30L411.48 74.30L411.48 100L405.36 100L405.36 64.94L410.11 64.94L410.76 70.48Q418.90 64.07 425.74 64.07L425.74 64.07Z"/></svg>