<svg xmlns="http://www.w3.org/2000/svg" viewBox="3.9600000000000004 45.06399999999999 321.12000000000006 55.36800000000001"><path d="M18.07 100.43Q3.96 100.43 3.96 87.69L3.96 87.69L3.96 59.75Q3.96 52.62 7.88 49.56Q11.81 46.50 17.28 46.50L17.28 46.50Q30.24 46.50 40.90 47.58L40.90 47.58L40.90 59.39L21.60 59.39Q17.93 59.39 17.93 62.56L17.93 62.56L17.93 67.02L37.30 67.74L37.30 78.83L17.93 79.55L17.93 83.58Q17.93 85.46 18.76 86.39Q19.58 87.33 21.02 87.33L21.02 87.33L40.90 87.33L40.90 99.14Q36.43 99.78 30.13 100.11Q23.83 100.43 18.07 100.43L18.07 100.43ZM84.10 61.19L71.28 81.35L84.10 100L70.06 100L63.29 90.14L57.60 100L43.49 100L56.30 79.91L43.49 61.19L57.53 61.19L64.30 71.13L69.98 61.19L84.10 61.19ZM102.60 100.36Q95.62 100.36 91.62 98.38Q87.62 96.40 85.86 92.12Q84.10 87.83 84.10 80.49L84.10 80.49Q84.10 72.64 85.86 68.36Q87.62 64.07 91.58 62.31Q95.54 60.54 102.60 60.54L102.60 60.54Q109.66 60.54 113.62 62.38Q117.58 64.22 119.34 68.54Q121.10 72.86 121.10 80.49L121.10 80.49Q121.10 88.12 119.41 92.37Q117.72 96.62 113.76 98.49Q109.80 100.36 102.60 100.36L102.60 100.36ZM102.60 89.27Q104.54 89.27 105.44 88.73Q106.34 88.19 106.74 86.36Q107.14 84.52 107.14 80.42L107.14 80.42Q107.14 76.38 106.74 74.55Q106.34 72.71 105.44 72.17Q104.54 71.63 102.60 71.63L102.60 71.63Q100.66 71.63 99.76 72.17Q98.86 72.71 98.46 74.55Q98.06 76.38 98.06 80.42L98.06 80.42Q98.06 84.52 98.46 86.36Q98.86 88.19 99.76 88.73Q100.66 89.27 102.60 89.27L102.60 89.27ZM168.62 100.43Q165.17 100.43 163.01 99.46Q160.85 98.49 158.40 96.47L158.40 96.47L156.24 100L144.43 100L144.43 45.06L158.40 45.06L158.40 63.35Q163.73 60.54 167.90 60.54L167.90 60.54Q173.09 60.54 176.04 62.67Q178.99 64.79 180.29 69.26Q181.58 73.72 181.58 81.06L181.58 81.06Q181.58 91.22 178.38 95.82Q175.18 100.43 168.62 100.43L168.62 100.43ZM163.15 89.13Q165.17 89.13 166.39 87.36Q167.62 85.60 167.62 80.34L167.62 80.34Q167.62 76.60 166.97 74.69Q166.32 72.78 165.38 72.24Q164.45 71.70 163.15 71.70L163.15 71.70Q161.93 71.70 160.45 72.17Q158.98 72.64 158.40 73.14L158.40 73.14L158.40 88.05Q160.27 89.13 163.15 89.13L163.15 89.13ZM200.38 100.22Q193.54 100.22 190.22 97.01Q186.91 93.81 186.91 87.40L186.91 87.40L186.91 45.06L200.88 45.06L200.88 85.24Q200.88 87.33 201.60 88.37Q202.32 89.42 203.98 89.70L203.98 89.70L206.35 90.06L206.35 100.22L200.38 100.22ZM219.10 100.43Q214.56 100.43 211.82 97.77Q209.09 95.10 209.09 90.57L209.09 90.57L209.09 86.61Q209.09 82.07 212.40 79.30Q215.71 76.53 222.34 76.53L222.34 76.53L230.11 76.53L230.11 75.30Q230.11 73.72 229.61 72.96Q229.10 72.21 227.56 71.88Q226.01 71.56 222.70 71.56L222.70 71.56L211.39 71.56L211.39 63.57Q214.78 62.27 218.74 61.52Q222.70 60.76 227.95 60.76L227.95 60.76Q235.94 60.76 240.01 63.68Q244.08 66.59 244.08 74.30L244.08 74.30L244.08 100L232.99 100L230.83 96.11Q229.10 97.84 226.15 99.14Q223.20 100.43 219.10 100.43L219.10 100.43ZM226.44 90.93Q227.30 90.93 228.42 90.60Q229.54 90.28 230.11 89.99L230.11 89.99L230.11 83.01L227.16 83.44Q225.07 83.73 224.06 84.52Q223.06 85.31 223.06 86.82L223.06 86.82L223.06 88.26Q223.06 89.70 223.92 90.32Q224.78 90.93 226.44 90.93L226.44 90.93ZM266.04 100.43Q258.05 100.43 253.66 95.93Q249.26 91.43 249.26 80.85L249.26 80.85Q249.26 73.14 251.17 68.72Q253.08 64.29 256.82 62.42Q260.57 60.54 266.47 60.54L266.47 60.54Q270.36 60.54 273.49 61.05Q276.62 61.55 280.44 62.78L280.44 62.78L280.44 70.77L271.01 70.77Q267.84 70.77 266.18 71.60Q264.53 72.42 263.88 74.51Q263.23 76.60 263.23 80.63L263.23 80.63Q263.23 84.81 263.84 86.72Q264.46 88.62 266.08 89.31Q267.70 89.99 271.15 89.99L271.15 89.99L280.94 89.99L280.94 97.84Q278.21 98.99 274.00 99.71Q269.78 100.43 266.04 100.43L266.04 100.43ZM285.55 100L285.55 45.06L299.52 45.06L299.52 73.36L303.41 73.36L309.74 61.19L323.78 61.19L313.78 79.62L325.08 100L311.11 100L303.34 85.89L299.52 85.89L299.52 100L285.55 100Z"/></svg>