<svg xmlns="http://www.w3.org/2000/svg" viewBox="4.9342500000000005 49.455999999999996 467.3137500000001 51.40800000000001"><path d="M39 51L39 52L19 52Q16 52 14 54Q12 55 12 58L12 58L10 73L33 73L33 74L9 74L7 93Q6 95 8 97Q9 98 12 98L12 98L33 98L33 100Q25 100 11 100L11 100Q8 100 6 98Q5 96 5 93L5 93L10 58Q10 54 13 52Q15 50 18 50L18 50Q32 50 39 51L39 51ZM74 65L60 82L70 100L68 100L58 83L56 83L41 100L39 100L55 82L45 65L47 65L56 81L58 81L72 65L74 65ZM97 65L97 65Q105 65 108 69Q111 73 109 83L109 83Q108 93 104 97Q100 101 92 101L92 101Q83 101 81 97Q78 93 79 83L79 83Q81 73 84 69Q88 65 97 65ZM106 70Q104 66 97 66Q89 66 86 70Q82 74 81 83L81 83Q80 92 82 96Q84 99 92 99Q99 99 103 96Q106 92 108 83L108 83Q109 73 106 70ZM140 53L140 53L140 51Q148 49 154 49L154 49Q162 49 165 51Q168 53 167 60L167 60Q167 64 164 69Q161 73 155 79L155 79L135 98L144 98L164 98L164 100L133 100L133 99Q133 98 133 98L133 98L153 78Q159 72 162 68Q165 63 166 59L166 59Q166 56 165 55Q165 53 163 52Q161 52 159 51Q158 51 155 51L155 51Q148 51 140 53ZM211 67L198 67L194 93Q193 99 199 99L199 99L205 99L206 100Q203 100 199 100L199 100Q191 100 192 93L192 93L196 67L190 67L190 66L196 65L198 55L200 55L198 65L211 65L211 67ZM221 50L223 50L221 65Q220 70 219 74L219 74Q230 65 237 65L237 65Q247 65 246 74L246 74L242 100L240 100L244 74Q244 70 243 68Q241 66 237 66L237 66Q234 66 229 68Q225 71 219 76L219 76L216 100L214 100L221 50ZM263 51L263 51L263 51Q264 51 264 52L264 52L264 57Q264 57 263 57L263 57L262 57Q261 57 261 56L261 56L262 52Q262 51 263 51ZM262 65L257 100L255 100L260 65L262 65ZM276 65L277 65L276 74Q287 65 294 65L294 65Q303 65 302 74L302 74L298 100L297 100L300 74Q301 70 299 68Q298 66 294 66L294 66Q290 66 286 68Q282 71 276 75L276 75L273 100L271 100L276 65ZM336 51L336 51L337 51Q337 51 337 52L337 52L337 57Q337 57 336 57L336 57L335 57Q334 57 334 56L334 56L335 52Q335 51 336 51ZM335 65L330 100L328 100L333 65L335 65ZM365 67L352 67L348 93Q347 99 353 99L353 99L360 99L360 100Q357 100 354 100L354 100Q346 100 347 93L347 93L350 67L344 67L344 66L350 65L352 55L354 55L352 65L365 65L365 67ZM396 100L394 100L395 91Q391 96 386 98Q381 101 378 101L378 101Q371 101 370 96Q368 92 370 83L370 83Q371 72 375 68Q378 65 388 65L388 65Q393 65 401 65L401 65L396 100ZM395 89L395 89L399 67Q391 66 388 66L388 66Q384 66 382 67Q380 67 378 68Q376 69 375 71Q374 73 373 76Q372 79 371 83L371 83Q370 91 371 95Q373 99 378 99L378 99Q381 99 386 97Q391 94 395 89ZM416 50L418 50L412 93Q411 99 417 99L417 99L421 99L421 100Q420 100 416 100L416 100Q413 100 411 98Q410 97 410 93L410 93L416 50ZM436 51L436 51L436 51Q437 51 437 52L437 52L437 57Q437 57 436 57L436 57L435 57Q434 57 434 56L434 56L435 52Q435 51 436 51ZM435 65L430 100L428 100L433 65L435 65ZM468 98L468 98L468 100Q463 101 458 101L458 101Q449 101 446 97Q443 93 444 83L444 83Q446 73 450 69Q454 65 463 65L463 65Q469 65 472 66L472 66L472 67Q469 66 463 66L463 66Q455 66 451 70Q448 73 446 83L446 83Q445 92 448 96Q450 99 458 99L458 99Q464 99 468 98Z"/></svg>