<svg xmlns="http://www.w3.org/2000/svg" viewBox="4.6080000000000005 45.06399999999999 279.288 55.36800000000001"><path d="M18 100Q12 100 8 98Q5 96 5 89L5 89L5 59Q5 52 8 50Q12 47 17 47L17 47Q28 47 40 48L40 48L40 57L20 57Q15 57 15 61L15 61L15 69L36 69L36 78L15 78L15 86Q15 90 20 90L20 90L40 90L40 99Q30 100 18 100L18 100ZM81 61L68 81L81 100L71 100L62 88L54 100L44 100L57 80L44 61L54 61L63 74L71 61L81 61ZM100 100Q94 100 90 99Q86 97 84 92Q83 88 83 81L83 81Q83 73 84 68Q86 64 90 62Q94 61 100 61L100 61Q107 61 111 63Q115 64 116 69Q118 73 118 81L118 81Q118 88 116 93Q115 97 111 99Q107 100 100 100L100 100ZM100 92Q103 92 105 91Q106 90 107 88Q108 86 108 81L108 81Q108 76 107 73Q106 71 105 70Q103 69 100 69L100 69Q98 69 96 70Q95 71 94 73Q93 76 93 81L93 81Q93 86 94 88Q95 90 96 91Q98 92 100 92L100 92ZM166 100Q162 100 160 99Q157 98 155 96L155 96L153 100L144 100L144 45L155 45L155 64Q157 63 160 62Q163 61 165 61L165 61Q170 61 173 63Q176 65 178 69Q179 74 179 81L179 81Q179 91 176 96Q172 100 166 100L166 100ZM162 92Q165 92 167 89Q168 87 168 81L168 81Q168 76 167 73Q167 71 165 70Q164 69 162 69L162 69Q158 69 155 71L155 71L155 90Q158 92 162 92L162 92ZM203 100Q196 100 192 99Q188 97 187 92Q185 88 185 81L185 81Q185 73 187 68Q188 64 192 62Q196 61 203 61L203 61Q209 61 213 63Q217 64 219 69Q220 73 220 81L220 81Q220 88 219 93Q217 97 213 99Q209 100 203 100L203 100ZM203 92Q205 92 207 91Q208 90 209 88Q210 86 210 81L210 81Q210 76 209 73Q208 71 207 70Q205 69 203 69L203 69Q200 69 198 70Q197 71 196 73Q195 76 195 81L195 81Q195 86 196 88Q197 90 198 91Q200 92 203 92L203 92ZM239 100Q233 100 230 97Q227 94 227 88L227 88L227 45L238 45L238 86Q238 89 239 90Q240 92 242 92L242 92L245 92L245 100L239 100ZM263 100Q256 100 252 96Q249 91 249 81L249 81Q249 74 250 69Q251 65 255 63Q258 61 263 61L263 61Q268 61 273 63L273 63L273 45L284 45L284 100L275 100L273 96Q271 98 268 99Q265 100 263 100L263 100ZM266 92Q270 92 273 90L273 90L273 70Q271 70 270 69Q268 69 267 69L267 69Q264 69 262 70Q261 71 260 73Q259 76 259 81L259 81Q259 85 260 88Q261 90 262 91Q264 92 266 92L266 92Z"/></svg>