<svg xmlns="http://www.w3.org/2000/svg" viewBox="3.5460000000000003 49.38399999999999 691.1100000000001 51.552000000000014"><path d="M41.18 50.82L40.03 57.66L20.88 57.66Q18.72 57.66 17.75 58.60Q16.78 59.54 16.49 61.98L16.49 61.98L15.26 70.70L35.50 70.70L34.63 77.39L14.40 77.39L12.82 88.55Q12.53 90.86 13.32 91.76Q14.11 92.66 16.34 92.66L16.34 92.66L35.06 92.66L34.85 99.57Q28.73 100.14 14.54 100.14L14.54 100.14Q8.42 100.14 5.69 97.19Q2.95 94.24 3.67 88.91L3.67 88.91L7.78 59.39Q8.35 55.00 11.30 52.59Q14.26 50.18 19.30 50.18L19.30 50.18Q34.78 50.18 41.18 50.82L41.18 50.82ZM80.06 64.72L67.32 81.86L75.89 100L67.25 100L60.48 84.88L59.33 84.88L48.24 100L38.74 100L52.49 81.78L44.64 64.72L53.21 64.72L59.18 78.54L60.70 78.54L70.85 64.72L80.06 64.72ZM101.38 63.71L101.38 63.71Q110.74 63.71 114.37 68.14Q118.01 72.57 116.57 82.72L116.57 82.72Q115.20 92.66 110.77 96.80Q106.34 100.94 97.13 100.94L97.13 100.94Q87.84 100.94 84.10 96.54Q80.35 92.15 81.72 82.07L81.72 82.07Q83.16 72.06 87.55 67.89Q91.94 63.71 101.38 63.71ZM101.30 70.70L101.30 70.70Q96.34 70.70 94.10 73.14Q91.87 75.59 90.86 82.72L90.86 82.72Q89.86 89.34 91.15 91.65Q92.45 93.95 97.20 93.95L97.20 93.95Q102.17 93.95 104.40 91.47Q106.63 88.98 107.57 82.07L107.57 82.07Q108.50 75.30 107.24 73Q105.98 70.70 101.30 70.70ZM143.64 58.17L143.64 58.17L143.64 51.18Q152.21 49.46 159.48 49.46L159.48 49.46Q167.33 49.46 171.14 51.90Q174.96 54.35 174.24 60.98L174.24 60.98Q173.74 65.37 171.50 69.04Q169.27 72.71 163.87 77.90L163.87 77.90L148.97 91.94Q151.85 91.50 156.38 91.50L156.38 91.50L171.65 91.50L170.50 100L136.66 100L137.45 94.46Q137.81 91.79 138.96 90.64L138.96 90.64L153.94 76.38Q159.62 71.20 162.25 67.74Q164.88 64.29 165.17 61.19L165.17 61.19Q165.46 58.74 163.94 58.02Q162.43 57.30 158.54 57.30L158.54 57.30Q151.34 57.30 143.64 58.17ZM212.33 87.18L212.33 87.18L203.33 83.15Q199.22 81.28 197.57 78.76Q195.91 76.24 196.34 72.50L196.34 72.50Q196.92 67.60 200.56 65.62Q204.19 63.64 211.68 63.71L211.68 63.71Q220.10 63.86 227.30 65.01L227.30 65.01L226.37 70.98Q219.53 70.77 212.26 70.77L212.26 70.77Q207.86 70.77 206.42 71.13Q204.98 71.49 204.77 73.07L204.77 73.07Q204.55 74.51 205.42 75.27Q206.28 76.02 208.80 77.10L208.80 77.10L217.80 81.14Q222.26 83.08 223.92 85.35Q225.58 87.62 225.07 91.58L225.07 91.58Q224.71 94.02 223.78 95.68Q222.84 97.34 221.51 98.34Q220.18 99.35 217.98 99.89Q215.78 100.43 213.55 100.61Q211.32 100.79 208.01 100.79L208.01 100.79Q205.27 100.79 203.18 100.68Q201.10 100.58 200.05 100.47Q199.01 100.36 196.92 100.07Q194.83 99.78 193.54 99.64L193.54 99.64L194.47 93.52Q198.29 93.81 205.42 93.81L205.42 93.81Q211.97 93.81 214.09 93.27Q216.22 92.73 216.58 91L216.58 91Q216.50 90.57 216.61 90.32Q216.72 90.06 216.50 89.78Q216.29 89.49 216.25 89.34Q216.22 89.20 215.89 88.98Q215.57 88.77 215.42 88.62Q215.28 88.48 214.85 88.30Q214.42 88.12 214.13 87.98Q213.84 87.83 213.26 87.58Q212.69 87.33 212.33 87.18ZM262.30 92.87L262.30 92.87L262.87 98.56Q257.33 100.86 247.90 100.86Q238.46 100.86 234.79 96.08Q231.12 91.29 232.42 81.42L232.42 81.42Q233.78 71.27 238.10 67.49Q242.42 63.71 252.36 63.71L252.36 63.71Q261.14 63.71 264.20 66.70Q267.26 69.69 266.47 75.45L266.47 75.45Q265.75 80.63 262.44 82.94Q259.13 85.24 252.29 85.67L252.29 85.67L241.13 86.61Q241.20 90.78 243.14 92.26Q245.09 93.74 249.05 93.74L249.05 93.74Q255.02 93.74 262.30 92.87ZM241.63 80.70L241.63 80.70L251.71 79.84Q254.74 79.62 256.14 78.51Q257.54 77.39 257.90 74.66L257.90 74.66Q258.12 71.92 256.82 71.27Q255.53 70.62 251.28 70.62L251.28 70.62Q246.53 70.70 244.58 72.68Q242.64 74.66 241.63 80.70ZM275.83 64.72L282.53 64.72L282.38 71.70Q290.16 63.71 297.14 63.71L297.14 63.71Q301.10 63.71 303.26 65.66Q305.42 67.60 305.57 71.06L305.57 71.06Q309.46 67.17 312.77 65.44Q316.08 63.71 319.61 63.71L319.61 63.71Q324.29 63.71 326.48 66.38Q328.68 69.04 327.96 73.65L327.96 73.65L324.29 100L315.65 100L318.96 75.95Q319.39 73.22 318.64 72.17Q317.88 71.13 315.94 71.13L315.94 71.13Q313.70 71.13 311.44 72.53Q309.17 73.94 304.85 77.97L304.85 77.97L301.75 100L293.40 100L296.71 75.95Q297.07 73.36 296.42 72.24Q295.78 71.13 293.69 71.13L293.69 71.13Q291.38 71.13 289.12 72.50Q286.85 73.86 282.60 77.68L282.60 77.68L279.50 100L270.86 100L275.83 64.72ZM343.30 49.38L343.30 49.38L347.26 49.38Q348.55 49.38 349.16 50.10Q349.78 50.82 349.63 52.05L349.63 52.05L349.13 56.01Q348.70 58.38 346.39 58.38L346.39 58.38L342.43 58.38Q339.70 58.38 340.06 55.65L340.06 55.65L340.63 51.76Q340.85 49.38 343.30 49.38ZM347.62 64.72L342.72 100L334.01 100L338.98 64.72L347.62 64.72ZM375.41 49.60L384.05 49.60L382.25 63.35Q381.53 68.46 380.38 71.27L380.38 71.27Q383.62 68.10 387.54 65.94Q391.46 63.78 394.99 63.78L394.99 63.78Q401.33 63.78 403.63 67.92Q405.94 72.06 404.50 82.79L404.50 82.79Q403.70 88.41 402.26 92.08Q400.82 95.75 398.48 97.66Q396.14 99.57 393.52 100.25Q390.89 100.94 387.07 100.94L387.07 100.94Q382.97 100.94 377.53 100.14Q372.10 99.35 368.57 98.20L368.57 98.20L375.41 49.60ZM380.16 77.82L380.16 77.82L377.86 93.95Q383.76 94.10 384.41 94.10L384.41 94.10Q387.72 94.10 389.41 93.74Q391.10 93.38 392.47 92.04Q393.84 90.71 394.45 88.52Q395.06 86.32 395.64 82.22L395.64 82.22Q396.58 74.94 395.93 73.07Q395.28 71.20 392.47 71.20L392.47 71.20Q390.31 71.20 387.00 72.96Q383.69 74.73 380.16 77.82ZM430.85 63.71L430.85 63.71Q440.21 63.71 443.84 68.14Q447.48 72.57 446.04 82.72L446.04 82.72Q444.67 92.66 440.24 96.80Q435.82 100.94 426.60 100.94L426.60 100.94Q417.31 100.94 413.57 96.54Q409.82 92.15 411.19 82.07L411.19 82.07Q412.63 72.06 417.02 67.89Q421.42 63.71 430.85 63.71ZM430.78 70.70L430.78 70.70Q425.81 70.70 423.58 73.14Q421.34 75.59 420.34 82.72L420.34 82.72Q419.33 89.34 420.62 91.65Q421.92 93.95 426.67 93.95L426.67 93.95Q431.64 93.95 433.87 91.47Q436.10 88.98 437.04 82.07L437.04 82.07Q437.98 75.30 436.72 73Q435.46 70.70 430.78 70.70ZM458.71 49.60L467.42 49.60L461.81 89.20Q461.52 91.43 462.28 92.26Q463.03 93.09 465.34 93.09L465.34 93.09L468.50 93.09L468.86 99.64Q466.56 100.79 461.45 100.79L461.45 100.79Q456.91 100.79 454.61 98.20Q452.30 95.61 452.88 90.93L452.88 90.93L458.71 49.60ZM504.43 49.60L513.22 49.60L506.16 100L499.25 100L499.46 93.23Q492.12 100.86 484.13 100.86L484.13 100.86Q478.51 100.86 476.03 96.51Q473.54 92.15 474.98 81.78L474.98 81.78Q475.85 75.95 477.32 72.24Q478.80 68.54 481.03 66.74Q483.26 64.94 485.57 64.32Q487.87 63.71 491.26 63.71L491.26 63.71Q496.73 63.71 502.70 64.65L502.70 64.65Q502.85 61.19 503.21 57.88L503.21 57.88L504.43 49.60ZM499.25 86.68L501.48 70.55L494.86 70.48Q490.61 70.48 488.66 71.24Q486.72 71.99 485.64 74.37Q484.56 76.74 483.84 82.22L483.84 82.22Q482.90 89.13 483.52 91.29Q484.13 93.45 487.01 93.38L487.01 93.38Q489.96 93.38 492.66 91.83Q495.36 90.28 499.25 86.68L499.25 86.68ZM541.15 49.38L541.15 49.38L545.11 49.38Q546.41 49.38 547.02 50.10Q547.63 50.82 547.49 52.05L547.49 52.05L546.98 56.01Q546.55 58.38 544.25 58.38L544.25 58.38L540.29 58.38Q537.55 58.38 537.91 55.65L537.91 55.65L538.49 51.76Q538.70 49.38 541.15 49.38ZM545.47 64.72L540.58 100L531.86 100L536.83 64.72L545.47 64.72ZM576.58 71.06L566.21 71.06L563.62 89.20Q563.33 91.50 564.01 92.30Q564.70 93.09 567.07 93.09L567.07 93.09L572.04 93.09L572.40 99.57Q568.73 100.79 563.47 100.79L563.47 100.79Q558.65 100.79 556.38 98.06Q554.11 95.32 554.83 90.35L554.83 90.35L557.57 71.06L551.16 71.06L551.95 65.08L558.50 64.72L559.94 54.57L568.58 54.57L567.14 64.72L577.37 64.72L576.58 71.06ZM616.10 65.80L611.28 100L604.37 100L604.58 93.88Q598.61 100.79 589.82 100.86L589.82 100.86Q583.34 100.94 581.00 96.62Q578.66 92.30 580.10 81.78L580.10 81.78Q580.97 75.81 582.52 72.10Q584.06 68.39 586.58 66.59Q589.10 64.79 591.66 64.25Q594.22 63.71 598.32 63.71L598.32 63.71Q607.46 63.71 616.10 65.80L616.10 65.80ZM604.37 86.54L606.60 70.77L600.19 70.70Q596.88 70.70 595.15 71.02Q593.42 71.34 592.09 72.60Q590.76 73.86 590.15 76.02Q589.54 78.18 588.96 82.22L588.96 82.22Q587.95 89.63 588.56 91.58Q589.18 93.52 592.13 93.52L592.13 93.52Q595.15 93.52 597.96 91.83Q600.77 90.14 604.37 86.54L604.37 86.54ZM627.98 49.60L636.70 49.60L631.08 89.20Q630.79 91.43 631.55 92.26Q632.30 93.09 634.61 93.09L634.61 93.09L637.78 93.09L638.14 99.64Q635.83 100.79 630.72 100.79L630.72 100.79Q626.18 100.79 623.88 98.20Q621.58 95.61 622.15 90.93L622.15 90.93L627.98 49.60ZM652.82 49.38L652.82 49.38L656.78 49.38Q658.08 49.38 658.69 50.10Q659.30 50.82 659.16 52.05L659.16 52.05L658.66 56.01Q658.22 58.38 655.92 58.38L655.92 58.38L651.96 58.38Q649.22 58.38 649.58 55.65L649.58 55.65L650.16 51.76Q650.38 49.38 652.82 49.38ZM657.14 64.72L652.25 100L643.54 100L648.50 64.72L657.14 64.72ZM690.55 92.94L690.55 92.94L691.13 98.78Q685.66 100.86 678.10 100.86L678.10 100.86Q668.59 100.86 665.06 96.47Q661.54 92.08 662.98 82Q664.42 71.92 668.74 67.82Q673.06 63.71 682.27 63.71L682.27 63.71Q689.90 63.71 694.66 65.80L694.66 65.80L693.43 71.13Q686.09 70.98 683.57 70.98L683.57 70.98Q677.81 70.98 675.40 73.25Q672.98 75.52 672.12 82.50L672.12 82.50Q671.26 89.56 672.77 91.61Q674.28 93.66 679.68 93.66L679.68 93.66Q685.73 93.66 690.55 92.94Z"/></svg>