<svg xmlns="http://www.w3.org/2000/svg" viewBox="0.79 -7.43 16.65 7.489999999999999"><path d="M2.51 0.06Q1.84 0.06 1.31-0.25Q0.79-0.56 0.79-1.35L0.79-1.35Q0.79-1.52 0.82-1.73L0.82-1.73L1.43-5.56Q1.72-7.43 3.60-7.43L3.60-7.43Q4.87-7.43 6.64-7.28L6.64-7.28L6.38-5.64L3.90-5.64Q3.60-5.64 3.47-5.50Q3.34-5.37 3.29-5.07L3.29-5.07L3.22-4.60L5.68-4.50L5.44-2.96L2.94-2.86L2.85-2.28Q2.84-2.23 2.84-2.15L2.84-2.15Q2.84-1.76 3.31-1.76L3.31-1.76L5.77-1.76L5.51-0.12Q4.59-0.03 3.93 0.01Q3.26 0.06 2.51 0.06L2.51 0.06ZM12.59-5.39L10.37-2.54L11.85 0L9.86 0L9.07-1.35L7.96 0L5.98 0L8.26-2.76L6.72-5.39L8.70-5.39L9.53-3.97L10.51-5.39L12.59-5.39ZM14.38 0.06Q13.27 0.06 12.72-0.43Q12.17-0.92 12.17-1.85L12.17-1.85Q12.17-2.39 12.25-2.89L12.25-2.89Q12.42-3.96 12.77-4.51Q13.12-5.06 13.69-5.25Q14.27-5.45 15.24-5.45L15.24-5.45Q16.14-5.45 16.61-5.24Q17.09-5.03 17.27-4.60Q17.44-4.17 17.44-3.44L17.44-3.44Q17.44-2.94 17.35-2.35L17.35-2.35Q17.20-1.38 16.84-0.86Q16.49-0.34 15.90-0.14Q15.32 0.06 14.38 0.06L14.38 0.06ZM14.58-1.49Q14.87-1.49 15.02-1.58Q15.17-1.67 15.25-1.91Q15.34-2.14 15.42-2.62L15.42-2.62Q15.51-3.30 15.51-3.53L15.51-3.53Q15.51-3.76 15.39-3.85Q15.27-3.94 14.99-3.94L14.99-3.94Q14.70-3.94 14.55-3.83Q14.40-3.73 14.31-3.46Q14.23-3.19 14.15-2.62L14.15-2.62Q14.09-2.22 14.09-1.94L14.09-1.94Q14.09-1.69 14.20-1.59Q14.31-1.49 14.58-1.49L14.58-1.49Z"/></svg>