<svg xmlns="http://www.w3.org/2000/svg" viewBox="6.984000000000001 49.455999999999996 287.56800000000004 51.40800000000001"><path d="M14.69 98.42L35.35 98.42L35.50 99.71Q28.44 100 14.33 100L14.33 100Q11.16 100 9.07 97.91Q6.98 95.82 6.98 92.66L6.98 92.66L6.98 57.66Q6.98 54.50 9.07 52.41Q11.16 50.32 14.33 50.32L14.33 50.32Q28.44 50.32 35.50 50.61L35.50 50.61L35.35 51.90L14.69 51.90Q12.10 51.90 10.44 53.56Q8.78 55.22 8.78 57.81L8.78 57.81L8.78 72.64L32.40 72.64L32.40 74.15L8.78 74.15L8.78 92.51Q8.78 95.10 10.44 96.76Q12.10 98.42 14.69 98.42L14.69 98.42ZM71.28 100L58.68 82.72L57.02 82.72L44.42 100L42.26 100L55.37 82L43.20 65.44L45.36 65.44L56.88 81.14L58.82 81.14L70.34 65.44L72.50 65.44L60.34 82L73.44 100L71.28 100ZM83.66 68.64Q87.05 64.58 95.40 64.58Q103.75 64.58 107.14 68.64Q110.52 72.71 110.52 82.72Q110.52 92.73 107.14 96.80Q103.75 100.86 95.40 100.86Q87.05 100.86 83.66 96.80Q80.28 92.73 80.28 82.72Q80.28 72.71 83.66 68.64ZM105.77 69.83Q102.82 66.23 95.40 66.23Q87.98 66.23 85.03 69.83Q82.08 73.43 82.08 82.72Q82.08 92.01 85.03 95.61Q87.98 99.21 95.40 99.21Q102.82 99.21 105.77 95.61Q108.72 92.01 108.72 82.72Q108.72 73.43 105.77 69.83ZM137.45 52.70L137.45 52.70L137.02 51.40Q145.08 49.46 151.13 49.46L151.13 49.46Q158.76 49.46 162.18 51.44Q165.60 53.42 165.60 59.39L165.60 59.39Q165.60 64.22 163.30 68.54Q160.99 72.86 155.59 79.12L155.59 79.12L138.89 98.42L147.53 98.42L167.83 98.42L167.83 100L136.58 100L136.58 98.99Q136.58 98.49 136.94 97.98L136.94 97.98L154.22 78.04Q159.34 72.06 161.57 67.64Q163.80 63.21 163.66 58.82L163.66 58.82Q163.44 53.99 160.52 52.55Q157.61 51.11 151.49 51.11L151.49 51.11Q144.94 51.11 137.45 52.70ZM206.86 50.32L206.86 100L205.06 100L205.06 55.50Q205.06 53.78 205.27 52.19L205.27 52.19L191.81 56.73L191.45 55.58L205.06 50.32L206.86 50.32ZM225.04 55.58Q228.53 49.46 237.02 49.46Q245.52 49.46 249.01 55.58Q252.50 61.70 252.50 75.16Q252.50 88.62 249.01 94.74Q245.52 100.86 237.02 100.86Q228.53 100.86 225.04 94.74Q221.54 88.62 221.54 75.16Q221.54 61.70 225.04 55.58ZM247.57 56.80Q244.51 51.11 237.02 51.11Q229.54 51.11 226.48 56.80Q223.42 62.49 223.42 75.16Q223.42 87.83 226.48 93.52Q229.54 99.21 237.02 99.21Q244.51 99.21 247.57 93.52Q250.63 87.83 250.63 75.16Q250.63 62.49 247.57 56.80ZM267.08 55.58Q270.58 49.46 279.07 49.46Q287.57 49.46 291.06 55.58Q294.55 61.70 294.55 75.16Q294.55 88.62 291.06 94.74Q287.57 100.86 279.07 100.86Q270.58 100.86 267.08 94.74Q263.59 88.62 263.59 75.16Q263.59 61.70 267.08 55.58ZM289.62 56.80Q286.56 51.11 279.07 51.11Q271.58 51.11 268.52 56.80Q265.46 62.49 265.46 75.16Q265.46 87.83 268.52 93.52Q271.58 99.21 279.07 99.21Q286.56 99.21 289.62 93.52Q292.68 87.83 292.68 75.16Q292.68 62.49 289.62 56.80Z"/></svg>