<svg xmlns="http://www.w3.org/2000/svg" viewBox="4.046000000000001 49.455999999999996 344.3620000000001 51.48000000000001"><path d="M40.46 50.68L39.60 55.65L19.80 55.65Q17.35 55.65 16.20 56.80Q15.05 57.95 14.69 60.54L14.69 60.54L13.18 71.34L34.56 71.34L33.91 76.24L12.53 76.24L10.66 89.99Q10.30 92.44 11.23 93.56Q12.17 94.67 14.62 94.67L14.62 94.67L34.06 94.67L33.91 99.64Q27.58 100.07 13.82 100.07L13.82 100.07Q8.42 100.07 5.98 97.44Q3.53 94.82 4.18 90.14L4.18 90.14L8.57 58.74Q9.14 54.71 11.81 52.48Q14.47 50.25 19.01 50.25L19.01 50.25Q33.84 50.25 40.46 50.68L40.46 50.68ZM77.62 64.94L64.37 81.93L73.51 100L67.32 100L59.54 84.16L57.89 84.16L45.65 100L38.81 100L53.14 81.86L44.71 64.94L50.83 64.94L57.74 79.41L59.76 79.41L70.99 64.94L77.62 64.94ZM86.22 68.21Q90.43 64.07 99.36 64.07Q108.29 64.07 111.64 68.39Q114.98 72.71 113.54 82.79L113.54 82.79Q112.18 92.73 107.93 96.83Q103.68 100.94 94.90 100.94L94.90 100.94Q86.04 100.94 82.62 96.62Q79.20 92.30 80.57 82.29L80.57 82.29Q82.01 72.35 86.22 68.21ZM99.36 69.26L99.36 69.26Q93.46 69.26 90.76 72.06Q88.06 74.87 86.98 82.79L86.98 82.79Q85.90 90.28 87.59 93.02Q89.28 95.75 94.90 95.75L94.90 95.75Q100.80 95.75 103.50 92.87Q106.20 89.99 107.28 82.29L107.28 82.29Q108.36 74.73 106.67 71.99Q104.98 69.26 99.36 69.26ZM141.98 56.22L141.98 56.22L141.91 51.33Q150.19 49.46 157.10 49.46L157.10 49.46Q164.66 49.46 168.30 51.76Q171.94 54.06 171.22 60.40L171.22 60.40Q170.64 64.94 168.16 68.90Q165.67 72.86 159.98 78.40L159.98 78.40L143.71 94.17Q146.95 93.88 151.42 93.88L151.42 93.88L168.34 93.88L167.47 100L134.86 100L135.43 95.90Q135.65 94.10 136.51 93.23L136.51 93.23L153.29 76.96Q158.90 71.56 161.68 67.67Q164.45 63.78 164.81 60.18L164.81 60.18Q165.17 56.94 163.26 56.01Q161.35 55.07 156.60 55.07L156.60 55.07Q149.26 55.07 141.98 56.22ZM201.38 50.03L201.38 50.03L204.26 50.03Q205.20 50.03 205.67 50.61Q206.14 51.18 205.99 52.05L205.99 52.05L205.49 56.15Q205.20 57.88 203.47 57.88L203.47 57.88L200.66 57.88Q198.65 57.88 198.86 55.86L198.86 55.86L199.44 51.83Q199.66 50.03 201.38 50.03ZM203.90 64.94L199.01 100L192.96 100L197.86 64.94L203.90 64.94ZM234.43 69.76L223.27 69.76L220.39 90.50Q220.03 93.02 220.90 94.02Q221.76 95.03 224.28 95.03L224.28 95.03L229.75 95.03L229.97 99.71Q226.66 100.65 222.12 100.65Q217.58 100.65 215.57 98.13Q213.55 95.61 214.20 91.07L214.20 91.07L217.22 69.76L210.82 69.76L211.39 65.30L217.94 65.01L219.38 54.57L225.43 54.57L223.99 64.94L235.15 64.94L234.43 69.76ZM272.59 65.73L267.77 100L262.94 100L263.38 92.94Q256.61 100.86 247.75 100.86L247.75 100.86Q241.42 100.86 239.26 96.65Q237.10 92.44 238.61 82.07L238.61 82.07Q239.40 76.24 240.80 72.60Q242.21 68.97 244.51 67.13Q246.82 65.30 249.41 64.68Q252.00 64.07 256.10 64.07L256.10 64.07Q263.95 64.07 272.59 65.73L272.59 65.73ZM263.30 87.69L263.30 87.69L265.90 69.40Q260.71 69.18 257.98 69.18L257.98 69.18Q250.70 69.18 248.36 71.52Q246.02 73.86 244.73 82.58L244.73 82.58Q243.65 90.50 244.48 93.02Q245.30 95.54 248.98 95.54L248.98 95.54Q255.24 95.54 263.30 87.69ZM285.91 49.60L292.03 49.60L286.27 90.50Q285.91 92.94 286.81 93.99Q287.71 95.03 290.23 95.03L290.23 95.03L293.76 95.03L293.98 99.78Q291.89 100.65 287.64 100.65L287.64 100.65Q283.54 100.65 281.48 98.24Q279.43 95.82 280.01 91.58L280.01 91.58L285.91 49.60ZM308.59 50.03L308.59 50.03L311.47 50.03Q312.41 50.03 312.88 50.61Q313.34 51.18 313.20 52.05L313.20 52.05L312.70 56.15Q312.41 57.88 310.68 57.88L310.68 57.88L307.87 57.88Q305.86 57.88 306.07 55.86L306.07 55.86L306.65 51.83Q306.86 50.03 308.59 50.03ZM311.11 64.94L306.22 100L300.17 100L305.06 64.94L311.11 64.94ZM344.30 94.96L344.30 94.96L344.74 99.14Q339.19 100.86 332.71 100.86L332.71 100.86Q323.50 100.86 320.18 96.58Q316.87 92.30 318.31 82.22L318.31 82.22Q319.75 72.21 323.96 68.14Q328.18 64.07 337.18 64.07L337.18 64.07Q344.09 64.07 348.41 65.80L348.41 65.80L347.40 69.62Q343.51 69.26 338.18 69.26L338.18 69.26Q331.56 69.26 328.64 71.99Q325.73 74.73 324.72 82.72L324.72 82.72Q323.71 90.64 325.62 93.16Q327.53 95.68 333.79 95.68L333.79 95.68Q339.77 95.68 344.30 94.96Z"/></svg>