<svg xmlns="http://www.w3.org/2000/svg" viewBox="6.336 45.06399999999999 247.104 55.36800000000001"><path d="M16 100Q12 100 9 98Q6 97 6 91L6 91L6 57Q6 52 9 49Q12 47 15 47L15 47L37 48L37 49L15 49Q12 49 10 51Q8 53 8 57L8 57L8 73L34 73L34 74L8 75L8 91Q8 96 10 97Q12 99 16 99L16 99L37 99L37 100L16 100ZM74 62L60 81L74 100L72 100L59 82L46 100L44 100L58 81L44 62L46 62L59 80L72 62L74 62ZM95 100Q89 100 86 99Q83 97 81 93Q79 89 79 81L79 81Q79 73 81 69Q83 64 86 63Q89 61 95 61L95 61Q100 61 104 63Q107 64 109 69Q111 73 111 81L111 81Q111 89 109 93Q107 97 104 99Q100 100 95 100L95 100ZM95 99Q100 99 103 98Q106 96 107 92Q109 88 109 81L109 81Q109 73 107 69Q106 65 103 64Q100 63 95 63L95 63Q90 63 87 64Q84 65 82 69Q81 73 81 81L81 81Q81 88 82 92Q84 96 87 98Q90 99 95 99L95 99ZM154 100Q144 100 144 89L144 89L144 63L138 63L138 62L144 62L144 51L146 51L146 62L158 62L158 63L146 63L146 89Q146 94 148 96Q150 98 153 98L153 98L158 99L158 100L154 100ZM168 100L168 45L169 45L169 66Q173 64 177 63Q181 61 185 61L185 61Q189 61 191 63Q194 65 195 67Q197 70 197 73L197 73L197 100L195 100L195 73Q195 69 192 66Q190 63 185 63L185 63Q181 63 177 64Q174 65 169 67L169 67L169 100L168 100ZM210 54Q210 54 209 54Q209 53 209 53L209 53L209 49Q209 48 210 48L210 48L211 48Q212 48 212 49L212 49L212 53Q212 54 211 54L211 54L210 54ZM210 100L210 62L211 62L211 100L210 100ZM224 100L224 62L225 62L226 66Q230 64 234 63Q238 61 242 61L242 61Q245 61 248 63Q251 65 252 67Q253 70 253 73L253 73L253 100L252 100L252 73Q252 69 249 66Q246 63 242 63L242 63Q237 63 234 64Q231 65 226 67L226 67L226 100L224 100Z"/></svg>