<svg xmlns="http://www.w3.org/2000/svg" viewBox="5.6160000000000005 49.455999999999996 446.47200000000015 51.48000000000001"><path d="M17 94L37 94L37 100Q30 100 16 100L16 100Q11 100 8 98Q6 95 6 91L6 91L6 59Q6 55 8 53Q11 50 16 50L16 50Q30 50 37 51L37 51L37 56L17 56Q15 56 14 57Q13 58 13 61L13 61L13 71L34 71L34 77L13 77L13 89Q13 92 14 93Q15 94 17 94L17 94ZM70 100L60 84L59 84L49 100L42 100L53 82L43 65L50 65L59 79L60 79L69 65L76 65L66 82L77 100L70 100ZM86 68Q89 64 99 64Q108 64 112 68Q115 72 115 83Q115 93 112 97Q108 101 99 101Q89 101 86 97Q82 93 82 83Q82 72 86 68ZM106 72Q104 70 99 70Q93 70 91 72Q89 75 89 83L89 83Q89 90 91 92Q93 95 99 95Q104 95 106 92Q108 90 108 83L108 83Q108 75 106 72ZM140 57L140 57L139 51Q147 49 155 49L155 49Q163 49 166 52Q170 54 170 60L170 60Q170 65 168 69Q166 73 161 78L161 78L148 93Q151 93 156 93L156 93L172 93L172 100L139 100L139 95Q139 94 140 92L140 92L154 77Q163 67 163 61L163 61Q163 58 161 57Q159 56 154 56L154 56Q148 56 140 57ZM197 65L203 65L203 70Q210 64 217 64L217 64Q224 64 226 70L226 70Q233 64 240 64L240 64Q245 64 247 66Q249 69 249 74L249 74L249 100L243 100L243 76Q242 73 241 71Q240 70 237 70L237 70Q235 70 233 71Q231 72 227 75L227 75L227 100L220 100L220 76Q220 72 219 71Q217 70 215 70L215 70Q212 70 210 71Q208 72 204 75L204 75L204 100L197 100L197 65ZM281 86L281 86L266 86Q266 91 269 93Q271 95 276 95L276 95Q281 95 289 94L289 94L289 99Q284 101 275 101L275 101Q266 101 262 97Q258 93 258 82L258 82Q258 72 262 68Q266 64 275 64L275 64Q283 64 286 67Q290 70 290 76L290 76Q290 86 281 86ZM266 80L266 80L280 80Q283 80 283 76L283 76Q283 72 281 71Q279 70 275 70L275 70Q270 70 268 72Q266 74 266 80ZM329 100L324 100L323 95Q317 101 310 101L310 101Q303 101 300 96Q297 92 297 82L297 82Q297 72 300 68Q304 64 311 64L311 64Q317 64 323 67L323 67Q322 64 322 60L322 60L322 50L329 50L329 100ZM322 90L322 90L322 72Q316 70 312 70L312 70Q308 70 306 72Q304 75 304 82Q304 89 306 92Q308 95 312 95L312 95Q315 95 317 94Q319 93 322 90ZM342 50L342 50L346 50Q348 50 348 52L348 52L348 56Q348 58 346 58L346 58L342 58Q340 58 340 56L340 56L340 52Q340 50 342 50ZM347 65L347 100L340 100L340 65L347 65ZM382 65L389 65L389 100L383 100L383 95Q375 101 368 101L368 101Q358 101 358 91L358 91L358 65L365 65L365 89Q365 92 366 94Q367 95 370 95L370 95Q374 95 382 90L382 90L382 65ZM400 65L405 65L406 70Q413 64 420 64L420 64Q427 64 429 70L429 70Q436 64 443 64L443 64Q447 64 450 66Q452 69 452 74L452 74L452 100L445 100L445 76Q445 73 444 71Q443 70 440 70L440 70Q438 70 436 71Q433 72 429 75L429 75L429 100L423 100L423 76Q423 72 421 71Q420 70 417 70L417 70Q415 70 413 71Q411 72 407 75L407 75L407 100L400 100L400 65Z"/></svg>