<svg xmlns="http://www.w3.org/2000/svg" viewBox="3.5460000000000003 49.38399999999999 691.1100000000001 51.552000000000014"><path d="M41 51L40 58L21 58Q19 58 18 59Q17 60 16 62L16 62L15 71L35 71L35 77L14 77L13 89Q13 91 13 92Q14 93 16 93L16 93L35 93L35 100Q29 100 15 100L15 100Q8 100 6 97Q3 94 4 89L4 89L8 59Q8 55 11 53Q14 50 19 50L19 50Q35 50 41 51L41 51ZM80 65L67 82L76 100L67 100L60 85L59 85L48 100L39 100L52 82L45 65L53 65L59 79L61 79L71 65L80 65ZM101 64L101 64Q111 64 114 68Q118 73 117 83L117 83Q115 93 111 97Q106 101 97 101L97 101Q88 101 84 97Q80 92 82 82L82 82Q83 72 88 68Q92 64 101 64ZM101 71L101 71Q96 71 94 73Q92 76 91 83L91 83Q90 89 91 92Q92 94 97 94L97 94Q102 94 104 91Q107 89 108 82L108 82Q109 75 107 73Q106 71 101 71ZM144 58L144 58L144 51Q152 49 159 49L159 49Q167 49 171 52Q175 54 174 61L174 61Q174 65 172 69Q169 73 164 78L164 78L149 92Q152 92 156 92L156 92L172 92L170 100L137 100L137 94Q138 92 139 91L139 91L154 76Q160 71 162 68Q165 64 165 61L165 61Q165 59 164 58Q162 57 159 57L159 57Q151 57 144 58ZM212 87L212 87L203 83Q199 81 198 79Q196 76 196 72L196 72Q197 68 201 66Q204 64 212 64L212 64Q220 64 227 65L227 65L226 71Q220 71 212 71L212 71Q208 71 206 71Q205 71 205 73L205 73Q205 75 205 75Q206 76 209 77L209 77L218 81Q222 83 224 85Q226 88 225 92L225 92Q225 94 224 96Q223 97 222 98Q220 99 218 100Q216 100 214 101Q211 101 208 101L208 101Q205 101 203 101Q201 101 200 100Q199 100 197 100Q195 100 194 100L194 100L194 94Q198 94 205 94L205 94Q212 94 214 93Q216 93 217 91L217 91Q217 91 217 90Q217 90 217 90Q216 89 216 89Q216 89 216 89Q216 89 215 89Q215 88 215 88Q214 88 214 88Q214 88 213 88Q213 87 212 87ZM262 93L262 93L263 99Q257 101 248 101Q238 101 235 96Q231 91 232 81L232 81Q234 71 238 67Q242 64 252 64L252 64Q261 64 264 67Q267 70 266 75L266 75Q266 81 262 83Q259 85 252 86L252 86L241 87Q241 91 243 92Q245 94 249 94L249 94Q255 94 262 93ZM242 81L242 81L252 80Q255 80 256 79Q258 77 258 75L258 75Q258 72 257 71Q256 71 251 71L251 71Q247 71 245 73Q243 75 242 81ZM276 65L283 65L282 72Q290 64 297 64L297 64Q301 64 303 66Q305 68 306 71L306 71Q309 67 313 65Q316 64 320 64L320 64Q324 64 326 66Q329 69 328 74L328 74L324 100L316 100L319 76Q319 73 319 72Q318 71 316 71L316 71Q314 71 311 73Q309 74 305 78L305 78L302 100L293 100L297 76Q297 73 296 72Q296 71 294 71L294 71Q291 71 289 72Q287 74 283 78L283 78L280 100L271 100L276 65ZM343 49L343 49L347 49Q349 49 349 50Q350 51 350 52L350 52L349 56Q349 58 346 58L346 58L342 58Q340 58 340 56L340 56L341 52Q341 49 343 49ZM348 65L343 100L334 100L339 65L348 65ZM375 50L384 50L382 63Q382 68 380 71L380 71Q384 68 388 66Q391 64 395 64L395 64Q401 64 404 68Q406 72 404 83L404 83Q404 88 402 92Q401 96 398 98Q396 100 394 100Q391 101 387 101L387 101Q383 101 378 100Q372 99 369 98L369 98L375 50ZM380 78L380 78L378 94Q384 94 384 94L384 94Q388 94 389 94Q391 93 392 92Q394 91 394 89Q395 86 396 82L396 82Q397 75 396 73Q395 71 392 71L392 71Q390 71 387 73Q384 75 380 78ZM431 64L431 64Q440 64 444 68Q447 73 446 83L446 83Q445 93 440 97Q436 101 427 101L427 101Q417 101 414 97Q410 92 411 82L411 82Q413 72 417 68Q421 64 431 64ZM431 71L431 71Q426 71 424 73Q421 76 420 83L420 83Q419 89 421 92Q422 94 427 94L427 94Q432 94 434 91Q436 89 437 82L437 82Q438 75 437 73Q435 71 431 71ZM459 50L467 50L462 89Q462 91 462 92Q463 93 465 93L465 93L469 93L469 100Q467 101 461 101L461 101Q457 101 455 98Q452 96 453 91L453 91L459 50ZM504 50L513 50L506 100L499 100L499 93Q492 101 484 101L484 101Q479 101 476 97Q474 92 475 82L475 82Q476 76 477 72Q479 69 481 67Q483 65 486 64Q488 64 491 64L491 64Q497 64 503 65L503 65Q503 61 503 58L503 58L504 50ZM499 87L501 71L495 70Q491 70 489 71Q487 72 486 74Q485 77 484 82L484 82Q483 89 484 91Q484 93 487 93L487 93Q490 93 493 92Q495 90 499 87L499 87ZM541 49L541 49L545 49Q546 49 547 50Q548 51 547 52L547 52L547 56Q547 58 544 58L544 58L540 58Q538 58 538 56L538 56L538 52Q539 49 541 49ZM545 65L541 100L532 100L537 65L545 65ZM577 71L566 71L564 89Q563 92 564 92Q565 93 567 93L567 93L572 93L572 100Q569 101 563 101L563 101Q559 101 556 98Q554 95 555 90L555 90L558 71L551 71L552 65L559 65L560 55L569 55L567 65L577 65L577 71ZM616 66L611 100L604 100L605 94Q599 101 590 101L590 101Q583 101 581 97Q579 92 580 82L580 82Q581 76 583 72Q584 68 587 67Q589 65 592 64Q594 64 598 64L598 64Q607 64 616 66L616 66ZM604 87L607 71L600 71Q597 71 595 71Q593 71 592 73Q591 74 590 76Q590 78 589 82L589 82Q588 90 589 92Q589 94 592 94L592 94Q595 94 598 92Q601 90 604 87L604 87ZM628 50L637 50L631 89Q631 91 632 92Q632 93 635 93L635 93L638 93L638 100Q636 101 631 101L631 101Q626 101 624 98Q622 96 622 91L622 91L628 50ZM653 49L653 49L657 49Q658 49 659 50Q659 51 659 52L659 52L659 56Q658 58 656 58L656 58L652 58Q649 58 650 56L650 56L650 52Q650 49 653 49ZM657 65L652 100L644 100L649 65L657 65ZM691 93L691 93L691 99Q686 101 678 101L678 101Q669 101 665 96Q662 92 663 82Q664 72 669 68Q673 64 682 64L682 64Q690 64 695 66L695 66L693 71Q686 71 684 71L684 71Q678 71 675 73Q673 76 672 83L672 83Q671 90 673 92Q674 94 680 94L680 94Q686 94 691 93Z"/></svg>