<svg xmlns="http://www.w3.org/2000/svg" viewBox="3.9600000000000004 45.06399999999999 321.12000000000006 55.36800000000001"><path d="M18 100Q4 100 4 88L4 88L4 60Q4 53 8 50Q12 47 17 47L17 47Q30 47 41 48L41 48L41 59L22 59Q18 59 18 63L18 63L18 67L37 68L37 79L18 80L18 84Q18 85 19 86Q20 87 21 87L21 87L41 87L41 99Q36 100 30 100Q24 100 18 100L18 100ZM84 61L71 81L84 100L70 100L63 90L58 100L43 100L56 80L43 61L58 61L64 71L70 61L84 61ZM103 100Q96 100 92 98Q88 96 86 92Q84 88 84 80L84 80Q84 73 86 68Q88 64 92 62Q96 61 103 61L103 61Q110 61 114 62Q118 64 119 69Q121 73 121 80L121 80Q121 88 119 92Q118 97 114 98Q110 100 103 100L103 100ZM103 89Q105 89 105 89Q106 88 107 86Q107 85 107 80L107 80Q107 76 107 75Q106 73 105 72Q105 72 103 72L103 72Q101 72 100 72Q99 73 98 75Q98 76 98 80L98 80Q98 85 98 86Q99 88 100 89Q101 89 103 89L103 89ZM169 100Q165 100 163 99Q161 98 158 96L158 96L156 100L144 100L144 45L158 45L158 63Q164 61 168 61L168 61Q173 61 176 63Q179 65 180 69Q182 74 182 81L182 81Q182 91 178 96Q175 100 169 100L169 100ZM163 89Q165 89 166 87Q168 86 168 80L168 80Q168 77 167 75Q166 73 165 72Q164 72 163 72L163 72Q162 72 160 72Q159 73 158 73L158 73L158 88Q160 89 163 89L163 89ZM200 100Q194 100 190 97Q187 94 187 87L187 87L187 45L201 45L201 85Q201 87 202 88Q202 89 204 90L204 90L206 90L206 100L200 100ZM219 100Q215 100 212 98Q209 95 209 91L209 91L209 87Q209 82 212 79Q216 77 222 77L222 77L230 77L230 75Q230 74 230 73Q229 72 228 72Q226 72 223 72L223 72L211 72L211 64Q215 62 219 62Q223 61 228 61L228 61Q236 61 240 64Q244 67 244 74L244 74L244 100L233 100L231 96Q229 98 226 99Q223 100 219 100L219 100ZM226 91Q227 91 228 91Q230 90 230 90L230 90L230 83L227 83Q225 84 224 85Q223 85 223 87L223 87L223 88Q223 90 224 90Q225 91 226 91L226 91ZM266 100Q258 100 254 96Q249 91 249 81L249 81Q249 73 251 69Q253 64 257 62Q261 61 266 61L266 61Q270 61 273 61Q277 62 280 63L280 63L280 71L271 71Q268 71 266 72Q265 72 264 75Q263 77 263 81L263 81Q263 85 264 87Q264 89 266 89Q268 90 271 90L271 90L281 90L281 98Q278 99 274 100Q270 100 266 100L266 100ZM286 100L286 45L300 45L300 73L303 73L310 61L324 61L314 80L325 100L311 100L303 86L300 86L300 100L286 100Z"/></svg>