<svg xmlns="http://www.w3.org/2000/svg" viewBox="6.5520000000000005 45.06399999999999 286.488 55.36800000000001"><path d="M16 100Q12 100 9 99Q7 97 7 92L7 92Q7 91 7 90L7 90L12 58Q13 52 16 49Q19 47 24 47L24 47Q34 47 46 48L46 48L45 52L25 52Q22 52 20 54Q18 55 17 59L17 59L15 71L39 72L38 76L15 76L13 89Q13 90 13 90L13 90Q13 93 14 94Q16 95 18 95L18 95L38 95L37 100L33 100Q31 100 26 100Q21 100 16 100L16 100ZM83 62L67 81L78 100L72 100L63 85L50 100L44 100L60 81L49 62L55 62L64 77L77 62L83 62ZM98 100Q91 100 87 97Q84 94 84 87L84 87Q84 84 84 80L84 80Q85 73 88 69Q90 64 94 63Q98 61 104 61L104 61Q112 61 115 64Q118 68 118 75L118 75Q118 78 117 82L117 82Q116 89 114 93Q112 97 108 99Q104 100 98 100L98 100ZM98 96Q103 96 105 95Q108 93 109 90Q111 87 112 81L112 81Q112 77 112 74L112 74Q112 70 110 68Q108 66 103 66L103 66Q99 66 96 67Q94 68 92 72Q91 75 90 81L90 81Q89 85 89 87L89 87Q89 92 92 94Q94 96 98 96L98 96ZM148 55Q148 55 148 54Q147 54 147 54L147 54L148 48Q148 47 149 47Q149 47 150 47L150 47L154 47Q155 47 155 48L155 48L154 54Q154 55 152 55L152 55L148 55ZM140 100L146 62L152 62L146 100L140 100ZM170 100Q165 100 163 98Q160 96 160 92L160 92Q160 89 161 86L161 86L164 66L158 66L159 63L165 62L168 51L172 51L171 62L182 62L181 66L170 66L167 86Q167 86 167 88Q166 89 166 90L166 90Q166 93 167 94Q169 95 171 95L171 95L176 96L175 100L170 100ZM196 100Q191 100 188 97Q185 94 185 87L185 87Q185 85 185 80L185 80Q187 70 192 66Q196 61 205 61L205 61Q209 61 213 62Q218 63 220 65L220 65L214 100L210 100L209 96Q207 97 203 99Q199 100 196 100L196 100ZM198 96Q201 96 204 95Q206 94 210 92L210 92L214 68Q212 67 210 66Q208 66 205 66L205 66Q200 66 198 67Q195 69 193 72Q192 75 191 81L191 81Q190 84 190 87L190 87Q190 91 192 93Q195 96 198 96L198 96ZM235 100Q230 100 228 98Q226 96 226 92L226 92Q226 90 226 87L226 87L233 45L239 45L232 85Q232 89 232 91L232 91Q232 93 233 94Q234 95 236 96L236 96L240 96L239 100L235 100ZM253 55Q253 55 253 54Q252 54 252 54L252 54L253 48Q253 47 254 47Q254 47 255 47L255 47L259 47Q260 47 259 48L259 48L259 54Q258 55 257 55L257 55L253 55ZM245 100L251 62L257 62L251 100L245 100ZM275 100Q269 100 265 97Q262 94 262 86L262 86Q262 84 263 80L263 80Q264 70 269 66Q273 61 281 61L281 61Q285 61 293 62L293 62L292 66L281 66Q276 66 273 69Q270 73 268 81L268 81Q268 85 268 86L268 86Q268 92 270 94Q272 96 277 96L277 96L289 96L288 99Q283 100 275 100L275 100Z"/></svg>