<svg xmlns="http://www.w3.org/2000/svg" viewBox="5.832000000000001 45.06399999999999 670.9680000000002 55.36800000000001"><path d="M18 100Q13 100 9 98Q6 96 6 91L6 91Q6 89 6 88L6 88L11 60Q13 47 26 47L26 47Q35 47 47 48L47 48L46 58L27 58Q25 58 24 59Q23 60 23 63L23 63L22 68L40 68L39 78L20 79L19 85Q19 85 19 86L19 86Q19 89 23 89L23 89L41 89L39 99Q27 100 18 100L18 100ZM89 61L73 82L84 100L71 100L65 89L56 100L43 100L60 80L49 61L61 61L68 72L76 61L89 61ZM102 100Q95 100 91 97Q87 94 87 87L87 87Q87 83 87 79L87 79Q89 72 91 68Q94 64 98 62Q102 61 109 61L109 61Q115 61 118 62Q122 64 123 67Q124 70 124 75L124 75Q124 79 123 83L123 83Q122 90 120 94Q117 97 113 99Q109 100 102 100L102 100ZM104 90Q106 90 108 90Q109 89 110 87Q110 85 111 81L111 81Q112 77 112 75L112 75Q112 72 111 71Q110 71 107 71L107 71Q105 71 103 71Q102 72 101 74Q100 77 100 81L100 81Q99 84 99 86L99 86Q99 89 100 90Q101 90 104 90L104 90ZM161 100Q153 100 150 97Q146 93 146 86L146 86Q146 83 147 79L147 79Q148 69 154 65Q159 61 167 61L167 61Q174 61 178 63Q183 66 183 73L183 73Q183 80 178 83Q174 86 166 86L166 86Q162 86 159 85L159 85Q158 87 158 87L158 87Q158 89 160 90Q162 91 166 91L166 91L179 91L178 99Q170 100 161 100L161 100ZM163 79Q167 79 169 78Q171 77 171 74L171 74Q171 70 167 70L167 70Q163 70 162 72Q160 74 159 79L159 79Q162 79 163 79L163 79ZM225 61L209 82L220 100L207 100L201 89L192 100L179 100L196 80L185 61L197 61L204 72L212 61L225 61ZM240 100Q234 100 231 98Q228 96 228 91L228 91Q228 88 229 84L229 84L231 71L225 71L227 63L233 61L237 50L246 50L245 61L253 61L252 71L243 71L241 84Q241 87 241 87L241 87Q241 89 241 90Q242 90 244 90L244 90L248 91L247 100L240 100ZM253 100L260 61L271 61L271 66Q274 64 276 62Q278 61 281 61L281 61Q284 61 285 61L285 61L283 74Q282 74 279 74L279 74Q276 74 274 74Q271 75 270 76L270 76L266 100L253 100ZM294 100Q290 100 287 97Q284 94 284 87L284 87Q284 84 285 82Q285 79 285 79L285 79Q286 70 291 65Q296 61 306 61L306 61Q311 61 315 62Q320 63 323 66L323 66L317 100L306 100L305 96Q304 98 301 99Q297 100 294 100L294 100ZM301 90Q302 90 304 90Q305 89 307 88L307 88L309 72Q307 71 305 71L305 71Q302 71 300 73Q298 75 297 80L297 80Q297 83 297 85L297 85Q297 87 298 89Q299 90 301 90L301 90ZM366 100Q363 100 360 99Q357 98 355 96L355 96L353 100L342 100L351 45L363 45L360 63Q362 62 365 62Q367 61 369 61L369 61Q375 61 378 64Q382 68 382 75L382 75Q382 77 381 84L381 84Q379 92 376 96Q372 100 366 100L366 100ZM362 90Q365 90 367 88Q368 86 369 80L369 80Q369 78 369 77L369 77Q369 71 365 71L365 71Q364 71 362 71Q360 72 359 72L359 72L356 89Q357 90 359 90Q360 90 362 90L362 90ZM401 100Q393 100 390 97Q386 94 386 87L386 87Q386 83 386 79L386 79Q388 72 390 68Q392 64 397 62Q401 61 408 61L408 61Q414 61 417 62Q420 64 422 67Q423 70 423 75L423 75Q423 79 422 83L422 83Q421 90 419 94Q416 97 412 99Q408 100 401 100L401 100ZM403 90Q405 90 406 90Q408 89 409 87Q409 85 410 81L410 81Q411 77 411 75L411 75Q411 72 410 71Q408 71 406 71L406 71Q403 71 402 71Q401 72 400 74Q399 77 399 81L399 81Q398 84 398 86L398 86Q398 89 399 90Q400 90 403 90L403 90ZM440 100Q434 100 431 98Q428 95 428 91L428 91Q428 88 428 86L428 86L434 45L447 45L441 82Q440 86 440 87L440 87Q440 89 441 90Q442 90 444 91L444 91L446 91L445 100L440 100ZM462 100Q457 100 454 97Q451 93 451 87L451 87Q451 83 452 78L452 78Q453 72 455 69Q457 65 461 63Q465 61 472 61L472 61Q475 61 478 61L478 61L480 45L493 45L484 100L473 100L472 96Q470 98 467 99Q465 100 462 100L462 100ZM468 90Q469 90 471 90Q472 89 474 88L474 88L476 72Q475 71 472 71L472 71Q469 71 467 73Q465 75 464 81L464 81Q464 83 464 85L464 85Q464 90 468 90L468 90ZM517 56Q517 56 516 56Q516 55 516 54L516 54L517 47Q518 45 519 45L519 45L529 45Q530 45 530 46Q530 46 530 47L530 47L529 54Q529 56 527 56L527 56L517 56ZM509 100L515 61L528 61L521 100L509 100ZM545 100Q539 100 536 98Q533 96 533 91L533 91Q533 88 534 84L534 84L536 71L530 71L532 63L538 61L542 50L551 50L550 61L558 61L557 71L548 71L546 84Q546 87 546 87L546 87Q546 89 546 90Q547 90 549 90L549 90L553 91L552 100L545 100ZM570 100Q566 100 563 97Q560 94 560 87L560 87Q560 84 560 82Q561 79 561 79L561 79Q562 70 567 65Q572 61 581 61L581 61Q586 61 591 62Q596 63 598 66L598 66L593 100L582 100L581 96Q579 98 576 99Q573 100 570 100L570 100ZM576 90Q578 90 579 90Q581 89 582 88L582 88L585 72Q583 71 581 71L581 71Q577 71 575 73Q574 75 573 80L573 80Q572 83 572 85L572 85Q572 87 573 89Q574 90 576 90L576 90ZM614 100Q608 100 605 98Q602 95 602 91L602 91Q602 88 602 86L602 86L608 45L621 45L615 82Q614 86 614 87L614 87Q614 89 615 90Q616 90 618 91L618 91L620 91L619 100L614 100ZM632 56Q631 56 631 56Q631 55 631 54L631 54L632 47Q632 45 634 45L634 45L643 45Q644 45 644 46Q645 46 645 47L645 47L643 54Q643 56 642 56L642 56L632 56ZM624 100L630 61L642 61L636 100L624 100ZM659 100Q652 100 648 97Q645 94 645 86L645 86Q645 83 645 79L645 79Q648 61 663 61L663 61Q669 61 677 63L677 63L676 70L666 70Q662 70 660 73Q658 75 657 81L657 81Q657 83 657 84L657 84Q657 88 658 89Q660 91 663 91L663 91L673 91L672 98Q669 99 666 100Q663 100 659 100L659 100Z"/></svg>