<svg xmlns="http://www.w3.org/2000/svg" viewBox="5.112000000000001 49.38399999999999 505.944 51.552000000000014"><path d="M17.78 92.73L37.22 92.73L37.66 99.57Q31.10 100.14 15.77 100.14L15.77 100.14Q10.87 100.14 8.03 97.62Q5.18 95.10 5.11 90.71L5.11 90.71L5.11 59.61Q5.18 55.22 8.03 52.70Q10.87 50.18 15.77 50.18L15.77 50.18Q31.10 50.18 37.66 50.75L37.66 50.75L37.22 57.66L17.78 57.66Q15.84 57.66 15.01 58.60Q14.18 59.54 14.18 61.84L14.18 61.84L14.18 70.55L34.56 70.55L34.56 77.46L14.18 77.46L14.18 88.55Q14.18 90.86 15.01 91.79Q15.84 92.73 17.78 92.73L17.78 92.73ZM69.91 100L61.06 84.88L60.05 84.88L51.19 100L41.98 100L53.14 81.86L42.84 64.72L51.98 64.72L59.98 78.54L61.13 78.54L69.12 64.72L78.26 64.72L67.97 81.86L79.13 100L69.91 100ZM100.15 63.71L100.15 63.71Q109.66 63.71 113.58 67.96Q117.50 72.21 117.50 82.36Q117.50 92.51 113.58 96.72Q109.66 100.94 100.15 100.94L100.15 100.94Q90.58 100.94 86.62 96.72Q82.66 92.51 82.66 82.36Q82.66 72.21 86.62 67.96Q90.58 63.71 100.15 63.71ZM100.15 70.70L100.15 70.70Q95.26 70.70 93.53 73.11Q91.80 75.52 91.80 82.36L91.80 82.36Q91.80 89.13 93.53 91.54Q95.26 93.95 100.15 93.95L100.15 93.95Q104.90 93.95 106.67 91.54Q108.43 89.13 108.43 82.36L108.43 82.36Q108.43 75.52 106.67 73.11Q104.90 70.70 100.15 70.70ZM141.12 58.17L141.12 58.17L140.62 51.26Q148.82 49.46 156.60 49.46L156.60 49.46Q164.66 49.46 168.59 51.80Q172.51 54.14 172.51 60.69L172.51 60.69Q172.51 65.22 170.78 68.86Q169.06 72.50 164.23 77.75L164.23 77.75L151.06 91.94Q154.01 91.50 158.76 91.50L158.76 91.50L174.10 91.50L174.10 100L140.26 100L140.26 94.60Q140.26 92.22 141.55 90.86L141.55 90.86L154.51 76.53Q163.51 66.95 163.44 61.41L163.44 61.41Q163.37 58.82 161.60 58.06Q159.84 57.30 155.66 57.30L155.66 57.30Q148.75 57.30 141.12 58.17ZM214.13 86.61L214.13 86.61L204.84 84.09Q200.23 82.79 198.40 80.42Q196.56 78.04 196.56 73.72L196.56 73.72Q196.56 68.03 199.80 65.87Q203.04 63.71 210.96 63.71L210.96 63.71Q219.60 63.86 226.58 65.01L226.58 65.01L225.94 71.06Q217.01 70.77 212.47 70.77L212.47 70.77Q207.72 70.77 206.35 71.24Q204.98 71.70 204.98 73.79L204.98 73.79Q204.98 74.30 205.09 74.73Q205.20 75.16 205.27 75.45Q205.34 75.74 205.67 75.99Q205.99 76.24 206.14 76.38Q206.28 76.53 206.86 76.74Q207.43 76.96 207.65 77.03Q207.86 77.10 208.66 77.32Q209.45 77.54 209.81 77.61L209.81 77.61L219.31 80.20Q223.85 81.50 225.79 83.69Q227.74 85.89 227.74 90.35L227.74 90.35Q227.74 96.54 224.21 98.67Q220.68 100.79 211.97 100.79L211.97 100.79Q204.05 100.79 197.21 99.64L197.21 99.64L197.78 93.52Q201.53 93.81 209.81 93.81L209.81 93.81Q215.50 93.81 217.40 93.16Q219.31 92.51 219.31 90.42L219.31 90.42Q219.31 89.99 219.24 89.63Q219.17 89.27 219.02 88.98Q218.88 88.70 218.74 88.48Q218.59 88.26 218.23 88.05Q217.87 87.83 217.66 87.72Q217.44 87.62 216.90 87.44Q216.36 87.26 216.11 87.18Q215.86 87.11 215.14 86.90Q214.42 86.68 214.13 86.61ZM257.69 86.03L257.69 86.03L243.29 86.03Q243.79 90.64 245.88 92.19Q247.97 93.74 252.72 93.74L252.72 93.74Q258.12 93.74 265.39 92.87L265.39 92.87L266.18 98.49Q261.22 100.86 251.64 100.86Q242.06 100.86 238.03 96.62Q234.00 92.37 234.00 82.29L234.00 82.29Q234.00 71.99 237.96 67.85Q241.92 63.71 251.06 63.71L251.06 63.71Q259.49 63.71 263.30 66.77Q267.12 69.83 267.12 75.95L267.12 75.95Q267.12 86.03 257.69 86.03ZM243.14 79.91L243.14 79.91L255.24 79.91Q258.41 79.91 258.41 75.81L258.41 75.81Q258.41 72.93 256.90 71.78Q255.38 70.62 251.42 70.62L251.42 70.62Q246.82 70.62 245.05 72.53Q243.29 74.44 243.14 79.91ZM275.04 64.72L282.17 64.72L282.67 69.90Q289.73 63.71 296.50 63.71L296.50 63.71Q303.62 63.71 305.50 69.62L305.50 69.62Q312.12 63.71 318.89 63.71L318.89 63.71Q323.57 63.71 326.02 66.23Q328.46 68.75 328.46 73.50L328.46 73.50L328.46 100L319.90 100L319.90 76.17Q319.82 73.43 318.89 72.28Q317.95 71.13 315.50 71.13L315.50 71.13Q313.42 71.13 311.58 71.99Q309.74 72.86 306.00 75.38L306.00 75.38L306.00 100L297.58 100L297.58 76.17Q297.65 73.36 296.60 72.24Q295.56 71.13 293.18 71.13L293.18 71.13Q291.17 71.13 289.30 71.99Q287.42 72.86 283.75 75.30L283.75 75.30L283.75 100L275.04 100L275.04 64.72ZM340.63 49.38L340.63 49.38L344.66 49.38Q347.18 49.38 347.18 51.90L347.18 51.90L347.18 55.86Q347.18 58.38 344.66 58.38L344.66 58.38L340.63 58.38Q338.11 58.38 338.11 55.86L338.11 55.86L338.11 51.90Q338.11 49.38 340.63 49.38ZM347.04 64.72L347.04 100L338.33 100L338.33 64.72L347.04 64.72ZM372.82 49.60L381.60 49.60L381.60 61.48Q381.60 66.59 380.74 69.69L380.74 69.69Q386.35 63.71 393.70 63.71L393.70 63.71Q400.39 63.71 403.49 68.03Q406.58 72.35 406.58 82.14L406.58 82.14Q406.58 91.36 402.95 96.11Q399.31 100.86 390.02 100.86L390.02 100.86Q385.92 100.86 380.95 100.18Q375.98 99.50 372.82 98.20L372.82 98.20L372.82 49.60ZM381.60 75.02L381.60 75.02L381.60 93.02Q385.78 94.02 389.81 93.88L389.81 93.88Q394.06 93.81 395.78 91.29Q397.51 88.77 397.58 82.14L397.58 82.14Q397.51 75.66 396.14 73.36Q394.78 71.06 390.38 71.06L390.38 71.06Q388.22 71.06 386.35 71.99Q384.48 72.93 381.60 75.02ZM430.70 63.71L430.70 63.71Q440.21 63.71 444.13 67.96Q448.06 72.21 448.06 82.36Q448.06 92.51 444.13 96.72Q440.21 100.94 430.70 100.94L430.70 100.94Q421.13 100.94 417.17 96.72Q413.21 92.51 413.21 82.36Q413.21 72.21 417.17 67.96Q421.13 63.71 430.70 63.71ZM430.70 70.70L430.70 70.70Q425.81 70.70 424.08 73.11Q422.35 75.52 422.35 82.36L422.35 82.36Q422.35 89.13 424.08 91.54Q425.81 93.95 430.70 93.95L430.70 93.95Q435.46 93.95 437.22 91.54Q438.98 89.13 438.98 82.36L438.98 82.36Q438.98 75.52 437.22 73.11Q435.46 70.70 430.70 70.70ZM456.34 49.60L465.12 49.60L465.12 88.98Q465.05 91.07 466.09 92.08Q467.14 93.09 469.30 93.09L469.30 93.09L472.32 93.09L473.33 99.57Q470.88 100.79 465.84 100.79L465.84 100.79Q461.45 100.79 458.89 98.27Q456.34 95.75 456.34 91.14L456.34 91.14L456.34 49.60ZM502.27 49.60L511.06 49.60L511.06 100L504.14 100L503.42 95.18Q497.30 100.86 489.74 100.86L489.74 100.86Q483.26 100.86 480.31 96.15Q477.36 91.43 477.36 82.14L477.36 82.14Q477.36 71.99 480.64 67.85Q483.91 63.71 490.90 63.71L490.90 63.71Q497.66 63.71 502.63 66.81L502.63 66.81Q502.27 63.93 502.27 59.75L502.27 59.75L502.27 49.60ZM502.27 89.78L502.27 89.78L502.27 72.28Q496.51 70.84 493.49 70.84L493.49 70.84Q489.38 70.84 487.87 73.04Q486.36 75.23 486.36 82.07L486.36 82.07Q486.36 88.77 487.84 91.11Q489.31 93.45 492.98 93.45L492.98 93.45Q495.43 93.45 497.23 92.69Q499.03 91.94 502.27 89.78Z"/></svg>