<svg xmlns="http://www.w3.org/2000/svg" viewBox="2.5695 48.087999999999994 748.8945000000002 52.84800000000001"><path d="M43 51L41 61L23 61Q22 61 21 61Q20 62 20 64L20 64L19 70L37 70L36 79L17 79L16 87Q16 88 17 89Q18 90 19 90L19 90L37 90L37 99Q31 100 14 100L14 100Q8 100 5 97Q2 93 3 87L3 87L6 61Q7 56 10 53Q14 50 19 50L19 50Q36 50 43 51L43 51ZM85 64L73 82L81 100L68 100L62 86L53 100L39 100L52 82L45 64L57 64L62 78L72 64L85 64ZM106 63L106 63Q117 63 121 68Q125 72 123 83L123 83Q122 93 117 97Q113 101 102 101L102 101Q92 101 88 96Q83 92 85 82L85 82Q86 71 91 67Q96 63 106 63ZM106 72L106 72Q102 72 101 74Q99 76 98 83L98 83Q98 88 99 90Q99 92 103 92L103 92Q106 92 108 90Q109 88 110 82L110 82Q111 76 110 74Q109 72 106 72ZM148 61L148 61L148 51Q157 49 165 49L165 49Q175 49 179 52Q183 55 182 62L182 62Q181 66 179 69Q177 73 173 77L173 77L159 89Q162 88 166 88L166 88L180 88L178 100L141 100L142 93Q143 89 145 87L145 87L157 76Q164 70 166 68Q168 65 168 63L168 63Q169 62 168 61Q167 61 164 61L164 61Q155 61 148 61ZM234 90L234 90L235 98Q229 101 219 101L219 101Q208 101 204 96Q200 91 201 82L201 82Q202 71 207 67Q212 63 222 63L222 63Q232 63 236 66Q240 70 239 76L239 76Q238 81 235 83Q231 85 224 85L224 85L214 86Q214 89 216 90Q217 91 220 91L220 91Q227 91 234 90ZM215 79L215 79L221 79Q224 78 225 78Q226 77 226 75L226 75Q226 73 226 73Q225 72 222 72L222 72Q219 72 217 74Q216 75 215 79ZM284 64L271 82L279 100L267 100L261 86L251 100L238 100L251 82L244 64L256 64L261 78L270 64L284 64ZM313 72L304 72L301 88Q301 90 302 90Q302 91 304 91L304 91L309 91L309 99Q305 101 298 101L298 101Q293 101 290 98Q287 95 288 91L288 91L291 72L284 72L285 65L292 64L293 55L306 55L305 64L314 64L313 72ZM344 63L346 63L344 75L341 75Q337 75 330 78L330 78L327 100L314 100L319 64L329 64L329 70Q337 63 344 63L344 63ZM386 65L381 100L371 100L371 93Q366 100 357 101L357 101Q350 101 347 96Q345 91 347 81L347 81Q347 76 349 73Q350 70 352 68Q354 66 357 65Q359 64 362 63Q364 63 369 63L369 63Q372 63 378 64Q384 65 386 65L386 65ZM370 84L372 72L368 72Q364 72 362 74Q361 75 360 81L360 81Q359 87 359 89Q360 91 362 91L362 91Q366 90 370 84L370 84ZM411 50L424 50L423 60Q422 65 420 69L420 69Q427 63 434 63L434 63Q440 63 443 68Q445 72 444 82L444 82Q443 92 438 96Q434 101 424 101L424 101Q419 101 413 100Q407 99 404 98L404 98L411 50ZM420 77L420 77L418 92Q421 92 423 92L423 92Q427 92 428 90Q430 88 431 81L431 81Q431 77 431 75Q430 74 428 74L428 74Q425 74 420 77ZM470 63L470 63Q480 63 485 68Q489 72 487 83L487 83Q486 93 481 97Q476 101 466 101L466 101Q456 101 451 96Q447 92 449 82L449 82Q450 71 455 67Q460 63 470 63ZM470 72L470 72Q466 72 465 74Q463 76 462 83L462 83Q462 88 462 90Q463 92 467 92L467 92Q470 92 471 90Q473 88 474 82L474 82Q475 76 474 74Q473 72 470 72ZM498 50L511 50L506 88Q505 89 506 90Q506 91 509 91L509 91L512 91L512 99Q509 101 503 101L503 101Q497 101 494 98Q492 95 492 91L492 91L498 50ZM546 50L559 50L552 100L541 100L541 94Q534 101 527 101L527 101Q514 101 517 81L517 81Q518 76 519 72Q520 69 522 67Q525 65 527 64Q529 63 532 63L532 63Q538 63 544 64L544 64Q544 60 544 57L544 57L546 50ZM540 86L542 72L538 72Q534 72 532 73Q531 75 530 81L530 81Q529 86 530 88Q530 90 532 90L532 90Q536 90 540 86L540 86ZM586 48L586 48L591 48Q595 48 595 52L595 52L594 56Q593 60 590 60L590 60L584 60Q580 60 581 55L581 55L581 52Q582 48 586 48ZM593 64L588 100L575 100L580 64L593 64ZM625 72L616 72L614 88Q613 90 614 90Q614 91 616 91L616 91L621 91L621 99Q617 101 610 101L610 101Q605 101 602 98Q599 95 600 91L600 91L603 72L597 72L598 65L604 64L605 55L618 55L617 64L626 64L625 72ZM667 65L662 100L652 100L652 93Q647 100 638 101L638 101Q631 101 628 96Q626 91 627 81L627 81Q628 76 630 73Q631 70 633 68Q634 66 637 65Q640 64 643 63Q645 63 649 63L649 63Q653 63 659 64Q664 65 667 65L667 65ZM651 84L653 72L649 72Q645 72 643 74Q642 75 641 81L641 81Q640 87 640 89Q641 91 643 91L643 91Q647 90 651 84L651 84ZM677 50L690 50L684 88Q684 89 684 90Q685 91 687 91L687 91L690 91L691 99Q688 101 681 101L681 101Q676 101 673 98Q670 95 671 91L671 91L677 50ZM705 48L705 48L711 48Q715 48 714 52L714 52L714 56Q713 60 710 60L710 60L704 60Q700 60 701 55L701 55L701 52Q701 48 705 48ZM712 64L707 100L694 100L699 64L712 64ZM747 90L747 90L748 98Q742 101 733 101L733 101Q723 101 719 96Q715 92 716 82L716 82Q718 72 722 67Q727 63 736 63L736 63Q745 63 751 66L751 66L750 74L738 74Q734 74 732 75Q731 77 730 82L730 82Q729 87 730 89Q731 90 735 90L735 90Q742 90 747 90Z"/></svg>