<svg xmlns="http://www.w3.org/2000/svg" viewBox="5.832000000000001 49.455999999999996 421.4880000000001 65.088"><path d="M16 95L36 95L37 100Q30 100 15 100L15 100Q11 100 8 98Q6 95 6 91L6 91L6 59Q6 55 8 53Q11 50 15 50L15 50Q30 50 37 51L37 51L36 56L16 56Q12 56 12 60L12 60L12 71L34 71L34 76L12 76L12 90Q12 95 16 95L16 95ZM70 100L60 84L59 84L49 100L42 100L54 82L43 65L49 65L59 79L60 79L69 65L76 65L65 82L77 100L70 100ZM98 64L98 64Q107 64 111 68Q114 72 114 83Q114 93 111 97Q107 101 98 101L98 101Q89 101 85 97Q82 93 82 83Q82 72 85 68Q89 64 98 64ZM106 72Q104 69 98 69Q92 69 90 72Q88 75 88 83Q88 90 90 93Q92 96 98 96Q104 96 106 93Q108 90 108 83Q108 75 106 72ZM139 56L139 56L139 51Q147 49 154 49L154 49Q162 49 166 52Q169 54 169 60L169 60Q169 65 167 69Q165 73 160 78L160 78L146 94Q150 94 154 94L154 94L171 94L171 100L138 100L138 96Q138 94 139 93L139 93L154 77Q159 72 161 68Q163 64 163 60L163 60Q163 57 161 56Q158 55 154 55L154 55Q146 55 139 56ZM217 64L219 64L218 70L216 70Q213 70 210 71Q208 72 203 74L203 74L203 100L197 100L197 65L201 65L202 70Q210 64 217 64L217 64ZM246 85L246 85L229 85Q230 92 232 94Q235 96 240 96L240 96Q246 96 253 95L253 95L253 99Q249 101 240 101L240 101Q231 101 227 97Q223 92 223 82L223 82Q223 72 227 68Q230 64 239 64L239 64Q247 64 250 67Q254 70 254 76L254 76Q254 85 246 85ZM229 81L229 81L244 81Q248 81 248 76L248 76Q248 72 246 71Q244 69 239 69L239 69Q234 69 232 72Q229 74 229 81ZM296 65L296 68L291 69Q292 71 292 75L292 75Q292 81 289 84Q285 86 277 86L277 86Q273 86 270 86L270 86Q268 87 269 89Q270 91 272 92L272 92L285 94Q290 95 292 97Q294 99 294 104L294 104Q294 110 291 112Q287 115 277 115L277 115Q268 115 264 112Q261 110 261 104L261 104Q261 101 262 99Q263 97 266 95L266 95Q264 93 264 90Q264 86 267 84L267 84Q262 82 262 75L262 75Q262 69 265 67Q269 64 277 64L277 64Q282 64 285 65L285 65L296 65ZM270 80Q272 82 277 82Q282 82 284 80Q286 79 286 75Q286 72 284 70Q282 69 277 69L277 69Q272 69 270 70Q268 72 268 75Q268 79 270 80ZM282 98L282 98L270 97Q267 99 267 103L267 103Q267 107 269 108Q271 109 277 109L277 109Q284 109 286 108Q288 107 288 103L288 103Q288 101 287 100Q286 99 282 98ZM327 65L333 65L333 100L328 100L328 95Q320 101 313 101L313 101Q303 101 303 91L303 91L303 65L309 65L309 90Q309 93 311 94Q312 96 315 96L315 96Q318 96 320 94Q323 93 327 91L327 91L327 65ZM345 50L351 50L351 90Q351 93 352 94Q353 95 355 95L355 95L359 95L359 100Q358 101 353 101L353 101Q349 101 347 98Q345 96 345 92L345 92L345 50ZM366 70L366 70L365 66Q375 64 382 64L382 64Q389 64 391 67Q394 69 394 75L394 75L394 100L390 100L389 94Q386 97 383 99Q379 101 374 101L374 101Q370 101 367 98Q364 96 364 91L364 91L364 87Q364 83 366 81Q369 78 374 78L374 78L388 78L388 75Q388 72 387 71Q385 69 381 69L381 69Q376 69 366 70ZM370 88L370 88L370 90Q370 93 371 94Q373 95 376 95L376 95Q378 95 382 94Q385 93 388 90L388 90L388 83L375 83Q372 83 371 84Q370 86 370 88ZM426 64L427 64L427 70L425 70Q422 70 419 71Q416 72 411 74L411 74L411 100L405 100L405 65L410 65L411 70Q419 64 426 64L426 64Z"/></svg>