<svg xmlns="http://www.w3.org/2000/svg" viewBox="0.81 -7.0200000000000005 22.950000000000006 7.15"><path d="M2.29-0.73L5.06-0.73L5.10-0.05Q4.18 0.01 2.14 0.01L2.14 0.01Q1.53 0.01 1.18-0.32Q0.82-0.64 0.81-1.19L0.81-1.19L0.81-5.71Q0.82-6.26 1.18-6.58Q1.53-6.91 2.14-6.91L2.14-6.91Q4.18-6.91 5.10-6.85L5.10-6.85L5.06-6.16L2.29-6.16Q1.69-6.16 1.69-5.50L1.69-5.50L1.69-4L4.67-4L4.67-3.29L1.69-3.29L1.69-1.40Q1.69-0.73 2.29-0.73L2.29-0.73ZM9.73 0L8.34-2.20L8.14-2.20L6.76 0L5.83 0L7.46-2.51L5.95-4.87L6.87-4.87L8.13-2.86L8.36-2.86L9.61-4.87L10.53-4.87L9.02-2.51L10.65 0L9.73 0ZM13.61-4.99L13.61-4.99Q14.87-4.99 15.39-4.41Q15.90-3.83 15.90-2.43Q15.90-1.03 15.39-0.45Q14.87 0.13 13.61 0.13L13.61 0.13Q12.36 0.13 11.84-0.45Q11.32-1.03 11.32-2.43Q11.32-3.83 11.84-4.41Q12.36-4.99 13.61-4.99ZM14.72-3.88Q14.41-4.27 13.61-4.27Q12.81-4.27 12.51-3.88Q12.21-3.49 12.21-2.43Q12.21-1.37 12.51-0.98Q12.81-0.59 13.61-0.59Q14.41-0.59 14.72-0.98Q15.02-1.37 15.02-2.43Q15.02-3.49 14.72-3.88ZM19.35-6.08L19.35-6.08L19.29-6.76Q20.40-7.02 21.39-7.02L21.39-7.02Q22.48-7.02 23.00-6.71Q23.51-6.41 23.51-5.53L23.51-5.53Q23.51-4.88 23.24-4.33Q22.97-3.79 22.28-3.02L22.28-3.02L20.30-0.81Q20.77-0.85 21.42-0.85L21.42-0.85L23.76-0.85L23.76 0L19.23 0L19.23-0.55Q19.23-0.79 19.36-0.93L19.36-0.93L21.36-3.19Q22.04-3.92 22.34-4.46Q22.64-5.01 22.62-5.49L22.62-5.49Q22.61-5.96 22.31-6.10Q22.00-6.24 21.33-6.24L21.33-6.24Q20.33-6.24 19.35-6.08Z"/></svg>