<svg xmlns="http://www.w3.org/2000/svg" viewBox="3.3840000000000003 49.455999999999996 394.704 51.552"><path d="M22 88L40 88L41 99Q34 100 15 100L15 100Q10 100 7 97Q3 94 3 89L3 89L3 61Q3 56 7 53Q10 50 15 50L15 50Q34 50 41 51L41 51L40 62L22 62Q21 62 20 63Q19 63 19 65L19 65L19 69L38 69L38 80L19 80L19 86Q19 87 20 88Q21 88 22 88L22 88ZM87 100L72 100L65 86L58 100L43 100L53 82L43 64L58 64L65 77L71 64L86 64L76 82L87 100ZM107 63L107 63Q118 63 123 67Q128 72 128 82L128 82Q128 92 123 97Q118 101 107 101L107 101Q96 101 92 97Q87 92 87 82L87 82Q87 72 92 67Q96 63 107 63ZM107 73L107 73Q105 73 104 75Q103 77 103 82L103 82Q103 87 104 89Q105 91 107 91L107 91Q110 91 111 89Q112 87 112 82L112 82Q112 77 111 75Q110 73 107 73ZM148 62L148 62L147 51Q156 49 166 49L166 49Q175 49 180 52Q184 55 184 62L184 62Q184 66 183 69Q181 72 177 77L177 77L165 88Q168 87 172 87L172 87L185 87L185 100L147 100L147 92Q147 88 149 86L149 86L159 76Q168 67 168 64L168 64Q168 63 167 63Q166 62 164 62L164 62Q155 62 148 62ZM206 50L221 50L221 60Q221 64 220 68L220 68Q226 63 232 63L232 63Q239 63 242 67Q245 72 245 82L245 82Q245 86 245 89Q244 92 242 95Q240 98 236 99Q232 101 226 101L226 101Q221 101 215 100Q209 99 206 98L206 98L206 50ZM221 75L221 75L221 90Q224 91 226 91L226 91Q228 91 229 89Q230 87 230 82L230 82Q230 77 229 76Q228 74 225 74L225 74Q223 74 221 75ZM250 50L266 50L266 87Q266 89 269 89L269 89L272 89L273 99Q272 100 269 101Q265 101 263 101L263 101Q257 101 254 98Q250 96 250 91L250 91L250 50ZM278 74L278 74L277 65Q286 63 297 63L297 63Q305 63 309 66Q313 70 313 78L313 78L313 100L301 100L299 95Q295 101 287 101L287 101Q282 101 278 98Q275 96 275 91L275 91L275 87Q275 83 278 80Q281 78 286 78L286 78L298 78L298 78Q298 76 297 75Q296 74 293 74L293 74Q286 74 278 74ZM289 87L289 87L289 89Q289 91 292 91L292 91Q295 91 298 89L298 89L298 85L292 85Q289 85 289 87ZM351 88L351 88L352 98Q347 101 337 101L337 101Q326 101 322 97Q317 92 317 82Q317 71 322 67Q326 63 337 63L337 63Q346 63 352 66L352 66L350 75L339 75Q336 75 335 76Q333 78 333 82L333 82Q333 86 335 88Q336 89 339 89L339 89Q346 89 351 88ZM381 100L373 84L371 84Q372 88 372 90L372 90L372 100L357 100L357 50L372 50L372 69Q372 72 371 76L371 76L373 76L380 64L397 64L389 76Q388 79 385 80L385 80L385 80Q386 81 387 82Q388 84 389 85L389 85L398 100L381 100Z"/></svg>