<svg xmlns="http://www.w3.org/2000/svg" viewBox="7.200000000000001 43.839999999999996 541.5120000000001 71.49600000000001"><path d="M14 100L7 100L7 50L34 50L33 56L14 56L14 73L30 73L30 78L14 78L14 100ZM42 62L49 62L49 100L42 100L42 62ZM45 44Q48 44 49 45Q50 46 50 48L50 48Q50 50 49 52Q48 53 45 53L45 53Q43 53 42 52Q41 50 41 48L41 48Q41 46 42 45Q43 44 45 44L45 44ZM79 61Q81 61 83 62L83 62L82 68Q80 68 78 68L78 68Q75 68 73 70Q70 73 69 78L69 78L69 100L62 100L62 62L68 62L69 70Q70 66 73 63Q76 61 79 61L79 61ZM116 91Q116 93 117 95Q117 96 119 96L119 96L118 101Q115 101 113 99Q111 98 110 95L110 95Q106 101 99 101L99 101Q93 101 90 98Q87 95 87 89L87 89Q87 83 91 80Q95 77 103 77L103 77L109 77L109 74Q109 70 107 68Q105 67 101 67L101 67Q97 67 91 69L91 69L89 64Q96 61 103 61L103 61Q109 61 113 64Q116 68 116 74L116 74L116 91ZM100 96Q106 96 109 90L109 90L109 81L104 81Q94 81 94 89L94 89Q94 92 95 94Q97 96 100 96L100 96ZM161 50Q166 50 170 51Q173 52 176 55L176 55L173 59Q170 57 167 56Q165 55 161 55L161 55Q158 55 155 57Q152 59 152 62L152 62Q152 64 153 66Q154 67 157 69Q159 70 163 71L163 71Q168 73 171 74Q174 76 176 79Q178 82 178 86L178 86Q178 90 176 94Q174 97 170 99Q166 101 160 101L160 101Q150 101 143 94L143 94L147 90Q150 93 153 94Q156 95 160 95L160 95Q165 95 168 93Q171 91 171 86L171 86Q171 84 170 82Q169 81 167 79Q165 78 160 77L160 77Q153 75 149 71Q146 68 146 62L146 62Q146 59 147 56Q149 53 153 51Q157 50 161 50L161 50ZM213 91Q213 93 214 95Q215 96 217 96L217 96L215 101Q212 101 210 99Q208 98 208 95L208 95Q204 101 196 101L196 101Q191 101 187 98Q184 95 184 89L184 89Q184 83 189 80Q193 77 201 77L201 77L207 77L207 74Q207 70 205 68Q203 67 199 67L199 67Q195 67 189 69L189 69L187 64Q194 61 200 61L200 61Q207 61 210 64Q213 68 213 74L213 74L213 91ZM198 96Q203 96 207 90L207 90L207 81L202 81Q191 81 191 89L191 89Q191 92 193 94Q195 96 198 96L198 96ZM245 61Q250 61 253 64Q256 67 256 73L256 73L256 100L249 100L249 74Q249 70 248 68Q246 66 243 66L243 66Q240 66 238 68Q236 70 234 73L234 73L234 100L227 100L227 62L233 62L233 68Q235 65 238 63Q241 61 245 61L245 61ZM279 61Q283 61 286 62Q290 63 292 66L292 66L290 70Q287 68 285 67Q282 66 280 66L280 66Q276 66 275 68Q273 69 273 71L273 71Q273 74 274 75Q276 76 281 78L281 78Q287 79 290 82Q293 85 293 89L293 89Q293 95 289 98Q285 101 278 101L278 101Q270 101 264 96L264 96L268 92Q272 96 278 96L278 96Q282 96 284 94Q286 92 286 90L286 90Q286 88 286 87Q285 85 283 85Q281 84 277 83L277 83Q271 81 268 78Q266 76 266 72L266 72Q266 69 268 66Q269 64 272 63Q276 61 279 61L279 61ZM338 61Q340 61 342 62L342 62L341 68Q339 68 338 68L338 68Q334 68 332 70Q330 73 328 78L328 78L328 100L322 100L322 62L328 62L328 70Q330 66 332 63Q335 61 338 61L338 61ZM378 80Q378 82 378 83L378 83L354 83Q354 90 357 93Q360 95 364 95L364 95Q367 95 369 95Q372 94 374 92L374 92L377 96Q371 101 364 101L364 101Q356 101 351 96Q347 90 347 81L347 81Q347 76 349 71Q351 66 354 64Q358 61 363 61L363 61Q370 61 374 66Q378 71 378 80L378 80ZM372 78L372 78Q372 72 370 69Q367 66 363 66L363 66Q355 66 354 78L354 78L372 78ZM418 58L419 64Q417 65 415 65Q412 65 408 65L408 65Q415 68 415 75L415 75Q415 80 411 84Q407 87 401 87L401 87Q398 87 396 87L396 87Q395 87 394 88Q394 89 394 90L394 90Q394 93 399 93L399 93L405 93Q409 93 412 95Q415 96 416 98Q418 101 418 104L418 104Q418 109 413 112Q409 115 400 115L400 115Q394 115 390 114Q387 113 385 110Q384 108 384 104L384 104L390 104Q390 106 391 107Q392 109 394 109Q396 110 400 110L400 110Q406 110 409 109Q411 107 411 104L411 104Q411 102 409 100Q407 99 404 99L404 99L398 99Q393 99 390 97Q388 95 388 92L388 92Q388 90 389 88Q390 86 392 85L392 85Q389 83 387 81Q386 78 386 74L386 74Q386 71 387 68Q389 65 393 63Q396 61 400 61L400 61Q405 61 408 61Q411 60 413 60Q415 59 418 58L418 58ZM400 66Q396 66 394 68Q392 71 392 74L392 74Q392 78 394 81Q397 83 400 83L400 83Q404 83 406 81Q408 78 408 74L408 74Q408 66 400 66L400 66ZM455 62L455 100L449 100L448 94Q446 98 443 99Q441 101 437 101L437 101Q432 101 429 98Q426 95 426 89L426 89L426 62L433 62L433 89Q433 92 434 94Q435 96 438 96L438 96Q444 96 448 89L448 89L448 62L455 62ZM476 101Q472 101 470 99Q468 96 468 93L468 93L468 47L474 46L474 92Q474 94 475 95Q476 95 477 95L477 95Q478 95 479 95L479 95L481 100Q479 101 476 101L476 101ZM515 91Q515 93 516 95Q516 96 518 96L518 96L517 101Q514 101 512 99Q510 98 509 95L509 95Q505 101 498 101L498 101Q492 101 489 98Q486 95 486 89L486 89Q486 83 490 80Q494 77 502 77L502 77L508 77L508 74Q508 70 506 68Q504 67 500 67L500 67Q496 67 490 69L490 69L488 64Q496 61 502 61L502 61Q508 61 512 64Q515 68 515 74L515 74L515 91ZM499 96Q505 96 508 90L508 90L508 81L503 81Q493 81 493 89L493 89Q493 92 494 94Q496 96 499 96L499 96ZM545 61Q547 61 549 62L549 62L547 68Q546 68 544 68L544 68Q541 68 538 70Q536 73 535 78L535 78L535 100L528 100L528 62L534 62L535 70Q536 66 539 63Q542 61 545 61L545 61Z"/></svg>