<svg xmlns="http://www.w3.org/2000/svg" viewBox="2.5200000000000005 42.18399999999999 807.1919999999999 58.96800000000001"><path d="M9.50 50.18L38.09 50.18L35.86 57.95L18.86 57.95L16.92 71.99L31.75 71.99L30.67 79.70L15.84 79.70L13.03 100L2.52 100L9.50 50.18ZM42.19 61.84L52.27 61.84L46.94 100L36.86 100L42.19 61.84ZM48.60 54.14Q46.08 54.14 44.57 52.62Q43.06 51.11 43.06 48.81L43.06 48.81Q43.06 45.93 45 44.06Q46.94 42.18 49.82 42.18L49.82 42.18Q52.34 42.18 53.86 43.66Q55.37 45.14 55.37 47.51L55.37 47.51Q55.37 50.39 53.42 52.26Q51.48 54.14 48.60 54.14L48.60 54.14ZM81.58 60.76Q83.52 60.76 85.39 61.34L85.39 61.34L82.51 71.27Q80.93 70.77 79.27 70.77L79.27 70.77Q75.96 70.77 73.69 73.58Q71.42 76.38 69.55 81.71L69.55 81.71L66.96 100L56.88 100L62.21 61.84L70.92 61.84L70.70 69.11Q72.72 65.01 75.56 62.88Q78.41 60.76 81.58 60.76L81.58 60.76ZM106.49 60.69Q114.41 60.69 121.54 64.50L121.54 64.50L117.94 89.56Q117.79 90.86 117.79 91.29L117.79 91.29Q117.79 92.44 118.26 93.12Q118.73 93.81 119.88 94.31L119.88 94.31L117 101.01Q109.94 100.29 108.65 94.67L108.65 94.67Q103.97 101.15 97.27 101.15L97.27 101.15Q91.37 101.15 88.13 97.08Q84.89 93.02 84.89 86.10L84.89 86.10Q84.89 80.13 87.12 74.30Q89.35 68.46 94.21 64.58Q99.07 60.69 106.49 60.69L106.49 60.69ZM106.27 68.10Q102.53 68.10 100.08 70.84Q97.63 73.58 96.52 77.72Q95.40 81.86 95.40 86.10L95.40 86.10Q95.40 93.52 100.30 93.52L100.30 93.52Q102.53 93.52 104.40 92.08Q106.27 90.64 108.22 87.83L108.22 87.83L110.95 68.97Q108.86 68.10 106.27 68.10L106.27 68.10ZM164.74 49.02Q174.74 49.02 180.94 55.43L180.94 55.43L175.18 61.12Q172.94 58.96 170.46 57.95Q167.98 56.94 165.02 56.94L165.02 56.94Q161.42 56.94 159.16 58.60Q156.89 60.26 156.89 63.14L156.89 63.14Q156.89 64.72 157.64 65.80Q158.40 66.88 160.20 67.82Q162 68.75 165.46 69.90L165.46 69.90Q171.79 71.92 175.03 75.16Q178.27 78.40 178.27 83.94L178.27 83.94Q178.27 88.34 176.11 92.26Q173.95 96.18 169.27 98.67Q164.59 101.15 157.39 101.15L157.39 101.15Q151.56 101.15 147.17 99.21Q142.78 97.26 139.82 94.02L139.82 94.02L145.94 87.98Q148.32 90.42 151.16 91.68Q154.01 92.94 157.68 92.94L157.68 92.94Q162.07 92.94 164.66 90.93Q167.26 88.91 167.26 85.46L167.26 85.46Q167.26 82.79 165.49 81.21Q163.73 79.62 159.12 78.04L159.12 78.04Q152.14 75.66 149.04 72.46Q145.94 69.26 145.94 64.29L145.94 64.29Q145.94 60.40 148.07 56.91Q150.19 53.42 154.44 51.22Q158.69 49.02 164.74 49.02L164.74 49.02ZM204.62 60.69Q212.54 60.69 219.67 64.50L219.67 64.50L216.07 89.56Q215.93 90.86 215.93 91.29L215.93 91.29Q215.93 92.44 216.40 93.12Q216.86 93.81 218.02 94.31L218.02 94.31L215.14 101.01Q208.08 100.29 206.78 94.67L206.78 94.67Q202.10 101.15 195.41 101.15L195.41 101.15Q189.50 101.15 186.26 97.08Q183.02 93.02 183.02 86.10L183.02 86.10Q183.02 80.13 185.26 74.30Q187.49 68.46 192.35 64.58Q197.21 60.69 204.62 60.69L204.62 60.69ZM204.41 68.10Q200.66 68.10 198.22 70.84Q195.77 73.58 194.65 77.72Q193.54 81.86 193.54 86.10L193.54 86.10Q193.54 93.52 198.43 93.52L198.43 93.52Q200.66 93.52 202.54 92.08Q204.41 90.64 206.35 87.83L206.35 87.83L209.09 68.97Q207 68.10 204.41 68.10L204.41 68.10ZM250.99 60.69Q255.10 60.69 257.44 63.14Q259.78 65.58 259.78 69.98L259.78 69.98Q259.78 71.13 259.56 72.57L259.56 72.57L255.74 100L245.66 100L249.26 74.44Q249.41 73 249.41 72.64L249.41 72.64Q249.41 70.70 248.69 69.90Q247.97 69.11 246.60 69.11L246.60 69.11Q242.21 69.11 237.31 78.54L237.31 78.54L234.29 100L224.21 100L229.54 61.84L238.25 61.84L237.96 68.75Q240.55 64.94 243.86 62.81Q247.18 60.69 250.99 60.69L250.99 60.69ZM282.31 60.69Q286.34 60.69 289.80 61.98Q293.26 63.28 295.92 65.51L295.92 65.51L291.38 71.20Q289.37 69.69 286.99 68.90Q284.62 68.10 282.31 68.10L282.31 68.10Q279.58 68.10 278.10 69.08Q276.62 70.05 276.62 71.70L276.62 71.70Q276.62 72.78 277.31 73.54Q277.99 74.30 279.47 74.94Q280.94 75.59 284.04 76.60L284.04 76.60Q289.15 78.18 291.67 80.96Q294.19 83.73 294.19 88.12L294.19 88.12Q294.19 91.86 292.25 94.82Q290.30 97.77 286.52 99.46Q282.74 101.15 277.42 101.15L277.42 101.15Q272.59 101.15 268.56 99.46Q264.53 97.77 261.94 95.03L261.94 95.03L267.12 89.63Q271.80 93.66 277.56 93.66L277.56 93.66Q280.80 93.66 282.42 92.37Q284.04 91.07 284.04 89.27L284.04 89.27Q284.04 87.83 283.39 86.97Q282.74 86.10 281.20 85.38Q279.65 84.66 276.41 83.58L276.41 83.58Q271.30 81.86 268.92 79.30Q266.54 76.74 266.54 72.64L266.54 72.64Q266.54 69.47 268.34 66.74Q270.14 64.00 273.71 62.34Q277.27 60.69 282.31 60.69L282.31 60.69ZM333.14 60.69Q337.18 60.69 340.63 61.98Q344.09 63.28 346.75 65.51L346.75 65.51L342.22 71.20Q340.20 69.69 337.82 68.90Q335.45 68.10 333.14 68.10L333.14 68.10Q330.41 68.10 328.93 69.08Q327.46 70.05 327.46 71.70L327.46 71.70Q327.46 72.78 328.14 73.54Q328.82 74.30 330.30 74.94Q331.78 75.59 334.87 76.60L334.87 76.60Q339.98 78.18 342.50 80.96Q345.02 83.73 345.02 88.12L345.02 88.12Q345.02 91.86 343.08 94.82Q341.14 97.77 337.36 99.46Q333.58 101.15 328.25 101.15L328.25 101.15Q323.42 101.15 319.39 99.46Q315.36 97.77 312.77 95.03L312.77 95.03L317.95 89.63Q322.63 93.66 328.39 93.66L328.39 93.66Q331.63 93.66 333.25 92.37Q334.87 91.07 334.87 89.27L334.87 89.27Q334.87 87.83 334.22 86.97Q333.58 86.10 332.03 85.38Q330.48 84.66 327.24 83.58L327.24 83.58Q322.13 81.86 319.75 79.30Q317.38 76.74 317.38 72.64L317.38 72.64Q317.38 69.47 319.18 66.74Q320.98 64.00 324.54 62.34Q328.10 60.69 333.14 60.69L333.14 60.69ZM384.84 70.98Q384.84 78.26 378.11 81.60Q371.38 84.95 360.29 86.03L360.29 86.03Q360.65 93.45 367.42 93.45L367.42 93.45Q369.94 93.45 372.24 92.58Q374.54 91.72 377.28 89.92L377.28 89.92L381.02 96.11Q374.04 101.15 366.19 101.15L366.19 101.15Q358.34 101.15 354.20 96.87Q350.06 92.58 350.06 85.17L350.06 85.17Q350.06 79.41 352.22 73.79Q354.38 68.18 359.14 64.43Q363.89 60.69 371.23 60.69L371.23 60.69Q377.71 60.69 381.28 63.60Q384.84 66.52 384.84 70.98L384.84 70.98ZM360.79 79.55Q367.92 78.98 371.27 76.85Q374.62 74.73 374.62 71.42L374.62 71.42Q374.62 69.90 373.64 68.82Q372.67 67.74 370.51 67.74L370.51 67.74Q366.41 67.74 364.03 71.13Q361.66 74.51 360.79 79.55L360.79 79.55ZM434.23 60.69Q438.12 60.69 440.39 63.14Q442.66 65.58 442.66 69.90L442.66 69.90Q442.66 71.49 442.51 72.35L442.51 72.35L438.62 100L428.54 100L432.22 74.44Q432.36 73.65 432.36 72.42L432.36 72.42Q432.36 70.48 431.68 69.80Q430.99 69.11 429.62 69.11L429.62 69.11Q425.81 69.11 421.49 78.11L421.49 78.11L418.39 100L408.31 100L411.91 74.44Q412.06 73 412.06 72.57L412.06 72.57Q412.06 70.62 411.34 69.87Q410.62 69.11 409.25 69.11L409.25 69.11Q407.23 69.11 405.11 71.67Q402.98 74.22 401.18 78.47L401.18 78.47L398.16 100L388.08 100L393.41 61.84L402.12 61.84L401.83 68.32Q404.28 64.72 407.34 62.70Q410.40 60.69 413.93 60.69L413.93 60.69Q417.31 60.69 419.54 62.56Q421.78 64.43 422.28 67.96L422.28 67.96Q424.66 64.50 427.79 62.60Q430.92 60.69 434.23 60.69L434.23 60.69ZM453.53 61.84L463.61 61.84L458.28 100L448.20 100L453.53 61.84ZM459.94 54.14Q457.42 54.14 455.90 52.62Q454.39 51.11 454.39 48.81L454.39 48.81Q454.39 45.93 456.34 44.06Q458.28 42.18 461.16 42.18L461.16 42.18Q463.68 42.18 465.19 43.66Q466.70 45.14 466.70 47.51L466.70 47.51Q466.70 50.39 464.76 52.26Q462.82 54.14 459.94 54.14L459.94 54.14ZM510.62 60.69Q516.24 60.69 519.26 64.58Q522.29 68.46 522.29 75.59L522.29 75.59Q522.29 81.78 520.27 87.58Q518.26 93.38 513.36 97.26Q508.46 101.15 500.47 101.15L500.47 101.15Q496.58 101.15 492.98 100.40Q489.38 99.64 485.35 98.13L485.35 98.13L492.55 46.65L502.78 45.50L500.04 65.22Q502.27 63.06 505.01 61.88Q507.74 60.69 510.62 60.69L510.62 60.69ZM506.88 68.32Q502.78 68.32 498.96 73L498.96 73L496.22 92.58Q498.74 93.52 501.48 93.52L501.48 93.52Q505.08 93.52 507.42 90.75Q509.76 87.98 510.84 83.87Q511.92 79.77 511.92 75.59L511.92 75.59Q511.92 71.63 510.59 69.98Q509.26 68.32 506.88 68.32L506.88 68.32ZM542.74 101.15Q535.25 101.15 531.14 96.87Q527.04 92.58 527.04 85.02L527.04 85.02Q527.04 79.26 529.13 73.68Q531.22 68.10 535.93 64.40Q540.65 60.69 547.99 60.69L547.99 60.69Q555.41 60.69 559.51 64.94Q563.62 69.18 563.62 76.60L563.62 76.60Q563.62 82.36 561.60 87.98Q559.58 93.59 554.90 97.37Q550.22 101.15 542.74 101.15L542.74 101.15ZM543.38 93.45Q548.71 93.45 550.94 87.98Q553.18 82.50 553.25 76.10L553.25 76.10Q553.25 72.06 551.77 70.19Q550.30 68.32 547.34 68.32L547.34 68.32Q543.60 68.32 541.40 71.16Q539.21 74.01 538.34 78.00Q537.48 82 537.48 85.74L537.48 85.74Q537.48 89.70 538.96 91.58Q540.43 93.45 543.38 93.45L543.38 93.45ZM585.65 45.50L579.38 90.42L579.31 91.22Q579.31 92.94 580.97 92.94L580.97 92.94Q581.90 92.94 582.98 92.58L582.98 92.58L584.35 99.78Q581.04 101.15 577.58 101.15L577.58 101.15Q573.48 101.15 571.28 99.03Q569.09 96.90 569.09 92.80L569.09 92.80Q569.09 91.65 569.30 90.35L569.30 90.35L575.50 46.65L585.65 45.50ZM618.91 45.57L628.85 46.65L621.36 100L612.43 100L612.50 94.38Q610.42 97.48 607.57 99.32Q604.73 101.15 601.13 101.15L601.13 101.15Q595.22 101.15 592.16 97.08Q589.10 93.02 589.10 85.82L589.10 85.82Q589.10 80.13 591.05 74.33Q592.99 68.54 597.06 64.61Q601.13 60.69 607.25 60.69L607.25 60.69Q610.06 60.69 612.36 61.77Q614.66 62.85 616.25 64.65L616.25 64.65L618.91 45.57ZM609.41 68.25Q605.88 68.25 603.68 71.09Q601.49 73.94 600.55 78.04Q599.62 82.14 599.62 86.03L599.62 86.03Q599.62 90.06 600.84 91.79Q602.06 93.52 604.30 93.52L604.30 93.52Q606.74 93.52 608.87 91.58Q610.99 89.63 613.22 86.10L613.22 86.10L615.31 71.42Q612.94 68.25 609.41 68.25L609.41 68.25ZM653.54 61.84L663.62 61.84L658.30 100L648.22 100L653.54 61.84ZM659.95 54.14Q657.43 54.14 655.92 52.62Q654.41 51.11 654.41 48.81L654.41 48.81Q654.41 45.93 656.35 44.06Q658.30 42.18 661.18 42.18L661.18 42.18Q663.70 42.18 665.21 43.66Q666.72 45.14 666.72 47.51L666.72 47.51Q666.72 50.39 664.78 52.26Q662.83 54.14 659.95 54.14L659.95 54.14ZM683.42 69.11L680.83 87.98Q680.69 89.42 680.69 89.78L680.69 89.78Q680.69 91.50 681.41 92.22Q682.13 92.94 683.57 92.94L683.57 92.94Q685.44 92.94 688.18 91.65L688.18 91.65L690.91 98.34Q688.68 99.71 686.05 100.43Q683.42 101.15 680.98 101.15L680.98 101.15Q675.86 101.15 673.16 98.45Q670.46 95.75 670.46 90.71L670.46 90.71Q670.46 89.42 670.68 87.90L670.68 87.90L673.34 69.11L667.73 69.11L668.74 61.84L674.78 61.84L677.16 53.27L685.73 52.26L684.43 61.84L693.22 61.84L691.13 69.11L683.42 69.11ZM716.47 60.69Q724.39 60.69 731.52 64.50L731.52 64.50L727.92 89.56Q727.78 90.86 727.78 91.29L727.78 91.29Q727.78 92.44 728.24 93.12Q728.71 93.81 729.86 94.31L729.86 94.31L726.98 101.01Q719.93 100.29 718.63 94.67L718.63 94.67Q713.95 101.15 707.26 101.15L707.26 101.15Q701.35 101.15 698.11 97.08Q694.87 93.02 694.87 86.10L694.87 86.10Q694.87 80.13 697.10 74.30Q699.34 68.46 704.20 64.58Q709.06 60.69 716.47 60.69L716.47 60.69ZM716.26 68.10Q712.51 68.10 710.06 70.84Q707.62 73.58 706.50 77.72Q705.38 81.86 705.38 86.10L705.38 86.10Q705.38 93.52 710.28 93.52L710.28 93.52Q712.51 93.52 714.38 92.08Q716.26 90.64 718.20 87.83L718.20 87.83L720.94 68.97Q718.85 68.10 716.26 68.10L716.26 68.10ZM753.34 45.50L747.07 90.42L747 91.22Q747 92.94 748.66 92.94L748.66 92.94Q749.59 92.94 750.67 92.58L750.67 92.58L752.04 99.78Q748.73 101.15 745.27 101.15L745.27 101.15Q741.17 101.15 738.97 99.03Q736.78 96.90 736.78 92.80L736.78 92.80Q736.78 91.65 736.99 90.35L736.99 90.35L743.18 46.65L753.34 45.50ZM762.12 61.84L772.20 61.84L766.87 100L756.79 100L762.12 61.84ZM768.53 54.14Q766.01 54.14 764.50 52.62Q762.98 51.11 762.98 48.81L762.98 48.81Q762.98 45.93 764.93 44.06Q766.87 42.18 769.75 42.18L769.75 42.18Q772.27 42.18 773.78 43.66Q775.30 45.14 775.30 47.51L775.30 47.51Q775.30 50.39 773.35 52.26Q771.41 54.14 768.53 54.14L768.53 54.14ZM797.76 60.69Q804.89 60.69 809.71 65.37L809.71 65.37L804.67 71.34Q803.09 69.90 801.47 69.29Q799.85 68.68 797.83 68.68L797.83 68.68Q792.29 68.68 789.88 73.79Q787.46 78.90 787.46 85.31L787.46 85.31Q787.46 89.42 789.12 91.18Q790.78 92.94 793.87 92.94L793.87 92.94Q795.89 92.94 797.65 92.30Q799.42 91.65 801.72 90.21L801.72 90.21L805.54 96.90Q799.42 101.15 792.65 101.15L792.65 101.15Q785.23 101.15 781.06 96.80Q776.88 92.44 776.88 84.88L776.88 84.88Q776.88 79.41 779.08 73.83Q781.27 68.25 785.95 64.47Q790.63 60.69 797.76 60.69L797.76 60.69Z"/></svg>