<svg xmlns="http://www.w3.org/2000/svg" viewBox="8.856000000000002 47.007999999999996 419.4000000000001 53.712"><path d="M10.51 100L8.86 100L8.86 50.97L31.61 50.97L31.39 52.48L10.51 52.48L10.51 74.37L28.51 74.37L28.51 75.88L10.51 75.88L10.51 100ZM42.41 62.63L43.99 62.63L43.99 100L42.41 100L42.41 62.63ZM43.20 47.87Q43.92 47.87 44.32 48.30Q44.71 48.74 44.71 49.31L44.71 49.31Q44.71 49.89 44.32 50.28Q43.92 50.68 43.20 50.68L43.20 50.68Q42.55 50.68 42.16 50.28Q41.76 49.89 41.76 49.31L41.76 49.31Q41.76 48.74 42.16 48.30Q42.55 47.87 43.20 47.87L43.20 47.87ZM73.66 61.91Q75.60 61.91 77.33 62.34L77.33 62.34L76.97 63.71Q75.38 63.35 73.66 63.35L73.66 63.35Q69.55 63.35 66.96 66.20Q64.37 69.04 62.57 75.23L62.57 75.23L62.57 100L60.98 100L60.98 62.63L62.35 62.63L62.42 71.92Q64.01 66.74 66.71 64.32Q69.41 61.91 73.66 61.91L73.66 61.91ZM108.07 92.08Q108.07 95.75 108.83 97.34Q109.58 98.92 111.46 99.57L111.46 99.57L111.02 100.72Q108.79 100 107.78 98.38Q106.78 96.76 106.70 93.45L106.70 93.45Q102.60 100.72 94.54 100.72L94.54 100.72Q89.28 100.72 86.29 97.70Q83.30 94.67 83.30 89.63L83.30 89.63Q83.30 84.02 87.26 80.92Q91.22 77.82 97.99 77.82L97.99 77.82L106.49 77.82L106.49 73.36Q106.49 68.32 104.29 65.84Q102.10 63.35 96.91 63.35L96.91 63.35Q92.38 63.35 86.62 65.73L86.62 65.73L86.11 64.36Q92.02 61.91 96.91 61.91L96.91 61.91Q102.74 61.91 105.41 64.76Q108.07 67.60 108.07 73.22L108.07 73.22L108.07 92.08ZM94.54 99.21Q98.78 99.21 101.66 97.23Q104.54 95.25 106.49 91.43L106.49 91.43L106.49 79.26L98.28 79.26Q92.02 79.26 88.52 81.93Q85.03 84.59 85.03 89.63L85.03 89.63Q85.03 94.10 87.59 96.65Q90.14 99.21 94.54 99.21L94.54 99.21ZM156.96 50.25Q161.14 50.25 164.09 51.47Q167.04 52.70 169.92 55.22L169.92 55.22L168.84 56.44Q166.25 53.99 163.48 52.88Q160.70 51.76 156.96 51.76L156.96 51.76Q151.70 51.76 148.50 54.50Q145.30 57.23 145.30 61.55L145.30 61.55Q145.30 64.58 146.48 66.52Q147.67 68.46 150.26 69.90Q152.86 71.34 157.61 72.78L157.61 72.78Q162.65 74.37 165.60 76.10Q168.55 77.82 169.99 80.38Q171.43 82.94 171.43 86.90L171.43 86.90Q171.43 90.93 169.52 94.10Q167.62 97.26 164.23 98.99Q160.85 100.72 156.46 100.72L156.46 100.72Q151.85 100.72 148.39 99.21Q144.94 97.70 141.77 94.82L141.77 94.82L142.85 93.74Q145.73 96.40 148.86 97.77Q151.99 99.14 156.38 99.14L156.38 99.14Q162.43 99.14 166.14 95.82Q169.85 92.51 169.85 86.97L169.85 86.97Q169.85 83.37 168.55 81.10Q167.26 78.83 164.56 77.28Q161.86 75.74 157.03 74.22L157.03 74.22Q151.92 72.64 149.04 70.98Q146.16 69.33 144.90 67.10Q143.64 64.86 143.64 61.55L143.64 61.55Q143.64 58.38 145.30 55.79Q146.95 53.20 149.98 51.72Q153.00 50.25 156.96 50.25L156.96 50.25ZM205.99 92.08Q205.99 95.75 206.75 97.34Q207.50 98.92 209.38 99.57L209.38 99.57L208.94 100.72Q206.71 100 205.70 98.38Q204.70 96.76 204.62 93.45L204.62 93.45Q200.52 100.72 192.46 100.72L192.46 100.72Q187.20 100.72 184.21 97.70Q181.22 94.67 181.22 89.63L181.22 89.63Q181.22 84.02 185.18 80.92Q189.14 77.82 195.91 77.82L195.91 77.82L204.41 77.82L204.41 73.36Q204.41 68.32 202.21 65.84Q200.02 63.35 194.83 63.35L194.83 63.35Q190.30 63.35 184.54 65.73L184.54 65.73L184.03 64.36Q189.94 61.91 194.83 61.91L194.83 61.91Q200.66 61.91 203.33 64.76Q205.99 67.60 205.99 73.22L205.99 73.22L205.99 92.08ZM192.46 99.21Q196.70 99.21 199.58 97.23Q202.46 95.25 204.41 91.43L204.41 91.43L204.41 79.26L196.20 79.26Q189.94 79.26 186.44 81.93Q182.95 84.59 182.95 89.63L182.95 89.63Q182.95 94.10 185.51 96.65Q188.06 99.21 192.46 99.21L192.46 99.21ZM238.25 61.91Q243.29 61.91 245.77 64.86Q248.26 67.82 248.26 73.43L248.26 73.43L248.26 100L246.67 100L246.67 73.58Q246.67 63.35 238.25 63.35L238.25 63.35Q233.93 63.35 230.69 65.66Q227.45 67.96 224.57 72.35L224.57 72.35L224.57 100L222.98 100L222.98 62.63L224.35 62.63L224.50 70.26Q230.11 61.91 238.25 61.91L238.25 61.91ZM272.81 61.91Q276.12 61.91 278.75 62.88Q281.38 63.86 283.90 65.87L283.90 65.87L282.96 67.02Q280.44 65.08 278.17 64.22Q275.90 63.35 272.88 63.35L272.88 63.35Q268.63 63.35 265.86 65.48Q263.09 67.60 263.09 71.13L263.09 71.13Q263.09 74.37 265.36 76.17Q267.62 77.97 273.31 79.48L273.31 79.48Q277.70 80.70 280.19 82Q282.67 83.30 283.79 85.28Q284.90 87.26 284.90 90.35L284.90 90.35Q284.90 94.96 281.52 97.84Q278.14 100.72 272.74 100.72L272.74 100.72Q268.70 100.72 265.79 99.50Q262.87 98.27 260.14 95.97L260.14 95.97L261.07 94.89Q263.74 97.12 266.36 98.16Q268.99 99.21 272.74 99.21L272.74 99.21Q277.34 99.21 280.30 96.87Q283.25 94.53 283.25 90.35L283.25 90.35Q283.25 87.62 282.28 85.92Q281.30 84.23 279.07 83.08Q276.84 81.93 272.59 80.78L272.59 80.78Q266.54 79.19 263.99 77.03Q261.43 74.87 261.43 71.13L261.43 71.13Q261.43 67.10 264.71 64.50Q267.98 61.91 272.81 61.91L272.81 61.91ZM333.43 97.34L334.15 98.56Q330.70 100.72 326.88 100.72L326.88 100.72Q323.06 100.72 320.94 98.38Q318.82 96.04 318.82 91.58L318.82 91.58L318.82 64.07L312.62 64.07L312.62 62.63L318.82 62.63L318.82 53.20L320.40 53.06L320.40 62.63L330.77 62.63L330.48 64.07L320.40 64.07L320.40 91.50Q320.40 95.32 322.06 97.26Q323.71 99.21 327.02 99.21L327.02 99.21Q330.34 99.21 333.43 97.34L333.43 97.34ZM357.84 61.91Q362.81 61.91 365.33 64.90Q367.85 67.89 367.85 73.43L367.85 73.43L367.85 100L366.26 100L366.26 73.58Q366.26 63.35 357.84 63.35L357.84 63.35Q353.52 63.35 350.28 65.66Q347.04 67.96 344.16 72.35L344.16 72.35L344.16 100L342.58 100L342.58 47.22L344.16 47.01L344.16 70.19Q349.70 61.91 357.84 61.91L357.84 61.91ZM384.41 62.63L385.99 62.63L385.99 100L384.41 100L384.41 62.63ZM385.20 47.87Q385.92 47.87 386.32 48.30Q386.71 48.74 386.71 49.31L386.71 49.31Q386.71 49.89 386.32 50.28Q385.92 50.68 385.20 50.68L385.20 50.68Q384.55 50.68 384.16 50.28Q383.76 49.89 383.76 49.31L383.76 49.31Q383.76 48.74 384.16 48.30Q384.55 47.87 385.20 47.87L385.20 47.87ZM418.25 61.91Q423.29 61.91 425.77 64.86Q428.26 67.82 428.26 73.43L428.26 73.43L428.26 100L426.67 100L426.67 73.58Q426.67 63.35 418.25 63.35L418.25 63.35Q413.93 63.35 410.69 65.66Q407.45 67.96 404.57 72.35L404.57 72.35L404.57 100L402.98 100L402.98 62.63L404.35 62.63L404.50 70.26Q410.11 61.91 418.25 61.91L418.25 61.91Z"/></svg>