<svg xmlns="http://www.w3.org/2000/svg" viewBox="0.06 -8.290000000000001 41.18 8.49"><path d="M1.03-6.96L5.37-6.96L4.96-5.53L2.85-5.53L2.64-4.01L4.50-4.01L4.30-2.58L2.44-2.58L2.08 0L0.06 0L1.03-6.96ZM5.53-5.34L7.47-5.34L6.73 0L4.79 0L5.53-5.34ZM6.64-6.17Q6.20-6.17 5.94-6.43Q5.67-6.69 5.67-7.10L5.67-7.10Q5.67-7.61 6.03-7.95Q6.38-8.29 6.90-8.29L6.90-8.29Q7.34-8.29 7.61-8.03Q7.87-7.77 7.87-7.36L7.87-7.36Q7.87-6.85 7.52-6.51Q7.16-6.17 6.64-6.17L6.64-6.17ZM11.47-5.51Q11.75-5.51 12-5.42L12-5.42L11.45-3.51Q11.18-3.59 10.99-3.59L10.99-3.59Q10.55-3.59 10.29-3.24Q10.03-2.89 9.81-2.25L9.81-2.25L9.49 0L7.55 0L8.29-5.34L9.98-5.34L9.99-4.39Q10.25-4.93 10.64-5.22Q11.03-5.51 11.47-5.51L11.47-5.51ZM14.80-5.54Q15.39-5.54 16.01-5.38Q16.63-5.23 17.16-4.91L17.16-4.91L16.70-1.72Q16.68-1.52 16.68-1.47L16.68-1.47Q16.68-1.33 16.73-1.25Q16.78-1.16 16.92-1.10L16.92-1.10L16.36 0.16Q15.86 0.13 15.48-0.09Q15.10-0.31 14.95-0.72L14.95-0.72Q14.66-0.29 14.28-0.04Q13.90 0.20 13.36 0.20L13.36 0.20Q12.52 0.20 12.06-0.38Q11.61-0.96 11.61-1.97L11.61-1.97Q11.61-2.83 11.94-3.65Q12.26-4.46 12.97-5Q13.69-5.54 14.80-5.54L14.80-5.54ZM14.72-4.18Q14.14-4.18 13.87-3.50Q13.60-2.83 13.60-1.98L13.60-1.98Q13.60-1.53 13.71-1.38Q13.83-1.22 14.03-1.22L14.03-1.22Q14.45-1.22 14.80-1.82L14.80-1.82L15.14-4.12Q14.92-4.18 14.72-4.18L14.72-4.18ZM22.78-7.16Q24.32-7.16 25.26-6.20L25.26-6.20L24.24-5.15Q23.63-5.70 22.86-5.70L22.86-5.70Q22.46-5.70 22.25-5.54Q22.03-5.39 22.03-5.14L22.03-5.14Q22.03-4.97 22.13-4.86Q22.22-4.75 22.45-4.65Q22.67-4.55 23.12-4.40L23.12-4.40Q24.03-4.09 24.45-3.60Q24.88-3.12 24.88-2.38L24.88-2.38Q24.88-1.72 24.57-1.14Q24.26-0.55 23.56-0.18Q22.86 0.20 21.76 0.20L21.76 0.20Q20.87 0.20 20.20-0.10Q19.53-0.39 19.07-0.86L19.07-0.86L20.20-2.01Q20.87-1.34 21.81-1.34L21.81-1.34Q22.26-1.34 22.50-1.51Q22.74-1.68 22.74-2L22.74-2Q22.74-2.28 22.52-2.47Q22.31-2.66 21.76-2.85L21.76-2.85Q20.76-3.18 20.33-3.68Q19.90-4.17 19.90-4.86L19.90-4.86Q19.90-5.47 20.21-5.99Q20.52-6.51 21.17-6.83Q21.82-7.16 22.78-7.16L22.78-7.16ZM28.38-5.54Q28.97-5.54 29.59-5.38Q30.21-5.23 30.74-4.91L30.74-4.91L30.28-1.72Q30.26-1.52 30.26-1.47L30.26-1.47Q30.26-1.33 30.31-1.25Q30.36-1.16 30.50-1.10L30.50-1.10L29.94 0.16Q29.44 0.13 29.06-0.09Q28.68-0.31 28.53-0.72L28.53-0.72Q28.24-0.29 27.86-0.04Q27.48 0.20 26.94 0.20L26.94 0.20Q26.10 0.20 25.64-0.38Q25.19-0.96 25.19-1.97L25.19-1.97Q25.19-2.83 25.51-3.65Q25.84-4.46 26.55-5Q27.27-5.54 28.38-5.54L28.38-5.54ZM28.30-4.18Q27.72-4.18 27.45-3.50Q27.18-2.83 27.18-1.98L27.18-1.98Q27.18-1.53 27.29-1.38Q27.41-1.22 27.61-1.22L27.61-1.22Q28.03-1.22 28.38-1.82L28.38-1.82L28.72-4.12Q28.50-4.18 28.30-4.18L28.30-4.18ZM35.09-5.54Q35.64-5.54 35.95-5.21Q36.26-4.88 36.26-4.28L36.26-4.28Q36.26-4.05 36.24-3.93L36.24-3.93L35.69 0L33.75 0L34.23-3.41Q34.25-3.59 34.25-3.64L34.25-3.64Q34.25-3.93 34.07-3.93L34.07-3.93Q33.89-3.93 33.68-3.65Q33.47-3.36 33.20-2.78L33.20-2.78L32.80 0L30.86 0L31.60-5.34L33.29-5.34L33.30-4.46Q33.62-4.95 34.10-5.25Q34.58-5.54 35.09-5.54L35.09-5.54ZM39.17-5.54Q39.77-5.54 40.31-5.35Q40.85-5.16 41.24-4.84L41.24-4.84L40.41-3.80Q40.13-3.97 39.80-4.07Q39.48-4.17 39.19-4.17L39.19-4.17Q38.69-4.17 38.69-3.90L38.69-3.90Q38.69-3.80 38.76-3.74Q38.83-3.68 39.07-3.58Q39.31-3.49 39.69-3.37L39.69-3.37Q41.01-2.93 41.01-1.74L41.01-1.74Q41.01-1.25 40.78-0.82Q40.55-0.38 39.99-0.09Q39.43 0.20 38.51 0.20L38.51 0.20Q37.80 0.20 37.16-0.06Q36.52-0.32 36.15-0.74L36.15-0.74L37.09-1.73Q37.72-1.17 38.51-1.17L38.51-1.17Q39.10-1.17 39.10-1.50L39.10-1.50Q39.10-1.62 39.02-1.69Q38.95-1.76 38.77-1.84Q38.58-1.92 38.09-2.09L38.09-2.09Q37.42-2.33 37.09-2.71Q36.77-3.09 36.77-3.70L36.77-3.70Q36.77-4.22 37.05-4.64Q37.34-5.06 37.89-5.30Q38.43-5.54 39.17-5.54L39.17-5.54Z"/></svg>