<svg xmlns="http://www.w3.org/2000/svg" viewBox="1.1520000000000001 40.959999999999994 618.12 60.408"><path d="M8.14 49.96L38.45 49.96L35.78 59.39L19.94 59.39L18.29 71.42L32.18 71.42L30.89 80.85L16.99 80.85L14.26 100L1.15 100L8.14 49.96ZM40.68 61.62L53.28 61.62L47.95 100L35.35 100L40.68 61.62ZM48.02 55.07Q45.07 55.07 43.31 53.34Q41.54 51.62 41.54 48.88L41.54 48.88Q41.54 45.50 43.88 43.23Q46.22 40.96 49.68 40.96L49.68 40.96Q52.63 40.96 54.40 42.69Q56.16 44.42 56.16 47.15L56.16 47.15Q56.16 50.54 53.82 52.80Q51.48 55.07 48.02 55.07L48.02 55.07ZM82.30 60.47Q84.31 60.47 86.11 61.12L86.11 61.12L82.51 73.50Q80.78 73 79.20 73L79.20 73Q75.96 73 73.98 75.59Q72 78.18 70.27 83.08L70.27 83.08L67.90 100L55.30 100L60.62 61.62L71.57 61.62L71.57 68.61Q73.51 64.72 76.32 62.60Q79.13 60.47 82.30 60.47L82.30 60.47ZM106.56 60.33Q110.74 60.33 114.95 61.37Q119.16 62.42 122.90 64.58L122.90 64.58L119.45 88.34Q119.30 89.63 119.30 89.99L119.30 89.99Q119.30 91.14 119.70 91.79Q120.10 92.44 121.18 92.87L121.18 92.87L117.58 101.08Q114.12 100.86 111.56 99.28Q109.01 97.70 108.07 94.74L108.07 94.74Q103.46 101.37 96.62 101.37L96.62 101.37Q90.65 101.37 87.37 97.23Q84.10 93.09 84.10 85.89L84.10 85.89Q84.10 79.77 86.40 73.94Q88.70 68.10 93.74 64.22Q98.78 60.33 106.56 60.33L106.56 60.33ZM106.13 69.26Q101.52 69.26 99.32 74.37Q97.13 79.48 97.13 85.89L97.13 85.89Q97.13 89.34 98.10 90.68Q99.07 92.01 100.80 92.01L100.80 92.01Q104.26 92.01 107.21 87.18L107.21 87.18L109.73 69.83Q107.78 69.26 106.13 69.26L106.13 69.26ZM164.30 48.66Q174.89 48.66 181.58 55.36L181.58 55.36L174.82 62.27Q172.51 60.18 170.06 59.21Q167.62 58.24 164.74 58.24L164.74 58.24Q161.64 58.24 159.84 59.54Q158.04 60.83 158.04 63.06L158.04 63.06Q158.04 65.01 159.70 66.16Q161.35 67.31 166.10 68.90L166.10 68.90Q172.58 71.06 175.72 74.44Q178.85 77.82 178.85 83.22L178.85 83.22Q178.85 87.83 176.65 91.97Q174.46 96.11 169.56 98.74Q164.66 101.37 156.96 101.37L156.96 101.37Q145.51 101.37 138.17 93.88L138.17 93.88L145.66 86.39Q150.41 91.29 157.25 91.29L157.25 91.29Q160.92 91.29 162.97 89.78Q165.02 88.26 165.02 85.53L165.02 85.53Q165.02 83.37 163.37 81.89Q161.71 80.42 157.54 78.98L157.54 78.98Q150.41 76.60 147.31 73.14Q144.22 69.69 144.22 64.72L144.22 64.72Q144.22 60.54 146.41 56.87Q148.61 53.20 153.14 50.93Q157.68 48.66 164.30 48.66L164.30 48.66ZM204.41 60.33Q208.58 60.33 212.80 61.37Q217.01 62.42 220.75 64.58L220.75 64.58L217.30 88.34Q217.15 89.63 217.15 89.99L217.15 89.99Q217.15 91.14 217.55 91.79Q217.94 92.44 219.02 92.87L219.02 92.87L215.42 101.08Q211.97 100.86 209.41 99.28Q206.86 97.70 205.92 94.74L205.92 94.74Q201.31 101.37 194.47 101.37L194.47 101.37Q188.50 101.37 185.22 97.23Q181.94 93.09 181.94 85.89L181.94 85.89Q181.94 79.77 184.25 73.94Q186.55 68.10 191.59 64.22Q196.63 60.33 204.41 60.33L204.41 60.33ZM203.98 69.26Q199.37 69.26 197.17 74.37Q194.98 79.48 194.98 85.89L194.98 85.89Q194.98 89.34 195.95 90.68Q196.92 92.01 198.65 92.01L198.65 92.01Q202.10 92.01 205.06 87.18L205.06 87.18L207.58 69.83Q205.63 69.26 203.98 69.26L203.98 69.26ZM252.07 60.33Q256.10 60.33 258.37 62.70Q260.64 65.08 260.64 69.40L260.64 69.40Q260.64 70.55 260.42 71.99L260.42 71.99L256.54 100L243.94 100L247.46 75.09Q247.61 73.79 247.61 73.50L247.61 73.50Q247.61 70.77 245.74 70.77L245.74 70.77Q244.08 70.77 242.28 73Q240.48 75.23 238.46 79.48L238.46 79.48L235.51 100L222.91 100L228.24 61.62L239.18 61.62L239.11 68.18Q241.49 64.58 244.94 62.45Q248.40 60.33 252.07 60.33L252.07 60.33ZM282.17 60.33Q286.42 60.33 290.12 61.66Q293.83 62.99 296.64 65.30L296.64 65.30L291.17 72.14Q289.15 70.77 286.81 70.05Q284.47 69.33 282.24 69.33L282.24 69.33Q277.92 69.33 277.92 71.85L277.92 71.85Q277.92 72.71 278.46 73.25Q279.00 73.79 280.44 74.37Q281.88 74.94 285.19 76.02L285.19 76.02Q290.02 77.61 292.46 80.45Q294.91 83.30 294.91 87.69L294.91 87.69Q294.91 91.29 293.15 94.38Q291.38 97.48 287.42 99.42Q283.46 101.37 277.34 101.37L277.34 101.37Q272.30 101.37 267.91 99.57Q263.52 97.77 260.93 94.82L260.93 94.82L267.12 88.26Q271.66 92.30 277.42 92.30L277.42 92.30Q279.72 92.30 281.09 91.47Q282.46 90.64 282.46 89.20L282.46 89.20Q282.46 88.19 281.88 87.54Q281.30 86.90 279.86 86.28Q278.42 85.67 275.04 84.45L275.04 84.45Q270.14 82.72 267.77 80.02Q265.39 77.32 265.39 73.07L265.39 73.07Q265.39 69.54 267.37 66.66Q269.35 63.78 273.13 62.06Q276.91 60.33 282.17 60.33L282.17 60.33ZM344.02 73.94Q351.79 78.26 351.79 85.31L351.79 85.31Q351.79 89.70 349.24 93.38Q346.68 97.05 341.86 99.21Q337.03 101.37 330.48 101.37L330.48 101.37Q325.01 101.37 321.12 99.60Q317.23 97.84 315.22 94.82Q313.20 91.79 313.20 87.98L313.20 87.98Q313.20 84.02 315.79 80.52Q318.38 77.03 323.93 74.87L323.93 74.87Q318.38 71.06 318.38 65.01L318.38 65.01Q318.38 61.34 320.44 57.92Q322.49 54.50 326.74 52.30Q330.98 50.10 337.25 50.10L337.25 50.10Q344.52 50.10 348.91 53.24Q353.30 56.37 353.30 61.70L353.30 61.70Q353.30 69.26 344.02 73.94L344.02 73.94ZM336.60 58.60Q333.36 58.60 331.96 60.40Q330.55 62.20 330.55 64.50L330.55 64.50Q330.55 66.30 331.52 67.60Q332.50 68.90 334.58 69.90L334.58 69.90L336.02 70.48Q339.05 68.54 340.06 66.59Q341.06 64.65 341.06 62.63L341.06 62.63Q341.06 60.76 339.91 59.68Q338.76 58.60 336.60 58.60L336.60 58.60ZM331.70 92.30Q335.23 92.30 337.21 90.24Q339.19 88.19 339.19 85.17L339.19 85.17Q339.19 83.22 337.97 81.96Q336.74 80.70 333.72 79.41L333.72 79.41L331.34 78.54Q328.39 80.13 327.17 82.43Q325.94 84.74 325.94 87.11L325.94 87.11Q325.94 89.49 327.49 90.89Q329.04 92.30 331.70 92.30L331.70 92.30ZM379.22 50.10Q371.02 50.10 365.98 55.14Q360.94 60.18 358.78 67.56Q356.62 74.94 356.62 82.43L356.62 82.43Q356.62 91.50 360.72 96.44Q364.82 101.37 372.53 101.37L372.53 101.37Q380.66 101.37 385.74 96.26Q390.82 91.14 392.98 83.69Q395.14 76.24 395.14 68.82L395.14 68.82Q395.14 59.75 391.03 54.93Q386.93 50.10 379.22 50.10L379.22 50.10ZM378.50 59.46Q380.59 59.46 381.60 60.94Q382.61 62.42 382.61 66.16L382.61 66.16Q382.61 71.63 381.64 77.61Q380.66 83.58 378.58 87.76Q376.49 91.94 373.32 91.94L373.32 91.94Q371.23 91.94 370.22 90.35Q369.22 88.77 369.22 85.02L369.22 85.02Q369.22 79.48 370.15 73.58Q371.09 67.67 373.18 63.57Q375.26 59.46 378.50 59.46L378.50 59.46ZM421.20 50.10Q412.99 50.10 407.95 55.14Q402.91 60.18 400.75 67.56Q398.59 74.94 398.59 82.43L398.59 82.43Q398.59 91.50 402.70 96.44Q406.80 101.37 414.50 101.37L414.50 101.37Q422.64 101.37 427.72 96.26Q432.79 91.14 434.95 83.69Q437.11 76.24 437.11 68.82L437.11 68.82Q437.11 59.75 433.01 54.93Q428.90 50.10 421.20 50.10L421.20 50.10ZM420.48 59.46Q422.57 59.46 423.58 60.94Q424.58 62.42 424.58 66.16L424.58 66.16Q424.58 71.63 423.61 77.61Q422.64 83.58 420.55 87.76Q418.46 91.94 415.30 91.94L415.30 91.94Q413.21 91.94 412.20 90.35Q411.19 88.77 411.19 85.02L411.19 85.02Q411.19 79.48 412.13 73.58Q413.06 67.67 415.15 63.57Q417.24 59.46 420.48 59.46L420.48 59.46ZM460.08 61.62L472.68 61.62L467.35 100L454.75 100L460.08 61.62ZM467.42 55.07Q464.47 55.07 462.71 53.34Q460.94 51.62 460.94 48.88L460.94 48.88Q460.94 45.50 463.28 43.23Q465.62 40.96 469.08 40.96L469.08 40.96Q472.03 40.96 473.80 42.69Q475.56 44.42 475.56 47.15L475.56 47.15Q475.56 50.54 473.22 52.80Q470.88 55.07 467.42 55.07L467.42 55.07ZM492.70 91.22Q494.28 91.22 496.66 90.14L496.66 90.14L499.90 98.42Q497.52 99.86 494.50 100.61Q491.47 101.37 488.81 101.37L488.81 101.37Q483.26 101.37 480.35 98.42Q477.43 95.46 477.43 89.85L477.43 89.85Q477.43 88.26 477.65 86.54L477.65 86.54L479.88 70.48L475.06 70.48L476.21 61.62L481.68 61.62L484.06 53.27L495.07 51.98L493.78 61.62L502.42 61.62L499.82 70.48L492.55 70.48L490.32 86.54Q490.18 87.83 490.18 88.26L490.18 88.26Q490.18 89.85 490.82 90.53Q491.47 91.22 492.70 91.22L492.70 91.22ZM525.02 60.33Q529.20 60.33 533.41 61.37Q537.62 62.42 541.37 64.58L541.37 64.58L537.91 88.34Q537.77 89.63 537.77 89.99L537.77 89.99Q537.77 91.14 538.16 91.79Q538.56 92.44 539.64 92.87L539.64 92.87L536.04 101.08Q532.58 100.86 530.03 99.28Q527.47 97.70 526.54 94.74L526.54 94.74Q521.93 101.37 515.09 101.37L515.09 101.37Q509.11 101.37 505.84 97.23Q502.56 93.09 502.56 85.89L502.56 85.89Q502.56 79.77 504.86 73.94Q507.17 68.10 512.21 64.22Q517.25 60.33 525.02 60.33L525.02 60.33ZM524.59 69.26Q519.98 69.26 517.79 74.37Q515.59 79.48 515.59 85.89L515.59 85.89Q515.59 89.34 516.56 90.68Q517.54 92.01 519.26 92.01L519.26 92.01Q522.72 92.01 525.67 87.18L525.67 87.18L528.19 69.83Q526.25 69.26 524.59 69.26L524.59 69.26ZM563.33 45.21L557.21 88.84Q556.92 91.22 558.65 91.22L558.65 91.22Q559.15 91.22 560.30 90.93L560.30 90.93L561.67 99.86Q560.02 100.58 557.93 100.97Q555.84 101.37 553.82 101.37L553.82 101.37Q549.29 101.37 546.80 98.99Q544.32 96.62 544.32 92.08L544.32 92.08Q544.32 90.86 544.54 89.49L544.54 89.49L550.58 46.50L563.33 45.21ZM569.59 61.62L582.19 61.62L576.86 100L564.26 100L569.59 61.62ZM576.94 55.07Q573.98 55.07 572.22 53.34Q570.46 51.62 570.46 48.88L570.46 48.88Q570.46 45.50 572.80 43.23Q575.14 40.96 578.59 40.96L578.59 40.96Q581.54 40.96 583.31 42.69Q585.07 44.42 585.07 47.15L585.07 47.15Q585.07 50.54 582.73 52.80Q580.39 55.07 576.94 55.07L576.94 55.07ZM606.67 60.33Q614.30 60.33 619.27 65.44L619.27 65.44L613.15 72.71Q610.27 70.05 606.74 70.05L606.74 70.05Q601.85 70.05 599.83 74.58Q597.82 79.12 597.82 84.95L597.82 84.95Q597.82 88.48 599.22 89.88Q600.62 91.29 603.29 91.29L603.29 91.29Q605.09 91.29 606.71 90.68Q608.33 90.06 610.49 88.70L610.49 88.70L615.10 96.83Q608.83 101.37 601.56 101.37L601.56 101.37Q593.57 101.37 589.07 96.83Q584.57 92.30 584.57 84.59L584.57 84.59Q584.57 79.12 586.91 73.50Q589.25 67.89 594.22 64.11Q599.18 60.33 606.67 60.33L606.67 60.33Z"/></svg>