<svg xmlns="http://www.w3.org/2000/svg" viewBox="6.192000000000001 47.007999999999996 587.0880000000001 53.712"><path d="M13.10 50.97L35.86 50.97L35.42 52.48L14.54 52.48L11.45 74.37L29.52 74.37L29.30 75.88L11.23 75.88L7.85 100L6.19 100L13.10 50.97ZM45.07 62.63L46.66 62.63L41.33 100L39.74 100L45.07 62.63ZM47.66 50.68Q47.09 50.68 46.73 50.36Q46.37 50.03 46.37 49.46L46.37 49.46Q46.37 48.81 46.80 48.34Q47.23 47.87 47.88 47.87L47.88 47.87Q48.53 47.87 48.89 48.23Q49.25 48.59 49.25 49.17L49.25 49.17Q49.25 49.74 48.82 50.21Q48.38 50.68 47.66 50.68L47.66 50.68ZM76.46 61.91Q78.05 61.91 79.92 62.42L79.92 62.42L79.49 63.78Q78.05 63.35 76.46 63.35L76.46 63.35Q72.14 63.35 69.08 66.56Q66.02 69.76 63.22 76.67L63.22 76.67L59.90 100L58.32 100L63.65 62.63L65.02 62.63L63.50 73.29Q65.81 67.53 68.90 64.72Q72.00 61.91 76.46 61.91L76.46 61.91ZM102.17 61.91Q105.34 61.91 107.78 62.67Q110.23 63.42 112.61 64.86L112.61 64.86L108.72 91.94Q108.43 94.24 108.43 95.10L108.43 95.10Q108.43 96.76 109.01 97.84Q109.58 98.92 111.02 99.50L111.02 99.50L110.52 100.72Q108.72 100 107.86 98.67Q106.99 97.34 106.99 95.10L106.99 95.10Q106.99 94.60 107.14 93.02L107.14 93.02Q104.90 96.62 101.74 98.67Q98.57 100.72 94.97 100.72L94.97 100.72Q89.57 100.72 86.51 96.87Q83.45 93.02 83.45 86.32L83.45 86.32Q83.45 80.70 85.36 75.09Q87.26 69.47 91.48 65.69Q95.69 61.91 102.17 61.91L102.17 61.91ZM102.17 63.28Q96.26 63.28 92.41 66.88Q88.56 70.48 86.80 75.77Q85.03 81.06 85.03 86.25L85.03 86.25Q85.03 92.37 87.62 95.79Q90.22 99.21 94.97 99.21L94.97 99.21Q102.31 99.21 107.35 90.28L107.35 90.28L110.88 65.66Q107.06 63.28 102.17 63.28L102.17 63.28ZM162.65 50.25Q166.68 50.25 169.60 51.54Q172.51 52.84 174.96 55.29L174.96 55.29L173.95 56.37Q171.58 53.92 168.91 52.80Q166.25 51.69 162.65 51.69L162.65 51.69Q158.47 51.69 155.48 53.16Q152.50 54.64 150.95 57.12Q149.40 59.61 149.40 62.49L149.40 62.49Q149.40 66.45 151.81 68.64Q154.22 70.84 160.20 72.71L160.20 72.71Q166.54 74.80 169.42 77.72Q172.30 80.63 172.30 85.60L172.30 85.60Q172.30 89.13 170.50 92.62Q168.70 96.11 164.84 98.42Q160.99 100.72 155.30 100.72L155.30 100.72Q150.70 100.72 147.38 99.21Q144.07 97.70 141.34 94.74L141.34 94.74L142.42 93.74Q144.94 96.40 147.96 97.77Q150.98 99.14 155.23 99.14L155.23 99.14Q160.63 99.14 164.09 97.01Q167.54 94.89 169.09 91.79Q170.64 88.70 170.64 85.60L170.64 85.60Q170.64 81.21 168.05 78.65Q165.46 76.10 159.55 74.15L159.55 74.15Q153.00 71.99 150.37 69.44Q147.74 66.88 147.74 62.49L147.74 62.49Q147.74 59.32 149.44 56.51Q151.13 53.70 154.51 51.98Q157.90 50.25 162.65 50.25L162.65 50.25ZM201.53 61.91Q204.70 61.91 207.14 62.67Q209.59 63.42 211.97 64.86L211.97 64.86L208.08 91.94Q207.79 94.24 207.79 95.10L207.79 95.10Q207.79 96.76 208.37 97.84Q208.94 98.92 210.38 99.50L210.38 99.50L209.88 100.72Q208.08 100 207.22 98.67Q206.35 97.34 206.35 95.10L206.35 95.10Q206.35 94.60 206.50 93.02L206.50 93.02Q204.26 96.62 201.10 98.67Q197.93 100.72 194.33 100.72L194.33 100.72Q188.93 100.72 185.87 96.87Q182.81 93.02 182.81 86.32L182.81 86.32Q182.81 80.70 184.72 75.09Q186.62 69.47 190.84 65.69Q195.05 61.91 201.53 61.91L201.53 61.91ZM201.53 63.28Q195.62 63.28 191.77 66.88Q187.92 70.48 186.16 75.77Q184.39 81.06 184.39 86.25L184.39 86.25Q184.39 92.37 186.98 95.79Q189.58 99.21 194.33 99.21L194.33 99.21Q201.67 99.21 206.71 90.28L206.71 90.28L210.24 65.66Q206.42 63.28 201.53 63.28L201.53 63.28ZM243.94 61.91Q248.11 61.91 250.27 64.18Q252.43 66.45 252.43 70.70L252.43 70.70Q252.43 71.99 252.22 73.43L252.22 73.43L248.47 100L246.89 100L250.63 73.58Q250.85 72.06 250.85 70.84L250.85 70.84Q250.85 63.28 243.86 63.28L243.86 63.28Q239.40 63.28 235.48 66.88Q231.55 70.48 228.02 77.32L228.02 77.32L224.78 100L223.20 100L228.53 62.63L229.82 62.63L228.38 74.22Q231.55 68.10 235.51 65.01Q239.47 61.91 243.94 61.91L243.94 61.91ZM277.78 61.91Q281.09 61.91 283.68 62.85Q286.27 63.78 288.50 65.73L288.50 65.73L287.42 66.74Q285.26 65.01 283.03 64.18Q280.80 63.35 277.78 63.35L277.78 63.35Q273.17 63.35 270.25 65.51Q267.34 67.67 267.34 71.34L267.34 71.34Q267.34 74.15 269.24 75.99Q271.15 77.82 276.34 79.41L276.34 79.41Q281.95 81.21 284.29 83.55Q286.63 85.89 286.63 89.70L286.63 89.70Q286.63 94.46 283.14 97.59Q279.65 100.72 273.17 100.72L273.17 100.72Q268.99 100.72 266.08 99.46Q263.16 98.20 260.71 95.97L260.71 95.97L261.65 94.96Q264.17 97.05 266.76 98.13Q269.35 99.21 273.02 99.21L273.02 99.21Q278.28 99.21 281.63 96.80Q284.98 94.38 284.98 89.78L284.98 89.78Q284.98 86.46 283.00 84.45Q281.02 82.43 275.69 80.78L275.69 80.78Q270.07 78.98 267.88 76.78Q265.68 74.58 265.68 71.34L265.68 71.34Q265.68 67.17 269.14 64.54Q272.59 61.91 277.78 61.91L277.78 61.91ZM335.09 52.41L336.38 52.41L329.69 100L328.10 100L334.51 54.35L320.98 62.27L320.26 60.98L335.09 52.41ZM365.69 51.54Q359.57 51.54 355.46 56.58Q351.36 61.62 349.42 69.22Q347.47 76.82 347.47 84.52L347.47 84.52Q347.47 92.51 350.35 96.62Q353.23 100.72 358.63 100.72L358.63 100.72Q364.68 100.72 368.78 95.72Q372.89 90.71 374.83 83.12Q376.78 75.52 376.78 67.82L376.78 67.82Q376.78 59.75 373.97 55.65Q371.16 51.54 365.69 51.54L365.69 51.54ZM365.69 53.06Q375.12 53.06 375.12 67.67L375.12 67.67Q375.12 75.23 373.32 82.47Q371.52 89.70 367.81 94.46Q364.10 99.21 358.63 99.21L358.63 99.21Q349.13 99.21 349.13 84.59L349.13 84.59Q349.13 77.10 350.93 69.83Q352.73 62.56 356.47 57.81Q360.22 53.06 365.69 53.06L365.69 53.06ZM404.64 51.54Q398.52 51.54 394.42 56.58Q390.31 61.62 388.37 69.22Q386.42 76.82 386.42 84.52L386.42 84.52Q386.42 92.51 389.30 96.62Q392.18 100.72 397.58 100.72L397.58 100.72Q403.63 100.72 407.74 95.72Q411.84 90.71 413.78 83.12Q415.73 75.52 415.73 67.82L415.73 67.82Q415.73 59.75 412.92 55.65Q410.11 51.54 404.64 51.54L404.64 51.54ZM404.64 53.06Q414.07 53.06 414.07 67.67L414.07 67.67Q414.07 75.23 412.27 82.47Q410.47 89.70 406.76 94.46Q403.06 99.21 397.58 99.21L397.58 99.21Q388.08 99.21 388.08 84.59L388.08 84.59Q388.08 77.10 389.88 69.83Q391.68 62.56 395.42 57.81Q399.17 53.06 404.64 53.06L404.64 53.06ZM452.30 62.63L453.89 62.63L448.56 100L446.98 100L452.30 62.63ZM454.90 50.68Q454.32 50.68 453.96 50.36Q453.60 50.03 453.60 49.46L453.60 49.46Q453.60 48.81 454.03 48.34Q454.46 47.87 455.11 47.87L455.11 47.87Q455.76 47.87 456.12 48.23Q456.48 48.59 456.48 49.17L456.48 49.17Q456.48 49.74 456.05 50.21Q455.62 50.68 454.90 50.68L454.90 50.68ZM471.82 64.07L467.93 91.50Q467.78 92.94 467.78 93.59L467.78 93.59Q467.78 99.28 473.33 99.28L473.33 99.28Q476.57 99.28 480.17 97.34L480.17 97.34L480.74 98.56Q476.93 100.72 473.18 100.72L473.18 100.72Q469.87 100.72 468.04 98.88Q466.20 97.05 466.20 93.59L466.20 93.59Q466.20 93.02 466.34 91.58L466.34 91.58L470.16 64.07L464.04 64.07L464.18 62.63L470.38 62.63L472.10 53.20L473.33 53.06L471.96 62.63L482.33 62.63L481.90 64.07L471.82 64.07ZM506.66 61.91Q509.83 61.91 512.28 62.67Q514.73 63.42 517.10 64.86L517.10 64.86L513.22 91.94Q512.93 94.24 512.93 95.10L512.93 95.10Q512.93 96.76 513.50 97.84Q514.08 98.92 515.52 99.50L515.52 99.50L515.02 100.72Q513.22 100 512.35 98.67Q511.49 97.34 511.49 95.10L511.49 95.10Q511.49 94.60 511.63 93.02L511.63 93.02Q509.40 96.62 506.23 98.67Q503.06 100.72 499.46 100.72L499.46 100.72Q494.06 100.72 491.00 96.87Q487.94 93.02 487.94 86.32L487.94 86.32Q487.94 80.70 489.85 75.09Q491.76 69.47 495.97 65.69Q500.18 61.91 506.66 61.91L506.66 61.91ZM506.66 63.28Q500.76 63.28 496.91 66.88Q493.06 70.48 491.29 75.77Q489.53 81.06 489.53 86.25L489.53 86.25Q489.53 92.37 492.12 95.79Q494.71 99.21 499.46 99.21L499.46 99.21Q506.81 99.21 511.85 90.28L511.85 90.28L515.38 65.66Q511.56 63.28 506.66 63.28L506.66 63.28ZM537.05 47.01L530.35 94.74Q530.28 95.18 530.28 96.04L530.28 96.04Q530.28 99.21 533.38 99.21L533.38 99.21Q534.60 99.21 536.33 98.63L536.33 98.63L536.76 100Q534.74 100.72 533.30 100.72L533.30 100.72Q531.07 100.72 529.85 99.53Q528.62 98.34 528.62 96.04L528.62 96.04Q528.62 95.61 528.77 94.60L528.77 94.60L535.46 47.22L537.05 47.01ZM553.54 62.63L555.12 62.63L549.79 100L548.21 100L553.54 62.63ZM556.13 50.68Q555.55 50.68 555.19 50.36Q554.83 50.03 554.83 49.46L554.83 49.46Q554.83 48.81 555.26 48.34Q555.70 47.87 556.34 47.87L556.34 47.87Q556.99 47.87 557.35 48.23Q557.71 48.59 557.71 49.17L557.71 49.17Q557.71 49.74 557.28 50.21Q556.85 50.68 556.13 50.68L556.13 50.68ZM583.99 61.91Q589.68 61.91 593.28 65.51L593.28 65.51L592.27 66.52Q588.96 63.35 583.92 63.35L583.92 63.35Q578.45 63.35 574.74 66.77Q571.03 70.19 569.30 75.38Q567.58 80.56 567.58 85.82L567.58 85.82Q567.58 92.37 570.56 95.79Q573.55 99.21 578.74 99.21L578.74 99.21Q583.92 99.21 588.46 95.75L588.46 95.75L589.32 96.90Q584.42 100.72 578.66 100.72L578.66 100.72Q572.83 100.72 569.38 96.83Q565.92 92.94 565.92 85.82L565.92 85.82Q565.92 80.20 567.86 74.69Q569.81 69.18 573.88 65.55Q577.94 61.91 583.99 61.91L583.99 61.91Z"/></svg>