<svg xmlns="http://www.w3.org/2000/svg" viewBox="1.23 -7.24 38.34 7.34"><path d="M1.46 0L1.23 0L1.23-6.81L4.39-6.81L4.36-6.60L1.46-6.60L1.46-3.56L3.96-3.56L3.96-3.35L1.46-3.35L1.46 0ZM5.89-5.19L6.11-5.19L6.11 0L5.89 0L5.89-5.19ZM6-7.24Q6.10-7.24 6.16-7.18Q6.21-7.12 6.21-7.04L6.21-7.04Q6.21-6.96 6.16-6.91Q6.10-6.85 6-6.85L6-6.85Q5.91-6.85 5.86-6.91Q5.80-6.96 5.80-7.04L5.80-7.04Q5.80-7.12 5.86-7.18Q5.91-7.24 6-7.24L6-7.24ZM10.23-5.29Q10.50-5.29 10.74-5.23L10.74-5.23L10.69-5.04Q10.47-5.09 10.23-5.09L10.23-5.09Q9.66-5.09 9.30-4.70Q8.94-4.30 8.69-3.44L8.69-3.44L8.69 0L8.47 0L8.47-5.19L8.66-5.19L8.67-3.90Q8.89-4.62 9.27-4.96Q9.64-5.29 10.23-5.29L10.23-5.29ZM15.01-1.10Q15.01-0.59 15.12-0.37Q15.22-0.15 15.48-0.06L15.48-0.06L15.42 0.10Q15.11 0 14.97-0.23Q14.83-0.45 14.82-0.91L14.82-0.91Q14.25 0.10 13.13 0.10L13.13 0.10Q12.40 0.10 11.98-0.32Q11.57-0.74 11.57-1.44L11.57-1.44Q11.57-2.22 12.12-2.65Q12.67-3.08 13.61-3.08L13.61-3.08L14.79-3.08L14.79-3.70Q14.79-4.40 14.48-4.75Q14.18-5.09 13.46-5.09L13.46-5.09Q12.83-5.09 12.03-4.76L12.03-4.76L11.96-4.95Q12.78-5.29 13.46-5.29L13.46-5.29Q14.27-5.29 14.64-4.90Q15.01-4.50 15.01-3.72L15.01-3.72L15.01-1.10ZM13.13-0.11Q13.72-0.11 14.12-0.39Q14.52-0.66 14.79-1.19L14.79-1.19L14.79-2.88L13.65-2.88Q12.78-2.88 12.29-2.51Q11.81-2.14 11.81-1.44L11.81-1.44Q11.81-0.82 12.17-0.47Q12.52-0.11 13.13-0.11L13.13-0.11ZM21.80-6.91Q22.38-6.91 22.79-6.74Q23.20-6.57 23.60-6.22L23.60-6.22L23.45-6.05Q23.09-6.39 22.71-6.54Q22.32-6.70 21.80-6.70L21.80-6.70Q21.07-6.70 20.63-6.32Q20.18-5.94 20.18-5.34L20.18-5.34Q20.18-4.92 20.35-4.65Q20.51-4.38 20.87-4.18Q21.23-3.98 21.89-3.78L21.89-3.78Q22.59-3.56 23.00-3.32Q23.41-3.08 23.61-2.73Q23.81-2.37 23.81-1.82L23.81-1.82Q23.81-1.26 23.55-0.82Q23.28-0.38 22.81-0.14Q22.34 0.10 21.73 0.10L21.73 0.10Q21.09 0.10 20.61-0.11Q20.13-0.32 19.69-0.72L19.69-0.72L19.84-0.87Q20.24-0.50 20.68-0.31Q21.11-0.12 21.72-0.12L21.72-0.12Q22.56-0.12 23.08-0.58Q23.59-1.04 23.59-1.81L23.59-1.81Q23.59-2.31 23.41-2.63Q23.23-2.94 22.86-3.16Q22.48-3.37 21.81-3.58L21.81-3.58Q21.10-3.80 20.70-4.03Q20.30-4.26 20.13-4.57Q19.95-4.88 19.95-5.34L19.95-5.34Q19.95-5.78 20.18-6.14Q20.41-6.50 20.83-6.71Q21.25-6.91 21.80-6.91L21.80-6.91ZM28.61-1.10Q28.61-0.59 28.72-0.37Q28.82-0.15 29.08-0.06L29.08-0.06L29.02 0.10Q28.71 0 28.57-0.23Q28.43-0.45 28.42-0.91L28.42-0.91Q27.85 0.10 26.73 0.10L26.73 0.10Q26 0.10 25.59-0.32Q25.17-0.74 25.17-1.44L25.17-1.44Q25.17-2.22 25.72-2.65Q26.27-3.08 27.21-3.08L27.21-3.08L28.39-3.08L28.39-3.70Q28.39-4.40 28.09-4.75Q27.78-5.09 27.06-5.09L27.06-5.09Q26.43-5.09 25.63-4.76L25.63-4.76L25.56-4.95Q26.38-5.29 27.06-5.29L27.06-5.29Q27.87-5.29 28.24-4.90Q28.61-4.50 28.61-3.72L28.61-3.72L28.61-1.10ZM26.73-0.11Q27.32-0.11 27.72-0.39Q28.12-0.66 28.39-1.19L28.39-1.19L28.39-2.88L27.25-2.88Q26.38-2.88 25.90-2.51Q25.41-2.14 25.41-1.44L25.41-1.44Q25.41-0.82 25.77-0.47Q26.12-0.11 26.73-0.11L26.73-0.11ZM33.09-5.29Q33.79-5.29 34.14-4.88Q34.48-4.47 34.48-3.69L34.48-3.69L34.48 0L34.26 0L34.26-3.67Q34.26-5.09 33.09-5.09L33.09-5.09Q32.49-5.09 32.04-4.77Q31.59-4.45 31.19-3.84L31.19-3.84L31.19 0L30.97 0L30.97-5.19L31.16-5.19L31.18-4.13Q31.96-5.29 33.09-5.29L33.09-5.29ZM37.89-5.29Q38.35-5.29 38.72-5.16Q39.08-5.02 39.43-4.74L39.43-4.74L39.30-4.58Q38.95-4.85 38.64-4.97Q38.32-5.09 37.90-5.09L37.90-5.09Q37.31-5.09 36.93-4.79Q36.54-4.50 36.54-4.01L36.54-4.01Q36.54-3.56 36.86-3.31Q37.17-3.06 37.96-2.85L37.96-2.85Q38.57-2.68 38.91-2.50Q39.26-2.32 39.41-2.04Q39.57-1.77 39.57-1.34L39.57-1.34Q39.57-0.70 39.10-0.30Q38.63 0.10 37.88 0.10L37.88 0.10Q37.32 0.10 36.91-0.07Q36.51-0.24 36.13-0.56L36.13-0.56L36.26-0.71Q36.63-0.40 37.00-0.26Q37.36-0.11 37.88-0.11L37.88-0.11Q38.52-0.11 38.93-0.43Q39.34-0.76 39.34-1.34L39.34-1.34Q39.34-1.72 39.20-1.96Q39.07-2.19 38.76-2.35Q38.45-2.51 37.86-2.67L37.86-2.67Q37.02-2.89 36.66-3.19Q36.31-3.49 36.31-4.01L36.31-4.01Q36.31-4.57 36.77-4.93Q37.22-5.29 37.89-5.29L37.89-5.29Z"/></svg>