<svg xmlns="http://www.w3.org/2000/svg" viewBox="7.200000000000001 43.839999999999996 541.5120000000001 71.49600000000001"><path d="M14.04 100L7.20 100L7.20 50.39L33.55 50.39L32.76 55.86L14.04 55.86L14.04 72.78L30.24 72.78L30.24 78.18L14.04 78.18L14.04 100ZM42.19 62.06L48.82 62.06L48.82 100L42.19 100L42.19 62.06ZM45.43 43.84Q47.52 43.84 48.82 45.14Q50.11 46.43 50.11 48.38L50.11 48.38Q50.11 50.32 48.82 51.58Q47.52 52.84 45.43 52.84L45.43 52.84Q43.42 52.84 42.12 51.58Q40.82 50.32 40.82 48.38L40.82 48.38Q40.82 46.43 42.12 45.14Q43.42 43.84 45.43 43.84L45.43 43.84ZM78.98 61.19Q81 61.19 82.73 61.62L82.73 61.62L81.50 68.10Q79.78 67.67 78.19 67.67L78.19 67.67Q74.66 67.67 72.50 70.26Q70.34 72.86 69.12 78.33L69.12 78.33L69.12 100L62.50 100L62.50 62.06L68.18 62.06L68.83 69.76Q70.34 65.51 72.94 63.35Q75.53 61.19 78.98 61.19L78.98 61.19ZM115.85 91.14Q115.85 93.45 116.64 94.56Q117.43 95.68 119.02 96.26L119.02 96.26L117.50 100.86Q114.55 100.50 112.75 99.21Q110.95 97.91 110.09 95.18L110.09 95.18Q106.27 100.86 98.78 100.86L98.78 100.86Q93.17 100.86 89.93 97.70Q86.69 94.53 86.69 89.42L86.69 89.42Q86.69 83.37 91.04 80.13Q95.40 76.89 103.39 76.89L103.39 76.89L109.22 76.89L109.22 74.08Q109.22 70.05 107.28 68.32Q105.34 66.59 101.30 66.59L101.30 66.59Q97.13 66.59 91.08 68.61L91.08 68.61L89.42 63.78Q96.48 61.19 102.53 61.19L102.53 61.19Q109.22 61.19 112.54 64.47Q115.85 67.74 115.85 73.79L115.85 73.79L115.85 91.14ZM100.30 95.90Q105.98 95.90 109.22 89.99L109.22 89.99L109.22 81.28L104.26 81.28Q93.74 81.28 93.74 89.06L93.74 89.06Q93.74 92.44 95.40 94.17Q97.06 95.90 100.30 95.90L100.30 95.90ZM161.14 49.53Q166.10 49.53 169.63 50.93Q173.16 52.34 176.47 55.29L176.47 55.29L172.73 59.46Q169.92 57.23 167.22 56.19Q164.52 55.14 161.42 55.14L161.42 55.14Q157.54 55.14 155.02 56.94Q152.50 58.74 152.50 62.20L152.50 62.20Q152.50 64.36 153.36 65.84Q154.22 67.31 156.56 68.54Q158.90 69.76 163.37 71.13L163.37 71.13Q168.05 72.57 171.14 74.22Q174.24 75.88 176.15 78.80Q178.06 81.71 178.06 86.18L178.06 86.18Q178.06 90.50 175.93 93.81Q173.81 97.12 169.81 98.99Q165.82 100.86 160.34 100.86L160.34 100.86Q150.05 100.86 143.50 94.46L143.50 94.46L147.24 90.28Q150.26 92.73 153.36 93.99Q156.46 95.25 160.27 95.25L160.27 95.25Q164.88 95.25 167.90 92.98Q170.93 90.71 170.93 86.39L170.93 86.39Q170.93 83.94 169.99 82.32Q169.06 80.70 166.79 79.41Q164.52 78.11 160.20 76.82L160.20 76.82Q152.57 74.51 149.04 71.27Q145.51 68.03 145.51 62.49L145.51 62.49Q145.51 58.74 147.49 55.79Q149.47 52.84 153.04 51.18Q156.60 49.53 161.14 49.53L161.14 49.53ZM213.34 91.14Q213.34 93.45 214.13 94.56Q214.92 95.68 216.50 96.26L216.50 96.26L214.99 100.86Q212.04 100.50 210.24 99.21Q208.44 97.91 207.58 95.18L207.58 95.18Q203.76 100.86 196.27 100.86L196.27 100.86Q190.66 100.86 187.42 97.70Q184.18 94.53 184.18 89.42L184.18 89.42Q184.18 83.37 188.53 80.13Q192.89 76.89 200.88 76.89L200.88 76.89L206.71 76.89L206.71 74.08Q206.71 70.05 204.77 68.32Q202.82 66.59 198.79 66.59L198.79 66.59Q194.62 66.59 188.57 68.61L188.57 68.61L186.91 63.78Q193.97 61.19 200.02 61.19L200.02 61.19Q206.71 61.19 210.02 64.47Q213.34 67.74 213.34 73.79L213.34 73.79L213.34 91.14ZM197.78 95.90Q203.47 95.90 206.71 89.99L206.71 89.99L206.71 81.28L201.74 81.28Q191.23 81.28 191.23 89.06L191.23 89.06Q191.23 92.44 192.89 94.17Q194.54 95.90 197.78 95.90L197.78 95.90ZM244.80 61.19Q249.98 61.19 252.90 64.29Q255.82 67.38 255.82 72.78L255.82 72.78L255.82 100L249.19 100L249.19 73.72Q249.19 69.69 247.68 68.03Q246.17 66.38 243.22 66.38L243.22 66.38Q240.19 66.38 237.89 68.10Q235.58 69.83 233.57 73.07L233.57 73.07L233.57 100L226.94 100L226.94 62.06L232.63 62.06L233.21 67.67Q235.22 64.65 238.21 62.92Q241.20 61.19 244.80 61.19L244.80 61.19ZM279.43 61.19Q283.32 61.19 286.42 62.27Q289.51 63.35 292.32 65.51L292.32 65.51L289.51 69.69Q286.92 68.03 284.58 67.24Q282.24 66.45 279.65 66.45L279.65 66.45Q276.41 66.45 274.54 67.78Q272.66 69.11 272.66 71.42L272.66 71.42Q272.66 73.72 274.43 75.02Q276.19 76.31 280.80 77.54L280.80 77.54Q287.14 79.12 290.27 81.86Q293.40 84.59 293.40 89.34L293.40 89.34Q293.40 94.96 289.04 97.91Q284.69 100.86 278.42 100.86L278.42 100.86Q269.78 100.86 264.10 95.90L264.10 95.90L267.62 91.86Q272.45 95.54 278.28 95.54L278.28 95.54Q282.02 95.54 284.22 93.99Q286.42 92.44 286.42 89.78L286.42 89.78Q286.42 87.83 285.62 86.64Q284.83 85.46 282.89 84.56Q280.94 83.66 277.20 82.65L277.20 82.65Q271.15 81.06 268.45 78.40Q265.75 75.74 265.75 71.63L265.75 71.63Q265.75 68.68 267.52 66.27Q269.28 63.86 272.41 62.52Q275.54 61.19 279.43 61.19L279.43 61.19ZM338.33 61.19Q340.34 61.19 342.07 61.62L342.07 61.62L340.85 68.10Q339.12 67.67 337.54 67.67L337.54 67.67Q334.01 67.67 331.85 70.26Q329.69 72.86 328.46 78.33L328.46 78.33L328.46 100L321.84 100L321.84 62.06L327.53 62.06L328.18 69.76Q329.69 65.51 332.28 63.35Q334.87 61.19 338.33 61.19L338.33 61.19ZM378.29 79.91Q378.29 81.57 378.14 83.30L378.14 83.30L353.95 83.30Q354.38 89.56 357.12 92.51Q359.86 95.46 364.18 95.46L364.18 95.46Q366.91 95.46 369.22 94.67Q371.52 93.88 374.04 92.15L374.04 92.15L376.92 96.11Q370.87 100.86 363.67 100.86L363.67 100.86Q355.75 100.86 351.32 95.68Q346.90 90.50 346.90 81.42L346.90 81.42Q346.90 75.52 348.80 70.95Q350.71 66.38 354.28 63.78Q357.84 61.19 362.66 61.19L362.66 61.19Q370.22 61.19 374.26 66.16Q378.29 71.13 378.29 79.91L378.29 79.91ZM371.74 78.40L371.74 77.97Q371.74 72.35 369.50 69.40Q367.27 66.45 362.81 66.45L362.81 66.45Q354.67 66.45 353.95 78.40L353.95 78.40L371.74 78.40ZM417.53 57.81L419.47 63.78Q417.31 64.50 414.72 64.72Q412.13 64.94 408.38 64.94L408.38 64.94Q415.08 67.96 415.08 74.51L415.08 74.51Q415.08 80.20 411.19 83.80Q407.30 87.40 400.61 87.40L400.61 87.40Q398.02 87.40 395.78 86.68L395.78 86.68Q394.92 87.26 394.42 88.23Q393.91 89.20 393.91 90.21L393.91 90.21Q393.91 93.30 398.88 93.30L398.88 93.30L404.93 93.30Q408.74 93.30 411.70 94.67Q414.65 96.04 416.27 98.42Q417.89 100.79 417.89 103.82L417.89 103.82Q417.89 109.36 413.35 112.35Q408.82 115.34 400.10 115.34L400.10 115.34Q393.98 115.34 390.42 114.08Q386.86 112.82 385.34 110.30Q383.83 107.78 383.83 103.82L383.83 103.82L389.81 103.82Q389.81 106.12 390.67 107.45Q391.54 108.78 393.77 109.47Q396.00 110.15 400.10 110.15L400.10 110.15Q406.08 110.15 408.64 108.68Q411.19 107.20 411.19 104.25L411.19 104.25Q411.19 101.58 409.18 100.22Q407.16 98.85 403.56 98.85L403.56 98.85L397.58 98.85Q392.76 98.85 390.28 96.80Q387.79 94.74 387.79 91.65L387.79 91.65Q387.79 89.78 388.87 88.05Q389.95 86.32 391.97 84.95L391.97 84.95Q388.66 83.22 387.11 80.67Q385.56 78.11 385.56 74.44L385.56 74.44Q385.56 70.62 387.47 67.60Q389.38 64.58 392.72 62.88Q396.07 61.19 400.18 61.19L400.18 61.19Q404.64 61.26 407.66 60.87Q410.69 60.47 412.67 59.79Q414.65 59.10 417.53 57.81L417.53 57.81ZM400.18 65.94Q396.43 65.94 394.38 68.28Q392.33 70.62 392.33 74.44L392.33 74.44Q392.33 78.33 394.42 80.67Q396.50 83.01 400.32 83.01L400.32 83.01Q404.21 83.01 406.26 80.74Q408.31 78.47 408.31 74.37L408.31 74.37Q408.31 65.94 400.18 65.94L400.18 65.94ZM454.54 62.06L454.54 100L448.85 100L448.34 94.10Q446.18 97.62 443.38 99.24Q440.57 100.86 436.54 100.86L436.54 100.86Q431.57 100.86 428.76 97.84Q425.95 94.82 425.95 89.27L425.95 89.27L425.95 62.06L432.58 62.06L432.58 88.55Q432.58 92.44 433.94 94.06Q435.31 95.68 438.41 95.68L438.41 95.68Q443.95 95.68 447.91 89.13L447.91 89.13L447.91 62.06L454.54 62.06ZM475.78 100.86Q472.10 100.86 469.98 98.67Q467.86 96.47 467.86 92.51L467.86 92.51L467.86 46.79L474.48 46.00L474.48 92.37Q474.48 93.95 475.02 94.67Q475.56 95.39 476.86 95.39L476.86 95.39Q478.22 95.39 479.30 94.96L479.30 94.96L481.03 99.57Q478.66 100.86 475.78 100.86L475.78 100.86ZM514.87 91.14Q514.87 93.45 515.66 94.56Q516.46 95.68 518.04 96.26L518.04 96.26L516.53 100.86Q513.58 100.50 511.78 99.21Q509.98 97.91 509.11 95.18L509.11 95.18Q505.30 100.86 497.81 100.86L497.81 100.86Q492.19 100.86 488.95 97.70Q485.71 94.53 485.71 89.42L485.71 89.42Q485.71 83.37 490.07 80.13Q494.42 76.89 502.42 76.89L502.42 76.89L508.25 76.89L508.25 74.08Q508.25 70.05 506.30 68.32Q504.36 66.59 500.33 66.59L500.33 66.59Q496.15 66.59 490.10 68.61L490.10 68.61L488.45 63.78Q495.50 61.19 501.55 61.19L501.55 61.19Q508.25 61.19 511.56 64.47Q514.87 67.74 514.87 73.79L514.87 73.79L514.87 91.14ZM499.32 95.90Q505.01 95.90 508.25 89.99L508.25 89.99L508.25 81.28L503.28 81.28Q492.77 81.28 492.77 89.06L492.77 89.06Q492.77 92.44 494.42 94.17Q496.08 95.90 499.32 95.90L499.32 95.90ZM544.97 61.19Q546.98 61.19 548.71 61.62L548.71 61.62L547.49 68.10Q545.76 67.67 544.18 67.67L544.18 67.67Q540.65 67.67 538.49 70.26Q536.33 72.86 535.10 78.33L535.10 78.33L535.10 100L528.48 100L528.48 62.06L534.17 62.06L534.82 69.76Q536.33 65.51 538.92 63.35Q541.51 61.19 544.97 61.19L544.97 61.19Z"/></svg>