<svg xmlns="http://www.w3.org/2000/svg" viewBox="0.43200000000000005 40.31199999999999 672.192 61.12800000000001"><path d="M7.42 49.89L38.66 49.89L35.71 60.18L20.52 60.18L19.01 71.13L32.40 71.13L30.96 81.42L17.57 81.42L14.98 100L0.43 100L7.42 49.89ZM39.82 61.55L53.78 61.55L48.46 100L34.49 100L39.82 61.55ZM47.81 55.58Q44.64 55.58 42.73 53.70Q40.82 51.83 40.82 48.88L40.82 48.88Q40.82 45.21 43.38 42.76Q45.94 40.31 49.68 40.31L49.68 40.31Q52.85 40.31 54.76 42.18Q56.66 44.06 56.66 47.01L56.66 47.01Q56.66 50.68 54.11 53.13Q51.55 55.58 47.81 55.58L47.81 55.58ZM82.58 60.33Q84.60 60.33 86.40 60.98L86.40 60.98L82.44 74.73Q80.50 74.15 79.13 74.15L79.13 74.15Q75.96 74.15 74.09 76.67Q72.22 79.19 70.63 83.80L70.63 83.80L68.33 100L54.36 100L59.69 61.55L71.86 61.55L71.93 68.39Q73.80 64.50 76.61 62.42Q79.42 60.33 82.58 60.33L82.58 60.33ZM106.56 60.11Q110.81 60.11 115.27 61.23Q119.74 62.34 123.55 64.65L123.55 64.65L120.24 87.62Q120.10 89.06 120.10 89.42L120.10 89.42Q120.10 90.42 120.46 91.04Q120.82 91.65 121.82 92.08L121.82 92.08L117.79 101.15Q114.19 100.94 111.46 99.35Q108.72 97.77 107.64 94.82L107.64 94.82Q105.55 97.91 102.82 99.68Q100.08 101.44 96.19 101.44L96.19 101.44Q90.14 101.44 86.87 97.26Q83.59 93.09 83.59 85.82L83.59 85.82Q83.59 79.62 85.93 73.76Q88.27 67.89 93.42 64.00Q98.57 60.11 106.56 60.11L106.56 60.11ZM105.98 69.90Q101.81 69.90 99.86 74.76Q97.92 79.62 97.92 85.74L97.92 85.74Q97.92 88.98 98.75 90.10Q99.58 91.22 101.02 91.22L101.02 91.22Q104.04 91.22 106.56 86.90L106.56 86.90L109.01 70.34Q107.42 69.90 105.98 69.90L105.98 69.90ZM164.02 48.45Q175.10 48.45 181.87 55.36L181.87 55.36L174.53 62.92Q170.14 58.96 164.59 58.96L164.59 58.96Q161.71 58.96 160.16 60.08Q158.62 61.19 158.62 62.99L158.62 62.99Q158.62 64.22 159.30 65.01Q159.98 65.80 161.60 66.52Q163.22 67.24 166.46 68.32L166.46 68.32Q173.02 70.55 176.08 74.04Q179.14 77.54 179.14 82.86L179.14 82.86Q179.14 87.62 176.90 91.83Q174.67 96.04 169.63 98.74Q164.59 101.44 156.67 101.44L156.67 101.44Q150.26 101.44 145.44 99.32Q140.62 97.19 137.30 93.81L137.30 93.81L145.44 85.53Q150.26 90.35 157.03 90.35L157.03 90.35Q160.27 90.35 162.00 89.13Q163.73 87.90 163.73 85.60L163.73 85.60Q163.73 83.58 162.18 82.22Q160.63 80.85 156.67 79.48L156.67 79.48Q149.47 77.10 146.38 73.54Q143.28 69.98 143.28 65.01L143.28 65.01Q143.28 60.62 145.51 56.87Q147.74 53.13 152.42 50.79Q157.10 48.45 164.02 48.45L164.02 48.45ZM204.34 60.11Q208.58 60.11 213.05 61.23Q217.51 62.34 221.33 64.65L221.33 64.65L218.02 87.62Q217.87 89.06 217.87 89.42L217.87 89.42Q217.87 90.42 218.23 91.04Q218.59 91.65 219.60 92.08L219.60 92.08L215.57 101.15Q211.97 100.94 209.23 99.35Q206.50 97.77 205.42 94.82L205.42 94.82Q203.33 97.91 200.59 99.68Q197.86 101.44 193.97 101.44L193.97 101.44Q187.92 101.44 184.64 97.26Q181.37 93.09 181.37 85.82L181.37 85.82Q181.37 79.62 183.71 73.76Q186.05 67.89 191.20 64.00Q196.34 60.11 204.34 60.11L204.34 60.11ZM203.76 69.90Q199.58 69.90 197.64 74.76Q195.70 79.62 195.70 85.74L195.70 85.74Q195.70 88.98 196.52 90.10Q197.35 91.22 198.79 91.22L198.79 91.22Q201.82 91.22 204.34 86.90L204.34 86.90L206.78 70.34Q205.20 69.90 203.76 69.90L203.76 69.90ZM252.65 60.11Q256.61 60.11 258.84 62.49Q261.07 64.86 261.07 69.18L261.07 69.18Q261.07 70.84 260.93 71.70L260.93 71.70L256.97 100L243.00 100L246.46 75.45Q246.60 74.15 246.60 73.79L246.60 73.79Q246.60 71.70 245.30 71.70L245.30 71.70Q244.01 71.70 242.50 73.76Q240.98 75.81 239.04 79.98L239.04 79.98L236.16 100L222.19 100L227.52 61.55L239.69 61.55L239.76 67.89Q242.06 64.36 245.52 62.24Q248.98 60.11 252.65 60.11L252.65 60.11ZM282.02 60.11Q286.34 60.11 290.23 61.48Q294.12 62.85 296.93 65.15L296.93 65.15L290.95 72.64Q288.94 71.42 286.60 70.70Q284.26 69.98 282.17 69.98L282.17 69.98Q278.57 69.98 278.57 71.92L278.57 71.92Q278.57 72.64 279.07 73.07Q279.58 73.50 281.30 74.19Q283.03 74.87 285.77 75.74L285.77 75.74Q295.27 78.90 295.27 87.47L295.27 87.47Q295.27 91 293.62 94.13Q291.96 97.26 287.93 99.35Q283.90 101.44 277.27 101.44L277.27 101.44Q272.16 101.44 267.55 99.57Q262.94 97.70 260.28 94.67L260.28 94.67L267.05 87.54Q271.58 91.58 277.27 91.58L277.27 91.58Q281.52 91.58 281.52 89.20L281.52 89.20Q281.52 88.34 280.98 87.83Q280.44 87.33 279.11 86.75Q277.78 86.18 274.25 84.95L274.25 84.95Q269.42 83.22 267.08 80.49Q264.74 77.75 264.74 73.36L264.74 73.36Q264.74 69.62 266.80 66.59Q268.85 63.57 272.77 61.84Q276.70 60.11 282.02 60.11L282.02 60.11ZM341.14 60.11Q347.04 60.11 349.99 63.96Q352.94 67.82 352.94 75.02L352.94 75.02Q352.94 85.67 347.72 93.56Q342.50 101.44 329.40 101.44L329.40 101.44Q320.47 101.44 312.34 97.84L312.34 97.84L319.54 46.43L333.65 44.99L330.91 64.50Q332.78 62.49 335.59 61.30Q338.40 60.11 341.14 60.11L341.14 60.11ZM335.30 70.34Q332.21 70.34 329.62 74.15L329.62 74.15L327.31 90.57Q329.18 91.29 330.98 91.29L330.98 91.29Q334.87 91.29 336.74 86.39Q338.62 81.50 338.62 75.66L338.62 75.66Q338.62 72.57 337.75 71.45Q336.89 70.34 335.30 70.34L335.30 70.34ZM375.26 44.99L369.29 87.98Q369.22 88.26 369.22 88.70L369.22 88.70Q369.22 90.28 370.66 90.28L370.66 90.28Q371.09 90.28 372.10 89.99L372.10 89.99L373.39 99.93Q371.81 100.65 369.54 101.04Q367.27 101.44 365.04 101.44L365.04 101.44Q360.22 101.44 357.59 98.96Q354.96 96.47 354.96 91.79L354.96 91.79Q354.96 90.42 355.18 89.06L355.18 89.06L361.15 46.43L375.26 44.99ZM398.30 60.11Q402.55 60.11 407.02 61.23Q411.48 62.34 415.30 64.65L415.30 64.65L411.98 87.62Q411.84 89.06 411.84 89.42L411.84 89.42Q411.84 90.42 412.20 91.04Q412.56 91.65 413.57 92.08L413.57 92.08L409.54 101.15Q405.94 100.94 403.20 99.35Q400.46 97.77 399.38 94.82L399.38 94.82Q397.30 97.91 394.56 99.68Q391.82 101.44 387.94 101.44L387.94 101.44Q381.89 101.44 378.61 97.26Q375.34 93.09 375.34 85.82L375.34 85.82Q375.34 79.62 377.68 73.76Q380.02 67.89 385.16 64.00Q390.31 60.11 398.30 60.11L398.30 60.11ZM397.73 69.90Q393.55 69.90 391.61 74.76Q389.66 79.62 389.66 85.74L389.66 85.74Q389.66 88.98 390.49 90.10Q391.32 91.22 392.76 91.22L392.76 91.22Q395.78 91.22 398.30 86.90L398.30 86.90L400.75 70.34Q399.17 69.90 397.73 69.90L397.73 69.90ZM439.42 60.11Q443.30 60.11 446.62 61.48Q449.93 62.85 452.38 65.44L452.38 65.44L445.68 73.43Q442.87 70.84 439.49 70.84L439.49 70.84Q435.02 70.84 433.19 75.05Q431.35 79.26 431.35 84.74L431.35 84.74Q431.35 87.98 432.65 89.20Q433.94 90.42 436.32 90.42L436.32 90.42Q437.98 90.42 439.49 89.85Q441.00 89.27 443.16 87.90L443.16 87.90L448.20 96.83Q441.79 101.44 434.30 101.44L434.30 101.44Q426.02 101.44 421.38 96.83Q416.74 92.22 416.74 84.38L416.74 84.38Q416.74 78.90 419.11 73.29Q421.49 67.67 426.60 63.89Q431.71 60.11 439.42 60.11L439.42 60.11ZM471.53 44.99L468.65 65.58Q471.53 62.70 474.55 61.41Q477.58 60.11 481.10 60.11L481.10 60.11Q486.22 60.11 489.13 62.70Q492.05 65.30 492.05 69.54L492.05 69.54Q492.05 78.40 482.47 82.86L482.47 82.86L488.66 100L473.40 100L467.78 81.57Q473.40 79.62 475.67 77.32Q477.94 75.02 477.94 72.28L477.94 72.28Q477.94 69.69 475.20 69.69L475.20 69.69Q471.46 69.69 467.21 75.74L467.21 75.74L463.90 100L449.86 100L457.34 46.43L471.53 44.99ZM511.92 61.55L525.89 61.55L520.56 100L506.59 100L511.92 61.55ZM519.91 55.58Q516.74 55.58 514.84 53.70Q512.93 51.83 512.93 48.88L512.93 48.88Q512.93 45.21 515.48 42.76Q518.04 40.31 521.78 40.31L521.78 40.31Q524.95 40.31 526.86 42.18Q528.77 44.06 528.77 47.01L528.77 47.01Q528.77 50.68 526.21 53.13Q523.66 55.58 519.91 55.58L519.91 55.58ZM545.90 90.28Q547.49 90.28 549.58 89.34L549.58 89.34L553.03 98.42Q550.58 99.86 547.34 100.65Q544.10 101.44 541.37 101.44L541.37 101.44Q535.54 101.44 532.48 98.34Q529.42 95.25 529.42 89.34L529.42 89.34Q529.42 88.34 529.70 85.74L529.70 85.74L531.79 71.20L527.26 71.20L528.55 61.55L533.74 61.55L536.04 53.27L548.42 51.83L547.06 61.55L555.70 61.55L552.82 71.20L545.76 71.20L543.74 85.74Q543.60 87.04 543.60 87.47L543.60 87.47Q543.60 88.98 544.18 89.63Q544.75 90.28 545.90 90.28L545.90 90.28ZM577.94 60.11Q582.19 60.11 586.66 61.23Q591.12 62.34 594.94 64.65L594.94 64.65L591.62 87.62Q591.48 89.06 591.48 89.42L591.48 89.42Q591.48 90.42 591.84 91.04Q592.20 91.65 593.21 92.08L593.21 92.08L589.18 101.15Q585.58 100.94 582.84 99.35Q580.10 97.77 579.02 94.82L579.02 94.82Q576.94 97.91 574.20 99.68Q571.46 101.44 567.58 101.44L567.58 101.44Q561.53 101.44 558.25 97.26Q554.98 93.09 554.98 85.82L554.98 85.82Q554.98 79.62 557.32 73.76Q559.66 67.89 564.80 64.00Q569.95 60.11 577.94 60.11L577.94 60.11ZM577.37 69.90Q573.19 69.90 571.25 74.76Q569.30 79.62 569.30 85.74L569.30 85.74Q569.30 88.98 570.13 90.10Q570.96 91.22 572.40 91.22L572.40 91.22Q575.42 91.22 577.94 86.90L577.94 86.90L580.39 70.34Q578.81 69.90 577.37 69.90L577.37 69.90ZM616.97 44.99L610.99 87.98Q610.92 88.26 610.92 88.70L610.92 88.70Q610.92 90.28 612.36 90.28L612.36 90.28Q612.79 90.28 613.80 89.99L613.80 89.99L615.10 99.93Q613.51 100.65 611.24 101.04Q608.98 101.44 606.74 101.44L606.74 101.44Q601.92 101.44 599.29 98.96Q596.66 96.47 596.66 91.79L596.66 91.79Q596.66 90.42 596.88 89.06L596.88 89.06L602.86 46.43L616.97 44.99ZM621.86 61.55L635.83 61.55L630.50 100L616.54 100L621.86 61.55ZM629.86 55.58Q626.69 55.58 624.78 53.70Q622.87 51.83 622.87 48.88L622.87 48.88Q622.87 45.21 625.43 42.76Q627.98 40.31 631.73 40.31L631.73 40.31Q634.90 40.31 636.80 42.18Q638.71 44.06 638.71 47.01L638.71 47.01Q638.71 50.68 636.16 53.13Q633.60 55.58 629.86 55.58L629.86 55.58ZM659.66 60.11Q663.55 60.11 666.86 61.48Q670.18 62.85 672.62 65.44L672.62 65.44L665.93 73.43Q663.12 70.84 659.74 70.84L659.74 70.84Q655.27 70.84 653.44 75.05Q651.60 79.26 651.60 84.74L651.60 84.74Q651.60 87.98 652.90 89.20Q654.19 90.42 656.57 90.42L656.57 90.42Q658.22 90.42 659.74 89.85Q661.25 89.27 663.41 87.90L663.41 87.90L668.45 96.83Q662.04 101.44 654.55 101.44L654.55 101.44Q646.27 101.44 641.63 96.83Q636.98 92.22 636.98 84.38L636.98 84.38Q636.98 78.90 639.36 73.29Q641.74 67.67 646.85 63.89Q651.96 60.11 659.66 60.11L659.66 60.11Z"/></svg>