<svg xmlns="http://www.w3.org/2000/svg" viewBox="8.856000000000002 47.007999999999996 419.4000000000001 53.712"><path d="M11 100L9 100L9 51L32 51L31 52L11 52L11 74L29 74L29 76L11 76L11 100ZM42 63L44 63L44 100L42 100L42 63ZM43 48Q44 48 44 48Q45 49 45 49L45 49Q45 50 44 50Q44 51 43 51L43 51Q43 51 42 50Q42 50 42 49L42 49Q42 49 42 48Q43 48 43 48L43 48ZM74 62Q76 62 77 62L77 62L77 64Q75 63 74 63L74 63Q70 63 67 66Q64 69 63 75L63 75L63 100L61 100L61 63L62 63L62 72Q64 67 67 64Q69 62 74 62L74 62ZM108 92Q108 96 109 97Q110 99 111 100L111 100L111 101Q109 100 108 98Q107 97 107 93L107 93Q103 101 95 101L95 101Q89 101 86 98Q83 95 83 90L83 90Q83 84 87 81Q91 78 98 78L98 78L106 78L106 73Q106 68 104 66Q102 63 97 63L97 63Q92 63 87 66L87 66L86 64Q92 62 97 62L97 62Q103 62 105 65Q108 68 108 73L108 73L108 92ZM95 99Q99 99 102 97Q105 95 106 91L106 91L106 79L98 79Q92 79 89 82Q85 85 85 90L85 90Q85 94 88 97Q90 99 95 99L95 99ZM157 50Q161 50 164 51Q167 53 170 55L170 55L169 56Q166 54 163 53Q161 52 157 52L157 52Q152 52 149 54Q145 57 145 62L145 62Q145 65 146 67Q148 68 150 70Q153 71 158 73L158 73Q163 74 166 76Q169 78 170 80Q171 83 171 87L171 87Q171 91 170 94Q168 97 164 99Q161 101 156 101L156 101Q152 101 148 99Q145 98 142 95L142 95L143 94Q146 96 149 98Q152 99 156 99L156 99Q162 99 166 96Q170 93 170 87L170 87Q170 83 169 81Q167 79 165 77Q162 76 157 74L157 74Q152 73 149 71Q146 69 145 67Q144 65 144 62L144 62Q144 58 145 56Q147 53 150 52Q153 50 157 50L157 50ZM206 92Q206 96 207 97Q208 99 209 100L209 100L209 101Q207 100 206 98Q205 97 205 93L205 93Q201 101 192 101L192 101Q187 101 184 98Q181 95 181 90L181 90Q181 84 185 81Q189 78 196 78L196 78L204 78L204 73Q204 68 202 66Q200 63 195 63L195 63Q190 63 185 66L185 66L184 64Q190 62 195 62L195 62Q201 62 203 65Q206 68 206 73L206 73L206 92ZM192 99Q197 99 200 97Q202 95 204 91L204 91L204 79L196 79Q190 79 186 82Q183 85 183 90L183 90Q183 94 186 97Q188 99 192 99L192 99ZM238 62Q243 62 246 65Q248 68 248 73L248 73L248 100L247 100L247 74Q247 63 238 63L238 63Q234 63 231 66Q227 68 225 72L225 72L225 100L223 100L223 63L224 63L224 70Q230 62 238 62L238 62ZM273 62Q276 62 279 63Q281 64 284 66L284 66L283 67Q280 65 278 64Q276 63 273 63L273 63Q269 63 266 65Q263 68 263 71L263 71Q263 74 265 76Q268 78 273 79L273 79Q278 81 280 82Q283 83 284 85Q285 87 285 90L285 90Q285 95 282 98Q278 101 273 101L273 101Q269 101 266 99Q263 98 260 96L260 96L261 95Q264 97 266 98Q269 99 273 99L273 99Q277 99 280 97Q283 95 283 90L283 90Q283 88 282 86Q281 84 279 83Q277 82 273 81L273 81Q267 79 264 77Q261 75 261 71L261 71Q261 67 265 65Q268 62 273 62L273 62ZM333 97L334 99Q331 101 327 101L327 101Q323 101 321 98Q319 96 319 92L319 92L319 64L313 64L313 63L319 63L319 53L320 53L320 63L331 63L330 64L320 64L320 92Q320 95 322 97Q324 99 327 99L327 99Q330 99 333 97L333 97ZM358 62Q363 62 365 65Q368 68 368 73L368 73L368 100L366 100L366 74Q366 63 358 63L358 63Q354 63 350 66Q347 68 344 72L344 72L344 100L343 100L343 47L344 47L344 70Q350 62 358 62L358 62ZM384 63L386 63L386 100L384 100L384 63ZM385 48Q386 48 386 48Q387 49 387 49L387 49Q387 50 386 50Q386 51 385 51L385 51Q385 51 384 50Q384 50 384 49L384 49Q384 49 384 48Q385 48 385 48L385 48ZM418 62Q423 62 426 65Q428 68 428 73L428 73L428 100L427 100L427 74Q427 63 418 63L418 63Q414 63 411 66Q407 68 405 72L405 72L405 100L403 100L403 63L404 63L404 70Q410 62 418 62L418 62Z"/></svg>