<svg xmlns="http://www.w3.org/2000/svg" viewBox="5.832000000000001 42.61599999999999 570.8159999999999 58.464000000000006"><path d="M15 100L6 100L6 50L34 50L33 57L15 57L15 72L31 72L31 79L15 79L15 100ZM41 62L50 62L50 100L41 100L41 62ZM45 43Q48 43 50 44Q51 46 51 48L51 48Q51 51 50 52Q48 54 45 54L45 54Q43 54 41 52Q40 51 40 48L40 48Q40 46 41 44Q43 43 45 43L45 43ZM80 61Q82 61 84 61L84 61L82 70Q80 70 79 70L79 70Q75 70 73 72Q71 75 70 80L70 80L70 100L61 100L61 62L69 62L70 69Q71 65 74 63Q76 61 80 61L80 61ZM118 90Q118 92 118 93Q119 94 120 95L120 95L119 101Q115 101 113 99Q111 98 110 95L110 95Q108 98 105 100Q102 101 99 101L99 101Q93 101 90 98Q86 95 86 89L86 89Q86 83 91 80Q95 77 104 77L104 77L109 77L109 74Q109 71 107 69Q105 68 101 68L101 68Q97 68 91 70L91 70L89 64Q96 61 103 61L103 61Q118 61 118 74L118 74L118 90ZM101 94Q106 94 109 90L109 90L109 82L105 82Q96 82 96 89L96 89Q96 91 97 93Q98 94 101 94L101 94ZM161 49Q167 49 170 51Q174 52 178 55L178 55L173 61Q170 58 168 57Q165 56 162 56L162 56Q158 56 156 58Q154 60 154 62L154 62Q154 64 155 65Q156 67 158 68Q160 69 164 70L164 70Q172 72 176 76Q179 79 179 86L179 86Q179 90 177 94Q175 97 170 99Q166 101 160 101L160 101Q155 101 150 99Q146 97 142 94L142 94L147 89Q150 91 153 92Q156 94 160 94L160 94Q164 94 167 92Q169 90 169 86L169 86Q169 84 168 83Q168 81 165 80Q163 79 159 78L159 78Q151 75 148 72Q144 69 144 63L144 63Q144 59 147 56Q149 53 153 51Q156 49 161 49L161 49ZM215 90Q215 92 216 93Q217 94 218 95L218 95L216 101Q213 101 211 99Q209 98 208 95L208 95Q206 98 203 100Q200 101 196 101L196 101Q191 101 187 98Q184 95 184 89L184 89Q184 83 189 80Q193 77 201 77L201 77L206 77L206 74Q206 71 204 69Q203 68 199 68L199 68Q195 68 189 70L189 70L187 64Q194 61 201 61L201 61Q215 61 215 74L215 74L215 90ZM199 94Q203 94 206 90L206 90L206 82L202 82Q193 82 193 89L193 89Q193 91 195 93Q196 94 199 94L199 94ZM247 61Q252 61 255 64Q257 67 257 72L257 72L257 100L248 100L248 74Q248 70 247 69Q246 68 244 68L244 68Q241 68 239 69Q237 71 236 74L236 74L236 100L226 100L226 62L234 62L235 67Q240 61 247 61L247 61ZM280 61Q288 61 294 65L294 65L290 71Q285 68 281 68L281 68Q278 68 276 69Q275 70 275 71L275 71Q275 73 275 74Q276 75 278 75Q280 76 283 77L283 77Q289 79 292 81Q295 84 295 89L295 89Q295 95 290 98Q286 101 279 101L279 101Q274 101 270 100Q267 98 264 96L264 96L268 90Q273 94 279 94L279 94Q282 94 284 93Q285 92 285 90L285 90Q285 88 285 87Q284 86 282 85Q281 85 277 83L277 83Q271 82 268 79Q266 76 266 72L266 72Q266 69 267 66Q269 64 273 62Q276 61 280 61L280 61ZM361 61Q365 61 368 64Q371 67 371 72L371 72L371 100L362 100L362 74Q362 68 358 68L358 68Q355 68 354 69Q352 71 350 74L350 74L350 100L341 100L341 74Q341 68 337 68L337 68Q335 68 333 69Q331 71 330 74L330 74L330 100L320 100L320 62L328 62L329 67Q334 61 340 61L340 61Q344 61 346 63Q348 64 349 67L349 67Q352 64 354 62Q357 61 361 61L361 61ZM413 80Q413 81 413 84L413 84L389 84Q389 89 392 92Q394 94 398 94L398 94Q401 94 403 93Q405 92 408 91L408 91L411 96Q405 101 397 101L397 101Q389 101 384 96Q379 90 379 81L379 81Q379 75 381 71Q383 66 387 63Q391 61 396 61L396 61Q404 61 409 66Q413 71 413 80L413 80ZM404 78L404 77Q404 67 396 67L396 67Q393 67 391 70Q389 72 389 78L389 78L404 78ZM444 46L453 47L453 100L445 100L444 95Q443 98 440 99Q437 101 434 101L434 101Q427 101 423 96Q419 90 419 81L419 81Q419 75 421 71Q423 66 426 63Q430 61 434 61L434 61Q440 61 444 65L444 65L444 46ZM436 94Q439 94 440 93Q442 92 444 89L444 89L444 72Q442 70 441 69Q439 68 437 68L437 68Q433 68 431 71Q429 74 429 81L429 81Q429 88 431 91Q433 94 436 94L436 94ZM464 62L474 62L474 100L464 100L464 62ZM469 43Q471 43 473 44Q475 46 475 48L475 48Q475 51 473 52Q471 54 469 54L469 54Q466 54 465 52Q463 51 463 48L463 48Q463 46 465 44Q466 43 469 43L469 43ZM515 62L515 100L507 100L507 95Q505 98 502 99Q499 101 495 101L495 101Q490 101 487 98Q484 95 484 89L484 89L484 62L493 62L493 88Q493 91 495 93Q496 94 498 94L498 94Q503 94 506 89L506 89L506 62L515 62ZM567 61Q571 61 574 64Q577 67 577 72L577 72L577 100L567 100L567 74Q567 68 563 68L563 68Q561 68 559 69Q558 71 556 74L556 74L556 100L547 100L547 74Q547 68 543 68L543 68Q540 68 539 69Q537 71 535 74L535 74L535 100L526 100L526 62L534 62L535 67Q539 61 546 61L546 61Q549 61 552 63Q554 64 555 67L555 67Q557 64 560 62Q563 61 567 61L567 61Z"/></svg>