<svg xmlns="http://www.w3.org/2000/svg" viewBox="0.62 -7.8 40.35 7.92"><path d="M1.59-6.89L5.21-6.89L5-6.13L2.42-6.13L2.09-3.78L4.32-3.78L4.22-3.03L1.99-3.03L1.56 0L0.62 0L1.59-6.89ZM6.16-5.27L7.07-5.27L6.33 0L5.42 0L6.16-5.27ZM6.83-6.55Q6.56-6.55 6.40-6.71Q6.24-6.88 6.24-7.12L6.24-7.12Q6.24-7.41 6.44-7.61Q6.64-7.80 6.93-7.80L6.93-7.80Q7.20-7.80 7.36-7.64Q7.52-7.48 7.52-7.23L7.52-7.23Q7.52-6.94 7.32-6.75Q7.12-6.55 6.83-6.55L6.83-6.55ZM11.20-5.39Q11.45-5.39 11.73-5.32L11.73-5.32L11.46-4.43Q11.27-4.48 11.03-4.48L11.03-4.48Q10.54-4.48 10.18-4.05Q9.81-3.63 9.52-2.79L9.52-2.79L9.12 0L8.21 0L8.95-5.27L9.73-5.27L9.67-4.19Q9.96-4.79 10.36-5.09Q10.75-5.39 11.20-5.39L11.20-5.39ZM14.76-5.39Q15.25-5.39 15.70-5.28Q16.14-5.17 16.61-4.94L16.61-4.94L16.07-1.20Q16.05-1.04 16.05-0.98L16.05-0.98Q16.05-0.80 16.13-0.69Q16.20-0.58 16.39-0.51L16.39-0.51L16.13 0.12Q15.71 0.07 15.48-0.14Q15.25-0.35 15.20-0.76L15.20-0.76Q14.88-0.35 14.48-0.12Q14.08 0.12 13.63 0.12L13.63 0.12Q12.83 0.12 12.39-0.43Q11.95-0.98 11.95-1.90L11.95-1.90Q11.95-2.70 12.25-3.50Q12.54-4.30 13.17-4.84Q13.80-5.39 14.76-5.39L14.76-5.39ZM14.78-4.66Q14.15-4.66 13.74-4.24Q13.32-3.81 13.13-3.18Q12.93-2.54 12.93-1.89L12.93-1.89Q12.93-1.24 13.16-0.93Q13.39-0.61 13.82-0.61L13.82-0.61Q14.23-0.61 14.56-0.86Q14.88-1.11 15.23-1.58L15.23-1.58L15.64-4.49Q15.43-4.58 15.24-4.62Q15.04-4.66 14.78-4.66L14.78-4.66ZM22.97-7.01Q23.62-7.01 24.11-6.80Q24.60-6.59 25-6.18L25-6.18L24.41-5.63Q24.09-5.95 23.75-6.09Q23.40-6.23 22.97-6.23L22.97-6.23Q22.36-6.23 21.96-5.93Q21.56-5.63 21.56-5.11L21.56-5.11Q21.56-4.71 21.83-4.47Q22.10-4.23 22.85-3.98L22.85-3.98Q23.71-3.71 24.18-3.30Q24.65-2.89 24.65-2.09L24.65-2.09Q24.65-1.53 24.36-1.02Q24.06-0.52 23.46-0.20Q22.85 0.12 21.95 0.12L21.95 0.12Q20.53 0.12 19.72-0.80L19.72-0.80L20.32-1.36Q20.64-1.01 21.04-0.83Q21.44-0.66 21.97-0.66L21.97-0.66Q22.74-0.66 23.21-1.03Q23.67-1.41 23.67-2.04L23.67-2.04Q23.67-2.48 23.39-2.73Q23.12-2.99 22.40-3.24L22.40-3.24Q21.46-3.57 21.03-3.97Q20.60-4.36 20.60-5.06L20.60-5.06Q20.60-5.53 20.88-5.98Q21.16-6.43 21.70-6.72Q22.23-7.01 22.97-7.01L22.97-7.01ZM28.43-5.39Q28.92-5.39 29.37-5.28Q29.81-5.17 30.28-4.94L30.28-4.94L29.74-1.20Q29.72-1.04 29.72-0.98L29.72-0.98Q29.72-0.80 29.80-0.69Q29.87-0.58 30.06-0.51L30.06-0.51L29.80 0.12Q29.38 0.07 29.15-0.14Q28.92-0.35 28.87-0.76L28.87-0.76Q28.55-0.35 28.15-0.12Q27.75 0.12 27.30 0.12L27.30 0.12Q26.50 0.12 26.06-0.43Q25.62-0.98 25.62-1.90L25.62-1.90Q25.62-2.70 25.92-3.50Q26.21-4.30 26.84-4.84Q27.47-5.39 28.43-5.39L28.43-5.39ZM28.45-4.66Q27.82-4.66 27.41-4.24Q26.99-3.81 26.80-3.18Q26.60-2.54 26.60-1.89L26.60-1.89Q26.60-1.24 26.83-0.93Q27.06-0.61 27.49-0.61L27.49-0.61Q27.90-0.61 28.23-0.86Q28.55-1.11 28.90-1.58L28.90-1.58L29.31-4.49Q29.10-4.58 28.91-4.62Q28.71-4.66 28.45-4.66L28.45-4.66ZM34.65-5.39Q35.23-5.39 35.57-5.04Q35.90-4.68 35.90-4.06L35.90-4.06Q35.90-3.90 35.87-3.70L35.87-3.70L35.35 0L34.44 0L34.96-3.68Q34.98-3.90 34.98-3.97L34.98-3.97Q34.98-4.32 34.83-4.47Q34.68-4.62 34.40-4.62L34.40-4.62Q33.94-4.62 33.52-4.21Q33.09-3.80 32.73-3.16L32.73-3.16L32.29 0L31.38 0L32.12-5.27L32.90-5.27L32.82-4.24Q33.21-4.79 33.66-5.09Q34.11-5.39 34.65-5.39L34.65-5.39ZM39.24-5.39Q40.24-5.39 40.97-4.74L40.97-4.74L40.52-4.19Q39.93-4.66 39.23-4.66L39.23-4.66Q38.75-4.66 38.46-4.47Q38.18-4.28 38.18-3.95L38.18-3.95Q38.18-3.65 38.41-3.49Q38.65-3.33 39.24-3.15L39.24-3.15Q40.01-2.91 40.37-2.54Q40.73-2.18 40.73-1.57L40.73-1.57Q40.73-1.01 40.42-0.63Q40.11-0.25 39.62-0.07Q39.12 0.12 38.54 0.12L38.54 0.12Q37.37 0.12 36.59-0.64L36.59-0.64L37.11-1.17Q37.76-0.62 38.58-0.62L38.58-0.62Q39.21-0.62 39.49-0.89Q39.77-1.15 39.77-1.48L39.77-1.48Q39.77-1.75 39.67-1.91Q39.57-2.07 39.34-2.19Q39.10-2.31 38.66-2.45L38.66-2.45Q37.90-2.68 37.58-3.02Q37.25-3.35 37.25-3.89L37.25-3.89Q37.25-4.26 37.47-4.61Q37.69-4.95 38.14-5.17Q38.59-5.39 39.24-5.39L39.24-5.39Z"/></svg>