<svg xmlns="http://www.w3.org/2000/svg" viewBox="0.81 -7.97 40.160000000000004 8.12"><path d="M2.13 0L0.81 0L0.81-6.91L4.72-6.91L4.58-5.93L2.13-5.93L2.13-3.86L4.26-3.86L4.26-2.88L2.13-2.88L2.13 0ZM5.66-5.29L6.94-5.29L6.94 0L5.66 0L5.66-5.29ZM6.29-7.97Q6.65-7.97 6.88-7.75Q7.10-7.52 7.10-7.19L7.10-7.19Q7.10-6.86 6.88-6.64Q6.65-6.42 6.29-6.42L6.29-6.42Q5.94-6.42 5.71-6.64Q5.49-6.86 5.49-7.19L5.49-7.19Q5.49-7.52 5.71-7.75Q5.94-7.97 6.29-7.97L6.29-7.97ZM11.09-5.43Q11.38-5.43 11.62-5.36L11.62-5.36L11.40-4.12Q11.16-4.18 10.93-4.18L10.93-4.18Q10.46-4.18 10.19-3.85Q9.92-3.51 9.76-2.82L9.76-2.82L9.76 0L8.48 0L8.48-5.29L9.59-5.29L9.71-4.25Q9.90-4.82 10.26-5.13Q10.62-5.43 11.09-5.43L11.09-5.43ZM16.33-1.40Q16.33-1.09 16.42-0.95Q16.52-0.80 16.73-0.72L16.73-0.72L16.46 0.13Q16.01 0.09 15.72-0.09Q15.44-0.27 15.29-0.64L15.29-0.64Q15.02-0.24 14.61-0.04Q14.21 0.15 13.71 0.15L13.71 0.15Q12.92 0.15 12.46-0.30Q12.00-0.75 12.00-1.48L12.00-1.48Q12.00-2.34 12.62-2.79Q13.25-3.25 14.41-3.25L14.41-3.25L15.07-3.25L15.07-3.55Q15.07-4.06 14.83-4.26Q14.60-4.47 14.08-4.47L14.08-4.47Q13.50-4.47 12.68-4.19L12.68-4.19L12.38-5.06Q13.37-5.44 14.30-5.44L14.30-5.44Q16.33-5.44 16.33-3.62L16.33-3.62L16.33-1.40ZM14.05-0.78Q14.70-0.78 15.07-1.43L15.07-1.43L15.07-2.50L14.54-2.50Q13.30-2.50 13.30-1.58L13.30-1.58Q13.30-1.20 13.49-0.99Q13.68-0.78 14.05-0.78L14.05-0.78ZM22.41-7.06Q23.14-7.06 23.68-6.85Q24.22-6.64 24.69-6.21L24.69-6.21L24.04-5.46Q23.67-5.77 23.29-5.91Q22.92-6.05 22.49-6.05L22.49-6.05Q22.01-6.05 21.71-5.83Q21.42-5.62 21.42-5.23L21.42-5.23Q21.42-4.97 21.54-4.80Q21.65-4.63 21.95-4.48Q22.25-4.33 22.84-4.15L22.84-4.15Q23.86-3.83 24.38-3.35Q24.89-2.88 24.89-1.97L24.89-1.97Q24.89-1.35 24.57-0.87Q24.26-0.39 23.67-0.12Q23.08 0.15 22.27 0.15L22.27 0.15Q21.48 0.15 20.86-0.10Q20.23-0.36 19.78-0.80L19.78-0.80L20.46-1.56Q20.86-1.22 21.29-1.04Q21.72-0.87 22.24-0.87L22.24-0.87Q22.81-0.87 23.16-1.14Q23.51-1.41 23.51-1.90L23.51-1.90Q23.51-2.20 23.39-2.40Q23.27-2.59 22.98-2.75Q22.69-2.90 22.14-3.07L22.14-3.07Q21.04-3.41 20.55-3.89Q20.06-4.37 20.06-5.15L20.06-5.15Q20.06-5.72 20.36-6.15Q20.66-6.58 21.20-6.82Q21.73-7.06 22.41-7.06L22.41-7.06ZM29.89-1.40Q29.89-1.09 29.98-0.95Q30.08-0.80 30.29-0.72L30.29-0.72L30.02 0.13Q29.57 0.09 29.29-0.09Q29-0.27 28.85-0.64L28.85-0.64Q28.58-0.24 28.18-0.04Q27.77 0.15 27.27 0.15L27.27 0.15Q26.48 0.15 26.02-0.30Q25.56-0.75 25.56-1.48L25.56-1.48Q25.56-2.34 26.19-2.79Q26.81-3.25 27.97-3.25L27.97-3.25L28.63-3.25L28.63-3.55Q28.63-4.06 28.39-4.26Q28.16-4.47 27.64-4.47L27.64-4.47Q27.06-4.47 26.24-4.19L26.24-4.19L25.94-5.06Q26.93-5.44 27.86-5.44L27.86-5.44Q29.89-5.44 29.89-3.62L29.89-3.62L29.89-1.40ZM27.61-0.78Q28.26-0.78 28.63-1.43L28.63-1.43L28.63-2.50L28.10-2.50Q26.86-2.50 26.86-1.58L26.86-1.58Q26.86-1.20 27.05-0.99Q27.24-0.78 27.61-0.78L27.61-0.78ZM34.26-5.44Q34.97-5.44 35.37-5.01Q35.76-4.59 35.76-3.83L35.76-3.83L35.76 0L34.48 0L34.48-3.63Q34.48-4.10 34.32-4.29Q34.15-4.48 33.83-4.48L33.83-4.48Q33.50-4.48 33.23-4.28Q32.97-4.07 32.72-3.68L32.72-3.68L32.72 0L31.44 0L31.44-5.29L32.55-5.29L32.65-4.60Q33.30-5.44 34.26-5.44L34.26-5.44ZM38.92-5.44Q39.99-5.44 40.80-4.81L40.80-4.81L40.30-4.06Q39.62-4.49 38.97-4.49L38.97-4.49Q38.59-4.49 38.38-4.34Q38.17-4.20 38.17-3.96L38.17-3.96Q38.17-3.78 38.26-3.66Q38.35-3.54 38.59-3.44Q38.82-3.33 39.28-3.20L39.28-3.20Q40.14-2.97 40.56-2.59Q40.97-2.21 40.97-1.53L40.97-1.53Q40.97-0.74 40.33-0.29Q39.69 0.15 38.74 0.15L38.74 0.15Q38.09 0.15 37.56-0.05Q37.02-0.25 36.63-0.60L36.63-0.60L37.27-1.32Q37.96-0.80 38.71-0.80L38.71-0.80Q39.14-0.80 39.40-0.97Q39.65-1.14 39.65-1.44L39.65-1.44Q39.65-1.67 39.56-1.80Q39.46-1.94 39.22-2.04Q38.97-2.15 38.45-2.30L38.45-2.30Q37.64-2.52 37.26-2.92Q36.88-3.31 36.88-3.90L36.88-3.90Q36.88-4.34 37.14-4.69Q37.39-5.04 37.86-5.24Q38.32-5.44 38.92-5.44L38.92-5.44Z"/></svg>