<svg xmlns="http://www.w3.org/2000/svg" viewBox="8.280000000000001 46.431999999999995 625.248 68.184"><path d="M11.66 100L8.28 100L8.28 50.75L32.26 50.75L31.82 53.70L11.66 53.70L11.66 73.79L29.09 73.79L29.09 76.67L11.66 76.67L11.66 100ZM42.26 62.42L45.58 62.42L45.58 100L42.26 100L42.26 62.42ZM43.92 46.43Q45.07 46.43 45.79 47.15Q46.51 47.87 46.51 48.95L46.51 48.95Q46.51 50.03 45.79 50.75Q45.07 51.47 43.92 51.47L43.92 51.47Q42.77 51.47 42.05 50.75Q41.33 50.03 41.33 48.95L41.33 48.95Q41.33 47.87 42.05 47.15Q42.77 46.43 43.92 46.43L43.92 46.43ZM75.31 61.70Q77.76 61.70 79.06 62.13L79.06 62.13L78.41 65.22Q76.97 64.79 75.10 64.79L75.10 64.79Q71.14 64.79 68.72 67.64Q66.31 70.48 64.73 76.53L64.73 76.53L64.73 100L61.42 100L61.42 62.42L64.30 62.42L64.51 71.13Q66.02 66.30 68.65 64.00Q71.28 61.70 75.31 61.70L75.31 61.70ZM110.66 91.86Q110.66 95.03 111.42 96.40Q112.18 97.77 113.83 98.42L113.83 98.42L113.04 100.79Q110.59 100.14 109.33 98.63Q108.07 97.12 107.78 94.17L107.78 94.17Q103.68 100.79 95.90 100.79L95.90 100.79Q90.58 100.79 87.48 97.73Q84.38 94.67 84.38 89.56L84.38 89.56Q84.38 83.80 88.49 80.67Q92.59 77.54 99.65 77.54L99.65 77.54L107.35 77.54L107.35 73.58Q107.35 68.90 105.26 66.74Q103.18 64.58 98.35 64.58L98.35 64.58Q93.82 64.58 88.13 66.81L88.13 66.81L87.19 64.14Q93.46 61.70 98.64 61.70L98.64 61.70Q104.83 61.70 107.75 64.65Q110.66 67.60 110.66 73.36L110.66 73.36L110.66 91.86ZM96.34 97.98Q103.61 97.98 107.35 90.86L107.35 90.86L107.35 80.13L100.15 80.13Q94.25 80.13 91.08 82.47Q87.91 84.81 87.91 89.49L87.91 89.49Q87.91 93.52 90.14 95.75Q92.38 97.98 96.34 97.98L96.34 97.98ZM158.11 50.03Q162.58 50.03 165.71 51.36Q168.84 52.70 171.86 55.36L171.86 55.36L169.85 57.59Q167.04 55.14 164.34 54.06Q161.64 52.98 158.18 52.98L158.18 52.98Q153.36 52.98 150.44 55.40Q147.53 57.81 147.53 61.77L147.53 61.77Q147.53 64.50 148.64 66.30Q149.76 68.10 152.24 69.47Q154.73 70.84 159.26 72.21L159.26 72.21Q164.23 73.72 167.26 75.45Q170.28 77.18 171.83 79.88Q173.38 82.58 173.38 86.68L173.38 86.68Q173.38 90.78 171.40 94.02Q169.42 97.26 165.82 99.03Q162.22 100.79 157.54 100.79L157.54 100.79Q152.78 100.79 149.04 99.21Q145.30 97.62 142.13 94.67L142.13 94.67L144.14 92.44Q147.10 95.10 150.19 96.44Q153.29 97.77 157.46 97.77L157.46 97.77Q163.01 97.77 166.46 94.82Q169.92 91.86 169.92 86.75L169.92 86.75Q169.92 83.58 168.77 81.53Q167.62 79.48 165.06 78.00Q162.50 76.53 157.90 75.09L157.90 75.09Q150.34 72.78 147.20 69.83Q144.07 66.88 144.07 61.84L144.07 61.84Q144.07 58.46 145.84 55.79Q147.60 53.13 150.80 51.58Q154.01 50.03 158.11 50.03L158.11 50.03ZM208.22 91.86Q208.22 95.03 208.98 96.40Q209.74 97.77 211.39 98.42L211.39 98.42L210.60 100.79Q208.15 100.14 206.89 98.63Q205.63 97.12 205.34 94.17L205.34 94.17Q201.24 100.79 193.46 100.79L193.46 100.79Q188.14 100.79 185.04 97.73Q181.94 94.67 181.94 89.56L181.94 89.56Q181.94 83.80 186.05 80.67Q190.15 77.54 197.21 77.54L197.21 77.54L204.91 77.54L204.91 73.58Q204.91 68.90 202.82 66.74Q200.74 64.58 195.91 64.58L195.91 64.58Q191.38 64.58 185.69 66.81L185.69 66.81L184.75 64.14Q191.02 61.70 196.20 61.70L196.20 61.70Q202.39 61.70 205.31 64.65Q208.22 67.60 208.22 73.36L208.22 73.36L208.22 91.86ZM193.90 97.98Q201.17 97.98 204.91 90.86L204.91 90.86L204.91 80.13L197.71 80.13Q191.81 80.13 188.64 82.47Q185.47 84.81 185.47 89.49L185.47 89.49Q185.47 93.52 187.70 95.75Q189.94 97.98 193.90 97.98L193.90 97.98ZM240.19 61.70Q245.30 61.70 247.90 64.68Q250.49 67.67 250.49 73.22L250.49 73.22L250.49 100L247.18 100L247.18 73.65Q247.18 68.90 245.30 66.66Q243.43 64.43 239.69 64.43L239.69 64.43Q235.87 64.43 232.92 66.52Q229.97 68.61 227.30 72.57L227.30 72.57L227.30 100L223.99 100L223.99 62.42L226.87 62.42L227.16 69.11Q232.49 61.70 240.19 61.70L240.19 61.70ZM274.82 61.70Q278.21 61.70 280.98 62.70Q283.75 63.71 286.49 65.80L286.49 65.80L284.83 68.03Q282.31 66.16 280.04 65.33Q277.78 64.50 274.90 64.50L274.90 64.50Q270.94 64.50 268.49 66.34Q266.04 68.18 266.04 71.34L266.04 71.34Q266.04 74.22 268.13 75.81Q270.22 77.39 275.54 78.83L275.54 78.83Q282.02 80.56 284.76 82.97Q287.50 85.38 287.50 90.06L287.50 90.06Q287.50 94.96 283.79 97.88Q280.08 100.79 274.39 100.79L274.39 100.79Q270.14 100.79 267.05 99.53Q263.95 98.27 261.22 95.97L261.22 95.97L263.09 93.81Q265.68 95.90 268.27 96.90Q270.86 97.91 274.32 97.91L274.32 97.91Q278.64 97.91 281.34 95.86Q284.04 93.81 284.04 90.14L284.04 90.14Q284.04 87.69 283.18 86.18Q282.31 84.66 280.15 83.62Q277.99 82.58 273.89 81.42L273.89 81.42Q267.84 79.84 265.25 77.54Q262.66 75.23 262.66 71.34L262.66 71.34Q262.66 67.10 266.11 64.40Q269.57 61.70 274.82 61.70L274.82 61.70ZM345.74 79.70Q345.74 81.21 345.60 82.65L345.60 82.65L320.11 82.65Q320.47 90.35 323.78 94.10Q327.10 97.84 332.42 97.84L332.42 97.84Q335.45 97.84 337.75 96.94Q340.06 96.04 342.65 94.02L342.65 94.02L344.30 96.18Q341.57 98.49 338.69 99.64Q335.81 100.79 332.28 100.79L332.28 100.79Q325.01 100.79 320.83 95.68Q316.66 90.57 316.66 81.50L316.66 81.50Q316.66 75.52 318.46 71.02Q320.26 66.52 323.60 64.11Q326.95 61.70 331.42 61.70L331.42 61.70Q338.40 61.70 342.07 66.52Q345.74 71.34 345.74 79.70L345.74 79.70ZM342.50 79.98L342.50 78.62Q342.50 72.06 339.77 68.28Q337.03 64.50 331.56 64.50L331.56 64.50Q326.66 64.50 323.53 68.36Q320.40 72.21 320.11 79.98L320.11 79.98L342.50 79.98ZM379.94 62.42L368.35 79.84L381.67 100L377.71 100L366.26 82L354.89 100L351.07 100L364.32 79.98L352.80 62.42L356.69 62.42L366.41 77.90L376.13 62.42L379.94 62.42ZM405.50 96.11L406.87 98.49Q403.27 100.79 399.10 100.79L399.10 100.79Q394.99 100.79 392.65 98.34Q390.31 95.90 390.31 91.14L390.31 91.14L390.31 65.22L384.05 65.22L384.05 62.42L390.31 62.42L390.31 53.27L393.62 52.91L393.62 62.42L403.56 62.42L403.13 65.22L393.62 65.22L393.62 90.93Q393.62 97.84 399.46 97.84L399.46 97.84Q402.48 97.84 405.50 96.11L405.50 96.11ZM428.40 61.70Q430.85 61.70 432.14 62.13L432.14 62.13L431.50 65.22Q430.06 64.79 428.18 64.79L428.18 64.79Q424.22 64.79 421.81 67.64Q419.40 70.48 417.82 76.53L417.82 76.53L417.82 100L414.50 100L414.50 62.42L417.38 62.42L417.60 71.13Q419.11 66.30 421.74 64.00Q424.37 61.70 428.40 61.70L428.40 61.70ZM463.75 91.86Q463.75 95.03 464.51 96.40Q465.26 97.77 466.92 98.42L466.92 98.42L466.13 100.79Q463.68 100.14 462.42 98.63Q461.16 97.12 460.87 94.17L460.87 94.17Q456.77 100.79 448.99 100.79L448.99 100.79Q443.66 100.79 440.57 97.73Q437.47 94.67 437.47 89.56L437.47 89.56Q437.47 83.80 441.58 80.67Q445.68 77.54 452.74 77.54L452.74 77.54L460.44 77.54L460.44 73.58Q460.44 68.90 458.35 66.74Q456.26 64.58 451.44 64.58L451.44 64.58Q446.90 64.58 441.22 66.81L441.22 66.81L440.28 64.14Q446.54 61.70 451.73 61.70L451.73 61.70Q457.92 61.70 460.84 64.65Q463.75 67.60 463.75 73.36L463.75 73.36L463.75 91.86ZM449.42 97.98Q456.70 97.98 460.44 90.86L460.44 90.86L460.44 80.13L453.24 80.13Q447.34 80.13 444.17 82.47Q441.00 84.81 441.00 89.49L441.00 89.49Q441.00 93.52 443.23 95.75Q445.46 97.98 449.42 97.98L449.42 97.98ZM505.80 100.79Q502.92 100.79 501.26 99.10Q499.61 97.41 499.61 94.10L499.61 94.10L499.61 47.08L502.92 46.65L502.92 93.95Q502.92 97.84 506.16 97.84L506.16 97.84Q507.46 97.84 508.82 97.34L508.82 97.34L509.76 99.86Q507.74 100.79 505.80 100.79L505.80 100.79ZM520.20 62.42L523.51 62.42L523.51 100L520.20 100L520.20 62.42ZM521.86 46.43Q523.01 46.43 523.73 47.15Q524.45 47.87 524.45 48.95L524.45 48.95Q524.45 50.03 523.73 50.75Q523.01 51.47 521.86 51.47L521.86 51.47Q520.70 51.47 519.98 50.75Q519.26 50.03 519.26 48.95L519.26 48.95Q519.26 47.87 519.98 47.15Q520.70 46.43 521.86 46.43L521.86 46.43ZM565.34 59.54L566.42 62.85Q563.18 63.86 556.20 63.93L556.20 63.93Q562.54 66.95 562.54 74.44L562.54 74.44Q562.54 79.98 558.94 83.33Q555.34 86.68 549.22 86.68L549.22 86.68Q546.48 86.68 544.25 85.89L544.25 85.89Q542.74 86.68 541.91 87.90Q541.08 89.13 541.08 90.50L541.08 90.50Q541.08 94.67 547.42 94.67L547.42 94.67L553.61 94.67Q559.01 94.67 562.18 97.23Q565.34 99.78 565.34 103.96L565.34 103.96Q565.34 109.07 561.38 111.84Q557.42 114.62 549.50 114.62L549.50 114.62Q541.30 114.62 537.66 112.13Q534.02 109.65 534.02 104.03L534.02 104.03L537.19 104.03Q537.26 106.91 538.42 108.57Q539.57 110.22 542.20 110.98Q544.82 111.74 549.50 111.74L549.50 111.74Q561.96 111.74 561.96 104.18L561.96 104.18Q561.96 101.08 559.62 99.35Q557.28 97.62 553.10 97.62L553.10 97.62L546.98 97.62Q542.59 97.62 540.22 95.79Q537.84 93.95 537.84 91.14L537.84 91.14Q537.84 87.47 541.94 84.88L541.94 84.88Q538.70 83.22 537.19 80.63Q535.68 78.04 535.68 74.22L535.68 74.22Q535.68 68.61 539.35 65.15Q543.02 61.70 549.14 61.70L549.14 61.70Q556.20 61.77 559.26 61.26Q562.32 60.76 565.34 59.54L565.34 59.54ZM549.22 64.36Q544.18 64.36 541.62 67.02Q539.06 69.69 539.06 74.22L539.06 74.22Q539.06 78.90 541.80 81.50Q544.54 84.09 549.14 84.09L549.14 84.09Q553.97 84.09 556.56 81.57Q559.15 79.05 559.15 74.37L559.15 74.37Q559.15 69.69 556.63 67.02Q554.11 64.36 549.22 64.36L549.22 64.36ZM591.34 61.70Q596.38 61.70 599.00 64.72Q601.63 67.74 601.63 73.22L601.63 73.22L601.63 100L598.32 100L598.32 73.65Q598.32 64.43 590.83 64.43L590.83 64.43Q587.02 64.43 584.06 66.56Q581.11 68.68 578.45 72.57L578.45 72.57L578.45 100L575.14 100L575.14 47.08L578.45 46.65L578.45 69.04Q583.78 61.70 591.34 61.70L591.34 61.70ZM632.16 96.11L633.53 98.49Q629.93 100.79 625.75 100.79L625.75 100.79Q621.65 100.79 619.31 98.34Q616.97 95.90 616.97 91.14L616.97 91.14L616.97 65.22L610.70 65.22L610.70 62.42L616.97 62.42L616.97 53.27L620.28 52.91L620.28 62.42L630.22 62.42L629.78 65.22L620.28 65.22L620.28 90.93Q620.28 97.84 626.11 97.84L626.11 97.84Q629.14 97.84 632.16 96.11L632.16 96.11Z"/></svg>