<svg xmlns="http://www.w3.org/2000/svg" viewBox="4.680000000000001 41.60799999999999 455.25600000000003 59.616000000000014"><path d="M16 100L5 100L5 50L34 50L33 59L16 59L16 72L31 72L31 80L16 80L16 100ZM40 62L51 62L51 100L40 100L40 62ZM45 42Q48 42 50 43Q52 45 52 48L52 48Q52 51 50 53Q48 55 45 55L45 55Q42 55 40 53Q38 51 38 48L38 48Q38 45 40 43Q42 42 45 42L45 42ZM81 61Q83 61 84 61L84 61L83 72Q80 72 79 72L79 72Q76 72 74 74Q72 76 71 81L71 81L71 100L60 100L60 62L70 62L71 69Q72 65 75 63Q77 61 81 61L81 61ZM119 89Q119 91 120 92Q120 93 122 94L122 94L119 101Q116 101 114 99Q111 98 110 95L110 95Q106 101 99 101L99 101Q93 101 89 98Q86 95 86 89L86 89Q86 83 91 80Q95 76 104 76L104 76L108 76L108 75Q108 71 106 70Q105 69 101 69L101 69Q100 69 97 69Q94 70 91 71L91 71L89 63Q92 62 96 61Q100 61 103 61L103 61Q111 61 115 64Q119 67 119 74L119 74L119 89ZM102 93Q106 93 108 89L108 89L108 83L105 83Q101 83 99 84Q97 85 97 88L97 88Q97 91 99 92Q100 93 102 93L102 93ZM161 49Q167 49 171 50Q175 52 179 55L179 55L173 62Q168 58 162 58L162 58Q159 58 157 59Q156 60 156 62L156 62Q156 64 156 65Q157 66 159 67Q161 68 165 69L165 69Q173 72 177 75Q180 79 180 85L180 85Q180 90 178 94Q175 97 171 99Q166 101 160 101L160 101Q154 101 150 99Q145 97 141 94L141 94L147 88Q150 90 153 91Q156 92 160 92L160 92Q164 92 166 91Q168 89 168 86L168 86Q168 84 167 83Q166 82 164 81Q162 80 159 79L159 79Q150 76 147 73Q143 69 143 63L143 63Q143 59 146 56Q148 52 152 51Q156 49 161 49L161 49ZM217 89Q217 91 217 92Q218 93 219 94L219 94L217 101Q213 101 211 99Q209 98 208 95L208 95Q204 101 196 101L196 101Q191 101 187 98Q184 95 184 89L184 89Q184 83 188 80Q193 76 202 76L202 76L206 76L206 75Q206 71 204 70Q203 69 199 69L199 69Q197 69 195 69Q192 70 189 71L189 71L187 63Q190 62 194 61Q198 61 201 61L201 61Q209 61 213 64Q217 67 217 74L217 74L217 89ZM200 93Q203 93 206 89L206 89L206 83L203 83Q199 83 197 84Q195 85 195 88L195 88Q195 91 196 92Q197 93 200 93L200 93ZM248 61Q253 61 256 64Q259 67 259 72L259 72L259 100L247 100L247 74Q247 71 247 70Q246 69 244 69L244 69Q240 69 237 74L237 74L237 100L226 100L226 62L236 62L237 66Q239 63 242 62Q245 61 248 61L248 61ZM281 61Q285 61 289 62Q292 63 295 65L295 65L291 72Q286 69 281 69L281 69Q279 69 278 69Q277 70 277 72L277 72Q277 73 277 73Q278 74 279 75Q281 75 285 76L285 76Q291 78 293 81Q296 84 296 89L296 89Q296 93 294 95Q292 98 288 100Q284 101 279 101L279 101Q275 101 270 100Q266 98 263 96L263 96L269 89Q274 93 279 93L279 93Q282 93 283 92Q285 91 285 89L285 89Q285 88 284 87Q283 87 282 86Q280 85 277 84L277 84Q271 83 268 80Q265 77 265 72L265 72Q265 69 267 66Q269 64 273 62Q276 61 281 61L281 61ZM341 61Q348 61 351 66Q355 71 355 81L355 81Q355 87 353 91Q351 96 348 99Q345 101 340 101L340 101Q337 101 334 100Q332 99 330 96L330 96L329 100L319 100L319 47L331 45L331 66Q332 63 335 62Q338 61 341 61L341 61ZM337 93Q343 93 343 81L343 81Q343 74 342 71Q340 69 337 69L337 69Q333 69 331 73L331 73L331 89Q332 91 333 92Q335 93 337 93L337 93ZM379 61Q388 61 393 66Q398 71 398 81L398 81Q398 87 395 92Q393 96 389 99Q385 101 379 101L379 101Q370 101 365 96Q360 90 360 81L360 81Q360 75 362 70Q365 66 369 63Q373 61 379 61L379 61ZM379 69Q375 69 374 72Q372 75 372 81L372 81Q372 87 374 90Q375 93 379 93L379 93Q382 93 384 90Q386 87 386 81L386 81Q386 75 384 72Q382 69 379 69L379 69ZM414 101Q409 101 407 98Q404 96 404 90L404 90L404 47L415 45L415 90Q415 92 417 92L417 92Q418 92 419 92L419 92L421 100Q418 101 414 101L414 101ZM449 45L460 47L460 100L450 100L449 96Q445 101 438 101L438 101Q431 101 428 96Q424 90 424 81L424 81Q424 75 426 70Q428 66 431 63Q435 61 439 61L439 61Q445 61 449 64L449 64L449 45ZM442 93Q446 93 449 89L449 89L449 72Q447 70 446 70Q444 69 443 69L443 69Q439 69 438 72Q436 75 436 81L436 81Q436 88 437 90Q439 93 442 93L442 93Z"/></svg>