<svg xmlns="http://www.w3.org/2000/svg" viewBox="0.86 -7.24 39.21 7.34"><path d="M1.82-6.81L4.98-6.81L4.92-6.60L2.02-6.60L1.59-3.56L4.10-3.56L4.07-3.35L1.56-3.35L1.09 0L0.86 0L1.82-6.81ZM6.26-5.19L6.48-5.19L5.74 0L5.52 0L6.26-5.19ZM6.62-6.85Q6.54-6.85 6.49-6.90Q6.44-6.94 6.44-7.02L6.44-7.02Q6.44-7.11 6.50-7.17Q6.56-7.24 6.65-7.24L6.65-7.24Q6.74-7.24 6.79-7.19Q6.84-7.14 6.84-7.06L6.84-7.06Q6.84-6.98 6.78-6.92Q6.72-6.85 6.62-6.85L6.62-6.85ZM10.62-5.29Q10.84-5.29 11.10-5.22L11.10-5.22L11.04-5.03Q10.84-5.09 10.62-5.09L10.62-5.09Q10.02-5.09 9.60-4.65Q9.17-4.20 8.78-3.24L8.78-3.24L8.32 0L8.10 0L8.84-5.19L9.03-5.19L8.82-3.71Q9.14-4.51 9.57-4.90Q10-5.29 10.62-5.29L10.62-5.29ZM14.19-5.29Q14.63-5.29 14.97-5.19Q15.31-5.08 15.64-4.88L15.64-4.88L15.10-1.12Q15.06-0.80 15.06-0.68L15.06-0.68Q15.06-0.45 15.14-0.30Q15.22-0.15 15.42-0.07L15.42-0.07L15.35 0.10Q15.10 0 14.98-0.18Q14.86-0.37 14.86-0.68L14.86-0.68Q14.86-0.75 14.88-0.97L14.88-0.97Q14.57-0.47 14.13-0.18Q13.69 0.10 13.19 0.10L13.19 0.10Q12.44 0.10 12.02-0.43Q11.59-0.97 11.59-1.90L11.59-1.90Q11.59-2.68 11.86-3.46Q12.12-4.24 12.71-4.76Q13.29-5.29 14.19-5.29L14.19-5.29ZM14.19-5.10Q13.37-5.10 12.84-4.60Q12.30-4.10 12.05-3.37Q11.81-2.63 11.81-1.91L11.81-1.91Q11.81-1.06 12.17-0.58Q12.53-0.11 13.19-0.11L13.19-0.11Q14.21-0.11 14.91-1.35L14.91-1.35L15.40-4.77Q14.87-5.10 14.19-5.10L14.19-5.10ZM22.59-6.91Q23.15-6.91 23.55-6.73Q23.96-6.55 24.30-6.21L24.30-6.21L24.16-6.06Q23.83-6.40 23.46-6.55Q23.09-6.71 22.59-6.71L22.59-6.71Q22.01-6.71 21.60-6.50Q21.18-6.30 20.96-5.96Q20.75-5.61 20.75-5.21L20.75-5.21Q20.75-4.66 21.09-4.36Q21.42-4.05 22.25-3.79L22.25-3.79Q23.13-3.50 23.53-3.10Q23.93-2.69 23.93-2L23.93-2Q23.93-1.51 23.68-1.02Q23.43-0.54 22.90-0.22Q22.36 0.10 21.57 0.10L21.57 0.10Q20.93 0.10 20.47-0.11Q20.01-0.32 19.63-0.73L19.63-0.73L19.78-0.87Q20.13-0.50 20.55-0.31Q20.97-0.12 21.56-0.12L21.56-0.12Q22.31-0.12 22.79-0.42Q23.27-0.71 23.48-1.14Q23.70-1.57 23.70-2L23.70-2Q23.70-2.61 23.34-2.96Q22.98-3.32 22.16-3.59L22.16-3.59Q21.25-3.89 20.89-4.25Q20.52-4.60 20.52-5.21L20.52-5.21Q20.52-5.65 20.76-6.04Q20.99-6.43 21.46-6.67Q21.93-6.91 22.59-6.91L22.59-6.91ZM27.99-5.29Q28.43-5.29 28.77-5.19Q29.11-5.08 29.44-4.88L29.44-4.88L28.90-1.12Q28.86-0.80 28.86-0.68L28.86-0.68Q28.86-0.45 28.94-0.30Q29.02-0.15 29.22-0.07L29.22-0.07L29.15 0.10Q28.90 0 28.78-0.18Q28.66-0.37 28.66-0.68L28.66-0.68Q28.66-0.75 28.68-0.97L28.68-0.97Q28.37-0.47 27.93-0.18Q27.49 0.10 26.99 0.10L26.99 0.10Q26.24 0.10 25.82-0.43Q25.39-0.97 25.39-1.90L25.39-1.90Q25.39-2.68 25.66-3.46Q25.92-4.24 26.51-4.76Q27.09-5.29 27.99-5.29L27.99-5.29ZM27.99-5.10Q27.17-5.10 26.64-4.60Q26.10-4.10 25.86-3.37Q25.61-2.63 25.61-1.91L25.61-1.91Q25.61-1.06 25.97-0.58Q26.33-0.11 26.99-0.11L26.99-0.11Q28.01-0.11 28.71-1.35L28.71-1.35L29.20-4.77Q28.67-5.10 27.99-5.10L27.99-5.10ZM33.88-5.29Q34.46-5.29 34.76-4.98Q35.06-4.66 35.06-4.07L35.06-4.07Q35.06-3.89 35.03-3.69L35.03-3.69L34.51 0L34.29 0L34.81-3.67Q34.84-3.88 34.84-4.05L34.84-4.05Q34.84-5.10 33.87-5.10L33.87-5.10Q33.25-5.10 32.70-4.60Q32.16-4.10 31.67-3.15L31.67-3.15L31.22 0L31 0L31.74-5.19L31.92-5.19L31.72-3.58Q32.16-4.43 32.71-4.86Q33.26-5.29 33.88-5.29L33.88-5.29ZM38.58-5.29Q39.04-5.29 39.40-5.16Q39.76-5.03 40.07-4.76L40.07-4.76L39.92-4.62Q39.62-4.86 39.31-4.98Q39-5.09 38.58-5.09L38.58-5.09Q37.94-5.09 37.53-4.79Q37.13-4.49 37.13-3.98L37.13-3.98Q37.13-3.59 37.40-3.33Q37.66-3.08 38.38-2.86L38.38-2.86Q39.16-2.61 39.48-2.29Q39.81-1.96 39.81-1.43L39.81-1.43Q39.81-0.77 39.33-0.34Q38.84 0.10 37.94 0.10L37.94 0.10Q37.36 0.10 36.95-0.07Q36.55-0.25 36.21-0.56L36.21-0.56L36.34-0.70Q36.69-0.41 37.05-0.26Q37.41-0.11 37.92-0.11L37.92-0.11Q38.65-0.11 39.12-0.45Q39.58-0.78 39.58-1.42L39.58-1.42Q39.58-1.88 39.30-2.16Q39.03-2.44 38.29-2.67L38.29-2.67Q37.51-2.92 37.20-3.23Q36.90-3.53 36.90-3.98L36.90-3.98Q36.90-4.56 37.38-4.92Q37.86-5.29 38.58-5.29L38.58-5.29Z"/></svg>