<svg xmlns="http://www.w3.org/2000/svg" viewBox="0.65 -8.11 40.510000000000005 8.28"><path d="M2.29 0L0.65 0L0.65-6.93L4.78-6.93L4.61-5.76L2.29-5.76L2.29-3.92L4.31-3.92L4.31-2.75L2.29-2.75L2.29 0ZM5.49-5.31L7.07-5.31L7.07 0L5.49 0L5.49-5.31ZM6.27-8.11Q6.68-8.11 6.95-7.86Q7.21-7.60 7.21-7.21L7.21-7.21Q7.21-6.82 6.95-6.57Q6.68-6.31 6.27-6.31L6.27-6.31Q5.86-6.31 5.60-6.57Q5.34-6.82 5.34-7.21L5.34-7.21Q5.34-7.60 5.60-7.86Q5.86-8.11 6.27-8.11L6.27-8.11ZM11.19-5.46Q11.48-5.46 11.72-5.39L11.72-5.39L11.47-3.86Q11.17-3.93 10.99-3.93L10.99-3.93Q10.52-3.93 10.27-3.60Q10.03-3.28 9.89-2.63L9.89-2.63L9.89 0L8.31 0L8.31-5.31L9.69-5.31L9.82-4.28Q10-4.83 10.37-5.15Q10.73-5.46 11.19-5.46L11.19-5.46ZM16.54-1.54Q16.54-1.24 16.63-1.10Q16.71-0.96 16.90-0.89L16.90-0.89L16.57 0.14Q16.08 0.10 15.77-0.07Q15.46-0.25 15.29-0.63L15.29-0.63Q14.77 0.17 13.69 0.17L13.69 0.17Q12.90 0.17 12.43-0.29Q11.96-0.75 11.96-1.49L11.96-1.49Q11.96-2.36 12.60-2.82Q13.24-3.28 14.45-3.28L14.45-3.28L14.99-3.28L14.99-3.51Q14.99-3.98 14.79-4.16Q14.59-4.33 14.09-4.33L14.09-4.33Q13.83-4.33 13.46-4.25Q13.09-4.18 12.70-4.05L12.70-4.05L12.34-5.09Q12.84-5.28 13.36-5.38Q13.89-5.48 14.34-5.48L14.34-5.48Q15.48-5.48 16.01-5.01Q16.54-4.54 16.54-3.60L16.54-3.60L16.54-1.54ZM14.15-0.96Q14.69-0.96 14.99-1.47L14.99-1.47L14.99-2.41L14.60-2.41Q14.06-2.41 13.79-2.22Q13.53-2.03 13.53-1.63L13.53-1.63Q13.53-1.31 13.70-1.14Q13.86-0.96 14.15-0.96L14.15-0.96ZM22.43-7.10Q23.21-7.10 23.79-6.88Q24.36-6.66 24.83-6.21L24.83-6.21L24.07-5.32Q23.36-5.90 22.55-5.90L22.55-5.90Q22.12-5.90 21.87-5.73Q21.62-5.55 21.62-5.22L21.62-5.22Q21.62-4.99 21.73-4.84Q21.84-4.70 22.12-4.57Q22.40-4.44 22.96-4.26L22.96-4.26Q24.02-3.92 24.52-3.43Q25.02-2.93 25.02-2.02L25.02-2.02Q25.02-1.37 24.69-0.88Q24.36-0.38 23.74-0.10Q23.12 0.17 22.27 0.17L22.27 0.17Q21.42 0.17 20.77-0.10Q20.11-0.37 19.64-0.82L19.64-0.82L20.47-1.73Q20.87-1.39 21.30-1.22Q21.72-1.05 22.22-1.05L22.22-1.05Q22.73-1.05 23.03-1.28Q23.32-1.50 23.32-1.90L23.32-1.90Q23.32-2.16 23.21-2.33Q23.10-2.51 22.83-2.65Q22.56-2.79 22.05-2.95L22.05-2.95Q20.90-3.30 20.41-3.81Q19.93-4.32 19.93-5.10L19.93-5.10Q19.93-5.70 20.25-6.16Q20.57-6.61 21.14-6.86Q21.71-7.10 22.43-7.10L22.43-7.10ZM30.11-1.54Q30.11-1.24 30.20-1.10Q30.28-0.96 30.47-0.89L30.47-0.89L30.14 0.14Q29.65 0.10 29.34-0.07Q29.03-0.25 28.86-0.63L28.86-0.63Q28.34 0.17 27.26 0.17L27.26 0.17Q26.47 0.17 26-0.29Q25.53-0.75 25.53-1.49L25.53-1.49Q25.53-2.36 26.17-2.82Q26.81-3.28 28.02-3.28L28.02-3.28L28.56-3.28L28.56-3.51Q28.56-3.98 28.36-4.16Q28.16-4.33 27.66-4.33L27.66-4.33Q27.40-4.33 27.03-4.25Q26.66-4.18 26.27-4.05L26.27-4.05L25.91-5.09Q26.41-5.28 26.93-5.38Q27.46-5.48 27.91-5.48L27.91-5.48Q29.05-5.48 29.58-5.01Q30.11-4.54 30.11-3.60L30.11-3.60L30.11-1.54ZM27.72-0.96Q28.26-0.96 28.56-1.47L28.56-1.47L28.56-2.41L28.17-2.41Q27.63-2.41 27.36-2.22Q27.10-2.03 27.10-1.63L27.10-1.63Q27.10-1.31 27.27-1.14Q27.43-0.96 27.72-0.96L27.72-0.96ZM34.48-5.48Q35.17-5.48 35.56-5.06Q35.95-4.64 35.95-3.88L35.95-3.88L35.95 0L34.37 0L34.37-3.61Q34.37-4.01 34.24-4.17Q34.12-4.32 33.87-4.32L33.87-4.32Q33.39-4.32 32.95-3.63L32.95-3.63L32.95 0L31.37 0L31.37-5.31L32.75-5.31L32.86-4.68Q33.20-5.08 33.59-5.28Q33.99-5.48 34.48-5.48L34.48-5.48ZM39.01-5.48Q39.58-5.48 40.08-5.31Q40.58-5.14 40.96-4.83L40.96-4.83L40.38-3.94Q39.73-4.35 39.07-4.35L39.07-4.35Q38.76-4.35 38.60-4.25Q38.43-4.14 38.43-3.95L38.43-3.95Q38.43-3.80 38.51-3.71Q38.58-3.61 38.81-3.51Q39.04-3.41 39.52-3.27L39.52-3.27Q40.35-3.03 40.76-2.65Q41.16-2.26 41.16-1.58L41.16-1.58Q41.16-1.04 40.85-0.65Q40.54-0.25 40-0.04Q39.46 0.17 38.80 0.17L38.80 0.17Q38.13 0.17 37.55-0.04Q36.98-0.25 36.58-0.62L36.58-0.62L37.35-1.48Q38.02-0.96 38.76-0.96L38.76-0.96Q39.12-0.96 39.33-1.09Q39.53-1.22 39.53-1.46L39.53-1.46Q39.53-1.65 39.45-1.76Q39.37-1.87 39.14-1.97Q38.91-2.06 38.41-2.20L38.41-2.20Q37.62-2.43 37.23-2.84Q36.84-3.25 36.84-3.86L36.84-3.86Q36.84-4.32 37.11-4.69Q37.37-5.05 37.87-5.26Q38.36-5.48 39.01-5.48L39.01-5.48Z"/></svg>