<svg xmlns="http://www.w3.org/2000/svg" viewBox="5.1328125 33.23828125 487.96875 82.40625"><path d="M5 100L5 40L28 40L28 47L14 47L14 65L25 65L25 72L14 72L14 100L5 100ZM38 45L38 45Q36 45 34 43Q33 42 33 39L33 39Q33 37 33 36Q34 35 34 34Q35 34 36 34Q37 33 38 33L38 33Q41 33 42 35Q44 36 44 39L44 39Q44 42 42 43Q41 45 38 45ZM34 104L34 52L43 52L43 103Q43 107 42 109Q41 112 40 113Q38 115 37 115Q35 116 33 116L33 116Q32 116 31 115Q30 115 29 115L29 115L29 110Q29 110 29 110Q30 110 30 110L30 110Q31 110 31 109Q32 109 33 108Q33 108 33 107Q34 106 34 104L34 104ZM59 101L59 101Q56 101 55 100Q53 99 52 97Q50 96 50 94Q49 91 49 89L49 89Q49 86 50 84Q51 81 52 79Q54 78 56 76Q58 74 61 73L61 73Q62 72 64 72Q65 71 67 71L67 71L67 64Q67 63 66 62Q66 60 66 59Q66 59 65 58Q64 58 63 58L63 58Q62 58 61 58Q60 58 59 59Q58 60 58 61Q58 63 58 65L58 65L58 67L51 67Q50 66 50 64Q50 63 50 62L50 62Q50 59 51 57Q52 55 54 54Q55 52 58 52Q60 51 63 51L63 51Q66 51 69 52Q71 53 73 54Q74 56 75 58Q75 61 75 64L75 64L75 100L69 100L68 96Q67 98 64 99Q62 101 59 101ZM63 94L63 94Q64 94 65 93Q66 93 67 92L67 92L67 77Q66 77 65 77Q64 78 63 78L63 78Q62 79 61 80Q60 80 60 82Q59 83 58 84Q58 86 58 88L58 88Q58 90 59 92Q60 94 63 94ZM85 100L85 36L93 36L93 100L85 100ZM103 100L103 36L112 36L112 100L103 100ZM128 101L128 101Q125 101 124 100Q122 99 121 97Q120 96 119 94Q118 91 118 89L118 89Q118 86 119 84Q120 81 121 79Q123 78 125 76Q127 74 130 73L130 73Q131 72 133 72Q134 71 136 71L136 71L136 64Q136 63 136 62Q135 60 135 59Q135 59 134 58Q133 58 132 58L132 58Q131 58 130 58Q129 58 128 59Q128 60 127 61Q127 63 127 65L127 65L127 67L120 67Q120 66 119 64Q119 63 119 62L119 62Q119 59 120 57Q121 55 123 54Q124 52 127 52Q129 51 132 51L132 51Q136 51 138 52Q140 53 142 54Q143 56 144 58Q144 61 144 64L144 64L144 100L138 100L137 96Q136 98 133 99Q131 101 128 101ZM132 94L132 94Q133 94 134 93Q135 93 136 92L136 92L136 77Q135 77 134 77Q133 78 132 78L132 78Q131 79 130 80Q129 80 129 82Q128 83 128 84Q127 86 127 88L127 88Q127 90 128 92Q129 94 132 94ZM183 101L183 101Q181 101 180 100Q178 100 176 99Q175 99 173 97Q172 96 170 94Q169 91 169 88Q168 85 168 80L168 80L168 59Q168 55 169 51Q169 48 170 46Q172 44 173 43Q175 41 176 41Q178 40 180 40Q181 39 183 39L183 39Q184 39 186 40Q187 40 189 40Q191 41 192 42Q194 44 195 46Q196 48 197 51Q198 55 198 59L198 59L198 80Q198 85 197 88Q196 91 195 94Q194 96 192 97Q191 99 189 99Q187 100 186 100Q184 101 183 101ZM183 94L183 94Q184 94 185 93Q186 93 187 92Q187 91 188 89Q188 87 188 84L188 84L188 57Q188 54 188 52Q187 50 187 49Q186 48 185 47Q184 47 183 47L183 47Q181 47 180 47Q179 48 179 49Q178 50 178 52Q177 54 177 57L177 57L177 84Q177 87 178 89Q178 91 179 92Q179 93 180 93Q181 94 183 94ZM206 100L206 52L212 52L213 57L213 57Q214 55 216 54Q217 53 218 52Q219 52 221 51Q222 51 223 51L223 51Q228 51 230 54Q232 57 232 63L232 63L232 100L223 100L223 63Q223 60 222 59Q221 58 220 58L220 58Q218 58 217 58Q216 59 215 61L215 61L215 100L206 100ZM253 101L253 101Q250 101 248 99Q245 98 244 96Q242 93 241 89Q240 86 240 80L240 80L240 71Q240 66 241 63Q242 60 243 58Q244 55 245 54Q247 53 248 52Q250 51 251 51Q253 51 254 51L254 51Q257 51 259 52Q261 52 263 54Q264 56 265 59Q266 62 266 66L266 66Q266 68 266 69Q266 71 266 72Q266 74 266 75Q265 76 265 77L265 77L249 77L249 82Q249 86 249 88Q250 90 250 91Q251 93 252 93Q253 94 254 94L254 94Q255 94 256 93Q257 93 257 92Q258 91 258 90Q259 89 259 87L259 87L259 85L266 85L266 87Q266 94 263 97Q259 101 253 101ZM249 71L258 71Q258 71 258 70Q258 70 258 69Q258 68 258 68Q258 67 258 67L258 67Q258 62 257 60Q256 58 254 58L254 58Q253 58 252 58Q251 59 250 60Q250 61 249 63Q249 65 249 69L249 69L249 71ZM289 100L289 52L296 52L297 57Q298 54 300 52Q302 51 304 51L304 51Q308 51 310 53Q311 56 311 60L311 60Q311 61 311 62Q311 63 311 64Q311 64 311 65Q310 66 310 67L310 67L304 67L304 63Q304 61 304 60Q304 59 303 59Q303 58 303 58Q302 58 302 58L302 58Q301 58 300 58Q299 59 298 60L298 60L298 100L289 100ZM329 101L329 101Q326 101 323 99Q321 98 319 96Q317 93 317 89Q316 86 316 80L316 80L316 71Q316 66 316 63Q317 60 318 58Q319 55 321 54Q322 53 324 52Q325 51 327 51Q328 51 330 51L330 51Q332 51 334 52Q337 52 338 54Q340 56 341 59Q342 62 342 66L342 66Q342 68 342 69Q342 71 342 72Q341 74 341 75Q341 76 341 77L341 77L325 77L325 82Q325 86 325 88Q325 90 326 91Q326 93 327 93Q328 94 330 94L330 94Q331 94 331 93Q332 93 333 92Q333 91 334 90Q334 89 334 87L334 87L334 85L341 85L341 87Q341 94 338 97Q335 101 329 101ZM325 71L334 71Q334 71 334 70Q334 70 334 69Q334 68 334 68Q334 67 334 67L334 67Q334 62 333 60Q331 58 329 58L329 58Q328 58 327 58Q326 59 326 60Q325 61 325 63Q325 65 325 69L325 69L325 71ZM350 103L357 103Q357 106 358 108Q359 109 361 109L361 109Q362 109 363 109Q364 108 365 108Q366 107 366 105Q366 104 366 102L366 102L366 94Q365 96 363 97Q361 98 359 98L359 98Q358 98 357 98Q356 98 355 97Q353 97 352 95Q351 94 350 92Q349 90 349 87Q348 85 348 80L348 80L348 68Q348 64 349 61Q349 58 350 56Q351 55 352 53Q353 52 355 52Q356 51 357 51Q358 51 359 51L359 51Q361 51 362 52Q363 52 364 53Q365 53 366 54Q367 55 367 56L367 56L368 52L375 52L375 98Q375 102 374 105Q373 109 372 111Q370 113 368 114Q365 116 362 116L362 116Q359 116 357 115Q355 115 353 114Q352 113 351 111Q350 109 350 106L350 106Q350 106 350 105Q350 104 350 103L350 103ZM362 91L362 91Q363 91 363 91Q364 90 365 90Q365 89 365 89Q366 88 366 88L366 88L366 61Q365 60 364 59Q363 58 362 58L362 58Q361 58 360 58Q359 58 358 59Q358 60 358 62Q357 64 357 66L357 66L357 82Q357 85 358 87Q358 88 358 89Q359 90 360 91Q361 91 362 91ZM384 89L384 52L393 52L393 88Q393 91 394 92Q395 94 397 94L397 94Q398 94 400 93Q401 92 402 91L402 91L402 52L411 52L411 100L404 100L403 95L403 95Q402 96 401 98Q400 99 399 99Q397 100 396 100Q395 101 393 101L393 101Q389 101 387 98Q384 95 384 89L384 89ZM420 100L420 36L429 36L429 100L420 100ZM445 101L445 101Q443 101 441 100Q439 99 438 97Q437 96 436 94Q436 91 436 89L436 89Q436 86 437 84Q437 81 439 79Q440 78 442 76Q444 74 447 73L447 73Q449 72 450 72Q452 71 453 71L453 71L453 64Q453 63 453 62Q453 60 453 59Q452 59 451 58Q451 58 449 58L449 58Q448 58 447 58Q446 58 446 59Q445 60 445 61Q444 63 444 65L444 65L444 67L437 67Q437 66 437 64Q437 63 437 62L437 62Q437 59 438 57Q439 55 440 54Q442 52 444 52Q447 51 449 51L449 51Q453 51 455 52Q458 53 459 54Q461 56 461 58Q462 61 462 64L462 64L462 100L455 100L455 96Q453 98 451 99Q448 101 445 101ZM449 94L449 94Q450 94 451 93Q452 93 453 92L453 92L453 77Q452 77 452 77Q451 78 450 78L450 78Q449 79 448 80Q447 80 446 82Q445 83 445 84Q445 86 445 88L445 88Q445 90 446 92Q447 94 449 94ZM471 100L471 52L478 52L478 57Q480 54 482 52Q484 51 486 51L486 51Q489 51 491 53Q493 56 493 60L493 60Q493 61 493 62Q493 63 493 64Q493 64 492 65Q492 66 492 67L492 67L486 67L486 63Q486 61 486 60Q485 59 485 59Q485 58 484 58Q484 58 483 58L483 58Q482 58 481 58Q481 59 480 60L480 60L480 100L471 100Z"/></svg>