<svg xmlns="http://www.w3.org/2000/svg" viewBox="0.712890625 -9.2724609375 36.2841796875 11.4404296875"><path d="M0.71 0L0.71-8.34L3.90-8.34L3.90-7.34L1.98-7.34L1.98-4.85L3.49-4.85L3.49-3.85L1.98-3.85L1.98 0L0.71 0ZM5.33-7.69L5.33-7.69Q4.99-7.69 4.79-7.89Q4.59-8.10 4.59-8.49L4.59-8.49Q4.59-8.71 4.64-8.86Q4.69-9.01 4.79-9.10Q4.88-9.19 5.02-9.23Q5.16-9.27 5.33-9.27L5.33-9.27Q5.70-9.27 5.89-9.09Q6.08-8.90 6.08-8.49L6.08-8.49Q6.08-8.11 5.89-7.90Q5.69-7.69 5.33-7.69ZM4.69 0.57L4.69-6.72L5.92-6.72L5.92 0.41Q5.92 0.96 5.81 1.30Q5.70 1.65 5.52 1.84Q5.33 2.03 5.09 2.10Q4.85 2.17 4.59 2.17L4.59 2.17Q4.45 2.17 4.30 2.14Q4.15 2.12 4.00 2.05L4.00 2.05L4.00 1.33Q4.04 1.34 4.08 1.34Q4.12 1.34 4.16 1.34L4.16 1.34Q4.26 1.34 4.36 1.30Q4.46 1.26 4.53 1.17Q4.60 1.08 4.65 0.94Q4.69 0.79 4.69 0.57L4.69 0.57ZM8.14 0.07L8.14 0.07Q7.83 0.07 7.59-0.05Q7.34-0.18 7.18-0.39Q7.01-0.61 6.93-0.90Q6.84-1.20 6.84-1.54L6.84-1.54Q6.84-1.96 6.94-2.28Q7.05-2.60 7.24-2.86Q7.44-3.12 7.73-3.33Q8.03-3.54 8.41-3.74L8.41-3.74Q8.60-3.83 8.83-3.92Q9.06-4.02 9.24-4.09L9.24-4.09L9.24-4.98Q9.24-5.17 9.23-5.34Q9.21-5.51 9.16-5.63Q9.10-5.76 8.99-5.83Q8.88-5.90 8.68-5.90L8.68-5.90Q8.55-5.90 8.43-5.85Q8.30-5.80 8.21-5.68Q8.11-5.57 8.05-5.37Q8.00-5.18 8.00-4.89L8.00-4.89L8.00-4.59L7.06-4.59Q7.01-4.79 6.99-4.94Q6.97-5.10 6.97-5.26L6.97-5.26Q6.97-5.63 7.10-5.92Q7.23-6.21 7.46-6.41Q7.69-6.60 8.01-6.70Q8.33-6.80 8.72-6.80L8.72-6.80Q9.22-6.80 9.56-6.69Q9.89-6.58 10.09-6.36Q10.28-6.14 10.36-5.81Q10.44-5.48 10.44-5.03L10.44-5.03L10.44 0L9.53 0L9.44-0.58Q9.24-0.29 8.90-0.11Q8.57 0.07 8.14 0.07ZM8.69-0.88L8.69-0.88Q8.84-0.88 8.99-0.96Q9.14-1.04 9.24-1.16L9.24-1.16L9.24-3.26Q9.15-3.22 9.02-3.17Q8.90-3.12 8.76-3.03L8.76-3.03Q8.63-2.94 8.50-2.83Q8.37-2.71 8.27-2.55Q8.17-2.39 8.11-2.19Q8.05-1.98 8.05-1.73L8.05-1.73Q8.05-1.35 8.20-1.11Q8.35-0.88 8.69-0.88ZM11.74 0L11.74-8.88L12.98-8.88L12.98 0L11.74 0ZM14.29 0L14.29-8.88L15.52-8.88L15.52 0L14.29 0ZM17.74 0.07L17.74 0.07Q17.43 0.07 17.19-0.05Q16.94-0.18 16.78-0.39Q16.61-0.61 16.53-0.90Q16.44-1.20 16.44-1.54L16.44-1.54Q16.44-1.96 16.54-2.28Q16.65-2.60 16.84-2.86Q17.04-3.12 17.33-3.33Q17.63-3.54 18.01-3.74L18.01-3.74Q18.20-3.83 18.43-3.92Q18.66-4.02 18.84-4.09L18.84-4.09L18.84-4.98Q18.84-5.17 18.83-5.34Q18.81-5.51 18.76-5.63Q18.70-5.76 18.59-5.83Q18.48-5.90 18.28-5.90L18.28-5.90Q18.15-5.90 18.02-5.85Q17.90-5.80 17.81-5.68Q17.71-5.57 17.65-5.37Q17.60-5.18 17.60-4.89L17.60-4.89L17.60-4.59L16.66-4.59Q16.61-4.79 16.59-4.94Q16.57-5.10 16.57-5.26L16.57-5.26Q16.57-5.63 16.70-5.92Q16.83-6.21 17.06-6.41Q17.29-6.60 17.61-6.70Q17.93-6.80 18.32-6.80L18.32-6.80Q18.82-6.80 19.16-6.69Q19.49-6.58 19.69-6.36Q19.88-6.14 19.96-5.81Q20.04-5.48 20.04-5.03L20.04-5.03L20.04 0L19.13 0L19.04-0.58Q18.84-0.29 18.50-0.11Q18.17 0.07 17.74 0.07ZM18.29-0.88L18.29-0.88Q18.44-0.88 18.59-0.96Q18.74-1.04 18.84-1.16L18.84-1.16L18.84-3.26Q18.75-3.22 18.62-3.17Q18.50-3.12 18.36-3.03L18.36-3.03Q18.23-2.94 18.10-2.83Q17.97-2.71 17.87-2.55Q17.77-2.39 17.71-2.19Q17.65-1.98 17.65-1.73L17.65-1.73Q17.65-1.35 17.80-1.11Q17.95-0.88 18.29-0.88ZM25.39 0.07L25.39 0.07Q25.19 0.07 24.95 0.04Q24.72 0.01 24.49-0.09Q24.26-0.20 24.05-0.38Q23.83-0.57 23.67-0.88Q23.51-1.19 23.41-1.64Q23.31-2.09 23.31-2.71L23.31-2.71L23.31-5.67Q23.31-6.30 23.41-6.75Q23.51-7.19 23.68-7.50Q23.84-7.80 24.06-7.98Q24.27-8.16 24.50-8.26Q24.73-8.35 24.96-8.38Q25.19-8.41 25.39-8.41L25.39-8.41Q25.57-8.41 25.80-8.39Q26.03-8.36 26.25-8.27Q26.48-8.18 26.69-8.00Q26.91-7.82 27.08-7.52Q27.24-7.21 27.34-6.76Q27.44-6.31 27.44-5.67L27.44-5.67L27.44-2.71Q27.44-2.09 27.34-1.65Q27.24-1.20 27.07-0.89Q26.90-0.58 26.69-0.39Q26.47-0.21 26.24-0.10Q26.02 0.00 25.79 0.04Q25.57 0.07 25.39 0.07ZM25.39-0.88L25.39-0.88Q25.57-0.88 25.71-0.94Q25.85-1.01 25.94-1.16Q26.03-1.32 26.08-1.57Q26.12-1.83 26.12-2.22L26.12-2.22L26.12-6.02Q26.12-6.42 26.08-6.68Q26.03-6.95 25.94-7.12Q25.85-7.28 25.71-7.35Q25.57-7.42 25.39-7.42L25.39-7.42Q25.20-7.42 25.05-7.35Q24.91-7.28 24.82-7.12Q24.73-6.95 24.68-6.68Q24.63-6.42 24.63-6.02L24.63-6.02L24.63-2.22Q24.63-1.83 24.68-1.57Q24.73-1.32 24.82-1.16Q24.91-1.01 25.05-0.94Q25.20-0.88 25.39-0.88ZM28.56 0L28.56-6.72L29.51-6.72L29.62-6.01L29.62-6.00Q29.77-6.23 29.94-6.38Q30.11-6.54 30.29-6.63Q30.47-6.72 30.66-6.76Q30.84-6.80 31.03-6.80L31.03-6.80Q31.62-6.80 31.94-6.39Q32.26-5.98 32.26-5.15L32.26-5.15L32.26 0L31.03 0L31.03-5.11Q31.03-5.55 30.89-5.73Q30.75-5.90 30.49-5.90L30.49-5.90Q30.30-5.90 30.12-5.78Q29.94-5.65 29.79-5.44L29.79-5.44L29.79 0L28.56 0ZM35.16 0.07L35.16 0.07Q34.73 0.07 34.39-0.09Q34.06-0.25 33.83-0.59Q33.60-0.93 33.48-1.47Q33.36-2.00 33.36-2.75L33.36-2.75L33.36-4.02Q33.36-4.66 33.46-5.12Q33.55-5.58 33.71-5.89Q33.86-6.20 34.06-6.38Q34.27-6.56 34.48-6.65Q34.70-6.75 34.91-6.77Q35.12-6.80 35.30-6.80L35.30-6.80Q35.63-6.80 35.94-6.70Q36.25-6.60 36.48-6.36Q36.72-6.12 36.86-5.71Q37.00-5.31 37.00-4.70L37.00-4.70Q37.00-4.50 36.98-4.29Q36.97-4.08 36.95-3.87Q36.93-3.67 36.90-3.48Q36.87-3.29 36.84-3.13L36.84-3.13L34.60-3.13L34.60-2.45Q34.60-2.01 34.64-1.71Q34.67-1.41 34.75-1.22Q34.83-1.04 34.97-0.96Q35.11-0.88 35.32-0.88L35.32-0.88Q35.43-0.88 35.54-0.93Q35.65-0.97 35.73-1.08Q35.81-1.19 35.86-1.36Q35.91-1.54 35.91-1.81L35.91-1.81L35.91-2.02L36.94-2.02L36.94-1.76Q36.94-0.80 36.48-0.36Q36.03 0.07 35.16 0.07ZM34.60-3.96L35.84-3.96Q35.85-4.01 35.85-4.10Q35.86-4.19 35.86-4.29Q35.86-4.39 35.86-4.48Q35.86-4.58 35.86-4.65L35.86-4.65Q35.86-5.31 35.71-5.61Q35.55-5.90 35.24-5.90L35.24-5.90Q35.08-5.90 34.96-5.82Q34.84-5.75 34.76-5.57Q34.68-5.39 34.64-5.10Q34.60-4.80 34.60-4.37L34.60-4.37L34.60-3.96Z"/></svg>