<svg xmlns="http://www.w3.org/2000/svg" viewBox="0.7000000000000001 -7.9 52.32 8.040000000000001"><path d="M2.17-0.06L0.70 0.06L0.70-7.50L4.51-7.50L4.39-6.32L2.17-6.32L2.17-4.36L3.74-4.36L3.74-3.12L2.17-3.12L2.17-0.06ZM5.21 0.06L5.21-5.51L6.61-5.63L6.61-4.72Q6.91-5.15 7.36-5.42Q7.80-5.68 8.49-5.68L8.49-5.68L8.49-4.31Q8.13-4.31 7.54-4.19Q6.96-4.06 6.61-3.75L6.61-3.75L6.61-0.06L5.21 0.06ZM10.17 0.13Q9.81 0.13 9.52-0.10Q9.23-0.32 9.07-0.70Q8.91-1.09 8.91-1.57L8.91-1.57Q8.91-2.66 9.66-3.10Q10.40-3.55 11.39-3.61L11.39-3.61Q11.39-4.15 11.32-4.41Q11.25-4.67 10.98-4.67L10.98-4.67Q10.75-4.67 10.63-4.49Q10.51-4.31 10.48-4.03L10.48-4.03L9.11-4.27Q9.21-5.04 9.74-5.37Q10.27-5.70 10.98-5.70L10.98-5.70Q11.89-5.70 12.35-5.22Q12.80-4.74 12.80-3.97L12.80-3.97L12.80-1.06Q12.80-0.59 12.95-0.06L12.95-0.06L11.58 0.06L11.42-0.63Q11.24-0.31 10.89-0.09Q10.54 0.13 10.17 0.13L10.17 0.13ZM10.82-0.87Q10.99-0.87 11.11-0.95Q11.22-1.03 11.39-1.21L11.39-1.21L11.39-2.77Q10.89-2.77 10.59-2.50Q10.29-2.23 10.29-1.66L10.29-1.66Q10.29-1.28 10.43-1.07Q10.56-0.87 10.82-0.87L10.82-0.87ZM13.96 0.06L13.96-5.51L15.36-5.63L15.36-4.91Q15.79-5.29 16.21-5.50Q16.62-5.70 16.97-5.70L16.97-5.70Q17.50-5.70 17.84-5.32Q18.17-4.93 18.17-4.28L18.17-4.28L18.17-0.06L16.77 0.06L16.77-3.75Q16.77-4.50 16.26-4.50L16.26-4.50Q16.09-4.50 15.89-4.40Q15.68-4.30 15.36-4.11L15.36-4.11L15.36-0.06L13.96 0.06ZM21.09 0.13Q20.45 0.13 20.00-0.27Q19.54-0.67 19.31-1.33Q19.08-1.99 19.08-2.76L19.08-2.76Q19.08-3.52 19.31-4.19Q19.53-4.86 19.99-5.28Q20.45-5.70 21.12-5.70L21.12-5.70Q21.63-5.70 22.04-5.45Q22.44-5.19 22.67-4.73Q22.90-4.27 22.92-3.68L22.92-3.68L21.59-3.62Q21.59-3.66 21.56-3.94Q21.52-4.22 21.41-4.40Q21.29-4.58 21.11-4.58L21.11-4.58Q20.71-4.58 20.60-4.04Q20.49-3.49 20.49-2.81L20.49-2.81Q20.49-2.14 20.61-1.59Q20.72-1.05 21.15-1.05L21.15-1.05Q21.69-1.05 21.71-2.11L21.71-2.11L22.89-1.98Q22.76-0.94 22.37-0.41Q21.98 0.13 21.09 0.13L21.09 0.13ZM25.63 0.13Q24.62 0.13 24.08-0.67Q23.53-1.47 23.53-2.80L23.53-2.80Q23.53-4.12 24.07-4.91Q24.61-5.70 25.63-5.70L25.63-5.70Q26.64-5.70 27.20-4.91Q27.75-4.12 27.75-2.80L27.75-2.80Q27.75-1.48 27.20-0.68Q26.64 0.13 25.63 0.13L25.63 0.13ZM25.63-0.91Q26.08-0.91 26.21-1.46Q26.34-2.01 26.34-2.81L26.34-2.81Q26.34-3.61 26.21-4.16Q26.08-4.71 25.63-4.71L25.63-4.71Q25.18-4.71 25.06-4.19Q24.94-3.67 24.94-2.92L24.94-2.92Q24.94-2 25.06-1.46Q25.18-0.91 25.63-0.91L25.63-0.91ZM30.11-6.41L28.71-6.35L28.71-7.80L30.11-7.90L30.11-6.41ZM30.10-0.06L28.70 0.06L28.70-5.51L30.10-5.63L30.10-0.06ZM33.01 0.13Q32.18 0.13 31.67-0.24Q31.16-0.62 31.01-1.29L31.01-1.29L32.10-1.65Q32.14-1.46 32.25-1.31L32.25-1.31Q32.48-0.98 32.92-0.98L32.92-0.98Q33.17-0.98 33.40-1.09Q33.63-1.20 33.63-1.43L33.63-1.43Q33.63-1.74 33.20-1.91L33.20-1.91L32.02-2.39Q31.55-2.59 31.30-2.99Q31.05-3.39 31.05-3.97L31.05-3.97Q31.05-4.51 31.32-4.90Q31.58-5.29 32.02-5.50Q32.45-5.70 32.95-5.70L32.95-5.70Q33.58-5.70 34.11-5.33Q34.64-4.97 34.82-4.34L34.82-4.34L33.66-3.98Q33.62-4.15 33.52-4.32L33.52-4.32Q33.30-4.66 32.96-4.66L32.96-4.66Q32.71-4.66 32.53-4.54Q32.35-4.43 32.35-4.21L32.35-4.21Q32.35-3.95 32.84-3.73L32.84-3.73L33.84-3.32Q34.37-3.07 34.67-2.69Q34.97-2.31 34.97-1.67L34.97-1.67Q34.97-1.09 34.69-0.69Q34.41-0.28 33.96-0.07Q33.51 0.13 33.01 0.13L33.01 0.13ZM40.39 0.14Q39.12 0.14 38.61-0.96Q38.09-2.05 38.09-3.79L38.09-3.79Q38.09-5.64 38.64-6.64Q39.19-7.64 40.41-7.64L40.41-7.64Q42.74-7.64 42.74-3.83L42.74-3.83Q42.74-2.12 42.22-0.99Q41.69 0.14 40.39 0.14L40.39 0.14ZM40.41-1.04Q40.94-1.04 41.11-1.74Q41.28-2.43 41.28-3.84L41.28-3.84Q41.28-4.97 41.12-5.71Q40.95-6.46 40.41-6.46L40.41-6.46Q39.87-6.46 39.71-5.72Q39.55-4.98 39.55-3.85L39.55-3.85Q39.55-2.43 39.72-1.74Q39.88-1.04 40.41-1.04L40.41-1.04ZM43.77 0.06L43.77-5.51L45.17-5.63L45.17-4.91Q45.60-5.29 46.02-5.50Q46.43-5.70 46.78-5.70L46.78-5.70Q47.31-5.70 47.65-5.32Q47.98-4.93 47.98-4.28L47.98-4.28L47.98-0.06L46.58 0.06L46.58-3.75Q46.58-4.50 46.07-4.50L46.07-4.50Q45.90-4.50 45.70-4.40Q45.49-4.30 45.17-4.11L45.17-4.11L45.17-0.06L43.77 0.06ZM50.95 0.13Q49.95 0.13 49.42-0.67Q48.89-1.46 48.89-2.78L48.89-2.78Q48.89-4.12 49.43-4.91Q49.97-5.70 51.00-5.70L51.00-5.70Q51.98-5.70 52.50-4.91Q53.02-4.12 53.02-2.78L53.02-2.78Q53.02-2.70 52.99-2.67Q52.96-2.63 52.96-2.62L52.96-2.62L50.29-2.62Q50.29-1.97 50.46-1.44Q50.63-0.90 50.98-0.90L50.98-0.90Q51.37-0.90 51.56-1.35Q51.75-1.80 51.76-1.82L51.76-1.82L52.82-1.42Q52.61-0.70 52.15-0.29Q51.69 0.13 50.95 0.13L50.95 0.13ZM50.29-3.43L51.64-3.43Q51.64-4.03 51.48-4.38Q51.32-4.73 50.98-4.73L50.98-4.73Q50.81-4.73 50.65-4.56Q50.49-4.39 50.39-4.09Q50.29-3.79 50.29-3.43L50.29-3.43Z"/></svg>