<svg xmlns="http://www.w3.org/2000/svg" viewBox="5.040000000000001 43.11999999999999 616.9680000000002 69.48"><path d="M16 100L5 100L5 46L32 46L32 54L16 54L16 69L27 69L27 78L16 78L16 100ZM38 100L38 60L48 59L48 66Q50 63 53 61Q56 59 61 59L61 59L61 69Q59 69 54 70Q50 71 48 73L48 73L48 100L38 100ZM73 101Q71 101 69 99Q66 98 65 95Q64 92 64 89L64 89Q64 81 70 78Q75 74 82 74L82 74Q82 70 82 68Q81 66 79 66L79 66Q77 66 77 68Q76 69 75 71L75 71L66 69Q66 64 70 61Q74 59 79 59L79 59Q86 59 89 62Q92 66 92 71L92 71L92 92Q92 96 93 100L93 100L83 100L82 95Q81 98 78 99Q76 101 73 101L73 101ZM78 94Q79 94 80 93Q81 93 82 91L82 91L82 80Q78 80 76 82Q74 84 74 88L74 88Q74 91 75 92Q76 94 78 94L78 94ZM101 100L101 60L111 59L111 65Q114 62 117 60Q120 59 122 59L122 59Q126 59 128 62Q131 65 131 69L131 69L131 100L121 100L121 73Q121 68 117 68L117 68Q116 68 114 68Q113 69 111 70L111 70L111 100L101 100ZM152 101Q147 101 144 98Q141 95 139 90Q137 86 137 80L137 80Q137 75 139 70Q141 65 144 62Q147 59 152 59L152 59Q156 59 159 61Q162 63 163 66Q165 69 165 74L165 74L155 74Q155 74 155 72Q155 70 154 68Q153 67 152 67L152 67Q149 67 148 71Q148 75 148 80L148 80Q148 85 148 89Q149 92 152 92L152 92Q156 92 156 85L156 85L165 86Q164 93 161 97Q158 101 152 101L152 101ZM185 101Q177 101 173 95Q169 89 169 80L169 80Q169 70 173 65Q177 59 185 59L185 59Q192 59 196 65Q200 70 200 80L200 80Q200 89 196 95Q192 101 185 101L185 101ZM185 93Q188 93 189 89Q190 86 190 80L190 80Q190 74 189 70Q188 66 185 66L185 66Q181 66 180 70Q180 74 180 79L180 79Q180 86 180 90Q181 93 185 93L185 93ZM217 54L207 54L207 44L217 43L217 54ZM217 100L207 100L207 60L217 59L217 100ZM238 101Q232 101 228 98Q224 96 223 91L223 91L231 88Q231 89 232 91L232 91Q234 93 237 93L237 93Q239 93 240 92Q242 91 242 90L242 90Q242 87 239 86L239 86L231 83Q227 81 225 78Q224 76 224 71L224 71Q224 68 225 65Q227 62 231 60Q234 59 237 59L237 59Q242 59 246 62Q249 64 251 69L251 69L242 71Q242 70 241 69L241 69Q240 66 237 66L237 66Q236 66 234 67Q233 68 233 70L233 70Q233 72 236 73L236 73L244 76Q247 78 250 81Q252 83 252 88L252 88Q252 92 250 95Q248 98 245 99Q241 101 238 101L238 101ZM291 101Q282 101 278 93Q274 85 274 73L274 73Q274 59 278 52Q282 45 291 45L291 45Q308 45 308 72L308 72Q308 85 304 93Q300 101 291 101L291 101ZM291 93Q295 93 296 88Q297 83 297 72L297 72Q297 64 296 59Q295 53 291 53L291 53Q287 53 286 59Q285 64 285 72L285 72Q285 83 286 88Q287 93 291 93L291 93ZM315 100L315 60L325 59L325 65Q328 62 331 60Q334 59 337 59L337 59Q341 59 343 62Q345 65 345 69L345 69L345 100L335 100L335 73Q335 68 332 68L332 68Q330 68 329 68Q328 69 325 70L325 70L325 100L315 100ZM367 101Q360 101 356 95Q352 89 352 80L352 80Q352 70 356 65Q360 59 367 59L367 59Q374 59 378 65Q382 70 382 80L382 80Q382 81 382 81Q381 81 381 81L381 81L362 81Q362 86 363 90Q365 94 367 94L367 94Q370 94 371 90Q373 87 373 87L373 87L380 90Q379 95 375 98Q372 101 367 101L367 101ZM362 75L372 75Q372 71 371 68Q370 66 367 66L367 66Q366 66 365 67Q364 68 363 71Q362 73 362 75L362 75ZM405 100L405 60L416 59L416 66Q418 63 421 61Q424 59 429 59L429 59L429 69Q426 69 422 70Q418 71 416 73L416 73L416 100L405 100ZM447 101Q440 101 436 95Q433 89 433 80L433 80Q433 70 436 65Q440 59 448 59L448 59Q455 59 459 65Q462 70 462 80L462 80Q462 81 462 81Q462 81 462 81L462 81L443 81Q443 86 444 90Q445 94 448 94L448 94Q450 94 452 90Q453 87 453 87L453 87L461 90Q459 95 456 98Q453 101 447 101L447 101ZM443 75L452 75Q452 71 451 68Q450 66 448 66L448 66Q446 66 445 67Q444 68 443 71Q443 73 443 75L443 75ZM482 113Q474 113 470 110Q465 108 465 104L465 104Q465 101 467 99Q469 98 472 96L472 96Q470 96 468 94Q467 93 467 91L467 91Q467 88 469 86Q471 84 474 82L474 82Q467 78 467 72L467 72Q467 68 470 65Q472 62 475 60Q479 59 483 59L483 59Q488 59 493 62L493 62Q495 60 497 59Q499 57 503 57L503 57L503 64Q498 64 496 65L496 65Q497 67 497 69Q498 70 498 71L498 71Q498 76 494 80Q491 84 484 84L484 84L481 84Q480 84 479 84L479 84Q478 84 478 85Q477 86 477 87L477 87Q477 88 477 89Q478 89 479 89L479 89L491 91Q501 92 501 100L501 100Q501 107 496 110Q490 113 482 113L482 113ZM482 78Q485 78 486 76Q487 75 487 71L487 71Q487 68 486 67Q485 65 483 65L483 65Q480 65 479 67Q478 69 478 71L478 71Q478 74 479 76Q480 78 482 78L482 78ZM483 105Q491 105 491 101L491 101Q491 100 490 99Q490 98 488 98Q487 98 484 98L484 98L478 97Q476 98 475 99Q474 100 474 101L474 101Q474 103 476 104Q479 105 483 105L483 105ZM515 101Q511 101 509 98Q506 95 506 91L506 91L506 60L517 59L517 87Q517 89 517 91Q518 92 520 92L520 92Q522 92 524 91Q525 90 527 89L527 89L527 60L537 59L537 100L527 100L527 95Q524 98 521 100Q518 101 515 101L515 101ZM556 100L546 100L546 47L556 46L556 100ZM571 101Q569 101 566 99Q564 98 563 95Q562 92 562 89L562 89Q562 81 567 78Q573 74 580 74L580 74Q580 70 579 68Q579 66 577 66L577 66Q575 66 574 68Q574 69 573 71L573 71L563 69Q564 64 568 61Q572 59 577 59L577 59Q583 59 587 62Q590 66 590 71L590 71L590 92Q590 96 591 100L591 100L581 100L580 95Q579 98 576 99Q574 101 571 101L571 101ZM576 94Q577 94 578 93Q579 93 580 91L580 91L580 80Q576 80 574 82Q572 84 572 88L572 88Q572 91 573 92Q574 94 576 94L576 94ZM598 100L598 60L608 59L608 66Q611 63 614 61Q617 59 622 59L622 59L622 69Q619 69 615 70Q611 71 608 73L608 73L608 100L598 100Z"/></svg>