<svg xmlns="http://www.w3.org/2000/svg" viewBox="6.50390625 46 349.171875 69.1875"><path d="M40.08 48.81L44.40 48.81L44.40 100L40.08 100L40.08 75.46L10.83 75.46L10.83 100L6.50 100L6.50 48.81L10.83 48.81L10.83 71.77L40.08 71.77L40.08 48.81ZM85.46 81.23L58.32 81.23L58.32 82.04Q58.32 86.22 59.98 89.68Q61.63 93.14 64.58 95.15Q67.54 97.15 71.33 97.15L71.33 97.15Q74.74 97.15 77.34 95.90Q79.95 94.66 81.98 91.95L81.98 91.95L84.66 93.95Q82.58 97.01 79.26 98.86Q75.94 100.70 71.16 100.70L71.16 100.70Q66.27 100.70 62.38 98.31Q58.50 95.92 56.30 91.67Q54.11 87.41 54.11 82.04L54.11 82.04L54.11 80.52Q54.11 74.83 56.34 70.43Q58.57 66.04 62.31 63.65Q66.06 61.26 70.42 61.26L70.42 61.26Q75.13 61.26 78.54 63.47Q81.95 65.69 83.71 69.63Q85.46 73.56 85.46 78.66L85.46 78.66L85.46 81.23ZM70.42 64.84Q67.25 64.84 64.71 66.43Q62.16 68.01 60.54 70.91Q58.92 73.81 58.50 77.64L58.50 77.64L81.25 77.64L81.25 77.18Q81.18 73.88 79.93 71.07Q78.68 68.25 76.25 66.55Q73.83 64.84 70.42 64.84L70.42 64.84ZM122.70 81.23L95.55 81.23L95.55 82.04Q95.55 86.22 97.21 89.68Q98.86 93.14 101.81 95.15Q104.77 97.15 108.56 97.15L108.56 97.15Q111.97 97.15 114.57 95.90Q117.18 94.66 119.21 91.95L119.21 91.95L121.89 93.95Q119.81 97.01 116.49 98.86Q113.17 100.70 108.39 100.70L108.39 100.70Q103.50 100.70 99.62 98.31Q95.73 95.92 93.53 91.67Q91.34 87.41 91.34 82.04L91.34 82.04L91.34 80.52Q91.34 74.83 93.57 70.43Q95.80 66.04 99.54 63.65Q103.29 61.26 107.65 61.26L107.65 61.26Q112.36 61.26 115.77 63.47Q119.18 65.69 120.94 69.63Q122.70 73.56 122.70 78.66L122.70 78.66L122.70 81.23ZM107.65 64.84Q104.48 64.84 101.94 66.43Q99.39 68.01 97.77 70.91Q96.15 73.81 95.73 77.64L95.73 77.64L118.48 77.64L118.48 77.18Q118.41 73.88 117.16 71.07Q115.91 68.25 113.48 66.55Q111.06 64.84 107.65 64.84L107.65 64.84ZM146.95 61.26Q151.52 61.26 154.81 63.63Q158.10 66.00 159.82 70.36Q161.54 74.72 161.54 80.63L161.54 80.63L161.54 81.37Q161.54 87.06 159.82 91.44Q158.10 95.82 154.81 98.26Q151.52 100.70 147.02 100.70L147.02 100.70Q142.95 100.70 139.94 99.16Q136.93 97.61 135 94.76L135 94.76L134.79 100L130.85 100L130.85 46L135.07 46L135.07 67.45Q137.00 64.46 139.97 62.86Q142.95 61.26 146.95 61.26L146.95 61.26ZM157.29 81.37L157.29 80.63Q157.29 73.56 154.53 69.24Q151.77 64.91 146.14 64.91L146.14 64.91Q141.79 64.91 139.11 67.08Q136.44 69.24 135.07 72.68L135.07 72.68L135.07 89.88Q136.51 93.11 139.29 95.08Q142.07 97.05 146.21 97.05L146.21 97.05Q149.91 97.05 152.40 95.03Q154.90 93.00 156.09 89.47Q157.29 85.94 157.29 81.37L157.29 81.37ZM168.50 80.42Q168.50 74.90 170.61 70.54Q172.72 66.18 176.57 63.72Q180.42 61.26 185.45 61.26L185.45 61.26Q190.51 61.26 194.38 63.72Q198.25 66.18 200.36 70.54Q202.46 74.90 202.46 80.42L202.46 80.42L202.46 81.54Q202.46 87.06 200.36 91.42Q198.25 95.78 194.41 98.24Q190.58 100.70 185.52 100.70L185.52 100.70Q180.46 100.70 176.59 98.24Q172.72 95.78 170.61 91.42Q168.50 87.06 168.50 81.54L168.50 81.54L168.50 80.42ZM172.72 81.54Q172.72 85.80 174.22 89.35Q175.71 92.90 178.61 95.01Q181.51 97.12 185.52 97.12L185.52 97.12Q189.49 97.12 192.38 95.01Q195.26 92.90 196.75 89.35Q198.25 85.80 198.25 81.54L198.25 81.54L198.25 80.42Q198.25 76.23 196.73 72.68Q195.22 69.13 192.32 66.99Q189.42 64.84 185.45 64.84L185.45 64.84Q181.48 64.84 178.59 66.99Q175.71 69.13 174.22 72.68Q172.72 76.23 172.72 80.42L172.72 80.42L172.72 81.54ZM233.40 100L229.22 100L229.22 46L233.40 46L233.40 100ZM247.50 48.11Q248.84 48.11 249.63 48.92Q250.42 49.73 250.42 50.96L250.42 50.96Q250.42 52.15 249.63 52.94Q248.84 53.73 247.50 53.73L247.50 53.73Q246.20 53.73 245.41 52.94Q244.62 52.15 244.62 50.96L244.62 50.96Q244.62 49.73 245.41 48.92Q246.20 48.11 247.50 48.11L247.50 48.11ZM249.57 100L245.39 100L245.39 61.96L249.57 61.96L249.57 100ZM286.07 61.96L290.00 61.96L290.00 99.33Q290.00 104.22 288.12 107.80Q286.24 111.39 282.80 113.29Q279.35 115.19 274.75 115.19L274.75 115.19Q270.98 115.19 267.35 113.50Q263.71 111.81 261.49 108.68L261.49 108.68L263.85 106.12Q266.10 108.93 268.73 110.27Q271.37 111.60 274.50 111.60L274.50 111.60Q279.88 111.60 282.83 108.40Q285.79 105.20 285.79 99.47L285.79 99.47L285.79 95.04Q283.82 97.75 280.86 99.23Q277.91 100.70 273.97 100.70L273.97 100.70Q269.54 100.70 266.24 98.26Q262.93 95.82 261.16 91.42Q259.38 87.03 259.38 81.37L259.38 81.37L259.38 80.63Q259.38 74.76 261.14 70.38Q262.90 66.00 266.20 63.63Q269.51 61.26 274.04 61.26L274.04 61.26Q278.05 61.26 281.00 62.86Q283.96 64.46 285.89 67.45L285.89 67.45L286.07 61.96ZM274.78 97.05Q278.89 97.05 281.60 95.17Q284.31 93.29 285.79 90.02L285.79 90.02L285.79 72.44Q284.45 69.10 281.79 67.01Q279.14 64.91 274.85 64.91L274.85 64.91Q271.13 64.91 268.59 66.95Q266.06 68.99 264.83 72.53Q263.60 76.06 263.60 80.63L263.60 80.63L263.60 81.37Q263.60 85.90 264.83 89.45Q266.06 93.00 268.56 95.03Q271.05 97.05 274.78 97.05L274.78 97.05ZM317.60 61.26Q323.51 61.26 326.62 64.60Q329.73 67.94 329.73 75.21L329.73 75.21L329.73 100L325.51 100L325.51 75.21Q325.51 69.59 323.23 67.23Q320.94 64.88 316.55 64.88L316.55 64.88Q312.43 64.88 309.52 67.46Q306.60 70.05 305.23 73.88L305.23 73.88L305.23 100L301.01 100L301.01 46L305.23 46L305.23 68.32Q307.27 65.02 310.46 63.14Q313.66 61.26 317.60 61.26L317.60 61.26ZM355.50 96.63L355.68 100.14Q354.94 100.39 353.69 100.54Q352.44 100.70 351.18 100.70L351.18 100.70Q347.24 100.70 345.06 98.42Q342.88 96.13 342.88 90.72L342.88 90.72L342.88 65.41L335.92 65.41L335.92 61.96L342.88 61.96L342.88 52.19L347.13 52.19L347.13 61.96L354.97 61.96L354.97 65.41L347.13 65.41L347.13 90.72Q347.13 94.38 348.45 95.69Q349.77 97.01 352.05 97.01L352.05 97.01Q353.32 97.01 355.50 96.63L355.50 96.63Z"/></svg>