<svg xmlns="http://www.w3.org/2000/svg" viewBox="5.94140625 46 444.0234375 69.01171875"><path d="M38 49L45 49L45 100L38 100L38 76L13 76L13 100L6 100L6 49L13 49L13 71L38 71L38 49ZM87 80L87 83L61 83Q61 86 63 89Q64 92 67 94Q69 95 72 95L72 95Q76 95 78 94Q81 93 82 90L82 90L86 93Q84 97 81 99Q77 101 72 101L72 101Q67 101 63 98Q59 96 57 92Q55 88 55 82L55 82L55 81Q55 75 57 70Q59 66 63 64Q67 61 71 61L71 61Q77 61 80 64Q84 66 85 70Q87 74 87 80L87 80ZM80 78L80 77Q80 73 78 70Q76 67 71 67L71 67Q67 67 65 69Q62 72 61 78L61 78L80 78ZM125 80L125 83L99 83Q100 86 101 89Q102 92 105 94Q107 95 111 95L111 95Q114 95 116 94Q119 93 121 90L121 90L125 93Q123 97 119 99Q116 101 110 101L110 101Q105 101 101 98Q97 96 95 92Q93 88 93 82L93 82L93 81Q93 75 95 70Q97 66 101 64Q105 61 109 61L109 61Q115 61 118 64Q122 66 123 70Q125 74 125 80L125 80ZM119 78L119 77Q118 73 116 70Q114 67 109 67L109 67Q106 67 103 69Q100 72 100 78L100 78L119 78ZM150 61Q155 61 158 64Q161 66 163 70Q165 75 165 81L165 81L165 81Q165 87 163 91Q161 96 158 98Q155 101 150 101L150 101Q143 101 139 96L139 96L139 100L133 100L133 46L139 46L139 66Q143 61 150 61L150 61ZM158 81L158 81Q158 74 156 71Q154 67 148 67L148 67Q145 67 143 68Q141 70 139 73L139 73L139 89Q141 92 143 94Q145 95 149 95L149 95Q153 95 156 91Q158 88 158 81L158 81ZM171 81Q171 75 174 71Q176 66 180 64Q184 61 189 61L189 61Q194 61 198 64Q202 66 204 71Q206 75 206 81L206 81L206 81Q206 87 204 91Q202 96 198 98Q194 101 189 101L189 101Q184 101 180 98Q176 96 174 91Q171 87 171 81L171 81L171 81ZM178 81Q178 85 179 88Q180 92 183 94Q185 95 189 95L189 95Q192 95 195 94Q197 92 198 88Q200 85 200 81L200 81L200 81Q200 77 198 74Q197 70 195 68Q192 67 189 67L189 67Q185 67 183 68Q180 70 179 74Q178 77 178 81L178 81L178 81ZM248 61Q248 61 249 61Q250 62 251 62L251 62L251 68Q249 67 247 67L247 67Q244 67 242 69Q240 70 239 73L239 73L239 100L232 100L232 62L239 62L239 66Q240 64 242 63Q245 61 248 61L248 61ZM287 80L287 83L261 83Q262 86 263 89Q264 92 267 94Q269 95 273 95L273 95Q276 95 278 94Q281 93 283 90L283 90L287 93Q285 97 281 99Q278 101 272 101L272 101Q267 101 263 98Q259 96 257 92Q255 88 255 82L255 82L255 81Q255 75 257 70Q259 66 263 64Q267 61 271 61L271 61Q277 61 280 64Q284 66 285 70Q287 74 287 80L287 80ZM281 78L281 77Q280 73 278 70Q276 67 271 67L271 67Q268 67 265 69Q262 72 262 78L262 78L281 78ZM319 62L325 62L325 99Q325 104 323 108Q321 111 318 113Q314 115 309 115L309 115Q307 115 304 114Q302 114 299 112Q297 111 295 108L295 108L299 105Q303 110 309 110L309 110Q313 110 316 107Q319 104 319 100L319 100L319 96Q315 101 308 101L308 101Q304 101 300 98Q297 96 295 91Q293 87 293 81L293 81L293 81Q293 75 295 71Q297 66 300 64Q304 61 308 61L308 61Q315 61 319 66L319 66L319 62ZM310 95Q316 95 319 90L319 90L319 72Q317 70 315 68Q313 67 310 67L310 67Q306 67 304 69Q302 70 301 74Q300 77 300 81L300 81L300 81Q300 85 301 88Q302 92 304 93Q306 95 310 95L310 95ZM358 62L365 62L365 100L359 100L359 96Q355 101 347 101L347 101Q342 101 338 97Q335 94 335 87L335 87L335 62L342 62L342 87Q342 91 344 93Q345 95 349 95L349 95Q356 95 358 90L358 90L358 62ZM382 100L375 100L375 46L382 46L382 100ZM421 92Q421 94 422 96Q422 98 423 99L423 99L423 100L416 100Q415 99 415 96L415 96Q413 98 410 99Q407 101 404 101L404 101Q400 101 397 99Q394 98 393 95Q391 93 391 89L391 89Q391 85 393 83Q395 80 399 78Q403 77 408 77L408 77L415 77L415 74Q415 70 413 68Q411 66 407 66L407 66Q404 66 403 67Q401 68 400 70Q399 71 399 73L399 73L392 73Q392 70 394 67Q396 65 399 63Q403 61 407 61L407 61Q411 61 415 63Q418 64 420 67Q421 70 421 74L421 74L421 92ZM405 95Q407 95 409 94Q411 93 413 92Q414 91 415 89L415 89L415 82L409 82Q404 82 401 83Q398 85 398 89L398 89Q398 90 399 92Q400 93 401 94Q403 95 405 95L405 95ZM447 61Q448 61 449 61Q450 62 450 62L450 62L450 68Q448 67 447 67L447 67Q444 67 441 69Q439 70 438 73L438 73L438 100L432 100L432 62L438 62L438 66Q440 64 442 63Q444 61 447 61L447 61Z"/></svg>