<svg xmlns="http://www.w3.org/2000/svg" viewBox="4.39453125 46 360.80859375 54.703125"><path d="M35 49L46 49L46 100L35 100L35 78L15 78L15 100L4 100L4 49L15 49L15 69L35 69L35 49ZM88 80L88 84L64 84Q65 88 67 90Q69 92 73 92L73 92Q76 92 78 91Q80 90 82 88L82 88L87 94Q85 97 81 99Q78 101 72 101L72 101Q67 101 62 98Q58 96 56 92Q53 87 53 82L53 82L53 81Q53 75 55 71Q58 66 62 64Q66 61 71 61L71 61Q77 61 80 64Q84 66 86 70Q88 74 88 80L88 80ZM78 77L78 76Q78 73 76 72Q74 70 71 70L71 70Q68 70 66 72Q65 74 64 77L64 77L78 77ZM127 80L127 84L103 84Q104 88 106 90Q108 92 112 92L112 92Q115 92 117 91Q119 90 121 88L121 88L126 94Q124 97 120 99Q117 101 111 101L111 101Q106 101 101 98Q97 96 95 92Q92 87 92 82L92 82L92 81Q92 75 94 71Q97 66 101 64Q105 61 110 61L110 61Q116 61 119 64Q123 66 125 70Q127 74 127 80L127 80ZM117 77L117 76Q117 73 115 72Q113 70 110 70L110 70Q107 70 105 72Q104 74 103 77L103 77L117 77ZM152 61Q157 61 161 64Q164 66 166 70Q167 75 167 81L167 81L167 81Q167 87 166 91Q164 96 161 98Q157 101 152 101L152 101Q146 101 143 96L143 96L142 100L133 100L133 46L143 46L143 65Q147 61 152 61L152 61ZM157 81L157 81Q157 76 155 73Q154 70 150 70L150 70Q145 70 143 74L143 74L143 88Q145 92 150 92L150 92Q154 92 155 89Q157 87 157 81L157 81ZM172 81Q172 75 174 71Q176 66 180 64Q184 61 190 61L190 61Q195 61 199 64Q204 66 206 71Q208 75 208 81L208 81L208 81Q208 87 206 91Q204 96 200 98Q195 101 190 101L190 101Q184 101 180 98Q176 96 174 91Q172 87 172 81L172 81L172 81ZM182 81Q182 86 184 89Q186 92 190 92L190 92Q194 92 195 89Q197 86 197 81L197 81L197 81Q197 76 195 73Q194 70 190 70L190 70Q186 70 184 73Q182 76 182 81L182 81L182 81ZM251 61Q256 61 260 64Q263 66 265 70Q266 75 266 81L266 81L266 81Q266 87 265 91Q263 96 260 98Q256 101 252 101L252 101Q245 101 242 96L242 96L241 100L232 100L232 46L242 46L242 65Q246 61 251 61L251 61ZM256 81L256 81Q256 76 254 73Q253 70 249 70L249 70Q244 70 242 74L242 74L242 88Q244 92 249 92L249 92Q253 92 254 89Q256 87 256 81L256 81ZM271 81Q271 75 273 71Q275 66 279 64Q283 61 289 61L289 61Q295 61 299 64Q303 66 305 71Q307 75 307 81L307 81L307 81Q307 87 305 91Q303 96 299 98Q295 101 289 101L289 101Q283 101 279 98Q275 96 273 91Q271 87 271 81L271 81L271 81ZM281 81Q281 86 283 89Q285 92 289 92L289 92Q293 92 295 89Q296 86 296 81L296 81L296 81Q296 76 295 73Q293 70 289 70L289 70Q285 70 283 73Q281 76 281 81L281 81L281 81ZM324 100L313 100L313 46L324 46L324 100ZM355 46L365 46L365 100L356 100L355 96Q351 101 345 101L345 101Q341 101 338 98Q334 96 332 91Q331 87 331 81L331 81L331 81Q331 75 332 71Q334 66 338 64Q341 61 346 61L346 61Q351 61 355 65L355 65L355 46ZM348 92Q353 92 355 88L355 88L355 74Q353 70 348 70L348 70Q345 70 343 73Q341 76 341 81L341 81L341 81Q341 86 343 89Q345 92 348 92L348 92Z"/></svg>