<svg xmlns="http://www.w3.org/2000/svg" viewBox="4.39453125 46 360.80859375 54.703125"><path d="M35.37 48.81L46.37 48.81L46.37 100L35.37 100L35.37 78.27L15.43 78.27L15.43 100L4.39 100L4.39 48.81L15.43 48.81L15.43 69.38L35.37 69.38L35.37 48.81ZM88.10 79.93L88.10 84.43L64.05 84.43Q64.65 87.98 67.01 90.07Q69.36 92.16 73.05 92.16L73.05 92.16Q75.80 92.16 78.13 91.12Q80.47 90.09 82.13 88.01L82.13 88.01L87.22 93.88Q85.22 96.77 81.37 98.73Q77.52 100.70 72.35 100.70L72.35 100.70Q66.52 100.70 62.21 98.24Q57.90 95.78 55.60 91.56Q53.30 87.34 53.30 82.25L53.30 82.25L53.30 80.91Q53.30 75.21 55.44 70.75Q57.59 66.29 61.63 63.77Q65.67 61.26 71.19 61.26L71.19 61.26Q76.57 61.26 80.37 63.54Q84.16 65.83 86.13 70.03Q88.10 74.23 88.10 79.93L88.10 79.93ZM77.70 77.32L77.70 76.48Q77.63 73.39 75.99 71.59Q74.36 69.80 71.12 69.80L71.12 69.80Q68.10 69.80 66.39 71.80Q64.69 73.81 64.16 77.32L64.16 77.32L77.70 77.32ZM127.13 79.93L127.13 84.43L103.08 84.43Q103.68 87.98 106.03 90.07Q108.39 92.16 112.08 92.16L112.08 92.16Q114.82 92.16 117.16 91.12Q119.50 90.09 121.15 88.01L121.15 88.01L126.25 93.88Q124.24 96.77 120.39 98.73Q116.54 100.70 111.38 100.70L111.38 100.70Q105.54 100.70 101.23 98.24Q96.93 95.78 94.62 91.56Q92.32 87.34 92.32 82.25L92.32 82.25L92.32 80.91Q92.32 75.21 94.46 70.75Q96.61 66.29 100.65 63.77Q104.70 61.26 110.21 61.26L110.21 61.26Q115.59 61.26 119.39 63.54Q123.19 65.83 125.16 70.03Q127.13 74.23 127.13 79.93L127.13 79.93ZM116.72 77.32L116.72 76.48Q116.65 73.39 115.01 71.59Q113.38 69.80 110.14 69.80L110.14 69.80Q107.12 69.80 105.42 71.80Q103.71 73.81 103.18 77.32L103.18 77.32L116.72 77.32ZM152.33 61.26Q157.22 61.26 160.56 63.70Q163.90 66.14 165.55 70.49Q167.20 74.83 167.20 80.56L167.20 80.56L167.20 81.30Q167.20 87.10 165.55 91.47Q163.90 95.85 160.59 98.28Q157.29 100.70 152.40 100.70L152.40 100.70Q146.32 100.70 142.70 95.96L142.70 95.96L142.21 100L132.68 100L132.68 46L143.30 46L143.30 65.27Q146.74 61.26 152.33 61.26L152.33 61.26ZM156.59 81.30L156.59 80.56Q156.59 75.60 155.06 72.72Q153.53 69.84 149.66 69.84L149.66 69.84Q145.02 69.84 143.30 73.56L143.30 73.56L143.30 88.40Q144.98 92.13 149.73 92.13L149.73 92.13Q153.63 92.13 155.11 89.35Q156.59 86.57 156.59 81.30L156.59 81.30ZM171.63 80.63Q171.63 75.04 173.76 70.64Q175.89 66.25 179.96 63.75Q184.04 61.26 189.70 61.26L189.70 61.26Q195.40 61.26 199.49 63.75Q203.59 66.25 205.72 70.64Q207.84 75.04 207.84 80.63L207.84 80.63L207.84 81.37Q207.84 86.96 205.72 91.33Q203.59 95.71 199.51 98.21Q195.43 100.70 189.77 100.70L189.77 100.70Q184.08 100.70 179.98 98.21Q175.89 95.71 173.76 91.33Q171.63 86.96 171.63 81.37L171.63 81.37L171.63 80.63ZM182.25 81.37Q182.25 86.29 184.04 89.22Q185.84 92.16 189.77 92.16L189.77 92.16Q193.64 92.16 195.43 89.21Q197.23 86.25 197.23 81.37L197.23 81.37L197.23 80.63Q197.23 75.78 195.43 72.79Q193.64 69.80 189.70 69.80L189.70 69.80Q185.84 69.80 184.04 72.81Q182.25 75.81 182.25 80.63L182.25 80.63L182.25 81.37ZM251.44 61.26Q256.32 61.26 259.66 63.70Q263.00 66.14 264.66 70.49Q266.31 74.83 266.31 80.56L266.31 80.56L266.31 81.30Q266.31 87.10 264.66 91.47Q263.00 95.85 259.70 98.28Q256.39 100.70 251.51 100.70L251.51 100.70Q245.43 100.70 241.80 95.96L241.80 95.96L241.31 100L231.79 100L231.79 46L242.40 46L242.40 65.27Q245.85 61.26 251.44 61.26L251.44 61.26ZM255.69 81.30L255.69 80.56Q255.69 75.60 254.16 72.72Q252.63 69.84 248.77 69.84L248.77 69.84Q244.13 69.84 242.40 73.56L242.40 73.56L242.40 88.40Q244.09 92.13 248.84 92.13L248.84 92.13Q252.74 92.13 254.21 89.35Q255.69 86.57 255.69 81.30L255.69 81.30ZM270.74 80.63Q270.74 75.04 272.87 70.64Q274.99 66.25 279.07 63.75Q283.15 61.26 288.81 61.26L288.81 61.26Q294.50 61.26 298.60 63.75Q302.70 66.25 304.82 70.64Q306.95 75.04 306.95 80.63L306.95 80.63L306.95 81.37Q306.95 86.96 304.82 91.33Q302.70 95.71 298.62 98.21Q294.54 100.70 288.88 100.70L288.88 100.70Q283.18 100.70 279.09 98.21Q274.99 95.71 272.87 91.33Q270.74 86.96 270.74 81.37L270.74 81.37L270.74 80.63ZM281.36 81.37Q281.36 86.29 283.15 89.22Q284.94 92.16 288.88 92.16L288.88 92.16Q292.75 92.16 294.54 89.21Q296.33 86.25 296.33 81.37L296.33 81.37L296.33 80.63Q296.33 75.78 294.54 72.79Q292.75 69.80 288.81 69.80L288.81 69.80Q284.94 69.80 283.15 72.81Q281.36 75.81 281.36 80.63L281.36 80.63L281.36 81.37ZM324.14 100L313.49 100L313.49 46L324.14 46L324.14 100ZM354.59 46L365.20 46L365.20 100L355.64 100L355.11 95.92Q351.39 100.70 345.48 100.70L345.48 100.70Q340.88 100.70 337.52 98.22Q334.16 95.75 332.42 91.39Q330.68 87.03 330.68 81.44L330.68 81.44L330.68 80.70Q330.68 74.90 332.42 70.50Q334.16 66.11 337.52 63.68Q340.88 61.26 345.55 61.26L345.55 61.26Q350.96 61.26 354.59 65.37L354.59 65.37L354.59 46ZM348.19 92.13Q352.65 92.13 354.59 88.33L354.59 88.33L354.59 73.63Q352.76 69.84 348.26 69.84L348.26 69.84Q344.64 69.84 342.97 72.79Q341.30 75.74 341.30 80.70L341.30 80.70L341.30 81.44Q341.30 86.32 342.93 89.22Q344.57 92.13 348.19 92.13L348.19 92.13Z"/></svg>