<svg xmlns="http://www.w3.org/2000/svg" viewBox="0.8 -7.12 17.81 7.2"><path d="M4.90-3.72L4.90-6.74L5.52-6.74L5.52 0L4.90 0L4.90-3.15L1.42-3.15L1.42 0L0.80 0L0.80-6.74L1.42-6.74L1.42-3.72L4.90-3.72ZM7.73 0L7.12 0L7.12-5.07L7.73-5.07L7.73 0ZM7.12-6.39Q7-6.51 7-6.69Q7-6.87 7.12-7.00Q7.24-7.12 7.42-7.12Q7.60-7.12 7.73-7.00Q7.85-6.87 7.85-6.69Q7.85-6.51 7.73-6.39Q7.60-6.27 7.42-6.27Q7.24-6.27 7.12-6.39ZM9.29-5.07L9.90-5.07L9.90-4.20Q10.37-5.15 11.51-5.15L11.51-5.15Q12.24-5.15 12.68-4.70Q13.12-4.25 13.12-3.54L13.12-3.54L13.12 0L12.51 0L12.51-3.35Q12.51-3.94 12.21-4.25Q11.91-4.56 11.42-4.56L11.42-4.56Q10.80-4.56 10.35-4.08Q9.90-3.61 9.90-2.80L9.90-2.80L9.90 0L9.29 0L9.29-5.07ZM15.34-1.05Q15.76-0.50 16.41-0.50Q17.06-0.50 17.53-0.97Q18-1.45 18-2.56L18-2.56Q18-3.12 17.84-3.54Q17.69-3.95 17.45-4.17Q17.20-4.38 16.96-4.48Q16.71-4.57 16.47-4.57L16.47-4.57Q15.79-4.57 15.35-4.03Q14.91-3.48 14.91-2.47L14.91-2.47Q14.91-1.60 15.34-1.05ZM18-4.31L18-7.07L18.61-7.07L18.61 0L18 0L18-0.74Q17.47 0.08 16.43 0.08L16.43 0.08Q15.41 0.08 14.84-0.67Q14.27-1.41 14.27-2.48L14.27-2.48Q14.27-3.66 14.88-4.41Q15.49-5.15 16.45-5.15L16.45-5.15Q17.44-5.15 18-4.31L18-4.31Z"/></svg>