<svg xmlns="http://www.w3.org/2000/svg" viewBox="5.760000000000001 48.736 547.848 65.01600000000002"><path d="M40 51L40 100L35 100L35 77L10 77L10 100L6 100L6 51L10 51L10 73L35 73L35 51L40 51ZM56 63L56 100L51 100L51 63L56 63ZM56 50Q57 51 57 52Q57 53 56 54Q55 55 53 55Q52 55 51 54Q50 53 50 52Q50 51 51 50Q52 49 53 49Q55 49 56 50ZM94 75L94 100L90 100L90 76Q90 72 88 69Q86 67 82 67L82 67Q78 67 75 71Q71 74 71 80L71 80L71 100L67 100L67 63L71 63L71 70Q75 63 83 63L83 63Q88 63 91 66Q94 69 94 75L94 75ZM107 82L107 82Q107 88 110 92Q113 96 118 96Q123 96 126 93Q130 90 130 82L130 82Q130 78 128 75Q127 72 126 70Q124 68 122 68Q120 67 119 67L119 67Q114 67 111 71Q107 75 107 82ZM134 49L134 100L130 100L130 95Q126 101 118 101L118 101Q111 101 107 95Q103 90 103 82L103 82Q103 74 107 68Q112 63 118 63L118 63Q126 63 130 69L130 69L130 49L134 49ZM168 81L167 100L162 100L166 51L172 51L178 69L187 94Q192 80 196 69L196 69L202 51L209 51L213 100L208 100L206 81L205 57Q200 69 196 81L196 81L189 99L184 99L178 81L170 58Q169 69 168 81L168 81ZM234 96L234 96Q238 96 241 94Q244 92 244 88L244 88L244 83L236 83Q231 83 229 85Q226 87 226 90L226 90Q226 93 228 94Q230 96 234 96ZM244 100L244 96Q240 100 233 100L233 100Q228 100 225 97Q222 94 222 90L222 90Q222 84 226 82Q230 79 236 79L236 79L244 79L244 77Q244 72 241 70Q239 67 234 67L234 67Q229 67 224 70L224 70L224 65Q228 63 235 63L235 63Q248 63 248 77L248 77L248 100L244 100ZM261 82L261 82Q261 88 264 92Q267 96 272 96Q276 96 280 93Q283 90 283 82L283 82Q283 78 282 75Q281 72 279 70Q277 68 276 68Q274 67 272 67L272 67Q267 67 264 71Q261 75 261 82ZM287 49L287 100L283 100L283 95Q279 101 272 101L272 101Q264 101 260 95Q256 90 256 82L256 82Q256 74 261 68Q265 63 272 63L272 63Q279 63 283 69L283 69L283 49L287 49ZM326 63L326 100L321 100L321 93Q318 101 310 101L310 101Q304 101 301 97Q298 94 298 89L298 89L298 63L302 63L302 88Q302 92 305 94Q307 96 310 96L310 96Q315 96 318 93Q321 89 321 84L321 84L321 63L326 63ZM341 80L341 100L336 100L336 63L341 63L341 70Q344 63 351 63L351 63Q352 63 353 63L353 63L353 68Q351 67 350 67L350 67Q346 67 343 71Q341 75 341 80L341 80ZM370 96L370 96Q374 96 377 94Q379 92 379 88L379 88L379 83L372 83Q367 83 364 85Q362 87 362 90L362 90Q362 93 364 94Q366 96 370 96ZM379 100L379 96Q376 100 369 100L369 100Q364 100 360 97Q357 94 357 90L357 90Q357 84 361 82Q365 79 372 79L372 79L379 79L379 77Q379 72 377 70Q375 67 370 67L370 67Q364 67 360 70L360 70L360 65Q364 63 370 63L370 63Q384 63 384 77L384 77L384 100L379 100ZM399 63L399 100L394 100L394 63L399 63ZM399 50Q400 51 400 52Q400 53 399 54Q398 55 397 55Q395 55 394 54Q393 53 393 52Q393 51 394 50Q395 49 397 49Q398 49 399 50ZM432 49L432 100L428 100L428 49L432 49ZM448 63L448 100L444 100L444 63L448 63ZM448 50Q449 51 449 52Q449 53 448 54Q447 55 446 55Q444 55 444 54Q443 53 443 52Q443 51 444 50Q444 49 446 49Q447 49 448 50ZM488 63L488 97Q488 105 483 110Q479 114 472 114L472 114Q465 114 461 112L461 112L461 107Q465 110 471 110L471 110Q477 110 480 107Q483 104 483 97L483 97L483 92Q479 99 472 99L472 99Q466 99 461 94Q457 90 457 82L457 82Q457 74 461 68Q465 63 472 63L472 63Q480 63 483 70L483 70L483 63L488 63ZM462 82L462 82Q462 88 465 92Q468 95 472 95L472 95Q476 95 480 92Q483 89 483 82L483 82Q483 74 480 71Q477 67 473 67L473 67Q467 67 465 71Q462 75 462 82ZM526 75L526 100L521 100L521 76Q521 72 519 69Q517 67 513 67L513 67Q509 67 506 71Q502 74 502 80L502 80L502 100L498 100L498 49L502 49L502 70Q506 63 514 63L514 63Q519 63 522 66Q526 69 526 75L526 75ZM554 95L554 99Q552 100 549 100L549 100Q538 100 538 90L538 90L538 67L532 67L532 63L538 63L538 54L543 54L543 63L553 63L553 67L543 67L543 90Q543 96 549 96L549 96Q552 96 554 95L554 95Z"/></svg>