<svg xmlns="http://www.w3.org/2000/svg" viewBox="0.7000000000000001 -7.3100000000000005 52.49 9.26"><path d="M6-6.74L6 0L4.73 0L4.73-2.83L1.96-2.83L1.96 0L0.70 0L0.70-6.74L1.96-6.74L1.96-3.92L4.73-3.92L4.73-6.74L6-6.74ZM8.60-5.07L8.60 0L7.40 0L7.40-5.07L8.60-5.07ZM8.72-6.59L8.72-6.59Q8.72-6.28 8.51-6.07Q8.30-5.86 8-5.86Q7.70-5.86 7.49-6.07Q7.28-6.28 7.28-6.59L7.28-6.59Q7.28-6.89 7.49-7.10Q7.70-7.31 8-7.31Q8.30-7.31 8.51-7.10Q8.72-6.89 8.72-6.59ZM14.35-3.37L14.35 0L13.15 0L13.15-3.12Q13.15-3.62 12.91-3.88Q12.67-4.13 12.26-4.13L12.26-4.13Q11.79-4.13 11.47-3.77Q11.15-3.40 11.15-2.72L11.15-2.72L11.15 0L9.95 0L9.95-5.07L11.15-5.07L11.15-4.20Q11.58-5.13 12.71-5.13L12.71-5.13Q13.47-5.13 13.91-4.67Q14.35-4.21 14.35-3.37L14.35-3.37ZM16.56-2.51L16.56-2.51Q16.56-1.82 16.91-1.39Q17.26-0.96 17.78-0.96L17.78-0.96Q18.32-0.96 18.68-1.38Q19.04-1.79 19.04-2.58L19.04-2.58Q19.04-3.35 18.66-3.73Q18.28-4.12 17.79-4.12L17.79-4.12Q17.27-4.12 16.92-3.70Q16.56-3.27 16.56-2.51ZM20.24-7.07L20.24 0L19.04 0L19.04-0.79Q18.52 0.07 17.50 0.07L17.50 0.07Q16.50 0.07 15.92-0.69Q15.33-1.45 15.33-2.53L15.33-2.53Q15.33-3.73 15.95-4.44Q16.56-5.14 17.52-5.14L17.52-5.14Q18.51-5.14 19.04-4.29L19.04-4.29L19.04-7.07L20.24-7.07ZM28.07-1.89L28.07-1.89Q28.07-0.99 27.43-0.46Q26.78 0.08 25.73 0.08L25.73 0.08Q24.59 0.08 23.84-0.35L23.84-0.35L23.84-1.64Q24.70-1.02 25.72-1.02L25.72-1.02Q26.18-1.02 26.46-1.25Q26.74-1.47 26.74-1.85L26.74-1.85Q26.74-2.03 26.67-2.17Q26.60-2.31 26.39-2.45Q26.17-2.59 26.05-2.65Q25.94-2.71 25.58-2.87L25.58-2.87Q25.48-2.92 25.43-2.94L25.43-2.94Q25.06-3.11 24.83-3.25Q24.60-3.38 24.33-3.61Q24.06-3.84 23.93-4.16Q23.79-4.48 23.79-4.89L23.79-4.89Q23.79-5.75 24.43-6.27Q25.06-6.79 26.11-6.79L26.11-6.79Q27.06-6.79 27.75-6.46L27.75-6.46L27.75-5.24Q27-5.69 26.15-5.69L26.15-5.69Q25.68-5.69 25.41-5.48Q25.15-5.27 25.15-4.94Q25.15-4.61 25.44-4.40Q25.72-4.18 26.29-3.92L26.29-3.92Q26.69-3.74 26.94-3.60Q27.19-3.47 27.48-3.23Q27.78-2.99 27.93-2.66Q28.07-2.32 28.07-1.89ZM30.38-5.07L30.38 0L29.18 0L29.18-5.07L30.38-5.07ZM30.50-6.59L30.50-6.59Q30.50-6.28 30.29-6.07Q30.08-5.86 29.78-5.86Q29.48-5.86 29.27-6.07Q29.06-6.28 29.06-6.59L29.06-6.59Q29.06-6.89 29.27-7.10Q29.48-7.31 29.78-7.31Q30.08-7.31 30.29-7.10Q30.50-6.89 30.50-6.59ZM32.98-7.07L32.98 0L31.78 0L31.78-7.07L32.98-7.07ZM35.58-5.07L35.58 0L34.38 0L34.38-5.07L35.58-5.07ZM35.70-6.59L35.70-6.59Q35.70-6.28 35.49-6.07Q35.28-5.86 34.98-5.86Q34.68-5.86 34.47-6.07Q34.26-6.28 34.26-6.59L34.26-6.59Q34.26-6.89 34.47-7.10Q34.68-7.31 34.98-7.31Q35.28-7.31 35.49-7.10Q35.70-6.89 35.70-6.59ZM41.40-5.07L41.40-0.46Q41.40 0.74 40.70 1.34Q40.01 1.95 38.94 1.95L38.94 1.95Q37.94 1.95 37.19 1.59L37.19 1.59L37.19 0.37Q37.87 0.85 38.82 0.85L38.82 0.85Q40.20 0.85 40.20-0.47L40.20-0.47L40.20-0.91Q39.74-0.16 38.76-0.16L38.76-0.16Q37.91-0.16 37.30-0.79Q36.70-1.41 36.70-2.60L36.70-2.60Q36.70-3.70 37.27-4.42Q37.85-5.13 38.79-5.13L38.79-5.13Q39.74-5.13 40.20-4.34L40.20-4.34L40.20-5.07L41.40-5.07ZM37.95-2.60L37.95-2.60Q37.95-1.89 38.26-1.52Q38.57-1.14 39.05-1.14L39.05-1.14Q39.54-1.14 39.87-1.53Q40.20-1.91 40.20-2.53L40.20-2.53Q40.20-3.34 39.88-3.72Q39.56-4.10 39.07-4.10L39.07-4.10Q38.55-4.10 38.25-3.70Q37.95-3.29 37.95-2.60ZM46.99-5.07L46.99 0L45.78 0L45.78-0.83Q45.38 0.05 44.22 0.05L44.22 0.05Q43.45 0.05 43.02-0.39Q42.59-0.83 42.59-1.64L42.59-1.64L42.59-5.07L43.79-5.07L43.79-1.92Q43.79-1.44 44.03-1.19Q44.26-0.94 44.67-0.94L44.67-0.94Q45.19-0.94 45.48-1.29Q45.78-1.64 45.78-2.35L45.78-2.35L45.78-5.07L46.99-5.07ZM49.49-2.62L49.49 0L48.28 0L48.29-5.07L49.49-5.07L49.49-4.17Q49.84-5.11 50.77-5.11L50.77-5.11Q50.98-5.11 51.11-5.08L51.11-5.08L51.11-3.92Q50.88-4.02 50.60-4.02L50.60-4.02Q50.11-4.02 49.80-3.62Q49.49-3.22 49.49-2.62L49.49-2.62ZM53.07-5.07L53.07 0L51.87 0L51.87-5.07L53.07-5.07ZM53.19-6.59L53.19-6.59Q53.19-6.28 52.98-6.07Q52.77-5.86 52.47-5.86Q52.17-5.86 51.96-6.07Q51.75-6.28 51.75-6.59L51.75-6.59Q51.75-6.89 51.96-7.10Q52.17-7.31 52.47-7.31Q52.77-7.31 52.98-7.10Q53.19-6.89 53.19-6.59Z"/></svg>