<svg xmlns="http://www.w3.org/2000/svg" viewBox="4.680000000000001 46.791999999999994 312.6960000000001 53.784"><path d="M34 71L34 51L45 51L45 100L34 100L34 81L16 81L16 100L5 100L5 51L16 51L16 71L34 71ZM65 100L54 100L54 63L65 63L65 100ZM55 57Q53 55 53 53Q53 50 55 49Q57 47 59 47Q62 47 64 49Q65 50 65 53Q65 55 64 57Q62 59 59 59Q57 59 55 57ZM74 63L84 63L84 70Q85 67 88 65Q91 63 95 63L95 63Q101 63 104 66Q107 70 107 76L107 76L107 100L97 100L97 78Q97 75 95 73Q94 72 91 72L91 72Q88 72 86 74Q84 76 84 81L84 81L84 100L74 100L74 63ZM132 92L132 92Q136 92 138 89Q140 86 140 81L140 81Q140 77 138 74Q135 72 132 72Q129 72 126 74Q124 77 124 82L124 82Q124 86 127 89Q129 92 132 92ZM140 69L140 49L151 49L151 100L140 100L140 94Q137 100 129 100L129 100Q122 100 118 95Q114 89 114 82L114 82Q114 73 118 68Q122 63 129 63L129 63Q136 63 140 69L140 69ZM196 92L196 92Q199 92 202 89Q204 86 204 82L204 82Q204 77 202 74Q199 72 196 72Q193 72 190 74Q188 77 188 81L188 81Q188 86 190 89Q192 92 196 92ZM177 49L188 49L188 69Q192 63 199 63L199 63Q206 63 210 68Q214 73 214 82L214 82Q214 89 210 95Q206 100 199 100L199 100Q192 100 188 94L188 94L188 100L177 100L177 49ZM237 101L237 101Q229 101 224 95Q220 90 220 82L220 82Q220 74 224 68Q229 63 237 63L237 63Q246 63 251 68Q255 73 255 82L255 82Q255 90 251 95Q246 101 237 101ZM237 71L237 71Q234 71 232 74Q230 77 230 82Q230 86 232 89Q234 92 238 92L238 92Q241 92 243 90Q244 87 244 82L244 82Q244 71 237 71ZM273 100L263 100L263 49L273 49L273 100ZM299 92L299 92Q302 92 305 89Q307 86 307 81L307 81Q307 77 304 74Q302 72 299 72Q295 72 293 74Q291 77 291 82L291 82Q291 86 293 89Q295 92 299 92ZM307 69L307 49L317 49L317 100L307 100L307 94Q303 100 296 100L296 100Q289 100 285 95Q280 89 280 82L280 82Q280 73 285 68Q289 63 296 63L296 63Q303 63 307 69L307 69Z"/></svg>