<svg xmlns="http://www.w3.org/2000/svg" viewBox="5.040000000000001 47.367999999999995 751.4640000000002 53.208"><path d="M43 51L43 100L34 100L34 80L14 80L14 100L5 100L5 51L14 51L14 72L34 72L34 51L43 51ZM62 63L62 100L53 100L53 63L62 63ZM63 53L63 53Q63 55 61 56Q60 58 58 58Q55 58 54 56Q52 55 52 53L52 53Q52 50 54 49Q55 47 58 47Q60 47 61 49Q63 50 63 53ZM103 76L103 100L95 100L95 78Q95 74 93 72Q91 70 88 70L88 70Q85 70 83 73Q80 76 80 80L80 80L80 100L72 100L72 63L80 63L80 70Q83 63 92 63L92 63Q97 63 100 66Q103 70 103 76L103 76ZM119 82L119 82Q119 87 122 90Q124 93 128 93L128 93Q132 93 134 90Q137 87 137 81L137 81Q137 76 134 73Q132 70 128 70L128 70Q124 70 122 73Q119 76 119 82ZM146 49L146 100L137 100L137 94Q133 101 126 101L126 101Q119 101 115 95Q110 90 110 82L110 82Q110 73 115 68Q119 63 126 63L126 63Q133 63 137 69L137 69L137 49L146 49ZM183 81L182 100L172 100L176 51L187 51L193 69Q195 74 197 78Q198 82 199 85L199 85L199 87Q202 79 206 69L206 69L212 51L223 51L227 100L218 100L217 81L215 64Q213 71 209 81L209 81L202 99L196 99L190 81L184 64Q184 68 183 81L183 81ZM249 94L249 94Q252 94 253 92Q255 90 255 88L255 88L255 84L250 84Q247 84 245 86Q244 87 244 89L244 89Q244 94 249 94ZM255 100L255 96Q253 100 246 100L246 100Q241 100 238 97Q235 94 235 90L235 90Q235 84 238 81Q242 79 250 79L250 79L255 79L255 76Q255 73 253 72Q252 70 248 70L248 70Q242 70 237 73L237 73L237 65Q241 63 249 63L249 63Q264 63 264 77L264 77L264 100L255 100ZM280 82L280 82Q280 87 282 90Q285 93 289 93L289 93Q292 93 295 90Q298 87 298 81L298 81Q298 76 295 73Q292 70 289 70L289 70Q285 70 282 73Q280 76 280 82ZM306 49L306 100L298 100L298 94Q294 101 286 101L286 101Q279 101 275 95Q271 90 271 82L271 82Q271 73 275 68Q280 63 287 63L287 63Q294 63 298 69L298 69L298 49L306 49ZM347 63L347 100L338 100L338 94Q335 100 327 100L327 100Q321 100 318 97Q315 94 315 88L315 88L315 63L324 63L324 86Q324 90 326 91Q327 93 330 93L330 93Q334 93 336 91Q338 88 338 83L338 83L338 63L347 63ZM365 81L365 100L356 100L356 63L365 63L365 70Q367 63 374 63L374 63Q376 63 377 63L377 63L377 72Q375 71 373 71L373 71Q369 71 367 74Q365 77 365 81L365 81ZM394 94L394 94Q397 94 399 92Q400 90 400 88L400 88L400 84L396 84Q392 84 391 86Q389 87 389 89L389 89Q389 94 394 94ZM401 100L401 96Q398 100 391 100L391 100Q386 100 383 97Q380 94 380 90L380 90Q380 84 384 81Q388 79 395 79L395 79L400 79L400 76Q400 73 399 72Q397 70 393 70L393 70Q388 70 383 73L383 73L383 65Q387 63 394 63L394 63Q409 63 409 77L409 77L409 100L401 100ZM427 63L427 100L419 100L419 63L427 63ZM428 53L428 53Q428 55 427 56Q425 58 423 58Q421 58 419 56Q418 55 418 53L418 53Q418 50 419 49Q421 47 423 47Q425 47 427 49Q428 50 428 53ZM479 89L479 89Q479 95 475 97Q471 100 465 100L465 100Q458 100 454 98L454 98L454 90Q459 93 465 93L465 93Q467 93 468 93Q470 92 470 90L470 90Q470 89 469 88Q469 88 468 87Q466 86 466 86Q465 86 463 85L463 85Q463 85 463 85Q463 84 462 84Q462 84 462 84L462 84Q454 81 454 74L454 74Q454 69 458 66Q462 63 467 63L467 63Q473 63 477 65L477 65L477 72Q473 70 468 70L468 70Q465 70 464 71Q463 72 463 74L463 74Q463 74 463 75Q463 75 464 76Q464 76 465 76Q465 77 466 77Q467 78 467 78Q468 78 469 79Q470 79 470 79L470 79Q474 81 476 84Q479 86 479 89ZM513 90L513 98Q510 100 502 100L502 100Q494 100 489 95Q484 90 484 82L484 82Q484 73 488 68Q493 63 500 63Q507 63 511 67Q516 72 516 80L516 80Q516 82 515 85L515 85L492 85Q493 89 496 91Q499 93 504 93L504 93Q509 93 513 90L513 90ZM500 70L500 70Q497 70 495 72Q493 74 492 79L492 79L507 79L507 78Q507 74 506 72Q504 70 500 70ZM575 76L575 100L567 100L567 78Q567 70 561 70L561 70Q558 70 556 73Q554 75 554 80L554 80L554 100L545 100L545 78Q545 70 539 70L539 70Q537 70 534 73Q532 75 532 80L532 80L532 100L524 100L524 63L532 63L532 69Q535 63 543 63L543 63Q551 63 553 70L553 70Q554 67 557 65Q560 63 564 63L564 63Q569 63 572 66Q575 70 575 76L575 76ZM593 63L593 100L585 100L585 63L593 63ZM594 53L594 53Q594 55 593 56Q591 58 589 58Q587 58 585 56Q584 55 584 53L584 53Q584 50 585 49Q587 47 589 47Q591 47 593 49Q594 50 594 53ZM630 94L630 100L621 100L621 49L630 49L630 69Q633 63 641 63L641 63Q647 63 652 68Q656 73 656 82L656 82Q656 90 652 95Q648 101 641 101Q633 101 630 94L630 94ZM630 81L630 81Q630 87 632 90Q635 93 639 93L639 93Q642 93 645 90Q647 87 647 82L647 82Q647 76 645 73Q642 70 639 70L639 70Q635 70 632 73Q630 76 630 81ZM697 82L697 82Q697 90 692 95Q688 101 679 101L679 101Q671 101 666 95Q662 90 662 82L662 82Q662 74 667 68Q671 63 679 63L679 63Q688 63 692 68Q697 74 697 82ZM671 82L671 82Q671 87 673 90Q675 94 679 94L679 94Q684 94 686 90Q688 87 688 82L688 82Q688 77 686 73Q684 70 679 70L679 70Q675 70 673 73Q671 77 671 82ZM713 49L713 100L705 100L705 49L713 49ZM730 82L730 82Q730 87 733 90Q735 93 739 93L739 93Q743 93 745 90Q748 87 748 81L748 81Q748 76 745 73Q742 70 739 70L739 70Q735 70 733 73Q730 76 730 82ZM757 49L757 100L748 100L748 94Q744 101 737 101L737 101Q730 101 725 95Q721 90 721 82L721 82Q721 73 726 68Q730 63 737 63L737 63Q744 63 748 69L748 69L748 49L757 49Z"/></svg>