<svg xmlns="http://www.w3.org/2000/svg" viewBox="5.760000000000001 48.736 282.8160000000001 65.01600000000002"><path d="M35 73L35 51L40 51L40 100L35 100L35 77L10 77L10 100L6 100L6 51L10 51L10 73L35 73ZM56 100L51 100L51 63L56 63L56 100ZM51 54Q50 53 50 52Q50 51 51 50Q52 49 53 49Q55 49 56 50Q57 51 57 52Q57 53 56 54Q55 55 53 55Q52 55 51 54ZM67 63L71 63L71 70Q75 63 83 63L83 63Q88 63 91 66Q94 69 94 75L94 75L94 100L90 100L90 76Q90 72 88 69Q86 67 82 67L82 67Q78 67 75 71Q71 74 71 80L71 80L71 100L67 100L67 63ZM110 92Q113 96 118 96Q123 96 126 93Q130 90 130 82L130 82Q130 78 128 75Q127 72 126 70Q124 68 122 68Q120 67 119 67L119 67Q114 67 111 71Q107 75 107 82L107 82Q107 88 110 92ZM130 69L130 49L134 49L134 100L130 100L130 95Q126 101 118 101L118 101Q111 101 107 95Q103 90 103 82L103 82Q103 74 107 68Q112 63 118 63L118 63Q126 63 130 69L130 69ZM167 100L163 100L163 49L167 49L167 100ZM183 100L179 100L179 63L183 63L183 100ZM179 54Q178 53 178 52Q178 51 179 50Q179 49 181 49Q182 49 183 50Q184 51 184 52Q184 53 183 54Q182 55 181 55Q179 55 179 54ZM207 95L207 95Q211 95 215 92Q218 89 218 82L218 82Q218 74 215 71Q212 67 208 67L208 67Q202 67 200 71Q197 75 197 82L197 82Q197 88 200 92Q203 95 207 95ZM218 70L218 63L222 63L222 97Q222 105 218 110Q214 114 206 114L206 114Q200 114 196 112L196 112L196 107Q200 110 206 110L206 110Q212 110 215 107Q218 104 218 97L218 97L218 92Q214 99 207 99L207 99Q201 99 196 94Q192 90 192 82L192 82Q192 74 196 68Q200 63 207 63L207 63Q215 63 218 70L218 70ZM233 49L237 49L237 70Q241 63 249 63L249 63Q254 63 257 66Q261 69 261 75L261 75L261 100L256 100L256 76Q256 72 254 69Q252 67 248 67L248 67Q244 67 241 71Q237 74 237 80L237 80L237 100L233 100L233 49ZM288 67L278 67L278 90Q278 96 284 96L284 96Q287 96 289 95L289 95L289 99Q286 100 284 100L284 100Q273 100 273 90L273 90L273 67L267 67L267 63L273 63L273 54L278 54L278 63L288 63L288 67Z"/></svg>