<svg xmlns="http://www.w3.org/2000/svg" viewBox="5.256 47.87199999999999 638.7840000000001 66.024"><path d="M41.90 51.47L41.90 100L34.49 100L34.49 78.76L12.67 78.76L12.67 100L5.26 100L5.26 51.47L12.67 51.47L12.67 72.35L34.49 72.35L34.49 51.47L41.90 51.47ZM59.62 63.50L59.62 100L52.49 100L52.49 63.50L59.62 63.50ZM60.48 52.34L60.48 52.34Q60.48 54.14 59.18 55.43Q57.89 56.73 56.02 56.73Q54.14 56.73 52.88 55.47Q51.62 54.21 51.62 52.34Q51.62 50.46 52.88 49.17Q54.14 47.87 56.02 47.87Q57.89 47.87 59.18 49.17Q60.48 50.46 60.48 52.34ZM100.01 75.30L100.01 100L92.95 100L92.95 76.96Q92.95 73.14 91.04 71.13Q89.14 69.11 85.97 69.11L85.97 69.11Q82.22 69.11 79.56 72.03Q76.90 74.94 76.90 80.20L76.90 80.20L76.90 100L69.84 100L69.84 63.50L76.90 63.50L76.90 69.76Q80.14 62.99 88.27 62.99L88.27 62.99Q93.67 62.99 96.84 66.30Q100.01 69.62 100.01 75.30L100.01 75.30ZM114.77 82.07L114.77 82.07Q114.77 87.54 117.47 90.93Q120.17 94.31 124.27 94.31L124.27 94.31Q128.45 94.31 131.33 91.14Q134.21 87.98 134.21 81.50L134.21 81.50Q134.21 75.23 131.22 72.21Q128.23 69.18 124.49 69.18L124.49 69.18Q120.24 69.18 117.50 72.53Q114.77 75.88 114.77 82.07ZM141.34 49.10L141.34 100L134.21 100L134.21 94.46Q130.39 100.50 123.05 100.50L123.05 100.50Q115.85 100.50 111.67 95.07Q107.50 89.63 107.50 81.93L107.50 81.93Q107.50 73.36 111.89 68.18Q116.28 62.99 123.19 62.99L123.19 62.99Q130.32 62.99 134.21 69.04L134.21 69.04L134.21 49.10L141.34 49.10ZM197.06 86.75L197.06 86.75Q197.06 93.16 192.53 96.83Q187.99 100.50 180.79 100.50L180.79 100.50Q172.80 100.50 167.54 97.41L167.54 97.41L167.54 89.70Q173.23 93.95 180.72 93.95L180.72 93.95Q184.68 93.95 186.98 92.12Q189.29 90.28 189.29 87.04L189.29 87.04Q189.29 85.10 187.92 83.48Q186.55 81.86 184.97 81.03Q183.38 80.20 180.22 78.76L180.22 78.76Q178.34 77.90 177.59 77.54Q176.83 77.18 175.10 76.24Q173.38 75.30 172.55 74.66Q171.72 74.01 170.50 72.86Q169.27 71.70 168.73 70.55Q168.19 69.40 167.72 67.85Q167.26 66.30 167.26 64.50L167.26 64.50Q167.26 58.31 171.76 54.71Q176.26 51.11 183.38 51.11L183.38 51.11Q189.94 51.11 194.54 53.42L194.54 53.42L194.54 60.76Q189.72 57.74 183.60 57.74L183.60 57.74Q179.64 57.74 177.37 59.50Q175.10 61.26 175.10 64.14Q175.10 67.02 177.34 68.75Q179.57 70.48 184.18 72.50L184.18 72.50Q187.20 73.79 188.89 74.73Q190.58 75.66 192.78 77.36Q194.98 79.05 196.02 81.39Q197.06 83.73 197.06 86.75ZM212.98 63.50L212.98 100L205.85 100L205.85 63.50L212.98 63.50ZM213.84 52.34L213.84 52.34Q213.84 54.14 212.54 55.43Q211.25 56.73 209.38 56.73Q207.50 56.73 206.24 55.47Q204.98 54.21 204.98 52.34Q204.98 50.46 206.24 49.17Q207.50 47.87 209.38 47.87Q211.25 47.87 212.54 49.17Q213.84 50.46 213.84 52.34ZM230.62 49.10L230.62 100L223.49 100L223.49 49.10L230.62 49.10ZM248.26 63.50L248.26 100L241.13 100L241.13 63.50L248.26 63.50ZM249.12 52.34L249.12 52.34Q249.12 54.14 247.82 55.43Q246.53 56.73 244.66 56.73Q242.78 56.73 241.52 55.47Q240.26 54.21 240.26 52.34Q240.26 50.46 241.52 49.17Q242.78 47.87 244.66 47.87Q246.53 47.87 247.82 49.17Q249.12 50.46 249.12 52.34ZM289.22 63.50L289.22 96.90Q289.22 105.33 284.44 109.61Q279.65 113.90 272.16 113.90L272.16 113.90Q265.10 113.90 260.28 111.52L260.28 111.52L260.28 104.39Q264.89 107.42 271.44 107.42L271.44 107.42Q282.17 107.42 282.17 96.83L282.17 96.83L282.17 93.09Q278.64 98.99 271.58 98.99L271.58 98.99Q265.39 98.99 261 94.42Q256.61 89.85 256.61 81.50L256.61 81.50Q256.61 73.43 260.71 68.21Q264.82 62.99 271.58 62.99L271.58 62.99Q278.86 62.99 282.17 69.18L282.17 69.18L282.17 63.50L289.22 63.50ZM264.02 81.35L264.02 81.35Q264.02 87.04 266.65 89.99Q269.28 92.94 272.88 92.94L272.88 92.94Q276.62 92.94 279.40 90.03Q282.17 87.11 282.17 81.86L282.17 81.86Q282.17 75.38 279.54 72.28Q276.91 69.18 273.17 69.18L273.17 69.18Q268.92 69.18 266.47 72.53Q264.02 75.88 264.02 81.35ZM328.46 63.50L328.46 100L321.41 100L321.41 93.74Q318.53 100.43 310.03 100.43L310.03 100.43Q304.63 100.43 301.46 97.23Q298.30 94.02 298.30 88.41L298.30 88.41L298.30 63.50L305.42 63.50L305.42 86.68Q305.42 90.42 307.26 92.40Q309.10 94.38 312.34 94.38L312.34 94.38Q316.44 94.38 318.92 91.50Q321.41 88.62 321.41 83.37L321.41 83.37L321.41 63.50L328.46 63.50ZM345.46 80.56L345.46 100L338.40 100L338.40 63.50L345.46 63.50L345.46 69.90Q348.12 63.14 355.03 63.14L355.03 63.14Q356.04 63.14 357.26 63.35L357.26 63.35L357.26 70.26Q355.75 69.62 353.88 69.62L353.88 69.62Q350.21 69.62 347.83 72.86Q345.46 76.10 345.46 80.56L345.46 80.56ZM370.22 63.50L370.22 100L363.10 100L363.10 63.50L370.22 63.50ZM371.09 52.34L371.09 52.34Q371.09 54.14 369.79 55.43Q368.50 56.73 366.62 56.73Q364.75 56.73 363.49 55.47Q362.23 54.21 362.23 52.34Q362.23 50.46 363.49 49.17Q364.75 47.87 366.62 47.87Q368.50 47.87 369.79 49.17Q371.09 50.46 371.09 52.34ZM447.41 75.45L447.41 100L440.35 100L440.35 76.96Q440.35 69.11 434.02 69.11L434.02 69.11Q430.85 69.11 428.36 71.92Q425.88 74.73 425.88 80.20L425.88 80.20L425.88 100L418.82 100L418.82 76.96Q418.82 69.11 412.42 69.11L412.42 69.11Q409.32 69.11 406.80 71.92Q404.28 74.73 404.28 80.20L404.28 80.20L404.28 100L397.22 100L397.22 63.50L404.28 63.50L404.28 69.33Q407.38 62.99 414.58 62.99L414.58 62.99Q422.78 62.99 425.09 70.05L425.09 70.05Q426.60 66.66 429.48 64.83Q432.36 62.99 435.96 62.99L435.96 62.99Q441.58 62.99 444.49 66.30Q447.41 69.62 447.41 75.45L447.41 75.45ZM484.20 91.72L484.20 98.06Q480.17 100.36 473.54 100.36L473.54 100.36Q465.05 100.36 460.01 95.25Q454.97 90.14 454.97 81.86L454.97 81.86Q454.97 73.07 459.58 68.07Q464.18 63.06 471.31 63.06L471.31 63.06Q478.30 63.06 482.40 67.42Q486.50 71.78 486.50 79.98L486.50 79.98Q486.50 82.22 486.07 84.66L486.07 84.66L462.10 84.66Q462.82 89.42 466.13 91.94Q469.44 94.46 474.48 94.46L474.48 94.46Q480.31 94.46 484.20 91.72L484.20 91.72ZM471.46 68.90L471.46 68.90Q467.86 68.90 465.26 71.52Q462.67 74.15 462.02 79.12L462.02 79.12L479.66 79.12L479.66 77.82Q479.52 73.72 477.43 71.31Q475.34 68.90 471.46 68.90ZM500.04 82.07L500.04 82.07Q500.04 87.54 502.74 90.93Q505.44 94.31 509.54 94.31L509.54 94.31Q513.72 94.31 516.60 91.14Q519.48 87.98 519.48 81.50L519.48 81.50Q519.48 75.23 516.49 72.21Q513.50 69.18 509.76 69.18L509.76 69.18Q505.51 69.18 502.78 72.53Q500.04 75.88 500.04 82.07ZM526.61 49.10L526.61 100L519.48 100L519.48 94.46Q515.66 100.50 508.32 100.50L508.32 100.50Q501.12 100.50 496.94 95.07Q492.77 89.63 492.77 81.93L492.77 81.93Q492.77 73.36 497.16 68.18Q501.55 62.99 508.46 62.99L508.46 62.99Q515.59 62.99 519.48 69.04L519.48 69.04L519.48 49.10L526.61 49.10ZM543.96 63.50L543.96 100L536.83 100L536.83 63.50L543.96 63.50ZM544.82 52.34L544.82 52.34Q544.82 54.14 543.53 55.43Q542.23 56.73 540.36 56.73Q538.49 56.73 537.23 55.47Q535.97 54.21 535.97 52.34Q535.97 50.46 537.23 49.17Q538.49 47.87 540.36 47.87Q542.23 47.87 543.53 49.17Q544.82 50.46 544.82 52.34ZM583.92 63.50L583.92 100L576.86 100L576.86 93.74Q573.98 100.43 565.49 100.43L565.49 100.43Q560.09 100.43 556.92 97.23Q553.75 94.02 553.75 88.41L553.75 88.41L553.75 63.50L560.88 63.50L560.88 86.68Q560.88 90.42 562.72 92.40Q564.55 94.38 567.79 94.38L567.79 94.38Q571.90 94.38 574.38 91.50Q576.86 88.62 576.86 83.37L576.86 83.37L576.86 63.50L583.92 63.50ZM644.04 75.45L644.04 100L636.98 100L636.98 76.96Q636.98 69.11 630.65 69.11L630.65 69.11Q627.48 69.11 625.00 71.92Q622.51 74.73 622.51 80.20L622.51 80.20L622.51 100L615.46 100L615.46 76.96Q615.46 69.11 609.05 69.11L609.05 69.11Q605.95 69.11 603.43 71.92Q600.91 74.73 600.91 80.20L600.91 80.20L600.91 100L593.86 100L593.86 63.50L600.91 63.50L600.91 69.33Q604.01 62.99 611.21 62.99L611.21 62.99Q619.42 62.99 621.72 70.05L621.72 70.05Q623.23 66.66 626.11 64.83Q628.99 62.99 632.59 62.99L632.59 62.99Q638.21 62.99 641.12 66.30Q644.04 69.62 644.04 75.45L644.04 75.45Z"/></svg>