<svg xmlns="http://www.w3.org/2000/svg" viewBox="5.760000000000001 48.736 498.16800000000006 65.01600000000002"><path d="M40 51L40 100L35 100L35 77L10 77L10 100L6 100L6 51L10 51L10 73L35 73L35 51L40 51ZM56 63L56 100L51 100L51 63L56 63ZM56 50Q57 51 57 52Q57 53 56 54Q55 55 53 55Q52 55 51 54Q50 53 50 52Q50 51 51 50Q52 49 53 49Q55 49 56 50ZM94 75L94 100L90 100L90 76Q90 72 88 69Q86 67 82 67L82 67Q78 67 75 71Q71 74 71 80L71 80L71 100L67 100L67 63L71 63L71 70Q75 63 83 63L83 63Q88 63 91 66Q94 69 94 75L94 75ZM107 82L107 82Q107 88 110 92Q113 96 118 96Q123 96 126 93Q130 90 130 82L130 82Q130 78 128 75Q127 72 126 70Q124 68 122 68Q120 67 119 67L119 67Q114 67 111 71Q107 75 107 82ZM134 49L134 100L130 100L130 95Q126 101 118 101L118 101Q111 101 107 95Q103 90 103 82L103 82Q103 74 107 68Q112 63 118 63L118 63Q126 63 130 69L130 69L130 49L134 49ZM189 87L189 87Q189 94 184 97Q180 101 173 101L173 101Q166 101 161 97L161 97L161 92Q163 94 166 95Q170 96 173 96L173 96Q178 96 181 94Q184 92 184 88L184 88Q184 84 182 82Q180 80 176 79L176 79Q175 78 173 78Q171 77 170 76Q170 76 168 75Q166 74 165 74Q165 73 164 72Q162 71 162 70Q161 69 161 67Q161 66 161 64L161 64Q161 58 165 54Q169 51 176 51L176 51Q182 51 186 53L186 53L186 58Q184 57 181 56Q178 55 176 55L176 55Q171 55 168 58Q165 60 165 64L165 64Q165 66 166 67Q167 69 168 70Q170 71 172 72Q173 73 176 74L176 74Q178 75 179 75Q181 76 183 77Q185 79 186 80Q187 81 188 83Q189 85 189 87ZM203 63L203 100L199 100L199 63L203 63ZM203 50Q204 51 204 52Q204 53 203 54Q202 55 201 55Q200 55 199 54Q198 53 198 52Q198 51 199 50Q200 49 201 49Q202 49 203 50ZM219 49L219 100L215 100L215 49L219 49ZM235 63L235 100L231 100L231 63L235 63ZM235 50Q236 51 236 52Q236 53 235 54Q234 55 233 55Q232 55 231 54Q230 53 230 52Q230 51 231 50Q232 49 233 49Q234 49 235 50ZM275 63L275 97Q275 105 270 110Q266 114 259 114L259 114Q253 114 248 112L248 112L248 107Q253 110 258 110L258 110Q264 110 267 107Q270 104 270 97L270 97L270 92Q267 99 259 99L259 99Q253 99 249 94Q244 90 244 82L244 82Q244 74 248 68Q252 63 259 63L259 63Q267 63 270 70L270 70L270 63L275 63ZM249 82L249 82Q249 88 252 92Q255 95 259 95L259 95Q264 95 267 92Q270 89 270 82L270 82Q270 74 267 71Q264 67 260 67L260 67Q255 67 252 71Q249 75 249 82ZM312 63L312 100L308 100L308 93Q305 101 296 101L296 101Q291 101 288 97Q285 94 285 89L285 89L285 63L289 63L289 88Q289 92 291 94Q294 96 297 96L297 96Q302 96 305 93Q308 89 308 84L308 84L308 63L312 63ZM328 80L328 100L323 100L323 63L328 63L328 70Q331 63 338 63L338 63Q338 63 340 63L340 63L340 68Q338 67 337 67L337 67Q333 67 330 71Q328 75 328 80L328 80ZM351 63L351 100L346 100L346 63L351 63ZM351 50Q352 51 352 52Q352 53 351 54Q350 55 348 55Q347 55 346 54Q345 53 345 52Q345 51 346 50Q347 49 348 49Q350 49 351 50ZM382 49L382 100L378 100L378 49L382 49ZM398 63L398 100L394 100L394 63L398 63ZM398 50Q399 51 399 52Q399 53 398 54Q397 55 396 55Q395 55 394 54Q393 53 393 52Q393 51 394 50Q395 49 396 49Q397 49 398 50ZM438 63L438 97Q438 105 433 110Q429 114 422 114L422 114Q416 114 411 112L411 112L411 107Q416 110 421 110L421 110Q427 110 430 107Q433 104 433 97L433 97L433 92Q430 99 422 99L422 99Q416 99 412 94Q407 90 407 82L407 82Q407 74 411 68Q415 63 422 63L422 63Q430 63 433 70L433 70L433 63L438 63ZM412 82L412 82Q412 88 415 92Q419 95 423 95L423 95Q427 95 430 92Q433 89 433 82L433 82Q433 74 430 71Q427 67 423 67L423 67Q418 67 415 71Q412 75 412 82ZM476 75L476 100L472 100L472 76Q472 72 469 69Q467 67 464 67L464 67Q459 67 456 71Q453 74 453 80L453 80L453 100L448 100L448 49L453 49L453 70Q456 63 464 63L464 63Q470 63 473 66Q476 69 476 75L476 75ZM504 95L504 99Q502 100 499 100L499 100Q489 100 489 90L489 90L489 67L483 67L483 63L489 63L489 54L493 54L493 63L504 63L504 67L493 67L493 90Q493 96 499 96L499 96Q502 96 504 95L504 95Z"/></svg>