<svg xmlns="http://www.w3.org/2000/svg" viewBox="0.65 -7.390000000000001 54.38 9.350000000000001"><path d="M6.21-6.74L6.21 0L4.66 0L4.66-2.69L2.19-2.69L2.19 0L0.65 0L0.65-6.74L2.19-6.74L2.19-4L4.66-4L4.66-6.74L6.21-6.74ZM8.97-5.07L8.97 0L7.51 0L7.51-5.07L8.97-5.07ZM8.84-7.14Q9.09-6.89 9.09-6.54Q9.09-6.19 8.84-5.94Q8.59-5.69 8.24-5.69Q7.89-5.69 7.64-5.94Q7.39-6.19 7.39-6.54Q7.39-6.89 7.64-7.14Q7.89-7.39 8.24-7.39Q8.59-7.39 8.84-7.14ZM14.87-3.29L14.87 0L13.41 0L13.41-3.02Q13.41-3.47 13.20-3.71Q12.99-3.94 12.61-3.94L12.61-3.94Q12.21-3.94 11.95-3.63Q11.68-3.31 11.68-2.68L11.68-2.68L11.68 0L10.22 0L10.22-5.07L11.68-5.07L11.68-4.21Q11.87-4.63 12.27-4.88Q12.66-5.12 13.21-5.12L13.21-5.12Q13.99-5.12 14.43-4.66Q14.87-4.19 14.87-3.29L14.87-3.29ZM17.25-2.52L17.25-2.52Q17.25-1.91 17.57-1.54Q17.89-1.16 18.35-1.16L18.35-1.16Q18.85-1.16 19.16-1.55Q19.47-1.94 19.47-2.59L19.47-2.59Q19.47-3.22 19.14-3.57Q18.80-3.92 18.34-3.92Q17.88-3.92 17.57-3.55Q17.25-3.18 17.25-2.52ZM20.93-7.07L20.93 0L19.47 0L19.47-0.79Q18.96 0.06 17.95 0.06L17.95 0.06Q16.96 0.06 16.37-0.71Q15.77-1.48 15.77-2.55L15.77-2.55Q15.77-3.75 16.39-4.44Q17.01-5.13 17.96-5.13L17.96-5.13Q18.95-5.13 19.47-4.29L19.47-4.29L19.47-7.07L20.93-7.07ZM28.87-1.96L28.87-1.96Q28.87-1.05 28.20-0.48Q27.53 0.08 26.42 0.08L26.42 0.08Q25.23 0.08 24.48-0.34L24.48-0.34L24.48-1.89Q25.39-1.23 26.42-1.23L26.42-1.23Q26.77-1.23 27-1.42Q27.23-1.60 27.23-1.90L27.23-1.90Q27.23-2 27.20-2.09Q27.17-2.18 27.09-2.26Q27.01-2.34 26.94-2.40Q26.86-2.45 26.71-2.52Q26.57-2.60 26.47-2.65Q26.37-2.70 26.18-2.79Q25.98-2.88 25.86-2.93L25.86-2.93Q25.21-3.23 24.82-3.67Q24.42-4.11 24.42-4.84L24.42-4.84Q24.42-5.71 25.06-6.25Q25.70-6.78 26.83-6.78L26.83-6.78Q27.84-6.78 28.57-6.44L28.57-6.44L28.57-5Q27.76-5.47 26.89-5.47L26.89-5.47Q26.50-5.47 26.30-5.31Q26.09-5.15 26.09-4.90Q26.09-4.65 26.34-4.46Q26.59-4.26 27.09-4.04L27.09-4.04Q27.40-3.90 27.61-3.79Q27.81-3.69 28.08-3.50Q28.34-3.32 28.50-3.12Q28.65-2.91 28.76-2.61Q28.87-2.31 28.87-1.96ZM31.28-5.07L31.28 0L29.82 0L29.82-5.07L31.28-5.07ZM31.15-7.14Q31.40-6.89 31.40-6.54Q31.40-6.19 31.15-5.94Q30.90-5.69 30.55-5.69Q30.20-5.69 29.95-5.94Q29.70-6.19 29.70-6.54Q29.70-6.89 29.95-7.14Q30.20-7.39 30.55-7.39Q30.90-7.39 31.15-7.14ZM34.04-7.07L34.04 0L32.58 0L32.58-7.07L34.04-7.07ZM36.80-5.07L36.80 0L35.34 0L35.34-5.07L36.80-5.07ZM36.67-7.14Q36.92-6.89 36.92-6.54Q36.92-6.19 36.67-5.94Q36.42-5.69 36.07-5.69Q35.72-5.69 35.47-5.94Q35.22-6.19 35.22-6.54Q35.22-6.89 35.47-7.14Q35.72-7.39 36.07-7.39Q36.42-7.39 36.67-7.14ZM42.75-5.07L42.75-0.49Q42.75 0.73 42.02 1.34Q41.29 1.96 40.19 1.96L40.19 1.96Q39.12 1.96 38.32 1.58L38.32 1.58L38.32 0.09Q39.02 0.65 40.04 0.65L40.04 0.65Q40.70 0.65 41 0.37Q41.30 0.09 41.30-0.51L41.30-0.51L41.30-0.85Q40.86-0.17 39.90-0.17L39.90-0.17Q39.06-0.17 38.46-0.79Q37.85-1.41 37.85-2.63L37.85-2.63Q37.85-3.71 38.44-4.42Q39.02-5.12 39.97-5.12L39.97-5.12Q40.87-5.12 41.30-4.40L41.30-4.40L41.30-5.07L42.75-5.07ZM39.37-2.62L39.37-2.62Q39.37-1.99 39.61-1.66Q39.85-1.33 40.30-1.33L40.30-1.33Q40.77-1.33 41.04-1.69Q41.30-2.04 41.30-2.54L41.30-2.54Q41.30-3.90 40.31-3.90L40.31-3.90Q39.87-3.90 39.62-3.56Q39.37-3.22 39.37-2.62ZM48.50-5.07L48.50 0L47.04 0L47.04-0.81Q46.64 0.04 45.50 0.04L45.50 0.04Q44.72 0.04 44.29-0.40Q43.85-0.83 43.85-1.68L43.85-1.68L43.85-5.07L45.31-5.07L45.31-2.01Q45.31-1.12 46.09-1.12L46.09-1.12Q47.04-1.12 47.04-2.39L47.04-2.39L47.04-5.07L48.50-5.07ZM51.15-2.53L51.15 0L49.69 0L49.70-5.07L51.15-5.07L51.15-4.13Q51.29-4.57 51.62-4.83Q51.94-5.10 52.37-5.10L52.37-5.10Q52.61-5.10 52.75-5.06L52.75-5.06L52.75-3.68Q52.51-3.79 52.20-3.79L52.20-3.79Q51.73-3.79 51.44-3.45Q51.15-3.10 51.15-2.53L51.15-2.53ZM54.91-5.07L54.91 0L53.45 0L53.45-5.07L54.91-5.07ZM54.78-7.14Q55.03-6.89 55.03-6.54Q55.03-6.19 54.78-5.94Q54.53-5.69 54.18-5.69Q53.83-5.69 53.58-5.94Q53.33-6.19 53.33-6.54Q53.33-6.89 53.58-7.14Q53.83-7.39 54.18-7.39Q54.53-7.39 54.78-7.14Z"/></svg>