<svg xmlns="http://www.w3.org/2000/svg" viewBox="5.5440000000000005 48.303999999999995 590.976 65.52000000000001"><path d="M40.75 51.47L40.75 100L34.92 100L34.92 78.04L11.38 78.04L11.38 100L5.54 100L5.54 51.47L11.38 51.47L11.38 72.78L34.92 72.78L34.92 51.47L40.75 51.47ZM57.53 63.50L57.53 100L51.84 100L51.84 63.50L57.53 63.50ZM57.31 49.38Q58.39 50.46 58.39 52.05Q58.39 53.63 57.31 54.68Q56.23 55.72 54.65 55.72Q53.06 55.72 52.02 54.68Q50.98 53.63 50.98 52.05Q50.98 50.46 52.02 49.38Q53.06 48.30 54.65 48.30Q56.23 48.30 57.31 49.38ZM97.13 74.87L97.13 100L91.44 100L91.44 76.38Q91.44 72.35 89.39 70.23Q87.34 68.10 84.02 68.10L84.02 68.10Q79.92 68.10 76.93 71.27Q73.94 74.44 73.94 80.06L73.94 80.06L73.94 100L68.33 100L68.33 63.50L73.94 63.50L73.94 69.83Q77.18 62.99 85.46 62.99L85.46 62.99Q90.79 62.99 93.96 66.23Q97.13 69.47 97.13 74.87L97.13 74.87ZM110.95 82.14L110.95 82.14Q110.95 88.05 113.83 91.72Q116.71 95.39 121.10 95.39L121.10 95.39Q125.57 95.39 128.70 92.08Q131.83 88.77 131.83 81.50L131.83 81.50Q131.83 74.58 128.59 71.34Q125.35 68.10 121.46 68.10L121.46 68.10Q116.93 68.10 113.94 71.74Q110.95 75.38 110.95 82.14ZM137.52 49.10L137.52 100L131.83 100L131.83 94.60Q127.94 100.58 120.60 100.58L120.60 100.58Q113.33 100.58 109.19 95.18Q105.05 89.78 105.05 82.07L105.05 82.07Q105.05 73.50 109.44 68.21Q113.83 62.92 120.74 62.92L120.74 62.92Q127.87 62.92 131.83 69.04L131.83 69.04L131.83 49.10L137.52 49.10ZM192.67 87.11L192.67 87.11Q192.67 93.52 188.28 97.01Q183.89 100.50 176.98 100.50L176.98 100.50Q169.34 100.50 164.02 97.41L164.02 97.41L164.02 91.14Q169.27 95.10 176.83 95.10L176.83 95.10Q181.37 95.10 183.96 93.09Q186.55 91.07 186.55 87.26L186.55 87.26Q186.55 85.67 185.94 84.41Q185.33 83.15 183.92 82.11Q182.52 81.06 181.26 80.38Q180 79.70 177.84 78.69L177.84 78.69Q177.41 78.47 176.54 78.11L176.54 78.11Q173.45 76.74 171.83 75.88Q170.21 75.02 168.01 73.32Q165.82 71.63 164.81 69.40Q163.80 67.17 163.80 64.22L163.80 64.22Q163.80 58.02 168.23 54.53Q172.66 51.04 179.35 51.04L179.35 51.04Q185.62 51.04 190.01 53.27L190.01 53.27L190.01 59.39Q185.62 56.51 179.50 56.51L179.50 56.51Q175.10 56.51 172.51 58.56Q169.92 60.62 169.92 63.93L169.92 63.93Q169.92 65.66 170.60 67.02Q171.29 68.39 173.02 69.58Q174.74 70.77 175.97 71.38Q177.19 71.99 179.78 73.14L179.78 73.14Q182.23 74.22 183.53 74.84Q184.82 75.45 186.88 76.78Q188.93 78.11 189.97 79.37Q191.02 80.63 191.84 82.68Q192.67 84.74 192.67 87.11ZM208.01 63.50L208.01 100L202.32 100L202.32 63.50L208.01 63.50ZM207.79 49.38Q208.87 50.46 208.87 52.05Q208.87 53.63 207.79 54.68Q206.71 55.72 205.13 55.72Q203.54 55.72 202.50 54.68Q201.46 53.63 201.46 52.05Q201.46 50.46 202.50 49.38Q203.54 48.30 205.13 48.30Q206.71 48.30 207.79 49.38ZM224.78 49.10L224.78 100L219.10 100L219.10 49.10L224.78 49.10ZM241.56 63.50L241.56 100L235.87 100L235.87 63.50L241.56 63.50ZM241.34 49.38Q242.42 50.46 242.42 52.05Q242.42 53.63 241.34 54.68Q240.26 55.72 238.68 55.72Q237.10 55.72 236.05 54.68Q235.01 53.63 235.01 52.05Q235.01 50.46 236.05 49.38Q237.10 48.30 238.68 48.30Q240.26 48.30 241.34 49.38ZM281.81 63.50L281.81 97.05Q281.81 105.40 277.20 109.61Q272.59 113.82 265.32 113.82L265.32 113.82Q258.70 113.82 254.02 111.59L254.02 111.59L254.02 105.90Q258.62 108.57 264.82 108.57L264.82 108.57Q270.07 108.57 273.10 105.76Q276.12 102.95 276.12 96.98L276.12 96.98L276.12 92.87Q272.52 99.06 265.39 99.06L265.39 99.06Q259.13 99.06 254.70 94.46Q250.27 89.85 250.27 81.64L250.27 81.64Q250.27 73.50 254.38 68.25Q258.48 62.99 265.10 62.99L265.10 62.99Q272.59 62.99 276.12 69.54L276.12 69.54L276.12 63.50L281.81 63.50ZM256.18 81.50L256.18 81.50Q256.18 87.62 259.20 90.82Q262.22 94.02 266.04 94.02L266.04 94.02Q270.00 94.02 273.06 90.96Q276.12 87.90 276.12 81.86L276.12 81.86Q276.12 74.87 273.17 71.49Q270.22 68.10 266.33 68.10L266.33 68.10Q261.65 68.10 258.91 71.81Q256.18 75.52 256.18 81.50ZM320.26 63.50L320.26 100L314.57 100L314.57 93.66Q311.69 100.43 303.12 100.43L303.12 100.43Q297.72 100.43 294.59 97.23Q291.46 94.02 291.46 88.62L291.46 88.62L291.46 63.50L297.14 63.50L297.14 87.18Q297.14 91.14 299.16 93.23Q301.18 95.32 304.63 95.32L304.63 95.32Q309.17 95.32 311.87 92.15Q314.57 88.98 314.57 83.58L314.57 83.58L314.57 63.50L320.26 63.50ZM336.38 80.06L336.38 100L330.70 100L330.77 63.50L336.38 63.50L336.38 69.90Q339.26 63.14 346.32 63.14L346.32 63.14Q347.62 63.14 348.34 63.28L348.34 63.28L348.34 68.90Q346.82 68.39 345.24 68.39L345.24 68.39Q341.42 68.39 338.90 71.92Q336.38 75.45 336.38 80.06L336.38 80.06ZM360.22 63.50L360.22 100L354.53 100L354.53 63.50L360.22 63.50ZM360.00 49.38Q361.08 50.46 361.08 52.05Q361.08 53.63 360.00 54.68Q358.92 55.72 357.34 55.72Q355.75 55.72 354.71 54.68Q353.66 53.63 353.66 52.05Q353.66 50.46 354.71 49.38Q355.75 48.30 357.34 48.30Q358.92 48.30 360.00 49.38ZM392.90 80.06L392.90 100L387.22 100L387.29 63.50L392.90 63.50L392.90 69.90Q395.78 63.14 402.84 63.14L402.84 63.14Q404.14 63.14 404.86 63.28L404.86 63.28L404.86 68.90Q403.34 68.39 401.76 68.39L401.76 68.39Q397.94 68.39 395.42 71.92Q392.90 75.45 392.90 80.06L392.90 80.06ZM437.40 92.80L437.40 98.13Q433.15 100.36 427.03 100.36L427.03 100.36Q418.75 100.36 413.68 95.28Q408.60 90.21 408.60 81.86L408.60 81.86Q408.60 73.14 413.14 68.10Q417.67 63.06 424.80 63.06L424.80 63.06Q431.64 63.06 435.67 67.46Q439.70 71.85 439.70 79.91L439.70 79.91Q439.70 82.22 439.34 84.16L439.34 84.16L414.43 84.16Q415.08 89.56 418.54 92.44Q421.99 95.32 427.61 95.32L427.61 95.32Q433.73 95.32 437.40 92.80L437.40 92.80ZM424.80 68.03L424.80 68.03Q420.70 68.03 417.82 70.98Q414.94 73.94 414.43 79.41L414.43 79.41L434.02 79.41L434.02 77.97Q434.02 73.43 431.57 70.73Q429.12 68.03 424.80 68.03ZM477.79 63.50L477.79 97.05Q477.79 105.40 473.18 109.61Q468.58 113.82 461.30 113.82L461.30 113.82Q454.68 113.82 450 111.59L450 111.59L450 105.90Q454.61 108.57 460.80 108.57L460.80 108.57Q466.06 108.57 469.08 105.76Q472.10 102.95 472.10 96.98L472.10 96.98L472.10 92.87Q468.50 99.06 461.38 99.06L461.38 99.06Q455.11 99.06 450.68 94.46Q446.26 89.85 446.26 81.64L446.26 81.64Q446.26 73.50 450.36 68.25Q454.46 62.99 461.09 62.99L461.09 62.99Q468.58 62.99 472.10 69.54L472.10 69.54L472.10 63.50L477.79 63.50ZM452.16 81.50L452.16 81.50Q452.16 87.62 455.18 90.82Q458.21 94.02 462.02 94.02L462.02 94.02Q465.98 94.02 469.04 90.96Q472.10 87.90 472.10 81.86L472.10 81.86Q472.10 74.87 469.15 71.49Q466.20 68.10 462.31 68.10L462.31 68.10Q457.63 68.10 454.90 71.81Q452.16 75.52 452.16 81.50ZM516.24 63.50L516.24 100L510.55 100L510.55 93.66Q507.67 100.43 499.10 100.43L499.10 100.43Q493.70 100.43 490.57 97.23Q487.44 94.02 487.44 88.62L487.44 88.62L487.44 63.50L493.13 63.50L493.13 87.18Q493.13 91.14 495.14 93.23Q497.16 95.32 500.62 95.32L500.62 95.32Q505.15 95.32 507.85 92.15Q510.55 88.98 510.55 83.58L510.55 83.58L510.55 63.50L516.24 63.50ZM532.73 49.10L532.73 100L527.04 100L527.04 49.10L532.73 49.10ZM554.69 95.61L554.69 95.61Q558.58 95.61 560.88 93.41Q563.18 91.22 563.18 87.83L563.18 87.83L563.18 83.15L556.85 83.15Q552.24 83.15 549.94 84.95Q547.63 86.75 547.63 89.49Q547.63 92.22 549.43 93.92Q551.23 95.61 554.69 95.61ZM563.26 100L563.26 95.68Q560.45 100.36 553.03 100.36L553.03 100.36Q547.92 100.36 544.79 97.34Q541.66 94.31 541.66 89.70L541.66 89.70Q541.66 84.45 545.65 81.53Q549.65 78.62 556.56 78.62L556.56 78.62L563.18 78.62L563.18 76.74Q563.18 72.42 561.24 70.23Q559.30 68.03 554.69 68.03L554.69 68.03Q548.86 68.03 544.32 71.13L544.32 71.13L544.32 65.44Q548.42 62.92 555.12 62.92L555.12 62.92Q568.87 62.92 568.87 76.89L568.87 76.89L568.87 100L563.26 100ZM584.57 80.06L584.57 100L578.88 100L578.95 63.50L584.57 63.50L584.57 69.90Q587.45 63.14 594.50 63.14L594.50 63.14Q595.80 63.14 596.52 63.28L596.52 63.28L596.52 68.90Q595.01 68.39 593.42 68.39L593.42 68.39Q589.61 68.39 587.09 71.92Q584.57 75.45 584.57 80.06L584.57 80.06Z"/></svg>