<svg xmlns="http://www.w3.org/2000/svg" viewBox="5.256 47.87199999999999 686.0880000000001 52.63200000000001"><path d="M42 51L42 100L34 100L34 79L13 79L13 100L5 100L5 51L13 51L13 72L34 72L34 51L42 51ZM60 63L60 100L52 100L52 63L60 63ZM60 52L60 52Q60 54 59 55Q58 57 56 57Q54 57 53 55Q52 54 52 52Q52 50 53 49Q54 48 56 48Q58 48 59 49Q60 50 60 52ZM100 75L100 100L93 100L93 77Q93 73 91 71Q89 69 86 69L86 69Q82 69 80 72Q77 75 77 80L77 80L77 100L70 100L70 63L77 63L77 70Q80 63 88 63L88 63Q94 63 97 66Q100 70 100 75L100 75ZM115 82L115 82Q115 88 117 91Q120 94 124 94L124 94Q128 94 131 91Q134 88 134 81L134 81Q134 75 131 72Q128 69 124 69L124 69Q120 69 118 73Q115 76 115 82ZM141 49L141 100L134 100L134 94Q130 101 123 101L123 101Q116 101 112 95Q107 90 107 82L107 82Q107 73 112 68Q116 63 123 63L123 63Q130 63 134 69L134 69L134 49L141 49ZM177 81L176 100L169 100L172 51L181 51L188 69Q189 74 191 79Q193 84 194 87L194 87L195 89Q198 80 202 69L202 69L209 51L217 51L222 100L215 100L213 81L211 62Q208 71 204 81L204 81L197 99L192 99L185 81L179 62Q179 65 177 81L177 81ZM243 95L243 95Q247 95 249 93Q251 91 251 88L251 88L251 84L245 84Q241 84 239 85Q237 87 237 89L237 89Q237 92 239 93Q240 95 243 95ZM251 100L251 96Q248 100 241 100L241 100Q236 100 233 97Q230 94 230 90L230 90Q230 84 234 82Q238 79 245 79L245 79L251 79L251 77Q251 73 249 71Q247 69 243 69L243 69Q237 69 232 72L232 72L232 65Q237 63 244 63L244 63Q258 63 258 77L258 77L258 100L251 100ZM273 82L273 82Q273 88 275 91Q278 94 282 94L282 94Q286 94 289 91Q292 88 292 81L292 81Q292 75 289 72Q286 69 282 69L282 69Q278 69 275 73Q273 76 273 82ZM299 49L299 100L292 100L292 94Q288 101 281 101L281 101Q274 101 270 95Q265 90 265 82L265 82Q265 73 270 68Q274 63 281 63L281 63Q288 63 292 69L292 69L292 49L299 49ZM339 63L339 100L332 100L332 94Q329 100 320 100L320 100Q315 100 312 97Q309 94 309 88L309 88L309 63L316 63L316 87Q316 90 318 92Q320 94 323 94L323 94Q327 94 329 92Q332 89 332 83L332 83L332 63L339 63ZM356 81L356 100L349 100L349 63L356 63L356 70Q359 63 365 63L365 63Q366 63 368 63L368 63L368 70Q366 70 364 70L364 70Q361 70 358 73Q356 76 356 81L356 81ZM385 95L385 95Q389 95 390 93Q392 91 392 88L392 88L392 84L387 84Q383 84 381 85Q379 87 379 89L379 89Q379 92 380 93Q382 95 385 95ZM393 100L393 96Q390 100 383 100L383 100Q378 100 375 97Q371 94 371 90L371 90Q371 84 375 82Q379 79 386 79L386 79L392 79L392 77Q392 73 391 71Q389 69 385 69L385 69Q379 69 374 72L374 72L374 65Q378 63 385 63L385 63Q400 63 400 77L400 77L400 100L393 100ZM417 63L417 100L409 100L409 63L417 63ZM417 52L417 52Q417 54 416 55Q415 57 413 57Q411 57 410 55Q409 54 409 52Q409 50 410 49Q411 48 413 48Q415 48 416 49Q417 50 417 52ZM495 75L495 100L488 100L488 77Q488 69 481 69L481 69Q478 69 476 72Q473 75 473 80L473 80L473 100L466 100L466 77Q466 69 460 69L460 69Q457 69 454 72Q452 75 452 80L452 80L452 100L445 100L445 63L452 63L452 69Q455 63 462 63L462 63Q470 63 472 70L472 70Q474 67 477 65Q480 63 483 63L483 63Q489 63 492 66Q495 70 495 75L495 75ZM532 92L532 98Q527 100 521 100L521 100Q512 100 507 95Q502 90 502 82L502 82Q502 73 507 68Q511 63 519 63L519 63Q526 63 530 67Q534 72 534 80L534 80Q534 82 533 85L533 85L509 85Q510 89 513 92Q517 94 522 94L522 94Q528 94 532 92L532 92ZM519 69L519 69Q515 69 513 72Q510 74 509 79L509 79L527 79L527 78Q527 74 525 71Q523 69 519 69ZM547 82L547 82Q547 88 550 91Q553 94 557 94L557 94Q561 94 564 91Q567 88 567 81L567 81Q567 75 564 72Q561 69 557 69L557 69Q553 69 550 73Q547 76 547 82ZM574 49L574 100L567 100L567 94Q563 101 556 101L556 101Q548 101 544 95Q540 90 540 82L540 82Q540 73 544 68Q549 63 556 63L556 63Q563 63 567 69L567 69L567 49L574 49ZM591 63L591 100L584 100L584 63L591 63ZM592 52L592 52Q592 54 591 55Q590 57 588 57Q586 57 585 55Q583 54 583 52Q583 50 585 49Q586 48 588 48Q590 48 591 49Q592 50 592 52ZM631 63L631 100L624 100L624 94Q621 100 613 100L613 100Q607 100 604 97Q601 94 601 88L601 88L601 63L608 63L608 87Q608 90 610 92Q612 94 615 94L615 94Q619 94 622 92Q624 89 624 83L624 83L624 63L631 63ZM691 75L691 100L684 100L684 77Q684 69 678 69L678 69Q675 69 672 72Q670 75 670 80L670 80L670 100L663 100L663 77Q663 69 656 69L656 69Q653 69 651 72Q648 75 648 80L648 80L648 100L641 100L641 63L648 63L648 69Q651 63 659 63L659 63Q667 63 669 70L669 70Q671 67 673 65Q676 63 680 63L680 63Q686 63 688 66Q691 70 691 75L691 75Z"/></svg>