<svg xmlns="http://www.w3.org/2000/svg" viewBox="5.040000000000001 47.367999999999995 705.3840000000002 66.67200000000001"><path d="M43 51L43 100L34 100L34 80L14 80L14 100L5 100L5 51L14 51L14 72L34 72L34 51L43 51ZM62 63L62 100L53 100L53 63L62 63ZM63 53L63 53Q63 55 61 56Q60 58 58 58Q55 58 54 56Q52 55 52 53L52 53Q52 50 54 49Q55 47 58 47Q60 47 61 49Q63 50 63 53ZM103 76L103 100L95 100L95 78Q95 74 93 72Q91 70 88 70L88 70Q85 70 83 73Q80 76 80 80L80 80L80 100L72 100L72 63L80 63L80 70Q83 63 92 63L92 63Q97 63 100 66Q103 70 103 76L103 76ZM119 82L119 82Q119 87 122 90Q124 93 128 93L128 93Q132 93 134 90Q137 87 137 81L137 81Q137 76 134 73Q132 70 128 70L128 70Q124 70 122 73Q119 76 119 82ZM146 49L146 100L137 100L137 94Q133 101 126 101L126 101Q119 101 115 95Q110 90 110 82L110 82Q110 73 115 68Q119 63 126 63L126 63Q133 63 137 69L137 69L137 49L146 49ZM202 86L202 86Q202 93 197 97Q193 101 185 101L185 101Q177 101 172 97L172 97L172 88Q178 93 185 93L185 93Q188 93 191 91Q193 89 193 87L193 87Q193 85 192 84Q192 83 190 82Q188 81 188 81Q187 80 184 79L184 79Q183 79 183 79L183 79Q180 78 179 77Q177 76 175 74Q173 72 172 70Q171 68 171 65L171 65Q171 59 176 55Q180 51 188 51L188 51Q195 51 200 53L200 53L200 62Q194 59 188 59L188 59Q185 59 183 61Q181 62 181 64Q181 67 183 68Q185 70 189 72L189 72Q192 73 194 74Q196 75 198 77Q200 78 201 81Q202 83 202 86ZM219 63L219 100L210 100L210 63L219 63ZM220 53L220 53Q220 55 218 56Q217 58 214 58Q212 58 211 56Q209 55 209 53L209 53Q209 50 211 49Q212 47 214 47Q217 47 218 49Q220 50 220 53ZM237 49L237 100L229 100L229 49L237 49ZM256 63L256 100L248 100L248 63L256 63ZM257 53L257 53Q257 55 256 56Q254 58 252 58Q250 58 248 56Q247 55 247 53L247 53Q247 50 248 49Q250 47 252 47Q254 47 256 49Q257 50 257 53ZM298 63L298 97Q298 105 293 110Q288 114 280 114L280 114Q273 114 268 111L268 111L268 103Q273 106 280 106L280 106Q289 106 289 97L289 97L289 93Q286 99 279 99L279 99Q273 99 269 94Q264 90 264 81L264 81Q264 73 268 68Q273 63 279 63L279 63Q286 63 289 69L289 69L289 63L298 63ZM273 81L273 81Q273 86 275 89Q278 92 281 92L281 92Q285 92 287 89Q289 86 289 82L289 82Q289 76 287 73Q285 70 281 70L281 70Q278 70 275 73Q273 76 273 81ZM338 63L338 100L330 100L330 94Q327 100 318 100L318 100Q313 100 310 97Q307 94 307 88L307 88L307 63L315 63L315 86Q315 90 317 91Q319 93 322 93L322 93Q325 93 327 91Q330 88 330 83L330 83L330 63L338 63ZM356 81L356 100L348 100L348 63L356 63L356 70Q359 63 366 63L366 63Q367 63 368 63L368 63L368 72Q366 71 364 71L364 71Q361 71 359 74Q356 77 356 81L356 81ZM382 63L382 100L373 100L373 63L382 63ZM383 53L383 53Q383 55 381 56Q380 58 378 58Q376 58 374 56Q373 55 373 53L373 53Q373 50 374 49Q376 47 378 47Q380 47 381 49Q383 50 383 53ZM433 89L433 89Q433 95 429 97Q426 100 420 100L420 100Q413 100 409 98L409 98L409 90Q413 93 419 93L419 93Q421 93 423 93Q424 92 424 90L424 90Q424 89 424 88Q423 88 422 87Q421 86 420 86Q419 86 417 85L417 85Q417 85 417 85Q417 84 417 84Q417 84 416 84L416 84Q408 81 408 74L408 74Q408 69 412 66Q416 63 422 63L422 63Q427 63 431 65L431 65L431 72Q427 70 422 70L422 70Q420 70 419 71Q417 72 417 74L417 74Q417 74 417 75Q418 75 418 76Q419 76 419 76Q419 77 420 77Q421 78 422 78Q422 78 423 79Q424 79 425 79L425 79Q429 81 431 84Q433 86 433 89ZM468 90L468 98Q464 100 457 100L457 100Q448 100 443 95Q438 90 438 82L438 82Q438 73 443 68Q447 63 455 63Q462 63 466 67Q470 72 470 80L470 80Q470 82 470 85L470 85L447 85Q448 89 451 91Q454 93 458 93L458 93Q464 93 468 90L468 90ZM455 70L455 70Q452 70 449 72Q447 74 447 79L447 79L462 79L462 78Q462 74 460 72Q458 70 455 70ZM530 76L530 100L521 100L521 78Q521 70 515 70L515 70Q513 70 510 73Q508 75 508 80L508 80L508 100L500 100L500 78Q500 70 494 70L494 70Q491 70 489 73Q487 75 487 80L487 80L487 100L478 100L478 63L487 63L487 69Q490 63 497 63L497 63Q505 63 507 70L507 70Q509 67 512 65Q515 63 518 63L518 63Q524 63 527 66Q530 70 530 76L530 76ZM548 63L548 100L539 100L539 63L548 63ZM549 53L549 53Q549 55 547 56Q546 58 543 58Q541 58 540 56Q538 55 538 53L538 53Q538 50 540 49Q541 47 543 47Q546 47 547 49Q549 50 549 53ZM584 94L584 100L575 100L575 49L584 49L584 69Q587 63 595 63L595 63Q601 63 606 68Q610 73 610 82L610 82Q610 90 606 95Q602 101 595 101Q587 101 584 94L584 94ZM584 81L584 81Q584 87 586 90Q589 93 593 93L593 93Q596 93 599 90Q601 87 601 82L601 82Q601 76 599 73Q596 70 593 70L593 70Q589 70 586 73Q584 76 584 81ZM651 82L651 82Q651 90 646 95Q642 101 633 101L633 101Q625 101 620 95Q616 90 616 82L616 82Q616 74 620 68Q625 63 633 63L633 63Q642 63 646 68Q651 74 651 82ZM625 82L625 82Q625 87 627 90Q629 94 633 94L633 94Q638 94 640 90Q642 87 642 82L642 82Q642 77 640 73Q638 70 633 70L633 70Q629 70 627 73Q625 77 625 82ZM667 49L667 100L659 100L659 49L667 49ZM684 82L684 82Q684 87 686 90Q689 93 693 93L693 93Q697 93 699 90Q702 87 702 81L702 81Q702 76 699 73Q696 70 693 70L693 70Q689 70 686 73Q684 76 684 82ZM710 49L710 100L702 100L702 94Q698 101 691 101L691 101Q683 101 679 95Q675 90 675 82L675 82Q675 73 680 68Q684 63 691 63L691 63Q698 63 702 69L702 69L702 49L710 49Z"/></svg>