<svg xmlns="http://www.w3.org/2000/svg" viewBox="5.5440000000000005 48.303999999999995 369.28800000000007 65.52000000000001"><path d="M34.92 72.78L34.92 51.47L40.75 51.47L40.75 100L34.92 100L34.92 78.04L11.38 78.04L11.38 100L5.54 100L5.54 51.47L11.38 51.47L11.38 72.78L34.92 72.78ZM57.53 100L51.84 100L51.84 63.50L57.53 63.50L57.53 100ZM52.02 54.68Q50.98 53.63 50.98 52.05Q50.98 50.46 52.02 49.38Q53.06 48.30 54.65 48.30Q56.23 48.30 57.31 49.38Q58.39 50.46 58.39 52.05Q58.39 53.63 57.31 54.68Q56.23 55.72 54.65 55.72Q53.06 55.72 52.02 54.68ZM68.33 63.50L73.94 63.50L73.94 69.83Q77.18 62.99 85.46 62.99L85.46 62.99Q90.79 62.99 93.96 66.23Q97.13 69.47 97.13 74.87L97.13 74.87L97.13 100L91.44 100L91.44 76.38Q91.44 72.35 89.39 70.23Q87.34 68.10 84.02 68.10L84.02 68.10Q79.92 68.10 76.93 71.27Q73.94 74.44 73.94 80.06L73.94 80.06L73.94 100L68.33 100L68.33 63.50ZM121.10 95.39L121.10 95.39Q125.57 95.39 128.70 92.08Q131.83 88.77 131.83 81.50L131.83 81.50Q131.83 74.58 128.59 71.34Q125.35 68.10 121.46 68.10L121.46 68.10Q116.93 68.10 113.94 71.74Q110.95 75.38 110.95 82.14L110.95 82.14Q110.95 88.05 113.83 91.72Q116.71 95.39 121.10 95.39ZM131.83 69.04L131.83 49.10L137.52 49.10L137.52 100L131.83 100L131.83 94.60Q127.94 100.58 120.60 100.58L120.60 100.58Q113.33 100.58 109.19 95.18Q105.05 89.78 105.05 82.07L105.05 82.07Q105.05 73.50 109.44 68.21Q113.83 62.92 120.74 62.92L120.74 62.92Q127.87 62.92 131.83 69.04L131.83 69.04ZM165.60 63.50L171.22 63.50L171.22 69.90Q174.10 63.14 181.15 63.14L181.15 63.14Q182.45 63.14 183.17 63.28L183.17 63.28L183.17 68.90Q181.66 68.39 180.07 68.39L180.07 68.39Q176.26 68.39 173.74 71.92Q171.22 75.45 171.22 80.06L171.22 80.06L171.22 100L165.53 100L165.60 63.50ZM192.74 79.41L212.33 79.41L212.33 77.97Q212.33 73.43 209.88 70.73Q207.43 68.03 203.11 68.03L203.11 68.03Q199.01 68.03 196.13 70.98Q193.25 73.94 192.74 79.41L192.74 79.41ZM215.71 92.80L215.71 92.80L215.71 98.13Q211.46 100.36 205.34 100.36L205.34 100.36Q197.06 100.36 191.99 95.28Q186.91 90.21 186.91 81.86L186.91 81.86Q186.91 73.14 191.45 68.10Q195.98 63.06 203.11 63.06L203.11 63.06Q209.95 63.06 213.98 67.46Q218.02 71.85 218.02 79.91L218.02 79.91Q218.02 82.22 217.66 84.16L217.66 84.16L192.74 84.16Q193.39 89.56 196.85 92.44Q200.30 95.32 205.92 95.32L205.92 95.32Q212.04 95.32 215.71 92.80ZM240.34 94.02L240.34 94.02Q244.30 94.02 247.36 90.96Q250.42 87.90 250.42 81.86L250.42 81.86Q250.42 74.87 247.46 71.49Q244.51 68.10 240.62 68.10L240.62 68.10Q235.94 68.10 233.21 71.81Q230.47 75.52 230.47 81.50L230.47 81.50Q230.47 87.62 233.50 90.82Q236.52 94.02 240.34 94.02ZM250.42 69.54L250.42 63.50L256.10 63.50L256.10 97.05Q256.10 105.40 251.50 109.61Q246.89 113.82 239.62 113.82L239.62 113.82Q232.99 113.82 228.31 111.59L228.31 111.59L228.31 105.90Q232.92 108.57 239.11 108.57L239.11 108.57Q244.37 108.57 247.39 105.76Q250.42 102.95 250.42 96.98L250.42 96.98L250.42 92.87Q246.82 99.06 239.69 99.06L239.69 99.06Q233.42 99.06 229.00 94.46Q224.57 89.85 224.57 81.64L224.57 81.64Q224.57 73.50 228.67 68.25Q232.78 62.99 239.40 62.99L239.40 62.99Q246.89 62.99 250.42 69.54L250.42 69.54ZM288.86 83.58L288.86 63.50L294.55 63.50L294.55 100L288.86 100L288.86 93.66Q285.98 100.43 277.42 100.43L277.42 100.43Q272.02 100.43 268.88 97.23Q265.75 94.02 265.75 88.62L265.75 88.62L265.75 63.50L271.44 63.50L271.44 87.18Q271.44 91.14 273.46 93.23Q275.47 95.32 278.93 95.32L278.93 95.32Q283.46 95.32 286.16 92.15Q288.86 88.98 288.86 83.58L288.86 83.58ZM311.04 100L305.35 100L305.35 49.10L311.04 49.10L311.04 100ZM341.50 87.83L341.50 83.15L335.16 83.15Q330.55 83.15 328.25 84.95Q325.94 86.75 325.94 89.49Q325.94 92.22 327.74 93.92Q329.54 95.61 333.00 95.61L333.00 95.61Q336.89 95.61 339.19 93.41Q341.50 91.22 341.50 87.83L341.50 87.83ZM322.63 71.13L322.63 71.13L322.63 65.44Q326.74 62.92 333.43 62.92L333.43 62.92Q347.18 62.92 347.18 76.89L347.18 76.89L347.18 100L341.57 100L341.57 95.68Q338.76 100.36 331.34 100.36L331.34 100.36Q326.23 100.36 323.10 97.34Q319.97 94.31 319.97 89.70L319.97 89.70Q319.97 84.45 323.96 81.53Q327.96 78.62 334.87 78.62L334.87 78.62L341.50 78.62L341.50 76.74Q341.50 72.42 339.55 70.23Q337.61 68.03 333.00 68.03L333.00 68.03Q327.17 68.03 322.63 71.13ZM357.26 63.50L362.88 63.50L362.88 69.90Q365.76 63.14 372.82 63.14L372.82 63.14Q374.11 63.14 374.83 63.28L374.83 63.28L374.83 68.90Q373.32 68.39 371.74 68.39L371.74 68.39Q367.92 68.39 365.40 71.92Q362.88 75.45 362.88 80.06L362.88 80.06L362.88 100L357.19 100L357.26 63.50Z"/></svg>