<svg xmlns="http://www.w3.org/2000/svg" viewBox="0.73 -7.24 18.900000000000002 7.3100000000000005"><path d="M4.79-3.84L4.79-6.74L5.82-6.74L5.82 0L4.79 0L4.79-2.95L1.76-2.95L1.76 0L0.73 0L0.73-6.74L1.76-6.74L1.76-3.84L4.79-3.84ZM8.28 0L7.29 0L7.29-5.07L8.28-5.07L8.28 0ZM7.35-6.19Q7.17-6.36 7.17-6.62Q7.17-6.88 7.35-7.06Q7.52-7.24 7.78-7.24Q8.04-7.24 8.22-7.06Q8.40-6.88 8.40-6.62L8.40-6.62Q8.40-6.37 8.22-6.19Q8.04-6.01 7.78-6.01Q7.52-6.01 7.35-6.19ZM9.70-5.07L10.68-5.07L10.68-4.20Q11.13-5.14 12.26-5.14L12.26-5.14Q13.01-5.14 13.45-4.68Q13.89-4.22 13.89-3.43L13.89-3.43L13.89 0L12.91 0L12.91-3.20Q12.91-3.73 12.65-4.01Q12.38-4.29 11.94-4.29L11.94-4.29Q11.42-4.29 11.05-3.89Q10.68-3.48 10.68-2.75L10.68-2.75L10.68 0L9.70 0L9.70-5.07ZM17.26-0.79L17.26-0.79Q17.84-0.79 18.24-1.23Q18.64-1.67 18.64-2.57L18.64-2.57Q18.64-3.44 18.23-3.86Q17.81-4.28 17.29-4.28L17.29-4.28Q16.70-4.28 16.32-3.81Q15.94-3.35 15.94-2.49L15.94-2.49Q15.94-1.73 16.32-1.26Q16.69-0.79 17.26-0.79ZM18.64-4.30L18.64-7.07L19.63-7.07L19.63 0L18.64 0L18.64-0.77Q18.11 0.07 17.09 0.07L17.09 0.07Q16.09 0.07 15.51-0.69Q14.93-1.44 14.93-2.51L14.93-2.51Q14.93-3.70 15.54-4.42Q16.15-5.14 17.11-5.14L17.11-5.14Q18.10-5.14 18.64-4.30L18.64-4.30Z"/></svg>