<svg xmlns="http://www.w3.org/2000/svg" viewBox="5.256 47.87199999999999 686.0880000000001 52.63200000000001"><path d="M41.90 51.47L41.90 100L34.49 100L34.49 78.76L12.67 78.76L12.67 100L5.26 100L5.26 51.47L12.67 51.47L12.67 72.35L34.49 72.35L34.49 51.47L41.90 51.47ZM59.62 63.50L59.62 100L52.49 100L52.49 63.50L59.62 63.50ZM60.48 52.34L60.48 52.34Q60.48 54.14 59.18 55.43Q57.89 56.73 56.02 56.73Q54.14 56.73 52.88 55.47Q51.62 54.21 51.62 52.34Q51.62 50.46 52.88 49.17Q54.14 47.87 56.02 47.87Q57.89 47.87 59.18 49.17Q60.48 50.46 60.48 52.34ZM100.01 75.30L100.01 100L92.95 100L92.95 76.96Q92.95 73.14 91.04 71.13Q89.14 69.11 85.97 69.11L85.97 69.11Q82.22 69.11 79.56 72.03Q76.90 74.94 76.90 80.20L76.90 80.20L76.90 100L69.84 100L69.84 63.50L76.90 63.50L76.90 69.76Q80.14 62.99 88.27 62.99L88.27 62.99Q93.67 62.99 96.84 66.30Q100.01 69.62 100.01 75.30L100.01 75.30ZM114.77 82.07L114.77 82.07Q114.77 87.54 117.47 90.93Q120.17 94.31 124.27 94.31L124.27 94.31Q128.45 94.31 131.33 91.14Q134.21 87.98 134.21 81.50L134.21 81.50Q134.21 75.23 131.22 72.21Q128.23 69.18 124.49 69.18L124.49 69.18Q120.24 69.18 117.50 72.53Q114.77 75.88 114.77 82.07ZM141.34 49.10L141.34 100L134.21 100L134.21 94.46Q130.39 100.50 123.05 100.50L123.05 100.50Q115.85 100.50 111.67 95.07Q107.50 89.63 107.50 81.93L107.50 81.93Q107.50 73.36 111.89 68.18Q116.28 62.99 123.19 62.99L123.19 62.99Q130.32 62.99 134.21 69.04L134.21 69.04L134.21 49.10L141.34 49.10ZM177.41 80.99L175.97 100L168.62 100L172.37 51.47L181.15 51.47L187.63 69.18Q189.36 73.72 191.09 78.80Q192.82 83.87 193.68 86.68L193.68 86.68L194.62 89.49Q197.93 79.70 201.89 69.18L201.89 69.18L208.66 51.47L217.44 51.47L221.90 100L214.56 100L212.83 80.99L211.32 61.55Q208.08 70.70 204.26 80.99L204.26 80.99L197.50 99.06L191.66 99.06L185.11 80.99L178.56 61.84Q178.56 65.01 177.41 80.99L177.41 80.99ZM243.29 94.74L243.29 94.74Q246.74 94.74 248.72 92.84Q250.70 90.93 250.70 87.83L250.70 87.83L250.70 83.73L245.23 83.73Q241.20 83.73 239.15 85.31Q237.10 86.90 237.10 89.34L237.10 89.34Q237.10 91.86 238.68 93.30Q240.26 94.74 243.29 94.74ZM250.92 100L250.92 95.68Q248.11 100.29 241.06 100.29L241.06 100.29Q235.87 100.29 232.74 97.30Q229.61 94.31 229.61 89.70L229.61 89.70Q229.61 84.45 233.57 81.53Q237.53 78.62 244.66 78.62L244.66 78.62L250.70 78.62L250.70 76.53Q250.70 72.78 248.90 70.88Q247.10 68.97 242.93 68.97L242.93 68.97Q237.10 68.97 232.34 72.21L232.34 72.21L232.34 65.37Q236.59 62.92 243.58 62.92L243.58 62.92Q257.90 62.92 257.90 76.82L257.90 76.82L257.90 100L250.92 100ZM272.66 82.07L272.66 82.07Q272.66 87.54 275.36 90.93Q278.06 94.31 282.17 94.31L282.17 94.31Q286.34 94.31 289.22 91.14Q292.10 87.98 292.10 81.50L292.10 81.50Q292.10 75.23 289.12 72.21Q286.13 69.18 282.38 69.18L282.38 69.18Q278.14 69.18 275.40 72.53Q272.66 75.88 272.66 82.07ZM299.23 49.10L299.23 100L292.10 100L292.10 94.46Q288.29 100.50 280.94 100.50L280.94 100.50Q273.74 100.50 269.57 95.07Q265.39 89.63 265.39 81.93L265.39 81.93Q265.39 73.36 269.78 68.18Q274.18 62.99 281.09 62.99L281.09 62.99Q288.22 62.99 292.10 69.04L292.10 69.04L292.10 49.10L299.23 49.10ZM338.90 63.50L338.90 100L331.85 100L331.85 93.74Q328.97 100.43 320.47 100.43L320.47 100.43Q315.07 100.43 311.90 97.23Q308.74 94.02 308.74 88.41L308.74 88.41L308.74 63.50L315.86 63.50L315.86 86.68Q315.86 90.42 317.70 92.40Q319.54 94.38 322.78 94.38L322.78 94.38Q326.88 94.38 329.36 91.50Q331.85 88.62 331.85 83.37L331.85 83.37L331.85 63.50L338.90 63.50ZM355.90 80.56L355.90 100L348.84 100L348.84 63.50L355.90 63.50L355.90 69.90Q358.56 63.14 365.47 63.14L365.47 63.14Q366.48 63.14 367.70 63.35L367.70 63.35L367.70 70.26Q366.19 69.62 364.32 69.62L364.32 69.62Q360.65 69.62 358.27 72.86Q355.90 76.10 355.90 80.56L355.90 80.56ZM385.06 94.74L385.06 94.74Q388.51 94.74 390.49 92.84Q392.47 90.93 392.47 87.83L392.47 87.83L392.47 83.73L387.00 83.73Q382.97 83.73 380.92 85.31Q378.86 86.90 378.86 89.34L378.86 89.34Q378.86 91.86 380.45 93.30Q382.03 94.74 385.06 94.74ZM392.69 100L392.69 95.68Q389.88 100.29 382.82 100.29L382.82 100.29Q377.64 100.29 374.51 97.30Q371.38 94.31 371.38 89.70L371.38 89.70Q371.38 84.45 375.34 81.53Q379.30 78.62 386.42 78.62L386.42 78.62L392.47 78.62L392.47 76.53Q392.47 72.78 390.67 70.88Q388.87 68.97 384.70 68.97L384.70 68.97Q378.86 68.97 374.11 72.21L374.11 72.21L374.11 65.37Q378.36 62.92 385.34 62.92L385.34 62.92Q399.67 62.92 399.67 76.82L399.67 76.82L399.67 100L392.69 100ZM416.59 63.50L416.59 100L409.46 100L409.46 63.50L416.59 63.50ZM417.46 52.34L417.46 52.34Q417.46 54.14 416.16 55.43Q414.86 56.73 412.99 56.73Q411.12 56.73 409.86 55.47Q408.60 54.21 408.60 52.34Q408.60 50.46 409.86 49.17Q411.12 47.87 412.99 47.87Q414.86 47.87 416.16 49.17Q417.46 50.46 417.46 52.34ZM494.71 75.45L494.71 100L487.66 100L487.66 76.96Q487.66 69.11 481.32 69.11L481.32 69.11Q478.15 69.11 475.67 71.92Q473.18 74.73 473.18 80.20L473.18 80.20L473.18 100L466.13 100L466.13 76.96Q466.13 69.11 459.72 69.11L459.72 69.11Q456.62 69.11 454.10 71.92Q451.58 74.73 451.58 80.20L451.58 80.20L451.58 100L444.53 100L444.53 63.50L451.58 63.50L451.58 69.33Q454.68 62.99 461.88 62.99L461.88 62.99Q470.09 62.99 472.39 70.05L472.39 70.05Q473.90 66.66 476.78 64.83Q479.66 62.99 483.26 62.99L483.26 62.99Q488.88 62.99 491.80 66.30Q494.71 69.62 494.71 75.45L494.71 75.45ZM531.50 91.72L531.50 98.06Q527.47 100.36 520.85 100.36L520.85 100.36Q512.35 100.36 507.31 95.25Q502.27 90.14 502.27 81.86L502.27 81.86Q502.27 73.07 506.88 68.07Q511.49 63.06 518.62 63.06L518.62 63.06Q525.60 63.06 529.70 67.42Q533.81 71.78 533.81 79.98L533.81 79.98Q533.81 82.22 533.38 84.66L533.38 84.66L509.40 84.66Q510.12 89.42 513.43 91.94Q516.74 94.46 521.78 94.46L521.78 94.46Q527.62 94.46 531.50 91.72L531.50 91.72ZM518.76 68.90L518.76 68.90Q515.16 68.90 512.57 71.52Q509.98 74.15 509.33 79.12L509.33 79.12L526.97 79.12L526.97 77.82Q526.82 73.72 524.74 71.31Q522.65 68.90 518.76 68.90ZM547.34 82.07L547.34 82.07Q547.34 87.54 550.04 90.93Q552.74 94.31 556.85 94.31L556.85 94.31Q561.02 94.31 563.90 91.14Q566.78 87.98 566.78 81.50L566.78 81.50Q566.78 75.23 563.80 72.21Q560.81 69.18 557.06 69.18L557.06 69.18Q552.82 69.18 550.08 72.53Q547.34 75.88 547.34 82.07ZM573.91 49.10L573.91 100L566.78 100L566.78 94.46Q562.97 100.50 555.62 100.50L555.62 100.50Q548.42 100.50 544.25 95.07Q540.07 89.63 540.07 81.93L540.07 81.93Q540.07 73.36 544.46 68.18Q548.86 62.99 555.77 62.99L555.77 62.99Q562.90 62.99 566.78 69.04L566.78 69.04L566.78 49.10L573.91 49.10ZM591.26 63.50L591.26 100L584.14 100L584.14 63.50L591.26 63.50ZM592.13 52.34L592.13 52.34Q592.13 54.14 590.83 55.43Q589.54 56.73 587.66 56.73Q585.79 56.73 584.53 55.47Q583.27 54.21 583.27 52.34Q583.27 50.46 584.53 49.17Q585.79 47.87 587.66 47.87Q589.54 47.87 590.83 49.17Q592.13 50.46 592.13 52.34ZM631.22 63.50L631.22 100L624.17 100L624.17 93.74Q621.29 100.43 612.79 100.43L612.79 100.43Q607.39 100.43 604.22 97.23Q601.06 94.02 601.06 88.41L601.06 88.41L601.06 63.50L608.18 63.50L608.18 86.68Q608.18 90.42 610.02 92.40Q611.86 94.38 615.10 94.38L615.10 94.38Q619.20 94.38 621.68 91.50Q624.17 88.62 624.17 83.37L624.17 83.37L624.17 63.50L631.22 63.50ZM691.34 75.45L691.34 100L684.29 100L684.29 76.96Q684.29 69.11 677.95 69.11L677.95 69.11Q674.78 69.11 672.30 71.92Q669.82 74.73 669.82 80.20L669.82 80.20L669.82 100L662.76 100L662.76 76.96Q662.76 69.11 656.35 69.11L656.35 69.11Q653.26 69.11 650.74 71.92Q648.22 74.73 648.22 80.20L648.22 80.20L648.22 100L641.16 100L641.16 63.50L648.22 63.50L648.22 69.33Q651.31 62.99 658.51 62.99L658.51 62.99Q666.72 62.99 669.02 70.05L669.02 70.05Q670.54 66.66 673.42 64.83Q676.30 62.99 679.90 62.99L679.90 62.99Q685.51 62.99 688.43 66.30Q691.34 69.62 691.34 75.45L691.34 75.45Z"/></svg>