<svg xmlns="http://www.w3.org/2000/svg" viewBox="5.040000000000001 47.367999999999995 751.4640000000002 53.208"><path d="M43.20 51.47L43.20 100L34.06 100L34.06 79.62L14.11 79.62L14.11 100L5.04 100L5.04 51.47L14.11 51.47L14.11 71.78L34.06 71.78L34.06 51.47L43.20 51.47ZM61.92 63.50L61.92 100L53.28 100L53.28 63.50L61.92 63.50ZM62.78 52.55L62.78 52.55Q62.78 54.78 61.27 56.30Q59.76 57.81 57.60 57.81Q55.44 57.81 53.93 56.30Q52.42 54.78 52.42 52.55L52.42 52.55Q52.42 50.39 53.93 48.88Q55.44 47.37 57.60 47.37Q59.76 47.37 61.27 48.88Q62.78 50.39 62.78 52.55ZM103.32 75.74L103.32 100L94.68 100L94.68 77.54Q94.68 73.94 92.95 72.10Q91.22 70.26 88.27 70.26L88.27 70.26Q84.89 70.26 82.58 72.89Q80.28 75.52 80.28 80.42L80.28 80.42L80.28 100L71.64 100L71.64 63.50L80.28 63.50L80.28 69.76Q83.38 63.06 91.51 63.06L91.51 63.06Q96.98 63.06 100.15 66.38Q103.32 69.69 103.32 75.74L103.32 75.74ZM119.23 81.93L119.23 81.93Q119.23 86.90 121.75 89.99Q124.27 93.09 128.02 93.09L128.02 93.09Q131.90 93.09 134.50 90.10Q137.09 87.11 137.09 81.42L137.09 81.42Q137.09 75.88 134.35 73.11Q131.62 70.34 128.09 70.34L128.09 70.34Q124.34 70.34 121.79 73.40Q119.23 76.46 119.23 81.93ZM145.73 49.10L145.73 100L137.09 100L137.09 94.31Q133.34 100.50 126.00 100.50L126.00 100.50Q118.80 100.50 114.59 95.03Q110.38 89.56 110.38 81.78L110.38 81.78Q110.38 73.14 114.80 68.07Q119.23 62.99 126.14 62.99L126.14 62.99Q133.27 62.99 137.09 69.11L137.09 69.11L137.09 49.10L145.73 49.10ZM182.95 81.06L181.51 100L172.44 100L176.33 51.47L186.70 51.47L193.32 69.11Q195.05 73.58 196.56 78.00Q198.07 82.43 198.72 84.59L198.72 84.59L199.37 86.82Q201.60 79.34 205.56 69.11L205.56 69.11L212.33 51.47L222.70 51.47L227.45 100L218.38 100L216.65 81.06L215.35 64.07Q212.76 71.49 209.16 81.06L209.16 81.06L202.39 99.28L196.20 99.28L189.58 81.06L183.89 64.29Q183.89 67.82 182.95 81.06L182.95 81.06ZM248.83 93.88L248.83 93.88Q251.71 93.88 253.33 92.19Q254.95 90.50 254.95 87.76L254.95 87.76L254.95 84.30L250.49 84.30Q247.10 84.30 245.30 85.71Q243.50 87.11 243.50 89.27L243.50 89.27Q243.50 93.88 248.83 93.88ZM255.31 100L255.31 95.61Q252.79 100.29 245.81 100.29L245.81 100.29Q240.62 100.29 237.56 97.26Q234.50 94.24 234.50 89.63L234.50 89.63Q234.50 84.45 238.39 81.50Q242.28 78.54 249.62 78.54L249.62 78.54L254.95 78.54L254.95 76.31Q254.95 73.29 253.37 71.70Q251.78 70.12 247.97 70.12L247.97 70.12Q242.14 70.12 237.24 73.36L237.24 73.36L237.24 65.37Q241.34 62.85 249.05 62.85L249.05 62.85Q263.88 62.85 263.88 76.67L263.88 76.67L263.88 100L255.31 100ZM279.72 81.93L279.72 81.93Q279.72 86.90 282.24 89.99Q284.76 93.09 288.50 93.09L288.50 93.09Q292.39 93.09 294.98 90.10Q297.58 87.11 297.58 81.42L297.58 81.42Q297.58 75.88 294.84 73.11Q292.10 70.34 288.58 70.34L288.58 70.34Q284.83 70.34 282.28 73.40Q279.72 76.46 279.72 81.93ZM306.22 49.10L306.22 100L297.58 100L297.58 94.31Q293.83 100.50 286.49 100.50L286.49 100.50Q279.29 100.50 275.08 95.03Q270.86 89.56 270.86 81.78L270.86 81.78Q270.86 73.14 275.29 68.07Q279.72 62.99 286.63 62.99L286.63 62.99Q293.76 62.99 297.58 69.11L297.58 69.11L297.58 49.10L306.22 49.10ZM346.90 63.50L346.90 100L338.18 100L338.18 94.02Q335.30 100.36 326.95 100.36L326.95 100.36Q321.41 100.36 318.31 97.19Q315.22 94.02 315.22 88.19L315.22 88.19L315.22 63.50L323.86 63.50L323.86 86.18Q323.86 89.63 325.55 91.43Q327.24 93.23 330.19 93.23L330.19 93.23Q333.94 93.23 336.06 90.71Q338.18 88.19 338.18 83.08L338.18 83.08L338.18 63.50L346.90 63.50ZM364.90 81.14L364.90 100L356.18 100L356.26 63.50L364.90 63.50L364.90 69.98Q367.42 63.21 374.11 63.21L374.11 63.21Q375.62 63.21 376.56 63.42L376.56 63.42L376.56 71.78Q374.90 71.06 372.89 71.06L372.89 71.06Q369.36 71.06 367.13 73.94Q364.90 76.82 364.90 81.14L364.90 81.14ZM394.20 93.88L394.20 93.88Q397.08 93.88 398.70 92.19Q400.32 90.50 400.32 87.76L400.32 87.76L400.32 84.30L395.86 84.30Q392.47 84.30 390.67 85.71Q388.87 87.11 388.87 89.27L388.87 89.27Q388.87 93.88 394.20 93.88ZM400.68 100L400.68 95.61Q398.16 100.29 391.18 100.29L391.18 100.29Q385.99 100.29 382.93 97.26Q379.87 94.24 379.87 89.63L379.87 89.63Q379.87 84.45 383.76 81.50Q387.65 78.54 394.99 78.54L394.99 78.54L400.32 78.54L400.32 76.31Q400.32 73.29 398.74 71.70Q397.15 70.12 393.34 70.12L393.34 70.12Q387.50 70.12 382.61 73.36L382.61 73.36L382.61 65.37Q386.71 62.85 394.42 62.85L394.42 62.85Q409.25 62.85 409.25 76.67L409.25 76.67L409.25 100L400.68 100ZM427.18 63.50L427.18 100L418.54 100L418.54 63.50L427.18 63.50ZM428.04 52.55L428.04 52.55Q428.04 54.78 426.53 56.30Q425.02 57.81 422.86 57.81Q420.70 57.81 419.18 56.30Q417.67 54.78 417.67 52.55L417.67 52.55Q417.67 50.39 419.18 48.88Q420.70 47.37 422.86 47.37Q425.02 47.37 426.53 48.88Q428.04 50.39 428.04 52.55ZM478.58 89.49L478.58 89.49Q478.58 94.60 474.91 97.48Q471.24 100.36 465.12 100.36L465.12 100.36Q458.35 100.36 454.18 98.13L454.18 98.13L454.18 90.21Q459.00 93.45 464.62 93.45L464.62 93.45Q466.99 93.45 468.32 92.55Q469.66 91.65 469.66 90.06L469.66 90.06Q469.66 89.13 469.22 88.37Q468.79 87.62 467.57 86.90Q466.34 86.18 465.66 85.85Q464.98 85.53 462.96 84.66L462.96 84.66Q462.74 84.59 462.64 84.52Q462.53 84.45 462.31 84.38Q462.10 84.30 461.95 84.23L461.95 84.23Q453.96 80.63 453.96 73.86L453.96 73.86Q453.96 68.82 457.78 65.94Q461.59 63.06 467.35 63.06L467.35 63.06Q472.90 63.06 476.57 64.65L476.57 64.65L476.57 72.28Q472.97 70.12 467.57 70.12L467.57 70.12Q465.34 70.12 464.08 71.09Q462.82 72.06 462.82 73.58L462.82 73.58Q462.82 74.15 463.00 74.66Q463.18 75.16 463.64 75.63Q464.11 76.10 464.54 76.46Q464.98 76.82 465.77 77.21Q466.56 77.61 467.14 77.90Q467.71 78.18 468.72 78.62Q469.73 79.05 470.30 79.34L470.30 79.34Q474.12 81.21 476.35 83.51Q478.58 85.82 478.58 89.49ZM513.36 90.50L513.36 97.98Q509.54 100.36 502.34 100.36L502.34 100.36Q493.63 100.36 488.59 95.18Q483.55 89.99 483.55 81.78L483.55 81.78Q483.55 73.07 488.30 68.10Q493.06 63.14 500.18 63.14Q507.31 63.14 511.49 67.46Q515.66 71.78 515.66 80.06L515.66 80.06Q515.66 82.07 515.16 85.24L515.16 85.24L492.26 85.24Q493.20 89.20 496.19 91.29Q499.18 93.38 503.64 93.38L503.64 93.38Q509.40 93.38 513.36 90.50L513.36 90.50ZM500.40 69.90L500.40 69.90Q497.30 69.90 495.04 72.17Q492.77 74.44 492.12 78.76L492.12 78.76L507.46 78.76L507.46 77.68Q507.31 74.15 505.55 72.03Q503.78 69.90 500.40 69.90ZM575.35 75.95L575.35 100L566.64 100L566.64 77.61Q566.64 70.26 561.02 70.26L561.02 70.26Q558.22 70.26 556.02 72.71Q553.82 75.16 553.82 80.42L553.82 80.42L553.82 100L545.11 100L545.11 77.61Q545.11 70.26 539.50 70.26L539.50 70.26Q536.69 70.26 534.46 72.71Q532.22 75.16 532.22 80.42L532.22 80.42L532.22 100L523.58 100L523.58 63.50L532.22 63.50L532.22 69.26Q535.32 63.06 542.52 63.06L542.52 63.06Q550.51 63.06 552.89 69.98L552.89 69.98Q554.33 66.66 557.21 64.86Q560.09 63.06 563.76 63.06L563.76 63.06Q569.30 63.06 572.33 66.41Q575.35 69.76 575.35 75.95L575.35 75.95ZM593.28 63.50L593.28 100L584.64 100L584.64 63.50L593.28 63.50ZM594.14 52.55L594.14 52.55Q594.14 54.78 592.63 56.30Q591.12 57.81 588.96 57.81Q586.80 57.81 585.29 56.30Q583.78 54.78 583.78 52.55L583.78 52.55Q583.78 50.39 585.29 48.88Q586.80 47.37 588.96 47.37Q591.12 47.37 592.63 48.88Q594.14 50.39 594.14 52.55ZM629.64 94.38L629.64 100L620.93 100L620.93 49.10L629.64 49.10L629.64 69.04Q633.46 62.99 640.58 62.99L640.58 62.99Q647.42 62.99 651.85 68.07Q656.28 73.14 656.28 81.78L656.28 81.78Q656.28 89.56 652.07 95.03Q647.86 100.50 640.66 100.50Q633.46 100.50 629.64 94.38L629.64 94.38ZM629.64 81.42L629.64 81.42Q629.64 87.11 632.23 90.10Q634.82 93.09 638.71 93.09L638.71 93.09Q642.46 93.09 644.98 89.99Q647.50 86.90 647.50 81.93L647.50 81.93Q647.50 76.46 644.94 73.40Q642.38 70.34 638.64 70.34L638.64 70.34Q635.11 70.34 632.38 73.11Q629.64 75.88 629.64 81.42ZM696.96 81.64L696.96 81.64Q696.96 89.92 692.32 95.25Q687.67 100.58 679.32 100.58L679.32 100.58Q671.04 100.58 666.40 95.39Q661.75 90.21 661.75 82.14L661.75 82.14Q661.75 73.79 666.58 68.36Q671.40 62.92 679.32 62.92L679.32 62.92Q687.74 62.92 692.35 68.21Q696.96 73.50 696.96 81.64ZM670.82 81.86L670.82 81.86Q670.82 86.90 673.06 90.28Q675.29 93.66 679.39 93.66L679.39 93.66Q683.64 93.66 685.80 90.35Q687.96 87.04 687.96 81.93L687.96 81.93Q687.96 76.67 685.87 73.32Q683.78 69.98 679.32 69.98L679.32 69.98Q675.22 69.98 673.02 73.36Q670.82 76.74 670.82 81.86ZM713.38 49.10L713.38 100L704.74 100L704.74 49.10L713.38 49.10ZM730.01 81.93L730.01 81.93Q730.01 86.90 732.53 89.99Q735.05 93.09 738.79 93.09L738.79 93.09Q742.68 93.09 745.27 90.10Q747.86 87.11 747.86 81.42L747.86 81.42Q747.86 75.88 745.13 73.11Q742.39 70.34 738.86 70.34L738.86 70.34Q735.12 70.34 732.56 73.40Q730.01 76.46 730.01 81.93ZM756.50 49.10L756.50 100L747.86 100L747.86 94.31Q744.12 100.50 736.78 100.50L736.78 100.50Q729.58 100.50 725.36 95.03Q721.15 89.56 721.15 81.78L721.15 81.78Q721.15 73.14 725.58 68.07Q730.01 62.99 736.92 62.99L736.92 62.99Q744.05 62.99 747.86 69.11L747.86 69.11L747.86 49.10L756.50 49.10Z"/></svg>