<svg xmlns="http://www.w3.org/2000/svg" viewBox="4.680000000000001 46.791999999999994 601.5600000000001 53.784"><path d="M45 51L45 100L34 100L34 81L16 81L16 100L5 100L5 51L16 51L16 71L34 71L34 51L45 51ZM65 63L65 100L54 100L54 63L65 63ZM64 49Q65 50 65 53Q65 55 64 57Q62 59 59 59Q57 59 55 57Q53 55 53 53Q53 50 55 49Q57 47 59 47Q62 47 64 49ZM107 76L107 100L97 100L97 78Q97 75 95 73Q94 72 91 72L91 72Q88 72 86 74Q84 76 84 81L84 81L84 100L74 100L74 63L84 63L84 70Q85 67 88 65Q91 63 95 63L95 63Q101 63 104 66Q107 70 107 76L107 76ZM124 82L124 82Q124 86 127 89Q129 92 132 92L132 92Q136 92 138 89Q140 86 140 81L140 81Q140 77 138 74Q135 72 132 72Q129 72 126 74Q124 77 124 82ZM151 49L151 100L140 100L140 94Q137 100 129 100L129 100Q122 100 118 95Q114 89 114 82L114 82Q114 73 118 68Q122 63 129 63L129 63Q136 63 140 69L140 69L140 49L151 49ZM189 81L188 100L177 100L181 51L193 51L200 69Q201 73 203 77Q204 81 204 82L204 82L205 84Q206 79 210 69L210 69L217 51L229 51L234 100L223 100L221 81L220 67Q218 72 215 81L215 81L208 99L201 99L195 81Q193 77 192 73Q191 70 190 68L190 68L190 67Q190 72 189 81L189 81ZM255 93L255 93Q257 93 258 91Q260 90 260 88L260 88L260 85L256 85Q254 85 252 86Q251 87 251 89L251 89Q251 93 255 93ZM260 100L260 96Q258 100 251 100L251 100Q246 100 243 97Q240 94 240 90L240 90Q240 84 244 81Q248 79 255 79L255 79L260 79L260 76Q260 71 254 71L254 71Q248 71 243 75L243 75L243 65Q247 63 255 63L255 63Q263 63 267 66Q271 70 271 77L271 77L271 100L260 100ZM288 82L288 82Q288 86 290 89Q292 92 296 92L296 92Q299 92 301 89Q304 86 304 81L304 81Q304 77 301 74Q299 72 295 72Q292 72 290 74Q288 77 288 82ZM314 49L314 100L304 100L304 94Q300 100 293 100L293 100Q286 100 281 95Q277 89 277 82L277 82Q277 73 281 68Q286 63 293 63L293 63Q300 63 304 69L304 69L304 49L314 49ZM356 63L356 100L345 100L345 94Q343 100 334 100L334 100Q329 100 326 97Q322 94 322 88L322 88L322 63L333 63L333 86Q333 92 339 92L339 92Q345 92 345 83L345 83L345 63L356 63ZM375 82L375 100L364 100L365 63L375 63L375 70Q376 67 378 65Q381 63 384 63L384 63Q385 63 386 64L386 64L386 74Q385 73 383 73L383 73Q379 73 377 75Q375 78 375 82L375 82ZM405 93L405 93Q407 93 408 91Q409 90 409 88L409 88L409 85L406 85Q403 85 402 86Q400 87 400 89L400 89Q400 93 405 93ZM410 100L410 96Q407 100 401 100L401 100Q395 100 392 97Q389 94 389 90L389 90Q389 84 393 81Q397 79 405 79L405 79L409 79L409 76Q409 71 403 71L403 71Q397 71 392 75L392 75L392 65Q397 63 405 63L405 63Q412 63 416 66Q420 70 420 77L420 77L420 100L410 100ZM439 63L439 100L429 100L429 63L439 63ZM438 49Q440 50 440 53Q440 55 438 57Q436 59 434 59Q431 59 430 57Q428 55 428 53Q428 50 430 49Q431 47 434 47Q436 47 438 49ZM477 94L477 100L466 100L466 49L477 49L477 69Q480 63 488 63L488 63Q494 63 499 68Q503 73 503 82L503 82Q503 89 499 95Q495 100 488 100L488 100Q480 100 477 94L477 94ZM477 81L477 81Q477 86 479 89Q481 92 485 92L485 92Q488 92 490 89Q493 86 493 82L493 82Q493 77 490 74Q488 72 485 72Q482 72 479 74Q477 77 477 81ZM544 82L544 82Q544 90 539 95Q535 101 526 101L526 101Q518 101 513 95Q508 90 508 82L508 82Q508 74 513 68Q518 63 526 63L526 63Q535 63 539 68Q544 73 544 82ZM521 74Q519 77 519 82Q519 86 521 89Q523 92 526 92L526 92Q530 92 532 90Q533 87 533 82L533 82Q533 71 526 71L526 71Q523 71 521 74ZM562 49L562 100L551 100L551 49L562 49ZM580 82L580 82Q580 86 582 89Q584 92 588 92L588 92Q591 92 593 89Q596 86 596 81L596 81Q596 77 593 74Q591 72 588 72Q584 72 582 74Q580 77 580 82ZM606 49L606 100L596 100L596 94Q592 100 585 100L585 100Q578 100 573 95Q569 89 569 82L569 82Q569 73 574 68Q578 63 585 63L585 63Q592 63 596 69L596 69L596 49L606 49Z"/></svg>