<svg xmlns="http://www.w3.org/2000/svg" viewBox="1.0546875 47.546875 569.7421875 87.609375"><path d="M7 97L7 97Q6 95 6 92Q6 89 5 86Q5 83 5 80L5 80Q5 78 4 75L4 75Q4 74 3 72Q3 70 2 68Q2 66 1 64Q1 62 1 61L1 61Q2 60 3 60Q4 61 4 63Q5 65 6 68Q7 71 8 74Q8 78 9 81Q9 85 10 88Q10 91 11 93Q11 96 11 97L11 97Q11 98 11 98Q11 98 11 99Q11 99 10 100Q10 100 9 100L9 100Q9 100 9 100Q8 99 8 99Q7 98 7 98Q7 97 7 97ZM14 73L14 73Q14 72 15 72Q15 72 16 72L16 72Q16 72 16 72Q16 72 16 72Q17 73 17 73Q17 73 17 73L17 73Q18 73 20 72Q21 72 23 71Q24 70 26 69Q28 68 30 68L30 68Q32 68 34 69Q36 71 38 73Q39 75 41 77Q42 80 42 82Q43 85 44 88Q44 90 44 92L44 92Q44 92 44 94Q44 95 43 96Q43 98 43 98Q42 99 41 99L41 99Q41 99 41 99Q40 99 40 99Q40 99 39 99Q39 99 39 99L39 99Q40 93 39 88Q39 84 37 80Q36 77 34 74Q32 72 29 72L29 72Q27 72 25 73Q23 74 22 75Q21 76 20 78Q19 80 19 82Q19 85 19 87Q20 89 20 91Q21 94 21 96Q22 98 22 100L22 100Q20 100 18 99Q17 97 16 95Q15 92 15 89Q14 86 14 83Q14 80 14 77Q14 74 14 73ZM47 84L47 84Q47 81 47 79Q48 76 49 73Q51 71 53 69Q55 68 58 68L58 68Q60 68 62 68Q63 69 65 69Q67 70 69 72Q71 73 73 74L73 74Q73 72 73 69Q72 66 72 63Q71 60 70 57Q69 55 69 53Q69 51 69 49Q69 48 71 48L71 48Q72 49 74 52Q75 54 76 57Q77 61 78 65Q78 69 79 72Q79 76 79 80Q80 84 80 87Q80 90 81 92Q81 95 81 95L81 95Q81 97 80 97Q80 97 79 97L79 97Q78 97 78 97Q77 96 77 95Q77 95 76 94Q76 93 76 92Q76 91 75 91Q75 90 74 90L74 90Q74 90 74 90Q74 91 74 91L74 91Q72 92 70 94Q69 96 67 97Q64 98 62 99Q60 100 57 100L57 100Q55 100 53 98Q51 96 49 94Q48 92 47 89Q47 86 47 84ZM51 85L51 85Q52 88 52 90Q53 92 54 93Q54 94 55 95Q57 95 58 95L58 95Q61 95 63 94Q66 93 68 91Q70 89 72 86Q73 84 73 81L73 81Q73 81 73 81Q73 80 73 80L73 80Q69 76 66 75Q63 73 60 73Q58 73 56 74Q54 75 53 77Q52 79 51 81Q51 83 51 85ZM87 76L87 76Q87 75 87 75Q87 74 87 73Q87 72 87 71Q87 71 87 70L87 70Q87 68 89 68L89 68Q89 68 90 69Q90 69 91 70L91 70Q91 73 91 77Q92 80 92 83Q93 87 94 90Q94 93 94 97L94 97Q94 98 94 99Q93 100 92 100L92 100Q91 100 90 98Q90 97 89 94Q89 92 88 89Q88 86 88 83Q88 81 87 79Q87 76 87 76ZM84 58L84 58Q84 57 84 57Q85 57 86 57L86 57Q86 57 87 57Q88 58 88 59Q89 60 89 60L89 60Q89 61 88 61L88 61L87 61Q86 61 86 61Q85 61 85 61Q84 60 84 60Q84 59 84 58ZM97 81L97 81Q97 78 98 74Q99 71 101 68Q103 66 106 64Q109 63 113 63L113 63Q115 63 117 64Q119 65 120 66Q121 68 122 70L122 70Q122 72 122 74L122 74Q122 76 121 78Q119 80 117 82Q115 83 112 84Q109 85 107 85L107 85Q106 85 105 85Q104 85 104 84Q103 84 103 83Q102 83 102 82L102 82Q102 81 102 81Q102 81 103 81Q103 81 104 81L104 81Q105 81 107 81L107 81Q108 81 110 80Q112 80 114 79Q116 78 117 76Q118 75 118 74L118 74Q118 72 118 71Q118 69 117 68Q116 67 115 67Q113 66 112 66L112 66Q109 66 107 68Q105 69 104 71Q102 72 102 74Q101 77 101 79L101 79Q101 81 101 83Q101 85 101 86Q102 88 103 90Q104 91 106 93Q108 94 111 95Q114 95 118 96L118 96L131 95Q130 96 128 97Q126 98 124 99Q122 99 120 100Q118 100 117 100L117 100Q113 100 109 99Q106 97 103 95Q100 92 98 89Q97 86 97 81ZM173 99L173 99Q173 97 173 96Q172 94 172 93Q172 92 172 91Q172 91 172 90Q172 89 172 87Q172 86 172 84L172 84Q171 83 171 82Q170 82 169 82Q168 82 167 82Q166 82 165 82Q164 82 163 81L163 81Q163 81 163 80L163 80Q163 79 163 79Q163 79 163 79L163 79Q165 79 166 79Q167 79 168 78Q169 78 170 77L170 77Q170 76 170 75L170 75Q170 71 170 69Q170 66 169 64Q169 63 168 62L168 62Q167 62 165 62L165 62Q164 62 164 62Q163 62 162 62Q162 62 161 62Q160 62 160 62L160 62Q160 62 159 62Q159 63 159 63L159 63Q158 63 158 63L158 63Q158 63 158 63L158 63L158 63L158 63Q158 63 158 62Q157 62 157 61L157 61L157 61Q158 60 161 59Q163 59 167 58Q170 57 174 57Q178 57 182 57Q186 57 190 57Q194 58 197 59Q200 60 202 61L202 61Q204 63 204 65L204 65Q202 65 200 65Q197 64 195 63Q193 63 191 62Q189 61 186 61L186 61Q186 61 185 61Q183 61 182 61Q181 61 179 61Q178 62 176 62Q175 62 174 63Q174 63 174 64L174 64Q174 65 173 67Q173 69 173 71Q173 73 174 75Q174 76 175 77L175 77Q176 77 176 77Q176 77 177 77Q177 77 178 77Q178 77 178 77L178 77Q183 77 187 77Q190 77 191 78Q193 78 192 79Q192 80 190 81Q188 81 184 82Q181 82 176 82L176 82Q176 85 176 87Q176 89 176 90Q177 91 177 92Q177 92 177 93Q177 94 177 95Q178 96 178 99L178 99Q177 99 176 99Q175 99 174 99Q174 99 173 99Q173 99 173 99ZM200 99L200 99Q199 94 199 89Q199 85 199 80Q199 75 199 70Q199 65 199 60L199 60Q199 59 199 59Q200 59 200 59L200 59Q201 59 201 59Q202 60 202 60Q203 61 203 62Q203 62 203 63L203 63Q203 73 203 80Q204 86 203 90Q203 95 203 96Q203 98 202 99Q202 100 201 100Q200 100 200 99ZM207 86L207 86Q207 82 208 79Q210 76 213 74Q216 72 219 71Q222 70 226 70L226 70Q228 70 229 71Q231 72 232 73Q234 74 235 75Q236 77 237 78Q238 80 238 82Q238 83 238 85L238 85Q238 89 237 91Q236 94 233 96Q231 98 228 99Q225 100 222 100L222 100Q218 100 216 99Q213 98 211 96Q209 94 208 92Q207 89 207 86ZM210 85L210 85Q210 87 211 89Q212 91 213 93Q215 94 217 95Q219 96 221 96L221 96Q222 96 224 96Q225 95 227 94Q229 93 231 92Q232 90 233 88Q234 87 234 85Q235 83 234 81Q233 79 231 78Q228 76 224 74L224 74Q222 74 219 75Q217 76 215 77Q213 78 212 80Q210 82 210 85ZM265 93L265 93Q262 97 259 99Q256 100 254 100Q251 100 249 98Q247 96 245 94Q243 91 242 88Q241 85 241 82Q241 78 242 75Q243 72 245 70L245 70Q246 70 247 71L247 71Q247 71 247 72L247 72Q247 73 246 75Q246 76 246 77Q246 78 245 79Q245 80 245 82L245 82Q245 82 245 84Q246 85 246 87Q246 88 247 90Q248 91 248 93Q249 94 250 95Q251 95 253 95L253 95Q254 95 256 95Q257 94 259 93Q260 92 261 90Q262 89 262 87L262 87L263 78Q263 78 263 78Q263 78 264 78Q264 77 264 77Q265 77 265 77L265 77Q266 77 266 78Q266 80 267 82Q267 84 267 86Q267 88 268 90Q269 92 270 93L270 93Q272 95 275 95L275 95Q277 95 279 94Q280 93 281 91Q282 89 282 87Q282 85 281 83Q280 81 280 79Q279 77 278 76L278 76Q278 75 278 75Q278 75 278 75Q278 74 279 74Q279 74 279 74L279 74Q280 75 282 76Q283 78 284 80Q285 82 285 85Q286 87 286 90Q285 93 284 95Q283 97 280 99L280 99Q277 99 275 99Q273 99 272 99Q271 99 270 98Q269 98 268 97Q268 96 267 95Q266 95 265 93ZM289 81L289 81Q289 78 290 74Q291 71 293 68Q295 66 298 64Q301 63 305 63L305 63Q308 63 309 64Q311 65 312 66Q313 68 314 70L314 70Q314 72 314 74L314 74Q314 76 313 78Q311 80 309 82Q307 83 304 84Q302 85 299 85L299 85Q298 85 298 85Q297 85 296 84Q295 84 295 83Q294 83 294 82L294 82Q294 81 295 81Q295 81 295 81Q296 81 297 81L297 81Q298 81 299 81L299 81Q300 81 302 80Q304 80 306 79Q308 78 309 76Q311 75 311 74L311 74Q311 72 310 71Q310 69 309 68Q308 67 307 67Q305 66 304 66L304 66Q301 66 299 68Q297 69 296 71Q295 72 294 74Q293 77 293 79L293 79Q293 81 293 83Q293 85 294 86Q294 88 295 90Q296 91 298 93Q300 94 303 95Q306 95 310 96L310 96L323 95Q322 96 320 97Q318 98 316 99Q314 99 313 100Q311 100 309 100L309 100Q305 100 301 99Q298 97 295 95Q292 92 291 89Q289 86 289 81ZM333 100L333 100Q331 97 330 94Q329 91 328 87Q327 84 327 81Q326 77 326 75L326 75Q326 74 326 74Q326 73 326 73Q326 72 326 71Q326 71 327 70L327 70L327 70Q327 70 327 70Q327 70 327 70L327 70Q327 70 327 70Q327 70 327 70L327 70L328 70Q328 70 328 71Q329 71 329 71L329 71Q330 71 332 70Q333 69 334 69Q336 68 337 68Q338 68 340 68L340 68Q341 68 341 68Q342 68 343 68Q344 68 345 68Q345 69 347 69L347 69Q347 69 348 70Q348 70 348 71Q349 71 349 72Q349 73 349 74L349 74Q348 74 347 73Q345 73 343 73Q342 72 340 72Q338 71 337 72Q335 72 334 72L334 72Q332 73 331 75L331 75Q330 77 331 79Q331 81 331 83Q331 85 332 87Q333 88 333 90Q334 92 334 94Q335 96 335 98L335 98Q335 98 334 99Q334 100 333 100ZM385 100L385 100Q383 97 382 94Q381 91 380 87Q379 84 379 81Q378 77 378 75L378 75Q378 74 378 74Q378 73 378 73Q378 72 378 71Q378 71 379 70L379 70L379 70Q379 70 379 70Q379 70 379 70L379 70Q379 70 379 70Q379 70 379 70L379 70L379 70Q380 70 380 71Q381 71 381 71L381 71Q382 71 383 70Q385 69 386 69Q388 68 389 68Q390 68 392 68L392 68Q393 68 393 68Q394 68 395 68Q396 68 396 68Q397 69 398 69L398 69Q399 69 399 70Q400 70 400 71Q401 71 401 72Q401 73 401 74L401 74Q400 74 398 73Q397 73 395 73Q394 72 392 72Q390 71 389 72Q387 72 386 72L386 72Q384 73 383 75L383 75Q382 77 383 79Q383 81 383 83Q383 85 384 87Q385 88 385 90Q386 92 386 94Q387 96 387 98L387 98Q387 98 386 99Q386 100 385 100ZM403 81L403 81Q403 78 404 74Q405 71 407 68Q409 66 412 64Q415 63 419 63L419 63Q422 63 423 64Q425 65 426 66Q427 68 428 70L428 70Q428 72 428 74L428 74Q428 76 427 78Q425 80 423 82Q421 83 418 84Q416 85 413 85L413 85Q412 85 412 85Q411 85 410 84Q409 84 409 83Q408 83 408 82L408 82Q408 81 409 81Q409 81 409 81Q410 81 411 81L411 81Q412 81 413 81L413 81Q414 81 416 80Q418 80 420 79Q422 78 423 76Q425 75 425 74L425 74Q425 72 424 71Q424 69 423 68Q422 67 421 67Q419 66 418 66L418 66Q415 66 413 68Q411 69 410 71Q409 72 408 74Q407 77 407 79L407 79Q407 81 407 83Q407 85 408 86Q408 88 409 90Q410 91 412 93Q414 94 417 95Q420 95 424 96L424 96L437 95Q436 96 434 97Q432 98 430 99Q428 99 427 100Q425 100 423 100L423 100Q419 100 415 99Q412 97 409 95Q406 92 405 89Q403 86 403 81ZM429 120L429 120Q429 119 430 118Q430 117 430 117Q431 116 432 116Q432 116 433 116Q433 116 433 117Q433 118 433 120L433 120Q433 121 434 123Q435 124 438 125Q440 126 442 127Q445 128 447 129Q449 130 451 130L451 130Q453 131 454 131L454 131Q455 131 457 130Q458 129 459 127Q459 126 460 124Q461 122 461 120Q461 118 461 117Q461 115 461 114L461 114Q461 113 461 111Q461 110 461 108Q461 106 460 104Q460 102 460 100Q459 98 459 97Q459 96 458 96L458 96Q457 96 457 96Q456 97 455 97Q454 98 452 98Q451 99 450 99L450 99Q448 99 447 98Q445 97 443 96Q442 94 441 92Q440 91 440 89L440 89Q440 86 441 82Q443 79 445 76Q447 74 450 72Q453 70 456 70L456 70Q459 71 460 74Q462 76 463 80Q464 83 464 88Q464 92 464 97Q465 102 465 106Q465 110 465 114L465 114Q465 116 465 118Q465 120 464 123Q464 125 463 127Q463 129 461 131Q460 133 458 134Q457 135 455 135L455 135Q453 135 450 135Q448 134 445 133Q442 132 439 131Q437 130 434 128Q432 126 431 124Q429 122 429 120ZM444 87L444 87Q444 89 445 90Q445 91 446 92Q446 93 448 93Q449 94 450 94L450 94Q454 94 455 92Q457 91 458 89Q459 87 459 84L459 84Q459 82 459 80L459 80Q459 79 458 78Q458 77 458 76Q457 75 457 75Q456 74 455 74L455 74Q452 74 450 76Q449 77 447 79Q446 81 445 83Q444 85 444 87ZM492 90L492 90Q491 91 489 92Q488 93 487 94Q486 96 484 96Q483 97 481 97L481 97Q478 97 476 96Q474 95 473 93Q471 91 470 89Q469 87 468 84Q467 82 467 79Q466 77 466 75L466 75Q466 71 467 69Q467 67 469 66Q470 66 470 66Q471 67 471 70L471 70Q470 70 470 70Q470 71 470 72Q470 72 470 73Q470 73 470 74L470 74Q470 75 470 77Q471 79 471 81Q472 83 473 86Q474 88 475 89Q476 91 478 92Q479 93 481 93L481 93Q483 93 484 92Q486 91 487 89Q489 87 490 86Q491 84 491 82L491 82Q491 82 491 80Q491 78 491 77Q491 75 491 73Q491 72 491 71L491 71Q491 70 492 70Q492 69 493 69L493 69Q494 69 494 71Q495 72 495 73Q496 75 496 77Q496 79 496 81Q496 83 496 85Q496 86 496 87L496 87Q497 88 497 90Q498 91 499 93Q499 95 500 96Q500 97 500 98L500 98Q500 99 500 99Q499 100 498 100L498 100Q497 100 497 99Q496 99 496 98Q495 97 495 96Q495 95 495 94Q495 92 494 91Q493 90 492 90ZM504 99L504 99Q504 94 503 89Q503 85 503 80Q503 75 503 70Q504 65 503 60L503 60Q503 59 504 59Q504 59 505 59L505 59Q505 59 506 59Q506 60 507 60Q507 61 507 62Q508 62 508 63L508 63Q508 73 508 80Q508 86 508 90Q508 95 508 96Q507 98 507 99Q506 100 506 100Q505 100 504 99ZM511 88L511 88Q511 87 512 85Q513 84 514 82Q515 81 517 80Q519 79 522 78Q525 78 529 78Q532 78 536 80L536 80Q536 80 536 79L536 79L536 79Q536 77 535 75Q534 73 533 72Q531 70 529 69Q527 68 525 68L525 68Q525 68 524 68Q524 69 523 69Q523 69 522 70Q522 70 521 70L521 70Q521 70 521 70L521 70Q521 70 521 70L521 70Q521 69 520 69Q520 69 520 69L520 69Q520 68 521 67Q521 66 522 65Q523 65 524 64Q525 64 526 64L526 64Q529 64 531 66Q534 67 536 69Q538 72 540 74Q541 77 542 80Q544 83 544 87L544 87Q544 90 544 93L544 93Q544 93 544 93Q543 92 543 92Q542 92 542 92L542 92L542 92Q540 89 538 87Q537 85 535 84Q533 83 531 82Q530 82 529 81L529 81Q528 81 526 82Q525 82 523 82Q522 82 520 83Q519 84 518 84Q516 85 516 86Q515 88 515 89L515 89Q515 91 516 92Q518 93 519 94Q521 95 523 95Q525 95 526 95L526 95Q528 95 530 95Q532 95 534 95Q536 94 538 94Q540 94 541 94L541 94Q542 94 542 94Q542 94 543 94Q543 94 543 94Q544 94 544 94L544 94Q544 94 544 95Q545 95 545 95L545 95Q545 96 544 96Q543 97 541 97Q540 98 538 98Q536 99 535 99Q533 100 532 100Q531 100 530 100L530 100Q527 100 524 100Q520 99 518 98Q515 96 513 94Q511 92 511 88ZM554 100L554 100Q553 97 552 94Q550 91 550 87Q549 84 548 81Q548 77 548 75L548 75Q548 74 548 74Q548 73 548 73Q548 72 548 71Q548 71 549 70L549 70L549 70Q549 70 549 70Q549 70 549 70L549 70Q549 70 549 70Q549 70 549 70L549 70L549 70Q549 70 550 71Q550 71 551 71L551 71Q552 71 553 70Q554 69 556 69Q557 68 559 68Q560 68 561 68L561 68Q562 68 563 68Q564 68 565 68Q565 68 566 68Q567 69 568 69L568 69Q569 69 569 70Q570 70 570 71Q570 71 571 72Q571 73 571 74L571 74Q570 74 568 73Q567 73 565 73Q563 72 562 72Q560 71 558 72Q557 72 555 72L555 72Q554 73 553 75L553 75Q552 77 552 79Q552 81 553 83Q553 85 554 87Q554 88 555 90Q556 92 556 94Q557 96 557 98L557 98Q557 98 556 99Q555 100 554 100Z"/></svg>