<svg xmlns="http://www.w3.org/2000/svg" viewBox="-0.4 -7.79 55.37 9.3"><path d="M2.70-1.41Q2.59-0.52 2.17 0.13Q1.74 0.78 1.07 1.13Q0.41 1.48-0.40 1.51L-0.40 1.51L-0.26 0.38Q0.47 0.34 0.95-0.10Q1.43-0.55 1.54-1.44L1.54-1.44L2.25-7.28L3.42-7.28L2.70-1.41ZM6.52 0.11Q5.97 0.11 5.45-0.13Q4.92-0.36 4.58-0.83Q4.24-1.31 4.24-1.98L4.24-1.98Q4.24-2.56 4.50-3.12Q4.75-3.67 5.31-4.04Q5.86-4.41 6.71-4.41L6.71-4.41Q7.30-4.41 7.82-4.16Q8.34-3.91 8.66-3.44Q8.98-2.96 8.98-2.32L8.98-2.32Q8.98-1.80 8.75-1.24Q8.51-0.68 7.96-0.29Q7.41 0.11 6.52 0.11L6.52 0.11ZM6.55-0.82Q6.99-0.82 7.28-1.04Q7.57-1.27 7.71-1.60Q7.84-1.93 7.84-2.27L7.84-2.27Q7.84-2.71 7.66-2.98Q7.47-3.25 7.20-3.37Q6.93-3.49 6.67-3.49L6.67-3.49Q6.23-3.49 5.94-3.27Q5.65-3.04 5.51-2.71Q5.37-2.37 5.37-2.03L5.37-2.03Q5.37-1.42 5.73-1.12Q6.09-0.82 6.55-0.82L6.55-0.82ZM11.29 0.09Q10.88 0.09 10.40-0.08Q9.91-0.25 9.58-0.69L9.58-0.69L10.13-1.29Q10.43-0.93 10.71-0.82Q11-0.70 11.29-0.70L11.29-0.70Q11.60-0.70 11.75-0.85Q11.89-1 11.89-1.18L11.89-1.18Q11.89-1.35 11.77-1.46Q11.65-1.57 11.52-1.63Q11.38-1.68 11.01-1.82L11.01-1.82Q10.08-2.19 10.08-3L10.08-3Q10.08-3.30 10.23-3.62Q10.38-3.94 10.74-4.17Q11.09-4.39 11.65-4.39L11.65-4.39Q12.65-4.39 13.25-3.84L13.25-3.84L12.74-3.19Q12.54-3.41 12.30-3.52Q12.06-3.62 11.81-3.62L11.81-3.62Q11.52-3.62 11.37-3.48Q11.22-3.35 11.22-3.16L11.22-3.16Q11.23-2.96 11.40-2.85Q11.57-2.73 11.91-2.60L11.91-2.60Q11.98-2.58 12.12-2.52L12.12-2.52Q12.56-2.32 12.80-2.06Q13.03-1.80 13.03-1.38L13.03-1.38Q13.03-1.01 12.84-0.68Q12.65-0.34 12.26-0.13Q11.87 0.09 11.29 0.09L11.29 0.09ZM16.44-0.85Q16.85-0.85 17.29-1.13L17.29-1.13L17.69-0.26Q17.37-0.09 17.01 0.01Q16.65 0.10 16.32 0.10L16.32 0.10Q15.28 0.10 14.67-0.46Q14.05-1.02 14.05-2.06L14.05-2.06Q14.05-2.62 14.33-3.17Q14.60-3.71 15.16-4.06Q15.72-4.41 16.52-4.41L16.52-4.41Q18.38-4.41 18.69-2.35L18.69-2.35L15.34-1.46Q15.50-1.15 15.80-1Q16.10-0.85 16.44-0.85L16.44-0.85ZM16.49-3.53Q15.87-3.53 15.52-3.14Q15.17-2.74 15.17-2.19L15.17-2.19L15.17-2.12L17.48-2.75Q17.37-3.11 17.11-3.32Q16.85-3.53 16.49-3.53L16.49-3.53ZM19.84 0L20.23-3.25L19.51-3.25L19.64-4.24L20.36-4.24L20.56-5.90Q20.67-6.79 21.18-7.29Q21.69-7.79 22.53-7.79L22.53-7.79Q22.78-7.79 23.06-7.71Q23.34-7.64 23.54-7.50L23.54-7.50L22.96-6.69Q22.82-6.87 22.54-6.87L22.54-6.87Q21.81-6.87 21.68-5.87L21.68-5.87L21.48-4.24L22.64-4.24L22.52-3.25L21.35-3.25L20.96 0L19.84 0ZM23.33-5.69Q23.34-5.96 23.53-6.14Q23.72-6.32 24.01-6.32L24.01-6.32Q24.26-6.32 24.45-6.18Q24.63-6.04 24.63-5.77L24.63-5.77Q24.63-5.50 24.44-5.32Q24.24-5.13 23.95-5.13L23.95-5.13Q23.71-5.14 23.52-5.28Q23.33-5.42 23.33-5.69L23.33-5.69ZM23.25-4.23L24.37-4.23L23.85 0L22.73 0L23.25-4.23ZM28.76-4.41Q29.33-4.41 29.68-4.10Q30.02-3.79 30.02-3.29L30.02-3.29Q30.02-3.19 30.01-3.14L30.01-3.14L29.63 0L28.51 0L28.85-2.74Q28.87-3.08 28.71-3.27Q28.55-3.45 28.19-3.45L28.19-3.45Q27.67-3.45 27.29-3.00Q26.91-2.56 26.83-1.87L26.83-1.87L26.60 0L25.48 0L25.99-4.23L27-4.23L27.01-3.55Q27.29-3.95 27.75-4.18Q28.20-4.41 28.76-4.41L28.76-4.41ZM38.88-5.67Q37.91-6.26 37.19-6.26L37.19-6.26Q36.64-6.26 36.34-6.02Q36.04-5.78 36-5.40L36-5.40Q35.97-5.01 36.33-4.71Q36.69-4.41 37.35-4.12L37.35-4.12Q38.07-3.80 38.48-3.37Q38.90-2.94 38.90-2.18L38.90-2.18Q38.90-1.61 38.61-1.09Q38.33-0.58 37.77-0.26Q37.22 0.06 36.43 0.06L36.43 0.06Q35.70 0.06 35.04-0.18Q34.38-0.42 33.87-0.86L33.87-0.86L34.49-1.73Q34.85-1.40 35.37-1.19Q35.89-0.97 36.35-0.97L36.35-0.97Q36.89-0.97 37.26-1.24Q37.64-1.51 37.68-1.98L37.68-1.98Q37.71-2.37 37.40-2.67Q37.10-2.96 36.56-3.20L36.56-3.20Q36-3.46 35.65-3.69Q35.30-3.91 35.04-4.28Q34.78-4.64 34.78-5.15L34.78-5.15Q34.78-5.81 35.09-6.30Q35.41-6.79 35.96-7.04Q36.51-7.30 37.20-7.29L37.20-7.29Q37.92-7.26 38.44-7.06Q38.96-6.86 39.44-6.52L39.44-6.52L38.88-5.67ZM43.86-4.23L44.89-4.23L44.38 0L43.26 0L43.33-0.61Q43.07-0.34 42.63-0.12Q42.20 0.10 41.61 0.09L41.61 0.09Q41.15 0.10 40.73-0.15Q40.32-0.40 40.07-0.88Q39.82-1.35 39.82-1.97L39.82-1.97Q39.82-2.58 40.12-3.15Q40.41-3.71 40.95-4.07Q41.49-4.42 42.19-4.42L42.19-4.42Q43.25-4.42 43.70-3.64L43.70-3.64L43.86-4.23ZM43.46-1.68L43.57-2.60Q43.50-3.01 43.17-3.25Q42.85-3.50 42.39-3.50L42.39-3.50Q41.91-3.50 41.59-3.28Q41.28-3.06 41.13-2.73Q40.98-2.41 40.98-2.10L40.98-2.10Q40.98-1.52 41.32-1.17Q41.67-0.81 42.23-0.81L42.23-0.81Q42.62-0.81 42.95-1.04Q43.28-1.27 43.46-1.68L43.46-1.68ZM49.21-4.41Q49.78-4.41 50.13-4.10Q50.47-3.79 50.47-3.29L50.47-3.29Q50.47-3.19 50.46-3.14L50.46-3.14L50.08 0L48.96 0L49.30-2.74Q49.32-3.08 49.16-3.27Q49-3.45 48.64-3.45L48.64-3.45Q48.12-3.45 47.74-3.00Q47.36-2.56 47.28-1.87L47.28-1.87L47.05 0L45.93 0L46.44-4.23L47.45-4.23L47.46-3.55Q47.74-3.95 48.19-4.18Q48.65-4.41 49.21-4.41L49.21-4.41ZM53.01 0.09Q52.60 0.09 52.12-0.08Q51.63-0.25 51.30-0.69L51.30-0.69L51.85-1.29Q52.15-0.93 52.44-0.82Q52.72-0.70 53.01-0.70L53.01-0.70Q53.32-0.70 53.46-0.85Q53.61-1 53.61-1.18L53.61-1.18Q53.61-1.35 53.49-1.46Q53.37-1.57 53.23-1.63Q53.10-1.68 52.73-1.82L52.73-1.82Q51.80-2.19 51.80-3L51.80-3Q51.80-3.30 51.95-3.62Q52.10-3.94 52.45-4.17Q52.81-4.39 53.37-4.39L53.37-4.39Q54.37-4.39 54.97-3.84L54.97-3.84L54.46-3.19Q54.26-3.41 54.02-3.52Q53.78-3.62 53.53-3.62L53.53-3.62Q53.24-3.62 53.09-3.48Q52.94-3.35 52.94-3.16L52.94-3.16Q52.95-2.96 53.12-2.85Q53.29-2.73 53.63-2.60L53.63-2.60Q53.70-2.58 53.84-2.52L53.84-2.52Q54.28-2.32 54.52-2.06Q54.75-1.80 54.75-1.38L54.75-1.38Q54.75-1.01 54.56-0.68Q54.37-0.34 53.98-0.13Q53.59 0.09 53.01 0.09L53.01 0.09Z"/></svg>