<svg xmlns="http://www.w3.org/2000/svg" viewBox="0.04 -7.79 55.019999999999996 9.3"><path d="M2.79-1.41Q2.79-0.52 2.44 0.13Q2.09 0.78 1.47 1.13Q0.85 1.48 0.04 1.51L0.04 1.51L0.04 0.38Q0.77 0.34 1.20-0.10Q1.62-0.55 1.62-1.44L1.62-1.44L1.62-7.28L2.79-7.28L2.79-1.41ZM4.21-2.16Q4.21-2.79 4.51-3.31Q4.82-3.83 5.36-4.13Q5.90-4.42 6.59-4.42L6.59-4.42Q7.28-4.42 7.82-4.13Q8.35-3.83 8.64-3.31Q8.93-2.80 8.93-2.16L8.93-2.16Q8.93-1.52 8.64-1.01Q8.35-0.49 7.82-0.19Q7.28 0.11 6.58 0.11L6.58 0.11Q5.90 0.11 5.36-0.17Q4.82-0.44 4.51-0.96Q4.21-1.47 4.21-2.16L4.21-2.16ZM5.34-2.15Q5.34-1.58 5.69-1.20Q6.04-0.81 6.56-0.81L6.56-0.81Q7.10-0.81 7.45-1.19Q7.79-1.57 7.79-2.15L7.79-2.15Q7.79-2.73 7.45-3.12Q7.10-3.50 6.56-3.50L6.56-3.50Q6.04-3.50 5.69-3.10Q5.34-2.71 5.34-2.15L5.34-2.15ZM11.38 0.09Q10.89 0.09 10.46-0.09Q10.02-0.26 9.74-0.58L9.74-0.58L10.21-1.21Q10.74-0.69 11.29-0.69L11.29-0.69Q11.59-0.69 11.79-0.81Q11.98-0.92 11.98-1.15L11.98-1.15Q11.98-1.39 11.78-1.51Q11.58-1.63 11.34-1.71Q11.09-1.78 11.02-1.80L11.02-1.80Q10.47-1.97 10.20-2.29Q9.93-2.62 9.93-3.06L9.93-3.06Q9.93-3.41 10.11-3.71Q10.28-4.02 10.63-4.21Q10.99-4.40 11.50-4.40L11.50-4.40Q11.98-4.40 12.34-4.29Q12.69-4.18 13-3.94L13-3.94L12.57-3.27Q12.39-3.44 12.13-3.54Q11.88-3.64 11.67-3.64L11.67-3.64Q11.41-3.64 11.24-3.52Q11.07-3.40 11.07-3.21L11.07-3.21Q11.06-2.98 11.24-2.87Q11.42-2.75 11.82-2.62L11.82-2.62Q11.99-2.57 12.04-2.55L12.04-2.55Q12.54-2.39 12.82-2.10Q13.10-1.82 13.10-1.36L13.10-1.36Q13.10-0.74 12.65-0.33Q12.21 0.09 11.38 0.09L11.38 0.09ZM16.38-0.85Q16.85-0.85 17.33-1.18L17.33-1.18L17.84-0.35Q17.50-0.14 17.11-0.01Q16.72 0.11 16.36 0.11L16.36 0.11Q15.63 0.11 15.10-0.18Q14.56-0.47 14.28-0.98Q13.99-1.49 13.99-2.15L13.99-2.15Q13.99-2.77 14.31-3.29Q14.63-3.81 15.18-4.12Q15.73-4.42 16.38-4.42L16.38-4.42Q17.24-4.42 17.81-3.92Q18.38-3.41 18.57-2.49L18.57-2.49L15.31-1.39Q15.48-1.13 15.76-0.99Q16.04-0.85 16.38-0.85L16.38-0.85ZM16.29-3.54Q15.76-3.54 15.43-3.17Q15.09-2.80 15.09-2.21L15.09-2.21Q15.09-2.10 15.10-2.04L15.10-2.04L17.32-2.83Q17.19-3.14 16.94-3.34Q16.69-3.54 16.29-3.54L16.29-3.54ZM20.04 0L20.04-3.25L19.32-3.25L19.32-4.24L20.04-4.24L20.04-5.90Q20.04-6.79 20.49-7.29Q20.94-7.79 21.78-7.79L21.78-7.79Q22.03-7.79 22.32-7.71Q22.61-7.64 22.82-7.50L22.82-7.50L22.35-6.69Q22.18-6.87 21.90-6.87L21.90-6.87Q21.16-6.87 21.16-5.87L21.16-5.87L21.16-4.24L22.32-4.24L22.32-3.25L21.16-3.25L21.16 0L20.04 0ZM22.97-5.74Q22.97-5.99 23.17-6.17Q23.37-6.34 23.62-6.34L23.62-6.34Q23.86-6.34 24.05-6.17Q24.25-5.99 24.25-5.74L24.25-5.74Q24.25-5.49 24.05-5.32Q23.86-5.15 23.62-5.15L23.62-5.15Q23.37-5.15 23.17-5.32Q22.97-5.49 22.97-5.74L22.97-5.74ZM23.02-4.23L24.14-4.23L24.14 0L23.02 0L23.02-4.23ZM28.45-4.41Q29.04-4.41 29.43-4.05Q29.83-3.70 29.84-3.14L29.84-3.14L29.84 0L28.72 0L28.72-2.74Q28.70-3.07 28.52-3.26Q28.35-3.45 28-3.46L28-3.46Q27.48-3.46 27.14-3.02Q26.81-2.57 26.81-1.88L26.81-1.88L26.81 0L25.69 0L25.69-4.23L26.70-4.23L26.78-3.48Q27.01-3.92 27.44-4.17Q27.88-4.41 28.45-4.41L28.45-4.41ZM38.63-5.80Q37.69-6.29 36.96-6.29L36.96-6.29Q36.42-6.29 36.11-6.05Q35.79-5.81 35.79-5.39L35.79-5.39Q35.79-4.98 36.19-4.71Q36.58-4.43 37.29-4.16L37.29-4.16Q37.83-3.97 38.22-3.73Q38.60-3.48 38.85-3.06Q39.10-2.64 39.10-2L39.10-2Q39.10-1.42 38.81-0.95Q38.52-0.48 37.97-0.20Q37.42 0.08 36.67 0.08L36.67 0.08Q36.01 0.08 35.37-0.13Q34.73-0.33 34.23-0.69L34.23-0.69L34.75-1.60Q35.12-1.32 35.63-1.14Q36.13-0.95 36.56-0.95L36.56-0.95Q37.09-0.95 37.49-1.21Q37.89-1.46 37.89-1.99L37.89-1.99Q37.89-2.41 37.55-2.69Q37.22-2.97 36.62-3.20L36.62-3.20Q36-3.43 35.59-3.66Q35.18-3.88 34.89-4.29Q34.59-4.69 34.59-5.30L34.59-5.30Q34.59-6.19 35.20-6.74Q35.80-7.28 36.79-7.32L36.79-7.32Q37.51-7.32 38.05-7.16Q38.60-6.99 39.07-6.69L39.07-6.69L38.63-5.80ZM43.80-4.23L44.83-4.23L44.83 0L43.71 0L43.71-0.61Q43.48-0.34 43.09-0.12Q42.70 0.11 42.18 0.11L42.18 0.11Q41.57 0.11 41.09-0.14Q40.61-0.40 40.33-0.90Q40.05-1.40 40.05-2.11L40.05-2.11Q40.05-2.80 40.34-3.33Q40.63-3.85 41.12-4.13Q41.60-4.42 42.18-4.42L42.18-4.42Q43.21-4.42 43.72-3.66L43.72-3.66L43.80-4.23ZM42.49-0.81Q42.95-0.81 43.27-1.04Q43.58-1.28 43.71-1.71L43.71-1.71L43.71-2.63Q43.59-3.02 43.25-3.26Q42.90-3.50 42.45-3.50L42.45-3.50Q41.92-3.50 41.55-3.13Q41.18-2.75 41.18-2.17L41.18-2.17Q41.18-1.79 41.36-1.48Q41.54-1.17 41.84-0.99Q42.14-0.81 42.49-0.81L42.49-0.81ZM49.14-4.41Q49.73-4.41 50.13-4.05Q50.52-3.70 50.53-3.14L50.53-3.14L50.53 0L49.41 0L49.41-2.74Q49.39-3.07 49.21-3.26Q49.04-3.45 48.69-3.46L48.69-3.46Q48.17-3.46 47.84-3.02Q47.50-2.57 47.50-1.88L47.50-1.88L47.50 0L46.38 0L46.38-4.23L47.39-4.23L47.47-3.48Q47.70-3.92 48.13-4.17Q48.57-4.41 49.14-4.41L49.14-4.41ZM53.34 0.09Q52.85 0.09 52.41-0.09Q51.98-0.26 51.70-0.58L51.70-0.58L52.17-1.21Q52.70-0.69 53.25-0.69L53.25-0.69Q53.55-0.69 53.74-0.81Q53.94-0.92 53.94-1.15L53.94-1.15Q53.94-1.39 53.74-1.51Q53.54-1.63 53.29-1.71Q53.05-1.78 52.98-1.80L52.98-1.80Q52.43-1.97 52.16-2.29Q51.89-2.62 51.89-3.06L51.89-3.06Q51.89-3.41 52.06-3.71Q52.24-4.02 52.59-4.21Q52.95-4.40 53.46-4.40L53.46-4.40Q53.94-4.40 54.29-4.29Q54.65-4.18 54.96-3.94L54.96-3.94L54.53-3.27Q54.35-3.44 54.09-3.54Q53.84-3.64 53.63-3.64L53.63-3.64Q53.37-3.64 53.20-3.52Q53.03-3.40 53.03-3.21L53.03-3.21Q53.02-2.98 53.20-2.87Q53.38-2.75 53.78-2.62L53.78-2.62Q53.95-2.57 54-2.55L54-2.55Q54.50-2.39 54.78-2.10Q55.06-1.82 55.06-1.36L55.06-1.36Q55.06-0.74 54.61-0.33Q54.17 0.09 53.34 0.09L53.34 0.09Z"/></svg>