<svg xmlns="http://www.w3.org/2000/svg" viewBox="-2.8800000000000003 44.99199999999999 684.5760000000001 68.68800000000002"><path d="M14.83 92.30Q14.18 97.84 11.66 101.91Q9.14 105.98 5.33 108.14Q1.51 110.30-2.88 110.44L-2.88 110.44L-2.45 106.98Q2.95 106.70 6.73 102.81Q10.51 98.92 11.38 92.08L11.38 92.08L16.70 48.88L20.16 48.88L14.83 92.30ZM41.76 100.58Q37.94 100.58 34.67 98.88Q31.39 97.19 29.45 94.06Q27.50 90.93 27.50 86.82L27.50 86.82Q27.50 83.01 29.23 79.37Q30.96 75.74 34.52 73.40Q38.09 71.06 43.34 71.06L43.34 71.06Q47.23 71.06 50.51 72.78Q53.78 74.51 55.69 77.64Q57.60 80.78 57.60 84.74L57.60 84.74Q57.60 88.48 55.91 92.12Q54.22 95.75 50.65 98.16Q47.09 100.58 41.76 100.58L41.76 100.58ZM41.90 97.70Q45.94 97.70 48.71 95.82Q51.48 93.95 52.81 91.04Q54.14 88.12 54.14 84.95L54.14 84.95Q54.14 81.71 52.63 79.19Q51.12 76.67 48.64 75.30Q46.15 73.94 43.20 73.94L43.20 73.94Q39.24 73.94 36.47 75.81Q33.70 77.68 32.33 80.60Q30.96 83.51 30.96 86.68L30.96 86.68Q30.96 89.85 32.44 92.37Q33.91 94.89 36.43 96.29Q38.95 97.70 41.90 97.70L41.90 97.70ZM73.51 100.58Q70.63 100.58 67.93 99.53Q65.23 98.49 63.58 96.11L63.58 96.11L65.38 94.02Q66.82 95.97 68.94 96.87Q71.06 97.77 73.51 97.77L73.51 97.77Q76.32 97.77 78.05 96.11Q79.78 94.46 79.78 92.58L79.78 92.58Q79.78 90.86 78.84 89.78Q77.90 88.70 76.79 88.12Q75.67 87.54 73.01 86.46L73.01 86.46Q70.06 85.31 68.44 83.62Q66.82 81.93 66.82 79.34L66.82 79.34Q66.82 77.39 67.86 75.52Q68.90 73.65 70.92 72.46Q72.94 71.27 75.60 71.27L75.60 71.27Q77.33 71.27 79.88 71.99Q82.44 72.71 84.38 74.94L84.38 74.94L82.66 77.25Q81.50 75.52 79.63 74.80Q77.76 74.08 75.74 74.08L75.74 74.08Q73.30 74.08 71.82 75.52Q70.34 76.96 70.34 78.69L70.34 78.69Q70.42 80.78 71.78 81.86Q73.15 82.94 76.03 84.16L76.03 84.16Q79.63 85.67 81.43 87.33Q83.23 88.98 83.23 92.22L83.23 92.22Q83.23 93.88 82.33 95.82Q81.43 97.77 79.27 99.17Q77.11 100.58 73.51 100.58L73.51 100.58ZM105.98 97.62Q110.23 97.62 113.69 94.96L113.69 94.96L115.13 97.55Q113.04 98.99 110.59 99.75Q108.14 100.50 105.70 100.50L105.70 100.50Q101.52 100.50 98.28 98.74Q95.04 96.98 93.24 93.81Q91.44 90.64 91.44 86.61L91.44 86.61Q91.44 82.58 93.46 79.01Q95.47 75.45 99.07 73.25Q102.67 71.06 107.21 71.06L107.21 71.06Q112.39 71.06 115.85 73.94Q119.30 76.82 120.46 82.43L120.46 82.43L95.47 90.21Q96.55 93.52 99.40 95.57Q102.24 97.62 105.98 97.62L105.98 97.62ZM107.14 73.86Q103.68 73.86 100.87 75.56Q98.06 77.25 96.44 80.09Q94.82 82.94 94.82 86.25L94.82 86.25Q94.82 87.18 94.90 87.62L94.90 87.62L116.50 80.92Q115.42 77.82 112.97 75.84Q110.52 73.86 107.14 73.86L107.14 73.86ZM129.53 100L132.55 75.02L127.73 75.02L128.09 71.92L132.91 71.92L134.64 57.74Q135.43 51.11 138.13 48.05Q140.83 44.99 145.51 44.99L145.51 44.99Q147.74 44.99 149.69 46.07L149.69 46.07L147.89 48.52Q147.10 47.80 145.51 47.80L145.51 47.80Q142.27 47.80 140.51 50.03Q138.74 52.26 138.10 57.66L138.10 57.66L136.30 71.92L145.37 71.92L145.01 75.02L135.94 75.02L132.91 100L129.53 100ZM152.93 63.06Q152.93 61.98 153.83 61.23Q154.73 60.47 155.81 60.54L155.81 60.54Q156.74 60.54 157.39 61.26Q158.04 61.98 157.97 62.92L157.97 62.92Q157.90 64.00 157.07 64.68Q156.24 65.37 155.16 65.37L155.16 65.37Q154.22 65.30 153.58 64.61Q152.93 63.93 152.93 63.06L152.93 63.06ZM152.57 71.85L155.95 71.85L152.50 100L149.11 100L152.57 71.85ZM184.61 71.06Q188.50 71.06 190.69 73.04Q192.89 75.02 192.89 78.33L192.89 78.33Q192.89 79.12 192.82 79.48L192.82 79.48L190.30 100L186.91 100L189.29 80.34L189.36 79.48Q189.36 77.03 187.74 75.56Q186.12 74.08 183.24 74.08L183.24 74.08Q178.78 74.08 175.39 77.18Q172.01 80.27 171.50 84.95L171.50 84.95L169.63 100L166.25 100L169.70 71.85L172.66 71.85L172.37 77.18Q174.38 74.37 177.55 72.71Q180.72 71.06 184.61 71.06L184.61 71.06ZM256.10 55.58Q253.51 54.14 250.20 53.06Q246.89 51.98 243.79 51.90L243.79 51.90Q239.62 51.90 237.06 53.45Q234.50 55.00 233.42 57.12Q232.34 59.25 232.34 61.12L232.34 61.12Q232.34 63.42 233.82 65.22Q235.30 67.02 237.46 68.32Q239.62 69.62 243.29 71.34L243.29 71.34Q247.10 73.07 249.62 74.66Q252.14 76.24 253.84 78.83Q255.53 81.42 255.53 85.17L255.53 85.17Q255.53 88.62 253.76 92.19Q252 95.75 248.26 98.13Q244.51 100.50 238.90 100.50L238.90 100.50Q233.64 100.50 229.43 98.70Q225.22 96.90 222.26 94.24L222.26 94.24L224.21 91.50Q226.58 93.88 230.62 95.61Q234.65 97.34 238.90 97.34L238.90 97.34Q242.93 97.34 245.88 95.61Q248.83 93.88 250.34 91.14Q251.86 88.41 251.86 85.46L251.86 85.46Q251.86 81.35 249.01 78.87Q246.17 76.38 240.91 74.08L240.91 74.08Q237.10 72.35 234.61 70.84Q232.13 69.33 230.44 67.06Q228.74 64.79 228.74 61.70L228.74 61.70Q228.74 57.81 230.72 54.89Q232.70 51.98 236.12 50.39Q239.54 48.81 243.72 48.81L243.72 48.81Q247.46 48.88 251.17 50.03Q254.88 51.18 257.83 52.98L257.83 52.98L256.10 55.58ZM291.82 71.85L294.77 71.85L291.38 100L288.00 100L288.72 94.31Q286.78 96.90 283.32 98.67Q279.86 100.43 275.69 100.43L275.69 100.43Q272.09 100.43 269.14 98.67Q266.18 96.90 264.46 93.77Q262.73 90.64 262.73 86.82L262.73 86.82Q262.73 83.22 264.46 79.55Q266.18 75.88 269.68 73.43Q273.17 70.98 278.28 70.98L278.28 70.98Q282.74 70.98 285.98 73.04Q289.22 75.09 290.66 78.54L290.66 78.54L291.82 71.85ZM289.51 87.83L289.94 83.73Q289.58 79.55 286.42 76.71Q283.25 73.86 278.71 73.86L278.71 73.86Q274.46 73.86 271.66 75.92Q268.85 77.97 267.55 80.88Q266.26 83.80 266.26 86.46L266.26 86.46Q266.26 89.56 267.70 92.12Q269.14 94.67 271.69 96.15Q274.25 97.62 277.49 97.62L277.49 97.62Q281.88 97.62 285.26 94.89Q288.65 92.15 289.51 87.83L289.51 87.83ZM322.56 71.06Q326.45 71.06 328.64 73.04Q330.84 75.02 330.84 78.33L330.84 78.33Q330.84 79.12 330.77 79.48L330.77 79.48L328.25 100L324.86 100L327.24 80.34L327.31 79.48Q327.31 77.03 325.69 75.56Q324.07 74.08 321.19 74.08L321.19 74.08Q316.73 74.08 313.34 77.18Q309.96 80.27 309.46 84.95L309.46 84.95L307.58 100L304.20 100L307.66 71.85L310.61 71.85L310.32 77.18Q312.34 74.37 315.50 72.71Q318.67 71.06 322.56 71.06L322.56 71.06ZM348.62 100.58Q345.74 100.58 343.04 99.53Q340.34 98.49 338.69 96.11L338.69 96.11L340.49 94.02Q341.93 95.97 344.05 96.87Q346.18 97.77 348.62 97.77L348.62 97.77Q351.43 97.77 353.16 96.11Q354.89 94.46 354.89 92.58L354.89 92.58Q354.89 90.86 353.95 89.78Q353.02 88.70 351.90 88.12Q350.78 87.54 348.12 86.46L348.12 86.46Q345.17 85.31 343.55 83.62Q341.93 81.93 341.93 79.34L341.93 79.34Q341.93 77.39 342.97 75.52Q344.02 73.65 346.03 72.46Q348.05 71.27 350.71 71.27L350.71 71.27Q352.44 71.27 355.00 71.99Q357.55 72.71 359.50 74.94L359.50 74.94L357.77 77.25Q356.62 75.52 354.74 74.80Q352.87 74.08 350.86 74.08L350.86 74.08Q348.41 74.08 346.93 75.52Q345.46 76.96 345.46 78.69L345.46 78.69Q345.53 80.78 346.90 81.86Q348.26 82.94 351.14 84.16L351.14 84.16Q354.74 85.67 356.54 87.33Q358.34 88.98 358.34 92.22L358.34 92.22Q358.34 93.88 357.44 95.82Q356.54 97.77 354.38 99.17Q352.22 100.58 348.62 100.58L348.62 100.58ZM395.93 45.28L399.38 45.28L392.62 100L389.23 100L395.93 45.28ZM408.96 71.85L412.34 71.85L408.89 100L405.50 100L408.96 71.85ZM409.32 63.06Q409.32 61.98 410.22 61.23Q411.12 60.47 412.20 60.54L412.20 60.54Q413.14 60.54 413.78 61.26Q414.43 61.98 414.36 62.92L414.36 62.92Q414.29 64.00 413.46 64.68Q412.63 65.37 411.55 65.37L411.55 65.37Q410.62 65.30 409.97 64.61Q409.32 63.93 409.32 63.06L409.32 63.06ZM450.07 71.85L453.02 71.85L449.35 101.44Q448.70 106.84 444.85 110.26Q441 113.68 434.09 113.68L434.09 113.68Q429.91 113.68 426.67 112.31Q423.43 110.94 420.19 107.34L420.19 107.34L422.50 105.11Q425.38 108.35 428.18 109.50Q430.99 110.66 434.30 110.66L434.30 110.66Q439.78 110.66 442.55 108.03Q445.32 105.40 445.97 100.94L445.97 100.94L446.83 94.31Q444.82 97.19 441.50 98.85Q438.19 100.50 434.38 100.50L434.38 100.50Q430.49 100.50 427.32 98.70Q424.15 96.90 422.39 93.70Q420.62 90.50 420.62 86.46L420.62 86.46Q420.62 83.30 422.28 79.73Q423.94 76.17 427.46 73.61Q430.99 71.06 436.25 71.06L436.25 71.06Q440.64 71.06 444.02 73Q447.41 74.94 448.78 78.18L448.78 78.18L450.07 71.85ZM447.62 87.98L448.13 83.80Q447.77 79.55 444.56 76.71Q441.36 73.86 436.82 73.86L436.82 73.86Q432.36 73.86 429.48 75.95Q426.60 78.04 425.34 80.99Q424.08 83.94 424.08 86.46L424.08 86.46Q424.08 89.63 425.52 92.15Q426.96 94.67 429.52 96.15Q432.07 97.62 435.31 97.62L435.31 97.62Q439.70 97.62 443.23 94.85Q446.76 92.08 447.62 87.98L447.62 87.98ZM481.03 71.06Q484.99 71.06 487.15 73.40Q489.31 75.74 488.95 79.48L488.95 79.48L486.43 100L483.05 100L485.42 80.13Q485.64 77.54 484.20 75.84Q482.76 74.15 479.95 74.08L479.95 74.08Q476.93 74.08 474.26 75.48Q471.60 76.89 469.80 79.37Q468 81.86 467.64 84.95L467.64 84.95L465.77 100L462.38 100L469.08 45.28L472.46 45.28L468.50 77.46Q470.45 74.58 473.80 72.82Q477.14 71.06 481.03 71.06L481.03 71.06ZM506.95 59.46L510.41 59.46L508.82 72.21L517.61 72.21L517.25 75.02L508.46 75.02L505.44 100L502.06 100L505.08 75.02L499.03 75.02L499.39 72.21L505.44 72.21L506.95 59.46ZM547.70 71.85L551.09 71.85L547.63 100L544.25 100L547.70 71.85ZM548.06 63.06Q548.06 61.98 548.96 61.23Q549.86 60.47 550.94 60.54L550.94 60.54Q551.88 60.54 552.53 61.26Q553.18 61.98 553.10 62.92L553.10 62.92Q553.03 64.00 552.20 64.68Q551.38 65.37 550.30 65.37L550.30 65.37Q549.36 65.30 548.71 64.61Q548.06 63.93 548.06 63.06L548.06 63.06ZM568.15 59.46L571.61 59.46L570.02 72.21L578.81 72.21L578.45 75.02L569.66 75.02L566.64 100L563.26 100L566.28 75.02L560.23 75.02L560.59 72.21L566.64 72.21L568.15 59.46ZM611.86 71.85L614.81 71.85L611.42 100L608.04 100L608.76 94.31Q606.82 96.90 603.36 98.67Q599.90 100.43 595.73 100.43L595.73 100.43Q592.13 100.43 589.18 98.67Q586.22 96.90 584.50 93.77Q582.77 90.64 582.77 86.82L582.77 86.82Q582.77 83.22 584.50 79.55Q586.22 75.88 589.72 73.43Q593.21 70.98 598.32 70.98L598.32 70.98Q602.78 70.98 606.02 73.04Q609.26 75.09 610.70 78.54L610.70 78.54L611.86 71.85ZM609.55 87.83L609.98 83.73Q609.62 79.55 606.46 76.71Q603.29 73.86 598.75 73.86L598.75 73.86Q594.50 73.86 591.70 75.92Q588.89 77.97 587.59 80.88Q586.30 83.80 586.30 86.46L586.30 86.46Q586.30 89.56 587.74 92.12Q589.18 94.67 591.73 96.15Q594.29 97.62 597.53 97.62L597.53 97.62Q601.92 97.62 605.30 94.89Q608.69 92.15 609.55 87.83L609.55 87.83ZM630.94 45.28L634.39 45.28L627.62 100L624.24 100L630.94 45.28ZM643.97 71.85L647.35 71.85L643.90 100L640.51 100L643.97 71.85ZM644.33 63.06Q644.33 61.98 645.23 61.23Q646.13 60.47 647.21 60.54L647.21 60.54Q648.14 60.54 648.79 61.26Q649.44 61.98 649.37 62.92L649.37 62.92Q649.30 64.00 648.47 64.68Q647.64 65.37 646.56 65.37L646.56 65.37Q645.62 65.30 644.98 64.61Q644.33 63.93 644.33 63.06L644.33 63.06ZM678.82 97.98Q674.64 100.65 669.82 100.65L669.82 100.65Q666.22 100.65 662.94 98.99Q659.66 97.34 657.65 94.24Q655.63 91.14 655.63 86.97L655.63 86.97Q655.63 82.94 657.65 79.34Q659.66 75.74 663.23 73.54Q666.79 71.34 671.18 71.34L671.18 71.34Q674.42 71.34 677.12 72.39Q679.82 73.43 681.70 75.30L681.70 75.30L679.61 77.54Q678.10 76.02 675.97 75.12Q673.85 74.22 671.40 74.22L671.40 74.22Q668.16 74.22 665.32 75.92Q662.47 77.61 660.78 80.49Q659.09 83.37 659.09 86.82L659.09 86.82Q659.09 89.85 660.53 92.33Q661.97 94.82 664.52 96.29Q667.08 97.77 670.32 97.77L670.32 97.77Q673.99 97.77 677.23 95.68L677.23 95.68L678.82 97.98Z"/></svg>