<svg xmlns="http://www.w3.org/2000/svg" viewBox="0.28800000000000003 43.839999999999996 734.7600000000001 67.03200000000001"><path d="M20.09 89.85Q20.09 96.26 17.57 100.94Q15.05 105.62 10.58 108.14Q6.12 110.66 0.29 110.87L0.29 110.87L0.29 102.74Q5.54 102.45 8.60 99.24Q11.66 96.04 11.66 89.63L11.66 89.63L11.66 47.58L20.09 47.58L20.09 89.85ZM30.31 84.45Q30.31 79.91 32.51 76.17Q34.70 72.42 38.59 70.30Q42.48 68.18 47.45 68.18L47.45 68.18Q52.42 68.18 56.27 70.30Q60.12 72.42 62.21 76.13Q64.30 79.84 64.30 84.45L64.30 84.45Q64.30 89.06 62.21 92.76Q60.12 96.47 56.27 98.63Q52.42 100.79 47.38 100.79L47.38 100.79Q42.48 100.79 38.59 98.81Q34.70 96.83 32.51 93.12Q30.31 89.42 30.31 84.45L30.31 84.45ZM38.45 84.52Q38.45 88.62 40.97 91.40Q43.49 94.17 47.23 94.17L47.23 94.17Q51.12 94.17 53.60 91.43Q56.09 88.70 56.09 84.52L56.09 84.52Q56.09 80.34 53.60 77.57Q51.12 74.80 47.23 74.80L47.23 74.80Q43.49 74.80 40.97 77.64Q38.45 80.49 38.45 84.52L38.45 84.52ZM81.94 100.65Q78.41 100.65 75.28 99.39Q72.14 98.13 70.13 95.82L70.13 95.82L73.51 91.29Q77.33 95.03 81.29 95.03L81.29 95.03Q83.45 95.03 84.85 94.20Q86.26 93.38 86.26 91.72L86.26 91.72Q86.26 89.99 84.82 89.13Q83.38 88.26 81.61 87.72Q79.85 87.18 79.34 87.04L79.34 87.04Q75.38 85.82 73.44 83.48Q71.50 81.14 71.50 77.97L71.50 77.97Q71.50 75.45 72.76 73.25Q74.02 71.06 76.57 69.69Q79.13 68.32 82.80 68.32L82.80 68.32Q86.26 68.32 88.81 69.11Q91.37 69.90 93.60 71.63L93.60 71.63L90.50 76.46Q89.21 75.23 87.37 74.51Q85.54 73.79 84.02 73.79L84.02 73.79Q82.15 73.79 80.93 74.66Q79.70 75.52 79.70 76.89L79.70 76.89Q79.63 78.54 80.93 79.37Q82.22 80.20 85.10 81.14L85.10 81.14Q86.33 81.50 86.69 81.64L86.69 81.64Q90.29 82.79 92.30 84.84Q94.32 86.90 94.32 90.21L94.32 90.21Q94.32 94.67 91.12 97.66Q87.91 100.65 81.94 100.65L81.94 100.65ZM117.94 93.88Q121.32 93.88 124.78 91.50L124.78 91.50L128.45 97.48Q126.00 98.99 123.19 99.89Q120.38 100.79 117.79 100.79L117.79 100.79Q112.54 100.79 108.68 98.70Q104.83 96.62 102.78 92.94Q100.73 89.27 100.73 84.52L100.73 84.52Q100.73 80.06 103.03 76.31Q105.34 72.57 109.30 70.37Q113.26 68.18 117.94 68.18L117.94 68.18Q124.13 68.18 128.23 71.81Q132.34 75.45 133.70 82.07L133.70 82.07L110.23 89.99Q111.46 91.86 113.47 92.87Q115.49 93.88 117.94 93.88L117.94 93.88ZM117.29 74.51Q113.47 74.51 111.06 77.18Q108.65 79.84 108.65 84.09L108.65 84.09Q108.65 84.88 108.72 85.31L108.72 85.31L124.70 79.62Q123.77 77.39 121.97 75.95Q120.17 74.51 117.29 74.51L117.29 74.51ZM144.29 100L144.29 76.60L139.10 76.60L139.10 69.47L144.29 69.47L144.29 57.52Q144.29 51.11 147.53 47.51Q150.77 43.91 156.82 43.91L156.82 43.91Q158.62 43.91 160.70 44.45Q162.79 44.99 164.30 46.00L164.30 46.00L160.92 51.83Q159.70 50.54 157.68 50.54L157.68 50.54Q152.35 50.54 152.35 57.74L152.35 57.74L152.35 69.47L160.70 69.47L160.70 76.60L152.35 76.60L152.35 100L144.29 100ZM165.38 58.67Q165.38 56.87 166.82 55.61Q168.26 54.35 170.06 54.35L170.06 54.35Q171.79 54.35 173.20 55.61Q174.60 56.87 174.60 58.67L174.60 58.67Q174.60 60.47 173.20 61.70Q171.79 62.92 170.06 62.92L170.06 62.92Q168.26 62.92 166.82 61.70Q165.38 60.47 165.38 58.67L165.38 58.67ZM165.74 69.54L173.81 69.54L173.81 100L165.74 100L165.74 69.54ZM204.84 68.25Q209.09 68.25 211.93 70.80Q214.78 73.36 214.85 77.39L214.85 77.39L214.85 100L206.78 100L206.78 80.27Q206.64 77.90 205.38 76.53Q204.12 75.16 201.60 75.09L201.60 75.09Q197.86 75.09 195.44 78.29Q193.03 81.50 193.03 86.46L193.03 86.46L193.03 100L184.97 100L184.97 69.54L192.24 69.54L192.82 74.94Q194.47 71.78 197.60 70.01Q200.74 68.25 204.84 68.25L204.84 68.25ZM278.14 58.24Q271.37 54.71 266.11 54.71L266.11 54.71Q262.22 54.71 259.96 56.44Q257.69 58.17 257.69 61.19L257.69 61.19Q257.69 64.14 260.53 66.12Q263.38 68.10 268.49 70.05L268.49 70.05Q272.38 71.42 275.15 73.18Q277.92 74.94 279.72 77.97Q281.52 80.99 281.52 85.60L281.52 85.60Q281.52 89.78 279.43 93.16Q277.34 96.54 273.38 98.56Q269.42 100.58 264.02 100.58L264.02 100.58Q259.27 100.58 254.66 99.10Q250.06 97.62 246.46 95.03L246.46 95.03L250.20 88.48Q252.86 90.50 256.50 91.83Q260.14 93.16 263.23 93.16L263.23 93.16Q267.05 93.16 269.93 91.32Q272.81 89.49 272.81 85.67L272.81 85.67Q272.81 82.65 270.40 80.63Q267.98 78.62 263.66 76.96L263.66 76.96Q259.20 75.30 256.25 73.68Q253.30 72.06 251.17 69.15Q249.05 66.23 249.05 61.84L249.05 61.84Q249.05 55.43 253.40 51.51Q257.76 47.58 264.89 47.30L264.89 47.30Q270.07 47.30 274.00 48.48Q277.92 49.67 281.30 51.83L281.30 51.83L278.14 58.24ZM315.36 69.54L322.78 69.54L322.78 100L314.71 100L314.71 95.61Q313.06 97.55 310.25 99.17Q307.44 100.79 303.70 100.79L303.70 100.79Q299.30 100.79 295.85 98.96Q292.39 97.12 290.38 93.52Q288.36 89.92 288.36 84.81L288.36 84.81Q288.36 79.84 290.45 76.06Q292.54 72.28 296.03 70.23Q299.52 68.18 303.70 68.18L303.70 68.18Q311.11 68.18 314.78 73.65L314.78 73.65L315.36 69.54ZM305.93 94.17Q309.24 94.17 311.51 92.48Q313.78 90.78 314.71 87.69L314.71 87.69L314.71 81.06Q313.85 78.26 311.36 76.53Q308.88 74.80 305.64 74.80L305.64 74.80Q301.82 74.80 299.16 77.50Q296.50 80.20 296.50 84.38L296.50 84.38Q296.50 87.11 297.79 89.34Q299.09 91.58 301.25 92.87Q303.41 94.17 305.93 94.17L305.93 94.17ZM353.81 68.25Q358.06 68.25 360.90 70.80Q363.74 73.36 363.82 77.39L363.82 77.39L363.82 100L355.75 100L355.75 80.27Q355.61 77.90 354.35 76.53Q353.09 75.16 350.57 75.09L350.57 75.09Q346.82 75.09 344.41 78.29Q342.00 81.50 342.00 86.46L342.00 86.46L342.00 100L333.94 100L333.94 69.54L341.21 69.54L341.78 74.94Q343.44 71.78 346.57 70.01Q349.70 68.25 353.81 68.25L353.81 68.25ZM384.05 100.65Q380.52 100.65 377.39 99.39Q374.26 98.13 372.24 95.82L372.24 95.82L375.62 91.29Q379.44 95.03 383.40 95.03L383.40 95.03Q385.56 95.03 386.96 94.20Q388.37 93.38 388.37 91.72L388.37 91.72Q388.37 89.99 386.93 89.13Q385.49 88.26 383.72 87.72Q381.96 87.18 381.46 87.04L381.46 87.04Q377.50 85.82 375.55 83.48Q373.61 81.14 373.61 77.97L373.61 77.97Q373.61 75.45 374.87 73.25Q376.13 71.06 378.68 69.69Q381.24 68.32 384.91 68.32L384.91 68.32Q388.37 68.32 390.92 69.11Q393.48 69.90 395.71 71.63L395.71 71.63L392.62 76.46Q391.32 75.23 389.48 74.51Q387.65 73.79 386.14 73.79L386.14 73.79Q384.26 73.79 383.04 74.66Q381.82 75.52 381.82 76.89L381.82 76.89Q381.74 78.54 383.04 79.37Q384.34 80.20 387.22 81.14L387.22 81.14Q388.44 81.50 388.80 81.64L388.80 81.64Q392.40 82.79 394.42 84.84Q396.43 86.90 396.43 90.21L396.43 90.21Q396.43 94.67 393.23 97.66Q390.02 100.65 384.05 100.65L384.05 100.65ZM437.54 100.65Q434.02 100.65 430.88 99.39Q427.75 98.13 425.74 95.82L425.74 95.82L429.12 91.29Q432.94 95.03 436.90 95.03L436.90 95.03Q439.06 95.03 440.46 94.20Q441.86 93.38 441.86 91.72L441.86 91.72Q441.86 89.99 440.42 89.13Q438.98 88.26 437.22 87.72Q435.46 87.18 434.95 87.04L434.95 87.04Q430.99 85.82 429.05 83.48Q427.10 81.14 427.10 77.97L427.10 77.97Q427.10 75.45 428.36 73.25Q429.62 71.06 432.18 69.69Q434.74 68.32 438.41 68.32L438.41 68.32Q441.86 68.32 444.42 69.11Q446.98 69.90 449.21 71.63L449.21 71.63L446.11 76.46Q444.82 75.23 442.98 74.51Q441.14 73.79 439.63 73.79L439.63 73.79Q437.76 73.79 436.54 74.66Q435.31 75.52 435.31 76.89L435.31 76.89Q435.24 78.54 436.54 79.37Q437.83 80.20 440.71 81.14L440.71 81.14Q441.94 81.50 442.30 81.64L442.30 81.64Q445.90 82.79 447.91 84.84Q449.93 86.90 449.93 90.21L449.93 90.21Q449.93 94.67 446.72 97.66Q443.52 100.65 437.54 100.65L437.54 100.65ZM473.54 93.88Q476.93 93.88 480.38 91.50L480.38 91.50L484.06 97.48Q481.61 98.99 478.80 99.89Q475.99 100.79 473.40 100.79L473.40 100.79Q468.14 100.79 464.29 98.70Q460.44 96.62 458.39 92.94Q456.34 89.27 456.34 84.52L456.34 84.52Q456.34 80.06 458.64 76.31Q460.94 72.57 464.90 70.37Q468.86 68.18 473.54 68.18L473.54 68.18Q479.74 68.18 483.84 71.81Q487.94 75.45 489.31 82.07L489.31 82.07L465.84 89.99Q467.06 91.86 469.08 92.87Q471.10 93.88 473.54 93.88L473.54 93.88ZM472.90 74.51Q469.08 74.51 466.67 77.18Q464.26 79.84 464.26 84.09L464.26 84.09Q464.26 84.88 464.33 85.31L464.33 85.31L480.31 79.62Q479.38 77.39 477.58 75.95Q475.78 74.51 472.90 74.51L472.90 74.51ZM536.76 68.18Q541.22 68.18 543.85 70.70Q546.48 73.22 546.62 77.32L546.62 77.32L546.62 100L538.63 100L538.63 80.42Q538.49 77.97 537.55 76.64Q536.62 75.30 534.46 75.16L534.46 75.16Q530.71 75.16 528.41 78.51Q526.10 81.86 526.03 86.32L526.03 86.32L526.03 100L517.90 100L517.90 80.42Q517.75 78.04 516.78 76.67Q515.81 75.30 513.58 75.16L513.58 75.16Q511.13 75.16 509.26 76.74Q507.38 78.33 506.34 80.92Q505.30 83.51 505.30 86.32L505.30 86.32L505.30 100L497.23 100L497.23 69.54L504.50 69.54L505.15 74.87Q506.88 71.63 509.83 69.90Q512.78 68.18 516.60 68.18L516.60 68.18Q520.27 68.18 522.76 69.80Q525.24 71.42 526.03 74.44L526.03 74.44Q527.90 71.49 530.78 69.83Q533.66 68.18 536.76 68.18L536.76 68.18ZM557.71 69.54L565.78 69.54L565.78 100L557.71 100L557.71 69.54ZM557.35 58.67Q557.35 56.87 558.79 55.61Q560.23 54.35 562.03 54.35L562.03 54.35Q563.76 54.35 565.16 55.61Q566.57 56.87 566.57 58.67L566.57 58.67Q566.57 60.47 565.16 61.70Q563.76 62.92 562.03 62.92L562.03 62.92Q560.23 62.92 558.79 61.70Q557.35 60.47 557.35 58.67L557.35 58.67ZM620.21 68.18Q624.24 68.18 627.62 70.12Q631.01 72.06 632.99 75.70Q634.97 79.34 634.97 84.23L634.97 84.23Q634.97 89.27 632.81 93.02Q630.65 96.76 627.01 98.78Q623.38 100.79 619.13 100.79L619.13 100.79Q615.53 100.79 612.72 99.50Q609.91 98.20 607.97 95.97L607.97 95.97L607.97 100L599.90 100L599.90 43.84L607.97 43.84L607.97 72.78Q609.91 70.70 613.12 69.44Q616.32 68.18 620.21 68.18L620.21 68.18ZM617.40 93.95Q621.36 93.95 624.06 91.14Q626.76 88.34 626.76 84.16L626.76 84.16Q626.76 81.50 625.50 79.26Q624.24 77.03 622.12 75.77Q619.99 74.51 617.40 74.51L617.40 74.51Q614.02 74.51 611.46 76.24Q608.90 77.97 607.97 80.85L607.97 80.85L607.97 87.62Q609.05 90.57 611.50 92.26Q613.94 93.95 617.40 93.95L617.40 93.95ZM640.94 84.45Q640.94 79.91 643.14 76.17Q645.34 72.42 649.22 70.30Q653.11 68.18 658.08 68.18L658.08 68.18Q663.05 68.18 666.90 70.30Q670.75 72.42 672.84 76.13Q674.93 79.84 674.93 84.45L674.93 84.45Q674.93 89.06 672.84 92.76Q670.75 96.47 666.90 98.63Q663.05 100.79 658.01 100.79L658.01 100.79Q653.11 100.79 649.22 98.81Q645.34 96.83 643.14 93.12Q640.94 89.42 640.94 84.45L640.94 84.45ZM649.08 84.52Q649.08 88.62 651.60 91.40Q654.12 94.17 657.86 94.17L657.86 94.17Q661.75 94.17 664.24 91.43Q666.72 88.70 666.72 84.52L666.72 84.52Q666.72 80.34 664.24 77.57Q661.75 74.80 657.86 74.80L657.86 74.80Q654.12 74.80 651.60 77.64Q649.08 80.49 649.08 84.52L649.08 84.52ZM683.42 43.84L691.49 43.84L691.49 100L683.42 100L683.42 43.84ZM727.06 43.84L735.05 43.84L735.05 100L726.98 100L726.98 95.90Q721.94 100.79 715.03 100.79L715.03 100.79Q710.78 100.79 707.36 98.78Q703.94 96.76 702.00 93.02Q700.06 89.27 700.06 84.30L700.06 84.30Q700.06 79.34 702.11 75.66Q704.16 71.99 707.80 70.08Q711.43 68.18 716.04 68.18L716.04 68.18Q719.35 68.18 722.30 69.44Q725.26 70.70 727.06 72.86L727.06 72.86L727.06 43.84ZM717.62 93.95Q721.08 93.95 723.53 92.22Q725.98 90.50 726.98 87.40L726.98 87.40L726.98 80.92Q726.12 78.11 723.56 76.31Q721.01 74.51 717.62 74.51L717.62 74.51Q715.10 74.51 712.94 75.77Q710.78 77.03 709.49 79.23Q708.19 81.42 708.19 84.16L708.19 84.16Q708.19 86.90 709.49 89.13Q710.78 91.36 712.94 92.66Q715.10 93.95 717.62 93.95L717.62 93.95Z"/></svg>