<svg xmlns="http://www.w3.org/2000/svg" viewBox="0 45.495999999999995 477.79200000000003 64.80000000000001"><path d="M13.68 93.30Q13.68 98.56 11.88 102.34Q10.08 106.12 6.95 108.14Q3.82 110.15 0 110.30L0 110.30L0 108.93Q5.47 108.64 8.89 104.43Q12.31 100.22 12.31 93.09L12.31 93.09L12.31 49.46L13.68 49.46L13.68 93.30ZM26.14 86.32Q26.14 82.43 28.04 79.19Q29.95 75.95 33.19 74.04Q36.43 72.14 40.32 72.14L40.32 72.14Q44.21 72.14 47.48 74.04Q50.76 75.95 52.67 79.19Q54.58 82.43 54.58 86.32L54.58 86.32Q54.58 90.21 52.67 93.45Q50.76 96.69 47.48 98.56Q44.21 100.43 40.32 100.43L40.32 100.43Q36.43 100.43 33.16 98.60Q29.88 96.76 28.01 93.52Q26.14 90.28 26.14 86.32L26.14 86.32ZM27.58 86.32Q27.58 89.85 29.27 92.80Q30.96 95.75 33.88 97.48Q36.79 99.21 40.32 99.21L40.32 99.21Q43.78 99.21 46.69 97.48Q49.61 95.75 51.34 92.80Q53.06 89.85 53.06 86.32L53.06 86.32Q53.06 82.86 51.34 79.88Q49.61 76.89 46.69 75.16Q43.78 73.43 40.32 73.43L40.32 73.43Q36.79 73.43 33.84 75.27Q30.89 77.10 29.23 80.09Q27.58 83.08 27.58 86.32L27.58 86.32ZM70.78 100.58Q68.47 100.58 66.13 99.71Q63.79 98.85 62.35 97.12L62.35 97.12L63.22 96.26Q64.30 97.62 66.35 98.49Q68.40 99.35 70.78 99.35L70.78 99.35Q73.73 99.35 75.82 97.84Q77.90 96.33 77.90 93.02L77.90 93.02Q77.90 91 76.82 89.74Q75.74 88.48 74.30 87.83Q72.86 87.18 70.13 86.32L70.13 86.32Q66.89 85.17 65.16 83.69Q63.43 82.22 63.43 79.34L63.43 79.34Q63.43 76.10 65.63 74.26Q67.82 72.42 70.85 72.42L70.85 72.42Q72.72 72.42 74.77 73.22Q76.82 74.01 78.26 75.59L78.26 75.59L77.47 76.53Q76.39 75.16 74.48 74.44Q72.58 73.72 70.92 73.72L70.92 73.72Q68.69 73.72 66.74 75.12Q64.80 76.53 64.80 79.19L64.80 79.19Q64.80 81.57 66.35 82.79Q67.90 84.02 70.92 85.10L70.92 85.10Q73.87 86.10 75.42 86.82Q76.97 87.54 78.12 88.95Q79.27 90.35 79.27 92.66L79.27 92.66Q79.27 96.33 77.08 98.45Q74.88 100.58 70.78 100.58L70.78 100.58ZM101.30 99.21Q103.82 99.21 106.09 98.31Q108.36 97.41 110.09 95.75L110.09 95.75L111.02 96.76Q109.01 98.49 106.52 99.46Q104.04 100.43 101.30 100.43L101.30 100.43Q97.34 100.43 94.10 98.56Q90.86 96.69 88.99 93.45Q87.12 90.21 87.12 86.32L87.12 86.32Q87.12 82.43 89.03 79.19Q90.94 75.95 94.18 74.04Q97.42 72.14 101.30 72.14L101.30 72.14Q105.62 72.14 108.83 74.66Q112.03 77.18 113.69 81.35L113.69 81.35L89.50 91.14Q90.94 94.67 94.03 96.94Q97.13 99.21 101.30 99.21L101.30 99.21ZM101.23 73.43Q97.78 73.43 94.86 75.16Q91.94 76.89 90.25 79.84Q88.56 82.79 88.56 86.32L88.56 86.32Q88.56 88.34 89.06 89.92L89.06 89.92L111.89 80.70Q110.23 77.46 107.46 75.45Q104.69 73.43 101.23 73.43L101.23 73.43ZM125.14 100L125.14 74.30L120.46 74.30L120.46 73L125.14 73L125.14 57.88Q125.14 51.04 127.04 48.27Q128.95 45.50 133.06 45.50L133.06 45.50Q134.42 45.50 135.94 46.07L135.94 46.07L135.29 47.08Q134.42 46.58 133.13 46.58L133.13 46.58Q129.67 46.58 128.12 49.06Q126.58 51.54 126.58 57.59L126.58 57.59L126.58 73L135.86 73L135.86 74.30L126.58 74.30L126.58 100L125.14 100ZM143.42 64.22Q143.42 63.57 143.89 63.10Q144.36 62.63 145.08 62.63L145.08 62.63Q145.73 62.63 146.20 63.10Q146.66 63.57 146.66 64.22L146.66 64.22Q146.66 64.86 146.20 65.33Q145.73 65.80 145.08 65.80L145.08 65.80Q144.43 65.80 143.93 65.30Q143.42 64.79 143.42 64.22L143.42 64.22ZM144.29 72.78L145.73 72.78L145.73 100L144.29 100L144.29 72.78ZM172.30 72.28Q176.04 72.28 178.31 74.51Q180.58 76.74 180.72 80.34L180.72 80.34L180.72 100L179.28 100L179.28 80.49Q179.14 77.46 177.30 75.56Q175.46 73.65 172.15 73.50L172.15 73.50Q169.13 73.50 166.50 74.87Q163.87 76.24 162.25 78.69Q160.63 81.14 160.63 84.23L160.63 84.23L160.63 100L159.19 100L159.19 72.78L160.27 72.78L160.49 80.06Q161.78 76.46 165.02 74.37Q168.26 72.28 172.30 72.28L172.30 72.28ZM241.34 53.06Q238.90 51.98 235.73 51.18Q232.56 50.39 229.46 50.39L229.46 50.39Q225.86 50.39 223.06 51.69Q220.25 52.98 218.74 55.25Q217.22 57.52 217.22 60.26L217.22 60.26Q217.22 63.21 218.95 65.30Q220.68 67.38 223.27 68.72Q225.86 70.05 230.11 71.63L230.11 71.63Q234.58 73.29 237.49 74.87Q240.41 76.46 242.39 79.26Q244.37 82.07 244.37 86.39L244.37 86.39Q244.37 90.71 242.39 93.92Q240.41 97.12 236.95 98.85Q233.50 100.58 229.10 100.58L229.10 100.58Q225.43 100.58 222.30 99.64Q219.17 98.70 217.87 97.98Q216.58 97.26 213.55 95.46L213.55 95.46L214.27 94.17Q216.94 96.11 220.93 97.70Q224.93 99.28 228.82 99.28L228.82 99.28Q232.49 99.28 235.69 97.84Q238.90 96.40 240.91 93.48Q242.93 90.57 242.93 86.46L242.93 86.46Q242.93 82.50 241.06 79.91Q239.18 77.32 236.38 75.81Q233.57 74.30 229.18 72.71L229.18 72.71Q224.86 71.13 222.16 69.72Q219.46 68.32 217.62 66.05Q215.78 63.78 215.78 60.47L215.78 60.47Q215.78 57.16 217.58 54.60Q219.38 52.05 222.48 50.61Q225.58 49.17 229.32 49.17L229.32 49.17Q232.13 49.17 235.76 49.96Q239.40 50.75 241.92 51.98L241.92 51.98L241.34 53.06ZM280.01 72.78L281.09 72.78L281.09 100L279.72 100L279.72 92.22Q278.21 95.82 274.64 98.13Q271.08 100.43 266.76 100.43L266.76 100.43Q262.94 100.43 259.70 98.56Q256.46 96.69 254.59 93.48Q252.72 90.28 252.72 86.39L252.72 86.39Q252.72 82 254.63 78.80Q256.54 75.59 259.78 73.90Q263.02 72.21 266.98 72.21L266.98 72.21Q271.15 72.21 274.61 74.55Q278.06 76.89 279.72 80.63L279.72 80.63L280.01 72.78ZM266.90 99.21Q270.43 99.21 273.35 97.62Q276.26 96.04 277.99 93.23Q279.72 90.42 279.72 86.97L279.72 86.97L279.72 84.02Q278.86 79.55 275.22 76.49Q271.58 73.43 266.90 73.43L266.90 73.43Q263.38 73.43 260.46 75.02Q257.54 76.60 255.85 79.55Q254.16 82.50 254.16 86.32L254.16 86.32Q254.16 89.85 255.89 92.80Q257.62 95.75 260.53 97.48Q263.45 99.21 266.90 99.21L266.90 99.21ZM307.73 72.28Q311.47 72.28 313.74 74.51Q316.01 76.74 316.15 80.34L316.15 80.34L316.15 100L314.71 100L314.71 80.49Q314.57 77.46 312.73 75.56Q310.90 73.65 307.58 73.50L307.58 73.50Q304.56 73.50 301.93 74.87Q299.30 76.24 297.68 78.69Q296.06 81.14 296.06 84.23L296.06 84.23L296.06 100L294.62 100L294.62 72.78L295.70 72.78L295.92 80.06Q297.22 76.46 300.46 74.37Q303.70 72.28 307.73 72.28L307.73 72.28ZM335.23 100.58Q332.93 100.58 330.59 99.71Q328.25 98.85 326.81 97.12L326.81 97.12L327.67 96.26Q328.75 97.62 330.80 98.49Q332.86 99.35 335.23 99.35L335.23 99.35Q338.18 99.35 340.27 97.84Q342.36 96.33 342.36 93.02L342.36 93.02Q342.36 91 341.28 89.74Q340.20 88.48 338.76 87.83Q337.32 87.18 334.58 86.32L334.58 86.32Q331.34 85.17 329.62 83.69Q327.89 82.22 327.89 79.34L327.89 79.34Q327.89 76.10 330.08 74.26Q332.28 72.42 335.30 72.42L335.30 72.42Q337.18 72.42 339.23 73.22Q341.28 74.01 342.72 75.59L342.72 75.59L341.93 76.53Q340.85 75.16 338.94 74.44Q337.03 73.72 335.38 73.72L335.38 73.72Q333.14 73.72 331.20 75.12Q329.26 76.53 329.26 79.19L329.26 79.19Q329.26 81.57 330.80 82.79Q332.35 84.02 335.38 85.10L335.38 85.10Q338.33 86.10 339.88 86.82Q341.42 87.54 342.58 88.95Q343.73 90.35 343.73 92.66L343.73 92.66Q343.73 96.33 341.53 98.45Q339.34 100.58 335.23 100.58L335.23 100.58ZM373.61 53.13L383.04 53.13L383.04 100L381.60 100L381.60 54.57L373.61 54.57L373.61 53.13ZM413.71 100.43Q407.52 100.43 403.09 97.12Q398.66 93.81 396.40 88.34Q394.13 82.86 394.13 76.53L394.13 76.53Q394.13 70.19 396.40 64.79Q398.66 59.39 403.09 56.12Q407.52 52.84 413.71 52.84L413.71 52.84Q419.90 52.84 424.37 56.12Q428.83 59.39 431.10 64.83Q433.37 70.26 433.37 76.53L433.37 76.53Q433.37 82.86 431.10 88.34Q428.83 93.81 424.37 97.12Q419.90 100.43 413.71 100.43L413.71 100.43ZM413.71 99.06Q418.82 99.14 422.96 96.40Q427.10 93.66 429.52 88.55Q431.93 83.44 431.93 76.60L431.93 76.60Q431.93 69.76 429.52 64.68Q427.10 59.61 422.96 56.87Q418.82 54.14 413.71 54.21L413.71 54.21Q408.60 54.14 404.50 56.87Q400.39 59.61 397.98 64.68Q395.57 69.76 395.57 76.60L395.57 76.60Q395.57 83.44 397.98 88.55Q400.39 93.66 404.50 96.40Q408.60 99.14 413.71 99.06L413.71 99.06ZM458.14 100.43Q451.94 100.43 447.52 97.12Q443.09 93.81 440.82 88.34Q438.55 82.86 438.55 76.53L438.55 76.53Q438.55 70.19 440.82 64.79Q443.09 59.39 447.52 56.12Q451.94 52.84 458.14 52.84L458.14 52.84Q464.33 52.84 468.79 56.12Q473.26 59.39 475.52 64.83Q477.79 70.26 477.79 76.53L477.79 76.53Q477.79 82.86 475.52 88.34Q473.26 93.81 468.79 97.12Q464.33 100.43 458.14 100.43L458.14 100.43ZM458.14 99.06Q463.25 99.14 467.39 96.40Q471.53 93.66 473.94 88.55Q476.35 83.44 476.35 76.60L476.35 76.60Q476.35 69.76 473.94 64.68Q471.53 59.61 467.39 56.87Q463.25 54.14 458.14 54.21L458.14 54.21Q453.02 54.14 448.92 56.87Q444.82 59.61 442.40 64.68Q439.99 69.76 439.99 76.60L439.99 76.60Q439.99 83.44 442.40 88.55Q444.82 93.66 448.92 96.40Q453.02 99.14 458.14 99.06L458.14 99.06Z"/></svg>