<svg xmlns="http://www.w3.org/2000/svg" viewBox="0.21600000000000003 44.199999999999996 643.176 70.632"><path d="M19 91Q19 97 16 101Q14 106 10 108Q6 111 0 111L0 111L0 104Q6 104 9 100Q12 97 12 90L12 90L12 48L19 48L19 91ZM30 85Q30 80 32 77Q34 73 38 71Q41 69 46 69L46 69Q51 69 55 71Q58 73 60 77Q62 80 62 85L62 85Q62 89 60 93Q58 97 55 99Q51 101 46 101L46 101Q41 101 38 99Q34 97 32 93Q30 90 30 85L30 85ZM36 85Q36 88 38 90Q39 92 41 94Q43 95 46 95L46 95Q50 95 53 92Q56 89 56 85L56 85Q56 80 53 78Q50 75 46 75L46 75Q43 75 41 76Q39 77 38 80Q36 82 36 85L36 85ZM80 101Q76 101 73 99Q70 98 69 96L69 96L71 92Q73 94 75 95Q77 96 79 96L79 96Q82 96 83 95Q85 94 85 92L85 92Q85 90 84 90Q83 89 82 88Q80 88 78 87L78 87Q70 84 70 78L70 78Q70 74 73 72Q75 69 80 69L80 69Q84 69 86 70Q88 71 91 72L91 72L88 77Q87 75 85 75Q83 74 82 74L82 74Q80 74 78 75Q77 76 77 77L77 77Q77 79 78 80Q79 81 80 81Q81 81 84 82L84 82Q87 84 89 85Q91 87 91 91L91 91Q91 95 88 98Q85 101 80 101L80 101ZM115 95Q118 95 122 92L122 92L125 97Q123 99 120 100Q117 101 115 101L115 101Q110 101 106 99Q102 97 100 93Q98 89 98 85L98 85Q98 80 100 77Q103 73 106 71Q110 69 115 69L115 69Q121 69 124 72Q128 76 130 82L130 82L106 90Q107 92 110 94Q112 95 115 95L115 95ZM114 74Q110 74 107 77Q105 80 105 85L105 85Q105 86 105 86L105 86L122 80Q121 77 119 76Q117 74 114 74L114 74ZM141 100L141 76L136 76L136 70L141 70L141 58Q141 51 144 48Q147 44 152 44L152 44Q154 44 156 45Q157 45 159 46L159 46L156 51Q155 50 153 50L153 50Q150 50 149 52Q147 53 147 58L147 58L147 70L156 70L156 76L147 76L147 100L141 100ZM161 59Q161 58 162 57Q164 56 165 56L165 56Q167 56 168 57Q169 58 169 59L169 59Q169 61 168 62Q167 63 165 63L165 63Q164 63 162 62Q161 61 161 59L161 59ZM162 70L168 70L168 100L162 100L162 70ZM198 69Q203 69 205 72Q208 74 208 78L208 78L208 100L201 100L201 80Q201 78 200 76Q199 75 196 75L196 75Q192 75 189 78Q187 81 187 86L187 86L187 100L180 100L180 70L186 70L186 76Q188 73 191 71Q194 69 198 69L198 69ZM271 57Q268 56 265 55Q262 54 259 54L259 54Q255 54 252 56Q250 58 250 61L250 61Q250 64 253 66Q256 68 261 70L261 70Q265 72 268 73Q271 75 273 78Q274 81 274 86L274 86Q274 90 272 93Q270 97 266 99Q263 101 257 101L257 101Q253 101 248 99Q244 97 240 95L240 95L243 90Q246 92 250 93Q253 94 257 94L257 94Q261 94 264 92Q267 90 267 86L267 86Q267 82 264 80Q262 78 257 76L257 76Q253 74 250 73Q247 71 245 69Q243 66 243 62L243 62Q243 55 247 52Q251 48 258 48L258 48Q267 48 274 52L274 52L271 57ZM309 70L315 70L315 100L308 100L308 95Q307 97 304 99Q301 101 297 101L297 101Q293 101 289 99Q286 97 284 94Q282 90 282 85L282 85Q282 80 284 77Q286 73 289 71Q293 69 297 69L297 69Q301 69 304 71Q307 72 308 75L308 75L309 70ZM299 95Q302 95 305 93Q308 91 308 88L308 88L308 82Q307 78 305 76Q302 75 298 75L298 75Q296 75 294 76Q291 77 290 79Q289 82 289 85L289 85Q289 88 290 90Q291 92 294 94Q296 95 299 95L299 95ZM345 69Q349 69 352 72Q355 74 355 78L355 78L355 100L348 100L348 80Q348 78 347 76Q345 75 343 75L343 75Q339 75 336 78Q333 81 333 86L333 86L333 100L327 100L327 70L333 70L333 76Q335 73 338 71Q341 69 345 69L345 69ZM375 101Q372 101 369 99Q366 98 364 96L364 96L367 92Q368 94 370 95Q372 96 374 96L374 96Q377 96 378 95Q380 94 380 92L380 92Q380 90 379 90Q378 89 377 88Q375 88 373 87L373 87Q365 84 365 78L365 78Q365 74 368 72Q371 69 376 69L376 69Q379 69 381 70Q384 71 386 72L386 72L383 77Q382 75 380 75Q378 74 377 74L377 74Q375 74 373 75Q372 76 372 77L372 77Q372 79 373 80Q374 81 375 81Q376 81 379 82L379 82Q382 84 384 85Q386 87 386 91L386 91Q386 95 383 98Q380 101 375 101L375 101ZM425 77Q426 75 428 73Q430 71 433 70Q435 69 437 69L437 69L437 76Q434 76 431 77Q428 78 427 81Q425 84 425 86L425 86L425 100L419 100L419 70L425 70L425 77ZM458 95Q462 95 466 92L466 92L469 97Q466 99 464 100Q461 101 458 101L458 101Q453 101 450 99Q446 97 444 93Q442 89 442 85L442 85Q442 80 444 77Q446 73 450 71Q454 69 458 69L458 69Q464 69 468 72Q472 76 473 82L473 82L450 90Q451 92 453 94Q456 95 458 95L458 95ZM458 74Q454 74 451 77Q448 80 448 85L448 85Q448 86 448 86L448 86L466 80Q465 77 463 76Q461 74 458 74L458 74ZM507 70L513 70L513 100Q513 104 511 108Q509 111 505 113Q501 115 496 115L496 115Q492 115 488 113Q485 112 482 109L482 109L486 104Q488 107 491 108Q493 109 496 109L496 109Q501 109 504 107Q506 104 507 100L507 100L507 95Q505 97 502 99Q499 101 494 101L494 101Q490 101 487 99Q483 97 481 93Q479 89 479 85L479 85Q479 80 481 77Q483 73 487 71Q491 69 495 69L495 69Q499 69 502 70Q505 72 507 74L507 74L507 70ZM496 95Q500 95 503 93Q506 91 507 88L507 88L507 82Q506 78 503 76Q500 75 496 75L496 75Q492 75 489 77Q486 80 486 85L486 85Q486 88 487 90Q489 92 491 94Q493 95 496 95L496 95ZM546 70L553 70L553 100L547 100L546 94Q545 97 542 99Q538 101 534 101L534 101Q530 101 528 99Q525 96 525 92L525 92L525 70L532 70L532 90Q532 92 533 94Q534 95 537 95L537 95Q540 95 542 94Q544 92 545 90Q546 87 546 84L546 84L546 70ZM564 44L571 44L571 100L564 100L564 44ZM607 70L613 70L613 100L607 100L607 95Q605 97 602 99Q599 101 595 101L595 101Q591 101 587 99Q584 97 582 94Q580 90 580 85L580 85Q580 80 582 77Q584 73 588 71Q591 69 595 69L595 69Q599 69 602 71Q605 72 607 75L607 75L607 70ZM597 95Q601 95 603 93Q606 91 607 88L607 88L607 82Q606 78 603 76Q600 75 597 75L597 75Q594 75 592 76Q590 77 588 79Q587 82 587 85L587 85Q587 88 588 90Q590 92 592 94Q594 95 597 95L597 95ZM631 77Q633 75 635 73Q637 71 639 70Q642 69 643 69L643 69L643 76Q640 76 637 77Q635 78 633 81Q632 84 632 86L632 86L632 100L625 100L625 70L631 70L631 77Z"/></svg>