<svg xmlns="http://www.w3.org/2000/svg" viewBox="0.36000000000000004 43.19199999999999 584.1360000000001 67.82400000000001"><path d="M22 89Q22 96 19 101Q17 105 12 108Q7 111 0 111L0 111L0 101Q11 100 11 89L11 89L11 47L22 47L22 89ZM32 84Q32 79 34 75Q36 71 40 69Q44 67 50 67L50 67Q55 67 59 69Q63 71 65 75Q67 79 67 84L67 84Q67 89 65 93Q63 96 59 99Q55 101 49 101L49 101Q44 101 40 99Q36 97 34 93Q32 89 32 84L32 84ZM42 84Q42 88 44 90Q46 93 49 93L49 93Q53 93 55 90Q57 88 57 84L57 84Q57 80 55 78Q53 75 49 75L49 75Q46 75 44 78Q42 80 42 84L42 84ZM85 101Q81 101 78 99Q75 98 72 95L72 95L77 90Q81 94 84 94L84 94Q86 94 88 93Q89 93 89 91L89 91Q89 90 87 89Q86 88 84 88Q83 87 82 87L82 87Q78 86 76 83Q74 81 74 78L74 78Q74 75 75 73Q77 70 79 69Q82 67 86 67L86 67Q90 67 93 68Q96 69 98 70L98 70L94 76Q93 75 91 74Q89 74 88 74L88 74Q86 74 85 74Q84 75 84 76L84 76Q84 78 85 78Q87 79 90 80L90 80Q90 80 90 80Q91 80 91 81L91 81Q99 83 99 89L99 89Q99 93 97 95Q96 98 93 99Q90 101 85 101L85 101ZM123 92Q126 92 129 90L129 90L134 98Q131 99 128 100Q125 101 123 101L123 101Q117 101 113 99Q109 97 107 93Q105 89 105 84L105 84Q105 79 107 75Q110 72 114 69Q118 67 123 67L123 67Q130 67 134 71Q138 75 140 82L140 82L117 90Q119 92 123 92L123 92ZM122 75Q119 75 117 77Q115 79 115 83L115 83L115 84L129 79Q127 75 122 75L122 75ZM150 100L150 77L145 77L145 68L150 68L150 57Q150 51 154 47Q157 43 164 43L164 43Q166 43 169 44Q171 45 173 46L173 46L169 53Q167 52 165 52L165 52Q163 52 162 53Q160 55 160 58L160 58L160 68L168 68L168 77L160 77L160 100L150 100ZM172 57Q172 55 174 54Q175 52 178 52L178 52Q180 52 181 54Q183 55 183 57L183 57Q183 60 181 61Q180 62 178 62L178 62Q175 62 174 61Q172 60 172 57L172 57ZM172 69L182 69L182 100L172 100L172 69ZM215 67Q219 67 222 70Q225 72 225 76L225 76L225 100L215 100L215 80Q215 76 210 76L210 76Q207 76 205 79Q203 82 203 87L203 87L203 100L193 100L193 69L202 69L203 74Q204 70 207 69Q210 67 215 67L215 67ZM289 60Q282 56 277 56L277 56Q273 56 271 57Q270 59 270 61L270 61Q270 64 272 66Q275 68 280 70L280 70Q283 71 286 73Q289 74 291 78Q292 81 292 85L292 85Q292 89 290 93Q288 96 284 99Q280 101 274 101L274 101Q269 101 265 99Q260 98 256 95L256 95L261 87Q263 89 267 90Q270 91 273 91L273 91Q277 91 279 90Q281 89 281 85L281 85Q281 81 274 78L274 78Q269 76 266 75Q263 73 261 70Q259 67 259 62L259 62Q259 55 263 51Q268 47 275 47L275 47Q281 47 285 48Q289 49 293 52L293 52L289 60ZM325 69L335 69L335 100L325 100L325 96Q320 101 314 101L314 101Q307 101 303 97Q298 93 298 84L298 84Q298 79 301 75Q303 71 306 69Q310 67 314 67L314 67Q318 67 320 68Q323 69 325 72L325 72L325 69ZM317 93Q322 93 325 88L325 88L325 80Q324 78 322 77Q320 75 317 75L317 75Q313 75 311 78Q309 80 309 84L309 84Q309 86 310 88Q311 90 313 92Q315 93 317 93L317 93ZM367 67Q371 67 374 70Q377 72 377 76L377 76L377 100L367 100L367 80Q367 76 363 76L363 76Q359 76 357 79Q355 82 355 87L355 87L355 100L345 100L345 69L354 69L355 74Q357 70 360 69Q363 67 367 67L367 67ZM398 101Q394 101 391 99Q387 98 385 95L385 95L389 90Q394 94 397 94L397 94Q399 94 400 93Q402 93 402 91L402 91Q402 90 400 89Q399 88 397 88Q395 87 395 87L395 87Q391 86 389 83Q387 81 387 78L387 78Q387 75 388 73Q389 70 392 69Q395 67 399 67L399 67Q403 67 406 68Q409 69 411 70L411 70L407 76Q406 75 404 74Q402 74 401 74L401 74Q399 74 398 74Q397 75 397 76L397 76Q397 78 398 78Q400 79 402 80L402 80Q403 80 403 80Q404 80 404 81L404 81Q412 83 412 89L412 89Q412 93 410 95Q409 98 406 99Q402 101 398 101L398 101ZM465 67Q470 67 473 69Q476 71 478 75Q480 78 480 84L480 84Q480 89 478 93Q476 97 472 99Q469 101 464 101L464 101Q458 101 454 97L454 97L454 100L443 100L443 43L453 43L453 71Q455 69 459 68Q462 67 465 67L465 67ZM462 92Q464 92 466 91Q468 90 469 88Q470 86 470 84L470 84Q470 80 468 77Q465 75 462 75L462 75Q459 75 457 76Q454 78 454 80L454 80L454 88Q456 92 462 92L462 92ZM486 84Q486 79 488 75Q490 71 495 69Q499 67 504 67L504 67Q509 67 513 69Q517 71 519 75Q522 79 522 84L522 84Q522 89 519 93Q517 96 513 99Q509 101 504 101L504 101Q499 101 495 99Q490 97 488 93Q486 89 486 84L486 84ZM496 84Q496 88 498 90Q500 93 504 93L504 93Q507 93 509 90Q511 88 511 84L511 84Q511 80 509 78Q507 75 504 75L504 75Q500 75 498 78Q496 80 496 84L496 84ZM529 43L540 43L540 100L529 100L529 43ZM574 43L584 43L584 100L574 100L574 97Q569 101 563 101L563 101Q558 101 555 99Q551 97 549 93Q547 89 547 84L547 84Q547 78 550 75Q552 71 555 69Q559 67 564 67L564 67Q567 67 570 68Q573 69 574 71L574 71L574 43ZM566 92Q569 92 571 91Q573 90 574 88L574 88L574 80Q574 78 571 76Q569 75 566 75L566 75Q563 75 560 77Q558 80 558 84L558 84Q558 86 559 88Q560 90 562 91Q564 92 566 92L566 92Z"/></svg>