<svg xmlns="http://www.w3.org/2000/svg" viewBox="-0.4 -7.57 48.37 9"><path d="M1.79-0.93Q1.70-0.20 1.38 0.33Q1.06 0.85 0.59 1.13Q0.13 1.41-0.40 1.43L-0.40 1.43L-0.37 1.23Q0.38 1.19 0.93 0.60Q1.48 0.02 1.60-0.96L1.60-0.96L2.35-7.02L2.53-7.02L1.79-0.93ZM5.50 0.06Q4.98 0.06 4.55-0.18Q4.13-0.41 3.89-0.83Q3.65-1.24 3.65-1.76L3.65-1.76Q3.65-2.28 3.89-2.76Q4.12-3.24 4.59-3.54Q5.06-3.85 5.73-3.85L5.73-3.85Q6.26-3.85 6.68-3.62Q7.10-3.38 7.34-2.96Q7.58-2.55 7.58-2.03L7.58-2.03Q7.58-1.51 7.35-1.03Q7.12-0.55 6.65-0.24Q6.18 0.06 5.50 0.06L5.50 0.06ZM5.51-0.11Q6.12-0.11 6.54-0.39Q6.96-0.66 7.17-1.09Q7.38-1.53 7.38-2.02L7.38-2.02Q7.38-2.48 7.17-2.86Q6.95-3.24 6.57-3.46Q6.19-3.68 5.72-3.68L5.72-3.68Q5.11-3.68 4.69-3.41Q4.27-3.13 4.06-2.69Q3.85-2.26 3.85-1.78L3.85-1.78Q3.85-1.32 4.07-0.94Q4.28-0.56 4.66-0.34Q5.04-0.11 5.51-0.11L5.51-0.11ZM9.71 0.07Q9.38 0.07 9.03-0.06Q8.68-0.19 8.49-0.47L8.49-0.47L8.62-0.59Q8.77-0.37 9.06-0.24Q9.35-0.10 9.71-0.10L9.71-0.10Q10.10-0.10 10.38-0.30Q10.66-0.50 10.72-0.92L10.72-0.92Q10.74-1.20 10.62-1.38Q10.49-1.56 10.31-1.66Q10.13-1.75 9.76-1.91L9.76-1.91Q9.35-2.08 9.14-2.27Q8.92-2.46 8.92-2.79L8.92-2.79Q8.92-3.28 9.27-3.56Q9.61-3.84 10.07-3.82L10.07-3.82Q10.32-3.80 10.60-3.68Q10.88-3.56 11.06-3.32L11.06-3.32L10.93-3.19Q10.79-3.41 10.52-3.52Q10.25-3.64 10.01-3.64L10.01-3.64Q9.68-3.64 9.41-3.43Q9.14-3.22 9.14-2.84L9.14-2.84Q9.14-2.56 9.33-2.40Q9.52-2.23 9.88-2.07L9.88-2.07Q9.94-2.04 10.27-1.90Q10.59-1.76 10.76-1.55Q10.92-1.35 10.92-1.08L10.92-1.08Q10.92-0.57 10.61-0.25Q10.29 0.07 9.71 0.07L9.71 0.07ZM14.00-0.11Q14.32-0.11 14.63-0.21Q14.93-0.32 15.16-0.52L15.16-0.52L15.27-0.37Q15.00-0.17 14.67-0.06Q14.33 0.06 13.99 0.06L13.99 0.06Q13.46 0.06 13.04-0.18Q12.61-0.43 12.37-0.84Q12.13-1.26 12.13-1.77L12.13-1.77Q12.13-2.33 12.41-2.81Q12.69-3.29 13.17-3.57Q13.64-3.85 14.20-3.85L14.20-3.85Q14.87-3.85 15.31-3.48Q15.74-3.10 15.90-2.47L15.90-2.47L12.39-1.32Q12.54-0.79 12.97-0.45Q13.39-0.11 14.00-0.11L14.00-0.11ZM14.21-3.67Q13.71-3.67 13.28-3.42Q12.84-3.16 12.59-2.73Q12.33-2.30 12.33-1.79L12.33-1.79Q12.33-1.70 12.35-1.50L12.35-1.50L15.66-2.57Q15.49-3.05 15.12-3.36Q14.74-3.67 14.21-3.67L14.21-3.67ZM17.21 0L17.64-3.57L16.99-3.57L17.01-3.75L17.66-3.75L17.92-5.85Q18.04-6.80 18.35-7.19Q18.66-7.57 19.23-7.57L19.23-7.57Q19.41-7.57 19.62-7.49L19.62-7.49L19.52-7.35Q19.40-7.42 19.23-7.42L19.23-7.42Q18.75-7.42 18.48-7.08Q18.22-6.73 18.12-5.89L18.12-5.89L17.86-3.75L19.15-3.75L19.13-3.57L17.84-3.57L17.40 0L17.21 0ZM20.36-5Q20.37-5.10 20.45-5.17Q20.52-5.24 20.62-5.24L20.62-5.24Q20.70-5.24 20.77-5.18Q20.83-5.12 20.82-5.04L20.82-5.04Q20.82-4.94 20.75-4.87Q20.67-4.80 20.57-4.80L20.57-4.80Q20.48-4.80 20.42-4.87Q20.36-4.93 20.36-5L20.36-5ZM20.31-3.78L20.51-3.78L20.04 0L19.85 0L20.31-3.78ZM24.32-3.85Q24.84-3.85 25.13-3.60Q25.42-3.34 25.42-2.91L25.42-2.91Q25.42-2.79 25.41-2.73L25.41-2.73L25.08 0L24.88 0L25.21-2.72Q25.22-2.77 25.22-2.87L25.22-2.87Q25.22-3.23 24.97-3.45Q24.72-3.67 24.29-3.67L24.29-3.67Q23.86-3.67 23.48-3.48Q23.10-3.29 22.85-2.95Q22.60-2.61 22.55-2.18L22.55-2.18L22.28 0L22.09 0L22.55-3.78L22.70-3.78L22.64-2.92Q22.90-3.35 23.35-3.60Q23.79-3.85 24.32-3.85L24.32-3.85ZM34.25-6.39Q33.91-6.57 33.44-6.71Q32.96-6.85 32.51-6.86L32.51-6.86Q31.86-6.86 31.47-6.61Q31.08-6.35 30.93-6.02Q30.78-5.69 30.78-5.44L30.78-5.44Q30.78-5.08 30.99-4.82Q31.20-4.55 31.52-4.37Q31.83-4.18 32.37-3.92L32.37-3.92Q32.94-3.66 33.29-3.45Q33.64-3.23 33.89-2.89Q34.13-2.54 34.13-2.04L34.13-2.04Q34.13-1.58 33.91-1.09Q33.68-0.60 33.18-0.27Q32.68 0.07 31.91 0.07L31.91 0.07Q31.16 0.07 30.60-0.18Q30.04-0.44 29.69-0.78L29.69-0.78L29.81-0.94Q30.14-0.61 30.72-0.36Q31.29-0.11 31.93-0.11L31.93-0.11Q32.58-0.11 33.03-0.40Q33.48-0.68 33.71-1.11Q33.93-1.55 33.93-2L33.93-2Q33.93-2.46 33.70-2.79Q33.47-3.11 33.12-3.33Q32.77-3.54 32.23-3.78L32.23-3.78Q31.70-4.01 31.37-4.21Q31.03-4.42 30.81-4.71Q30.58-5 30.58-5.40L30.58-5.40Q30.58-5.89 30.84-6.26Q31.10-6.63 31.55-6.83Q31.99-7.03 32.52-7.03L32.52-7.03Q32.95-7.02 33.47-6.88Q33.98-6.75 34.36-6.54L34.36-6.54L34.25-6.39ZM39.29-3.78L39.44-3.78L38.99 0L38.80 0L38.92-0.99Q38.64-0.52 38.15-0.24Q37.66 0.05 37.09 0.05L37.09 0.05Q36.57 0.05 36.15-0.20Q35.73-0.44 35.49-0.85Q35.26-1.27 35.26-1.77L35.26-1.77Q35.26-2.23 35.47-2.71Q35.68-3.19 36.15-3.52Q36.61-3.86 37.32-3.86L37.32-3.86Q37.96-3.86 38.45-3.52Q38.93-3.17 39.11-2.62L39.11-2.62L39.29-3.78ZM39.01-1.70L39.05-2.11Q39.03-2.54 38.80-2.90Q38.56-3.26 38.17-3.47Q37.79-3.68 37.33-3.68L37.33-3.68Q36.68-3.68 36.26-3.37Q35.84-3.06 35.65-2.62Q35.46-2.18 35.46-1.79L35.46-1.79Q35.46-1.33 35.68-0.95Q35.90-0.57 36.29-0.35Q36.67-0.12 37.14-0.12L37.14-0.12Q37.60-0.12 38.01-0.32Q38.41-0.52 38.68-0.88Q38.95-1.24 39.01-1.70L39.01-1.70ZM43.10-3.85Q43.62-3.85 43.91-3.60Q44.20-3.34 44.20-2.91L44.20-2.91Q44.20-2.79 44.19-2.73L44.19-2.73L43.86 0L43.66 0L43.99-2.72Q44-2.77 44-2.87L44-2.87Q44-3.23 43.75-3.45Q43.50-3.67 43.07-3.67L43.07-3.67Q42.64-3.67 42.26-3.48Q41.88-3.29 41.63-2.95Q41.38-2.61 41.33-2.18L41.33-2.18L41.06 0L40.87 0L41.33-3.78L41.48-3.78L41.42-2.92Q41.68-3.35 42.13-3.60Q42.57-3.85 43.10-3.85L43.10-3.85ZM46.62 0.07Q46.29 0.07 45.94-0.06Q45.59-0.19 45.40-0.47L45.40-0.47L45.53-0.59Q45.68-0.37 45.97-0.24Q46.26-0.10 46.62-0.10L46.62-0.10Q47.01-0.10 47.29-0.30Q47.57-0.50 47.63-0.92L47.63-0.92Q47.65-1.20 47.52-1.38Q47.40-1.56 47.22-1.66Q47.04-1.75 46.67-1.91L46.67-1.91Q46.26-2.08 46.05-2.27Q45.83-2.46 45.83-2.79L45.83-2.79Q45.83-3.28 46.18-3.56Q46.52-3.84 46.98-3.82L46.98-3.82Q47.23-3.80 47.51-3.68Q47.79-3.56 47.97-3.32L47.97-3.32L47.84-3.19Q47.70-3.41 47.43-3.52Q47.16-3.64 46.92-3.64L46.92-3.64Q46.59-3.64 46.32-3.43Q46.05-3.22 46.05-2.84L46.05-2.84Q46.05-2.56 46.24-2.40Q46.43-2.23 46.79-2.07L46.79-2.07Q46.85-2.04 47.18-1.90Q47.50-1.76 47.66-1.55Q47.83-1.35 47.83-1.08L47.83-1.08Q47.83-0.57 47.52-0.25Q47.20 0.07 46.62 0.07L46.62 0.07Z"/></svg>