<svg xmlns="http://www.w3.org/2000/svg" viewBox="4.104 51.471999999999994 461.88000000000005 49.248000000000005"><path d="M4.10 100L4.10 53.63L13.82 53.63L13.82 73.29L31.68 53.63L42.84 53.63L26.06 72.42L43.70 100L33.34 100L20.02 78.62L13.82 85.31L13.82 100L4.10 100ZM56.52 100.72Q51.34 100.72 47.84 97.95Q44.35 95.18 44.35 90.14L44.35 90.14Q44.35 85.02 47.99 82.04Q51.62 79.05 58.46 79.05L58.46 79.05L68.54 79.05L68.54 78.11Q68.54 75.95 67.79 74.73Q67.03 73.50 65.12 72.93Q63.22 72.35 59.69 72.35L59.69 72.35Q53.86 72.35 48.46 74.15L48.46 74.15L48.46 67.31Q50.98 66.30 54.40 65.73Q57.82 65.15 61.70 65.15L61.70 65.15Q77.83 65.15 77.83 78.33L77.83 78.33L77.83 100L69.41 100L68.90 96.90Q64.73 100.72 56.52 100.72L56.52 100.72ZM59.18 94.31Q62.28 94.31 64.69 93.27Q67.10 92.22 68.54 90.50L68.54 90.50L68.54 85.10L58.68 85.10Q52.99 85.10 52.99 89.78L52.99 89.78Q52.99 94.31 59.18 94.31L59.18 94.31ZM85.68 100L85.68 65.87L94.68 65.87L95.04 69.11Q97.34 67.38 100.51 66.27Q103.68 65.15 107.06 65.15L107.06 65.15Q113.76 65.15 116.89 68.28Q120.02 71.42 120.02 78.11L120.02 78.11L120.02 100L110.30 100L110.30 78.62Q110.30 75.09 108.86 73.68Q107.42 72.28 103.68 72.28L103.68 72.28Q101.45 72.28 99.22 73.25Q96.98 74.22 95.40 75.81L95.40 75.81L95.40 100L85.68 100ZM132.26 59.61L132.26 51.98L142.85 51.98L142.85 59.61L132.26 59.61ZM133.06 100L133.06 73.07L127.94 73.07L128.81 65.87L142.78 65.87L142.78 100L133.06 100ZM164.59 100.72Q158.76 100.72 155.88 97.70Q153 94.67 153 89.20L153 89.20L153 73.36L148.18 73.36L148.18 65.87L153 65.87L153 58.53L162.72 55.65L162.72 65.87L171.36 65.87L170.78 73.36L162.72 73.36L162.72 88.55Q162.72 91.29 163.98 92.37Q165.24 93.45 168.05 93.45L168.05 93.45Q170.06 93.45 172.22 92.73L172.22 92.73L172.22 99.42Q168.98 100.72 164.59 100.72L164.59 100.72ZM203.47 100L203.47 65.87L212.47 65.87L212.83 69.18Q218.16 65.15 224.50 65.15L224.50 65.15Q227.95 65.15 229.97 66.20Q231.98 67.24 233.14 69.33L233.14 69.33Q235.73 67.31 238.79 66.23Q241.85 65.15 245.81 65.15L245.81 65.15Q251.71 65.15 254.52 68.21Q257.33 71.27 257.33 77.54L257.33 77.54L257.33 100L247.75 100L247.75 78.62Q247.75 75.30 246.31 73.79Q244.87 72.28 241.70 72.28L241.70 72.28Q239.69 72.28 237.78 73.11Q235.87 73.94 234.50 75.38L234.50 75.38Q234.86 76.60 234.86 78.33L234.86 78.33L234.86 100L225.79 100L225.79 78.62Q225.79 75.30 224.64 73.79Q223.49 72.28 220.54 72.28L220.54 72.28Q216.86 72.28 213.05 75.95L213.05 75.95L213.05 100L203.47 100ZM283.03 100.72Q273.96 100.72 268.88 96.22Q263.81 91.72 263.81 82.86L263.81 82.86Q263.81 74.51 268.24 69.83Q272.66 65.15 281.16 65.15L281.16 65.15Q288.94 65.15 293.22 69.22Q297.50 73.29 297.50 80.13L297.50 80.13L297.50 86.32L272.81 86.32Q273.53 90.28 276.44 91.86Q279.36 93.45 285.05 93.45L285.05 93.45Q287.78 93.45 290.63 92.94Q293.47 92.44 295.49 91.65L295.49 91.65L295.49 98.56Q290.74 100.72 283.03 100.72L283.03 100.72ZM272.81 80.34L289.01 80.34L289.01 78.47Q289.01 72.14 281.45 72.14L281.45 72.14Q276.70 72.14 274.75 74.04Q272.81 75.95 272.81 80.34L272.81 80.34ZM318.53 100.72Q311.26 100.72 307.04 96.72Q302.83 92.73 302.83 83.94L302.83 83.94Q302.83 78.04 305.03 73.79Q307.22 69.54 310.93 67.35Q314.64 65.15 319.25 65.15L319.25 65.15Q324.86 65.15 328.82 67.74L328.82 67.74L328.82 51.47L338.54 51.47L338.54 100L330.19 100L329.62 96.83Q327.38 98.78 324.72 99.75Q322.06 100.72 318.53 100.72L318.53 100.72ZM321.19 93.59Q323.57 93.59 325.37 92.87Q327.17 92.15 328.82 90.50L328.82 90.50L328.82 74.94Q325.80 72.28 321.77 72.28L321.77 72.28Q317.30 72.28 315 75.23Q312.70 78.18 312.70 83.94L312.70 83.94Q312.70 89.20 314.82 91.40Q316.94 93.59 321.19 93.59L321.19 93.59ZM351.07 59.61L351.07 51.98L361.66 51.98L361.66 59.61L351.07 59.61ZM351.86 100L351.86 73.07L346.75 73.07L347.62 65.87L361.58 65.87L361.58 100L351.86 100ZM382.46 100.72Q376.27 100.72 372.89 97.26Q369.50 93.81 369.50 87.26L369.50 87.26L369.50 65.87L379.22 65.87L379.22 87.04Q379.22 90.42 380.84 92.01Q382.46 93.59 385.85 93.59L385.85 93.59Q388.30 93.59 390.42 92.62Q392.54 91.65 394.13 90.06L394.13 90.06L394.13 65.87L403.85 65.87L403.85 100L394.85 100L394.49 96.76Q389.52 100.72 382.46 100.72L382.46 100.72ZM412.13 100L412.13 65.87L421.13 65.87L421.49 69.18Q426.82 65.15 433.15 65.15L433.15 65.15Q436.61 65.15 438.62 66.20Q440.64 67.24 441.79 69.33L441.79 69.33Q444.38 67.31 447.44 66.23Q450.50 65.15 454.46 65.15L454.46 65.15Q460.37 65.15 463.18 68.21Q465.98 71.27 465.98 77.54L465.98 77.54L465.98 100L456.41 100L456.41 78.62Q456.41 75.30 454.97 73.79Q453.53 72.28 450.36 72.28L450.36 72.28Q448.34 72.28 446.44 73.11Q444.53 73.94 443.16 75.38L443.16 75.38Q443.52 76.60 443.52 78.33L443.52 78.33L443.52 100L434.45 100L434.45 78.62Q434.45 75.30 433.30 73.79Q432.14 72.28 429.19 72.28L429.19 72.28Q425.52 72.28 421.70 75.95L421.70 75.95L421.70 100L412.13 100Z"/></svg>