<svg xmlns="http://www.w3.org/2000/svg" viewBox="0.21600000000000003 51.471999999999994 359.35200000000003 49.248000000000005"><path d="M0 100L10 54L18 54L13 75L38 54L47 54L26 72L38 100L29 100L20 77L11 85L8 100L0 100ZM54 101Q42 101 42 90L42 90Q42 87 42 84L42 84Q44 78 47 74Q50 70 54 67Q58 65 63 65L63 65Q66 65 68 66Q70 67 72 68L72 68L73 66L81 66L73 100L67 100L67 97Q64 99 61 100Q58 101 54 101L54 101ZM58 95Q63 95 67 91L67 91L71 74Q70 73 68 72Q66 71 64 71L64 71Q59 71 55 75Q52 78 50 84L50 84Q50 87 50 89L50 89Q50 92 52 94Q53 95 58 95L58 95ZM83 100L90 66L97 66L97 69Q99 68 103 66Q106 65 110 65L110 65Q115 65 118 67Q120 70 120 74L120 74Q120 76 120 78L120 78L115 100L108 100L112 78Q113 76 113 75L113 75Q113 73 111 72Q110 71 106 71L106 71Q103 71 101 72Q98 73 96 75L96 75L90 100L83 100ZM133 59L134 52L143 52L142 59L133 59ZM125 100L131 72L126 72L128 66L140 66L133 100L125 100ZM155 101Q150 101 148 99Q146 97 146 93L146 93Q146 92 146 90L146 90L150 72L145 72L146 66L151 66L153 58L161 56L159 66L168 66L166 72L158 72L154 89Q154 91 154 92L154 92Q154 93 155 94Q156 95 159 95L159 95Q161 95 163 94L163 94L162 100Q159 101 155 101L155 101ZM208 59L209 52L218 52L217 59L208 59ZM200 100L206 72L201 72L203 66L215 66L208 100L200 100ZM230 101Q225 101 223 99Q221 97 221 93L221 93Q221 92 221 90L221 90L225 72L220 72L221 66L226 66L228 58L236 56L234 66L243 66L241 72L233 72L229 89Q229 91 229 92L229 92Q229 93 230 94Q231 95 234 95L234 95Q236 95 238 94L238 94L237 100Q234 101 230 101L230 101ZM254 101Q242 101 242 90L242 90Q242 87 242 84L242 84Q244 78 247 74Q250 70 254 67Q258 65 263 65L263 65Q266 65 268 66Q270 67 272 68L272 68L273 66L281 66L273 100L267 100L267 97Q264 99 261 100Q258 101 254 101L254 101ZM258 95Q263 95 267 91L267 91L271 74Q270 73 268 72Q266 71 264 71L264 71Q259 71 255 75Q252 78 250 84L250 84Q250 87 250 89L250 89Q250 92 252 94Q253 95 258 95L258 95ZM291 101Q284 101 284 95L284 95Q284 94 284 92L284 92L293 51L301 51L292 91Q292 92 292 93L292 93Q292 94 293 94Q293 95 294 95L294 95Q296 95 298 94L298 94L297 100Q294 101 291 101L291 101ZM316 59L317 52L326 52L325 59L316 59ZM308 100L314 72L309 72L311 66L323 66L316 100L308 100ZM341 101Q334 101 330 97Q326 94 326 88L326 88Q326 86 327 83L327 83Q329 74 335 70Q340 65 349 65L349 65Q353 65 355 66Q357 66 360 67L360 67L358 73Q355 71 350 71L350 71Q344 71 340 74Q336 77 335 83L335 83Q334 86 334 87L334 87Q334 91 337 93Q339 95 345 95L345 95Q350 95 354 93L354 93L353 99Q348 101 341 101L341 101Z"/></svg>