<svg xmlns="http://www.w3.org/2000/svg" viewBox="-0.36000000000000004 51.471999999999994 741.4560000000001 49.248000000000005"><path d="M-0.36 100L9.43 53.63L21.02 53.63L17.21 71.63L37.01 53.63L50.26 53.63L29.66 72.57L41.47 100L29.09 100L20.95 79.98L14.18 85.96L11.23 100L-0.36 100ZM56.38 100.72Q50.40 100.72 47.20 97.88Q43.99 95.03 43.99 89.42L43.99 89.42Q43.99 87.33 44.57 84.30L44.57 84.30Q46.44 75.52 51.84 70.34Q57.24 65.15 65.52 65.15L65.52 65.15Q68.33 65.15 70.13 65.80Q71.93 66.45 73.66 67.82L73.66 67.82L74.02 65.87L85.61 65.87L78.41 100L68.40 100L68.33 97.12Q63.29 100.72 56.38 100.72L56.38 100.72ZM61.92 92.30Q65.74 92.30 68.98 89.70L68.98 89.70L71.86 76.02Q70.42 73.65 66.74 73.65L66.74 73.65Q62.64 73.65 60.08 76.24Q57.53 78.83 56.38 84.30L56.38 84.30Q55.94 86.25 55.94 87.69L55.94 87.69Q55.94 90.21 57.35 91.25Q58.75 92.30 61.92 92.30L61.92 92.30ZM85.82 100L93.02 65.87L103.82 65.87L103.61 68.82Q106.13 67.24 109.55 66.20Q112.97 65.15 116.35 65.15L116.35 65.15Q126.79 65.15 126.79 74.01L126.79 74.01Q126.79 75.45 126.29 78.11L126.29 78.11L121.68 100L110.09 100L114.48 79.05Q114.77 77.90 114.77 76.82L114.77 76.82Q114.77 75.16 113.72 74.44Q112.68 73.72 110.23 73.72L110.23 73.72Q108.36 73.72 106.13 74.58Q103.90 75.45 102.31 76.74L102.31 76.74L97.42 100L85.82 100ZM141.12 60.47L142.99 51.76L155.59 51.76L153.72 60.47L141.12 60.47ZM133.70 100L139.10 74.44L134.06 74.44L136.87 65.87L152.50 65.87L145.30 100L133.70 100ZM166.54 100.72Q161.64 100.72 159.05 98.42Q156.46 96.11 156.46 91.86L156.46 91.86Q156.46 90.50 156.82 88.55L156.82 88.55L159.77 74.66L155.16 74.66L157.03 65.87L161.64 65.87L163.15 58.74L175.39 55.65L173.23 65.87L181.51 65.87L179.14 74.66L171.36 74.66L168.62 87.76Q168.34 89.34 168.34 89.70L168.34 89.70Q168.34 91.07 169.24 91.61Q170.14 92.15 172.37 92.15L172.37 92.15Q174.60 92.15 176.98 91.43L176.98 91.43L175.32 99.28Q171.65 100.72 166.54 100.72L166.54 100.72ZM217.30 100.72Q213.26 100.72 209.74 100.14Q206.21 99.57 204.12 98.70L204.12 98.70L205.99 89.85Q208.22 90.86 211.39 91.47Q214.56 92.08 217.30 92.08L217.30 92.08Q220.68 92.08 221.98 91.76Q223.27 91.43 223.56 90.21L223.56 90.21Q223.78 89.20 222.73 88.55Q221.69 87.90 218.74 86.97L218.74 86.97L215.86 85.96Q211.97 84.52 210.13 82.76Q208.30 80.99 208.30 78.11L208.30 78.11Q208.30 76.82 208.58 75.59L208.58 75.59Q209.66 70.41 213.91 67.78Q218.16 65.15 226.58 65.15L226.58 65.15Q229.68 65.15 232.78 65.62Q235.87 66.09 237.82 66.81L237.82 66.81L236.02 75.52Q234.22 74.66 231.77 74.19Q229.32 73.72 227.09 73.72L227.09 73.72Q223.92 73.72 222.26 74.08Q220.61 74.44 220.39 75.59L220.39 75.59Q220.18 76.60 221.08 77.07Q221.98 77.54 224.71 78.40L224.71 78.40Q225.29 78.62 225.97 78.80Q226.66 78.98 227.45 79.26L227.45 79.26Q232.06 80.78 233.96 82.58Q235.87 84.38 235.87 87.26L235.87 87.26Q235.87 88.34 235.51 90.14L235.51 90.14Q234.36 95.46 230.04 98.09Q225.72 100.72 217.30 100.72L217.30 100.72ZM257.40 100.72Q250.06 100.72 245.52 97.26Q240.98 93.81 240.98 87.26L240.98 87.26Q240.98 85.17 241.49 82.94L241.49 82.94Q245.23 65.15 263.09 65.15L263.09 65.15Q269.71 65.15 273.49 68.50Q277.27 71.85 277.27 77.18L277.27 77.18Q277.27 78.62 276.91 80.56L276.91 80.56L275.62 86.68L251.42 86.68Q251.50 90.06 253.76 91.40Q256.03 92.73 261.79 92.73L261.79 92.73Q264.60 92.73 267.62 92.22Q270.65 91.72 272.74 90.93L272.74 90.93L271.15 98.49Q265.82 100.72 257.40 100.72L257.40 100.72ZM252.86 79.98L266.98 79.98L267.26 78.47Q267.41 77.90 267.41 76.96L267.41 76.96Q267.41 73 261.79 73L261.79 73Q257.76 73 255.71 74.66Q253.66 76.31 252.86 79.98L252.86 79.98ZM278.71 100L285.91 65.87L296.64 65.87L296.35 68.90Q302.40 65.15 308.52 65.15L308.52 65.15Q311.83 65.15 313.63 66.16Q315.43 67.17 316.15 69.11L316.15 69.11Q322.34 65.15 329.33 65.15L329.33 65.15Q334.08 65.15 336.42 67.35Q338.76 69.54 338.76 73.65L338.76 73.65Q338.76 75.16 338.26 77.68L338.26 77.68L333.58 100L322.13 100L326.52 79.05Q326.74 77.97 326.74 77.03L326.74 77.03Q326.74 75.30 325.73 74.51Q324.72 73.72 322.63 73.72L322.63 73.72Q320.90 73.72 319.21 74.40Q317.52 75.09 316.15 76.31L316.15 76.31Q316.15 77.61 315.72 79.55L315.72 79.55L311.40 100L300.60 100L305.06 78.90Q305.35 77.18 305.35 76.67L305.35 76.67Q305.35 75.16 304.52 74.44Q303.70 73.72 301.82 73.72L301.82 73.72Q300.10 73.72 298.30 74.55Q296.50 75.38 294.91 76.82L294.91 76.82L290.02 100L278.71 100ZM353.02 60.47L354.89 51.76L367.49 51.76L365.62 60.47L353.02 60.47ZM345.60 100L351 74.44L345.96 74.44L348.77 65.87L364.39 65.87L357.19 100L345.60 100ZM410.98 100.72Q407.59 100.72 405.22 99.82Q402.84 98.92 401.04 97.12L401.04 97.12L399.89 100L389.81 100L400.10 51.47L411.70 51.47L408.31 67.46Q412.70 65.15 418.18 65.15L418.18 65.15Q424.22 65.15 427.72 68.28Q431.21 71.42 431.21 77.46L431.21 77.46Q431.21 79.62 430.63 82.65L430.63 82.65Q428.69 91.86 423.86 96.29Q419.04 100.72 410.98 100.72L410.98 100.72ZM409.46 92.30Q413.28 92.30 415.51 89.99Q417.74 87.69 418.82 82.72L418.82 82.72Q419.33 79.91 419.33 78.69L419.33 78.69Q419.33 75.95 417.92 74.80Q416.52 73.65 413.42 73.65L413.42 73.65Q409.32 73.65 406.51 75.81L406.51 75.81L403.56 89.70Q404.50 91 406.01 91.65Q407.52 92.30 409.46 92.30L409.46 92.30ZM450.43 100.72Q442.66 100.72 438.55 97.44Q434.45 94.17 434.45 87.90L434.45 87.90Q434.45 85.82 435.02 82.94L435.02 82.94Q436.90 74.15 442.40 69.65Q447.91 65.15 457.99 65.15L457.99 65.15Q465.91 65.15 470.02 68.46Q474.12 71.78 474.12 78.04L474.12 78.04Q474.12 80.20 473.54 82.94L473.54 82.94Q471.67 91.86 466.16 96.29Q460.66 100.72 450.43 100.72L450.43 100.72ZM452.38 91.65Q456.41 91.65 458.57 89.63Q460.73 87.62 461.74 82.94L461.74 82.94Q462.17 80.85 462.17 79.41L462.17 79.41Q462.17 76.67 460.73 75.45Q459.29 74.22 456.12 74.22L456.12 74.22Q452.16 74.22 449.96 76.28Q447.77 78.33 446.83 82.94L446.83 82.94Q446.40 84.95 446.40 86.54L446.40 86.54Q446.40 89.20 447.84 90.42Q449.28 91.65 452.38 91.65L452.38 91.65ZM486.14 100.72Q481.82 100.72 479.66 99.06Q477.50 97.41 477.50 93.81L477.50 93.81Q477.50 91.94 477.86 90.42L477.86 90.42L486.14 51.47L497.74 51.47L489.67 89.27Q489.53 90.14 489.53 90.35L489.53 90.35Q489.53 91.36 490.10 91.76Q490.68 92.15 491.83 92.15L491.83 92.15Q493.78 92.15 495.36 91.65L495.36 91.65L493.70 99.50Q491.83 100.14 490.14 100.43Q488.45 100.72 486.14 100.72L486.14 100.72ZM512.14 100.72Q506.45 100.72 502.99 97.66Q499.54 94.60 499.54 88.55L499.54 88.55Q499.54 85.82 500.11 83.22L500.11 83.22Q501.98 74.22 507.20 69.69Q512.42 65.15 520.20 65.15L520.20 65.15Q525.67 65.15 529.06 67.46L529.06 67.46L532.44 51.47L544.03 51.47L533.74 100L523.73 100L523.66 97.12Q518.62 100.72 512.14 100.72L512.14 100.72ZM517.25 92.30Q521.06 92.30 524.30 89.70L524.30 89.70L527.26 75.88Q525.24 73.65 521.42 73.65L521.42 73.65Q517.68 73.65 515.34 75.99Q513 78.33 511.92 83.30L511.92 83.30Q511.42 85.53 511.42 87.26L511.42 87.26Q511.42 89.92 512.82 91.11Q514.22 92.30 517.25 92.30L517.25 92.30ZM578.74 60.47L580.61 51.76L593.21 51.76L591.34 60.47L578.74 60.47ZM571.32 100L576.72 74.44L571.68 74.44L574.49 65.87L590.11 65.87L582.91 100L571.32 100ZM604.15 100.72Q599.26 100.72 596.66 98.42Q594.07 96.11 594.07 91.86L594.07 91.86Q594.07 90.50 594.43 88.55L594.43 88.55L597.38 74.66L592.78 74.66L594.65 65.87L599.26 65.87L600.77 58.74L613.01 55.65L610.85 65.87L619.13 65.87L616.75 74.66L608.98 74.66L606.24 87.76Q605.95 89.34 605.95 89.70L605.95 89.70Q605.95 91.07 606.85 91.61Q607.75 92.15 609.98 92.15L609.98 92.15Q612.22 92.15 614.59 91.43L614.59 91.43L612.94 99.28Q609.26 100.72 604.15 100.72L604.15 100.72ZM628.42 100.72Q622.44 100.72 619.24 97.88Q616.03 95.03 616.03 89.42L616.03 89.42Q616.03 87.33 616.61 84.30L616.61 84.30Q618.48 75.52 623.88 70.34Q629.28 65.15 637.56 65.15L637.56 65.15Q640.37 65.15 642.17 65.80Q643.97 66.45 645.70 67.82L645.70 67.82L646.06 65.87L657.65 65.87L650.45 100L640.44 100L640.37 97.12Q635.33 100.72 628.42 100.72L628.42 100.72ZM633.96 92.30Q637.78 92.30 641.02 89.70L641.02 89.70L643.90 76.02Q642.46 73.65 638.78 73.65L638.78 73.65Q634.68 73.65 632.12 76.24Q629.57 78.83 628.42 84.30L628.42 84.30Q627.98 86.25 627.98 87.69L627.98 87.69Q627.98 90.21 629.39 91.25Q630.79 92.30 633.96 92.30L633.96 92.30ZM668.16 100.72Q663.84 100.72 661.68 99.06Q659.52 97.41 659.52 93.81L659.52 93.81Q659.52 91.94 659.88 90.42L659.88 90.42L668.16 51.47L679.75 51.47L671.69 89.27Q671.54 90.14 671.54 90.35L671.54 90.35Q671.54 91.36 672.12 91.76Q672.70 92.15 673.85 92.15L673.85 92.15Q675.79 92.15 677.38 91.65L677.38 91.65L675.72 99.50Q673.85 100.14 672.16 100.43Q670.46 100.72 668.16 100.72L668.16 100.72ZM692.50 60.47L694.37 51.76L706.97 51.76L705.10 60.47L692.50 60.47ZM685.08 100L690.48 74.44L685.44 74.44L688.25 65.87L703.87 65.87L696.67 100L685.08 100ZM721.87 100.72Q714.53 100.72 710.14 97.30Q705.74 93.88 705.74 87.40L705.74 87.40Q705.74 85.17 706.25 82.94L706.25 82.94Q709.99 65.15 729.65 65.15L729.65 65.15Q733.39 65.15 736.06 65.69Q738.72 66.23 741.10 67.46L741.10 67.46L739.30 75.66Q735.77 73.72 730.30 73.72L730.30 73.72Q725.04 73.72 722.09 75.81Q719.14 77.90 718.06 82.94L718.06 82.94Q717.62 84.88 717.62 86.32L717.62 86.32Q717.62 89.42 719.64 90.78Q721.66 92.15 726.34 92.15L726.34 92.15Q731.59 92.15 736.34 89.99L736.34 89.99L734.54 98.56Q729.07 100.72 721.87 100.72L721.87 100.72Z"/></svg>