<svg xmlns="http://www.w3.org/2000/svg" viewBox="5.4 52.696 307.22400000000005 48.024"><path d="M5.40 100L5.40 53.63L9.36 53.63L9.36 78.26L32.90 53.63L37.73 53.63L20.09 72.06L38.16 100L33.84 100L17.64 74.66L9.36 83.37L9.36 100L5.40 100ZM53.28 100.72Q48.10 100.72 44.75 98.27Q41.40 95.82 41.40 90.93L41.40 90.93Q41.40 86.10 44.42 83.40Q47.45 80.70 54.07 80.70L54.07 80.70L66.82 80.70L66.82 77.46Q66.82 74.08 65.95 72.17Q65.09 70.26 62.78 69.40Q60.48 68.54 56.16 68.54L56.16 68.54Q50.54 68.54 45.29 70.41L45.29 70.41L45.29 67.02Q50.11 65.15 56.88 65.15L56.88 65.15Q64.01 65.15 67.32 68.03Q70.63 70.91 70.63 77.39L70.63 77.39L70.63 100L67.39 100L67.03 95.75Q64.66 98.34 61.38 99.53Q58.10 100.72 53.28 100.72L53.28 100.72ZM54.29 97.41Q62.28 97.41 66.82 92.08L66.82 92.08L66.82 83.87L54.22 83.87Q49.32 83.87 47.30 85.60Q45.29 87.33 45.29 90.93L45.29 90.93Q45.29 94.38 47.59 95.90Q49.90 97.41 54.29 97.41L54.29 97.41ZM81.07 100L81.07 65.87L84.53 65.87L84.89 70.05Q87.70 67.67 91.04 66.41Q94.39 65.15 98.71 65.15L98.71 65.15Q105.05 65.15 107.96 68.10Q110.88 71.06 110.88 77.46L110.88 77.46L110.88 100L106.92 100L106.92 77.54Q106.92 74.08 106.02 72.14Q105.12 70.19 103.00 69.33Q100.87 68.46 97.06 68.46L97.06 68.46Q93.53 68.46 90.47 69.80Q87.41 71.13 85.03 73.43L85.03 73.43L85.03 100L81.07 100ZM125.42 57.02L125.42 52.70L129.96 52.70L129.96 57.02L125.42 57.02ZM125.93 100L125.93 69.18L120.60 69.18L121.03 65.87L129.89 65.87L129.89 100L125.93 100ZM152.64 100.72Q148.10 100.72 145.66 98.20Q143.21 95.68 143.21 91.14L143.21 91.14L143.21 69.18L137.88 69.18L137.88 65.87L143.21 65.87L143.21 56.94L147.17 55.65L147.17 65.87L157.03 65.87L156.82 69.18L147.17 69.18L147.17 91Q147.17 94.31 148.75 95.90Q150.34 97.48 153.79 97.48L153.79 97.48Q155.74 97.48 158.04 96.69L158.04 96.69L158.04 99.86Q155.66 100.72 152.64 100.72L152.64 100.72ZM192.60 100L192.60 97.55Q194.18 93.30 197.46 89.60Q200.74 85.89 205.70 81.71L205.70 81.71Q209.95 78.04 212.11 75.70Q214.27 73.36 215.24 71.06Q216.22 68.75 216.22 65.80L216.22 65.80Q216.22 56.37 205.06 56.37L205.06 56.37Q199.51 56.37 194.40 58.31L194.40 58.31L194.40 54.71Q196.63 53.92 199.66 53.42Q202.68 52.91 205.34 52.91L205.34 52.91Q212.47 52.91 216.29 56.30Q220.10 59.68 220.10 65.80L220.10 65.80Q220.10 69.26 218.88 71.96Q217.66 74.66 215.57 76.92Q213.48 79.19 209.81 82.50L209.81 82.50L208.15 84.02Q203.83 87.76 201.24 90.57Q198.65 93.38 197.21 96.83L197.21 96.83L220.61 96.83L220.61 100L192.60 100ZM247.61 100.72Q237.82 100.72 233.17 94.67Q228.53 88.62 228.53 77.68L228.53 77.68Q228.53 65.44 232.92 59.18Q237.31 52.91 247.61 52.91L247.61 52.91Q257.83 52.91 262.22 59.18Q266.62 65.44 266.62 77.68L266.62 77.68Q266.62 88.62 261.97 94.67Q257.33 100.72 247.61 100.72L247.61 100.72ZM247.61 97.34Q255.46 97.34 259.09 92.08Q262.73 86.82 262.73 77.68L262.73 77.68Q262.73 66.95 259.27 61.66Q255.82 56.37 247.61 56.37L247.61 56.37Q239.33 56.37 235.87 61.66Q232.42 66.95 232.42 77.68L232.42 77.68Q232.42 86.82 236.05 92.08Q239.69 97.34 247.61 97.34L247.61 97.34ZM293.62 100.72Q283.82 100.72 279.18 94.67Q274.54 88.62 274.54 77.68L274.54 77.68Q274.54 65.44 278.93 59.18Q283.32 52.91 293.62 52.91L293.62 52.91Q303.84 52.91 308.23 59.18Q312.62 65.44 312.62 77.68L312.62 77.68Q312.62 88.62 307.98 94.67Q303.34 100.72 293.62 100.72L293.62 100.72ZM293.62 97.34Q301.46 97.34 305.10 92.08Q308.74 86.82 308.74 77.68L308.74 77.68Q308.74 66.95 305.28 61.66Q301.82 56.37 293.62 56.37L293.62 56.37Q285.34 56.37 281.88 61.66Q278.42 66.95 278.42 77.68L278.42 77.68Q278.42 86.82 282.06 92.08Q285.70 97.34 293.62 97.34L293.62 97.34Z"/></svg>