<svg xmlns="http://www.w3.org/2000/svg" viewBox="0.07200000000000001 51.471999999999994 664.1280000000002 49.248000000000005"><path d="M0.07 100L9.86 53.63L19.58 53.63L15.41 73.29L37.44 53.63L48.60 53.63L27.86 72.42L39.67 100L29.30 100L20.52 78.62L12.89 85.31L9.79 100L0.07 100ZM55.80 100.72Q49.90 100.72 46.44 98.02Q42.98 95.32 42.98 89.56L42.98 89.56Q42.98 87.62 43.56 84.59L43.56 84.59Q44.86 78.62 47.88 74.22Q50.90 69.83 55.12 67.49Q59.33 65.15 64.22 65.15L64.22 65.15Q67.18 65.15 69.26 65.80Q71.35 66.45 73.08 68.10L73.08 68.10L73.51 65.87L83.23 65.87L76.03 100L67.68 100L67.75 96.83Q65.09 98.78 62.21 99.75Q59.33 100.72 55.80 100.72L55.80 100.72ZM59.98 93.59Q62.35 93.59 64.33 92.87Q66.31 92.15 68.33 90.50L68.33 90.50L71.50 75.30Q69.26 72.28 65.23 72.28L65.23 72.28Q60.70 72.28 57.71 75.41Q54.72 78.54 53.42 84.59L53.42 84.59Q52.92 86.68 52.92 88.48L52.92 88.48Q52.92 91.29 54.58 92.44Q56.23 93.59 59.98 93.59L59.98 93.59ZM84.31 100L91.51 65.87L100.51 65.87L100.22 69.11Q102.89 67.38 106.27 66.27Q109.66 65.15 113.04 65.15L113.04 65.15Q118.37 65.15 121.03 67.42Q123.70 69.69 123.70 74.08L123.70 74.08Q123.70 75.95 123.26 78.11L123.26 78.11L118.66 100L108.94 100L113.47 78.62Q113.76 77.25 113.76 76.02L113.76 76.02Q113.76 74.01 112.57 73.14Q111.38 72.28 108.58 72.28L108.58 72.28Q105.98 72.28 103.54 73.25Q101.09 74.22 99.14 75.81L99.14 75.81L94.03 100L84.31 100ZM135.14 59.61L136.73 51.98L147.31 51.98L145.73 59.61L135.14 59.61ZM127.37 100L133.06 73.07L127.94 73.07L130.32 65.87L144.29 65.87L137.09 100L127.37 100ZM158.69 100.72Q154.01 100.72 151.60 98.56Q149.18 96.40 149.18 92.51L149.18 92.51Q149.18 91.14 149.54 89.20L149.54 89.20L152.93 73.36L148.10 73.36L149.69 65.87L154.51 65.87L156.10 58.53L166.39 55.65L164.23 65.87L172.87 65.87L170.71 73.36L162.65 73.36L159.41 88.55Q159.19 89.70 159.19 90.57L159.19 90.57Q159.19 92.15 160.24 92.80Q161.28 93.45 163.73 93.45L163.73 93.45Q165.67 93.45 168.05 92.73L168.05 92.73L166.61 99.42Q163.15 100.72 158.69 100.72L158.69 100.72ZM197.78 100L204.98 65.87L213.98 65.87L213.62 69.18Q219.89 65.15 226.15 65.15L226.15 65.15Q229.61 65.15 231.44 66.20Q233.28 67.24 233.93 69.33L233.93 69.33Q240.19 65.15 247.46 65.15L247.46 65.15Q252.07 65.15 254.45 67.24Q256.82 69.33 256.82 73.58L256.82 73.58Q256.82 75.38 256.39 77.54L256.39 77.54L251.64 100L242.06 100L246.60 78.62Q246.89 77.25 246.89 76.02L246.89 76.02Q246.89 74.08 245.74 73.18Q244.58 72.28 241.85 72.28L241.85 72.28Q239.83 72.28 237.74 73.11Q235.66 73.94 234.00 75.38L234.00 75.38Q234.07 76.60 233.71 78.33L233.71 78.33L229.18 100L220.10 100L224.64 78.62Q224.93 77.25 224.93 75.95L224.93 75.95Q224.93 74.08 223.96 73.18Q222.98 72.28 220.68 72.28L220.68 72.28Q217.01 72.28 212.40 75.95L212.40 75.95L207.36 100L197.78 100ZM277.13 100.72Q269.71 100.72 265.46 97.37Q261.22 94.02 261.22 87.54L261.22 87.54Q261.22 85.31 261.72 82.86L261.72 82.86Q263.52 74.22 268.49 69.69Q273.46 65.15 282.82 65.15L282.82 65.15Q289.44 65.15 292.93 68.14Q296.42 71.13 296.42 76.31L296.42 76.31Q296.42 78.04 295.99 80.13L295.99 80.13L294.70 86.32L270.00 86.32Q269.93 89.13 270.86 90.64Q271.80 92.15 274.14 92.80Q276.48 93.45 280.73 93.45L280.73 93.45Q283.46 93.45 286.42 92.94Q289.37 92.44 291.53 91.65L291.53 91.65L290.09 98.56Q284.90 100.72 277.13 100.72L277.13 100.72ZM271.30 80.34L287.50 80.34L287.86 78.47Q288.07 77.46 288.07 76.67L288.07 76.67Q288.07 72.14 281.66 72.14L281.66 72.14Q276.91 72.14 274.57 74.04Q272.23 75.95 271.30 80.34L271.30 80.34ZM312.62 100.72Q307.01 100.72 303.55 97.66Q300.10 94.60 300.10 88.48L300.10 88.48Q300.10 85.74 300.67 83.15L300.67 83.15Q302.62 74.15 307.76 69.65Q312.91 65.15 320.76 65.15L320.76 65.15Q326.52 65.15 329.98 67.74L329.98 67.74L333.43 51.47L343.15 51.47L332.86 100L324.50 100L324.58 96.83Q321.91 98.78 319.03 99.75Q316.15 100.72 312.62 100.72L312.62 100.72ZM316.80 93.59Q319.18 93.59 321.16 92.87Q323.14 92.15 325.15 90.50L325.15 90.50L328.39 74.94Q326.09 72.28 321.77 72.28L321.77 72.28Q312.84 72.28 310.54 83.30L310.54 83.30Q309.96 85.96 309.96 87.62L309.96 87.62Q309.96 90.71 311.62 92.15Q313.27 93.59 316.80 93.59L316.80 93.59ZM353.95 59.61L355.54 51.98L366.12 51.98L364.54 59.61L353.95 59.61ZM346.18 100L351.86 73.07L346.75 73.07L349.13 65.87L363.10 65.87L355.90 100L346.18 100ZM376.56 100.72Q371.59 100.72 368.82 98.27Q366.05 95.82 366.05 91.22L366.05 91.22Q366.05 89.42 366.48 87.26L366.48 87.26L371.02 65.87L380.74 65.87L376.27 87.04Q375.98 88.26 375.98 89.49L375.98 89.49Q375.98 91.65 377.28 92.62Q378.58 93.59 381.46 93.59L381.46 93.59Q383.90 93.59 386.24 92.62Q388.58 91.65 390.53 90.06L390.53 90.06L395.64 65.87L405.36 65.87L398.16 100L389.16 100L389.45 96.76Q383.62 100.72 376.56 100.72L376.56 100.72ZM406.44 100L413.64 65.87L422.64 65.87L422.28 69.18Q428.54 65.15 434.81 65.15L434.81 65.15Q438.26 65.15 440.10 66.20Q441.94 67.24 442.58 69.33L442.58 69.33Q448.85 65.15 456.12 65.15L456.12 65.15Q460.73 65.15 463.10 67.24Q465.48 69.33 465.48 73.58L465.48 73.58Q465.48 75.38 465.05 77.54L465.05 77.54L460.30 100L450.72 100L455.26 78.62Q455.54 77.25 455.54 76.02L455.54 76.02Q455.54 74.08 454.39 73.18Q453.24 72.28 450.50 72.28L450.50 72.28Q448.49 72.28 446.40 73.11Q444.31 73.94 442.66 75.38L442.66 75.38Q442.73 76.60 442.37 78.33L442.37 78.33L437.83 100L428.76 100L433.30 78.62Q433.58 77.25 433.58 75.95L433.58 75.95Q433.58 74.08 432.61 73.18Q431.64 72.28 429.34 72.28L429.34 72.28Q425.66 72.28 421.06 75.95L421.06 75.95L416.02 100L406.44 100ZM507.02 59.61L508.61 51.98L519.19 51.98L517.61 59.61L507.02 59.61ZM499.25 100L504.94 73.07L499.82 73.07L502.20 65.87L516.17 65.87L508.97 100L499.25 100ZM530.57 100.72Q525.89 100.72 523.48 98.56Q521.06 96.40 521.06 92.51L521.06 92.51Q521.06 91.14 521.42 89.20L521.42 89.20L524.81 73.36L519.98 73.36L521.57 65.87L526.39 65.87L527.98 58.53L538.27 55.65L536.11 65.87L544.75 65.87L542.59 73.36L534.53 73.36L531.29 88.55Q531.07 89.70 531.07 90.57L531.07 90.57Q531.07 92.15 532.12 92.80Q533.16 93.45 535.61 93.45L535.61 93.45Q537.55 93.45 539.93 92.73L539.93 92.73L538.49 99.42Q535.03 100.72 530.57 100.72L530.57 100.72ZM555.26 100.72Q549.36 100.72 545.90 98.02Q542.45 95.32 542.45 89.56L542.45 89.56Q542.45 87.62 543.02 84.59L543.02 84.59Q544.32 78.62 547.34 74.22Q550.37 69.83 554.58 67.49Q558.79 65.15 563.69 65.15L563.69 65.15Q566.64 65.15 568.73 65.80Q570.82 66.45 572.54 68.10L572.54 68.10L572.98 65.87L582.70 65.87L575.50 100L567.14 100L567.22 96.83Q564.55 98.78 561.67 99.75Q558.79 100.72 555.26 100.72L555.26 100.72ZM559.44 93.59Q561.82 93.59 563.80 92.87Q565.78 92.15 567.79 90.50L567.79 90.50L570.96 75.30Q568.73 72.28 564.70 72.28L564.70 72.28Q560.16 72.28 557.17 75.41Q554.18 78.54 552.89 84.59L552.89 84.59Q552.38 86.68 552.38 88.48L552.38 88.48Q552.38 91.29 554.04 92.44Q555.70 93.59 559.44 93.59L559.44 93.59ZM593.06 100.72Q585.29 100.72 585.29 94.10L585.29 94.10Q585.29 92.87 585.65 91.07L585.65 91.07L594.07 51.47L603.79 51.47L595.51 90.28Q595.37 90.86 595.37 91.72L595.37 91.72Q595.37 92.66 595.91 93.05Q596.45 93.45 597.67 93.45L597.67 93.45Q599.54 93.45 601.13 92.94L601.13 92.94L599.76 99.64Q598.10 100.22 596.59 100.47Q595.08 100.72 593.06 100.72L593.06 100.72ZM618.12 59.61L619.70 51.98L630.29 51.98L628.70 59.61L618.12 59.61ZM610.34 100L616.03 73.07L610.92 73.07L613.30 65.87L627.26 65.87L620.06 100L610.34 100ZM645.55 100.72Q638.35 100.72 634.18 97.34Q630.00 93.95 630.00 87.62L630.00 87.62Q630.00 85.24 630.50 82.94L630.50 82.94Q634.25 65.15 653.40 65.15L653.40 65.15Q657.00 65.15 659.48 65.66Q661.97 66.16 664.20 67.31L664.20 67.31L662.69 74.30Q659.30 72.42 653.83 72.42L653.83 72.42Q648.14 72.42 644.87 74.80Q641.59 77.18 640.37 82.94L640.37 82.94Q639.86 85.17 639.86 87.11L639.86 87.11Q639.86 90.42 642.02 91.94Q644.18 93.45 649.30 93.45L649.30 93.45Q654.62 93.45 659.16 91.43L659.16 91.43L657.65 98.63Q652.32 100.72 645.55 100.72L645.55 100.72Z"/></svg>