<svg xmlns="http://www.w3.org/2000/svg" viewBox="2.5200000000000005 51.03999999999999 403.272 49.68000000000001"><path d="M2.52 100L2.52 53.63L19.94 53.63L19.94 66.59L30.10 53.63L49.75 53.63L33.91 72.86L51.19 100L32.76 100L23.26 83.87L19.94 87.90L19.94 100L2.52 100ZM60.70 100.72Q55.37 100.72 52.02 97.91Q48.67 95.10 48.67 89.34L48.67 89.34Q48.67 77.68 63.50 77.68L63.50 77.68L71.14 77.68L71.14 77.32Q71.14 76.46 69.55 75.88Q67.97 75.30 65.02 75.30L65.02 75.30Q62.21 75.30 59.00 75.77Q55.80 76.24 52.99 77.10L52.99 77.10L52.99 67.74Q55.73 66.59 60.08 65.87Q64.44 65.15 68.47 65.15L68.47 65.15Q77.33 65.15 82.51 68.79Q87.70 72.42 87.70 79.62L87.70 79.62L87.70 100L72.43 100L71.71 97.55Q67.82 100.72 60.70 100.72L60.70 100.72ZM67.25 91.22Q69.55 91.22 71.14 89.63L71.14 89.63L71.14 86.46L67.97 86.46Q66.24 86.46 65.48 87.00Q64.73 87.54 64.73 88.84L64.73 88.84Q64.73 91.22 67.25 91.22L67.25 91.22ZM92.38 100L92.38 65.87L108.72 65.87L109.08 67.82Q111.10 66.74 114.34 65.94Q117.58 65.15 121.10 65.15L121.10 65.15Q127.15 65.15 129.96 68.32Q132.77 71.49 132.77 78.04L132.77 78.04L132.77 100L115.34 100L115.34 80.27Q115.34 77.97 112.97 77.97L112.97 77.97Q112.18 77.97 111.24 78.40Q110.30 78.83 109.80 79.41L109.80 79.41L109.80 100L92.38 100ZM140.98 63.06L140.98 51.04L159.62 51.04L159.62 63.06L140.98 63.06ZM142.20 100L142.20 78.40L137.45 78.40L138.89 65.87L159.62 65.87L159.62 100L142.20 100ZM180.43 100.72Q165.89 100.72 165.89 86.61L165.89 86.61L165.89 78.40L161.78 78.40L161.78 65.87L165.89 65.87L165.89 59.18L183.31 55.65L183.31 65.87L190.30 65.87L189.94 78.40L183.31 78.40L183.31 85.67Q183.31 88.70 186.70 88.70L186.70 88.70Q188.93 88.70 191.02 87.98L191.02 87.98L191.02 98.78Q186.48 100.72 180.43 100.72L180.43 100.72ZM240.26 100.72Q237.31 100.72 235.01 99.96Q232.70 99.21 230.69 97.77L230.69 97.77L229.90 100L214.78 100L214.78 51.47L232.20 51.47L232.20 66.45Q233.57 65.87 235.66 65.51Q237.74 65.15 239.62 65.15L239.62 65.15Q247.82 65.15 252.11 69.29Q256.39 73.43 256.39 82.65L256.39 82.65Q256.39 91.50 252.07 96.11Q247.75 100.72 240.26 100.72L240.26 100.72ZM235.22 88.26Q236.88 88.26 237.74 87.08Q238.61 85.89 238.61 82.94L238.61 82.94Q238.61 79.98 237.74 78.80Q236.88 77.61 235.22 77.61L235.22 77.61Q234.29 77.61 233.60 77.86Q232.92 78.11 232.20 78.69L232.20 78.69L232.20 87.18Q232.92 87.76 233.60 88.01Q234.29 88.26 235.22 88.26L235.22 88.26ZM273.67 100.72Q266.26 100.72 263.12 97.77Q259.99 94.82 259.99 88.34L259.99 88.34L259.99 51.47L277.42 51.47L277.42 86.03Q277.42 87.40 277.96 88.05Q278.50 88.70 279.94 88.70L279.94 88.70Q281.95 88.70 283.54 88.05L283.54 88.05L283.54 98.85Q281.09 99.86 279.07 100.29Q277.06 100.72 273.67 100.72L273.67 100.72ZM293.76 100.72Q288.43 100.72 285.08 97.91Q281.74 95.10 281.74 89.34L281.74 89.34Q281.74 77.68 296.57 77.68L296.57 77.68L304.20 77.68L304.20 77.32Q304.20 76.46 302.62 75.88Q301.03 75.30 298.08 75.30L298.08 75.30Q295.27 75.30 292.07 75.77Q288.86 76.24 286.06 77.10L286.06 77.10L286.06 67.74Q288.79 66.59 293.15 65.87Q297.50 65.15 301.54 65.15L301.54 65.15Q310.39 65.15 315.58 68.79Q320.76 72.42 320.76 79.62L320.76 79.62L320.76 100L305.50 100L304.78 97.55Q300.89 100.72 293.76 100.72L293.76 100.72ZM300.31 91.22Q302.62 91.22 304.20 89.63L304.20 89.63L304.20 86.46L301.03 86.46Q299.30 86.46 298.55 87.00Q297.79 87.54 297.79 88.84L297.79 88.84Q297.79 91.22 300.31 91.22L300.31 91.22ZM344.30 100.72Q334.44 100.72 328.68 96.26Q322.92 91.79 322.92 82.94L322.92 82.94Q322.92 74.08 328.64 69.62Q334.37 65.15 344.16 65.15L344.16 65.15Q348.41 65.15 351.76 65.73Q355.10 66.30 358.06 67.67L358.06 67.67L358.06 79.77Q353.66 77.61 348.05 77.61L348.05 77.61Q344.23 77.61 342.47 78.83Q340.70 80.06 340.70 82.94L340.70 82.94Q340.70 85.82 342.54 87.04Q344.38 88.26 348.19 88.26L348.19 88.26Q353.09 88.26 358.20 85.53L358.20 85.53L358.20 98.20Q355.25 99.57 351.90 100.14Q348.55 100.72 344.30 100.72L344.30 100.72ZM361.80 100L361.80 51.47L379.22 51.47L379.22 72.71L385.49 65.87L405.07 65.87L391.61 80.63L405.79 100L387.36 100L380.81 89.70L379.22 91.50L379.22 100L361.80 100Z"/></svg>