<svg xmlns="http://www.w3.org/2000/svg" viewBox="0.7000000000000001 -6.6000000000000005 22.070000000000004 6.7"><path d="M3.09-3.86L5.57 0L4.69 0L2.57-3.33L1.52-2.22L1.52 0L0.70 0L0.70-6.44L1.52-6.44L1.52-3.25L4.53-6.44L5.49-6.44L3.09-3.86ZM9.49 0L9.43-0.54Q9.12-0.21 8.68-0.06Q8.23 0.10 7.59 0.10L7.59 0.10Q6.87 0.10 6.39-0.27Q5.92-0.64 5.92-1.33L5.92-1.33Q5.92-2.02 6.37-2.42Q6.82-2.81 7.75-2.81L7.75-2.81L9.40-2.81L9.40-3.10Q9.40-3.50 9.29-3.73Q9.18-3.95 8.89-4.05Q8.60-4.15 8.05-4.15L8.05-4.15Q7.22-4.15 6.47-3.89L6.47-3.89L6.47-4.57Q7.18-4.84 8.16-4.84L8.16-4.84Q9.18-4.84 9.68-4.42Q10.18-4.01 10.18-3.10L10.18-3.10L10.18 0L9.49 0ZM9.40-2.18L7.77-2.18Q7.22-2.18 6.97-1.98Q6.73-1.77 6.73-1.33L6.73-1.33Q6.73-0.92 7-0.74Q7.27-0.57 7.80-0.57L7.80-0.57Q8.81-0.57 9.40-1.26L9.40-1.26L9.40-2.18ZM15.88 0L15.06 0L15.06-3.07Q15.06-3.50 14.95-3.73Q14.84-3.97 14.59-4.08Q14.33-4.18 13.85-4.18L13.85-4.18Q13.41-4.18 13.02-4.02Q12.63-3.86 12.35-3.58L12.35-3.58L12.35 0L11.53 0L11.53-4.74L12.27-4.74L12.32-4.20Q13.10-4.84 14.16-4.84L14.16-4.84Q15.06-4.84 15.47-4.42Q15.88-4 15.88-3.10L15.88-3.10L15.88 0ZM18.79-5.85L17.88-5.85L17.88-6.60L18.79-6.60L18.79-5.85ZM18.78-4.74L18.78 0L17.96 0L17.96-4.09L17.23-4.09L17.31-4.74L18.78-4.74ZM19.79-4.74L20.51-4.74L20.51-5.91L21.33-6.16L21.33-4.74L22.64-4.74L22.59-4.09L21.33-4.09L21.33-1.36Q21.33-0.92 21.53-0.74Q21.72-0.56 22.20-0.56L22.20-0.56Q22.46-0.56 22.77-0.66L22.77-0.66L22.77-0.04Q22.40 0.10 21.92 0.10L21.92 0.10Q21.23 0.10 20.87-0.27Q20.51-0.64 20.51-1.32L20.51-1.32L20.51-4.09L19.79-4.09L19.79-4.74Z"/></svg>