<svg xmlns="http://www.w3.org/2000/svg" viewBox="0.45 -6.73 24.669999999999998 6.83"><path d="M0.45 0L0.45-6.44L2.33-6.44L2.33-4.17L4.28-6.44L6.42-6.44L4.15-3.80L6.58 0L4.58 0L2.99-2.60L2.33-1.86L2.33 0L0.45 0ZM8.11 0.10Q7.38 0.10 6.90-0.29Q6.43-0.67 6.43-1.42L6.43-1.42Q6.43-2.18 6.93-2.59Q7.44-3 8.44-3L8.44-3L9.67-3L9.67-3.09Q9.67-3.37 9.43-3.50Q9.20-3.63 8.63-3.63L8.63-3.63Q7.81-3.63 7.01-3.38L7.01-3.38L7.01-4.51Q7.38-4.66 7.92-4.75Q8.46-4.84 9.01-4.84L9.01-4.84Q10.17-4.84 10.81-4.37Q11.46-3.89 11.46-2.92L11.46-2.92L11.46 0L9.82 0L9.73-0.38Q9.19 0.10 8.11 0.10L8.11 0.10ZM8.75-1Q9.32-1 9.67-1.38L9.67-1.38L9.67-1.97L8.76-1.97Q8.44-1.97 8.29-1.85Q8.14-1.73 8.14-1.48L8.14-1.48Q8.14-1 8.75-1L8.75-1ZM12.31 0L12.31-4.74L14.07-4.74L14.12-4.38Q14.41-4.58 14.86-4.71Q15.31-4.84 15.79-4.84L15.79-4.84Q16.68-4.84 17.09-4.40Q17.50-3.96 17.50-3.04L17.50-3.04L17.50 0L15.62 0L15.62-2.85Q15.62-3.17 15.47-3.31Q15.33-3.45 14.99-3.45L14.99-3.45Q14.78-3.45 14.56-3.35Q14.34-3.26 14.19-3.11L14.19-3.11L14.19 0L12.31 0ZM18.89-5.37L18.89-6.73L20.92-6.73L20.92-5.37L18.89-5.37ZM19.04 0L19.04-3.37L18.35-3.37L18.51-4.74L20.92-4.74L20.92 0L19.04 0ZM23.85 0.10Q22.92 0.10 22.48-0.36Q22.04-0.83 22.04-1.68L22.04-1.68L22.04-3.35L21.42-3.35L21.42-4.74L22.04-4.74L22.04-5.71L23.92-6.16L23.92-4.74L25.01-4.74L24.94-3.35L23.92-3.35L23.92-1.82Q23.92-1.52 24.06-1.40Q24.21-1.27 24.53-1.27L24.53-1.27Q24.82-1.27 25.12-1.37L25.12-1.37L25.12-0.12Q24.59 0.10 23.85 0.10L23.85 0.10Z"/></svg>