<svg xmlns="http://www.w3.org/2000/svg" viewBox="0.2 -6.6000000000000005 22.68 6.7"><path d="M0.20 0L1.56-6.44L2.38-6.44L1.71-3.25L5.39-6.44L6.35-6.44L3.41-3.86L5.07 0L4.19 0L2.77-3.33L1.49-2.22L1.02 0L0.20 0ZM7.53 0.10Q5.80 0.10 5.80-1.45L5.80-1.45Q5.80-1.80 5.89-2.23L5.89-2.23Q6.06-3.06 6.47-3.65Q6.88-4.24 7.45-4.54Q8.02-4.84 8.67-4.84L8.67-4.84Q9.12-4.84 9.45-4.74Q9.78-4.63 10.08-4.39L10.08-4.39L10.15-4.74L10.97-4.74L9.97 0L9.27 0L9.31-0.50Q8.91-0.19 8.48-0.04Q8.06 0.10 7.53 0.10L7.53 0.10ZM7.88-0.56Q8.73-0.56 9.39-1.13L9.39-1.13L9.93-3.71Q9.72-3.94 9.44-4.06Q9.16-4.18 8.75-4.18L8.75-4.18Q7.12-4.18 6.71-2.23L6.71-2.23Q6.62-1.81 6.62-1.50L6.62-1.50Q6.62-0.99 6.91-0.78Q7.20-0.56 7.88-0.56L7.88-0.56ZM11.37 0L12.37-4.74L13.11-4.74L13.05-4.20Q13.97-4.84 15.02-4.84L15.02-4.84Q16.43-4.84 16.43-3.65L16.43-3.65Q16.43-3.40 16.37-3.10L16.37-3.10L15.72 0L14.90 0L15.55-3.07Q15.61-3.34 15.61-3.53L15.61-3.53Q15.61-3.89 15.38-4.04Q15.16-4.18 14.60-4.18L14.60-4.18Q14.18-4.18 13.73-4.01Q13.28-3.85 12.95-3.58L12.95-3.58L12.19 0L11.37 0ZM18.36-5.85L18.52-6.60L19.43-6.60L19.27-5.85L18.36-5.85ZM17.20 0L18.06-4.09L17.33-4.09L17.55-4.74L19.02-4.74L18.02 0L17.20 0ZM21.13 0.10Q20.58 0.10 20.28-0.17Q19.98-0.43 19.98-0.92L19.98-0.92Q19.98-1.09 20.03-1.32L20.03-1.32L20.61-4.09L19.89-4.09L20.03-4.74L20.75-4.74L21-5.91L21.87-6.16L21.57-4.74L22.88-4.74L22.69-4.09L21.43-4.09L20.85-1.36Q20.81-1.20 20.81-1.04L20.81-1.04Q20.81-0.78 20.96-0.67Q21.12-0.56 21.47-0.56L21.47-0.56Q21.81-0.56 22.15-0.66L22.15-0.66L22.01-0.04Q21.61 0.10 21.13 0.10L21.13 0.10Z"/></svg>