<svg xmlns="http://www.w3.org/2000/svg" viewBox="-1.1520000000000001 51.327999999999996 559.008 49.392"><path d="M-1.15 100L8.64 53.63L24.12 53.63L21.02 68.32L36.22 53.63L53.71 53.63L33.62 72.78L45.22 100L28.80 100L22.03 82.58L16.99 87.26L14.33 100L-1.15 100ZM58.75 100.72Q52.92 100.72 49.57 97.62Q46.22 94.53 46.22 88.84L46.22 88.84Q46.22 86.54 46.73 84.30L46.73 84.30Q48.60 75.02 54.11 70.08Q59.62 65.15 67.25 65.15L67.25 65.15Q72.36 65.15 74.88 67.67L74.88 67.67L75.24 65.87L90.72 65.87L83.52 100L70.13 100L69.91 97.55Q67.46 99.14 64.80 99.93Q62.14 100.72 58.75 100.72L58.75 100.72ZM66.02 89.63Q68.98 89.63 70.56 88.05L70.56 88.05L72.72 77.75Q71.64 76.31 69.26 76.31L69.26 76.31Q66.60 76.31 64.98 78.33Q63.36 80.34 62.50 84.30L62.50 84.30Q62.21 86.03 62.21 86.46L62.21 86.46Q62.21 88.19 63.14 88.91Q64.08 89.63 66.02 89.63L66.02 89.63ZM89.28 100L96.48 65.87L110.95 65.87L110.81 68.18Q113.11 66.88 116.57 66.02Q120.02 65.15 123.48 65.15L123.48 65.15Q128.38 65.15 130.82 67.38Q133.27 69.62 133.27 73.94L133.27 73.94Q133.27 75.45 132.77 78.11L132.77 78.11L128.16 100L112.68 100L116.93 79.91Q117.07 78.90 117.07 78.69L117.07 78.69Q117.07 77.54 116.42 77.07Q115.78 76.60 114.34 76.60L114.34 76.60Q113.04 76.60 111.64 77.14Q110.23 77.68 109.30 78.54L109.30 78.54L104.76 100L89.28 100ZM145.22 62.20L147.53 51.33L164.16 51.33L161.86 62.20L145.22 62.20ZM138.38 100L143.21 77.10L138.38 77.10L142.06 65.87L161.06 65.87L153.86 100L138.38 100ZM174.60 100.72Q169.06 100.72 166.14 98.09Q163.22 95.46 163.22 90.86L163.22 90.86Q163.22 89.20 163.66 87.26L163.66 87.26L165.82 77.18L161.57 77.18L163.94 65.87L168.19 65.87L169.63 59.03L185.83 55.65L183.67 65.87L191.09 65.87L188.28 77.18L181.30 77.18L179.35 86.32Q179.21 87.33 179.21 87.62L179.21 87.62Q179.21 88.77 180 89.27Q180.79 89.78 182.52 89.78L182.52 89.78Q184.61 89.78 186.98 89.06L186.98 89.06L184.82 98.99Q180.29 100.72 174.60 100.72L174.60 100.72ZM229.68 100.72Q220.90 100.72 216.29 97.66Q211.68 94.60 211.68 89.27L211.68 89.27Q211.68 87.90 212.04 86.25L212.04 86.25Q212.69 83.15 214.74 80.31Q216.79 77.46 219.53 76.02L219.53 76.02Q218.30 74.80 217.62 73.04Q216.94 71.27 216.94 69.40L216.94 69.40Q216.94 68.32 217.15 67.38L217.15 67.38Q218.66 60.40 224.06 56.66Q229.46 52.91 239.90 52.91L239.90 52.91Q248.04 52.91 252.50 56.01Q256.97 59.10 256.97 64.43L256.97 64.43Q256.97 65.73 256.61 67.38L256.61 67.38Q256.03 69.98 254.41 72.39Q252.79 74.80 250.42 76.31L250.42 76.31Q252.14 77.54 253.04 79.52Q253.94 81.50 253.94 83.87L253.94 83.87Q253.94 85.02 253.73 86.25L253.73 86.25Q252.14 93.66 246.60 97.19Q241.06 100.72 229.68 100.72L229.68 100.72ZM237.53 72.21Q239.47 71.49 240.48 70.48Q241.49 69.47 241.85 67.74L241.85 67.74Q241.99 66.88 241.99 66.59L241.99 66.59Q241.99 65.15 240.95 64.47Q239.90 63.78 237.53 63.78L237.53 63.78Q234.86 63.78 233.53 64.76Q232.20 65.73 231.77 67.74L231.77 67.74Q231.62 68.46 231.62 68.75L231.62 68.75Q231.62 69.83 232.24 70.55Q232.85 71.27 234 71.49L234 71.49L237.53 72.21ZM231.98 89.92Q235.37 89.92 237.02 88.91Q238.68 87.90 239.11 85.89L239.11 85.89Q239.26 85.17 239.26 84.95L239.26 84.95Q239.26 82.65 235.87 81.86L235.87 81.86L231.55 80.92Q229.32 81.42 228.02 82.94Q226.73 84.45 226.73 86.75L226.73 86.75Q226.73 88.34 227.95 89.13Q229.18 89.92 231.98 89.92L231.98 89.92ZM276.26 100.72Q267.26 100.72 262.51 96.44Q257.76 92.15 257.76 84.09L257.76 84.09Q257.76 80.78 258.62 76.82L258.62 76.82Q261.14 64.79 267.66 58.85Q274.18 52.91 286.49 52.91L286.49 52.91Q295.56 52.91 300.31 57.16Q305.06 61.41 305.06 69.47L305.06 69.47Q305.06 72.78 304.20 76.82L304.20 76.82Q301.61 88.91 295.16 94.82Q288.72 100.72 276.26 100.72L276.26 100.72ZM279.07 87.54Q282.89 87.54 285.05 84.95Q287.21 82.36 288.36 76.82L288.36 76.82Q289.15 73.22 289.15 71.13L289.15 71.13Q289.15 68.46 287.89 67.28Q286.63 66.09 283.68 66.09L283.68 66.09Q279.86 66.09 277.70 68.72Q275.54 71.34 274.39 76.82L274.39 76.82Q273.67 80.42 273.67 82.29L273.67 82.29Q273.67 85.02 274.93 86.28Q276.19 87.54 279.07 87.54L279.07 87.54ZM324.72 100.72Q315.72 100.72 310.97 96.44Q306.22 92.15 306.22 84.09L306.22 84.09Q306.22 80.78 307.08 76.82L307.08 76.82Q309.60 64.79 316.12 58.85Q322.63 52.91 334.94 52.91L334.94 52.91Q344.02 52.91 348.77 57.16Q353.52 61.41 353.52 69.47L353.52 69.47Q353.52 72.78 352.66 76.82L352.66 76.82Q350.06 88.91 343.62 94.82Q337.18 100.72 324.72 100.72L324.72 100.72ZM327.53 87.54Q331.34 87.54 333.50 84.95Q335.66 82.36 336.82 76.82L336.82 76.82Q337.61 73.22 337.61 71.13L337.61 71.13Q337.61 68.46 336.35 67.28Q335.09 66.09 332.14 66.09L332.14 66.09Q328.32 66.09 326.16 68.72Q324 71.34 322.85 76.82L322.85 76.82Q322.13 80.42 322.13 82.29L322.13 82.29Q322.13 85.02 323.39 86.28Q324.65 87.54 327.53 87.54L327.53 87.54ZM386.78 62.20L389.09 51.33L405.72 51.33L403.42 62.20L386.78 62.20ZM379.94 100L384.77 77.10L379.94 77.10L383.62 65.87L402.62 65.87L395.42 100L379.94 100ZM416.16 100.72Q410.62 100.72 407.70 98.09Q404.78 95.46 404.78 90.86L404.78 90.86Q404.78 89.20 405.22 87.26L405.22 87.26L407.38 77.18L403.13 77.18L405.50 65.87L409.75 65.87L411.19 59.03L427.39 55.65L425.23 65.87L432.65 65.87L429.84 77.18L422.86 77.18L420.91 86.32Q420.77 87.33 420.77 87.62L420.77 87.62Q420.77 88.77 421.56 89.27Q422.35 89.78 424.08 89.78L424.08 89.78Q426.17 89.78 428.54 89.06L428.54 89.06L426.38 98.99Q421.85 100.72 416.16 100.72L416.16 100.72ZM440.50 100.72Q434.66 100.72 431.32 97.62Q427.97 94.53 427.97 88.84L427.97 88.84Q427.97 86.54 428.47 84.30L428.47 84.30Q430.34 75.02 435.85 70.08Q441.36 65.15 448.99 65.15L448.99 65.15Q454.10 65.15 456.62 67.67L456.62 67.67L456.98 65.87L472.46 65.87L465.26 100L451.87 100L451.66 97.55Q449.21 99.14 446.54 99.93Q443.88 100.72 440.50 100.72L440.50 100.72ZM447.77 89.63Q450.72 89.63 452.30 88.05L452.30 88.05L454.46 77.75Q453.38 76.31 451.01 76.31L451.01 76.31Q448.34 76.31 446.72 78.33Q445.10 80.34 444.24 84.30L444.24 84.30Q443.95 86.03 443.95 86.46L443.95 86.46Q443.95 88.19 444.89 88.91Q445.82 89.63 447.77 89.63L447.77 89.63ZM483.41 100.72Q472.97 100.72 472.97 92.44L472.97 92.44Q472.97 90.57 473.33 89.06L473.33 89.06L481.32 51.47L496.80 51.47L489.24 87.11Q489.10 87.98 489.10 88.34L489.10 88.34Q489.10 89.13 489.60 89.45Q490.10 89.78 491.26 89.78L491.26 89.78Q493.34 89.78 494.86 89.20L494.86 89.20L492.77 99.06Q490.46 100 488.45 100.36Q486.43 100.72 483.41 100.72L483.41 100.72ZM504.14 62.20L506.45 51.33L523.08 51.33L520.78 62.20L504.14 62.20ZM497.30 100L502.13 77.10L497.30 77.10L500.98 65.87L519.98 65.87L512.78 100L497.30 100ZM537.62 100.72Q530.06 100.72 525.17 97.23Q520.27 93.74 520.27 87.11L520.27 87.11Q520.27 85.10 520.70 82.94L520.70 82.94Q522.65 74.01 528.84 69.58Q535.03 65.15 545.11 65.15L545.11 65.15Q549.14 65.15 552.20 65.73Q555.26 66.30 557.86 67.60L557.86 67.60L555.55 78.40Q551.59 76.31 546.19 76.31L546.19 76.31Q541.94 76.31 539.57 77.82Q537.19 79.34 536.47 82.94L536.47 82.94Q536.18 84.09 536.18 85.24L536.18 85.24Q536.18 87.54 537.84 88.55Q539.50 89.56 543.46 89.56L543.46 89.56Q548.50 89.56 553.90 87.04L553.90 87.04L551.45 98.34Q545.62 100.72 537.62 100.72L537.62 100.72Z"/></svg>