<svg xmlns="http://www.w3.org/2000/svg" viewBox="1.7280000000000002 51.471999999999994 478.296 49.248000000000005"><path d="M2 100L12 54L14 54L8 80L39 54L42 54L20 72L32 100L30 100L18 73L7 83L4 100L2 100ZM51 101Q39 101 39 90L39 90Q39 87 39 84L39 84Q41 75 47 70Q52 65 59 65L59 65Q63 65 66 66Q68 67 70 69L70 69L71 66L73 66L66 100L64 100L65 96Q62 98 58 100Q55 101 51 101L51 101ZM52 99Q56 99 59 98Q62 96 65 94L65 94L70 71Q68 69 66 68Q63 67 60 67L60 67Q53 67 48 71Q43 76 41 84L41 84Q41 87 41 90L41 90Q41 95 43 97Q46 99 52 99L52 99ZM77 100L85 66L86 66L86 70Q89 68 93 66Q97 65 101 65L101 65Q106 65 109 67Q111 69 111 73L111 73Q111 75 111 77L111 77L106 100L104 100L109 77Q109 75 109 73L109 73Q109 70 107 68Q105 67 100 67L100 67Q92 67 85 73L85 73L79 100L77 100ZM127 56L128 53L130 53L129 56L127 56ZM118 100L125 68L119 68L120 66L127 66L120 100L118 100ZM143 101Q139 101 138 99Q136 97 136 94L136 94Q136 93 136 92L136 92L141 68L136 68L136 66L142 66L144 56L146 56L144 66L154 66L153 68L143 68L138 92Q138 93 138 94L138 94Q138 97 139 98Q141 99 144 99L144 99Q146 99 148 98L148 98L148 100Q145 101 143 101L143 101ZM196 101Q193 101 191 99Q189 97 189 94L189 94Q189 93 190 92L190 92L195 68L189 68L189 66L195 66L197 56L199 56L197 66L207 66L207 68L197 68L192 92Q191 93 191 94L191 94Q191 97 193 98Q194 99 197 99L197 99Q199 99 201 98L201 98L201 100Q199 101 196 101L196 101ZM210 100L220 51L222 51L218 70Q221 68 225 66Q229 65 233 65L233 65Q238 65 241 67Q243 69 243 73L243 73Q243 75 243 77L243 77L238 100L236 100L241 77Q241 75 241 73L241 73Q241 70 239 68Q237 67 232 67L232 67Q225 67 218 73L218 73L212 100L210 100ZM259 56L260 53L262 53L262 56L259 56ZM250 100L257 68L252 68L252 66L260 66L252 100L250 100ZM264 100L271 66L273 66L272 70Q276 68 279 66Q283 65 288 65L288 65Q293 65 295 67Q298 69 298 73L298 73Q298 75 297 77L297 77L292 100L290 100L295 77Q296 75 296 73L296 73Q296 70 294 68Q291 67 286 67L286 67Q279 67 272 73L272 73L266 100L264 100ZM347 56L347 53L350 53L349 56L347 56ZM338 100L345 68L339 68L340 66L347 66L340 100L338 100ZM362 101Q359 101 357 99Q355 97 355 94L355 94Q355 93 356 92L356 92L361 68L355 68L356 66L361 66L363 56L365 56L363 66L373 66L373 68L363 68L358 92Q357 93 357 94L357 94Q357 97 359 98Q360 99 363 99L363 99Q365 99 368 98L368 98L367 100Q365 101 362 101L362 101ZM387 101Q375 101 375 90L375 90Q375 87 375 84L375 84Q377 75 383 70Q388 65 395 65L395 65Q399 65 401 66Q404 67 406 69L406 69L407 66L409 66L402 100L400 100L401 96Q398 98 394 100Q391 101 387 101L387 101ZM388 99Q391 99 395 98Q398 96 401 94L401 94L406 71Q404 69 402 68Q399 67 395 67L395 67Q389 67 384 71Q379 76 377 84L377 84Q377 87 377 90L377 90Q377 95 379 97Q382 99 388 99L388 99ZM418 101Q416 101 415 100Q414 99 414 97L414 97Q414 96 415 94L415 94L424 51L426 51L416 95Q416 96 416 97L416 97Q416 98 417 98Q417 99 419 99L419 99Q420 99 422 98L422 98L421 100Q420 101 418 101L418 101ZM444 56L445 53L447 53L447 56L444 56ZM435 100L442 68L437 68L437 66L444 66L437 100L435 100ZM463 101Q450 101 450 89L450 89Q450 86 451 83L451 83Q453 74 458 70Q464 65 472 65L472 65Q475 65 477 66Q478 66 480 67L480 67L480 69Q478 68 476 67Q474 67 472 67L472 67Q464 67 459 71Q455 75 453 83L453 83Q452 87 452 89L452 89Q452 94 455 97Q458 99 464 99L464 99Q469 99 474 97L474 97L473 99Q469 101 463 101L463 101Z"/></svg>