<svg xmlns="http://www.w3.org/2000/svg" viewBox="-0.792 51.471999999999994 558.3600000000002 49.248000000000005"><path d="M-1 100L9 54L23 54L19 70L37 54L52 54L32 73L43 100L29 100L21 81L16 87L13 100L-1 100ZM58 101Q52 101 48 98Q45 95 45 89L45 89Q45 87 46 84L46 84Q47 78 50 74Q53 70 57 67Q61 65 66 65L66 65Q69 65 71 66Q73 66 74 68L74 68L75 66L88 66L81 100L69 100L69 97Q64 101 58 101L58 101ZM64 91Q66 91 67 90Q69 90 70 89L70 89L72 77Q71 75 68 75L68 75Q61 75 59 84L59 84Q59 86 59 87L59 87Q59 89 60 90Q61 91 64 91L64 91ZM87 100L95 66L107 66L107 68Q110 67 113 66Q116 65 120 65L120 65Q130 65 130 74L130 74Q130 76 129 78L129 78L125 100L111 100L116 79Q116 79 116 78L116 78Q116 76 115 76Q114 75 112 75L112 75Q111 75 109 76Q107 77 106 78L106 78L101 100L87 100ZM143 61L145 52L160 52L158 61L143 61ZM136 100L141 76L136 76L139 66L157 66L149 100L136 100ZM170 101Q165 101 162 98Q160 96 160 92L160 92Q160 90 160 88L160 88L163 76L158 76L160 66L165 66L166 59L180 56L178 66L186 66L183 76L176 76L174 87Q174 88 174 88L174 88Q174 90 174 90Q175 91 177 91L177 91Q179 91 182 90L182 90L180 99Q176 101 170 101L170 101ZM230 101Q227 101 225 100Q222 99 221 97L221 97L219 100L208 100L218 51L232 51L228 67Q230 66 233 66Q235 65 237 65L237 65Q244 65 247 68Q251 71 251 77L251 77Q251 80 250 83L250 83Q246 101 230 101L230 101ZM228 91Q232 91 233 89Q235 87 236 83L236 83Q237 81 237 79L237 79Q237 77 235 76Q234 75 232 75L232 75Q229 75 226 77L226 77L224 89Q225 91 228 91L228 91ZM268 101Q260 101 256 97Q251 94 251 88L251 88Q251 85 252 83L252 83Q254 74 259 70Q265 65 275 65L275 65Q284 65 288 69Q292 72 292 78L292 78Q292 81 292 83L292 83Q288 101 268 101L268 101ZM270 91Q273 91 275 89Q277 87 278 83L278 83Q278 81 278 79L278 79Q278 77 277 76Q276 75 273 75L273 75Q270 75 268 77Q266 79 266 83L266 83Q265 85 265 87L265 87Q265 89 266 90Q267 91 270 91L270 91ZM305 101Q300 101 297 99Q295 97 295 93L295 93Q295 92 295 90L295 90L304 51L317 51L309 88Q309 89 309 89L309 89Q309 90 310 90Q310 91 311 91L311 91Q313 91 315 90L315 90L313 99Q311 100 309 100Q307 101 305 101L305 101ZM327 101Q321 101 318 98Q314 95 314 89L314 89Q314 86 315 83L315 83Q317 74 322 70Q327 65 335 65L335 65Q338 65 340 66Q342 66 344 67L344 67L347 51L361 51L350 100L338 100L338 97Q333 101 327 101L327 101ZM333 91Q336 91 339 89L339 89L342 77Q340 75 337 75L337 75Q334 75 332 77Q330 79 329 83L329 83Q328 85 328 87L328 87Q328 89 330 90Q331 91 333 91L333 91ZM393 61L395 52L410 52L408 61L393 61ZM386 100L391 76L386 76L390 66L407 66L400 100L386 100ZM421 101Q415 101 413 98Q410 96 410 92L410 92Q410 90 410 88L410 88L413 76L408 76L410 66L415 66L416 59L431 56L428 66L436 66L434 76L426 76L424 87Q424 88 424 88L424 88Q424 90 425 90Q426 91 428 91L428 91Q430 91 432 90L432 90L430 99Q426 101 421 101L421 101ZM445 101Q439 101 436 98Q432 95 432 89L432 89Q432 87 433 84L433 84Q434 78 437 74Q440 70 444 67Q449 65 454 65L454 65Q456 65 458 66Q460 66 462 68L462 68L462 66L475 66L468 100L456 100L456 97Q451 101 445 101L445 101ZM451 91Q453 91 454 90Q456 90 457 89L457 89L460 77Q458 75 455 75L455 75Q449 75 447 84L447 84Q446 86 446 87L446 87Q446 89 447 90Q449 91 451 91L451 91ZM486 101Q481 101 479 99Q476 97 476 93L476 93Q476 92 477 90L477 90L485 51L499 51L491 88Q491 89 491 89L491 89Q491 90 491 90Q492 91 493 91L493 91Q495 91 496 90L496 90L495 99Q492 100 491 100Q489 101 486 101L486 101ZM507 61L509 52L523 52L521 61L507 61ZM499 100L505 76L500 76L503 66L520 66L513 100L499 100ZM538 101Q530 101 526 97Q521 94 521 87L521 87Q521 85 522 83L522 83Q525 65 545 65L545 65Q549 65 552 66Q555 66 558 68L558 68L556 77Q552 75 546 75L546 75Q542 75 539 77Q536 79 535 83L535 83Q535 84 535 86L535 86Q535 88 537 90Q539 91 543 91L543 91Q548 91 553 88L553 88L551 98Q545 101 538 101L538 101Z"/></svg>