<svg xmlns="http://www.w3.org/2000/svg" viewBox="2.5200000000000005 51.471999999999994 685.3680000000002 61.2"><path d="M2.52 100L12.31 53.63L16.27 53.63L11.09 78.26L39.82 53.63L44.64 53.63L23.11 72.06L35.28 100L30.96 100L20.09 74.66L10.01 83.37L6.48 100L2.52 100ZM53.57 100.72Q41.18 100.72 41.18 89.70L41.18 89.70Q41.18 87.18 41.83 84.09L41.83 84.09Q43.78 75.02 49.21 70.08Q54.65 65.15 61.85 65.15L61.85 65.15Q65.38 65.15 67.79 65.98Q70.20 66.81 72.43 68.75L72.43 68.75L73.01 65.87L76.97 65.87L69.77 100L66.46 100L66.89 96.18Q63.86 98.49 60.66 99.60Q57.46 100.72 53.57 100.72L53.57 100.72ZM55.22 97.48Q61.99 97.48 67.32 92.87L67.32 92.87L71.71 72.21Q69.91 70.34 67.75 69.40Q65.59 68.46 62.35 68.46L62.35 68.46Q55.94 68.46 51.62 72.50Q47.30 76.53 45.72 84.09L45.72 84.09Q45.07 87.11 45.07 89.42L45.07 89.42Q45.07 93.74 47.48 95.61Q49.90 97.48 55.22 97.48L55.22 97.48ZM78.19 100L85.39 65.87L88.85 65.87L88.34 70.05Q95.18 65.15 103.18 65.15L103.18 65.15Q113.18 65.15 113.18 73.50L113.18 73.50Q113.18 75.30 112.75 77.46L112.75 77.46L108.00 100L104.04 100L108.79 77.54Q109.30 75.30 109.30 73.50L109.30 73.50Q109.30 70.77 107.57 69.62Q105.84 68.46 101.59 68.46L101.59 68.46Q97.92 68.46 94.25 69.80Q90.58 71.13 87.77 73.43L87.77 73.43L82.15 100L78.19 100ZM127.30 57.02L128.23 52.70L132.77 52.70L131.83 57.02L127.30 57.02ZM118.73 100L125.21 69.18L119.88 69.18L121.03 65.87L129.89 65.87L122.69 100L118.73 100ZM145.22 100.72Q141.48 100.72 139.50 98.96Q137.52 97.19 137.52 93.95L137.52 93.95Q137.52 92.80 137.88 91.14L137.88 91.14L142.49 69.18L137.16 69.18L137.88 65.87L143.21 65.87L145.15 56.94L149.33 55.65L147.17 65.87L157.03 65.87L156.10 69.18L146.45 69.18L141.84 91Q141.48 92.66 141.48 93.66L141.48 93.66Q141.48 95.82 142.81 96.65Q144.14 97.48 147.10 97.48L147.10 97.48Q149.11 97.48 151.49 96.69L151.49 96.69L150.84 99.86Q148.25 100.72 145.22 100.72L145.22 100.72ZM202.82 100.72Q195.34 100.72 191.81 97.88Q188.28 95.03 188.28 89.13L188.28 89.13Q188.28 86.46 189.07 82.72L189.07 82.72Q192.74 65.15 208.51 65.15L208.51 65.15Q214.42 65.15 217.30 67.85Q220.18 70.55 220.18 75.09L220.18 75.09Q220.18 76.89 219.74 78.83L219.74 78.83L218.45 85.02L192.53 85.02Q192.10 87.40 192.10 89.34L192.10 89.34Q192.10 93.74 194.90 95.61Q197.71 97.48 204.34 97.48L204.34 97.48Q209.09 97.48 213.91 95.68L213.91 95.68L213.26 98.92Q208.44 100.72 202.82 100.72L202.82 100.72ZM193.18 81.93L215.50 81.93L216.14 78.69Q216.58 76.74 216.58 75.02L216.58 75.02Q216.58 71.78 214.56 70.12Q212.54 68.46 207.94 68.46L207.94 68.46Q201.46 68.46 198.04 71.81Q194.62 75.16 193.18 81.93L193.18 81.93ZM218.88 100L235.44 82.65L226.44 65.87L230.76 65.87L238.10 79.91L251.42 65.87L255.67 65.87L239.83 82.65L248.98 100L244.66 100L236.95 85.31L223.13 100L218.88 100ZM268.20 100.72Q264.46 100.72 262.48 98.96Q260.50 97.19 260.50 93.95L260.50 93.95Q260.50 92.80 260.86 91.14L260.86 91.14L265.46 69.18L260.14 69.18L260.86 65.87L266.18 65.87L268.13 56.94L272.30 55.65L270.14 65.87L280.01 65.87L279.07 69.18L269.42 69.18L264.82 91Q264.46 92.66 264.46 93.66L264.46 93.66Q264.46 95.82 265.79 96.65Q267.12 97.48 270.07 97.48L270.07 97.48Q272.09 97.48 274.46 96.69L274.46 96.69L273.82 99.86Q271.22 100.72 268.20 100.72L268.20 100.72ZM281.74 100L288.94 65.87L292.39 65.87L291.82 70.62Q294.84 68.82 298.55 67.38Q302.26 65.94 305.78 65.15L305.78 65.15L305.14 68.39Q301.75 69.18 297.72 70.73Q293.69 72.28 291.24 73.79L291.24 73.79L285.70 100L281.74 100ZM315.65 100.72Q303.26 100.72 303.26 89.70L303.26 89.70Q303.26 87.18 303.91 84.09L303.91 84.09Q305.86 75.02 311.29 70.08Q316.73 65.15 323.93 65.15L323.93 65.15Q327.46 65.15 329.87 65.98Q332.28 66.81 334.51 68.75L334.51 68.75L335.09 65.87L339.05 65.87L331.85 100L328.54 100L328.97 96.18Q325.94 98.49 322.74 99.60Q319.54 100.72 315.65 100.72L315.65 100.72ZM317.30 97.48Q324.07 97.48 329.40 92.87L329.40 92.87L333.79 72.21Q331.99 70.34 329.83 69.40Q327.67 68.46 324.43 68.46L324.43 68.46Q318.02 68.46 313.70 72.50Q309.38 76.53 307.80 84.09L307.80 84.09Q307.15 87.11 307.15 89.42L307.15 89.42Q307.15 93.74 309.56 95.61Q311.98 97.48 317.30 97.48L317.30 97.48ZM374.47 100.72Q371.95 100.72 370.69 99.68Q369.43 98.63 369.43 96.18L369.43 96.18Q369.43 94.82 369.72 93.45L369.72 93.45L378.65 51.47L382.61 51.47L373.68 93.30Q373.39 94.89 373.39 95.32L373.39 95.32Q373.39 96.47 373.97 96.90Q374.54 97.34 375.84 97.34L375.84 97.34Q377.42 97.34 379.15 96.90L379.15 96.90L378.43 100.22Q376.85 100.72 374.47 100.72L374.47 100.72ZM399.24 57.02L400.18 52.70L404.71 52.70L403.78 57.02L399.24 57.02ZM390.67 100L397.15 69.18L391.82 69.18L392.98 65.87L401.83 65.87L394.63 100L390.67 100ZM417.38 112.67Q415.44 112.67 412.99 112.46Q410.54 112.24 409.32 111.95L409.32 111.95L410.04 108.50Q411.41 108.93 413.53 109.14Q415.66 109.36 417.38 109.36L417.38 109.36Q423.00 109.36 426.64 107.13Q430.27 104.90 431.21 100.58L431.21 100.58L432.07 96.47Q429.19 98.34 426.24 99.17Q423.29 100 419.62 100L419.62 100Q413.64 100 410.33 97.26Q407.02 94.53 407.02 88.70L407.02 88.70Q407.02 86.25 407.66 83.01L407.66 83.01Q409.54 73.86 414.40 69.51Q419.26 65.15 426.67 65.15L426.67 65.15Q430.56 65.15 433.30 66.27Q436.03 67.38 438.05 69.76L438.05 69.76L439.20 65.87L442.51 65.87L435.24 100.22Q434.02 105.98 429.30 109.32Q424.58 112.67 417.38 112.67L417.38 112.67ZM421.27 96.76Q427.68 96.76 432.79 92.94L432.79 92.94L437.04 73.07Q433.66 68.46 426.96 68.46L426.96 68.46Q420.48 68.46 416.77 72.03Q413.06 75.59 411.55 83.01L411.55 83.01Q410.83 86.61 410.83 88.55L410.83 88.55Q410.83 92.94 413.32 94.85Q415.80 96.76 421.27 96.76L421.27 96.76ZM444.53 100L454.82 51.47L458.78 51.47L454.82 69.98Q458.06 67.67 461.63 66.41Q465.19 65.15 469.51 65.15L469.51 65.15Q479.52 65.15 479.52 73.50L479.52 73.50Q479.52 75.30 479.09 77.46L479.09 77.46L474.34 100L470.38 100L475.13 77.54Q475.56 75.45 475.56 73.86L475.56 73.86Q475.56 70.98 473.69 69.72Q471.82 68.46 467.35 68.46L467.35 68.46Q463.97 68.46 460.44 69.83Q456.91 71.20 454.10 73.50L454.10 73.50L448.49 100L444.53 100ZM496.44 100.72Q492.70 100.72 490.72 98.96Q488.74 97.19 488.74 93.95L488.74 93.95Q488.74 92.80 489.10 91.14L489.10 91.14L493.70 69.18L488.38 69.18L489.10 65.87L494.42 65.87L496.37 56.94L500.54 55.65L498.38 65.87L508.25 65.87L507.31 69.18L497.66 69.18L493.06 91Q492.70 92.66 492.70 93.66L492.70 93.66Q492.70 95.82 494.03 96.65Q495.36 97.48 498.31 97.48L498.31 97.48Q500.33 97.48 502.70 96.69L502.70 96.69L502.06 99.86Q499.46 100.72 496.44 100.72L496.44 100.72ZM551.23 57.02L552.17 52.70L556.70 52.70L555.77 57.02L551.23 57.02ZM542.66 100L549.14 69.18L543.82 69.18L544.97 65.87L553.82 65.87L546.62 100L542.66 100ZM569.16 100.72Q565.42 100.72 563.44 98.96Q561.46 97.19 561.46 93.95L561.46 93.95Q561.46 92.80 561.82 91.14L561.82 91.14L566.42 69.18L561.10 69.18L561.82 65.87L567.14 65.87L569.09 56.94L573.26 55.65L571.10 65.87L580.97 65.87L580.03 69.18L570.38 69.18L565.78 91Q565.42 92.66 565.42 93.66L565.42 93.66Q565.42 95.82 566.75 96.65Q568.08 97.48 571.03 97.48L571.03 97.48Q573.05 97.48 575.42 96.69L575.42 96.69L574.78 99.86Q572.18 100.72 569.16 100.72L569.16 100.72ZM593.78 100.72Q581.40 100.72 581.40 89.70L581.40 89.70Q581.40 87.18 582.05 84.09L582.05 84.09Q583.99 75.02 589.43 70.08Q594.86 65.15 602.06 65.15L602.06 65.15Q605.59 65.15 608.00 65.98Q610.42 66.81 612.65 68.75L612.65 68.75L613.22 65.87L617.18 65.87L609.98 100L606.67 100L607.10 96.18Q604.08 98.49 600.88 99.60Q597.67 100.72 593.78 100.72L593.78 100.72ZM595.44 97.48Q602.21 97.48 607.54 92.87L607.54 92.87L611.93 72.21Q610.13 70.34 607.97 69.40Q605.81 68.46 602.57 68.46L602.57 68.46Q596.16 68.46 591.84 72.50Q587.52 76.53 585.94 84.09L585.94 84.09Q585.29 87.11 585.29 89.42L585.29 89.42Q585.29 93.74 587.70 95.61Q590.11 97.48 595.44 97.48L595.44 97.48ZM624.53 100.72Q622.01 100.72 620.75 99.68Q619.49 98.63 619.49 96.18L619.49 96.18Q619.49 94.82 619.78 93.45L619.78 93.45L628.70 51.47L632.66 51.47L623.74 93.30Q623.45 94.89 623.45 95.32L623.45 95.32Q623.45 96.47 624.02 96.90Q624.60 97.34 625.90 97.34L625.90 97.34Q627.48 97.34 629.21 96.90L629.21 96.90L628.49 100.22Q626.90 100.72 624.53 100.72L624.53 100.72ZM649.30 57.02L650.23 52.70L654.77 52.70L653.83 57.02L649.30 57.02ZM640.73 100L647.21 69.18L641.88 69.18L643.03 65.87L651.89 65.87L644.69 100L640.73 100ZM670.82 100.72Q663.98 100.72 660.53 97.59Q657.07 94.46 657.07 88.55L657.07 88.55Q657.07 85.96 657.72 82.94L657.72 82.94Q659.59 74.15 665.17 69.65Q670.75 65.15 678.96 65.15L678.96 65.15Q682.06 65.15 684.00 65.58Q685.94 66.02 687.89 67.02L687.89 67.02L687.17 70.26Q683.78 68.46 678.96 68.46L678.96 68.46Q672.12 68.46 667.66 72.03Q663.19 75.59 661.61 82.94L661.61 82.94Q660.89 86.54 660.89 88.62L660.89 88.62Q660.89 93.23 663.62 95.36Q666.36 97.48 672.48 97.48L672.48 97.48Q677.16 97.48 681.84 95.61L681.84 95.61L681.19 98.92Q676.44 100.72 670.82 100.72L670.82 100.72Z"/></svg>