<svg xmlns="http://www.w3.org/2000/svg" viewBox="3.24 51.471999999999994 348.19200000000006 49.248000000000005"><path d="M3 100L3 54L17 54L17 70L31 54L46 54L30 73L47 100L33 100L22 81L17 87L17 100L3 100ZM58 101Q53 101 50 98Q46 95 46 90L46 90Q46 84 50 81Q54 78 61 78L61 78L70 78L70 78Q70 76 68 75Q66 74 62 74L62 74Q56 74 50 76L50 76L50 68Q53 66 57 66Q61 65 65 65L65 65Q73 65 78 69Q83 72 83 79L83 79L83 100L71 100L70 97Q66 101 58 101L58 101ZM63 93Q67 93 70 90L70 90L70 86L63 86Q61 86 60 87Q59 88 59 89L59 89Q59 93 63 93L63 93ZM89 100L89 66L101 66L102 68Q104 67 107 66Q110 65 114 65L114 65Q120 65 123 68Q126 71 126 78L126 78L126 100L112 100L112 79Q112 77 111 76Q110 75 108 75L108 75Q106 75 105 76Q103 77 102 78L102 78L102 100L89 100ZM136 61L136 52L151 52L151 61L136 61ZM137 100L137 76L132 76L133 66L151 66L151 100L137 100ZM172 101Q165 101 162 97Q159 94 159 88L159 88L159 76L154 76L154 66L159 66L159 59L172 56L172 66L180 66L180 76L172 76L172 87Q172 89 173 90Q174 91 177 91L177 91Q179 91 181 90L181 90L181 99Q177 101 172 101L172 101ZM232 101Q228 101 226 100Q223 99 221 97L221 97L221 100L209 100L209 51L222 51L222 67Q224 66 227 66Q229 65 231 65L231 65Q248 65 248 83L248 83Q248 92 243 96Q239 101 232 101L232 101ZM228 91Q231 91 232 89Q234 87 234 83L234 83Q234 79 232 77Q231 75 228 75L228 75Q224 75 222 77L222 77L222 89Q225 91 228 91L228 91ZM269 101Q249 101 249 83L249 83Q249 74 254 70Q259 65 269 65L269 65Q279 65 284 70Q289 74 289 83L289 83Q289 101 269 101L269 101ZM269 91Q273 91 274 89Q276 87 276 83L276 83Q276 79 274 77Q273 75 269 75L269 75Q266 75 265 77Q263 79 263 83L263 83Q263 87 265 89Q266 91 269 91L269 91ZM306 101Q300 101 297 98Q294 95 294 90L294 90L294 51L308 51L308 88Q308 90 309 90Q309 91 311 91L311 91Q313 91 314 90L314 90L314 99Q312 100 311 100Q309 101 306 101L306 101ZM329 101Q321 101 317 97Q313 93 313 84L313 84Q313 78 315 74Q317 69 321 67Q325 65 329 65L329 65Q331 65 334 66Q336 66 338 67L338 67L338 51L351 51L351 100L340 100L339 97Q337 99 334 100Q332 101 329 101L329 101ZM333 91Q336 91 338 89L338 89L338 77Q336 75 333 75L333 75Q330 75 328 77Q327 80 327 84L327 84Q327 87 327 88Q328 90 329 90Q330 91 333 91L333 91Z"/></svg>