<svg xmlns="http://www.w3.org/2000/svg" viewBox="0.03 -6.63 23.33 6.7299999999999995"><path d="M0.03 0L1.39-6.44L2.48-6.44L1.85-3.48L5.22-6.44L6.48-6.44L3.56-3.84L5.22 0L4.06 0L2.73-3.15L1.57-2.13L1.12 0L0.03 0ZM7.56 0.10Q5.81 0.10 5.81-1.45L5.81-1.45Q5.81-1.75 5.89-2.18L5.89-2.18Q6.05-2.99 6.47-3.60Q6.90-4.20 7.49-4.52Q8.08-4.84 8.74-4.84L8.74-4.84Q9.17-4.84 9.47-4.74Q9.77-4.64 10.03-4.41L10.03-4.41L10.10-4.74L11.19-4.74L10.19 0L9.26 0L9.28-0.47Q8.89-0.17 8.48-0.04Q8.07 0.10 7.56 0.10L7.56 0.10ZM8.03-0.72Q8.76-0.72 9.35-1.22L9.35-1.22L9.85-3.57Q9.66-3.79 9.43-3.90Q9.20-4.01 8.86-4.01L8.86-4.01Q8.14-4.01 7.66-3.54Q7.18-3.06 6.99-2.17L6.99-2.17Q6.90-1.78 6.90-1.51L6.90-1.51Q6.90-1.07 7.16-0.90Q7.42-0.72 8.03-0.72L8.03-0.72ZM11.46 0L12.46-4.74L13.46-4.74L13.41-4.24Q13.81-4.51 14.29-4.67Q14.77-4.84 15.28-4.84L15.28-4.84Q16-4.84 16.37-4.52Q16.73-4.20 16.73-3.60L16.73-3.60Q16.73-3.36 16.67-3.07L16.67-3.07L16.02 0L14.94 0L15.58-3.02Q15.63-3.29 15.63-3.43L15.63-3.43Q15.63-3.75 15.43-3.88Q15.22-4.01 14.72-4.01L14.72-4.01Q14.35-4.01 13.96-3.86Q13.58-3.71 13.28-3.47L13.28-3.47L12.55 0L11.46 0ZM18.48-5.73L18.67-6.63L19.86-6.63L19.67-5.73L18.48-5.73ZM17.36 0L18.19-3.91L17.47-3.91L17.74-4.74L19.45-4.74L18.45 0L17.36 0ZM21.50 0.10Q20.88 0.10 20.57-0.18Q20.26-0.45 20.26-0.96L20.26-0.96Q20.26-1.14 20.31-1.41L20.31-1.41L20.84-3.89L20.14-3.89L20.32-4.74L21.02-4.74L21.25-5.83L22.40-6.16L22.10-4.74L23.36-4.74L23.11-3.89L21.92-3.89L21.41-1.47Q21.37-1.31 21.37-1.16L21.37-1.16Q21.37-0.91 21.52-0.82Q21.68-0.73 22.06-0.73L22.06-0.73Q22.34-0.73 22.65-0.83L22.65-0.83L22.49-0.06Q22.05 0.10 21.50 0.10L21.50 0.10Z"/></svg>