<svg xmlns="http://www.w3.org/2000/svg" viewBox="2.8800000000000003 51.327999999999996 346.17600000000004 49.392"><path d="M2.88 100L2.88 53.63L18.36 53.63L18.36 68.32L30.46 53.63L47.95 53.63L31.90 72.78L49.25 100L32.83 100L22.39 82.58L18.36 87.26L18.36 100L2.88 100ZM59.47 100.72Q54.22 100.72 50.83 97.95Q47.45 95.18 47.45 89.56L47.45 89.56Q47.45 83.94 51.08 80.99Q54.72 78.04 62.06 78.04L62.06 78.04L70.34 78.04L70.34 77.54Q70.34 74.58 63.50 74.58L63.50 74.58Q60.70 74.58 57.60 75.05Q54.50 75.52 51.70 76.38L51.70 76.38L51.70 67.67Q54.36 66.52 58.46 65.84Q62.57 65.15 66.60 65.15L66.60 65.15Q75.24 65.15 80.14 68.68Q85.03 72.21 85.03 79.34L85.03 79.34L85.03 100L71.50 100L70.85 97.41Q66.96 100.72 59.47 100.72L59.47 100.72ZM65.09 92.01Q68.33 92.01 70.34 89.85L70.34 89.85L70.34 86.18L65.45 86.18Q63.50 86.18 62.57 86.86Q61.63 87.54 61.63 89.13L61.63 89.13Q61.63 92.01 65.09 92.01L65.09 92.01ZM90.58 100L90.58 65.87L105.05 65.87L105.41 68.18Q107.42 66.88 110.70 66.02Q113.98 65.15 117.43 65.15L117.43 65.15Q123.62 65.15 126.54 68.32Q129.46 71.49 129.46 78.11L129.46 78.11L129.46 100L113.98 100L113.98 79.91Q113.98 78.11 113.18 77.36Q112.39 76.60 110.52 76.60L110.52 76.60Q109.37 76.60 108.11 77.18Q106.85 77.75 106.06 78.54L106.06 78.54L106.06 100L90.58 100ZM138.53 62.20L138.53 51.33L155.16 51.33L155.16 62.20L138.53 62.20ZM139.68 100L139.68 77.10L134.86 77.10L136.15 65.87L155.16 65.87L155.16 100L139.68 100ZM176.11 100.72Q168.98 100.72 165.64 97.23Q162.29 93.74 162.29 87.26L162.29 87.26L162.29 77.18L158.04 77.18L158.04 65.87L162.29 65.87L162.29 59.03L177.77 55.65L177.77 65.87L185.18 65.87L184.75 77.18L177.77 77.18L177.77 86.32Q177.77 88.12 178.70 88.95Q179.64 89.78 181.66 89.78L181.66 89.78Q183.82 89.78 185.98 89.06L185.98 89.06L185.98 98.99Q181.80 100.72 176.11 100.72L176.11 100.72ZM231.19 100.72Q220.54 100.72 215.50 97.12Q210.46 93.52 210.46 86.25L210.46 86.25Q210.46 83.08 211.90 80.27Q213.34 77.46 215.78 76.02L215.78 76.02Q213.77 74.44 212.65 72.17Q211.54 69.90 211.54 67.38L211.54 67.38Q211.54 60.47 216.29 56.69Q221.04 52.91 231.19 52.91L231.19 52.91Q250.99 52.91 250.99 67.38L250.99 67.38Q250.99 69.90 249.88 72.35Q248.76 74.80 246.74 76.31L246.74 76.31Q249.34 77.90 250.74 80.45Q252.14 83.01 252.14 86.25L252.14 86.25Q252.14 93.52 247.07 97.12Q241.99 100.72 231.19 100.72L231.19 100.72ZM232.92 72.21Q234.79 71.49 235.55 70.48Q236.30 69.47 236.30 67.74L236.30 67.74Q236.30 63.78 231.19 63.78L231.19 63.78Q226.22 63.78 226.22 67.74L226.22 67.74Q226.22 70.84 229.25 71.49L229.25 71.49L232.92 72.21ZM231.19 89.92Q237.46 89.92 237.46 85.89L237.46 85.89Q237.46 84.16 236.48 83.22Q235.51 82.29 233.35 81.86L233.35 81.86L228.82 80.92Q225.07 81.86 225.07 85.38L225.07 85.38Q225.07 87.69 226.55 88.80Q228.02 89.92 231.19 89.92L231.19 89.92ZM277.78 100.72Q265.90 100.72 260.46 94.71Q255.02 88.70 255.02 76.82L255.02 76.82Q255.02 64.94 260.46 58.92Q265.90 52.91 277.78 52.91L277.78 52.91Q289.73 52.91 295.16 58.92Q300.60 64.94 300.60 76.82L300.60 76.82Q300.60 88.70 295.16 94.71Q289.73 100.72 277.78 100.72L277.78 100.72ZM277.78 87.54Q281.59 87.54 283.18 84.95Q284.76 82.36 284.76 76.82L284.76 76.82Q284.76 71.27 283.18 68.68Q281.59 66.09 277.78 66.09L277.78 66.09Q273.96 66.09 272.38 68.68Q270.79 71.27 270.79 76.82L270.79 76.82Q270.79 82.36 272.38 84.95Q273.96 87.54 277.78 87.54L277.78 87.54ZM326.23 100.72Q314.35 100.72 308.92 94.71Q303.48 88.70 303.48 76.82L303.48 76.82Q303.48 64.94 308.92 58.92Q314.35 52.91 326.23 52.91L326.23 52.91Q338.18 52.91 343.62 58.92Q349.06 64.94 349.06 76.82L349.06 76.82Q349.06 88.70 343.62 94.71Q338.18 100.72 326.23 100.72L326.23 100.72ZM326.23 87.54Q330.05 87.54 331.63 84.95Q333.22 82.36 333.22 76.82L333.22 76.82Q333.22 71.27 331.63 68.68Q330.05 66.09 326.23 66.09L326.23 66.09Q322.42 66.09 320.83 68.68Q319.25 71.27 319.25 76.82L319.25 76.82Q319.25 82.36 320.83 84.95Q322.42 87.54 326.23 87.54L326.23 87.54Z"/></svg>