<svg xmlns="http://www.w3.org/2000/svg" viewBox="5.760000000000001 52.91199999999999 285.624 47.80800000000001"><path d="M5.76 100L5.76 53.63L7.78 53.63L7.78 79.91L33.26 53.63L36.00 53.63L18.22 71.99L36.22 100L33.91 100L16.78 73.36L7.78 82.65L7.78 100L5.76 100ZM51.98 100.72Q46.73 100.72 43.45 98.45Q40.18 96.18 40.18 91.36L40.18 91.36Q40.18 86.68 43.02 84.12Q45.86 81.57 52.42 81.57L52.42 81.57L66.02 81.57L66.02 77.18Q66.02 73.36 65.05 71.16Q64.08 68.97 61.60 67.96Q59.11 66.95 54.43 66.95L54.43 66.95Q48.96 66.95 43.99 68.75L43.99 68.75L43.99 66.88Q48.31 65.15 55.08 65.15L55.08 65.15Q61.92 65.15 64.98 67.92Q68.04 70.70 68.04 77.03L68.04 77.03L68.04 100L66.46 100L66.17 95.32Q63.65 98.13 60.26 99.42Q56.88 100.72 51.98 100.72L51.98 100.72ZM52.49 98.92Q57.02 98.92 60.26 97.55Q63.50 96.18 66.02 93.16L66.02 93.16L66.02 83.44L52.56 83.44Q46.73 83.44 44.42 85.38Q42.12 87.33 42.12 91.36L42.12 91.36Q42.12 98.92 52.49 98.92L52.49 98.92ZM79.20 100L79.20 65.87L80.86 65.87L81.22 70.34Q84.10 67.82 87.52 66.48Q90.94 65.15 95.62 65.15L95.62 65.15Q101.81 65.15 104.65 68.03Q107.50 70.91 107.50 77.18L107.50 77.18L107.50 100L105.48 100L105.48 77.18Q105.48 73.36 104.51 71.16Q103.54 68.97 101.16 67.96Q98.78 66.95 94.54 66.95L94.54 66.95Q90.65 66.95 87.30 68.46Q83.95 69.98 81.22 72.57L81.22 72.57L81.22 100L79.20 100ZM123.70 56.08L123.70 52.91L126.22 52.91L126.22 56.08L123.70 56.08ZM124.20 100L124.20 67.74L118.66 67.74L118.66 65.87L126.22 65.87L126.22 100L124.20 100ZM149.04 100.72Q145.01 100.72 142.70 98.34Q140.40 95.97 140.40 91.79L140.40 91.79L140.40 67.74L134.86 67.74L134.86 65.87L140.40 65.87L140.40 56.37L142.42 55.65L142.42 65.87L152.71 65.87L152.57 67.74L142.42 67.74L142.42 91.79Q142.42 95.32 144.18 97.12Q145.94 98.92 149.69 98.92L149.69 98.92Q151.42 98.92 153.72 98.13L153.72 98.13L153.72 100Q151.42 100.72 149.04 100.72L149.04 100.72ZM196.92 100L196.92 54.93L189.72 56.30L189.72 54.42L198.94 52.91L198.94 100L196.92 100ZM227.45 100.72Q218.16 100.72 213.59 94.60Q209.02 88.48 209.02 77.90L209.02 77.90Q209.02 65.58 213.23 59.25Q217.44 52.91 227.45 52.91L227.45 52.91Q237.46 52.91 241.67 59.25Q245.88 65.58 245.88 77.90L245.88 77.90Q245.88 88.48 241.31 94.60Q236.74 100.72 227.45 100.72L227.45 100.72ZM227.45 98.92Q235.94 98.92 239.94 93.16Q243.94 87.40 243.94 77.90L243.94 77.90Q243.94 66.38 240.19 60.54Q236.45 54.71 227.45 54.71L227.45 54.71Q218.45 54.71 214.70 60.51Q210.96 66.30 210.96 77.90L210.96 77.90Q210.96 87.40 214.96 93.16Q218.95 98.92 227.45 98.92L227.45 98.92ZM272.95 100.72Q263.66 100.72 259.09 94.60Q254.52 88.48 254.52 77.90L254.52 77.90Q254.52 65.58 258.73 59.25Q262.94 52.91 272.95 52.91L272.95 52.91Q282.96 52.91 287.17 59.25Q291.38 65.58 291.38 77.90L291.38 77.90Q291.38 88.48 286.81 94.60Q282.24 100.72 272.95 100.72L272.95 100.72ZM272.95 98.92Q281.45 98.92 285.44 93.16Q289.44 87.40 289.44 77.90L289.44 77.90Q289.44 66.38 285.70 60.54Q281.95 54.71 272.95 54.71L272.95 54.71Q263.95 54.71 260.21 60.51Q256.46 66.30 256.46 77.90L256.46 77.90Q256.46 87.40 260.46 93.16Q264.46 98.92 272.95 98.92L272.95 98.92Z"/></svg>