<svg xmlns="http://www.w3.org/2000/svg" viewBox="1.4400000000000002 51.471999999999994 527.1840000000001 61.2"><path d="M1 100L11 54L17 54L12 77L39 54L46 54L25 72L37 100L30 100L20 76L11 84L7 100L1 100ZM54 101Q42 101 42 90L42 90Q42 87 42 84L42 84Q44 78 47 74Q50 69 54 67Q58 65 62 65L62 65Q66 65 68 66Q70 67 73 68L73 68L73 66L79 66L72 100L67 100L67 96Q64 99 61 100Q58 101 54 101L54 101ZM57 96Q63 96 68 92L68 92L71 73Q70 72 68 71Q66 70 63 70L63 70Q51 70 48 84L48 84Q48 87 48 89L48 89Q48 93 50 94Q52 96 57 96L57 96ZM82 100L89 66L94 66L94 70Q101 65 108 65L108 65Q118 65 118 74L118 74Q118 76 118 78L118 78L113 100L107 100L112 78Q112 76 112 75L112 75Q112 72 111 71Q109 70 105 70L105 70Q102 70 99 71Q96 72 93 74L93 74L88 100L82 100ZM132 58L133 52L140 52L139 58L132 58ZM124 100L130 71L125 71L126 66L137 66L130 100L124 100ZM152 101Q148 101 146 99Q144 97 144 93L144 93Q144 92 144 90L144 90L148 71L143 71L144 66L149 66L151 57L157 56L155 66L165 66L163 71L154 71L150 90Q150 91 150 93L150 93Q150 94 151 95Q152 96 155 96L155 96Q157 96 159 95L159 95L158 100Q156 101 152 101L152 101ZM200 101Q197 101 196 99Q194 98 194 95L194 95Q194 94 195 93L195 93L203 51L209 51L201 92Q200 93 200 94L200 94Q200 95 201 95Q201 96 203 96L203 96Q204 96 206 95L206 95L205 100Q203 101 200 101L200 101ZM226 58L227 52L233 52L232 58L226 58ZM217 100L223 71L218 71L220 66L230 66L223 100L217 100ZM245 113Q243 113 241 112Q238 112 237 112L237 112L238 107Q239 107 241 108Q243 108 245 108L245 108Q251 108 254 106Q258 104 259 100L259 100L259 97Q254 100 247 100L247 100Q241 100 238 97Q235 94 235 88L235 88Q235 86 236 83L236 83Q237 74 242 69Q247 65 255 65L255 65Q258 65 261 66Q264 67 266 69L266 69L267 66L272 66L265 99Q263 106 258 109Q253 113 245 113L245 113ZM250 95Q256 95 260 92L260 92L264 74Q261 70 255 70L255 70Q249 70 246 73Q243 76 241 83L241 83Q241 86 241 88L241 88Q241 92 243 94Q245 95 250 95L250 95ZM275 100L285 51L291 51L287 70Q293 65 301 65L301 65Q306 65 309 67Q311 70 311 74L311 74Q311 76 311 78L311 78L306 100L300 100L305 78Q305 76 305 75L305 75Q305 72 303 71Q302 70 298 70L298 70Q295 70 292 71Q288 72 286 74L286 74L281 100L275 100ZM328 101Q324 101 322 99Q320 97 320 93L320 93Q320 92 320 90L320 90L324 71L319 71L320 66L325 66L327 57L333 56L331 66L341 66L339 71L330 71L326 90Q326 91 326 93L326 93Q326 94 327 95Q328 96 330 96L330 96Q333 96 335 95L335 95L334 100Q331 101 328 101L328 101ZM382 58L384 52L390 52L389 58L382 58ZM374 100L380 71L375 71L377 66L387 66L380 100L374 100ZM402 101Q398 101 396 99Q394 97 394 93L394 93Q394 92 394 90L394 90L399 71L393 71L394 66L400 66L401 57L408 56L406 66L415 66L414 71L405 71L400 90Q400 91 400 93L400 93Q400 94 401 95Q402 96 405 96L405 96Q407 96 410 95L410 95L409 100Q406 101 402 101L402 101ZM427 101Q415 101 415 90L415 90Q415 87 415 84L415 84Q417 78 420 74Q422 69 427 67Q431 65 435 65L435 65Q439 65 441 66Q443 67 446 68L446 68L446 66L452 66L445 100L440 100L440 96Q437 99 434 100Q431 101 427 101L427 101ZM430 96Q436 96 441 92L441 92L444 73Q443 72 441 71Q439 70 436 70L436 70Q424 70 421 84L421 84Q421 87 421 89L421 89Q421 93 423 94Q425 96 430 96L430 96ZM462 101Q459 101 458 99Q456 98 456 95L456 95Q456 94 456 93L456 93L465 51L471 51L462 92Q462 93 462 94L462 94Q462 95 463 95Q463 96 465 96L465 96Q466 96 468 95L468 95L467 100Q465 101 462 101L462 101ZM487 58L489 52L495 52L494 58L487 58ZM479 100L485 71L480 71L482 66L492 66L485 100L479 100ZM511 101Q504 101 500 97Q497 94 497 88L497 88Q497 85 497 83L497 83Q499 74 505 70Q510 65 519 65L519 65Q522 65 524 66Q527 66 529 67L529 67L528 72Q524 70 519 70L519 70Q513 70 509 73Q505 76 503 83L503 83Q502 86 502 88L502 88Q502 92 505 94Q508 96 513 96L513 96Q518 96 523 94L523 94L522 99Q517 101 511 101L511 101Z"/></svg>