<svg xmlns="http://www.w3.org/2000/svg" viewBox="2.5200000000000005 51.03999999999999 403.272 49.68000000000001"><path d="M3 100L3 54L20 54L20 67L30 54L50 54L34 73L51 100L33 100L23 84L20 88L20 100L3 100ZM61 101Q55 101 52 98Q49 95 49 89L49 89Q49 78 64 78L64 78L71 78L71 77Q71 76 70 76Q68 75 65 75L65 75Q62 75 59 76Q56 76 53 77L53 77L53 68Q56 67 60 66Q64 65 68 65L68 65Q77 65 83 69Q88 72 88 80L88 80L88 100L72 100L72 98Q68 101 61 101L61 101ZM67 91Q70 91 71 90L71 90L71 86L68 86Q66 86 65 87Q65 88 65 89L65 89Q65 91 67 91L67 91ZM92 100L92 66L109 66L109 68Q111 67 114 66Q118 65 121 65L121 65Q127 65 130 68Q133 71 133 78L133 78L133 100L115 100L115 80Q115 78 113 78L113 78Q112 78 111 78Q110 79 110 79L110 79L110 100L92 100ZM141 63L141 51L160 51L160 63L141 63ZM142 100L142 78L137 78L139 66L160 66L160 100L142 100ZM180 101Q166 101 166 87L166 87L166 78L162 78L162 66L166 66L166 59L183 56L183 66L190 66L190 78L183 78L183 86Q183 89 187 89L187 89Q189 89 191 88L191 88L191 99Q186 101 180 101L180 101ZM240 101Q237 101 235 100Q233 99 231 98L231 98L230 100L215 100L215 51L232 51L232 66Q234 66 236 66Q238 65 240 65L240 65Q248 65 252 69Q256 73 256 83L256 83Q256 92 252 96Q248 101 240 101L240 101ZM235 88Q237 88 238 87Q239 86 239 83L239 83Q239 80 238 79Q237 78 235 78L235 78Q234 78 234 78Q233 78 232 79L232 79L232 87Q233 88 234 88Q234 88 235 88L235 88ZM274 101Q266 101 263 98Q260 95 260 88L260 88L260 51L277 51L277 86Q277 87 278 88Q278 89 280 89L280 89Q282 89 284 88L284 88L284 99Q281 100 279 100Q277 101 274 101L274 101ZM294 101Q288 101 285 98Q282 95 282 89L282 89Q282 78 297 78L297 78L304 78L304 77Q304 76 303 76Q301 75 298 75L298 75Q295 75 292 76Q289 76 286 77L286 77L286 68Q289 67 293 66Q298 65 302 65L302 65Q310 65 316 69Q321 72 321 80L321 80L321 100L305 100L305 98Q301 101 294 101L294 101ZM300 91Q303 91 304 90L304 90L304 86L301 86Q299 86 299 87Q298 88 298 89L298 89Q298 91 300 91L300 91ZM344 101Q334 101 329 96Q323 92 323 83L323 83Q323 74 329 70Q334 65 344 65L344 65Q348 65 352 66Q355 66 358 68L358 68L358 80Q354 78 348 78L348 78Q344 78 342 79Q341 80 341 83L341 83Q341 86 343 87Q344 88 348 88L348 88Q353 88 358 86L358 86L358 98Q355 100 352 100Q349 101 344 101L344 101ZM362 100L362 51L379 51L379 73L385 66L405 66L392 81L406 100L387 100L381 90L379 92L379 100L362 100Z"/></svg>