<svg xmlns="http://www.w3.org/2000/svg" viewBox="0.21600000000000003 51.471999999999994 359.35200000000003 49.248000000000005"><path d="M0.22 100L10.01 53.63L17.86 53.63L13.32 74.94L37.58 53.63L46.66 53.63L25.63 72.35L37.58 100L29.23 100L19.66 77.32L11.30 84.66L8.06 100L0.22 100ZM54.43 100.72Q41.83 100.72 41.83 89.56L41.83 89.56Q41.83 87.40 42.41 84.30L42.41 84.30Q43.56 78.47 46.62 74.12Q49.68 69.76 53.93 67.46Q58.18 65.15 62.93 65.15L62.93 65.15Q66.02 65.15 68.18 65.87Q70.34 66.59 72.22 68.25L72.22 68.25L72.72 65.87L80.57 65.87L73.37 100L66.67 100L66.82 96.62Q64.01 98.78 61.06 99.75Q58.10 100.72 54.43 100.72L54.43 100.72ZM57.82 94.82Q63.07 94.82 67.32 91.22L67.32 91.22L70.92 74.30Q69.55 72.71 67.90 71.92Q66.24 71.13 63.79 71.13L63.79 71.13Q58.61 71.13 55.15 74.55Q51.70 77.97 50.33 84.38L50.33 84.38Q49.68 87.18 49.68 89.13L49.68 89.13Q49.68 92.30 51.55 93.56Q53.42 94.82 57.82 94.82L57.82 94.82ZM82.51 100L89.71 65.87L96.91 65.87L96.55 69.47Q99.43 67.53 102.89 66.34Q106.34 65.15 110.02 65.15L110.02 65.15Q115.20 65.15 117.83 67.46Q120.46 69.76 120.46 74.08L120.46 74.08Q120.46 75.81 120.02 77.90L120.02 77.90L115.34 100L107.57 100L112.18 78.26Q112.54 76.31 112.54 75.30L112.54 75.30Q112.54 73 111.06 72.06Q109.58 71.13 105.98 71.13L105.98 71.13Q103.32 71.13 100.55 72.21Q97.78 73.29 95.62 75.02L95.62 75.02L90.36 100L82.51 100ZM133.06 58.74L134.42 52.26L142.99 52.26L141.62 58.74L133.06 58.74ZM124.99 100L130.97 71.85L125.78 71.85L127.73 65.87L140.04 65.87L132.84 100L124.99 100ZM154.80 100.72Q150.34 100.72 148.10 98.74Q145.87 96.76 145.87 93.09L145.87 93.09Q145.87 91.79 146.23 89.85L146.23 89.85L150.05 71.99L145.01 71.99L146.30 65.87L151.34 65.87L153.00 58.02L161.28 55.65L159.12 65.87L168.19 65.87L166.39 71.99L157.82 71.99L154.15 89.42Q153.86 90.57 153.86 91.65L153.86 91.65Q153.86 93.45 154.98 94.10Q156.10 94.74 158.83 94.74L158.83 94.74Q160.85 94.74 163.08 94.02L163.08 94.02L161.93 99.57Q158.76 100.72 154.80 100.72L154.80 100.72ZM208.01 58.74L209.38 52.26L217.94 52.26L216.58 58.74L208.01 58.74ZM199.94 100L205.92 71.85L200.74 71.85L202.68 65.87L214.99 65.87L207.79 100L199.94 100ZM229.75 100.72Q225.29 100.72 223.06 98.74Q220.82 96.76 220.82 93.09L220.82 93.09Q220.82 91.79 221.18 89.85L221.18 89.85L225.00 71.99L219.96 71.99L221.26 65.87L226.30 65.87L227.95 58.02L236.23 55.65L234.07 65.87L243.14 65.87L241.34 71.99L232.78 71.99L229.10 89.42Q228.82 90.57 228.82 91.65L228.82 91.65Q228.82 93.45 229.93 94.10Q231.05 94.74 233.78 94.74L233.78 94.74Q235.80 94.74 238.03 94.02L238.03 94.02L236.88 99.57Q233.71 100.72 229.75 100.72L229.75 100.72ZM254.45 100.72Q241.85 100.72 241.85 89.56L241.85 89.56Q241.85 87.40 242.42 84.30L242.42 84.30Q243.58 78.47 246.64 74.12Q249.70 69.76 253.94 67.46Q258.19 65.15 262.94 65.15L262.94 65.15Q266.04 65.15 268.20 65.87Q270.36 66.59 272.23 68.25L272.23 68.25L272.74 65.87L280.58 65.87L273.38 100L266.69 100L266.83 96.62Q264.02 98.78 261.07 99.75Q258.12 100.72 254.45 100.72L254.45 100.72ZM257.83 94.82Q263.09 94.82 267.34 91.22L267.34 91.22L270.94 74.30Q269.57 72.71 267.91 71.92Q266.26 71.13 263.81 71.13L263.81 71.13Q258.62 71.13 255.17 74.55Q251.71 77.97 250.34 84.38L250.34 84.38Q249.70 87.18 249.70 89.13L249.70 89.13Q249.70 92.30 251.57 93.56Q253.44 94.82 257.83 94.82L257.83 94.82ZM290.81 100.72Q283.90 100.72 283.90 94.82L283.90 94.82Q283.90 93.66 284.26 91.86L284.26 91.86L292.82 51.47L300.67 51.47L292.25 91.14Q292.03 92.22 292.03 92.87L292.03 92.87Q292.03 93.81 292.57 94.20Q293.11 94.60 294.34 94.60L294.34 94.60Q296.06 94.60 297.79 94.17L297.79 94.17L296.57 99.86Q293.98 100.72 290.81 100.72L290.81 100.72ZM315.94 58.74L317.30 52.26L325.87 52.26L324.50 58.74L315.94 58.74ZM307.87 100L313.85 71.85L308.66 71.85L310.61 65.87L322.92 65.87L315.72 100L307.87 100ZM341.42 100.72Q334.30 100.72 330.37 97.41Q326.45 94.10 326.45 87.83L326.45 87.83Q326.45 85.82 327.02 82.94L327.02 82.94Q328.90 74.08 334.58 69.62Q340.27 65.15 349.42 65.15L349.42 65.15Q352.87 65.15 355.18 65.66Q357.48 66.16 359.57 67.24L359.57 67.24L358.34 73.07Q355.03 71.20 349.70 71.20L349.70 71.20Q343.51 71.20 339.88 73.94Q336.24 76.67 334.94 82.94L334.94 82.94Q334.37 85.67 334.37 87.47L334.37 87.47Q334.37 91.29 336.71 93.02Q339.05 94.74 344.52 94.74L344.52 94.74Q349.63 94.74 354.24 92.80L354.24 92.80L352.94 98.78Q347.76 100.72 341.42 100.72L341.42 100.72Z"/></svg>