<svg xmlns="http://www.w3.org/2000/svg" viewBox="6.696000000000001 50.608 338.904 50.4"><path d="M7 53L15 53L15 72L34 53L45 53L25 74L47 100L36 100L19 80L15 84L15 100L7 100L7 53ZM65 80L65 80Q69 80 75 81L75 81L75 77Q75 74 73 72Q72 70 69 70Q65 70 64 72Q62 73 62 75L62 75L52 75Q52 69 57 67Q61 64 68 64L68 64Q79 64 82 72L82 72Q83 74 83 78L83 78L83 100L76 100L75 95Q72 101 65 101L65 101Q58 101 55 98L55 98Q51 95 51 90Q51 85 55 82Q59 80 65 80ZM75 86L75 86Q71 85 67 85L67 85Q60 85 60 90L60 90Q60 92 62 93Q63 95 67 95Q70 95 73 92Q75 90 75 86ZM104 65L104 72Q107 64 114 64L114 64Q115 64 117 65L117 65L117 73Q115 73 113 73L113 73Q104 73 104 85L104 85L104 100L96 100L96 65L104 65ZM126 100L126 51L134 51L134 100L126 100ZM159 80L159 80Q163 80 169 81L169 81L169 77Q169 74 167 72Q166 70 163 70Q159 70 157 72Q156 73 156 75L156 75L146 75Q146 69 151 67Q155 64 162 64L162 64Q173 64 176 72L176 72Q177 74 177 78L177 78L177 100L170 100L169 95Q166 101 159 101L159 101Q152 101 148 98L148 98Q145 95 145 90Q145 85 149 82Q153 80 159 80ZM169 86L169 86Q165 85 161 85L161 85Q154 85 154 90L154 90Q154 92 156 93Q157 95 161 95Q164 95 166 92Q169 90 169 86ZM237 69Q242 74 242 82Q242 91 237 96L237 96Q233 101 226 101L226 101Q223 101 220 99Q217 98 216 94L216 94L213 100L208 100L208 51L216 51L216 69Q220 64 226 64Q233 64 237 69ZM216 80L216 80L216 85Q217 89 219 91L219 91Q221 93 225 93Q228 93 231 90Q233 87 233 82Q233 78 231 75Q228 72 225 72Q221 72 219 74Q216 76 216 80ZM266 64L266 64Q269 64 273 65Q276 66 278 69L278 69Q283 74 283 83L283 83Q283 91 278 96L278 96Q273 101 266 101L266 101Q258 101 254 96L254 96Q249 91 249 83L249 83Q249 74 254 69L254 69Q258 64 266 64ZM274 83Q274 77 272 74Q270 71 266 71Q262 71 260 74Q257 77 257 83Q257 88 260 91Q262 94 266 94L266 94Q269 94 272 91Q274 88 274 83ZM293 100L293 51L301 51L301 100L293 100ZM339 100L338 95Q334 101 328 101L328 101Q321 101 316 96L316 96Q312 91 312 82Q312 74 316 69L316 69Q321 64 327 64Q334 64 337 69L337 69L337 51L346 51L346 100L339 100ZM329 72Q325 72 323 75Q320 78 320 82Q320 87 323 90Q325 93 329 93L329 93Q332 93 335 91L335 91Q337 88 337 85L337 85L337 80Q337 76 335 74L335 74Q332 72 329 72Z"/></svg>