<svg xmlns="http://www.w3.org/2000/svg" viewBox="1.01 -6.8100000000000005 22.04 6.920000000000001"><path d="M1.01-6.29L1.81-6.29L1.81-3.38L4.62-6.29L5.71-6.29L2.96-3.46L5.88 0L4.86 0L2.43-2.91L1.81-2.27L1.81 0L1.01 0L1.01-6.29ZM10.06-2.49L10.06-3.10Q10.06-3.75 9.79-4.03Q9.52-4.31 9.00-4.31Q8.49-4.31 8.18-4.11Q7.86-3.90 7.86-3.46L7.86-3.46L6.99-3.46Q6.99-4.56 8.17-4.82L8.17-4.82Q8.53-4.90 8.95-4.90L8.95-4.90Q9.84-4.90 10.34-4.45Q10.84-4 10.84-3.08L10.84-3.08L10.84 0L10.16 0L10.08-0.80Q9.64 0.11 8.49 0.11L8.49 0.11Q7.72 0.11 7.25-0.32Q6.79-0.75 6.79-1.39Q6.79-2.03 7.30-2.39Q7.82-2.75 8.59-2.75Q9.36-2.75 10.06-2.49L10.06-2.49ZM10.06-1.99L10.06-1.99Q9.35-2.19 8.82-2.19Q8.29-2.19 7.96-2Q7.63-1.81 7.63-1.40L7.63-1.40Q7.63-0.50 8.65-0.50L8.65-0.50Q9.23-0.50 9.64-0.92Q10.06-1.33 10.06-1.99ZM14.65-4.11L14.65-4.11Q13.52-4.11 13.48-2.33L13.48-2.33L13.48 0L12.69 0L12.69-4.79L13.48-4.79L13.48-3.87Q13.84-4.87 14.75-4.87L14.75-4.87Q15.04-4.87 15.30-4.78L15.30-4.78L15.26-4.01Q14.96-4.11 14.65-4.11ZM16.51 0L16.51-6.81L17.30-6.81L17.30 0L16.51 0ZM22.27-2.49L22.27-3.10Q22.27-3.75 22-4.03Q21.73-4.31 21.21-4.31Q20.70-4.31 20.39-4.11Q20.07-3.90 20.07-3.46L20.07-3.46L19.20-3.46Q19.20-4.56 20.38-4.82L20.38-4.82Q20.74-4.90 21.16-4.90L21.16-4.90Q22.05-4.90 22.55-4.45Q23.05-4 23.05-3.08L23.05-3.08L23.05 0L22.37 0L22.29-0.80Q21.85 0.11 20.70 0.11L20.70 0.11Q19.93 0.11 19.46-0.32Q19-0.75 19-1.39Q19-2.03 19.52-2.39Q20.03-2.75 20.80-2.75Q21.57-2.75 22.27-2.49L22.27-2.49ZM22.27-1.99L22.27-1.99Q21.56-2.19 21.03-2.19Q20.50-2.19 20.17-2Q19.84-1.81 19.84-1.40L19.84-1.40Q19.84-0.50 20.86-0.50L20.86-0.50Q21.44-0.50 21.86-0.92Q22.27-1.33 22.27-1.99Z"/></svg>