<svg xmlns="http://www.w3.org/2000/svg" viewBox="5.976000000000001 48.59199999999999 489.3840000000001 52.416000000000004"><path d="M10 53L18 53L17 72L35 53L46 53L25 74L42 100L32 100L19 80L15 84L14 100L6 100L10 53ZM62 79L62 79Q65 79 69 81L69 81L70 77Q70 77 70 77L70 77L70 76Q70 73 69 72Q67 70 65 70L65 70Q62 70 60 72Q59 73 58 75L58 75L50 75Q50 69 54 67Q58 64 65 64L65 64Q78 64 78 76L78 76L78 77Q78 77 78 78L78 78L76 100L69 100Q69 99 69 98Q69 97 69 95L69 95Q65 101 59 101L59 101Q53 101 50 98L50 98Q47 95 47 91L47 91Q47 85 51 82L51 82Q55 79 62 79ZM69 86L69 86Q65 85 63 85Q61 85 60 86Q58 86 58 86L58 86Q55 88 55 90Q55 92 57 93Q58 94 60 94Q62 94 64 94Q65 93 66 92L66 92Q68 90 69 86ZM109 65L108 74Q107 73 105 73L105 73Q97 73 96 85L96 85L95 100L87 100L90 65L98 65L97 72Q99 68 101 66Q104 64 106 64L106 64Q108 64 109 65L109 65ZM114 100L118 51L126 51L122 100L114 100ZM147 79L147 79Q150 79 154 81L154 81L155 77Q155 77 155 77L155 77L155 76Q155 73 154 72Q152 70 150 70L150 70Q147 70 145 72Q144 73 143 75L143 75L135 75Q135 69 139 67Q143 64 150 64L150 64Q163 64 163 76L163 76L163 77Q163 77 163 78L163 78L161 100L154 100Q154 99 154 98Q154 97 154 95L154 95Q150 101 144 101L144 101Q138 101 135 98L135 98Q132 95 132 91L132 91Q132 85 137 82L137 82Q140 79 147 79ZM154 86L154 86Q150 85 148 85Q146 85 145 86Q143 86 143 86L143 86Q140 88 140 90Q140 92 142 93Q143 94 145 94Q148 94 149 94Q150 93 151 92L151 92Q154 90 154 86ZM201 51L199 69Q203 64 208 64L208 64Q214 64 217 68L217 68Q221 73 221 80L221 80Q221 87 217 94L217 94Q215 97 212 99Q208 101 205 101L205 101Q198 101 196 94L196 94L193 100L188 100L193 51L201 51ZM198 80L198 80L198 84Q197 85 197 86Q197 87 198 88Q198 90 199 91L199 91Q201 93 204 93Q206 93 208 92Q209 91 210 89L210 89Q213 85 213 81Q213 77 211 74Q209 72 206 72Q203 72 201 74Q198 76 198 80ZM244 64L244 64Q247 64 250 65Q253 66 255 69L255 69Q259 73 258 83L258 83Q257 91 252 96L252 96Q247 101 241 101L241 101Q234 101 230 96L230 96Q226 92 227 83L227 83Q228 74 233 69L233 69Q237 64 244 64ZM250 83Q250 77 249 74Q247 72 244 72Q240 72 238 74Q235 77 235 83Q234 88 236 91Q238 93 241 93L241 93Q244 93 247 91Q249 88 250 83ZM265 100L270 51L278 51L273 100L265 100ZM306 100L306 94Q302 101 296 101L296 101Q291 101 287 97L287 97Q284 92 284 85L284 85Q284 77 288 71L288 71Q292 64 299 64L299 64Q305 64 308 69L308 69L310 51L318 51L313 100L306 100ZM307 79Q307 76 305 74Q303 72 301 72Q298 72 296 73Q295 74 294 76L294 76Q292 80 292 84Q292 88 294 91Q295 93 298 93L298 93Q301 93 303 91L303 91Q306 89 306 85L306 85L307 80Q307 80 307 80L307 80L307 79ZM342 100L345 65L353 65L350 100L342 100ZM345 54L345 54Q346 51 347 50Q348 49 351 49L351 49Q353 49 354 50Q355 51 355 54L355 54Q355 56 354 57Q352 59 350 59L350 59Q348 59 346 57Q345 56 345 54ZM380 93L381 99Q376 101 374 101Q371 101 370 100Q368 100 366 98L366 98Q364 96 364 90L364 90L366 71L362 71L362 65L367 65L367 56L375 56L374 65L383 65L382 71L374 71L372 90Q372 94 375 94L375 94Q377 94 380 93L380 93ZM402 79L402 79Q405 79 409 81L409 81L410 77Q410 77 410 77L410 77L410 76Q410 73 408 72Q407 70 405 70L405 70Q402 70 400 72Q398 73 398 75L398 75L389 75Q390 69 394 67Q398 64 405 64L405 64Q418 64 418 76L418 76L418 77Q418 77 418 78L418 78L415 100L409 100Q408 99 408 98Q408 97 408 95L408 95Q405 101 399 101L399 101Q393 101 390 98L390 98Q387 95 387 91L387 91Q387 85 391 82L391 82Q395 79 402 79ZM409 86L409 86Q405 85 403 85Q401 85 399 86Q398 86 397 86L397 86Q395 88 395 90Q395 92 397 93Q398 94 400 94Q402 94 404 94Q405 93 406 92L406 92Q408 90 409 86ZM427 100L431 51L439 51L434 100L427 100ZM447 100L450 65L458 65L455 100L447 100ZM450 54L450 54Q451 51 452 50Q454 49 456 49L456 49Q458 49 459 50Q460 51 460 54L460 54Q460 56 459 57Q457 59 455 59L455 59Q453 59 451 57Q450 56 450 54ZM471 71Q473 68 476 66Q479 64 483 64Q486 64 489 65Q491 66 492 68L492 68Q495 72 495 77L495 77L487 77Q487 75 486 73Q485 72 482 72L482 72Q478 72 476 76L476 76Q474 80 474 84Q474 89 476 91Q478 93 481 93Q483 93 485 92Q486 90 486 87L486 87L494 87Q494 93 490 97L490 97Q486 101 480 101L480 101Q474 101 470 97L470 97Q466 92 466 85L466 85Q466 77 471 71L471 71Z"/></svg>