<svg xmlns="http://www.w3.org/2000/svg" viewBox="6.5520000000000005 50.31999999999999 313.27200000000005 50.47200000000001"><path d="M11 55L16 55L14 76L34 55L41 55L22 75L38 100L31 100L18 79L13 84L12 100L7 100L11 55ZM67 82L67 78Q68 73 66 71Q65 69 61 69Q58 69 56 70Q54 72 53 75L53 75L48 75Q48 69 52 67Q56 65 61 65L61 65Q70 65 72 72L72 72Q73 74 72 78L72 78L70 100L66 100L66 94Q62 101 55 101L55 101Q50 101 47 98L47 98Q45 95 45 92Q45 89 46 87Q47 84 49 83L49 83Q52 80 57 80Q62 80 67 82L67 82ZM66 86L66 86Q62 84 58 84Q55 84 53 86Q50 87 50 91L50 91Q50 93 52 95Q53 96 56 96L56 96Q60 96 63 94L63 94Q66 91 66 86L66 86ZM102 66L102 71Q100 70 98 70L98 70Q94 70 92 74Q89 78 89 84L89 84L87 84Q88 77 90 72L90 72L87 100L82 100L85 66L91 66L90 72Q93 65 99 65L99 65Q101 65 102 66L102 66ZM107 100L112 51L117 51L112 100L107 100ZM146 82L146 78Q147 73 145 71Q144 69 140 69Q137 69 135 70Q133 72 132 75L132 75L127 75Q127 69 131 67Q135 65 140 65L140 65Q149 65 151 72L151 72Q152 74 151 78L151 78L149 100L145 100L145 94Q141 101 134 101L134 101Q129 101 127 98L127 98Q124 95 124 92Q124 89 125 87Q126 84 128 83L128 83Q131 80 137 80Q142 80 146 82L146 82ZM146 86L146 86Q141 84 138 84Q134 84 132 86Q129 87 129 91L129 91Q129 93 131 95Q132 96 136 96L136 96Q139 96 142 94L142 94Q145 91 146 86L146 86ZM177 100L180 66L185 66L182 100L177 100ZM184 57Q182 57 181 56Q181 56 181 54Q181 52 182 51Q183 50 184 50Q186 50 187 51Q188 52 187 54Q187 56 186 56Q185 57 184 57ZM212 95L212 99Q209 101 205 101Q202 101 200 98Q197 96 198 91L198 91L200 70L195 70L195 66L200 66L201 56L206 56L205 66L215 66L214 70L205 70L203 91Q202 94 203 95Q204 96 207 96Q209 96 212 95L212 95ZM241 82L242 78Q242 73 241 71Q239 69 236 69Q232 69 230 70Q228 72 228 75L228 75L222 75Q223 69 227 67Q230 65 236 65L236 65Q245 65 246 72L246 72Q247 74 247 78L247 78L245 100L240 100L240 94Q237 101 229 101L229 101Q225 101 222 98L222 98Q219 95 219 92Q219 89 220 87Q221 84 223 83L223 83Q227 80 232 80Q237 80 241 82L241 82ZM241 86L241 86Q237 84 233 84Q229 84 227 86Q225 87 225 91L225 91Q225 93 226 95Q228 96 231 96L231 96Q235 96 237 94L237 94Q241 91 241 86L241 86ZM257 100L261 51L267 51L262 100L257 100ZM275 100L278 66L284 66L280 100L275 100ZM282 57Q280 57 279 56Q279 56 279 54Q279 52 280 51Q281 50 282 50Q284 50 285 51Q286 52 286 54Q285 56 284 56Q283 57 282 57ZM308 65L308 65Q311 65 313 66Q315 67 317 68L317 68Q319 71 320 76L320 76L315 76Q314 73 312 71Q311 70 308 70Q306 70 305 71Q303 71 301 73L301 73Q298 77 298 83L298 83Q297 89 299 92Q302 96 305 96Q309 96 311 94Q313 92 313 88L313 88L319 88Q318 94 314 97L314 97Q311 101 305 101L305 101Q299 101 296 96L296 96Q292 91 293 83L293 83Q293 74 298 69L298 69Q303 65 308 65Z"/></svg>