<svg xmlns="http://www.w3.org/2000/svg" viewBox="7.272000000000001 50.967999999999996 417.24000000000007 66.744"><path d="M7.27 54.71L13.03 54.71L13.03 75.66L33.26 54.71L41.11 54.71L21.31 75.09L42.34 100L34.99 100L17.50 79.05L13.03 83.66L13.03 100L7.27 100L7.27 54.71ZM72.43 82.07L72.43 77.68Q72.43 73 70.49 70.98Q68.54 68.97 64.84 68.97Q61.13 68.97 58.86 70.44Q56.59 71.92 56.59 75.09L56.59 75.09L50.33 75.09Q50.33 67.17 58.82 65.30L58.82 65.30Q61.42 64.72 64.44 64.72L64.44 64.72Q70.85 64.72 74.45 67.96Q78.05 71.20 78.05 77.82L78.05 77.82L78.05 100L73.15 100L72.58 94.24Q69.41 100.79 61.13 100.79L61.13 100.79Q55.58 100.79 52.24 97.70Q48.89 94.60 48.89 89.99Q48.89 85.38 52.60 82.79Q56.30 80.20 61.85 80.20Q67.39 80.20 72.43 82.07L72.43 82.07ZM72.43 85.67L72.43 85.67Q67.32 84.23 63.50 84.23Q59.69 84.23 57.31 85.60Q54.94 86.97 54.94 89.92L54.94 89.92Q54.94 96.40 62.28 96.40L62.28 96.40Q66.46 96.40 69.44 93.41Q72.43 90.42 72.43 85.67ZM105.48 70.41L105.48 70.41Q97.34 70.41 97.06 83.22L97.06 83.22L97.06 100L91.37 100L91.37 65.51L97.06 65.51L97.06 72.14Q99.65 64.94 106.20 64.94L106.20 64.94Q108.29 64.94 110.16 65.58L110.16 65.58L109.87 71.13Q107.71 70.41 105.48 70.41ZM118.87 100L118.87 50.97L124.56 50.97L124.56 100L118.87 100ZM160.34 82.07L160.34 77.68Q160.34 73 158.40 70.98Q156.46 68.97 152.75 68.97Q149.04 68.97 146.77 70.44Q144.50 71.92 144.50 75.09L144.50 75.09L138.24 75.09Q138.24 67.17 146.74 65.30L146.74 65.30Q149.33 64.72 152.35 64.72L152.35 64.72Q158.76 64.72 162.36 67.96Q165.96 71.20 165.96 77.82L165.96 77.82L165.96 100L161.06 100L160.49 94.24Q157.32 100.79 149.04 100.79L149.04 100.79Q143.50 100.79 140.15 97.70Q136.80 94.60 136.80 89.99Q136.80 85.38 140.51 82.79Q144.22 80.20 149.76 80.20Q155.30 80.20 160.34 82.07L160.34 82.07ZM160.34 85.67L160.34 85.67Q155.23 84.23 151.42 84.23Q147.60 84.23 145.22 85.60Q142.85 86.97 142.85 89.92L142.85 89.92Q142.85 96.40 150.19 96.40L150.19 96.40Q154.37 96.40 157.36 93.41Q160.34 90.42 160.34 85.67ZM210.53 70.41L210.53 70.41Q202.39 70.41 202.10 83.22L202.10 83.22L202.10 100L196.42 100L196.42 65.51L202.10 65.51L202.10 72.14Q204.70 64.94 211.25 64.94L211.25 64.94Q213.34 64.94 215.21 65.58L215.21 65.58L214.92 71.13Q212.76 70.41 210.53 70.41ZM235.80 96.18L235.80 96.18Q242.93 96.18 243.94 89.92L243.94 89.92L249.77 89.92Q248.98 95.10 245.20 97.95Q241.42 100.79 235.80 100.79L235.80 100.79Q228.89 100.79 224.57 95.86Q220.25 90.93 220.25 82.72Q220.25 74.51 224.60 69.62Q228.96 64.72 236.20 64.72Q243.43 64.72 247.00 70.34Q250.56 75.95 249.48 84.02L249.48 84.02L225.94 84.02Q225.94 89.34 228.53 92.76Q231.12 96.18 235.80 96.18ZM239.98 70.12L239.98 70.12Q238.32 69.26 235.94 69.26L235.94 69.26Q231.55 69.26 229.00 72.24Q226.44 75.23 226.01 79.70L226.01 79.70L244.37 79.70Q244.37 72.50 239.98 70.12ZM262.44 98.92L262.44 98.92Q258.12 96.83 258.12 92.51L258.12 92.51Q258.12 90.28 259.81 88.59Q261.50 86.90 264.02 86.32L264.02 86.32Q260.14 82.86 260.14 77.25L260.14 77.25Q260.14 71.63 264.13 68.18Q268.13 64.72 273.60 64.72Q279.07 64.72 282.89 67.31L282.89 67.31Q283.39 63.50 285.95 61.19Q288.50 58.89 292.68 58.89L292.68 58.89L292.18 64.50Q285.84 64.50 285.55 69.83L285.55 69.83Q288.07 72.93 288.07 77.25L288.07 77.25Q288.07 82.79 284.08 86.36Q280.08 89.92 274.10 89.92L274.10 89.92Q270.00 89.92 266.83 88.26L266.83 88.26Q265.39 88.55 264.24 89.60Q263.09 90.64 263.09 92.44L263.09 92.44Q263.09 96.26 269.42 96.26L269.42 96.26L282.82 96.26Q287.64 96.26 290.45 98.31Q293.26 100.36 293.26 104.03L293.26 104.03Q293.26 109.50 287.75 113.61Q282.24 117.71 273.82 117.71Q265.39 117.71 260.57 114.58Q255.74 111.45 255.74 106.70L255.74 106.70Q255.74 103.60 257.58 101.66Q259.42 99.71 262.44 98.92ZM261.36 106.48L261.36 106.48Q261.36 109.22 264.35 111.20Q267.34 113.18 273.42 113.18Q279.50 113.18 283.57 110.55Q287.64 107.92 287.64 104.39L287.64 104.39Q287.64 102.74 286.45 101.55Q285.26 100.36 282.82 100.36L282.82 100.36L268.92 100.36Q265.25 100.50 263.30 102.12Q261.36 103.74 261.36 106.48ZM282.53 77.21Q282.53 73.50 280.30 71.16Q278.06 68.82 274.14 68.82Q270.22 68.82 267.98 71.16Q265.75 73.50 265.75 77.25L265.75 77.25Q265.75 80.99 268.02 83.40Q270.29 85.82 274.18 85.82L274.18 85.82Q278.06 85.82 280.30 83.37Q282.53 80.92 282.53 77.21ZM325.08 100L325.08 93.16Q321.55 100.65 313.63 100.65L313.63 100.65Q307.80 100.65 304.24 97.41Q300.67 94.17 300.67 87.40L300.67 87.40L300.67 65.51L306.36 65.51L306.36 86.97Q306.36 95.68 314.42 95.68L314.42 95.68Q319.10 95.68 322.02 92.08Q324.94 88.48 325.08 82.86L325.08 82.86L325.08 65.51L330.77 65.51L330.77 100L325.08 100ZM345.31 100L345.31 50.97L351 50.97L351 100L345.31 100ZM386.78 82.07L386.78 77.68Q386.78 73 384.84 70.98Q382.90 68.97 379.19 68.97Q375.48 68.97 373.21 70.44Q370.94 71.92 370.94 75.09L370.94 75.09L364.68 75.09Q364.68 67.17 373.18 65.30L373.18 65.30Q375.77 64.72 378.79 64.72L378.79 64.72Q385.20 64.72 388.80 67.96Q392.40 71.20 392.40 77.82L392.40 77.82L392.40 100L387.50 100L386.93 94.24Q383.76 100.79 375.48 100.79L375.48 100.79Q369.94 100.79 366.59 97.70Q363.24 94.60 363.24 89.99Q363.24 85.38 366.95 82.79Q370.66 80.20 376.20 80.20Q381.74 80.20 386.78 82.07L386.78 82.07ZM386.78 85.67L386.78 85.67Q381.67 84.23 377.86 84.23Q374.04 84.23 371.66 85.60Q369.29 86.97 369.29 89.92L369.29 89.92Q369.29 96.40 376.63 96.40L376.63 96.40Q380.81 96.40 383.80 93.41Q386.78 90.42 386.78 85.67ZM419.83 70.41L419.83 70.41Q411.70 70.41 411.41 83.22L411.41 83.22L411.41 100L405.72 100L405.72 65.51L411.41 65.51L411.41 72.14Q414.00 64.94 420.55 64.94L420.55 64.94Q422.64 64.94 424.51 65.58L424.51 65.58L424.22 71.13Q422.06 70.41 419.83 70.41Z"/></svg>