<svg xmlns="http://www.w3.org/2000/svg" viewBox="0.93 -6.86 23.7 7"><path d="M0.93-6.49L2.12-6.49L2.12-3.82L4.68-6.49L6.30-6.49L3.44-3.57L6.49 0L4.96 0L2.65-2.75L2.12-2.21L2.12 0L0.93 0L0.93-6.49ZM9.07-2.84L9.07-2.84Q9.65-2.84 10.41-2.65L10.41-2.65L10.41-3.13Q10.41-3.64 10.21-3.89Q10-4.13 9.54-4.13Q9.07-4.13 8.82-3.95Q8.57-3.76 8.57-3.42L8.57-3.42L7.28-3.42Q7.28-4.25 7.87-4.62Q8.45-4.99 9.50-4.99L9.50-4.99Q11-4.99 11.44-3.94L11.44-3.94Q11.59-3.58 11.59-3.09L11.59-3.09L11.59 0L10.56 0L10.47-0.65Q10 0.14 9.03 0.14L9.03 0.14Q8.09 0.14 7.57-0.32L7.57-0.32Q7.09-0.76 7.09-1.44Q7.09-2.11 7.62-2.48Q8.15-2.84 9.07-2.84ZM10.41-1.90L10.41-1.90Q9.82-2.06 9.31-2.06L9.31-2.06Q8.35-2.06 8.35-1.42L8.35-1.42Q8.35-1.15 8.57-0.96Q8.79-0.76 9.28-0.76Q9.76-0.76 10.07-1.08Q10.39-1.41 10.41-1.90ZM14.49-4.87L14.49-3.90Q14.93-4.95 15.81-4.95L15.81-4.95Q15.98-4.95 16.24-4.88L16.24-4.88L16.22-3.70Q15.94-3.76 15.67-3.76L15.67-3.76Q14.49-3.76 14.49-2.13L14.49-2.13L14.49 0L13.31 0L13.31-4.87L14.49-4.87ZM17.47 0L17.47-6.86L18.65-6.86L18.65 0L17.47 0ZM22.11-2.84L22.11-2.84Q22.69-2.84 23.45-2.65L23.45-2.65L23.45-3.13Q23.45-3.64 23.24-3.89Q23.04-4.13 22.57-4.13Q22.11-4.13 21.86-3.95Q21.61-3.76 21.61-3.42L21.61-3.42L20.32-3.42Q20.32-4.25 20.90-4.62Q21.49-4.99 22.54-4.99L22.54-4.99Q24.04-4.99 24.48-3.94L24.48-3.94Q24.63-3.58 24.63-3.09L24.63-3.09L24.63 0L23.60 0L23.51-0.65Q23.04 0.14 22.07 0.14L22.07 0.14Q21.13 0.14 20.61-0.32L20.61-0.32Q20.13-0.76 20.13-1.44Q20.13-2.11 20.66-2.48Q21.19-2.84 22.11-2.84ZM23.45-1.90L23.45-1.90Q22.86-2.06 22.35-2.06L22.35-2.06Q21.39-2.06 21.39-1.42L21.39-1.42Q21.39-1.15 21.61-0.96Q21.83-0.76 22.31-0.76Q22.80-0.76 23.11-1.08Q23.43-1.41 23.45-1.90Z"/></svg>