<svg xmlns="http://www.w3.org/2000/svg" viewBox="0.91 -6.8100000000000005 20.1323076915741 6.920000000000001"><path d="M1.50-6.29L2.22-6.29L1.95-3.38L4.75-6.29L5.73-6.29L2.99-3.47L5.29 0L4.37 0L2.46-2.91L1.84-2.28L1.63 0L0.91 0L1.50-6.29ZM9.28-2.49L9.34-3.10Q9.40-3.75 9.19-4.03Q8.97-4.31 8.51-4.31Q8.05-4.31 7.75-4.11Q7.44-3.91 7.40-3.46L7.40-3.46L6.61-3.46Q6.69-4.24 7.22-4.57Q7.75-4.90 8.52-4.90L8.52-4.90Q9.73-4.90 9.99-3.90L9.99-3.90Q10.08-3.56 10.04-3.08L10.04-3.08L9.75 0L9.15 0L9.15-0.80Q8.66 0.11 7.62 0.11L7.62 0.11Q6.98 0.11 6.59-0.28L6.59-0.28Q6.23-0.64 6.23-1.11Q6.23-1.58 6.38-1.87Q6.52-2.16 6.76-2.36L6.76-2.36Q7.26-2.75 7.97-2.75Q8.68-2.75 9.28-2.49L9.28-2.49ZM9.22-1.90L9.23-1.99Q8.61-2.19 8.12-2.19Q7.62-2.19 7.31-1.97Q6.99-1.74 6.99-1.23L6.99-1.23Q6.99-0.91 7.18-0.70Q7.36-0.50 7.83-0.50L7.83-0.50Q8.34-0.50 8.74-0.87L8.74-0.87Q9.18-1.27 9.22-1.90L9.22-1.90ZM14.22-4.78L14.11-4.01Q13.83-4.11 13.57-4.11L13.57-4.11Q13-4.11 12.71-3.58Q12.42-3.06 12.33-2.16L12.33-2.16L12.11-2.16Q12.21-3.24 12.49-3.88L12.49-3.88L12.13 0L11.42 0L11.87-4.79L12.58-4.79L12.49-3.88Q12.92-4.87 13.73-4.87L13.73-4.87Q13.99-4.87 14.22-4.78L14.22-4.78ZM14.86 0L15.50-6.81L16.21-6.81L15.57 0L14.86 0ZM20.27-2.49L20.33-3.10Q20.39-3.75 20.17-4.03Q19.96-4.31 19.50-4.31Q19.04-4.31 18.73-4.11Q18.43-3.91 18.39-3.46L18.39-3.46L17.60-3.46Q17.68-4.24 18.21-4.57Q18.74-4.90 19.51-4.90L19.51-4.90Q20.72-4.90 20.98-3.90L20.98-3.90Q21.07-3.56 21.03-3.08L21.03-3.08L20.74 0L20.14 0L20.14-0.80Q19.65 0.11 18.61 0.11L18.61 0.11Q17.97 0.11 17.58-0.28L17.58-0.28Q17.22-0.64 17.22-1.11Q17.22-1.58 17.36-1.87Q17.51-2.16 17.75-2.36L17.75-2.36Q18.25-2.75 18.96-2.75Q19.67-2.75 20.27-2.49L20.27-2.49ZM20.21-1.90L20.22-1.99Q19.60-2.19 19.11-2.19Q18.61-2.19 18.29-1.97Q17.98-1.74 17.98-1.23L17.98-1.23Q17.98-0.91 18.16-0.70Q18.35-0.50 18.82-0.50L18.82-0.50Q19.33-0.50 19.73-0.87L19.73-0.87Q20.17-1.27 20.21-1.90L20.21-1.90Z"/></svg>