<svg xmlns="http://www.w3.org/2000/svg" viewBox="7.5600000000000005 47.61999999999999 275.76 65.736"><path d="M11 49L11 97L35 97L35 100L8 100L8 49L11 49ZM67 100L66 100Q64 100 64 99L64 99L64 94Q62 96 61 97Q59 98 58 99Q56 100 54 100Q52 101 50 101L50 101Q48 101 47 100Q45 99 44 98Q42 97 41 96Q41 94 41 91L41 91Q41 89 42 87Q43 85 46 84Q49 82 53 81Q57 81 64 80L64 80L64 77Q64 72 61 69Q59 66 55 66L55 66Q52 66 51 67Q49 68 48 69Q46 70 46 70Q45 71 44 71L44 71Q43 71 43 70L43 70L42 69Q45 66 48 65Q51 64 55 64L55 64Q58 64 60 64Q63 65 64 67Q65 69 66 71Q67 74 67 77L67 77L67 100ZM51 98L51 98Q53 98 55 98Q57 97 58 96Q60 96 61 94Q62 93 64 92L64 92L64 83Q58 83 55 83Q51 84 49 85Q46 86 45 88Q44 89 44 91L44 91Q44 93 45 94Q45 96 46 96Q47 97 48 98Q50 98 51 98ZM87 101L87 101Q84 101 82 99Q80 97 80 92L80 92L80 68L75 68Q74 68 74 68Q74 67 74 67L74 67L74 66L80 65L81 52Q81 52 81 52Q81 52 82 52L82 52L83 52L83 65L95 65L95 68L83 68L83 92Q83 94 84 95Q84 96 85 96Q85 97 86 97Q87 98 88 98L88 98Q89 98 90 97Q91 97 92 97Q93 96 93 96Q94 95 94 95L94 95Q94 95 94 96L94 96L95 97Q94 99 92 100Q90 101 87 101ZM117 64L117 64Q121 64 124 65Q127 66 129 69Q131 71 132 74Q133 78 133 82L133 82Q133 86 132 90Q131 93 129 95Q127 98 124 99Q121 100 117 100L117 100Q113 100 110 99Q107 98 105 95Q103 93 102 90Q101 86 101 82L101 82Q101 78 102 74Q103 71 105 69Q107 66 110 65Q113 64 117 64ZM117 98L117 98Q120 98 123 97Q125 96 127 94Q128 91 129 89Q130 86 130 82L130 82Q130 79 129 76Q128 73 127 71Q125 69 123 67Q120 66 117 66L117 66Q114 66 111 67Q109 69 107 71Q106 73 105 76Q104 79 104 82L104 82Q104 86 105 89Q106 91 107 94Q109 96 111 97Q114 98 117 98ZM157 48L161 48L161 100L157 100L157 48ZM174 64L178 64L178 100L174 100L174 64ZM179 52L179 52Q179 52 179 53Q179 54 178 54Q178 54 177 55Q177 55 176 55L176 55Q175 55 175 55Q174 54 174 54Q173 54 173 53Q173 52 173 52L173 52Q173 51 173 51Q173 50 174 50Q174 49 175 49Q175 49 176 49L176 49Q177 49 177 49Q178 49 178 50Q179 50 179 51Q179 51 179 52ZM202 64L202 64Q205 64 207 64Q209 65 210 66L210 66L219 66L219 67Q219 68 218 68L218 68L213 68Q214 70 214 71Q215 73 215 75L215 75Q215 78 214 80Q213 82 211 83Q210 85 207 86Q205 87 202 87L202 87Q199 87 197 86L197 86Q195 86 194 88Q193 89 193 90L193 90Q193 91 194 92Q196 93 197 94Q199 94 201 94Q204 94 206 94Q208 94 211 95Q213 95 215 96Q217 97 218 98Q219 100 219 102L219 102Q219 104 218 106Q216 108 214 110Q212 111 209 112Q206 113 203 113L203 113Q199 113 196 113Q193 112 191 110Q189 109 188 107Q187 106 187 104L187 104Q187 101 189 99Q191 97 194 96L194 96Q192 95 191 94Q190 93 190 91L190 91Q190 90 191 89Q191 88 192 88Q192 87 193 86Q194 85 195 85L195 85Q192 83 191 81Q189 78 189 75L189 75Q189 72 190 70Q191 68 193 67Q195 65 197 64Q199 64 202 64ZM215 102L215 102Q215 101 215 100Q214 99 212 98Q211 98 209 97Q207 97 205 97Q203 97 201 97Q198 97 197 96L197 96Q195 97 194 98Q193 98 192 99Q191 100 191 101Q190 102 190 103L190 103Q190 105 191 106Q192 108 194 109Q195 110 197 110Q200 111 203 111L203 111Q205 111 208 110Q210 110 212 108Q214 107 215 106Q215 104 215 102ZM202 84L202 84Q205 84 206 83Q208 83 209 82Q211 80 211 79Q212 77 212 75L212 75Q212 73 211 71Q211 70 209 69Q208 67 206 67Q204 66 202 66L202 66Q200 66 198 67Q196 67 195 69Q194 70 193 71Q193 73 193 75L193 75Q193 77 193 79Q194 80 195 82Q196 83 198 83Q200 84 202 84ZM230 100L227 100L227 48L230 48L230 70Q233 67 236 65Q239 64 243 64L243 64Q246 64 248 65Q250 65 252 67Q253 69 254 71Q255 74 255 77L255 77L255 100L251 100L251 77Q251 72 249 69Q247 66 242 66L242 66Q239 66 236 68Q233 70 230 73L230 73L230 100ZM275 101L275 101Q272 101 270 99Q268 97 268 92L268 92L268 68L263 68Q262 68 262 68Q262 67 262 67L262 67L262 66L268 65L269 52Q269 52 269 52Q269 52 270 52L270 52L271 52L271 65L282 65L282 68L271 68L271 92Q271 94 272 95Q272 96 273 96Q273 97 274 97Q275 98 276 98L276 98Q277 98 278 97Q279 97 280 97Q281 96 281 96Q282 95 282 95L282 95Q282 95 282 96L282 96L283 97Q282 99 280 100Q278 101 275 101Z"/></svg>