<svg xmlns="http://www.w3.org/2000/svg" viewBox="1.584 45.891999999999996 483.5880000000001 54.684"><path d="M19.80 47.55L14.47 90.64L32.11 90.64L30.96 100L1.58 100L8.06 47.55L19.80 47.55ZM71.24 63.75L66.71 100L60.73 100Q59.69 100 58.99 99.73Q58.28 99.46 57.87 98.99Q57.46 98.52 57.29 97.88Q57.13 97.23 57.13 96.47L57.13 96.47L57.13 93.81Q54.83 96.98 52.02 98.78Q49.21 100.58 45.83 100.58L45.83 100.58Q43.81 100.58 41.94 99.77Q40.07 98.96 38.63 97.32Q37.19 95.68 36.32 93.14Q35.46 90.60 35.46 87.15L35.46 87.15Q35.46 82.07 37.31 77.52Q39.17 72.96 42.50 69.54Q45.83 66.12 50.40 64.11Q54.97 62.09 60.44 62.09L60.44 62.09Q63.11 62.09 65.84 62.45Q68.58 62.81 71.24 63.75L71.24 63.75ZM50.29 91.76L50.29 91.76Q51.52 91.76 52.67 90.84Q53.82 89.92 54.85 88.34Q55.87 86.75 56.74 84.63Q57.60 82.50 58.21 80.09L58.21 80.09L59.51 69.76L58.86 69.76Q56.12 69.76 53.87 70.98Q51.62 72.21 50.00 74.31Q48.38 76.42 47.50 79.21Q46.62 82 46.62 85.17L46.62 85.17Q46.62 86.97 46.91 88.23Q47.20 89.49 47.68 90.26Q48.17 91.04 48.83 91.40Q49.50 91.76 50.29 91.76ZM77.36 91.94L77.36 91.94Q77.36 91.68 77.36 91.32Q77.36 90.96 77.42 90.30Q77.47 89.63 77.60 88.53Q77.72 87.44 77.94 85.64L77.94 85.64L79.85 70.37L76.86 70.37Q76.18 70.37 75.71 69.92Q75.24 69.47 75.24 68.57L75.24 68.57Q75.24 68.54 75.31 67.94Q75.38 67.35 75.46 66.68Q75.53 66.02 75.60 65.44Q75.67 64.86 75.67 64.79L75.67 64.79L75.78 63.82L81.43 62.67L84.56 53.56Q85.10 51.83 87.01 51.83L87.01 51.83L93.06 51.83L91.69 62.74L100.04 62.74L99.11 70.37L90.76 70.37L88.96 85.02Q88.78 86.50 88.69 87.35Q88.60 88.19 88.54 88.64Q88.49 89.09 88.47 89.25Q88.45 89.42 88.45 89.45L88.45 89.45Q88.45 90.50 88.94 91.20Q89.42 91.90 90.47 91.90L90.47 91.90Q91.04 91.90 91.42 91.77Q91.80 91.65 92.09 91.49Q92.38 91.32 92.63 91.20Q92.88 91.07 93.20 91.07L93.20 91.07Q93.71 91.07 93.96 91.31Q94.21 91.54 94.43 92.04L94.43 92.04L96.88 97.34Q94.64 98.96 92.09 99.77Q89.53 100.58 86.94 100.58L86.94 100.58Q84.78 100.58 83.05 99.98Q81.32 99.39 80.08 98.25Q78.84 97.12 78.14 95.54Q77.44 93.95 77.36 91.94ZM115.74 92.30L115.74 92.30Q117.61 92.30 119.09 91.16Q120.56 90.03 121.59 88.07Q122.62 86.10 123.17 83.49Q123.73 80.88 123.73 77.93L123.73 77.93Q123.73 73.86 122.63 72.12Q121.54 70.37 119.05 70.37L119.05 70.37Q117.18 70.37 115.70 71.51Q114.23 72.64 113.20 74.58Q112.18 76.53 111.62 79.16Q111.06 81.78 111.06 84.74L111.06 84.74Q111.06 88.73 112.16 90.51Q113.26 92.30 115.74 92.30ZM114.73 100.58L114.73 100.58Q111.60 100.58 108.88 99.53Q106.16 98.49 104.17 96.49Q102.17 94.49 101.03 91.56Q99.90 88.62 99.90 84.81L99.90 84.81Q99.90 79.84 101.54 75.68Q103.18 71.52 105.95 68.50Q108.72 65.48 112.37 63.78Q116.03 62.09 120.06 62.09L120.06 62.09Q123.19 62.09 125.89 63.14Q128.59 64.18 130.59 66.18Q132.59 68.18 133.74 71.11Q134.89 74.04 134.89 77.86L134.89 77.86Q134.89 82.76 133.25 86.91Q131.62 91.07 128.84 94.11Q126.07 97.16 122.42 98.87Q118.76 100.58 114.73 100.58ZM157.57 100L151.45 100L158.00 46.11L168.95 46.11L166.18 68.54Q168.66 65.51 171.59 63.80Q174.53 62.09 177.80 62.09L177.80 62.09Q180.11 62.09 182.02 62.90Q183.92 63.71 185.31 65.44Q186.70 67.17 187.47 69.85Q188.24 72.53 188.24 76.24L188.24 76.24Q188.24 81.14 186.75 85.55Q185.26 89.96 182.74 93.30Q180.22 96.65 176.92 98.61Q173.63 100.58 170.03 100.58L170.03 100.58Q167.26 100.58 165.15 99.51Q163.04 98.45 161.57 96.72L161.57 96.72L161.46 97.08Q160.96 98.60 160.16 99.30Q159.37 100 157.57 100L157.57 100ZM173.34 70.55L173.34 70.55Q172.15 70.55 170.87 71.45Q169.60 72.35 168.41 73.92Q167.22 75.48 166.19 77.59Q165.17 79.70 164.48 82.07L164.48 82.07L163.40 90.78Q164.45 91.65 165.74 92.01Q167.04 92.37 168.23 92.37L168.23 92.37Q170.17 92.37 171.81 91.07Q173.45 89.78 174.64 87.67Q175.82 85.56 176.49 82.86Q177.16 80.16 177.16 77.36L177.16 77.36Q177.16 73.79 176.11 72.17Q175.07 70.55 173.34 70.55ZM202.07 100L191.05 100L197.60 46.11L208.62 46.11L202.07 100ZM245.05 63.75L240.52 100L234.54 100Q233.50 100 232.79 99.73Q232.09 99.46 231.68 98.99Q231.26 98.52 231.10 97.88Q230.94 97.23 230.94 96.47L230.94 96.47L230.94 93.81Q228.64 96.98 225.83 98.78Q223.02 100.58 219.64 100.58L219.64 100.58Q217.62 100.58 215.75 99.77Q213.88 98.96 212.44 97.32Q211.00 95.68 210.13 93.14Q209.27 90.60 209.27 87.15L209.27 87.15Q209.27 82.07 211.12 77.52Q212.98 72.96 216.31 69.54Q219.64 66.12 224.21 64.11Q228.78 62.09 234.25 62.09L234.25 62.09Q236.92 62.09 239.65 62.45Q242.39 62.81 245.05 63.75L245.05 63.75ZM224.10 91.76L224.10 91.76Q225.32 91.76 226.48 90.84Q227.63 89.92 228.65 88.34Q229.68 86.75 230.54 84.63Q231.41 82.50 232.02 80.09L232.02 80.09L233.32 69.76L232.67 69.76Q229.93 69.76 227.68 70.98Q225.43 72.21 223.81 74.31Q222.19 76.42 221.31 79.21Q220.43 82 220.43 85.17L220.43 85.17Q220.43 86.97 220.72 88.23Q221.00 89.49 221.49 90.26Q221.98 91.04 222.64 91.40Q223.31 91.76 224.10 91.76ZM277.09 93.45L277.09 93.45Q275.29 95.43 273.64 96.80Q271.98 98.16 270.22 98.99Q268.45 99.82 266.45 100.20Q264.46 100.58 262.04 100.58L262.04 100.58Q258.77 100.58 256.14 99.46Q253.51 98.34 251.66 96.29Q249.80 94.24 248.80 91.32Q247.79 88.41 247.79 84.77L247.79 84.77Q247.79 80.20 249.28 76.10Q250.78 71.99 253.46 68.90Q256.14 65.80 259.81 63.98Q263.48 62.16 267.88 62.16L267.88 62.16Q271.62 62.16 274.30 63.44Q276.98 64.72 279.11 67.46L279.11 67.46L275.51 71.60Q275.11 71.99 274.61 72.30Q274.10 72.60 273.49 72.60L273.49 72.60Q272.77 72.60 272.29 72.30Q271.80 71.99 271.22 71.65Q270.65 71.31 269.82 71.00Q268.99 70.70 267.66 70.70L267.66 70.70Q266.00 70.70 264.44 71.65Q262.87 72.60 261.65 74.40Q260.42 76.20 259.69 78.83Q258.95 81.46 258.95 84.81L258.95 84.81Q258.95 86.68 259.38 88.07Q259.81 89.45 260.57 90.37Q261.32 91.29 262.33 91.76Q263.34 92.22 264.49 92.22L264.49 92.22Q266.22 92.22 267.28 91.74Q268.34 91.25 269.14 90.68Q269.93 90.10 270.61 89.61Q271.30 89.13 272.27 89.13L272.27 89.13Q272.81 89.13 273.33 89.38Q273.85 89.63 274.21 90.06L274.21 90.06L277.09 93.45ZM286.16 46.11L297.18 46.11L293.47 76.31L294.23 76.31Q295.16 76.31 295.74 76.02Q296.32 75.74 296.89 74.98L296.89 74.98L304.60 64.47Q305.28 63.53 306.11 63.10Q306.94 62.67 308.12 62.67L308.12 62.67L318.13 62.67L307.69 75.95Q306.97 76.89 306.11 77.61Q305.24 78.33 304.31 78.87L304.31 78.87Q305.06 79.48 305.62 80.29Q306.18 81.10 306.61 82.14L306.61 82.14L314.10 100L304.38 100Q303.19 100 302.42 99.59Q301.64 99.17 301.21 98.13L301.21 98.13L296.03 84.92Q295.63 84.02 295.18 83.75Q294.73 83.48 293.72 83.48L293.72 83.48L292.57 83.48L290.56 100L279.54 100L286.16 46.11ZM336.85 62.67L347.87 62.67L343.40 100L332.39 100L336.85 62.67ZM349.96 52.44L349.96 52.44Q349.96 53.78 349.38 54.95Q348.80 56.12 347.87 57.00Q346.93 57.88 345.73 58.40Q344.52 58.92 343.26 58.92L343.26 58.92Q342 58.92 340.85 58.40Q339.70 57.88 338.81 57.00Q337.93 56.12 337.39 54.95Q336.85 53.78 336.85 52.44L336.85 52.44Q336.85 51.11 337.39 49.92Q337.93 48.74 338.85 47.84Q339.77 46.94 340.92 46.41Q342.07 45.89 343.33 45.89L343.33 45.89Q344.63 45.89 345.82 46.40Q347.00 46.90 347.92 47.80Q348.84 48.70 349.40 49.89Q349.96 51.08 349.96 52.44ZM354.71 91.94L354.71 91.94Q354.71 91.68 354.71 91.32Q354.71 90.96 354.76 90.30Q354.82 89.63 354.94 88.53Q355.07 87.44 355.28 85.64L355.28 85.64L357.19 70.37L354.20 70.37Q353.52 70.37 353.05 69.92Q352.58 69.47 352.58 68.57L352.58 68.57Q352.58 68.54 352.66 67.94Q352.73 67.35 352.80 66.68Q352.87 66.02 352.94 65.44Q353.02 64.86 353.02 64.79L353.02 64.79L353.12 63.82L358.78 62.67L361.91 53.56Q362.45 51.83 364.36 51.83L364.36 51.83L370.40 51.83L369.04 62.74L377.39 62.74L376.45 70.37L368.10 70.37L366.30 85.02Q366.12 86.50 366.03 87.35Q365.94 88.19 365.89 88.64Q365.83 89.09 365.81 89.25Q365.80 89.42 365.80 89.45L365.80 89.45Q365.80 90.50 366.28 91.20Q366.77 91.90 367.81 91.90L367.81 91.90Q368.39 91.90 368.77 91.77Q369.14 91.65 369.43 91.49Q369.72 91.32 369.97 91.20Q370.22 91.07 370.55 91.07L370.55 91.07Q371.05 91.07 371.30 91.31Q371.56 91.54 371.77 92.04L371.77 92.04L374.22 97.34Q371.99 98.96 369.43 99.77Q366.88 100.58 364.28 100.58L364.28 100.58Q362.12 100.58 360.40 99.98Q358.67 99.39 357.43 98.25Q356.18 97.12 355.48 95.54Q354.78 93.95 354.71 91.94ZM412.96 63.75L408.42 100L402.44 100Q401.40 100 400.70 99.73Q400.00 99.46 399.58 98.99Q399.17 98.52 399.01 97.88Q398.84 97.23 398.84 96.47L398.84 96.47L398.84 93.81Q396.54 96.98 393.73 98.78Q390.92 100.58 387.54 100.58L387.54 100.58Q385.52 100.58 383.65 99.77Q381.78 98.96 380.34 97.32Q378.90 95.68 378.04 93.14Q377.17 90.60 377.17 87.15L377.17 87.15Q377.17 82.07 379.03 77.52Q380.88 72.96 384.21 69.54Q387.54 66.12 392.11 64.11Q396.68 62.09 402.16 62.09L402.16 62.09Q404.82 62.09 407.56 62.45Q410.29 62.81 412.96 63.75L412.96 63.75ZM392.00 91.76L392.00 91.76Q393.23 91.76 394.38 90.84Q395.53 89.92 396.56 88.34Q397.58 86.75 398.45 84.63Q399.31 82.50 399.92 80.09L399.92 80.09L401.22 69.76L400.57 69.76Q397.84 69.76 395.59 70.98Q393.34 72.21 391.72 74.31Q390.10 76.42 389.21 79.21Q388.33 82 388.33 85.17L388.33 85.17Q388.33 86.97 388.62 88.23Q388.91 89.49 389.39 90.26Q389.88 91.04 390.55 91.40Q391.21 91.76 392.00 91.76ZM426.78 100L415.76 100L422.32 46.11L433.33 46.11L426.78 100ZM439.38 62.67L450.40 62.67L445.93 100L434.92 100L439.38 62.67ZM452.48 52.44L452.48 52.44Q452.48 53.78 451.91 54.95Q451.33 56.12 450.40 57.00Q449.46 57.88 448.25 58.40Q447.05 58.92 445.79 58.92L445.79 58.92Q444.53 58.92 443.38 58.40Q442.22 57.88 441.34 57.00Q440.46 56.12 439.92 54.95Q439.38 53.78 439.38 52.44L439.38 52.44Q439.38 51.11 439.92 49.92Q440.46 48.74 441.38 47.84Q442.30 46.94 443.45 46.41Q444.60 45.89 445.86 45.89L445.86 45.89Q447.16 45.89 448.34 46.40Q449.53 46.90 450.45 47.80Q451.37 48.70 451.93 49.89Q452.48 51.08 452.48 52.44ZM483.16 93.45L483.16 93.45Q481.36 95.43 479.70 96.80Q478.04 98.16 476.28 98.99Q474.52 99.82 472.52 100.20Q470.52 100.58 468.11 100.58L468.11 100.58Q464.83 100.58 462.20 99.46Q459.58 98.34 457.72 96.29Q455.87 94.24 454.86 91.32Q453.85 88.41 453.85 84.77L453.85 84.77Q453.85 80.20 455.35 76.10Q456.84 71.99 459.52 68.90Q462.20 65.80 465.88 63.98Q469.55 62.16 473.94 62.16L473.94 62.16Q477.68 62.16 480.37 63.44Q483.05 64.72 485.17 67.46L485.17 67.46L481.57 71.60Q481.18 71.99 480.67 72.30Q480.17 72.60 479.56 72.60L479.56 72.60Q478.84 72.60 478.35 72.30Q477.86 71.99 477.29 71.65Q476.71 71.31 475.88 71.00Q475.06 70.70 473.72 70.70L473.72 70.70Q472.07 70.70 470.50 71.65Q468.94 72.60 467.71 74.40Q466.49 76.20 465.75 78.83Q465.01 81.46 465.01 84.81L465.01 84.81Q465.01 86.68 465.44 88.07Q465.88 89.45 466.63 90.37Q467.39 91.29 468.40 91.76Q469.40 92.22 470.56 92.22L470.56 92.22Q472.28 92.22 473.35 91.74Q474.41 91.25 475.20 90.68Q475.99 90.10 476.68 89.61Q477.36 89.13 478.33 89.13L478.33 89.13Q478.87 89.13 479.39 89.38Q479.92 89.63 480.28 90.06L480.28 90.06L483.16 93.45Z"/></svg>