<svg xmlns="http://www.w3.org/2000/svg" viewBox="8.64 49.023999999999994 260.568 51.552"><path d="M9.50 49.60L9.50 99.21L35.21 99.21L35.21 100L8.64 100L8.64 49.60L9.50 49.60ZM65.02 100L64.87 100Q64.37 100 64.37 99.42L64.37 99.42L64.15 93.70Q62.64 95.28 61.13 96.56Q59.62 97.84 57.92 98.72Q56.23 99.60 54.29 100.09Q52.34 100.58 49.97 100.58L49.97 100.58Q48.38 100.58 46.78 100.09Q45.18 99.60 43.88 98.54Q42.59 97.48 41.78 95.81Q40.97 94.13 40.97 91.72L40.97 91.72Q40.97 89.34 42.35 87.45Q43.74 85.56 46.60 84.23Q49.46 82.90 53.82 82.13Q58.18 81.35 64.15 81.21L64.15 81.21L64.15 76.67Q64.15 73.90 63.54 71.70Q62.93 69.51 61.74 68.00Q60.55 66.48 58.75 65.67Q56.95 64.86 54.58 64.86L54.58 64.86Q52.70 64.86 51.19 65.26Q49.68 65.66 48.49 66.23Q47.30 66.81 46.42 67.49Q45.54 68.18 44.89 68.75Q44.24 69.33 43.85 69.72Q43.45 70.12 43.27 70.12L43.27 70.12Q43.13 70.12 42.91 69.90L42.91 69.90L42.77 69.76Q45.36 67.02 48.13 65.58Q50.90 64.14 54.58 64.14L54.58 64.14Q57.28 64.14 59.24 65.01Q61.20 65.87 62.50 67.49Q63.79 69.11 64.40 71.43Q65.02 73.76 65.02 76.67L65.02 76.67L65.02 100ZM49.97 99.86L49.97 99.86Q52.45 99.86 54.47 99.28Q56.48 98.70 58.18 97.73Q59.87 96.76 61.33 95.48Q62.78 94.20 64.15 92.80L64.15 92.80L64.15 81.93Q52.81 82.29 47.32 84.75Q41.83 87.22 41.83 91.72L41.83 91.72Q41.83 93.84 42.53 95.37Q43.24 96.90 44.37 97.89Q45.50 98.88 46.96 99.37Q48.42 99.86 49.97 99.86ZM85.46 100.58L85.46 100.58Q82.37 100.58 80.60 98.88Q78.84 97.19 78.84 93.30L78.84 93.30L78.84 66.95L73.01 66.95Q72.50 66.95 72.50 66.59L72.50 66.59L72.50 66.38L78.84 66.23L79.13 52.05Q79.13 51.87 79.22 51.71Q79.31 51.54 79.49 51.54L79.49 51.54L79.70 51.54L79.70 66.23L91.73 66.23L91.73 66.95L79.70 66.95L79.70 93.30Q79.70 95.10 80.15 96.35Q80.60 97.59 81.40 98.36Q82.19 99.14 83.23 99.50Q84.28 99.86 85.46 99.86L85.46 99.86Q86.98 99.86 88.11 99.39Q89.24 98.92 90.04 98.38Q90.83 97.84 91.31 97.37Q91.80 96.90 92.02 96.90L92.02 96.90Q92.16 96.90 92.30 97.05L92.30 97.05L92.45 97.19Q91.91 97.91 91.13 98.54Q90.36 99.17 89.44 99.62Q88.52 100.07 87.50 100.32Q86.47 100.58 85.46 100.58ZM114.05 64.14L114.05 64.14Q117.76 64.14 120.64 65.46Q123.52 66.77 125.48 69.15Q127.44 71.52 128.45 74.89Q129.46 78.26 129.46 82.36L129.46 82.36Q129.46 86.46 128.45 89.79Q127.44 93.12 125.48 95.50Q123.52 97.88 120.64 99.15Q117.76 100.43 114.05 100.43L114.05 100.43Q110.30 100.43 107.44 99.15Q104.58 97.88 102.62 95.50Q100.66 93.12 99.65 89.79Q98.64 86.46 98.64 82.36L98.64 82.36Q98.64 78.26 99.65 74.89Q100.66 71.52 102.62 69.15Q104.58 66.77 107.44 65.46Q110.30 64.14 114.05 64.14ZM114.05 99.71L114.05 99.71Q117.65 99.71 120.38 98.45Q123.12 97.19 124.94 94.92Q126.76 92.66 127.67 89.45Q128.59 86.25 128.59 82.36L128.59 82.36Q128.59 78.47 127.67 75.25Q126.76 72.03 124.94 69.72Q123.12 67.42 120.38 66.14Q117.65 64.86 114.05 64.86L114.05 64.86Q110.41 64.86 107.69 66.14Q104.98 67.42 103.16 69.72Q101.34 72.03 100.42 75.25Q99.50 78.47 99.50 82.36L99.50 82.36Q99.50 86.25 100.42 89.45Q101.34 92.66 103.16 94.92Q104.98 97.19 107.69 98.45Q110.41 99.71 114.05 99.71ZM158.76 100L158.76 99.28L171 99.28L171 52.62Q171 52.12 171.04 51.60Q171.07 51.08 171.14 50.57L171.14 50.57L158.11 62.34Q157.93 62.52 157.75 62.52L157.75 62.52Q157.54 62.52 157.39 62.34L157.39 62.34L157.18 62.06L171.36 49.31L171.86 49.31L171.86 99.28L183.82 99.28L183.82 100L158.76 100ZM227.45 74.80L227.45 74.80Q227.45 81.42 226.03 86.27Q224.60 91.11 222.17 94.28Q219.74 97.44 216.49 98.97Q213.23 100.50 209.59 100.50L209.59 100.50Q205.96 100.50 202.70 98.97Q199.44 97.44 197.01 94.28Q194.58 91.11 193.16 86.27Q191.74 81.42 191.74 74.80L191.74 74.80Q191.74 68.18 193.16 63.33Q194.58 58.49 197.01 55.31Q199.44 52.12 202.70 50.57Q205.96 49.02 209.59 49.02L209.59 49.02Q213.23 49.02 216.49 50.57Q219.74 52.12 222.17 55.31Q224.60 58.49 226.03 63.33Q227.45 68.18 227.45 74.80ZM226.51 74.80L226.51 74.80Q226.51 68.32 225.16 63.60Q223.81 58.89 221.51 55.81Q219.20 52.73 216.13 51.24Q213.05 49.74 209.59 49.74L209.59 49.74Q206.14 49.74 203.04 51.24Q199.94 52.73 197.62 55.81Q195.30 58.89 193.95 63.60Q192.60 68.32 192.60 74.80L192.60 74.80Q192.60 81.28 193.95 86.00Q195.30 90.71 197.62 93.77Q199.94 96.83 203.04 98.31Q206.14 99.78 209.59 99.78L209.59 99.78Q213.05 99.78 216.13 98.31Q219.20 96.83 221.51 93.77Q223.81 90.71 225.16 86.00Q226.51 81.28 226.51 74.80ZM269.21 74.80L269.21 74.80Q269.21 81.42 267.79 86.27Q266.36 91.11 263.93 94.28Q261.50 97.44 258.25 98.97Q254.99 100.50 251.35 100.50L251.35 100.50Q247.72 100.50 244.46 98.97Q241.20 97.44 238.77 94.28Q236.34 91.11 234.92 86.27Q233.50 81.42 233.50 74.80L233.50 74.80Q233.50 68.18 234.92 63.33Q236.34 58.49 238.77 55.31Q241.20 52.12 244.46 50.57Q247.72 49.02 251.35 49.02L251.35 49.02Q254.99 49.02 258.25 50.57Q261.50 52.12 263.93 55.31Q266.36 58.49 267.79 63.33Q269.21 68.18 269.21 74.80ZM268.27 74.80L268.27 74.80Q268.27 68.32 266.92 63.60Q265.57 58.89 263.27 55.81Q260.96 52.73 257.89 51.24Q254.81 49.74 251.35 49.74L251.35 49.74Q247.90 49.74 244.80 51.24Q241.70 52.73 239.38 55.81Q237.06 58.89 235.71 63.60Q234.36 68.32 234.36 74.80L234.36 74.80Q234.36 81.28 235.71 86.00Q237.06 90.71 239.38 93.77Q241.70 96.83 244.80 98.31Q247.90 99.78 251.35 99.78L251.35 99.78Q254.81 99.78 257.89 98.31Q260.96 96.83 263.27 93.77Q265.57 90.71 266.92 86.00Q268.27 81.28 268.27 74.80Z"/></svg>