<svg xmlns="http://www.w3.org/2000/svg" viewBox="5.760000000000001 48.16 390.52800000000013 52.416"><path d="M12.82 49.60L6.70 99.21L30.38 99.21L30.24 100L5.76 100L11.95 49.60L12.82 49.60ZM63.79 66.02L59.69 100L59.47 100Q59.22 100 59.13 99.87Q59.04 99.75 59.04 99.57L59.04 99.57L60.77 84.52Q59.40 88.01 57.64 90.95Q55.87 93.88 53.84 95.99Q51.80 98.09 49.54 99.26Q47.27 100.43 44.86 100.43L44.86 100.43Q42.52 100.43 40.88 99.53Q39.24 98.63 38.21 97.01Q37.19 95.39 36.70 93.16Q36.22 90.93 36.22 88.26L36.22 88.26Q36.22 85.24 37.01 82.29Q37.80 79.34 39.20 76.67Q40.61 74.01 42.55 71.74Q44.50 69.47 46.82 67.82Q49.14 66.16 51.75 65.22Q54.36 64.29 57.10 64.29L57.10 64.29Q59.04 64.29 60.66 64.67Q62.28 65.04 63.79 66.02L63.79 66.02ZM44.86 99.71L44.86 99.71Q47.16 99.71 49.41 98.52Q51.66 97.34 53.71 95.10Q55.76 92.87 57.60 89.72Q59.44 86.57 60.95 82.61L60.95 82.61L62.96 66.38Q61.63 65.66 60.19 65.33Q58.75 65.01 57.10 65.01L57.10 65.01Q54.50 65.01 52.02 65.91Q49.54 66.81 47.30 68.39Q45.07 69.98 43.20 72.17Q41.33 74.37 39.96 76.96Q38.59 79.55 37.84 82.43Q37.08 85.31 37.08 88.26L37.08 88.26Q37.08 90.89 37.53 93.00Q37.98 95.10 38.92 96.60Q39.85 98.09 41.33 98.90Q42.80 99.71 44.86 99.71ZM74.81 94.74L74.81 94.74Q74.81 94.56 74.83 94.22Q74.84 93.88 74.90 93.25Q74.95 92.62 75.08 91.63Q75.20 90.64 75.38 89.13L75.38 89.13L78.08 66.95L72.72 66.95Q72.29 66.95 72.29 66.59L72.29 66.59L72.36 66.38L78.16 66.23L80.14 52.05Q80.17 51.87 80.28 51.71Q80.39 51.54 80.57 51.54L80.57 51.54L80.78 51.54L78.98 66.23L90 66.23L89.93 66.95L78.88 66.95L76.18 89.20Q76.00 90.68 75.89 91.65Q75.78 92.62 75.71 93.27Q75.64 93.92 75.62 94.26Q75.60 94.60 75.60 94.74L75.60 94.74Q75.60 96.11 75.94 97.08Q76.28 98.06 76.90 98.67Q77.51 99.28 78.34 99.57Q79.16 99.86 80.14 99.86L80.14 99.86Q81.54 99.86 82.64 99.39Q83.74 98.92 84.55 98.38Q85.36 97.84 85.86 97.37Q86.36 96.90 86.54 96.90L86.54 96.90Q86.69 96.90 86.83 97.05L86.83 97.05L86.90 97.19Q85.72 98.67 83.84 99.62Q81.97 100.58 80.06 100.58L80.06 100.58Q77.58 100.58 76.19 99.21Q74.81 97.84 74.81 94.74ZM106.06 99.71L106.06 99.71Q109.62 99.71 112.55 97.89Q115.49 96.08 117.58 93.09Q119.66 90.10 120.82 86.28Q121.97 82.47 121.97 78.47L121.97 78.47Q121.97 75.30 121.18 72.78Q120.38 70.26 118.91 68.50Q117.43 66.74 115.34 65.80Q113.26 64.86 110.66 64.86L110.66 64.86Q108.29 64.86 106.18 65.69Q104.08 66.52 102.31 67.98Q100.55 69.44 99.14 71.43Q97.74 73.43 96.77 75.79Q95.80 78.15 95.27 80.78Q94.75 83.40 94.75 86.10L94.75 86.10Q94.75 89.27 95.54 91.79Q96.34 94.31 97.79 96.08Q99.25 97.84 101.34 98.78Q103.43 99.71 106.06 99.71ZM105.98 100.43L105.98 100.43Q103.18 100.43 100.93 99.42Q98.68 98.42 97.11 96.56Q95.54 94.71 94.72 92.06Q93.89 89.42 93.89 86.10L93.89 86.10Q93.89 83.33 94.43 80.63Q94.97 77.93 95.99 75.48Q97.02 73.04 98.48 70.97Q99.94 68.90 101.81 67.38Q103.68 65.87 105.93 65.01Q108.18 64.14 110.74 64.14L110.74 64.14Q113.54 64.14 115.78 65.15Q118.01 66.16 119.57 68.03Q121.14 69.90 121.99 72.55Q122.83 75.20 122.83 78.47L122.83 78.47Q122.83 81.21 122.29 83.91Q121.75 86.61 120.73 89.06Q119.70 91.50 118.24 93.59Q116.78 95.68 114.91 97.19Q113.04 98.70 110.79 99.57Q108.54 100.43 105.98 100.43ZM146.52 94.74L146.52 94.74Q146.52 94.56 146.54 94.22Q146.56 93.88 146.61 93.25Q146.66 92.62 146.79 91.63Q146.92 90.64 147.10 89.13L147.10 89.13L149.80 66.95L144.43 66.95Q144 66.95 144 66.59L144 66.59L144.07 66.38L149.87 66.23L151.85 52.05Q151.88 51.87 151.99 51.71Q152.10 51.54 152.28 51.54L152.28 51.54L152.50 51.54L150.70 66.23L161.71 66.23L161.64 66.95L150.59 66.95L147.89 89.20Q147.71 90.68 147.60 91.65Q147.49 92.62 147.42 93.27Q147.35 93.92 147.33 94.26Q147.31 94.60 147.31 94.74L147.31 94.74Q147.31 96.11 147.65 97.08Q148.00 98.06 148.61 98.67Q149.22 99.28 150.05 99.57Q150.88 99.86 151.85 99.86L151.85 99.86Q153.25 99.86 154.35 99.39Q155.45 98.92 156.26 98.38Q157.07 97.84 157.57 97.37Q158.08 96.90 158.26 96.90L158.26 96.90Q158.40 96.90 158.54 97.05L158.54 97.05L158.62 97.19Q157.43 98.67 155.56 99.62Q153.68 100.58 151.78 100.58L151.78 100.58Q149.29 100.58 147.91 99.21Q146.52 97.84 146.52 94.74ZM167.76 100L166.97 100L173.23 48.16L174.02 48.16L170.35 78.44Q171.79 75.20 173.65 72.57Q175.50 69.94 177.61 68.09Q179.71 66.23 182.00 65.22Q184.28 64.22 186.55 64.22L186.55 64.22Q190.48 64.22 192.28 66.66Q194.08 69.11 194.08 73.68L194.08 73.68Q194.08 74.55 194.00 75.47Q193.93 76.38 193.82 77.39L193.82 77.39L191.16 100L190.37 100L193.03 77.39Q193.25 75.52 193.25 73.83L193.25 73.83Q193.25 69.58 191.65 67.26Q190.04 64.94 186.48 64.94L186.48 64.94Q184.28 64.94 182.03 66.00Q179.78 67.06 177.66 69.06Q175.54 71.06 173.61 73.90Q171.68 76.74 170.14 80.27L170.14 80.27L167.76 100ZM208.15 64.72L208.94 64.72L204.62 100L203.83 100L208.15 64.72ZM211.75 51.62L211.75 51.62Q211.75 52.37 211.18 52.97Q210.60 53.56 209.88 53.56L209.88 53.56Q209.12 53.56 208.57 52.97Q208.01 52.37 208.01 51.62L208.01 51.62Q208.01 50.79 208.57 50.19Q209.12 49.60 209.88 49.60L209.88 49.60Q210.60 49.60 211.18 50.19Q211.75 50.79 211.75 51.62ZM218.95 100L218.16 100L222.41 64.58L222.55 64.58Q222.84 64.58 222.91 64.74Q222.98 64.90 222.98 65.08L222.98 65.08L221.44 78.87Q222.88 75.52 224.75 72.82Q226.62 70.12 228.76 68.19Q230.90 66.27 233.21 65.24Q235.51 64.22 237.82 64.22L237.82 64.22Q241.70 64.22 243.52 66.68Q245.34 69.15 245.34 73.76L245.34 73.76Q245.34 74.58 245.27 75.50Q245.20 76.42 245.09 77.39L245.09 77.39L242.42 100L241.63 100L244.30 77.39Q244.40 76.46 244.48 75.56Q244.55 74.66 244.55 73.83L244.55 73.83Q244.55 69.58 242.93 67.26Q241.31 64.94 237.74 64.94L237.74 64.94Q235.51 64.94 233.23 66.03Q230.94 67.13 228.80 69.17Q226.66 71.20 224.73 74.10Q222.80 77.00 221.26 80.60L221.26 80.60L218.95 100ZM273.31 64.72L274.10 64.72L269.78 100L268.99 100L273.31 64.72ZM276.91 51.62L276.91 51.62Q276.91 52.37 276.34 52.97Q275.76 53.56 275.04 53.56L275.04 53.56Q274.28 53.56 273.73 52.97Q273.17 52.37 273.17 51.62L273.17 51.62Q273.17 50.79 273.73 50.19Q274.28 49.60 275.04 49.60L275.04 49.60Q275.76 49.60 276.34 50.19Q276.91 50.79 276.91 51.62ZM285.98 94.74L285.98 94.74Q285.98 94.56 286.00 94.22Q286.02 93.88 286.07 93.25Q286.13 92.62 286.25 91.63Q286.38 90.64 286.56 89.13L286.56 89.13L289.26 66.95L283.90 66.95Q283.46 66.95 283.46 66.59L283.46 66.59L283.54 66.38L289.33 66.23L291.31 52.05Q291.35 51.87 291.46 51.71Q291.56 51.54 291.74 51.54L291.74 51.54L291.96 51.54L290.16 66.23L301.18 66.23L301.10 66.95L290.05 66.95L287.35 89.20Q287.17 90.68 287.06 91.65Q286.96 92.62 286.88 93.27Q286.81 93.92 286.79 94.26Q286.78 94.60 286.78 94.74L286.78 94.74Q286.78 96.11 287.12 97.08Q287.46 98.06 288.07 98.67Q288.68 99.28 289.51 99.57Q290.34 99.86 291.31 99.86L291.31 99.86Q292.72 99.86 293.81 99.39Q294.91 98.92 295.72 98.38Q296.53 97.84 297.04 97.37Q297.54 96.90 297.72 96.90L297.72 96.90Q297.86 96.90 298.01 97.05L298.01 97.05L298.08 97.19Q296.89 98.67 295.02 99.62Q293.15 100.58 291.24 100.58L291.24 100.58Q288.76 100.58 287.37 99.21Q285.98 97.84 285.98 94.74ZM332.14 66.02L328.03 100L327.82 100Q327.56 100 327.47 99.87Q327.38 99.75 327.38 99.57L327.38 99.57L329.11 84.52Q327.74 88.01 325.98 90.95Q324.22 93.88 322.18 95.99Q320.15 98.09 317.88 99.26Q315.61 100.43 313.20 100.43L313.20 100.43Q310.86 100.43 309.22 99.53Q307.58 98.63 306.56 97.01Q305.53 95.39 305.05 93.16Q304.56 90.93 304.56 88.26L304.56 88.26Q304.56 85.24 305.35 82.29Q306.14 79.34 307.55 76.67Q308.95 74.01 310.90 71.74Q312.84 69.47 315.16 67.82Q317.48 66.16 320.09 65.22Q322.70 64.29 325.44 64.29L325.44 64.29Q327.38 64.29 329.00 64.67Q330.62 65.04 332.14 66.02L332.14 66.02ZM313.20 99.71L313.20 99.71Q315.50 99.71 317.75 98.52Q320.00 97.34 322.06 95.10Q324.11 92.87 325.94 89.72Q327.78 86.57 329.29 82.61L329.29 82.61L331.31 66.38Q329.98 65.66 328.54 65.33Q327.10 65.01 325.44 65.01L325.44 65.01Q322.85 65.01 320.36 65.91Q317.88 66.81 315.65 68.39Q313.42 69.98 311.54 72.17Q309.67 74.37 308.30 76.96Q306.94 79.55 306.18 82.43Q305.42 85.31 305.42 88.26L305.42 88.26Q305.42 90.89 305.87 93.00Q306.32 95.10 307.26 96.60Q308.20 98.09 309.67 98.90Q311.15 99.71 313.20 99.71ZM342.22 100L341.50 100L347.76 48.16L348.55 48.16L342.22 100ZM361.08 64.72L361.87 64.72L357.55 100L356.76 100L361.08 64.72ZM364.68 51.62L364.68 51.62Q364.68 52.37 364.10 52.97Q363.53 53.56 362.81 53.56L362.81 53.56Q362.05 53.56 361.49 52.97Q360.94 52.37 360.94 51.62L360.94 51.62Q360.94 50.79 361.49 50.19Q362.05 49.60 362.81 49.60L362.81 49.60Q363.53 49.60 364.10 50.19Q364.68 50.79 364.68 51.62ZM394.99 93.45L394.99 93.45Q393.01 95.64 391.30 97.01Q389.59 98.38 387.97 99.14Q386.35 99.89 384.77 100.16Q383.18 100.43 381.46 100.43L381.46 100.43Q378.43 100.43 376.25 99.37Q374.08 98.31 372.67 96.47Q371.27 94.64 370.60 92.12Q369.94 89.60 369.94 86.68L369.94 86.68Q369.94 83.91 370.51 81.14Q371.09 78.36 372.15 75.86Q373.21 73.36 374.72 71.22Q376.24 69.08 378.13 67.51Q380.02 65.94 382.25 65.04Q384.48 64.14 387.00 64.14L387.00 64.14Q388.73 64.14 390.11 64.49Q391.50 64.83 392.62 65.46Q393.73 66.09 394.63 66.95Q395.53 67.82 396.29 68.82L396.29 68.82L396.14 68.97Q396.00 69.11 395.78 69.11L395.78 69.11Q395.53 69.11 395.03 68.45Q394.52 67.78 393.52 66.99Q392.51 66.20 390.92 65.53Q389.34 64.86 386.93 64.86L386.93 64.86Q383.44 64.86 380.48 66.74Q377.53 68.61 375.37 71.67Q373.21 74.73 372.01 78.65Q370.80 82.58 370.80 86.68L370.80 86.68Q370.80 89.42 371.39 91.79Q371.99 94.17 373.28 95.93Q374.58 97.70 376.60 98.70Q378.61 99.71 381.46 99.71L381.46 99.71Q383.62 99.71 385.36 99.23Q387.11 98.74 388.46 98.02Q389.81 97.30 390.82 96.47Q391.82 95.64 392.56 94.92Q393.30 94.20 393.77 93.72Q394.24 93.23 394.56 93.23L394.56 93.23Q394.67 93.23 394.74 93.25Q394.81 93.27 394.99 93.45Z"/></svg>