<svg xmlns="http://www.w3.org/2000/svg" viewBox="0.485 -7.165 17.475 7.245"><path d="M2.31-7.17L1.52-0.79L4.35-0.79L4.25 0L0.48 0L1.37-7.17L2.31-7.17ZM9.42-4.90L8.82 0L8.36 0Q8.18 0 8.12-0.09Q8.05-0.18 8.05-0.31L8.05-0.31L8.14-1.33Q7.96-1.02 7.76-0.76Q7.55-0.49 7.32-0.31Q7.09-0.13 6.83-0.03Q6.58 0.07 6.30 0.07L6.30 0.07Q6 0.07 5.76-0.05Q5.51-0.17 5.34-0.39Q5.17-0.62 5.07-0.95Q4.98-1.28 4.98-1.72L4.98-1.72Q4.98-2.17 5.09-2.59Q5.20-3.02 5.41-3.40Q5.62-3.78 5.91-4.10Q6.20-4.42 6.55-4.65Q6.91-4.88 7.32-5.01Q7.73-5.13 8.18-5.13L8.18-5.13Q8.51-5.13 8.81-5.08Q9.12-5.03 9.42-4.90L9.42-4.90ZM6.64-0.67L6.64-0.67Q6.88-0.67 7.12-0.82Q7.35-0.97 7.56-1.25Q7.77-1.52 7.95-1.89Q8.13-2.26 8.28-2.71L8.28-2.71L8.49-4.45Q8.38-4.47 8.27-4.48Q8.17-4.49 8.06-4.49L8.06-4.49Q7.76-4.49 7.48-4.39Q7.20-4.29 6.96-4.12Q6.71-3.94 6.51-3.70Q6.31-3.46 6.17-3.17Q6.03-2.88 5.95-2.55Q5.87-2.22 5.87-1.88L5.87-1.88Q5.87-0.67 6.64-0.67ZM10.58-0.96L10.58-0.96Q10.58-0.98 10.58-1.03Q10.59-1.08 10.59-1.17Q10.60-1.26 10.62-1.41Q10.63-1.55 10.66-1.79L10.66-1.79L10.97-4.32L10.41-4.32Q10.35-4.32 10.30-4.36Q10.26-4.40 10.26-4.48L10.26-4.48Q10.26-4.49 10.27-4.54Q10.27-4.58 10.28-4.64Q10.29-4.70 10.29-4.75Q10.30-4.82 10.30-4.87L10.30-4.87L11.09-4.98L11.46-6.54Q11.48-6.62 11.54-6.66Q11.59-6.71 11.67-6.71L11.67-6.71L12.14-6.71L11.92-4.96L13.25-4.96L13.18-4.32L11.84-4.32L11.54-1.83Q11.51-1.63 11.50-1.50Q11.48-1.38 11.48-1.30Q11.47-1.23 11.47-1.20Q11.46-1.17 11.46-1.15L11.46-1.15Q11.46-0.90 11.58-0.77Q11.70-0.65 11.91-0.65L11.91-0.65Q12.04-0.65 12.13-0.69Q12.23-0.72 12.31-0.77Q12.38-0.82 12.43-0.85Q12.48-0.89 12.52-0.89L12.52-0.89Q12.56-0.89 12.58-0.87Q12.61-0.85 12.63-0.81L12.63-0.81L12.82-0.38Q12.57-0.17 12.26-0.04Q11.95 0.08 11.63 0.08L11.63 0.08Q11.15 0.08 10.87-0.18Q10.59-0.45 10.58-0.96ZM15.45-0.63L15.45-0.63Q15.82-0.63 16.12-0.83Q16.41-1.02 16.63-1.36Q16.84-1.69 16.95-2.13Q17.07-2.56 17.07-3.04L17.07-3.04Q17.07-3.73 16.79-4.09Q16.52-4.45 16.00-4.45L16.00-4.45Q15.63-4.45 15.33-4.25Q15.03-4.05 14.82-3.72Q14.61-3.39 14.50-2.95Q14.38-2.52 14.38-2.04L14.38-2.04Q14.38-1.34 14.65-0.98Q14.93-0.63 15.45-0.63ZM15.37 0.07L15.37 0.07Q14.96 0.07 14.61-0.07Q14.27-0.21 14.02-0.48Q13.77-0.76 13.63-1.15Q13.49-1.54 13.49-2.04L13.49-2.04Q13.49-2.68 13.69-3.24Q13.89-3.81 14.23-4.23Q14.58-4.66 15.05-4.90Q15.53-5.15 16.08-5.15L16.08-5.15Q16.49-5.15 16.84-5.00Q17.18-4.86 17.43-4.59Q17.68-4.32 17.82-3.93Q17.96-3.54 17.96-3.04L17.96-3.04Q17.96-2.41 17.76-1.84Q17.56-1.28 17.21-0.85Q16.87-0.42 16.39-0.18Q15.92 0.07 15.37 0.07Z"/></svg>