<svg xmlns="http://www.w3.org/2000/svg" viewBox="0.6 -7.285 19.529999999999998 7.365"><path d="M2.29-7.29L2.29-1.35L4.99-1.35L4.99 0L0.60 0L0.60-7.29L2.29-7.29ZM10.08 0L9.37 0Q9.15 0 9.04-0.06Q8.93-0.12 8.85-0.31L8.85-0.31L8.74-0.59Q8.54-0.43 8.37-0.30Q8.19-0.18 7.99-0.09Q7.80-0.01 7.58 0.04Q7.37 0.08 7.10 0.08L7.10 0.08Q6.75 0.08 6.46-0.01Q6.17-0.10 5.96-0.29Q5.76-0.47 5.65-0.73Q5.54-1 5.54-1.35L5.54-1.35Q5.54-1.63 5.68-1.92Q5.82-2.21 6.17-2.44Q6.51-2.68 7.10-2.84Q7.68-3 8.57-3.02L8.57-3.02L8.57-3.24Q8.57-3.70 8.38-3.90Q8.20-4.10 7.85-4.10L7.85-4.10Q7.58-4.10 7.40-4.04Q7.23-3.98 7.09-3.91Q6.95-3.83 6.82-3.77Q6.69-3.71 6.51-3.71L6.51-3.71Q6.35-3.71 6.24-3.79Q6.13-3.87 6.06-3.98L6.06-3.98L5.78-4.46Q6.25-4.88 6.82-5.08Q7.40-5.29 8.05-5.29L8.05-5.29Q8.52-5.29 8.90-5.13Q9.28-4.98 9.54-4.71Q9.80-4.44 9.94-4.06Q10.08-3.69 10.08-3.24L10.08-3.24L10.08 0ZM7.59-0.95L7.59-0.95Q7.89-0.95 8.12-1.05Q8.34-1.16 8.57-1.39L8.57-1.39L8.57-2.11Q8.11-2.09 7.81-2.03Q7.51-1.97 7.33-1.88Q7.16-1.79 7.09-1.68Q7.02-1.56 7.02-1.43L7.02-1.43Q7.02-1.16 7.17-1.05Q7.31-0.95 7.59-0.95ZM13 0.08L13 0.08Q12.63 0.08 12.35-0.03Q12.06-0.14 11.87-0.33Q11.68-0.53 11.58-0.81Q11.48-1.09 11.48-1.44L11.48-1.44L11.48-4.12L11.04-4.12Q10.92-4.12 10.84-4.19Q10.75-4.27 10.75-4.42L10.75-4.42L10.75-5.03L11.57-5.19L11.88-6.45Q11.94-6.69 12.22-6.69L12.22-6.69L13.03-6.69L13.03-5.17L14.29-5.17L14.29-4.12L13.03-4.12L13.03-1.54Q13.03-1.36 13.12-1.24Q13.21-1.13 13.37-1.13L13.37-1.13Q13.46-1.13 13.51-1.14Q13.57-1.16 13.61-1.18Q13.66-1.21 13.69-1.22Q13.73-1.24 13.78-1.24L13.78-1.24Q13.85-1.24 13.89-1.21Q13.94-1.18 13.98-1.10L13.98-1.10L14.45-0.37Q14.15-0.14 13.78-0.03Q13.40 0.08 13 0.08ZM17.49-5.26L17.49-5.26Q18.08-5.26 18.57-5.08Q19.05-4.90 19.40-4.55Q19.75-4.21 19.94-3.71Q20.13-3.22 20.13-2.60L20.13-2.60Q20.13-1.99 19.94-1.49Q19.75-0.99 19.40-0.64Q19.05-0.29 18.57-0.11Q18.08 0.08 17.49 0.08L17.49 0.08Q16.89 0.08 16.41-0.11Q15.92-0.29 15.57-0.64Q15.21-0.99 15.02-1.49Q14.83-1.99 14.83-2.60L14.83-2.60Q14.83-3.22 15.02-3.71Q15.21-4.21 15.57-4.55Q15.92-4.90 16.41-5.08Q16.89-5.26 17.49-5.26ZM17.49-1.07L17.49-1.07Q18.02-1.07 18.28-1.45Q18.53-1.82 18.53-2.60L18.53-2.60Q18.53-3.37 18.28-3.74Q18.02-4.12 17.49-4.12L17.49-4.12Q16.94-4.12 16.68-3.74Q16.43-3.37 16.43-2.60L16.43-2.60Q16.43-1.82 16.68-1.45Q16.94-1.07 17.49-1.07Z"/></svg>