<svg xmlns="http://www.w3.org/2000/svg" viewBox="6.264000000000001 46.971999999999994 373.968 66.168"><path d="M13 48L13 94L36 94L36 100L6 100L6 48L13 48ZM69 77L69 100L66 100Q65 100 65 100Q64 99 64 98L64 98L63 95Q62 96 60 97Q59 98 58 99Q56 100 54 100Q53 101 51 101L51 101Q48 101 47 100Q45 99 43 98Q42 97 41 95Q40 93 40 91L40 91Q40 89 42 87Q43 85 45 83Q48 82 52 81Q57 80 63 80L63 80L63 77Q63 72 61 70Q59 68 56 68L56 68Q53 68 52 69Q50 69 49 70Q48 71 47 71Q46 72 45 72L45 72Q44 72 44 72Q44 71 43 71L43 71L42 69Q45 66 49 64Q52 63 56 63L56 63Q59 63 62 64Q64 65 66 67Q67 69 68 71Q69 74 69 77L69 77ZM52 96L52 96Q54 96 56 96Q57 95 58 95Q59 94 61 93Q62 92 63 91L63 91L63 84Q58 84 55 84Q52 85 50 86Q48 87 47 88Q46 89 46 91L46 91Q46 92 47 93Q47 94 48 95Q49 95 50 96Q51 96 52 96ZM90 101L90 101Q86 101 83 98Q81 96 81 91L81 91L81 69L76 69Q76 69 75 69Q75 68 75 67L75 67L75 65L81 64L83 53Q83 52 83 52Q83 52 84 52L84 52L87 52L87 64L98 64L98 69L87 69L87 91Q87 93 88 94Q89 95 91 95L91 95Q92 95 93 95Q94 95 94 94Q95 94 95 94Q96 94 96 94L96 94Q96 94 97 94L97 94L99 97Q97 99 95 100Q92 101 90 101ZM120 63L120 63Q124 63 128 64Q131 66 133 68Q135 71 137 74Q138 77 138 82L138 82Q138 86 137 90Q135 93 133 95Q131 98 128 99Q124 101 120 101L120 101Q116 101 113 99Q110 98 108 95Q105 93 104 90Q103 86 103 82L103 82Q103 77 104 74Q105 71 108 68Q110 66 113 64Q116 63 120 63ZM120 96L120 96Q126 96 128 92Q131 88 131 82L131 82Q131 75 128 72Q126 68 120 68L120 68Q118 68 116 69Q114 70 112 72Q111 73 110 76Q110 79 110 82L110 82Q110 85 110 88Q111 90 112 92Q114 94 116 95Q118 96 120 96ZM166 100L160 100L160 64L163 64Q164 64 165 64Q165 64 165 65L165 65L166 71Q168 67 170 65Q173 63 177 63L177 63Q178 63 179 63Q181 64 182 64L182 64L181 69Q181 70 180 70L180 70Q179 70 178 70Q177 69 175 69L175 69Q172 69 170 71Q167 73 166 77L166 77L166 100ZM203 63L203 63Q206 63 209 64Q212 65 214 67Q216 69 217 72Q218 75 218 79L218 79Q218 81 218 81Q217 82 217 82L217 82L192 82Q192 85 193 88Q194 90 196 92Q197 94 199 95Q201 95 204 95L204 95Q206 95 208 95Q210 94 211 94Q212 93 213 92Q214 92 215 92L215 92Q215 92 216 93L216 93L218 95Q216 96 215 97Q213 98 211 99Q209 100 207 100Q205 101 203 101L203 101Q200 101 196 99Q193 98 191 95Q189 93 187 89Q186 86 186 81L186 81Q186 77 187 74Q188 71 191 68Q193 66 196 64Q199 63 203 63ZM203 68L203 68Q199 68 196 70Q193 73 193 78L193 78L212 78Q212 76 212 74Q211 72 210 70Q209 69 207 68Q205 68 203 68ZM239 63L239 63Q241 63 243 63Q245 64 247 65L247 65L257 65L257 67Q257 69 255 69L255 69L251 69Q252 72 252 75L252 75Q252 77 251 79Q250 82 248 83Q247 85 244 86Q242 86 239 86L239 86Q236 86 234 86L234 86Q233 87 232 87Q231 88 231 89L231 89Q231 90 232 91Q233 92 235 92Q237 92 239 92Q241 92 244 92Q246 93 248 93Q250 93 252 94Q254 95 255 97Q256 98 256 101L256 101Q256 103 255 105Q254 108 251 109Q249 111 246 112Q243 113 239 113L239 113Q235 113 232 112Q229 112 227 110Q225 109 224 107Q223 105 223 103L223 103Q223 101 225 99Q226 97 229 96L229 96Q228 95 227 94Q226 93 226 91L226 91Q226 90 226 89Q226 88 227 87Q228 87 228 86Q229 85 231 85L231 85Q228 83 226 81Q225 78 225 75L225 75Q225 72 226 70Q227 68 229 66Q230 65 233 64Q236 63 239 63ZM250 102L250 102Q250 101 249 100Q248 99 247 99Q246 98 244 98Q242 98 241 98Q239 97 237 97Q235 97 233 97L233 97Q231 98 230 99Q228 101 228 103L228 103Q228 104 229 105Q230 106 231 107Q232 108 234 108Q236 108 239 108L239 108Q241 108 244 108Q246 108 247 107Q248 106 249 105Q250 103 250 102ZM239 82L239 82Q241 82 242 82Q244 81 245 80Q246 79 246 78Q247 76 247 75L247 75Q247 71 244 70Q242 68 239 68L239 68Q235 68 233 70Q231 71 231 75L231 75Q231 76 231 78Q232 79 233 80Q234 81 235 82Q237 82 239 82ZM262 64L269 64L269 87Q269 91 271 93Q272 95 276 95L276 95Q279 95 282 94Q284 93 286 90L286 90L286 64L293 64L293 100L289 100Q287 100 287 99L287 99L287 95Q284 97 281 99Q278 101 274 101L274 101Q271 101 269 100Q267 99 265 97Q264 95 263 92Q262 90 262 87L262 87L262 64ZM304 47L310 47L310 100L304 100L304 47ZM348 77L348 100L345 100Q345 100 344 100Q343 99 343 98L343 98L343 95Q341 96 340 97Q338 98 337 99Q335 100 334 100Q332 101 330 101L330 101Q328 101 326 100Q324 99 323 98Q321 97 320 95Q320 93 320 91L320 91Q320 89 321 87Q322 85 325 83Q327 82 332 81Q336 80 342 80L342 80L342 77Q342 72 340 70Q338 68 335 68L335 68Q332 68 331 69Q329 69 328 70Q327 71 326 71Q325 72 324 72L324 72Q324 72 323 72Q323 71 323 71L323 71L321 69Q324 66 328 64Q331 63 336 63L336 63Q339 63 341 64Q343 65 345 67Q347 69 348 71Q348 74 348 77L348 77ZM332 96L332 96Q333 96 335 96Q336 95 337 95Q339 94 340 93Q341 92 342 91L342 91L342 84Q338 84 335 84Q331 85 329 86Q328 87 327 88Q326 89 326 91L326 91Q326 92 326 93Q327 94 327 95Q328 95 329 96Q330 96 332 96ZM364 100L358 100L358 64L362 64Q363 64 363 64Q364 64 364 65L364 65L364 71Q366 67 369 65Q372 63 375 63L375 63Q377 63 378 63Q379 64 380 64L380 64L379 69Q379 70 378 70L378 70Q378 70 377 70Q376 69 374 69L374 69Q370 69 368 71Q366 73 364 77L364 77L364 100Z"/></svg>