<svg xmlns="http://www.w3.org/2000/svg" viewBox="0.22 -7.285 18.515 7.365"><path d="M2.75-7.29L2.01-1.30L4.46-1.30L4.30 0L0.22 0L1.12-7.29L2.75-7.29ZM9.89-5.04L9.27 0L8.44 0Q8.29 0 8.19-0.04Q8.10-0.07 8.04-0.14Q7.98-0.21 7.96-0.29Q7.94-0.39 7.94-0.49L7.94-0.49L7.94-0.86Q7.62-0.42 7.22-0.17Q6.84 0.08 6.37 0.08L6.37 0.08Q6.08 0.08 5.83-0.03Q5.57-0.14 5.37-0.37Q5.17-0.60 5.04-0.95Q4.92-1.30 4.92-1.79L4.92-1.79Q4.92-2.49 5.18-3.12Q5.44-3.75 5.90-4.23Q6.37-4.71 7-4.99Q7.63-5.26 8.39-5.26L8.39-5.26Q8.77-5.26 9.14-5.21Q9.53-5.17 9.89-5.04L9.89-5.04ZM6.99-1.15L6.99-1.15Q7.16-1.15 7.32-1.27Q7.47-1.40 7.62-1.62Q7.76-1.84 7.88-2.14Q8-2.43 8.09-2.77L8.09-2.77L8.27-4.20L8.18-4.20Q7.79-4.20 7.48-4.03Q7.17-3.86 6.95-3.57Q6.72-3.27 6.60-2.89Q6.48-2.50 6.48-2.06L6.48-2.06Q6.48-1.81 6.52-1.64Q6.56-1.46 6.62-1.35Q6.69-1.25 6.78-1.20Q6.88-1.15 6.99-1.15ZM10.75-1.12L10.75-1.12Q10.75-1.16 10.75-1.21Q10.75-1.26 10.75-1.35Q10.76-1.44 10.78-1.59Q10.79-1.75 10.83-2.00L10.83-2.00L11.09-4.12L10.68-4.12Q10.58-4.12 10.52-4.18Q10.45-4.24 10.45-4.37L10.45-4.37Q10.45-4.37 10.46-4.45Q10.47-4.54 10.48-4.63Q10.49-4.72 10.50-4.80Q10.51-4.88 10.51-4.89L10.51-4.89L10.53-5.03L11.31-5.19L11.75-6.45Q11.82-6.69 12.09-6.69L12.09-6.69L12.93-6.69L12.73-5.17L13.89-5.17L13.77-4.12L12.61-4.12L12.36-2.08Q12.33-1.88 12.32-1.76Q12.30-1.64 12.30-1.58Q12.29-1.52 12.29-1.49Q12.29-1.47 12.29-1.47L12.29-1.47Q12.29-1.32 12.35-1.22Q12.42-1.13 12.57-1.13L12.57-1.13Q12.64-1.13 12.70-1.14Q12.75-1.16 12.79-1.18Q12.83-1.21 12.87-1.22Q12.90-1.24 12.95-1.24L12.95-1.24Q13.02-1.24 13.05-1.21Q13.09-1.18 13.12-1.10L13.12-1.10L13.46-0.37Q13.14-0.14 12.79-0.03Q12.44 0.08 12.07 0.08L12.07 0.08Q11.78 0.08 11.54-0.00Q11.29-0.09 11.12-0.24Q10.95-0.40 10.85-0.62Q10.76-0.84 10.75-1.12ZM16.07-1.07L16.07-1.07Q16.34-1.07 16.54-1.23Q16.75-1.39 16.89-1.66Q17.03-1.93 17.11-2.29Q17.19-2.66 17.19-3.06L17.19-3.06Q17.19-3.63 17.03-3.87Q16.88-4.12 16.54-4.12L16.54-4.12Q16.28-4.12 16.07-3.96Q15.87-3.80 15.72-3.53Q15.58-3.26 15.50-2.90Q15.43-2.53 15.43-2.12L15.43-2.12Q15.43-1.56 15.58-1.32Q15.73-1.07 16.07-1.07ZM15.94 0.08L15.94 0.08Q15.50 0.08 15.12-0.07Q14.75-0.21 14.47-0.49Q14.19-0.77 14.03-1.17Q13.88-1.58 13.88-2.11L13.88-2.11Q13.88-2.80 14.10-3.38Q14.33-3.96 14.71-4.38Q15.10-4.79 15.61-5.03Q16.12-5.26 16.68-5.26L16.68-5.26Q17.11-5.26 17.48-5.12Q17.86-4.98 18.14-4.70Q18.41-4.42 18.58-4.01Q18.73-3.60 18.73-3.08L18.73-3.08Q18.73-2.40 18.51-1.82Q18.28-1.24 17.89-0.82Q17.51-0.40 17.00-0.16Q16.50 0.08 15.94 0.08Z"/></svg>