<svg xmlns="http://www.w3.org/2000/svg" viewBox="0.655 -7.075 16.825 7.155"><path d="M2.02-7.08L1.20-0.42L4.28-0.42L4.22 0L0.66 0L1.53-7.08L2.02-7.08ZM9.12-4.80L8.54 0L8.30 0Q8.21 0 8.17-0.04Q8.13-0.09 8.13-0.15L8.13-0.15L8.30-1.72Q8.11-1.32 7.88-0.99Q7.66-0.67 7.40-0.43Q7.14-0.20 6.86-0.07Q6.57 0.07 6.27 0.07L6.27 0.07Q5.95 0.07 5.71-0.06Q5.48-0.18 5.32-0.41Q5.17-0.63 5.08-0.95Q5.00-1.27 5.00-1.67L5.00-1.67Q5.00-2.10 5.12-2.52Q5.22-2.94 5.43-3.31Q5.63-3.69 5.91-4.00Q6.19-4.32 6.53-4.55Q6.87-4.78 7.25-4.91Q7.63-5.04 8.04-5.04L8.04-5.04Q8.35-5.04 8.61-4.99Q8.87-4.94 9.12-4.80L9.12-4.80ZM6.42-0.33L6.42-0.33Q6.71-0.33 6.98-0.49Q7.26-0.65 7.51-0.94Q7.76-1.24 7.98-1.65Q8.21-2.06 8.38-2.56L8.38-2.56L8.63-4.58Q8.34-4.69 7.99-4.69L7.99-4.69Q7.66-4.69 7.34-4.57Q7.03-4.46 6.75-4.26Q6.47-4.06 6.24-3.79Q6.00-3.51 5.83-3.18Q5.67-2.85 5.57-2.49Q5.48-2.13 5.48-1.75L5.48-1.75Q5.48-1.07 5.71-0.70Q5.94-0.33 6.42-0.33ZM10.48-0.83L10.48-0.83Q10.48-0.86 10.48-0.91Q10.49-0.96 10.49-1.04Q10.50-1.14 10.52-1.28Q10.54-1.42 10.56-1.64L10.56-1.64L10.90-4.46L10.25-4.46Q10.14-4.46 10.14-4.56L10.14-4.56L10.17-4.76L10.96-4.83L11.29-6.61Q11.29-6.65 11.33-6.69Q11.37-6.72 11.42-6.72L11.42-6.72L11.64-6.72L11.41-4.82L12.85-4.82L12.81-4.46L11.37-4.46L11.03-1.66Q11-1.45 10.99-1.32Q10.97-1.19 10.96-1.11Q10.95-1.02 10.95-0.98Q10.95-0.95 10.95-0.93L10.95-0.93Q10.95-0.60 11.10-0.46Q11.25-0.31 11.49-0.31L11.49-0.31Q11.66-0.31 11.78-0.36Q11.91-0.42 12.01-0.48Q12.10-0.54 12.16-0.59Q12.22-0.65 12.25-0.65L12.25-0.65Q12.28-0.65 12.29-0.63Q12.31-0.62 12.33-0.59L12.33-0.59L12.42-0.39Q12.21-0.18 11.93-0.05Q11.64 0.08 11.36 0.08L11.36 0.08Q10.95 0.08 10.72-0.14Q10.49-0.37 10.48-0.83ZM15.06-0.31L15.06-0.31Q15.50-0.31 15.86-0.54Q16.21-0.77 16.47-1.14Q16.73-1.52 16.86-2.01Q17-2.50 17-3.01L17-3.01Q17-3.81 16.64-4.25Q16.29-4.68 15.66-4.68L15.66-4.68Q15.37-4.68 15.12-4.58Q14.86-4.48 14.64-4.29Q14.43-4.11 14.26-3.85Q14.08-3.60 13.97-3.30Q13.85-3 13.79-2.67Q13.72-2.33 13.72-1.98L13.72-1.98Q13.72-1.19 14.08-0.75Q14.43-0.31 15.06-0.31ZM15.02 0.07L15.02 0.07Q14.63 0.07 14.30-0.07Q13.97-0.21 13.74-0.48Q13.50-0.74 13.38-1.12Q13.25-1.50 13.25-1.98L13.25-1.98Q13.25-2.58 13.43-3.14Q13.61-3.70 13.94-4.13Q14.27-4.55 14.71-4.80Q15.16-5.05 15.71-5.05L15.71-5.05Q16.11-5.05 16.43-4.91Q16.76-4.77 16.99-4.51Q17.23-4.25 17.35-3.87Q17.48-3.48 17.48-3.02L17.48-3.02Q17.48-2.41 17.30-1.85Q17.11-1.30 16.79-0.87Q16.46-0.45 16.02-0.19Q15.56 0.07 15.02 0.07Z"/></svg>