<svg xmlns="http://www.w3.org/2000/svg" viewBox="6.264000000000001 46.971999999999994 373.968 66.168">
<path d="M13.25 48.41L13.25 94.13L35.57 94.13L35.57 100L6.26 100L6.26 48.41L13.25 48.41ZM69.05 76.67L69.05 100L66.20 100Q65.27 100 64.69 99.71Q64.12 99.42 63.94 98.49L63.94 98.49L63.22 95.10Q61.78 96.40 60.41 97.43Q59.04 98.45 57.53 99.15Q56.02 99.86 54.31 100.22Q52.60 100.58 50.51 100.58L50.51 100.58Q48.38 100.58 46.53 99.98Q44.68 99.39 43.31 98.20Q41.94 97.01 41.13 95.19Q40.32 93.38 40.32 90.89L40.32 90.89Q40.32 88.73 41.51 86.73Q42.70 84.74 45.34 83.19Q47.99 81.64 52.27 80.65Q56.56 79.66 62.75 79.52L62.75 79.52L62.75 76.67Q62.75 72.42 60.93 70.25Q59.11 68.07 55.55 68.07L55.55 68.07Q53.21 68.07 51.61 68.66Q50.00 69.26 48.83 69.99Q47.66 70.73 46.82 71.33Q45.97 71.92 45.14 71.92L45.14 71.92Q44.50 71.92 44.01 71.58Q43.52 71.24 43.24 70.73L43.24 70.73L42.08 68.68Q45.11 65.76 48.60 64.32Q52.09 62.88 56.34 62.88L56.34 62.88Q59.40 62.88 61.78 63.89Q64.15 64.90 65.77 66.70Q67.39 68.50 68.22 71.06Q69.05 73.61 69.05 76.67L69.05 76.67ZM52.42 96.08L52.42 96.08Q54.11 96.08 55.51 95.73Q56.92 95.39 58.16 94.76Q59.40 94.13 60.53 93.23Q61.67 92.33 62.75 91.18L62.75 91.18L62.75 83.58Q58.32 83.73 55.22 84.29Q52.13 84.84 50.18 85.74Q48.24 86.64 47.36 87.87Q46.48 89.09 46.48 90.60L46.48 90.60Q46.48 92.04 46.94 93.09Q47.41 94.13 48.20 94.80Q49.00 95.46 50.08 95.77Q51.16 96.08 52.42 96.08ZM89.82 100.58L89.82 100.58Q85.50 100.58 83.18 98.16Q80.86 95.75 80.86 91.22L80.86 91.22L80.86 68.90L76.46 68.90Q75.89 68.90 75.49 68.55Q75.10 68.21 75.10 67.49L75.10 67.49L75.10 64.94L81.07 64.18L82.55 52.91Q82.62 52.37 83.02 52.03Q83.41 51.69 84.02 51.69L84.02 51.69L87.26 51.69L87.26 64.25L97.70 64.25L97.70 68.90L87.26 68.90L87.26 90.78Q87.26 93.09 88.38 94.20Q89.50 95.32 91.26 95.32L91.26 95.32Q92.27 95.32 93.01 95.05Q93.74 94.78 94.28 94.46Q94.82 94.13 95.20 93.86Q95.58 93.59 95.87 93.59L95.87 93.59Q96.37 93.59 96.77 94.20L96.77 94.20L98.64 97.26Q96.98 98.81 94.64 99.69Q92.30 100.58 89.82 100.58ZM120.38 62.96L120.38 62.96Q124.38 62.96 127.60 64.29Q130.82 65.62 133.07 68.07Q135.32 70.52 136.53 73.99Q137.74 77.46 137.74 81.75L137.74 81.75Q137.74 86.07 136.53 89.52Q135.32 92.98 133.07 95.43Q130.82 97.88 127.60 99.19Q124.38 100.50 120.38 100.50L120.38 100.50Q116.39 100.50 113.17 99.19Q109.94 97.88 107.68 95.43Q105.41 92.98 104.18 89.52Q102.96 86.07 102.96 81.75L102.96 81.75Q102.96 77.46 104.18 73.99Q105.41 70.52 107.68 68.07Q109.94 65.62 113.17 64.29Q116.39 62.96 120.38 62.96ZM120.38 95.50L120.38 95.50Q125.78 95.50 128.45 91.88Q131.11 88.26 131.11 81.78L131.11 81.78Q131.11 75.27 128.45 71.63Q125.78 68.00 120.38 68.00L120.38 68.00Q117.65 68.00 115.63 68.93Q113.62 69.87 112.27 71.63Q110.92 73.40 110.25 75.97Q109.58 78.54 109.58 81.78L109.58 81.78Q109.58 85.02 110.25 87.58Q110.92 90.14 112.27 91.88Q113.62 93.63 115.63 94.56Q117.65 95.50 120.38 95.50ZM165.96 100L159.55 100L159.55 63.53L163.22 63.53Q164.27 63.53 164.66 63.93Q165.06 64.32 165.20 65.30L165.20 65.30L165.64 70.98Q167.51 67.17 170.26 65.03Q173.02 62.88 176.72 62.88L176.72 62.88Q178.24 62.88 179.46 63.23Q180.68 63.57 181.73 64.18L181.73 64.18L180.90 68.97Q180.65 69.87 179.78 69.87L179.78 69.87Q179.28 69.87 178.24 69.53Q177.19 69.18 175.32 69.18L175.32 69.18Q171.97 69.18 169.72 71.13Q167.47 73.07 165.96 76.78L165.96 76.78L165.96 100ZM203.00 62.96L203.00 62.96Q206.28 62.96 209.05 64.05Q211.82 65.15 213.84 67.22Q215.86 69.29 216.99 72.33Q218.12 75.38 218.12 79.26L218.12 79.26Q218.12 80.78 217.80 81.28Q217.48 81.78 216.58 81.78L216.58 81.78L192.31 81.78Q192.38 85.24 193.25 87.80Q194.11 90.35 195.62 92.06Q197.14 93.77 199.22 94.62Q201.31 95.46 203.90 95.46L203.90 95.46Q206.32 95.46 208.06 94.91Q209.81 94.35 211.07 93.70Q212.33 93.05 213.17 92.49Q214.02 91.94 214.63 91.94L214.63 91.94Q215.42 91.94 215.86 92.55L215.86 92.55L217.66 94.89Q216.47 96.33 214.81 97.39Q213.16 98.45 211.27 99.14Q209.38 99.82 207.36 100.16Q205.34 100.50 203.36 100.50L203.36 100.50Q199.58 100.50 196.40 99.23Q193.21 97.95 190.89 95.48Q188.57 93.02 187.27 89.38Q185.98 85.74 185.98 81.03L185.98 81.03Q185.98 77.21 187.15 73.90Q188.32 70.59 190.51 68.16Q192.71 65.73 195.88 64.34Q199.04 62.96 203.00 62.96ZM203.15 67.67L203.15 67.67Q198.50 67.67 195.84 70.35Q193.18 73.04 192.53 77.79L192.53 77.79L212.36 77.79Q212.36 75.56 211.75 73.70Q211.14 71.85 209.95 70.50Q208.76 69.15 207.05 68.41Q205.34 67.67 203.15 67.67ZM238.57 62.92L238.57 62.92Q240.95 62.92 243.02 63.44Q245.09 63.96 246.78 64.97L246.78 64.97L256.68 64.97L256.68 67.35Q256.68 68.54 255.17 68.86L255.17 68.86L251.03 69.44Q252.25 71.78 252.25 74.66L252.25 74.66Q252.25 77.32 251.23 79.50Q250.20 81.68 248.38 83.22Q246.56 84.77 244.06 85.60Q241.56 86.43 238.57 86.43L238.57 86.43Q236.02 86.43 233.75 85.82L233.75 85.82Q232.60 86.54 232.00 87.36Q231.41 88.19 231.41 88.98L231.41 88.98Q231.41 90.28 232.45 90.95Q233.50 91.61 235.22 91.90Q236.95 92.19 239.15 92.26Q241.34 92.33 243.63 92.49Q245.92 92.66 248.11 93.05Q250.31 93.45 252.04 94.35Q253.76 95.25 254.81 96.83Q255.85 98.42 255.85 100.94L255.85 100.94Q255.85 103.28 254.68 105.47Q253.51 107.67 251.32 109.38Q249.12 111.09 245.95 112.11Q242.78 113.14 238.79 113.14L238.79 113.14Q234.79 113.14 231.79 112.35Q228.78 111.56 226.80 110.22Q224.82 108.89 223.83 107.15Q222.84 105.40 222.84 103.49L222.84 103.49Q222.84 100.79 224.55 98.90Q226.26 97.01 229.25 95.90L229.25 95.90Q227.70 95.18 226.78 93.97Q225.86 92.76 225.86 90.75L225.86 90.75Q225.86 89.96 226.15 89.11Q226.44 88.26 227.03 87.44Q227.63 86.61 228.49 85.85Q229.36 85.10 230.51 84.52L230.51 84.52Q227.81 83.01 226.28 80.51Q224.75 78.00 224.75 74.66L224.75 74.66Q224.75 71.99 225.77 69.81Q226.80 67.64 228.64 66.11Q230.47 64.58 233.01 63.75Q235.55 62.92 238.57 62.92ZM249.95 101.98L249.95 101.98Q249.95 100.61 249.19 99.78Q248.44 98.96 247.14 98.51Q245.84 98.06 244.15 97.84Q242.46 97.62 240.59 97.53Q238.72 97.44 236.77 97.34Q234.83 97.23 233.06 96.94L233.06 96.94Q231.01 97.91 229.73 99.32Q228.46 100.72 228.46 102.66L228.46 102.66Q228.46 103.89 229.09 104.95Q229.72 106.01 231.01 106.79Q232.31 107.56 234.27 108.01Q236.23 108.46 238.90 108.46L238.90 108.46Q241.49 108.46 243.54 107.99Q245.59 107.52 247.01 106.66Q248.44 105.80 249.19 104.61Q249.95 103.42 249.95 101.98ZM238.57 82.18L238.57 82.18Q240.52 82.18 242.01 81.64Q243.50 81.10 244.51 80.13Q245.52 79.16 246.02 77.81Q246.53 76.46 246.53 74.84L246.53 74.84Q246.53 71.49 244.49 69.51Q242.46 67.53 238.57 67.53L238.57 67.53Q234.72 67.53 232.69 69.51Q230.65 71.49 230.65 74.84L230.65 74.84Q230.65 76.46 231.17 77.81Q231.70 79.16 232.70 80.13Q233.71 81.10 235.19 81.64Q236.66 82.18 238.57 82.18ZM262.22 63.53L268.63 63.53L268.63 86.79Q268.63 90.93 270.54 93.20Q272.45 95.46 276.30 95.46L276.30 95.46Q279.11 95.46 281.59 94.13Q284.08 92.80 286.16 90.42L286.16 90.42L286.16 63.53L292.57 63.53L292.57 100L288.76 100Q287.39 100 287.03 98.67L287.03 98.67L286.52 94.74Q284.15 97.37 281.20 98.97Q278.24 100.58 274.43 100.58L274.43 100.58Q271.44 100.58 269.15 99.59Q266.87 98.60 265.32 96.80Q263.77 95.00 263.00 92.44Q262.22 89.88 262.22 86.79L262.22 86.79L262.22 63.53ZM303.84 46.97L310.25 46.97L310.25 100L303.84 100L303.84 46.97ZM348.34 76.67L348.34 100L345.49 100Q344.56 100 343.98 99.71Q343.40 99.42 343.22 98.49L343.22 98.49L342.50 95.10Q341.06 96.40 339.70 97.43Q338.33 98.45 336.82 99.15Q335.30 99.86 333.59 100.22Q331.88 100.58 329.80 100.58L329.80 100.58Q327.67 100.58 325.82 99.98Q323.96 99.39 322.60 98.20Q321.23 97.01 320.42 95.19Q319.61 93.38 319.61 90.89L319.61 90.89Q319.61 88.73 320.80 86.73Q321.98 84.74 324.63 83.19Q327.28 81.64 331.56 80.65Q335.84 79.66 342.04 79.52L342.04 79.52L342.04 76.67Q342.04 72.42 340.22 70.25Q338.40 68.07 334.84 68.07L334.84 68.07Q332.50 68.07 330.89 68.66Q329.29 69.26 328.12 69.99Q326.95 70.73 326.11 71.33Q325.26 71.92 324.43 71.92L324.43 71.92Q323.78 71.92 323.30 71.58Q322.81 71.24 322.52 70.73L322.52 70.73L321.37 68.68Q324.40 65.76 327.89 64.32Q331.38 62.88 335.63 62.88L335.63 62.88Q338.69 62.88 341.06 63.89Q343.44 64.90 345.06 66.70Q346.68 68.50 347.51 71.06Q348.34 73.61 348.34 76.67L348.34 76.67ZM331.70 96.08L331.70 96.08Q333.40 96.08 334.80 95.73Q336.20 95.39 337.45 94.76Q338.69 94.13 339.82 93.23Q340.96 92.33 342.04 91.18L342.04 91.18L342.04 83.58Q337.61 83.73 334.51 84.29Q331.42 84.84 329.47 85.74Q327.53 86.64 326.65 87.87Q325.76 89.09 325.76 90.60L325.76 90.60Q325.76 92.04 326.23 93.09Q326.70 94.13 327.49 94.80Q328.28 95.46 329.36 95.77Q330.44 96.08 331.70 96.08ZM364.46 100L358.06 100L358.06 63.53L361.73 63.53Q362.77 63.53 363.17 63.93Q363.56 64.32 363.71 65.30L363.71 65.30L364.14 70.98Q366.01 67.17 368.77 65.03Q371.52 62.88 375.23 62.88L375.23 62.88Q376.74 62.88 377.96 63.23Q379.19 63.57 380.23 64.18L380.23 64.18L379.40 68.97Q379.15 69.87 378.29 69.87L378.29 69.87Q377.78 69.87 376.74 69.53Q375.70 69.18 373.82 69.18L373.82 69.18Q370.48 69.18 368.23 71.13Q365.98 73.07 364.46 76.78L364.46 76.78L364.46 100Z"/>
</svg>
