<svg xmlns="http://www.w3.org/2000/svg" viewBox="4.716 49.059999999999995 125.85600000000001 100.576"><path d="M14.54 49.06L8.64 96.94L30.82 96.94L30.42 100L4.72 100L10.98 49.06L14.54 49.06ZM65.66 65.40L61.45 100L59.80 100Q59.11 100 58.84 99.68Q58.57 99.35 58.57 98.88L58.57 98.88L59.76 87.62Q58.39 90.50 56.75 92.85Q55.12 95.21 53.26 96.90Q51.41 98.60 49.36 99.53Q47.30 100.47 45.11 100.47L45.11 100.47Q42.84 100.47 41.15 99.59Q39.46 98.70 38.32 97.08Q37.19 95.46 36.61 93.16Q36.04 90.86 36.04 87.98L36.04 87.98Q36.04 84.84 36.83 81.84Q37.62 78.83 39.08 76.13Q40.54 73.43 42.55 71.16Q44.57 68.90 47.00 67.24Q49.43 65.58 52.20 64.65Q54.97 63.71 57.92 63.71L57.92 63.71Q60.08 63.71 61.96 64.09Q63.83 64.47 65.66 65.40L65.66 65.40ZM46.22 97.62L46.22 97.62Q48.28 97.62 50.27 96.47Q52.27 95.32 54.07 93.21Q55.87 91.11 57.47 88.14Q59.08 85.17 60.34 81.57L60.34 81.57L62.14 66.99Q60.01 66.27 57.53 66.27L57.53 66.27Q55.12 66.27 52.85 67.08Q50.58 67.89 48.58 69.33Q46.58 70.77 44.91 72.75Q43.24 74.73 42.01 77.09Q40.79 79.44 40.12 82.07Q39.46 84.70 39.46 87.44L39.46 87.44Q39.46 92.26 41.09 94.94Q42.73 97.62 46.22 97.62ZM75.46 93.99L75.46 93.99Q75.46 93.77 75.47 93.45Q75.49 93.12 75.55 92.48Q75.60 91.83 75.73 90.80Q75.85 89.78 76.03 88.19L76.03 88.19L78.48 67.85L73.76 67.85Q73.04 67.85 73.04 67.17L73.04 67.17L73.22 65.69L78.88 65.26L81.25 52.44Q81.32 52.12 81.58 51.87Q81.83 51.62 82.19 51.62L82.19 51.62L83.84 51.62L82.15 65.30L92.52 65.30L92.23 67.85L81.86 67.85L79.38 88.08Q79.20 89.56 79.09 90.50Q78.98 91.43 78.91 92.03Q78.84 92.62 78.82 92.91Q78.80 93.20 78.80 93.34L78.80 93.34Q78.80 95.68 79.90 96.72Q81 97.77 82.73 97.77L82.73 97.77Q83.92 97.77 84.83 97.39Q85.75 97.01 86.44 96.56Q87.12 96.11 87.55 95.73Q87.98 95.36 88.20 95.36L88.20 95.36Q88.42 95.36 88.52 95.45Q88.63 95.54 88.74 95.72L88.74 95.72L89.39 97.23Q87.95 98.74 85.90 99.66Q83.84 100.58 81.79 100.58L81.79 100.58Q78.84 100.58 77.17 98.96Q75.49 97.34 75.46 93.99ZM108.47 97.77L108.47 97.77Q111.60 97.77 114.17 96.13Q116.75 94.49 118.58 91.77Q120.42 89.06 121.41 85.55Q122.40 82.04 122.40 78.33L122.40 78.33Q122.40 72.57 119.84 69.44Q117.29 66.30 112.75 66.30L112.75 66.30Q110.66 66.30 108.83 67.04Q106.99 67.78 105.44 69.11Q103.90 70.44 102.65 72.26Q101.41 74.08 100.57 76.24Q99.72 78.40 99.27 80.81Q98.82 83.22 98.82 85.74L98.82 85.74Q98.82 91.47 101.36 94.62Q103.90 97.77 108.47 97.77ZM108.18 100.47L108.18 100.47Q105.30 100.47 102.94 99.46Q100.58 98.45 98.91 96.54Q97.24 94.64 96.32 91.92Q95.40 89.20 95.40 85.74L95.40 85.74Q95.40 81.39 96.70 77.37Q97.99 73.36 100.35 70.30Q102.71 67.24 105.95 65.42Q109.19 63.60 113.08 63.60L113.08 63.60Q115.96 63.60 118.31 64.63Q120.67 65.66 122.35 67.55Q124.02 69.44 124.94 72.17Q125.86 74.91 125.86 78.29L125.86 78.29Q125.86 82.65 124.54 86.64Q123.23 90.64 120.89 93.72Q118.55 96.80 115.31 98.63Q112.07 100.47 108.18 100.47Z"/></svg>