<svg xmlns="http://www.w3.org/2000/svg" viewBox="3.4920000000000004 46.971999999999994 286.05600000000004 53.604"><path d="M16.60 48.41L10.91 94.31L31.32 94.31L30.64 100L3.49 100L9.86 48.41L16.60 48.41ZM67.82 64.72L63.47 100L60.16 100Q58.90 100 58.45 99.35Q58.00 98.70 58.00 97.77L58.00 97.77L58.64 90.39Q57.35 92.69 55.85 94.56Q54.36 96.44 52.69 97.75Q51.01 99.06 49.18 99.78Q47.34 100.50 45.36 100.50L45.36 100.50Q43.20 100.50 41.44 99.66Q39.67 98.81 38.43 97.17Q37.19 95.54 36.50 93.14Q35.82 90.75 35.82 87.65L35.82 87.65Q35.82 84.41 36.63 81.33Q37.44 78.26 38.93 75.52Q40.43 72.78 42.52 70.50Q44.60 68.21 47.18 66.54Q49.75 64.86 52.70 63.95Q55.66 63.03 58.90 63.03L58.90 63.03Q61.24 63.03 63.45 63.41Q65.66 63.78 67.82 64.72L67.82 64.72ZM47.77 95.18L47.77 95.18Q49.54 95.18 51.23 94.08Q52.92 92.98 54.43 91.04Q55.94 89.09 57.26 86.41Q58.57 83.73 59.58 80.52L59.58 80.52L61.13 68.00Q60.34 67.82 59.56 67.76Q58.79 67.71 58.03 67.71L58.03 67.71Q55.87 67.71 53.86 68.41Q51.84 69.11 50.08 70.37Q48.31 71.63 46.87 73.38Q45.43 75.12 44.41 77.21Q43.38 79.30 42.80 81.66Q42.23 84.02 42.23 86.50L42.23 86.50Q42.23 95.18 47.77 95.18ZM76.18 93.12L76.18 93.12Q76.18 92.91 76.19 92.57Q76.21 92.22 76.27 91.58Q76.32 90.93 76.43 89.88Q76.54 88.84 76.75 87.15L76.75 87.15L79.02 68.90L74.95 68.90Q74.48 68.90 74.18 68.63Q73.87 68.36 73.87 67.78L73.87 67.78Q73.87 67.67 73.91 67.35Q73.94 67.02 74.00 66.61Q74.05 66.20 74.11 65.76Q74.16 65.33 74.20 64.94L74.20 64.94L79.81 64.18L82.51 52.91Q82.66 52.37 83.05 52.03Q83.45 51.69 84.02 51.69L84.02 51.69L87.41 51.69L85.82 64.25L95.40 64.25L94.86 68.90L85.25 68.90L83.05 86.82Q82.87 88.30 82.78 89.20Q82.69 90.10 82.64 90.64Q82.58 91.18 82.57 91.40Q82.55 91.61 82.55 91.72L82.55 91.72Q82.55 93.56 83.39 94.44Q84.24 95.32 85.72 95.32L85.72 95.32Q86.65 95.32 87.37 95.05Q88.09 94.78 88.61 94.46Q89.14 94.13 89.50 93.86Q89.86 93.59 90.14 93.59L90.14 93.59Q90.43 93.59 90.59 93.74Q90.76 93.88 90.94 94.20L90.94 94.20L92.27 97.26Q90.54 98.81 88.29 99.69Q86.04 100.58 83.77 100.58L83.77 100.58Q80.28 100.58 78.26 98.67Q76.25 96.76 76.18 93.12ZM111.24 95.50L111.24 95.50Q113.87 95.50 116.03 94.06Q118.19 92.62 119.70 90.23Q121.21 87.83 122.04 84.70Q122.87 81.57 122.87 78.15L122.87 78.15Q122.87 73.11 120.89 70.55Q118.91 68.00 115.16 68.00L115.16 68.00Q112.50 68.00 110.36 69.42Q108.22 70.84 106.70 73.23Q105.19 75.63 104.36 78.76Q103.54 81.89 103.54 85.31L103.54 85.31Q103.54 90.35 105.50 92.93Q107.46 95.50 111.24 95.50ZM110.66 100.50L110.66 100.50Q107.68 100.50 105.19 99.48Q102.71 98.45 100.91 96.51Q99.11 94.56 98.10 91.76Q97.09 88.95 97.09 85.35L97.09 85.35Q97.09 80.74 98.53 76.67Q99.97 72.60 102.47 69.54Q104.98 66.48 108.38 64.72Q111.78 62.96 115.74 62.96L115.74 62.96Q118.73 62.96 121.21 63.98Q123.70 65.01 125.50 66.95Q127.30 68.90 128.30 71.72Q129.31 74.55 129.31 78.11L129.31 78.11Q129.31 82.68 127.87 86.75Q126.43 90.82 123.93 93.88Q121.43 96.94 118.01 98.72Q114.59 100.50 110.66 100.50ZM153.00 63.53L159.30 63.53L154.91 100L148.61 100L153.00 63.53ZM161.71 52.08L161.71 52.08Q161.71 53.02 161.33 53.83Q160.96 54.64 160.33 55.27Q159.70 55.90 158.90 56.26Q158.11 56.62 157.25 56.62L157.25 56.62Q156.42 56.62 155.63 56.26Q154.84 55.90 154.24 55.27Q153.65 54.64 153.29 53.83Q152.93 53.02 152.93 52.08L152.93 52.08Q152.93 51.15 153.29 50.32Q153.65 49.49 154.26 48.86Q154.87 48.23 155.66 47.85Q156.46 47.48 157.28 47.48L157.28 47.48Q158.15 47.48 158.94 47.84Q159.73 48.20 160.36 48.83Q160.99 49.46 161.35 50.30Q161.71 51.15 161.71 52.08ZM168.44 93.12L168.44 93.12Q168.44 92.91 168.46 92.57Q168.48 92.22 168.53 91.58Q168.59 90.93 168.70 89.88Q168.80 88.84 169.02 87.15L169.02 87.15L171.29 68.90L167.22 68.90Q166.75 68.90 166.45 68.63Q166.14 68.36 166.14 67.78L166.14 67.78Q166.14 67.67 166.18 67.35Q166.21 67.02 166.27 66.61Q166.32 66.20 166.37 65.76Q166.43 65.33 166.46 64.94L166.46 64.94L172.08 64.18L174.78 52.91Q174.92 52.37 175.32 52.03Q175.72 51.69 176.29 51.69L176.29 51.69L179.68 51.69L178.09 64.25L187.67 64.25L187.13 68.90L177.52 68.90L175.32 86.82Q175.14 88.30 175.05 89.20Q174.96 90.10 174.91 90.64Q174.85 91.18 174.83 91.40Q174.82 91.61 174.82 91.72L174.82 91.72Q174.82 93.56 175.66 94.44Q176.51 95.32 177.98 95.32L177.98 95.32Q178.92 95.32 179.64 95.05Q180.36 94.78 180.88 94.46Q181.40 94.13 181.76 93.86Q182.12 93.59 182.41 93.59L182.41 93.59Q182.70 93.59 182.86 93.74Q183.02 93.88 183.20 94.20L183.20 94.20L184.54 97.26Q182.81 98.81 180.56 99.69Q178.31 100.58 176.04 100.58L176.04 100.58Q172.55 100.58 170.53 98.67Q168.52 96.76 168.44 93.12ZM221.11 64.72L216.76 100L213.44 100Q212.18 100 211.73 99.35Q211.28 98.70 211.28 97.77L211.28 97.77L211.93 90.39Q210.64 92.69 209.14 94.56Q207.65 96.44 205.97 97.75Q204.30 99.06 202.46 99.78Q200.63 100.50 198.65 100.50L198.65 100.50Q196.49 100.50 194.72 99.66Q192.96 98.81 191.72 97.17Q190.48 95.54 189.79 93.14Q189.11 90.75 189.11 87.65L189.11 87.65Q189.11 84.41 189.92 81.33Q190.73 78.26 192.22 75.52Q193.72 72.78 195.80 70.50Q197.89 68.21 200.47 66.54Q203.04 64.86 205.99 63.95Q208.94 63.03 212.18 63.03L212.18 63.03Q214.52 63.03 216.74 63.41Q218.95 63.78 221.11 64.72L221.11 64.72ZM201.06 95.18L201.06 95.18Q202.82 95.18 204.52 94.08Q206.21 92.98 207.72 91.04Q209.23 89.09 210.55 86.41Q211.86 83.73 212.87 80.52L212.87 80.52L214.42 68.00Q213.62 67.82 212.85 67.76Q212.08 67.71 211.32 67.71L211.32 67.71Q209.16 67.71 207.14 68.41Q205.13 69.11 203.36 70.37Q201.60 71.63 200.16 73.38Q198.72 75.12 197.69 77.21Q196.67 79.30 196.09 81.66Q195.52 84.02 195.52 86.50L195.52 86.50Q195.52 95.18 201.06 95.18ZM233.21 100L226.91 100L233.35 46.97L239.65 46.97L233.21 100ZM248.65 63.53L254.95 63.53L250.56 100L244.26 100L248.65 63.53ZM257.36 52.08L257.36 52.08Q257.36 53.02 256.99 53.83Q256.61 54.64 255.98 55.27Q255.35 55.90 254.56 56.26Q253.76 56.62 252.90 56.62L252.90 56.62Q252.07 56.62 251.28 56.26Q250.49 55.90 249.89 55.27Q249.30 54.64 248.94 53.83Q248.58 53.02 248.58 52.08L248.58 52.08Q248.58 51.15 248.94 50.32Q249.30 49.49 249.91 48.86Q250.52 48.23 251.32 47.85Q252.11 47.48 252.94 47.48L252.94 47.48Q253.80 47.48 254.59 47.84Q255.38 48.20 256.01 48.83Q256.64 49.46 257.00 50.30Q257.36 51.15 257.36 52.08ZM287.86 93.45L287.86 93.45Q285.98 95.50 284.31 96.87Q282.64 98.24 280.94 99.05Q279.25 99.86 277.43 100.18Q275.62 100.50 273.53 100.50L273.53 100.50Q270.36 100.50 267.93 99.42Q265.50 98.34 263.86 96.38Q262.22 94.42 261.38 91.67Q260.53 88.91 260.53 85.60L260.53 85.60Q260.53 81.17 261.92 77.10Q263.30 73.04 265.79 69.90Q268.27 66.77 271.69 64.90Q275.11 63.03 279.22 63.03L279.22 63.03Q282.82 63.03 285.26 64.31Q287.71 65.58 289.55 68.03L289.55 68.03L287.53 70.44Q287.32 70.73 286.99 70.91Q286.67 71.09 286.27 71.09L286.27 71.09Q285.77 71.09 285.28 70.64Q284.80 70.19 284.02 69.63Q283.25 69.08 282.08 68.63Q280.91 68.18 279.07 68.18L279.07 68.18Q276.59 68.18 274.37 69.53Q272.16 70.88 270.50 73.22Q268.85 75.56 267.89 78.76Q266.94 81.96 266.94 85.64L266.94 85.64Q266.94 87.87 267.44 89.69Q267.95 91.50 268.96 92.78Q269.96 94.06 271.42 94.76Q272.88 95.46 274.82 95.46L274.82 95.46Q276.44 95.46 277.70 95.12Q278.96 94.78 279.94 94.28Q280.91 93.77 281.65 93.18Q282.38 92.58 282.98 92.08Q283.57 91.58 284.06 91.23Q284.54 90.89 285.05 90.89L285.05 90.89Q285.77 90.89 286.27 91.50L286.27 91.50L287.86 93.45Z"/></svg>