<svg xmlns="http://www.w3.org/2000/svg" viewBox="8.64 48.16 249.55200000000002 52.416"><path d="M9.50 49.60L9.50 99.21L35.21 99.21L35.21 100L8.64 100L8.64 49.60L9.50 49.60ZM65.02 100L64.87 100Q64.37 100 64.37 99.42L64.37 99.42L64.15 93.70Q62.64 95.28 61.13 96.56Q59.62 97.84 57.92 98.72Q56.23 99.60 54.29 100.09Q52.34 100.58 49.97 100.58L49.97 100.58Q48.38 100.58 46.78 100.09Q45.18 99.60 43.88 98.54Q42.59 97.48 41.78 95.81Q40.97 94.13 40.97 91.72L40.97 91.72Q40.97 89.34 42.35 87.45Q43.74 85.56 46.60 84.23Q49.46 82.90 53.82 82.13Q58.18 81.35 64.15 81.21L64.15 81.21L64.15 76.67Q64.15 73.90 63.54 71.70Q62.93 69.51 61.74 68.00Q60.55 66.48 58.75 65.67Q56.95 64.86 54.58 64.86L54.58 64.86Q52.70 64.86 51.19 65.26Q49.68 65.66 48.49 66.23Q47.30 66.81 46.42 67.49Q45.54 68.18 44.89 68.75Q44.24 69.33 43.85 69.72Q43.45 70.12 43.27 70.12L43.27 70.12Q43.13 70.12 42.91 69.90L42.91 69.90L42.77 69.76Q45.36 67.02 48.13 65.58Q50.90 64.14 54.58 64.14L54.58 64.14Q57.28 64.14 59.24 65.01Q61.20 65.87 62.50 67.49Q63.79 69.11 64.40 71.43Q65.02 73.76 65.02 76.67L65.02 76.67L65.02 100ZM49.97 99.86L49.97 99.86Q52.45 99.86 54.47 99.28Q56.48 98.70 58.18 97.73Q59.87 96.76 61.33 95.48Q62.78 94.20 64.15 92.80L64.15 92.80L64.15 81.93Q52.81 82.29 47.32 84.75Q41.83 87.22 41.83 91.72L41.83 91.72Q41.83 93.84 42.53 95.37Q43.24 96.90 44.37 97.89Q45.50 98.88 46.96 99.37Q48.42 99.86 49.97 99.86ZM85.46 100.58L85.46 100.58Q82.37 100.58 80.60 98.88Q78.84 97.19 78.84 93.30L78.84 93.30L78.84 66.95L73.01 66.95Q72.50 66.95 72.50 66.59L72.50 66.59L72.50 66.38L78.84 66.23L79.13 52.05Q79.13 51.87 79.22 51.71Q79.31 51.54 79.49 51.54L79.49 51.54L79.70 51.54L79.70 66.23L91.73 66.23L91.73 66.95L79.70 66.95L79.70 93.30Q79.70 95.10 80.15 96.35Q80.60 97.59 81.40 98.36Q82.19 99.14 83.23 99.50Q84.28 99.86 85.46 99.86L85.46 99.86Q86.98 99.86 88.11 99.39Q89.24 98.92 90.04 98.38Q90.83 97.84 91.31 97.37Q91.80 96.90 92.02 96.90L92.02 96.90Q92.16 96.90 92.30 97.05L92.30 97.05L92.45 97.19Q91.91 97.91 91.13 98.54Q90.36 99.17 89.44 99.62Q88.52 100.07 87.50 100.32Q86.47 100.58 85.46 100.58ZM114.05 64.14L114.05 64.14Q117.76 64.14 120.64 65.46Q123.52 66.77 125.48 69.15Q127.44 71.52 128.45 74.89Q129.46 78.26 129.46 82.36L129.46 82.36Q129.46 86.46 128.45 89.79Q127.44 93.12 125.48 95.50Q123.52 97.88 120.64 99.15Q117.76 100.43 114.05 100.43L114.05 100.43Q110.30 100.43 107.44 99.15Q104.58 97.88 102.62 95.50Q100.66 93.12 99.65 89.79Q98.64 86.46 98.64 82.36L98.64 82.36Q98.64 78.26 99.65 74.89Q100.66 71.52 102.62 69.15Q104.58 66.77 107.44 65.46Q110.30 64.14 114.05 64.14ZM114.05 99.71L114.05 99.71Q117.65 99.71 120.38 98.45Q123.12 97.19 124.94 94.92Q126.76 92.66 127.67 89.45Q128.59 86.25 128.59 82.36L128.59 82.36Q128.59 78.47 127.67 75.25Q126.76 72.03 124.94 69.72Q123.12 67.42 120.38 66.14Q117.65 64.86 114.05 64.86L114.05 64.86Q110.41 64.86 107.69 66.14Q104.98 67.42 103.16 69.72Q101.34 72.03 100.42 75.25Q99.50 78.47 99.50 82.36L99.50 82.36Q99.50 86.25 100.42 89.45Q101.34 92.66 103.16 94.92Q104.98 97.19 107.69 98.45Q110.41 99.71 114.05 99.71ZM162 100.58L162 100.58Q158.90 100.58 157.14 98.88Q155.38 97.19 155.38 93.30L155.38 93.30L155.38 66.95L149.54 66.95Q149.04 66.95 149.04 66.59L149.04 66.59L149.04 66.38L155.38 66.23L155.66 52.05Q155.66 51.87 155.75 51.71Q155.84 51.54 156.02 51.54L156.02 51.54L156.24 51.54L156.24 66.23L168.26 66.23L168.26 66.95L156.24 66.95L156.24 93.30Q156.24 95.10 156.69 96.35Q157.14 97.59 157.93 98.36Q158.72 99.14 159.77 99.50Q160.81 99.86 162 99.86L162 99.86Q163.51 99.86 164.65 99.39Q165.78 98.92 166.57 98.38Q167.36 97.84 167.85 97.37Q168.34 96.90 168.55 96.90L168.55 96.90Q168.70 96.90 168.84 97.05L168.84 97.05L168.98 97.19Q168.44 97.91 167.67 98.54Q166.90 99.17 165.98 99.62Q165.06 100.07 164.03 100.32Q163.01 100.58 162 100.58ZM178.78 100L177.91 100L177.91 48.16L178.78 48.16L178.78 72.06Q180 70.26 181.53 68.81Q183.06 67.35 184.82 66.30Q186.59 65.26 188.53 64.70Q190.48 64.14 192.53 64.14L192.53 64.14Q198.40 64.14 201.29 67.64Q204.19 71.13 204.19 77.39L204.19 77.39L204.19 100L203.33 100L203.33 77.39Q203.33 74.44 202.68 72.12Q202.03 69.80 200.68 68.18Q199.33 66.56 197.30 65.71Q195.26 64.86 192.53 64.86L192.53 64.86Q188.39 64.86 184.90 67.08Q181.40 69.29 178.78 73.18L178.78 73.18L178.78 100ZM217.15 64.72L218.02 64.72L218.02 100L217.15 100L217.15 64.72ZM219.60 51.62L219.60 51.62Q219.60 52.37 218.97 52.97Q218.34 53.56 217.58 53.56L217.58 53.56Q216.76 53.56 216.16 52.97Q215.57 52.37 215.57 51.62L215.57 51.62Q215.57 50.79 216.16 50.19Q216.76 49.60 217.58 49.60L217.58 49.60Q218.34 49.60 218.97 50.19Q219.60 50.79 219.60 51.62ZM232.78 100L231.91 100L231.91 64.72L232.13 64.72Q232.63 64.72 232.63 65.30L232.63 65.30L232.74 72.10Q233.96 70.30 235.49 68.82Q237.02 67.35 238.79 66.30Q240.55 65.26 242.50 64.70Q244.44 64.14 246.53 64.14L246.53 64.14Q252.40 64.14 255.29 67.64Q258.19 71.13 258.19 77.39L258.19 77.39L258.19 100L257.33 100L257.33 77.39Q257.33 74.44 256.68 72.12Q256.03 69.80 254.68 68.18Q253.33 66.56 251.30 65.71Q249.26 64.86 246.53 64.86L246.53 64.86Q242.39 64.86 238.90 67.08Q235.40 69.29 232.78 73.18L232.78 73.18L232.78 100Z"/></svg>