<svg xmlns="http://www.w3.org/2000/svg" viewBox="0.87 -7.165 18.26 7.245"><path d="M1.84-7.17L1.84-0.82L4.94-0.82L4.94 0L0.87 0L0.87-7.17L1.84-7.17ZM9.59-3.24L9.59 0L9.20 0Q9.06 0 8.98-0.04Q8.90-0.08 8.88-0.21L8.88-0.21L8.78-0.68Q8.58-0.50 8.39-0.36Q8.20-0.21 7.99-0.12Q7.78-0.02 7.54 0.03Q7.30 0.08 7.01 0.08L7.01 0.08Q6.72 0.08 6.46-0.00Q6.21-0.09 6.01-0.25Q5.82-0.42 5.71-0.67Q5.60-0.92 5.60-1.27L5.60-1.27Q5.60-1.56 5.76-1.84Q5.93-2.12 6.30-2.33Q6.67-2.55 7.26-2.69Q7.85-2.83 8.71-2.85L8.71-2.85L8.71-3.24Q8.71-3.83 8.46-4.13Q8.21-4.44 7.71-4.44L7.71-4.44Q7.39-4.44 7.17-4.35Q6.94-4.27 6.78-4.17Q6.62-4.07 6.50-3.98Q6.38-3.90 6.27-3.90L6.27-3.90Q6.18-3.90 6.11-3.95Q6.04-4.00 6.00-4.07L6.00-4.07L5.84-4.35Q6.26-4.75 6.75-4.96Q7.23-5.16 7.82-5.16L7.82-5.16Q8.25-5.16 8.58-5.01Q8.91-4.88 9.13-4.63Q9.36-4.38 9.47-4.02Q9.59-3.67 9.59-3.24L9.59-3.24ZM7.28-0.55L7.28-0.55Q7.51-0.55 7.71-0.59Q7.90-0.64 8.08-0.73Q8.25-0.82 8.41-0.94Q8.56-1.06 8.71-1.23L8.71-1.23L8.71-2.28Q8.10-2.26 7.67-2.18Q7.24-2.10 6.97-1.98Q6.70-1.85 6.58-1.69Q6.46-1.52 6.46-1.30L6.46-1.30Q6.46-1.10 6.52-0.96Q6.58-0.82 6.69-0.72Q6.80-0.63 6.96-0.59Q7.10-0.55 7.28-0.55ZM12.48 0.08L12.48 0.08Q11.88 0.08 11.55-0.26Q11.23-0.59 11.23-1.22L11.23-1.22L11.23-4.32L10.62-4.32Q10.54-4.32 10.49-4.37Q10.43-4.42 10.43-4.51L10.43-4.51L10.43-4.87L11.26-4.98L11.47-6.54Q11.48-6.62 11.53-6.66Q11.59-6.71 11.67-6.71L11.67-6.71L12.12-6.71L12.12-4.96L13.57-4.96L13.57-4.32L12.12-4.32L12.12-1.28Q12.12-0.96 12.28-0.81Q12.43-0.65 12.68-0.65L12.68-0.65Q12.82-0.65 12.92-0.69Q13.02-0.72 13.10-0.77Q13.17-0.82 13.22-0.85Q13.28-0.89 13.32-0.89L13.32-0.89Q13.39-0.89 13.44-0.81L13.44-0.81L13.70-0.38Q13.47-0.17 13.15-0.04Q12.82 0.08 12.48 0.08ZM16.72-5.15L16.72-5.15Q17.28-5.15 17.72-4.96Q18.17-4.78 18.48-4.44Q18.80-4.09 18.96-3.61Q19.13-3.13 19.13-2.54L19.13-2.54Q19.13-1.94 18.96-1.46Q18.80-0.97 18.48-0.64Q18.17-0.29 17.72-0.11Q17.28 0.07 16.72 0.07L16.72 0.07Q16.17 0.07 15.72-0.11Q15.27-0.29 14.96-0.64Q14.64-0.97 14.47-1.46Q14.30-1.94 14.30-2.54L14.30-2.54Q14.30-3.13 14.47-3.61Q14.64-4.09 14.96-4.44Q15.27-4.78 15.72-4.96Q16.17-5.15 16.72-5.15ZM16.72-0.63L16.72-0.63Q17.47-0.63 17.84-1.13Q18.21-1.63 18.21-2.53L18.21-2.53Q18.21-3.44 17.84-3.94Q17.47-4.45 16.72-4.45L16.72-4.45Q16.34-4.45 16.06-4.32Q15.78-4.19 15.59-3.94Q15.41-3.70 15.31-3.34Q15.22-2.98 15.22-2.53L15.22-2.53Q15.22-2.08 15.31-1.73Q15.41-1.37 15.59-1.13Q15.78-0.89 16.06-0.76Q16.34-0.63 16.72-0.63Z"/></svg>