<svg xmlns="http://www.w3.org/2000/svg" viewBox="8.208 45.855999999999995 570.24 54.864000000000004"><path d="M8.21 47.30Q8.21 46.86 8.35 46.72Q8.50 46.58 8.86 46.58L8.86 46.58L10.87 46.58Q11.23 46.58 11.38 46.72Q11.52 46.86 11.52 47.30L11.52 47.30L11.52 96.47Q11.52 96.90 11.66 97.01Q11.81 97.12 12.17 97.12L12.17 97.12L38.30 97.12Q38.66 97.12 38.77 97.23Q38.88 97.34 38.88 97.62L38.88 97.62L38.88 99.50Q38.88 100 38.38 100L38.38 100L8.86 100Q8.21 100 8.21 99.28L8.21 99.28L8.21 47.30ZM52.06 47.51L52.06 52.48Q52.06 53.06 51.88 53.34Q51.70 53.63 51.19 53.63L51.19 53.63L49.25 53.63Q48.46 53.63 48.46 52.62L48.46 52.62L48.46 47.51Q48.46 47.08 48.71 46.83Q48.96 46.58 49.32 46.58L49.32 46.58L51.19 46.58Q51.55 46.58 51.80 46.83Q52.06 47.08 52.06 47.51L52.06 47.51ZM51.70 62.56L51.70 99.14Q51.70 99.64 51.55 99.82Q51.41 100 50.83 100L50.83 100L49.61 100Q49.10 100 48.96 99.86Q48.82 99.71 48.82 99.28L48.82 99.28L48.82 62.56Q48.82 62.13 48.96 61.98Q49.10 61.84 49.46 61.84L49.46 61.84L51.05 61.84Q51.41 61.84 51.55 61.98Q51.70 62.13 51.70 62.56L51.70 62.56ZM66.38 100L65.59 100Q65.16 100 64.98 99.78Q64.80 99.57 64.80 99.06L64.80 99.06L64.80 47.30Q64.80 46.58 65.45 46.58L65.45 46.58L67.10 46.58Q67.68 46.58 67.68 47.37L67.68 47.37L67.68 65.58Q67.68 66.30 67.97 66.30L67.97 66.30Q68.26 66.30 68.62 65.94L68.62 65.94Q70.56 64.22 73.37 62.67Q76.18 61.12 81 61.12L81 61.12Q88.85 61.12 92.74 66.63Q96.62 72.14 96.62 80.78L96.62 80.78Q96.62 90.06 92.27 95.39Q87.91 100.72 80.21 100.72L80.21 100.72Q75.46 100.72 72.54 98.88Q69.62 97.05 68.33 95.18L68.33 95.18Q68.11 94.82 67.90 94.82L67.90 94.82Q67.61 94.82 67.61 95.39L67.61 95.39L67.46 99.06Q67.46 99.64 67.25 99.82Q67.03 100 66.38 100L66.38 100ZM67.68 70.12L67.68 87.26Q67.68 90.06 69.44 92.55Q71.21 95.03 74.05 96.51Q76.90 97.98 79.92 97.98L79.92 97.98Q85.90 97.98 89.71 93.59Q93.53 89.20 93.53 80.78L93.53 80.78Q93.53 72.93 90.14 68.39Q86.76 63.86 80.50 63.86L80.50 63.86Q76.68 63.86 73.33 65.58Q69.98 67.31 67.68 70.12L67.68 70.12ZM108.07 100Q107.42 100 107.42 99.35L107.42 99.35L107.42 62.49Q107.42 61.84 108.00 61.84L108.00 61.84L109.51 61.84Q110.09 61.84 110.09 62.42L110.09 62.42L110.09 67.31Q110.09 67.67 110.23 67.74Q110.38 67.82 110.66 67.53L110.66 67.53Q113.90 64.07 116.53 62.60Q119.16 61.12 122.11 61.12L122.11 61.12Q124.63 61.12 124.63 61.84L124.63 61.84L124.63 63.71Q124.63 64.07 124.27 64.07L124.27 64.07Q124.06 64.07 123.59 64.04Q123.12 64.00 122.11 64.00L122.11 64.00Q119.81 64.00 117.00 65.44Q114.19 66.88 112.25 69.15Q110.30 71.42 110.30 73.72L110.30 73.72L110.30 99.35Q110.30 100 109.66 100L109.66 100L108.07 100ZM132.84 82.72Q132.84 86.75 134.78 90.28Q136.73 93.81 140.04 95.90Q143.35 97.98 147.31 97.98L147.31 97.98Q155.88 97.98 159.91 91.29L159.91 91.29Q160.27 90.71 160.70 91L160.70 91L162.36 92.08Q162.79 92.37 162.43 92.80L162.43 92.80Q157.46 100.72 147.31 100.72L147.31 100.72Q142.20 100.72 138.20 98.27Q134.21 95.82 132.01 91.40Q129.82 86.97 129.82 81.21L129.82 81.21Q129.82 75.02 132.05 70.48Q134.28 65.94 138.24 63.53Q142.20 61.12 147.31 61.12L147.31 61.12Q154.94 61.12 159.37 66.20Q163.80 71.27 163.80 80.27L163.80 80.27L163.80 80.63Q163.80 81.14 163.62 81.42Q163.44 81.71 162.86 81.71L162.86 81.71L133.27 81.71Q132.84 81.71 132.84 82.72L132.84 82.72ZM132.91 79.12L159.55 79.12Q160.27 79.12 160.52 78.90Q160.78 78.69 160.78 78.11L160.78 78.11Q160.78 74.15 159.12 70.88Q157.46 67.60 154.40 65.73Q151.34 63.86 147.24 63.86L147.24 63.86Q142.70 63.86 139.46 66.09Q136.22 68.32 134.53 71.85Q132.84 75.38 132.91 79.12L132.91 79.12ZM191.38 47.30Q191.38 46.86 191.52 46.72Q191.66 46.58 192.02 46.58L192.02 46.58L221.18 46.58Q221.69 46.58 221.69 47.08L221.69 47.08L221.69 48.95Q221.69 49.24 221.58 49.35Q221.47 49.46 221.11 49.46L221.11 49.46L195.34 49.46Q194.98 49.46 194.83 49.56Q194.69 49.67 194.69 50.10L194.69 50.10L194.69 71.99Q194.69 72.28 194.83 72.39Q194.98 72.50 195.34 72.50L195.34 72.50L216.86 72.50Q217.37 72.50 217.37 73L217.37 73L217.37 74.87Q217.37 75.16 217.26 75.27Q217.15 75.38 216.79 75.38L216.79 75.38L195.34 75.38Q194.98 75.38 194.83 75.48Q194.69 75.59 194.69 76.02L194.69 76.02L194.69 99.50Q194.69 100 194.18 100L194.18 100L192.02 100Q191.66 100 191.52 99.86Q191.38 99.71 191.38 99.28L191.38 99.28L191.38 47.30ZM228.74 100Q228.10 100 228.10 99.35L228.10 99.35L228.10 62.49Q228.10 61.84 228.67 61.84L228.67 61.84L230.18 61.84Q230.76 61.84 230.76 62.42L230.76 62.42L230.76 67.31Q230.76 67.67 230.90 67.74Q231.05 67.82 231.34 67.53L231.34 67.53Q234.58 64.07 237.20 62.60Q239.83 61.12 242.78 61.12L242.78 61.12Q245.30 61.12 245.30 61.84L245.30 61.84L245.30 63.71Q245.30 64.07 244.94 64.07L244.94 64.07Q244.73 64.07 244.26 64.04Q243.79 64.00 242.78 64.00L242.78 64.00Q240.48 64.00 237.67 65.44Q234.86 66.88 232.92 69.15Q230.98 71.42 230.98 73.72L230.98 73.72L230.98 99.35Q230.98 100 230.33 100L230.33 100L228.74 100ZM276.55 94.82Q270.65 100.72 262.87 100.72L262.87 100.72Q257.18 100.72 253.91 97.91Q250.63 95.10 250.63 90.28L250.63 90.28Q250.63 79.34 268.42 77.82L268.42 77.82L275.98 77.18Q277.20 77.03 277.20 76.10L277.20 76.10L277.20 73.86Q277.20 69.26 274.28 66.56Q271.37 63.86 266.47 63.86L266.47 63.86Q259.34 63.86 254.38 70.48L254.38 70.48Q254.23 70.70 254.05 70.80Q253.87 70.91 253.66 70.77L253.66 70.77L251.93 69.69Q251.57 69.47 251.93 68.97L251.93 68.97Q254.38 65.37 258.05 63.24Q261.72 61.12 266.62 61.12L266.62 61.12Q272.74 61.12 276.41 64.47Q280.08 67.82 280.08 73.58L280.08 73.58L280.08 99.28Q280.08 100 279.36 100L279.36 100L278.06 100Q277.42 100 277.42 99.35L277.42 99.35L277.27 94.96Q277.20 94.60 277.02 94.56Q276.84 94.53 276.55 94.82L276.55 94.82ZM277.20 80.85Q277.20 79.70 276.19 79.84L276.19 79.84L269.78 80.34Q261.43 80.99 257.54 83.40Q253.66 85.82 253.66 90.06L253.66 90.06Q253.66 93.74 256.28 95.86Q258.91 97.98 263.30 97.98L263.30 97.98Q265.90 97.98 268.45 97.05Q271.01 96.11 273.10 94.46L273.10 94.46Q275.11 92.87 276.16 91.11Q277.20 89.34 277.20 87.69L277.20 87.69L277.20 80.85ZM293.11 100Q292.46 100 292.46 99.35L292.46 99.35L292.46 62.49Q292.46 61.84 293.04 61.84L293.04 61.84L294.55 61.84Q295.13 61.84 295.13 62.42L295.13 62.42L295.13 66.88Q295.13 67.24 295.27 67.31Q295.42 67.38 295.70 67.10L295.70 67.10Q300.38 63.78 303.19 62.45Q306.00 61.12 309.67 61.12L309.67 61.12Q315.29 61.12 318.31 64.00Q321.34 66.88 321.34 71.70L321.34 71.70L321.34 99.28Q321.34 100 320.69 100L320.69 100L319.10 100Q318.46 100 318.46 99.35L318.46 99.35L318.46 72.86Q318.46 63.86 309.60 63.86L309.60 63.86Q306.00 63.86 303.08 65.33Q300.17 66.81 295.34 70.48L295.34 70.48L295.34 99.35Q295.34 100 294.70 100L294.70 100L293.11 100ZM363.67 99.14Q363.89 99.42 363.89 99.71L363.89 99.71Q363.89 100 363.31 100L363.31 100L361.08 100Q360.50 100 360.22 99.50L360.22 99.50L347.11 78.47Q346.97 78.26 346.86 78.26Q346.75 78.26 346.54 78.47L346.54 78.47L337.32 87.83Q336.82 88.34 336.82 89.06L336.82 89.06L336.82 99.14Q336.82 99.64 336.67 99.82Q336.53 100 335.95 100L335.95 100L334.73 100Q334.22 100 334.08 99.86Q333.94 99.71 333.94 99.28L333.94 99.28L333.94 47.30Q333.94 46.86 334.08 46.72Q334.22 46.58 334.58 46.58L334.58 46.58L336.17 46.58Q336.53 46.58 336.67 46.72Q336.82 46.86 336.82 47.30L336.82 47.30L336.82 83.15Q336.82 83.87 337.03 83.87L337.03 83.87Q337.18 83.87 337.54 83.51L337.54 83.51L357.98 62.56Q358.34 62.13 358.60 61.98Q358.85 61.84 359.21 61.84L359.21 61.84L361.51 61.84Q362.09 61.84 362.09 62.20L362.09 62.20Q362.09 62.49 361.66 62.92L361.66 62.92L349.49 75.38Q349.13 75.74 349.42 76.17L349.42 76.17L363.67 99.14ZM375.55 47.30L375.55 99.14Q375.55 99.64 375.41 99.82Q375.26 100 374.69 100L374.69 100L373.46 100Q372.96 100 372.82 99.86Q372.67 99.71 372.67 99.28L372.67 99.28L372.67 47.30Q372.67 46.86 372.82 46.72Q372.96 46.58 373.32 46.58L373.32 46.58L374.90 46.58Q375.26 46.58 375.41 46.72Q375.55 46.86 375.55 47.30L375.55 47.30ZM391.90 47.51L391.90 52.48Q391.90 53.06 391.72 53.34Q391.54 53.63 391.03 53.63L391.03 53.63L389.09 53.63Q388.30 53.63 388.30 52.62L388.30 52.62L388.30 47.51Q388.30 47.08 388.55 46.83Q388.80 46.58 389.16 46.58L389.16 46.58L391.03 46.58Q391.39 46.58 391.64 46.83Q391.90 47.08 391.90 47.51L391.90 47.51ZM391.54 62.56L391.54 99.14Q391.54 99.64 391.39 99.82Q391.25 100 390.67 100L390.67 100L389.45 100Q388.94 100 388.80 99.86Q388.66 99.71 388.66 99.28L388.66 99.28L388.66 62.56Q388.66 62.13 388.80 61.98Q388.94 61.84 389.30 61.84L389.30 61.84L390.89 61.84Q391.25 61.84 391.39 61.98Q391.54 62.13 391.54 62.56L391.54 62.56ZM405.29 100Q404.64 100 404.64 99.35L404.64 99.35L404.64 62.49Q404.64 61.84 405.22 61.84L405.22 61.84L406.73 61.84Q407.30 61.84 407.30 62.42L407.30 62.42L407.30 66.88Q407.30 67.24 407.45 67.31Q407.59 67.38 407.88 67.10L407.88 67.10Q412.56 63.78 415.37 62.45Q418.18 61.12 421.85 61.12L421.85 61.12Q427.46 61.12 430.49 64.00Q433.51 66.88 433.51 71.70L433.51 71.70L433.51 99.28Q433.51 100 432.86 100L432.86 100L431.28 100Q430.63 100 430.63 99.35L430.63 99.35L430.63 72.86Q430.63 63.86 421.78 63.86L421.78 63.86Q418.18 63.86 415.26 65.33Q412.34 66.81 407.52 70.48L407.52 70.48L407.52 99.35Q407.52 100 406.87 100L406.87 100L405.29 100ZM483.05 96.98Q483.55 96.98 483.55 97.41L483.55 97.41L483.55 99.57Q483.55 99.71 483.41 99.86Q483.26 100 483.05 100L483.05 100L459.86 100Q459.43 100 459.43 99.57L459.43 99.57L459.43 97.41Q459.43 96.98 459.86 96.98L459.86 96.98L470.02 96.98Q470.45 96.98 470.45 96.69L470.45 96.69L470.45 51.18Q470.45 50.61 470.02 50.75L470.02 50.75L459.94 54.78L459.72 54.86Q459.36 54.86 459.36 54.28L459.36 54.28L459.36 52.55Q459.36 52.26 459.47 52.16Q459.58 52.05 459.79 51.90L459.79 51.90L469.66 47.01Q470.45 46.58 471.24 46.58L471.24 46.58L473.18 46.58Q473.76 46.58 473.76 47.22L473.76 47.22L473.76 96.54Q473.76 96.98 474.12 96.98L474.12 96.98L483.05 96.98ZM511.27 45.86Q516.60 45.86 520.81 48.92Q525.02 51.98 527.44 58.20Q529.85 64.43 529.85 73.43L529.85 73.43Q529.85 82.43 527.44 88.55Q525.02 94.67 520.81 97.70Q516.60 100.72 511.20 100.72L511.20 100.72Q505.80 100.72 501.62 97.70Q497.45 94.67 495.04 88.59Q492.62 82.50 492.62 73.58L492.62 73.58Q492.62 64.50 495.07 58.28Q497.52 52.05 501.73 48.95Q505.94 45.86 511.27 45.86L511.27 45.86ZM511.34 97.70Q518.33 97.70 522.36 91.72Q526.39 85.74 526.39 73.43L526.39 73.43Q526.39 61.05 522.29 54.96Q518.18 48.88 511.27 48.88L511.27 48.88Q504.36 48.88 500.22 55.00Q496.08 61.12 496.08 73.43L496.08 73.43Q496.08 85.67 500.22 91.68Q504.36 97.70 511.34 97.70L511.34 97.70ZM559.87 45.86Q565.20 45.86 569.41 48.92Q573.62 51.98 576.04 58.20Q578.45 64.43 578.45 73.43L578.45 73.43Q578.45 82.43 576.04 88.55Q573.62 94.67 569.41 97.70Q565.20 100.72 559.80 100.72L559.80 100.72Q554.40 100.72 550.22 97.70Q546.05 94.67 543.64 88.59Q541.22 82.50 541.22 73.58L541.22 73.58Q541.22 64.50 543.67 58.28Q546.12 52.05 550.33 48.95Q554.54 45.86 559.87 45.86L559.87 45.86ZM559.94 97.70Q566.93 97.70 570.96 91.72Q574.99 85.74 574.99 73.43L574.99 73.43Q574.99 61.05 570.89 54.96Q566.78 48.88 559.87 48.88L559.87 48.88Q552.96 48.88 548.82 55.00Q544.68 61.12 544.68 73.43L544.68 73.43Q544.68 85.67 548.82 91.68Q552.96 97.70 559.94 97.70L559.94 97.70Z"/></svg>