<svg xmlns="http://www.w3.org/2000/svg" viewBox="3.2118750000000005 46.57599999999999 985.3481250000003 54.144000000000005"><path d="M10 48Q10 47 11 47Q11 47 11 47L11 47L20 47Q21 47 21 48L21 48L15 91L15 92Q15 92 16 92L16 92L39 92Q40 92 40 93L40 93L39 99Q39 100 39 100Q39 100 38 100L38 100L4 100Q3 100 3 98L3 98L10 48ZM63 48L62 55Q62 56 62 56Q61 56 60 56L60 56L54 56Q52 56 53 55L53 55L54 48Q54 47 55 47L55 47L62 47Q63 47 63 47Q63 47 63 48L63 48ZM61 63L56 99Q56 100 56 100Q55 100 54 100L54 100L48 100Q47 100 47 100Q47 99 47 98L47 98L52 63Q52 62 52 62Q52 62 53 62L53 62L60 62Q61 62 61 62Q61 63 61 63L61 63ZM71 100L67 100Q66 100 65 100Q65 99 65 98L65 98L72 48Q72 47 73 47Q73 47 73 47L73 47L81 47Q82 47 82 48L82 48L79 65L79 65Q79 65 79 65L79 65Q79 65 80 65L80 65Q85 61 91 61L91 61Q97 61 101 65Q104 69 104 76L104 76Q104 82 102 88Q100 94 96 97Q91 101 85 101L85 101Q81 101 79 99Q76 97 74 95L74 95Q74 95 74 95L74 95Q73 95 73 95L73 95L72 99Q72 99 72 100Q71 100 71 100L71 100ZM78 72L76 87Q76 88 76 88L76 88Q76 91 78 93Q80 95 83 95L83 95Q87 95 89 92Q92 89 93 84Q95 80 95 76L95 76Q95 67 88 67L88 67Q85 67 83 68Q80 70 78 72L78 72ZM110 100Q109 100 109 100Q109 99 109 98L109 98L114 63Q114 62 114 62Q114 62 115 62L115 62L122 62Q123 62 123 63L123 63L122 67L122 67Q122 67 122 67L122 67Q123 67 123 67L123 67Q126 64 129 63Q132 61 134 61L134 61Q136 61 137 61Q137 62 137 62L137 62L136 69Q136 70 136 70Q136 70 136 70L136 70Q132 70 131 70L131 70Q129 70 127 71Q125 72 123 73Q121 75 121 77L121 77L118 99Q118 100 118 100Q117 100 116 100L116 100L110 100ZM154 101Q149 101 146 99Q142 97 140 93Q138 89 138 84L138 84Q138 78 140 73Q143 68 148 64Q153 61 159 61L159 61Q166 61 171 65Q175 70 175 78L175 78Q175 80 175 82L175 82Q175 82 174 82Q174 83 173 83L173 83L148 83Q147 83 147 84Q147 84 147 86L147 86Q147 90 149 92Q152 94 156 94L156 94Q159 94 161 93Q164 92 166 89L166 89Q167 89 167 89L167 89Q167 89 168 89L168 89L172 91Q173 91 173 92L173 92Q173 92 172 93L172 93Q168 97 164 99Q160 101 154 101L154 101ZM148 78L165 78Q167 78 167 75L167 75Q167 71 165 69Q163 67 159 67L159 67Q156 67 154 68Q151 70 150 72Q148 75 148 78L148 78ZM203 48Q203 47 203 47Q203 47 204 47L204 47L238 47Q239 47 239 47Q239 47 239 48L239 48L238 53Q238 54 238 54Q238 54 237 54L237 54L213 54Q213 54 212 55Q212 55 212 56L212 56L210 69L210 69Q210 70 211 70L211 70L228 70Q229 70 229 70Q229 70 229 71L229 71L228 77Q228 77 228 77Q228 78 227 78L227 78L210 78Q209 78 209 78Q209 78 209 79L209 79L206 99Q206 100 206 100Q205 100 205 100L205 100L196 100Q196 100 196 100Q195 100 195 99L195 99Q195 99 195 98L195 98L203 48ZM236 100Q235 100 235 100Q235 99 235 98L235 98L240 63Q240 62 240 62Q240 62 241 62L241 62L248 62Q249 62 249 63L249 63L248 67L248 67Q248 67 248 67L248 67Q249 67 249 67L249 67Q252 64 255 63Q258 61 260 61L260 61Q262 61 262 61Q263 62 263 62L263 62L262 69Q262 70 262 70Q262 70 261 70L261 70Q258 70 257 70L257 70Q255 70 253 71Q251 72 249 73Q247 75 247 77L247 77L244 99Q244 100 244 100Q243 100 242 100L242 100L236 100ZM286 96Q281 101 273 101L273 101Q268 101 265 98Q263 96 263 91L263 91Q263 86 266 83Q269 80 274 79Q279 77 285 77L285 77L288 77Q290 76 290 75L290 75L290 74Q290 73 290 72L290 72Q290 70 289 69Q287 67 284 67L284 67Q278 67 275 72L275 72Q274 72 274 72L274 72Q274 72 273 72L273 72L268 71Q267 71 267 70L267 70Q267 70 267 69L267 69Q270 65 274 63Q279 61 285 61L285 61Q292 61 296 64Q299 67 299 71L299 71Q299 72 299 74L299 74L295 99Q295 100 295 100Q295 100 294 100L294 100L288 100Q287 100 287 98L287 98L287 96Q287 95 287 95L287 95Q286 95 286 96L286 96ZM288 87L289 82L289 82Q289 81 289 81Q288 81 288 81L288 81L285 82Q280 82 276 84Q272 86 272 90L272 90Q272 92 273 93Q275 94 277 94L277 94Q279 94 281 94Q283 93 285 92L285 92Q288 90 288 87L288 87ZM305 100Q304 100 304 98L304 98L309 63Q309 62 309 62Q309 62 310 62L310 62L318 62Q318 62 318 62Q318 62 318 63L318 63L318 67L318 67Q318 67 318 67L318 67Q318 67 318 67L318 67Q325 61 331 61L331 61Q336 61 339 64Q342 66 342 71L342 71Q342 71 342 73L342 73L338 99Q338 99 337 100Q337 100 336 100L336 100L329 100Q328 100 329 98L329 98L332 74L332 72Q332 68 327 68L327 68Q325 68 322 69Q320 70 317 73L317 73L313 99Q313 100 313 100Q312 100 312 100L312 100L305 100ZM383 99Q383 99 383 99L383 99Q383 100 382 100L382 100L374 100Q373 100 373 100Q373 99 372 98L372 98L366 83Q366 82 366 82L366 82Q365 82 365 82L365 82L358 88Q357 89 357 90L357 90L356 99Q356 100 356 100Q355 100 354 100L354 100L348 100Q346 100 347 98L347 98L354 48Q354 47 354 47Q354 47 355 47L355 47L362 47Q363 47 363 48L363 48L359 79L359 79Q359 79 359 79L359 79L377 63Q378 62 379 62L379 62L385 62Q386 62 386 62Q386 62 386 63L386 63Q386 63 386 64L386 64L374 74Q373 75 373 75Q373 76 373 76L373 76L383 99ZM406 48L398 99Q398 100 398 100Q398 100 397 100L397 100L390 100Q390 100 389 100Q389 99 389 98L389 98L396 48Q397 47 397 47Q397 47 397 47L397 47L405 47Q406 47 406 48L406 48ZM424 48L423 55Q423 56 423 56Q422 56 421 56L421 56L415 56Q413 56 414 55L414 55L415 48Q415 47 416 47L416 47L423 47Q424 47 424 47Q424 47 424 48L424 48ZM422 63L417 99Q417 100 416 100Q416 100 415 100L415 100L409 100Q408 100 408 100Q407 99 408 98L408 98L413 63Q413 62 413 62Q413 62 414 62L414 62L421 62Q422 62 422 62Q422 63 422 63L422 63ZM427 100Q426 100 426 98L426 98L431 63Q431 62 431 62Q431 62 432 62L432 62L440 62Q440 62 440 62Q440 62 440 63L440 63L440 67L440 67Q440 67 440 67L440 67Q440 67 440 67L440 67Q447 61 453 61L453 61Q458 61 461 64Q464 66 464 71L464 71Q464 71 464 73L464 73L460 99Q460 99 460 100Q459 100 458 100L458 100L452 100Q450 100 451 98L451 98L454 74L454 72Q454 68 449 68L449 68Q447 68 444 69Q442 70 439 73L439 73L435 99Q435 100 435 100Q435 100 434 100L434 100L427 100ZM498 101Q492 101 488 98Q483 96 482 92L482 92Q482 92 482 92L482 92Q482 91 482 91L482 91L486 89Q487 89 487 89L487 89Q488 89 488 89L488 89Q491 95 498 95L498 95Q501 95 504 93Q507 92 507 89L507 89Q507 87 502 85L502 85L495 83Q490 82 488 80Q486 78 486 74L486 74Q486 70 488 67Q491 64 494 63Q498 61 503 61L503 61Q508 61 512 63Q515 65 517 68L517 68Q517 69 517 69L517 69Q517 69 517 70L517 70L513 72Q512 72 512 72L512 72Q512 72 511 71L511 71Q510 69 508 68Q506 67 503 67L503 67Q500 67 497 68Q494 70 494 72L494 72Q494 73 495 74Q496 75 498 76L498 76L507 78Q511 79 513 82Q516 84 516 88L516 88Q516 92 513 95Q511 98 507 99Q503 101 498 101L498 101ZM539 101Q534 101 530 99Q526 97 524 93Q522 89 522 84L522 84Q522 78 524 73Q527 68 532 64Q537 61 543 61L543 61Q551 61 555 65Q559 70 559 78L559 78Q559 80 559 82L559 82Q559 82 559 82Q558 83 557 83L557 83L532 83Q532 83 531 84Q531 84 531 86L531 86Q531 90 533 92Q536 94 540 94L540 94Q543 94 546 93Q548 92 550 89L550 89Q551 89 551 89L551 89Q551 89 552 89L552 89L556 91Q557 91 557 92L557 92Q557 92 556 93L556 93Q553 97 548 99Q544 101 539 101L539 101ZM532 78L549 78Q551 78 551 75L551 75Q551 71 549 69Q547 67 543 67L543 67Q541 67 538 68Q536 70 534 72Q533 75 532 78L532 78ZM565 100Q564 100 564 100Q563 99 563 98L563 98L568 63Q569 62 569 62Q569 62 569 62L569 62L577 62Q577 62 578 62Q578 62 578 63L578 63L577 66L577 66Q577 67 578 67L578 67Q582 64 584 62Q587 61 591 61L591 61Q594 61 597 63Q599 65 600 68L600 68Q600 68 600 68L600 68Q600 68 601 67L601 67Q609 61 615 61L615 61Q619 61 622 64Q624 66 624 71L624 71Q624 72 624 73L624 73L621 99Q620 99 620 100Q620 100 619 100L619 100L613 100Q612 100 612 100Q611 99 611 98L611 98L615 74Q615 73 615 72L615 72Q615 68 610 68L610 68Q606 68 601 72L601 72Q601 73 600 73Q600 74 600 74L600 74L597 99Q597 99 596 100Q596 100 595 100L595 100L589 100Q588 100 588 100Q587 99 587 98L587 98L591 74Q591 73 591 72L591 72Q591 68 586 68L586 68Q584 68 582 69Q579 70 576 73L576 73L573 99Q573 100 572 100Q572 100 571 100L571 100L565 100ZM646 48L645 55Q645 56 644 56Q644 56 643 56L643 56L636 56Q635 56 635 55L635 55L636 48Q636 47 637 47L637 47L645 47Q646 47 646 47Q646 47 646 48L646 48ZM644 63L639 99Q638 100 638 100Q638 100 637 100L637 100L631 100Q630 100 629 100Q629 99 629 98L629 98L634 63Q634 62 635 62Q635 62 635 62L635 62L643 62Q643 62 643 62Q644 63 644 63L644 63ZM668 100L664 100Q663 100 663 100Q663 99 663 98L663 98L670 48Q670 47 670 47Q670 47 671 47L671 47L679 47Q679 47 679 48L679 48L677 65L677 65Q677 65 677 65L677 65Q677 65 678 65L678 65Q683 61 689 61L689 61Q695 61 698 65Q702 69 702 76L702 76Q702 82 700 88Q698 94 693 97Q689 101 683 101L683 101Q679 101 676 99Q673 97 672 95L672 95Q672 95 672 95L672 95Q671 95 671 95L671 95L670 99Q670 99 669 100Q669 100 668 100L668 100ZM676 72L674 87Q674 88 674 88L674 88Q674 91 676 93Q678 95 680 95L680 95Q685 95 687 92Q690 89 691 84Q692 80 692 76L692 76Q692 67 686 67L686 67Q683 67 680 68Q678 70 676 72L676 72ZM723 101Q718 101 715 99Q711 97 709 93Q707 89 707 84L707 84Q707 78 710 72Q713 67 718 64Q723 61 728 61L728 61Q733 61 737 63Q741 65 743 69Q745 73 745 78L745 78Q745 84 742 90Q739 95 734 98Q729 101 723 101L723 101ZM724 94Q727 94 730 92Q733 90 734 86Q736 82 736 76L736 76Q736 72 734 70Q732 67 728 67L728 67Q725 67 722 70Q719 72 718 76Q716 80 716 85L716 85Q716 90 718 92Q720 94 724 94L724 94ZM766 48L759 99Q759 100 758 100Q758 100 757 100L757 100L751 100Q750 100 750 100Q749 99 749 98L749 98L757 48Q757 47 757 47Q757 47 758 47L758 47L765 47Q766 47 766 48L766 48ZM801 100L795 100Q793 100 793 99L793 99L794 96L794 96Q794 96 794 96L794 96Q793 96 793 96L793 96Q790 98 788 99Q785 101 782 101L782 101Q776 101 772 97Q768 93 768 85L768 85Q768 79 771 74Q773 68 777 65Q782 61 787 61L787 61Q790 61 793 62Q795 63 796 65L796 65Q797 66 797 66L797 66Q798 66 798 64L798 64L800 48Q800 47 802 47L802 47L809 47Q810 47 810 48L810 48L802 99Q802 99 802 100Q802 100 801 100L801 100ZM795 87L797 71Q796 69 794 68Q792 67 790 67L790 67Q786 67 783 70Q780 73 779 77Q778 82 778 86L778 86Q778 90 780 92Q782 95 785 95L785 95Q788 95 790 94Q792 92 793 91Q794 89 795 87L795 87ZM843 48L842 55Q842 56 842 56Q841 56 841 56L841 56L834 56Q832 56 833 55L833 55L834 48Q834 47 835 47L835 47L843 47Q843 47 843 47Q843 47 843 48L843 48ZM841 63L836 99Q836 100 836 100Q835 100 834 100L834 100L828 100Q827 100 827 100Q827 99 827 98L827 98L832 63Q832 62 832 62Q832 62 833 62L833 62L840 62Q841 62 841 62Q841 63 841 63L841 63ZM859 100Q855 100 852 98Q850 96 850 93L850 93Q850 92 850 91L850 91L853 69L853 69Q853 68 852 68L852 68L847 68Q846 68 847 67L847 67L847 62Q847 62 847 62Q848 62 848 62L848 62L853 62Q854 62 854 62Q854 61 854 61L854 61L857 50Q857 49 858 49L858 49L865 49Q865 49 865 49Q865 50 865 50L865 50L864 61L864 61Q864 62 864 62L864 62L872 62Q874 62 873 63L873 63L873 68Q873 68 872 68Q872 68 872 68L872 68L863 68Q863 68 862 69L862 69L860 89Q860 89 860 90L860 90Q860 92 861 93Q861 93 864 93L864 93L868 93Q868 93 869 94Q869 94 869 95L869 95L868 98Q868 99 867 100L867 100Q864 100 859 100L859 100ZM897 96Q892 101 885 101L885 101Q880 101 877 98Q874 96 874 91L874 91Q874 86 877 83Q880 80 885 79Q890 77 896 77L896 77L899 77Q901 76 901 75L901 75L901 74Q901 73 901 72L901 72Q901 70 900 69Q898 67 895 67L895 67Q889 67 886 72L886 72Q886 72 885 72L885 72Q885 72 885 72L885 72L879 71Q878 71 878 70L878 70Q878 70 879 69L879 69Q881 65 885 63Q890 61 896 61L896 61Q903 61 907 64Q910 67 910 71L910 71Q910 72 910 74L910 74L907 99Q907 100 906 100Q906 100 905 100L905 100L899 100Q898 100 898 98L898 98L898 96Q898 95 898 95L898 95Q898 95 897 96L897 96ZM899 87L900 82L900 82Q900 81 900 81Q900 81 899 81L899 81L896 82Q891 82 887 84Q883 86 883 90L883 90Q883 92 885 93Q886 94 889 94L889 94Q891 94 893 94Q895 93 896 92L896 92Q899 90 899 87L899 87ZM932 48L925 99Q925 100 924 100Q924 100 923 100L923 100L917 100Q916 100 916 100Q915 99 915 98L915 98L923 48Q923 47 923 47Q923 47 924 47L924 47L931 47Q932 47 932 48L932 48ZM950 48L949 55Q949 56 949 56Q949 56 948 56L948 56L941 56Q940 56 940 55L940 55L941 48Q941 47 942 47L942 47L950 47Q950 47 950 47Q951 47 950 48L950 48ZM948 63L943 99Q943 100 943 100Q942 100 941 100L941 100L935 100Q934 100 934 100Q934 99 934 98L934 98L939 63Q939 62 939 62Q939 62 940 62L940 62L947 62Q948 62 948 62Q948 63 948 63L948 63ZM974 61Q980 61 984 64Q987 67 989 72L989 72L989 72Q989 73 988 73L988 73L982 74L981 74Q981 74 981 73Q981 73 981 72L981 72Q979 70 978 69Q977 67 974 67L974 67Q970 67 968 70Q965 73 963 77Q962 81 962 85L962 85Q962 90 964 92Q966 95 970 95L970 95Q973 95 976 93Q978 91 980 88L980 88Q981 88 981 88Q981 88 982 88L982 88L986 89Q987 89 987 90L987 90Q987 90 986 91L986 91Q984 95 980 98Q975 101 969 101L969 101Q964 101 960 99Q957 97 955 93Q953 89 953 84L953 84Q953 78 955 73Q958 68 963 64Q968 61 974 61L974 61Z"/></svg>