<svg xmlns="http://www.w3.org/2000/svg" viewBox="-0.25 -8.3 78.76000000000002 8.4"><path d="M-0.25 0L-0.14-0.40Q0.19-0.40 0.41-0.45Q0.62-0.50 0.77-0.64Q0.91-0.77 1.01-0.99Q1.11-1.22 1.20-1.58L1.20-1.58L2.33-6Q2.40-6.28 2.44-6.48Q2.48-6.68 2.48-6.82L2.48-6.82Q2.48-7.09 2.31-7.20Q2.13-7.30 1.71-7.30L1.71-7.30L1.49-7.30L1.60-7.70L4.85-7.70L4.74-7.30Q4.41-7.30 4.19-7.24Q3.97-7.17 3.81-6.99Q3.65-6.81 3.52-6.49Q3.40-6.17 3.27-5.66L3.27-5.66L2.23-1.70Q2.14-1.37 2.14-1.14L2.14-1.14Q2.14-0.78 2.39-0.60Q2.63-0.43 3.26-0.43L3.26-0.43Q3.86-0.43 4.29-0.53Q4.73-0.63 5.06-0.85Q5.39-1.08 5.63-1.44Q5.88-1.79 6.09-2.31L6.09-2.31L6.56-2.31L5.68 0L-0.25 0ZM7.66-2.02L8.11-3.30Q8.25-3.69 8.31-3.93Q8.37-4.17 8.37-4.31L8.37-4.31Q8.37-4.45 8.33-4.50Q8.28-4.54 8.23-4.54L8.23-4.54Q8.12-4.54 7.99-4.44Q7.86-4.33 7.73-4.19Q7.60-4.05 7.50-3.91Q7.40-3.77 7.36-3.69L7.36-3.69L7.07-3.87Q7.19-4.09 7.41-4.36Q7.62-4.63 7.89-4.86Q8.16-5.09 8.45-5.25Q8.74-5.40 9-5.40L9-5.40Q9.25-5.40 9.38-5.25Q9.50-5.11 9.50-4.73L9.50-4.73Q9.50-4.44 9.33-3.95Q9.15-3.46 8.87-2.69L8.87-2.69L8.50-1.68Q8.48-1.63 8.45-1.53Q8.41-1.42 8.38-1.30Q8.34-1.19 8.32-1.08Q8.29-0.97 8.29-0.90L8.29-0.90Q8.29-0.81 8.34-0.74Q8.39-0.67 8.50-0.67L8.50-0.67Q8.65-0.67 8.81-0.80Q8.97-0.92 9.12-1.09Q9.27-1.26 9.39-1.44Q9.51-1.61 9.57-1.71L9.57-1.71L9.87-1.54Q9.75-1.30 9.55-1.01Q9.34-0.72 9.08-0.48Q8.82-0.23 8.51-0.07Q8.20 0.10 7.87 0.10L7.87 0.10Q7.58 0.10 7.44-0.05Q7.29-0.20 7.29-0.55L7.29-0.55Q7.29-0.84 7.39-1.18Q7.48-1.51 7.66-2.02L7.66-2.02ZM9.58-7.04L9.58-7.04Q9.33-7.04 9.15-7.21Q8.96-7.38 8.96-7.65L8.96-7.65Q8.96-7.92 9.14-8.11Q9.32-8.30 9.58-8.30L9.58-8.30Q9.86-8.30 10.04-8.11Q10.22-7.92 10.22-7.66L10.22-7.66Q10.22-7.40 10.03-7.22Q9.84-7.04 9.58-7.04ZM13.55-8.29L12.28-4.44L12.31-4.42Q12.60-4.88 13.04-5.13Q13.47-5.39 13.96-5.39L13.96-5.39Q14.57-5.39 14.90-5.01Q15.23-4.63 15.23-3.97L15.23-3.97Q15.23-3.50 15.09-3.01Q14.95-2.52 14.71-2.07Q14.46-1.62 14.13-1.23Q13.80-0.83 13.43-0.54Q13.05-0.24 12.63-0.07Q12.22 0.10 11.82 0.10L11.82 0.10Q11.25 0.10 10.88-0.24Q10.52-0.59 10.52-1.14L10.52-1.14Q10.52-1.40 10.63-1.88Q10.74-2.35 10.95-3.01L10.95-3.01L12.16-6.91Q12.21-7.09 12.26-7.28Q12.31-7.46 12.31-7.55L12.31-7.55Q12.31-7.90 11.54-7.90L11.54-7.90L11.63-8.20L13.55-8.29ZM11.98-0.41L11.98-0.41Q12.21-0.41 12.47-0.58Q12.73-0.74 12.98-1.02Q13.23-1.30 13.46-1.67Q13.69-2.04 13.86-2.44Q14.03-2.85 14.13-3.27Q14.24-3.68 14.24-4.05L14.24-4.05Q14.24-4.40 14.08-4.63Q13.92-4.86 13.69-4.86L13.69-4.86Q13.47-4.86 13.21-4.70Q12.96-4.53 12.71-4.25Q12.47-3.96 12.25-3.60Q12.02-3.23 11.85-2.83Q11.67-2.42 11.57-2.01Q11.47-1.60 11.47-1.23L11.47-1.23Q11.47-0.41 11.98-0.41ZM16.05-3.78L15.79-3.91Q15.90-4.16 16.13-4.42Q16.35-4.69 16.61-4.91Q16.88-5.12 17.15-5.26Q17.42-5.40 17.62-5.40L17.62-5.40Q17.86-5.40 17.97-5.22Q18.08-5.04 18.08-4.64L18.08-4.64Q18.08-4.48 18.07-4.33Q18.05-4.18 18.01-3.98L18.01-3.98L18.04-3.95Q18.16-4.24 18.38-4.52Q18.60-4.80 18.86-5.01Q19.11-5.23 19.38-5.37Q19.64-5.50 19.87-5.50L19.87-5.50Q20.16-5.50 20.36-5.32Q20.55-5.13 20.55-4.86L20.55-4.86Q20.55-4.60 20.38-4.43Q20.22-4.26 19.96-4.26L19.96-4.26Q19.80-4.26 19.70-4.32Q19.61-4.38 19.54-4.45Q19.47-4.51 19.41-4.57Q19.35-4.63 19.26-4.63L19.26-4.63Q19.07-4.63 18.82-4.38Q18.57-4.12 18.30-3.68Q18.03-3.24 17.77-2.65Q17.50-2.06 17.28-1.38L17.28-1.38L16.83 0L15.90 0L16.55-2.07Q16.74-2.67 16.86-3.06Q16.99-3.46 17.06-3.73Q17.13-3.99 17.16-4.14Q17.18-4.29 17.18-4.40L17.18-4.40Q17.18-4.62 17.03-4.62L17.03-4.62Q16.93-4.62 16.79-4.54Q16.64-4.46 16.50-4.34Q16.36-4.22 16.23-4.07Q16.11-3.92 16.05-3.78L16.05-3.78ZM23.45-1.54L23.77-1.33Q22.90 0.10 21.63 0.10L21.63 0.10Q20.94 0.10 20.57-0.33Q20.20-0.75 20.20-1.53L20.20-1.53Q20.20-2.22 20.49-2.91Q20.77-3.60 21.23-4.16Q21.69-4.71 22.26-5.05Q22.83-5.40 23.40-5.40L23.40-5.40Q23.88-5.40 24.19-5.16Q24.49-4.91 24.49-4.53L24.49-4.53Q24.49-4.18 24.23-3.81Q23.97-3.44 23.53-3.11Q23.08-2.78 22.49-2.51Q21.89-2.24 21.22-2.09L21.22-2.09Q21.20-1.95 21.19-1.81Q21.18-1.68 21.18-1.54L21.18-1.54Q21.18-0.45 21.95-0.45L21.95-0.45Q22.32-0.45 22.72-0.74Q23.11-1.03 23.45-1.54L23.45-1.54ZM23.20-4.93L23.20-4.93Q22.94-4.93 22.66-4.73Q22.38-4.53 22.13-4.20Q21.87-3.86 21.66-3.43Q21.45-3 21.32-2.54L21.32-2.54Q21.80-2.67 22.21-2.88Q22.62-3.09 22.92-3.35Q23.21-3.62 23.38-3.92Q23.55-4.21 23.55-4.51L23.55-4.51Q23.55-4.93 23.20-4.93ZM30.17-3.85L29.68-2.07Q29.65-1.98 29.62-1.84Q29.58-1.70 29.55-1.56Q29.52-1.42 29.50-1.28Q29.47-1.14 29.47-1.05L29.47-1.05Q29.47-0.85 29.56-0.73Q29.65-0.61 29.79-0.55Q29.92-0.49 30.09-0.47Q30.25-0.45 30.41-0.45L30.41-0.45Q30.96-0.45 31.40-0.59Q31.83-0.74 32.13-1Q32.43-1.26 32.59-1.61Q32.74-1.97 32.74-2.39L32.74-2.39Q32.74-3.15 32.25-3.50Q31.76-3.85 30.74-3.85L30.74-3.85L30.17-3.85ZM27.08 0L27.19-0.40Q27.49-0.40 27.70-0.44Q27.91-0.48 28.06-0.60Q28.21-0.73 28.32-0.96Q28.43-1.20 28.54-1.59L28.54-1.59L29.72-6Q29.83-6.44 29.83-6.69L29.83-6.69Q29.83-7.03 29.62-7.17Q29.41-7.30 28.91-7.30L28.91-7.30L29.02-7.70L31.70-7.70Q32.13-7.70 32.58-7.63Q33.03-7.55 33.40-7.36Q33.76-7.16 34.00-6.83Q34.23-6.49 34.23-5.97L34.23-5.97Q34.23-5.48 34.03-5.15Q33.83-4.82 33.52-4.61Q33.21-4.39 32.84-4.28Q32.46-4.16 32.11-4.11L32.11-4.11L32.11-4.07Q32.99-3.89 33.45-3.42Q33.91-2.94 33.91-2.21L33.91-2.21Q33.91-1.70 33.67-1.29Q33.43-0.88 33.01-0.59Q32.59-0.31 32.01-0.15Q31.43 0 30.74 0L30.74 0L27.08 0ZM30.86-6.45L30.30-4.36L31.04-4.36Q31.51-4.36 31.91-4.48Q32.30-4.60 32.58-4.82Q32.86-5.04 33.02-5.34Q33.17-5.65 33.17-6.02L33.17-6.02Q33.17-6.67 32.81-6.96Q32.44-7.25 31.57-7.25L31.57-7.25Q31.30-7.25 31.14-7.07Q30.97-6.88 30.86-6.45L30.86-6.45ZM38.00-4.88L38.00-4.88Q37.62-4.88 37.22-4.53Q36.81-4.18 36.48-3.66Q36.15-3.13 35.94-2.52Q35.73-1.92 35.73-1.40L35.73-1.40Q35.73-1.04 35.88-0.83Q36.03-0.61 36.29-0.61L36.29-0.61Q36.52-0.61 36.77-0.80Q37.02-0.98 37.26-1.28Q37.49-1.59 37.70-1.98Q37.91-2.37 38.07-2.79Q38.23-3.20 38.32-3.60Q38.41-4 38.41-4.32L38.41-4.32Q38.41-4.58 38.30-4.73Q38.19-4.88 38.00-4.88ZM38.82-4.74L39.03-5.30L39.86-5.30L39.29-3.77Q39.15-3.39 39.02-2.96Q38.88-2.53 38.78-2.13Q38.67-1.73 38.61-1.40Q38.55-1.07 38.55-0.91L38.55-0.91Q38.55-0.62 38.74-0.62L38.74-0.62Q38.88-0.62 39.15-0.91Q39.41-1.20 39.74-1.66L39.74-1.66L40.00-1.45Q39.58-0.71 39.10-0.30Q38.61 0.10 38.16 0.10L38.16 0.10Q37.93 0.10 37.81-0.07Q37.68-0.25 37.68-0.65L37.68-0.65Q37.68-0.74 37.69-0.86Q37.69-0.98 37.71-1.18L37.71-1.18L37.67-1.19Q37.52-0.91 37.32-0.68Q37.11-0.44 36.87-0.27Q36.63-0.09 36.37 0.01Q36.11 0.10 35.86 0.10L35.86 0.10Q35.35 0.10 35.07-0.29Q34.78-0.67 34.78-1.35L34.78-1.35Q34.78-2.04 35.07-2.76Q35.36-3.48 35.82-4.07Q36.28-4.65 36.84-5.03Q37.40-5.40 37.94-5.40L37.94-5.40Q38.27-5.40 38.48-5.25Q38.69-5.09 38.82-4.74L38.82-4.74ZM41.15-3.87L41.15-3.87Q41.15-4.20 41.28-4.48Q41.40-4.76 41.62-4.96Q41.84-5.17 42.15-5.29Q42.45-5.40 42.81-5.40L42.81-5.40Q43.29-5.40 43.61-5.16Q43.93-4.92 43.93-4.54L43.93-4.54Q43.93-4.33 43.82-4.21Q43.70-4.09 43.50-4.09L43.50-4.09Q43.27-4.09 43.17-4.22Q43.07-4.36 43.00-4.53Q42.93-4.69 42.85-4.83Q42.77-4.97 42.58-4.97L42.58-4.97Q42.36-4.97 42.21-4.78Q42.06-4.59 42.06-4.31L42.06-4.31Q42.06-3.98 42.26-3.70Q42.45-3.41 42.69-3.10Q42.93-2.79 43.13-2.42Q43.32-2.05 43.32-1.55L43.32-1.55Q43.32-1.21 43.18-0.91Q43.03-0.61 42.79-0.39Q42.54-0.16 42.22-0.03Q41.90 0.10 41.56 0.10L41.56 0.10Q40.96 0.10 40.61-0.16Q40.25-0.42 40.25-0.84L40.25-0.84Q40.25-1.13 40.39-1.29Q40.52-1.46 40.75-1.46L40.75-1.46Q41.18-1.46 41.24-0.87L41.24-0.87Q41.27-0.55 41.35-0.45Q41.42-0.34 41.65-0.34L41.65-0.34Q42.01-0.34 42.22-0.56Q42.43-0.77 42.43-1.15L42.43-1.15Q42.43-1.55 42.23-1.86Q42.03-2.17 41.79-2.46Q41.55-2.76 41.35-3.09Q41.15-3.42 41.15-3.87ZM47.76-0.80L47.76-0.80Q48.05-0.80 48.58-1.55L48.58-1.55L48.84-1.41Q48.12 0.10 47.35 0.10L47.35 0.10Q47.11 0.10 46.96-0.07Q46.80-0.24 46.61-0.68L46.61-0.68L45.94-2.28L45.72-2.18L45.09 0L44.18 0L46.11-7.17Q46.18-7.44 46.18-7.54L46.18-7.54Q46.18-7.75 45.99-7.83Q45.80-7.90 45.24-7.90L45.24-7.90L45.34-8.20L47.33-8.30L46.29-4.45L46.33-4.44Q46.91-5.41 47.80-5.41L47.80-5.41Q48.27-5.41 48.54-5.19Q48.81-4.96 48.81-4.58L48.81-4.58Q48.81-4.11 48.35-3.64Q47.88-3.17 47.05-2.79L47.05-2.79L46.79-2.67L47.30-1.35Q47.50-0.80 47.76-0.80ZM45.81-2.68L45.81-2.68Q46.24-2.83 46.61-3.03Q46.98-3.23 47.25-3.45Q47.51-3.67 47.66-3.90Q47.81-4.12 47.81-4.32L47.81-4.32Q47.81-4.73 47.40-4.73L47.40-4.73Q47.19-4.73 46.96-4.57Q46.73-4.40 46.51-4.12Q46.29-3.84 46.11-3.46Q45.92-3.09 45.81-2.68ZM52.71-1.54L53.03-1.33Q52.16 0.10 50.89 0.10L50.89 0.10Q50.20 0.10 49.83-0.33Q49.46-0.75 49.46-1.53L49.46-1.53Q49.46-2.22 49.75-2.91Q50.03-3.60 50.49-4.16Q50.95-4.71 51.52-5.05Q52.09-5.40 52.66-5.40L52.66-5.40Q53.14-5.40 53.45-5.16Q53.75-4.91 53.75-4.53L53.75-4.53Q53.75-4.18 53.49-3.81Q53.23-3.44 52.79-3.11Q52.34-2.78 51.75-2.51Q51.15-2.24 50.48-2.09L50.48-2.09Q50.46-1.95 50.45-1.81Q50.44-1.68 50.44-1.54L50.44-1.54Q50.44-0.45 51.21-0.45L51.21-0.45Q51.58-0.45 51.98-0.74Q52.37-1.03 52.71-1.54L52.71-1.54ZM52.46-4.93L52.46-4.93Q52.20-4.93 51.92-4.73Q51.64-4.53 51.39-4.20Q51.13-3.86 50.92-3.43Q50.71-3 50.58-2.54L50.58-2.54Q51.06-2.67 51.47-2.88Q51.88-3.09 52.18-3.35Q52.47-3.62 52.64-3.92Q52.81-4.21 52.81-4.51L52.81-4.51Q52.81-4.93 52.46-4.93ZM54.35-3.78L54.09-3.91Q54.20-4.16 54.43-4.42Q54.65-4.69 54.92-4.91Q55.18-5.12 55.45-5.26Q55.72-5.40 55.92-5.40L55.92-5.40Q56.16-5.40 56.27-5.22Q56.38-5.04 56.38-4.64L56.38-4.64Q56.38-4.48 56.37-4.33Q56.35-4.18 56.31-3.98L56.31-3.98L56.34-3.95Q56.46-4.24 56.68-4.52Q56.90-4.80 57.16-5.01Q57.41-5.23 57.68-5.37Q57.94-5.50 58.17-5.50L58.17-5.50Q58.46-5.50 58.66-5.32Q58.85-5.13 58.85-4.86L58.85-4.86Q58.85-4.60 58.69-4.43Q58.52-4.26 58.26-4.26L58.26-4.26Q58.10-4.26 58.01-4.32Q57.91-4.38 57.84-4.45Q57.77-4.51 57.71-4.57Q57.65-4.63 57.56-4.63L57.56-4.63Q57.37-4.63 57.12-4.38Q56.87-4.12 56.60-3.68Q56.33-3.24 56.07-2.65Q55.80-2.06 55.58-1.38L55.58-1.38L55.13 0L54.20 0L54.85-2.07Q55.04-2.67 55.17-3.06Q55.29-3.46 55.36-3.73Q55.43-3.99 55.46-4.14Q55.48-4.29 55.48-4.40L55.48-4.40Q55.48-4.62 55.33-4.62L55.33-4.62Q55.23-4.62 55.09-4.54Q54.94-4.46 54.80-4.34Q54.66-4.22 54.54-4.07Q54.41-3.92 54.35-3.78L54.35-3.78ZM63.21-3.57L63.21-3.57Q63.21-3.77 63.18-3.94Q63.14-4.10 63.10-4.25Q63.05-4.40 63.02-4.54Q62.98-4.68 62.98-4.83L62.98-4.83Q62.98-5.40 63.50-5.40L63.50-5.40Q63.81-5.40 63.95-5.18Q64.08-4.96 64.08-4.45L64.08-4.45Q64.08-3.92 63.95-3.38Q63.82-2.83 63.59-2.33Q63.36-1.82 63.05-1.38Q62.74-0.94 62.39-0.61Q62.04-0.28 61.67-0.09Q61.29 0.10 60.92 0.10L60.92 0.10Q60.65 0.10 60.42-0.01Q60.18-0.11 60.01-0.30Q59.84-0.49 59.75-0.75Q59.65-1.01 59.65-1.31L59.65-1.31Q59.65-1.88 59.96-2.65Q60.27-3.42 60.84-4.24L60.84-4.24L60.82-4.27Q60.55-4.27 60.37-4.35Q60.19-4.43 60.07-4.53Q59.94-4.63 59.85-4.71Q59.75-4.79 59.65-4.79L59.65-4.79Q59.48-4.79 59.48-4.62L59.48-4.62Q59.48-4.53 59.54-4.46Q59.59-4.39 59.66-4.32Q59.72-4.25 59.78-4.17Q59.83-4.08 59.83-3.96L59.83-3.96Q59.83-3.78 59.69-3.67Q59.55-3.55 59.33-3.55L59.33-3.55Q59.07-3.55 58.93-3.71Q58.79-3.87 58.79-4.16L58.79-4.16Q58.79-4.41 58.89-4.63Q58.99-4.86 59.16-5.03Q59.33-5.20 59.56-5.30Q59.78-5.40 60.03-5.40L60.03-5.40Q60.23-5.40 60.37-5.33Q60.51-5.27 60.63-5.19Q60.75-5.10 60.87-5.04Q60.98-4.97 61.14-4.97L61.14-4.97Q61.33-4.97 61.48-5.12L61.48-5.12Q61.69-5.31 61.77-5.36Q61.84-5.40 61.96-5.40L61.96-5.40Q62.16-5.40 62.16-5.23L62.16-5.23Q62.16-5.19 62.15-5.16Q62.14-5.13 62.11-5.07Q62.07-5.01 61.99-4.91Q61.90-4.81 61.75-4.63L61.75-4.63Q61.52-4.35 61.33-4Q61.14-3.65 61.00-3.27Q60.86-2.89 60.78-2.50Q60.70-2.12 60.70-1.78L60.70-1.78Q60.70-1.24 60.89-0.92Q61.07-0.59 61.36-0.59L61.36-0.59Q61.64-0.59 61.96-0.89Q62.28-1.19 62.56-1.64Q62.84-2.08 63.03-2.60Q63.21-3.12 63.21-3.57ZM65.24-2.02L65.69-3.30Q65.83-3.69 65.89-3.93Q65.95-4.17 65.95-4.31L65.95-4.31Q65.95-4.45 65.91-4.50Q65.86-4.54 65.81-4.54L65.81-4.54Q65.70-4.54 65.57-4.44Q65.44-4.33 65.31-4.19Q65.18-4.05 65.08-3.91Q64.98-3.77 64.94-3.69L64.94-3.69L64.65-3.87Q64.77-4.09 64.99-4.36Q65.20-4.63 65.47-4.86Q65.74-5.09 66.03-5.25Q66.32-5.40 66.58-5.40L66.58-5.40Q66.83-5.40 66.96-5.25Q67.08-5.11 67.08-4.73L67.08-4.73Q67.08-4.44 66.91-3.95Q66.73-3.46 66.45-2.69L66.45-2.69L66.08-1.68Q66.06-1.63 66.03-1.53Q65.99-1.42 65.96-1.30Q65.92-1.19 65.90-1.08Q65.87-0.97 65.87-0.90L65.87-0.90Q65.87-0.81 65.92-0.74Q65.97-0.67 66.08-0.67L66.08-0.67Q66.23-0.67 66.39-0.80Q66.55-0.92 66.70-1.09Q66.85-1.26 66.97-1.44Q67.09-1.61 67.15-1.71L67.15-1.71L67.45-1.54Q67.33-1.30 67.13-1.01Q66.92-0.72 66.66-0.48Q66.40-0.23 66.09-0.07Q65.78 0.10 65.45 0.10L65.45 0.10Q65.16 0.10 65.02-0.05Q64.87-0.20 64.87-0.55L64.87-0.55Q64.87-0.84 64.97-1.18Q65.06-1.51 65.24-2.02L65.24-2.02ZM67.16-7.04L67.16-7.04Q66.91-7.04 66.73-7.21Q66.54-7.38 66.54-7.65L66.54-7.65Q66.54-7.92 66.72-8.11Q66.90-8.30 67.16-8.30L67.16-8.30Q67.44-8.30 67.62-8.11Q67.80-7.92 67.80-7.66L67.80-7.66Q67.80-7.40 67.61-7.22Q67.42-7.04 67.16-7.04ZM68.32-2.02L69.65-6.91Q69.70-7.09 69.75-7.28Q69.80-7.46 69.80-7.55L69.80-7.55Q69.80-7.90 69.04-7.90L69.04-7.90L69.12-8.20L70.95-8.29L69.16-1.72Q69.08-1.45 69.04-1.25Q69.00-1.04 69.00-0.90L69.00-0.90Q69.00-0.81 69.05-0.74Q69.10-0.67 69.21-0.67L69.21-0.67Q69.37-0.67 69.55-0.81Q69.73-0.94 69.90-1.13Q70.06-1.31 70.19-1.51Q70.32-1.70 70.38-1.81L70.38-1.81L70.68-1.64Q70.53-1.30 70.29-0.98Q70.05-0.67 69.78-0.43Q69.51-0.19 69.24-0.04Q68.96 0.10 68.73 0.10L68.73 0.10Q68.38 0.10 68.22-0.05Q68.05-0.20 68.05-0.55L68.05-0.55Q68.05-0.75 68.11-1.09Q68.17-1.43 68.32-2.02L68.32-2.02ZM71.45-2.02L72.78-6.91Q72.83-7.09 72.88-7.28Q72.93-7.46 72.93-7.55L72.93-7.55Q72.93-7.90 72.17-7.90L72.17-7.90L72.25-8.20L74.08-8.29L72.29-1.72Q72.21-1.45 72.17-1.25Q72.13-1.04 72.13-0.90L72.13-0.90Q72.13-0.81 72.18-0.74Q72.23-0.67 72.34-0.67L72.34-0.67Q72.50-0.67 72.68-0.81Q72.86-0.94 73.03-1.13Q73.19-1.31 73.32-1.51Q73.45-1.70 73.51-1.81L73.51-1.81L73.81-1.64Q73.66-1.30 73.42-0.98Q73.18-0.67 72.91-0.43Q72.64-0.19 72.37-0.04Q72.09 0.10 71.86 0.10L71.86 0.10Q71.51 0.10 71.35-0.05Q71.18-0.20 71.18-0.55L71.18-0.55Q71.18-0.75 71.24-1.09Q71.30-1.43 71.45-2.02L71.45-2.02ZM77.47-1.54L77.79-1.33Q76.92 0.10 75.65 0.10L75.65 0.10Q74.96 0.10 74.59-0.33Q74.22-0.75 74.22-1.53L74.22-1.53Q74.22-2.22 74.51-2.91Q74.79-3.60 75.25-4.16Q75.71-4.71 76.28-5.05Q76.85-5.40 77.42-5.40L77.42-5.40Q77.90-5.40 78.21-5.16Q78.51-4.91 78.51-4.53L78.51-4.53Q78.51-4.18 78.25-3.81Q77.99-3.44 77.55-3.11Q77.10-2.78 76.51-2.51Q75.91-2.24 75.24-2.09L75.24-2.09Q75.22-1.95 75.21-1.81Q75.20-1.68 75.20-1.54L75.20-1.54Q75.20-0.45 75.97-0.45L75.97-0.45Q76.34-0.45 76.74-0.74Q77.13-1.03 77.47-1.54L77.47-1.54ZM77.22-4.93L77.22-4.93Q76.96-4.93 76.68-4.73Q76.40-4.53 76.15-4.20Q75.89-3.86 75.68-3.43Q75.47-3 75.34-2.54L75.34-2.54Q75.82-2.67 76.23-2.88Q76.64-3.09 76.94-3.35Q77.23-3.62 77.40-3.92Q77.57-4.21 77.57-4.51L77.57-4.51Q77.57-4.93 77.22-4.93Z"/></svg>