<svg xmlns="http://www.w3.org/2000/svg" viewBox="0.6775 -7.42 60.902499999999996 7.52"><path d="M1.70-7.31Q1.71-7.38 1.74-7.40Q1.76-7.42 1.82-7.42L1.82-7.42L2.37-7.42Q2.43-7.42 2.44-7.39Q2.45-7.36 2.44-7.28L2.44-7.28L1.52-0.70L1.51-0.65Q1.51-0.60 1.59-0.60L1.59-0.60L5.12-0.60Q5.23-0.60 5.22-0.49L5.22-0.49L5.16-0.08Q5.15-0.03 5.13-0.01Q5.12 0 5.07 0L5.07 0L0.80 0Q0.66 0 0.68-0.14L0.68-0.14L1.70-7.31ZM8.14-7.26L8.03-6.49Q8.01-6.39 7.98-6.36Q7.96-6.33 7.87-6.33L7.87-6.33L7.39-6.33Q7.25-6.33 7.29-6.50L7.29-6.50L7.40-7.28Q7.42-7.42 7.54-7.42L7.54-7.42L8.03-7.42Q8.09-7.42 8.12-7.38Q8.15-7.33 8.14-7.26L8.14-7.26ZM7.81-5.17L7.09-0.13Q7.08-0.04 7.05-0.02Q7.03 0 6.94 0L6.94 0L6.57 0Q6.41 0 6.43-0.14L6.43-0.14L7.15-5.20Q7.16-5.27 7.17-5.29Q7.19-5.30 7.25-5.30L7.25-5.30L7.71-5.30Q7.83-5.30 7.81-5.17L7.81-5.17ZM9.13 0L8.89 0Q8.73 0 8.76-0.17L8.76-0.17L9.77-7.32Q9.78-7.38 9.80-7.40Q9.82-7.42 9.87-7.42L9.87-7.42L10.34-7.42Q10.44-7.42 10.42-7.28L10.42-7.28L10.07-4.81Q10.07-4.80 10.06-4.79Q10.06-4.77 10.07-4.76L10.07-4.76Q10.07-4.72 10.09-4.72L10.09-4.72Q10.12-4.72 10.19-4.78L10.19-4.78Q10.53-5.03 10.92-5.21Q11.31-5.40 11.92-5.40L11.92-5.40Q12.84-5.40 13.30-4.83Q13.76-4.25 13.76-3.29L13.76-3.29Q13.76-2.46 13.46-1.68Q13.17-0.90 12.56-0.40Q11.95 0.10 11.07 0.10L11.07 0.10Q10.44 0.10 10.06-0.16Q9.69-0.42 9.54-0.70L9.54-0.70Q9.53-0.73 9.49-0.73L9.49-0.73Q9.42-0.73 9.41-0.63L9.41-0.63L9.30-0.13Q9.28-0.05 9.25-0.03Q9.23 0 9.13 0L9.13 0ZM9.98-4.08L9.64-1.76Q9.63-1.71 9.63-1.61L9.63-1.61Q9.63-1.28 9.81-1.01Q10-0.73 10.31-0.57Q10.62-0.41 10.97-0.41L10.97-0.41Q11.64-0.41 12.11-0.83Q12.59-1.26 12.83-1.92Q13.07-2.58 13.07-3.28L13.07-3.28Q13.07-4.04 12.72-4.46Q12.38-4.88 11.72-4.88L11.72-4.88Q11.24-4.88 10.79-4.66Q10.33-4.43 9.98-4.08L9.98-4.08ZM14.83 0Q14.77 0 14.73-0.04Q14.70-0.08 14.71-0.13L14.71-0.13L15.43-5.21Q15.44-5.27 15.45-5.29Q15.47-5.30 15.52-5.30L15.52-5.30L15.96-5.30Q16.07-5.30 16.05-5.18L16.05-5.18L15.96-4.57L15.96-4.54Q15.96-4.50 15.98-4.50Q16.01-4.50 16.05-4.54L16.05-4.54Q16.50-5 16.90-5.20Q17.31-5.40 17.71-5.40L17.71-5.40Q18.10-5.40 18.08-5.28L18.08-5.28L18.01-4.83Q18-4.76 17.96-4.76L17.96-4.76Q17.74-4.78 17.57-4.78L17.57-4.78Q17.26-4.78 16.86-4.59Q16.47-4.40 16.18-4.11Q15.89-3.82 15.85-3.52L15.85-3.52L15.37-0.10Q15.36-0.04 15.33-0.02Q15.31 0 15.24 0L15.24 0L14.83 0ZM20.49 0.10Q19.49 0.10 18.90-0.51Q18.31-1.12 18.31-2.13L18.31-2.13Q18.31-2.97 18.66-3.72Q19.02-4.47 19.67-4.94Q20.33-5.40 21.20-5.40L21.20-5.40Q22.16-5.40 22.70-4.83Q23.24-4.27 23.24-3.26L23.24-3.26Q23.24-2.95 23.20-2.67L23.20-2.67Q23.18-2.50 23.01-2.50L23.01-2.50L19.10-2.50Q19.03-2.50 19.00-2.41Q18.97-2.32 18.97-2.05L18.97-2.05Q18.97-1.32 19.41-0.88Q19.85-0.43 20.55-0.43L20.55-0.43Q21.64-0.43 22.32-1.32L22.32-1.32Q22.38-1.38 22.46-1.33L22.46-1.33L22.77-1.14Q22.86-1.09 22.80-1L22.80-1Q22.34-0.43 21.77-0.17Q21.21 0.10 20.49 0.10L20.49 0.10ZM19.09-2.96L22.40-2.96Q22.51-2.96 22.56-3.06Q22.62-3.15 22.62-3.43L22.62-3.43Q22.62-4.09 22.23-4.49Q21.84-4.89 21.18-4.89L21.18-4.89Q20.62-4.89 20.16-4.61Q19.71-4.33 19.43-3.89Q19.15-3.44 19.09-2.96L19.09-2.96ZM27.51-7.31Q27.52-7.38 27.54-7.40Q27.56-7.42 27.62-7.42L27.62-7.42L31.88-7.42Q31.97-7.42 31.96-7.32L31.96-7.32L31.90-6.92Q31.89-6.86 31.87-6.84Q31.85-6.82 31.79-6.82L31.79-6.82L28.29-6.82Q28.23-6.82 28.20-6.79Q28.18-6.77 28.17-6.70L28.17-6.70L27.80-4.02L27.80-3.98Q27.80-3.92 27.87-3.92L27.87-3.92L30.69-3.92Q30.77-3.92 30.77-3.84L30.77-3.84L30.72-3.43Q30.71-3.33 30.61-3.33L30.61-3.33L27.79-3.33Q27.73-3.33 27.71-3.31Q27.70-3.29 27.68-3.21L27.68-3.21L27.25-0.09Q27.24-0.03 27.21-0.01Q27.18 0 27.12 0L27.12 0L26.58 0Q26.51 0 26.49-0.03Q26.48-0.05 26.49-0.14L26.49-0.14L27.51-7.31ZM31.81 0Q31.75 0 31.71-0.04Q31.68-0.08 31.69-0.13L31.69-0.13L32.41-5.21Q32.42-5.27 32.43-5.29Q32.45-5.30 32.50-5.30L32.50-5.30L32.94-5.30Q33.05-5.30 33.03-5.18L33.03-5.18L32.94-4.57L32.94-4.54Q32.94-4.50 32.96-4.50Q32.99-4.50 33.03-4.54L33.03-4.54Q33.48-5 33.88-5.20Q34.29-5.40 34.69-5.40L34.69-5.40Q35.08-5.40 35.06-5.28L35.06-5.28L34.99-4.83Q34.98-4.76 34.94-4.76L34.94-4.76Q34.72-4.78 34.55-4.78L34.55-4.78Q34.24-4.78 33.84-4.59Q33.45-4.40 33.16-4.11Q32.87-3.82 32.83-3.52L32.83-3.52L32.35-0.10Q32.34-0.04 32.31-0.02Q32.29 0 32.22 0L32.22 0L31.81 0ZM38.60-0.65Q37.75 0.10 36.67 0.10L36.67 0.10Q35.96 0.10 35.55-0.24Q35.15-0.58 35.15-1.15L35.15-1.15Q35.15-2.11 35.96-2.58Q36.78-3.04 37.97-3.12L37.97-3.12L38.87-3.19Q38.96-3.20 39.01-3.25Q39.07-3.29 39.08-3.36L39.08-3.36L39.12-3.65Q39.14-3.79 39.14-3.87L39.14-3.87Q39.14-4.35 38.82-4.62Q38.51-4.89 37.97-4.89L37.97-4.89Q37.04-4.89 36.30-4.02L36.30-4.02Q36.27-3.99 36.24-3.98Q36.22-3.98 36.18-4L36.18-4L35.79-4.17Q35.74-4.19 35.74-4.24L35.74-4.24Q35.74-4.27 35.77-4.33L35.77-4.33Q36.15-4.83 36.72-5.12Q37.30-5.40 38.02-5.40L38.02-5.40Q38.87-5.40 39.32-5.02Q39.78-4.64 39.78-3.96L39.78-3.96Q39.78-3.86 39.76-3.66L39.76-3.66L39.26-0.11Q39.25-0.04 39.22-0.02Q39.20 0 39.14 0L39.14 0L38.77 0Q38.66 0 38.66-0.14L38.66-0.14L38.72-0.67Q38.72-0.72 38.70-0.72L38.70-0.72Q38.66-0.72 38.60-0.65L38.60-0.65ZM38.85-1.73L38.97-2.61L38.97-2.65Q38.97-2.71 38.95-2.73Q38.93-2.75 38.86-2.74L38.86-2.74L38.08-2.68Q35.83-2.49 35.83-1.24L35.83-1.24Q35.83-0.86 36.11-0.64Q36.40-0.42 36.89-0.42L36.89-0.42Q37.23-0.42 37.57-0.54Q37.91-0.66 38.20-0.87L38.20-0.87Q38.48-1.07 38.65-1.29Q38.82-1.52 38.85-1.73L38.85-1.73ZM40.94 0Q40.81 0 40.83-0.13L40.83-0.13L41.55-5.21Q41.56-5.27 41.57-5.29Q41.59-5.30 41.64-5.30L41.64-5.30L42.10-5.30Q42.19-5.30 42.18-5.20L42.18-5.20L42.09-4.61L42.09-4.58Q42.09-4.54 42.10-4.54Q42.12-4.54 42.17-4.57L42.17-4.57Q42.70-4.99 43.17-5.20Q43.64-5.40 44.15-5.40L44.15-5.40Q44.85-5.40 45.22-5.07Q45.60-4.73 45.60-4.15L45.60-4.15Q45.60-4.07 45.58-3.89L45.58-3.89L45.05-0.11Q45.03-0.04 45.01-0.02Q44.99 0 44.92 0L44.92 0L44.49 0Q44.37 0 44.39-0.13L44.39-0.13L44.90-3.74Q44.92-3.92 44.92-4.01L44.92-4.01Q44.92-4.85 43.96-4.85L43.96-4.85Q43.50-4.85 43.10-4.66Q42.71-4.46 42.05-3.98L42.05-3.98L41.49-0.10Q41.48-0.04 41.45-0.02Q41.43 0 41.36 0L41.36 0L40.94 0ZM51.02-0.13Q51.05-0.07 51.05-0.04L51.05-0.04Q51.05 0 50.96 0L50.96 0L50.43 0Q50.33 0 50.28-0.12L50.28-0.12L49.03-2.84Q49.01-2.87 48.98-2.87Q48.96-2.87 48.92-2.83L48.92-2.83L47.60-1.66Q47.52-1.58 47.49-1.47L47.49-1.47L47.30-0.13Q47.29-0.04 47.26-0.02Q47.24 0 47.15 0L47.15 0L46.78 0Q46.62 0 46.65-0.14L46.65-0.14L47.66-7.32Q47.67-7.39 47.69-7.41Q47.71-7.42 47.76-7.42L47.76-7.42L48.22-7.42Q48.34-7.42 48.31-7.28L48.31-7.28L47.64-2.50L47.64-2.45Q47.64-2.42 47.65-2.42L47.65-2.42Q47.66-2.42 47.68-2.44Q47.70-2.46 47.73-2.49L47.73-2.49L50.73-5.20Q50.79-5.26 50.83-5.28Q50.87-5.30 50.93-5.30L50.93-5.30L51.42-5.30Q51.54-5.30 51.54-5.22L51.54-5.22Q51.54-5.17 51.47-5.11L51.47-5.11L49.61-3.45Q49.52-3.38 49.55-3.30L49.55-3.30L51.02-0.13ZM53.84-7.29L52.83-0.13Q52.82-0.04 52.79-0.02Q52.77 0 52.68 0L52.68 0L52.31 0Q52.15 0 52.17-0.14L52.17-0.14L53.19-7.32Q53.21-7.39 53.22-7.41Q53.24-7.42 53.30-7.42L53.30-7.42L53.75-7.42Q53.87-7.42 53.84-7.29L53.84-7.29ZM56.20-7.26L56.09-6.49Q56.07-6.39 56.04-6.36Q56.02-6.33 55.93-6.33L55.93-6.33L55.45-6.33Q55.31-6.33 55.35-6.50L55.35-6.50L55.46-7.28Q55.48-7.42 55.60-7.42L55.60-7.42L56.09-7.42Q56.15-7.42 56.18-7.38Q56.21-7.33 56.20-7.26L56.20-7.26ZM55.87-5.17L55.15-0.13Q55.14-0.04 55.11-0.02Q55.09 0 55.00 0L55.00 0L54.63 0Q54.47 0 54.49-0.14L54.49-0.14L55.21-5.20Q55.22-5.27 55.23-5.29Q55.25-5.30 55.31-5.30L55.31-5.30L55.77-5.30Q55.89-5.30 55.87-5.17L55.87-5.17ZM56.92 0Q56.79 0 56.81-0.13L56.81-0.13L57.53-5.21Q57.54-5.27 57.55-5.29Q57.57-5.30 57.62-5.30L57.62-5.30L58.08-5.30Q58.17-5.30 58.16-5.20L58.16-5.20L58.07-4.61L58.07-4.58Q58.07-4.54 58.08-4.54Q58.10-4.54 58.15-4.57L58.15-4.57Q58.68-4.99 59.15-5.20Q59.62-5.40 60.13-5.40L60.13-5.40Q60.83-5.40 61.20-5.07Q61.58-4.73 61.58-4.15L61.58-4.15Q61.58-4.07 61.56-3.89L61.56-3.89L61.03-0.11Q61.01-0.04 60.99-0.02Q60.97 0 60.90 0L60.90 0L60.47 0Q60.35 0 60.37-0.13L60.37-0.13L60.88-3.74Q60.90-3.92 60.90-4.01L60.90-4.01Q60.90-4.85 59.94-4.85L59.94-4.85Q59.48-4.85 59.08-4.66Q58.69-4.46 58.03-3.98L58.03-3.98L57.47-0.10Q57.46-0.04 57.43-0.02Q57.41 0 57.34 0L57.34 0L56.92 0Z"/></svg>