<svg xmlns="http://www.w3.org/2000/svg" viewBox="0.3565384615384615 -7.42 65.10346153846153 7.52"><path d="M1.34-7.25Q1.35-7.34 1.39-7.38Q1.43-7.42 1.50-7.42L1.50-7.42L2.98-7.42Q3.09-7.42 3.09-7.28L3.09-7.28Q3.09-7.23 3.08-7.20L3.08-7.20L2.28-1.43L2.27-1.38Q2.27-1.28 2.37-1.28L2.37-1.28L5.58-1.28Q5.74-1.28 5.71-1.08L5.71-1.08L5.58-0.13Q5.57-0.05 5.54-0.03Q5.50 0 5.40 0L5.40 0L0.56 0Q0.33 0 0.36-0.25L0.36-0.25L1.34-7.25ZM9.01-7.19L8.87-6.15Q8.86-6.02 8.80-5.98Q8.74-5.94 8.60-5.94L8.60-5.94L7.45-5.94Q7.30-5.94 7.30-6.13L7.30-6.13L7.31-6.21L7.46-7.22Q7.49-7.42 7.64-7.42L7.64-7.42L8.91-7.42Q8.98-7.42 9.01-7.35Q9.03-7.28 9.01-7.19L9.01-7.19ZM8.71-5.08L8.02-0.20Q8-0.07 7.96-0.04Q7.91 0 7.76 0L7.76 0L6.70 0Q6.58 0 6.53-0.07Q6.47-0.14 6.49-0.25L6.49-0.25L7.18-5.15Q7.19-5.24 7.22-5.27Q7.25-5.30 7.33-5.30L7.33-5.30L8.60-5.30Q8.73-5.30 8.71-5.08L8.71-5.08ZM10.06 0L9.36 0Q9.24 0 9.18-0.07Q9.12-0.14 9.14-0.26L9.14-0.26L10.13-7.27Q10.14-7.36 10.17-7.39Q10.20-7.42 10.27-7.42L10.27-7.42L11.56-7.42Q11.66-7.42 11.66-7.28L11.66-7.28Q11.66-7.22 11.65-7.19L11.65-7.19L11.34-4.93L11.34-4.88Q11.34-4.84 11.37-4.84L11.37-4.84Q11.40-4.84 11.47-4.90L11.47-4.90Q12.16-5.40 12.91-5.40L12.91-5.40Q13.79-5.40 14.25-4.83Q14.72-4.26 14.72-3.27L14.72-3.27Q14.72-2.44 14.43-1.67Q14.15-0.89 13.55-0.40Q12.96 0.10 12.08 0.10L12.08 0.10Q11.58 0.10 11.20-0.14Q10.82-0.37 10.61-0.73L10.61-0.73Q10.58-0.77 10.54-0.77L10.54-0.77Q10.47-0.77 10.43-0.64L10.43-0.64L10.29-0.18Q10.25-0.07 10.21-0.04Q10.16 0 10.06 0L10.06 0ZM11.20-3.86L10.89-1.78Q10.88-1.73 10.88-1.62L10.88-1.62Q10.88-1.26 11.11-1.05Q11.34-0.84 11.69-0.84L11.69-0.84Q12.21-0.84 12.54-1.25Q12.88-1.66 13.03-2.25Q13.18-2.83 13.18-3.36L13.18-3.36Q13.18-3.91 12.98-4.17Q12.78-4.42 12.37-4.42L12.37-4.42Q11.74-4.42 11.20-3.86L11.20-3.86ZM15.44 0Q15.32 0 15.27-0.07Q15.21-0.14 15.23-0.25L15.23-0.25L15.92-5.16Q15.93-5.25 15.96-5.28Q15.98-5.30 16.06-5.30L16.06-5.30L17.25-5.30Q17.43-5.30 17.39-5.09L17.39-5.09L17.32-4.64L17.32-4.60Q17.32-4.53 17.36-4.53L17.36-4.53Q17.39-4.53 17.45-4.59L17.45-4.59Q17.80-4.96 18.23-5.18Q18.66-5.40 19.01-5.40L19.01-5.40Q19.22-5.40 19.32-5.37Q19.42-5.34 19.41-5.25L19.41-5.25L19.25-4.13Q19.24-4.02 19.21-3.99Q19.19-3.96 19.13-3.97L19.13-3.97Q18.79-4.02 18.45-4.02L18.45-4.02Q18.19-4.02 17.90-3.89Q17.61-3.75 17.41-3.54Q17.20-3.32 17.17-3.11L17.17-3.11L16.76-0.19Q16.74-0.06 16.70-0.03Q16.65 0 16.50 0L16.50 0L15.44 0ZM21.79 0.10Q21.08 0.10 20.53-0.19Q19.98-0.48 19.68-1.01Q19.38-1.53 19.38-2.22L19.38-2.22Q19.38-3.04 19.77-3.77Q20.17-4.51 20.86-4.96Q21.56-5.40 22.42-5.40L22.42-5.40Q23.47-5.40 24.09-4.78Q24.71-4.16 24.71-3.07L24.71-3.07Q24.71-2.78 24.67-2.51L24.67-2.51Q24.65-2.43 24.60-2.40Q24.56-2.36 24.44-2.36L24.44-2.36L21.07-2.36Q20.91-2.36 20.91-1.93L20.91-1.93Q20.91-1.46 21.21-1.21Q21.52-0.95 22.01-0.95L22.01-0.95Q22.39-0.95 22.72-1.11Q23.05-1.27 23.37-1.61L23.37-1.61Q23.42-1.66 23.47-1.66L23.47-1.66Q23.50-1.66 23.60-1.62L23.60-1.62L24.26-1.31Q24.38-1.27 24.38-1.18L24.38-1.18Q24.38-1.13 24.33-1.05L24.33-1.05Q23.75-0.40 23.17-0.15Q22.60 0.10 21.79 0.10L21.79 0.10ZM21.10-3.16L23.06-3.16Q23.30-3.16 23.30-3.55L23.30-3.55Q23.30-3.93 23.07-4.20Q22.84-4.46 22.43-4.46L22.43-4.46Q21.93-4.46 21.54-4.08Q21.16-3.71 21.10-3.16L21.10-3.16ZM28.37-7.27Q28.38-7.37 28.41-7.40Q28.44-7.42 28.52-7.42L28.52-7.42L33.54-7.42Q33.61-7.42 33.63-7.38Q33.65-7.35 33.64-7.26L33.64-7.26L33.50-6.31Q33.48-6.21 33.44-6.17Q33.41-6.14 33.30-6.14L33.30-6.14L30.07-6.14Q30.00-6.14 29.97-6.10Q29.94-6.06 29.93-5.95L29.93-5.95L29.71-4.39L29.70-4.33Q29.70-4.29 29.72-4.28Q29.75-4.27 29.81-4.27L29.81-4.27L32.06-4.27Q32.13-4.27 32.15-4.25Q32.17-4.23 32.16-4.16L32.16-4.16L32.02-3.15Q32.01-3.07 31.97-3.04Q31.94-3.02 31.85-3.02L31.85-3.02L29.64-3.02Q29.57-3.02 29.54-2.99Q29.51-2.96 29.49-2.84L29.49-2.84L29.12-0.18Q29.11-0.06 29.07-0.03Q29.03 0 28.91 0L28.91 0L27.53 0Q27.44 0 27.40-0.03Q27.37-0.05 27.37-0.12L27.37-0.12Q27.37-0.19 27.38-0.25L27.38-0.25L28.37-7.27ZM33.12 0Q33 0 32.95-0.07Q32.89-0.14 32.91-0.25L32.91-0.25L33.60-5.16Q33.61-5.25 33.63-5.28Q33.66-5.30 33.74-5.30L33.74-5.30L34.93-5.30Q35.11-5.30 35.07-5.09L35.07-5.09L35-4.64L35-4.60Q35-4.53 35.04-4.53L35.04-4.53Q35.07-4.53 35.13-4.59L35.13-4.59Q35.48-4.96 35.91-5.18Q36.34-5.40 36.69-5.40L36.69-5.40Q36.90-5.40 37-5.37Q37.10-5.34 37.09-5.25L37.09-5.25L36.93-4.13Q36.92-4.02 36.89-3.99Q36.87-3.96 36.81-3.97L36.81-3.97Q36.47-4.02 36.13-4.02L36.13-4.02Q35.87-4.02 35.58-3.89Q35.29-3.75 35.09-3.54Q34.88-3.32 34.85-3.11L34.85-3.11L34.44-0.19Q34.42-0.06 34.38-0.03Q34.33 0 34.18 0L34.18 0L33.12 0ZM40.09-0.49Q39.49 0.10 38.45 0.10L38.45 0.10Q37.75 0.10 37.35-0.26Q36.95-0.62 36.95-1.20L36.95-1.20Q36.95-1.91 37.42-2.37Q37.89-2.82 38.60-3.02Q39.32-3.23 40.09-3.25L40.09-3.25L40.45-3.28Q40.64-3.28 40.67-3.47L40.67-3.47L40.70-3.68Q40.71-3.73 40.71-3.84L40.71-3.84Q40.71-4.44 40.02-4.44L40.02-4.44Q39.23-4.44 38.85-3.82L38.85-3.82Q38.80-3.75 38.72-3.75L38.72-3.75Q38.66-3.75 38.63-3.76L38.63-3.76L37.66-3.99Q37.56-4.01 37.56-4.12L37.56-4.12Q37.56-4.22 37.61-4.32L37.61-4.32Q38.27-5.40 40.10-5.40L40.10-5.40Q41.18-5.40 41.68-5.02Q42.19-4.64 42.19-3.97L42.19-3.97Q42.19-3.88 42.17-3.68L42.17-3.68L41.67-0.18Q41.66-0.05 41.63-0.03Q41.60 0 41.49 0L41.49 0L40.46 0Q40.36 0 40.33-0.06Q40.30-0.12 40.29-0.26L40.29-0.26L40.30-0.52Q40.30-0.60 40.25-0.60L40.25-0.60Q40.20-0.60 40.09-0.49L40.09-0.49ZM40.43-1.76L40.52-2.41L40.52-2.47Q40.52-2.51 40.50-2.52Q40.48-2.54 40.42-2.53L40.42-2.53L40.06-2.50Q39.48-2.46 38.98-2.21Q38.48-1.96 38.48-1.44L38.48-1.44Q38.48-1.20 38.65-1.05Q38.83-0.91 39.13-0.91L39.13-0.91Q39.39-0.91 39.62-0.98Q39.85-1.06 40.02-1.19L40.02-1.19Q40.39-1.47 40.43-1.76L40.43-1.76ZM42.87 0Q42.72 0 42.72-0.16L42.72-0.16L42.73-0.25L43.42-5.16Q43.43-5.24 43.46-5.27Q43.49-5.30 43.56-5.30L43.56-5.30L44.84-5.30Q44.90-5.30 44.92-5.28Q44.94-5.25 44.93-5.17L44.93-5.17L44.86-4.67L44.86-4.63Q44.86-4.59 44.88-4.59L44.88-4.59Q44.90-4.59 44.96-4.65L44.96-4.65Q45.86-5.40 46.71-5.40L46.71-5.40Q47.38-5.40 47.77-5.04Q48.15-4.67 48.15-4.06L48.15-4.06Q48.15-3.96 48.13-3.78L48.13-3.78L47.63-0.20Q47.61-0.07 47.56-0.04Q47.51 0 47.38 0L47.38 0L46.23 0Q46.08 0 46.08-0.16L46.08-0.16L46.09-0.25L46.56-3.59Q46.58-3.73 46.58-3.78L46.58-3.78Q46.58-4.29 45.99-4.29L45.99-4.29Q45.67-4.29 45.38-4.13Q45.10-3.96 44.76-3.63L44.76-3.63L44.26-0.19Q44.24-0.07 44.19-0.04Q44.14 0 43.99 0L43.99 0L42.87 0ZM53.94-0.20L53.96-0.11Q53.96 0 53.81 0L53.81 0L52.51 0Q52.34 0 52.26-0.24L52.26-0.24L51.51-2.28Q51.48-2.36 51.44-2.36L51.44-2.36Q51.41-2.36 51.33-2.30L51.33-2.30L50.53-1.58Q50.40-1.47 50.38-1.32L50.38-1.32L50.23-0.20Q50.21-0.07 50.16-0.04Q50.12 0 49.97 0L49.97 0L48.92 0Q48.67 0 48.69-0.25L48.69-0.25L49.68-7.27Q49.69-7.37 49.72-7.40Q49.75-7.42 49.83-7.42L49.83-7.42L51.11-7.42Q51.18-7.42 51.20-7.36Q51.23-7.29 51.21-7.20L51.21-7.20L50.64-3.09Q50.64-3.08 50.63-3.07Q50.63-3.06 50.63-3.06L50.63-3.06Q50.63-3.04 50.72-3.14L50.72-3.14L52.90-5.18Q53.03-5.30 53.18-5.30L53.18-5.30L54.25-5.30Q54.34-5.30 54.39-5.25Q54.45-5.21 54.45-5.15L54.45-5.15Q54.45-5.08 54.38-5.02L54.38-5.02L52.76-3.60Q52.65-3.51 52.65-3.40L52.65-3.40Q52.65-3.35 52.66-3.31L52.66-3.31L53.94-0.20ZM57.25-7.23L56.27-0.20Q56.25-0.07 56.20-0.04Q56.15 0 56 0L56 0L54.94 0Q54.82 0 54.76-0.07Q54.70-0.14 54.72-0.25L54.72-0.25L55.75-7.27Q55.76-7.36 55.78-7.39Q55.81-7.42 55.89-7.42L55.89-7.42L57.15-7.42Q57.28-7.42 57.25-7.23L57.25-7.23ZM59.91-7.19L59.77-6.15Q59.76-6.02 59.70-5.98Q59.64-5.94 59.50-5.94L59.50-5.94L58.35-5.94Q58.20-5.94 58.20-6.13L58.20-6.13L58.21-6.21L58.36-7.22Q58.39-7.42 58.54-7.42L58.54-7.42L59.81-7.42Q59.88-7.42 59.91-7.35Q59.93-7.28 59.91-7.19L59.91-7.19ZM59.61-5.08L58.92-0.20Q58.90-0.07 58.86-0.04Q58.81 0 58.66 0L58.66 0L57.60 0Q57.48 0 57.43-0.07Q57.37-0.14 57.39-0.25L57.39-0.25L58.08-5.15Q58.09-5.24 58.12-5.27Q58.15-5.30 58.23-5.30L58.23-5.30L59.50-5.30Q59.63-5.30 59.61-5.08L59.61-5.08ZM60.18 0Q60.03 0 60.03-0.16L60.03-0.16L60.04-0.25L60.73-5.16Q60.74-5.24 60.77-5.27Q60.80-5.30 60.87-5.30L60.87-5.30L62.15-5.30Q62.21-5.30 62.23-5.28Q62.25-5.25 62.24-5.17L62.24-5.17L62.17-4.67L62.17-4.63Q62.17-4.59 62.19-4.59L62.19-4.59Q62.21-4.59 62.27-4.65L62.27-4.65Q63.17-5.40 64.02-5.40L64.02-5.40Q64.69-5.40 65.08-5.04Q65.46-4.67 65.46-4.06L65.46-4.06Q65.46-3.96 65.44-3.78L65.44-3.78L64.94-0.20Q64.92-0.07 64.87-0.04Q64.82 0 64.69 0L64.69 0L63.54 0Q63.39 0 63.39-0.16L63.39-0.16L63.40-0.25L63.87-3.59Q63.89-3.73 63.89-3.78L63.89-3.78Q63.89-4.29 63.30-4.29L63.30-4.29Q62.98-4.29 62.70-4.13Q62.41-3.96 62.07-3.63L62.07-3.63L61.57-0.19Q61.55-0.07 61.50-0.04Q61.45 0 61.30 0L61.30 0L60.18 0Z"/></svg>