<svg xmlns="http://www.w3.org/2000/svg" viewBox="0.88 -7.42 62.26 7.52"><path d="M0.88-7.27Q0.88-7.42 1.02-7.42L1.02-7.42L1.96-7.42Q2.09-7.42 2.09-7.27L2.09-7.27L2.09-1.02Q2.09-0.96 2.12-0.94Q2.14-0.91 2.19-0.91L2.19-0.91L5.57-0.91Q5.64-0.91 5.67-0.89Q5.71-0.86 5.71-0.79L5.71-0.79L5.71-0.13Q5.71 0 5.57 0L5.57 0L1.05 0Q0.96 0 0.92-0.04Q0.88-0.08 0.88-0.16L0.88-0.16L0.88-7.27ZM7.89-7.26L7.89-6.36Q7.89-6.25 7.85-6.20Q7.80-6.15 7.69-6.15L7.69-6.15L6.95-6.15Q6.85-6.15 6.81-6.20Q6.77-6.24 6.77-6.34L6.77-6.34L6.77-7.25Q6.77-7.42 6.92-7.42L6.92-7.42L7.75-7.42Q7.81-7.42 7.85-7.38Q7.89-7.33 7.89-7.26L7.89-7.26ZM7.86-5.16L7.86-0.19Q7.86-0.08 7.82-0.04Q7.77 0 7.66 0L7.66 0L6.98 0Q6.88 0 6.84-0.04Q6.80-0.07 6.80-0.16L6.80-0.16L6.80-5.15Q6.80-5.23 6.83-5.26Q6.86-5.30 6.94-5.30L6.94-5.30L7.74-5.30Q7.86-5.30 7.86-5.16L7.86-5.16ZM9.87 0L9.45 0Q9.35 0 9.31-0.04Q9.27-0.08 9.27-0.18L9.27-0.18L9.27-7.27Q9.27-7.42 9.41-7.42L9.41-7.42L10.21-7.42Q10.33-7.42 10.33-7.27L10.33-7.27L10.33-4.85Q10.33-4.74 10.38-4.74L10.38-4.74Q10.42-4.74 10.49-4.79L10.49-4.79Q11.13-5.40 12.02-5.40L12.02-5.40Q13.06-5.40 13.61-4.65Q14.15-3.90 14.15-2.68L14.15-2.68Q14.15-1.39 13.55-0.65Q12.95 0.10 11.87 0.10L11.87 0.10Q11.30 0.10 10.89-0.14Q10.49-0.38 10.26-0.69L10.26-0.69Q10.21-0.74 10.19-0.74L10.19-0.74Q10.17-0.74 10.15-0.66L10.15-0.66L10.07-0.17Q10.05-0.08 10.01-0.04Q9.97 0 9.87 0L9.87 0ZM10.33-4L10.33-1.80Q10.33-1.47 10.52-1.20Q10.70-0.92 11-0.77Q11.30-0.61 11.63-0.61L11.63-0.61Q12.28-0.61 12.67-1.12Q13.06-1.63 13.06-2.66L13.06-2.66Q13.06-3.64 12.71-4.16Q12.35-4.67 11.68-4.67L11.68-4.67Q11.28-4.67 10.94-4.49Q10.59-4.30 10.33-4L10.33-4ZM15.45 0Q15.29 0 15.29-0.16L15.29-0.16L15.29-5.15Q15.29-5.30 15.42-5.30L15.42-5.30L16.19-5.30Q16.31-5.30 16.31-5.17L16.31-5.17L16.31-4.54Q16.31-4.48 16.34-4.47Q16.38-4.46 16.42-4.51L16.42-4.51Q16.79-4.94 17.18-5.17Q17.58-5.40 17.96-5.40L17.96-5.40Q18.31-5.40 18.31-5.26L18.31-5.26L18.31-4.48Q18.31-4.36 18.20-4.38L18.20-4.38Q18.01-4.43 17.67-4.43L17.67-4.43Q17.39-4.43 17.08-4.28Q16.77-4.12 16.56-3.87Q16.35-3.62 16.35-3.36L16.35-3.36L16.35-0.17Q16.35 0 16.16 0L16.16 0L15.45 0ZM19.92-2.28Q19.92-1.83 20.14-1.47Q20.35-1.10 20.72-0.89Q21.09-0.67 21.53-0.67L21.53-0.67Q21.99-0.67 22.35-0.86Q22.71-1.05 23.01-1.45L23.01-1.45Q23.04-1.49 23.08-1.49L23.08-1.49Q23.13-1.49 23.16-1.47L23.16-1.47L23.67-1.23Q23.72-1.20 23.72-1.15L23.72-1.15Q23.72-1.12 23.69-1.07L23.69-1.07Q23.27-0.45 22.73-0.18Q22.19 0.10 21.42 0.10L21.42 0.10Q20.67 0.10 20.08-0.24Q19.49-0.58 19.16-1.20Q18.83-1.81 18.83-2.59L18.83-2.59Q18.83-3.43 19.17-4.07Q19.51-4.71 20.09-5.05Q20.68-5.40 21.40-5.40L21.40-5.40Q22.14-5.40 22.70-5.08Q23.26-4.75 23.57-4.13Q23.87-3.51 23.87-2.66L23.87-2.66L23.87-2.62Q23.87-2.53 23.84-2.48Q23.82-2.44 23.72-2.44L23.72-2.44L20.02-2.44Q19.92-2.44 19.92-2.28L19.92-2.28ZM19.94-3.08L22.65-3.07Q22.75-3.07 22.79-3.10Q22.82-3.13 22.82-3.21L22.82-3.21Q22.82-3.60 22.66-3.94Q22.49-4.28 22.18-4.49Q21.86-4.69 21.43-4.69L21.43-4.69Q20.98-4.69 20.64-4.46Q20.30-4.24 20.12-3.88Q19.93-3.51 19.94-3.08L19.94-3.08ZM27.23-7.27Q27.23-7.42 27.37-7.42L27.37-7.42L31.94-7.42Q32.06-7.42 32.06-7.29L32.06-7.29L32.05-6.66Q32.05-6.51 31.90-6.51L31.90-6.51L28.59-6.51Q28.51-6.51 28.48-6.48Q28.44-6.45 28.44-6.38L28.44-6.38L28.44-4.20Q28.44-4.08 28.57-4.08L28.57-4.08L31.08-4.08Q31.20-4.08 31.20-3.96L31.20-3.96L31.20-3.30Q31.20-3.24 31.18-3.21Q31.15-3.19 31.08-3.19L31.08-3.19L28.56-3.19Q28.44-3.19 28.44-3.07L28.44-3.07L28.44-0.16Q28.44-0.07 28.40-0.04Q28.36 0 28.26 0L28.26 0L27.40 0Q27.30 0 27.27-0.04Q27.23-0.07 27.23-0.16L27.23-0.16L27.23-7.27ZM32.74 0Q32.58 0 32.58-0.16L32.58-0.16L32.58-5.15Q32.58-5.30 32.71-5.30L32.71-5.30L33.48-5.30Q33.60-5.30 33.60-5.17L33.60-5.17L33.60-4.54Q33.60-4.48 33.64-4.47Q33.67-4.46 33.71-4.51L33.71-4.51Q34.08-4.94 34.48-5.17Q34.87-5.40 35.25-5.40L35.25-5.40Q35.60-5.40 35.60-5.26L35.60-5.26L35.60-4.48Q35.60-4.36 35.49-4.38L35.49-4.38Q35.30-4.43 34.96-4.43L34.96-4.43Q34.68-4.43 34.37-4.28Q34.06-4.12 33.85-3.87Q33.64-3.62 33.64-3.36L33.64-3.36L33.64-0.17Q33.64 0 33.45 0L33.45 0L32.74 0ZM39.53-0.60Q38.80 0.10 37.82 0.10L37.82 0.10Q37.05 0.10 36.61-0.29Q36.16-0.69 36.16-1.35L36.16-1.35Q36.16-2.16 36.87-2.64Q37.57-3.12 38.87-3.18L38.87-3.18L39.52-3.23Q39.68-3.25 39.68-3.38L39.68-3.38L39.68-3.63Q39.68-4.12 39.38-4.41Q39.08-4.69 38.56-4.69L38.56-4.69Q37.74-4.69 37.25-3.95L37.25-3.95Q37.22-3.89 37.19-3.88Q37.15-3.86 37.08-3.88L37.08-3.88L36.40-4.08Q36.34-4.10 36.34-4.16L36.34-4.16Q36.34-4.20 36.37-4.27L36.37-4.27Q36.65-4.81 37.23-5.11Q37.80-5.40 38.61-5.40L38.61-5.40Q39.66-5.40 40.18-4.95Q40.70-4.50 40.70-3.70L40.70-3.70L40.70-0.17Q40.70-0.07 40.67-0.04Q40.63 0 40.55 0L40.55 0L39.88 0Q39.74 0 39.72-0.20L39.72-0.20L39.70-0.58Q39.68-0.66 39.64-0.66L39.64-0.66Q39.61-0.66 39.53-0.60L39.53-0.60ZM39.68-2.49Q39.68-2.65 39.54-2.64L39.54-2.64L39.00-2.60Q38.17-2.55 37.69-2.27Q37.20-1.98 37.20-1.48L37.20-1.48Q37.20-1.09 37.48-0.86Q37.76-0.64 38.23-0.64L38.23-0.64Q38.77-0.64 39.25-1.01L39.25-1.01Q39.68-1.36 39.68-1.71L39.68-1.71L39.68-2.49ZM42.18 0Q42.02 0 42.02-0.16L42.02-0.16L42.02-5.15Q42.02-5.30 42.15-5.30L42.15-5.30L42.94-5.30Q43.06-5.30 43.06-5.17L43.06-5.17L43.06-4.62Q43.06-4.56 43.09-4.55Q43.11-4.54 43.16-4.59L43.16-4.59Q43.68-5.01 44.08-5.21Q44.48-5.40 44.95-5.40L44.95-5.40Q45.70-5.40 46.13-4.99Q46.55-4.57 46.55-3.87L46.55-3.87L46.55-0.18Q46.55 0 46.38 0L46.38 0L45.64 0Q45.49 0 45.49-0.16L45.49-0.16L45.49-3.66Q45.49-4.11 45.26-4.36Q45.02-4.60 44.55-4.60L44.55-4.60Q44.17-4.60 43.85-4.42Q43.52-4.25 43.08-3.85L43.08-3.85L43.08-0.17Q43.08-0.08 43.04-0.04Q42.99 0 42.89 0L42.89 0L42.18 0ZM52.70-0.19Q52.72-0.16 52.72-0.10L52.72-0.10Q52.72 0 52.59 0L52.59 0L51.70 0Q51.56 0 51.50-0.15L51.50-0.15L50.13-2.57Q50.10-2.63 50.07-2.63L50.07-2.63Q50.04-2.63 50.00-2.59L50.00-2.59L49.05-1.64Q48.97-1.57 48.97-1.43L48.97-1.43L48.97-0.19Q48.97-0.08 48.93-0.04Q48.88 0 48.77 0L48.77 0L48.08 0Q47.98 0 47.95-0.04Q47.91-0.07 47.91-0.16L47.91-0.16L47.91-7.27Q47.91-7.42 48.04-7.42L48.04-7.42L48.84-7.42Q48.97-7.42 48.97-7.27L48.97-7.27L48.97-2.80Q48.97-2.71 49.01-2.71L49.01-2.71Q49.03-2.71 49.08-2.76L49.08-2.76L51.36-5.17Q51.49-5.30 51.59-5.30L51.59-5.30L52.34-5.30Q52.48-5.30 52.48-5.22L52.48-5.22Q52.48-5.16 52.41-5.09L52.41-5.09L50.89-3.54Q50.84-3.49 50.84-3.44L50.84-3.44Q50.84-3.41 50.87-3.33L50.87-3.33L52.70-0.19ZM54.73-7.27L54.73-0.19Q54.73-0.08 54.69-0.04Q54.64 0 54.52 0L54.52 0L53.84 0Q53.74 0 53.70-0.04Q53.66-0.07 53.66-0.16L53.66-0.16L53.68-7.27Q53.68-7.42 53.81-7.42L53.81-7.42L54.60-7.42Q54.73-7.42 54.73-7.27L54.73-7.27ZM57.23-7.26L57.23-6.36Q57.23-6.25 57.19-6.20Q57.14-6.15 57.03-6.15L57.03-6.15L56.29-6.15Q56.19-6.15 56.15-6.20Q56.11-6.24 56.11-6.34L56.11-6.34L56.11-7.25Q56.11-7.42 56.26-7.42L56.26-7.42L57.09-7.42Q57.15-7.42 57.19-7.38Q57.23-7.33 57.23-7.26L57.23-7.26ZM57.20-5.16L57.20-0.19Q57.20-0.08 57.16-0.04Q57.11 0 57.00 0L57.00 0L56.32 0Q56.22 0 56.18-0.04Q56.14-0.07 56.14-0.16L56.14-0.16L56.14-5.15Q56.14-5.23 56.17-5.26Q56.20-5.30 56.28-5.30L56.28-5.30L57.08-5.30Q57.20-5.30 57.20-5.16L57.20-5.16ZM58.77 0Q58.61 0 58.61-0.16L58.61-0.16L58.61-5.15Q58.61-5.30 58.74-5.30L58.74-5.30L59.53-5.30Q59.65-5.30 59.65-5.17L59.65-5.17L59.65-4.62Q59.65-4.56 59.68-4.55Q59.70-4.54 59.75-4.59L59.75-4.59Q60.27-5.01 60.67-5.21Q61.07-5.40 61.54-5.40L61.54-5.40Q62.29-5.40 62.72-4.99Q63.14-4.57 63.14-3.87L63.14-3.87L63.14-0.18Q63.14 0 62.97 0L62.97 0L62.23 0Q62.08 0 62.08-0.16L62.08-0.16L62.08-3.66Q62.08-4.11 61.85-4.36Q61.61-4.60 61.14-4.60L61.14-4.60Q60.76-4.60 60.44-4.42Q60.11-4.25 59.67-3.85L59.67-3.85L59.67-0.17Q59.67-0.08 59.63-0.04Q59.58 0 59.48 0L59.48 0L58.77 0Z"/></svg>