<svg xmlns="http://www.w3.org/2000/svg" viewBox="2.5200000000000005 40.239999999999995 832.3920000000002 60.55200000000001"><path d="M53 84L52 100L3 100L3 97Q5 97 6 97Q8 96 9 95Q10 95 10 93Q10 91 10 89L10 89L10 56Q10 53 10 52Q10 50 9 49Q8 48 7 48Q5 48 3 47L3 47L3 45L28 45L28 47Q26 48 24 48Q23 48 22 49Q21 50 21 52Q21 53 21 56L21 56L21 86Q21 89 21 91Q22 93 23 94Q25 95 27 96Q30 96 34 96L34 96Q38 96 41 96Q43 95 45 94Q47 92 48 90Q50 87 50 84L50 84L53 84ZM73 61L73 88Q73 91 73 93Q73 95 74 95Q75 96 76 97Q77 97 79 97L79 97L79 100L56 100L56 97Q58 97 60 97Q61 96 62 95Q62 94 63 93Q63 91 63 89L63 89L63 80Q63 76 63 73Q63 70 62 69L62 69Q62 67 61 67Q59 66 56 66L56 66L56 64L73 61ZM62 46L62 46Q62 43 64 42Q66 40 68 40L68 40Q70 40 72 42Q73 43 73 46L73 46Q73 48 72 50Q70 51 68 51L68 51Q66 51 64 50Q62 48 62 46ZM97 80L97 84Q97 87 97 89Q98 91 99 93Q101 95 102 96Q104 97 106 97L106 97Q111 97 113 93Q115 89 115 81L115 81Q115 74 113 70Q111 66 106 66L106 66Q104 66 102 67Q99 68 98 71L98 71Q97 74 97 80L97 80ZM96 40L96 67L97 67Q99 64 102 63Q104 61 108 61L108 61Q112 61 115 63Q119 64 121 67Q123 70 125 73Q126 77 126 81L126 81Q126 85 125 89Q123 92 121 95Q118 98 115 99Q111 101 107 101L107 101Q103 101 100 99Q96 98 94 95L94 95L89 100L86 100L86 57Q86 50 86 48L86 48Q85 47 85 47Q85 47 84 46Q84 46 83 46Q82 46 80 46L80 46L80 43L96 40ZM147 85L147 89Q147 92 148 93Q148 95 149 96Q150 97 151 97Q153 97 155 97L155 97L155 100L131 100L131 97Q133 97 134 97Q136 96 136 96Q137 95 137 93Q137 91 137 89L137 89L137 80Q137 75 137 73Q137 70 136 69Q136 67 134 67Q133 66 131 66L131 66L131 64L145 61L146 69L147 69Q149 66 152 63Q155 61 158 61L158 61Q161 61 163 62Q165 64 165 66L165 66Q165 68 163 70Q162 71 160 71L160 71Q159 71 158 71Q157 71 156 70Q155 69 155 69Q154 69 153 69L153 69Q152 69 151 70Q150 72 149 75L149 75Q148 77 148 80Q147 83 147 85L147 85ZM201 91L203 93Q197 101 187 101L187 101Q182 101 179 99Q175 98 173 95Q170 93 168 89Q167 86 167 81L167 81Q167 77 169 73Q170 70 173 67Q176 64 179 63Q183 61 188 61L188 61Q195 61 200 65Q204 69 204 77L204 77Q204 78 203 78Q203 78 201 78L201 78L178 78Q178 79 178 81L178 81Q178 88 181 92Q184 96 189 96L189 96Q192 96 195 95Q198 93 201 91L201 91ZM179 74L189 74Q192 74 193 74Q194 74 194 72L194 72Q194 69 192 67Q190 65 187 65L187 65Q184 65 182 68Q179 70 179 74L179 74ZM256 100L228 100L228 97Q230 97 232 97Q233 96 234 95Q235 95 235 93Q236 91 236 89L236 89L236 56Q236 53 235 52Q235 50 234 49Q234 48 233 48Q231 48 229 47L229 47L229 45L253 45Q263 45 269 48Q275 52 275 58L275 58Q275 67 263 70L263 70L263 70Q267 70 270 72Q273 73 275 75Q278 77 279 79Q280 82 280 85L280 85Q280 89 278 92Q277 95 273 96L273 96Q267 100 256 100L256 100ZM256 96L256 96Q268 96 268 85L268 85Q268 79 264 76L264 76Q261 74 258 74Q255 73 250 73L250 73L246 73L246 87Q246 92 248 94Q251 96 256 96ZM246 69L250 69Q254 69 256 68Q258 67 260 66L260 66Q264 64 264 59L264 59Q264 54 261 51Q258 49 253 49L253 49L247 49Q246 49 246 50L246 50L246 69ZM308 86L308 79Q302 82 299 85Q296 87 296 89L296 89Q296 92 297 93Q298 94 300 94L300 94Q301 94 303 93Q304 93 305 92Q307 91 307 89Q308 88 308 86L308 86ZM298 80L308 76L308 73Q308 68 306 67Q305 65 302 65L302 65Q300 65 299 66Q297 67 296 69L296 69Q296 71 295 72Q293 73 291 73L291 73Q289 73 288 72Q287 71 287 69L287 69Q287 65 291 63Q295 61 302 61L302 61Q310 61 314 64Q317 67 317 74L317 74L317 90Q317 96 320 96L320 96Q321 96 322 95L322 95L323 97Q322 99 320 100Q318 101 316 101L316 101Q312 101 310 99Q309 97 309 93L309 93L308 93Q306 97 303 99Q300 101 295 101L295 101Q291 101 288 98Q285 96 285 91L285 91Q285 88 288 85Q291 83 298 80L298 80ZM332 97L330 100L328 100L328 87L331 87Q332 92 335 94Q337 97 341 97L341 97Q343 97 345 96Q346 95 346 93L346 93Q346 91 345 89Q343 87 339 85L339 85Q333 82 331 79Q328 76 328 72L328 72Q328 70 329 68Q330 66 332 64Q333 63 336 62Q338 61 340 61L340 61Q342 61 345 62Q347 62 348 63L348 63L350 62L352 62L352 73L349 73Q347 69 345 67Q344 65 341 65L341 65Q339 65 338 66Q337 67 337 69L337 69Q337 71 339 73Q340 75 344 77L344 77Q347 78 349 80Q351 81 353 83Q354 84 355 86Q355 88 355 90L355 90Q355 92 354 94Q353 96 352 98Q350 99 348 100Q345 101 342 101L342 101Q339 101 336 100Q334 99 332 97L332 97ZM384 100L384 97Q386 97 387 97Q388 97 388 96L388 96Q388 96 387 94Q386 92 384 90L384 90L379 82L375 85L375 88Q375 91 375 93Q376 94 376 95Q377 96 378 97Q379 97 380 97L380 97L380 100L359 100L359 97Q361 97 362 97Q363 96 364 95Q365 95 365 93Q365 91 365 89L365 89L365 58Q365 54 365 51Q365 49 365 47Q364 46 363 46Q361 46 359 46L359 46L359 43L375 40L375 80L382 74Q386 70 388 68Q389 67 389 66L389 66Q389 65 388 65Q386 65 383 65L383 65L383 62L402 62L402 65Q400 65 398 66Q396 67 393 69L393 69L386 75L399 93Q400 95 402 96Q403 97 406 97L406 97L406 100L384 100ZM441 91L443 93Q436 101 426 101L426 101Q422 101 418 99Q415 98 412 95Q409 93 408 89Q406 86 406 81L406 81Q406 77 408 73Q409 70 412 67Q415 64 419 63Q423 61 427 61L427 61Q435 61 439 65Q443 69 443 77L443 77Q443 78 443 78Q443 78 441 78L441 78L418 78Q417 79 417 81L417 81Q417 88 420 92Q424 96 429 96L429 96Q432 96 435 95Q438 93 441 91L441 91ZM418 74L429 74Q431 74 432 74Q433 74 433 72L433 72Q433 69 431 67Q430 65 427 65L427 65Q424 65 421 68Q419 70 418 74L418 74ZM464 85L464 89Q464 92 465 93Q465 95 466 96Q466 97 468 97Q470 97 472 97L472 97L472 100L448 100L448 97Q450 97 451 97Q453 96 453 96Q454 95 454 93Q454 91 454 89L454 89L454 80Q454 75 454 73Q454 70 453 69Q453 67 451 67Q450 66 448 66L448 66L448 64L462 61L463 69L464 69Q465 66 469 63Q472 61 475 61L475 61Q478 61 480 62Q482 64 482 66L482 66Q482 68 480 70Q479 71 477 71L477 71Q475 71 475 71Q474 71 473 70Q472 69 472 69Q471 69 470 69L470 69Q469 69 468 70Q466 72 466 75L466 75Q465 77 465 80Q464 83 464 85L464 85ZM500 101L489 71Q488 69 487 68Q487 67 486 66Q485 65 484 65Q483 65 482 65L482 65L482 62L504 62L504 65Q502 65 501 65Q500 65 499 65Q499 66 499 66Q498 67 498 67L498 67Q498 68 499 69Q499 70 500 72L500 72L507 91L507 91L515 72Q515 71 515 70Q516 69 516 68L516 68Q516 66 515 66Q513 65 511 65L511 65L511 62L527 62L527 65Q525 65 523 66Q522 67 520 70L520 70L507 101L500 101ZM545 61L545 88Q545 91 545 93Q546 95 546 95Q547 96 548 97Q549 97 551 97L551 97L551 100L529 100L529 97Q531 97 532 97Q533 96 534 95Q535 94 535 93Q535 91 535 89L535 89L535 80Q535 76 535 73Q535 70 535 69L535 69Q534 67 533 67Q532 66 528 66L528 66L528 64L545 61ZM535 46L535 46Q535 43 536 42Q538 40 540 40L540 40Q542 40 544 42Q546 43 546 46L546 46Q546 48 544 50Q542 51 540 51L540 51Q538 51 536 50Q535 48 535 46ZM570 40L570 88Q570 91 571 93Q571 95 571 95Q572 96 573 97Q575 97 577 97L577 97L577 100L554 100L554 97Q556 97 557 97Q559 96 559 95Q560 94 560 93Q560 91 560 89L560 89L560 59Q560 55 560 52Q560 49 560 48L560 48Q560 47 558 46Q557 45 554 45L554 45L554 43L570 40ZM596 40L596 88Q596 91 596 93Q596 95 597 95Q598 96 599 97Q600 97 602 97L602 97L602 100L580 100L580 97Q582 97 583 97Q584 96 585 95Q585 94 586 93Q586 91 586 89L586 89L586 59Q586 55 586 52Q586 49 585 48L585 48Q585 47 584 46Q583 45 579 45L579 45L579 43L596 40ZM641 91L643 93Q636 101 626 101L626 101Q622 101 618 99Q615 98 612 95Q609 93 608 89Q606 86 606 81L606 81Q606 77 608 73Q609 70 612 67Q615 64 619 63Q623 61 627 61L627 61Q635 61 639 65Q643 69 643 77L643 77Q643 78 643 78Q643 78 641 78L641 78L618 78Q617 79 617 81L617 81Q617 88 620 92Q624 96 629 96L629 96Q632 96 635 95Q638 93 641 91L641 91ZM618 74L629 74Q632 74 632 74Q633 74 633 72L633 72Q633 69 631 67Q630 65 627 65L627 65Q624 65 621 68Q619 70 618 74L618 74ZM681 80L681 84Q681 87 682 89Q683 91 684 93Q685 95 687 96Q689 97 691 97L691 97Q695 97 698 93Q700 89 700 81L700 81Q700 74 698 70Q695 66 691 66L691 66Q688 66 686 67Q684 68 683 71L683 71Q681 74 681 80L681 80ZM681 40L681 67L681 67Q683 64 686 63Q689 61 693 61L693 61Q697 61 700 63Q703 64 706 67Q708 70 709 73Q711 77 711 81L711 81Q711 85 709 89Q708 92 705 95Q703 98 699 99Q696 101 692 101L692 101Q688 101 685 99Q681 98 679 95L679 95L674 100L671 100L671 57Q671 50 670 48L670 48Q670 47 670 47Q669 47 669 46Q668 46 667 46Q666 46 665 46L665 46L665 43L681 40ZM737 61L737 61Q741 61 745 63Q749 64 752 67Q755 69 757 73Q758 76 758 81L758 81Q758 85 757 89Q755 92 752 95Q749 98 745 99Q741 101 737 101L737 101Q733 101 729 99Q725 98 722 95Q719 92 718 89Q716 85 716 81L716 81Q716 76 718 73Q719 69 722 67Q725 64 729 63Q733 61 737 61ZM737 65L737 65Q735 65 733 66Q731 68 730 70Q729 72 728 74Q727 77 727 81L727 81Q727 84 728 87Q729 90 730 92Q731 94 733 95Q735 96 737 96L737 96Q739 96 741 95Q743 94 744 92Q746 90 746 87Q747 84 747 81L747 81Q747 77 746 74Q746 72 744 70Q743 68 741 66Q739 65 737 65ZM779 40L779 88Q779 91 779 93Q779 95 780 95Q781 96 782 97Q783 97 785 97L785 97L785 100L762 100L762 97Q764 97 766 97Q767 96 768 95Q768 94 769 93Q769 91 769 89L769 89L769 59Q769 55 769 52Q769 49 768 48L768 48Q768 47 767 46Q765 45 762 45L762 45L762 43L779 40ZM821 101L821 95L821 95Q816 101 808 101L808 101Q804 101 801 99Q797 98 795 95Q792 93 791 89Q789 86 789 81L789 81Q789 77 791 73Q792 70 795 67Q797 64 800 63Q804 61 808 61L808 61Q811 61 814 62Q817 63 819 66L819 66L819 66L819 60Q819 56 819 52Q819 49 819 48L819 48Q818 47 817 46Q815 46 811 46L811 46L811 43L829 40L829 81Q829 87 829 90Q829 93 830 94L830 94Q830 95 830 96Q830 96 831 97Q831 97 832 97Q833 97 835 97L835 97L835 100L821 101ZM819 82L819 79Q819 77 818 74Q818 72 817 70L817 70Q815 68 813 67Q811 66 809 66L809 66Q805 66 803 70Q800 74 800 81L800 81Q800 89 803 93Q805 97 809 97L809 97Q811 97 814 95Q816 94 817 92L817 92Q818 90 819 88Q819 86 819 82L819 82Z"/></svg>