<svg xmlns="http://www.w3.org/2000/svg" viewBox="0.26853515625 -7.42 66.25146484374999 7.52"><path d="M1.25-7.24Q1.26-7.34 1.30-7.38Q1.34-7.42 1.42-7.42L1.42-7.42L3.15-7.42Q3.20-7.42 3.23-7.38Q3.27-7.33 3.27-7.26L3.27-7.26Q3.27-7.20 3.26-7.17L3.26-7.17L2.48-1.63L2.47-1.58Q2.47-1.47 2.58-1.47L2.58-1.47L5.71-1.47Q5.87-1.47 5.85-1.24L5.85-1.24L5.70-0.15Q5.69-0.06 5.65-0.03Q5.60 0 5.49 0L5.49 0L0.49 0Q0.37 0 0.32-0.07Q0.26-0.15 0.27-0.28L0.27-0.28L1.25-7.24ZM9.25-7.17L9.10-6.06Q9.08-5.92 9.02-5.88Q8.96-5.84 8.79-5.84L8.79-5.84L7.45-5.84Q7.30-5.84 7.30-6.03L7.30-6.03Q7.30-6.10 7.31-6.13L7.31-6.13L7.47-7.21Q7.50-7.42 7.66-7.42L7.66-7.42L9.15-7.42Q9.26-7.42 9.26-7.25L9.26-7.25L9.25-7.17ZM8.95-5.06L8.27-0.21Q8.25-0.07 8.20-0.04Q8.14 0 7.97 0L7.97 0L6.73 0Q6.60 0 6.54-0.07Q6.48-0.15 6.49-0.28L6.49-0.28L7.18-5.14Q7.19-5.24 7.23-5.27Q7.26-5.30 7.35-5.30L7.35-5.30L8.84-5.30Q8.97-5.30 8.95-5.06L8.95-5.06ZM10.31 0L9.48 0Q9.34 0 9.28-0.08Q9.22-0.16 9.24-0.29L9.24-0.29L10.22-7.26Q10.23-7.36 10.27-7.39Q10.30-7.42 10.38-7.42L10.38-7.42L11.89-7.42Q11.99-7.42 11.99-7.28L11.99-7.28Q11.99-7.21 11.98-7.17L11.98-7.17L11.67-4.97L11.67-4.93Q11.67-4.87 11.71-4.87L11.71-4.87Q11.74-4.87 11.82-4.93L11.82-4.93Q12.46-5.40 13.18-5.40L13.18-5.40Q14.05-5.40 14.52-4.83Q14.98-4.27 14.98-3.27L14.98-3.27Q14.98-2.43 14.70-1.66Q14.42-0.89 13.82-0.40Q13.23 0.10 12.35 0.10L12.35 0.10Q11.88 0.10 11.50-0.13Q11.12-0.35 10.89-0.73L10.89-0.73Q10.86-0.78 10.82-0.78L10.82-0.78Q10.75-0.78 10.71-0.65L10.71-0.65L10.55-0.20Q10.51-0.08 10.46-0.04Q10.41 0 10.31 0L10.31 0ZM11.53-3.80L11.23-1.79Q11.22-1.73 11.22-1.62L11.22-1.62Q11.22-1.30 11.40-1.13Q11.59-0.96 11.89-0.96L11.89-0.96Q12.36-0.96 12.65-1.36Q12.95-1.77 13.07-2.33Q13.20-2.89 13.20-3.39L13.20-3.39Q13.20-3.88 13.04-4.09Q12.88-4.30 12.54-4.30L12.54-4.30Q12.01-4.30 11.53-3.80L11.53-3.80ZM15.60 0Q15.47 0 15.41-0.08Q15.35-0.16 15.36-0.28L15.36-0.28L16.05-5.14Q16.06-5.24 16.09-5.27Q16.13-5.30 16.21-5.30L16.21-5.30L17.61-5.30Q17.79-5.30 17.76-5.06L17.76-5.06L17.69-4.66L17.69-4.61Q17.69-4.53 17.73-4.53L17.73-4.53Q17.77-4.53 17.82-4.60L17.82-4.60Q18.15-4.95 18.59-5.17Q19.03-5.40 19.36-5.40L19.36-5.40Q19.58-5.40 19.68-5.37Q19.78-5.33 19.77-5.24L19.77-5.24L19.59-3.94Q19.58-3.82 19.54-3.79Q19.51-3.75 19.45-3.76L19.45-3.76Q18.98-3.82 18.68-3.82L18.68-3.82Q18.44-3.82 18.18-3.70Q17.92-3.57 17.73-3.38Q17.55-3.19 17.52-2.99L17.52-2.99L17.14-0.21Q17.12-0.07 17.06-0.04Q17.01 0 16.85 0L16.85 0L15.60 0ZM22.16 0.10Q21.43 0.10 20.87-0.20Q20.31-0.49 20.00-1.02Q19.68-1.55 19.68-2.24L19.68-2.24Q19.68-3.06 20.09-3.79Q20.49-4.51 21.20-4.96Q21.90-5.40 22.76-5.40L22.76-5.40Q23.46-5.40 23.99-5.12Q24.53-4.83 24.82-4.29Q25.12-3.76 25.12-3.03L25.12-3.03Q25.12-2.72 25.08-2.47L25.08-2.47Q25.07-2.38 25.02-2.35Q24.97-2.32 24.84-2.32L24.84-2.32L21.62-2.32Q21.45-2.32 21.45-1.90L21.45-1.90Q21.45-1.50 21.71-1.29Q21.98-1.09 22.42-1.09L22.42-1.09Q22.76-1.09 23.06-1.23Q23.36-1.37 23.66-1.69L23.66-1.69Q23.73-1.74 23.77-1.74L23.77-1.74Q23.80-1.74 23.92-1.70L23.92-1.70L24.68-1.36Q24.81-1.30 24.81-1.20L24.81-1.20Q24.81-1.15 24.75-1.07L24.75-1.07Q24.14-0.40 23.56-0.15Q22.99 0.10 22.16 0.10L22.16 0.10ZM21.65-3.22L23.25-3.22Q23.36-3.22 23.43-3.31Q23.49-3.40 23.49-3.59L23.49-3.59Q23.49-3.89 23.31-4.12Q23.13-4.34 22.78-4.34L22.78-4.34Q22.37-4.34 22.04-4.03Q21.71-3.71 21.65-3.22L21.65-3.22ZM28.62-7.26Q28.63-7.36 28.66-7.39Q28.70-7.42 28.78-7.42L28.78-7.42L34-7.42Q34.07-7.42 34.09-7.38Q34.12-7.34 34.10-7.25L34.10-7.25L33.94-6.14Q33.93-6.03 33.88-5.99Q33.84-5.95 33.72-5.95L33.72-5.95L30.57-5.95Q30.50-5.95 30.47-5.91Q30.44-5.87 30.42-5.75L30.42-5.75L30.24-4.50L30.24-4.44Q30.24-4.39 30.26-4.38Q30.28-4.36 30.35-4.36L30.35-4.36L32.44-4.36Q32.52-4.36 32.54-4.33Q32.56-4.31 32.55-4.24L32.55-4.24L32.39-3.07Q32.38-2.99 32.34-2.96Q32.30-2.94 32.20-2.94L32.20-2.94L30.15-2.94Q30.07-2.94 30.04-2.91Q30.02-2.87 30-2.74L30-2.74L29.64-0.21Q29.62-0.07 29.58-0.04Q29.54 0 29.41 0L29.41 0L27.80 0Q27.69 0 27.66-0.03Q27.62-0.05 27.62-0.13L27.62-0.13Q27.62-0.22 27.63-0.28L27.63-0.28L28.62-7.26ZM33.48 0Q33.35 0 33.29-0.08Q33.23-0.16 33.24-0.28L33.24-0.28L33.93-5.14Q33.94-5.24 33.97-5.27Q34.01-5.30 34.09-5.30L34.09-5.30L35.49-5.30Q35.67-5.30 35.64-5.06L35.64-5.06L35.57-4.66L35.57-4.61Q35.57-4.53 35.61-4.53L35.61-4.53Q35.65-4.53 35.70-4.60L35.70-4.60Q36.03-4.95 36.47-5.17Q36.91-5.40 37.24-5.40L37.24-5.40Q37.46-5.40 37.56-5.37Q37.66-5.33 37.65-5.24L37.65-5.24L37.47-3.94Q37.46-3.82 37.42-3.79Q37.39-3.75 37.33-3.76L37.33-3.76Q36.86-3.82 36.56-3.82L36.56-3.82Q36.32-3.82 36.06-3.70Q35.80-3.57 35.61-3.38Q35.43-3.19 35.40-2.99L35.40-2.99L35.02-0.21Q35.00-0.07 34.94-0.04Q34.89 0 34.73 0L34.73 0L33.48 0ZM40.50-0.44Q40.23-0.17 39.82-0.04Q39.41 0.10 38.94 0.10L38.94 0.10Q38.24 0.10 37.84-0.27Q37.45-0.64 37.45-1.22L37.45-1.22Q37.45-1.94 37.94-2.40Q38.43-2.86 39.16-3.07Q39.90-3.28 40.68-3.29L40.68-3.29L40.88-3.30Q41.07-3.30 41.10-3.49L41.10-3.49L41.13-3.68Q41.15-3.80 41.15-3.84L41.15-3.84Q41.15-4.32 40.58-4.32L40.58-4.32Q39.86-4.32 39.54-3.77L39.54-3.77Q39.49-3.69 39.41-3.69L39.41-3.69Q39.35-3.69 39.31-3.70L39.31-3.70L38.18-3.94Q38.06-3.96 38.06-4.10L38.06-4.10Q38.06-4.21 38.11-4.32L38.11-4.32Q38.73-5.40 40.67-5.40L40.67-5.40Q42.85-5.40 42.85-3.98L42.85-3.98Q42.85-3.89 42.83-3.69L42.83-3.69L42.34-0.19Q42.32-0.05 42.29-0.03Q42.26 0 42.13 0L42.13 0L40.93 0Q40.82 0 40.78-0.07Q40.75-0.13 40.73-0.29L40.73-0.29L40.73-0.48Q40.73-0.57 40.68-0.57L40.68-0.57Q40.62-0.57 40.50-0.44L40.50-0.44ZM40.86-1.76L40.94-2.35Q40.95-2.39 40.95-2.44L40.95-2.44Q40.95-2.48 40.85-2.47L40.85-2.47L40.61-2.45Q40.11-2.42 39.66-2.19Q39.21-1.96 39.21-1.50L39.21-1.50Q39.21-1.30 39.35-1.17Q39.50-1.04 39.75-1.04L39.75-1.04Q39.99-1.04 40.19-1.10Q40.40-1.17 40.52-1.28L40.52-1.28Q40.83-1.54 40.86-1.76L40.86-1.76ZM43.40 0Q43.30 0 43.26-0.07Q43.23-0.14 43.24-0.28L43.24-0.28L43.93-5.14Q43.95-5.24 43.98-5.27Q44.01-5.30 44.09-5.30L44.09-5.30L45.59-5.30Q45.66-5.30 45.68-5.27Q45.70-5.24 45.69-5.16L45.69-5.16L45.62-4.68L45.62-4.65Q45.62-4.61 45.64-4.61L45.64-4.61Q45.65-4.61 45.73-4.67L45.73-4.67Q46.58-5.40 47.42-5.40L47.42-5.40Q48.08-5.40 48.46-5.03Q48.85-4.65 48.85-4.03L48.85-4.03Q48.85-3.95 48.83-3.75L48.83-3.75L48.33-0.22Q48.32-0.09 48.26-0.04Q48.20 0 48.05 0L48.05 0L46.70 0Q46.55 0 46.55-0.16L46.55-0.16Q46.55-0.24 46.56-0.28L46.56-0.28L47.02-3.55L47.04-3.72Q47.04-4.13 46.55-4.13L46.55-4.13Q46.26-4.13 46.01-3.98Q45.76-3.83 45.50-3.53L45.50-3.53L45.02-0.21Q45.00-0.07 44.94-0.04Q44.88 0 44.71 0L44.71 0L43.40 0ZM54.74-0.21L54.76-0.13Q54.76 0 54.59 0L54.59 0L53.08 0Q52.97 0 52.90-0.07Q52.84-0.15 52.80-0.28L52.80-0.28L52.19-2.13Q52.16-2.22 52.11-2.22L52.11-2.22Q52.07-2.22 51.99-2.16L51.99-2.16L51.32-1.56Q51.19-1.43 51.17-1.28L51.17-1.28L51.02-0.21Q51.01-0.07 50.95-0.04Q50.90 0 50.74 0L50.74 0L49.50 0Q49.36 0 49.29-0.08Q49.23-0.16 49.25-0.28L49.25-0.28L50.24-7.26Q50.25-7.36 50.28-7.39Q50.32-7.42 50.40-7.42L50.40-7.42L51.89-7.42Q52.01-7.42 52.01-7.26L52.01-7.26Q52.01-7.20 52.00-7.17L52.00-7.17L51.46-3.25L51.46-3.22Q51.46-3.21 51.48-3.24Q51.50-3.27 51.55-3.32L51.55-3.32L53.49-5.18Q53.65-5.30 53.79-5.30L53.79-5.30L55.02-5.30Q55.12-5.30 55.18-5.25Q55.24-5.20 55.24-5.13L55.24-5.13Q55.24-5.07 55.18-4.99L55.18-4.99L53.62-3.64Q53.60-3.62 53.54-3.56Q53.49-3.50 53.49-3.42L53.49-3.42Q53.49-3.40 53.51-3.32L53.51-3.32L54.74-0.21ZM58.19-7.22L57.20-0.21Q57.19-0.07 57.13-0.04Q57.07 0 56.91 0L56.91 0L55.66 0Q55.53 0 55.46-0.08Q55.40-0.16 55.42-0.28L55.42-0.28L56.44-7.26Q56.45-7.36 56.48-7.39Q56.52-7.42 56.60-7.42L56.60-7.42L58.07-7.42Q58.22-7.42 58.19-7.22L58.19-7.22ZM60.93-7.17L60.78-6.06Q60.76-5.92 60.70-5.88Q60.64-5.84 60.47-5.84L60.47-5.84L59.13-5.84Q58.98-5.84 58.98-6.03L58.98-6.03Q58.98-6.10 58.99-6.13L58.99-6.13L59.15-7.21Q59.18-7.42 59.34-7.42L59.34-7.42L60.83-7.42Q60.94-7.42 60.94-7.25L60.94-7.25L60.93-7.17ZM60.63-5.06L59.95-0.21Q59.93-0.07 59.87-0.04Q59.82 0 59.65 0L59.65 0L58.41 0Q58.28 0 58.22-0.07Q58.16-0.15 58.17-0.28L58.17-0.28L58.86-5.14Q58.87-5.24 58.90-5.27Q58.94-5.30 59.03-5.30L59.03-5.30L60.52-5.30Q60.65-5.30 60.63-5.06L60.63-5.06ZM61.07 0Q60.97 0 60.93-0.07Q60.90-0.14 60.91-0.28L60.91-0.28L61.60-5.14Q61.62-5.24 61.65-5.27Q61.68-5.30 61.76-5.30L61.76-5.30L63.26-5.30Q63.33-5.30 63.35-5.27Q63.37-5.24 63.36-5.16L63.36-5.16L63.29-4.68L63.29-4.65Q63.29-4.61 63.31-4.61L63.31-4.61Q63.32-4.61 63.40-4.67L63.40-4.67Q64.25-5.40 65.09-5.40L65.09-5.40Q65.75-5.40 66.13-5.03Q66.52-4.65 66.52-4.03L66.52-4.03Q66.52-3.95 66.50-3.75L66.50-3.75L66.00-0.22Q65.99-0.09 65.93-0.04Q65.87 0 65.72 0L65.72 0L64.37 0Q64.22 0 64.22-0.16L64.22-0.16Q64.22-0.24 64.23-0.28L64.23-0.28L64.69-3.55L64.71-3.72Q64.71-4.13 64.22-4.13L64.22-4.13Q63.93-4.13 63.68-3.98Q63.43-3.83 63.17-3.53L63.17-3.53L62.69-0.21Q62.67-0.07 62.61-0.04Q62.55 0 62.38 0L62.38 0L61.07 0Z"/></svg>