<svg xmlns="http://www.w3.org/2000/svg" viewBox="1.9329257812500003 46.57599999999999 1029.9710742187494 54.144000000000005"><path d="M9.00 47.87Q9.07 47.15 9.36 46.86Q9.65 46.58 10.22 46.58L10.22 46.58L22.68 46.58Q23.04 46.58 23.29 46.90Q23.54 47.22 23.54 47.73L23.54 47.73Q23.54 48.16 23.47 48.38L23.47 48.38L17.86 88.26L17.78 88.62Q17.78 89.42 18.58 89.42L18.58 89.42L41.11 89.42Q42.26 89.42 42.12 91.07L42.12 91.07L41.04 98.92Q40.97 99.57 40.64 99.78Q40.32 100 39.53 100L39.53 100L3.53 100Q2.66 100 2.27 99.46Q1.87 98.92 1.94 97.98L1.94 97.98L9.00 47.87ZM66.60 48.38L65.52 56.37Q65.38 57.38 64.94 57.66Q64.51 57.95 63.29 57.95L63.29 57.95L53.64 57.95Q52.56 57.95 52.56 56.58L52.56 56.58Q52.56 56.08 52.63 55.86L52.63 55.86L53.78 48.09Q54.00 46.58 55.15 46.58L55.15 46.58L65.88 46.58Q66.67 46.58 66.67 47.80L66.67 47.80L66.60 48.38ZM64.44 63.57L59.54 98.49Q59.40 99.50 59.00 99.75Q58.61 100 57.38 100L57.38 100L48.46 100Q47.52 100 47.09 99.46Q46.66 98.92 46.73 97.98L46.73 97.98L51.70 62.99Q51.77 62.27 52.02 62.06Q52.27 61.84 52.92 61.84L52.92 61.84L63.65 61.84Q64.58 61.84 64.44 63.57L64.44 63.57ZM74.23 100L68.26 100Q67.25 100 66.82 99.42Q66.38 98.85 66.53 97.91L66.53 97.91L73.58 47.73Q73.66 47.01 73.91 46.79Q74.16 46.58 74.74 46.58L74.74 46.58L85.61 46.58Q86.33 46.58 86.33 47.58L86.33 47.58Q86.33 48.09 86.26 48.38L86.26 48.38L84.02 64.22L84.02 64.50Q84.02 64.94 84.31 64.94L84.31 64.94Q84.53 64.94 85.10 64.50L85.10 64.50Q89.71 61.12 94.90 61.12L94.90 61.12Q101.16 61.12 104.51 65.19Q107.86 69.26 107.86 76.46L107.86 76.46Q107.86 82.50 105.84 88.05Q103.82 93.59 99.54 97.16Q95.26 100.72 88.92 100.72L88.92 100.72Q85.54 100.72 82.80 99.10Q80.06 97.48 78.41 94.74L78.41 94.74Q78.19 94.38 77.90 94.38L77.90 94.38Q77.40 94.38 77.11 95.32L77.11 95.32L75.96 98.56Q75.67 99.42 75.31 99.71Q74.95 100 74.23 100L74.23 100ZM83.02 72.64L80.86 87.11Q80.78 87.54 80.78 88.34L80.78 88.34Q80.78 90.64 82.12 91.86Q83.45 93.09 85.61 93.09L85.61 93.09Q88.99 93.09 91.12 90.17Q93.24 87.26 94.14 83.22Q95.04 79.19 95.04 75.59L95.04 75.59Q95.04 72.06 93.89 70.55Q92.74 69.04 90.29 69.04L90.29 69.04Q86.47 69.04 83.02 72.64L83.02 72.64ZM112.32 100Q111.38 100 110.95 99.42Q110.52 98.85 110.59 97.98L110.59 97.98L115.56 62.99Q115.63 62.27 115.88 62.06Q116.14 61.84 116.71 61.84L116.71 61.84L126.79 61.84Q128.09 61.84 127.87 63.57L127.87 63.57L127.37 66.45L127.37 66.81Q127.37 67.38 127.66 67.38L127.66 67.38Q127.94 67.38 128.30 66.88L128.30 66.88Q130.68 64.36 133.85 62.74Q137.02 61.12 139.39 61.12L139.39 61.12Q140.98 61.12 141.70 61.37Q142.42 61.62 142.34 62.27L142.34 62.27L141.05 71.63Q140.98 72.50 140.72 72.75Q140.47 73 140.04 72.93L140.04 72.93Q136.66 72.50 134.50 72.50L134.50 72.50Q132.77 72.50 130.90 73.40Q129.02 74.30 127.69 75.66Q126.36 77.03 126.14 78.47L126.14 78.47L123.41 98.49Q123.26 99.50 122.87 99.75Q122.47 100 121.32 100L121.32 100L112.32 100ZM159.55 100.72Q154.30 100.72 150.26 98.60Q146.23 96.47 143.96 92.66Q141.70 88.84 141.70 83.87L141.70 83.87Q141.70 77.97 144.61 72.75Q147.53 67.53 152.60 64.32Q157.68 61.12 163.87 61.12L163.87 61.12Q168.91 61.12 172.76 63.17Q176.62 65.22 178.74 69.08Q180.86 72.93 180.86 78.18L180.86 78.18Q180.86 80.42 180.58 82.22L180.58 82.22Q180.50 82.86 180.14 83.08Q179.78 83.30 178.85 83.30L178.85 83.30L155.66 83.30Q154.44 83.30 154.44 86.32L154.44 86.32Q154.44 89.20 156.35 90.68Q158.26 92.15 161.42 92.15L161.42 92.15Q163.87 92.15 166.03 91.14Q168.19 90.14 170.35 87.83L170.35 87.83Q170.86 87.47 171.14 87.47L171.14 87.47Q171.36 87.47 172.22 87.76L172.22 87.76L177.70 90.21Q178.63 90.64 178.63 91.36L178.63 91.36Q178.63 91.72 178.20 92.30L178.20 92.30Q173.81 97.12 169.67 98.92Q165.53 100.72 159.55 100.72L159.55 100.72ZM155.88 76.82L167.40 76.82Q168.19 76.82 168.66 76.17Q169.13 75.52 169.13 74.15L169.13 74.15Q169.13 71.99 167.83 70.37Q166.54 68.75 164.02 68.75L164.02 68.75Q161.06 68.75 158.69 71.02Q156.31 73.29 155.88 76.82L155.88 76.82ZM206.06 47.73Q206.14 47.01 206.39 46.79Q206.64 46.58 207.22 46.58L207.22 46.58L244.80 46.58Q245.30 46.58 245.48 46.86Q245.66 47.15 245.52 47.80L245.52 47.80L244.37 55.79Q244.30 56.58 243.97 56.87Q243.65 57.16 242.78 57.16L242.78 57.16L220.10 57.16Q219.60 57.16 219.38 57.45Q219.17 57.74 219.02 58.60L219.02 58.60L217.73 67.60L217.73 68.03Q217.73 68.39 217.87 68.50Q218.02 68.61 218.52 68.61L218.52 68.61L233.57 68.61Q234.14 68.61 234.29 68.79Q234.43 68.97 234.36 69.47L234.36 69.47L233.21 77.90Q233.14 78.47 232.85 78.65Q232.56 78.83 231.84 78.83L231.84 78.83L217.08 78.83Q216.50 78.83 216.32 79.08Q216.14 79.34 216.00 80.27L216.00 80.27L213.41 98.49Q213.26 99.50 212.98 99.75Q212.69 100 211.75 100L211.75 100L200.16 100Q199.37 100 199.12 99.82Q198.86 99.64 198.86 99.06L198.86 99.06Q198.86 98.42 198.94 97.98L198.94 97.98L206.06 47.73ZM241.06 100Q240.12 100 239.69 99.42Q239.26 98.85 239.33 97.98L239.33 97.98L244.30 62.99Q244.37 62.27 244.62 62.06Q244.87 61.84 245.45 61.84L245.45 61.84L255.53 61.84Q256.82 61.84 256.61 63.57L256.61 63.57L256.10 66.45L256.10 66.81Q256.10 67.38 256.39 67.38L256.39 67.38Q256.68 67.38 257.04 66.88L257.04 66.88Q259.42 64.36 262.58 62.74Q265.75 61.12 268.13 61.12L268.13 61.12Q269.71 61.12 270.43 61.37Q271.15 61.62 271.08 62.27L271.08 62.27L269.78 71.63Q269.71 72.50 269.46 72.75Q269.21 73 268.78 72.93L268.78 72.93Q265.39 72.50 263.23 72.50L263.23 72.50Q261.50 72.50 259.63 73.40Q257.76 74.30 256.43 75.66Q255.10 77.03 254.88 78.47L254.88 78.47L252.14 98.49Q252.00 99.50 251.60 99.75Q251.21 100 250.06 100L250.06 100L241.06 100ZM291.60 96.83Q289.66 98.78 286.70 99.75Q283.75 100.72 280.37 100.72L280.37 100.72Q275.33 100.72 272.48 98.06Q269.64 95.39 269.64 91.22L269.64 91.22Q269.64 86.03 273.17 82.72Q276.70 79.41 281.99 77.90Q287.28 76.38 292.90 76.31L292.90 76.31L294.34 76.24Q295.70 76.24 295.92 74.87L295.92 74.87L296.14 73.50Q296.28 72.64 296.28 72.35L296.28 72.35Q296.28 68.90 292.18 68.90L292.18 68.90Q286.99 68.90 284.69 72.86L284.69 72.86Q284.33 73.43 283.75 73.43L283.75 73.43Q283.32 73.43 283.03 73.36L283.03 73.36L274.90 71.63Q274.03 71.49 274.03 70.48L274.03 70.48Q274.03 69.69 274.39 68.90L274.39 68.90Q278.86 61.12 292.82 61.12L292.82 61.12Q308.52 61.12 308.52 71.34L308.52 71.34Q308.52 71.99 308.38 73.43L308.38 73.43L304.85 98.63Q304.70 99.64 304.49 99.82Q304.27 100 303.34 100L303.34 100L294.70 100Q293.90 100 293.65 99.53Q293.40 99.06 293.26 97.91L293.26 97.91L293.26 96.54Q293.26 95.90 292.90 95.90L292.90 95.90Q292.46 95.90 291.60 96.83L291.60 96.83ZM294.19 87.33L294.77 83.08Q294.84 82.79 294.84 82.43L294.84 82.43Q294.84 82.14 294.12 82.22L294.12 82.22L292.39 82.36Q288.79 82.58 285.55 84.23Q282.31 85.89 282.31 89.20L282.31 89.20Q282.31 90.64 283.36 91.58Q284.40 92.51 286.20 92.51L286.20 92.51Q287.93 92.51 289.40 92.04Q290.88 91.58 291.74 90.78L291.74 90.78Q293.98 88.91 294.19 87.33L294.19 87.33ZM312.48 100Q311.76 100 311.51 99.50Q311.26 98.99 311.33 97.98L311.33 97.98L316.30 62.99Q316.44 62.27 316.66 62.06Q316.87 61.84 317.45 61.84L317.45 61.84L328.25 61.84Q328.75 61.84 328.90 62.06Q329.04 62.27 328.97 62.85L328.97 62.85L328.46 66.30L328.46 66.52Q328.46 66.81 328.61 66.81L328.61 66.81Q328.68 66.81 329.26 66.38L329.26 66.38Q335.38 61.12 341.42 61.12L341.42 61.12Q346.18 61.12 348.95 63.82Q351.72 66.52 351.72 70.98L351.72 70.98Q351.72 71.56 351.58 73L351.58 73L347.98 98.42Q347.90 99.35 347.47 99.68Q347.04 100 345.96 100L345.96 100L336.24 100Q335.16 100 335.16 98.85L335.16 98.85Q335.16 98.27 335.23 97.98L335.23 97.98L338.54 74.44L338.69 73.22Q338.69 70.26 335.16 70.26L335.16 70.26Q333.07 70.26 331.27 71.34Q329.47 72.42 327.60 74.58L327.60 74.58L324.14 98.49Q324.00 99.50 323.57 99.75Q323.14 100 321.91 100L321.91 100L312.48 100ZM394.13 98.49L394.27 99.06Q394.27 100 393.05 100L393.05 100L382.18 100Q381.38 100 380.92 99.46Q380.45 98.92 380.16 97.98L380.16 97.98L375.77 84.66Q375.55 84.02 375.19 84.02L375.19 84.02Q374.90 84.02 374.33 84.45L374.33 84.45L369.50 88.77Q368.57 89.70 368.42 90.78L368.42 90.78L367.34 98.49Q367.27 99.50 366.88 99.75Q366.48 100 365.33 100L365.33 100L356.40 100Q355.39 100 354.92 99.42Q354.46 98.85 354.60 97.98L354.60 97.98L361.73 47.73Q361.80 47.01 362.05 46.79Q362.30 46.58 362.88 46.58L362.88 46.58L373.61 46.58Q374.47 46.58 374.47 47.73L374.47 47.73Q374.47 48.16 374.40 48.38L374.40 48.38L370.51 76.60L370.51 76.82Q370.51 76.89 370.66 76.67Q370.80 76.46 371.16 76.10L371.16 76.10L385.13 62.70Q386.28 61.84 387.29 61.84L387.29 61.84L396.14 61.84Q396.86 61.84 397.30 62.20Q397.73 62.56 397.73 63.06L397.73 63.06Q397.73 63.50 397.30 64.07L397.30 64.07L386.06 73.79Q385.92 73.94 385.52 74.37Q385.13 74.80 385.13 75.38L385.13 75.38Q385.13 75.52 385.27 76.10L385.27 76.10L394.13 98.49ZM418.97 48.02L411.84 98.49Q411.77 99.50 411.34 99.75Q410.90 100 409.75 100L409.75 100L400.75 100Q399.82 100 399.35 99.42Q398.88 98.85 399.02 97.98L399.02 97.98L406.37 47.73Q406.44 47.01 406.69 46.79Q406.94 46.58 407.52 46.58L407.52 46.58L418.10 46.58Q419.18 46.58 418.97 48.02L418.97 48.02ZM438.70 48.38L437.62 56.37Q437.47 57.38 437.04 57.66Q436.61 57.95 435.38 57.95L435.38 57.95L425.74 57.95Q424.66 57.95 424.66 56.58L424.66 56.58Q424.66 56.08 424.73 55.86L424.73 55.86L425.88 48.09Q426.10 46.58 427.25 46.58L427.25 46.58L437.98 46.58Q438.77 46.58 438.77 47.80L438.77 47.80L438.70 48.38ZM436.54 63.57L431.64 98.49Q431.50 99.50 431.10 99.75Q430.70 100 429.48 100L429.48 100L420.55 100Q419.62 100 419.18 99.46Q418.75 98.92 418.82 97.98L418.82 97.98L423.79 62.99Q423.86 62.27 424.12 62.06Q424.37 61.84 425.02 61.84L425.02 61.84L435.74 61.84Q436.68 61.84 436.54 63.57L436.54 63.57ZM439.70 100Q438.98 100 438.73 99.50Q438.48 98.99 438.55 97.98L438.55 97.98L443.52 62.99Q443.66 62.27 443.88 62.06Q444.10 61.84 444.67 61.84L444.67 61.84L455.47 61.84Q455.98 61.84 456.12 62.06Q456.26 62.27 456.19 62.85L456.19 62.85L455.69 66.30L455.69 66.52Q455.69 66.81 455.83 66.81L455.83 66.81Q455.90 66.81 456.48 66.38L456.48 66.38Q462.60 61.12 468.65 61.12L468.65 61.12Q473.40 61.12 476.17 63.82Q478.94 66.52 478.94 70.98L478.94 70.98Q478.94 71.56 478.80 73L478.80 73L475.20 98.42Q475.13 99.35 474.70 99.68Q474.26 100 473.18 100L473.18 100L463.46 100Q462.38 100 462.38 98.85L462.38 98.85Q462.38 98.27 462.46 97.98L462.46 97.98L465.77 74.44L465.91 73.22Q465.91 70.26 462.38 70.26L462.38 70.26Q460.30 70.26 458.50 71.34Q456.70 72.42 454.82 74.58L454.82 74.58L451.37 98.49Q451.22 99.50 450.79 99.75Q450.36 100 449.14 100L449.14 100L439.70 100ZM514.87 100.72Q509.62 100.72 505.58 98.60Q501.55 96.47 499.28 92.66Q497.02 88.84 497.02 83.87L497.02 83.87Q497.02 77.97 499.93 72.75Q502.85 67.53 507.92 64.32Q513 61.12 519.19 61.12L519.19 61.12Q524.23 61.12 528.08 63.17Q531.94 65.22 534.06 69.08Q536.18 72.93 536.18 78.18L536.18 78.18Q536.18 80.42 535.90 82.22L535.90 82.22Q535.82 82.86 535.46 83.08Q535.10 83.30 534.17 83.30L534.17 83.30L510.98 83.30Q509.76 83.30 509.76 86.32L509.76 86.32Q509.76 89.20 511.67 90.68Q513.58 92.15 516.74 92.15L516.74 92.15Q519.19 92.15 521.35 91.14Q523.51 90.14 525.67 87.83L525.67 87.83Q526.18 87.47 526.46 87.47L526.46 87.47Q526.68 87.47 527.54 87.76L527.54 87.76L533.02 90.21Q533.95 90.64 533.95 91.36L533.95 91.36Q533.95 91.72 533.52 92.30L533.52 92.30Q529.13 97.12 524.99 98.92Q520.85 100.72 514.87 100.72L514.87 100.72ZM511.20 76.82L522.72 76.82Q523.51 76.82 523.98 76.17Q524.45 75.52 524.45 74.15L524.45 74.15Q524.45 71.99 523.15 70.37Q521.86 68.75 519.34 68.75L519.34 68.75Q516.38 68.75 514.01 71.02Q511.63 73.29 511.20 76.82L511.20 76.82ZM574.27 97.55Q575.06 98.92 575.06 99.35L575.06 99.35Q575.06 99.71 574.70 99.86Q574.34 100 573.48 100L573.48 100L563.11 100Q561.38 100 560.52 98.42L560.52 98.42L555.34 89.27Q554.90 88.55 554.54 88.55L554.54 88.55Q554.33 88.55 554.00 88.88Q553.68 89.20 553.25 89.70L553.25 89.70L545.47 99.06Q544.97 99.64 544.14 99.82Q543.31 100 542.09 100L542.09 100L534.74 100Q533.38 100 533.38 99.21L533.38 99.21Q533.38 98.27 535.03 96.40L535.03 96.40L548.50 81.78Q549.36 80.78 549.36 80.20L549.36 80.20Q549.36 79.77 549.14 79.34L549.14 79.34L539.86 63.78Q539.57 63.28 539.57 62.85L539.57 62.85Q539.57 61.84 540.94 61.84L540.94 61.84L551.16 61.84Q552.89 61.84 553.68 63.42L553.68 63.42L558.22 71.63Q558.36 71.99 558.58 71.99L558.58 71.99Q558.79 71.99 559.44 71.06L559.44 71.06L565.99 62.78Q566.50 62.13 567 61.98Q567.50 61.84 568.66 61.84L568.66 61.84L576.72 61.84Q577.87 61.84 577.87 62.63L577.87 62.63Q577.87 63.14 577.22 64.07L577.22 64.07L564.91 77.97Q564.05 78.90 564.05 79.62L564.05 79.62Q564.05 79.98 564.26 80.42L564.26 80.42L574.27 97.55ZM592.78 100Q587.95 100 585.04 97.77Q582.12 95.54 582.12 91.72L582.12 91.72Q582.12 90.78 582.19 90.21L582.19 90.21L584.93 71.49L584.93 71.42Q584.93 70.98 584.57 70.77Q584.21 70.55 583.63 70.55L583.63 70.55L579.60 70.55Q578.74 70.55 578.74 69.47L578.74 69.47Q578.74 69.04 578.81 68.75L578.81 68.75L579.60 62.70Q579.67 62.13 579.92 61.98Q580.18 61.84 580.90 61.84L580.90 61.84L585.50 61.84Q585.94 61.84 586.26 61.48Q586.58 61.12 586.73 60.62L586.73 60.62L589.39 49.82Q589.54 49.31 589.86 49.10Q590.18 48.88 590.83 48.88L590.83 48.88L600.12 48.88Q601.06 48.88 601.06 50.03L601.06 50.03Q601.06 50.46 600.98 50.75L600.98 50.75L599.47 60.90L599.47 61.05Q599.47 61.34 599.69 61.55Q599.90 61.77 600.26 61.77L600.26 61.77L607.10 61.77Q608.76 61.77 608.54 62.92L608.54 62.92L607.61 69.54Q607.54 70.19 607.21 70.37Q606.89 70.55 606.10 70.55L606.10 70.55L598.90 70.55Q597.89 70.55 597.67 71.85L597.67 71.85L595.44 87.33Q595.37 87.76 595.37 88.41L595.37 88.41Q595.37 89.92 596.34 90.53Q597.31 91.14 599.62 91.14L599.62 91.14L603.07 91.14Q603.58 91.14 603.97 91.68Q604.37 92.22 604.30 92.87L604.30 92.87L603.50 97.98Q603.29 99.57 601.92 99.64L601.92 99.64Q598.46 100 592.78 100L592.78 100ZM610.70 100Q609.77 100 609.34 99.42Q608.90 98.85 608.98 97.98L608.98 97.98L613.94 62.99Q614.02 62.27 614.27 62.06Q614.52 61.84 615.10 61.84L615.10 61.84L625.18 61.84Q626.47 61.84 626.26 63.57L626.26 63.57L625.75 66.45L625.75 66.81Q625.75 67.38 626.04 67.38L626.04 67.38Q626.33 67.38 626.69 66.88L626.69 66.88Q629.06 64.36 632.23 62.74Q635.40 61.12 637.78 61.12L637.78 61.12Q639.36 61.12 640.08 61.37Q640.80 61.62 640.73 62.27L640.73 62.27L639.43 71.63Q639.36 72.50 639.11 72.75Q638.86 73 638.42 72.93L638.42 72.93Q635.04 72.50 632.88 72.50L632.88 72.50Q631.15 72.50 629.28 73.40Q627.41 74.30 626.08 75.66Q624.74 77.03 624.53 78.47L624.53 78.47L621.79 98.49Q621.65 99.50 621.25 99.75Q620.86 100 619.70 100L619.70 100L610.70 100ZM661.25 96.83Q659.30 98.78 656.35 99.75Q653.40 100.72 650.02 100.72L650.02 100.72Q644.98 100.72 642.13 98.06Q639.29 95.39 639.29 91.22L639.29 91.22Q639.29 86.03 642.82 82.72Q646.34 79.41 651.64 77.90Q656.93 76.38 662.54 76.31L662.54 76.31L663.98 76.24Q665.35 76.24 665.57 74.87L665.57 74.87L665.78 73.50Q665.93 72.64 665.93 72.35L665.93 72.35Q665.93 68.90 661.82 68.90L661.82 68.90Q656.64 68.90 654.34 72.86L654.34 72.86Q653.98 73.43 653.40 73.43L653.40 73.43Q652.97 73.43 652.68 73.36L652.68 73.36L644.54 71.63Q643.68 71.49 643.68 70.48L643.68 70.48Q643.68 69.69 644.04 68.90L644.04 68.90Q648.50 61.12 662.47 61.12L662.47 61.12Q678.17 61.12 678.17 71.34L678.17 71.34Q678.17 71.99 678.02 73.43L678.02 73.43L674.50 98.63Q674.35 99.64 674.14 99.82Q673.92 100 672.98 100L672.98 100L664.34 100Q663.55 100 663.30 99.53Q663.05 99.06 662.90 97.91L662.90 97.91L662.90 96.54Q662.90 95.90 662.54 95.90L662.54 95.90Q662.11 95.90 661.25 96.83L661.25 96.83ZM663.84 87.33L664.42 83.08Q664.49 82.79 664.49 82.43L664.49 82.43Q664.49 82.14 663.77 82.22L663.77 82.22L662.04 82.36Q658.44 82.58 655.20 84.23Q651.96 85.89 651.96 89.20L651.96 89.20Q651.96 90.64 653.00 91.58Q654.05 92.51 655.85 92.51L655.85 92.51Q657.58 92.51 659.05 92.04Q660.53 91.58 661.39 90.78L661.39 90.78Q663.62 88.91 663.84 87.33L663.84 87.33ZM703.37 100L697.39 100Q696.38 100 695.95 99.42Q695.52 98.85 695.66 97.91L695.66 97.91L702.72 47.73Q702.79 47.01 703.04 46.79Q703.30 46.58 703.87 46.58L703.87 46.58L714.74 46.58Q715.46 46.58 715.46 47.58L715.46 47.58Q715.46 48.09 715.39 48.38L715.39 48.38L713.16 64.22L713.16 64.50Q713.16 64.94 713.45 64.94L713.45 64.94Q713.66 64.94 714.24 64.50L714.24 64.50Q718.85 61.12 724.03 61.12L724.03 61.12Q730.30 61.12 733.64 65.19Q736.99 69.26 736.99 76.46L736.99 76.46Q736.99 82.50 734.98 88.05Q732.96 93.59 728.68 97.16Q724.39 100.72 718.06 100.72L718.06 100.72Q714.67 100.72 711.94 99.10Q709.20 97.48 707.54 94.74L707.54 94.74Q707.33 94.38 707.04 94.38L707.04 94.38Q706.54 94.38 706.25 95.32L706.25 95.32L705.10 98.56Q704.81 99.42 704.45 99.71Q704.09 100 703.37 100L703.37 100ZM712.15 72.64L709.99 87.11Q709.92 87.54 709.92 88.34L709.92 88.34Q709.92 90.64 711.25 91.86Q712.58 93.09 714.74 93.09L714.74 93.09Q718.13 93.09 720.25 90.17Q722.38 87.26 723.28 83.22Q724.18 79.19 724.18 75.59L724.18 75.59Q724.18 72.06 723.02 70.55Q721.87 69.04 719.42 69.04L719.42 69.04Q715.61 69.04 712.15 72.64L712.15 72.64ZM757.94 100.72Q752.69 100.72 748.73 98.60Q744.77 96.47 742.61 92.62Q740.45 88.77 740.45 83.73L740.45 83.73Q740.45 77.18 743.47 72.03Q746.50 66.88 751.57 64.00Q756.65 61.12 762.62 61.12L762.62 61.12Q767.95 61.12 771.91 63.32Q775.87 65.51 778.00 69.44Q780.12 73.36 780.12 78.40L780.12 78.40Q780.12 84.74 777.20 89.81Q774.29 94.89 769.21 97.80Q764.14 100.72 757.94 100.72L757.94 100.72ZM758.16 92.37Q760.82 92.37 762.95 90.50Q765.07 88.62 766.30 84.88Q767.52 81.14 767.52 75.81L767.52 75.81Q767.52 69.18 762.48 69.18L762.48 69.18Q759.89 69.18 757.76 71.09Q755.64 73 754.38 76.78Q753.12 80.56 753.12 85.89L753.12 85.89Q753.12 92.37 758.16 92.37L758.16 92.37ZM802.87 48.02L795.74 98.49Q795.67 99.50 795.24 99.75Q794.81 100 793.66 100L793.66 100L784.66 100Q783.72 100 783.25 99.42Q782.78 98.85 782.93 97.98L782.93 97.98L790.27 47.73Q790.34 47.01 790.60 46.79Q790.85 46.58 791.42 46.58L791.42 46.58L802.01 46.58Q803.09 46.58 802.87 48.02L802.87 48.02ZM837.86 100L829.01 100Q827.14 100 827.42 98.56L827.42 98.56L827.71 96.90L827.71 96.62Q827.71 96.18 827.42 96.18L827.42 96.18Q827.21 96.18 826.63 96.62L826.63 96.62Q824.33 98.56 821.81 99.64Q819.29 100.72 816.12 100.72L816.12 100.72Q810.29 100.72 806.87 96.76Q803.45 92.80 803.45 85.46L803.45 85.46Q803.45 79.12 805.75 73.50Q808.06 67.89 812.20 64.50Q816.34 61.12 821.52 61.12L821.52 61.12Q824.33 61.12 826.34 62.16Q828.36 63.21 830.09 65.37L830.09 65.37Q830.52 65.94 830.95 65.94L830.95 65.94Q831.74 65.94 832.03 63.93L832.03 63.93L834.34 47.80Q834.41 47.08 834.80 46.83Q835.20 46.58 835.85 46.58L835.85 46.58L846.14 46.58Q847.01 46.58 847.01 47.66L847.01 47.66Q847.01 48.16 846.94 48.45L846.94 48.45L839.88 98.56Q839.74 99.35 839.34 99.68Q838.94 100 837.86 100L837.86 100ZM828.72 87.04L831.02 72.06Q829.87 70.55 828.68 69.87Q827.50 69.18 825.77 69.18L825.77 69.18Q822.31 69.18 820.19 71.96Q818.06 74.73 817.13 78.65Q816.19 82.58 816.19 86.10L816.19 86.10Q816.19 89.70 817.52 91.29Q818.86 92.87 821.38 92.87L821.38 92.87Q824.04 92.87 826.20 91.07Q828.36 89.27 828.72 87.04L828.72 87.04ZM881.35 48.38L880.27 56.37Q880.13 57.38 879.70 57.66Q879.26 57.95 878.04 57.95L878.04 57.95L868.39 57.95Q867.31 57.95 867.31 56.58L867.31 56.58Q867.31 56.08 867.38 55.86L867.38 55.86L868.54 48.09Q868.75 46.58 869.90 46.58L869.90 46.58L880.63 46.58Q881.42 46.58 881.42 47.80L881.42 47.80L881.35 48.38ZM879.19 63.57L874.30 98.49Q874.15 99.50 873.76 99.75Q873.36 100 872.14 100L872.14 100L863.21 100Q862.27 100 861.84 99.46Q861.41 98.92 861.48 97.98L861.48 97.98L866.45 62.99Q866.52 62.27 866.77 62.06Q867.02 61.84 867.67 61.84L867.67 61.84L878.40 61.84Q879.34 61.84 879.19 63.57L879.19 63.57ZM897.26 100Q892.44 100 889.52 97.77Q886.61 95.54 886.61 91.72L886.61 91.72Q886.61 90.78 886.68 90.21L886.68 90.21L889.42 71.49L889.42 71.42Q889.42 70.98 889.06 70.77Q888.70 70.55 888.12 70.55L888.12 70.55L884.09 70.55Q883.22 70.55 883.22 69.47L883.22 69.47Q883.22 69.04 883.30 68.75L883.30 68.75L884.09 62.70Q884.16 62.13 884.41 61.98Q884.66 61.84 885.38 61.84L885.38 61.84L889.99 61.84Q890.42 61.84 890.75 61.48Q891.07 61.12 891.22 60.62L891.22 60.62L893.88 49.82Q894.02 49.31 894.35 49.10Q894.67 48.88 895.32 48.88L895.32 48.88L904.61 48.88Q905.54 48.88 905.54 50.03L905.54 50.03Q905.54 50.46 905.47 50.75L905.47 50.75L903.96 60.90L903.96 61.05Q903.96 61.34 904.18 61.55Q904.39 61.77 904.75 61.77L904.75 61.77L911.59 61.77Q913.25 61.77 913.03 62.92L913.03 62.92L912.10 69.54Q912.02 70.19 911.70 70.37Q911.38 70.55 910.58 70.55L910.58 70.55L903.38 70.55Q902.38 70.55 902.16 71.85L902.16 71.85L899.93 87.33Q899.86 87.76 899.86 88.41L899.86 88.41Q899.86 89.92 900.83 90.53Q901.80 91.14 904.10 91.14L904.10 91.14L907.56 91.14Q908.06 91.14 908.46 91.68Q908.86 92.22 908.78 92.87L908.78 92.87L907.99 97.98Q907.78 99.57 906.41 99.64L906.41 99.64Q902.95 100 897.26 100L897.26 100ZM934.63 96.83Q932.69 98.78 929.74 99.75Q926.78 100.72 923.40 100.72L923.40 100.72Q918.36 100.72 915.52 98.06Q912.67 95.39 912.67 91.22L912.67 91.22Q912.67 86.03 916.20 82.72Q919.73 79.41 925.02 77.90Q930.31 76.38 935.93 76.31L935.93 76.31L937.37 76.24Q938.74 76.24 938.95 74.87L938.95 74.87L939.17 73.50Q939.31 72.64 939.31 72.35L939.31 72.35Q939.31 68.90 935.21 68.90L935.21 68.90Q930.02 68.90 927.72 72.86L927.72 72.86Q927.36 73.43 926.78 73.43L926.78 73.43Q926.35 73.43 926.06 73.36L926.06 73.36L917.93 71.63Q917.06 71.49 917.06 70.48L917.06 70.48Q917.06 69.69 917.42 68.90L917.42 68.90Q921.89 61.12 935.86 61.12L935.86 61.12Q951.55 61.12 951.55 71.34L951.55 71.34Q951.55 71.99 951.41 73.43L951.41 73.43L947.88 98.63Q947.74 99.64 947.52 99.82Q947.30 100 946.37 100L946.37 100L937.73 100Q936.94 100 936.68 99.53Q936.43 99.06 936.29 97.91L936.29 97.91L936.29 96.54Q936.29 95.90 935.93 95.90L935.93 95.90Q935.50 95.90 934.63 96.83L934.63 96.83ZM937.22 87.33L937.80 83.08Q937.87 82.79 937.87 82.43L937.87 82.43Q937.87 82.14 937.15 82.22L937.15 82.22L935.42 82.36Q931.82 82.58 928.58 84.23Q925.34 85.89 925.34 89.20L925.34 89.20Q925.34 90.64 926.39 91.58Q927.43 92.51 929.23 92.51L929.23 92.51Q930.96 92.51 932.44 92.04Q933.91 91.58 934.78 90.78L934.78 90.78Q937.01 88.91 937.22 87.33L937.22 87.33ZM974.30 48.02L967.18 98.49Q967.10 99.50 966.67 99.75Q966.24 100 965.09 100L965.09 100L956.09 100Q955.15 100 954.68 99.42Q954.22 98.85 954.36 97.98L954.36 97.98L961.70 47.73Q961.78 47.01 962.03 46.79Q962.28 46.58 962.86 46.58L962.86 46.58L973.44 46.58Q974.52 46.58 974.30 48.02L974.30 48.02ZM994.03 48.38L992.95 56.37Q992.81 57.38 992.38 57.66Q991.94 57.95 990.72 57.95L990.72 57.95L981.07 57.95Q979.99 57.95 979.99 56.58L979.99 56.58Q979.99 56.08 980.06 55.86L980.06 55.86L981.22 48.09Q981.43 46.58 982.58 46.58L982.58 46.58L993.31 46.58Q994.10 46.58 994.10 47.80L994.10 47.80L994.03 48.38ZM991.87 63.57L986.98 98.49Q986.83 99.50 986.44 99.75Q986.04 100 984.82 100L984.82 100L975.89 100Q974.95 100 974.52 99.46Q974.09 98.92 974.16 97.98L974.16 97.98L979.13 62.99Q979.20 62.27 979.45 62.06Q979.70 61.84 980.35 61.84L980.35 61.84L991.08 61.84Q992.02 61.84 991.87 63.57L991.87 63.57ZM1016.64 61.12Q1021.39 61.12 1024.74 62.92Q1028.09 64.72 1029.85 67.53Q1031.62 70.34 1031.90 73.43L1031.90 73.43L1031.90 73.65Q1031.90 74.15 1031.65 74.30Q1031.40 74.44 1030.68 74.51L1030.68 74.51L1022.26 75.09L1022.11 75.09Q1021.46 75.09 1021.18 73.43L1021.18 73.43Q1020.53 71.34 1019.77 70.34Q1019.02 69.33 1016.86 69.33L1016.86 69.33Q1013.54 69.33 1011.38 71.92Q1009.22 74.51 1008.25 78.22Q1007.28 81.93 1007.28 85.31L1007.28 85.31Q1007.28 89.13 1008.79 90.89Q1010.30 92.66 1013.18 92.66L1013.18 92.66Q1016.35 92.66 1018.26 91.29Q1020.17 89.92 1022.18 86.68L1022.18 86.68Q1022.40 86.39 1022.69 86.39L1022.69 86.39Q1023.12 86.39 1023.41 86.46L1023.41 86.46L1029.31 87.76Q1029.67 87.83 1029.92 88.12Q1030.18 88.41 1030.18 88.91L1030.18 88.91Q1030.18 89.34 1029.96 89.92L1029.96 89.92Q1028.95 92.15 1026.68 94.64Q1024.42 97.12 1020.67 98.92Q1016.93 100.72 1012.03 100.72L1012.03 100.72Q1006.85 100.72 1002.89 98.60Q998.93 96.47 996.77 92.58Q994.61 88.70 994.61 83.66L994.61 83.66Q994.61 77.61 997.38 72.46Q1000.15 67.31 1005.19 64.22Q1010.23 61.12 1016.64 61.12L1016.64 61.12Z"/></svg>