<svg xmlns="http://www.w3.org/2000/svg" viewBox="0.79 -7.42 63.440000000000005 7.52"><path d="M0.79-7.25Q0.79-7.42 0.94-7.42L0.94-7.42L2.13-7.42Q2.27-7.42 2.27-7.26L2.27-7.26L2.27-1.22Q2.27-1.15 2.29-1.13Q2.32-1.10 2.38-1.10L2.38-1.10L5.66-1.10Q5.82-1.10 5.82-0.96L5.82-0.96L5.82-0.15Q5.82-0.09 5.78-0.04Q5.74 0 5.65 0L5.65 0L0.98 0Q0.87 0 0.83-0.04Q0.79-0.09 0.79-0.18L0.79-0.18L0.79-7.25ZM8.14-7.25L8.14-6.28Q8.14-6.16 8.09-6.11Q8.03-6.05 7.90-6.05L7.90-6.05L6.99-6.05Q6.88-6.05 6.84-6.10Q6.80-6.15 6.80-6.25L6.80-6.25L6.80-7.23Q6.80-7.42 6.96-7.42L6.96-7.42L7.99-7.42Q8.06-7.42 8.10-7.38Q8.14-7.33 8.14-7.25L8.14-7.25ZM8.12-5.14L8.12-0.22Q8.12-0.10 8.07-0.05Q8.01 0 7.88 0L7.88 0L7.01 0Q6.90 0 6.86-0.04Q6.82-0.08 6.82-0.18L6.82-0.18L6.82-5.13Q6.82-5.30 6.97-5.30L6.97-5.30L7.98-5.30Q8.12-5.30 8.12-5.14L8.12-5.14ZM10.12 0L9.58 0Q9.47 0 9.43-0.04Q9.38-0.09 9.38-0.20L9.38-0.20L9.38-7.25Q9.38-7.42 9.53-7.42L9.53-7.42L10.54-7.42Q10.68-7.42 10.68-7.25L10.68-7.25L10.68-4.88Q10.68-4.76 10.74-4.76L10.74-4.76Q10.77-4.76 10.84-4.81L10.84-4.81Q11.48-5.40 12.31-5.40L12.31-5.40Q13.33-5.40 13.88-4.66Q14.42-3.91 14.42-2.68L14.42-2.68Q14.42-1.39 13.82-0.65Q13.22 0.10 12.14 0.10L12.14 0.10Q11.60 0.10 11.20-0.14Q10.80-0.37 10.54-0.70L10.54-0.70Q10.51-0.75 10.48-0.75L10.48-0.75Q10.45-0.75 10.43-0.67L10.43-0.67L10.33-0.19Q10.31-0.09 10.26-0.04Q10.21 0 10.12 0L10.12 0ZM10.68-3.94L10.68-1.82Q10.68-1.35 11.02-1.03Q11.36-0.72 11.82-0.72L11.82-0.72Q12.41-0.72 12.75-1.20Q13.09-1.67 13.09-2.66L13.09-2.66Q13.09-4.55 11.87-4.55L11.87-4.55Q11.52-4.55 11.21-4.38Q10.91-4.22 10.68-3.94L10.68-3.94ZM15.62 0Q15.44 0 15.44-0.18L15.44-0.18L15.44-5.13Q15.44-5.30 15.58-5.30L15.58-5.30L16.55-5.30Q16.69-5.30 16.69-5.15L16.69-5.15L16.69-4.54Q16.69-4.46 16.74-4.46L16.74-4.46Q16.77-4.46 16.82-4.51L16.82-4.51Q17.15-4.93 17.55-5.17Q17.95-5.40 18.33-5.40L18.33-5.40Q18.69-5.40 18.69-5.24L18.69-5.24L18.69-4.28Q18.69-4.14 18.56-4.16L18.56-4.16Q18.28-4.23 17.94-4.23L17.94-4.23Q17.68-4.23 17.39-4.09Q17.11-3.95 16.93-3.73Q16.74-3.50 16.74-3.26L16.74-3.26L16.74-0.20Q16.74 0 16.51 0L16.51 0L15.62 0ZM20.48-2.24Q20.48-1.83 20.67-1.51Q20.86-1.18 21.20-0.99Q21.53-0.81 21.93-0.81L21.93-0.81Q22.34-0.81 22.68-0.98Q23.01-1.16 23.31-1.53L23.31-1.53Q23.36-1.58 23.39-1.58L23.39-1.58Q23.42-1.58 23.48-1.55L23.48-1.55L24.09-1.28Q24.16-1.25 24.16-1.19L24.16-1.19Q24.16-1.16 24.12-1.10L24.12-1.10Q23.67-0.45 23.13-0.18Q22.58 0.10 21.78 0.10L21.78 0.10Q21.02 0.10 20.42-0.24Q19.81-0.58 19.47-1.19Q19.13-1.80 19.13-2.58L19.13-2.58Q19.13-3.42 19.48-4.06Q19.83-4.70 20.43-5.05Q21.03-5.40 21.76-5.40L21.76-5.40Q22.51-5.40 23.09-5.07Q23.66-4.74 23.98-4.12Q24.29-3.49 24.29-2.63L24.29-2.63L24.29-2.59Q24.29-2.49 24.26-2.45Q24.23-2.41 24.13-2.40L24.13-2.40L20.59-2.40Q20.48-2.40 20.48-2.24L20.48-2.24ZM20.50-3.14L22.85-3.14Q22.95-3.14 22.99-3.17Q23.02-3.19 23.02-3.28L23.02-3.28Q23.02-3.60 22.88-3.90Q22.74-4.20 22.47-4.39Q22.19-4.58 21.81-4.58L21.81-4.58Q21.22-4.58 20.86-4.17Q20.49-3.75 20.50-3.14L20.50-3.14ZM27.49-7.25Q27.49-7.42 27.64-7.42L27.64-7.42L32.41-7.42Q32.54-7.42 32.54-7.27L32.54-7.27L32.53-6.51Q32.53-6.32 32.36-6.32L32.36-6.32L29.14-6.32Q28.97-6.32 28.97-6.18L28.97-6.18L28.97-4.32Q28.97-4.17 29.11-4.17L29.11-4.17L31.45-4.17Q31.59-4.17 31.59-4.03L31.59-4.03L31.59-3.23Q31.59-3.17 31.56-3.14Q31.53-3.11 31.45-3.11L31.45-3.11L29.10-3.11Q28.97-3.11 28.97-2.98L28.97-2.98L28.97-0.19Q28.97-0.09 28.92-0.04Q28.86 0 28.75 0L28.75 0L27.68 0Q27.57 0 27.53-0.04Q27.49-0.08 27.49-0.18L27.49-0.18L27.49-7.25ZM33.11 0Q32.93 0 32.93-0.18L32.93-0.18L32.93-5.13Q32.93-5.30 33.07-5.30L33.07-5.30L34.04-5.30Q34.18-5.30 34.18-5.15L34.18-5.15L34.18-4.54Q34.18-4.46 34.23-4.46L34.23-4.46Q34.26-4.46 34.31-4.51L34.31-4.51Q34.64-4.93 35.04-5.17Q35.44-5.40 35.82-5.40L35.82-5.40Q36.18-5.40 36.18-5.24L36.18-5.24L36.18-4.28Q36.18-4.14 36.05-4.16L36.05-4.16Q35.77-4.23 35.43-4.23L35.43-4.23Q35.17-4.23 34.89-4.09Q34.60-3.95 34.42-3.73Q34.23-3.50 34.23-3.26L34.23-3.26L34.23-0.20Q34.23 0 34.00 0L34.00 0L33.11 0ZM39.95-0.55Q39.25 0.10 38.31 0.10L38.31 0.10Q37.55 0.10 37.11-0.30Q36.66-0.71 36.66-1.36L36.66-1.36Q36.66-2.19 37.40-2.68Q38.14-3.17 39.47-3.22L39.47-3.22L39.97-3.25Q40.13-3.27 40.13-3.40L40.13-3.40L40.13-3.63Q40.13-4.07 39.87-4.32Q39.60-4.56 39.14-4.56L39.14-4.56Q38.38-4.56 37.97-3.90L37.97-3.90Q37.94-3.86 37.91-3.83Q37.89-3.81 37.85-3.81L37.85-3.81Q37.80-3.81 37.77-3.82L37.77-3.82L36.93-4.03Q36.85-4.05 36.85-4.12L36.85-4.12Q36.85-4.17 36.89-4.25L36.89-4.25Q37.15-4.81 37.75-5.11Q38.34-5.40 39.20-5.40L39.20-5.40Q40.32-5.40 40.84-4.96Q41.37-4.52 41.37-3.72L41.37-3.72L41.37-0.20Q41.37-0.09 41.34-0.04Q41.30 0 41.20 0L41.20 0L40.35 0Q40.26 0 40.22-0.06Q40.18-0.12 40.16-0.24L40.16-0.24L40.15-0.54Q40.14-0.63 40.08-0.63L40.08-0.63Q40.05-0.63 39.95-0.55L39.95-0.55ZM40.13-2.42Q40.13-2.51 40.09-2.55Q40.06-2.59 39.98-2.59L39.98-2.59L39.57-2.56Q38.87-2.51 38.41-2.25Q37.94-1.98 37.94-1.52L37.94-1.52Q37.94-1.18 38.19-0.98Q38.43-0.78 38.84-0.78L38.84-0.78Q39.36-0.78 39.75-1.10L39.75-1.10Q40.13-1.40 40.13-1.71L40.13-1.71L40.13-2.42ZM42.74 0Q42.64 0 42.60-0.04Q42.56-0.08 42.56-0.18L42.56-0.18L42.56-5.13Q42.56-5.30 42.70-5.30L42.70-5.30L43.70-5.30Q43.83-5.30 43.83-5.15L43.83-5.15L43.83-4.63Q43.83-4.57 43.86-4.56Q43.89-4.55 43.94-4.59L43.94-4.59Q44.41-5 44.81-5.20Q45.22-5.40 45.69-5.40L45.69-5.40Q46.43-5.40 46.85-4.98Q47.28-4.55 47.28-3.85L47.28-3.85L47.28-0.21Q47.28 0 47.07 0L47.07 0L46.15 0Q46.05 0 46.02-0.04Q45.98-0.08 45.98-0.18L45.98-0.18L45.98-3.62Q45.98-4.01 45.77-4.22Q45.55-4.44 45.14-4.44L45.14-4.44Q44.79-4.44 44.51-4.28Q44.22-4.12 43.86-3.76L43.86-3.76L43.86-0.20Q43.86-0.09 43.81-0.04Q43.76 0 43.63 0L43.63 0L42.74 0ZM53.51-0.21Q53.54-0.17 53.54-0.12L53.54-0.12Q53.54 0 53.39 0L53.39 0L52.29 0Q52.13 0 52.05-0.18L52.05-0.18L50.85-2.42Q50.82-2.50 50.78-2.50L50.78-2.50Q50.75-2.50 50.70-2.45L50.70-2.45L49.87-1.63Q49.78-1.56 49.78-1.40L49.78-1.40L49.78-0.22Q49.78-0.09 49.73-0.04Q49.68 0 49.55 0L49.55 0L48.68 0Q48.57 0 48.52-0.04Q48.48-0.08 48.48-0.18L48.48-0.18L48.48-7.25Q48.48-7.42 48.63-7.42L48.63-7.42L49.64-7.42Q49.78-7.42 49.78-7.26L49.78-7.26L49.78-2.97Q49.78-2.89 49.82-2.89L49.82-2.89Q49.86-2.89 49.90-2.94L49.90-2.94L51.98-5.16Q52.12-5.30 52.23-5.30L52.23-5.30L53.14-5.30Q53.29-5.30 53.29-5.20L53.29-5.20Q53.29-5.15 53.23-5.07L53.23-5.07L51.76-3.59Q51.71-3.52 51.71-3.47L51.71-3.47Q51.71-3.42 51.75-3.34L51.75-3.34L53.51-0.21ZM55.68-7.26L55.68-0.22Q55.68-0.09 55.63-0.04Q55.58 0 55.45 0L55.45 0L54.57 0Q54.46 0 54.41-0.04Q54.37-0.08 54.37-0.18L54.37-0.18L54.40-7.25Q54.40-7.42 54.55-7.42L54.55-7.42L55.54-7.42Q55.68-7.42 55.68-7.26L55.68-7.26ZM58.27-7.25L58.27-6.28Q58.27-6.16 58.22-6.11Q58.16-6.05 58.03-6.05L58.03-6.05L57.12-6.05Q57.01-6.05 56.97-6.10Q56.93-6.15 56.93-6.25L56.93-6.25L56.93-7.23Q56.93-7.42 57.09-7.42L57.09-7.42L58.12-7.42Q58.19-7.42 58.23-7.38Q58.27-7.33 58.27-7.25L58.27-7.25ZM58.25-5.14L58.25-0.22Q58.25-0.10 58.20-0.05Q58.14 0 58.01 0L58.01 0L57.14 0Q57.03 0 56.99-0.04Q56.95-0.08 56.95-0.18L56.95-0.18L56.95-5.13Q56.95-5.30 57.10-5.30L57.10-5.30L58.11-5.30Q58.25-5.30 58.25-5.14L58.25-5.14ZM59.69 0Q59.59 0 59.55-0.04Q59.51-0.08 59.51-0.18L59.51-0.18L59.51-5.13Q59.51-5.30 59.65-5.30L59.65-5.30L60.65-5.30Q60.78-5.30 60.78-5.15L60.78-5.15L60.78-4.63Q60.78-4.57 60.81-4.56Q60.84-4.55 60.89-4.59L60.89-4.59Q61.36-5 61.77-5.20Q62.17-5.40 62.64-5.40L62.64-5.40Q63.38-5.40 63.80-4.98Q64.23-4.55 64.23-3.85L64.23-3.85L64.23-0.21Q64.23 0 64.02 0L64.02 0L63.10 0Q63 0 62.97-0.04Q62.93-0.08 62.93-0.18L62.93-0.18L62.93-3.62Q62.93-4.01 62.72-4.22Q62.50-4.44 62.09-4.44L62.09-4.44Q61.74-4.44 61.46-4.28Q61.17-4.12 60.81-3.76L60.81-3.76L60.81-0.20Q60.81-0.09 60.76-0.04Q60.71 0 60.58 0L60.58 0L59.69 0Z"/></svg>