<svg xmlns="http://www.w3.org/2000/svg" viewBox="3.7440000000000007 46.57599999999999 688.3919999999999 54.144000000000005"><path d="M3.74 48.23Q3.74 47.44 4.10 47.01Q4.46 46.58 5.11 46.58L5.11 46.58L18.79 46.58Q20.09 46.58 20.09 48.09L20.09 48.09L20.09 87.18Q20.09 87.76 20.27 87.98Q20.45 88.19 20.95 88.19L20.95 88.19L42.62 88.19Q44.28 88.19 44.28 89.56L44.28 89.56L44.28 98.42Q44.28 99.14 43.81 99.57Q43.34 100 42.48 100L42.48 100L5.69 100Q4.61 100 4.18 99.57Q3.74 99.14 3.74 98.20L3.74 98.20L3.74 48.23ZM63.65 48.09L63.65 56.58Q63.65 57.66 63.07 58.17Q62.50 58.67 61.27 58.67L61.27 58.67L51.12 58.67Q50.11 58.67 49.68 58.20Q49.25 57.74 49.25 56.80L49.25 56.80L49.25 48.23Q49.25 46.58 50.62 46.58L50.62 46.58L62.35 46.58Q62.93 46.58 63.29 46.97Q63.65 47.37 63.65 48.09L63.65 48.09ZM63.65 63.28L63.65 97.91Q63.65 99.06 63.07 99.53Q62.50 100 61.27 100L61.27 100L51.12 100Q50.04 100 49.64 99.57Q49.25 99.14 49.25 98.20L49.25 98.20L49.25 63.50Q49.25 61.84 50.62 61.84L50.62 61.84L62.35 61.84Q62.93 61.84 63.29 62.24Q63.65 62.63 63.65 63.28L63.65 63.28ZM77.76 100L71.50 100Q70.42 100 69.98 99.57Q69.55 99.14 69.55 98.20L69.55 98.20L69.55 48.23Q69.55 47.44 69.91 47.01Q70.27 46.58 70.92 46.58L70.92 46.58L82.66 46.58Q83.95 46.58 83.95 48.09L83.95 48.09L83.95 64.29Q83.95 65.22 84.53 65.22L84.53 65.22Q84.82 65.22 85.32 64.86L85.32 64.86Q87.41 62.85 89.64 61.98Q91.87 61.12 94.46 61.12L94.46 61.12Q101.45 61.12 105.37 66.34Q109.30 71.56 109.30 80.63L109.30 80.63Q109.30 89.92 105.01 95.32Q100.73 100.72 92.95 100.72L92.95 100.72Q89.64 100.72 86.76 99.14Q83.88 97.55 81.72 94.74L81.72 94.74Q81.43 94.46 81.22 94.46L81.22 94.46Q81.00 94.46 80.78 94.96L80.78 94.96L79.63 98.34Q79.13 100 77.76 100L77.76 100ZM83.95 72.78L83.95 86.68Q83.95 89.34 85.36 90.82Q86.76 92.30 89.06 92.30L89.06 92.30Q91.94 92.30 93.35 89.67Q94.75 87.04 94.75 80.92L94.75 80.92Q94.75 74.87 93.38 72.39Q92.02 69.90 89.28 69.90L89.28 69.90Q86.26 69.90 83.95 72.78L83.95 72.78ZM115.78 100Q114.70 100 114.30 99.57Q113.90 99.14 113.90 98.20L113.90 98.20L113.90 63.50Q113.90 61.84 115.27 61.84L115.27 61.84L126.50 61.84Q127.08 61.84 127.44 62.24Q127.80 62.63 127.80 63.28L127.80 63.28L127.80 67.31Q127.80 67.96 128.30 67.96L128.30 67.96Q128.66 67.96 129.02 67.53L129.02 67.53Q130.75 64.86 133.85 62.99Q136.94 61.12 139.46 61.12L139.46 61.12Q142.13 61.12 142.13 62.56L142.13 62.56L142.13 73.50Q142.13 74.22 141.73 74.51Q141.34 74.80 140.69 74.66L140.69 74.66Q137.59 73.86 134.50 73.86L134.50 73.86Q132.12 73.86 130.21 75.38Q128.30 76.89 128.30 78.76L128.30 78.76L128.30 97.91Q128.30 99.06 127.73 99.53Q127.15 100 125.93 100L125.93 100L115.78 100ZM158.54 84.74Q158.54 87.90 160.60 89.56Q162.65 91.22 165.96 91.22L165.96 91.22Q167.90 91.22 169.70 90.32Q171.50 89.42 173.81 87.18L173.81 87.18Q174.10 86.90 174.38 86.90L174.38 86.90Q174.67 86.90 175.32 87.11L175.32 87.11L181.87 89.78Q182.52 89.99 182.52 90.64L182.52 90.64Q182.52 91.07 182.16 91.50L182.16 91.50Q178.42 96.76 174.35 98.74Q170.28 100.72 164.02 100.72L164.02 100.72Q158.33 100.72 153.68 98.27Q149.04 95.82 146.38 91.47Q143.71 87.11 143.71 81.57L143.71 81.57Q143.71 75.59 146.45 70.95Q149.18 66.30 153.79 63.71Q158.40 61.12 163.73 61.12L163.73 61.12Q169.42 61.12 173.84 63.57Q178.27 66.02 180.79 70.66Q183.31 75.30 183.31 81.71L183.31 81.71Q183.31 82.72 183.10 83.08Q182.88 83.44 182.02 83.51L182.02 83.51L159.62 83.51Q158.54 83.51 158.54 84.74L158.54 84.74ZM158.76 76.02L168.12 76.10Q168.84 76.10 169.09 75.92Q169.34 75.74 169.34 75.09L169.34 75.09Q169.34 73.29 168.05 71.42Q166.75 69.54 164.38 69.54L164.38 69.54Q162.00 69.54 160.34 71.20Q158.69 72.86 158.76 76.02L158.76 76.02ZM202.82 48.23Q202.82 47.44 203.18 47.01Q203.54 46.58 204.19 46.58L204.19 46.58L242.57 46.58Q243.86 46.58 243.86 48.09L243.86 48.09L243.79 56.44Q243.79 58.38 241.99 58.38L241.99 58.38L220.82 58.38Q219.17 58.38 219.17 59.75L219.17 59.75L219.17 66.52Q219.17 67.96 220.46 67.96L220.46 67.96L233.64 67.96Q235.08 67.96 235.08 69.40L235.08 69.40L235.08 78.18Q235.08 79.41 233.78 79.41L233.78 79.41L220.32 79.41Q219.82 79.41 219.49 79.70Q219.17 79.98 219.17 80.49L219.17 80.49L219.17 97.91Q219.17 99.06 218.59 99.53Q218.02 100 216.79 100L216.79 100L204.77 100Q203.69 100 203.26 99.57Q202.82 99.14 202.82 98.20L202.82 98.20L202.82 48.23ZM245.66 100Q244.58 100 244.19 99.57Q243.79 99.14 243.79 98.20L243.79 98.20L243.79 63.50Q243.79 61.84 245.16 61.84L245.16 61.84L256.39 61.84Q256.97 61.84 257.33 62.24Q257.69 62.63 257.69 63.28L257.69 63.28L257.69 67.31Q257.69 67.96 258.19 67.96L258.19 67.96Q258.55 67.96 258.91 67.53L258.91 67.53Q260.64 64.86 263.74 62.99Q266.83 61.12 269.35 61.12L269.35 61.12Q272.02 61.12 272.02 62.56L272.02 62.56L272.02 73.50Q272.02 74.22 271.62 74.51Q271.22 74.80 270.58 74.66L270.58 74.66Q267.48 73.86 264.38 73.86L264.38 73.86Q262.01 73.86 260.10 75.38Q258.19 76.89 258.19 78.76L258.19 78.76L258.19 97.91Q258.19 99.06 257.62 99.53Q257.04 100 255.82 100L255.82 100L245.66 100ZM296.06 96.98Q291.60 100.72 285.62 100.72L285.62 100.72Q280.37 100.72 277.24 97.77Q274.10 94.82 274.10 90.21L274.10 90.21Q274.10 86.03 276.80 82.83Q279.50 79.62 284.51 77.86Q289.51 76.10 296.21 76.10L296.21 76.10L296.71 76.10Q297.79 76.10 297.79 75.09L297.79 75.09L297.79 73.86Q297.79 69.69 293.54 69.69L293.54 69.69Q291.82 69.69 290.30 70.48Q288.79 71.27 287.93 73.07L287.93 73.07Q287.71 73.58 287.46 73.76Q287.21 73.94 286.78 73.94L286.78 73.94Q286.27 73.94 285.98 73.86L285.98 73.86L276.55 71.99Q275.76 71.85 275.76 71.06L275.76 71.06Q275.76 70.55 276.05 69.69L276.05 69.69Q279.07 61.12 294.19 61.12L294.19 61.12Q303.62 61.12 307.55 64.22Q311.47 67.31 311.47 73L311.47 73L311.47 98.06Q311.47 99.14 311.15 99.57Q310.82 100 309.82 100L309.82 100L299.95 100Q299.09 100 298.69 99.35Q298.30 98.70 298.08 97.48L298.08 97.48L298.01 96.98Q297.94 96.26 297.43 96.26L297.43 96.26Q296.86 96.26 296.06 96.98L296.06 96.98ZM297.79 83.87Q297.79 83.15 297.58 82.86Q297.36 82.58 296.71 82.58L296.71 82.58L296.42 82.58Q295.06 82.58 293.08 83.22Q291.10 83.87 289.58 85.13Q288.07 86.39 288.07 88.26L288.07 88.26Q288.07 89.78 289.15 90.71Q290.23 91.65 292.18 91.65L292.18 91.65Q294.48 91.65 296.14 90.28L296.14 90.28Q297.79 88.91 297.79 87.69L297.79 87.69L297.79 83.87ZM318.89 100Q317.88 100 317.45 99.60Q317.02 99.21 317.02 98.20L317.02 98.20L317.02 63.50Q317.02 62.70 317.38 62.27Q317.74 61.84 318.38 61.84L318.38 61.84L329.98 61.84Q331.27 61.84 331.27 63.28L331.27 63.28L331.27 66.52Q331.27 67.10 331.63 67.10L331.63 67.10Q331.92 67.10 332.21 66.81L332.21 66.81Q334.58 64.14 337.54 62.63Q340.49 61.12 343.66 61.12L343.66 61.12Q348.70 61.12 351.83 64.29Q354.96 67.46 354.96 72.78L354.96 72.78L354.96 97.84Q354.96 100 352.80 100L352.80 100L342.22 100Q341.28 100 340.92 99.60Q340.56 99.21 340.56 98.20L340.56 98.20L340.56 74.73Q340.56 73.14 339.52 72.21Q338.47 71.27 336.74 71.27L336.74 71.27Q333.43 71.27 331.42 74.87L331.42 74.87L331.42 97.91Q331.42 99.06 330.88 99.53Q330.34 100 329.04 100L329.04 100L318.89 100ZM401.83 97.98L401.98 98.56Q401.98 99.14 401.58 99.57Q401.18 100 400.46 100L400.46 100L388.15 100Q386.57 100 385.78 98.13L385.78 98.13L380.59 85.74Q380.23 84.95 379.80 84.95L379.80 84.95Q379.51 84.95 379.08 85.38L379.08 85.38L375.62 88.62Q374.98 89.13 374.98 90.64L374.98 90.64L374.98 97.91Q374.98 99.06 374.44 99.53Q373.90 100 372.67 100L372.67 100L362.52 100Q361.44 100 361.01 99.57Q360.58 99.14 360.58 98.20L360.58 98.20L360.58 48.23Q360.58 47.44 360.94 47.01Q361.30 46.58 361.94 46.58L361.94 46.58L373.68 46.58Q374.98 46.58 374.98 48.09L374.98 48.09L374.98 75.09Q374.98 75.59 375.26 75.59L375.26 75.59Q375.55 75.59 375.84 75.23L375.84 75.23L386.64 63.06Q387.86 61.84 388.87 61.84L388.87 61.84L398.74 61.84Q399.46 61.84 399.85 62.13Q400.25 62.42 400.25 62.85L400.25 62.85Q400.25 63.42 399.74 63.93L399.74 63.93L390.46 73.22Q389.88 73.94 389.88 74.44L389.88 74.44Q389.88 74.87 390.31 75.74L390.31 75.74L401.83 97.98ZM420.41 48.09L420.41 97.91Q420.41 99.06 419.83 99.53Q419.26 100 418.03 100L418.03 100L407.81 100Q406.73 100 406.30 99.57Q405.86 99.14 405.86 98.20L405.86 98.20L406.22 48.23Q406.22 46.58 407.59 46.58L407.59 46.58L419.11 46.58Q419.69 46.58 420.05 46.97Q420.41 47.37 420.41 48.09L420.41 48.09ZM440.78 48.09L440.78 56.58Q440.78 57.66 440.21 58.17Q439.63 58.67 438.41 58.67L438.41 58.67L428.26 58.67Q427.25 58.67 426.82 58.20Q426.38 57.74 426.38 56.80L426.38 56.80L426.38 48.23Q426.38 46.58 427.75 46.58L427.75 46.58L439.49 46.58Q440.06 46.58 440.42 46.97Q440.78 47.37 440.78 48.09L440.78 48.09ZM440.78 63.28L440.78 97.91Q440.78 99.06 440.21 99.53Q439.63 100 438.41 100L438.41 100L428.26 100Q427.18 100 426.78 99.57Q426.38 99.14 426.38 98.20L426.38 98.20L426.38 63.50Q426.38 61.84 427.75 61.84L427.75 61.84L439.49 61.84Q440.06 61.84 440.42 62.24Q440.78 62.63 440.78 63.28L440.78 63.28ZM448.56 100Q447.55 100 447.12 99.60Q446.69 99.21 446.69 98.20L446.69 98.20L446.69 63.50Q446.69 62.70 447.05 62.27Q447.41 61.84 448.06 61.84L448.06 61.84L459.65 61.84Q460.94 61.84 460.94 63.28L460.94 63.28L460.94 66.52Q460.94 67.10 461.30 67.10L461.30 67.10Q461.59 67.10 461.88 66.81L461.88 66.81Q464.26 64.14 467.21 62.63Q470.16 61.12 473.33 61.12L473.33 61.12Q478.37 61.12 481.50 64.29Q484.63 67.46 484.63 72.78L484.63 72.78L484.63 97.84Q484.63 100 482.47 100L482.47 100L471.89 100Q470.95 100 470.59 99.60Q470.23 99.21 470.23 98.20L470.23 98.20L470.23 74.73Q470.23 73.14 469.19 72.21Q468.14 71.27 466.42 71.27L466.42 71.27Q463.10 71.27 461.09 74.87L461.09 74.87L461.09 97.91Q461.09 99.06 460.55 99.53Q460.01 100 458.71 100L458.71 100L448.56 100ZM512.78 100L506.52 100Q505.44 100 505.01 99.57Q504.58 99.14 504.58 98.20L504.58 98.20L504.58 48.23Q504.58 47.44 504.94 47.01Q505.30 46.58 505.94 46.58L505.94 46.58L517.68 46.58Q518.98 46.58 518.98 48.09L518.98 48.09L518.98 64.29Q518.98 65.22 519.55 65.22L519.55 65.22Q519.84 65.22 520.34 64.86L520.34 64.86Q522.43 62.85 524.66 61.98Q526.90 61.12 529.49 61.12L529.49 61.12Q536.47 61.12 540.40 66.34Q544.32 71.56 544.32 80.63L544.32 80.63Q544.32 89.92 540.04 95.32Q535.75 100.72 527.98 100.72L527.98 100.72Q524.66 100.72 521.78 99.14Q518.90 97.55 516.74 94.74L516.74 94.74Q516.46 94.46 516.24 94.46L516.24 94.46Q516.02 94.46 515.81 94.96L515.81 94.96L514.66 98.34Q514.15 100 512.78 100L512.78 100ZM518.98 72.78L518.98 86.68Q518.98 89.34 520.38 90.82Q521.78 92.30 524.09 92.30L524.09 92.30Q526.97 92.30 528.37 89.67Q529.78 87.04 529.78 80.92L529.78 80.92Q529.78 74.87 528.41 72.39Q527.04 69.90 524.30 69.90L524.30 69.90Q521.28 69.90 518.98 72.78L518.98 72.78ZM563.40 48.09L563.40 97.91Q563.40 99.06 562.82 99.53Q562.25 100 561.02 100L561.02 100L550.80 100Q549.72 100 549.29 99.57Q548.86 99.14 548.86 98.20L548.86 98.20L549.22 48.23Q549.22 46.58 550.58 46.58L550.58 46.58L562.10 46.58Q562.68 46.58 563.04 46.97Q563.40 47.37 563.40 48.09L563.40 48.09ZM589.68 96.98Q585.22 100.72 579.24 100.72L579.24 100.72Q573.98 100.72 570.85 97.77Q567.72 94.82 567.72 90.21L567.72 90.21Q567.72 86.03 570.42 82.83Q573.12 79.62 578.12 77.86Q583.13 76.10 589.82 76.10L589.82 76.10L590.33 76.10Q591.41 76.10 591.41 75.09L591.41 75.09L591.41 73.86Q591.41 69.69 587.16 69.69L587.16 69.69Q585.43 69.69 583.92 70.48Q582.41 71.27 581.54 73.07L581.54 73.07Q581.33 73.58 581.08 73.76Q580.82 73.94 580.39 73.94L580.39 73.94Q579.89 73.94 579.60 73.86L579.60 73.86L570.17 71.99Q569.38 71.85 569.38 71.06L569.38 71.06Q569.38 70.55 569.66 69.69L569.66 69.69Q572.69 61.12 587.81 61.12L587.81 61.12Q597.24 61.12 601.16 64.22Q605.09 67.31 605.09 73L605.09 73L605.09 98.06Q605.09 99.14 604.76 99.57Q604.44 100 603.43 100L603.43 100L593.57 100Q592.70 100 592.31 99.35Q591.91 98.70 591.70 97.48L591.70 97.48L591.62 96.98Q591.55 96.26 591.05 96.26L591.05 96.26Q590.47 96.26 589.68 96.98L589.68 96.98ZM591.41 83.87Q591.41 83.15 591.19 82.86Q590.98 82.58 590.33 82.58L590.33 82.58L590.04 82.58Q588.67 82.58 586.69 83.22Q584.71 83.87 583.20 85.13Q581.69 86.39 581.69 88.26L581.69 88.26Q581.69 89.78 582.77 90.71Q583.85 91.65 585.79 91.65L585.79 91.65Q588.10 91.65 589.75 90.28L589.75 90.28Q591.41 88.91 591.41 87.69L591.41 87.69L591.41 83.87ZM629.14 61.12Q633.96 61.12 637.63 62.96Q641.30 64.79 643.46 67.60Q645.62 70.41 646.27 73.36L646.27 73.36Q646.42 73.94 646.42 74.08L646.42 74.08Q646.42 75.09 644.98 75.23L644.98 75.23L635.11 75.74L634.90 75.74Q634.39 75.74 634.21 75.52Q634.03 75.30 633.89 74.73L633.89 74.73Q633.60 72.78 632.70 71.49Q631.80 70.19 629.50 70.19L629.50 70.19Q623.74 70.19 623.74 80.92L623.74 80.92Q623.74 86.68 625.39 89.24Q627.05 91.79 630.29 91.79L630.29 91.79Q632.16 91.79 633.42 91.11Q634.68 90.42 635.47 89.31Q636.26 88.19 637.42 86.10L637.42 86.10Q637.63 85.67 638.28 85.67L638.28 85.67Q638.64 85.67 638.86 85.74L638.86 85.74L645.62 87.04Q646.42 87.11 646.42 87.90L646.42 87.90Q646.42 87.98 646.27 88.70L646.27 88.70Q645.84 91 643.90 93.81Q641.95 96.62 638.21 98.67Q634.46 100.72 629.14 100.72L629.14 100.72Q623.45 100.72 618.88 98.24Q614.30 95.75 611.75 91.29Q609.19 86.82 609.19 81.06L609.19 81.06Q609.19 75.23 611.78 70.70Q614.38 66.16 618.91 63.64Q623.45 61.12 629.14 61.12L629.14 61.12ZM691.99 97.98L692.14 98.56Q692.14 99.14 691.74 99.57Q691.34 100 690.62 100L690.62 100L678.31 100Q676.73 100 675.94 98.13L675.94 98.13L670.75 85.74Q670.39 84.95 669.96 84.95L669.96 84.95Q669.67 84.95 669.24 85.38L669.24 85.38L665.78 88.62Q665.14 89.13 665.14 90.64L665.14 90.64L665.14 97.91Q665.14 99.06 664.60 99.53Q664.06 100 662.83 100L662.83 100L652.68 100Q651.60 100 651.17 99.57Q650.74 99.14 650.74 98.20L650.74 98.20L650.74 48.23Q650.74 47.44 651.10 47.01Q651.46 46.58 652.10 46.58L652.10 46.58L663.84 46.58Q665.14 46.58 665.14 48.09L665.14 48.09L665.14 75.09Q665.14 75.59 665.42 75.59L665.42 75.59Q665.71 75.59 666 75.23L666 75.23L676.80 63.06Q678.02 61.84 679.03 61.84L679.03 61.84L688.90 61.84Q689.62 61.84 690.01 62.13Q690.41 62.42 690.41 62.85L690.41 62.85Q690.41 63.42 689.90 63.93L689.90 63.93L680.62 73.22Q680.04 73.94 680.04 74.44L680.04 74.44Q680.04 74.87 680.47 75.74L680.47 75.74L691.99 97.98Z"/></svg>