<svg xmlns="http://www.w3.org/2000/svg" viewBox="7.488000000000001 46.57599999999999 598.248 66.024"><path d="M7.49 47.44Q7.49 46.94 7.67 46.76Q7.85 46.58 8.28 46.58L8.28 46.58L12.17 46.58Q12.60 46.58 12.74 46.76Q12.89 46.94 12.89 47.44L12.89 47.44L12.89 94.96Q12.89 95.39 13.03 95.54Q13.18 95.68 13.61 95.68L13.61 95.68L39.02 95.68Q39.46 95.68 39.60 95.79Q39.74 95.90 39.74 96.33L39.74 96.33L39.74 99.35Q39.74 100 39.02 100L39.02 100L8.35 100Q7.49 100 7.49 99.14L7.49 99.14L7.49 47.44ZM53.93 47.58L53.93 53.13Q53.93 53.78 53.71 54.10Q53.50 54.42 52.85 54.42L52.85 54.42L49.54 54.42Q48.96 54.42 48.78 54.14Q48.60 53.85 48.60 53.27L48.60 53.27L48.60 47.66Q48.60 46.58 49.54 46.58L49.54 46.58L52.99 46.58Q53.93 46.58 53.93 47.58L53.93 47.58ZM53.64 62.70L53.64 98.92Q53.64 99.57 53.42 99.78Q53.21 100 52.49 100L52.49 100L49.82 100Q49.32 100 49.10 99.82Q48.89 99.64 48.89 99.14L48.89 99.14L48.89 62.70Q48.89 62.20 49.07 62.02Q49.25 61.84 49.68 61.84L49.68 61.84L52.85 61.84Q53.28 61.84 53.46 62.02Q53.64 62.20 53.64 62.70L53.64 62.70ZM68.26 100L66.53 100Q66.02 100 65.81 99.75Q65.59 99.50 65.59 98.92L65.59 98.92L65.59 47.44Q65.59 46.58 66.38 46.58L66.38 46.58L69.62 46.58Q70.34 46.58 70.34 47.51L70.34 47.51L70.34 65.37Q70.34 66.16 70.70 66.16L70.70 66.16Q70.85 66.16 71.35 65.80L71.35 65.80Q76.39 61.12 83.23 61.12L83.23 61.12Q90.94 61.12 94.82 66.59Q98.71 72.06 98.71 80.78L98.71 80.78Q98.71 90.06 94.36 95.39Q90.00 100.72 82.30 100.72L82.30 100.72Q77.76 100.72 74.88 98.92Q72.00 97.12 70.49 95.10L70.49 95.10Q70.27 94.74 70.06 94.74L70.06 94.74Q69.77 94.74 69.77 95.32L69.77 95.32L69.48 98.92Q69.41 99.50 69.16 99.75Q68.90 100 68.26 100L68.26 100ZM70.34 70.55L70.34 87.18Q70.34 89.85 71.93 92.12Q73.51 94.38 76.10 95.72Q78.70 97.05 81.43 97.05L81.43 97.05Q86.90 97.05 90.32 92.94Q93.74 88.84 93.74 80.78L93.74 80.78Q93.74 73.29 90.68 69.08Q87.62 64.86 81.94 64.86L81.94 64.86Q78.48 64.86 75.49 66.45Q72.50 68.03 70.34 70.55L70.34 70.55ZM109.37 100Q108.50 100 108.50 99.14L108.50 99.14L108.50 62.63Q108.50 61.84 109.22 61.84L109.22 61.84L112.32 61.84Q112.97 61.84 112.97 62.56L112.97 62.56L112.97 67.31Q112.97 67.67 113.18 67.74Q113.40 67.82 113.69 67.53L113.69 67.53Q116.64 64.22 119.38 62.67Q122.11 61.12 124.92 61.12L124.92 61.12Q126.29 61.12 126.90 61.30Q127.51 61.48 127.51 61.98L127.51 61.98L127.51 65.30Q127.51 65.80 126.94 65.80L126.94 65.80Q124.99 65.58 124.13 65.58L124.13 65.58Q121.97 65.58 119.38 66.92Q116.78 68.25 115.02 70.34Q113.26 72.42 113.26 74.51L113.26 74.51L113.26 99.14Q113.26 100 112.32 100L112.32 100L109.37 100ZM137.09 83.08Q137.09 86.75 138.89 89.96Q140.69 93.16 143.75 95.03Q146.81 96.90 150.41 96.90L150.41 96.90Q158.18 96.90 162.22 90.64L162.22 90.64Q162.43 90.28 162.65 90.24Q162.86 90.21 163.15 90.35L163.15 90.35L165.60 91.72Q165.82 91.86 165.85 92.08Q165.89 92.30 165.67 92.58L165.67 92.58Q163.01 96.76 159.19 98.74Q155.38 100.72 150.12 100.72L150.12 100.72Q144.86 100.72 140.80 98.27Q136.73 95.82 134.42 91.40Q132.12 86.97 132.12 81.28L132.12 81.28Q132.12 75.16 134.46 70.59Q136.80 66.02 140.87 63.57Q144.94 61.12 150.05 61.12L150.05 61.12Q157.90 61.12 162.47 66.27Q167.04 71.42 167.04 80.49L167.04 80.49L167.04 80.92Q167.04 81.42 166.86 81.71Q166.68 82 166.03 82L166.03 82L137.59 82Q137.09 82 137.09 83.08L137.09 83.08ZM137.16 78.62L160.99 78.62Q161.71 78.62 161.96 78.40Q162.22 78.18 162.22 77.61L162.22 77.61Q162.22 74.15 160.74 71.20Q159.26 68.25 156.53 66.52Q153.79 64.79 150.12 64.79L150.12 64.79Q146.09 64.79 143.14 66.77Q140.18 68.75 138.64 71.92Q137.09 75.09 137.16 78.62L137.16 78.62ZM193.32 47.44Q193.32 46.94 193.50 46.76Q193.68 46.58 194.11 46.58L194.11 46.58L224.71 46.58Q225.36 46.58 225.36 47.22L225.36 47.22L225.36 50.18Q225.36 50.61 225.18 50.75Q225.00 50.90 224.57 50.90L224.57 50.90L199.58 50.90Q199.08 50.90 198.90 51.04Q198.72 51.18 198.72 51.69L198.72 51.69L198.72 71.13Q198.72 71.49 198.90 71.63Q199.08 71.78 199.51 71.78L199.51 71.78L219.67 71.78Q220.32 71.78 220.32 72.42L220.32 72.42L220.32 75.38Q220.32 75.74 220.18 75.88Q220.03 76.02 219.60 76.02L219.60 76.02L199.44 76.02Q199.08 76.02 198.90 76.17Q198.72 76.31 198.72 76.74L198.72 76.74L198.72 99.21Q198.72 100 197.93 100L197.93 100L194.18 100Q193.68 100 193.50 99.82Q193.32 99.64 193.32 99.14L193.32 99.14L193.32 47.44ZM231.62 100Q230.76 100 230.76 99.14L230.76 99.14L230.76 62.63Q230.76 61.84 231.48 61.84L231.48 61.84L234.58 61.84Q235.22 61.84 235.22 62.56L235.22 62.56L235.22 67.31Q235.22 67.67 235.44 67.74Q235.66 67.82 235.94 67.53L235.94 67.53Q238.90 64.22 241.63 62.67Q244.37 61.12 247.18 61.12L247.18 61.12Q248.54 61.12 249.16 61.30Q249.77 61.48 249.77 61.98L249.77 61.98L249.77 65.30Q249.77 65.80 249.19 65.80L249.19 65.80Q247.25 65.58 246.38 65.58L246.38 65.58Q244.22 65.58 241.63 66.92Q239.04 68.25 237.28 70.34Q235.51 72.42 235.51 74.51L235.51 74.51L235.51 99.14Q235.51 100 234.58 100L234.58 100L231.62 100ZM279.79 95.18Q276.91 97.98 273.71 99.35Q270.50 100.72 266.69 100.72L266.69 100.72Q261 100.72 257.76 97.91Q254.52 95.10 254.52 90.28L254.52 90.28Q254.52 84.66 259.24 81.42Q263.95 78.18 273.02 77.54L273.02 77.54L279.43 77.03Q280.66 76.89 280.66 75.95L280.66 75.95L280.66 73.86Q280.66 69.69 278.03 67.24Q275.40 64.79 270.94 64.79L270.94 64.79Q264.31 64.79 259.92 70.91L259.92 70.91Q259.70 71.27 259.49 71.34Q259.27 71.42 258.98 71.27L258.98 71.27L256.03 70.05Q255.74 69.90 255.74 69.69L255.74 69.69Q255.74 69.40 255.96 69.11L255.96 69.11Q258.19 65.37 262.08 63.24Q265.97 61.12 271.15 61.12L271.15 61.12Q277.85 61.12 281.56 64.40Q285.26 67.67 285.26 73.50L285.26 73.50L285.26 99.06Q285.26 100 284.40 100L284.40 100L281.74 100Q280.87 100 280.87 99.06L280.87 99.06L280.73 95.32Q280.58 94.82 280.37 94.82L280.37 94.82Q280.15 94.82 279.79 95.18L279.79 95.18ZM280.66 81.35Q280.66 80.13 279.58 80.27L279.58 80.27L274.18 80.70Q259.34 81.78 259.34 89.78L259.34 89.78Q259.34 93.09 261.72 95.03Q264.10 96.98 268.06 96.98L268.06 96.98Q270.43 96.98 272.74 96.11Q275.04 95.25 276.91 93.81L276.91 93.81Q280.66 90.71 280.66 87.69L280.66 87.69L280.66 81.35ZM297.43 100Q296.57 100 296.57 99.14L296.57 99.14L296.57 62.63Q296.57 61.84 297.29 61.84L297.29 61.84L300.38 61.84Q301.10 61.84 301.10 62.56L301.10 62.56L301.10 66.81Q301.10 67.67 301.75 67.02L301.75 67.02Q306.07 63.86 308.92 62.49Q311.76 61.12 315.29 61.12L315.29 61.12Q320.83 61.12 323.86 64.04Q326.88 66.95 326.88 71.85L326.88 71.85L326.88 99.06Q326.88 100 326.02 100L326.02 100L322.99 100Q322.13 100 322.13 99.14L322.13 99.14L322.13 73.14Q322.13 65.08 314.14 65.08L314.14 65.08Q310.82 65.08 308.12 66.45Q305.42 67.82 301.32 71.20L301.32 71.20L301.32 99.14Q301.32 100 300.38 100L300.38 100L297.43 100ZM370.01 98.92Q370.22 99.21 370.22 99.50L370.22 99.50Q370.22 100 369.50 100L369.50 100L365.62 100Q364.82 100 364.54 99.28L364.54 99.28L352.66 79.62Q352.51 79.41 352.37 79.37Q352.22 79.34 351.94 79.62L351.94 79.62L343.66 87.98Q343.15 88.48 343.15 89.34L343.15 89.34L343.15 98.92Q343.15 99.57 342.94 99.78Q342.72 100 342.07 100L342.07 100L339.41 100Q338.83 100 338.62 99.82Q338.40 99.64 338.40 99.14L338.40 99.14L338.40 47.44Q338.40 46.94 338.58 46.76Q338.76 46.58 339.19 46.58L339.19 46.58L342.43 46.58Q343.15 46.58 343.15 47.44L343.15 47.44L343.15 81.86Q343.15 82.50 343.37 82.50L343.37 82.50Q343.51 82.50 343.87 82.14L343.87 82.14L362.81 62.63Q363.24 62.20 363.49 62.02Q363.74 61.84 364.18 61.84L364.18 61.84L367.70 61.84Q368.42 61.84 368.42 62.27L368.42 62.27Q368.42 62.63 367.99 63.06L367.99 63.06L356.26 75.02Q355.97 75.30 355.97 75.52L355.97 75.52Q355.97 75.74 356.18 76.10L356.18 76.10L370.01 98.92ZM382.97 47.44L382.97 98.92Q382.97 99.57 382.75 99.78Q382.54 100 381.89 100L381.89 100L379.15 100Q378.65 100 378.43 99.82Q378.22 99.64 378.22 99.14L378.22 99.14L378.29 47.44Q378.29 46.94 378.43 46.76Q378.58 46.58 379.01 46.58L379.01 46.58L382.25 46.58Q382.97 46.58 382.97 47.44L382.97 47.44ZM399.96 47.58L399.96 53.13Q399.96 53.78 399.74 54.10Q399.53 54.42 398.88 54.42L398.88 54.42L395.57 54.42Q394.99 54.42 394.81 54.14Q394.63 53.85 394.63 53.27L394.63 53.27L394.63 47.66Q394.63 46.58 395.57 46.58L395.57 46.58L399.02 46.58Q399.96 46.58 399.96 47.58L399.96 47.58ZM399.67 62.70L399.67 98.92Q399.67 99.57 399.46 99.78Q399.24 100 398.52 100L398.52 100L395.86 100Q395.35 100 395.14 99.82Q394.92 99.64 394.92 99.14L394.92 99.14L394.92 62.70Q394.92 62.20 395.10 62.02Q395.28 61.84 395.71 61.84L395.71 61.84L398.88 61.84Q399.31 61.84 399.49 62.02Q399.67 62.20 399.67 62.70L399.67 62.70ZM412.49 100Q411.62 100 411.62 99.14L411.62 99.14L411.62 62.63Q411.62 61.84 412.34 61.84L412.34 61.84L415.44 61.84Q416.16 61.84 416.16 62.56L416.16 62.56L416.16 66.81Q416.16 67.67 416.81 67.02L416.81 67.02Q421.13 63.86 423.97 62.49Q426.82 61.12 430.34 61.12L430.34 61.12Q435.89 61.12 438.91 64.04Q441.94 66.95 441.94 71.85L441.94 71.85L441.94 99.06Q441.94 100 441.07 100L441.07 100L438.05 100Q437.18 100 437.18 99.14L437.18 99.14L437.18 73.14Q437.18 65.08 429.19 65.08L429.19 65.08Q425.88 65.08 423.18 66.45Q420.48 67.82 416.38 71.20L416.38 71.20L416.38 99.14Q416.38 100 415.44 100L415.44 100L412.49 100ZM473.83 47.44L473.83 98.92Q473.83 99.57 473.62 99.78Q473.40 100 472.75 100L472.75 100L470.02 100Q469.51 100 469.30 99.82Q469.08 99.64 469.08 99.14L469.08 99.14L469.15 47.44Q469.15 46.94 469.30 46.76Q469.44 46.58 469.87 46.58L469.87 46.58L473.11 46.58Q473.83 46.58 473.83 47.44L473.83 47.44ZM490.82 47.58L490.82 53.13Q490.82 53.78 490.61 54.10Q490.39 54.42 489.74 54.42L489.74 54.42L486.43 54.42Q485.86 54.42 485.68 54.14Q485.50 53.85 485.50 53.27L485.50 53.27L485.50 47.66Q485.50 46.58 486.43 46.58L486.43 46.58L489.89 46.58Q490.82 46.58 490.82 47.58L490.82 47.58ZM490.54 62.70L490.54 98.92Q490.54 99.57 490.32 99.78Q490.10 100 489.38 100L489.38 100L486.72 100Q486.22 100 486.00 99.82Q485.78 99.64 485.78 99.14L485.78 99.14L485.78 62.70Q485.78 62.20 485.96 62.02Q486.14 61.84 486.58 61.84L486.58 61.84L489.74 61.84Q490.18 61.84 490.36 62.02Q490.54 62.20 490.54 62.70L490.54 62.70ZM535.82 61.48Q536.62 61.48 536.90 61.73Q537.19 61.98 537.19 62.56L537.19 62.56L537.19 64.36Q537.19 65.01 536.90 65.33Q536.62 65.66 535.90 65.66L535.90 65.66Q533.59 65.66 532.08 66.38L532.08 66.38Q531.14 66.88 530.82 67.24Q530.50 67.60 530.64 68.03L530.64 68.03Q530.78 68.32 531.14 69.18Q531.50 70.05 531.72 71.09Q531.94 72.14 531.94 73.36L531.94 73.36Q531.94 78.47 528.08 81.71Q524.23 84.95 516.74 84.95L516.74 84.95Q511.42 84.95 509.08 85.89Q506.74 86.82 506.74 88.19L506.74 88.19Q506.74 89.42 508.36 89.96Q509.98 90.50 513.86 90.71L513.86 90.71L522.86 91.22Q528.84 91.58 531.76 94.13Q534.67 96.69 534.67 101.08L534.67 101.08Q534.67 106.55 529.96 109.58Q525.24 112.60 516.67 112.60L516.67 112.60Q507.89 112.60 503.24 109.90Q498.60 107.20 498.60 102.23L498.60 102.23Q498.60 97.19 505.22 93.74L505.22 93.74Q505.66 93.52 505.66 93.38L505.66 93.38Q505.66 93.16 505.22 92.94L505.22 92.94Q502.20 91.65 502.20 88.98L502.20 88.98Q502.20 87.47 503.53 86.14Q504.86 84.81 507.53 83.94L507.53 83.94Q507.89 83.80 507.89 83.58L507.89 83.58Q507.89 83.30 507.46 83.08L507.46 83.08Q504.43 81.42 502.96 79.05Q501.48 76.67 501.48 73.36L501.48 73.36Q501.48 67.67 505.66 64.47Q509.83 61.26 517.32 61.26L517.32 61.26Q524.09 61.26 527.90 64.50L527.90 64.50Q528.26 64.79 528.62 64.79L528.62 64.79Q529.06 64.79 529.34 64.50L529.34 64.50Q532.87 61.48 535.82 61.48L535.82 61.48ZM516.82 81.57Q527.40 81.57 527.40 73.29L527.40 73.29Q527.40 69.11 524.74 66.88Q522.07 64.65 516.82 64.65L516.82 64.65Q511.70 64.65 508.86 66.95Q506.02 69.26 506.02 73.29L506.02 73.29Q506.02 77.25 508.82 79.41Q511.63 81.57 516.82 81.57L516.82 81.57ZM522.50 95.46L510.19 94.74Q508.90 94.67 507.17 95.57Q505.44 96.47 504.22 98.09Q502.99 99.71 502.99 101.73L502.99 101.73Q502.99 105.40 506.66 107.34Q510.34 109.29 517.32 109.29L517.32 109.29Q530.06 109.29 530.06 101.58L530.06 101.58Q530.06 98.78 528.30 97.23Q526.54 95.68 522.50 95.46L522.50 95.46ZM546.12 100Q545.26 100 545.26 99.14L545.26 99.14L545.26 47.37Q545.26 46.58 545.98 46.58L545.98 46.58L549.07 46.58Q549.79 46.58 549.79 47.30L549.79 47.30L549.79 66.74Q549.79 67.60 550.44 66.95L550.44 66.95Q554.76 63.78 557.60 62.45Q560.45 61.12 563.98 61.12L563.98 61.12Q569.59 61.12 572.58 64.04Q575.57 66.95 575.57 71.92L575.57 71.92L575.57 99.06Q575.57 100 574.70 100L574.70 100L571.68 100Q570.82 100 570.82 99.14L570.82 99.14L570.82 73.14Q570.82 65.08 562.82 65.08L562.82 65.08Q559.51 65.08 556.81 66.45Q554.11 67.82 550.01 71.20L550.01 71.20L550.01 99.14Q550.01 100 549.07 100L549.07 100L546.12 100ZM605.09 65.51L595.66 65.51Q595.08 65.51 595.08 66.09L595.08 66.09L595.08 90.28Q595.08 93.81 596.12 95.03Q597.17 96.26 599.62 96.26L599.62 96.26L604.87 96.26Q605.59 96.26 605.59 96.98L605.59 96.98L605.59 98.92Q605.59 99.50 604.87 99.71L604.87 99.71Q603.14 100 598.61 100L598.61 100Q594.14 100 592.24 97.95Q590.33 95.90 590.33 91.29L590.33 91.29L590.33 66.16Q590.33 65.51 589.68 65.51L589.68 65.51L583.56 65.51Q582.91 65.51 582.91 64.94L582.91 64.94L582.91 62.42Q582.91 61.84 583.49 61.84L583.49 61.84L589.90 61.84Q590.26 61.84 590.40 61.26L590.40 61.26L591.12 49.74Q591.12 48.88 591.77 48.88L591.77 48.88L594.36 48.88Q595.15 48.88 595.15 49.82L595.15 49.82L595.15 61.26Q595.15 61.84 595.66 61.84L595.66 61.84L605.16 61.84Q605.74 61.84 605.74 62.42L605.74 62.42L605.74 64.94Q605.74 65.51 605.09 65.51L605.09 65.51Z"/></svg>