<svg xmlns="http://www.w3.org/2000/svg" viewBox="1.368 46.57599999999999 881.1359999999999 54.144000000000005"><path d="M8 48Q8 47 9 47Q9 47 10 47L10 47L24 47Q25 47 25 48L25 48Q25 48 25 49L25 49L19 87L19 87Q19 88 20 88L20 88L42 88Q43 88 43 90L43 90L42 99Q42 100 41 100Q41 100 40 100L40 100L3 100Q1 100 1 98L1 98L8 48ZM68 49L67 57Q67 58 66 58Q66 59 65 59L65 59L54 59Q53 59 53 57L53 57Q53 57 53 56L53 56L54 48Q54 47 55 47L55 47L67 47Q68 47 68 48L68 48Q68 48 68 49L68 49ZM66 64L61 98Q61 99 61 100Q60 100 59 100L59 100L49 100Q48 100 47 99Q47 99 47 98L47 98L52 63Q52 62 52 62Q52 62 53 62L53 62L65 62Q66 62 66 62Q66 63 66 64L66 64ZM76 100L69 100Q68 100 68 99Q67 99 67 98L67 98L74 48Q74 47 75 47Q75 47 75 47L75 47L88 47Q89 47 89 48L89 48Q89 48 88 49L88 49L86 64L86 64Q86 65 87 65L87 65Q87 65 87 64L87 64Q90 62 92 62Q94 61 97 61L97 61Q103 61 106 65Q110 69 110 77L110 77Q110 83 108 88Q106 94 101 97Q97 101 91 101L91 101Q88 101 85 99Q82 98 80 95L80 95Q80 94 80 94L80 94Q79 94 79 95L79 95L78 98Q77 99 77 100Q77 100 76 100L76 100ZM85 73L83 87Q83 88 83 88L83 88Q83 90 84 91Q85 92 87 92L87 92Q90 92 92 89Q94 87 95 83Q95 79 95 75L95 75Q95 72 94 71Q93 70 91 70L91 70Q88 70 85 73L85 73ZM113 100Q112 100 112 99Q111 99 112 98L112 98L116 63Q116 62 117 62Q117 62 118 62L118 62L129 62Q131 62 130 64L130 64L130 66L130 67Q130 67 130 67L130 67Q130 67 131 67L131 67Q133 64 136 63Q139 61 142 61L142 61Q143 61 144 61Q145 62 145 62L145 62L143 73Q143 74 143 74Q143 74 142 74L142 74Q139 74 136 74L136 74Q134 74 131 76Q129 77 129 79L129 79L126 98Q126 99 125 100Q125 100 124 100L124 100L113 100ZM162 101Q156 101 152 99Q148 96 146 93Q143 89 143 84L143 84Q143 78 146 73Q149 67 155 64Q160 61 166 61L166 61Q171 61 175 63Q179 65 181 69Q183 73 183 79L183 79Q183 81 183 83L183 83Q183 83 183 83Q182 84 181 84L181 84L159 84Q158 84 158 87L158 87Q158 89 159 90Q161 91 164 91L164 91Q166 91 168 90Q170 89 172 87L172 87Q173 87 173 87L173 87Q174 87 174 87L174 87L180 90Q181 90 181 91L181 91Q181 92 181 92L181 92Q176 97 172 99Q168 101 162 101L162 101ZM159 76L168 76Q169 76 170 76Q170 75 170 74L170 74Q170 72 169 71Q168 70 166 70L166 70Q164 70 162 71Q160 73 159 76L159 76ZM208 48Q208 47 208 47Q208 47 209 47L209 47L248 47Q248 47 248 47Q249 47 248 48L248 48L247 57Q247 58 247 58Q246 58 245 58L245 58L223 58Q223 58 222 59Q222 59 222 60L222 60L221 67L221 67Q221 68 221 68Q221 68 222 68L222 68L236 68Q237 68 237 68Q237 68 237 69L237 69L235 78Q235 79 235 79Q235 79 234 79L234 79L220 79Q220 79 220 80Q219 80 219 81L219 81L217 98Q217 99 216 100Q216 100 215 100L215 100L202 100Q201 100 201 100Q200 100 200 99L200 99Q200 99 200 98L200 98L208 48ZM243 100Q242 100 242 99Q241 99 241 98L241 98L246 63Q246 62 247 62Q247 62 248 62L248 62L259 62Q260 62 260 64L260 64L260 66L260 67Q260 67 260 67L260 67Q260 67 261 67L261 67Q263 64 266 63Q269 61 272 61L272 61Q273 61 274 61Q275 62 275 62L275 62L273 73Q273 74 273 74Q273 74 272 74L272 74Q268 74 266 74L266 74Q263 74 261 76Q259 77 258 79L258 79L256 98Q256 99 255 100Q255 100 253 100L253 100L243 100ZM294 97Q292 99 290 100Q287 101 283 101L283 101Q278 101 276 98Q273 95 273 91L273 91Q273 86 276 83Q280 79 286 78Q291 76 297 76L297 76L297 76Q298 76 299 75L299 75L299 73Q299 73 299 72L299 72Q299 71 298 70Q297 70 296 70L296 70Q294 70 292 70Q290 71 289 73L289 73Q289 74 288 74L288 74Q288 74 287 74L287 74L278 72Q277 72 277 71L277 71Q277 70 278 69L278 69Q280 65 285 63Q289 61 296 61L296 61Q305 61 309 64Q313 67 313 71L313 71Q313 72 313 73L313 73L309 98Q309 100 309 100Q308 100 307 100L307 100L298 100Q297 100 296 99Q296 99 296 98L296 98L296 97Q296 96 295 96L295 96Q295 96 294 97L294 97ZM297 87L297 83Q298 83 298 83L298 83Q298 83 297 83L297 83L296 83Q293 83 290 84Q287 86 287 89L287 89Q287 90 288 91Q289 92 290 92L290 92Q292 92 293 91Q294 91 295 90L295 90Q297 89 297 87L297 87ZM316 100Q315 100 315 98L315 98L315 98L320 63Q320 62 320 62Q320 62 321 62L321 62L333 62Q334 62 334 62Q334 62 334 63L334 63L333 66L333 66Q333 67 333 67L333 67Q334 67 334 66L334 66Q337 64 340 62Q343 61 346 61L346 61Q351 61 353 64Q356 67 356 71L356 71Q356 72 356 73L356 73L353 98Q352 99 352 100Q351 100 350 100L350 100L339 100Q338 100 338 99L338 99Q338 98 338 98L338 98L341 75L342 74Q342 71 339 71L339 71Q335 71 332 75L332 75L329 98Q329 99 328 100Q328 100 327 100L327 100L316 100ZM399 98Q399 99 399 99L399 99Q399 100 398 100L398 100L386 100Q384 100 384 98L384 98L380 86Q380 85 379 85L379 85Q379 85 379 85L379 85L375 89Q374 90 374 91L374 91L373 98Q372 99 372 100Q372 100 370 100L370 100L360 100Q359 100 359 99Q358 99 358 98L358 98L365 48Q365 47 366 47Q366 47 366 47L366 47L379 47Q380 47 380 48L380 48Q380 48 380 49L380 49L376 76L376 76Q376 76 376 75Q376 75 376 75L376 75L389 63Q390 62 391 62L391 62L401 62Q402 62 402 62Q403 63 403 63L403 63Q403 64 402 64L402 64L392 74Q391 75 391 75L391 75Q391 76 391 76L391 76L399 98ZM425 48L418 98Q418 99 417 100Q417 100 416 100L416 100L405 100Q404 100 404 99Q403 99 403 98L403 98L411 48Q411 47 411 47Q411 47 412 47L412 47L424 47Q425 47 425 48L425 48ZM445 49L444 57Q444 58 444 58Q443 59 442 59L442 59L431 59Q430 59 430 57L430 57Q430 57 430 56L430 56L431 48Q431 47 433 47L433 47L445 47Q445 47 445 48L445 48Q445 48 445 49L445 49ZM443 64L438 98Q438 99 438 100Q437 100 436 100L436 100L426 100Q425 100 424 99Q424 99 424 98L424 98L429 63Q429 62 429 62Q430 62 430 62L430 62L442 62Q443 62 443 62Q443 63 443 64L443 64ZM446 100Q444 100 444 98L444 98L444 98L449 63Q449 62 450 62Q450 62 450 62L450 62L463 62Q463 62 463 62Q464 62 463 63L463 63L463 66L463 66Q463 67 463 67L463 67Q463 67 464 66L464 66Q466 64 470 62Q473 61 476 61L476 61Q480 61 483 64Q486 67 486 71L486 71Q486 72 486 73L486 73L482 98Q482 99 482 100Q481 100 480 100L480 100L469 100Q468 100 468 99L468 99Q468 98 468 98L468 98L471 75L471 74Q471 71 468 71L468 71Q465 71 462 75L462 75L459 98Q458 99 458 100Q458 100 456 100L456 100L446 100ZM511 100L504 100Q503 100 503 99Q502 99 502 98L502 98L509 48Q509 47 510 47Q510 47 510 47L510 47L523 47Q524 47 524 48L524 48Q524 48 524 49L524 49L521 64L521 64Q521 65 522 65L522 65Q522 65 522 64L522 64Q525 62 527 62Q529 61 532 61L532 61Q538 61 541 65Q545 69 545 77L545 77Q545 83 543 88Q541 94 536 97Q532 101 526 101L526 101Q523 101 520 99Q517 98 515 95L515 95Q515 94 515 94L515 94Q514 94 514 95L514 95L513 98Q512 99 512 100Q512 100 511 100L511 100ZM520 73L518 87Q518 88 518 88L518 88Q518 90 519 91Q520 92 522 92L522 92Q525 92 527 89Q529 87 530 83Q530 79 530 75L530 75Q530 72 529 71Q528 70 526 70L526 70Q523 70 520 73L520 73ZM568 48L561 98Q561 99 560 100Q560 100 559 100L559 100L548 100Q547 100 547 99Q546 99 546 98L546 98L554 48Q554 47 554 47Q554 47 555 47L555 47L567 47Q568 47 568 48L568 48ZM588 97Q586 99 583 100Q580 101 577 101L577 101Q572 101 569 98Q566 95 566 91L566 91Q566 86 570 83Q574 79 579 78Q585 76 590 76L590 76L591 76Q592 76 592 75L592 75L592 73Q593 73 593 72L593 72Q593 71 592 70Q591 70 589 70L589 70Q587 70 585 70Q584 71 583 73L583 73Q582 74 582 74L582 74Q581 74 581 74L581 74L572 72Q571 72 571 71L571 71Q571 70 571 69L571 69Q573 65 578 63Q583 61 590 61L590 61Q599 61 603 64Q606 67 606 71L606 71Q606 72 606 73L606 73L603 98Q602 100 602 100Q602 100 601 100L601 100L591 100Q590 100 590 99Q590 99 590 98L590 98L590 97Q590 96 589 96L589 96Q589 96 588 97L588 97ZM591 87L591 83Q591 83 591 83L591 83Q591 83 590 83L590 83L589 83Q586 83 583 84Q581 86 581 89L581 89Q581 90 581 91Q582 92 584 92L584 92Q585 92 587 91Q588 91 589 90L589 90Q590 89 591 87L591 87ZM631 61Q636 61 640 63Q643 65 645 68Q647 71 647 74L647 74Q647 75 647 75Q647 75 646 75L646 75L636 76L636 76Q636 76 635 75Q635 75 635 74L635 74Q635 72 634 71Q634 70 632 70L632 70Q629 70 627 73Q625 75 624 79Q623 82 623 85L623 85Q623 89 625 90Q626 92 628 92L628 92Q631 92 633 90Q635 89 637 86L637 86Q637 86 637 86L637 86L638 86L644 87Q645 87 645 88L645 88Q645 89 645 89L645 89Q644 92 642 94Q640 97 636 99Q632 101 627 101L627 101Q622 101 618 99Q614 96 611 93Q609 89 609 84L609 84Q609 77 612 72Q615 67 620 64Q625 61 631 61L631 61ZM689 98Q690 99 690 99L690 99Q690 100 688 100L688 100L676 100Q674 100 674 98L674 98L670 86Q670 85 670 85L670 85Q669 85 669 85L669 85L665 89Q664 90 664 91L664 91L663 98Q663 99 662 100Q662 100 660 100L660 100L650 100Q649 100 649 99Q648 99 648 98L648 98L655 48Q655 47 656 47Q656 47 657 47L657 47L669 47Q670 47 670 48L670 48Q670 48 670 49L670 49L666 76L666 76Q666 76 666 75Q666 75 667 75L667 75L679 63Q680 62 681 62L681 62L691 62Q692 62 693 62Q693 63 693 63L693 63Q693 64 693 64L693 64L682 74Q681 75 681 75L681 75Q681 76 681 76L681 76L689 98ZM729 49L728 57Q728 58 728 58Q727 59 726 59L726 59L715 59Q714 59 714 57L714 57Q714 57 714 56L714 56L715 48Q715 47 717 47L717 47L729 47Q730 47 730 48L730 48Q730 48 729 49L729 49ZM727 64L722 98Q722 99 722 100Q721 100 720 100L720 100L710 100Q709 100 708 99Q708 99 708 98L708 98L713 63Q713 62 713 62Q714 62 714 62L714 62L726 62Q727 62 727 62Q727 63 727 64L727 64ZM745 100Q740 100 737 98Q734 95 734 91L734 91Q734 90 734 90L734 90L737 73L737 72Q737 72 735 72L735 72L732 72Q731 72 731 70L731 70Q731 70 731 70L731 70L732 63Q732 62 732 62Q732 62 733 62L733 62L737 62Q738 62 738 61Q739 61 739 61L739 61L741 50Q742 49 742 49Q742 49 743 49L743 49L754 49Q755 49 755 50L755 50Q755 51 754 51L754 51L753 61L753 61Q753 61 753 62Q753 62 754 62L754 62L760 62Q762 62 762 63L762 63L761 70Q761 71 760 71Q760 72 759 72L759 72L752 72Q751 72 751 73L751 73L749 87Q749 87 749 88L749 88Q749 89 750 90Q751 90 753 90L753 90L756 90Q757 90 757 91Q758 91 758 92L758 92L757 98Q757 100 755 100L755 100Q751 100 745 100L745 100ZM782 97Q781 99 778 100Q775 101 772 101L772 101Q767 101 764 98Q761 95 761 91L761 91Q761 86 765 83Q768 79 774 78Q779 76 785 76L785 76L785 76Q787 76 787 75L787 75L787 73Q787 73 787 72L787 72Q787 71 786 70Q786 70 784 70L784 70Q782 70 780 70Q778 71 777 73L777 73Q777 74 776 74L776 74Q776 74 776 74L776 74L766 72Q765 72 765 71L765 71Q765 70 766 69L766 69Q768 65 773 63Q778 61 785 61L785 61Q793 61 797 64Q801 67 801 71L801 71Q801 72 801 73L801 73L797 98Q797 100 797 100Q797 100 796 100L796 100L786 100Q785 100 785 99Q785 99 784 98L784 98L784 97Q784 96 784 96L784 96Q783 96 782 97L782 97ZM785 87L786 83Q786 83 786 83L786 83Q786 83 785 83L785 83L784 83Q781 83 778 84Q775 86 775 89L775 89Q775 90 776 91Q777 92 778 92L778 92Q780 92 781 91Q782 91 783 90L783 90Q785 89 785 87L785 87ZM824 48L817 98Q817 99 817 100Q816 100 815 100L815 100L805 100Q804 100 803 99Q803 99 803 98L803 98L810 48Q810 47 811 47Q811 47 812 47L812 47L824 47Q825 47 824 48L824 48ZM845 49L844 57Q843 58 843 58Q842 59 841 59L841 59L830 59Q829 59 829 57L829 57Q829 57 829 56L829 56L830 48Q831 47 832 47L832 47L844 47Q845 47 845 48L845 48Q845 48 845 49L845 49ZM843 64L838 98Q838 99 837 100Q837 100 835 100L835 100L825 100Q824 100 824 99Q823 99 823 98L823 98L828 63Q828 62 829 62Q829 62 830 62L830 62L842 62Q842 62 843 62Q843 63 843 64L843 64ZM867 61Q872 61 875 63Q879 65 881 68Q882 71 883 74L883 74Q883 75 882 75Q882 75 881 75L881 75L872 76L871 76Q871 76 871 75Q871 75 870 74L870 74Q870 72 870 71Q869 70 867 70L867 70Q864 70 862 73Q860 75 860 79Q859 82 859 85L859 85Q859 89 860 90Q861 92 864 92L864 92Q867 92 868 90Q870 89 872 86L872 86Q872 86 873 86L873 86L873 86L880 87Q881 87 881 88L881 88Q881 89 881 89L881 89Q880 92 878 94Q875 97 871 99Q868 101 862 101L862 101Q857 101 853 99Q849 96 847 93Q844 89 844 84L844 84Q844 77 847 72Q850 67 855 64Q860 61 867 61L867 61Z"/></svg>