<svg xmlns="http://www.w3.org/2000/svg" viewBox="1.1 -7.42 59.57999999999999 7.52"><path d="M1.10-7.31Q1.10-7.38 1.13-7.40Q1.15-7.42 1.20-7.42L1.20-7.42L1.58-7.42Q1.63-7.42 1.65-7.40Q1.67-7.38 1.67-7.31L1.67-7.31L1.67-0.57Q1.67-0.51 1.69-0.49Q1.71-0.48 1.77-0.48L1.77-0.48L5.36-0.48Q5.41-0.48 5.43-0.47Q5.45-0.45 5.45-0.40L5.45-0.40L5.45-0.08Q5.45 0 5.37 0L5.37 0L1.20 0Q1.14 0 1.12-0.03Q1.10-0.05 1.10-0.11L1.10-0.11L1.10-7.31ZM7.34-7.29L7.34-6.56Q7.34-6.40 7.20-6.40L7.20-6.40L6.86-6.40Q6.74-6.40 6.74-6.54L6.74-6.54L6.74-7.28Q6.74-7.42 6.87-7.42L6.87-7.42L7.21-7.42Q7.26-7.42 7.30-7.38Q7.34-7.35 7.34-7.29L7.34-7.29ZM7.29-5.19L7.29-0.13Q7.29-0.05 7.27-0.03Q7.24 0 7.16 0L7.16 0L6.91 0Q6.84 0 6.82-0.02Q6.79-0.04 6.79-0.11L6.79-0.11L6.79-5.19Q6.79-5.26 6.81-5.28Q6.83-5.30 6.89-5.30L6.89-5.30L7.19-5.30Q7.25-5.30 7.27-5.28Q7.29-5.26 7.29-5.19L7.29-5.19ZM9.33 0L9.17 0Q9.10 0 9.07-0.03Q9.05-0.06 9.05-0.14L9.05-0.14L9.05-7.31Q9.05-7.42 9.15-7.42L9.15-7.42L9.46-7.42Q9.51-7.42 9.53-7.40Q9.55-7.37 9.55-7.30L9.55-7.30L9.55-4.79Q9.55-4.69 9.59-4.69L9.59-4.69Q9.63-4.69 9.68-4.74L9.68-4.74Q10.40-5.40 11.37-5.40L11.37-5.40Q12.45-5.40 13.00-4.63Q13.54-3.87 13.54-2.67L13.54-2.67Q13.54-1.38 12.93-0.64Q12.33 0.10 11.26 0.10L11.26 0.10Q10.61 0.10 10.21-0.15Q9.81-0.40 9.61-0.67L9.61-0.67Q9.58-0.72 9.55-0.72L9.55-0.72Q9.51-0.72 9.51-0.64L9.51-0.64L9.48-0.14Q9.48-0.06 9.45-0.03Q9.42 0 9.33 0L9.33 0ZM9.55-4.13L9.55-1.78Q9.55-1.39 9.79-1.05Q10.02-0.72 10.40-0.53Q10.78-0.33 11.19-0.33L11.19-0.33Q11.99-0.33 12.50-0.93Q13.01-1.52 13.01-2.67L13.01-2.67Q13.01-3.74 12.55-4.36Q12.10-4.97 11.26-4.97L11.26-4.97Q10.76-4.97 10.31-4.74Q9.87-4.50 9.55-4.13L9.55-4.13ZM15.09 0Q14.99 0 14.99-0.10L14.99-0.10L14.99-5.20Q14.99-5.30 15.08-5.30L15.08-5.30L15.37-5.30Q15.46-5.30 15.46-5.21L15.46-5.21L15.46-4.54Q15.46-4.49 15.48-4.48Q15.50-4.47 15.54-4.51L15.54-4.51Q15.97-4.98 16.34-5.19Q16.72-5.40 17.12-5.40L17.12-5.40Q17.31-5.40 17.39-5.38Q17.47-5.35 17.47-5.29L17.47-5.29L17.47-4.96Q17.47-4.90 17.42-4.90L17.42-4.90L17.08-4.91Q16.76-4.91 16.38-4.71Q16.01-4.52 15.75-4.22Q15.49-3.92 15.49-3.61L15.49-3.61L15.49-0.10Q15.49 0 15.38 0L15.38 0L15.09 0ZM18.69-2.38Q18.69-1.84 18.95-1.37Q19.21-0.90 19.66-0.62Q20.11-0.34 20.64-0.34L20.64-0.34Q21.78-0.34 22.35-1.25L22.35-1.25Q22.41-1.33 22.46-1.28L22.46-1.28L22.74-1.12Q22.79-1.08 22.75-1.01L22.75-1.01Q22.04 0.10 20.62 0.10L20.62 0.10Q19.90 0.10 19.34-0.24Q18.79-0.58 18.48-1.20Q18.17-1.81 18.17-2.61L18.17-2.61Q18.17-3.46 18.48-4.09Q18.80-4.73 19.36-5.07Q19.91-5.40 20.62-5.40L20.62-5.40Q21.69-5.40 22.31-4.70Q22.94-3.99 22.94-2.73L22.94-2.73L22.94-2.67Q22.94-2.60 22.91-2.56Q22.89-2.53 22.80-2.52L22.80-2.52L18.76-2.52Q18.69-2.52 18.69-2.38L18.69-2.38ZM18.70-2.93L22.25-2.93Q22.35-2.93 22.38-2.96Q22.42-2.99 22.42-3.07L22.42-3.07Q22.42-3.59 22.20-4.03Q21.98-4.46 21.57-4.71Q21.16-4.97 20.62-4.97L20.62-4.97Q20.02-4.97 19.58-4.67Q19.14-4.37 18.91-3.90Q18.69-3.43 18.70-2.93L18.70-2.93ZM26.70-7.31Q26.70-7.38 26.73-7.40Q26.75-7.42 26.80-7.42L26.80-7.42L30.93-7.42Q31-7.42 31-7.34L31-7.34L31-7.03Q31-6.98 30.98-6.96Q30.96-6.94 30.91-6.94L30.91-6.94L27.37-6.94Q27.31-6.94 27.29-6.92Q27.27-6.91 27.27-6.85L27.27-6.85L27.27-3.94Q27.27-3.89 27.29-3.88Q27.31-3.86 27.37-3.86L27.37-3.86L30.29-3.86Q30.37-3.86 30.37-3.78L30.37-3.78L30.37-3.46Q30.37-3.42 30.35-3.41Q30.33-3.39 30.28-3.39L30.28-3.39L27.37-3.39Q27.32-3.39 27.30-3.37Q27.27-3.35 27.27-3.29L27.27-3.29L27.27-0.08Q27.27 0 27.19 0L27.19 0L26.80 0Q26.74 0 26.72-0.02Q26.70-0.04 26.70-0.11L26.70-0.11L26.70-7.31ZM31.94 0Q31.84 0 31.84-0.10L31.84-0.10L31.84-5.20Q31.84-5.30 31.93-5.30L31.93-5.30L32.22-5.30Q32.31-5.30 32.31-5.21L32.31-5.21L32.31-4.54Q32.31-4.49 32.33-4.48Q32.35-4.47 32.39-4.51L32.39-4.51Q32.82-4.98 33.20-5.19Q33.57-5.40 33.97-5.40L33.97-5.40Q34.16-5.40 34.24-5.38Q34.32-5.35 34.32-5.29L34.32-5.29L34.32-4.96Q34.32-4.90 34.27-4.90L34.27-4.90L33.93-4.91Q33.61-4.91 33.23-4.71Q32.86-4.52 32.60-4.22Q32.34-3.92 32.34-3.61L32.34-3.61L32.34-0.10Q32.34 0 32.23 0L32.23 0L31.94 0ZM38.60-0.70Q37.78 0.10 36.73 0.10L36.73 0.10Q35.94 0.10 35.48-0.29Q35.03-0.68 35.03-1.35L35.03-1.35Q35.03-2.11 35.66-2.55Q36.29-2.99 37.54-3.10L37.54-3.10L38.53-3.18Q38.70-3.20 38.70-3.33L38.70-3.33L38.70-3.63Q38.70-4.24 38.30-4.61Q37.91-4.97 37.26-4.97L37.26-4.97Q36.30-4.97 35.64-4.08L35.64-4.08Q35.61-4.03 35.59-4.02Q35.57-4.01 35.53-4.03L35.53-4.03L35.22-4.19Q35.16-4.23 35.22-4.30L35.22-4.30Q35.55-4.81 36.07-5.11Q36.59-5.40 37.29-5.40L37.29-5.40Q38.17-5.40 38.68-4.94Q39.19-4.48 39.19-3.68L39.19-3.68L39.19-0.11Q39.19 0 39.08 0L39.08 0L38.83 0Q38.73 0 38.73-0.11L38.73-0.11L38.71-0.68Q38.70-0.74 38.67-0.74Q38.64-0.75 38.60-0.70L38.60-0.70ZM38.70-2.63Q38.70-2.80 38.56-2.78L38.56-2.78L37.72-2.71Q35.55-2.55 35.55-1.40L35.55-1.40Q35.55-0.90 35.90-0.62Q36.25-0.34 36.84-0.34L36.84-0.34Q37.19-0.34 37.53-0.47Q37.87-0.59 38.15-0.81L38.15-0.81Q38.41-1.02 38.55-1.26Q38.70-1.49 38.70-1.71L38.70-1.71L38.70-2.63ZM40.95 0Q40.85 0 40.85-0.10L40.85-0.10L40.85-5.20Q40.85-5.30 40.94-5.30L40.94-5.30L41.23-5.30Q41.28-5.30 41.30-5.28Q41.32-5.26 41.32-5.21L41.32-5.21L41.32-4.60Q41.32-4.55 41.34-4.54Q41.36-4.53 41.40-4.57L41.40-4.57Q42.03-5.03 42.42-5.21Q42.82-5.40 43.32-5.40L43.32-5.40Q44.10-5.40 44.52-5Q44.94-4.60 44.94-3.92L44.94-3.92L44.94-0.11Q44.94 0 44.83 0L44.83 0L44.54 0Q44.44 0 44.44-0.10L44.44-0.10L44.44-3.75Q44.44-4.96 43.25-4.96L43.25-4.96Q42.77-4.96 42.38-4.76Q41.98-4.56 41.35-4.06L41.35-4.06L41.35-0.10Q41.35 0 41.24 0L41.24 0L40.95 0ZM50.86-0.13Q50.89-0.09 50.89-0.05L50.89-0.05Q50.89 0 50.80 0L50.80 0L50.40 0Q50.32 0 50.27-0.08L50.27-0.08L48.52-2.93Q48.48-2.98 48.43-2.93L48.43-2.93L47.20-1.68Q47.13-1.61 47.13-1.51L47.13-1.51L47.13-0.13Q47.13-0.05 47.10-0.03Q47.08 0 47 0L47 0L46.75 0Q46.68 0 46.66-0.02Q46.63-0.04 46.63-0.11L46.63-0.11L46.63-7.31Q46.63-7.38 46.65-7.40Q46.67-7.42 46.73-7.42L46.73-7.42L47.03-7.42Q47.09-7.42 47.11-7.40Q47.13-7.38 47.13-7.31L47.13-7.31L47.13-2.41Q47.13-2.31 47.16-2.31L47.16-2.31Q47.18-2.31 47.23-2.36L47.23-2.36L49.99-5.20Q50.04-5.26 50.08-5.28Q50.11-5.30 50.17-5.30L50.17-5.30L50.55-5.30Q50.64-5.30 50.64-5.24L50.64-5.24Q50.64-5.20 50.58-5.14L50.58-5.14L48.91-3.44Q48.87-3.38 48.90-3.31L48.90-3.31L50.86-0.13ZM52.57-7.31L52.57-0.13Q52.57-0.05 52.54-0.03Q52.52 0 52.44 0L52.44 0L52.19 0Q52.12 0 52.09-0.02Q52.07-0.04 52.07-0.11L52.07-0.11L52.07-7.31Q52.07-7.38 52.09-7.40Q52.11-7.42 52.17-7.42L52.17-7.42L52.47-7.42Q52.53-7.42 52.55-7.40Q52.57-7.38 52.57-7.31L52.57-7.31ZM54.88-7.29L54.88-6.56Q54.88-6.40 54.74-6.40L54.74-6.40L54.40-6.40Q54.28-6.40 54.28-6.54L54.28-6.54L54.28-7.28Q54.28-7.42 54.41-7.42L54.41-7.42L54.75-7.42Q54.80-7.42 54.84-7.38Q54.88-7.35 54.88-7.29L54.88-7.29ZM54.83-5.19L54.83-0.13Q54.83-0.05 54.80-0.03Q54.78 0 54.70 0L54.70 0L54.45 0Q54.38 0 54.35-0.02Q54.33-0.04 54.33-0.11L54.33-0.11L54.33-5.19Q54.33-5.26 54.35-5.28Q54.37-5.30 54.43-5.30L54.43-5.30L54.73-5.30Q54.79-5.30 54.81-5.28Q54.83-5.26 54.83-5.19L54.83-5.19ZM56.69 0Q56.59 0 56.59-0.10L56.59-0.10L56.59-5.20Q56.59-5.30 56.68-5.30L56.68-5.30L56.97-5.30Q57.02-5.30 57.04-5.28Q57.06-5.26 57.06-5.21L57.06-5.21L57.06-4.60Q57.06-4.55 57.08-4.54Q57.10-4.53 57.14-4.57L57.14-4.57Q57.77-5.03 58.16-5.21Q58.56-5.40 59.06-5.40L59.06-5.40Q59.84-5.40 60.26-5Q60.68-4.60 60.68-3.92L60.68-3.92L60.68-0.11Q60.68 0 60.57 0L60.57 0L60.28 0Q60.18 0 60.18-0.10L60.18-0.10L60.18-3.75Q60.18-4.96 58.99-4.96L58.99-4.96Q58.51-4.96 58.11-4.76Q57.72-4.56 57.09-4.06L57.09-4.06L57.09-0.10Q57.09 0 56.98 0L56.98 0L56.69 0Z"/></svg>