<svg xmlns="http://www.w3.org/2000/svg" viewBox="4.878000000000001 46.57599999999999 772.65 66.024"><path d="M12 47Q12 47 12 47Q13 47 13 47L13 47L17 47Q17 47 18 47Q18 47 18 48L18 48L11 95L11 95Q11 96 11 96L11 96L37 96Q38 96 38 96L38 96L37 99Q37 100 37 100Q37 100 37 100L37 100L6 100Q5 100 5 99L5 99L12 47ZM59 48L58 53Q58 54 57 54Q57 54 57 54L57 54L53 54Q52 54 52 53L52 53L53 48Q53 47 54 47L54 47L58 47Q58 47 58 47Q59 47 59 48L59 48ZM56 63L51 99Q51 100 51 100Q51 100 50 100L50 100L47 100Q46 100 46 99L46 99L51 63Q52 62 52 62Q52 62 52 62L52 62L56 62Q56 62 56 63L56 63ZM66 100L64 100Q63 100 63 99L63 99L70 47Q70 47 71 47Q71 47 71 47L71 47L74 47Q75 47 75 48L75 48L73 65Q73 65 72 66Q72 66 73 66L73 66Q73 66 73 66L73 66Q73 66 73 66L73 66Q76 64 79 62Q81 61 86 61L86 61Q92 61 96 65Q99 69 99 76L99 76Q99 82 97 88Q95 94 90 97Q86 101 80 101L80 101Q75 101 72 99Q70 97 69 95L69 95Q69 95 68 95L68 95Q68 95 68 95L68 95L67 99Q67 100 67 100Q66 100 66 100L66 100ZM72 71L69 87Q69 88 69 88L69 88Q69 91 71 93Q72 95 74 96Q76 97 79 97L79 97Q84 97 87 94Q91 91 92 86Q94 81 94 76L94 76Q94 71 92 68Q89 65 84 65L84 65Q81 65 78 66Q74 68 72 71L72 71ZM107 100Q106 100 106 100Q106 99 106 99L106 99L111 62Q111 62 111 62Q111 62 112 62L112 62L115 62Q116 62 116 63L116 63L115 67L115 67Q115 68 115 68Q115 68 116 67L116 67Q119 64 122 63Q125 61 128 61L128 61Q130 61 130 62L130 62L130 65Q130 66 129 66L129 66Q128 66 127 66L127 66Q124 66 121 67Q119 68 116 70Q114 72 114 75L114 75L111 99Q111 100 110 100Q110 100 110 100L110 100L107 100ZM148 101Q140 101 136 96Q132 92 132 85L132 85Q132 79 134 73Q137 68 142 64Q146 61 153 61L153 61Q160 61 163 65Q167 69 167 77L167 77Q167 79 167 81L167 81Q167 82 166 82L166 82L138 82Q137 82 137 83Q137 83 137 85L137 85Q137 90 140 94Q143 97 148 97L148 97Q156 97 161 90L161 90Q161 90 162 90L162 90L164 92Q165 92 164 93L164 93Q161 97 157 99Q153 101 148 101L148 101ZM137 79L161 79Q162 79 162 78Q163 77 163 75L163 75Q163 71 160 68Q157 65 152 65L152 65Q148 65 145 67Q142 69 140 72Q138 75 137 79L137 79ZM198 47Q198 47 198 47Q198 47 199 47L199 47L230 47Q230 47 230 47L230 47L230 50Q230 51 229 51Q229 51 229 51L229 51L204 51Q203 51 203 51Q203 51 203 52L203 52L200 71L200 71Q200 72 201 72L201 72L221 72Q222 72 222 72L222 72L221 75Q221 76 220 76L220 76L200 76Q200 76 200 76Q199 76 199 77L199 77L196 99Q196 100 196 100Q196 100 195 100L195 100L191 100Q191 100 191 100Q191 100 191 99L191 99L198 47ZM229 100Q229 100 228 100Q228 99 228 99L228 99L233 62Q233 62 234 62Q234 62 234 62L234 62L237 62Q238 62 238 63L238 63L237 67L237 67Q237 68 237 68Q238 68 238 67L238 67Q241 64 244 63Q247 61 250 61L250 61Q253 61 252 62L252 62L252 65Q252 66 252 66L252 66Q250 66 249 66L249 66Q247 66 244 67Q241 68 239 70Q237 72 236 75L236 75L233 99Q233 100 233 100Q232 100 232 100L232 100L229 100ZM278 95Q272 101 264 101L264 101Q259 101 256 98Q253 96 253 92L253 92Q253 85 259 81Q265 78 273 78L273 78L280 77Q281 77 281 77Q281 76 281 76L281 76L282 74Q282 73 282 72L282 72Q282 69 280 67Q277 65 273 65L273 65Q267 65 261 71L261 71Q261 71 261 71Q261 71 260 71L260 71L258 70Q257 70 257 69L257 69Q257 69 258 69L258 69Q260 65 264 63Q269 61 274 61L274 61Q280 61 283 64Q286 67 286 71L286 71Q286 72 286 74L286 74L283 99Q283 100 282 100Q282 100 282 100L282 100L279 100Q278 100 278 99L278 99L279 95Q279 95 279 95L279 95Q278 95 278 95L278 95ZM280 88L281 81L281 81Q281 80 280 80Q280 80 280 80L280 80L274 81Q258 82 258 91L258 91Q258 94 260 95Q262 97 266 97L266 97Q268 97 271 96Q273 95 275 94L275 94Q277 92 278 91Q280 89 280 88L280 88ZM295 100Q294 100 294 99L294 99L299 62Q299 62 299 62Q299 62 300 62L300 62L303 62Q304 62 304 63L304 63L303 67L303 67Q303 67 303 67Q303 67 304 67L304 67Q307 64 311 63Q314 61 318 61L318 61Q323 61 326 64Q328 66 328 70L328 70Q328 71 328 72L328 72L324 99Q324 100 324 100Q324 100 323 100L323 100L320 100Q319 100 320 99L320 99L323 73Q323 72 323 71L323 71Q323 65 317 65L317 65Q313 65 310 66Q308 68 303 71L303 71L299 99Q299 100 298 100Q298 100 298 100L298 100L295 100ZM367 99Q368 99 368 100L368 100Q368 100 367 100L367 100L363 100Q362 100 362 99L362 99L353 80Q353 79 353 79Q353 79 352 80L352 80L343 88Q342 89 342 89L342 89L341 99Q340 100 340 100Q340 100 339 100L339 100L337 100Q336 100 336 99L336 99L343 47Q343 47 343 47Q344 47 344 47L344 47L347 47Q348 47 348 48L348 48L343 82L343 82Q343 83 343 83L343 83Q343 83 343 82Q343 82 344 82L344 82L365 63Q366 62 366 62Q366 62 367 62L367 62L370 62Q371 62 371 62L371 62Q371 63 371 63L371 63L357 75Q357 76 357 76L357 76L367 99ZM388 48L380 99Q380 100 380 100Q380 100 379 100L379 100L377 100Q375 100 376 99L376 99L383 47Q383 47 383 47Q383 47 384 47L384 47L387 47Q388 47 388 48L388 48ZM405 48L404 53Q404 54 404 54Q403 54 403 54L403 54L399 54Q398 54 399 53L399 53L399 48Q399 47 400 47L400 47L404 47Q404 47 404 47Q405 47 405 48L405 48ZM402 63L397 99Q397 100 397 100Q397 100 396 100L396 100L393 100Q392 100 392 99L392 99L398 63Q398 62 398 62Q398 62 398 62L398 62L402 62Q402 62 402 63L402 63ZM410 100Q409 100 409 99L409 99L414 62Q414 62 414 62Q415 62 415 62L415 62L418 62Q419 62 419 63L419 63L418 67L418 67Q418 67 418 67Q418 67 419 67L419 67Q422 64 426 63Q429 61 433 61L433 61Q438 61 441 64Q443 66 443 70L443 70Q443 71 443 72L443 72L439 99Q439 100 439 100Q439 100 438 100L438 100L435 100Q435 100 435 99L435 99L438 73Q438 72 438 71L438 71Q438 65 432 65L432 65Q428 65 425 66Q423 68 418 71L418 71L414 99Q414 100 414 100Q413 100 413 100L413 100L410 100ZM479 48L471 99Q471 100 471 100Q471 100 470 100L470 100L467 100Q466 100 466 99L466 99L474 47Q474 47 474 47Q474 47 475 47L475 47L478 47Q479 47 479 48L479 48ZM496 48L495 53Q495 54 494 54Q494 54 494 54L494 54L490 54Q489 54 489 53L489 53L490 48Q490 47 491 47L491 47L495 47Q495 47 495 47Q496 47 496 48L496 48ZM493 63L488 99Q488 100 488 100Q488 100 487 100L487 100L484 100Q483 100 483 99L483 99L488 63Q488 62 489 62Q489 62 489 62L489 62L492 62Q493 62 493 63L493 63ZM512 113Q504 113 500 110Q495 108 495 103L495 103Q495 100 497 98Q499 95 503 94L503 94Q503 94 504 93Q504 93 503 93L503 93Q501 92 501 89L501 89Q501 86 507 84L507 84Q507 84 508 83Q508 83 507 83L507 83Q502 80 502 75L502 75Q502 71 505 68Q507 65 511 63Q515 61 519 61L519 61Q526 61 530 65L530 65Q530 65 530 65L530 65Q531 65 532 64L532 64Q533 63 535 62Q537 61 538 61L538 61Q539 61 540 62Q540 62 540 63L540 63L539 64Q539 65 539 65Q539 66 538 66L538 66Q536 66 534 66L534 66Q533 67 533 67Q532 68 532 68L532 68Q533 69 533 70Q533 71 533 72L533 72Q533 76 531 79Q528 82 525 84Q521 85 516 85L516 85Q513 85 509 86Q506 86 506 88L506 88Q506 89 507 90Q509 90 512 91L512 91L521 91Q532 92 532 100L532 100Q532 107 526 110Q520 113 512 113L512 113ZM517 82Q522 82 525 79Q529 77 529 71L529 71Q529 68 526 66Q524 65 519 65L519 65Q514 65 511 67Q507 70 507 75L507 75Q507 78 509 80Q512 82 517 82L517 82ZM512 109Q518 109 523 107Q527 105 527 101L527 101Q527 98 526 97Q524 96 521 95L521 95L509 95Q505 96 502 98Q500 100 500 103L500 103Q500 109 512 109L512 109ZM547 100L544 100Q543 100 543 100Q543 99 543 99L543 99L550 47Q550 47 550 47Q550 47 551 47L551 47L554 47Q555 47 555 47L555 47L552 66Q552 67 552 67L552 67Q557 64 560 62Q563 61 567 61L567 61Q572 61 574 63Q577 66 577 70L577 70Q577 71 577 72L577 72L573 99Q573 100 573 100Q573 100 572 100L572 100L569 100Q568 100 568 99L568 99L572 73Q572 72 572 71L572 71Q572 65 565 65L565 65Q562 65 559 66Q556 68 551 71L551 71L547 99Q547 100 547 100Q547 100 547 100L547 100ZM596 100Q592 100 590 98Q589 97 589 94L589 94Q589 93 589 91L589 91L592 66L592 66Q592 66 592 66L592 66L586 66Q585 66 585 65Q585 65 585 65L585 65L586 62Q586 62 586 62Q586 62 586 62L586 62L592 62Q593 62 593 62Q593 61 593 61L593 61L596 50Q596 49 596 49L596 49L599 49Q600 49 599 50L599 50L598 61Q598 62 598 62L598 62L608 62Q608 62 608 62Q608 62 608 62L608 62L608 65Q608 65 608 65Q608 66 607 66L607 66L598 66Q597 66 597 66L597 66L594 90Q593 92 593 93L593 93Q593 95 594 96Q595 96 597 96L597 96L603 96Q603 96 603 96Q603 97 603 97L603 97L603 99Q603 100 602 100L602 100Q600 100 596 100L596 100ZM639 48L639 53Q638 54 638 54Q638 54 637 54L637 54L634 54Q633 54 633 53L633 53L634 48Q634 47 635 47L635 47L639 47Q639 47 639 47Q640 47 639 48L639 48ZM637 63L632 99Q632 100 632 100Q631 100 631 100L631 100L628 100Q627 100 627 99L627 99L632 63Q632 62 632 62Q633 62 633 62L633 62L636 62Q637 62 637 63L637 63ZM655 100Q652 100 650 98Q648 97 648 94L648 94Q648 93 648 91L648 91L652 66L652 66Q652 66 651 66L651 66L645 66Q645 66 645 65Q644 65 644 65L644 65L645 62Q645 62 645 62Q645 62 645 62L645 62L652 62Q652 62 652 62Q652 61 652 61L652 61L655 50Q655 49 656 49L656 49L658 49Q659 49 659 50L659 50L657 61Q657 62 658 62L658 62L667 62Q667 62 668 62Q668 62 668 62L668 62L667 65Q667 65 667 65Q667 66 667 66L667 66L657 66Q657 66 656 66L656 66L653 90Q653 92 653 93L653 93Q653 95 654 96Q655 96 657 96L657 96L662 96Q662 96 662 96Q663 97 663 97L663 97L662 99Q662 100 662 100L662 100Q660 100 655 100L655 100ZM694 95Q688 101 680 101L680 101Q675 101 672 98Q669 96 669 92L669 92Q669 85 675 81Q681 78 689 78L689 78L696 77Q697 77 697 77Q697 76 697 76L697 76L698 74Q698 73 698 72L698 72Q698 69 696 67Q693 65 689 65L689 65Q683 65 677 71L677 71Q677 71 677 71Q677 71 677 71L677 71L674 70Q673 70 673 69L673 69Q673 69 674 69L674 69Q676 65 680 63Q685 61 690 61L690 61Q696 61 699 64Q702 67 702 71L702 71Q702 72 702 74L702 74L699 99Q699 100 698 100Q698 100 698 100L698 100L695 100Q694 100 694 99L694 99L695 95Q695 95 695 95L695 95Q694 95 694 95L694 95ZM696 88L697 81L697 81Q697 80 696 80Q696 80 696 80L696 80L690 81Q674 82 674 91L674 91Q674 94 676 95Q678 97 682 97L682 97Q684 97 687 96Q689 95 691 94L691 94Q693 92 694 91Q696 89 696 88L696 88ZM722 48L715 99Q715 100 714 100Q714 100 714 100L714 100L711 100Q710 100 710 99L710 99L717 47Q717 47 718 47Q718 47 718 47L718 47L721 47Q722 47 722 48L722 48ZM739 48L738 53Q738 54 738 54Q738 54 737 54L737 54L734 54Q733 54 733 53L733 53L734 48Q734 47 735 47L735 47L738 47Q739 47 739 47Q739 47 739 48L739 48ZM737 63L731 99Q731 100 731 100Q731 100 730 100L730 100L728 100Q727 100 727 99L727 99L732 63Q732 62 732 62Q732 62 733 62L733 62L736 62Q737 62 737 63L737 63ZM764 61Q774 61 777 70L777 70Q778 70 778 70L778 70Q778 71 777 71L777 71L774 72L774 72Q774 72 773 71L773 71Q771 68 769 66Q767 65 764 65L764 65Q759 65 756 68Q752 71 750 75Q748 80 748 85L748 85Q748 90 751 94Q754 97 759 97L759 97Q763 97 766 95Q769 94 772 90L772 90Q772 89 772 90L772 90L775 91Q775 91 775 91Q775 92 775 92L775 92Q772 96 768 98Q764 101 759 101L759 101Q752 101 748 96Q743 92 743 85L743 85Q743 79 746 73Q748 68 753 65Q758 61 764 61L764 61Z"/></svg>