<svg xmlns="http://www.w3.org/2000/svg" viewBox="0.45 -8.3 85.33999999999999 8.41"><path d="M7.06-1.97L6.91 0L0.45 0L0.45-0.38Q0.80-0.39 1.02-0.44Q1.23-0.49 1.35-0.61Q1.47-0.73 1.51-0.95Q1.55-1.17 1.55-1.52L1.55-1.52L1.55-6.18Q1.55-6.53 1.52-6.75Q1.48-6.96 1.38-7.08Q1.27-7.21 1.07-7.25Q0.87-7.30 0.55-7.32L0.55-7.32L0.55-7.70L3.59-7.70L3.59-7.32Q3.27-7.31 3.08-7.26Q2.88-7.21 2.77-7.08Q2.67-6.95 2.64-6.72Q2.60-6.49 2.60-6.11L2.60-6.11L2.60-1.80Q2.60-1.38 2.69-1.11Q2.77-0.85 2.98-0.70Q3.18-0.56 3.52-0.51Q3.86-0.45 4.38-0.45L4.38-0.45Q4.95-0.45 5.34-0.52Q5.73-0.58 6.00-0.74Q6.26-0.91 6.42-1.21Q6.57-1.50 6.68-1.97L6.68-1.97L7.06-1.97ZM9.55-5.40L9.55-1.59Q9.55-1.20 9.59-0.96Q9.62-0.73 9.72-0.59Q9.82-0.46 10-0.41Q10.18-0.36 10.48-0.35L10.48-0.35L10.48 0L7.61 0L7.61-0.35Q7.91-0.36 8.10-0.42Q8.29-0.47 8.39-0.59Q8.50-0.72 8.54-0.95Q8.57-1.17 8.57-1.52L8.57-1.52L8.57-2.80Q8.57-3.38 8.55-3.75Q8.54-4.13 8.50-4.27L8.50-4.27Q8.45-4.50 8.27-4.58Q8.09-4.67 7.59-4.67L7.59-4.67L7.59-5.02L9.55-5.40ZM8.40-7.43L8.40-7.43Q8.40-7.69 8.58-7.87Q8.76-8.05 9.02-8.05L9.02-8.05Q9.28-8.05 9.46-7.87Q9.64-7.69 9.64-7.43L9.64-7.43Q9.64-7.17 9.46-6.99Q9.28-6.81 9.02-6.81L9.02-6.81Q8.76-6.81 8.58-6.99Q8.40-7.17 8.40-7.43ZM12.57-2.98L12.57-2.09Q12.57-1.71 12.68-1.40Q12.79-1.08 12.98-0.85Q13.18-0.63 13.46-0.50Q13.73-0.37 14.05-0.37L14.05-0.37Q14.40-0.37 14.68-0.53Q14.97-0.69 15.18-0.98Q15.38-1.28 15.50-1.70Q15.61-2.11 15.61-2.62L15.61-2.62Q15.61-3.13 15.49-3.56Q15.37-3.98 15.16-4.29Q14.95-4.59 14.65-4.76Q14.36-4.93 14.01-4.93L14.01-4.93Q13.60-4.93 13.28-4.74Q12.96-4.54 12.79-4.19L12.79-4.19Q12.57-3.75 12.57-2.98L12.57-2.98ZM12.55-8.30L12.55-4.59L12.59-4.59Q12.91-5.01 13.29-5.21Q13.68-5.40 14.19-5.40L14.19-5.40Q14.73-5.40 15.20-5.19Q15.66-4.98 16.00-4.61Q16.35-4.24 16.55-3.73Q16.74-3.23 16.74-2.65L16.74-2.65Q16.74-2.06 16.54-1.55Q16.34-1.05 16.00-0.68Q15.65-0.31 15.18-0.10Q14.71 0.11 14.16 0.11L14.16 0.11Q13.59 0.11 13.09-0.10Q12.60-0.31 12.28-0.67L12.28-0.67L11.81 0L11.59 0L11.59-6.04Q11.59-7.05 11.46-7.33L11.46-7.33Q11.43-7.40 11.39-7.45Q11.35-7.49 11.27-7.53Q11.19-7.56 11.05-7.59Q10.91-7.62 10.67-7.65L10.67-7.65L10.67-7.90L12.55-8.30ZM19.44-1.93L19.44-1.59Q19.44-1.18 19.46-0.94Q19.48-0.70 19.56-0.58Q19.65-0.45 19.81-0.41Q19.97-0.37 20.26-0.35L20.26-0.35L20.26 0L17.60 0L17.60-0.35Q17.89-0.36 18.06-0.41Q18.23-0.45 18.32-0.57Q18.41-0.69 18.43-0.92Q18.46-1.14 18.46-1.52L18.46-1.52L18.46-2.69Q18.46-3.37 18.45-3.75Q18.43-4.13 18.34-4.31Q18.26-4.49 18.08-4.53Q17.90-4.56 17.58-4.56L17.58-4.56L17.58-4.91L19.33-5.29L19.47-4.05L19.51-4.05Q19.64-4.35 19.84-4.60Q20.03-4.85 20.26-5.03Q20.49-5.20 20.74-5.30Q20.99-5.40 21.25-5.40L21.25-5.40Q21.57-5.40 21.75-5.25Q21.94-5.09 21.94-4.83L21.94-4.83Q21.94-4.59 21.79-4.46Q21.64-4.32 21.36-4.32L21.36-4.32Q21.20-4.32 21.09-4.36Q20.98-4.40 20.89-4.45Q20.81-4.49 20.73-4.53Q20.66-4.57 20.57-4.57L20.57-4.57Q20.30-4.57 20.03-4.22Q19.76-3.88 19.61-3.35L19.61-3.35Q19.53-3.06 19.48-2.69Q19.44-2.33 19.44-1.93L19.44-1.93ZM26.79-1.21L27.10-0.93Q26.25 0.10 24.99 0.10L24.99 0.10Q24.40 0.10 23.92-0.10Q23.44-0.29 23.09-0.65Q22.75-1 22.56-1.50Q22.37-1.99 22.37-2.59L22.37-2.59Q22.37-3.20 22.57-3.72Q22.77-4.24 23.13-4.61Q23.50-4.98 24.00-5.19Q24.51-5.40 25.11-5.40L25.11-5.40Q26.08-5.40 26.61-4.88Q27.14-4.35 27.14-3.37L27.14-3.37Q27.14-3.23 27.09-3.20Q27.03-3.17 26.83-3.17L26.83-3.17L23.54-3.17Q23.52-3.09 23.51-2.98Q23.50-2.86 23.50-2.72L23.50-2.72Q23.50-2.20 23.63-1.78Q23.75-1.35 23.98-1.05Q24.22-0.75 24.54-0.58Q24.87-0.42 25.27-0.42L25.27-0.42Q25.69-0.42 26.05-0.60Q26.41-0.79 26.79-1.21L26.79-1.21ZM23.61-3.63L25.45-3.63Q25.65-3.63 25.77-3.64Q25.89-3.65 25.95-3.68Q26.01-3.71 26.03-3.77Q26.05-3.82 26.05-3.91L26.05-3.91Q26.05-4.37 25.75-4.65Q25.46-4.92 24.95-4.92L24.95-4.92Q23.87-4.92 23.61-3.63L23.61-3.63ZM34.46 0L30.86 0L30.86-0.38Q31.25-0.39 31.48-0.44Q31.72-0.49 31.84-0.61Q31.97-0.73 32.02-0.95Q32.06-1.17 32.06-1.52L32.06-1.52L32.06-6.18Q32.06-6.53 32.02-6.75Q31.99-6.96 31.89-7.08Q31.78-7.21 31.58-7.25Q31.38-7.30 31.06-7.32L31.06-7.32L31.06-7.70L34.05-7.70Q35.40-7.70 36.15-7.22Q36.90-6.74 36.90-5.87L36.90-5.87Q36.90-5.21 36.48-4.79Q36.07-4.37 35.17-4.10L35.17-4.10L35.17-4.06Q35.48-4.03 35.71-3.99Q35.94-3.95 36.12-3.90Q36.30-3.84 36.45-3.76Q36.61-3.68 36.76-3.58L36.76-3.58Q37.65-2.95 37.65-2L37.65-2Q37.65-1.47 37.36-1.02Q37.06-0.56 36.53-0.30L36.53-0.30Q36.36-0.21 36.18-0.15Q36-0.10 35.76-0.07Q35.52-0.03 35.20-0.01Q34.89 0 34.46 0L34.46 0ZM34.49-0.43L34.49-0.43Q36.30-0.43 36.30-1.98L36.30-1.98Q36.30-3.11 35.37-3.56L35.37-3.56Q35.21-3.63 35.06-3.68Q34.91-3.73 34.71-3.75Q34.51-3.78 34.23-3.79Q33.96-3.80 33.56-3.80L33.56-3.80L33.11-3.80L33.11-1.57Q33.11-0.96 33.43-0.70Q33.75-0.43 34.49-0.43ZM33.11-4.30L33.67-4.30Q33.98-4.30 34.19-4.31Q34.40-4.32 34.55-4.34Q34.70-4.37 34.81-4.42Q34.93-4.46 35.05-4.54L35.05-4.54Q35.37-4.74 35.51-5.02Q35.64-5.30 35.64-5.75L35.64-5.75Q35.64-6.54 35.26-6.88Q34.87-7.23 34.05-7.23L34.05-7.23L33.28-7.23Q33.11-7.23 33.11-7.06L33.11-7.06L33.11-4.30ZM41.64-2.17L41.64-2.96Q41.07-2.74 40.67-2.53Q40.28-2.32 40.04-2.11Q39.80-1.90 39.70-1.69Q39.59-1.48 39.59-1.26L39.59-1.26Q39.59-0.93 39.81-0.72Q40.03-0.51 40.39-0.51L40.39-0.51Q40.65-0.51 40.88-0.64Q41.10-0.77 41.27-0.99Q41.44-1.22 41.54-1.53Q41.64-1.83 41.64-2.17L41.64-2.17ZM40.20-2.76L41.64-3.39L41.64-3.80Q41.64-5.02 40.60-5.02L40.60-5.02Q40.43-5.02 40.31-4.99Q40.19-4.96 40.11-4.89Q40.03-4.82 39.96-4.69Q39.90-4.56 39.84-4.37L39.84-4.37Q39.73-4.08 39.63-3.98Q39.52-3.89 39.32-3.89L39.32-3.89Q38.82-3.89 38.82-4.39L38.82-4.39Q38.82-4.87 39.33-5.13Q39.84-5.40 40.78-5.40L40.78-5.40Q41.78-5.40 42.20-5.04Q42.62-4.69 42.62-3.84L42.62-3.84L42.62-1.60Q42.62-0.46 43.07-0.46L43.07-0.46Q43.21-0.46 43.34-0.49Q43.47-0.53 43.56-0.68L43.56-0.68L43.70-0.44Q43.58-0.21 43.26-0.06Q42.94 0.10 42.59 0.10L42.59 0.10Q42.15 0.10 41.94-0.18Q41.72-0.46 41.72-0.97L41.72-0.97L41.67-0.97Q41.41-0.48 40.95-0.20Q40.49 0.09 39.93 0.09L39.93 0.09Q39.30 0.09 38.94-0.23Q38.58-0.55 38.58-1.09L38.58-1.09Q38.58-1.33 38.66-1.55Q38.75-1.77 38.94-1.97Q39.13-2.17 39.44-2.37Q39.75-2.56 40.20-2.76L40.20-2.76ZM44.75-0.35L44.55 0L44.33 0L44.33-1.72L44.58-1.72Q44.97-0.31 46-0.31L46-0.31Q46.40-0.31 46.63-0.51Q46.87-0.70 46.87-1.10L46.87-1.10Q46.87-1.25 46.82-1.35Q46.78-1.46 46.66-1.57Q46.53-1.69 46.30-1.84Q46.08-1.99 45.71-2.22L45.71-2.22Q45.37-2.43 45.12-2.61Q44.87-2.79 44.70-2.98Q44.53-3.16 44.45-3.37Q44.36-3.58 44.36-3.86L44.36-3.86Q44.36-4.20 44.47-4.49Q44.59-4.77 44.79-4.97Q44.99-5.17 45.26-5.29Q45.53-5.40 45.85-5.40L45.85-5.40Q46.12-5.40 46.41-5.32Q46.70-5.23 46.92-5.09L46.92-5.09L47.12-5.30L47.31-5.30L47.31-3.86L47.05-3.86Q46.83-4.47 46.57-4.73Q46.31-4.99 45.93-4.99L45.93-4.99Q45.59-4.99 45.38-4.81Q45.18-4.63 45.18-4.31L45.18-4.31Q45.18-4.14 45.23-4.01Q45.29-3.89 45.41-3.77Q45.53-3.65 45.71-3.52Q45.90-3.40 46.16-3.24L46.16-3.24Q46.59-2.97 46.89-2.76Q47.20-2.55 47.39-2.35Q47.58-2.14 47.67-1.92Q47.76-1.70 47.76-1.42L47.76-1.42Q47.76-0.71 47.30-0.30Q46.84 0.10 46.09 0.10L46.09 0.10Q45.31 0.10 44.75-0.35L44.75-0.35ZM51.71 0L51.71-0.35Q52.04-0.35 52.16-0.38Q52.29-0.41 52.29-0.46L52.29-0.46Q52.28-0.54 52.13-0.75Q51.98-0.96 51.74-1.25L51.74-1.25L50.68-2.53L50.31-2.18L50.31-1.59Q50.31-1.20 50.34-0.96Q50.38-0.73 50.47-0.59Q50.57-0.46 50.75-0.41Q50.94-0.36 51.24-0.35L51.24-0.35L51.24 0L48.40 0L48.40-0.35Q48.70-0.36 48.88-0.41Q49.07-0.46 49.17-0.59Q49.28-0.72 49.32-0.94Q49.36-1.16 49.36-1.52L49.36-1.52L49.36-5.71Q49.36-6.47 49.34-6.86Q49.33-7.25 49.24-7.39L49.24-7.39Q49.15-7.53 48.94-7.55Q48.73-7.58 48.38-7.58L48.38-7.58L48.38-7.92L50.31-8.30L50.31-2.81L51.24-3.72Q51.69-4.17 51.91-4.38Q52.13-4.60 52.13-4.71L52.13-4.71Q52.13-4.82 51.92-4.88Q51.71-4.95 51.32-4.95L51.32-4.95L51.32-5.30L53.92-5.30L53.92-4.95Q53.73-4.95 53.59-4.93Q53.45-4.91 53.32-4.85Q53.20-4.79 53.06-4.69Q52.92-4.58 52.74-4.42L52.74-4.42L51.30-3.14L53.28-0.90Q53.42-0.73 53.53-0.63Q53.65-0.52 53.77-0.46Q53.88-0.40 54.02-0.38Q54.15-0.35 54.34-0.35L54.34-0.35L54.34 0L51.71 0ZM58.93-1.21L59.24-0.93Q58.39 0.10 57.13 0.10L57.13 0.10Q56.54 0.10 56.06-0.10Q55.58-0.29 55.24-0.65Q54.89-1 54.70-1.50Q54.51-1.99 54.51-2.59L54.51-2.59Q54.51-3.20 54.71-3.72Q54.91-4.24 55.28-4.61Q55.64-4.98 56.15-5.19Q56.65-5.40 57.25-5.40L57.25-5.40Q58.22-5.40 58.75-4.88Q59.28-4.35 59.28-3.37L59.28-3.37Q59.28-3.23 59.23-3.20Q59.17-3.17 58.97-3.17L58.97-3.17L55.68-3.17Q55.66-3.09 55.65-2.98Q55.64-2.86 55.64-2.72L55.64-2.72Q55.64-2.20 55.77-1.78Q55.89-1.35 56.13-1.05Q56.36-0.75 56.69-0.58Q57.01-0.42 57.41-0.42L57.41-0.42Q57.83-0.42 58.19-0.60Q58.55-0.79 58.93-1.21L58.93-1.21ZM55.75-3.63L57.59-3.63Q57.79-3.63 57.91-3.64Q58.03-3.65 58.09-3.68Q58.15-3.71 58.17-3.77Q58.19-3.82 58.19-3.91L58.19-3.91Q58.19-4.37 57.90-4.65Q57.60-4.92 57.09-4.92L57.09-4.92Q56.01-4.92 55.75-3.63L55.75-3.63ZM61.97-1.93L61.97-1.59Q61.97-1.18 61.99-0.94Q62.01-0.70 62.09-0.58Q62.18-0.45 62.34-0.41Q62.50-0.37 62.79-0.35L62.79-0.35L62.79 0L60.13 0L60.13-0.35Q60.42-0.36 60.59-0.41Q60.76-0.45 60.85-0.57Q60.94-0.69 60.97-0.92Q60.99-1.14 60.99-1.52L60.99-1.52L60.99-2.69Q60.99-3.37 60.98-3.75Q60.96-4.13 60.88-4.31Q60.79-4.49 60.61-4.53Q60.43-4.56 60.11-4.56L60.11-4.56L60.11-4.91L61.86-5.29L62-4.05L62.04-4.05Q62.17-4.35 62.37-4.60Q62.56-4.85 62.79-5.03Q63.02-5.20 63.27-5.30Q63.52-5.40 63.78-5.40L63.78-5.40Q64.10-5.40 64.28-5.25Q64.47-5.09 64.47-4.83L64.47-4.83Q64.47-4.59 64.32-4.46Q64.17-4.32 63.89-4.32L63.89-4.32Q63.73-4.32 63.62-4.36Q63.51-4.40 63.42-4.45Q63.34-4.49 63.27-4.53Q63.19-4.57 63.10-4.57L63.10-4.57Q62.83-4.57 62.56-4.22Q62.29-3.88 62.14-3.35L62.14-3.35Q62.06-3.06 62.02-2.69Q61.97-2.33 61.97-1.93L61.97-1.93ZM67.25 0.11L65.56-4.06Q65.44-4.36 65.34-4.54Q65.25-4.71 65.14-4.80Q65.03-4.89 64.89-4.92Q64.76-4.94 64.57-4.95L64.57-4.95L64.57-5.30L67.22-5.30L67.22-4.95Q67.02-4.94 66.89-4.93Q66.76-4.92 66.69-4.88Q66.61-4.85 66.58-4.79Q66.55-4.72 66.55-4.60L66.55-4.60Q66.55-4.43 66.59-4.28Q66.64-4.13 66.69-3.98L66.69-3.98L67.75-1.08L67.79-1.08L68.70-3.23Q68.91-3.73 69-4.03Q69.09-4.33 69.09-4.56L69.09-4.56Q69.09-4.79 68.97-4.87Q68.85-4.95 68.45-4.95L68.45-4.95L68.45-5.30L70.44-5.30L70.44-4.95Q70.28-4.95 70.15-4.87Q70.02-4.79 69.92-4.67L69.92-4.67Q69.84-4.56 69.75-4.38Q69.67-4.19 69.58-3.99Q69.50-3.79 69.43-3.60Q69.36-3.40 69.30-3.28L69.30-3.28L67.83 0.11L67.25 0.11ZM72.90-5.40L72.90-1.59Q72.90-1.20 72.93-0.96Q72.97-0.73 73.07-0.59Q73.17-0.46 73.35-0.41Q73.53-0.36 73.83-0.35L73.83-0.35L73.83 0L70.96 0L70.96-0.35Q71.26-0.36 71.45-0.42Q71.64-0.47 71.74-0.59Q71.85-0.72 71.88-0.95Q71.92-1.17 71.92-1.52L71.92-1.52L71.92-2.80Q71.92-3.38 71.90-3.75Q71.89-4.13 71.85-4.27L71.85-4.27Q71.80-4.50 71.62-4.58Q71.44-4.67 70.94-4.67L70.94-4.67L70.94-5.02L72.90-5.40ZM71.75-7.43L71.75-7.43Q71.75-7.69 71.93-7.87Q72.11-8.05 72.37-8.05L72.37-8.05Q72.63-8.05 72.81-7.87Q72.99-7.69 72.99-7.43L72.99-7.43Q72.99-7.17 72.81-6.99Q72.63-6.81 72.37-6.81L72.37-6.81Q72.11-6.81 71.93-6.99Q71.75-7.17 71.75-7.43ZM76.12-8.30L76.12-1.56Q76.12-1.18 76.15-0.95Q76.18-0.72 76.27-0.59Q76.37-0.46 76.54-0.41Q76.72-0.36 77.01-0.35L77.01-0.35L77.01 0L74.25 0L74.25-0.35Q74.55-0.36 74.73-0.42Q74.91-0.47 75.01-0.59Q75.12-0.71 75.15-0.93Q75.19-1.14 75.19-1.49L75.19-1.49L75.19-5.80Q75.19-6.34 75.17-6.71Q75.16-7.07 75.13-7.20L75.13-7.20Q75.08-7.43 74.89-7.51Q74.71-7.59 74.23-7.59L74.23-7.59L74.23-7.93L76.12-8.30ZM79.37-8.30L79.37-1.56Q79.37-1.18 79.40-0.95Q79.43-0.72 79.52-0.59Q79.62-0.46 79.79-0.41Q79.97-0.36 80.26-0.35L80.26-0.35L80.26 0L77.50 0L77.50-0.35Q77.80-0.36 77.98-0.42Q78.16-0.47 78.26-0.59Q78.37-0.71 78.40-0.93Q78.44-1.14 78.44-1.49L78.44-1.49L78.44-5.80Q78.44-6.34 78.42-6.71Q78.41-7.07 78.38-7.20L78.38-7.20Q78.33-7.43 78.14-7.51Q77.96-7.59 77.48-7.59L77.48-7.59L77.48-7.93L79.37-8.30ZM85.44-1.21L85.75-0.93Q84.90 0.10 83.64 0.10L83.64 0.10Q83.05 0.10 82.57-0.10Q82.09-0.29 81.74-0.65Q81.40-1 81.21-1.50Q81.02-1.99 81.02-2.59L81.02-2.59Q81.02-3.20 81.22-3.72Q81.42-4.24 81.78-4.61Q82.15-4.98 82.65-5.19Q83.16-5.40 83.76-5.40L83.76-5.40Q84.73-5.40 85.26-4.88Q85.79-4.35 85.79-3.37L85.79-3.37Q85.79-3.23 85.73-3.20Q85.68-3.17 85.48-3.17L85.48-3.17L82.19-3.17Q82.17-3.09 82.16-2.98Q82.15-2.86 82.15-2.72L82.15-2.72Q82.15-2.20 82.27-1.78Q82.40-1.35 82.63-1.05Q82.87-0.75 83.19-0.58Q83.52-0.42 83.92-0.42L83.92-0.42Q84.34-0.42 84.70-0.60Q85.06-0.79 85.44-1.21L85.44-1.21ZM82.26-3.63L84.10-3.63Q84.30-3.63 84.42-3.64Q84.54-3.65 84.60-3.68Q84.66-3.71 84.68-3.77Q84.70-3.82 84.70-3.91L84.70-3.91Q84.70-4.37 84.40-4.65Q84.11-4.92 83.60-4.92L83.60-4.92Q82.52-4.92 82.26-3.63L82.26-3.63Z"/></svg>