<svg xmlns="http://www.w3.org/2000/svg" viewBox="0.7769238281249999 -7.42 59.633076171875 7.52"><path d="M1.80-7.33Q1.81-7.39 1.83-7.41Q1.85-7.42 1.91-7.42L1.91-7.42L2.19-7.42Q2.24-7.42 2.25-7.40Q2.26-7.37 2.25-7.31L2.25-7.31L1.30-0.48Q1.29-0.43 1.30-0.42Q1.31-0.40 1.36-0.40L1.36-0.40L4.99-0.40Q5.04-0.40 5.06-0.39Q5.08-0.37 5.07-0.32L5.07-0.32L5.04-0.06Q5.04-0.03 5.03-0.01Q5.01 0 4.97 0L4.97 0L0.87 0Q0.76 0 0.78-0.11L0.78-0.11L1.80-7.33ZM7.88-7.28L7.78-6.59Q7.77-6.51 7.75-6.48Q7.72-6.44 7.65-6.44L7.65-6.44L7.38-6.44Q7.26-6.44 7.28-6.59L7.28-6.59L7.38-7.30Q7.40-7.42 7.51-7.42L7.51-7.42L7.77-7.42Q7.82-7.42 7.86-7.38Q7.89-7.34 7.88-7.28L7.88-7.28ZM7.54-5.19L6.82-0.11Q6.81-0.03 6.79-0.01Q6.77 0 6.70 0L6.70 0L6.53 0Q6.46 0 6.44-0.03Q6.41-0.05 6.42-0.11L6.42-0.11L7.14-5.21Q7.15-5.27 7.17-5.29Q7.18-5.30 7.23-5.30L7.23-5.30L7.45-5.30Q7.55-5.30 7.54-5.19L7.54-5.19ZM8.86 0L8.75 0Q8.62 0 8.65-0.14L8.65-0.14L9.66-7.33Q9.67-7.38 9.69-7.40Q9.71-7.42 9.75-7.42L9.75-7.42L9.98-7.42Q10.07-7.42 10.05-7.30L10.05-7.30L9.70-4.77L9.69-4.71Q9.69-4.68 9.71-4.68L9.71-4.68Q9.72-4.68 9.81-4.75L9.81-4.75Q9.83-4.77 10.25-5.08Q10.68-5.40 11.62-5.40L11.62-5.40Q12.56-5.40 13.02-4.83Q13.47-4.26 13.47-3.30L13.47-3.30Q13.47-2.47 13.17-1.69Q12.87-0.90 12.26-0.40Q11.65 0.10 10.77 0.10L10.77 0.10Q10.10 0.10 9.73-0.16Q9.37-0.42 9.22-0.69L9.22-0.69Q9.21-0.72 9.17-0.72L9.17-0.72Q9.13-0.72 9.11-0.63L9.11-0.63L9.01-0.12Q9-0.04 8.97-0.02Q8.95 0 8.86 0L8.86 0ZM9.62-4.14L9.27-1.76Q9.26-1.71 9.26-1.60L9.26-1.60Q9.26-1.24 9.47-0.94Q9.68-0.64 10.02-0.46Q10.36-0.28 10.75-0.28L10.75-0.28Q11.47-0.28 11.99-0.71Q12.51-1.14 12.78-1.82Q13.04-2.51 13.04-3.25L13.04-3.25Q13.04-4.09 12.66-4.55Q12.27-5.02 11.53-5.02L11.53-5.02Q11-5.02 10.50-4.78Q10-4.53 9.62-4.14L9.62-4.14ZM14.65 0Q14.60 0 14.57-0.03Q14.55-0.06 14.56-0.10L14.56-0.10L15.28-5.22Q15.29-5.27 15.30-5.29Q15.32-5.30 15.36-5.30L15.36-5.30L15.57-5.30Q15.67-5.30 15.65-5.21L15.65-5.21L15.55-4.55L15.55-4.53Q15.55-4.49 15.57-4.49Q15.60-4.49 15.64-4.53L15.64-4.53Q16.12-5.01 16.52-5.21Q16.91-5.40 17.33-5.40L17.33-5.40Q17.70-5.40 17.68-5.29L17.68-5.29L17.64-5.03Q17.64-4.99 17.61-4.99L17.61-4.99Q17.57-4.99 17.50-5.00Q17.44-5 17.31-5L17.31-5Q16.98-5 16.56-4.79Q16.14-4.59 15.82-4.28Q15.50-3.96 15.46-3.64L15.46-3.64L14.96-0.08Q14.95 0 14.87 0L14.87 0L14.65 0ZM20.09 0.10Q19.13 0.10 18.56-0.50Q17.99-1.10 17.99-2.11L17.99-2.11Q17.99-2.95 18.33-3.71Q18.67-4.46 19.31-4.93Q19.96-5.40 20.83-5.40L20.83-5.40Q21.76-5.40 22.28-4.85Q22.80-4.30 22.80-3.31L22.80-3.31Q22.80-3 22.76-2.72L22.76-2.72Q22.75-2.64 22.70-2.59Q22.65-2.54 22.57-2.54L22.57-2.54L18.51-2.54Q18.44-2.54 18.41-2.46Q18.39-2.37 18.39-2.08L18.39-2.08Q18.39-1.27 18.87-0.78Q19.35-0.28 20.11-0.28L20.11-0.28Q21.30-0.28 22-1.23L22-1.23Q22.06-1.29 22.11-1.24L22.11-1.24L22.32-1.09Q22.37-1.06 22.34-0.98L22.34-0.98Q21.49 0.10 20.09 0.10L20.09 0.10ZM18.49-2.90L22.19-2.90Q22.31-2.90 22.36-2.99Q22.41-3.08 22.41-3.39L22.41-3.39Q22.41-4.13 21.97-4.58Q21.53-5.02 20.80-5.02L20.80-5.02Q20.17-5.02 19.66-4.71Q19.16-4.40 18.86-3.91Q18.56-3.42 18.49-2.90L18.49-2.90ZM27.24-7.32Q27.25-7.39 27.27-7.41Q27.29-7.42 27.34-7.42L27.34-7.42L31.38-7.42Q31.47-7.42 31.45-7.34L31.45-7.34L31.42-7.10Q31.41-7.02 31.33-7.02L31.33-7.02L27.75-7.02Q27.70-7.02 27.67-7Q27.65-6.98 27.64-6.92L27.64-6.92L27.22-3.91L27.22-3.88Q27.22-3.82 27.29-3.82L27.29-3.82L30.27-3.82Q30.34-3.82 30.34-3.75L30.34-3.75L30.32-3.51Q30.32-3.42 30.23-3.42L30.23-3.42L27.23-3.42Q27.18-3.42 27.16-3.40Q27.15-3.38 27.13-3.32L27.13-3.32L26.68-0.06Q26.67 0 26.58 0L26.58 0L26.28 0Q26.23 0 26.22-0.02Q26.21-0.04 26.22-0.11L26.22-0.11L27.24-7.32ZM31.41 0Q31.36 0 31.33-0.03Q31.31-0.06 31.32-0.10L31.32-0.10L32.04-5.22Q32.05-5.27 32.06-5.29Q32.08-5.30 32.12-5.30L32.12-5.30L32.33-5.30Q32.43-5.30 32.41-5.21L32.41-5.21L32.31-4.55L32.31-4.53Q32.31-4.49 32.33-4.49Q32.36-4.49 32.40-4.53L32.40-4.53Q32.88-5.01 33.27-5.21Q33.67-5.40 34.09-5.40L34.09-5.40Q34.46-5.40 34.44-5.29L34.44-5.29L34.40-5.03Q34.40-4.99 34.37-4.99L34.37-4.99Q34.33-4.99 34.26-5.00Q34.20-5 34.07-5L34.07-5Q33.74-5 33.32-4.79Q32.90-4.59 32.58-4.28Q32.26-3.96 32.22-3.64L32.22-3.64L31.72-0.08Q31.71 0 31.63 0L31.63 0L31.41 0ZM38.15-0.70Q37.22 0.10 36.14 0.10L36.14 0.10Q35.42 0.10 35.02-0.23Q34.61-0.56 34.61-1.13L34.61-1.13Q34.61-2.07 35.38-2.52Q36.16-2.98 37.33-3.08L37.33-3.08L38.39-3.17Q38.47-3.18 38.53-3.22Q38.59-3.26 38.60-3.33L38.60-3.33L38.64-3.64Q38.66-3.80 38.66-3.88L38.66-3.88Q38.66-4.41 38.31-4.71Q37.96-5.02 37.36-5.02L37.36-5.02Q36.85-5.02 36.40-4.79Q35.95-4.55 35.54-4.08L35.54-4.08Q35.51-4.05 35.49-4.05Q35.47-4.05 35.44-4.07L35.44-4.07L35.22-4.22Q35.17-4.25 35.22-4.33L35.22-4.33Q35.62-4.82 36.17-5.11Q36.73-5.40 37.40-5.40L37.40-5.40Q38.17-5.40 38.61-5.01Q39.06-4.63 39.06-3.96L39.06-3.96Q39.06-3.86 39.04-3.66L39.04-3.66L38.54-0.09Q38.53-0.03 38.51-0.01Q38.49 0 38.44 0L38.44 0L38.26 0Q38.16 0 38.17-0.10L38.17-0.10L38.24-0.71Q38.24-0.76 38.22-0.76L38.22-0.76Q38.19-0.76 38.15-0.70L38.15-0.70ZM38.37-1.72L38.50-2.67L38.50-2.71Q38.50-2.77 38.48-2.79Q38.45-2.81 38.39-2.80L38.39-2.80L37.49-2.73Q35.04-2.55 35.04-1.18L35.04-1.18Q35.04-0.75 35.35-0.52Q35.67-0.28 36.22-0.28L36.22-0.28Q36.59-0.28 36.96-0.42Q37.33-0.55 37.65-0.78L37.65-0.78Q37.96-1 38.15-1.25Q38.34-1.49 38.37-1.72L38.37-1.72ZM40.35 0Q40.30 0 40.27-0.03Q40.25-0.06 40.26-0.10L40.26-0.10L40.98-5.22Q40.99-5.27 41.01-5.29Q41.02-5.30 41.06-5.30L41.06-5.30L41.27-5.30Q41.37-5.30 41.35-5.21L41.35-5.21L41.26-4.59Q41.25-4.53 41.27-4.52Q41.28-4.51 41.33-4.55L41.33-4.55Q41.89-4.98 42.38-5.19Q42.86-5.40 43.38-5.40L43.38-5.40Q44.09-5.40 44.46-5.07Q44.83-4.74 44.83-4.18L44.83-4.18Q44.83-4.10 44.81-3.92L44.81-3.92L44.27-0.09Q44.26-0.04 44.25-0.02Q44.23 0 44.18 0L44.18 0L43.96 0Q43.91 0 43.88-0.03Q43.86-0.06 43.87-0.10L43.87-0.10L44.39-3.78Q44.41-3.98 44.41-4.08L44.41-4.08Q44.41-5.02 43.35-5.02L43.35-5.02Q42.85-5.02 42.42-4.82Q41.99-4.61 41.23-4.09L41.23-4.09L40.66-0.08Q40.65 0 40.57 0L40.57 0L40.35 0ZM50.14-0.11Q50.17-0.04 50.16-0.02Q50.16 0 50.10 0L50.10 0L49.79 0Q49.71 0 49.68-0.08L49.68-0.08L48.27-3Q48.25-3.02 48.23-3.02Q48.22-3.01 48.19-2.98L48.19-2.98L46.72-1.68Q46.63-1.59 46.62-1.51L46.62-1.51L46.42-0.11Q46.41-0.03 46.39-0.01Q46.37 0 46.30 0L46.30 0L46.13 0Q46.06 0 46.03-0.03Q46.01-0.05 46.02-0.11L46.02-0.11L47.04-7.33Q47.05-7.39 47.06-7.41Q47.08-7.42 47.13-7.42L47.13-7.42L47.35-7.42Q47.46-7.42 47.43-7.31L47.43-7.31L46.74-2.33Q46.73-2.30 46.73-2.26L46.73-2.26Q46.73-2.24 46.74-2.24L46.74-2.24Q46.75-2.24 46.82-2.30L46.82-2.30L50.07-5.21Q50.13-5.27 50.16-5.29Q50.20-5.30 50.25-5.30L50.25-5.30L50.57-5.30Q50.66-5.30 50.66-5.24L50.66-5.24Q50.66-5.20 50.59-5.14L50.59-5.14L48.66-3.41Q48.59-3.36 48.61-3.30L48.61-3.30L50.14-0.11ZM52.81-7.31L51.80-0.11Q51.79-0.03 51.77-0.01Q51.75 0 51.68 0L51.68 0L51.51 0Q51.44 0 51.41-0.03Q51.39-0.05 51.40-0.11L51.40-0.11L52.42-7.33Q52.43-7.39 52.45-7.41Q52.46-7.42 52.51-7.42L52.51-7.42L52.73-7.42Q52.84-7.42 52.81-7.31L52.81-7.31ZM55.08-7.28L54.98-6.59Q54.97-6.51 54.95-6.48Q54.92-6.44 54.85-6.44L54.85-6.44L54.58-6.44Q54.46-6.44 54.48-6.59L54.48-6.59L54.58-7.30Q54.60-7.42 54.71-7.42L54.71-7.42L54.97-7.42Q55.02-7.42 55.05-7.38Q55.09-7.34 55.08-7.28L55.08-7.28ZM54.74-5.19L54.02-0.11Q54.01-0.03 53.99-0.01Q53.97 0 53.90 0L53.90 0L53.73 0Q53.66 0 53.63-0.03Q53.61-0.05 53.62-0.11L53.62-0.11L54.34-5.21Q54.35-5.27 54.37-5.29Q54.38-5.30 54.43-5.30L54.43-5.30L54.65-5.30Q54.75-5.30 54.74-5.19L54.74-5.19ZM55.93 0Q55.88 0 55.85-0.03Q55.83-0.06 55.84-0.10L55.84-0.10L56.56-5.22Q56.57-5.27 56.59-5.29Q56.60-5.30 56.64-5.30L56.64-5.30L56.85-5.30Q56.95-5.30 56.93-5.21L56.93-5.21L56.84-4.59Q56.83-4.53 56.84-4.52Q56.86-4.51 56.91-4.55L56.91-4.55Q57.47-4.98 57.95-5.19Q58.44-5.40 58.96-5.40L58.96-5.40Q59.67-5.40 60.04-5.07Q60.41-4.74 60.41-4.18L60.41-4.18Q60.41-4.10 60.39-3.92L60.39-3.92L59.85-0.09Q59.84-0.04 59.83-0.02Q59.81 0 59.76 0L59.76 0L59.54 0Q59.49 0 59.46-0.03Q59.44-0.06 59.45-0.10L59.45-0.10L59.97-3.78Q59.99-3.98 59.99-4.08L59.99-4.08Q59.99-5.02 58.93-5.02L58.93-5.02Q58.43-5.02 58-4.82Q57.57-4.61 56.81-4.09L56.81-4.09L56.24-0.08Q56.23 0 56.15 0L56.15 0L55.93 0Z"/></svg>