<svg xmlns="http://www.w3.org/2000/svg" viewBox="-1.8000000000000003 40.239999999999995 757.2239999999999 60.480000000000004"><path d="M-1.80 100L-1.01 97.12Q1.37 97.12 2.92 96.76Q4.46 96.40 5.51 95.43Q6.55 94.46 7.27 92.84Q7.99 91.22 8.64 88.62L8.64 88.62L16.78 56.80Q17.28 54.78 17.57 53.34Q17.86 51.90 17.86 50.90L17.86 50.90Q17.86 48.95 16.60 48.20Q15.34 47.44 12.31 47.44L12.31 47.44L10.73 47.44L11.52 44.56L34.92 44.56L34.13 47.44Q31.75 47.44 30.17 47.91Q28.58 48.38 27.43 49.67Q26.28 50.97 25.38 53.27Q24.48 55.58 23.54 59.25L23.54 59.25L16.06 87.76Q15.41 90.14 15.41 91.79L15.41 91.79Q15.41 94.38 17.17 95.64Q18.94 96.90 23.47 96.90L23.47 96.90Q27.79 96.90 30.92 96.18Q34.06 95.46 36.43 93.84Q38.81 92.22 40.57 89.67Q42.34 87.11 43.85 83.37L43.85 83.37L47.23 83.37L40.90 100L-1.80 100ZM55.15 85.46L58.39 76.24Q59.40 73.43 59.83 71.70Q60.26 69.98 60.26 68.97L60.26 68.97Q60.26 67.96 59.94 67.64Q59.62 67.31 59.26 67.31L59.26 67.31Q58.46 67.31 57.53 68.07Q56.59 68.82 55.66 69.83Q54.72 70.84 54 71.85Q53.28 72.86 52.99 73.43L52.99 73.43L50.90 72.14Q51.77 70.55 53.32 68.61Q54.86 66.66 56.81 65.01Q58.75 63.35 60.84 62.24Q62.93 61.12 64.80 61.12L64.80 61.12Q66.60 61.12 67.50 62.16Q68.40 63.21 68.40 65.94L68.40 65.94Q68.40 68.03 67.14 71.56Q65.88 75.09 63.86 80.63L63.86 80.63L61.20 87.90Q61.06 88.26 60.80 89.02Q60.55 89.78 60.30 90.60Q60.05 91.43 59.87 92.22Q59.69 93.02 59.69 93.52L59.69 93.52Q59.69 94.17 60.05 94.67Q60.41 95.18 61.20 95.18L61.20 95.18Q62.28 95.18 63.43 94.28Q64.58 93.38 65.66 92.15Q66.74 90.93 67.61 89.67Q68.47 88.41 68.90 87.69L68.90 87.69L71.06 88.91Q70.20 90.64 68.72 92.73Q67.25 94.82 65.38 96.58Q63.50 98.34 61.27 99.53Q59.04 100.72 56.66 100.72L56.66 100.72Q54.58 100.72 53.53 99.64Q52.49 98.56 52.49 96.04L52.49 96.04Q52.49 93.95 53.17 91.54Q53.86 89.13 55.15 85.46L55.15 85.46ZM68.98 49.31L68.98 49.31Q67.18 49.31 65.84 48.09Q64.51 46.86 64.51 44.92L64.51 44.92Q64.51 42.98 65.81 41.61Q67.10 40.24 68.98 40.24L68.98 40.24Q70.99 40.24 72.29 41.61Q73.58 42.98 73.58 44.85L73.58 44.85Q73.58 46.72 72.22 48.02Q70.85 49.31 68.98 49.31ZM97.56 40.31L88.42 68.03L88.63 68.18Q90.72 64.86 93.85 63.03Q96.98 61.19 100.51 61.19L100.51 61.19Q104.90 61.19 107.28 63.93Q109.66 66.66 109.66 71.42L109.66 71.42Q109.66 74.80 108.65 78.33Q107.64 81.86 105.88 85.10Q104.11 88.34 101.74 91.18Q99.36 94.02 96.66 96.15Q93.96 98.27 90.97 99.50Q87.98 100.72 85.10 100.72L85.10 100.72Q81.00 100.72 78.37 98.24Q75.74 95.75 75.74 91.79L75.74 91.79Q75.74 89.92 76.54 86.50Q77.33 83.08 78.84 78.33L78.84 78.33L87.55 50.25Q87.91 48.95 88.27 47.62Q88.63 46.29 88.63 45.64L88.63 45.64Q88.63 43.12 83.09 43.12L83.09 43.12L83.74 40.96L97.56 40.31ZM86.26 97.05L86.26 97.05Q87.91 97.05 89.78 95.86Q91.66 94.67 93.46 92.66Q95.26 90.64 96.91 87.98Q98.57 85.31 99.79 82.40Q101.02 79.48 101.77 76.49Q102.53 73.50 102.53 70.84L102.53 70.84Q102.53 68.32 101.38 66.66Q100.22 65.01 98.57 65.01L98.57 65.01Q96.98 65.01 95.15 66.20Q93.31 67.38 91.55 69.44Q89.78 71.49 88.16 74.12Q86.54 76.74 85.28 79.66Q84.02 82.58 83.30 85.53Q82.58 88.48 82.58 91.14L82.58 91.14Q82.58 97.05 86.26 97.05ZM115.56 72.78L113.69 71.85Q114.48 70.05 116.10 68.14Q117.72 66.23 119.63 64.68Q121.54 63.14 123.48 62.13Q125.42 61.12 126.86 61.12L126.86 61.12Q128.59 61.12 129.38 62.42Q130.18 63.71 130.18 66.59L130.18 66.59Q130.18 67.74 130.07 68.82Q129.96 69.90 129.67 71.34L129.67 71.34L129.89 71.56Q130.75 69.47 132.34 67.46Q133.92 65.44 135.76 63.89Q137.59 62.34 139.50 61.37Q141.41 60.40 143.06 60.40L143.06 60.40Q145.15 60.40 146.56 61.73Q147.96 63.06 147.96 65.01L147.96 65.01Q147.96 66.88 146.77 68.10Q145.58 69.33 143.71 69.33L143.71 69.33Q142.56 69.33 141.88 68.90Q141.19 68.46 140.69 68.00Q140.18 67.53 139.75 67.10Q139.32 66.66 138.67 66.66L138.67 66.66Q137.30 66.66 135.50 68.50Q133.70 70.34 131.76 73.50Q129.82 76.67 127.91 80.92Q126.00 85.17 124.42 90.06L124.42 90.06L121.18 100L114.48 100L119.16 85.10Q120.53 80.78 121.43 77.93Q122.33 75.09 122.83 73.18Q123.34 71.27 123.52 70.19Q123.70 69.11 123.70 68.32L123.70 68.32Q123.70 66.74 122.62 66.74L122.62 66.74Q121.90 66.74 120.85 67.31Q119.81 67.89 118.80 68.75Q117.79 69.62 116.89 70.70Q115.99 71.78 115.56 72.78L115.56 72.78ZM168.84 88.91L171.14 90.42Q164.88 100.72 155.74 100.72L155.74 100.72Q150.77 100.72 148.10 97.66Q145.44 94.60 145.44 88.98L145.44 88.98Q145.44 84.02 147.49 79.05Q149.54 74.08 152.86 70.08Q156.17 66.09 160.27 63.60Q164.38 61.12 168.48 61.12L168.48 61.12Q171.94 61.12 174.13 62.88Q176.33 64.65 176.33 67.38L176.33 67.38Q176.33 69.90 174.46 72.57Q172.58 75.23 169.38 77.61Q166.18 79.98 161.89 81.93Q157.61 83.87 152.78 84.95L152.78 84.95Q152.64 85.96 152.57 86.93Q152.50 87.90 152.50 88.91L152.50 88.91Q152.50 96.76 158.04 96.76L158.04 96.76Q160.70 96.76 163.55 94.67Q166.39 92.58 168.84 88.91L168.84 88.91ZM167.04 64.50L167.04 64.50Q165.17 64.50 163.15 65.94Q161.14 67.38 159.30 69.80Q157.46 72.21 155.95 75.30Q154.44 78.40 153.50 81.71L153.50 81.71Q156.96 80.78 159.91 79.26Q162.86 77.75 164.99 75.84Q167.11 73.94 168.34 71.81Q169.56 69.69 169.56 67.53L169.56 67.53Q169.56 64.50 167.04 64.50ZM217.22 72.28L213.70 85.10Q213.48 85.74 213.23 86.75Q212.98 87.76 212.76 88.77Q212.54 89.78 212.36 90.78Q212.18 91.79 212.18 92.44L212.18 92.44Q212.18 93.88 212.83 94.74Q213.48 95.61 214.45 96.04Q215.42 96.47 216.61 96.62Q217.80 96.76 218.95 96.76L218.95 96.76Q222.91 96.76 226.04 95.72Q229.18 94.67 231.34 92.80Q233.50 90.93 234.61 88.37Q235.73 85.82 235.73 82.79L235.73 82.79Q235.73 77.32 232.20 74.80Q228.67 72.28 221.33 72.28L221.33 72.28L217.22 72.28ZM194.98 100L195.77 97.12Q197.93 97.12 199.44 96.83Q200.95 96.54 202.03 95.64Q203.11 94.74 203.90 93.05Q204.70 91.36 205.49 88.55L205.49 88.55L213.98 56.80Q214.78 53.63 214.78 51.83L214.78 51.83Q214.78 49.38 213.26 48.41Q211.75 47.44 208.15 47.44L208.15 47.44L208.94 44.56L228.24 44.56Q231.34 44.56 234.58 45.10Q237.82 45.64 240.44 47.04Q243.07 48.45 244.76 50.86Q246.46 53.27 246.46 57.02L246.46 57.02Q246.46 60.54 245.02 62.92Q243.58 65.30 241.34 66.84Q239.11 68.39 236.41 69.22Q233.71 70.05 231.19 70.41L231.19 70.41L231.19 70.70Q237.53 71.99 240.84 75.41Q244.15 78.83 244.15 84.09L244.15 84.09Q244.15 87.76 242.42 90.71Q240.70 93.66 237.67 95.72Q234.65 97.77 230.47 98.88Q226.30 100 221.33 100L221.33 100L194.98 100ZM222.19 53.56L218.16 68.61L223.49 68.61Q226.87 68.61 229.72 67.74Q232.56 66.88 234.58 65.30Q236.59 63.71 237.71 61.52Q238.82 59.32 238.82 56.66L238.82 56.66Q238.82 51.98 236.20 49.89Q233.57 47.80 227.30 47.80L227.30 47.80Q225.36 47.80 224.17 49.13Q222.98 50.46 222.19 53.56L222.19 53.56ZM273.60 64.86L273.60 64.86Q270.86 64.86 267.95 67.38Q265.03 69.90 262.66 73.68Q260.28 77.46 258.77 81.82Q257.26 86.18 257.26 89.92L257.26 89.92Q257.26 92.51 258.34 94.06Q259.42 95.61 261.29 95.61L261.29 95.61Q262.94 95.61 264.74 94.28Q266.54 92.94 268.24 90.75Q269.93 88.55 271.44 85.74Q272.95 82.94 274.10 79.95Q275.26 76.96 275.90 74.08Q276.55 71.20 276.55 68.90L276.55 68.90Q276.55 67.02 275.76 65.94Q274.97 64.86 273.60 64.86ZM279.50 65.87L281.02 61.84L286.99 61.84L282.89 72.86Q281.88 75.59 280.91 78.69Q279.94 81.78 279.18 84.66Q278.42 87.54 277.99 89.92Q277.56 92.30 277.56 93.45L277.56 93.45Q277.56 95.54 278.93 95.54L278.93 95.54Q279.94 95.54 281.84 93.45Q283.75 91.36 286.13 88.05L286.13 88.05L288 89.56Q284.98 94.89 281.48 97.80Q277.99 100.72 274.75 100.72L274.75 100.72Q273.10 100.72 272.20 99.46Q271.30 98.20 271.30 95.32L271.30 95.32Q271.30 94.67 271.33 93.81Q271.37 92.94 271.51 91.50L271.51 91.50L271.22 91.43Q270.14 93.45 268.67 95.14Q267.19 96.83 265.46 98.09Q263.74 99.35 261.86 100.04Q259.99 100.72 258.19 100.72L258.19 100.72Q254.52 100.72 252.47 97.95Q250.42 95.18 250.42 90.28L250.42 90.28Q250.42 85.31 252.50 80.13Q254.59 74.94 257.90 70.73Q261.22 66.52 265.25 63.82Q269.28 61.12 273.17 61.12L273.17 61.12Q275.54 61.12 277.06 62.24Q278.57 63.35 279.50 65.87L279.50 65.87ZM296.28 72.14L296.28 72.14Q296.28 69.76 297.18 67.74Q298.08 65.73 299.66 64.25Q301.25 62.78 303.44 61.95Q305.64 61.12 308.23 61.12L308.23 61.12Q311.69 61.12 313.99 62.85Q316.30 64.58 316.30 67.31L316.30 67.31Q316.30 68.82 315.47 69.69Q314.64 70.55 313.20 70.55L313.20 70.55Q311.54 70.55 310.82 69.58Q310.10 68.61 309.60 67.42Q309.10 66.23 308.52 65.22Q307.94 64.22 306.58 64.22L306.58 64.22Q304.99 64.22 303.91 65.58Q302.83 66.95 302.83 68.97L302.83 68.97Q302.83 71.34 304.24 73.40Q305.64 75.45 307.37 77.68Q309.10 79.91 310.50 82.58Q311.90 85.24 311.90 88.84L311.90 88.84Q311.90 91.29 310.86 93.45Q309.82 95.61 308.05 97.23Q306.29 98.85 303.98 99.78Q301.68 100.72 299.23 100.72L299.23 100.72Q294.91 100.72 292.36 98.85Q289.80 96.98 289.80 93.95L289.80 93.95Q289.80 91.86 290.77 90.68Q291.74 89.49 293.40 89.49L293.40 89.49Q296.50 89.49 296.93 93.74L296.93 93.74Q297.14 96.04 297.68 96.80Q298.22 97.55 299.88 97.55L299.88 97.55Q302.47 97.55 303.98 96.00Q305.50 94.46 305.50 91.72L305.50 91.72Q305.50 88.84 304.06 86.61Q302.62 84.38 300.89 82.25Q299.16 80.13 297.72 77.75Q296.28 75.38 296.28 72.14ZM343.87 94.24L343.87 94.24Q345.96 94.24 349.78 88.84L349.78 88.84L351.65 89.85Q346.46 100.72 340.92 100.72L340.92 100.72Q339.19 100.72 338.08 99.50Q336.96 98.27 335.59 95.10L335.59 95.10L330.77 83.58L329.18 84.30L324.65 100L318.10 100L331.99 48.38Q332.50 46.43 332.50 45.71L332.50 45.71Q332.50 44.20 331.13 43.66Q329.76 43.12 325.73 43.12L325.73 43.12L326.45 40.96L340.78 40.24L333.29 67.96L333.58 68.03Q337.75 61.05 344.16 61.05L344.16 61.05Q347.54 61.05 349.49 62.67Q351.43 64.29 351.43 67.02L351.43 67.02Q351.43 70.41 348.08 73.79Q344.74 77.18 338.76 79.91L338.76 79.91L336.89 80.78L340.56 90.28Q342.00 94.24 343.87 94.24ZM329.83 80.70L329.83 80.70Q332.93 79.62 335.59 78.18Q338.26 76.74 340.16 75.16Q342.07 73.58 343.15 71.96Q344.23 70.34 344.23 68.90L344.23 68.90Q344.23 65.94 341.28 65.94L341.28 65.94Q339.77 65.94 338.11 67.13Q336.46 68.32 334.87 70.34Q333.29 72.35 331.96 75.05Q330.62 77.75 329.83 80.70ZM379.51 88.91L381.82 90.42Q375.55 100.72 366.41 100.72L366.41 100.72Q361.44 100.72 358.78 97.66Q356.11 94.60 356.11 88.98L356.11 88.98Q356.11 84.02 358.16 79.05Q360.22 74.08 363.53 70.08Q366.84 66.09 370.94 63.60Q375.05 61.12 379.15 61.12L379.15 61.12Q382.61 61.12 384.80 62.88Q387.00 64.65 387.00 67.38L387.00 67.38Q387.00 69.90 385.13 72.57Q383.26 75.23 380.05 77.61Q376.85 79.98 372.56 81.93Q368.28 83.87 363.46 84.95L363.46 84.95Q363.31 85.96 363.24 86.93Q363.17 87.90 363.17 88.91L363.17 88.91Q363.17 96.76 368.71 96.76L368.71 96.76Q371.38 96.76 374.22 94.67Q377.06 92.58 379.51 88.91L379.51 88.91ZM377.71 64.50L377.71 64.50Q375.84 64.50 373.82 65.94Q371.81 67.38 369.97 69.80Q368.14 72.21 366.62 75.30Q365.11 78.40 364.18 81.71L364.18 81.71Q367.63 80.78 370.58 79.26Q373.54 77.75 375.66 75.84Q377.78 73.94 379.01 71.81Q380.23 69.69 380.23 67.53L380.23 67.53Q380.23 64.50 377.71 64.50ZM391.32 72.78L389.45 71.85Q390.24 70.05 391.86 68.14Q393.48 66.23 395.39 64.68Q397.30 63.14 399.24 62.13Q401.18 61.12 402.62 61.12L402.62 61.12Q404.35 61.12 405.14 62.42Q405.94 63.71 405.94 66.59L405.94 66.59Q405.94 67.74 405.83 68.82Q405.72 69.90 405.43 71.34L405.43 71.34L405.65 71.56Q406.51 69.47 408.10 67.46Q409.68 65.44 411.52 63.89Q413.35 62.34 415.26 61.37Q417.17 60.40 418.82 60.40L418.82 60.40Q420.91 60.40 422.32 61.73Q423.72 63.06 423.72 65.01L423.72 65.01Q423.72 66.88 422.53 68.10Q421.34 69.33 419.47 69.33L419.47 69.33Q418.32 69.33 417.64 68.90Q416.95 68.46 416.45 68.00Q415.94 67.53 415.51 67.10Q415.08 66.66 414.43 66.66L414.43 66.66Q413.06 66.66 411.26 68.50Q409.46 70.34 407.52 73.50Q405.58 76.67 403.67 80.92Q401.76 85.17 400.18 90.06L400.18 90.06L396.94 100L390.24 100L394.92 85.10Q396.29 80.78 397.19 77.93Q398.09 75.09 398.59 73.18Q399.10 71.27 399.28 70.19Q399.46 69.11 399.46 68.32L399.46 68.32Q399.46 66.74 398.38 66.74L398.38 66.74Q397.66 66.74 396.61 67.31Q395.57 67.89 394.56 68.75Q393.55 69.62 392.65 70.70Q391.75 71.78 391.32 72.78L391.32 72.78ZM455.11 74.30L455.11 74.30Q455.11 72.86 454.86 71.67Q454.61 70.48 454.28 69.40Q453.96 68.32 453.71 67.31Q453.46 66.30 453.46 65.22L453.46 65.22Q453.46 61.12 457.20 61.12L457.20 61.12Q459.43 61.12 460.40 62.70Q461.38 64.29 461.38 67.96L461.38 67.96Q461.38 71.78 460.44 75.70Q459.50 79.62 457.85 83.26Q456.19 86.90 453.96 90.06Q451.73 93.23 449.21 95.61Q446.69 97.98 443.99 99.35Q441.29 100.72 438.62 100.72L438.62 100.72Q436.68 100.72 434.99 99.96Q433.30 99.21 432.07 97.84Q430.85 96.47 430.16 94.60Q429.48 92.73 429.48 90.57L429.48 90.57Q429.48 86.46 431.71 80.92Q433.94 75.38 438.05 69.47L438.05 69.47L437.90 69.26Q435.96 69.26 434.66 68.68Q433.37 68.10 432.47 67.38Q431.57 66.66 430.88 66.09Q430.20 65.51 429.48 65.51L429.48 65.51Q428.26 65.51 428.26 66.74L428.26 66.74Q428.26 67.38 428.65 67.89Q429.05 68.39 429.52 68.90Q429.98 69.40 430.38 70.01Q430.78 70.62 430.78 71.49L430.78 71.49Q430.78 72.78 429.77 73.61Q428.76 74.44 427.18 74.44L427.18 74.44Q425.30 74.44 424.30 73.29Q423.29 72.14 423.29 70.05L423.29 70.05Q423.29 68.25 424.01 66.63Q424.73 65.01 425.95 63.78Q427.18 62.56 428.80 61.84Q430.42 61.12 432.22 61.12L432.22 61.12Q433.66 61.12 434.66 61.59Q435.67 62.06 436.54 62.67Q437.40 63.28 438.23 63.75Q439.06 64.22 440.21 64.22L440.21 64.22Q441.58 64.22 442.66 63.14L442.66 63.14Q444.17 61.77 444.71 61.44Q445.25 61.12 446.11 61.12L446.11 61.12Q447.55 61.12 447.55 62.34L447.55 62.34Q447.55 62.63 447.48 62.85Q447.41 63.06 447.16 63.50Q446.90 63.93 446.29 64.65Q445.68 65.37 444.60 66.66L444.60 66.66Q442.94 68.68 441.58 71.20Q440.21 73.72 439.20 76.46Q438.19 79.19 437.62 81.96Q437.04 84.74 437.04 87.18L437.04 87.18Q437.04 91.07 438.37 93.41Q439.70 95.75 441.79 95.75L441.79 95.75Q443.81 95.75 446.11 93.59Q448.42 91.43 450.43 88.23Q452.45 85.02 453.78 81.28Q455.11 77.54 455.11 74.30ZM469.73 85.46L472.97 76.24Q473.98 73.43 474.41 71.70Q474.84 69.98 474.84 68.97L474.84 68.97Q474.84 67.96 474.52 67.64Q474.19 67.31 473.83 67.31L473.83 67.31Q473.04 67.31 472.10 68.07Q471.17 68.82 470.23 69.83Q469.30 70.84 468.58 71.85Q467.86 72.86 467.57 73.43L467.57 73.43L465.48 72.14Q466.34 70.55 467.89 68.61Q469.44 66.66 471.38 65.01Q473.33 63.35 475.42 62.24Q477.50 61.12 479.38 61.12L479.38 61.12Q481.18 61.12 482.08 62.16Q482.98 63.21 482.98 65.94L482.98 65.94Q482.98 68.03 481.72 71.56Q480.46 75.09 478.44 80.63L478.44 80.63L475.78 87.90Q475.63 88.26 475.38 89.02Q475.13 89.78 474.88 90.60Q474.62 91.43 474.44 92.22Q474.26 93.02 474.26 93.52L474.26 93.52Q474.26 94.17 474.62 94.67Q474.98 95.18 475.78 95.18L475.78 95.18Q476.86 95.18 478.01 94.28Q479.16 93.38 480.24 92.15Q481.32 90.93 482.18 89.67Q483.05 88.41 483.48 87.69L483.48 87.69L485.64 88.91Q484.78 90.64 483.30 92.73Q481.82 94.82 479.95 96.58Q478.08 98.34 475.85 99.53Q473.62 100.72 471.24 100.72L471.24 100.72Q469.15 100.72 468.11 99.64Q467.06 98.56 467.06 96.04L467.06 96.04Q467.06 93.95 467.75 91.54Q468.43 89.13 469.73 85.46L469.73 85.46ZM483.55 49.31L483.55 49.31Q481.75 49.31 480.42 48.09Q479.09 46.86 479.09 44.92L479.09 44.92Q479.09 42.98 480.38 41.61Q481.68 40.24 483.55 40.24L483.55 40.24Q485.57 40.24 486.86 41.61Q488.16 42.98 488.16 44.85L488.16 44.85Q488.16 46.72 486.79 48.02Q485.42 49.31 483.55 49.31ZM491.90 85.46L501.48 50.25Q501.84 48.95 502.20 47.62Q502.56 46.29 502.56 45.64L502.56 45.64Q502.56 43.12 497.09 43.12L497.09 43.12L497.66 40.96L510.84 40.31L497.95 87.62Q497.38 89.56 497.09 91.04Q496.80 92.51 496.80 93.52L496.80 93.52Q496.80 94.17 497.16 94.67Q497.52 95.18 498.31 95.18L498.31 95.18Q499.46 95.18 500.76 94.20Q502.06 93.23 503.24 91.90Q504.43 90.57 505.37 89.16Q506.30 87.76 506.74 86.97L506.74 86.97L508.90 88.19Q507.82 90.64 506.09 92.91Q504.36 95.18 502.42 96.90Q500.47 98.63 498.49 99.68Q496.51 100.72 494.86 100.72L494.86 100.72Q492.34 100.72 491.15 99.64Q489.96 98.56 489.96 96.04L489.96 96.04Q489.96 94.60 490.39 92.15Q490.82 89.70 491.90 85.46L491.90 85.46ZM514.44 85.46L524.02 50.25Q524.38 48.95 524.74 47.62Q525.10 46.29 525.10 45.64L525.10 45.64Q525.10 43.12 519.62 43.12L519.62 43.12L520.20 40.96L533.38 40.31L520.49 87.62Q519.91 89.56 519.62 91.04Q519.34 92.51 519.34 93.52L519.34 93.52Q519.34 94.17 519.70 94.67Q520.06 95.18 520.85 95.18L520.85 95.18Q522.00 95.18 523.30 94.20Q524.59 93.23 525.78 91.90Q526.97 90.57 527.90 89.16Q528.84 87.76 529.27 86.97L529.27 86.97L531.43 88.19Q530.35 90.64 528.62 92.91Q526.90 95.18 524.95 96.90Q523.01 98.63 521.03 99.68Q519.05 100.72 517.39 100.72L517.39 100.72Q514.87 100.72 513.68 99.64Q512.50 98.56 512.50 96.04L512.50 96.04Q512.50 94.60 512.93 92.15Q513.36 89.70 514.44 85.46L514.44 85.46ZM557.78 88.91L560.09 90.42Q553.82 100.72 544.68 100.72L544.68 100.72Q539.71 100.72 537.05 97.66Q534.38 94.60 534.38 88.98L534.38 88.98Q534.38 84.02 536.44 79.05Q538.49 74.08 541.80 70.08Q545.11 66.09 549.22 63.60Q553.32 61.12 557.42 61.12L557.42 61.12Q560.88 61.12 563.08 62.88Q565.27 64.65 565.27 67.38L565.27 67.38Q565.27 69.90 563.40 72.57Q561.53 75.23 558.32 77.61Q555.12 79.98 550.84 81.93Q546.55 83.87 541.73 84.95L541.73 84.95Q541.58 85.96 541.51 86.93Q541.44 87.90 541.44 88.91L541.44 88.91Q541.44 96.76 546.98 96.76L546.98 96.76Q549.65 96.76 552.49 94.67Q555.34 92.58 557.78 88.91L557.78 88.91ZM555.98 64.50L555.98 64.50Q554.11 64.50 552.10 65.94Q550.08 67.38 548.24 69.80Q546.41 72.21 544.90 75.30Q543.38 78.40 542.45 81.71L542.45 81.71Q545.90 80.78 548.86 79.26Q551.81 77.75 553.93 75.84Q556.06 73.94 557.28 71.81Q558.50 69.69 558.50 67.53L558.50 67.53Q558.50 64.50 555.98 64.50ZM591.26 85.46L594.50 76.24Q595.51 73.43 595.94 71.70Q596.38 69.98 596.38 68.97L596.38 68.97Q596.38 67.96 596.05 67.64Q595.73 67.31 595.37 67.31L595.37 67.31Q594.58 67.31 593.64 68.07Q592.70 68.82 591.77 69.83Q590.83 70.84 590.11 71.85Q589.39 72.86 589.10 73.43L589.10 73.43L587.02 72.14Q587.88 70.55 589.43 68.61Q590.98 66.66 592.92 65.01Q594.86 63.35 596.95 62.24Q599.04 61.12 600.91 61.12L600.91 61.12Q602.71 61.12 603.61 62.16Q604.51 63.21 604.51 65.94L604.51 65.94Q604.51 68.03 603.25 71.56Q601.99 75.09 599.98 80.63L599.98 80.63L597.31 87.90Q597.17 88.26 596.92 89.02Q596.66 89.78 596.41 90.60Q596.16 91.43 595.98 92.22Q595.80 93.02 595.80 93.52L595.80 93.52Q595.80 94.17 596.16 94.67Q596.52 95.18 597.31 95.18L597.31 95.18Q598.39 95.18 599.54 94.28Q600.70 93.38 601.78 92.15Q602.86 90.93 603.72 89.67Q604.58 88.41 605.02 87.69L605.02 87.69L607.18 88.91Q606.31 90.64 604.84 92.73Q603.36 94.82 601.49 96.58Q599.62 98.34 597.38 99.53Q595.15 100.72 592.78 100.72L592.78 100.72Q590.69 100.72 589.64 99.64Q588.60 98.56 588.60 96.04L588.60 96.04Q588.60 93.95 589.28 91.54Q589.97 89.13 591.26 85.46L591.26 85.46ZM605.09 49.31L605.09 49.31Q603.29 49.31 601.96 48.09Q600.62 46.86 600.62 44.92L600.62 44.92Q600.62 42.98 601.92 41.61Q603.22 40.24 605.09 40.24L605.09 40.24Q607.10 40.24 608.40 41.61Q609.70 42.98 609.70 44.85L609.70 44.85Q609.70 46.72 608.33 48.02Q606.96 49.31 605.09 49.31ZM634.61 67.82L626.76 67.82L620.78 87.62Q619.56 91.50 619.49 93.52L619.49 93.52Q619.49 94.17 619.81 94.67Q620.14 95.18 620.93 95.18L620.93 95.18Q622.22 95.18 623.66 94.20Q625.10 93.23 626.44 91.90Q627.77 90.57 628.81 89.16Q629.86 87.76 630.36 86.97L630.36 86.97L632.45 88.19Q631.22 90.64 629.35 92.91Q627.48 95.18 625.39 96.90Q623.30 98.63 621.18 99.68Q619.06 100.72 617.33 100.72L617.33 100.72Q614.81 100.72 613.69 99.64Q612.58 98.56 612.58 96.04L612.58 96.04Q612.58 94.60 613.08 92.15Q613.58 89.70 614.81 85.46L614.81 85.46L620.14 67.82L613.94 67.82L614.88 64.50L621.14 64.50L624.89 52.12L631.51 52.12L627.77 64.50L635.62 64.50L634.61 67.82ZM660.02 64.86L660.02 64.86Q657.29 64.86 654.37 67.38Q651.46 69.90 649.08 73.68Q646.70 77.46 645.19 81.82Q643.68 86.18 643.68 89.92L643.68 89.92Q643.68 92.51 644.76 94.06Q645.84 95.61 647.71 95.61L647.71 95.61Q649.37 95.61 651.17 94.28Q652.97 92.94 654.66 90.75Q656.35 88.55 657.86 85.74Q659.38 82.94 660.53 79.95Q661.68 76.96 662.33 74.08Q662.98 71.20 662.98 68.90L662.98 68.90Q662.98 67.02 662.18 65.94Q661.39 64.86 660.02 64.86ZM665.93 65.87L667.44 61.84L673.42 61.84L669.31 72.86Q668.30 75.59 667.33 78.69Q666.36 81.78 665.60 84.66Q664.85 87.54 664.42 89.92Q663.98 92.30 663.98 93.45L663.98 93.45Q663.98 95.54 665.35 95.54L665.35 95.54Q666.36 95.54 668.27 93.45Q670.18 91.36 672.55 88.05L672.55 88.05L674.42 89.56Q671.40 94.89 667.91 97.80Q664.42 100.72 661.18 100.72L661.18 100.72Q659.52 100.72 658.62 99.46Q657.72 98.20 657.72 95.32L657.72 95.32Q657.72 94.67 657.76 93.81Q657.79 92.94 657.94 91.50L657.94 91.50L657.65 91.43Q656.57 93.45 655.09 95.14Q653.62 96.83 651.89 98.09Q650.16 99.35 648.29 100.04Q646.42 100.72 644.62 100.72L644.62 100.72Q640.94 100.72 638.89 97.95Q636.84 95.18 636.84 90.28L636.84 90.28Q636.84 85.31 638.93 80.13Q641.02 74.94 644.33 70.73Q647.64 66.52 651.67 63.82Q655.70 61.12 659.59 61.12L659.59 61.12Q661.97 61.12 663.48 62.24Q664.99 63.35 665.93 65.87L665.93 65.87ZM680.76 85.46L690.34 50.25Q690.70 48.95 691.06 47.62Q691.42 46.29 691.42 45.64L691.42 45.64Q691.42 43.12 685.94 43.12L685.94 43.12L686.52 40.96L699.70 40.31L686.81 87.62Q686.23 89.56 685.94 91.04Q685.66 92.51 685.66 93.52L685.66 93.52Q685.66 94.17 686.02 94.67Q686.38 95.18 687.17 95.18L687.17 95.18Q688.32 95.18 689.62 94.20Q690.91 93.23 692.10 91.90Q693.29 90.57 694.22 89.16Q695.16 87.76 695.59 86.97L695.59 86.97L697.75 88.19Q696.67 90.64 694.94 92.91Q693.22 95.18 691.27 96.90Q689.33 98.63 687.35 99.68Q685.37 100.72 683.71 100.72L683.71 100.72Q681.19 100.72 680.00 99.64Q678.82 98.56 678.82 96.04L678.82 96.04Q678.82 94.60 679.25 92.15Q679.68 89.70 680.76 85.46L680.76 85.46ZM705.89 85.46L709.13 76.24Q710.14 73.43 710.57 71.70Q711.00 69.98 711.00 68.97L711.00 68.97Q711.00 67.96 710.68 67.64Q710.35 67.31 709.99 67.31L709.99 67.31Q709.20 67.31 708.26 68.07Q707.33 68.82 706.39 69.83Q705.46 70.84 704.74 71.85Q704.02 72.86 703.73 73.43L703.73 73.43L701.64 72.14Q702.50 70.55 704.05 68.61Q705.60 66.66 707.54 65.01Q709.49 63.35 711.58 62.24Q713.66 61.12 715.54 61.12L715.54 61.12Q717.34 61.12 718.24 62.16Q719.14 63.21 719.14 65.94L719.14 65.94Q719.14 68.03 717.88 71.56Q716.62 75.09 714.60 80.63L714.60 80.63L711.94 87.90Q711.79 88.26 711.54 89.02Q711.29 89.78 711.04 90.60Q710.78 91.43 710.60 92.22Q710.42 93.02 710.42 93.52L710.42 93.52Q710.42 94.17 710.78 94.67Q711.14 95.18 711.94 95.18L711.94 95.18Q713.02 95.18 714.17 94.28Q715.32 93.38 716.40 92.15Q717.48 90.93 718.34 89.67Q719.21 88.41 719.64 87.69L719.64 87.69L721.80 88.91Q720.94 90.64 719.46 92.73Q717.98 94.82 716.11 96.58Q714.24 98.34 712.01 99.53Q709.78 100.72 707.40 100.72L707.40 100.72Q705.31 100.72 704.27 99.64Q703.22 98.56 703.22 96.04L703.22 96.04Q703.22 93.95 703.91 91.54Q704.59 89.13 705.89 85.46L705.89 85.46ZM719.71 49.31L719.71 49.31Q717.91 49.31 716.58 48.09Q715.25 46.86 715.25 44.92L715.25 44.92Q715.25 42.98 716.54 41.61Q717.84 40.24 719.71 40.24L719.71 40.24Q721.73 40.24 723.02 41.61Q724.32 42.98 724.32 44.85L724.32 44.85Q724.32 46.72 722.95 48.02Q721.58 49.31 719.71 49.31ZM748.80 86.97L751.32 88.41Q748.30 94.38 744.30 97.55Q740.30 100.72 735.77 100.72L735.77 100.72Q731.09 100.72 728.28 97.52Q725.47 94.31 725.47 88.98L725.47 88.98Q725.47 85.82 726.41 82.50Q727.34 79.19 728.93 76.10Q730.51 73 732.67 70.26Q734.83 67.53 737.28 65.51Q739.73 63.50 742.36 62.31Q744.98 61.12 747.50 61.12L747.50 61.12Q750.96 61.12 753.19 62.99Q755.42 64.86 755.42 67.67L755.42 67.67Q755.42 69.47 754.38 70.59Q753.34 71.70 751.68 71.70L751.68 71.70Q750.02 71.70 748.98 70.66Q747.94 69.62 747.94 68.10L747.94 68.10Q747.94 67.17 748.22 66.59Q748.51 66.02 748.51 65.51L748.51 65.51Q748.51 64.50 746.78 64.50L746.78 64.50Q744.41 64.50 741.96 66.74Q739.51 68.97 737.53 72.50Q735.55 76.02 734.29 80.38Q733.03 84.74 733.03 89.06L733.03 89.06Q733.03 92.51 734.36 94.49Q735.70 96.47 738.07 96.47L738.07 96.47Q739.37 96.47 740.77 95.75Q742.18 95.03 743.62 93.77Q745.06 92.51 746.39 90.78Q747.72 89.06 748.80 86.97L748.80 86.97Z"/></svg>