<svg xmlns="http://www.w3.org/2000/svg" viewBox="1.04 -7.42 60.339999999999996 7.52"><path d="M1.04-7.30Q1.04-7.37 1.06-7.40Q1.09-7.42 1.15-7.42L1.15-7.42L1.69-7.42Q1.75-7.42 1.77-7.40Q1.79-7.37 1.79-7.30L1.79-7.30L1.79-0.70Q1.79-0.64 1.81-0.62Q1.83-0.60 1.89-0.60L1.89-0.60L5.42-0.60Q5.48-0.60 5.50-0.58Q5.52-0.57 5.52-0.51L5.52-0.51L5.52-0.09Q5.52 0 5.42 0L5.42 0L1.16 0Q1.04 0 1.04-0.12L1.04-0.12L1.04-7.30ZM7.49-7.28L7.49-6.51Q7.49-6.42 7.46-6.38Q7.43-6.33 7.34-6.33L7.34-6.33L6.88-6.33Q6.80-6.33 6.78-6.37Q6.75-6.41 6.75-6.49L6.75-6.49L6.75-7.27Q6.75-7.42 6.88-7.42L6.88-7.42L7.36-7.42Q7.49-7.42 7.49-7.28L7.49-7.28ZM7.45-5.18L7.45-0.15Q7.45-0.06 7.42-0.03Q7.39 0 7.29 0L7.29 0L6.92 0Q6.85 0 6.82-0.03Q6.79-0.05 6.79-0.12L6.79-0.12L6.79-5.18Q6.79-5.25 6.81-5.28Q6.84-5.30 6.90-5.30L6.90-5.30L7.34-5.30Q7.40-5.30 7.42-5.28Q7.45-5.25 7.45-5.18L7.45-5.18ZM9.48 0L9.24 0Q9.17 0 9.14-0.04Q9.11-0.07 9.11-0.15L9.11-0.15L9.11-7.30Q9.11-7.42 9.22-7.42L9.22-7.42L9.67-7.42Q9.77-7.42 9.77-7.29L9.77-7.29L9.77-4.81Q9.77-4.70 9.82-4.70L9.82-4.70Q9.84-4.70 9.91-4.75L9.91-4.75Q10.61-5.40 11.56-5.40L11.56-5.40Q12.63-5.40 13.17-4.64Q13.71-3.88 13.71-2.67L13.71-2.67Q13.71-1.38 13.11-0.64Q12.50 0.10 11.43 0.10L11.43 0.10Q10.80 0.10 10.40-0.15Q10-0.40 9.79-0.68L9.79-0.68Q9.76-0.73 9.73-0.73L9.73-0.73Q9.69-0.73 9.69-0.65L9.69-0.65L9.65-0.15Q9.64-0.07 9.60-0.04Q9.57 0 9.48 0L9.48 0ZM9.77-4.09L9.77-1.78Q9.77-1.41 9.99-1.09Q10.21-0.78 10.57-0.59Q10.93-0.41 11.31-0.41L11.31-0.41Q12.07-0.41 12.54-0.98Q13.02-1.55 13.02-2.67L13.02-2.67Q13.02-3.71 12.59-4.29Q12.17-4.88 11.38-4.88L11.38-4.88Q10.90-4.88 10.48-4.66Q10.07-4.44 9.77-4.09L9.77-4.09ZM15.19 0Q15.07 0 15.07-0.12L15.07-0.12L15.07-5.19Q15.07-5.30 15.17-5.30L15.17-5.30L15.60-5.30Q15.69-5.30 15.69-5.20L15.69-5.20L15.69-4.54Q15.69-4.49 15.72-4.48Q15.75-4.47 15.79-4.51L15.79-4.51Q16.20-4.97 16.58-5.19Q16.96-5.40 17.35-5.40L17.35-5.40Q17.54-5.40 17.63-5.38Q17.71-5.35 17.71-5.28L17.71-5.28L17.71-4.82Q17.71-4.75 17.63-4.75L17.63-4.75Q17.36-4.78 17.24-4.78L17.24-4.78Q16.94-4.78 16.58-4.59Q16.22-4.41 15.97-4.12Q15.73-3.83 15.73-3.54L15.73-3.54L15.73-0.12Q15.73 0 15.60 0L15.60 0L15.19 0ZM19.04-2.35Q19.04-1.84 19.29-1.40Q19.54-0.95 19.96-0.69Q20.39-0.43 20.89-0.43L20.89-0.43Q21.97-0.43 22.53-1.30L22.53-1.30Q22.56-1.35 22.59-1.35Q22.62-1.36 22.66-1.34L22.66-1.34L23-1.15Q23.03-1.13 23.03-1.10Q23.04-1.07 23.01-1.03L23.01-1.03Q22.64-0.45 22.11-0.18Q21.58 0.10 20.85 0.10L20.85 0.10Q20.12 0.10 19.55-0.24Q18.99-0.58 18.67-1.20Q18.35-1.81 18.35-2.60L18.35-2.60Q18.35-3.45 18.67-4.08Q19.00-4.72 19.56-5.06Q20.13-5.40 20.84-5.40L20.84-5.40Q21.93-5.40 22.56-4.69Q23.20-3.97 23.20-2.71L23.20-2.71L23.20-2.65Q23.20-2.58 23.17-2.54Q23.15-2.50 23.06-2.50L23.06-2.50L19.11-2.50Q19.04-2.50 19.04-2.35L19.04-2.35ZM19.05-2.97L22.36-2.97Q22.46-2.97 22.49-3Q22.53-3.03 22.53-3.11L22.53-3.11Q22.53-3.59 22.32-4Q22.12-4.41 21.74-4.65Q21.36-4.89 20.85-4.89L20.85-4.89Q20.29-4.89 19.88-4.62Q19.47-4.34 19.25-3.90Q19.04-3.46 19.05-2.97L19.05-2.97ZM26.85-7.30Q26.85-7.37 26.87-7.40Q26.90-7.42 26.96-7.42L26.96-7.42L31.21-7.42Q31.30-7.42 31.30-7.33L31.30-7.33L31.30-6.92Q31.30-6.86 31.27-6.84Q31.25-6.82 31.19-6.82L31.19-6.82L27.72-6.82Q27.65-6.82 27.62-6.80Q27.60-6.78 27.60-6.71L27.60-6.71L27.60-4.01Q27.60-3.96 27.62-3.94Q27.65-3.92 27.71-3.92L27.71-3.92L30.51-3.92Q30.60-3.92 30.60-3.83L30.60-3.83L30.60-3.42Q30.60-3.37 30.58-3.35Q30.56-3.33 30.50-3.33L30.50-3.33L27.70-3.33Q27.65-3.33 27.62-3.31Q27.60-3.29 27.60-3.23L27.60-3.23L27.60-0.11Q27.60 0 27.49 0L27.49 0L26.97 0Q26.90 0 26.87-0.03Q26.85-0.05 26.85-0.12L26.85-0.12L26.85-7.30ZM32.17 0Q32.05 0 32.05-0.12L32.05-0.12L32.05-5.19Q32.05-5.30 32.15-5.30L32.15-5.30L32.58-5.30Q32.67-5.30 32.67-5.20L32.67-5.20L32.67-4.54Q32.67-4.49 32.70-4.48Q32.73-4.47 32.77-4.51L32.77-4.51Q33.18-4.97 33.56-5.19Q33.94-5.40 34.33-5.40L34.33-5.40Q34.52-5.40 34.60-5.38Q34.69-5.35 34.69-5.28L34.69-5.28L34.69-4.82Q34.69-4.75 34.61-4.75L34.61-4.75Q34.34-4.78 34.22-4.78L34.22-4.78Q33.92-4.78 33.56-4.59Q33.20-4.41 32.95-4.12Q32.71-3.83 32.71-3.54L32.71-3.54L32.71-0.12Q32.71 0 32.58 0L32.58 0L32.17 0ZM38.86-0.67Q38.46-0.28 38.01-0.09Q37.57 0.10 37.04 0.10L37.04 0.10Q36.25 0.10 35.80-0.29Q35.35-0.68 35.35-1.35L35.35-1.35Q35.35-2.13 36.00-2.58Q36.66-3.03 37.92-3.12L37.92-3.12L38.81-3.19Q38.98-3.21 38.98-3.34L38.98-3.34L38.98-3.63Q38.98-4.21 38.61-4.55Q38.25-4.89 37.63-4.89L37.63-4.89Q36.71-4.89 36.10-4.04L36.10-4.04Q36.07-3.99 36.04-3.98Q36.01-3.97 35.97-3.99L35.97-3.99L35.56-4.16Q35.52-4.18 35.52-4.21L35.52-4.21Q35.52-4.25 35.55-4.29L35.55-4.29Q35.86-4.81 36.40-5.11Q36.94-5.40 37.66-5.40L37.66-5.40Q38.59-5.40 39.10-4.95Q39.62-4.49 39.62-3.68L39.62-3.68L39.62-0.13Q39.62 0 39.50 0L39.50 0L39.13 0Q39.01 0 39.01-0.13L39.01-0.13L38.99-0.65Q38.97-0.72 38.94-0.72L38.94-0.72Q38.91-0.72 38.86-0.67L38.86-0.67ZM38.98-2.59Q38.98-2.76 38.83-2.74L38.83-2.74L38.08-2.68Q36.02-2.53 36.02-1.42L36.02-1.42Q36.02-0.96 36.35-0.69Q36.68-0.42 37.23-0.42L37.23-0.42Q37.56-0.42 37.88-0.54Q38.20-0.66 38.46-0.86L38.46-0.86Q38.98-1.29 38.98-1.71L38.98-1.71L38.98-2.59ZM41.31 0Q41.19 0 41.19-0.12L41.19-0.12L41.19-5.19Q41.19-5.30 41.29-5.30L41.29-5.30L41.72-5.30Q41.82-5.30 41.82-5.20L41.82-5.20L41.82-4.61Q41.82-4.49 41.91-4.58L41.91-4.58Q42.51-5.02 42.90-5.21Q43.30-5.40 43.79-5.40L43.79-5.40Q44.56-5.40 44.98-5.00Q45.40-4.59 45.40-3.91L45.40-3.91L45.40-0.13Q45.40 0 45.28 0L45.28 0L44.86 0Q44.74 0 44.74-0.12L44.74-0.12L44.74-3.73Q44.74-4.85 43.63-4.85L43.63-4.85Q43.17-4.85 42.79-4.66Q42.42-4.47 41.85-4L41.85-4L41.85-0.12Q41.85 0 41.72 0L41.72 0L41.31 0ZM51.39-0.15Q51.42-0.11 51.42-0.07L51.42-0.07Q51.42 0 51.32 0L51.32 0L50.78 0Q50.67 0 50.63-0.10L50.63-0.10L48.98-2.83Q48.96-2.86 48.94-2.87Q48.92-2.87 48.88-2.83L48.88-2.83L47.73-1.67Q47.66-1.60 47.66-1.48L47.66-1.48L47.66-0.15Q47.66-0.06 47.63-0.03Q47.60 0 47.51 0L47.51 0L47.14 0Q47.06 0 47.03-0.03Q47.00-0.05 47.00-0.12L47.00-0.12L47.00-7.30Q47.00-7.37 47.02-7.40Q47.05-7.42 47.11-7.42L47.11-7.42L47.56-7.42Q47.66-7.42 47.66-7.30L47.66-7.30L47.66-2.52Q47.66-2.43 47.69-2.43L47.69-2.43Q47.71-2.43 47.76-2.48L47.76-2.48L50.39-5.19Q50.45-5.25 50.48-5.28Q50.52-5.30 50.58-5.30L50.58-5.30L51.07-5.30Q51.17-5.30 51.17-5.24L51.17-5.24Q51.17-5.19 51.11-5.13L51.11-5.13L49.48-3.47Q49.44-3.43 49.44-3.40L49.44-3.40Q49.44-3.37 49.47-3.32L49.47-3.32L51.39-0.15ZM53.19-7.30L53.19-0.15Q53.19-0.06 53.16-0.03Q53.13 0 53.04 0L53.04 0L52.66 0Q52.59 0 52.56-0.03Q52.53-0.05 52.53-0.12L52.53-0.12L52.54-7.30Q52.54-7.37 52.56-7.40Q52.58-7.42 52.64-7.42L52.64-7.42L53.09-7.42Q53.19-7.42 53.19-7.30L53.19-7.30ZM55.55-7.28L55.55-6.51Q55.55-6.42 55.52-6.38Q55.49-6.33 55.40-6.33L55.40-6.33L54.94-6.33Q54.86-6.33 54.83-6.37Q54.81-6.41 54.81-6.49L54.81-6.49L54.81-7.27Q54.81-7.42 54.94-7.42L54.94-7.42L55.42-7.42Q55.55-7.42 55.55-7.28L55.55-7.28ZM55.51-5.18L55.51-0.15Q55.51-0.06 55.48-0.03Q55.45 0 55.35 0L55.35 0L54.98 0Q54.91 0 54.88-0.03Q54.85-0.05 54.85-0.12L54.85-0.12L54.85-5.18Q54.85-5.25 54.87-5.28Q54.90-5.30 54.96-5.30L54.96-5.30L55.40-5.30Q55.46-5.30 55.48-5.28Q55.51-5.25 55.51-5.18L55.51-5.18ZM57.29 0Q57.17 0 57.17-0.12L57.17-0.12L57.17-5.19Q57.17-5.30 57.27-5.30L57.27-5.30L57.70-5.30Q57.80-5.30 57.80-5.20L57.80-5.20L57.80-4.61Q57.80-4.49 57.89-4.58L57.89-4.58Q58.49-5.02 58.88-5.21Q59.28-5.40 59.77-5.40L59.77-5.40Q60.54-5.40 60.96-5.00Q61.38-4.59 61.38-3.91L61.38-3.91L61.38-0.13Q61.38 0 61.26 0L61.26 0L60.84 0Q60.72 0 60.72-0.12L60.72-0.12L60.72-3.73Q60.72-4.85 59.61-4.85L59.61-4.85Q59.15-4.85 58.77-4.66Q58.40-4.47 57.83-4L57.83-4L57.83-0.12Q57.83 0 57.70 0L57.70 0L57.29 0Z"/></svg>