<svg xmlns="http://www.w3.org/2000/svg" viewBox="2.5200000000000005 40.239999999999995 832.3920000000002 60.55200000000001"><path d="M53.28 83.66L52.13 100L2.52 100L2.52 97.12Q4.90 97.05 6.41 96.69Q7.92 96.33 8.71 95.46Q9.50 94.60 9.79 93.02Q10.08 91.43 10.08 88.91L10.08 88.91L10.08 55.65Q10.08 53.13 9.83 51.58Q9.58 50.03 8.86 49.13Q8.14 48.23 6.80 47.91Q5.47 47.58 3.31 47.44L3.31 47.44L3.31 44.56L28.15 44.56L28.15 47.44Q25.70 47.51 24.23 47.87Q22.75 48.23 21.96 49.17Q21.17 50.10 20.92 51.76Q20.66 53.42 20.66 56.15L20.66 56.15L20.66 86.32Q20.66 89.34 21.28 91.25Q21.89 93.16 23.40 94.20Q24.91 95.25 27.43 95.64Q29.95 96.04 33.70 96.04L33.70 96.04Q37.87 96.04 40.68 95.54Q43.49 95.03 45.40 93.63Q47.30 92.22 48.46 89.85Q49.61 87.47 50.40 83.66L50.40 83.66L53.28 83.66ZM72.86 61.12L72.86 88.19Q72.86 91.07 73.08 92.80Q73.30 94.53 73.94 95.46Q74.59 96.40 75.82 96.72Q77.04 97.05 79.13 97.12L79.13 97.12L79.13 100L56.45 100L56.45 97.12Q58.46 97.05 59.72 96.65Q60.98 96.26 61.67 95.36Q62.35 94.46 62.60 92.84Q62.86 91.22 62.86 88.70L62.86 88.70L62.86 79.84Q62.86 75.66 62.71 72.96Q62.57 70.26 62.35 69.26L62.35 69.26Q61.99 67.46 60.73 66.88Q59.47 66.30 56.16 66.30L56.16 66.30L56.16 63.86L72.86 61.12ZM62.28 45.86L62.28 45.86Q62.28 43.48 63.90 41.86Q65.52 40.24 67.82 40.24L67.82 40.24Q70.20 40.24 71.82 41.86Q73.44 43.48 73.44 45.86L73.44 45.86Q73.44 48.16 71.82 49.78Q70.20 51.40 67.82 51.40L67.82 51.40Q65.52 51.40 63.90 49.78Q62.28 48.16 62.28 45.86ZM96.55 79.70L96.55 84.23Q96.55 86.90 97.31 89.16Q98.06 91.43 99.36 93.09Q100.66 94.74 102.46 95.68Q104.26 96.62 106.42 96.62L106.42 96.62Q110.74 96.62 112.97 92.66Q115.20 88.70 115.20 80.99L115.20 80.99Q115.20 73.50 113.00 69.58Q110.81 65.66 106.42 65.66L106.42 65.66Q103.82 65.66 101.63 67.06Q99.43 68.46 98.21 70.98L98.21 70.98Q96.55 74.44 96.55 79.70L96.55 79.70ZM96.41 40.24L96.41 66.81L96.70 66.81Q98.57 64.07 101.52 62.60Q104.47 61.12 108.22 61.12L108.22 61.12Q112.03 61.12 115.31 62.67Q118.58 64.22 121.00 66.88Q123.41 69.54 124.78 73.14Q126.14 76.74 126.14 80.85L126.14 80.85Q126.14 85.17 124.67 88.80Q123.19 92.44 120.64 95.10Q118.08 97.77 114.66 99.28Q111.24 100.79 107.42 100.79L107.42 100.79Q103.46 100.79 99.97 99.24Q96.48 97.70 94.39 95.18L94.39 95.18L88.92 100L86.47 100L86.47 57.16Q86.47 50.39 85.54 47.87L85.54 47.87Q85.32 47.37 85.03 47.01Q84.74 46.65 84.20 46.40Q83.66 46.14 82.73 45.96Q81.79 45.78 80.28 45.57L80.28 45.57L80.28 43.12L96.41 40.24ZM147.46 85.38L147.46 88.84Q147.46 91.65 147.71 93.27Q147.96 94.89 148.75 95.75Q149.54 96.62 151.06 96.87Q152.57 97.12 155.09 97.12L155.09 97.12L155.09 100L131.04 100L131.04 97.12Q133.20 96.98 134.50 96.69Q135.79 96.40 136.44 95.54Q137.09 94.67 137.27 93.05Q137.45 91.43 137.45 88.70L137.45 88.70L137.45 79.91Q137.45 75.45 137.23 72.78Q137.02 70.12 136.30 68.68Q135.58 67.24 134.24 66.77Q132.91 66.30 130.75 66.30L130.75 66.30L130.75 63.78L145.15 61.12L146.30 69.40L146.59 69.40Q148.54 65.58 151.70 63.35Q154.87 61.12 158.40 61.12L158.40 61.12Q161.14 61.12 162.86 62.49Q164.59 63.86 164.59 65.94L164.59 65.94Q164.59 68.25 163.26 69.83Q161.93 71.42 159.62 71.42L159.62 71.42Q158.54 71.42 157.68 70.98Q156.82 70.55 156.13 70.01Q155.45 69.47 154.76 69.00Q154.08 68.54 153.36 68.54L153.36 68.54Q151.99 68.54 150.77 70.34Q149.54 72.14 148.75 75.16L148.75 75.16Q148.18 77.32 147.82 80.02Q147.46 82.72 147.46 85.38L147.46 85.38ZM201.17 90.78L203.18 93.30Q196.63 100.72 186.84 100.72L186.84 100.72Q182.38 100.72 178.74 99.32Q175.10 97.91 172.51 95.36Q169.92 92.80 168.48 89.27Q167.04 85.74 167.04 81.42L167.04 81.42Q167.04 76.96 168.55 73.25Q170.06 69.54 172.84 66.84Q175.61 64.14 179.39 62.63Q183.17 61.12 187.70 61.12L187.70 61.12Q195.34 61.12 199.58 65.22Q203.83 69.33 203.83 76.74L203.83 76.74Q203.83 77.90 203.47 78.15Q203.11 78.40 201.46 78.40L201.46 78.40L178.27 78.40Q177.98 79.05 177.98 80.78L177.98 80.78Q177.98 87.83 181.04 91.94Q184.10 96.04 189.36 96.04L189.36 96.04Q192.38 96.04 195.37 94.67Q198.36 93.30 201.17 90.78L201.17 90.78ZM178.78 74.37L189.22 74.37Q192.10 74.37 192.92 74.04Q193.75 73.72 193.75 72.50L193.75 72.50Q193.75 69.33 191.95 67.31Q190.15 65.30 187.42 65.30L187.42 65.30Q184.32 65.30 181.91 67.85Q179.50 70.41 178.78 74.37L178.78 74.37ZM255.67 100L227.95 100L227.95 97.12Q230.40 97.05 231.88 96.69Q233.35 96.33 234.18 95.46Q235.01 94.60 235.30 93.02Q235.58 91.43 235.58 88.91L235.58 88.91L235.58 55.65Q235.58 53.13 235.37 51.58Q235.15 50.03 234.47 49.13Q233.78 48.23 232.60 47.91Q231.41 47.58 229.46 47.44L229.46 47.44L229.46 44.56L252.58 44.56Q263.45 44.56 269.32 48.05Q275.18 51.54 275.18 58.02L275.18 58.02Q275.18 66.59 262.87 70.12L262.87 70.12L262.87 70.41Q266.83 70.41 270.04 71.52Q273.24 72.64 275.47 74.66Q277.70 76.67 278.93 79.41Q280.15 82.14 280.15 85.38L280.15 85.38Q280.15 89.06 278.39 91.79Q276.62 94.53 273.31 96.40L273.31 96.40Q266.90 100 255.67 100L255.67 100ZM256.18 95.61L256.18 95.61Q267.77 95.61 267.77 85.17L267.77 85.17Q267.77 78.76 263.59 75.81L263.59 75.81Q261.43 74.30 258.01 73.65Q254.59 73 249.62 73L249.62 73L246.17 73L246.17 87.40Q246.17 91.86 248.47 93.74Q250.78 95.61 256.18 95.61ZM246.17 68.68L250.42 68.68Q253.66 68.68 256.03 68.07Q258.41 67.46 260.06 66.30L260.06 66.30Q263.52 63.93 263.52 58.89L263.52 58.89Q263.52 53.63 260.93 51.29Q258.34 48.95 252.58 48.95L252.58 48.95L247.46 48.95Q246.17 48.95 246.17 50.18L246.17 50.18L246.17 68.68ZM307.73 86.32L307.73 79.48Q301.68 82.22 298.62 84.56Q295.56 86.90 295.56 89.42L295.56 89.42Q295.56 91.50 296.71 92.73Q297.86 93.95 299.59 93.95L299.59 93.95Q301.32 93.95 302.83 93.34Q304.34 92.73 305.42 91.72Q306.50 90.71 307.12 89.31Q307.73 87.90 307.73 86.32L307.73 86.32ZM297.58 80.06L307.73 75.66L307.73 72.64Q307.73 68.46 306.25 66.56Q304.78 64.65 301.68 64.65L301.68 64.65Q299.59 64.65 298.51 65.76Q297.43 66.88 296.50 69.47L296.50 69.47Q295.85 71.27 294.66 72.28Q293.47 73.29 291.38 73.29L291.38 73.29Q289.37 73.29 288.29 72.06Q287.21 70.84 287.21 68.61L287.21 68.61Q287.21 65.15 290.99 63.14Q294.77 61.12 302.40 61.12L302.40 61.12Q310.46 61.12 313.92 64.04Q317.38 66.95 317.38 73.79L317.38 73.79L317.38 89.56Q317.38 95.68 319.82 95.68L319.82 95.68Q321.19 95.68 322.34 94.74L322.34 94.74L323.42 96.83Q322.42 98.63 320.29 99.68Q318.17 100.72 315.50 100.72L315.50 100.72Q312.19 100.72 310.46 98.70Q308.74 96.69 308.74 93.02L308.74 93.02L308.38 93.02Q306.29 96.76 302.98 98.70Q299.66 100.65 295.42 100.65L295.42 100.65Q290.88 100.65 288.14 98.09Q285.41 95.54 285.41 91.43L285.41 91.43Q285.41 88.26 288.22 85.49Q291.02 82.72 297.58 80.06L297.58 80.06ZM331.99 97.48L330.41 100L328.18 100L328.18 86.90L331.20 86.90Q332.42 92.08 334.73 94.46Q337.03 96.83 340.70 96.83L340.70 96.83Q343.37 96.83 344.84 95.72Q346.32 94.60 346.32 92.66L346.32 92.66Q346.32 90.64 344.52 88.73Q342.72 86.82 338.69 84.66L338.69 84.66Q333.22 81.71 330.84 78.80Q328.46 75.88 328.46 72.21L328.46 72.21Q328.46 69.83 329.36 67.78Q330.26 65.73 331.81 64.22Q333.36 62.70 335.52 61.88Q337.68 61.05 340.20 61.05L340.20 61.05Q342.43 61.05 344.63 61.70Q346.82 62.34 348.48 63.50L348.48 63.50L349.78 61.77L351.65 61.77L351.65 72.64L348.84 72.64Q347.18 68.54 345.42 66.74Q343.66 64.94 341.14 64.94L341.14 64.94Q339.12 64.94 337.93 66.02Q336.74 67.10 336.74 68.90L336.74 68.90Q336.74 70.91 338.51 72.71Q340.27 74.51 344.38 76.67L344.38 76.67Q347.26 78.26 349.34 79.77Q351.43 81.28 352.73 82.83Q354.02 84.38 354.64 86.07Q355.25 87.76 355.25 89.70L355.25 89.70Q355.25 92.22 354.31 94.24Q353.38 96.26 351.65 97.70Q349.92 99.14 347.51 99.93Q345.10 100.72 342.14 100.72L342.14 100.72Q339.05 100.72 336.38 99.89Q333.72 99.06 331.99 97.48L331.99 97.48ZM383.62 100L383.62 97.12Q385.92 97.12 386.86 96.94Q387.79 96.76 387.79 96.18L387.79 96.18Q387.79 95.75 386.82 94.06Q385.85 92.37 384.34 90.14L384.34 90.14L378.86 81.93L375.26 85.38L375.26 88.19Q375.26 91 375.48 92.73Q375.70 94.46 376.24 95.43Q376.78 96.40 377.75 96.76Q378.72 97.12 380.23 97.12L380.23 97.12L380.23 100L358.99 100L358.99 97.12Q361.01 97.05 362.23 96.69Q363.46 96.33 364.18 95.43Q364.90 94.53 365.15 92.91Q365.40 91.29 365.40 88.70L365.40 88.70L365.40 58.17Q365.40 53.78 365.26 51.26Q365.11 48.74 364.50 47.48Q363.89 46.22 362.63 45.93Q361.37 45.64 359.21 45.64L359.21 45.64L359.21 42.98L375.26 40.24L375.26 80.27L382.18 73.72Q385.92 70.19 387.50 68.43Q389.09 66.66 389.09 65.87L389.09 65.87Q389.09 65.22 387.76 64.97Q386.42 64.72 382.82 64.72L382.82 64.72L382.82 61.84L402.48 61.84L402.48 64.72Q399.74 64.72 397.66 65.66Q395.57 66.59 393.12 68.90L393.12 68.90L386.14 75.45L398.59 93.09Q400.25 95.39 401.83 96.26Q403.42 97.12 406.01 97.12L406.01 97.12L406.01 100L383.62 100ZM440.57 90.78L442.58 93.30Q436.03 100.72 426.24 100.72L426.24 100.72Q421.78 100.72 418.14 99.32Q414.50 97.91 411.91 95.36Q409.32 92.80 407.88 89.27Q406.44 85.74 406.44 81.42L406.44 81.42Q406.44 76.96 407.95 73.25Q409.46 69.54 412.24 66.84Q415.01 64.14 418.79 62.63Q422.57 61.12 427.10 61.12L427.10 61.12Q434.74 61.12 438.98 65.22Q443.23 69.33 443.23 76.74L443.23 76.74Q443.23 77.90 442.87 78.15Q442.51 78.40 440.86 78.40L440.86 78.40L417.67 78.40Q417.38 79.05 417.38 80.78L417.38 80.78Q417.38 87.83 420.44 91.94Q423.50 96.04 428.76 96.04L428.76 96.04Q431.78 96.04 434.77 94.67Q437.76 93.30 440.57 90.78L440.57 90.78ZM418.18 74.37L428.62 74.37Q431.50 74.37 432.32 74.04Q433.15 73.72 433.15 72.50L433.15 72.50Q433.15 69.33 431.35 67.31Q429.55 65.30 426.82 65.30L426.82 65.30Q423.72 65.30 421.31 67.85Q418.90 70.41 418.18 74.37L418.18 74.37ZM464.40 85.38L464.40 88.84Q464.40 91.65 464.65 93.27Q464.90 94.89 465.70 95.75Q466.49 96.62 468 96.87Q469.51 97.12 472.03 97.12L472.03 97.12L472.03 100L447.98 100L447.98 97.12Q450.14 96.98 451.44 96.69Q452.74 96.40 453.38 95.54Q454.03 94.67 454.21 93.05Q454.39 91.43 454.39 88.70L454.39 88.70L454.39 79.91Q454.39 75.45 454.18 72.78Q453.96 70.12 453.24 68.68Q452.52 67.24 451.19 66.77Q449.86 66.30 447.70 66.30L447.70 66.30L447.70 63.78L462.10 61.12L463.25 69.40L463.54 69.40Q465.48 65.58 468.65 63.35Q471.82 61.12 475.34 61.12L475.34 61.12Q478.08 61.12 479.81 62.49Q481.54 63.86 481.54 65.94L481.54 65.94Q481.54 68.25 480.20 69.83Q478.87 71.42 476.57 71.42L476.57 71.42Q475.49 71.42 474.62 70.98Q473.76 70.55 473.08 70.01Q472.39 69.47 471.71 69.00Q471.02 68.54 470.30 68.54L470.30 68.54Q468.94 68.54 467.71 70.34Q466.49 72.14 465.70 75.16L465.70 75.16Q465.12 77.32 464.76 80.02Q464.40 82.72 464.40 85.38L464.40 85.38ZM500.33 100.72L488.95 71.13Q488.16 69.04 487.44 67.78Q486.72 66.52 485.96 65.84Q485.21 65.15 484.31 64.94Q483.41 64.72 482.18 64.72L482.18 64.72L482.18 61.84L503.71 61.84L503.71 64.72Q501.91 64.72 500.87 64.86Q499.82 65.01 499.28 65.30Q498.74 65.58 498.60 66.05Q498.46 66.52 498.46 67.10L498.46 67.10Q498.46 68.03 498.82 69.26Q499.18 70.48 499.68 71.70L499.68 71.70L506.52 90.57L506.81 90.57L514.51 71.78Q515.02 70.55 515.30 69.58Q515.59 68.61 515.59 67.82L515.59 67.82Q515.59 66.23 514.51 65.51Q513.43 64.79 510.70 64.72L510.70 64.72L510.70 61.84L526.61 61.84L526.61 64.72Q524.66 64.72 523.26 65.73Q521.86 66.74 520.34 70.19L520.34 70.19L506.88 100.72L500.33 100.72ZM545.11 61.12L545.11 88.19Q545.11 91.07 545.33 92.80Q545.54 94.53 546.19 95.46Q546.84 96.40 548.06 96.72Q549.29 97.05 551.38 97.12L551.38 97.12L551.38 100L528.70 100L528.70 97.12Q530.71 97.05 531.97 96.65Q533.23 96.26 533.92 95.36Q534.60 94.46 534.85 92.84Q535.10 91.22 535.10 88.70L535.10 88.70L535.10 79.84Q535.10 75.66 534.96 72.96Q534.82 70.26 534.60 69.26L534.60 69.26Q534.24 67.46 532.98 66.88Q531.72 66.30 528.41 66.30L528.41 66.30L528.41 63.86L545.11 61.12ZM534.53 45.86L534.53 45.86Q534.53 43.48 536.15 41.86Q537.77 40.24 540.07 40.24L540.07 40.24Q542.45 40.24 544.07 41.86Q545.69 43.48 545.69 45.86L545.69 45.86Q545.69 48.16 544.07 49.78Q542.45 51.40 540.07 51.40L540.07 51.40Q537.77 51.40 536.15 49.78Q534.53 48.16 534.53 45.86ZM570.38 40.24L570.38 88.19Q570.38 91.07 570.60 92.80Q570.82 94.53 571.46 95.46Q572.11 96.40 573.34 96.72Q574.56 97.05 576.65 97.12L576.65 97.12L576.65 100L553.97 100L553.97 97.12Q555.98 97.05 557.24 96.65Q558.50 96.26 559.19 95.36Q559.87 94.46 560.12 92.84Q560.38 91.22 560.38 88.70L560.38 88.70L560.38 58.96Q560.38 54.78 560.23 52.08Q560.09 49.38 559.87 48.38L559.87 48.38Q559.51 46.58 558.25 46.00Q556.99 45.42 553.68 45.42L553.68 45.42L553.68 42.98L570.38 40.24ZM595.94 40.24L595.94 88.19Q595.94 91.07 596.16 92.80Q596.38 94.53 597.02 95.46Q597.67 96.40 598.90 96.72Q600.12 97.05 602.21 97.12L602.21 97.12L602.21 100L579.53 100L579.53 97.12Q581.54 97.05 582.80 96.65Q584.06 96.26 584.75 95.36Q585.43 94.46 585.68 92.84Q585.94 91.22 585.94 88.70L585.94 88.70L585.94 58.96Q585.94 54.78 585.79 52.08Q585.65 49.38 585.43 48.38L585.43 48.38Q585.07 46.58 583.81 46.00Q582.55 45.42 579.24 45.42L579.24 45.42L579.24 42.98L595.94 40.24ZM640.58 90.78L642.60 93.30Q636.05 100.72 626.26 100.72L626.26 100.72Q621.79 100.72 618.16 99.32Q614.52 97.91 611.93 95.36Q609.34 92.80 607.90 89.27Q606.46 85.74 606.46 81.42L606.46 81.42Q606.46 76.96 607.97 73.25Q609.48 69.54 612.25 66.84Q615.02 64.14 618.80 62.63Q622.58 61.12 627.12 61.12L627.12 61.12Q634.75 61.12 639 65.22Q643.25 69.33 643.25 76.74L643.25 76.74Q643.25 77.90 642.89 78.15Q642.53 78.40 640.87 78.40L640.87 78.40L617.69 78.40Q617.40 79.05 617.40 80.78L617.40 80.78Q617.40 87.83 620.46 91.94Q623.52 96.04 628.78 96.04L628.78 96.04Q631.80 96.04 634.79 94.67Q637.78 93.30 640.58 90.78L640.58 90.78ZM618.19 74.37L628.63 74.37Q631.51 74.37 632.34 74.04Q633.17 73.72 633.17 72.50L633.17 72.50Q633.17 69.33 631.37 67.31Q629.57 65.30 626.83 65.30L626.83 65.30Q623.74 65.30 621.32 67.85Q618.91 70.41 618.19 74.37L618.19 74.37ZM681.19 79.70L681.19 84.23Q681.19 86.90 681.95 89.16Q682.70 91.43 684.00 93.09Q685.30 94.74 687.10 95.68Q688.90 96.62 691.06 96.62L691.06 96.62Q695.38 96.62 697.61 92.66Q699.84 88.70 699.84 80.99L699.84 80.99Q699.84 73.50 697.64 69.58Q695.45 65.66 691.06 65.66L691.06 65.66Q688.46 65.66 686.27 67.06Q684.07 68.46 682.85 70.98L682.85 70.98Q681.19 74.44 681.19 79.70L681.19 79.70ZM681.05 40.24L681.05 66.81L681.34 66.81Q683.21 64.07 686.16 62.60Q689.11 61.12 692.86 61.12L692.86 61.12Q696.67 61.12 699.95 62.67Q703.22 64.22 705.64 66.88Q708.05 69.54 709.42 73.14Q710.78 76.74 710.78 80.85L710.78 80.85Q710.78 85.17 709.31 88.80Q707.83 92.44 705.28 95.10Q702.72 97.77 699.30 99.28Q695.88 100.79 692.06 100.79L692.06 100.79Q688.10 100.79 684.61 99.24Q681.12 97.70 679.03 95.18L679.03 95.18L673.56 100L671.11 100L671.11 57.16Q671.11 50.39 670.18 47.87L670.18 47.87Q669.96 47.37 669.67 47.01Q669.38 46.65 668.84 46.40Q668.30 46.14 667.37 45.96Q666.43 45.78 664.92 45.57L664.92 45.57L664.92 43.12L681.05 40.24ZM737.14 61.12L737.14 61.12Q741.46 61.12 745.31 62.60Q749.16 64.07 752.08 66.66Q754.99 69.26 756.68 72.82Q758.38 76.38 758.38 80.63L758.38 80.63Q758.38 85.02 756.68 88.70Q754.99 92.37 752.08 95.03Q749.16 97.70 745.31 99.21Q741.46 100.72 737.14 100.72L737.14 100.72Q732.89 100.72 729.07 99.24Q725.26 97.77 722.38 95.10Q719.50 92.44 717.84 88.73Q716.18 85.02 716.18 80.63L716.18 80.63Q716.18 76.38 717.84 72.78Q719.50 69.18 722.38 66.59Q725.26 64.00 729.07 62.56Q732.89 61.12 737.14 61.12ZM737.14 65.30L737.14 65.30Q734.98 65.30 733.18 66.41Q731.38 67.53 730.12 69.54Q728.86 71.56 728.17 74.40Q727.49 77.25 727.49 80.70L727.49 80.70Q727.49 84.30 728.17 87.18Q728.86 90.06 730.12 92.08Q731.38 94.10 733.14 95.21Q734.90 96.33 737.14 96.33L737.14 96.33Q739.37 96.33 741.20 95.21Q743.04 94.10 744.34 92.04Q745.63 89.99 746.35 87.11Q747.07 84.23 747.07 80.70L747.07 80.70Q747.07 77.25 746.35 74.44Q745.63 71.63 744.34 69.58Q743.04 67.53 741.20 66.41Q739.37 65.30 737.14 65.30ZM778.82 40.24L778.82 88.19Q778.82 91.07 779.04 92.80Q779.26 94.53 779.90 95.46Q780.55 96.40 781.78 96.72Q783.00 97.05 785.09 97.12L785.09 97.12L785.09 100L762.41 100L762.41 97.12Q764.42 97.05 765.68 96.65Q766.94 96.26 767.63 95.36Q768.31 94.46 768.56 92.84Q768.82 91.22 768.82 88.70L768.82 88.70L768.82 58.96Q768.82 54.78 768.67 52.08Q768.53 49.38 768.31 48.38L768.31 48.38Q767.95 46.58 766.69 46.00Q765.43 45.42 762.12 45.42L762.12 45.42L762.12 42.98L778.82 40.24ZM821.23 100.72L821.23 95.39L820.94 95.39Q815.98 100.72 808.06 100.72L808.06 100.72Q803.95 100.72 800.53 99.28Q797.11 97.84 794.63 95.25Q792.14 92.66 790.78 89.09Q789.41 85.53 789.41 81.21L789.41 81.21Q789.41 76.89 790.81 73.22Q792.22 69.54 794.63 66.84Q797.04 64.14 800.39 62.63Q803.74 61.12 807.62 61.12L807.62 61.12Q811.22 61.12 814.00 62.20Q816.77 63.28 818.86 65.87L818.86 65.87L819.14 65.87L819.14 59.75Q819.14 55.50 819.04 52.44Q818.93 49.38 818.71 48.45L818.71 48.45Q818.35 46.94 816.52 46.25Q814.68 45.57 810.86 45.57L810.86 45.57L810.86 43.12L829.08 40.24L829.08 81.42Q829.08 86.82 829.19 89.74Q829.30 92.66 829.58 94.17L829.58 94.17Q829.73 95.10 830.02 95.68Q830.30 96.26 830.88 96.58Q831.46 96.90 832.43 97.01Q833.40 97.12 834.91 97.12L834.91 97.12L834.91 99.93L821.23 100.72ZM819.00 82.14L819.00 79.34Q819.00 76.60 818.42 74.26Q817.85 71.92 816.70 70.12L816.70 70.12Q815.40 68.03 813.38 66.95Q811.37 65.87 809.06 65.87L809.06 65.87Q804.82 65.87 802.58 69.76Q800.35 73.65 800.35 81.06L800.35 81.06Q800.35 88.55 802.58 92.58Q804.82 96.62 808.99 96.62L808.99 96.62Q811.37 96.62 813.53 95.39Q815.69 94.17 817.06 92.08L817.06 92.08Q818.06 90.50 818.53 88.16Q819.00 85.82 819.00 82.14L819.00 82.14Z"/></svg>