<svg xmlns="http://www.w3.org/2000/svg" viewBox="5.3220937500000005 46.57599999999999 947.9412908492092 66.024"><path d="M12.67 47.30Q12.74 46.86 12.89 46.72Q13.03 46.58 13.46 46.58L13.46 46.58L16.27 46.58Q16.63 46.58 16.70 46.76Q16.78 46.94 16.70 47.44L16.70 47.44L10.01 95.97Q9.94 96.33 10.01 96.44Q10.08 96.54 10.44 96.54L10.44 96.54L36.29 96.54Q37.08 96.54 36.94 97.19L36.94 97.19L36.65 99.50Q36.58 99.78 36.47 99.89Q36.36 100 36.07 100L36.07 100L6.05 100Q5.26 100 5.33 99.14L5.33 99.14L12.67 47.30ZM57.46 47.66L56.74 52.84Q56.66 53.42 56.48 53.67Q56.30 53.92 55.73 53.92L55.73 53.92L53.21 53.92Q52.34 53.92 52.49 52.77L52.49 52.77L53.21 47.51Q53.28 46.58 54.22 46.58L54.22 46.58L56.74 46.58Q57.10 46.58 57.31 46.86Q57.53 47.15 57.46 47.66L57.46 47.66ZM55.08 62.70L49.90 99.14Q49.82 99.71 49.68 99.86Q49.54 100 48.96 100L48.96 100L47.16 100Q46.22 100 46.30 99.14L46.30 99.14L51.48 62.49Q51.55 62.06 51.66 61.95Q51.77 61.84 52.13 61.84L52.13 61.84L54.43 61.84Q55.22 61.84 55.08 62.70L55.08 62.70ZM64.58 100L63.43 100Q62.42 100 62.64 98.92L62.64 98.92L69.91 47.22Q69.98 46.86 70.13 46.72Q70.27 46.58 70.56 46.58L70.56 46.58L72.94 46.58Q73.58 46.58 73.44 47.51L73.44 47.51L70.92 65.58L70.85 66.02Q70.85 66.23 70.99 66.23L70.99 66.23Q71.06 66.23 71.71 65.73L71.71 65.73Q71.93 65.58 73.58 64.40Q75.24 63.21 78.26 62.16Q81.29 61.12 84.53 61.12L84.53 61.12Q91.22 61.12 94.54 65.22Q97.85 69.33 97.85 76.24L97.85 76.24Q97.85 82.22 95.69 87.87Q93.53 93.52 89.14 97.12Q84.74 100.72 78.41 100.72L78.41 100.72Q73.73 100.72 71.06 98.85Q68.40 96.98 67.32 95.03L67.32 95.03Q67.25 94.82 66.96 94.82L66.96 94.82Q66.60 94.82 66.46 95.46L66.46 95.46L65.74 99.06Q65.66 99.64 65.45 99.82Q65.23 100 64.58 100L64.58 100ZM70.34 70.34L67.82 87.33Q67.75 87.69 67.75 88.48L67.75 88.48Q67.75 91 69.19 93.09Q70.63 95.18 73.01 96.40Q75.38 97.62 78.05 97.62L78.05 97.62Q83.09 97.62 86.72 94.53Q90.36 91.43 92.20 86.61Q94.03 81.78 94.03 76.53L94.03 76.53Q94.03 70.70 91.37 67.46Q88.70 64.22 83.59 64.22L83.59 64.22Q79.92 64.22 76.46 65.94Q73.01 67.67 70.34 70.34L70.34 70.34ZM106.06 100Q105.70 100 105.48 99.78Q105.26 99.57 105.34 99.21L105.34 99.21L110.52 62.49Q110.59 62.13 110.70 61.98Q110.81 61.84 111.10 61.84L111.10 61.84L113.26 61.84Q113.98 61.84 113.90 62.56L113.90 62.56L113.18 67.17L113.18 67.31Q113.18 67.60 113.36 67.60Q113.54 67.60 113.83 67.31L113.83 67.31Q117.14 64.00 120.06 62.56Q122.98 61.12 125.93 61.12L125.93 61.12Q128.59 61.12 128.45 61.91L128.45 61.91L128.09 64.36Q128.09 64.72 127.87 64.72L127.87 64.72L125.42 64.65Q123.12 64.65 120.17 66.09Q117.22 67.53 114.98 69.72Q112.75 71.92 112.46 74.15L112.46 74.15L108.94 99.35Q108.86 99.71 108.72 99.86Q108.58 100 108.22 100L108.22 100L106.06 100ZM145.87 100.72Q138.82 100.72 134.68 96.36Q130.54 92.01 130.54 84.74L130.54 84.74Q130.54 78.69 133.02 73.25Q135.50 67.82 140.18 64.47Q144.86 61.12 151.13 61.12L151.13 61.12Q157.90 61.12 161.68 65.12Q165.46 69.11 165.46 76.31L165.46 76.31Q165.46 78.54 165.17 80.56L165.17 80.56Q165.02 81.86 163.80 81.86L163.80 81.86L135.00 81.86Q134.50 81.86 134.32 82.47Q134.14 83.08 134.14 85.10L134.14 85.10Q134.14 90.71 137.48 94.13Q140.83 97.55 146.09 97.55L146.09 97.55Q154.37 97.55 159.41 90.93L159.41 90.93Q159.62 90.64 159.80 90.64Q159.98 90.64 160.27 90.86L160.27 90.86L162.07 92.01Q162.29 92.15 162.32 92.37Q162.36 92.58 162.22 92.87L162.22 92.87Q159.05 96.83 155.02 98.78Q150.98 100.72 145.87 100.72L145.87 100.72ZM134.93 78.98L160.42 78.98Q161.28 78.98 161.68 78.29Q162.07 77.61 162.07 75.52L162.07 75.52Q162.07 70.41 159.01 67.31Q155.95 64.22 150.91 64.22L150.91 64.22Q146.52 64.22 143.06 66.38Q139.61 68.54 137.48 71.92Q135.36 75.30 134.93 78.98L134.93 78.98ZM196.99 47.30Q197.06 46.79 197.21 46.68Q197.35 46.58 197.78 46.58L197.78 46.58L227.45 46.58Q228.10 46.58 227.95 47.22L227.95 47.22L227.66 49.38Q227.59 49.74 227.45 49.89Q227.30 50.03 226.94 50.03L226.94 50.03L201.46 50.03Q201.02 50.03 200.84 50.18Q200.66 50.32 200.59 50.75L200.59 50.75L197.71 71.56L197.71 71.78Q197.71 72.21 198.22 72.21L198.22 72.21L219.24 72.21Q219.74 72.21 219.74 72.71L219.74 72.71L219.53 74.94Q219.53 75.59 218.81 75.59L218.81 75.59L197.71 75.59Q197.35 75.59 197.24 75.74Q197.14 75.88 196.99 76.38L196.99 76.38L193.82 99.50Q193.68 100 193.03 100L193.03 100L190.15 100Q189.72 100 189.65 99.82Q189.58 99.64 189.65 99.14L189.65 99.14L196.99 47.30ZM227.38 100Q227.02 100 226.80 99.78Q226.58 99.57 226.66 99.21L226.66 99.21L231.84 62.49Q231.91 62.13 232.02 61.98Q232.13 61.84 232.42 61.84L232.42 61.84L234.58 61.84Q235.30 61.84 235.22 62.56L235.22 62.56L234.50 67.17L234.50 67.31Q234.50 67.60 234.68 67.60Q234.86 67.60 235.15 67.31L235.15 67.31Q238.46 64.00 241.38 62.56Q244.30 61.12 247.25 61.12L247.25 61.12Q249.91 61.12 249.77 61.91L249.77 61.91L249.41 64.36Q249.41 64.72 249.19 64.72L249.19 64.72L246.74 64.65Q244.44 64.65 241.49 66.09Q238.54 67.53 236.30 69.72Q234.07 71.92 233.78 74.15L233.78 74.15L230.26 99.35Q230.18 99.71 230.04 99.86Q229.90 100 229.54 100L229.54 100L227.38 100ZM276.05 95.10Q269.50 100.72 261.79 100.72L261.79 100.72Q256.61 100.72 253.69 98.31Q250.78 95.90 250.78 91.79L250.78 91.79Q250.78 84.95 256.46 81.68Q262.15 78.40 270.65 77.68L270.65 77.68L277.85 77.10Q278.42 77.03 278.86 76.74Q279.29 76.46 279.36 75.95L279.36 75.95L279.65 73.79Q279.79 72.64 279.79 72.06L279.79 72.06Q279.79 68.39 277.38 66.30Q274.97 64.22 270.79 64.22L270.79 64.22Q267.19 64.22 264.10 65.84Q261 67.46 258.12 70.77L258.12 70.77Q257.69 71.20 257.33 70.91L257.33 70.91L255.24 69.76Q255.02 69.62 255.02 69.40L255.02 69.40Q255.02 69.26 255.24 68.82L255.24 68.82Q258.05 65.30 262.08 63.21Q266.11 61.12 271.08 61.12L271.08 61.12Q276.91 61.12 280.12 63.86Q283.32 66.59 283.32 71.49L283.32 71.49Q283.32 72.21 283.18 73.65L283.18 73.65L279.58 99.28Q279.50 99.71 279.36 99.86Q279.22 100 278.78 100L278.78 100L276.98 100Q276.12 100 276.26 99.21L276.26 99.21L276.77 95.03Q276.77 94.60 276.62 94.60L276.62 94.60Q276.41 94.60 276.05 95.10L276.05 95.10ZM277.70 87.62L278.57 80.92L278.57 80.63Q278.57 80.20 278.42 80.06Q278.28 79.91 277.78 79.98L277.78 79.98L271.66 80.49Q254.59 81.78 254.59 91.36L254.59 91.36Q254.59 94.24 256.75 95.90Q258.91 97.55 262.73 97.55L262.73 97.55Q265.32 97.55 267.91 96.62Q270.50 95.68 272.66 94.10L272.66 94.10Q274.82 92.58 276.16 90.89Q277.49 89.20 277.70 87.62L277.70 87.62ZM292.25 100Q291.89 100 291.67 99.78Q291.46 99.57 291.53 99.21L291.53 99.21L296.71 62.49Q296.78 62.13 296.89 61.98Q297.00 61.84 297.29 61.84L297.29 61.84L299.52 61.84Q300.24 61.84 300.10 62.49L300.10 62.49L299.45 66.88Q299.38 67.31 299.48 67.38Q299.59 67.46 299.95 67.17L299.95 67.17Q303.91 64.14 307.40 62.63Q310.90 61.12 314.57 61.12L314.57 61.12Q319.61 61.12 322.31 63.50Q325.01 65.87 325.01 69.98L325.01 69.98Q325.01 70.55 324.86 71.85L324.86 71.85L320.98 99.28Q320.90 100 320.26 100L320.26 100L318.02 100Q317.74 100 317.52 99.78Q317.30 99.57 317.38 99.21L317.38 99.21L321.12 72.93Q321.26 71.49 321.26 70.84L321.26 70.84Q321.26 64.29 313.92 64.29L313.92 64.29Q310.46 64.29 307.44 65.73Q304.42 67.17 299.16 70.84L299.16 70.84L295.13 99.35Q295.06 99.71 294.91 99.86Q294.77 100 294.34 100L294.34 100L292.25 100ZM363.53 99.14Q363.74 99.42 363.74 99.71L363.74 99.71Q363.74 100 363.17 100L363.17 100L360.36 100Q359.78 100 359.42 99.35L359.42 99.35L349.70 78.83Q349.56 78.69 349.42 78.72Q349.27 78.76 349.06 78.98L349.06 78.98L338.90 87.98Q338.26 88.62 338.18 89.27L338.18 89.27L336.74 99.14Q336.67 99.71 336.53 99.86Q336.38 100 335.81 100L335.81 100L334.01 100Q333.07 100 333.14 99.14L333.14 99.14L340.49 47.22Q340.56 46.79 340.67 46.68Q340.78 46.58 341.14 46.58L341.14 46.58L343.44 46.58Q344.23 46.58 344.02 47.44L344.02 47.44L339.12 82.72Q339.05 82.94 339.05 83.22L339.05 83.22Q339.05 83.37 339.12 83.37L339.12 83.37Q339.19 83.37 339.70 82.94L339.70 82.94L362.45 62.49Q362.88 62.06 363.13 61.95Q363.38 61.84 363.74 61.84L363.74 61.84L366.55 61.84Q367.20 61.84 367.20 62.27L367.20 62.27Q367.20 62.63 366.77 63.06L366.77 63.06L353.09 75.30Q352.80 75.52 352.69 75.74Q352.58 75.95 352.66 76.24L352.66 76.24L363.53 99.14ZM383.18 47.44L375.91 99.14Q375.84 99.71 375.70 99.86Q375.55 100 374.98 100L374.98 100L373.18 100Q372.24 100 372.31 99.14L372.31 99.14L379.66 47.22Q379.73 46.79 379.84 46.68Q379.94 46.58 380.38 46.58L380.38 46.58L382.61 46.58Q383.40 46.58 383.18 47.44L383.18 47.44ZM399.74 47.66L399.02 52.84Q398.95 53.42 398.77 53.67Q398.59 53.92 398.02 53.92L398.02 53.92L395.50 53.92Q394.63 53.92 394.78 52.77L394.78 52.77L395.50 47.51Q395.57 46.58 396.50 46.58L396.50 46.58L399.02 46.58Q399.38 46.58 399.60 46.86Q399.82 47.15 399.74 47.66L399.74 47.66ZM397.37 62.70L392.18 99.14Q392.11 99.71 391.97 99.86Q391.82 100 391.25 100L391.25 100L389.45 100Q388.51 100 388.58 99.14L388.58 99.14L393.77 62.49Q393.84 62.06 393.95 61.95Q394.06 61.84 394.42 61.84L394.42 61.84L396.72 61.84Q397.51 61.84 397.37 62.70L397.37 62.70ZM405.58 100Q405.22 100 405 99.78Q404.78 99.57 404.86 99.21L404.86 99.21L410.04 62.49Q410.11 62.13 410.22 61.98Q410.33 61.84 410.62 61.84L410.62 61.84L412.85 61.84Q413.57 61.84 413.42 62.49L413.42 62.49L412.78 66.88Q412.70 67.31 412.81 67.38Q412.92 67.46 413.28 67.17L413.28 67.17Q417.24 64.14 420.73 62.63Q424.22 61.12 427.90 61.12L427.90 61.12Q432.94 61.12 435.64 63.50Q438.34 65.87 438.34 69.98L438.34 69.98Q438.34 70.55 438.19 71.85L438.19 71.85L434.30 99.28Q434.23 100 433.58 100L433.58 100L431.35 100Q431.06 100 430.85 99.78Q430.63 99.57 430.70 99.21L430.70 99.21L434.45 72.93Q434.59 71.49 434.59 70.84L434.59 70.84Q434.59 64.29 427.25 64.29L427.25 64.29Q423.79 64.29 420.77 65.73Q417.74 67.17 412.49 70.84L412.49 70.84L408.46 99.35Q408.38 99.71 408.24 99.86Q408.10 100 407.66 100L407.66 100L405.58 100ZM477.43 100.72Q470.38 100.72 466.24 96.36Q462.10 92.01 462.10 84.74L462.10 84.74Q462.10 78.69 464.58 73.25Q467.06 67.82 471.74 64.47Q476.42 61.12 482.69 61.12L482.69 61.12Q489.46 61.12 493.24 65.12Q497.02 69.11 497.02 76.31L497.02 76.31Q497.02 78.54 496.73 80.56L496.73 80.56Q496.58 81.86 495.36 81.86L495.36 81.86L466.56 81.86Q466.06 81.86 465.88 82.47Q465.70 83.08 465.70 85.10L465.70 85.10Q465.70 90.71 469.04 94.13Q472.39 97.55 477.65 97.55L477.65 97.55Q485.93 97.55 490.97 90.93L490.97 90.93Q491.18 90.64 491.36 90.64Q491.54 90.64 491.83 90.86L491.83 90.86L493.63 92.01Q493.85 92.15 493.88 92.37Q493.92 92.58 493.78 92.87L493.78 92.87Q490.61 96.83 486.58 98.78Q482.54 100.72 477.43 100.72L477.43 100.72ZM466.49 78.98L491.98 78.98Q492.84 78.98 493.24 78.29Q493.63 77.61 493.63 75.52L493.63 75.52Q493.63 70.41 490.57 67.31Q487.51 64.22 482.47 64.22L482.47 64.22Q478.08 64.22 474.62 66.38Q471.17 68.54 469.04 71.92Q466.92 75.30 466.49 78.98L466.49 78.98ZM531.50 99.06Q531.86 99.64 531.86 99.82Q531.86 100 531.43 100L531.43 100L528.41 100Q528.12 100 527.83 99.82Q527.54 99.64 527.47 99.50L527.47 99.50L518.11 83.87Q517.97 83.51 517.68 83.51L517.68 83.51Q517.54 83.51 517.03 84.02L517.03 84.02L502.78 99.64Q502.63 100 501.77 100L501.77 100L499.54 100Q498.82 100 498.82 99.57L498.82 99.57Q498.82 99.14 499.25 98.70L499.25 98.70L515.45 81.28Q516.17 80.56 515.81 79.98L515.81 79.98L505.30 62.49Q505.08 62.27 505.15 62.06Q505.22 61.84 505.58 61.84L505.58 61.84L508.39 61.84Q509.04 61.84 509.26 62.34L509.26 62.34L518.40 77.32Q518.47 77.61 518.76 77.61L518.76 77.61Q519.05 77.61 519.48 77.10L519.48 77.10L532.51 62.20Q532.73 61.91 532.94 61.88Q533.16 61.84 533.52 61.84L533.52 61.84L535.90 61.84Q536.33 61.84 536.44 62.09Q536.54 62.34 536.33 62.63L536.33 62.63L520.99 79.70Q520.20 80.49 520.63 80.99L520.63 80.99L531.50 99.06ZM551.38 100Q547.63 100 546.01 98.60Q544.39 97.19 544.39 94.02L544.39 94.02Q544.39 93.16 544.54 91.29L544.54 91.29L548.14 65.30Q548.21 65.01 548.14 64.90Q548.06 64.79 547.78 64.79L547.78 64.79L541.22 64.79Q540.79 64.79 540.79 64.22L540.79 64.22L541.08 62.20Q541.15 61.84 541.51 61.84L541.51 61.84L548.14 61.84Q548.35 61.84 548.57 61.66Q548.78 61.48 548.78 61.19L548.78 61.19L551.09 49.53Q551.16 48.88 551.88 48.88L551.88 48.88L553.46 48.88Q554.11 48.88 554.04 49.82L554.04 49.82L552.38 61.34Q552.31 61.62 552.38 61.73Q552.46 61.84 552.74 61.84L552.74 61.84L562.54 61.84Q563.18 61.84 563.04 62.42L563.04 62.42L562.75 64.43Q562.75 64.65 562.64 64.72Q562.54 64.79 562.25 64.79L562.25 64.79L552.46 64.79Q551.88 64.79 551.74 65.44L551.74 65.44L548.21 90.86Q547.99 92.22 547.99 93.23L547.99 93.23Q547.99 95.46 548.89 96.26Q549.79 97.05 551.81 97.05L551.81 97.05L557.28 97.05Q557.93 97.05 557.93 97.70L557.93 97.70L557.64 99.21Q557.57 99.64 557.21 99.78L557.21 99.78Q555.48 100 551.38 100L551.38 100ZM567.36 100Q567.00 100 566.78 99.78Q566.57 99.57 566.64 99.21L566.64 99.21L571.82 62.49Q571.90 62.13 572.00 61.98Q572.11 61.84 572.40 61.84L572.40 61.84L574.56 61.84Q575.28 61.84 575.21 62.56L575.21 62.56L574.49 67.17L574.49 67.31Q574.49 67.60 574.67 67.60Q574.85 67.60 575.14 67.31L575.14 67.31Q578.45 64.00 581.36 62.56Q584.28 61.12 587.23 61.12L587.23 61.12Q589.90 61.12 589.75 61.91L589.75 61.91L589.39 64.36Q589.39 64.72 589.18 64.72L589.18 64.72L586.73 64.65Q584.42 64.65 581.47 66.09Q578.52 67.53 576.29 69.72Q574.06 71.92 573.77 74.15L573.77 74.15L570.24 99.35Q570.17 99.71 570.02 99.86Q569.88 100 569.52 100L569.52 100L567.36 100ZM616.03 95.10Q609.48 100.72 601.78 100.72L601.78 100.72Q596.59 100.72 593.68 98.31Q590.76 95.90 590.76 91.79L590.76 91.79Q590.76 84.95 596.45 81.68Q602.14 78.40 610.63 77.68L610.63 77.68L617.83 77.10Q618.41 77.03 618.84 76.74Q619.27 76.46 619.34 75.95L619.34 75.95L619.63 73.79Q619.78 72.64 619.78 72.06L619.78 72.06Q619.78 68.39 617.36 66.30Q614.95 64.22 610.78 64.22L610.78 64.22Q607.18 64.22 604.08 65.84Q600.98 67.46 598.10 70.77L598.10 70.77Q597.67 71.20 597.31 70.91L597.31 70.91L595.22 69.76Q595.01 69.62 595.01 69.40L595.01 69.40Q595.01 69.26 595.22 68.82L595.22 68.82Q598.03 65.30 602.06 63.21Q606.10 61.12 611.06 61.12L611.06 61.12Q616.90 61.12 620.10 63.86Q623.30 66.59 623.30 71.49L623.30 71.49Q623.30 72.21 623.16 73.65L623.16 73.65L619.56 99.28Q619.49 99.71 619.34 99.86Q619.20 100 618.77 100L618.77 100L616.97 100Q616.10 100 616.25 99.21L616.25 99.21L616.75 95.03Q616.75 94.60 616.61 94.60L616.61 94.60Q616.39 94.60 616.03 95.10L616.03 95.10ZM617.69 87.62L618.55 80.92L618.55 80.63Q618.55 80.20 618.41 80.06Q618.26 79.91 617.76 79.98L617.76 79.98L611.64 80.49Q594.58 81.78 594.58 91.36L594.58 91.36Q594.58 94.24 596.74 95.90Q598.90 97.55 602.71 97.55L602.71 97.55Q605.30 97.55 607.90 96.62Q610.49 95.68 612.65 94.10L612.65 94.10Q614.81 92.58 616.14 90.89Q617.47 89.20 617.69 87.62L617.69 87.62ZM658.15 47.44L650.88 99.14Q650.81 99.71 650.66 99.86Q650.52 100 649.94 100L649.94 100L648.14 100Q647.21 100 647.28 99.14L647.28 99.14L654.62 47.22Q654.70 46.79 654.80 46.68Q654.91 46.58 655.34 46.58L655.34 46.58L657.58 46.58Q658.37 46.58 658.15 47.44L658.15 47.44ZM674.71 47.66L673.99 52.84Q673.92 53.42 673.74 53.67Q673.56 53.92 672.98 53.92L672.98 53.92L670.46 53.92Q669.60 53.92 669.74 52.77L669.74 52.77L670.46 47.51Q670.54 46.58 671.47 46.58L671.47 46.58L673.99 46.58Q674.35 46.58 674.57 46.86Q674.78 47.15 674.71 47.66L674.71 47.66ZM672.34 62.70L667.15 99.14Q667.08 99.71 666.94 99.86Q666.79 100 666.22 100L666.22 100L664.42 100Q663.48 100 663.55 99.14L663.55 99.14L668.74 62.49Q668.81 62.06 668.92 61.95Q669.02 61.84 669.38 61.84L669.38 61.84L671.69 61.84Q672.48 61.84 672.34 62.70L672.34 62.70ZM691.42 112.60Q683.57 112.60 679.43 110.08Q675.29 107.56 675.29 103.17L675.29 103.17Q675.29 100.14 677.30 97.59Q679.32 95.03 682.85 93.38L682.85 93.38Q683.35 93.16 683.46 92.98Q683.57 92.80 683.21 92.58L683.21 92.58Q681.05 91.07 681.05 89.20L681.05 89.20Q681.05 87.40 682.67 86.07Q684.29 84.74 686.66 83.87L686.66 83.87Q687.10 83.66 687.20 83.37Q687.31 83.08 687.02 82.94L687.02 82.94Q682.34 80.34 682.34 75.23L682.34 75.23Q682.34 70.91 684.54 67.74Q686.74 64.58 690.44 62.92Q694.15 61.26 698.62 61.26L698.62 61.26Q705.82 61.26 709.27 64.58L709.27 64.58Q709.56 64.86 709.85 64.86L709.85 64.86Q709.99 64.86 710.71 64.43L710.71 64.43Q714.67 61.70 717.34 61.70L717.34 61.70Q718.13 61.70 718.45 61.95Q718.78 62.20 718.70 62.70L718.70 62.70L718.56 64.00Q718.42 64.65 718.16 64.86Q717.91 65.08 717.26 65.15L717.26 65.15Q715.10 65.22 713.23 66.16L713.23 66.16Q712.08 66.66 711.65 67.06Q711.22 67.46 711.36 67.89L711.36 67.89Q712.15 69.98 712.15 71.85L712.15 71.85Q712.15 76.17 709.92 79.12Q707.69 82.07 703.98 83.51Q700.27 84.95 695.81 84.95L695.81 84.95Q692.35 84.95 688.57 85.67Q684.79 86.39 684.79 88.62L684.79 88.62Q684.79 89.70 686.41 90.24Q688.03 90.78 691.85 91L691.85 91L700.56 91.50Q710.78 92.01 710.78 100.14L710.78 100.14Q710.78 106.55 705.24 109.58Q699.70 112.60 691.42 112.60L691.42 112.60ZM695.95 82Q701.50 82 705.13 79.44Q708.77 76.89 708.77 71.42L708.77 71.42Q708.77 67.96 706.21 66.09Q703.66 64.22 698.76 64.22L698.76 64.22Q693.36 64.22 689.58 67.02Q685.80 69.83 685.80 75.02L685.80 75.02Q685.80 78.40 688.43 80.20Q691.06 82 695.95 82L695.95 82ZM691.42 109.65Q697.97 109.65 702.54 107.56Q707.11 105.47 707.11 100.29L707.11 100.29Q707.11 97.62 705.49 96.36Q703.87 95.10 700.06 94.96L700.06 94.96L687.89 94.17Q683.86 95.10 681.41 97.30Q678.96 99.50 678.96 102.66L678.96 102.66Q678.96 109.65 691.42 109.65L691.42 109.65ZM724.90 100L722.74 100Q722.38 100 722.16 99.78Q721.94 99.57 722.02 99.21L722.02 99.21L729.36 47.22Q729.43 46.79 729.54 46.68Q729.65 46.58 730.01 46.58L730.01 46.58L732.10 46.58Q732.82 46.58 732.74 47.30L732.74 47.30L730.01 66.38Q729.94 67.17 730.44 66.88L730.44 66.88Q735.70 63.64 738.61 62.38Q741.53 61.12 745.06 61.12L745.06 61.12Q750.10 61.12 752.80 63.50Q755.50 65.87 755.50 69.98L755.50 69.98Q755.50 70.55 755.35 71.85L755.35 71.85L751.46 99.28Q751.39 99.71 751.25 99.86Q751.10 100 750.74 100L750.74 100L748.58 100Q748.22 100 748.01 99.78Q747.79 99.57 747.86 99.21L747.86 99.21L751.61 72.86Q751.75 71.56 751.75 70.84L751.75 70.84Q751.75 64.29 744.41 64.29L744.41 64.29Q740.95 64.29 737.93 65.73Q734.90 67.17 729.65 70.84L729.65 70.84L725.62 99.35Q725.54 99.71 725.40 99.86Q725.26 100 724.90 100L724.90 100ZM774.65 100Q770.90 100 769.28 98.60Q767.66 97.19 767.66 94.02L767.66 94.02Q767.66 93.16 767.81 91.29L767.81 91.29L771.41 65.30Q771.48 65.01 771.41 64.90Q771.34 64.79 771.05 64.79L771.05 64.79L764.50 64.79Q764.06 64.79 764.06 64.22L764.06 64.22L764.35 62.20Q764.42 61.84 764.78 61.84L764.78 61.84L771.41 61.84Q771.62 61.84 771.84 61.66Q772.06 61.48 772.06 61.19L772.06 61.19L774.36 49.53Q774.43 48.88 775.15 48.88L775.15 48.88L776.74 48.88Q777.38 48.88 777.31 49.82L777.31 49.82L775.66 61.34Q775.58 61.62 775.66 61.73Q775.73 61.84 776.02 61.84L776.02 61.84L785.81 61.84Q786.46 61.84 786.31 62.42L786.31 62.42L786.02 64.43Q786.02 64.65 785.92 64.72Q785.81 64.79 785.52 64.79L785.52 64.79L775.73 64.79Q775.15 64.79 775.01 65.44L775.01 65.44L771.48 90.86Q771.26 92.22 771.26 93.23L771.26 93.23Q771.26 95.46 772.16 96.26Q773.06 97.05 775.08 97.05L775.08 97.05L780.55 97.05Q781.20 97.05 781.20 97.70L781.20 97.70L780.91 99.21Q780.84 99.64 780.48 99.78L780.48 99.78Q778.75 100 774.65 100L774.65 100ZM816.84 47.66L816.12 52.84Q816.05 53.42 815.87 53.67Q815.69 53.92 815.11 53.92L815.11 53.92L812.59 53.92Q811.73 53.92 811.87 52.77L811.87 52.77L812.59 47.51Q812.66 46.58 813.60 46.58L813.60 46.58L816.12 46.58Q816.48 46.58 816.70 46.86Q816.91 47.15 816.84 47.66L816.84 47.66ZM814.46 62.70L809.28 99.14Q809.21 99.71 809.06 99.86Q808.92 100 808.34 100L808.34 100L806.54 100Q805.61 100 805.68 99.14L805.68 99.14L810.86 62.49Q810.94 62.06 811.04 61.95Q811.15 61.84 811.51 61.84L811.51 61.84L813.82 61.84Q814.61 61.84 814.46 62.70L814.46 62.70ZM832.97 100Q829.22 100 827.60 98.60Q825.98 97.19 825.98 94.02L825.98 94.02Q825.98 93.16 826.13 91.29L826.13 91.29L829.73 65.30Q829.80 65.01 829.73 64.90Q829.66 64.79 829.37 64.79L829.37 64.79L822.82 64.79Q822.38 64.79 822.38 64.22L822.38 64.22L822.67 62.20Q822.74 61.84 823.10 61.84L823.10 61.84L829.73 61.84Q829.94 61.84 830.16 61.66Q830.38 61.48 830.38 61.19L830.38 61.19L832.68 49.53Q832.75 48.88 833.47 48.88L833.47 48.88L835.06 48.88Q835.70 48.88 835.63 49.82L835.63 49.82L833.98 61.34Q833.90 61.62 833.98 61.73Q834.05 61.84 834.34 61.84L834.34 61.84L844.13 61.84Q844.78 61.84 844.63 62.42L844.63 62.42L844.34 64.43Q844.34 64.65 844.24 64.72Q844.13 64.79 843.84 64.79L843.84 64.79L834.05 64.79Q833.47 64.79 833.33 65.44L833.33 65.44L829.80 90.86Q829.58 92.22 829.58 93.23L829.58 93.23Q829.58 95.46 830.48 96.26Q831.38 97.05 833.40 97.05L833.40 97.05L838.87 97.05Q839.52 97.05 839.52 97.70L839.52 97.70L839.23 99.21Q839.16 99.64 838.80 99.78L838.80 99.78Q837.07 100 832.97 100L832.97 100ZM871.63 95.10Q865.08 100.72 857.38 100.72L857.38 100.72Q852.19 100.72 849.28 98.31Q846.36 95.90 846.36 91.79L846.36 91.79Q846.36 84.95 852.05 81.68Q857.74 78.40 866.23 77.68L866.23 77.68L873.43 77.10Q874.01 77.03 874.44 76.74Q874.87 76.46 874.94 75.95L874.94 75.95L875.23 73.79Q875.38 72.64 875.38 72.06L875.38 72.06Q875.38 68.39 872.96 66.30Q870.55 64.22 866.38 64.22L866.38 64.22Q862.78 64.22 859.68 65.84Q856.58 67.46 853.70 70.77L853.70 70.77Q853.27 71.20 852.91 70.91L852.91 70.91L850.82 69.76Q850.61 69.62 850.61 69.40L850.61 69.40Q850.61 69.26 850.82 68.82L850.82 68.82Q853.63 65.30 857.66 63.21Q861.70 61.12 866.66 61.12L866.66 61.12Q872.50 61.12 875.70 63.86Q878.90 66.59 878.90 71.49L878.90 71.49Q878.90 72.21 878.76 73.65L878.76 73.65L875.16 99.28Q875.09 99.71 874.94 99.86Q874.80 100 874.37 100L874.37 100L872.57 100Q871.70 100 871.85 99.21L871.85 99.21L872.35 95.03Q872.35 94.60 872.21 94.60L872.21 94.60Q871.99 94.60 871.63 95.10L871.63 95.10ZM873.29 87.62L874.15 80.92L874.15 80.63Q874.15 80.20 874.01 80.06Q873.86 79.91 873.36 79.98L873.36 79.98L867.24 80.49Q850.18 81.78 850.18 91.36L850.18 91.36Q850.18 94.24 852.34 95.90Q854.50 97.55 858.31 97.55L858.31 97.55Q860.90 97.55 863.50 96.62Q866.09 95.68 868.25 94.10L868.25 94.10Q870.41 92.58 871.74 90.89Q873.07 89.20 873.29 87.62L873.29 87.62ZM897.98 47.44L890.71 99.14Q890.64 99.71 890.50 99.86Q890.35 100 889.78 100L889.78 100L887.98 100Q887.04 100 887.11 99.14L887.11 99.14L894.46 47.22Q894.53 46.79 894.64 46.68Q894.74 46.58 895.18 46.58L895.18 46.58L897.41 46.58Q898.20 46.58 897.98 47.44L897.98 47.44ZM914.54 47.66L913.82 52.84Q913.75 53.42 913.57 53.67Q913.39 53.92 912.82 53.92L912.82 53.92L910.30 53.92Q909.43 53.92 909.58 52.77L909.58 52.77L910.30 47.51Q910.37 46.58 911.30 46.58L911.30 46.58L913.82 46.58Q914.18 46.58 914.40 46.86Q914.62 47.15 914.54 47.66L914.54 47.66ZM912.17 62.70L906.98 99.14Q906.91 99.71 906.77 99.86Q906.62 100 906.05 100L906.05 100L904.25 100Q903.31 100 903.38 99.14L903.38 99.14L908.57 62.49Q908.64 62.06 908.75 61.95Q908.86 61.84 909.22 61.84L909.22 61.84L911.52 61.84Q912.31 61.84 912.17 62.70L912.17 62.70ZM939.89 61.12Q949.03 61.12 953.06 69.26L953.06 69.26Q953.50 69.90 952.99 70.12L952.99 70.12L950.69 71.06L950.54 71.13Q950.33 71.13 949.97 70.48L949.97 70.48Q947.66 67.10 945.36 65.66Q943.06 64.22 940.10 64.22L940.10 64.22Q934.99 64.22 931.18 67.17Q927.36 70.12 925.31 74.80Q923.26 79.48 923.26 84.59L923.26 84.59Q923.26 90.64 926.39 94.13Q929.52 97.62 935.06 97.62L935.06 97.62Q938.74 97.62 941.87 95.82Q945.00 94.02 947.81 90.35L947.81 90.35Q948.10 90.06 948.24 90.06Q948.38 90.06 948.60 90.28L948.60 90.28L950.40 91.36Q950.62 91.50 950.72 91.72Q950.83 91.94 950.69 92.22L950.69 92.22Q947.59 96.33 943.49 98.52Q939.38 100.72 934.63 100.72L934.63 100.72Q927.65 100.72 923.58 96.33Q919.51 91.94 919.51 84.66L919.51 84.66Q919.51 78.83 921.96 73.40Q924.41 67.96 929.05 64.54Q933.70 61.12 939.89 61.12L939.89 61.12Z"/></svg>