<svg xmlns="http://www.w3.org/2000/svg" viewBox="0.43200000000000005 46.71999999999999 418.24800000000005 71.28"><path d="M40 118Q37 118 34 116Q31 114 26 111L26 111Q22 108 20 106Q17 104 14 103Q11 102 8 102L8 102Q7 102 6 102L6 102L17 52Q12 54 10 58Q7 62 7 68L7 68Q7 70 8 71Q8 72 8 72L8 72Q4 72 2 71Q0 69 0 65L0 65Q0 61 4 56Q8 52 14 49Q20 47 26 47L26 47Q27 47 29 47L29 47L17 99Q20 99 22 100Q24 101 27 103L27 103Q31 105 35 107Q38 108 42 108L42 108Q45 108 48 107L48 107Q47 112 45 115Q43 118 40 118L40 118ZM38 100Q32 100 29 98Q26 95 26 89L26 89Q26 84 28 78Q30 72 35 68Q39 63 46 63L46 63Q55 63 55 75L55 75L55 75Q55 75 56 75L56 75Q58 75 61 74Q65 72 67 71L67 71L68 73Q66 75 62 76Q59 78 55 79L55 79Q54 85 52 90Q50 95 46 98Q42 100 38 100L38 100ZM41 94Q42 94 44 92Q46 90 47 86Q48 83 49 79L49 79Q47 78 47 76L47 76Q47 73 49 72L49 72Q49 70 49 69Q48 68 47 68L47 68Q44 68 42 71Q40 75 38 79Q37 84 37 88L37 88Q37 91 38 93Q39 94 41 94L41 94ZM68 100Q64 100 61 98Q58 96 58 91L58 91Q58 89 59 87L59 87L67 51L77 50L74 66Q76 65 77 64Q78 64 80 64L80 64Q88 64 88 75L88 75Q93 74 99 63L99 63L110 62Q110 71 111 82L111 82Q112 86 112 88L112 88Q112 89 111 91L111 91Q113 89 116 87L116 87L119 87Q115 92 109 96L109 96Q108 98 105 99Q102 100 99 100L99 100Q93 100 91 98Q89 95 89 91L89 91Q89 88 90 86Q92 84 94 84L94 84Q98 84 98 87L98 87Q98 88 97 89Q96 90 94 90L94 90Q93 90 92 89L92 89Q92 92 93 93Q94 95 97 95L97 95Q99 95 100 93Q101 92 101 88L101 88Q101 86 101 83L101 83Q100 76 100 68L100 68Q95 76 88 78L88 78Q88 83 86 88Q84 93 79 97Q75 100 68 100L68 100ZM73 93Q74 93 76 91Q78 89 79 86Q80 82 81 79L81 79Q80 78 80 76L80 76Q80 74 81 73L81 73Q80 71 79 70Q78 69 77 69L77 69Q76 69 75 69Q73 70 73 70L73 70L69 88Q69 89 69 90L69 90Q69 93 73 93L73 93ZM124 100Q120 100 118 98Q116 96 116 92L116 92Q116 90 116 87L116 87L121 67L118 67L119 64L121 64L123 54L134 53L132 64L136 64L135 67L131 67L127 88Q126 90 126 91L126 91Q126 92 127 93Q128 93 129 93L129 93Q131 93 133 92Q135 90 136 87L136 87L139 87Q136 95 132 98Q128 100 124 100L124 100ZM146 100Q141 100 138 98Q135 95 135 89L135 89Q135 84 137 78Q139 72 143 68Q147 63 154 63L154 63Q162 63 162 70L162 70Q162 74 160 78Q157 81 154 83Q150 85 146 85L146 85Q145 88 145 88L145 88Q145 92 147 93Q148 94 151 94L151 94Q154 94 157 93Q160 91 163 87L163 87L166 87Q158 100 146 100L146 100ZM146 82Q149 82 151 80Q154 78 155 76Q157 73 157 70L157 70Q157 67 155 67L155 67Q152 67 150 72Q147 76 146 82L146 82ZM161 100L168 64L179 64L178 68Q180 66 182 65Q184 64 186 64L186 64Q189 64 190 66Q191 67 191 69L191 69Q191 71 190 73Q189 75 186 75L186 75Q185 75 184 74Q183 73 183 72L183 72Q183 71 183 70Q183 70 182 70L182 70Q180 70 179 71Q178 71 177 73L177 73L171 100L161 100ZM203 100L211 64L221 64L220 68Q223 66 225 65Q227 64 229 64L229 64Q231 64 233 66Q234 67 234 69L234 69Q234 71 233 73Q231 75 229 75L229 75Q227 75 227 74Q226 73 226 72L226 72Q226 71 225 70Q225 70 225 70L225 70Q223 70 222 71Q221 71 219 73L219 73L214 100L203 100ZM243 100Q238 100 235 98Q232 95 232 89L232 89Q232 84 234 78Q236 72 240 68Q245 63 252 63L252 63Q259 63 259 70L259 70Q259 74 257 78Q255 81 251 83Q247 85 243 85L243 85Q243 88 243 88L243 88Q243 92 244 93Q245 94 248 94L248 94Q252 94 255 93Q257 91 261 87L261 87L263 87Q255 100 243 100L243 100ZM244 82Q246 82 249 80Q251 78 252 76Q254 73 254 70L254 70Q254 67 252 67L252 67Q250 67 247 72Q245 76 244 82L244 82ZM273 118Q270 118 268 116Q265 114 265 111L265 111Q265 107 269 104Q272 102 277 100L277 100L278 96Q274 100 269 100L269 100Q265 100 263 98Q260 95 260 89L260 89Q260 84 262 78Q264 72 268 68Q272 64 278 64L278 64Q281 64 283 65Q284 66 284 67L284 67L284 68L285 64L295 64L288 97Q292 96 294 94Q296 92 297 87L297 87L300 87Q298 94 295 97Q292 99 287 101L287 101L286 106Q285 113 281 115Q278 118 273 118L273 118ZM274 93Q276 93 277 92Q279 90 280 88L280 88L283 71Q283 70 283 69Q282 68 281 68L281 68Q278 68 275 71Q273 75 272 80Q270 84 270 88L270 88Q270 91 271 92Q273 93 274 93L274 93ZM272 112Q273 112 274 111Q275 109 276 106L276 106L276 104Q269 106 269 110L269 110Q269 111 270 112Q271 112 272 112L272 112ZM304 100Q301 100 299 98Q297 96 297 92L297 92Q297 90 297 87L297 87L302 64L312 64L307 88Q307 90 307 90L307 90Q307 93 309 93L309 93Q311 93 313 92Q314 90 315 87L315 87L320 64L330 64L325 88Q325 90 325 91L325 91Q325 92 325 93Q326 93 328 93L328 93Q330 93 331 92Q333 90 334 87L334 87L337 87Q334 95 330 98Q326 100 322 100L322 100Q319 100 317 99Q315 97 315 94L315 94Q313 98 310 99Q307 100 304 100L304 100ZM341 100Q337 100 335 98Q333 96 333 92L333 92Q333 90 334 87L334 87L341 51L352 50L344 88Q343 90 343 91L343 91Q343 92 344 93Q345 93 346 93L346 93Q348 93 350 92Q352 90 353 87L353 87L356 87Q353 95 349 98Q345 100 341 100L341 100ZM361 100Q357 100 355 98Q352 95 352 89L352 89Q352 84 354 78Q356 72 360 68Q365 64 370 64L370 64Q373 64 375 65Q376 66 376 67L376 67L376 68L377 64L387 64L382 88Q382 90 382 91L382 91Q382 94 385 94L385 94Q387 94 388 92Q390 90 391 87L391 87L394 87Q391 95 387 98Q383 100 379 100L379 100Q376 100 374 99Q373 97 372 94L372 94Q370 97 368 99Q365 100 361 100L361 100ZM366 93Q368 93 370 92Q371 90 372 87L372 87L376 71Q376 70 375 69Q374 68 373 68L373 68Q370 68 367 71Q365 75 364 80Q363 84 363 88L363 88Q363 91 364 92Q365 93 366 93L366 93ZM388 100L396 64L406 64L405 68Q407 66 409 65Q411 64 414 64L414 64Q416 64 417 66Q419 67 419 69L419 69Q419 71 417 73Q416 75 413 75L413 75Q412 75 411 74Q411 73 411 72L411 72Q410 71 410 70Q410 70 409 70L409 70Q408 70 407 71Q406 71 404 73L404 73L398 100L388 100Z"/></svg>