<svg xmlns="http://www.w3.org/2000/svg" viewBox="3.9600000000000004 45.63999999999999 406.44000000000005 73.87200000000001"><path d="M4 100L4 98Q6 98 8 96Q9 95 9 94Q9 92 9 89L9 89L9 58Q9 55 9 52L9 52L4 53L4 50L20 50L20 52Q18 52 17 53Q15 54 15 56Q15 57 15 61L15 61L15 92Q15 95 15 97L15 97L28 97Q33 97 35 94Q38 91 38 85L38 85L40 85L40 100L4 100ZM63 101Q58 101 54 99Q49 96 47 92Q45 88 45 83L45 83Q45 77 47 73Q49 68 53 65Q58 63 63 63L63 63Q68 63 72 65Q76 68 78 72Q81 76 81 81L81 81Q81 87 78 91Q76 96 72 98Q68 101 63 101L63 101ZM63 98Q68 98 71 94Q73 90 73 83L73 83Q73 76 71 71Q68 66 63 66L63 66Q57 66 55 70Q52 74 52 81L52 81Q52 85 53 89Q54 93 57 96Q60 98 63 98L63 98ZM87 100L87 98Q89 98 90 97Q91 96 91 94Q91 93 91 89L91 89L91 73Q91 70 91 68L91 68L86 68L86 65L89 65Q91 65 93 65Q94 64 95 63L95 63L97 63Q97 66 97 70L97 70Q99 67 102 65Q106 63 109 63L109 63Q112 63 113 64Q114 65 114 67L114 67Q114 69 114 70Q113 71 111 71L111 71Q109 71 108 70Q107 68 108 67L108 67Q105 67 102 69Q99 71 97 75L97 75L97 92Q97 96 97 97L97 97L102 97L102 100L87 100ZM128 101Q122 101 120 99Q117 96 117 93L117 93Q117 88 120 86Q124 83 129 81Q134 80 139 80L139 80L139 75Q139 71 137 68Q136 66 132 66L132 66Q129 66 127 66Q125 67 124 69L124 69Q125 70 125 72L125 72Q125 73 125 74Q124 75 122 75L122 75Q121 75 120 74Q119 73 119 71L119 71Q119 69 121 67Q123 65 126 64Q129 63 133 63L133 63Q139 63 142 66Q145 69 145 76L145 76L145 92Q145 95 145 97L145 97L150 97L150 100L139 100Q139 99 139 96L139 96Q134 101 128 101L128 101ZM129 97Q132 97 134 96Q137 95 139 93L139 93Q139 92 139 89L139 89L139 82Q133 83 128 85Q124 87 124 92L124 92Q124 94 125 96Q127 97 129 97L129 97ZM174 100L174 98Q176 98 177 97Q178 96 178 94Q178 93 178 89L178 89L178 73Q178 70 178 68L178 68L173 68L173 65L175 65Q178 65 179 65Q181 64 182 63L182 63L184 63Q184 66 184 70L184 70Q186 67 189 65Q193 63 196 63L196 63Q198 63 200 64Q201 65 201 67L201 67Q201 69 200 70Q199 71 198 71L198 71Q196 71 195 70Q194 68 194 67L194 67Q192 67 189 69Q186 71 184 75L184 75L184 92Q184 96 184 97L184 97L188 97L188 100L174 100ZM222 101Q217 101 213 99Q209 96 206 92Q204 88 204 82L204 82Q204 77 206 73Q209 68 213 66Q217 63 222 63L222 63Q226 63 230 65Q233 66 235 70Q237 74 237 79L237 79L212 79Q212 88 214 93Q217 97 223 97L223 97Q227 97 230 96Q234 94 236 92L236 92L237 93Q235 97 230 99Q226 101 222 101L222 101ZM212 76L230 76Q230 72 228 69Q226 66 222 66L222 66Q213 66 212 76L212 76ZM261 120Q255 120 250 118Q246 117 245 115Q243 112 243 110L243 110Q243 107 245 105Q247 102 249 101L249 101Q247 100 246 99Q244 98 244 95L244 95Q244 93 246 91Q248 89 252 88L252 88Q248 86 246 84Q244 81 244 77L244 77Q244 73 246 70Q249 66 252 65Q256 63 259 63L259 63Q264 63 269 66L269 66Q270 62 272 60Q275 59 277 59L277 59Q279 59 280 59Q281 60 281 62L281 62Q281 63 280 64Q280 65 278 65L278 65Q277 65 276 64Q275 64 275 63L275 63Q273 63 272 64Q271 65 271 67L271 67Q273 69 274 71Q275 73 275 76L275 76Q275 80 273 83Q271 86 267 88Q264 90 259 90L259 90Q259 90 257 90L257 90Q256 89 255 89L255 89Q252 89 251 90Q249 92 249 93L249 93Q249 95 252 96Q254 96 261 97L261 97Q269 97 274 100Q278 102 278 107L278 107Q278 111 276 114Q273 117 269 118Q265 120 261 120L261 120ZM260 87Q264 87 266 84Q268 82 268 77L268 77Q268 72 266 69Q263 65 259 65L259 65Q256 65 253 68Q251 71 251 76L251 76Q251 81 253 84Q256 87 260 87L260 87ZM261 117Q265 117 268 116Q271 115 272 113Q274 111 274 109L274 109Q274 105 270 104Q267 103 260 102L260 102Q255 102 253 102L253 102Q251 103 249 105Q248 107 248 109L248 109Q248 112 252 115Q255 117 261 117L261 117ZM298 101Q292 101 289 98Q287 94 287 85L287 85L287 73Q287 70 287 68L287 68L282 68L282 65L284 65Q287 65 288 65Q290 64 291 63L291 63L293 63L293 85Q293 92 295 95Q296 97 301 97L301 97Q303 97 306 96Q308 94 310 92L310 92L310 73Q310 70 310 68L310 68L305 68L305 65L307 65Q310 65 312 65Q313 64 314 63L314 63L316 63L316 90Q316 95 316 97L316 97L321 97L321 100L311 100Q310 98 310 96L310 96Q308 98 305 100Q301 101 298 101L298 101ZM325 100L325 98Q328 98 328 97Q329 96 330 94Q330 93 330 89L330 89L330 55Q330 52 330 50L330 50L325 51L325 48Q329 48 331 47Q333 47 334 46L334 46L336 46L336 92Q336 95 336 97L336 97L340 97L340 100L325 100ZM356 101Q351 101 348 99Q345 96 345 93L345 93Q345 88 348 86Q352 83 357 81Q362 80 367 80L367 80L367 75Q367 71 366 68Q364 66 360 66L360 66Q358 66 356 66Q354 67 353 69L353 69Q354 70 354 72L354 72Q354 73 353 74Q352 75 350 75L350 75Q349 75 348 74Q347 73 347 71L347 71Q347 69 349 67Q351 65 354 64Q357 63 361 63L361 63Q367 63 370 66Q373 69 373 76L373 76L373 92Q373 95 373 97L373 97L378 97L378 100L368 100Q367 99 367 96L367 96Q362 101 356 101L356 101ZM357 97Q360 97 362 96Q365 95 367 93L367 93Q367 92 367 89L367 89L367 82Q361 83 356 85Q352 87 352 92L352 92Q352 94 353 96Q355 97 357 97L357 97ZM383 100L383 98Q385 98 386 97Q387 96 387 94Q387 93 387 89L387 89L387 73Q387 70 387 68L387 68L382 68L382 65L385 65Q387 65 389 65Q390 64 391 63L391 63L393 63Q393 66 393 70L393 70Q395 67 398 65Q402 63 405 63L405 63Q408 63 409 64Q410 65 410 67L410 67Q410 69 410 70Q409 71 407 71L407 71Q405 71 404 70Q403 68 404 67L404 67Q401 67 398 69Q395 71 393 75L393 75L393 92Q393 96 393 97L393 97L398 97L398 100L383 100Z"/></svg>