<svg xmlns="http://www.w3.org/2000/svg" viewBox="2.8800000000000003 45.63999999999999 330.33599999999996 55.15200000000001"><path d="M21.46 49.60L21.31 51.98Q18.94 52.05 17.82 53.13Q16.70 54.21 16.38 55.90Q16.06 57.59 15.91 60.83L15.91 60.83L14.26 91.72Q14.04 95.75 13.75 97.34L13.75 97.34L27.22 97.12Q31.90 96.98 34.34 94.17Q36.79 91.36 37.08 85.10L37.08 85.10L39.53 85.10L38.30 100L2.88 100L3.02 97.62Q5.54 97.55 6.66 96.47Q7.78 95.39 7.99 93.95Q8.21 92.51 8.42 88.77L8.42 88.77L10.15 57.66Q10.22 57.09 10.33 55.36Q10.44 53.63 10.66 52.48L10.66 52.48L5.54 52.77L5.54 49.60L21.46 49.60ZM62.14 63.21Q66.02 63.21 69.16 65.08Q72.29 66.95 74.05 70.52Q75.82 74.08 75.82 78.98L75.82 78.98Q75.82 84.88 73.69 89.85Q71.57 94.82 67.57 97.80Q63.58 100.79 58.18 100.79L58.18 100.79Q51.34 100.79 47.84 96.29Q44.35 91.79 44.35 84.66L44.35 84.66Q44.35 78.76 46.51 73.86Q48.67 68.97 52.70 66.09Q56.74 63.21 62.14 63.21L62.14 63.21ZM60.98 65.87Q57.82 65.87 55.48 68.14Q53.14 70.41 51.91 74.33Q50.69 78.26 50.69 83.08L50.69 83.08Q50.69 89.06 52.63 93.56Q54.58 98.06 58.97 98.06L58.97 98.06Q62.64 98.06 64.98 95.25Q67.32 92.44 68.40 88.34Q69.48 84.23 69.48 80.34L69.48 80.34Q69.48 74.30 67.57 70.08Q65.66 65.87 60.98 65.87L60.98 65.87ZM106.92 63.21Q109.15 63.21 110.56 64.32Q111.96 65.44 111.96 67.38L111.96 67.38Q111.96 68.75 111.02 69.80Q110.09 70.84 108.65 70.84L108.65 70.84Q107.35 70.84 106.42 70.05Q105.48 69.26 105.34 67.82L105.34 67.82Q105.05 67.74 104.54 67.74L104.54 67.74Q101.52 67.74 98.64 72.57Q95.76 77.39 93.96 84.30Q92.16 91.22 92.16 96.90L92.16 96.90Q92.16 97.55 92.30 100L92.30 100L86.33 100Q86.26 99.35 86.26 98.13L86.26 98.13Q86.26 93.74 87.41 83.37L87.41 83.37L88.34 75.02Q88.78 71.27 88.78 70.05L88.78 70.05Q88.78 68.54 88.38 67.67Q87.98 66.81 86.83 66.81L86.83 66.81Q85.46 66.81 84.02 68.54Q82.58 70.26 81.58 73.79L81.58 73.79L79.56 73.36Q79.92 71.34 81.11 68.97Q82.30 66.59 84.28 64.90Q86.26 63.21 88.92 63.21L88.92 63.21Q91.73 63.21 92.95 65.01Q94.18 66.81 94.18 70.19L94.18 70.19Q94.18 73.50 93.10 78.90L93.10 78.90L93.31 78.90Q96.26 70.19 99.65 66.70Q103.03 63.21 106.92 63.21L106.92 63.21ZM134.35 63.21Q139.25 63.21 144.00 64.43L144.00 64.43Q140.83 87.90 140.83 93.23L140.83 93.23Q140.83 95.10 141.19 96.15Q141.55 97.19 142.85 97.19L142.85 97.19Q144.22 97.19 145.66 95.46Q147.10 93.74 148.10 90.21L148.10 90.21L150.12 90.64Q149.76 92.66 148.57 95.03Q147.38 97.41 145.40 99.10Q143.42 100.79 140.76 100.79L140.76 100.79Q135.43 100.79 135.43 94.31L135.43 94.31Q135.43 91.14 136.73 84.66L136.73 84.66L136.51 84.66Q133.49 94.17 129.89 97.48Q126.29 100.79 122.47 100.79L122.47 100.79Q118.30 100.79 115.81 97.77Q113.33 94.74 113.33 88.26L113.33 88.26Q113.33 81.35 115.70 75.66Q118.08 69.98 122.83 66.59Q127.58 63.21 134.35 63.21L134.35 63.21ZM132.12 65.80Q127.94 65.80 125.06 68.79Q122.18 71.78 120.78 76.64Q119.38 81.50 119.38 87.04L119.38 87.04Q119.38 97.62 124.06 97.62L124.06 97.62Q127.22 97.62 130.39 92.66Q133.56 87.69 135.65 80.38Q137.74 73.07 137.74 66.66L137.74 66.66Q135.58 65.80 132.12 65.80L132.12 65.80ZM182.74 47.66Q184.39 47.66 185.47 48.81Q186.55 49.96 186.55 51.76L186.55 51.76Q186.55 53.56 185.40 54.68Q184.25 55.79 182.66 55.79L182.66 55.79Q181.08 55.79 179.96 54.68Q178.85 53.56 178.85 51.76L178.85 51.76Q178.85 49.96 180 48.81Q181.15 47.66 182.74 47.66L182.74 47.66ZM178.63 63.21Q181.58 63.21 183.13 65.22Q184.68 67.24 184.68 70.70L184.68 70.70Q184.68 73.50 183.46 80.56L183.46 80.56Q182.74 85.10 182.34 88.16Q181.94 91.22 181.94 94.17L181.94 94.17Q181.94 97.19 184.18 97.19L184.18 97.19Q185.54 97.19 186.98 95.46Q188.42 93.74 189.43 90.21L189.43 90.21L191.45 90.64Q190.58 94.53 188.35 97.66Q186.12 100.79 182.52 100.79L182.52 100.79Q176.04 100.79 176.04 94.02L176.04 94.02Q176.04 91.22 176.40 88.55Q176.76 85.89 177.48 81.93L177.48 81.93Q178.20 77.54 178.52 75.12Q178.85 72.71 178.85 70.05L178.85 70.05Q178.85 68.82 178.38 67.82Q177.91 66.81 176.83 66.81L176.83 66.81Q175.46 66.81 174.02 68.54Q172.58 70.26 171.58 73.79L171.58 73.79L169.56 73.36Q170.21 69.83 172.51 66.52Q174.82 63.21 178.63 63.21L178.63 63.21ZM208.01 53.85L206.71 64.00L218.16 64.00L217.94 66.74L206.42 66.88L205.92 71.49Q204.34 85.17 204.34 90.86L204.34 90.86Q204.34 93.66 204.98 95.39Q205.63 97.12 207.72 97.12L207.72 97.12Q211.46 97.12 214.49 92.08L214.49 92.08L216.36 93.30Q214.13 97.12 211.72 98.96Q209.30 100.79 205.99 100.79L205.99 100.79Q202.03 100.79 200.27 98.42Q198.50 96.04 198.50 92.30L198.50 92.30Q198.50 88.12 199.01 81.32Q199.51 74.51 200.38 66.95L200.38 66.95L193.97 67.02L194.18 64.00Q198.50 64.00 201.17 61.44Q203.83 58.89 205.27 53.85L205.27 53.85L208.01 53.85ZM242.28 63.21Q247.18 63.21 251.93 64.43L251.93 64.43Q248.76 87.90 248.76 93.23L248.76 93.23Q248.76 95.10 249.12 96.15Q249.48 97.19 250.78 97.19L250.78 97.19Q252.14 97.19 253.58 95.46Q255.02 93.74 256.03 90.21L256.03 90.21L258.05 90.64Q257.69 92.66 256.50 95.03Q255.31 97.41 253.33 99.10Q251.35 100.79 248.69 100.79L248.69 100.79Q243.36 100.79 243.36 94.31L243.36 94.31Q243.36 91.14 244.66 84.66L244.66 84.66L244.44 84.66Q241.42 94.17 237.82 97.48Q234.22 100.79 230.40 100.79L230.40 100.79Q226.22 100.79 223.74 97.77Q221.26 94.74 221.26 88.26L221.26 88.26Q221.26 81.35 223.63 75.66Q226.01 69.98 230.76 66.59Q235.51 63.21 242.28 63.21L242.28 63.21ZM240.05 65.80Q235.87 65.80 232.99 68.79Q230.11 71.78 228.71 76.64Q227.30 81.50 227.30 87.04L227.30 87.04Q227.30 97.62 231.98 97.62L231.98 97.62Q235.15 97.62 238.32 92.66Q241.49 87.69 243.58 80.38Q245.66 73.07 245.66 66.66L245.66 66.66Q243.50 65.80 240.05 65.80L240.05 65.80ZM273.46 45.64L272.66 50.75Q271.80 55.79 271.58 57.88L271.58 57.88Q270.43 66.30 269.39 77.43Q268.34 88.55 268.34 93.45L268.34 93.45Q268.34 95.25 268.70 96.22Q269.06 97.19 270.29 97.19L270.29 97.19Q271.66 97.19 273.10 95.50Q274.54 93.81 275.54 90.21L275.54 90.21L277.56 90.71Q277.20 92.73 276.05 95.07Q274.90 97.41 272.92 99.10Q270.94 100.79 268.27 100.79L268.27 100.79Q265.25 100.79 263.88 99.21Q262.51 97.62 262.51 94.38L262.51 94.38Q262.51 89.63 263.77 76.89Q265.03 64.14 266.40 54.06L266.40 54.06L267.05 50.18L261.94 50.46L262.30 47.58Q266.54 47.58 268.42 47.08Q270.29 46.58 271.44 45.64L271.44 45.64L273.46 45.64ZM292.10 47.66Q293.76 47.66 294.84 48.81Q295.92 49.96 295.92 51.76L295.92 51.76Q295.92 53.56 294.77 54.68Q293.62 55.79 292.03 55.79L292.03 55.79Q290.45 55.79 289.33 54.68Q288.22 53.56 288.22 51.76L288.22 51.76Q288.22 49.96 289.37 48.81Q290.52 47.66 292.10 47.66L292.10 47.66ZM288 63.21Q290.95 63.21 292.50 65.22Q294.05 67.24 294.05 70.70L294.05 70.70Q294.05 73.50 292.82 80.56L292.82 80.56Q292.10 85.10 291.71 88.16Q291.31 91.22 291.31 94.17L291.31 94.17Q291.31 97.19 293.54 97.19L293.54 97.19Q294.91 97.19 296.35 95.46Q297.79 93.74 298.80 90.21L298.80 90.21L300.82 90.64Q299.95 94.53 297.72 97.66Q295.49 100.79 291.89 100.79L291.89 100.79Q285.41 100.79 285.41 94.02L285.41 94.02Q285.41 91.22 285.77 88.55Q286.13 85.89 286.85 81.93L286.85 81.93Q287.57 77.54 287.89 75.12Q288.22 72.71 288.22 70.05L288.22 70.05Q288.22 68.82 287.75 67.82Q287.28 66.81 286.20 66.81L286.20 66.81Q284.83 66.81 283.39 68.54Q281.95 70.26 280.94 73.79L280.94 73.79L278.93 73.36Q279.58 69.83 281.88 66.52Q284.18 63.21 288 63.21L288 63.21ZM321.77 63.21Q324.79 63.21 327.28 64.32Q329.76 65.44 331.16 67.35Q332.57 69.26 332.57 71.63L332.57 71.63Q332.57 73.29 331.70 74.22Q330.84 75.16 329.40 75.16L329.40 75.16Q327.96 75.16 327.20 74.22Q326.45 73.29 326.45 72.28L326.45 72.28Q326.45 70.55 327.38 69.54L327.38 69.54Q327.02 67.60 325.48 66.66Q323.93 65.73 321.70 65.73L321.70 65.73Q316.01 65.73 313.45 71.06Q310.90 76.38 310.90 83.37L310.90 83.37Q310.90 90.57 313.24 93.92Q315.58 97.26 319.68 97.26L319.68 97.26Q322.85 97.26 325.80 95.14Q328.75 93.02 330.70 88.19L330.70 88.19L333.22 89.42Q330.62 95.39 326.81 98.09Q322.99 100.79 318.46 100.79L318.46 100.79Q311.90 100.79 308.23 96.87Q304.56 92.94 304.56 85.02L304.56 85.02Q304.56 79.98 306.47 74.94Q308.38 69.90 312.26 66.56Q316.15 63.21 321.77 63.21L321.77 63.21Z"/></svg>