<svg xmlns="http://www.w3.org/2000/svg" viewBox="0.35000000000000003 -7 20.77 7.11"><path d="M3.56-7L3.53-6.34Q3.26-6.33 3.12-6.28Q2.97-6.22 2.88-6.04Q2.79-5.86 2.77-5.47L2.77-5.47L2.57-1.64Q2.54-1.02 2.49-0.76L2.49-0.76L3.83-0.76Q4.43-0.77 4.79-1.19Q5.14-1.60 5.18-2.40L5.18-2.40L5.84-2.40L5.66 0L0.35 0L0.39-0.66Q0.65-0.67 0.80-0.72Q0.94-0.78 1.03-0.96Q1.12-1.14 1.14-1.53L1.14-1.53L1.34-5.36Q1.37-5.93 1.43-6.26L1.43-6.26L0.68-6.23L0.72-7L3.56-7ZM8.85-5.11Q9.42-5.11 9.88-4.84Q10.33-4.58 10.60-4.08Q10.86-3.57 10.86-2.88L10.86-2.88Q10.86-2.08 10.55-1.40Q10.25-0.71 9.68-0.30Q9.11 0.11 8.35 0.11L8.35 0.11Q7.38 0.11 6.86-0.53Q6.34-1.17 6.34-2.16L6.34-2.16Q6.34-2.96 6.65-3.64Q6.96-4.31 7.53-4.71Q8.10-5.11 8.85-5.11L8.85-5.11ZM8.69-4.45Q8.40-4.45 8.18-4.18Q7.95-3.91 7.83-3.45Q7.70-2.99 7.70-2.44L7.70-2.44Q7.70-1.70 7.89-1.13Q8.08-0.55 8.51-0.55L8.51-0.55Q8.85-0.55 9.07-0.90Q9.28-1.25 9.38-1.76Q9.48-2.26 9.48-2.73L9.48-2.73Q9.48-3.42 9.30-3.94Q9.12-4.45 8.69-4.45L8.69-4.45ZM15.02-5.11Q15.40-5.11 15.63-4.90Q15.86-4.69 15.86-4.35L15.86-4.35Q15.86-4.08 15.67-3.88Q15.48-3.67 15.19-3.67L15.19-3.67Q14.96-3.67 14.80-3.81Q14.63-3.96 14.64-4.19L14.64-4.19Q14.37-4.22 14.08-3.66Q13.79-3.09 13.60-2.25Q13.41-1.42 13.41-0.72L13.41-0.72Q13.41-0.48 13.44 0L13.44 0L12.13 0Q12.10-0.28 12.10-0.48L12.10-0.48Q12.10-0.80 12.17-1.42Q12.24-2.03 12.32-2.62L12.32-2.62Q12.34-2.80 12.40-3.27Q12.46-3.75 12.46-3.92L12.46-3.92Q12.46-4.18 12.32-4.18L12.32-4.18Q12.06-4.18 11.84-3.39L11.84-3.39L11.29-3.55Q11.42-4.15 11.74-4.63Q12.05-5.11 12.63-5.11L12.63-5.11Q13-5.11 13.24-4.90Q13.47-4.69 13.47-4.20L13.47-4.20Q13.47-3.85 13.37-3.31L13.37-3.31L13.38-3.31Q13.75-4.34 14.17-4.73Q14.58-5.11 15.02-5.11L15.02-5.11ZM18.95-5.11Q19.50-5.11 20.39-4.90L20.39-4.90L20.31-4.37Q20.29-4.19 20.11-2.91Q19.93-1.63 19.93-1.11L19.93-1.11Q19.93-0.82 20.07-0.82L20.07-0.82Q20.36-0.82 20.58-1.61L20.58-1.61L21.12-1.45Q21.01-0.88 20.67-0.39Q20.32 0.11 19.73 0.11L19.73 0.11Q18.93 0.11 18.93-0.80L18.93-0.80Q18.93-1.15 18.97-1.38L18.97-1.38L18.96-1.38Q18.62-0.56 18.19-0.23Q17.76 0.11 17.26 0.11L17.26 0.11Q16.68 0.11 16.30-0.35Q15.93-0.82 15.93-1.71L15.93-1.71Q15.93-2.64 16.29-3.42Q16.65-4.19 17.34-4.65Q18.02-5.11 18.95-5.11L18.95-5.11ZM18.58-4.45Q18-4.45 17.65-3.73Q17.30-3 17.30-1.66L17.30-1.66Q17.30-1.25 17.40-1.02Q17.50-0.78 17.68-0.78L17.68-0.78Q18.02-0.78 18.30-1.34Q18.59-1.91 18.77-2.75Q18.95-3.59 18.99-4.39L18.99-4.39Q18.78-4.45 18.58-4.45L18.58-4.45Z"/></svg>