<svg xmlns="http://www.w3.org/2000/svg" viewBox="2.5200000000000005 45.06399999999999 495.2880000000002 55.72800000000001"><path d="M25.63 49.60L25.42 54.35Q23.47 54.42 22.43 54.82Q21.38 55.22 20.74 56.51Q20.09 57.81 19.94 60.62L19.94 60.62L18.50 88.19Q18.29 92.66 17.93 94.53L17.93 94.53L27.58 94.53Q31.90 94.46 34.45 91.47Q37.01 88.48 37.30 82.72L37.30 82.72L42.05 82.72L40.75 100L2.52 100L2.81 95.25Q4.68 95.18 5.72 94.78Q6.77 94.38 7.42 93.09Q8.06 91.79 8.21 88.98L8.21 88.98L9.65 61.41Q9.86 57.30 10.30 54.93L10.30 54.93L4.90 55.14L5.18 49.60L25.63 49.60ZM63.72 63.21Q67.82 63.21 71.10 65.12Q74.38 67.02 76.28 70.66Q78.19 74.30 78.19 79.26L78.19 79.26Q78.19 85.02 76.00 89.96Q73.80 94.89 69.70 97.84Q65.59 100.79 60.12 100.79L60.12 100.79Q53.14 100.79 49.39 96.18Q45.65 91.58 45.65 84.45L45.65 84.45Q45.65 78.69 47.88 73.83Q50.11 68.97 54.22 66.09Q58.32 63.21 63.72 63.21L63.72 63.21ZM62.57 67.96Q60.48 67.96 58.86 69.90Q57.24 71.85 56.34 75.16Q55.44 78.47 55.44 82.43L55.44 82.43Q55.44 87.76 56.81 91.90Q58.18 96.04 61.27 96.04L61.27 96.04Q63.72 96.04 65.27 93.52Q66.82 91 67.54 87.36Q68.26 83.73 68.26 80.34L68.26 80.34Q68.26 75.38 66.96 71.67Q65.66 67.96 62.57 67.96L62.57 67.96ZM108.14 63.21Q110.88 63.21 112.54 64.72Q114.19 66.23 114.19 68.68L114.19 68.68Q114.19 70.62 112.82 72.10Q111.46 73.58 109.37 73.58L109.37 73.58Q107.71 73.58 106.52 72.53Q105.34 71.49 105.41 69.83L105.41 69.83Q103.46 69.62 101.38 73.68Q99.29 77.75 97.92 83.76Q96.55 89.78 96.55 94.82L96.55 94.82Q96.55 96.54 96.77 100L96.77 100L87.34 100Q87.12 97.98 87.12 96.54L87.12 96.54Q87.12 94.24 87.62 89.81Q88.13 85.38 88.70 81.14L88.70 81.14Q88.85 79.84 89.28 76.42Q89.71 73 89.71 71.78L89.71 71.78Q89.71 69.90 88.70 69.90L88.70 69.90Q86.83 69.90 85.25 75.59L85.25 75.59L81.29 74.44Q82.22 70.12 84.49 66.66Q86.76 63.21 90.94 63.21L90.94 63.21Q93.60 63.21 95.29 64.72Q96.98 66.23 96.98 69.76L96.98 69.76Q96.98 72.28 96.26 76.17L96.26 76.17L96.34 76.17Q99.00 68.75 101.99 65.98Q104.98 63.21 108.14 63.21L108.14 63.21ZM136.44 63.21Q140.40 63.21 146.81 64.72L146.81 64.72L146.23 68.54Q146.09 69.83 144.79 79.05Q143.50 88.26 143.50 92.01L143.50 92.01Q143.50 94.10 144.50 94.10L144.50 94.10Q146.59 94.10 148.18 88.41L148.18 88.41L152.06 89.56Q151.27 93.66 148.79 97.23Q146.30 100.79 142.06 100.79L142.06 100.79Q136.30 100.79 136.30 94.24L136.30 94.24Q136.30 91.72 136.58 90.06L136.58 90.06L136.51 90.06Q134.06 95.97 130.97 98.38Q127.87 100.79 124.27 100.79L124.27 100.79Q120.10 100.79 117.40 97.44Q114.70 94.10 114.70 87.69L114.70 87.69Q114.70 80.99 117.29 75.41Q119.88 69.83 124.81 66.52Q129.74 63.21 136.44 63.21L136.44 63.21ZM133.78 67.96Q129.60 67.96 127.08 73.18Q124.56 78.40 124.56 88.05L124.56 88.05Q124.56 91 125.28 92.69Q126.00 94.38 127.30 94.38L127.30 94.38Q129.74 94.38 131.80 90.32Q133.85 86.25 135.14 80.20Q136.44 74.15 136.73 68.39L136.73 68.39Q135.22 67.96 133.78 67.96L133.78 67.96ZM187.56 45.64Q186.91 50.39 186.34 57.45L186.34 57.45L186.05 60.33L185.76 63.06Q185.26 68.54 184.75 71.70L184.75 71.70L184.82 71.70Q187.06 67.38 189.97 65.30Q192.89 63.21 195.48 63.21L195.48 63.21Q200.59 63.21 203.18 67.13Q205.78 71.06 205.78 76.96L205.78 76.96Q205.78 87.54 201.02 94.17Q196.27 100.79 186.26 100.79L186.26 100.79Q184.03 100.79 180.65 100.29Q177.26 99.78 174.74 98.85L174.74 98.85Q175.18 86.54 175.82 76.06Q176.47 65.58 176.62 63.06L176.62 63.06L176.83 59.68Q176.98 56.08 177.41 53.06L177.41 53.06L172.44 53.27L172.73 47.80Q177.19 47.80 179.93 47.15Q182.66 46.50 183.67 45.64L183.67 45.64L187.56 45.64ZM192.60 69.83Q190.30 69.83 188.32 73.36Q186.34 76.89 185.11 82.76Q183.89 88.62 183.74 95.39L183.74 95.39Q184.32 95.68 185.44 95.86Q186.55 96.04 187.27 96.04L187.27 96.04Q192.46 96.04 194.18 90.10Q195.91 84.16 195.91 76.60L195.91 76.60Q195.91 73 194.98 71.42Q194.04 69.83 192.60 69.83L192.60 69.83ZM228.38 63.21Q232.49 63.21 235.76 65.12Q239.04 67.02 240.95 70.66Q242.86 74.30 242.86 79.26L242.86 79.26Q242.86 85.02 240.66 89.96Q238.46 94.89 234.36 97.84Q230.26 100.79 224.78 100.79L224.78 100.79Q217.80 100.79 214.06 96.18Q210.31 91.58 210.31 84.45L210.31 84.45Q210.31 78.69 212.54 73.83Q214.78 68.97 218.88 66.09Q222.98 63.21 228.38 63.21L228.38 63.21ZM227.23 67.96Q225.14 67.96 223.52 69.90Q221.90 71.85 221.00 75.16Q220.10 78.47 220.10 82.43L220.10 82.43Q220.10 87.76 221.47 91.90Q222.84 96.04 225.94 96.04L225.94 96.04Q228.38 96.04 229.93 93.52Q231.48 91 232.20 87.36Q232.92 83.73 232.92 80.34L232.92 80.34Q232.92 75.38 231.62 71.67Q230.33 67.96 227.23 67.96L227.23 67.96ZM262.87 45.64Q262.73 47.15 262.51 48.88Q262.30 50.61 262.08 52.48L262.08 52.48Q260.14 69.62 259.09 79.41Q258.05 89.20 258.05 92.01L258.05 92.01Q258.05 94.10 259.06 94.10L259.06 94.10Q261.00 94.10 262.58 88.41L262.58 88.41L266.47 89.56Q265.32 94.17 262.69 97.48Q260.06 100.79 255.38 100.79L255.38 100.79Q252.58 100.79 250.74 99.10Q248.90 97.41 248.90 93.88L248.90 93.88Q248.90 88.12 249.66 80.38Q250.42 72.64 251.93 59.75L251.93 59.75Q252.36 55.94 252.86 53.06L252.86 53.06L247.82 53.27L248.11 47.80Q252.58 47.80 255.28 47.15Q257.98 46.50 258.98 45.64L258.98 45.64L262.87 45.64ZM303.91 45.64L301.25 68.68L300.31 77.10Q298.87 88.77 298.87 92.01L298.87 92.01Q298.87 94.10 299.95 94.10L299.95 94.10Q301.82 94.10 303.41 88.41L303.41 88.41L307.37 89.56Q306.50 93.81 304.13 97.30Q301.75 100.79 297.58 100.79L297.58 100.79Q291.82 100.79 291.82 94.24L291.82 94.24Q291.82 92.15 292.10 89.92L292.10 89.92L292.03 89.92Q289.66 95.75 286.42 98.27Q283.18 100.79 279.86 100.79L279.86 100.79Q274.61 100.79 271.91 96.98Q269.21 93.16 269.21 87.04L269.21 87.04Q269.21 76.24 274.21 69.72Q279.22 63.21 289.15 63.21L289.15 63.21Q291.17 63.21 292.61 63.35L292.61 63.35L292.97 59.75Q293.33 55.50 293.76 53.06L293.76 53.06L288.72 53.27L289.01 47.80Q293.54 47.80 296.28 47.15Q299.02 46.50 300.02 45.64L300.02 45.64L303.91 45.64ZM288.22 67.96Q282.89 67.96 280.94 74.08Q279.00 80.20 279.00 86.97L279.00 86.97Q279.00 90.57 279.94 92.40Q280.87 94.24 282.53 94.24L282.53 94.24Q286.20 94.24 288.65 87.04Q291.10 79.84 292.03 68.54L292.03 68.54Q291.60 68.32 290.38 68.14Q289.15 67.96 288.22 67.96L288.22 67.96ZM340.49 45.06Q342.79 45.06 344.23 46.68Q345.67 48.30 345.67 50.75L345.67 50.75Q345.67 53.34 344.05 55.11Q342.43 56.87 340.06 56.87L340.06 56.87Q337.68 56.87 336.20 55.29Q334.73 53.70 334.73 51.33L334.73 51.33Q334.73 48.81 336.49 46.94Q338.26 45.06 340.49 45.06L340.49 45.06ZM337.97 63.21Q341.57 63.21 343.12 65.37Q344.66 67.53 344.66 71.56L344.66 71.56Q344.66 73.72 344.09 78.08Q343.51 82.43 343.37 83.66L343.37 83.66Q343.22 84.59 342.79 87.80Q342.36 91 342.36 92.22L342.36 92.22Q342.36 94.10 343.44 94.10L343.44 94.10Q345.38 94.10 346.97 88.41L346.97 88.41L350.86 89.56Q350.42 91.94 348.98 94.53Q347.54 97.12 345.24 98.96Q342.94 100.79 339.91 100.79L339.91 100.79Q336.10 100.79 334.55 98.78Q333.00 96.76 333.00 92.66L333.00 92.66Q333.00 89.42 334.30 81.21L334.30 81.21Q335.38 74.15 335.38 71.78L335.38 71.78Q335.38 69.90 334.22 69.90L334.22 69.90Q332.35 69.90 330.77 75.59L330.77 75.59L326.88 74.44Q327.31 72.14 328.79 69.51Q330.26 66.88 332.60 65.04Q334.94 63.21 337.97 63.21L337.97 63.21ZM369.72 53.13L368.28 64.00L377.28 64.00L376.85 68.97L367.85 69.11Q367.13 74.80 366.55 80.81Q365.98 86.82 365.98 89.13L365.98 89.13Q365.98 91.07 366.66 92.48Q367.34 93.88 369.43 93.88L369.43 93.88Q370.80 93.88 372.64 92.91Q374.47 91.94 375.91 89.34L375.91 89.34L379.58 91.65Q377.21 96.18 373.68 98.49Q370.15 100.79 366.05 100.79L366.05 100.79Q360.65 100.79 358.70 97.62Q356.76 94.46 356.90 89.13L356.90 89.13Q357.34 79.98 358.56 69.18L358.56 69.18L352.80 69.26L353.45 64.00Q358.49 64.00 361.19 61.12Q363.89 58.24 364.90 53.13L364.90 53.13L369.72 53.13ZM403.49 63.21Q407.45 63.21 413.86 64.72L413.86 64.72L413.28 68.54Q413.14 69.83 411.84 79.05Q410.54 88.26 410.54 92.01L410.54 92.01Q410.54 94.10 411.55 94.10L411.55 94.10Q413.64 94.10 415.22 88.41L415.22 88.41L419.11 89.56Q418.32 93.66 415.84 97.23Q413.35 100.79 409.10 100.79L409.10 100.79Q403.34 100.79 403.34 94.24L403.34 94.24Q403.34 91.72 403.63 90.06L403.63 90.06L403.56 90.06Q401.11 95.97 398.02 98.38Q394.92 100.79 391.32 100.79L391.32 100.79Q387.14 100.79 384.44 97.44Q381.74 94.10 381.74 87.69L381.74 87.69Q381.74 80.99 384.34 75.41Q386.93 69.83 391.86 66.52Q396.79 63.21 403.49 63.21L403.49 63.21ZM400.82 67.96Q396.65 67.96 394.13 73.18Q391.61 78.40 391.61 88.05L391.61 88.05Q391.61 91 392.33 92.69Q393.05 94.38 394.34 94.38L394.34 94.38Q396.79 94.38 398.84 90.32Q400.90 86.25 402.19 80.20Q403.49 74.15 403.78 68.39L403.78 68.39Q402.26 67.96 400.82 67.96L400.82 67.96ZM436.97 45.64Q436.82 47.15 436.61 48.88Q436.39 50.61 436.18 52.48L436.18 52.48Q434.23 69.62 433.19 79.41Q432.14 89.20 432.14 92.01L432.14 92.01Q432.14 94.10 433.15 94.10L433.15 94.10Q435.10 94.10 436.68 88.41L436.68 88.41L440.57 89.56Q439.42 94.17 436.79 97.48Q434.16 100.79 429.48 100.79L429.48 100.79Q426.67 100.79 424.84 99.10Q423.00 97.41 423.00 93.88L423.00 93.88Q423.00 88.12 423.76 80.38Q424.51 72.64 426.02 59.75L426.02 59.75Q426.46 55.94 426.96 53.06L426.96 53.06L421.92 53.27L422.21 47.80Q426.67 47.80 429.37 47.15Q432.07 46.50 433.08 45.64L433.08 45.64L436.97 45.64ZM455.04 45.06Q457.34 45.06 458.78 46.68Q460.22 48.30 460.22 50.75L460.22 50.75Q460.22 53.34 458.60 55.11Q456.98 56.87 454.61 56.87L454.61 56.87Q452.23 56.87 450.76 55.29Q449.28 53.70 449.28 51.33L449.28 51.33Q449.28 48.81 451.04 46.94Q452.81 45.06 455.04 45.06L455.04 45.06ZM452.52 63.21Q456.12 63.21 457.67 65.37Q459.22 67.53 459.22 71.56L459.22 71.56Q459.22 73.72 458.64 78.08Q458.06 82.43 457.92 83.66L457.92 83.66Q457.78 84.59 457.34 87.80Q456.91 91 456.91 92.22L456.91 92.22Q456.91 94.10 457.99 94.10L457.99 94.10Q459.94 94.10 461.52 88.41L461.52 88.41L465.41 89.56Q464.98 91.94 463.54 94.53Q462.10 97.12 459.79 98.96Q457.49 100.79 454.46 100.79L454.46 100.79Q450.65 100.79 449.10 98.78Q447.55 96.76 447.55 92.66L447.55 92.66Q447.55 89.42 448.85 81.21L448.85 81.21Q449.93 74.15 449.93 71.78L449.93 71.78Q449.93 69.90 448.78 69.90L448.78 69.90Q446.90 69.90 445.32 75.59L445.32 75.59L441.43 74.44Q441.86 72.14 443.34 69.51Q444.82 66.88 447.16 65.04Q449.50 63.21 452.52 63.21L452.52 63.21ZM485.71 63.21Q490.75 63.21 494.06 65.58Q497.38 67.96 497.38 71.85L497.38 71.85Q497.38 74.08 496.08 75.45Q494.78 76.82 492.62 76.82L492.62 76.82Q490.46 76.82 489.38 75.45Q488.30 74.08 488.30 72.57L488.30 72.57Q488.30 70.91 489.02 69.54L489.02 69.54Q488.66 68.90 487.73 68.43Q486.79 67.96 485.57 67.96L485.57 67.96Q481.32 67.96 479.59 73.11Q477.86 78.26 477.86 84.16L477.86 84.16Q477.86 89.42 479.84 91.79Q481.82 94.17 484.49 94.17L484.49 94.17Q486.94 94.17 489.38 92.51Q491.83 90.86 493.70 86.68L493.70 86.68L497.81 88.70Q494.93 95.32 491.00 98.02Q487.08 100.72 482.11 100.79L482.11 100.79Q475.56 100.72 471.78 96.80Q468.00 92.87 468.00 85.10L468.00 85.10Q468.00 80.13 470.02 75.05Q472.03 69.98 476.06 66.59Q480.10 63.21 485.71 63.21L485.71 63.21Z"/></svg>