<svg xmlns="http://www.w3.org/2000/svg" viewBox="3.6000000000000005 45.63999999999999 316.8 55.51200000000001"><path d="M4 100L4 95Q6 95 7 95Q8 94 8 93Q9 92 9 89L9 89L9 61Q9 57 9 55L9 55L4 55L4 50L24 50L24 54Q22 54 21 55Q20 55 20 57Q19 58 19 61L19 61L19 88Q19 92 19 95L19 95L29 95Q33 94 35 91Q38 88 38 83L38 83L42 83L42 100L4 100ZM64 101Q59 101 55 99Q50 97 48 93Q46 88 46 83L46 83Q46 77 48 72Q51 68 55 65Q59 63 64 63L64 63Q69 63 73 65Q77 67 80 72Q82 76 82 81L82 81Q82 87 80 92Q77 96 73 99Q69 101 64 101L64 101ZM64 96Q68 96 70 92Q71 89 71 83L71 83Q71 77 70 72Q68 68 64 68L64 68Q60 68 58 72Q56 75 56 81L56 81Q56 87 58 92Q60 96 64 96L64 96ZM87 100L87 95Q90 95 91 94Q91 92 91 89L91 89L91 77Q91 74 92 71L92 71L87 71L87 65Q91 65 94 65Q97 64 98 63L98 63L101 63Q101 64 102 66Q102 68 102 69L102 69L102 69Q107 63 112 63L112 63Q115 63 117 64Q118 66 118 69L118 69Q118 71 117 72Q116 74 113 74L113 74Q112 74 110 73Q109 72 109 70L109 70Q107 70 105 72Q102 74 102 77L102 77L102 88Q102 92 101 95L101 95Q104 95 106 95L106 95L106 100L87 100ZM130 101Q126 101 123 98Q121 96 121 92L121 92Q121 85 127 82Q132 79 141 78L141 78L141 75Q141 68 136 68L136 68Q133 68 131 70L131 70Q131 71 131 73L131 73Q131 75 130 76Q129 77 127 77L127 77Q125 77 123 76Q122 74 122 72L122 72Q122 70 124 67Q126 65 130 64Q133 63 137 63L137 63Q151 63 151 77L151 77L151 88Q151 92 150 95L150 95Q153 95 155 95L155 95L155 100L141 100Q141 99 141 97L141 97L141 97Q137 101 130 101L130 101ZM135 94Q138 94 141 92L141 92L141 83Q136 84 134 86Q131 87 131 90L131 90Q131 92 132 93Q133 94 135 94L135 94ZM197 101Q194 101 191 100Q188 99 186 97L186 97L186 97L184 100L180 100L180 59Q180 55 180 53L180 53L175 53L175 48Q179 48 182 47Q185 47 186 46L186 46L190 46L190 67Q194 63 200 63L200 63Q204 63 207 65Q210 67 212 71Q214 76 214 81L214 81Q214 87 212 91Q210 96 206 99Q202 101 197 101L197 101ZM195 96Q200 96 202 92Q203 88 203 82L203 82Q203 77 202 73Q200 69 196 69L196 69Q194 69 192 70Q191 71 190 72L190 72L190 89Q190 93 191 94Q193 96 195 96L195 96ZM237 101Q232 101 228 99Q223 97 221 93Q219 88 219 83L219 83Q219 77 221 72Q223 68 228 65Q232 63 237 63L237 63Q242 63 246 65Q250 67 253 72Q255 76 255 81L255 81Q255 87 253 92Q250 96 246 99Q242 101 237 101L237 101ZM237 96Q241 96 243 92Q244 89 244 83L244 83Q244 77 242 72Q241 68 237 68L237 68Q233 68 231 72Q229 75 229 81L229 81Q229 87 231 92Q233 96 237 96L237 96ZM259 100L259 95Q261 95 261 95Q262 94 263 93Q263 91 263 89L263 89L263 59Q263 56 263 53L263 53L258 53L258 48Q263 48 265 47Q268 47 269 46L269 46L273 46L273 88Q273 92 273 95L273 95Q275 95 277 95L277 95L277 100L259 100ZM296 101Q292 101 289 99Q285 97 283 93Q282 88 282 83L282 83Q282 77 284 73Q286 68 290 65Q294 63 299 63L299 63Q302 63 306 64L306 64L306 59Q306 56 306 53L306 53Q304 53 301 53L301 53L301 48Q306 48 308 47Q311 47 312 46L312 46L316 46L316 88Q316 92 316 95L316 95Q318 95 320 95L320 95L320 100L307 100L306 97L306 97Q302 101 296 101L296 101ZM300 95Q302 95 303 94Q305 93 306 91L306 91L306 70Q305 69 304 69Q302 68 301 68L301 68Q296 68 294 72Q292 76 292 82L292 82Q292 87 294 91Q296 95 300 95L300 95Z"/></svg>