<svg xmlns="http://www.w3.org/2000/svg" viewBox="0.5 -7 21.03 7.16"><path d="M0.50 0L0.50-0.66Q0.77-0.67 0.91-0.72Q1.05-0.78 1.13-0.96Q1.21-1.14 1.21-1.53L1.21-1.53L1.21-5.36Q1.21-5.92 1.25-6.26L1.25-6.26L0.50-6.23L0.50-7L3.37-7L3.37-6.34Q3.10-6.33 2.96-6.28Q2.82-6.22 2.74-6.04Q2.66-5.86 2.66-5.47L2.66-5.47L2.66-1.64Q2.66-1.10 2.62-0.76L2.62-0.76L3.96-0.76Q4.56-0.77 4.89-1.19Q5.22-1.60 5.22-2.40L5.22-2.40L5.89-2.40L5.83 0L0.50 0ZM8.90 0.16Q8.17 0.16 7.59-0.15Q7.01-0.46 6.68-1.04Q6.35-1.62 6.35-2.39L6.35-2.39Q6.35-3.20 6.69-3.83Q7.03-4.46 7.61-4.81Q8.18-5.16 8.87-5.16L8.87-5.16Q9.59-5.16 10.16-4.85Q10.73-4.54 11.06-3.96Q11.39-3.37 11.39-2.59L11.39-2.59Q11.39-1.76 11.07-1.14Q10.76-0.52 10.20-0.18Q9.63 0.16 8.90 0.16L8.90 0.16ZM8.92-0.55Q9.47-0.55 9.69-1.06Q9.91-1.57 9.91-2.34L9.91-2.34Q9.91-3.20 9.66-3.83Q9.41-4.46 8.87-4.46L8.87-4.46Q8.32-4.46 8.07-3.94Q7.82-3.42 7.82-2.66L7.82-2.66Q7.82-1.79 8.09-1.17Q8.36-0.55 8.92-0.55L8.92-0.55ZM12.11 0L12.11-0.65Q12.49-0.65 12.59-0.86Q12.70-1.07 12.70-1.54L12.70-1.54L12.70-3.22Q12.70-3.67 12.74-4.07L12.74-4.07L12.04-4.04L12.04-4.80Q12.67-4.80 13.06-4.89Q13.45-4.98 13.58-5.10L13.58-5.10L14.07-5.10Q14.09-4.95 14.10-4.71Q14.11-4.47 14.11-4.24L14.11-4.24L14.13-4.24Q14.81-5.16 15.57-5.16L15.57-5.16Q15.95-5.16 16.20-4.95Q16.44-4.74 16.44-4.33L16.44-4.33Q16.44-4.07 16.27-3.85Q16.10-3.63 15.76-3.63L15.76-3.63Q15.51-3.63 15.31-3.76Q15.12-3.89 15.09-4.21L15.09-4.21Q14.81-4.21 14.51-3.89Q14.22-3.56 14.12-3.24L14.12-3.24L14.12-1.61Q14.12-1.13 14.08-0.73L14.08-0.73Q14.40-0.76 14.73-0.76L14.73-0.76L14.73 0L12.11 0ZM18.11 0.16Q17.48 0.16 17.11-0.21Q16.75-0.59 16.75-1.17L16.75-1.17Q16.75-2.05 17.57-2.50Q18.39-2.96 19.54-3.01L19.54-3.01L19.54-3.53Q19.54-4.44 18.86-4.44L18.86-4.44Q18.42-4.44 18.14-4.16L18.14-4.16Q18.26-4.02 18.26-3.78L18.26-3.78Q18.26-3.54 18.09-3.35Q17.93-3.16 17.61-3.16L17.61-3.16Q17.31-3.16 17.14-3.35Q16.97-3.55 16.97-3.84L16.97-3.84Q16.97-4.23 17.25-4.53Q17.53-4.83 18.02-5.00Q18.50-5.16 19.08-5.16L19.08-5.16Q20.93-5.16 20.93-3.25L20.93-3.25L20.92-1.61Q20.92-1.13 20.88-0.73L20.88-0.73Q21.21-0.76 21.53-0.76L21.53-0.76L21.53 0L19.64 0Q19.62-0.13 19.60-0.46L19.60-0.46L19.59-0.46Q18.98 0.16 18.11 0.16L18.11 0.16ZM18.74-0.82Q19.19-0.82 19.53-1.18L19.53-1.18L19.53-2.30Q18.94-2.24 18.55-2Q18.17-1.76 18.17-1.35L18.17-1.35Q18.17-1.08 18.34-0.95Q18.50-0.82 18.74-0.82L18.74-0.82Z"/></svg>