<svg xmlns="http://www.w3.org/2000/svg" viewBox="5.112000000000001 48.59199999999999 526.0320000000002 52.48800000000001"><path d="M44 52L56 52L56 100L44 100L44 68L30 86L16 68L16 100L5 100L5 52L17 52L30 71L44 52ZM82 62Q88 62 92 65Q97 68 97 75L97 75L97 92Q97 97 93 99Q88 101 80 101L80 101Q64 101 64 89L64 89Q64 83 67 80Q70 77 77 77L77 77Q79 77 82 78Q85 79 87 80L87 80L87 78Q87 71 79 71L79 71Q76 71 72 72Q69 74 67 75L67 75L67 66Q69 64 73 63Q77 62 82 62L82 62ZM80 94Q84 94 85 93Q87 93 87 91L87 91L87 85Q84 85 81 85L81 85Q78 85 76 86Q74 87 74 89L74 89Q74 91 76 92Q78 94 80 94L80 94ZM131 64L143 64L128 100L117 100L102 64L113 64L123 88L131 64ZM163 62Q180 62 180 85L180 85L156 85Q157 92 166 92L166 92Q169 92 171 91Q174 91 177 89L177 89L177 99Q171 101 164 101L164 101Q158 101 154 99Q150 97 147 92Q145 88 145 82L145 82Q145 73 150 68Q154 62 163 62L163 62ZM163 71Q157 71 156 78L156 78L169 78Q169 74 167 72Q166 71 163 71L163 71ZM187 67Q190 65 196 64Q202 63 206 63L206 63Q214 63 218 66Q222 69 222 76L222 76L222 100L211 100L211 78Q211 71 204 71L204 71Q202 71 201 72Q199 72 198 73L198 73L198 100L187 100L187 67ZM263 84L263 100L252 100L252 52L273 52Q282 52 287 56Q291 60 291 68L291 68Q291 76 286 80Q282 84 273 84L273 84L263 84ZM263 75L272 75Q275 75 277 73Q279 72 279 68L279 68Q279 61 272 61L272 61L263 61L263 75ZM299 100L299 67Q300 66 303 65Q305 64 309 63Q312 62 315 62L315 62Q321 62 324 64L324 64L324 72Q321 71 315 71L315 71Q312 71 310 72L310 72L310 100L299 100ZM345 101Q336 101 331 96Q327 91 327 82L327 82Q327 72 331 67Q336 62 345 62L345 62Q354 62 359 67Q364 72 364 82L364 82Q364 91 359 96Q354 101 345 101L345 101ZM345 93Q349 93 351 90Q353 87 353 82L353 82Q353 76 351 73Q349 71 345 71L345 71Q341 71 339 73Q337 76 337 82L337 82Q337 87 339 90Q341 93 345 93L345 93ZM410 63Q418 63 422 67Q427 72 427 82L427 82Q427 101 408 101L408 101Q391 101 391 92L391 92L391 50L401 50L401 65Q403 64 406 63Q408 63 410 63L410 63ZM407 92Q416 92 416 82L416 82Q416 71 408 71L408 71Q406 71 404 72Q403 72 401 73L401 73L401 89Q401 92 407 92L407 92ZM451 101Q441 101 437 96Q432 91 432 82L432 82Q432 72 437 67Q441 62 451 62L451 62Q460 62 465 67Q469 72 469 82L469 82Q469 91 464 96Q460 101 451 101L451 101ZM451 93Q455 93 457 90Q459 87 459 82L459 82Q459 76 457 73Q455 71 451 71L451 71Q446 71 445 73Q443 76 443 82L443 82Q443 87 445 90Q447 93 451 93L451 93ZM487 100L477 100L477 50L487 50L487 100ZM520 49L531 49L531 90Q531 94 529 96Q526 99 523 100Q519 101 514 101L514 101Q505 101 500 97Q495 92 495 81L495 81Q495 72 499 67Q504 62 512 62L512 62Q517 62 520 64L520 64L520 49ZM520 89L520 73Q518 71 515 71L515 71Q510 71 508 74Q506 76 506 82L506 82Q506 87 508 89Q510 92 515 92L515 92Q517 92 519 91Q520 91 520 89L520 89Z"/></svg>