<svg xmlns="http://www.w3.org/2000/svg" viewBox="0.71 -6.67 49.79 6.82"><path d="M6.14-6.67L7.75-6.67L7.75 0L6.13 0L6.13-4.51L4.17-1.90L2.26-4.50L2.26 0L0.71 0L0.71-6.67L2.36-6.67L4.23-4.07L6.14-6.67ZM11.33-5.21Q12.16-5.21 12.84-4.83Q13.52-4.44 13.52-3.44L13.52-3.44L13.51-1.05Q13.50-0.42 12.88-0.14Q12.26 0.15 11.07 0.15L11.07 0.15Q8.85 0.15 8.85-1.58L8.85-1.58Q8.85-2.31 9.31-2.72Q9.76-3.13 10.66-3.13L10.66-3.13Q11.03-3.13 11.40-3.04Q11.77-2.94 12.04-2.79L12.04-2.79L12.04-3.11Q12.04-3.98 10.92-3.98L10.92-3.98Q10.49-3.98 10.04-3.83Q9.58-3.67 9.31-3.45L9.31-3.45L9.31-4.77Q9.58-4.95 10.14-5.08Q10.69-5.21 11.33-5.21L11.33-5.21ZM11.12-0.90Q11.64-0.90 11.84-0.97Q12.04-1.04 12.04-1.25L12.04-1.25L12.04-2.03Q11.69-2.15 11.27-2.15L11.27-2.15Q10.78-2.15 10.56-2.00Q10.33-1.86 10.33-1.55L10.33-1.55Q10.33-1.26 10.57-1.08Q10.80-0.90 11.12-0.90L11.12-0.90ZM18.26-5.06L19.83-5.06L17.72 0L16.23 0L14.12-5.06L15.73-5.06L17.07-1.64L18.26-5.06ZM22.66-5.23Q25.03-5.23 25-2.14L25-2.14L21.66-2.14Q21.85-1.09 23.07-1.09L23.07-1.09Q23.44-1.09 23.79-1.20Q24.15-1.30 24.55-1.47L24.55-1.47L24.55-0.19Q23.73 0.15 22.71 0.15L22.71 0.15Q21.94 0.15 21.36-0.17Q20.78-0.48 20.46-1.07Q20.14-1.66 20.14-2.46L20.14-2.46Q20.14-3.78 20.79-4.50Q21.45-5.23 22.66-5.23L22.66-5.23ZM22.60-4.09Q21.80-4.09 21.65-3.09L21.65-3.09L23.52-3.09Q23.45-3.63 23.23-3.86Q23.02-4.09 22.60-4.09L22.60-4.09ZM26.04-4.63Q26.43-4.84 27.23-5.02Q28.03-5.20 28.66-5.20L28.66-5.20Q29.73-5.20 30.27-4.78Q30.81-4.36 30.81-3.40L30.81-3.40L30.81 0L29.32 0L29.32-3.10Q29.32-3.97 28.34-3.97L28.34-3.97Q28.12-3.97 27.89-3.92Q27.66-3.87 27.53-3.80L27.53-3.80L27.53 0L26.04 0L26.04-4.63ZM36.56-2.19L36.56 0L34.94 0L34.94-6.67L37.94-6.67Q39.14-6.67 39.79-6.13Q40.45-5.59 40.45-4.50L40.45-4.50Q40.45-3.39 39.78-2.79Q39.12-2.19 37.94-2.19L37.94-2.19L36.56-2.19ZM36.56-3.44L37.74-3.44Q38.23-3.44 38.46-3.70Q38.70-3.95 38.70-4.39L38.70-4.39Q38.70-5.41 37.74-5.41L37.74-5.41L36.56-5.41L36.56-3.44ZM41.53 0L41.53-4.53Q41.68-4.66 42.05-4.82Q42.43-4.98 42.89-5.09Q43.36-5.21 43.79-5.21L43.79-5.21Q44.62-5.21 44.94-4.96L44.94-4.96L44.94-3.87Q44.54-3.96 43.79-3.96L43.79-3.96Q43.32-3.96 43.02-3.91L43.02-3.91L43.02 0L41.53 0ZM47.91 0.15Q46.63 0.15 45.99-0.53Q45.35-1.21 45.35-2.55L45.35-2.55Q45.35-3.95 45.98-4.59Q46.62-5.23 47.91-5.23L47.91-5.23Q49.20-5.23 49.85-4.58Q50.50-3.92 50.50-2.55L50.50-2.55Q50.50-1.23 49.83-0.54Q49.16 0.15 47.91 0.15L47.91 0.15ZM47.91-1.04Q48.46-1.04 48.74-1.43Q49.02-1.81 49.02-2.55L49.02-2.55Q49.02-3.36 48.74-3.71Q48.47-4.05 47.91-4.05L47.91-4.05Q47.33-4.05 47.07-3.71Q46.82-3.36 46.82-2.55L46.82-2.55Q46.82-1.78 47.09-1.41Q47.35-1.04 47.91-1.04L47.91-1.04Z"/></svg>