<svg xmlns="http://www.w3.org/2000/svg" viewBox="6.120000000000001 50.391999999999996 586.7280000000002 63.864000000000004"><path d="M44.78 51.98L50.40 51.98L50.40 100L45.22 100L45.22 60.40L27.72 84.95L11.30 60.54L11.30 100L6.12 100L6.12 51.98L11.74 51.98L28.01 76.96L44.78 51.98ZM77.62 63.42Q83.66 63.42 87.16 66.38Q90.65 69.33 90.65 74.94L90.65 74.94L90.65 92.37Q90.65 97.55 86.40 99.32Q82.15 101.08 74.66 101.08L74.66 101.08Q68.98 101.08 64.91 98.56Q60.84 96.04 60.84 90.14L60.84 90.14Q60.84 83.73 64.37 80.81Q67.90 77.90 74.09 77.90L74.09 77.90Q81.07 77.90 85.39 80.42L85.39 80.42L85.39 76.17Q85.39 68.10 75.96 68.10L75.96 68.10Q72.86 68.10 69.70 68.97Q66.53 69.83 64.37 71.56L64.37 71.56L64.37 66.38Q66.53 65.01 70.24 64.22Q73.94 63.42 77.62 63.42L77.62 63.42ZM75.89 96.47Q80.93 96.47 83.16 95.72Q85.39 94.96 85.39 92.66L85.39 92.66L85.39 84.59Q83.45 83.66 80.86 83.12Q78.26 82.58 75.46 82.58L75.46 82.58Q70.92 82.58 68.47 84.30Q66.02 86.03 66.02 89.34L66.02 89.34Q66.02 93.09 68.90 94.78Q71.78 96.47 75.89 96.47L75.89 96.47ZM128.02 64.07L133.20 64.07L117.94 100L112.68 100L97.49 64.07L103.03 64.07L115.78 94.31L128.02 64.07ZM152.93 63.42Q161.14 63.42 164.95 68.75Q168.77 74.08 168.62 82.94L168.62 82.94L142.42 82.94Q142.42 89.42 145.44 92.87Q148.46 96.33 154.08 96.33L154.08 96.33Q161.28 96.33 166.39 93.23L166.39 93.23L166.39 98.56Q161.14 101.08 153.79 101.08L153.79 101.08Q145.94 101.08 141.55 96.22Q137.16 91.36 137.16 82L137.16 82Q137.16 72.86 141.30 68.14Q145.44 63.42 152.93 63.42L152.93 63.42ZM152.93 68.18Q148.18 68.18 145.73 70.37Q143.28 72.57 142.63 78.18L142.63 78.18L163.15 78.18Q162.79 73.14 160.31 70.66Q157.82 68.18 152.93 68.18L152.93 68.18ZM178.34 66.95Q185.33 63.42 193.54 63.42L193.54 63.42Q201.10 63.42 204.44 66.74Q207.79 70.05 207.79 76.60L207.79 76.60L207.79 100L202.61 100L202.61 76.60Q202.61 68.10 192.96 68.10L192.96 68.10Q188.50 68.10 183.53 69.54L183.53 69.54L183.53 100L178.34 100L178.34 66.95ZM245.74 81.64L245.74 100L240.55 100L240.55 51.98L257.62 51.98Q265.68 51.98 269.96 55.79Q274.25 59.61 274.25 66.81L274.25 66.81Q274.25 74.01 269.96 77.82Q265.68 81.64 257.62 81.64L257.62 81.64L245.74 81.64ZM245.74 76.67L256.97 76.67Q264.17 76.67 266.62 73.94Q269.06 71.20 269.06 66.81L269.06 66.81Q269.06 62.42 266.62 59.68Q264.17 56.94 256.97 56.94L256.97 56.94L245.74 56.94L245.74 76.67ZM284.33 100L284.33 66.95Q287.06 65.80 291.56 64.61Q296.06 63.42 300.89 63.42L300.89 63.42Q301.61 63.42 303.19 63.86L303.19 63.86L303.19 68.46Q301.46 68.25 299.74 68.25L299.74 68.25Q297.36 68.25 295.34 68.54Q293.33 68.82 289.51 69.47L289.51 69.47L289.51 100L284.33 100ZM323.71 101.08Q315.43 101.08 311.29 96.18Q307.15 91.29 307.15 82.14L307.15 82.14Q307.15 72.86 311.36 68.14Q315.58 63.42 323.57 63.42L323.57 63.42Q331.99 63.42 336.10 68.43Q340.20 73.43 340.20 82.14L340.20 82.14Q340.20 91.07 335.88 96.08Q331.56 101.08 323.71 101.08L323.71 101.08ZM323.64 96.33Q335.02 96.33 335.02 82.14L335.02 82.14Q335.02 75.38 332.35 71.78Q329.69 68.18 323.64 68.18L323.64 68.18Q312.34 68.18 312.34 82.14L312.34 82.14Q312.34 96.33 323.64 96.33L323.64 96.33ZM370.80 100L370.80 66.95Q373.54 65.80 378.04 64.61Q382.54 63.42 387.36 63.42L387.36 63.42Q388.08 63.42 389.66 63.86L389.66 63.86L389.66 68.46Q387.94 68.25 386.21 68.25L386.21 68.25Q383.83 68.25 381.82 68.54Q379.80 68.82 375.98 69.47L375.98 69.47L375.98 100L370.80 100ZM409.39 63.42Q417.60 63.42 421.42 68.75Q425.23 74.08 425.09 82.94L425.09 82.94L398.88 82.94Q398.88 89.42 401.90 92.87Q404.93 96.33 410.54 96.33L410.54 96.33Q417.74 96.33 422.86 93.23L422.86 93.23L422.86 98.56Q417.60 101.08 410.26 101.08L410.26 101.08Q402.41 101.08 398.02 96.22Q393.62 91.36 393.62 82L393.62 82Q393.62 72.86 397.76 68.14Q401.90 63.42 409.39 63.42L409.39 63.42ZM409.39 68.18Q404.64 68.18 402.19 70.37Q399.74 72.57 399.10 78.18L399.10 78.18L419.62 78.18Q419.26 73.14 416.77 70.66Q414.29 68.18 409.39 68.18L409.39 68.18ZM450.50 63.50Q456.26 63.50 460.26 65.69Q464.26 67.89 464.26 72.42L464.26 72.42L464.26 101.51Q464.26 106.84 460.80 110.55Q457.34 114.26 448.63 114.26L448.63 114.26Q446.18 114.26 444.06 113.86Q441.94 113.46 440.39 113.07Q438.84 112.67 438.41 112.60L438.41 112.60L438.41 107.70Q441.22 108.50 443.34 108.93Q445.46 109.36 448.06 109.36L448.06 109.36Q454.61 109.36 456.84 107.20Q459.07 105.04 459.07 101.66L459.07 101.66L459.07 98.99Q456.84 99.86 454.07 100.47Q451.30 101.08 449.42 101.08L449.42 101.08Q441.29 101.08 437.15 96.29Q433.01 91.50 433.01 83.01L433.01 83.01Q433.08 71.99 438.12 67.74Q443.16 63.50 450.50 63.50L450.50 63.50ZM438.48 83.01Q438.48 89.20 441.14 92.76Q443.81 96.33 449.42 96.33L449.42 96.33Q451.80 96.33 454.36 95.68Q456.91 95.03 459.07 93.81L459.07 93.81L459.07 73.14Q459.07 70.34 456.88 69.29Q454.68 68.25 450.94 68.25L450.94 68.25Q443.74 68.25 441.11 72.21Q438.48 76.17 438.48 83.01L438.48 83.01ZM490.82 101.08Q483.62 101.08 479.70 97.37Q475.78 93.66 475.78 86.82L475.78 86.82L475.78 64.07L480.96 64.07L480.96 85.67Q480.96 91.14 483.34 93.70Q485.71 96.26 490.82 96.26L490.82 96.26Q495.86 96.26 498.28 93.70Q500.69 91.14 500.69 85.67L500.69 85.67L500.69 64.07L505.87 64.07L505.87 86.82Q505.87 93.66 501.95 97.37Q498.02 101.08 490.82 101.08L490.82 101.08ZM522.58 100L517.39 100L517.39 50.39L522.58 50.39L522.58 100ZM549.43 63.42Q555.48 63.42 558.97 66.38Q562.46 69.33 562.46 74.94L562.46 74.94L562.46 92.37Q562.46 97.55 558.22 99.32Q553.97 101.08 546.48 101.08L546.48 101.08Q540.79 101.08 536.72 98.56Q532.66 96.04 532.66 90.14L532.66 90.14Q532.66 83.73 536.18 80.81Q539.71 77.90 545.90 77.90L545.90 77.90Q552.89 77.90 557.21 80.42L557.21 80.42L557.21 76.17Q557.21 68.10 547.78 68.10L547.78 68.10Q544.68 68.10 541.51 68.97Q538.34 69.83 536.18 71.56L536.18 71.56L536.18 66.38Q538.34 65.01 542.05 64.22Q545.76 63.42 549.43 63.42L549.43 63.42ZM547.70 96.47Q552.74 96.47 554.98 95.72Q557.21 94.96 557.21 92.66L557.21 92.66L557.21 84.59Q555.26 83.66 552.67 83.12Q550.08 82.58 547.27 82.58L547.27 82.58Q542.74 82.58 540.29 84.30Q537.84 86.03 537.84 89.34L537.84 89.34Q537.84 93.09 540.72 94.78Q543.60 96.47 547.70 96.47L547.70 96.47ZM573.98 100L573.98 66.95Q576.72 65.80 581.22 64.61Q585.72 63.42 590.54 63.42L590.54 63.42Q591.26 63.42 592.85 63.86L592.85 63.86L592.85 68.46Q591.12 68.25 589.39 68.25L589.39 68.25Q587.02 68.25 585.00 68.54Q582.98 68.82 579.17 69.47L579.17 69.47L579.17 100L573.98 100Z"/></svg>