<svg xmlns="http://www.w3.org/2000/svg" viewBox="4.680000000000001 49.599999999999994 577.44 51.480000000000004"><path d="M44 52L58 52L58 100L44 100L44 70L31 87L18 70L18 100L5 100L5 52L19 52L31 68L44 52ZM83 62Q89 62 95 65Q100 67 100 75L100 75L100 92Q100 101 82 101L82 101Q74 101 69 98Q65 95 65 88L65 88Q65 83 68 80Q71 77 78 77L78 77Q80 77 83 78Q85 79 87 80L87 80L87 78Q87 73 80 73L80 73Q77 73 73 74Q70 75 68 77L68 77L68 65Q70 64 74 63Q78 62 83 62L83 62ZM82 92Q85 92 86 92Q87 91 87 90L87 90L87 86Q86 85 84 85L84 85Q80 85 79 86Q78 87 78 89L78 89Q78 90 79 91Q80 92 82 92L82 92ZM133 63L147 63L132 100L119 100L103 63L118 63L126 85L133 63ZM168 62Q177 62 181 68Q185 74 185 85L185 85L162 85Q164 90 171 90L171 90Q174 90 179 88L179 88L181 88L181 99Q175 101 168 101L168 101Q162 101 158 99Q153 96 151 92Q148 88 148 82L148 82Q148 73 153 67Q158 62 168 62L168 62ZM167 72Q165 72 164 73Q162 75 162 78L162 78L172 78Q172 74 170 73Q169 72 167 72L167 72ZM191 67Q194 65 201 64Q207 62 212 62L212 62Q220 62 224 65Q228 68 228 75L228 75L228 100L215 100L215 78Q215 75 213 74Q212 73 209 73L209 73Q207 73 206 73Q205 74 204 74L204 74L204 100L191 100L191 67ZM271 85L271 100L256 100L256 52L280 52Q289 52 294 56Q298 60 298 68L298 68Q298 76 293 81Q289 85 280 85L280 85L271 85ZM271 75L278 75Q280 75 281 73Q283 72 283 69L283 69Q283 66 281 64Q280 63 278 63L278 63L271 63L271 75ZM305 100L305 68Q306 67 309 65Q312 64 315 63Q318 62 321 62L321 62Q329 62 332 64L332 64L332 74Q331 73 327 73Q324 73 321 73L321 73Q319 73 318 73L318 73L318 100L305 100ZM354 101Q335 101 335 81L335 81Q335 71 340 66Q344 62 354 62L354 62Q364 62 369 66Q374 71 374 81L374 81Q374 91 369 96Q364 101 354 101L354 101ZM354 91Q357 91 359 89Q361 86 361 81L361 81Q361 76 359 74Q357 72 354 72L354 72Q352 72 351 73Q349 74 348 76Q348 78 348 81L348 81Q348 86 349 89Q351 91 354 91L354 91ZM421 62Q429 62 433 67Q437 72 437 82L437 82Q437 92 432 96Q427 101 417 101L417 101Q400 101 400 91L400 91L400 51L412 51L412 65Q414 63 417 63Q419 62 421 62L421 62ZM417 90Q421 90 423 88Q424 86 424 83L424 83Q424 77 422 75Q420 72 417 72L417 72Q416 72 415 73Q413 73 412 73L412 73L412 87Q412 89 414 90Q415 90 417 90L417 90ZM457 100L444 100L444 50L457 50L457 100ZM482 62Q488 62 493 65Q499 67 498 75L498 75L498 92Q498 101 480 101L480 101Q472 101 468 98Q463 95 463 88L463 88Q463 83 466 80Q470 77 476 77L476 77Q479 77 481 78Q484 79 486 80L486 80L486 78Q486 73 478 73L478 73Q475 73 472 74Q468 75 466 77L466 77L466 65Q468 64 472 63Q477 62 482 62L482 62ZM480 92Q483 92 484 92Q486 91 486 90L486 90L486 86Q484 85 482 85L482 85Q479 85 478 86Q476 87 476 89L476 89Q476 90 477 91Q479 92 480 92L480 92ZM525 101Q519 101 515 99Q510 96 508 92Q505 88 505 82L505 82Q505 73 510 68Q516 62 525 62L525 62Q528 62 531 63Q535 63 537 65L537 65L537 76Q534 74 531 73Q529 73 527 73L527 73Q523 73 521 75Q518 77 518 81L518 81Q518 86 520 88Q523 90 528 90L528 90Q532 90 537 87L537 87L537 98Q534 100 532 100Q529 101 525 101L525 101ZM582 100L566 100L557 86L556 100L544 100L544 50L557 50L557 77L566 63L582 63L568 79L582 100Z"/></svg>