<svg xmlns="http://www.w3.org/2000/svg" viewBox="5.4 31.09599999999999 616.7520000000002 92.59200000000001"><path d="M53.14 42.26Q57.17 42.62 58.90 44.74Q60.62 46.86 60.62 50.57Q60.62 54.28 58.25 70.55Q55.87 86.82 55.87 93.34Q55.87 99.86 56.88 102.23L56.88 102.23Q52.13 100.65 50.29 97.98Q48.46 95.32 48.46 91.65Q48.46 87.98 50.08 76.17Q51.70 64.36 52.20 58.17L52.20 58.17Q49.25 63.86 42.37 74.30Q35.50 84.74 34.42 86.46L34.42 86.46Q32.69 87.47 30.82 87.47L30.82 87.47Q27.43 87.47 27.00 86.25L27.00 86.25Q26.21 84.23 24.52 79.80Q22.82 75.38 21.74 72.57L21.74 72.57Q18.58 64.65 16.06 59.25L16.06 59.25Q15.98 59.75 14.29 73.11Q12.60 86.46 12.60 94.38L12.60 94.38Q12.60 96.62 12.89 100.36L12.89 100.36Q5.40 100.36 5.40 95.82L5.40 95.82Q5.40 95.18 8.17 76.28Q10.94 57.38 10.94 49.96L10.94 49.96L10.94 49.60Q8.86 46.22 6.55 44.06L6.55 44.06Q8.28 42.18 10.80 42.18L10.80 42.18Q15.70 42.18 18.68 47.69Q21.67 53.20 31.97 80.34L31.97 80.34Q32.18 80.78 32.26 80.99L32.26 80.99Q32.90 79.98 35.78 75.81Q38.66 71.63 40.14 69.36Q41.62 67.10 44.21 62.88Q46.80 58.67 48.24 55.65L48.24 55.65Q52.27 47.44 53.14 42.26L53.14 42.26ZM90.72 62.20L90.72 62.20Q86.40 62.20 83.41 67.17Q80.42 72.14 79.42 78.83L79.42 78.83L81.43 78.83Q85.25 78.83 88.06 77.75Q90.86 76.67 92.38 74.94L92.38 74.94Q95.26 71.63 95.26 67.46L95.26 67.46Q95.26 65.08 94.14 63.64Q93.02 62.20 90.72 62.20ZM100.87 91.36Q97.56 96.76 93.60 98.92Q89.64 101.08 84.42 101.08Q79.20 101.08 75.31 96.47Q71.42 91.86 71.42 83.51L71.42 83.51Q71.42 74.01 76.54 66.52L76.54 66.52Q79.06 62.92 83.12 60.69Q87.19 58.46 92.09 58.46L92.09 58.46Q102.89 58.46 102.89 68.90L102.89 68.90Q102.89 75.16 98.03 78.72Q93.17 82.29 86.76 82.29L86.76 82.29Q82.51 82.29 79.13 81.50L79.13 81.50Q79.06 82.22 79.06 83.73L79.06 83.73Q79.06 96.47 86.62 96.47L86.62 96.47Q93.74 96.47 98.21 89.42L98.21 89.42Q100.87 89.78 100.87 91.36L100.87 91.36ZM120.67 76.60Q123.26 67.24 126.90 62.81Q130.54 58.38 133.67 58.38Q136.80 58.38 138.38 60.72Q139.97 63.06 139.97 66.66Q139.97 70.26 138.10 72.89Q136.22 75.52 132.62 75.52L132.62 75.52Q131.47 75.52 130.82 75.38L130.82 75.38Q133.27 71.85 133.27 68.18L133.27 68.18Q133.27 65.58 131.18 65.58L131.18 65.58Q129.53 65.58 127.66 67.53Q125.78 69.47 124.06 72.93Q122.33 76.38 121.18 81.93Q120.02 87.47 120.02 93.88L120.02 93.88Q120.02 94.60 120.38 100L120.38 100Q118.51 100.14 118.22 100.14L118.22 100.14Q111.89 100.14 111.89 93.95L111.89 93.95Q111.89 92.51 113.40 82.86Q114.91 73.22 114.91 67.49Q114.91 61.77 113.69 56.94L113.69 56.94Q117.94 58.60 119.63 61.66Q121.32 64.72 121.32 68.79Q121.32 72.86 120.67 76.60L120.67 76.60ZM153.79 101.08Q149.69 99.64 148.07 96.65Q146.45 93.66 146.45 89.42Q146.45 85.17 147.60 77.25Q148.75 69.33 148.75 64.94Q148.75 60.54 148.32 58.17L148.32 58.17Q149.62 58.02 150.41 58.02L150.41 58.02Q153.65 58.02 155.09 59.46Q156.53 60.90 156.53 64.22L156.53 64.22Q156.53 65.30 154.76 75.56Q153.00 85.82 152.96 92.48Q152.93 99.14 153.79 101.08L153.79 101.08ZM154.87 50.90L154.87 50.90Q148.82 50.90 148.82 46.79L148.82 46.79Q148.82 45.35 149.90 42.76L149.90 42.76Q151.49 42.47 152.64 42.47L152.64 42.47Q158.69 42.47 158.69 46.58L158.69 46.58Q158.69 48.02 157.61 50.61L157.61 50.61Q156.02 50.90 154.87 50.90ZM186.19 62.20L186.19 62.20Q181.87 62.20 178.88 67.17Q175.90 72.14 174.89 78.83L174.89 78.83L176.90 78.83Q180.72 78.83 183.53 77.75Q186.34 76.67 187.85 74.94L187.85 74.94Q190.73 71.63 190.73 67.46L190.73 67.46Q190.73 65.08 189.61 63.64Q188.50 62.20 186.19 62.20ZM196.34 91.36Q193.03 96.76 189.07 98.92Q185.11 101.08 179.89 101.08Q174.67 101.08 170.78 96.47Q166.90 91.86 166.90 83.51L166.90 83.51Q166.90 74.01 172.01 66.52L172.01 66.52Q174.53 62.92 178.60 60.69Q182.66 58.46 187.56 58.46L187.56 58.46Q198.36 58.46 198.36 68.90L198.36 68.90Q198.36 75.16 193.50 78.72Q188.64 82.29 182.23 82.29L182.23 82.29Q177.98 82.29 174.60 81.50L174.60 81.50Q174.53 82.22 174.53 83.73L174.53 83.73Q174.53 96.47 182.09 96.47L182.09 96.47Q189.22 96.47 193.68 89.42L193.68 89.42Q196.34 89.78 196.34 91.36L196.34 91.36ZM240.34 68.68L240.34 68.68Q240.34 71.99 238.93 80.38Q237.53 88.77 237.53 92.58Q237.53 96.40 238.46 98.09Q239.40 99.78 241.63 101.01L241.63 101.01Q240.70 101.08 238.97 101.08L238.97 101.08Q234.07 101.08 232.02 99.24Q229.97 97.41 229.97 92.66L229.97 92.66Q229.97 89.99 231.41 81.89Q232.85 73.79 232.85 69.98L232.85 69.98Q232.85 65.22 229.97 65.22L229.97 65.22Q225.36 65.22 220.43 73.36Q215.50 81.50 215.50 92.94L215.50 92.94Q215.50 97.48 215.93 100L215.93 100Q214.06 100.14 213.70 100.14L213.70 100.14Q207.36 100.14 207.36 93.95L207.36 93.95Q207.36 92.51 208.87 82.86Q210.38 73.22 210.38 67.49Q210.38 61.77 209.16 56.94L209.16 56.94Q213.41 58.60 215.10 61.66Q216.79 64.72 216.79 68.64Q216.79 72.57 215.93 77.75L215.93 77.75Q218.30 69.62 223.38 64.04Q228.46 58.46 232.85 58.46L232.85 58.46Q240.34 58.46 240.34 68.68ZM257.76 85.46Q257.76 89.56 259.34 92.15Q260.93 94.74 264.28 94.74Q267.62 94.74 270.40 91.76Q273.17 88.77 274.86 83.69Q276.55 78.62 277.81 72.89Q279.07 67.17 279.65 60.69L279.65 60.69Q280.73 48.66 280.73 41.61Q280.73 34.55 280.15 31.10L280.15 31.10Q287.57 33.47 287.57 46.00L287.57 46.00Q287.57 51.11 285.16 66.59Q282.74 82.07 282.74 89.20Q282.74 96.33 283.39 101.30L283.39 101.30Q279.29 99.93 277.78 96.40Q276.26 92.87 276.26 87.40L276.26 87.40Q274.03 93.59 269.64 97.19Q265.25 100.79 260.53 100.79Q255.82 100.79 252.90 97.16Q249.98 93.52 249.98 86.46L249.98 86.46Q249.98 74.73 256.14 67.17Q262.30 59.61 271.44 59.61L271.44 59.61Q274.03 59.61 276.98 60.40L276.98 60.40Q272.09 61.19 268.20 63.96Q264.31 66.74 262.15 70.48L262.15 70.48Q257.76 78.11 257.76 85.46L257.76 85.46ZM306.58 71.81Q304.49 75.45 303.37 79.23Q302.26 83.01 302.26 86.46Q302.26 89.92 303.80 92.33Q305.35 94.74 308.23 94.74L308.23 94.74Q312.26 94.74 315.79 90.32Q319.32 85.89 321.23 79.59Q323.14 73.29 323.14 67.92Q323.14 62.56 322.70 59.10L322.70 59.10Q324.43 58.96 324.86 58.96L324.86 58.96Q330.98 58.96 330.98 65.22L330.98 65.22Q330.98 66.59 329.26 76.35Q327.53 86.10 327.53 91.97Q327.53 97.84 329.76 102.38L329.76 102.38Q325.22 101.44 323.17 98.38Q321.12 95.32 321.12 89.56L321.12 89.56Q321.12 88.55 321.41 85.67L321.41 85.67Q319.46 92.51 314.57 96.69Q309.67 100.86 304.96 100.86Q300.24 100.86 297.36 97.30Q294.48 93.74 294.48 87.44Q294.48 81.14 296.82 75.12Q299.16 69.11 303.88 64.72Q308.59 60.33 314.42 60.33L314.42 60.33Q316.94 60.33 319.97 61.34L319.97 61.34Q315.72 62.42 312.19 65.30Q308.66 68.18 306.58 71.81ZM375.05 76.60Q377.64 67.24 381.28 62.81Q384.91 58.38 388.04 58.38Q391.18 58.38 392.76 60.72Q394.34 63.06 394.34 66.66Q394.34 70.26 392.47 72.89Q390.60 75.52 387.00 75.52L387.00 75.52Q385.85 75.52 385.20 75.38L385.20 75.38Q387.65 71.85 387.65 68.18L387.65 68.18Q387.65 65.58 385.56 65.58L385.56 65.58Q383.90 65.58 382.03 67.53Q380.16 69.47 378.43 72.93Q376.70 76.38 375.55 81.93Q374.40 87.47 374.40 93.88L374.40 93.88Q374.40 94.60 374.76 100L374.76 100Q372.89 100.14 372.60 100.14L372.60 100.14Q366.26 100.14 366.26 93.95L366.26 93.95Q366.26 92.51 367.78 82.86Q369.29 73.22 369.29 67.49Q369.29 61.77 368.06 56.94L368.06 56.94Q372.31 58.60 374.00 61.66Q375.70 64.72 375.70 68.79Q375.70 72.86 375.05 76.60L375.05 76.60ZM417.46 62.20L417.46 62.20Q413.14 62.20 410.15 67.17Q407.16 72.14 406.15 78.83L406.15 78.83L408.17 78.83Q411.98 78.83 414.79 77.75Q417.60 76.67 419.11 74.94L419.11 74.94Q421.99 71.63 421.99 67.46L421.99 67.46Q421.99 65.08 420.88 63.64Q419.76 62.20 417.46 62.20ZM427.61 91.36Q424.30 96.76 420.34 98.92Q416.38 101.08 411.16 101.08Q405.94 101.08 402.05 96.47Q398.16 91.86 398.16 83.51L398.16 83.51Q398.16 74.01 403.27 66.52L403.27 66.52Q405.79 62.92 409.86 60.69Q413.93 58.46 418.82 58.46L418.82 58.46Q429.62 58.46 429.62 68.90L429.62 68.90Q429.62 75.16 424.76 78.72Q419.90 82.29 413.50 82.29L413.50 82.29Q409.25 82.29 405.86 81.50L405.86 81.50Q405.79 82.22 405.79 83.73L405.79 83.73Q405.79 96.47 413.35 96.47L413.35 96.47Q420.48 96.47 424.94 89.42L424.94 89.42Q427.61 89.78 427.61 91.36L427.61 91.36ZM459.79 59.18L459.79 59.18Q462.53 59.18 462.82 61.26L462.82 61.26Q454.90 62.92 449.64 70.16Q444.38 77.39 444.38 84.74L444.38 84.74Q444.38 88.77 445.93 91.43Q447.48 94.10 450.83 94.10Q454.18 94.10 457.13 90.50L457.13 90.50Q462.38 84.09 464.26 70.34L464.26 70.34Q465.41 61.48 466.92 58.82L466.92 58.82Q468.94 55.50 471.89 54.42L471.89 54.42Q470.88 62.06 470.88 65.94L470.88 65.94Q470.88 94.74 464.98 109.22Q459.07 123.69 445.75 123.69L445.75 123.69Q440.50 123.69 437.51 121.13Q434.52 118.58 434.52 115.34Q434.52 112.10 436.28 109.79Q438.05 107.49 440.93 107.49L440.93 107.49Q442.51 107.49 444.24 108.21L444.24 108.21Q443.09 109 442.30 110.66Q441.50 112.31 441.50 114.36Q441.50 116.42 443.05 117.82Q444.60 119.22 447.34 119.22Q450.07 119.22 452.52 117.60Q454.97 115.98 457.20 112.53L457.20 112.53Q461.95 105.04 462.38 86.82L462.38 86.82Q460.37 93.02 456.16 96.76Q451.94 100.50 447.62 100.50L447.62 100.50Q442.08 100.50 439.24 96.29Q436.39 92.08 436.39 85.53L436.39 85.53Q436.39 76.38 442.44 68.10L442.44 68.10Q445.32 64.14 449.86 61.66Q454.39 59.18 459.79 59.18ZM508.75 58.31L508.75 58.31Q514.94 58.31 514.94 64.72L514.94 64.72Q514.94 65.87 513.58 74.84Q512.21 83.80 512.21 90.21Q512.21 96.62 513.58 101.51L513.58 101.51Q509.18 99.78 507.49 96.62Q505.80 93.45 505.80 88.77L505.80 88.77Q505.80 86.97 506.59 80.63L506.59 80.63Q504.43 88.84 499.90 94.42Q495.36 100 491.47 100L491.47 100Q483.26 100 483.26 88.05L483.26 88.05Q483.26 84.09 484.45 77.00Q485.64 69.90 485.64 66.23Q485.64 62.56 484.63 58.82L484.63 58.82Q489.24 58.82 491.54 60.40Q493.85 61.98 493.85 66.52L493.85 66.52Q493.85 68.97 492.34 76.60Q490.82 84.23 490.82 87.90L490.82 87.90Q490.82 93.23 494.14 93.23L494.14 93.23Q496.87 93.23 499.86 88.95Q502.85 84.66 504.86 77.82Q506.88 70.98 506.88 64.29L506.88 64.29Q506.88 61.26 506.45 58.46L506.45 58.46Q508.03 58.31 508.75 58.31ZM526.61 94.74L526.61 94.74Q526.54 93.59 526.54 91.04Q526.54 88.48 528.95 69.18Q531.36 49.89 531.36 42.69Q531.36 35.49 530.50 33.33L530.50 33.33Q534.53 34.84 536.18 37.79Q537.84 40.74 537.84 44.92Q537.84 49.10 535.75 66.52Q533.66 83.94 533.66 94.60L533.66 94.60Q533.66 96.90 533.95 101.08L533.95 101.08Q529.99 100.79 528.34 99.21L528.34 99.21Q526.97 97.91 526.61 94.74ZM558.14 71.81Q556.06 75.45 554.94 79.23Q553.82 83.01 553.82 86.46Q553.82 89.92 555.37 92.33Q556.92 94.74 559.80 94.74L559.80 94.74Q563.83 94.74 567.36 90.32Q570.89 85.89 572.80 79.59Q574.70 73.29 574.70 67.92Q574.70 62.56 574.27 59.10L574.27 59.10Q576.00 58.96 576.43 58.96L576.43 58.96Q582.55 58.96 582.55 65.22L582.55 65.22Q582.55 66.59 580.82 76.35Q579.10 86.10 579.10 91.97Q579.10 97.84 581.33 102.38L581.33 102.38Q576.79 101.44 574.74 98.38Q572.69 95.32 572.69 89.56L572.69 89.56Q572.69 88.55 572.98 85.67L572.98 85.67Q571.03 92.51 566.14 96.69Q561.24 100.86 556.52 100.86Q551.81 100.86 548.93 97.30Q546.05 93.74 546.05 87.44Q546.05 81.14 548.39 75.12Q550.73 69.11 555.44 64.72Q560.16 60.33 565.99 60.33L565.99 60.33Q568.51 60.33 571.54 61.34L571.54 61.34Q567.29 62.42 563.76 65.30Q560.23 68.18 558.14 71.81ZM602.86 76.60Q605.45 67.24 609.08 62.81Q612.72 58.38 615.85 58.38Q618.98 58.38 620.57 60.72Q622.15 63.06 622.15 66.66Q622.15 70.26 620.28 72.89Q618.41 75.52 614.81 75.52L614.81 75.52Q613.66 75.52 613.01 75.38L613.01 75.38Q615.46 71.85 615.46 68.18L615.46 68.18Q615.46 65.58 613.37 65.58L613.37 65.58Q611.71 65.58 609.84 67.53Q607.97 69.47 606.24 72.93Q604.51 76.38 603.36 81.93Q602.21 87.47 602.21 93.88L602.21 93.88Q602.21 94.60 602.57 100L602.57 100Q600.70 100.14 600.41 100.14L600.41 100.14Q594.07 100.14 594.07 93.95L594.07 93.95Q594.07 92.51 595.58 82.86Q597.10 73.22 597.10 67.49Q597.10 61.77 595.87 56.94L595.87 56.94Q600.12 58.60 601.81 61.66Q603.50 64.72 603.50 68.79Q603.50 72.86 602.86 76.60L602.86 76.60Z"/></svg>