<svg xmlns="http://www.w3.org/2000/svg" viewBox="2.53125 42.23828125 940.81640625 75.515625"><path d="M16 46L23 46L29 84L30 92L33 84L49 46L57 46L55 100L50 100L52 64L53 50L47 62L31 100L27 101L21 63L19 50L16 64L8 100L3 100L16 46ZM87 59Q90 59 92 61Q95 62 96 64Q97 66 97 68L97 68Q97 73 92 77Q88 81 82 82Q77 84 72 84L72 84Q72 85 72 86L72 86Q72 90 74 93Q76 96 80 96L80 96Q83 96 87 95Q90 93 93 90L93 90L94 93Q93 95 91 97Q89 98 86 99Q83 101 80 101L80 101Q75 101 72 98Q69 96 67 92Q66 89 66 84L66 84Q66 78 69 72Q72 66 76 63Q81 59 87 59L87 59ZM91 69Q91 66 90 65Q88 63 86 63L86 63Q82 63 79 66Q76 69 74 73Q72 77 72 81L72 81Q76 81 81 79Q85 77 88 75Q91 72 91 69L91 69ZM125 59Q127 59 128 60L128 60L126 65Q125 65 123 65L123 65Q121 65 119 66Q116 68 114 70Q112 73 111 76L111 76L108 100L102 100L108 60L113 60L112 69Q113 67 115 64Q117 62 120 61Q122 59 125 59L125 59ZM153 59Q154 59 155 60L155 60L154 65Q153 65 151 65L151 65Q149 65 146 66Q144 68 142 70Q140 73 138 76L138 76L135 100L130 100L135 60L140 60L139 69Q140 67 142 64Q144 62 147 61Q150 59 153 59L153 59ZM164 60L169 60L164 100L159 100L164 60ZM165 47Q165 45 166 44Q166 43 167 43Q168 42 169 42L169 42Q170 42 171 43Q172 44 172 45L172 45Q172 47 172 48Q171 49 170 49Q169 50 168 50L168 50Q167 50 166 49Q165 48 165 47L165 47ZM229 60Q229 61 229 62L229 62Q229 62 229 64L229 64Q229 69 227 75Q225 80 223 85Q220 90 216 94L216 94L211 100L206 100L204 88L203 79Q201 83 199 87Q197 91 194 94L194 94L189 100L184 100L182 88L178 60L184 60L187 88L187 96L192 90Q200 79 202 70L202 70L200 60L206 60L209 88L210 96L215 90Q218 85 220 80Q223 75 223 69L223 69L224 67Q224 67 224 64Q224 62 224 61L224 61Q224 60 224 60L224 60L229 60ZM255 59Q258 59 260 61Q263 62 264 64Q265 66 265 68L265 68Q265 73 261 77Q256 81 251 82Q245 84 240 84L240 84Q240 85 240 86L240 86Q240 90 242 93Q244 96 249 96L249 96Q252 96 255 95Q258 93 261 90L261 90L262 93Q261 95 259 97Q257 98 254 99Q251 101 248 101L248 101Q243 101 240 98Q237 96 236 92Q234 89 234 84L234 84Q234 78 237 72Q240 66 244 63Q249 59 255 59L255 59ZM260 69Q260 66 258 65Q257 63 254 63L254 63Q250 63 247 66Q244 69 242 73Q240 77 240 81L240 81Q244 81 249 79Q253 77 257 75Q260 72 260 69L260 69ZM300 61L304 59L298 100L294 100L295 93L295 93Q292 96 289 98Q285 101 281 101L281 101Q276 101 273 97Q270 92 270 85L270 85Q270 79 273 73Q275 67 280 63Q285 59 293 59L293 59Q294 59 296 60Q298 60 300 61L300 61ZM282 96Q285 96 288 95Q290 93 292 91Q294 89 295 87L295 87L296 80L298 65Q297 64 295 64Q293 63 292 63L292 63Q287 63 283 66Q279 70 278 75Q276 80 276 85L276 85Q276 91 277 94Q279 96 282 96L282 96ZM313 90L317 64L312 64L313 60L317 60L319 50L324 50L323 60L333 60L332 64L322 64L319 87L319 88Q319 89 319 90Q318 92 318 92L318 92Q318 94 319 95Q320 96 321 96L321 96Q323 96 325 95Q327 94 329 93L329 93L330 96Q329 97 327 98Q325 99 323 100Q321 101 319 101L319 101Q316 101 315 99Q313 98 313 95L313 95Q313 93 313 90L313 90ZM362 59Q367 59 369 62Q370 64 370 69L370 69Q370 71 370 74Q370 77 369 82L369 82Q369 84 367 95L367 95L366 100L361 100Q361 98 363 88L363 88Q363 84 364 82L364 82Q364 77 365 74Q365 71 365 70L365 70Q365 67 364 65Q363 64 360 64L360 64Q358 64 355 66Q352 67 350 70Q347 72 345 75L345 75L342 100L337 100L344 42L349 42L347 59L346 69Q349 65 354 62Q358 59 362 59L362 59ZM399 59Q402 59 405 61Q407 62 408 64Q409 66 409 68L409 68Q409 73 405 77Q400 81 395 82Q389 84 384 84L384 84Q384 85 384 86L384 86Q384 90 386 93Q388 96 393 96L393 96Q396 96 399 95Q402 93 405 90L405 90L406 93Q405 95 403 97Q401 98 398 99Q395 101 392 101L392 101Q387 101 384 98Q381 96 380 92Q378 89 378 84L378 84Q379 78 381 72Q384 66 389 63Q393 59 399 59L399 59ZM404 69Q404 66 402 65Q401 63 398 63L398 63Q394 63 391 66Q388 69 386 73Q384 77 384 81L384 81Q388 81 393 79Q397 77 401 75Q404 72 404 69L404 69ZM438 59Q439 59 440 60L440 60L439 65Q438 65 435 65L435 65Q433 65 431 66Q429 68 427 70Q424 73 423 76L423 76L420 100L415 100L420 60L425 60L424 69Q425 67 427 64Q429 62 432 61Q435 59 438 59L438 59ZM458 93Q459 94 461 95Q463 95 465 96Q468 96 470 96L470 96Q474 96 476 95Q479 94 481 92Q483 90 483 87L483 87Q483 83 481 81Q479 78 474 75L474 75Q471 73 468 71Q466 69 464 66Q462 63 462 59L462 59Q462 55 465 52Q467 49 470 47Q474 46 479 46L479 46Q486 46 491 49L491 49L489 53Q488 51 485 50Q482 50 479 50L479 50Q475 50 471 52Q468 54 468 59L468 59Q468 61 469 64Q470 66 472 67Q474 69 477 71L477 71Q481 73 483 75Q485 77 487 80Q488 82 488 86L488 86Q488 91 486 94Q484 97 479 99Q475 101 470 101L470 101Q467 101 465 100Q462 100 460 99Q458 98 457 97L457 97L458 93ZM525 61L529 59L524 100L519 100L520 93L520 93Q518 96 514 98Q511 101 507 101L507 101Q501 101 498 97Q495 92 495 85L495 85Q495 79 498 73Q500 67 505 63Q510 59 518 59L518 59Q519 59 521 60Q523 60 525 61L525 61ZM507 96Q510 96 513 95Q515 93 517 91Q519 89 520 87L520 87L521 80L523 65Q522 64 520 64Q519 63 517 63L517 63Q512 63 508 66Q505 70 503 75Q501 80 501 85L501 85Q501 91 503 94Q504 96 507 96L507 96ZM561 59Q566 59 568 62Q570 64 570 69L570 69Q570 71 569 74Q569 77 568 82L568 82Q568 86 567 92L567 92L565 100L560 100Q561 96 562 88L562 88L563 82Q564 77 564 74Q564 71 564 70L564 70Q564 67 563 65Q562 64 559 64L559 64Q557 64 554 66Q551 67 549 70Q546 72 544 75L544 75L541 100L536 100L541 60L546 60L545 69Q548 65 553 62Q557 59 561 59L561 59ZM577 94Q578 95 581 96Q583 97 586 97L586 97Q590 97 592 95Q595 93 595 90L595 90Q595 89 594 87Q593 86 592 85Q591 84 589 83L589 83Q589 82 588 82L588 82Q585 80 584 78Q582 77 581 75Q580 73 580 70L580 70Q580 67 582 64Q584 62 587 61Q590 59 594 59L594 59Q597 59 599 60Q601 60 603 61L603 61L602 66Q601 65 600 65Q599 64 597 64Q596 63 594 63L594 63Q590 63 588 65Q585 67 585 69L585 69Q585 71 586 73Q587 74 588 75Q589 76 591 77L591 77L592 78L592 78Q594 80 596 82Q598 83 599 85Q600 87 600 90L600 90Q600 93 598 96Q596 98 593 99Q590 101 586 101L586 101Q583 101 580 100Q577 99 576 98L576 98L577 94ZM635 42L640 42L632 100L627 100L635 42ZM652 60L657 60L652 100L646 100L652 60ZM653 47Q653 45 653 44Q654 43 655 43Q656 42 657 42L657 42Q658 42 659 43Q660 44 660 45L660 45Q660 47 659 48Q659 49 658 49Q657 50 656 50L656 50Q655 50 654 49Q653 48 653 47L653 47ZM695 61L699 59L693 103Q692 108 689 112Q686 115 682 116Q679 118 675 118L675 118Q672 118 670 117Q667 117 666 117L666 117L667 112Q669 113 671 113Q673 114 676 114L676 114Q680 114 683 111Q686 108 687 103L687 103L689 93Q687 96 683 98Q680 101 676 101L676 101Q670 101 667 96Q664 92 664 85L664 85Q664 79 667 73Q669 67 675 63Q680 59 687 59L687 59Q689 59 691 60Q693 60 695 61L695 61ZM689 87L693 64Q691 64 690 64Q688 63 686 63L686 63Q681 63 677 67Q674 70 672 75Q670 80 670 85L670 85Q670 91 672 94Q673 96 676 96L676 96Q679 96 682 95Q684 94 686 92Q688 90 689 87L689 87ZM731 59Q736 59 737 62Q739 64 739 69L739 69Q739 71 739 74Q739 77 738 82L738 82Q738 84 736 95L736 95L735 100L730 100Q730 98 732 88L732 88Q732 84 733 82L733 82Q733 77 734 74Q734 71 734 70L734 70Q734 67 733 65Q732 64 729 64L729 64Q727 64 724 66Q721 67 719 70Q716 72 714 75L714 75L711 100L705 100L713 42L718 42L716 59L715 69Q718 65 722 62Q727 59 731 59L731 59ZM750 90L754 64L749 64L750 60L754 60L756 50L761 50L760 60L770 60L769 64L759 64L756 87L756 88Q756 89 756 90Q755 92 755 92L755 92Q755 94 756 95Q757 96 758 96L758 96Q760 96 762 95Q764 94 766 93L766 93L767 96Q766 97 764 98Q762 99 760 100Q758 101 756 101L756 101Q753 101 752 99Q750 98 750 95L750 95Q750 93 750 90L750 90ZM797 60L802 60L797 100L792 100L797 60ZM798 47Q798 45 799 44Q799 43 800 43Q801 42 802 42L802 42Q804 42 805 43Q805 44 805 45L805 45Q805 47 805 48Q804 49 803 49Q802 50 801 50L801 50Q800 50 799 49Q798 48 798 47L798 47ZM813 90L817 64L812 64L813 60L817 60L819 50L824 50L822 60L833 60L832 64L822 64L819 87L819 88Q819 89 818 90Q818 92 818 92L818 92Q818 94 819 95Q819 96 821 96L821 96Q823 96 825 95Q827 94 829 93L829 93L829 96Q829 97 827 98Q825 99 823 100Q821 101 819 101L819 101Q816 101 814 99Q813 98 813 95L813 95Q813 93 813 90L813 90ZM866 61L870 59L864 100L859 100L860 93L860 93Q858 96 854 98Q851 101 847 101L847 101Q841 101 839 97Q836 92 836 85L836 85Q836 79 838 73Q841 67 846 63Q851 59 858 59L858 59Q860 59 862 60Q864 60 866 61L866 61ZM848 96Q851 96 853 95Q856 93 858 91Q860 89 861 87L861 87L861 80L864 65Q862 64 861 64Q859 63 857 63L857 63Q852 63 849 66Q845 70 843 75Q841 80 841 85L841 85Q841 91 843 94Q845 96 848 96L848 96ZM885 42L890 42L883 100L877 100L885 42ZM903 60L908 60L902 100L897 100L903 60ZM904 47Q904 45 904 44Q905 43 906 43Q907 42 908 42L908 42Q909 42 910 43Q911 44 911 45L911 45Q911 47 910 48Q910 49 909 49Q908 50 907 50L907 50Q905 50 904 49Q904 48 904 47L904 47ZM936 59Q938 59 940 60Q942 60 943 61L943 61L942 65Q941 64 939 64Q937 63 935 63L935 63Q931 63 928 66Q925 69 923 74Q921 79 921 84L921 84Q921 91 923 94Q925 97 929 97L929 97Q932 97 934 95Q937 94 939 91L939 91L941 94Q939 97 936 99Q933 101 929 101L929 101Q922 101 919 96Q915 92 915 85L915 85Q915 79 918 73Q920 67 925 63Q929 59 936 59L936 59Z"/></svg>