<svg xmlns="http://www.w3.org/2000/svg" viewBox="-0.25 -8.06 63.970000000000006 8.16"><path d="M4.88-2.30Q5.17-3.04 6.09-4.96L6.09-4.96Q6.98-6.87 7.21-7.43L7.21-7.43L9.11-7.43L9.06-7.03L8.18-6.93L7.99-0.47L8.82-0.35L8.79 0L6.25 0L6.29-0.35L7.20-0.46L7.40-4.96L7.54-7.01L6.78-5.20L4.39 0.02L3.95 0.09L3.08-5.08L2.75-7.01L2.34-5.04L1.27-0.47L2.24-0.35L2.21 0L-0.25 0L-0.21-0.35L0.63-0.47L2.25-6.93L1.33-7.03L1.38-7.43L3.40-7.43L4.25-2.32L4.39-1.25L4.88-2.30ZM13.61-0.92Q13.35-0.56 12.79-0.23Q12.22 0.10 11.56 0.10L11.56 0.10Q10.90 0.10 10.47-0.20Q10.04-0.50 9.83-0.98Q9.63-1.47 9.63-2.04L9.63-2.04Q9.63-2.98 10.01-3.82Q10.39-4.66 11.04-5.17Q11.70-5.68 12.50-5.68L12.50-5.68Q13.18-5.68 13.53-5.34Q13.88-5 13.88-4.46L13.88-4.46Q13.88-3.75 13.28-3.27Q12.68-2.78 11.87-2.54Q11.06-2.29 10.47-2.28L10.47-2.28Q10.46-2.21 10.46-2.05L10.46-2.05Q10.46-1.41 10.76-0.94Q11.06-0.47 11.68-0.47L11.68-0.47Q12.11-0.47 12.57-0.67Q13.03-0.87 13.42-1.26L13.42-1.26L13.61-0.92ZM12.32-5.21Q11.81-5.21 11.41-4.82Q11.01-4.43 10.77-3.85Q10.54-3.28 10.49-2.73L10.49-2.73Q11.06-2.75 11.66-2.96Q12.27-3.16 12.68-3.53Q13.09-3.90 13.09-4.39L13.09-4.39Q13.08-4.79 12.88-5Q12.68-5.21 12.32-5.21L12.32-5.21ZM16.29-4.27Q16.42-4.57 16.70-4.90Q16.98-5.22 17.36-5.45Q17.75-5.67 18.18-5.67L18.18-5.67Q18.42-5.67 18.50-5.61L18.50-5.61L18.32-4.74Q18.18-4.82 17.86-4.82L17.86-4.82Q17.40-4.82 16.93-4.47Q16.46-4.12 16.20-3.49L16.20-3.49L15.77 0L14.99 0L15.62-4.86L15.11-5.09L15.18-5.45L16.23-5.66L16.42-5.57L16.35-4.68L16.29-4.27ZM20.37-4.27Q20.50-4.57 20.78-4.90Q21.06-5.22 21.44-5.45Q21.83-5.67 22.26-5.67L22.26-5.67Q22.50-5.67 22.58-5.61L22.58-5.61L22.40-4.74Q22.26-4.82 21.94-4.82L21.94-4.82Q21.48-4.82 21.01-4.47Q20.54-4.12 20.28-3.49L20.28-3.49L19.85 0L19.07 0L19.70-4.86L19.19-5.09L19.26-5.45L20.31-5.66L20.50-5.57L20.43-4.68L20.37-4.27ZM24.14-0.79Q24.13-0.75 24.13-0.67L24.13-0.67Q24.13-0.56 24.17-0.50Q24.22-0.44 24.28-0.44L24.28-0.44Q24.48-0.44 24.80-0.77L24.80-0.77L24.93-0.55Q24.80-0.35 24.51-0.13Q24.22 0.10 23.87 0.10L23.87 0.10Q23.60 0.10 23.44-0.04Q23.29-0.18 23.31-0.49L23.31-0.49Q23.33-0.75 23.44-1.54Q23.56-2.33 23.62-2.73L23.62-2.73L23.94-4.92L23.29-5.13L23.35-5.45L24.62-5.66L24.82-5.56L24.14-0.79ZM24.54-6.82Q24.36-6.82 24.22-6.96Q24.09-7.09 24.09-7.30L24.09-7.30Q24.09-7.56 24.27-7.75Q24.46-7.94 24.67-7.94L24.67-7.94Q24.88-7.94 25.00-7.81Q25.13-7.68 25.13-7.47L25.13-7.47Q25.13-7.20 24.95-7.01Q24.78-6.82 24.54-6.82L24.54-6.82ZM26.46-4.76Q26.42-4.94 26.37-5.01Q26.32-5.09 26.22-5.09L26.22-5.09Q26.13-5.10 26.05-5.05Q25.98-5 25.85-4.90L25.85-4.90L25.74-5.16Q25.82-5.30 26.08-5.49Q26.34-5.67 26.64-5.67L26.64-5.67Q26.96-5.67 27.09-5.51Q27.22-5.35 27.27-5L27.27-5L27.65-1.56L27.75-0.62L28.13-1.48L29.90-5.63L30.60-5.63L30.97-1.55L31.05-0.62L31.69-1.54Q32.04-2.03 32.42-2.90Q32.80-3.76 32.83-4.47L32.83-4.47Q32.84-4.64 32.79-4.79Q32.75-4.94 32.74-4.97L32.74-4.97Q32.68-5.15 32.68-5.23L32.68-5.23Q32.68-5.44 32.78-5.55Q32.88-5.67 33.06-5.67L33.06-5.67Q33.58-5.67 33.58-4.70L33.58-4.70Q33.58-4.09 33.17-3.21Q32.76-2.33 32.18-1.48L32.18-1.48L31.20 0.04L30.47 0.09L30.29-1.58L30.06-3.88L30.01-4.53L29.80-3.87L28.64-1.45L27.94 0.04L27.26 0.10L26.98-1.59L26.46-4.76ZM38.31-0.92Q38.05-0.56 37.48-0.23Q36.92 0.10 36.26 0.10L36.26 0.10Q35.60 0.10 35.17-0.20Q34.74-0.50 34.54-0.98Q34.33-1.47 34.33-2.04L34.33-2.04Q34.33-2.98 34.71-3.82Q35.09-4.66 35.74-5.17Q36.40-5.68 37.20-5.68L37.20-5.68Q37.88-5.68 38.23-5.34Q38.58-5 38.58-4.46L38.58-4.46Q38.58-3.75 37.98-3.27Q37.38-2.78 36.57-2.54Q35.76-2.29 35.17-2.28L35.17-2.28Q35.16-2.21 35.16-2.05L35.16-2.05Q35.16-1.41 35.46-0.94Q35.76-0.47 36.38-0.47L36.38-0.47Q36.81-0.47 37.27-0.67Q37.73-0.87 38.12-1.26L38.12-1.26L38.31-0.92ZM37.02-5.21Q36.51-5.21 36.11-4.82Q35.71-4.43 35.48-3.85Q35.24-3.28 35.19-2.73L35.19-2.73Q35.76-2.75 36.37-2.96Q36.97-3.16 37.38-3.53Q37.79-3.90 37.79-4.39L37.79-4.39Q37.78-4.79 37.58-5Q37.38-5.21 37.02-5.21L37.02-5.21ZM43.48-0.86Q43.47-0.81 43.47-0.74L43.47-0.74Q43.47-0.58 43.54-0.51Q43.60-0.44 43.67-0.44L43.67-0.44Q43.77-0.44 43.87-0.51Q43.96-0.57 44.11-0.72L44.11-0.72L44.25-0.50Q44.21-0.42 44.06-0.28Q43.92-0.13 43.71-0.01Q43.50 0.10 43.27 0.10L43.27 0.10Q42.65 0.10 42.69-0.56L42.69-0.56L42.75-0.97Q42.41-0.53 41.95-0.21Q41.50 0.10 41.01 0.10L41.01 0.10Q40.22 0.10 39.84-0.47Q39.45-1.04 39.45-2.01L39.45-2.01Q39.45-2.82 39.83-3.68Q40.21-4.53 40.93-5.11Q41.64-5.68 42.59-5.68L42.59-5.68Q42.80-5.68 43.08-5.63Q43.36-5.58 43.58-5.51L43.58-5.51L44.13-5.67L43.48-0.86ZM43.26-4.97Q42.94-5.19 42.48-5.19L42.48-5.19Q41.79-5.19 41.29-4.71Q40.79-4.24 40.53-3.52Q40.27-2.80 40.27-2.10L40.27-2.10Q40.27-1.33 40.50-0.91Q40.72-0.48 41.18-0.48L41.18-0.48Q41.63-0.48 42.08-0.83Q42.52-1.19 42.82-1.62L42.82-1.62L43.26-4.97ZM46.42-1.69Q46.35-1.10 46.35-0.94L46.35-0.94Q46.35-0.68 46.46-0.58Q46.56-0.47 46.83-0.47L46.83-0.47Q47.03-0.47 47.34-0.61Q47.65-0.75 47.82-0.89L47.82-0.89L47.90-0.58Q47.71-0.35 47.26-0.13Q46.81 0.10 46.41 0.10L46.41 0.10Q45.55 0.10 45.55-0.72L45.55-0.72Q45.55-0.98 45.60-1.35L45.60-1.35L46.07-5L45.46-5L45.55-5.35L46.16-5.54Q46.37-5.81 46.72-6.91L46.72-6.91L47.11-6.91L46.93-5.55L48.31-5.55L48.23-5L46.87-5L46.42-1.69ZM50.26-4.26Q50.69-4.87 51.28-5.28Q51.86-5.68 52.45-5.68L52.45-5.68Q53-5.68 53.29-5.34Q53.57-5.01 53.57-4.23L53.57-4.23Q53.57-3.79 53.36-2.74L53.36-2.74Q53.35-2.68 53.34-2.61Q53.33-2.54 53.31-2.47L53.31-2.47Q53.27-2.30 53.26-2.17L53.26-2.17Q53.07-1.24 53.04-0.78L53.04-0.78Q53.03-0.61 53.07-0.52Q53.11-0.43 53.19-0.43L53.19-0.43Q53.29-0.43 53.40-0.49Q53.51-0.56 53.71-0.73L53.71-0.73L53.83-0.51Q53.78-0.42 53.63-0.28Q53.48-0.13 53.25-0.01Q53.02 0.10 52.77 0.10L52.77 0.10Q52.22 0.10 52.22-0.44L52.22-0.44Q52.22-0.70 52.30-1.15Q52.38-1.59 52.39-1.67L52.39-1.67Q52.40-1.70 52.49-2.23L52.49-2.23Q52.62-2.89 52.69-3.33Q52.76-3.78 52.76-4.18L52.76-4.18Q52.76-4.66 52.61-4.85Q52.45-5.04 52.11-5.04L52.11-5.04Q51.66-5.04 51.11-4.63Q50.56-4.21 50.18-3.62L50.18-3.62L49.69 0L48.93 0L49.90-7.39L49.34-7.55L49.40-7.89L50.55-8.06L50.75-7.94L50.26-4.26ZM58.83-0.92Q58.57-0.56 58.01-0.23Q57.44 0.10 56.78 0.10L56.78 0.10Q56.12 0.10 55.69-0.20Q55.26-0.50 55.06-0.98Q54.85-1.47 54.85-2.04L54.85-2.04Q54.85-2.98 55.23-3.82Q55.61-4.66 56.27-5.17Q56.92-5.68 57.72-5.68L57.72-5.68Q58.40-5.68 58.75-5.34Q59.10-5 59.10-4.46L59.10-4.46Q59.10-3.75 58.50-3.27Q57.90-2.78 57.09-2.54Q56.28-2.29 55.69-2.28L55.69-2.28Q55.68-2.21 55.68-2.05L55.68-2.05Q55.68-1.41 55.98-0.94Q56.28-0.47 56.90-0.47L56.90-0.47Q57.33-0.47 57.79-0.67Q58.25-0.87 58.64-1.26L58.64-1.26L58.83-0.92ZM57.54-5.21Q57.03-5.21 56.63-4.82Q56.23-4.43 56.00-3.85Q55.76-3.28 55.71-2.73L55.71-2.73Q56.28-2.75 56.89-2.96Q57.49-3.16 57.90-3.53Q58.31-3.90 58.31-4.39L58.31-4.39Q58.30-4.79 58.10-5Q57.90-5.21 57.54-5.21L57.54-5.21ZM61.51-4.27Q61.64-4.57 61.92-4.90Q62.20-5.22 62.59-5.45Q62.97-5.67 63.40-5.67L63.40-5.67Q63.64-5.67 63.72-5.61L63.72-5.61L63.54-4.74Q63.40-4.82 63.08-4.82L63.08-4.82Q62.62-4.82 62.15-4.47Q61.68-4.12 61.42-3.49L61.42-3.49L60.99 0L60.21 0L60.84-4.86L60.33-5.09L60.40-5.45L61.45-5.66L61.64-5.57L61.57-4.68L61.51-4.27Z"/></svg>