<svg xmlns="http://www.w3.org/2000/svg" viewBox="-0.42 -8.3 66.41000000000001 8.440000000000001"><path d="M5.35-3.29Q5.62-3.98 6.18-5.36L6.18-5.36L7.01-7.43L9.95-7.43L9.88-6.89L9.02-6.78L8.83-0.65L9.71-0.51L9.67 0L6.22 0L6.26-0.52L7.18-0.65L7.46-4.82L7.56-6.78L6.86-5.06L4.71 0.01L3.89 0.09L3.23-4.94L2.95-6.78L2.53-4.89L1.51-0.65L2.61-0.51L2.56 0L-0.42 0L-0.36-0.51L0.43-0.65L2.02-6.78L1.07-6.89L1.15-7.43L4.47-7.43L4.98-3.29L5.08-2.45L5.35-3.29ZM14.57-1.04Q14.30-0.61 13.71-0.24Q13.12 0.14 12.29 0.14L12.29 0.14Q11.55 0.14 11.07-0.18Q10.59-0.49 10.37-1Q10.15-1.51 10.15-2.10L10.15-2.10Q10.15-3.12 10.56-3.94Q10.98-4.76 11.71-5.23Q12.43-5.69 13.31-5.69L13.31-5.69Q14.13-5.69 14.52-5.33Q14.91-4.97 14.91-4.40L14.91-4.40Q14.91-3.67 14.43-3.19Q13.95-2.70 13.25-2.47Q12.56-2.24 11.88-2.22L11.88-2.22Q11.87-1.48 12.12-1.10Q12.36-0.72 12.80-0.72L12.80-0.72Q13.31-0.72 13.65-0.95Q14-1.18 14.26-1.53L14.26-1.53L14.57-1.04ZM12.96-5.01Q12.44-5.01 12.18-4.34Q11.93-3.67 11.88-2.81L11.88-2.81Q12.19-2.83 12.54-3.00Q12.89-3.18 13.13-3.51Q13.37-3.84 13.37-4.28L13.37-4.28Q13.37-5.01 12.96-5.01L12.96-5.01ZM17.53-4.23Q17.71-4.84 18.14-5.26Q18.57-5.68 19.13-5.68L19.13-5.68Q19.35-5.68 19.47-5.58L19.47-5.58L19.14-3.87Q19.10-3.92 18.95-3.98Q18.80-4.04 18.59-4.04L18.59-4.04Q18.28-4.04 18.02-3.98Q17.75-3.91 17.61-3.79L17.61-3.79L17.09 0L15.55 0L16.18-4.71L15.66-4.99L15.74-5.42L17.34-5.68L17.60-5.51L17.55-4.59L17.53-4.23ZM21.69-4.23Q21.87-4.84 22.30-5.26Q22.73-5.68 23.29-5.68L23.29-5.68Q23.51-5.68 23.63-5.58L23.63-5.58L23.30-3.87Q23.26-3.92 23.11-3.98Q22.96-4.04 22.75-4.04L22.75-4.04Q22.44-4.04 22.18-3.98Q21.91-3.91 21.77-3.79L21.77-3.79L21.25 0L19.71 0L20.34-4.71L19.82-4.99L19.90-5.42L21.50-5.68L21.76-5.51L21.71-4.59L21.69-4.23ZM25.62-1.10Q25.61-1.05 25.61-0.97L25.61-0.97Q25.61-0.73 25.79-0.73L25.79-0.73Q25.87-0.73 25.96-0.78Q26.06-0.83 26.24-0.95L26.24-0.95L26.37-0.61Q26.20-0.38 25.85-0.14Q25.49 0.10 24.95 0.10L24.95 0.10Q24.49 0.10 24.24-0.07Q23.98-0.25 23.98-0.53L23.98-0.53Q23.98-0.59 23.99-0.63L23.99-0.63L24.25-2.60L24.53-4.69L23.97-4.99L24.05-5.42L25.98-5.68L26.24-5.56L25.62-1.10ZM25.61-6.54Q25.31-6.54 25.08-6.78Q24.84-7.02 24.84-7.32L24.84-7.32Q24.84-7.73 25.12-8.02Q25.40-8.30 25.86-8.30L25.86-8.30Q26.21-8.30 26.42-8.07Q26.63-7.84 26.63-7.54L26.63-7.54Q26.63-7.10 26.37-6.82Q26.11-6.54 25.61-6.54L25.61-6.54ZM27.32-4.54Q27.28-4.69 27.23-4.75Q27.19-4.81 27.11-4.81L27.11-4.81Q27.03-4.81 26.98-4.79Q26.92-4.77 26.86-4.74L26.86-4.74L26.71-5.11Q26.77-5.19 26.96-5.33Q27.15-5.46 27.42-5.57Q27.69-5.68 27.98-5.68L27.98-5.68Q28.41-5.68 28.63-5.51Q28.85-5.34 28.90-5.01L28.90-5.01L29.29-2.12L29.41-1.09L29.84-2.46L30.79-5.64L32.22-5.64L32.73-1.95L32.81-1.13L33.05-1.53Q33.48-2.20 33.69-2.77Q33.89-3.34 33.89-3.94L33.89-3.94Q33.89-4.10 33.81-4.44L33.81-4.44Q33.73-4.78 33.73-4.97L33.73-4.97Q33.73-5.27 33.95-5.48Q34.16-5.68 34.52-5.68L34.52-5.68Q34.97-5.68 35.17-5.38Q35.38-5.07 35.38-4.61L35.38-4.61Q35.38-4.15 35.02-3.40Q34.65-2.65 34.14-1.90Q33.63-1.15 33.23-0.69L33.23-0.69L32.62 0.04L31.55 0.09L31.26-1.73L31.11-3.07L31.04-3.81L30.84-3.07L30.44-1.99L29.63 0.02L28.34 0.10L27.95-1.73L27.32-4.54ZM40.04-1.04Q39.77-0.61 39.18-0.24Q38.59 0.14 37.76 0.14L37.76 0.14Q37.02 0.14 36.54-0.18Q36.06-0.49 35.84-1Q35.62-1.51 35.62-2.10L35.62-2.10Q35.62-3.12 36.04-3.94Q36.45-4.76 37.17-5.23Q37.90-5.69 38.78-5.69L38.78-5.69Q39.60-5.69 39.99-5.33Q40.38-4.97 40.38-4.40L40.38-4.40Q40.38-3.67 39.90-3.19Q39.42-2.70 38.73-2.47Q38.03-2.24 37.35-2.22L37.35-2.22Q37.34-1.48 37.59-1.10Q37.83-0.72 38.27-0.72L38.27-0.72Q38.78-0.72 39.13-0.95Q39.47-1.18 39.73-1.53L39.73-1.53L40.04-1.04ZM38.43-5.01Q37.91-5.01 37.66-4.34Q37.40-3.67 37.35-2.81L37.35-2.81Q37.66-2.83 38.01-3.00Q38.36-3.18 38.60-3.51Q38.84-3.84 38.84-4.28L38.84-4.28Q38.84-5.01 38.43-5.01L38.43-5.01ZM45.50-1.10Q45.49-1.05 45.49-0.97L45.49-0.97Q45.49-0.73 45.69-0.73L45.69-0.73Q45.86-0.73 46.13-0.95L46.13-0.95L46.27-0.61Q46.13-0.39 45.77-0.14Q45.41 0.10 44.92 0.10L44.92 0.10Q44.56 0.10 44.34-0.05Q44.12-0.20 44.10-0.48L44.10-0.48L44.10-0.54Q43.48 0.10 42.61 0.10L42.61 0.10Q41.74 0.10 41.31-0.48Q40.88-1.06 40.88-1.96L40.88-1.96Q40.88-2.93 41.27-3.79Q41.65-4.64 42.41-5.16Q43.17-5.68 44.23-5.68L44.23-5.68Q44.49-5.68 44.82-5.62Q45.14-5.55 45.38-5.47L45.38-5.47L46.13-5.68L45.50-1.10ZM44.46-4.97Q44.24-5.01 44.12-5.01L44.12-5.01Q43.56-5.01 43.21-4.56Q42.85-4.11 42.70-3.43Q42.55-2.75 42.55-2.02L42.55-2.02Q42.55-1.42 42.75-1.08Q42.94-0.74 43.28-0.74L43.28-0.74Q43.60-0.74 43.92-1.04L43.92-1.04L44.46-4.97ZM48.69-1.89Q48.68-1.79 48.67-1.72Q48.66-1.65 48.65-1.60L48.65-1.60Q48.61-1.28 48.61-1.22L48.61-1.22Q48.61-0.82 48.98-0.82L48.98-0.82Q49.19-0.82 49.42-0.89Q49.64-0.95 49.81-1.10L49.81-1.10L49.93-0.72Q49.64-0.40 49.15-0.15Q48.65 0.10 47.96 0.10L47.96 0.10Q47.55 0.10 47.29-0.10Q47.02-0.31 47.02-0.78L47.02-0.78Q47.02-0.97 47.15-1.92L47.15-1.92L47.54-4.77L46.95-4.77L47.07-5.30L47.67-5.53Q47.99-5.80 48.45-6.91L48.45-6.91L49.36-6.91L49.19-5.55L50.31-5.55L50.20-4.77L49.08-4.77L48.69-1.89ZM52.55-4.46Q52.89-5.02 53.38-5.35Q53.86-5.68 54.43-5.68L54.43-5.68Q55.73-5.68 55.73-4.20L55.73-4.20Q55.73-3.82 55.48-2.47L55.48-2.47L55.41-2.06Q55.27-1.28 55.27-1L55.27-1Q55.27-0.73 55.46-0.73L55.46-0.73Q55.54-0.73 55.64-0.78Q55.73-0.82 55.90-0.95L55.90-0.95L56.04-0.61Q55.87-0.38 55.51-0.14Q55.15 0.10 54.60 0.10L54.60 0.10Q54.01 0.10 53.81-0.12Q53.61-0.34 53.61-0.72L53.61-0.72Q53.61-0.99 53.78-1.84L53.78-1.84L53.84-2.16Q54.06-3.41 54.06-3.97L54.06-3.97Q54.06-4.40 53.97-4.56Q53.88-4.72 53.67-4.72L53.67-4.72Q53.37-4.72 53.02-4.35Q52.67-3.98 52.42-3.45L52.42-3.45L52.00 0L50.41 0L51.28-7.24L50.66-7.45L50.74-7.85L52.72-8.06L52.97-7.92L52.55-4.46ZM61.09-1.04Q60.82-0.61 60.23-0.24Q59.64 0.14 58.81 0.14L58.81 0.14Q58.07 0.14 57.59-0.18Q57.11-0.49 56.89-1Q56.67-1.51 56.67-2.10L56.67-2.10Q56.67-3.12 57.09-3.94Q57.50-4.76 58.23-5.23Q58.95-5.69 59.83-5.69L59.83-5.69Q60.65-5.69 61.04-5.33Q61.43-4.97 61.43-4.40L61.43-4.40Q61.43-3.67 60.95-3.19Q60.47-2.70 59.78-2.47Q59.08-2.24 58.40-2.22L58.40-2.22Q58.39-1.48 58.64-1.10Q58.88-0.72 59.32-0.72L59.32-0.72Q59.83-0.72 60.18-0.95Q60.52-1.18 60.78-1.53L60.78-1.53L61.09-1.04ZM59.48-5.01Q58.96-5.01 58.71-4.34Q58.45-3.67 58.40-2.81L58.40-2.81Q58.71-2.83 59.06-3.00Q59.41-3.18 59.65-3.51Q59.89-3.84 59.89-4.28L59.89-4.28Q59.89-5.01 59.48-5.01L59.48-5.01ZM64.05-4.23Q64.23-4.84 64.66-5.26Q65.09-5.68 65.65-5.68L65.65-5.68Q65.87-5.68 65.99-5.58L65.99-5.58L65.66-3.87Q65.62-3.92 65.47-3.98Q65.32-4.04 65.11-4.04L65.11-4.04Q64.80-4.04 64.54-3.98Q64.27-3.91 64.13-3.79L64.13-3.79L63.61 0L62.07 0L62.70-4.71L62.18-4.99L62.26-5.42L63.86-5.68L64.12-5.51L64.07-4.59L64.05-4.23Z"/></svg>