<svg xmlns="http://www.w3.org/2000/svg" viewBox="-3.0240000000000005 40.239999999999995 863.6400000000003 60.768"><path d="M39 76Q40 71 44 61L44 61L50 47L72 47L71 50L65 51L64 95L70 96L70 100L45 100L45 96L52 95L54 65L54 51L49 64L34 100L28 101L23 64L21 51L18 65L11 95L19 96L18 100L-3 100L-3 96L3 95L15 51L8 50L8 47L32 47L36 76L37 82L39 76ZM105 93Q103 96 99 98Q94 101 88 101L88 101Q83 101 80 99Q76 96 75 93Q73 89 73 85L73 85Q73 78 76 72Q79 66 84 62Q89 59 96 59L96 59Q102 59 105 62Q107 64 107 68L107 68Q107 74 104 77Q100 81 95 82Q90 84 86 84L86 84Q85 89 87 92Q89 95 92 95L92 95Q96 95 98 93Q101 92 103 89L103 89L105 93ZM93 64Q90 64 88 69Q86 74 86 80L86 80Q88 80 90 78Q93 77 95 75Q96 72 96 69L96 69Q96 64 93 64L93 64ZM126 70Q128 65 131 62Q134 59 138 59L138 59Q139 59 140 60L140 60L138 72Q138 72 136 71Q135 71 134 71L134 71Q132 71 130 71Q128 72 127 73L127 73L123 100L112 100L116 66L113 64L113 61L125 59L127 60L126 67L126 70ZM156 70Q157 65 161 62Q164 59 168 59L168 59Q169 59 170 60L170 60L168 72Q167 72 166 71Q165 71 164 71L164 71Q162 71 160 71Q158 72 157 73L157 73L153 100L142 100L146 66L143 64L143 61L155 59L157 60L156 67L156 70ZM184 92Q184 92 184 93L184 93Q184 95 186 95L186 95Q186 95 187 94Q188 94 189 93L189 93L190 96Q189 97 186 99Q184 101 180 101L180 101Q176 101 174 99Q173 98 173 96L173 96Q173 96 173 95L173 95L175 81L177 66L173 64L173 61L187 59L189 60L184 92ZM184 53Q182 53 181 51Q179 49 179 47L179 47Q179 44 181 42Q183 40 186 40L186 40Q189 40 190 42Q192 44 192 46L192 46Q192 49 190 51Q188 53 184 53L184 53ZM197 67Q196 66 196 66Q196 65 195 65L195 65Q195 65 194 66Q194 66 193 66L193 66L192 63Q193 63 194 62Q195 61 197 60Q199 59 201 59L201 59Q205 59 206 60Q208 62 208 64L208 64L211 85L212 92L215 82L222 59L232 59L236 86L236 92L238 89Q241 84 243 80Q244 76 244 72L244 72Q244 70 243 68L243 68Q243 66 243 64L243 64Q243 62 244 61Q246 59 249 59L249 59Q252 59 253 61Q255 63 255 67L255 67Q255 70 252 76Q249 81 246 86Q242 92 239 95L239 95L235 100L227 101L225 88L224 78L223 73L222 78L219 86L213 100L204 101L201 88L197 67ZM288 93Q286 96 282 98Q278 101 272 101L272 101Q267 101 263 99Q260 96 258 93Q256 89 256 85L256 85Q256 78 259 72Q262 66 268 62Q273 59 279 59L279 59Q285 59 288 62Q291 64 291 68L291 68Q291 74 287 77Q284 81 279 82Q274 84 269 84L269 84Q269 89 271 92Q272 95 276 95L276 95Q279 95 282 93Q284 92 286 89L286 89L288 93ZM277 64Q273 64 271 69Q269 74 269 80L269 80Q271 80 274 78Q276 77 278 75Q280 72 280 69L280 69Q280 64 277 64L277 64ZM328 92Q328 92 328 93L328 93Q328 95 329 95L329 95Q330 95 332 93L332 93L333 96Q332 97 330 99Q327 101 323 101L323 101Q321 101 319 100Q318 99 318 97L318 97L318 96Q313 101 307 101L307 101Q301 101 297 97Q294 92 294 86L294 86Q294 79 297 73Q300 67 305 63Q311 59 318 59L318 59Q320 59 323 60Q325 60 327 61L327 61L332 59L328 92ZM320 64Q319 64 318 64L318 64Q314 64 311 67Q309 70 307 75Q306 80 306 85L306 85Q306 90 308 92Q309 95 312 95L312 95Q314 95 316 93L316 93L320 64ZM351 86Q350 87 350 88Q350 88 350 88L350 88Q350 91 350 91L350 91Q350 94 353 94L353 94Q354 94 356 94Q357 93 359 92L359 92L359 95Q357 97 354 99Q350 101 345 101L345 101Q342 101 340 99Q339 98 339 94L339 94Q339 93 339 86L339 86L342 66L338 66L339 62L343 60Q346 58 349 50L349 50L355 50L354 60L362 60L361 66L353 66L351 86ZM378 68Q381 64 384 61Q388 59 392 59L392 59Q401 59 401 70L401 70Q401 72 399 82L399 82L399 85Q398 91 398 93L398 93Q398 95 399 95L399 95Q400 95 401 94Q401 94 402 93L402 93L403 96Q402 97 400 99Q397 101 393 101L393 101Q389 101 387 99Q386 98 386 95L386 95Q386 93 387 87L387 87L388 84Q389 75 389 71L389 71Q389 68 389 67Q388 66 386 66L386 66Q384 66 382 69Q379 71 377 75L377 75L374 100L363 100L369 48L365 46L365 43L380 42L381 43L378 68ZM440 93Q438 96 434 98Q429 101 423 101L423 101Q418 101 415 99Q411 96 410 93Q408 89 408 85L408 85Q408 78 411 72Q414 66 419 62Q424 59 431 59L431 59Q437 59 439 62Q442 64 442 68L442 68Q442 74 439 77Q435 81 430 82Q425 84 420 84L420 84Q420 89 422 92Q424 95 427 95L427 95Q431 95 433 93Q436 92 438 89L438 89L440 93ZM428 64Q425 64 423 69Q421 74 420 80L420 80Q423 80 425 78Q428 77 429 75Q431 72 431 69L431 69Q431 64 428 64L428 64ZM461 70Q462 65 466 62Q469 59 473 59L473 59Q474 59 475 60L475 60L473 72Q472 72 471 71Q470 71 469 71L469 71Q467 71 465 71Q463 72 462 73L462 73L458 100L447 100L451 66L448 64L448 61L460 59L462 60L461 67L461 70ZM509 63Q513 59 519 59L519 59Q525 59 528 63Q531 67 531 74L531 74Q531 82 528 88Q525 94 519 97Q514 101 507 101L507 101Q503 101 498 99L498 99L493 101L500 48L496 46L497 43L509 42L511 43L509 63ZM505 95Q506 96 508 96L508 96Q513 96 516 90Q519 83 519 74L519 74Q519 70 518 68Q516 65 514 65L514 65Q511 65 508 68L508 68L505 95ZM548 92Q548 92 548 93L548 93Q548 95 549 95L549 95Q550 95 550 94Q551 94 552 93L552 93L553 96Q550 101 544 101L544 101Q541 101 538 100Q536 98 536 96L536 96Q536 96 536 93L536 93L543 48L538 46L539 43L553 42L554 43L548 92ZM591 92Q591 92 591 93L591 93Q591 95 592 95L592 95Q593 95 595 93L595 93L596 96Q595 97 593 99Q590 101 587 101L587 101Q584 101 582 100Q581 99 581 97L581 97L581 96Q576 101 570 101L570 101Q564 101 561 97Q557 92 557 86L557 86Q557 79 560 73Q563 67 569 63Q574 59 582 59L582 59Q583 59 586 60Q588 60 590 61L590 61L595 59L591 92ZM583 64Q582 64 581 64L581 64Q577 64 574 67Q572 70 571 75Q570 80 570 85L570 85Q570 90 571 92Q572 95 575 95L575 95Q577 95 579 93L579 93L583 64ZM626 72Q624 68 623 67Q621 65 620 65L620 65Q618 65 616 67Q614 69 613 74Q612 78 612 83L612 83Q612 89 613 92Q615 94 618 94L618 94Q621 94 623 93Q626 92 627 90L627 90L629 93Q628 96 623 98Q619 101 614 101L614 101Q607 101 604 96Q600 92 600 84L600 84Q600 78 603 72Q605 66 610 63Q615 59 623 59L623 59Q625 59 628 59Q630 60 632 60L632 60L629 72L626 72ZM651 42L653 43L645 100L634 100L641 48L636 46L637 43L651 42ZM648 79Q652 77 654 75Q656 73 659 70L659 70Q661 67 661 64L661 64Q661 61 663 60Q664 59 667 59L667 59Q669 59 670 60Q671 62 671 64L671 64Q671 67 669 69L669 69Q666 74 658 77L658 77L665 90Q666 92 667 93Q668 94 669 94L669 94Q669 94 671 93Q672 93 673 92L673 92L674 95Q672 97 669 99Q666 101 662 101L662 101Q659 101 657 100Q656 98 655 96L655 96L648 79ZM705 92Q705 92 705 93L705 93Q705 95 706 95L706 95Q707 95 708 94Q708 94 710 93L710 93L710 96Q709 97 707 99Q704 101 700 101L700 101Q697 101 695 99Q693 98 693 96L693 96Q693 96 693 95L693 95L695 81L697 66L693 64L694 61L708 59L710 60L705 92ZM705 53Q703 53 701 51Q699 49 699 47L699 47Q699 44 701 42Q704 40 707 40L707 40Q709 40 711 42Q712 44 712 46L712 46Q712 49 710 51Q709 53 705 53L705 53ZM729 86Q729 87 728 88Q728 88 728 88L728 88Q728 91 728 91L728 91Q728 94 731 94L731 94Q732 94 734 94Q735 93 737 92L737 92L738 95Q735 97 732 99Q728 101 723 101L723 101Q720 101 719 99Q717 98 717 94L717 94Q717 93 718 86L718 86L720 66L716 66L717 62L721 60Q724 58 727 50L727 50L733 50L732 60L740 60L740 66L731 66L729 86ZM774 92Q774 92 774 93L774 93Q774 95 775 95L775 95Q776 95 778 93L778 93L779 96Q778 97 776 99Q773 101 770 101L770 101Q767 101 765 100Q764 99 764 97L764 97L764 96Q759 101 753 101L753 101Q747 101 744 97Q741 92 741 86L741 86Q741 79 743 73Q746 67 752 63Q757 59 765 59L765 59Q767 59 769 60Q771 60 773 61L773 61L778 59L774 92ZM766 64Q765 64 764 64L764 64Q760 64 757 67Q755 70 754 75Q753 80 753 85L753 85Q753 90 754 92Q755 95 758 95L758 95Q760 95 762 93L762 93L766 64ZM796 92Q796 92 796 93L796 93Q796 95 797 95L797 95Q798 95 798 94Q799 94 800 93L800 93L801 96Q798 101 792 101L792 101Q788 101 786 100Q784 98 784 96L784 96Q784 96 784 93L784 93L790 48L786 46L787 43L801 42L802 43L796 92ZM819 92Q819 92 819 93L819 93Q819 95 820 95L820 95Q821 95 822 94Q822 94 824 93L824 93L824 96Q823 97 821 99Q818 101 814 101L814 101Q811 101 809 99Q807 98 807 96L807 96Q807 96 807 95L807 95L809 81L811 66L807 64L808 61L822 59L824 60L819 92ZM819 53Q817 53 815 51Q813 49 813 47L813 47Q813 44 815 42Q817 40 821 40L821 40Q823 40 825 42Q826 44 826 46L826 46Q826 49 824 51Q823 53 819 53L819 53ZM855 72Q853 68 852 67Q850 65 849 65L849 65Q847 65 845 67Q843 69 842 74Q841 78 841 83L841 83Q841 89 842 92Q844 94 847 94L847 94Q850 94 852 93Q854 92 856 90L856 90L858 93Q856 96 852 98Q848 101 843 101L843 101Q836 101 833 96Q829 92 829 84L829 84Q829 78 832 72Q834 66 839 63Q844 59 852 59L852 59Q854 59 856 59Q859 60 861 60L861 60L858 72L855 72Z"/></svg>