<svg xmlns="http://www.w3.org/2000/svg" viewBox="4.7109375 41.5 910.23046875 76.67578125"><path d="M10.13 46.49L21.20 46.49L31.11 77.04L33.89 88.40L36.53 77.04L46.02 46.49L56.53 46.49L62.93 100L55.05 100L51.79 66.74L50.77 52.33L47.18 66.74L36 100.53L31.78 100.53L20.11 66.74L16.17 52.36L15.22 66.74L12.30 100L4.71 100.04L10.13 46.49ZM103.68 74.48Q103.68 77.32 103.61 78.89Q103.54 80.45 103.29 81.65L103.29 81.65L78.57 81.65Q78.61 81.89 78.61 82.35L78.61 82.35Q79.21 94.73 90.84 94.73L90.84 94.73Q92.95 94.73 96.19 94.06Q99.42 93.39 100.83 92.55L100.83 92.55L102.30 96.98Q100.37 98.56 96.43 99.56Q92.50 100.56 88.77 100.56L88.77 100.56Q83.11 100.56 79.14 98.12Q75.16 95.68 73.09 91.04Q71.02 86.39 71.02 79.89L71.02 79.89Q71.02 73.98 73.07 69.38Q75.13 64.77 79.15 62.12Q83.18 59.46 88.91 59.36L88.91 59.36Q92.95 59.29 96.26 61.01Q99.56 62.73 101.55 66.18Q103.54 69.63 103.68 74.48L103.68 74.48ZM96.43 76.52Q96.50 75.39 96.50 74.86L96.50 74.86Q96.50 70.40 94.69 67.62Q92.88 64.84 88.49 64.84L88.49 64.84Q84.59 64.84 82.00 67.60Q79.42 70.36 78.79 76.52L78.79 76.52L96.43 76.52ZM130.85 59.32Q133.66 59.32 134.75 59.82L134.75 59.82L134.75 67.06Q134.02 66.64 132.84 66.37Q131.66 66.11 129.48 66.11L129.48 66.11Q126.81 66.11 124.54 67.08Q122.27 68.04 120.73 69.41L120.73 69.41L120.73 100L112.99 100L112.99 59.99L119.50 59.99L120.02 64.42Q120.80 63.37 122.54 62.17Q124.28 60.98 126.51 60.15Q128.74 59.32 130.85 59.32L130.85 59.32ZM159.64 59.32Q162.46 59.32 163.55 59.82L163.55 59.82L163.55 67.06Q162.81 66.64 161.63 66.37Q160.45 66.11 158.27 66.11L158.27 66.11Q155.60 66.11 153.33 67.08Q151.07 68.04 149.52 69.41L149.52 69.41L149.52 100L141.79 100L141.79 59.99L148.29 59.99L148.82 64.42Q149.59 63.37 151.33 62.17Q153.07 60.98 155.30 60.15Q157.54 59.32 159.64 59.32L159.64 59.32ZM171.46 59.99L179.19 59.99L179.19 100L171.46 100L171.46 59.99ZM169.98 47.90Q169.98 46.42 170.81 45.16Q171.63 43.89 172.97 43.15Q174.30 42.41 175.68 42.41L175.68 42.41Q178.07 42.41 179.35 43.75Q180.63 45.09 180.63 47.16L180.63 47.16Q180.63 48.71 179.82 49.97Q179.02 51.24 177.71 51.94Q176.41 52.64 174.94 52.64L174.94 52.64Q173.60 52.64 172.48 52.06Q171.35 51.48 170.67 50.39Q169.98 49.30 169.98 47.90L169.98 47.90ZM235.05 59.92L242.61 59.92L230.38 100.56L223.24 100.56L216.07 74.37L214.77 67.97L213.36 74.37L206.30 100.56L198.95 100.56L186.71 59.92L194.45 59.92L200.92 83.97L202.68 91.49L204.29 84.00L210.97 59.92L218.67 59.92L225.32 83.97L227.04 91.63L228.80 84.21L235.05 59.92ZM279.42 74.48Q279.42 77.32 279.35 78.89Q279.28 80.45 279.04 81.65L279.04 81.65L254.32 81.65Q254.36 81.89 254.36 82.35L254.36 82.35Q254.95 94.73 266.59 94.73L266.59 94.73Q268.70 94.73 271.93 94.06Q275.17 93.39 276.57 92.55L276.57 92.55L278.05 96.98Q276.12 98.56 272.18 99.56Q268.24 100.56 264.52 100.56L264.52 100.56Q258.86 100.56 254.88 98.12Q250.91 95.68 248.84 91.04Q246.76 86.39 246.76 79.89L246.76 79.89Q246.76 73.98 248.82 69.38Q250.88 64.77 254.90 62.12Q258.93 59.46 264.66 59.36L264.66 59.36Q268.70 59.29 272.00 61.01Q275.31 62.73 277.29 66.18Q279.28 69.63 279.42 74.48L279.42 74.48ZM272.18 76.52Q272.25 75.39 272.25 74.86L272.25 74.86Q272.25 70.40 270.44 67.62Q268.63 64.84 264.23 64.84L264.23 64.84Q260.33 64.84 257.75 67.60Q255.16 70.36 254.53 76.52L254.53 76.52L272.18 76.52ZM302.66 59.32Q307.30 59.32 310.39 60.38Q313.49 61.43 315.21 64.23Q316.93 67.02 316.93 72.09L316.93 72.09L316.93 100.56L313.77 100.56Q312.19 100.56 311.38 100.35Q310.57 100.14 310.11 99.37Q309.66 98.59 309.66 96.91L309.66 96.91L309.66 96.63Q307.90 98.24 304.82 99.40Q301.75 100.56 298.41 100.56L298.41 100.56Q294.86 100.56 292.06 99.19Q289.27 97.82 287.70 95.27Q286.14 92.72 286.14 89.28L286.14 89.28Q286.14 85.48 288.19 82.70Q290.25 79.93 293.94 78.41L293.94 78.41Q297.21 77.11 301.34 76.46Q305.47 75.81 309.20 75.81L309.20 75.81L309.20 71.77Q309.20 68.96 308.30 67.55Q307.41 66.14 305.61 65.65Q303.82 65.16 300.66 65.16L300.66 65.16Q298.97 65.16 296.77 65.62Q294.57 66.07 292.66 66.76Q290.74 67.45 289.83 68.08L289.83 68.08L287.93 63.02Q288.84 62.45 291.25 61.57Q293.66 60.70 296.74 60.01Q299.81 59.32 302.66 59.32L302.66 59.32ZM300.69 94.80Q302.34 94.80 304.17 94.30Q306 93.81 307.39 93.13Q308.78 92.44 309.20 91.95L309.20 91.95L309.20 80.73Q306.63 80.73 303.42 81.23Q300.20 81.72 298.23 82.67L298.23 82.67Q296.09 83.69 294.93 85.06Q293.77 86.43 293.77 88.61L293.77 88.61Q293.77 94.80 300.69 94.80L300.69 94.80ZM330.61 90.40L330.61 65.76L325.41 65.76L325.41 61.57L326.67 61.22Q328.29 60.77 329.06 60.47Q329.84 60.17 330.42 59.62Q331.00 59.08 331.35 58.13L331.35 58.13Q331.88 56.79 332.89 53.31L332.89 53.31L333.67 50.78L338.31 50.78L338.31 59.92L349.63 59.92L349.63 65.76L338.31 65.76L338.31 86.04Q338.31 90.05 338.63 91.72Q338.94 93.39 339.80 93.88Q340.66 94.38 342.74 94.38L342.74 94.38Q344.25 94.38 346.41 93.88Q348.57 93.39 349.59 92.86L349.59 92.86L350.93 97.29Q349.21 98.56 345.99 99.56Q342.77 100.56 339.86 100.56L339.86 100.56Q335.46 100.56 333.04 98.37Q330.61 96.17 330.61 90.40L330.61 90.40ZM380.04 59.32Q384.22 59.32 386.81 60.99Q389.39 62.66 390.60 66.23Q391.82 69.80 391.82 75.57L391.82 75.57L391.82 100L384.08 100L384.08 75.00Q384.08 71.59 383.40 69.55Q382.71 67.52 381.01 66.58Q379.30 65.65 376.28 65.79L376.28 65.79Q374.17 65.86 371.43 66.83Q368.68 67.80 366.40 69.45L366.40 69.45L366.40 100L358.66 100L358.66 41.50L366.40 41.50L366.40 58.20L366.05 63.86Q368.65 62.00 372.53 60.66Q376.42 59.32 380.04 59.32L380.04 59.32ZM433.86 74.48Q433.86 77.32 433.79 78.89Q433.72 80.45 433.48 81.65L433.48 81.65L408.76 81.65Q408.80 81.89 408.80 82.35L408.80 82.35Q409.39 94.73 421.03 94.73L421.03 94.73Q423.14 94.73 426.38 94.06Q429.61 93.39 431.02 92.55L431.02 92.55L432.49 96.98Q430.56 98.56 426.62 99.56Q422.68 100.56 418.96 100.56L418.96 100.56Q413.30 100.56 409.32 98.12Q405.35 95.68 403.28 91.04Q401.20 86.39 401.20 79.89L401.20 79.89Q401.20 73.98 403.26 69.38Q405.32 64.77 409.34 62.12Q413.37 59.46 419.10 59.36L419.10 59.36Q423.14 59.29 426.45 61.01Q429.75 62.73 431.74 66.18Q433.72 69.63 433.86 74.48L433.86 74.48ZM426.62 76.52Q426.69 75.39 426.69 74.86L426.69 74.86Q426.69 70.40 424.88 67.62Q423.07 64.84 418.68 64.84L418.68 64.84Q414.77 64.84 412.19 67.60Q409.61 70.36 408.97 76.52L408.97 76.52L426.62 76.52ZM461.04 59.32Q463.85 59.32 464.94 59.82L464.94 59.82L464.94 67.06Q464.20 66.64 463.03 66.37Q461.85 66.11 459.67 66.11L459.67 66.11Q457.00 66.11 454.73 67.08Q452.46 68.04 450.91 69.41L450.91 69.41L450.91 100L443.18 100L443.18 59.99L449.68 59.99L450.21 64.42Q450.98 63.37 452.72 62.17Q454.46 60.98 456.70 60.15Q458.93 59.32 461.04 59.32L461.04 59.32ZM493.59 97.50L495.46 91.07Q497.60 92.41 501.12 93.37Q504.63 94.34 508.08 94.34L508.08 94.34Q513.28 94.34 516.01 92.55Q518.73 90.75 518.73 86.92L518.73 86.92Q518.73 84.39 517.41 82.60Q516.09 80.80 513.77 79.40Q511.45 77.99 506.88 75.78L506.88 75.78Q501.01 72.93 497.25 68.96Q493.49 64.98 493.49 59.68L493.49 59.68Q493.49 54.82 496.02 51.75Q498.55 48.67 502.56 47.30Q506.57 45.93 511.28 45.93L511.28 45.93Q515.67 45.93 518.84 46.76Q522 47.58 523.72 48.71L523.72 48.71L522.14 54.89Q519.86 53.52 517.46 52.80Q515.07 52.08 511.17 52.08L511.17 52.08Q508.50 52.08 506.18 52.79Q503.86 53.49 502.42 54.96Q500.98 56.44 500.98 58.62L500.98 58.62Q500.98 61.19 502.00 62.89Q503.02 64.60 505.14 66.02Q507.27 67.45 511.63 69.70L511.63 69.70Q516.13 72.02 519.17 74.07Q522.21 76.13 524.32 79.12Q526.43 82.11 526.43 86.01L526.43 86.01Q526.43 90.82 524.20 94.09Q521.96 97.36 517.96 98.96Q513.95 100.56 508.61 100.56L508.61 100.56Q505.30 100.56 502.22 100.07Q499.15 99.58 496.88 98.88Q494.61 98.17 493.59 97.50L493.59 97.50ZM548.72 59.32Q553.36 59.32 556.45 60.38Q559.55 61.43 561.27 64.23Q562.99 67.02 562.99 72.09L562.99 72.09L562.99 100.56L559.83 100.56Q558.25 100.56 557.44 100.35Q556.63 100.14 556.17 99.37Q555.71 98.59 555.71 96.91L555.71 96.91L555.71 96.63Q553.96 98.24 550.88 99.40Q547.80 100.56 544.46 100.56L544.46 100.56Q540.91 100.56 538.12 99.19Q535.32 97.82 533.76 95.27Q532.20 92.72 532.20 89.28L532.20 89.28Q532.20 85.48 534.25 82.70Q536.31 79.93 540 78.41L540 78.41Q543.27 77.11 547.40 76.46Q551.53 75.81 555.26 75.81L555.26 75.81L555.26 71.77Q555.26 68.96 554.36 67.55Q553.46 66.14 551.67 65.65Q549.88 65.16 546.71 65.16L546.71 65.16Q545.03 65.16 542.83 65.62Q540.63 66.07 538.72 66.76Q536.80 67.45 535.89 68.08L535.89 68.08L533.99 63.02Q534.90 62.45 537.31 61.57Q539.72 60.70 542.79 60.01Q545.87 59.32 548.72 59.32L548.72 59.32ZM546.75 94.80Q548.40 94.80 550.23 94.30Q552.06 93.81 553.45 93.13Q554.84 92.44 555.26 91.95L555.26 91.95L555.26 80.73Q552.69 80.73 549.47 81.23Q546.26 81.72 544.29 82.67L544.29 82.67Q542.14 83.69 540.98 85.06Q539.82 86.43 539.82 88.61L539.82 88.61Q539.82 94.80 546.75 94.80L546.75 94.80ZM574.84 59.99L581.73 59.99L581.77 64.21Q584.51 62.35 588.57 60.84Q592.63 59.32 596.32 59.32L596.32 59.32Q600.47 59.32 602.93 60.87Q605.39 62.42 606.52 65.83Q607.64 69.24 607.64 75.04L607.64 75.04L607.64 100L599.91 100L599.91 75.00Q599.91 71.63 599.38 69.64Q598.85 67.66 597.45 66.67Q596.04 65.69 593.37 65.69L593.37 65.69Q592.73 65.69 592.42 65.72L592.42 65.72Q590.31 65.79 587.58 66.79Q584.86 67.80 582.57 69.45L582.57 69.45L582.57 100L574.84 100L574.84 59.99ZM618.71 91.95Q619.38 92.41 621.18 93.09Q622.97 93.78 625.36 94.30Q627.75 94.83 630.11 94.83L630.11 94.83Q633.55 94.83 635.40 93.53Q637.24 92.23 637.24 89.91L637.24 89.91Q637.24 87.70 635.15 86.11Q633.06 84.53 628.98 82.81L628.98 82.81Q623.67 80.56 620.74 77.54Q617.80 74.51 617.80 69.91L617.80 69.91Q617.80 66.50 619.72 64.12Q621.63 61.75 624.90 60.55Q628.17 59.36 632.29 59.36L632.29 59.36Q635.52 59.36 638.37 60.06Q641.21 60.77 642.45 61.43L642.45 61.43L641.18 67.27Q640.20 66.43 637.70 65.74Q635.20 65.05 632.53 65.05L632.53 65.05Q628.84 65.05 626.89 66.25Q624.94 67.45 624.94 69.52L624.94 69.52Q624.94 71.28 625.83 72.54Q626.73 73.81 628.38 74.76Q630.04 75.71 632.71 76.80L632.71 76.80Q637.84 78.87 641.14 81.81Q644.45 84.74 644.45 89.35L644.45 89.35Q644.45 92.93 642.74 95.45Q641.04 97.96 637.86 99.26Q634.68 100.56 630.32 100.56L630.32 100.56Q626.41 100.56 622.74 99.68Q619.07 98.80 617.55 97.71L617.55 97.71L618.71 91.95ZM694.76 59.32Q697.57 59.32 698.66 59.82L698.66 59.82L698.66 67.06Q697.92 66.64 696.74 66.37Q695.57 66.11 693.39 66.11L693.39 66.11Q690.71 66.11 688.45 67.08Q686.18 68.04 684.63 69.41L684.63 69.41L684.63 100L676.90 100L676.90 59.99L683.40 59.99L683.93 64.42Q684.70 63.37 686.44 62.17Q688.18 60.98 690.42 60.15Q692.65 59.32 694.76 59.32L694.76 59.32ZM735.86 74.48Q735.86 77.32 735.79 78.89Q735.71 80.45 735.47 81.65L735.47 81.65L710.75 81.65Q710.79 81.89 710.79 82.35L710.79 82.35Q711.39 94.73 723.02 94.73L723.02 94.73Q725.13 94.73 728.37 94.06Q731.60 93.39 733.01 92.55L733.01 92.55L734.48 96.98Q732.55 98.56 728.61 99.56Q724.68 100.56 720.95 100.56L720.95 100.56Q715.29 100.56 711.32 98.12Q707.34 95.68 705.27 91.04Q703.20 86.39 703.20 79.89L703.20 79.89Q703.20 73.98 705.25 69.38Q707.31 64.77 711.33 62.12Q715.36 59.46 721.09 59.36L721.09 59.36Q725.13 59.29 728.44 61.01Q731.74 62.73 733.73 66.18Q735.71 69.63 735.86 74.48L735.86 74.48ZM728.61 76.52Q728.68 75.39 728.68 74.86L728.68 74.86Q728.68 70.40 726.87 67.62Q725.06 64.84 720.67 64.84L720.67 64.84Q716.77 64.84 714.18 67.60Q711.60 70.36 710.96 76.52L710.96 76.52L728.61 76.52ZM781.00 59.64L781.00 65.79L773.65 65.79Q775.44 68.82 775.44 72.75L775.44 72.75Q775.44 77.08 773.33 80.19Q771.22 83.30 767.57 84.90Q763.91 86.50 759.30 86.50L759.30 86.50Q756.91 86.50 754.95 86.04L754.95 86.04Q753.96 86.71 753.33 87.80Q752.70 88.89 752.70 90.05L752.70 90.05Q752.70 92.27 753.70 93.09Q754.70 93.92 757.27 93.92L757.27 93.92L764.54 93.92Q772.88 93.92 776.09 97.03Q779.31 100.14 779.31 105.10L779.31 105.10Q779.31 109 776.71 111.97Q774.11 114.94 769.69 116.56Q765.28 118.18 759.94 118.18L759.94 118.18Q752.03 118.18 747.58 115.22Q743.13 112.27 743.13 106.36L743.13 106.36Q743.13 103.62 744.79 101.51Q746.44 99.40 748.72 98.14L748.72 98.14Q745.63 96.34 745.63 92.34L745.63 92.34Q745.63 90.30 746.95 88.13Q748.27 85.97 750.55 84.43L750.55 84.43Q747.32 82.70 745.47 79.79Q743.63 76.87 743.63 73.21L743.63 73.21Q743.63 68.61 745.73 65.49Q747.84 62.38 751.52 60.87Q755.19 59.36 759.90 59.36L759.90 59.36Q765.63 59.36 769.61 61.79L769.61 61.79Q770.94 60.87 772.98 60.26Q775.02 59.64 777.09 59.64L777.09 59.64L781.00 59.64ZM759.48 81.33Q763.56 81.33 765.65 79.47Q767.74 77.61 767.74 73.04L767.74 73.04Q767.74 68.89 765.77 66.74Q763.80 64.60 759.83 64.60L759.83 64.60Q755.96 64.60 753.64 66.41Q751.32 68.22 751.32 72.86L751.32 72.86Q751.32 76.55 753.35 78.94Q755.37 81.33 759.48 81.33L759.48 81.33ZM758.43 100Q755.23 100 753.22 99.75L753.22 99.75Q752.03 100.81 751.34 102.11Q750.66 103.41 750.66 105.45L750.66 105.45Q750.66 109.21 752.89 111.04Q755.12 112.87 760.11 112.87L760.11 112.87Q763.31 112.87 766.00 112.16Q768.69 111.46 770.31 110.09Q771.93 108.72 771.93 106.79L771.93 106.79Q771.93 104.46 771.10 103.01Q770.27 101.55 768.11 100.77Q765.95 100 762.01 100L762.01 100L758.43 100ZM812.04 59.92L819.77 59.92L819.77 100.56L816.79 100.56Q815.41 100.56 814.61 100.35Q813.80 100.14 813.36 99.47Q812.92 98.80 812.92 97.47L812.92 97.47L812.92 96.48Q810.18 98.14 806.61 99.35Q803.04 100.56 799.95 100.56L799.95 100.56Q795.06 100.56 792.46 98.49Q789.86 96.41 788.94 92.74Q788.03 89.07 788.03 83.34L788.03 83.34L788.03 59.92L795.76 59.92L795.76 83.30Q795.76 88.19 796.48 90.49Q797.20 92.79 798.70 93.50Q800.19 94.20 803.11 94.20L803.11 94.20Q805.22 94.20 807.87 93.29Q810.53 92.37 812.04 91.39L812.04 91.39L812.04 59.92ZM832.89 41.50L840.62 41.50L840.62 100L832.89 100L832.89 41.50ZM867.34 59.32Q871.98 59.32 875.07 60.38Q878.17 61.43 879.89 64.23Q881.61 67.02 881.61 72.09L881.61 72.09L881.61 100.56L878.45 100.56Q876.87 100.56 876.06 100.35Q875.25 100.14 874.79 99.37Q874.34 98.59 874.34 96.91L874.34 96.91L874.34 96.63Q872.58 98.24 869.50 99.40Q866.43 100.56 863.09 100.56L863.09 100.56Q859.54 100.56 856.74 99.19Q853.95 97.82 852.38 95.27Q850.82 92.72 850.82 89.28L850.82 89.28Q850.82 85.48 852.87 82.70Q854.93 79.93 858.62 78.41L858.62 78.41Q861.89 77.11 866.02 76.46Q870.15 75.81 873.88 75.81L873.88 75.81L873.88 71.77Q873.88 68.96 872.98 67.55Q872.09 66.14 870.29 65.65Q868.50 65.16 865.34 65.16L865.34 65.16Q863.65 65.16 861.45 65.62Q859.25 66.07 857.34 66.76Q855.42 67.45 854.51 68.08L854.51 68.08L852.61 63.02Q853.52 62.45 855.93 61.57Q858.34 60.70 861.42 60.01Q864.49 59.32 867.34 59.32L867.34 59.32ZM865.37 94.80Q867.02 94.80 868.85 94.30Q870.68 93.81 872.07 93.13Q873.46 92.44 873.88 91.95L873.88 91.95L873.88 80.73Q871.31 80.73 868.10 81.23Q864.88 81.72 862.91 82.67L862.91 82.67Q860.77 83.69 859.61 85.06Q858.45 86.43 858.45 88.61L858.45 88.61Q858.45 94.80 865.37 94.80L865.37 94.80ZM911.04 59.32Q913.85 59.32 914.94 59.82L914.94 59.82L914.94 67.06Q914.20 66.64 913.03 66.37Q911.85 66.11 909.67 66.11L909.67 66.11Q907.00 66.11 904.73 67.08Q902.46 68.04 900.91 69.41L900.91 69.41L900.91 100L893.18 100L893.18 59.99L899.68 59.99L900.21 64.42Q900.98 63.37 902.72 62.17Q904.46 60.98 906.70 60.15Q908.93 59.32 911.04 59.32L911.04 59.32Z"/></svg>