<svg xmlns="http://www.w3.org/2000/svg" viewBox="0.0439453125 -8.14453125 88.2861328125 8.2373046875"><path d="M1.99-7.47L3.87-7.47L4.43-2.31L4.48-1.35L4.72-2.31L6.63-7.47L8.59-7.47L8.45 0L7.09 0L7.43-5.27L7.56-6.78L7.05-5.39L4.91 0.01L3.62 0.09L2.93-5.33L2.84-6.78L2.57-5.30L1.38 0L0.04 0L1.99-7.47ZM12.65-5.64Q13.40-5.64 13.78-5.31Q14.17-4.97 14.17-4.39L14.17-4.39Q14.17-3.35 13.25-2.78Q12.33-2.20 11.04-1.97L11.04-1.97Q11.01-0.89 11.90-0.89L11.90-0.89Q12.30-0.89 12.75-1.12Q13.19-1.34 13.51-1.67L13.51-1.67L13.86-0.99Q13.70-0.76 13.38-0.51Q13.06-0.26 12.60-0.09Q12.15 0.08 11.64 0.08L11.64 0.08Q10.96 0.08 10.50-0.22Q10.05-0.52 9.83-1.02Q9.62-1.51 9.62-2.10L9.62-2.10Q9.62-3.09 10.01-3.90Q10.41-4.71 11.10-5.18Q11.79-5.64 12.65-5.64L12.65-5.64ZM12.85-4.27Q12.85-4.56 12.72-4.68Q12.59-4.80 12.35-4.80L12.35-4.80Q11.97-4.80 11.69-4.47Q11.40-4.14 11.24-3.65Q11.07-3.17 11.04-2.75L11.04-2.75Q11.40-2.77 11.83-2.97Q12.26-3.17 12.55-3.52Q12.85-3.86 12.85-4.27L12.85-4.27ZM18.40-5.64Q18.64-5.64 18.72-5.58L18.72-5.58L18.46-4.19Q18.40-4.24 18.27-4.26Q18.13-4.29 17.97-4.29L17.97-4.29Q17.64-4.29 17.29-4.04Q16.94-3.80 16.67-3.36L16.67-3.36L16.21 0L14.86 0L15.63-5.57L16.92-5.57L16.83-4.51Q16.96-4.79 17.19-5.04Q17.41-5.30 17.72-5.47Q18.04-5.64 18.40-5.64L18.40-5.64ZM22.53-5.64Q22.77-5.64 22.85-5.58L22.85-5.58L22.59-4.19Q22.53-4.24 22.40-4.26Q22.27-4.29 22.10-4.29L22.10-4.29Q21.77-4.29 21.42-4.04Q21.07-3.80 20.81-3.36L20.81-3.36L20.34 0L18.99 0L19.76-5.57L21.05-5.57L20.96-4.51Q21.09-4.79 21.32-5.04Q21.54-5.30 21.86-5.47Q22.17-5.64 22.53-5.64L22.53-5.64ZM23.99-5.57L25.35-5.57L24.58 0L23.23 0L23.99-5.57ZM24.19-7.28Q24.19-7.51 24.31-7.71Q24.42-7.91 24.62-8.02Q24.82-8.14 25.06-8.14L25.06-8.14Q25.27-8.14 25.44-8.05Q25.61-7.96 25.70-7.81Q25.79-7.66 25.79-7.48L25.79-7.48Q25.79-7.24 25.68-7.04Q25.57-6.84 25.36-6.72Q25.15-6.61 24.89-6.61L24.89-6.61Q24.70-6.61 24.54-6.70Q24.38-6.79 24.29-6.94Q24.19-7.09 24.19-7.28L24.19-7.28ZM33.95-5.57Q33.97-5.29 33.97-5.12L33.97-5.12L33.97-4.90Q33.93-3.73 33.30-2.57Q32.67-1.42 31.66-0.45L31.66-0.45L31.24 0.03L30.18 0.09L29.90-1.74L29.84-2.27Q29.29-1.18 28.59-0.47L28.59-0.47L28.17 0.03L27.08 0.09L26.80-1.74L26.27-5.57L27.69-5.57L28.00-2.04L28.06-1.03L28.53-1.67Q29.36-2.98 29.60-4.23L29.60-4.23L29.43-5.57L30.79-5.57L31.09-2.04L31.15-1.03L31.61-1.66Q31.98-2.25 32.21-2.81Q32.44-3.36 32.56-4.08L32.56-4.08Q32.62-4.42 32.67-4.87Q32.72-5.33 32.71-5.57L32.71-5.57L33.95-5.57ZM37.56-5.64Q38.32-5.64 38.70-5.31Q39.08-4.97 39.08-4.39L39.08-4.39Q39.08-3.35 38.16-2.78Q37.25-2.20 35.96-1.97L35.96-1.97Q35.93-0.89 36.82-0.89L36.82-0.89Q37.22-0.89 37.66-1.12Q38.11-1.34 38.42-1.67L38.42-1.67L38.78-0.99Q38.62-0.76 38.30-0.51Q37.97-0.26 37.52-0.09Q37.07 0.08 36.55 0.08L36.55 0.08Q35.87 0.08 35.42-0.22Q34.97-0.52 34.75-1.02Q34.54-1.51 34.54-2.10L34.54-2.10Q34.54-3.09 34.93-3.90Q35.32-4.71 36.01-5.18Q36.70-5.64 37.56-5.64L37.56-5.64ZM37.76-4.27Q37.76-4.56 37.64-4.68Q37.51-4.80 37.27-4.80L37.27-4.80Q36.89-4.80 36.60-4.47Q36.32-4.14 36.15-3.65Q35.99-3.17 35.96-2.75L35.96-2.75Q36.32-2.77 36.75-2.97Q37.17-3.17 37.47-3.52Q37.76-3.86 37.76-4.27L37.76-4.27ZM44.19-5.45L44.92-5.64L44.14 0L42.94 0L43.01-1.06Q42.73-0.59 42.30-0.25Q41.88 0.08 41.34 0.08L41.34 0.08Q40.53 0.08 40.14-0.49Q39.76-1.06 39.76-2.02L39.76-2.02Q39.76-2.91 40.13-3.74Q40.49-4.57 41.23-5.11Q41.97-5.64 43.03-5.64L43.03-5.64Q43.30-5.64 43.61-5.59Q43.93-5.53 44.19-5.45L44.19-5.45ZM41.73-0.88Q42.13-0.88 42.50-1.34Q42.88-1.80 43.13-2.37L43.13-2.37L43.46-4.72Q43.22-4.79 42.90-4.79L42.90-4.79Q42.33-4.79 41.94-4.38Q41.55-3.98 41.35-3.37Q41.16-2.76 41.16-2.13L41.16-2.13Q41.16-1.50 41.31-1.19Q41.45-0.88 41.73-0.88L41.73-0.88ZM46.04-1.69L46.43-4.66L45.94-4.66L46.13-5.57L46.64-5.57L47.03-6.92L48.09-6.92L47.91-5.57L49.09-5.57L48.97-4.66L47.78-4.66L47.43-1.98Q47.41-1.84 47.40-1.79L47.40-1.79Q47.35-1.44 47.35-1.31L47.35-1.31Q47.35-1.12 47.42-1.00Q47.48-0.89 47.66-0.89L47.66-0.89Q47.83-0.89 48.13-1.04Q48.44-1.18 48.61-1.33L48.61-1.33L48.80-0.65Q48.63-0.48 48.34-0.31Q48.05-0.14 47.69-0.03Q47.33 0.09 46.98 0.09L46.98 0.09Q46.51 0.09 46.24-0.15Q45.96-0.39 45.96-0.87L45.96-0.87Q45.96-0.95 45.98-1.17Q46.00-1.40 46.04-1.69L46.04-1.69ZM53.45-5.64Q54.06-5.64 54.37-5.31Q54.67-4.97 54.67-4.20L54.67-4.20Q54.67-4.02 54.62-3.63Q54.58-3.23 54.48-2.50L54.48-2.50L54.24-0.91L54.11 0L52.76 0Q52.82-0.46 52.92-1.09L52.92-1.09Q53.03-1.88 53.12-2.50L53.12-2.50Q53.20-3.12 53.24-3.47Q53.28-3.83 53.28-4.04L53.28-4.04Q53.28-4.33 53.17-4.44Q53.06-4.55 52.83-4.55L52.83-4.55Q52.61-4.55 52.34-4.40Q52.07-4.26 51.80-4.02Q51.54-3.78 51.35-3.49L51.35-3.49L50.87 0L49.55 0L50.59-7.99L51.92-7.99L51.61-5.45L51.44-4.48Q51.83-5.00 52.36-5.32Q52.89-5.64 53.45-5.64L53.45-5.64ZM58.69-5.64Q59.45-5.64 59.83-5.31Q60.21-4.97 60.21-4.39L60.21-4.39Q60.21-3.35 59.29-2.78Q58.37-2.20 57.08-1.97L57.08-1.97Q57.06-0.89 57.95-0.89L57.95-0.89Q58.35-0.89 58.79-1.12Q59.23-1.34 59.55-1.67L59.55-1.67L59.91-0.99Q59.75-0.76 59.42-0.51Q59.10-0.26 58.65-0.09Q58.19 0.08 57.68 0.08L57.68 0.08Q57.00 0.08 56.55-0.22Q56.09-0.52 55.88-1.02Q55.66-1.51 55.66-2.10L55.66-2.10Q55.66-3.09 56.06-3.90Q56.45-4.71 57.14-5.18Q57.83-5.64 58.69-5.64L58.69-5.64ZM58.89-4.27Q58.89-4.56 58.76-4.68Q58.64-4.80 58.39-4.80L58.39-4.80Q58.02-4.80 57.73-4.47Q57.45-4.14 57.28-3.65Q57.11-3.17 57.08-2.75L57.08-2.75Q57.45-2.77 57.87-2.97Q58.30-3.17 58.60-3.52Q58.89-3.86 58.89-4.27L58.89-4.27ZM64.44-5.64Q64.69-5.64 64.77-5.58L64.77-5.58L64.50-4.19Q64.44-4.24 64.31-4.26Q64.18-4.29 64.02-4.29L64.02-4.29Q63.69-4.29 63.33-4.04Q62.98-3.80 62.72-3.36L62.72-3.36L62.26 0L60.91 0L61.67-5.57L62.96-5.57L62.88-4.51Q63.00-4.79 63.23-5.04Q63.46-5.30 63.77-5.47Q64.08-5.64 64.44-5.64L64.44-5.64ZM67.50-1.47Q67.63-1.36 67.88-1.25Q68.13-1.14 68.42-1.06Q68.72-0.99 68.98-0.99L68.98-0.99Q69.58-0.99 69.92-1.24Q70.26-1.48 70.26-1.95L70.26-1.95Q70.26-2.20 70.17-2.40Q70.07-2.61 69.86-2.83Q69.64-3.04 69.27-3.31L69.27-3.31Q68.64-3.75 68.26-4.26Q67.88-4.78 67.88-5.46L67.88-5.46Q67.88-6.10 68.18-6.57Q68.49-7.05 69.04-7.30Q69.59-7.55 70.31-7.55L70.31-7.55Q70.91-7.55 71.36-7.42Q71.81-7.30 72.03-7.13L72.03-7.13L71.61-6.08Q71.42-6.27 71.04-6.39Q70.67-6.50 70.32-6.50L70.32-6.50Q69.83-6.50 69.52-6.29Q69.20-6.08 69.18-5.66L69.18-5.66Q69.17-5.36 69.29-5.13Q69.40-4.90 69.62-4.69Q69.83-4.49 70.22-4.21L70.22-4.21Q70.64-3.90 70.94-3.62Q71.24-3.34 71.44-2.96Q71.65-2.58 71.65-2.13L71.65-2.13Q71.65-1.42 71.30-0.92Q70.96-0.42 70.35-0.17Q69.74 0.08 68.94 0.08L68.94 0.08Q68.56 0.08 68.18 0.00Q67.79-0.07 67.49-0.18Q67.19-0.29 67.08-0.38L67.08-0.38L67.50-1.47ZM76.95-5.45L77.68-5.64L76.90 0L75.70 0L75.77-1.06Q75.49-0.59 75.06-0.25Q74.63 0.08 74.10 0.08L74.10 0.08Q73.29 0.08 72.90-0.49Q72.52-1.06 72.52-2.02L72.52-2.02Q72.52-2.91 72.89-3.74Q73.25-4.57 73.99-5.11Q74.73-5.64 75.79-5.64L75.79-5.64Q76.05-5.64 76.37-5.59Q76.69-5.53 76.95-5.45L76.95-5.45ZM74.49-0.88Q74.89-0.88 75.26-1.34Q75.63-1.80 75.89-2.37L75.89-2.37L76.22-4.72Q75.98-4.79 75.65-4.79L75.65-4.79Q75.09-4.79 74.70-4.38Q74.31-3.98 74.11-3.37Q73.92-2.76 73.92-2.13L73.92-2.13Q73.92-1.50 74.06-1.19Q74.21-0.88 74.49-0.88L74.49-0.88ZM82.37-5.64Q82.98-5.64 83.28-5.31Q83.59-4.97 83.59-4.20L83.59-4.20Q83.59-3.86 83.39-2.50L83.39-2.50Q83.33-1.99 83.14-0.74L83.14-0.74L83.03-0.01L81.68-0.01Q81.72-0.32 81.77-0.59Q81.81-0.87 81.84-1.11L81.84-1.11Q81.96-1.95 82.04-2.50L82.04-2.50Q82.20-3.67 82.20-4.04L82.20-4.04Q82.20-4.33 82.08-4.44Q81.97-4.55 81.74-4.55L81.74-4.55Q81.52-4.55 81.25-4.40Q80.98-4.26 80.72-4.01Q80.45-3.77 80.25-3.47L80.25-3.47L79.78-0.01L78.43-0.01L79.19-5.57L80.47-5.57L80.40-4.53Q80.78-5.03 81.30-5.34Q81.82-5.64 82.37-5.64L82.37-5.64ZM84.65-1.34Q84.76-1.25 84.98-1.14Q85.19-1.04 85.45-0.96Q85.71-0.89 85.96-0.89L85.96-0.89Q86.77-0.89 86.77-1.44L86.77-1.44Q86.77-1.60 86.69-1.74Q86.61-1.88 86.48-1.99Q86.35-2.11 86.12-2.30L86.12-2.30L85.87-2.50Q85.59-2.74 85.41-2.95Q85.22-3.16 85.11-3.44Q85.00-3.72 85.00-4.07L85.00-4.07Q85.00-4.56 85.26-4.92Q85.53-5.27 85.99-5.46Q86.46-5.64 87.05-5.64L87.05-5.64Q87.44-5.64 87.81-5.58Q88.19-5.52 88.33-5.46L88.33-5.46L88.14-4.28Q88.08-4.36 87.92-4.45Q87.75-4.55 87.52-4.61Q87.29-4.68 87.04-4.68L87.04-4.68Q86.68-4.68 86.47-4.54Q86.26-4.40 86.26-4.15L86.26-4.15Q86.26-3.97 86.33-3.84Q86.40-3.71 86.51-3.60Q86.62-3.49 86.85-3.30L86.85-3.30L87.04-3.14Q87.39-2.87 87.60-2.65Q87.81-2.43 87.94-2.15Q88.07-1.88 88.07-1.53L88.07-1.53Q88.07-0.98 87.79-0.62Q87.50-0.26 87.03-0.09Q86.55 0.08 85.95 0.08L85.95 0.08Q85.48 0.08 85.02-0.02Q84.57-0.12 84.42-0.23L84.42-0.23L84.65-1.34Z"/></svg>