<svg xmlns="http://www.w3.org/2000/svg" viewBox="5.23828125 41.5 828.31640625 76.67578125"><path d="M11 46L19 46L31 81L34 91L36 81L48 46L56 46L63 100L56 100L53 67L51 51L47 67L36 101L32 101L20 67L16 51L14 67L11 100L5 100L11 46ZM103 81L77 81L77 82Q77 89 81 93Q84 96 90 96L90 96Q93 96 96 95Q100 95 101 93L101 93L102 97Q100 98 97 100Q93 101 89 101L89 101Q83 101 79 98Q75 96 73 91Q71 87 71 80L71 80Q71 74 73 69Q76 65 80 62Q84 59 90 59L90 59Q94 59 97 61Q100 63 102 66Q104 70 104 74L104 74Q104 77 104 78Q104 79 103 81L103 81ZM89 64Q84 64 81 67Q78 70 77 77L77 77L98 77Q98 76 98 75L98 75Q98 70 96 67Q94 64 89 64L89 64ZM131 59Q134 59 135 60L135 60L135 65Q134 65 130 65L130 65Q127 65 124 66Q122 67 120 69L120 69L120 100L114 100L114 60L119 60L119 65Q120 64 122 63Q124 61 126 60Q129 59 131 59L131 59ZM160 59Q163 59 164 60L164 60L164 65Q163 65 159 65L159 65Q156 65 153 66Q151 67 149 69L149 69L149 100L143 100L143 60L148 60L148 65Q149 64 151 63Q153 61 156 60Q158 59 160 59L160 59ZM173 60L179 60L179 100L173 100L173 60ZM172 47Q172 46 172 45Q173 44 174 43Q175 43 176 43L176 43Q178 43 179 44Q180 45 180 47L180 47Q180 48 179 49Q179 50 178 51Q177 51 175 51L175 51Q174 51 173 50Q172 49 172 47L172 47ZM236 60L242 60L230 101L224 101L216 71L215 66L214 71L206 101L200 101L187 60L193 60L201 87L203 94L204 87L212 60L218 60L226 87L227 94L229 88L236 60ZM279 81L253 81L253 82Q253 89 257 93Q260 96 266 96L266 96Q269 96 272 95Q276 95 277 93L277 93L278 97Q276 98 272 100Q268 101 265 101L265 101Q259 101 255 98Q251 96 249 91Q247 87 247 80L247 80Q247 74 249 69Q252 65 256 62Q260 59 265 59L265 59Q270 59 273 61Q276 63 278 66Q279 70 280 74L280 74Q280 77 280 78Q279 79 279 81L279 81ZM265 64Q260 64 257 67Q254 70 253 77L253 77L274 77Q274 76 274 75L274 75Q274 70 272 67Q270 64 265 64L265 64ZM304 59Q308 59 311 60Q314 61 316 64Q317 67 317 72L317 72L317 101L315 101Q314 101 313 100Q312 100 312 100Q312 99 312 98L312 98L312 96Q310 98 307 99Q303 101 299 101L299 101Q296 101 293 99Q290 98 289 95Q287 93 287 89L287 89Q287 86 289 83Q291 80 296 78L296 78Q299 77 303 77Q308 76 311 76L311 76L311 71Q311 68 310 67Q309 65 307 64Q305 64 302 64L302 64Q300 64 298 64Q295 65 293 66Q291 66 290 67L290 67L289 63Q290 63 292 62Q294 61 297 60Q301 59 304 59L304 59ZM301 96Q303 96 306 96Q308 95 309 94Q311 93 311 93L311 93L311 80Q309 80 305 80Q301 81 299 82L299 82Q296 83 294 85Q293 86 293 89L293 89Q293 92 295 94Q297 96 301 96L301 96ZM332 91L332 64L326 64L326 61Q327 61 328 61L328 61Q330 60 331 60Q332 59 332 59L332 59Q333 58 333 55L333 55Q334 52 334 51L334 51L338 51L338 60L350 60L350 64L338 64L338 87Q338 91 338 93Q339 95 340 95Q341 96 343 96L343 96Q345 96 347 95Q350 95 351 94L351 94L352 97Q350 99 347 100Q344 101 341 101L341 101Q338 101 336 100Q334 99 333 97Q332 95 332 91L332 91ZM381 59Q385 59 388 61Q390 63 392 66Q393 70 393 76L393 76L393 100L387 100L387 76Q387 71 386 69Q385 66 383 65Q381 64 378 64L378 64Q375 64 372 66Q369 67 366 69L366 69L366 100L360 100L360 42L366 42L366 59L366 65Q368 63 373 61Q377 59 381 59L381 59ZM435 81L409 81L409 82Q409 89 413 93Q416 96 422 96L422 96Q425 96 428 95Q431 95 433 93L433 93L434 97Q432 98 428 100Q424 101 420 101L420 101Q415 101 411 98Q407 96 405 91Q403 87 403 80L403 80Q403 74 405 69Q407 65 411 62Q415 59 421 59L421 59Q425 59 428 61Q432 63 433 66Q435 70 435 74L435 74Q435 77 435 78Q435 79 435 81L435 81ZM421 64Q416 64 413 67Q410 70 409 77L409 77L430 77Q430 76 430 75L430 75Q430 70 428 67Q425 64 421 64L421 64ZM463 59Q466 59 467 60L467 60L467 65Q465 65 462 65L462 65Q459 65 456 66Q453 67 451 69L451 69L451 100L446 100L446 60L450 60L451 65Q452 64 454 63Q456 61 458 60Q461 59 463 59L463 59ZM496 97L497 93Q500 94 503 95Q507 96 511 96L511 96Q516 96 520 94Q523 91 523 87L523 87Q523 84 521 82Q520 80 517 79Q515 77 510 75L510 75Q496 69 496 59L496 59Q496 55 498 52Q501 49 505 47Q509 46 513 46L513 46Q518 46 521 47Q524 48 526 49L526 49L525 53Q523 52 520 51Q517 51 513 51L513 51Q510 51 508 51Q505 52 503 54Q502 56 502 58L502 58Q502 61 503 63Q504 65 507 67Q509 68 514 71L514 71Q518 73 521 75Q524 77 526 80Q529 83 529 86L529 86Q529 91 526 94Q524 97 520 99Q516 101 511 101L511 101Q508 101 505 100Q502 100 499 99Q497 98 496 97L496 97ZM552 59Q556 59 559 60Q562 61 564 64Q566 67 566 72L566 72L566 101L563 101Q562 101 561 100Q561 100 560 100Q560 99 560 98L560 98L560 96Q558 98 555 99Q552 101 548 101L548 101Q544 101 541 99Q539 98 537 95Q536 93 536 89L536 89Q536 86 538 83Q540 80 544 78L544 78Q547 77 552 77Q556 76 560 76L560 76L560 71Q560 68 559 67Q558 65 556 64Q554 64 550 64L550 64Q549 64 546 64Q544 65 542 66Q540 66 539 67L539 67L537 63Q538 63 540 62Q543 61 546 60Q549 59 552 59L552 59ZM549 96Q552 96 554 96Q556 95 558 94Q559 93 560 93L560 93L560 80Q557 80 553 80Q550 81 547 82L547 82Q544 83 543 85Q541 86 541 89L541 89Q541 92 543 94Q545 96 549 96L549 96ZM579 60L584 60L584 65Q587 63 591 61Q595 59 599 59L599 59Q603 59 606 61Q608 62 610 66Q611 69 611 75L611 75L611 100L605 100L605 75Q605 71 604 69Q603 66 602 65Q600 64 596 64L596 64Q594 64 590 66Q587 67 585 69L585 69L585 100L579 100L579 60ZM622 93Q623 94 625 94Q627 95 629 96Q632 96 634 96L634 96Q638 96 640 95Q643 93 643 90L643 90Q643 88 641 87Q640 85 638 84Q636 83 633 82L633 82Q628 80 625 77Q622 74 622 70L622 70Q622 66 624 64Q626 62 629 60Q632 59 636 59L636 59Q639 59 642 60Q645 61 646 61L646 61L645 66Q644 65 641 64Q639 64 636 64L636 64Q632 64 630 65Q627 67 627 69L627 69Q627 71 628 73Q629 74 631 75Q633 76 636 77L636 77Q639 79 642 80Q645 82 646 84Q648 86 648 90L648 90Q648 93 647 96Q645 98 642 99Q639 101 634 101L634 101Q630 101 627 100Q623 99 621 98L621 98L622 93ZM682 42L688 42L688 100L682 100L682 42ZM703 60L709 60L709 100L703 100L703 60ZM702 47Q702 46 703 45Q703 44 704 43Q705 43 706 43L706 43Q708 43 709 44Q710 45 710 47L710 47Q710 48 709 49Q709 50 708 51Q707 51 706 51L706 51Q704 51 703 50Q702 49 702 47L702 47ZM758 60L758 65L750 65Q752 68 752 73L752 73Q752 77 750 80Q748 83 745 85Q741 87 737 87L737 87Q734 87 731 86L731 86Q730 87 729 88Q729 89 729 91L729 91Q729 93 729 94Q730 95 731 95Q732 95 734 95L734 95L743 95Q751 95 754 98Q757 101 757 105L757 105Q757 109 754 112Q752 115 747 117Q743 118 738 118L738 118Q730 118 725 115Q721 113 721 107L721 107Q721 104 722 102Q724 100 726 98L726 98Q725 97 724 96Q723 94 723 93L723 93Q723 91 724 88Q726 86 728 85L728 85Q725 83 723 80Q721 77 721 73L721 73Q721 69 723 66Q726 62 729 61Q733 59 737 59L737 59Q743 59 747 62L747 62Q748 61 750 61Q752 60 754 60L754 60L758 60ZM737 83Q741 83 744 80Q747 78 747 73L747 73Q747 68 744 66Q742 63 737 63L737 63Q733 63 730 66Q727 68 727 73L727 73Q727 76 728 78Q729 80 732 81Q734 83 737 83L737 83ZM735 100Q732 100 730 100L730 100Q726 102 726 106L726 106Q726 110 729 112Q732 114 738 114L738 114Q741 114 744 113Q747 112 749 111Q751 109 751 107L751 107Q751 104 750 103Q749 101 747 101Q745 100 741 100L741 100L735 100ZM787 59Q791 59 794 61Q796 63 798 66Q799 70 799 76L799 76L799 100L793 100L793 76Q793 71 792 69Q791 66 789 65Q788 64 784 64L784 64Q781 64 778 66Q775 67 772 69L772 69L772 100L766 100L766 42L772 42L772 59L772 65Q774 63 779 61Q783 59 787 59L787 59ZM814 91L814 64L808 64L808 61Q809 61 810 61L810 61Q812 60 813 60Q814 59 814 59L814 59Q815 58 815 55L815 55Q816 52 816 51L816 51L820 51L820 60L832 60L832 64L820 64L820 87Q820 91 820 93Q821 95 822 95Q823 96 825 96L825 96Q827 96 829 95Q832 95 833 94L833 94L834 97Q832 99 829 100Q826 101 823 101L823 101Q820 101 818 100Q816 99 815 97Q814 95 814 91L814 91Z"/></svg>