<svg xmlns="http://www.w3.org/2000/svg" viewBox="-3.0240000000000005 40.239999999999995 863.6400000000003 60.768"><path d="M38.52 76.31Q40.46 71.34 44.50 61.41L44.50 61.41L50.47 46.50L71.64 46.50L71.14 50.39L64.94 51.18L63.58 95.32L69.91 96.33L69.62 100L44.78 100L45.07 96.26L51.70 95.32L53.71 65.30L54.43 51.18L49.39 63.57L33.91 100.07L28.01 100.65L23.26 64.43L21.24 51.18L18.22 64.79L10.87 95.32L18.79 96.33L18.43 100L-3.02 100L-2.59 96.33L3.10 95.32L14.54 51.18L7.70 50.39L8.28 46.50L32.18 46.50L35.86 76.31L36.58 82.36L38.52 76.31ZM104.90 92.51Q102.96 95.61 98.71 98.31Q94.46 101.01 88.49 101.01L88.49 101.01Q83.16 101.01 79.70 98.74Q76.25 96.47 74.66 92.80Q73.08 89.13 73.08 84.88L73.08 84.88Q73.08 77.54 76.07 71.63Q79.06 65.73 84.28 62.38Q89.50 59.03 95.83 59.03L95.83 59.03Q101.74 59.03 104.54 61.62Q107.35 64.22 107.35 68.32L107.35 68.32Q107.35 73.58 103.90 77.07Q100.44 80.56 95.44 82.22Q90.43 83.87 85.54 84.02L85.54 84.02Q85.46 89.34 87.23 92.08Q88.99 94.82 92.16 94.82L92.16 94.82Q95.83 94.82 98.32 93.16Q100.80 91.50 102.67 88.98L102.67 88.98L104.90 92.51ZM93.31 63.93Q89.57 63.93 87.73 68.75Q85.90 73.58 85.54 79.77L85.54 79.77Q87.77 79.62 90.29 78.36Q92.81 77.10 94.54 74.73Q96.26 72.35 96.26 69.18L96.26 69.18Q96.26 63.93 93.31 63.93L93.31 63.93ZM126.22 69.54Q127.51 65.15 130.61 62.13Q133.70 59.10 137.74 59.10L137.74 59.10Q139.32 59.10 140.18 59.82L140.18 59.82L137.81 72.14Q137.52 71.78 136.44 71.34Q135.36 70.91 133.85 70.91L133.85 70.91Q131.62 70.91 129.71 71.38Q127.80 71.85 126.79 72.71L126.79 72.71L123.05 100L111.96 100L116.50 66.09L112.75 64.07L113.33 60.98L124.85 59.10L126.72 60.33L126.36 66.95L126.22 69.54ZM156.17 69.54Q157.46 65.15 160.56 62.13Q163.66 59.10 167.69 59.10L167.69 59.10Q169.27 59.10 170.14 59.82L170.14 59.82L167.76 72.14Q167.47 71.78 166.39 71.34Q165.31 70.91 163.80 70.91L163.80 70.91Q161.57 70.91 159.66 71.38Q157.75 71.85 156.74 72.71L156.74 72.71L153 100L141.91 100L146.45 66.09L142.70 64.07L143.28 60.98L154.80 59.10L156.67 60.33L156.31 66.95L156.17 69.54ZM184.46 92.08Q184.39 92.44 184.39 93.02L184.39 93.02Q184.39 94.74 185.69 94.74L185.69 94.74Q186.26 94.74 186.95 94.38Q187.63 94.02 188.93 93.16L188.93 93.16L189.86 95.61Q188.64 97.26 186.08 98.99Q183.53 100.72 179.64 100.72L179.64 100.72Q176.33 100.72 174.49 99.46Q172.66 98.20 172.66 96.18L172.66 96.18Q172.66 95.75 172.73 95.46L172.73 95.46L174.60 81.28L176.62 66.23L172.58 64.07L173.16 60.98L187.06 59.10L188.93 59.97L184.46 92.08ZM184.39 52.91Q182.23 52.91 180.54 51.18Q178.85 49.46 178.85 47.30L178.85 47.30Q178.85 44.34 180.86 42.29Q182.88 40.24 186.19 40.24L186.19 40.24Q188.71 40.24 190.22 41.90Q191.74 43.55 191.74 45.71L191.74 45.71Q191.74 48.88 189.86 50.90Q187.99 52.91 184.39 52.91L184.39 52.91ZM196.70 67.31Q196.42 66.23 196.09 65.80Q195.77 65.37 195.19 65.37L195.19 65.37Q194.62 65.37 194.22 65.51Q193.82 65.66 193.39 65.87L193.39 65.87L192.31 63.21Q192.74 62.63 194.11 61.66Q195.48 60.69 197.42 59.90Q199.37 59.10 201.46 59.10L201.46 59.10Q204.55 59.10 206.14 60.33Q207.72 61.55 208.08 63.93L208.08 63.93L210.89 84.74L211.75 92.15L214.85 82.29L221.69 59.39L231.98 59.39L235.66 85.96L236.23 91.86L237.96 88.98Q241.06 84.16 242.53 80.06Q244.01 75.95 244.01 71.63L244.01 71.63Q244.01 70.48 243.43 68.03L243.43 68.03Q242.86 65.58 242.86 64.22L242.86 64.22Q242.86 62.06 244.40 60.58Q245.95 59.10 248.54 59.10L248.54 59.10Q251.78 59.10 253.26 61.30Q254.74 63.50 254.74 66.81L254.74 66.81Q254.74 70.12 252.11 75.52Q249.48 80.92 245.81 86.32Q242.14 91.72 239.26 95.03L239.26 95.03L234.86 100.29L227.16 100.65L225.07 87.54L223.99 77.90L223.49 72.57L222.05 77.90L219.17 85.67L213.34 100.14L204.05 100.72L201.24 87.54L196.70 67.31ZM288.29 92.51Q286.34 95.61 282.10 98.31Q277.85 101.01 271.87 101.01L271.87 101.01Q266.54 101.01 263.09 98.74Q259.63 96.47 258.05 92.80Q256.46 89.13 256.46 84.88L256.46 84.88Q256.46 77.54 259.45 71.63Q262.44 65.73 267.66 62.38Q272.88 59.03 279.22 59.03L279.22 59.03Q285.12 59.03 287.93 61.62Q290.74 64.22 290.74 68.32L290.74 68.32Q290.74 73.58 287.28 77.07Q283.82 80.56 278.82 82.22Q273.82 83.87 268.92 84.02L268.92 84.02Q268.85 89.34 270.61 92.08Q272.38 94.82 275.54 94.82L275.54 94.82Q279.22 94.82 281.70 93.16Q284.18 91.50 286.06 88.98L286.06 88.98L288.29 92.51ZM276.70 63.93Q272.95 63.93 271.12 68.75Q269.28 73.58 268.92 79.77L268.92 79.77Q271.15 79.62 273.67 78.36Q276.19 77.10 277.92 74.73Q279.65 72.35 279.65 69.18L279.65 69.18Q279.65 63.93 276.70 63.93L276.70 63.93ZM327.60 92.08Q327.53 92.44 327.53 93.02L327.53 93.02Q327.53 94.74 328.97 94.74L328.97 94.74Q330.19 94.74 332.14 93.16L332.14 93.16L333.14 95.61Q332.14 97.19 329.54 98.96Q326.95 100.72 323.42 100.72L323.42 100.72Q320.83 100.72 319.25 99.64Q317.66 98.56 317.52 96.54L317.52 96.54L317.52 96.11Q313.06 100.72 306.79 100.72L306.79 100.72Q300.53 100.72 297.43 96.54Q294.34 92.37 294.34 85.89L294.34 85.89Q294.34 78.90 297.11 72.75Q299.88 66.59 305.35 62.85Q310.82 59.10 318.46 59.10L318.46 59.10Q320.33 59.10 322.67 59.57Q325.01 60.04 326.74 60.62L326.74 60.62L332.14 59.10L327.60 92.08ZM320.11 64.22Q318.53 63.93 317.66 63.93L317.66 63.93Q313.63 63.93 311.08 67.17Q308.52 70.41 307.44 75.30Q306.36 80.20 306.36 85.46L306.36 85.46Q306.36 89.78 307.76 92.22Q309.17 94.67 311.62 94.67L311.62 94.67Q313.92 94.67 316.22 92.51L316.22 92.51L320.11 64.22ZM350.57 86.39Q350.50 87.11 350.42 87.62Q350.35 88.12 350.28 88.48L350.28 88.48Q349.99 90.78 349.99 91.22L349.99 91.22Q349.99 94.10 352.66 94.10L352.66 94.10Q354.17 94.10 355.79 93.63Q357.41 93.16 358.63 92.08L358.63 92.08L359.50 94.82Q357.41 97.12 353.84 98.92Q350.28 100.72 345.31 100.72L345.31 100.72Q342.36 100.72 340.45 99.24Q338.54 97.77 338.54 94.38L338.54 94.38Q338.54 93.02 339.48 86.18L339.48 86.18L342.29 65.66L338.04 65.66L338.90 61.84L343.22 60.18Q345.53 58.24 348.84 50.25L348.84 50.25L355.39 50.25L354.17 60.04L362.23 60.04L361.44 65.66L353.38 65.66L350.57 86.39ZM378.36 67.89Q380.81 63.86 384.30 61.48Q387.79 59.10 391.90 59.10L391.90 59.10Q401.26 59.10 401.26 69.76L401.26 69.76Q401.26 72.50 399.46 82.22L399.46 82.22L398.95 85.17Q397.94 90.78 397.94 92.80L397.94 92.80Q397.94 94.74 399.31 94.74L399.31 94.74Q399.89 94.74 400.57 94.42Q401.26 94.10 402.48 93.16L402.48 93.16L403.49 95.61Q402.26 97.26 399.67 98.99Q397.08 100.72 393.12 100.72L393.12 100.72Q388.87 100.72 387.43 99.14Q385.99 97.55 385.99 94.82L385.99 94.82Q385.99 92.87 387.22 86.75L387.22 86.75L387.65 84.45Q389.23 75.45 389.23 71.42L389.23 71.42Q389.23 68.32 388.58 67.17Q387.94 66.02 386.42 66.02L386.42 66.02Q384.26 66.02 381.74 68.68Q379.22 71.34 377.42 75.16L377.42 75.16L374.40 100L362.95 100L369.22 47.87L364.75 46.36L365.33 43.48L379.58 41.97L381.38 42.98L378.36 67.89ZM439.85 92.51Q437.90 95.61 433.66 98.31Q429.41 101.01 423.43 101.01L423.43 101.01Q418.10 101.01 414.65 98.74Q411.19 96.47 409.61 92.80Q408.02 89.13 408.02 84.88L408.02 84.88Q408.02 77.54 411.01 71.63Q414.00 65.73 419.22 62.38Q424.44 59.03 430.78 59.03L430.78 59.03Q436.68 59.03 439.49 61.62Q442.30 64.22 442.30 68.32L442.30 68.32Q442.30 73.58 438.84 77.07Q435.38 80.56 430.38 82.22Q425.38 83.87 420.48 84.02L420.48 84.02Q420.41 89.34 422.17 92.08Q423.94 94.82 427.10 94.82L427.10 94.82Q430.78 94.82 433.26 93.16Q435.74 91.50 437.62 88.98L437.62 88.98L439.85 92.51ZM428.26 63.93Q424.51 63.93 422.68 68.75Q420.84 73.58 420.48 79.77L420.48 79.77Q422.71 79.62 425.23 78.36Q427.75 77.10 429.48 74.73Q431.21 72.35 431.21 69.18L431.21 69.18Q431.21 63.93 428.26 63.93L428.26 63.93ZM461.16 69.54Q462.46 65.15 465.55 62.13Q468.65 59.10 472.68 59.10L472.68 59.10Q474.26 59.10 475.13 59.82L475.13 59.82L472.75 72.14Q472.46 71.78 471.38 71.34Q470.30 70.91 468.79 70.91L468.79 70.91Q466.56 70.91 464.65 71.38Q462.74 71.85 461.74 72.71L461.74 72.71L457.99 100L446.90 100L451.44 66.09L447.70 64.07L448.27 60.98L459.79 59.10L461.66 60.33L461.30 66.95L461.16 69.54ZM508.75 62.85Q513.22 59.10 518.62 59.10L518.62 59.10Q524.66 59.10 527.69 63.03Q530.71 66.95 530.71 74.37L530.71 74.37Q530.71 81.71 527.80 87.72Q524.88 93.74 519.44 97.23Q514.01 100.72 506.81 100.72L506.81 100.72Q502.99 100.72 498.31 99.21L498.31 99.21L493.20 100.72L499.82 47.80L496.15 46.29L496.87 43.34L509.47 41.97L511.34 42.98L508.75 62.85ZM504.50 95.46Q505.94 95.90 507.74 95.90L507.74 95.90Q513.43 95.90 516.20 89.60Q518.98 83.30 518.98 74.37L518.98 74.37Q518.98 70.41 517.68 67.82Q516.38 65.22 513.79 65.22L513.79 65.22Q510.62 65.22 508.03 68.46L508.03 68.46L504.50 95.46ZM547.92 92.08Q547.85 92.37 547.85 92.94L547.85 92.94Q547.85 94.74 549.22 94.74L549.22 94.74Q549.79 94.74 550.48 94.42Q551.16 94.10 552.46 93.16L552.46 93.16L553.39 95.61Q549.65 100.72 543.60 100.72L543.60 100.72Q540.50 100.72 538.38 99.57Q536.26 98.42 536.18 95.97L536.18 95.97Q536.18 95.54 536.47 93.23L536.47 93.23L542.52 47.87L537.84 46.36L538.56 43.48L552.67 41.97L554.47 42.98L547.92 92.08ZM590.76 92.08Q590.69 92.44 590.69 93.02L590.69 93.02Q590.69 94.74 592.13 94.74L592.13 94.74Q593.35 94.74 595.30 93.16L595.30 93.16L596.30 95.61Q595.30 97.19 592.70 98.96Q590.11 100.72 586.58 100.72L586.58 100.72Q583.99 100.72 582.41 99.64Q580.82 98.56 580.68 96.54L580.68 96.54L580.68 96.11Q576.22 100.72 569.95 100.72L569.95 100.72Q563.69 100.72 560.59 96.54Q557.50 92.37 557.50 85.89L557.50 85.89Q557.50 78.90 560.27 72.75Q563.04 66.59 568.51 62.85Q573.98 59.10 581.62 59.10L581.62 59.10Q583.49 59.10 585.83 59.57Q588.17 60.04 589.90 60.62L589.90 60.62L595.30 59.10L590.76 92.08ZM583.27 64.22Q581.69 63.93 580.82 63.93L580.82 63.93Q576.79 63.93 574.24 67.17Q571.68 70.41 570.60 75.30Q569.52 80.20 569.52 85.46L569.52 85.46Q569.52 89.78 570.92 92.22Q572.33 94.67 574.78 94.67L574.78 94.67Q577.08 94.67 579.38 92.51L579.38 92.51L583.27 64.22ZM626.33 71.56Q624.31 68.46 622.80 66.52Q621.29 64.58 620.28 64.58L620.28 64.58Q618.34 64.58 616.39 66.95Q614.45 69.33 613.19 73.50Q611.93 77.68 611.93 82.79L611.93 82.79Q611.93 88.91 613.40 91.50Q614.88 94.10 618.19 94.10L618.19 94.10Q621.29 94.10 623.41 92.91Q625.54 91.72 627.12 89.63L627.12 89.63L629.35 93.23Q627.55 96.04 623.45 98.38Q619.34 100.72 613.73 100.72L613.73 100.72Q607.32 100.72 603.72 96.33Q600.12 91.94 600.12 83.66L600.12 83.66Q600.12 77.54 602.68 71.88Q605.23 66.23 610.34 62.67Q615.46 59.10 622.73 59.10L622.73 59.10Q625.10 59.10 627.59 59.46Q630.07 59.82 631.73 60.47L631.73 60.47L628.85 71.63L626.33 71.56ZM651.10 41.97L653.04 42.98L645.48 100L634.03 100L640.87 47.87L636.34 46.36L636.98 43.48L651.10 41.97ZM648.36 78.54Q651.89 76.67 654.08 74.98Q656.28 73.29 659.09 69.62L659.09 69.62Q660.96 67.10 660.96 63.86L660.96 63.86Q660.96 61.26 662.69 60.18Q664.42 59.10 666.65 59.10L666.65 59.10Q668.81 59.10 670.00 60.40Q671.18 61.70 671.18 63.64L671.18 63.64Q671.18 66.66 669.17 69.26L669.17 69.26Q665.93 73.50 658.30 77.10L658.30 77.10L664.92 90.42Q665.78 92.01 666.79 92.84Q667.80 93.66 668.66 93.66L668.66 93.66Q669.38 93.66 670.61 93.23Q671.83 92.80 672.77 92.08L672.77 92.08L673.92 94.53Q672.34 96.54 669.10 98.60Q665.86 100.65 661.97 100.65L661.97 100.65Q659.09 100.65 657.47 99.57Q655.85 98.49 655.06 96.47L655.06 96.47L648.36 78.54ZM705.10 92.08Q705.02 92.44 705.02 93.02L705.02 93.02Q705.02 94.74 706.32 94.74L706.32 94.74Q706.90 94.74 707.58 94.38Q708.26 94.02 709.56 93.16L709.56 93.16L710.50 95.61Q709.27 97.26 706.72 98.99Q704.16 100.72 700.27 100.72L700.27 100.72Q696.96 100.72 695.12 99.46Q693.29 98.20 693.29 96.18L693.29 96.18Q693.29 95.75 693.36 95.46L693.36 95.46L695.23 81.28L697.25 66.23L693.22 64.07L693.79 60.98L707.69 59.10L709.56 59.97L705.10 92.08ZM705.02 52.91Q702.86 52.91 701.17 51.18Q699.48 49.46 699.48 47.30L699.48 47.30Q699.48 44.34 701.50 42.29Q703.51 40.24 706.82 40.24L706.82 40.24Q709.34 40.24 710.86 41.90Q712.37 43.55 712.37 45.71L712.37 45.71Q712.37 48.88 710.50 50.90Q708.62 52.91 705.02 52.91L705.02 52.91ZM728.64 86.39Q728.57 87.11 728.50 87.62Q728.42 88.12 728.35 88.48L728.35 88.48Q728.06 90.78 728.06 91.22L728.06 91.22Q728.06 94.10 730.73 94.10L730.73 94.10Q732.24 94.10 733.86 93.63Q735.48 93.16 736.70 92.08L736.70 92.08L737.57 94.82Q735.48 97.12 731.92 98.92Q728.35 100.72 723.38 100.72L723.38 100.72Q720.43 100.72 718.52 99.24Q716.62 97.77 716.62 94.38L716.62 94.38Q716.62 93.02 717.55 86.18L717.55 86.18L720.36 65.66L716.11 65.66L716.98 61.84L721.30 60.18Q723.60 58.24 726.91 50.25L726.91 50.25L733.46 50.25L732.24 60.04L740.30 60.04L739.51 65.66L731.45 65.66L728.64 86.39ZM773.78 92.08Q773.71 92.44 773.71 93.02L773.71 93.02Q773.71 94.74 775.15 94.74L775.15 94.74Q776.38 94.74 778.32 93.16L778.32 93.16L779.33 95.61Q778.32 97.19 775.73 98.96Q773.14 100.72 769.61 100.72L769.61 100.72Q767.02 100.72 765.43 99.64Q763.85 98.56 763.70 96.54L763.70 96.54L763.70 96.11Q759.24 100.72 752.98 100.72L752.98 100.72Q746.71 100.72 743.62 96.54Q740.52 92.37 740.52 85.89L740.52 85.89Q740.52 78.90 743.29 72.75Q746.06 66.59 751.54 62.85Q757.01 59.10 764.64 59.10L764.64 59.10Q766.51 59.10 768.85 59.57Q771.19 60.04 772.92 60.62L772.92 60.62L778.32 59.10L773.78 92.08ZM766.30 64.22Q764.71 63.93 763.85 63.93L763.85 63.93Q759.82 63.93 757.26 67.17Q754.70 70.41 753.62 75.30Q752.54 80.20 752.54 85.46L752.54 85.46Q752.54 89.78 753.95 92.22Q755.35 94.67 757.80 94.67L757.80 94.67Q760.10 94.67 762.41 92.51L762.41 92.51L766.30 64.22ZM795.89 92.08Q795.82 92.37 795.82 92.94L795.82 92.94Q795.82 94.74 797.18 94.74L797.18 94.74Q797.76 94.74 798.44 94.42Q799.13 94.10 800.42 93.16L800.42 93.16L801.36 95.61Q797.62 100.72 791.57 100.72L791.57 100.72Q788.47 100.72 786.35 99.57Q784.22 98.42 784.15 95.97L784.15 95.97Q784.15 95.54 784.44 93.23L784.44 93.23L790.49 47.87L785.81 46.36L786.53 43.48L800.64 41.97L802.44 42.98L795.89 92.08ZM819.07 92.08Q819.00 92.44 819.00 93.02L819.00 93.02Q819.00 94.74 820.30 94.74L820.30 94.74Q820.87 94.74 821.56 94.38Q822.24 94.02 823.54 93.16L823.54 93.16L824.47 95.61Q823.25 97.26 820.69 98.99Q818.14 100.72 814.25 100.72L814.25 100.72Q810.94 100.72 809.10 99.46Q807.26 98.20 807.26 96.18L807.26 96.18Q807.26 95.75 807.34 95.46L807.34 95.46L809.21 81.28L811.22 66.23L807.19 64.07L807.77 60.98L821.66 59.10L823.54 59.97L819.07 92.08ZM819.00 52.91Q816.84 52.91 815.15 51.18Q813.46 49.46 813.46 47.30L813.46 47.30Q813.46 44.34 815.47 42.29Q817.49 40.24 820.80 40.24L820.80 40.24Q823.32 40.24 824.83 41.90Q826.34 43.55 826.34 45.71L826.34 45.71Q826.34 48.88 824.47 50.90Q822.60 52.91 819.00 52.91L819.00 52.91ZM855.22 71.56Q853.20 68.46 851.69 66.52Q850.18 64.58 849.17 64.58L849.17 64.58Q847.22 64.58 845.28 66.95Q843.34 69.33 842.08 73.50Q840.82 77.68 840.82 82.79L840.82 82.79Q840.82 88.91 842.29 91.50Q843.77 94.10 847.08 94.10L847.08 94.10Q850.18 94.10 852.30 92.91Q854.42 91.72 856.01 89.63L856.01 89.63L858.24 93.23Q856.44 96.04 852.34 98.38Q848.23 100.72 842.62 100.72L842.62 100.72Q836.21 100.72 832.61 96.33Q829.01 91.94 829.01 83.66L829.01 83.66Q829.01 77.54 831.56 71.88Q834.12 66.23 839.23 62.67Q844.34 59.10 851.62 59.10L851.62 59.10Q853.99 59.10 856.48 59.46Q858.96 59.82 860.62 60.47L860.62 60.47L857.74 71.63L855.22 71.56Z"/></svg>