<svg xmlns="http://www.w3.org/2000/svg" viewBox="-2.232 41.967999999999996 649.1519999999999 58.824000000000005"><path d="M36 81Q39 76 44 64L44 64Q45 62 47 56Q50 50 51 47L51 47L68 47L67 50L61 50L60 96L66 97L65 100L45 100L45 97L52 96L53 65L54 50L49 63L32 100L28 101L23 64L20 50L17 64L10 96L17 97L17 100L-2 100L-2 97L4 96L16 50L9 50L9 47L27 47L32 81L33 88L36 81ZM100 93Q98 96 94 98Q90 101 85 101L85 101Q80 101 77 99Q74 96 72 93Q71 89 71 85L71 85Q71 78 73 72Q76 66 81 63Q86 59 92 59L92 59Q97 59 100 62Q102 64 102 68L102 68Q102 73 98 77Q94 80 89 82Q83 84 79 84L79 84Q78 89 80 92Q82 96 87 96L87 96Q90 96 93 94Q96 93 99 90L99 90L100 93ZM90 63Q87 63 84 66Q82 68 81 72Q79 76 79 80L79 80Q82 80 86 79Q90 77 92 75Q95 72 95 69L95 69Q95 66 94 64Q92 63 90 63L90 63ZM120 69Q121 67 123 65Q125 62 128 61Q130 59 133 59L133 59Q135 59 136 60L136 60L134 68Q133 67 130 67L130 67Q127 67 124 69Q122 71 120 74L120 74L117 100L109 100L114 65L110 64L111 61L120 59L121 60L121 67L120 69ZM150 69Q151 67 153 65Q155 62 157 61Q160 59 163 59L163 59Q165 59 165 60L165 60L163 68Q162 67 160 67L160 67Q157 67 154 69Q151 71 150 74L150 74L146 100L139 100L143 65L140 64L140 61L149 59L151 60L150 67L150 69ZM177 94L177 94Q177 95 178 96Q178 96 178 96L178 96Q179 96 180 96Q181 95 182 94L182 94L183 96Q182 97 180 99Q177 101 174 101L174 101Q172 101 171 100Q169 98 169 96L169 96Q170 93 171 83L171 83Q173 69 174 65L174 65L169 63L170 61L181 59L182 60L177 94ZM179 52Q178 52 176 50Q175 49 175 47L175 47Q175 45 177 44Q178 42 180 42L180 42Q182 42 183 43Q185 44 185 46L185 46Q184 48 183 50Q182 52 179 52L179 52ZM193 66Q192 65 192 65Q192 64 191 64L191 64Q190 64 190 64Q189 65 189 65L189 65L188 63Q188 62 191 61Q193 59 195 59L195 59Q198 59 199 60Q200 62 200 64L200 64L203 87L204 94L207 87L217 59L224 59L227 88L228 94L231 89Q234 85 237 79Q239 74 239 69L239 69Q239 68 238 66L238 66Q238 64 238 63L238 63Q238 61 239 60Q240 59 242 59L242 59Q246 59 246 66L246 66Q246 71 242 78Q239 85 234 91L234 91L228 100L222 101L220 88L219 74L219 69L217 74L211 88L205 100L199 101L197 88L193 66ZM280 93Q278 96 274 98Q270 101 265 101L265 101Q260 101 257 99Q253 96 252 93Q250 89 250 85L250 85Q250 78 253 72Q256 66 261 63Q266 59 272 59L272 59Q277 59 279 62Q282 64 282 68L282 68Q282 73 278 77Q274 80 268 82Q263 84 258 84L258 84Q258 89 260 92Q262 96 266 96L266 96Q270 96 273 94Q276 93 278 90L278 90L280 93ZM270 63Q267 63 264 66Q262 68 260 72Q259 76 259 80L259 80Q262 80 266 79Q270 77 272 75Q275 72 275 69L275 69Q275 66 273 64Q272 63 270 63L270 63ZM318 93Q318 94 318 94L318 94Q318 95 318 96Q319 96 319 96L319 96Q320 96 322 94L322 94L323 96Q323 97 320 99Q318 101 316 101L316 101Q313 101 312 100Q311 98 311 96L311 96L311 94Q309 97 306 99Q303 101 299 101L299 101Q293 101 290 97Q287 92 287 86L287 86Q287 79 290 73Q293 67 298 63Q303 59 311 59L311 59Q312 59 314 59Q316 60 318 60L318 60L322 59L318 93ZM314 64Q312 63 310 63L310 63Q305 63 302 66Q299 70 297 75Q295 80 295 85L295 85Q295 90 297 93Q299 96 302 96L302 96Q304 96 307 94Q309 92 311 90L311 90L314 64ZM340 87Q339 91 339 93L339 93Q339 94 340 95Q341 96 342 96L342 96Q344 96 346 95Q348 94 349 93L349 93L350 96Q348 97 345 99Q341 101 338 101L338 101Q335 101 333 99Q331 98 331 95L331 95Q331 93 332 89L332 89L335 65L331 65L332 62L336 60Q338 58 341 50L341 50L345 50L343 60L353 60L352 65L343 65L340 87ZM367 69Q370 65 374 62Q378 59 382 59L382 59Q386 59 389 62Q391 64 391 70L391 70Q391 72 390 77Q389 81 389 82L389 82Q389 83 389 84Q389 85 388 86L388 86Q388 88 388 90Q387 93 387 94L387 94Q387 96 388 96L388 96Q389 96 390 96Q391 95 392 94L392 94L393 96Q392 98 390 99Q387 101 384 101L384 101Q382 101 380 100Q379 98 379 96L379 96Q379 94 380 88L380 88L381 84L381 82Q383 74 383 70L383 70Q383 67 382 66Q381 65 379 65L379 65Q376 65 373 67Q369 70 367 74L367 74L363 100L356 100L363 47L358 46L359 43L369 42L371 43L367 69ZM429 93Q427 96 423 98Q419 101 414 101L414 101Q409 101 406 99Q402 96 401 93Q399 89 399 85L399 85Q399 78 402 72Q405 66 410 63Q415 59 421 59L421 59Q426 59 428 62Q431 64 431 68L431 68Q431 73 427 77Q423 80 417 82Q412 84 407 84L407 84Q407 89 409 92Q411 96 415 96L415 96Q419 96 422 94Q425 93 427 90L427 90L429 93ZM419 63Q416 63 413 66Q411 68 409 72Q408 76 408 80L408 80Q411 80 415 79Q419 77 421 75Q424 72 424 69L424 69Q424 66 422 64Q421 63 419 63L419 63ZM449 69Q450 67 452 65Q454 62 456 61Q459 59 462 59L462 59Q464 59 464 60L464 60L463 68Q461 67 459 67L459 67Q456 67 453 69Q450 71 449 74L449 74L445 100L438 100L442 65L439 64L439 61L448 59L450 60L449 67L449 69ZM493 94L493 94Q493 95 494 96Q494 96 495 96L495 96Q495 96 496 96Q497 95 498 94L498 94L499 96Q498 97 496 99Q494 101 491 101L491 101Q488 101 487 100Q485 98 486 96L486 96Q486 93 488 83L488 83Q490 69 490 65L490 65L485 63L486 61L497 59L498 60L493 94ZM495 52Q494 52 493 50Q491 49 491 47L491 47Q491 45 493 44Q494 42 497 42L497 42Q499 42 500 43Q501 44 501 46L501 46Q501 48 499 50Q498 52 495 52L495 52ZM516 87Q516 91 516 93L516 93Q516 94 516 95Q517 96 519 96L519 96Q520 96 522 95Q525 94 526 93L526 93L526 96Q525 97 521 99Q518 101 514 101L514 101Q511 101 510 99Q508 98 508 95L508 95Q508 93 509 89L509 89L512 65L508 65L508 62L513 60Q514 58 517 50L517 50L521 50L520 60L529 60L529 65L519 65L516 87ZM562 93Q562 94 562 94L562 94Q562 95 562 96Q563 96 563 96L563 96Q564 96 566 94L566 94L567 96Q567 97 564 99Q562 101 560 101L560 101Q557 101 556 100Q555 98 555 96L555 96L555 94Q553 97 550 99Q547 101 543 101L543 101Q537 101 534 97Q532 92 532 86L532 86Q532 79 534 73Q537 67 542 63Q547 59 555 59L555 59Q556 59 558 59Q560 60 562 60L562 60L566 59L562 93ZM558 64Q556 63 554 63L554 63Q549 63 546 66Q543 70 541 75Q539 80 539 85L539 85Q539 90 541 93Q543 96 546 96L546 96Q548 96 551 94Q553 92 555 90L555 90L558 64ZM583 94Q583 94 583 94L583 94Q583 96 584 96L584 96Q585 96 587 94L587 94L588 96Q587 97 585 99Q583 101 580 101L580 101Q578 101 576 100Q575 99 575 96L575 96Q575 96 575 95Q575 94 575 94L575 94L582 47L577 46L578 43L588 42L590 43L583 94ZM605 94L605 94Q605 95 606 96Q606 96 606 96L606 96Q607 96 608 96Q609 95 610 94L610 94L611 96Q610 97 608 99Q605 101 602 101L602 101Q600 101 599 100Q597 98 597 96L597 96Q598 93 599 83L599 83Q601 69 602 65L602 65L597 63L598 61L608 59L610 60L605 94ZM607 52Q606 52 604 50Q603 49 603 47L603 47Q603 45 605 44Q606 42 608 42L608 42Q610 42 611 43Q613 44 613 46L613 46Q612 48 611 50Q610 52 607 52L607 52ZM643 68Q639 64 637 64L637 64Q634 64 631 66Q628 69 627 73Q625 78 625 84L625 84Q625 96 633 96L633 96Q636 96 638 95Q640 94 643 91L643 91L644 94Q642 97 639 99Q635 101 630 101L630 101Q624 101 621 96Q617 92 617 84L617 84Q617 79 620 73Q622 67 627 63Q632 59 639 59L639 59Q641 59 643 60Q645 60 647 61L647 61L645 68L643 68Z"/></svg>