<svg xmlns="http://www.w3.org/2000/svg" viewBox="0.5760000000000001 41.032 665.0640000000001 78.408"><path d="M7 96L12 50L4 50L4 47L21 47L32 80L35 89L37 80L48 47L65 47L65 50L57 50L63 96L69 97L69 100L50 100L50 97L57 96L53 63L52 49L49 59L36 97L33 97L21 63L16 49L14 63L12 96L19 97L19 100L1 100L1 97L7 96ZM91 101Q82 101 78 95Q73 89 73 80L73 80Q73 74 76 69Q78 64 82 62Q87 59 92 59L92 59Q98 59 102 63Q105 66 106 73L106 73Q106 78 105 80L105 80L80 80Q80 87 83 92Q86 97 93 97L93 97Q96 97 99 96Q102 95 104 93L104 93L105 96Q103 98 99 99Q95 101 91 101L91 101ZM80 76L99 76Q99 75 99 73L99 73Q99 68 97 65Q95 63 90 63L90 63Q81 63 80 76L80 76ZM112 100L112 97L118 97L118 65L113 64L113 60L122 59L122 59L123 60L123 61L123 67L123 67Q123 67 125 65Q127 63 131 61Q134 59 138 59L138 59Q139 59 140 59L140 59L140 66Q139 65 138 65Q137 65 136 65L136 65Q132 65 129 66Q127 67 124 69L124 69L124 96L134 97L134 100L112 100ZM145 100L145 97L151 97L151 65L145 64L145 60L154 59L154 59L156 60L156 61L156 67L156 67Q156 67 158 65Q159 63 163 61Q166 59 170 59L170 59Q171 59 172 59L172 59L172 66Q172 65 171 65Q170 65 169 65L169 65Q165 65 162 66Q159 67 156 69L156 69L156 96L166 97L166 100L145 100ZM185 52Q182 52 182 48L182 48Q182 46 183 45Q184 44 186 44L186 44Q188 44 189 45Q190 46 190 48L190 48Q190 50 189 51Q188 52 185 52L185 52L185 52ZM183 96L183 65L177 64L177 60L187 59L187 59L189 60L189 96L195 97L195 100L177 100L177 97L183 96ZM197 63L197 60L212 60L212 63L207 64L213 86L215 96L218 86L225 60L231 60L238 86L241 96L243 86L249 64L244 63L244 60L258 60L258 63L254 64L243 101L237 101L229 74L227 65L225 74L218 101L212 101L201 64L197 63ZM278 101Q270 101 265 95Q261 89 261 80L261 80Q261 74 263 69Q266 64 270 62Q274 59 279 59L279 59Q286 59 289 63Q293 66 293 73L293 73Q293 78 293 80L293 80L267 80Q267 87 270 92Q274 97 280 97L280 97Q283 97 286 96Q289 95 291 93L291 93L292 96Q290 98 286 99Q282 101 278 101L278 101ZM267 76L287 76Q287 75 287 73L287 73Q287 68 285 65Q282 63 278 63L278 63Q268 63 267 76L267 76ZM300 89Q300 83 307 79Q314 76 324 76L324 76L324 74Q324 70 323 68Q323 66 321 65Q319 64 315 64L315 64Q312 64 309 65Q306 66 303 68L303 68L301 65Q302 64 305 63Q307 61 310 60Q314 59 317 59L317 59Q322 59 324 61Q327 62 329 65Q330 68 330 73L330 73L330 97L334 97L334 100Q330 101 328 101L328 101Q326 101 325 100Q325 100 325 98L325 98L325 95Q322 97 319 99Q316 101 312 101L312 101Q307 101 303 98Q300 95 300 89L300 89ZM314 97Q316 97 319 95Q322 94 324 92L324 92L324 79Q315 79 311 82Q306 85 306 89L306 89Q306 93 308 95Q311 97 314 97L314 97ZM352 101Q348 101 346 99Q344 97 344 93L344 93L344 64L339 64L339 61Q343 61 343 60L343 60Q344 60 345 58L345 58Q345 57 346 54Q347 51 347 50L347 50L350 50L350 60L363 60L363 64L350 64L350 88Q350 92 350 93Q351 95 352 96Q353 96 355 96L355 96Q357 96 359 96Q362 95 363 94L363 94L364 97Q363 98 359 100Q355 101 352 101L352 101ZM373 96L373 46L367 45L367 42L377 41L377 41L379 42L379 59L379 65Q381 63 385 61Q389 59 393 59L393 59Q398 59 400 61Q403 63 404 66Q405 70 405 76L405 76L405 96L410 97L410 100L394 100L394 97L399 96L399 76Q399 71 398 69Q398 66 396 65Q394 64 391 64L391 64Q388 64 385 65Q381 66 379 68L379 68L379 96L384 97L384 100L368 100L368 97L373 96ZM433 101Q425 101 420 95Q416 89 416 80L416 80Q416 74 418 69Q421 64 425 62Q429 59 434 59L434 59Q441 59 444 63Q448 66 448 73L448 73Q448 78 448 80L448 80L422 80Q422 87 426 92Q429 97 435 97L435 97Q438 97 441 96Q445 95 446 93L446 93L447 96Q445 98 441 99Q437 101 433 101L433 101ZM422 76L442 76Q442 75 442 73L442 73Q442 68 440 65Q437 63 433 63L433 63Q423 63 422 76L422 76ZM455 100L455 97L461 97L461 65L455 64L455 60L464 59L464 59L466 60L466 61L466 67L466 67Q466 67 468 65Q470 63 473 61Q476 59 480 59L480 59Q481 59 482 59L482 59L482 66Q482 65 481 65Q480 65 479 65L479 65Q475 65 472 66Q469 67 467 69L467 69L467 96L476 97L476 100L455 100ZM510 96L510 46L504 45L504 42L514 41L515 41L516 42L516 96L523 97L523 100L504 100L504 97L510 96ZM536 52Q532 52 532 48L532 48Q532 46 534 45Q535 44 537 44L537 44Q539 44 540 45Q541 46 541 48L541 48Q541 50 540 51Q539 52 536 52L536 52L536 52ZM534 96L534 65L528 64L528 60L538 59L538 59L540 60L540 96L546 97L546 100L528 100L528 97L534 96ZM568 119Q551 119 551 109L551 109Q551 105 553 103Q555 100 558 99L558 99Q555 97 555 93L555 93Q555 90 556 88Q558 85 560 84L560 84Q557 82 555 80Q553 77 553 73L553 73Q553 69 555 65Q557 62 561 61Q565 59 569 59L569 59Q575 59 580 62L580 62Q581 61 583 60Q585 59 588 59L588 59L590 59L590 64L582 64Q584 67 584 71L584 71Q584 76 582 79Q580 82 576 84Q572 86 568 86L568 86Q565 86 563 85L563 85Q561 86 561 87Q560 89 560 90L560 90Q560 93 562 94Q563 95 568 95L568 95L576 95Q583 95 586 98Q589 100 589 105L589 105Q589 109 587 112Q584 115 579 117Q574 119 568 119L568 119ZM569 82Q578 82 578 72L578 72Q578 62 568 62L568 62Q559 62 559 72L559 72Q559 76 561 79Q564 82 569 82L569 82ZM569 116Q572 116 576 115Q580 114 582 111Q584 109 584 106L584 106Q584 104 583 103Q582 102 581 101Q579 100 575 100L575 100L566 100Q562 100 561 100L561 100Q557 103 557 107L557 107Q557 112 560 114Q562 116 569 116L569 116ZM598 96L598 46L592 45L592 42L603 41L603 41L604 42L604 59L604 65Q606 63 610 61Q615 59 619 59L619 59Q623 59 626 61Q628 63 629 66Q630 70 630 76L630 76L630 96L635 97L635 100L619 100L619 97L624 96L624 76Q624 71 624 69Q623 66 621 65Q620 64 616 64L616 64Q613 64 610 65Q607 66 604 68L604 68L604 96L609 97L609 100L594 100L594 97L598 96ZM654 101Q650 101 648 99Q646 97 646 93L646 93L646 64L640 64L640 61Q644 61 645 60L645 60Q646 60 646 58L646 58Q647 57 647 54Q648 51 648 50L648 50L652 50L652 60L664 60L664 64L652 64L652 88Q652 92 652 93Q652 95 653 96Q654 96 656 96L656 96Q658 96 661 96Q663 95 665 94L665 94L666 97Q664 98 660 100Q656 101 654 101L654 101Z"/></svg>