<svg xmlns="http://www.w3.org/2000/svg" viewBox="2.4609375 41.5 869.09765625 59.30859375"><path d="M8 46L24 46L31 75L34 86L36 75L42 46L57 46L64 100L53 100L50 71L49 55L45 71L38 101L29 101L20 71L16 55L15 71L13 100L2 100L8 46ZM105 75Q105 80 104 83L104 83L81 83Q81 88 84 90Q87 92 91 92L91 92Q94 92 97 92Q100 91 102 90L102 90L103 97Q101 98 97 99Q93 101 89 101L89 101Q83 101 78 98Q74 96 72 91Q70 86 70 80L70 80Q70 74 72 69Q74 65 79 62Q83 59 89 59L89 59Q93 59 97 61Q100 63 103 66Q105 70 105 75L105 75ZM95 77Q95 76 95 75L95 75Q95 71 93 69Q92 67 88 67L88 67Q85 67 83 69Q81 71 81 77L81 77L95 77ZM135 59Q138 59 138 60L138 60L138 70Q138 70 137 70Q136 69 134 69L134 69Q129 69 125 73L125 73L125 100L114 100L114 60L123 60L124 65Q125 64 127 62Q128 61 131 60Q133 59 135 59L135 59ZM168 59Q170 59 171 60L171 60L171 70Q170 70 169 70Q168 69 166 69L166 69Q161 69 157 73L157 73L157 100L146 100L146 60L156 60L156 65Q157 64 159 62Q161 61 163 60Q165 59 168 59L168 59ZM179 60L190 60L190 100L179 100L179 60ZM178 48Q178 46 179 45Q180 43 182 42Q183 42 185 42L185 42Q188 42 190 43Q191 45 191 47L191 47Q191 49 190 51Q189 52 188 53Q186 54 184 54L184 54Q183 54 181 53Q180 53 179 51Q178 50 178 48L178 48ZM247 60L258 60L245 101L235 101L229 79L227 72L226 79L219 101L209 101L197 60L208 60L213 79L215 89L217 79L223 60L233 60L239 79L241 89L242 79L247 60ZM297 75Q297 80 296 83L296 83L273 83Q273 88 276 90Q278 92 283 92L283 92Q286 92 289 92Q292 91 294 90L294 90L295 97Q293 98 289 99Q285 101 280 101L280 101Q274 101 270 98Q266 96 264 91Q262 86 262 80L262 80Q262 74 264 69Q266 65 271 62Q275 59 281 59L281 59Q285 59 289 61Q292 63 294 66Q297 70 297 75L297 75ZM286 77Q286 76 286 75L286 75Q286 71 285 69Q284 67 280 67L280 67Q277 67 275 69Q273 71 273 77L273 77L286 77ZM321 59Q327 59 331 60Q334 62 336 65Q338 68 338 74L338 74L338 101L331 101Q330 101 329 100Q328 100 328 99Q327 99 327 97L327 97L327 97Q325 98 323 99Q320 101 317 101L317 101Q313 101 310 99Q307 97 305 94Q304 91 304 88L304 88Q304 84 305 82Q307 79 311 78L311 78Q316 75 327 75L327 75L327 73Q327 70 326 69Q326 68 324 68Q322 68 319 68L319 68Q317 68 314 68Q310 69 308 70L308 70L305 63Q307 62 309 62Q312 61 315 60Q318 59 321 59L321 59ZM320 93Q322 93 324 92Q326 92 327 91L327 91L327 81Q325 81 322 82Q320 82 318 83L318 83Q317 83 316 84Q315 85 315 87L315 87Q315 90 316 92Q318 93 320 93L320 93ZM350 88L350 68L346 68L346 62Q348 61 349 61Q350 60 351 60Q352 59 352 58L352 58Q353 56 355 51L355 51L361 51L361 60L372 60L372 68L361 68L361 84Q361 88 362 89Q362 91 363 92Q364 92 366 92L366 92Q367 92 369 92Q371 91 372 91L372 91L374 97Q372 98 369 99Q365 101 362 101L362 101Q358 101 355 99Q353 98 352 95Q350 93 350 88L350 88ZM404 59Q408 59 411 61Q414 62 415 66Q417 69 417 75L417 75L417 100L406 100L406 77Q406 74 405 72Q405 70 404 69Q402 69 400 69L400 69Q399 69 396 69Q394 70 392 72L392 72L392 100L381 100L381 42L392 42L392 57L391 64Q394 62 397 61Q401 59 404 59L404 59ZM461 75Q461 80 461 83L461 83L437 83Q437 88 440 90Q443 92 448 92L448 92Q450 92 453 92Q456 91 458 90L458 90L460 97Q458 98 454 99Q449 101 445 101L445 101Q439 101 435 98Q430 96 428 91Q426 86 426 80L426 80Q426 74 428 69Q431 65 435 62Q439 59 445 59L445 59Q450 59 453 61Q457 63 459 66Q461 70 461 75L461 75ZM451 77Q451 76 451 75L451 75Q451 71 449 69Q448 67 445 67L445 67Q442 67 440 69Q438 71 437 77L437 77L451 77ZM492 59Q494 59 495 60L495 60L495 70Q494 70 493 70Q492 69 490 69L490 69Q485 69 481 73L481 73L481 100L470 100L470 60L480 60L480 65Q481 64 483 62Q485 61 487 60Q489 59 492 59L492 59ZM526 97L527 88Q530 90 534 91Q537 92 541 92L541 92Q546 92 547 90Q549 89 549 86L549 86Q549 84 548 83Q547 82 545 80Q543 79 539 77L539 77Q533 74 529 70Q525 66 525 60L525 60Q525 55 528 52Q530 49 535 47Q539 46 544 46L544 46Q549 46 552 47Q556 48 558 49L558 49L556 58Q554 56 551 55Q548 54 544 54L544 54Q540 54 538 56Q536 57 536 60L536 60Q536 62 537 63Q538 64 540 66Q542 67 546 69L546 69Q551 71 554 74Q557 76 559 79Q560 82 560 86L560 86Q560 90 558 94Q556 97 552 99Q547 101 542 101L542 101Q539 101 535 100Q532 100 530 99Q527 98 526 97L526 97ZM584 59Q590 59 594 60Q597 62 599 65Q601 68 601 74L601 74L601 101L594 101Q593 101 592 100Q591 100 591 99Q590 99 590 97L590 97L590 97Q588 98 586 99Q583 101 580 101L580 101Q576 101 573 99Q570 97 568 94Q567 91 567 88L567 88Q567 84 568 82Q570 79 574 78L574 78Q579 75 590 75L590 75L590 73Q590 70 589 69Q588 68 587 68Q585 68 582 68L582 68Q580 68 577 68Q573 69 571 70L571 70L568 63Q570 62 572 62Q575 61 578 60Q581 59 584 59L584 59ZM583 93Q585 93 587 92Q589 92 590 91L590 91L590 81Q588 81 585 82Q583 82 581 83L581 83Q580 83 579 84Q578 85 578 87L578 87Q578 90 579 92Q581 93 583 93L583 93ZM612 60L622 60L622 64Q625 62 628 61Q632 59 635 59L635 59Q640 59 642 61Q645 62 646 66Q648 69 648 75L648 75L648 100L637 100L637 77Q637 74 636 72Q636 70 635 69Q633 68 631 69L631 69Q629 69 627 69Q625 70 623 72L623 72L623 100L612 100L612 60ZM659 89Q659 90 661 91Q663 91 665 92Q668 92 670 92L670 92Q673 93 675 92Q676 91 676 89L676 89Q676 87 674 86Q672 85 668 83L668 83Q662 81 660 78Q658 75 658 71L658 71Q658 67 660 65Q662 62 665 61Q669 59 674 59L674 59Q678 59 681 60Q684 61 685 62L685 62L684 70Q683 69 680 68Q677 67 675 67L675 67Q671 67 670 68Q668 69 668 71L668 71Q668 72 669 73Q670 74 671 74Q673 75 676 76L676 76Q680 78 683 79Q685 81 686 83Q687 85 687 88L687 88Q687 94 683 97Q679 101 672 101L672 101Q669 101 666 100Q663 100 661 99Q659 98 658 97L658 97L659 89ZM742 59Q746 59 750 61Q753 64 755 68Q758 72 758 78L758 78Q758 85 755 90Q752 95 748 98Q743 101 737 101L737 101Q733 101 730 100Q726 100 723 99Q720 98 720 98L720 98L720 42L731 42L731 57L730 64Q732 62 735 61Q738 59 742 59L742 59ZM746 79Q746 73 744 70Q742 68 738 68L738 68Q736 68 734 68Q732 69 731 70L731 70L731 92Q732 93 737 93L737 93Q740 93 742 92Q744 90 745 87Q746 83 746 79L746 79ZM764 80Q764 73 767 69Q769 64 774 62Q778 59 784 59L784 59Q791 59 795 62Q799 65 801 70Q803 74 803 80L803 80Q803 87 801 91Q798 96 794 98Q789 101 784 101L784 101Q777 101 773 98Q768 95 766 90Q764 85 764 80L764 80ZM792 80Q792 75 790 71Q788 67 784 67L784 67Q776 67 776 79L776 79Q776 83 777 86Q777 89 779 91Q781 93 784 93L784 93Q792 93 792 80L792 80ZM813 42L824 42L824 100L813 100L813 42ZM861 42L872 42L872 101L864 101Q863 101 862 100Q861 100 861 99L861 99L861 96Q860 98 857 99Q854 101 850 101L850 101Q845 101 842 98Q838 96 836 92Q834 88 834 81L834 81Q834 75 836 70Q839 65 843 62Q848 59 854 59L854 59Q858 59 861 60L861 60L861 57L861 42ZM845 81Q845 87 847 89Q849 92 853 92L853 92Q855 92 857 91Q859 91 861 90L861 90L861 68Q860 68 858 67Q857 67 854 67L854 67Q852 67 850 69Q848 70 846 73Q845 76 845 81L845 81Z"/></svg>