<svg xmlns="http://www.w3.org/2000/svg" viewBox="0.43200000000000005 41.032 763.0560000000002 78.408"><path d="M7 96L12 51L4 50L4 47L23 47L33 79L36 88L38 79L48 47L67 47L67 50L59 51L65 96L71 96L71 100L50 100L50 96L57 96L53 63L52 50L49 60L37 98L32 98L21 63L16 49L15 63L12 96L19 96L19 100L0 100L0 96L7 96ZM92 101Q84 101 79 95Q74 89 74 80L74 80Q74 74 77 69Q79 64 83 62Q88 59 93 59L93 59Q100 59 104 63Q107 66 107 73L107 73Q107 78 107 80L107 80L82 80Q82 87 86 91Q89 96 95 96L95 96Q97 96 101 95Q104 94 105 92L105 92L107 95Q105 98 101 99Q96 101 92 101L92 101ZM82 76L100 76Q100 75 100 73L100 73Q100 68 98 66Q96 63 92 63L92 63Q88 63 85 66Q83 69 82 76L82 76ZM114 100L114 96L119 96L119 66L114 64L114 60L124 59L124 59L126 60L126 62L125 67L126 67Q126 66 128 64Q130 62 133 61Q136 59 140 59L140 59Q141 59 142 59L142 59L142 67Q141 67 140 67Q139 66 138 66L138 66Q132 66 127 70L127 70L127 96L136 97L136 100L114 100ZM147 100L147 96L152 96L152 66L147 64L147 60L157 59L157 59L159 60L159 62L158 67L159 67Q159 66 161 64Q163 62 166 61Q169 59 173 59L173 59Q174 59 175 59L175 59L175 67Q174 67 173 67Q172 66 171 66L171 66Q165 66 160 70L160 70L160 96L169 97L169 100L147 100ZM188 53Q186 53 185 52Q184 50 184 48L184 48Q184 46 185 44Q186 43 189 43L189 43Q191 43 192 44Q194 45 194 48L194 48Q194 50 192 51Q191 53 188 53L188 53L188 53ZM185 96L185 66L180 64L180 60L191 59L191 59L193 60L193 96L199 96L199 100L179 100L179 96L185 96ZM200 63L200 60L217 60L217 63L211 64L217 85L219 95L221 85L228 60L235 60L242 85L245 95L247 85L253 64L247 63L247 60L262 60L262 63L258 64L247 101L240 101L232 75L231 66L229 75L222 101L215 101L204 64L200 63ZM282 101Q273 101 268 95Q264 89 264 80L264 80Q264 74 266 69Q269 64 273 62Q277 59 283 59L283 59Q289 59 293 63Q297 66 297 73L297 73Q297 78 296 80L296 80L272 80Q272 87 275 91Q278 96 284 96L284 96Q287 96 290 95Q293 94 295 92L295 92L296 95Q294 98 290 99Q286 101 282 101L282 101ZM272 76L289 76Q289 75 289 73L289 73Q289 68 287 66Q285 63 281 63L281 63Q277 63 275 66Q272 69 272 76L272 76ZM303 89Q303 82 310 79Q317 76 327 76L327 76L327 74Q327 70 326 68Q326 67 324 66Q322 65 319 65L319 65Q315 65 312 66Q309 67 307 68L307 68L305 65Q306 64 308 62Q311 61 314 60Q317 59 321 59L321 59Q326 59 329 61Q332 62 333 65Q334 68 334 73L334 73L334 96L339 96L339 100Q337 100 335 100Q333 101 331 101L331 101Q329 101 328 100Q328 99 328 97L328 97L328 95Q325 97 322 99Q319 101 315 101L315 101Q310 101 307 98Q303 95 303 89L303 89ZM318 96Q320 96 323 95Q325 94 327 92L327 92L327 80Q319 80 315 82Q311 84 311 88L311 88Q311 92 313 94Q315 96 318 96L318 96ZM356 101Q352 101 350 99Q348 97 348 92L348 92L348 65L343 65L343 62Q343 61 345 61Q346 61 347 60L347 60Q348 60 349 58L349 58Q349 56 350 53Q351 50 351 50L351 50L355 50L355 60L367 60L367 65L355 65L355 87Q355 91 356 93Q356 94 357 95Q357 95 359 95L359 95Q361 95 364 95Q366 94 367 94L367 94L368 97Q367 98 363 99Q359 101 356 101L356 101ZM377 96L377 46L371 45L371 42L382 41L383 41L384 42L384 59L384 65Q386 63 390 61Q394 59 398 59L398 59Q403 59 405 61Q408 63 409 66Q410 70 410 76L410 76L410 96L415 96L415 100L398 100L398 96L402 96L402 76Q402 71 402 69Q401 67 400 65Q398 64 395 64L395 64Q392 64 389 66Q386 67 384 69L384 69L384 96L389 96L389 100L372 100L372 96L377 96ZM438 101Q429 101 425 95Q420 89 420 80L420 80Q420 74 423 69Q425 64 429 62Q434 59 439 59L439 59Q446 59 449 63Q453 66 453 73L453 73Q453 78 453 80L453 80L428 80Q428 87 431 91Q435 96 440 96L440 96Q443 96 446 95Q449 94 451 92L451 92L453 95Q451 98 446 99Q442 101 438 101L438 101ZM428 76L445 76Q446 75 446 73L446 73Q446 68 444 66Q442 63 438 63L438 63Q433 63 431 66Q428 69 428 76L428 76ZM460 100L460 96L465 96L465 66L460 64L460 60L470 59L470 59L472 60L472 62L471 67L472 67Q472 66 474 64Q476 62 479 61Q482 59 485 59L485 59Q487 59 488 59L488 59L488 67Q487 67 486 67Q485 66 484 66L484 66Q478 66 473 70L473 70L473 96L482 97L482 100L460 100ZM510 100L510 96L515 96L515 66L510 64L510 60L520 59L520 59L522 60L522 62L521 67L522 67Q522 66 524 64Q526 62 529 61Q532 59 535 59L535 59Q537 59 538 59L538 59L538 67Q537 67 536 67Q535 66 534 66L534 66Q528 66 523 70L523 70L523 96L532 97L532 100L510 100ZM560 101Q552 101 547 95Q542 89 542 80L542 80Q542 74 545 69Q547 64 551 62Q556 59 561 59L561 59Q568 59 572 63Q575 66 575 73L575 73Q575 78 575 80L575 80L550 80Q550 87 554 91Q557 96 563 96L563 96Q565 96 569 95Q572 94 573 92L573 92L575 95Q573 98 569 99Q564 101 560 101L560 101ZM550 76L568 76Q568 75 568 73L568 73Q568 68 566 66Q564 63 560 63L560 63Q556 63 553 66Q551 69 550 76L550 76ZM599 119Q590 119 586 117Q581 114 581 108L581 108Q581 105 583 103Q585 100 588 99L588 99Q585 97 585 93L585 93Q585 90 586 88Q588 85 590 84L590 84Q587 83 585 80Q583 77 583 73L583 73Q583 68 585 65Q588 62 591 61Q595 59 600 59L600 59Q607 59 611 62L611 62Q612 61 614 60Q616 59 619 59L619 59L621 59L621 65L614 65Q615 68 615 71L615 71Q615 76 613 79Q611 82 607 84Q603 86 599 86L599 86Q596 86 593 85L593 85Q592 86 591 87Q591 89 591 90L591 90Q591 92 593 93Q594 94 599 94L599 94L607 94Q614 94 617 97Q621 100 621 105L621 105Q621 109 618 112Q615 115 610 117Q605 119 599 119L599 119ZM599 82Q608 82 608 72L608 72Q608 67 605 65Q603 63 599 63L599 63Q595 63 593 65Q591 67 591 72L591 72Q591 77 593 79Q595 82 599 82L599 82ZM600 115Q603 115 606 114Q609 113 611 111Q613 109 613 106L613 106Q613 103 611 102Q610 100 605 100L605 100L596 100Q593 100 592 100L592 100Q589 103 589 107L589 107Q589 111 591 113Q594 115 600 115L600 115ZM658 101Q656 101 655 100Q654 99 654 97L654 97L654 95Q652 97 648 99Q645 101 641 101L641 101Q634 101 632 97Q629 94 629 85L629 85L629 64L625 63L625 60L635 59L635 59L636 60L636 85Q636 89 637 91Q637 94 639 95Q641 96 644 96L644 96Q646 96 649 95Q651 93 653 92L653 92L653 64L648 63L648 60L659 59L659 59L661 60L661 96L665 96L665 100Q663 100 662 100Q660 101 658 101L658 101ZM676 96L676 46L670 45L670 42L682 41L682 41L684 42L684 96L690 96L690 100L670 100L670 96L676 96ZM695 89Q695 82 702 79Q708 76 719 76L719 76L719 74Q719 70 718 68Q717 67 716 66Q714 65 711 65L711 65Q707 65 704 66Q701 67 698 68L698 68L696 65Q697 64 700 62Q702 61 706 60Q709 59 712 59L712 59Q717 59 720 61Q723 62 725 65Q726 68 726 73L726 73L726 96L730 96L730 100Q729 100 727 100Q724 101 723 101L723 101Q721 101 720 100Q719 99 719 97L719 97L719 95Q717 97 714 99Q711 101 707 101L707 101Q702 101 698 98Q695 95 695 89L695 89ZM710 96Q712 96 714 95Q717 94 719 92L719 92L719 80Q711 80 707 82Q703 84 703 88L703 88Q703 92 705 94Q707 96 710 96L710 96ZM735 100L735 96L741 96L741 66L736 64L736 60L746 59L746 59L747 60L747 62L747 67L747 67Q748 66 750 64Q752 62 755 61Q758 59 761 59L761 59Q763 59 763 59L763 59L763 67Q763 67 762 67Q761 66 759 66L759 66Q753 66 748 70L748 70L748 96L757 97L757 100L735 100Z"/></svg>