<svg xmlns="http://www.w3.org/2000/svg" viewBox="0.06 -8.19 67.67999999999999 8.299999999999999"><path d="M0.91-0.59L1.64-6.81L0.55-6.93L0.55-7.43L3.20-7.43L4.61-2.93L4.94-1.66L5.24-2.93L6.64-7.43L9.27-7.43L9.27-6.93L8.17-6.81L8.97-0.60L9.84-0.49L9.84 0L6.96 0L6.96-0.49L7.87-0.59L7.42-5.08L7.21-7.01L6.79-5.57L5.12-0.34L4.47-0.34L2.85-5.13L2.26-7.02L2.08-5.08L1.68-0.59L2.67-0.49L2.67 0L0.06 0L0.06-0.49L0.91-0.59ZM12.81 0.11Q11.60 0.11 10.96-0.68Q10.33-1.47 10.33-2.79L10.33-2.79Q10.33-3.66 10.66-4.32Q10.99-4.98 11.59-5.34Q12.18-5.70 12.94-5.70L12.94-5.70Q13.87-5.70 14.39-5.19Q14.90-4.67 14.93-3.71L14.93-3.71Q14.93-3.10 14.86-2.78L14.86-2.78L11.42-2.78Q11.44-1.79 11.88-1.19Q12.32-0.58 13.13-0.58L13.13-0.58Q13.53-0.58 13.96-0.72Q14.40-0.87 14.64-1.07L14.64-1.07L14.83-0.63Q14.54-0.33 13.97-0.11Q13.40 0.11 12.81 0.11L12.81 0.11ZM11.43-3.31L13.83-3.31Q13.86-3.52 13.86-3.74L13.86-3.74Q13.85-4.39 13.59-4.76Q13.32-5.14 12.75-5.14L12.75-5.14Q12.17-5.14 11.83-4.72Q11.48-4.30 11.43-3.31L11.43-3.31ZM15.81 0L15.81-0.49L16.56-0.55L16.56-4.78L15.84-4.96L15.84-5.50L17.22-5.68L17.24-5.68L17.46-5.50L17.46-5.32L17.43-4.54L17.46-4.54Q17.56-4.71 17.82-4.98Q18.08-5.25 18.49-5.48Q18.90-5.70 19.38-5.70L19.38-5.70Q19.58-5.70 19.71-5.65L19.71-5.65L19.71-4.53Q19.64-4.58 19.48-4.63Q19.33-4.67 19.14-4.67L19.14-4.67Q18.31-4.67 17.60-4.16L17.60-4.16L17.60-0.56L18.87-0.48L18.87 0L15.81 0ZM20.39 0L20.39-0.49L21.14-0.55L21.14-4.78L20.42-4.96L20.42-5.50L21.80-5.68L21.82-5.68L22.04-5.50L22.04-5.32L22.01-4.54L22.04-4.54Q22.14-4.71 22.40-4.98Q22.66-5.25 23.07-5.48Q23.48-5.70 23.96-5.70L23.96-5.70Q24.16-5.70 24.29-5.65L24.29-5.65L24.29-4.53Q24.22-4.58 24.07-4.63Q23.91-4.67 23.72-4.67L23.72-4.67Q22.89-4.67 22.18-4.16L22.18-4.16L22.18-0.56L23.45-0.48L23.45 0L20.39 0ZM26.13-6.55Q25.81-6.55 25.65-6.73Q25.49-6.91 25.49-7.19L25.49-7.19Q25.49-7.51 25.68-7.72Q25.88-7.93 26.22-7.93L26.22-7.93Q26.56-7.93 26.72-7.75Q26.88-7.57 26.88-7.29L26.88-7.29Q26.88-6.95 26.68-6.75Q26.49-6.55 26.14-6.55L26.14-6.55L26.13-6.55ZM25.73-0.58L25.73-4.78L24.97-4.96L24.97-5.49L26.52-5.68L26.54-5.68L26.77-5.50L26.77-0.57L27.57-0.49L27.57 0L24.92 0L24.92-0.49L25.73-0.58ZM27.76-5.08L27.76-5.55L30.09-5.55L30.09-5.08L29.33-4.96L30.16-2.02L30.45-0.75L30.74-2.03L31.70-5.55L32.68-5.55L33.67-2.03L33.96-0.74L34.28-2.02L35.09-4.95L34.33-5.08L34.33-5.55L36.36-5.55L36.36-5.08L35.83-4.95L34.28 0.08L33.34 0.08L32.28-3.45L32.02-4.69L31.81-3.45L30.80 0.08L29.87 0.08L28.27-4.96L27.76-5.08ZM39.13 0.11Q37.92 0.11 37.28-0.68Q36.65-1.47 36.65-2.79L36.65-2.79Q36.65-3.66 36.98-4.32Q37.31-4.98 37.91-5.34Q38.50-5.70 39.26-5.70L39.26-5.70Q40.19-5.70 40.70-5.19Q41.22-4.67 41.25-3.71L41.25-3.71Q41.25-3.10 41.18-2.78L41.18-2.78L37.74-2.78Q37.76-1.79 38.20-1.19Q38.64-0.58 39.45-0.58L39.45-0.58Q39.85-0.58 40.28-0.72Q40.72-0.87 40.96-1.07L40.96-1.07L41.15-0.63Q40.86-0.33 40.29-0.11Q39.72 0.11 39.13 0.11L39.13 0.11ZM37.75-3.31L40.15-3.31Q40.18-3.52 40.18-3.74L40.18-3.74Q40.17-4.39 39.91-4.76Q39.64-5.14 39.07-5.14L39.07-5.14Q38.49-5.14 38.14-4.72Q37.80-4.30 37.75-3.31L37.75-3.31ZM42.11-1.50Q42.11-2.44 43.05-2.89Q43.99-3.33 45.43-3.36L45.43-3.36L45.43-3.64Q45.43-4.11 45.33-4.38Q45.23-4.65 44.98-4.78Q44.74-4.90 44.29-4.90L44.29-4.90Q43.78-4.90 43.38-4.75Q42.97-4.61 42.57-4.40L42.57-4.40L42.32-4.92Q42.45-5.03 42.80-5.21Q43.15-5.39 43.61-5.53Q44.07-5.67 44.53-5.67L44.53-5.67Q45.24-5.67 45.65-5.48Q46.07-5.28 46.25-4.85Q46.43-4.42 46.43-3.70L46.43-3.70L46.43-0.49L47.02-0.49L47.02-0.05Q46.82 0 46.52 0.05Q46.21 0.10 45.98 0.10L45.98 0.10Q45.70 0.10 45.60 0.01Q45.50-0.07 45.50-0.36L45.50-0.36L45.50-0.69Q45.20-0.39 44.76-0.14Q44.33 0.11 43.78 0.11L43.78 0.11Q43.06 0.11 42.58-0.30Q42.11-0.72 42.11-1.50L42.11-1.50ZM44.21-0.57Q44.47-0.57 44.81-0.73Q45.15-0.89 45.43-1.11L45.43-1.11L45.43-2.83Q44.34-2.83 43.78-2.50Q43.23-2.16 43.23-1.62L43.23-1.62Q43.23-1.08 43.49-0.83Q43.76-0.57 44.21-0.57L44.21-0.57ZM49.43 0.10Q48.86 0.10 48.58-0.16Q48.30-0.42 48.30-1.05L48.30-1.05L48.30-4.89L47.58-4.89L47.58-5.34Q47.63-5.35 47.86-5.41Q48.09-5.47 48.17-5.52L48.17-5.52Q48.33-5.61 48.42-5.88L48.42-5.88Q48.50-6.07 48.61-6.49Q48.72-6.91 48.74-6.99L48.74-6.99L49.33-6.99L49.35-5.55L51.02-5.55L51.02-4.89L49.35-4.89L49.35-1.82Q49.35-1.25 49.38-1.02Q49.42-0.79 49.53-0.72Q49.65-0.65 49.93-0.65L49.93-0.65Q50.20-0.65 50.52-0.72Q50.85-0.79 51.03-0.87L51.03-0.87L51.18-0.42Q50.94-0.24 50.40-0.07Q49.87 0.10 49.43 0.10L49.43 0.10ZM52.33-0.57L52.33-7.46L51.49-7.57L51.49-8L53.12-8.19L53.14-8.19L53.36-8.04L53.36-5.72L53.32-4.87Q53.64-5.16 54.20-5.42Q54.76-5.68 55.33-5.68L55.33-5.68Q55.96-5.68 56.31-5.44Q56.66-5.20 56.80-4.71Q56.94-4.21 56.94-3.37L56.94-3.37L56.94-0.58L57.64-0.49L57.64 0L55.25 0L55.25-0.49L55.90-0.58L55.90-3.38Q55.90-3.97 55.82-4.30Q55.74-4.64 55.52-4.80Q55.30-4.97 54.86-4.97L54.86-4.97Q54.50-4.97 54.09-4.79Q53.68-4.61 53.37-4.37L53.37-4.37L53.37-0.58L54.06-0.49L54.06 0L51.73 0L51.73-0.49L52.33-0.57ZM60.84 0.11Q59.63 0.11 58.99-0.68Q58.36-1.47 58.36-2.79L58.36-2.79Q58.36-3.66 58.69-4.32Q59.02-4.98 59.61-5.34Q60.21-5.70 60.97-5.70L60.97-5.70Q61.90-5.70 62.41-5.19Q62.93-4.67 62.96-3.71L62.96-3.71Q62.96-3.10 62.89-2.78L62.89-2.78L59.45-2.78Q59.47-1.79 59.91-1.19Q60.35-0.58 61.16-0.58L61.16-0.58Q61.56-0.58 61.99-0.72Q62.43-0.87 62.67-1.07L62.67-1.07L62.86-0.63Q62.57-0.33 62.00-0.11Q61.43 0.11 60.84 0.11L60.84 0.11ZM59.46-3.31L61.86-3.31Q61.89-3.52 61.89-3.74L61.89-3.74Q61.88-4.39 61.61-4.76Q61.35-5.14 60.78-5.14L60.78-5.14Q60.20-5.14 59.85-4.72Q59.51-4.30 59.46-3.31L59.46-3.31ZM63.84 0L63.84-0.49L64.59-0.55L64.59-4.78L63.87-4.96L63.87-5.50L65.25-5.68L65.27-5.68L65.49-5.50L65.49-5.32L65.46-4.54L65.49-4.54Q65.59-4.71 65.85-4.98Q66.11-5.25 66.52-5.48Q66.93-5.70 67.41-5.70L67.41-5.70Q67.61-5.70 67.74-5.65L67.74-5.65L67.74-4.53Q67.67-4.58 67.51-4.63Q67.36-4.67 67.17-4.67L67.17-4.67Q66.34-4.67 65.63-4.16L65.63-4.16L65.63-0.56L66.90-0.48L66.90 0L63.84 0Z"/></svg>