<svg xmlns="http://www.w3.org/2000/svg" viewBox="0.5760000000000001 41.032 665.0640000000001 78.408"><path d="M6.70 96.26L12.02 50.39L4.03 49.60L4.03 46.50L21.02 46.50L32.18 79.77L34.85 89.42L37.22 79.77L48.31 46.50L65.16 46.50L65.16 49.60L57.24 50.39L62.93 96.18L69.48 96.90L69.48 100L50.11 100L50.11 96.90L56.81 96.26L53.50 63.42L51.91 49.02L48.74 58.96L35.71 97.41L32.83 97.41L20.59 62.99L15.91 49.02L14.47 63.42L11.52 96.26L18.58 96.90L18.58 100L0.58 100L0.58 96.90L6.70 96.26ZM90.79 100.79Q82.44 100.79 77.94 95.07Q73.44 89.34 73.44 79.84L73.44 79.84Q73.44 73.72 75.82 68.97Q78.19 64.22 82.40 61.59Q86.62 58.96 91.87 58.96L91.87 58.96Q98.28 58.96 101.84 62.63Q105.41 66.30 105.70 73.22L105.70 73.22Q105.70 77.68 105.26 79.55L105.26 79.55L79.63 79.55Q79.63 87.11 83.05 91.90Q86.47 96.69 92.66 96.69L92.66 96.69Q95.69 96.69 98.86 95.61Q102.02 94.53 103.75 93.02L103.75 93.02L104.90 95.68Q102.82 97.84 98.82 99.32Q94.82 100.79 90.79 100.79L90.79 100.79ZM79.70 76.17L99.22 76.17Q99.43 74.66 99.43 73L99.43 73Q99.36 68.25 97.16 65.44Q94.97 62.63 90.43 62.63L90.43 62.63Q80.57 62.63 79.70 76.17L79.70 76.17ZM112.46 100L112.46 96.98L118.22 96.54L118.22 64.79L112.68 63.57L112.68 60.33L121.82 59.18L121.97 59.18L123.34 60.33L123.34 61.48L123.19 66.95L123.34 66.95Q123.48 66.81 125.24 64.76Q127.01 62.70 130.50 60.83Q133.99 58.96 137.52 58.96L137.52 58.96Q138.67 58.96 139.68 59.25L139.68 59.25L139.68 65.58Q139.39 65.37 138.42 65.15Q137.45 64.94 136.37 64.94L136.37 64.94Q132.26 64.94 129.38 66.16Q126.50 67.38 124.06 69.18L124.06 69.18L124.06 96.47L133.63 97.05L133.63 100L112.46 100ZM144.86 100L144.86 96.98L150.62 96.54L150.62 64.79L145.08 63.57L145.08 60.33L154.22 59.18L154.37 59.18L155.74 60.33L155.74 61.48L155.59 66.95L155.74 66.95Q155.88 66.81 157.64 64.76Q159.41 62.70 162.90 60.83Q166.39 58.96 169.92 58.96L169.92 58.96Q171.07 58.96 172.08 59.25L172.08 59.25L172.08 65.58Q171.79 65.37 170.82 65.15Q169.85 64.94 168.77 64.94L168.77 64.94Q164.66 64.94 161.78 66.16Q158.90 67.38 156.46 69.18L156.46 69.18L156.46 96.47L166.03 97.05L166.03 100L144.86 100ZM185.40 52.48Q181.51 52.48 181.51 48.38L181.51 48.38Q181.51 46.29 182.74 44.96Q183.96 43.62 186.05 43.62L186.05 43.62Q188.21 43.62 189.14 44.81Q190.08 46.00 190.08 47.73L190.08 47.73Q190.08 49.96 188.89 51.22Q187.70 52.48 185.47 52.48L185.47 52.48L185.40 52.48ZM183.10 96.33L183.10 64.79L177.48 63.57L177.48 60.33L187.34 59.18L187.49 59.18L188.93 60.33L188.93 96.40L195.19 96.90L195.19 100L176.76 100L176.76 96.90L183.10 96.33ZM196.85 62.99L196.85 60.04L212.47 60.04L212.47 62.99L206.71 63.86L213.12 86.25L215.50 96.26L217.87 86.18L225.07 60.04L231.05 60.04L238.25 86.18L240.55 96.33L243.14 86.25L249.48 63.93L243.94 62.99L243.94 60.04L258.05 60.04L258.05 62.99L254.09 63.93L242.86 100.58L237.02 100.58L229.18 73.79L227.16 64.72L225.43 73.79L217.87 100.58L212.18 100.58L200.66 63.86L196.85 62.99ZM278.14 100.79Q269.78 100.79 265.28 95.07Q260.78 89.34 260.78 79.84L260.78 79.84Q260.78 73.72 263.16 68.97Q265.54 64.22 269.75 61.59Q273.96 58.96 279.22 58.96L279.22 58.96Q285.62 58.96 289.19 62.63Q292.75 66.30 293.04 73.22L293.04 73.22Q293.04 77.68 292.61 79.55L292.61 79.55L266.98 79.55Q266.98 87.11 270.40 91.90Q273.82 96.69 280.01 96.69L280.01 96.69Q283.03 96.69 286.20 95.61Q289.37 94.53 291.10 93.02L291.10 93.02L292.25 95.68Q290.16 97.84 286.16 99.32Q282.17 100.79 278.14 100.79L278.14 100.79ZM267.05 76.17L286.56 76.17Q286.78 74.66 286.78 73L286.78 73Q286.70 68.25 284.51 65.44Q282.31 62.63 277.78 62.63L277.78 62.63Q267.91 62.63 267.05 76.17L267.05 76.17ZM299.95 89.49Q299.95 82.50 306.86 79.37Q313.78 76.24 324.07 76.02L324.07 76.02L324.07 73.79Q324.07 70.12 323.32 68.00Q322.56 65.87 320.69 64.90Q318.82 63.93 315.43 63.93L315.43 63.93Q311.76 63.93 308.77 65.04Q305.78 66.16 302.98 67.74L302.98 67.74L301.39 64.58Q302.18 63.86 304.70 62.56Q307.22 61.26 310.46 60.26Q313.70 59.25 316.73 59.25L316.73 59.25Q321.62 59.25 324.47 60.62Q327.31 61.98 328.57 65.01Q329.83 68.03 329.83 73.14L329.83 73.14L329.83 96.90L334.30 96.90L334.30 99.57Q330.34 100.65 327.60 100.65L327.60 100.65Q325.87 100.65 325.22 100.11Q324.58 99.57 324.58 97.62L324.58 97.62L324.58 94.96Q321.98 97.26 318.92 99.03Q315.86 100.79 311.98 100.79L311.98 100.79Q306.79 100.79 303.37 97.91Q299.95 95.03 299.95 89.49L299.95 89.49ZM314.14 96.54Q316.15 96.54 318.96 95.25Q321.77 93.95 324.07 92.15L324.07 92.15L324.07 79.41Q315.36 79.48 310.86 82Q306.36 84.52 306.36 88.77L306.36 88.77Q306.36 92.87 308.45 94.71Q310.54 96.54 314.14 96.54L314.14 96.54ZM352.08 100.79Q348.26 100.79 346.32 99.03Q344.38 97.26 344.38 92.73L344.38 92.73L344.38 64.29L338.90 64.29L338.90 61.48Q342.50 60.69 343.08 60.33L343.08 60.33Q344.16 59.75 344.66 58.10L344.66 58.10Q345.10 57.02 345.82 54.21Q346.54 51.40 346.90 49.82L346.90 49.82L350.21 49.82L350.21 60.04L362.95 60.04L362.95 64.29L350.21 64.29L350.21 87.62Q350.21 91.79 350.50 93.48Q350.78 95.18 351.65 95.68Q352.51 96.18 354.67 96.18L354.67 96.18Q356.76 96.18 359.35 95.61Q361.94 95.03 363.24 94.38L363.24 94.38L364.18 97.12Q362.52 98.42 358.70 99.60Q354.89 100.79 352.08 100.79L352.08 100.79ZM373.03 96.40L373.03 45.57L366.62 44.92L366.62 42.26L377.28 41.03L377.42 41.03L378.79 41.97L378.79 59.10L378.65 65.08Q380.95 62.99 385.13 61.05Q389.30 59.10 393.34 59.10L393.34 59.10Q397.87 59.10 400.39 60.83Q402.91 62.56 403.92 66.20Q404.93 69.83 404.93 76.02L404.93 76.02L404.93 96.33L410.18 96.90L410.18 100L394.06 100L394.06 96.90L399.10 96.33L399.10 75.95Q399.10 71.34 398.48 68.75Q397.87 66.16 396.07 64.86Q394.27 63.57 390.82 63.57L390.82 63.57Q387.94 63.57 384.62 64.97Q381.31 66.38 378.79 68.32L378.79 68.32L378.79 96.33L384.12 96.90L384.12 100L368.50 100L368.50 96.90L373.03 96.40ZM433.30 100.79Q424.94 100.79 420.44 95.07Q415.94 89.34 415.94 79.84L415.94 79.84Q415.94 73.72 418.32 68.97Q420.70 64.22 424.91 61.59Q429.12 58.96 434.38 58.96L434.38 58.96Q440.78 58.96 444.35 62.63Q447.91 66.30 448.20 73.22L448.20 73.22Q448.20 77.68 447.77 79.55L447.77 79.55L422.14 79.55Q422.14 87.11 425.56 91.90Q428.98 96.69 435.17 96.69L435.17 96.69Q438.19 96.69 441.36 95.61Q444.53 94.53 446.26 93.02L446.26 93.02L447.41 95.68Q445.32 97.84 441.32 99.32Q437.33 100.79 433.30 100.79L433.30 100.79ZM422.21 76.17L441.72 76.17Q441.94 74.66 441.94 73L441.94 73Q441.86 68.25 439.67 65.44Q437.47 62.63 432.94 62.63L432.94 62.63Q423.07 62.63 422.21 76.17L422.21 76.17ZM454.97 100L454.97 96.98L460.73 96.54L460.73 64.79L455.18 63.57L455.18 60.33L464.33 59.18L464.47 59.18L465.84 60.33L465.84 61.48L465.70 66.95L465.84 66.95Q465.98 66.81 467.75 64.76Q469.51 62.70 473.00 60.83Q476.50 58.96 480.02 58.96L480.02 58.96Q481.18 58.96 482.18 59.25L482.18 59.25L482.18 65.58Q481.90 65.37 480.92 65.15Q479.95 64.94 478.87 64.94L478.87 64.94Q474.77 64.94 471.89 66.16Q469.01 67.38 466.56 69.18L466.56 69.18L466.56 96.47L476.14 97.05L476.14 100L454.97 100ZM510.05 96.33L510.05 45.57L503.93 44.92L503.93 42.26L514.44 41.03L514.51 41.03L515.88 41.97L515.88 96.40L522.65 96.90L522.65 100L503.71 100L503.71 96.90L510.05 96.33ZM536.26 52.48Q532.37 52.48 532.37 48.38L532.37 48.38Q532.37 46.29 533.59 44.96Q534.82 43.62 536.90 43.62L536.90 43.62Q539.06 43.62 540.00 44.81Q540.94 46.00 540.94 47.73L540.94 47.73Q540.94 49.96 539.75 51.22Q538.56 52.48 536.33 52.48L536.33 52.48L536.26 52.48ZM533.95 96.33L533.95 64.79L528.34 63.57L528.34 60.33L538.20 59.18L538.34 59.18L539.78 60.33L539.78 96.40L546.05 96.90L546.05 100L527.62 100L527.62 96.90L533.95 96.33ZM568.22 119.44Q551.23 119.44 551.23 108.64L551.23 108.64Q551.23 105.40 553.21 102.74Q555.19 100.07 557.93 98.56L557.93 98.56Q554.54 96.76 554.54 92.58L554.54 92.58Q554.54 89.92 556.06 87.58Q557.57 85.24 559.94 84.02L559.94 84.02Q556.56 82.43 554.65 79.52Q552.74 76.60 552.74 72.71L552.74 72.71Q552.74 68.54 555.05 65.40Q557.35 62.27 561.06 60.62Q564.77 58.96 568.80 58.96L568.80 58.96Q575.50 58.96 579.53 61.91L579.53 61.91Q580.61 60.90 582.88 59.93Q585.14 58.96 587.74 58.96L587.74 58.96L590.11 58.96L590.11 64.29L581.90 64.29Q583.99 67.17 583.99 71.27L583.99 71.27Q583.99 75.52 581.83 78.80Q579.67 82.07 576.04 83.87Q572.40 85.67 568.01 85.67L568.01 85.67Q565.06 85.67 562.61 85.02L562.61 85.02Q561.31 86.03 560.56 87.36Q559.80 88.70 559.80 90.06L559.80 90.06Q559.80 92.80 561.56 93.88Q563.33 94.96 567.72 94.96L567.72 94.96L576.22 94.96Q582.91 94.96 586.12 97.55Q589.32 100.14 589.32 104.82L589.32 104.82Q589.32 108.71 586.51 112.06Q583.70 115.41 578.84 117.42Q573.98 119.44 568.22 119.44L568.22 119.44ZM568.73 82.14Q577.87 82.14 577.87 72.06L577.87 72.06Q577.87 62.49 568.37 62.49L568.37 62.49Q558.86 62.49 558.86 71.92L558.86 71.92Q558.86 76.46 561.31 79.30Q563.76 82.14 568.73 82.14L568.73 82.14ZM568.58 115.77Q572.47 115.77 576.00 114.65Q579.53 113.54 581.69 111.41Q583.85 109.29 583.85 106.48L583.85 106.48Q583.85 104.25 583.16 102.88Q582.48 101.51 580.50 100.76Q578.52 100 574.78 100L574.78 100L565.85 100Q562.39 100 560.59 99.57L560.59 99.57Q557.06 102.95 557.06 107.49L557.06 107.49Q557.06 111.59 559.66 113.68Q562.25 115.77 568.58 115.77L568.58 115.77ZM598.32 96.40L598.32 45.57L591.91 44.92L591.91 42.26L602.57 41.03L602.71 41.03L604.08 41.97L604.08 59.10L603.94 65.08Q606.24 62.99 610.42 61.05Q614.59 59.10 618.62 59.10L618.62 59.10Q623.16 59.10 625.68 60.83Q628.20 62.56 629.21 66.20Q630.22 69.83 630.22 76.02L630.22 76.02L630.22 96.33L635.47 96.90L635.47 100L619.34 100L619.34 96.90L624.38 96.33L624.38 75.95Q624.38 71.34 623.77 68.75Q623.16 66.16 621.36 64.86Q619.56 63.57 616.10 63.57L616.10 63.57Q613.22 63.57 609.91 64.97Q606.60 66.38 604.08 68.32L604.08 68.32L604.08 96.33L609.41 96.90L609.41 100L593.78 100L593.78 96.90L598.32 96.40ZM653.54 100.79Q649.73 100.79 647.78 99.03Q645.84 97.26 645.84 92.73L645.84 92.73L645.84 64.29L640.37 64.29L640.37 61.48Q643.97 60.69 644.54 60.33L644.54 60.33Q645.62 59.75 646.13 58.10L646.13 58.10Q646.56 57.02 647.28 54.21Q648.00 51.40 648.36 49.82L648.36 49.82L651.67 49.82L651.67 60.04L664.42 60.04L664.42 64.29L651.67 64.29L651.67 87.62Q651.67 91.79 651.96 93.48Q652.25 95.18 653.11 95.68Q653.98 96.18 656.14 96.18L656.14 96.18Q658.22 96.18 660.82 95.61Q663.41 95.03 664.70 94.38L664.70 94.38L665.64 97.12Q663.98 98.42 660.17 99.60Q656.35 100.79 653.54 100.79L653.54 100.79Z"/></svg>