<svg xmlns="http://www.w3.org/2000/svg" viewBox="0.07200000000000001 40.959999999999994 716.1120000000002 59.90400000000001"><path d="M6.05 94.53L11.30 52.55L3.67 51.54L3.67 46.50L28.15 46.50L35.78 76.60L37.51 84.59L38.95 76.60L46.51 46.50L70.85 46.50L70.85 51.54L63.00 52.55L68.76 94.46L74.30 95.25L74.30 100L50.04 100L50.04 95.25L56.16 94.46L53.14 63.42L51.84 50.75L49.32 62.27L39.89 97.91L30.46 97.91L20.38 63.28L17.06 50.68L16.20 63.42L13.54 94.46L20.88 95.25L20.88 100L0.07 100L0.07 95.25L6.05 94.53ZM96.05 100.79Q86.18 100.79 81.43 95.21Q76.68 89.63 76.68 79.98L76.68 79.98Q76.68 73.43 79.13 68.68Q81.58 63.93 86.00 61.44Q90.43 58.96 96.41 58.96L96.41 58.96Q103.97 58.96 107.96 62.78Q111.96 66.59 112.10 73.58L112.10 73.58Q112.10 78.18 111.46 80.99L111.46 80.99L88.92 80.99Q89.28 87.11 91.91 90.32Q94.54 93.52 99.29 93.52L99.29 93.52Q101.95 93.52 104.87 92.62Q107.78 91.72 109.58 90.57L109.58 90.57L111.60 94.96Q109.73 97.05 105.23 98.92Q100.73 100.79 96.05 100.79L96.05 100.79ZM88.85 76.24L100.66 76.24L100.73 73.22Q100.73 68.68 99.50 66.30Q98.28 63.93 95.33 63.93L95.33 63.93Q92.30 63.93 90.65 66.56Q88.99 69.18 88.85 76.24L88.85 76.24ZM117.43 100L117.43 95.25L121.82 94.60L121.82 67.53L117.58 66.23L117.58 60.62L129.53 59.03L129.74 59.03L131.76 60.54L131.76 62.27L131.54 68.25L131.76 68.25Q132.26 66.59 134.06 64.40Q135.86 62.20 138.64 60.58Q141.41 58.96 144.65 58.96L144.65 58.96Q146.52 58.96 147.53 59.46L147.53 59.46L147.53 71.99Q146.38 71.13 145.04 70.62Q143.71 70.12 141.62 70.12L141.62 70.12Q139.03 70.12 136.94 70.80Q134.86 71.49 133.63 72.35L133.63 72.35L133.63 94.60L141.55 95.32L141.55 100L117.43 100ZM151.99 100L151.99 95.25L156.38 94.60L156.38 67.53L152.14 66.23L152.14 60.62L164.09 59.03L164.30 59.03L166.32 60.54L166.32 62.27L166.10 68.25L166.32 68.25Q166.82 66.59 168.62 64.40Q170.42 62.20 173.20 60.58Q175.97 58.96 179.21 58.96L179.21 58.96Q181.08 58.96 182.09 59.46L182.09 59.46L182.09 71.99Q180.94 71.13 179.60 70.62Q178.27 70.12 176.18 70.12L176.18 70.12Q173.59 70.12 171.50 70.80Q169.42 71.49 168.19 72.35L168.19 72.35L168.19 94.60L176.11 95.32L176.11 100L151.99 100ZM195.26 53.78Q192.46 53.78 190.73 52.12Q189.00 50.46 189.00 47.87L189.00 47.87Q189.00 44.85 190.91 42.90Q192.82 40.96 196.06 40.96L196.06 40.96Q199.30 40.96 201.02 42.62Q202.75 44.27 202.75 46.86L202.75 46.86Q202.75 49.96 200.81 51.87Q198.86 53.78 195.34 53.78L195.34 53.78L195.26 53.78ZM190.87 94.60L190.87 67.53L186.05 66.16L186.05 60.76L200.45 59.03L200.59 59.03L202.82 60.54L202.82 94.60L207.14 95.25L207.14 100L186.41 100L186.41 95.25L190.87 94.60ZM207.79 64.58L207.79 60.04L227.52 60.04L227.52 64.58L222.70 65.37L227.59 83.30L229.10 90.42L230.40 83.30L236.59 60.04L246.31 60.04L253.44 83.30L254.95 90.35L256.39 83.30L260.93 65.44L255.74 64.58L255.74 60.04L271.58 60.04L271.58 64.58L268.13 65.37L257.26 100.58L248.11 100.58L240.98 78.54L239.47 70.19L238.39 78.54L231.98 100.58L222.62 100.58L211.18 65.37L207.79 64.58ZM291.24 100.79Q281.38 100.79 276.62 95.21Q271.87 89.63 271.87 79.98L271.87 79.98Q271.87 73.43 274.32 68.68Q276.77 63.93 281.20 61.44Q285.62 58.96 291.60 58.96L291.60 58.96Q299.16 58.96 303.16 62.78Q307.15 66.59 307.30 73.58L307.30 73.58Q307.30 78.18 306.65 80.99L306.65 80.99L284.11 80.99Q284.47 87.11 287.10 90.32Q289.73 93.52 294.48 93.52L294.48 93.52Q297.14 93.52 300.06 92.62Q302.98 91.72 304.78 90.57L304.78 90.57L306.79 94.96Q304.92 97.05 300.42 98.92Q295.92 100.79 291.24 100.79L291.24 100.79ZM284.04 76.24L295.85 76.24L295.92 73.22Q295.92 68.68 294.70 66.30Q293.47 63.93 290.52 63.93L290.52 63.93Q287.50 63.93 285.84 66.56Q284.18 69.18 284.04 76.24L284.04 76.24ZM311.54 88.48Q311.54 82.14 317.99 78.76Q324.43 75.38 334.94 75.30L334.94 75.30L334.94 73.86Q334.94 71.27 334.37 69.76Q333.79 68.25 332.28 67.49Q330.77 66.74 327.82 66.74L327.82 66.74Q324.29 66.74 321.52 67.56Q318.74 68.39 315.72 69.76L315.72 69.76L313.27 64.58Q314.42 63.64 317.02 62.31Q319.61 60.98 323.24 60.00Q326.88 59.03 330.84 59.03L330.84 59.03Q336.60 59.03 339.88 60.54Q343.15 62.06 344.56 65.22Q345.96 68.39 345.96 73.86L345.96 73.86L345.96 95.25L349.70 95.25L349.70 99.78Q348.05 100.14 345.10 100.50Q342.14 100.86 340.06 100.86L340.06 100.86Q337.32 100.86 336.42 100.07Q335.52 99.28 335.52 96.90L335.52 96.90L335.52 95.25Q333.72 97.41 330.70 99.10Q327.67 100.79 323.71 100.79L323.71 100.79Q320.33 100.79 317.56 99.32Q314.78 97.84 313.16 95.07Q311.54 92.30 311.54 88.48L311.54 88.48ZM329.33 94.17Q330.62 94.17 332.21 93.41Q333.79 92.66 334.94 91.58L334.94 91.58L334.94 80.13Q329.33 80.13 326.63 82.14Q323.93 84.16 323.93 87.33L323.93 87.33Q323.93 90.57 325.37 92.37Q326.81 94.17 329.33 94.17L329.33 94.17ZM365.76 100.65Q361.01 100.65 358.74 98.45Q356.47 96.26 356.47 91.65L356.47 91.65L356.47 66.02L352.08 66.02L352.08 61.84L353.52 61.26Q355.25 60.69 356.54 60.04L356.54 60.04Q357.98 58.67 358.85 56.44L358.85 56.44Q359.93 53.85 361.22 49.17L361.22 49.17L367.92 49.17L368.35 59.97L378.65 59.97L378.65 66.02L368.50 66.02L368.50 85.10Q368.50 89.06 368.71 90.64Q368.93 92.22 369.54 92.69Q370.15 93.16 371.81 93.16L371.81 93.16Q375.19 93.16 378.22 92.01L378.22 92.01L379.73 96.54Q377.71 98.20 373.75 99.42Q369.79 100.65 365.76 100.65L365.76 100.65ZM386.21 94.60L386.21 48.02L381.10 47.08L381.10 42.69L395.57 40.96L395.78 40.96L397.87 42.47L397.94 58.10L397.37 64.50Q399.60 62.42 403.27 60.80Q406.94 59.18 411.34 59.18L411.34 59.18Q415.87 59.18 418.39 60.83Q420.91 62.49 421.92 65.87Q422.93 69.26 422.93 74.87L422.93 74.87L422.93 94.60L427.32 95.25L427.32 100L407.30 100L407.30 95.25L411.12 94.60L411.12 74.94Q411.12 69.90 410.04 67.92Q408.96 65.94 405.65 65.94L405.65 65.94Q403.63 65.94 401.62 66.84Q399.60 67.74 398.23 69.04L398.23 69.04L398.23 94.60L402.19 95.25L402.19 100L382.46 100L382.46 95.25L386.21 94.60ZM450.29 100.79Q440.42 100.79 435.67 95.21Q430.92 89.63 430.92 79.98L430.92 79.98Q430.92 73.43 433.37 68.68Q435.82 63.93 440.24 61.44Q444.67 58.96 450.65 58.96L450.65 58.96Q458.21 58.96 462.20 62.78Q466.20 66.59 466.34 73.58L466.34 73.58Q466.34 78.18 465.70 80.99L465.70 80.99L443.16 80.99Q443.52 87.11 446.15 90.32Q448.78 93.52 453.53 93.52L453.53 93.52Q456.19 93.52 459.11 92.62Q462.02 91.72 463.82 90.57L463.82 90.57L465.84 94.96Q463.97 97.05 459.47 98.92Q454.97 100.79 450.29 100.79L450.29 100.79ZM443.09 76.24L454.90 76.24L454.97 73.22Q454.97 68.68 453.74 66.30Q452.52 63.93 449.57 63.93L449.57 63.93Q446.54 63.93 444.89 66.56Q443.23 69.18 443.09 76.24L443.09 76.24ZM471.67 100L471.67 95.25L476.06 94.60L476.06 67.53L471.82 66.23L471.82 60.62L483.77 59.03L483.98 59.03L486.00 60.54L486.00 62.27L485.78 68.25L486.00 68.25Q486.50 66.59 488.30 64.40Q490.10 62.20 492.88 60.58Q495.65 58.96 498.89 58.96L498.89 58.96Q500.76 58.96 501.77 59.46L501.77 59.46L501.77 71.99Q500.62 71.13 499.28 70.62Q497.95 70.12 495.86 70.12L495.86 70.12Q493.27 70.12 491.18 70.80Q489.10 71.49 487.87 72.35L487.87 72.35L487.87 94.60L495.79 95.32L495.79 100L471.67 100ZM520.27 46.86L520.27 42.69L534.46 40.96L534.60 40.96L536.90 42.40L536.90 63.42Q538.78 61.48 541.51 60.22Q544.25 58.96 547.34 58.96L547.34 58.96Q554.26 58.96 558.54 63.82Q562.82 68.68 562.82 78.69L562.82 78.69Q562.82 84.95 560.20 89.99Q557.57 95.03 552.67 97.91Q547.78 100.79 541.22 100.79L541.22 100.79Q535.03 100.79 530.86 99.82Q526.68 98.85 525.38 98.06L525.38 98.06L525.38 47.80L520.27 46.86ZM542.88 66.02Q541.08 66.02 539.50 66.81Q537.91 67.60 536.90 68.68L536.90 68.68L536.90 94.74Q537.19 95.46 538.52 95.90Q539.86 96.33 541.58 96.33L541.58 96.33Q545.62 96.33 547.99 92.08Q550.37 87.83 550.37 79.55L550.37 79.55Q550.37 72.57 548.35 69.29Q546.34 66.02 542.88 66.02L542.88 66.02ZM571.97 94.60L571.97 48.02L566.93 47.08L566.93 42.69L581.33 40.96L581.54 40.96L583.63 42.47L583.63 94.60L588.31 95.25L588.31 100L567.36 100L567.36 95.25L571.97 94.60ZM591.98 88.48Q591.98 82.14 598.43 78.76Q604.87 75.38 615.38 75.30L615.38 75.30L615.38 73.86Q615.38 71.27 614.81 69.76Q614.23 68.25 612.72 67.49Q611.21 66.74 608.26 66.74L608.26 66.74Q604.73 66.74 601.96 67.56Q599.18 68.39 596.16 69.76L596.16 69.76L593.71 64.58Q594.86 63.64 597.46 62.31Q600.05 60.98 603.68 60.00Q607.32 59.03 611.28 59.03L611.28 59.03Q617.04 59.03 620.32 60.54Q623.59 62.06 625.00 65.22Q626.40 68.39 626.40 73.86L626.40 73.86L626.40 95.25L630.14 95.25L630.14 99.78Q628.49 100.14 625.54 100.50Q622.58 100.86 620.50 100.86L620.50 100.86Q617.76 100.86 616.86 100.07Q615.96 99.28 615.96 96.90L615.96 96.90L615.96 95.25Q614.16 97.41 611.14 99.10Q608.11 100.79 604.15 100.79L604.15 100.79Q600.77 100.79 598.00 99.32Q595.22 97.84 593.60 95.07Q591.98 92.30 591.98 88.48L591.98 88.48ZM609.77 94.17Q611.06 94.17 612.65 93.41Q614.23 92.66 615.38 91.58L615.38 91.58L615.38 80.13Q609.77 80.13 607.07 82.14Q604.37 84.16 604.37 87.33L604.37 87.33Q604.37 90.57 605.81 92.37Q607.25 94.17 609.77 94.17L609.77 94.17ZM633.24 80.27Q633.24 73.86 635.83 69.04Q638.42 64.22 643.10 61.59Q647.78 58.96 653.90 58.96L653.90 58.96Q656.93 58.96 659.12 59.36Q661.32 59.75 663.62 60.47L663.62 60.47Q665.71 61.05 666.22 61.12L666.22 61.12L665.71 74.15L658.44 74.15L656.57 65.87Q656.35 64.94 655.38 64.54Q654.41 64.14 653.04 64.14L653.04 64.14Q649.66 64.14 647.75 67.46Q645.84 70.77 645.84 78.47L645.84 78.47Q645.84 85.82 648.25 89.74Q650.66 93.66 654.77 93.66L654.77 93.66Q660.10 93.66 664.56 90.93L664.56 90.93L666.50 95.18Q664.78 97.12 660.82 98.96Q656.86 100.79 652.03 100.79L652.03 100.79Q642.60 100.79 637.92 95.21Q633.24 89.63 633.24 80.27L633.24 80.27ZM674.93 94.60L674.93 48.02L670.03 47.08L670.03 42.69L684.36 40.96L684.58 40.96L686.66 42.47L686.66 76.10L686.45 79.62L699.98 65.37L694.66 64.58L694.66 60.04L714.24 60.04L714.24 64.58L708.34 65.51L700.56 72.93L712.44 94.60L716.18 95.25L716.18 100L696.17 100L696.17 95.25L699.41 94.60L692.28 80.34L686.45 86.39L686.59 90.06L686.59 94.60L690.77 95.25L690.77 100L670.97 100L670.97 95.25L674.93 94.60Z"/></svg>