<svg xmlns="http://www.w3.org/2000/svg" viewBox="5.472 46.57599999999999 958.6800000000003 67.608"><path d="M63.72 49.60L65.88 49.60L55.80 100L53.42 100L62.42 54.86L33.12 93.02L31.90 93.02L16.99 54.35L7.85 100L5.47 100L15.55 49.60L17.57 49.60L32.98 89.78L63.72 49.60ZM88.42 100.22Q80.93 100.22 76.57 96.08Q72.22 91.94 72.22 84.88L72.22 84.88Q72.22 78.47 74.95 73.36Q77.69 68.25 82.51 65.30Q87.34 62.34 93.46 62.34L93.46 62.34Q100.87 62.34 105.26 66.52Q109.66 70.70 109.66 77.75L109.66 77.75Q109.66 84.16 106.92 89.27Q104.18 94.38 99.36 97.30Q94.54 100.22 88.42 100.22L88.42 100.22ZM88.70 98.06Q94.03 98.06 98.24 95.46Q102.46 92.87 104.87 88.23Q107.28 83.58 107.28 77.82L107.28 77.82Q107.28 71.49 103.57 68.03Q99.86 64.58 93.24 64.58L93.24 64.58Q87.91 64.58 83.66 67.20Q79.42 69.83 77.00 74.44Q74.59 79.05 74.59 84.81L74.59 84.81Q74.59 91.14 78.30 94.60Q82.01 98.06 88.70 98.06L88.70 98.06ZM141.62 62.34Q148.03 62.34 151.42 65.48Q154.80 68.61 154.80 74.08L154.80 74.08Q154.80 75.95 154.37 78.11L154.37 78.11L149.98 100L147.60 100L151.99 78.11Q152.35 76.46 152.35 74.44L152.35 74.44Q152.35 69.69 149.51 67.13Q146.66 64.58 141.12 64.58L141.12 64.58Q134.28 64.58 129.74 68.39Q125.21 72.21 123.77 79.41L123.77 79.41L119.66 100L117.29 100L124.70 62.63L127.08 62.63L125.50 70.70Q128.16 66.45 132.30 64.40Q136.44 62.34 141.62 62.34L141.62 62.34ZM175.61 64.72L170.64 89.63Q170.28 91.43 170.28 92.51L170.28 92.51Q170.28 98.13 176.40 98.13L176.40 98.13Q179.93 98.13 182.74 95.90L182.74 95.90L183.67 97.62Q182.09 98.92 180.07 99.57Q178.06 100.22 175.97 100.22L175.97 100.22Q172.08 100.22 169.99 98.27Q167.90 96.33 167.90 92.80L167.90 92.80Q167.90 91.29 168.19 89.92L168.19 89.92L173.23 64.72L166.18 64.72L166.54 62.63L173.59 62.63L175.25 54.42L177.62 54.42L175.97 62.63L188.28 62.63L187.92 64.72L175.61 64.72ZM203.33 100.22Q199.08 100.22 195.16 98.88Q191.23 97.55 189.14 95.39L189.14 95.39L190.58 93.52Q192.74 95.61 196.20 96.87Q199.66 98.13 203.47 98.13L203.47 98.13Q209.66 98.13 213.12 95.82Q216.58 93.52 216.58 89.49L216.58 89.49Q216.58 87.18 215.21 85.85Q213.84 84.52 211.82 83.84Q209.81 83.15 206.42 82.43L206.42 82.43Q202.61 81.64 200.27 80.81Q197.93 79.98 196.31 78.18Q194.69 76.38 194.69 73.36L194.69 73.36Q194.69 68.39 198.83 65.37Q202.97 62.34 209.81 62.34L209.81 62.34Q213.34 62.34 216.61 63.39Q219.89 64.43 221.83 66.16L221.83 66.16L220.54 67.96Q218.52 66.30 215.64 65.40Q212.76 64.50 209.59 64.50L209.59 64.50Q203.83 64.50 200.45 66.88Q197.06 69.26 197.06 73.22L197.06 73.22Q197.06 75.59 198.43 76.96Q199.80 78.33 201.78 78.98Q203.76 79.62 207.36 80.42L207.36 80.42Q211.25 81.28 213.52 82.07Q215.78 82.86 217.37 84.59Q218.95 86.32 218.95 89.27L218.95 89.27Q218.95 94.38 214.74 97.30Q210.53 100.22 203.33 100.22L203.33 100.22ZM262.08 81.64L229.25 81.64Q229.10 83.66 229.10 84.66L229.10 84.66Q229.10 91.14 232.85 94.60Q236.59 98.06 243.72 98.06L243.72 98.06Q247.75 98.06 251.21 96.65Q254.66 95.25 256.97 92.73L256.97 92.73L258.12 94.38Q255.82 97.12 251.93 98.67Q248.04 100.22 243.50 100.22L243.50 100.22Q235.66 100.22 231.23 96.15Q226.80 92.08 226.80 84.74L226.80 84.74Q226.80 78.47 229.43 73.32Q232.06 68.18 236.66 65.26Q241.27 62.34 246.96 62.34L246.96 62.34Q254.16 62.34 258.30 66.45Q262.44 70.55 262.44 77.75L262.44 77.75Q262.44 79.70 262.08 81.64L262.08 81.64ZM246.89 64.50Q240.41 64.50 235.69 68.68Q230.98 72.86 229.61 79.62L229.61 79.62L260.14 79.62Q260.28 78.04 260.28 77.32L260.28 77.32Q260.28 71.27 256.61 67.89Q252.94 64.50 246.89 64.50L246.89 64.50ZM278.35 71.34Q283.39 62.34 294.62 62.34L294.62 62.34L294.19 64.72L293.33 64.72Q286.63 64.72 282.38 68.75Q278.14 72.78 276.55 80.63L276.55 80.63L272.66 100L270.29 100L277.70 62.63L280.08 62.63L278.35 71.34ZM305.64 71.34Q310.68 62.34 321.91 62.34L321.91 62.34L321.48 64.72L320.62 64.72Q313.92 64.72 309.67 68.75Q305.42 72.78 303.84 80.63L303.84 80.63L299.95 100L297.58 100L304.99 62.63L307.37 62.63L305.64 71.34ZM362.09 62.63L364.46 62.63L357.05 100L354.67 100L356.40 91.50Q353.66 95.61 349.34 97.91Q345.02 100.22 339.70 100.22L339.70 100.22Q332.35 100.22 328.00 96.08Q323.64 91.94 323.64 84.88L323.64 84.88Q323.64 78.47 326.38 73.36Q329.11 68.25 333.94 65.30Q338.76 62.34 344.81 62.34L344.81 62.34Q351.07 62.34 354.96 65.22Q358.85 68.10 359.93 73.36L359.93 73.36L362.09 62.63ZM340.13 98.06Q345.46 98.06 349.67 95.46Q353.88 92.87 356.29 88.23Q358.70 83.58 358.70 77.82L358.70 77.82Q358.70 71.49 355.00 68.03Q351.29 64.58 344.66 64.58L344.66 64.58Q339.34 64.58 335.09 67.20Q330.84 69.83 328.43 74.44Q326.02 79.05 326.02 84.81L326.02 84.81Q326.02 91.14 329.72 94.60Q333.43 98.06 340.13 98.06L340.13 98.06ZM383.04 64.72L378.07 89.63Q377.71 91.43 377.71 92.51L377.71 92.51Q377.71 98.13 383.83 98.13L383.83 98.13Q387.36 98.13 390.17 95.90L390.17 95.90L391.10 97.62Q389.52 98.92 387.50 99.57Q385.49 100.22 383.40 100.22L383.40 100.22Q379.51 100.22 377.42 98.27Q375.34 96.33 375.34 92.80L375.34 92.80Q375.34 91.29 375.62 89.92L375.62 89.92L380.66 64.72L373.61 64.72L373.97 62.63L381.02 62.63L382.68 54.42L385.06 54.42L383.40 62.63L395.71 62.63L395.35 64.72L383.04 64.72ZM453.89 81.64L421.06 81.64Q420.91 83.66 420.91 84.66L420.91 84.66Q420.91 91.14 424.66 94.60Q428.40 98.06 435.53 98.06L435.53 98.06Q439.56 98.06 443.02 96.65Q446.47 95.25 448.78 92.73L448.78 92.73L449.93 94.38Q447.62 97.12 443.74 98.67Q439.85 100.22 435.31 100.22L435.31 100.22Q427.46 100.22 423.04 96.15Q418.61 92.08 418.61 84.74L418.61 84.74Q418.61 78.47 421.24 73.32Q423.86 68.18 428.47 65.26Q433.08 62.34 438.77 62.34L438.77 62.34Q445.97 62.34 450.11 66.45Q454.25 70.55 454.25 77.75L454.25 77.75Q454.25 79.70 453.89 81.64L453.89 81.64ZM438.70 64.50Q432.22 64.50 427.50 68.68Q422.78 72.86 421.42 79.62L421.42 79.62L451.94 79.62Q452.09 78.04 452.09 77.32L452.09 77.32Q452.09 71.27 448.42 67.89Q444.74 64.50 438.70 64.50L438.70 64.50ZM494.14 62.63L476.35 80.85L487.66 100L484.99 100L474.84 82.43L457.85 100L454.82 100L473.69 80.70L463.18 62.63L465.77 62.63L475.34 79.05L491.26 62.63L494.14 62.63ZM507.60 64.72L502.63 89.63Q502.27 91.43 502.27 92.51L502.27 92.51Q502.27 98.13 508.39 98.13L508.39 98.13Q511.92 98.13 514.73 95.90L514.73 95.90L515.66 97.62Q514.08 98.92 512.06 99.57Q510.05 100.22 507.96 100.22L507.96 100.22Q504.07 100.22 501.98 98.27Q499.90 96.33 499.90 92.80L499.90 92.80Q499.90 91.29 500.18 89.92L500.18 89.92L505.22 64.72L498.17 64.72L498.53 62.63L505.58 62.63L507.24 54.42L509.62 54.42L507.96 62.63L520.27 62.63L519.91 64.72L507.60 64.72ZM533.81 71.34Q538.85 62.34 550.08 62.34L550.08 62.34L549.65 64.72L548.78 64.72Q542.09 64.72 537.84 68.75Q533.59 72.78 532.01 80.63L532.01 80.63L528.12 100L525.74 100L533.16 62.63L535.54 62.63L533.81 71.34ZM590.26 62.63L592.63 62.63L585.22 100L582.84 100L584.57 91.50Q581.83 95.61 577.51 97.91Q573.19 100.22 567.86 100.22L567.86 100.22Q560.52 100.22 556.16 96.08Q551.81 91.94 551.81 84.88L551.81 84.88Q551.81 78.47 554.54 73.36Q557.28 68.25 562.10 65.30Q566.93 62.34 572.98 62.34L572.98 62.34Q579.24 62.34 583.13 65.22Q587.02 68.10 588.10 73.36L588.10 73.36L590.26 62.63ZM568.30 98.06Q573.62 98.06 577.84 95.46Q582.05 92.87 584.46 88.23Q586.87 83.58 586.87 77.82L586.87 77.82Q586.87 71.49 583.16 68.03Q579.46 64.58 572.83 64.58L572.83 64.58Q567.50 64.58 563.26 67.20Q559.01 69.83 556.60 74.44Q554.18 79.05 554.18 84.81L554.18 84.81Q554.18 91.14 557.89 94.60Q561.60 98.06 568.30 98.06L568.30 98.06ZM619.34 100L630.00 46.58L632.38 46.58L621.72 100L619.34 100ZM637.70 100L645.12 62.63L647.50 62.63L640.08 100L637.70 100ZM648.58 52.84Q647.64 52.84 647.03 52.19Q646.42 51.54 646.42 50.68L646.42 50.68Q646.42 49.67 647.14 48.92Q647.86 48.16 648.86 48.16L648.86 48.16Q649.80 48.16 650.45 48.81Q651.10 49.46 651.10 50.32L651.10 50.32Q651.10 51.33 650.34 52.08Q649.58 52.84 648.58 52.84L648.58 52.84ZM694.22 62.63L696.53 62.63L689.83 96.40Q687.96 105.76 682.96 109.97Q677.95 114.18 668.95 114.18L668.95 114.18Q663.84 114.18 659.77 112.60Q655.70 111.02 653.11 108.14L653.11 108.14L654.84 106.41Q657.00 109.14 660.74 110.58Q664.49 112.02 669.10 112.02L669.10 112.02Q676.94 112.02 681.37 108.32Q685.80 104.61 687.38 96.76L687.38 96.76L688.82 89.70Q686.09 93.88 681.62 96.29Q677.16 98.70 671.62 98.70L671.62 98.70Q664.13 98.70 659.74 94.74Q655.34 90.78 655.34 84.02L655.34 84.02Q655.34 77.90 658.08 72.93Q660.82 67.96 665.68 65.15Q670.54 62.34 676.66 62.34L676.66 62.34Q682.99 62.34 687.02 65.22Q691.06 68.10 692.06 73.36L692.06 73.36L694.22 62.63ZM671.90 96.54Q677.23 96.54 681.55 94.02Q685.87 91.50 688.28 87.11Q690.70 82.72 690.70 77.25L690.70 77.25Q690.70 71.20 686.99 67.89Q683.28 64.58 676.51 64.58L676.51 64.58Q671.18 64.58 666.90 67.10Q662.62 69.62 660.17 74.01Q657.72 78.40 657.72 83.87L657.72 83.87Q657.72 89.92 661.46 93.23Q665.21 96.54 671.90 96.54L671.90 96.54ZM729.29 62.34Q735.70 62.34 739.08 65.48Q742.46 68.61 742.46 74.08L742.46 74.08Q742.46 75.95 742.03 78.11L742.03 78.11L737.64 100L735.26 100L739.66 78.11Q740.02 76.46 740.02 74.44L740.02 74.44Q740.02 69.69 737.17 67.13Q734.33 64.58 728.78 64.58L728.78 64.58Q721.94 64.58 717.41 68.39Q712.87 72.21 711.43 79.41L711.43 79.41L707.33 100L704.95 100L715.61 46.58L717.98 46.58L713.16 70.62Q715.82 66.45 719.96 64.40Q724.10 62.34 729.29 62.34L729.29 62.34ZM763.27 64.72L758.30 89.63Q757.94 91.43 757.94 92.51L757.94 92.51Q757.94 98.13 764.06 98.13L764.06 98.13Q767.59 98.13 770.40 95.90L770.40 95.90L771.34 97.62Q769.75 98.92 767.74 99.57Q765.72 100.22 763.63 100.22L763.63 100.22Q759.74 100.22 757.66 98.27Q755.57 96.33 755.57 92.80L755.57 92.80Q755.57 91.29 755.86 89.92L755.86 89.92L760.90 64.72L753.84 64.72L754.20 62.63L761.26 62.63L762.91 54.42L765.29 54.42L763.63 62.63L775.94 62.63L775.58 64.72L763.27 64.72ZM799.63 100L807.05 62.63L809.42 62.63L802.01 100L799.63 100ZM810.50 52.84Q809.57 52.84 808.96 52.19Q808.34 51.54 808.34 50.68L808.34 50.68Q808.34 49.67 809.06 48.92Q809.78 48.16 810.79 48.16L810.79 48.16Q811.73 48.16 812.38 48.81Q813.02 49.46 813.02 50.32L813.02 50.32Q813.02 51.33 812.27 52.08Q811.51 52.84 810.50 52.84L810.50 52.84ZM828.07 64.72L823.10 89.63Q822.74 91.43 822.74 92.51L822.74 92.51Q822.74 98.13 828.86 98.13L828.86 98.13Q832.39 98.13 835.20 95.90L835.20 95.90L836.14 97.62Q834.55 98.92 832.54 99.57Q830.52 100.22 828.43 100.22L828.43 100.22Q824.54 100.22 822.46 98.27Q820.37 96.33 820.37 92.80L820.37 92.80Q820.37 91.29 820.66 89.92L820.66 89.92L825.70 64.72L818.64 64.72L819.00 62.63L826.06 62.63L827.71 54.42L830.09 54.42L828.43 62.63L840.74 62.63L840.38 64.72L828.07 64.72ZM882.36 62.63L884.74 62.63L877.32 100L874.94 100L876.67 91.50Q873.94 95.61 869.62 97.91Q865.30 100.22 859.97 100.22L859.97 100.22Q852.62 100.22 848.27 96.08Q843.91 91.94 843.91 84.88L843.91 84.88Q843.91 78.47 846.65 73.36Q849.38 68.25 854.21 65.30Q859.03 62.34 865.08 62.34L865.08 62.34Q871.34 62.34 875.23 65.22Q879.12 68.10 880.20 73.36L880.20 73.36L882.36 62.63ZM860.40 98.06Q865.73 98.06 869.94 95.46Q874.15 92.87 876.56 88.23Q878.98 83.58 878.98 77.82L878.98 77.82Q878.98 71.49 875.27 68.03Q871.56 64.58 864.94 64.58L864.94 64.58Q859.61 64.58 855.36 67.20Q851.11 69.83 848.70 74.44Q846.29 79.05 846.29 84.81L846.29 84.81Q846.29 91.14 850.00 94.60Q853.70 98.06 860.40 98.06L860.40 98.06ZM893.23 100L903.89 46.58L906.26 46.58L895.61 100L893.23 100ZM911.59 100L919.01 62.63L921.38 62.63L913.97 100L911.59 100ZM922.46 52.84Q921.53 52.84 920.92 52.19Q920.30 51.54 920.30 50.68L920.30 50.68Q920.30 49.67 921.02 48.92Q921.74 48.16 922.75 48.16L922.75 48.16Q923.69 48.16 924.34 48.81Q924.98 49.46 924.98 50.32L924.98 50.32Q924.98 51.33 924.23 52.08Q923.47 52.84 922.46 52.84L922.46 52.84ZM945.65 100.22Q937.94 100.22 933.52 96.11Q929.09 92.01 929.09 84.88L929.09 84.88Q929.09 78.47 931.82 73.32Q934.56 68.18 939.42 65.26Q944.28 62.34 950.40 62.34L950.40 62.34Q955.22 62.34 958.75 64.04Q962.28 65.73 964.15 68.97L964.15 68.97L962.28 70.26Q958.68 64.58 950.26 64.58L950.26 64.58Q944.93 64.58 940.61 67.20Q936.29 69.83 933.88 74.44Q931.46 79.05 931.46 84.81L931.46 84.81Q931.46 91.14 935.21 94.60Q938.95 98.06 945.86 98.06L945.86 98.06Q949.75 98.06 953.14 96.62Q956.52 95.18 958.75 92.51L958.75 92.51L960.34 93.95Q957.96 96.90 954.04 98.56Q950.11 100.22 945.65 100.22L945.65 100.22Z"/></svg>