<svg xmlns="http://www.w3.org/2000/svg" viewBox="4.464 46.57599999999999 594.0000000000001 53.784000000000006"><path d="M62.21 49.60L66.89 49.60L56.81 100L51.70 100L59.69 60.04L33.62 93.59L31.10 93.59L17.64 59.39L9.58 100L4.46 100L14.54 49.60L18.86 49.60L33.41 87.04L62.21 49.60ZM88.99 100.36Q83.81 100.36 79.92 98.38Q76.03 96.40 73.91 92.76Q71.78 89.13 71.78 84.30L71.78 84.30Q71.78 77.90 74.59 72.78Q77.40 67.67 82.40 64.76Q87.41 61.84 93.67 61.84L93.67 61.84Q101.59 61.84 106.24 66.16Q110.88 70.48 110.88 77.82L110.88 77.82Q110.88 84.23 108.07 89.38Q105.26 94.53 100.26 97.44Q95.26 100.36 88.99 100.36L88.99 100.36ZM89.35 95.82Q94.03 95.82 97.78 93.56Q101.52 91.29 103.64 87.22Q105.77 83.15 105.77 78.11L105.77 78.11Q105.77 72.57 102.49 69.44Q99.22 66.30 93.31 66.30L93.31 66.30Q88.63 66.30 84.89 68.61Q81.14 70.91 79.02 74.98Q76.90 79.05 76.90 84.09L76.90 84.09Q76.90 89.63 80.17 92.73Q83.45 95.82 89.35 95.82L89.35 95.82ZM143.28 61.84Q149.69 61.84 153.25 65.12Q156.82 68.39 156.82 74.15L156.82 74.15Q156.82 76.17 156.38 78.47L156.38 78.47L152.06 100L146.95 100L151.27 78.40Q151.63 76.38 151.63 74.94L151.63 74.94Q151.63 70.84 149.15 68.64Q146.66 66.45 141.84 66.45L141.84 66.45Q135.72 66.45 131.76 69.80Q127.80 73.14 126.43 79.70L126.43 79.70L122.40 100L117.29 100L124.78 62.13L129.67 62.13L128.45 68.18Q133.85 61.84 143.28 61.84L143.28 61.84ZM178.63 66.45L174.24 88.55Q173.95 90.28 173.95 90.93L173.95 90.93Q173.95 95.97 179.42 95.97L179.42 95.97Q182.66 95.97 185.26 94.02L185.26 94.02L186.48 97.91Q183.24 100.36 178.06 100.36L178.06 100.36Q173.81 100.36 171.32 98.06Q168.84 95.75 168.84 91.72L168.84 91.72Q168.84 90.14 169.13 88.77L169.13 88.77L173.52 66.45L166.82 66.45L167.62 62.13L174.38 62.13L176.04 53.85L181.15 53.85L179.50 62.13L191.02 62.13L190.15 66.45L178.63 66.45ZM206.28 100.36Q201.74 100.36 197.60 99.06Q193.46 97.77 191.23 95.75L191.23 95.75L193.68 91.72Q195.84 93.59 199.37 94.74Q202.90 95.90 206.78 95.90L206.78 95.90Q212.18 95.90 215.10 94.13Q218.02 92.37 218.02 89.13L218.02 89.13Q218.02 87.33 216.83 86.25Q215.64 85.17 213.91 84.59Q212.18 84.02 208.87 83.30L208.87 83.30Q204.91 82.43 202.46 81.57Q200.02 80.70 198.29 78.83Q196.56 76.96 196.56 73.65L196.56 73.65Q196.56 68.25 201.02 65.04Q205.49 61.84 212.98 61.84L212.98 61.84Q216.65 61.84 220.14 62.81Q223.63 63.78 225.79 65.37L225.79 65.37L223.63 69.47Q221.47 67.89 218.56 67.06Q215.64 66.23 212.54 66.23L212.54 66.23Q207.36 66.23 204.48 68.10Q201.60 69.98 201.60 73.14L201.60 73.14Q201.60 75.02 202.82 76.17Q204.05 77.32 205.88 77.90Q207.72 78.47 210.89 79.12L210.89 79.12Q214.78 79.98 217.19 80.81Q219.60 81.64 221.33 83.51Q223.06 85.38 223.06 88.55L223.06 88.55Q223.06 94.10 218.48 97.23Q213.91 100.36 206.28 100.36L206.28 100.36ZM267.05 82.50L235.22 82.50Q235.15 83.01 235.15 84.02L235.15 84.02Q235.15 89.78 238.43 92.80Q241.70 95.82 248.18 95.82L248.18 95.82Q251.93 95.82 255.20 94.56Q258.48 93.30 260.57 91.07L260.57 91.07L262.87 94.74Q260.21 97.41 256.21 98.88Q252.22 100.36 247.75 100.36L247.75 100.36Q239.54 100.36 234.83 96.04Q230.11 91.72 230.11 84.23L230.11 84.23Q230.11 77.90 232.81 72.78Q235.51 67.67 240.30 64.76Q245.09 61.84 251.06 61.84L251.06 61.84Q258.62 61.84 263.09 66.12Q267.55 70.41 267.55 77.90L267.55 77.90Q267.55 79.98 267.05 82.50L267.05 82.50ZM250.92 66.16Q245.23 66.16 241.20 69.54Q237.17 72.93 235.73 78.69L235.73 78.69L262.73 78.69Q262.80 78.18 262.80 77.32L262.80 77.32Q262.80 71.99 259.56 69.08Q256.32 66.16 250.92 66.16L250.92 66.16ZM285.05 69.04Q287.57 65.37 291.38 63.60Q295.20 61.84 300.60 61.84L300.60 61.84L299.66 66.81L298.22 66.74Q292.10 66.74 288.18 70.26Q284.26 73.79 282.89 80.78L282.89 80.78L279.07 100L273.96 100L281.45 62.13L286.34 62.13L285.05 69.04ZM313.34 69.04Q315.86 65.37 319.68 63.60Q323.50 61.84 328.90 61.84L328.90 61.84L327.96 66.81L326.52 66.74Q320.40 66.74 316.48 70.26Q312.55 73.79 311.18 80.78L311.18 80.78L307.37 100L302.26 100L309.74 62.13L314.64 62.13L313.34 69.04ZM367.20 62.13L372.31 62.13L364.75 100L359.86 100L361.08 94.02Q358.34 97.05 354.60 98.70Q350.86 100.36 346.32 100.36L346.32 100.36Q341.50 100.36 337.75 98.42Q334.01 96.47 331.92 92.84Q329.83 89.20 329.83 84.30L329.83 84.30Q329.83 77.90 332.60 72.78Q335.38 67.67 340.27 64.76Q345.17 61.84 351.22 61.84L351.22 61.84Q356.62 61.84 360.29 63.96Q363.96 66.09 365.62 70.05L365.62 70.05L367.20 62.13ZM347.40 95.82Q352.08 95.82 355.82 93.56Q359.57 91.29 361.69 87.22Q363.82 83.15 363.82 78.11L363.82 78.11Q363.82 72.57 360.54 69.44Q357.26 66.30 351.36 66.30L351.36 66.30Q346.68 66.30 342.94 68.61Q339.19 70.91 337.07 74.98Q334.94 79.05 334.94 84.09L334.94 84.09Q334.94 89.63 338.22 92.73Q341.50 95.82 347.40 95.82L347.40 95.82ZM391.61 66.45L387.22 88.55Q386.93 90.28 386.93 90.93L386.93 90.93Q386.93 95.97 392.40 95.97L392.40 95.97Q395.64 95.97 398.23 94.02L398.23 94.02L399.46 97.91Q396.22 100.36 391.03 100.36L391.03 100.36Q386.78 100.36 384.30 98.06Q381.82 95.75 381.82 91.72L381.82 91.72Q381.82 90.14 382.10 88.77L382.10 88.77L386.50 66.45L379.80 66.45L380.59 62.13L387.36 62.13L389.02 53.85L394.13 53.85L392.47 62.13L403.99 62.13L403.13 66.45L391.61 66.45ZM427.10 100L434.59 62.13L439.70 62.13L432.22 100L427.10 100ZM439.34 53.85Q437.83 53.85 436.86 52.84Q435.89 51.83 435.89 50.46L435.89 50.46Q435.89 48.81 437.00 47.69Q438.12 46.58 439.85 46.58L439.85 46.58Q441.36 46.58 442.37 47.55Q443.38 48.52 443.38 49.82L443.38 49.82Q443.38 51.54 442.22 52.70Q441.07 53.85 439.34 53.85L439.34 53.85ZM459.07 66.45L454.68 88.55Q454.39 90.28 454.39 90.93L454.39 90.93Q454.39 95.97 459.86 95.97L459.86 95.97Q463.10 95.97 465.70 94.02L465.70 94.02L466.92 97.91Q463.68 100.36 458.50 100.36L458.50 100.36Q454.25 100.36 451.76 98.06Q449.28 95.75 449.28 91.72L449.28 91.72Q449.28 90.14 449.57 88.77L449.57 88.77L453.96 66.45L447.26 66.45L448.06 62.13L454.82 62.13L456.48 53.85L461.59 53.85L459.94 62.13L471.46 62.13L470.59 66.45L459.07 66.45ZM511.34 62.13L516.46 62.13L508.90 100L504.00 100L505.22 94.02Q502.49 97.05 498.74 98.70Q495.00 100.36 490.46 100.36L490.46 100.36Q485.64 100.36 481.90 98.42Q478.15 96.47 476.06 92.84Q473.98 89.20 473.98 84.30L473.98 84.30Q473.98 77.90 476.75 72.78Q479.52 67.67 484.42 64.76Q489.31 61.84 495.36 61.84L495.36 61.84Q500.76 61.84 504.43 63.96Q508.10 66.09 509.76 70.05L509.76 70.05L511.34 62.13ZM491.54 95.82Q496.22 95.82 499.97 93.56Q503.71 91.29 505.84 87.22Q507.96 83.15 507.96 78.11L507.96 78.11Q507.96 72.57 504.68 69.44Q501.41 66.30 495.50 66.30L495.50 66.30Q490.82 66.30 487.08 68.61Q483.34 70.91 481.21 74.98Q479.09 79.05 479.09 84.09L479.09 84.09Q479.09 89.63 482.36 92.73Q485.64 95.82 491.54 95.82L491.54 95.82ZM523.15 100L533.81 46.58L538.92 46.58L528.26 100L523.15 100ZM542.52 100L550.01 62.13L555.12 62.13L547.63 100L542.52 100ZM554.76 53.85Q553.25 53.85 552.28 52.84Q551.30 51.83 551.30 50.46L551.30 50.46Q551.30 48.81 552.42 47.69Q553.54 46.58 555.26 46.58L555.26 46.58Q556.78 46.58 557.78 47.55Q558.79 48.52 558.79 49.82L558.79 49.82Q558.79 51.54 557.64 52.70Q556.49 53.85 554.76 53.85L554.76 53.85ZM579.02 100.36Q573.70 100.36 569.74 98.38Q565.78 96.40 563.65 92.76Q561.53 89.13 561.53 84.30L561.53 84.30Q561.53 77.90 564.34 72.78Q567.14 67.67 572.18 64.76Q577.22 61.84 583.56 61.84L583.56 61.84Q588.82 61.84 592.60 63.75Q596.38 65.66 598.46 69.40L598.46 69.40L594.14 71.92Q590.90 66.30 583.13 66.30L583.13 66.30Q578.45 66.30 574.67 68.61Q570.89 70.91 568.76 74.94Q566.64 78.98 566.64 84.09L566.64 84.09Q566.64 89.63 569.92 92.73Q573.19 95.82 579.24 95.82L579.24 95.82Q582.91 95.82 586.04 94.42Q589.18 93.02 591.19 90.35L591.19 90.35L594.86 93.16Q592.34 96.54 588.13 98.45Q583.92 100.36 579.02 100.36L579.02 100.36Z"/></svg>