<svg xmlns="http://www.w3.org/2000/svg" viewBox="9.216000000000001 49.312 529.1999999999999 50.976"><path d="M59.62 100L57.24 100L57.17 54.57L35.06 93.02L33.77 93.02L11.59 54.71L11.59 100L9.22 100L9.22 49.60L11.23 49.60L34.42 89.92L57.53 49.60L59.54 49.60L59.62 100ZM90.94 100.22Q85.75 100.22 81.54 97.80Q77.33 95.39 74.95 91.07Q72.58 86.75 72.58 81.28L72.58 81.28Q72.58 75.81 74.95 71.49Q77.33 67.17 81.54 64.76Q85.75 62.34 90.94 62.34L90.94 62.34Q96.19 62.34 100.37 64.76Q104.54 67.17 106.92 71.49Q109.30 75.81 109.30 81.28L109.30 81.28Q109.30 86.75 106.92 91.07Q104.54 95.39 100.37 97.80Q96.19 100.22 90.94 100.22L90.94 100.22ZM90.94 98.06Q95.47 98.06 99.11 95.93Q102.74 93.81 104.83 89.99Q106.92 86.18 106.92 81.28L106.92 81.28Q106.92 76.38 104.83 72.60Q102.74 68.82 99.11 66.70Q95.47 64.58 90.94 64.58L90.94 64.58Q86.40 64.58 82.76 66.70Q79.13 68.82 77.04 72.60Q74.95 76.38 74.95 81.28L74.95 81.28Q74.95 86.18 77.04 89.99Q79.13 93.81 82.76 95.93Q86.40 98.06 90.94 98.06L90.94 98.06ZM138.67 62.34Q145.66 62.34 149.69 66.41Q153.72 70.48 153.72 78.04L153.72 78.04L153.72 100L151.34 100L151.34 78.18Q151.34 71.56 148.00 68.07Q144.65 64.58 138.46 64.58L138.46 64.58Q131.47 64.58 127.44 68.72Q123.41 72.86 123.41 79.84L123.41 79.84L123.41 100L121.03 100L121.03 62.63L123.34 62.63L123.34 71.78Q125.14 67.38 129.13 64.86Q133.13 62.34 138.67 62.34L138.67 62.34ZM185.69 95.90L186.91 97.62Q185.62 98.85 183.60 99.53Q181.58 100.22 179.42 100.22L179.42 100.22Q174.89 100.22 172.40 97.66Q169.92 95.10 169.92 90.64L169.92 90.64L169.92 64.72L162.86 64.72L162.86 62.63L169.92 62.63L169.92 54.42L172.30 54.42L172.30 62.63L184.61 62.63L184.61 64.72L172.30 64.72L172.30 90.28Q172.30 94.10 174.17 96.11Q176.04 98.13 179.64 98.13L179.64 98.13Q183.24 98.13 185.69 95.90L185.69 95.90ZM206.50 100.22Q201.96 100.22 197.96 98.85Q193.97 97.48 191.74 95.25L191.74 95.25L192.89 93.38Q195.19 95.39 198.83 96.76Q202.46 98.13 206.57 98.13L206.57 98.13Q212.62 98.13 215.50 96.08Q218.38 94.02 218.38 90.35L218.38 90.35Q218.38 87.76 216.83 86.25Q215.28 84.74 212.98 84.02Q210.67 83.30 206.78 82.58L206.78 82.58Q202.25 81.71 199.55 80.81Q196.85 79.91 194.98 77.90Q193.10 75.88 193.10 72.28L193.10 72.28Q193.10 68.03 196.60 65.19Q200.09 62.34 206.78 62.34L206.78 62.34Q210.24 62.34 213.70 63.39Q217.15 64.43 219.31 66.16L219.31 66.16L218.09 68.03Q215.86 66.30 212.87 65.40Q209.88 64.50 206.71 64.50L206.71 64.50Q201.17 64.50 198.36 66.63Q195.55 68.75 195.55 72.21L195.55 72.21Q195.55 74.94 197.14 76.53Q198.72 78.11 201.06 78.87Q203.40 79.62 207.43 80.42L207.43 80.42Q211.75 81.21 214.42 82.11Q217.08 83.01 218.92 84.95Q220.75 86.90 220.75 90.35L220.75 90.35Q220.75 94.89 217.08 97.55Q213.41 100.22 206.50 100.22L206.50 100.22ZM262.15 80.99L262.15 81.64L229.39 81.64Q229.46 86.39 231.62 90.14Q233.78 93.88 237.56 95.97Q241.34 98.06 246.02 98.06L246.02 98.06Q249.84 98.06 253.08 96.65Q256.32 95.25 258.41 92.51L258.41 92.51L259.92 94.10Q257.40 97.05 253.80 98.63Q250.20 100.22 246.02 100.22L246.02 100.22Q240.55 100.22 236.27 97.80Q231.98 95.39 229.54 91.07Q227.09 86.75 227.09 81.28L227.09 81.28Q227.09 75.81 229.36 71.49Q231.62 67.17 235.66 64.76Q239.69 62.34 244.66 62.34L244.66 62.34Q249.55 62.34 253.55 64.72Q257.54 67.10 259.85 71.34Q262.15 75.59 262.15 80.99L262.15 80.99ZM244.66 64.50Q240.48 64.50 237.10 66.45Q233.71 68.39 231.70 71.88Q229.68 75.38 229.46 79.70L229.46 79.70L259.92 79.70Q259.63 75.38 257.58 71.88Q255.53 68.39 252.18 66.45Q248.83 64.50 244.66 64.50L244.66 64.50ZM276.19 71.63Q277.85 67.17 281.56 64.76Q285.26 62.34 290.74 62.34L290.74 62.34L290.74 64.72L290.09 64.72Q283.61 64.72 279.94 68.82Q276.26 72.93 276.26 80.13L276.26 80.13L276.26 100L273.89 100L273.89 62.63L276.19 62.63L276.19 71.63ZM303.48 71.63Q305.14 67.17 308.84 64.76Q312.55 62.34 318.02 62.34L318.02 62.34L318.02 64.72L317.38 64.72Q310.90 64.72 307.22 68.82Q303.55 72.93 303.55 80.13L303.55 80.13L303.55 100L301.18 100L301.18 62.63L303.48 62.63L303.48 71.63ZM340.63 62.34Q347.33 62.34 350.89 65.80Q354.46 69.26 354.46 75.81L354.46 75.81L354.46 100L352.15 100L352.15 92.51Q350.35 96.11 346.79 98.16Q343.22 100.22 338.26 100.22L338.26 100.22Q331.99 100.22 328.43 97.34Q324.86 94.46 324.86 89.70L324.86 89.70Q324.86 85.17 328.10 82.32Q331.34 79.48 338.47 79.48L338.47 79.48L352.08 79.48L352.08 75.81Q352.08 70.26 349.16 67.38Q346.25 64.50 340.56 64.50L340.56 64.50Q336.60 64.50 333.14 65.87Q329.69 67.24 327.24 69.54L327.24 69.54L325.94 67.82Q328.68 65.22 332.53 63.78Q336.38 62.34 340.63 62.34L340.63 62.34ZM338.40 98.20Q348.48 98.20 352.08 89.20L352.08 89.20L352.08 81.42L338.47 81.42Q332.64 81.42 329.94 83.62Q327.24 85.82 327.24 89.56L327.24 89.56Q327.24 93.59 330.23 95.90Q333.22 98.20 338.40 98.20L338.40 98.20ZM386.42 95.90L387.65 97.62Q386.35 98.85 384.34 99.53Q382.32 100.22 380.16 100.22L380.16 100.22Q375.62 100.22 373.14 97.66Q370.66 95.10 370.66 90.64L370.66 90.64L370.66 64.72L363.60 64.72L363.60 62.63L370.66 62.63L370.66 54.42L373.03 54.42L373.03 62.63L385.34 62.63L385.34 64.72L373.03 64.72L373.03 90.28Q373.03 94.10 374.90 96.11Q376.78 98.13 380.38 98.13L380.38 98.13Q383.98 98.13 386.42 95.90L386.42 95.90ZM415.15 97.77L445.61 97.77L445.61 100L411.48 100L411.48 98.27L433.08 76.53Q437.47 72.14 439.02 69.00Q440.57 65.87 440.57 62.56L440.57 62.56Q440.57 57.45 437.08 54.50Q433.58 51.54 427.10 51.54L427.10 51.54Q422.06 51.54 418.36 53.02Q414.65 54.50 411.98 57.59L411.98 57.59L410.33 56.01Q416.16 49.31 427.18 49.31L427.18 49.31Q434.45 49.31 438.70 52.84Q442.94 56.37 442.94 62.42L442.94 62.42Q442.94 66.23 441.22 69.76Q439.49 73.29 434.81 77.97L434.81 77.97L415.15 97.77ZM471.82 100.29Q466.13 100.29 461.70 97.16Q457.27 94.02 454.82 88.23Q452.38 82.43 452.38 74.80L452.38 74.80Q452.38 67.17 454.82 61.37Q457.27 55.58 461.70 52.44Q466.13 49.31 471.82 49.31L471.82 49.31Q477.58 49.31 481.97 52.44Q486.36 55.58 488.81 61.37Q491.26 67.17 491.26 74.80L491.26 74.80Q491.26 82.43 488.81 88.23Q486.36 94.02 481.97 97.16Q477.58 100.29 471.82 100.29L471.82 100.29ZM471.82 98.06Q476.86 98.06 480.74 95.25Q484.63 92.44 486.76 87.18Q488.88 81.93 488.88 74.80L488.88 74.80Q488.88 67.67 486.76 62.42Q484.63 57.16 480.74 54.35Q476.86 51.54 471.82 51.54L471.82 51.54Q466.78 51.54 462.92 54.35Q459.07 57.16 456.95 62.42Q454.82 67.67 454.82 74.80L454.82 74.80Q454.82 81.93 456.95 87.18Q459.07 92.44 462.92 95.25Q466.78 98.06 471.82 98.06L471.82 98.06ZM518.98 100.29Q513.29 100.29 508.86 97.16Q504.43 94.02 501.98 88.23Q499.54 82.43 499.54 74.80L499.54 74.80Q499.54 67.17 501.98 61.37Q504.43 55.58 508.86 52.44Q513.29 49.31 518.98 49.31L518.98 49.31Q524.74 49.31 529.13 52.44Q533.52 55.58 535.97 61.37Q538.42 67.17 538.42 74.80L538.42 74.80Q538.42 82.43 535.97 88.23Q533.52 94.02 529.13 97.16Q524.74 100.29 518.98 100.29L518.98 100.29ZM518.98 98.06Q524.02 98.06 527.90 95.25Q531.79 92.44 533.92 87.18Q536.04 81.93 536.04 74.80L536.04 74.80Q536.04 67.67 533.92 62.42Q531.79 57.16 527.90 54.35Q524.02 51.54 518.98 51.54L518.98 51.54Q513.94 51.54 510.08 54.35Q506.23 57.16 504.11 62.42Q501.98 67.67 501.98 74.80L501.98 74.80Q501.98 81.93 504.11 87.18Q506.23 92.44 510.08 95.25Q513.94 98.06 518.98 98.06L518.98 98.06Z"/></svg>