<svg xmlns="http://www.w3.org/2000/svg" viewBox="0.9400000000000001 -7 55.890000000000015 7.07"><path d="M8.60 0L7.37 0L7.36-4.64L5.06-0.80L4.48-0.80L2.18-4.58L2.18 0L0.94 0L0.94-7L2.01-7L4.79-2.36L7.52-7L8.59-7L8.60 0ZM12.77 0.07Q11.96 0.07 11.31-0.28Q10.66-0.63 10.29-1.26Q9.93-1.88 9.93-2.67L9.93-2.67Q9.93-3.46 10.29-4.08Q10.66-4.70 11.31-5.05Q11.96-5.40 12.77-5.40L12.77-5.40Q13.59-5.40 14.24-5.05Q14.89-4.70 15.26-4.08Q15.62-3.46 15.62-2.67L15.62-2.67Q15.62-1.88 15.26-1.26Q14.89-0.63 14.24-0.28Q13.59 0.07 12.77 0.07L12.77 0.07ZM12.77-1Q13.46-1 13.91-1.46Q14.36-1.92 14.36-2.67L14.36-2.67Q14.36-3.42 13.91-3.88Q13.46-4.34 12.77-4.34L12.77-4.34Q12.08-4.34 11.64-3.88Q11.19-3.42 11.19-2.67L11.19-2.67Q11.19-1.92 11.64-1.46Q12.08-1 12.77-1L12.77-1ZM19.85-5.40Q20.86-5.40 21.47-4.81Q22.08-4.22 22.08-3.06L22.08-3.06L22.08 0L20.83 0L20.83-2.90Q20.83-3.60 20.50-3.96Q20.17-4.31 19.56-4.31L19.56-4.31Q18.87-4.31 18.47-3.90Q18.07-3.48 18.07-2.70L18.07-2.70L18.07 0L16.82 0L16.82-5.34L18.01-5.34L18.01-4.65Q18.32-5.02 18.79-5.21Q19.26-5.40 19.85-5.40L19.85-5.40ZM26.53-1.18L26.88-0.29Q26.66-0.11 26.35-0.02Q26.03 0.07 25.68 0.07L25.68 0.07Q24.80 0.07 24.32-0.39Q23.84-0.85 23.84-1.73L23.84-1.73L23.84-4.30L22.96-4.30L22.96-5.30L23.84-5.30L23.84-6.52L25.09-6.52L25.09-5.30L26.52-5.30L26.52-4.30L25.09-4.30L25.09-1.76Q25.09-1.37 25.28-1.17Q25.47-0.96 25.83-0.96L25.83-0.96Q26.25-0.96 26.53-1.18L26.53-1.18ZM29.56 0.07Q28.91 0.07 28.29-0.10Q27.67-0.27 27.30-0.53L27.30-0.53L27.78-1.48Q28.14-1.24 28.65-1.09Q29.15-0.95 29.64-0.95L29.64-0.95Q30.76-0.95 30.76-1.54L30.76-1.54Q30.76-1.82 30.48-1.93Q30.19-2.04 29.56-2.14L29.56-2.14Q28.90-2.24 28.49-2.37Q28.07-2.50 27.77-2.83Q27.46-3.15 27.46-3.73L27.46-3.73Q27.46-4.49 28.10-4.95Q28.73-5.40 29.81-5.40L29.81-5.40Q30.36-5.40 30.91-5.28Q31.46-5.15 31.81-4.94L31.81-4.94L31.33-3.99Q30.65-4.39 29.80-4.39L29.80-4.39Q29.25-4.39 28.97-4.22Q28.68-4.06 28.68-3.79L28.68-3.79Q28.68-3.49 28.99-3.37Q29.29-3.24 29.93-3.13L29.93-3.13Q30.57-3.03 30.98-2.90Q31.39-2.77 31.69-2.46Q31.98-2.15 31.98-1.58L31.98-1.58Q31.98-0.83 31.33-0.38Q30.68 0.07 29.56 0.07L29.56 0.07ZM38.08-2.64Q38.08-2.51 38.06-2.27L38.06-2.27L33.87-2.27Q33.98-1.68 34.45-1.33Q34.91-0.99 35.60-0.99L35.60-0.99Q36.48-0.99 37.05-1.57L37.05-1.57L37.72-0.80Q37.36-0.37 36.81-0.15Q36.26 0.07 35.57 0.07L35.57 0.07Q34.69 0.07 34.02-0.28Q33.35-0.63 32.98-1.26Q32.62-1.88 32.62-2.67L32.62-2.67Q32.62-3.45 32.98-4.08Q33.33-4.70 33.96-5.05Q34.59-5.40 35.38-5.40L35.38-5.40Q36.16-5.40 36.78-5.05Q37.39-4.71 37.73-4.08Q38.08-3.46 38.08-2.64L38.08-2.64ZM35.38-4.40Q34.78-4.40 34.37-4.04Q33.95-3.69 33.86-3.10L33.86-3.10L36.89-3.10Q36.81-3.68 36.40-4.04Q35.99-4.40 35.38-4.40L35.38-4.40ZM40.47-4.56Q41.01-5.40 42.37-5.40L42.37-5.40L42.37-4.21Q42.21-4.24 42.08-4.24L42.08-4.24Q41.35-4.24 40.94-3.81Q40.53-3.39 40.53-2.59L40.53-2.59L40.53 0L39.28 0L39.28-5.34L40.47-5.34L40.47-4.56ZM44.62-4.56Q45.16-5.40 46.52-5.40L46.52-5.40L46.52-4.21Q46.36-4.24 46.23-4.24L46.23-4.24Q45.50-4.24 45.09-3.81Q44.68-3.39 44.68-2.59L44.68-2.59L44.68 0L43.43 0L43.43-5.34L44.62-5.34L44.62-4.56ZM49.59-5.40Q50.77-5.40 51.40-4.83Q52.02-4.27 52.02-3.13L52.02-3.13L52.02 0L50.84 0L50.84-0.65Q50.61-0.30 50.19-0.12Q49.76 0.07 49.16 0.07L49.16 0.07Q48.56 0.07 48.11-0.14Q47.66-0.34 47.42-0.70Q47.17-1.07 47.17-1.53L47.17-1.53Q47.17-2.25 47.71-2.69Q48.24-3.12 49.39-3.12L49.39-3.12L50.77-3.12L50.77-3.20Q50.77-3.76 50.44-4.06Q50.10-4.36 49.44-4.36L49.44-4.36Q48.99-4.36 48.56-4.22Q48.12-4.08 47.82-3.83L47.82-3.83L47.33-4.74Q47.75-5.06 48.34-5.23Q48.93-5.40 49.59-5.40L49.59-5.40ZM49.42-0.84Q49.89-0.84 50.26-1.05Q50.62-1.27 50.77-1.67L50.77-1.67L50.77-2.29L49.48-2.29Q48.40-2.29 48.40-1.58L48.40-1.58Q48.40-1.24 48.67-1.04Q48.94-0.84 49.42-0.84L49.42-0.84ZM56.48-1.18L56.83-0.29Q56.61-0.11 56.30-0.02Q55.98 0.07 55.63 0.07L55.63 0.07Q54.75 0.07 54.27-0.39Q53.79-0.85 53.79-1.73L53.79-1.73L53.79-4.30L52.91-4.30L52.91-5.30L53.79-5.30L53.79-6.52L55.04-6.52L55.04-5.30L56.47-5.30L56.47-4.30L55.04-4.30L55.04-1.76Q55.04-1.37 55.23-1.17Q55.42-0.96 55.78-0.96L55.78-0.96Q56.20-0.96 56.48-1.18L56.48-1.18Z"/></svg>