<svg xmlns="http://www.w3.org/2000/svg" viewBox="0.16 -7 59.49000000000001 7.09"><path d="M7.99-7L9.68-7L8.30 0L6.47 0L7.19-3.69L4.86-0.69L3.99-0.69L2.72-3.69L1.98 0L0.16 0L1.56-7L3.17-7L4.81-2.95L7.99-7ZM12.62 0.09Q11.76 0.09 11.12-0.21Q10.48-0.52 10.13-1.08Q9.78-1.64 9.78-2.38L9.78-2.38Q9.78-3.27 10.21-3.98Q10.64-4.69 11.40-5.10Q12.16-5.51 13.11-5.51L13.11-5.51Q13.97-5.51 14.61-5.21Q15.25-4.90 15.60-4.34Q15.95-3.79 15.95-3.05L15.95-3.05Q15.95-2.16 15.52-1.45Q15.09-0.73 14.34-0.32Q13.58 0.09 12.62 0.09L12.62 0.09ZM12.73-1.44Q13.30-1.44 13.66-1.86Q14.02-2.28 14.02-2.95L14.02-2.95Q14.02-3.43 13.75-3.71Q13.48-3.99 13-3.99L13-3.99Q12.43-3.99 12.07-3.57Q11.71-3.15 11.71-2.47L11.71-2.47Q11.71-1.99 11.98-1.72Q12.25-1.44 12.73-1.44L12.73-1.44ZM20.73-5.51Q21.62-5.51 22.16-5.04Q22.69-4.56 22.69-3.67L22.69-3.67Q22.69-3.34 22.62-3L22.62-3L22.02 0L20.12 0L20.68-2.82Q20.72-2.99 20.72-3.18L20.72-3.18Q20.72-3.90 19.97-3.90L19.97-3.90Q19.47-3.90 19.15-3.60Q18.83-3.29 18.70-2.68L18.70-2.68L18.16 0L16.26 0L17.34-5.42L19.14-5.42L19.03-4.86Q19.38-5.19 19.82-5.35Q20.26-5.51 20.73-5.51L20.73-5.51ZM26.10-3.80L25.74-2.02Q25.72-1.88 25.72-1.84L25.72-1.84Q25.72-1.38 26.22-1.38L26.22-1.38Q26.49-1.38 26.79-1.54L26.79-1.54L27.03-0.23Q26.47 0.09 25.62 0.09L25.62 0.09Q24.78 0.09 24.29-0.33Q23.79-0.75 23.79-1.50L23.79-1.50Q23.79-1.79 23.84-2.01L23.84-2.01L24.20-3.80L23.40-3.80L23.69-5.22L24.48-5.22L24.76-6.63L26.66-6.63L26.38-5.22L27.61-5.22L27.33-3.80L26.10-3.80ZM29.81 0.09Q29.11 0.09 28.46-0.06Q27.82-0.21 27.46-0.44L27.46-0.44L28.15-1.77Q28.52-1.54 29.03-1.41Q29.54-1.27 30.03-1.27L30.03-1.27Q30.90-1.27 30.90-1.66L30.90-1.66Q30.90-1.82 30.70-1.90Q30.49-1.97 30.04-2.04L30.04-2.04Q29.44-2.15 29.05-2.27Q28.67-2.40 28.38-2.70Q28.09-3 28.09-3.54L28.09-3.54Q28.09-4.48 28.89-5.00Q29.70-5.51 30.98-5.51L30.98-5.51Q31.56-5.51 32.10-5.40Q32.64-5.28 33.04-5.08L33.04-5.08L32.37-3.75Q31.69-4.16 30.76-4.16L30.76-4.16Q30.32-4.16 30.11-4.04Q29.89-3.93 29.89-3.75L29.89-3.75Q29.89-3.59 30.10-3.52Q30.30-3.44 30.77-3.35L30.77-3.35Q31.35-3.25 31.73-3.12Q32.12-2.99 32.41-2.69Q32.69-2.39 32.69-1.87L32.69-1.87Q32.69-0.93 31.88-0.42Q31.07 0.09 29.81 0.09L29.81 0.09ZM39.29-3.13Q39.29-2.74 39.18-2.24L39.18-2.24L35.20-2.24Q35.30-1.36 36.43-1.36L36.43-1.36Q36.79-1.36 37.13-1.47Q37.47-1.58 37.74-1.80L37.74-1.80L38.53-0.61Q37.58 0.09 36.22 0.09L36.22 0.09Q35.36 0.09 34.71-0.21Q34.05-0.52 33.70-1.07Q33.34-1.63 33.34-2.38L33.34-2.38Q33.34-3.27 33.76-3.98Q34.17-4.70 34.92-5.11Q35.66-5.51 36.62-5.51L36.62-5.51Q37.43-5.51 38.04-5.21Q38.64-4.92 38.97-4.38Q39.29-3.84 39.29-3.13L39.29-3.13ZM36.53-4.16Q36.07-4.16 35.76-3.92Q35.45-3.67 35.31-3.24L35.31-3.24L37.54-3.24Q37.55-3.67 37.27-3.92Q36.99-4.16 36.53-4.16L36.53-4.16ZM42.30-4.82Q42.98-5.51 44.26-5.51L44.26-5.51L43.93-3.80Q43.68-3.83 43.50-3.83L43.50-3.83Q42.86-3.83 42.48-3.52Q42.09-3.22 41.96-2.56L41.96-2.56L41.44 0L39.54 0L40.62-5.42L42.42-5.42L42.30-4.82ZM46.71-4.82Q47.39-5.51 48.67-5.51L48.67-5.51L48.34-3.80Q48.09-3.83 47.91-3.83L47.91-3.83Q47.27-3.83 46.89-3.52Q46.50-3.22 46.37-2.56L46.37-2.56L45.85 0L43.95 0L45.03-5.42L46.83-5.42L46.71-4.82ZM53.22-5.42L55.12-5.42L54.04 0L52.24 0L52.35-0.51Q51.70 0.09 50.78 0.09L50.78 0.09Q50.18 0.09 49.66-0.21Q49.13-0.50 48.81-1.06Q48.49-1.62 48.49-2.38L48.49-2.38Q48.49-3.26 48.89-3.98Q49.28-4.69 49.96-5.10Q50.63-5.51 51.43-5.51L51.43-5.51Q52.61-5.51 53.09-4.77L53.09-4.77L53.22-5.42ZM51.44-1.44Q52.01-1.44 52.37-1.86Q52.73-2.28 52.73-2.95L52.73-2.95Q52.73-3.43 52.45-3.71Q52.18-3.99 51.70-3.99L51.70-3.99Q51.13-3.99 50.77-3.57Q50.41-3.15 50.41-2.47L50.41-2.47Q50.41-1.99 50.69-1.72Q50.96-1.44 51.44-1.44L51.44-1.44ZM58.14-3.80L57.78-2.02Q57.76-1.88 57.76-1.84L57.76-1.84Q57.76-1.38 58.26-1.38L58.26-1.38Q58.53-1.38 58.83-1.54L58.83-1.54L59.07-0.23Q58.51 0.09 57.66 0.09L57.66 0.09Q56.82 0.09 56.33-0.33Q55.83-0.75 55.83-1.50L55.83-1.50Q55.83-1.79 55.88-2.01L55.88-2.01L56.24-3.80L55.44-3.80L55.73-5.22L56.52-5.22L56.80-6.63L58.70-6.63L58.42-5.22L59.65-5.22L59.37-3.80L58.14-3.80Z"/></svg>