<svg xmlns="http://www.w3.org/2000/svg" viewBox="1.1520000000000001 42.111999999999995 1057.968 58.536"><path d="M58 50L70 50L60 100L47 100L52 73L35 95L29 95L20 73L14 100L1 100L11 50L23 50L35 79L58 50ZM91 101Q85 101 80 98Q75 96 73 92Q70 88 70 83L70 83Q70 76 74 71Q77 66 82 63Q88 60 94 60L94 60Q101 60 105 63Q110 65 112 69Q115 73 115 78L115 78Q115 84 112 90Q109 95 103 98Q98 101 91 101L91 101ZM92 90Q96 90 98 87Q101 84 101 79L101 79Q101 75 99 73Q97 71 94 71L94 71Q89 71 87 74Q84 77 84 82L84 82Q84 86 86 88Q88 90 92 90L92 90ZM149 60Q156 60 160 64Q163 67 163 74L163 74Q163 76 163 78L163 78L159 100L145 100L149 80Q149 78 149 77L149 77Q149 72 144 72L144 72Q140 72 138 74Q136 76 135 81L135 81L131 100L117 100L125 61L138 61L137 65Q140 63 143 61Q146 60 149 60L149 60ZM188 73L185 85Q185 86 185 87L185 87Q185 90 189 90L189 90Q191 90 193 89L193 89L195 98Q191 101 184 101L184 101Q178 101 175 98Q171 95 171 89L171 89Q171 87 172 86L172 86L174 73L168 73L171 62L176 62L178 52L192 52L190 62L199 62L197 73L188 73ZM215 101Q210 101 205 100Q200 98 198 97L198 97L203 87Q205 89 209 90Q213 91 216 91L216 91Q222 91 222 88L222 88Q222 87 221 86Q220 86 216 85L216 85Q212 85 209 84Q206 83 204 81Q202 78 202 75L202 75Q202 68 208 64Q214 60 223 60L223 60Q227 60 231 61Q235 62 238 63L238 63L233 73Q228 70 221 70L221 70Q218 70 217 71Q215 72 215 73L215 73Q215 74 217 75Q218 75 222 76L222 76Q226 77 228 78Q231 78 233 81Q235 83 235 87L235 87Q235 93 230 97Q224 101 215 101L215 101ZM283 77Q283 80 282 84L282 84L253 84Q254 90 262 90L262 90Q265 90 267 89Q270 89 272 87L272 87L277 96Q271 101 261 101L261 101Q255 101 250 98Q245 96 243 92Q240 88 240 83L240 83Q240 76 243 71Q246 66 251 63Q257 60 264 60L264 60Q269 60 274 62Q278 65 281 68Q283 72 283 77L283 77ZM263 70Q260 70 257 72Q255 74 254 77L254 77L270 77Q270 74 268 72Q266 70 263 70L263 70ZM305 65Q309 60 319 60L319 60L316 73Q314 72 313 72L313 72Q309 72 306 75Q303 77 302 82L302 82L298 100L285 100L292 61L305 61L305 65ZM336 65Q341 60 350 60L350 60L348 73Q346 72 345 72L345 72Q340 72 338 75Q335 77 334 82L334 82L330 100L316 100L324 61L337 61L336 65ZM383 61L397 61L389 100L376 100L377 96Q372 101 366 101L366 101Q361 101 358 99Q354 96 351 92Q349 88 349 83L349 83Q349 77 352 71Q355 66 360 63Q365 60 370 60L370 60Q379 60 382 66L382 66L383 61ZM370 90Q374 90 377 87Q380 84 380 79L380 79Q380 75 378 73Q376 71 372 71L372 71Q368 71 366 74Q363 77 363 82L363 82Q363 86 365 88Q367 90 370 90L370 90ZM419 73L416 85Q416 86 416 87L416 87Q416 90 419 90L419 90Q421 90 424 89L424 89L425 98Q421 101 415 101L415 101Q409 101 406 98Q402 95 402 89L402 89Q402 87 402 86L402 86L405 73L399 73L401 62L407 62L409 52L423 52L421 62L429 62L427 73L419 73ZM495 77Q495 80 494 84L494 84L466 84Q466 90 475 90L475 90Q477 90 480 89Q482 89 484 87L484 87L490 96Q483 101 473 101L473 101Q467 101 462 98Q457 96 455 92Q452 88 452 83L452 83Q452 76 455 71Q458 66 464 63Q469 60 476 60L476 60Q482 60 486 62Q490 65 493 68Q495 72 495 77L495 77ZM475 70Q472 70 470 72Q467 74 466 77L466 77L483 77Q483 74 481 72Q479 70 475 70L475 70ZM544 61L525 81L536 100L521 100L516 90L507 100L491 100L511 80L500 61L515 61L520 71L529 61L544 61ZM561 73L559 85Q558 86 558 87L558 87Q558 90 562 90L562 90Q564 90 566 89L566 89L568 98Q564 101 558 101L558 101Q552 101 548 98Q545 95 545 89L545 89Q545 87 545 86L545 86L547 73L542 73L544 62L550 62L552 52L565 52L563 62L572 62L570 73L561 73ZM592 65Q597 60 607 60L607 60L604 73Q602 72 601 72L601 72Q597 72 594 75Q591 77 590 82L590 82L586 100L573 100L580 61L593 61L592 65ZM639 61L653 61L645 100L632 100L633 96Q628 101 622 101L622 101Q617 101 614 99Q610 96 608 92Q605 88 605 83L605 83Q605 77 608 71Q611 66 616 63Q621 60 626 60L626 60Q635 60 638 66L638 66L639 61ZM627 90Q631 90 633 87Q636 84 636 79L636 79Q636 75 634 73Q632 71 628 71L628 71Q624 71 622 74Q619 77 619 82L619 82Q619 86 621 88Q623 90 627 90L627 90ZM706 60Q711 60 714 62Q718 65 720 69Q723 73 723 78L723 78Q723 84 720 90Q717 95 712 98Q707 101 702 101L702 101Q692 101 689 94L689 94L688 100L675 100L686 47L699 47L696 64Q700 60 706 60L706 60ZM700 90Q704 90 706 87Q709 84 709 79L709 79Q709 75 707 73Q705 71 701 71L701 71Q697 71 695 74Q692 77 692 82L692 82Q692 86 694 88Q696 90 700 90L700 90ZM747 101Q741 101 736 98Q731 96 729 92Q726 88 726 83L726 83Q726 76 729 71Q732 66 738 63Q743 60 750 60L750 60Q756 60 761 63Q766 65 768 69Q771 73 771 78L771 78Q771 84 768 90Q764 95 759 98Q754 101 747 101L747 101ZM748 90Q752 90 754 87Q757 84 757 79L757 79Q757 75 755 73Q753 71 749 71L749 71Q745 71 743 74Q740 77 740 82L740 82Q740 86 742 88Q744 90 748 90L748 90ZM773 100L784 47L797 47L787 100L773 100ZM834 47L848 47L837 100L824 100L825 96Q820 101 813 101L813 101Q809 101 805 99Q802 96 799 92Q797 88 797 83L797 83Q797 77 800 71Q803 66 808 63Q812 60 818 60L818 60Q827 60 830 66L830 66L834 47ZM818 90Q822 90 825 87Q827 84 827 79L827 79Q827 75 826 73Q824 71 820 71L820 71Q816 71 813 74Q811 77 811 82L811 82Q811 86 813 88Q815 90 818 90L818 90ZM867 100L874 61L888 61L880 100L867 100ZM883 57Q880 57 877 55Q875 53 875 50L875 50Q875 47 878 44Q880 42 884 42L884 42Q888 42 890 44Q892 46 892 49L892 49Q892 52 890 54Q887 57 883 57L883 57ZM910 73L907 85Q907 86 907 87L907 87Q907 90 911 90L911 90Q913 90 915 89L915 89L917 98Q913 101 906 101L906 101Q900 101 897 98Q893 95 893 89L893 89Q893 87 894 86L894 86L896 73L890 73L893 62L898 62L900 52L914 52L912 62L921 62L919 73L910 73ZM956 61L969 61L961 100L948 100L949 96Q945 101 938 101L938 101Q934 101 930 99Q926 96 924 92Q921 88 921 83L921 83Q921 77 924 71Q927 66 932 63Q937 60 943 60L943 60Q951 60 955 66L955 66L956 61ZM943 90Q947 90 949 87Q952 84 952 79L952 79Q952 75 950 73Q948 71 945 71L945 71Q940 71 938 74Q935 77 935 82L935 82Q935 86 937 88Q939 90 943 90L943 90ZM970 100L981 47L995 47L984 100L970 100ZM993 100L1001 61L1014 61L1006 100L993 100ZM1009 57Q1006 57 1004 55Q1001 53 1001 50L1001 50Q1001 47 1004 44Q1006 42 1010 42L1010 42Q1014 42 1016 44Q1018 46 1018 49L1018 49Q1018 52 1016 54Q1013 57 1009 57L1009 57ZM1037 101Q1031 101 1026 98Q1022 96 1019 92Q1016 88 1016 83L1016 83Q1016 76 1020 71Q1023 66 1028 63Q1034 60 1041 60L1041 60Q1047 60 1052 63Q1057 66 1059 71L1059 71L1047 76Q1045 71 1040 71L1040 71Q1036 71 1033 74Q1030 77 1030 82L1030 82Q1030 86 1032 88Q1034 90 1038 90L1038 90Q1041 90 1043 88Q1045 87 1046 85L1046 85L1056 91Q1054 95 1049 98Q1043 101 1037 101L1037 101Z"/></svg>