<svg xmlns="http://www.w3.org/2000/svg" viewBox="1.28 -7 52.56 7.03"><path d="M8.28 0L7.95 0L7.94-6.31L4.87-0.97L4.69-0.97L1.61-6.29L1.61 0L1.28 0L1.28-7L1.56-7L4.78-1.40L7.99-7L8.27-7L8.28 0ZM12.63 0.03Q11.91 0.03 11.33-0.30Q10.74-0.64 10.41-1.24Q10.08-1.84 10.08-2.60L10.08-2.60Q10.08-3.36 10.41-3.96Q10.74-4.56 11.33-4.90Q11.91-5.23 12.63-5.23L12.63-5.23Q13.36-5.23 13.94-4.90Q14.52-4.56 14.85-3.96Q15.18-3.36 15.18-2.60L15.18-2.60Q15.18-1.84 14.85-1.24Q14.52-0.64 13.94-0.30Q13.36 0.03 12.63 0.03L12.63 0.03ZM12.63-0.27Q13.26-0.27 13.77-0.57Q14.27-0.86 14.56-1.39Q14.85-1.92 14.85-2.60L14.85-2.60Q14.85-3.28 14.56-3.81Q14.27-4.33 13.77-4.63Q13.26-4.92 12.63-4.92L12.63-4.92Q12-4.92 11.50-4.63Q10.99-4.33 10.70-3.81Q10.41-3.28 10.41-2.60L10.41-2.60Q10.41-1.92 10.70-1.39Q10.99-0.86 11.50-0.57Q12-0.27 12.63-0.27L12.63-0.27ZM19.26-5.23Q20.23-5.23 20.79-4.67Q21.35-4.10 21.35-3.05L21.35-3.05L21.35 0L21.02 0L21.02-3.03Q21.02-3.95 20.55-4.44Q20.09-4.92 19.23-4.92L19.23-4.92Q18.26-4.92 17.70-4.34Q17.14-3.77 17.14-2.80L17.14-2.80L17.14 0L16.81 0L16.81-5.19L17.13-5.19L17.13-3.92Q17.38-4.53 17.94-4.88Q18.49-5.23 19.26-5.23L19.26-5.23ZM25.79-0.57L25.96-0.33Q25.78-0.16 25.50-0.07Q25.22 0.03 24.92 0.03L24.92 0.03Q24.29 0.03 23.95-0.33Q23.60-0.68 23.60-1.30L23.60-1.30L23.60-4.90L22.62-4.90L22.62-5.19L23.60-5.19L23.60-6.33L23.93-6.33L23.93-5.19L25.64-5.19L25.64-4.90L23.93-4.90L23.93-1.35Q23.93-0.82 24.19-0.54Q24.45-0.26 24.95-0.26L24.95-0.26Q25.45-0.26 25.79-0.57L25.79-0.57ZM28.68 0.03Q28.05 0.03 27.50-0.16Q26.94-0.35 26.63-0.66L26.63-0.66L26.79-0.92Q27.11-0.64 27.62-0.45Q28.12-0.26 28.69-0.26L28.69-0.26Q29.53-0.26 29.93-0.55Q30.33-0.83 30.33-1.34L30.33-1.34Q30.33-1.70 30.12-1.91Q29.90-2.12 29.58-2.22Q29.26-2.32 28.72-2.42L28.72-2.42Q28.09-2.54 27.71-2.67Q27.34-2.79 27.08-3.07Q26.82-3.35 26.82-3.85L26.82-3.85Q26.82-4.44 27.30-4.83Q27.79-5.23 28.72-5.23L28.72-5.23Q29.20-5.23 29.68-5.08Q30.16-4.94 30.46-4.70L30.46-4.70L30.29-4.44Q29.98-4.68 29.57-4.80Q29.15-4.93 28.71-4.93L28.71-4.93Q27.94-4.93 27.55-4.63Q27.16-4.34 27.16-3.86L27.16-3.86Q27.16-3.48 27.38-3.26Q27.60-3.04 27.93-2.94Q28.25-2.83 28.81-2.72L28.81-2.72Q29.41-2.61 29.78-2.48Q30.15-2.36 30.41-2.09Q30.66-1.82 30.66-1.34L30.66-1.34Q30.66-0.71 30.15-0.34Q29.64 0.03 28.68 0.03L28.68 0.03ZM36.41-2.64L36.41-2.55L31.86-2.55Q31.87-1.89 32.17-1.37Q32.47-0.85 32.99-0.56Q33.52-0.27 34.17-0.27L34.17-0.27Q34.70-0.27 35.15-0.47Q35.60-0.66 35.89-1.04L35.89-1.04L36.10-0.82Q35.75-0.41 35.25-0.19Q34.75 0.03 34.17 0.03L34.17 0.03Q33.41 0.03 32.81-0.30Q32.22-0.64 31.88-1.24Q31.54-1.84 31.54-2.60L31.54-2.60Q31.54-3.36 31.86-3.96Q32.17-4.56 32.73-4.90Q33.29-5.23 33.98-5.23L33.98-5.23Q34.66-5.23 35.22-4.90Q35.77-4.57 36.09-3.98Q36.41-3.39 36.41-2.64L36.41-2.64ZM33.98-4.93Q33.40-4.93 32.93-4.66Q32.46-4.39 32.18-3.91Q31.90-3.42 31.87-2.82L31.87-2.82L36.10-2.82Q36.06-3.42 35.77-3.91Q35.49-4.39 35.02-4.66Q34.56-4.93 33.98-4.93L33.98-4.93ZM38.36-3.94Q38.59-4.56 39.10-4.90Q39.62-5.23 40.38-5.23L40.38-5.23L40.38-4.90L40.29-4.90Q39.39-4.90 38.88-4.33Q38.37-3.76 38.37-2.76L38.37-2.76L38.37 0L38.04 0L38.04-5.19L38.36-5.19L38.36-3.94ZM42.15-3.94Q42.38-4.56 42.89-4.90Q43.41-5.23 44.17-5.23L44.17-5.23L44.17-4.90L44.08-4.90Q43.18-4.90 42.67-4.33Q42.16-3.76 42.16-2.76L42.16-2.76L42.16 0L41.83 0L41.83-5.19L42.15-5.19L42.15-3.94ZM47.31-5.23Q48.24-5.23 48.73-4.75Q49.23-4.27 49.23-3.36L49.23-3.36L49.23 0L48.91 0L48.91-1.04Q48.66-0.54 48.16-0.26Q47.67 0.03 46.98 0.03L46.98 0.03Q46.11 0.03 45.62-0.37Q45.12-0.77 45.12-1.43L45.12-1.43Q45.12-2.06 45.57-2.46Q46.02-2.85 47.01-2.85L47.01-2.85L48.90-2.85L48.90-3.36Q48.90-4.13 48.49-4.53Q48.09-4.93 47.30-4.93L47.30-4.93Q46.75-4.93 46.27-4.74Q45.79-4.55 45.45-4.23L45.45-4.23L45.27-4.47Q45.65-4.83 46.19-5.03Q46.72-5.23 47.31-5.23L47.31-5.23ZM47-0.25Q48.40-0.25 48.90-1.50L48.90-1.50L48.90-2.58L47.01-2.58Q46.20-2.58 45.83-2.27Q45.45-1.97 45.45-1.45L45.45-1.45Q45.45-0.89 45.87-0.57Q46.28-0.25 47-0.25L47-0.25ZM53.67-0.57L53.84-0.33Q53.66-0.16 53.38-0.07Q53.10 0.03 52.80 0.03L52.80 0.03Q52.17 0.03 51.83-0.33Q51.48-0.68 51.48-1.30L51.48-1.30L51.48-4.90L50.50-4.90L50.50-5.19L51.48-5.19L51.48-6.33L51.81-6.33L51.81-5.19L53.52-5.19L53.52-4.90L51.81-4.90L51.81-1.35Q51.81-0.82 52.07-0.54Q52.33-0.26 52.83-0.26L52.83-0.26Q53.33-0.26 53.67-0.57L53.67-0.57Z"/></svg>