<svg xmlns="http://www.w3.org/2000/svg" viewBox="7.5600000000000005 45.495999999999995 724.32 54.93600000000001"><path d="M61.20 100L54.29 100L54.22 63.28L36.00 93.88L32.69 93.88L14.47 63.50L14.47 100L7.56 100L7.56 49.60L13.46 49.60L34.49 85.02L55.22 49.60L61.13 49.60L61.20 100ZM91.66 100.43Q85.97 100.43 81.43 97.91Q76.90 95.39 74.34 90.96Q71.78 86.54 71.78 80.92L71.78 80.92Q71.78 75.30 74.34 70.88Q76.90 66.45 81.43 63.96Q85.97 61.48 91.66 61.48L91.66 61.48Q97.34 61.48 101.84 63.96Q106.34 66.45 108.90 70.88Q111.46 75.30 111.46 80.92L111.46 80.92Q111.46 86.54 108.90 90.96Q106.34 95.39 101.84 97.91Q97.34 100.43 91.66 100.43L91.66 100.43ZM91.66 94.38Q95.33 94.38 98.24 92.69Q101.16 91 102.82 87.94Q104.47 84.88 104.47 80.92L104.47 80.92Q104.47 76.96 102.82 73.90Q101.16 70.84 98.24 69.18Q95.33 67.53 91.66 67.53L91.66 67.53Q87.98 67.53 85.07 69.18Q82.15 70.84 80.46 73.90Q78.77 76.96 78.77 80.92L78.77 80.92Q78.77 84.88 80.46 87.94Q82.15 91 85.07 92.69Q87.98 94.38 91.66 94.38L91.66 94.38ZM141.41 61.48Q148.68 61.48 152.96 65.69Q157.25 69.90 157.25 78.04L157.25 78.04L157.25 100L150.34 100L150.34 78.83Q150.34 73.29 147.67 70.48Q145.01 67.67 140.04 67.67L140.04 67.67Q134.42 67.67 131.18 70.95Q127.94 74.22 127.94 80.34L127.94 80.34L127.94 100L121.03 100L121.03 61.84L127.66 61.84L127.66 67.60Q129.74 64.65 133.31 63.06Q136.87 61.48 141.41 61.48L141.41 61.48ZM189.36 92.80L191.52 97.77Q190.01 99.06 187.78 99.75Q185.54 100.43 183.17 100.43L183.17 100.43Q177.41 100.43 174.24 97.34Q171.07 94.24 171.07 88.48L171.07 88.48L171.07 67.53L164.59 67.53L164.59 61.84L171.07 61.84L171.07 53.49L177.98 53.49L177.98 61.84L188.93 61.84L188.93 67.53L177.98 67.53L177.98 88.19Q177.98 91.29 179.53 92.94Q181.08 94.60 183.96 94.60L183.96 94.60Q187.13 94.60 189.36 92.80L189.36 92.80ZM210.82 100.43Q206.14 100.43 201.82 99.17Q197.50 97.91 195.05 95.97L195.05 95.97L197.93 90.50Q200.45 92.30 204.05 93.38Q207.65 94.46 211.32 94.46L211.32 94.46Q220.39 94.46 220.39 89.27L220.39 89.27Q220.39 87.54 219.17 86.54Q217.94 85.53 216.11 85.06Q214.27 84.59 210.89 84.02L210.89 84.02Q206.28 83.30 203.36 82.36Q200.45 81.42 198.36 79.19Q196.27 76.96 196.27 72.93L196.27 72.93Q196.27 67.74 200.59 64.61Q204.91 61.48 212.18 61.48L212.18 61.48Q216.00 61.48 219.82 62.42Q223.63 63.35 226.08 64.94L226.08 64.94L223.13 70.41Q218.45 67.38 212.11 67.38L212.11 67.38Q207.72 67.38 205.42 68.82Q203.11 70.26 203.11 72.64L203.11 72.64Q203.11 74.51 204.41 75.59Q205.70 76.67 207.61 77.18Q209.52 77.68 212.98 78.33L212.98 78.33Q217.58 79.12 220.43 80.02Q223.27 80.92 225.29 83.08Q227.30 85.24 227.30 89.13L227.30 89.13Q227.30 94.31 222.88 97.37Q218.45 100.43 210.82 100.43L210.82 100.43ZM270.43 81.14Q270.43 81.93 270.29 83.22L270.29 83.22L239.33 83.22Q239.98 88.26 243.76 91.32Q247.54 94.38 253.15 94.38L253.15 94.38Q259.99 94.38 264.17 89.78L264.17 89.78L267.98 94.24Q265.39 97.26 261.54 98.85Q257.69 100.43 252.94 100.43L252.94 100.43Q246.89 100.43 242.21 97.95Q237.53 95.46 234.97 91Q232.42 86.54 232.42 80.92L232.42 80.92Q232.42 75.38 234.90 70.91Q237.38 66.45 241.74 63.96Q246.10 61.48 251.57 61.48L251.57 61.48Q257.04 61.48 261.32 63.96Q265.61 66.45 268.02 70.91Q270.43 75.38 270.43 81.14L270.43 81.14ZM251.57 67.31Q246.60 67.31 243.25 70.34Q239.90 73.36 239.33 78.26L239.33 78.26L263.81 78.26Q263.23 73.43 259.88 70.37Q256.54 67.31 251.57 67.31L251.57 67.31ZM286.63 68.25Q288.43 64.94 291.96 63.21Q295.49 61.48 300.53 61.48L300.53 61.48L300.53 68.18Q299.95 68.10 298.94 68.10L298.94 68.10Q293.33 68.10 290.12 71.45Q286.92 74.80 286.92 80.99L286.92 80.99L286.92 100L280.01 100L280.01 61.84L286.63 61.84L286.63 68.25ZM315.65 68.25Q317.45 64.94 320.98 63.21Q324.50 61.48 329.54 61.48L329.54 61.48L329.54 68.18Q328.97 68.10 327.96 68.10L327.96 68.10Q322.34 68.10 319.14 71.45Q315.94 74.80 315.94 80.99L315.94 80.99L315.94 100L309.02 100L309.02 61.84L315.65 61.84L315.65 68.25ZM351.86 61.48Q359.78 61.48 364.00 65.37Q368.21 69.26 368.21 76.96L368.21 76.96L368.21 100L361.66 100L361.66 94.96Q359.93 97.62 356.72 99.03Q353.52 100.43 349.13 100.43L349.13 100.43Q342.72 100.43 338.87 97.34Q335.02 94.24 335.02 89.20L335.02 89.20Q335.02 84.16 338.69 81.10Q342.36 78.04 350.35 78.04L350.35 78.04L361.30 78.04L361.30 76.67Q361.30 72.21 358.70 69.83Q356.11 67.46 351.07 67.46L351.07 67.46Q347.69 67.46 344.45 68.57Q341.21 69.69 338.98 71.56L338.98 71.56L336.10 66.38Q339.05 64.00 343.15 62.74Q347.26 61.48 351.86 61.48L351.86 61.48ZM350.28 95.10Q354.24 95.10 357.12 93.34Q360.00 91.58 361.30 88.34L361.30 88.34L361.30 83.01L350.64 83.01Q341.86 83.01 341.86 88.91L341.86 88.91Q341.86 91.79 344.09 93.45Q346.32 95.10 350.28 95.10L350.28 95.10ZM400.32 92.80L402.48 97.77Q400.97 99.06 398.74 99.75Q396.50 100.43 394.13 100.43L394.13 100.43Q388.37 100.43 385.20 97.34Q382.03 94.24 382.03 88.48L382.03 88.48L382.03 67.53L375.55 67.53L375.55 61.84L382.03 61.84L382.03 53.49L388.94 53.49L388.94 61.84L399.89 61.84L399.89 67.53L388.94 67.53L388.94 88.19Q388.94 91.29 390.49 92.94Q392.04 94.60 394.92 94.60L394.92 94.60Q398.09 94.60 400.32 92.80L400.32 92.80ZM477.94 61.48Q485.14 61.48 489.35 65.66Q493.56 69.83 493.56 78.04L493.56 78.04L493.56 100L486.65 100L486.65 78.83Q486.65 73.29 484.09 70.48Q481.54 67.67 476.78 67.67L476.78 67.67Q471.53 67.67 468.43 70.95Q465.34 74.22 465.34 80.34L465.34 80.34L465.34 100L458.42 100L458.42 78.83Q458.42 73.29 455.87 70.48Q453.31 67.67 448.56 67.67L448.56 67.67Q443.30 67.67 440.21 70.95Q437.11 74.22 437.11 80.34L437.11 80.34L437.11 100L430.20 100L430.20 61.84L436.82 61.84L436.82 67.53Q438.91 64.58 442.30 63.03Q445.68 61.48 450.00 61.48L450.00 61.48Q454.46 61.48 457.92 63.28Q461.38 65.08 463.25 68.54L463.25 68.54Q465.41 65.22 469.26 63.35Q473.11 61.48 477.94 61.48L477.94 61.48ZM541.01 81.14Q541.01 81.93 540.86 83.22L540.86 83.22L509.90 83.22Q510.55 88.26 514.33 91.32Q518.11 94.38 523.73 94.38L523.73 94.38Q530.57 94.38 534.74 89.78L534.74 89.78L538.56 94.24Q535.97 97.26 532.12 98.85Q528.26 100.43 523.51 100.43L523.51 100.43Q517.46 100.43 512.78 97.95Q508.10 95.46 505.55 91Q502.99 86.54 502.99 80.92L502.99 80.92Q502.99 75.38 505.48 70.91Q507.96 66.45 512.32 63.96Q516.67 61.48 522.14 61.48L522.14 61.48Q527.62 61.48 531.90 63.96Q536.18 66.45 538.60 70.91Q541.01 75.38 541.01 81.14L541.01 81.14ZM522.14 67.31Q517.18 67.31 513.83 70.34Q510.48 73.36 509.90 78.26L509.90 78.26L534.38 78.26Q533.81 73.43 530.46 70.37Q527.11 67.31 522.14 67.31L522.14 67.31ZM579.67 46.58L586.58 46.58L586.58 100L579.96 100L579.96 93.95Q577.66 97.12 574.13 98.78Q570.60 100.43 566.35 100.43L566.35 100.43Q560.81 100.43 556.42 97.98Q552.02 95.54 549.54 91.11Q547.06 86.68 547.06 80.92L547.06 80.92Q547.06 75.16 549.54 70.77Q552.02 66.38 556.42 63.93Q560.81 61.48 566.35 61.48L566.35 61.48Q570.46 61.48 573.91 63.03Q577.37 64.58 579.67 67.60L579.67 67.60L579.67 46.58ZM566.93 94.38Q570.53 94.38 573.48 92.69Q576.43 91 578.09 87.94Q579.74 84.88 579.74 80.92L579.74 80.92Q579.74 76.96 578.09 73.90Q576.43 70.84 573.48 69.18Q570.53 67.53 566.93 67.53L566.93 67.53Q563.26 67.53 560.34 69.18Q557.42 70.84 555.73 73.90Q554.04 76.96 554.04 80.92L554.04 80.92Q554.04 84.88 555.73 87.94Q557.42 91 560.34 92.69Q563.26 94.38 566.93 94.38L566.93 94.38ZM599.69 100L599.69 61.84L606.60 61.84L606.60 100L599.69 100ZM603.14 54.50Q601.13 54.50 599.80 53.20Q598.46 51.90 598.46 50.03L598.46 50.03Q598.46 48.16 599.80 46.83Q601.13 45.50 603.14 45.50L603.14 45.50Q605.16 45.50 606.49 46.76Q607.82 48.02 607.82 49.89L607.82 49.89Q607.82 51.83 606.49 53.16Q605.16 54.50 603.14 54.50L603.14 54.50ZM648.43 61.84L655.34 61.84L655.34 100L648.79 100L648.79 94.24Q646.70 97.19 643.28 98.81Q639.86 100.43 635.83 100.43L635.83 100.43Q628.20 100.43 623.81 96.22Q619.42 92.01 619.42 83.80L619.42 83.80L619.42 61.84L626.33 61.84L626.33 83.01Q626.33 88.55 628.99 91.40Q631.66 94.24 636.62 94.24L636.62 94.24Q642.10 94.24 645.26 90.93Q648.43 87.62 648.43 81.57L648.43 81.57L648.43 61.84ZM716.26 61.48Q723.46 61.48 727.67 65.66Q731.88 69.83 731.88 78.04L731.88 78.04L731.88 100L724.97 100L724.97 78.83Q724.97 73.29 722.41 70.48Q719.86 67.67 715.10 67.67L715.10 67.67Q709.85 67.67 706.75 70.95Q703.66 74.22 703.66 80.34L703.66 80.34L703.66 100L696.74 100L696.74 78.83Q696.74 73.29 694.19 70.48Q691.63 67.67 686.88 67.67L686.88 67.67Q681.62 67.67 678.53 70.95Q675.43 74.22 675.43 80.34L675.43 80.34L675.43 100L668.52 100L668.52 61.84L675.14 61.84L675.14 67.53Q677.23 64.58 680.62 63.03Q684 61.48 688.32 61.48L688.32 61.48Q692.78 61.48 696.24 63.28Q699.70 65.08 701.57 68.54L701.57 68.54Q703.73 65.22 707.58 63.35Q711.43 61.48 716.26 61.48L716.26 61.48Z"/></svg>