<svg xmlns="http://www.w3.org/2000/svg" viewBox="9.216000000000001 46.57599999999999 751.968 67.608"><path d="M59.62 100L57.24 100L57.17 54.57L35.06 93.02L33.77 93.02L11.59 54.71L11.59 100L9.22 100L9.22 49.60L11.23 49.60L34.42 89.92L57.53 49.60L59.54 49.60L59.62 100ZM90.94 100.22Q85.75 100.22 81.54 97.80Q77.33 95.39 74.95 91.07Q72.58 86.75 72.58 81.28L72.58 81.28Q72.58 75.81 74.95 71.49Q77.33 67.17 81.54 64.76Q85.75 62.34 90.94 62.34L90.94 62.34Q96.19 62.34 100.37 64.76Q104.54 67.17 106.92 71.49Q109.30 75.81 109.30 81.28L109.30 81.28Q109.30 86.75 106.92 91.07Q104.54 95.39 100.37 97.80Q96.19 100.22 90.94 100.22L90.94 100.22ZM90.94 98.06Q95.47 98.06 99.11 95.93Q102.74 93.81 104.83 89.99Q106.92 86.18 106.92 81.28L106.92 81.28Q106.92 76.38 104.83 72.60Q102.74 68.82 99.11 66.70Q95.47 64.58 90.94 64.58L90.94 64.58Q86.40 64.58 82.76 66.70Q79.13 68.82 77.04 72.60Q74.95 76.38 74.95 81.28L74.95 81.28Q74.95 86.18 77.04 89.99Q79.13 93.81 82.76 95.93Q86.40 98.06 90.94 98.06L90.94 98.06ZM138.67 62.34Q145.66 62.34 149.69 66.41Q153.72 70.48 153.72 78.04L153.72 78.04L153.72 100L151.34 100L151.34 78.18Q151.34 71.56 148.00 68.07Q144.65 64.58 138.46 64.58L138.46 64.58Q131.47 64.58 127.44 68.72Q123.41 72.86 123.41 79.84L123.41 79.84L123.41 100L121.03 100L121.03 62.63L123.34 62.63L123.34 71.78Q125.14 67.38 129.13 64.86Q133.13 62.34 138.67 62.34L138.67 62.34ZM185.69 95.90L186.91 97.62Q185.62 98.85 183.60 99.53Q181.58 100.22 179.42 100.22L179.42 100.22Q174.89 100.22 172.40 97.66Q169.92 95.10 169.92 90.64L169.92 90.64L169.92 64.72L162.86 64.72L162.86 62.63L169.92 62.63L169.92 54.42L172.30 54.42L172.30 62.63L184.61 62.63L184.61 64.72L172.30 64.72L172.30 90.28Q172.30 94.10 174.17 96.11Q176.04 98.13 179.64 98.13L179.64 98.13Q183.24 98.13 185.69 95.90L185.69 95.90ZM206.50 100.22Q201.96 100.22 197.96 98.85Q193.97 97.48 191.74 95.25L191.74 95.25L192.89 93.38Q195.19 95.39 198.83 96.76Q202.46 98.13 206.57 98.13L206.57 98.13Q212.62 98.13 215.50 96.08Q218.38 94.02 218.38 90.35L218.38 90.35Q218.38 87.76 216.83 86.25Q215.28 84.74 212.98 84.02Q210.67 83.30 206.78 82.58L206.78 82.58Q202.25 81.71 199.55 80.81Q196.85 79.91 194.98 77.90Q193.10 75.88 193.10 72.28L193.10 72.28Q193.10 68.03 196.60 65.19Q200.09 62.34 206.78 62.34L206.78 62.34Q210.24 62.34 213.70 63.39Q217.15 64.43 219.31 66.16L219.31 66.16L218.09 68.03Q215.86 66.30 212.87 65.40Q209.88 64.50 206.71 64.50L206.71 64.50Q201.17 64.50 198.36 66.63Q195.55 68.75 195.55 72.21L195.55 72.21Q195.55 74.94 197.14 76.53Q198.72 78.11 201.06 78.87Q203.40 79.62 207.43 80.42L207.43 80.42Q211.75 81.21 214.42 82.11Q217.08 83.01 218.92 84.95Q220.75 86.90 220.75 90.35L220.75 90.35Q220.75 94.89 217.08 97.55Q213.41 100.22 206.50 100.22L206.50 100.22ZM262.15 80.99L262.15 81.64L229.39 81.64Q229.46 86.39 231.62 90.14Q233.78 93.88 237.56 95.97Q241.34 98.06 246.02 98.06L246.02 98.06Q249.84 98.06 253.08 96.65Q256.32 95.25 258.41 92.51L258.41 92.51L259.92 94.10Q257.40 97.05 253.80 98.63Q250.20 100.22 246.02 100.22L246.02 100.22Q240.55 100.22 236.27 97.80Q231.98 95.39 229.54 91.07Q227.09 86.75 227.09 81.28L227.09 81.28Q227.09 75.81 229.36 71.49Q231.62 67.17 235.66 64.76Q239.69 62.34 244.66 62.34L244.66 62.34Q249.55 62.34 253.55 64.72Q257.54 67.10 259.85 71.34Q262.15 75.59 262.15 80.99L262.15 80.99ZM244.66 64.50Q240.48 64.50 237.10 66.45Q233.71 68.39 231.70 71.88Q229.68 75.38 229.46 79.70L229.46 79.70L259.92 79.70Q259.63 75.38 257.58 71.88Q255.53 68.39 252.18 66.45Q248.83 64.50 244.66 64.50L244.66 64.50ZM276.19 71.63Q277.85 67.17 281.56 64.76Q285.26 62.34 290.74 62.34L290.74 62.34L290.74 64.72L290.09 64.72Q283.61 64.72 279.94 68.82Q276.26 72.93 276.26 80.13L276.26 80.13L276.26 100L273.89 100L273.89 62.63L276.19 62.63L276.19 71.63ZM303.48 71.63Q305.14 67.17 308.84 64.76Q312.55 62.34 318.02 62.34L318.02 62.34L318.02 64.72L317.38 64.72Q310.90 64.72 307.22 68.82Q303.55 72.93 303.55 80.13L303.55 80.13L303.55 100L301.18 100L301.18 62.63L303.48 62.63L303.48 71.63ZM340.63 62.34Q347.33 62.34 350.89 65.80Q354.46 69.26 354.46 75.81L354.46 75.81L354.46 100L352.15 100L352.15 92.51Q350.35 96.11 346.79 98.16Q343.22 100.22 338.26 100.22L338.26 100.22Q331.99 100.22 328.43 97.34Q324.86 94.46 324.86 89.70L324.86 89.70Q324.86 85.17 328.10 82.32Q331.34 79.48 338.47 79.48L338.47 79.48L352.08 79.48L352.08 75.81Q352.08 70.26 349.16 67.38Q346.25 64.50 340.56 64.50L340.56 64.50Q336.60 64.50 333.14 65.87Q329.69 67.24 327.24 69.54L327.24 69.54L325.94 67.82Q328.68 65.22 332.53 63.78Q336.38 62.34 340.63 62.34L340.63 62.34ZM338.40 98.20Q348.48 98.20 352.08 89.20L352.08 89.20L352.08 81.42L338.47 81.42Q332.64 81.42 329.94 83.62Q327.24 85.82 327.24 89.56L327.24 89.56Q327.24 93.59 330.23 95.90Q333.22 98.20 338.40 98.20L338.40 98.20ZM386.42 95.90L387.65 97.62Q386.35 98.85 384.34 99.53Q382.32 100.22 380.16 100.22L380.16 100.22Q375.62 100.22 373.14 97.66Q370.66 95.10 370.66 90.64L370.66 90.64L370.66 64.72L363.60 64.72L363.60 62.63L370.66 62.63L370.66 54.42L373.03 54.42L373.03 62.63L385.34 62.63L385.34 64.72L373.03 64.72L373.03 90.28Q373.03 94.10 374.90 96.11Q376.78 98.13 380.38 98.13L380.38 98.13Q383.98 98.13 386.42 95.90L386.42 95.90ZM447.26 80.99L447.26 81.64L414.50 81.64Q414.58 86.39 416.74 90.14Q418.90 93.88 422.68 95.97Q426.46 98.06 431.14 98.06L431.14 98.06Q434.95 98.06 438.19 96.65Q441.43 95.25 443.52 92.51L443.52 92.51L445.03 94.10Q442.51 97.05 438.91 98.63Q435.31 100.22 431.14 100.22L431.14 100.22Q425.66 100.22 421.38 97.80Q417.10 95.39 414.65 91.07Q412.20 86.75 412.20 81.28L412.20 81.28Q412.20 75.81 414.47 71.49Q416.74 67.17 420.77 64.76Q424.80 62.34 429.77 62.34L429.77 62.34Q434.66 62.34 438.66 64.72Q442.66 67.10 444.96 71.34Q447.26 75.59 447.26 80.99L447.26 80.99ZM429.77 64.50Q425.59 64.50 422.21 66.45Q418.82 68.39 416.81 71.88Q414.79 75.38 414.58 79.70L414.58 79.70L445.03 79.70Q444.74 75.38 442.69 71.88Q440.64 68.39 437.29 66.45Q433.94 64.50 429.77 64.50L429.77 64.50ZM484.63 100L481.68 100L468.14 82.43L454.61 100L451.80 100L466.78 80.70L452.59 62.63L455.40 62.63L468.14 78.98L480.82 62.63L483.55 62.63L469.51 80.70L484.63 100ZM510.84 95.90L512.06 97.62Q510.77 98.85 508.75 99.53Q506.74 100.22 504.58 100.22L504.58 100.22Q500.04 100.22 497.56 97.66Q495.07 95.10 495.07 90.64L495.07 90.64L495.07 64.72L488.02 64.72L488.02 62.63L495.07 62.63L495.07 54.42L497.45 54.42L497.45 62.63L509.76 62.63L509.76 64.72L497.45 64.72L497.45 90.28Q497.45 94.10 499.32 96.11Q501.19 98.13 504.79 98.13L504.79 98.13Q508.39 98.13 510.84 95.90L510.84 95.90ZM524.95 71.63Q526.61 67.17 530.32 64.76Q534.02 62.34 539.50 62.34L539.50 62.34L539.50 64.72L538.85 64.72Q532.37 64.72 528.70 68.82Q525.02 72.93 525.02 80.13L525.02 80.13L525.02 100L522.65 100L522.65 62.63L524.95 62.63L524.95 71.63ZM562.10 62.34Q568.80 62.34 572.36 65.80Q575.93 69.26 575.93 75.81L575.93 75.81L575.93 100L573.62 100L573.62 92.51Q571.82 96.11 568.26 98.16Q564.70 100.22 559.73 100.22L559.73 100.22Q553.46 100.22 549.90 97.34Q546.34 94.46 546.34 89.70L546.34 89.70Q546.34 85.17 549.58 82.32Q552.82 79.48 559.94 79.48L559.94 79.48L573.55 79.48L573.55 75.81Q573.55 70.26 570.64 67.38Q567.72 64.50 562.03 64.50L562.03 64.50Q558.07 64.50 554.62 65.87Q551.16 67.24 548.71 69.54L548.71 69.54L547.42 67.82Q550.15 65.22 554.00 63.78Q557.86 62.34 562.10 62.34L562.10 62.34ZM559.87 98.20Q569.95 98.20 573.55 89.20L573.55 89.20L573.55 81.42L559.94 81.42Q554.11 81.42 551.41 83.62Q548.71 85.82 548.71 89.56L548.71 89.56Q548.71 93.59 551.70 95.90Q554.69 98.20 559.87 98.20L559.87 98.20ZM609.70 100L609.70 46.58L612.07 46.58L612.07 100L609.70 100ZM628.06 100L628.06 62.63L630.43 62.63L630.43 100L628.06 100ZM629.21 52.84Q628.27 52.84 627.55 52.16Q626.83 51.47 626.83 50.54L626.83 50.54Q626.83 49.53 627.52 48.84Q628.20 48.16 629.21 48.16L629.21 48.16Q630.14 48.16 630.86 48.84Q631.58 49.53 631.58 50.46L631.58 50.46Q631.58 51.40 630.86 52.12Q630.14 52.84 629.21 52.84L629.21 52.84ZM677.02 62.63L679.32 62.63L679.32 96.40Q679.32 105.47 674.93 109.83Q670.54 114.18 661.68 114.18L661.68 114.18Q656.50 114.18 652.03 112.60Q647.57 111.02 644.90 108.14L644.90 108.14L646.27 106.34Q649.15 109.07 653.08 110.55Q657 112.02 661.61 112.02L661.61 112.02Q669.46 112.02 673.20 108.32Q676.94 104.61 676.94 96.69L676.94 96.69L676.94 88.77Q674.86 93.38 670.54 96.04Q666.22 98.70 660.67 98.70L660.67 98.70Q655.42 98.70 651.20 96.36Q646.99 94.02 644.58 89.88Q642.17 85.74 642.17 80.49L642.17 80.49Q642.17 75.23 644.58 71.09Q646.99 66.95 651.20 64.65Q655.42 62.34 660.67 62.34L660.67 62.34Q666.22 62.34 670.57 65.01Q674.93 67.67 677.02 72.35L677.02 72.35L677.02 62.63ZM660.74 96.54Q665.35 96.54 669.06 94.49Q672.77 92.44 674.89 88.77Q677.02 85.10 677.02 80.49L677.02 80.49Q677.02 75.88 674.89 72.24Q672.77 68.61 669.06 66.59Q665.35 64.58 660.74 64.58L660.74 64.58Q656.14 64.58 652.43 66.59Q648.72 68.61 646.63 72.24Q644.54 75.88 644.54 80.49L644.54 80.49Q644.54 85.17 646.63 88.80Q648.72 92.44 652.43 94.49Q656.14 96.54 660.74 96.54L660.74 96.54ZM712.94 62.34Q719.93 62.34 723.96 66.41Q727.99 70.48 727.99 78.04L727.99 78.04L727.99 100L725.62 100L725.62 78.18Q725.62 71.56 722.27 68.07Q718.92 64.58 712.73 64.58L712.73 64.58Q705.74 64.58 701.71 68.72Q697.68 72.86 697.68 79.84L697.68 79.84L697.68 100L695.30 100L695.30 46.58L697.68 46.58L697.68 71.56Q699.55 67.24 703.51 64.79Q707.47 62.34 712.94 62.34L712.94 62.34ZM759.96 95.90L761.18 97.62Q759.89 98.85 757.87 99.53Q755.86 100.22 753.70 100.22L753.70 100.22Q749.16 100.22 746.68 97.66Q744.19 95.10 744.19 90.64L744.19 90.64L744.19 64.72L737.14 64.72L737.14 62.63L744.19 62.63L744.19 54.42L746.57 54.42L746.57 62.63L758.88 62.63L758.88 64.72L746.57 64.72L746.57 90.28Q746.57 94.10 748.44 96.11Q750.31 98.13 753.91 98.13L753.91 98.13Q757.51 98.13 759.96 95.90L759.96 95.90Z"/></svg>