<svg xmlns="http://www.w3.org/2000/svg" viewBox="9.576 46.57599999999999 530.064 53.64"><path d="M58.03 49.60L59.26 49.60L59.26 100L57.82 100L57.82 52.70L34.85 92.87L33.98 92.87L11.02 52.84L11.02 100L9.58 100L9.58 49.60L10.80 49.60L34.42 90.93L58.03 49.60ZM90.79 100.22Q85.68 100.22 81.54 97.80Q77.40 95.39 75.06 91.07Q72.72 86.75 72.72 81.35L72.72 81.35Q72.72 75.95 75.06 71.67Q77.40 67.38 81.54 64.97Q85.68 62.56 90.79 62.56L90.79 62.56Q95.90 62.56 100.04 64.97Q104.18 67.38 106.52 71.67Q108.86 75.95 108.86 81.35L108.86 81.35Q108.86 86.75 106.52 91.07Q104.18 95.39 100.04 97.80Q95.90 100.22 90.79 100.22L90.79 100.22ZM90.79 98.85Q95.47 98.85 99.29 96.62Q103.10 94.38 105.26 90.39Q107.42 86.39 107.42 81.35L107.42 81.35Q107.42 76.31 105.26 72.32Q103.10 68.32 99.29 66.12Q95.47 63.93 90.79 63.93L90.79 63.93Q86.11 63.93 82.30 66.12Q78.48 68.32 76.32 72.32Q74.16 76.31 74.16 81.35L74.16 81.35Q74.16 86.39 76.32 90.39Q78.48 94.38 82.30 96.62Q86.11 98.85 90.79 98.85L90.79 98.85ZM138.10 62.56Q145.08 62.56 149.04 66.56Q153 70.55 153 78.04L153 78.04L153 100L151.56 100L151.56 78.04Q151.56 71.20 148.07 67.56Q144.58 63.93 138.17 63.93L138.17 63.93Q130.90 63.93 126.68 68.28Q122.47 72.64 122.47 79.77L122.47 79.77L122.47 100L121.03 100L121.03 62.78L122.47 62.78L122.47 72.71Q124.20 67.96 128.23 65.26Q132.26 62.56 138.10 62.56L138.10 62.56ZM184.97 96.54L185.98 97.55Q184.75 98.85 182.77 99.53Q180.79 100.22 178.70 100.22L178.70 100.22Q174.38 100.22 172.04 97.73Q169.70 95.25 169.70 91.07L169.70 91.07L169.70 64.14L162.50 64.14L162.50 62.78L169.70 62.78L169.70 54.64L171.14 54.64L171.14 62.78L183.74 62.78L183.74 64.14L171.14 64.14L171.14 90.71Q171.14 94.67 173.09 96.76Q175.03 98.85 178.78 98.85L178.78 98.85Q182.52 98.85 184.97 96.54L184.97 96.54ZM205.63 100.22Q201.17 100.22 197.21 98.78Q193.25 97.34 191.09 95.10L191.09 95.10L191.95 93.95Q194.11 96.04 197.75 97.44Q201.38 98.85 205.63 98.85L205.63 98.85Q211.97 98.85 214.99 96.65Q218.02 94.46 218.02 90.57L218.02 90.57Q218.02 87.76 216.40 86.14Q214.78 84.52 212.44 83.76Q210.10 83.01 205.99 82.22L205.99 82.22Q201.60 81.42 198.90 80.52Q196.20 79.62 194.36 77.64Q192.53 75.66 192.53 72.14L192.53 72.14Q192.53 68.10 195.88 65.33Q199.22 62.56 205.70 62.56L205.70 62.56Q209.16 62.56 212.54 63.60Q215.93 64.65 218.02 66.38L218.02 66.38L217.15 67.53Q214.99 65.80 211.97 64.86Q208.94 63.93 205.70 63.93L205.70 63.93Q199.87 63.93 196.96 66.20Q194.04 68.46 194.04 72.14L194.04 72.14Q194.04 75.09 195.70 76.78Q197.35 78.47 199.80 79.26Q202.25 80.06 206.28 80.78L206.28 80.78Q210.67 81.64 213.26 82.50Q215.86 83.37 217.66 85.28Q219.46 87.18 219.46 90.57L219.46 90.57Q219.46 94.96 215.93 97.59Q212.40 100.22 205.63 100.22L205.63 100.22ZM260.50 80.99L260.50 81.35L227.38 81.35Q227.38 86.39 229.61 90.39Q231.84 94.38 235.76 96.62Q239.69 98.85 244.58 98.85L244.58 98.85Q248.40 98.85 251.75 97.37Q255.10 95.90 257.26 93.09L257.26 93.09L258.26 94.10Q255.82 97.05 252.22 98.63Q248.62 100.22 244.58 100.22L244.58 100.22Q239.26 100.22 235.04 97.80Q230.83 95.39 228.42 91.07Q226.01 86.75 226.01 81.35L226.01 81.35Q226.01 75.95 228.24 71.67Q230.47 67.38 234.40 64.97Q238.32 62.56 243.22 62.56L243.22 62.56Q248.04 62.56 252.00 64.94Q255.96 67.31 258.23 71.49Q260.50 75.66 260.50 80.99L260.50 80.99ZM243.22 63.93Q238.90 63.93 235.37 66.02Q231.84 68.10 229.72 71.78Q227.59 75.45 227.38 79.98L227.38 79.98L259.13 79.98Q258.91 75.45 256.75 71.78Q254.59 68.10 251.06 66.02Q247.54 63.93 243.22 63.93L243.22 63.93ZM274.10 72.42Q275.69 67.67 279.43 65.12Q283.18 62.56 288.72 62.56L288.72 62.56L288.72 64.00L288.29 64.00Q281.59 64.00 277.85 68.28Q274.10 72.57 274.10 79.98L274.10 79.98L274.10 100L272.66 100L272.66 62.78L274.10 62.78L274.10 72.42ZM300.96 72.42Q302.54 67.67 306.29 65.12Q310.03 62.56 315.58 62.56L315.58 62.56L315.58 64.00L315.14 64.00Q308.45 64.00 304.70 68.28Q300.96 72.57 300.96 79.98L300.96 79.98L300.96 100L299.52 100L299.52 62.78L300.96 62.78L300.96 72.42ZM338.26 62.56Q344.74 62.56 348.16 65.91Q351.58 69.26 351.58 75.59L351.58 75.59L351.58 100L350.14 100L350.14 92.08Q348.34 95.90 344.70 98.06Q341.06 100.22 335.95 100.22L335.95 100.22Q329.76 100.22 326.27 97.37Q322.78 94.53 322.78 89.78L322.78 89.78Q322.78 85.31 325.91 82.54Q329.04 79.77 336.02 79.77L336.02 79.77L350.14 79.77L350.14 75.66Q350.14 69.83 347.15 66.88Q344.16 63.93 338.33 63.93L338.33 63.93Q334.30 63.93 330.80 65.33Q327.31 66.74 324.79 69.11L324.79 69.11L323.78 68.10Q326.45 65.51 330.26 64.04Q334.08 62.56 338.26 62.56L338.26 62.56ZM335.95 98.85Q346.32 98.85 350.14 89.34L350.14 89.34L350.14 81.14L335.95 81.14Q329.90 81.14 327.06 83.44Q324.22 85.74 324.22 89.70L324.22 89.70Q324.22 93.95 327.31 96.40Q330.41 98.85 335.95 98.85L335.95 98.85ZM383.54 96.54L384.55 97.55Q383.33 98.85 381.35 99.53Q379.37 100.22 377.28 100.22L377.28 100.22Q372.96 100.22 370.62 97.73Q368.28 95.25 368.28 91.07L368.28 91.07L368.28 64.14L361.08 64.14L361.08 62.78L368.28 62.78L368.28 54.64L369.72 54.64L369.72 62.78L382.32 62.78L382.32 64.14L369.72 64.14L369.72 90.71Q369.72 94.67 371.66 96.76Q373.61 98.85 377.35 98.85L377.35 98.85Q381.10 98.85 383.54 96.54L383.54 96.54ZM429.48 96.54L430.49 97.55Q429.26 98.85 427.28 99.53Q425.30 100.22 423.22 100.22L423.22 100.22Q418.90 100.22 416.56 97.73Q414.22 95.25 414.22 91.07L414.22 91.07L414.22 64.14L407.02 64.14L407.02 62.78L414.22 62.78L414.22 54.64L415.66 54.64L415.66 62.78L428.26 62.78L428.26 64.14L415.66 64.14L415.66 90.71Q415.66 94.67 417.60 96.76Q419.54 98.85 423.29 98.85L423.29 98.85Q427.03 98.85 429.48 96.54L429.48 96.54ZM458.64 62.56Q465.62 62.56 469.58 66.56Q473.54 70.55 473.54 78.04L473.54 78.04L473.54 100L472.10 100L472.10 78.04Q472.10 71.20 468.61 67.56Q465.12 63.93 458.71 63.93L458.71 63.93Q451.44 63.93 447.23 68.28Q443.02 72.64 443.02 79.77L443.02 79.77L443.02 100L441.58 100L441.58 46.58L443.02 46.58L443.02 72.71Q444.74 67.96 448.78 65.26Q452.81 62.56 458.64 62.56L458.64 62.56ZM489.67 100L489.67 62.78L491.11 62.78L491.11 100L489.67 100ZM490.39 52.48Q489.60 52.48 489.06 51.90Q488.52 51.33 488.52 50.61L488.52 50.61Q488.52 49.82 489.06 49.28Q489.60 48.74 490.39 48.74L490.39 48.74Q491.11 48.74 491.69 49.28Q492.26 49.82 492.26 50.61L492.26 50.61Q492.26 51.33 491.69 51.90Q491.11 52.48 490.39 52.48L490.39 52.48ZM524.74 62.56Q531.72 62.56 535.68 66.56Q539.64 70.55 539.64 78.04L539.64 78.04L539.64 100L538.20 100L538.20 78.04Q538.20 71.20 534.71 67.56Q531.22 63.93 524.81 63.93L524.81 63.93Q517.54 63.93 513.32 68.28Q509.11 72.64 509.11 79.77L509.11 79.77L509.11 100L507.67 100L507.67 62.78L509.11 62.78L509.11 72.71Q510.84 67.96 514.87 65.26Q518.90 62.56 524.74 62.56L524.74 62.56Z"/></svg>