<svg xmlns="http://www.w3.org/2000/svg" viewBox="5.832000000000001 46.57599999999999 733.176 53.64"><path d="M64.22 49.60L65.59 49.60L55.51 100L54.07 100L63.43 53.06L32.98 92.87L32.11 92.87L16.70 52.62L7.27 100L5.83 100L15.91 49.60L17.14 49.60L32.83 90.78L64.22 49.60ZM88.20 100.22Q80.93 100.22 76.64 96.15Q72.36 92.08 72.36 85.10L72.36 85.10Q72.36 78.69 75.06 73.58Q77.76 68.46 82.55 65.51Q87.34 62.56 93.38 62.56L93.38 62.56Q100.66 62.56 104.94 66.63Q109.22 70.70 109.22 77.68L109.22 77.68Q109.22 84.09 106.52 89.24Q103.82 94.38 99.04 97.30Q94.25 100.22 88.20 100.22L88.20 100.22ZM88.42 98.85Q93.89 98.85 98.32 96.11Q102.74 93.38 105.26 88.55Q107.78 83.73 107.78 77.75L107.78 77.75Q107.78 71.20 103.93 67.56Q100.08 63.93 93.17 63.93L93.17 63.93Q87.70 63.93 83.27 66.66Q78.84 69.40 76.32 74.22Q73.80 79.05 73.80 85.02L73.80 85.02Q73.80 91.58 77.65 95.21Q81.50 98.85 88.42 98.85L88.42 98.85ZM141.05 62.56Q147.46 62.56 150.77 65.66Q154.08 68.75 154.08 74.08L154.08 74.08Q154.08 75.95 153.65 78.04L153.65 78.04L149.26 100L147.82 100L152.21 78.04Q152.64 75.95 152.64 74.22L152.64 74.22Q152.64 69.33 149.65 66.63Q146.66 63.93 140.90 63.93L140.90 63.93Q133.78 63.93 129.06 67.89Q124.34 71.85 122.83 79.34L122.83 79.34L118.73 100L117.29 100L124.70 62.78L126.14 62.78L124.34 71.85Q129.60 62.56 141.05 62.56L141.05 62.56ZM174.60 64.14L169.42 89.99Q169.06 91.94 169.06 93.09L169.06 93.09Q169.06 98.85 175.39 98.85L175.39 98.85Q179.06 98.85 181.94 96.54L181.94 96.54L182.74 97.55Q181.30 98.85 179.28 99.53Q177.26 100.22 175.25 100.22L175.25 100.22Q171.50 100.22 169.56 98.38Q167.62 96.54 167.62 93.16L167.62 93.16Q167.62 91.72 167.90 90.35L167.90 90.35L173.16 64.14L165.96 64.14L166.18 62.78L173.38 62.78L175.03 54.64L176.47 54.64L174.82 62.78L187.42 62.78L187.20 64.14L174.60 64.14ZM202.39 100.22Q198.22 100.22 194.40 98.81Q190.58 97.41 188.57 95.25L188.57 95.25L189.65 94.10Q191.74 96.33 195.19 97.59Q198.65 98.85 202.46 98.85L202.46 98.85Q208.87 98.85 212.54 96.40Q216.22 93.95 216.22 89.63L216.22 89.63Q216.22 87.18 214.81 85.74Q213.41 84.30 211.36 83.62Q209.30 82.94 205.70 82.14L205.70 82.14Q201.96 81.35 199.62 80.56Q197.28 79.77 195.70 78.04Q194.11 76.31 194.11 73.29L194.11 73.29Q194.11 68.46 198.14 65.51Q202.18 62.56 208.80 62.56L208.80 62.56Q212.26 62.56 215.50 63.60Q218.74 64.65 220.61 66.38L220.61 66.38L219.60 67.46Q217.66 65.73 214.78 64.83Q211.90 63.93 208.73 63.93L208.73 63.93Q202.75 63.93 199.15 66.45Q195.55 68.97 195.55 73.22L195.55 73.22Q195.55 75.74 196.99 77.18Q198.43 78.62 200.56 79.34Q202.68 80.06 206.14 80.78L206.14 80.78Q209.95 81.57 212.22 82.36Q214.49 83.15 216.07 84.88Q217.66 86.61 217.66 89.56L217.66 89.56Q217.66 94.53 213.55 97.37Q209.45 100.22 202.39 100.22L202.39 100.22ZM260.42 81.35L227.30 81.35Q227.09 83.08 227.09 84.88L227.09 84.88Q227.09 91.65 230.98 95.25Q234.86 98.85 242.21 98.85L242.21 98.85Q246.38 98.85 249.91 97.37Q253.44 95.90 255.74 93.30L255.74 93.30L256.61 94.24Q254.30 96.98 250.45 98.60Q246.60 100.22 242.14 100.22L242.14 100.22Q234.36 100.22 230.04 96.22Q225.72 92.22 225.72 84.88L225.72 84.88Q225.72 78.62 228.31 73.50Q230.90 68.39 235.44 65.48Q239.98 62.56 245.59 62.56L245.59 62.56Q252.65 62.56 256.72 66.59Q260.78 70.62 260.78 77.68L260.78 77.68Q260.78 79.55 260.42 81.35L260.42 81.35ZM245.59 63.93Q238.82 63.93 233.89 68.36Q228.96 72.78 227.52 79.98L227.52 79.98L259.27 79.98Q259.42 79.05 259.42 77.25L259.42 77.25Q259.42 70.91 255.64 67.42Q251.86 63.93 245.59 63.93L245.59 63.93ZM275.98 72.35Q281.09 62.56 292.61 62.56L292.61 62.56L292.32 64.00L291.67 64.00Q284.83 64.00 280.44 68.21Q276.05 72.42 274.39 80.56L274.39 80.56L270.50 100L269.06 100L276.48 62.78L277.92 62.78L275.98 72.35ZM302.83 72.35Q307.94 62.56 319.46 62.56L319.46 62.56L319.18 64.00L318.53 64.00Q311.69 64.00 307.30 68.21Q302.90 72.42 301.25 80.56L301.25 80.56L297.36 100L295.92 100L303.34 62.78L304.78 62.78L302.83 72.35ZM360.22 62.78L361.66 62.78L354.24 100L352.80 100L354.74 90.28Q352.08 94.96 347.51 97.59Q342.94 100.22 337.25 100.22L337.25 100.22Q329.98 100.22 325.69 96.15Q321.41 92.08 321.41 85.10L321.41 85.10Q321.41 78.69 324.11 73.58Q326.81 68.46 331.60 65.51Q336.38 62.56 342.43 62.56L342.43 62.56Q349.06 62.56 353.02 65.76Q356.98 68.97 357.77 74.87L357.77 74.87L360.22 62.78ZM337.46 98.85Q342.94 98.85 347.36 96.11Q351.79 93.38 354.31 88.55Q356.83 83.73 356.83 77.75L356.83 77.75Q356.83 71.20 352.98 67.56Q349.13 63.93 342.22 63.93L342.22 63.93Q336.74 63.93 332.32 66.66Q327.89 69.40 325.37 74.22Q322.85 79.05 322.85 85.02L322.85 85.02Q322.85 91.58 326.70 95.21Q330.55 98.85 337.46 98.85L337.46 98.85ZM379.94 64.14L374.76 89.99Q374.40 91.94 374.40 93.09L374.40 93.09Q374.40 98.85 380.74 98.85L380.74 98.85Q384.41 98.85 387.29 96.54L387.29 96.54L388.08 97.55Q386.64 98.85 384.62 99.53Q382.61 100.22 380.59 100.22L380.59 100.22Q376.85 100.22 374.90 98.38Q372.96 96.54 372.96 93.16L372.96 93.16Q372.96 91.72 373.25 90.35L373.25 90.35L378.50 64.14L371.30 64.14L371.52 62.78L378.72 62.78L380.38 54.64L381.82 54.64L380.16 62.78L392.76 62.78L392.54 64.14L379.94 64.14ZM425.88 64.14L420.70 89.99Q420.34 91.94 420.34 93.09L420.34 93.09Q420.34 98.85 426.67 98.85L426.67 98.85Q430.34 98.85 433.22 96.54L433.22 96.54L434.02 97.55Q432.58 98.85 430.56 99.53Q428.54 100.22 426.53 100.22L426.53 100.22Q422.78 100.22 420.84 98.38Q418.90 96.54 418.90 93.16L418.90 93.16Q418.90 91.72 419.18 90.35L419.18 90.35L424.44 64.14L417.24 64.14L417.46 62.78L424.66 62.78L426.31 54.64L427.75 54.64L426.10 62.78L438.70 62.78L438.48 64.14L425.88 64.14ZM468.36 62.56Q474.77 62.56 478.08 65.66Q481.39 68.75 481.39 74.08L481.39 74.08Q481.39 75.95 480.96 78.04L480.96 78.04L476.57 100L475.13 100L479.52 78.04Q479.95 75.95 479.95 74.22L479.95 74.22Q479.95 69.33 476.96 66.63Q473.98 63.93 468.22 63.93L468.22 63.93Q461.09 63.93 456.37 67.89Q451.66 71.85 450.14 79.34L450.14 79.34L446.04 100L444.60 100L455.26 46.58L456.70 46.58L451.66 71.85Q456.91 62.56 468.36 62.56L468.36 62.56ZM492.70 100L500.11 62.78L501.55 62.78L494.14 100L492.70 100ZM503.14 52.48Q502.42 52.48 501.91 51.98Q501.41 51.47 501.41 50.75L501.41 50.75Q501.41 49.96 502.02 49.35Q502.63 48.74 503.42 48.74L503.42 48.74Q504.14 48.74 504.65 49.24Q505.15 49.74 505.15 50.46L505.15 50.46Q505.15 51.26 504.54 51.87Q503.93 52.48 503.14 52.48L503.14 52.48ZM534.46 62.56Q540.86 62.56 544.18 65.66Q547.49 68.75 547.49 74.08L547.49 74.08Q547.49 75.95 547.06 78.04L547.06 78.04L542.66 100L541.22 100L545.62 78.04Q546.05 75.95 546.05 74.22L546.05 74.22Q546.05 69.33 543.06 66.63Q540.07 63.93 534.31 63.93L534.31 63.93Q527.18 63.93 522.47 67.89Q517.75 71.85 516.24 79.34L516.24 79.34L512.14 100L510.70 100L518.11 62.78L519.55 62.78L517.75 71.85Q523.01 62.56 534.46 62.56L534.46 62.56ZM576.79 100L584.21 62.78L585.65 62.78L578.23 100L576.79 100ZM587.23 52.48Q586.51 52.48 586.01 51.98Q585.50 51.47 585.50 50.75L585.50 50.75Q585.50 49.96 586.12 49.35Q586.73 48.74 587.52 48.74L587.52 48.74Q588.24 48.74 588.74 49.24Q589.25 49.74 589.25 50.46L589.25 50.46Q589.25 51.26 588.64 51.87Q588.02 52.48 587.23 52.48L587.23 52.48ZM604.01 64.14L598.82 89.99Q598.46 91.94 598.46 93.09L598.46 93.09Q598.46 98.85 604.80 98.85L604.80 98.85Q608.47 98.85 611.35 96.54L611.35 96.54L612.14 97.55Q610.70 98.85 608.69 99.53Q606.67 100.22 604.66 100.22L604.66 100.22Q600.91 100.22 598.97 98.38Q597.02 96.54 597.02 93.16L597.02 93.16Q597.02 91.72 597.31 90.35L597.31 90.35L602.57 64.14L595.37 64.14L595.58 62.78L602.78 62.78L604.44 54.64L605.88 54.64L604.22 62.78L616.82 62.78L616.61 64.14L604.01 64.14ZM659.09 62.78L660.53 62.78L653.11 100L651.67 100L653.62 90.28Q650.95 94.96 646.38 97.59Q641.81 100.22 636.12 100.22L636.12 100.22Q628.85 100.22 624.56 96.15Q620.28 92.08 620.28 85.10L620.28 85.10Q620.28 78.69 622.98 73.58Q625.68 68.46 630.47 65.51Q635.26 62.56 641.30 62.56L641.30 62.56Q647.93 62.56 651.89 65.76Q655.85 68.97 656.64 74.87L656.64 74.87L659.09 62.78ZM636.34 98.85Q641.81 98.85 646.24 96.11Q650.66 93.38 653.18 88.55Q655.70 83.73 655.70 77.75L655.70 77.75Q655.70 71.20 651.85 67.56Q648.00 63.93 641.09 63.93L641.09 63.93Q635.62 63.93 631.19 66.66Q626.76 69.40 624.24 74.22Q621.72 79.05 621.72 85.02L621.72 85.02Q621.72 91.58 625.57 95.21Q629.42 98.85 636.34 98.85L636.34 98.85ZM669.60 100L680.26 46.58L681.70 46.58L671.04 100L669.60 100ZM687.60 100L695.02 62.78L696.46 62.78L689.04 100L687.60 100ZM698.04 52.48Q697.32 52.48 696.82 51.98Q696.31 51.47 696.31 50.75L696.31 50.75Q696.31 49.96 696.92 49.35Q697.54 48.74 698.33 48.74L698.33 48.74Q699.05 48.74 699.55 49.24Q700.06 49.74 700.06 50.46L700.06 50.46Q700.06 51.26 699.44 51.87Q698.83 52.48 698.04 52.48L698.04 52.48ZM720.79 100.22Q713.23 100.22 708.91 96.15Q704.59 92.08 704.59 85.10L704.59 85.10Q704.59 78.69 707.29 73.54Q709.99 68.39 714.82 65.48Q719.64 62.56 725.69 62.56L725.69 62.56Q730.37 62.56 733.79 64.14Q737.21 65.73 739.01 68.82L739.01 68.82L737.93 69.69Q734.18 63.93 725.62 63.93L725.62 63.93Q720.00 63.93 715.54 66.66Q711.07 69.40 708.55 74.22Q706.03 79.05 706.03 85.02L706.03 85.02Q706.03 91.65 709.92 95.25Q713.81 98.85 721.01 98.85L721.01 98.85Q724.97 98.85 728.46 97.37Q731.95 95.90 734.18 93.23L734.18 93.23L735.05 94.24Q732.74 97.05 728.96 98.63Q725.18 100.22 720.79 100.22L720.79 100.22Z"/></svg>