<svg xmlns="http://www.w3.org/2000/svg" viewBox="0.14400000000000002 40.88799999999999 896.8319999999999 59.83200000000001"><path d="M56.09 49.60L70.56 49.60L60.62 100L45.14 100L49.61 77.03L35.42 95.46L27.94 95.46L20.16 77.32L15.62 100L0.14 100L10.22 49.60L24.05 49.60L34.99 76.38L56.09 49.60ZM91.44 100.72Q84.96 100.72 80.14 98.45Q75.31 96.18 72.68 92.08Q70.06 87.98 70.06 82.50L70.06 82.50Q70.06 76.10 73.22 70.95Q76.39 65.80 81.97 62.85Q87.55 59.90 94.61 59.90L94.61 59.90Q101.09 59.90 105.91 62.16Q110.74 64.43 113.36 68.54Q115.99 72.64 115.99 78.11L115.99 78.11Q115.99 84.52 112.82 89.67Q109.66 94.82 104.08 97.77Q98.50 100.72 91.44 100.72L91.44 100.72ZM92.38 87.90Q95.54 87.90 97.52 85.46Q99.50 83.01 99.50 78.90L99.50 78.90Q99.50 76.10 97.96 74.40Q96.41 72.71 93.67 72.71L93.67 72.71Q90.50 72.71 88.52 75.16Q86.54 77.61 86.54 81.71L86.54 81.71Q86.54 84.52 88.09 86.21Q89.64 87.90 92.38 87.90L92.38 87.90ZM151.20 59.90Q157.61 59.90 161.46 63.35Q165.31 66.81 165.31 73.29L165.31 73.29Q165.31 75.74 164.81 78.26L164.81 78.26L160.49 100L144.22 100L148.18 80.20Q148.46 78.47 148.46 77.82L148.46 77.82Q148.46 73.58 144.36 73.58L144.36 73.58Q138.60 73.58 137.09 81.06L137.09 81.06L133.27 100L117.00 100L124.85 60.62L140.18 60.62L139.39 64.58Q141.91 62.20 144.97 61.05Q148.03 59.90 151.20 59.90L151.20 59.90ZM190.66 74.66L188.71 84.52Q188.57 85.38 188.57 85.67L188.57 85.67Q188.57 88.41 191.59 88.41L191.59 88.41Q193.18 88.41 195.19 87.47L195.19 87.47L197.06 98.42Q192.89 100.72 186.41 100.72L186.41 100.72Q179.71 100.72 175.86 97.52Q172.01 94.31 172.01 88.48L172.01 88.48Q172.01 86.61 172.44 84.59L172.44 84.59L174.46 74.66L168.98 74.66L171.36 62.78L176.76 62.78L178.99 51.76L195.26 51.76L193.03 62.78L201.10 62.78L198.72 74.66L190.66 74.66ZM217.08 100.72Q211.97 100.72 207.22 99.71Q202.46 98.70 199.80 97.12L199.80 97.12L205.42 86.03Q208.22 87.76 211.93 88.70Q215.64 89.63 219.10 89.63L219.10 89.63Q223.92 89.63 223.92 87.76L223.92 87.76Q223.92 86.97 222.66 86.57Q221.40 86.18 218.66 85.82L218.66 85.82Q214.42 85.17 211.46 84.27Q208.51 83.37 206.28 81.10Q204.05 78.83 204.05 74.80L204.05 74.80Q204.05 67.53 210.24 63.71Q216.43 59.90 226.22 59.90L226.22 59.90Q230.54 59.90 234.54 60.65Q238.54 61.41 241.63 62.85L241.63 62.85L236.02 73.94Q230.90 70.98 224.28 70.98L224.28 70.98Q221.69 70.98 220.50 71.56Q219.31 72.14 219.31 72.93L219.31 72.93Q219.31 73.72 220.54 74.12Q221.76 74.51 224.71 75.02L224.71 75.02Q228.89 75.66 231.80 76.56Q234.72 77.46 236.92 79.73Q239.11 82 239.11 85.96L239.11 85.96Q239.11 90.71 236.20 94.06Q233.28 97.41 228.28 99.06Q223.27 100.72 217.08 100.72L217.08 100.72ZM287.57 77.25Q287.57 80.49 286.70 84.09L286.70 84.09L259.13 84.09Q259.63 86.54 261.50 87.62Q263.38 88.70 266.69 88.70L266.69 88.70Q271.58 88.70 275.26 85.96L275.26 85.96L282.02 95.82Q274.82 100.72 264.82 100.72L264.82 100.72Q258.41 100.72 253.48 98.49Q248.54 96.26 245.84 92.15Q243.14 88.05 243.14 82.50L243.14 82.50Q243.14 76.02 246.20 70.88Q249.26 65.73 254.81 62.81Q260.35 59.90 267.55 59.90L267.55 59.90Q273.74 59.90 278.28 62.09Q282.82 64.29 285.19 68.21Q287.57 72.14 287.57 77.25L287.57 77.25ZM266.83 70.98Q264.17 70.98 262.40 72.39Q260.64 73.79 259.78 76.24L259.78 76.24L272.66 76.24Q272.66 73.79 271.08 72.39Q269.50 70.98 266.83 70.98L266.83 70.98ZM310.39 64.65Q315.22 59.90 324.22 59.90L324.22 59.90L321.34 74.30Q319.54 74.01 317.81 74.01L317.81 74.01Q313.63 74.01 311.22 75.84Q308.81 77.68 307.94 81.78L307.94 81.78L304.27 100L288 100L295.85 60.62L311.18 60.62L310.39 64.65ZM343.22 64.65Q348.05 59.90 357.05 59.90L357.05 59.90L354.17 74.30Q352.37 74.01 350.64 74.01L350.64 74.01Q346.46 74.01 344.05 75.84Q341.64 77.68 340.78 81.78L340.78 81.78L337.10 100L320.83 100L328.68 60.62L344.02 60.62L343.22 64.65ZM388.15 60.62L404.42 60.62L396.58 100L381.24 100L381.96 96.40Q377.50 100.72 371.30 100.72L371.30 100.72Q367.27 100.72 363.53 98.56Q359.78 96.40 357.44 92.26Q355.10 88.12 355.10 82.50L355.10 82.50Q355.10 76.17 357.95 70.98Q360.79 65.80 365.62 62.85Q370.44 59.90 376.06 59.90L376.06 59.90Q383.98 59.90 387.29 64.79L387.29 64.79L388.15 60.62ZM371.59 81.71Q371.59 84.52 373.14 86.21Q374.69 87.90 377.42 87.90L377.42 87.90Q380.59 87.90 382.57 85.46Q384.55 83.01 384.55 78.90L384.55 78.90Q384.55 76.10 383.00 74.40Q381.46 72.71 378.72 72.71L378.72 72.71Q375.55 72.71 373.57 75.16Q371.59 77.61 371.59 81.71L371.59 81.71ZM426.82 74.66L424.87 84.52Q424.73 85.38 424.73 85.67L424.73 85.67Q424.73 88.41 427.75 88.41L427.75 88.41Q429.34 88.41 431.35 87.47L431.35 87.47L433.22 98.42Q429.05 100.72 422.57 100.72L422.57 100.72Q415.87 100.72 412.02 97.52Q408.17 94.31 408.17 88.48L408.17 88.48Q408.17 86.61 408.60 84.59L408.60 84.59L410.62 74.66L405.14 74.66L407.52 62.78L412.92 62.78L415.15 51.76L431.42 51.76L429.19 62.78L437.26 62.78L434.88 74.66L426.82 74.66ZM491.54 59.90Q495.58 59.90 499.32 62.06Q503.06 64.22 505.40 68.36Q507.74 72.50 507.74 78.11L507.74 78.11Q507.74 84.45 504.90 89.63Q502.06 94.82 497.23 97.77Q492.41 100.72 486.79 100.72L486.79 100.72Q478.08 100.72 474.91 94.82L474.91 94.82L473.90 100L458.42 100L469.08 46.58L485.35 46.58L482.04 63.28Q486.07 59.90 491.54 59.90L491.54 59.90ZM484.13 87.90Q487.30 87.90 489.28 85.46Q491.26 83.01 491.26 78.90L491.26 78.90Q491.26 76.10 489.71 74.40Q488.16 72.71 485.42 72.71L485.42 72.71Q482.26 72.71 480.28 75.16Q478.30 77.61 478.30 81.71L478.30 81.71Q478.30 84.52 479.84 86.21Q481.39 87.90 484.13 87.90L484.13 87.90ZM508.82 100L519.48 46.58L535.75 46.58L525.10 100L508.82 100ZM567.14 60.62L583.42 60.62L575.57 100L560.23 100L560.95 96.40Q556.49 100.72 550.30 100.72L550.30 100.72Q546.26 100.72 542.52 98.56Q538.78 96.40 536.44 92.26Q534.10 88.12 534.10 82.50L534.10 82.50Q534.10 76.17 536.94 70.98Q539.78 65.80 544.61 62.85Q549.43 59.90 555.05 59.90L555.05 59.90Q562.97 59.90 566.28 64.79L566.28 64.79L567.14 60.62ZM550.58 81.71Q550.58 84.52 552.13 86.21Q553.68 87.90 556.42 87.90L556.42 87.90Q559.58 87.90 561.56 85.46Q563.54 83.01 563.54 78.90L563.54 78.90Q563.54 76.10 562.00 74.40Q560.45 72.71 557.71 72.71L557.71 72.71Q554.54 72.71 552.56 75.16Q550.58 77.61 550.58 81.71L550.58 81.71ZM605.88 100.72Q599.47 100.72 594.61 98.45Q589.75 96.18 587.09 92.08Q584.42 87.98 584.42 82.50L584.42 82.50Q584.42 76.10 587.59 70.95Q590.76 65.80 596.45 62.85Q602.14 59.90 609.26 59.90L609.26 59.90Q616.25 59.90 621.47 62.99Q626.69 66.09 628.78 71.42L628.78 71.42L614.95 77.75Q613.08 72.71 608.47 72.71L608.47 72.71Q605.16 72.71 603.04 75.16Q600.91 77.61 600.91 81.50L600.91 81.50Q600.91 84.38 602.53 86.14Q604.15 87.90 607.10 87.90L607.10 87.90Q609.55 87.90 611.32 86.72Q613.08 85.53 614.45 82.86L614.45 82.86L626.33 89.78Q623.38 95.03 618.08 97.88Q612.79 100.72 605.88 100.72L605.88 100.72ZM681.55 60.62L661.82 78.40L674.71 100L655.63 100L648.86 88.55L644.69 92.44L643.18 100L626.90 100L637.56 46.58L653.83 46.58L648.79 71.85L661.54 60.62L681.55 60.62ZM698.18 100L706.03 60.62L722.23 60.62L714.38 100L698.18 100ZM715.90 57.45Q711.72 57.45 709.20 55.25Q706.68 53.06 706.68 49.74L706.68 49.74Q706.68 45.93 709.56 43.41Q712.44 40.89 717.05 40.89L717.05 40.89Q721.22 40.89 723.74 42.94Q726.26 44.99 726.26 48.30L726.26 48.30Q726.26 52.41 723.42 54.93Q720.58 57.45 715.90 57.45L715.90 57.45ZM744.70 74.66L742.75 84.52Q742.61 85.38 742.61 85.67L742.61 85.67Q742.61 88.41 745.63 88.41L745.63 88.41Q747.22 88.41 749.23 87.47L749.23 87.47L751.10 98.42Q746.93 100.72 740.45 100.72L740.45 100.72Q733.75 100.72 729.90 97.52Q726.05 94.31 726.05 88.48L726.05 88.48Q726.05 86.61 726.48 84.59L726.48 84.59L728.50 74.66L723.02 74.66L725.40 62.78L730.80 62.78L733.03 51.76L749.30 51.76L747.07 62.78L755.14 62.78L752.76 74.66L744.70 74.66ZM788.47 60.62L804.74 60.62L796.90 100L781.56 100L782.28 96.40Q777.82 100.72 771.62 100.72L771.62 100.72Q767.59 100.72 763.85 98.56Q760.10 96.40 757.76 92.26Q755.42 88.12 755.42 82.50L755.42 82.50Q755.42 76.17 758.27 70.98Q761.11 65.80 765.94 62.85Q770.76 59.90 776.38 59.90L776.38 59.90Q784.30 59.90 787.61 64.79L787.61 64.79L788.47 60.62ZM771.91 81.71Q771.91 84.52 773.46 86.21Q775.01 87.90 777.74 87.90L777.74 87.90Q780.91 87.90 782.89 85.46Q784.87 83.01 784.87 78.90L784.87 78.90Q784.87 76.10 783.32 74.40Q781.78 72.71 779.04 72.71L779.04 72.71Q775.87 72.71 773.89 75.16Q771.91 77.61 771.91 81.71L771.91 81.71ZM804.02 100L814.68 46.58L830.95 46.58L820.30 100L804.02 100ZM827.50 100L835.34 60.62L851.54 60.62L843.70 100L827.50 100ZM845.21 57.45Q841.03 57.45 838.51 55.25Q835.99 53.06 835.99 49.74L835.99 49.74Q835.99 45.93 838.87 43.41Q841.75 40.89 846.36 40.89L846.36 40.89Q850.54 40.89 853.06 42.94Q855.58 44.99 855.58 48.30L855.58 48.30Q855.58 52.41 852.73 54.93Q849.89 57.45 845.21 57.45L845.21 57.45ZM874.08 100.72Q867.67 100.72 862.81 98.45Q857.95 96.18 855.29 92.08Q852.62 87.98 852.62 82.50L852.62 82.50Q852.62 76.10 855.79 70.95Q858.96 65.80 864.65 62.85Q870.34 59.90 877.46 59.90L877.46 59.90Q884.45 59.90 889.67 62.99Q894.89 66.09 896.98 71.42L896.98 71.42L883.15 77.75Q881.28 72.71 876.67 72.71L876.67 72.71Q873.36 72.71 871.24 75.16Q869.11 77.61 869.11 81.50L869.11 81.50Q869.11 84.38 870.73 86.14Q872.35 87.90 875.30 87.90L875.30 87.90Q877.75 87.90 879.52 86.72Q881.28 85.53 882.65 82.86L882.65 82.86L894.53 89.78Q891.58 95.03 886.28 97.88Q880.99 100.72 874.08 100.72L874.08 100.72Z"/></svg>