<svg xmlns="http://www.w3.org/2000/svg" viewBox="9.216000000000001 46.57599999999999 751.968 67.608"><path d="M60 100L57 100L57 55L35 93L34 93L12 55L12 100L9 100L9 50L11 50L34 90L58 50L60 50L60 100ZM91 100Q86 100 82 98Q77 95 75 91Q73 87 73 81L73 81Q73 76 75 71Q77 67 82 65Q86 62 91 62L91 62Q96 62 100 65Q105 67 107 71Q109 76 109 81L109 81Q109 87 107 91Q105 95 100 98Q96 100 91 100L91 100ZM91 98Q95 98 99 96Q103 94 105 90Q107 86 107 81L107 81Q107 76 105 73Q103 69 99 67Q95 65 91 65L91 65Q86 65 83 67Q79 69 77 73Q75 76 75 81L75 81Q75 86 77 90Q79 94 83 96Q86 98 91 98L91 98ZM139 62Q146 62 150 66Q154 70 154 78L154 78L154 100L151 100L151 78Q151 72 148 68Q145 65 138 65L138 65Q131 65 127 69Q123 73 123 80L123 80L123 100L121 100L121 63L123 63L123 72Q125 67 129 65Q133 62 139 62L139 62ZM186 96L187 98Q186 99 184 100Q182 100 179 100L179 100Q175 100 172 98Q170 95 170 91L170 91L170 65L163 65L163 63L170 63L170 54L172 54L172 63L185 63L185 65L172 65L172 90Q172 94 174 96Q176 98 180 98L180 98Q183 98 186 96L186 96ZM206 100Q202 100 198 99Q194 97 192 95L192 95L193 93Q195 95 199 97Q202 98 207 98L207 98Q213 98 215 96Q218 94 218 90L218 90Q218 88 217 86Q215 85 213 84Q211 83 207 83L207 83Q202 82 200 81Q197 80 195 78Q193 76 193 72L193 72Q193 68 197 65Q200 62 207 62L207 62Q210 62 214 63Q217 64 219 66L219 66L218 68Q216 66 213 65Q210 65 207 65L207 65Q201 65 198 67Q196 69 196 72L196 72Q196 75 197 77Q199 78 201 79Q203 80 207 80L207 80Q212 81 214 82Q217 83 219 85Q221 87 221 90L221 90Q221 95 217 98Q213 100 206 100L206 100ZM262 81L262 82L229 82Q229 86 232 90Q234 94 238 96Q241 98 246 98L246 98Q250 98 253 97Q256 95 258 93L258 93L260 94Q257 97 254 99Q250 100 246 100L246 100Q241 100 236 98Q232 95 230 91Q227 87 227 81L227 81Q227 76 229 71Q232 67 236 65Q240 62 245 62L245 62Q250 62 254 65Q258 67 260 71Q262 76 262 81L262 81ZM245 65Q240 65 237 66Q234 68 232 72Q230 75 229 80L229 80L260 80Q260 75 258 72Q256 68 252 66Q249 65 245 65L245 65ZM276 72Q278 67 282 65Q285 62 291 62L291 62L291 65L290 65Q284 65 280 69Q276 73 276 80L276 80L276 100L274 100L274 63L276 63L276 72ZM303 72Q305 67 309 65Q313 62 318 62L318 62L318 65L317 65Q311 65 307 69Q304 73 304 80L304 80L304 100L301 100L301 63L303 63L303 72ZM341 62Q347 62 351 66Q354 69 354 76L354 76L354 100L352 100L352 93Q350 96 347 98Q343 100 338 100L338 100Q332 100 328 97Q325 94 325 90L325 90Q325 85 328 82Q331 79 338 79L338 79L352 79L352 76Q352 70 349 67Q346 65 341 65L341 65Q337 65 333 66Q330 67 327 70L327 70L326 68Q329 65 333 64Q336 62 341 62L341 62ZM338 98Q348 98 352 89L352 89L352 81L338 81Q333 81 330 84Q327 86 327 90L327 90Q327 94 330 96Q333 98 338 98L338 98ZM386 96L388 98Q386 99 384 100Q382 100 380 100L380 100Q376 100 373 98Q371 95 371 91L371 91L371 65L364 65L364 63L371 63L371 54L373 54L373 63L385 63L385 65L373 65L373 90Q373 94 375 96Q377 98 380 98L380 98Q384 98 386 96L386 96ZM447 81L447 82L415 82Q415 86 417 90Q419 94 423 96Q426 98 431 98L431 98Q435 98 438 97Q441 95 444 93L444 93L445 94Q443 97 439 99Q435 100 431 100L431 100Q426 100 421 98Q417 95 415 91Q412 87 412 81L412 81Q412 76 414 71Q417 67 421 65Q425 62 430 62L430 62Q435 62 439 65Q443 67 445 71Q447 76 447 81L447 81ZM430 65Q426 65 422 66Q419 68 417 72Q415 75 415 80L415 80L445 80Q445 75 443 72Q441 68 437 66Q434 65 430 65L430 65ZM485 100L482 100L468 82L455 100L452 100L467 81L453 63L455 63L468 79L481 63L484 63L470 81L485 100ZM511 96L512 98Q511 99 509 100Q507 100 505 100L505 100Q500 100 498 98Q495 95 495 91L495 91L495 65L488 65L488 63L495 63L495 54L497 54L497 63L510 63L510 65L497 65L497 90Q497 94 499 96Q501 98 505 98L505 98Q508 98 511 96L511 96ZM525 72Q527 67 530 65Q534 62 539 62L539 62L539 65L539 65Q532 65 529 69Q525 73 525 80L525 80L525 100L523 100L523 63L525 63L525 72ZM562 62Q569 62 572 66Q576 69 576 76L576 76L576 100L574 100L574 93Q572 96 568 98Q565 100 560 100L560 100Q553 100 550 97Q546 94 546 90L546 90Q546 85 550 82Q553 79 560 79L560 79L574 79L574 76Q574 70 571 67Q568 65 562 65L562 65Q558 65 555 66Q551 67 549 70L549 70L547 68Q550 65 554 64Q558 62 562 62L562 62ZM560 98Q570 98 574 89L574 89L574 81L560 81Q554 81 551 84Q549 86 549 90L549 90Q549 94 552 96Q555 98 560 98L560 98ZM610 100L610 47L612 47L612 100L610 100ZM628 100L628 63L630 63L630 100L628 100ZM629 53Q628 53 628 52Q627 51 627 51L627 51Q627 50 628 49Q628 48 629 48L629 48Q630 48 631 49Q632 50 632 50L632 50Q632 51 631 52Q630 53 629 53L629 53ZM677 63L679 63L679 96Q679 105 675 110Q671 114 662 114L662 114Q656 114 652 113Q648 111 645 108L645 108L646 106Q649 109 653 111Q657 112 662 112L662 112Q669 112 673 108Q677 105 677 97L677 97L677 89Q675 93 671 96Q666 99 661 99L661 99Q655 99 651 96Q647 94 645 90Q642 86 642 80L642 80Q642 75 645 71Q647 67 651 65Q655 62 661 62L661 62Q666 62 671 65Q675 68 677 72L677 72L677 63ZM661 97Q665 97 669 94Q673 92 675 89Q677 85 677 80L677 80Q677 76 675 72Q673 69 669 67Q665 65 661 65L661 65Q656 65 652 67Q649 69 647 72Q645 76 645 80L645 80Q645 85 647 89Q649 92 652 94Q656 97 661 97L661 97ZM713 62Q720 62 724 66Q728 70 728 78L728 78L728 100L726 100L726 78Q726 72 722 68Q719 65 713 65L713 65Q706 65 702 69Q698 73 698 80L698 80L698 100L695 100L695 47L698 47L698 72Q700 67 704 65Q707 62 713 62L713 62ZM760 96L761 98Q760 99 758 100Q756 100 754 100L754 100Q749 100 747 98Q744 95 744 91L744 91L744 65L737 65L737 63L744 63L744 54L747 54L747 63L759 63L759 65L747 65L747 90Q747 94 748 96Q750 98 754 98L754 98Q758 98 760 96L760 96Z"/></svg>