<svg xmlns="http://www.w3.org/2000/svg" viewBox="4.6080000000000005 48.80799999999999 456.1920000000001 51.912000000000006"><path d="M4.61 100L8.21 54.64L18.14 54.64L26.14 79.12Q27.14 82.22 27.90 84.70Q28.66 87.18 29.45 90.28L29.45 90.28L29.66 90.28Q30.46 87.69 31.28 84.74Q32.11 81.78 32.90 79.12L32.90 79.12L40.61 54.64L50.54 54.64L54.29 100L46.80 100Q46.22 92.80 45.68 85.49Q45.14 78.18 44.86 70.84L44.86 70.84L44.57 62.56L44.42 62.56Q43.20 67.02 41.87 71.63Q40.54 76.24 39.10 80.49L39.10 80.49L32.69 100L26.14 100L19.66 80.42Q18.65 77.32 17.89 74.80Q17.14 72.28 16.52 70.16Q15.91 68.03 15.41 66.16Q14.90 64.29 14.47 62.56L14.47 62.56L14.26 62.56Q14.04 68.68 13.61 75.02Q13.18 81.35 12.82 87.18L12.82 87.18L11.95 100L4.61 100ZM86.11 90.64L86.11 66.02L93.53 66.02L93.53 100L87.84 100L86.90 95.90L86.62 95.90Q84.82 97.77 82.08 99.24Q79.34 100.72 75.46 100.72L75.46 100.72Q70.06 100.72 66.82 97.70Q63.58 94.67 63.58 88.62L63.58 88.62L63.58 66.02L70.99 66.02L70.99 87.83Q70.99 91.79 72.83 93.38Q74.66 94.96 77.26 94.96L77.26 94.96Q80.06 94.96 82.22 93.77Q84.38 92.58 86.11 90.64L86.11 90.64ZM113.54 84.74L110.38 87.90L110.38 100L103.03 100L103.03 48.81L110.38 48.81L110.38 80.20L123.26 66.02L132.34 66.02L118.66 80.34L132.98 100L124.27 100L113.54 84.74ZM156.67 66.02L156.67 71.49L147.02 71.49L147.02 89.85Q147.02 92.37 148.21 93.23Q149.40 94.10 151.42 94.10L151.42 94.10Q152.86 94.10 154.48 93.77Q156.10 93.45 157.32 93.02L157.32 93.02L158.47 98.49Q157.03 99.06 154.76 99.53Q152.50 100 149.98 100L149.98 100Q144.50 100 142.09 97.73Q139.68 95.46 139.68 91L139.68 91L139.68 71.49L134.50 71.49L134.50 66.02L139.68 66.02L139.68 55.29L147.02 55.29L147.02 66.02L156.67 66.02ZM167.76 74.22L165.02 69.04Q168.34 67.24 171.40 66.34Q174.46 65.44 178.20 65.44L178.20 65.44Q181.08 65.44 183.49 66.09Q185.90 66.74 187.63 68.18Q189.36 69.62 190.33 72.03Q191.30 74.44 191.30 77.90L191.30 77.90L191.30 100L185.33 100L184.54 96.33L184.32 96.33Q182.30 98.63 179.64 99.68Q176.98 100.72 173.74 100.72L173.74 100.72Q168.62 100.72 165.49 97.98Q162.36 95.25 162.36 90.71L162.36 90.71Q162.36 87.90 163.51 85.85Q164.66 83.80 166.75 82.43Q168.84 81.06 171.72 80.38Q174.60 79.70 178.06 79.70L178.06 79.70L183.82 79.70L183.82 77.10Q183.82 73.86 182.09 72.60Q180.36 71.34 177.34 71.34L177.34 71.34Q175.46 71.34 173.12 71.96Q170.78 72.57 167.76 74.22L167.76 74.22ZM183.89 91L183.89 84.59L179.35 84.66Q174.24 84.81 172.15 86.46Q170.06 88.12 170.06 90.35L170.06 90.35Q170.06 91.79 170.53 92.73Q171.00 93.66 171.79 94.24Q172.58 94.82 173.63 95.07Q174.67 95.32 175.75 95.32L175.75 95.32Q177.98 95.32 180.18 94.20Q182.38 93.09 183.89 91L183.89 91ZM223.92 75.66L223.92 100L216.50 100L216.50 66.02L222.26 66.02L223.27 70.55Q225.65 68.18 228.38 66.81Q231.12 65.44 234.79 65.44L234.79 65.44Q238.46 65.44 240.80 66.88Q243.14 68.32 244.37 70.91L244.37 70.91Q246.82 68.32 249.80 66.88Q252.79 65.44 256.39 65.44L256.39 65.44Q261.72 65.44 264.42 68.36Q267.12 71.27 267.12 76.60L267.12 76.60L267.12 100L259.70 100L259.70 77.75Q259.70 74.66 258.37 73Q257.04 71.34 254.02 71.34L254.02 71.34Q249.41 71.34 245.52 75.45L245.52 75.45L245.52 100L238.10 100L238.10 77.75Q238.10 74.66 236.77 73Q235.44 71.34 232.42 71.34L232.42 71.34Q227.81 71.34 223.92 75.66L223.92 75.66ZM306.00 80.70L306.00 84.30L282.17 84.30L282.17 84.59Q282.17 89.78 285.19 92.44Q288.22 95.10 293.18 95.10L293.18 95.10Q295.92 95.10 298.12 94.64Q300.31 94.17 302.54 93.16L302.54 93.16L303.98 98.56Q301.90 99.50 299.02 100.11Q296.14 100.72 292.68 100.72L292.68 100.72Q289.01 100.72 285.70 99.71Q282.38 98.70 279.90 96.54Q277.42 94.38 275.98 91.07Q274.54 87.76 274.54 83.15L274.54 83.15Q274.54 79.19 275.72 75.92Q276.91 72.64 279.11 70.30Q281.30 67.96 284.44 66.70Q287.57 65.44 291.38 65.44L291.38 65.44Q294.70 65.44 297.40 66.52Q300.10 67.60 302.00 69.58Q303.91 71.56 304.96 74.40Q306.00 77.25 306.00 80.70L306.00 80.70ZM282.38 79.26L298.37 79.12Q298.37 77.39 297.94 75.88Q297.50 74.37 296.64 73.25Q295.78 72.14 294.37 71.45Q292.97 70.77 291.02 70.77L291.02 70.77Q287.42 70.77 285.16 73.07Q282.89 75.38 282.38 79.26L282.38 79.26ZM335.59 68.46L335.59 48.81L343.01 48.81L343.01 100L337.18 100L336.31 96.26L336.02 96.26Q334.15 98.42 331.85 99.57Q329.54 100.72 325.87 100.72L325.87 100.72Q322.99 100.72 320.36 99.60Q317.74 98.49 315.68 96.26Q313.63 94.02 312.41 90.71Q311.18 87.40 311.18 83.08L311.18 83.08Q311.18 79.05 312.23 75.81Q313.27 72.57 315.25 70.26Q317.23 67.96 320.11 66.70Q322.99 65.44 326.66 65.44L326.66 65.44Q329.18 65.44 331.56 66.23Q333.94 67.02 335.59 68.46L335.59 68.46ZM335.59 90.71L335.59 74.44Q332.57 70.98 328.32 70.98L328.32 70.98Q326.45 70.98 324.72 71.63Q322.99 72.28 321.62 73.72Q320.26 75.16 319.46 77.39Q318.67 79.62 318.67 82.86L318.67 82.86Q318.67 86.10 319.43 88.41Q320.18 90.71 321.41 92.22Q322.63 93.74 324.25 94.42Q325.87 95.10 327.60 95.10L327.60 95.10Q330.19 95.10 332.17 93.95Q334.15 92.80 335.59 90.71L335.59 90.71ZM360.65 100L353.23 100L353.23 66.02L360.65 66.02L360.65 100ZM356.98 57.59L356.98 57.59Q355.03 57.59 353.88 56.40Q352.73 55.22 352.73 53.42L352.73 53.42Q352.73 51.62 353.88 50.43Q355.03 49.24 356.98 49.24L356.98 49.24Q358.85 49.24 360.04 50.43Q361.22 51.62 361.22 53.42L361.22 53.42Q361.22 55.29 360.04 56.44Q358.85 57.59 356.98 57.59ZM393.41 90.64L393.41 66.02L400.82 66.02L400.82 100L395.14 100L394.20 95.90L393.91 95.90Q392.11 97.77 389.38 99.24Q386.64 100.72 382.75 100.72L382.75 100.72Q377.35 100.72 374.11 97.70Q370.87 94.67 370.87 88.62L370.87 88.62L370.87 66.02L378.29 66.02L378.29 87.83Q378.29 91.79 380.12 93.38Q381.96 94.96 384.55 94.96L384.55 94.96Q387.36 94.96 389.52 93.77Q391.68 92.58 393.41 90.64L393.41 90.64ZM417.60 75.66L417.60 100L410.18 100L410.18 66.02L415.94 66.02L416.95 70.55Q419.33 68.18 422.06 66.81Q424.80 65.44 428.47 65.44L428.47 65.44Q432.14 65.44 434.48 66.88Q436.82 68.32 438.05 70.91L438.05 70.91Q440.50 68.32 443.48 66.88Q446.47 65.44 450.07 65.44L450.07 65.44Q455.40 65.44 458.10 68.36Q460.80 71.27 460.80 76.60L460.80 76.60L460.80 100L453.38 100L453.38 77.75Q453.38 74.66 452.05 73Q450.72 71.34 447.70 71.34L447.70 71.34Q443.09 71.34 439.20 75.45L439.20 75.45L439.20 100L431.78 100L431.78 77.75Q431.78 74.66 430.45 73Q429.12 71.34 426.10 71.34L426.10 71.34Q421.49 71.34 417.60 75.66L417.60 75.66Z"/></svg>