<svg xmlns="http://www.w3.org/2000/svg" viewBox="4.6080000000000005 48.59199999999999 350.1360000000001 52.20000000000001"><path d="M4.61 100L7.85 54.64L20.30 54.64L26.78 75.30Q27.22 76.67 27.68 78.26Q28.15 79.84 28.58 81.42Q29.02 83.01 29.38 84.52Q29.74 86.03 29.95 87.33L29.95 87.33L30.24 87.33Q30.46 86.18 30.82 84.63Q31.18 83.08 31.61 81.42Q32.04 79.77 32.47 78.18Q32.90 76.60 33.26 75.30L33.26 75.30L39.53 54.64L51.98 54.64L55.37 100L46.08 100Q45.65 92.51 45.22 85.02Q44.78 77.54 44.64 69.90L44.64 69.90L44.57 64.00L44.35 64.00Q43.42 67.96 42.30 72.28Q41.18 76.60 40.18 79.84L40.18 79.84L33.77 100L26.14 100L19.58 79.77Q18.36 75.88 17.28 71.56Q16.20 67.24 15.55 64.00L15.55 64.00L15.34 64.00Q15.34 66.59 15.26 69.44Q15.19 72.28 15.08 75.09Q14.98 77.90 14.87 80.60Q14.76 83.30 14.62 85.53L14.62 85.53L13.75 100L4.61 100ZM86.47 89.99L86.47 65.66L96.05 65.66L96.05 100L88.92 100L87.91 96.11L87.62 96.11Q86.83 96.90 85.79 97.73Q84.74 98.56 83.34 99.24Q81.94 99.93 80.17 100.36Q78.41 100.79 76.25 100.79L76.25 100.79Q70.70 100.79 67.50 97.70Q64.30 94.60 64.30 88.55L64.30 88.55L64.30 65.66L73.87 65.66L73.87 87.76Q73.87 90.86 75.35 92.22Q76.82 93.59 79.13 93.59L79.13 93.59Q81.72 93.59 83.56 92.51Q85.39 91.43 86.47 89.99L86.47 89.99ZM117.14 85.67L114.34 88.48L114.34 100L104.83 100L104.83 48.59L114.34 48.59L114.34 79.12L125.86 65.66L137.45 65.66L124.20 80.13L138.10 100L126.79 100L117.14 85.67ZM163.22 65.66L163.22 72.57L154.08 72.57L154.08 88.41Q154.08 90.86 155.20 91.76Q156.31 92.66 158.18 92.66L158.18 92.66Q159.62 92.66 161.14 92.37Q162.65 92.08 163.58 91.58L163.58 91.58L165.02 98.27Q163.80 98.85 161.35 99.42Q158.90 100 156.17 100L156.17 100Q149.90 100 147.24 97.52Q144.58 95.03 144.58 90.06L144.58 90.06L144.58 72.57L139.25 72.57L139.25 65.66L144.58 65.66L144.58 55.07L154.08 55.07L154.08 65.66L163.22 65.66ZM174.10 75.02L170.78 68.68Q173.88 66.88 177.34 65.91Q180.79 64.94 184.68 64.94L184.68 64.94Q187.78 64.94 190.33 65.66Q192.89 66.38 194.72 67.92Q196.56 69.47 197.53 71.88Q198.50 74.30 198.50 77.68L198.50 77.68L198.50 100L191.09 100L190.22 96.47L189.94 96.47Q188.28 98.49 185.72 99.64Q183.17 100.79 179.78 100.79L179.78 100.79Q176.98 100.79 174.82 99.96Q172.66 99.14 171.14 97.73Q169.63 96.33 168.88 94.38Q168.12 92.44 168.12 90.21L168.12 90.21Q168.12 87.26 169.38 85.13Q170.64 83.01 172.87 81.64Q175.10 80.27 178.09 79.62Q181.08 78.98 184.54 78.98L184.54 78.98L188.86 78.98L188.86 76.89Q188.86 74.51 187.38 73.40Q185.90 72.28 183.24 72.28L183.24 72.28Q181.15 72.28 178.96 72.93Q176.76 73.58 174.10 75.02L174.10 75.02ZM188.93 90.35L188.93 84.95L185.83 85.02Q181.44 85.17 179.71 86.50Q177.98 87.83 177.98 89.70L177.98 89.70Q177.98 92.15 179.46 93.05Q180.94 93.95 182.81 93.95L182.81 93.95Q184.68 93.95 186.37 92.87Q188.06 91.79 188.93 90.35L188.93 90.35ZM257.26 82.94L257.26 82.94Q257.26 87.04 256.03 90.35Q254.81 93.66 252.65 96.00Q250.49 98.34 247.54 99.57Q244.58 100.79 241.13 100.79L241.13 100.79Q237.74 100.79 235.37 99.75Q232.99 98.70 231.19 96.83L231.19 96.83L230.90 96.83L230.26 100L223.34 100L223.34 48.59L232.85 48.59L232.85 68.46Q234.65 66.81 237.06 65.87Q239.47 64.94 242.21 64.94L242.21 64.94Q249.26 64.94 253.26 69.69Q257.26 74.44 257.26 82.94ZM247.39 83.15L247.39 83.15Q247.39 77.82 245.30 75.05Q243.22 72.28 239.40 72.28L239.40 72.28Q237.38 72.28 235.66 73.25Q233.93 74.22 232.92 75.45L232.92 75.45L232.92 91.22Q233.86 92.30 235.33 93.02Q236.81 93.74 238.46 93.74L238.46 93.74Q240.19 93.74 241.81 93.09Q243.43 92.44 244.69 91.14Q245.95 89.85 246.67 87.87Q247.39 85.89 247.39 83.15ZM297.50 82.58L297.50 82.58Q297.50 86.82 296.14 90.21Q294.77 93.59 292.36 95.93Q289.94 98.27 286.70 99.53Q283.46 100.79 279.72 100.79L279.72 100.79Q275.98 100.79 272.77 99.64Q269.57 98.49 267.23 96.26Q264.89 94.02 263.56 90.75Q262.22 87.47 262.22 83.30L262.22 83.30Q262.22 78.90 263.59 75.48Q264.96 72.06 267.37 69.72Q269.78 67.38 273.02 66.16Q276.26 64.94 280.01 64.94L280.01 64.94Q283.75 64.94 286.96 66.09Q290.16 67.24 292.50 69.44Q294.84 71.63 296.17 74.94Q297.50 78.26 297.50 82.58ZM287.64 82.94L287.64 82.94Q287.64 79.98 286.99 77.90Q286.34 75.81 285.26 74.51Q284.18 73.22 282.74 72.60Q281.30 71.99 279.79 71.99L279.79 71.99Q278.28 71.99 276.91 72.53Q275.54 73.07 274.46 74.33Q273.38 75.59 272.74 77.68Q272.09 79.77 272.09 82.94L272.09 82.94Q272.09 85.74 272.74 87.80Q273.38 89.85 274.50 91.14Q275.62 92.44 277.02 93.09Q278.42 93.74 279.94 93.74L279.94 93.74Q281.45 93.74 282.82 93.20Q284.18 92.66 285.26 91.36Q286.34 90.06 286.99 88.01Q287.64 85.96 287.64 82.94ZM314.06 100L304.63 100L304.63 48.59L314.06 48.59L314.06 100ZM345.17 67.53L345.17 48.59L354.74 48.59L354.74 100L347.90 100L346.90 96.26L346.54 96.26Q345.24 98.06 342.83 99.42Q340.42 100.79 336.53 100.79L336.53 100.79Q333.29 100.79 330.48 99.57Q327.67 98.34 325.58 96.04Q323.50 93.74 322.31 90.42Q321.12 87.11 321.12 82.86L321.12 82.86Q321.12 78.76 322.20 75.45Q323.28 72.14 325.30 69.80Q327.31 67.46 330.26 66.20Q333.22 64.94 337.03 64.94L337.03 64.94Q339.48 64.94 341.68 65.66Q343.87 66.38 345.17 67.53L345.17 67.53ZM345.17 89.99L345.17 74.66Q344.23 73.50 342.72 72.71Q341.21 71.92 339.41 71.92L339.41 71.92Q337.68 71.92 336.13 72.50Q334.58 73.07 333.40 74.33Q332.21 75.59 331.49 77.64Q330.77 79.70 330.77 82.65L330.77 82.65Q330.77 85.53 331.42 87.62Q332.06 89.70 333.14 91.07Q334.22 92.44 335.70 93.09Q337.18 93.74 338.83 93.74L338.83 93.74Q341.14 93.74 342.76 92.62Q344.38 91.50 345.17 89.99L345.17 89.99Z"/></svg>