<svg xmlns="http://www.w3.org/2000/svg" viewBox="0.64 -7.1000000000000005 24.339999999999996 7.180000000000001"><path d="M0.64 0L1.29-6.30L1.97-6.30L3.57-1.67Q3.63-1.49 3.73-1.19Q3.82-0.88 3.90-0.62L3.90-0.62L3.92-0.62Q3.99-0.88 4.08-1.19Q4.18-1.49 4.24-1.66L4.24-1.66L5.82-6.30L6.52-6.30L7.17 0L6.65 0L6.29-3.61Q6.24-4.17 6.19-4.71Q6.14-5.26 6.11-5.82L6.11-5.82L6.09-5.82Q5.95-5.35 5.77-4.75Q5.59-4.16 5.39-3.61L5.39-3.61L4.13 0L3.66 0L2.39-3.61Q2.01-4.69 1.70-5.82L1.70-5.82L1.68-5.82Q1.64-5.35 1.59-4.76Q1.55-4.17 1.50-3.61L1.50-3.61L1.14 0L0.64 0ZM11.72-1.05L11.72-4.70L12.24-4.70L12.24 0L11.87 0L11.79-0.59L11.77-0.59Q11.53-0.33 11.13-0.13Q10.73 0.08 10.19 0.08L10.19 0.08Q9.46 0.08 9.02-0.32Q8.57-0.71 8.57-1.55L8.57-1.55L8.57-4.70L9.09-4.70L9.09-1.66Q9.09-1.27 9.18-1.02Q9.27-0.76 9.43-0.61Q9.59-0.46 9.82-0.40Q10.04-0.34 10.30-0.34L10.30-0.34Q10.75-0.34 11.14-0.55Q11.52-0.76 11.72-1.05L11.72-1.05ZM15.01-2.41L14.32-1.72L14.32 0L13.80 0L13.80-7.10L14.32-7.10L14.32-2.32L16.68-4.70L17.33-4.70L15.35-2.72L17.42 0L16.80 0L15.01-2.41ZM20.62-4.70L20.62-4.30L19.04-4.30L19.04-1.22Q19.04-0.75 19.25-0.58Q19.46-0.42 19.83-0.42L19.83-0.42Q20.12-0.42 20.37-0.48Q20.62-0.53 20.79-0.59L20.79-0.59L20.87-0.20Q20.67-0.12 20.38-0.06Q20.09 0 19.74 0L19.74 0Q19.14 0 18.83-0.29Q18.52-0.57 18.52-1.15L18.52-1.15L18.52-4.30L17.67-4.30L17.67-4.70L18.52-4.70L18.52-6.20L19.04-6.20L19.04-4.70L20.62-4.70ZM21.90-3.92L21.70-4.29Q22.17-4.54 22.56-4.65Q22.96-4.76 23.41-4.76L23.41-4.76Q23.73-4.76 24.01-4.67Q24.30-4.58 24.51-4.38Q24.73-4.18 24.85-3.85Q24.98-3.53 24.98-3.06L24.98-3.06L24.98 0L24.62 0L24.51-0.62L24.49-0.62Q24.20-0.27 23.81-0.10Q23.42 0.08 22.94 0.08L22.94 0.08Q22.61 0.08 22.33-0.01Q22.05-0.11 21.84-0.29Q21.64-0.47 21.52-0.72Q21.41-0.98 21.41-1.29L21.41-1.29Q21.41-1.66 21.56-1.94Q21.71-2.22 21.98-2.41Q22.25-2.59 22.62-2.68Q23.00-2.77 23.46-2.77L23.46-2.77L24.46-2.77L24.46-3.08Q24.46-3.76 24.16-4.05Q23.86-4.34 23.38-4.34L23.38-4.34Q23.09-4.34 22.71-4.25Q22.33-4.16 21.90-3.92L21.90-3.92ZM24.46-1.12L24.46-2.36L23.63-2.35Q23.18-2.34 22.86-2.25Q22.54-2.17 22.33-2.04Q22.13-1.90 22.04-1.72Q21.95-1.53 21.95-1.32L21.95-1.32Q21.95-1.06 22.04-0.88Q22.13-0.69 22.28-0.57Q22.43-0.45 22.63-0.40Q22.84-0.34 23.07-0.34L23.07-0.34Q23.25-0.34 23.44-0.39Q23.63-0.43 23.81-0.53Q24.00-0.62 24.17-0.77Q24.34-0.91 24.46-1.12L24.46-1.12Z"/></svg>