<svg xmlns="http://www.w3.org/2000/svg" viewBox="0.64 -7.11 25.93 7.21"><path d="M0.64 0L1.14-6.30L2.52-6.30L3.63-2.90Q3.77-2.47 3.88-2.13Q3.98-1.78 4.09-1.35L4.09-1.35L4.12-1.35Q4.23-1.71 4.34-2.12Q4.46-2.53 4.57-2.90L4.57-2.90L5.64-6.30L7.02-6.30L7.54 0L6.50 0Q6.42-1 6.34-2.02Q6.27-3.03 6.23-4.05L6.23-4.05L6.19-5.20L6.17-5.20Q6-4.58 5.82-3.94Q5.63-3.30 5.43-2.71L5.43-2.71L4.54 0L3.63 0L2.73-2.72Q2.59-3.15 2.48-3.50Q2.38-3.85 2.29-4.15Q2.21-4.44 2.14-4.70Q2.07-4.96 2.01-5.20L2.01-5.20L1.98-5.20Q1.95-4.35 1.89-3.47Q1.83-2.59 1.78-1.78L1.78-1.78L1.66 0L0.64 0ZM11.96-1.30L11.96-4.72L12.99-4.72L12.99 0L12.20 0L12.07-0.57L12.03-0.57Q11.78-0.31 11.40-0.10Q11.02 0.10 10.48 0.10L10.48 0.10Q9.73 0.10 9.28-0.32Q8.83-0.74 8.83-1.58L8.83-1.58L8.83-4.72L9.86-4.72L9.86-1.69Q9.86-1.14 10.12-0.92Q10.37-0.70 10.73-0.70L10.73-0.70Q11.12-0.70 11.42-0.86Q11.72-1.03 11.96-1.30L11.96-1.30ZM15.77-2.12L15.33-1.68L15.33 0L14.31 0L14.31-7.11L15.33-7.11L15.33-2.75L17.12-4.72L18.38-4.72L16.48-2.73L18.47 0L17.26 0L15.77-2.12ZM21.76-4.72L21.76-3.96L20.42-3.96L20.42-1.41Q20.42-1.06 20.59-0.94Q20.75-0.82 21.03-0.82L21.03-0.82Q21.23-0.82 21.46-0.86Q21.68-0.91 21.85-0.97L21.85-0.97L22.01-0.21Q21.81-0.13 21.50-0.07Q21.18 0 20.83 0L20.83 0Q20.07 0 19.74-0.32Q19.40-0.63 19.40-1.25L19.40-1.25L19.40-3.96L18.68-3.96L18.68-4.72L19.40-4.72L19.40-6.21L20.42-6.21L20.42-4.72L21.76-4.72ZM23.30-3.58L22.92-4.30Q23.38-4.55 23.80-4.67Q24.23-4.80 24.75-4.80L24.75-4.80Q25.15-4.80 25.48-4.71Q25.82-4.62 26.06-4.42Q26.30-4.22 26.44-3.89Q26.57-3.55 26.57-3.07L26.57-3.07L26.57 0L25.74 0L25.63-0.51L25.60-0.51Q25.32-0.19 24.95-0.04Q24.58 0.10 24.13 0.10L24.13 0.10Q23.42 0.10 22.98-0.28Q22.55-0.66 22.55-1.29L22.55-1.29Q22.55-1.68 22.71-1.97Q22.87-2.25 23.16-2.44Q23.45-2.63 23.85-2.73Q24.25-2.82 24.73-2.82L24.73-2.82L25.53-2.82L25.53-3.18Q25.53-3.63 25.29-3.81Q25.05-3.98 24.63-3.98L24.63-3.98Q24.37-3.98 24.05-3.90Q23.72-3.81 23.30-3.58L23.30-3.58ZM25.54-1.25L25.54-2.14L24.91-2.13Q24.20-2.11 23.91-1.88Q23.62-1.65 23.62-1.34L23.62-1.34Q23.62-1.14 23.69-1.01Q23.75-0.88 23.86-0.80Q23.97-0.72 24.12-0.69Q24.26-0.65 24.41-0.65L24.41-0.65Q24.72-0.65 25.03-0.81Q25.33-0.96 25.54-1.25L25.54-1.25Z"/></svg>