<svg xmlns="http://www.w3.org/2000/svg" viewBox="4.6080000000000005 48.879999999999995 332.78400000000005 67.68"><path d="M4.61 100L8.86 54.64L15.62 54.64L26.14 85.82Q26.71 87.47 27.40 89.56Q28.08 91.65 28.66 93.59L28.66 93.59L28.80 93.59Q29.38 91.72 30.02 89.67Q30.67 87.62 31.25 85.82L31.25 85.82L41.54 54.64L48.38 54.64L52.70 100L47.52 100L45.29 75.02Q44.93 71.20 44.68 67.49Q44.42 63.78 44.28 59.97L44.28 59.97L44.14 59.97Q43.13 63.42 41.94 67.35Q40.75 71.27 39.53 75.02L39.53 75.02L30.96 100L26.28 100L17.71 74.94Q16.42 71.13 15.26 67.49Q14.11 63.86 13.10 59.97L13.10 59.97L12.96 59.97Q12.74 63.42 12.46 67.31Q12.17 71.20 11.81 75.02L11.81 75.02L9.65 100L4.61 100ZM85.18 91.72L85.18 66.16L90.22 66.16L90.22 100L86.40 100L85.68 95.75L85.46 95.75Q83.59 97.77 80.78 99.21Q77.98 100.65 74.23 100.65L74.23 100.65Q68.98 100.65 65.74 97.73Q62.50 94.82 62.50 88.77L62.50 88.77L62.50 66.16L67.54 66.16L67.54 87.98Q67.54 90.50 68.11 92.15Q68.69 93.81 69.73 94.82Q70.78 95.82 72.18 96.22Q73.58 96.62 75.24 96.62L75.24 96.62Q78.34 96.62 80.89 95.25Q83.45 93.88 85.18 91.72L85.18 91.72ZM109.94 83.44L105.77 87.62L105.77 100L100.73 100L100.73 48.88L105.77 48.88L105.77 82L121.03 66.16L127.30 66.16L113.26 80.42L127.94 100L121.97 100L109.94 83.44ZM150.98 66.16L150.98 69.98L140.33 69.98L140.33 90.93Q140.33 93.88 141.73 94.89Q143.14 95.90 145.44 95.90L145.44 95.90Q147.24 95.90 148.97 95.54Q150.70 95.18 151.99 94.74L151.99 94.74L152.78 98.56Q151.34 99.14 149.18 99.57Q147.02 100 144.50 100L144.50 100Q135.29 100 135.29 91.58L135.29 91.58L135.29 69.98L129.74 69.98L129.74 66.16L135.29 66.16L135.29 55.36L140.33 55.36L140.33 66.16L150.98 66.16ZM161.21 72.78L159.26 69.18Q162.65 67.38 165.49 66.56Q168.34 65.73 171.79 65.73L171.79 65.73Q174.38 65.73 176.58 66.34Q178.78 66.95 180.40 68.39Q182.02 69.83 182.92 72.17Q183.82 74.51 183.82 77.97L183.82 77.97L183.82 100L179.93 100L179.14 95.90L178.99 95.90Q176.83 98.42 174.06 99.53Q171.29 100.65 167.98 100.65L167.98 100.65Q165.60 100.65 163.55 99.96Q161.50 99.28 160.02 97.98Q158.54 96.69 157.72 94.89Q156.89 93.09 156.89 90.86L156.89 90.86Q156.89 88.19 157.97 86.18Q159.05 84.16 161.03 82.79Q163.01 81.42 165.78 80.74Q168.55 80.06 171.94 80.06L171.94 80.06L178.78 80.06L178.78 77.54Q178.78 73.22 176.76 71.52Q174.74 69.83 171.43 69.83L171.43 69.83Q169.42 69.83 166.86 70.44Q164.30 71.06 161.21 72.78L161.21 72.78ZM178.78 91.65L178.78 83.73L173.16 83.80Q167.18 83.94 164.66 85.89Q162.14 87.83 162.14 90.64L162.14 90.64Q162.14 94.02 164.23 95.39Q166.32 96.76 169.20 96.76L169.20 96.76Q171.72 96.76 174.31 95.57Q176.90 94.38 178.78 91.65L178.78 91.65ZM214.49 100L209.52 100L209.52 48.88L214.49 48.88L214.49 100ZM230.83 100L225.79 100L225.79 66.16L230.83 66.16L230.83 100ZM228.31 57.45L228.31 57.45Q226.87 57.45 225.90 56.51Q224.93 55.58 224.93 54.06L224.93 54.06Q224.93 52.55 225.90 51.58Q226.87 50.61 228.31 50.61L228.31 50.61Q229.61 50.61 230.65 51.54Q231.70 52.48 231.70 54.06L231.70 54.06Q231.70 55.65 230.69 56.55Q229.68 57.45 228.31 57.45ZM240.70 77.39L240.70 77.39Q240.70 74.58 241.70 72.39Q242.71 70.19 244.51 68.72Q246.31 67.24 248.83 66.48Q251.35 65.73 254.30 65.73L254.30 65.73Q255.53 65.73 256.50 65.87Q257.47 66.02 258.41 66.16L258.41 66.16L272.74 66.16L272.74 69.98L269.57 69.98L263.52 69.33Q265.32 70.70 266.40 72.82Q267.48 74.94 267.48 77.32L267.48 77.32Q267.48 80.13 266.47 82.32Q265.46 84.52 263.70 86.03Q261.94 87.54 259.49 88.30Q257.04 89.06 254.16 89.06L254.16 89.06Q253.15 89.06 252.18 88.98Q251.21 88.91 250.20 88.77L250.20 88.77Q248.54 89.34 247.64 90.46Q246.74 91.58 246.74 92.80L246.74 92.80Q246.74 94.53 248.00 95.25Q249.26 95.97 251.28 95.97L251.28 95.97L260.14 95.97Q265.75 95.97 268.70 98.42Q271.66 100.86 271.66 104.97L271.66 104.97Q271.66 110.37 267.05 113.46Q262.44 116.56 254.52 116.56L254.52 116.56Q247.32 116.56 243.07 113.86Q238.82 111.16 238.82 106.19L238.82 106.19Q238.82 103.53 240.44 101.73Q242.06 99.93 244.87 98.92L244.87 98.92Q243.58 98.13 242.82 96.94Q242.06 95.75 242.06 93.88L242.06 93.88Q242.06 91.58 243.40 90.03Q244.73 88.48 246.82 87.54L246.82 87.54Q244.22 86.32 242.46 83.80Q240.70 81.28 240.70 77.39ZM258.34 100L248.04 100Q246.10 100.79 244.98 102.20Q243.86 103.60 243.86 105.47L243.86 105.47Q243.86 109 246.71 110.76Q249.55 112.53 254.74 112.53L254.74 112.53Q257.90 112.53 260.17 111.92Q262.44 111.30 263.88 110.26Q265.32 109.22 265.97 107.92Q266.62 106.62 266.62 105.33L266.62 105.33Q266.62 103.74 266.00 102.70Q265.39 101.66 264.28 101.04Q263.16 100.43 261.65 100.22Q260.14 100 258.34 100L258.34 100ZM262.30 77.54L262.30 77.54Q262.30 73.50 260.10 71.49Q257.90 69.47 254.30 69.47L254.30 69.47Q250.63 69.47 248.26 71.42Q245.88 73.36 245.88 77.25L245.88 77.25Q245.88 81.35 248.22 83.33Q250.56 85.31 254.16 85.31L254.16 85.31Q257.76 85.31 260.03 83.37Q262.30 81.42 262.30 77.54ZM285.05 74.73L285.05 100L280.01 100L280.01 48.88L285.05 48.88L285.05 70.62Q287.42 68.54 290.30 67.13Q293.18 65.73 296.64 65.73L296.64 65.73Q299.45 65.73 301.54 66.56Q303.62 67.38 304.96 68.86Q306.29 70.34 306.97 72.32Q307.66 74.30 307.66 76.67L307.66 76.67L307.66 100L302.62 100L302.62 78.04Q302.62 73.65 300.71 71.74Q298.80 69.83 295.34 69.83L295.34 69.83Q292.82 69.83 290.20 71.13Q287.57 72.42 285.05 74.73L285.05 74.73ZM335.59 66.16L335.59 69.98L324.94 69.98L324.94 90.93Q324.94 93.88 326.34 94.89Q327.74 95.90 330.05 95.90L330.05 95.90Q331.85 95.90 333.58 95.54Q335.30 95.18 336.60 94.74L336.60 94.74L337.39 98.56Q335.95 99.14 333.79 99.57Q331.63 100 329.11 100L329.11 100Q319.90 100 319.90 91.58L319.90 91.58L319.90 69.98L314.35 69.98L314.35 66.16L319.90 66.16L319.90 55.36L324.94 55.36L324.94 66.16L335.59 66.16Z"/></svg>