<svg xmlns="http://www.w3.org/2000/svg" viewBox="4.6080000000000005 48.519999999999996 339.048 52.272000000000006"><path d="M4.61 100L7.70 54.64L21.38 54.64L26.28 70.55Q26.78 71.99 27.32 73.90Q27.86 75.81 28.40 77.86Q28.94 79.91 29.41 82Q29.88 84.09 30.17 85.89L30.17 85.89L30.53 85.89Q30.82 83.94 31.36 81.68Q31.90 79.41 32.44 77.28Q32.98 75.16 33.48 73.36Q33.98 71.56 34.27 70.55L34.27 70.55L39.02 54.64L52.70 54.64L55.94 100L45.72 100L44.93 84.66Q44.78 82.50 44.71 79.95Q44.64 77.39 44.60 74.73Q44.57 72.06 44.57 69.47Q44.57 66.88 44.57 64.72L44.57 64.72L44.35 64.72Q43.85 67.10 43.24 69.62Q42.62 72.14 41.98 74.62Q41.33 77.10 40.68 79.44Q40.03 81.78 39.38 83.73L39.38 83.73L34.34 100L26.14 100L20.88 83.80Q20.23 81.78 19.58 79.44Q18.94 77.10 18.32 74.62Q17.71 72.14 17.14 69.62Q16.56 67.10 16.13 64.72L16.13 64.72L15.91 64.72Q15.98 67.02 15.95 69.72Q15.91 72.42 15.84 75.12Q15.77 77.82 15.66 80.31Q15.55 82.79 15.48 84.66L15.48 84.66L14.69 100L4.61 100ZM86.69 89.63L86.69 65.44L97.34 65.44L97.34 100L89.50 100L88.42 96.26L88.13 96.26Q87.41 96.98 86.40 97.77Q85.39 98.56 83.99 99.24Q82.58 99.93 80.78 100.36Q78.98 100.79 76.68 100.79L76.68 100.79Q71.06 100.79 67.90 97.70Q64.73 94.60 64.73 88.55L64.73 88.55L64.73 65.44L75.38 65.44L75.38 87.69Q75.38 90.35 76.72 91.61Q78.05 92.87 80.14 92.87L80.14 92.87Q82.66 92.87 84.28 91.83Q85.90 90.78 86.69 89.63L86.69 89.63ZM119.02 86.10L116.42 88.77L116.42 100L105.84 100L105.84 48.52L116.42 48.52L116.42 78.54L127.22 65.44L140.11 65.44L127.08 79.98L140.69 100L128.16 100L119.02 86.10ZM166.54 65.44L166.54 73.07L157.68 73.07L157.68 87.69Q157.68 90.06 158.72 91Q159.77 91.94 161.64 91.94L161.64 91.94Q163.08 91.94 164.52 91.65Q165.96 91.36 166.75 90.86L166.75 90.86L168.34 98.13Q167.11 98.78 164.63 99.39Q162.14 100 159.34 100L159.34 100Q152.64 100 149.87 97.41Q147.10 94.82 147.10 89.56L147.10 89.56L147.10 73.07L141.70 73.07L141.70 65.44L147.10 65.44L147.10 54.93L157.68 54.93L157.68 65.44L166.54 65.44ZM177.34 75.45L173.74 68.46Q176.69 66.74 180.40 65.69Q184.10 64.65 187.99 64.65L187.99 64.65Q194.40 64.65 198.29 67.74Q202.18 70.84 202.18 77.61L202.18 77.61L202.18 100L194.04 100L193.10 96.54L192.82 96.54Q191.38 98.42 188.82 99.60Q186.26 100.79 182.81 100.79L182.81 100.79Q179.86 100.79 177.66 99.93Q175.46 99.06 174.02 97.62Q172.58 96.18 171.83 94.20Q171.07 92.22 171.07 89.99L171.07 89.99Q171.07 86.97 172.40 84.81Q173.74 82.65 176.00 81.28Q178.27 79.91 181.33 79.26Q184.39 78.62 187.85 78.62L187.85 78.62L191.45 78.62L191.45 76.74Q191.45 74.80 190.08 73.76Q188.71 72.71 186.19 72.71L186.19 72.71Q184.03 72.71 181.94 73.36Q179.86 74.01 177.34 75.45L177.34 75.45ZM191.52 89.99L191.52 85.10L189.14 85.17Q187.13 85.24 185.76 85.60Q184.39 85.96 183.56 86.50Q182.74 87.04 182.38 87.80Q182.02 88.55 182.02 89.34L182.02 89.34Q182.02 91.58 183.35 92.40Q184.68 93.23 186.41 93.23L186.41 93.23Q188.14 93.23 189.54 92.22Q190.94 91.22 191.52 89.99L191.52 89.99ZM241.85 53.78L241.85 53.78Q245.74 53.78 248.62 54.82Q251.50 55.86 253.37 57.52Q255.24 59.18 256.18 61.30Q257.11 63.42 257.11 65.66L257.11 65.66Q257.11 69.40 254.88 71.96Q252.65 74.51 249.19 75.95L249.19 75.95Q250.92 76.53 252.54 77.43Q254.16 78.33 255.46 79.66Q256.75 80.99 257.51 82.76Q258.26 84.52 258.26 86.75L258.26 86.75Q258.26 89.92 257.04 92.48Q255.82 95.03 253.55 96.90Q251.28 98.78 248.11 99.78Q244.94 100.79 241.06 100.79L241.06 100.79Q237.24 100.79 234.18 99.82Q231.12 98.85 228.96 97.12Q226.80 95.39 225.65 92.98Q224.50 90.57 224.50 87.69L224.50 87.69Q224.50 85.46 225.18 83.73Q225.86 82 227.05 80.67Q228.24 79.34 229.82 78.36Q231.41 77.39 233.14 76.74L233.14 76.74Q230.11 75.38 228.06 72.78Q226.01 70.19 226.01 66.74L226.01 66.74Q226.01 64.36 227.02 62.06Q228.02 59.75 230.00 57.92Q231.98 56.08 234.97 54.93Q237.96 53.78 241.85 53.78ZM236.30 66.02L236.30 66.02Q236.30 68.46 237.96 70.16Q239.62 71.85 241.99 72.42L241.99 72.42Q243.94 71.70 245.34 70.05Q246.74 68.39 246.74 66.52L246.74 66.52Q246.74 64.00 245.34 62.70Q243.94 61.41 241.49 61.41L241.49 61.41Q239.11 61.41 237.71 62.78Q236.30 64.14 236.30 66.02ZM240.91 80.92L240.91 80.92Q238.39 81.71 236.81 83.37Q235.22 85.02 235.22 87.40L235.22 87.40Q235.22 89.99 236.92 91.50Q238.61 93.02 241.56 93.02L241.56 93.02Q244.08 93.02 245.84 91.36Q247.61 89.70 247.61 87.33L247.61 87.33Q247.61 84.88 245.70 83.19Q243.79 81.50 240.91 80.92ZM281.81 53.78L281.81 53.78Q285.91 53.78 289.40 55.11Q292.90 56.44 295.42 59.28Q297.94 62.13 299.38 66.56Q300.82 70.98 300.82 77.18L300.82 77.18Q300.82 83.22 299.27 87.69Q297.72 92.15 295.06 95.07Q292.39 97.98 288.94 99.39Q285.48 100.79 281.74 100.79L281.74 100.79Q277.63 100.79 274.14 99.42Q270.65 98.06 268.09 95.18Q265.54 92.30 264.10 87.83Q262.66 83.37 262.66 77.18L262.66 77.18Q262.66 71.27 264.24 66.84Q265.82 62.42 268.45 59.54Q271.08 56.66 274.54 55.22Q277.99 53.78 281.81 53.78ZM273.60 77.18L273.60 77.18Q273.60 81.71 274.28 84.74Q274.97 87.76 276.08 89.60Q277.20 91.43 278.68 92.19Q280.15 92.94 281.81 92.94L281.81 92.94Q283.39 92.94 284.87 92.19Q286.34 91.43 287.46 89.60Q288.58 87.76 289.22 84.74Q289.87 81.71 289.87 77.18L289.87 77.18Q289.87 72.64 289.22 69.65Q288.58 66.66 287.46 64.90Q286.34 63.14 284.87 62.38Q283.39 61.62 281.81 61.62L281.81 61.62Q280.15 61.62 278.68 62.34Q277.20 63.06 276.08 64.86Q274.97 66.66 274.28 69.65Q273.60 72.64 273.60 77.18ZM324.65 53.78L324.65 53.78Q328.75 53.78 332.24 55.11Q335.74 56.44 338.26 59.28Q340.78 62.13 342.22 66.56Q343.66 70.98 343.66 77.18L343.66 77.18Q343.66 83.22 342.11 87.69Q340.56 92.15 337.90 95.07Q335.23 97.98 331.78 99.39Q328.32 100.79 324.58 100.79L324.58 100.79Q320.47 100.79 316.98 99.42Q313.49 98.06 310.93 95.18Q308.38 92.30 306.94 87.83Q305.50 83.37 305.50 77.18L305.50 77.18Q305.50 71.27 307.08 66.84Q308.66 62.42 311.29 59.54Q313.92 56.66 317.38 55.22Q320.83 53.78 324.65 53.78ZM316.44 77.18L316.44 77.18Q316.44 81.71 317.12 84.74Q317.81 87.76 318.92 89.60Q320.04 91.43 321.52 92.19Q322.99 92.94 324.65 92.94L324.65 92.94Q326.23 92.94 327.71 92.19Q329.18 91.43 330.30 89.60Q331.42 87.76 332.06 84.74Q332.71 81.71 332.71 77.18L332.71 77.18Q332.71 72.64 332.06 69.65Q331.42 66.66 330.30 64.90Q329.18 63.14 327.71 62.38Q326.23 61.62 324.65 61.62L324.65 61.62Q322.99 61.62 321.52 62.34Q320.04 63.06 318.92 64.86Q317.81 66.66 317.12 69.65Q316.44 72.64 316.44 77.18Z"/></svg>