<svg xmlns="http://www.w3.org/2000/svg" viewBox="0.84 -7.36 17.810000000000002 7.430000000000001"><path d="M4.26-1.24L6.82-7.12L7.65-7.12L7.65 0L6.72 0L6.72-4.89L4.61 0L3.90 0L1.76-4.86L1.77 0L0.84 0L0.84-7.12L1.67-7.12L4.26-1.24ZM12.60-5.04L13.61-5.04L13.61 0L12.63 0L12.63-0.84Q12.39-0.40 11.97-0.17Q11.55 0.07 11.02 0.07L11.02 0.07Q9.20 0.07 9.20-1.95L9.20-1.95L9.20-5.04L10.20-5.04L10.20-1.96Q10.20-1.34 10.46-1.04Q10.71-0.75 11.23-0.75L11.23-0.75Q11.85-0.75 12.22-1.15Q12.60-1.55 12.60-2.21L12.60-2.21L12.60-5.04ZM16.09 0L15.09 0L15.09-7.36L16.09-7.36L16.09 0ZM18.57 0L17.57 0L17.57-5.04L18.57-5.04L18.57 0ZM17.48-6.18L17.48-7.24L18.65-7.24L18.65-6.18L17.48-6.18Z"/></svg>