<svg xmlns="http://www.w3.org/2000/svg" viewBox="3.8880000000000003 46.35999999999999 480.6000000000001 54.216"><path d="M30.31 86.75L49.75 48.74L58.61 48.74L54.65 100L44.71 100L46.87 72.21L32.90 100L25.63 100L15.91 72.42L13.75 100L3.89 100L7.85 48.74L16.78 48.74L30.31 86.75ZM91.08 63.50L101.95 63.50L99.07 100L88.49 100L88.85 95.32Q86.98 97.84 83.95 99.21Q80.93 100.58 77.33 100.58L77.33 100.58Q71.35 100.58 68.22 97.26Q65.09 93.95 65.09 87.62L65.09 87.62Q65.09 86.90 65.23 85.17L65.23 85.17L66.89 63.50L77.83 63.50L76.10 84.52Q75.53 92.08 81.79 92.08L81.79 92.08Q85.18 92.08 87.16 89.85Q89.14 87.62 89.42 83.73L89.42 83.73L91.08 63.50ZM118.73 100L107.86 100L112.10 47.01L122.98 47.01L118.73 100ZM138.53 100L127.66 100L130.54 63.50L141.41 63.50L138.53 100ZM130.61 56.58L131.40 46.36L143.06 46.36L142.27 56.58L130.61 56.58ZM196.06 73.58Q200.59 74.94 203.11 78.15Q205.63 81.35 205.63 85.67L205.63 85.67Q205.63 90.35 203.00 93.74Q200.38 97.12 195.77 98.85Q191.16 100.58 185.40 100.58L185.40 100.58Q176.33 100.58 171.22 96.90Q166.10 93.23 166.10 86.54L166.10 86.54Q166.10 81.78 169.24 78.33Q172.37 74.87 177.77 73.58L177.77 73.58Q173.81 72.14 171.58 69.11Q169.34 66.09 169.34 62.27L169.34 62.27Q169.34 57.81 171.90 54.60Q174.46 51.40 178.88 49.74Q183.31 48.09 188.86 48.09L188.86 48.09Q193.90 48.09 197.86 49.64Q201.82 51.18 204.05 54.14Q206.28 57.09 206.28 60.98L206.28 60.98Q206.28 65.51 203.51 68.86Q200.74 72.21 196.06 73.58L196.06 73.58ZM179.86 63.42Q179.86 66.38 181.84 68.18Q183.82 69.98 187.13 70.62L187.13 70.62Q195.55 69.04 195.55 62.63L195.55 62.63Q195.55 59.75 193.54 58.24Q191.52 56.73 187.99 56.73L187.99 56.73Q184.25 56.73 182.05 58.42Q179.86 60.11 179.86 63.42L179.86 63.42ZM185.69 91.94Q189.94 91.94 192.56 90.06Q195.19 88.19 195.19 84.66L195.19 84.66Q195.19 81.78 192.89 79.98Q190.58 78.18 186.55 77.54L186.55 77.54Q176.76 79.05 176.76 85.38L176.76 85.38Q176.76 88.62 179.10 90.28Q181.44 91.94 185.69 91.94L185.69 91.94ZM228.89 100.58Q220.03 100.58 215.39 94.74Q210.74 88.91 210.74 77.75L210.74 77.75Q210.74 68.46 213.16 61.80Q215.57 55.14 220.14 51.65Q224.71 48.16 231.12 48.16L231.12 48.16Q239.98 48.16 244.66 54.03Q249.34 59.90 249.34 70.98L249.34 70.98Q249.34 80.27 246.92 86.93Q244.51 93.59 239.90 97.08Q235.30 100.58 228.89 100.58L228.89 100.58ZM229.18 91.94Q233.64 91.94 235.98 86.25Q238.32 80.56 238.32 69.47L238.32 69.47Q238.32 62.92 236.52 59.86Q234.72 56.80 230.90 56.80L230.90 56.80Q226.44 56.80 224.10 62.56Q221.76 68.32 221.76 79.26L221.76 79.26Q221.76 85.82 223.56 88.88Q225.36 91.94 229.18 91.94L229.18 91.94ZM272.09 100.58Q263.23 100.58 258.59 94.74Q253.94 88.91 253.94 77.75L253.94 77.75Q253.94 68.46 256.36 61.80Q258.77 55.14 263.34 51.65Q267.91 48.16 274.32 48.16L274.32 48.16Q283.18 48.16 287.86 54.03Q292.54 59.90 292.54 70.98L292.54 70.98Q292.54 80.27 290.12 86.93Q287.71 93.59 283.10 97.08Q278.50 100.58 272.09 100.58L272.09 100.58ZM272.38 91.94Q276.84 91.94 279.18 86.25Q281.52 80.56 281.52 69.47L281.52 69.47Q281.52 62.92 279.72 59.86Q277.92 56.80 274.10 56.80L274.10 56.80Q269.64 56.80 267.30 62.56Q264.96 68.32 264.96 79.26L264.96 79.26Q264.96 85.82 266.76 88.88Q268.56 91.94 272.38 91.94L272.38 91.94ZM328.32 100L317.45 100L320.33 63.50L331.20 63.50L328.32 100ZM320.40 56.58L321.19 46.36L332.86 46.36L332.06 56.58L320.40 56.58ZM353.09 71.63L351.94 85.82Q351.72 88.84 353.16 90.28Q354.60 91.72 357.12 91.72L357.12 91.72Q358.78 91.72 360.79 91.14L360.79 91.14L360.07 99.57Q357.62 100.58 353.74 100.58L353.74 100.58Q347.54 100.58 344.27 97.26Q340.99 93.95 340.99 87.90L340.99 87.90Q340.99 86.68 341.06 86.03L341.06 86.03L342.22 71.63L335.30 71.63L335.95 63.50L342.86 63.50L343.51 54.93L354.67 51.40L353.74 63.50L363.02 63.50L362.38 71.63L353.09 71.63ZM394.34 63.50L405.07 63.50L402.19 100L391.46 100L391.82 95.32Q390.02 97.84 387.14 99.21Q384.26 100.58 380.81 100.58L380.81 100.58Q376.20 100.58 372.67 98.45Q369.14 96.33 367.20 92.37Q365.26 88.41 365.26 83.01L365.26 83.01Q365.26 77.03 367.45 72.39Q369.65 67.74 373.61 65.15Q377.57 62.56 382.68 62.56L382.68 62.56Q386.50 62.56 389.38 64.04Q392.26 65.51 393.98 68.32L393.98 68.32L394.34 63.50ZM384.41 92.37Q388.37 92.37 390.67 89.27Q392.98 86.18 392.98 80.99L392.98 80.99Q392.98 75.95 390.89 73.40Q388.80 70.84 384.84 70.84L384.84 70.84Q380.74 70.84 378.40 73.97Q376.06 77.10 376.06 82.43L376.06 82.43Q376.06 87.26 378.22 89.81Q380.38 92.37 384.41 92.37L384.41 92.37ZM421.85 100L410.98 100L415.22 47.01L426.10 47.01L421.85 100ZM441.65 100L430.78 100L433.66 63.50L444.53 63.50L441.65 100ZM433.73 56.58L434.52 46.36L446.18 46.36L445.39 56.58L433.73 56.58ZM469.08 100.58Q463.32 100.58 459.00 98.34Q454.68 96.11 452.38 92.08Q450.07 88.05 450.07 82.72L450.07 82.72Q450.07 76.53 452.56 71.99Q455.04 67.46 459.61 65.01Q464.18 62.56 470.30 62.56L470.30 62.56Q479.02 62.56 484.49 67.10L484.49 67.10L480.96 74.66Q475.99 70.91 470.88 70.91L470.88 70.91Q466.27 70.91 463.75 73.97Q461.23 77.03 461.23 82.58L461.23 82.58Q461.23 87.26 463.54 89.74Q465.84 92.22 469.87 92.22L469.87 92.22Q475.13 92.22 479.88 88.55L479.88 88.55L482.26 96.11Q479.81 98.27 476.32 99.42Q472.82 100.58 469.08 100.58L469.08 100.58Z"/></svg>