<svg xmlns="http://www.w3.org/2000/svg" viewBox="4.824000000000001 45.495999999999995 359.352 55.08"><path d="M31 84L46 49L57 49L57 100L45 100L45 77L35 100L26 100L17 77L17 100L5 100L5 49L15 49L31 84ZM89 63L102 63L102 100L89 100L89 95Q86 101 79 101L79 101Q72 101 68 97Q65 93 65 85L65 85L65 63L78 63L78 85Q78 91 83 91L83 91Q85 91 87 89Q89 87 89 83L89 83L89 63ZM123 100L110 100L110 47L123 47L123 100ZM144 100L131 100L131 63L144 63L144 100ZM130 57L130 45L144 45L144 57L130 57ZM196 62Q201 62 205 65Q209 67 211 71Q213 76 213 81L213 81Q213 87 211 91Q208 96 205 98Q201 101 196 101L196 101Q193 101 190 99Q187 98 185 95L185 95L185 100L172 100L172 47L185 47L185 68Q187 65 190 64Q193 62 196 62L196 62ZM192 91Q196 91 198 88Q200 86 200 81L200 81Q200 77 198 75Q196 72 192 72L192 72Q189 72 187 75Q185 77 185 81L185 81Q185 86 187 88Q189 91 192 91L192 91ZM232 100L219 100L219 47L232 47L232 100ZM265 63L278 63L278 100L265 100L265 95Q264 98 261 99Q258 101 254 101L254 101Q249 101 246 98Q242 96 240 92Q238 87 238 82L238 82Q238 76 240 72Q242 67 246 65Q249 62 254 62L254 62Q258 62 261 64Q264 66 265 68L265 68L265 63ZM258 91Q262 91 263 88Q265 86 265 82L265 82Q265 77 263 75Q262 72 258 72L258 72Q255 72 253 75Q251 77 251 82L251 82Q251 86 253 89Q255 91 258 91L258 91ZM304 101Q295 101 289 96Q284 90 284 82L284 82Q284 76 287 72Q289 67 294 65Q299 62 305 62L305 62Q309 62 312 64Q316 65 319 67L319 67L315 76Q313 74 311 73Q308 72 306 72L306 72Q302 72 300 75Q298 77 298 81L298 81Q298 86 300 88Q302 91 306 91L306 91Q308 91 311 90Q313 89 315 87L315 87L319 96Q316 98 312 99Q308 101 304 101L304 101ZM349 81L364 100L348 100L336 84L336 100L323 100L323 47L336 47L336 79L348 63L364 63L349 81Z"/></svg>