<svg xmlns="http://www.w3.org/2000/svg" viewBox="6.696000000000001 47.007999999999996 286.56 69.048"><path d="M30.67 94.67L50.69 48.74L54.43 48.74L54.43 100L50.26 100L50.26 58.96L32.26 100L28.94 100L10.80 59.32L10.87 100L6.70 100L6.70 48.74L10.37 48.74L30.67 94.67ZM91.66 63.93L96.05 63.93L96.05 100L91.80 100L91.80 93.45Q90.07 96.90 86.90 98.70Q83.74 100.50 79.63 100.50L79.63 100.50Q73.30 100.50 70.06 96.98Q66.82 93.45 66.82 86.54L66.82 86.54L66.82 63.93L71.14 63.93L71.14 86.25Q71.14 91.58 73.30 94.10Q75.46 96.62 79.99 96.62L79.99 96.62Q85.32 96.62 88.49 93.27Q91.66 89.92 91.66 84.38L91.66 84.38L91.66 63.93ZM112.32 100L108 100L108 47.01L112.32 47.01L112.32 100ZM128.74 100L124.42 100L124.42 63.93L128.74 63.93L128.74 100ZM123.77 54.64L123.77 49.02L129.60 49.02L129.60 54.64L123.77 54.64ZM163.51 100L159.19 100L159.19 47.01L163.51 47.01L163.51 100ZM179.93 100L175.61 100L175.61 63.93L179.93 63.93L179.93 100ZM174.96 54.64L174.96 49.02L180.79 49.02L180.79 54.64L174.96 54.64ZM218.52 63.93L222.91 63.93L222.91 100.14Q222.91 107.99 219.02 112.02Q215.14 116.06 207.58 116.06L207.58 116.06Q199.51 116.06 193.54 112.17L193.54 112.17L194.40 108.35Q197.93 110.44 200.88 111.30Q203.83 112.17 207.65 112.17L207.65 112.17Q213.05 112.17 215.82 109.22Q218.59 106.26 218.59 100.58L218.59 100.58L218.59 91.29Q216.94 94.96 213.70 96.94Q210.46 98.92 205.92 98.92L205.92 98.92Q201.17 98.92 197.50 96.65Q193.82 94.38 191.77 90.32Q189.72 86.25 189.72 80.99L189.72 80.99Q189.72 75.66 191.77 71.60Q193.82 67.53 197.50 65.30Q201.17 63.06 205.92 63.06L205.92 63.06Q210.46 63.06 213.66 64.94Q216.86 66.81 218.52 70.41L218.52 70.41L218.52 63.93ZM206.50 94.96Q212.11 94.96 215.32 91.22Q218.52 87.47 218.52 80.99L218.52 80.99Q218.52 74.44 215.32 70.66Q212.11 66.88 206.50 66.88L206.50 66.88Q200.81 66.88 197.57 70.66Q194.33 74.44 194.33 80.99L194.33 80.99Q194.33 87.54 197.57 91.25Q200.81 94.96 206.50 94.96L206.50 94.96ZM251.64 63.06Q264.67 63.06 264.67 77.03L264.67 77.03L264.67 100L260.28 100L260.28 77.32Q260.28 71.92 258.08 69.40Q255.89 66.88 251.21 66.88L251.21 66.88Q245.81 66.88 242.50 70.19Q239.18 73.50 239.18 79.12L239.18 79.12L239.18 100L234.86 100L234.86 47.01L239.18 47.01L239.18 70.19Q240.91 66.66 244.15 64.86Q247.39 63.06 251.64 63.06L251.64 63.06ZM293.26 67.46L282.60 67.46L282.60 88.91Q282.60 93.23 284.26 94.89Q285.91 96.54 289.15 96.54L289.15 96.54Q291.17 96.54 293.04 95.90L293.04 95.90L293.04 99.86Q290.74 100.43 288.36 100.43L288.36 100.43Q283.61 100.43 280.91 97.77Q278.21 95.10 278.21 89.78L278.21 89.78L278.21 67.46L271.08 67.46L271.08 63.93L278.21 63.93L278.21 54.35L282.60 52.70L282.60 63.93L293.26 63.93L293.26 67.46Z"/></svg>