<svg xmlns="http://www.w3.org/2000/svg" viewBox="0.7000000000000001 -7.36 17.990000000000002 7.430000000000001"><path d="M4.14-0.97L7.29-7.12L7.97-7.12L7.42 0L6.66 0L7.08-5.26L4.36 0L3.78 0L1.87-5.26L1.46 0L0.70 0L1.25-7.12L1.94-7.12L4.14-0.97ZM12.88-5.03L13.68-5.03L13.29 0L12.50 0L12.56-0.82Q12.31-0.39 11.87-0.16Q11.43 0.07 10.89 0.07L10.89 0.07Q10.07 0.07 9.63-0.36Q9.19-0.80 9.19-1.64L9.19-1.64Q9.19-1.83 9.20-1.93L9.20-1.93L9.44-5.03L10.25-5.03L10-1.98Q9.99-1.91 9.99-1.77L9.99-1.77Q9.99-0.60 11.09-0.60L11.09-0.60Q11.77-0.60 12.18-1.02Q12.59-1.44 12.65-2.19L12.65-2.19L12.88-5.03ZM15.65 0L14.84 0L15.43-7.36L16.24-7.36L15.65 0ZM18.04 0L17.23 0L17.63-5.03L18.44-5.03L18.04 0ZM17.62-6.24L17.70-7.16L18.69-7.16L18.62-6.24L17.62-6.24Z"/></svg>