<svg xmlns="http://www.w3.org/2000/svg" viewBox="5.040000000000001 47.007999999999996 305.42400000000004 53.49600000000001"><path d="M29.81 93.02L52.49 48.74L57.38 48.74L53.42 100L47.95 100L50.98 62.13L31.39 100L27.22 100L13.46 62.13L10.51 100L5.04 100L9.00 48.74L13.97 48.74L29.81 93.02ZM92.74 63.78L98.50 63.78L95.69 100L90.00 100L90.43 94.10Q88.63 97.19 85.46 98.85Q82.30 100.50 78.41 100.50L78.41 100.50Q72.50 100.50 69.34 97.37Q66.17 94.24 66.17 88.19L66.17 88.19Q66.17 86.82 66.24 86.10L66.24 86.10L67.97 63.78L73.80 63.78L72.00 85.74Q71.93 86.25 71.93 87.26L71.93 87.26Q71.93 95.68 79.85 95.68L79.85 95.68Q84.74 95.68 87.70 92.66Q90.65 89.63 91.08 84.23L91.08 84.23L92.74 63.78ZM112.68 100L106.85 100L111.10 47.01L116.93 47.01L112.68 100ZM129.89 100L124.06 100L126.94 63.78L132.77 63.78L129.89 100ZM126.86 55.07L127.44 48.45L134.57 48.45L134.06 55.07L126.86 55.07ZM165.82 100L159.98 100L162.86 63.78L168.70 63.78L165.82 100ZM162.79 55.07L163.37 48.45L170.50 48.45L169.99 55.07L162.79 55.07ZM187.34 68.39L185.76 88.19L185.69 89.42Q185.69 92.80 187.20 94.17Q188.71 95.54 191.52 95.54L191.52 95.54Q193.61 95.54 195.34 94.89L195.34 94.89L194.98 99.78Q192.82 100.50 190.01 100.50L190.01 100.50Q185.18 100.50 182.52 97.95Q179.86 95.39 179.86 90.42L179.86 90.42Q179.86 89.49 179.93 88.98L179.93 88.98L181.51 68.39L174.46 68.39L174.82 63.78L181.87 63.78L182.59 54.50L188.57 52.41L187.70 63.78L198.07 63.78L197.64 68.39L187.34 68.39ZM231.34 63.78L237.02 63.78L234.14 100L228.46 100L228.96 94.17Q227.23 97.19 223.99 98.85Q220.75 100.50 216.94 100.50L216.94 100.50Q212.33 100.50 208.84 98.38Q205.34 96.26 203.44 92.30Q201.53 88.34 201.53 83.01L201.53 83.01Q201.53 77.03 203.65 72.50Q205.78 67.96 209.63 65.44Q213.48 62.92 218.52 62.92L218.52 62.92Q222.84 62.92 226.04 64.83Q229.25 66.74 230.83 70.19L230.83 70.19L231.34 63.78ZM218.45 95.75Q223.78 95.75 226.87 91.61Q229.97 87.47 229.97 80.42L229.97 80.42Q229.97 74.22 227.16 70.98Q224.35 67.74 219.10 67.74L219.10 67.74Q213.62 67.74 210.53 71.81Q207.43 75.88 207.43 83.08L207.43 83.08Q207.43 89.06 210.31 92.40Q213.19 95.75 218.45 95.75L218.45 95.75ZM251.28 100L245.45 100L249.70 47.01L255.53 47.01L251.28 100ZM268.49 100L262.66 100L265.54 63.78L271.37 63.78L268.49 100ZM265.46 55.07L266.04 48.45L273.17 48.45L272.66 55.07L265.46 55.07ZM295.70 100.50Q290.66 100.50 286.88 98.34Q283.10 96.18 281.05 92.22Q279.00 88.26 279.00 83.01L279.00 83.01Q279.00 76.96 281.23 72.42Q283.46 67.89 287.60 65.40Q291.74 62.92 297.36 62.92L297.36 62.92Q301.32 62.92 304.67 64.18Q308.02 65.44 310.46 67.67L310.46 67.67L308.16 71.92Q305.42 69.76 302.83 68.75Q300.24 67.74 297.36 67.74L297.36 67.74Q291.46 67.74 288.22 71.85Q284.98 75.95 284.98 83.15L284.98 83.15Q284.98 89.06 287.93 92.37Q290.88 95.68 296.21 95.68L296.21 95.68Q299.09 95.68 301.54 94.67Q303.98 93.66 306.65 91.50L306.65 91.50L308.30 95.82Q305.93 97.98 302.62 99.24Q299.30 100.50 295.70 100.50L295.70 100.50Z"/></svg>