<svg xmlns="http://www.w3.org/2000/svg" viewBox="5.040000000000001 47.007999999999996 305.42400000000004 53.49600000000001"><path d="M30 93L52 49L57 49L53 100L48 100L51 62L31 100L27 100L13 62L11 100L5 100L9 49L14 49L30 93ZM93 64L98 64L96 100L90 100L90 94Q89 97 85 99Q82 101 78 101L78 101Q73 101 69 97Q66 94 66 88L66 88Q66 87 66 86L66 86L68 64L74 64L72 86Q72 86 72 87L72 87Q72 96 80 96L80 96Q85 96 88 93Q91 90 91 84L91 84L93 64ZM113 100L107 100L111 47L117 47L113 100ZM130 100L124 100L127 64L133 64L130 100ZM127 55L127 48L135 48L134 55L127 55ZM166 100L160 100L163 64L169 64L166 100ZM163 55L163 48L170 48L170 55L163 55ZM187 68L186 88L186 89Q186 93 187 94Q189 96 192 96L192 96Q194 96 195 95L195 95L195 100Q193 101 190 101L190 101Q185 101 183 98Q180 95 180 90L180 90Q180 89 180 89L180 89L182 68L174 68L175 64L182 64L183 54L189 52L188 64L198 64L198 68L187 68ZM231 64L237 64L234 100L228 100L229 94Q227 97 224 99Q221 101 217 101L217 101Q212 101 209 98Q205 96 203 92Q202 88 202 83L202 83Q202 77 204 72Q206 68 210 65Q213 63 219 63L219 63Q223 63 226 65Q229 67 231 70L231 70L231 64ZM218 96Q224 96 227 92Q230 87 230 80L230 80Q230 74 227 71Q224 68 219 68L219 68Q214 68 211 72Q207 76 207 83L207 83Q207 89 210 92Q213 96 218 96L218 96ZM251 100L245 100L250 47L256 47L251 100ZM268 100L263 100L266 64L271 64L268 100ZM265 55L266 48L273 48L273 55L265 55ZM296 101Q291 101 287 98Q283 96 281 92Q279 88 279 83L279 83Q279 77 281 72Q283 68 288 65Q292 63 297 63L297 63Q301 63 305 64Q308 65 310 68L310 68L308 72Q305 70 303 69Q300 68 297 68L297 68Q291 68 288 72Q285 76 285 83L285 83Q285 89 288 92Q291 96 296 96L296 96Q299 96 302 95Q304 94 307 92L307 92L308 96Q306 98 303 99Q299 101 296 101L296 101Z"/></svg>