<svg xmlns="http://www.w3.org/2000/svg" viewBox="4.32 47.007999999999996 491.97600000000006 53.568"><path d="M30.10 89.13L50.76 48.74L58.18 48.74L54.14 100L45.94 100L48.38 68.54L32.33 100L26.21 100L15.05 68.61L12.53 100L4.32 100L8.28 48.74L15.70 48.74L30.10 89.13ZM91.66 63.64L100.66 63.64L97.78 100L89.06 100L89.50 94.82Q87.62 97.55 84.56 99.06Q81.50 100.58 77.76 100.58L77.76 100.58Q71.78 100.58 68.65 97.30Q65.52 94.02 65.52 87.76L65.52 87.76Q65.52 86.32 65.59 85.53L65.59 85.53L67.32 63.64L76.32 63.64L74.59 84.95L74.52 86.32Q74.52 93.45 81.07 93.45L81.07 93.45Q84.96 93.45 87.30 90.89Q89.64 88.34 90.00 83.87L90.00 83.87L91.66 63.64ZM116.57 100L107.57 100L111.82 47.01L120.82 47.01L116.57 100ZM135.36 100L126.36 100L129.24 63.64L138.24 63.64L135.36 100ZM129.31 56.01L129.96 47.15L139.97 47.15L139.32 56.01L129.31 56.01ZM187.70 62.70Q192.31 62.70 195.84 64.83Q199.37 66.95 201.31 70.95Q203.26 74.94 203.26 80.27L203.26 80.27Q203.26 86.25 201.10 90.86Q198.94 95.46 195.01 98.02Q191.09 100.58 185.98 100.58L185.98 100.58Q181.94 100.58 178.92 98.88Q175.90 97.19 174.24 94.17L174.24 94.17L173.81 100L164.88 100L169.13 47.01L178.06 47.01L176.33 68.32Q178.13 65.66 181.12 64.18Q184.10 62.70 187.70 62.70L187.70 62.70ZM184.39 93.59Q189.00 93.59 191.59 90.17Q194.18 86.75 194.18 80.70L194.18 80.70Q194.18 75.45 191.77 72.57Q189.36 69.69 184.97 69.69L184.97 69.69Q180.43 69.69 177.80 73.18Q175.18 76.67 175.18 82.58L175.18 82.58Q175.18 87.98 177.55 90.78Q179.93 93.59 184.39 93.59L184.39 93.59ZM227.16 100.58Q221.62 100.58 217.51 98.38Q213.41 96.18 211.18 92.15Q208.94 88.12 208.94 82.72L208.94 82.72Q208.94 76.67 211.28 72.14Q213.62 67.60 217.87 65.15Q222.12 62.70 227.74 62.70L227.74 62.70Q233.21 62.70 237.31 64.94Q241.42 67.17 243.61 71.20Q245.81 75.23 245.81 80.56L245.81 80.56Q245.81 86.68 243.50 91.22Q241.20 95.75 236.99 98.16Q232.78 100.58 227.16 100.58L227.16 100.58ZM227.16 93.59Q231.91 93.59 234.40 89.96Q236.88 86.32 236.88 80.27L236.88 80.27Q236.88 75.16 234.54 72.42Q232.20 69.69 227.81 69.69L227.81 69.69Q222.98 69.69 220.46 73.32Q217.94 76.96 217.94 82.94L217.94 82.94Q217.94 93.59 227.16 93.59L227.16 93.59ZM261.14 100L252.14 100L256.39 47.01L265.39 47.01L261.14 100ZM300.96 47.01L309.96 47.01L305.71 100L296.86 100L297.29 94.89Q295.49 97.55 292.46 99.06Q289.44 100.58 285.84 100.58L285.84 100.58Q281.30 100.58 277.78 98.45Q274.25 96.33 272.30 92.37Q270.36 88.41 270.36 83.08L270.36 83.08Q270.36 77.10 272.52 72.46Q274.68 67.82 278.60 65.26Q282.53 62.70 287.64 62.70L287.64 62.70Q291.60 62.70 294.59 64.29Q297.58 65.87 299.23 68.90L299.23 68.90L300.96 47.01ZM288.72 93.59Q293.18 93.59 295.78 90.14Q298.37 86.68 298.37 80.78L298.37 80.78Q298.37 75.38 295.99 72.53Q293.62 69.69 289.22 69.69L289.22 69.69Q284.62 69.69 281.99 73.14Q279.36 76.60 279.36 82.58L279.36 82.58Q279.36 87.83 281.81 90.71Q284.26 93.59 288.72 93.59L288.72 93.59ZM344.23 100L335.23 100L338.11 63.64L347.11 63.64L344.23 100ZM338.18 56.01L338.83 47.15L348.84 47.15L348.19 56.01L338.18 56.01ZM367.85 70.41L366.55 86.68Q366.05 93.09 371.95 93.09L371.95 93.09Q373.61 93.09 375.70 92.58L375.70 92.58L375.12 99.64Q372.74 100.50 369.22 100.50L369.22 100.50Q363.53 100.50 360.50 97.52Q357.48 94.53 357.48 88.84L357.48 88.84Q357.48 87.76 357.55 87.18L357.55 87.18L358.85 70.41L351.86 70.41L352.44 63.64L359.35 63.64L360.07 54.78L369.29 51.76L368.35 63.64L378.07 63.64L377.50 70.41L367.85 70.41ZM410.11 63.64L418.97 63.64L416.09 100L407.23 100L407.66 94.96Q405.79 97.62 402.80 99.10Q399.82 100.58 396.29 100.58L396.29 100.58Q391.68 100.58 388.19 98.45Q384.70 96.33 382.75 92.33Q380.81 88.34 380.81 83.01L380.81 83.01Q380.81 77.03 382.97 72.42Q385.13 67.82 389.02 65.26Q392.90 62.70 398.02 62.70L398.02 62.70Q402.05 62.70 405.04 64.36Q408.02 66.02 409.68 69.04L409.68 69.04L410.11 63.64ZM399.10 93.59Q403.56 93.59 406.15 90.14Q408.74 86.68 408.74 80.78L408.74 80.78Q408.74 75.38 406.37 72.53Q403.99 69.69 399.60 69.69L399.60 69.69Q394.99 69.69 392.40 73.14Q389.81 76.60 389.81 82.65L389.81 82.65Q389.81 87.90 392.22 90.75Q394.63 93.59 399.10 93.59L399.10 93.59ZM434.88 100L425.88 100L430.13 47.01L439.13 47.01L434.88 100ZM453.67 100L444.67 100L447.55 63.64L456.55 63.64L453.67 100ZM447.62 56.01L448.27 47.15L458.28 47.15L457.63 56.01L447.62 56.01ZM481.10 100.58Q475.56 100.58 471.46 98.38Q467.35 96.18 465.12 92.19Q462.89 88.19 462.89 82.86L462.89 82.86Q462.89 76.67 465.30 72.14Q467.71 67.60 472.14 65.15Q476.57 62.70 482.47 62.70L482.47 62.70Q490.90 62.70 496.30 67.31L496.30 67.31L493.20 73.65Q488.09 69.76 482.83 69.76L482.83 69.76Q477.79 69.76 474.98 73.18Q472.18 76.60 472.18 82.79L472.18 82.79Q472.18 87.90 474.70 90.71Q477.22 93.52 481.75 93.52L481.75 93.52Q484.56 93.52 487.01 92.58Q489.46 91.65 491.98 89.70L491.98 89.70L493.99 95.97Q491.62 98.13 488.20 99.35Q484.78 100.58 481.10 100.58L481.10 100.58Z"/></svg>