<svg xmlns="http://www.w3.org/2000/svg" viewBox="3.4560000000000004 45.495999999999995 556.1279999999999 55.08"><path d="M31 84L49 49L59 49L55 100L43 100L45 77L34 100L25 100L17 77L15 100L3 100L7 49L18 49L31 84ZM90 63L103 63L101 100L88 100L88 96Q86 98 83 99Q80 101 77 101L77 101Q71 101 68 97Q65 94 65 88L65 88Q65 87 65 85L65 85L66 63L80 63L78 84Q78 87 79 89Q80 91 83 91L83 91Q85 91 87 89Q88 87 89 83L89 83L90 63ZM121 100L108 100L113 47L126 47L121 100ZM142 100L129 100L132 63L145 63L142 100ZM132 57L133 45L147 45L146 57L132 57ZM197 62Q202 62 205 65Q209 67 211 71Q213 75 213 80L213 80Q213 86 211 91Q208 95 204 98Q200 101 195 101L195 101Q188 101 184 95L184 95L184 100L171 100L175 47L188 47L187 67Q188 65 191 64Q194 62 197 62L197 62ZM192 91Q196 91 198 88Q200 86 200 81L200 81Q200 77 198 74Q196 72 193 72L193 72Q189 72 187 75Q185 78 185 82L185 82Q185 86 187 89Q189 91 192 91L192 91ZM230 100L217 100L222 47L235 47L230 100ZM267 63L280 63L277 100L264 100L264 96Q262 98 260 99Q257 101 254 101L254 101Q249 101 245 98Q242 96 240 92Q238 88 238 83L238 83Q238 77 240 72Q242 68 246 65Q250 62 255 62L255 62Q263 62 266 68L266 68L267 63ZM258 91Q261 91 263 88Q265 86 265 81L265 81Q265 77 263 74Q262 72 258 72L258 72Q255 72 253 75Q251 78 251 82L251 82Q251 86 253 89Q255 91 258 91L258 91ZM304 101Q298 101 294 98Q289 96 287 92Q284 88 284 83L284 83Q284 76 287 72Q289 67 294 65Q299 62 305 62L305 62Q314 62 320 67L320 67L316 76Q314 74 311 73Q308 72 306 72L306 72Q302 72 300 75Q298 78 298 82L298 82Q298 86 300 89Q302 91 305 91L305 91Q310 91 315 87L315 87L318 96Q315 98 312 99Q308 101 304 101L304 101ZM349 63L365 63L349 81L363 100L347 100L336 84L335 100L322 100L326 47L339 47L336 78L349 63ZM398 100L385 100L388 63L401 63L398 100ZM389 57L389 45L403 45L402 57L389 57ZM425 73L424 85Q424 87 425 89Q426 90 429 90L429 90Q430 90 432 90L432 90L431 99Q429 101 424 101L424 101Q418 101 414 97Q411 93 411 87L411 87Q411 85 411 85L411 85L412 73L405 73L406 63L412 63L413 55L426 51L425 63L434 63L433 73L425 73ZM465 63L478 63L475 100L462 100L462 96Q460 98 458 99Q455 101 452 101L452 101Q447 101 443 98Q440 96 438 92Q436 88 436 83L436 83Q436 77 438 72Q440 68 444 65Q448 62 454 62L454 62Q461 62 464 68L464 68L465 63ZM456 91Q459 91 461 88Q463 86 463 81L463 81Q463 77 462 74Q460 72 456 72L456 72Q453 72 451 75Q449 78 449 82L449 82Q449 86 451 89Q453 91 456 91L456 91ZM496 100L482 100L487 47L500 47L496 100ZM516 100L503 100L506 63L519 63L516 100ZM506 57L507 45L521 45L520 57L506 57ZM544 101Q538 101 533 98Q529 96 526 92Q524 88 524 83L524 83Q524 76 526 72Q529 67 534 65Q539 62 545 62L545 62Q554 62 560 67L560 67L555 76Q553 74 551 73Q548 72 546 72L546 72Q542 72 539 75Q537 78 537 82L537 82Q537 86 539 89Q541 91 545 91L545 91Q550 91 555 87L555 87L557 96Q555 98 551 99Q548 101 544 101L544 101Z"/></svg>