<svg xmlns="http://www.w3.org/2000/svg" viewBox="3.4560000000000004 45.495999999999995 556.1279999999999 55.08"><path d="M30.53 84.16L48.60 48.74L59.11 48.74L55.15 100L43.34 100L45.14 76.74L33.55 100L24.98 100L16.99 76.82L15.19 100L3.46 100L7.42 48.74L17.93 48.74L30.53 84.16ZM90.43 63.42L103.46 63.42L100.58 100L87.84 100L88.20 95.90Q86.33 98.13 83.38 99.35Q80.42 100.58 76.90 100.58L76.90 100.58Q70.92 100.58 67.82 97.26Q64.73 93.95 64.73 87.54L64.73 87.54Q64.73 86.68 64.87 84.81L64.87 84.81L66.46 63.42L79.63 63.42L77.90 84.02Q77.69 87.18 78.84 88.88Q79.99 90.57 82.58 90.57L82.58 90.57Q85.32 90.57 86.90 88.66Q88.49 86.75 88.70 83.44L88.70 83.44L90.43 63.42ZM121.39 100L108.36 100L112.61 47.01L125.64 47.01L121.39 100ZM142.20 100L129.17 100L132.05 63.42L145.08 63.42L142.20 100ZM132.26 57.23L133.13 45.50L146.81 45.50L145.87 57.23L132.26 57.23ZM197.21 62.42Q201.82 62.42 205.34 64.54Q208.87 66.66 210.82 70.66Q212.76 74.66 212.76 80.06L212.76 80.06Q212.76 86.03 210.53 90.71Q208.30 95.39 204.30 97.98Q200.30 100.58 195.12 100.58L195.12 100.58Q188.14 100.58 184.18 95.46L184.18 95.46L183.82 100L170.93 100L175.10 47.01L188.14 47.01L186.55 67.24Q188.35 65.01 191.09 63.71Q193.82 62.42 197.21 62.42L197.21 62.42ZM192.24 90.93Q195.84 90.93 197.82 88.30Q199.80 85.67 199.80 81.06L199.80 81.06Q199.80 76.74 197.96 74.48Q196.13 72.21 192.60 72.21L192.60 72.21Q189.22 72.21 187.24 74.87Q185.26 77.54 185.26 81.93L185.26 81.93Q185.26 86.39 187.06 88.66Q188.86 90.93 192.24 90.93L192.24 90.93ZM230.33 100L217.30 100L221.54 47.01L234.58 47.01L230.33 100ZM266.69 63.42L279.50 63.42L276.62 100L263.74 100L264.10 95.90Q262.37 98.13 259.63 99.35Q256.90 100.58 253.51 100.58L253.51 100.58Q248.90 100.58 245.38 98.45Q241.85 96.33 239.87 92.37Q237.89 88.41 237.89 83.01L237.89 83.01Q237.89 77.03 240.12 72.35Q242.35 67.67 246.35 65.04Q250.34 62.42 255.46 62.42L255.46 62.42Q262.58 62.42 266.33 67.53L266.33 67.53L266.69 63.42ZM258.05 90.93Q261.36 90.93 263.30 88.26Q265.25 85.60 265.25 81.28L265.25 81.28Q265.25 76.74 263.45 74.48Q261.65 72.21 258.26 72.21L258.26 72.21Q254.81 72.21 252.79 74.87Q250.78 77.54 250.78 82.14L250.78 82.14Q250.78 86.39 252.68 88.66Q254.59 90.93 258.05 90.93L258.05 90.93ZM304.20 100.58Q298.08 100.58 293.54 98.34Q289.01 96.11 286.60 92.04Q284.18 87.98 284.18 82.65L284.18 82.65Q284.18 76.38 286.78 71.81Q289.37 67.24 294.12 64.83Q298.87 62.42 305.21 62.42L305.21 62.42Q314.06 62.42 319.90 66.81L319.90 66.81L315.79 75.81Q313.56 74.15 311.00 73.22Q308.45 72.28 306.07 72.28L306.07 72.28Q302.04 72.28 299.81 74.91Q297.58 77.54 297.58 82.29L297.58 82.29Q297.58 86.46 299.59 88.59Q301.61 90.71 305.06 90.71L305.06 90.71Q310.32 90.71 314.93 87.33L314.93 87.33L317.59 96.18Q315.07 98.27 311.51 99.42Q307.94 100.58 304.20 100.58L304.20 100.58ZM349.42 63.50L365.26 63.50L349.42 81.21L362.95 100L347.26 100L335.88 84.30L334.66 100L321.55 100L325.73 47.01L338.83 47.01L336.38 78.47L349.42 63.50ZM398.45 100L385.42 100L388.30 63.42L401.33 63.42L398.45 100ZM388.51 57.23L389.38 45.50L403.06 45.50L402.12 57.23L388.51 57.23ZM424.58 73.07L423.65 84.81Q423.50 87.40 424.91 88.73Q426.31 90.06 428.62 90.06L428.62 90.06Q429.98 90.06 432.22 89.56L432.22 89.56L431.35 99.50Q428.69 100.58 424.44 100.58L424.44 100.58Q417.60 100.58 414.07 96.94Q410.54 93.30 410.54 86.75L410.54 86.75Q410.54 85.46 410.62 84.81L410.62 84.81L411.55 73.07L404.71 73.07L405.50 63.42L412.34 63.42L412.99 55.14L426.38 50.97L425.38 63.42L434.16 63.42L433.44 73.07L424.58 73.07ZM464.76 63.42L477.58 63.42L474.70 100L461.81 100L462.17 95.90Q460.44 98.13 457.70 99.35Q454.97 100.58 451.58 100.58L451.58 100.58Q446.98 100.58 443.45 98.45Q439.92 96.33 437.94 92.37Q435.96 88.41 435.96 83.01L435.96 83.01Q435.96 77.03 438.19 72.35Q440.42 67.67 444.42 65.04Q448.42 62.42 453.53 62.42L453.53 62.42Q460.66 62.42 464.40 67.53L464.40 67.53L464.76 63.42ZM456.12 90.93Q459.43 90.93 461.38 88.26Q463.32 85.60 463.32 81.28L463.32 81.28Q463.32 76.74 461.52 74.48Q459.72 72.21 456.34 72.21L456.34 72.21Q452.88 72.21 450.86 74.87Q448.85 77.54 448.85 82.14L448.85 82.14Q448.85 86.39 450.76 88.66Q452.66 90.93 456.12 90.93L456.12 90.93ZM495.50 100L482.47 100L486.72 47.01L499.75 47.01L495.50 100ZM516.31 100L503.28 100L506.16 63.42L519.19 63.42L516.31 100ZM506.38 57.23L507.24 45.50L520.92 45.50L519.98 57.23L506.38 57.23ZM543.89 100.58Q537.77 100.58 533.23 98.34Q528.70 96.11 526.28 92.04Q523.87 87.98 523.87 82.65L523.87 82.65Q523.87 76.38 526.46 71.81Q529.06 67.24 533.81 64.83Q538.56 62.42 544.90 62.42L544.90 62.42Q553.75 62.42 559.58 66.81L559.58 66.81L555.48 75.81Q553.25 74.15 550.69 73.22Q548.14 72.28 545.76 72.28L545.76 72.28Q541.73 72.28 539.50 74.91Q537.26 77.54 537.26 82.29L537.26 82.29Q537.26 86.46 539.28 88.59Q541.30 90.71 544.75 90.71L544.75 90.71Q550.01 90.71 554.62 87.33L554.62 87.33L557.28 96.18Q554.76 98.27 551.20 99.42Q547.63 100.58 543.89 100.58L543.89 100.58Z"/></svg>