<svg xmlns="http://www.w3.org/2000/svg" viewBox="6.336 47.007999999999996 385.05600000000004 69.048"><path d="M31 93L50 49L55 49L55 100L49 100L49 62L33 100L29 100L12 62L12 100L6 100L6 49L11 49L31 93ZM91 64L97 64L97 100L91 100L91 94Q90 97 87 99Q83 101 80 101L80 101Q73 101 70 97Q67 93 67 86L67 86L67 64L72 64L72 86Q72 91 74 93Q76 96 80 96L80 96Q85 96 88 92Q91 89 91 84L91 84L91 64ZM114 100L108 100L108 47L114 47L114 100ZM131 100L125 100L125 64L131 64L131 100ZM125 55L125 48L132 48L132 55L125 55ZM178 63Q180 63 182 63L182 63L181 69Q180 68 178 68L178 68Q172 68 170 71Q167 75 167 79L167 79L167 100L161 100L161 74Q161 68 161 64L161 64L166 64L167 70Q168 67 171 65Q174 63 178 63L178 63ZM217 81L217 82L190 82Q191 89 194 92Q197 96 203 96L203 96Q209 96 214 91L214 91L216 96Q214 98 210 99Q207 101 203 101L203 101Q194 101 189 96Q185 90 185 82L185 82Q185 76 187 72Q189 68 193 65Q197 63 202 63L202 63Q209 63 213 68Q217 72 217 81L217 81ZM202 67Q197 67 194 70Q191 73 191 78L191 78L212 78Q211 73 209 70Q206 67 202 67L202 67ZM252 64L258 64L258 100Q258 108 254 112Q250 116 242 116L242 116Q233 116 228 112L228 112L229 108Q232 110 235 110Q238 111 242 111L242 111Q247 111 250 108Q252 106 252 100L252 100L252 92Q251 95 248 97Q244 99 240 99L240 99Q235 99 231 97Q228 94 226 90Q224 86 224 81L224 81Q224 76 226 71Q228 67 231 65Q235 63 240 63L240 63Q244 63 247 65Q251 67 252 70L252 70L252 64ZM241 94Q246 94 249 91Q252 87 252 81L252 81Q252 75 249 71Q246 68 241 68L241 68Q236 68 233 71Q230 75 230 81L230 81Q230 87 233 91Q236 94 241 94L241 94ZM294 64L300 64L300 100L294 100L294 94Q292 97 289 99Q286 101 282 101L282 101Q276 101 272 97Q269 93 269 86L269 86L269 64L275 64L275 86Q275 91 277 93Q279 96 283 96L283 96Q288 96 291 92Q294 89 294 84L294 84L294 64ZM317 100L311 100L311 47L317 47L317 100ZM354 64L360 64L360 100L354 100L354 93Q353 97 349 99Q346 101 342 101L342 101Q337 101 333 98Q330 96 328 92Q326 87 326 82L326 82Q326 76 328 72Q330 68 334 65Q337 63 342 63L342 63Q346 63 349 65Q353 67 354 70L354 70L354 64ZM343 96Q348 96 351 92Q354 88 354 82L354 82Q354 75 351 71Q348 68 343 68L343 68Q338 68 335 72Q332 75 332 82L332 82Q332 88 335 92Q338 96 343 96L343 96ZM388 63Q390 63 391 63L391 63L391 69Q390 68 387 68L387 68Q382 68 380 71Q377 75 377 79L377 79L377 100L371 100L371 74Q371 68 371 64L371 64L376 64L377 70Q378 67 381 65Q384 63 388 63L388 63Z"/></svg>