<svg xmlns="http://www.w3.org/2000/svg" viewBox="0.88 -7.36 17.450000000000003 7.430000000000001"><path d="M4.26-0.98L6.93-7.12L7.61-7.12L7.61 0L6.85 0L6.85-5.29L4.54 0L3.96 0L1.63-5.25L1.64 0L0.88 0L0.88-7.12L1.56-7.12L4.26-0.98ZM12.67-5.03L13.48-5.03L13.48 0L12.69 0L12.69-0.87Q12.45-0.41 12.02-0.17Q11.59 0.07 11.05 0.07L11.05 0.07Q10.16 0.07 9.70-0.43Q9.24-0.93 9.24-1.91L9.24-1.91L9.24-5.03L10.05-5.03L10.05-1.93Q10.05-1.25 10.33-0.93Q10.61-0.61 11.18-0.61L11.18-0.61Q11.85-0.61 12.26-1.04Q12.67-1.48 12.67-2.19L12.67-2.19L12.67-5.03ZM15.85 0L15.04 0L15.04-7.36L15.85-7.36L15.85 0ZM18.23 0L17.42 0L17.42-5.03L18.23-5.03L18.23 0ZM17.34-6.24L17.34-7.16L18.33-7.16L18.33-6.24L17.34-6.24Z"/></svg>