<svg xmlns="http://www.w3.org/2000/svg" viewBox="4.752000000000001 47.007999999999996 655.4159999999999 53.49600000000001"><path d="M30 91L52 49L58 49L54 100L47 100L50 65L32 100L27 100L14 65L11 100L5 100L9 49L15 49L30 91ZM92 64L99 64L97 100L89 100L90 95Q88 97 85 99Q82 101 78 101L78 101Q72 101 69 97Q66 94 66 88L66 88Q66 87 66 86L66 86L68 64L75 64L73 85Q73 86 73 87L73 87Q73 95 80 95L80 95Q85 95 88 92Q90 89 91 84L91 84L92 64ZM114 100L107 100L111 47L119 47L114 100ZM132 100L125 100L128 64L135 64L132 100ZM128 56L129 48L137 48L136 56L128 56ZM175 101Q166 101 160 96L160 96L163 91Q169 95 175 95L175 95Q179 95 181 94Q183 93 183 90L183 90Q183 88 181 87Q179 86 175 84L175 84Q171 83 169 82Q167 81 165 79Q163 77 163 74L163 74Q163 69 167 66Q171 63 178 63L178 63Q182 63 185 64Q189 65 191 68L191 68L189 73Q183 68 178 68L178 68Q174 68 172 70Q170 71 170 74L170 74Q170 75 171 76Q172 77 174 78Q175 78 178 79L178 79Q182 80 184 81Q187 82 188 84Q190 86 190 90L190 90Q190 95 186 98Q182 101 175 101L175 101ZM230 82L204 82L204 83Q204 89 207 92Q210 95 215 95L215 95Q222 95 227 91L227 91L229 96Q227 98 223 99Q219 101 215 101L215 101Q210 101 206 98Q202 96 199 92Q197 88 197 83L197 83Q197 77 200 72Q202 68 206 65Q210 63 215 63L215 63Q222 63 227 67Q231 71 231 79L231 79Q231 80 230 82L230 82ZM216 68Q211 68 209 71Q206 73 205 78L205 78L224 78Q224 73 222 71Q220 68 216 68L216 68ZM281 63Q287 63 290 66Q293 69 293 75L293 75Q293 77 293 78L293 78L291 100L284 100L285 78Q285 77 285 76L285 76Q285 72 284 71Q282 69 279 69L279 69Q275 69 272 72Q270 74 269 80L269 80L268 100L260 100L262 78Q262 77 262 76L262 76Q262 72 261 71Q259 69 256 69L256 69Q251 69 249 72Q247 74 246 80L246 80L245 100L237 100L239 74Q240 69 240 67L240 67Q240 65 240 64L240 64L246 64L247 69Q250 63 258 63L258 63Q262 63 265 65Q268 66 269 70L269 70Q271 66 274 65Q277 63 281 63L281 63ZM309 100L301 100L304 64L311 64L309 100ZM304 56L305 48L313 48L313 56L304 56ZM360 63Q364 63 368 65Q371 67 373 71Q375 75 375 80L375 80Q375 86 373 91Q371 95 367 98Q363 101 358 101L358 101Q354 101 351 99Q348 97 346 94L346 94L346 100L338 100L343 47L350 47L348 69Q350 66 353 64Q356 63 360 63L360 63ZM357 95Q362 95 365 91Q368 87 368 81L368 81Q368 75 365 72Q363 69 358 69L358 69Q353 69 350 72Q347 76 347 83L347 83Q347 89 350 92Q352 95 357 95L357 95ZM399 101Q394 101 390 98Q386 96 384 92Q381 88 381 83L381 83Q381 77 384 72Q386 68 390 65Q394 63 400 63L400 63Q405 63 409 65Q413 67 415 71Q417 75 417 80L417 80Q417 87 415 91Q412 96 408 98Q404 101 399 101L399 101ZM399 95Q404 95 407 91Q410 87 410 80L410 80Q410 75 407 72Q404 69 400 69L400 69Q394 69 392 73Q389 76 389 83L389 83Q389 89 391 92Q394 95 399 95L399 95ZM431 100L424 100L428 47L436 47L431 100ZM472 47L479 47L475 100L468 100L468 95Q466 97 463 99Q460 101 457 101L457 101Q452 101 449 98Q445 96 443 92Q441 88 441 83L441 83Q441 77 443 72Q445 68 449 65Q453 63 458 63L458 63Q462 63 466 65Q469 66 470 70L470 70L472 47ZM459 95Q464 95 467 91Q469 87 469 81L469 81Q469 75 467 72Q464 69 459 69L459 69Q454 69 451 72Q448 76 448 83L448 83Q448 88 451 92Q454 95 459 95L459 95ZM512 100L505 100L508 64L515 64L512 100ZM508 56L508 48L517 48L516 56L508 56ZM535 69L533 88L533 89Q533 94 539 94L539 94Q541 94 543 94L543 94L542 100Q540 101 537 101L537 101Q532 101 529 98Q526 95 526 90L526 90Q526 89 526 88L526 88L527 69L520 69L521 64L528 64L529 55L536 52L535 64L545 64L545 69L535 69ZM578 64L585 64L582 100L575 100L575 94Q574 97 571 99Q567 101 564 101L564 101Q559 101 556 98Q552 96 550 92Q548 88 548 83L548 83Q548 77 550 72Q553 68 556 65Q560 63 565 63L565 63Q570 63 573 65Q576 66 577 70L577 70L578 64ZM566 95Q571 95 574 91Q577 87 577 81L577 81Q577 75 574 72Q571 69 566 69L566 69Q561 69 558 72Q556 76 556 83L556 83Q556 89 558 92Q561 95 566 95L566 95ZM600 100L593 100L597 47L604 47L600 100ZM618 100L611 100L614 64L621 64L618 100ZM614 56L614 48L623 48L622 56L614 56ZM645 101Q640 101 636 98Q632 96 630 92Q628 88 628 83L628 83Q628 77 630 72Q632 68 637 65Q641 63 647 63L647 63Q651 63 654 64Q658 65 660 68L660 68L658 73Q655 71 652 70Q650 69 647 69L647 69Q641 69 638 72Q635 76 635 83L635 83Q635 89 638 92Q641 95 646 95L646 95Q649 95 651 94Q653 93 656 91L656 91L658 96Q656 98 652 99Q649 101 645 101L645 101Z"/></svg>