<svg xmlns="http://www.w3.org/2000/svg" viewBox="4.32 47.007999999999996 491.97600000000006 53.568"><path d="M30 89L51 49L58 49L54 100L46 100L48 69L32 100L26 100L15 69L13 100L4 100L8 49L16 49L30 89ZM92 64L101 64L98 100L89 100L89 95Q88 98 85 99Q82 101 78 101L78 101Q72 101 69 97Q66 94 66 88L66 88Q66 86 66 86L66 86L67 64L76 64L75 85L75 86Q75 93 81 93L81 93Q85 93 87 91Q90 88 90 84L90 84L92 64ZM117 100L108 100L112 47L121 47L117 100ZM135 100L126 100L129 64L138 64L135 100ZM129 56L130 47L140 47L139 56L129 56ZM188 63Q192 63 196 65Q199 67 201 71Q203 75 203 80L203 80Q203 86 201 91Q199 95 195 98Q191 101 186 101L186 101Q182 101 179 99Q176 97 174 94L174 94L174 100L165 100L169 47L178 47L176 68Q178 66 181 64Q184 63 188 63L188 63ZM184 94Q189 94 192 90Q194 87 194 81L194 81Q194 75 192 73Q189 70 185 70L185 70Q180 70 178 73Q175 77 175 83L175 83Q175 88 178 91Q180 94 184 94L184 94ZM227 101Q222 101 218 98Q213 96 211 92Q209 88 209 83L209 83Q209 77 211 72Q214 68 218 65Q222 63 228 63L228 63Q233 63 237 65Q241 67 244 71Q246 75 246 81L246 81Q246 87 244 91Q241 96 237 98Q233 101 227 101L227 101ZM227 94Q232 94 234 90Q237 86 237 80L237 80Q237 75 235 72Q232 70 228 70L228 70Q223 70 220 73Q218 77 218 83L218 83Q218 94 227 94L227 94ZM261 100L252 100L256 47L265 47L261 100ZM301 47L310 47L306 100L297 100L297 95Q295 98 292 99Q289 101 286 101L286 101Q281 101 278 98Q274 96 272 92Q270 88 270 83L270 83Q270 77 273 72Q275 68 279 65Q283 63 288 63L288 63Q292 63 295 64Q298 66 299 69L299 69L301 47ZM289 94Q293 94 296 90Q298 87 298 81L298 81Q298 75 296 73Q294 70 289 70L289 70Q285 70 282 73Q279 77 279 83L279 83Q279 88 282 91Q284 94 289 94L289 94ZM344 100L335 100L338 64L347 64L344 100ZM338 56L339 47L349 47L348 56L338 56ZM368 70L367 87Q366 93 372 93L372 93Q374 93 376 93L376 93L375 100Q373 101 369 101L369 101Q364 101 361 98Q357 95 357 89L357 89Q357 88 358 87L358 87L359 70L352 70L352 64L359 64L360 55L369 52L368 64L378 64L377 70L368 70ZM410 64L419 64L416 100L407 100L408 95Q406 98 403 99Q400 101 396 101L396 101Q392 101 388 98Q385 96 383 92Q381 88 381 83L381 83Q381 77 383 72Q385 68 389 65Q393 63 398 63L398 63Q402 63 405 64Q408 66 410 69L410 69L410 64ZM399 94Q404 94 406 90Q409 87 409 81L409 81Q409 75 406 73Q404 70 400 70L400 70Q395 70 392 73Q390 77 390 83L390 83Q390 88 392 91Q395 94 399 94L399 94ZM435 100L426 100L430 47L439 47L435 100ZM454 100L445 100L448 64L457 64L454 100ZM448 56L448 47L458 47L458 56L448 56ZM481 101Q476 101 471 98Q467 96 465 92Q463 88 463 83L463 83Q463 77 465 72Q468 68 472 65Q477 63 482 63L482 63Q491 63 496 67L496 67L493 74Q488 70 483 70L483 70Q478 70 475 73Q472 77 472 83L472 83Q472 88 475 91Q477 94 482 94L482 94Q485 94 487 93Q489 92 492 90L492 90L494 96Q492 98 488 99Q485 101 481 101L481 101Z"/></svg>