<svg xmlns="http://www.w3.org/2000/svg" viewBox="3.8880000000000003 46.35999999999999 707.544 54.216"><path d="M30.31 86.75L49.75 48.74L58.61 48.74L54.65 100L44.71 100L46.87 72.21L32.90 100L25.63 100L15.91 72.42L13.75 100L3.89 100L7.85 48.74L16.78 48.74L30.31 86.75ZM91.08 63.50L101.95 63.50L99.07 100L88.49 100L88.85 95.32Q86.98 97.84 83.95 99.21Q80.93 100.58 77.33 100.58L77.33 100.58Q71.35 100.58 68.22 97.26Q65.09 93.95 65.09 87.62L65.09 87.62Q65.09 86.90 65.23 85.17L65.23 85.17L66.89 63.50L77.83 63.50L76.10 84.52Q75.53 92.08 81.79 92.08L81.79 92.08Q85.18 92.08 87.16 89.85Q89.14 87.62 89.42 83.73L89.42 83.73L91.08 63.50ZM118.73 100L107.86 100L112.10 47.01L122.98 47.01L118.73 100ZM138.53 100L127.66 100L130.54 63.50L141.41 63.50L138.53 100ZM130.61 56.58L131.40 46.36L143.06 46.36L142.27 56.58L130.61 56.58ZM185.62 62.56Q192.96 62.56 197.35 66.92Q201.74 71.27 201.74 79.05L201.74 79.05Q201.74 80.78 201.53 82.65L201.53 82.65L177.62 82.65Q177.70 87.47 180.04 89.96Q182.38 92.44 186.91 92.44L186.91 92.44Q192.74 92.44 197.71 88.77L197.71 88.77L200.02 96.11Q197.57 98.20 193.90 99.39Q190.22 100.58 186.19 100.58L186.19 100.58Q180.50 100.58 176.18 98.38Q171.86 96.18 169.52 92.12Q167.18 88.05 167.18 82.65L167.18 82.65Q167.18 76.82 169.56 72.24Q171.94 67.67 176.15 65.12Q180.36 62.56 185.62 62.56L185.62 62.56ZM186.05 70.19Q179.57 70.19 178.13 77.25L178.13 77.25L192.74 77.25Q192.74 73.86 190.94 72.03Q189.14 70.19 186.05 70.19L186.05 70.19ZM233.35 63.50L246.38 63.50L230.54 81.28L244.37 100L231.70 100L223.78 88.70L214.13 100L201.17 100L218.02 81.14L204.91 63.50L217.51 63.50L224.71 73.65L233.35 63.50ZM263.16 71.63L262.01 85.82Q261.79 88.84 263.23 90.28Q264.67 91.72 267.19 91.72L267.19 91.72Q268.85 91.72 270.86 91.14L270.86 91.14L270.14 99.57Q267.70 100.58 263.81 100.58L263.81 100.58Q257.62 100.58 254.34 97.26Q251.06 93.95 251.06 87.90L251.06 87.90Q251.06 86.68 251.14 86.03L251.14 86.03L252.29 71.63L245.38 71.63L246.02 63.50L252.94 63.50L253.58 54.93L264.74 51.40L263.81 63.50L273.10 63.50L272.45 71.63L263.16 71.63ZM299.81 62.63Q302.11 62.63 303.70 63.35L303.70 63.35L302.98 73.22Q300.38 72.06 297.65 72.06L297.65 72.06Q293.33 72.06 290.88 74.30Q288.43 76.53 288.14 80.92L288.14 80.92L286.56 100L275.69 100L277.78 73.94Q278.06 68.90 278.06 66.38L278.06 66.38Q278.06 64.43 277.99 63.50L277.99 63.50L288.29 63.50L288.43 68.90Q290.02 65.94 293.11 64.29Q296.21 62.63 299.81 62.63L299.81 62.63ZM333.22 63.50L343.94 63.50L341.06 100L330.34 100L330.70 95.32Q328.90 97.84 326.02 99.21Q323.14 100.58 319.68 100.58L319.68 100.58Q315.07 100.58 311.54 98.45Q308.02 96.33 306.07 92.37Q304.13 88.41 304.13 83.01L304.13 83.01Q304.13 77.03 306.32 72.39Q308.52 67.74 312.48 65.15Q316.44 62.56 321.55 62.56L321.55 62.56Q325.37 62.56 328.25 64.04Q331.13 65.51 332.86 68.32L332.86 68.32L333.22 63.50ZM323.28 92.37Q327.24 92.37 329.54 89.27Q331.85 86.18 331.85 80.99L331.85 80.99Q331.85 75.95 329.76 73.40Q327.67 70.84 323.71 70.84L323.71 70.84Q319.61 70.84 317.27 73.97Q314.93 77.10 314.93 82.43L314.93 82.43Q314.93 87.26 317.09 89.81Q319.25 92.37 323.28 92.37L323.28 92.37ZM394.56 62.56Q399.17 62.56 402.70 64.68Q406.22 66.81 408.17 70.80Q410.11 74.80 410.11 80.13L410.11 80.13Q410.11 86.10 407.92 90.75Q405.72 95.39 401.76 97.98Q397.80 100.58 392.69 100.58L392.69 100.58Q388.87 100.58 386.03 99.10Q383.18 97.62 381.38 94.82L381.38 94.82L380.95 100L370.15 100L374.33 47.01L385.20 47.01L383.54 67.82Q385.34 65.37 388.22 63.96Q391.10 62.56 394.56 62.56L394.56 62.56ZM390.53 92.37Q394.63 92.37 396.94 89.31Q399.24 86.25 399.24 80.85L399.24 80.85Q399.24 76.02 397.08 73.43Q394.92 70.84 390.96 70.84L390.96 70.84Q387.00 70.84 384.66 73.97Q382.32 77.10 382.32 82.29L382.32 82.29Q382.32 87.26 384.44 89.81Q386.57 92.37 390.53 92.37L390.53 92.37ZM434.16 100.58Q428.33 100.58 424.04 98.34Q419.76 96.11 417.46 92.04Q415.15 87.98 415.15 82.58L415.15 82.58Q415.15 76.46 417.56 71.92Q419.98 67.38 424.37 64.97Q428.76 62.56 434.59 62.56L434.59 62.56Q440.35 62.56 444.64 64.79Q448.92 67.02 451.22 71.09Q453.53 75.16 453.53 80.56L453.53 80.56Q453.53 86.75 451.12 91.25Q448.70 95.75 444.35 98.16Q439.99 100.58 434.16 100.58L434.16 100.58ZM434.09 92.37Q438.48 92.37 440.60 89.02Q442.73 85.67 442.73 80.27L442.73 80.27Q442.73 75.59 440.71 73.22Q438.70 70.84 434.74 70.84L434.74 70.84Q430.27 70.84 428.11 74.15Q425.95 77.46 425.95 82.79L425.95 82.79Q425.95 92.37 434.09 92.37L434.09 92.37ZM469.87 100L459.00 100L463.25 47.01L474.12 47.01L469.87 100ZM508.61 47.01L519.55 47.01L515.30 100L504.58 100L504.94 95.39Q503.14 97.84 500.26 99.21Q497.38 100.58 493.92 100.58L493.92 100.58Q489.31 100.58 485.78 98.45Q482.26 96.33 480.31 92.37Q478.37 88.41 478.37 83.01L478.37 83.01Q478.37 77.03 480.56 72.39Q482.76 67.74 486.72 65.15Q490.68 62.56 495.79 62.56L495.79 62.56Q499.54 62.56 502.38 64.00Q505.22 65.44 506.95 68.18L506.95 68.18L508.61 47.01ZM497.52 92.37Q501.48 92.37 503.78 89.27Q506.09 86.18 506.09 80.99L506.09 80.99Q506.09 75.95 504.00 73.40Q501.91 70.84 497.95 70.84L497.95 70.84Q493.85 70.84 491.51 73.94Q489.17 77.03 489.17 82.36L489.17 82.36Q489.17 87.18 491.33 89.78Q493.49 92.37 497.52 92.37L497.52 92.37ZM555.26 100L544.39 100L547.27 63.50L558.14 63.50L555.26 100ZM547.34 56.58L548.14 46.36L559.80 46.36L559.01 56.58L547.34 56.58ZM580.03 71.63L578.88 85.82Q578.66 88.84 580.10 90.28Q581.54 91.72 584.06 91.72L584.06 91.72Q585.72 91.72 587.74 91.14L587.74 91.14L587.02 99.57Q584.57 100.58 580.68 100.58L580.68 100.58Q574.49 100.58 571.21 97.26Q567.94 93.95 567.94 87.90L567.94 87.90Q567.94 86.68 568.01 86.03L568.01 86.03L569.16 71.63L562.25 71.63L562.90 63.50L569.81 63.50L570.46 54.93L581.62 51.40L580.68 63.50L589.97 63.50L589.32 71.63L580.03 71.63ZM621.29 63.50L632.02 63.50L629.14 100L618.41 100L618.77 95.32Q616.97 97.84 614.09 99.21Q611.21 100.58 607.75 100.58L607.75 100.58Q603.14 100.58 599.62 98.45Q596.09 96.33 594.14 92.37Q592.20 88.41 592.20 83.01L592.20 83.01Q592.20 77.03 594.40 72.39Q596.59 67.74 600.55 65.15Q604.51 62.56 609.62 62.56L609.62 62.56Q613.44 62.56 616.32 64.04Q619.20 65.51 620.93 68.32L620.93 68.32L621.29 63.50ZM611.35 92.37Q615.31 92.37 617.62 89.27Q619.92 86.18 619.92 80.99L619.92 80.99Q619.92 75.95 617.83 73.40Q615.74 70.84 611.78 70.84L611.78 70.84Q607.68 70.84 605.34 73.97Q603.00 77.10 603.00 82.43L603.00 82.43Q603.00 87.26 605.16 89.81Q607.32 92.37 611.35 92.37L611.35 92.37ZM648.79 100L637.92 100L642.17 47.01L653.04 47.01L648.79 100ZM668.59 100L657.72 100L660.60 63.50L671.47 63.50L668.59 100ZM660.67 56.58L661.46 46.36L673.13 46.36L672.34 56.58L660.67 56.58ZM696.02 100.58Q690.26 100.58 685.94 98.34Q681.62 96.11 679.32 92.08Q677.02 88.05 677.02 82.72L677.02 82.72Q677.02 76.53 679.50 71.99Q681.98 67.46 686.56 65.01Q691.13 62.56 697.25 62.56L697.25 62.56Q705.96 62.56 711.43 67.10L711.43 67.10L707.90 74.66Q702.94 70.91 697.82 70.91L697.82 70.91Q693.22 70.91 690.70 73.97Q688.18 77.03 688.18 82.58L688.18 82.58Q688.18 87.26 690.48 89.74Q692.78 92.22 696.82 92.22L696.82 92.22Q702.07 92.22 706.82 88.55L706.82 88.55L709.20 96.11Q706.75 98.27 703.26 99.42Q699.77 100.58 696.02 100.58L696.02 100.58Z"/></svg>