<svg xmlns="http://www.w3.org/2000/svg" viewBox="5.688000000000001 44.343999999999994 832.9680000000001 60.768"><path d="M45.00 103.96L38.16 103.96Q37.30 103.96 37.01 103.78Q36.72 103.60 36.29 102.81L36.29 102.81L15.48 64.86L15.48 102.23Q15.48 103.38 15.26 103.67Q15.05 103.96 13.90 103.96L13.90 103.96L7.34 103.96Q6.26 103.96 5.98 103.67Q5.69 103.38 5.69 102.23L5.69 102.23L5.69 50.32Q5.69 49.10 5.94 48.74Q6.19 48.38 7.49 48.38L7.49 48.38L14.62 48.38Q15.48 48.38 15.77 48.59Q16.06 48.81 16.56 49.74L16.56 49.74L37.08 87.40L37.08 50.10Q37.08 49.02 37.33 48.70Q37.58 48.38 38.66 48.38L38.66 48.38L45.14 48.38Q46.44 48.38 46.66 48.74Q46.87 49.10 46.87 50.10L46.87 50.10L46.87 101.94Q46.87 103.31 46.58 103.64Q46.30 103.96 45.00 103.96L45.00 103.96ZM85.90 104.10L79.27 104.10Q78.62 104.10 78.44 103.96Q78.26 103.82 78.26 103.10L78.26 103.10L78.26 100Q77.04 101.94 74.27 103.31Q71.50 104.68 68.76 104.68L68.76 104.68Q65.81 104.68 63.07 103.85Q60.34 103.02 58.57 101.26Q56.81 99.50 55.80 97.01Q54.79 94.53 54.79 91.36L54.79 91.36Q54.79 87.62 56.59 84.59Q58.39 81.57 61.38 79.88Q64.37 78.18 68.47 77.43Q72.58 76.67 77.54 76.96L77.54 76.96Q77.11 71.27 72.65 70.70L72.65 70.70Q71.21 70.55 69.73 70.77Q68.26 70.98 66.85 71.45Q65.45 71.92 64.15 72.53Q62.86 73.14 61.85 73.79L61.85 73.79Q60.34 74.80 59.69 74.80Q59.04 74.80 59.04 73.36L59.04 73.36L59.04 67.38Q59.04 66.45 59.22 66.05Q59.40 65.66 60.26 65.22L60.26 65.22Q62.42 64.14 65.34 63.21Q68.26 62.27 72.22 62.27L72.22 62.27Q79.56 62.27 83.20 66.02Q86.83 69.76 86.83 77.61L86.83 77.61L86.83 94.02Q86.83 94.96 86.83 96.08Q86.83 97.19 86.87 98.34Q86.90 99.50 86.94 100.54Q86.98 101.58 87.05 102.38L87.05 102.38Q87.19 103.82 86.90 103.96Q86.62 104.10 85.90 104.10L85.90 104.10ZM78.26 84.23L78.26 84.23Q74.16 84.30 71.50 84.84Q68.83 85.38 67.21 86.32Q65.59 87.26 65.02 88.55Q64.44 89.85 64.44 91.43L64.44 91.43Q64.44 93.74 65.81 95.00Q67.18 96.26 69.62 96.26L69.62 96.26Q73.51 96.26 75.85 93.41Q78.19 90.57 78.26 84.23ZM106.63 80.34L106.63 102.52Q106.63 103.38 106.34 103.67Q106.06 103.96 105.26 103.96L105.26 103.96L98.57 103.96Q97.70 103.96 97.42 103.60Q97.13 103.24 97.13 102.45L97.13 102.45L97.13 74.30Q97.13 71.56 97.16 68.75Q97.20 65.94 96.98 64.50L96.98 64.50Q96.84 63.71 97.13 63.50Q97.42 63.28 98.42 63.28L98.42 63.28L105.26 63.28Q106.06 63.28 106.27 63.42Q106.49 63.57 106.49 64.22L106.49 64.22L106.49 66.95Q108 65.37 110.41 64.04Q112.82 62.70 115.34 62.70L115.34 62.70Q122.54 62.70 125.89 66.81Q129.24 70.91 129.24 78.76L129.24 78.76L129.24 102.52Q129.24 103.38 128.95 103.67Q128.66 103.96 127.87 103.96L127.87 103.96L121.18 103.96Q119.74 103.96 119.74 102.45L119.74 102.45L119.74 80.20Q119.74 71.49 114.48 71.49L114.48 71.49Q110.81 71.49 108.72 73.86Q106.63 76.24 106.63 80.34L106.63 80.34ZM171.86 104.10L165.38 104.10Q164.59 104.10 164.34 103.89Q164.09 103.67 164.09 103.10L164.09 103.10L164.09 100.36Q163.44 101.37 162.40 102.20Q161.35 103.02 160.13 103.60Q158.90 104.18 157.61 104.54Q156.31 104.90 155.16 104.90L155.16 104.90Q148.10 104.90 144.58 100.72Q141.05 96.54 141.05 88.84L141.05 88.84L141.05 64.94Q141.05 64.14 141.34 63.78Q141.62 63.42 142.42 63.42L142.42 63.42L149.04 63.42Q149.90 63.42 150.19 63.89Q150.48 64.36 150.48 65.01L150.48 65.01L150.48 87.62Q150.48 90.14 150.88 91.76Q151.27 93.38 151.99 94.35Q152.71 95.32 153.76 95.72Q154.80 96.11 156.10 96.11L156.10 96.11Q159.26 96.11 161.46 93.63Q163.66 91.14 163.66 85.89L163.66 85.89L163.66 64.94Q163.66 64.14 163.94 63.78Q164.23 63.42 165.02 63.42L165.02 63.42L171.72 63.42Q172.58 63.42 172.84 63.93Q173.09 64.43 173.09 65.08L173.09 65.08L173.09 93.95Q173.09 96.11 173.16 98.45Q173.23 100.79 173.23 102.59L173.23 102.59Q173.23 103.53 173.05 103.82Q172.87 104.10 171.86 104.10L171.86 104.10ZM237.02 103.96L230.47 103.96Q229.68 103.96 229.32 103.64Q228.96 103.31 228.96 102.45L228.96 102.45L228.96 78.26Q228.96 75.38 227.38 73.61Q225.79 71.85 223.42 71.85L223.42 71.85Q221.62 71.85 220.18 72.68Q218.74 73.50 217.73 74.94Q216.72 76.38 216.18 78.26Q215.64 80.13 215.64 82.14L215.64 82.14L215.64 102.52Q215.64 103.96 214.27 103.96L214.27 103.96L207.50 103.96Q206.71 103.96 206.35 103.64Q205.99 103.31 205.99 102.45L205.99 102.45L205.99 78.26Q205.99 74.87 204.66 73.36Q203.33 71.85 200.81 71.85L200.81 71.85Q197.35 71.85 195.34 74.19Q193.32 76.53 193.32 79.77L193.32 79.77L193.32 102.52Q193.32 103.38 193.03 103.67Q192.74 103.96 191.95 103.96L191.95 103.96L185.26 103.96Q184.39 103.96 184.10 103.60Q183.82 103.24 183.82 102.45L183.82 102.45L183.82 74.30Q183.82 71.56 183.82 68.86Q183.82 66.16 183.67 64.72L183.67 64.72Q183.53 63.93 183.85 63.60Q184.18 63.28 185.26 63.28L185.26 63.28L191.95 63.28Q192.74 63.28 192.96 63.42Q193.18 63.57 193.18 64.22L193.18 64.22L193.18 67.17Q194.76 65.51 197.03 64.25Q199.30 62.99 201.60 62.99L201.60 62.99Q205.06 62.99 208.12 64.79Q211.18 66.59 212.83 69.62L212.83 69.62Q213.77 68.25 214.99 67.02Q216.22 65.80 217.62 64.86Q219.02 63.93 220.64 63.35Q222.26 62.78 223.99 62.78L223.99 62.78Q227.23 62.78 229.90 63.71Q232.56 64.65 234.47 66.45Q236.38 68.25 237.42 70.88Q238.46 73.50 238.46 76.89L238.46 76.89L238.46 102.52Q238.46 103.38 238.14 103.67Q237.82 103.96 237.02 103.96L237.02 103.96ZM313.56 102.16L313.56 102.16Q312.26 102.81 310.25 103.31Q308.23 103.82 305.96 104.14Q303.70 104.46 301.36 104.64Q299.02 104.82 297.07 104.82L297.07 104.82Q291.02 104.82 285.88 102.92Q280.73 101.01 277.02 97.37Q273.31 93.74 271.19 88.41Q269.06 83.08 269.06 76.24L269.06 76.24Q269.06 70.05 271.04 64.79Q273.02 59.54 276.66 55.72Q280.30 51.90 285.48 49.78Q290.66 47.66 297.14 47.66L297.14 47.66Q301.39 47.66 304.99 48.20Q308.59 48.74 311.69 49.67L311.69 49.67Q312.77 50.03 312.95 50.36Q313.13 50.68 312.98 51.33L312.98 51.33L311.90 57.74Q311.76 58.82 311.29 58.85Q310.82 58.89 309.74 58.53L309.74 58.53Q306.50 57.45 303.37 57.02Q300.24 56.58 297.07 56.58L297.07 56.58Q293.11 56.58 289.84 58.02Q286.56 59.46 284.18 62.09Q281.81 64.72 280.48 68.32Q279.14 71.92 279.14 76.24L279.14 76.24Q279.14 80.92 280.48 84.59Q281.81 88.26 284.22 90.82Q286.63 93.38 289.91 94.71Q293.18 96.04 297.07 96.04L297.07 96.04Q299.74 96.04 301.93 95.86Q304.13 95.68 305.28 95.32L305.28 95.32L305.28 82L294.26 82Q292.82 82 292.82 80.56L292.82 80.56L292.82 74.44Q292.82 73 294.34 73L294.34 73L312.77 73Q314.42 73 314.75 73.43Q315.07 73.86 315.07 75.30L315.07 75.30L315.07 99.21Q315.07 100.58 314.71 101.12Q314.35 101.66 313.56 102.16ZM358.42 98.34L358.42 98.34Q355.75 101.73 352.04 103.42Q348.34 105.11 343.80 105.11L343.80 105.11Q339.05 105.11 335.48 103.38Q331.92 101.66 329.51 98.74Q327.10 95.82 325.87 91.94Q324.65 88.05 324.65 83.73L324.65 83.73Q324.65 79.41 325.84 75.52Q327.02 71.63 329.44 68.72Q331.85 65.80 335.45 64.11Q339.05 62.42 343.80 62.42L343.80 62.42Q348.55 62.42 352.15 64.14Q355.75 65.87 358.16 68.79Q360.58 71.70 361.80 75.56Q363.02 79.41 363.02 83.73L363.02 83.73Q363.02 87.98 361.84 91.76Q360.65 95.54 358.42 98.34ZM343.80 70.84L343.80 70.84Q341.42 70.84 339.62 71.96Q337.82 73.07 336.64 74.87Q335.45 76.67 334.84 78.98Q334.22 81.28 334.22 83.73L334.22 83.73Q334.22 86.18 334.84 88.48Q335.45 90.78 336.64 92.62Q337.82 94.46 339.62 95.57Q341.42 96.69 343.80 96.69L343.80 96.69Q346.25 96.69 348.05 95.57Q349.85 94.46 351.04 92.62Q352.22 90.78 352.80 88.48Q353.38 86.18 353.38 83.73L353.38 83.73Q353.38 81.35 352.80 79.05Q352.22 76.74 351.04 74.91Q349.85 73.07 348.05 71.96Q346.25 70.84 343.80 70.84ZM390.67 103.46L390.67 103.46Q389.23 104.10 387.22 104.57Q385.20 105.04 382.61 104.97L382.61 104.97Q379.94 104.90 377.78 103.64Q375.62 102.38 374.62 100.58L374.62 100.58Q373.61 98.49 373.39 95.86Q373.18 93.23 373.18 89.06L373.18 89.06L373.18 72.06L368.06 72.06Q366.70 72.06 366.70 70.62L366.70 70.62L366.70 64.65Q366.70 63.21 368.06 63.21L368.06 63.21L373.18 63.21L373.18 53.63Q373.18 52.19 374.62 52.19L374.62 52.19L381.24 52.19Q382.61 52.19 382.61 53.63L382.61 53.63L382.61 63.21L388.73 63.21Q389.59 63.21 389.84 63.53Q390.10 63.86 390.10 64.65L390.10 64.65L390.10 70.62Q390.10 71.42 389.84 71.74Q389.59 72.06 388.73 72.06L388.73 72.06L382.61 72.06L382.61 88.19Q382.61 90.78 382.61 92.40Q382.61 94.02 382.75 94.53L382.75 94.53Q383.04 95.90 383.98 96.26Q384.91 96.62 385.99 96.47Q387.07 96.33 388.08 95.97Q389.09 95.61 389.66 95.32L389.66 95.32Q390.24 95.03 390.53 95.28Q390.82 95.54 390.89 96.33L390.89 96.33L391.54 101.73Q391.61 102.38 391.46 102.77Q391.32 103.17 390.67 103.46ZM427.90 103.96L421.27 103.96Q420.48 103.96 420.16 103.67Q419.83 103.38 419.83 102.52L419.83 102.52L419.83 79.62Q419.83 70.48 414.43 70.48L414.43 70.48Q411.41 70.48 409.46 71.67Q407.52 72.86 406.66 74.94L406.66 74.94L406.66 102.52Q406.66 103.38 406.30 103.67Q405.94 103.96 405.22 103.96L405.22 103.96L398.59 103.96Q397.80 103.96 397.51 103.67Q397.22 103.38 397.22 102.52L397.22 102.52L397.22 46.00Q397.22 44.56 398.59 44.56L398.59 44.56L405.22 44.56Q406.66 44.56 406.66 46.00L406.66 46.00L406.66 65.44Q408.53 63.86 410.76 62.88Q412.99 61.91 415.01 61.91L415.01 61.91Q422.28 61.91 425.77 66.16Q429.26 70.41 429.26 79.55L429.26 79.55L429.26 102.52Q429.26 103.38 428.94 103.67Q428.62 103.96 427.90 103.96L427.90 103.96ZM444.24 57.45L444.24 57.45Q441.86 57.45 440.28 55.79Q438.70 54.14 438.70 51.76L438.70 51.76Q438.70 49.38 440.24 47.69Q441.79 46.00 444.24 46.00L444.24 46.00Q446.69 46.00 448.27 47.69Q449.86 49.38 449.86 51.76L449.86 51.76Q449.86 54.14 448.27 55.79Q446.69 57.45 444.24 57.45ZM447.70 103.96L440.57 103.96Q439.92 103.96 439.67 103.67Q439.42 103.38 439.42 102.52L439.42 102.52L439.42 65.01Q439.42 64.14 439.63 63.86Q439.85 63.57 440.57 63.57L440.57 63.57L447.70 63.57Q448.42 63.57 448.67 63.86Q448.92 64.14 448.92 65.01L448.92 65.01L448.92 102.52Q448.92 103.38 448.67 103.67Q448.42 103.96 447.70 103.96L447.70 103.96ZM484.92 103.67L484.92 103.67Q484.13 104.03 482.94 104.32Q481.75 104.61 480.35 104.79Q478.94 104.97 477.43 105.00Q475.92 105.04 474.55 104.90L474.55 104.90Q470.02 104.54 466.52 102.81Q463.03 101.08 460.66 98.31Q458.28 95.54 457.06 91.79Q455.83 88.05 455.83 83.66L455.83 83.66Q455.83 79.05 457.27 75.16Q458.71 71.27 461.34 68.46Q463.97 65.66 467.68 64.11Q471.38 62.56 475.92 62.56L475.92 62.56Q478.01 62.56 480.49 62.85Q482.98 63.14 485.06 63.86L485.06 63.86Q485.71 64.07 485.82 64.36Q485.93 64.65 485.86 65.44L485.86 65.44L485.14 70.98Q484.99 71.85 484.67 72.14Q484.34 72.42 483.26 72.06L483.26 72.06Q481.75 71.49 479.59 71.24Q477.43 70.98 475.78 71.06L475.78 71.06Q470.81 71.20 468.11 74.62Q465.41 78.04 465.41 83.66L465.41 83.66Q465.41 89.06 467.96 92.37Q470.52 95.68 475.13 96.18L475.13 96.18Q477.43 96.54 479.70 96.29Q481.97 96.04 483.70 95.46L483.70 95.46Q484.85 95.10 485.10 95.28Q485.35 95.46 485.42 96.26L485.42 96.26L485.86 101.80Q485.93 102.66 485.75 102.99Q485.57 103.31 484.92 103.67ZM544.46 82.79L544.46 85.17Q544.39 86.03 544.07 86.50Q543.74 86.97 542.88 86.97L542.88 86.97L520.34 86.97Q520.85 91.79 523.40 94.10Q525.96 96.40 529.49 96.54L529.49 96.54Q532.80 96.69 535.28 95.90Q537.77 95.10 540.07 93.66L540.07 93.66Q541.08 93.02 541.44 93.30Q541.80 93.59 541.80 94.82L541.80 94.82L541.80 100.22Q541.80 101.01 541.62 101.30Q541.44 101.58 540.79 102.09L540.79 102.09Q538.70 103.53 535.50 104.25Q532.30 104.97 529.20 104.97L529.20 104.97Q520.56 104.97 515.56 99.42Q510.55 93.88 510.55 83.66L510.55 83.66Q510.55 79.84 511.56 76.02Q512.57 72.21 514.80 69.15Q517.03 66.09 520.27 64.18Q523.51 62.27 527.98 62.27L527.98 62.27Q532.51 62.27 535.64 63.93Q538.78 65.58 540.76 68.39Q542.74 71.20 543.60 74.91Q544.46 78.62 544.46 82.79L544.46 82.79ZM528.19 70.62L528.19 70.62Q526.68 70.62 525.38 71.34Q524.09 72.06 523.12 73.22Q522.14 74.37 521.42 75.88Q520.70 77.39 520.49 79.05L520.49 79.05L535.10 79.05Q535.10 77.61 534.64 76.10Q534.17 74.58 533.34 73.40Q532.51 72.21 531.22 71.42Q529.92 70.62 528.19 70.62ZM565.20 90.42L557.57 103.10Q557.21 103.67 556.96 103.78Q556.70 103.89 556.34 103.89L556.34 103.89L548.21 103.89Q547.42 103.89 547.34 103.56Q547.27 103.24 547.92 102.23L547.92 102.23L560.09 82.72L548.71 65.08Q547.99 64.00 548.14 63.64Q548.28 63.28 549.50 63.28L549.50 63.28L557.21 63.28Q558.07 63.28 558.50 64.00L558.50 64.00L565.20 75.02L571.90 64.00Q572.33 63.28 573.19 63.28L573.19 63.28L580.90 63.28Q582.12 63.28 582.26 63.64Q582.41 64.00 581.69 65.08L581.69 65.08L570.31 82.72L582.48 102.23Q583.13 103.24 583.06 103.56Q582.98 103.89 582.19 103.89L582.19 103.89L574.06 103.89Q573.70 103.89 573.44 103.78Q573.19 103.67 572.83 103.10L572.83 103.10L565.20 90.42ZM608.83 103.46L608.83 103.46Q607.39 104.10 605.38 104.57Q603.36 105.04 600.77 104.97L600.77 104.97Q598.10 104.90 595.94 103.64Q593.78 102.38 592.78 100.58L592.78 100.58Q591.77 98.49 591.55 95.86Q591.34 93.23 591.34 89.06L591.34 89.06L591.34 72.06L586.22 72.06Q584.86 72.06 584.86 70.62L584.86 70.62L584.86 64.65Q584.86 63.21 586.22 63.21L586.22 63.21L591.34 63.21L591.34 53.63Q591.34 52.19 592.78 52.19L592.78 52.19L599.40 52.19Q600.77 52.19 600.77 53.63L600.77 53.63L600.77 63.21L606.89 63.21Q607.75 63.21 608.00 63.53Q608.26 63.86 608.26 64.65L608.26 64.65L608.26 70.62Q608.26 71.42 608.00 71.74Q607.75 72.06 606.89 72.06L606.89 72.06L600.77 72.06L600.77 88.19Q600.77 90.78 600.77 92.40Q600.77 94.02 600.91 94.53L600.91 94.53Q601.20 95.90 602.14 96.26Q603.07 96.62 604.15 96.47Q605.23 96.33 606.24 95.97Q607.25 95.61 607.82 95.32L607.82 95.32Q608.40 95.03 608.69 95.28Q608.98 95.54 609.05 96.33L609.05 96.33L609.70 101.73Q609.77 102.38 609.62 102.77Q609.48 103.17 608.83 103.46ZM634.46 72.28L634.46 72.28Q633.10 71.70 631.94 71.60Q630.79 71.49 629.93 71.78L629.93 71.78Q628.20 72.35 627.16 73.65Q626.11 74.94 625.57 76.67Q625.03 78.40 624.89 80.27Q624.74 82.14 624.74 83.87L624.74 83.87L624.74 102.45Q624.74 103.31 624.49 103.64Q624.24 103.96 623.45 103.96L623.45 103.96L616.54 103.96Q615.74 103.96 615.53 103.67Q615.31 103.38 615.31 102.38L615.31 102.38L615.31 73.86Q615.31 71.56 615.24 69.04Q615.17 66.52 615.17 64.86L615.17 64.86Q615.17 63.93 615.46 63.64Q615.74 63.35 616.54 63.35L616.54 63.35L623.45 63.35Q624.53 63.35 624.53 64.50L624.53 64.50L624.53 67.24Q625.46 65.87 626.90 64.58Q628.34 63.28 629.93 62.99L629.93 62.99Q631.44 62.70 632.92 62.81Q634.39 62.92 635.18 63.50L635.18 63.50Q635.54 63.78 635.65 64.04Q635.76 64.29 635.76 64.86L635.76 64.86L635.76 71.13Q635.76 71.92 635.47 72.28Q635.18 72.64 634.46 72.28ZM669.38 104.10L662.76 104.10Q662.11 104.10 661.93 103.96Q661.75 103.82 661.75 103.10L661.75 103.10L661.75 100Q660.53 101.94 657.76 103.31Q654.98 104.68 652.25 104.68L652.25 104.68Q649.30 104.68 646.56 103.85Q643.82 103.02 642.06 101.26Q640.30 99.50 639.29 97.01Q638.28 94.53 638.28 91.36L638.28 91.36Q638.28 87.62 640.08 84.59Q641.88 81.57 644.87 79.88Q647.86 78.18 651.96 77.43Q656.06 76.67 661.03 76.96L661.03 76.96Q660.60 71.27 656.14 70.70L656.14 70.70Q654.70 70.55 653.22 70.77Q651.74 70.98 650.34 71.45Q648.94 71.92 647.64 72.53Q646.34 73.14 645.34 73.79L645.34 73.79Q643.82 74.80 643.18 74.80Q642.53 74.80 642.53 73.36L642.53 73.36L642.53 67.38Q642.53 66.45 642.71 66.05Q642.89 65.66 643.75 65.22L643.75 65.22Q645.91 64.14 648.83 63.21Q651.74 62.27 655.70 62.27L655.70 62.27Q663.05 62.27 666.68 66.02Q670.32 69.76 670.32 77.61L670.32 77.61L670.32 94.02Q670.32 94.96 670.32 96.08Q670.32 97.19 670.36 98.34Q670.39 99.50 670.43 100.54Q670.46 101.58 670.54 102.38L670.54 102.38Q670.68 103.82 670.39 103.96Q670.10 104.10 669.38 104.10L669.38 104.10ZM661.75 84.23L661.75 84.23Q657.65 84.30 654.98 84.84Q652.32 85.38 650.70 86.32Q649.08 87.26 648.50 88.55Q647.93 89.85 647.93 91.43L647.93 91.43Q647.93 93.74 649.30 95.00Q650.66 96.26 653.11 96.26L653.11 96.26Q657 96.26 659.34 93.41Q661.68 90.57 661.75 84.23ZM710.28 100.36L710.28 102.74Q710.28 103.53 710.03 103.78Q709.78 104.03 709.06 104.03L709.06 104.03L702.36 104.03Q701.50 104.03 701.17 103.78Q700.85 103.53 700.85 102.52L700.85 102.52L700.85 45.86Q700.85 44.85 701.14 44.60Q701.42 44.34 702.22 44.34L702.22 44.34L709.06 44.34Q709.92 44.34 710.14 44.60Q710.35 44.85 710.35 45.86L710.35 45.86L710.35 65.94Q711.86 64.29 714.31 63.14Q716.76 61.98 719.06 61.98L719.06 61.98Q722.95 61.98 726.01 63.46Q729.07 64.94 731.20 67.67Q733.32 70.41 734.47 74.33Q735.62 78.26 735.62 83.15L735.62 83.15Q735.62 88.12 734.51 92.12Q733.39 96.11 731.30 98.88Q729.22 101.66 726.16 103.13Q723.10 104.61 719.14 104.61L719.14 104.61Q717.84 104.61 716.54 104.25Q715.25 103.89 714.06 103.31Q712.87 102.74 711.86 101.94Q710.86 101.15 710.28 100.36L710.28 100.36ZM718.06 70.62L718.06 70.62Q716.40 70.62 715.00 71.31Q713.59 71.99 712.51 73.47Q711.43 74.94 710.82 77.32Q710.21 79.70 710.21 83.15L710.21 83.15Q710.21 86.46 710.89 88.88Q711.58 91.29 712.66 92.84Q713.74 94.38 715.14 95.14Q716.54 95.90 718.06 95.90L718.06 95.90Q721.51 95.90 723.74 92.94Q725.98 89.99 725.98 83.15L725.98 83.15Q725.98 76.67 723.82 73.65Q721.66 70.62 718.06 70.62ZM775.51 98.34L775.51 98.34Q772.85 101.73 769.14 103.42Q765.43 105.11 760.90 105.11L760.90 105.11Q756.14 105.11 752.58 103.38Q749.02 101.66 746.60 98.74Q744.19 95.82 742.97 91.94Q741.74 88.05 741.74 83.73L741.74 83.73Q741.74 79.41 742.93 75.52Q744.12 71.63 746.53 68.72Q748.94 65.80 752.54 64.11Q756.14 62.42 760.90 62.42L760.90 62.42Q765.65 62.42 769.25 64.14Q772.85 65.87 775.26 68.79Q777.67 71.70 778.90 75.56Q780.12 79.41 780.12 83.73L780.12 83.73Q780.12 87.98 778.93 91.76Q777.74 95.54 775.51 98.34ZM760.90 70.84L760.90 70.84Q758.52 70.84 756.72 71.96Q754.92 73.07 753.73 74.87Q752.54 76.67 751.93 78.98Q751.32 81.28 751.32 83.73L751.32 83.73Q751.32 86.18 751.93 88.48Q752.54 90.78 753.73 92.62Q754.92 94.46 756.72 95.57Q758.52 96.69 760.90 96.69L760.90 96.69Q763.34 96.69 765.14 95.57Q766.94 94.46 768.13 92.62Q769.32 90.78 769.90 88.48Q770.47 86.18 770.47 83.73L770.47 83.73Q770.47 81.35 769.90 79.05Q769.32 76.74 768.13 74.91Q766.94 73.07 765.14 71.96Q763.34 70.84 760.90 70.84ZM795.24 103.89L788.11 103.89Q787.46 103.89 787.21 103.60Q786.96 103.31 786.96 102.45L786.96 102.45L786.96 46.22Q786.96 45.35 787.18 45.06Q787.39 44.78 788.11 44.78L788.11 44.78L795.24 44.78Q795.96 44.78 796.21 45.06Q796.46 45.35 796.46 46.22L796.46 46.22L796.46 102.45Q796.46 103.31 796.21 103.60Q795.96 103.89 795.24 103.89L795.24 103.89ZM829.22 102.74L829.22 100.36Q828.65 101.15 827.64 101.94Q826.63 102.74 825.44 103.31Q824.26 103.89 822.96 104.25Q821.66 104.61 820.37 104.61L820.37 104.61Q812.45 104.61 808.16 98.88Q803.88 93.16 803.88 83.15L803.88 83.15Q803.88 78.26 805.03 74.33Q806.18 70.41 808.31 67.67Q810.43 64.94 813.49 63.46Q816.55 61.98 820.44 61.98L820.44 61.98Q822.74 61.98 825.19 63.14Q827.64 64.29 829.15 65.94L829.15 65.94L829.15 45.86Q829.15 44.85 829.37 44.60Q829.58 44.34 830.45 44.34L830.45 44.34L837.29 44.34Q838.08 44.34 838.37 44.60Q838.66 44.85 838.66 45.86L838.66 45.86L838.66 102.52Q838.66 103.53 838.33 103.78Q838.01 104.03 837.14 104.03L837.14 104.03L830.45 104.03Q829.73 104.03 829.48 103.78Q829.22 103.53 829.22 102.74L829.22 102.74ZM821.45 70.62L821.45 70.62Q817.85 70.62 815.69 73.65Q813.53 76.67 813.53 83.15L813.53 83.15Q813.53 89.99 815.76 92.94Q817.99 95.90 821.45 95.90L821.45 95.90Q822.96 95.90 824.36 95.14Q825.77 94.38 826.85 92.84Q827.93 91.29 828.61 88.88Q829.30 86.46 829.30 83.15L829.30 83.15Q829.30 79.70 828.68 77.32Q828.07 74.94 826.99 73.47Q825.91 71.99 824.47 71.31Q823.03 70.62 821.45 70.62Z"/></svg>