<svg xmlns="http://www.w3.org/2000/svg" viewBox="0.140625 45.0859375 574.171875 55.6875"><path d="M39.48 55.42L40.08 52.43L54.07 52.43L54.35 55.42L49.39 56.13L43.21 100L33.12 100L16.10 57.18L15.54 57.18L10.02 96.31L14.98 97.01L14.38 100L0.42 100L0.14 97.01L5.10 96.31L10.76 56.13L5.80 55.42L6.40 52.43L21.38 52.43L38.39 95.22L38.95 95.22L44.44 56.13L39.48 55.42ZM68.94 100.77L68.94 100.77Q61.80 100.77 58.69 96.80Q55.58 92.83 56.74 84.92L56.74 84.92L57.23 81.65Q58.64 72.12 63.84 66.60Q69.05 61.08 76.61 61.08L76.61 61.08Q83.85 61.08 86.85 65.13Q89.86 69.17 88.73 77.25L88.73 77.25L88.28 80.59Q87.01 89.52 81.62 95.15Q76.22 100.77 68.94 100.77ZM81.77 81.96L82.34 77.78Q83.25 71.14 81.53 67.69Q79.80 64.25 75.48 64.25L75.48 64.25Q73.69 64.25 71.95 64.74Q70.21 65.23 68.84 65.97L68.84 65.97Q67.08 68.61 65.71 72.37Q64.34 76.13 63.74 80.24L63.74 80.24L63.14 84.43Q62.30 90.82 64.39 94.22Q66.48 97.61 70.07 97.61L70.07 97.61Q71.61 97.61 73.28 97.17Q74.95 96.73 76.71 95.85L76.71 95.85Q78.33 93.74 79.72 90.23Q81.11 86.71 81.77 81.96L81.77 81.96ZM94.96 64.81L95.34 61.86L101.53 61.86L102.55 54.58L109.34 51.66L107.89 61.86L118.69 61.86L118.30 64.81L107.47 64.81L104.27 87.77Q103.61 92.58 104.55 95.10Q105.50 97.61 108.25 97.61L108.25 97.61Q109.72 97.61 111.64 96.85Q113.55 96.10 115.03 95.15L115.03 95.15L115.03 98.17Q113.10 99.37 110.79 100.07Q108.49 100.77 106.14 100.77L106.14 100.77Q100.69 100.77 98.84 97.64Q97.00 94.52 97.88 88.26L97.88 88.26L101.11 64.81L94.96 64.81ZM123.89 64.84L124.49 61.86L132.61 61.08L135.46 63.82L130.92 96.31L135.88 97.01L135.28 100L127.20 100.77L124.35 98.03L128.85 65.55L123.89 64.84ZM130.22 50.43L130.22 50.43Q130.22 48.60 130.94 47.23Q131.66 45.86 132.68 45.86L132.68 45.86Q134.47 45.86 135.86 46.58Q137.25 47.30 137.25 48.32L137.25 48.32Q137.25 50.25 136.51 51.57Q135.77 52.89 134.79 52.89L134.79 52.89Q132.86 52.89 131.54 52.17Q130.22 51.45 130.22 50.43ZM173.64 62.91L171.67 71.24L168.64 71.59L168.64 65.23Q167.52 64.74 166.08 64.49Q164.64 64.25 163.05 64.25L163.05 64.25Q161.26 64.25 159.54 64.74Q157.82 65.23 156.55 65.97L156.55 65.97Q154.65 68.71 153.33 72.24Q152.02 75.78 151.31 80.24L151.31 80.24L150.71 84.43Q149.84 90.82 152.03 94.22Q154.23 97.61 158.06 97.61L158.06 97.61Q160.31 97.61 163.00 96.75Q165.69 95.89 168.01 94.45L168.01 94.45L168.01 97.47Q165.76 98.98 162.63 99.88Q159.50 100.77 156.16 100.77L156.16 100.77Q149.31 100.77 146.27 96.87Q143.23 92.97 144.32 84.92L144.32 84.92L144.81 81.65Q146.25 71.91 151.42 66.50Q156.59 61.08 163.83 61.08L163.83 61.08Q166.64 61.08 169.21 61.54Q171.77 62.00 173.64 62.91L173.64 62.91ZM178.84 64.84L179.44 61.86L187.56 61.08L190.41 63.82L185.87 96.31L190.83 97.01L190.23 100L182.14 100.77L179.30 98.03L183.80 65.55L178.84 64.84ZM185.17 50.43L185.17 50.43Q185.17 48.60 185.89 47.23Q186.61 45.86 187.63 45.86L187.63 45.86Q189.42 45.86 190.81 46.58Q192.20 47.30 192.20 48.32L192.20 48.32Q192.20 50.25 191.46 51.57Q190.72 52.89 189.74 52.89L189.74 52.89Q187.80 52.89 186.49 52.17Q185.17 51.45 185.17 50.43ZM232.31 97.01L231.71 100L223.63 100.77L220.78 98.03L221.70 91.35Q218.95 95.64 215.40 98.21Q211.85 100.77 208.16 100.77L208.16 100.77Q202.36 100.77 200.36 97.43Q198.35 94.09 199.34 86.89L199.34 86.89L200.25 80.28Q201.55 71.42 206.49 66.25Q211.43 61.08 218.53 61.08L218.53 61.08Q221.38 61.08 224.84 61.80Q228.30 62.52 231.86 63.82L231.86 63.82L227.32 96.31L232.31 97.01ZM206.75 79.19L206.09 83.79Q205.14 90.54 205.98 93.76Q206.82 96.98 210.30 96.98L210.30 96.98Q213.26 96.98 216.46 94.13Q219.66 91.28 222.33 86.89L222.33 86.89L225.32 65.20Q223.70 64.63 221.84 64.33Q219.97 64.04 218.32 64.04L218.32 64.04Q216.39 64.04 214.51 64.53Q212.63 65.02 211.18 65.79L211.18 65.79Q209.78 68.11 208.63 71.40Q207.49 74.69 206.75 79.19L206.75 79.19ZM268.24 96.31L273.94 55.91L263.21 55.91L260.58 62.63L257.48 62.63L259.45 52.43L295.73 52.43L294.79 62.63L292.01 62.63L290.95 55.91L280.62 55.91L274.92 96.31L279.88 97.01L279.28 100L263.57 100L263.29 97.01L268.24 96.31ZM324.39 70.64L324.39 70.64Q323.61 76.23 319.50 79.47Q315.39 82.70 309.30 82.70L309.30 82.70Q307.16 82.70 305.37 82.60Q303.57 82.49 302.45 82.35L302.45 82.35L302.17 84.43Q301.29 90.82 303.40 94.22Q305.51 97.61 309.16 97.61L309.16 97.61Q311.31 97.61 313.77 96.68Q316.23 95.75 318.06 94.45L318.06 94.45L318.06 97.47Q316.13 98.91 313.29 99.84Q310.46 100.77 307.27 100.77L307.27 100.77Q300.59 100.77 297.62 96.84Q294.64 92.90 295.77 84.92L295.77 84.92L296.23 81.65Q297.53 72.23 302.33 66.65Q307.13 61.08 314.23 61.08L314.23 61.08Q319.89 61.08 322.45 63.65Q325.02 66.21 324.39 70.64ZM307.86 65.97L307.86 65.97Q306.25 68.36 304.89 71.95Q303.54 75.53 302.87 79.50L302.87 79.50Q304.84 79.61 306.76 79.68Q308.67 79.75 310.50 79.75L310.50 79.75Q312.01 79.75 313.44 79.38Q314.86 79.01 315.98 78.34L315.98 78.34Q316.69 76.90 317.13 75.37Q317.57 73.84 317.85 71.80L317.85 71.80Q318.34 68.25 317.16 66.25Q315.98 64.25 313.10 64.25L313.10 64.25Q311.84 64.25 310.46 64.70Q309.09 65.16 307.86 65.97ZM359.79 97.01L359.19 100L351.77 100.77L348.93 98.03L342.35 84.14Q339.26 87.45 336.67 90.58Q334.09 93.71 332.23 96.55L332.23 96.55L335.67 97.01L335.07 100L329.87 100.77L326.21 97.33Q326.57 96.34 327.38 95.08Q328.18 93.81 329.31 92.41Q330.43 91 331.80 89.47Q333.18 87.94 334.65 86.41Q336.13 84.88 337.66 83.42Q339.19 81.96 340.66 80.63L340.66 80.63L333.53 65.55L328.64 64.84L329.24 61.86L336.66 61.08L339.50 63.82L345.69 76.94Q351.49 70.75 354.90 65.34L354.90 65.34L351.39 64.84L351.98 61.86L357.19 61.08L360.84 64.53Q360.32 65.97 358.95 67.94Q357.57 69.91 355.71 72.07Q353.85 74.23 351.69 76.45Q349.52 78.66 347.41 80.59L347.41 80.59L354.87 96.34L359.79 97.01ZM364.50 64.81L364.89 61.86L371.07 61.86L372.09 54.58L378.88 51.66L377.44 61.86L388.23 61.86L387.84 64.81L377.02 64.81L373.82 87.77Q373.15 92.58 374.10 95.10Q375.05 97.61 377.79 97.61L377.79 97.61Q379.27 97.61 381.18 96.85Q383.10 96.10 384.57 95.15L384.57 95.15L384.57 98.17Q382.64 99.37 380.34 100.07Q378.04 100.77 375.68 100.77L375.68 100.77Q370.23 100.77 368.38 97.64Q366.54 94.52 367.42 88.26L367.42 88.26L370.65 64.81L364.50 64.81ZM412.77 64.84L413.37 61.86L421.49 61.08L424.34 63.82L419.80 96.31L424.76 97.01L424.16 100L416.07 100.77L413.23 98.03L417.73 65.55L412.77 64.84ZM419.10 50.43L419.10 50.43Q419.10 48.60 419.82 47.23Q420.54 45.86 421.56 45.86L421.56 45.86Q423.35 45.86 424.74 46.58Q426.13 47.30 426.13 48.32L426.13 48.32Q426.13 50.25 425.39 51.57Q424.65 52.89 423.67 52.89L423.67 52.89Q421.73 52.89 420.42 52.17Q419.10 51.45 419.10 50.43ZM433.13 64.81L433.51 61.86L439.70 61.86L440.72 54.58L447.50 51.66L446.06 61.86L456.86 61.86L456.47 64.81L445.64 64.81L442.44 87.77Q441.77 92.58 442.72 95.10Q443.67 97.61 446.41 97.61L446.41 97.61Q447.89 97.61 449.81 96.85Q451.72 96.10 453.20 95.15L453.20 95.15L453.20 98.17Q451.27 99.37 448.96 100.07Q446.66 100.77 444.30 100.77L444.30 100.77Q438.86 100.77 437.01 97.64Q435.16 94.52 436.04 88.26L436.04 88.26L439.28 64.81L433.13 64.81ZM493.14 97.01L492.54 100L484.45 100.77L481.61 98.03L482.52 91.35Q479.78 95.64 476.23 98.21Q472.68 100.77 468.98 100.77L468.98 100.77Q463.18 100.77 461.18 97.43Q459.18 94.09 460.16 86.89L460.16 86.89L461.07 80.28Q462.38 71.42 467.31 66.25Q472.25 61.08 479.36 61.08L479.36 61.08Q482.20 61.08 485.67 61.80Q489.13 62.52 492.68 63.82L492.68 63.82L488.14 96.31L493.14 97.01ZM467.58 79.19L466.91 83.79Q465.96 90.54 466.80 93.76Q467.65 96.98 471.13 96.98L471.13 96.98Q474.08 96.98 477.28 94.13Q480.48 91.28 483.15 86.89L483.15 86.89L486.14 65.20Q484.52 64.63 482.66 64.33Q480.80 64.04 479.14 64.04L479.14 64.04Q477.21 64.04 475.33 64.53Q473.45 65.02 472.01 65.79L472.01 65.79Q470.60 68.11 469.46 71.40Q468.32 74.69 467.58 79.19L467.58 79.19ZM504.42 48.85L505.02 45.86L513.14 45.09L515.99 47.83L509.20 96.31L514.16 97.01L513.56 100L505.48 100.77L502.63 98.03L509.38 49.55L504.42 48.85ZM524.57 64.84L525.16 61.86L533.29 61.08L536.13 63.82L531.60 96.31L536.55 97.01L535.96 100L527.87 100.77L525.02 98.03L529.52 65.55L524.57 64.84ZM530.89 50.43L530.89 50.43Q530.89 48.60 531.62 47.23Q532.34 45.86 533.36 45.86L533.36 45.86Q535.15 45.86 536.54 46.58Q537.93 47.30 537.93 48.32L537.93 48.32Q537.93 50.25 537.19 51.57Q536.45 52.89 535.46 52.89L535.46 52.89Q533.53 52.89 532.21 52.17Q530.89 51.45 530.89 50.43ZM574.31 62.91L572.34 71.24L569.32 71.59L569.32 65.23Q568.20 64.74 566.75 64.49Q565.31 64.25 563.73 64.25L563.73 64.25Q561.94 64.25 560.21 64.74Q558.49 65.23 557.23 65.97L557.23 65.97Q555.33 68.71 554.01 72.24Q552.69 75.78 551.99 80.24L551.99 80.24L551.39 84.43Q550.51 90.82 552.71 94.22Q554.91 97.61 558.74 97.61L558.74 97.61Q560.99 97.61 563.68 96.75Q566.37 95.89 568.69 94.45L568.69 94.45L568.69 97.47Q566.44 98.98 563.31 99.88Q560.18 100.77 556.84 100.77L556.84 100.77Q549.98 100.77 546.94 96.87Q543.90 92.97 544.99 84.92L544.99 84.92L545.48 81.65Q546.93 71.91 552.09 66.50Q557.26 61.08 564.50 61.08L564.50 61.08Q567.32 61.08 569.88 61.54Q572.45 62.00 574.31 62.91L574.31 62.91Z"/></svg>