<svg xmlns="http://www.w3.org/2000/svg" viewBox="6.984000000000001 42.61599999999999 740.6640000000001 58.320000000000014"><path d="M7 100L15 100L15 75C15 69 14 63 14 58L14 58L20 69L37 100L46 100L46 47L38 47L38 72C38 77 39 84 39 89L39 89L33 78L16 47L7 47ZM75 101C85 101 94 93 94 80C94 67 85 59 75 59C65 59 56 67 56 80C56 93 65 101 75 101ZM75 94C69 94 65 89 65 80C65 72 69 66 75 66C81 66 85 72 85 80C85 89 81 94 75 94ZM115 101C118 101 121 100 123 99L121 93C120 94 118 94 117 94C113 94 111 92 111 87L111 67L122 67L122 60L111 60L111 49L104 49L103 60L97 61L97 67L103 67L103 87C103 95 106 101 115 101ZM145 101C155 101 163 93 163 80C163 67 155 59 145 59C135 59 126 67 126 80C126 93 135 101 145 101ZM145 94C139 94 135 89 135 80C135 72 139 66 145 66C151 66 155 72 155 80C155 89 151 94 145 94ZM205 101C217 101 224 94 224 86C224 78 219 74 213 71L206 68C201 66 197 65 197 60C197 56 201 53 206 53C211 53 214 55 218 58L222 53C218 49 212 46 206 46C196 46 189 52 189 61C189 68 194 72 200 75L207 78C212 80 215 81 215 86C215 91 212 94 205 94C200 94 195 91 191 87L186 93C191 98 198 101 205 101ZM242 101C247 101 251 99 255 95L255 95L256 100L263 100L263 76C263 66 258 59 248 59C242 59 237 62 232 65L236 70C239 68 243 66 247 66C253 66 254 70 255 75C238 77 231 81 231 89C231 96 236 101 242 101ZM245 94C241 94 239 93 239 89C239 84 243 81 255 80L255 90C251 93 248 94 245 94ZM275 100L283 100L283 72C286 68 289 67 292 67C297 67 299 69 299 76L299 100L307 100L307 75C307 65 304 59 295 59C290 59 286 62 282 66L282 66L281 60L275 60ZM330 101C340 101 345 96 345 89C345 81 339 79 334 77C329 75 325 74 325 71C325 68 327 66 331 66C335 66 338 67 340 69L344 64C341 62 337 59 331 59C323 59 317 64 317 71C317 78 323 80 329 83C333 84 337 86 337 89C337 92 335 95 330 95C326 95 323 93 319 90L315 95C319 99 325 101 330 101ZM381 101C392 101 397 93 397 84L397 47L389 47L389 83C389 91 386 94 381 94C377 94 374 92 372 88L366 92C369 98 374 101 381 101ZM411 100L419 100L419 80L427 80C438 80 447 75 447 63C447 51 438 47 427 47L411 47ZM419 73L419 54L426 54C434 54 439 56 439 63C439 70 435 73 426 73ZM473 100L481 100L481 72C484 68 487 67 490 67C494 67 496 69 496 76L496 100L505 100L505 72C508 68 511 67 514 67C518 67 520 69 520 76L520 100L528 100L528 75C528 65 525 59 516 59C511 59 507 62 503 67C502 62 498 59 492 59C488 59 484 62 480 66L480 66L479 60L473 60ZM557 101C562 101 567 99 570 97L567 92C565 93 562 94 558 94C551 94 546 90 546 82L571 82C572 81 572 80 572 78C572 67 566 59 556 59C546 59 538 67 538 80C538 93 546 101 557 101ZM546 77C546 70 551 66 556 66C562 66 565 70 565 77ZM595 101C599 101 603 99 606 96L607 96L607 100L614 100L614 43L606 43L606 57L606 64C603 61 600 59 595 59C587 59 578 67 578 80C578 93 585 101 595 101ZM597 94C591 94 587 89 587 80C587 72 591 66 597 66C600 66 603 67 606 70L606 89C603 93 600 94 597 94ZM626 100L635 100L635 60L626 60ZM631 53C634 53 636 51 636 48C636 45 634 43 631 43C628 43 625 45 625 48C625 51 628 53 631 53ZM659 101C664 101 668 98 672 94L672 94L673 100L679 100L679 60L671 60L671 88C668 92 665 94 662 94C657 94 655 91 655 84L655 60L647 60L647 85C647 95 650 101 659 101ZM692 100L700 100L700 72C703 68 706 67 709 67C713 67 716 69 716 76L716 100L724 100L724 72C727 68 730 67 733 67C737 67 739 69 739 76L739 100L748 100L748 75C748 65 744 59 735 59C731 59 726 62 723 67C721 62 718 59 712 59C707 59 703 62 699 66L699 66L699 60L692 60Z"/></svg>