<svg xmlns="http://www.w3.org/2000/svg" viewBox="6.984000000000001 42.61599999999999 749.3760000000001 58.320000000000014"><path d="M7 100L15 100L15 75C15 69 14 63 14 58L14 58L20 69L37 100L46 100L46 47L38 47L38 72C38 77 39 84 39 89L39 89L33 78L16 47L7 47ZM75 101C85 101 94 93 94 80C94 67 85 59 75 59C65 59 56 67 56 80C56 93 65 101 75 101ZM75 94C69 94 65 89 65 80C65 72 69 66 75 66C81 66 85 72 85 80C85 89 81 94 75 94ZM115 101C118 101 121 100 123 99L121 93C120 94 118 94 117 94C113 94 111 92 111 87L111 67L122 67L122 60L111 60L111 49L104 49L103 60L97 61L97 67L103 67L103 87C103 95 106 101 115 101ZM145 101C155 101 163 93 163 80C163 67 155 59 145 59C135 59 126 67 126 80C126 93 135 101 145 101ZM145 94C139 94 135 89 135 80C135 72 139 66 145 66C151 66 155 72 155 80C155 89 151 94 145 94ZM205 101C217 101 224 94 224 86C224 78 219 74 213 71L206 68C201 66 197 65 197 60C197 56 201 53 206 53C211 53 214 55 218 58L222 53C218 49 212 46 206 46C196 46 189 52 189 61C189 68 194 72 200 75L207 78C212 80 215 81 215 86C215 91 212 94 205 94C200 94 195 91 191 87L186 93C191 98 198 101 205 101ZM242 101C247 101 251 99 255 95L255 95L256 100L263 100L263 76C263 66 258 59 248 59C242 59 237 62 232 65L236 70C239 68 243 66 247 66C253 66 254 70 255 75C238 77 231 81 231 89C231 96 236 101 242 101ZM245 94C241 94 239 93 239 89C239 84 243 81 255 80L255 90C251 93 248 94 245 94ZM275 100L283 100L283 72C286 68 289 67 292 67C297 67 299 69 299 76L299 100L307 100L307 75C307 65 304 59 295 59C290 59 286 62 282 66L282 66L281 60L275 60ZM330 101C340 101 345 96 345 89C345 81 339 79 334 77C329 75 325 74 325 71C325 68 327 66 331 66C335 66 338 67 340 69L344 64C341 62 337 59 331 59C323 59 317 64 317 71C317 78 323 80 329 83C333 84 337 86 337 89C337 92 335 95 330 95C326 95 323 93 319 90L315 95C319 99 325 101 330 101ZM371 100L379 100L379 84L387 74L402 100L412 100L393 67L409 47L400 47L380 72L379 72L379 47L371 47ZM427 54L435 54C443 54 447 56 447 62C447 69 443 72 435 72L427 72ZM457 100L444 78C451 75 455 71 455 62C455 51 447 47 436 47L419 47L419 100L427 100L427 79L436 79L448 100ZM481 100L490 100L490 72C493 68 496 67 498 67C503 67 505 69 505 76L505 100L513 100L513 72C517 68 520 67 522 67C527 67 529 69 529 76L529 100L537 100L537 75C537 65 533 59 525 59C520 59 516 62 512 67C510 62 507 59 501 59C496 59 492 62 489 66L489 66L488 60L481 60ZM566 101C571 101 575 99 579 97L576 92C573 93 570 94 567 94C560 94 555 90 554 82L580 82C580 81 581 80 581 78C581 67 575 59 564 59C555 59 546 67 546 80C546 93 555 101 566 101ZM554 77C555 70 560 66 565 66C570 66 573 70 573 77ZM604 101C608 101 612 99 615 96L615 96L616 100L623 100L623 43L614 43L614 57L615 64C612 61 609 59 604 59C595 59 587 67 587 80C587 93 594 101 604 101ZM605 94C599 94 596 89 596 80C596 72 600 66 606 66C609 66 611 67 614 70L614 89C612 93 609 94 605 94ZM635 100L643 100L643 60L635 60ZM639 53C642 53 645 51 645 48C645 45 642 43 639 43C636 43 634 45 634 48C634 51 636 53 639 53ZM667 101C673 101 677 98 680 94L681 94L681 100L688 100L688 60L680 60L680 88C676 92 674 94 670 94C666 94 664 91 664 84L664 60L655 60L655 85C655 95 659 101 667 101ZM700 100L709 100L709 72C712 68 715 67 718 67C722 67 724 69 724 76L724 100L733 100L733 72C736 68 739 67 741 67C746 67 748 69 748 76L748 100L756 100L756 75C756 65 752 59 744 59C739 59 735 62 731 67C730 62 726 59 720 59C715 59 712 62 708 66L708 66L707 60L700 60Z"/></svg>