<svg xmlns="http://www.w3.org/2000/svg" viewBox="1.86328125 45.296875 701.9296875 55.40625"><path d="M54.70 48.60L43.84 100L31.82 100L19.30 61.12L18.95 61.12L18.67 63.19Q17.72 70.71 16.63 75.81L16.63 75.81L11.53 100L1.86 100L12.73 48.60L25.28 48.60L37.23 86.46L37.51 86.46Q38.74 78.63 39.90 72.93L39.90 72.93L45.07 48.60L54.70 48.60ZM82.65 75.53L82.65 75.53Q82.65 68.61 77.63 68.61L77.63 68.61Q74.99 68.61 72.90 70.75Q70.80 72.89 69.49 77.04Q68.17 81.19 68.17 85.59L68.17 85.59Q68.17 92.09 73.44 92.09L73.44 92.09Q76.08 92.09 78.19 89.93Q80.30 87.77 81.47 83.92Q82.65 80.07 82.65 75.53ZM93.30 75.53L93.30 75.53Q93.30 82.95 90.83 88.68Q88.35 94.41 83.67 97.56Q79.00 100.70 72.56 100.70L72.56 100.70Q65.71 100.70 61.61 96.57Q57.52 92.44 57.52 85.59L57.52 85.59Q57.52 78.10 60.03 72.24Q62.54 66.39 67.29 63.17Q72.04 59.96 78.40 59.96L78.40 59.96Q85.29 59.96 89.30 64.11Q93.30 68.25 93.30 75.53ZM114.54 92.16L114.54 92.16Q116.82 92.16 120.23 90.93L120.23 90.93L120.23 98.84Q116.33 100.70 110.88 100.70L110.88 100.70Q105.61 100.70 103.13 98.49Q100.65 96.27 100.65 91.63L100.65 91.63Q100.65 89.88 101.07 87.70L101.07 87.70L105.12 68.75L99.77 68.75L100.79 63.58L107.68 60.63L112.32 52.33L119.14 52.33L117.42 60.70L127.37 60.70L125.61 68.75L115.70 68.75L111.66 87.70Q111.45 88.75 111.45 89.56L111.45 89.56Q111.45 92.16 114.54 92.16ZM154.30 75.53L154.30 75.53Q154.30 68.61 149.27 68.61L149.27 68.61Q146.64 68.61 144.54 70.75Q142.45 72.89 141.13 77.04Q139.82 81.19 139.82 85.59L139.82 85.59Q139.82 92.09 145.09 92.09L145.09 92.09Q147.73 92.09 149.84 89.93Q151.95 87.77 153.12 83.92Q154.30 80.07 154.30 75.53ZM164.95 75.53L164.95 75.53Q164.95 82.95 162.47 88.68Q160.00 94.41 155.32 97.56Q150.64 100.70 144.21 100.70L144.21 100.70Q137.36 100.70 133.26 96.57Q129.16 92.44 129.16 85.59L129.16 85.59Q129.16 78.10 131.68 72.24Q134.19 66.39 138.94 63.17Q143.68 59.96 150.05 59.96L150.05 59.96Q156.94 59.96 160.95 64.11Q164.95 68.25 164.95 75.53ZM220.08 84.81L220.08 84.81Q220.08 92.16 214.88 96.43Q209.67 100.70 200.78 100.70L200.78 100.70Q193.01 100.70 188.26 97.54L188.26 97.54L188.26 87.91Q195.05 91.70 200.85 91.70L200.85 91.70Q204.79 91.70 207 90.21Q209.21 88.71 209.21 86.11L209.21 86.11Q209.21 84.60 208.74 83.46Q208.27 82.32 207.39 81.33Q206.51 80.35 203.03 77.75L203.03 77.75Q198.18 74.27 196.21 70.86Q194.24 67.45 194.24 63.51L194.24 63.51Q194.24 58.97 196.42 55.40Q198.60 51.84 202.62 49.85Q206.65 47.86 211.89 47.86L211.89 47.86Q219.52 47.86 225.84 51.34L225.84 51.34L222.01 59.54Q216.53 56.93 211.89 56.93L211.89 56.93Q208.97 56.93 207.11 58.52Q205.24 60.10 205.24 62.70L205.24 62.70Q205.24 64.84 206.40 66.44Q207.56 68.04 211.61 70.68L211.61 70.68Q215.86 73.49 217.97 76.88Q220.08 80.28 220.08 84.81ZM239.24 100.70L239.24 100.70Q234.07 100.70 231.10 96.96Q228.13 93.21 228.13 86.46L228.13 86.46Q228.13 79.50 230.66 73.19Q233.19 66.88 237.30 63.42Q241.42 59.96 246.34 59.96L246.34 59.96Q249.75 59.96 252.23 61.43Q254.71 62.91 256.08 65.72L256.08 65.72L256.36 65.72L258.36 60.70L266.52 60.70L258.15 100L250.24 100L250.73 94.90L250.45 94.90Q245.74 100.70 239.24 100.70ZM243.39 92.16L243.39 92.16Q245.81 92.16 248.06 89.80Q250.31 87.45 251.68 83.42Q253.05 79.40 253.05 74.30L253.05 74.30Q253.05 71.80 251.70 70.17Q250.35 68.54 248.13 68.54L248.13 68.54Q245.74 68.54 243.58 71.07Q241.42 73.60 240.13 77.75Q238.85 81.89 238.85 85.97L238.85 85.97Q238.85 89.07 240.03 90.61Q241.21 92.16 243.39 92.16ZM306.77 77.61L302.10 100L291.52 100L296.33 77.04Q296.89 74.65 296.89 72.86L296.89 72.86Q296.89 68.54 293.10 68.54L293.10 68.54Q289.86 68.54 287.23 72.54Q284.59 76.55 283.08 83.72L283.08 83.72L279.63 100L269.05 100L277.38 60.70L285.47 60.70L284.73 67.97L285.05 67.97Q290.18 59.96 297.42 59.96L297.42 59.96Q302.27 59.96 304.93 62.89Q307.58 65.83 307.58 71.28L307.58 71.28Q307.58 73.84 306.77 77.61L306.77 77.61ZM340.38 87.03L340.38 87.03Q340.38 93.64 336.01 97.17Q331.63 100.70 323.82 100.70L323.82 100.70Q320.06 100.70 317.27 100.18Q314.47 99.65 312.05 98.42L312.05 98.42L312.05 89.70Q317.57 92.86 323.26 92.86L323.26 92.86Q326.07 92.86 327.87 91.72Q329.66 90.58 329.66 88.61L329.66 88.61Q329.66 87.10 328.36 85.90Q327.06 84.71 323.75 82.88L323.75 82.88Q319.50 80.49 317.81 78.12Q316.13 75.74 316.13 72.51L316.13 72.51Q316.13 66.53 320.01 63.24Q323.89 59.96 331.10 59.96L331.10 59.96Q338.17 59.96 343.86 63.30L343.86 63.30L340.38 70.86Q335.46 67.90 331.31 67.90L331.31 67.90Q329.31 67.90 328.08 68.80Q326.85 69.70 326.85 71.21L326.85 71.21Q326.85 72.58 327.97 73.62Q329.10 74.65 332.19 76.23L332.19 76.23Q336.52 78.45 338.45 81.05Q340.38 83.65 340.38 87.03ZM385.45 100.70L385.45 100.70Q378.63 100.70 375.75 94.97L375.75 94.97L375.47 94.97L373.43 100L365.31 100L376.91 45.30L387.49 45.30L385.31 55.42Q383.87 61.82 382.36 65.93L382.36 65.93L382.64 65.93Q385.38 62.49 387.65 61.22Q389.92 59.96 392.59 59.96L392.59 59.96Q397.72 59.96 400.69 63.75Q403.66 67.55 403.66 74.23L403.66 74.23Q403.66 80.91 401.27 87.15Q398.88 93.39 394.70 97.05Q390.52 100.70 385.45 100.70ZM388.34 68.54L388.34 68.54Q385.73 68.54 383.63 70.82Q381.52 73.11 380.14 77.48Q378.77 81.86 378.77 85.97L378.77 85.97Q378.77 88.79 380.07 90.47Q381.38 92.16 383.66 92.16L383.66 92.16Q386.02 92.16 388.16 89.73Q390.30 87.31 391.62 83.07Q392.94 78.84 392.94 74.72L392.94 74.72Q392.94 68.54 388.34 68.54ZM435.16 75.53L435.16 75.53Q435.16 68.61 430.14 68.61L430.14 68.61Q427.50 68.61 425.41 70.75Q423.32 72.89 422.00 77.04Q420.68 81.19 420.68 85.59L420.68 85.59Q420.68 92.09 425.95 92.09L425.95 92.09Q428.59 92.09 430.70 89.93Q432.81 87.77 433.99 83.92Q435.16 80.07 435.16 75.53ZM445.82 75.53L445.82 75.53Q445.82 82.95 443.34 88.68Q440.86 94.41 436.18 97.56Q431.51 100.70 425.07 100.70L425.07 100.70Q418.22 100.70 414.12 96.57Q410.03 92.44 410.03 85.59L410.03 85.59Q410.03 78.10 412.54 72.24Q415.05 66.39 419.80 63.17Q424.55 59.96 430.91 59.96L430.91 59.96Q437.80 59.96 441.81 64.11Q445.82 68.25 445.82 75.53ZM472.46 45.30L460.86 100L450.28 100L461.88 45.30L472.46 45.30ZM484.63 100.70L484.63 100.70Q479.46 100.70 476.49 96.94Q473.52 93.18 473.52 86.39L473.52 86.39Q473.52 79.50 476.03 73.23Q478.55 66.95 482.66 63.46Q486.77 59.96 491.73 59.96L491.73 59.96Q494.61 59.96 496.71 61.26Q498.80 62.56 500.66 65.72L500.66 65.72L500.94 65.72L501.01 64.74Q501.22 60.87 501.89 57.88L501.89 57.88L504.56 45.30L515.14 45.30L503.54 100L495.49 100L496.13 94.90L495.84 94.90Q493.35 97.96 490.62 99.33Q487.90 100.70 484.63 100.70ZM489.06 92.16L489.06 92.16Q491.52 92.16 493.59 89.93Q495.67 87.70 497.06 83.27Q498.45 78.84 498.45 74.72L498.45 74.72Q498.45 71.91 497.13 70.22Q495.81 68.54 493.52 68.54L493.52 68.54Q491.13 68.54 488.97 71.07Q486.81 73.60 485.53 77.75Q484.24 81.89 484.24 85.97L484.24 85.97Q484.24 92.16 489.06 92.16ZM552.06 60.70L543.73 100L533.14 100L541.48 60.70L552.06 60.70ZM543.16 51.48L543.16 51.48Q543.16 48.43 544.83 46.86Q546.50 45.30 549.56 45.30L549.56 45.30Q552.13 45.30 553.46 46.39Q554.80 47.48 554.80 49.52L554.80 49.52Q554.80 52.33 553.25 54.07Q551.71 55.81 548.47 55.81L548.47 55.81Q543.16 55.81 543.16 51.48ZM571.29 92.16L571.29 92.16Q573.57 92.16 576.98 90.93L576.98 90.93L576.98 98.84Q573.08 100.70 567.63 100.70L567.63 100.70Q562.36 100.70 559.88 98.49Q557.40 96.27 557.40 91.63L557.40 91.63Q557.40 89.88 557.82 87.70L557.82 87.70L561.87 68.75L556.52 68.75L557.54 63.58L564.43 60.63L569.07 52.33L575.89 52.33L574.17 60.70L584.12 60.70L582.36 68.75L572.45 68.75L568.41 87.70Q568.20 88.75 568.20 89.56L568.20 89.56Q568.20 92.16 571.29 92.16ZM597.02 100.70L597.02 100.70Q591.86 100.70 588.88 96.96Q585.91 93.21 585.91 86.46L585.91 86.46Q585.91 79.50 588.45 73.19Q590.98 66.88 595.09 63.42Q599.20 59.96 604.13 59.96L604.13 59.96Q607.54 59.96 610.01 61.43Q612.49 62.91 613.86 65.72L613.86 65.72L614.14 65.72L616.15 60.70L624.30 60.70L615.94 100L608.03 100L608.52 94.90L608.24 94.90Q603.53 100.70 597.02 100.70ZM601.17 92.16L601.17 92.16Q603.60 92.16 605.85 89.80Q608.10 87.45 609.47 83.42Q610.84 79.40 610.84 74.30L610.84 74.30Q610.84 71.80 609.49 70.17Q608.13 68.54 605.92 68.54L605.92 68.54Q603.53 68.54 601.37 71.07Q599.20 73.60 597.92 77.75Q596.64 81.89 596.64 85.97L596.64 85.97Q596.64 89.07 597.81 90.61Q598.99 92.16 601.17 92.16ZM649.02 45.30L637.42 100L626.84 100L638.44 45.30L649.02 45.30ZM667.13 60.70L658.79 100L648.21 100L656.54 60.70L667.13 60.70ZM658.23 51.48L658.23 51.48Q658.23 48.43 659.90 46.86Q661.57 45.30 664.63 45.30L664.63 45.30Q667.20 45.30 668.53 46.39Q669.87 47.48 669.87 49.52L669.87 49.52Q669.87 52.33 668.32 54.07Q666.77 55.81 663.54 55.81L663.54 55.81Q658.23 55.81 658.23 51.48ZM686.07 100.70L686.07 100.70Q679.01 100.70 675.23 96.92Q671.45 93.14 671.45 86.25L671.45 86.25Q671.45 78.80 674.07 72.70Q676.69 66.60 681.43 63.28Q686.18 59.96 692.26 59.96L692.26 59.96Q698.66 59.96 703.79 62.49L703.79 62.49L700.56 70.54Q698.66 69.73 696.83 69.13Q695.00 68.54 692.68 68.54L692.68 68.54Q689.70 68.54 687.29 70.79Q684.88 73.04 683.53 76.96Q682.17 80.88 682.17 85.38L682.17 85.38Q682.17 88.75 683.77 90.46Q685.37 92.16 688.22 92.16L688.22 92.16Q690.89 92.16 693.18 91.33Q695.46 90.51 697.89 89.28L697.89 89.28L697.89 97.93Q692.54 100.70 686.07 100.70Z"/></svg>