<svg xmlns="http://www.w3.org/2000/svg" viewBox="6.99609375 45.296875 603.17578125 72"><path d="M48 49L48 100L40 100L13 57L12 57L13 60Q13 67 13 71L13 71L13 100L7 100L7 49L14 49L16 51L33 77L42 91L42 91Q42 90 42 85Q42 80 42 78L42 78L42 49L48 49ZM94 81L94 81Q94 90 90 95Q85 101 76 101L76 101Q71 101 67 98Q63 96 61 91Q59 87 59 81L59 81Q59 71 63 66Q68 61 77 61L77 61Q85 61 90 66Q94 71 94 81ZM65 81L65 81Q65 88 68 92Q71 95 77 95L77 95Q82 95 85 92Q88 88 88 81L88 81Q88 73 85 70Q82 66 76 66L76 66Q65 66 65 81ZM117 96L117 96Q119 96 120 95Q122 95 123 95L123 95L123 100Q122 100 120 100Q118 101 116 101L116 101Q105 101 105 89L105 89L105 66L99 66L99 63L105 61L107 53L111 53L111 61L122 61L122 66L111 66L111 89Q111 92 113 94Q114 96 117 96ZM164 81L164 81Q164 90 159 95Q154 101 146 101L146 101Q141 101 137 98Q133 96 130 91Q128 87 128 81L128 81Q128 71 133 66Q138 61 146 61L146 61Q154 61 159 66Q164 71 164 81ZM135 81L135 81Q135 88 138 92Q140 95 146 95L146 95Q152 95 154 92Q157 88 157 81L157 81Q157 73 154 70Q152 66 146 66L146 66Q135 66 135 81ZM223 86L223 86Q223 93 218 97Q213 101 204 101L204 101Q195 101 190 98L190 98L190 92Q193 93 197 94Q201 95 205 95L205 95Q210 95 213 93Q216 91 216 87L216 87Q216 84 215 83Q214 81 212 80Q209 78 204 76L204 76Q197 74 194 70Q191 67 191 61L191 61Q191 55 195 51Q200 48 207 48L207 48Q215 48 221 51L221 51L219 56Q213 54 207 54L207 54Q203 54 200 56Q197 57 197 61L197 61Q197 64 198 65Q199 67 202 68Q204 70 209 71L209 71Q214 74 217 76Q220 78 221 80Q223 83 223 86ZM261 100L256 100L255 95L254 95Q252 98 249 99Q246 101 241 101L241 101Q236 101 233 98Q229 95 229 89L229 89Q229 78 248 77L248 77L254 77L254 74Q254 70 252 68Q251 66 246 66L246 66Q243 66 241 67Q238 68 236 69L236 69L234 64Q236 63 240 62Q243 61 247 61L247 61Q254 61 257 64Q261 67 261 74L261 74L261 100ZM243 96L243 96Q248 96 251 93Q254 90 254 85L254 85L254 81L249 81Q242 82 239 83Q236 85 236 89L236 89Q236 92 238 94Q240 96 243 96ZM305 100L299 100L299 75Q299 71 297 68Q295 66 290 66L290 66Q284 66 282 69Q279 73 279 80L279 80L279 100L273 100L273 61L278 61L279 67L279 67Q281 64 284 62Q287 61 291 61L291 61Q298 61 302 64Q305 68 305 75L305 75L305 100ZM342 89L342 89Q342 95 338 98Q334 101 327 101L327 101Q319 101 315 98L315 98L315 93Q321 96 327 96L327 96Q332 96 334 94Q336 93 336 90L336 90Q336 88 334 86Q332 84 327 82L327 82Q321 80 319 79Q317 77 316 75Q315 74 315 71L315 71Q315 66 318 63Q322 61 329 61L329 61Q336 61 341 63L341 63L339 68Q333 66 329 66L329 66Q325 66 323 67Q321 68 321 71L321 71Q321 73 322 74Q324 75 331 78L331 78Q335 80 338 81Q340 83 341 85Q342 87 342 89ZM388 61L388 61Q391 61 393 61L393 61L392 67Q390 66 388 66L388 66Q385 66 382 68Q380 70 378 73Q377 76 377 79L377 79L377 100L370 100L370 61L375 61L376 68L376 68Q379 65 382 63Q385 61 388 61ZM416 101L416 101Q407 101 402 95Q397 90 397 81L397 81Q397 72 402 66Q406 61 414 61L414 61Q421 61 426 65Q430 70 430 78L430 78L430 82L404 82Q404 89 407 92Q410 95 416 95L416 95Q419 95 422 95Q425 94 428 93L428 93L428 98Q425 100 422 100Q420 101 416 101ZM414 66L414 66Q410 66 407 69Q404 72 404 77L404 77L423 77Q423 71 421 69Q419 66 414 66ZM455 96L455 96Q460 96 463 92Q466 89 466 82L466 82L466 81Q466 73 463 70Q460 66 454 66L454 66Q450 66 447 70Q444 74 444 81L444 81Q444 88 447 92Q449 96 455 96ZM466 101L466 100L466 95L466 95Q462 101 454 101L454 101Q446 101 442 95Q438 90 438 81L438 81Q438 71 442 66Q446 61 454 61L454 61Q461 61 466 67L466 67L466 67L467 61L472 61L472 101Q472 109 468 113Q464 117 455 117L455 117Q446 117 441 115L441 115L441 109Q446 112 455 112L455 112Q460 112 463 109Q466 106 466 101L466 101ZM484 61L490 61L490 86Q490 91 492 93Q494 95 499 95L499 95Q505 95 507 92Q510 89 510 82L510 82L510 61L516 61L516 100L511 100L510 95L510 95Q508 98 505 99Q502 101 498 101L498 101Q491 101 487 97Q484 94 484 87L484 87L484 61ZM535 45L535 100L529 100L529 45L535 45ZM576 100L571 100L570 95L570 95Q567 98 564 99Q561 101 557 101L557 101Q551 101 548 98Q544 95 544 89L544 89Q544 78 563 77L563 77L569 77L569 74Q569 70 568 68Q566 66 562 66L562 66Q558 66 556 67Q553 68 551 69L551 69L549 64Q552 63 555 62Q558 61 562 61L562 61Q569 61 572 64Q576 67 576 74L576 74L576 100ZM558 96L558 96Q563 96 566 93Q569 90 569 85L569 85L569 81L564 81Q557 82 554 83Q551 85 551 89L551 89Q551 92 553 94Q555 96 558 96ZM606 61L606 61Q608 61 610 61L610 61L609 67Q607 66 605 66L605 66Q602 66 600 68Q597 70 595 73Q594 76 594 79L594 79L594 100L588 100L588 61L593 61L594 68L594 68Q596 65 599 63Q602 61 606 61Z"/></svg>