<svg xmlns="http://www.w3.org/2000/svg" viewBox="1.86328125 45.296875 701.9296875 55.40625"><path d="M55 49L44 100L32 100L19 61L19 61L19 63Q18 71 17 76L17 76L12 100L2 100L13 49L25 49L37 86L38 86Q39 79 40 73L40 73L45 49L55 49ZM83 76L83 76Q83 69 78 69L78 69Q75 69 73 71Q71 73 69 77Q68 81 68 86L68 86Q68 92 73 92L73 92Q76 92 78 90Q80 88 81 84Q83 80 83 76ZM93 76L93 76Q93 83 91 89Q88 94 84 98Q79 101 73 101L73 101Q66 101 62 97Q58 92 58 86L58 86Q58 78 60 72Q63 66 67 63Q72 60 78 60L78 60Q85 60 89 64Q93 68 93 76ZM115 92L115 92Q117 92 120 91L120 91L120 99Q116 101 111 101L111 101Q106 101 103 98Q101 96 101 92L101 92Q101 90 101 88L101 88L105 69L100 69L101 64L108 61L112 52L119 52L117 61L127 61L126 69L116 69L112 88Q111 89 111 90L111 90Q111 92 115 92ZM154 76L154 76Q154 69 149 69L149 69Q147 69 145 71Q142 73 141 77Q140 81 140 86L140 86Q140 92 145 92L145 92Q148 92 150 90Q152 88 153 84Q154 80 154 76ZM165 76L165 76Q165 83 162 89Q160 94 155 98Q151 101 144 101L144 101Q137 101 133 97Q129 92 129 86L129 86Q129 78 132 72Q134 66 139 63Q144 60 150 60L150 60Q157 60 161 64Q165 68 165 76ZM220 85L220 85Q220 92 215 96Q210 101 201 101L201 101Q193 101 188 98L188 98L188 88Q195 92 201 92L201 92Q205 92 207 90Q209 89 209 86L209 86Q209 85 209 83Q208 82 207 81Q207 80 203 78L203 78Q198 74 196 71Q194 67 194 64L194 64Q194 59 196 55Q199 52 203 50Q207 48 212 48L212 48Q220 48 226 51L226 51L222 60Q217 57 212 57L212 57Q209 57 207 59Q205 60 205 63L205 63Q205 65 206 66Q208 68 212 71L212 71Q216 73 218 77Q220 80 220 85ZM239 101L239 101Q234 101 231 97Q228 93 228 86L228 86Q228 80 231 73Q233 67 237 63Q241 60 246 60L246 60Q250 60 252 61Q255 63 256 66L256 66L256 66L258 61L267 61L258 100L250 100L251 95L250 95Q246 101 239 101ZM243 92L243 92Q246 92 248 90Q250 87 252 83Q253 79 253 74L253 74Q253 72 252 70Q250 69 248 69L248 69Q246 69 244 71Q241 74 240 78Q239 82 239 86L239 86Q239 89 240 91Q241 92 243 92ZM307 78L302 100L292 100L296 77Q297 75 297 73L297 73Q297 69 293 69L293 69Q290 69 287 73Q285 77 283 84L283 84L280 100L269 100L277 61L285 61L285 68L285 68Q290 60 297 60L297 60Q302 60 305 63Q308 66 308 71L308 71Q308 74 307 78L307 78ZM340 87L340 87Q340 94 336 97Q332 101 324 101L324 101Q320 101 317 100Q314 100 312 98L312 98L312 90Q318 93 323 93L323 93Q326 93 328 92Q330 91 330 89L330 89Q330 87 328 86Q327 85 324 83L324 83Q320 80 318 78Q316 76 316 73L316 73Q316 67 320 63Q324 60 331 60L331 60Q338 60 344 63L344 63L340 71Q335 68 331 68L331 68Q329 68 328 69Q327 70 327 71L327 71Q327 73 328 74Q329 75 332 76L332 76Q337 78 338 81Q340 84 340 87ZM385 101L385 101Q379 101 376 95L376 95L375 95L373 100L365 100L377 45L387 45L385 55Q384 62 382 66L382 66L383 66Q385 62 388 61Q390 60 393 60L393 60Q398 60 401 64Q404 68 404 74L404 74Q404 81 401 87Q399 93 395 97Q391 101 385 101ZM388 69L388 69Q386 69 384 71Q382 73 380 77Q379 82 379 86L379 86Q379 89 380 90Q381 92 384 92L384 92Q386 92 388 90Q390 87 392 83Q393 79 393 75L393 75Q393 69 388 69ZM435 76L435 76Q435 69 430 69L430 69Q428 69 425 71Q423 73 422 77Q421 81 421 86L421 86Q421 92 426 92L426 92Q429 92 431 90Q433 88 434 84Q435 80 435 76ZM446 76L446 76Q446 83 443 89Q441 94 436 98Q432 101 425 101L425 101Q418 101 414 97Q410 92 410 86L410 86Q410 78 413 72Q415 66 420 63Q425 60 431 60L431 60Q438 60 442 64Q446 68 446 76ZM472 45L461 100L450 100L462 45L472 45ZM485 101L485 101Q479 101 476 97Q474 93 474 86L474 86Q474 80 476 73Q479 67 483 63Q487 60 492 60L492 60Q495 60 497 61Q499 63 501 66L501 66L501 66L501 65Q501 61 502 58L502 58L505 45L515 45L504 100L495 100L496 95L496 95Q493 98 491 99Q488 101 485 101ZM489 92L489 92Q492 92 494 90Q496 88 497 83Q498 79 498 75L498 75Q498 72 497 70Q496 69 494 69L494 69Q491 69 489 71Q487 74 486 78Q484 82 484 86L484 86Q484 92 489 92ZM552 61L544 100L533 100L541 61L552 61ZM543 51L543 51Q543 48 545 47Q547 45 550 45L550 45Q552 45 553 46Q555 47 555 50L555 50Q555 52 553 54Q552 56 548 56L548 56Q543 56 543 51ZM571 92L571 92Q574 92 577 91L577 91L577 99Q573 101 568 101L568 101Q562 101 560 98Q557 96 557 92L557 92Q557 90 558 88L558 88L562 69L557 69L558 64L564 61L569 52L576 52L574 61L584 61L582 69L572 69L568 88Q568 89 568 90L568 90Q568 92 571 92ZM597 101L597 101Q592 101 589 97Q586 93 586 86L586 86Q586 80 588 73Q591 67 595 63Q599 60 604 60L604 60Q608 60 610 61Q612 63 614 66L614 66L614 66L616 61L624 61L616 100L608 100L609 95L608 95Q604 101 597 101ZM601 92L601 92Q604 92 606 90Q608 87 609 83Q611 79 611 74L611 74Q611 72 609 70Q608 69 606 69L606 69Q604 69 601 71Q599 74 598 78Q597 82 597 86L597 86Q597 89 598 91Q599 92 601 92ZM649 45L637 100L627 100L638 45L649 45ZM667 61L659 100L648 100L657 61L667 61ZM658 51L658 51Q658 48 660 47Q662 45 665 45L665 45Q667 45 669 46Q670 47 670 50L670 50Q670 52 668 54Q667 56 664 56L664 56Q658 56 658 51ZM686 101L686 101Q679 101 675 97Q671 93 671 86L671 86Q671 79 674 73Q677 67 681 63Q686 60 692 60L692 60Q699 60 704 62L704 62L701 71Q699 70 697 69Q695 69 693 69L693 69Q690 69 687 71Q685 73 684 77Q682 81 682 85L682 85Q682 89 684 90Q685 92 688 92L688 92Q691 92 693 91Q695 91 698 89L698 89L698 98Q693 101 686 101Z"/></svg>