<svg xmlns="http://www.w3.org/2000/svg" viewBox="0.91 -7.54 62.800000000000004 7.68"><path d="M0.91 0L2.31 0L2.31-2.97C2.31-3.82 2.20-4.75 2.13-5.55L2.18-5.55L2.93-3.96L5.07 0L6.57 0L6.57-7.40L5.17-7.40L5.17-4.45C5.17-3.61 5.28-2.63 5.36-1.86L5.31-1.86L4.57-3.46L2.42-7.40L0.91-7.40ZM10.62 0.14C12.02 0.14 13.31-0.94 13.31-2.79C13.31-4.66 12.02-5.74 10.62-5.74C9.22-5.74 7.93-4.66 7.93-2.79C7.93-0.94 9.22 0.14 10.62 0.14ZM10.62-1.06C9.86-1.06 9.43-1.74 9.43-2.79C9.43-3.85 9.86-4.54 10.62-4.54C11.38-4.54 11.81-3.85 11.81-2.79C11.81-1.74 11.38-1.06 10.62-1.06ZM16.31 0.14C16.80 0.14 17.19 0.03 17.49-0.07L17.25-1.14C17.10-1.08 16.88-1.02 16.70-1.02C16.20-1.02 15.94-1.32 15.94-1.96L15.94-4.44L17.32-4.44L17.32-5.60L15.94-5.60L15.94-7.10L14.71-7.10L14.54-5.60L13.68-5.53L13.68-4.44L14.47-4.44L14.47-1.96C14.47-0.70 14.98 0.14 16.31 0.14ZM20.61 0.14C22.01 0.14 23.30-0.94 23.30-2.79C23.30-4.66 22.01-5.74 20.61-5.74C19.21-5.74 17.92-4.66 17.92-2.79C17.92-0.94 19.21 0.14 20.61 0.14ZM20.61-1.06C19.85-1.06 19.42-1.74 19.42-2.79C19.42-3.85 19.85-4.54 20.61-4.54C21.37-4.54 21.80-3.85 21.80-2.79C21.80-1.74 21.37-1.06 20.61-1.06ZM29.13 0.14C30.84 0.14 31.85-0.89 31.85-2.10C31.85-3.17 31.26-3.74 30.36-4.11L29.39-4.52C28.76-4.77 28.23-4.96 28.23-5.49C28.23-5.98 28.65-6.27 29.30-6.27C29.91-6.27 30.40-6.05 30.87-5.66L31.62-6.59C31.02-7.20 30.16-7.54 29.30-7.54C27.80-7.54 26.74-6.61 26.74-5.40C26.74-4.32 27.49-3.72 28.24-3.41L29.23-2.99C29.89-2.71 30.34-2.54 30.34-1.99C30.34-1.47 29.93-1.14 29.16-1.14C28.51-1.14 27.81-1.47 27.28-1.96L26.43-0.94C27.15-0.25 28.14 0.14 29.13 0.14ZM34.42 0.14C35.06 0.14 35.62-0.18 36.11-0.60L36.14-0.60L36.25 0L37.45 0L37.45-3.27C37.45-4.89 36.72-5.74 35.30-5.74C34.42-5.74 33.62-5.41 32.96-5L33.49-4.03C34.01-4.33 34.51-4.56 35.03-4.56C35.72-4.56 35.96-4.14 35.98-3.59C33.73-3.35 32.76-2.72 32.76-1.52C32.76-0.57 33.42 0.14 34.42 0.14ZM34.90-1.01C34.47-1.01 34.16-1.20 34.16-1.64C34.16-2.14 34.62-2.51 35.98-2.69L35.98-1.56C35.63-1.21 35.32-1.01 34.90-1.01ZM38.95 0L40.41 0L40.41-3.85C40.83-4.26 41.12-4.48 41.58-4.48C42.13-4.48 42.37-4.17 42.37-3.31L42.37 0L43.84 0L43.84-3.49C43.84-4.90 43.32-5.74 42.11-5.74C41.35-5.74 40.78-5.34 40.29-4.86L40.25-4.86L40.15-5.60L38.95-5.60ZM46.96 0.14C48.42 0.14 49.19-0.65 49.19-1.63C49.19-2.67 48.37-3.04 47.63-3.32C47.04-3.54 46.49-3.69 46.49-4.10C46.49-4.42 46.73-4.64 47.23-4.64C47.65-4.64 48.04-4.44 48.44-4.16L49.10-5.05C48.63-5.40 48.01-5.74 47.19-5.74C45.93-5.74 45.11-5.03 45.11-4.02C45.11-3.09 45.93-2.66 46.64-2.39C47.23-2.16 47.81-1.97 47.81-1.55C47.81-1.20 47.56-0.96 47.00-0.96C46.48-0.96 46.00-1.18 45.50-1.57L44.83-0.65C45.38-0.19 46.21 0.14 46.96 0.14ZM54.31 0.14C55.90 0.14 56.60-1 56.60-2.39L56.60-7.40L55.12-7.40L55.12-2.51C55.12-1.49 54.78-1.14 54.13-1.14C53.71-1.14 53.32-1.37 53.03-1.91L52.01-1.16C52.51-0.30 53.23 0.14 54.31 0.14ZM58.38 0L59.86 0L59.86-2.63L60.85-2.63C62.44-2.63 63.71-3.39 63.71-5.08C63.71-6.83 62.45-7.40 60.81-7.40L58.38-7.40ZM59.86-3.80L59.86-6.23L60.70-6.23C61.72-6.23 62.26-5.94 62.26-5.08C62.26-4.23 61.77-3.80 60.75-3.80Z"/></svg>