<svg xmlns="http://www.w3.org/2000/svg" viewBox="7.632000000000001 42.75999999999999 581.4000000000001 75.52800000000002"><path d="M7.63 100L11.74 100L11.74 68.54C11.74 63.28 11.38 58.38 11.16 53.34L11.52 53.34L17.42 63.86L38.81 100L43.27 100L43.27 47.51L39.17 47.51L39.17 78.62C39.17 83.73 39.46 88.98 39.74 94.17L39.38 94.17L33.55 83.58L12.10 47.51L7.63 47.51ZM72.29 100.94C81.58 100.94 89.64 93.59 89.64 80.85C89.64 68.03 81.58 60.62 72.29 60.62C63.00 60.62 54.94 68.03 54.94 80.85C54.94 93.59 63.00 100.94 72.29 100.94ZM72.29 97.34C64.80 97.34 59.33 90.64 59.33 80.85C59.33 71.06 64.80 64.29 72.29 64.29C79.78 64.29 85.32 71.06 85.32 80.85C85.32 90.64 79.78 97.34 72.29 97.34ZM110.59 100.94C112.32 100.94 114.77 100.29 117.00 99.50L115.99 96.26C114.62 96.83 112.75 97.34 111.31 97.34C106.20 97.34 104.90 94.17 104.90 89.34L104.90 65.15L115.92 65.15L115.92 61.62L104.90 61.62L104.90 50.54L101.38 50.54L100.87 61.62L94.75 61.98L94.75 65.15L100.73 65.15L100.73 89.06C100.73 96.18 103.03 100.94 110.59 100.94ZM138.38 100.94C147.67 100.94 155.74 93.59 155.74 80.85C155.74 68.03 147.67 60.62 138.38 60.62C129.10 60.62 121.03 68.03 121.03 80.85C121.03 93.59 129.10 100.94 138.38 100.94ZM138.38 97.34C130.90 97.34 125.42 90.64 125.42 80.85C125.42 71.06 130.90 64.29 138.38 64.29C145.87 64.29 151.42 71.06 151.42 80.85C151.42 90.64 145.87 97.34 138.38 97.34ZM197.28 100.94C207.58 100.94 214.27 94.74 214.27 86.68C214.27 78.69 209.23 75.38 203.26 72.71L195.41 69.26C191.59 67.60 186.48 65.37 186.48 59.39C186.48 53.99 190.94 50.46 197.64 50.46C202.82 50.46 206.93 52.55 210.02 55.72L212.47 52.91C209.16 49.31 203.98 46.58 197.64 46.58C188.71 46.58 182.09 51.98 182.09 59.75C182.09 67.46 188.06 70.77 192.74 72.86L200.59 76.31C205.78 78.62 209.88 80.63 209.88 86.97C209.88 92.94 205.06 97.05 197.28 97.05C191.30 97.05 185.90 94.38 182.09 90.06L179.42 93.09C183.60 97.77 189.65 100.94 197.28 100.94ZM233.21 100.94C238.10 100.94 242.71 98.27 246.60 95.10L246.74 95.10L247.18 100L250.70 100L250.70 75.66C250.70 67.17 247.46 60.62 238.32 60.62C232.06 60.62 226.73 63.64 223.78 65.66L225.65 68.68C228.31 66.66 232.70 64.29 237.74 64.29C245.02 64.29 246.67 70.19 246.53 75.88C229.61 77.82 222.05 81.86 222.05 90.35C222.05 97.48 227.02 100.94 233.21 100.94ZM234.07 97.41C229.82 97.41 226.22 95.39 226.22 90.14C226.22 84.23 231.41 80.70 246.53 78.98L246.53 91.43C241.99 95.39 238.32 97.41 234.07 97.41ZM264.10 100L268.27 100L268.27 71.27C272.74 66.66 275.90 64.36 280.37 64.36C286.27 64.36 288.79 68.03 288.79 76.02L288.79 100L292.97 100L292.97 75.45C292.97 65.58 289.30 60.62 281.30 60.62C276.05 60.62 272.09 63.64 268.20 67.46L268.06 67.46L267.55 61.62L264.10 61.62ZM316.22 100.94C324.72 100.94 329.40 95.90 329.40 89.99C329.40 82.58 322.92 80.49 317.02 78.26C312.55 76.60 308.09 75.02 308.09 70.77C308.09 67.31 310.68 64.14 316.37 64.14C320.11 64.14 322.92 65.66 325.51 67.60L327.67 64.72C324.79 62.42 320.69 60.62 316.51 60.62C308.45 60.62 303.91 65.37 303.91 70.98C303.91 77.61 310.25 79.98 315.94 82C320.40 83.58 325.22 85.67 325.22 90.21C325.22 94.17 322.27 97.48 316.44 97.48C311.18 97.48 307.66 95.46 304.34 92.66L302.11 95.68C305.57 98.56 310.61 100.94 316.22 100.94ZM364.46 100.94C374.18 100.94 377.86 94.10 377.86 85.46L377.86 47.51L373.54 47.51L373.54 85.02C373.54 93.45 370.51 97.05 364.32 97.05C360 97.05 356.98 95.32 354.38 90.93L351.14 93.09C353.95 98.20 358.42 100.94 364.46 100.94ZM392.98 100L397.30 100L397.30 77.82L406.87 77.82C418.54 77.82 425.74 72.78 425.74 62.27C425.74 51.40 418.46 47.51 406.58 47.51L392.98 47.51ZM397.30 74.22L397.30 51.11L405.72 51.11C416.16 51.11 421.34 53.78 421.34 62.27C421.34 70.70 416.38 74.22 406.01 74.22ZM457.70 100.94C459.07 100.94 459.79 100.72 460.51 100.50L459.86 97.19C459.07 97.34 458.78 97.34 458.50 97.34C457.49 97.34 456.77 96.54 456.77 94.74L456.77 42.76L452.59 42.76L452.59 94.31C452.59 98.78 454.25 100.94 457.70 100.94ZM471.82 100L475.99 100L475.99 61.62L471.82 61.62ZM473.98 52.62C475.85 52.62 477.50 51.26 477.50 49.31C477.50 47.15 475.85 45.86 473.98 45.86C472.03 45.86 470.45 47.15 470.45 49.31C470.45 51.26 472.03 52.62 473.98 52.62ZM502.92 118.29C514.15 118.29 521.35 111.95 521.35 105.26C521.35 99.14 517.25 96.40 508.54 96.40L500.47 96.40C494.93 96.40 493.27 94.31 493.27 91.58C493.27 89.13 494.64 87.54 496.30 86.25C498.02 87.26 500.40 87.83 502.49 87.83C510.05 87.83 516.02 82.22 516.02 74.30C516.02 70.41 514.37 67.10 512.06 65.08L520.70 65.08L520.70 61.62L507.60 61.62C506.38 61.12 504.58 60.62 502.49 60.62C494.93 60.62 488.74 66.23 488.74 74.22C488.74 78.83 491.18 82.65 493.63 84.66L493.63 84.95C491.90 86.25 489.38 88.77 489.38 92.08C489.38 95.10 490.90 97.12 492.84 98.27L492.84 98.63C489.31 101.01 487.08 104.39 487.08 107.78C487.08 114.26 493.34 118.29 502.92 118.29ZM502.49 84.66C497.38 84.66 492.91 80.49 492.91 74.22C492.91 67.89 497.23 64.00 502.49 64.00C507.67 64.00 511.99 67.89 511.99 74.22C511.99 80.49 507.53 84.66 502.49 84.66ZM503.42 115.12C495.58 115.12 491.04 111.95 491.04 107.27C491.04 104.68 492.48 101.87 495.79 99.57C497.74 100 499.75 100.22 500.62 100.22L508.46 100.22C514.15 100.22 517.18 101.73 517.18 105.83C517.18 110.44 511.78 115.12 503.42 115.12ZM529.42 100L533.59 100L533.59 71.27C538.06 66.66 541.22 64.36 545.69 64.36C551.59 64.36 554.11 68.03 554.11 76.02L554.11 100L558.29 100L558.29 75.45C558.29 65.58 554.62 60.62 546.62 60.62C541.37 60.62 537.41 63.64 533.52 67.53L533.59 59.18L533.59 42.76L529.42 42.76ZM582.62 100.94C584.35 100.94 586.80 100.29 589.03 99.50L588.02 96.26C586.66 96.83 584.78 97.34 583.34 97.34C578.23 97.34 576.94 94.17 576.94 89.34L576.94 65.15L587.95 65.15L587.95 61.62L576.94 61.62L576.94 50.54L573.41 50.54L572.90 61.62L566.78 61.98L566.78 65.15L572.76 65.15L572.76 89.06C572.76 96.18 575.06 100.94 582.62 100.94Z"/></svg>