<svg xmlns="http://www.w3.org/2000/svg" viewBox="6.984000000000001 42.61599999999999 740.6640000000001 58.320000000000014"><path d="M6.98 100L14.90 100L14.90 75.02C14.90 69.26 14.26 63.14 13.82 57.66L14.18 57.66L19.73 68.75L37.30 100L45.86 100L45.86 47.01L37.94 47.01L37.94 71.70C37.94 77.46 38.59 83.87 39.02 89.34L38.66 89.34L33.12 78.11L15.55 47.01L6.98 47.01ZM74.95 100.94C84.74 100.94 93.60 93.38 93.60 80.27C93.60 67.02 84.74 59.39 74.95 59.39C65.16 59.39 56.30 67.02 56.30 80.27C56.30 93.38 65.16 100.94 74.95 100.94ZM74.95 94.17C68.76 94.17 64.87 88.62 64.87 80.27C64.87 71.85 68.76 66.23 74.95 66.23C81.22 66.23 85.10 71.85 85.10 80.27C85.10 88.62 81.22 94.17 74.95 94.17ZM114.98 100.94C117.86 100.94 120.53 100.22 122.76 99.50L121.25 93.38C120.10 93.88 118.37 94.31 117 94.31C112.90 94.31 111.24 91.86 111.24 87.11L111.24 67.02L121.54 67.02L121.54 60.40L111.24 60.40L111.24 49.46L104.26 49.46L103.32 60.40L97.20 60.83L97.20 67.02L102.96 67.02L102.96 87.04C102.96 95.39 106.06 100.94 114.98 100.94ZM144.79 100.94C154.58 100.94 163.44 93.38 163.44 80.27C163.44 67.02 154.58 59.39 144.79 59.39C135 59.39 126.14 67.02 126.14 80.27C126.14 93.38 135 100.94 144.79 100.94ZM144.79 94.17C138.60 94.17 134.71 88.62 134.71 80.27C134.71 71.85 138.60 66.23 144.79 66.23C151.06 66.23 154.94 71.85 154.94 80.27C154.94 88.62 151.06 94.17 144.79 94.17ZM205.20 100.94C216.79 100.94 223.85 94.02 223.85 85.53C223.85 77.75 219.31 73.86 213.05 71.20L205.78 68.10C201.46 66.38 197.21 64.65 197.21 60.11C197.21 55.86 200.74 53.27 206.14 53.27C210.82 53.27 214.49 55.07 217.80 58.02L222.19 52.70C218.16 48.59 212.33 46.00 206.14 46.00C196.06 46.00 188.71 52.26 188.71 60.62C188.71 68.32 194.40 72.35 199.51 74.51L206.86 77.68C211.75 79.84 215.35 81.35 215.35 86.18C215.35 90.64 211.75 93.66 205.34 93.66C200.23 93.66 195.05 91.22 191.23 87.40L186.34 93.16C191.16 98.06 197.93 100.94 205.20 100.94ZM242.50 100.94C247.25 100.94 251.50 98.56 255.10 95.46L255.31 95.46L256.03 100L262.80 100L262.80 76.17C262.80 65.66 258.26 59.39 248.40 59.39C242.06 59.39 236.52 61.98 232.42 64.58L235.51 70.19C238.90 68.03 242.78 66.16 246.96 66.16C252.79 66.16 254.45 70.19 254.52 74.80C238.03 76.60 230.83 80.99 230.83 89.49C230.83 96.47 235.66 100.94 242.50 100.94ZM245.02 94.38C241.49 94.38 238.82 92.80 238.82 88.91C238.82 84.45 242.78 81.50 254.52 80.06L254.52 89.78C251.28 92.73 248.47 94.38 245.02 94.38ZM274.54 100L282.74 100L282.74 71.92C286.27 68.39 288.79 66.52 292.46 66.52C297.14 66.52 299.16 69.26 299.16 76.10L299.16 100L307.44 100L307.44 75.09C307.44 65.01 303.70 59.39 295.27 59.39C289.87 59.39 285.84 62.34 282.17 65.87L281.95 65.87L281.30 60.40L274.54 60.40ZM330.19 100.94C339.98 100.94 345.24 95.54 345.24 88.91C345.24 81.42 339.12 78.98 333.58 76.89C329.26 75.30 325.15 74.01 325.15 70.62C325.15 67.89 327.17 65.73 331.49 65.73C334.80 65.73 337.61 67.17 340.34 69.18L344.23 64.07C340.99 61.55 336.67 59.39 331.34 59.39C322.63 59.39 317.30 64.36 317.30 70.98C317.30 77.68 323.35 80.49 328.61 82.50C332.93 84.16 337.39 85.74 337.39 89.34C337.39 92.37 335.16 94.67 330.41 94.67C326.16 94.67 322.70 92.94 319.18 90.14L315.29 95.46C319.10 98.63 324.72 100.94 330.19 100.94ZM381.46 100.94C392.26 100.94 396.86 93.30 396.86 83.80L396.86 47.01L388.51 47.01L388.51 83.01C388.51 90.78 385.85 93.66 380.52 93.66C377.06 93.66 374.18 92.01 371.95 87.90L366.12 92.15C369.43 97.98 374.33 100.94 381.46 100.94ZM410.54 100L418.90 100L418.90 79.91L426.89 79.91C438.41 79.91 446.83 74.58 446.83 62.99C446.83 51.04 438.41 47.01 426.60 47.01L410.54 47.01ZM418.90 73.22L418.90 53.70L425.81 53.70C434.23 53.70 438.62 56.01 438.62 62.99C438.62 69.98 434.59 73.22 426.10 73.22ZM472.61 100L480.82 100L480.82 71.92C484.13 68.32 487.08 66.52 489.74 66.52C494.28 66.52 496.37 69.26 496.37 76.10L496.37 100L504.65 100L504.65 71.92C507.96 68.32 510.84 66.52 513.58 66.52C518.04 66.52 520.20 69.26 520.20 76.10L520.20 100L528.48 100L528.48 75.09C528.48 65.01 524.59 59.39 516.31 59.39C511.34 59.39 507.31 62.49 503.42 66.66C501.70 62.13 498.38 59.39 492.48 59.39C487.58 59.39 483.62 62.34 480.24 65.94L480.02 65.94L479.38 60.40L472.61 60.40ZM556.92 100.94C562.10 100.94 566.64 99.21 570.31 96.76L567.43 91.50C564.55 93.38 561.53 94.46 558.00 94.46C551.16 94.46 546.41 89.92 545.76 82.36L571.46 82.36C571.68 81.42 571.82 79.77 571.82 78.18C571.82 66.95 566.21 59.39 555.70 59.39C546.41 59.39 537.62 67.38 537.62 80.27C537.62 93.30 546.19 100.94 556.92 100.94ZM545.69 76.67C546.48 69.69 550.87 65.87 555.84 65.87C561.60 65.87 564.70 69.83 564.70 76.67ZM594.79 100.94C599.26 100.94 603.36 98.56 606.31 95.54L606.53 95.54L607.25 100L614.02 100L614.02 42.62L605.74 42.62L605.74 57.30L606.10 63.86C602.86 61.12 599.98 59.39 595.44 59.39C586.58 59.39 578.45 67.38 578.45 80.27C578.45 93.38 584.86 100.94 594.79 100.94ZM596.74 94.10C590.54 94.10 587.02 89.13 587.02 80.13C587.02 71.56 591.48 66.30 597.02 66.30C599.98 66.30 602.78 67.24 605.74 69.90L605.74 89.27C602.86 92.58 600.05 94.10 596.74 94.10ZM626.47 100L634.68 100L634.68 60.40L626.47 60.40ZM630.58 52.98C633.60 52.98 635.90 50.97 635.90 48.09C635.90 45.14 633.60 43.19 630.58 43.19C627.55 43.19 625.32 45.14 625.32 48.09C625.32 50.97 627.55 52.98 630.58 52.98ZM658.73 100.94C664.20 100.94 668.09 98.20 671.69 94.02L671.90 94.02L672.55 100L679.32 100L679.32 60.40L671.04 60.40L671.04 87.90C667.73 92.08 665.21 93.81 661.54 93.81C656.86 93.81 654.91 91.14 654.91 84.30L654.91 60.40L646.63 60.40L646.63 85.31C646.63 95.39 650.30 100.94 658.73 100.94ZM691.78 100L699.98 100L699.98 71.92C703.30 68.32 706.25 66.52 708.91 66.52C713.45 66.52 715.54 69.26 715.54 76.10L715.54 100L723.82 100L723.82 71.92C727.13 68.32 730.01 66.52 732.74 66.52C737.21 66.52 739.37 69.26 739.37 76.10L739.37 100L747.65 100L747.65 75.09C747.65 65.01 743.76 59.39 735.48 59.39C730.51 59.39 726.48 62.49 722.59 66.66C720.86 62.13 717.55 59.39 711.65 59.39C706.75 59.39 702.79 62.34 699.41 65.94L699.19 65.94L698.54 60.40L691.78 60.40Z"/></svg>