<svg xmlns="http://www.w3.org/2000/svg" viewBox="6.192000000000001 42.471999999999994 692.712 58.536"><path d="M6 100L18 100L18 82C18 76 17 68 17 62L17 62L22 74L36 100L49 100L49 46L37 46L37 64C37 71 38 78 38 84L38 84L33 72L19 46L6 46ZM78 101C88 101 98 93 98 80C98 66 88 58 78 58C68 58 58 66 58 80C58 93 68 101 78 101ZM78 91C73 91 71 86 71 80C71 73 73 68 78 68C83 68 85 73 85 80C85 86 83 91 78 91ZM120 101C124 101 127 100 129 99L127 90C126 91 125 91 123 91C120 91 118 89 118 85L118 69L128 69L128 59L118 59L118 48L108 48L106 59L100 60L100 69L105 69L105 85C105 95 110 101 120 101ZM152 101C162 101 172 93 172 80C172 66 162 58 152 58C142 58 132 66 132 80C132 93 142 101 152 101ZM152 91C147 91 145 86 145 80C145 73 147 68 152 68C157 68 159 73 159 80C159 86 157 91 152 91ZM214 101C227 101 235 93 235 84C235 77 231 72 224 70L217 67C213 65 209 64 209 61C209 58 212 56 216 56C220 56 223 58 227 61L233 52C228 48 222 45 216 45C204 45 196 53 196 62C196 69 201 74 207 76L214 79C219 81 221 82 221 85C221 88 219 90 214 90C210 90 205 88 201 84L194 93C200 98 207 101 214 101ZM253 101C257 101 261 99 265 96L265 96L266 100L276 100L276 77C276 64 270 58 260 58C253 58 248 60 242 63L247 72C251 70 254 68 257 68C262 68 263 70 264 74C248 75 241 80 241 89C241 95 245 101 253 101ZM257 91C255 91 253 90 253 88C253 85 256 82 264 81L264 88C262 90 260 91 257 91ZM286 100L299 100L299 73C301 70 303 69 306 69C309 69 311 71 311 76L311 100L324 100L324 75C324 64 320 58 311 58C305 58 301 61 298 64L298 64L297 59L286 59ZM346 101C357 101 363 95 363 88C363 80 357 77 352 75C348 74 344 73 344 70C344 68 346 67 348 67C351 67 354 69 357 71L363 63C359 61 354 58 348 58C338 58 332 63 332 71C332 78 338 81 343 83C347 85 351 86 351 88C351 90 349 92 346 92C343 92 339 90 336 87L330 95C334 99 340 101 346 101ZM388 100L401 100L401 86L407 78L419 100L433 100L414 68L430 46L416 46L401 68L401 68L401 46L388 46ZM452 57L457 57C464 57 467 58 467 63C467 68 464 71 457 71L452 71ZM482 100L470 79C476 76 479 71 479 63C479 50 470 46 458 46L439 46L439 100L452 100L452 81L458 81L468 100ZM527 101C536 101 544 93 544 79C544 66 538 58 528 58C525 58 521 60 518 62L518 56L518 42L505 42L505 100L515 100L516 96L517 96C520 99 524 101 527 101ZM524 90C522 90 520 90 518 88L518 72C520 70 522 68 525 68C529 68 531 72 531 79C531 87 528 90 524 90ZM564 101C567 101 569 101 571 100L569 90C568 91 568 91 568 91C567 91 565 90 565 87L565 42L553 42L553 87C553 95 555 101 564 101ZM587 101C591 101 595 99 599 96L599 96L600 100L610 100L610 77C610 64 604 58 594 58C587 58 581 60 576 63L581 72C585 70 588 68 591 68C595 68 597 70 597 74C581 75 575 80 575 89C575 95 579 101 587 101ZM591 91C589 91 587 90 587 88C587 85 589 82 597 81L597 88C596 90 594 91 591 91ZM638 101C643 101 648 100 652 96L647 88C645 89 642 91 640 91C635 91 631 86 631 80C631 73 634 68 640 68C642 68 643 69 645 71L651 62C648 60 644 58 639 58C628 58 618 66 618 80C618 93 627 101 638 101ZM659 100L671 100L671 90L676 84L685 100L699 100L683 76L698 59L684 59L672 75L671 75L671 42L659 42Z"/></svg>