<svg xmlns="http://www.w3.org/2000/svg" viewBox="7.920000000000001 42.831999999999994 553.6800000000001 58.10400000000001"><path d="M8 100L10 100L10 66C10 61 10 57 10 52L10 52L16 62L39 100L42 100L42 48L40 48L40 81C40 86 40 91 40 96L40 96L34 86L11 48L8 48ZM71 101C80 101 88 94 88 81C88 68 80 61 71 61C62 61 54 68 54 81C54 94 62 101 71 101ZM71 99C63 99 57 92 57 81C57 71 63 63 71 63C79 63 85 71 85 81C85 92 79 99 71 99ZM109 101C110 101 113 100 115 99L114 97C113 98 111 99 109 99C104 99 102 95 102 90L102 64L114 64L114 62L102 62L102 51L100 51L100 62L94 62L94 64L100 64L100 90C100 97 102 101 109 101ZM136 101C145 101 153 94 153 81C153 68 145 61 136 61C127 61 119 68 119 81C119 94 127 101 136 101ZM136 99C128 99 122 92 122 81C122 71 128 63 136 63C144 63 150 71 150 81C150 92 144 99 136 99ZM194 101C204 101 210 95 210 87C210 79 205 76 199 73L191 70C188 68 182 66 182 59C182 53 187 49 194 49C200 49 204 52 207 55L209 53C205 50 201 47 194 47C186 47 179 52 179 59C179 67 186 70 190 72L198 76C203 78 208 80 208 87C208 94 202 98 194 98C188 98 182 96 178 91L177 93C181 98 186 101 194 101ZM229 101C235 101 239 98 243 95L243 95L244 100L246 100L246 75C246 68 243 61 234 61C228 61 223 64 220 66L222 68C224 66 229 63 234 63C242 63 244 70 243 76C226 78 219 82 219 91C219 98 224 101 229 101ZM230 99C225 99 221 96 221 91C221 84 227 80 243 79L243 92C238 96 234 99 230 99ZM260 100L263 100L263 71C267 66 271 63 275 63C282 63 285 68 285 76L285 100L287 100L287 76C287 66 284 61 276 61C271 61 267 64 263 68L263 68L262 62L260 62ZM311 101C319 101 323 96 323 90C323 83 316 81 310 79C306 77 301 75 301 71C301 67 304 63 310 63C314 63 317 65 320 67L321 65C318 63 314 61 311 61C303 61 299 66 299 71C299 78 305 80 311 82C315 83 320 86 320 91C320 95 317 99 311 99C305 99 302 96 298 94L297 96C300 99 305 101 311 101ZM350 100L352 100L352 82L363 69L381 100L384 100L365 67L382 48L379 48L352 78L352 78L352 48L350 48ZM396 73L396 50L407 50C416 50 422 53 422 61C422 69 416 73 407 73ZM425 100L411 75C419 74 425 70 425 61C425 52 418 48 408 48L393 48L393 100L396 100L396 75L408 75L422 100ZM461 101C462 101 465 100 467 99L466 97C465 98 463 99 461 99C456 99 455 95 455 90L455 64L466 64L466 62L455 62L455 51L452 51L452 62L446 62L446 64L452 64L452 90C452 97 454 101 461 101ZM475 100L478 100L478 71C483 66 486 63 491 63C497 63 500 68 500 76L500 100L503 100L503 76C503 66 499 61 491 61C486 61 482 64 478 68L478 43L475 43ZM517 100L519 100L519 62L517 62ZM518 52C519 52 521 51 521 50C521 48 519 47 518 47C517 47 515 48 515 50C515 51 517 52 518 52ZM534 100L537 100L537 71C542 66 545 63 550 63C556 63 559 68 559 76L559 100L562 100L562 76C562 66 558 61 550 61C545 61 541 64 537 68L537 68L536 62L534 62Z"/></svg>