<svg xmlns="http://www.w3.org/2000/svg" viewBox="0.2587890625 -7.2412109375 47.5 7.3388671875"><path d="M7.60-7.14L6.09 0L4.42 0L2.68-5.40L2.63-5.40L2.59-5.11Q2.46-4.07 2.31-3.36L2.31-3.36L1.60 0L0.26 0L1.77-7.14L3.51-7.14L5.17-1.88L5.21-1.88Q5.38-2.97 5.54-3.76L5.54-3.76L6.26-7.14L7.60-7.14ZM11.48-3.40L11.48-3.40Q11.48-4.36 10.78-4.36L10.78-4.36Q10.42-4.36 10.12-4.06Q9.83-3.76 9.65-3.19Q9.47-2.61 9.47-2.00L9.47-2.00Q9.47-1.10 10.20-1.10L10.20-1.10Q10.57-1.10 10.86-1.40Q11.15-1.70 11.32-2.23Q11.48-2.77 11.48-3.40ZM12.96-3.40L12.96-3.40Q12.96-2.37 12.61-1.57Q12.27-0.78 11.62-0.34Q10.97 0.10 10.08 0.10L10.08 0.10Q9.13 0.10 8.56-0.48Q7.99-1.05 7.99-2.00L7.99-2.00Q7.99-3.04 8.34-3.85Q8.69-4.67 9.35-5.11Q10.00-5.56 10.89-5.56L10.89-5.56Q11.85-5.56 12.40-4.99Q12.96-4.41 12.96-3.40ZM15.91-1.09L15.91-1.09Q16.23-1.09 16.70-1.26L16.70-1.26L16.70-0.16Q16.16 0.10 15.40 0.10L15.40 0.10Q14.67 0.10 14.32-0.21Q13.98-0.52 13.98-1.16L13.98-1.16Q13.98-1.41 14.04-1.71L14.04-1.71L14.60-4.34L13.86-4.34L14.00-5.06L14.96-5.47L15.60-6.62L16.55-6.62L16.31-5.46L17.69-5.46L17.45-4.34L16.07-4.34L15.51-1.71Q15.48-1.56 15.48-1.45L15.48-1.45Q15.48-1.09 15.91-1.09ZM21.43-3.40L21.43-3.40Q21.43-4.36 20.73-4.36L20.73-4.36Q20.37-4.36 20.08-4.06Q19.79-3.76 19.60-3.19Q19.42-2.61 19.42-2.00L19.42-2.00Q19.42-1.10 20.15-1.10L20.15-1.10Q20.52-1.10 20.81-1.40Q21.10-1.70 21.27-2.23Q21.43-2.77 21.43-3.40ZM22.91-3.40L22.91-3.40Q22.91-2.37 22.57-1.57Q22.22-0.78 21.57-0.34Q20.92 0.10 20.03 0.10L20.03 0.10Q19.08 0.10 18.51-0.48Q17.94-1.05 17.94-2.00L17.94-2.00Q17.94-3.04 18.29-3.85Q18.64-4.67 19.30-5.11Q19.96-5.56 20.84-5.56L20.84-5.56Q21.80-5.56 22.35-4.99Q22.91-4.41 22.91-3.40ZM30.57-2.11L30.57-2.11Q30.57-1.09 29.84-0.50Q29.12 0.10 27.89 0.10L27.89 0.10Q26.81 0.10 26.15-0.34L26.15-0.34L26.15-1.68Q27.09-1.15 27.90-1.15L27.90-1.15Q28.44-1.15 28.75-1.36Q29.06-1.57 29.06-1.93L29.06-1.93Q29.06-2.14 28.99-2.30Q28.93-2.46 28.80-2.59Q28.68-2.73 28.20-3.09L28.20-3.09Q27.52-3.57 27.25-4.05Q26.98-4.52 26.98-5.07L26.98-5.07Q26.98-5.70 27.28-6.19Q27.58-6.69 28.14-6.97Q28.70-7.24 29.43-7.24L29.43-7.24Q30.49-7.24 31.37-6.76L31.37-6.76L30.83-5.62Q30.07-5.98 29.43-5.98L29.43-5.98Q29.02-5.98 28.76-5.76Q28.51-5.54 28.51-5.18L28.51-5.18Q28.51-4.88 28.67-4.66Q28.83-4.44 29.39-4.07L29.39-4.07Q29.98-3.68 30.27-3.21Q30.57-2.74 30.57-2.11ZM33.23 0.10L33.23 0.10Q32.51 0.10 32.10-0.42Q31.68-0.94 31.68-1.88L31.68-1.88Q31.68-2.85 32.04-3.72Q32.39-4.60 32.96-5.08Q33.53-5.56 34.21-5.56L34.21-5.56Q34.69-5.56 35.03-5.36Q35.38-5.15 35.57-4.76L35.57-4.76L35.61-4.76L35.88-5.46L37.02-5.46L35.85 0L34.76 0L34.82-0.71L34.79-0.71Q34.13 0.10 33.23 0.10ZM33.80-1.09L33.80-1.09Q34.14-1.09 34.45-1.42Q34.77-1.74 34.96-2.30Q35.15-2.86 35.15-3.57L35.15-3.57Q35.15-3.92 34.96-4.14Q34.77-4.37 34.46-4.37L34.46-4.37Q34.13-4.37 33.83-4.02Q33.53-3.67 33.35-3.09Q33.17-2.51 33.17-1.95L33.17-1.95Q33.17-1.52 33.34-1.30Q33.50-1.09 33.80-1.09ZM42.61-3.11L41.96 0L40.49 0L41.16-3.19Q41.24-3.52 41.24-3.77L41.24-3.77Q41.24-4.37 40.71-4.37L40.71-4.37Q40.26-4.37 39.89-3.81Q39.53-3.26 39.32-2.26L39.32-2.26L38.84 0L37.37 0L38.53-5.46L39.65-5.46L39.55-4.45L39.59-4.45Q40.30-5.56 41.31-5.56L41.31-5.56Q41.98-5.56 42.35-5.15Q42.72-4.75 42.72-3.99L42.72-3.99Q42.72-3.63 42.61-3.11L42.61-3.11ZM47.28-1.80L47.28-1.80Q47.28-0.88 46.67-0.39Q46.06 0.10 44.98 0.10L44.98 0.10Q44.45 0.10 44.06 0.02Q43.68-0.05 43.34-0.22L43.34-0.22L43.34-1.43Q44.11-0.99 44.90-0.99L44.90-0.99Q45.29-0.99 45.54-1.15Q45.79-1.31 45.79-1.58L45.79-1.58Q45.79-1.79 45.61-1.96Q45.42-2.12 44.97-2.38L44.97-2.38Q44.38-2.71 44.14-3.04Q43.91-3.37 43.91-3.82L43.91-3.82Q43.91-4.65 44.45-5.10Q44.99-5.56 45.99-5.56L45.99-5.56Q46.97-5.56 47.76-5.10L47.76-5.10L47.28-4.05Q46.59-4.46 46.02-4.46L46.02-4.46Q45.74-4.46 45.57-4.33Q45.40-4.21 45.40-4.00L45.40-4.00Q45.40-3.81 45.55-3.66Q45.71-3.52 46.14-3.30L46.14-3.30Q46.74-2.99 47.01-2.63Q47.28-2.27 47.28-1.80Z"/></svg>