<svg xmlns="http://www.w3.org/2000/svg" viewBox="6.46875 45.296875 528.22265625 55.40625"><path d="M52.07 48.60L52.07 100L38.21 100L15.86 61.12L15.54 61.12Q16.21 71.42 16.21 75.81L16.21 75.81L16.21 100L6.47 100L6.47 48.60L20.21 48.60L42.54 87.10L42.79 87.10Q42.26 77.08 42.26 72.93L42.26 72.93L42.26 48.60L52.07 48.60ZM72.70 80.28L72.70 80.28Q72.70 86.11 74.62 89.10Q76.54 92.09 80.86 92.09L80.86 92.09Q85.15 92.09 87.03 89.12Q88.91 86.15 88.91 80.28L88.91 80.28Q88.91 74.44 87.01 71.52Q85.11 68.61 80.79 68.61L80.79 68.61Q76.50 68.61 74.60 71.51Q72.70 74.41 72.70 80.28ZM99.88 80.28L99.88 80.28Q99.88 89.88 94.82 95.29Q89.75 100.70 80.72 100.70L80.72 100.70Q75.06 100.70 70.73 98.22Q66.41 95.75 64.09 91.11Q61.77 86.46 61.77 80.28L61.77 80.28Q61.77 70.64 66.80 65.30Q71.82 59.96 80.93 59.96L80.93 59.96Q86.59 59.96 90.91 62.42Q95.24 64.88 97.56 69.48Q99.88 74.09 99.88 80.28ZM125.30 92.16L125.30 92.16Q128.11 92.16 132.05 90.93L132.05 90.93L132.05 98.91Q128.04 100.70 122.20 100.70L122.20 100.70Q115.77 100.70 112.83 97.45Q109.90 94.20 109.90 87.70L109.90 87.70L109.90 68.75L104.77 68.75L104.77 64.21L110.67 60.63L113.77 52.33L120.62 52.33L120.62 60.70L131.63 60.70L131.63 68.75L120.62 68.75L120.62 87.70Q120.62 89.98 121.90 91.07Q123.19 92.16 125.30 92.16ZM148.54 80.28L148.54 80.28Q148.54 86.11 150.45 89.10Q152.37 92.09 156.69 92.09L156.69 92.09Q160.98 92.09 162.86 89.12Q164.74 86.15 164.74 80.28L164.74 80.28Q164.74 74.44 162.84 71.52Q160.95 68.61 156.62 68.61L156.62 68.61Q152.33 68.61 150.43 71.51Q148.54 74.41 148.54 80.28ZM175.71 80.28L175.71 80.28Q175.71 89.88 170.65 95.29Q165.59 100.70 156.55 100.70L156.55 100.70Q150.89 100.70 146.57 98.22Q142.24 95.75 139.92 91.11Q137.60 86.46 137.60 80.28L137.60 80.28Q137.60 70.64 142.63 65.30Q147.66 59.96 156.76 59.96L156.76 59.96Q162.42 59.96 166.75 62.42Q171.07 64.88 173.39 69.48Q175.71 74.09 175.71 80.28ZM234.46 85.73L234.46 85.73Q234.46 92.69 229.45 96.70Q224.44 100.70 215.51 100.70L215.51 100.70Q207.28 100.70 200.95 97.61L200.95 97.61L200.95 87.48Q206.16 89.80 209.76 90.75Q213.36 91.70 216.35 91.70L216.35 91.70Q219.94 91.70 221.85 90.33Q223.77 88.96 223.77 86.25L223.77 86.25Q223.77 84.74 222.93 83.56Q222.08 82.39 220.45 81.30Q218.81 80.21 213.79 77.82L213.79 77.82Q209.07 75.60 206.72 73.56Q204.36 71.52 202.96 68.82Q201.55 66.11 201.55 62.49L201.55 62.49Q201.55 55.67 206.17 51.77Q210.80 47.86 218.95 47.86L218.95 47.86Q222.96 47.86 226.60 48.81Q230.24 49.76 234.21 51.48L234.21 51.48L230.70 59.96Q226.58 58.27 223.89 57.60Q221.20 56.93 218.60 56.93L218.60 56.93Q215.51 56.93 213.86 58.38Q212.20 59.82 212.20 62.14L212.20 62.14Q212.20 63.58 212.87 64.65Q213.54 65.72 215.00 66.72Q216.46 67.73 221.91 70.33L221.91 70.33Q229.11 73.77 231.79 77.24Q234.46 80.70 234.46 85.73ZM275.38 100L267.89 100L265.82 94.66L265.54 94.66Q262.83 98.07 259.96 99.38Q257.10 100.70 252.49 100.70L252.49 100.70Q246.83 100.70 243.58 97.47Q240.33 94.23 240.33 88.26L240.33 88.26Q240.33 82 244.71 79.03Q249.08 76.06 257.91 75.74L257.91 75.74L264.73 75.53L264.73 73.81Q264.73 67.83 258.61 67.83L258.61 67.83Q253.90 67.83 247.54 70.68L247.54 70.68L243.98 63.44Q250.77 59.89 259.03 59.89L259.03 59.89Q266.94 59.89 271.16 63.33Q275.38 66.78 275.38 73.81L275.38 73.81L275.38 100ZM264.73 85.02L264.73 81.79L260.58 81.93Q255.90 82.07 253.62 83.62Q251.33 85.16 251.33 88.33L251.33 88.33Q251.33 92.86 256.54 92.86L256.54 92.86Q260.26 92.86 262.49 90.72Q264.73 88.57 264.73 85.02L264.73 85.02ZM322.70 74.37L322.70 100L311.98 100L311.98 77.04Q311.98 72.79 310.46 70.66Q308.95 68.54 305.65 68.54L305.65 68.54Q301.15 68.54 299.14 71.54Q297.14 74.55 297.14 81.51L297.14 81.51L297.14 100L286.42 100L286.42 60.70L294.61 60.70L296.05 65.72L296.65 65.72Q298.44 62.88 301.59 61.42Q304.73 59.96 308.74 59.96L308.74 59.96Q315.60 59.96 319.15 63.67Q322.70 67.38 322.70 74.37L322.70 74.37ZM361.16 88.33L361.16 88.33Q361.16 94.38 356.96 97.54Q352.76 100.70 344.39 100.70L344.39 100.70Q340.10 100.70 337.08 100.12Q334.05 99.54 331.42 98.42L331.42 98.42L331.42 89.56Q334.41 90.96 338.15 91.91Q341.89 92.86 344.74 92.86L344.74 92.86Q350.58 92.86 350.58 89.49L350.58 89.49Q350.58 88.22 349.80 87.43Q349.03 86.64 347.13 85.64Q345.23 84.64 342.07 83.30L342.07 83.30Q337.54 81.40 335.41 79.79Q333.28 78.17 332.31 76.08Q331.35 73.98 331.35 70.93L331.35 70.93Q331.35 65.69 335.41 62.82Q339.47 59.96 346.92 59.96L346.92 59.96Q354.02 59.96 360.74 63.05L360.74 63.05L357.50 70.79Q354.55 69.52 351.98 68.71Q349.42 67.90 346.75 67.90L346.75 67.90Q342 67.90 342 70.47L342 70.47Q342 71.91 343.53 72.96Q345.06 74.02 350.23 76.09L350.23 76.09Q354.83 77.96 356.98 79.57Q359.12 81.19 360.14 83.30Q361.16 85.41 361.16 88.33ZM410.10 59.96L410.10 59.96Q417.06 59.96 421.00 65.39Q424.93 70.82 424.93 80.28L424.93 80.28Q424.93 90.02 420.87 95.36Q416.81 100.70 409.82 100.70L409.82 100.70Q402.89 100.70 398.95 95.68L398.95 95.68L398.21 95.68L396.42 100L388.23 100L388.23 45.30L398.95 45.30L398.95 58.02Q398.95 60.45 398.53 65.79L398.53 65.79L398.95 65.79Q402.71 59.96 410.10 59.96ZM406.65 68.54L406.65 68.54Q402.68 68.54 400.85 70.98Q399.02 73.42 398.95 79.05L398.95 79.05L398.95 80.21Q398.95 86.54 400.83 89.28Q402.71 92.02 406.79 92.02L406.79 92.02Q410.10 92.02 412.05 88.98Q414 85.94 414 80.14L414 80.14Q414 74.34 412.03 71.44Q410.06 68.54 406.65 68.54ZM442.34 80.28L442.34 80.28Q442.34 86.11 444.25 89.10Q446.17 92.09 450.49 92.09L450.49 92.09Q454.78 92.09 456.66 89.12Q458.54 86.15 458.54 80.28L458.54 80.28Q458.54 74.44 456.64 71.52Q454.75 68.61 450.42 68.61L450.42 68.61Q446.13 68.61 444.23 71.51Q442.34 74.41 442.34 80.28ZM469.51 80.28L469.51 80.28Q469.51 89.88 464.45 95.29Q459.39 100.70 450.35 100.70L450.35 100.70Q444.69 100.70 440.37 98.22Q436.04 95.75 433.72 91.11Q431.40 86.46 431.40 80.28L431.40 80.28Q431.40 70.64 436.43 65.30Q441.46 59.96 450.56 59.96L450.56 59.96Q456.22 59.96 460.55 62.42Q464.87 64.88 467.19 69.48Q469.51 74.09 469.51 80.28ZM489.09 45.30L489.09 100L478.37 100L478.37 45.30L489.09 45.30ZM512.79 100.70L512.79 100.70Q505.86 100.70 501.91 95.32Q497.95 89.95 497.95 80.42L497.95 80.42Q497.95 70.75 501.98 65.35Q506.00 59.96 513.07 59.96L513.07 59.96Q520.49 59.96 524.39 65.72L524.39 65.72L524.74 65.72Q523.93 61.33 523.93 57.88L523.93 57.88L523.93 45.30L534.69 45.30L534.69 100L526.46 100L524.39 94.90L523.93 94.90Q520.28 100.70 512.79 100.70ZM516.55 92.16L516.55 92.16Q520.66 92.16 522.58 89.77Q524.50 87.38 524.67 81.65L524.67 81.65L524.67 80.49Q524.67 74.16 522.72 71.42Q520.77 68.68 516.38 68.68L516.38 68.68Q512.79 68.68 510.80 71.72Q508.82 74.76 508.82 80.56L508.82 80.56Q508.82 86.36 510.82 89.26Q512.82 92.16 516.55 92.16Z"/></svg>