<svg xmlns="http://www.w3.org/2000/svg" viewBox="-0.2294921875 -7.7001953125 53.1298828125 10.1025390625"><path d="M6.26 0L5.34 0L2.63-5.66L1.69-1.18Q1.67-1.07 1.65-0.99Q1.64-0.91 1.64-0.87L1.64-0.87Q1.64-0.76 1.69-0.70Q1.75-0.63 1.85-0.59Q1.94-0.56 2.08-0.54Q2.21-0.53 2.37-0.53L2.37-0.53L2.40-0.53L2.29 0L-0.23 0L-0.12-0.53L0.01-0.53Q0.17-0.53 0.31-0.55Q0.46-0.57 0.59-0.63Q0.71-0.70 0.80-0.82Q0.89-0.93 0.93-1.13L0.93-1.13L1.95-5.93Q2.01-6.19 2.01-6.27L2.01-6.27Q2.01-6.38 1.96-6.45Q1.90-6.51 1.81-6.55Q1.71-6.59 1.58-6.60Q1.45-6.61 1.29-6.61L1.29-6.61L1.16-6.61L1.27-7.14L3.49-7.14L5.93-2.01L6.77-5.96Q6.82-6.19 6.82-6.27L6.82-6.27Q6.82-6.38 6.77-6.45Q6.71-6.51 6.61-6.55Q6.51-6.59 6.38-6.60Q6.25-6.61 6.09-6.61L6.09-6.61L6.06-6.61L6.17-7.14L8.69-7.14L8.58-6.61L8.45-6.61Q8.30-6.61 8.15-6.59Q8.00-6.57 7.88-6.50Q7.75-6.44 7.66-6.32Q7.57-6.21 7.53-6.01L7.53-6.01L6.26 0ZM8.28-2.00L8.28-2.00Q8.28-2.38 8.37-2.78Q8.46-3.18 8.64-3.56Q8.81-3.95 9.08-4.29Q9.35-4.64 9.71-4.90Q10.08-5.16 10.54-5.31Q11.00-5.46 11.56-5.46L11.56-5.46Q11.99-5.46 12.37-5.34Q12.75-5.22 13.04-4.97Q13.32-4.71 13.49-4.31Q13.65-3.92 13.65-3.36L13.65-3.36Q13.65-3.00 13.57-2.60Q13.49-2.21 13.31-1.82Q13.14-1.44 12.87-1.09Q12.61-0.74 12.25-0.48Q11.88-0.21 11.43-0.06Q10.97 0.10 10.40 0.10L10.40 0.10Q9.93 0.10 9.54-0.03Q9.15-0.16 8.87-0.42Q8.59-0.68 8.44-1.08Q8.28-1.47 8.28-2.00ZM10.58-0.62L10.58-0.62Q10.85-0.62 11.07-0.77Q11.28-0.93 11.46-1.18Q11.63-1.43 11.76-1.75Q11.88-2.08 11.97-2.42Q12.05-2.76 12.09-3.09Q12.13-3.42 12.13-3.68L12.13-3.68Q12.13-4.27 11.93-4.53Q11.72-4.79 11.37-4.79L11.37-4.79Q11.12-4.79 10.90-4.64Q10.69-4.50 10.52-4.25Q10.34-4.01 10.21-3.69Q10.08-3.38 9.99-3.04Q9.90-2.71 9.85-2.37Q9.81-2.04 9.81-1.76L9.81-1.76Q9.81-1.15 10.01-0.88Q10.22-0.62 10.58-0.62ZM16.76-0.72L16.76-0.72Q17.00-0.72 17.19-0.80Q17.38-0.87 17.54-0.98L17.54-0.98L17.77-0.60Q17.61-0.46 17.42-0.33Q17.24-0.21 17.03-0.11Q16.81-0.01 16.56 0.04Q16.32 0.10 16.03 0.10L16.03 0.10Q15.76 0.10 15.52 0.03Q15.28-0.04 15.11-0.19Q14.93-0.33 14.83-0.55Q14.73-0.77 14.73-1.07L14.73-1.07Q14.73-1.16 14.74-1.26Q14.75-1.37 14.76-1.48Q14.78-1.60 14.79-1.71Q14.81-1.82 14.83-1.91L14.83-1.91L15.43-4.68L14.66-4.68L14.77-5.19Q14.99-5.19 15.24-5.26Q15.49-5.34 15.76-5.50Q16.03-5.67 16.29-5.94Q16.56-6.21 16.79-6.59L16.79-6.59L17.37-6.59L17.11-5.36L18.32-5.36L18.18-4.68L16.96-4.68L16.36-1.94Q16.31-1.72 16.29-1.54Q16.26-1.36 16.26-1.22L16.26-1.22Q16.26-0.97 16.40-0.84Q16.54-0.72 16.76-0.72ZM18.63-2.00L18.63-2.00Q18.63-2.38 18.72-2.78Q18.81-3.18 18.99-3.56Q19.17-3.95 19.43-4.29Q19.70-4.64 20.07-4.90Q20.43-5.16 20.89-5.31Q21.35-5.46 21.91-5.46L21.91-5.46Q22.34-5.46 22.72-5.34Q23.11-5.22 23.39-4.97Q23.67-4.71 23.84-4.31Q24.00-3.92 24.00-3.36L24.00-3.36Q24.00-3.00 23.92-2.60Q23.84-2.21 23.66-1.82Q23.49-1.44 23.23-1.09Q22.96-0.74 22.60-0.48Q22.24-0.21 21.78-0.06Q21.32 0.10 20.75 0.10L20.75 0.10Q20.28 0.10 19.89-0.03Q19.50-0.16 19.22-0.42Q18.95-0.68 18.79-1.08Q18.63-1.47 18.63-2.00ZM20.93-0.62L20.93-0.62Q21.20-0.62 21.42-0.77Q21.64-0.93 21.81-1.18Q21.98-1.43 22.11-1.75Q22.24-2.08 22.32-2.42Q22.40-2.76 22.44-3.09Q22.48-3.42 22.48-3.68L22.48-3.68Q22.48-4.27 22.28-4.53Q22.08-4.79 21.72-4.79L21.72-4.79Q21.47-4.79 21.25-4.64Q21.04-4.50 20.87-4.25Q20.69-4.01 20.56-3.69Q20.43-3.38 20.34-3.04Q20.25-2.71 20.21-2.37Q20.16-2.04 20.16-1.76L20.16-1.76Q20.16-1.15 20.37-0.88Q20.57-0.62 20.93-0.62ZM29.62 0.10L29.62 0.10Q29.00 0.10 28.54-0.01Q28.08-0.13 27.77-0.32Q27.46-0.52 27.31-0.78Q27.15-1.05 27.15-1.36L27.15-1.36Q27.15-1.60 27.25-1.77Q27.34-1.95 27.52-2.07Q27.69-2.18 27.93-2.24Q28.16-2.30 28.45-2.30L28.45-2.30Q28.45-1.84 28.55-1.50Q28.65-1.17 28.82-0.94Q29.00-0.72 29.24-0.62Q29.49-0.51 29.78-0.51L29.78-0.51Q30.06-0.51 30.28-0.59Q30.50-0.67 30.66-0.81Q30.81-0.95 30.89-1.14Q30.97-1.32 30.97-1.54L30.97-1.54Q30.97-1.75 30.92-1.92Q30.87-2.10 30.73-2.27Q30.60-2.43 30.36-2.60Q30.12-2.77 29.74-2.98L29.74-2.98Q29.35-3.19 29.06-3.42Q28.76-3.65 28.56-3.91Q28.36-4.17 28.26-4.49Q28.16-4.80 28.16-5.20L28.16-5.20Q28.16-5.65 28.34-6.03Q28.53-6.40 28.86-6.67Q29.20-6.94 29.68-7.09Q30.16-7.24 30.75-7.24L30.75-7.24Q31.31-7.24 31.72-7.15Q32.14-7.07 32.41-6.91Q32.69-6.76 32.83-6.56Q32.96-6.35 32.96-6.12L32.96-6.12Q32.96-5.71 32.66-5.48Q32.35-5.25 31.65-5.25L31.65-5.25Q31.65-5.47 31.61-5.72Q31.56-5.96 31.45-6.16Q31.34-6.37 31.15-6.50Q30.96-6.63 30.66-6.63L30.66-6.63Q30.46-6.63 30.27-6.57Q30.07-6.50 29.91-6.38Q29.76-6.25 29.66-6.06Q29.56-5.86 29.56-5.60L29.56-5.60Q29.56-5.34 29.64-5.15Q29.73-4.97 29.89-4.81Q30.06-4.65 30.31-4.50Q30.56-4.35 30.89-4.17L30.89-4.17Q31.65-3.76 32.01-3.26Q32.37-2.77 32.37-2.13L32.37-2.13Q32.37-1.60 32.18-1.18Q31.99-0.77 31.63-0.48Q31.27-0.20 30.76-0.05Q30.25 0.10 29.62 0.10ZM35.89-0.66L35.89-0.66Q36.13-0.66 36.35-0.73Q36.57-0.80 36.76-0.92Q36.95-1.03 37.10-1.17Q37.25-1.32 37.35-1.47L37.35-1.47Q37.41-1.40 37.45-1.28Q37.48-1.17 37.48-1.04L37.48-1.04Q37.48-0.86 37.36-0.66Q37.25-0.46 37.00-0.29Q36.76-0.12 36.39-0.01Q36.02 0.10 35.50 0.10L35.50 0.10Q35.04 0.10 34.64-0.03Q34.23-0.16 33.93-0.41Q33.62-0.67 33.45-1.06Q33.27-1.45 33.27-1.97L33.27-1.97Q33.27-2.34 33.37-2.74Q33.47-3.15 33.66-3.54Q33.85-3.93 34.14-4.27Q34.42-4.62 34.80-4.89Q35.18-5.15 35.64-5.31Q36.11-5.46 36.66-5.46L36.66-5.46Q37.38-5.46 37.77-5.15Q38.17-4.84 38.17-4.28L38.17-4.28Q38.17-3.88 37.94-3.51Q37.72-3.13 37.32-2.85Q36.93-2.57 36.38-2.41Q35.83-2.24 35.19-2.24L35.19-2.24Q35.11-2.24 35.01-2.24Q34.91-2.24 34.82-2.25L34.82-2.25Q34.80-2.15 34.80-2.05Q34.80-1.95 34.80-1.87L34.80-1.87Q34.80-1.29 35.07-0.97Q35.34-0.66 35.89-0.66ZM36.24-4.86L36.24-4.86Q36.00-4.86 35.78-4.68Q35.56-4.49 35.38-4.20Q35.21-3.91 35.08-3.54Q34.95-3.18 34.89-2.82L34.89-2.82L34.98-2.82Q35.35-2.82 35.67-2.92Q35.99-3.02 36.23-3.20Q36.46-3.38 36.60-3.64Q36.73-3.89 36.73-4.21L36.73-4.21Q36.73-4.52 36.60-4.69Q36.47-4.86 36.24-4.86ZM39.50-4.48L39.50-4.48Q39.50-4.67 39.38-4.75Q39.26-4.83 38.97-4.83L38.97-4.83L38.79-4.83L38.88-5.36L41.09-5.36L40.88-3.99L40.93-3.99Q41.10-4.35 41.28-4.62Q41.45-4.90 41.66-5.08Q41.87-5.27 42.13-5.36Q42.39-5.46 42.74-5.46L42.74-5.46Q43.28-5.46 43.54-5.26Q43.79-5.06 43.79-4.68L43.79-4.68Q43.79-4.16 43.49-3.91Q43.19-3.65 42.61-3.65L42.61-3.65Q42.61-3.88 42.59-4.06Q42.57-4.24 42.51-4.37Q42.46-4.50 42.36-4.57Q42.27-4.64 42.12-4.64L42.12-4.64Q41.98-4.64 41.83-4.52Q41.67-4.41 41.51-4.21Q41.36-4.01 41.21-3.73Q41.06-3.46 40.92-3.13Q40.79-2.81 40.67-2.45Q40.56-2.09 40.48-1.73L40.48-1.73L40.10 0L38.59 0L39.44-4.02Q39.46-4.10 39.48-4.24Q39.50-4.38 39.50-4.48ZM44.39-5.36L46.76-5.36L46.07-2.11Q46.01-1.84 45.97-1.60Q45.93-1.36 45.93-1.15L45.93-1.15Q45.93-0.93 46.02-0.82Q46.11-0.70 46.28-0.70L46.28-0.70Q46.44-0.70 46.57-0.76Q46.70-0.82 46.87-0.93L46.87-0.93L47.11-0.59Q46.99-0.46 46.84-0.34Q46.69-0.21 46.50-0.12Q46.31-0.02 46.08 0.04Q45.85 0.10 45.58 0.10L45.58 0.10Q45.00 0.10 44.70-0.17Q44.39-0.44 44.39-0.93L44.39-0.93Q44.39-1.14 44.43-1.44Q44.47-1.74 44.55-2.12L44.55-2.12L44.94-3.98Q44.96-4.04 44.97-4.11Q44.98-4.18 44.99-4.24Q45-4.30 45.00-4.35Q45.01-4.39 45.01-4.41L45.01-4.41Q45.01-4.55 44.98-4.63Q44.95-4.71 44.89-4.76Q44.82-4.80 44.72-4.81Q44.62-4.83 44.48-4.83L44.48-4.83L44.30-4.83L44.39-5.36ZM46.07-6.26L46.07-6.26Q45.90-6.26 45.76-6.30Q45.62-6.33 45.52-6.41Q45.41-6.49 45.35-6.61Q45.29-6.72 45.29-6.88L45.29-6.88Q45.29-7.10 45.36-7.25Q45.44-7.41 45.57-7.51Q45.69-7.61 45.86-7.65Q46.04-7.70 46.22-7.70L46.22-7.70Q46.38-7.70 46.53-7.67Q46.67-7.63 46.78-7.55Q46.89-7.48 46.96-7.36Q47.02-7.24 47.02-7.07L47.02-7.07Q47.02-6.87 46.94-6.71Q46.86-6.56 46.73-6.46Q46.59-6.36 46.42-6.31Q46.25-6.26 46.07-6.26ZM51.66-5.36L51.52-4.68L50.25-4.68L49.30-0.21Q49.19 0.32 49.01 0.72Q48.83 1.12 48.61 1.41Q48.39 1.70 48.13 1.89Q47.87 2.08 47.60 2.20Q47.32 2.31 47.04 2.36Q46.76 2.40 46.49 2.40L46.49 2.40Q46.42 2.40 46.33 2.40Q46.24 2.39 46.16 2.38Q46.07 2.36 46.00 2.35Q45.93 2.33 45.88 2.32L45.88 2.32L46.00 1.74Q46.08 1.76 46.22 1.79Q46.35 1.81 46.46 1.81L46.46 1.81Q46.70 1.81 46.89 1.73Q47.08 1.65 47.23 1.45Q47.38 1.25 47.50 0.92Q47.62 0.59 47.72 0.09L47.72 0.09L48.73-4.68L47.82-4.68L47.92-5.15L48.88-5.36L48.96-5.73Q49.08-6.23 49.27-6.59Q49.47-6.96 49.76-7.21Q50.04-7.46 50.43-7.58Q50.82-7.70 51.33-7.70L51.33-7.70Q51.71-7.70 52.01-7.63Q52.30-7.56 52.50-7.45Q52.70-7.33 52.80-7.17Q52.90-7.01 52.90-6.83L52.90-6.83Q52.90-6.50 52.61-6.31Q52.31-6.13 51.75-6.13L51.75-6.13Q51.75-6.32 51.73-6.50Q51.71-6.67 51.66-6.81Q51.60-6.95 51.51-7.03Q51.43-7.11 51.29-7.11L51.29-7.11Q50.97-7.11 50.80-6.84Q50.63-6.56 50.53-6.00L50.53-6.00L50.40-5.36L51.66-5.36Z"/></svg>