<svg xmlns="http://www.w3.org/2000/svg" viewBox="0.9716796875 -7.2412109375 46.552734375 7.3388671875"><path d="M6.63-7.14L6.63 0L5.58 0L1.76-5.93L1.72-5.93L1.74-5.53Q1.80-4.64 1.80-3.99L1.80-3.99L1.80 0L0.97 0L0.97-7.14L2.01-7.14L2.23-6.79L4.58-3.17L5.82-1.23L5.86-1.23Q5.85-1.35 5.82-2.07Q5.79-2.79 5.79-3.11L5.79-3.11L5.79-7.14L6.63-7.14ZM13.11-2.69L13.11-2.69Q13.11-1.38 12.44-0.64Q11.78 0.10 10.61 0.10L10.61 0.10Q9.88 0.10 9.32-0.24Q8.75-0.58 8.45-1.22Q8.15-1.85 8.15-2.69L8.15-2.69Q8.15-4.00 8.80-4.73Q9.46-5.46 10.64-5.46L10.64-5.46Q11.77-5.46 12.44-4.71Q13.11-3.97 13.11-2.69ZM9.06-2.69L9.06-2.69Q9.06-1.68 9.46-1.15Q9.85-0.63 10.63-0.63L10.63-0.63Q11.40-0.63 11.80-1.15Q12.20-1.68 12.20-2.69L12.20-2.69Q12.20-3.70 11.79-4.21Q11.39-4.72 10.62-4.72L10.62-4.72Q9.06-4.72 9.06-2.69ZM16.29-0.62L16.29-0.62Q16.46-0.62 16.69-0.65Q16.92-0.69 17.04-0.73L17.04-0.73L17.04-0.06Q16.91-0.00 16.66 0.05Q16.40 0.10 16.14 0.10L16.14 0.10Q14.57 0.10 14.57-1.56L14.57-1.56L14.57-4.68L13.81-4.68L13.81-5.10L14.58-5.45L14.93-6.59L15.45-6.59L15.45-5.36L17.00-5.36L17.00-4.68L15.45-4.68L15.45-1.58Q15.45-1.12 15.67-0.87Q15.89-0.62 16.29-0.62ZM22.76-2.69L22.76-2.69Q22.76-1.38 22.10-0.64Q21.44 0.10 20.26 0.10L20.26 0.10Q19.54 0.10 18.97-0.24Q18.41-0.58 18.11-1.22Q17.81-1.85 17.81-2.69L17.81-2.69Q17.81-4.00 18.46-4.73Q19.12-5.46 20.30-5.46L20.30-5.46Q21.43-5.46 22.10-4.71Q22.76-3.97 22.76-2.69ZM18.72-2.69L18.72-2.69Q18.72-1.68 19.11-1.15Q19.51-0.63 20.29-0.63L20.29-0.63Q21.05-0.63 21.46-1.15Q21.86-1.68 21.86-2.69L21.86-2.69Q21.86-3.70 21.45-4.21Q21.05-4.72 20.27-4.72L20.27-4.72Q18.72-4.72 18.72-2.69ZM30.92-1.91L30.92-1.91Q30.92-0.98 30.25-0.44Q29.58 0.10 28.37 0.10L28.37 0.10Q27.10 0.10 26.41-0.24L26.41-0.24L26.41-1.10Q26.87-0.90 27.40-0.79Q27.94-0.68 28.41-0.68L28.41-0.68Q29.21-0.68 29.62-0.99Q30.02-1.29 30.02-1.83L30.02-1.83Q30.02-2.19 29.88-2.42Q29.73-2.65 29.39-2.85Q29.04-3.05 28.34-3.30L28.34-3.30Q27.35-3.66 26.93-4.15Q26.50-4.64 26.50-5.42L26.50-5.42Q26.50-6.25 27.13-6.75Q27.76-7.24 28.78-7.24L28.78-7.24Q29.85-7.24 30.75-6.84L30.75-6.84L30.47-6.07Q29.56-6.45 28.76-6.45L28.76-6.45Q28.13-6.45 27.77-6.18Q27.41-5.90 27.41-5.41L27.41-5.41Q27.41-5.06 27.55-4.83Q27.69-4.59 28.00-4.40Q28.31-4.21 28.97-3.97L28.97-3.97Q29.77-3.68 30.16-3.40Q30.55-3.13 30.74-2.77Q30.92-2.41 30.92-1.91ZM36.19 0L35.55 0L35.38-0.76L35.34-0.76Q34.94-0.26 34.54-0.08Q34.15 0.10 33.54 0.10L33.54 0.10Q32.75 0.10 32.30-0.32Q31.85-0.73 31.85-1.49L31.85-1.49Q31.85-3.12 34.42-3.20L34.42-3.20L35.33-3.23L35.33-3.55Q35.33-4.16 35.07-4.45Q34.80-4.74 34.22-4.74L34.22-4.74Q33.80-4.74 33.42-4.61Q33.04-4.49 32.71-4.33L32.71-4.33L32.44-4.99Q32.85-5.21 33.33-5.33Q33.80-5.45 34.27-5.45L34.27-5.45Q35.24-5.45 35.72-5.02Q36.19-4.59 36.19-3.65L36.19-3.65L36.19 0ZM33.74-0.61L33.74-0.61Q34.48-0.61 34.90-1.01Q35.32-1.41 35.32-2.14L35.32-2.14L35.32-2.62L34.53-2.59Q33.61-2.55 33.19-2.29Q32.76-2.04 32.76-1.48L32.76-1.48Q32.76-1.06 33.02-0.83Q33.28-0.61 33.74-0.61ZM42.37 0L41.50 0L41.50-3.43Q41.50-4.08 41.21-4.40Q40.92-4.72 40.30-4.72L40.30-4.72Q39.48-4.72 39.10-4.27Q38.73-3.81 38.73-2.78L38.73-2.78L38.73 0L37.85 0L37.85-5.36L38.56-5.36L38.69-4.63L38.74-4.63Q38.99-5.02 39.44-5.24Q39.89-5.46 40.43-5.46L40.43-5.46Q41.42-5.46 41.89-4.98Q42.37-4.50 42.37-3.49L42.37-3.49L42.37 0ZM47.52-1.48L47.52-1.48Q47.52-0.73 46.96-0.31Q46.40 0.10 45.39 0.10L45.39 0.10Q44.33 0.10 43.70-0.24L43.70-0.24L43.70-1.04Q44.58-0.61 45.41-0.61L45.41-0.61Q46.07-0.61 46.37-0.83Q46.67-1.04 46.67-1.40L46.67-1.40Q46.67-1.72 46.38-1.94Q46.09-2.16 45.35-2.44L45.35-2.44Q44.59-2.73 44.29-2.94Q43.98-3.15 43.84-3.41Q43.69-3.67 43.69-4.04L43.69-4.04Q43.69-4.70 44.23-5.08Q44.77-5.46 45.70-5.46L45.70-5.46Q46.62-5.46 47.41-5.10L47.41-5.10L47.11-4.40Q46.30-4.74 45.64-4.74L45.64-4.74Q45.10-4.74 44.81-4.57Q44.53-4.39 44.53-4.09L44.53-4.09Q44.53-3.80 44.78-3.61Q45.02-3.41 45.91-3.07L45.91-3.07Q46.58-2.82 46.90-2.61Q47.22-2.39 47.37-2.12Q47.52-1.86 47.52-1.48Z"/></svg>