<svg xmlns="http://www.w3.org/2000/svg" viewBox="0.400390625 -7.2412109375 44.4873046875 7.3388671875"><path d="M7.12-7.14L5.61 0L4.66 0L2.45-5.92L2.42-5.92Q2.32-5.08 2.06-3.88L2.06-3.88L1.24 0L0.40 0L1.91-7.14L2.86-7.14L5.05-1.24L5.08-1.24Q5.14-1.69 5.25-2.30Q5.36-2.91 5.43-3.21L5.43-3.21L6.27-7.14L7.12-7.14ZM11.33-3.46L11.33-3.46Q11.33-4.02 11.04-4.36Q10.74-4.70 10.24-4.70L10.24-4.70Q9.72-4.70 9.31-4.34Q8.89-3.98 8.67-3.34Q8.44-2.71 8.44-1.95L8.44-1.95Q8.44-1.32 8.74-0.99Q9.04-0.65 9.60-0.65L9.60-0.65Q10.09-0.65 10.49-1.00Q10.88-1.35 11.11-1.99Q11.33-2.63 11.33-3.46ZM12.23-3.36L12.23-3.36Q12.23-2.43 11.88-1.62Q11.53-0.81 10.92-0.36Q10.32 0.08 9.55 0.08L9.55 0.08Q8.61 0.08 8.08-0.48Q7.55-1.04 7.55-1.98L7.55-1.98Q7.55-2.92 7.91-3.74Q8.27-4.56 8.87-5.00Q9.48-5.43 10.23-5.43L10.23-5.43Q11.16-5.43 11.70-4.88Q12.23-4.32 12.23-3.36ZM14.68-0.62L14.68-0.62Q14.99-0.62 15.39-0.75L15.39-0.75L15.39-0.08Q15.25-0.01 15.00 0.04Q14.74 0.10 14.55 0.10L14.55 0.10Q13.93 0.10 13.60-0.20Q13.27-0.49 13.27-1.07L13.27-1.07Q13.27-1.38 13.36-1.78L13.36-1.78L13.97-4.69L13.14-4.69L13.22-5.09L14.12-5.47L14.74-6.58L15.26-6.58L14.99-5.36L16.34-5.36L16.20-4.69L14.86-4.69L14.24-1.77Q14.15-1.37 14.15-1.17L14.15-1.17Q14.15-0.94 14.27-0.78Q14.39-0.62 14.68-0.62ZM20.28-3.46L20.28-3.46Q20.28-4.02 19.99-4.36Q19.69-4.70 19.19-4.70L19.19-4.70Q18.67-4.70 18.26-4.34Q17.84-3.98 17.62-3.34Q17.39-2.71 17.39-1.95L17.39-1.95Q17.39-1.32 17.69-0.99Q17.99-0.65 18.55-0.65L18.55-0.65Q19.04-0.65 19.44-1.00Q19.83-1.35 20.06-1.99Q20.28-2.63 20.28-3.46ZM21.18-3.36L21.18-3.36Q21.18-2.43 20.83-1.62Q20.48-0.81 19.87-0.36Q19.27 0.08 18.50 0.08L18.50 0.08Q17.56 0.08 17.03-0.48Q16.50-1.04 16.50-1.98L16.50-1.98Q16.50-2.92 16.86-3.74Q17.22-4.56 17.82-5.00Q18.43-5.43 19.18-5.43L19.18-5.43Q20.11-5.43 20.65-4.88Q21.18-4.32 21.18-3.36ZM28.72-2.07L28.72-2.07Q28.72-1.05 28.03-0.48Q27.35 0.10 26.10 0.10L26.10 0.10Q25.10 0.10 24.44-0.22L24.44-0.22L24.44-1.10Q25.25-0.68 26.11-0.68L26.11-0.68Q26.87-0.68 27.32-1.03Q27.78-1.38 27.78-2.00L27.78-2.00Q27.78-2.37 27.54-2.66Q27.29-2.94 26.60-3.34L26.60-3.34Q25.85-3.77 25.58-4.19Q25.30-4.61 25.30-5.17L25.30-5.17Q25.30-5.78 25.60-6.25Q25.89-6.72 26.44-6.98Q26.98-7.24 27.65-7.24L27.65-7.24Q28.62-7.24 29.44-6.82L29.44-6.82L29.10-6.06Q28.78-6.24 28.39-6.34Q28.00-6.45 27.65-6.45L27.65-6.45Q27.02-6.45 26.63-6.12Q26.25-5.79 26.25-5.23L26.25-5.23Q26.25-4.85 26.44-4.60Q26.63-4.35 27.27-3.98L27.27-3.98Q27.96-3.55 28.21-3.31Q28.46-3.06 28.59-2.76Q28.72-2.47 28.72-2.07ZM31.23 0.10L31.23 0.10Q30.56 0.10 30.17-0.38Q29.78-0.86 29.78-1.73L29.78-1.73Q29.78-2.73 30.12-3.60Q30.46-4.46 31.07-4.96Q31.67-5.46 32.41-5.46L32.41-5.46Q32.86-5.46 33.21-5.22Q33.55-4.98 33.75-4.53L33.75-4.53L33.81-4.53L34.13-5.36L34.79-5.36L33.66 0L32.96 0L33.09-0.99L33.05-0.99Q32.20 0.10 31.23 0.10ZM31.52-0.63L31.52-0.63Q31.98-0.63 32.44-1.07Q32.90-1.51 33.18-2.21Q33.46-2.92 33.46-3.65L33.46-3.65Q33.46-4.13 33.19-4.43Q32.93-4.72 32.50-4.72L32.50-4.72Q32.00-4.72 31.58-4.31Q31.16-3.90 30.92-3.20Q30.68-2.50 30.68-1.71L30.68-1.71Q30.68-1.17 30.90-0.90Q31.12-0.63 31.52-0.63ZM40.10-3.26L39.39 0L38.52 0L39.22-3.36Q39.33-3.84 39.33-4.05L39.33-4.05Q39.33-4.36 39.16-4.54Q38.98-4.72 38.61-4.72L38.61-4.72Q38.19-4.72 37.80-4.43Q37.40-4.15 37.09-3.60Q36.78-3.06 36.63-2.31L36.63-2.31L36.14 0L35.25 0L36.40-5.36L37.11-5.36L37.01-4.37L37.06-4.37Q37.38-4.79 37.64-5Q37.91-5.21 38.21-5.33Q38.52-5.46 38.86-5.46L38.86-5.46Q39.49-5.46 39.85-5.11Q40.21-4.77 40.21-4.14L40.21-4.14Q40.21-3.76 40.10-3.26L40.10-3.26ZM44.39-1.55L44.39-1.55Q44.39-0.77 43.85-0.34Q43.31 0.10 42.31 0.10L42.31 0.10Q41.44 0.10 40.82-0.24L40.82-0.24L40.82-1.05Q41.13-0.85 41.52-0.74Q41.91-0.62 42.29-0.62L42.29-0.62Q42.88-0.62 43.19-0.85Q43.50-1.08 43.50-1.46L43.50-1.46Q43.50-1.73 43.33-1.92Q43.16-2.11 42.60-2.43L42.60-2.43Q41.97-2.78 41.71-3.13Q41.45-3.48 41.45-3.94L41.45-3.94Q41.45-4.62 41.94-5.04Q42.44-5.46 43.27-5.46L43.27-5.46Q44.10-5.46 44.89-5.09L44.89-5.09L44.60-4.39Q44.35-4.51 44.02-4.62Q43.70-4.72 43.27-4.72L43.27-4.72Q42.84-4.72 42.58-4.52Q42.32-4.32 42.32-3.99L42.32-3.99Q42.32-3.72 42.50-3.53Q42.68-3.34 43.21-3.05L43.21-3.05Q43.76-2.72 43.97-2.52Q44.17-2.32 44.28-2.08Q44.39-1.85 44.39-1.55Z"/></svg>