<svg xmlns="http://www.w3.org/2000/svg" viewBox="2.7421875 44.55859375 611.89453125 72.73828125"><path d="M46.09 100L40.96 100L13.96 58.52L13.96 91.81Q13.96 93.50 14.43 94.52Q14.91 95.54 15.70 96.08Q16.49 96.63 17.58 96.80Q18.67 96.98 19.86 96.98L19.86 96.98L20.81 96.98L20.81 100L2.74 100L2.74 96.98L3.66 96.98Q4.89 96.98 5.96 96.80Q7.03 96.63 7.84 96.08Q8.65 95.54 9.11 94.52Q9.56 93.50 9.56 91.81L9.56 91.81L9.56 56.51Q9.56 54.93 9.09 53.96Q8.61 53.00 7.80 52.47Q7.00 51.94 5.92 51.78Q4.85 51.63 3.66 51.63L3.66 51.63L2.74 51.63L2.74 48.60L15.93 48.60L41.70 88.40L41.70 56.51Q41.70 54.93 41.22 53.96Q40.75 53.00 39.94 52.47Q39.13 51.94 38.06 51.78Q36.98 51.63 35.79 51.63L35.79 51.63L34.84 51.63L34.84 48.60L52.91 48.60L52.91 51.63L52.00 51.63Q50.77 51.63 49.69 51.80Q48.62 51.98 47.81 52.52Q47.00 53.07 46.55 54.09Q46.09 55.11 46.09 56.79L46.09 56.79L46.09 100ZM92.53 80.63L92.53 80.63Q92.53 90.79 88.22 95.75Q83.92 100.70 75.62 100.70L75.62 100.70Q71.72 100.70 68.63 99.47Q65.53 98.24 63.37 95.75Q61.21 93.25 60.06 89.47Q58.92 85.69 58.92 80.63L58.92 80.63Q58.92 70.54 63.19 65.62Q67.46 60.70 75.83 60.70L75.83 60.70Q79.73 60.70 82.83 61.91Q85.92 63.12 88.08 65.60Q90.25 68.08 91.39 71.82Q92.53 75.57 92.53 80.63ZM65.88 80.63L65.88 80.63Q65.88 84.64 66.41 87.70Q66.94 90.75 68.12 92.81Q69.29 94.87 71.17 95.92Q73.05 96.98 75.76 96.98L75.76 96.98Q78.47 96.98 80.33 95.92Q82.20 94.87 83.36 92.81Q84.52 90.75 85.03 87.70Q85.54 84.64 85.54 80.63L85.54 80.63Q85.54 76.62 85.01 73.60Q84.48 70.57 83.32 68.55Q82.16 66.53 80.28 65.51Q78.40 64.49 75.69 64.49L75.69 64.49Q72.98 64.49 71.12 65.51Q69.26 66.53 68.10 68.55Q66.94 70.57 66.41 73.60Q65.88 76.62 65.88 80.63ZM115.59 96.91L115.59 96.91Q116.89 96.91 117.98 96.77Q119.07 96.63 120.20 96.41L120.20 96.41L120.20 99.58Q119.74 99.79 119.00 100Q118.27 100.21 117.40 100.37Q116.54 100.53 115.59 100.62Q114.64 100.70 113.80 100.70L113.80 100.70Q111.06 100.70 109.09 100.12Q107.12 99.54 105.86 98.24Q104.59 96.94 103.97 94.80Q103.36 92.65 103.36 89.56L103.36 89.56L103.36 65.51L97.88 65.51L97.88 62.63Q99.18 62.63 100.74 62.10Q102.30 61.57 103.50 60.34L103.50 60.34Q104.73 59.01 105.49 57.16Q106.24 55.32 106.80 52.54L106.80 52.54L110.11 52.54L110.11 61.40L119.53 61.40L119.53 65.51L110.11 65.51L110.11 89.77Q110.11 93.46 111.60 95.18Q113.10 96.91 115.59 96.91ZM159.43 80.63L159.43 80.63Q159.43 90.79 155.13 95.75Q150.82 100.70 142.52 100.70L142.52 100.70Q138.62 100.70 135.53 99.47Q132.43 98.24 130.27 95.75Q128.11 93.25 126.97 89.47Q125.82 85.69 125.82 80.63L125.82 80.63Q125.82 70.54 130.10 65.62Q134.37 60.70 142.73 60.70L142.73 60.70Q146.64 60.70 149.73 61.91Q152.82 63.12 154.99 65.60Q157.15 68.08 158.29 71.82Q159.43 75.57 159.43 80.63ZM132.79 80.63L132.79 80.63Q132.79 84.64 133.31 87.70Q133.84 90.75 135.02 92.81Q136.20 94.87 138.08 95.92Q139.96 96.98 142.66 96.98L142.66 96.98Q145.37 96.98 147.23 95.92Q149.10 94.87 150.26 92.81Q151.42 90.75 151.93 87.70Q152.44 84.64 152.44 80.63L152.44 80.63Q152.44 76.62 151.91 73.60Q151.38 70.57 150.22 68.55Q149.06 66.53 147.18 65.51Q145.30 64.49 142.59 64.49L142.59 64.49Q139.89 64.49 138.02 65.51Q136.16 66.53 135 68.55Q133.84 70.57 133.31 73.60Q132.79 76.62 132.79 80.63ZM199.90 100.70L199.90 100.70Q196.38 100.70 193.69 99.96Q191.00 99.23 189.19 97.91Q187.38 96.59 186.47 94.71Q185.55 92.83 185.55 90.58L185.55 90.58Q185.55 88.40 186.91 87.06Q188.26 85.73 190.76 85.73L190.76 85.73Q190.86 87.98 191.44 90.05Q192.02 92.13 193.18 93.71Q194.34 95.29 196.14 96.24Q197.93 97.19 200.46 97.19L200.46 97.19Q205.31 97.19 208.04 94.85Q210.76 92.51 210.76 88.12L210.76 88.12Q210.76 86.15 210.20 84.64Q209.64 83.13 208.34 81.84Q207.04 80.56 204.91 79.38Q202.78 78.20 199.62 76.90L199.62 76.90Q196.28 75.53 193.78 73.97Q191.29 72.40 189.63 70.49Q187.98 68.57 187.17 66.21Q186.36 63.86 186.36 60.91L186.36 60.91Q186.36 57.81 187.54 55.39Q188.72 52.96 190.83 51.29Q192.94 49.62 195.82 48.74Q198.70 47.86 202.11 47.86L202.11 47.86Q205.35 47.86 207.84 48.53Q210.34 49.20 212.06 50.32Q213.79 51.45 214.68 52.91Q215.58 54.37 215.58 55.95L215.58 55.95Q215.58 58.27 214.05 59.45Q212.52 60.63 209.92 60.63L209.92 60.63Q209.92 58.94 209.51 57.30Q209.11 55.67 208.16 54.38Q207.21 53.10 205.66 52.29Q204.12 51.48 201.83 51.48L201.83 51.48Q199.76 51.48 198.12 52.06Q196.49 52.64 195.36 53.72Q194.24 54.79 193.64 56.30Q193.04 57.81 193.04 59.68L193.04 59.68Q193.04 61.82 193.61 63.46Q194.17 65.09 195.49 66.41Q196.80 67.73 198.95 68.90Q201.09 70.08 204.22 71.35L204.22 71.35Q207.39 72.65 209.87 74.09Q212.34 75.53 214.07 77.31Q215.79 79.08 216.70 81.28Q217.62 83.48 217.62 86.25L217.62 86.25Q217.62 89.66 216.37 92.35Q215.12 95.04 212.80 96.91Q210.48 98.77 207.21 99.74Q203.94 100.70 199.90 100.70ZM241.07 64.56L241.07 64.56Q237.06 64.56 234.90 67.81Q232.73 71.07 232.35 77.32L232.35 77.32L248.91 77.32Q248.91 74.48 248.48 72.12Q248.06 69.77 247.15 68.08Q246.23 66.39 244.74 65.48Q243.25 64.56 241.07 64.56ZM241.95 100.70L241.95 100.70Q238.04 100.70 234.93 99.38Q231.82 98.07 229.68 95.54Q227.53 93.00 226.39 89.33Q225.25 85.66 225.25 80.98L225.25 80.98Q225.25 70.89 229.39 65.79Q233.54 60.70 241.21 60.70L241.21 60.70Q244.69 60.70 247.46 61.79Q250.24 62.88 252.18 65.04Q254.11 67.20 255.15 70.42Q256.18 73.63 256.18 77.89L256.18 77.89L256.18 81.19L232.21 81.19Q232.28 85.13 233.00 87.96Q233.72 90.79 235.07 92.62Q236.43 94.45 238.39 95.31Q240.36 96.17 242.93 96.17L242.93 96.17Q244.79 96.17 246.39 95.75Q247.99 95.32 249.29 94.62Q250.59 93.92 251.60 93.02Q252.60 92.13 253.23 91.14L253.23 91.14Q253.72 91.35 254.16 92.02Q254.60 92.69 254.60 93.60L254.60 93.60Q254.60 94.69 253.83 95.94Q253.05 97.19 251.47 98.24Q249.89 99.30 247.52 100Q245.14 100.70 241.95 100.70ZM282.97 96.98L282.97 100L262.20 100L262.20 96.98L262.41 96.98Q263.64 96.98 264.71 96.80Q265.78 96.63 266.57 96.08Q267.36 95.54 267.84 94.52Q268.31 93.50 268.31 91.81L268.31 91.81L268.31 69.34Q268.31 67.76 267.84 66.79Q267.36 65.83 266.55 65.30Q265.75 64.77 264.67 64.60Q263.60 64.42 262.41 64.42L262.41 64.42L262.20 64.42L262.20 61.40L273.27 61.40L274.64 68.54L274.99 68.54Q275.70 66.92 276.43 65.49Q277.17 64.07 278.24 63.00Q279.32 61.93 280.90 61.31Q282.48 60.70 284.87 60.70L284.87 60.70Q288.81 60.70 290.72 62.07Q292.64 63.44 292.64 65.93L292.64 65.93Q292.64 67.06 292.27 68.01Q291.90 68.96 291.09 69.64Q290.29 70.33 289.02 70.70Q287.75 71.07 285.93 71.07L285.93 71.07Q285.93 68.08 285.08 66.76Q284.24 65.44 282.13 65.44L282.13 65.44Q280.79 65.44 279.74 66.20Q278.68 66.95 277.89 68.20Q277.10 69.45 276.56 71.07Q276.01 72.68 275.68 74.39Q275.34 76.09 275.20 77.78Q275.06 79.47 275.06 80.84L275.06 80.84L275.06 92.16Q275.06 93.74 275.54 94.71Q276.01 95.68 276.82 96.17Q277.63 96.66 278.70 96.82Q279.77 96.98 280.97 96.98L280.97 96.98L282.97 96.98ZM295.38 96.98L296.33 96.98Q297.53 96.98 298.60 96.82Q299.67 96.66 300.48 96.17Q301.29 95.68 301.76 94.71Q302.24 93.74 302.24 92.16L302.24 92.16L302.24 69.34Q302.24 67.76 301.76 66.79Q301.29 65.83 300.48 65.30Q299.67 64.77 298.60 64.60Q297.53 64.42 296.33 64.42L296.33 64.42L296.12 64.42L296.12 61.40L308.99 61.40L308.99 91.81Q308.99 93.50 309.46 94.52Q309.94 95.54 310.73 96.08Q311.52 96.63 312.61 96.80Q313.70 96.98 314.89 96.98L314.89 96.98L315.84 96.98L315.84 100L295.38 100L295.38 96.98ZM301.22 49.73L301.22 49.73Q301.22 48.46 301.54 47.62Q301.85 46.77 302.41 46.25Q302.98 45.72 303.71 45.51Q304.45 45.30 305.33 45.30L305.33 45.30Q306.18 45.30 306.91 45.51Q307.65 45.72 308.20 46.25Q308.74 46.77 309.08 47.62Q309.41 48.46 309.41 49.73L309.41 49.73Q309.41 50.99 309.08 51.84Q308.74 52.68 308.20 53.21Q307.65 53.73 306.91 53.96Q306.18 54.19 305.33 54.19L305.33 54.19Q304.45 54.19 303.71 53.96Q302.98 53.73 302.41 53.21Q301.85 52.68 301.54 51.84Q301.22 50.99 301.22 49.73ZM338.20 96.98L340.95 96.98L340.95 100L318.69 100L318.69 96.98L319.64 96.98Q320.87 96.98 321.94 96.80Q323.02 96.63 323.81 96.08Q324.60 95.54 325.07 94.52Q325.55 93.50 325.55 91.81L325.55 91.81L325.55 64.81L318.97 64.81L318.97 61.40L325.55 61.40L325.55 57.81Q325.55 54.58 326.43 52.12Q327.30 49.66 328.96 47.97Q330.61 46.28 332.96 45.42Q335.32 44.56 338.27 44.56L338.27 44.56Q341.09 44.56 343.02 44.93Q344.95 45.30 346.13 45.96Q347.31 46.63 347.84 47.55Q348.36 48.46 348.36 49.59L348.36 49.59Q348.36 50.57 347.92 51.33Q347.48 52.08 346.69 52.59Q345.90 53.10 344.83 53.37Q343.76 53.63 342.46 53.63L342.46 53.63Q342.46 52.54 342.23 51.50Q342 50.46 341.46 49.66Q340.91 48.85 340.00 48.36Q339.08 47.86 337.71 47.86L337.71 47.86Q336.16 47.86 335.13 48.46Q334.09 49.06 333.46 50.24Q332.82 51.41 332.56 53.14Q332.30 54.86 332.30 57.14L332.30 57.14L332.30 61.40L342.46 61.40L342.46 64.81L332.30 64.81L332.30 91.81Q332.30 93.50 332.77 94.52Q333.25 95.54 334.04 96.08Q334.83 96.63 335.92 96.80Q337.01 96.98 338.20 96.98L338.20 96.98ZM385.21 96.98L385.21 100L364.43 100L364.43 96.98L364.64 96.98Q365.87 96.98 366.94 96.80Q368.02 96.63 368.81 96.08Q369.60 95.54 370.07 94.52Q370.55 93.50 370.55 91.81L370.55 91.81L370.55 69.34Q370.55 67.76 370.07 66.79Q369.60 65.83 368.79 65.30Q367.98 64.77 366.91 64.60Q365.84 64.42 364.64 64.42L364.64 64.42L364.43 64.42L364.43 61.40L375.50 61.40L376.88 68.54L377.23 68.54Q377.93 66.92 378.67 65.49Q379.41 64.07 380.48 63.00Q381.55 61.93 383.13 61.31Q384.71 60.70 387.11 60.70L387.11 60.70Q391.04 60.70 392.96 62.07Q394.88 63.44 394.88 65.93L394.88 65.93Q394.88 67.06 394.51 68.01Q394.14 68.96 393.33 69.64Q392.52 70.33 391.25 70.70Q389.99 71.07 388.16 71.07L388.16 71.07Q388.16 68.08 387.32 66.76Q386.47 65.44 384.36 65.44L384.36 65.44Q383.03 65.44 381.97 66.20Q380.92 66.95 380.13 68.20Q379.34 69.45 378.79 71.07Q378.25 72.68 377.91 74.39Q377.58 76.09 377.44 77.78Q377.30 79.47 377.30 80.84L377.30 80.84L377.30 92.16Q377.30 93.74 377.77 94.71Q378.25 95.68 379.05 96.17Q379.86 96.66 380.94 96.82Q382.01 96.98 383.20 96.98L383.20 96.98L385.21 96.98ZM415.76 64.56L415.76 64.56Q411.75 64.56 409.59 67.81Q407.43 71.07 407.04 77.32L407.04 77.32L423.60 77.32Q423.60 74.48 423.18 72.12Q422.75 69.77 421.84 68.08Q420.93 66.39 419.43 65.48Q417.94 64.56 415.76 64.56ZM416.64 100.70L416.64 100.70Q412.73 100.70 409.62 99.38Q406.51 98.07 404.37 95.54Q402.22 93.00 401.08 89.33Q399.94 85.66 399.94 80.98L399.94 80.98Q399.94 70.89 404.09 65.79Q408.23 60.70 415.90 60.70L415.90 60.70Q419.38 60.70 422.16 61.79Q424.93 62.88 426.87 65.04Q428.80 67.20 429.84 70.42Q430.88 73.63 430.88 77.89L430.88 77.89L430.88 81.19L406.90 81.19Q406.97 85.13 407.69 87.96Q408.41 90.79 409.76 92.62Q411.12 94.45 413.09 95.31Q415.05 96.17 417.62 96.17L417.62 96.17Q419.48 96.17 421.08 95.75Q422.68 95.32 423.98 94.62Q425.29 93.92 426.29 93.02Q427.29 92.13 427.92 91.14L427.92 91.14Q428.41 91.35 428.85 92.02Q429.29 92.69 429.29 93.60L429.29 93.60Q429.29 94.69 428.52 95.94Q427.75 97.19 426.16 98.24Q424.58 99.30 422.21 100Q419.84 100.70 416.64 100.70ZM472.36 62.91L472.36 62.91Q472.36 63.68 472.13 64.37Q471.90 65.05 471.45 65.56Q470.99 66.07 470.27 66.37Q469.55 66.67 468.56 66.67L468.56 66.67Q468.56 66.25 468.46 65.83Q468.35 65.41 468.09 65.04Q467.82 64.67 467.37 64.44Q466.91 64.21 466.17 64.21L466.17 64.21Q465.26 64.21 464.52 64.42Q463.78 64.63 463.08 65.09L463.08 65.09Q464.31 66.60 465.10 68.66Q465.89 70.71 465.89 73.81L465.89 73.81Q465.89 76.48 465.08 78.75Q464.27 81.02 462.67 82.67Q461.07 84.32 458.63 85.25Q456.19 86.18 452.92 86.18L452.92 86.18Q452.50 86.18 451.97 86.17Q451.44 86.15 450.91 86.13Q450.39 86.11 449.93 86.06Q449.47 86.01 449.19 85.97L449.19 85.97Q448.49 86.32 447.86 86.75Q447.22 87.17 446.75 87.70Q446.27 88.22 445.99 88.89Q445.71 89.56 445.71 90.37L445.71 90.37Q445.71 91.25 446.04 91.77Q446.38 92.30 446.98 92.60Q447.57 92.90 448.40 92.99Q449.23 93.07 450.18 93.07L450.18 93.07L458.33 93.07Q461.57 93.07 463.82 93.88Q466.07 94.69 467.49 96.12Q468.91 97.54 469.56 99.53Q470.21 101.51 470.21 103.83L470.21 103.83Q470.21 106.93 469.07 109.42Q467.93 111.92 465.57 113.66Q463.22 115.40 459.62 116.35Q456.01 117.30 451.13 117.30L451.13 117.30Q443.60 117.30 439.88 114.52Q436.15 111.74 436.15 106.79L436.15 106.79Q436.15 104.68 436.89 103.09Q437.63 101.51 438.87 100.39Q440.12 99.26 441.74 98.56Q443.36 97.86 445.15 97.54L445.15 97.54Q444.41 97.22 443.71 96.70Q443.00 96.17 442.44 95.43Q441.88 94.69 441.53 93.74Q441.18 92.79 441.18 91.63L441.18 91.63Q441.18 89.49 442.30 87.92Q443.43 86.36 445.89 84.88L445.89 84.88Q444.34 84.25 443.13 83.14Q441.91 82.04 441.09 80.61Q440.26 79.19 439.82 77.50Q439.38 75.81 439.38 74.02L439.38 74.02Q439.38 70.89 440.23 68.43Q441.07 65.97 442.76 64.25Q444.45 62.52 446.98 61.61Q449.51 60.70 452.92 60.70L452.92 60.70Q454.22 60.70 455.48 60.89Q456.75 61.08 457.82 61.42Q458.89 61.75 459.76 62.17Q460.62 62.59 461.14 63.05L461.14 63.05Q461.67 62.49 462.38 61.80Q463.08 61.12 463.96 60.54Q464.84 59.96 465.87 59.57Q466.91 59.18 468.11 59.18L468.11 59.18Q469.20 59.18 469.99 59.48Q470.78 59.78 471.30 60.29Q471.83 60.80 472.10 61.49Q472.36 62.17 472.36 62.91ZM441.98 106.33L441.98 106.33Q441.98 107.91 442.41 109.28Q442.83 110.65 443.88 111.64Q444.94 112.62 446.73 113.18Q448.52 113.75 451.27 113.75L451.27 113.75Q455.13 113.75 457.65 113.10Q460.16 112.45 461.64 111.29Q463.11 110.13 463.71 108.53Q464.31 106.93 464.31 105.03L464.31 105.03Q464.31 103.38 463.83 102.30Q463.36 101.23 462.43 100.62Q461.50 100 460.13 99.75Q458.75 99.51 456.96 99.51L456.96 99.51L449.89 99.51Q448.38 99.51 446.96 99.77Q445.54 100.04 444.43 100.77Q443.32 101.51 442.65 102.85Q441.98 104.18 441.98 106.33ZM446.17 73.81L446.17 73.81Q446.17 78.41 447.70 80.56Q449.23 82.70 452.71 82.70L452.71 82.70Q454.46 82.70 455.68 82.18Q456.89 81.65 457.66 80.56Q458.44 79.47 458.77 77.76Q459.11 76.06 459.11 73.70L459.11 73.70Q459.11 68.85 457.63 66.53Q456.15 64.21 452.64 64.21L452.64 64.21Q449.16 64.21 447.66 66.58Q446.17 68.96 446.17 73.81ZM511.17 61.40L511.17 92.16Q511.17 93.74 511.65 94.71Q512.12 95.68 512.93 96.17Q513.74 96.66 514.81 96.82Q515.88 96.98 517.08 96.98L517.08 96.98L517.29 96.98L517.29 100L505.86 100L504.91 94.16L504.56 94.16Q503.47 96.20 502.15 97.47Q500.84 98.73 499.36 99.46Q497.88 100.18 496.27 100.44Q494.65 100.70 492.89 100.70L492.89 100.70Q490.04 100.70 487.83 99.89Q485.61 99.09 484.10 97.36Q482.59 95.64 481.80 92.97Q481.01 90.30 481.01 86.61L481.01 86.61L481.01 69.34Q481.01 67.76 480.53 66.79Q480.06 65.83 479.25 65.30Q478.44 64.77 477.37 64.60Q476.30 64.42 475.10 64.42L475.10 64.42L474.89 64.42L474.89 61.40L487.79 61.40L487.79 86.25Q487.79 88.61 488.16 90.44Q488.53 92.27 489.39 93.53Q490.25 94.80 491.71 95.45Q493.17 96.10 495.35 96.10L495.35 96.10Q497.74 96.10 499.45 95.25Q501.15 94.41 502.26 92.88Q503.37 91.35 503.89 89.21Q504.42 87.06 504.42 84.46L504.42 84.46L504.42 69.63Q504.42 67.94 503.95 66.90Q503.47 65.86 502.68 65.32Q501.89 64.77 500.82 64.60Q499.75 64.42 498.52 64.42L498.52 64.42L498.30 64.42L498.30 61.40L511.17 61.40ZM519.89 96.98L520.80 96.98Q522.04 96.98 523.11 96.80Q524.18 96.63 524.97 96.08Q525.76 95.54 526.24 94.52Q526.71 93.50 526.71 91.81L526.71 91.81L526.71 53.21Q526.71 51.63 526.24 50.66Q525.76 49.69 524.95 49.16Q524.14 48.64 523.07 48.48Q522 48.32 520.80 48.32L520.80 48.32L519.89 48.32L519.89 45.30L533.50 45.30L533.50 91.81Q533.50 93.50 533.95 94.52Q534.41 95.54 535.22 96.08Q536.03 96.63 537.10 96.80Q538.17 96.98 539.40 96.98L539.40 96.98L540.32 96.98L540.32 100L519.89 100L519.89 96.98ZM551.85 89.56L551.85 89.56Q551.85 92.93 553.27 94.60Q554.70 96.27 557.68 96.27L557.68 96.27Q559.86 96.27 561.64 95.57Q563.41 94.87 564.66 93.57Q565.91 92.27 566.58 90.40Q567.25 88.54 567.25 86.25L567.25 86.25L567.25 80.42L562.64 80.63Q559.58 80.77 557.53 81.38Q555.47 82 554.20 83.11Q552.94 84.21 552.39 85.83Q551.85 87.45 551.85 89.56ZM560.57 64.28L560.57 64.28Q558.49 64.28 557.21 64.86Q555.93 65.44 555.21 66.50Q554.48 67.55 554.24 68.99Q553.99 70.43 553.99 72.12L553.99 72.12Q551.00 72.12 549.44 71.10Q547.88 70.08 547.88 67.59L547.88 67.59Q547.88 65.72 548.89 64.42Q549.91 63.12 551.69 62.29Q553.46 61.47 555.82 61.08Q558.18 60.70 560.85 60.70L560.85 60.70Q564.15 60.70 566.61 61.35Q569.07 62.00 570.73 63.47Q572.38 64.95 573.21 67.32Q574.03 69.70 574.03 73.14L574.03 73.14L574.03 91.81Q574.03 93.32 574.28 94.30Q574.52 95.29 575.05 95.89Q575.58 96.48 576.44 96.73Q577.30 96.98 578.50 96.98L578.50 96.98L578.71 96.98L578.71 100L568.97 100L567.84 93.81L567.25 93.81Q566.12 95.32 565.07 96.59Q564.01 97.86 562.75 98.77Q561.48 99.68 559.88 100.19Q558.28 100.70 556.03 100.70L556.03 100.70Q553.64 100.70 551.58 100.02Q549.53 99.33 548.03 97.91Q546.54 96.48 545.70 94.32Q544.85 92.16 544.85 89.21L544.85 89.21Q544.85 83.48 548.93 80.70Q553.01 77.92 561.27 77.68L561.27 77.68L567.25 77.46L567.25 73.14Q567.25 71.21 567.04 69.57Q566.82 67.94 566.12 66.76Q565.42 65.58 564.10 64.93Q562.78 64.28 560.57 64.28ZM604.97 96.98L604.97 100L584.19 100L584.19 96.98L584.40 96.98Q585.63 96.98 586.71 96.80Q587.78 96.63 588.57 96.08Q589.36 95.54 589.83 94.52Q590.31 93.50 590.31 91.81L590.31 91.81L590.31 69.34Q590.31 67.76 589.83 66.79Q589.36 65.83 588.55 65.30Q587.74 64.77 586.67 64.60Q585.60 64.42 584.40 64.42L584.40 64.42L584.19 64.42L584.19 61.40L595.27 61.40L596.64 68.54L596.99 68.54Q597.69 66.92 598.43 65.49Q599.17 64.07 600.24 63.00Q601.31 61.93 602.89 61.31Q604.48 60.70 606.87 60.70L606.87 60.70Q610.80 60.70 612.72 62.07Q614.64 63.44 614.64 65.93L614.64 65.93Q614.64 67.06 614.27 68.01Q613.90 68.96 613.09 69.64Q612.28 70.33 611.02 70.70Q609.75 71.07 607.92 71.07L607.92 71.07Q607.92 68.08 607.08 66.76Q606.23 65.44 604.13 65.44L604.13 65.44Q602.79 65.44 601.73 66.20Q600.68 66.95 599.89 68.20Q599.10 69.45 598.55 71.07Q598.01 72.68 597.67 74.39Q597.34 76.09 597.20 77.78Q597.06 79.47 597.06 80.84L597.06 80.84L597.06 92.16Q597.06 93.74 597.53 94.71Q598.01 95.68 598.82 96.17Q599.63 96.66 600.70 96.82Q601.77 96.98 602.96 96.98L602.96 96.98L604.97 96.98Z"/></svg>