<svg xmlns="http://www.w3.org/2000/svg" viewBox="-1.44140625 44.55859375 525.09375 72.73828125"><path d="M40 88L47 57Q47 55 47 55L47 55Q47 52 42 52L42 52L41 52L41 49L60 49L59 52L58 52Q55 52 53 53Q52 54 51 57L51 57L42 100L37 100L19 58L11 92Q11 94 11 94L11 94Q11 97 16 97L16 97L17 97L17 100L-1 100L-1 97L0 97Q4 97 5 96Q6 94 7 92L7 92L15 57Q15 55 15 55L15 55Q15 52 10 52L10 52L9 52L9 49L22 49L40 88ZM79 61L79 61Q86 61 90 65Q93 68 93 76L93 76Q93 85 87 93Q81 101 72 101L72 101Q65 101 62 97Q58 93 58 86L58 86Q58 76 64 68Q70 61 79 61ZM73 97L73 97Q79 97 82 90Q86 83 86 75L86 75Q86 64 79 64L79 64Q73 64 69 72Q66 79 66 87L66 87Q66 97 73 97ZM118 95L118 95L119 97Q114 101 109 101L109 101Q102 101 102 92L102 92Q102 90 102 86L102 86L107 66L101 66L102 63Q109 63 113 53L113 53L116 53L114 61L123 61L122 66L113 66L109 86Q108 90 108 92L108 92Q108 96 112 96L112 96Q115 96 118 95ZM147 61L147 61Q154 61 157 65Q161 68 161 76L161 76Q161 85 155 93Q149 101 140 101L140 101Q133 101 130 97Q126 93 126 86L126 86Q126 76 132 68Q138 61 147 61ZM141 97L141 97Q146 97 150 90Q154 83 154 75L154 75Q154 64 146 64L146 64Q141 64 137 72Q133 79 133 87L133 87Q133 97 141 97ZM189 85L189 85Q189 90 192 94Q195 97 200 97L200 97Q205 97 208 95Q211 92 211 88L211 88Q211 84 209 82Q207 80 202 77L202 77Q196 73 194 70Q191 66 191 62L191 62Q191 56 196 52Q201 48 209 48L209 48Q215 48 219 50Q223 52 223 56L223 56Q223 61 216 61L216 61Q216 56 214 54Q212 51 208 51L208 51Q204 51 201 54Q199 56 199 61L199 61Q199 64 200 66Q202 68 208 72L208 72Q213 75 216 78Q218 81 218 86L218 86Q218 93 213 97Q208 101 199 101L199 101Q192 101 188 98Q183 95 183 90L183 90Q183 88 185 86Q186 85 189 85ZM251 91L251 91Q252 91 252 93L252 93Q252 96 248 98Q245 101 239 101L239 101Q233 101 229 97Q225 93 225 86L225 86Q225 76 231 69Q237 61 247 61L247 61Q251 61 254 63Q256 65 256 69L256 69Q256 75 250 79Q244 83 235 83L235 83L234 83Q233 83 233 83L233 83Q233 84 233 86L233 86Q233 96 241 96L241 96Q247 96 251 91ZM233 80L233 80L234 80Q240 80 245 77Q249 74 249 69L249 69Q249 64 245 64L245 64Q241 64 238 69Q235 73 233 80ZM286 71L286 71Q286 65 283 65L283 65Q279 65 276 72Q272 79 270 87L270 87L267 100L261 100L267 71Q267 69 267 68L267 68Q267 64 261 64L261 64L261 64L261 61L274 61L273 72L273 72Q276 65 279 63Q282 61 286 61L286 61Q292 61 292 66L292 66Q292 71 286 71ZM307 54L307 54Q303 54 303 50L303 50Q303 48 304 47Q306 45 308 45L308 45Q312 45 312 49L312 49Q312 52 310 53Q309 54 307 54ZM297 64L296 64L296 61L309 61L304 85Q303 90 303 93L303 93Q303 96 306 96L306 96Q308 96 311 94L311 94L312 96Q307 101 302 101L302 101Q300 101 298 99Q296 97 296 94L296 94Q296 91 298 83L298 83L301 69Q301 68 301 67L301 67Q301 64 297 64L297 64ZM339 61L338 66L330 66L323 101Q321 109 317 113Q314 117 307 117L307 117Q305 117 303 117L303 117L304 113Q305 114 307 114L307 114Q310 114 312 111Q314 108 316 101L316 101L324 66L317 66L317 63L324 61L325 57Q328 45 339 45L339 45Q343 45 346 46Q348 47 348 50L348 50Q348 55 342 55L342 55Q342 48 339 48L339 48Q336 48 334 50Q333 52 332 57L332 57L331 61L339 61ZM371 54L371 54Q367 54 367 50L367 50Q367 48 368 47Q369 45 371 45L371 45Q375 45 375 49L375 49Q375 52 374 53Q373 54 371 54ZM360 64L359 64L360 61L373 61L368 85Q367 90 367 93L367 93Q367 96 369 96L369 96Q371 96 374 94L374 94L376 96Q371 101 366 101L366 101Q363 101 362 99Q360 97 360 94L360 94Q360 91 361 83L361 83L364 69Q365 68 365 67L365 67Q365 64 360 64L360 64ZM398 95L398 95L399 97Q395 101 390 101L390 101Q382 101 382 92L382 92Q382 90 383 86L383 86L387 66L382 66L382 63Q389 63 393 53L393 53L397 53L395 61L403 61L403 66L394 66L389 86Q389 90 389 92L389 92Q389 96 392 96L392 96Q395 96 398 95ZM429 89L429 89L429 89Q424 101 415 101L415 101Q411 101 409 97Q406 94 406 88L406 88Q406 78 412 69Q419 61 428 61L428 61Q433 61 436 63L436 63L439 61L442 61L437 85Q436 89 436 93L436 93Q436 96 438 96L438 96Q440 96 443 94L443 94L444 96Q439 101 434 101L434 101Q429 101 429 95L429 95Q429 92 429 89ZM431 79L433 67Q432 64 428 64L428 64Q422 64 418 72Q414 80 414 88L414 88Q414 96 418 96L418 96Q422 96 426 91Q430 86 431 79L431 79ZM453 48L452 48L453 45L466 45L458 85Q457 90 457 93L457 93Q457 96 459 96L459 96Q461 96 464 94L464 94L466 96Q461 101 456 101L456 101Q453 101 452 99Q450 97 450 94L450 94Q450 90 452 83L452 83L458 55Q458 53 458 52L458 52Q458 48 453 48L453 48ZM483 54L483 54Q479 54 479 50L479 50Q479 48 480 47Q481 45 483 45L483 45Q487 45 487 49L487 49Q487 52 486 53Q485 54 483 54ZM472 64L471 64L472 61L485 61L480 85Q479 90 479 93L479 93Q479 96 481 96L481 96Q483 96 486 94L486 94L488 96Q483 101 478 101L478 101Q475 101 474 99Q472 97 472 94L472 94Q472 91 473 83L473 83L476 69Q477 68 477 67L477 67Q477 64 472 64L472 64ZM517 91L517 91Q518 91 518 93L518 93Q518 96 515 98Q511 101 506 101L506 101Q499 101 496 97Q492 93 492 86L492 86Q492 76 498 69Q504 61 513 61L513 61Q518 61 521 63Q524 65 524 68L524 68Q524 70 522 71Q520 73 517 73L517 73Q517 69 516 66Q514 64 512 64L512 64Q507 64 503 72Q499 79 499 86L499 86Q499 96 507 96L507 96Q513 96 517 91Z"/></svg>