<svg xmlns="http://www.w3.org/2000/svg" viewBox="7.632000000000001 42.75999999999999 588.744 75.52800000000002"><path d="M7.63 100L11.74 100L11.74 68.54C11.74 63.28 11.38 58.38 11.16 53.34L11.52 53.34L17.42 63.86L38.81 100L43.27 100L43.27 47.51L39.17 47.51L39.17 78.62C39.17 83.73 39.46 88.98 39.74 94.17L39.38 94.17L33.55 83.58L12.10 47.51L7.63 47.51ZM72.29 100.94C81.58 100.94 89.64 93.59 89.64 80.85C89.64 68.03 81.58 60.62 72.29 60.62C63.00 60.62 54.94 68.03 54.94 80.85C54.94 93.59 63.00 100.94 72.29 100.94ZM72.29 97.34C64.80 97.34 59.33 90.64 59.33 80.85C59.33 71.06 64.80 64.29 72.29 64.29C79.78 64.29 85.32 71.06 85.32 80.85C85.32 90.64 79.78 97.34 72.29 97.34ZM110.59 100.94C112.32 100.94 114.77 100.29 117.00 99.50L115.99 96.26C114.62 96.83 112.75 97.34 111.31 97.34C106.20 97.34 104.90 94.17 104.90 89.34L104.90 65.15L115.92 65.15L115.92 61.62L104.90 61.62L104.90 50.54L101.38 50.54L100.87 61.62L94.75 61.98L94.75 65.15L100.73 65.15L100.73 89.06C100.73 96.18 103.03 100.94 110.59 100.94ZM138.38 100.94C147.67 100.94 155.74 93.59 155.74 80.85C155.74 68.03 147.67 60.62 138.38 60.62C129.10 60.62 121.03 68.03 121.03 80.85C121.03 93.59 129.10 100.94 138.38 100.94ZM138.38 97.34C130.90 97.34 125.42 90.64 125.42 80.85C125.42 71.06 130.90 64.29 138.38 64.29C145.87 64.29 151.42 71.06 151.42 80.85C151.42 90.64 145.87 97.34 138.38 97.34ZM197.28 100.94C207.58 100.94 214.27 94.74 214.27 86.68C214.27 78.69 209.23 75.38 203.26 72.71L195.41 69.26C191.59 67.60 186.48 65.37 186.48 59.39C186.48 53.99 190.94 50.46 197.64 50.46C202.82 50.46 206.93 52.55 210.02 55.72L212.47 52.91C209.16 49.31 203.98 46.58 197.64 46.58C188.71 46.58 182.09 51.98 182.09 59.75C182.09 67.46 188.06 70.77 192.74 72.86L200.59 76.31C205.78 78.62 209.88 80.63 209.88 86.97C209.88 92.94 205.06 97.05 197.28 97.05C191.30 97.05 185.90 94.38 182.09 90.06L179.42 93.09C183.60 97.77 189.65 100.94 197.28 100.94ZM233.21 100.94C238.10 100.94 242.71 98.27 246.60 95.10L246.74 95.10L247.18 100L250.70 100L250.70 75.66C250.70 67.17 247.46 60.62 238.32 60.62C232.06 60.62 226.73 63.64 223.78 65.66L225.65 68.68C228.31 66.66 232.70 64.29 237.74 64.29C245.02 64.29 246.67 70.19 246.53 75.88C229.61 77.82 222.05 81.86 222.05 90.35C222.05 97.48 227.02 100.94 233.21 100.94ZM234.07 97.41C229.82 97.41 226.22 95.39 226.22 90.14C226.22 84.23 231.41 80.70 246.53 78.98L246.53 91.43C241.99 95.39 238.32 97.41 234.07 97.41ZM264.10 100L268.27 100L268.27 71.27C272.74 66.66 275.90 64.36 280.37 64.36C286.27 64.36 288.79 68.03 288.79 76.02L288.79 100L292.97 100L292.97 75.45C292.97 65.58 289.30 60.62 281.30 60.62C276.05 60.62 272.09 63.64 268.20 67.46L268.06 67.46L267.55 61.62L264.10 61.62ZM316.22 100.94C324.72 100.94 329.40 95.90 329.40 89.99C329.40 82.58 322.92 80.49 317.02 78.26C312.55 76.60 308.09 75.02 308.09 70.77C308.09 67.31 310.68 64.14 316.37 64.14C320.11 64.14 322.92 65.66 325.51 67.60L327.67 64.72C324.79 62.42 320.69 60.62 316.51 60.62C308.45 60.62 303.91 65.37 303.91 70.98C303.91 77.61 310.25 79.98 315.94 82C320.40 83.58 325.22 85.67 325.22 90.21C325.22 94.17 322.27 97.48 316.44 97.48C311.18 97.48 307.66 95.46 304.34 92.66L302.11 95.68C305.57 98.56 310.61 100.94 316.22 100.94ZM355.75 100L360.07 100L360.07 82.29L370.37 70.41L387.36 100L392.33 100L373.25 67.02L389.95 47.51L384.84 47.51L360.22 76.02L360.07 76.02L360.07 47.51L355.75 47.51ZM404.93 51.11L414.94 51.11C424.01 51.11 429.05 53.92 429.05 61.55C429.05 69.11 424.01 72.71 414.94 72.71L404.93 72.71ZM434.52 100L420.34 75.95C428.33 74.73 433.44 69.90 433.44 61.55C433.44 51.33 426.38 47.51 415.94 47.51L400.61 47.51L400.61 100L404.93 100L404.93 76.31L415.66 76.31L429.62 100ZM465.05 100.94C466.42 100.94 467.14 100.72 467.86 100.50L467.21 97.19C466.42 97.34 466.13 97.34 465.84 97.34C464.83 97.34 464.11 96.54 464.11 94.74L464.11 42.76L459.94 42.76L459.94 94.31C459.94 98.78 461.59 100.94 465.05 100.94ZM479.16 100L483.34 100L483.34 61.62L479.16 61.62ZM481.32 52.62C483.19 52.62 484.85 51.26 484.85 49.31C484.85 47.15 483.19 45.86 481.32 45.86C479.38 45.86 477.79 47.15 477.79 49.31C477.79 51.26 479.38 52.62 481.32 52.62ZM510.26 118.29C521.50 118.29 528.70 111.95 528.70 105.26C528.70 99.14 524.59 96.40 515.88 96.40L507.82 96.40C502.27 96.40 500.62 94.31 500.62 91.58C500.62 89.13 501.98 87.54 503.64 86.25C505.37 87.26 507.74 87.83 509.83 87.83C517.39 87.83 523.37 82.22 523.37 74.30C523.37 70.41 521.71 67.10 519.41 65.08L528.05 65.08L528.05 61.62L514.94 61.62C513.72 61.12 511.92 60.62 509.83 60.62C502.27 60.62 496.08 66.23 496.08 74.22C496.08 78.83 498.53 82.65 500.98 84.66L500.98 84.95C499.25 86.25 496.73 88.77 496.73 92.08C496.73 95.10 498.24 97.12 500.18 98.27L500.18 98.63C496.66 101.01 494.42 104.39 494.42 107.78C494.42 114.26 500.69 118.29 510.26 118.29ZM509.83 84.66C504.72 84.66 500.26 80.49 500.26 74.22C500.26 67.89 504.58 64.00 509.83 64.00C515.02 64.00 519.34 67.89 519.34 74.22C519.34 80.49 514.87 84.66 509.83 84.66ZM510.77 115.12C502.92 115.12 498.38 111.95 498.38 107.27C498.38 104.68 499.82 101.87 503.14 99.57C505.08 100 507.10 100.22 507.96 100.22L515.81 100.22C521.50 100.22 524.52 101.73 524.52 105.83C524.52 110.44 519.12 115.12 510.77 115.12ZM536.76 100L540.94 100L540.94 71.27C545.40 66.66 548.57 64.36 553.03 64.36C558.94 64.36 561.46 68.03 561.46 76.02L561.46 100L565.63 100L565.63 75.45C565.63 65.58 561.96 60.62 553.97 60.62C548.71 60.62 544.75 63.64 540.86 67.53L540.94 59.18L540.94 42.76L536.76 42.76ZM589.97 100.94C591.70 100.94 594.14 100.29 596.38 99.50L595.37 96.26C594 96.83 592.13 97.34 590.69 97.34C585.58 97.34 584.28 94.17 584.28 89.34L584.28 65.15L595.30 65.15L595.30 61.62L584.28 61.62L584.28 50.54L580.75 50.54L580.25 61.62L574.13 61.98L574.13 65.15L580.10 65.15L580.10 89.06C580.10 96.18 582.41 100.94 589.97 100.94Z"/></svg>