<svg xmlns="http://www.w3.org/2000/svg" viewBox="7.632000000000001 42.75999999999999 581.4000000000001 75.52800000000002"><path d="M8 100L12 100L12 69C12 63 11 58 11 53L12 53L17 64L39 100L43 100L43 48L39 48L39 79C39 84 39 89 40 94L39 94L34 84L12 48L8 48ZM72 101C82 101 90 94 90 81C90 68 82 61 72 61C63 61 55 68 55 81C55 94 63 101 72 101ZM72 97C65 97 59 91 59 81C59 71 65 64 72 64C80 64 85 71 85 81C85 91 80 97 72 97ZM111 101C112 101 115 100 117 99L116 96C115 97 113 97 111 97C106 97 105 94 105 89L105 65L116 65L116 62L105 62L105 51L101 51L101 62L95 62L95 65L101 65L101 89C101 96 103 101 111 101ZM138 101C148 101 156 94 156 81C156 68 148 61 138 61C129 61 121 68 121 81C121 94 129 101 138 101ZM138 97C131 97 125 91 125 81C125 71 131 64 138 64C146 64 151 71 151 81C151 91 146 97 138 97ZM197 101C208 101 214 95 214 87C214 79 209 75 203 73L195 69C192 68 186 65 186 59C186 54 191 50 198 50C203 50 207 53 210 56L212 53C209 49 204 47 198 47C189 47 182 52 182 60C182 67 188 71 193 73L201 76C206 79 210 81 210 87C210 93 205 97 197 97C191 97 186 94 182 90L179 93C184 98 190 101 197 101ZM233 101C238 101 243 98 247 95L247 95L247 100L251 100L251 76C251 67 247 61 238 61C232 61 227 64 224 66L226 69C228 67 233 64 238 64C245 64 247 70 247 76C230 78 222 82 222 90C222 97 227 101 233 101ZM234 97C230 97 226 95 226 90C226 84 231 81 247 79L247 91C242 95 238 97 234 97ZM264 100L268 100L268 71C273 67 276 64 280 64C286 64 289 68 289 76L289 100L293 100L293 75C293 66 289 61 281 61C276 61 272 64 268 67L268 67L268 62L264 62ZM316 101C325 101 329 96 329 90C329 83 323 80 317 78C313 77 308 75 308 71C308 67 311 64 316 64C320 64 323 66 326 68L328 65C325 62 321 61 317 61C308 61 304 65 304 71C304 78 310 80 316 82C320 84 325 86 325 90C325 94 322 97 316 97C311 97 308 95 304 93L302 96C306 99 311 101 316 101ZM364 101C374 101 378 94 378 85L378 48L374 48L374 85C374 93 371 97 364 97C360 97 357 95 354 91L351 93C354 98 358 101 364 101ZM393 100L397 100L397 78L407 78C419 78 426 73 426 62C426 51 418 48 407 48L393 48ZM397 74L397 51L406 51C416 51 421 54 421 62C421 71 416 74 406 74ZM458 101C459 101 460 101 461 101L460 97C459 97 459 97 458 97C457 97 457 97 457 95L457 43L453 43L453 94C453 99 454 101 458 101ZM472 100L476 100L476 62L472 62ZM474 53C476 53 478 51 478 49C478 47 476 46 474 46C472 46 470 47 470 49C470 51 472 53 474 53ZM503 118C514 118 521 112 521 105C521 99 517 96 509 96L500 96C495 96 493 94 493 92C493 89 495 88 496 86C498 87 500 88 502 88C510 88 516 82 516 74C516 70 514 67 512 65L521 65L521 62L508 62C506 61 505 61 502 61C495 61 489 66 489 74C489 79 491 83 494 85L494 85C492 86 489 89 489 92C489 95 491 97 493 98L493 99C489 101 487 104 487 108C487 114 493 118 503 118ZM502 85C497 85 493 80 493 74C493 68 497 64 502 64C508 64 512 68 512 74C512 80 508 85 502 85ZM503 115C496 115 491 112 491 107C491 105 492 102 496 100C498 100 500 100 501 100L508 100C514 100 517 102 517 106C517 110 512 115 503 115ZM529 100L534 100L534 71C538 67 541 64 546 64C552 64 554 68 554 76L554 100L558 100L558 75C558 66 555 61 547 61C541 61 537 64 534 68L534 59L534 43L529 43ZM583 101C584 101 587 100 589 99L588 96C587 97 585 97 583 97C578 97 577 94 577 89L577 65L588 65L588 62L577 62L577 51L573 51L573 62L567 62L567 65L573 65L573 89C573 96 575 101 583 101Z"/></svg>