<svg xmlns="http://www.w3.org/2000/svg" viewBox="2.8828125 45.296875 494.12109375 55.40625"><path d="M51.26 48.60L40.39 100L33.54 100L17.65 57.39L17.44 57.39Q16.70 63.44 14.84 72.05L14.84 72.05L8.93 100L2.88 100L13.75 48.60L20.60 48.60L36.35 91.07L36.56 91.07Q37.02 87.80 37.79 83.44Q38.57 79.08 39.09 76.90L39.09 76.90L45.14 48.60L51.26 48.60ZM81.56 75.07L81.56 75.07Q81.56 71.03 79.45 68.59Q77.34 66.14 73.72 66.14L73.72 66.14Q70.00 66.14 67.01 68.75Q64.02 71.35 62.40 75.94Q60.79 80.52 60.79 85.97L60.79 85.97Q60.79 90.47 62.95 92.90Q65.11 95.32 69.12 95.32L69.12 95.32Q72.63 95.32 75.50 92.81Q78.36 90.30 79.96 85.69Q81.56 81.09 81.56 75.07ZM88.07 75.81L88.07 75.81Q88.07 82.49 85.54 88.35Q83.00 94.20 78.64 97.38Q74.29 100.56 68.77 100.56L68.77 100.56Q62.02 100.56 58.18 96.55Q54.35 92.55 54.35 85.73L54.35 85.73Q54.35 78.98 56.95 73.07Q59.55 67.16 63.90 64.04Q68.24 60.91 73.65 60.91L73.65 60.91Q80.37 60.91 84.22 64.90Q88.07 68.89 88.07 75.81ZM105.71 95.54L105.71 95.54Q107.89 95.54 110.81 94.59L110.81 94.59L110.81 99.44Q109.83 99.93 107.98 100.32Q106.14 100.70 104.77 100.70L104.77 100.70Q100.27 100.70 97.91 98.59Q95.55 96.48 95.55 92.30L95.55 92.30Q95.55 90.05 96.19 87.17L96.19 87.17L100.58 66.21L94.61 66.21L95.17 63.37L101.67 60.63L106.14 52.61L109.86 52.61L107.93 61.40L117.63 61.40L116.65 66.21L106.98 66.21L102.52 87.27Q101.88 90.12 101.88 91.56L101.88 91.56Q101.88 93.25 102.76 94.39Q103.64 95.54 105.71 95.54ZM146.00 75.07L146.00 75.07Q146.00 71.03 143.89 68.59Q141.79 66.14 138.16 66.14L138.16 66.14Q134.44 66.14 131.45 68.75Q128.46 71.35 126.84 75.94Q125.23 80.52 125.23 85.97L125.23 85.97Q125.23 90.47 127.39 92.90Q129.55 95.32 133.56 95.32L133.56 95.32Q137.07 95.32 139.94 92.81Q142.80 90.30 144.40 85.69Q146.00 81.09 146.00 75.07ZM152.51 75.81L152.51 75.81Q152.51 82.49 149.98 88.35Q147.45 94.20 143.09 97.38Q138.73 100.56 133.21 100.56L133.21 100.56Q126.46 100.56 122.63 96.55Q118.79 92.55 118.79 85.73L118.79 85.73Q118.79 78.98 121.39 73.07Q124.00 67.16 128.34 64.04Q132.68 60.91 138.09 60.91L138.09 60.91Q144.81 60.91 148.66 64.90Q152.51 68.89 152.51 75.81ZM206.75 85.09L206.75 85.09Q206.75 92.44 201.83 96.57Q196.91 100.70 187.91 100.70L187.91 100.70Q180.74 100.70 175.96 98.42L175.96 98.42L175.96 92.09Q181.83 95.11 187.98 95.11L187.98 95.11Q193.46 95.11 196.73 92.58Q200.00 90.05 200.00 85.59L200.00 85.59Q200.00 82.91 198.26 80.88Q196.52 78.84 191.50 75.95L191.50 75.95Q186.15 72.82 184.15 69.80Q182.14 66.78 182.14 62.77L182.14 62.77Q182.14 58.38 184.29 54.98Q186.43 51.59 190.35 49.73Q194.27 47.86 199.05 47.86L199.05 47.86Q206.05 47.86 211.96 50.89L211.96 50.89L209.50 56.37Q207.25 55.11 204.43 54.33Q201.62 53.56 199.05 53.56L199.05 53.56Q194.52 53.56 191.76 55.93Q189 58.30 189 62.35L189 62.35Q189 65.09 190.37 66.88Q191.74 68.68 196.31 71.35L196.31 71.35Q201.34 74.41 203.13 76.18Q204.93 77.96 205.84 80.10Q206.75 82.25 206.75 85.09ZM224.82 100.70L224.82 100.70Q220.01 100.70 217.20 97.26Q214.38 93.81 214.38 87.55L214.38 87.55Q214.38 80.35 216.86 74.11Q219.34 67.87 223.70 64.28Q228.06 60.70 233.33 60.70L233.33 60.70Q236.60 60.70 239.08 62.42Q241.56 64.14 243.04 67.38L243.04 67.38L243.42 67.38L245.71 61.40L250.52 61.40L242.33 100L237.30 100L238.22 92.86L237.94 92.86Q231.86 100.70 224.82 100.70ZM226.93 95.46L226.93 95.46Q230.24 95.46 233.56 92.30Q236.88 89.14 238.89 84.06Q240.89 78.98 240.89 73.70L240.89 73.70Q240.89 70.26 238.99 68.13Q237.09 66.00 233.96 66.00L233.96 66.00Q230.41 66.00 227.37 68.97Q224.33 71.95 222.61 76.97Q220.89 82 220.89 87.70L220.89 87.70Q220.89 91.60 222.47 93.53Q224.05 95.46 226.93 95.46ZM288.70 76.52L283.64 100L277.31 100L282.41 75.81Q283.15 72.33 283.15 70.86L283.15 70.86Q283.15 68.64 281.92 67.32Q280.69 66.00 278.02 66.00L278.02 66.00Q274.99 66.00 272.13 68.08Q269.26 70.15 267.05 74.07Q264.83 77.99 263.71 83.37L263.71 83.37L260.19 100L253.83 100L262.05 61.40L267.22 61.40L266.45 68.54L266.80 68.54Q269.16 65.51 271.04 64Q272.92 62.49 275.12 61.59Q277.31 60.70 279.77 60.70L279.77 60.70Q284.31 60.70 286.89 63.17Q289.48 65.65 289.48 70.19L289.48 70.19Q289.48 72.93 288.70 76.52L288.70 76.52ZM319.64 88.86L319.64 88.86Q319.64 94.45 315.72 97.57Q311.80 100.70 304.66 100.70L304.66 100.70Q298.34 100.70 293.87 98.28L293.87 98.28L293.87 92.44Q296.16 93.85 298.95 94.69Q301.75 95.54 304.45 95.54L304.45 95.54Q308.74 95.54 310.96 93.87Q313.17 92.20 313.17 89.49L313.17 89.49Q313.17 87.55 311.96 86.17Q310.75 84.78 306.70 82.49L306.70 82.49Q302.17 79.96 300.29 77.45Q298.41 74.93 298.41 71.63L298.41 71.63Q298.41 66.71 301.99 63.70Q305.58 60.70 311.52 60.70L311.52 60.70Q317.50 60.70 323.19 63.37L323.19 63.37L321.15 68.39Q319.29 67.52 316.97 66.76Q314.65 66.00 311.52 66.00L311.52 66.00Q308.43 66.00 306.58 67.46Q304.73 68.92 304.73 71.28L304.73 71.28Q304.73 73.21 306.02 74.56Q307.30 75.92 311.10 78.03L311.10 78.03Q315.07 80.38 316.56 81.84Q318.06 83.30 318.85 84.99Q319.64 86.68 319.64 88.86ZM359.89 61.40L351.70 100L345.34 100L353.57 61.40L359.89 61.40ZM355.22 51.63L355.22 51.63Q355.22 49.62 356.40 48.32Q357.57 47.02 359.47 47.02L359.47 47.02Q362.78 47.02 362.78 50.25L362.78 50.25Q362.78 52.36 361.55 53.68Q360.32 55 358.66 55L358.66 55Q357.15 55 356.19 54.12Q355.22 53.24 355.22 51.63ZM376.17 95.54L376.17 95.54Q378.35 95.54 381.27 94.59L381.27 94.59L381.27 99.44Q380.29 99.93 378.44 100.32Q376.59 100.70 375.22 100.70L375.22 100.70Q370.72 100.70 368.37 98.59Q366.01 96.48 366.01 92.30L366.01 92.30Q366.01 90.05 366.64 87.17L366.64 87.17L371.04 66.21L365.06 66.21L365.63 63.37L372.13 60.63L376.59 52.61L380.32 52.61L378.39 61.40L388.09 61.40L387.11 66.21L377.44 66.21L372.97 87.27Q372.34 90.12 372.34 91.56L372.34 91.56Q372.34 93.25 373.22 94.39Q374.10 95.54 376.17 95.54ZM399.69 100.70L399.69 100.70Q394.88 100.70 392.06 97.26Q389.25 93.81 389.25 87.55L389.25 87.55Q389.25 80.35 391.73 74.11Q394.21 67.87 398.57 64.28Q402.93 60.70 408.20 60.70L408.20 60.70Q411.47 60.70 413.95 62.42Q416.43 64.14 417.90 67.38L417.90 67.38L418.29 67.38L420.57 61.40L425.39 61.40L417.20 100L412.17 100L413.09 92.86L412.80 92.86Q406.72 100.70 399.69 100.70ZM401.80 95.46L401.80 95.46Q405.11 95.46 408.43 92.30Q411.75 89.14 413.75 84.06Q415.76 78.98 415.76 73.70L415.76 73.70Q415.76 70.26 413.86 68.13Q411.96 66.00 408.83 66.00L408.83 66.00Q405.28 66.00 402.24 68.97Q399.20 71.95 397.48 76.97Q395.75 82 395.75 87.70L395.75 87.70Q395.75 91.60 397.34 93.53Q398.92 95.46 401.80 95.46ZM446.63 45.30L434.99 100L428.63 100L440.30 45.30L446.63 45.30ZM461.81 61.40L453.62 100L447.26 100L455.48 61.40L461.81 61.40ZM457.14 51.63L457.14 51.63Q457.14 49.62 458.31 48.32Q459.49 47.02 461.39 47.02L461.39 47.02Q464.70 47.02 464.70 50.25L464.70 50.25Q464.70 52.36 463.46 53.68Q462.23 55 460.58 55L460.58 55Q459.07 55 458.10 54.12Q457.14 53.24 457.14 51.63ZM481.61 100.70L481.61 100.70Q474.79 100.70 471.02 96.94Q467.26 93.18 467.26 86.32L467.26 86.32Q467.26 79.19 469.85 73.28Q472.43 67.38 477 64.04Q481.57 60.70 487.44 60.70L487.44 60.70Q492.61 60.70 497.00 62.56L497.00 62.56L495.21 67.83Q491.17 66.00 487.51 66.00L487.51 66.00Q483.64 66.00 480.46 68.69Q477.28 71.38 475.52 76.02Q473.77 80.66 473.77 86.25L473.77 86.25Q473.77 90.65 476.00 93.06Q478.23 95.46 482.24 95.46L482.24 95.46Q484.80 95.46 487.05 94.76Q489.30 94.06 491.52 93.07L491.52 93.07L491.52 98.42Q487.02 100.70 481.61 100.70Z"/></svg>