<svg xmlns="http://www.w3.org/2000/svg" viewBox="0.96 -7.1000000000000005 27.44 7.170000000000001"><path d="M6.17-7.10Q6.36-7.10 6.36-6.87L6.36-6.87L6.36-0.18Q6.36-0.08 6.30-0.01Q6.25 0.05 6.15 0.05L6.15 0.05Q6.08 0.05 6.04 0.02Q6-0.01 5.95-0.08L5.95-0.08L1.35-6.34L1.35-0.18Q1.35-0.08 1.29-0.01Q1.24 0.05 1.15 0.05L1.15 0.05Q0.96 0.05 0.96-0.18L0.96-0.18L0.96-6.87Q0.96-6.97 1.02-7.04Q1.07-7.10 1.18-7.10L1.18-7.10Q1.25-7.10 1.28-7.08Q1.32-7.05 1.38-6.98L1.38-6.98L5.97-0.72L5.97-6.87Q5.97-6.97 6.03-7.04Q6.08-7.10 6.17-7.10L6.17-7.10ZM11.71-4.94Q11.81-4.94 11.87-4.88Q11.92-4.82 11.92-4.72L11.92-4.72L11.92-0.18Q11.92 0.05 11.71 0.05L11.71 0.05Q11.62 0.05 11.57-0.01Q11.51-0.08 11.51-0.18L11.51-0.18L11.51-0.91Q11.28-0.44 10.85-0.18Q10.41 0.07 9.86 0.07L9.86 0.07Q9.02 0.07 8.59-0.40Q8.15-0.87 8.15-1.78L8.15-1.78L8.15-4.72Q8.15-4.82 8.21-4.88Q8.26-4.94 8.36-4.94L8.36-4.94Q8.46-4.94 8.52-4.88Q8.57-4.82 8.57-4.72L8.57-4.72L8.57-1.82Q8.57-1.06 8.88-0.70Q9.19-0.34 9.84-0.34L9.84-0.34Q10.59-0.34 11.04-0.82Q11.50-1.29 11.50-2.08L11.50-2.08L11.50-4.72Q11.50-4.82 11.55-4.88Q11.61-4.94 11.71-4.94L11.71-4.94ZM15.71-4.96Q17.47-4.96 17.47-3.12L17.47-3.12L17.47-0.18Q17.47 0.05 17.26 0.05L17.26 0.05Q17.16 0.05 17.11-0.01Q17.05-0.07 17.05-0.18L17.05-0.18L17.05-3.08Q17.05-3.85 16.74-4.21Q16.43-4.56 15.74-4.56L15.74-4.56Q14.97-4.56 14.50-4.08Q14.04-3.61 14.04-2.82L14.04-2.82L14.04-0.18Q14.04-0.07 13.98-0.01Q13.93 0.05 13.83 0.05L13.83 0.05Q13.73 0.05 13.67-0.01Q13.62-0.07 13.62-0.18L13.62-0.18L13.62-4.71Q13.62-4.94 13.83-4.94L13.83-4.94Q13.93-4.94 13.98-4.88Q14.03-4.82 14.03-4.71L14.03-4.71L14.03-3.97Q14.25-4.45 14.70-4.71Q15.14-4.96 15.71-4.96L15.71-4.96ZM19.36 0.05Q19.26 0.05 19.21-0.01Q19.15-0.07 19.15-0.18L19.15-0.18L19.15-4.72Q19.15-4.82 19.21-4.88Q19.26-4.94 19.36-4.94L19.36-4.94Q19.46-4.94 19.52-4.88Q19.57-4.82 19.57-4.72L19.57-4.72L19.57-0.18Q19.57-0.07 19.52-0.01Q19.46 0.05 19.36 0.05L19.36 0.05ZM19.36-6.14Q19.21-6.14 19.10-6.24Q18.99-6.34 18.99-6.50L18.99-6.50Q18.99-6.67 19.10-6.77Q19.20-6.87 19.36-6.87L19.36-6.87Q19.52-6.87 19.63-6.77Q19.73-6.67 19.73-6.50L19.73-6.50Q19.73-6.34 19.62-6.24Q19.51-6.14 19.36-6.14L19.36-6.14ZM23.25-0.34Q23.47-0.32 23.47-0.14L23.47-0.14Q23.47 0.08 23.18 0.05L23.18 0.05L22.92 0.03Q22.17-0.02 21.82-0.42Q21.47-0.83 21.47-1.68L21.47-1.68L21.47-4.48L20.64-4.48Q20.57-4.48 20.52-4.53Q20.47-4.58 20.47-4.65L20.47-4.65Q20.47-4.73 20.52-4.79Q20.57-4.84 20.64-4.84L20.64-4.84L21.47-4.84L21.47-6.17Q21.47-6.28 21.53-6.34Q21.59-6.40 21.68-6.40L21.68-6.40Q21.77-6.40 21.83-6.34Q21.89-6.28 21.89-6.17L21.89-6.17L21.89-4.84L23.22-4.84Q23.29-4.84 23.34-4.79Q23.39-4.73 23.39-4.65L23.39-4.65Q23.39-4.58 23.35-4.53Q23.30-4.48 23.22-4.48L23.22-4.48L21.89-4.48L21.89-1.67Q21.89-0.99 22.16-0.70Q22.42-0.41 22.98-0.36L22.98-0.36L23.25-0.34ZM26.24 0.07Q25.60 0.07 25.11-0.24Q24.62-0.55 24.35-1.12Q24.08-1.69 24.08-2.45L24.08-2.45Q24.08-3.20 24.35-3.77Q24.62-4.34 25.11-4.65Q25.60-4.96 26.24-4.96L26.24-4.96Q26.88-4.96 27.37-4.65Q27.86-4.34 28.13-3.77Q28.40-3.20 28.40-2.45L28.40-2.45Q28.40-1.69 28.13-1.12Q27.86-0.55 27.37-0.24Q26.88 0.07 26.24 0.07L26.24 0.07ZM26.23-0.34Q27.06-0.34 27.51-0.89Q27.95-1.43 27.95-2.45L27.95-2.45Q27.95-3.44 27.50-4.00Q27.04-4.55 26.24-4.55L26.24-4.55Q25.44-4.55 24.99-4.00Q24.53-3.44 24.53-2.45L24.53-2.45Q24.53-1.43 24.98-0.89Q25.42-0.34 26.23-0.34L26.23-0.34Z"/></svg>