<svg xmlns="http://www.w3.org/2000/svg" viewBox="6.912000000000001 48.663999999999994 516.528 51.912"><path d="M42.98 94.82L42.98 49.24L45.79 49.24L45.79 100L43.34 100L9.72 54.35L9.72 100L6.91 100L6.91 49.24L9.43 49.24L42.98 94.82ZM82.80 65.15L85.82 65.15L85.82 100L82.87 100L82.87 93.45Q81.22 96.83 78.08 98.67Q74.95 100.50 70.99 100.50L70.99 100.50Q64.94 100.50 61.81 97.12Q58.68 93.74 58.68 87.18L58.68 87.18L58.68 65.15L61.70 65.15L61.70 86.90Q61.70 92.37 63.94 94.96Q66.17 97.55 70.85 97.55L70.85 97.55Q76.25 97.55 79.52 94.13Q82.80 90.71 82.80 85.02L82.80 85.02L82.80 65.15ZM113.11 64.29Q125.78 64.29 125.78 77.54L125.78 77.54L125.78 100L122.76 100L122.76 77.82Q122.76 72.28 120.53 69.72Q118.30 67.17 113.33 67.17L113.33 67.17Q107.78 67.17 104.44 70.59Q101.09 74.01 101.09 79.70L101.09 79.70L101.09 100L98.06 100L98.06 65.15L101.02 65.15L101.02 71.42Q102.60 67.96 105.80 66.12Q109.01 64.29 113.11 64.29L113.11 64.29ZM140.90 100L137.88 100L137.88 65.15L140.90 65.15L140.90 100ZM137.09 55.43L137.09 50.90L141.70 50.90L141.70 55.43L137.09 55.43ZM166.18 97.62Q167.83 97.62 169.20 97.41L169.20 97.41L169.06 100.22Q167.54 100.43 165.82 100.43L165.82 100.43Q160.42 100.43 157.50 97.30Q154.58 94.17 154.58 88.91L154.58 88.91L154.58 67.74L147.60 67.74L147.60 65.15L154.58 65.15L154.58 54.28L157.61 54.28L157.61 65.15L168.12 65.15L168.12 67.74L157.61 67.74L157.61 88.26Q157.61 92.87 159.77 95.25Q161.93 97.62 166.18 97.62L166.18 97.62ZM188.93 100.50Q184.32 100.50 180.79 98.27Q177.26 96.04 175.32 91.94Q173.38 87.83 173.38 82.36L173.38 82.36Q173.38 76.96 175.32 72.86Q177.26 68.75 180.79 66.52Q184.32 64.29 188.93 64.29L188.93 64.29Q193.54 64.29 197.06 66.52Q200.59 68.75 202.54 72.86Q204.48 76.96 204.48 82.36L204.48 82.36Q204.48 87.83 202.54 91.94Q200.59 96.04 197.06 98.27Q193.54 100.50 188.93 100.50L188.93 100.50ZM188.86 97.55Q194.83 97.55 198.04 93.63Q201.24 89.70 201.24 82.36L201.24 82.36Q201.24 75.23 197.96 71.24Q194.69 67.24 188.93 67.24L188.93 67.24Q183.17 67.24 179.89 71.24Q176.62 75.23 176.62 82.36L176.62 82.36Q176.62 89.70 179.82 93.63Q183.02 97.55 188.86 97.55L188.86 97.55ZM248.11 100.58Q242.14 100.58 237.67 98.92Q233.21 97.26 229.61 93.74L229.61 93.74L231.12 91.22Q234.94 94.74 238.75 96.18Q242.57 97.62 248.11 97.62L248.11 97.62Q254.95 97.62 258.70 94.78Q262.44 91.94 262.44 86.68L262.44 86.68Q262.44 83.66 260.57 81.78Q258.70 79.91 255.96 78.94Q253.22 77.97 248.62 76.89L248.62 76.89Q242.42 75.38 239.08 74.19Q235.73 73 233.10 70.23Q230.47 67.46 230.47 62.70L230.47 62.70Q230.47 58.46 232.60 55.29Q234.72 52.12 238.72 50.39Q242.71 48.66 248.04 48.66L248.04 48.66Q258.48 48.66 265.10 55.50L265.10 55.50L263.59 58.02Q259.99 54.64 256.28 53.13Q252.58 51.62 248.04 51.62L248.04 51.62Q241.20 51.62 237.38 54.57Q233.57 57.52 233.57 62.85L233.57 62.85Q233.57 67.46 236.88 69.65Q240.19 71.85 246.17 73.36L246.17 73.36L249.26 74.08Q254.45 75.23 257.69 76.42Q260.93 77.61 263.20 80.13Q265.46 82.65 265.46 86.90L265.46 86.90Q265.46 90.93 263.30 94.02Q261.14 97.12 257.22 98.85Q253.30 100.58 248.11 100.58L248.11 100.58ZM288.58 64.29Q300.53 64.29 300.53 77.18L300.53 77.18L300.53 100L297.43 100L297.43 93.59Q295.85 96.90 292.86 98.70Q289.87 100.50 286.06 100.50L286.06 100.50Q282.74 100.50 279.97 99.14Q277.20 97.77 275.58 95.36Q273.96 92.94 273.96 90.06L273.96 90.06Q273.96 86.18 276.01 84.05Q278.06 81.93 282.78 80.99Q287.50 80.06 295.99 80.06L295.99 80.06L297.43 80.06L297.43 77.03Q297.43 71.92 295.42 69.58Q293.40 67.24 289.01 67.24L289.01 67.24Q285.62 67.24 282.78 68.14Q279.94 69.04 276.84 71.06L276.84 71.06L275.40 68.46Q278.06 66.52 281.56 65.40Q285.05 64.29 288.58 64.29L288.58 64.29ZM286.06 97.48Q289.30 97.48 291.89 95.93Q294.48 94.38 295.96 91.65Q297.43 88.91 297.43 85.46L297.43 85.46L297.43 82.86L296.06 82.86Q288.50 82.86 284.54 83.48Q280.58 84.09 279 85.56Q277.42 87.04 277.42 89.92L277.42 89.92Q277.42 93.23 279.86 95.36Q282.31 97.48 286.06 97.48L286.06 97.48ZM327.67 64.29Q340.34 64.29 340.34 77.54L340.34 77.54L340.34 100L337.32 100L337.32 77.82Q337.32 72.28 335.09 69.72Q332.86 67.17 327.89 67.17L327.89 67.17Q322.34 67.17 319.00 70.59Q315.65 74.01 315.65 79.70L315.65 79.70L315.65 100L312.62 100L312.62 65.15L315.58 65.15L315.58 71.42Q317.16 67.96 320.36 66.12Q323.57 64.29 327.67 64.29L327.67 64.29ZM363.31 100.50Q355.25 100.50 350.28 95.75L350.28 95.75L351.72 93.23Q354.53 95.61 357.16 96.54Q359.78 97.48 363.53 97.48L363.53 97.48Q368.14 97.48 370.58 95.82Q373.03 94.17 373.03 91.14L373.03 91.14Q373.03 88.62 371.45 87.11Q369.86 85.60 366.34 84.74L366.34 84.74L360.43 83.37Q356.33 82.43 353.92 79.95Q351.50 77.46 351.50 74.22L351.50 74.22Q351.50 69.76 354.89 67.02Q358.27 64.29 364.03 64.29L364.03 64.29Q367.70 64.29 370.80 65.51Q373.90 66.74 375.84 68.97L375.84 68.97L374.40 71.56Q372.10 69.40 369.58 68.36Q367.06 67.31 364.03 67.31L364.03 67.31Q359.78 67.31 357.37 69.04Q354.96 70.77 354.96 73.79L354.96 73.79Q354.96 76.46 356.44 78.00Q357.91 79.55 361.08 80.34L361.08 80.34L367.06 81.78Q376.34 83.94 376.34 90.93L376.34 90.93Q376.34 95.25 372.82 97.88Q369.29 100.50 363.31 100.50L363.31 100.50ZM409.39 97.26L436.61 97.26L436.61 100L405.14 100L405.14 97.70L423.43 77.10Q427.54 72.42 429.34 68.86Q431.14 65.30 431.14 61.62L431.14 61.62Q431.14 56.80 428.33 54.17Q425.52 51.54 420.41 51.54L420.41 51.54Q416.38 51.54 412.74 53.09Q409.10 54.64 405.50 57.88L405.50 57.88L403.99 55.36Q407.02 52.34 411.44 50.50Q415.87 48.66 420.26 48.66L420.26 48.66Q426.74 48.66 430.49 52.12Q434.23 55.58 434.23 61.55L434.23 61.55Q434.23 65.94 432.18 70.16Q430.13 74.37 425.45 79.55L425.45 79.55L409.39 97.26ZM463.10 100.58Q454.75 100.58 450.36 93.99Q445.97 87.40 445.97 74.66L445.97 74.66Q445.97 61.84 450.32 55.25Q454.68 48.66 463.10 48.66L463.10 48.66Q471.53 48.66 475.88 55.22Q480.24 61.77 480.24 74.58L480.24 74.58Q480.24 87.33 475.85 93.95Q471.46 100.58 463.10 100.58L463.10 100.58ZM463.10 97.55Q470.16 97.55 473.58 91.94Q477 86.32 477 74.58L477 74.58Q477 62.78 473.62 57.20Q470.23 51.62 463.10 51.62L463.10 51.62Q456.05 51.62 452.63 57.23Q449.21 62.85 449.21 74.58L449.21 74.58Q449.21 86.25 452.63 91.90Q456.05 97.55 463.10 97.55L463.10 97.55ZM506.30 100.58Q497.95 100.58 493.56 93.99Q489.17 87.40 489.17 74.66L489.17 74.66Q489.17 61.84 493.52 55.25Q497.88 48.66 506.30 48.66L506.30 48.66Q514.73 48.66 519.08 55.22Q523.44 61.77 523.44 74.58L523.44 74.58Q523.44 87.33 519.05 93.95Q514.66 100.58 506.30 100.58L506.30 100.58ZM506.30 97.55Q513.36 97.55 516.78 91.94Q520.20 86.32 520.20 74.58L520.20 74.58Q520.20 62.78 516.82 57.20Q513.43 51.62 506.30 51.62L506.30 51.62Q499.25 51.62 495.83 57.23Q492.41 62.85 492.41 74.58L492.41 74.58Q492.41 86.25 495.83 91.90Q499.25 97.55 506.30 97.55L506.30 97.55Z"/></svg>