<svg xmlns="http://www.w3.org/2000/svg" viewBox="6.5520000000000005 48.663999999999994 534.9599999999999 64.80000000000001"><path d="M42 92L42 49L46 49L46 100L43 100L11 57L11 100L7 100L7 49L10 49L42 92ZM83 65L87 65L87 100L83 100L83 94Q81 97 78 99Q75 101 71 101L71 101Q65 101 62 97Q59 94 59 87L59 87L59 65L63 65L63 87Q63 92 65 94Q67 97 71 97L71 97Q76 97 80 93Q83 90 83 85L83 85L83 65ZM115 64Q127 64 127 78L127 78L127 100L123 100L123 78Q123 73 121 70Q119 68 114 68L114 68Q109 68 106 71Q103 74 103 80L103 80L103 100L98 100L98 65L103 65L103 71Q104 68 108 66Q111 64 115 64L115 64ZM143 100L139 100L139 65L143 65L143 100ZM138 56L138 50L144 50L144 56L138 56ZM169 97Q171 97 172 97L172 97L172 100Q170 100 169 100L169 100Q163 100 160 97Q157 94 157 88L157 88L157 69L150 69L150 65L157 65L157 54L161 54L161 65L171 65L171 69L161 69L161 88Q161 92 163 95Q165 97 169 97L169 97ZM192 101Q187 101 184 98Q180 96 178 92Q176 88 176 82L176 82Q176 77 178 73Q180 69 184 66Q187 64 192 64L192 64Q197 64 201 66Q204 69 206 73Q208 77 208 82L208 82Q208 88 206 92Q204 96 201 98Q197 101 192 101L192 101ZM192 97Q198 97 201 93Q204 89 204 82L204 82Q204 76 201 72Q198 68 192 68L192 68Q187 68 184 72Q181 76 181 82L181 82Q181 89 184 93Q187 97 192 97L192 97ZM252 101Q246 101 242 99Q237 97 234 94L234 94L235 90Q239 94 243 95Q247 97 252 97L252 97Q259 97 262 94Q266 91 266 87L266 87Q266 84 264 82Q262 80 260 79Q257 78 253 77L253 77Q247 76 243 75Q239 73 237 71Q234 68 234 63L234 63Q234 59 237 56Q239 52 243 50Q247 49 253 49L253 49Q258 49 262 50Q267 52 270 55L270 55L268 59Q264 56 261 54Q257 53 253 53L253 53Q246 53 242 55Q239 58 239 63L239 63Q239 67 242 69Q245 71 251 73L251 73L253 73Q259 75 262 76Q266 77 268 80Q270 82 270 87L270 87Q270 91 268 94Q266 97 262 99Q258 101 252 101L252 101ZM293 64Q300 64 303 68Q306 71 306 78L306 78L306 100L302 100L302 94Q300 97 297 99Q294 101 291 101L291 101Q287 101 284 99Q282 98 280 95Q278 93 278 90L278 90Q278 86 280 84Q282 82 287 81Q292 80 300 80L300 80L302 80L302 77Q302 72 300 70Q298 68 294 68L294 68Q290 68 287 69Q285 70 281 72L281 72L280 68Q282 67 286 65Q290 64 293 64L293 64ZM291 97Q296 97 299 94Q302 90 302 85L302 85L302 83L300 83Q293 83 290 84Q286 84 284 86Q283 87 283 90L283 90Q283 93 285 95Q288 97 291 97L291 97ZM334 64Q346 64 346 78L346 78L346 100L342 100L342 78Q342 73 340 70Q338 68 333 68L333 68Q328 68 325 71Q322 74 322 80L322 80L322 100L317 100L317 65L322 65L322 71Q323 68 326 66Q330 64 334 64L334 64ZM369 101Q361 101 356 96L356 96L357 92Q360 95 363 96Q366 97 369 97L369 97Q374 97 376 95Q378 94 378 91L378 91Q378 89 377 87Q375 86 372 85L372 85L366 84Q362 83 359 80Q357 78 357 74L357 74Q357 70 360 67Q364 64 370 64L370 64Q373 64 377 65Q380 67 382 69L382 69L380 72Q378 70 375 69Q373 68 370 68L370 68Q366 68 364 70Q361 71 361 74L361 74Q361 76 363 78Q364 79 367 80L367 80L373 81Q383 84 383 91L383 91Q383 95 379 98Q375 101 369 101L369 101ZM415 100L410 100L410 49L415 49L415 100ZM431 100L426 100L426 65L431 65L431 100ZM426 56L426 50L431 50L431 56L426 56ZM468 65L472 65L472 98Q472 106 469 110Q465 113 457 113L457 113Q449 113 442 109L442 109L444 105Q447 108 450 109Q453 110 457 110L457 110Q463 110 465 107Q468 104 468 98L468 98L468 92Q466 95 463 97Q460 99 456 99L456 99Q451 99 448 97Q444 95 442 91Q440 87 440 82L440 82Q440 76 442 72Q444 69 448 66Q451 64 456 64L456 64Q460 64 463 66Q466 68 468 71L468 71L468 65ZM456 95Q462 95 465 91Q468 88 468 82L468 82Q468 75 465 72Q462 68 456 68L456 68Q451 68 448 72Q445 75 445 82L445 82Q445 88 448 91Q451 95 456 95L456 95ZM500 64Q513 64 513 78L513 78L513 100L508 100L508 78Q508 73 506 70Q504 68 500 68L500 68Q494 68 491 71Q488 74 488 80L488 80L488 100L484 100L484 49L488 49L488 71Q490 68 493 66Q496 64 500 64L500 64ZM538 97Q540 97 542 97L542 97L541 100Q540 100 538 100L538 100Q532 100 529 97Q526 94 526 88L526 88L526 69L519 69L519 65L526 65L526 54L530 54L530 65L541 65L541 69L530 69L530 88Q530 92 532 95Q534 97 538 97L538 97Z"/></svg>