<svg xmlns="http://www.w3.org/2000/svg" viewBox="0.65927734375 -7.11 29.400722656250007 7.180000000000001"><path d="M6.48-7.10Q6.69-7.10 6.82-6.96Q6.95-6.81 6.94-6.59L6.94-6.59L6.45-0.45Q6.43-0.22 6.30-0.09Q6.17 0.05 5.95 0.05L5.95 0.05Q5.67 0.05 5.52-0.16L5.52-0.16L2.02-5.32L1.63-0.44Q1.61-0.22 1.47-0.09Q1.33 0.05 1.12 0.05L1.12 0.05Q0.90 0.05 0.78-0.10Q0.65-0.24 0.66-0.47L0.66-0.47L1.15-6.59Q1.16-6.82 1.30-6.96Q1.45-7.10 1.67-7.10L1.67-7.10Q1.94-7.10 2.08-6.89L2.08-6.89L5.58-1.75L5.96-6.61Q5.98-6.84 6.12-6.97Q6.26-7.10 6.48-7.10L6.48-7.10ZM12.11-4.98Q12.34-4.98 12.46-4.86Q12.59-4.73 12.58-4.49L12.58-4.49L12.25-0.41Q12.24-0.20 12.09-0.07Q11.93 0.05 11.71 0.05L11.71 0.05Q11.50 0.05 11.38-0.07Q11.25-0.18 11.26-0.39L11.26-0.39L11.29-0.74Q11.04-0.35 10.63-0.14Q10.21 0.07 9.70 0.07L9.70 0.07Q8.89 0.07 8.47-0.36Q8.05-0.80 8.05-1.64L8.05-1.64Q8.05-1.82 8.06-1.91L8.06-1.91L8.27-4.49Q8.29-4.72 8.44-4.85Q8.59-4.98 8.81-4.98L8.81-4.98Q9.04-4.98 9.17-4.85Q9.30-4.72 9.28-4.49L9.28-4.49L9.07-1.97L9.06-1.79Q9.06-0.75 10.03-0.75L10.03-0.75Q10.62-0.75 10.97-1.12Q11.32-1.49 11.37-2.14L11.37-2.14L11.57-4.49Q11.58-4.72 11.73-4.85Q11.88-4.98 12.11-4.98L12.11-4.98ZM16.58-5Q17.40-5 17.83-4.57Q18.25-4.14 18.25-3.30L18.25-3.30Q18.25-3.10 18.24-3L18.24-3L18.04-0.43Q18.02-0.20 17.88-0.07Q17.73 0.05 17.50 0.05L17.50 0.05Q17.27 0.05 17.14-0.07Q17.01-0.20 17.03-0.43L17.03-0.43L17.23-2.95Q17.24-3.02 17.24-3.16L17.24-3.16Q17.24-4.18 16.26-4.18L16.26-4.18Q15.64-4.18 15.28-3.81Q14.91-3.44 14.86-2.78L14.86-2.78L14.67-0.43Q14.65-0.20 14.51-0.07Q14.36 0.05 14.13 0.05L14.13 0.05Q13.90 0.05 13.78-0.07Q13.65-0.20 13.66-0.43L13.66-0.43L13.99-4.52Q14.00-4.73 14.16-4.86Q14.32-4.98 14.54-4.98L14.54-4.98Q14.75-4.98 14.87-4.86Q14.99-4.74 14.98-4.53L14.98-4.53L14.95-4.18Q15.20-4.57 15.63-4.79Q16.05-5 16.58-5L16.58-5ZM19.89 0.05Q19.67 0.05 19.54-0.07Q19.40-0.19 19.42-0.43L19.42-0.43L19.75-4.51Q19.76-4.74 19.92-4.86Q20.08-4.98 20.29-4.98L20.29-4.98Q20.51-4.98 20.64-4.86Q20.77-4.74 20.76-4.51L20.76-4.51L20.43-0.43Q20.41-0.18 20.26-0.07Q20.11 0.05 19.89 0.05L19.89 0.05ZM20.42-5.96Q20.13-5.96 19.96-6.12Q19.79-6.28 19.79-6.54L19.79-6.54Q19.79-6.80 19.96-6.96Q20.13-7.11 20.42-7.11L20.42-7.11Q20.70-7.11 20.88-6.96Q21.05-6.80 21.05-6.54L21.05-6.54Q21.05-6.28 20.88-6.12Q20.71-5.96 20.42-5.96L20.42-5.96ZM23.45-4.10L23.27-1.81Q23.26-1.75 23.26-1.63L23.26-1.63Q23.26-1.18 23.47-0.95Q23.67-0.71 24.04-0.71L24.04-0.71Q24.16-0.71 24.28-0.72Q24.40-0.74 24.47-0.74L24.47-0.74Q24.59-0.74 24.66-0.65Q24.73-0.55 24.73-0.38L24.73-0.38Q24.73-0.13 24.54-0.03Q24.34 0.07 23.85 0.07L23.85 0.07Q23.09 0.07 22.67-0.35Q22.25-0.77 22.25-1.53L22.25-1.53Q22.25-1.69 22.26-1.78L22.26-1.78L22.44-4.10L21.85-4.10Q21.65-4.10 21.54-4.20Q21.43-4.30 21.43-4.48L21.43-4.48Q21.43-4.67 21.55-4.78Q21.67-4.88 21.90-4.88L21.90-4.88L22.50-4.88L22.58-5.92Q22.60-6.13 22.75-6.26Q22.90-6.39 23.12-6.39L23.12-6.39Q23.35-6.39 23.48-6.26Q23.61-6.13 23.59-5.91L23.59-5.91L23.51-4.88L24.50-4.88Q24.69-4.88 24.80-4.78Q24.91-4.68 24.91-4.51L24.91-4.51Q24.91-4.10 24.45-4.10L24.45-4.10L23.45-4.10ZM27.60 0.07Q26.89 0.07 26.36-0.22Q25.83-0.51 25.54-1.05Q25.25-1.59 25.25-2.30L25.25-2.30Q25.25-3.12 25.56-3.73Q25.86-4.34 26.42-4.67Q26.97-5 27.70-5L27.70-5Q28.42-5 28.95-4.71Q29.48-4.41 29.77-3.88Q30.06-3.34 30.06-2.62L30.06-2.62Q30.06-1.80 29.76-1.20Q29.45-0.59 28.90-0.26Q28.34 0.07 27.60 0.07L27.60 0.07ZM27.61-0.73Q28.30-0.73 28.67-1.25Q29.04-1.77 29.04-2.65L29.04-2.65Q29.04-3.40 28.70-3.79Q28.35-4.19 27.71-4.19L27.71-4.19Q27.01-4.19 26.64-3.67Q26.27-3.15 26.27-2.27L26.27-2.27Q26.27-1.51 26.62-1.12Q26.96-0.73 27.61-0.73L27.61-0.73Z"/></svg>