<svg xmlns="http://www.w3.org/2000/svg" viewBox="5.904000000000001 48.80799999999999 541.8000000000001 51.69600000000001"><path d="M44.06 48.88Q45.65 48.88 46.62 49.92Q47.59 50.97 47.59 52.62L47.59 52.62L47.59 96.62Q47.59 98.27 46.58 99.32Q45.58 100.36 43.99 100.36L43.99 100.36Q42.12 100.36 41.11 98.92L41.11 98.92L12.89 61.70L12.89 96.62Q12.89 98.27 11.92 99.32Q10.94 100.36 9.36 100.36L9.36 100.36Q7.78 100.36 6.84 99.35Q5.90 98.34 5.90 96.62L5.90 96.62L5.90 52.62Q5.90 50.97 6.91 49.92Q7.92 48.88 9.50 48.88L9.50 48.88Q11.38 48.88 12.38 50.32L12.38 50.32L40.61 87.62L40.61 52.62Q40.61 50.97 41.54 49.92Q42.48 48.88 44.06 48.88L44.06 48.88ZM85.75 64.14Q87.41 64.14 88.38 65.08Q89.35 66.02 89.35 67.67L89.35 67.67L89.35 96.98Q89.35 98.49 88.34 99.42Q87.34 100.36 85.68 100.36L85.68 100.36Q84.17 100.36 83.23 99.46Q82.30 98.56 82.30 97.05L82.30 97.05L82.30 94.31Q80.64 97.34 77.72 98.92Q74.81 100.50 71.21 100.50L71.21 100.50Q58.39 100.50 58.39 86.39L58.39 86.39L58.39 67.67Q58.39 66.02 59.36 65.08Q60.34 64.14 62.06 64.14L62.06 64.14Q63.72 64.14 64.69 65.08Q65.66 66.02 65.66 67.67L65.66 67.67L65.66 86.32Q65.66 90.57 67.39 92.58Q69.12 94.60 72.72 94.60L72.72 94.60Q76.97 94.60 79.52 91.86Q82.08 89.13 82.08 84.59L82.08 84.59L82.08 67.67Q82.08 66.09 83.09 65.12Q84.10 64.14 85.75 64.14L85.75 64.14ZM118.44 64.00Q131.04 64.00 131.04 78.18L131.04 78.18L131.04 96.90Q131.04 98.56 130.07 99.46Q129.10 100.36 127.37 100.36L127.37 100.36Q125.71 100.36 124.74 99.42Q123.77 98.49 123.77 96.90L123.77 96.90L123.77 78.54Q123.77 74.08 122.00 71.99Q120.24 69.90 116.50 69.90L116.50 69.90Q112.10 69.90 109.44 72.64Q106.78 75.38 106.78 79.98L106.78 79.98L106.78 96.90Q106.78 98.49 105.80 99.42Q104.83 100.36 103.18 100.36L103.18 100.36Q101.52 100.36 100.51 99.42Q99.50 98.49 99.50 96.90L99.50 96.90L99.50 67.60Q99.50 66.09 100.55 65.12Q101.59 64.14 103.18 64.14L103.18 64.14Q104.76 64.14 105.70 65.08Q106.63 66.02 106.63 67.53L106.63 67.53L106.63 70.48Q108.36 67.31 111.46 65.66Q114.55 64.00 118.44 64.00L118.44 64.00ZM144.65 100.36Q143.06 100.36 142.02 99.50Q140.98 98.63 140.98 96.90L140.98 96.90L140.98 67.67Q140.98 65.94 142.02 65.04Q143.06 64.14 144.65 64.14L144.65 64.14Q146.23 64.14 147.24 65.04Q148.25 65.94 148.25 67.67L148.25 67.67L148.25 96.90Q148.25 98.63 147.24 99.50Q146.23 100.36 144.65 100.36L144.65 100.36ZM144.65 57.09Q142.56 57.09 141.34 55.94Q140.11 54.78 140.11 52.91L140.11 52.91Q140.11 51.04 141.34 49.92Q142.56 48.81 144.65 48.81L144.65 48.81Q146.66 48.81 147.92 49.92Q149.18 51.04 149.18 52.91L149.18 52.91Q149.18 54.78 147.96 55.94Q146.74 57.09 144.65 57.09L144.65 57.09ZM175.61 94.82Q177.19 94.96 177.88 95.64Q178.56 96.33 178.56 97.55L178.56 97.55Q178.56 98.99 177.44 99.75Q176.33 100.50 174.17 100.36L174.17 100.36L172.22 100.22Q166.39 99.78 163.51 96.65Q160.63 93.52 160.63 87.40L160.63 87.40L160.63 70.48L156.31 70.48Q153.14 70.48 153.14 67.67L153.14 67.67Q153.14 66.38 153.97 65.62Q154.80 64.86 156.31 64.86L156.31 64.86L160.63 64.86L160.63 57.45Q160.63 55.79 161.60 54.86Q162.58 53.92 164.23 53.92L164.23 53.92Q165.89 53.92 166.90 54.86Q167.90 55.79 167.90 57.45L167.90 57.45L167.90 64.86L175.03 64.86Q176.54 64.86 177.37 65.62Q178.20 66.38 178.20 67.67L178.20 67.67Q178.20 69.04 177.37 69.76Q176.54 70.48 175.03 70.48L175.03 70.48L167.90 70.48L167.90 87.90Q167.90 91.29 169.31 92.87Q170.71 94.46 173.59 94.67L173.59 94.67L175.61 94.82ZM199.08 100.50Q193.90 100.50 189.97 98.27Q186.05 96.04 183.92 91.90Q181.80 87.76 181.80 82.29L181.80 82.29Q181.80 76.74 183.92 72.60Q186.05 68.46 189.97 66.23Q193.90 64.00 199.08 64.00L199.08 64.00Q204.26 64.00 208.19 66.23Q212.11 68.46 214.24 72.60Q216.36 76.74 216.36 82.29L216.36 82.29Q216.36 87.76 214.24 91.90Q212.11 96.04 208.19 98.27Q204.26 100.50 199.08 100.50L199.08 100.50ZM199.08 94.74Q203.90 94.74 206.46 91.58Q209.02 88.41 209.02 82.29L209.02 82.29Q209.02 76.24 206.42 73.04Q203.83 69.83 199.08 69.83L199.08 69.83Q194.33 69.83 191.74 73.04Q189.14 76.24 189.14 82.29L189.14 82.29Q189.14 88.41 191.70 91.58Q194.26 94.74 199.08 94.74L199.08 94.74ZM255.67 100.50Q248.33 100.50 243.65 97.48L243.65 97.48Q242.35 96.69 241.81 95.82Q241.27 94.96 241.27 93.88L241.27 93.88Q241.27 92.73 241.92 91.94Q242.57 91.14 243.58 91.14L243.58 91.14Q244.51 91.14 246.53 92.30L246.53 92.30Q248.69 93.45 250.74 94.17Q252.79 94.89 255.89 94.89L255.89 94.89Q259.34 94.89 261.29 93.66Q263.23 92.44 263.23 90.21L263.23 90.21Q263.23 88.77 262.48 87.90Q261.72 87.04 259.85 86.36Q257.98 85.67 254.30 84.88L254.30 84.88Q247.97 83.51 245.20 81.17Q242.42 78.83 242.42 74.80L242.42 74.80Q242.42 71.70 244.22 69.22Q246.02 66.74 249.19 65.37Q252.36 64.00 256.39 64.00L256.39 64.00Q259.27 64.00 262.01 64.76Q264.74 65.51 266.83 66.95L266.83 66.95Q269.21 68.54 269.21 70.62L269.21 70.62Q269.21 71.78 268.52 72.57Q267.84 73.36 266.90 73.36L266.90 73.36Q266.26 73.36 265.61 73.07Q264.96 72.78 263.88 72.14L263.88 72.14Q261.94 70.98 260.24 70.34Q258.55 69.69 256.03 69.69L256.03 69.69Q253.01 69.69 251.17 70.98Q249.34 72.28 249.34 74.51L249.34 74.51Q249.34 76.53 251.03 77.64Q252.72 78.76 257.40 79.77L257.40 79.77Q262.22 80.78 264.96 82.07Q267.70 83.37 268.88 85.28Q270.07 87.18 270.07 90.14L270.07 90.14Q270.07 94.82 266.15 97.66Q262.22 100.50 255.67 100.50L255.67 100.50ZM305.64 91.14Q306.65 91.14 307.30 91.94Q307.94 92.73 307.94 93.95L307.94 93.95Q307.94 96.04 305.35 97.48L305.35 97.48Q302.83 98.92 299.84 99.71Q296.86 100.50 294.12 100.50L294.12 100.50Q285.77 100.50 280.94 95.64Q276.12 90.78 276.12 82.36L276.12 82.36Q276.12 76.96 278.24 72.78Q280.37 68.61 284.22 66.30Q288.07 64.00 292.97 64.00L292.97 64.00Q300.02 64.00 304.13 68.54Q308.23 73.07 308.23 80.78L308.23 80.78Q308.23 83.66 305.64 83.66L305.64 83.66L283.39 83.66Q284.11 94.82 294.12 94.82L294.12 94.82Q296.78 94.82 298.73 94.10Q300.67 93.38 302.83 92.22L302.83 92.22Q303.05 92.08 304.02 91.61Q304.99 91.14 305.64 91.14L305.64 91.14ZM293.11 69.33Q288.94 69.33 286.42 71.99Q283.90 74.66 283.39 79.48L283.39 79.48L301.97 79.48Q301.75 74.58 299.48 71.96Q297.22 69.33 293.11 69.33L293.11 69.33ZM356.54 64.00Q368.35 64.00 368.35 78.18L368.35 78.18L368.35 96.90Q368.35 98.56 367.34 99.46Q366.34 100.36 364.68 100.36L364.68 100.36Q363.10 100.36 362.09 99.46Q361.08 98.56 361.08 96.90L361.08 96.90L361.08 78.26Q361.08 73.86 359.50 71.88Q357.91 69.90 354.53 69.90L354.53 69.90Q350.57 69.90 348.26 72.60Q345.96 75.30 345.96 79.98L345.96 79.98L345.96 96.90Q345.96 98.56 344.95 99.46Q343.94 100.36 342.29 100.36L342.29 100.36Q340.70 100.36 339.70 99.46Q338.69 98.56 338.69 96.90L338.69 96.90L338.69 78.26Q338.69 73.86 337.10 71.88Q335.52 69.90 332.14 69.90L332.14 69.90Q328.18 69.90 325.84 72.60Q323.50 75.30 323.50 79.98L323.50 79.98L323.50 96.90Q323.50 98.56 322.49 99.46Q321.48 100.36 319.90 100.36L319.90 100.36Q318.31 100.36 317.27 99.46Q316.22 98.56 316.22 96.90L316.22 96.90L316.22 67.60Q316.22 66.02 317.30 65.08Q318.38 64.14 319.90 64.14L319.90 64.14Q321.41 64.14 322.38 65.04Q323.35 65.94 323.35 67.53L323.35 67.53L323.35 70.19Q324.94 67.17 327.74 65.58Q330.55 64.00 334.22 64.00L334.22 64.00Q338.26 64.00 340.88 65.66Q343.51 67.31 344.81 70.77L344.81 70.77Q346.39 67.67 349.49 65.84Q352.58 64.00 356.54 64.00L356.54 64.00ZM381.96 100.36Q380.38 100.36 379.33 99.50Q378.29 98.63 378.29 96.90L378.29 96.90L378.29 67.67Q378.29 65.94 379.33 65.04Q380.38 64.14 381.96 64.14L381.96 64.14Q383.54 64.14 384.55 65.04Q385.56 65.94 385.56 67.67L385.56 67.67L385.56 96.90Q385.56 98.63 384.55 99.50Q383.54 100.36 381.96 100.36L381.96 100.36ZM381.96 57.09Q379.87 57.09 378.65 55.94Q377.42 54.78 377.42 52.91L377.42 52.91Q377.42 51.04 378.65 49.92Q379.87 48.81 381.96 48.81L381.96 48.81Q383.98 48.81 385.24 49.92Q386.50 51.04 386.50 52.91L386.50 52.91Q386.50 54.78 385.27 55.94Q384.05 57.09 381.96 57.09L381.96 57.09ZM433.58 64.00Q438.19 64.00 441.72 66.23Q445.25 68.46 447.23 72.57Q449.21 76.67 449.21 82.14L449.21 82.14Q449.21 87.54 447.23 91.72Q445.25 95.90 441.68 98.20Q438.12 100.50 433.58 100.50L433.58 100.50Q429.62 100.50 426.60 98.81Q423.58 97.12 421.99 93.95L421.99 93.95L421.99 96.83Q421.99 98.42 421.02 99.39Q420.05 100.36 418.39 100.36L418.39 100.36Q416.74 100.36 415.73 99.39Q414.72 98.42 414.72 96.83L414.72 96.83L414.72 52.34Q414.72 50.75 415.76 49.82Q416.81 48.88 418.46 48.88L418.46 48.88Q420.05 48.88 421.02 49.78Q421.99 50.68 421.99 52.19L421.99 52.19L421.99 70.62Q423.58 67.46 426.60 65.73Q429.62 64.00 433.58 64.00L433.58 64.00ZM431.86 94.74Q436.54 94.74 439.16 91.43Q441.79 88.12 441.79 82.14L441.79 82.14Q441.79 76.24 439.20 73.04Q436.61 69.83 431.86 69.83L431.86 69.83Q427.10 69.83 424.55 73.07Q421.99 76.31 421.99 82.29L421.99 82.29Q421.99 88.26 424.55 91.50Q427.10 94.74 431.86 94.74L431.86 94.74ZM472.54 100.50Q467.35 100.50 463.43 98.27Q459.50 96.04 457.38 91.90Q455.26 87.76 455.26 82.29L455.26 82.29Q455.26 76.74 457.38 72.60Q459.50 68.46 463.43 66.23Q467.35 64.00 472.54 64.00L472.54 64.00Q477.72 64.00 481.64 66.23Q485.57 68.46 487.69 72.60Q489.82 76.74 489.82 82.29L489.82 82.29Q489.82 87.76 487.69 91.90Q485.57 96.04 481.64 98.27Q477.72 100.50 472.54 100.50L472.54 100.50ZM472.54 94.74Q477.36 94.74 479.92 91.58Q482.47 88.41 482.47 82.29L482.47 82.29Q482.47 76.24 479.88 73.04Q477.29 69.83 472.54 69.83L472.54 69.83Q467.78 69.83 465.19 73.04Q462.60 76.24 462.60 82.29L462.60 82.29Q462.60 88.41 465.16 91.58Q467.71 94.74 472.54 94.74L472.54 94.74ZM501.55 100.36Q499.97 100.36 498.92 99.50Q497.88 98.63 497.88 96.90L497.88 96.90L497.88 52.41Q497.88 50.68 498.92 49.78Q499.97 48.88 501.55 48.88L501.55 48.88Q503.14 48.88 504.14 49.78Q505.15 50.68 505.15 52.41L505.15 52.41L505.15 96.90Q505.15 98.63 504.14 99.50Q503.14 100.36 501.55 100.36L501.55 100.36ZM544.03 48.88Q545.69 48.88 546.70 49.82Q547.70 50.75 547.70 52.34L547.70 52.34L547.70 96.83Q547.70 98.49 546.73 99.42Q545.76 100.36 544.10 100.36L544.10 100.36Q542.45 100.36 541.48 99.42Q540.50 98.49 540.50 96.83L540.50 96.83L540.50 93.95Q538.92 97.12 535.90 98.81Q532.87 100.50 528.91 100.50L528.91 100.50Q524.38 100.50 520.81 98.20Q517.25 95.90 515.27 91.72Q513.29 87.54 513.29 82.14L513.29 82.14Q513.29 76.67 515.27 72.57Q517.25 68.46 520.78 66.23Q524.30 64.00 528.91 64.00L528.91 64.00Q532.87 64.00 535.86 65.69Q538.85 67.38 540.43 70.48L540.43 70.48L540.43 52.19Q540.43 50.68 541.40 49.78Q542.38 48.88 544.03 48.88L544.03 48.88ZM530.64 94.74Q535.32 94.74 537.91 91.50Q540.50 88.26 540.50 82.29L540.50 82.29Q540.50 76.31 537.95 73.07Q535.39 69.83 530.64 69.83L530.64 69.83Q525.89 69.83 523.26 73.04Q520.63 76.24 520.63 82.14L520.63 82.14Q520.63 88.05 523.30 91.40Q525.96 94.74 530.64 94.74L530.64 94.74Z"/></svg>