<svg xmlns="http://www.w3.org/2000/svg" viewBox="0.76 -7.16 55.160000000000004 7.25"><path d="M5.50-2.14L5.50-7.05L6.71-7.05L6.71 0L5.74 0L1.96-4.92L1.96 0L0.76 0L0.76-7.05L1.72-7.05L5.50-2.14ZM11.36-4.89L12.61-4.89L12.61 0L11.39 0L11.39-0.75Q11.16-0.35 10.77-0.14Q10.38 0.08 9.89 0.08L9.89 0.08Q8.09 0.08 8.09-1.94L8.09-1.94L8.09-4.89L9.34-4.89L9.34-1.93Q9.34-1.41 9.55-1.16Q9.76-0.91 10.21-0.91L10.21-0.91Q10.73-0.91 11.04-1.26Q11.36-1.60 11.36-2.17L11.36-2.17L11.36-4.89ZM16.75-5.01Q17.63-5.01 18.06-4.51Q18.49-4.01 18.49-3L18.49-3L18.49 0L17.24 0L17.24-2.93Q17.24-3.50 17.02-3.76Q16.81-4.02 16.35-4.02L16.35-4.02Q15.81-4.02 15.48-3.68Q15.16-3.34 15.16-2.77L15.16-2.77L15.16 0L13.91 0L13.91-4.89L15.13-4.89L15.13-4.16Q15.38-4.57 15.80-4.79Q16.22-5.01 16.75-5.01L16.75-5.01ZM21.01 0L19.76 0L19.76-4.89L21.01-4.89L21.01 0ZM19.69-5.93L19.69-7.16L21.07-7.16L21.07-5.93L19.69-5.93ZM24.80-0.86Q25.02-0.86 25.26-0.89L25.26-0.89L25.20 0.04Q24.90 0.07 24.65 0.07L24.65 0.07Q23.62 0.07 23.13-0.41Q22.64-0.88 22.64-1.82L22.64-1.82L22.64-3.95L21.70-3.95L21.70-4.89L22.64-4.89L22.64-6.35L23.89-6.35L23.89-4.89L25.18-4.89L25.18-3.95L23.89-3.95L23.89-1.84Q23.89-0.86 24.80-0.86L24.80-0.86ZM28.22 0.08Q27.47 0.08 26.91-0.23Q26.34-0.54 26.03-1.12Q25.72-1.70 25.72-2.47L25.72-2.47Q25.72-3.24 26.03-3.81Q26.34-4.39 26.91-4.70Q27.47-5.01 28.22-5.01L28.22-5.01Q28.97-5.01 29.54-4.70Q30.10-4.39 30.41-3.81Q30.71-3.24 30.71-2.47L30.71-2.47Q30.71-1.70 30.41-1.12Q30.10-0.54 29.54-0.23Q28.97 0.08 28.22 0.08L28.22 0.08ZM28.21-0.89Q28.82-0.89 29.14-1.29Q29.46-1.69 29.46-2.47L29.46-2.47Q29.46-3.24 29.14-3.65Q28.82-4.05 28.22-4.05L28.22-4.05Q27.62-4.05 27.30-3.65Q26.97-3.24 26.97-2.47L26.97-2.47Q26.97-1.69 27.29-1.29Q27.61-0.89 28.21-0.89L28.21-0.89ZM36.95 0.09Q36.14 0.09 35.43-0.13Q34.72-0.35 34.23-0.75L34.23-0.75L34.66-1.69Q35.17-1.30 35.73-1.12Q36.30-0.94 36.96-0.94L36.96-0.94Q37.69-0.94 38.08-1.20Q38.48-1.45 38.48-1.91L38.48-1.91Q38.48-2.31 38.11-2.52Q37.75-2.73 36.90-2.92L36.90-2.92Q36.02-3.11 35.47-3.36Q34.92-3.61 34.64-4Q34.36-4.39 34.36-4.99L34.36-4.99Q34.36-5.61 34.70-6.10Q35.04-6.59 35.66-6.87Q36.28-7.14 37.09-7.14L37.09-7.14Q37.83-7.14 38.50-6.92Q39.17-6.69 39.60-6.30L39.60-6.30L39.17-5.36Q38.23-6.11 37.09-6.11L37.09-6.11Q36.41-6.11 36.02-5.83Q35.62-5.56 35.62-5.07L35.62-5.07Q35.62-4.66 35.97-4.44Q36.32-4.22 37.16-4.03L37.16-4.03Q38.05-3.83 38.60-3.58Q39.16-3.34 39.45-2.96Q39.75-2.58 39.75-2L39.75-2Q39.75-1.37 39.41-0.90Q39.08-0.42 38.45-0.17Q37.81 0.09 36.95 0.09L36.95 0.09ZM42.93-5.01Q43.96-5.01 44.46-4.51Q44.96-4.01 44.96-2.97L44.96-2.97L44.96 0L43.77 0L43.77-0.75Q43.60-0.36 43.23-0.14Q42.87 0.08 42.39 0.08L42.39 0.08Q41.90 0.08 41.50-0.12Q41.10-0.32 40.87-0.67Q40.64-1.02 40.64-1.45L40.64-1.45Q40.64-1.99 40.91-2.30Q41.19-2.61 41.81-2.75Q42.43-2.89 43.52-2.89L43.52-2.89L43.77-2.89L43.77-3.12Q43.77-3.62 43.55-3.84Q43.34-4.06 42.84-4.06L42.84-4.06Q42.45-4.06 42.02-3.93Q41.60-3.79 41.19-3.55L41.19-3.55L40.84-4.41Q41.25-4.67 41.83-4.84Q42.41-5.01 42.93-5.01L42.93-5.01ZM42.64-0.82Q43.14-0.82 43.45-1.16Q43.77-1.49 43.77-2.02L43.77-2.02L43.77-2.23L43.59-2.23Q42.92-2.23 42.55-2.17Q42.18-2.11 42.02-1.96Q41.86-1.81 41.86-1.55L41.86-1.55Q41.86-1.23 42.08-1.02Q42.30-0.82 42.64-0.82L42.64-0.82ZM49.07-5.01Q49.95-5.01 50.38-4.51Q50.81-4.01 50.81-3L50.81-3L50.81 0L49.56 0L49.56-2.93Q49.56-3.50 49.34-3.76Q49.13-4.02 48.67-4.02L48.67-4.02Q48.13-4.02 47.80-3.68Q47.48-3.34 47.48-2.77L47.48-2.77L47.48 0L46.23 0L46.23-4.89L47.45-4.89L47.45-4.16Q47.70-4.57 48.12-4.79Q48.54-5.01 49.07-5.01L49.07-5.01ZM53.88 0.08Q53.23 0.08 52.69-0.08Q52.14-0.24 51.76-0.54L51.76-0.54L52.11-1.41Q52.89-0.84 53.90-0.84L53.90-0.84Q54.33-0.84 54.55-0.98Q54.78-1.12 54.78-1.38L54.78-1.38Q54.78-1.60 54.63-1.72Q54.47-1.84 54.07-1.94L54.07-1.94L53.27-2.12Q52.59-2.27 52.26-2.61Q51.93-2.95 51.93-3.49L51.93-3.49Q51.93-3.94 52.19-4.29Q52.44-4.63 52.90-4.82Q53.35-5.01 53.95-5.01L53.95-5.01Q54.47-5.01 54.95-4.85Q55.44-4.69 55.81-4.40L55.81-4.40L55.46-3.55Q54.70-4.10 53.94-4.10L53.94-4.10Q53.53-4.10 53.30-3.95Q53.07-3.80 53.07-3.53L53.07-3.53Q53.07-3.33 53.22-3.20Q53.36-3.07 53.68-3L53.68-3L54.51-2.81Q55.24-2.65 55.58-2.31Q55.92-1.96 55.92-1.40L55.92-1.40Q55.92-0.72 55.37-0.32Q54.82 0.08 53.88 0.08L53.88 0.08Z"/></svg>