<svg xmlns="http://www.w3.org/2000/svg" viewBox="4.104 48.44799999999999 741.8880000000001 52.2"><path d="M39 84L42 49L51 49L47 100L40 100L16 65L13 100L4 100L8 49L15 49L39 84ZM83 65L92 65L89 100L81 100L81 95Q79 98 76 99Q73 101 70 101L70 101Q64 101 61 97Q58 94 58 88L58 88Q58 87 58 86L58 86L60 65L69 65L67 85Q67 86 67 87L67 87Q67 93 73 93L73 93Q77 93 79 91Q81 89 82 84L82 84L83 65ZM122 64Q127 64 131 67Q134 70 134 77L134 77Q134 78 133 79L133 79L132 100L123 100L124 79Q125 71 118 71L118 71Q114 71 112 73Q110 76 109 80L109 80L108 100L99 100L102 65L110 65L110 69Q112 67 115 65Q118 64 122 64L122 64ZM150 100L141 100L144 65L153 65L150 100ZM144 57L144 48L154 48L154 57L144 57ZM173 72L172 87Q172 87 172 88L172 88Q172 94 178 94L178 94Q179 94 181 94L181 94L180 100Q178 101 176 101L176 101Q170 101 166 97Q163 94 163 89L163 89Q163 87 163 87L163 87L164 72L157 72L158 65L164 65L165 54L174 54L173 65L183 65L182 72L173 72ZM203 101Q197 101 194 98Q190 96 187 92Q185 88 185 83L185 83Q185 77 187 73Q190 69 194 66Q198 64 203 64L203 64Q209 64 213 66Q217 68 219 72Q221 76 221 81L221 81Q221 87 219 92Q217 96 213 98Q208 101 203 101L203 101ZM203 94Q208 94 210 90Q212 87 212 81L212 81Q212 76 210 73Q208 71 204 71L204 71Q199 71 197 74Q194 78 194 84L194 84Q194 94 203 94L203 94ZM266 101Q260 101 255 99Q249 98 246 95L246 95L249 88Q253 91 257 92Q261 93 266 93L266 93Q271 93 274 92Q277 90 277 87L277 87Q277 84 275 83Q274 82 272 81Q269 80 265 79L265 79Q260 77 257 76Q254 74 251 71Q249 69 249 64L249 64Q249 59 251 56Q254 52 258 50Q263 49 269 49L269 49Q274 49 279 50Q284 52 287 55L287 55L284 61Q280 59 277 57Q273 56 269 56L269 56Q264 56 261 58Q258 60 258 63L258 63Q258 65 260 67Q261 68 263 69Q266 70 270 71L270 71Q275 73 278 74Q281 76 284 78Q286 81 286 86L286 86Q286 93 281 97Q275 101 266 101L266 101ZM310 64Q317 64 321 67Q324 70 324 77L324 77Q324 78 324 79L324 79L322 100L314 100L314 95Q313 98 310 99Q308 101 304 101L304 101Q301 101 298 99Q295 98 294 96Q292 93 292 90L292 90Q292 86 294 84Q296 81 301 80Q305 79 313 79L313 79L315 79L316 78Q316 74 314 72Q313 71 309 71L309 71Q306 71 303 72Q300 73 297 74L297 74L295 68Q298 66 302 65Q306 64 310 64L310 64ZM307 94Q310 94 312 92Q315 89 315 86L315 86L315 84L313 84Q308 84 306 84Q303 85 302 86Q301 87 301 89L301 89Q301 92 302 93Q304 94 307 94L307 94ZM354 64Q360 64 363 67Q366 70 366 77L366 77Q366 78 366 79L366 79L364 100L355 100L357 79Q358 71 351 71L351 71Q347 71 345 73Q342 76 342 80L342 80L340 100L331 100L334 65L343 65L343 69Q344 67 347 65Q350 64 354 64L354 64ZM387 101Q379 101 372 96L372 96L375 90Q381 94 387 94L387 94Q394 94 394 90L394 90Q394 88 392 87Q390 86 386 85L386 85Q383 84 380 83Q378 82 376 80Q374 78 374 75L374 75Q374 72 376 69Q378 67 382 65Q385 64 389 64L389 64Q393 64 397 65Q401 66 403 68L403 68L400 74Q395 70 389 70L389 70Q386 70 384 72Q383 73 383 74L383 74Q383 76 384 77Q386 78 390 79L390 79Q394 80 396 81Q399 82 400 84Q402 86 402 90L402 90Q402 95 398 98Q394 101 387 101L387 101ZM450 64Q455 64 458 66Q462 68 463 72Q465 76 465 81L465 81Q465 87 463 91Q461 96 457 98Q454 101 449 101L449 101Q445 101 442 99Q439 97 437 94L437 94L437 100L428 100L432 49L441 49L439 69Q441 67 444 65Q447 64 450 64L450 64ZM447 94Q451 94 454 90Q456 87 456 81L456 81Q456 76 454 74Q452 71 447 71L447 71Q443 71 441 74Q438 77 438 83L438 83Q438 88 441 91Q443 94 447 94L447 94ZM488 101Q483 101 479 98Q475 96 473 92Q471 88 471 83L471 83Q471 77 473 73Q475 69 479 66Q484 64 489 64L489 64Q494 64 498 66Q502 68 505 72Q507 76 507 81L507 81Q507 87 504 92Q502 96 498 98Q494 101 488 101L488 101ZM488 94Q493 94 495 90Q498 87 498 81L498 81Q498 76 496 73Q493 71 489 71L489 71Q484 71 482 74Q480 78 480 84L480 84Q480 94 488 94L488 94ZM522 100L513 100L517 49L526 49L522 100ZM560 49L569 49L565 100L556 100L556 95Q555 98 552 99Q549 101 545 101L545 101Q541 101 538 99Q534 96 532 93Q530 89 530 84L530 84Q530 78 533 73Q535 69 538 66Q542 64 547 64L547 64Q551 64 554 65Q557 67 558 70L558 70L560 49ZM548 94Q553 94 555 90Q557 87 557 81L557 81Q557 76 555 74Q553 71 549 71L549 71Q544 71 542 74Q539 77 539 83L539 83Q539 88 542 91Q544 94 548 94L548 94ZM603 100L594 100L597 65L606 65L603 100ZM597 57L597 48L607 48L607 57L597 57ZM626 72L625 87Q625 87 625 88L625 88Q625 94 631 94L631 94Q632 94 634 94L634 94L633 100Q631 101 629 101L629 101Q622 101 619 97Q616 94 616 89L616 89Q616 87 616 87L616 87L617 72L610 72L611 65L617 65L618 54L627 54L626 65L636 65L635 72L626 72ZM656 64Q663 64 667 67Q670 70 670 77L670 77Q670 78 670 79L670 79L668 100L660 100L660 95Q659 98 656 99Q654 101 650 101L650 101Q647 101 644 99Q641 98 640 96Q638 93 638 90L638 90Q638 86 640 84Q642 81 647 80Q651 79 659 79L659 79L661 79L662 78Q662 74 660 72Q659 71 655 71L655 71Q652 71 649 72Q646 73 643 74L643 74L641 68Q644 66 648 65Q652 64 656 64L656 64ZM653 94Q656 94 658 92Q661 89 661 86L661 86L661 84L659 84Q654 84 652 84Q649 85 648 86Q647 87 647 89L647 89Q647 92 648 93Q650 94 653 94L653 94ZM687 100L678 100L682 49L691 49L687 100ZM705 100L696 100L699 65L708 65L705 100ZM699 57L699 48L709 48L709 57L699 57ZM731 101Q726 101 722 98Q718 96 716 92Q714 89 714 83L714 83Q714 77 716 73Q718 69 723 66Q727 64 733 64L733 64Q741 64 746 68L746 68L743 75Q738 71 733 71L733 71Q728 71 725 74Q723 77 723 83L723 83Q723 88 725 91Q728 94 732 94L732 94Q735 94 737 93Q739 92 742 90L742 90L744 96Q741 98 738 99Q735 101 731 101L731 101Z"/></svg>