<svg xmlns="http://www.w3.org/2000/svg" viewBox="5.904000000000001 48.663999999999994 720.6480000000001 51.912"><path d="M41 88L41 49L48 49L48 100L42 100L13 62L13 100L6 100L6 49L12 49L41 88ZM82 65L89 65L89 100L82 100L82 94Q81 97 78 99Q75 101 71 101L71 101Q58 101 58 86L58 86L58 65L66 65L66 86Q66 91 67 93Q69 95 73 95L73 95Q77 95 80 92Q82 89 82 85L82 85L82 65ZM118 64Q131 64 131 78L131 78L131 100L124 100L124 79Q124 74 122 72Q120 70 116 70L116 70Q112 70 109 73Q107 75 107 80L107 80L107 100L100 100L100 65L107 65L107 70Q108 67 111 66Q115 64 118 64L118 64ZM148 100L141 100L141 65L148 65L148 100ZM140 57L140 49L149 49L149 57L140 57ZM175 95Q177 95 178 95L178 95L178 100Q176 101 174 101L174 101Q167 101 164 97Q161 94 161 87L161 87L161 70L154 70L154 65L161 65L161 54L168 54L168 65L178 65L178 70L168 70L168 87Q168 95 175 95L175 95ZM199 101Q194 101 190 98Q186 96 184 92Q182 88 182 82L182 82Q182 77 184 73Q186 68 190 66Q194 64 199 64L199 64Q204 64 208 66Q212 68 214 73Q216 77 216 82L216 82Q216 88 214 92Q212 96 208 98Q204 101 199 101L199 101ZM199 95Q204 95 206 92Q209 88 209 82L209 82Q209 76 206 73Q204 70 199 70L199 70Q194 70 192 73Q189 76 189 82L189 82Q189 88 192 92Q194 95 199 95L199 95ZM261 101Q255 101 250 99Q245 97 242 94L242 94L244 89Q248 92 252 93Q256 95 261 95L261 95Q267 95 270 92Q273 90 273 86L273 86Q273 83 270 81Q267 80 261 78L261 78Q255 77 251 75Q247 74 245 71Q243 68 243 64L243 64Q243 59 245 56Q247 52 252 51Q256 49 262 49L262 49Q267 49 272 50Q276 52 279 55L279 55L277 60Q273 58 270 56Q266 55 262 55L262 55Q256 55 253 57Q250 59 250 63L250 63Q250 67 253 69Q255 70 261 72L261 72Q268 73 272 75Q276 76 278 79Q280 82 280 86L280 86Q280 90 278 94Q276 97 271 99Q267 101 261 101L261 101ZM303 64Q310 64 314 68Q317 71 317 78L317 78L317 100L310 100L310 94Q309 97 306 99Q303 101 300 101L300 101Q296 101 293 99Q291 98 289 95Q287 93 287 90L287 90Q287 86 289 84Q291 81 296 80Q300 79 308 79L308 79L310 79L310 77Q310 73 308 72Q307 70 303 70L303 70Q297 70 291 73L291 73L289 68Q292 66 296 65Q300 64 303 64L303 64ZM301 95Q305 95 308 92Q310 90 310 85L310 85L310 84L309 84Q303 84 300 84Q297 85 296 86Q295 87 295 89L295 89Q295 92 296 93Q298 95 301 95L301 95ZM346 64Q359 64 359 78L359 78L359 100L351 100L351 79Q351 74 350 72Q348 70 344 70L344 70Q340 70 337 73Q334 75 334 80L334 80L334 100L327 100L327 65L334 65L334 70Q336 67 339 66Q342 64 346 64L346 64ZM381 101Q372 101 366 96L366 96L369 91Q374 95 381 95L381 95Q385 95 387 94Q388 93 388 90L388 90Q388 89 387 87Q386 86 383 86L383 86L377 84Q372 83 370 81Q368 78 368 75L368 75Q368 70 371 67Q375 64 382 64L382 64Q385 64 389 65Q392 66 394 69L394 69L392 74Q387 70 382 70L382 70Q378 70 376 71Q374 72 374 74L374 74Q374 76 376 77Q377 78 379 79L379 79L385 80Q390 81 393 84Q395 86 395 90L395 90Q395 95 391 98Q388 101 381 101L381 101ZM435 101Q426 101 420 96L420 96L422 91Q428 95 435 95L435 95Q438 95 440 94Q442 93 442 90L442 90Q442 89 441 87Q440 86 437 86L437 86L431 84Q426 83 424 81Q421 78 421 75L421 75Q421 70 425 67Q429 64 435 64L435 64Q439 64 442 65Q446 66 448 69L448 69L446 74Q441 70 435 70L435 70Q432 70 430 71Q428 72 428 74L428 74Q428 76 429 77Q430 78 433 79L433 79L439 80Q444 81 447 84Q449 86 449 90L449 90Q449 95 445 98Q441 101 435 101L435 101ZM487 81L487 84L462 84Q463 95 473 95L473 95Q479 95 484 91L484 91L487 96Q484 98 480 99Q477 101 473 101L473 101Q465 101 460 96Q455 91 455 82L455 82Q455 77 457 73Q459 69 463 66Q467 64 472 64L472 64Q479 64 483 69Q487 73 487 81L487 81ZM472 69Q468 69 465 72Q463 75 462 79L462 79L481 79Q481 75 478 72Q476 69 472 69L472 69ZM535 64Q547 64 547 78L547 78L547 100L540 100L540 78Q540 74 538 72Q537 70 533 70L533 70Q529 70 527 73Q525 75 525 80L525 80L525 100L518 100L518 78Q518 74 516 72Q514 70 511 70L511 70Q507 70 505 73Q502 75 502 80L502 80L502 100L495 100L495 65L502 65L502 70Q504 67 507 66Q509 64 513 64L513 64Q521 64 524 71L524 71Q525 68 528 66Q532 64 535 64L535 64ZM564 100L557 100L557 65L564 65L564 100ZM557 57L557 49L565 49L565 57L557 57ZM612 64Q617 64 621 66Q624 68 626 73Q628 77 628 82L628 82Q628 88 626 92Q624 96 621 98Q617 101 612 101L612 101Q608 101 605 99Q602 97 601 94L601 94L601 100L594 100L594 49L601 49L601 71Q602 67 605 66Q608 64 612 64L612 64ZM611 95Q615 95 618 91Q621 88 621 82L621 82Q621 76 618 73Q615 70 611 70L611 70Q606 70 603 73Q601 76 601 82L601 82Q601 88 603 92Q606 95 611 95L611 95ZM651 101Q646 101 642 98Q638 96 636 92Q634 88 634 82L634 82Q634 77 636 73Q638 68 642 66Q646 64 651 64L651 64Q657 64 660 66Q664 68 667 73Q669 77 669 82L669 82Q669 88 667 92Q664 96 660 98Q657 101 651 101L651 101ZM651 95Q656 95 659 92Q661 88 661 82L661 82Q661 76 659 73Q656 70 651 70L651 70Q647 70 644 73Q641 76 641 82L641 82Q641 88 644 92Q647 95 651 95L651 95ZM684 100L677 100L677 49L684 49L684 100ZM719 49L727 49L727 100L719 100L719 94Q718 97 715 99Q712 101 708 101L708 101Q703 101 700 98Q696 96 694 92Q692 88 692 82L692 82Q692 77 694 73Q696 68 700 66Q703 64 708 64L708 64Q712 64 715 66Q718 67 719 70L719 70L719 49ZM709 95Q714 95 717 92Q719 88 719 82L719 82Q719 76 717 73Q714 70 709 70L709 70Q705 70 702 73Q699 76 699 82L699 82Q699 88 702 91Q705 95 709 95L709 95Z"/></svg>