<svg xmlns="http://www.w3.org/2000/svg" viewBox="5.472 48.087999999999994 379.51200000000006 52.488"><path d="M44 49Q46 49 47 50Q48 51 48 53L48 53L48 96Q48 98 47 99Q46 100 44 100L44 100Q42 100 40 99L40 99L14 65L14 96Q14 98 13 99Q12 100 10 100L10 100Q8 100 7 99Q5 98 5 96L5 96L5 53Q5 51 7 50Q8 49 10 49L10 49Q12 49 13 51L13 51L40 85L40 53Q40 51 41 50Q42 49 44 49L44 49ZM86 64Q88 64 90 65Q91 66 91 68L91 68L91 96Q91 98 90 99Q88 100 86 100L86 100Q84 100 83 99Q82 98 82 96L82 96L82 95Q80 97 78 99Q75 101 71 101L71 101Q58 101 58 86L58 86L58 68Q58 66 59 65Q61 64 63 64L63 64Q65 64 66 65Q67 66 67 68L67 68L67 86Q67 90 69 92Q70 93 74 93L74 93Q77 93 80 91Q82 88 82 84L82 84L82 68Q82 66 83 65Q84 64 86 64L86 64ZM121 64Q127 64 130 68Q133 71 133 78L133 78L133 96Q133 98 132 99Q131 100 129 100L129 100Q127 100 125 99Q124 98 124 96L124 96L124 79Q124 75 123 73Q121 71 118 71L118 71Q114 71 111 74Q109 76 109 80L109 80L109 96Q109 98 108 99Q107 100 105 100L105 100Q103 100 101 99Q100 98 100 96L100 96L100 68Q100 66 101 65Q103 64 105 64L105 64Q107 64 108 65Q109 66 109 68L109 68L109 70Q111 67 114 66Q117 64 121 64L121 64ZM147 100Q145 100 144 99Q142 98 142 96L142 96L142 68Q142 66 144 65Q145 64 147 64L147 64Q149 64 150 65Q151 66 151 68L151 68L151 96Q151 98 150 99Q149 100 147 100L147 100ZM147 58Q144 58 143 56Q141 55 141 53L141 53Q141 51 143 49Q144 48 147 48L147 48Q149 48 151 49Q152 51 152 53L152 53Q152 55 151 56Q149 58 147 58L147 58ZM179 94Q182 94 182 97L182 97Q182 99 181 100Q180 101 177 100L177 100L175 100Q163 99 163 87L163 87L163 72L159 72Q157 72 156 71Q155 70 155 68L155 68Q155 67 156 66Q157 65 159 65L159 65L163 65L163 58Q163 56 164 55Q165 54 168 54L168 54Q170 54 171 55Q172 56 172 58L172 58L172 65L178 65Q180 65 181 66Q182 67 182 68L182 68Q182 70 181 71Q180 72 178 72L178 72L172 72L172 88Q172 93 177 94L177 94L179 94ZM203 101Q198 101 194 98Q190 96 187 92Q185 88 185 82L185 82Q185 77 187 73Q190 68 194 66Q198 64 203 64L203 64Q209 64 213 66Q217 68 219 73Q221 77 221 82L221 82Q221 88 219 92Q217 96 213 98Q209 101 203 101L203 101ZM203 94Q208 94 210 91Q212 88 212 82L212 82Q212 77 210 74Q208 71 203 71L203 71Q199 71 197 74Q194 77 194 82L194 82Q194 88 196 91Q199 94 203 94L203 94ZM268 64Q273 64 276 66Q280 68 282 72Q284 77 284 82L284 82Q284 88 282 92Q280 96 276 98Q273 101 268 101L268 101Q264 101 261 99Q258 97 257 94L257 94L257 96Q257 98 256 99Q254 100 252 100L252 100Q250 100 249 99Q248 98 248 96L248 96L248 53Q248 51 249 50Q251 49 253 49L253 49Q255 49 256 50Q257 51 257 53L257 53L257 70Q259 67 262 65Q265 64 268 64L268 64ZM266 94Q270 94 273 91Q275 88 275 82L275 82Q275 77 273 74Q270 71 266 71L266 71Q262 71 259 74Q257 77 257 82L257 82Q257 88 259 91Q262 94 266 94L266 94ZM307 101Q302 101 298 98Q294 96 292 92Q289 88 289 82L289 82Q289 77 292 73Q294 68 298 66Q302 64 307 64L307 64Q313 64 317 66Q321 68 323 73Q325 77 325 82L325 82Q325 88 323 92Q321 96 317 98Q313 101 307 101L307 101ZM307 94Q312 94 314 91Q316 88 316 82L316 82Q316 77 314 74Q312 71 307 71L307 71Q303 71 301 74Q298 77 298 82L298 82Q298 88 301 91Q303 94 307 94L307 94ZM337 100Q335 100 334 99Q333 98 333 96L333 96L333 53Q333 51 334 50Q335 49 337 49L337 49Q339 49 340 50Q342 51 342 53L342 53L342 96Q342 98 340 99Q339 100 337 100L337 100ZM380 49Q382 49 384 50Q385 51 385 53L385 53L385 96Q385 98 384 99Q383 100 381 100L381 100Q379 100 377 99Q376 98 376 96L376 96L376 94Q374 97 371 99Q368 101 365 101L365 101Q360 101 357 98Q353 96 351 92Q349 88 349 82L349 82Q349 77 351 72Q353 68 357 66Q360 64 365 64L365 64Q368 64 371 66Q374 67 376 70L376 70L376 53Q376 51 377 50Q378 49 380 49L380 49ZM367 94Q371 94 374 91Q376 88 376 82L376 82Q376 77 374 74Q371 71 367 71L367 71Q363 71 360 74Q358 77 358 82L358 82Q358 88 360 91Q363 94 367 94L367 94Z"/></svg>