<svg xmlns="http://www.w3.org/2000/svg" viewBox="0.68 -7.13 53.39 7.21"><path d="M5.66-1.40L6.11-7.05L6.88-7.05L6.33 0L5.70 0L1.90-5.67L1.45 0L0.68 0L1.23-7.05L1.87-7.05L5.66-1.40ZM11.62-4.87L12.43-4.87L12.05 0L11.26 0L11.32-0.79Q11.07-0.38 10.65-0.15Q10.23 0.07 9.71 0.07L9.71 0.07Q8.90 0.07 8.48-0.35Q8.06-0.78 8.06-1.60L8.06-1.60Q8.06-1.78 8.07-1.87L8.07-1.87L8.31-4.87L9.12-4.87L8.88-1.92Q8.87-1.85 8.87-1.71L8.87-1.71Q8.87-0.61 9.92-0.61L9.92-0.61Q10.57-0.61 10.96-1.01Q11.35-1.41 11.40-2.12L11.40-2.12L11.62-4.87ZM16.33-4.99Q17.15-4.99 17.58-4.56Q18.01-4.13 18.01-3.31L18.01-3.31Q18.01-3.13 18-3.04L18-3.04L17.76 0L16.95 0L17.19-2.99Q17.20-3.06 17.20-3.20L17.20-3.20Q17.20-4.31 16.13-4.31L16.13-4.31Q15.45-4.31 15.05-3.91Q14.65-3.50 14.59-2.79L14.59-2.79L14.37 0L13.56 0L13.95-4.87L14.74-4.87L14.68-4.12Q14.93-4.53 15.36-4.76Q15.79-4.99 16.33-4.99L16.33-4.99ZM20.05 0L19.24 0L19.63-4.87L20.44-4.87L20.05 0ZM19.63-6.07L19.71-6.98L20.69-6.98L20.62-6.07L19.63-6.07ZM22.97-4.23L22.78-1.76Q22.77-1.69 22.77-1.57L22.77-1.57Q22.77-0.58 23.75-0.58L23.75-0.58Q23.99-0.58 24.19-0.62L24.19-0.62L24.10 0.02Q23.89 0.07 23.63 0.07L23.63 0.07Q22.82 0.07 22.39-0.34Q21.96-0.75 21.96-1.50L21.96-1.50Q21.96-1.64 21.97-1.72L21.97-1.72L22.17-4.23L21.22-4.23L21.26-4.87L22.21-4.87L22.33-6.35L23.14-6.35L23.02-4.87L24.41-4.87L24.36-4.23L22.97-4.23ZM27.12 0.07Q26.44 0.07 25.92-0.22Q25.41-0.51 25.13-1.04Q24.86-1.58 24.86-2.29L24.86-2.29Q24.86-3.10 25.15-3.71Q25.45-4.32 25.98-4.66Q26.52-4.99 27.23-4.99L27.23-4.99Q27.92-4.99 28.43-4.70Q28.94-4.41 29.22-3.87Q29.50-3.33 29.50-2.62L29.50-2.62Q29.50-1.81 29.20-1.20Q28.91-0.59 28.37-0.26Q27.83 0.07 27.12 0.07L27.12 0.07ZM27.13-0.60Q27.86-0.60 28.27-1.15Q28.67-1.70 28.67-2.65L28.67-2.65Q28.67-3.45 28.29-3.89Q27.92-4.32 27.23-4.32L27.23-4.32Q26.50-4.32 26.09-3.76Q25.68-3.20 25.68-2.26L25.68-2.26Q25.68-1.45 26.05-1.02Q26.42-0.60 27.13-0.60L27.13-0.60ZM35.57 0.08Q34.74 0.08 34.08-0.14Q33.42-0.36 32.88-0.81L32.88-0.81L33.24-1.44Q33.78-1 34.34-0.81Q34.89-0.61 35.59-0.61L35.59-0.61Q36.45-0.61 36.91-0.93Q37.37-1.25 37.37-1.83L37.37-1.83Q37.37-2.19 37.15-2.42Q36.92-2.65 36.58-2.79Q36.24-2.92 35.65-3.09L35.65-3.09Q34.91-3.30 34.45-3.50Q33.99-3.70 33.66-4.09Q33.34-4.49 33.34-5.13L33.34-5.13Q33.34-5.73 33.66-6.19Q33.98-6.64 34.58-6.88Q35.17-7.13 35.96-7.13L35.96-7.13Q36.70-7.13 37.34-6.90Q37.99-6.67 38.44-6.24L38.44-6.24L38.07-5.61Q37.13-6.44 35.95-6.44L35.95-6.44Q35.09-6.44 34.63-6.11Q34.17-5.77 34.17-5.17L34.17-5.17Q34.17-4.77 34.41-4.52Q34.65-4.27 35.01-4.13Q35.36-3.98 35.99-3.79L35.99-3.79Q36.71-3.58 37.15-3.39Q37.59-3.20 37.90-2.84Q38.20-2.48 38.20-1.89L38.20-1.89Q38.20-0.98 37.50-0.45Q36.79 0.08 35.57 0.08L35.57 0.08ZM41.60-4.99Q43.33-4.99 43.33-3.33L43.33-3.33Q43.33-3.15 43.32-3.05L43.32-3.05L43.08 0L42.29 0L42.35-0.78Q42.13-0.36 41.75-0.14Q41.36 0.07 40.87 0.07L40.87 0.07Q40.14 0.07 39.68-0.33Q39.21-0.72 39.21-1.33L39.21-1.33Q39.21-1.88 39.50-2.21Q39.79-2.53 40.43-2.68Q41.07-2.83 42.16-2.83L42.16-2.83L42.52-2.83L42.54-3.12L42.55-3.31Q42.55-3.83 42.30-4.08Q42.05-4.32 41.51-4.32L41.51-4.32Q40.69-4.32 39.86-3.80L39.86-3.80L39.64-4.40Q40.01-4.66 40.55-4.83Q41.09-4.99 41.60-4.99L41.60-4.99ZM41.04-0.57Q41.61-0.57 42.01-0.97Q42.41-1.37 42.45-2L42.45-2L42.47-2.31L42.19-2.31Q41.31-2.31 40.85-2.21Q40.38-2.12 40.21-1.93Q40.03-1.74 40.03-1.40L40.03-1.40Q40.03-1.02 40.30-0.80Q40.57-0.57 41.04-0.57L41.04-0.57ZM47.33-4.99Q48.15-4.99 48.58-4.56Q49.01-4.13 49.01-3.31L49.01-3.31Q49.01-3.13 49-3.04L49-3.04L48.76 0L47.95 0L48.19-2.99Q48.20-3.06 48.20-3.20L48.20-3.20Q48.20-4.31 47.13-4.31L47.13-4.31Q46.45-4.31 46.05-3.91Q45.65-3.50 45.59-2.79L45.59-2.79L45.37 0L44.56 0L44.95-4.87L45.74-4.87L45.68-4.12Q45.93-4.53 46.36-4.76Q46.79-4.99 47.33-4.99L47.33-4.99ZM51.95 0.07Q51.39 0.07 50.88-0.10Q50.37-0.26 49.98-0.56L49.98-0.56L50.30-1.16Q50.70-0.86 51.10-0.72Q51.50-0.58 51.97-0.58L51.97-0.58Q53.14-0.58 53.14-1.30L53.14-1.30Q53.14-1.63 52.86-1.79Q52.58-1.95 51.98-2.13L51.98-2.13Q51.46-2.28 51.15-2.42Q50.83-2.56 50.60-2.83Q50.38-3.09 50.38-3.53L50.38-3.53Q50.38-4.19 50.91-4.59Q51.44-4.99 52.31-4.99L52.31-4.99Q52.83-4.99 53.30-4.82Q53.76-4.65 54.07-4.35L54.07-4.35L53.75-3.76Q53.09-4.33 52.31-4.33L52.31-4.33Q51.76-4.33 51.47-4.13Q51.17-3.94 51.17-3.57L51.17-3.57Q51.17-3.24 51.45-3.08Q51.74-2.92 52.32-2.75L52.32-2.75Q52.83-2.60 53.15-2.46Q53.47-2.32 53.70-2.05Q53.92-1.78 53.92-1.34L53.92-1.34Q53.92-0.69 53.38-0.31Q52.84 0.07 51.95 0.07L51.95 0.07Z"/></svg>