<svg xmlns="http://www.w3.org/2000/svg" viewBox="0.6177142857142857 -7.21 30.102285714285713 7.29"><path d="M6.46-7.10Q6.73-7.10 6.89-6.92Q7.05-6.75 7.02-6.47L7.02-6.47L6.56-0.58Q6.54-0.29 6.37-0.12Q6.19 0.06 5.92 0.06L5.92 0.06Q5.60 0.06 5.42-0.18L5.42-0.18L2.17-4.88L1.82-0.57Q1.80-0.28 1.63-0.11Q1.45 0.06 1.17 0.06L1.17 0.06Q0.91 0.06 0.76-0.12Q0.60-0.30 0.62-0.59L0.62-0.59L1.08-6.47Q1.10-6.75 1.28-6.92Q1.47-7.10 1.73-7.10L1.73-7.10Q2.06-7.10 2.22-6.86L2.22-6.86L5.48-2.16L5.82-6.48Q5.84-6.76 6.02-6.93Q6.20-7.10 6.46-7.10L6.46-7.10ZM12.19-4.99Q12.48-4.99 12.63-4.83Q12.79-4.68 12.76-4.40L12.76-4.40L12.45-0.51Q12.44-0.26 12.25-0.10Q12.06 0.06 11.78 0.06L11.78 0.06Q11.52 0.06 11.37-0.09Q11.22-0.24 11.23-0.49L11.23-0.49L11.25-0.68Q10.99-0.32 10.58-0.12Q10.17 0.08 9.68 0.08L9.68 0.08Q8.88 0.08 8.46-0.36Q8.04-0.80 8.04-1.64L8.04-1.64Q8.04-1.84 8.05-1.95L8.05-1.95L8.24-4.40Q8.26-4.68 8.45-4.83Q8.63-4.99 8.92-4.99L8.92-4.99Q9.20-4.99 9.36-4.83Q9.51-4.68 9.49-4.40L9.49-4.40L9.30-2.03Q9.29-1.97 9.29-1.85L9.29-1.85Q9.29-0.91 10.15-0.91L10.15-0.91Q10.67-0.91 10.97-1.25Q11.28-1.58 11.33-2.17L11.33-2.17L11.51-4.40Q11.54-4.68 11.72-4.83Q11.91-4.99 12.19-4.99L12.19-4.99ZM16.88-5.01Q17.70-5.01 18.13-4.57Q18.55-4.12 18.55-3.25L18.55-3.25Q18.55-3.06 18.54-2.96L18.54-2.96L18.34-0.54Q18.32-0.26 18.14-0.10Q17.96 0.06 17.68 0.06L17.68 0.06Q17.39 0.06 17.23-0.10Q17.07-0.26 17.09-0.54L17.09-0.54L17.29-2.91Q17.37-4.02 16.41-4.02L16.41-4.02Q15.86-4.02 15.55-3.69Q15.24-3.36 15.19-2.77L15.19-2.77L15-0.54Q14.98-0.26 14.80-0.10Q14.62 0.06 14.34 0.06L14.34 0.06Q14.05 0.06 13.89-0.10Q13.74-0.26 13.75-0.54L13.75-0.54L14.07-4.42Q14.08-4.68 14.27-4.83Q14.46-4.99 14.74-4.99L14.74-4.99Q15.01-4.99 15.16-4.84Q15.31-4.69 15.28-4.44L15.28-4.44L15.27-4.25Q15.52-4.61 15.94-4.81Q16.36-5.01 16.88-5.01L16.88-5.01ZM20.19 0.06Q19.92 0.06 19.75-0.09Q19.58-0.24 19.60-0.54L19.60-0.54L19.92-4.41Q19.94-4.70 20.13-4.84Q20.32-4.99 20.59-4.99L20.59-4.99Q20.86-4.99 21.02-4.84Q21.19-4.70 21.17-4.41L21.17-4.41L20.85-0.54Q20.83-0.24 20.64-0.09Q20.45 0.06 20.19 0.06L20.19 0.06ZM20.71-5.88Q20.37-5.88 20.17-6.07Q19.97-6.25 19.97-6.55L19.97-6.55Q19.97-6.85 20.17-7.03Q20.37-7.21 20.71-7.21L20.71-7.21Q21.04-7.21 21.25-7.03Q21.45-6.85 21.45-6.55L21.45-6.55Q21.45-6.25 21.25-6.07Q21.05-5.88 20.71-5.88L20.71-5.88ZM24.01-3.95L23.85-1.86Q23.84-1.80 23.84-1.68L23.84-1.68Q23.84-1.28 24.02-1.07Q24.21-0.86 24.55-0.86L24.55-0.86Q24.64-0.86 24.77-0.88Q24.89-0.89 24.97-0.89L24.97-0.89Q25.11-0.89 25.19-0.78Q25.27-0.67 25.27-0.48L25.27-0.48Q25.27-0.17 25.05-0.05Q24.83 0.07 24.28 0.07L24.28 0.07Q23.47 0.07 23.03-0.36Q22.59-0.79 22.59-1.58L22.59-1.58Q22.59-1.76 22.60-1.85L22.60-1.85L22.76-3.95L22.27-3.95Q22.02-3.95 21.88-4.07Q21.74-4.18 21.74-4.40L21.74-4.40Q21.74-4.89 22.33-4.89L22.33-4.89L22.84-4.89L22.91-5.81Q22.93-6.08 23.11-6.24Q23.29-6.39 23.58-6.39L23.58-6.39Q23.87-6.39 24.02-6.24Q24.18-6.08 24.16-5.80L24.16-5.80L24.09-4.89L24.93-4.89Q25.18-4.89 25.31-4.78Q25.45-4.66 25.45-4.45L25.45-4.45Q25.45-3.95 24.87-3.95L24.87-3.95L24.01-3.95ZM28.18 0.08Q27.43 0.08 26.88-0.21Q26.32-0.51 26.02-1.05Q25.72-1.60 25.72-2.32L25.72-2.32Q25.72-3.14 26.04-3.75Q26.35-4.36 26.93-4.69Q27.50-5.01 28.26-5.01L28.26-5.01Q29.01-5.01 29.56-4.71Q30.12-4.42 30.42-3.88Q30.72-3.33 30.72-2.61L30.72-2.61Q30.72-1.79 30.41-1.18Q30.09-0.57 29.52-0.24Q28.94 0.08 28.18 0.08L28.18 0.08ZM28.18-0.89Q28.82-0.89 29.14-1.38Q29.47-1.86 29.47-2.65L29.47-2.65Q29.47-3.34 29.16-3.70Q28.86-4.05 28.27-4.05L28.27-4.05Q27.63-4.05 27.30-3.56Q26.97-3.08 26.97-2.29L26.97-2.29Q26.97-0.89 28.18-0.89L28.18-0.89Z"/></svg>