<svg xmlns="http://www.w3.org/2000/svg" viewBox="5.5440000000000005 48.80799999999999 685.0800000000002 64.656"><path d="M46.94 48.88Q47.52 48.88 47.95 49.35Q48.38 49.82 48.38 50.46L48.38 50.46L44.57 98.92Q44.42 100.36 43.27 100.36L43.27 100.36Q42.55 100.36 42.23 100.07Q41.90 99.78 41.54 99.28L41.54 99.28L11.95 54.14L8.42 99.06Q8.35 100.36 6.98 100.36L6.98 100.36Q6.41 100.36 5.98 99.89Q5.54 99.42 5.54 98.78L5.54 98.78L9.36 50.39Q9.43 48.88 10.87 48.88L10.87 48.88Q11.81 48.88 12.46 49.96L12.46 49.96L41.90 94.82L45.50 50.18Q45.58 48.88 46.94 48.88L46.94 48.88ZM85.75 64.43Q87.26 64.43 87.19 66.02L87.19 66.02L84.53 98.92Q84.46 99.64 83.95 100Q83.45 100.36 82.87 100.36L82.87 100.36Q81.50 100.36 81.58 98.92L81.58 98.92L82.01 93.52Q80.28 96.90 77.15 98.70Q74.02 100.50 70.13 100.50L70.13 100.50Q64.37 100.50 61.31 97.59Q58.25 94.67 58.25 88.91L58.25 88.91Q58.25 87.69 58.32 87.04L58.32 87.04L59.90 66.02Q60.05 64.43 61.56 64.43L61.56 64.43Q63.07 64.43 62.93 66.02L62.93 66.02L61.34 86.82Q61.27 87.40 61.27 88.55L61.27 88.55Q61.27 97.55 69.98 97.55L69.98 97.55Q75.46 97.55 78.80 94.24Q82.15 90.93 82.58 85.02L82.58 85.02L84.17 66.02Q84.24 64.43 85.75 64.43L85.75 64.43ZM114.12 64.29Q120.02 64.29 123.12 67.20Q126.22 70.12 126.22 75.81L126.22 75.81Q126.22 77.03 126.14 77.68L126.14 77.68L124.56 98.70Q124.49 99.57 123.98 99.96Q123.48 100.36 122.90 100.36L122.90 100.36Q122.26 100.36 121.86 99.96Q121.46 99.57 121.54 98.70L121.54 98.70L123.12 77.97Q123.19 77.32 123.19 76.10L123.19 76.10Q123.19 67.17 114.26 67.17L114.26 67.17Q108.58 67.17 105.16 70.52Q101.74 73.86 101.30 79.70L101.30 79.70L99.72 98.70Q99.65 99.57 99.18 99.96Q98.71 100.36 98.14 100.36L98.14 100.36Q97.49 100.36 97.06 99.96Q96.62 99.57 96.70 98.70L96.70 98.70L99.36 65.80Q99.43 65.08 99.94 64.76Q100.44 64.43 101.02 64.43L101.02 64.43Q102.38 64.43 102.38 65.87L102.38 65.87L101.88 71.20Q103.68 67.89 106.85 66.09Q110.02 64.29 114.12 64.29L114.12 64.29ZM137.95 100.36Q136.44 100.36 136.51 98.70L136.51 98.70L139.18 65.80Q139.25 65.08 139.72 64.76Q140.18 64.43 140.83 64.43L140.83 64.43Q142.27 64.43 142.20 65.80L142.20 65.80L139.54 98.70Q139.46 100.36 137.95 100.36L137.95 100.36ZM141.77 55.79Q140.69 55.79 139.90 55.07Q139.10 54.35 139.10 53.20L139.10 53.20Q139.10 51.98 139.86 51.26Q140.62 50.54 141.77 50.54L141.77 50.54Q142.92 50.54 143.68 51.26Q144.43 51.98 144.43 53.20L144.43 53.20Q144.43 54.35 143.64 55.07Q142.85 55.79 141.77 55.79L141.77 55.79ZM168.48 65.15Q168.98 65.15 169.31 65.51Q169.63 65.87 169.63 66.45L169.63 66.45Q169.63 67.02 169.31 67.38Q168.98 67.74 168.55 67.74L168.55 67.74L158.76 67.74L157.18 88.05Q157.10 88.62 157.10 89.63L157.10 89.63Q157.10 93.45 158.94 95.54Q160.78 97.62 164.02 97.62L164.02 97.62Q165.17 97.62 165.96 97.52Q166.75 97.41 167.11 97.41L167.11 97.41Q168.26 97.41 168.26 98.92L168.26 98.92Q168.26 99.71 167.33 100.07Q166.39 100.43 163.87 100.43L163.87 100.43Q159.41 100.43 156.74 97.62Q154.08 94.82 154.08 89.92L154.08 89.92Q154.08 88.98 154.15 88.48L154.15 88.48L155.74 67.74L149.90 67.74Q149.33 67.74 149.00 67.38Q148.68 67.02 148.68 66.38L148.68 66.38Q148.68 65.87 149.00 65.51Q149.33 65.15 149.83 65.15L149.83 65.15L155.95 65.15L156.67 55.50Q156.74 54.93 157.18 54.50Q157.61 54.06 158.26 54.06L158.26 54.06Q158.90 54.06 159.34 54.50Q159.77 54.93 159.70 55.65L159.70 55.65L158.98 65.15L168.48 65.15ZM188.42 100.50Q183.89 100.50 180.50 98.42Q177.12 96.33 175.25 92.55Q173.38 88.77 173.38 83.73L173.38 83.73Q173.38 77.97 175.39 73.58Q177.41 69.18 181.04 66.74Q184.68 64.29 189.50 64.29L189.50 64.29Q196.34 64.29 200.45 68.86Q204.55 73.43 204.55 81.14L204.55 81.14Q204.55 86.90 202.54 91.29Q200.52 95.68 196.85 98.09Q193.18 100.50 188.42 100.50L188.42 100.50ZM188.64 97.55Q194.47 97.55 197.89 93.12Q201.31 88.70 201.31 80.92L201.31 80.92Q201.31 74.44 198.14 70.84Q194.98 67.24 189.36 67.24L189.36 67.24Q183.46 67.24 180.04 71.67Q176.62 76.10 176.62 83.94L176.62 83.94Q176.62 90.50 179.75 94.02Q182.88 97.55 188.64 97.55L188.64 97.55ZM258.12 82.86L232.99 82.86L232.99 84.02Q232.99 90.35 236.16 93.95Q239.33 97.55 245.30 97.55L245.30 97.55Q248.47 97.55 251.42 96.54Q254.38 95.54 256.54 93.81L256.54 93.81Q257.11 93.30 257.76 93.30L257.76 93.30Q258.34 93.30 258.73 93.70Q259.13 94.10 259.13 94.60L259.13 94.60Q259.13 95.32 258.48 95.97L258.48 95.97Q256.54 97.91 252.79 99.21Q249.05 100.50 245.38 100.50L245.38 100.50Q238.10 100.50 233.89 95.97Q229.68 91.43 229.68 83.73L229.68 83.73Q229.68 77.90 231.73 73.50Q233.78 69.11 237.60 66.70Q241.42 64.29 246.60 64.29L246.60 64.29Q253.44 64.29 256.97 68.28Q260.50 72.28 260.50 80.20L260.50 80.20Q260.50 81.50 259.81 82.18Q259.13 82.86 258.12 82.86L258.12 82.86ZM246.82 67.10Q241.06 67.10 237.56 70.48Q234.07 73.86 233.28 80.06L233.28 80.06L257.47 80.06Q257.76 73.65 254.88 70.37Q252.00 67.10 246.82 67.10L246.82 67.10ZM294.19 65.37Q294.70 64.86 295.34 64.86L295.34 64.86Q295.99 64.86 296.46 65.30Q296.93 65.73 296.93 66.30L296.93 66.30Q296.93 66.81 296.57 67.17L296.57 67.17L282.96 82.07L294.98 97.98Q295.27 98.34 295.27 98.85L295.27 98.85Q295.27 99.42 294.73 99.89Q294.19 100.36 293.62 100.36L293.62 100.36Q292.82 100.36 292.46 99.78L292.46 99.78L280.94 84.52L266.83 99.93Q266.40 100.43 265.82 100.43L265.82 100.43Q265.25 100.43 264.78 99.96Q264.31 99.50 264.31 98.92L264.31 98.92Q264.31 98.34 264.67 97.98L264.67 97.98L279.22 81.93L267.91 67.17Q267.62 66.81 267.62 66.30L267.62 66.30Q267.62 65.73 268.16 65.26Q268.70 64.79 269.35 64.79L269.35 64.79Q270.00 64.79 270.50 65.37L270.50 65.37L281.09 79.55L294.19 65.37ZM320.76 65.15Q321.26 65.15 321.59 65.51Q321.91 65.87 321.91 66.45L321.91 66.45Q321.91 67.02 321.59 67.38Q321.26 67.74 320.83 67.74L320.83 67.74L311.04 67.74L309.46 88.05Q309.38 88.62 309.38 89.63L309.38 89.63Q309.38 93.45 311.22 95.54Q313.06 97.62 316.30 97.62L316.30 97.62Q317.45 97.62 318.24 97.52Q319.03 97.41 319.39 97.41L319.39 97.41Q320.54 97.41 320.54 98.92L320.54 98.92Q320.54 99.71 319.61 100.07Q318.67 100.43 316.15 100.43L316.15 100.43Q311.69 100.43 309.02 97.62Q306.36 94.82 306.36 89.92L306.36 89.92Q306.36 88.98 306.43 88.48L306.43 88.48L308.02 67.74L302.18 67.74Q301.61 67.74 301.28 67.38Q300.96 67.02 300.96 66.38L300.96 66.38Q300.96 65.87 301.28 65.51Q301.61 65.15 302.11 65.15L302.11 65.15L308.23 65.15L308.95 55.50Q309.02 54.93 309.46 54.50Q309.89 54.06 310.54 54.06L310.54 54.06Q311.18 54.06 311.62 54.50Q312.05 54.93 311.98 55.65L311.98 55.65L311.26 65.15L320.76 65.15ZM346.68 65.66L346.68 65.73Q346.68 66.16 346.32 66.59Q345.96 67.02 345.53 67.10L345.53 67.10L343.58 67.31Q332.14 68.39 331.27 79.12L331.27 79.12L329.69 98.70Q329.62 100.36 328.10 100.36L328.10 100.36Q326.59 100.36 326.66 98.70L326.66 98.70L329.33 65.80Q329.40 65.08 329.87 64.76Q330.34 64.43 330.98 64.43L330.98 64.43Q332.42 64.43 332.35 65.87L332.35 65.87L331.92 71.27Q333.72 67.96 336.60 66.38Q339.48 64.79 344.16 64.43L344.16 64.43L344.95 64.36L345.24 64.36Q345.96 64.36 346.32 64.76Q346.68 65.15 346.68 65.66L346.68 65.66ZM365.69 64.29Q377.06 64.29 377.06 75.45L377.06 75.45Q377.06 76.53 376.99 77.10L376.99 77.10L375.26 98.92Q375.19 99.64 374.80 100Q374.40 100.36 373.82 100.36L373.82 100.36Q373.10 100.36 372.64 99.89Q372.17 99.42 372.24 98.63L372.24 98.63L372.53 93.81Q370.87 97.05 367.96 98.78Q365.04 100.50 361.22 100.50L361.22 100.50Q355.97 100.50 352.66 97.73Q349.34 94.96 349.34 90.57L349.34 90.57Q349.34 86.68 351.47 84.41Q353.59 82.14 358.34 81.10Q363.10 80.06 371.09 80.06L371.09 80.06L373.61 80.06L373.82 77.25Q373.90 76.60 373.90 75.45L373.90 75.45Q373.90 71.20 371.92 69.22Q369.94 67.24 365.76 67.24L365.76 67.24Q359.64 67.24 353.38 71.42L353.38 71.42Q353.09 71.63 352.66 71.63L352.66 71.63Q352.15 71.63 351.83 71.13Q351.50 70.62 351.50 70.05L351.50 70.05Q351.50 69.18 352.22 68.54L352.22 68.54Q354.82 66.59 358.52 65.44Q362.23 64.29 365.69 64.29L365.69 64.29ZM361.37 97.48Q366.19 97.48 369.50 94.17Q372.82 90.86 373.18 85.67L373.18 85.67L373.39 82.86L371.30 82.86Q364.10 82.86 360.11 83.55Q356.11 84.23 354.42 85.85Q352.73 87.47 352.73 90.42L352.73 90.42Q352.73 93.66 355.07 95.57Q357.41 97.48 361.37 97.48L361.37 97.48ZM406.37 100.36Q404.86 100.36 404.93 98.70L404.93 98.70L408.82 50.18Q408.89 49.46 409.36 49.13Q409.82 48.81 410.47 48.81L410.47 48.81Q411.91 48.81 411.84 50.18L411.84 50.18L407.95 98.70Q407.88 100.36 406.37 100.36L406.37 100.36ZM421.63 100.36Q420.12 100.36 420.19 98.70L420.19 98.70L422.86 65.80Q422.93 65.08 423.40 64.76Q423.86 64.43 424.51 64.43L424.51 64.43Q425.95 64.43 425.88 65.80L425.88 65.80L423.22 98.70Q423.14 100.36 421.63 100.36L421.63 100.36ZM425.45 55.79Q424.37 55.79 423.58 55.07Q422.78 54.35 422.78 53.20L422.78 53.20Q422.78 51.98 423.54 51.26Q424.30 50.54 425.45 50.54L425.45 50.54Q426.60 50.54 427.36 51.26Q428.11 51.98 428.11 53.20L428.11 53.20Q428.11 54.35 427.32 55.07Q426.53 55.79 425.45 55.79L425.45 55.79ZM465.48 64.43Q466.99 64.43 466.85 66.02L466.85 66.02L464.33 98.34Q463.18 113.46 449.50 113.46L449.50 113.46Q445.18 113.46 441.58 112.35Q437.98 111.23 435.38 109.14L435.38 109.14Q434.59 108.42 434.59 107.56L434.59 107.56Q434.59 106.91 434.99 106.48Q435.38 106.05 435.96 106.05L435.96 106.05Q436.46 106.05 436.75 106.34L436.75 106.34Q440.06 108.64 442.84 109.58Q445.61 110.51 449.42 110.51L449.42 110.51Q460.37 110.51 461.38 98.42L461.38 98.42L461.88 91.72Q460.30 95.10 456.98 97.01Q453.67 98.92 449.71 98.92L449.71 98.92Q442.80 98.92 438.66 94.53Q434.52 90.14 434.52 82.79L434.52 82.79Q434.52 77.25 436.54 73.07Q438.55 68.90 442.26 66.59Q445.97 64.29 450.86 64.29L450.86 64.29Q455.26 64.29 458.53 66.20Q461.81 68.10 463.32 71.63L463.32 71.63L463.82 66.09Q463.97 64.43 465.48 64.43L465.48 64.43ZM449.86 95.97Q455.83 95.97 459.25 91.76Q462.67 87.54 462.67 80.13L462.67 80.13Q462.67 74.01 459.50 70.62Q456.34 67.24 450.58 67.24L450.58 67.24Q444.60 67.24 441.18 71.45Q437.76 75.66 437.76 83.08L437.76 83.08Q437.76 89.34 440.86 92.66Q443.95 95.97 449.86 95.97L449.86 95.97ZM493.85 64.29Q499.75 64.29 502.85 67.20Q505.94 70.12 505.94 75.81L505.94 75.81Q505.94 77.03 505.87 77.68L505.87 77.68L504.29 98.70Q504.22 99.57 503.71 99.96Q503.21 100.36 502.63 100.36L502.63 100.36Q501.98 100.36 501.59 99.96Q501.19 99.57 501.26 98.70L501.26 98.70L502.85 77.97Q502.92 77.32 502.92 76.10L502.92 76.10Q502.92 67.17 493.99 67.17L493.99 67.17Q488.30 67.17 484.88 70.52Q481.46 73.86 481.03 79.70L481.03 79.70L479.45 98.70Q479.38 99.57 478.91 99.96Q478.44 100.36 477.86 100.36L477.86 100.36Q477.22 100.36 476.78 99.96Q476.35 99.57 476.42 98.70L476.42 98.70L480.31 50.18Q480.38 49.46 480.89 49.13Q481.39 48.81 481.97 48.81L481.97 48.81Q482.62 48.81 483.01 49.17Q483.41 49.53 483.34 50.25L483.34 50.25L481.68 71.06Q483.48 67.82 486.65 66.05Q489.82 64.29 493.85 64.29L493.85 64.29ZM532.94 65.15Q533.45 65.15 533.77 65.51Q534.10 65.87 534.10 66.45L534.10 66.45Q534.10 67.02 533.77 67.38Q533.45 67.74 533.02 67.74L533.02 67.74L523.22 67.74L521.64 88.05Q521.57 88.62 521.57 89.63L521.57 89.63Q521.57 93.45 523.40 95.54Q525.24 97.62 528.48 97.62L528.48 97.62Q529.63 97.62 530.42 97.52Q531.22 97.41 531.58 97.41L531.58 97.41Q532.73 97.41 532.73 98.92L532.73 98.92Q532.73 99.71 531.79 100.07Q530.86 100.43 528.34 100.43L528.34 100.43Q523.87 100.43 521.21 97.62Q518.54 94.82 518.54 89.92L518.54 89.92Q518.54 88.98 518.62 88.48L518.62 88.48L520.20 67.74L514.37 67.74Q513.79 67.74 513.47 67.38Q513.14 67.02 513.14 66.38L513.14 66.38Q513.14 65.87 513.47 65.51Q513.79 65.15 514.30 65.15L514.30 65.15L520.42 65.15L521.14 55.50Q521.21 54.93 521.64 54.50Q522.07 54.06 522.72 54.06L522.72 54.06Q523.37 54.06 523.80 54.50Q524.23 54.93 524.16 55.65L524.16 55.65L523.44 65.15L532.94 65.15ZM558 100.36Q556.49 100.36 556.56 98.70L556.56 98.70L559.22 65.80Q559.30 65.08 559.76 64.76Q560.23 64.43 560.88 64.43L560.88 64.43Q562.32 64.43 562.25 65.80L562.25 65.80L559.58 98.70Q559.51 100.36 558 100.36L558 100.36ZM561.82 55.79Q560.74 55.79 559.94 55.07Q559.15 54.35 559.15 53.20L559.15 53.20Q559.15 51.98 559.91 51.26Q560.66 50.54 561.82 50.54L561.82 50.54Q562.97 50.54 563.72 51.26Q564.48 51.98 564.48 53.20L564.48 53.20Q564.48 54.35 563.69 55.07Q562.90 55.79 561.82 55.79L561.82 55.79ZM588.53 65.15Q589.03 65.15 589.36 65.51Q589.68 65.87 589.68 66.45L589.68 66.45Q589.68 67.02 589.36 67.38Q589.03 67.74 588.60 67.74L588.60 67.74L578.81 67.74L577.22 88.05Q577.15 88.62 577.15 89.63L577.15 89.63Q577.15 93.45 578.99 95.54Q580.82 97.62 584.06 97.62L584.06 97.62Q585.22 97.62 586.01 97.52Q586.80 97.41 587.16 97.41L587.16 97.41Q588.31 97.41 588.31 98.92L588.31 98.92Q588.31 99.71 587.38 100.07Q586.44 100.43 583.92 100.43L583.92 100.43Q579.46 100.43 576.79 97.62Q574.13 94.82 574.13 89.92L574.13 89.92Q574.13 88.98 574.20 88.48L574.20 88.48L575.78 67.74L569.95 67.74Q569.38 67.74 569.05 67.38Q568.73 67.02 568.73 66.38L568.73 66.38Q568.73 65.87 569.05 65.51Q569.38 65.15 569.88 65.15L569.88 65.15L576 65.15L576.72 55.50Q576.79 54.93 577.22 54.50Q577.66 54.06 578.30 54.06L578.30 54.06Q578.95 54.06 579.38 54.50Q579.82 54.93 579.74 55.65L579.74 55.65L579.02 65.15L588.53 65.15ZM610.42 64.29Q621.79 64.29 621.79 75.45L621.79 75.45Q621.79 76.53 621.72 77.10L621.72 77.10L619.99 98.92Q619.92 99.64 619.52 100Q619.13 100.36 618.55 100.36L618.55 100.36Q617.83 100.36 617.36 99.89Q616.90 99.42 616.97 98.63L616.97 98.63L617.26 93.81Q615.60 97.05 612.68 98.78Q609.77 100.50 605.95 100.50L605.95 100.50Q600.70 100.50 597.38 97.73Q594.07 94.96 594.07 90.57L594.07 90.57Q594.07 86.68 596.20 84.41Q598.32 82.14 603.07 81.10Q607.82 80.06 615.82 80.06L615.82 80.06L618.34 80.06L618.55 77.25Q618.62 76.60 618.62 75.45L618.62 75.45Q618.62 71.20 616.64 69.22Q614.66 67.24 610.49 67.24L610.49 67.24Q604.37 67.24 598.10 71.42L598.10 71.42Q597.82 71.63 597.38 71.63L597.38 71.63Q596.88 71.63 596.56 71.13Q596.23 70.62 596.23 70.05L596.23 70.05Q596.23 69.18 596.95 68.54L596.95 68.54Q599.54 66.59 603.25 65.44Q606.96 64.29 610.42 64.29L610.42 64.29ZM606.10 97.48Q610.92 97.48 614.23 94.17Q617.54 90.86 617.90 85.67L617.90 85.67L618.12 82.86L616.03 82.86Q608.83 82.86 604.84 83.55Q600.84 84.23 599.15 85.85Q597.46 87.47 597.46 90.42L597.46 90.42Q597.46 93.66 599.80 95.57Q602.14 97.48 606.10 97.48L606.10 97.48ZM633.38 100.36Q631.87 100.36 631.94 98.70L631.94 98.70L635.83 50.18Q635.90 49.46 636.37 49.13Q636.84 48.81 637.49 48.81L637.49 48.81Q638.93 48.81 638.86 50.18L638.86 50.18L634.97 98.70Q634.90 100.36 633.38 100.36L633.38 100.36ZM648.65 100.36Q647.14 100.36 647.21 98.70L647.21 98.70L649.87 65.80Q649.94 65.08 650.41 64.76Q650.88 64.43 651.53 64.43L651.53 64.43Q652.97 64.43 652.90 65.80L652.90 65.80L650.23 98.70Q650.16 100.36 648.65 100.36L648.65 100.36ZM652.46 55.79Q651.38 55.79 650.59 55.07Q649.80 54.35 649.80 53.20L649.80 53.20Q649.80 51.98 650.56 51.26Q651.31 50.54 652.46 50.54L652.46 50.54Q653.62 50.54 654.37 51.26Q655.13 51.98 655.13 53.20L655.13 53.20Q655.13 54.35 654.34 55.07Q653.54 55.79 652.46 55.79L652.46 55.79ZM676.51 100.50Q671.98 100.50 668.59 98.42Q665.21 96.33 663.34 92.55Q661.46 88.77 661.46 83.73L661.46 83.73Q661.46 77.90 663.52 73.50Q665.57 69.11 669.35 66.70Q673.13 64.29 678.31 64.29L678.31 64.29Q681.91 64.29 685.04 65.44Q688.18 66.59 689.98 68.39L689.98 68.39Q690.62 69.11 690.62 69.83L690.62 69.83Q690.62 70.55 690.19 71.02Q689.76 71.49 689.18 71.49L689.18 71.49Q688.61 71.49 688.18 71.06L688.18 71.06Q683.50 67.17 678.02 67.17L678.02 67.17Q671.69 67.17 668.20 71.63Q664.70 76.10 664.70 83.94L664.70 83.94Q664.70 90.28 667.87 93.92Q671.04 97.55 676.87 97.55L676.87 97.55Q679.68 97.55 682.02 96.54Q684.36 95.54 686.52 93.66L686.52 93.66Q686.95 93.23 687.53 93.23L687.53 93.23Q688.10 93.23 688.57 93.70Q689.04 94.17 689.04 94.74L689.04 94.74Q689.04 95.10 688.68 95.61L688.68 95.61Q686.45 97.91 683.28 99.21Q680.11 100.50 676.51 100.50L676.51 100.50Z"/></svg>