<svg xmlns="http://www.w3.org/2000/svg" viewBox="6.5520000000000005 48.879999999999995 360.36 64.584"><path d="M44 49Q45 49 46 49Q46 50 46 51L46 51L46 98Q46 99 46 100Q45 100 44 100L44 100Q43 100 42 99L42 99L11 57L11 98Q11 99 10 100Q10 100 9 100L9 100Q8 100 7 100Q7 99 7 98L7 98L7 51Q7 50 7 50Q8 49 9 49L9 49Q10 49 11 50L11 50L42 92L42 51Q42 50 43 50Q43 49 44 49L44 49ZM85 64Q86 64 86 65Q87 66 87 67L87 67L87 98Q87 99 86 100Q86 100 85 100L85 100Q84 100 83 100Q83 99 83 98L83 98L83 94Q81 97 78 99Q75 101 71 101L71 101Q65 101 62 97Q59 94 59 87L59 87L59 67Q59 66 59 65Q60 64 61 64L61 64Q62 64 62 65Q63 66 63 67L63 67L63 87Q63 92 65 94Q67 97 71 97L71 97Q76 97 80 93Q83 90 83 85L83 85L83 67Q83 66 83 65Q84 64 85 64L85 64ZM115 64Q127 64 127 78L127 78L127 98Q127 99 127 100Q126 100 125 100L125 100Q124 100 124 100Q123 99 123 98L123 98L123 78Q123 73 121 70Q119 68 114 68L114 68Q109 68 106 71Q103 74 103 80L103 80L103 98Q103 99 102 100Q102 100 101 100L101 100Q100 100 99 100Q98 99 98 98L98 98L98 67Q98 66 99 65Q100 64 101 64L101 64Q102 64 102 65Q103 66 103 67L103 67L103 71Q104 68 108 66Q111 64 115 64L115 64ZM141 100Q140 100 140 100Q139 99 139 98L139 98L139 67Q139 66 140 65Q140 64 141 64L141 64Q142 64 143 65Q143 66 143 67L143 67L143 98Q143 99 143 100Q142 100 141 100L141 100ZM141 56Q140 56 139 55Q138 54 138 53L138 53Q138 52 139 51Q140 50 141 50L141 50Q143 50 143 51Q144 52 144 53L144 53Q144 54 143 55Q143 56 141 56L141 56ZM170 97Q172 97 172 99L172 99Q172 99 171 100Q171 100 169 100L169 100L167 100Q162 100 159 97Q157 94 157 88L157 88L157 69L151 69Q150 69 150 68Q149 68 149 67L149 67Q149 66 150 66Q150 65 151 65L151 65L157 65L157 56Q157 55 157 54Q158 54 159 54L159 54Q160 54 160 54Q161 55 161 56L161 56L161 65L170 65Q171 65 171 66Q172 66 172 67L172 67Q172 68 171 68Q171 69 170 69L170 69L161 69L161 88Q161 92 163 94Q164 96 168 97L168 97L170 97ZM192 101Q187 101 184 98Q180 96 178 92Q176 88 176 82L176 82Q176 77 178 73Q180 69 184 66Q187 64 192 64L192 64Q197 64 201 66Q204 69 206 73Q208 77 208 82L208 82Q208 88 206 92Q204 96 201 98Q197 101 192 101L192 101ZM192 97Q198 97 201 93Q204 89 204 82L204 82Q204 76 201 72Q198 68 192 68L192 68Q187 68 184 72Q181 76 181 82L181 82Q181 89 184 93Q187 97 192 97L192 97ZM238 100Q237 100 236 100Q236 99 236 98L236 98L236 51Q236 50 236 49Q237 49 238 49L238 49Q239 49 240 49Q240 50 240 51L240 51L240 98Q240 99 240 100Q239 100 238 100L238 100ZM254 100Q253 100 252 100Q252 99 252 98L252 98L252 67Q252 66 252 65Q253 64 254 64L254 64Q255 64 256 65Q256 66 256 67L256 67L256 98Q256 99 256 100Q255 100 254 100L254 100ZM254 56Q253 56 252 55Q251 54 251 53L251 53Q251 52 252 51Q253 50 254 50L254 50Q255 50 256 51Q257 52 257 53L257 53Q257 54 256 55Q255 56 254 56L254 56ZM296 64Q297 64 297 65Q298 66 298 67L298 67L298 98Q298 106 294 110Q290 113 283 113L283 113Q279 113 276 113Q273 112 270 110L270 110Q268 109 268 107L268 107Q268 106 268 106Q268 105 269 105L269 105Q270 105 270 106Q271 106 271 106L271 106Q274 108 276 109Q279 110 283 110L283 110Q288 110 291 107Q293 104 293 98L293 98L293 92Q292 95 289 97Q286 99 281 99L281 99Q277 99 273 97Q269 95 268 91Q266 87 266 82L266 82Q266 76 268 72Q269 69 273 66Q277 64 281 64L281 64Q286 64 289 66Q292 68 293 71L293 71L293 67Q293 66 294 65Q295 64 296 64L296 64ZM282 95Q287 95 290 91Q293 88 293 82L293 82Q293 75 290 72Q287 68 282 68L282 68Q276 68 273 72Q270 75 270 82L270 82Q270 88 273 91Q276 95 282 95L282 95ZM326 64Q338 64 338 78L338 78L338 98Q338 99 338 100Q337 100 336 100L336 100Q335 100 334 100Q334 99 334 98L334 98L334 78Q334 73 332 70Q330 68 325 68L325 68Q320 68 317 71Q314 74 314 80L314 80L314 98Q314 99 313 100Q313 100 312 100L312 100Q311 100 310 100Q309 99 309 98L309 98L309 51Q309 50 310 49Q311 49 312 49L312 49Q313 49 313 49Q314 50 314 51L314 51L314 71Q315 68 318 66Q322 64 326 64L326 64ZM365 97Q367 97 367 99L367 99Q367 99 366 100Q366 100 364 100L364 100L362 100Q357 100 354 97Q351 94 351 88L351 88L351 69L346 69Q345 69 345 68Q344 68 344 67L344 67Q344 66 345 66Q345 65 346 65L346 65L351 65L351 56Q351 55 352 54Q353 54 354 54L354 54Q355 54 355 54Q356 55 356 56L356 56L356 65L365 65Q365 65 366 66Q366 66 366 67L366 67Q366 68 366 68Q365 69 365 69L365 69L356 69L356 88Q356 92 358 94Q359 96 363 97L363 97L365 97Z"/></svg>