<svg xmlns="http://www.w3.org/2000/svg" viewBox="0.45 -7.38 57.83 7.47"><path d="M5.25-3.07L5.57-7.05L7.29-7.05L6.73 0L5.36 0L2.49-3.96L2.16 0L0.45 0L1.01-7.05L2.35-7.05L5.25-3.07ZM11.46-4.92L13.24-4.92L12.85 0L11.12 0L11.17-0.56Q10.91-0.26 10.51-0.09Q10.11 0.08 9.64 0.08L9.64 0.08Q8.84 0.08 8.42-0.38Q8-0.83 8-1.70L8-1.70Q8-1.81 8.02-2.05L8.02-2.05L8.24-4.92L10.02-4.92L9.80-2.15L9.79-2Q9.79-1.65 9.95-1.47Q10.11-1.28 10.42-1.28L10.42-1.28Q10.79-1.28 11-1.54Q11.21-1.79 11.24-2.22L11.24-2.22L11.46-4.92ZM17.53-5.04Q18.35-5.04 18.77-4.58Q19.19-4.11 19.19-3.21L19.19-3.21Q19.19-2.99 19.18-2.87L19.18-2.87L18.95 0L17.17 0L17.40-2.81Q17.43-3.23 17.27-3.46Q17.10-3.68 16.75-3.68L16.75-3.68Q16.36-3.68 16.14-3.43Q15.93-3.17 15.90-2.74L15.90-2.74L15.68 0L13.90 0L14.29-4.92L16.02-4.92L15.98-4.40Q16.24-4.70 16.64-4.87Q17.04-5.04 17.53-5.04L17.53-5.04ZM21.73 0L19.95 0L20.34-4.92L22.12-4.92L21.73 0ZM20.37-5.77L20.49-7.38L22.35-7.38L22.22-5.77L20.37-5.77ZM25.26-3.61L25.13-1.99L25.12-1.85Q25.12-1.20 25.83-1.20L25.83-1.20Q26-1.20 26.29-1.23L26.29-1.23L26.10 0.03Q25.79 0.08 25.50 0.08L25.50 0.08Q23.34 0.08 23.34-1.71L23.34-1.71Q23.34-1.90 23.35-2L23.35-2L23.48-3.61L22.56-3.61L22.66-4.92L23.58-4.92L23.69-6.35L25.47-6.35L25.36-4.92L26.54-4.92L26.44-3.61L25.26-3.61ZM29.47 0.08Q28.65 0.08 28.04-0.22Q27.43-0.52 27.10-1.07Q26.77-1.63 26.77-2.36L26.77-2.36Q26.77-3.19 27.11-3.79Q27.45-4.40 28.07-4.72Q28.68-5.04 29.50-5.04L29.50-5.04Q30.32-5.04 30.93-4.74Q31.54-4.44 31.87-3.89Q32.20-3.34 32.20-2.61L32.20-2.61Q32.20-1.77 31.86-1.17Q31.52-0.56 30.91-0.24Q30.29 0.08 29.47 0.08L29.47 0.08ZM29.44-1.23Q29.97-1.23 30.21-1.63Q30.44-2.03 30.44-2.65L30.44-2.65Q30.44-3.20 30.21-3.46Q29.99-3.73 29.53-3.73L29.53-3.73Q29-3.73 28.77-3.33Q28.53-2.94 28.53-2.33L28.53-2.33Q28.53-1.77 28.75-1.50Q28.98-1.23 29.44-1.23L29.44-1.23ZM38.48 0.09Q37.67 0.09 36.90-0.12Q36.13-0.32 35.57-0.68L35.57-0.68L36.25-1.98Q37.32-1.32 38.56-1.32L38.56-1.32Q39.13-1.32 39.43-1.47Q39.73-1.62 39.73-1.91L39.73-1.91Q39.73-2.22 39.40-2.40Q39.07-2.57 38.38-2.77L38.38-2.77Q37.64-2.99 37.17-3.20Q36.70-3.41 36.36-3.83Q36.02-4.24 36.02-4.90L36.02-4.90Q36.02-5.57 36.40-6.08Q36.77-6.59 37.46-6.87Q38.15-7.14 39.07-7.14L39.07-7.14Q39.84-7.14 40.54-6.93Q41.24-6.72 41.66-6.37L41.66-6.37L41-5.07Q40.57-5.38 40.05-5.55Q39.52-5.73 39.02-5.73L39.02-5.73Q38.48-5.73 38.17-5.55Q37.85-5.38 37.85-5.07L37.85-5.07Q37.85-4.75 38.18-4.58Q38.50-4.41 39.21-4.20L39.21-4.20Q39.94-3.98 40.41-3.77Q40.87-3.57 41.21-3.17Q41.55-2.77 41.55-2.12L41.55-2.12Q41.55-1.06 40.75-0.48Q39.95 0.09 38.48 0.09L38.48 0.09ZM44.95-5.04Q46.01-5.04 46.54-4.57Q47.06-4.09 47.06-3.10L47.06-3.10Q47.06-2.98 47.04-2.74L47.04-2.74L46.83 0L45.16 0L45.21-0.62Q45.03-0.29 44.70-0.10Q44.37 0.08 43.94 0.08L43.94 0.08Q43.45 0.08 43.06-0.12Q42.67-0.31 42.45-0.64Q42.22-0.97 42.22-1.38L42.22-1.38Q42.22-1.95 42.50-2.29Q42.78-2.64 43.39-2.80Q44.00-2.96 45.01-2.96L45.01-2.96L45.37-2.96L45.38-3.03Q45.40-3.40 45.22-3.57Q45.03-3.74 44.59-3.74L44.59-3.74Q44.24-3.74 43.81-3.60Q43.38-3.47 43.01-3.26L43.01-3.26L42.65-4.43Q43.06-4.70 43.70-4.87Q44.34-5.04 44.95-5.04L44.95-5.04ZM44.46-1.11Q44.80-1.11 45.04-1.37Q45.27-1.63 45.30-2.03L45.30-2.03L45.31-2.14L45.04-2.14Q44.45-2.14 44.19-2.01Q43.93-1.88 43.93-1.58L43.93-1.58Q43.93-1.37 44.08-1.24Q44.22-1.11 44.46-1.11L44.46-1.11ZM51.46-5.04Q52.28-5.04 52.70-4.58Q53.12-4.11 53.12-3.21L53.12-3.21Q53.12-2.99 53.11-2.87L53.11-2.87L52.88 0L51.10 0L51.33-2.81Q51.36-3.23 51.20-3.46Q51.03-3.68 50.68-3.68L50.68-3.68Q50.29-3.68 50.08-3.43Q49.86-3.17 49.83-2.74L49.83-2.74L49.61 0L47.83 0L48.22-4.92L49.95-4.92L49.91-4.40Q50.17-4.70 50.57-4.87Q50.97-5.04 51.46-5.04L51.46-5.04ZM55.96 0.08Q55.28 0.08 54.71-0.07Q54.14-0.21 53.58-0.51L53.58-0.51L54.13-1.72Q54.54-1.46 55.04-1.30Q55.54-1.15 56.00-1.15L56.00-1.15Q56.31-1.15 56.46-1.23Q56.60-1.31 56.60-1.43L56.60-1.43Q56.60-1.59 56.40-1.68Q56.20-1.77 55.75-1.90L55.75-1.90Q55.22-2.04 54.86-2.19Q54.50-2.34 54.24-2.64Q53.97-2.93 53.97-3.41L53.97-3.41Q53.97-3.89 54.25-4.26Q54.53-4.63 55.04-4.83Q55.55-5.04 56.21-5.04L56.21-5.04Q56.78-5.04 57.34-4.88Q57.89-4.73 58.28-4.45L58.28-4.45L57.74-3.29Q57.37-3.54 56.97-3.68Q56.56-3.81 56.17-3.81L56.17-3.81Q55.85-3.81 55.69-3.73Q55.53-3.66 55.53-3.53L55.53-3.53Q55.53-3.37 55.74-3.27Q55.94-3.17 56.39-3.05L56.39-3.05Q56.93-2.90 57.29-2.75Q57.64-2.60 57.91-2.31Q58.17-2.01 58.17-1.53L58.17-1.53Q58.17-0.77 57.58-0.35Q56.98 0.08 55.96 0.08L55.96 0.08Z"/></svg>