<svg xmlns="http://www.w3.org/2000/svg" viewBox="3.6996923076923083 46.50399999999999 619.9643076923078 54.072"><path d="M46.22 48.88Q49.03 48.88 50.65 50.68Q52.27 52.48 51.98 55.36L51.98 55.36L48.96 93.88Q48.67 96.83 46.84 98.63Q45.00 100.43 42.26 100.43L42.26 100.43Q38.81 100.43 37.44 98.34L37.44 98.34L17.86 71.49L16.06 93.81Q15.84 96.83 14.04 98.63Q12.24 100.43 9.36 100.43L9.36 100.43Q6.62 100.43 5.04 98.63Q3.46 96.83 3.74 93.88L3.74 93.88L6.77 55.36Q7.06 52.48 8.93 50.68Q10.80 48.88 13.54 48.88L13.54 48.88Q16.78 48.88 18.22 50.97L18.22 50.97L37.80 77.90L39.60 55.43Q39.82 52.48 41.65 50.68Q43.49 48.88 46.22 48.88L46.22 48.88ZM89.06 63.86Q92.09 63.86 93.64 65.44Q95.18 67.02 94.90 69.76L94.90 69.76L92.95 94.60Q92.74 97.19 90.90 98.81Q89.06 100.43 86.11 100.43L86.11 100.43Q83.66 100.43 82.15 99.21Q80.64 97.98 80.50 95.90L80.50 95.90Q78.62 98.06 75.71 99.32Q72.79 100.58 69.41 100.58L69.41 100.58Q63.65 100.58 60.62 97.30Q57.60 94.02 57.60 87.76L57.60 87.76Q57.60 86.97 57.74 85.24L57.74 85.24L58.97 69.76Q59.18 67.02 61.06 65.44Q62.93 63.86 65.95 63.86L65.95 63.86Q68.90 63.86 70.45 65.44Q72 67.02 71.78 69.76L71.78 69.76L70.56 84.52L70.49 85.60Q70.49 88.12 71.64 89.45Q72.79 90.78 75.02 90.78L75.02 90.78Q77.69 90.78 79.20 88.95Q80.71 87.11 80.93 84.02L80.93 84.02L82.08 69.76Q82.37 67.02 84.24 65.44Q86.11 63.86 89.06 63.86L89.06 63.86ZM126.22 63.71Q132.12 63.71 135.14 67.06Q138.17 70.41 138.17 76.89L138.17 76.89Q138.17 78.47 138.10 79.34L138.10 79.34L136.87 94.53Q136.58 97.26 134.78 98.85Q132.98 100.43 130.03 100.43L130.03 100.43Q127.08 100.43 125.42 98.81Q123.77 97.19 124.06 94.53L124.06 94.53L125.28 79.77Q125.50 76.74 124.31 75.12Q123.12 73.50 120.60 73.50L120.60 73.50Q117.79 73.50 116.24 75.34Q114.70 77.18 114.48 80.27L114.48 80.27L113.26 94.53Q113.04 97.26 111.24 98.85Q109.44 100.43 106.49 100.43L106.49 100.43Q103.46 100.43 101.88 98.85Q100.30 97.26 100.44 94.53L100.44 94.53L102.46 69.69Q102.60 67.10 104.54 65.48Q106.49 63.86 109.44 63.86L109.44 63.86Q111.89 63.86 113.33 65.08Q114.77 66.30 114.91 68.39L114.91 68.39Q116.78 66.23 119.74 64.97Q122.69 63.71 126.22 63.71L126.22 63.71ZM150.05 100.43Q147.31 100.43 145.55 98.92Q143.78 97.41 144 94.53L144 94.53L146.02 69.83Q146.30 66.88 148.25 65.37Q150.19 63.86 152.93 63.86L152.93 63.86Q155.66 63.86 157.39 65.37Q159.12 66.88 158.83 69.83L158.83 69.83L156.82 94.53Q156.60 97.41 154.69 98.92Q152.78 100.43 150.05 100.43L150.05 100.43ZM153.79 58.82Q150.55 58.82 148.64 57.12Q146.74 55.43 146.74 52.62L146.74 52.62Q146.74 49.82 148.64 48.16Q150.55 46.50 153.79 46.50L153.79 46.50Q156.96 46.50 158.90 48.16Q160.85 49.82 160.85 52.62L160.85 52.62Q160.85 55.43 158.94 57.12Q157.03 58.82 153.79 58.82L153.79 58.82ZM187.85 91.14Q189.07 91.14 189.86 92.22Q190.66 93.30 190.66 95.03L190.66 95.03Q190.66 98.13 188.68 99.35Q186.70 100.58 181.80 100.58L181.80 100.58Q175.10 100.58 171.58 97.30Q168.05 94.02 168.05 87.76L168.05 87.76Q168.05 86.32 168.12 85.60L168.12 85.60L169.06 74.01L166.97 74.01Q164.38 74.01 162.94 72.86Q161.50 71.70 161.50 69.54L161.50 69.54Q161.50 64.58 167.76 64.58L167.76 64.58L169.85 64.58L170.21 59.90Q170.42 57.09 172.30 55.50Q174.17 53.92 177.12 53.92L177.12 53.92Q180.07 53.92 181.66 55.50Q183.24 57.09 183.02 59.82L183.02 59.82L182.66 64.58L186.55 64.58Q189.07 64.58 190.48 65.73Q191.88 66.88 191.88 68.97L191.88 68.97Q191.88 71.56 190.40 72.78Q188.93 74.01 185.76 74.01L185.76 74.01L181.87 74.01L180.94 85.67Q180.86 86.10 180.86 86.82L180.86 86.82Q180.86 91.36 184.82 91.36L184.82 91.36L186.26 91.29Q187.42 91.14 187.85 91.14L187.85 91.14ZM212.18 100.58Q206.28 100.58 201.89 98.42Q197.50 96.26 195.12 92.26Q192.74 88.26 192.74 83.01L192.74 83.01Q192.74 77.03 195.19 72.68Q197.64 68.32 202.07 66.02Q206.50 63.71 212.40 63.71L212.40 63.71Q218.30 63.71 222.70 65.87Q227.09 68.03 229.46 71.99Q231.84 75.95 231.84 81.21L231.84 81.21Q231.84 87.26 229.39 91.61Q226.94 95.97 222.52 98.27Q218.09 100.58 212.18 100.58L212.18 100.58ZM211.97 91.14Q215.78 91.14 217.48 88.26Q219.17 85.38 219.17 80.92L219.17 80.92Q219.17 76.96 217.55 75.05Q215.93 73.14 212.62 73.14L212.62 73.14Q208.80 73.14 207.11 75.99Q205.42 78.83 205.42 83.22L205.42 83.22Q205.42 87.26 207.04 89.20Q208.66 91.14 211.97 91.14L211.97 91.14ZM282.31 63.71Q286.78 63.71 290.20 65.76Q293.62 67.82 295.49 71.63Q297.36 75.45 297.36 80.70L297.36 80.70Q297.36 86.46 295.24 91Q293.11 95.54 289.26 98.06Q285.41 100.58 280.37 100.58L280.37 100.58Q273.53 100.58 269.71 95.61L269.71 95.61Q269.21 97.77 267.48 99.10Q265.75 100.43 263.16 100.43L263.16 100.43Q260.21 100.43 258.62 98.81Q257.04 97.19 257.18 94.53L257.18 94.53L260.35 54.71Q260.50 52.12 262.44 50.50Q264.38 48.88 267.41 48.88L267.41 48.88Q270.22 48.88 271.76 50.43Q273.31 51.98 273.17 54.42L273.17 54.42L272.09 68.18Q273.82 66.02 276.41 64.86Q279 63.71 282.31 63.71L282.31 63.71ZM277.56 91.14Q280.87 91.14 282.78 88.55Q284.69 85.96 284.69 81.64L284.69 81.64Q284.69 77.54 282.89 75.34Q281.09 73.14 277.78 73.14L277.78 73.14Q274.61 73.14 272.70 75.74Q270.79 78.33 270.79 82.50L270.79 82.50Q270.79 86.75 272.56 88.95Q274.32 91.14 277.56 91.14L277.56 91.14ZM308.23 100.43Q305.50 100.43 303.73 98.92Q301.97 97.41 302.18 94.53L302.18 94.53L305.35 54.93Q305.57 51.90 307.48 50.39Q309.38 48.88 312.12 48.88L312.12 48.88Q314.86 48.88 316.62 50.39Q318.38 51.90 318.17 54.93L318.17 54.93L315.00 94.53Q314.78 97.41 312.88 98.92Q310.97 100.43 308.23 100.43L308.23 100.43ZM340.13 63.71Q348.19 63.71 352.19 67.24Q356.18 70.77 356.18 77.90L356.18 77.90Q356.18 79.41 356.11 80.27L356.11 80.27L354.96 94.53Q354.74 97.34 353.02 98.88Q351.29 100.43 348.48 100.43L348.48 100.43Q346.10 100.43 344.59 99.10Q343.08 97.77 342.94 95.61L342.94 95.61Q341.64 97.98 339.26 99.28Q336.89 100.58 333.79 100.58L333.79 100.58Q330.34 100.58 327.49 99.21Q324.65 97.84 323.03 95.43Q321.41 93.02 321.41 90.06L321.41 90.06Q321.41 85.96 323.42 83.48Q325.44 80.99 329.83 79.84Q334.22 78.69 341.50 78.69L341.50 78.69L344.09 78.69L344.16 78.18Q344.45 73.07 338.47 73.07L338.47 73.07Q335.59 73.07 330.41 74.94L330.41 74.94Q329.18 75.45 327.96 75.45L327.96 75.45Q326.16 75.45 325.01 74.22Q323.86 73 323.86 71.34L323.86 71.34Q323.86 70.05 324.61 68.79Q325.37 67.53 326.95 66.66L326.95 66.66Q332.28 63.71 340.13 63.71L340.13 63.71ZM337.54 92.01Q339.98 92.01 341.68 90.17Q343.37 88.34 343.58 85.38L343.58 85.38L343.66 84.59L341.71 84.59Q337.39 84.59 335.56 85.49Q333.72 86.39 333.72 88.62L333.72 88.62Q333.72 90.14 334.76 91.07Q335.81 92.01 337.54 92.01L337.54 92.01ZM380.95 100.58Q375.12 100.58 370.73 98.45Q366.34 96.33 363.92 92.40Q361.51 88.48 361.51 83.22L361.51 83.22Q361.51 77.25 364.00 72.82Q366.48 68.39 371.12 66.05Q375.77 63.71 382.03 63.71L382.03 63.71Q385.49 63.71 388.44 64.36Q391.39 65.01 393.41 66.09L393.41 66.09Q394.56 66.74 395.14 67.89Q395.71 69.04 395.71 70.34L395.71 70.34Q395.71 72.35 394.60 73.90Q393.48 75.45 391.75 75.45L391.75 75.45Q390.74 75.45 389.74 74.94L389.74 74.94Q386.14 73.36 382.82 73.36L382.82 73.36Q378.94 73.36 376.81 75.84Q374.69 78.33 374.69 82.94L374.69 82.94Q374.69 86.68 376.56 88.80Q378.43 90.93 381.82 90.93L381.82 90.93Q383.69 90.93 385.20 90.60Q386.71 90.28 388.51 89.56L388.51 89.56Q389.66 88.98 390.74 88.98L390.74 88.98Q392.33 88.98 393.23 90.17Q394.13 91.36 394.13 93.09L394.13 93.09Q394.13 94.60 393.44 96.00Q392.76 97.41 391.39 98.20L391.39 98.20Q389.52 99.21 386.64 99.89Q383.76 100.58 380.95 100.58L380.95 100.58ZM425.16 81.78L432.65 90.86Q433.94 92.37 433.94 94.17L433.94 94.17Q433.94 96.62 431.89 98.60Q429.84 100.58 427.32 100.58L427.32 100.58Q424.87 100.58 423.14 98.56L423.14 98.56L411.70 84.95L410.98 94.38Q410.76 97.34 408.82 98.85Q406.87 100.36 404.14 100.36L404.14 100.36Q401.40 100.36 399.67 98.88Q397.94 97.41 398.16 94.46L398.16 94.46L401.33 54.86Q401.54 51.90 403.45 50.39Q405.36 48.88 408.10 48.88L408.10 48.88Q410.83 48.88 412.60 50.36Q414.36 51.83 414.14 54.78L414.14 54.78L412.20 79.12L425.23 65.66Q427.03 63.78 429.48 63.78L429.48 63.78Q431.78 63.78 433.55 65.48Q435.31 67.17 435.31 69.40L435.31 69.40Q435.31 71.63 433.51 73.36L433.51 73.36L425.16 81.78ZM466.56 100.43Q463.82 100.43 462.06 98.92Q460.30 97.41 460.51 94.53L460.51 94.53L462.53 69.83Q462.82 66.88 464.76 65.37Q466.70 63.86 469.44 63.86L469.44 63.86Q472.18 63.86 473.90 65.37Q475.63 66.88 475.34 69.83L475.34 69.83L473.33 94.53Q473.11 97.41 471.20 98.92Q469.30 100.43 466.56 100.43L466.56 100.43ZM470.30 58.82Q467.06 58.82 465.16 57.12Q463.25 55.43 463.25 52.62L463.25 52.62Q463.25 49.82 465.16 48.16Q467.06 46.50 470.30 46.50L470.30 46.50Q473.47 46.50 475.42 48.16Q477.36 49.82 477.36 52.62L477.36 52.62Q477.36 55.43 475.45 57.12Q473.54 58.82 470.30 58.82L470.30 58.82ZM504.36 91.14Q505.58 91.14 506.38 92.22Q507.17 93.30 507.17 95.03L507.17 95.03Q507.17 98.13 505.19 99.35Q503.21 100.58 498.31 100.58L498.31 100.58Q491.62 100.58 488.09 97.30Q484.56 94.02 484.56 87.76L484.56 87.76Q484.56 86.32 484.63 85.60L484.63 85.60L485.57 74.01L483.48 74.01Q480.89 74.01 479.45 72.86Q478.01 71.70 478.01 69.54L478.01 69.54Q478.01 64.58 484.27 64.58L484.27 64.58L486.36 64.58L486.72 59.90Q486.94 57.09 488.81 55.50Q490.68 53.92 493.63 53.92L493.63 53.92Q496.58 53.92 498.17 55.50Q499.75 57.09 499.54 59.82L499.54 59.82L499.18 64.58L503.06 64.58Q505.58 64.58 506.99 65.73Q508.39 66.88 508.39 68.97L508.39 68.97Q508.39 71.56 506.92 72.78Q505.44 74.01 502.27 74.01L502.27 74.01L498.38 74.01L497.45 85.67Q497.38 86.10 497.38 86.82L497.38 86.82Q497.38 91.36 501.34 91.36L501.34 91.36L502.78 91.29Q503.93 91.14 504.36 91.14L504.36 91.14ZM527.62 63.71Q535.68 63.71 539.68 67.24Q543.67 70.77 543.67 77.90L543.67 77.90Q543.67 79.41 543.60 80.27L543.60 80.27L542.45 94.53Q542.23 97.34 540.50 98.88Q538.78 100.43 535.97 100.43L535.97 100.43Q533.59 100.43 532.08 99.10Q530.57 97.77 530.42 95.61L530.42 95.61Q529.13 97.98 526.75 99.28Q524.38 100.58 521.28 100.58L521.28 100.58Q517.82 100.58 514.98 99.21Q512.14 97.84 510.52 95.43Q508.90 93.02 508.90 90.06L508.90 90.06Q508.90 85.96 510.91 83.48Q512.93 80.99 517.32 79.84Q521.71 78.69 528.98 78.69L528.98 78.69L531.58 78.69L531.65 78.18Q531.94 73.07 525.96 73.07L525.96 73.07Q523.08 73.07 517.90 74.94L517.90 74.94Q516.67 75.45 515.45 75.45L515.45 75.45Q513.65 75.45 512.50 74.22Q511.34 73 511.34 71.34L511.34 71.34Q511.34 70.05 512.10 68.79Q512.86 67.53 514.44 66.66L514.44 66.66Q519.77 63.71 527.62 63.71L527.62 63.71ZM525.02 92.01Q527.47 92.01 529.16 90.17Q530.86 88.34 531.07 85.38L531.07 85.38L531.14 84.59L529.20 84.59Q524.88 84.59 523.04 85.49Q521.21 86.39 521.21 88.62L521.21 88.62Q521.21 90.14 522.25 91.07Q523.30 92.01 525.02 92.01L525.02 92.01ZM555.70 100.43Q552.96 100.43 551.20 98.92Q549.43 97.41 549.65 94.53L549.65 94.53L552.82 54.93Q553.03 51.90 554.94 50.39Q556.85 48.88 559.58 48.88L559.58 48.88Q562.32 48.88 564.08 50.39Q565.85 51.90 565.63 54.93L565.63 54.93L562.46 94.53Q562.25 97.41 560.34 98.92Q558.43 100.43 555.70 100.43L555.70 100.43ZM575.93 100.43Q573.19 100.43 571.43 98.92Q569.66 97.41 569.88 94.53L569.88 94.53L571.90 69.83Q572.18 66.88 574.13 65.37Q576.07 63.86 578.81 63.86L578.81 63.86Q581.54 63.86 583.27 65.37Q585.00 66.88 584.71 69.83L584.71 69.83L582.70 94.53Q582.48 97.41 580.57 98.92Q578.66 100.43 575.93 100.43L575.93 100.43ZM579.67 58.82Q576.43 58.82 574.52 57.12Q572.62 55.43 572.62 52.62L572.62 52.62Q572.62 49.82 574.52 48.16Q576.43 46.50 579.67 46.50L579.67 46.50Q582.84 46.50 584.78 48.16Q586.73 49.82 586.73 52.62L586.73 52.62Q586.73 55.43 584.82 57.12Q582.91 58.82 579.67 58.82L579.67 58.82ZM608.90 100.58Q603.07 100.58 598.68 98.45Q594.29 96.33 591.88 92.40Q589.46 88.48 589.46 83.22L589.46 83.22Q589.46 77.25 591.95 72.82Q594.43 68.39 599.08 66.05Q603.72 63.71 609.98 63.71L609.98 63.71Q613.44 63.71 616.39 64.36Q619.34 65.01 621.36 66.09L621.36 66.09Q622.51 66.74 623.09 67.89Q623.66 69.04 623.66 70.34L623.66 70.34Q623.66 72.35 622.55 73.90Q621.43 75.45 619.70 75.45L619.70 75.45Q618.70 75.45 617.69 74.94L617.69 74.94Q614.09 73.36 610.78 73.36L610.78 73.36Q606.89 73.36 604.76 75.84Q602.64 78.33 602.64 82.94L602.64 82.94Q602.64 86.68 604.51 88.80Q606.38 90.93 609.77 90.93L609.77 90.93Q611.64 90.93 613.15 90.60Q614.66 90.28 616.46 89.56L616.46 89.56Q617.62 88.98 618.70 88.98L618.70 88.98Q620.28 88.98 621.18 90.17Q622.08 91.36 622.08 93.09L622.08 93.09Q622.08 94.60 621.40 96.00Q620.71 97.41 619.34 98.20L619.34 98.20Q617.47 99.21 614.59 99.89Q611.71 100.58 608.90 100.58L608.90 100.58Z"/></svg>