<svg xmlns="http://www.w3.org/2000/svg" viewBox="4.6080000000000005 46.50399999999999 431.7840000000001 54.072"><path d="M43.63 48.88Q46.37 48.88 48.13 50.68Q49.90 52.48 49.90 55.36L49.90 55.36L49.90 93.88Q49.90 96.83 48.17 98.63Q46.44 100.43 43.70 100.43L43.70 100.43Q40.46 100.43 38.81 98.27L38.81 98.27L16.92 70.98L16.92 93.88Q16.92 96.83 15.26 98.63Q13.61 100.43 10.80 100.43L10.80 100.43Q8.06 100.43 6.34 98.63Q4.61 96.83 4.61 93.88L4.61 93.88L4.61 55.36Q4.61 52.48 6.34 50.68Q8.06 48.88 10.80 48.88L10.80 48.88Q13.90 48.88 15.62 51.04L15.62 51.04L37.51 78.26L37.51 55.36Q37.51 52.41 39.20 50.64Q40.90 48.88 43.63 48.88L43.63 48.88ZM87.55 63.86Q90.50 63.86 92.23 65.44Q93.96 67.02 93.96 69.76L93.96 69.76L93.96 94.67Q93.96 97.19 92.16 98.81Q90.36 100.43 87.48 100.43L87.48 100.43Q84.89 100.43 83.23 99.03Q81.58 97.62 81.50 95.25L81.50 95.25Q79.85 97.84 77.29 99.21Q74.74 100.58 71.42 100.58L71.42 100.58Q64.58 100.58 61.27 96.80Q57.96 93.02 57.96 85.31L57.96 85.31L57.96 69.76Q57.96 67.02 59.69 65.44Q61.42 63.86 64.37 63.86L64.37 63.86Q67.32 63.86 69.05 65.44Q70.78 67.02 70.78 69.76L70.78 69.76L70.78 85.60Q70.78 90.78 75.24 90.78L75.24 90.78Q77.83 90.78 79.49 88.91Q81.14 87.04 81.14 84.02L81.14 84.02L81.14 69.76Q81.14 67.02 82.87 65.44Q84.60 63.86 87.55 63.86L87.55 63.86ZM125.28 63.71Q131.62 63.71 134.71 67.49Q137.81 71.27 137.81 78.98L137.81 78.98L137.81 94.53Q137.81 97.26 136.08 98.85Q134.35 100.43 131.40 100.43L131.40 100.43Q128.45 100.43 126.72 98.85Q124.99 97.26 124.99 94.53L124.99 94.53L124.99 79.55Q124.99 76.38 123.88 74.94Q122.76 73.50 120.53 73.50L120.53 73.50Q117.65 73.50 115.96 75.34Q114.26 77.18 114.26 80.27L114.26 80.27L114.26 94.53Q114.26 97.26 112.54 98.85Q110.81 100.43 107.86 100.43L107.86 100.43Q104.90 100.43 103.18 98.85Q101.45 97.26 101.45 94.53L101.45 94.53L101.45 69.62Q101.45 67.10 103.25 65.48Q105.05 63.86 107.93 63.86L107.93 63.86Q110.66 63.86 112.28 65.37Q113.90 66.88 113.90 69.33L113.90 69.33Q115.78 66.59 118.73 65.15Q121.68 63.71 125.28 63.71L125.28 63.71ZM151.42 100.43Q148.68 100.43 146.84 98.96Q145.01 97.48 145.01 94.53L145.01 94.53L145.01 69.76Q145.01 66.81 146.84 65.33Q148.68 63.86 151.42 63.86L151.42 63.86Q154.15 63.86 155.99 65.33Q157.82 66.81 157.82 69.76L157.82 69.76L157.82 94.53Q157.82 97.48 155.99 98.96Q154.15 100.43 151.42 100.43L151.42 100.43ZM151.42 58.82Q148.18 58.82 146.27 57.12Q144.36 55.43 144.36 52.62L144.36 52.62Q144.36 49.82 146.27 48.16Q148.18 46.50 151.42 46.50L151.42 46.50Q154.58 46.50 156.53 48.16Q158.47 49.82 158.47 52.62L158.47 52.62Q158.47 55.43 156.56 57.12Q154.66 58.82 151.42 58.82L151.42 58.82ZM186.19 91.29Q191.02 91.58 191.02 95.61L191.02 95.61Q191.02 98.13 189.07 99.35Q187.13 100.58 183.53 100.36L183.53 100.36L181.51 100.22Q175.03 99.71 171.68 96.29Q168.34 92.87 168.34 86.75L168.34 86.75L168.34 74.01L166.25 74.01Q160.49 74.01 160.49 69.26L160.49 69.26Q160.49 64.58 166.25 64.58L166.25 64.58L168.34 64.58L168.34 59.90Q168.34 57.16 170.06 55.54Q171.79 53.92 174.74 53.92L174.74 53.92Q177.70 53.92 179.42 55.54Q181.15 57.16 181.15 59.90L181.15 59.90L181.15 64.58L185.11 64.58Q190.87 64.58 190.87 69.26L190.87 69.26Q190.87 74.01 185.11 74.01L185.11 74.01L181.15 74.01L181.15 87.83Q181.15 89.20 181.98 90.14Q182.81 91.07 184.10 91.14L184.10 91.14L186.19 91.29ZM212.26 100.58Q206.42 100.58 202.00 98.31Q197.57 96.04 195.16 91.86Q192.74 87.69 192.74 82.07L192.74 82.07Q192.74 76.46 195.16 72.32Q197.57 68.18 201.96 65.94Q206.35 63.71 212.26 63.71L212.26 63.71Q218.16 63.71 222.55 65.94Q226.94 68.18 229.36 72.32Q231.77 76.46 231.77 82.07L231.77 82.07Q231.77 87.69 229.36 91.86Q226.94 96.04 222.55 98.31Q218.16 100.58 212.26 100.58L212.26 100.58ZM212.26 91Q219.10 91 219.10 82.07L219.10 82.07Q219.10 73.14 212.26 73.14L212.26 73.14Q205.42 73.14 205.42 82.07L205.42 82.07Q205.42 91 212.26 91L212.26 91ZM281.66 63.71Q286.27 63.71 289.80 65.94Q293.33 68.18 295.31 72.32Q297.29 76.46 297.29 81.93L297.29 81.93Q297.29 87.40 295.31 91.65Q293.33 95.90 289.76 98.24Q286.20 100.58 281.66 100.58L281.66 100.58Q278.14 100.58 275.22 99.14Q272.30 97.70 270.79 95.18L270.79 95.18Q270.58 97.62 268.88 99.03Q267.19 100.43 264.46 100.43L264.46 100.43Q261.58 100.43 259.88 98.81Q258.19 97.19 258.19 94.53L258.19 94.53L258.19 54.64Q258.19 52.12 259.99 50.50Q261.79 48.88 264.74 48.88L264.74 48.88Q267.55 48.88 269.28 50.39Q271.01 51.90 271.01 54.42L271.01 54.42L271.01 68.75Q272.59 66.45 275.44 65.08Q278.28 63.71 281.66 63.71L281.66 63.71ZM277.70 91Q281.02 91 282.82 88.66Q284.62 86.32 284.62 81.93L284.62 81.93Q284.62 77.75 282.85 75.52Q281.09 73.29 277.78 73.29L277.78 73.29Q274.39 73.29 272.59 75.56Q270.79 77.82 270.79 82.07L270.79 82.07Q270.79 86.39 272.59 88.70Q274.39 91 277.70 91L277.70 91ZM309.60 100.43Q306.86 100.43 305.03 98.96Q303.19 97.48 303.19 94.53L303.19 94.53L303.19 54.86Q303.19 51.90 305.03 50.39Q306.86 48.88 309.60 48.88L309.60 48.88Q312.34 48.88 314.17 50.39Q316.01 51.90 316.01 54.86L316.01 54.86L316.01 94.53Q316.01 97.48 314.17 98.96Q312.34 100.43 309.60 100.43L309.60 100.43ZM339.91 63.71Q348.12 63.71 352.04 67.64Q355.97 71.56 355.97 79.55L355.97 79.55L355.97 94.60Q355.97 97.34 354.35 98.88Q352.73 100.43 349.85 100.43L349.85 100.43Q347.33 100.43 345.71 98.99Q344.09 97.55 343.94 95.10L343.94 95.10Q342.94 97.70 340.56 99.14Q338.18 100.58 334.87 100.58L334.87 100.58Q331.20 100.58 328.25 99.10Q325.30 97.62 323.60 95.00Q321.91 92.37 321.91 89.06L321.91 89.06Q321.91 85.24 323.89 82.97Q325.87 80.70 330.19 79.70Q334.51 78.69 341.86 78.69L341.86 78.69L343.80 78.69L343.80 77.82Q343.80 75.30 342.65 74.19Q341.50 73.07 338.76 73.07L338.76 73.07Q335.81 73.07 330.12 75.09L330.12 75.09Q328.46 75.66 327.31 75.66L327.31 75.66Q325.51 75.66 324.43 74.37Q323.35 73.07 323.35 70.98L323.35 70.98Q323.35 69.40 324.00 68.39Q324.65 67.38 326.09 66.59L326.09 66.59Q328.61 65.30 332.42 64.50Q336.24 63.71 339.91 63.71L339.91 63.71ZM337.90 92.01Q340.49 92.01 342.14 90.17Q343.80 88.34 343.80 85.46L343.80 85.46L343.80 84.59L342.65 84.59Q338.04 84.59 336.10 85.42Q334.15 86.25 334.15 88.19L334.15 88.19Q334.15 89.85 335.20 90.93Q336.24 92.01 337.90 92.01L337.90 92.01ZM380.23 100.58Q371.59 100.58 366.55 95.68Q361.51 90.78 361.51 82.36L361.51 82.36Q361.51 76.82 363.96 72.57Q366.41 68.32 370.84 66.02Q375.26 63.71 380.95 63.71L380.95 63.71Q383.98 63.71 387.00 64.50Q390.02 65.30 392.33 66.74L392.33 66.74Q394.56 68.10 394.56 70.91L394.56 70.91Q394.56 73.14 393.52 74.55Q392.47 75.95 390.82 75.95L390.82 75.95Q389.74 75.95 388.73 75.63Q387.72 75.30 386.50 74.66L386.50 74.66Q385.06 74.01 384.05 73.68Q383.04 73.36 381.82 73.36L381.82 73.36Q374.69 73.36 374.69 82.07L374.69 82.07Q374.69 86.39 376.52 88.66Q378.36 90.93 381.82 90.93L381.82 90.93Q383.04 90.93 384.08 90.60Q385.13 90.28 386.42 89.63L386.42 89.63Q387.86 88.98 388.76 88.66Q389.66 88.34 390.74 88.34L390.74 88.34Q392.40 88.34 393.44 89.74Q394.49 91.14 394.49 93.38L394.49 93.38Q394.49 94.74 393.91 95.86Q393.34 96.98 392.33 97.55L392.33 97.55Q387.36 100.58 380.23 100.58L380.23 100.58ZM434.52 90.06Q436.39 91.86 436.39 94.24L436.39 94.24Q436.39 96.62 434.70 98.49Q433.01 100.36 430.63 100.36L430.63 100.36Q428.62 100.36 426.60 98.56L426.60 98.56L411.98 84.66L411.98 94.38Q411.98 97.34 410.15 98.85Q408.31 100.36 405.58 100.36L405.58 100.36Q402.84 100.36 401.00 98.85Q399.17 97.34 399.17 94.38L399.17 94.38L399.17 54.86Q399.17 51.90 401.00 50.39Q402.84 48.88 405.58 48.88L405.58 48.88Q408.31 48.88 410.15 50.39Q411.98 51.90 411.98 54.86L411.98 54.86L411.98 79.26L425.30 65.73Q427.10 63.86 429.48 63.86L429.48 63.86Q431.78 63.86 433.55 65.62Q435.31 67.38 435.31 69.62L435.31 69.62Q435.31 71.85 433.44 73.72L433.44 73.72L425.59 81.50L434.52 90.06Z"/></svg>