<svg xmlns="http://www.w3.org/2000/svg" viewBox="0.7000000000000001 -7.2700000000000005 56.379999999999995 7.36"><path d="M5.36-2.58L5.36-7.05L6.82-7.05L6.82 0L5.66 0L2.15-4.49L2.15 0L0.70 0L0.70-7.05L1.85-7.05L5.36-2.58ZM11.32-4.91L12.83-4.91L12.83 0L11.36 0L11.36-0.70Q11.13-0.32 10.76-0.12Q10.38 0.08 9.91 0.08L9.91 0.08Q8.98 0.08 8.53-0.43Q8.07-0.95 8.07-1.99L8.07-1.99L8.07-4.91L9.58-4.91L9.58-1.96Q9.58-1.52 9.77-1.31Q9.95-1.10 10.33-1.10L10.33-1.10Q10.77-1.10 11.04-1.40Q11.32-1.70 11.32-2.19L11.32-2.19L11.32-4.91ZM17.07-5.03Q17.95-5.03 18.38-4.51Q18.81-4 18.81-2.96L18.81-2.96L18.81 0L17.30 0L17.30-2.89Q17.30-3.39 17.12-3.62Q16.93-3.85 16.54-3.85L16.54-3.85Q16.07-3.85 15.79-3.55Q15.50-3.25 15.50-2.75L15.50-2.75L15.50 0L13.99 0L13.99-4.91L15.46-4.91L15.46-4.21Q15.72-4.61 16.14-4.82Q16.55-5.03 17.07-5.03L17.07-5.03ZM21.45 0L19.94 0L19.94-4.91L21.45-4.91L21.45 0ZM19.89-5.86L19.89-7.27L21.51-7.27L21.51-5.86L19.89-5.86ZM25.33-1.03Q25.56-1.03 25.81-1.06L25.81-1.06L25.73 0.04Q25.44 0.08 25.15 0.08L25.15 0.08Q24.03 0.08 23.52-0.41Q23-0.90 23-1.90L23-1.90L23-3.78L22.07-3.78L22.07-4.91L23-4.91L23-6.35L24.51-6.35L24.51-4.91L25.74-4.91L25.74-3.78L24.51-3.78L24.51-1.91Q24.51-1.03 25.33-1.03L25.33-1.03ZM28.84 0.08Q28.06 0.08 27.47-0.24Q26.88-0.55 26.56-1.13Q26.24-1.70 26.24-2.48L26.24-2.48Q26.24-3.26 26.56-3.83Q26.88-4.41 27.47-4.72Q28.06-5.03 28.84-5.03L28.84-5.03Q29.62-5.03 30.21-4.72Q30.80-4.41 31.12-3.83Q31.44-3.26 31.44-2.48L31.44-2.48Q31.44-1.70 31.12-1.13Q30.80-0.55 30.21-0.24Q29.62 0.08 28.84 0.08L28.84 0.08ZM28.84-1.07Q29.94-1.07 29.94-2.48L29.94-2.48Q29.94-3.19 29.66-3.54Q29.37-3.89 28.84-3.89L28.84-3.89Q27.74-3.89 27.74-2.48L27.74-2.48Q27.74-1.07 28.84-1.07L28.84-1.07ZM37.74 0.09Q36.94 0.09 36.20-0.13Q35.46-0.34 34.97-0.72L34.97-0.72L35.47-1.83Q36.49-1.12 37.76-1.12L37.76-1.12Q38.42-1.12 38.77-1.33Q39.13-1.55 39.13-1.93L39.13-1.93Q39.13-2.27 38.80-2.46Q38.48-2.65 37.65-2.83L37.65-2.83Q36.72-3.02 36.16-3.29Q35.61-3.56 35.35-3.96Q35.10-4.35 35.10-4.93L35.10-4.93Q35.10-5.57 35.45-6.07Q35.81-6.57 36.45-6.86Q37.09-7.14 37.93-7.14L37.93-7.14Q38.68-7.14 39.38-6.92Q40.07-6.70 40.48-6.33L40.48-6.33L39.98-5.22Q39.01-5.93 37.94-5.93L37.94-5.93Q37.33-5.93 36.98-5.70Q36.63-5.46 36.63-5.05L36.63-5.05Q36.63-4.81 36.77-4.66Q36.90-4.50 37.22-4.38Q37.53-4.26 38.11-4.13L38.11-4.13Q39.47-3.83 40.06-3.36Q40.66-2.89 40.66-2.06L40.66-2.06Q40.66-1.06 39.89-0.48Q39.12 0.09 37.74 0.09L37.74 0.09ZM43.84-5.03Q44.94-5.03 45.46-4.51Q45.99-3.99 45.99-2.90L45.99-2.90L45.99 0L44.56 0L44.56-0.73Q44.41-0.35 44.06-0.14Q43.71 0.08 43.24 0.08L43.24 0.08Q42.74 0.08 42.34-0.12Q41.93-0.32 41.70-0.68Q41.46-1.04 41.46-1.48L41.46-1.48Q41.46-2.02 41.73-2.33Q42.01-2.64 42.62-2.78Q43.23-2.92 44.29-2.92L44.29-2.92L44.55-2.92L44.55-3.10Q44.55-3.54 44.36-3.72Q44.17-3.90 43.70-3.90L43.70-3.90Q43.34-3.90 42.90-3.77Q42.46-3.64 42.06-3.41L42.06-3.41L41.66-4.42Q42.08-4.68 42.70-4.86Q43.31-5.03 43.84-5.03L43.84-5.03ZM43.57-0.96Q44.01-0.96 44.28-1.26Q44.55-1.55 44.55-2.02L44.55-2.02L44.55-2.19L44.38-2.19Q43.57-2.19 43.24-2.06Q42.92-1.93 42.92-1.59L42.92-1.59Q42.92-1.32 43.10-1.14Q43.29-0.96 43.57-0.96L43.57-0.96ZM50.20-5.03Q51.08-5.03 51.51-4.51Q51.94-4 51.94-2.96L51.94-2.96L51.94 0L50.43 0L50.43-2.89Q50.43-3.39 50.24-3.62Q50.06-3.85 49.67-3.85L49.67-3.85Q49.20-3.85 48.91-3.55Q48.63-3.25 48.63-2.75L48.63-2.75L48.63 0L47.12 0L47.12-4.91L48.59-4.91L48.59-4.21Q48.85-4.61 49.27-4.82Q49.68-5.03 50.20-5.03L50.20-5.03ZM54.96 0.08Q54.28 0.08 53.72-0.07Q53.15-0.23 52.74-0.52L52.74-0.52L53.14-1.56Q53.54-1.29 54.02-1.14Q54.50-0.99 54.99-0.99L54.99-0.99Q55.34-0.99 55.54-1.10Q55.73-1.22 55.73-1.42L55.73-1.42Q55.73-1.60 55.59-1.70Q55.46-1.80 55.09-1.88L55.09-1.88L54.29-2.06Q53.58-2.22 53.25-2.56Q52.91-2.89 52.91-3.47L52.91-3.47Q52.91-3.93 53.18-4.28Q53.44-4.63 53.93-4.83Q54.41-5.03 55.03-5.03L55.03-5.03Q55.56-5.03 56.06-4.87Q56.56-4.71 56.96-4.42L56.96-4.42L56.56-3.42Q55.78-3.96 55.02-3.96L55.02-3.96Q54.67-3.96 54.47-3.84Q54.27-3.72 54.27-3.50L54.27-3.50Q54.27-3.34 54.39-3.25Q54.51-3.16 54.81-3.08L54.81-3.08L55.64-2.89Q56.39-2.72 56.73-2.38Q57.08-2.03 57.08-1.44L57.08-1.44Q57.08-0.73 56.52-0.33Q55.95 0.08 54.96 0.08L54.96 0.08Z"/></svg>