<svg xmlns="http://www.w3.org/2000/svg" viewBox="5.040000000000001 47.29599999999999 582.9120000000003 53.28"><path d="M43.78 48.88Q46.15 48.88 47.63 50.43Q49.10 51.98 49.10 54.42L49.10 54.42L49.10 94.82Q49.10 97.34 47.63 98.88Q46.15 100.43 43.78 100.43L43.78 100.43Q41.18 100.43 39.60 98.56L39.60 98.56L15.48 67.67L15.48 94.82Q15.48 97.34 14.08 98.88Q12.67 100.43 10.30 100.43L10.30 100.43Q7.92 100.43 6.48 98.88Q5.04 97.34 5.04 94.82L5.04 94.82L5.04 54.42Q5.04 51.98 6.52 50.43Q7.99 48.88 10.37 48.88L10.37 48.88Q13.03 48.88 14.47 50.75L14.47 50.75L38.59 81.42L38.59 54.42Q38.59 51.98 40.03 50.43Q41.47 48.88 43.78 48.88L43.78 48.88ZM86.90 63.93Q89.42 63.93 90.90 65.30Q92.38 66.66 92.38 69.04L92.38 69.04L92.38 95.46Q92.38 97.70 90.83 99.06Q89.28 100.43 86.83 100.43L86.83 100.43Q84.53 100.43 83.16 99.14Q81.79 97.84 81.79 95.68L81.79 95.68L81.79 94.96Q80.14 97.70 77.44 99.14Q74.74 100.58 71.35 100.58L71.35 100.58Q64.66 100.58 61.38 96.87Q58.10 93.16 58.10 85.67L58.10 85.67L58.10 69.04Q58.10 66.66 59.58 65.30Q61.06 63.93 63.58 63.93L63.58 63.93Q66.10 63.93 67.54 65.30Q68.98 66.66 68.98 69.04L68.98 69.04L68.98 85.89Q68.98 89.06 70.31 90.57Q71.64 92.08 74.38 92.08L74.38 92.08Q77.54 92.08 79.52 89.92Q81.50 87.76 81.50 84.23L81.50 84.23L81.50 69.04Q81.50 66.66 82.94 65.30Q84.38 63.93 86.90 63.93L86.90 63.93ZM122.90 63.78Q129.24 63.78 132.34 67.49Q135.43 71.20 135.43 78.69L135.43 78.69L135.43 95.32Q135.43 97.70 133.96 99.06Q132.48 100.43 129.96 100.43L129.96 100.43Q127.44 100.43 126.00 99.06Q124.56 97.70 124.56 95.32L124.56 95.32L124.56 79.19Q124.56 75.59 123.23 73.94Q121.90 72.28 119.09 72.28L119.09 72.28Q115.70 72.28 113.65 74.44Q111.60 76.60 111.60 80.20L111.60 80.20L111.60 95.32Q111.60 97.70 110.16 99.06Q108.72 100.43 106.20 100.43L106.20 100.43Q103.68 100.43 102.20 99.06Q100.73 97.70 100.73 95.32L100.73 95.32L100.73 68.90Q100.73 66.66 102.28 65.30Q103.82 63.93 106.27 63.93L106.27 63.93Q108.50 63.93 109.91 65.26Q111.31 66.59 111.31 68.68L111.31 68.68L111.31 69.69Q113.18 66.81 116.17 65.30Q119.16 63.78 122.90 63.78L122.90 63.78ZM149.04 100.43Q146.66 100.43 145.12 99.14Q143.57 97.84 143.57 95.32L143.57 95.32L143.57 69.04Q143.57 66.52 145.15 65.22Q146.74 63.93 149.04 63.93L149.04 63.93Q151.34 63.93 152.89 65.22Q154.44 66.52 154.44 69.04L154.44 69.04L154.44 95.32Q154.44 97.84 152.89 99.14Q151.34 100.43 149.04 100.43L149.04 100.43ZM149.04 58.17Q146.16 58.17 144.50 56.69Q142.85 55.22 142.85 52.70L142.85 52.70Q142.85 50.18 144.50 48.74Q146.16 47.30 149.04 47.30L149.04 47.30Q151.85 47.30 153.54 48.77Q155.23 50.25 155.23 52.70L155.23 52.70Q155.23 55.22 153.58 56.69Q151.92 58.17 149.04 58.17L149.04 58.17ZM182.45 92.51Q184.61 92.66 185.62 93.59Q186.62 94.53 186.62 96.33L186.62 96.33Q186.62 98.42 184.97 99.50Q183.31 100.58 180.22 100.36L180.22 100.36L178.20 100.22Q165.60 99.21 165.60 87.04L165.60 87.04L165.60 72.78L162.72 72.78Q160.34 72.78 159.12 71.74Q157.90 70.70 157.90 68.75L157.90 68.75Q157.90 66.74 159.12 65.69Q160.34 64.65 162.72 64.65L162.72 64.65L165.60 64.65L165.60 59.03Q165.60 56.66 167.08 55.29Q168.55 53.92 171.07 53.92L171.07 53.92Q173.59 53.92 175.03 55.29Q176.47 56.66 176.47 59.03L176.47 59.03L176.47 64.65L181.51 64.65Q186.41 64.65 186.41 68.75L186.41 68.75Q186.41 70.70 185.18 71.74Q183.96 72.78 181.51 72.78L181.51 72.78L176.47 72.78L176.47 87.83Q176.47 89.99 177.48 91.11Q178.49 92.22 180.43 92.37L180.43 92.37L182.45 92.51ZM207.65 100.58Q202.03 100.58 197.78 98.31Q193.54 96.04 191.23 91.90Q188.93 87.76 188.93 82.14L188.93 82.14Q188.93 76.53 191.23 72.39Q193.54 68.25 197.78 66.02Q202.03 63.78 207.65 63.78L207.65 63.78Q213.26 63.78 217.51 66.02Q221.76 68.25 224.06 72.39Q226.37 76.53 226.37 82.14L226.37 82.14Q226.37 87.76 224.06 91.90Q221.76 96.04 217.51 98.31Q213.26 100.58 207.65 100.58L207.65 100.58ZM207.65 92.30Q215.57 92.30 215.57 82.14L215.57 82.14Q215.57 77.03 213.52 74.51Q211.46 71.99 207.65 71.99L207.65 71.99Q199.73 71.99 199.73 82.14L199.73 82.14Q199.73 92.30 207.65 92.30L207.65 92.30ZM281.45 89.49Q282.89 89.49 283.79 90.64Q284.69 91.79 284.69 93.59L284.69 93.59Q284.69 94.82 283.97 95.86Q283.25 96.90 281.95 97.62L281.95 97.62Q279.50 98.92 276.26 99.75Q273.02 100.58 270.29 100.58L270.29 100.58Q264.53 100.58 260.24 98.34Q255.96 96.11 253.66 91.97Q251.35 87.83 251.35 82.22L251.35 82.22Q251.35 76.82 253.58 72.64Q255.82 68.46 259.78 66.12Q263.74 63.78 268.78 63.78L268.78 63.78Q273.60 63.78 277.24 65.91Q280.87 68.03 282.89 71.96Q284.90 75.88 284.90 81.14L284.90 81.14Q284.90 82.72 284.15 83.55Q283.39 84.38 282.02 84.38L282.02 84.38L261.86 84.38Q262.37 88.62 264.46 90.53Q266.54 92.44 270.43 92.44L270.43 92.44Q272.52 92.44 274.18 91.94Q275.83 91.43 277.85 90.57L277.85 90.57Q278.86 90.14 279.79 89.81Q280.73 89.49 281.45 89.49L281.45 89.49ZM269.06 71.27Q265.97 71.27 264.10 73.25Q262.22 75.23 261.86 78.98L261.86 78.98L275.76 78.98Q275.54 75.16 273.85 73.22Q272.16 71.27 269.06 71.27L269.06 71.27ZM322.99 92.01Q324.58 93.66 324.58 95.61L324.58 95.61Q324.58 97.55 323.10 99.03Q321.62 100.50 319.68 100.50L319.68 100.50Q317.74 100.50 316.08 98.78L316.08 98.78L306.72 88.70L297.43 98.78Q295.78 100.50 293.83 100.50L293.83 100.50Q291.82 100.50 290.34 99.03Q288.86 97.55 288.86 95.54L288.86 95.54Q288.86 93.66 290.45 92.01L290.45 92.01L300.17 81.86L291.10 72.42Q289.51 70.77 289.51 68.90L289.51 68.90Q289.51 66.88 290.99 65.44Q292.46 64.00 294.41 64.00L294.41 64.00Q296.42 64.00 298.08 65.73L298.08 65.73L306.72 74.94L315.43 65.73Q317.09 64.00 319.10 64.00L319.10 64.00Q321.05 64.00 322.52 65.44Q324.00 66.88 324.00 68.90L324.00 68.90Q324.00 70.77 322.42 72.42L322.42 72.42L313.27 81.86L322.99 92.01ZM349.99 92.51Q352.15 92.66 353.16 93.59Q354.17 94.53 354.17 96.33L354.17 96.33Q354.17 98.42 352.51 99.50Q350.86 100.58 347.76 100.36L347.76 100.36L345.74 100.22Q333.14 99.21 333.14 87.04L333.14 87.04L333.14 72.78L330.26 72.78Q327.89 72.78 326.66 71.74Q325.44 70.70 325.44 68.75L325.44 68.75Q325.44 66.74 326.66 65.69Q327.89 64.65 330.26 64.65L330.26 64.65L333.14 64.65L333.14 59.03Q333.14 56.66 334.62 55.29Q336.10 53.92 338.62 53.92L338.62 53.92Q341.14 53.92 342.58 55.29Q344.02 56.66 344.02 59.03L344.02 59.03L344.02 64.65L349.06 64.65Q353.95 64.65 353.95 68.75L353.95 68.75Q353.95 70.70 352.73 71.74Q351.50 72.78 349.06 72.78L349.06 72.78L344.02 72.78L344.02 87.83Q344.02 89.99 345.02 91.11Q346.03 92.22 347.98 92.37L347.98 92.37L349.99 92.51ZM379.30 63.93Q381.46 63.78 382.72 64.90Q383.98 66.02 383.98 68.25L383.98 68.25Q383.98 70.62 382.82 71.78Q381.67 72.93 378.72 73.22L378.72 73.22L376.56 73.43Q372.60 73.86 370.84 76.02Q369.07 78.18 369.07 81.57L369.07 81.57L369.07 95.32Q369.07 97.84 367.52 99.14Q365.98 100.43 363.67 100.43L363.67 100.43Q361.30 100.43 359.75 99.14Q358.20 97.84 358.20 95.32L358.20 95.32L358.20 68.90Q358.20 66.52 359.78 65.22Q361.37 63.93 363.60 63.93L363.60 63.93Q365.76 63.93 367.20 65.19Q368.64 66.45 368.64 68.68L368.64 68.68L368.64 70.62Q369.94 67.53 372.56 65.87Q375.19 64.22 378.29 64.00L378.29 64.00L379.30 63.93ZM402.98 63.78Q410.76 63.78 414.50 67.56Q418.25 71.34 418.25 79.12L418.25 79.12L418.25 95.39Q418.25 97.77 416.88 99.10Q415.51 100.43 413.06 100.43L413.06 100.43Q410.76 100.43 409.36 99.03Q407.95 97.62 407.95 95.39L407.95 95.39L407.95 94.89Q406.87 97.55 404.35 99.06Q401.83 100.58 398.45 100.58L398.45 100.58Q394.85 100.58 391.93 99.14Q389.02 97.70 387.32 95.10Q385.63 92.51 385.63 89.34L385.63 89.34Q385.63 85.46 387.61 83.22Q389.59 80.99 393.98 79.98Q398.38 78.98 406.01 78.98L406.01 78.98L407.88 78.98L407.88 77.68Q407.88 74.66 406.55 73.29Q405.22 71.92 402.12 71.92L402.12 71.92Q399.02 71.92 393.19 74.08L393.19 74.08Q391.54 74.87 390.38 74.87L390.38 74.87Q388.80 74.87 387.86 73.76Q386.93 72.64 386.93 70.84L386.93 70.84Q386.93 69.40 387.58 68.46Q388.22 67.53 389.66 66.74L389.66 66.74Q392.18 65.37 395.82 64.58Q399.46 63.78 402.98 63.78L402.98 63.78ZM400.82 93.09Q403.99 93.09 405.94 90.96Q407.88 88.84 407.88 85.46L407.88 85.46L407.88 84.23L406.66 84.23Q400.82 84.23 398.48 85.17Q396.14 86.10 396.14 88.55L396.14 88.55Q396.14 90.57 397.48 91.83Q398.81 93.09 400.82 93.09L400.82 93.09ZM468.36 63.78Q472.97 63.78 476.50 66.02Q480.02 68.25 482.00 72.39Q483.98 76.53 483.98 82L483.98 82Q483.98 87.47 482.00 91.68Q480.02 95.90 476.46 98.24Q472.90 100.58 468.36 100.58L468.36 100.58Q464.69 100.58 461.74 99.03Q458.78 97.48 457.20 94.74L457.20 94.74L457.20 95.32Q457.20 97.62 455.76 99.03Q454.32 100.43 451.87 100.43L451.87 100.43Q449.42 100.43 447.95 99.03Q446.47 97.62 446.47 95.32L446.47 95.32L446.47 53.85Q446.47 51.62 448.02 50.25Q449.57 48.88 452.09 48.88L452.09 48.88Q454.46 48.88 455.90 50.18Q457.34 51.47 457.34 53.63L457.34 53.63L457.34 69.40Q458.93 66.74 461.84 65.26Q464.76 63.78 468.36 63.78L468.36 63.78ZM465.19 92.30Q469.01 92.30 471.10 89.60Q473.18 86.90 473.18 82L473.18 82Q473.18 77.18 471.10 74.62Q469.01 72.06 465.19 72.06L465.19 72.06Q461.38 72.06 459.29 74.69Q457.20 77.32 457.20 82.14L457.20 82.14Q457.20 87.04 459.29 89.67Q461.38 92.30 465.19 92.30L465.19 92.30ZM507.60 100.58Q501.98 100.58 497.74 98.31Q493.49 96.04 491.18 91.90Q488.88 87.76 488.88 82.14L488.88 82.14Q488.88 76.53 491.18 72.39Q493.49 68.25 497.74 66.02Q501.98 63.78 507.60 63.78L507.60 63.78Q513.22 63.78 517.46 66.02Q521.71 68.25 524.02 72.39Q526.32 76.53 526.32 82.14L526.32 82.14Q526.32 87.76 524.02 91.90Q521.71 96.04 517.46 98.31Q513.22 100.58 507.60 100.58L507.60 100.58ZM507.60 92.30Q515.52 92.30 515.52 82.14L515.52 82.14Q515.52 77.03 513.47 74.51Q511.42 71.99 507.60 71.99L507.60 71.99Q499.68 71.99 499.68 82.14L499.68 82.14Q499.68 92.30 507.60 92.30L507.60 92.30ZM538.42 100.43Q536.04 100.43 534.49 99.14Q532.94 97.84 532.94 95.32L532.94 95.32L532.94 53.99Q532.94 51.47 534.49 50.18Q536.04 48.88 538.42 48.88L538.42 48.88Q540.72 48.88 542.27 50.18Q543.82 51.47 543.82 53.99L543.82 53.99L543.82 95.32Q543.82 97.84 542.27 99.14Q540.72 100.43 538.42 100.43L538.42 100.43ZM582.34 48.88Q584.86 48.88 586.40 50.25Q587.95 51.62 587.95 53.85L587.95 53.85L587.95 95.32Q587.95 97.62 586.48 99.03Q585.00 100.43 582.55 100.43L582.55 100.43Q580.10 100.43 578.63 99.03Q577.15 97.62 577.15 95.32L577.15 95.32L577.15 94.74Q575.57 97.48 572.65 99.03Q569.74 100.58 566.06 100.58L566.06 100.58Q561.53 100.58 557.96 98.24Q554.40 95.90 552.42 91.68Q550.44 87.47 550.44 82L550.44 82Q550.44 76.53 552.42 72.39Q554.40 68.25 557.93 66.02Q561.46 63.78 566.06 63.78L566.06 63.78Q569.66 63.78 572.58 65.30Q575.50 66.81 577.08 69.54L577.08 69.54L577.08 53.63Q577.08 51.47 578.52 50.18Q579.96 48.88 582.34 48.88L582.34 48.88ZM569.23 92.30Q573.05 92.30 575.10 89.67Q577.15 87.04 577.15 82.14L577.15 82.14Q577.15 77.25 575.10 74.66Q573.05 72.06 569.23 72.06L569.23 72.06Q565.42 72.06 563.33 74.62Q561.24 77.18 561.24 82L561.24 82Q561.24 86.90 563.33 89.60Q565.42 92.30 569.23 92.30L569.23 92.30Z"/></svg>