<svg xmlns="http://www.w3.org/2000/svg" viewBox="0.63 -7.13 54.32000000000001 7.21"><path d="M5.58-1.75L6-7.05L6.97-7.05L6.41 0L5.63 0L2.02-5.32L1.60 0L0.63 0L1.18-7.05L1.97-7.05L5.58-1.75ZM11.59-4.88L12.60-4.88L12.22 0L11.23 0L11.29-0.74Q11.04-0.35 10.63-0.14Q10.21 0.07 9.70 0.07L9.70 0.07Q8.89 0.07 8.47-0.36Q8.05-0.80 8.05-1.64L8.05-1.64Q8.05-1.82 8.06-1.91L8.06-1.91L8.30-4.88L9.31-4.88L9.07-1.97L9.06-1.79Q9.06-0.75 10.03-0.75L10.03-0.75Q10.62-0.75 10.97-1.12Q11.32-1.49 11.37-2.14L11.37-2.14L11.59-4.88ZM16.58-5Q17.40-5 17.83-4.57Q18.25-4.14 18.25-3.30L18.25-3.30Q18.25-3.10 18.24-3L18.24-3L18.01 0L17 0L17.23-2.95Q17.24-3.02 17.24-3.16L17.24-3.16Q17.24-4.18 16.26-4.18L16.26-4.18Q15.64-4.18 15.28-3.81Q14.91-3.44 14.86-2.78L14.86-2.78L14.64 0L13.63 0L14.02-4.88L15.01-4.88L14.95-4.18Q15.20-4.57 15.63-4.79Q16.05-5 16.58-5L16.58-5ZM20.40 0L19.39 0L19.78-4.88L20.79-4.88L20.40 0ZM19.79-6.01L19.87-7.06L21.04-7.06L20.95-6.01L19.79-6.01ZM23.45-4.10L23.27-1.81L23.26-1.64Q23.26-0.71 24.18-0.71L24.18-0.71Q24.39-0.71 24.63-0.74L24.63-0.74L24.52 0.02Q24.28 0.07 24.02 0.07L24.02 0.07Q23.16 0.07 22.71-0.35Q22.25-0.76 22.25-1.54L22.25-1.54Q22.25-1.70 22.26-1.78L22.26-1.78L22.44-4.10L21.50-4.10L21.56-4.88L22.50-4.88L22.62-6.35L23.63-6.35L23.51-4.88L24.85-4.88L24.79-4.10L23.45-4.10ZM27.60 0.07Q26.89 0.07 26.36-0.22Q25.83-0.51 25.54-1.05Q25.25-1.59 25.25-2.30L25.25-2.30Q25.25-3.12 25.56-3.73Q25.86-4.34 26.42-4.67Q26.97-5 27.70-5L27.70-5Q28.42-5 28.95-4.71Q29.48-4.41 29.77-3.88Q30.06-3.34 30.06-2.62L30.06-2.62Q30.06-1.80 29.76-1.20Q29.45-0.59 28.90-0.26Q28.34 0.07 27.60 0.07L27.60 0.07ZM27.61-0.73Q28.30-0.73 28.67-1.25Q29.04-1.77 29.04-2.65L29.04-2.65Q29.04-3.40 28.70-3.79Q28.35-4.19 27.71-4.19L27.71-4.19Q27.01-4.19 26.64-3.67Q26.27-3.15 26.27-2.27L26.27-2.27Q26.27-1.51 26.62-1.12Q26.96-0.73 27.61-0.73L27.61-0.73ZM36.17 0.08Q34.53 0.08 33.43-0.79L33.43-0.79L33.86-1.55Q34.40-1.14 34.96-0.95Q35.52-0.76 36.20-0.76L36.20-0.76Q37.00-0.76 37.43-1.04Q37.85-1.33 37.85-1.85L37.85-1.85Q37.85-2.18 37.64-2.39Q37.42-2.60 37.10-2.73Q36.78-2.85 36.21-3.02L36.21-3.02Q35.47-3.24 35.01-3.45Q34.54-3.65 34.22-4.04Q33.89-4.44 33.89-5.08L33.89-5.08Q33.89-5.70 34.23-6.17Q34.56-6.63 35.17-6.88Q35.78-7.13 36.60-7.13L36.60-7.13Q37.34-7.13 38.00-6.90Q38.66-6.67 39.10-6.26L39.10-6.26L38.68-5.50Q37.74-6.29 36.58-6.29L36.58-6.29Q35.79-6.29 35.36-5.99Q34.93-5.69 34.93-5.15L34.93-5.15Q34.93-4.79 35.16-4.55Q35.39-4.32 35.73-4.19Q36.07-4.05 36.66-3.88L36.66-3.88Q37.38-3.67 37.82-3.48Q38.26-3.28 38.58-2.91Q38.89-2.54 38.89-1.94L38.89-1.94Q38.89-1 38.17-0.46Q37.44 0.08 36.17 0.08L36.17 0.08ZM42.29-5Q44.10-5 44.10-3.29L44.10-3.29Q44.10-3.09 44.09-2.99L44.09-2.99L43.86 0L42.89 0L42.95-0.77Q42.74-0.36 42.37-0.14Q41.99 0.07 41.51 0.07L41.51 0.07Q40.78 0.07 40.31-0.33Q39.83-0.72 39.83-1.34L39.83-1.34Q39.83-1.89 40.12-2.22Q40.41-2.55 41.05-2.70Q41.68-2.85 42.75-2.85L42.75-2.85L43.11-2.85L43.13-3.10Q43.17-3.67 42.94-3.94Q42.70-4.20 42.15-4.20L42.15-4.20Q41.76-4.20 41.34-4.07Q40.92-3.94 40.52-3.69L40.52-3.69L40.26-4.40Q40.64-4.67 41.20-4.83Q41.76-5 42.29-5L42.29-5ZM41.75-0.68Q42.27-0.68 42.64-1.05Q43.00-1.42 43.04-2L43.04-2L43.06-2.28L42.78-2.28Q42.00-2.28 41.59-2.19Q41.17-2.11 41.01-1.93Q40.84-1.75 40.84-1.44L40.84-1.44Q40.84-1.09 41.09-0.89Q41.33-0.68 41.75-0.68L41.75-0.68ZM48.19-5Q49.01-5 49.44-4.57Q49.86-4.14 49.86-3.30L49.86-3.30Q49.86-3.10 49.85-3L49.85-3L49.62 0L48.61 0L48.84-2.95Q48.85-3.02 48.85-3.16L48.85-3.16Q48.85-4.18 47.87-4.18L47.87-4.18Q47.25-4.18 46.89-3.81Q46.52-3.44 46.47-2.78L46.47-2.78L46.25 0L45.24 0L45.63-4.88L46.62-4.88L46.56-4.18Q46.81-4.57 47.24-4.79Q47.66-5 48.19-5L48.19-5ZM52.79 0.07Q51.61 0.07 50.74-0.55L50.74-0.55L51.10-1.28Q51.88-0.70 52.81-0.70L52.81-0.70Q53.33-0.70 53.60-0.86Q53.86-1.02 53.86-1.32L53.86-1.32Q53.86-1.61 53.59-1.77Q53.32-1.92 52.75-2.08L52.75-2.08Q52.23-2.23 51.91-2.37Q51.59-2.51 51.36-2.79Q51.13-3.06 51.13-3.50L51.13-3.50Q51.13-4.18 51.68-4.59Q52.22-5 53.12-5L53.12-5Q53.65-5 54.14-4.83Q54.63-4.66 54.95-4.37L54.95-4.37L54.59-3.66Q53.89-4.23 53.12-4.23L53.12-4.23Q52.62-4.23 52.35-4.06Q52.08-3.89 52.08-3.56L52.08-3.56Q52.08-3.27 52.35-3.12Q52.61-2.97 53.18-2.81L53.18-2.81Q53.70-2.66 54.02-2.52Q54.34-2.38 54.57-2.10Q54.80-1.83 54.80-1.38L54.80-1.38Q54.80-0.70 54.26-0.32Q53.71 0.07 52.79 0.07L52.79 0.07Z"/></svg>