<svg xmlns="http://www.w3.org/2000/svg" viewBox="6.264000000000001 48.663999999999994 629.928 64.80000000000001"><path d="M41 90L41 49L47 49L47 100L42 100L12 59L12 100L6 100L6 49L11 49L41 90ZM82 65L88 65L88 100L82 100L82 94Q81 97 78 99Q75 101 71 101L71 101Q65 101 62 97Q58 94 58 87L58 87L58 65L64 65L64 87Q64 91 66 93Q68 96 72 96L72 96Q77 96 79 93Q82 90 82 85L82 85L82 65ZM117 64Q129 64 129 78L129 78L129 100L123 100L123 78Q123 73 122 71Q120 69 115 69L115 69Q111 69 108 72Q105 75 105 80L105 80L105 100L99 100L99 65L105 65L105 71Q106 67 110 66Q113 64 117 64L117 64ZM146 100L140 100L140 65L146 65L146 100ZM139 56L139 50L146 50L146 56L139 56ZM172 96Q174 96 175 96L175 96L175 100Q173 101 171 101L171 101Q165 101 162 97Q159 94 159 88L159 88L159 70L152 70L152 65L159 65L159 54L164 54L164 65L174 65L174 70L164 70L164 88Q164 96 172 96L172 96ZM196 101Q191 101 187 98Q183 96 181 92Q179 88 179 82L179 82Q179 77 181 73Q183 69 187 66Q191 64 196 64L196 64Q201 64 204 66Q208 69 210 73Q212 77 212 82L212 82Q212 88 210 92Q208 96 204 98Q201 101 196 101L196 101ZM196 96Q201 96 204 92Q206 89 206 82L206 82Q206 76 204 72Q201 69 196 69L196 69Q191 69 188 72Q185 76 185 82L185 82Q185 89 188 92Q190 96 196 96L196 96ZM257 101Q245 101 238 94L238 94L240 90Q244 93 248 94Q251 96 257 96L257 96Q263 96 266 93Q269 91 269 86L269 86Q269 84 268 82Q266 81 264 80Q261 79 257 78L257 78Q251 77 247 75Q243 74 241 71Q239 68 239 63L239 63Q239 59 241 56Q243 52 247 50Q251 49 257 49L257 49Q262 49 267 50Q271 52 275 55L275 55L272 60Q269 57 265 55Q261 54 257 54L257 54Q251 54 248 56Q244 59 244 63L244 63Q244 67 247 69Q250 71 256 72L256 72Q263 74 267 75Q270 76 273 79Q275 82 275 86L275 86Q275 91 273 94Q271 97 267 99Q262 101 257 101L257 101ZM298 64Q305 64 308 67Q312 71 312 78L312 78L312 100L306 100L306 94Q304 97 302 99Q299 101 295 101L295 101Q292 101 289 99Q286 98 284 95Q283 93 283 90L283 90Q283 86 285 84Q287 82 291 81Q296 80 304 80L304 80L306 80L306 77Q306 73 304 71Q302 69 298 69L298 69Q292 69 286 73L286 73L284 68Q287 66 291 65Q295 64 298 64L298 64ZM296 96Q300 96 303 93Q306 90 306 85L306 85L306 83L305 83Q298 83 295 84Q292 84 290 86Q289 87 289 89L289 89Q289 92 291 94Q293 96 296 96L296 96ZM340 64Q352 64 352 78L352 78L352 100L347 100L347 78Q347 73 345 71Q343 69 339 69L339 69Q334 69 331 72Q328 75 328 80L328 80L328 100L322 100L322 65L328 65L328 71Q330 67 333 66Q336 64 340 64L340 64ZM375 101Q366 101 361 96L361 96L363 92Q366 94 369 95Q372 96 375 96L375 96Q379 96 381 94Q383 93 383 91L383 91Q383 89 382 87Q380 86 377 85L377 85L371 84Q367 83 365 81Q362 78 362 75L362 75Q362 70 366 67Q370 64 376 64L376 64Q379 64 383 65Q386 66 388 69L388 69L386 73Q381 69 376 69L376 69Q372 69 370 70Q368 72 368 74L368 74Q368 76 369 78Q370 79 373 79L373 79L379 81Q384 82 386 84Q389 87 389 90L389 90Q389 95 385 98Q381 101 375 101L375 101ZM436 64L436 69L432 69Q427 70 424 73Q422 76 422 80L422 80L422 100L416 100L416 65L422 65L422 71Q425 65 434 64L434 64L436 64ZM470 81L470 83L445 83Q445 89 448 93Q451 96 457 96L457 96Q463 96 468 92L468 92L470 96Q467 98 464 99Q460 101 456 101L456 101Q448 101 444 96Q439 91 439 82L439 82Q439 77 441 73Q443 69 447 66Q451 64 455 64L455 64Q462 64 466 69Q470 73 470 81L470 81ZM455 69Q451 69 448 71Q445 74 445 80L445 80L465 80Q465 74 463 71Q460 69 455 69L455 69ZM504 65L510 65L510 98Q510 105 506 109Q502 113 494 113L494 113Q485 113 479 109L479 109L481 104Q484 107 487 108Q490 109 494 109L494 109Q499 109 502 106Q505 103 505 98L505 98L505 92Q503 95 500 97Q497 99 492 99L492 99Q488 99 484 97Q481 95 479 91Q477 87 477 81L477 81Q477 76 479 72Q481 68 484 66Q488 64 492 64L492 64Q497 64 500 66Q503 68 504 71L504 71L504 65ZM494 94Q499 94 502 91Q504 87 504 81L504 81Q504 76 502 72Q499 69 494 69L494 69Q489 69 486 72Q483 76 483 81L483 81Q483 87 486 91Q489 94 494 94L494 94ZM545 65L551 65L551 100L545 100L545 94Q543 97 540 99Q537 101 534 101L534 101Q527 101 524 97Q521 94 521 87L521 87L521 65L527 65L527 87Q527 91 529 93Q530 96 535 96L535 96Q539 96 542 93Q545 90 545 85L545 85L545 65ZM567 100L561 100L561 49L567 49L567 100ZM592 64Q599 64 602 67Q606 71 606 78L606 78L606 100L600 100L600 94Q599 97 596 99Q593 101 589 101L589 101Q586 101 583 99Q580 98 579 95Q577 93 577 90L577 90Q577 86 579 84Q581 82 586 81Q590 80 598 80L598 80L600 80L600 77Q600 73 598 71Q596 69 592 69L592 69Q586 69 580 73L580 73L578 68Q581 66 585 65Q589 64 592 64L592 64ZM590 96Q594 96 597 93Q600 90 600 85L600 85L600 83L599 83Q592 83 589 84Q586 84 584 86Q583 87 583 89L583 89Q583 92 585 94Q587 96 590 96L590 96ZM636 64L636 69L632 69Q627 70 625 73Q622 76 622 80L622 80L622 100L616 100L616 65L622 65L622 71Q625 65 634 64L634 64L636 64Z"/></svg>