<svg xmlns="http://www.w3.org/2000/svg" viewBox="0.64 -7.43 31.549999999999997 7.51"><path d="M6.06-7.10Q6.44-7.10 6.69-6.85Q6.93-6.60 6.93-6.20L6.93-6.20L6.93-0.85Q6.93-0.44 6.69-0.19Q6.45 0.06 6.07 0.06L6.07 0.06Q5.62 0.06 5.39-0.24L5.39-0.24L2.35-4.03L2.35-0.85Q2.35-0.44 2.12-0.19Q1.89 0.06 1.50 0.06L1.50 0.06Q1.12 0.06 0.88-0.19Q0.64-0.44 0.64-0.85L0.64-0.85L0.64-6.20Q0.64-6.60 0.88-6.85Q1.12-7.10 1.50-7.10L1.50-7.10Q1.93-7.10 2.17-6.80L2.17-6.80L5.21-3.02L5.21-6.20Q5.21-6.61 5.45-6.86Q5.68-7.10 6.06-7.10L6.06-7.10ZM12.16-5.02Q12.57-5.02 12.81-4.80Q13.05-4.58 13.05-4.20L13.05-4.20L13.05-0.74Q13.05-0.39 12.80-0.17Q12.55 0.06 12.15 0.06L12.15 0.06Q11.79 0.06 11.56-0.14Q11.33-0.33 11.32-0.66L11.32-0.66Q11.09-0.30 10.73-0.11Q10.38 0.08 9.92 0.08L9.92 0.08Q8.97 0.08 8.51-0.45Q8.05-0.97 8.05-2.04L8.05-2.04L8.05-4.20Q8.05-4.58 8.29-4.80Q8.53-5.02 8.94-5.02L8.94-5.02Q9.35-5.02 9.59-4.80Q9.83-4.58 9.83-4.20L9.83-4.20L9.83-2Q9.83-1.28 10.45-1.28L10.45-1.28Q10.81-1.28 11.04-1.54Q11.27-1.80 11.27-2.22L11.27-2.22L11.27-4.20Q11.27-4.58 11.51-4.80Q11.75-5.02 12.16-5.02L12.16-5.02ZM17.40-5.04Q18.28-5.04 18.71-4.51Q19.14-3.99 19.14-2.92L19.14-2.92L19.14-0.76Q19.14-0.38 18.90-0.16Q18.66 0.06 18.25 0.06L18.25 0.06Q17.84 0.06 17.60-0.16Q17.36-0.38 17.36-0.76L17.36-0.76L17.36-2.84Q17.36-3.28 17.21-3.48Q17.05-3.68 16.74-3.68L16.74-3.68Q16.34-3.68 16.11-3.43Q15.87-3.17 15.87-2.74L15.87-2.74L15.87-0.76Q15.87-0.38 15.63-0.16Q15.39 0.06 14.98 0.06L14.98 0.06Q14.57 0.06 14.33-0.16Q14.09-0.38 14.09-0.76L14.09-0.76L14.09-4.22Q14.09-4.57 14.34-4.79Q14.59-5.02 14.99-5.02L14.99-5.02Q15.37-5.02 15.60-4.81Q15.82-4.60 15.82-4.26L15.82-4.26Q16.08-4.64 16.49-4.84Q16.90-5.04 17.40-5.04L17.40-5.04ZM21.03 0.06Q20.65 0.06 20.39-0.14Q20.14-0.35 20.14-0.76L20.14-0.76L20.14-4.20Q20.14-4.61 20.39-4.82Q20.65-5.02 21.03-5.02L21.03-5.02Q21.41-5.02 21.66-4.82Q21.92-4.61 21.92-4.20L21.92-4.20L21.92-0.76Q21.92-0.35 21.66-0.14Q21.41 0.06 21.03 0.06L21.03 0.06ZM21.03-5.72Q20.58-5.72 20.32-5.96Q20.05-6.19 20.05-6.58L20.05-6.58Q20.05-6.97 20.32-7.20Q20.58-7.43 21.03-7.43L21.03-7.43Q21.47-7.43 21.74-7.20Q22.01-6.97 22.01-6.58L22.01-6.58Q22.01-6.19 21.75-5.96Q21.48-5.72 21.03-5.72L21.03-5.72ZM25.86-1.21Q26.53-1.17 26.53-0.61L26.53-0.61Q26.53-0.26 26.26-0.09Q25.99 0.08 25.49 0.05L25.49 0.05L25.21 0.03Q24.31-0.04 23.84-0.52Q23.38-0.99 23.38-1.84L23.38-1.84L23.38-3.61L23.09-3.61Q22.29-3.61 22.29-4.27L22.29-4.27Q22.29-4.92 23.09-4.92L23.09-4.92L23.38-4.92L23.38-5.57Q23.38-5.95 23.62-6.17Q23.86-6.40 24.27-6.40L24.27-6.40Q24.68-6.40 24.92-6.17Q25.16-5.95 25.16-5.57L25.16-5.57L25.16-4.92L25.71-4.92Q26.51-4.92 26.51-4.27L26.51-4.27Q26.51-3.61 25.71-3.61L25.71-3.61L25.16-3.61L25.16-1.69Q25.16-1.50 25.27-1.37Q25.39-1.24 25.57-1.23L25.57-1.23L25.86-1.21ZM29.48 0.08Q28.67 0.08 28.05-0.24Q27.44-0.55 27.11-1.13Q26.77-1.71 26.77-2.49L26.77-2.49Q26.77-3.27 27.11-3.85Q27.44-4.42 28.05-4.73Q28.66-5.04 29.48-5.04L29.48-5.04Q30.30-5.04 30.91-4.73Q31.52-4.42 31.86-3.85Q32.19-3.27 32.19-2.49L32.19-2.49Q32.19-1.71 31.86-1.13Q31.52-0.55 30.91-0.24Q30.30 0.08 29.48 0.08L29.48 0.08ZM29.48-1.25Q30.43-1.25 30.43-2.49L30.43-2.49Q30.43-3.73 29.48-3.73L29.48-3.73Q28.53-3.73 28.53-2.49L28.53-2.49Q28.53-1.25 29.48-1.25L29.48-1.25Z"/></svg>