<svg xmlns="http://www.w3.org/2000/svg" viewBox="4.896000000000001 48.663999999999994 552.6000000000001 51.912"><path d="M40.75 89.92L43.99 49.24L49.54 49.24L45.58 100L41.04 100L13.68 59.18L10.44 100L4.90 100L8.86 49.24L13.46 49.24L40.75 89.92ZM83.66 64.94L89.50 64.94L86.76 100L81.07 100L81.50 94.31Q79.70 97.26 76.68 98.88Q73.66 100.50 69.91 100.50L69.91 100.50Q64.08 100.50 61.06 97.44Q58.03 94.38 58.03 88.48L58.03 88.48Q58.03 87.18 58.10 86.54L58.10 86.54L59.83 64.94L65.66 64.94L63.94 86.18Q63.86 86.68 63.86 87.69L63.86 87.69Q63.86 95.61 71.42 95.61L71.42 95.61Q76.10 95.61 78.91 92.73Q81.72 89.85 82.08 84.74L82.08 84.74L83.66 64.94ZM117.58 64.07Q123.48 64.07 126.58 67.17Q129.67 70.26 129.67 76.17L129.67 76.17Q129.67 77.46 129.60 78.11L129.60 78.11L127.87 100L122.04 100L123.77 78.47Q123.84 77.97 123.84 76.96L123.84 76.96Q123.84 68.97 116.14 68.97L116.14 68.97Q111.24 68.97 108.36 71.88Q105.48 74.80 105.05 79.91L105.05 79.91L103.46 100L97.63 100L100.44 64.94L106.13 64.94L105.70 70.34Q107.50 67.38 110.59 65.73Q113.69 64.07 117.58 64.07L117.58 64.07ZM144.36 100L138.53 100L141.34 64.94L147.17 64.94L144.36 100ZM141.34 56.30L141.91 49.74L148.97 49.74L148.46 56.30L141.34 56.30ZM165.38 69.54L164.02 87.33Q163.94 87.83 163.94 88.70L163.94 88.70Q163.94 95.82 171.00 95.82L171.00 95.82Q172.73 95.82 174.17 95.54L174.17 95.54L173.52 100.14Q172.01 100.50 170.14 100.50L170.14 100.50Q164.30 100.50 161.21 97.55Q158.11 94.60 158.11 89.20L158.11 89.20Q158.11 88.19 158.18 87.62L158.18 87.62L159.62 69.54L152.78 69.54L153.07 64.94L159.91 64.94L160.78 54.28L166.61 54.28L165.74 64.94L175.75 64.94L175.39 69.54L165.38 69.54ZM195.26 100.50Q190.37 100.50 186.66 98.42Q182.95 96.33 180.97 92.48Q178.99 88.62 178.99 83.51L178.99 83.51Q178.99 77.68 181.12 73.29Q183.24 68.90 187.09 66.48Q190.94 64.07 196.06 64.07L196.06 64.07Q201.02 64.07 204.70 66.16Q208.37 68.25 210.38 72.14Q212.40 76.02 212.40 81.14L212.40 81.14Q212.40 86.97 210.28 91.36Q208.15 95.75 204.26 98.13Q200.38 100.50 195.26 100.50L195.26 100.50ZM195.34 95.68Q200.59 95.68 203.51 91.72Q206.42 87.76 206.42 80.92L206.42 80.92Q206.42 75.16 203.72 72.03Q201.02 68.90 196.06 68.90L196.06 68.90Q190.80 68.90 187.85 72.93Q184.90 76.96 184.90 83.73L184.90 83.73Q184.90 89.56 187.56 92.62Q190.22 95.68 195.34 95.68L195.34 95.68ZM256.10 100.58Q250.13 100.58 245.38 98.99Q240.62 97.41 236.74 94.17L236.74 94.17L239.33 89.63Q243.22 92.80 247.21 94.20Q251.21 95.61 256.25 95.61L256.25 95.61Q262.44 95.61 265.75 93.30Q269.06 91 269.06 86.82L269.06 86.82Q269.06 84.23 267.44 82.58Q265.82 80.92 263.38 79.95Q260.93 78.98 256.68 77.75L256.68 77.75Q251.35 76.24 248.04 74.80Q244.73 73.36 242.39 70.52Q240.05 67.67 240.05 63.06L240.05 63.06Q240.05 58.74 242.35 55.47Q244.66 52.19 248.94 50.43Q253.22 48.66 258.91 48.66L258.91 48.66Q264.24 48.66 268.88 50.32Q273.53 51.98 276.77 55.07L276.77 55.07L274.10 59.61Q267.34 53.63 258.84 53.63L258.84 53.63Q252.65 53.63 249.34 56.04Q246.02 58.46 246.02 62.78L246.02 62.78Q246.02 65.66 247.75 67.46Q249.48 69.26 252.04 70.30Q254.59 71.34 259.13 72.71L259.13 72.71Q264.31 74.22 267.48 75.59Q270.65 76.96 272.84 79.55Q275.04 82.14 275.04 86.39L275.04 86.39Q275.04 92.94 269.96 96.76Q264.89 100.58 256.10 100.58L256.10 100.58ZM299.52 64.07Q311.98 64.07 311.98 76.02L311.98 76.02Q311.98 77.32 311.90 78.04L311.90 78.04L310.18 100L304.49 100L304.92 94.38Q303.34 97.41 300.56 98.96Q297.79 100.50 294.26 100.50L294.26 100.50Q289.01 100.50 285.66 97.66Q282.31 94.82 282.31 90.42L282.31 90.42Q282.31 86.46 284.40 84.12Q286.49 81.78 291.10 80.70Q295.70 79.62 303.55 79.62L303.55 79.62L306.14 79.62L306.29 77.54L306.36 76.17Q306.36 72.42 304.56 70.66Q302.76 68.90 298.87 68.90L298.87 68.90Q292.97 68.90 286.99 72.64L286.99 72.64L285.41 68.32Q288.07 66.45 291.96 65.26Q295.85 64.07 299.52 64.07L299.52 64.07ZM295.49 95.90Q299.59 95.90 302.47 93.02Q305.35 90.14 305.64 85.60L305.64 85.60L305.78 83.37L303.77 83.37Q297.43 83.37 294.08 84.05Q290.74 84.74 289.48 86.10Q288.22 87.47 288.22 89.92L288.22 89.92Q288.22 92.66 290.16 94.28Q292.10 95.90 295.49 95.90L295.49 95.90ZM340.78 64.07Q346.68 64.07 349.78 67.17Q352.87 70.26 352.87 76.17L352.87 76.17Q352.87 77.46 352.80 78.11L352.80 78.11L351.07 100L345.24 100L346.97 78.47Q347.04 77.97 347.04 76.96L347.04 76.96Q347.04 68.97 339.34 68.97L339.34 68.97Q334.44 68.97 331.56 71.88Q328.68 74.80 328.25 79.91L328.25 79.91L326.66 100L320.83 100L323.64 64.94L329.33 64.94L328.90 70.34Q330.70 67.38 333.79 65.73Q336.89 64.07 340.78 64.07L340.78 64.07ZM374.04 100.50Q370.01 100.50 366.34 99.32Q362.66 98.13 359.86 95.97L359.86 95.97L362.16 91.65Q365.04 93.81 367.92 94.82Q370.80 95.82 374.18 95.82L374.18 95.82Q382.61 95.82 382.61 90.64L382.61 90.64Q382.61 88.26 380.59 87.11Q378.58 85.96 374.26 84.66L374.26 84.66Q370.51 83.58 368.24 82.58Q365.98 81.57 364.36 79.66Q362.74 77.75 362.74 74.58L362.74 74.58Q362.74 69.83 366.55 66.95Q370.37 64.07 376.63 64.07L376.63 64.07Q380.38 64.07 383.72 65.30Q387.07 66.52 389.30 68.68L389.30 68.68L387 72.93Q382.25 68.82 376.63 68.82L376.63 68.82Q372.67 68.82 370.55 70.23Q368.42 71.63 368.42 74.30L368.42 74.30Q368.42 76.67 370.48 77.82Q372.53 78.98 376.70 80.20L376.70 80.20Q380.38 81.28 382.68 82.29Q384.98 83.30 386.60 85.24Q388.22 87.18 388.22 90.35L388.22 90.35Q388.22 95.03 384.34 97.77Q380.45 100.50 374.04 100.50L374.04 100.50ZM420.70 100L414.86 100L417.67 64.94L423.50 64.94L420.70 100ZM417.67 56.30L418.25 49.74L425.30 49.74L424.80 56.30L417.67 56.30ZM441.72 69.54L440.35 87.33Q440.28 87.83 440.28 88.70L440.28 88.70Q440.28 95.82 447.34 95.82L447.34 95.82Q449.06 95.82 450.50 95.54L450.50 95.54L449.86 100.14Q448.34 100.50 446.47 100.50L446.47 100.50Q440.64 100.50 437.54 97.55Q434.45 94.60 434.45 89.20L434.45 89.20Q434.45 88.19 434.52 87.62L434.52 87.62L435.96 69.54L429.12 69.54L429.41 64.94L436.25 64.94L437.11 54.28L442.94 54.28L442.08 64.94L452.09 64.94L451.73 69.54L441.72 69.54ZM472.90 64.07Q485.35 64.07 485.35 76.02L485.35 76.02Q485.35 77.32 485.28 78.04L485.28 78.04L483.55 100L477.86 100L478.30 94.38Q476.71 97.41 473.94 98.96Q471.17 100.50 467.64 100.50L467.64 100.50Q462.38 100.50 459.04 97.66Q455.69 94.82 455.69 90.42L455.69 90.42Q455.69 86.46 457.78 84.12Q459.86 81.78 464.47 80.70Q469.08 79.62 476.93 79.62L476.93 79.62L479.52 79.62L479.66 77.54L479.74 76.17Q479.74 72.42 477.94 70.66Q476.14 68.90 472.25 68.90L472.25 68.90Q466.34 68.90 460.37 72.64L460.37 72.64L458.78 68.32Q461.45 66.45 465.34 65.26Q469.22 64.07 472.90 64.07L472.90 64.07ZM468.86 95.90Q472.97 95.90 475.85 93.02Q478.73 90.14 479.02 85.60L479.02 85.60L479.16 83.37L477.14 83.37Q470.81 83.37 467.46 84.05Q464.11 84.74 462.85 86.10Q461.59 87.47 461.59 89.92L461.59 89.92Q461.59 92.66 463.54 94.28Q465.48 95.90 468.86 95.90L468.86 95.90ZM500.04 100L494.21 100L498.24 49.24L504.07 49.24L500.04 100ZM516.74 100L510.91 100L513.72 64.94L519.55 64.94L516.74 100ZM513.72 56.30L514.30 49.74L521.35 49.74L520.85 56.30L513.72 56.30ZM543.17 100.50Q538.27 100.50 534.56 98.42Q530.86 96.33 528.88 92.48Q526.90 88.62 526.90 83.58L526.90 83.58Q526.90 77.68 529.06 73.29Q531.22 68.90 535.25 66.48Q539.28 64.07 544.75 64.07L544.75 64.07Q548.57 64.07 551.84 65.30Q555.12 66.52 557.50 68.68L557.50 68.68L555.26 73Q552.60 70.91 550.08 69.94Q547.56 68.97 544.75 68.97L544.75 68.97Q539.14 68.97 536.04 72.86Q532.94 76.74 532.94 83.66L532.94 83.66Q532.94 89.34 535.75 92.51Q538.56 95.68 543.67 95.68L543.67 95.68Q546.41 95.68 548.78 94.71Q551.16 93.74 553.75 91.65L553.75 91.65L555.41 95.97Q553.10 98.13 549.90 99.32Q546.70 100.50 543.17 100.50L543.17 100.50Z"/></svg>