<svg xmlns="http://www.w3.org/2000/svg" viewBox="5.904000000000001 48.80799999999999 541.8000000000001 51.69600000000001"><path d="M44 49Q46 49 47 50Q48 51 48 53L48 53L48 97Q48 98 47 99Q46 100 44 100L44 100Q42 100 41 99L41 99L13 62L13 97Q13 98 12 99Q11 100 9 100L9 100Q8 100 7 99Q6 98 6 97L6 97L6 53Q6 51 7 50Q8 49 10 49L10 49Q11 49 12 50L12 50L41 88L41 53Q41 51 42 50Q42 49 44 49L44 49ZM86 64Q87 64 88 65Q89 66 89 68L89 68L89 97Q89 98 88 99Q87 100 86 100L86 100Q84 100 83 99Q82 99 82 97L82 97L82 94Q81 97 78 99Q75 101 71 101L71 101Q58 101 58 86L58 86L58 68Q58 66 59 65Q60 64 62 64L62 64Q64 64 65 65Q66 66 66 68L66 68L66 86Q66 91 67 93Q69 95 73 95L73 95Q77 95 80 92Q82 89 82 85L82 85L82 68Q82 66 83 65Q84 64 86 64L86 64ZM118 64Q131 64 131 78L131 78L131 97Q131 99 130 99Q129 100 127 100L127 100Q126 100 125 99Q124 98 124 97L124 97L124 79Q124 74 122 72Q120 70 116 70L116 70Q112 70 109 73Q107 75 107 80L107 80L107 97Q107 98 106 99Q105 100 103 100L103 100Q102 100 101 99Q100 98 100 97L100 97L100 68Q100 66 101 65Q102 64 103 64L103 64Q105 64 106 65Q107 66 107 68L107 68L107 70Q108 67 111 66Q115 64 118 64L118 64ZM145 100Q143 100 142 99Q141 99 141 97L141 97L141 68Q141 66 142 65Q143 64 145 64L145 64Q146 64 147 65Q148 66 148 68L148 68L148 97Q148 99 147 99Q146 100 145 100L145 100ZM145 57Q143 57 141 56Q140 55 140 53L140 53Q140 51 141 50Q143 49 145 49L145 49Q147 49 148 50Q149 51 149 53L149 53Q149 55 148 56Q147 57 145 57L145 57ZM176 95Q177 95 178 96Q179 96 179 98L179 98Q179 99 177 100Q176 101 174 100L174 100L172 100Q166 100 164 97Q161 94 161 87L161 87L161 70L156 70Q153 70 153 68L153 68Q153 66 154 66Q155 65 156 65L156 65L161 65L161 57Q161 56 162 55Q163 54 164 54L164 54Q166 54 167 55Q168 56 168 57L168 57L168 65L175 65Q177 65 177 66Q178 66 178 68L178 68Q178 69 177 70Q177 70 175 70L175 70L168 70L168 88Q168 91 169 93Q171 94 174 95L174 95L176 95ZM199 101Q194 101 190 98Q186 96 184 92Q182 88 182 82L182 82Q182 77 184 73Q186 68 190 66Q194 64 199 64L199 64Q204 64 208 66Q212 68 214 73Q216 77 216 82L216 82Q216 88 214 92Q212 96 208 98Q204 101 199 101L199 101ZM199 95Q204 95 206 92Q209 88 209 82L209 82Q209 76 206 73Q204 70 199 70L199 70Q194 70 192 73Q189 76 189 82L189 82Q189 88 192 92Q194 95 199 95L199 95ZM256 101Q248 101 244 97L244 97Q242 97 242 96Q241 95 241 94L241 94Q241 93 242 92Q243 91 244 91L244 91Q245 91 247 92L247 92Q249 93 251 94Q253 95 256 95L256 95Q259 95 261 94Q263 92 263 90L263 90Q263 89 262 88Q262 87 260 86Q258 86 254 85L254 85Q248 84 245 81Q242 79 242 75L242 75Q242 72 244 69Q246 67 249 65Q252 64 256 64L256 64Q259 64 262 65Q265 66 267 67L267 67Q269 69 269 71L269 71Q269 72 269 73Q268 73 267 73L267 73Q266 73 266 73Q265 73 264 72L264 72Q262 71 260 70Q259 70 256 70L256 70Q253 70 251 71Q249 72 249 75L249 75Q249 77 251 78Q253 79 257 80L257 80Q262 81 265 82Q268 83 269 85Q270 87 270 90L270 90Q270 95 266 98Q262 101 256 101L256 101ZM306 91Q307 91 307 92Q308 93 308 94L308 94Q308 96 305 97L305 97Q303 99 300 100Q297 101 294 101L294 101Q286 101 281 96Q276 91 276 82L276 82Q276 77 278 73Q280 69 284 66Q288 64 293 64L293 64Q300 64 304 69Q308 73 308 81L308 81Q308 84 306 84L306 84L283 84Q284 95 294 95L294 95Q297 95 299 94Q301 93 303 92L303 92Q303 92 304 92Q305 91 306 91L306 91ZM293 69Q289 69 286 72Q284 75 283 79L283 79L302 79Q302 75 299 72Q297 69 293 69L293 69ZM357 64Q368 64 368 78L368 78L368 97Q368 99 367 99Q366 100 365 100L365 100Q363 100 362 99Q361 99 361 97L361 97L361 78Q361 74 359 72Q358 70 355 70L355 70Q351 70 348 73Q346 75 346 80L346 80L346 97Q346 99 345 99Q344 100 342 100L342 100Q341 100 340 99Q339 99 339 97L339 97L339 78Q339 74 337 72Q336 70 332 70L332 70Q328 70 326 73Q323 75 323 80L323 80L323 97Q323 99 322 99Q321 100 320 100L320 100Q318 100 317 99Q316 99 316 97L316 97L316 68Q316 66 317 65Q318 64 320 64L320 64Q321 64 322 65Q323 66 323 68L323 68L323 70Q325 67 328 66Q331 64 334 64L334 64Q338 64 341 66Q344 67 345 71L345 71Q346 68 349 66Q353 64 357 64L357 64ZM382 100Q380 100 379 99Q378 99 378 97L378 97L378 68Q378 66 379 65Q380 64 382 64L382 64Q384 64 385 65Q386 66 386 68L386 68L386 97Q386 99 385 99Q384 100 382 100L382 100ZM382 57Q380 57 379 56Q377 55 377 53L377 53Q377 51 379 50Q380 49 382 49L382 49Q384 49 385 50Q386 51 386 53L386 53Q386 55 385 56Q384 57 382 57L382 57ZM434 64Q438 64 442 66Q445 68 447 73Q449 77 449 82L449 82Q449 88 447 92Q445 96 442 98Q438 101 434 101L434 101Q430 101 427 99Q424 97 422 94L422 94L422 97Q422 98 421 99Q420 100 418 100L418 100Q417 100 416 99Q415 98 415 97L415 97L415 52Q415 51 416 50Q417 49 418 49L418 49Q420 49 421 50Q422 51 422 52L422 52L422 71Q424 67 427 66Q430 64 434 64L434 64ZM432 95Q437 95 439 91Q442 88 442 82L442 82Q442 76 439 73Q437 70 432 70L432 70Q427 70 425 73Q422 76 422 82L422 82Q422 88 425 92Q427 95 432 95L432 95ZM473 101Q467 101 463 98Q460 96 457 92Q455 88 455 82L455 82Q455 77 457 73Q460 68 463 66Q467 64 473 64L473 64Q478 64 482 66Q486 68 488 73Q490 77 490 82L490 82Q490 88 488 92Q486 96 482 98Q478 101 473 101L473 101ZM473 95Q477 95 480 92Q482 88 482 82L482 82Q482 76 480 73Q477 70 473 70L473 70Q468 70 465 73Q463 76 463 82L463 82Q463 88 465 92Q468 95 473 95L473 95ZM502 100Q500 100 499 99Q498 99 498 97L498 97L498 52Q498 51 499 50Q500 49 502 49L502 49Q503 49 504 50Q505 51 505 52L505 52L505 97Q505 99 504 99Q503 100 502 100L502 100ZM544 49Q546 49 547 50Q548 51 548 52L548 52L548 97Q548 98 547 99Q546 100 544 100L544 100Q542 100 541 99Q541 98 541 97L541 97L541 94Q539 97 536 99Q533 101 529 101L529 101Q524 101 521 98Q517 96 515 92Q513 88 513 82L513 82Q513 77 515 73Q517 68 521 66Q524 64 529 64L529 64Q533 64 536 66Q539 67 540 70L540 70L540 52Q540 51 541 50Q542 49 544 49L544 49ZM531 95Q535 95 538 92Q541 88 541 82L541 82Q541 76 538 73Q535 70 531 70L531 70Q526 70 523 73Q521 76 521 82L521 82Q521 88 523 91Q526 95 531 95L531 95Z"/></svg>