<svg xmlns="http://www.w3.org/2000/svg" viewBox="5.040000000000001 47.65599999999999 554.9760000000001 52.992000000000004"><path d="M38.59 81.42L38.59 49.24L49.10 49.24L49.10 100L40.75 100L15.48 67.67L15.48 100L5.04 100L5.04 49.24L13.32 49.24L38.59 81.42ZM81.50 64.65L92.38 64.65L92.38 100L81.79 100L81.79 94.96Q80.14 97.70 77.44 99.14Q74.74 100.58 71.35 100.58L71.35 100.58Q64.66 100.58 61.38 96.87Q58.10 93.16 58.10 85.67L58.10 85.67L58.10 64.65L68.98 64.65L68.98 85.89Q68.98 89.06 70.31 90.57Q71.64 92.08 74.38 92.08L74.38 92.08Q77.54 92.08 79.52 89.92Q81.50 87.76 81.50 84.23L81.50 84.23L81.50 64.65ZM122.90 63.78Q129.24 63.78 132.34 67.49Q135.43 71.20 135.43 78.69L135.43 78.69L135.43 100L124.56 100L124.56 79.19Q124.56 75.59 123.23 73.94Q121.90 72.28 119.09 72.28L119.09 72.28Q115.70 72.28 113.65 74.44Q111.60 76.60 111.60 80.20L111.60 80.20L111.60 100L100.73 100L100.73 64.65L111.31 64.65L111.31 69.69Q113.18 66.81 116.17 65.30Q119.16 63.78 122.90 63.78L122.90 63.78ZM154.44 100L143.57 100L143.57 64.65L154.44 64.65L154.44 100ZM143.21 57.81L143.21 47.66L154.87 47.66L154.87 57.81L143.21 57.81ZM182.38 92.58Q184.03 92.58 185.83 92.37L185.83 92.37L185.26 100.29Q183.17 100.58 181.08 100.58L181.08 100.58Q173.02 100.58 169.31 97.05Q165.60 93.52 165.60 86.32L165.60 86.32L165.60 72.78L158.90 72.78L158.90 64.65L165.60 64.65L165.60 54.28L176.47 54.28L176.47 64.65L185.33 64.65L185.33 72.78L176.47 72.78L176.47 86.25Q176.47 92.58 182.38 92.58L182.38 92.58ZM207.65 100.58Q202.03 100.58 197.78 98.31Q193.54 96.04 191.23 91.90Q188.93 87.76 188.93 82.14L188.93 82.14Q188.93 76.53 191.23 72.39Q193.54 68.25 197.78 66.02Q202.03 63.78 207.65 63.78L207.65 63.78Q213.26 63.78 217.51 66.02Q221.76 68.25 224.06 72.39Q226.37 76.53 226.37 82.14L226.37 82.14Q226.37 87.76 224.06 91.90Q221.76 96.04 217.51 98.31Q213.26 100.58 207.65 100.58L207.65 100.58ZM207.65 92.30Q215.57 92.30 215.57 82.14L215.57 82.14Q215.57 77.03 213.52 74.51Q211.46 71.99 207.65 71.99L207.65 71.99Q199.73 71.99 199.73 82.14L199.73 82.14Q199.73 92.30 207.65 92.30L207.65 92.30ZM271.73 100.65Q265.97 100.65 260.64 99.10Q255.31 97.55 251.78 94.82L251.78 94.82L255.38 86.82Q262.73 91.94 271.87 91.94L271.87 91.94Q276.62 91.94 279.18 90.39Q281.74 88.84 281.74 86.10L281.74 86.10Q281.74 83.66 279.40 82.29Q277.06 80.92 271.08 79.62L271.08 79.62Q264.38 78.26 260.39 76.31Q256.39 74.37 254.56 71.52Q252.72 68.68 252.72 64.50L252.72 64.50Q252.72 59.90 255.28 56.30Q257.83 52.70 262.44 50.64Q267.05 48.59 273.10 48.59L273.10 48.59Q278.50 48.59 283.50 50.18Q288.50 51.76 291.46 54.42L291.46 54.42L287.86 62.42Q280.87 57.30 273.17 57.30L273.17 57.30Q268.78 57.30 266.26 59.00Q263.74 60.69 263.74 63.64L263.74 63.64Q263.74 65.37 264.71 66.48Q265.68 67.60 267.95 68.46Q270.22 69.33 274.39 70.26L274.39 70.26Q284.18 72.42 288.47 75.81Q292.75 79.19 292.75 85.17L292.75 85.17Q292.75 92.37 287.21 96.51Q281.66 100.65 271.73 100.65L271.73 100.65ZM315.65 63.78Q323.57 63.78 327.35 67.53Q331.13 71.27 331.13 79.12L331.13 79.12L331.13 100L320.83 100L320.83 94.74Q319.75 97.48 317.23 99.03Q314.71 100.58 311.33 100.58L311.33 100.58Q307.73 100.58 304.81 99.14Q301.90 97.70 300.20 95.10Q298.51 92.51 298.51 89.34L298.51 89.34Q298.51 85.46 300.49 83.22Q302.47 80.99 306.86 79.98Q311.26 78.98 318.89 78.98L318.89 78.98L320.76 78.98L320.76 77.68Q320.76 74.51 319.39 73.22Q318.02 71.92 314.64 71.92L314.64 71.92Q312.05 71.92 308.88 72.86Q305.71 73.79 302.83 75.45L302.83 75.45L299.95 68.18Q302.98 66.30 307.40 65.04Q311.83 63.78 315.65 63.78L315.65 63.78ZM313.70 93.09Q316.87 93.09 318.82 90.96Q320.76 88.84 320.76 85.46L320.76 85.46L320.76 84.23L319.54 84.23Q313.70 84.23 311.36 85.17Q309.02 86.10 309.02 88.55L309.02 88.55Q309.02 90.50 310.36 91.79Q311.69 93.09 313.70 93.09L313.70 93.09ZM361.44 63.78Q367.78 63.78 370.87 67.49Q373.97 71.20 373.97 78.69L373.97 78.69L373.97 100L363.10 100L363.10 79.19Q363.10 75.59 361.76 73.94Q360.43 72.28 357.62 72.28L357.62 72.28Q354.24 72.28 352.19 74.44Q350.14 76.60 350.14 80.20L350.14 80.20L350.14 100L339.26 100L339.26 64.65L349.85 64.65L349.85 69.69Q351.72 66.81 354.71 65.30Q357.70 63.78 361.44 63.78L361.44 63.78ZM395.71 100.58Q390.82 100.58 386.75 99.46Q382.68 98.34 379.73 96.26L379.73 96.26L382.61 88.77Q385.49 90.71 388.94 91.79Q392.40 92.87 395.93 92.87L395.93 92.87Q398.45 92.87 399.85 92.04Q401.26 91.22 401.26 89.78L401.26 89.78Q401.26 88.48 400.28 87.76Q399.31 87.04 396.65 86.46L396.65 86.46L390.89 85.17Q385.78 84.02 383.36 81.60Q380.95 79.19 380.95 75.02L380.95 75.02Q380.95 71.70 382.86 69.18Q384.77 66.66 388.26 65.22Q391.75 63.78 396.22 63.78L396.22 63.78Q400.03 63.78 403.63 64.94Q407.23 66.09 410.11 68.18L410.11 68.18L407.23 75.38Q401.62 71.49 396.14 71.49L396.14 71.49Q393.62 71.49 392.18 72.35Q390.74 73.22 390.74 74.80L390.74 74.80Q390.74 75.95 391.61 76.60Q392.47 77.25 394.63 77.82L394.63 77.82L400.61 79.19Q406.01 80.42 408.49 82.90Q410.98 85.38 410.98 89.63L410.98 89.63Q410.98 94.74 406.91 97.66Q402.84 100.58 395.71 100.58L395.71 100.58ZM465.05 73.86Q469.44 75.16 471.82 78.36Q474.19 81.57 474.19 86.18L474.19 86.18Q474.19 92.94 469.01 96.76Q463.82 100.58 454.68 100.58L454.68 100.58Q445.54 100.58 440.35 96.76Q435.17 92.94 435.17 86.18L435.17 86.18Q435.17 81.42 437.54 78.26Q439.92 75.09 444.38 73.86L444.38 73.86Q440.64 72.42 438.55 69.40Q436.46 66.38 436.46 62.34L436.46 62.34Q436.46 56.01 441.36 52.30Q446.26 48.59 454.68 48.59L454.68 48.59Q463.18 48.59 468.04 52.26Q472.90 55.94 472.90 62.34L472.90 62.34Q472.90 66.45 470.81 69.54Q468.72 72.64 465.05 73.86L465.05 73.86ZM454.68 57.16Q446.98 57.16 446.98 63.57L446.98 63.57Q446.98 70.05 454.68 70.05L454.68 70.05Q462.38 70.05 462.38 63.57L462.38 63.57Q462.38 57.16 454.68 57.16L454.68 57.16ZM454.68 92.01Q463.75 92.01 463.75 85.31L463.75 85.31Q463.75 78.62 454.68 78.62L454.68 78.62Q445.61 78.62 445.61 85.31L445.61 85.31Q445.61 92.01 454.68 92.01L454.68 92.01ZM497.88 100.65Q488.66 100.65 483.80 93.95Q478.94 87.26 478.94 74.58L478.94 74.58Q478.94 62.06 483.84 55.40Q488.74 48.74 497.88 48.74L497.88 48.74Q507.02 48.74 511.92 55.40Q516.82 62.06 516.82 74.58L516.82 74.58Q516.82 87.26 511.96 93.95Q507.10 100.65 497.88 100.65L497.88 100.65ZM497.88 92.08Q502.06 92.08 503.96 87.90Q505.87 83.73 505.87 74.58L505.87 74.58Q505.87 65.51 503.96 61.41Q502.06 57.30 497.88 57.30L497.88 57.30Q493.70 57.30 491.80 61.41Q489.89 65.51 489.89 74.58L489.89 74.58Q489.89 83.73 491.80 87.90Q493.70 92.08 497.88 92.08L497.88 92.08ZM541.08 100.65Q531.86 100.65 527.00 93.95Q522.14 87.26 522.14 74.58L522.14 74.58Q522.14 62.06 527.04 55.40Q531.94 48.74 541.08 48.74L541.08 48.74Q550.22 48.74 555.12 55.40Q560.02 62.06 560.02 74.58L560.02 74.58Q560.02 87.26 555.16 93.95Q550.30 100.65 541.08 100.65L541.08 100.65ZM541.08 92.08Q545.26 92.08 547.16 87.90Q549.07 83.73 549.07 74.58L549.07 74.58Q549.07 65.51 547.16 61.41Q545.26 57.30 541.08 57.30L541.08 57.30Q536.90 57.30 535.00 61.41Q533.09 65.51 533.09 74.58L533.09 74.58Q533.09 83.73 535.00 87.90Q536.90 92.08 541.08 92.08L541.08 92.08Z"/></svg>