<svg xmlns="http://www.w3.org/2000/svg" viewBox="4.746796875 48.80799999999999 717.6292031250001 51.69600000000001"><path d="M47 49Q48 49 49 50Q50 51 50 53L50 53L46 97Q46 98 45 99Q44 100 43 100L43 100Q41 100 40 99L40 99L15 62L12 97Q12 98 11 99Q10 100 8 100L8 100Q6 100 6 99Q5 98 5 97L5 97L8 53Q8 51 9 50Q10 49 12 49L12 49Q14 49 15 50L15 50L40 87L43 52Q43 51 44 50Q45 49 47 49L47 49ZM87 64Q89 64 90 65Q91 66 91 68L91 68L88 97Q88 99 87 99Q86 100 84 100L84 100Q83 100 82 100Q81 99 81 97L81 97L81 95Q79 97 77 99Q74 101 70 101L70 101Q64 101 61 97Q58 94 58 88L58 88Q58 87 58 86L58 86L60 68Q60 66 61 65Q62 64 63 64L63 64Q65 64 66 65Q67 66 67 68L67 68L65 86L65 87Q65 95 72 95L72 95Q76 95 79 92Q82 89 82 85L82 85L83 68Q83 66 84 65Q86 64 87 64L87 64ZM119 64Q125 64 128 67Q131 70 131 76L131 76Q131 78 131 78L131 78L130 97Q130 99 129 99Q128 100 126 100L126 100Q124 100 123 99Q122 99 123 97L123 97L124 79Q124 78 124 77L124 77Q124 70 117 70L117 70Q113 70 110 73Q107 75 107 80L107 80L106 97Q105 99 104 99Q103 100 102 100L102 100Q100 100 99 99Q98 99 98 97L98 97L101 67Q101 66 102 65Q103 64 105 64L105 64Q106 64 107 65Q108 66 108 67L108 67L108 70Q109 67 113 66Q116 64 119 64L119 64ZM143 100Q142 100 141 99Q140 99 140 97L140 97L142 68Q142 66 143 65Q145 64 146 64L146 64Q148 64 149 65Q150 66 149 68L149 68L147 97Q147 99 146 100Q145 100 143 100L143 100ZM147 57Q145 57 144 56Q142 55 142 53L142 53Q142 51 144 50Q145 49 147 49L147 49Q149 49 150 50Q152 51 152 53L152 53Q152 55 150 56Q149 57 147 57L147 57ZM169 70L168 87Q167 87 167 88L167 88Q167 92 169 93Q170 95 173 95L173 95Q174 95 175 95Q176 95 176 95L176 95Q177 95 178 95Q178 96 178 97L178 97Q178 99 177 100Q175 101 172 101L172 101Q166 101 163 97Q160 94 160 89L160 89Q160 88 160 87L160 87L162 70L157 70Q156 70 155 70Q154 69 154 68L154 68Q154 66 155 66Q156 65 158 65L158 65L162 65L163 57Q163 56 164 55Q165 54 166 54L166 54Q168 54 169 55Q170 56 170 57L170 57L169 65L176 65Q178 65 179 66Q179 66 179 68L179 68Q179 70 176 70L176 70L169 70ZM199 101Q194 101 190 98Q186 96 184 92Q182 89 182 83L182 83Q182 78 184 73Q186 69 190 66Q194 64 199 64L199 64Q205 64 208 66Q212 68 214 72Q216 76 216 81L216 81Q216 87 214 91Q212 96 208 98Q204 101 199 101L199 101ZM199 95Q204 95 206 91Q209 87 209 81L209 81Q209 76 207 73Q204 70 200 70L200 70Q194 70 192 74Q189 77 189 84L189 84Q189 89 192 92Q194 95 199 95L199 95ZM255 101Q251 101 248 100Q245 99 242 97L242 97Q240 96 240 94L240 94Q240 93 241 92Q242 91 243 91L243 91Q244 91 244 92L244 92Q249 95 255 95L255 95Q263 95 263 90L263 90Q263 88 261 87Q259 86 255 85L255 85Q251 84 249 83Q246 82 245 80Q243 78 243 75L243 75Q243 70 247 67Q251 64 258 64L258 64Q261 64 264 65Q267 66 269 68L269 68Q270 69 270 70L270 70Q270 71 270 72Q269 73 268 73L268 73Q267 73 266 72L266 72Q262 70 257 70L257 70Q254 70 252 71Q250 72 250 74L250 74Q250 76 252 78Q254 79 258 80L258 80Q262 81 264 82Q266 83 268 85Q269 87 269 90L269 90Q269 95 265 98Q262 101 255 101L255 101ZM309 81Q309 82 308 83Q307 84 306 84L306 84L283 84Q283 89 286 92Q289 95 294 95L294 95Q299 95 303 92L303 92Q304 91 305 91L305 91Q306 91 306 92Q307 93 307 94L307 94Q307 96 306 97L306 97Q304 98 300 99Q297 101 293 101L293 101Q288 101 284 98Q280 96 278 92Q276 89 276 83L276 83Q276 78 278 73Q281 69 284 66Q288 64 294 64L294 64Q301 64 305 68Q309 73 309 81L309 81ZM294 69Q290 69 287 72Q284 75 284 79L284 79L302 79Q302 75 300 72Q298 69 294 69L294 69ZM358 64Q363 64 366 67Q369 70 369 76L369 76Q369 78 369 78L369 78L367 97Q367 99 366 100Q365 100 363 100L363 100Q362 100 361 99Q360 99 360 97L360 97L361 79Q361 78 361 77L361 77Q361 70 355 70L355 70Q351 70 349 73Q347 75 346 80L346 80L345 97Q345 99 344 100Q343 100 341 100L341 100Q339 100 338 99Q337 99 338 97L338 97L339 79Q339 78 339 77L339 77Q339 73 338 72Q336 70 333 70L333 70Q329 70 326 73Q324 75 324 80L324 80L322 97Q322 99 321 100Q320 100 318 100L318 100Q317 100 316 99Q315 99 315 97L315 97L317 67Q318 66 319 65Q320 64 321 64L321 64Q323 64 324 65Q325 66 325 67L325 67L324 70Q328 64 335 64L335 64Q339 64 342 66Q344 67 346 70L346 70Q347 67 351 66Q354 64 358 64L358 64ZM381 100Q379 100 378 99Q377 99 377 97L377 97L380 68Q380 66 381 65Q382 64 383 64L383 64Q385 64 386 65Q387 66 387 68L387 68L384 97Q384 99 383 100Q382 100 381 100L381 100ZM384 57Q382 57 381 56Q380 55 380 53L380 53Q380 51 381 50Q382 49 384 49L384 49Q386 49 388 50Q389 51 389 53L389 53Q389 55 388 56Q386 57 384 57L384 57ZM434 64Q439 64 442 66Q446 68 447 72Q449 76 449 81L449 81Q449 87 447 91Q445 96 441 98Q438 101 433 101L433 101Q429 101 426 99Q423 97 421 94L421 94L421 97Q421 99 420 99Q419 100 417 100L417 100Q415 100 414 99Q413 99 414 97L414 97L417 52Q417 51 418 50Q420 49 421 49L421 49Q423 49 424 50Q425 51 424 52L424 52L423 70Q425 67 428 66Q431 64 434 64L434 64ZM432 95Q436 95 439 91Q442 88 442 81L442 81Q442 76 439 73Q437 70 432 70L432 70Q427 70 425 73Q422 77 422 83L422 83Q422 89 424 92Q427 95 432 95L432 95ZM472 101Q467 101 463 98Q459 96 457 92Q455 89 455 83L455 83Q455 78 457 73Q460 69 464 66Q468 64 473 64L473 64Q478 64 482 66Q486 68 488 72Q490 76 490 81L490 81Q490 87 488 91Q485 96 482 98Q478 101 472 101L472 101ZM472 95Q477 95 480 91Q483 87 483 81L483 81Q483 76 480 73Q478 70 473 70L473 70Q468 70 465 74Q463 77 463 84L463 84Q463 89 465 92Q468 95 472 95L472 95ZM500 100Q499 100 498 99Q497 99 497 97L497 97L500 52Q500 51 502 50Q503 49 504 49L504 49Q506 49 507 50Q508 51 508 52L508 52L504 97Q504 99 503 100Q502 100 500 100L500 100ZM547 49Q548 49 549 50Q550 51 550 52L550 52L547 97Q546 99 545 99Q544 100 543 100L543 100Q541 100 540 99Q539 99 539 97L539 97L540 95Q538 97 535 99Q532 101 528 101L528 101Q524 101 520 98Q517 96 515 93Q513 89 513 84L513 84Q513 78 515 73Q517 69 521 66Q525 64 530 64L530 64Q534 64 537 66Q540 67 541 70L541 70L543 52Q543 51 544 50Q545 49 547 49L547 49ZM530 95Q535 95 538 91Q541 87 541 81L541 81Q541 76 538 73Q536 70 531 70L531 70Q526 70 523 73Q521 77 521 83L521 83Q521 89 523 92Q526 95 530 95L530 95ZM579 100Q578 100 577 99Q576 99 576 97L576 97L578 68Q578 66 579 65Q580 64 582 64L582 64Q584 64 584 65Q585 66 585 68L585 68L583 97Q583 99 582 100Q581 100 579 100L579 100ZM583 57Q581 57 580 56Q578 55 578 53L578 53Q578 51 580 50Q581 49 583 49L583 49Q585 49 586 50Q587 51 587 53L587 53Q587 55 586 56Q585 57 583 57L583 57ZM605 70L603 87Q603 87 603 88L603 88Q603 92 605 93Q606 95 609 95L609 95Q610 95 611 95Q612 95 612 95L612 95Q613 95 613 95Q614 96 614 97L614 97Q614 99 613 100Q611 101 608 101L608 101Q602 101 599 97Q596 94 596 89L596 89Q596 88 596 87L596 87L597 70L593 70Q592 70 591 70Q590 69 590 68L590 68Q590 66 591 66Q592 65 594 65L594 65L598 65L598 57Q599 56 600 55Q601 54 602 54L602 54Q604 54 605 55Q606 56 606 57L606 57L605 65L612 65Q614 65 614 66Q615 66 615 68L615 68Q615 70 612 70L612 70L605 70ZM635 64Q649 64 649 76L649 76Q649 78 649 78L649 78L647 97Q647 99 646 99Q645 100 644 100L644 100Q642 100 641 99Q640 98 640 97L640 97L640 94Q639 97 636 99Q634 101 630 101L630 101Q625 101 621 98Q618 95 618 90L618 90Q618 86 620 84Q622 82 627 81Q631 79 639 79L639 79L642 79L642 78Q642 74 640 72Q638 70 635 70L635 70Q630 70 624 73L624 73Q623 73 623 73L623 73Q622 73 621 72Q620 72 620 71L620 71Q620 69 622 68L622 68Q625 66 628 65Q632 64 635 64L635 64ZM632 95Q635 95 638 92Q641 90 641 86L641 86L641 84L639 84Q634 84 631 84Q628 85 626 86Q625 87 625 90L625 90Q625 92 627 94Q629 95 632 95L632 95ZM660 100Q659 100 658 99Q657 99 657 97L657 97L661 52Q661 51 662 50Q663 49 665 49L665 49Q666 49 667 50Q668 51 668 52L668 52L664 97Q664 99 663 100Q662 100 660 100L660 100ZM678 100Q676 100 675 99Q674 99 674 97L674 97L677 68Q677 66 678 65Q679 64 681 64L681 64Q682 64 683 65Q684 66 684 68L684 68L682 97Q682 99 681 100Q679 100 678 100L678 100ZM682 57Q680 57 678 56Q677 55 677 53L677 53Q677 51 678 50Q680 49 682 49L682 49Q684 49 685 50Q686 51 686 53L686 53Q686 55 685 56Q684 57 682 57L682 57ZM708 101Q703 101 699 98Q695 96 693 92Q691 89 691 84L691 84Q691 78 693 73Q696 69 700 66Q704 64 709 64L709 64Q713 64 716 65Q719 66 721 67L721 67Q722 68 722 70L722 70Q722 71 722 72Q721 73 720 73L720 73Q719 73 718 73L718 73Q714 70 710 70L710 70Q704 70 701 73Q699 77 699 84L699 84Q699 89 701 92Q704 95 709 95L709 95Q711 95 713 94Q715 93 717 92L717 92Q718 91 718 91L718 91Q719 91 720 92Q721 93 721 94L721 94Q721 96 719 97L719 97Q717 98 714 99Q711 101 708 101L708 101Z"/></svg>