<svg xmlns="http://www.w3.org/2000/svg" viewBox="0.8200000000000001 -7.11 29.230000000000004 7.180000000000001"><path d="M6.12-7.10Q6.34-7.10 6.48-6.96Q6.61-6.81 6.61-6.58L6.61-6.58L6.61-0.47Q6.61-0.24 6.47-0.10Q6.33 0.05 6.11 0.05L6.11 0.05Q5.85 0.05 5.71-0.15L5.71-0.15L1.79-5.32L1.79-0.47Q1.79-0.24 1.66-0.10Q1.52 0.05 1.30 0.05L1.30 0.05Q1.08 0.05 0.95-0.09Q0.82-0.23 0.82-0.47L0.82-0.47L0.82-6.58Q0.82-6.81 0.96-6.96Q1.10-7.10 1.32-7.10L1.32-7.10Q1.58-7.10 1.72-6.90L1.72-6.90L5.64-1.72L5.64-6.58Q5.64-6.81 5.77-6.96Q5.90-7.10 6.12-7.10L6.12-7.10ZM11.91-4.98Q12.14-4.98 12.27-4.85Q12.41-4.72 12.41-4.49L12.41-4.49L12.41-0.42Q12.41-0.21 12.27-0.08Q12.13 0.05 11.90 0.05L11.90 0.05Q11.69 0.05 11.56-0.07Q11.43-0.20 11.43-0.41L11.43-0.41L11.43-0.79Q11.20-0.37 10.79-0.15Q10.39 0.07 9.89 0.07L9.89 0.07Q8.11 0.07 8.11-1.89L8.11-1.89L8.11-4.49Q8.11-4.72 8.24-4.85Q8.38-4.98 8.62-4.98L8.62-4.98Q8.85-4.98 8.98-4.85Q9.12-4.72 9.12-4.49L9.12-4.49L9.12-1.90Q9.12-1.31 9.36-1.03Q9.60-0.75 10.10-0.75L10.10-0.75Q10.69-0.75 11.04-1.13Q11.40-1.51 11.40-2.14L11.40-2.14L11.40-4.49Q11.40-4.71 11.54-4.84Q11.68-4.98 11.91-4.98L11.91-4.98ZM16.45-5Q18.20-5 18.20-3.03L18.20-3.03L18.20-0.43Q18.20-0.20 18.07-0.07Q17.93 0.05 17.69 0.05L17.69 0.05Q17.46 0.05 17.33-0.08Q17.19-0.21 17.19-0.43L17.19-0.43L17.19-2.98Q17.19-3.60 16.95-3.89Q16.70-4.18 16.18-4.18L16.18-4.18Q15.57-4.18 15.20-3.80Q14.83-3.42 14.83-2.78L14.83-2.78L14.83-0.43Q14.83-0.21 14.70-0.08Q14.56 0.05 14.33 0.05L14.33 0.05Q14.10 0.05 13.96-0.08Q13.82-0.21 13.82-0.43L13.82-0.43L13.82-4.50Q13.82-4.71 13.97-4.84Q14.11-4.98 14.33-4.98L14.33-4.98Q14.55-4.98 14.68-4.85Q14.81-4.72 14.81-4.51L14.81-4.51L14.81-4.10Q15.05-4.54 15.48-4.77Q15.91-5 16.45-5L16.45-5ZM20.09 0.05Q19.87 0.05 19.73-0.07Q19.58-0.19 19.58-0.43L19.58-0.43L19.58-4.49Q19.58-4.73 19.73-4.86Q19.87-4.98 20.09-4.98L20.09-4.98Q20.31-4.98 20.45-4.86Q20.59-4.73 20.59-4.49L20.59-4.49L20.59-0.43Q20.59-0.19 20.45-0.07Q20.31 0.05 20.09 0.05L20.09 0.05ZM20.09-5.96Q19.80-5.96 19.63-6.12Q19.46-6.28 19.46-6.54L19.46-6.54Q19.46-6.80 19.63-6.96Q19.80-7.11 20.09-7.11L20.09-7.11Q20.37-7.11 20.55-6.96Q20.72-6.80 20.72-6.54L20.72-6.54Q20.72-6.28 20.55-6.12Q20.38-5.96 20.09-5.96L20.09-5.96ZM24.39-0.72Q24.61-0.70 24.71-0.60Q24.80-0.51 24.80-0.34L24.80-0.34Q24.80-0.14 24.65-0.04Q24.49 0.07 24.19 0.05L24.19 0.05L23.92 0.03Q23.11-0.03 22.71-0.47Q22.31-0.90 22.31-1.75L22.31-1.75L22.31-4.10L21.71-4.10Q21.27-4.10 21.27-4.49L21.27-4.49Q21.27-4.67 21.39-4.78Q21.50-4.88 21.71-4.88L21.71-4.88L22.31-4.88L22.31-5.91Q22.31-6.14 22.45-6.27Q22.58-6.40 22.81-6.40L22.81-6.40Q23.04-6.40 23.18-6.27Q23.32-6.14 23.32-5.91L23.32-5.91L23.32-4.88L24.31-4.88Q24.52-4.88 24.64-4.78Q24.75-4.67 24.75-4.49L24.75-4.49Q24.75-4.30 24.64-4.20Q24.52-4.10 24.31-4.10L24.31-4.10L23.32-4.10L23.32-1.68Q23.32-1.21 23.52-0.99Q23.71-0.77 24.11-0.74L24.11-0.74L24.39-0.72ZM27.65 0.07Q26.93 0.07 26.39-0.24Q25.84-0.55 25.55-1.13Q25.25-1.70 25.25-2.46L25.25-2.46Q25.25-3.23 25.55-3.81Q25.84-4.38 26.39-4.69Q26.93-5 27.65-5L27.65-5Q28.37-5 28.92-4.69Q29.46-4.38 29.76-3.81Q30.05-3.23 30.05-2.46L30.05-2.46Q30.05-1.70 29.76-1.13Q29.46-0.55 28.92-0.24Q28.37 0.07 27.65 0.07L27.65 0.07ZM27.65-0.73Q28.32-0.73 28.68-1.17Q29.03-1.61 29.03-2.46L29.03-2.46Q29.03-3.30 28.67-3.75Q28.31-4.19 27.65-4.19L27.65-4.19Q26.99-4.19 26.63-3.75Q26.27-3.30 26.27-2.46L26.27-2.46Q26.27-1.61 26.63-1.17Q26.98-0.73 27.65-0.73L27.65-0.73Z"/></svg>