<svg xmlns="http://www.w3.org/2000/svg" viewBox="5.5440000000000005 48.663999999999994 506.5200000000001 51.912"><path d="M46.94 48.88Q47.52 48.88 47.95 49.35Q48.38 49.82 48.38 50.46L48.38 50.46L44.57 98.92Q44.42 100.36 43.27 100.36L43.27 100.36Q42.55 100.36 42.23 100.07Q41.90 99.78 41.54 99.28L41.54 99.28L11.95 54.14L8.42 99.06Q8.35 100.36 6.98 100.36L6.98 100.36Q6.41 100.36 5.98 99.89Q5.54 99.42 5.54 98.78L5.54 98.78L9.36 50.39Q9.43 48.88 10.87 48.88L10.87 48.88Q11.81 48.88 12.46 49.96L12.46 49.96L41.90 94.82L45.50 50.18Q45.58 48.88 46.94 48.88L46.94 48.88ZM85.75 64.43Q87.26 64.43 87.19 66.02L87.19 66.02L84.53 98.92Q84.46 99.64 83.95 100Q83.45 100.36 82.87 100.36L82.87 100.36Q81.50 100.36 81.58 98.92L81.58 98.92L82.01 93.52Q80.28 96.90 77.15 98.70Q74.02 100.50 70.13 100.50L70.13 100.50Q64.37 100.50 61.31 97.59Q58.25 94.67 58.25 88.91L58.25 88.91Q58.25 87.69 58.32 87.04L58.32 87.04L59.90 66.02Q60.05 64.43 61.56 64.43L61.56 64.43Q63.07 64.43 62.93 66.02L62.93 66.02L61.34 86.82Q61.27 87.40 61.27 88.55L61.27 88.55Q61.27 97.55 69.98 97.55L69.98 97.55Q75.46 97.55 78.80 94.24Q82.15 90.93 82.58 85.02L82.58 85.02L84.17 66.02Q84.24 64.43 85.75 64.43L85.75 64.43ZM114.12 64.29Q120.02 64.29 123.12 67.20Q126.22 70.12 126.22 75.81L126.22 75.81Q126.22 77.03 126.14 77.68L126.14 77.68L124.56 98.70Q124.49 99.57 123.98 99.96Q123.48 100.36 122.90 100.36L122.90 100.36Q122.26 100.36 121.86 99.96Q121.46 99.57 121.54 98.70L121.54 98.70L123.12 77.97Q123.19 77.32 123.19 76.10L123.19 76.10Q123.19 67.17 114.26 67.17L114.26 67.17Q108.58 67.17 105.16 70.52Q101.74 73.86 101.30 79.70L101.30 79.70L99.72 98.70Q99.65 99.57 99.18 99.96Q98.71 100.36 98.14 100.36L98.14 100.36Q97.49 100.36 97.06 99.96Q96.62 99.57 96.70 98.70L96.70 98.70L99.36 65.80Q99.43 65.08 99.94 64.76Q100.44 64.43 101.02 64.43L101.02 64.43Q102.38 64.43 102.38 65.87L102.38 65.87L101.88 71.20Q103.68 67.89 106.85 66.09Q110.02 64.29 114.12 64.29L114.12 64.29ZM137.95 100.36Q136.44 100.36 136.51 98.70L136.51 98.70L139.18 65.80Q139.25 65.08 139.72 64.76Q140.18 64.43 140.83 64.43L140.83 64.43Q142.27 64.43 142.20 65.80L142.20 65.80L139.54 98.70Q139.46 100.36 137.95 100.36L137.95 100.36ZM141.77 55.79Q140.69 55.79 139.90 55.07Q139.10 54.35 139.10 53.20L139.10 53.20Q139.10 51.98 139.86 51.26Q140.62 50.54 141.77 50.54L141.77 50.54Q142.92 50.54 143.68 51.26Q144.43 51.98 144.43 53.20L144.43 53.20Q144.43 54.35 143.64 55.07Q142.85 55.79 141.77 55.79L141.77 55.79ZM168.48 65.15Q168.98 65.15 169.31 65.51Q169.63 65.87 169.63 66.45L169.63 66.45Q169.63 67.02 169.31 67.38Q168.98 67.74 168.55 67.74L168.55 67.74L158.76 67.74L157.18 88.05Q157.10 88.62 157.10 89.63L157.10 89.63Q157.10 93.45 158.94 95.54Q160.78 97.62 164.02 97.62L164.02 97.62Q165.17 97.62 165.96 97.52Q166.75 97.41 167.11 97.41L167.11 97.41Q168.26 97.41 168.26 98.92L168.26 98.92Q168.26 99.71 167.33 100.07Q166.39 100.43 163.87 100.43L163.87 100.43Q159.41 100.43 156.74 97.62Q154.08 94.82 154.08 89.92L154.08 89.92Q154.08 88.98 154.15 88.48L154.15 88.48L155.74 67.74L149.90 67.74Q149.33 67.74 149.00 67.38Q148.68 67.02 148.68 66.38L148.68 66.38Q148.68 65.87 149.00 65.51Q149.33 65.15 149.83 65.15L149.83 65.15L155.95 65.15L156.67 55.50Q156.74 54.93 157.18 54.50Q157.61 54.06 158.26 54.06L158.26 54.06Q158.90 54.06 159.34 54.50Q159.77 54.93 159.70 55.65L159.70 55.65L158.98 65.15L168.48 65.15ZM188.42 100.50Q183.89 100.50 180.50 98.42Q177.12 96.33 175.25 92.55Q173.38 88.77 173.38 83.73L173.38 83.73Q173.38 77.97 175.39 73.58Q177.41 69.18 181.04 66.74Q184.68 64.29 189.50 64.29L189.50 64.29Q196.34 64.29 200.45 68.86Q204.55 73.43 204.55 81.14L204.55 81.14Q204.55 86.90 202.54 91.29Q200.52 95.68 196.85 98.09Q193.18 100.50 188.42 100.50L188.42 100.50ZM188.64 97.55Q194.47 97.55 197.89 93.12Q201.31 88.70 201.31 80.92L201.31 80.92Q201.31 74.44 198.14 70.84Q194.98 67.24 189.36 67.24L189.36 67.24Q183.46 67.24 180.04 71.67Q176.62 76.10 176.62 83.94L176.62 83.94Q176.62 90.50 179.75 94.02Q182.88 97.55 188.64 97.55L188.64 97.55ZM262.15 97.26Q262.80 97.26 263.02 97.59Q263.23 97.91 263.23 98.49L263.23 98.49Q263.23 98.99 262.91 99.50Q262.58 100 261.94 100L261.94 100L232.63 100Q232.06 100 231.66 99.64Q231.26 99.28 231.26 98.70L231.26 98.70Q231.26 97.98 231.84 97.41L231.84 97.41L251.57 77.25Q256.54 72.21 258.52 68.57Q260.50 64.94 260.50 60.90L260.50 60.90Q260.50 56.66 257.80 54.10Q255.10 51.54 250.63 51.54L250.63 51.54Q246.31 51.54 242.71 52.98Q239.11 54.42 235.80 57.30L235.80 57.30Q235.22 57.88 234.58 57.88L234.58 57.88Q234.07 57.88 233.75 57.52Q233.42 57.16 233.42 56.66L233.42 56.66Q233.42 55.72 234.29 54.86L234.29 54.86Q237.24 52.05 241.52 50.36Q245.81 48.66 250.34 48.66L250.34 48.66Q256.39 48.66 259.99 51.94Q263.59 55.22 263.59 60.83L263.59 60.83Q263.59 65.51 261.25 69.87Q258.91 74.22 253.37 79.84L253.37 79.84L235.94 97.26L262.15 97.26ZM290.38 100.58Q282.38 100.58 278.24 94.96Q274.10 89.34 274.10 78.62L274.10 78.62Q274.10 64.36 278.89 56.51Q283.68 48.66 292.32 48.66L292.32 48.66Q300.38 48.66 304.52 54.28Q308.66 59.90 308.66 70.62L308.66 70.62Q308.66 84.88 303.88 92.73Q299.09 100.58 290.38 100.58L290.38 100.58ZM290.52 97.62Q297.86 97.62 301.64 90.60Q305.42 83.58 305.42 69.98L305.42 69.98Q305.42 60.69 302.18 56.15Q298.94 51.62 292.32 51.62L292.32 51.62Q284.98 51.62 281.16 58.60Q277.34 65.58 277.34 79.26L277.34 79.26Q277.34 88.55 280.58 93.09Q283.82 97.62 290.52 97.62L290.52 97.62ZM333.58 100.58Q325.58 100.58 321.44 94.96Q317.30 89.34 317.30 78.62L317.30 78.62Q317.30 64.36 322.09 56.51Q326.88 48.66 335.52 48.66L335.52 48.66Q343.58 48.66 347.72 54.28Q351.86 59.90 351.86 70.62L351.86 70.62Q351.86 84.88 347.08 92.73Q342.29 100.58 333.58 100.58L333.58 100.58ZM333.72 97.62Q341.06 97.62 344.84 90.60Q348.62 83.58 348.62 69.98L348.62 69.98Q348.62 60.69 345.38 56.15Q342.14 51.62 335.52 51.62L335.52 51.62Q328.18 51.62 324.36 58.60Q320.54 65.58 320.54 79.26L320.54 79.26Q320.54 88.55 323.78 93.09Q327.02 97.62 333.72 97.62L333.72 97.62ZM379.44 100.36Q377.93 100.36 378 98.70L378 98.70L380.66 65.80Q380.74 65.08 381.20 64.76Q381.67 64.43 382.32 64.43L382.32 64.43Q383.76 64.43 383.69 65.80L383.69 65.80L381.02 98.70Q380.95 100.36 379.44 100.36L379.44 100.36ZM383.26 55.79Q382.18 55.79 381.38 55.07Q380.59 54.35 380.59 53.20L380.59 53.20Q380.59 51.98 381.35 51.26Q382.10 50.54 383.26 50.54L383.26 50.54Q384.41 50.54 385.16 51.26Q385.92 51.98 385.92 53.20L385.92 53.20Q385.92 54.35 385.13 55.07Q384.34 55.79 383.26 55.79L383.26 55.79ZM409.97 65.15Q410.47 65.15 410.80 65.51Q411.12 65.87 411.12 66.45L411.12 66.45Q411.12 67.02 410.80 67.38Q410.47 67.74 410.04 67.74L410.04 67.74L400.25 67.74L398.66 88.05Q398.59 88.62 398.59 89.63L398.59 89.63Q398.59 93.45 400.43 95.54Q402.26 97.62 405.50 97.62L405.50 97.62Q406.66 97.62 407.45 97.52Q408.24 97.41 408.60 97.41L408.60 97.41Q409.75 97.41 409.75 98.92L409.75 98.92Q409.75 99.71 408.82 100.07Q407.88 100.43 405.36 100.43L405.36 100.43Q400.90 100.43 398.23 97.62Q395.57 94.82 395.57 89.92L395.57 89.92Q395.57 88.98 395.64 88.48L395.64 88.48L397.22 67.74L391.39 67.74Q390.82 67.74 390.49 67.38Q390.17 67.02 390.17 66.38L390.17 66.38Q390.17 65.87 390.49 65.51Q390.82 65.15 391.32 65.15L391.32 65.15L397.44 65.15L398.16 55.50Q398.23 54.93 398.66 54.50Q399.10 54.06 399.74 54.06L399.74 54.06Q400.39 54.06 400.82 54.50Q401.26 54.93 401.18 55.65L401.18 55.65L400.46 65.15L409.97 65.15ZM431.86 64.29Q443.23 64.29 443.23 75.45L443.23 75.45Q443.23 76.53 443.16 77.10L443.16 77.10L441.43 98.92Q441.36 99.64 440.96 100Q440.57 100.36 439.99 100.36L439.99 100.36Q439.27 100.36 438.80 99.89Q438.34 99.42 438.41 98.63L438.41 98.63L438.70 93.81Q437.04 97.05 434.12 98.78Q431.21 100.50 427.39 100.50L427.39 100.50Q422.14 100.50 418.82 97.73Q415.51 94.96 415.51 90.57L415.51 90.57Q415.51 86.68 417.64 84.41Q419.76 82.14 424.51 81.10Q429.26 80.06 437.26 80.06L437.26 80.06L439.78 80.06L439.99 77.25Q440.06 76.60 440.06 75.45L440.06 75.45Q440.06 71.20 438.08 69.22Q436.10 67.24 431.93 67.24L431.93 67.24Q425.81 67.24 419.54 71.42L419.54 71.42Q419.26 71.63 418.82 71.63L418.82 71.63Q418.32 71.63 418.00 71.13Q417.67 70.62 417.67 70.05L417.67 70.05Q417.67 69.18 418.39 68.54L418.39 68.54Q420.98 66.59 424.69 65.44Q428.40 64.29 431.86 64.29L431.86 64.29ZM427.54 97.48Q432.36 97.48 435.67 94.17Q438.98 90.86 439.34 85.67L439.34 85.67L439.56 82.86L437.47 82.86Q430.27 82.86 426.28 83.55Q422.28 84.23 420.59 85.85Q418.90 87.47 418.90 90.42L418.90 90.42Q418.90 93.66 421.24 95.57Q423.58 97.48 427.54 97.48L427.54 97.48ZM454.82 100.36Q453.31 100.36 453.38 98.70L453.38 98.70L457.27 50.18Q457.34 49.46 457.81 49.13Q458.28 48.81 458.93 48.81L458.93 48.81Q460.37 48.81 460.30 50.18L460.30 50.18L456.41 98.70Q456.34 100.36 454.82 100.36L454.82 100.36ZM470.09 100.36Q468.58 100.36 468.65 98.70L468.65 98.70L471.31 65.80Q471.38 65.08 471.85 64.76Q472.32 64.43 472.97 64.43L472.97 64.43Q474.41 64.43 474.34 65.80L474.34 65.80L471.67 98.70Q471.60 100.36 470.09 100.36L470.09 100.36ZM473.90 55.79Q472.82 55.79 472.03 55.07Q471.24 54.35 471.24 53.20L471.24 53.20Q471.24 51.98 472.00 51.26Q472.75 50.54 473.90 50.54L473.90 50.54Q475.06 50.54 475.81 51.26Q476.57 51.98 476.57 53.20L476.57 53.20Q476.57 54.35 475.78 55.07Q474.98 55.79 473.90 55.79L473.90 55.79ZM497.95 100.50Q493.42 100.50 490.03 98.42Q486.65 96.33 484.78 92.55Q482.90 88.77 482.90 83.73L482.90 83.73Q482.90 77.90 484.96 73.50Q487.01 69.11 490.79 66.70Q494.57 64.29 499.75 64.29L499.75 64.29Q503.35 64.29 506.48 65.44Q509.62 66.59 511.42 68.39L511.42 68.39Q512.06 69.11 512.06 69.83L512.06 69.83Q512.06 70.55 511.63 71.02Q511.20 71.49 510.62 71.49L510.62 71.49Q510.05 71.49 509.62 71.06L509.62 71.06Q504.94 67.17 499.46 67.17L499.46 67.17Q493.13 67.17 489.64 71.63Q486.14 76.10 486.14 83.94L486.14 83.94Q486.14 90.28 489.31 93.92Q492.48 97.55 498.31 97.55L498.31 97.55Q501.12 97.55 503.46 96.54Q505.80 95.54 507.96 93.66L507.96 93.66Q508.39 93.23 508.97 93.23L508.97 93.23Q509.54 93.23 510.01 93.70Q510.48 94.17 510.48 94.74L510.48 94.74Q510.48 95.10 510.12 95.61L510.12 95.61Q507.89 97.91 504.72 99.21Q501.55 100.50 497.95 100.50L497.95 100.50Z"/></svg>