<svg xmlns="http://www.w3.org/2000/svg" viewBox="5.040000000000001 47.65599999999999 767.0880000000002 52.992000000000004"><path d="M39 81L39 49L49 49L49 100L41 100L15 68L15 100L5 100L5 49L13 49L39 81ZM82 65L92 65L92 100L82 100L82 95Q80 98 77 99Q75 101 71 101L71 101Q65 101 61 97Q58 93 58 86L58 86L58 65L69 65L69 86Q69 89 70 91Q72 92 74 92L74 92Q78 92 80 90Q82 88 82 84L82 84L82 65ZM123 64Q129 64 132 67Q135 71 135 79L135 79L135 100L125 100L125 79Q125 76 123 74Q122 72 119 72L119 72Q116 72 114 74Q112 77 112 80L112 80L112 100L101 100L101 65L111 65L111 70Q113 67 116 65Q119 64 123 64L123 64ZM154 100L144 100L144 65L154 65L154 100ZM143 58L143 48L155 48L155 58L143 58ZM182 93Q184 93 186 92L186 92L185 100Q183 101 181 101L181 101Q173 101 169 97Q166 94 166 86L166 86L166 73L159 73L159 65L166 65L166 54L176 54L176 65L185 65L185 73L176 73L176 86Q176 93 182 93L182 93ZM208 101Q202 101 198 98Q194 96 191 92Q189 88 189 82L189 82Q189 77 191 72Q194 68 198 66Q202 64 208 64L208 64Q213 64 218 66Q222 68 224 72Q226 77 226 82L226 82Q226 88 224 92Q222 96 218 98Q213 101 208 101L208 101ZM208 92Q216 92 216 82L216 82Q216 77 214 75Q211 72 208 72L208 72Q200 72 200 82L200 82Q200 92 208 92L208 92ZM272 101Q266 101 261 99Q255 98 252 95L252 95L255 87Q263 92 272 92L272 92Q277 92 279 90Q282 89 282 86L282 86Q282 84 279 82Q277 81 271 80L271 80Q264 78 260 76Q256 74 255 72Q253 69 253 65L253 65Q253 60 255 56Q258 53 262 51Q267 49 273 49L273 49Q278 49 284 50Q289 52 291 54L291 54L288 62Q281 57 273 57L273 57Q269 57 266 59Q264 61 264 64L264 64Q264 65 265 66Q266 68 268 68Q270 69 274 70L274 70Q284 72 288 76Q293 79 293 85L293 85Q293 92 287 97Q282 101 272 101L272 101ZM316 64Q324 64 327 68Q331 71 331 79L331 79L331 100L321 100L321 95Q320 97 317 99Q315 101 311 101L311 101Q308 101 305 99Q302 98 300 95Q299 93 299 89L299 89Q299 85 300 83Q302 81 307 80Q311 79 319 79L319 79L321 79L321 78Q321 75 319 73Q318 72 315 72L315 72Q312 72 309 73Q306 74 303 75L303 75L300 68Q303 66 307 65Q312 64 316 64L316 64ZM314 93Q317 93 319 91Q321 89 321 85L321 85L321 84L320 84Q314 84 311 85Q309 86 309 89L309 89Q309 90 310 92Q312 93 314 93L314 93ZM361 64Q368 64 371 67Q374 71 374 79L374 79L374 100L363 100L363 79Q363 76 362 74Q360 72 358 72L358 72Q354 72 352 74Q350 77 350 80L350 80L350 100L339 100L339 65L350 65L350 70Q352 67 355 65Q358 64 361 64L361 64ZM396 101Q391 101 387 99Q383 98 380 96L380 96L383 89Q385 91 389 92Q392 93 396 93L396 93Q398 93 400 92Q401 91 401 90L401 90Q401 88 400 88Q399 87 397 86L397 86L391 85Q386 84 383 82Q381 79 381 75L381 75Q381 72 383 69Q385 67 388 65Q392 64 396 64L396 64Q400 64 404 65Q407 66 410 68L410 68L407 75Q402 71 396 71L396 71Q394 71 392 72Q391 73 391 75L391 75Q391 76 392 77Q392 77 395 78L395 78L401 79Q406 80 408 83Q411 85 411 90L411 90Q411 95 407 98Q403 101 396 101L396 101ZM469 82L469 84L446 84Q447 89 449 91Q451 92 455 92L455 92Q458 92 461 92Q463 91 466 89L466 89L469 96Q466 98 462 99Q458 101 455 101L455 101Q446 101 441 96Q436 91 436 82L436 82Q436 77 438 73Q440 68 444 66Q448 64 453 64L453 64Q460 64 465 69Q469 73 469 82L469 82ZM453 71Q450 71 448 73Q446 75 446 79L446 79L460 79Q460 75 458 73Q456 71 453 71L453 71ZM511 65L497 82L512 100L499 100L491 89L483 100L470 100L485 82L471 65L483 65L491 74L498 65L511 65ZM534 93Q536 93 538 92L538 92L537 100Q535 101 533 101L533 101Q525 101 521 97Q517 94 517 86L517 86L517 73L511 73L511 65L517 65L517 54L528 54L528 65L537 65L537 73L528 73L528 86Q528 93 534 93L534 93ZM567 64L568 73L562 73Q557 74 555 76Q553 78 553 82L553 82L553 100L542 100L542 65L553 65L553 71Q555 65 564 64L564 64L567 64ZM587 64Q595 64 599 68Q602 71 602 79L602 79L602 100L592 100L592 95Q591 97 589 99Q586 101 583 101L583 101Q579 101 576 99Q573 98 572 95Q570 93 570 89L570 89Q570 85 572 83Q574 81 578 80Q583 79 590 79L590 79L592 79L592 78Q592 75 591 73Q589 72 586 72L586 72Q583 72 580 73Q577 74 574 75L574 75L571 68Q574 66 579 65Q583 64 587 64L587 64ZM585 93Q588 93 590 91Q592 89 592 85L592 85L592 84L591 84Q585 84 583 85Q580 86 580 89L580 89Q580 90 582 92Q583 93 585 93L585 93ZM653 64Q657 64 661 66Q664 68 666 72Q668 77 668 82L668 82Q668 87 666 92Q664 96 661 98Q657 101 653 101L653 101Q649 101 646 99Q643 97 641 95L641 95L641 100L631 100L631 49L642 49L642 69Q643 67 646 65Q649 64 653 64L653 64ZM649 92Q653 92 655 90Q657 87 657 82L657 82Q657 77 655 75Q653 72 649 72L649 72Q646 72 643 75Q641 77 641 82L641 82Q641 87 643 90Q646 92 649 92L649 92ZM692 101Q686 101 682 98Q678 96 675 92Q673 88 673 82L673 82Q673 77 675 72Q678 68 682 66Q686 64 692 64L692 64Q697 64 702 66Q706 68 708 72Q710 77 710 82L710 82Q710 88 708 92Q706 96 702 98Q697 101 692 101L692 101ZM692 92Q700 92 700 82L700 82Q700 77 698 75Q696 72 692 72L692 72Q684 72 684 82L684 82Q684 92 692 92L692 92ZM728 100L717 100L717 49L728 49L728 100ZM761 49L772 49L772 100L761 100L761 95Q760 97 757 99Q754 101 750 101L750 101Q746 101 742 98Q739 96 737 92Q735 87 735 82L735 82Q735 77 737 72Q739 68 742 66Q746 64 750 64L750 64Q754 64 757 65Q760 67 761 70L761 70L761 49ZM753 92Q757 92 759 90Q761 87 761 82L761 82Q761 77 759 75Q757 72 753 72L753 72Q750 72 748 75Q745 77 745 82L745 82Q745 87 748 90Q750 92 753 92L753 92Z"/></svg>