<svg xmlns="http://www.w3.org/2000/svg" viewBox="0.7000000000000001 -7.3 73.1 7.4799999999999995"><path d="M3.60 0.18Q2.76 0.18 2.10-0.35Q1.44-0.88 1.07-1.75Q0.70-2.61 0.70-3.56L0.70-3.56Q0.70-4.51 1.07-5.38Q1.44-6.24 2.10-6.77Q2.76-7.30 3.60-7.30L3.60-7.30Q4.44-7.30 5.10-6.77Q5.76-6.24 6.13-5.38Q6.50-4.51 6.50-3.56L6.50-3.56Q6.50-2.61 6.13-1.75Q5.76-0.88 5.10-0.35Q4.44 0.18 3.60 0.18L3.60 0.18ZM3.60-0.14Q4.58-0.14 5.01-1.03Q5.44-1.93 5.44-3.56L5.44-3.56Q5.44-5.20 5.01-6.09Q4.58-6.98 3.60-6.98L3.60-6.98Q2.62-6.98 2.19-6.09Q1.76-5.20 1.76-3.56L1.76-3.56Q1.76-1.93 2.19-1.03Q2.62-0.14 3.60-0.14L3.60-0.14ZM7.28 0L7.28-0.24L7.80-0.24Q7.92-0.24 7.97-0.29Q8.02-0.34 8.02-0.46L8.02-0.46L8.02-6.66Q8.02-6.78 7.97-6.83Q7.92-6.88 7.80-6.88L7.80-6.88L7.28-6.88L7.28-7.12L8.74-7.12L8.74-0.46Q8.74-0.34 8.79-0.29Q8.84-0.24 8.96-0.24L8.96-0.24L9.48-0.24L9.48 0L7.28 0ZM11.94 0.12Q11.47 0.12 11.06-0.20Q10.66-0.51 10.42-1.06Q10.18-1.61 10.18-2.28L10.18-2.28Q10.18-2.95 10.42-3.50Q10.66-4.05 11.06-4.37Q11.47-4.68 11.94-4.68L11.94-4.68Q12.33-4.68 12.64-4.42Q12.95-4.17 13.10-3.81L13.10-3.81L13.14-3.82L13.14-6.66Q13.14-6.78 13.09-6.83Q13.04-6.88 12.92-6.88L12.92-6.88L12.20-6.88L12.20-7.12L13.86-7.12L13.86-0.46Q13.86-0.34 13.91-0.29Q13.96-0.24 14.08-0.24L14.08-0.24L14.60-0.24L14.60 0L13.14 0L13.14-0.74L13.10-0.75Q12.91-0.35 12.61-0.12Q12.32 0.12 11.94 0.12L11.94 0.12ZM12.05-0.16Q12.35-0.16 12.60-0.38Q12.85-0.60 12.99-0.98Q13.14-1.37 13.14-1.82L13.14-1.82L13.14-2.74Q13.14-3.19 12.99-3.58Q12.85-3.96 12.60-4.18Q12.35-4.40 12.05-4.40L12.05-4.40Q11.56-4.40 11.31-3.85Q11.06-3.30 11.06-2.28L11.06-2.28Q11.06-1.26 11.31-0.71Q11.56-0.16 12.05-0.16L12.05-0.16ZM21.23 0.18Q20.81 0.18 20.40-0.01Q20-0.19 19.70-0.41L19.70-0.41Q19.28-0.73 19.20-0.73L19.20-0.73Q19-0.73 18.94-0.30L18.94-0.30L18.90 0.10L18.67 0.10L18.60-3.06L18.84-3.06Q18.90-2.32 19.25-1.65Q19.61-0.97 20.14-0.56Q20.67-0.14 21.23-0.14L21.23-0.14Q22.05-0.14 22.42-0.54Q22.80-0.94 22.80-1.50L22.80-1.50Q22.80-1.99 22.52-2.27Q22.23-2.55 21.68-2.77L21.68-2.77L20.16-3.38Q19.37-3.70 18.99-4.21Q18.62-4.71 18.62-5.42L18.62-5.42Q18.62-6.38 19.18-6.84Q19.74-7.30 20.58-7.30L20.58-7.30Q21.24-7.30 22.04-6.70L22.04-6.70Q22.14-6.63 22.24-6.58Q22.34-6.52 22.42-6.52L22.42-6.52Q22.59-6.52 22.62-6.76L22.62-6.76L22.66-7.12L22.90-7.12L23-4.52L22.76-4.52Q22.60-5.24 22.25-5.80Q21.91-6.36 21.45-6.67Q20.99-6.98 20.50-6.98L20.50-6.98Q19.94-6.98 19.58-6.62Q19.22-6.25 19.22-5.60L19.22-5.60Q19.22-5.15 19.45-4.90Q19.68-4.65 20.13-4.47L20.13-4.47L22.06-3.70Q22.73-3.43 23.06-2.93Q23.40-2.43 23.40-1.88L23.40-1.88Q23.40-1.35 23.16-0.88Q22.93-0.41 22.45-0.12Q21.96 0.18 21.23 0.18L21.23 0.18ZM25.98 0.12Q25.53 0.12 25.23-0.20Q24.94-0.52 24.94-1.07L24.94-1.07L24.94-4.28L24.20-4.28L24.20-4.56L24.42-4.56Q24.87-4.56 25.13-5.04Q25.38-5.53 25.38-6.12L25.38-6.12L25.38-6.48L25.66-6.48L25.66-4.56L26.90-4.56L26.90-4.28L25.66-4.28L25.66-1.02Q25.66-0.72 25.78-0.52Q25.90-0.32 26.19-0.32L26.19-0.32Q26.90-0.32 26.90-1.52L26.90-1.52L27.08-1.52Q27.08-0.85 26.88-0.36Q26.69 0.12 25.98 0.12L25.98 0.12ZM29.18 0.12Q28.65 0.12 28.26-0.14Q27.88-0.40 27.88-1.06L27.88-1.06Q27.88-1.57 28.14-1.86Q28.40-2.15 28.74-2.27Q29.09-2.40 29.58-2.49L29.58-2.49L30.50-2.66L30.50-3.51Q30.50-4.44 29.57-4.44L29.57-4.44Q29.23-4.44 28.95-4.26Q28.67-4.09 28.67-3.87L28.67-3.87Q28.67-3.77 28.70-3.72L28.70-3.72Q28.72-3.69 28.76-3.66Q28.81-3.63 28.85-3.62L28.85-3.62Q29.03-3.57 29.13-3.48Q29.22-3.39 29.22-3.23L29.22-3.23Q29.22-3.02 29.09-2.93Q28.97-2.84 28.78-2.84L28.78-2.84Q28.56-2.84 28.38-3.01Q28.20-3.18 28.20-3.50L28.20-3.50Q28.20-3.87 28.40-4.14Q28.61-4.41 28.93-4.54Q29.26-4.68 29.60-4.68L29.60-4.68Q30.26-4.68 30.74-4.33Q31.22-3.99 31.22-3.26L31.22-3.26L31.22-0.80Q31.22-0.30 31.53-0.30L31.53-0.30Q31.78-0.30 31.89-0.59Q32-0.88 32-1.30L32-1.30L32.18-1.30Q32.18-0.70 32.00-0.29Q31.83 0.12 31.38 0.12L31.38 0.12Q30.95 0.12 30.73-0.14Q30.52-0.39 30.50-0.84L30.50-0.84L30.45-0.86Q30.30-0.51 29.96-0.20Q29.63 0.12 29.18 0.12L29.18 0.12ZM29.34-0.24Q29.79-0.24 30.04-0.59Q30.30-0.95 30.50-1.50L30.50-1.50L30.50-2.45L29.63-2.26Q29.15-2.16 28.93-1.86Q28.72-1.57 28.72-1.03L28.72-1.03Q28.72-0.57 28.91-0.41Q29.10-0.24 29.34-0.24L29.34-0.24ZM32.74 0L32.74-0.24L33.16-0.24Q33.28-0.24 33.33-0.29Q33.38-0.34 33.38-0.46L33.38-0.46L33.38-4.10Q33.38-4.22 33.33-4.27Q33.28-4.32 33.16-4.32L33.16-4.32L32.74-4.32L32.74-4.56L34.10-4.56L34.10-3.74L34.14-3.73Q34.37-4.21 34.71-4.45Q35.05-4.68 35.46-4.68L35.46-4.68Q36.19-4.68 36.49-4.23Q36.80-3.78 36.80-3.15L36.80-3.15L36.80-0.46Q36.80-0.34 36.85-0.29Q36.90-0.24 37.02-0.24L37.02-0.24L37.44-0.24L37.44 0L35.44 0L35.44-0.24L35.86-0.24Q35.98-0.24 36.03-0.29Q36.08-0.34 36.08-0.46L36.08-0.46L36.08-3.34Q36.08-3.78 35.91-4.09Q35.73-4.40 35.31-4.40L35.31-4.40Q34.96-4.40 34.69-4.16Q34.41-3.91 34.26-3.48Q34.10-3.06 34.10-2.54L34.10-2.54L34.10-0.46Q34.10-0.34 34.15-0.29Q34.20-0.24 34.32-0.24L34.32-0.24L34.74-0.24L34.74 0L32.74 0ZM40 0.12Q39.53 0.12 39.13-0.20Q38.72-0.51 38.48-1.06Q38.24-1.61 38.24-2.28L38.24-2.28Q38.24-2.95 38.48-3.50Q38.72-4.05 39.13-4.37Q39.53-4.68 40-4.68L40-4.68Q40.39-4.68 40.70-4.42Q41.01-4.17 41.16-3.81L41.16-3.81L41.20-3.82L41.20-6.66Q41.20-6.78 41.15-6.83Q41.10-6.88 40.98-6.88L40.98-6.88L40.26-6.88L40.26-7.12L41.92-7.12L41.92-0.46Q41.92-0.34 41.97-0.29Q42.02-0.24 42.14-0.24L42.14-0.24L42.66-0.24L42.66 0L41.20 0L41.20-0.74L41.16-0.75Q40.97-0.35 40.67-0.12Q40.38 0.12 40 0.12L40 0.12ZM40.11-0.16Q40.41-0.16 40.66-0.38Q40.91-0.60 41.05-0.98Q41.20-1.37 41.20-1.82L41.20-1.82L41.20-2.74Q41.20-3.19 41.05-3.58Q40.91-3.96 40.66-4.18Q40.41-4.40 40.11-4.40L40.11-4.40Q39.62-4.40 39.37-3.85Q39.12-3.30 39.12-2.28L39.12-2.28Q39.12-1.26 39.37-0.71Q39.62-0.16 40.11-0.16L40.11-0.16ZM44.74 0.12Q44.21 0.12 43.82-0.14Q43.44-0.40 43.44-1.06L43.44-1.06Q43.44-1.57 43.70-1.86Q43.96-2.15 44.30-2.27Q44.65-2.40 45.14-2.49L45.14-2.49L46.06-2.66L46.06-3.51Q46.06-4.44 45.13-4.44L45.13-4.44Q44.79-4.44 44.51-4.26Q44.23-4.09 44.23-3.87L44.23-3.87Q44.23-3.77 44.26-3.72L44.26-3.72Q44.28-3.69 44.32-3.66Q44.37-3.63 44.41-3.62L44.41-3.62Q44.59-3.57 44.68-3.48Q44.78-3.39 44.78-3.23L44.78-3.23Q44.78-3.02 44.65-2.93Q44.53-2.84 44.34-2.84L44.34-2.84Q44.12-2.84 43.94-3.01Q43.76-3.18 43.76-3.50L43.76-3.50Q43.76-3.87 43.96-4.14Q44.17-4.41 44.49-4.54Q44.82-4.68 45.16-4.68L45.16-4.68Q45.82-4.68 46.30-4.33Q46.78-3.99 46.78-3.26L46.78-3.26L46.78-0.80Q46.78-0.30 47.09-0.30L47.09-0.30Q47.34-0.30 47.45-0.59Q47.56-0.88 47.56-1.30L47.56-1.30L47.74-1.30Q47.74-0.70 47.56-0.29Q47.39 0.12 46.94 0.12L46.94 0.12Q46.51 0.12 46.29-0.14Q46.08-0.39 46.06-0.84L46.06-0.84L46.01-0.86Q45.86-0.51 45.52-0.20Q45.19 0.12 44.74 0.12L44.74 0.12ZM44.90-0.24Q45.35-0.24 45.60-0.59Q45.86-0.95 46.06-1.50L46.06-1.50L46.06-2.45L45.19-2.26Q44.71-2.16 44.49-1.86Q44.28-1.57 44.28-1.03L44.28-1.03Q44.28-0.57 44.47-0.41Q44.66-0.24 44.90-0.24L44.90-0.24ZM48.30 0L48.30-0.24L48.72-0.24Q48.84-0.24 48.89-0.29Q48.94-0.34 48.94-0.46L48.94-0.46L48.94-4.10Q48.94-4.22 48.89-4.27Q48.84-4.32 48.72-4.32L48.72-4.32L48.30-4.32L48.30-4.56L49.66-4.56L49.66-3.56L49.70-3.55Q49.91-4.07 50.24-4.38Q50.58-4.68 50.96-4.68L50.96-4.68Q51.34-4.68 51.58-4.46Q51.82-4.24 51.82-3.86L51.82-3.86Q51.82-3.64 51.66-3.43Q51.51-3.22 51.27-3.22L51.27-3.22Q51.08-3.22 50.95-3.32Q50.82-3.42 50.82-3.60L50.82-3.60Q50.82-3.81 51.02-3.96L51.02-3.96Q51.11-4.02 51.15-4.07Q51.20-4.12 51.20-4.20L51.20-4.20Q51.20-4.29 51.11-4.34Q51.03-4.40 50.88-4.40L50.88-4.40Q50.57-4.40 50.28-4.10Q50.00-3.80 49.83-3.32Q49.66-2.84 49.66-2.32L49.66-2.32L49.66-0.46Q49.66-0.34 49.71-0.29Q49.76-0.24 49.88-0.24L49.88-0.24L50.30-0.24L50.30 0L48.30 0ZM54.26 0.12Q53.79 0.12 53.38-0.20Q52.98-0.51 52.74-1.06Q52.50-1.61 52.50-2.28L52.50-2.28Q52.50-2.95 52.74-3.50Q52.98-4.05 53.38-4.37Q53.79-4.68 54.26-4.68L54.26-4.68Q54.65-4.68 54.96-4.42Q55.27-4.17 55.42-3.81L55.42-3.81L55.46-3.82L55.46-6.66Q55.46-6.78 55.41-6.83Q55.36-6.88 55.24-6.88L55.24-6.88L54.52-6.88L54.52-7.12L56.18-7.12L56.18-0.46Q56.18-0.34 56.23-0.29Q56.28-0.24 56.40-0.24L56.40-0.24L56.92-0.24L56.92 0L55.46 0L55.46-0.74L55.42-0.75Q55.23-0.35 54.93-0.12Q54.64 0.12 54.26 0.12L54.26 0.12ZM54.37-0.16Q54.67-0.16 54.92-0.38Q55.17-0.60 55.31-0.98Q55.46-1.37 55.46-1.82L55.46-1.82L55.46-2.74Q55.46-3.19 55.31-3.58Q55.17-3.96 54.92-4.18Q54.67-4.40 54.37-4.40L54.37-4.40Q53.88-4.40 53.63-3.85Q53.38-3.30 53.38-2.28L53.38-2.28Q53.38-1.26 53.63-0.71Q53.88-0.16 54.37-0.16L54.37-0.16ZM62.02 0L62.02-0.32L62.98-0.32Q63.25-0.32 63.25-0.59L63.25-0.59L63.25-6.56Q63.25-6.70 63.19-6.77Q63.13-6.83 62.98-6.83L62.98-6.83L62.62-6.83Q61.99-6.83 61.53-6.19L61.53-6.19Q61.24-5.78 61.14-5.17Q61.04-4.55 61.04-4.26L61.04-4.26L60.76-4.26L60.84-7.12L66.58-7.12L66.66-4.26L66.38-4.26Q66.38-4.55 66.28-5.17Q66.18-5.78 65.89-6.19L65.89-6.19Q65.43-6.83 64.80-6.83L64.80-6.83L64.44-6.83Q64.29-6.83 64.23-6.77Q64.17-6.70 64.17-6.56L64.17-6.56L64.17-0.59Q64.17-0.32 64.44-0.32L64.44-0.32L65.40-0.32L65.40 0L62.02 0ZM69.16 0L69.16-0.32L70.12-0.32Q70.39-0.32 70.39-0.59L70.39-0.59L70.39-6.56Q70.39-6.70 70.33-6.77Q70.27-6.83 70.12-6.83L70.12-6.83L69.76-6.83Q69.13-6.83 68.67-6.19L68.67-6.19Q68.38-5.78 68.28-5.17Q68.18-4.55 68.18-4.26L68.18-4.26L67.90-4.26L67.98-7.12L73.72-7.12L73.80-4.26L73.52-4.26Q73.52-4.55 73.42-5.17Q73.32-5.78 73.03-6.19L73.03-6.19Q72.57-6.83 71.94-6.83L71.94-6.83L71.58-6.83Q71.43-6.83 71.37-6.77Q71.31-6.70 71.31-6.56L71.31-6.56L71.31-0.59Q71.31-0.32 71.58-0.32L71.58-0.32L72.54-0.32L72.54 0L69.16 0Z"/></svg>