<svg xmlns="http://www.w3.org/2000/svg" viewBox="0.92 -7.3 75.05999999999999 7.4799999999999995"><path d="M3.04 0.18Q2.40 0.18 1.92-0.18Q1.44-0.54 1.18-1.15Q0.92-1.75 0.92-2.48L0.92-2.48Q0.92-3.78 1.48-4.89Q2.04-6 2.93-6.65Q3.82-7.30 4.74-7.30L4.74-7.30Q5.38-7.30 5.86-6.94Q6.34-6.57 6.60-5.96Q6.86-5.35 6.86-4.62L6.86-4.62Q6.86-3.32 6.30-2.21Q5.74-1.11 4.85-0.47Q3.96 0.18 3.04 0.18L3.04 0.18ZM3.12-0.14Q3.97-0.14 4.54-0.84Q5.12-1.54 5.46-2.48L5.46-2.48Q5.73-3.24 5.82-3.96Q5.90-4.68 5.90-5.20L5.90-5.20Q5.90-6.07 5.58-6.53Q5.25-6.98 4.66-6.98L4.66-6.98Q3.81-6.98 3.23-6.28Q2.66-5.58 2.32-4.64L2.32-4.64Q2.05-3.88 1.97-3.16Q1.88-2.44 1.88-1.92L1.88-1.92Q1.88-1.05 2.21-0.59Q2.53-0.14 3.12-0.14L3.12-0.14ZM8.22 0.12Q7.64 0.12 7.64-0.90L7.64-0.90Q7.64-1.10 7.74-1.50L7.74-1.50L9.16-6.66Q9.18-6.74 9.18-6.76L9.18-6.76Q9.18-6.88 9-6.88L9-6.88L8.12-6.88L8.19-7.12L9.94-7.12L8.38-1.38Q8.22-0.74 8.22-0.49L8.22-0.49Q8.22-0.35 8.26-0.29Q8.30-0.22 8.41-0.22L8.41-0.22Q8.69-0.22 8.98-0.69Q9.26-1.15 9.49-1.82L9.49-1.82L9.69-1.76Q9.42-1 9.07-0.44Q8.72 0.12 8.22 0.12L8.22 0.12ZM11.54 0.12Q11.01 0.12 10.71-0.26Q10.42-0.63 10.42-1.25L10.42-1.25Q10.42-1.85 10.64-2.44Q10.87-3.02 11.13-3.43L11.13-3.43Q11.46-3.96 11.91-4.26Q12.37-4.56 12.83-4.56L12.83-4.56Q13.13-4.56 13.37-4.33Q13.61-4.10 13.69-3.68L13.69-3.68L13.73-3.66L14.54-6.66L14.55-6.73Q14.55-6.88 14.38-6.88L14.38-6.88L13.50-6.88L13.57-7.12L15.34-7.12L13.76-1.29Q13.62-0.73 13.62-0.49L13.62-0.49Q13.62-0.35 13.66-0.29Q13.70-0.22 13.80-0.22L13.80-0.22Q14.07-0.22 14.37-0.67Q14.66-1.12 14.89-1.82L14.89-1.82L15.09-1.76Q14.81-0.98 14.45-0.43Q14.08 0.12 13.62 0.12L13.62 0.12Q13.04 0.12 13.04-0.90L13.04-0.90Q13.04-1.03 13.04-1.09Q13.05-1.16 13.05-1.17L13.05-1.17L13.02-1.19Q12.81-0.74 12.41-0.31Q12 0.12 11.54 0.12L11.54 0.12ZM11.60-0.12Q11.97-0.12 12.31-0.49Q12.65-0.87 12.94-1.50L12.94-1.50Q13.14-1.95 13.29-2.50Q13.44-3.05 13.44-3.40L13.44-3.40Q13.44-3.84 13.26-4.08Q13.08-4.32 12.77-4.32L12.77-4.32Q12.46-4.32 12.18-3.98Q11.90-3.64 11.70-3.20L11.70-3.20Q11.45-2.64 11.29-2.01Q11.14-1.38 11.14-0.85L11.14-0.85Q11.14-0.55 11.25-0.34Q11.35-0.12 11.60-0.12L11.60-0.12ZM21.21 0.18Q20.60 0.18 20.15-0.07Q19.70-0.32 19.49-0.53L19.49-0.53Q19.39-0.63 19.32-0.68Q19.25-0.73 19.19-0.73L19.19-0.73Q19.03-0.73 18.89-0.46Q18.75-0.18 18.67 0.10L18.67 0.10L18.44 0.10L19.24-3.06L19.47-3.06Q19.42-2.76 19.42-2.53L19.42-2.53Q19.42-1.90 19.68-1.35Q19.93-0.80 20.36-0.47Q20.79-0.14 21.29-0.14L21.29-0.14Q22.13-0.14 22.57-0.49Q23.01-0.84 23.01-1.52L23.01-1.52Q23.01-1.92 22.81-2.18Q22.61-2.43 22.20-2.68L22.20-2.68L21.04-3.39Q20.43-3.75 20.15-4.15Q19.87-4.55 19.87-5.20L19.87-5.20Q19.87-6.25 20.48-6.78Q21.08-7.30 22.06-7.30L22.06-7.30Q22.42-7.30 22.78-7.11Q23.13-6.92 23.35-6.72L23.35-6.72Q23.45-6.63 23.51-6.59Q23.57-6.56 23.64-6.56L23.64-6.56Q23.81-6.56 23.95-6.78Q24.09-7 24.15-7.22L24.15-7.22L24.38-7.22L23.80-4.62L23.57-4.62Q23.60-5.10 23.40-5.66Q23.19-6.22 22.81-6.60Q22.43-6.98 21.97-6.98L21.97-6.98Q21.46-6.98 21.11-6.79Q20.75-6.60 20.58-6.29Q20.41-5.99 20.41-5.65L20.41-5.65Q20.41-5.18 20.69-4.90Q20.96-4.62 21.43-4.35L21.43-4.35L22.37-3.80Q22.83-3.52 23.10-3.29Q23.36-3.07 23.51-2.75Q23.65-2.44 23.65-1.98L23.65-1.98Q23.65-0.98 23.01-0.40Q22.37 0.18 21.21 0.18L21.21 0.18ZM25.56 0.12Q25.23 0.12 25.03-0.10Q24.82-0.33 24.82-0.72L24.82-0.72Q24.82-1.10 24.93-1.54L24.93-1.54L25.65-4.16L24.96-4.16L25.03-4.44L25.73-4.44L26.38-6.84L27.04-6.84L26.39-4.44L27.52-4.44L27.45-4.16L26.31-4.16L25.48-1.08Q25.45-0.98 25.43-0.81Q25.40-0.63 25.40-0.52L25.40-0.52Q25.40-0.43 25.47-0.33Q25.54-0.23 25.69-0.23L25.69-0.23Q25.82-0.23 25.95-0.31L25.95-0.31Q26.18-0.47 26.34-0.85Q26.51-1.24 26.67-1.82L26.67-1.82L26.87-1.76Q26.67-0.91 26.37-0.40Q26.07 0.12 25.56 0.12L25.56 0.12ZM29.04 0.12Q28.51 0.12 28.21-0.26Q27.92-0.63 27.92-1.25L27.92-1.25Q27.92-1.86 28.10-2.43Q28.28-2.99 28.51-3.35L28.51-3.35Q28.86-3.90 29.32-4.23Q29.79-4.56 30.27-4.56L30.27-4.56Q30.58-4.56 30.83-4.34Q31.08-4.13 31.19-3.68L31.19-3.68L31.23-3.66L31.45-4.44L32.11-4.44L31.26-1.29Q31.12-0.73 31.12-0.49L31.12-0.49Q31.12-0.35 31.16-0.29Q31.20-0.22 31.30-0.22L31.30-0.22Q31.57-0.22 31.86-0.67Q32.15-1.11 32.39-1.82L32.39-1.82L32.59-1.76Q32.33-0.99 31.95-0.43Q31.58 0.12 31.12 0.12L31.12 0.12Q30.54 0.12 30.54-0.90L30.54-0.90Q30.54-1.03 30.55-1.09Q30.55-1.16 30.55-1.17L30.55-1.17L30.52-1.19Q30.31-0.74 29.91-0.31Q29.50 0.12 29.04 0.12L29.04 0.12ZM29.10-0.12Q29.47-0.12 29.81-0.49Q30.15-0.87 30.44-1.50L30.44-1.50Q30.64-1.95 30.79-2.50Q30.94-3.05 30.94-3.40L30.94-3.40Q30.94-3.84 30.76-4.08Q30.58-4.32 30.27-4.32L30.27-4.32Q29.96-4.32 29.68-3.98Q29.40-3.64 29.20-3.20L29.20-3.20Q28.95-2.64 28.80-2.01Q28.64-1.38 28.64-0.85L28.64-0.85Q28.64-0.55 28.75-0.34Q28.85-0.12 29.10-0.12L29.10-0.12ZM36.85 0.12Q36.58 0.12 36.39-0.12Q36.21-0.36 36.21-0.84L36.21-0.84Q36.21-1.06 36.27-1.36Q36.33-1.67 36.41-1.86L36.41-1.86L37.05-3.35Q37.10-3.46 37.16-3.64Q37.21-3.82 37.21-3.94L37.21-3.94Q37.21-4.08 37.16-4.17Q37.10-4.26 36.99-4.26L36.99-4.26Q36.39-4.26 35.72-3.13L35.72-3.13Q35.32-2.45 35.01-1.78Q34.69-1.11 34.56-0.66L34.56-0.66L34.36 0L33.70 0L34.54-3.10Q34.69-3.70 34.69-3.95L34.69-3.95Q34.69-4.09 34.65-4.16Q34.61-4.22 34.50-4.22L34.50-4.22Q34.22-4.22 33.94-3.75Q33.65-3.29 33.42-2.62L33.42-2.62L33.22-2.68Q33.88-4.56 34.69-4.56L34.69-4.56Q35.27-4.56 35.27-3.54L35.27-3.54Q35.27-3.34 35.17-2.93Q35.08-2.51 35.01-2.33L35.01-2.33L35.04-2.30L35.18-2.55Q35.62-3.40 36.08-3.98Q36.53-4.56 37.08-4.56L37.08-4.56Q37.38-4.56 37.55-4.32Q37.73-4.07 37.73-3.60L37.73-3.60Q37.73-3.38 37.67-3.06Q37.61-2.75 37.53-2.58L37.53-2.58L36.89-1.09Q36.84-0.98 36.78-0.80Q36.73-0.62 36.73-0.50L36.73-0.50Q36.73-0.36 36.79-0.27Q36.85-0.18 36.96-0.18L36.96-0.18Q37.30-0.18 37.61-0.70Q37.92-1.22 38.14-1.82L38.14-1.82L38.34-1.76Q38.07-0.95 37.69-0.42Q37.30 0.12 36.85 0.12L36.85 0.12ZM40.12 0.12Q39.59 0.12 39.30-0.26Q39-0.63 39-1.25L39-1.25Q39-1.85 39.23-2.44Q39.45-3.02 39.71-3.43L39.71-3.43Q40.04-3.96 40.49-4.26Q40.95-4.56 41.41-4.56L41.41-4.56Q41.71-4.56 41.95-4.33Q42.19-4.10 42.27-3.68L42.27-3.68L42.31-3.66L43.12-6.66L43.13-6.73Q43.13-6.88 42.96-6.88L42.96-6.88L42.08-6.88L42.15-7.12L43.92-7.12L42.34-1.29Q42.20-0.73 42.20-0.49L42.20-0.49Q42.20-0.35 42.24-0.29Q42.28-0.22 42.38-0.22L42.38-0.22Q42.65-0.22 42.95-0.67Q43.24-1.12 43.47-1.82L43.47-1.82L43.67-1.76Q43.39-0.98 43.02-0.43Q42.66 0.12 42.20 0.12L42.20 0.12Q41.62 0.12 41.62-0.90L41.62-0.90Q41.62-1.03 41.63-1.09Q41.63-1.16 41.63-1.17L41.63-1.17L41.60-1.19Q41.39-0.74 40.98-0.31Q40.58 0.12 40.12 0.12L40.12 0.12ZM40.18-0.12Q40.55-0.12 40.89-0.49Q41.23-0.87 41.52-1.50L41.52-1.50Q41.72-1.95 41.87-2.50Q42.02-3.05 42.02-3.40L42.02-3.40Q42.02-3.84 41.84-4.08Q41.66-4.32 41.35-4.32L41.35-4.32Q41.04-4.32 40.76-3.98Q40.48-3.64 40.28-3.20L40.28-3.20Q40.03-2.64 39.88-2.01Q39.72-1.38 39.72-0.85L39.72-0.85Q39.72-0.55 39.82-0.34Q39.93-0.12 40.18-0.12L40.18-0.12ZM45.42 0.12Q44.89 0.12 44.59-0.26Q44.30-0.63 44.30-1.25L44.30-1.25Q44.30-1.86 44.48-2.43Q44.66-2.99 44.89-3.35L44.89-3.35Q45.24-3.90 45.70-4.23Q46.17-4.56 46.65-4.56L46.65-4.56Q46.96-4.56 47.21-4.34Q47.46-4.13 47.57-3.68L47.57-3.68L47.61-3.66L47.83-4.44L48.49-4.44L47.64-1.29Q47.50-0.73 47.50-0.49L47.50-0.49Q47.50-0.35 47.54-0.29Q47.58-0.22 47.68-0.22L47.68-0.22Q47.95-0.22 48.24-0.67Q48.53-1.11 48.77-1.82L48.77-1.82L48.97-1.76Q48.71-0.99 48.33-0.43Q47.96 0.12 47.50 0.12L47.50 0.12Q46.92 0.12 46.92-0.90L46.92-0.90Q46.92-1.03 46.92-1.09Q46.93-1.16 46.93-1.17L46.93-1.17L46.90-1.19Q46.69-0.74 46.28-0.31Q45.88 0.12 45.42 0.12L45.42 0.12ZM45.48-0.12Q45.85-0.12 46.19-0.49Q46.53-0.87 46.82-1.50L46.82-1.50Q47.02-1.95 47.17-2.50Q47.32-3.05 47.32-3.40L47.32-3.40Q47.32-3.84 47.14-4.08Q46.96-4.32 46.65-4.32L46.65-4.32Q46.34-4.32 46.06-3.98Q45.78-3.64 45.58-3.20L45.58-3.20Q45.33-2.64 45.17-2.01Q45.02-1.38 45.02-0.85L45.02-0.85Q45.02-0.55 45.12-0.34Q45.23-0.12 45.48-0.12L45.48-0.12ZM50.08 0L50.92-3.10Q51.07-3.70 51.07-3.95L51.07-3.95Q51.07-4.09 51.03-4.16Q50.99-4.22 50.88-4.22L50.88-4.22Q50.60-4.22 50.31-3.75Q50.02-3.27 49.80-2.62L49.80-2.62L49.60-2.68Q50.26-4.56 51.07-4.56L51.07-4.56Q51.65-4.56 51.65-3.54L51.65-3.54Q51.65-3.41 51.62-3.23Q51.59-3.06 51.56-2.96L51.56-2.96L51.63-2.94Q51.97-3.65 52.31-4.11Q52.65-4.56 53.03-4.56L53.03-4.56Q53.36-4.56 53.53-4.36Q53.70-4.15 53.70-3.87L53.70-3.87Q53.70-3.61 53.53-3.41Q53.36-3.20 53.08-3.20L53.08-3.20Q52.91-3.20 52.80-3.32Q52.69-3.44 52.69-3.62L52.69-3.62Q52.69-3.80 52.81-3.94L52.81-3.94Q52.91-4.04 52.91-4.09L52.91-4.09Q52.91-4.15 52.88-4.18Q52.86-4.21 52.78-4.21L52.78-4.21Q52.55-4.21 52.18-3.58Q51.82-2.96 51.47-2.10Q51.12-1.25 50.93-0.62L50.93-0.62L50.74 0L50.08 0ZM55.08 0.12Q54.55 0.12 54.25-0.26Q53.96-0.63 53.96-1.25L53.96-1.25Q53.96-1.85 54.18-2.44Q54.41-3.02 54.67-3.43L54.67-3.43Q55.00-3.96 55.45-4.26Q55.91-4.56 56.37-4.56L56.37-4.56Q56.67-4.56 56.91-4.33Q57.15-4.10 57.23-3.68L57.23-3.68L57.27-3.66L58.08-6.66L58.09-6.73Q58.09-6.88 57.92-6.88L57.92-6.88L57.04-6.88L57.11-7.12L58.88-7.12L57.30-1.29Q57.16-0.73 57.16-0.49L57.16-0.49Q57.16-0.35 57.20-0.29Q57.24-0.22 57.34-0.22L57.34-0.22Q57.61-0.22 57.90-0.67Q58.20-1.12 58.43-1.82L58.43-1.82L58.63-1.76Q58.35-0.98 57.98-0.43Q57.62 0.12 57.16 0.12L57.16 0.12Q56.58 0.12 56.58-0.90L56.58-0.90Q56.58-1.03 56.58-1.09Q56.59-1.16 56.59-1.17L56.59-1.17L56.56-1.19Q56.35-0.74 55.94-0.31Q55.54 0.12 55.08 0.12L55.08 0.12ZM55.14-0.12Q55.51-0.12 55.85-0.49Q56.19-0.87 56.48-1.50L56.48-1.50Q56.68-1.95 56.83-2.50Q56.98-3.05 56.98-3.40L56.98-3.40Q56.98-3.84 56.80-4.08Q56.62-4.32 56.31-4.32L56.31-4.32Q56.00-4.32 55.72-3.98Q55.44-3.64 55.24-3.20L55.24-3.20Q54.99-2.64 54.83-2.01Q54.68-1.38 54.68-0.85L54.68-0.85Q54.68-0.55 54.78-0.34Q54.89-0.12 55.14-0.12L55.14-0.12ZM62.70 0L62.78-0.32L63.78-0.32Q64.04-0.32 64.11-0.59L64.11-0.59L65.72-6.53Q65.74-6.63 65.74-6.65L65.74-6.65Q65.74-6.80 65.54-6.80L65.54-6.80L65.21-6.80Q64.87-6.80 64.56-6.63Q64.26-6.46 64.06-6.27L64.06-6.27Q63.77-5.99 63.54-5.58Q63.32-5.18 63.18-4.83Q63.05-4.47 63.05-4.44L63.05-4.44L62.80-4.44L63.60-7.12L69.08-7.12L68.45-4.44L68.20-4.44Q68.21-4.48 68.23-4.62Q68.26-4.76 68.29-5Q68.32-5.24 68.32-5.48L68.32-5.48Q68.32-6.22 68.01-6.51Q67.71-6.80 67.32-6.80L67.32-6.80L66.99-6.80Q66.69-6.80 66.63-6.53L66.63-6.53L65.02-0.59Q65.01-0.55 65.01-0.48L65.01-0.48Q65.01-0.40 65.05-0.36Q65.10-0.32 65.20-0.32L65.20-0.32L66.20-0.32L66.12 0L62.70 0ZM69.60 0L69.68-0.32L70.68-0.32Q70.94-0.32 71.01-0.59L71.01-0.59L72.62-6.53Q72.64-6.63 72.64-6.65L72.64-6.65Q72.64-6.80 72.44-6.80L72.44-6.80L72.11-6.80Q71.77-6.80 71.46-6.63Q71.16-6.46 70.96-6.27L70.96-6.27Q70.67-5.99 70.44-5.58Q70.22-5.18 70.08-4.83Q69.95-4.47 69.95-4.44L69.95-4.44L69.70-4.44L70.50-7.12L75.98-7.12L75.35-4.44L75.10-4.44Q75.11-4.48 75.13-4.62Q75.16-4.76 75.19-5Q75.22-5.24 75.22-5.48L75.22-5.48Q75.22-6.22 74.91-6.51Q74.61-6.80 74.22-6.80L74.22-6.80L73.89-6.80Q73.59-6.80 73.53-6.53L73.53-6.53L71.92-0.59Q71.91-0.55 71.91-0.48L71.91-0.48Q71.91-0.40 71.95-0.36Q72.00-0.32 72.10-0.32L72.10-0.32L73.10-0.32L73.02 0L69.60 0Z"/></svg>