<svg xmlns="http://www.w3.org/2000/svg" viewBox="0.7000000000000001 -7.3 75.06 7.4799999999999995"><path d="M3.66 0.18Q2.89 0.18 2.21-0.35Q1.52-0.88 1.11-1.75Q0.70-2.61 0.70-3.56L0.70-3.56Q0.70-4.51 1.11-5.38Q1.52-6.24 2.21-6.77Q2.89-7.30 3.66-7.30L3.66-7.30Q4.43-7.30 5.12-6.77Q5.80-6.24 6.21-5.38Q6.62-4.51 6.62-3.56L6.62-3.56Q6.62-2.61 6.21-1.75Q5.80-0.88 5.12-0.35Q4.43 0.18 3.66 0.18L3.66 0.18ZM3.66-0.14Q4.27-0.14 4.59-0.58Q4.92-1.03 4.92-2.06L4.92-2.06L4.92-5.06Q4.92-6.09 4.59-6.54Q4.27-6.98 3.66-6.98L3.66-6.98Q3.05-6.98 2.73-6.54Q2.40-6.09 2.40-5.06L2.40-5.06L2.40-2.06Q2.40-1.03 2.73-0.58Q3.05-0.14 3.66-0.14L3.66-0.14ZM7.38 0L7.38-0.24L7.94-0.24Q8.03-0.24 8.06-0.28Q8.10-0.31 8.10-0.40L8.10-0.40L8.10-6.72Q8.10-6.81 8.06-6.84Q8.03-6.88 7.94-6.88L7.94-6.88L7.38-6.88L7.38-7.12L9.26-7.12L9.26-0.40Q9.26-0.31 9.29-0.28Q9.33-0.24 9.42-0.24L9.42-0.24L9.98-0.24L9.98 0L7.38 0ZM12.48 0.12Q11.96 0.12 11.55-0.24Q11.14-0.59 10.91-1.17Q10.68-1.74 10.68-2.37L10.68-2.37Q10.68-3.01 10.90-3.58Q11.12-4.15 11.52-4.50Q11.92-4.86 12.44-4.86L12.44-4.86Q12.76-4.86 13.01-4.67Q13.26-4.48 13.42-4.15L13.42-4.15L13.48-4.17L13.48-6.72Q13.48-6.81 13.45-6.84Q13.41-6.88 13.32-6.88L13.32-6.88L12.76-6.88L12.76-7.12L14.64-7.12L14.64-0.40Q14.64-0.31 14.68-0.28Q14.71-0.24 14.80-0.24L14.80-0.24L15.36-0.24L15.36 0L13.48 0L13.48-0.58L13.42-0.58Q13.29-0.30 13.04-0.09Q12.80 0.12 12.48 0.12L12.48 0.12ZM12.62-0.20Q12.85-0.20 13.04-0.48Q13.24-0.77 13.36-1.26Q13.48-1.75 13.48-2.34L13.48-2.34Q13.48-3.06 13.34-3.56Q13.20-4.06 13-4.30Q12.80-4.54 12.62-4.54L12.62-4.54Q11.96-4.54 11.96-2.37L11.96-2.37Q11.96-0.20 12.62-0.20L12.62-0.20ZM21.85 0.18Q21.41 0.18 21.06 0.06Q20.71-0.07 20.48-0.26L20.48-0.26Q20.25-0.43 20.15-0.49Q20.05-0.56 19.96-0.56L19.96-0.56Q19.75-0.56 19.70-0.22L19.70-0.22L19.65 0.10L19.34 0.10L19.28-3.06L19.60-3.06Q19.74-2.30 20.07-1.63Q20.41-0.96 20.88-0.55Q21.36-0.14 21.91-0.14L21.91-0.14Q22.70-0.14 22.99-0.49Q23.28-0.84 23.28-1.28L23.28-1.28Q23.28-1.54 23.09-1.75Q22.91-1.95 22.56-2.18L22.56-2.18L20.42-3.56Q19.95-3.86 19.63-4.31Q19.30-4.76 19.30-5.38L19.30-5.38Q19.30-6.35 19.86-6.83Q20.43-7.30 21.26-7.30L21.26-7.30Q21.97-7.30 22.68-6.80L22.68-6.80Q22.91-6.62 23.04-6.62L23.04-6.62Q23.22-6.62 23.26-6.85L23.26-6.85L23.32-7.12L23.64-7.12L23.74-4.52L23.42-4.52Q23.23-5.21 22.89-5.77Q22.55-6.33 22.11-6.66Q21.66-6.98 21.18-6.98L21.18-6.98Q20.65-6.98 20.39-6.77Q20.14-6.56 20.14-6.14L20.14-6.14Q20.14-5.57 21.03-4.99L21.03-4.99L23.18-3.60Q23.59-3.33 23.84-2.86Q24.08-2.39 24.08-1.88L24.08-1.88Q24.08-1.36 23.83-0.89Q23.58-0.42 23.08-0.12Q22.58 0.18 21.85 0.18L21.85 0.18ZM26.70 0.12Q26.07 0.12 25.72-0.21Q25.38-0.53 25.38-1.12L25.38-1.12L25.38-4.46L24.78-4.46L24.78-4.74Q25.37-4.82 25.71-5.23Q26.06-5.64 26.06-6.30L26.06-6.30L26.06-6.66L26.54-6.66L26.54-4.74L27.56-4.74L27.56-4.46L26.54-4.46L26.54-1.05Q26.54-0.72 26.63-0.52Q26.72-0.32 27-0.32L27-0.32Q27.42-0.32 27.56-0.90Q27.70-1.47 27.70-2.18L27.70-2.18L27.98-2.18Q27.98-1.61 27.90-1.13Q27.83-0.65 27.67-0.39L27.67-0.39Q27.35 0.12 26.70 0.12L26.70 0.12ZM30 0.12Q29.45 0.12 29.06-0.15Q28.68-0.42 28.68-1.06L28.68-1.06Q28.68-1.71 29.15-2.08Q29.63-2.46 30.36-2.71L30.36-2.71L31.10-2.97L31.10-3.65Q31.10-4.16 30.89-4.39Q30.68-4.62 30.35-4.62L30.35-4.62Q30.07-4.62 29.86-4.50Q29.66-4.37 29.66-4.15L29.66-4.15Q29.66-4.09 29.70-4.00Q29.73-3.92 29.82-3.86L29.82-3.86Q29.97-3.77 30.04-3.67Q30.10-3.57 30.10-3.41L30.10-3.41Q30.10-3.17 29.92-3.04Q29.75-2.90 29.54-2.90L29.54-2.90Q29.28-2.90 29.09-3.08Q28.91-3.25 28.91-3.58L28.91-3.58Q28.91-3.96 29.14-4.25Q29.37-4.55 29.73-4.71Q30.09-4.86 30.46-4.86L30.46-4.86Q31.18-4.86 31.72-4.48Q32.26-4.09 32.26-3.25L32.26-3.25L32.26-0.72Q32.26-0.36 32.46-0.36L32.46-0.36Q32.64-0.36 32.73-0.66Q32.82-0.96 32.82-1.35L32.82-1.35L33.10-1.35Q33.10-0.62 32.88-0.28L32.88-0.28Q32.77-0.10 32.57 0.01Q32.37 0.12 32.11 0.12L32.11 0.12Q31.70 0.12 31.49-0.01Q31.28-0.13 31.14-0.42L31.14-0.42L31.12-0.42Q30.72 0.12 30 0.12L30 0.12ZM30.49-0.28Q30.88-0.28 31.10-0.72L31.10-0.72L31.10-2.70L30.54-2.50Q30.21-2.38 30.05-2.04Q29.90-1.71 29.90-1.15L29.90-1.15Q29.90-0.66 30.08-0.47Q30.26-0.28 30.49-0.28L30.49-0.28ZM33.70 0L33.70-0.24L34.08-0.24Q34.17-0.24 34.20-0.28Q34.24-0.31 34.24-0.40L34.24-0.40L34.24-4.34Q34.24-4.43 34.20-4.46Q34.17-4.50 34.08-4.50L34.08-4.50L33.70-4.50L33.70-4.74L35.40-4.74L35.40-3.85L35.45-3.84Q35.65-4.31 35.96-4.58Q36.28-4.86 36.69-4.86L36.69-4.86Q36.94-4.86 37.12-4.80Q37.30-4.75 37.46-4.64L37.46-4.64Q37.71-4.46 37.85-4.14Q38-3.82 38-3.48L38-3.48L38-0.40Q38-0.31 38.03-0.28Q38.07-0.24 38.16-0.24L38.16-0.24L38.54-0.24L38.54 0L36.36 0L36.36-0.24L36.68-0.24Q36.77-0.24 36.80-0.28Q36.84-0.31 36.84-0.40L36.84-0.40L36.84-3.77Q36.84-4.54 36.38-4.54L36.38-4.54Q36.17-4.54 35.94-4.26Q35.71-3.98 35.55-3.52Q35.40-3.06 35.40-2.54L35.40-2.54L35.40-0.40Q35.40-0.31 35.43-0.28Q35.47-0.24 35.56-0.24L35.56-0.24L35.88-0.24L35.88 0L33.70 0ZM41.14 0.12Q40.62 0.12 40.21-0.24Q39.80-0.59 39.57-1.17Q39.34-1.74 39.34-2.37L39.34-2.37Q39.34-3.01 39.56-3.58Q39.78-4.15 40.18-4.50Q40.58-4.86 41.10-4.86L41.10-4.86Q41.42-4.86 41.67-4.67Q41.92-4.48 42.08-4.15L42.08-4.15L42.14-4.17L42.14-6.72Q42.14-6.81 42.10-6.84Q42.07-6.88 41.98-6.88L41.98-6.88L41.42-6.88L41.42-7.12L43.30-7.12L43.30-0.40Q43.30-0.31 43.34-0.28Q43.37-0.24 43.46-0.24L43.46-0.24L44.02-0.24L44.02 0L42.14 0L42.14-0.58L42.08-0.58Q41.95-0.30 41.70-0.09Q41.46 0.12 41.14 0.12L41.14 0.12ZM41.28-0.20Q41.51-0.20 41.70-0.48Q41.90-0.77 42.02-1.26Q42.14-1.75 42.14-2.34L42.14-2.34Q42.14-3.06 42-3.56Q41.86-4.06 41.66-4.30Q41.46-4.54 41.28-4.54L41.28-4.54Q40.62-4.54 40.62-2.37L40.62-2.37Q40.62-0.20 41.28-0.20L41.28-0.20ZM46.02 0.12Q45.47 0.12 45.09-0.15Q44.70-0.42 44.70-1.06L44.70-1.06Q44.70-1.71 45.18-2.08Q45.65-2.46 46.38-2.71L46.38-2.71L47.12-2.97L47.12-3.65Q47.12-4.16 46.91-4.39Q46.70-4.62 46.37-4.62L46.37-4.62Q46.09-4.62 45.89-4.50Q45.68-4.37 45.68-4.15L45.68-4.15Q45.68-4.09 45.72-4.00Q45.75-3.92 45.84-3.86L45.84-3.86Q45.99-3.77 46.05-3.67Q46.12-3.57 46.12-3.41L46.12-3.41Q46.12-3.17 45.95-3.04Q45.77-2.90 45.56-2.90L45.56-2.90Q45.30-2.90 45.12-3.08Q44.93-3.25 44.93-3.58L44.93-3.58Q44.93-3.96 45.16-4.25Q45.39-4.55 45.75-4.71Q46.11-4.86 46.48-4.86L46.48-4.86Q47.20-4.86 47.74-4.48Q48.28-4.09 48.28-3.25L48.28-3.25L48.28-0.72Q48.28-0.36 48.48-0.36L48.48-0.36Q48.66-0.36 48.75-0.66Q48.84-0.96 48.84-1.35L48.84-1.35L49.12-1.35Q49.12-0.62 48.90-0.28L48.90-0.28Q48.79-0.10 48.59 0.01Q48.39 0.12 48.13 0.12L48.13 0.12Q47.72 0.12 47.51-0.01Q47.30-0.13 47.16-0.42L47.16-0.42L47.14-0.42Q46.74 0.12 46.02 0.12L46.02 0.12ZM46.51-0.28Q46.90-0.28 47.12-0.72L47.12-0.72L47.12-2.70L46.56-2.50Q46.23-2.38 46.08-2.04Q45.92-1.71 45.92-1.15L45.92-1.15Q45.92-0.66 46.10-0.47Q46.28-0.28 46.51-0.28L46.51-0.28ZM49.72 0L49.72-0.24L50.10-0.24Q50.19-0.24 50.23-0.28Q50.26-0.31 50.26-0.40L50.26-0.40L50.26-4.34Q50.26-4.43 50.23-4.46Q50.19-4.50 50.10-4.50L50.10-4.50L49.72-4.50L49.72-4.74L51.42-4.74L51.42-3.75L51.47-3.74Q51.63-4.20 51.92-4.53Q52.22-4.86 52.58-4.86L52.58-4.86Q52.94-4.86 53.17-4.60Q53.40-4.34 53.40-3.94L53.40-3.94Q53.40-3.57 53.19-3.31Q52.98-3.04 52.67-3.04L52.67-3.04Q52.40-3.04 52.21-3.21Q52.02-3.37 52.02-3.61L52.02-3.61Q52.02-3.85 52.26-4.13L52.26-4.13Q52.40-4.29 52.40-4.36L52.40-4.36Q52.40-4.46 52.29-4.46L52.29-4.46Q52.09-4.46 51.88-4.17Q51.68-3.88 51.55-3.41Q51.42-2.94 51.42-2.41L51.42-2.41L51.42-0.40Q51.42-0.31 51.45-0.28Q51.49-0.24 51.58-0.24L51.58-0.24L51.90-0.24L51.90 0L49.72 0ZM55.94 0.12Q55.42 0.12 55.01-0.24Q54.60-0.59 54.37-1.17Q54.14-1.74 54.14-2.37L54.14-2.37Q54.14-3.01 54.36-3.58Q54.58-4.15 54.98-4.50Q55.38-4.86 55.90-4.86L55.90-4.86Q56.22-4.86 56.47-4.67Q56.72-4.48 56.88-4.15L56.88-4.15L56.94-4.17L56.94-6.72Q56.94-6.81 56.90-6.84Q56.87-6.88 56.78-6.88L56.78-6.88L56.22-6.88L56.22-7.12L58.10-7.12L58.10-0.40Q58.10-0.31 58.13-0.28Q58.17-0.24 58.26-0.24L58.26-0.24L58.82-0.24L58.82 0L56.94 0L56.94-0.58L56.88-0.58Q56.75-0.30 56.50-0.09Q56.26 0.12 55.94 0.12L55.94 0.12ZM56.08-0.20Q56.31-0.20 56.50-0.48Q56.70-0.77 56.82-1.26Q56.94-1.75 56.94-2.34L56.94-2.34Q56.94-3.06 56.80-3.56Q56.66-4.06 56.46-4.30Q56.26-4.54 56.08-4.54L56.08-4.54Q55.42-4.54 55.42-2.37L55.42-2.37Q55.42-0.20 56.08-0.20L56.08-0.20ZM63.74 0L63.74-0.32L64.54-0.32Q64.68-0.32 64.73-0.38Q64.78-0.43 64.78-0.56L64.78-0.56L64.78-6.46Q64.78-6.62 64.68-6.71Q64.58-6.80 64.41-6.80L64.41-6.80Q63.94-6.80 63.55-6.29Q63.16-5.77 62.97-5.08L62.97-5.08Q62.86-4.71 62.81-4.46Q62.77-4.20 62.76-4.14L62.76-4.14L62.44-4.14L62.52-7.12L68.52-7.12L68.60-4.14L68.28-4.14Q68.27-4.20 68.22-4.46Q68.18-4.71 68.07-5.08L68.07-5.08Q67.88-5.77 67.49-6.29Q67.10-6.80 66.63-6.80L66.63-6.80Q66.46-6.80 66.36-6.71Q66.26-6.62 66.26-6.46L66.26-6.46L66.26-0.56Q66.26-0.43 66.31-0.38Q66.37-0.32 66.50-0.32L66.50-0.32L67.30-0.32L67.30 0L63.74 0ZM70.90 0L70.90-0.32L71.70-0.32Q71.84-0.32 71.89-0.38Q71.94-0.43 71.94-0.56L71.94-0.56L71.94-6.46Q71.94-6.62 71.84-6.71Q71.74-6.80 71.57-6.80L71.57-6.80Q71.10-6.80 70.71-6.29Q70.32-5.77 70.13-5.08L70.13-5.08Q70.02-4.71 69.97-4.46Q69.93-4.20 69.92-4.14L69.92-4.14L69.60-4.14L69.68-7.12L75.68-7.12L75.76-4.14L75.44-4.14Q75.43-4.20 75.39-4.46Q75.34-4.71 75.23-5.08L75.23-5.08Q75.04-5.77 74.65-6.29Q74.26-6.80 73.79-6.80L73.79-6.80Q73.62-6.80 73.52-6.71Q73.42-6.62 73.42-6.46L73.42-6.46L73.42-0.56Q73.42-0.43 73.47-0.38Q73.53-0.32 73.66-0.32L73.66-0.32L74.46-0.32L74.46 0L70.90 0Z"/></svg>