<svg xmlns="http://www.w3.org/2000/svg" viewBox="6.6240000000000006 47.43999999999999 715.104 53.856000000000016"><path d="M21.89 101.30Q17.28 101.30 13.82 98.70Q10.37 96.11 8.50 91.76Q6.62 87.40 6.62 82.14L6.62 82.14Q6.62 72.78 10.66 64.79Q14.69 56.80 21.10 52.12Q27.50 47.44 34.13 47.44L34.13 47.44Q38.74 47.44 42.19 50.07Q45.65 52.70 47.52 57.09Q49.39 61.48 49.39 66.74L49.39 66.74Q49.39 76.10 45.36 84.05Q41.33 92.01 34.92 96.65Q28.51 101.30 21.89 101.30L21.89 101.30ZM22.46 98.99Q28.58 98.99 32.72 93.95Q36.86 88.91 39.31 82.14L39.31 82.14Q41.26 76.67 41.87 71.49Q42.48 66.30 42.48 62.56L42.48 62.56Q42.48 56.30 40.14 53.02Q37.80 49.74 33.55 49.74L33.55 49.74Q27.43 49.74 23.29 54.78Q19.15 59.82 16.70 66.59L16.70 66.59Q14.76 72.06 14.15 77.25Q13.54 82.43 13.54 86.18L13.54 86.18Q13.54 92.44 15.88 95.72Q18.22 98.99 22.46 98.99L22.46 98.99ZM59.18 100.86Q55.01 100.86 55.01 93.52L55.01 93.52Q55.01 92.08 55.73 89.20L55.73 89.20L65.95 52.05Q66.10 51.47 66.10 51.33L66.10 51.33Q66.10 50.46 64.80 50.46L64.80 50.46L58.46 50.46L58.97 48.74L71.57 48.74L60.34 90.06Q59.18 94.67 59.18 96.47L59.18 96.47Q59.18 97.48 59.47 97.95Q59.76 98.42 60.55 98.42L60.55 98.42Q62.57 98.42 64.62 95.07Q66.67 91.72 68.33 86.90L68.33 86.90L69.77 87.33Q67.82 92.80 65.30 96.83Q62.78 100.86 59.18 100.86L59.18 100.86ZM83.09 100.86Q79.27 100.86 77.15 98.16Q75.02 95.46 75.02 91L75.02 91Q75.02 86.68 76.64 82.47Q78.26 78.26 80.14 75.30L80.14 75.30Q82.51 71.49 85.79 69.33Q89.06 67.17 92.38 67.17L92.38 67.17Q94.54 67.17 96.26 68.82Q97.99 70.48 98.57 73.50L98.57 73.50L98.86 73.65L104.69 52.05L104.76 51.54Q104.76 50.46 103.54 50.46L103.54 50.46L97.20 50.46L97.70 48.74L110.45 48.74L99.07 90.71Q98.06 94.74 98.06 96.47L98.06 96.47Q98.06 97.48 98.35 97.95Q98.64 98.42 99.36 98.42L99.36 98.42Q101.30 98.42 103.43 95.18Q105.55 91.94 107.21 86.90L107.21 86.90L108.65 87.33Q106.63 92.94 104.00 96.90Q101.38 100.86 98.06 100.86L98.06 100.86Q93.89 100.86 93.89 93.52L93.89 93.52Q93.89 92.58 93.92 92.12Q93.96 91.65 93.96 91.58L93.96 91.58L93.74 91.43Q92.23 94.67 89.32 97.77Q86.40 100.86 83.09 100.86L83.09 100.86ZM83.52 99.14Q86.18 99.14 88.63 96.44Q91.08 93.74 93.17 89.20L93.17 89.20Q94.61 85.96 95.69 82Q96.77 78.04 96.77 75.52L96.77 75.52Q96.77 72.35 95.47 70.62Q94.18 68.90 91.94 68.90L91.94 68.90Q89.71 68.90 87.70 71.34Q85.68 73.79 84.24 76.96L84.24 76.96Q82.44 80.99 81.32 85.53Q80.21 90.06 80.21 93.88L80.21 93.88Q80.21 96.04 80.96 97.59Q81.72 99.14 83.52 99.14L83.52 99.14ZM152.71 101.30Q148.32 101.30 145.08 99.50Q141.84 97.70 140.33 96.18L140.33 96.18Q139.61 95.46 139.10 95.10Q138.60 94.74 138.17 94.74L138.17 94.74Q137.02 94.74 136.01 96.72Q135 98.70 134.42 100.72L134.42 100.72L132.77 100.72L138.53 77.97L140.18 77.97Q139.82 80.13 139.82 81.78L139.82 81.78Q139.82 86.32 141.66 90.28Q143.50 94.24 146.59 96.62Q149.69 98.99 153.29 98.99L153.29 98.99Q159.34 98.99 162.50 96.47Q165.67 93.95 165.67 89.06L165.67 89.06Q165.67 86.18 164.23 84.34Q162.79 82.50 159.84 80.70L159.84 80.70L151.49 75.59Q147.10 73 145.08 70.12Q143.06 67.24 143.06 62.56L143.06 62.56Q143.06 55.00 147.42 51.22Q151.78 47.44 158.83 47.44L158.83 47.44Q161.42 47.44 163.98 48.81Q166.54 50.18 168.12 51.62L168.12 51.62Q168.84 52.26 169.27 52.52Q169.70 52.77 170.21 52.77L170.21 52.77Q171.43 52.77 172.44 51.18Q173.45 49.60 173.88 48.02L173.88 48.02L175.54 48.02L171.36 66.74L169.70 66.74Q169.92 63.28 168.44 59.25Q166.97 55.22 164.23 52.48Q161.50 49.74 158.18 49.74L158.18 49.74Q154.51 49.74 151.96 51.11Q149.40 52.48 148.18 54.68Q146.95 56.87 146.95 59.32L146.95 59.32Q146.95 62.70 148.93 64.72Q150.91 66.74 154.30 68.68L154.30 68.68L161.06 72.64Q164.38 74.66 166.28 76.28Q168.19 77.90 169.24 80.16Q170.28 82.43 170.28 85.74L170.28 85.74Q170.28 92.94 165.67 97.12Q161.06 101.30 152.71 101.30L152.71 101.30ZM184.03 100.86Q181.66 100.86 180.18 99.24Q178.70 97.62 178.70 94.82L178.70 94.82Q178.70 92.08 179.50 88.91L179.50 88.91L184.68 70.05L179.71 70.05L180.22 68.03L185.26 68.03L189.94 50.75L194.69 50.75L190.01 68.03L198.14 68.03L197.64 70.05L189.43 70.05L183.46 92.22Q183.24 92.94 183.06 94.20Q182.88 95.46 182.88 96.26L182.88 96.26Q182.88 96.90 183.38 97.62Q183.89 98.34 184.97 98.34L184.97 98.34Q185.90 98.34 186.84 97.77L186.84 97.77Q188.50 96.62 189.68 93.84Q190.87 91.07 192.02 86.90L192.02 86.90L193.46 87.33Q192.02 93.45 189.86 97.16Q187.70 100.86 184.03 100.86L184.03 100.86ZM209.09 100.86Q205.27 100.86 203.15 98.16Q201.02 95.46 201.02 91L201.02 91Q201.02 86.61 202.32 82.54Q203.62 78.47 205.27 75.88L205.27 75.88Q207.79 71.92 211.14 69.54Q214.49 67.17 217.94 67.17L217.94 67.17Q220.18 67.17 221.98 68.72Q223.78 70.26 224.57 73.50L224.57 73.50L224.86 73.65L226.44 68.03L231.19 68.03L225.07 90.71Q224.06 94.74 224.06 96.47L224.06 96.47Q224.06 97.48 224.35 97.95Q224.64 98.42 225.36 98.42L225.36 98.42Q227.30 98.42 229.39 95.21Q231.48 92.01 233.21 86.90L233.21 86.90L234.65 87.33Q232.78 92.87 230.08 96.87Q227.38 100.86 224.06 100.86L224.06 100.86Q219.89 100.86 219.89 93.52L219.89 93.52Q219.89 92.58 219.92 92.12Q219.96 91.65 219.96 91.58L219.96 91.58L219.74 91.43Q218.23 94.67 215.32 97.77Q212.40 100.86 209.09 100.86L209.09 100.86ZM209.52 99.14Q212.18 99.14 214.63 96.44Q217.08 93.74 219.17 89.20L219.17 89.20Q220.61 85.96 221.69 82Q222.77 78.04 222.77 75.52L222.77 75.52Q222.77 72.35 221.47 70.62Q220.18 68.90 217.94 68.90L217.94 68.90Q215.71 68.90 213.70 71.34Q211.68 73.79 210.24 76.96L210.24 76.96Q208.44 80.99 207.32 85.53Q206.21 90.06 206.21 93.88L206.21 93.88Q206.21 96.04 206.96 97.59Q207.72 99.14 209.52 99.14L209.52 99.14ZM265.32 100.86Q263.38 100.86 262.04 99.14Q260.71 97.41 260.71 93.95L260.71 93.95Q260.71 92.37 261.14 90.17Q261.58 87.98 262.15 86.61L262.15 86.61L266.76 75.88Q267.12 75.09 267.52 73.79Q267.91 72.50 267.91 71.63L267.91 71.63Q267.91 70.62 267.52 69.98Q267.12 69.33 266.33 69.33L266.33 69.33Q262.01 69.33 257.18 77.46L257.18 77.46Q254.30 82.36 252.04 87.18Q249.77 92.01 248.83 95.25L248.83 95.25L247.39 100L242.64 100L248.69 77.68Q249.77 73.36 249.77 71.56L249.77 71.56Q249.77 70.55 249.48 70.08Q249.19 69.62 248.40 69.62L248.40 69.62Q246.38 69.62 244.33 72.96Q242.28 76.31 240.62 81.14L240.62 81.14L239.18 80.70Q243.94 67.17 249.77 67.17L249.77 67.17Q253.94 67.17 253.94 74.51L253.94 74.51Q253.94 75.95 253.26 78.94Q252.58 81.93 252.07 83.22L252.07 83.22L252.29 83.44L253.30 81.64Q256.46 75.52 259.74 71.34Q263.02 67.17 266.98 67.17L266.98 67.17Q269.14 67.17 270.40 68.93Q271.66 70.70 271.66 74.08L271.66 74.08Q271.66 75.66 271.22 77.93Q270.79 80.20 270.22 81.42L270.22 81.42L265.61 92.15Q265.25 92.94 264.85 94.24Q264.46 95.54 264.46 96.40L264.46 96.40Q264.46 97.41 264.89 98.06Q265.32 98.70 266.11 98.70L266.11 98.70Q268.56 98.70 270.79 94.96Q273.02 91.22 274.61 86.90L274.61 86.90L276.05 87.33Q274.10 93.16 271.33 97.01Q268.56 100.86 265.32 100.86L265.32 100.86ZM288.86 100.86Q285.05 100.86 282.92 98.16Q280.80 95.46 280.80 91L280.80 91Q280.80 86.68 282.42 82.47Q284.04 78.26 285.91 75.30L285.91 75.30Q288.29 71.49 291.56 69.33Q294.84 67.17 298.15 67.17L298.15 67.17Q300.31 67.17 302.04 68.82Q303.77 70.48 304.34 73.50L304.34 73.50L304.63 73.65L310.46 52.05L310.54 51.54Q310.54 50.46 309.31 50.46L309.31 50.46L302.98 50.46L303.48 48.74L316.22 48.74L304.85 90.71Q303.84 94.74 303.84 96.47L303.84 96.47Q303.84 97.48 304.13 97.95Q304.42 98.42 305.14 98.42L305.14 98.42Q307.08 98.42 309.20 95.18Q311.33 91.94 312.98 86.90L312.98 86.90L314.42 87.33Q312.41 92.94 309.78 96.90Q307.15 100.86 303.84 100.86L303.84 100.86Q299.66 100.86 299.66 93.52L299.66 93.52Q299.66 92.58 299.70 92.12Q299.74 91.65 299.74 91.58L299.74 91.58L299.52 91.43Q298.01 94.67 295.09 97.77Q292.18 100.86 288.86 100.86L288.86 100.86ZM289.30 99.14Q291.96 99.14 294.41 96.44Q296.86 93.74 298.94 89.20L298.94 89.20Q300.38 85.96 301.46 82Q302.54 78.04 302.54 75.52L302.54 75.52Q302.54 72.35 301.25 70.62Q299.95 68.90 297.72 68.90L297.72 68.90Q295.49 68.90 293.47 71.34Q291.46 73.79 290.02 76.96L290.02 76.96Q288.22 80.99 287.10 85.53Q285.98 90.06 285.98 93.88L285.98 93.88Q285.98 96.04 286.74 97.59Q287.50 99.14 289.30 99.14L289.30 99.14ZM327.02 100.86Q323.21 100.86 321.08 98.16Q318.96 95.46 318.96 91L318.96 91Q318.96 86.61 320.26 82.54Q321.55 78.47 323.21 75.88L323.21 75.88Q325.73 71.92 329.08 69.54Q332.42 67.17 335.88 67.17L335.88 67.17Q338.11 67.17 339.91 68.72Q341.71 70.26 342.50 73.50L342.50 73.50L342.79 73.65L344.38 68.03L349.13 68.03L343.01 90.71Q342.00 94.74 342.00 96.47L342.00 96.47Q342.00 97.48 342.29 97.95Q342.58 98.42 343.30 98.42L343.30 98.42Q345.24 98.42 347.33 95.21Q349.42 92.01 351.14 86.90L351.14 86.90L352.58 87.33Q350.71 92.87 348.01 96.87Q345.31 100.86 342.00 100.86L342.00 100.86Q337.82 100.86 337.82 93.52L337.82 93.52Q337.82 92.58 337.86 92.12Q337.90 91.65 337.90 91.58L337.90 91.58L337.68 91.43Q336.17 94.67 333.25 97.77Q330.34 100.86 327.02 100.86L327.02 100.86ZM327.46 99.14Q330.12 99.14 332.57 96.44Q335.02 93.74 337.10 89.20L337.10 89.20Q338.54 85.96 339.62 82Q340.70 78.04 340.70 75.52L340.70 75.52Q340.70 72.35 339.41 70.62Q338.11 68.90 335.88 68.90L335.88 68.90Q333.65 68.90 331.63 71.34Q329.62 73.79 328.18 76.96L328.18 76.96Q326.38 80.99 325.26 85.53Q324.14 90.06 324.14 93.88L324.14 93.88Q324.14 96.04 324.90 97.59Q325.66 99.14 327.46 99.14L327.46 99.14ZM360.58 100L366.62 77.68Q367.70 73.36 367.70 71.56L367.70 71.56Q367.70 70.55 367.42 70.08Q367.13 69.62 366.34 69.62L366.34 69.62Q364.32 69.62 362.23 73.04Q360.14 76.46 358.56 81.14L358.56 81.14L357.12 80.70Q361.87 67.17 367.70 67.17L367.70 67.17Q371.88 67.17 371.88 74.51L371.88 74.51Q371.88 75.45 371.66 76.71Q371.45 77.97 371.23 78.69L371.23 78.69L371.74 78.83Q374.18 73.72 376.63 70.44Q379.08 67.17 381.82 67.17L381.82 67.17Q384.19 67.17 385.42 68.64Q386.64 70.12 386.64 72.14L386.64 72.14Q386.64 74.01 385.42 75.48Q384.19 76.96 382.18 76.96L382.18 76.96Q380.95 76.96 380.16 76.10Q379.37 75.23 379.37 73.94L379.37 73.94Q379.37 72.64 380.23 71.63L380.23 71.63Q380.95 70.91 380.95 70.55L380.95 70.55Q380.95 70.12 380.77 69.90Q380.59 69.69 380.02 69.69L380.02 69.69Q378.36 69.69 375.73 74.19Q373.10 78.69 370.58 84.84Q368.06 91 366.70 95.54L366.70 95.54L365.33 100L360.58 100ZM396.58 100.86Q392.76 100.86 390.64 98.16Q388.51 95.46 388.51 91L388.51 91Q388.51 86.68 390.13 82.47Q391.75 78.26 393.62 75.30L393.62 75.30Q396 71.49 399.28 69.33Q402.55 67.17 405.86 67.17L405.86 67.17Q408.02 67.17 409.75 68.82Q411.48 70.48 412.06 73.50L412.06 73.50L412.34 73.65L418.18 52.05L418.25 51.54Q418.25 50.46 417.02 50.46L417.02 50.46L410.69 50.46L411.19 48.74L423.94 48.74L412.56 90.71Q411.55 94.74 411.55 96.47L411.55 96.47Q411.55 97.48 411.84 97.95Q412.13 98.42 412.85 98.42L412.85 98.42Q414.79 98.42 416.92 95.18Q419.04 91.94 420.70 86.90L420.70 86.90L422.14 87.33Q420.12 92.94 417.49 96.90Q414.86 100.86 411.55 100.86L411.55 100.86Q407.38 100.86 407.38 93.52L407.38 93.52Q407.38 92.58 407.41 92.12Q407.45 91.65 407.45 91.58L407.45 91.58L407.23 91.43Q405.72 94.67 402.80 97.77Q399.89 100.86 396.58 100.86L396.58 100.86ZM397.01 99.14Q399.67 99.14 402.12 96.44Q404.57 93.74 406.66 89.20L406.66 89.20Q408.10 85.96 409.18 82Q410.26 78.04 410.26 75.52L410.26 75.52Q410.26 72.35 408.96 70.62Q407.66 68.90 405.43 68.90L405.43 68.90Q403.20 68.90 401.18 71.34Q399.17 73.79 397.73 76.96L397.73 76.96Q395.93 80.99 394.81 85.53Q393.70 90.06 393.70 93.88L393.70 93.88Q393.70 96.04 394.45 97.59Q395.21 99.14 397.01 99.14L397.01 99.14ZM451.44 100L452.02 97.70L459.22 97.70Q461.09 97.70 461.59 95.75L461.59 95.75L473.18 52.98Q473.33 52.26 473.33 52.12L473.33 52.12Q473.33 51.04 471.89 51.04L471.89 51.04L469.51 51.04Q467.06 51.04 464.87 52.26Q462.67 53.49 461.23 54.86L461.23 54.86Q459.14 56.87 457.52 59.79Q455.90 62.70 454.93 65.26Q453.96 67.82 453.96 68.03L453.96 68.03L452.16 68.03L457.92 48.74L497.38 48.74L492.84 68.03L491.04 68.03Q491.11 67.74 491.29 66.74Q491.47 65.73 491.69 64.00Q491.90 62.27 491.90 60.54L491.90 60.54Q491.90 55.22 489.71 53.13Q487.51 51.04 484.70 51.04L484.70 51.04L482.33 51.04Q480.17 51.04 479.74 52.98L479.74 52.98L468.14 95.75Q468.07 96.04 468.07 96.54L468.07 96.54Q468.07 97.12 468.40 97.41Q468.72 97.70 469.44 97.70L469.44 97.70L476.64 97.70L476.06 100L451.44 100ZM501.12 100L501.70 97.70L508.90 97.70Q510.77 97.70 511.27 95.75L511.27 95.75L522.86 52.98Q523.01 52.26 523.01 52.12L523.01 52.12Q523.01 51.04 521.57 51.04L521.57 51.04L519.19 51.04Q516.74 51.04 514.55 52.26Q512.35 53.49 510.91 54.86L510.91 54.86Q508.82 56.87 507.20 59.79Q505.58 62.70 504.61 65.26Q503.64 67.82 503.64 68.03L503.64 68.03L501.84 68.03L507.60 48.74L547.06 48.74L542.52 68.03L540.72 68.03Q540.79 67.74 540.97 66.74Q541.15 65.73 541.37 64.00Q541.58 62.27 541.58 60.54L541.58 60.54Q541.58 55.22 539.39 53.13Q537.19 51.04 534.38 51.04L534.38 51.04L532.01 51.04Q529.85 51.04 529.42 52.98L529.42 52.98L517.82 95.75Q517.75 96.04 517.75 96.54L517.75 96.54Q517.75 97.12 518.08 97.41Q518.40 97.70 519.12 97.70L519.12 97.70L526.32 97.70L525.74 100L501.12 100ZM582.62 57.81Q581.04 57.81 579.96 56.73Q578.88 55.65 578.88 54.06L578.88 54.06Q578.88 52.41 579.96 51.36Q581.04 50.32 582.62 50.32L582.62 50.32Q584.28 50.32 585.32 51.36Q586.37 52.41 586.37 54.06L586.37 54.06Q586.37 55.65 585.32 56.73Q584.28 57.81 582.62 57.81L582.62 57.81ZM574.92 100.86Q572.98 100.86 571.64 99.14Q570.31 97.41 570.31 93.95L570.31 93.95Q570.31 92.37 570.74 90.17Q571.18 87.98 571.75 86.61L571.75 86.61L576.36 75.88Q576.72 75.09 577.12 73.79Q577.51 72.50 577.51 71.63L577.51 71.63Q577.51 70.62 577.12 69.98Q576.72 69.33 575.93 69.33L575.93 69.33Q573.48 69.33 571.21 73.07Q568.94 76.82 567.36 81.14L567.36 81.14L565.92 80.70Q567.86 74.94 570.67 71.06Q573.48 67.17 576.72 67.17L576.72 67.17Q578.59 67.17 579.92 68.97Q581.26 70.77 581.26 74.08L581.26 74.08Q581.26 75.66 580.82 77.93Q580.39 80.20 579.82 81.42L579.82 81.42L575.21 92.15Q574.85 92.94 574.45 94.24Q574.06 95.54 574.06 96.40L574.06 96.40Q574.06 97.41 574.49 98.06Q574.92 98.70 575.71 98.70L575.71 98.70Q578.16 98.70 580.39 94.96Q582.62 91.22 584.21 86.90L584.21 86.90L585.65 87.33Q583.70 93.16 580.93 97.01Q578.16 100.86 574.92 100.86L574.92 100.86ZM596.45 100.86Q594.07 100.86 592.60 99.24Q591.12 97.62 591.12 94.82L591.12 94.82Q591.12 92.08 591.91 88.91L591.91 88.91L597.10 70.05L592.13 70.05L592.63 68.03L597.67 68.03L602.35 50.75L607.10 50.75L602.42 68.03L610.56 68.03L610.06 70.05L601.85 70.05L595.87 92.22Q595.66 92.94 595.48 94.20Q595.30 95.46 595.30 96.26L595.30 96.26Q595.30 96.90 595.80 97.62Q596.30 98.34 597.38 98.34L597.38 98.34Q598.32 98.34 599.26 97.77L599.26 97.77Q600.91 96.62 602.10 93.84Q603.29 91.07 604.44 86.90L604.44 86.90L605.88 87.33Q604.44 93.45 602.28 97.16Q600.12 100.86 596.45 100.86L596.45 100.86ZM621.50 100.86Q617.69 100.86 615.56 98.16Q613.44 95.46 613.44 91L613.44 91Q613.44 86.61 614.74 82.54Q616.03 78.47 617.69 75.88L617.69 75.88Q620.21 71.92 623.56 69.54Q626.90 67.17 630.36 67.17L630.36 67.17Q632.59 67.17 634.39 68.72Q636.19 70.26 636.98 73.50L636.98 73.50L637.27 73.65L638.86 68.03L643.61 68.03L637.49 90.71Q636.48 94.74 636.48 96.47L636.48 96.47Q636.48 97.48 636.77 97.95Q637.06 98.42 637.78 98.42L637.78 98.42Q639.72 98.42 641.81 95.21Q643.90 92.01 645.62 86.90L645.62 86.90L647.06 87.33Q645.19 92.87 642.49 96.87Q639.79 100.86 636.48 100.86L636.48 100.86Q632.30 100.86 632.30 93.52L632.30 93.52Q632.30 92.58 632.34 92.12Q632.38 91.65 632.38 91.58L632.38 91.58L632.16 91.43Q630.65 94.67 627.73 97.77Q624.82 100.86 621.50 100.86L621.50 100.86ZM621.94 99.14Q624.60 99.14 627.05 96.44Q629.50 93.74 631.58 89.20L631.58 89.20Q633.02 85.96 634.10 82Q635.18 78.04 635.18 75.52L635.18 75.52Q635.18 72.35 633.89 70.62Q632.59 68.90 630.36 68.90L630.36 68.90Q628.13 68.90 626.11 71.34Q624.10 73.79 622.66 76.96L622.66 76.96Q620.86 80.99 619.74 85.53Q618.62 90.06 618.62 93.88L618.62 93.88Q618.62 96.04 619.38 97.59Q620.14 99.14 621.94 99.14L621.94 99.14ZM657.07 100.86Q652.90 100.86 652.90 93.52L652.90 93.52Q652.90 92.08 653.62 89.20L653.62 89.20L663.84 52.05Q663.98 51.47 663.98 51.33L663.98 51.33Q663.98 50.46 662.69 50.46L662.69 50.46L656.35 50.46L656.86 48.74L669.46 48.74L658.22 90.06Q657.07 94.67 657.07 96.47L657.07 96.47Q657.07 97.48 657.36 97.95Q657.65 98.42 658.44 98.42L658.44 98.42Q660.46 98.42 662.51 95.07Q664.56 91.72 666.22 86.90L666.22 86.90L667.66 87.33Q665.71 92.80 663.19 96.83Q660.67 100.86 657.07 100.86L657.07 100.86ZM689.18 57.81Q687.60 57.81 686.52 56.73Q685.44 55.65 685.44 54.06L685.44 54.06Q685.44 52.41 686.52 51.36Q687.60 50.32 689.18 50.32L689.18 50.32Q690.84 50.32 691.88 51.36Q692.93 52.41 692.93 54.06L692.93 54.06Q692.93 55.65 691.88 56.73Q690.84 57.81 689.18 57.81L689.18 57.81ZM681.48 100.86Q679.54 100.86 678.20 99.14Q676.87 97.41 676.87 93.95L676.87 93.95Q676.87 92.37 677.30 90.17Q677.74 87.98 678.31 86.61L678.31 86.61L682.92 75.88Q683.28 75.09 683.68 73.79Q684.07 72.50 684.07 71.63L684.07 71.63Q684.07 70.62 683.68 69.98Q683.28 69.33 682.49 69.33L682.49 69.33Q680.04 69.33 677.77 73.07Q675.50 76.82 673.92 81.14L673.92 81.14L672.48 80.70Q674.42 74.94 677.23 71.06Q680.04 67.17 683.28 67.17L683.28 67.17Q685.15 67.17 686.48 68.97Q687.82 70.77 687.82 74.08L687.82 74.08Q687.82 75.66 687.38 77.93Q686.95 80.20 686.38 81.42L686.38 81.42L681.77 92.15Q681.41 92.94 681.01 94.24Q680.62 95.54 680.62 96.40L680.62 96.40Q680.62 97.41 681.05 98.06Q681.48 98.70 682.27 98.70L682.27 98.70Q684.72 98.70 686.95 94.96Q689.18 91.22 690.77 86.90L690.77 86.90L692.21 87.33Q690.26 93.16 687.49 97.01Q684.72 100.86 681.48 100.86L681.48 100.86ZM707.33 100.86Q703.01 100.86 700.34 97.30Q697.68 93.74 697.68 88.62L697.68 88.62Q697.68 84.30 699.26 80.09Q700.85 75.88 704.02 72.57L704.02 72.57Q706.54 69.90 709.09 68.54Q711.65 67.17 714.82 67.17L714.82 67.17Q717.55 67.17 719.64 68.90Q721.73 70.62 721.73 74.37L721.73 74.37Q721.73 76.53 720.54 77.97Q719.35 79.41 717.62 79.41L717.62 79.41Q716.26 79.41 715.54 78.58Q714.82 77.75 714.82 76.67L714.82 76.67Q714.82 74.58 717.12 72.93L717.12 72.93Q717.91 72.28 717.91 71.06L717.91 71.06Q717.91 70.41 717.12 69.65Q716.33 68.90 714.53 68.90L714.53 68.90Q708.91 68.90 704.74 81.42L704.74 81.42Q703.94 83.80 703.40 87.36Q702.86 90.93 702.86 92.94L702.86 92.94Q702.86 96.11 704.27 97.62Q705.67 99.14 707.69 99.14L707.69 99.14Q712.15 99.14 714.96 95.54Q717.77 91.94 718.92 88.84L718.92 88.84L720.43 89.34Q718.70 94.24 715.18 97.55Q711.65 100.86 707.33 100.86L707.33 100.86Z"/></svg>