<svg xmlns="http://www.w3.org/2000/svg" viewBox="6.6240000000000006 47.43999999999999 715.104 53.856000000000016"><path d="M22 101Q17 101 14 99Q10 96 8 92Q7 87 7 82L7 82Q7 73 11 65Q15 57 21 52Q28 47 34 47L34 47Q39 47 42 50Q46 53 48 57Q49 61 49 67L49 67Q49 76 45 84Q41 92 35 97Q29 101 22 101L22 101ZM22 99Q29 99 33 94Q37 89 39 82L39 82Q41 77 42 71Q42 66 42 63L42 63Q42 56 40 53Q38 50 34 50L34 50Q27 50 23 55Q19 60 17 67L17 67Q15 72 14 77Q14 82 14 86L14 86Q14 92 16 96Q18 99 22 99L22 99ZM59 101Q55 101 55 94L55 94Q55 92 56 89L56 89L66 52Q66 51 66 51L66 51Q66 50 65 50L65 50L58 50L59 49L72 49L60 90Q59 95 59 96L59 96Q59 97 59 98Q60 98 61 98L61 98Q63 98 65 95Q67 92 68 87L68 87L70 87Q68 93 65 97Q63 101 59 101L59 101ZM83 101Q79 101 77 98Q75 95 75 91L75 91Q75 87 77 82Q78 78 80 75L80 75Q83 71 86 69Q89 67 92 67L92 67Q95 67 96 69Q98 70 99 74L99 74L99 74L105 52L105 52Q105 50 104 50L104 50L97 50L98 49L110 49L99 91Q98 95 98 96L98 96Q98 97 98 98Q99 98 99 98L99 98Q101 98 103 95Q106 92 107 87L107 87L109 87Q107 93 104 97Q101 101 98 101L98 101Q94 101 94 94L94 94Q94 93 94 92Q94 92 94 92L94 92L94 91Q92 95 89 98Q86 101 83 101L83 101ZM84 99Q86 99 89 96Q91 94 93 89L93 89Q95 86 96 82Q97 78 97 76L97 76Q97 72 95 71Q94 69 92 69L92 69Q90 69 88 71Q86 74 84 77L84 77Q82 81 81 86Q80 90 80 94L80 94Q80 96 81 98Q82 99 84 99L84 99ZM153 101Q148 101 145 99Q142 98 140 96L140 96Q140 95 139 95Q139 95 138 95L138 95Q137 95 136 97Q135 99 134 101L134 101L133 101L139 78L140 78Q140 80 140 82L140 82Q140 86 142 90Q143 94 147 97Q150 99 153 99L153 99Q159 99 163 96Q166 94 166 89L166 89Q166 86 164 84Q163 83 160 81L160 81L151 76Q147 73 145 70Q143 67 143 63L143 63Q143 55 147 51Q152 47 159 47L159 47Q161 47 164 49Q167 50 168 52L168 52Q169 52 169 53Q170 53 170 53L170 53Q171 53 172 51Q173 50 174 48L174 48L176 48L171 67L170 67Q170 63 168 59Q167 55 164 52Q161 50 158 50L158 50Q155 50 152 51Q149 52 148 55Q147 57 147 59L147 59Q147 63 149 65Q151 67 154 69L154 69L161 73Q164 75 166 76Q168 78 169 80Q170 82 170 86L170 86Q170 93 166 97Q161 101 153 101L153 101ZM184 101Q182 101 180 99Q179 98 179 95L179 95Q179 92 179 89L179 89L185 70L180 70L180 68L185 68L190 51L195 51L190 68L198 68L198 70L189 70L183 92Q183 93 183 94Q183 95 183 96L183 96Q183 97 183 98Q184 98 185 98L185 98Q186 98 187 98L187 98Q188 97 190 94Q191 91 192 87L192 87L193 87Q192 93 190 97Q188 101 184 101L184 101ZM209 101Q205 101 203 98Q201 95 201 91L201 91Q201 87 202 83Q204 78 205 76L205 76Q208 72 211 70Q214 67 218 67L218 67Q220 67 222 69Q224 70 225 74L225 74L225 74L226 68L231 68L225 91Q224 95 224 96L224 96Q224 97 224 98Q225 98 225 98L225 98Q227 98 229 95Q231 92 233 87L233 87L235 87Q233 93 230 97Q227 101 224 101L224 101Q220 101 220 94L220 94Q220 93 220 92Q220 92 220 92L220 92L220 91Q218 95 215 98Q212 101 209 101L209 101ZM210 99Q212 99 215 96Q217 94 219 89L219 89Q221 86 222 82Q223 78 223 76L223 76Q223 72 221 71Q220 69 218 69L218 69Q216 69 214 71Q212 74 210 77L210 77Q208 81 207 86Q206 90 206 94L206 94Q206 96 207 98Q208 99 210 99L210 99ZM265 101Q263 101 262 99Q261 97 261 94L261 94Q261 92 261 90Q262 88 262 87L262 87L267 76Q267 75 268 74Q268 72 268 72L268 72Q268 71 268 70Q267 69 266 69L266 69Q262 69 257 77L257 77Q254 82 252 87Q250 92 249 95L249 95L247 100L243 100L249 78Q250 73 250 72L250 72Q250 71 249 70Q249 70 248 70L248 70Q246 70 244 73Q242 76 241 81L241 81L239 81Q244 67 250 67L250 67Q254 67 254 75L254 75Q254 76 253 79Q253 82 252 83L252 83L252 83L253 82Q256 76 260 71Q263 67 267 67L267 67Q269 67 270 69Q272 71 272 74L272 74Q272 76 271 78Q271 80 270 81L270 81L266 92Q265 93 265 94Q264 96 264 96L264 96Q264 97 265 98Q265 99 266 99L266 99Q269 99 271 95Q273 91 275 87L275 87L276 87Q274 93 271 97Q269 101 265 101L265 101ZM289 101Q285 101 283 98Q281 95 281 91L281 91Q281 87 282 82Q284 78 286 75L286 75Q288 71 292 69Q295 67 298 67L298 67Q300 67 302 69Q304 70 304 74L304 74L305 74L310 52L311 52Q311 50 309 50L309 50L303 50L303 49L316 49L305 91Q304 95 304 96L304 96Q304 97 304 98Q304 98 305 98L305 98Q307 98 309 95Q311 92 313 87L313 87L314 87Q312 93 310 97Q307 101 304 101L304 101Q300 101 300 94L300 94Q300 93 300 92Q300 92 300 92L300 92L300 91Q298 95 295 98Q292 101 289 101L289 101ZM289 99Q292 99 294 96Q297 94 299 89L299 89Q300 86 301 82Q303 78 303 76L303 76Q303 72 301 71Q300 69 298 69L298 69Q295 69 293 71Q291 74 290 77L290 77Q288 81 287 86Q286 90 286 94L286 94Q286 96 287 98Q287 99 289 99L289 99ZM327 101Q323 101 321 98Q319 95 319 91L319 91Q319 87 320 83Q322 78 323 76L323 76Q326 72 329 70Q332 67 336 67L336 67Q338 67 340 69Q342 70 343 74L343 74L343 74L344 68L349 68L343 91Q342 95 342 96L342 96Q342 97 342 98Q343 98 343 98L343 98Q345 98 347 95Q349 92 351 87L351 87L353 87Q351 93 348 97Q345 101 342 101L342 101Q338 101 338 94L338 94Q338 93 338 92Q338 92 338 92L338 92L338 91Q336 95 333 98Q330 101 327 101L327 101ZM327 99Q330 99 333 96Q335 94 337 89L337 89Q339 86 340 82Q341 78 341 76L341 76Q341 72 339 71Q338 69 336 69L336 69Q334 69 332 71Q330 74 328 77L328 77Q326 81 325 86Q324 90 324 94L324 94Q324 96 325 98Q326 99 327 99L327 99ZM361 100L367 78Q368 73 368 72L368 72Q368 71 367 70Q367 70 366 70L366 70Q364 70 362 73Q360 76 359 81L359 81L357 81Q362 67 368 67L368 67Q372 67 372 75L372 75Q372 75 372 77Q371 78 371 79L371 79L372 79Q374 74 377 70Q379 67 382 67L382 67Q384 67 385 69Q387 70 387 72L387 72Q387 74 385 75Q384 77 382 77L382 77Q381 77 380 76Q379 75 379 74L379 74Q379 73 380 72L380 72Q381 71 381 71L381 71Q381 70 381 70Q381 70 380 70L380 70Q378 70 376 74Q373 79 371 85Q368 91 367 96L367 96L365 100L361 100ZM397 101Q393 101 391 98Q389 95 389 91L389 91Q389 87 390 82Q392 78 394 75L394 75Q396 71 399 69Q403 67 406 67L406 67Q408 67 410 69Q411 70 412 74L412 74L412 74L418 52L418 52Q418 50 417 50L417 50L411 50L411 49L424 49L413 91Q412 95 412 96L412 96Q412 97 412 98Q412 98 413 98L413 98Q415 98 417 95Q419 92 421 87L421 87L422 87Q420 93 417 97Q415 101 412 101L412 101Q407 101 407 94L407 94Q407 93 407 92Q407 92 407 92L407 92L407 91Q406 95 403 98Q400 101 397 101L397 101ZM397 99Q400 99 402 96Q405 94 407 89L407 89Q408 86 409 82Q410 78 410 76L410 76Q410 72 409 71Q408 69 405 69L405 69Q403 69 401 71Q399 74 398 77L398 77Q396 81 395 86Q394 90 394 94L394 94Q394 96 394 98Q395 99 397 99L397 99ZM451 100L452 98L459 98Q461 98 462 96L462 96L473 53Q473 52 473 52L473 52Q473 51 472 51L472 51L470 51Q467 51 465 52Q463 53 461 55L461 55Q459 57 458 60Q456 63 455 65Q454 68 454 68L454 68L452 68L458 49L497 49L493 68L491 68Q491 68 491 67Q491 66 492 64Q492 62 492 61L492 61Q492 55 490 53Q488 51 485 51L485 51L482 51Q480 51 480 53L480 53L468 96Q468 96 468 97L468 97Q468 97 468 97Q469 98 469 98L469 98L477 98L476 100L451 100ZM501 100L502 98L509 98Q511 98 511 96L511 96L523 53Q523 52 523 52L523 52Q523 51 522 51L522 51L519 51Q517 51 515 52Q512 53 511 55L511 55Q509 57 507 60Q506 63 505 65Q504 68 504 68L504 68L502 68L508 49L547 49L543 68L541 68Q541 68 541 67Q541 66 541 64Q542 62 542 61L542 61Q542 55 539 53Q537 51 534 51L534 51L532 51Q530 51 529 53L529 53L518 96Q518 96 518 97L518 97Q518 97 518 97Q518 98 519 98L519 98L526 98L526 100L501 100ZM583 58Q581 58 580 57Q579 56 579 54L579 54Q579 52 580 51Q581 50 583 50L583 50Q584 50 585 51Q586 52 586 54L586 54Q586 56 585 57Q584 58 583 58L583 58ZM575 101Q573 101 572 99Q570 97 570 94L570 94Q570 92 571 90Q571 88 572 87L572 87L576 76Q577 75 577 74Q578 72 578 72L578 72Q578 71 577 70Q577 69 576 69L576 69Q573 69 571 73Q569 77 567 81L567 81L566 81Q568 75 571 71Q573 67 577 67L577 67Q579 67 580 69Q581 71 581 74L581 74Q581 76 581 78Q580 80 580 81L580 81L575 92Q575 93 574 94Q574 96 574 96L574 96Q574 97 574 98Q575 99 576 99L576 99Q578 99 580 95Q583 91 584 87L584 87L586 87Q584 93 581 97Q578 101 575 101L575 101ZM596 101Q594 101 593 99Q591 98 591 95L591 95Q591 92 592 89L592 89L597 70L592 70L593 68L598 68L602 51L607 51L602 68L611 68L610 70L602 70L596 92Q596 93 595 94Q595 95 595 96L595 96Q595 97 596 98Q596 98 597 98L597 98Q598 98 599 98L599 98Q601 97 602 94Q603 91 604 87L604 87L606 87Q604 93 602 97Q600 101 596 101L596 101ZM622 101Q618 101 616 98Q613 95 613 91L613 91Q613 87 615 83Q616 78 618 76L618 76Q620 72 624 70Q627 67 630 67L630 67Q633 67 634 69Q636 70 637 74L637 74L637 74L639 68L644 68L637 91Q636 95 636 96L636 96Q636 97 637 98Q637 98 638 98L638 98Q640 98 642 95Q644 92 646 87L646 87L647 87Q645 93 642 97Q640 101 636 101L636 101Q632 101 632 94L632 94Q632 93 632 92Q632 92 632 92L632 92L632 91Q631 95 628 98Q625 101 622 101L622 101ZM622 99Q625 99 627 96Q629 94 632 89L632 89Q633 86 634 82Q635 78 635 76L635 76Q635 72 634 71Q633 69 630 69L630 69Q628 69 626 71Q624 74 623 77L623 77Q621 81 620 86Q619 90 619 94L619 94Q619 96 619 98Q620 99 622 99L622 99ZM657 101Q653 101 653 94L653 94Q653 92 654 89L654 89L664 52Q664 51 664 51L664 51Q664 50 663 50L663 50L656 50L657 49L669 49L658 90Q657 95 657 96L657 96Q657 97 657 98Q658 98 658 98L658 98Q660 98 663 95Q665 92 666 87L666 87L668 87Q666 93 663 97Q661 101 657 101L657 101ZM689 58Q688 58 687 57Q685 56 685 54L685 54Q685 52 687 51Q688 50 689 50L689 50Q691 50 692 51Q693 52 693 54L693 54Q693 56 692 57Q691 58 689 58L689 58ZM681 101Q680 101 678 99Q677 97 677 94L677 94Q677 92 677 90Q678 88 678 87L678 87L683 76Q683 75 684 74Q684 72 684 72L684 72Q684 71 684 70Q683 69 682 69L682 69Q680 69 678 73Q676 77 674 81L674 81L672 81Q674 75 677 71Q680 67 683 67L683 67Q685 67 686 69Q688 71 688 74L688 74Q688 76 687 78Q687 80 686 81L686 81L682 92Q681 93 681 94Q681 96 681 96L681 96Q681 97 681 98Q681 99 682 99L682 99Q685 99 687 95Q689 91 691 87L691 87L692 87Q690 93 687 97Q685 101 681 101L681 101ZM707 101Q703 101 700 97Q698 94 698 89L698 89Q698 84 699 80Q701 76 704 73L704 73Q707 70 709 69Q712 67 715 67L715 67Q718 67 720 69Q722 71 722 74L722 74Q722 77 721 78Q719 79 718 79L718 79Q716 79 716 79Q715 78 715 77L715 77Q715 75 717 73L717 73Q718 72 718 71L718 71Q718 70 717 70Q716 69 715 69L715 69Q709 69 705 81L705 81Q704 84 703 87Q703 91 703 93L703 93Q703 96 704 98Q706 99 708 99L708 99Q712 99 715 96Q718 92 719 89L719 89L720 89Q719 94 715 98Q712 101 707 101L707 101Z"/></svg>