<svg xmlns="http://www.w3.org/2000/svg" viewBox="4.74609375 45.296875 692.71875 72"><path d="M14 101L14 101Q5 101 5 87L5 87Q5 80 6 72Q8 64 11 59Q14 53 17 51Q21 48 25 48L25 48Q34 48 34 61L34 61Q34 71 32 81Q29 91 24 96Q20 101 14 101ZM8 87L8 87Q8 97 15 97L15 97Q18 97 21 95Q24 92 26 86Q28 81 30 74Q31 67 31 61L31 61Q31 51 24 51L24 51Q21 51 18 54Q15 56 13 62Q11 67 10 74Q8 81 8 87ZM55 61L55 61Q62 61 62 71L62 71Q62 78 60 86Q58 93 54 97Q51 101 47 101L47 101Q44 101 43 99Q41 98 41 95L41 95L40 95L36 117L33 117L44 62L47 62L46 67L47 67Q51 61 55 61ZM55 64L55 64Q51 64 49 68Q46 71 44 78Q42 85 42 91L42 91Q42 98 47 98L47 98Q50 98 53 94Q55 90 57 84Q59 77 59 71L59 71Q59 67 58 66Q57 64 55 64ZM75 101L75 101Q71 101 68 98Q66 95 66 90L66 90Q66 82 68 75Q70 69 74 65Q78 61 82 61L82 61Q85 61 86 63Q88 65 88 68L88 68Q88 73 86 76Q84 79 80 81Q76 82 71 82L71 82L70 82Q70 86 70 89L70 89Q70 98 76 98L76 98Q78 98 79 97Q81 97 82 96L82 96L82 99Q79 101 75 101ZM81 64L81 64Q78 64 75 68Q72 73 71 79L71 79Q85 79 85 68L85 68Q85 66 84 65Q83 64 81 64ZM108 100L105 100L111 71Q111 70 111 68L111 68Q111 64 108 64L108 64Q104 64 102 68Q99 72 98 79L98 79L93 100L90 100L98 62L101 62L100 67L100 67Q103 61 108 61L108 61Q111 61 113 63Q115 65 115 68L115 68Q115 70 114 72L114 72L108 100ZM150 86L150 86Q150 93 146 97Q143 101 136 101L136 101Q133 101 131 100Q129 100 127 99L127 99L127 95Q132 97 137 97L137 97Q141 97 144 94Q146 91 146 86L146 86Q146 84 146 82Q145 80 144 79Q143 77 140 74L140 74Q138 71 137 69Q136 68 135 66Q134 64 134 62L134 62Q134 58 136 55Q138 51 141 50Q144 48 148 48L148 48Q150 48 153 48Q155 49 157 50L157 50L155 53Q152 51 148 51L148 51Q145 51 143 53Q140 54 139 56Q138 59 138 61L138 61Q138 64 139 66Q140 68 143 71L143 71Q146 75 148 77Q149 78 149 81Q150 83 150 86ZM164 101L164 101Q157 101 157 91L157 91Q157 83 159 76Q161 69 165 65Q168 61 172 61L172 61Q177 61 178 66L178 66L179 66L180 62L183 62L175 100L172 100L173 95L173 95Q169 101 164 101ZM164 98L164 98Q168 98 170 94Q173 90 175 83Q177 76 177 70L177 70Q177 67 176 66Q174 64 172 64L172 64Q169 64 166 68Q164 71 162 78Q160 85 160 91L160 91Q160 94 161 96Q162 98 164 98ZM202 100L199 100L205 71Q205 70 205 68L205 68Q205 64 202 64L202 64Q198 64 196 68Q193 72 192 79L192 79L187 100L184 100L192 62L195 62L194 67L194 67Q197 61 202 61L202 61Q205 61 207 63Q209 65 209 68L209 68Q209 70 208 72L208 72L202 100ZM217 101L217 101Q215 101 213 100Q211 100 210 99L210 99L210 95Q211 96 213 97Q215 98 217 98L217 98Q220 98 222 96Q224 94 224 90L224 90Q224 88 223 87Q223 86 222 85Q222 84 220 81L220 81Q217 79 217 78Q216 76 215 75Q215 73 215 71L215 71Q215 67 218 64Q221 61 225 61L225 61Q230 61 233 63L233 63L231 66Q228 64 225 64L225 64Q222 64 220 66Q218 68 218 71L218 71Q218 73 219 75Q220 76 222 79L222 79Q224 81 225 83Q226 84 227 86Q227 88 227 90L227 90Q227 95 224 98Q222 101 217 101ZM268 51L268 51Q263 51 259 56Q255 60 253 68Q250 76 250 84L250 84Q250 91 252 94Q254 97 258 97L258 97Q261 97 264 96L264 96L264 99Q261 101 257 101L257 101Q252 101 249 97Q247 93 247 84L247 84Q247 75 250 66Q253 58 258 53Q262 48 268 48L268 48Q272 48 275 50L275 50L273 53Q271 51 268 51ZM279 101L279 101Q276 101 274 98Q272 95 272 90L272 90Q272 85 273 79Q274 73 276 69Q278 65 281 63Q284 61 287 61L287 61Q291 61 293 64Q295 67 295 72L295 72Q295 77 294 83Q292 88 290 92Q288 96 285 99Q283 101 279 101ZM275 91L275 91Q275 98 280 98L280 98Q283 98 286 94Q288 91 290 84Q291 78 291 71L291 71Q291 64 287 64L287 64Q284 64 281 68Q278 71 277 78Q275 84 275 91ZM316 100L312 100L318 71Q319 70 319 68L319 68Q319 64 315 64L315 64Q312 64 309 68Q307 72 305 79L305 79L301 100L297 100L305 62L308 62L307 67L307 67Q311 61 316 61L316 61Q319 61 321 63Q322 65 322 68L322 68Q322 70 322 72L322 72L316 100ZM333 101L333 101Q326 101 326 91L326 91Q326 83 329 76Q331 69 334 65Q338 61 342 61L342 61Q344 61 346 63Q348 64 348 66L348 66L348 66L353 45L356 45L344 100L342 100L342 95L342 95Q338 101 333 101ZM334 98L334 98Q337 98 340 94Q343 91 345 84Q347 77 347 70L347 70Q347 67 345 66Q344 64 342 64L342 64Q339 64 336 68Q333 71 332 78Q330 85 330 91L330 91Q330 94 331 96Q332 98 334 98ZM364 101L364 101Q360 101 358 98Q355 95 355 90L355 90Q355 82 357 75Q359 69 363 65Q367 61 371 61L371 61Q374 61 375 63Q377 65 377 68L377 68Q377 73 375 76Q373 79 369 81Q365 82 360 82L360 82L359 82Q359 86 359 89L359 89Q359 98 365 98L365 98Q367 98 368 97Q370 97 372 96L372 96L372 99Q369 101 364 101ZM370 64L370 64Q367 64 364 68Q361 73 360 79L360 79Q374 79 374 68L374 68Q374 66 373 65Q372 64 370 64ZM397 100L394 100L400 71Q400 70 400 68L400 68Q400 64 397 64L397 64Q393 64 391 68Q388 72 387 79L387 79L382 100L379 100L387 62L390 62L389 67L389 67Q392 61 398 61L398 61Q401 61 402 63Q404 65 404 68L404 68Q404 70 403 72L403 72L397 100ZM412 101L412 101Q410 101 408 100Q406 100 405 99L405 99L405 95Q406 96 408 97Q410 98 412 98L412 98Q415 98 417 96Q419 94 419 90L419 90Q419 88 419 87Q418 86 418 85Q417 84 415 81L415 81Q413 79 412 78Q411 76 410 75Q410 73 410 71L410 71Q410 67 413 64Q416 61 420 61L420 61Q425 61 428 63L428 63L426 66Q424 64 420 64L420 64Q417 64 415 66Q413 68 413 71L413 71Q413 73 414 75Q415 76 417 79L417 79Q419 81 420 83Q421 84 422 86Q422 88 422 90L422 90Q422 95 420 98Q417 101 412 101ZM438 101L438 101Q434 101 431 98Q429 95 429 90L429 90Q429 82 431 75Q433 69 437 65Q441 61 445 61L445 61Q448 61 449 63Q451 65 451 68L451 68Q451 73 449 76Q447 79 443 81Q439 82 434 82L434 82L433 82Q432 86 432 89L432 89Q432 98 439 98L439 98Q441 98 442 97Q443 97 445 96L445 96L445 99Q442 101 438 101ZM444 64L444 64Q441 64 438 68Q435 73 434 79L434 79Q448 79 448 68L448 68Q448 66 447 65Q446 64 444 64ZM461 101L461 101Q454 101 454 91L454 91Q454 83 457 76Q459 69 462 65Q466 61 470 61L470 61Q472 61 474 63Q476 64 476 66L476 66L476 66L481 45L484 45L472 100L470 100L470 95L470 95Q466 101 461 101ZM462 98L462 98Q465 98 468 94Q471 91 473 84Q475 77 475 70L475 70Q475 67 473 66Q472 64 470 64L470 64Q467 64 464 68Q461 71 460 78Q458 85 458 91L458 91Q458 94 459 96Q460 98 462 98ZM509 45L497 100L494 100L505 45L509 45ZM517 62L509 100L506 100L514 62L517 62ZM515 52L515 52Q515 51 516 49Q517 48 518 48L518 48Q520 48 520 50L520 50Q520 52 519 53Q518 55 517 55L517 55Q515 55 515 52ZM537 62L544 62L544 64L539 65Q540 67 540 70L540 70Q540 74 539 78Q537 82 534 84Q532 86 529 86L529 86L528 86L527 86Q523 89 523 92L523 92Q523 93 523 93Q523 94 524 94Q524 94 528 95L528 95Q532 97 534 99Q536 101 536 105L536 105Q536 110 532 114Q529 117 523 117L523 117Q518 117 515 115Q513 113 513 108L513 108Q513 105 515 102Q517 99 522 97L522 97Q519 95 519 93L519 93Q519 91 521 89Q522 87 525 85L525 85Q522 83 522 78L522 78Q522 74 523 70Q525 65 528 63Q530 61 534 61L534 61Q536 61 537 62L537 62ZM516 108L516 108Q516 111 518 113Q520 115 523 115L523 115Q527 115 530 112Q533 109 533 105L533 105Q533 103 531 101Q530 100 527 99L527 99L524 98Q521 99 518 102Q516 105 516 108ZM525 78L525 78Q525 81 526 82Q527 84 529 84L529 84Q531 84 533 82Q534 80 536 76Q537 73 537 69L537 69Q537 64 533 64L533 64Q531 64 529 66Q527 68 526 72Q525 75 525 78ZM560 100L557 100L563 71Q563 70 563 68L563 68Q563 64 560 64L560 64Q556 64 553 68Q551 72 549 79L549 79L545 100L542 100L553 45L556 45L553 61L552 67L552 67Q555 61 560 61L560 61Q563 61 565 63Q566 65 566 68L566 68Q566 70 566 72L566 72L560 100ZM578 97L578 97L578 100Q576 101 574 101L574 101Q570 101 570 95L570 95Q570 94 570 92L570 92L576 65L573 65L573 63L577 62L580 53L582 53L580 62L585 62L584 65L579 65L574 91Q573 93 573 95L573 95Q573 96 574 97Q574 98 576 98L576 98Q577 98 578 97ZM607 62L599 100L595 100L603 62L607 62ZM605 52L605 52Q605 51 606 49Q607 48 608 48L608 48Q610 48 610 50L610 50Q610 52 609 53Q608 55 607 55L607 55Q605 55 605 52ZM617 97L617 97L617 100Q615 101 613 101L613 101Q608 101 608 95L608 95Q608 94 609 92L609 92L615 65L611 65L612 63L615 62L618 53L621 53L619 62L624 62L623 65L618 65L612 91Q612 93 612 95L612 95Q612 96 612 97Q613 98 614 98L614 98Q615 98 617 97ZM630 101L630 101Q623 101 623 91L623 91Q623 83 626 76Q628 69 631 65Q635 61 639 61L639 61Q644 61 645 66L645 66L645 66L647 62L650 62L641 100L639 100L639 95L639 95Q635 101 630 101ZM631 98L631 98Q634 98 637 94Q640 90 642 83Q644 76 644 70L644 70Q644 67 642 66Q641 64 639 64L639 64Q636 64 633 68Q630 71 629 78Q627 85 627 91L627 91Q627 94 628 96Q629 98 631 98ZM666 45L654 100L651 100L662 45L666 45ZM674 62L666 100L663 100L671 62L674 62ZM672 52L672 52Q672 51 673 49Q674 48 675 48L675 48Q677 48 677 50L677 50Q677 52 676 53Q675 55 674 55L674 55Q672 55 672 52ZM685 101L685 101Q681 101 679 98Q677 95 677 90L677 90Q677 82 679 75Q681 68 685 65Q688 61 692 61L692 61Q695 61 697 62L697 62L696 65Q694 64 692 64L692 64Q689 64 686 68Q684 71 682 77Q680 84 680 90L680 90Q680 98 686 98L686 98Q688 98 691 96L691 96L691 99Q688 101 685 101Z"/></svg>