<svg xmlns="http://www.w3.org/2000/svg" viewBox="4.74609375 45.296875 859.5 72"><path d="M49.96 67.59L49.96 67.59Q49.96 77.39 46.62 85.06Q43.28 92.72 37.42 96.71Q31.57 100.70 23.84 100.70L23.84 100.70Q14.73 100.70 9.74 95.45Q4.75 90.19 4.75 80.91L4.75 80.91Q4.75 71.52 8.21 63.77Q11.67 56.02 17.68 51.91Q23.70 47.79 31.32 47.79L31.32 47.79Q40.15 47.79 45.05 53.03Q49.96 58.27 49.96 67.59ZM30.66 55L30.66 55Q25.80 55 21.87 58.38Q17.93 61.75 15.70 67.74Q13.46 73.74 13.46 80.84L13.46 80.84Q13.46 86.92 16.33 90.23Q19.20 93.53 24.33 93.53L24.33 93.53Q29.18 93.53 33.06 90.17Q36.95 86.82 39.11 80.86Q41.27 74.90 41.27 67.66L41.27 67.66Q41.27 61.68 38.50 58.34Q35.72 55 30.66 55ZM72.53 100.70L72.53 100.70Q66.16 100.70 63.07 94.52L63.07 94.52L62.72 94.52Q62.47 97.93 61.84 101.02L61.84 101.02L58.46 117.30L50.27 117.30L62.16 61.12L68.63 61.12L67.89 67.73L68.20 67.73Q73.72 60.41 80.30 60.41L80.30 60.41Q85.32 60.41 88.17 64.04Q91.02 67.66 91.02 74.09L91.02 74.09Q91.02 81.26 88.56 87.50Q86.10 93.74 81.86 97.22Q77.63 100.70 72.53 100.70ZM77.20 67.16L77.20 67.16Q74.36 67.16 71.54 69.96Q68.73 72.75 66.96 77.36Q65.18 81.96 65.18 86.89L65.18 86.89Q65.18 90.26 66.81 92.14Q68.45 94.02 71.44 94.02L71.44 94.02Q74.43 94.02 77.03 91.26Q79.63 88.50 81.14 83.88Q82.65 79.26 82.65 74.23L82.65 74.23Q82.65 67.16 77.20 67.16ZM117.74 66.74L117.74 66.74Q114.36 66.74 111.39 69.77Q108.42 72.79 107.12 77.75L107.12 77.75L108.14 77.75Q114.75 77.75 118.48 75.87Q122.20 73.98 122.20 70.54L122.20 70.54Q122.20 68.75 121.08 67.74Q119.95 66.74 117.74 66.74ZM112.39 100.70L112.39 100.70Q105.47 100.70 101.58 96.80Q97.70 92.90 97.70 85.90L97.70 85.90Q97.70 78.94 100.42 72.95Q103.15 66.95 107.81 63.68Q112.46 60.41 118.23 60.41L118.23 60.41Q123.89 60.41 127.04 62.96Q130.18 65.51 130.18 70.19L130.18 70.19Q130.18 76.59 124.33 80.19Q118.48 83.79 107.65 83.79L107.65 83.79L106.14 83.79L106.07 84.88L106.07 85.90Q106.07 89.80 108.05 92.02Q110.04 94.23 113.98 94.23L113.98 94.23Q116.51 94.23 119.00 93.57Q121.50 92.90 124.91 91.28L124.91 91.28L124.91 97.86Q121.54 99.40 118.71 100.05Q115.88 100.70 112.39 100.70ZM165.16 100L156.87 100L161.86 76.38Q162.49 73.21 162.49 71.77L162.49 71.77Q162.49 67.16 157.96 67.16L157.96 67.16Q155.43 67.16 152.96 69.17Q150.50 71.17 148.54 74.95Q146.57 78.73 145.58 83.51L145.58 83.51L142.14 100L133.84 100L142.14 61.12L148.61 61.12L147.87 68.32L148.18 68.32Q151.10 64.18 154.20 62.29Q157.29 60.41 160.91 60.41L160.91 60.41Q165.62 60.41 168.21 63.09Q170.79 65.76 170.79 70.68L170.79 70.68Q170.79 73.11 169.98 77.04L169.98 77.04L165.16 100ZM226.05 84.95L226.05 84.95Q226.05 92.34 220.97 96.52Q215.89 100.70 206.96 100.70L206.96 100.70Q199.58 100.70 194.73 98.07L194.73 98.07L194.73 90.19Q200.81 93.60 207.04 93.60L207.04 93.60Q211.85 93.60 214.63 91.54Q217.41 89.49 217.41 85.83L217.41 85.83Q217.41 83.41 215.96 81.53Q214.52 79.64 209.92 76.73L209.92 76.73Q206.23 74.37 204.47 72.44Q202.71 70.50 201.78 68.20Q200.85 65.90 200.85 63.12L200.85 63.12Q200.85 58.62 203.01 55.14Q205.17 51.66 209.13 49.76Q213.08 47.86 218.04 47.86L218.04 47.86Q225.25 47.86 231.43 51.10L231.43 51.10L228.41 57.81Q222.75 55.07 218.04 55.07L218.04 55.07Q214.21 55.07 211.89 57.13Q209.57 59.18 209.57 62.49L209.57 62.49Q209.57 64.14 210.09 65.39Q210.62 66.64 211.73 67.71Q212.84 68.78 216.46 71.07L216.46 71.07Q221.91 74.48 223.98 77.66Q226.05 80.84 226.05 84.95ZM244.55 100.70L244.55 100.70Q239.59 100.70 236.71 97.13Q233.82 93.57 233.82 87.10L233.82 87.10Q233.82 80.00 236.27 73.81Q238.71 67.62 243 64.02Q247.29 60.41 252.42 60.41L252.42 60.41Q255.83 60.41 258.29 62.01Q260.75 63.61 262.13 66.67L262.13 66.67L262.48 66.67L264.66 61.12L270.98 61.12L262.69 100L256.29 100L257.03 93.81L256.82 93.81Q251.26 100.70 244.55 100.70ZM247.57 94.02L247.57 94.02Q250.45 94.02 253.23 91.30Q256.01 88.57 257.80 84.00Q259.59 79.43 259.59 74.02L259.59 74.02Q259.59 70.93 257.94 69.04Q256.29 67.16 253.62 67.16L253.62 67.16Q250.63 67.16 247.99 69.87Q245.36 72.58 243.77 77.24Q242.19 81.89 242.19 86.89L242.19 86.89Q242.19 90.47 243.62 92.25Q245.04 94.02 247.57 94.02ZM305.19 100L296.89 100L301.89 76.38Q302.52 73.21 302.52 71.77L302.52 71.77Q302.52 67.16 297.98 67.16L297.98 67.16Q295.45 67.16 292.99 69.17Q290.53 71.17 288.56 74.95Q286.59 78.73 285.61 83.51L285.61 83.51L282.16 100L273.87 100L282.16 61.12L288.63 61.12L287.89 68.32L288.21 68.32Q291.13 64.18 294.22 62.29Q297.32 60.41 300.94 60.41L300.94 60.41Q305.65 60.41 308.23 63.09Q310.82 65.76 310.82 70.68L310.82 70.68Q310.82 73.11 310.01 77.04L310.01 77.04L305.19 100ZM342.18 88.05L342.18 88.05Q342.18 94.13 338.03 97.42Q333.88 100.70 326.50 100.70L326.50 100.70Q319.82 100.70 315.18 98.35L315.18 98.35L315.18 91.21Q320.55 94.38 326.14 94.38L326.14 94.38Q329.55 94.38 331.66 92.97Q333.77 91.56 333.77 89.14L333.77 89.14Q333.77 87.34 332.56 86.06Q331.35 84.78 327.59 82.63L327.59 82.63Q323.19 80.28 321.38 77.83Q319.57 75.39 319.57 72.05L319.57 72.05Q319.57 66.60 323.33 63.51Q327.09 60.41 333.49 60.41L333.49 60.41Q340.38 60.41 345.66 63.37L345.66 63.37L342.98 69.55Q338.06 66.88 333.63 66.88L333.63 66.88Q331.07 66.88 329.47 68.04Q327.87 69.20 327.87 71.28L327.87 71.28Q327.87 72.86 329.03 74.09Q330.19 75.32 333.77 77.25L333.77 77.25Q337.46 79.33 339.01 80.80Q340.56 82.28 341.37 84.02Q342.18 85.76 342.18 88.05ZM393.29 88.05L393.29 88.05Q393.29 94.13 389.14 97.42Q385.00 100.70 377.61 100.70L377.61 100.70Q370.93 100.70 366.29 98.35L366.29 98.35L366.29 91.21Q371.67 94.38 377.26 94.38L377.26 94.38Q380.67 94.38 382.78 92.97Q384.89 91.56 384.89 89.14L384.89 89.14Q384.89 87.34 383.68 86.06Q382.46 84.78 378.70 82.63L378.70 82.63Q374.31 80.28 372.50 77.83Q370.69 75.39 370.69 72.05L370.69 72.05Q370.69 66.60 374.45 63.51Q378.21 60.41 384.61 60.41L384.61 60.41Q391.50 60.41 396.77 63.37L396.77 63.37L394.10 69.55Q389.18 66.88 384.75 66.88L384.75 66.88Q382.18 66.88 380.58 68.04Q378.98 69.20 378.98 71.28L378.98 71.28Q378.98 72.86 380.14 74.09Q381.30 75.32 384.89 77.25L384.89 77.25Q388.58 79.33 390.13 80.80Q391.68 82.28 392.48 84.02Q393.29 85.76 393.29 88.05ZM421.56 66.74L421.56 66.74Q418.18 66.74 415.21 69.77Q412.24 72.79 410.94 77.75L410.94 77.75L411.96 77.75Q418.57 77.75 422.30 75.87Q426.02 73.98 426.02 70.54L426.02 70.54Q426.02 68.75 424.90 67.74Q423.77 66.74 421.56 66.74ZM416.21 100.70L416.21 100.70Q409.29 100.70 405.40 96.80Q401.52 92.90 401.52 85.90L401.52 85.90Q401.52 78.94 404.24 72.95Q406.97 66.95 411.63 63.68Q416.29 60.41 422.05 60.41L422.05 60.41Q427.71 60.41 430.86 62.96Q434.00 65.51 434.00 70.19L434.00 70.19Q434.00 76.59 428.15 80.19Q422.30 83.79 411.47 83.79L411.47 83.79L409.96 83.79L409.89 84.88L409.89 85.90Q409.89 89.80 411.87 92.02Q413.86 94.23 417.80 94.23L417.80 94.23Q420.33 94.23 422.82 93.57Q425.32 92.90 428.73 91.28L428.73 91.28L428.73 97.86Q425.36 99.40 422.53 100.05Q419.70 100.70 416.21 100.70ZM464.38 60.41L464.38 60.41Q472.11 60.41 473.31 68.68L473.31 68.68L473.59 68.68Q476.23 64.60 479.58 62.51Q482.94 60.41 486.56 60.41L486.56 60.41Q491.24 60.41 493.68 63.10Q496.13 65.79 496.13 70.68L496.13 70.68Q496.13 72.93 495.35 77.04L495.35 77.04L490.43 100L482.17 100L487.20 76.38Q487.86 73.04 487.86 71.70L487.86 71.70Q487.86 67.16 483.61 67.16L483.61 67.16Q479.81 67.16 476.53 71.52Q473.24 75.88 471.73 83.09L471.73 83.09L468.18 100L459.91 100L464.94 76.38Q465.54 73.49 465.54 71.91L465.54 71.91Q465.54 67.16 461.43 67.16L461.43 67.16Q457.56 67.16 454.27 71.63Q450.98 76.09 449.40 83.51L449.40 83.51L445.96 100L437.66 100L445.96 61.12L452.43 61.12L451.69 68.32L452.00 68.32Q457.21 60.41 464.38 60.41ZM511.56 51.55L511.56 51.55Q511.56 49.16 512.93 47.69Q514.30 46.21 516.80 46.21L516.80 46.21Q518.66 46.21 519.82 47.14Q520.98 48.07 520.98 49.97L520.98 49.97Q520.98 52.47 519.57 53.91Q518.17 55.35 515.88 55.35L515.88 55.35Q514.02 55.35 512.79 54.44Q511.56 53.52 511.56 51.55ZM518.17 61.12L509.91 100L501.61 100L509.91 61.12L518.17 61.12ZM558.77 100.70L558.77 100.70Q555.33 100.70 552.85 99.12Q550.37 97.54 548.96 94.52L548.96 94.52L548.61 94.52L546.36 100L540.11 100L551.71 45.30L559.97 45.30L557.47 57.00Q557.02 59.22 556.14 62.51Q555.26 65.79 554.73 67.45L554.73 67.45L555.01 67.45Q558.18 63.47 560.81 61.94Q563.45 60.41 566.47 60.41L566.47 60.41Q571.57 60.41 574.42 64.05Q577.27 67.69 577.27 74.09L577.27 74.09Q577.27 81.19 574.82 87.43Q572.38 93.67 568.13 97.19Q563.87 100.70 558.77 100.70ZM563.45 67.16L563.45 67.16Q560.60 67.16 557.75 69.98Q554.91 72.79 553.17 77.38Q551.43 81.96 551.43 86.89L551.43 86.89Q551.43 90.26 553.06 92.14Q554.70 94.02 557.68 94.02L557.68 94.02Q560.67 94.02 563.27 91.26Q565.88 88.50 567.39 83.88Q568.90 79.26 568.90 74.23L568.90 74.23Q568.90 67.16 563.45 67.16ZM610.24 75.32L610.24 75.32Q610.24 71.56 608.52 69.43Q606.80 67.30 603.60 67.30L603.60 67.30Q600.33 67.30 597.74 69.82Q595.16 72.33 593.74 76.64Q592.31 80.95 592.31 85.83L592.31 85.83Q592.31 89.73 594.05 91.81Q595.79 93.88 599.20 93.88L599.20 93.88Q602.37 93.88 604.90 91.49Q607.43 89.10 608.84 84.79Q610.24 80.49 610.24 75.32ZM618.57 75.67L618.57 75.67Q618.57 82.77 616.01 88.59Q613.44 94.41 608.96 97.52Q604.48 100.63 598.64 100.63L598.64 100.63Q591.89 100.63 587.92 96.61Q583.95 92.58 583.95 85.66L583.95 85.66Q583.95 78.66 586.46 72.82Q588.97 66.99 593.51 63.74Q598.04 60.48 603.98 60.48L603.98 60.48Q610.84 60.48 614.71 64.56Q618.57 68.64 618.57 75.67ZM643.43 45.30L631.79 100L623.57 100L635.17 45.30L643.43 45.30ZM663.61 60.41L663.61 60.41Q669.90 60.41 673.03 66.67L673.03 66.67L673.31 66.67Q673.77 61.54 674.61 57.88L674.61 57.88L677.29 45.30L685.48 45.30L673.88 100L667.41 100L668.07 93.81L667.83 93.81Q664.73 97.54 661.85 99.12Q658.97 100.70 655.73 100.70L655.73 100.70Q650.71 100.70 647.86 97.13Q645.01 93.57 645.01 87.03L645.01 87.03Q645.01 79.82 647.53 73.56Q650.04 67.30 654.26 63.86Q658.48 60.41 663.61 60.41ZM658.90 94.02L658.90 94.02Q661.78 94.02 664.61 91.14Q667.44 88.26 669.15 83.62Q670.85 78.98 670.85 74.23L670.85 74.23Q670.85 71.03 669.32 69.10Q667.79 67.16 664.66 67.16L664.66 67.16Q661.68 67.16 659.07 69.87Q656.47 72.58 654.93 77.29Q653.38 82 653.38 86.89L653.38 86.89Q653.38 94.02 658.90 94.02ZM714.13 51.55L714.13 51.55Q714.13 49.16 715.50 47.69Q716.87 46.21 719.37 46.21L719.37 46.21Q721.23 46.21 722.39 47.14Q723.55 48.07 723.55 49.97L723.55 49.97Q723.55 52.47 722.14 53.91Q720.74 55.35 718.45 55.35L718.45 55.35Q716.59 55.35 715.36 54.44Q714.13 53.52 714.13 51.55ZM720.74 61.12L712.48 100L704.18 100L712.48 61.12L720.74 61.12ZM738.32 94.02L738.32 94.02Q740.71 94.02 743.63 92.93L743.63 92.93L743.63 99.19Q742.39 99.79 740.29 100.25Q738.18 100.70 736.07 100.70L736.07 100.70Q726.43 100.70 726.43 92.02L726.43 92.02Q726.43 90.02 727.00 87.41L727.00 87.41L731.25 67.38L725.55 67.38L726.29 63.51L732.97 60.63L737.51 52.47L742.64 52.47L740.81 61.12L750.62 61.12L749.25 67.38L739.51 67.38L735.22 87.48Q734.77 89.42 734.77 90.72L734.77 90.72Q734.77 92.23 735.64 93.13Q736.52 94.02 738.32 94.02ZM762.79 100.70L762.79 100.70Q757.83 100.70 754.95 97.13Q752.06 93.57 752.06 87.10L752.06 87.10Q752.06 80.00 754.51 73.81Q756.95 67.62 761.24 64.02Q765.53 60.41 770.66 60.41L770.66 60.41Q774.07 60.41 776.53 62.01Q778.99 63.61 780.36 66.67L780.36 66.67L780.71 66.67L782.89 61.12L789.22 61.12L780.93 100L774.53 100L775.27 93.81L775.05 93.81Q769.50 100.70 762.79 100.70ZM765.81 94.02L765.81 94.02Q768.69 94.02 771.47 91.30Q774.25 88.57 776.04 84.00Q777.83 79.43 777.83 74.02L777.83 74.02Q777.83 70.93 776.18 69.04Q774.53 67.16 771.86 67.16L771.86 67.16Q768.87 67.16 766.23 69.87Q763.59 72.58 762.01 77.24Q760.43 81.89 760.43 86.89L760.43 86.89Q760.43 90.47 761.85 92.25Q763.28 94.02 765.81 94.02ZM811.97 45.30L800.33 100L792.11 100L803.71 45.30L811.97 45.30ZM821.85 51.55L821.85 51.55Q821.85 49.16 823.22 47.69Q824.59 46.21 827.09 46.21L827.09 46.21Q828.95 46.21 830.11 47.14Q831.27 48.07 831.27 49.97L831.27 49.97Q831.27 52.47 829.86 53.91Q828.46 55.35 826.17 55.35L826.17 55.35Q824.31 55.35 823.08 54.44Q821.85 53.52 821.85 51.55ZM828.46 61.12L820.20 100L811.90 100L820.20 61.12L828.46 61.12ZM847.83 100.70L847.83 100.70Q840.94 100.70 837.14 96.98Q833.34 93.25 833.34 86.32L833.34 86.32Q833.34 79.05 835.93 73.09Q838.51 67.13 843.19 63.77Q847.86 60.41 853.80 60.41L853.80 60.41Q859.57 60.41 864.25 62.56L864.25 62.56L861.79 69.03Q857.50 67.16 854.02 67.16L854.02 67.16Q848.74 67.16 845.23 72.56Q841.71 77.96 841.71 85.90L841.71 85.90Q841.71 89.80 843.68 91.91Q845.65 94.02 849.13 94.02L849.13 94.02Q851.73 94.02 854.00 93.25Q856.27 92.48 858.55 91.35L858.55 91.35L858.55 98.21Q853.63 100.70 847.83 100.70Z"/></svg>