<svg xmlns="http://www.w3.org/2000/svg" viewBox="4.18359375 45.296875 544.2890625 72"><path d="M53 74L53 74Q53 87 47 94Q40 101 29 101L29 101Q17 101 11 94Q4 87 4 74L4 74Q4 61 11 55Q17 48 29 48L29 48Q41 48 47 55Q53 61 53 74ZM16 74L16 74Q16 83 19 87Q22 92 29 92L29 92Q42 92 42 74L42 74Q42 57 29 57L29 57Q22 57 19 61Q16 66 16 74ZM85 101L85 101Q78 101 74 96L74 96L73 96Q74 101 74 101L74 101L74 117L63 117L63 61L72 61L73 66L74 66Q77 60 85 60L85 60Q92 60 96 65Q100 71 100 80L100 80Q100 87 98 91Q96 96 93 98Q89 101 85 101ZM81 69L81 69Q77 69 76 71Q74 73 74 79L74 79L74 80Q74 87 76 89Q77 92 81 92L81 92Q89 92 89 80L89 80Q89 74 87 71Q85 69 81 69ZM125 68L125 68Q121 68 119 70Q117 72 117 76L117 76L132 76Q132 72 130 70Q128 68 125 68ZM126 101L126 101Q117 101 111 95Q106 90 106 81L106 81Q106 71 111 65Q116 60 125 60L125 60Q133 60 138 65Q142 69 142 78L142 78L142 83L117 83Q117 88 120 90Q122 93 127 93L127 93Q130 93 133 92Q137 91 140 90L140 90L140 98Q137 99 134 100Q131 101 126 101ZM187 74L187 100L177 100L177 77Q177 73 175 71Q174 69 170 69L170 69Q166 69 164 72Q162 75 162 82L162 82L162 100L151 100L151 61L159 61L161 66L161 66Q163 63 166 61Q169 60 173 60L173 60Q180 60 184 64Q187 67 187 74L187 74ZM248 86L248 86Q248 93 243 97Q238 101 229 101L229 101Q221 101 215 98L215 98L215 87Q220 90 224 91Q227 92 230 92L230 92Q234 92 236 90Q238 89 238 86L238 86Q238 85 237 84Q236 82 234 81Q233 80 228 78L228 78Q223 76 221 74Q218 72 217 69Q215 66 215 62L215 62Q215 56 220 52Q225 48 233 48L233 48Q237 48 240 49Q244 50 248 51L248 51L244 60Q240 58 238 58Q235 57 232 57L232 57Q229 57 228 58Q226 60 226 62L226 62Q226 64 227 65Q227 66 229 67Q230 68 236 70L236 70Q243 74 246 77Q248 81 248 86ZM289 100L282 100L280 95L279 95Q277 98 274 99Q271 101 266 101L266 101Q261 101 257 97Q254 94 254 88L254 88Q254 82 258 79Q263 76 272 76L272 76L279 76L279 74Q279 68 272 68L272 68Q268 68 261 71L261 71L258 63Q265 60 273 60L273 60Q281 60 285 63Q289 67 289 74L289 74L289 100ZM279 85L279 82L274 82Q270 82 267 84Q265 85 265 88L265 88Q265 93 270 93L270 93Q274 93 276 91Q279 89 279 85L279 85ZM336 74L336 100L326 100L326 77Q326 73 324 71Q323 69 319 69L319 69Q315 69 313 72Q311 75 311 82L311 82L311 100L300 100L300 61L308 61L310 66L310 66Q312 63 315 61Q319 60 323 60L323 60Q329 60 333 64Q336 67 336 74L336 74ZM375 88L375 88Q375 94 371 98Q367 101 358 101L358 101Q354 101 351 100Q348 100 345 98L345 98L345 90Q348 91 352 92Q356 93 359 93L359 93Q364 93 364 89L364 89Q364 88 364 87Q363 87 361 86Q359 85 356 83L356 83Q351 81 349 80Q347 78 346 76Q345 74 345 71L345 71Q345 66 349 63Q353 60 361 60L361 60Q368 60 375 63L375 63L371 71Q368 70 366 69Q363 68 361 68L361 68Q356 68 356 70L356 70Q356 72 357 73Q359 74 364 76L364 76Q369 78 371 80Q373 81 374 83Q375 85 375 88ZM424 60L424 60Q431 60 435 65Q439 71 439 80L439 80Q439 90 435 95Q431 101 424 101L424 101Q417 101 413 96L413 96L412 96L410 100L402 100L402 45L413 45L413 58Q413 60 412 66L412 66L413 66Q416 60 424 60ZM420 69L420 69Q416 69 415 71Q413 73 413 79L413 79L413 80Q413 87 415 89Q416 92 421 92L421 92Q424 92 426 89Q428 86 428 80L428 80Q428 74 426 71Q424 69 420 69ZM456 80L456 80Q456 86 458 89Q460 92 464 92L464 92Q469 92 470 89Q472 86 472 80L472 80Q472 74 470 72Q469 69 464 69L464 69Q460 69 458 72Q456 74 456 80ZM483 80L483 80Q483 90 478 95Q473 101 464 101L464 101Q458 101 454 98Q450 96 448 91Q445 86 445 80L445 80Q445 71 450 65Q455 60 464 60L464 60Q470 60 474 62Q479 65 481 69Q483 74 483 80ZM503 45L503 100L492 100L492 45L503 45ZM527 101L527 101Q520 101 516 95Q512 90 512 80L512 80Q512 71 516 65Q520 60 527 60L527 60Q534 60 538 66L538 66L539 66Q538 61 538 58L538 58L538 45L548 45L548 100L540 100L538 95L538 95Q534 101 527 101ZM530 92L530 92Q534 92 536 90Q538 87 538 82L538 82L538 80Q538 74 537 71Q535 69 530 69L530 69Q527 69 525 72Q523 75 523 81L523 81Q523 86 525 89Q527 92 530 92Z"/></svg>