<svg xmlns="http://www.w3.org/2000/svg" viewBox="3.65625 47.79296875 527.23828125 69.50390625"><path d="M53.65 74.23L53.65 74.23Q53.65 87.20 47.29 93.95Q40.92 100.70 28.65 100.70L28.65 100.70Q16.56 100.70 10.11 93.92Q3.66 87.13 3.66 74.16L3.66 74.16Q3.66 61.33 10.07 54.56Q16.49 47.79 28.72 47.79L28.72 47.79Q40.99 47.79 47.32 54.51Q53.65 61.22 53.65 74.23ZM18.28 74.23L18.28 74.23Q18.28 89.14 28.65 89.14L28.65 89.14Q33.93 89.14 36.47 85.52Q39.02 81.89 39.02 74.23L39.02 74.23Q39.02 66.53 36.44 62.86Q33.86 59.18 28.72 59.18L28.72 59.18Q18.28 59.18 18.28 74.23ZM86.03 100.70L86.03 100.70Q83.00 100.70 80.61 99.70Q78.22 98.70 75.87 96.10L75.87 96.10L75.23 96.10Q75.87 100.28 75.87 101.30L75.87 101.30L75.87 117.30L62.12 117.30L62.12 60.17L73.30 60.17L75.23 65.23L75.87 65.23Q79.70 59.46 86.45 59.46L86.45 59.46Q93.06 59.46 96.82 64.95Q100.58 70.43 100.58 80.00L100.58 80.00Q100.58 89.63 96.66 95.17Q92.74 100.70 86.03 100.70ZM81.42 70.26L81.42 70.26Q78.40 70.26 77.19 72.42Q75.97 74.58 75.87 78.84L75.87 78.84L75.87 79.93Q75.87 85.06 77.24 87.34Q78.61 89.63 81.56 89.63L81.56 89.63Q84.20 89.63 85.39 87.36Q86.59 85.09 86.59 79.86L86.59 79.86Q86.59 74.72 85.39 72.49Q84.20 70.26 81.42 70.26ZM127.65 100.70L127.65 100.70Q117.70 100.70 112.20 95.41Q106.70 90.12 106.70 80.35L106.70 80.35Q106.70 70.26 111.80 64.86Q116.89 59.46 126.35 59.46L126.35 59.46Q135.35 59.46 140.26 64.16Q145.16 68.85 145.16 77.68L145.16 77.68L145.16 83.79L120.59 83.79Q120.73 87.13 123.03 89.03Q125.33 90.93 129.30 90.93L129.30 90.93Q132.93 90.93 135.97 90.24Q139.01 89.56 142.56 87.91L142.56 87.91L142.56 97.79Q139.32 99.44 135.88 100.07Q132.43 100.70 127.65 100.70ZM126.84 68.82L126.84 68.82Q124.42 68.82 122.78 70.35Q121.15 71.88 120.87 75.14L120.87 75.14L132.68 75.14Q132.61 72.26 131.04 70.54Q129.48 68.82 126.84 68.82ZM191.81 100L178.07 100L178.07 78.27Q178.07 74.30 176.92 72.28Q175.78 70.26 173.25 70.26L173.25 70.26Q169.77 70.26 168.22 73.04Q166.68 75.81 166.68 82.56L166.68 82.56L166.68 100L152.93 100L152.93 60.17L163.30 60.17L165.02 65.09L165.83 65.09Q167.59 62.28 170.70 60.87Q173.81 59.46 177.86 59.46L177.86 59.46Q184.46 59.46 188.14 63.30Q191.81 67.13 191.81 74.09L191.81 74.09L191.81 100ZM254.29 84.39L254.29 84.39Q254.29 89.17 251.86 92.88Q249.43 96.59 244.86 98.65Q240.29 100.70 234.14 100.70L234.14 100.70Q229.01 100.70 225.53 99.98Q222.05 99.26 218.29 97.47L218.29 97.47L218.29 85.09Q222.26 87.13 226.55 88.28Q230.84 89.42 234.42 89.42L234.42 89.42Q237.52 89.42 238.96 88.35Q240.40 87.27 240.40 85.59L240.40 85.59Q240.40 84.53 239.82 83.74Q239.24 82.95 237.96 82.14Q236.67 81.33 231.12 78.84L231.12 78.84Q226.09 76.55 223.58 74.41Q221.06 72.26 219.85 69.48Q218.64 66.71 218.64 62.91L218.64 62.91Q218.64 55.81 223.80 51.84Q228.97 47.86 238.01 47.86L238.01 47.86Q245.99 47.86 254.29 51.55L254.29 51.55L250.03 62.28Q242.82 58.97 237.59 58.97L237.59 58.97Q234.88 58.97 233.65 59.92Q232.42 60.87 232.42 62.28L232.42 62.28Q232.42 63.79 233.98 64.98Q235.55 66.18 242.47 69.34L242.47 69.34Q249.12 72.33 251.70 75.76Q254.29 79.19 254.29 84.39ZM296.93 100L287.40 100L284.77 94.73L284.48 94.73Q281.71 98.17 278.82 99.44Q275.94 100.70 271.37 100.70L271.37 100.70Q265.75 100.70 262.51 97.33Q259.28 93.95 259.28 87.84L259.28 87.84Q259.28 81.47 263.71 78.36Q268.14 75.25 276.54 74.86L276.54 74.86L283.18 74.65L283.18 74.09Q283.18 69.17 278.33 69.17L278.33 69.17Q273.97 69.17 267.26 72.12L267.26 72.12L263.29 63.05Q270.25 59.46 280.86 59.46L280.86 59.46Q288.53 59.46 292.73 63.26Q296.93 67.06 296.93 73.88L296.93 73.88L296.93 100ZM277.21 91L277.21 91Q279.70 91 281.48 89.42Q283.25 87.84 283.25 85.30L283.25 85.30L283.25 82.21L280.09 82.35Q273.30 82.60 273.30 87.34L273.30 87.34Q273.30 91 277.21 91ZM345.16 100L331.42 100L331.42 78.27Q331.42 74.30 330.28 72.28Q329.13 70.26 326.60 70.26L326.60 70.26Q323.12 70.26 321.57 73.04Q320.03 75.81 320.03 82.56L320.03 82.56L320.03 100L306.28 100L306.28 60.17L316.65 60.17L318.38 65.09L319.18 65.09Q320.94 62.28 324.05 60.87Q327.16 59.46 331.21 59.46L331.21 59.46Q337.82 59.46 341.49 63.30Q345.16 67.13 345.16 74.09L345.16 74.09L345.16 100ZM385.28 87.77L385.28 87.77Q385.28 94.16 380.92 97.43Q376.56 100.70 368.40 100.70L368.40 100.70Q363.97 100.70 360.70 100.23Q357.43 99.75 354.02 98.49L354.02 98.49L354.02 87.48Q357.22 88.89 361.04 89.80Q364.85 90.72 367.84 90.72L367.84 90.72Q372.30 90.72 372.30 88.68L372.30 88.68Q372.30 87.63 371.06 86.80Q369.81 85.97 363.80 83.58L363.80 83.58Q358.31 81.33 356.13 78.47Q353.95 75.60 353.95 71.21L353.95 71.21Q353.95 65.65 358.24 62.56Q362.53 59.46 370.37 59.46L370.37 59.46Q374.31 59.46 377.77 60.33Q381.23 61.19 384.96 62.84L384.96 62.84L381.23 71.70Q378.49 70.47 375.43 69.61Q372.38 68.75 370.44 68.75L370.44 68.75Q367.07 68.75 367.07 70.40L367.07 70.40Q367.07 71.42 368.24 72.14Q369.42 72.86 375.05 75.07L375.05 75.07Q379.23 76.80 381.29 78.45Q383.34 80.10 384.31 82.33Q385.28 84.57 385.28 87.77ZM428.10 47.86L428.10 47.86Q436.22 47.86 440.74 51.13Q445.25 54.40 445.25 60.41L445.25 60.41Q445.25 64.49 443.13 67.57Q441 70.64 436.39 72.93L436.39 72.93Q442.09 76.16 444.43 79.38Q446.77 82.60 446.77 86.32L446.77 86.32Q446.77 93.18 441.81 96.94Q436.85 100.70 427.96 100.70L427.96 100.70Q418.89 100.70 414.07 97.03Q409.25 93.36 409.25 86.46L409.25 86.46Q409.25 82 411.40 78.85Q413.54 75.71 418.61 73.14L418.61 73.14Q414.53 70.40 412.65 67.25Q410.77 64.11 410.77 60.34L410.77 60.34Q410.77 54.44 415.37 51.15Q419.98 47.86 428.10 47.86ZM421.98 85.90L421.98 85.90Q421.98 88.08 423.53 89.40Q425.07 90.72 427.82 90.72L427.82 90.72Q434.00 90.72 434.00 86.18L434.00 86.18Q434.00 84.46 432.65 82.79Q431.30 81.12 427.82 79.05L427.82 79.05Q424.69 80.70 423.33 82.37Q421.98 84.04 421.98 85.90ZM428.03 57.88L428.03 57.88Q426.23 57.88 425.00 58.92Q423.77 59.96 423.77 61.61L423.77 61.61Q423.77 64.63 427.89 66.95L427.89 66.95Q430.38 65.51 431.30 64.32Q432.21 63.12 432.21 61.61L432.21 61.61Q432.21 59.92 430.98 58.90Q429.75 57.88 428.03 57.88ZM488.71 74.37L488.71 74.37Q488.71 88.01 484.14 94.36Q479.57 100.70 470.14 100.70L470.14 100.70Q460.93 100.70 456.26 94.08Q451.58 87.45 451.58 74.37L451.58 74.37Q451.58 60.66 456.15 54.26Q460.72 47.86 470.14 47.86L470.14 47.86Q479.32 47.86 484.01 54.53Q488.71 61.19 488.71 74.37ZM465.40 74.37L465.40 74.37Q465.40 83.09 466.49 86.36Q467.58 89.63 470.14 89.63L470.14 89.63Q472.75 89.63 473.82 86.25Q474.89 82.88 474.89 74.37L474.89 74.37Q474.89 65.83 473.80 62.40Q472.71 58.97 470.14 58.97L470.14 58.97Q467.58 58.97 466.49 62.28Q465.40 65.58 465.40 74.37ZM530.89 74.37L530.89 74.37Q530.89 88.01 526.32 94.36Q521.75 100.70 512.33 100.70L512.33 100.70Q503.12 100.70 498.45 94.08Q493.77 87.45 493.77 74.37L493.77 74.37Q493.77 60.66 498.34 54.26Q502.91 47.86 512.33 47.86L512.33 47.86Q521.51 47.86 526.20 54.53Q530.89 61.19 530.89 74.37ZM507.59 74.37L507.59 74.37Q507.59 83.09 508.68 86.36Q509.77 89.63 512.33 89.63L512.33 89.63Q514.93 89.63 516.01 86.25Q517.08 82.88 517.08 74.37L517.08 74.37Q517.08 65.83 515.99 62.40Q514.90 58.97 512.33 58.97L512.33 58.97Q509.77 58.97 508.68 62.28Q507.59 65.58 507.59 74.37Z"/></svg>