<svg xmlns="http://www.w3.org/2000/svg" viewBox="4.18359375 45.296875 544.2890625 72"><path d="M53.12 74.23L53.12 74.23Q53.12 86.99 46.79 93.85Q40.46 100.70 28.65 100.70L28.65 100.70Q16.84 100.70 10.51 93.85Q4.18 86.99 4.18 74.16L4.18 74.16Q4.18 61.33 10.53 54.56Q16.88 47.79 28.72 47.79L28.72 47.79Q40.57 47.79 46.85 54.61Q53.12 61.43 53.12 74.23ZM15.61 74.23L15.61 74.23Q15.61 82.84 18.88 87.20Q22.15 91.56 28.65 91.56L28.65 91.56Q41.70 91.56 41.70 74.23L41.70 74.23Q41.70 56.86 28.72 56.86L28.72 56.86Q22.22 56.86 18.91 61.24Q15.61 65.62 15.61 74.23ZM84.52 100.70L84.52 100.70Q77.59 100.70 73.65 95.68L73.65 95.68L73.09 95.68Q73.65 100.60 73.65 101.37L73.65 101.37L73.65 117.30L62.93 117.30L62.93 60.70L71.65 60.70L73.16 65.79L73.65 65.79Q77.41 59.96 84.80 59.96L84.80 59.96Q91.76 59.96 95.70 65.34Q99.63 70.71 99.63 80.28L99.63 80.28Q99.63 86.57 97.79 91.21Q95.94 95.85 92.53 98.28Q89.12 100.70 84.52 100.70ZM81.35 68.54L81.35 68.54Q77.38 68.54 75.55 70.98Q73.72 73.42 73.65 79.05L73.65 79.05L73.65 80.21Q73.65 86.54 75.53 89.28Q77.41 92.02 81.49 92.02L81.49 92.02Q88.70 92.02 88.70 80.14L88.70 80.14Q88.70 74.34 86.92 71.44Q85.15 68.54 81.35 68.54ZM124.77 67.59L124.77 67.59Q121.36 67.59 119.43 69.75Q117.49 71.91 117.21 75.88L117.21 75.88L132.26 75.88Q132.19 71.91 130.18 69.75Q128.18 67.59 124.77 67.59ZM126.28 100.70L126.28 100.70Q116.79 100.70 111.45 95.46Q106.10 90.23 106.10 80.63L106.10 80.63Q106.10 70.75 111.04 65.35Q115.98 59.96 124.70 59.96L124.70 59.96Q133.03 59.96 137.67 64.70Q142.31 69.45 142.31 77.82L142.31 77.82L142.31 83.02L116.96 83.02Q117.14 87.59 119.67 90.16Q122.20 92.72 126.77 92.72L126.77 92.72Q130.32 92.72 133.49 91.98Q136.65 91.25 140.10 89.63L140.10 89.63L140.10 97.93Q137.29 99.33 134.09 100.02Q130.89 100.70 126.28 100.70ZM187.31 74.37L187.31 100L176.59 100L176.59 77.04Q176.59 72.79 175.08 70.66Q173.57 68.54 170.26 68.54L170.26 68.54Q165.76 68.54 163.76 71.54Q161.75 74.55 161.75 81.51L161.75 81.51L161.75 100L151.03 100L151.03 60.70L159.22 60.70L160.66 65.72L161.26 65.72Q163.05 62.88 166.20 61.42Q169.35 59.96 173.36 59.96L173.36 59.96Q180.21 59.96 183.76 63.67Q187.31 67.38 187.31 74.37L187.31 74.37ZM248.24 85.73L248.24 85.73Q248.24 92.69 243.23 96.70Q238.22 100.70 229.29 100.70L229.29 100.70Q221.06 100.70 214.73 97.61L214.73 97.61L214.73 87.48Q219.94 89.80 223.54 90.75Q227.14 91.70 230.13 91.70L230.13 91.70Q233.72 91.70 235.63 90.33Q237.55 88.96 237.55 86.25L237.55 86.25Q237.55 84.74 236.71 83.56Q235.86 82.39 234.23 81.30Q232.59 80.21 227.57 77.82L227.57 77.82Q222.86 75.60 220.50 73.56Q218.14 71.52 216.74 68.82Q215.33 66.11 215.33 62.49L215.33 62.49Q215.33 55.67 219.96 51.77Q224.58 47.86 232.73 47.86L232.73 47.86Q236.74 47.86 240.38 48.81Q244.02 49.76 247.99 51.48L247.99 51.48L244.48 59.96Q240.36 58.27 237.67 57.60Q234.98 56.93 232.38 56.93L232.38 56.93Q229.29 56.93 227.64 58.38Q225.98 59.82 225.98 62.14L225.98 62.14Q225.98 63.58 226.65 64.65Q227.32 65.72 228.78 66.72Q230.24 67.73 235.69 70.33L235.69 70.33Q242.89 73.77 245.57 77.24Q248.24 80.70 248.24 85.73ZM289.16 100L281.67 100L279.60 94.66L279.32 94.66Q276.61 98.07 273.74 99.38Q270.88 100.70 266.27 100.70L266.27 100.70Q260.61 100.70 257.36 97.47Q254.11 94.23 254.11 88.26L254.11 88.26Q254.11 82 258.49 79.03Q262.86 76.06 271.69 75.74L271.69 75.74L278.51 75.53L278.51 73.81Q278.51 67.83 272.39 67.83L272.39 67.83Q267.68 67.83 261.32 70.68L261.32 70.68L257.77 63.44Q264.55 59.89 272.81 59.89L272.81 59.89Q280.72 59.89 284.94 63.33Q289.16 66.78 289.16 73.81L289.16 73.81L289.16 100ZM278.51 85.02L278.51 81.79L274.36 81.93Q269.68 82.07 267.40 83.62Q265.11 85.16 265.11 88.33L265.11 88.33Q265.11 92.86 270.32 92.86L270.32 92.86Q274.04 92.86 276.28 90.72Q278.51 88.57 278.51 85.02L278.51 85.02ZM336.48 74.37L336.48 100L325.76 100L325.76 77.04Q325.76 72.79 324.25 70.66Q322.73 68.54 319.43 68.54L319.43 68.54Q314.93 68.54 312.93 71.54Q310.92 74.55 310.92 81.51L310.92 81.51L310.92 100L300.20 100L300.20 60.70L308.39 60.70L309.83 65.72L310.43 65.72Q312.22 62.88 315.37 61.42Q318.52 59.96 322.52 59.96L322.52 59.96Q329.38 59.96 332.93 63.67Q336.48 67.38 336.48 74.37L336.48 74.37ZM374.94 88.33L374.94 88.33Q374.94 94.38 370.74 97.54Q366.54 100.70 358.17 100.70L358.17 100.70Q353.88 100.70 350.86 100.12Q347.84 99.54 345.20 98.42L345.20 98.42L345.20 89.56Q348.19 90.96 351.93 91.91Q355.68 92.86 358.52 92.86L358.52 92.86Q364.36 92.86 364.36 89.49L364.36 89.49Q364.36 88.22 363.59 87.43Q362.81 86.64 360.91 85.64Q359.02 84.64 355.85 83.30L355.85 83.30Q351.32 81.40 349.19 79.79Q347.06 78.17 346.10 76.08Q345.13 73.98 345.13 70.93L345.13 70.93Q345.13 65.69 349.19 62.82Q353.25 59.96 360.70 59.96L360.70 59.96Q367.80 59.96 374.52 63.05L374.52 63.05L371.29 70.79Q368.33 69.52 365.77 68.71Q363.20 67.90 360.53 67.90L360.53 67.90Q355.78 67.90 355.78 70.47L355.78 70.47Q355.78 71.91 357.31 72.96Q358.84 74.02 364.01 76.09L364.01 76.09Q368.61 77.96 370.76 79.57Q372.90 81.19 373.92 83.30Q374.94 85.41 374.94 88.33ZM423.88 59.96L423.88 59.96Q430.84 59.96 434.78 65.39Q438.71 70.82 438.71 80.28L438.71 80.28Q438.71 90.02 434.65 95.36Q430.59 100.70 423.60 100.70L423.60 100.70Q416.67 100.70 412.73 95.68L412.73 95.68L412.00 95.68L410.20 100L402.01 100L402.01 45.30L412.73 45.30L412.73 58.02Q412.73 60.45 412.31 65.79L412.31 65.79L412.73 65.79Q416.50 59.96 423.88 59.96ZM420.43 68.54L420.43 68.54Q416.46 68.54 414.63 70.98Q412.80 73.42 412.73 79.05L412.73 79.05L412.73 80.21Q412.73 86.54 414.62 89.28Q416.50 92.02 420.57 92.02L420.57 92.02Q423.88 92.02 425.83 88.98Q427.78 85.94 427.78 80.14L427.78 80.14Q427.78 74.34 425.81 71.44Q423.84 68.54 420.43 68.54ZM456.12 80.28L456.12 80.28Q456.12 86.11 458.03 89.10Q459.95 92.09 464.27 92.09L464.27 92.09Q468.56 92.09 470.44 89.12Q472.32 86.15 472.32 80.28L472.32 80.28Q472.32 74.44 470.43 71.52Q468.53 68.61 464.20 68.61L464.20 68.61Q459.91 68.61 458.02 71.51Q456.12 74.41 456.12 80.28ZM483.29 80.28L483.29 80.28Q483.29 89.88 478.23 95.29Q473.17 100.70 464.13 100.70L464.13 100.70Q458.47 100.70 454.15 98.22Q449.82 95.75 447.50 91.11Q445.18 86.46 445.18 80.28L445.18 80.28Q445.18 70.64 450.21 65.30Q455.24 59.96 464.34 59.96L464.34 59.96Q470.00 59.96 474.33 62.42Q478.65 64.88 480.97 69.48Q483.29 74.09 483.29 80.28ZM502.88 45.30L502.88 100L492.15 100L492.15 45.30L502.88 45.30ZM526.57 100.70L526.57 100.70Q519.64 100.70 515.69 95.32Q511.73 89.95 511.73 80.42L511.73 80.42Q511.73 70.75 515.76 65.35Q519.79 59.96 526.85 59.96L526.85 59.96Q534.27 59.96 538.17 65.72L538.17 65.72L538.52 65.72Q537.71 61.33 537.71 57.88L537.71 57.88L537.71 45.30L548.47 45.30L548.47 100L540.25 100L538.17 94.90L537.71 94.90Q534.06 100.70 526.57 100.70ZM530.33 92.16L530.33 92.16Q534.45 92.16 536.36 89.77Q538.28 87.38 538.45 81.65L538.45 81.65L538.45 80.49Q538.45 74.16 536.50 71.42Q534.55 68.68 530.16 68.68L530.16 68.68Q526.57 68.68 524.58 71.72Q522.60 74.76 522.60 80.56L522.60 80.56Q522.60 86.36 524.60 89.26Q526.61 92.16 530.33 92.16Z"/></svg>