<svg xmlns="http://www.w3.org/2000/svg" viewBox="3.65625 45.296875 780.5390625 72"><path d="M53.65 74.23L53.65 74.23Q53.65 87.20 47.29 93.95Q40.92 100.70 28.65 100.70L28.65 100.70Q16.56 100.70 10.11 93.92Q3.66 87.13 3.66 74.16L3.66 74.16Q3.66 61.33 10.07 54.56Q16.49 47.79 28.72 47.79L28.72 47.79Q40.99 47.79 47.32 54.51Q53.65 61.22 53.65 74.23ZM18.28 74.23L18.28 74.23Q18.28 89.14 28.65 89.14L28.65 89.14Q33.93 89.14 36.47 85.52Q39.02 81.89 39.02 74.23L39.02 74.23Q39.02 66.53 36.44 62.86Q33.86 59.18 28.72 59.18L28.72 59.18Q18.28 59.18 18.28 74.23ZM86.03 100.70L86.03 100.70Q83.00 100.70 80.61 99.70Q78.22 98.70 75.87 96.10L75.87 96.10L75.23 96.10Q75.87 100.28 75.87 101.30L75.87 101.30L75.87 117.30L62.12 117.30L62.12 60.17L73.30 60.17L75.23 65.23L75.87 65.23Q79.70 59.46 86.45 59.46L86.45 59.46Q93.06 59.46 96.82 64.95Q100.58 70.43 100.58 80.00L100.58 80.00Q100.58 89.63 96.66 95.17Q92.74 100.70 86.03 100.70ZM81.42 70.26L81.42 70.26Q78.40 70.26 77.19 72.42Q75.97 74.58 75.87 78.84L75.87 78.84L75.87 79.93Q75.87 85.06 77.24 87.34Q78.61 89.63 81.56 89.63L81.56 89.63Q84.20 89.63 85.39 87.36Q86.59 85.09 86.59 79.86L86.59 79.86Q86.59 74.72 85.39 72.49Q84.20 70.26 81.42 70.26ZM127.65 100.70L127.65 100.70Q117.70 100.70 112.20 95.41Q106.70 90.12 106.70 80.35L106.70 80.35Q106.70 70.26 111.80 64.86Q116.89 59.46 126.35 59.46L126.35 59.46Q135.35 59.46 140.26 64.16Q145.16 68.85 145.16 77.68L145.16 77.68L145.16 83.79L120.59 83.79Q120.73 87.13 123.03 89.03Q125.33 90.93 129.30 90.93L129.30 90.93Q132.93 90.93 135.97 90.24Q139.01 89.56 142.56 87.91L142.56 87.91L142.56 97.79Q139.32 99.44 135.88 100.07Q132.43 100.70 127.65 100.70ZM126.84 68.82L126.84 68.82Q124.42 68.82 122.78 70.35Q121.15 71.88 120.87 75.14L120.87 75.14L132.68 75.14Q132.61 72.26 131.04 70.54Q129.48 68.82 126.84 68.82ZM191.81 100L178.07 100L178.07 78.27Q178.07 74.30 176.92 72.28Q175.78 70.26 173.25 70.26L173.25 70.26Q169.77 70.26 168.22 73.04Q166.68 75.81 166.68 82.56L166.68 82.56L166.68 100L152.93 100L152.93 60.17L163.30 60.17L165.02 65.09L165.83 65.09Q167.59 62.28 170.70 60.87Q173.81 59.46 177.86 59.46L177.86 59.46Q184.46 59.46 188.14 63.30Q191.81 67.13 191.81 74.09L191.81 74.09L191.81 100ZM254.29 84.39L254.29 84.39Q254.29 89.17 251.86 92.88Q249.43 96.59 244.86 98.65Q240.29 100.70 234.14 100.70L234.14 100.70Q229.01 100.70 225.53 99.98Q222.05 99.26 218.29 97.47L218.29 97.47L218.29 85.09Q222.26 87.13 226.55 88.28Q230.84 89.42 234.42 89.42L234.42 89.42Q237.52 89.42 238.96 88.35Q240.40 87.27 240.40 85.59L240.40 85.59Q240.40 84.53 239.82 83.74Q239.24 82.95 237.96 82.14Q236.67 81.33 231.12 78.84L231.12 78.84Q226.09 76.55 223.58 74.41Q221.06 72.26 219.85 69.48Q218.64 66.71 218.64 62.91L218.64 62.91Q218.64 55.81 223.80 51.84Q228.97 47.86 238.01 47.86L238.01 47.86Q245.99 47.86 254.29 51.55L254.29 51.55L250.03 62.28Q242.82 58.97 237.59 58.97L237.59 58.97Q234.88 58.97 233.65 59.92Q232.42 60.87 232.42 62.28L232.42 62.28Q232.42 63.79 233.98 64.98Q235.55 66.18 242.47 69.34L242.47 69.34Q249.12 72.33 251.70 75.76Q254.29 79.19 254.29 84.39ZM296.93 100L287.40 100L284.77 94.73L284.48 94.73Q281.71 98.17 278.82 99.44Q275.94 100.70 271.37 100.70L271.37 100.70Q265.75 100.70 262.51 97.33Q259.28 93.95 259.28 87.84L259.28 87.84Q259.28 81.47 263.71 78.36Q268.14 75.25 276.54 74.86L276.54 74.86L283.18 74.65L283.18 74.09Q283.18 69.17 278.33 69.17L278.33 69.17Q273.97 69.17 267.26 72.12L267.26 72.12L263.29 63.05Q270.25 59.46 280.86 59.46L280.86 59.46Q288.53 59.46 292.73 63.26Q296.93 67.06 296.93 73.88L296.93 73.88L296.93 100ZM277.21 91L277.21 91Q279.70 91 281.48 89.42Q283.25 87.84 283.25 85.30L283.25 85.30L283.25 82.21L280.09 82.35Q273.30 82.60 273.30 87.34L273.30 87.34Q273.30 91 277.21 91ZM345.16 100L331.42 100L331.42 78.27Q331.42 74.30 330.28 72.28Q329.13 70.26 326.60 70.26L326.60 70.26Q323.12 70.26 321.57 73.04Q320.03 75.81 320.03 82.56L320.03 82.56L320.03 100L306.28 100L306.28 60.17L316.65 60.17L318.38 65.09L319.18 65.09Q320.94 62.28 324.05 60.87Q327.16 59.46 331.21 59.46L331.21 59.46Q337.82 59.46 341.49 63.30Q345.16 67.13 345.16 74.09L345.16 74.09L345.16 100ZM385.28 87.77L385.28 87.77Q385.28 94.16 380.92 97.43Q376.56 100.70 368.40 100.70L368.40 100.70Q363.97 100.70 360.70 100.23Q357.43 99.75 354.02 98.49L354.02 98.49L354.02 87.48Q357.22 88.89 361.04 89.80Q364.85 90.72 367.84 90.72L367.84 90.72Q372.30 90.72 372.30 88.68L372.30 88.68Q372.30 87.63 371.06 86.80Q369.81 85.97 363.80 83.58L363.80 83.58Q358.31 81.33 356.13 78.47Q353.95 75.60 353.95 71.21L353.95 71.21Q353.95 65.65 358.24 62.56Q362.53 59.46 370.37 59.46L370.37 59.46Q374.31 59.46 377.77 60.33Q381.23 61.19 384.96 62.84L384.96 62.84L381.23 71.70Q378.49 70.47 375.43 69.61Q372.38 68.75 370.44 68.75L370.44 68.75Q367.07 68.75 367.07 70.40L367.07 70.40Q367.07 71.42 368.24 72.14Q369.42 72.86 375.05 75.07L375.05 75.07Q379.23 76.80 381.29 78.45Q383.34 80.10 384.31 82.33Q385.28 84.57 385.28 87.77ZM430.84 100.70L430.84 100.70Q420.89 100.70 415.39 95.41Q409.89 90.12 409.89 80.35L409.89 80.35Q409.89 70.26 414.98 64.86Q420.08 59.46 429.54 59.46L429.54 59.46Q438.54 59.46 443.44 64.16Q448.35 68.85 448.35 77.68L448.35 77.68L448.35 83.79L423.77 83.79Q423.91 87.13 426.22 89.03Q428.52 90.93 432.49 90.93L432.49 90.93Q436.11 90.93 439.15 90.24Q442.20 89.56 445.75 87.91L445.75 87.91L445.75 97.79Q442.51 99.44 439.07 100.07Q435.62 100.70 430.84 100.70ZM430.03 68.82L430.03 68.82Q427.61 68.82 425.97 70.35Q424.34 71.88 424.05 75.14L424.05 75.14L435.87 75.14Q435.80 72.26 434.23 70.54Q432.67 68.82 430.03 68.82ZM451.72 100L464.55 79.68L452.39 60.17L468 60.17L474.05 71.35L480.23 60.17L495.88 60.17L483.40 79.68L496.37 100L480.76 100L474.05 87.91L467.37 100L451.72 100ZM520.98 89.84L520.98 89.84Q523.76 89.84 527.63 88.47L527.63 88.47L527.63 98.49Q524.85 99.68 522.33 100.19Q519.82 100.70 516.45 100.70L516.45 100.70Q509.52 100.70 506.46 97.31Q503.40 93.92 503.40 86.89L503.40 86.89L503.40 70.47L498.59 70.47L498.59 64.88L504.70 60.55L508.25 52.19L517.25 52.19L517.25 60.17L527.03 60.17L527.03 70.47L517.25 70.47L517.25 85.97Q517.25 89.84 520.98 89.84ZM558.63 59.46L558.63 59.46Q560.43 59.46 562.04 59.75L562.04 59.75L562.82 59.89L561.59 72.86Q559.90 72.44 556.91 72.44L556.91 72.44Q552.41 72.44 550.37 74.49Q548.33 76.55 548.33 80.42L548.33 80.42L548.33 100L534.59 100L534.59 60.17L544.82 60.17L546.96 66.53L547.63 66.53Q549.35 63.37 552.43 61.42Q555.50 59.46 558.63 59.46ZM603.88 100L594.35 100L591.71 94.73L591.43 94.73Q588.66 98.17 585.77 99.44Q582.89 100.70 578.32 100.70L578.32 100.70Q572.70 100.70 569.46 97.33Q566.23 93.95 566.23 87.84L566.23 87.84Q566.23 81.47 570.66 78.36Q575.09 75.25 583.49 74.86L583.49 74.86L590.13 74.65L590.13 74.09Q590.13 69.17 585.28 69.17L585.28 69.17Q580.92 69.17 574.21 72.12L574.21 72.12L570.23 63.05Q577.20 59.46 587.81 59.46L587.81 59.46Q595.48 59.46 599.68 63.26Q603.88 67.06 603.88 73.88L603.88 73.88L603.88 100ZM584.16 91L584.16 91Q586.65 91 588.43 89.42Q590.20 87.84 590.20 85.30L590.20 85.30L590.20 82.21L587.04 82.35Q580.25 82.60 580.25 87.34L580.25 87.34Q580.25 91 584.16 91ZM656.26 59.46L656.26 59.46Q662.77 59.46 666.58 64.91Q670.39 70.36 670.39 80.00L670.39 80.00Q670.39 89.70 666.54 95.20Q662.70 100.70 655.84 100.70L655.84 100.70Q653.63 100.70 651.90 100.23Q650.18 99.75 648.83 98.91Q647.47 98.07 645.68 96.10L645.68 96.10L644.84 96.10L642.66 100L631.93 100L631.93 45.30L645.68 45.30L645.68 57.67Q645.68 59.89 645.19 65.30L645.19 65.30L645.68 65.30Q647.68 62.21 650.30 60.84Q652.92 59.46 656.26 59.46ZM651.23 70.26L651.23 70.26Q648.35 70.26 647.02 72.26Q645.68 74.27 645.68 78.55L645.68 78.55L645.68 80.49Q645.68 85.38 647.02 87.50Q648.35 89.63 651.38 89.63L651.38 89.63Q653.80 89.63 655.10 87.15Q656.40 84.67 656.40 79.86L656.40 79.86Q656.40 70.26 651.23 70.26ZM716.27 80.00L716.27 80.00Q716.27 89.77 711.02 95.24Q705.76 100.70 696.30 100.70L696.30 100.70Q687.23 100.70 681.87 95.11Q676.51 89.52 676.51 80.00L676.51 80.00Q676.51 70.26 681.77 64.86Q687.02 59.46 696.52 59.46L696.52 59.46Q702.39 59.46 706.89 61.96Q711.39 64.46 713.83 69.12Q716.27 73.77 716.27 80.00ZM690.47 80.00L690.47 80.00Q690.47 85.13 691.84 87.82Q693.21 90.51 696.45 90.51L696.45 90.51Q699.64 90.51 700.96 87.82Q702.28 85.13 702.28 80.00L702.28 80.00Q702.28 74.90 700.95 72.30Q699.61 69.70 696.38 69.70L696.38 69.70Q693.21 69.70 691.84 72.28Q690.47 74.86 690.47 80.00ZM737.86 45.30L737.86 100L724.11 100L724.11 45.30L737.86 45.30ZM759.76 100.70L759.76 100.70Q755.51 100.70 752.33 98.28Q749.14 95.85 747.40 91.14Q745.66 86.43 745.66 80.14L745.66 80.14Q745.66 70.43 749.57 64.95Q753.47 59.46 760.29 59.46L760.29 59.46Q763.63 59.46 766.14 60.80Q768.66 62.14 770.73 65.30L770.73 65.30L771.01 65.30Q770.34 60.63 770.34 55.95L770.34 55.95L770.34 45.30L784.20 45.30L784.20 100L773.82 100L770.87 94.97L770.34 94.97Q766.79 100.70 759.76 100.70ZM765.39 89.84L765.39 89.84Q768.69 89.84 770.04 87.77Q771.40 85.69 771.50 81.37L771.50 81.37L771.50 80.28Q771.50 75.00 769.99 72.77Q768.48 70.54 765.25 70.54L765.25 70.54Q762.54 70.54 761.04 73.09Q759.55 75.64 759.55 80.35L759.55 80.35Q759.55 84.99 761.06 87.41Q762.57 89.84 765.39 89.84Z"/></svg>