<svg xmlns="http://www.w3.org/2000/svg" viewBox="2.953125 45.296875 752.16796875 72"><path d="M39.90 74.23L39.90 74.23Q39.90 86.99 35.12 93.85Q30.34 100.70 21.45 100.70L21.45 100.70Q12.52 100.70 7.73 93.87Q2.95 87.03 2.95 74.16L2.95 74.16Q2.95 61.40 7.73 54.60Q12.52 47.79 21.52 47.79L21.52 47.79Q30.41 47.79 35.16 54.63Q39.90 61.47 39.90 74.23ZM12.73 74.23L12.73 74.23Q12.73 83.02 14.94 87.63Q17.16 92.23 21.45 92.23L21.45 92.23Q30.09 92.23 30.09 74.23L30.09 74.23Q30.09 56.23 21.52 56.23L21.52 56.23Q17.16 56.23 14.94 60.82Q12.73 65.41 12.73 74.23ZM64.30 100.70L64.30 100.70Q61.77 100.70 59.82 99.56Q57.87 98.42 56.18 95.54L56.18 95.54L55.69 95.54Q56.25 100.32 56.25 101.30L56.25 101.30L56.25 117.30L46.83 117.30L46.83 60.84L54.07 60.84L55.69 65.93L56.11 65.93Q59.03 60.10 64.58 60.10L64.58 60.10Q69.93 60.10 72.95 65.39Q75.97 70.68 75.97 80.35L75.97 80.35Q75.97 89.88 72.84 95.29Q69.71 100.70 64.30 100.70ZM61.42 68.04L61.42 68.04Q58.68 68.04 57.46 70.59Q56.25 73.14 56.18 79.05L56.18 79.05L56.18 80.28Q56.18 86.75 57.41 89.70Q58.64 92.65 61.49 92.65L61.49 92.65Q66.41 92.65 66.41 80.21L66.41 80.21Q66.41 74.09 65.20 71.07Q63.98 68.04 61.42 68.04ZM97.00 100.70L97.00 100.70Q89.65 100.70 85.41 95.48Q81.18 90.26 81.18 80.70L81.18 80.70Q81.18 71.00 85.01 65.55Q88.84 60.10 95.70 60.10L95.70 60.10Q102.09 60.10 105.79 64.76Q109.48 69.41 109.48 77.82L109.48 77.82L109.48 82.81L90.67 82.81Q90.77 88.05 92.81 90.60Q94.85 93.14 98.44 93.14L98.44 93.14Q103.01 93.14 107.79 90.30L107.79 90.30L107.79 98.00Q103.29 100.70 97.00 100.70ZM95.63 67.30L95.63 67.30Q93.62 67.30 92.32 69.43Q91.02 71.56 90.81 76.02L90.81 76.02L100.30 76.02Q100.23 71.73 99 69.52Q97.77 67.30 95.63 67.30ZM144.60 100L135.18 100L135.18 76.66Q135.18 72.40 134.16 70.22Q133.14 68.04 130.85 68.04L130.85 68.04Q127.83 68.04 126.42 71.05Q125.02 74.05 125.02 81.19L125.02 81.19L125.02 100L115.66 100L115.66 60.84L123.08 60.84L124.21 65.86L124.80 65.86Q126.07 63.16 128.43 61.63Q130.78 60.10 133.95 60.10L133.95 60.10Q139.29 60.10 141.94 63.75Q144.60 67.41 144.60 74.44L144.60 74.44L144.60 100ZM193.92 85.83L193.92 85.83Q193.92 93.04 190.28 96.87Q186.64 100.70 179.79 100.70L179.79 100.70Q173.07 100.70 168.36 98.07L168.36 98.07L168.36 88.61Q174.13 92.37 178.95 92.37L178.95 92.37Q181.69 92.37 183.08 90.86Q184.46 89.35 184.46 86.75L184.46 86.75Q184.46 84.18 182.81 82.05Q181.16 79.93 177.36 77.32L177.36 77.32Q174.06 75.04 172.35 72.95Q170.65 70.86 169.72 68.25Q168.79 65.65 168.79 62.21L168.79 62.21Q168.79 55.60 172.46 51.73Q176.13 47.86 182.32 47.86L182.32 47.86Q188.23 47.86 193.68 51.17L193.68 51.17L190.51 58.83Q188.82 57.85 186.98 57.07Q185.13 56.30 183.02 56.30L183.02 56.30Q180.70 56.30 179.46 57.83Q178.21 59.36 178.21 62.00L178.21 62.00Q178.21 64.60 179.70 66.53Q181.20 68.46 184.92 70.93L184.92 70.93Q189.95 74.30 191.94 77.82Q193.92 81.33 193.92 85.83ZM225.74 100L218.88 100L217.02 94.66L216.81 94.66Q214.73 98.10 212.52 99.40Q210.30 100.70 206.93 100.70L206.93 100.70Q202.61 100.70 200.13 97.47Q197.65 94.23 197.65 88.47L197.65 88.47Q197.65 82.28 201.04 79.28Q204.43 76.27 211.18 75.95L211.18 75.95L216.39 75.74L216.39 72.93Q216.39 67.45 211.64 67.45L211.64 67.45Q208.13 67.45 203.55 70.19L203.55 70.19L200.32 63.72Q206.16 60.03 213.01 60.03L213.01 60.03Q219.23 60.03 222.49 63.60Q225.74 67.16 225.74 73.70L225.74 73.70L225.74 100ZM210.76 93.39L210.76 93.39Q213.33 93.39 214.86 91.09Q216.39 88.79 216.39 84.95L216.39 84.95L216.39 81.65L213.50 81.79Q210.30 81.96 208.81 83.62Q207.32 85.27 207.32 88.54L207.32 88.54Q207.32 93.39 210.76 93.39ZM262.23 100L252.81 100L252.81 76.66Q252.81 72.40 251.79 70.22Q250.77 68.04 248.48 68.04L248.48 68.04Q245.46 68.04 244.05 71.05Q242.65 74.05 242.65 81.19L242.65 81.19L242.65 100L233.30 100L233.30 60.84L240.71 60.84L241.84 65.86L242.44 65.86Q243.70 63.16 246.06 61.63Q248.41 60.10 251.58 60.10L251.58 60.10Q256.92 60.10 259.58 63.75Q262.23 67.41 262.23 74.44L262.23 74.44L262.23 100ZM290.81 88.54L290.81 88.54Q290.81 94.27 287.46 97.49Q284.10 100.70 277.56 100.70L277.56 100.70Q271.76 100.70 267.96 98.42L267.96 98.42L267.96 90.30Q269.89 91.63 272.48 92.51Q275.06 93.39 277.03 93.39L277.03 93.39Q279.21 93.39 280.35 92.32Q281.50 91.25 281.50 89.49L281.50 89.49Q281.50 87.70 280.30 86.36Q279.11 85.02 275.91 83.09L275.91 83.09Q271.65 80.56 269.81 77.69Q267.96 74.83 267.96 70.93L267.96 70.93Q267.96 65.93 271.39 63.02Q274.82 60.10 280.79 60.10L280.79 60.10Q286.00 60.10 290.60 62.84L290.60 62.84L287.54 69.55Q283.78 67.52 280.93 67.52L280.93 67.52Q279.14 67.52 278.24 68.46Q277.35 69.41 277.35 70.79L277.35 70.79Q277.35 72.37 278.46 73.60Q279.56 74.83 282.59 76.66L282.59 76.66Q286.24 78.87 287.72 80.42Q289.20 81.96 290.00 83.93Q290.81 85.90 290.81 88.54ZM332.12 56.23L332.12 56.23Q328.01 56.23 325.63 61.05Q323.26 65.86 323.26 74.44L323.26 74.44Q323.26 92.30 332.58 92.30L332.58 92.30Q336.66 92.30 341.12 89.70L341.12 89.70L341.12 98.21Q337.36 100.70 331.49 100.70L331.49 100.70Q322.80 100.70 318.15 93.79Q313.49 86.89 313.49 74.37L313.49 74.37Q313.49 61.86 318.29 54.86Q323.09 47.86 331.63 47.86L331.63 47.86Q334.44 47.86 337.03 48.64Q339.61 49.41 342.56 51.34L342.56 51.34L339.40 59.11Q337.82 58.02 336.02 57.13Q334.23 56.23 332.12 56.23ZM376.84 80.35L376.84 80.35Q376.84 89.98 372.76 95.34Q368.68 100.70 361.58 100.70L361.58 100.70Q357.08 100.70 353.64 98.24Q350.19 95.78 348.33 91.16Q346.46 86.54 346.46 80.35L346.46 80.35Q346.46 70.82 350.51 65.46Q354.55 60.10 361.72 60.10L361.72 60.10Q368.65 60.10 372.74 65.56Q376.84 71.03 376.84 80.35ZM356.03 80.35L356.03 80.35Q356.03 86.46 357.36 89.59Q358.70 92.72 361.65 92.72L361.65 92.72Q367.28 92.72 367.28 80.35L367.28 80.35Q367.28 74.20 365.92 71.15Q364.57 68.11 361.65 68.11L361.65 68.11Q358.70 68.11 357.36 71.15Q356.03 74.20 356.03 80.35ZM412.35 100L402.93 100L402.93 76.66Q402.93 72.40 401.91 70.22Q400.89 68.04 398.60 68.04L398.60 68.04Q395.58 68.04 394.17 71.05Q392.77 74.05 392.77 81.19L392.77 81.19L392.77 100L383.41 100L383.41 60.84L390.83 60.84L391.96 65.86L392.55 65.86Q393.82 63.16 396.18 61.63Q398.53 60.10 401.70 60.10L401.70 60.10Q407.04 60.10 409.69 63.75Q412.35 67.41 412.35 74.44L412.35 74.44L412.35 100ZM430.21 100.70L430.21 100.70Q424.79 100.70 421.66 95.36Q418.54 90.02 418.54 80.49L418.54 80.49Q418.54 70.93 421.59 65.51Q424.65 60.10 430.03 60.10L430.03 60.10Q432.70 60.10 434.65 61.42Q436.61 62.73 438.26 65.86L438.26 65.86L438.82 65.86Q438.40 60.52 438.40 58.38L438.40 58.38L438.40 45.30L447.75 45.30L447.75 100L440.79 100L439.21 94.90L438.89 94.90Q435.90 100.70 430.21 100.70ZM433.23 92.79L433.23 92.79Q435.83 92.79 437.03 90.42Q438.22 88.05 438.33 81.79L438.33 81.79L438.33 80.56Q438.33 73.74 437.12 70.96Q435.90 68.18 433.13 68.18L433.13 68.18Q430.52 68.18 429.35 71.37Q428.17 74.55 428.17 80.63L428.17 80.63Q428.17 86.71 429.36 89.75Q430.56 92.79 433.23 92.79ZM470.07 100.70L470.07 100.70Q462.73 100.70 458.49 95.48Q454.25 90.26 454.25 80.70L454.25 80.70Q454.25 71.00 458.09 65.55Q461.92 60.10 468.77 60.10L468.77 60.10Q475.17 60.10 478.86 64.76Q482.55 69.41 482.55 77.82L482.55 77.82L482.55 82.81L463.75 82.81Q463.85 88.05 465.89 90.60Q467.93 93.14 471.52 93.14L471.52 93.14Q476.09 93.14 480.87 90.30L480.87 90.30L480.87 98.00Q476.37 100.70 470.07 100.70ZM468.70 67.30L468.70 67.30Q466.70 67.30 465.40 69.43Q464.10 71.56 463.89 76.02L463.89 76.02L473.38 76.02Q473.31 71.73 472.08 69.52Q470.85 67.30 468.70 67.30ZM517.68 100L508.25 100L508.25 76.66Q508.25 72.40 507.23 70.22Q506.21 68.04 503.93 68.04L503.93 68.04Q500.91 68.04 499.50 71.05Q498.09 74.05 498.09 81.19L498.09 81.19L498.09 100L488.74 100L488.74 60.84L496.16 60.84L497.29 65.86L497.88 65.86Q499.15 63.16 501.50 61.63Q503.86 60.10 507.02 60.10L507.02 60.10Q512.37 60.10 515.02 63.75Q517.68 67.41 517.68 74.44L517.68 74.44L517.68 100ZM546.26 88.54L546.26 88.54Q546.26 94.27 542.90 97.49Q539.54 100.70 533.00 100.70L533.00 100.70Q527.20 100.70 523.41 98.42L523.41 98.42L523.41 90.30Q525.34 91.63 527.92 92.51Q530.51 93.39 532.48 93.39L532.48 93.39Q534.66 93.39 535.80 92.32Q536.94 91.25 536.94 89.49L536.94 89.49Q536.94 87.70 535.75 86.36Q534.55 85.02 531.35 83.09L531.35 83.09Q527.10 80.56 525.25 77.69Q523.41 74.83 523.41 70.93L523.41 70.93Q523.41 65.93 526.83 63.02Q530.26 60.10 536.24 60.10L536.24 60.10Q541.44 60.10 546.05 62.84L546.05 62.84L542.99 69.55Q539.23 67.52 536.38 67.52L536.38 67.52Q534.59 67.52 533.69 68.46Q532.79 69.41 532.79 70.79L532.79 70.79Q532.79 72.37 533.90 73.60Q535.01 74.83 538.03 76.66L538.03 76.66Q541.69 78.87 543.16 80.42Q544.64 81.96 545.45 83.93Q546.26 85.90 546.26 88.54ZM566.61 100.70L566.61 100.70Q559.27 100.70 555.03 95.48Q550.79 90.26 550.79 80.70L550.79 80.70Q550.79 71.00 554.63 65.55Q558.46 60.10 565.31 60.10L565.31 60.10Q571.71 60.10 575.40 64.76Q579.09 69.41 579.09 77.82L579.09 77.82L579.09 82.81L560.29 82.81Q560.39 88.05 562.43 90.60Q564.47 93.14 568.05 93.14L568.05 93.14Q572.63 93.14 577.41 90.30L577.41 90.30L577.41 98.00Q572.91 100.70 566.61 100.70ZM565.24 67.30L565.24 67.30Q563.24 67.30 561.94 69.43Q560.64 71.56 560.43 76.02L560.43 76.02L569.92 76.02Q569.85 71.73 568.62 69.52Q567.39 67.30 565.24 67.30ZM595.58 100.70L595.58 100.70Q590.17 100.70 587.04 95.36Q583.91 90.02 583.91 80.49L583.91 80.49Q583.91 70.93 586.97 65.51Q590.03 60.10 595.41 60.10L595.41 60.10Q598.08 60.10 600.03 61.42Q601.98 62.73 603.63 65.86L603.63 65.86L604.20 65.86Q603.77 60.52 603.77 58.38L603.77 58.38L603.77 45.30L613.13 45.30L613.13 100L606.16 100L604.58 94.90L604.27 94.90Q601.28 100.70 595.58 100.70ZM598.61 92.79L598.61 92.79Q601.21 92.79 602.40 90.42Q603.60 88.05 603.70 81.79L603.70 81.79L603.70 80.56Q603.70 73.74 602.49 70.96Q601.28 68.18 598.50 68.18L598.50 68.18Q595.90 68.18 594.72 71.37Q593.54 74.55 593.54 80.63L593.54 80.63Q593.54 86.71 594.74 89.75Q595.93 92.79 598.61 92.79ZM656.47 60.10L656.47 60.10Q661.82 60.10 664.88 65.41Q667.93 70.71 667.93 80.35L667.93 80.35Q667.93 90.09 664.86 95.39Q661.78 100.70 656.33 100.70L656.33 100.70Q653.70 100.70 651.67 99.56Q649.65 98.42 647.86 95.54L647.86 95.54L647.26 95.54L645.68 100L638.79 100L638.79 45.30L648.14 45.30L648.14 58.09Q648.14 58.90 648.11 59.78Q648.07 60.66 647.65 65.93L647.65 65.93L648.14 65.93Q649.86 62.70 651.87 61.40Q653.87 60.10 656.47 60.10ZM653.24 68.04L653.24 68.04Q650.57 68.04 649.39 70.54Q648.21 73.04 648.14 79.33L648.14 79.33L648.14 80.28Q648.14 87.10 649.35 89.88Q650.57 92.65 653.31 92.65L653.31 92.65Q658.37 92.65 658.37 80.21L658.37 80.21Q658.37 68.04 653.24 68.04ZM703.51 80.35L703.51 80.35Q703.51 89.98 699.43 95.34Q695.36 100.70 688.25 100.70L688.25 100.70Q683.75 100.70 680.31 98.24Q676.86 95.78 675 91.16Q673.14 86.54 673.14 80.35L673.14 80.35Q673.14 70.82 677.18 65.46Q681.22 60.10 688.39 60.10L688.39 60.10Q695.32 60.10 699.42 65.56Q703.51 71.03 703.51 80.35ZM682.70 80.35L682.70 80.35Q682.70 86.46 684.04 89.59Q685.37 92.72 688.32 92.72L688.32 92.72Q693.95 92.72 693.95 80.35L693.95 80.35Q693.95 74.20 692.60 71.15Q691.24 68.11 688.32 68.11L688.32 68.11Q685.37 68.11 684.04 71.15Q682.70 74.20 682.70 80.35ZM719.44 45.30L719.44 100L710.09 100L710.09 45.30L719.44 45.30ZM737.58 100.70L737.58 100.70Q732.16 100.70 729.04 95.36Q725.91 90.02 725.91 80.49L725.91 80.49Q725.91 70.93 728.96 65.51Q732.02 60.10 737.40 60.10L737.40 60.10Q740.07 60.10 742.03 61.42Q743.98 62.73 745.63 65.86L745.63 65.86L746.19 65.86Q745.77 60.52 745.77 58.38L745.77 58.38L745.77 45.30L755.12 45.30L755.12 100L748.16 100L746.58 94.90L746.26 94.90Q743.27 100.70 737.58 100.70ZM740.60 92.79L740.60 92.79Q743.20 92.79 744.40 90.42Q745.59 88.05 745.70 81.79L745.70 81.79L745.70 80.56Q745.70 73.74 744.49 70.96Q743.27 68.18 740.50 68.18L740.50 68.18Q737.89 68.18 736.72 71.37Q735.54 74.55 735.54 80.63L735.54 80.63Q735.54 86.71 736.73 89.75Q737.93 92.79 740.60 92.79Z"/></svg>