<svg xmlns="http://www.w3.org/2000/svg" viewBox="3.65625 45.296875 780.5390625 72"><path d="M54 74L54 74Q54 87 47 94Q41 101 29 101L29 101Q17 101 10 94Q4 87 4 74L4 74Q4 61 10 55Q16 48 29 48L29 48Q41 48 47 55Q54 61 54 74ZM18 74L18 74Q18 89 29 89L29 89Q34 89 36 86Q39 82 39 74L39 74Q39 67 36 63Q34 59 29 59L29 59Q18 59 18 74ZM86 101L86 101Q83 101 81 100Q78 99 76 96L76 96L75 96Q76 100 76 101L76 101L76 117L62 117L62 60L73 60L75 65L76 65Q80 59 86 59L86 59Q93 59 97 65Q101 70 101 80L101 80Q101 90 97 95Q93 101 86 101ZM81 70L81 70Q78 70 77 72Q76 75 76 79L76 79L76 80Q76 85 77 87Q79 90 82 90L82 90Q84 90 85 87Q87 85 87 80L87 80Q87 75 85 72Q84 70 81 70ZM128 101L128 101Q118 101 112 95Q107 90 107 80L107 80Q107 70 112 65Q117 59 126 59L126 59Q135 59 140 64Q145 69 145 78L145 78L145 84L121 84Q121 87 123 89Q125 91 129 91L129 91Q133 91 136 90Q139 90 143 88L143 88L143 98Q139 99 136 100Q132 101 128 101ZM127 69L127 69Q124 69 123 70Q121 72 121 75L121 75L133 75Q133 72 131 71Q129 69 127 69ZM192 100L178 100L178 78Q178 74 177 72Q176 70 173 70L173 70Q170 70 168 73Q167 76 167 83L167 83L167 100L153 100L153 60L163 60L165 65L166 65Q168 62 171 61Q174 59 178 59L178 59Q184 59 188 63Q192 67 192 74L192 74L192 100ZM254 84L254 84Q254 89 252 93Q249 97 245 99Q240 101 234 101L234 101Q229 101 226 100Q222 99 218 97L218 97L218 85Q222 87 227 88Q231 89 234 89L234 89Q238 89 239 88Q240 87 240 86L240 86Q240 85 240 84Q239 83 238 82Q237 81 231 79L231 79Q226 77 224 74Q221 72 220 69Q219 67 219 63L219 63Q219 56 224 52Q229 48 238 48L238 48Q246 48 254 52L254 52L250 62Q243 59 238 59L238 59Q235 59 234 60Q232 61 232 62L232 62Q232 64 234 65Q236 66 242 69L242 69Q249 72 252 76Q254 79 254 84ZM297 100L287 100L285 95L284 95Q282 98 279 99Q276 101 271 101L271 101Q266 101 263 97Q259 94 259 88L259 88Q259 81 264 78Q268 75 277 75L277 75L283 75L283 74Q283 69 278 69L278 69Q274 69 267 72L267 72L263 63Q270 59 281 59L281 59Q289 59 293 63Q297 67 297 74L297 74L297 100ZM277 91L277 91Q280 91 281 89Q283 88 283 85L283 85L283 82L280 82Q273 83 273 87L273 87Q273 91 277 91ZM345 100L331 100L331 78Q331 74 330 72Q329 70 327 70L327 70Q323 70 322 73Q320 76 320 83L320 83L320 100L306 100L306 60L317 60L318 65L319 65Q321 62 324 61Q327 59 331 59L331 59Q338 59 341 63Q345 67 345 74L345 74L345 100ZM385 88L385 88Q385 94 381 97Q377 101 368 101L368 101Q364 101 361 100Q357 100 354 98L354 98L354 87Q357 89 361 90Q365 91 368 91L368 91Q372 91 372 89L372 89Q372 88 371 87Q370 86 364 84L364 84Q358 81 356 78Q354 76 354 71L354 71Q354 66 358 63Q363 59 370 59L370 59Q374 59 378 60Q381 61 385 63L385 63L381 72Q378 70 375 70Q372 69 370 69L370 69Q367 69 367 70L367 70Q367 71 368 72Q369 73 375 75L375 75Q379 77 381 78Q383 80 384 82Q385 85 385 88ZM431 101L431 101Q421 101 415 95Q410 90 410 80L410 80Q410 70 415 65Q420 59 430 59L430 59Q439 59 443 64Q448 69 448 78L448 78L448 84L424 84Q424 87 426 89Q429 91 432 91L432 91Q436 91 439 90Q442 90 446 88L446 88L446 98Q443 99 439 100Q436 101 431 101ZM430 69L430 69Q428 69 426 70Q424 72 424 75L424 75L436 75Q436 72 434 71Q433 69 430 69ZM452 100L465 80L452 60L468 60L474 71L480 60L496 60L483 80L496 100L481 100L474 88L467 100L452 100ZM521 90L521 90Q524 90 528 88L528 88L528 98Q525 100 522 100Q520 101 516 101L516 101Q510 101 506 97Q503 94 503 87L503 87L503 70L499 70L499 65L505 61L508 52L517 52L517 60L527 60L527 70L517 70L517 86Q517 90 521 90ZM559 59L559 59Q560 59 562 60L562 60L563 60L562 73Q560 72 557 72L557 72Q552 72 550 74Q548 77 548 80L548 80L548 100L535 100L535 60L545 60L547 67L548 67Q549 63 552 61Q556 59 559 59ZM604 100L594 100L592 95L591 95Q589 98 586 99Q583 101 578 101L578 101Q573 101 569 97Q566 94 566 88L566 88Q566 81 571 78Q575 75 583 75L583 75L590 75L590 74Q590 69 585 69L585 69Q581 69 574 72L574 72L570 63Q577 59 588 59L588 59Q595 59 600 63Q604 67 604 74L604 74L604 100ZM584 91L584 91Q587 91 588 89Q590 88 590 85L590 85L590 82L587 82Q580 83 580 87L580 87Q580 91 584 91ZM656 59L656 59Q663 59 667 65Q670 70 670 80L670 80Q670 90 667 95Q663 101 656 101L656 101Q654 101 652 100Q650 100 649 99Q647 98 646 96L646 96L645 96L643 100L632 100L632 45L646 45L646 58Q646 60 645 65L645 65L646 65Q648 62 650 61Q653 59 656 59ZM651 70L651 70Q648 70 647 72Q646 74 646 79L646 79L646 80Q646 85 647 88Q648 90 651 90L651 90Q654 90 655 87Q656 85 656 80L656 80Q656 70 651 70ZM716 80L716 80Q716 90 711 95Q706 101 696 101L696 101Q687 101 682 95Q677 90 677 80L677 80Q677 70 682 65Q687 59 697 59L697 59Q702 59 707 62Q711 64 714 69Q716 74 716 80ZM690 80L690 80Q690 85 692 88Q693 91 696 91L696 91Q700 91 701 88Q702 85 702 80L702 80Q702 75 701 72Q700 70 696 70L696 70Q693 70 692 72Q690 75 690 80ZM738 45L738 100L724 100L724 45L738 45ZM760 101L760 101Q756 101 752 98Q749 96 747 91Q746 86 746 80L746 80Q746 70 750 65Q753 59 760 59L760 59Q764 59 766 61Q769 62 771 65L771 65L771 65Q770 61 770 56L770 56L770 45L784 45L784 100L774 100L771 95L770 95Q767 101 760 101ZM765 90L765 90Q769 90 770 88Q771 86 772 81L772 81L772 80Q772 75 770 73Q768 71 765 71L765 71Q763 71 761 73Q760 76 760 80L760 80Q760 85 761 87Q763 90 765 90Z"/></svg>