<svg xmlns="http://www.w3.org/2000/svg" viewBox="4.39453125 45.296875 615.9375 72"><path d="M52 74L52 74Q52 87 45 94Q39 101 28 101L28 101Q17 101 11 94Q4 87 4 74L4 74Q4 62 11 55Q17 48 28 48L28 48Q39 48 45 55Q52 62 52 74ZM11 74L11 74Q11 85 15 90Q20 95 28 95L28 95Q37 95 41 90Q45 85 45 74L45 74Q45 64 41 58Q37 53 28 53L28 53Q20 53 15 59Q11 64 11 74ZM80 101L80 101Q76 101 73 99Q70 98 68 95L68 95L68 95Q68 98 68 101L68 101L68 117L62 117L62 61L67 61L68 67L68 67Q70 64 73 62Q76 61 80 61L80 61Q88 61 92 66Q96 71 96 81L96 81Q96 90 92 95Q88 101 80 101ZM79 66L79 66Q73 66 71 69Q68 72 68 79L68 79L68 81Q68 89 71 92Q74 96 79 96L79 96Q84 96 87 92Q90 88 90 81L90 81Q90 73 87 70Q84 66 79 66ZM123 101L123 101Q114 101 109 96Q104 90 104 81L104 81Q104 72 109 66Q113 61 121 61L121 61Q128 61 133 66Q137 70 137 78L137 78L137 82L110 82Q110 89 114 92Q117 96 123 96L123 96Q129 96 135 93L135 93L135 98Q132 100 129 100Q127 101 123 101ZM121 66L121 66Q116 66 114 69Q111 72 110 77L110 77L131 77Q131 72 128 69Q126 66 121 66ZM179 100L173 100L173 75Q173 70 171 68Q169 66 164 66L164 66Q158 66 155 69Q153 72 153 80L153 80L153 100L147 100L147 61L152 61L152 67L153 67Q155 64 158 62Q161 61 165 61L165 61Q172 61 175 64Q179 67 179 75L179 75L179 100ZM240 86L240 86Q240 93 235 97Q230 101 221 101L221 101Q212 101 207 98L207 98L207 93Q210 94 214 95Q218 95 221 95L221 95Q227 95 230 93Q234 91 234 87L234 87Q234 84 232 83Q231 81 229 79Q226 78 221 76L221 76Q214 74 211 70Q208 66 208 61L208 61Q208 55 212 51Q217 48 224 48L224 48Q232 48 238 51L238 51L236 56Q230 53 224 53L224 53Q219 53 217 55Q214 57 214 61L214 61Q214 64 215 65Q216 67 218 68Q221 70 225 72L225 72Q233 74 237 78Q240 81 240 86ZM277 100L273 100L272 95L271 95Q269 98 266 99Q263 101 259 101L259 101Q253 101 250 98Q246 95 246 89L246 89Q246 78 265 77L265 77L272 77L272 75Q272 70 270 68Q268 66 263 66L263 66Q259 66 252 69L252 69L251 64Q253 63 257 62Q260 61 264 61L264 61Q271 61 274 64Q277 67 277 74L277 74L277 100ZM260 96L260 96Q265 96 268 93Q271 90 271 85L271 85L271 81L266 81Q259 82 255 83Q252 85 252 89L252 89Q252 93 254 94Q256 96 260 96ZM321 100L316 100L316 75Q316 70 313 68Q311 66 307 66L307 66Q301 66 298 69Q295 72 295 80L295 80L295 100L289 100L289 61L294 61L295 67L295 67Q297 64 300 62Q303 61 307 61L307 61Q314 61 318 64Q321 67 321 75L321 75L321 100ZM358 89L358 89Q358 95 354 98Q350 101 343 101L343 101Q335 101 331 98L331 98L331 93Q334 94 337 95Q340 96 343 96L343 96Q348 96 350 94Q353 93 353 90L353 90Q353 88 351 86Q349 85 343 82L343 82Q338 80 335 79Q333 77 332 75Q331 74 331 71L331 71Q331 66 335 63Q339 61 345 61L345 61Q352 61 357 63L357 63L355 68Q350 66 345 66L345 66Q341 66 339 67Q337 68 337 71L337 71Q337 72 337 73Q338 74 340 75Q342 76 347 78L347 78Q353 81 356 83Q358 86 358 89ZM404 61L404 61Q407 61 409 61L409 61L408 67Q405 66 404 66L404 66Q399 66 396 70Q392 74 392 79L392 79L392 100L386 100L386 61L391 61L392 69L392 69Q394 65 397 63Q400 61 404 61ZM432 101L432 101Q424 101 419 96Q414 90 414 81L414 81Q414 72 418 66Q423 61 431 61L431 61Q438 61 442 66Q446 70 446 78L446 78L446 82L420 82Q420 89 423 92Q426 96 432 96L432 96Q439 96 445 93L445 93L445 98Q442 100 439 100Q436 101 432 101ZM431 66L431 66Q426 66 423 69Q420 72 420 77L420 77L440 77Q440 72 438 69Q435 66 431 66ZM474 61L488 61L488 65L481 66Q482 67 482 69Q483 71 483 74L483 74Q483 79 479 83Q475 86 469 86L469 86Q467 86 465 86L465 86Q462 88 462 91L462 91Q462 92 463 93Q464 94 468 94L468 94L474 94Q481 94 484 97Q487 99 487 104L487 104Q487 111 482 114Q477 117 467 117L467 117Q460 117 456 114Q451 112 451 107L451 107Q451 103 454 100Q456 98 460 97L460 97Q459 96 458 95Q457 93 457 92L457 92Q457 90 458 88Q459 86 461 85L461 85Q458 84 456 81Q454 78 454 74L454 74Q454 68 458 64Q462 61 469 61L469 61Q472 61 474 61L474 61ZM457 106L457 106Q457 110 460 111Q462 113 467 113L467 113Q475 113 478 111Q482 108 482 105L482 105Q482 102 480 100Q478 99 472 99L472 99L465 99Q461 99 459 101Q457 103 457 106ZM460 74L460 74Q460 78 463 80Q465 82 469 82L469 82Q477 82 477 74L477 74Q477 65 469 65L469 65Q465 65 462 67Q460 69 460 74ZM495 61L501 61L501 86Q501 91 503 93Q505 96 510 96L510 96Q516 96 519 93Q522 89 522 82L522 82L522 61L528 61L528 100L523 100L522 95L522 95Q520 98 517 99Q513 101 509 101L509 101Q502 101 499 97Q495 94 495 87L495 87L495 61ZM546 45L546 100L540 100L540 45L546 45ZM586 100L582 100L581 95L580 95Q577 98 575 99Q572 101 567 101L567 101Q562 101 558 98Q555 95 555 89L555 89Q555 78 574 77L574 77L580 77L580 75Q580 70 578 68Q577 66 572 66L572 66Q567 66 561 69L561 69L560 64Q562 63 566 62Q569 61 573 61L573 61Q579 61 583 64Q586 67 586 74L586 74L586 100ZM569 96L569 96Q574 96 577 93Q580 90 580 85L580 85L580 81L574 81Q567 82 564 83Q561 85 561 89L561 89Q561 93 563 94Q565 96 569 96ZM616 61L616 61Q618 61 620 61L620 61L620 67Q617 66 615 66L615 66Q611 66 607 70Q604 74 604 79L604 79L604 100L598 100L598 61L603 61L604 69L604 69Q606 65 609 63Q612 61 616 61Z"/></svg>