<svg xmlns="http://www.w3.org/2000/svg" viewBox="0.83984375 -7.2412109375 44.7119140625 9.6435546875"><path d="M6.85-4.45L6.85-4.45Q6.85-3.20 6.39-2.10Q5.93-0.99 5.16-0.45Q4.39 0.10 3.38 0.10L3.38 0.10Q2.16 0.10 1.50-0.63Q0.84-1.36 0.84-2.73L0.84-2.73Q0.84-4.01 1.29-5.06Q1.75-6.11 2.54-6.68Q3.33-7.24 4.36-7.24L4.36-7.24Q5.57-7.24 6.21-6.52Q6.85-5.79 6.85-4.45ZM4.29-6.78L4.29-6.78Q3.44-6.78 2.79-6.29Q2.13-5.80 1.74-4.83Q1.35-3.87 1.35-2.80L1.35-2.80Q1.35-1.60 1.88-0.98Q2.42-0.35 3.44-0.35L3.44-0.35Q4.27-0.35 4.91-0.83Q5.55-1.31 5.93-2.30Q6.32-3.28 6.32-4.40L6.32-4.40Q6.32-5.57 5.81-6.18Q5.30-6.78 4.29-6.78ZM9.58 0.08L9.58 0.08Q8.46 0.08 8.22-0.99L8.22-0.99L8.20-0.99Q8.13-0.64 7.47 2.40L7.47 2.40L6.99 2.40L8.63-5.31L9.03-5.31L8.81-3.97L8.84-3.97Q9.28-4.72 9.79-5.06Q10.30-5.41 10.91-5.41L10.91-5.41Q11.57-5.41 11.92-4.96Q12.28-4.51 12.28-3.58L12.28-3.58Q12.28-2.63 11.93-1.77Q11.58-0.91 10.96-0.42Q10.35 0.08 9.58 0.08ZM10.80-4.97L10.80-4.97Q10.38-4.97 9.95-4.69Q9.53-4.40 9.16-3.87Q8.80-3.33 8.62-2.71Q8.45-2.08 8.45-1.69L8.45-1.69Q8.45-1.08 8.75-0.71Q9.05-0.34 9.57-0.34L9.57-0.34Q10.18-0.34 10.67-0.75Q11.16-1.16 11.47-1.94Q11.78-2.72 11.78-3.53L11.78-3.53Q11.78-4.97 10.80-4.97ZM15.05 0.10L15.05 0.10Q14.20 0.10 13.73-0.44Q13.26-0.97 13.26-1.93L13.26-1.93Q13.26-2.81 13.60-3.62Q13.95-4.43 14.56-4.91Q15.17-5.39 15.90-5.39L15.90-5.39Q16.46-5.39 16.79-5.09Q17.12-4.79 17.12-4.28L17.12-4.28Q17.12-3.40 16.32-2.93Q15.52-2.47 13.95-2.47L13.95-2.47L13.79-2.47Q13.76-2.26 13.76-1.99L13.76-1.99Q13.76-1.19 14.12-0.76Q14.48-0.34 15.16-0.34L15.16-0.34Q15.81-0.34 16.51-0.70L16.51-0.70L16.51-0.24Q15.83 0.10 15.05 0.10ZM15.84-4.97L15.84-4.97Q15.20-4.97 14.65-4.41Q14.10-3.84 13.86-2.90L13.86-2.90L14.10-2.90Q16.62-2.90 16.62-4.22L16.62-4.22Q16.62-4.55 16.41-4.76Q16.20-4.97 15.84-4.97ZM21.50 0L21.02 0L21.75-3.38Q21.85-3.83 21.85-4.14L21.85-4.14Q21.85-4.53 21.64-4.75Q21.43-4.97 20.98-4.97L20.98-4.97Q20.43-4.97 19.95-4.64Q19.47-4.32 19.14-3.73Q18.81-3.14 18.64-2.33L18.64-2.33L18.14 0L17.66 0L18.79-5.31L19.19-5.31L19.01-4.23L19.04-4.23Q19.84-5.39 21.07-5.39L21.07-5.39Q21.70-5.39 22.02-5.08Q22.34-4.77 22.34-4.18L22.34-4.18Q22.34-3.84 22.22-3.29L22.22-3.29L21.50 0ZM29.84-1.97L29.84-1.97Q29.84-1.35 29.52-0.87Q29.20-0.39 28.64-0.15Q28.09 0.10 27.33 0.10L27.33 0.10Q26.90 0.10 26.49 0.01Q26.07-0.07 25.65-0.27L25.65-0.27L25.65-0.80Q26.45-0.35 27.35-0.35L27.35-0.35Q28.27-0.35 28.79-0.77Q29.32-1.20 29.32-1.91L29.32-1.91Q29.32-2.21 29.23-2.42Q29.15-2.63 28.98-2.80Q28.80-2.97 28.53-3.13Q28.26-3.30 27.89-3.50L27.89-3.50Q27.16-3.87 26.87-4.30Q26.58-4.73 26.58-5.31L26.58-5.31Q26.58-5.88 26.87-6.32Q27.15-6.76 27.67-7.00Q28.19-7.24 28.83-7.24L28.83-7.24Q29.31-7.24 29.71-7.16Q30.10-7.07 30.53-6.86L30.53-6.86L30.37-6.40Q30.05-6.60 29.63-6.71Q29.21-6.82 28.83-6.82L28.83-6.82Q28.03-6.82 27.56-6.42Q27.09-6.02 27.09-5.35L27.09-5.35Q27.09-4.85 27.33-4.52Q27.57-4.19 28.22-3.87L28.22-3.87Q28.97-3.49 29.26-3.24Q29.55-2.99 29.69-2.69Q29.84-2.38 29.84-1.97ZM33.65-5.39L33.65-5.39Q34.78-5.39 35.01-4.32L35.01-4.32L35.04-4.32L35.33-5.31L35.72-5.31L34.60 0L34.20 0L34.42-1.34L34.39-1.34Q33.98-0.64 33.48-0.27Q32.97 0.10 32.32 0.10L32.32 0.10Q30.95 0.10 30.95-1.73L30.95-1.73Q30.95-2.69 31.31-3.56Q31.68-4.44 32.29-4.91Q32.91-5.39 33.65-5.39ZM32.43-0.34L32.43-0.34Q32.87-0.34 33.30-0.64Q33.73-0.95 34.07-1.46Q34.42-1.96 34.60-2.58Q34.78-3.19 34.78-3.62L34.78-3.62Q34.78-4.00 34.65-4.31Q34.53-4.61 34.28-4.79Q34.03-4.97 33.66-4.97L33.66-4.97Q33.05-4.97 32.56-4.57Q32.08-4.17 31.76-3.37Q31.45-2.57 31.45-1.78L31.45-1.78Q31.45-1.04 31.69-0.69Q31.94-0.34 32.43-0.34ZM40.19 0L39.71 0L40.44-3.38Q40.54-3.83 40.54-4.14L40.54-4.14Q40.54-4.53 40.33-4.75Q40.12-4.97 39.67-4.97L39.67-4.97Q39.13-4.97 38.65-4.64Q38.16-4.32 37.83-3.73Q37.50-3.14 37.33-2.33L37.33-2.33L36.83 0L36.35 0L37.48-5.31L37.88-5.31L37.70-4.23L37.73-4.23Q38.53-5.39 39.76-5.39L39.76-5.39Q40.40-5.39 40.71-5.08Q41.03-4.77 41.03-4.18L41.03-4.18Q41.03-3.84 40.91-3.29L40.91-3.29L40.19 0ZM45.04-1.44L45.04-1.44Q45.04-0.74 44.54-0.32Q44.04 0.10 43.17 0.10L43.17 0.10Q42.33 0.10 41.68-0.27L41.68-0.27L41.68-0.79Q42.05-0.57 42.43-0.44Q42.82-0.32 43.15-0.32L43.15-0.32Q43.83-0.32 44.18-0.60Q44.54-0.88 44.54-1.40L44.54-1.40Q44.54-1.61 44.47-1.76Q44.39-1.92 44.22-2.06Q44.05-2.21 43.57-2.48L43.57-2.48Q42.85-2.87 42.60-3.19Q42.34-3.51 42.34-3.97L42.34-3.97Q42.34-4.59 42.82-4.99Q43.31-5.39 44.09-5.39L44.09-5.39Q44.46-5.39 44.87-5.31Q45.27-5.22 45.55-5.08L45.55-5.08L45.38-4.65Q44.72-4.96 44.09-4.96L44.09-4.96Q43.53-4.96 43.18-4.70Q42.84-4.44 42.84-4.03L42.84-4.03Q42.84-3.76 42.92-3.60Q43.01-3.44 43.22-3.26Q43.43-3.09 43.80-2.89L43.80-2.89Q44.36-2.58 44.59-2.39Q44.82-2.19 44.93-1.96Q45.04-1.74 45.04-1.44Z"/></svg>