<svg xmlns="http://www.w3.org/2000/svg" viewBox="3.65625 44.06640625 947.28515625 73.23046875"><path d="M31.54 47.79L31.54 47.79Q40.68 47.79 45.76 53.01Q50.84 58.23 50.84 67.59L50.84 67.59Q50.84 76.94 47.34 84.69Q43.84 92.44 37.69 96.57Q31.54 100.70 23.41 100.70L23.41 100.70Q13.96 100.70 8.81 95.46Q3.66 90.23 3.66 80.91L3.66 80.91Q3.66 71.59 7.28 63.79Q10.90 55.98 17.14 51.89Q23.38 47.79 31.54 47.79ZM36.95 67.73L36.95 67.73Q36.95 63.72 35.26 61.45Q33.57 59.18 30.38 59.18L30.38 59.18Q26.89 59.18 23.98 62.14Q21.06 65.09 19.32 70.26Q17.58 75.43 17.58 80.84L17.58 80.84Q17.58 89.35 24.61 89.35L24.61 89.35Q27.95 89.35 30.81 86.43Q33.68 83.51 35.31 78.55Q36.95 73.60 36.95 67.73ZM75.94 100.70L75.94 100.70Q70.91 100.70 67.82 95.61L67.82 95.61L67.54 95.61Q67.11 101.44 65.57 108.65L65.57 108.65L63.77 117.30L50.17 117.30L62.26 60.17L73.13 60.17L72.70 64.63L72.98 64.63Q76.36 59.46 82.05 59.46L82.05 59.46Q87.54 59.46 90.67 63.38Q93.80 67.30 93.80 74.16L93.80 74.16Q93.80 81.30 91.34 87.61Q88.88 93.92 84.81 97.31Q80.75 100.70 75.94 100.70ZM76.89 70.40L76.89 70.40Q75.13 70.40 73.55 72.40Q71.96 74.41 71.03 77.82Q70.10 81.23 70.10 84.74L70.10 84.74Q70.10 87.03 70.91 88.40Q71.72 89.77 73.20 89.77L73.20 89.77Q74.88 89.77 76.43 87.77Q77.98 85.76 78.94 82.39Q79.91 79.01 79.91 75.46L79.91 75.46Q79.91 70.40 76.89 70.40ZM115.45 100.70L115.45 100.70Q108 100.70 103.85 96.54Q99.70 92.37 99.70 84.95L99.70 84.95Q99.70 77.54 102.64 71.58Q105.57 65.62 110.69 62.54Q115.80 59.46 122.52 59.46L122.52 59.46Q129.20 59.46 133.03 62.49Q136.86 65.51 136.86 70.54L136.86 70.54Q136.86 77.61 131.36 81.38Q125.86 85.16 115.45 85.16L115.45 85.16L113.38 85.16L113.38 85.73Q113.38 90.93 119.14 90.93L119.14 90.93Q121.92 90.93 124.59 90.10Q127.27 89.28 130.68 87.48L130.68 87.48L130.68 97.12Q126.74 99.12 123.33 99.91Q119.92 100.70 115.45 100.70ZM121.01 68.68L121.01 68.68Q118.86 68.68 117 71.12Q115.14 73.56 114.75 76.66L114.75 76.66L115.77 76.66Q119.60 76.66 121.78 75.20Q123.96 73.74 123.96 71.35L123.96 71.35Q123.96 70.22 123.26 69.45Q122.55 68.68 121.01 68.68ZM166.08 73.28L166.08 73.28Q166.08 71.77 165.30 71.01Q164.53 70.26 163.44 70.26L163.44 70.26Q161.44 70.26 159.73 72.75Q158.03 75.25 156.94 80.56L156.94 80.56L152.86 100L139.25 100L147.66 60.17L158.52 60.17L158.10 65.72L158.38 65.72Q160.31 62.38 162.93 60.92Q165.55 59.46 169.35 59.46L169.35 59.46Q174.30 59.46 177.08 62.47Q179.86 65.48 179.86 70.79L179.86 70.79Q179.86 74.51 178.98 78.84L178.98 78.84L174.52 100L160.91 100L165.45 78.27Q166.08 75.53 166.08 73.28ZM236.29 84.21L236.29 84.21Q236.29 92.02 231.12 96.36Q225.95 100.70 216.70 100.70L216.70 100.70Q212.84 100.70 209.39 99.84Q205.95 98.98 203.45 97.33L203.45 97.33L203.45 85.02Q206.40 86.89 210.22 88.15Q214.03 89.42 217.13 89.42L217.13 89.42Q219.73 89.42 221.06 88.33Q222.40 87.24 222.40 85.23L222.40 85.23Q222.40 84.29 221.98 83.46Q221.55 82.63 220.78 81.81Q220.01 80.98 216.63 78.17L216.63 78.17Q212.52 74.86 210.66 71.42Q208.79 67.97 208.79 63.86L208.79 63.86Q208.79 59.25 211.10 55.58Q213.40 51.91 217.60 49.88Q221.80 47.86 227.00 47.86L227.00 47.86Q235.41 47.86 242.12 51.63L242.12 51.63L237.38 62.07Q231.36 58.97 227.14 58.97L227.14 58.97Q224.89 58.97 223.68 59.96Q222.47 60.94 222.47 62.84L222.47 62.84Q222.47 64.56 223.65 66.06Q224.82 67.55 228.13 70.05L228.13 70.05Q232.28 73.11 234.28 76.48Q236.29 79.86 236.29 84.21ZM261.25 89.77L261.25 89.77Q263.00 89.77 264.60 87.71Q266.20 85.66 267.15 82.21Q268.10 78.77 268.10 75.46L268.10 75.46Q268.10 73.18 267.40 71.79Q266.70 70.40 265.22 70.40L265.22 70.40Q262.55 70.40 260.38 74.85Q258.22 79.29 258.22 84.74L258.22 84.74Q258.22 89.77 261.25 89.77ZM284.31 60.17L275.87 100L265.01 100L265.36 95.68L265.08 95.68Q263.11 98.42 260.82 99.56Q258.54 100.70 255.66 100.70L255.66 100.70Q250.10 100.70 247.22 96.78Q244.34 92.86 244.34 85.52L244.34 85.52Q244.34 79.22 246.90 72.68Q249.47 66.14 253.39 62.80Q257.31 59.46 262.05 59.46L262.05 59.46Q265.01 59.46 267.26 60.78Q269.51 62.10 271.27 65.09L271.27 65.09L271.55 65.09L273.41 60.17L284.31 60.17ZM312.71 73.28L312.71 73.28Q312.71 71.77 311.94 71.01Q311.17 70.26 310.08 70.26L310.08 70.26Q308.07 70.26 306.37 72.75Q304.66 75.25 303.57 80.56L303.57 80.56L299.50 100L285.89 100L294.29 60.17L305.16 60.17L304.73 65.72L305.02 65.72Q306.95 62.38 309.57 60.92Q312.19 59.46 315.98 59.46L315.98 59.46Q320.94 59.46 323.72 62.47Q326.50 65.48 326.50 70.79L326.50 70.79Q326.50 74.51 325.62 78.84L325.62 78.84L321.15 100L307.55 100L312.08 78.27Q312.71 75.53 312.71 73.28ZM361.20 86.18L361.20 86.18Q361.20 93.18 356.63 96.94Q352.05 100.70 343.48 100.70L343.48 100.70Q335.67 100.70 330.96 98.49L330.96 98.49L330.96 87.55Q334.20 89.31 336.97 90.02Q339.75 90.72 342.60 90.72L342.60 90.72Q344.99 90.72 346.18 90.07Q347.38 89.42 347.38 88.26L347.38 88.26Q347.38 87.03 346.46 86.13Q345.55 85.23 341.89 83.16L341.89 83.16Q338.17 81.12 336.46 78.48Q334.76 75.85 334.76 72.05L334.76 72.05Q334.76 66.00 339.01 62.73Q343.27 59.46 351.11 59.46L351.11 59.46Q355.04 59.46 358.28 60.38Q361.51 61.29 364.57 63.19L364.57 63.19L360.32 72.05Q358.00 70.54 355.52 69.64Q353.04 68.75 351.25 68.75L351.25 68.75Q348.57 68.75 348.57 71.14L348.57 71.14Q348.57 72.16 349.68 72.93Q350.79 73.70 353.29 74.93L353.29 74.93Q361.20 78.87 361.20 86.18ZM403.42 100.70L403.42 100.70Q395.96 100.70 391.82 96.54Q387.67 92.37 387.67 84.95L387.67 84.95Q387.67 77.54 390.60 71.58Q393.54 65.62 398.65 62.54Q403.77 59.46 410.48 59.46L410.48 59.46Q417.16 59.46 421.00 62.49Q424.83 65.51 424.83 70.54L424.83 70.54Q424.83 77.61 419.33 81.38Q413.82 85.16 403.42 85.16L403.42 85.16L401.34 85.16L401.34 85.73Q401.34 90.93 407.11 90.93L407.11 90.93Q409.89 90.93 412.56 90.10Q415.23 89.28 418.64 87.48L418.64 87.48L418.64 97.12Q414.70 99.12 411.29 99.91Q407.88 100.70 403.42 100.70ZM408.97 68.68L408.97 68.68Q406.83 68.68 404.96 71.12Q403.10 73.56 402.71 76.66L402.71 76.66L403.73 76.66Q407.57 76.66 409.75 75.20Q411.93 73.74 411.93 71.35L411.93 71.35Q411.93 70.22 411.22 69.45Q410.52 68.68 408.97 68.68ZM448.38 100L445.57 88.47L438.15 100L422.23 100L438.86 79.68L431.58 60.17L446.41 60.17L449.09 71.21L455.63 60.17L471.76 60.17L455.41 80.42L463.43 100L448.38 100ZM487.09 89.77L487.09 89.77Q489.41 89.77 493.52 88.12L493.52 88.12L493.52 98.35Q488.74 100.70 481.57 100.70L481.57 100.70Q476.37 100.70 473.68 98.47Q470.99 96.24 470.99 91.14L470.99 91.14Q470.99 88.47 471.83 84.53L471.83 84.53L474.79 70.40L469.37 70.40L470.81 63.72L478.48 60.63L483.29 52.19L492.36 52.19L490.64 60.17L500.77 60.17L498.55 70.40L488.39 70.40L485.44 83.86Q484.88 86.57 484.88 87.55L484.88 87.55Q484.88 89.77 487.09 89.77ZM531.74 59.46L531.74 59.46Q533.71 59.46 534.55 59.75L534.55 59.75L531.60 73.21Q529.70 72.44 527.27 72.44L527.27 72.44Q523.65 72.44 521.49 74.92Q519.33 77.39 518.20 82.49L518.20 82.49L514.48 100L500.87 100L509.27 60.17L520.14 60.17L519.50 66.81L519.79 66.81Q522.07 62.88 524.74 61.17Q527.41 59.46 531.74 59.46ZM551.39 89.77L551.39 89.77Q553.15 89.77 554.75 87.71Q556.35 85.66 557.30 82.21Q558.25 78.77 558.25 75.46L558.25 75.46Q558.25 73.18 557.54 71.79Q556.84 70.40 555.36 70.40L555.36 70.40Q552.69 70.40 550.53 74.85Q548.37 79.29 548.37 84.74L548.37 84.74Q548.37 89.77 551.39 89.77ZM574.45 60.17L566.02 100L555.15 100L555.50 95.68L555.22 95.68Q553.25 98.42 550.97 99.56Q548.68 100.70 545.80 100.70L545.80 100.70Q540.25 100.70 537.36 96.78Q534.48 92.86 534.48 85.52L534.48 85.52Q534.48 79.22 537.05 72.68Q539.61 66.14 543.53 62.80Q547.45 59.46 552.20 59.46L552.20 59.46Q555.15 59.46 557.40 60.78Q559.65 62.10 561.41 65.09L561.41 65.09L561.69 65.09L563.55 60.17L574.45 60.17ZM617.03 100.70L617.03 100.70Q614.11 100.70 611.93 99.58Q609.75 98.45 607.54 95.61L607.54 95.61L607.25 95.61L605.53 100L594.74 100L606.30 45.30L619.91 45.30L618.19 53.42Q616.85 59.57 615.02 64L615.02 64L615.30 64Q616.99 61.93 618.03 61.13Q619.07 60.34 620.37 59.90Q621.67 59.46 623.39 59.46L623.39 59.46Q628.84 59.46 631.76 63.38Q634.68 67.30 634.68 74.65L634.68 74.65Q634.68 80.91 632.20 87.38Q629.72 93.85 625.78 97.28Q621.84 100.70 617.03 100.70ZM617.77 70.40L617.77 70.40Q616.01 70.40 614.43 72.40Q612.84 74.41 611.91 77.82Q610.98 81.23 610.98 84.74L610.98 84.74Q610.98 87.03 611.65 88.40Q612.32 89.77 613.72 89.77L613.72 89.77Q615.45 89.77 617.10 87.70Q618.75 85.62 619.77 82.21Q620.79 78.80 620.79 75.46L620.79 75.46Q620.79 70.40 617.77 70.40ZM655.91 100.70L655.91 100.70Q648.56 100.70 644.57 96.73Q640.58 92.76 640.58 85.38L640.58 85.38Q640.58 77.99 643.38 72.03Q646.17 66.07 651.23 62.77Q656.30 59.46 663.05 59.46L663.05 59.46Q670.39 59.46 674.38 63.44Q678.38 67.41 678.38 74.79L678.38 74.79Q678.38 82.18 675.58 88.13Q672.79 94.09 667.72 97.40Q662.66 100.70 655.91 100.70ZM661.46 69.70L661.46 69.70Q658.58 69.70 656.53 74.60Q654.47 79.50 654.47 85.83L654.47 85.83Q654.47 90.51 657.42 90.51L657.42 90.51Q660.27 90.51 662.38 85.62Q664.49 80.73 664.49 74.37L664.49 74.37Q664.49 72.05 663.68 70.87Q662.87 69.70 661.46 69.70ZM707.31 45.30L695.74 100L682.14 100L693.70 45.30L707.31 45.30ZM725.34 59.46L725.34 59.46Q727.98 59.46 729.77 60.54Q731.57 61.61 733.68 64.81L733.68 64.81L733.96 64.81L734.03 63.51Q734.27 58.66 734.91 55.88L734.91 55.88L737.09 45.30L750.83 45.30L739.23 100L728.37 100L728.72 95.68L728.44 95.68Q726.43 98.45 724.22 99.58Q722.00 100.70 719.02 100.70L719.02 100.70Q713.46 100.70 710.58 96.78Q707.70 92.86 707.70 85.52L707.70 85.52Q707.70 79.26 710.21 72.75Q712.72 66.25 716.66 62.86Q720.60 59.46 725.34 59.46ZM724.61 89.77L724.61 89.77Q726.36 89.77 727.96 87.71Q729.56 85.66 730.51 82.21Q731.46 78.77 731.46 75.46L731.46 75.46Q731.46 70.40 728.65 70.40L728.65 70.40Q726.93 70.40 725.27 72.47Q723.62 74.55 722.60 77.94Q721.58 81.33 721.58 84.74L721.58 84.74Q721.58 89.77 724.61 89.77ZM789.82 60.17L781.35 100L767.74 100L776.14 60.17L789.82 60.17ZM777.80 51.41L777.80 51.41Q777.80 47.79 779.89 45.93Q781.98 44.07 785.74 44.07L785.74 44.07Q788.94 44.07 790.68 45.35Q792.42 46.63 792.42 49.02L792.42 49.02Q792.42 52.54 790.38 54.46Q788.34 56.37 784.51 56.37L784.51 56.37Q777.80 56.37 777.80 51.41ZM810.28 89.77L810.28 89.77Q812.60 89.77 816.71 88.12L816.71 88.12L816.71 98.35Q811.93 100.70 804.76 100.70L804.76 100.70Q799.56 100.70 796.87 98.47Q794.18 96.24 794.18 91.14L794.18 91.14Q794.18 88.47 795.02 84.53L795.02 84.53L797.98 70.40L792.56 70.40L794.00 63.72L801.67 60.63L806.48 52.19L815.55 52.19L813.83 60.17L823.96 60.17L821.74 70.40L811.58 70.40L808.63 83.86Q808.07 86.57 808.07 87.55L808.07 87.55Q808.07 89.77 810.28 89.77ZM843.12 89.77L843.12 89.77Q844.88 89.77 846.47 87.71Q848.07 85.66 849.02 82.21Q849.97 78.77 849.97 75.46L849.97 75.46Q849.97 73.18 849.27 71.79Q848.57 70.40 847.09 70.40L847.09 70.40Q844.42 70.40 842.26 74.85Q840.09 79.29 840.09 84.74L840.09 84.74Q840.09 89.77 843.12 89.77ZM866.18 60.17L857.74 100L846.88 100L847.23 95.68L846.95 95.68Q844.98 98.42 842.70 99.56Q840.41 100.70 837.53 100.70L837.53 100.70Q831.97 100.70 829.09 96.78Q826.21 92.86 826.21 85.52L826.21 85.52Q826.21 79.22 828.77 72.68Q831.34 66.14 835.26 62.80Q839.18 59.46 843.93 59.46L843.93 59.46Q846.88 59.46 849.13 60.78Q851.38 62.10 853.14 65.09L853.14 65.09L853.42 65.09L855.28 60.17L866.18 60.17ZM892.93 45.30L881.37 100L867.76 100L879.33 45.30L892.93 45.30ZM913.25 60.17L904.78 100L891.18 100L899.58 60.17L913.25 60.17ZM901.23 51.41L901.23 51.41Q901.23 47.79 903.32 45.93Q905.41 44.07 909.18 44.07L909.18 44.07Q912.38 44.07 914.12 45.35Q915.86 46.63 915.86 49.02L915.86 49.02Q915.86 52.54 913.82 54.46Q911.78 56.37 907.95 56.37L907.95 56.37Q901.23 56.37 901.23 51.41ZM931.57 100.70L931.57 100.70Q924.57 100.70 920.65 96.47Q916.73 92.23 916.73 84.46L916.73 84.46Q916.73 77.39 919.42 71.65Q922.11 65.90 926.98 62.68Q931.85 59.46 938.04 59.46L938.04 59.46Q944.89 59.46 950.94 62.28L950.94 62.28L946.62 72.37Q941.94 70.26 938.71 70.26L938.71 70.26Q936.53 70.26 934.66 71.95Q932.80 73.63 931.61 76.99Q930.41 80.35 930.41 83.58L930.41 83.58Q930.41 86.78 931.46 88.28Q932.52 89.77 934.80 89.77L934.80 89.77Q937.34 89.77 939.71 88.96Q942.08 88.15 944.75 86.75L944.75 86.75L944.75 97.54Q941.94 99.09 938.83 99.89Q935.72 100.70 931.57 100.70Z"/></svg>