<svg xmlns="http://www.w3.org/2000/svg" viewBox="3.65625 44.06640625 709.06640625 73.23046875"><path d="M31.54 47.79L31.54 47.79Q40.68 47.79 45.76 53.01Q50.84 58.23 50.84 67.59L50.84 67.59Q50.84 76.94 47.34 84.69Q43.84 92.44 37.69 96.57Q31.54 100.70 23.41 100.70L23.41 100.70Q13.96 100.70 8.81 95.46Q3.66 90.23 3.66 80.91L3.66 80.91Q3.66 71.59 7.28 63.79Q10.90 55.98 17.14 51.89Q23.38 47.79 31.54 47.79ZM36.95 67.73L36.95 67.73Q36.95 63.72 35.26 61.45Q33.57 59.18 30.38 59.18L30.38 59.18Q26.89 59.18 23.98 62.14Q21.06 65.09 19.32 70.26Q17.58 75.43 17.58 80.84L17.58 80.84Q17.58 89.35 24.61 89.35L24.61 89.35Q27.95 89.35 30.81 86.43Q33.68 83.51 35.31 78.55Q36.95 73.60 36.95 67.73ZM75.94 100.70L75.94 100.70Q70.91 100.70 67.82 95.61L67.82 95.61L67.54 95.61Q67.11 101.44 65.57 108.65L65.57 108.65L63.77 117.30L50.17 117.30L62.26 60.17L73.13 60.17L72.70 64.63L72.98 64.63Q76.36 59.46 82.05 59.46L82.05 59.46Q87.54 59.46 90.67 63.38Q93.80 67.30 93.80 74.16L93.80 74.16Q93.80 81.30 91.34 87.61Q88.88 93.92 84.81 97.31Q80.75 100.70 75.94 100.70ZM76.89 70.40L76.89 70.40Q75.13 70.40 73.55 72.40Q71.96 74.41 71.03 77.82Q70.10 81.23 70.10 84.74L70.10 84.74Q70.10 87.03 70.91 88.40Q71.72 89.77 73.20 89.77L73.20 89.77Q74.88 89.77 76.43 87.77Q77.98 85.76 78.94 82.39Q79.91 79.01 79.91 75.46L79.91 75.46Q79.91 70.40 76.89 70.40ZM115.45 100.70L115.45 100.70Q108 100.70 103.85 96.54Q99.70 92.37 99.70 84.95L99.70 84.95Q99.70 77.54 102.64 71.58Q105.57 65.62 110.69 62.54Q115.80 59.46 122.52 59.46L122.52 59.46Q129.20 59.46 133.03 62.49Q136.86 65.51 136.86 70.54L136.86 70.54Q136.86 77.61 131.36 81.38Q125.86 85.16 115.45 85.16L115.45 85.16L113.38 85.16L113.38 85.73Q113.38 90.93 119.14 90.93L119.14 90.93Q121.92 90.93 124.59 90.10Q127.27 89.28 130.68 87.48L130.68 87.48L130.68 97.12Q126.74 99.12 123.33 99.91Q119.92 100.70 115.45 100.70ZM121.01 68.68L121.01 68.68Q118.86 68.68 117 71.12Q115.14 73.56 114.75 76.66L114.75 76.66L115.77 76.66Q119.60 76.66 121.78 75.20Q123.96 73.74 123.96 71.35L123.96 71.35Q123.96 70.22 123.26 69.45Q122.55 68.68 121.01 68.68ZM166.08 73.28L166.08 73.28Q166.08 71.77 165.30 71.01Q164.53 70.26 163.44 70.26L163.44 70.26Q161.44 70.26 159.73 72.75Q158.03 75.25 156.94 80.56L156.94 80.56L152.86 100L139.25 100L147.66 60.17L158.52 60.17L158.10 65.72L158.38 65.72Q160.31 62.38 162.93 60.92Q165.55 59.46 169.35 59.46L169.35 59.46Q174.30 59.46 177.08 62.47Q179.86 65.48 179.86 70.79L179.86 70.79Q179.86 74.51 178.98 78.84L178.98 78.84L174.52 100L160.91 100L165.45 78.27Q166.08 75.53 166.08 73.28ZM236.29 84.21L236.29 84.21Q236.29 92.02 231.12 96.36Q225.95 100.70 216.70 100.70L216.70 100.70Q212.84 100.70 209.39 99.84Q205.95 98.98 203.45 97.33L203.45 97.33L203.45 85.02Q206.40 86.89 210.22 88.15Q214.03 89.42 217.13 89.42L217.13 89.42Q219.73 89.42 221.06 88.33Q222.40 87.24 222.40 85.23L222.40 85.23Q222.40 84.29 221.98 83.46Q221.55 82.63 220.78 81.81Q220.01 80.98 216.63 78.17L216.63 78.17Q212.52 74.86 210.66 71.42Q208.79 67.97 208.79 63.86L208.79 63.86Q208.79 59.25 211.10 55.58Q213.40 51.91 217.60 49.88Q221.80 47.86 227.00 47.86L227.00 47.86Q235.41 47.86 242.12 51.63L242.12 51.63L237.38 62.07Q231.36 58.97 227.14 58.97L227.14 58.97Q224.89 58.97 223.68 59.96Q222.47 60.94 222.47 62.84L222.47 62.84Q222.47 64.56 223.65 66.06Q224.82 67.55 228.13 70.05L228.13 70.05Q232.28 73.11 234.28 76.48Q236.29 79.86 236.29 84.21ZM261.25 89.77L261.25 89.77Q263.00 89.77 264.60 87.71Q266.20 85.66 267.15 82.21Q268.10 78.77 268.10 75.46L268.10 75.46Q268.10 73.18 267.40 71.79Q266.70 70.40 265.22 70.40L265.22 70.40Q262.55 70.40 260.38 74.85Q258.22 79.29 258.22 84.74L258.22 84.74Q258.22 89.77 261.25 89.77ZM284.31 60.17L275.87 100L265.01 100L265.36 95.68L265.08 95.68Q263.11 98.42 260.82 99.56Q258.54 100.70 255.66 100.70L255.66 100.70Q250.10 100.70 247.22 96.78Q244.34 92.86 244.34 85.52L244.34 85.52Q244.34 79.22 246.90 72.68Q249.47 66.14 253.39 62.80Q257.31 59.46 262.05 59.46L262.05 59.46Q265.01 59.46 267.26 60.78Q269.51 62.10 271.27 65.09L271.27 65.09L271.55 65.09L273.41 60.17L284.31 60.17ZM312.71 73.28L312.71 73.28Q312.71 71.77 311.94 71.01Q311.17 70.26 310.08 70.26L310.08 70.26Q308.07 70.26 306.37 72.75Q304.66 75.25 303.57 80.56L303.57 80.56L299.50 100L285.89 100L294.29 60.17L305.16 60.17L304.73 65.72L305.02 65.72Q306.95 62.38 309.57 60.92Q312.19 59.46 315.98 59.46L315.98 59.46Q320.94 59.46 323.72 62.47Q326.50 65.48 326.50 70.79L326.50 70.79Q326.50 74.51 325.62 78.84L325.62 78.84L321.15 100L307.55 100L312.08 78.27Q312.71 75.53 312.71 73.28ZM361.20 86.18L361.20 86.18Q361.20 93.18 356.63 96.94Q352.05 100.70 343.48 100.70L343.48 100.70Q335.67 100.70 330.96 98.49L330.96 98.49L330.96 87.55Q334.20 89.31 336.97 90.02Q339.75 90.72 342.60 90.72L342.60 90.72Q344.99 90.72 346.18 90.07Q347.38 89.42 347.38 88.26L347.38 88.26Q347.38 87.03 346.46 86.13Q345.55 85.23 341.89 83.16L341.89 83.16Q338.17 81.12 336.46 78.48Q334.76 75.85 334.76 72.05L334.76 72.05Q334.76 66.00 339.01 62.73Q343.27 59.46 351.11 59.46L351.11 59.46Q355.04 59.46 358.28 60.38Q361.51 61.29 364.57 63.19L364.57 63.19L360.32 72.05Q358.00 70.54 355.52 69.64Q353.04 68.75 351.25 68.75L351.25 68.75Q348.57 68.75 348.57 71.14L348.57 71.14Q348.57 72.16 349.68 72.93Q350.79 73.70 353.29 74.93L353.29 74.93Q361.20 78.87 361.20 86.18ZM410.20 47.79L410.20 47.79Q417.23 47.79 421.31 51.04Q425.39 54.30 425.39 59.54L425.39 59.54Q425.39 64.04 422.67 67.57Q419.94 71.10 415.55 72.51L415.55 72.51Q418.78 75.00 420.47 78.06Q422.16 81.12 422.16 85.23L422.16 85.23Q422.16 92.48 417.20 96.59Q412.24 100.70 403.59 100.70L403.59 100.70Q395.68 100.70 391.06 97.22Q386.44 93.74 386.44 88.12L386.44 88.12Q386.44 77.54 398.11 73.42L398.11 73.42Q392.63 69.17 392.63 62.56L392.63 62.56Q392.63 58.30 394.75 54.95Q396.88 51.59 400.87 49.69Q404.86 47.79 410.20 47.79ZM405.25 78.63L405.25 78.63Q399.27 81.79 399.27 86.46L399.27 86.46Q399.27 88.36 400.55 89.58Q401.84 90.79 403.95 90.79L403.95 90.79Q406.41 90.79 407.90 89.31Q409.39 87.84 409.39 85.45L409.39 85.45Q409.39 81.40 405.25 78.63ZM409.57 57.74L409.57 57.74Q407.88 57.74 406.63 59.13Q405.39 60.52 405.39 62.56L405.39 62.56Q405.39 63.89 406.21 65.27Q407.04 66.64 408.41 67.30L408.41 67.30Q410.45 66.53 411.66 64.81Q412.88 63.09 412.88 61.19L412.88 61.19Q412.88 59.46 411.87 58.60Q410.87 57.74 409.57 57.74ZM467.16 65.44L467.16 65.44Q467.16 75.92 464.17 84.06Q461.18 92.20 455.91 96.45Q450.63 100.70 443.67 100.70L443.67 100.70Q436.29 100.70 432.49 96.27Q428.70 91.84 428.70 83.65L428.70 83.65Q428.70 73.28 431.68 64.90Q434.67 56.51 439.95 52.15Q445.22 47.79 452.18 47.79L452.18 47.79Q456.93 47.79 460.28 49.99Q463.64 52.19 465.40 56.13Q467.16 60.06 467.16 65.44ZM450.60 58.90L450.60 58.90Q448.66 58.90 446.73 62.80Q444.80 66.71 443.60 72.72Q442.41 78.73 442.41 83.93L442.41 83.93Q442.41 86.89 442.93 88.26Q443.46 89.63 445.04 89.63L445.04 89.63Q447.08 89.63 448.96 86.31Q450.84 82.98 452.16 76.97Q453.48 70.96 453.48 65.16L453.48 65.16Q453.48 62.17 452.83 60.54Q452.18 58.90 450.60 58.90ZM508.92 65.44L508.92 65.44Q508.92 75.92 505.93 84.06Q502.95 92.20 497.67 96.45Q492.40 100.70 485.44 100.70L485.44 100.70Q478.05 100.70 474.26 96.27Q470.46 91.84 470.46 83.65L470.46 83.65Q470.46 73.28 473.45 64.90Q476.44 56.51 481.71 52.15Q486.98 47.79 493.95 47.79L493.95 47.79Q498.69 47.79 502.05 49.99Q505.41 52.19 507.16 56.13Q508.92 60.06 508.92 65.44ZM492.36 58.90L492.36 58.90Q490.43 58.90 488.50 62.80Q486.56 66.71 485.37 72.72Q484.17 78.73 484.17 83.93L484.17 83.93Q484.17 86.89 484.70 88.26Q485.23 89.63 486.81 89.63L486.81 89.63Q488.85 89.63 490.73 86.31Q492.61 82.98 493.93 76.97Q495.25 70.96 495.25 65.16L495.25 65.16Q495.25 62.17 494.60 60.54Q493.95 58.90 492.36 58.90ZM551.60 60.17L543.13 100L529.52 100L537.93 60.17L551.60 60.17ZM539.58 51.41L539.58 51.41Q539.58 47.79 541.67 45.93Q543.76 44.07 547.52 44.07L547.52 44.07Q550.72 44.07 552.46 45.35Q554.20 46.63 554.20 49.02L554.20 49.02Q554.20 52.54 552.16 54.46Q550.13 56.37 546.29 56.37L546.29 56.37Q539.58 56.37 539.58 51.41ZM572.06 89.77L572.06 89.77Q574.38 89.77 578.50 88.12L578.50 88.12L578.50 98.35Q573.71 100.70 566.54 100.70L566.54 100.70Q561.34 100.70 558.65 98.47Q555.96 96.24 555.96 91.14L555.96 91.14Q555.96 88.47 556.80 84.53L556.80 84.53L559.76 70.40L554.34 70.40L555.79 63.72L563.45 60.63L568.27 52.19L577.34 52.19L575.61 60.17L585.74 60.17L583.52 70.40L573.36 70.40L570.41 83.86Q569.85 86.57 569.85 87.55L569.85 87.55Q569.85 89.77 572.06 89.77ZM604.90 89.77L604.90 89.77Q606.66 89.77 608.26 87.71Q609.86 85.66 610.80 82.21Q611.75 78.77 611.75 75.46L611.75 75.46Q611.75 73.18 611.05 71.79Q610.35 70.40 608.87 70.40L608.87 70.40Q606.20 70.40 604.04 74.85Q601.88 79.29 601.88 84.74L601.88 84.74Q601.88 89.77 604.90 89.77ZM627.96 60.17L619.52 100L608.66 100L609.01 95.68L608.73 95.68Q606.76 98.42 604.48 99.56Q602.19 100.70 599.31 100.70L599.31 100.70Q593.75 100.70 590.87 96.78Q587.99 92.86 587.99 85.52L587.99 85.52Q587.99 79.22 590.55 72.68Q593.12 66.14 597.04 62.80Q600.96 59.46 605.71 59.46L605.71 59.46Q608.66 59.46 610.91 60.78Q613.16 62.10 614.92 65.09L614.92 65.09L615.20 65.09L617.06 60.17L627.96 60.17ZM654.71 45.30L643.15 100L629.54 100L641.11 45.30L654.71 45.30ZM675.04 60.17L666.56 100L652.96 100L661.36 60.17L675.04 60.17ZM663.01 51.41L663.01 51.41Q663.01 47.79 665.10 45.93Q667.20 44.07 670.96 44.07L670.96 44.07Q674.16 44.07 675.90 45.35Q677.64 46.63 677.64 49.02L677.64 49.02Q677.64 52.54 675.60 54.46Q673.56 56.37 669.73 56.37L669.73 56.37Q663.01 56.37 663.01 51.41ZM693.35 100.70L693.35 100.70Q686.36 100.70 682.44 96.47Q678.52 92.23 678.52 84.46L678.52 84.46Q678.52 77.39 681.21 71.65Q683.89 65.90 688.76 62.68Q693.63 59.46 699.82 59.46L699.82 59.46Q706.68 59.46 712.72 62.28L712.72 62.28L708.40 72.37Q703.72 70.26 700.49 70.26L700.49 70.26Q698.31 70.26 696.45 71.95Q694.58 73.63 693.39 76.99Q692.19 80.35 692.19 83.58L692.19 83.58Q692.19 86.78 693.25 88.28Q694.30 89.77 696.59 89.77L696.59 89.77Q699.12 89.77 701.49 88.96Q703.86 88.15 706.54 86.75L706.54 86.75L706.54 97.54Q703.72 99.09 700.61 99.89Q697.50 100.70 693.35 100.70Z"/></svg>