<svg xmlns="http://www.w3.org/2000/svg" viewBox="0.6103515625 -7.2509765625 49.150390625 9.6533203125"><path d="M7.18-3.58L7.18-3.58Q7.18-1.87 6.31-0.88Q5.44 0.10 3.90 0.10L3.90 0.10Q2.32 0.10 1.47-0.87Q0.61-1.83 0.61-3.59L0.61-3.59Q0.61-5.33 1.47-6.29Q2.33-7.25 3.91-7.25L3.91-7.25Q5.45-7.25 6.31-6.27Q7.18-5.30 7.18-3.58ZM1.49-3.58L1.49-3.58Q1.49-2.13 2.11-1.38Q2.72-0.63 3.90-0.63L3.90-0.63Q5.09-0.63 5.69-1.38Q6.30-2.12 6.30-3.58L6.30-3.58Q6.30-5.02 5.70-5.76Q5.09-6.51 3.91-6.51L3.91-6.51Q2.72-6.51 2.11-5.76Q1.49-5.01 1.49-3.58ZM11.14 0.10L11.14 0.10Q10.62 0.10 10.18-0.10Q9.75-0.29 9.46-0.69L9.46-0.69L9.40-0.69Q9.46-0.22 9.46 0.20L9.46 0.20L9.46 2.40L8.65 2.40L8.65-5.35L9.31-5.35L9.42-4.62L9.46-4.62Q9.77-5.06 10.19-5.25Q10.60-5.45 11.14-5.45L11.14-5.45Q12.20-5.45 12.78-4.72Q13.36-3.99 13.36-2.68L13.36-2.68Q13.36-1.36 12.77-0.63Q12.18 0.10 11.14 0.10ZM11.02-4.76L11.02-4.76Q10.20-4.76 9.83-4.31Q9.47-3.85 9.46-2.86L9.46-2.86L9.46-2.68Q9.46-1.55 9.83-1.07Q10.21-0.58 11.04-0.58L11.04-0.58Q11.73-0.58 12.13-1.14Q12.52-1.70 12.52-2.69L12.52-2.69Q12.52-3.69 12.13-4.23Q11.73-4.76 11.02-4.76ZM17.04 0.10L17.04 0.10Q15.85 0.10 15.16-0.63Q14.48-1.35 14.48-2.63L14.48-2.63Q14.48-3.93 15.11-4.69Q15.75-5.45 16.83-5.45L16.83-5.45Q17.83-5.45 18.42-4.79Q19.00-4.13 19.00-3.04L19.00-3.04L19.00-2.53L15.32-2.53Q15.34-1.59 15.79-1.10Q16.25-0.61 17.07-0.61L17.07-0.61Q17.93-0.61 18.77-0.97L18.77-0.97L18.77-0.25Q18.34-0.06 17.96 0.02Q17.58 0.10 17.04 0.10ZM16.82-4.77L16.82-4.77Q16.17-4.77 15.79-4.35Q15.41-3.93 15.34-3.19L15.34-3.19L18.13-3.19Q18.13-3.96 17.79-4.36Q17.45-4.77 16.82-4.77ZM24.86 0L24.05 0L24.05-3.46Q24.05-4.12 23.75-4.44Q23.45-4.76 22.82-4.76L22.82-4.76Q21.98-4.76 21.59-4.31Q21.20-3.85 21.20-2.81L21.20-2.81L21.20 0L20.39 0L20.39-5.35L21.04-5.35L21.18-4.62L21.22-4.62Q21.46-5.01 21.91-5.23Q22.36-5.45 22.92-5.45L22.92-5.45Q23.88-5.45 24.37-4.98Q24.86-4.52 24.86-3.49L24.86-3.49L24.86 0ZM33.27-1.90L33.27-1.90Q33.27-0.96 32.59-0.43Q31.90 0.10 30.73 0.10L30.73 0.10Q29.46 0.10 28.78-0.23L28.78-0.23L28.78-1.03Q29.22-0.84 29.74-0.74Q30.25-0.63 30.76-0.63L30.76-0.63Q31.59-0.63 32.01-0.94Q32.43-1.26 32.43-1.82L32.43-1.82Q32.43-2.19 32.28-2.43Q32.13-2.67 31.78-2.87Q31.44-3.07 30.72-3.32L30.72-3.32Q29.73-3.68 29.30-4.17Q28.87-4.65 28.87-5.44L28.87-5.44Q28.87-6.26 29.49-6.75Q30.11-7.24 31.13-7.24L31.13-7.24Q32.20-7.24 33.09-6.85L33.09-6.85L32.83-6.13Q31.95-6.50 31.11-6.50L31.11-6.50Q30.45-6.50 30.08-6.22Q29.71-5.93 29.71-5.43L29.71-5.43Q29.71-5.06 29.85-4.82Q29.99-4.58 30.31-4.39Q30.63-4.19 31.30-3.95L31.30-3.95Q32.43-3.55 32.85-3.09Q33.27-2.63 33.27-1.90ZM38.50 0L37.90 0L37.74-0.76L37.70-0.76Q37.30-0.26 36.90-0.08Q36.50 0.10 35.91 0.10L35.91 0.10Q35.11 0.10 34.66-0.31Q34.21-0.72 34.21-1.48L34.21-1.48Q34.21-3.10 36.80-3.18L36.80-3.18L37.71-3.21L37.71-3.54Q37.71-4.17 37.44-4.47Q37.17-4.77 36.57-4.77L36.57-4.77Q35.90-4.77 35.06-4.36L35.06-4.36L34.81-4.98Q35.21-5.20 35.68-5.32Q36.15-5.44 36.62-5.44L36.62-5.44Q37.58-5.44 38.04-5.01Q38.50-4.59 38.50-3.65L38.50-3.65L38.50 0ZM36.07-0.57L36.07-0.57Q36.83-0.57 37.26-0.99Q37.69-1.40 37.69-2.15L37.69-2.15L37.69-2.63L36.88-2.60Q35.91-2.56 35.49-2.30Q35.06-2.03 35.06-1.47L35.06-1.47Q35.06-1.03 35.32-0.80Q35.59-0.57 36.07-0.57ZM44.64 0L43.83 0L43.83-3.46Q43.83-4.12 43.54-4.44Q43.24-4.76 42.60-4.76L42.60-4.76Q41.76-4.76 41.37-4.31Q40.98-3.85 40.98-2.81L40.98-2.81L40.98 0L40.17 0L40.17-5.35L40.83-5.35L40.96-4.62L41.00-4.62Q41.25-5.01 41.70-5.23Q42.15-5.45 42.70-5.45L42.70-5.45Q43.67-5.45 44.16-4.98Q44.64-4.52 44.64-3.49L44.64-3.49L44.64 0ZM49.76-1.46L49.76-1.46Q49.76-0.71 49.20-0.31Q48.65 0.10 47.64 0.10L47.64 0.10Q46.58 0.10 45.98-0.24L45.98-0.24L45.98-0.99Q46.37-0.80 46.81-0.68Q47.25-0.57 47.66-0.57L47.66-0.57Q48.30-0.57 48.64-0.77Q48.98-0.98 48.98-1.39L48.98-1.39Q48.98-1.70 48.71-1.93Q48.44-2.15 47.65-2.45L47.65-2.45Q46.90-2.73 46.59-2.94Q46.27-3.14 46.12-3.41Q45.97-3.67 45.97-4.04L45.97-4.04Q45.97-4.69 46.50-5.07Q47.03-5.45 47.96-5.45L47.96-5.45Q48.82-5.45 49.65-5.10L49.65-5.10L49.36-4.44Q48.55-4.77 47.90-4.77L47.90-4.77Q47.32-4.77 47.03-4.59Q46.74-4.41 46.74-4.09L46.74-4.09Q46.74-3.88 46.85-3.73Q46.96-3.57 47.20-3.44Q47.45-3.30 48.14-3.04L48.14-3.04Q49.09-2.70 49.43-2.34Q49.76-1.99 49.76-1.46Z"/></svg>