<svg xmlns="http://www.w3.org/2000/svg" viewBox="4.32421875 45.296875 710.3671875 72"><path d="M50 67L50 67Q50 77 47 85Q43 93 37 97Q31 101 23 101L23 101Q14 101 9 96Q4 90 4 81L4 81Q4 72 8 64Q11 56 17 52Q24 48 32 48L32 48Q41 48 45 53Q50 58 50 67ZM31 57L31 57Q26 57 23 60Q19 63 17 69Q15 75 15 81L15 81Q15 86 18 89Q20 92 24 92L24 92Q28 92 32 89Q35 85 37 80Q39 74 39 67L39 67Q39 62 37 60Q35 57 31 57ZM81 60L81 60Q86 60 89 64Q92 68 92 74L92 74Q92 81 90 87Q87 93 83 97Q79 101 74 101L74 101Q71 101 69 99Q67 98 65 95L65 95L65 95Q64 101 63 105L63 105L61 117L50 117L62 61L70 61L70 67L70 67Q75 60 81 60ZM77 69L77 69Q74 69 72 71Q70 73 69 77Q67 81 67 86L67 86Q67 89 69 90Q70 92 72 92L72 92Q75 92 77 90Q79 87 80 83Q81 79 81 75L81 75Q81 69 77 69ZM120 68L120 68Q117 68 114 70Q111 73 110 77L110 77L112 77Q117 77 121 76Q124 74 124 71L124 71Q124 68 120 68ZM114 101L114 101Q107 101 103 97Q99 93 99 86L99 86Q99 78 101 72Q104 66 109 63Q114 60 121 60L121 60Q127 60 130 63Q134 66 134 71L134 71Q134 77 128 81Q122 84 111 84L111 84L109 84L109 85L109 86Q109 89 111 91Q113 93 116 93L116 93Q119 93 122 92Q124 91 128 90L128 90L128 98Q122 101 114 101ZM175 78L170 100L159 100L164 77Q165 75 165 73L165 73Q165 69 161 69L161 69Q158 69 155 73Q152 77 151 84L151 84L147 100L137 100L145 61L153 61L153 68L153 68Q158 60 165 60L165 60Q170 60 173 63Q175 66 175 71L175 71Q175 74 175 78L175 78ZM231 85L231 85Q231 92 226 96Q221 101 212 101L212 101Q204 101 199 98L199 98L199 88Q206 92 212 92L212 92Q216 92 218 90Q220 89 220 86L220 86Q220 85 220 83Q219 82 218 81Q217 80 214 78L214 78Q209 74 207 71Q205 67 205 64L205 64Q205 59 207 55Q209 52 214 50Q218 48 223 48L223 48Q230 48 237 51L237 51L233 60Q227 57 223 57L223 57Q220 57 218 59Q216 60 216 63L216 63Q216 65 217 66Q218 68 223 71L223 71Q227 73 229 77Q231 80 231 85ZM250 101L250 101Q245 101 242 97Q239 93 239 86L239 86Q239 80 242 73Q244 67 248 63Q252 60 257 60L257 60Q261 60 263 61Q266 63 267 66L267 66L267 66L269 61L277 61L269 100L261 100L261 95L261 95Q257 101 250 101ZM254 92L254 92Q257 92 259 90Q261 87 263 83Q264 79 264 74L264 74Q264 72 263 70Q261 69 259 69L259 69Q257 69 254 71Q252 74 251 78Q250 82 250 86L250 86Q250 89 251 91Q252 92 254 92ZM318 78L313 100L302 100L307 77Q308 75 308 73L308 73Q308 69 304 69L304 69Q301 69 298 73Q295 77 294 84L294 84L291 100L280 100L288 61L296 61L296 68L296 68Q301 60 308 60L308 60Q313 60 316 63Q318 66 318 71L318 71Q318 74 318 78L318 78ZM351 87L351 87Q351 94 347 97Q343 101 335 101L335 101Q331 101 328 100Q325 100 323 98L323 98L323 90Q328 93 334 93L334 93Q337 93 339 92Q341 91 341 89L341 89Q341 87 339 86Q338 85 335 83L335 83Q330 80 329 78Q327 76 327 73L327 73Q327 67 331 63Q335 60 342 60L342 60Q349 60 355 63L355 63L351 71Q346 68 342 68L342 68Q340 68 339 69Q338 70 338 71L338 71Q338 73 339 74Q340 75 343 76L343 76Q347 78 349 81Q351 84 351 87ZM403 60L403 60Q409 60 412 64Q415 68 415 74L415 74Q415 81 412 87Q410 93 406 97Q401 101 396 101L396 101Q390 101 387 95L387 95L386 95L384 100L376 100L388 45L398 45L396 55Q395 62 393 66L393 66L394 66Q396 62 399 61Q401 60 403 60ZM399 69L399 69Q397 69 395 71Q392 73 391 77Q390 81 390 86L390 86Q390 89 391 90Q392 92 395 92L395 92Q397 92 399 90Q401 87 403 83Q404 79 404 75L404 75Q404 69 399 69ZM446 76L446 76Q446 69 441 69L441 69Q438 69 436 71Q434 73 433 77Q432 81 432 86L432 86Q432 92 437 92L437 92Q439 92 442 90Q444 88 445 84Q446 80 446 76ZM457 76L457 76Q457 83 454 89Q452 94 447 98Q442 101 436 101L436 101Q429 101 425 97Q421 92 421 86L421 86Q421 78 423 72Q426 66 431 63Q435 60 442 60L442 60Q449 60 453 64Q457 68 457 76ZM483 45L472 100L461 100L473 45L483 45ZM496 101L496 101Q490 101 487 97Q484 93 484 86L484 86Q484 80 487 73Q489 67 494 63Q498 60 503 60L503 60Q506 60 508 61Q510 63 512 66L512 66L512 66L512 65Q512 61 513 58L513 58L515 45L526 45L514 100L506 100L507 95L507 95Q504 98 502 99Q499 101 496 101ZM500 92L500 92Q502 92 504 90Q507 87 508 83Q509 79 509 75L509 75Q509 72 508 70Q507 69 504 69L504 69Q502 69 500 71Q498 74 496 78Q495 82 495 86L495 86Q495 92 500 92ZM554 51L554 51Q554 48 556 47Q557 45 560 45L560 45Q563 45 564 46Q566 47 566 50L566 50Q566 52 564 54Q563 56 559 56L559 56Q554 56 554 51ZM563 61L555 100L544 100L552 61L563 61ZM582 92L582 92Q584 92 588 91L588 91L588 99Q584 101 579 101L579 101Q573 101 571 98Q568 96 568 92L568 92Q568 90 569 88L569 88L573 69L567 69L568 64L575 61L580 52L587 52L585 61L595 61L593 69L583 69L579 88Q579 89 579 90L579 90Q579 92 582 92ZM608 101L608 101Q603 101 600 97Q597 93 597 86L597 86Q597 80 599 73Q602 67 606 63Q610 60 615 60L615 60Q618 60 621 61Q623 63 625 66L625 66L625 66L627 61L635 61L627 100L619 100L619 95L619 95Q614 101 608 101ZM612 92L612 92Q614 92 617 90Q619 87 620 83Q622 79 622 74L622 74Q622 72 620 70Q619 69 617 69L617 69Q614 69 612 71Q610 74 609 78Q608 82 608 86L608 86Q608 89 609 91Q610 92 612 92ZM660 45L648 100L638 100L649 45L660 45ZM669 51L669 51Q669 48 671 47Q672 45 676 45L676 45Q678 45 679 46Q681 47 681 50L681 50Q681 52 679 54Q678 56 674 56L674 56Q669 56 669 51ZM678 61L670 100L659 100L667 61L678 61ZM697 101L697 101Q690 101 686 97Q682 93 682 86L682 86Q682 79 685 73Q688 67 692 63Q697 60 703 60L703 60Q710 60 715 62L715 62L711 71Q710 70 708 69Q706 69 704 69L704 69Q701 69 698 71Q696 73 694 77Q693 81 693 85L693 85Q693 89 695 90Q696 92 699 92L699 92Q702 92 704 91Q706 91 709 89L709 89L709 98Q703 101 697 101Z"/></svg>