<svg xmlns="http://www.w3.org/2000/svg" viewBox="4.39453125 45.296875 615.9375 72">
<path d="M51.68 74.23L51.68 74.23Q51.68 86.57 45.44 93.64Q39.20 100.70 28.09 100.70L28.09 100.70Q16.73 100.70 10.56 93.76Q4.39 86.82 4.39 74.16L4.39 74.16Q4.39 61.61 10.58 54.70Q16.77 47.79 28.16 47.79L28.16 47.79Q39.23 47.79 45.46 54.82Q51.68 61.86 51.68 74.23ZM10.72 74.23L10.72 74.23Q10.72 84.67 15.17 90.07Q19.62 95.46 28.09 95.46L28.09 95.46Q36.63 95.46 40.99 90.09Q45.35 84.71 45.35 74.23L45.35 74.23Q45.35 63.86 41.01 58.50Q36.67 53.14 28.16 53.14L28.16 53.14Q19.62 53.14 15.17 58.53Q10.72 63.93 10.72 74.23ZM80.19 100.70L80.19 100.70Q76.43 100.70 73.32 99.31Q70.21 97.93 68.10 95.04L68.10 95.04L67.68 95.04Q68.10 98.42 68.10 101.44L68.10 101.44L68.10 117.30L62.26 117.30L62.26 61.47L67.01 61.47L67.82 66.74L68.10 66.74Q70.35 63.58 73.34 62.17Q76.32 60.77 80.19 60.77L80.19 60.77Q87.86 60.77 92.02 66.00Q96.19 71.24 96.19 80.70L96.19 80.70Q96.19 90.19 91.95 95.45Q87.71 100.70 80.19 100.70ZM79.35 65.72L79.35 65.72Q73.44 65.72 70.80 68.99Q68.17 72.26 68.10 79.40L68.10 79.40L68.10 80.70Q68.10 88.82 70.80 92.32Q73.51 95.82 79.49 95.82L79.49 95.82Q84.48 95.82 87.31 91.77Q90.14 87.73 90.14 80.63L90.14 80.63Q90.14 73.42 87.31 69.57Q84.48 65.72 79.35 65.72ZM122.66 100.70L122.66 100.70Q114.12 100.70 109.18 95.50Q104.24 90.30 104.24 81.05L104.24 81.05Q104.24 71.73 108.83 66.25Q113.41 60.77 121.15 60.77L121.15 60.77Q128.39 60.77 132.61 65.53Q136.83 70.29 136.83 78.10L136.83 78.10L136.83 81.79L110.29 81.79Q110.46 88.57 113.71 92.09Q116.96 95.61 122.87 95.61L122.87 95.61Q129.09 95.61 135.18 93.00L135.18 93.00L135.18 98.21Q132.08 99.54 129.32 100.12Q126.56 100.70 122.66 100.70ZM121.08 65.65L121.08 65.65Q116.44 65.65 113.68 68.68Q110.92 71.70 110.43 77.04L110.43 77.04L130.57 77.04Q130.57 71.52 128.11 68.59Q125.65 65.65 121.08 65.65ZM178.98 100L173.14 100L173.14 75.07Q173.14 70.36 171 68.04Q168.86 65.72 164.29 65.72L164.29 65.72Q158.24 65.72 155.43 68.99Q152.61 72.26 152.61 79.79L152.61 79.79L152.61 100L146.78 100L146.78 61.47L151.52 61.47L152.47 66.74L152.75 66.74Q154.55 63.89 157.78 62.33Q161.02 60.77 164.99 60.77L164.99 60.77Q171.95 60.77 175.46 64.12Q178.98 67.48 178.98 74.86L178.98 74.86L178.98 100ZM239.55 86.32L239.55 86.32Q239.55 93.11 234.63 96.91Q229.71 100.70 221.27 100.70L221.27 100.70Q212.13 100.70 207.21 98.35L207.21 98.35L207.21 92.58Q210.38 93.92 214.10 94.69Q217.83 95.46 221.48 95.46L221.48 95.46Q227.46 95.46 230.48 93.20Q233.51 90.93 233.51 86.89L233.51 86.89Q233.51 84.21 232.44 82.51Q231.36 80.80 228.85 79.36Q226.34 77.92 221.20 76.09L221.20 76.09Q214.03 73.53 210.96 70.01Q207.88 66.50 207.88 60.84L207.88 60.84Q207.88 54.89 212.34 51.38Q216.81 47.86 224.16 47.86L224.16 47.86Q231.82 47.86 238.25 50.68L238.25 50.68L236.39 55.88Q230.03 53.21 224.02 53.21L224.02 53.21Q219.27 53.21 216.60 55.25Q213.93 57.29 213.93 60.91L213.93 60.91Q213.93 63.58 214.91 65.28Q215.89 66.99 218.23 68.41Q220.57 69.84 225.39 71.56L225.39 71.56Q233.47 74.44 236.51 77.75Q239.55 81.05 239.55 86.32ZM277.21 100L272.88 100L271.72 94.52L271.44 94.52Q268.56 98.14 265.69 99.42Q262.83 100.70 258.54 100.70L258.54 100.70Q252.81 100.70 249.56 97.75Q246.30 94.80 246.30 89.35L246.30 89.35Q246.30 77.68 264.97 77.11L264.97 77.11L271.51 76.90L271.51 74.51Q271.51 69.98 269.56 67.81Q267.61 65.65 263.32 65.65L263.32 65.65Q258.50 65.65 252.42 68.61L252.42 68.61L250.63 64.14Q253.48 62.59 256.87 61.71Q260.26 60.84 263.67 60.84L263.67 60.84Q270.56 60.84 273.88 63.89Q277.21 66.95 277.21 73.70L277.21 73.70L277.21 100ZM259.70 95.89L259.70 95.89Q265.15 95.89 268.26 92.90Q271.37 89.91 271.37 84.53L271.37 84.53L271.37 81.05L265.54 81.30Q258.57 81.54 255.50 83.46Q252.42 85.38 252.42 89.42L252.42 89.42Q252.42 92.58 254.34 94.23Q256.25 95.89 259.70 95.89ZM321.43 100L315.60 100L315.60 75.07Q315.60 70.36 313.45 68.04Q311.31 65.72 306.74 65.72L306.74 65.72Q300.69 65.72 297.88 68.99Q295.07 72.26 295.07 79.79L295.07 79.79L295.07 100L289.23 100L289.23 61.47L293.98 61.47L294.93 66.74L295.21 66.74Q297 63.89 300.23 62.33Q303.47 60.77 307.44 60.77L307.44 60.77Q314.40 60.77 317.92 64.12Q321.43 67.48 321.43 74.86L321.43 74.86L321.43 100ZM358.28 89.49L358.28 89.49Q358.28 94.87 354.27 97.79Q350.26 100.70 343.02 100.70L343.02 100.70Q335.36 100.70 331.07 98.28L331.07 98.28L331.07 92.86Q333.84 94.27 337.03 95.08Q340.21 95.89 343.16 95.89L343.16 95.89Q347.73 95.89 350.19 94.43Q352.65 92.97 352.65 89.98L352.65 89.98Q352.65 87.73 350.70 86.13Q348.75 84.53 343.09 82.35L343.09 82.35Q337.71 80.35 335.44 78.85Q333.18 77.36 332.07 75.46Q330.96 73.56 330.96 70.93L330.96 70.93Q330.96 66.21 334.79 63.49Q338.63 60.77 345.30 60.77L345.30 60.77Q351.53 60.77 357.47 63.30L357.47 63.30L355.39 68.04Q349.59 65.65 344.88 65.65L344.88 65.65Q340.73 65.65 338.63 66.95Q336.52 68.25 336.52 70.54L336.52 70.54Q336.52 72.09 337.31 73.18Q338.10 74.27 339.86 75.25Q341.61 76.23 346.61 78.10L346.61 78.10Q353.46 80.59 355.87 83.13Q358.28 85.66 358.28 89.49ZM404.05 60.77L404.05 60.77Q406.62 60.77 408.66 61.19L408.66 61.19L407.85 66.60Q405.46 66.07 403.63 66.07L403.63 66.07Q398.95 66.07 395.63 69.87Q392.31 73.67 392.31 79.33L392.31 79.33L392.31 100L386.47 100L386.47 61.47L391.29 61.47L391.96 68.61L392.24 68.61Q394.38 64.84 397.41 62.80Q400.43 60.77 404.05 60.77ZM432.14 100.70L432.14 100.70Q423.60 100.70 418.66 95.50Q413.72 90.30 413.72 81.05L413.72 81.05Q413.72 71.73 418.31 66.25Q422.89 60.77 430.63 60.77L430.63 60.77Q437.87 60.77 442.09 65.53Q446.31 70.29 446.31 78.10L446.31 78.10L446.31 81.79L419.77 81.79Q419.94 88.57 423.19 92.09Q426.45 95.61 432.35 95.61L432.35 95.61Q438.57 95.61 444.66 93.00L444.66 93.00L444.66 98.21Q441.56 99.54 438.80 100.12Q436.04 100.70 432.14 100.70ZM430.56 65.65L430.56 65.65Q425.92 65.65 423.16 68.68Q420.40 71.70 419.91 77.04L419.91 77.04L440.05 77.04Q440.05 71.52 437.59 68.59Q435.13 65.65 430.56 65.65ZM474.47 61.47L487.79 61.47L487.79 65.16L480.66 66.00Q481.64 67.23 482.41 69.22Q483.19 71.21 483.19 73.70L483.19 73.70Q483.19 79.36 479.32 82.74Q475.45 86.11 468.70 86.11L468.70 86.11Q466.98 86.11 465.47 85.83L465.47 85.83Q461.74 87.80 461.74 90.79L461.74 90.79Q461.74 92.37 463.04 93.13Q464.34 93.88 467.51 93.88L467.51 93.88L474.33 93.88Q480.59 93.88 483.94 96.52Q487.30 99.16 487.30 104.18L487.30 104.18Q487.30 110.58 482.17 113.94Q477.04 117.30 467.19 117.30L467.19 117.30Q459.63 117.30 455.54 114.48Q451.44 111.67 451.44 106.54L451.44 106.54Q451.44 103.02 453.69 100.46Q455.94 97.89 460.02 96.98L460.02 96.98Q458.54 96.31 457.54 94.90Q456.54 93.50 456.54 91.63L456.54 91.63Q456.54 89.52 457.66 87.94Q458.79 86.36 461.21 84.88L461.21 84.88Q458.23 83.65 456.35 80.70Q454.46 77.75 454.46 73.95L454.46 73.95Q454.46 67.62 458.26 64.19Q462.06 60.77 469.02 60.77L469.02 60.77Q472.04 60.77 474.47 61.47L474.47 61.47ZM457.07 106.47L457.07 106.47Q457.07 109.60 459.70 111.21Q462.34 112.83 467.26 112.83L467.26 112.83Q474.61 112.83 478.14 110.63Q481.68 108.44 481.68 104.68L481.68 104.68Q481.68 101.55 479.74 100.33Q477.81 99.12 472.46 99.12L472.46 99.12L465.47 99.12Q461.50 99.12 459.28 101.02Q457.07 102.92 457.07 106.47ZM460.23 73.81L460.23 73.81Q460.23 77.85 462.52 79.93Q464.80 82 468.88 82L468.88 82Q477.42 82 477.42 73.70L477.42 73.70Q477.42 65.02 468.77 65.02L468.77 65.02Q464.66 65.02 462.45 67.23Q460.23 69.45 460.23 73.81ZM495.28 61.47L501.19 61.47L501.19 86.46Q501.19 91.18 503.33 93.50Q505.48 95.82 510.05 95.82L510.05 95.82Q516.09 95.82 518.89 92.51Q521.68 89.21 521.68 81.72L521.68 81.72L521.68 61.47L527.52 61.47L527.52 100L522.70 100L521.86 94.83L521.54 94.83Q519.75 97.68 516.57 99.19Q513.39 100.70 509.31 100.70L509.31 100.70Q502.28 100.70 498.78 97.36Q495.28 94.02 495.28 86.68L495.28 86.68L495.28 61.47ZM545.73 45.30L545.73 100L539.89 100L539.89 45.30L545.73 45.30ZM586.13 100L581.80 100L580.64 94.52L580.36 94.52Q577.48 98.14 574.61 99.42Q571.75 100.70 567.46 100.70L567.46 100.70Q561.73 100.70 558.47 97.75Q555.22 94.80 555.22 89.35L555.22 89.35Q555.22 77.68 573.89 77.11L573.89 77.11L580.43 76.90L580.43 74.51Q580.43 69.98 578.48 67.81Q576.53 65.65 572.24 65.65L572.24 65.65Q567.42 65.65 561.34 68.61L561.34 68.61L559.55 64.14Q562.39 62.59 565.79 61.71Q569.18 60.84 572.59 60.84L572.59 60.84Q579.48 60.84 582.80 63.89Q586.13 66.95 586.13 73.70L586.13 73.70L586.13 100ZM568.62 95.89L568.62 95.89Q574.07 95.89 577.18 92.90Q580.29 89.91 580.29 84.53L580.29 84.53L580.29 81.05L574.45 81.30Q567.49 81.54 564.42 83.46Q561.34 85.38 561.34 89.42L561.34 89.42Q561.34 92.58 563.26 94.23Q565.17 95.89 568.62 95.89ZM615.73 60.77L615.73 60.77Q618.29 60.77 620.33 61.19L620.33 61.19L619.52 66.60Q617.13 66.07 615.30 66.07L615.30 66.07Q610.63 66.07 607.31 69.87Q603.98 73.67 603.98 79.33L603.98 79.33L603.98 100L598.15 100L598.15 61.47L602.96 61.47L603.63 68.61L603.91 68.61Q606.06 64.84 609.08 62.80Q612.11 60.77 615.73 60.77Z"/>
</svg>
