<svg xmlns="http://www.w3.org/2000/svg" viewBox="3.65625 44.06640625 947.28515625 73.23046875"><path d="M32 48L32 48Q41 48 46 53Q51 58 51 68L51 68Q51 77 47 85Q44 92 38 97Q32 101 23 101L23 101Q14 101 9 95Q4 90 4 81L4 81Q4 72 7 64Q11 56 17 52Q23 48 32 48ZM37 68L37 68Q37 64 35 61Q34 59 30 59L30 59Q27 59 24 62Q21 65 19 70Q18 75 18 81L18 81Q18 89 25 89L25 89Q28 89 31 86Q34 84 35 79Q37 74 37 68ZM76 101L76 101Q71 101 68 96L68 96L68 96Q67 101 66 109L66 109L64 117L50 117L62 60L73 60L73 65L73 65Q76 59 82 59L82 59Q88 59 91 63Q94 67 94 74L94 74Q94 81 91 88Q89 94 85 97Q81 101 76 101ZM77 70L77 70Q75 70 74 72Q72 74 71 78Q70 81 70 85L70 85Q70 87 71 88Q72 90 73 90L73 90Q75 90 76 88Q78 86 79 82Q80 79 80 75L80 75Q80 70 77 70ZM115 101L115 101Q108 101 104 97Q100 92 100 85L100 85Q100 78 103 72Q106 66 111 63Q116 59 123 59L123 59Q129 59 133 62Q137 66 137 71L137 71Q137 78 131 81Q126 85 115 85L115 85L113 85L113 86Q113 91 119 91L119 91Q122 91 125 90Q127 89 131 87L131 87L131 97Q127 99 123 100Q120 101 115 101ZM121 69L121 69Q119 69 117 71Q115 74 115 77L115 77L116 77Q120 77 122 75Q124 74 124 71L124 71Q124 70 123 69Q123 69 121 69ZM166 73L166 73Q166 72 165 71Q165 70 163 70L163 70Q161 70 160 73Q158 75 157 81L157 81L153 100L139 100L148 60L159 60L158 66L158 66Q160 62 163 61Q166 59 169 59L169 59Q174 59 177 62Q180 65 180 71L180 71Q180 75 179 79L179 79L175 100L161 100L165 78Q166 76 166 73ZM236 84L236 84Q236 92 231 96Q226 101 217 101L217 101Q213 101 209 100Q206 99 203 97L203 97L203 85Q206 87 210 88Q214 89 217 89L217 89Q220 89 221 88Q222 87 222 85L222 85Q222 84 222 83Q222 83 221 82Q220 81 217 78L217 78Q213 75 211 71Q209 68 209 64L209 64Q209 59 211 56Q213 52 218 50Q222 48 227 48L227 48Q235 48 242 52L242 52L237 62Q231 59 227 59L227 59Q225 59 224 60Q222 61 222 63L222 63Q222 65 224 66Q225 68 228 70L228 70Q232 73 234 76Q236 80 236 84ZM261 90L261 90Q263 90 265 88Q266 86 267 82Q268 79 268 75L268 75Q268 73 267 72Q267 70 265 70L265 70Q263 70 260 75Q258 79 258 85L258 85Q258 90 261 90ZM284 60L276 100L265 100L265 96L265 96Q263 98 261 100Q259 101 256 101L256 101Q250 101 247 97Q244 93 244 86L244 86Q244 79 247 73Q249 66 253 63Q257 59 262 59L262 59Q265 59 267 61Q270 62 271 65L271 65L272 65L273 60L284 60ZM313 73L313 73Q313 72 312 71Q311 70 310 70L310 70Q308 70 306 73Q305 75 304 81L304 81L299 100L286 100L294 60L305 60L305 66L305 66Q307 62 310 61Q312 59 316 59L316 59Q321 59 324 62Q326 65 326 71L326 71Q326 75 326 79L326 79L321 100L308 100L312 78Q313 76 313 73ZM361 86L361 86Q361 93 357 97Q352 101 343 101L343 101Q336 101 331 98L331 98L331 88Q334 89 337 90Q340 91 343 91L343 91Q345 91 346 90Q347 89 347 88L347 88Q347 87 346 86Q346 85 342 83L342 83Q338 81 336 78Q335 76 335 72L335 72Q335 66 339 63Q343 59 351 59L351 59Q355 59 358 60Q362 61 365 63L365 63L360 72Q358 71 356 70Q353 69 351 69L351 69Q349 69 349 71L349 71Q349 72 350 73Q351 74 353 75L353 75Q361 79 361 86ZM403 101L403 101Q396 101 392 97Q388 92 388 85L388 85Q388 78 391 72Q394 66 399 63Q404 59 410 59L410 59Q417 59 421 62Q425 66 425 71L425 71Q425 78 419 81Q414 85 403 85L403 85L401 85L401 86Q401 91 407 91L407 91Q410 91 413 90Q415 89 419 87L419 87L419 97Q415 99 411 100Q408 101 403 101ZM409 69L409 69Q407 69 405 71Q403 74 403 77L403 77L404 77Q408 77 410 75Q412 74 412 71L412 71Q412 70 411 69Q411 69 409 69ZM448 100L446 88L438 100L422 100L439 80L432 60L446 60L449 71L456 60L472 60L455 80L463 100L448 100ZM487 90L487 90Q489 90 494 88L494 88L494 98Q489 101 482 101L482 101Q476 101 474 98Q471 96 471 91L471 91Q471 88 472 85L472 85L475 70L469 70L471 64L478 61L483 52L492 52L491 60L501 60L499 70L488 70L485 84Q485 87 485 88L485 88Q485 90 487 90ZM532 59L532 59Q534 59 535 60L535 60L532 73Q530 72 527 72L527 72Q524 72 521 75Q519 77 518 82L518 82L514 100L501 100L509 60L520 60L520 67L520 67Q522 63 525 61Q527 59 532 59ZM551 90L551 90Q553 90 555 88Q556 86 557 82Q558 79 558 75L558 75Q558 73 558 72Q557 70 555 70L555 70Q553 70 551 75Q548 79 548 85L548 85Q548 90 551 90ZM574 60L566 100L555 100L556 96L555 96Q553 98 551 100Q549 101 546 101L546 101Q540 101 537 97Q534 93 534 86L534 86Q534 79 537 73Q540 66 544 63Q547 59 552 59L552 59Q555 59 557 61Q560 62 561 65L561 65L562 65L564 60L574 60ZM617 101L617 101Q614 101 612 100Q610 98 608 96L608 96L607 96L606 100L595 100L606 45L620 45L618 53Q617 60 615 64L615 64L615 64Q617 62 618 61Q619 60 620 60Q622 59 623 59L623 59Q629 59 632 63Q635 67 635 75L635 75Q635 81 632 87Q630 94 626 97Q622 101 617 101ZM618 70L618 70Q616 70 614 72Q613 74 612 78Q611 81 611 85L611 85Q611 87 612 88Q612 90 614 90L614 90Q615 90 617 88Q619 86 620 82Q621 79 621 75L621 75Q621 70 618 70ZM656 101L656 101Q649 101 645 97Q641 93 641 85L641 85Q641 78 643 72Q646 66 651 63Q656 59 663 59L663 59Q670 59 674 63Q678 67 678 75L678 75Q678 82 676 88Q673 94 668 97Q663 101 656 101ZM661 70L661 70Q659 70 657 75Q654 80 654 86L654 86Q654 91 657 91L657 91Q660 91 662 86Q664 81 664 74L664 74Q664 72 664 71Q663 70 661 70ZM707 45L696 100L682 100L694 45L707 45ZM725 59L725 59Q728 59 730 61Q732 62 734 65L734 65L734 65L734 64Q734 59 735 56L735 56L737 45L751 45L739 100L728 100L729 96L728 96Q726 98 724 100Q722 101 719 101L719 101Q713 101 711 97Q708 93 708 86L708 86Q708 79 710 73Q713 66 717 63Q721 59 725 59ZM725 90L725 90Q726 90 728 88Q730 86 731 82Q731 79 731 75L731 75Q731 70 729 70L729 70Q727 70 725 72Q724 75 723 78Q722 81 722 85L722 85Q722 90 725 90ZM790 60L781 100L768 100L776 60L790 60ZM778 51L778 51Q778 48 780 46Q782 44 786 44L786 44Q789 44 791 45Q792 47 792 49L792 49Q792 53 790 54Q788 56 785 56L785 56Q778 56 778 51ZM810 90L810 90Q813 90 817 88L817 88L817 98Q812 101 805 101L805 101Q800 101 797 98Q794 96 794 91L794 91Q794 88 795 85L795 85L798 70L793 70L794 64L802 61L806 52L816 52L814 60L824 60L822 70L812 70L809 84Q808 87 808 88L808 88Q808 90 810 90ZM843 90L843 90Q845 90 846 88Q848 86 849 82Q850 79 850 75L850 75Q850 73 849 72Q849 70 847 70L847 70Q844 70 842 75Q840 79 840 85L840 85Q840 90 843 90ZM866 60L858 100L847 100L847 96L847 96Q845 98 843 100Q840 101 838 101L838 101Q832 101 829 97Q826 93 826 86L826 86Q826 79 829 73Q831 66 835 63Q839 59 844 59L844 59Q847 59 849 61Q851 62 853 65L853 65L853 65L855 60L866 60ZM893 45L881 100L868 100L879 45L893 45ZM913 60L905 100L891 100L900 60L913 60ZM901 51L901 51Q901 48 903 46Q905 44 909 44L909 44Q912 44 914 45Q916 47 916 49L916 49Q916 53 914 54Q912 56 908 56L908 56Q901 56 901 51ZM932 101L932 101Q925 101 921 96Q917 92 917 84L917 84Q917 77 919 72Q922 66 927 63Q932 59 938 59L938 59Q945 59 951 62L951 62L947 72Q942 70 939 70L939 70Q937 70 935 72Q933 74 932 77Q930 80 930 84L930 84Q930 87 931 88Q933 90 935 90L935 90Q937 90 940 89Q942 88 945 87L945 87L945 98Q942 99 939 100Q936 101 932 101Z"/></svg>