<svg xmlns="http://www.w3.org/2000/svg" viewBox="4.25390625 45.296875 715.9921875 72"><path d="M52 74L52 74Q52 87 46 94Q40 101 28 101L28 101Q17 101 10 94Q4 87 4 74L4 74Q4 61 11 55Q17 48 28 48L28 48Q40 48 46 55Q52 62 52 74ZM13 74L13 74Q13 84 17 89Q21 94 28 94L28 94Q36 94 40 89Q43 84 43 74L43 74Q43 65 40 60Q36 55 28 55L28 55Q21 55 17 60Q13 65 13 74ZM82 101L82 101Q75 101 71 95L71 95L70 95Q71 100 71 101L71 101L71 117L63 117L63 61L69 61Q70 62 70 66L70 66L71 66Q75 60 82 60L82 60Q90 60 94 66Q98 71 98 80L98 80Q98 90 94 95Q90 101 82 101ZM80 67L80 67Q75 67 73 70Q71 73 71 79L71 79L71 80Q71 88 73 91Q75 94 80 94L80 94Q85 94 87 90Q89 87 89 80L89 80Q89 74 87 71Q85 67 80 67ZM124 101L124 101Q115 101 110 95Q105 90 105 81L105 81Q105 71 110 66Q115 60 123 60L123 60Q131 60 135 65Q140 70 140 78L140 78L140 82L114 82Q114 88 117 91Q120 94 125 94L125 94Q128 94 131 94Q134 93 138 91L138 91L138 98Q135 100 131 100Q128 101 124 101ZM123 67L123 67Q119 67 117 69Q114 72 114 76L114 76L131 76Q131 72 129 69Q127 67 123 67ZM183 75L183 100L175 100L175 76Q175 72 173 69Q171 67 167 67L167 67Q162 67 160 70Q157 73 157 81L157 81L157 100L149 100L149 61L155 61L157 66L157 66Q159 63 162 62Q165 60 169 60L169 60Q183 60 183 75L183 75ZM244 86L244 86Q244 93 239 97Q234 101 225 101L225 101Q216 101 211 98L211 98L211 90Q214 92 218 93Q222 94 226 94L226 94Q231 94 233 92Q236 90 236 87L236 87Q236 84 233 82Q231 80 224 77L224 77Q217 74 214 70Q212 67 212 62L212 62Q212 55 216 52Q221 48 228 48L228 48Q236 48 243 51L243 51L240 58Q234 55 228 55L228 55Q224 55 222 57Q220 59 220 62L220 62Q220 64 221 65Q222 66 223 68Q225 69 230 71L230 71Q236 73 239 75Q241 77 243 80Q244 83 244 86ZM283 100L277 100L276 95L275 95Q272 98 270 99Q267 101 262 101L262 101Q257 101 253 98Q250 95 250 89L250 89Q250 83 255 80Q259 77 268 76L268 76L275 76L275 74Q275 70 273 69Q271 67 268 67L268 67Q265 67 262 68Q259 69 257 70L257 70L254 64Q257 62 261 61Q265 60 268 60L268 60Q276 60 279 64Q283 67 283 74L283 74L283 100ZM265 94L265 94Q269 94 272 92Q275 89 275 85L275 85L275 81L270 82Q264 82 261 84Q259 85 259 89L259 89Q259 92 260 93Q262 94 265 94ZM329 75L329 100L321 100L321 76Q321 72 319 69Q317 67 313 67L313 67Q308 67 305 70Q303 73 303 81L303 81L303 100L295 100L295 61L301 61L302 66L303 66Q304 63 308 62Q311 60 315 60L315 60Q329 60 329 75L329 75ZM367 89L367 89Q367 95 362 98Q358 101 350 101L350 101Q343 101 338 98L338 98L338 91Q345 94 351 94L351 94Q358 94 358 90L358 90Q358 88 358 87Q357 86 355 85Q353 84 349 83L349 83Q343 80 340 78Q338 75 338 71L338 71Q338 66 342 63Q346 60 353 60L353 60Q360 60 366 63L366 63L363 69Q357 67 353 67L353 67Q346 67 346 71L346 71Q346 72 348 74Q349 75 355 77L355 77Q360 79 362 81Q364 82 365 84Q367 86 367 89ZM420 89L420 89Q420 95 416 98Q412 101 404 101L404 101Q396 101 392 98L392 98L392 91Q399 94 405 94L405 94Q412 94 412 90L412 90Q412 88 411 87Q410 86 409 85Q407 84 403 83L403 83Q396 80 394 78Q392 75 392 71L392 71Q392 66 396 63Q400 60 407 60L407 60Q414 60 420 63L420 63L417 69Q411 67 406 67L406 67Q400 67 400 71L400 71Q400 72 402 74Q403 75 409 77L409 77Q414 79 416 81Q418 82 419 84Q420 86 420 89ZM446 101L446 101Q437 101 432 95Q427 90 427 81L427 81Q427 71 432 66Q436 60 445 60L445 60Q452 60 457 65Q461 70 461 78L461 78L461 82L435 82Q436 88 438 91Q441 94 447 94L447 94Q450 94 453 94Q456 93 459 91L459 91L459 98Q456 100 453 100Q450 101 446 101ZM445 67L445 67Q441 67 438 69Q436 72 436 76L436 76L453 76Q453 72 451 69Q449 67 445 67ZM503 79L503 100L495 100L495 76Q495 72 493 69Q492 67 488 67L488 67Q483 67 481 70Q479 73 479 81L479 81L479 100L471 100L471 61L477 61L478 66L479 66Q480 63 483 62Q486 60 490 60L490 60Q499 60 502 67L502 67L503 67Q504 64 507 62Q511 60 515 60L515 60Q522 60 525 64Q528 67 528 75L528 75L528 100L520 100L520 76Q520 72 518 69Q516 67 513 67L513 67Q508 67 506 70Q503 73 503 79L503 79ZM548 61L548 100L540 100L540 61L548 61ZM539 51L539 51Q539 49 540 47Q541 46 544 46L544 46Q546 46 547 47Q548 49 548 51L548 51Q548 53 547 54Q546 55 544 55L544 55Q541 55 540 54Q539 53 539 51ZM598 60L598 60Q605 60 609 66Q614 71 614 80L614 80Q614 90 609 95Q605 101 598 101L598 101Q591 101 587 95L587 95L586 95L584 100L578 100L578 45L587 45L587 58Q587 60 586 63Q586 65 586 66L586 66L587 66Q590 60 598 60ZM596 67L596 67Q591 67 589 70Q587 73 587 80L587 80L587 80Q587 88 589 91Q591 94 596 94L596 94Q601 94 603 90Q605 87 605 80L605 80Q605 67 596 67ZM658 80L658 80Q658 90 653 95Q648 101 639 101L639 101Q634 101 630 98Q625 96 623 91Q621 87 621 80L621 80Q621 71 626 66Q631 60 639 60L639 60Q648 60 653 66Q658 71 658 80ZM629 80L629 80Q629 94 639 94L639 94Q649 94 649 80L649 80Q649 67 639 67L639 67Q634 67 632 71Q629 74 629 80ZM675 45L675 100L667 100L667 45L675 45ZM700 101L700 101Q693 101 689 95Q685 90 685 81L685 81Q685 71 689 66Q693 60 700 60L700 60Q708 60 712 66L712 66L713 66Q712 62 712 59L712 59L712 45L720 45L720 100L714 100L712 95L712 95Q708 101 700 101ZM703 94L703 94Q708 94 710 91Q712 88 712 82L712 82L712 81Q712 73 710 70Q708 67 702 67L702 67Q698 67 696 71Q693 74 693 81L693 81Q693 87 696 91Q698 94 703 94Z"/></svg>