<svg xmlns="http://www.w3.org/2000/svg" viewBox="0.41015625 -7.59765625 84.74609375 10"><path d="M5.54-3.58L5.54-3.58Q5.54-1.81 4.88-0.85Q4.21 0.10 2.98 0.10L2.98 0.10Q1.74 0.10 1.07-0.85Q0.41-1.80 0.41-3.59L0.41-3.59Q0.41-5.36 1.07-6.31Q1.74-7.25 2.99-7.25L2.99-7.25Q4.22-7.25 4.88-6.30Q5.54-5.35 5.54-3.58ZM1.77-3.58L1.77-3.58Q1.77-2.36 2.08-1.72Q2.38-1.08 2.98-1.08L2.98-1.08Q4.18-1.08 4.18-3.58L4.18-3.58Q4.18-6.08 2.99-6.08L2.99-6.08Q2.38-6.08 2.08-5.44Q1.77-4.80 1.77-3.58ZM8.93 0.10L8.93 0.10Q8.58 0.10 8.31-0.06Q8.04-0.22 7.80-0.62L7.80-0.62L7.73-0.62Q7.81 0.04 7.81 0.18L7.81 0.18L7.81 2.40L6.50 2.40L6.50-5.44L7.51-5.44L7.73-4.73L7.79-4.73Q8.20-5.54 8.97-5.54L8.97-5.54Q9.71-5.54 10.13-4.81Q10.55-4.07 10.55-2.73L10.55-2.73Q10.55-1.41 10.12-0.65Q9.68 0.10 8.93 0.10ZM8.53-4.44L8.53-4.44Q8.15-4.44 7.98-4.08Q7.81-3.73 7.80-2.91L7.80-2.91L7.80-2.74Q7.80-1.84 7.97-1.43Q8.14-1.02 8.54-1.02L8.54-1.02Q9.22-1.02 9.22-2.75L9.22-2.75Q9.22-3.60 9.06-4.02Q8.89-4.44 8.53-4.44ZM13.47 0.10L13.47 0.10Q12.45 0.10 11.86-0.63Q11.27-1.35 11.27-2.68L11.27-2.68Q11.27-4.03 11.81-4.79Q12.34-5.54 13.29-5.54L13.29-5.54Q14.18-5.54 14.69-4.90Q15.21-4.25 15.21-3.08L15.21-3.08L15.21-2.39L12.59-2.39Q12.61-1.66 12.89-1.31Q13.17-0.95 13.67-0.95L13.67-0.95Q14.31-0.95 14.97-1.35L14.97-1.35L14.97-0.28Q14.35 0.10 13.47 0.10ZM13.28-4.54L13.28-4.54Q13.00-4.54 12.82-4.25Q12.64-3.95 12.61-3.33L12.61-3.33L13.93-3.33Q13.92-3.93 13.75-4.23Q13.58-4.54 13.28-4.54ZM20.08 0L18.77 0L18.77-3.24Q18.77-3.83 18.63-4.14Q18.49-4.44 18.17-4.44L18.17-4.44Q17.75-4.44 17.56-4.02Q17.36-3.60 17.36-2.61L17.36-2.61L17.36 0L16.06 0L16.06-5.44L17.09-5.44L17.25-4.74L17.33-4.74Q17.51-5.12 17.84-5.33Q18.16-5.54 18.60-5.54L18.60-5.54Q19.35-5.54 19.71-5.03Q20.08-4.53 20.08-3.55L20.08-3.55L20.08 0ZM26.93-1.97L26.93-1.97Q26.93-0.97 26.43-0.43Q25.92 0.10 24.97 0.10L24.97 0.10Q24.04 0.10 23.38-0.27L23.38-0.27L23.38-1.58Q24.18-1.06 24.85-1.06L24.85-1.06Q25.23-1.06 25.43-1.27Q25.62-1.48 25.62-1.84L25.62-1.84Q25.62-2.20 25.39-2.49Q25.16-2.79 24.63-3.15L24.63-3.15Q24.17-3.47 23.94-3.76Q23.70-4.05 23.57-4.41Q23.44-4.77 23.44-5.25L23.44-5.25Q23.44-6.17 23.95-6.70Q24.46-7.24 25.32-7.24L25.32-7.24Q26.14-7.24 26.90-6.78L26.90-6.78L26.46-5.72Q26.23-5.85 25.97-5.96Q25.71-6.07 25.42-6.07L25.42-6.07Q25.10-6.07 24.92-5.86Q24.75-5.64 24.75-5.28L24.75-5.28Q24.75-4.92 24.96-4.65Q25.17-4.38 25.68-4.04L25.68-4.04Q26.38-3.57 26.66-3.08Q26.93-2.59 26.93-1.97ZM31.35 0L30.40 0L30.14-0.74L30.11-0.74Q29.82-0.26 29.52-0.08Q29.21 0.10 28.74 0.10L28.74 0.10Q28.14 0.10 27.80-0.35Q27.45-0.80 27.45-1.60L27.45-1.60Q27.45-2.46 27.92-2.88Q28.39-3.30 29.33-3.34L29.33-3.34L30.05-3.37L30.05-3.76Q30.05-4.52 29.39-4.52L29.39-4.52Q28.91-4.52 28.27-4.14L28.27-4.14L27.82-5.04Q28.63-5.55 29.58-5.55L29.58-5.55Q30.45-5.55 30.90-5.06Q31.35-4.56 31.35-3.65L31.35-3.65L31.35 0ZM29.27-0.92L29.27-0.92Q29.63-0.92 29.84-1.24Q30.05-1.56 30.05-2.09L30.05-2.09L30.05-2.55L29.65-2.53Q29.21-2.50 29.00-2.28Q28.79-2.05 28.79-1.59L28.79-1.59Q28.79-0.92 29.27-0.92ZM36.42 0L35.11 0L35.11-3.24Q35.11-3.83 34.97-4.14Q34.83-4.44 34.51-4.44L34.51-4.44Q34.09-4.44 33.90-4.02Q33.70-3.60 33.70-2.61L33.70-2.61L33.70 0L32.40 0L32.40-5.44L33.43-5.44L33.59-4.74L33.67-4.74Q33.85-5.12 34.17-5.33Q34.50-5.54 34.94-5.54L34.94-5.54Q35.68-5.54 36.05-5.03Q36.42-4.53 36.42-3.55L36.42-3.55L36.42 0ZM40.39-1.59L40.39-1.59Q40.39-0.80 39.92-0.35Q39.46 0.10 38.55 0.10L38.55 0.10Q37.74 0.10 37.22-0.22L37.22-0.22L37.22-1.35Q37.49-1.16 37.84-1.04Q38.20-0.92 38.48-0.92L38.48-0.92Q38.78-0.92 38.94-1.07Q39.10-1.22 39.10-1.46L39.10-1.46Q39.10-1.71 38.93-1.89Q38.76-2.08 38.32-2.35L38.32-2.35Q37.73-2.70 37.47-3.10Q37.22-3.50 37.22-4.04L37.22-4.04Q37.22-4.73 37.69-5.14Q38.17-5.54 39.00-5.54L39.00-5.54Q39.72-5.54 40.36-5.16L40.36-5.16L39.94-4.23Q39.41-4.51 39.02-4.51L39.02-4.51Q38.77-4.51 38.65-4.38Q38.52-4.25 38.52-4.06L38.52-4.06Q38.52-3.84 38.67-3.67Q38.83-3.50 39.25-3.24L39.25-3.24Q39.76-2.93 39.96-2.72Q40.17-2.50 40.28-2.23Q40.39-1.96 40.39-1.59ZM46.13-6.08L46.13-6.08Q45.56-6.08 45.23-5.41Q44.90-4.74 44.90-3.55L44.90-3.55Q44.90-1.07 46.19-1.07L46.19-1.07Q46.76-1.07 47.38-1.43L47.38-1.43L47.38-0.25Q46.86 0.10 46.04 0.10L46.04 0.10Q44.83 0.10 44.19-0.86Q43.54-1.82 43.54-3.56L43.54-3.56Q43.54-5.30 44.21-6.27Q44.87-7.24 46.06-7.24L46.06-7.24Q46.45-7.24 46.81-7.13Q47.17-7.03 47.58-6.76L47.58-6.76L47.14-5.68Q46.92-5.83 46.67-5.95Q46.42-6.08 46.13-6.08ZM52.34-2.73L52.34-2.73Q52.34-1.39 51.77-0.65Q51.21 0.10 50.22 0.10L50.22 0.10Q49.59 0.10 49.12-0.24Q48.64-0.59 48.38-1.23Q48.12-1.87 48.12-2.73L48.12-2.73Q48.12-4.05 48.68-4.80Q49.24-5.54 50.24-5.54L50.24-5.54Q51.20-5.54 51.77-4.78Q52.34-4.02 52.34-2.73ZM49.45-2.73L49.45-2.73Q49.45-1.88 49.63-1.45Q49.82-1.01 50.23-1.01L50.23-1.01Q51.01-1.01 51.01-2.73L51.01-2.73Q51.01-3.58 50.82-4.01Q50.63-4.43 50.23-4.43L50.23-4.43Q49.82-4.43 49.63-4.01Q49.45-3.58 49.45-2.73ZM57.27 0L55.96 0L55.96-3.24Q55.96-3.83 55.82-4.14Q55.68-4.44 55.36-4.44L55.36-4.44Q54.94-4.44 54.75-4.02Q54.55-3.60 54.55-2.61L54.55-2.61L54.55 0L53.25 0L53.25-5.44L54.28-5.44L54.44-4.74L54.52-4.74Q54.70-5.12 55.02-5.33Q55.35-5.54 55.79-5.54L55.79-5.54Q56.53-5.54 56.90-5.03Q57.27-4.53 57.27-3.55L57.27-3.55L57.27 0ZM59.75 0.10L59.75 0.10Q59.00 0.10 58.56-0.64Q58.13-1.39 58.13-2.71L58.13-2.71Q58.13-4.04 58.55-4.79Q58.98-5.54 59.73-5.54L59.73-5.54Q60.10-5.54 60.37-5.36Q60.64-5.18 60.87-4.74L60.87-4.74L60.95-4.74Q60.89-5.48 60.89-5.78L60.89-5.78L60.89-7.60L62.19-7.60L62.19 0L61.22 0L61.00-0.71L60.96-0.71Q60.54 0.10 59.75 0.10ZM60.17-1.00L60.17-1.00Q60.53-1.00 60.70-1.33Q60.86-1.66 60.88-2.53L60.88-2.53L60.88-2.70Q60.88-3.65 60.71-4.03Q60.54-4.42 60.16-4.42L60.16-4.42Q59.79-4.42 59.63-3.98Q59.47-3.54 59.47-2.69L59.47-2.69Q59.47-1.85 59.63-1.42Q59.80-1.00 60.17-1.00ZM65.29 0.10L65.29 0.10Q64.27 0.10 63.68-0.63Q63.09-1.35 63.09-2.68L63.09-2.68Q63.09-4.03 63.62-4.79Q64.16-5.54 65.11-5.54L65.11-5.54Q66.00-5.54 66.51-4.90Q67.02-4.25 67.02-3.08L67.02-3.08L67.02-2.39L64.41-2.39Q64.42-1.66 64.71-1.31Q64.99-0.95 65.49-0.95L65.49-0.95Q66.12-0.95 66.79-1.35L66.79-1.35L66.79-0.28Q66.16 0.10 65.29 0.10ZM65.10-4.54L65.10-4.54Q64.82-4.54 64.64-4.25Q64.46-3.95 64.43-3.33L64.43-3.33L65.75-3.33Q65.74-3.93 65.57-4.23Q65.40-4.54 65.10-4.54ZM71.90 0L70.59 0L70.59-3.24Q70.59-3.83 70.45-4.14Q70.31-4.44 69.99-4.44L69.99-4.44Q69.57-4.44 69.38-4.02Q69.18-3.60 69.18-2.61L69.18-2.61L69.18 0L67.88 0L67.88-5.44L68.91-5.44L69.07-4.74L69.15-4.74Q69.33-5.12 69.65-5.33Q69.98-5.54 70.42-5.54L70.42-5.54Q71.16-5.54 71.53-5.03Q71.90-4.53 71.90-3.55L71.90-3.55L71.90 0ZM75.87-1.59L75.87-1.59Q75.87-0.80 75.40-0.35Q74.94 0.10 74.03 0.10L74.03 0.10Q73.22 0.10 72.70-0.22L72.70-0.22L72.70-1.35Q72.96-1.16 73.32-1.04Q73.68-0.92 73.96-0.92L73.96-0.92Q74.26-0.92 74.42-1.07Q74.58-1.22 74.58-1.46L74.58-1.46Q74.58-1.71 74.41-1.89Q74.24-2.08 73.80-2.35L73.80-2.35Q73.21-2.70 72.95-3.10Q72.70-3.50 72.70-4.04L72.70-4.04Q72.70-4.73 73.17-5.14Q73.65-5.54 74.48-5.54L74.48-5.54Q75.20-5.54 75.84-5.16L75.84-5.16L75.42-4.23Q74.89-4.51 74.50-4.51L74.50-4.51Q74.25-4.51 74.12-4.38Q74.00-4.25 74.00-4.06L74.00-4.06Q74.00-3.84 74.15-3.67Q74.31-3.50 74.73-3.24L74.73-3.24Q75.23-2.93 75.44-2.72Q75.64-2.50 75.76-2.23Q75.87-1.96 75.87-1.59ZM78.70 0.10L78.70 0.10Q77.68 0.10 77.09-0.63Q76.50-1.35 76.50-2.68L76.50-2.68Q76.50-4.03 77.03-4.79Q77.56-5.54 78.52-5.54L78.52-5.54Q79.40-5.54 79.92-4.90Q80.43-4.25 80.43-3.08L80.43-3.08L80.43-2.39L77.82-2.39Q77.83-1.66 78.12-1.31Q78.40-0.95 78.90-0.95L78.90-0.95Q79.53-0.95 80.20-1.35L80.20-1.35L80.20-0.28Q79.57 0.10 78.70 0.10ZM78.51-4.54L78.51-4.54Q78.23-4.54 78.05-4.25Q77.87-3.95 77.84-3.33L77.84-3.33L79.16-3.33Q79.15-3.93 78.97-4.23Q78.80-4.54 78.51-4.54ZM82.72 0.10L82.72 0.10Q81.97 0.10 81.53-0.64Q81.10-1.39 81.10-2.71L81.10-2.71Q81.10-4.04 81.52-4.79Q81.95-5.54 82.70-5.54L82.70-5.54Q83.07-5.54 83.34-5.36Q83.61-5.18 83.84-4.74L83.84-4.74L83.92-4.74Q83.86-5.48 83.86-5.78L83.86-5.78L83.86-7.60L85.16-7.60L85.16 0L84.19 0L83.97-0.71L83.93-0.71Q83.51 0.10 82.72 0.10ZM83.14-1.00L83.14-1.00Q83.50-1.00 83.67-1.33Q83.83-1.66 83.85-2.53L83.85-2.53L83.85-2.70Q83.85-3.65 83.68-4.03Q83.51-4.42 83.13-4.42L83.13-4.42Q82.76-4.42 82.60-3.98Q82.44-3.54 82.44-2.69L82.44-2.69Q82.44-1.85 82.60-1.42Q82.77-1.00 83.14-1.00Z"/></svg>