<svg xmlns="http://www.w3.org/2000/svg" viewBox="3.4560000000000004 41.032 428.90400000000005 59.760000000000005"><path d="M20 101Q11 101 7 96Q3 91 3 82L3 82L3 60Q3 51 7 46Q11 41 20 41L20 41Q29 41 33 46Q37 51 37 60L37 60L37 82Q37 91 33 96Q29 101 20 101L20 101ZM20 93Q24 93 25 91Q26 88 26 84L26 84L26 57Q26 53 25 51Q24 49 20 49L20 49Q17 49 15 51Q14 53 14 57L14 57L14 84Q14 88 15 91Q17 93 20 93L20 93ZM56 101Q50 101 47 98Q44 95 42 90L42 90L49 87Q51 94 55 94L55 94Q57 94 58 93Q59 92 59 91L59 91Q59 89 58 88Q57 86 54 84L54 84L49 80Q46 77 45 75Q43 72 43 69L43 69Q43 64 46 61Q50 58 55 58L55 58Q60 58 63 61Q66 64 67 69L67 69L61 71Q60 68 59 67Q57 65 55 65L55 65Q54 65 53 66Q52 67 52 68L52 68Q52 69 53 70Q54 72 56 74L56 74L61 78Q64 81 66 83Q68 86 68 90L68 90Q68 95 64 98Q61 101 56 101L56 101ZM77 100L71 58L79 58L83 85L87 58L94 58L99 86L102 58L110 58L104 100L95 100L91 74L86 100L77 100ZM124 101Q121 101 119 99Q117 98 116 96Q115 93 115 91L115 91Q115 86 117 83Q119 80 123 78Q126 76 132 74L132 74L132 71Q132 68 131 66Q130 65 128 65L128 65Q125 65 125 70L125 70L125 72L115 72Q116 65 119 61Q122 58 129 58L129 58Q135 58 138 61Q141 64 141 71L141 71L141 90Q141 94 142 100L142 100L133 100Q132 96 132 94L132 94Q131 97 129 99Q127 101 124 101L124 101ZM127 93Q129 93 130 93Q131 92 132 91L132 91L132 79Q128 81 126 83Q124 85 124 88L124 88Q124 91 125 92Q126 93 127 93L127 93ZM149 100L149 42L159 42L159 100L149 100ZM176 101Q171 101 168 97Q166 94 166 86L166 86L166 73Q166 66 168 62Q170 58 176 58L176 58Q180 58 183 61L183 61L183 42L193 42L193 100L183 100L183 97Q180 101 176 101L176 101ZM179 94Q181 94 183 93L183 93L183 66Q181 64 179 64L179 64Q176 64 176 71L176 71L176 87Q176 90 176 92Q177 94 179 94L179 94ZM218 100L218 58L228 58L228 62Q232 58 237 58L237 58Q240 58 242 59Q243 60 244 63L244 63Q249 58 255 58L255 58Q258 58 260 60Q263 63 263 67L263 67L263 100L253 100L253 68Q253 66 252 65Q252 64 250 64L250 64Q249 64 248 65Q246 66 245 67L245 67L245 67L245 100L236 100L236 68Q236 66 235 65Q234 64 233 64L233 64Q231 64 230 65Q229 66 228 67L228 67L228 100L218 100ZM282 101Q275 101 272 97Q269 93 269 85L269 85L269 73Q269 65 272 62Q276 58 282 58L282 58Q289 58 292 62Q295 66 295 74L295 74L295 80L279 80L279 88Q279 91 280 92Q281 94 282 94L282 94Q284 94 285 92Q286 91 286 88L286 88L286 85L295 85L295 88Q295 94 292 97Q289 101 282 101L282 101ZM279 75L286 75L286 71Q286 68 285 66Q284 65 282 65L282 65Q280 65 280 66Q279 68 279 72L279 72L279 75ZM311 101Q306 101 304 97Q301 94 301 86L301 86L301 73Q301 66 304 62Q306 58 311 58L311 58Q315 58 319 61L319 61L319 42L329 42L329 100L319 100L319 97Q315 101 311 101L311 101ZM315 94Q317 94 319 93L319 93L319 66Q317 64 315 64L315 64Q311 64 311 71L311 71L311 87Q311 90 312 92Q313 94 315 94L315 94ZM336 52L336 44L346 44L346 52L336 52ZM336 100L336 58L346 58L346 100L336 100ZM361 101Q357 101 355 98Q354 95 354 92L354 92L354 58L363 58L363 90Q363 92 364 93Q365 94 366 94L366 94Q368 94 371 92L371 92L371 58L380 58L380 100L371 100L371 96Q366 101 361 101L361 101ZM388 100L388 58L397 58L397 62Q402 58 407 58L407 58Q410 58 411 59Q413 60 414 63L414 63Q418 58 425 58L425 58Q428 58 430 60Q432 63 432 67L432 67L432 100L423 100L423 68Q423 66 422 65Q421 64 420 64L420 64Q419 64 417 65Q416 66 415 67L415 67L415 67L415 100L406 100L406 68Q406 66 405 65Q404 64 402 64L402 64Q401 64 400 65Q399 66 397 67L397 67L397 100L388 100Z"/></svg>