<svg xmlns="http://www.w3.org/2000/svg" viewBox="3.8880000000000003 41.10399999999999 297.3600000000001 72.57600000000002"><path d="M18.94 100.72Q10.73 100.72 7.31 96.04Q3.89 91.36 3.89 82.79L3.89 82.79L3.89 58.60Q3.89 50.10 7.34 45.60Q10.80 41.10 18.94 41.10L18.94 41.10Q26.93 41.10 30.38 45.64Q33.84 50.18 33.84 58.60L33.84 58.60L33.84 82.86Q33.84 91.43 30.46 96.08Q27.07 100.72 18.94 100.72L18.94 100.72ZM18.94 96.33Q24.26 96.33 26.28 93.20Q28.30 90.06 28.30 84.02L28.30 84.02L28.30 57.59Q28.30 51.54 26.32 48.52Q24.34 45.50 18.94 45.50L18.94 45.50Q13.46 45.50 11.45 48.48Q9.43 51.47 9.43 57.59L9.43 57.59L9.43 84.02Q9.43 90.14 11.45 93.23Q13.46 96.33 18.94 96.33L18.94 96.33ZM51.34 100.65Q46.44 100.65 43.45 97.48Q40.46 94.31 40.03 88.84L40.03 88.84L44.42 87.47Q44.86 92.22 46.66 94.46Q48.46 96.69 51.70 96.69L51.70 96.69Q54.43 96.69 55.91 95.14Q57.38 93.59 57.38 90.78L57.38 90.78Q57.38 86.68 52.34 82.43L52.34 82.43L46.66 77.54Q43.70 75.09 42.34 72.71Q40.97 70.34 40.97 67.10L40.97 67.10Q40.97 62.70 43.67 60.22Q46.37 57.74 50.90 57.74L50.90 57.74Q55.51 57.74 58.00 60.69Q60.48 63.64 60.77 68.68L60.77 68.68L57.02 69.90Q56.59 61.70 51.12 61.70L51.12 61.70Q48.67 61.70 47.23 63.03Q45.79 64.36 45.79 66.74L45.79 66.74Q45.79 68.68 46.51 70.12Q47.23 71.56 49.18 73.29L49.18 73.29L55.08 78.54Q58.46 81.57 60.23 84.20Q61.99 86.82 61.99 90.64L61.99 90.64Q61.99 95.39 59.11 98.02Q56.23 100.65 51.34 100.65L51.34 100.65ZM72.94 100L66.17 58.38L70.70 58.38L75.89 93.16L82.44 58.38L86.98 58.38L93.60 93.02L98.57 58.38L103.10 58.38L96.34 100L91.44 100L84.74 66.16L78.26 100L72.94 100ZM116.42 100.65Q112.68 100.65 110.38 97.98Q108.07 95.32 108.07 91.36L108.07 91.36Q108.07 87.26 109.69 84.59Q111.31 81.93 114.70 79.84Q118.08 77.75 124.85 74.73L124.85 74.73L124.85 71.78Q124.85 67.89 124.38 65.73Q123.91 63.57 122.80 62.63Q121.68 61.70 119.66 61.70L119.66 61.70Q113.83 61.70 113.83 68.82L113.83 68.82L113.83 70.26L108.65 70.19Q108.72 63.78 111.38 60.76Q114.05 57.74 119.95 57.74L119.95 57.74Q125.42 57.74 127.76 61.05Q130.10 64.36 130.10 71.49L130.10 71.49L130.10 91.72Q130.10 93.74 130.21 96.33Q130.32 98.92 130.46 100L130.46 100L125.78 100L124.99 94.24Q124.06 96.98 121.79 98.81Q119.52 100.65 116.42 100.65L116.42 100.65ZM118.08 96.18Q120.24 96.18 122.00 94.71Q123.77 93.23 124.85 91.22L124.85 91.22L124.85 78.26Q119.95 80.85 117.76 82.29Q115.56 83.73 114.44 85.49Q113.33 87.26 113.33 90.06L113.33 90.06Q113.33 93.16 114.66 94.67Q115.99 96.18 118.08 96.18L118.08 96.18ZM138.53 100L138.53 41.68L143.78 41.68L143.78 100L138.53 100ZM161.57 100.65Q156.24 100.65 153.90 96.62Q151.56 92.58 151.56 83.22L151.56 83.22L151.56 75.52Q151.56 66.66 153.65 62.20Q155.74 57.74 161.35 57.74L161.35 57.74Q165.38 57.74 168.70 61.34L168.70 61.34L168.70 41.68L173.95 41.68L173.95 100L168.70 100L168.70 97.05Q165.38 100.65 161.57 100.65L161.57 100.65ZM162.65 96.47Q165.67 96.47 168.70 93.74L168.70 93.74L168.70 64.79Q165.38 61.84 162.50 61.84L162.50 61.84Q159.19 61.84 158.00 64.65Q156.82 67.46 156.82 73.79L156.82 73.79L156.82 83.66Q156.82 90.42 158.00 93.45Q159.19 96.47 162.65 96.47L162.65 96.47ZM197.50 100L197.50 41.68L202.75 41.68L202.75 100L197.50 100ZM211.90 52.62L211.90 45.50L217.15 45.50L217.15 52.62L211.90 52.62ZM211.90 100L211.90 58.38L217.15 58.38L217.15 100L211.90 100ZM236.59 113.68Q230.18 113.68 226.69 111.81Q223.20 109.94 223.20 106.12L223.20 106.12Q223.20 103.24 225.18 100.86Q227.16 98.49 230.04 97.05L230.04 97.05Q225.43 95.82 225.43 92.51L225.43 92.51Q225.43 90.50 226.62 88.80Q227.81 87.11 230.40 84.95L230.40 84.95Q227.66 82.94 226.40 79.80Q225.14 76.67 225.14 72.28L225.14 72.28Q225.14 65.94 228.10 61.84Q231.05 57.74 236.81 57.74L236.81 57.74Q243.14 57.74 245.74 62.92L245.74 62.92Q246.38 61.77 248.00 60.36Q249.62 58.96 251.35 58.24L251.35 58.24L252.43 57.88L253.87 61.55Q252.14 61.84 250.02 62.99Q247.90 64.14 247.03 65.15L247.03 65.15Q247.54 66.52 247.93 68.72Q248.33 70.91 248.33 72.42L248.33 72.42Q248.33 79.12 245.59 83.04Q242.86 86.97 236.88 86.97L236.88 86.97Q235.80 86.97 234.61 86.79Q233.42 86.61 232.63 86.32L232.63 86.32Q229.82 89.13 229.82 91.07L229.82 91.07Q229.82 92.08 230.65 92.62Q231.48 93.16 233.28 93.38L233.28 93.38L239.90 94.38Q245.09 95.18 247.72 97.52Q250.34 99.86 250.34 104.03L250.34 104.03Q250.34 108.86 246.64 111.27Q242.93 113.68 236.59 113.68L236.59 113.68ZM236.88 83.15Q240.98 83.15 242.35 80.13Q243.72 77.10 243.72 72.28L243.72 72.28Q243.72 61.48 236.88 61.48L236.88 61.48Q232.92 61.48 231.41 64.65Q229.90 67.82 229.90 72.28L229.90 72.28Q229.90 83.15 236.88 83.15L236.88 83.15ZM236.81 109.43Q241.20 109.43 243.68 108.14Q246.17 106.84 246.17 104.10L246.17 104.10Q246.17 101.80 244.55 100.50Q242.93 99.21 238.32 98.49L238.32 98.49L232.99 97.77Q230.62 99.50 229.14 101.12Q227.66 102.74 227.66 104.82L227.66 104.82Q227.66 107.20 229.90 108.32Q232.13 109.43 236.81 109.43L236.81 109.43ZM257.11 100L257.11 41.68L262.37 41.68L262.37 62.78Q267.05 57.74 272.52 57.74L272.52 57.74Q275.62 57.74 277.27 60.04Q278.93 62.34 278.93 66.59L278.93 66.59L278.93 100L273.60 100L273.60 67.74Q273.60 64.58 272.63 63.21Q271.66 61.84 269.64 61.84L269.64 61.84Q267.91 61.84 266.00 62.92Q264.10 64.00 262.37 65.80L262.37 65.80L262.37 100L257.11 100ZM296.57 100.50Q292.32 100.50 290.70 98.16Q289.08 95.82 289.08 91.36L289.08 91.36L289.08 61.84L283.97 61.84L283.97 58.38L289.08 58.38L289.08 45.50L294.34 45.50L294.34 58.38L301.25 58.38L301.25 61.84L294.34 61.84L294.34 90.86Q294.34 94.02 295.06 95.21Q295.78 96.40 298.01 96.40L298.01 96.40Q299.38 96.40 301.03 96.04L301.03 96.04L301.03 100.07Q298.80 100.50 296.57 100.50L296.57 100.50Z"/></svg>