<svg xmlns="http://www.w3.org/2000/svg" viewBox="0.48 -8.17 24.959999999999994 8.26"><path d="M2.70 0.09Q1.51 0.09 0.99-0.58Q0.48-1.26 0.48-2.54L0.48-2.54L0.48-5.61Q0.48-6.87 1-7.52Q1.52-8.17 2.70-8.17L2.70-8.17Q3.88-8.17 4.40-7.52Q4.91-6.86 4.91-5.61L4.91-5.61L4.91-2.53Q4.91-1.27 4.39-0.59Q3.87 0.09 2.70 0.09L2.70 0.09ZM2.70-0.80Q3.33-0.80 3.55-1.17Q3.77-1.54 3.77-2.29L3.77-2.29L3.77-5.84Q3.77-6.58 3.55-6.94Q3.33-7.29 2.70-7.29L2.70-7.29Q2.06-7.29 1.84-6.94Q1.62-6.58 1.62-5.84L1.62-5.84L1.62-2.29Q1.62-1.54 1.84-1.17Q2.06-0.80 2.70-0.80L2.70-0.80ZM7.27 0.08Q6.57 0.08 6.13-0.36Q5.70-0.80 5.64-1.54L5.64-1.54L6.53-1.81Q6.61-1.25 6.80-0.98Q7-0.71 7.36-0.71L7.36-0.71Q7.64-0.71 7.79-0.88Q7.95-1.04 7.95-1.32L7.95-1.32Q7.95-1.57 7.84-1.77Q7.73-1.97 7.48-2.18L7.48-2.18L6.49-3.03Q6.15-3.32 5.96-3.65Q5.78-3.97 5.78-4.44L5.78-4.44Q5.78-5.11 6.18-5.49Q6.58-5.86 7.27-5.86L7.27-5.86Q7.93-5.86 8.30-5.44Q8.68-5.01 8.74-4.34L8.74-4.34L8.02-4.07Q7.95-4.56 7.79-4.82Q7.63-5.07 7.31-5.07L7.31-5.07Q7.05-5.07 6.89-4.90Q6.74-4.73 6.74-4.48L6.74-4.48Q6.74-4.16 7.03-3.90L7.03-3.90L8.05-2.96Q8.44-2.60 8.65-2.25Q8.87-1.90 8.87-1.40L8.87-1.40Q8.87-0.68 8.44-0.30Q8.01 0.08 7.27 0.08L7.27 0.08ZM10.34 0L9.41-5.78L10.29-5.78L10.89-1.52L11.66-5.78L12.48-5.78L13.25-1.54L13.85-5.78L14.73-5.78L13.77 0L12.87 0L12.08-4.08L11.30 0L10.34 0ZM16.59 0.08Q16.26 0.08 15.99-0.11Q15.73-0.30 15.58-0.61Q15.43-0.92 15.43-1.26L15.43-1.26Q15.43-1.94 15.72-2.37Q16.01-2.79 16.46-3.04Q16.91-3.29 17.71-3.61L17.71-3.61L17.71-4.02Q17.71-4.59 17.59-4.83Q17.48-5.06 17.13-5.06L17.13-5.06Q16.52-5.06 16.52-4.24L16.52-4.24L16.52-3.95L15.46-3.99Q15.48-4.95 15.90-5.41Q16.32-5.86 17.20-5.86L17.20-5.86Q18.03-5.86 18.40-5.41Q18.78-4.95 18.78-4.03L18.78-4.03L18.78-1.39Q18.78-0.74 18.88 0L18.88 0L17.90 0Q17.79-0.57 17.76-0.85L17.76-0.85Q17.64-0.46 17.34-0.19Q17.05 0.08 16.59 0.08L16.59 0.08ZM17.01-0.84Q17.22-0.84 17.42-1.01Q17.62-1.17 17.71-1.32L17.71-1.32L17.71-2.96Q17.28-2.72 17.04-2.54Q16.81-2.37 16.65-2.14Q16.50-1.91 16.50-1.59L16.50-1.59Q16.50-1.23 16.63-1.03Q16.76-0.84 17.01-0.84L17.01-0.84ZM19.91 0L19.91-8.10L20.98-8.10L20.98 0L19.91 0ZM23.44 0.08Q22.69 0.08 22.34-0.47Q21.99-1.01 21.99-2.27L21.99-2.27L21.99-3.39Q21.99-4.54 22.29-5.20Q22.60-5.86 23.41-5.86L23.41-5.86Q23.92-5.86 24.37-5.41L24.37-5.41L24.37-8.10L25.44-8.10L25.44 0L24.37 0L24.37-0.37Q23.95 0.08 23.44 0.08L23.44 0.08ZM23.71-0.76Q24.03-0.76 24.37-0.98L24.37-0.98L24.37-4.77Q24.00-5.02 23.69-5.02L23.69-5.02Q23.06-5.02 23.06-3.81L23.06-3.81L23.06-2.18Q23.06-1.48 23.19-1.12Q23.32-0.76 23.71-0.76L23.71-0.76Z"/></svg>