<svg xmlns="http://www.w3.org/2000/svg" viewBox="0.54 -8.18 23.619999999999997 8.28"><path d="M2.63 0.10Q1.49 0.10 1.02-0.55Q0.54-1.20 0.54-2.39L0.54-2.39L0.54-5.75Q0.54-6.93 1.02-7.55Q1.50-8.18 2.63-8.18L2.63-8.18Q3.74-8.18 4.22-7.55Q4.70-6.92 4.70-5.75L4.70-5.75L4.70-2.38Q4.70-1.19 4.23-0.55Q3.76 0.10 2.63 0.10L2.63 0.10ZM2.63-0.51Q3.37-0.51 3.65-0.95Q3.93-1.38 3.93-2.22L3.93-2.22L3.93-5.89Q3.93-6.73 3.66-7.15Q3.38-7.57 2.63-7.57L2.63-7.57Q1.87-7.57 1.59-7.16Q1.31-6.74 1.31-5.89L1.31-5.89L1.31-2.22Q1.31-1.37 1.59-0.94Q1.87-0.51 2.63-0.51L2.63-0.51ZM7.13 0.09Q6.45 0.09 6.04-0.35Q5.62-0.79 5.56-1.55L5.56-1.55L6.17-1.74Q6.23-1.08 6.48-0.77Q6.73-0.46 7.18-0.46L7.18-0.46Q7.56-0.46 7.77-0.68Q7.97-0.89 7.97-1.28L7.97-1.28Q7.97-1.85 7.27-2.44L7.27-2.44L6.48-3.12Q6.07-3.46 5.88-3.79Q5.69-4.12 5.69-4.57L5.69-4.57Q5.69-5.18 6.07-5.53Q6.44-5.87 7.07-5.87L7.07-5.87Q7.71-5.87 8.05-5.46Q8.40-5.05 8.44-4.35L8.44-4.35L7.92-4.18Q7.86-5.32 7.10-5.32L7.10-5.32Q6.76-5.32 6.56-5.13Q6.36-4.95 6.36-4.62L6.36-4.62Q6.36-4.35 6.46-4.15Q6.56-3.95 6.83-3.71L6.83-3.71L7.65-2.98Q8.12-2.56 8.37-2.19Q8.61-1.83 8.61-1.30L8.61-1.30Q8.61-0.64 8.21-0.28Q7.81 0.09 7.13 0.09L7.13 0.09ZM10.13 0L9.19-5.78L9.82-5.78L10.54-0.95L11.45-5.78L12.08-5.78L13-0.97L13.69-5.78L14.32-5.78L13.38 0L12.70 0L11.77-4.70L10.87 0L10.13 0ZM16.17 0.09Q15.65 0.09 15.33-0.28Q15.01-0.65 15.01-1.20L15.01-1.20Q15.01-1.77 15.23-2.14Q15.46-2.51 15.93-2.80Q16.40-3.09 17.34-3.51L17.34-3.51L17.34-3.92Q17.34-4.46 17.27-4.76Q17.21-5.06 17.05-5.19Q16.90-5.32 16.62-5.32L16.62-5.32Q15.81-5.32 15.81-4.33L15.81-4.33L15.81-4.13L15.09-4.14Q15.10-5.03 15.47-5.45Q15.84-5.87 16.66-5.87L16.66-5.87Q17.42-5.87 17.75-5.41Q18.07-4.95 18.07-3.96L18.07-3.96L18.07-1.15Q18.07-0.87 18.09-0.51Q18.10-0.15 18.12 0L18.12 0L17.47 0L17.36-0.80Q17.23-0.42 16.91-0.17Q16.60 0.09 16.17 0.09L16.17 0.09ZM16.40-0.53Q16.70-0.53 16.95-0.73Q17.19-0.94 17.34-1.22L17.34-1.22L17.34-3.02Q16.66-2.66 16.36-2.46Q16.05-2.26 15.89-2.02Q15.74-1.77 15.74-1.38L15.74-1.38Q15.74-0.95 15.92-0.74Q16.11-0.53 16.40-0.53L16.40-0.53ZM19.24 0L19.24-8.10L19.97-8.10L19.97 0L19.24 0ZM22.44 0.09Q21.70 0.09 21.37-0.47Q21.05-1.03 21.05-2.33L21.05-2.33L21.05-3.40Q21.05-4.63 21.34-5.25Q21.63-5.87 22.41-5.87L22.41-5.87Q22.97-5.87 23.43-5.37L23.43-5.37L23.43-8.10L24.16-8.10L24.16 0L23.43 0L23.43-0.41Q22.97 0.09 22.44 0.09L22.44 0.09ZM22.59-0.49Q23.01-0.49 23.43-0.87L23.43-0.87L23.43-4.89Q22.97-5.30 22.57-5.30L22.57-5.30Q22.11-5.30 21.94-4.91Q21.78-4.52 21.78-3.64L21.78-3.64L21.78-2.27Q21.78-1.33 21.94-0.91Q22.11-0.49 22.59-0.49L22.59-0.49Z"/></svg>