<svg xmlns="http://www.w3.org/2000/svg" viewBox="4.176 41.032 419.328 73.08"><path d="M19 101Q11 101 7 96Q4 92 4 83L4 83L4 58Q4 50 7 45Q11 41 19 41L19 41Q26 41 30 45Q33 50 33 58L33 58L33 84Q33 92 30 96Q27 101 19 101L19 101ZM19 98Q24 98 27 94Q29 91 29 84L29 84L29 57Q29 51 27 48Q24 44 19 44L19 44Q13 44 10 48Q8 51 8 57L8 57L8 84Q8 91 10 94Q13 98 19 98L19 98ZM51 101Q46 101 43 97Q40 94 40 89L40 89L43 88Q43 93 45 95Q47 98 51 98L51 98Q54 98 56 96Q57 94 57 91L57 91Q57 86 51 81L51 81L47 77Q43 74 42 72Q41 70 41 67L41 67Q41 62 43 60Q46 58 50 58L50 58Q55 58 57 61Q59 63 59 69L59 69L57 69Q56 61 50 61L50 61Q47 61 46 62Q44 63 44 66L44 66Q44 69 45 70Q46 72 48 74L48 74L53 78Q56 81 57 82Q59 84 60 86Q61 88 61 91L61 91Q61 96 58 98Q55 101 51 101L51 101ZM72 100L65 58L69 58L74 96L81 58L85 58L92 95L98 58L101 58L95 100L91 100L83 63L76 100L72 100ZM114 101Q111 101 108 98Q106 96 106 92L106 92Q106 88 107 86Q109 83 112 81Q116 79 123 75L123 75L123 72Q123 68 123 65Q122 63 121 62Q120 61 117 61L117 61Q114 61 113 62Q111 64 111 68L111 68L111 70L107 70Q107 63 109 61Q112 58 118 58L118 58Q123 58 125 61Q127 64 127 72L127 72L127 93Q127 94 127 97Q127 99 127 100L127 100L124 100Q124 99 123 97L123 97L123 94Q122 97 120 99Q118 101 114 101L114 101ZM115 97Q118 97 120 96Q122 94 123 92L123 92L123 78Q117 81 115 83Q112 84 111 86Q110 88 110 91L110 91Q110 94 112 96Q113 97 115 97L115 97ZM136 100L136 42L139 42L139 100L136 100ZM157 101Q154 101 151 99Q149 97 148 93Q147 89 147 83L147 83L147 76Q147 69 148 65Q149 62 151 60Q153 58 157 58L157 58Q159 58 161 59Q163 60 165 62L165 62L165 42L168 42L168 100L165 100L165 97Q161 101 157 101L157 101ZM158 98Q160 98 161 97Q163 96 165 94L165 94L165 64Q161 61 158 61L158 61Q155 61 154 62Q152 63 152 66Q151 69 151 75L151 75L151 83Q151 88 152 92Q152 95 154 96Q155 98 158 98L158 98ZM200 101Q196 101 194 99Q192 98 191 94Q189 91 189 85L189 85L189 74Q189 67 191 64Q192 60 194 59Q197 58 200 58L200 58Q204 58 206 59Q208 61 209 65Q210 68 210 74L210 74L210 78L193 78L193 85Q193 90 194 93Q195 95 196 97Q197 98 200 98L200 98Q203 98 205 96Q207 94 207 89L207 89L207 86L210 86L210 89Q210 94 208 98Q206 101 200 101L200 101ZM193 76L207 76L207 73Q207 68 206 66Q206 63 204 62Q203 61 200 61L200 61Q198 61 196 62Q195 63 194 65Q193 68 193 73L193 73L193 76ZM214 100L225 78L215 58L219 58L227 75L234 58L238 58L229 79L239 100L235 100L226 82L218 100L214 100ZM253 100Q249 100 248 98Q247 96 247 92L247 92L247 61L241 61L241 58L247 58L247 45L250 45L250 58L257 58L257 61L250 61L250 91Q250 95 251 96Q252 97 254 97L254 97Q255 97 257 97L257 97L257 100Q255 100 253 100L253 100ZM264 100L264 58L267 58L267 64Q269 61 272 60Q275 58 277 58L277 58Q278 58 278 58L278 58L278 62Q277 62 276 62L276 62Q271 62 267 67L267 67L267 100L264 100ZM290 101Q286 101 284 98Q282 96 282 92L282 92Q282 88 283 86Q284 83 288 81Q291 79 299 75L299 75L299 72Q299 68 298 65Q298 63 296 62Q295 61 293 61L293 61Q290 61 288 62Q286 64 286 68L286 68L286 70L283 70Q283 63 285 61Q287 58 293 58L293 58Q298 58 300 61Q303 64 303 72L303 72L303 93Q303 94 303 97Q303 99 303 100L303 100L299 100Q299 99 299 97L299 97L299 94Q298 97 295 99Q293 101 290 101L290 101ZM291 97Q294 97 296 96Q298 94 299 92L299 92L299 78Q293 81 290 83Q288 84 287 86Q286 88 286 91L286 91Q286 94 287 96Q289 97 291 97L291 97ZM325 100L325 42L329 42L329 100L325 100ZM338 53L338 46L342 46L342 53L338 53ZM338 100L338 58L342 58L342 100L338 100ZM361 114Q348 114 348 107L348 107Q348 104 350 101Q352 99 355 97L355 97Q353 96 352 95Q350 94 350 92L350 92Q350 91 352 89Q353 87 356 85L356 85Q350 81 350 72L350 72Q350 68 351 65Q353 62 355 60Q358 58 362 58L362 58Q368 58 371 63L371 63Q372 62 373 60Q375 59 376 58L376 58L377 58L379 61Q377 61 375 63Q373 64 372 65L372 65Q372 66 373 69Q373 71 373 72L373 72Q373 79 370 83Q368 87 362 87L362 87Q361 87 359 87Q358 86 357 86L357 86Q356 88 355 89Q354 90 354 92L354 92Q354 93 354 93Q355 94 357 94L357 94L364 96Q369 97 372 99Q375 101 375 105L375 105Q375 110 371 112Q367 114 361 114L361 114ZM362 84Q370 84 370 72L370 72Q370 68 368 64Q366 61 362 61L362 61Q357 61 355 64Q354 68 354 72L354 72Q354 77 355 80Q357 84 362 84L362 84ZM361 111Q366 111 369 110Q372 108 372 105L372 105Q372 102 370 101Q368 99 362 98L362 98L358 98Q355 99 353 101Q351 103 351 106L351 106Q351 108 354 110Q356 111 361 111L361 111ZM382 100L382 42L386 42L386 63Q388 60 390 59Q393 58 396 58L396 58Q399 58 400 60Q402 62 402 67L402 67L402 100L398 100L398 67Q398 64 397 62Q396 61 394 61L394 61Q392 61 390 62Q388 63 386 65L386 65L386 100L382 100ZM419 100Q415 100 414 98Q413 96 413 92L413 92L413 61L407 61L407 58L413 58L413 45L416 45L416 58L424 58L424 61L416 61L416 91Q416 95 417 96Q418 97 420 97L420 97Q421 97 423 97L423 97L423 100Q421 100 419 100L419 100Z"/></svg>