<svg xmlns="http://www.w3.org/2000/svg" viewBox="3.9375 46.10546875 494.54296875 71.54296875"><path d="M10.41 74.02L10.41 74.02Q10.41 84.04 15.01 89.75Q19.62 95.46 28.62 95.46Q37.62 95.46 42.17 89.77Q46.72 84.07 46.72 74.02L46.72 74.02Q46.72 63.75 42.13 58.09Q37.55 52.43 28.65 52.43Q19.76 52.43 15.08 58.09Q10.41 63.75 10.41 74.02ZM53.23 74.02L53.23 74.02Q53.23 79.96 51.59 84.88Q49.96 89.80 46.88 93.34Q43.80 96.87 39.13 98.82Q34.45 100.77 28.62 100.77L28.62 100.77Q20.74 100.77 15.13 97.42Q9.53 94.06 6.73 88.06Q3.94 82.07 3.94 73.98L3.94 73.98Q3.94 61.50 10.44 54.30Q16.95 47.09 28.65 47.09L28.65 47.09Q40.18 47.09 46.71 54.35Q53.23 61.61 53.23 74.02ZM58.25 100L72.39 80.38L58.78 61.43L65.50 61.43L75.80 76.13L86.13 61.43L92.85 61.43L79.21 80.45L93.20 100L86.70 100L75.83 84.50L64.97 100L58.25 100ZM109.69 99.72L94.43 61.43L100.65 61.43L112.82 93.53L123.64 61.43L129.87 61.43Q114.26 104.39 113.73 105.73L113.73 105.73Q111.30 111.81 107.86 114.64Q104.41 117.47 98.79 117.47L98.79 117.47Q97.10 117.47 95.24 117.19L95.24 117.19L94.89 112.20Q96.86 112.34 97.84 112.34L97.84 112.34Q101.81 112.34 103.87 110.88Q105.93 109.42 107.54 105.41L107.54 105.41Q108.98 101.72 109.69 99.72L109.69 99.72ZM149.52 94.97L149.52 94.97Q152.51 94.97 154.76 93.92Q157.01 92.86 158.27 91Q159.54 89.14 160.15 86.85Q160.77 84.57 160.77 81.86L160.77 81.86L160.77 79.01Q160.77 76.20 160.14 73.83Q159.50 71.45 158.19 69.57Q156.87 67.69 154.67 66.64Q152.47 65.58 149.55 65.58L149.55 65.58Q147.13 65.58 145.14 66.50Q143.16 67.41 141.87 68.90Q140.59 70.40 139.69 72.38Q138.80 74.37 138.41 76.41Q138.02 78.45 138.02 80.52L138.02 80.52Q138.02 82.56 138.45 84.57Q138.87 86.57 139.78 88.47Q140.70 90.37 142.00 91.79Q143.30 93.21 145.25 94.09Q147.20 94.97 149.52 94.97ZM146.99 117.65L140.48 117.65L139.96 112.34L147.13 112.34Q150.12 112.34 152.33 111.92Q154.55 111.50 156.02 110.53Q157.50 109.56 158.41 108.38Q159.33 107.21 159.80 105.33Q160.28 103.45 160.44 101.60Q160.59 99.75 160.59 97.08L160.59 97.08L160.59 93.67Q158.48 96.70 155.71 98.33Q152.93 99.96 148.64 99.96L148.64 99.96Q145.34 99.96 142.54 98.82Q139.75 97.68 137.83 95.78Q135.91 93.88 134.56 91.39Q133.21 88.89 132.59 86.22Q131.98 83.55 131.98 80.84L131.98 80.84Q131.98 76.62 133.01 73.04Q134.05 69.45 136.09 66.64Q138.13 63.82 141.45 62.22Q144.77 60.63 149.06 60.63L149.06 60.63Q152.86 60.63 155.69 62.08Q158.52 63.54 160.77 66.57L160.77 66.57L160.77 61.43L166.50 61.43L166.50 97.22Q166.50 99.68 166.38 101.53Q166.25 103.38 165.78 105.63Q165.30 107.88 164.50 109.49Q163.69 111.11 162.23 112.74Q160.77 114.38 158.75 115.38Q156.73 116.38 153.74 117.02Q150.75 117.65 146.99 117.65L146.99 117.65ZM198.51 68.55Q195.93 65.48 191.43 65.48Q186.93 65.48 184.08 68.66Q181.23 71.84 180.74 77.36L180.74 77.36L201.09 77.36Q201.09 71.63 198.51 68.55ZM192.59 100.81L192.59 100.81Q184.18 100.81 179.35 95.46Q174.52 90.12 174.52 80.84L174.52 80.84Q174.52 71.88 179.19 66.30Q183.87 60.73 191.50 60.63L191.50 60.63Q198.67 60.63 202.87 65.53Q207.07 70.43 207.07 78.63L207.07 78.63Q207.07 79.05 207.05 80.17Q207.04 81.30 207.04 81.79L207.04 81.79L180.56 81.79Q180.67 88.36 183.96 92.04Q187.24 95.71 192.80 95.71L192.80 95.71Q198.91 95.71 205.07 92.48L205.07 92.48L205.98 97.22Q200.11 100.81 192.59 100.81ZM221.17 100L215.23 100L215.23 61.43L220.15 61.43L220.89 66.95Q223.17 64.11 226.60 62.37Q230.03 60.63 234 60.63L234 60.63Q240.68 60.63 243.88 64.37Q247.08 68.11 247.08 75.88L247.08 75.88L247.08 100L241.21 100Q241.21 76.80 241.17 75.14L241.17 75.14Q241.03 70.22 239.19 67.94Q237.34 65.65 233.02 65.65L233.02 65.65Q228.48 65.65 225.46 67.83Q222.43 70.01 221.52 73.49L221.52 73.49Q221.17 75.85 221.17 78.91L221.17 78.91L221.17 100ZM292.11 61.08L292.11 61.08Q293.70 61.08 295.00 61.29L295.00 61.29L294.79 66.71Q293.17 66.43 291.97 66.43L291.97 66.43Q287.05 66.43 283.97 69.85Q280.90 73.28 280.90 78.34L280.90 78.34L280.90 100L275.03 100Q274.99 64.49 274.99 61.43L274.99 61.43L279.88 61.43L280.44 68.36Q282.45 65.09 285.54 63.09Q288.63 61.08 292.11 61.08ZM322.58 68.55Q319.99 65.48 315.49 65.48Q310.99 65.48 308.14 68.66Q305.30 71.84 304.80 77.36L304.80 77.36L325.16 77.36Q325.16 71.63 322.58 68.55ZM316.65 100.81L316.65 100.81Q308.25 100.81 303.42 95.46Q298.58 90.12 298.58 80.84L298.58 80.84Q298.58 71.88 303.26 66.30Q307.93 60.73 315.56 60.63L315.56 60.63Q322.73 60.63 326.94 65.53Q331.14 70.43 331.14 78.63L331.14 78.63Q331.14 79.05 331.12 80.17Q331.10 81.30 331.10 81.79L331.10 81.79L304.63 81.79Q304.73 88.36 308.02 92.04Q311.31 95.71 316.86 95.71L316.86 95.71Q322.98 95.71 329.13 92.48L329.13 92.48L330.05 97.22Q324.18 100.81 316.65 100.81ZM354.27 94.97L354.27 94.97Q357.26 94.97 359.51 93.92Q361.76 92.86 363.02 91Q364.29 89.14 364.90 86.85Q365.52 84.57 365.52 81.86L365.52 81.86L365.52 79.01Q365.52 76.20 364.89 73.83Q364.25 71.45 362.94 69.57Q361.62 67.69 359.42 66.64Q357.22 65.58 354.30 65.58L354.30 65.58Q351.88 65.58 349.89 66.50Q347.91 67.41 346.62 68.90Q345.34 70.40 344.44 72.38Q343.55 74.37 343.16 76.41Q342.77 78.45 342.77 80.52L342.77 80.52Q342.77 82.56 343.20 84.57Q343.62 86.57 344.53 88.47Q345.45 90.37 346.75 91.79Q348.05 93.21 350.00 94.09Q351.95 94.97 354.27 94.97ZM351.74 117.65L345.23 117.65L344.71 112.34L351.88 112.34Q354.87 112.34 357.08 111.92Q359.30 111.50 360.77 110.53Q362.25 109.56 363.16 108.38Q364.08 107.21 364.55 105.33Q365.03 103.45 365.19 101.60Q365.34 99.75 365.34 97.08L365.34 97.08L365.34 93.67Q363.23 96.70 360.46 98.33Q357.68 99.96 353.39 99.96L353.39 99.96Q350.09 99.96 347.29 98.82Q344.50 97.68 342.58 95.78Q340.66 93.88 339.31 91.39Q337.96 88.89 337.34 86.22Q336.73 83.55 336.73 80.84L336.73 80.84Q336.73 76.62 337.76 73.04Q338.80 69.45 340.84 66.64Q342.88 63.82 346.20 62.22Q349.52 60.63 353.81 60.63L353.81 60.63Q357.61 60.63 360.44 62.08Q363.27 63.54 365.52 66.57L365.52 66.57L365.52 61.43L371.25 61.43L371.25 97.22Q371.25 99.68 371.13 101.53Q371.00 103.38 370.53 105.63Q370.05 107.88 369.25 109.49Q368.44 111.11 366.98 112.74Q365.52 114.38 363.50 115.38Q361.48 116.38 358.49 117.02Q355.50 117.65 351.74 117.65L351.74 117.65ZM379.69 87.13L379.69 87.13L379.69 61.43L385.59 61.43L385.59 87.20Q385.59 89.73 386.31 91.49Q387.04 93.25 388.39 94.22Q389.74 95.18 391.45 95.61Q393.15 96.03 395.37 96.03L395.37 96.03Q399.94 96.03 402.49 94.02Q405.04 92.02 405.04 87.20L405.04 87.20L405.04 61.43L410.94 61.43L410.94 87.13Q410.94 90.09 410.10 92.44Q409.25 94.80 407.83 96.36Q406.41 97.93 404.40 98.95Q402.40 99.96 400.17 100.42Q397.93 100.88 395.37 100.88L395.37 100.88Q392.84 100.88 390.59 100.42Q388.34 99.96 386.31 98.93Q384.29 97.89 382.83 96.33Q381.38 94.76 380.53 92.41Q379.69 90.05 379.69 87.13ZM430.07 100.70L430.07 100.70Q424.44 100.70 422.10 97.68Q419.77 94.66 419.77 87.17L419.77 87.17L419.77 46.46L425.60 46.11L425.60 84.85Q425.60 87.24 425.65 88.68Q425.71 90.12 425.92 91.51Q426.13 92.90 426.48 93.60Q426.83 94.30 427.50 94.88Q428.17 95.46 429.10 95.66Q430.03 95.85 431.40 95.85L431.40 95.85Q432.53 95.85 435.83 95.43L435.83 95.43L436.15 100.11Q432.53 100.70 430.07 100.70ZM450.84 96.06L450.84 96.06Q455.03 96.06 458.21 93.76Q461.39 91.46 462.30 87.55L462.30 87.55L462.30 81.05Q462.13 81.05 460.18 81.23Q458.23 81.40 457.63 81.44L457.63 81.44Q450 82.11 446.99 83.93Q443.99 85.76 443.99 89.80L443.99 89.80Q443.99 92.90 445.82 94.48Q447.64 96.06 450.84 96.06ZM468.18 100L463.61 100Q463.08 97.75 462.59 95.15L462.59 95.15Q459.39 98.35 456.57 99.58Q453.76 100.81 449.96 100.81L449.96 100.81Q444.55 100.81 441.26 97.98Q437.98 95.15 437.98 89.84L437.98 89.84Q437.98 83.93 442.46 81.09Q446.94 78.24 455.38 77.54L455.38 77.54Q456.54 77.43 458.88 77.24Q461.21 77.04 462.38 76.94L462.38 76.94L462.38 73.53Q462.38 69.45 460.48 67.48Q458.58 65.51 454.50 65.51L454.50 65.51Q448.80 65.51 443.00 68.32L443.00 68.32Q442.83 67.90 442.09 65.88Q441.35 63.86 441.32 63.79L441.32 63.79Q443.88 62.35 447.42 61.49Q450.95 60.63 454.61 60.63L454.61 60.63Q461.81 60.63 464.99 63.77Q468.18 66.92 468.18 74.48L468.18 74.48L468.18 100ZM495.60 61.08L495.60 61.08Q497.18 61.08 498.48 61.29L498.48 61.29L498.27 66.71Q496.65 66.43 495.46 66.43L495.46 66.43Q490.54 66.43 487.46 69.85Q484.38 73.28 484.38 78.34L484.38 78.34L484.38 100L478.51 100Q478.48 64.49 478.48 61.43L478.48 61.43L483.36 61.43L483.93 68.36Q485.93 65.09 489.02 63.09Q492.12 61.08 495.60 61.08Z"/></svg>