<svg xmlns="http://www.w3.org/2000/svg" viewBox="3.48046875 46.52734375 433.0546875 70.76953125"><path d="M17.30 88.08Q21.13 92.97 28.62 92.97Q36.11 92.97 39.92 88.10Q43.73 83.23 43.73 74.34L43.73 74.34Q43.73 65.34 39.92 60.38Q36.11 55.42 28.65 55.42L28.65 55.42Q21.16 55.42 17.31 60.40Q13.46 65.37 13.46 74.34L13.46 74.34Q13.46 83.20 17.30 88.08ZM28.58 100.74L28.58 100.74Q16.95 100.74 10.21 93.69Q3.48 86.64 3.48 74.23L3.48 74.23Q3.48 61.75 10.23 54.75Q16.98 47.76 28.62 47.76Q40.25 47.76 46.97 54.77Q53.68 61.79 53.68 74.27L53.68 74.27Q53.68 86.61 46.93 93.67Q40.18 100.74 28.58 100.74ZM68.31 100L57.90 100L71.65 80.21L58.57 61.36L69.01 61.36L77.59 74.51L86.41 61.36L96.68 61.36L83.50 80.17L97.14 100L86.59 100L77.59 85.97L68.31 100ZM104.59 116.28L104.59 116.28Q102.34 116.28 99.81 116.00L99.81 116.00L99.35 108.86Q100.97 109.04 103.46 109.04L103.46 109.04Q106.66 109.04 108.60 107.77Q110.53 106.50 111.80 103.27L111.80 103.27Q111.94 102.92 113.20 99.30L113.20 99.30L97.66 61.36L107.51 61.36L117.67 89.38Q118.79 85.20 122.71 73.84Q126.63 62.49 127.02 61.36L127.02 61.36L136.86 61.36Q120.80 103.83 120.66 104.18L120.66 104.18Q118.16 110.69 114.36 113.48Q110.57 116.28 104.59 116.28ZM154.83 117.30L149.52 117.30L148.99 109.84L153.67 109.84Q161.79 109.84 165.02 107.68Q168.26 105.52 168.26 99.75L168.26 99.75Q168.26 97.40 168.05 94.66L168.05 94.66Q167.13 95.92 166.31 96.75Q165.48 97.57 164.23 98.38Q162.98 99.19 161.24 99.60Q159.50 100 157.29 100L157.29 100Q149.63 100 144.69 94.48Q139.75 88.96 139.75 80.24L139.75 80.24Q139.75 75.60 141.12 71.79Q142.49 67.97 144.84 65.51Q147.20 63.05 150.28 61.73Q153.35 60.41 156.83 60.41L156.83 60.41Q164.60 60.41 168.40 66.07L168.40 66.07L169.03 61.36L177.26 61.36L177.26 97.26Q177.26 100.14 176.98 102.44Q176.70 104.75 175.99 106.87Q175.29 109 174.15 110.58Q173.00 112.16 171.28 113.46Q169.56 114.77 167.22 115.59Q164.88 116.42 161.79 116.86Q158.70 117.30 154.83 117.30L154.83 117.30ZM158.77 93.57L158.77 93.57Q168.29 93.57 168.40 80.80L168.40 80.80L168.40 79.47Q168.33 73.74 166.01 70.61Q163.69 67.48 159.22 67.45L159.22 67.45Q154.16 67.45 151.56 70.91Q148.96 74.37 148.96 80.24L148.96 80.24Q148.96 85.90 151.58 89.73Q154.20 93.57 158.77 93.57ZM204.19 100.74L204.19 100.74Q194.87 100.74 189.69 95.38Q184.50 90.02 184.50 80.56L184.50 80.56Q184.50 71.35 189.39 65.90Q194.27 60.45 202.71 60.41L202.71 60.41Q210.69 60.41 215.10 65.41Q219.52 70.40 219.52 78.66L219.52 78.66Q219.52 79.26 219.50 80.59Q219.48 81.93 219.48 82.56L219.48 82.56L193.78 82.56Q193.92 87.98 196.75 90.95Q199.58 93.92 204.54 93.92L204.54 93.92Q210.87 93.92 216.70 90.61L216.70 90.61L218.00 97.15Q212.20 100.74 204.19 100.74ZM193.96 76.76L193.96 76.76L210.83 76.76Q210.83 72.05 208.69 69.52Q206.54 66.99 202.75 66.99L202.75 66.99Q199.20 66.99 196.75 69.45Q194.31 71.91 193.96 76.76ZM236.21 100L227.00 100L227.00 61.36L234.42 61.36L235.44 66.25Q241.35 60.41 248.55 60.41L248.55 60.41Q255.30 60.41 258.66 64.30Q262.02 68.18 262.02 75.57L262.02 75.57L262.02 100L252.77 100L252.77 76.69Q252.74 72.02 251.26 69.70Q249.79 67.38 245.95 67.38L245.95 67.38Q242.96 67.38 240.49 68.90Q238.01 70.43 236.88 72.75L236.88 72.75Q236.21 75.50 236.21 81.19L236.21 81.19L236.21 100ZM310.82 100.74L310.82 100.74Q306.88 100.74 303.66 99.00Q300.45 97.26 299.00 95.04L299.00 95.04L298.09 99.96L290.11 99.96L290.11 47.13L299.32 46.53L299.32 58.48Q299.32 61.96 299.11 66.39L299.11 66.39Q303.68 60.41 311.03 60.41L311.03 60.41Q318.41 60.41 322.61 65.90Q326.81 71.38 326.81 80.24L326.81 80.24Q326.81 89.45 322.47 95.10Q318.13 100.74 310.82 100.74ZM308.60 93.74L308.60 93.74Q312.71 93.74 315.18 90.26Q317.64 86.78 317.64 80.38L317.64 80.38Q317.64 73.95 315.23 70.64Q312.82 67.34 308.71 67.34L308.71 67.34Q299.36 67.34 299.25 79.96L299.25 79.96Q299.25 87.06 301.61 90.40Q303.96 93.74 308.60 93.74ZM351.18 93.74L351.18 93.74Q355.85 93.74 358.21 90.33Q360.56 86.92 360.56 80.56L360.56 80.56Q360.56 74.13 358.21 70.75Q355.85 67.38 351.11 67.38L351.11 67.38Q346.43 67.38 344.06 70.77Q341.68 74.16 341.68 80.59L341.68 80.59Q341.68 86.92 344.07 90.33Q346.46 93.74 351.18 93.74ZM350.93 100.74L350.93 100.74Q342.35 100.74 337.43 95.18Q332.51 89.63 332.51 80.56L332.51 80.56Q332.51 71.21 337.43 65.81Q342.35 60.41 351.32 60.41L351.32 60.41Q359.96 60.41 364.87 65.92Q369.77 71.42 369.77 80.56L369.77 80.56Q369.77 89.80 364.82 95.27Q359.86 100.74 350.93 100.74ZM390.83 100.53L390.83 100.53Q386.86 100.53 384.24 99.60Q381.62 98.66 380.11 96.63Q378.60 94.59 378 91.77Q377.40 88.96 377.40 84.78L377.40 84.78L377.40 47.13L386.61 46.53L386.61 84.60Q386.61 89.80 387.84 91.65Q389.07 93.50 392.63 93.50L392.63 93.50Q394.38 93.50 397.09 93.11L397.09 93.11L397.34 99.68Q397.30 99.68 396.47 99.86Q395.65 100.04 394.89 100.16Q394.14 100.28 392.98 100.40Q391.82 100.53 390.83 100.53ZM416.07 100.74L416.07 100.74Q408.52 100.74 404.19 95.18Q399.87 89.63 399.87 80.35L399.87 80.35Q399.87 71.35 404.17 65.88Q408.48 60.41 416.04 60.41L416.04 60.41Q424.27 60.41 427.68 66.25L427.68 66.25Q427.32 62.80 427.32 59.61L427.32 59.61L427.32 47.13L436.54 46.53L436.54 100L428.55 100L427.54 94.73Q426.94 95.68 426.43 96.36Q425.92 97.05 424.93 97.94Q423.95 98.84 422.81 99.38Q421.66 99.93 419.92 100.33Q418.18 100.74 416.07 100.74ZM418.25 93.74L418.25 93.74Q427.54 93.74 427.68 81.12L427.68 81.12Q427.68 73.98 425.29 70.71Q422.89 67.45 418.15 67.45L418.15 67.45Q414 67.45 411.52 70.77Q409.04 74.09 409.04 80.56L409.04 80.56Q409.04 86.99 411.52 90.37Q414 93.74 418.25 93.74Z"/></svg>