<svg xmlns="http://www.w3.org/2000/svg" viewBox="3.48046875 46.52734375 433.0546875 70.76953125"><path d="M17 88Q21 93 29 93Q36 93 40 88Q44 83 44 74L44 74Q44 65 40 60Q36 55 29 55L29 55Q21 55 17 60Q13 65 13 74L13 74Q13 83 17 88ZM29 101L29 101Q17 101 10 94Q3 87 3 74L3 74Q3 62 10 55Q17 48 29 48Q40 48 47 55Q54 62 54 74L54 74Q54 87 47 94Q40 101 29 101ZM68 100L58 100L72 80L59 61L69 61L78 75L86 61L97 61L83 80L97 100L87 100L78 86L68 100ZM105 116L105 116Q102 116 100 116L100 116L99 109Q101 109 103 109L103 109Q107 109 109 108Q111 107 112 103L112 103Q112 103 113 99L113 99L98 61L108 61L118 89Q119 85 123 74Q127 62 127 61L127 61L137 61Q121 104 121 104L121 104Q118 111 114 113Q111 116 105 116ZM155 117L150 117L149 110L154 110Q162 110 165 108Q168 106 168 100L168 100Q168 97 168 95L168 95Q167 96 166 97Q165 98 164 98Q163 99 161 100Q160 100 157 100L157 100Q150 100 145 94Q140 89 140 80L140 80Q140 76 141 72Q142 68 145 66Q147 63 150 62Q153 60 157 60L157 60Q165 60 168 66L168 66L169 61L177 61L177 97Q177 100 177 102Q177 105 176 107Q175 109 174 111Q173 112 171 113Q170 115 167 116Q165 116 162 117Q159 117 155 117L155 117ZM159 94L159 94Q168 94 168 81L168 81L168 79Q168 74 166 71Q164 67 159 67L159 67Q154 67 152 71Q149 74 149 80L149 80Q149 86 152 90Q154 94 159 94ZM204 101L204 101Q195 101 190 95Q185 90 185 81L185 81Q185 71 189 66Q194 60 203 60L203 60Q211 60 215 65Q220 70 220 79L220 79Q220 79 219 81Q219 82 219 83L219 83L194 83Q194 88 197 91Q200 94 205 94L205 94Q211 94 217 91L217 91L218 97Q212 101 204 101ZM194 77L194 77L211 77Q211 72 209 70Q207 67 203 67L203 67Q199 67 197 69Q194 72 194 77ZM236 100L227 100L227 61L234 61L235 66Q241 60 249 60L249 60Q255 60 259 64Q262 68 262 76L262 76L262 100L253 100L253 77Q253 72 251 70Q250 67 246 67L246 67Q243 67 240 69Q238 70 237 73L237 73Q236 75 236 81L236 81L236 100ZM311 101L311 101Q307 101 304 99Q300 97 299 95L299 95L298 100L290 100L290 47L299 47L299 58Q299 62 299 66L299 66Q304 60 311 60L311 60Q318 60 323 66Q327 71 327 80L327 80Q327 89 322 95Q318 101 311 101ZM309 94L309 94Q313 94 315 90Q318 87 318 80L318 80Q318 74 315 71Q313 67 309 67L309 67Q299 67 299 80L299 80Q299 87 302 90Q304 94 309 94ZM351 94L351 94Q356 94 358 90Q361 87 361 81L361 81Q361 74 358 71Q356 67 351 67L351 67Q346 67 344 71Q342 74 342 81L342 81Q342 87 344 90Q346 94 351 94ZM351 101L351 101Q342 101 337 95Q333 90 333 81L333 81Q333 71 337 66Q342 60 351 60L351 60Q360 60 365 66Q370 71 370 81L370 81Q370 90 365 95Q360 101 351 101ZM391 101L391 101Q387 101 384 100Q382 99 380 97Q379 95 378 92Q377 89 377 85L377 85L377 47L387 47L387 85Q387 90 388 92Q389 93 393 93L393 93Q394 93 397 93L397 93L397 100Q397 100 396 100Q396 100 395 100Q394 100 393 100Q392 101 391 101ZM416 101L416 101Q409 101 404 95Q400 90 400 80L400 80Q400 71 404 66Q408 60 416 60L416 60Q424 60 428 66L428 66Q427 63 427 60L427 60L427 47L437 47L437 100L429 100L428 95Q427 96 426 96Q426 97 425 98Q424 99 423 99Q422 100 420 100Q418 101 416 101ZM418 94L418 94Q428 94 428 81L428 81Q428 74 425 71Q423 67 418 67L418 67Q414 67 412 71Q409 74 409 81L409 81Q409 87 412 90Q414 94 418 94Z"/></svg>