<svg xmlns="http://www.w3.org/2000/svg" viewBox="0.546875 -7.3486328125 33.76953125 9.7998046875"><path d="M1.45-3.61L1.45-3.61Q1.45-2.22 2.08-1.42Q2.72-0.63 3.97-0.63Q5.22-0.63 5.86-1.42Q6.49-2.21 6.49-3.61L6.49-3.61Q6.49-5.03 5.85-5.82Q5.21-6.61 3.98-6.61Q2.74-6.61 2.09-5.82Q1.45-5.03 1.45-3.61ZM7.39-3.61L7.39-3.61Q7.39-2.78 7.17-2.10Q6.94-1.42 6.51-0.93Q6.08-0.43 5.43-0.16Q4.79 0.11 3.97 0.11L3.97 0.11Q2.88 0.11 2.10-0.36Q1.32-0.83 0.94-1.66Q0.55-2.49 0.55-3.61L0.55-3.61Q0.55-5.35 1.45-6.35Q2.35-7.35 3.98-7.35L3.98-7.35Q5.58-7.35 6.49-6.34Q7.39-5.33 7.39-3.61ZM8.09 0L10.05-2.72L8.16-5.36L9.10-5.36L10.53-3.32L11.96-5.36L12.90-5.36L11.00-2.71L12.94 0L12.04 0L10.53-2.15L9.02 0L8.09 0ZM15.23-0.04L13.12-5.36L13.98-5.36L15.67-0.90L17.17-5.36L18.04-5.36Q15.87 0.61 15.80 0.80L15.80 0.80Q15.46 1.64 14.98 2.03Q14.50 2.43 13.72 2.43L13.72 2.43Q13.49 2.43 13.23 2.39L13.23 2.39L13.18 1.69Q13.45 1.71 13.59 1.71L13.59 1.71Q14.14 1.71 14.43 1.51Q14.71 1.31 14.94 0.75L14.94 0.75Q15.14 0.24 15.23-0.04L15.23-0.04ZM20.77-0.70L20.77-0.70Q21.18-0.70 21.49-0.84Q21.81-0.99 21.98-1.25Q22.16-1.51 22.24-1.83Q22.33-2.14 22.33-2.52L22.33-2.52L22.33-2.92Q22.33-3.31 22.24-3.64Q22.15-3.96 21.97-4.23Q21.79-4.49 21.48-4.63Q21.18-4.78 20.77-4.78L20.77-4.78Q20.43-4.78 20.16-4.65Q19.88-4.53 19.70-4.32Q19.53-4.11 19.40-3.84Q19.28-3.56 19.22-3.28Q19.17-2.99 19.17-2.71L19.17-2.71Q19.17-2.42 19.23-2.14Q19.29-1.87 19.41-1.60Q19.54-1.34 19.72-1.14Q19.90-0.94 20.17-0.82Q20.44-0.70 20.77-0.70ZM20.42 2.45L19.51 2.45L19.44 1.71L20.43 1.71Q20.85 1.71 21.16 1.66Q21.46 1.60 21.67 1.46Q21.88 1.33 22.00 1.16Q22.13 1.00 22.19 0.74Q22.26 0.48 22.28 0.22Q22.30-0.03 22.30-0.41L22.30-0.41L22.30-0.88Q22.01-0.46 21.63-0.23Q21.24-0.00 20.64-0.00L20.64-0.00Q20.19-0.00 19.80-0.16Q19.41-0.32 19.14-0.59Q18.88-0.85 18.69-1.20Q18.50-1.54 18.42-1.91Q18.33-2.29 18.33-2.66L18.33-2.66Q18.33-3.25 18.47-3.75Q18.62-4.24 18.90-4.63Q19.18-5.02 19.65-5.25Q20.11-5.47 20.70-5.47L20.70-5.47Q21.23-5.47 21.62-5.27Q22.02-5.06 22.33-4.64L22.33-4.64L22.33-5.36L23.13-5.36L23.13-0.39Q23.13-0.04 23.11 0.21Q23.09 0.47 23.02 0.78Q22.96 1.09 22.85 1.32Q22.73 1.54 22.53 1.77Q22.33 2.00 22.05 2.14Q21.77 2.28 21.35 2.36Q20.94 2.45 20.42 2.45L20.42 2.45ZM27.57-4.37Q27.21-4.79 26.59-4.79Q25.96-4.79 25.57-4.35Q25.17-3.91 25.10-3.14L25.10-3.14L27.93-3.14Q27.93-3.94 27.57-4.37ZM26.75 0.11L26.75 0.11Q25.58 0.11 24.91-0.63Q24.24-1.37 24.24-2.66L24.24-2.66Q24.24-3.91 24.89-4.68Q25.54-5.45 26.60-5.47L26.60-5.47Q27.59-5.47 28.18-4.79Q28.76-4.11 28.76-2.97L28.76-2.97Q28.76-2.91 28.76-2.75Q28.75-2.60 28.75-2.53L28.75-2.53L25.08-2.53Q25.09-1.62 25.55-1.11Q26.01-0.60 26.78-0.60L26.78-0.60Q27.63-0.60 28.48-1.04L28.48-1.04L28.61-0.39Q27.79 0.11 26.75 0.11ZM30.72 0L29.89 0L29.89-5.36L30.58-5.36L30.68-4.59Q31.00-4.99 31.47-5.23Q31.95-5.47 32.50-5.47L32.50-5.47Q33.43-5.47 33.87-4.95Q34.32-4.43 34.32-3.35L34.32-3.35L34.32 0L33.50 0Q33.50-3.22 33.50-3.45L33.50-3.45Q33.48-4.14 33.22-4.45Q32.96-4.77 32.36-4.77L32.36-4.77Q31.73-4.77 31.31-4.47Q30.89-4.17 30.77-3.68L30.77-3.68Q30.72-3.35 30.72-2.93L30.72-2.93L30.72 0Z"/></svg>