<svg xmlns="http://www.w3.org/2000/svg" viewBox="3.3120000000000003 32.31999999999999 477.3600000000001 100.44"><path d="M59 57Q59 63 56 68Q53 73 47 77Q41 80 32 80L32 80L29 98Q28 108 20 108L20 108Q15 108 11 105Q8 103 6 97Q3 92 3 84L3 84Q3 70 8 59Q13 49 21 44Q29 39 38 39L38 39Q45 39 50 41Q54 44 57 48Q59 52 59 57L59 57ZM34 73Q49 71 49 58L49 58Q49 53 45 50Q42 47 36 47L36 47Q28 47 23 52Q17 56 14 65Q11 73 11 84L11 84Q11 88 12 92Q13 95 15 97Q16 99 17 99L17 99Q19 99 20 94L20 94L22 80Q20 80 20 80L20 80Q18 80 17 79Q16 78 16 76L16 76Q16 75 17 74Q18 73 20 73L20 73Q21 73 21 73L21 73Q23 73 24 73L24 73Q24 67 26 58L26 58Q27 56 28 55Q30 53 32 53L32 53Q34 53 35 54Q36 55 36 57L36 57Q36 58 36 59L36 59L34 73ZM64 100Q60 100 57 97Q54 94 54 89L54 89Q54 83 57 78Q60 73 64 69Q69 66 74 66L74 66Q75 66 76 67Q76 68 77 69L77 69Q78 69 80 69L80 69Q83 69 83 71L83 71Q83 73 82 79L82 79Q80 87 80 90L80 90Q80 91 81 92Q82 92 82 92L82 92Q84 92 86 91Q88 89 91 85L91 85Q92 84 93 84L93 84Q94 84 94 85Q95 86 95 87L95 87Q95 90 94 92L94 92Q91 95 87 98Q84 100 81 100L81 100Q79 100 77 99Q75 97 74 94L74 94Q70 100 64 100L64 100ZM67 93Q68 93 70 91Q71 89 72 86L72 86L75 73Q71 73 69 75Q66 77 65 81Q63 85 63 89L63 89Q63 91 64 92Q65 93 67 93L67 93ZM103 100Q96 100 92 96Q88 92 88 86L88 86Q88 80 90 76Q93 71 96 69Q100 66 104 66L104 66Q108 66 110 69Q112 71 112 75L112 75Q112 78 111 80Q110 82 107 82L107 82Q106 82 105 81Q104 81 104 80L104 80Q104 79 105 78Q105 78 105 77L105 77Q105 76 105 75L105 75Q105 75 105 74Q104 74 103 74L103 74Q102 74 100 75Q99 76 98 79Q97 81 97 85L97 85Q97 93 104 93L104 93Q107 93 111 91Q114 89 118 85L118 85Q118 84 119 84L119 84Q120 84 121 85Q121 86 121 87L121 87Q121 90 120 92L120 92Q117 96 112 98Q107 100 103 100L103 100ZM125 62Q122 62 121 60Q119 59 119 56L119 56Q119 54 121 52Q123 50 126 50L126 50Q129 50 130 52Q132 53 132 55L132 55Q132 58 130 60Q128 62 125 62L125 62ZM124 100Q120 100 118 97Q116 94 116 88L116 88Q116 85 116 80Q117 75 119 70L119 70Q119 68 120 67Q121 66 124 66L124 66Q127 66 127 69L127 69Q127 71 126 77L126 77Q124 85 124 88L124 88Q124 90 125 91Q125 92 127 92L127 92Q128 92 130 91Q132 89 135 85L135 85Q136 84 137 84L137 84Q138 84 139 85Q139 86 139 87L139 87Q139 90 138 92L138 92Q131 100 124 100L124 100ZM183 84Q184 84 184 85Q185 86 185 87L185 87Q185 90 183 92L183 92Q180 95 177 98Q173 100 170 100L170 100Q165 100 163 97Q161 94 161 88L161 88Q161 85 161 81Q162 77 163 73L163 73Q156 73 146 74L146 74Q144 84 144 93L144 93Q144 99 145 107Q146 114 147 114L147 114Q148 114 149 112Q150 109 150 105Q151 100 151 95L151 95Q151 89 150 82L150 82Q150 80 151 79Q152 78 153 78L153 78Q155 78 155 79Q156 80 156 82L156 82Q157 87 157 94L157 94Q157 106 154 114Q151 123 145 123L145 123Q140 123 138 115Q135 108 135 93L135 93Q135 85 137 75L137 75Q136 75 136 75L136 75Q133 75 133 74Q132 73 132 71L132 71Q132 70 133 69Q134 67 136 67L136 67Q137 67 138 67L138 67Q140 57 143 50Q146 42 150 37Q154 32 158 32L158 32Q161 32 163 35Q165 38 165 42L165 42Q165 56 154 66L154 66Q162 66 168 66L168 66Q170 66 171 67Q172 67 172 70L172 70Q172 71 172 74Q171 77 171 80L171 80Q169 86 169 88L169 88Q169 90 170 91Q171 92 172 92L172 92Q173 92 175 91Q177 89 181 85L181 85Q182 84 183 84L183 84ZM157 39Q155 39 152 47Q150 54 148 65L148 65Q151 62 154 59Q156 55 157 51Q158 47 158 43L158 43Q158 39 157 39L157 39ZM171 62Q168 62 166 60Q165 59 165 56L165 56Q165 54 167 52Q169 50 172 50L172 50Q174 50 176 52Q178 53 178 55L178 55Q178 58 176 60Q174 62 171 62L171 62ZM193 100Q186 100 182 96Q178 92 178 86L178 86Q178 80 180 76Q182 71 186 69Q190 66 194 66L194 66Q198 66 200 69Q202 71 202 75L202 75Q202 78 201 80Q199 82 197 82L197 82Q196 82 195 81Q194 81 194 80L194 80Q194 79 194 78Q195 78 195 77L195 77Q195 76 195 75L195 75Q195 75 195 74Q194 74 193 74L193 74Q192 74 190 75Q189 76 188 79Q187 81 187 85L187 85Q187 93 194 93L194 93Q197 93 201 91Q204 89 207 85L207 85Q208 84 209 84L209 84Q210 84 211 85Q211 86 211 87L211 87Q211 90 210 92L210 92Q206 96 202 98Q197 100 193 100L193 100ZM242 78Q243 78 244 79Q244 80 244 81L244 81Q244 85 242 85L242 85Q238 87 232 87L232 87Q231 93 227 97Q223 100 218 100L218 100Q214 100 211 98Q208 96 206 93Q204 89 204 85L204 85Q204 80 206 75Q209 71 212 69Q216 66 220 66L220 66Q226 66 229 70Q232 74 233 79L233 79Q236 79 241 78L241 78Q242 78 242 78L242 78ZM219 93Q221 93 223 91Q224 89 225 85L225 85Q223 84 221 81Q220 79 220 76L220 76Q220 75 220 74L220 74L220 74Q217 74 215 77Q213 80 213 85L213 85Q213 89 215 91Q216 93 219 93L219 93ZM262 100Q259 100 258 97Q257 95 257 88L257 88Q257 79 260 70L260 70Q260 68 262 67Q263 66 266 66L266 66Q267 66 268 67Q269 67 269 68L269 68Q269 69 268 73L268 73Q267 76 266 78Q266 81 266 84L266 84Q268 78 271 74Q274 70 277 68Q280 66 282 66L282 66Q287 66 287 71L287 71Q287 72 286 76L286 76Q285 79 285 79L285 79Q285 82 287 82L287 82Q289 82 292 79L292 79Q293 78 294 78L294 78Q295 78 296 79Q296 79 296 81L296 81Q296 83 295 85L295 85Q293 87 290 88Q288 90 285 90L285 90Q281 90 279 88Q277 86 277 83L277 83Q277 82 277 81L277 81Q277 79 277 79L277 79Q277 77 276 77L276 77Q275 77 273 80Q272 82 270 86Q268 90 267 95L267 95Q266 98 265 99Q264 100 262 100L262 100ZM322 84Q323 84 323 85Q324 86 324 87L324 87Q324 90 322 92L322 92Q320 95 315 98Q310 100 305 100L305 100Q297 100 293 96Q289 92 289 85L289 85Q289 80 291 76Q293 71 297 69Q300 66 305 66L305 66Q309 66 312 69Q314 71 314 76L314 76Q314 81 311 84Q307 88 299 90L299 90Q300 93 305 93L305 93Q309 93 313 91Q317 89 320 85L320 85Q321 84 322 84L322 84ZM304 74Q301 74 299 77Q297 80 297 84L297 84L297 84Q302 83 304 81Q307 79 307 77L307 77Q307 75 306 74Q305 74 304 74L304 74ZM355 84Q355 84 356 85Q357 86 357 87L357 87Q357 89 356 90Q356 91 354 92L354 92Q348 96 345 98L345 98L341 101Q338 116 334 124Q329 133 322 133L322 133Q319 133 316 130Q314 128 314 125L314 125Q314 119 318 114Q322 108 333 99L333 99L334 96Q332 98 330 99Q328 100 327 100L327 100Q322 100 319 97Q317 94 317 89L317 89Q317 83 319 78Q322 73 326 69Q331 66 336 66L336 66Q337 66 338 67Q339 68 339 69L339 69Q340 69 342 69L342 69Q344 69 345 69Q345 70 345 71L345 71Q345 72 345 73L345 73Q345 75 344 84L344 84Q343 86 343 88Q343 90 342 92L342 92Q348 88 353 85L353 85Q354 84 355 84L355 84ZM329 93Q331 93 332 91Q334 89 334 85L334 85L337 73Q334 73 331 75Q329 77 327 81Q326 85 326 89L326 89Q326 91 327 92Q328 93 329 93L329 93ZM323 126Q325 126 327 121Q329 117 332 108L332 108Q326 112 324 116Q321 120 321 123L321 123Q321 124 322 125Q322 126 323 126L323 126ZM359 100Q355 100 353 97Q351 94 351 90L351 90Q351 85 352 80Q353 76 354 70L354 70Q355 68 356 67Q358 66 361 66L361 66Q362 66 363 67Q363 67 363 68L363 68Q363 69 363 72L363 72Q362 75 361 77L361 77Q360 85 360 87L360 87Q360 89 360 89Q361 90 362 90L362 90Q363 90 364 88Q366 86 368 81Q370 77 371 70L371 70Q372 68 373 67Q374 66 377 66L377 66Q378 66 379 67Q380 67 380 68L380 68Q380 70 378 78L378 78Q376 87 376 90L376 90Q376 91 376 92Q377 92 378 92L378 92Q379 92 381 91Q383 89 386 85L386 85Q387 84 388 84L388 84Q389 84 390 85Q390 86 390 87L390 87Q390 90 389 92L389 92Q386 95 382 98Q379 100 374 100L374 100Q371 100 369 98Q368 95 368 90L368 90Q366 95 364 98Q362 100 359 100L359 100ZM412 84Q413 84 413 85Q414 86 414 87L414 87Q414 90 413 92L413 92Q409 95 406 98Q402 100 398 100L398 100Q391 100 388 95Q385 89 385 80L385 80Q385 71 387 60Q390 48 394 40Q399 32 405 32L405 32Q408 32 410 36Q412 39 412 45L412 45Q412 53 407 65Q403 76 394 87L394 87Q395 90 396 91Q397 92 399 92L399 92Q402 92 404 91Q407 89 410 85L410 85Q411 84 412 84L412 84ZM403 39Q401 39 399 45Q397 51 396 60Q394 69 394 77L394 77Q399 69 402 60Q405 52 405 45L405 45Q405 39 403 39L403 39ZM416 100Q412 100 409 97Q406 94 406 89L406 89Q406 83 409 78Q412 73 416 69Q421 66 426 66L426 66Q427 66 428 67Q428 68 429 69L429 69Q430 69 432 69L432 69Q435 69 435 71L435 71Q435 73 434 79L434 79Q433 87 433 90L433 90Q433 91 433 92Q434 92 435 92L435 92Q436 92 438 91Q440 89 443 85L443 85Q444 84 445 84L445 84Q446 84 447 85Q447 86 447 87L447 87Q447 90 446 92L446 92Q443 95 439 98Q436 100 433 100L433 100Q431 100 429 99Q427 97 426 94L426 94Q422 100 416 100L416 100ZM419 93Q420 93 422 91Q423 89 424 86L424 86L427 73Q424 73 421 75Q418 77 417 81Q415 85 415 89L415 89Q415 91 416 92Q417 93 419 93L419 93ZM446 100Q444 100 442 97Q441 95 441 88L441 88Q441 79 444 70L444 70Q445 68 446 67Q448 66 450 66L450 66Q452 66 452 67Q453 67 453 68L453 68Q453 69 452 73L452 73Q451 76 451 78Q450 81 450 84L450 84Q452 78 455 74Q458 70 461 68Q464 66 466 66L466 66Q471 66 471 71L471 71Q471 72 470 76L470 76Q470 79 470 79L470 79Q470 82 472 82L472 82Q474 82 477 79L477 79Q478 78 479 78L479 78Q480 78 480 79Q481 79 481 81L481 81Q481 83 479 85L479 85Q477 87 475 88Q472 90 469 90L469 90Q465 90 463 88Q461 86 461 83L461 83Q461 82 461 81L461 81Q461 79 461 79L461 79Q461 77 461 77L461 77Q460 77 458 80Q456 82 454 86Q453 90 451 95L451 95Q451 98 450 99Q449 100 446 100L446 100Z"/></svg>