<svg xmlns="http://www.w3.org/2000/svg" viewBox="2.53125 47.0546875 984.7265625 55.50468749999999"><path d="M3.16 80.17L3.16 80.17Q3.23 79.89 3.48 79.93Q3.73 79.96 3.94 79.89L3.94 79.89Q3.38 79.33 3.23 78.38Q3.09 77.43 2.53 76.80L2.53 76.80Q2.67 76.45 2.78 76.09Q2.88 75.74 3.38 75.81L3.38 75.81Q3.16 74.27 3.45 72.93Q3.73 71.59 4.32 70.40Q4.92 69.20 5.73 68.04Q6.54 66.88 7.31 65.69L7.31 65.69Q7.95 65.55 8.09 65.79Q8.23 66.04 8.58 65.69L8.58 65.69Q9.70 64.91 10.13 63.96Q10.55 63.02 10.55 61.89L10.55 61.89Q11.18 60.06 11.99 58.27Q12.80 56.48 13.85 54.93Q14.91 53.38 16.10 52.22Q17.30 51.06 18.70 50.43L18.70 50.43Q19.69 49.59 21.20 48.88Q22.71 48.18 24.43 47.79Q26.16 47.41 27.98 47.37Q29.81 47.34 31.36 47.76L31.36 47.76Q31.71 47.90 31.78 47.58Q31.85 47.27 32.13 47.27L32.13 47.27Q35.65 47.69 38.43 48.67Q41.20 49.66 43.17 51.41L43.17 51.41Q44.51 53.52 45.70 55.95Q46.90 58.38 47.57 61.01Q48.23 63.65 48.16 66.46Q48.09 69.27 46.97 72.09L46.97 72.09Q44.51 75.18 40.99 77.04Q37.48 78.91 33.43 80.14Q29.39 81.37 25.07 82.14Q20.74 82.91 16.66 83.83L16.66 83.83Q16.73 85.73 16.66 87.87Q16.59 90.02 16.21 92.16Q15.82 94.30 15.08 96.34Q14.34 98.38 13.08 100.14L13.08 100.14Q11.67 100.07 10.16 100.42Q8.65 100.77 7.45 101.13L7.45 101.13Q6.89 100.77 6.36 100.46Q5.84 100.14 5.06 100.07L5.06 100.07Q5.27 99.23 4.68 98.31Q4.08 97.40 3.48 96.52Q2.88 95.64 2.71 94.76Q2.53 93.88 3.52 93.18L3.52 93.18Q2.95 92.69 2.95 91.63L2.95 91.63Q3.23 91.91 3.66 91.91L3.66 91.91Q3.52 90.65 3.97 88.89Q4.43 87.13 4.75 85.41Q5.06 83.69 4.85 82.25Q4.64 80.80 3.16 80.17ZM21.45 63.72L21.45 63.72Q21.16 64.49 20.99 65.09Q20.81 65.69 20.60 66.18Q20.39 66.67 20.14 67.16Q19.90 67.66 19.62 68.29L19.62 68.29Q19.76 68.71 20.18 68.92Q20.60 69.13 20.74 69.55L20.74 69.55Q21.73 69.06 22.71 68.82Q23.70 68.57 24.68 68.43Q25.66 68.29 26.65 68.08Q27.63 67.87 28.69 67.38L28.69 67.38Q29.74 66.88 30.90 66.57Q32.06 66.25 33.19 65.90Q34.31 65.55 35.37 65.09Q36.42 64.63 37.20 63.86L37.20 63.86Q36.21 62.95 34.24 62.24Q32.27 61.54 29.99 61.36Q27.70 61.19 25.42 61.68Q23.13 62.17 21.45 63.72ZM85.29 60.41L85.29 60.41Q85.36 60.91 85.32 61.15Q85.29 61.40 85.25 61.61Q85.22 61.82 85.22 62.07Q85.22 62.31 85.36 62.80L85.36 62.80Q83.88 65.20 81.95 66.07Q80.02 66.95 77.77 67.34Q75.52 67.73 73.16 68.15Q70.80 68.57 68.48 69.98L68.48 69.98Q67.57 69.63 66.83 69.98Q66.09 70.33 64.69 70.19L64.69 70.19Q64.27 70.61 63.63 70.79Q63 70.96 62.37 71.17L62.37 71.17Q62.65 71.80 62.61 72.47Q62.58 73.14 62.79 73.56L62.79 73.56Q65.25 73.77 68.24 73.49Q71.23 73.21 74.11 73.14L74.11 73.14Q74.18 73.49 74.04 73.60Q73.90 73.70 73.97 73.98L73.97 73.98Q74.46 74.34 74.95 74.86Q75.45 75.39 75.94 75.88Q76.43 76.38 76.96 76.69Q77.48 77.01 78.19 76.94L78.19 76.94Q78.47 77.50 78.57 78.17Q78.68 78.84 78.40 79.54L78.40 79.54Q77.27 80.31 76.15 81.12Q75.02 81.93 73.79 82.56Q72.56 83.20 71.19 83.58Q69.82 83.97 68.13 83.90L68.13 83.90Q67.78 83.90 67.61 83.90Q67.43 83.90 67.15 83.69L67.15 83.69Q66.59 84.04 65.57 83.90Q64.55 83.76 63.98 84.11L63.98 84.11Q63.21 83.76 62.12 83.79Q61.03 83.83 60.19 83.55L60.19 83.55Q59.06 85.02 58.15 86.71Q57.23 88.40 56.53 90.30L56.53 90.30Q58.92 90.65 60.50 90.58Q62.09 90.51 63.49 90.33Q64.90 90.16 66.38 89.98Q67.85 89.80 70.10 89.88L70.10 89.88Q71.51 89.10 73.44 88.86Q75.38 88.61 76.99 88.05L76.99 88.05Q77.55 88.26 77.98 88.79Q78.40 89.31 78.79 89.77Q79.17 90.23 79.59 90.58Q80.02 90.93 80.65 90.86L80.65 90.86Q80.93 91.14 81.04 91.53Q81.14 91.91 81.21 92.27Q81.28 92.62 81.46 92.86Q81.63 93.11 82.05 93.04L82.05 93.04Q81 95.36 79.63 96.59Q78.26 97.82 76.50 98.45Q74.74 99.09 72.60 99.44Q70.45 99.79 67.85 100.28L67.85 100.28Q67.22 100.42 66.80 100.25Q66.38 100.07 65.81 100.07L65.81 100.07Q64.20 100.42 61.95 100.70Q59.70 100.98 57.38 100.91Q55.05 100.84 52.95 100.32Q50.84 99.79 49.50 98.45L49.50 98.45Q48.94 97.96 48.76 97.29Q48.59 96.63 47.81 96.27L47.81 96.27Q47.74 95.36 47.53 94.23Q47.32 93.11 47.11 91.88Q46.90 90.65 46.79 89.45Q46.69 88.26 46.90 87.27L46.90 87.27Q47.11 86.22 47.78 85.38Q48.45 84.53 48.23 83.55L48.23 83.55Q48.59 83.48 48.66 83.16Q48.73 82.84 49.22 82.91L49.22 82.91Q49.64 81.65 50.13 80.52Q50.63 79.40 51.15 78.34Q51.68 77.29 52.21 76.20Q52.73 75.11 53.23 73.77L53.23 73.77Q52.24 72.86 51.79 71.77Q51.33 70.68 51.12 69.59Q50.91 68.50 50.77 67.34Q50.63 66.18 50.27 64.98L50.27 64.98Q50.98 63.93 52.00 63.26Q53.02 62.59 54.21 62.17Q55.41 61.75 56.81 61.47Q58.22 61.19 59.77 60.84L59.77 60.84Q62.58 59.92 64.79 59.43Q67.01 58.94 69.15 58.62Q71.30 58.30 73.62 58.02Q75.94 57.74 78.89 57.18L78.89 57.18Q79.52 57.81 80.09 57.81L80.09 57.81Q80.37 57.18 80.75 57.43Q81.14 57.67 81.07 57.04L81.07 57.04Q81.77 58.23 82.86 59.04Q83.95 59.85 85.29 60.41ZM94.22 92.69L94.22 92.69Q93.45 95.50 92.85 96.94Q92.25 98.38 91.05 99.93L91.05 99.93Q90.14 99.79 89.79 100.14Q89.44 100.49 89.02 100.77L89.02 100.77Q88.38 100.91 88.10 100.77Q87.82 100.63 87.61 100.46Q87.40 100.28 87.08 100.11Q86.77 99.93 86.13 99.93L86.13 99.93Q85.99 99.37 85.82 98.88Q85.64 98.38 84.87 98.52L84.87 98.52Q85.01 97.96 84.94 97.57Q84.87 97.19 84.76 96.87Q84.66 96.55 84.59 96.24Q84.52 95.92 84.66 95.43L84.66 95.43Q84.30 95.43 84.09 94.94Q83.88 94.45 83.60 93.95L83.60 93.95Q83.81 92.69 84.02 91.56Q84.23 90.44 84.55 89.45Q84.87 88.47 85.08 87.48Q85.29 86.50 84.87 85.45L84.87 85.45Q85.15 85.66 85.29 85.34Q85.43 85.02 85.50 84.50Q85.57 83.97 85.57 83.44Q85.57 82.91 85.50 82.56L85.50 82.56Q86.20 80.73 86.66 78.80Q87.12 76.87 87.50 74.97Q87.89 73.07 88.31 71.24Q88.73 69.41 89.44 67.87L89.44 67.87Q90.21 67.73 91.16 68.04Q92.11 68.36 92.32 68.85L92.32 68.85Q94.15 67.45 95.55 65.44Q96.96 63.44 98.44 61.54Q99.91 59.64 101.71 58.16Q103.50 56.69 106.24 56.41L106.24 56.41Q107.65 57.46 109.37 58.55Q111.09 59.64 112.22 61.40L112.22 61.40Q112.78 61.68 113.17 62.00Q113.55 62.31 114.12 62.66L114.12 62.66L114.12 63.51Q114.96 64.28 115.49 65.30Q116.02 66.32 116.44 67.48Q116.86 68.64 117.28 69.80Q117.70 70.96 118.27 72.02L118.27 72.02Q118.13 72.37 118.13 72.61Q118.13 72.86 118.23 73.14Q118.34 73.42 118.41 73.70Q118.48 73.98 118.41 74.48L118.41 74.48Q118.20 77.57 116.40 79.47Q114.61 81.37 112.08 82.60Q109.55 83.83 106.66 84.67Q103.78 85.52 101.46 86.50L101.46 86.50Q101.46 86.78 101.71 86.78Q101.95 86.78 101.88 87.13L101.88 87.13Q103.57 88.19 104.55 88.82Q105.54 89.45 106.42 89.88Q107.30 90.30 108.32 90.61Q109.34 90.93 111.16 91.35L111.16 91.35Q112.99 91.77 114.01 92.02Q115.03 92.27 115.88 92.44Q116.72 92.62 117.60 92.72Q118.48 92.83 120.09 92.97L120.09 92.97Q120.73 93.60 121.18 94.48Q121.64 95.36 121.78 96.24Q121.92 97.12 121.85 97.93Q121.78 98.73 121.36 99.23L121.36 99.23Q121.43 99.44 121.68 99.40Q121.92 99.37 122.20 99.44L122.20 99.44Q121.78 99.72 121.50 100.14Q121.22 100.56 120.94 100.98Q120.66 101.41 120.30 101.72Q119.95 102.04 119.32 102.11L119.32 102.11Q117.14 102.95 113.84 102.21Q110.53 101.48 105.47 99.51L105.47 99.51Q102.94 98.52 101.36 97.79Q99.77 97.05 98.61 96.31Q97.45 95.57 96.50 94.73Q95.55 93.88 94.22 92.69ZM104.27 68.57L104.27 68.57Q103.50 69.70 102.55 70.61Q101.60 71.52 100.72 72.47Q99.84 73.42 99.14 74.58Q98.44 75.74 98.16 77.29L98.16 77.29Q100.62 77.01 103.29 75.92Q105.96 74.83 108.35 73.84L108.35 73.84Q108.07 71.66 106.84 70.33Q105.61 68.99 104.27 68.57ZM170.51 98.73L170.51 98.73Q169.80 99.09 169.21 99.37Q168.61 99.65 167.84 99.65L167.84 99.65Q165.09 97.61 164.99 92.55Q164.88 87.48 167.13 79.68L167.13 79.68Q167.48 79.47 167.48 78.84L167.48 78.84L166.85 78.13Q166.57 78.13 166.32 78.20Q166.08 78.27 165.94 78.70L165.94 78.70Q164.11 80.03 161.93 81.47Q159.75 82.91 157.39 84.14Q155.04 85.38 152.61 86.15Q150.19 86.92 147.87 86.92L147.87 86.92Q141.96 86.92 139.01 80.95L139.01 80.95L138.45 79.89L137.88 80.80Q137.67 81.09 137.25 81.96Q136.83 82.84 136.41 83.97Q135.98 85.09 135.67 86.25Q135.35 87.41 135.42 88.26L135.42 88.26Q134.79 88.89 134.09 89.73Q133.38 90.58 133.03 91.63L133.03 91.63Q132.89 92.20 133.17 92.69L133.17 92.69Q133.03 93.32 132.54 93.67L132.54 93.67Q132.26 94.02 131.94 94.34Q131.63 94.66 131.41 95.01L131.41 95.01Q131.27 95.36 131.24 95.71Q131.20 96.06 131.13 96.41L131.13 96.41Q131.13 96.91 130.99 97.33L130.99 97.33Q129.80 99.79 129.09 100.53Q128.39 101.27 127.20 101.27L127.20 101.27Q126.63 101.27 125.37 101.05L125.37 101.05Q124.45 100.07 123.71 98.35Q122.98 96.63 122.59 94.66Q122.20 92.69 122.24 90.68Q122.27 88.68 122.91 87.20L122.91 87.20Q122.91 87.13 123.47 85.80Q124.03 84.46 124.91 82.35Q125.79 80.24 126.91 77.68Q128.04 75.11 129.16 72.68Q130.29 70.26 131.31 68.22Q132.33 66.18 133.03 65.13L133.03 65.13Q133.59 64.28 134.05 63.54Q134.51 62.80 134.93 62.10L134.93 62.10Q136.20 59.92 137.36 58.48Q138.52 57.04 140.77 56.20L140.77 56.20Q142.31 56.83 143.02 57.67L143.02 57.67L143.16 58.45Q143.44 59.15 144 59.15L144 59.15Q144.77 59.36 145.30 59.54Q145.83 59.71 146.46 59.85L146.46 59.85Q146.95 60.41 147.38 61.19L147.38 61.19Q147.94 62.03 148.46 62.84Q148.99 63.65 149.31 64.46Q149.63 65.27 149.66 66.11Q149.70 66.95 149.34 67.87L149.34 67.87L149.41 68.57Q149.77 69.20 149.55 70.33L149.55 70.33Q149.48 70.82 149.48 71.35Q149.48 71.88 149.63 72.51L149.63 72.51Q150.89 73.49 151.88 73.49L151.88 73.49Q153 73.49 153.95 72.96Q154.90 72.44 155.74 71.88L155.74 71.88Q156.30 71.45 156.87 71.14Q157.43 70.82 157.99 70.75L157.99 70.75Q159.26 69.55 160.28 68.64Q161.30 67.73 162.42 66.81L162.42 66.81Q164.53 65.13 166.50 63.16Q168.47 61.19 169.66 58.23L169.66 58.23Q170.37 57.81 171.14 57.81L171.14 57.81Q171.91 57.81 172.76 58.16Q173.60 58.52 174.38 58.87L174.38 58.87Q174.59 59.01 174.76 59.08Q174.94 59.15 175.08 59.22L175.08 59.22Q175.08 59.92 175.64 60.41L175.64 60.41Q175.92 60.63 175.99 60.70Q176.06 60.77 176.20 60.84L176.20 60.84Q177.26 61.40 177.54 61.96L177.54 61.96Q178.03 63.58 179.30 64.42L179.30 64.42Q179.16 65.13 179.33 65.72Q179.51 66.32 179.79 66.95L179.79 66.95Q179.86 67.16 179.93 67.38Q180 67.59 180.14 67.87L180.14 67.87L178.80 67.73L179.02 69.06Q179.16 70.05 178.84 71.24Q178.52 72.44 178.10 73.14L178.10 73.14Q178.17 74.97 178.21 75.99Q178.24 77.01 178.10 77.89Q177.96 78.77 177.71 79.54Q177.47 80.31 177.05 81.23L177.05 81.23Q177.33 85.73 176.03 89.42Q174.73 93.11 173.32 96.34L173.32 96.34Q173.18 96.70 173.00 97.05Q172.83 97.40 172.69 97.75L172.69 97.75Q172.05 97.96 171.56 98.21Q171.07 98.45 170.51 98.73ZM217.83 93.81L217.69 94.09Q217.27 95.29 216.46 96.52Q215.65 97.75 214.56 98.70Q213.47 99.65 212.13 100.28Q210.80 100.91 209.32 100.98L209.32 100.98Q208.41 100.77 208.09 100.53Q207.77 100.28 207.42 100.07L207.42 100.07Q207.21 99.93 207.04 99.82Q206.86 99.72 206.72 99.65L206.72 99.65L205.88 99.30L206.16 98.38Q206.30 97.82 206.09 97.50Q205.88 97.19 205.24 96.63L205.24 96.63Q205.03 96.41 204.82 96.20Q204.61 95.99 204.47 95.78L204.47 95.78L203.27 94.45L205.17 93.95Q206.93 93.46 207.53 92.69Q208.13 91.91 207.98 90.09L207.98 90.09Q206.58 89.80 205.63 90.02Q204.68 90.23 203.70 90.51L203.70 90.51Q202.43 90.86 201.13 91.11Q199.83 91.35 198.28 91.35L198.28 91.35Q197.72 91.35 197.23 91.32Q196.73 91.28 196.17 91.21L196.17 91.21L195.47 91.07Q195.33 90.30 195.19 90.19Q195.05 90.09 194.91 89.95L194.91 89.95Q194.55 89.59 194.17 89.00Q193.78 88.40 193.99 87.48L193.99 87.48Q193.64 86.85 193.57 86.22L193.57 86.22Q193.15 87.06 192.94 87.98L192.94 87.98L192.66 88.68L191.95 88.82Q191.81 88.89 191.74 89.14Q191.67 89.38 191.67 89.52L191.67 89.52L191.32 90.72Q191.18 90.86 191.04 90.96Q190.90 91.07 190.76 91.21L190.76 91.21Q190.62 91.84 190.41 92.48Q190.20 93.11 189.98 93.67L189.98 93.67Q189.63 94.59 189.39 95.46Q189.14 96.34 189.21 97.19L189.21 97.19L188.93 97.96Q188.58 98.38 188.16 98.63Q187.73 98.88 187.31 99.09L187.31 99.09Q187.17 99.23 186.93 99.33Q186.68 99.44 186.54 99.51L186.54 99.51L186.33 100.28L185.48 100.42Q184.71 100.56 184.39 100.63Q184.08 100.70 183.66 100.70L183.66 100.70L182.95 100.63Q182.18 100 181.76 99.61Q181.34 99.23 180.77 98.88L180.77 98.88Q180.14 98.03 180.07 97.61Q180 97.19 179.93 96.84L179.93 96.84Q179.79 96.41 179.75 96.13Q179.72 95.85 179.58 95.71L179.58 95.71L178.66 94.87L179.44 94.23L179.51 93.04Q180.91 89.45 182.50 86.15Q184.08 82.84 185.77 79.40L185.77 79.40Q186.33 78.27 186.86 77.15Q187.38 76.02 187.95 74.90L187.95 74.90Q187.88 74.69 187.88 74.41Q187.88 74.13 188.02 73.77L188.02 73.77Q188.79 72.58 189.28 71.63Q189.77 70.68 190.27 69.70L190.27 69.70Q190.83 68.50 191.43 67.38Q192.02 66.25 192.94 65.05L192.94 65.05L194.06 64.56Q194.27 64.49 194.55 64.39Q194.84 64.28 195.19 64.28L195.19 64.28L196.24 64.42Q198.21 63.51 199.69 61.86Q201.16 60.20 202.71 57.88L202.71 57.88L203.41 56.90L204.33 57.46Q204.68 57.67 205.31 57.85Q205.95 58.02 206.65 58.23L206.65 58.23Q207.91 58.52 209.04 58.87Q210.16 59.22 210.87 59.92L210.87 59.92Q211.29 61.05 211.36 61.61Q211.43 62.17 211.57 62.73L211.57 62.73Q211.78 63.93 211.96 65.13Q212.13 66.32 212.20 67.80L212.20 67.80Q212.55 68.99 212.80 70.15Q213.05 71.31 213.26 72.51L213.26 72.51Q213.61 74.20 213.96 75.78Q214.31 77.36 214.88 78.77L214.88 78.77Q215.44 78.77 215.58 78.84L215.58 78.84Q215.93 78.70 216.32 78.63Q216.70 78.55 217.20 78.48L217.20 78.48L217.97 78.41L218.25 79.12Q218.32 79.47 218.95 79.82L218.95 79.82Q219.87 79.89 220.29 80.21Q220.71 80.52 221.06 80.88L221.06 80.88Q221.34 81.16 221.63 81.30L221.63 81.30L222.68 81.72L222.12 82.77Q221.41 84.04 220.11 85.20Q218.81 86.36 217.20 87.13L217.20 87.13Q217.27 87.55 217.30 87.94Q217.34 88.33 217.48 88.75L217.48 88.75Q217.69 89.95 217.83 91.21Q217.97 92.48 217.83 93.81L217.83 93.81ZM197.37 81.93L197.37 81.93Q199.48 81.79 201.20 81.61Q202.92 81.44 205.03 81.02L205.03 81.02Q204.54 78.91 203.98 76.62Q203.41 74.34 202.78 72.09L202.78 72.09L202.36 72.79Q200.95 74.27 199.65 76.09Q198.35 77.92 197.44 79.54L197.44 79.54Q197.02 80.17 196.59 80.80Q196.17 81.44 195.82 82.07L195.82 82.07Q196.24 82 196.63 82Q197.02 82 197.37 81.93ZM236.74 87.20L236.74 87.20Q236.11 87.34 235.83 87.94Q235.55 88.54 235.30 89.17Q235.05 89.80 234.81 90.33Q234.56 90.86 234.07 90.86L234.07 90.86Q234 91.42 233.68 91.84Q233.37 92.27 233.09 92.72Q232.80 93.18 232.66 93.71Q232.52 94.23 232.80 94.94L232.80 94.94Q232.24 95.36 232.10 96.13Q231.96 96.91 231.79 97.61Q231.61 98.31 231.19 98.80Q230.77 99.30 229.64 99.23L229.64 99.23Q229.43 99.51 229.57 99.58Q229.71 99.65 229.78 100.07L229.78 100.07Q229.01 99.93 228.62 100.18Q228.23 100.42 227.67 100.49L227.67 100.49Q226.34 100.07 225.46 99.02Q224.58 97.96 223.91 96.66Q223.24 95.36 222.71 94.02Q222.19 92.69 221.70 91.70L221.70 91.70Q221.91 90.93 221.77 90.19Q221.63 89.45 221.27 88.96L221.27 88.96Q224.72 81.65 228.80 73.35Q232.88 65.05 236.53 56.97L236.53 56.97Q238.15 57.60 239.73 58.41Q241.31 59.22 242.61 60.27Q243.91 61.33 244.83 62.70Q245.74 64.07 246.02 65.76L246.02 65.76Q245.88 66.18 245.71 66.07Q245.53 65.97 245.39 66.18L245.39 66.18Q245.67 66.53 245.71 66.67Q245.74 66.81 245.71 66.95Q245.67 67.09 245.67 67.34Q245.67 67.59 245.88 68.01L245.88 68.01Q245.60 67.94 245.50 68.08Q245.39 68.22 245.04 68.08L245.04 68.08Q245.32 68.85 245.21 69.34Q245.11 69.84 244.90 70.22Q244.69 70.61 244.55 71.07Q244.41 71.52 244.62 72.23L244.62 72.23Q244.41 72.23 244.30 72.33Q244.20 72.44 244.13 72.54Q244.05 72.65 243.95 72.75Q243.84 72.86 243.63 72.79L243.63 72.79Q243.84 74.34 243.77 75.88Q243.70 77.43 243.67 79.01Q243.63 80.59 243.70 82.32Q243.77 84.04 244.20 85.87L244.20 85.87Q246.73 84.39 248.24 82.07Q249.75 79.75 250.70 76.87Q251.65 73.98 252.14 70.68Q252.63 67.38 253.20 63.93L253.20 63.93Q253.83 63.30 254.18 62.38Q254.53 61.47 254.81 60.45Q255.09 59.43 255.38 58.41Q255.66 57.39 256.08 56.55L256.08 56.55Q257.13 56.69 257.87 57.21Q258.61 57.74 259.24 58.34Q259.88 58.94 260.58 59.46Q261.28 59.99 262.34 60.13L262.34 60.13Q263.18 61.33 263.88 62.45Q264.59 63.58 264.80 64.84L264.80 64.84Q264.45 65.41 264.27 66.11Q264.09 66.81 263.88 67.52Q263.67 68.22 263.32 68.82Q262.97 69.41 262.34 69.84L262.34 69.84Q262.13 71.66 261.81 73.18Q261.49 74.69 261.18 76.16Q260.86 77.64 260.65 79.22Q260.44 80.80 260.51 82.70L260.51 82.70Q259.95 84.32 259.31 86.15Q258.68 87.98 258.33 89.45L258.33 89.45Q257.20 90.37 256.57 91.63Q255.94 92.90 255.23 94.16L255.23 94.16Q254.95 94.45 254.88 94.30Q254.81 94.16 254.39 94.09L254.39 94.09Q254.46 94.38 254.39 94.52Q254.32 94.66 254.21 94.76Q254.11 94.87 254.07 95.08Q254.04 95.29 254.18 95.64L254.18 95.64Q253.20 96.06 252.42 96.84Q251.65 97.61 250.77 98.24Q249.89 98.88 248.66 99.09Q247.43 99.30 245.46 98.59L245.46 98.59Q242.58 96.48 240.36 93.74Q238.15 91 236.74 87.20ZM302.20 60.41L302.20 60.41Q302.27 60.91 302.24 61.15Q302.20 61.40 302.17 61.61Q302.13 61.82 302.13 62.07Q302.13 62.31 302.27 62.80L302.27 62.80Q300.80 65.20 298.86 66.07Q296.93 66.95 294.68 67.34Q292.43 67.73 290.07 68.15Q287.72 68.57 285.40 69.98L285.40 69.98Q284.48 69.63 283.75 69.98Q283.01 70.33 281.60 70.19L281.60 70.19Q281.18 70.61 280.55 70.79Q279.91 70.96 279.28 71.17L279.28 71.17Q279.56 71.80 279.53 72.47Q279.49 73.14 279.70 73.56L279.70 73.56Q282.16 73.77 285.15 73.49Q288.14 73.21 291.02 73.14L291.02 73.14Q291.09 73.49 290.95 73.60Q290.81 73.70 290.88 73.98L290.88 73.98Q291.38 74.34 291.87 74.86Q292.36 75.39 292.85 75.88Q293.34 76.38 293.87 76.69Q294.40 77.01 295.10 76.94L295.10 76.94Q295.38 77.50 295.49 78.17Q295.59 78.84 295.31 79.54L295.31 79.54Q294.19 80.31 293.06 81.12Q291.94 81.93 290.71 82.56Q289.48 83.20 288.11 83.58Q286.73 83.97 285.05 83.90L285.05 83.90Q284.70 83.90 284.52 83.90Q284.34 83.90 284.06 83.69L284.06 83.69Q283.50 84.04 282.48 83.90Q281.46 83.76 280.90 84.11L280.90 84.11Q280.13 83.76 279.04 83.79Q277.95 83.83 277.10 83.55L277.10 83.55Q275.98 85.02 275.06 86.71Q274.15 88.40 273.45 90.30L273.45 90.30Q275.84 90.65 277.42 90.58Q279 90.51 280.41 90.33Q281.81 90.16 283.29 89.98Q284.77 89.80 287.02 89.88L287.02 89.88Q288.42 89.10 290.36 88.86Q292.29 88.61 293.91 88.05L293.91 88.05Q294.47 88.26 294.89 88.79Q295.31 89.31 295.70 89.77Q296.09 90.23 296.51 90.58Q296.93 90.93 297.56 90.86L297.56 90.86Q297.84 91.14 297.95 91.53Q298.05 91.91 298.13 92.27Q298.20 92.62 298.37 92.86Q298.55 93.11 298.97 93.04L298.97 93.04Q297.91 95.36 296.54 96.59Q295.17 97.82 293.41 98.45Q291.66 99.09 289.51 99.44Q287.37 99.79 284.77 100.28L284.77 100.28Q284.13 100.42 283.71 100.25Q283.29 100.07 282.73 100.07L282.73 100.07Q281.11 100.42 278.86 100.70Q276.61 100.98 274.29 100.91Q271.97 100.84 269.86 100.32Q267.75 99.79 266.41 98.45L266.41 98.45Q265.85 97.96 265.68 97.29Q265.50 96.63 264.73 96.27L264.73 96.27Q264.66 95.36 264.45 94.23Q264.23 93.11 264.02 91.88Q263.81 90.65 263.71 89.45Q263.60 88.26 263.81 87.27L263.81 87.27Q264.02 86.22 264.69 85.38Q265.36 84.53 265.15 83.55L265.15 83.55Q265.50 83.48 265.57 83.16Q265.64 82.84 266.13 82.91L266.13 82.91Q266.55 81.65 267.05 80.52Q267.54 79.40 268.07 78.34Q268.59 77.29 269.12 76.20Q269.65 75.11 270.14 73.77L270.14 73.77Q269.16 72.86 268.70 71.77Q268.24 70.68 268.03 69.59Q267.82 68.50 267.68 67.34Q267.54 66.18 267.19 64.98L267.19 64.98Q267.89 63.93 268.91 63.26Q269.93 62.59 271.13 62.17Q272.32 61.75 273.73 61.47Q275.13 61.19 276.68 60.84L276.68 60.84Q279.49 59.92 281.71 59.43Q283.92 58.94 286.07 58.62Q288.21 58.30 290.53 58.02Q292.85 57.74 295.80 57.18L295.80 57.18Q296.44 57.81 297 57.81L297 57.81Q297.28 57.18 297.67 57.43Q298.05 57.67 297.98 57.04L297.98 57.04Q298.69 58.23 299.78 59.04Q300.87 59.85 302.20 60.41ZM314.93 87.20L314.93 87.20Q314.30 87.34 314.02 87.94Q313.73 88.54 313.49 89.17Q313.24 89.80 313.00 90.33Q312.75 90.86 312.26 90.86L312.26 90.86Q312.19 91.42 311.87 91.84Q311.55 92.27 311.27 92.72Q310.99 93.18 310.85 93.71Q310.71 94.23 310.99 94.94L310.99 94.94Q310.43 95.36 310.29 96.13Q310.15 96.91 309.97 97.61Q309.80 98.31 309.38 98.80Q308.95 99.30 307.83 99.23L307.83 99.23Q307.62 99.51 307.76 99.58Q307.90 99.65 307.97 100.07L307.97 100.07Q307.20 99.93 306.81 100.18Q306.42 100.42 305.86 100.49L305.86 100.49Q304.52 100.07 303.64 99.02Q302.77 97.96 302.10 96.66Q301.43 95.36 300.90 94.02Q300.38 92.69 299.88 91.70L299.88 91.70Q300.09 90.93 299.95 90.19Q299.81 89.45 299.46 88.96L299.46 88.96Q302.91 81.65 306.98 73.35Q311.06 65.05 314.72 56.97L314.72 56.97Q316.34 57.60 317.92 58.41Q319.50 59.22 320.80 60.27Q322.10 61.33 323.02 62.70Q323.93 64.07 324.21 65.76L324.21 65.76Q324.07 66.18 323.89 66.07Q323.72 65.97 323.58 66.18L323.58 66.18Q323.86 66.53 323.89 66.67Q323.93 66.81 323.89 66.95Q323.86 67.09 323.86 67.34Q323.86 67.59 324.07 68.01L324.07 68.01Q323.79 67.94 323.68 68.08Q323.58 68.22 323.23 68.08L323.23 68.08Q323.51 68.85 323.40 69.34Q323.30 69.84 323.09 70.22Q322.88 70.61 322.73 71.07Q322.59 71.52 322.80 72.23L322.80 72.23Q322.59 72.23 322.49 72.33Q322.38 72.44 322.31 72.54Q322.24 72.65 322.14 72.75Q322.03 72.86 321.82 72.79L321.82 72.79Q322.03 74.34 321.96 75.88Q321.89 77.43 321.86 79.01Q321.82 80.59 321.89 82.32Q321.96 84.04 322.38 85.87L322.38 85.87Q324.91 84.39 326.43 82.07Q327.94 79.75 328.89 76.87Q329.84 73.98 330.33 70.68Q330.82 67.38 331.38 63.93L331.38 63.93Q332.02 63.30 332.37 62.38Q332.72 61.47 333 60.45Q333.28 59.43 333.56 58.41Q333.84 57.39 334.27 56.55L334.27 56.55Q335.32 56.69 336.06 57.21Q336.80 57.74 337.43 58.34Q338.06 58.94 338.77 59.46Q339.47 59.99 340.52 60.13L340.52 60.13Q341.37 61.33 342.07 62.45Q342.77 63.58 342.98 64.84L342.98 64.84Q342.63 65.41 342.46 66.11Q342.28 66.81 342.07 67.52Q341.86 68.22 341.51 68.82Q341.16 69.41 340.52 69.84L340.52 69.84Q340.31 71.66 340.00 73.18Q339.68 74.69 339.36 76.16Q339.05 77.64 338.84 79.22Q338.63 80.80 338.70 82.70L338.70 82.70Q338.13 84.32 337.50 86.15Q336.87 87.98 336.52 89.45L336.52 89.45Q335.39 90.37 334.76 91.63Q334.13 92.90 333.42 94.16L333.42 94.16Q333.14 94.45 333.07 94.30Q333 94.16 332.58 94.09L332.58 94.09Q332.65 94.38 332.58 94.52Q332.51 94.66 332.40 94.76Q332.30 94.87 332.26 95.08Q332.23 95.29 332.37 95.64L332.37 95.64Q331.38 96.06 330.61 96.84Q329.84 97.61 328.96 98.24Q328.08 98.88 326.85 99.09Q325.62 99.30 323.65 98.59L323.65 98.59Q320.77 96.48 318.55 93.74Q316.34 91 314.93 87.20ZM381.16 66.18L381.16 66.18Q379.41 66.18 377.37 66.43Q375.33 66.67 373.36 66.95L373.36 66.95Q371.95 67.16 370.65 67.30Q369.35 67.45 368.30 67.52L368.30 67.52Q367.80 69.06 367.31 70.26Q366.82 71.45 366.26 72.58L366.26 72.58Q365.70 73.77 365.24 75.00Q364.78 76.23 364.36 77.64L364.36 77.64Q363.66 78.77 363.20 79.71Q362.74 80.66 362.46 81.86L362.46 81.86Q361.62 82.91 361.20 84.07Q360.77 85.23 360.56 86.08L360.56 86.08L360.28 86.92Q359.86 87.34 359.79 87.59Q359.72 87.84 359.44 88.05L359.44 88.05Q359.37 88.82 358.95 89.59L358.95 89.59Q358.80 89.95 358.73 90.26Q358.66 90.58 358.66 90.72L358.66 90.72Q358.66 91.42 358.31 91.63L358.31 91.63Q358.38 91.98 358.31 92.37Q358.24 92.76 358.17 93.11L358.17 93.11Q357.96 93.95 358.03 94.45L358.03 94.45Q358.24 94.73 358.42 94.94Q358.59 95.15 358.66 95.50L358.66 95.50Q359.09 95.78 359.30 95.85L359.30 95.85Q359.58 96.06 360.14 96.34L360.14 96.34L360.77 97.05Q361.13 99.09 360.14 100.28L360.14 100.28Q359.09 101.62 356.55 101.62L356.55 101.62L355.71 101.62Q355.36 101.27 355.29 101.05L355.29 101.05Q354.73 100.84 354.38 100.70Q354.02 100.56 353.74 100.14L353.74 100.14Q352.83 99.72 352.27 99.44L352.27 99.44L351.63 99.09Q351.63 98.31 351.63 98.24L351.63 98.24Q351.14 97.61 350.89 96.84Q350.65 96.06 350.51 95.29L350.51 95.29Q350.37 94.66 350.19 94.09Q350.02 93.53 349.73 93.11L349.73 93.11Q349.59 89.03 350.51 86.22Q351.42 83.41 352.41 80.80L352.41 80.80Q352.97 79.40 353.53 77.96Q354.09 76.52 354.52 74.97L354.52 74.97L355.15 74.27Q355.64 73.14 355.96 72.40Q356.27 71.66 356.63 70.89L356.63 70.89Q356.84 70.40 357.01 69.94Q357.19 69.48 357.33 69.13L357.33 69.13Q356.91 69.13 356.55 69.17Q356.20 69.20 355.85 69.27L355.85 69.27Q355.43 69.34 355.08 69.38Q354.73 69.41 354.38 69.41L354.38 69.41Q353.88 69.41 353.67 69.34L353.67 69.34Q352.90 69.70 351.98 69.70L351.98 69.70L351.28 69.70Q351.07 69.70 350.89 69.66Q350.72 69.63 350.58 69.63L350.58 69.63Q349.88 69.63 349.45 69.84L349.45 69.84Q348.61 69.84 347.84 69.84L347.84 69.84L347.13 69.84Q346.99 69.84 346.78 69.87Q346.57 69.91 346.43 69.91L346.43 69.91Q345.94 69.91 345.38 69.80Q344.81 69.70 344.18 69.34L344.18 69.34Q343.34 68.22 343.05 68.15L343.05 68.15L342.42 67.30Q342.35 66.88 342.21 66.50Q342.07 66.11 341.93 65.62L341.93 65.62Q341.65 64.91 341.40 64.11Q341.16 63.30 341.16 62.17L341.16 62.17Q341.23 61.61 341.44 61.33Q341.65 61.05 341.79 60.84L341.79 60.84L342 59.78L342.91 59.85L344.88 59.85Q347.13 59.85 349.45 59.68Q351.77 59.50 354.23 59.29L354.23 59.29Q355.64 59.15 357.08 59.01Q358.52 58.87 360.07 58.73L360.07 58.73Q360.35 58.09 360.63 57.53L360.63 57.53L361.34 57.18Q362.60 57.11 363.13 57.50Q363.66 57.88 364.01 58.23L364.01 58.23Q365.55 58.09 367.14 57.92Q368.72 57.74 370.34 57.46L370.34 57.46Q372.73 57.11 375.15 56.83Q377.58 56.55 379.83 56.55L379.83 56.55Q380.81 56.55 381.73 56.62Q382.64 56.69 383.41 56.83L383.41 56.83L384.12 57.32Q384.33 57.74 384.71 58.09Q385.10 58.45 385.52 58.80L385.52 58.80Q386.37 59.57 387.21 60.63Q388.05 61.68 387.84 63.72L387.84 63.72Q387.28 64.56 387 64.70L387 64.70L386.37 65.55L385.66 65.48Q385.24 65.48 384.89 65.58Q384.54 65.69 384.19 65.83L384.19 65.83Q383.91 65.97 383.63 66.07Q383.34 66.18 382.99 66.25L382.99 66.25Q382.36 66.25 381.97 66.21Q381.59 66.18 381.16 66.18ZM408.66 100.98L408.66 100.98Q407.95 100.98 406.48 100.77L406.48 100.77Q405.35 99.58 404.47 97.50Q403.59 95.43 403.14 93.07Q402.68 90.72 402.71 88.36Q402.75 86.01 403.52 84.18L403.52 84.18Q403.52 84.11 404.19 82.49Q404.86 80.88 405.91 78.38Q406.97 75.88 408.30 72.82Q409.64 69.77 410.98 66.81Q412.31 63.86 413.54 61.43Q414.77 59.01 415.69 57.67L415.69 57.67Q416.32 56.69 416.85 55.77Q417.38 54.86 417.87 54.09L417.87 54.09Q418.64 52.82 419.31 51.73Q419.98 50.64 420.79 49.76Q421.59 48.88 422.58 48.21Q423.56 47.55 424.97 47.05L424.97 47.05Q425.81 47.41 426.45 47.79Q427.08 48.18 427.57 48.74L427.57 48.74L427.78 49.73Q427.92 50.22 428.24 50.39Q428.55 50.57 428.77 50.57L428.77 50.57Q429.68 50.78 430.35 51.03Q431.02 51.27 431.79 51.34L431.79 51.34Q432.07 51.77 432.32 52.19Q432.56 52.61 432.84 52.96L432.84 52.96Q434.25 55 435.16 56.90Q436.08 58.80 435.16 61.05L435.16 61.05L435.23 61.82Q435.59 62.31 435.59 62.73Q435.59 63.16 435.45 63.93L435.45 63.93Q435.38 64.49 435.34 65.16Q435.30 65.83 435.52 66.60L435.52 66.60L436.01 67.16Q437.13 67.73 438.19 67.73L438.19 67.73Q439.59 67.73 440.72 67.09Q441.84 66.46 442.83 65.83L442.83 65.83Q443.60 65.27 444.27 64.91Q444.94 64.56 445.57 64.42L445.57 64.42Q447.05 63.02 448.28 61.93Q449.51 60.84 450.84 59.71L450.84 59.71Q453.38 57.67 455.77 55.32Q458.16 52.96 459.56 49.45L459.56 49.45Q460.34 48.95 461.32 48.95L461.32 48.95Q462.30 48.95 463.29 49.34Q464.27 49.73 465.26 50.22L465.26 50.22Q465.47 50.36 465.64 50.43Q465.82 50.50 466.03 50.64L466.03 50.64Q466.03 51.41 466.66 52.05L466.66 52.05Q467.02 52.33 467.16 52.40Q467.30 52.47 467.44 52.54L467.44 52.54Q468 52.89 468.39 53.17Q468.77 53.45 468.98 53.95L468.98 53.95Q469.62 55.84 471.09 56.90L471.09 56.90Q470.95 57.67 471.16 58.41Q471.38 59.15 471.66 59.85L471.66 59.85Q471.80 60.13 471.87 60.38Q471.94 60.63 472.08 60.98L472.08 60.98L470.53 60.84L470.74 62.38Q470.95 63.58 470.57 65.05Q470.18 66.53 469.69 67.38L469.69 67.38Q469.83 69.48 469.83 70.71Q469.83 71.95 469.69 73Q469.55 74.05 469.23 75.00Q468.91 75.95 468.42 77.01L468.42 77.01Q468.70 82.35 467.19 86.78Q465.68 91.21 463.92 95.08L463.92 95.08Q463.71 95.57 463.50 95.99Q463.29 96.41 463.15 96.84L463.15 96.84Q462.38 97.05 461.74 97.33Q461.11 97.61 460.55 97.96L460.55 97.96Q459.77 98.45 459 98.77Q458.23 99.09 457.38 99.09L457.38 99.09Q454.01 96.63 453.90 90.58Q453.80 84.53 456.47 75.18L456.47 75.18Q456.96 74.83 456.89 74.13L456.89 74.13L456.89 73.35L456.19 73.28Q455.84 73.28 455.55 73.35Q455.27 73.42 455.13 73.98L455.13 73.98Q452.88 75.60 450.25 77.32Q447.61 79.05 444.80 80.49Q441.98 81.93 439.07 82.88Q436.15 83.83 433.41 83.83L433.41 83.83Q426.38 83.83 422.79 76.66L422.79 76.66L422.16 75.39L421.45 76.52Q421.24 76.87 420.71 77.89Q420.19 78.91 419.66 80.24Q419.13 81.58 418.75 82.98Q418.36 84.39 418.50 85.45L418.50 85.45Q417.66 86.22 416.85 87.20Q416.04 88.19 415.69 89.45L415.69 89.45Q415.55 89.80 415.62 90.12Q415.69 90.44 415.83 90.79L415.83 90.79Q415.76 91.28 415.55 91.49Q415.34 91.70 415.05 91.91L415.05 91.91Q414.70 92.27 414.35 92.65Q414 93.04 413.72 93.53L413.72 93.53Q413.58 93.95 413.51 94.41Q413.44 94.87 413.37 95.22L413.37 95.22Q413.37 95.99 413.16 96.27L413.16 96.27Q412.45 97.75 411.93 98.70Q411.40 99.65 410.91 100.14Q410.41 100.63 409.89 100.81Q409.36 100.98 408.66 100.98ZM509.77 93.81L509.63 94.09Q509.20 95.29 508.39 96.52Q507.59 97.75 506.50 98.70Q505.41 99.65 504.07 100.28Q502.73 100.91 501.26 100.98L501.26 100.98Q500.34 100.77 500.03 100.53Q499.71 100.28 499.36 100.07L499.36 100.07Q499.15 99.93 498.97 99.82Q498.80 99.72 498.66 99.65L498.66 99.65L497.81 99.30L498.09 98.38Q498.23 97.82 498.02 97.50Q497.81 97.19 497.18 96.63L497.18 96.63Q496.97 96.41 496.76 96.20Q496.55 95.99 496.41 95.78L496.41 95.78L495.21 94.45L497.11 93.95Q498.87 93.46 499.46 92.69Q500.06 91.91 499.92 90.09L499.92 90.09Q498.52 89.80 497.57 90.02Q496.62 90.23 495.63 90.51L495.63 90.51Q494.37 90.86 493.07 91.11Q491.77 91.35 490.22 91.35L490.22 91.35Q489.66 91.35 489.16 91.32Q488.67 91.28 488.11 91.21L488.11 91.21L487.41 91.07Q487.27 90.30 487.13 90.19Q486.98 90.09 486.84 89.95L486.84 89.95Q486.49 89.59 486.11 89.00Q485.72 88.40 485.93 87.48L485.93 87.48Q485.58 86.85 485.51 86.22L485.51 86.22Q485.09 87.06 484.88 87.98L484.88 87.98L484.59 88.68L483.89 88.82Q483.75 88.89 483.68 89.14Q483.61 89.38 483.61 89.52L483.61 89.52L483.26 90.72Q483.12 90.86 482.98 90.96Q482.84 91.07 482.70 91.21L482.70 91.21Q482.55 91.84 482.34 92.48Q482.13 93.11 481.92 93.67L481.92 93.67Q481.57 94.59 481.32 95.46Q481.08 96.34 481.15 97.19L481.15 97.19L480.87 97.96Q480.52 98.38 480.09 98.63Q479.67 98.88 479.25 99.09L479.25 99.09Q479.11 99.23 478.86 99.33Q478.62 99.44 478.48 99.51L478.48 99.51L478.27 100.28L477.42 100.42Q476.65 100.56 476.33 100.63Q476.02 100.70 475.59 100.70L475.59 100.70L474.89 100.63Q474.12 100 473.70 99.61Q473.27 99.23 472.71 98.88L472.71 98.88Q472.08 98.03 472.01 97.61Q471.94 97.19 471.87 96.84L471.87 96.84Q471.73 96.41 471.69 96.13Q471.66 95.85 471.52 95.71L471.52 95.71L470.60 94.87L471.38 94.23L471.45 93.04Q472.85 89.45 474.43 86.15Q476.02 82.84 477.70 79.40L477.70 79.40Q478.27 78.27 478.79 77.15Q479.32 76.02 479.88 74.90L479.88 74.90Q479.81 74.69 479.81 74.41Q479.81 74.13 479.95 73.77L479.95 73.77Q480.73 72.58 481.22 71.63Q481.71 70.68 482.20 69.70L482.20 69.70Q482.77 68.50 483.36 67.38Q483.96 66.25 484.88 65.05L484.88 65.05L486 64.56Q486.21 64.49 486.49 64.39Q486.77 64.28 487.13 64.28L487.13 64.28L488.18 64.42Q490.15 63.51 491.63 61.86Q493.10 60.20 494.65 57.88L494.65 57.88L495.35 56.90L496.27 57.46Q496.62 57.67 497.25 57.85Q497.88 58.02 498.59 58.23L498.59 58.23Q499.85 58.52 500.98 58.87Q502.10 59.22 502.80 59.92L502.80 59.92Q503.23 61.05 503.30 61.61Q503.37 62.17 503.51 62.73L503.51 62.73Q503.72 63.93 503.89 65.13Q504.07 66.32 504.14 67.80L504.14 67.80Q504.49 68.99 504.74 70.15Q504.98 71.31 505.20 72.51L505.20 72.51Q505.55 74.20 505.90 75.78Q506.25 77.36 506.81 78.77L506.81 78.77Q507.38 78.77 507.52 78.84L507.52 78.84Q507.87 78.70 508.25 78.63Q508.64 78.55 509.13 78.48L509.13 78.48L509.91 78.41L510.19 79.12Q510.26 79.47 510.89 79.82L510.89 79.82Q511.80 79.89 512.23 80.21Q512.65 80.52 513 80.88L513 80.88Q513.28 81.16 513.56 81.30L513.56 81.30L514.62 81.72L514.05 82.77Q513.35 84.04 512.05 85.20Q510.75 86.36 509.13 87.13L509.13 87.13Q509.20 87.55 509.24 87.94Q509.27 88.33 509.41 88.75L509.41 88.75Q509.63 89.95 509.77 91.21Q509.91 92.48 509.77 93.81L509.77 93.81ZM489.30 81.93L489.30 81.93Q491.41 81.79 493.14 81.61Q494.86 81.44 496.97 81.02L496.97 81.02Q496.48 78.91 495.91 76.62Q495.35 74.34 494.72 72.09L494.72 72.09L494.30 72.79Q492.89 74.27 491.59 76.09Q490.29 77.92 489.38 79.54L489.38 79.54Q488.95 80.17 488.53 80.80Q488.11 81.44 487.76 82.07L487.76 82.07Q488.18 82 488.57 82Q488.95 82 489.30 81.93ZM525.59 92.69L525.59 92.69Q524.81 95.50 524.21 96.94Q523.62 98.38 522.42 99.93L522.42 99.93Q521.51 99.79 521.16 100.14Q520.80 100.49 520.38 100.77L520.38 100.77Q519.75 100.91 519.47 100.77Q519.19 100.63 518.98 100.46Q518.77 100.28 518.45 100.11Q518.13 99.93 517.50 99.93L517.50 99.93Q517.36 99.37 517.18 98.88Q517.01 98.38 516.23 98.52L516.23 98.52Q516.38 97.96 516.30 97.57Q516.23 97.19 516.13 96.87Q516.02 96.55 515.95 96.24Q515.88 95.92 516.02 95.43L516.02 95.43Q515.67 95.43 515.46 94.94Q515.25 94.45 514.97 93.95L514.97 93.95Q515.18 92.69 515.39 91.56Q515.60 90.44 515.92 89.45Q516.23 88.47 516.45 87.48Q516.66 86.50 516.23 85.45L516.23 85.45Q516.52 85.66 516.66 85.34Q516.80 85.02 516.87 84.50Q516.94 83.97 516.94 83.44Q516.94 82.91 516.87 82.56L516.87 82.56Q517.57 80.73 518.03 78.80Q518.48 76.87 518.87 74.97Q519.26 73.07 519.68 71.24Q520.10 69.41 520.80 67.87L520.80 67.87Q521.58 67.73 522.53 68.04Q523.48 68.36 523.69 68.85L523.69 68.85Q525.52 67.45 526.92 65.44Q528.33 63.44 529.80 61.54Q531.28 59.64 533.07 58.16Q534.87 56.69 537.61 56.41L537.61 56.41Q539.02 57.46 540.74 58.55Q542.46 59.64 543.59 61.40L543.59 61.40Q544.15 61.68 544.54 62.00Q544.92 62.31 545.48 62.66L545.48 62.66L545.48 63.51Q546.33 64.28 546.86 65.30Q547.38 66.32 547.80 67.48Q548.23 68.64 548.65 69.80Q549.07 70.96 549.63 72.02L549.63 72.02Q549.49 72.37 549.49 72.61Q549.49 72.86 549.60 73.14Q549.70 73.42 549.77 73.70Q549.84 73.98 549.77 74.48L549.77 74.48Q549.56 77.57 547.77 79.47Q545.98 81.37 543.45 82.60Q540.91 83.83 538.03 84.67Q535.15 85.52 532.83 86.50L532.83 86.50Q532.83 86.78 533.07 86.78Q533.32 86.78 533.25 87.13L533.25 87.13Q534.94 88.19 535.92 88.82Q536.91 89.45 537.79 89.88Q538.66 90.30 539.68 90.61Q540.70 90.93 542.53 91.35L542.53 91.35Q544.36 91.77 545.38 92.02Q546.40 92.27 547.24 92.44Q548.09 92.62 548.96 92.72Q549.84 92.83 551.46 92.97L551.46 92.97Q552.09 93.60 552.55 94.48Q553.01 95.36 553.15 96.24Q553.29 97.12 553.22 97.93Q553.15 98.73 552.73 99.23L552.73 99.23Q552.80 99.44 553.04 99.40Q553.29 99.37 553.57 99.44L553.57 99.44Q553.15 99.72 552.87 100.14Q552.59 100.56 552.30 100.98Q552.02 101.41 551.67 101.72Q551.32 102.04 550.69 102.11L550.69 102.11Q548.51 102.95 545.20 102.21Q541.90 101.48 536.84 99.51L536.84 99.51Q534.30 98.52 532.72 97.79Q531.14 97.05 529.98 96.31Q528.82 95.57 527.87 94.73Q526.92 93.88 525.59 92.69ZM535.64 68.57L535.64 68.57Q534.87 69.70 533.92 70.61Q532.97 71.52 532.09 72.47Q531.21 73.42 530.51 74.58Q529.80 75.74 529.52 77.29L529.52 77.29Q531.98 77.01 534.66 75.92Q537.33 74.83 539.72 73.84L539.72 73.84Q539.44 71.66 538.21 70.33Q536.98 68.99 535.64 68.57ZM595.62 97.47L595.62 97.47Q592.24 97.61 589.68 97.33Q587.11 97.05 584.65 95.99L584.65 95.99Q584.51 95.92 584.37 95.64Q584.23 95.36 584.09 95.22L584.09 95.22Q583.66 95.01 583.07 95.04Q582.47 95.08 582.05 94.94L582.05 94.94Q581.48 94.66 580.29 93.85Q579.09 93.04 578.11 92.34L578.11 92.34Q576.84 91.35 575.72 90.37Q574.59 89.38 573.75 88.26L573.75 88.26Q573.54 87.98 573.19 87.94Q572.84 87.91 572.55 87.77L572.55 87.77Q570.52 89.03 569.11 90.93Q567.70 92.83 566.44 94.80Q565.17 96.77 563.77 98.52Q562.36 100.28 560.18 101.20L560.18 101.20Q559.55 101.20 559.05 100.98Q558.56 100.77 558.14 100.46Q557.72 100.14 557.30 99.86Q556.88 99.58 556.38 99.44L556.38 99.44Q556.38 98.59 556.07 97.89Q555.75 97.19 555.43 96.55Q555.12 95.92 554.98 95.32Q554.84 94.73 555.26 94.16L555.26 94.16Q554.84 93.74 553.99 93.25L553.99 93.25Q554.41 92.83 554.38 92.48Q554.34 92.13 554.20 91.77Q554.06 91.42 553.96 91Q553.85 90.58 554.13 90.16L554.13 90.16Q554.48 90.16 554.98 90.02L554.98 90.02Q554.55 89.45 554.59 89.35Q554.63 89.24 554.41 89.03L554.41 89.03Q554.27 88.61 554.55 88.50Q554.84 88.40 555.12 88.26L555.12 88.26Q555.40 84.81 556.31 81.86Q557.23 78.91 558.35 76.16Q559.48 73.42 560.57 70.61Q561.66 67.80 562.36 64.56L562.36 64.56Q563.13 63.79 563.59 62.73Q564.05 61.68 564.57 60.63Q565.10 59.57 565.77 58.55Q566.44 57.53 567.63 56.90L567.63 56.90Q568.62 56.97 569.39 57.43Q570.16 57.88 571.29 57.81L571.29 57.81Q571.50 58.16 571.68 58.52Q571.85 58.87 572.13 59.22L572.13 59.22L573.19 59.01Q573.96 59.64 574.56 60.59Q575.16 61.54 575.37 62.59Q575.58 63.65 575.30 64.60Q575.02 65.55 573.96 66.11L573.96 66.11Q574.03 66.46 574.00 66.64Q573.96 66.81 573.89 66.95Q573.82 67.09 573.82 67.23Q573.82 67.38 574.03 67.66L574.03 67.66Q572.63 68.71 571.92 70.61Q571.22 72.51 571.15 73.98L571.15 73.98Q571.99 73.14 573.01 72.33Q574.03 71.52 575.12 70.75Q576.21 69.98 577.23 69.27Q578.25 68.57 579.09 67.87L579.09 67.87Q581.41 65.76 583.56 64.46Q585.70 63.16 588.09 61.54L588.09 61.54Q588.66 61.40 588.97 61.50Q589.29 61.61 589.64 61.75L589.64 61.75Q589.64 61.33 589.39 61.26Q589.15 61.19 589.22 60.70L589.22 60.70Q590.27 60.41 591.05 60.03Q591.82 59.64 592.73 59.29L592.73 59.29Q593.37 59.92 593.93 60.59Q594.49 61.26 595.48 61.40L595.48 61.40Q595.83 62.17 596.32 62.56Q596.81 62.95 597.30 63.30Q597.80 63.65 598.18 64.14Q598.57 64.63 598.64 65.69L598.64 65.69Q598.36 66.18 598.04 66.74Q597.73 67.30 597.45 68.08L597.45 68.08Q596.04 69.34 594.60 70.33Q593.16 71.31 591.68 72.23Q590.20 73.14 588.66 74.05Q587.11 74.97 585.49 76.23L585.49 76.23Q585.14 76.73 584.61 77.11Q584.09 77.50 583.52 77.89Q582.96 78.27 582.47 78.70Q581.98 79.12 581.70 79.68L581.70 79.68Q581.48 79.75 581.27 79.75Q581.06 79.75 580.85 79.82L580.85 79.82Q580.64 80.31 580.18 80.59Q579.73 80.88 579.59 81.37L579.59 81.37Q580.64 83.62 582.33 84.81Q584.02 86.01 586.13 86.54Q588.23 87.06 590.70 87.10Q593.16 87.13 595.83 87.13L595.83 87.13Q596.11 87.06 596.07 86.82Q596.04 86.57 596.39 86.64L596.39 86.64Q598.08 87.20 598.99 88.22Q599.91 89.24 601.17 90.23L601.17 90.23Q601.03 92.90 599.55 94.66Q598.08 96.41 595.62 97.47ZM638.93 60.41L638.93 60.41Q639 60.91 638.96 61.15Q638.93 61.40 638.89 61.61Q638.86 61.82 638.86 62.07Q638.86 62.31 639 62.80L639 62.80Q637.52 65.20 635.59 66.07Q633.66 66.95 631.41 67.34Q629.16 67.73 626.80 68.15Q624.45 68.57 622.13 69.98L622.13 69.98Q621.21 69.63 620.47 69.98Q619.73 70.33 618.33 70.19L618.33 70.19Q617.91 70.61 617.27 70.79Q616.64 70.96 616.01 71.17L616.01 71.17Q616.29 71.80 616.25 72.47Q616.22 73.14 616.43 73.56L616.43 73.56Q618.89 73.77 621.88 73.49Q624.87 73.21 627.75 73.14L627.75 73.14Q627.82 73.49 627.68 73.60Q627.54 73.70 627.61 73.98L627.61 73.98Q628.10 74.34 628.59 74.86Q629.09 75.39 629.58 75.88Q630.07 76.38 630.60 76.69Q631.13 77.01 631.83 76.94L631.83 76.94Q632.11 77.50 632.21 78.17Q632.32 78.84 632.04 79.54L632.04 79.54Q630.91 80.31 629.79 81.12Q628.66 81.93 627.43 82.56Q626.20 83.20 624.83 83.58Q623.46 83.97 621.77 83.90L621.77 83.90Q621.42 83.90 621.25 83.90Q621.07 83.90 620.79 83.69L620.79 83.69Q620.23 84.04 619.21 83.90Q618.19 83.76 617.63 84.11L617.63 84.11Q616.85 83.76 615.76 83.79Q614.67 83.83 613.83 83.55L613.83 83.55Q612.70 85.02 611.79 86.71Q610.88 88.40 610.17 90.30L610.17 90.30Q612.56 90.65 614.14 90.58Q615.73 90.51 617.13 90.33Q618.54 90.16 620.02 89.98Q621.49 89.80 623.74 89.88L623.74 89.88Q625.15 89.10 627.08 88.86Q629.02 88.61 630.63 88.05L630.63 88.05Q631.20 88.26 631.62 88.79Q632.04 89.31 632.43 89.77Q632.81 90.23 633.23 90.58Q633.66 90.93 634.29 90.86L634.29 90.86Q634.57 91.14 634.68 91.53Q634.78 91.91 634.85 92.27Q634.92 92.62 635.10 92.86Q635.27 93.11 635.70 93.04L635.70 93.04Q634.64 95.36 633.27 96.59Q631.90 97.82 630.14 98.45Q628.38 99.09 626.24 99.44Q624.09 99.79 621.49 100.28L621.49 100.28Q620.86 100.42 620.44 100.25Q620.02 100.07 619.45 100.07L619.45 100.07Q617.84 100.42 615.59 100.70Q613.34 100.98 611.02 100.91Q608.70 100.84 606.59 100.32Q604.48 99.79 603.14 98.45L603.14 98.45Q602.58 97.96 602.40 97.29Q602.23 96.63 601.45 96.27L601.45 96.27Q601.38 95.36 601.17 94.23Q600.96 93.11 600.75 91.88Q600.54 90.65 600.43 89.45Q600.33 88.26 600.54 87.27L600.54 87.27Q600.75 86.22 601.42 85.38Q602.09 84.53 601.88 83.55L601.88 83.55Q602.23 83.48 602.30 83.16Q602.37 82.84 602.86 82.91L602.86 82.91Q603.28 81.65 603.77 80.52Q604.27 79.40 604.79 78.34Q605.32 77.29 605.85 76.20Q606.38 75.11 606.87 73.77L606.87 73.77Q605.88 72.86 605.43 71.77Q604.97 70.68 604.76 69.59Q604.55 68.50 604.41 67.34Q604.27 66.18 603.91 64.98L603.91 64.98Q604.62 63.93 605.64 63.26Q606.66 62.59 607.85 62.17Q609.05 61.75 610.45 61.47Q611.86 61.19 613.41 60.84L613.41 60.84Q616.22 59.92 618.43 59.43Q620.65 58.94 622.79 58.62Q624.94 58.30 627.26 58.02Q629.58 57.74 632.53 57.18L632.53 57.18Q633.16 57.81 633.73 57.81L633.73 57.81Q634.01 57.18 634.39 57.43Q634.78 57.67 634.71 57.04L634.71 57.04Q635.41 58.23 636.50 59.04Q637.59 59.85 638.93 60.41ZM647.86 92.69L647.86 92.69Q647.09 95.50 646.49 96.94Q645.89 98.38 644.70 99.93L644.70 99.93Q643.78 99.79 643.43 100.14Q643.08 100.49 642.66 100.77L642.66 100.77Q642.02 100.91 641.74 100.77Q641.46 100.63 641.25 100.46Q641.04 100.28 640.72 100.11Q640.41 99.93 639.77 99.93L639.77 99.93Q639.63 99.37 639.46 98.88Q639.28 98.38 638.51 98.52L638.51 98.52Q638.65 97.96 638.58 97.57Q638.51 97.19 638.40 96.87Q638.30 96.55 638.23 96.24Q638.16 95.92 638.30 95.43L638.30 95.43Q637.95 95.43 637.73 94.94Q637.52 94.45 637.24 93.95L637.24 93.95Q637.45 92.69 637.66 91.56Q637.88 90.44 638.19 89.45Q638.51 88.47 638.72 87.48Q638.93 86.50 638.51 85.45L638.51 85.45Q638.79 85.66 638.93 85.34Q639.07 85.02 639.14 84.50Q639.21 83.97 639.21 83.44Q639.21 82.91 639.14 82.56L639.14 82.56Q639.84 80.73 640.30 78.80Q640.76 76.87 641.14 74.97Q641.53 73.07 641.95 71.24Q642.38 69.41 643.08 67.87L643.08 67.87Q643.85 67.73 644.80 68.04Q645.75 68.36 645.96 68.85L645.96 68.85Q647.79 67.45 649.20 65.44Q650.60 63.44 652.08 61.54Q653.55 59.64 655.35 58.16Q657.14 56.69 659.88 56.41L659.88 56.41Q661.29 57.46 663.01 58.55Q664.73 59.64 665.86 61.40L665.86 61.40Q666.42 61.68 666.81 62.00Q667.20 62.31 667.76 62.66L667.76 62.66L667.76 63.51Q668.60 64.28 669.13 65.30Q669.66 66.32 670.08 67.48Q670.50 68.64 670.92 69.80Q671.34 70.96 671.91 72.02L671.91 72.02Q671.77 72.37 671.77 72.61Q671.77 72.86 671.87 73.14Q671.98 73.42 672.05 73.70Q672.12 73.98 672.05 74.48L672.05 74.48Q671.84 77.57 670.04 79.47Q668.25 81.37 665.72 82.60Q663.19 83.83 660.30 84.67Q657.42 85.52 655.10 86.50L655.10 86.50Q655.10 86.78 655.35 86.78Q655.59 86.78 655.52 87.13L655.52 87.13Q657.21 88.19 658.20 88.82Q659.18 89.45 660.06 89.88Q660.94 90.30 661.96 90.61Q662.98 90.93 664.80 91.35L664.80 91.35Q666.63 91.77 667.65 92.02Q668.67 92.27 669.52 92.44Q670.36 92.62 671.24 92.72Q672.12 92.83 673.73 92.97L673.73 92.97Q674.37 93.60 674.82 94.48Q675.28 95.36 675.42 96.24Q675.56 97.12 675.49 97.93Q675.42 98.73 675 99.23L675 99.23Q675.07 99.44 675.32 99.40Q675.56 99.37 675.84 99.44L675.84 99.44Q675.42 99.72 675.14 100.14Q674.86 100.56 674.58 100.98Q674.30 101.41 673.95 101.72Q673.59 102.04 672.96 102.11L672.96 102.11Q670.78 102.95 667.48 102.21Q664.17 101.48 659.11 99.51L659.11 99.51Q656.58 98.52 655.00 97.79Q653.41 97.05 652.25 96.31Q651.09 95.57 650.14 94.73Q649.20 93.88 647.86 92.69ZM657.91 68.57L657.91 68.57Q657.14 69.70 656.19 70.61Q655.24 71.52 654.36 72.47Q653.48 73.42 652.78 74.58Q652.08 75.74 651.80 77.29L651.80 77.29Q654.26 77.01 656.93 75.92Q659.60 74.83 661.99 73.84L661.99 73.84Q661.71 71.66 660.48 70.33Q659.25 68.99 657.91 68.57ZM713.46 92.69L713.46 92.69Q712.69 95.50 712.09 96.94Q711.49 98.38 710.30 99.93L710.30 99.93Q709.38 99.79 709.03 100.14Q708.68 100.49 708.26 100.77L708.26 100.77Q707.63 100.91 707.34 100.77Q707.06 100.63 706.85 100.46Q706.64 100.28 706.32 100.11Q706.01 99.93 705.38 99.93L705.38 99.93Q705.23 99.37 705.06 98.88Q704.88 98.38 704.11 98.52L704.11 98.52Q704.25 97.96 704.18 97.57Q704.11 97.19 704.00 96.87Q703.90 96.55 703.83 96.24Q703.76 95.92 703.90 95.43L703.90 95.43Q703.55 95.43 703.34 94.94Q703.13 94.45 702.84 93.95L702.84 93.95Q703.05 92.69 703.27 91.56Q703.48 90.44 703.79 89.45Q704.11 88.47 704.32 87.48Q704.53 86.50 704.11 85.45L704.11 85.45Q704.39 85.66 704.53 85.34Q704.67 85.02 704.74 84.50Q704.81 83.97 704.81 83.44Q704.81 82.91 704.74 82.56L704.74 82.56Q705.45 80.73 705.90 78.80Q706.36 76.87 706.75 74.97Q707.13 73.07 707.55 71.24Q707.98 69.41 708.68 67.87L708.68 67.87Q709.45 67.73 710.40 68.04Q711.35 68.36 711.56 68.85L711.56 68.85Q713.39 67.45 714.80 65.44Q716.20 63.44 717.68 61.54Q719.16 59.64 720.95 58.16Q722.74 56.69 725.48 56.41L725.48 56.41Q726.89 57.46 728.61 58.55Q730.34 59.64 731.46 61.40L731.46 61.40Q732.02 61.68 732.41 62.00Q732.80 62.31 733.36 62.66L733.36 62.66L733.36 63.51Q734.20 64.28 734.73 65.30Q735.26 66.32 735.68 67.48Q736.10 68.64 736.52 69.80Q736.95 70.96 737.51 72.02L737.51 72.02Q737.37 72.37 737.37 72.61Q737.37 72.86 737.47 73.14Q737.58 73.42 737.65 73.70Q737.72 73.98 737.65 74.48L737.65 74.48Q737.44 77.57 735.64 79.47Q733.85 81.37 731.32 82.60Q728.79 83.83 725.91 84.67Q723.02 85.52 720.70 86.50L720.70 86.50Q720.70 86.78 720.95 86.78Q721.20 86.78 721.13 87.13L721.13 87.13Q722.81 88.19 723.80 88.82Q724.78 89.45 725.66 89.88Q726.54 90.30 727.56 90.61Q728.58 90.93 730.41 91.35L730.41 91.35Q732.23 91.77 733.25 92.02Q734.27 92.27 735.12 92.44Q735.96 92.62 736.84 92.72Q737.72 92.83 739.34 92.97L739.34 92.97Q739.97 93.60 740.43 94.48Q740.88 95.36 741.02 96.24Q741.16 97.12 741.09 97.93Q741.02 98.73 740.60 99.23L740.60 99.23Q740.67 99.44 740.92 99.40Q741.16 99.37 741.45 99.44L741.45 99.44Q741.02 99.72 740.74 100.14Q740.46 100.56 740.18 100.98Q739.90 101.41 739.55 101.72Q739.20 102.04 738.56 102.11L738.56 102.11Q736.38 102.95 733.08 102.21Q729.77 101.48 724.71 99.51L724.71 99.51Q722.18 98.52 720.60 97.79Q719.02 97.05 717.86 96.31Q716.70 95.57 715.75 94.73Q714.80 93.88 713.46 92.69ZM723.52 68.57L723.52 68.57Q722.74 69.70 721.79 70.61Q720.84 71.52 719.96 72.47Q719.09 73.42 718.38 74.58Q717.68 75.74 717.40 77.29L717.40 77.29Q719.86 77.01 722.53 75.92Q725.20 74.83 727.59 73.84L727.59 73.84Q727.31 71.66 726.08 70.33Q724.85 68.99 723.52 68.57ZM780.33 60.41L780.33 60.41Q780.40 60.91 780.36 61.15Q780.33 61.40 780.29 61.61Q780.26 61.82 780.26 62.07Q780.26 62.31 780.40 62.80L780.40 62.80Q778.92 65.20 776.99 66.07Q775.05 66.95 772.80 67.34Q770.55 67.73 768.20 68.15Q765.84 68.57 763.52 69.98L763.52 69.98Q762.61 69.63 761.87 69.98Q761.13 70.33 759.73 70.19L759.73 70.19Q759.30 70.61 758.67 70.79Q758.04 70.96 757.41 71.17L757.41 71.17Q757.69 71.80 757.65 72.47Q757.62 73.14 757.83 73.56L757.83 73.56Q760.29 73.77 763.28 73.49Q766.27 73.21 769.15 73.14L769.15 73.14Q769.22 73.49 769.08 73.60Q768.94 73.70 769.01 73.98L769.01 73.98Q769.50 74.34 769.99 74.86Q770.48 75.39 770.98 75.88Q771.47 76.38 772.00 76.69Q772.52 77.01 773.23 76.94L773.23 76.94Q773.51 77.50 773.61 78.17Q773.72 78.84 773.44 79.54L773.44 79.54Q772.31 80.31 771.19 81.12Q770.06 81.93 768.83 82.56Q767.60 83.20 766.23 83.58Q764.86 83.97 763.17 83.90L763.17 83.90Q762.82 83.90 762.64 83.90Q762.47 83.90 762.19 83.69L762.19 83.69Q761.63 84.04 760.61 83.90Q759.59 83.76 759.02 84.11L759.02 84.11Q758.25 83.76 757.16 83.79Q756.07 83.83 755.23 83.55L755.23 83.55Q754.10 85.02 753.19 86.71Q752.27 88.40 751.57 90.30L751.57 90.30Q753.96 90.65 755.54 90.58Q757.13 90.51 758.53 90.33Q759.94 90.16 761.41 89.98Q762.89 89.80 765.14 89.88L765.14 89.88Q766.55 89.10 768.48 88.86Q770.41 88.61 772.03 88.05L772.03 88.05Q772.59 88.26 773.02 88.79Q773.44 89.31 773.82 89.77Q774.21 90.23 774.63 90.58Q775.05 90.93 775.69 90.86L775.69 90.86Q775.97 91.14 776.07 91.53Q776.18 91.91 776.25 92.27Q776.32 92.62 776.50 92.86Q776.67 93.11 777.09 93.04L777.09 93.04Q776.04 95.36 774.67 96.59Q773.30 97.82 771.54 98.45Q769.78 99.09 767.64 99.44Q765.49 99.79 762.89 100.28L762.89 100.28Q762.26 100.42 761.84 100.25Q761.41 100.07 760.85 100.07L760.85 100.07Q759.23 100.42 756.98 100.70Q754.73 100.98 752.41 100.91Q750.09 100.84 747.98 100.32Q745.88 99.79 744.54 98.45L744.54 98.45Q743.98 97.96 743.80 97.29Q743.63 96.63 742.85 96.27L742.85 96.27Q742.78 95.36 742.57 94.23Q742.36 93.11 742.15 91.88Q741.94 90.65 741.83 89.45Q741.73 88.26 741.94 87.27L741.94 87.27Q742.15 86.22 742.82 85.38Q743.48 84.53 743.27 83.55L743.27 83.55Q743.63 83.48 743.70 83.16Q743.77 82.84 744.26 82.91L744.26 82.91Q744.68 81.65 745.17 80.52Q745.66 79.40 746.19 78.34Q746.72 77.29 747.25 76.20Q747.77 75.11 748.27 73.77L748.27 73.77Q747.28 72.86 746.82 71.77Q746.37 70.68 746.16 69.59Q745.95 68.50 745.80 67.34Q745.66 66.18 745.31 64.98L745.31 64.98Q746.02 63.93 747.04 63.26Q748.05 62.59 749.25 62.17Q750.45 61.75 751.85 61.47Q753.26 61.19 754.80 60.84L754.80 60.84Q757.62 59.92 759.83 59.43Q762.05 58.94 764.19 58.62Q766.34 58.30 768.66 58.02Q770.98 57.74 773.93 57.18L773.93 57.18Q774.56 57.81 775.13 57.81L775.13 57.81Q775.41 57.18 775.79 57.43Q776.18 57.67 776.11 57.04L776.11 57.04Q776.81 58.23 777.90 59.04Q778.99 59.85 780.33 60.41ZM828.49 87.34L828.49 87.34Q826.80 90.37 824.06 92.02Q821.32 93.67 818.02 94.76Q814.71 95.85 811.09 96.70Q807.47 97.54 804.09 98.88L804.09 98.88Q803.11 98.88 802.37 98.95Q801.63 99.02 800.96 99.12Q800.30 99.23 799.66 99.33Q799.03 99.44 798.26 99.51L798.26 99.51Q797.98 99.44 797.91 99.61Q797.84 99.79 797.70 99.93L797.70 99.93Q796.50 100.14 795.55 100.14Q794.60 100.14 793.97 100.14L793.97 100.14Q793.13 100.14 792.25 100.39Q791.37 100.63 790.66 100.56L790.66 100.56Q785.39 100.28 782.40 96.80Q779.41 93.32 779.06 87.13L779.06 87.13Q779.13 86.78 778.96 86.71Q778.78 86.64 778.64 86.50L778.64 86.50Q778.64 85.80 778.82 85.30Q778.99 84.81 778.85 84.04L778.85 84.04Q780.68 80.17 783 76.83Q785.32 73.49 788.55 70.96L788.55 70.96Q789.05 70.54 789.40 70.12Q789.75 69.70 790.07 69.27Q790.38 68.85 790.80 68.54Q791.23 68.22 791.86 68.08L791.86 68.08Q793.34 66.39 795.38 64.98Q797.41 63.58 799.66 62.28Q801.91 60.98 804.13 59.68Q806.34 58.38 808.17 56.76L808.17 56.76Q808.95 57.11 809.30 56.97Q809.65 56.83 810.07 56.97L810.07 56.97Q810.56 58.02 811.44 58.45Q812.32 58.87 813.20 59.32Q814.08 59.78 814.85 60.41Q815.63 61.05 816.05 62.10L816.05 62.10Q815.63 62.10 815.66 62.42Q815.70 62.73 815.84 63.05Q815.98 63.37 815.94 63.68Q815.91 64 815.41 64L815.41 64Q815.48 64.35 815.87 64.39Q816.26 64.42 816.26 64.77L816.26 64.77Q816.26 65.13 816.08 65.34Q815.91 65.55 816.05 66.04L816.05 66.04Q814.64 66.95 812.92 67.80Q811.20 68.64 809.33 69.59Q807.47 70.54 805.46 71.63Q803.46 72.72 801.56 74.13L801.56 74.13Q799.66 75.53 797.70 77.25Q795.73 78.98 793.90 80.88Q792.07 82.77 790.45 84.78Q788.84 86.78 787.71 88.75L787.71 88.75Q787.85 89.10 788.03 89.28Q788.20 89.45 788.34 89.80L788.34 89.80Q790.59 89.95 792.53 89.77Q794.46 89.59 796.43 90.02L796.43 90.02Q796.64 89.88 796.71 89.59Q796.78 89.31 797.06 89.17L797.06 89.17Q801.07 88.75 804.52 87.87Q807.96 86.99 811.55 86.01L811.55 86.01Q810.98 85.80 810.53 85.62Q810.07 85.45 809.65 85.30L809.65 85.30Q809.30 84.95 809.68 84.71Q810.07 84.46 810.35 84.18L810.35 84.18Q809.37 83.62 808.77 82.77Q808.17 81.93 808.03 80.52L808.03 80.52Q808.45 80.17 808.45 79.68Q808.45 79.19 808.03 78.91L808.03 78.91Q807.75 78.84 807.68 78.91Q807.61 78.98 807.57 79.12Q807.54 79.26 807.47 79.36Q807.40 79.47 807.12 79.33L807.12 79.33Q807.19 78.70 807.43 78.27Q807.68 77.85 807.82 77.29L807.82 77.29L812.67 74.05Q813.45 74.62 814.57 75.29Q815.70 75.95 816.93 76.62Q818.16 77.29 819.46 77.96Q820.76 78.63 821.88 79.26L821.88 79.26Q822.87 79.68 823.64 80.38Q824.41 81.09 825.12 81.82Q825.82 82.56 826.56 83.27Q827.30 83.97 828.28 84.46L828.28 84.46Q828.14 85.38 828.35 85.94Q828.56 86.50 828.49 87.34ZM867.09 59.99L867.09 59.99Q867.23 61.54 867.59 62.66Q867.94 63.79 868.36 64.84L868.36 64.84Q868.71 65.83 869.03 66.78Q869.34 67.73 869.48 69.06L869.48 69.06Q868.92 70.89 868.68 72.44Q868.43 73.98 868.15 75.67L868.15 75.67Q867.02 78.13 865.97 80.03Q864.91 81.93 864.28 83.34L864.28 83.34Q863.93 83.69 863.68 84.14Q863.44 84.60 863.16 85.09L863.16 85.09Q863.02 85.30 862.80 85.73Q862.59 86.15 862.45 86.29L862.45 86.29L861.05 85.80L860.77 87.55L859.78 87.84L859.08 88.68Q857.74 91 856.27 92.58Q854.79 94.16 852.93 95.39Q851.06 96.63 848.71 97.68Q846.35 98.73 843.40 100L843.40 100Q842.20 99.86 841.32 99.82Q840.45 99.79 839.67 99.72L839.67 99.72Q838.34 99.72 836.37 99.51L836.37 99.51Q836.16 98.95 835.73 98.73Q835.31 98.52 834.96 98.52L834.96 98.52Q833.77 97.96 833.17 96.87Q832.57 95.78 832.01 94.52L832.01 94.52Q831.66 93.74 831.30 93.07Q830.95 92.41 830.53 91.70L830.53 91.70L831.73 91.35L830.18 89.66Q830.04 89.45 829.83 89.28Q829.62 89.10 829.48 88.89L829.48 88.89L829.41 87.77Q829.20 82.91 829.23 78.87Q829.27 74.83 830.32 71.66L830.32 71.66L830.32 70.89Q830.53 69.34 830.74 68.32Q830.95 67.30 831.09 66.39L831.09 66.39Q831.30 64.84 831.73 63.51L831.73 63.51Q832.71 63.30 833.20 62.70Q833.70 62.10 834.05 61.61L834.05 61.61Q835.03 61.54 835.38 61.89Q835.73 62.24 836.09 63.02L836.09 63.02Q836.44 63.65 836.96 64.42Q837.49 65.20 838.55 65.62L838.55 65.62Q838.69 66.18 838.93 66.78Q839.18 67.38 839.46 68.08L839.46 68.08Q840.02 69.27 840.48 70.57Q840.94 71.88 841.01 73.07L841.01 73.07Q840.30 74.41 839.92 76.16Q839.53 77.92 839.43 79.71Q839.32 81.51 839.50 83.16Q839.67 84.81 840.09 85.94L840.09 85.94L840.52 86.85L841.71 86.71Q843.82 86.15 845.54 85.48Q847.27 84.81 848.74 83.90Q850.22 82.98 851.55 81.75Q852.89 80.52 854.37 78.91L854.37 78.91Q855.84 77.29 856.93 75.21Q858.02 73.14 858.76 70.89Q859.50 68.64 859.89 66.43Q860.27 64.21 860.41 62.24L860.41 62.24Q861.61 61.82 861.61 60.55L861.61 60.55L861.47 59.78Q861.19 59.36 861.47 58.80L861.47 58.80Q861.89 57.46 863.44 56.76L863.44 56.76Q864.56 57.46 865.44 58.30Q866.32 59.15 867.09 59.99ZM887.91 98.80L886.29 99.23Q884.32 99.86 882 100.49Q879.68 101.13 877.36 101.13L877.36 101.13Q873.84 101.13 871.80 99.37L871.80 99.37Q871.45 98.59 871.17 98.31L871.17 98.31Q870.96 98.03 870.79 97.71Q870.61 97.40 870.54 96.84L870.54 96.84Q869.70 95.85 869.20 94.55Q868.71 93.25 868.54 91.88Q868.36 90.51 868.46 89.10Q868.57 87.70 868.92 86.43L868.92 86.43Q869.06 86.15 869.10 85.87Q869.13 85.59 869.20 85.23L869.20 85.23Q869.48 84.11 869.80 83.05Q870.12 82 870.68 81.23L870.68 81.23Q870.40 80.59 870.68 79.82Q870.96 79.05 871.31 78.41L871.31 78.41Q872.30 75.74 872.96 73.88Q873.63 72.02 874.34 70.19L874.34 70.19Q875.53 67.02 876.59 63.93Q877.64 60.84 878.48 57.25L878.48 57.25Q879.05 56.90 879.33 56.76L879.33 56.76Q879.75 56.62 880.03 56.55L880.03 56.55Q881.30 57.18 882.98 57.78Q884.67 58.38 885.80 58.38L885.80 58.38Q886.36 58.73 886.50 58.90Q886.64 59.08 886.78 59.22L886.78 59.22Q887.55 60.13 888.12 61.08Q888.68 62.03 888.47 63.58L888.47 63.58Q888.05 64.21 887.84 64.21L887.84 64.21Q887.48 65.62 887.10 66.60Q886.71 67.59 886.29 68.57L886.29 68.57Q885.80 69.63 885.38 70.68Q884.95 71.73 884.67 73.28L884.67 73.28Q884.39 73.63 884.29 73.91Q884.18 74.20 884.04 74.55L884.04 74.55Q883.90 74.90 883.72 75.29Q883.55 75.67 883.20 75.95L883.20 75.95Q882.98 77.78 882.53 78.91Q882.07 80.03 881.58 81.16L881.58 81.16Q880.73 83.20 880.07 85.23Q879.40 87.27 879.26 89.88L879.26 89.88Q879.61 89.73 879.93 89.73Q880.24 89.73 880.52 89.73L880.52 89.73Q881.16 89.73 882 89.95L882 89.95Q884.11 88.82 886.61 88.61Q889.10 88.40 891.56 88.33L891.56 88.33Q892.55 88.33 893.53 88.33Q894.52 88.33 895.36 88.19L895.36 88.19Q895.99 88.54 896.17 88.57Q896.34 88.61 896.70 88.61L896.70 88.61Q897.19 88.61 897.54 88.68L897.54 88.68Q898.38 89.45 899.16 89.80Q899.93 90.16 900.77 90.44L900.77 90.44Q901.55 90.72 902.29 91.04Q903.02 91.35 903.73 91.91L903.73 91.91L904.22 94.94Q904.71 95.57 904.64 95.78L904.64 95.78Q904.64 96.34 904.36 96.63L904.36 96.63L904.50 97.40Q903.45 97.61 903.06 97.89Q902.67 98.17 902.32 98.52L902.32 98.52Q901.76 98.59 901.51 98.59Q901.27 98.59 901.05 98.59L901.05 98.59Q900.07 98.59 898.66 98.95L898.66 98.95Q896.77 98.31 894.73 98.31L894.73 98.31Q893.95 98.31 893.11 98.38Q892.27 98.45 891.42 98.52L891.42 98.52Q890.58 98.66 889.70 98.73Q888.82 98.80 887.91 98.80L887.91 98.80ZM943.45 93.81L943.31 94.09Q942.89 95.29 942.08 96.52Q941.27 97.75 940.18 98.70Q939.09 99.65 937.76 100.28Q936.42 100.91 934.95 100.98L934.95 100.98Q934.03 100.77 933.71 100.53Q933.40 100.28 933.05 100.07L933.05 100.07Q932.84 99.93 932.66 99.82Q932.48 99.72 932.34 99.65L932.34 99.65L931.50 99.30L931.78 98.38Q931.92 97.82 931.71 97.50Q931.50 97.19 930.87 96.63L930.87 96.63Q930.66 96.41 930.45 96.20Q930.23 95.99 930.09 95.78L930.09 95.78L928.90 94.45L930.80 93.95Q932.55 93.46 933.15 92.69Q933.75 91.91 933.61 90.09L933.61 90.09Q932.20 89.80 931.25 90.02Q930.30 90.23 929.32 90.51L929.32 90.51Q928.05 90.86 926.75 91.11Q925.45 91.35 923.91 91.35L923.91 91.35Q923.34 91.35 922.85 91.32Q922.36 91.28 921.80 91.21L921.80 91.21L921.09 91.07Q920.95 90.30 920.81 90.19Q920.67 90.09 920.53 89.95L920.53 89.95Q920.18 89.59 919.79 89.00Q919.41 88.40 919.62 87.48L919.62 87.48Q919.27 86.85 919.20 86.22L919.20 86.22Q918.77 87.06 918.56 87.98L918.56 87.98L918.28 88.68L917.58 88.82Q917.44 88.89 917.37 89.14Q917.30 89.38 917.30 89.52L917.30 89.52L916.95 90.72Q916.80 90.86 916.66 90.96Q916.52 91.07 916.38 91.21L916.38 91.21Q916.24 91.84 916.03 92.48Q915.82 93.11 915.61 93.67L915.61 93.67Q915.26 94.59 915.01 95.46Q914.77 96.34 914.84 97.19L914.84 97.19L914.55 97.96Q914.20 98.38 913.78 98.63Q913.36 98.88 912.94 99.09L912.94 99.09Q912.80 99.23 912.55 99.33Q912.30 99.44 912.16 99.51L912.16 99.51L911.95 100.28L911.11 100.42Q910.34 100.56 910.02 100.63Q909.70 100.70 909.28 100.70L909.28 100.70L908.58 100.63Q907.80 100 907.38 99.61Q906.96 99.23 906.40 98.88L906.40 98.88Q905.77 98.03 905.70 97.61Q905.63 97.19 905.55 96.84L905.55 96.84Q905.41 96.41 905.38 96.13Q905.34 95.85 905.20 95.71L905.20 95.71L904.29 94.87L905.06 94.23L905.13 93.04Q906.54 89.45 908.12 86.15Q909.70 82.84 911.39 79.40L911.39 79.40Q911.95 78.27 912.48 77.15Q913.01 76.02 913.57 74.90L913.57 74.90Q913.50 74.69 913.50 74.41Q913.50 74.13 913.64 73.77L913.64 73.77Q914.41 72.58 914.91 71.63Q915.40 70.68 915.89 69.70L915.89 69.70Q916.45 68.50 917.05 67.38Q917.65 66.25 918.56 65.05L918.56 65.05L919.69 64.56Q919.90 64.49 920.18 64.39Q920.46 64.28 920.81 64.28L920.81 64.28L921.87 64.42Q923.84 63.51 925.31 61.86Q926.79 60.20 928.34 57.88L928.34 57.88L929.04 56.90L929.95 57.46Q930.30 57.67 930.94 57.85Q931.57 58.02 932.27 58.23L932.27 58.23Q933.54 58.52 934.66 58.87Q935.79 59.22 936.49 59.92L936.49 59.92Q936.91 61.05 936.98 61.61Q937.05 62.17 937.20 62.73L937.20 62.73Q937.41 63.93 937.58 65.13Q937.76 66.32 937.83 67.80L937.83 67.80Q938.18 68.99 938.43 70.15Q938.67 71.31 938.88 72.51L938.88 72.51Q939.23 74.20 939.59 75.78Q939.94 77.36 940.50 78.77L940.50 78.77Q941.06 78.77 941.20 78.84L941.20 78.84Q941.55 78.70 941.94 78.63Q942.33 78.55 942.82 78.48L942.82 78.48L943.59 78.41L943.88 79.12Q943.95 79.47 944.58 79.82L944.58 79.82Q945.49 79.89 945.91 80.21Q946.34 80.52 946.69 80.88L946.69 80.88Q946.97 81.16 947.25 81.30L947.25 81.30L948.30 81.72L947.74 82.77Q947.04 84.04 945.74 85.20Q944.44 86.36 942.82 87.13L942.82 87.13Q942.89 87.55 942.93 87.94Q942.96 88.33 943.10 88.75L943.10 88.75Q943.31 89.95 943.45 91.21Q943.59 92.48 943.45 93.81L943.45 93.81ZM922.99 81.93L922.99 81.93Q925.10 81.79 926.82 81.61Q928.55 81.44 930.66 81.02L930.66 81.02Q930.16 78.91 929.60 76.62Q929.04 74.34 928.41 72.09L928.41 72.09L927.98 72.79Q926.58 74.27 925.28 76.09Q923.98 77.92 923.06 79.54L923.06 79.54Q922.64 80.17 922.22 80.80Q921.80 81.44 921.45 82.07L921.45 82.07Q921.87 82 922.25 82Q922.64 82 922.99 81.93ZM959.27 92.69L959.27 92.69Q958.50 95.50 957.90 96.94Q957.30 98.38 956.11 99.93L956.11 99.93Q955.20 99.79 954.84 100.14Q954.49 100.49 954.07 100.77L954.07 100.77Q953.44 100.91 953.16 100.77Q952.88 100.63 952.66 100.46Q952.45 100.28 952.14 100.11Q951.82 99.93 951.19 99.93L951.19 99.93Q951.05 99.37 950.87 98.88Q950.70 98.38 949.92 98.52L949.92 98.52Q950.06 97.96 949.99 97.57Q949.92 97.19 949.82 96.87Q949.71 96.55 949.64 96.24Q949.57 95.92 949.71 95.43L949.71 95.43Q949.36 95.43 949.15 94.94Q948.94 94.45 948.66 93.95L948.66 93.95Q948.87 92.69 949.08 91.56Q949.29 90.44 949.61 89.45Q949.92 88.47 950.13 87.48Q950.34 86.50 949.92 85.45L949.92 85.45Q950.20 85.66 950.34 85.34Q950.48 85.02 950.55 84.50Q950.63 83.97 950.63 83.44Q950.63 82.91 950.55 82.56L950.55 82.56Q951.26 80.73 951.71 78.80Q952.17 76.87 952.56 74.97Q952.95 73.07 953.37 71.24Q953.79 69.41 954.49 67.87L954.49 67.87Q955.27 67.73 956.21 68.04Q957.16 68.36 957.38 68.85L957.38 68.85Q959.20 67.45 960.61 65.44Q962.02 63.44 963.49 61.54Q964.97 59.64 966.76 58.16Q968.55 56.69 971.30 56.41L971.30 56.41Q972.70 57.46 974.43 58.55Q976.15 59.64 977.27 61.40L977.27 61.40Q977.84 61.68 978.22 62.00Q978.61 62.31 979.17 62.66L979.17 62.66L979.17 63.51Q980.02 64.28 980.54 65.30Q981.07 66.32 981.49 67.48Q981.91 68.64 982.34 69.80Q982.76 70.96 983.32 72.02L983.32 72.02Q983.18 72.37 983.18 72.61Q983.18 72.86 983.29 73.14Q983.39 73.42 983.46 73.70Q983.53 73.98 983.46 74.48L983.46 74.48Q983.25 77.57 981.46 79.47Q979.66 81.37 977.13 82.60Q974.60 83.83 971.72 84.67Q968.84 85.52 966.52 86.50L966.52 86.50Q966.52 86.78 966.76 86.78Q967.01 86.78 966.94 87.13L966.94 87.13Q968.63 88.19 969.61 88.82Q970.59 89.45 971.47 89.88Q972.35 90.30 973.37 90.61Q974.39 90.93 976.22 91.35L976.22 91.35Q978.05 91.77 979.07 92.02Q980.09 92.27 980.93 92.44Q981.77 92.62 982.65 92.72Q983.53 92.83 985.15 92.97L985.15 92.97Q985.78 93.60 986.24 94.48Q986.70 95.36 986.84 96.24Q986.98 97.12 986.91 97.93Q986.84 98.73 986.41 99.23L986.41 99.23Q986.48 99.44 986.73 99.40Q986.98 99.37 987.26 99.44L987.26 99.44Q986.84 99.72 986.55 100.14Q986.27 100.56 985.99 100.98Q985.71 101.41 985.36 101.72Q985.01 102.04 984.38 102.11L984.38 102.11Q982.20 102.95 978.89 102.21Q975.59 101.48 970.52 99.51L970.52 99.51Q967.99 98.52 966.41 97.79Q964.83 97.05 963.67 96.31Q962.51 95.57 961.56 94.73Q960.61 93.88 959.27 92.69ZM969.33 68.57L969.33 68.57Q968.55 69.70 967.61 70.61Q966.66 71.52 965.78 72.47Q964.90 73.42 964.20 74.58Q963.49 75.74 963.21 77.29L963.21 77.29Q965.67 77.01 968.34 75.92Q971.02 74.83 973.41 73.84L973.41 73.84Q973.13 71.66 971.89 70.33Q970.66 68.99 969.33 68.57Z"/></svg>