<svg xmlns="http://www.w3.org/2000/svg" viewBox="3.0240000000000005 43.55199999999999 749.4479999999999 69.98400000000001"><path d="M21 79L16 79L16 92Q16 95 16 96Q17 98 18 98Q20 98 23 99L23 99L23 100Q19 100 12 100L12 100Q6 100 3 100L3 100L3 99Q6 98 7 98Q8 98 8 96Q9 95 9 92L9 92L9 57Q9 54 8 53Q8 51 7 51Q6 51 3 50L3 50L3 49Q6 49 12 49L12 49L20 49Q21 49 23 49L23 49Q31 49 36 53Q40 57 40 63L40 63Q40 67 38 71Q37 75 32 77Q28 79 21 79L21 79ZM21 50Q19 50 18 51Q16 51 16 53Q16 54 16 57L16 57L16 78L20 78Q27 78 30 74Q33 70 33 64L33 64Q33 57 30 54Q27 50 21 50L21 50ZM55 44L55 93Q55 96 56 97Q57 98 60 98L60 98L60 100Q54 100 52 100L52 100Q50 100 43 100L43 100L43 98Q46 98 47 97Q49 96 49 93L49 93L49 52Q49 49 47 47Q46 46 43 46L43 46L43 44Q45 45 48 45L48 45Q52 45 55 44L55 44ZM74 101Q69 101 67 98Q65 96 65 92L65 92Q65 89 67 87Q68 85 71 83Q73 82 77 81L77 81Q81 79 83 78Q85 77 85 75L85 75L85 71Q85 66 83 65Q82 63 78 63L78 63Q73 63 71 66L71 66Q73 66 74 67Q75 69 75 70L75 70Q75 72 74 73Q72 74 71 74L71 74Q69 74 68 73Q67 72 67 70L67 70Q67 68 67 67Q68 66 70 65L70 65Q72 63 74 63Q77 62 80 62L80 62Q86 62 89 65L89 65Q90 66 91 69Q92 71 92 75L92 75L92 95Q92 97 92 97Q93 98 94 98L94 98Q95 98 95 98Q96 97 97 97L97 97L98 98Q96 99 95 100Q93 101 91 101L91 101Q88 101 86 99Q85 97 85 94L85 94Q83 98 80 99Q77 101 74 101L74 101ZM77 98Q82 98 85 92L85 92L85 78Q84 79 83 80Q82 80 80 81L80 81Q77 83 75 84Q74 85 72 86Q71 88 71 91L71 91Q71 94 73 96Q74 98 77 98L77 98ZM128 63Q131 63 133 63L133 63L133 64Q132 65 131 66Q129 67 128 69L128 69L117 100L114 107Q113 110 111 112L111 112Q110 113 108 113Q107 114 105 114L105 114Q103 114 102 112Q101 111 101 109L101 109Q101 107 102 106Q103 105 104 105L104 105Q106 105 107 106Q108 107 108 109L108 109Q108 111 106 112L106 112Q106 112 106 112L106 112Q110 112 113 106L113 106L115 100L102 68Q101 66 100 65Q98 64 97 64L97 64L97 63Q100 63 104 63L104 63Q108 63 114 63L114 63L114 64Q111 64 110 65Q109 65 109 67L109 67Q109 68 110 70L110 70L118 92L126 71Q127 69 127 68L127 68Q127 66 126 65Q124 65 122 64L122 64L122 63Q125 63 128 63L128 63ZM153 44Q157 44 159 46L159 46Q162 47 162 50L162 50Q162 52 161 53Q159 54 158 54L158 54Q156 54 155 53Q154 52 154 50L154 50Q154 49 155 48Q156 47 157 46L157 46Q157 46 156 45Q155 45 153 45L153 45Q152 45 151 45Q149 46 149 47L149 47Q148 49 148 52Q147 54 147 61L147 61L147 63L155 63L155 64L147 64L147 93Q147 96 149 97Q151 98 155 98L155 98L155 100L153 100Q146 100 144 100L144 100Q142 100 135 100L135 100L135 98Q138 98 140 97Q141 96 141 93L141 93L141 64L135 64L135 63L141 63Q141 57 142 53Q142 50 145 47L145 47Q146 46 148 45Q150 44 153 44L153 44ZM169 101Q164 101 162 98Q160 96 160 92L160 92Q160 89 162 87Q164 85 166 83Q168 82 172 81L172 81Q176 79 178 78Q180 77 180 75L180 75L180 71Q180 66 178 65Q177 63 174 63L174 63Q168 63 166 66L166 66Q168 66 169 67Q170 69 170 70L170 70Q170 72 169 73Q167 74 166 74L166 74Q164 74 163 73Q162 72 162 70L162 70Q162 68 162 67Q163 66 165 65L165 65Q167 63 169 63Q172 62 175 62L175 62Q181 62 184 65L184 65Q185 66 186 69Q187 71 187 75L187 75L187 95Q187 97 187 97Q188 98 189 98L189 98Q190 98 191 98Q191 97 192 97L192 97L193 98Q191 99 190 100Q188 101 186 101L186 101Q183 101 182 99Q180 97 180 94L180 94Q178 98 175 99Q172 101 169 101L169 101ZM172 98Q177 98 180 92L180 92L180 78Q180 79 178 80Q177 80 175 81L175 81Q172 83 170 84Q169 85 168 86Q166 88 166 91L166 91Q166 94 168 96Q169 98 172 98L172 98ZM203 45Q205 45 207 46Q208 48 208 50L208 50Q208 51 207 53Q205 54 203 54L203 54Q201 54 200 53Q199 51 199 50L199 50Q199 48 200 46Q201 45 203 45L203 45ZM207 62L207 93Q207 96 208 97Q210 98 213 98L213 98L213 100Q206 100 204 100L204 100Q202 100 195 100L195 100L195 98Q198 98 199 97Q201 96 201 93L201 93L201 71Q201 67 199 66Q198 64 195 64L195 64L195 63Q197 63 200 63L200 63Q204 63 207 62L207 62ZM239 62Q241 62 243 64Q245 65 245 68L245 68Q245 69 244 71Q243 72 241 72L241 72Q239 72 238 71Q237 70 237 68L237 68Q237 66 240 65L240 65Q239 64 238 64L238 64Q235 64 233 66Q231 68 229 71Q228 75 228 77L228 77L228 93Q228 96 230 97Q232 98 236 98L236 98L236 100L234 100Q227 100 225 100L225 100Q223 100 216 100L216 100L216 98Q219 98 220 97Q222 96 222 93L222 93L222 71Q222 67 220 66Q219 64 216 64L216 64L216 63Q219 63 221 63L221 63Q225 63 228 62L228 62L228 71Q229 68 232 65Q235 62 239 62L239 62ZM285 49Q298 49 304 55Q311 62 311 74L311 74Q311 82 308 88Q304 94 299 97Q293 100 285 100L285 100L280 100Q276 100 275 100L275 100Q269 100 266 100L266 100L266 99Q268 98 269 98Q271 98 271 96Q271 95 271 92L271 92L271 57Q271 54 271 53Q271 51 269 51Q268 51 266 50L266 50L266 49Q268 49 273 49L273 49L279 49Q284 49 285 49L285 49ZM283 50Q281 50 280 51Q279 51 279 53Q278 54 278 57L278 57L278 93Q278 95 279 96Q279 98 280 98Q281 99 284 99L284 99Q291 99 296 96Q300 93 302 88Q303 83 303 74L303 74Q303 66 302 61Q300 56 295 53Q291 50 283 50L283 50ZM325 45Q327 45 328 46Q330 48 330 50L330 50Q330 51 328 53Q327 54 325 54L325 54Q323 54 322 53Q320 51 320 50L320 50Q320 48 322 46Q323 45 325 45L325 45ZM329 62L329 93Q329 96 330 97Q331 98 334 98L334 98L334 100Q328 100 325 100L325 100Q323 100 317 100L317 100L317 98Q320 98 321 97Q322 96 322 93L322 93L322 71Q322 67 321 66Q320 64 317 64L317 64L317 63Q319 63 321 63L321 63Q326 63 329 62L329 62ZM351 62Q353 62 355 63Q357 63 359 65L359 65Q359 65 360 65L360 65Q361 65 361 62L361 62L363 62Q363 66 363 74L363 74L361 74Q360 69 358 66Q356 63 351 63L351 63Q349 63 347 65Q345 66 345 69L345 69Q345 71 347 73Q349 75 353 77L353 77Q353 77 355 78L355 78Q358 80 360 82Q362 84 363 86Q365 88 365 91L365 91Q365 96 361 98Q357 101 352 101L352 101Q349 101 347 100L347 100Q345 99 344 98L344 98Q343 98 343 98L343 98Q342 98 342 98Q342 99 341 101L341 101L340 101Q340 96 340 86L340 86L342 86Q343 93 345 96Q347 100 352 100L352 100Q354 100 356 98Q358 96 358 93L358 93Q358 90 356 88Q354 86 350 83L350 83Q346 81 345 80Q343 78 341 76Q340 74 340 71L340 71Q340 67 343 64Q346 62 351 62L351 62ZM393 62Q397 62 400 64Q403 66 405 70Q406 74 406 80L406 80Q406 85 405 90Q403 95 399 98Q395 101 390 101L390 101Q387 101 385 100Q383 99 381 97L381 97L381 106Q381 109 383 110Q385 112 388 112L388 112L388 113L387 113Q380 113 378 113L378 113Q376 113 370 113L370 113L370 112Q373 112 374 111Q375 110 375 107L375 107L375 71Q375 67 374 66Q373 64 370 64L370 64L370 63Q372 63 374 63L374 63Q379 63 381 62L381 62L381 70Q383 66 386 64Q389 62 393 62L393 62ZM389 99Q399 99 399 81L399 81Q399 64 391 64L391 64Q388 64 385 66Q383 69 381 73L381 73L381 95Q382 97 384 98Q386 99 389 99L389 99ZM423 44L423 93Q423 96 425 97Q426 98 429 98L429 98L429 100Q422 100 420 100L420 100Q418 100 411 100L411 100L411 98Q414 98 416 97Q417 96 417 93L417 93L417 52Q417 49 416 47Q414 46 411 46L411 46L411 44Q414 45 416 45L416 45Q420 45 423 44L423 44ZM442 101Q438 101 435 98Q433 96 433 92L433 92Q433 89 435 87Q437 85 439 83Q442 82 445 81L445 81Q449 79 451 78Q453 77 453 75L453 75L453 71Q453 66 452 65Q450 63 447 63L447 63Q442 63 440 66L440 66Q441 66 442 67Q443 69 443 70L443 70Q443 72 442 73Q441 74 439 74L439 74Q437 74 436 73Q435 72 435 70L435 70Q435 68 436 67Q436 66 438 65L438 65Q440 63 443 63Q445 62 448 62L448 62Q454 62 457 65L457 65Q459 66 459 69Q460 71 460 75L460 75L460 95Q460 97 460 97Q461 98 462 98L462 98Q463 98 464 98Q464 97 465 97L465 97L466 98Q464 99 463 100Q462 101 460 101L460 101Q456 101 455 99Q453 97 453 94L453 94Q451 98 448 99Q446 101 442 101L442 101ZM445 98Q450 98 453 92L453 92L453 78Q453 79 452 80Q450 80 448 81L448 81Q445 83 444 84Q442 85 441 86Q439 88 439 91L439 91Q439 94 441 96Q443 98 445 98L445 98ZM496 63Q499 63 501 63L501 63L501 64Q500 65 499 66Q498 67 497 69L497 69L485 100L482 107Q481 110 479 112L479 112Q478 113 477 113Q475 114 474 114L474 114Q472 114 470 112Q469 111 469 109L469 109Q469 107 470 106Q471 105 473 105L473 105Q474 105 475 106Q476 107 476 109L476 109Q476 111 474 112L474 112Q474 112 475 112L475 112Q479 112 481 106L481 106L483 100L470 68Q469 66 468 65Q467 64 465 64L465 64L465 63Q469 63 473 63L473 63Q476 63 482 63L482 63L482 64Q479 64 478 65Q477 65 477 67L477 67Q477 68 478 70L478 70L486 92L494 71Q495 69 495 68L495 68Q495 66 494 65Q493 65 490 64L490 64L490 63Q494 63 496 63L496 63ZM543 62Q545 62 547 64Q549 65 549 68L549 68Q549 69 548 71Q547 72 545 72L545 72Q543 72 542 71Q541 70 541 68L541 68Q541 66 544 65L544 65Q543 64 542 64L542 64Q539 64 537 66Q535 68 533 71Q532 75 532 77L532 77L532 93Q532 96 534 97Q536 98 540 98L540 98L540 100L538 100Q531 100 529 100L529 100Q527 100 520 100L520 100L520 98Q523 98 524 97Q526 96 526 93L526 93L526 71Q526 67 524 66Q523 64 520 64L520 64L520 63Q523 63 525 63L525 63Q529 63 532 62L532 62L532 71Q533 68 536 65Q539 62 543 62L543 62ZM581 91L582 91Q581 95 577 98Q574 101 569 101L569 101Q563 101 560 99Q556 96 554 92Q552 88 552 82L552 82Q552 76 554 71Q556 67 560 64Q563 62 568 62L568 62Q575 62 578 66Q582 70 582 78L582 78L559 78Q559 80 559 82L559 82Q559 87 561 91Q562 94 565 96Q567 98 570 98L570 98Q573 98 576 96Q579 95 581 91L581 91ZM568 63Q565 63 562 67Q560 70 559 76L559 76L575 76Q575 71 573 67Q571 63 568 63L568 63ZM619 69Q618 69 617 69Q616 68 616 66L616 66Q616 65 617 63L617 63Q615 63 614 64Q613 65 612 67L612 67Q613 69 613 73L613 73Q613 79 610 82Q607 85 601 85L601 85L601 85Q598 86 597 87Q596 88 596 90L596 90Q596 92 599 92L599 92L608 92Q613 92 616 94Q620 96 620 101L620 101Q620 104 617 107Q615 110 611 112Q607 114 600 114L600 114Q594 114 590 112Q586 110 586 106L586 106Q586 104 588 102Q590 100 593 99L593 99L594 100Q592 101 591 102Q590 104 590 105L590 105Q590 109 593 111Q596 112 601 112L601 112Q607 112 611 110Q615 108 615 104L615 104Q615 101 613 100Q611 98 606 98L606 98L601 98Q597 98 594 97Q592 96 592 93L592 93Q592 90 593 88Q595 86 599 85L599 85Q594 84 591 81Q588 78 588 73L588 73Q588 68 592 65Q595 62 601 62L601 62Q608 62 611 66L611 66Q612 64 614 62Q616 61 618 61L618 61Q620 61 622 62Q623 63 623 65L623 65Q623 67 622 68Q620 69 619 69L619 69ZM601 83Q604 83 605 81Q607 79 607 73L607 73Q607 68 605 65Q604 63 601 63L601 63Q598 63 596 65Q595 68 595 73L595 73Q595 79 596 81Q598 83 601 83L601 83ZM658 62L658 92Q658 96 659 97Q660 99 663 99L663 99L663 100Q661 100 659 100L659 100Q654 100 651 101L651 101L651 92Q650 97 647 99Q643 101 640 101L640 101Q635 101 632 98L632 98Q631 97 630 95Q630 92 630 89L630 89L630 71Q630 67 629 66Q627 64 624 64L624 64L624 63Q627 63 629 63L629 63Q633 63 636 62L636 62L636 90Q636 93 637 95Q637 97 638 98Q639 99 642 99L642 99Q644 99 647 97Q649 95 650 92Q651 89 651 86L651 86L651 71Q651 67 650 66Q649 64 646 64L646 64L646 63Q648 63 650 63L650 63Q655 63 658 62L658 62ZM679 44L679 93Q679 96 680 97Q681 98 684 98L684 98L684 100Q677 100 675 100L675 100Q673 100 667 100L667 100L667 98Q670 98 671 97Q672 96 672 93L672 93L672 52Q672 49 671 47Q670 46 667 46L667 46L667 44Q669 45 671 45L671 45Q676 45 679 44L679 44ZM697 101Q693 101 691 98Q688 96 688 92L688 92Q688 89 690 87Q692 85 694 83Q697 82 701 81L701 81Q705 79 707 78Q709 77 709 75L709 75L709 71Q709 66 707 65Q705 63 702 63L702 63Q697 63 695 66L695 66Q696 66 697 67Q698 69 698 70L698 70Q698 72 697 73Q696 74 694 74L694 74Q692 74 691 73Q690 72 690 70L690 70Q690 68 691 67Q692 66 693 65L693 65Q695 63 698 63Q700 62 704 62L704 62Q709 62 712 65L712 65Q714 66 714 69Q715 71 715 75L715 75L715 95Q715 97 716 97Q716 98 717 98L717 98Q718 98 719 98Q720 97 721 97L721 97L721 98Q719 99 718 100Q717 101 715 101L715 101Q711 101 710 99Q709 97 709 94L709 94Q706 98 704 99Q701 101 697 101L697 101ZM700 98Q705 98 709 92L709 92L709 78Q708 79 707 80Q706 80 703 81L703 81Q701 83 699 84Q697 85 696 86Q695 88 695 91L695 91Q695 94 696 96Q698 98 700 98L700 98ZM746 62Q749 62 751 64Q752 65 752 68L752 68Q752 69 751 71Q750 72 748 72L748 72Q747 72 746 71Q745 70 745 68L745 68Q745 66 747 65L747 65Q746 64 745 64L745 64Q743 64 740 66Q738 68 737 71Q735 75 735 77L735 77L735 93Q735 96 737 97Q739 98 743 98L743 98L743 100L741 100Q734 100 732 100L732 100Q730 100 724 100L724 100L724 98Q727 98 728 97Q729 96 729 93L729 93L729 71Q729 67 728 66Q727 64 724 64L724 64L724 63Q726 63 728 63L728 63Q733 63 735 62L735 62L735 71Q737 68 740 65Q742 62 746 62L746 62Z"/></svg>