<svg xmlns="http://www.w3.org/2000/svg" viewBox="2.016 43.69599999999999 739.152 69.84"><path d="M24.41 79.41L21.74 79.41L21.74 91.65Q21.74 94.67 22.36 96.04Q22.97 97.41 24.59 97.88Q26.21 98.34 29.74 98.34L29.74 98.34L29.74 100Q20.02 99.78 14.90 99.78L14.90 99.78Q11.52 99.78 5.47 99.93L5.47 99.93L2.02 100L2.02 98.56Q4.32 98.42 5.36 97.98Q6.41 97.55 6.77 96.33Q7.13 95.10 7.13 92.37L7.13 92.37L7.13 56.66Q7.13 53.92 6.73 52.70Q6.34 51.47 5.33 51.04Q4.32 50.61 2.02 50.46L2.02 50.46L2.02 49.02Q6.12 49.24 14.40 49.24L14.40 49.24L22.68 49.17Q24.12 49.10 25.99 49.10L25.99 49.10Q36.65 49.10 42.16 52.95Q47.66 56.80 47.66 63.28L47.66 63.28Q47.66 67.24 45.50 70.88Q43.34 74.51 38.16 76.96Q32.98 79.41 24.41 79.41L24.41 79.41ZM25.63 50.46Q23.98 50.46 23.15 50.97Q22.32 51.47 22.03 52.77Q21.74 54.06 21.74 56.66L21.74 56.66L21.74 77.97L23.69 77.97Q28.73 77.97 30.64 74.22Q32.54 70.48 32.54 64.07L32.54 64.07Q32.54 57.09 30.96 53.78Q29.38 50.46 25.63 50.46L25.63 50.46ZM66.31 43.70L66.31 93.30Q66.31 96.26 67.21 97.37Q68.11 98.49 70.34 98.49L70.34 98.49L70.34 100Q62.57 99.71 60.12 99.71L60.12 99.71Q57.67 99.71 49.32 100L49.32 100L49.32 98.49Q51.55 98.49 52.45 97.37Q53.35 96.26 53.35 93.30L53.35 93.30L53.35 52.34Q53.35 49.02 52.45 47.51Q51.55 46.00 49.32 46.00L49.32 46.00L49.32 44.49Q51.55 44.70 53.78 44.70L53.78 44.70Q61.27 44.70 66.31 43.70L66.31 43.70ZM82.51 100.50Q77.90 100.50 75.56 98.02Q73.22 95.54 73.22 91.79L73.22 91.79Q73.22 88.55 74.92 86.43Q76.61 84.30 78.91 83.15Q81.22 82 84.89 80.78L84.89 80.78Q88.78 79.48 90.58 78.40Q92.38 77.32 92.38 75.38L92.38 75.38L92.38 68.97Q92.38 66.66 91.22 64.86Q90.07 63.06 87.26 63.06L87.26 63.06Q85.03 63.06 83.23 64.29L83.23 64.29Q85.68 65.15 86.87 66.84Q88.06 68.54 88.06 70.62L88.06 70.62Q88.06 73.43 86.08 75.12Q84.10 76.82 81.29 76.82L81.29 76.82Q78.48 76.82 76.86 75.05Q75.24 73.29 75.24 70.55L75.24 70.55Q75.24 68.39 76.32 66.81Q77.40 65.22 79.70 63.93L79.70 63.93Q83.74 61.62 91.22 61.62L91.22 61.62Q95.18 61.62 98.06 62.38Q100.94 63.14 102.96 65.22L102.96 65.22Q104.40 66.74 104.87 69.00Q105.34 71.27 105.34 75.30L105.34 75.30L105.34 94.60Q105.34 96.40 105.59 97.05Q105.84 97.70 106.49 97.70L106.49 97.70Q106.99 97.70 107.57 97.37Q108.14 97.05 108.65 96.62L108.65 96.62L109.37 97.84Q106.27 100.50 100.51 100.50L100.51 100.50Q96.19 100.50 94.46 99.03Q92.74 97.55 92.59 95.03L92.59 95.03Q89.21 100.50 82.51 100.50L82.51 100.50ZM89.71 94.74Q91.22 94.74 92.38 93.52L92.38 93.52L92.38 78.33Q91.73 79.41 90 81.14L90 81.14Q88.06 83.01 87.05 84.77Q86.04 86.54 86.04 89.56L86.04 89.56Q86.04 94.74 89.71 94.74L89.71 94.74ZM141.34 62.92Q145.44 62.92 146.88 62.63L146.88 62.63L146.88 64.14Q145.37 64.65 144.11 66.23Q142.85 67.82 141.77 71.13L141.77 71.13L132.77 97.91L129.74 106.62Q128.45 110.37 126.58 111.81L126.58 111.81Q124.34 113.54 119.88 113.54L119.88 113.54Q116.28 113.54 113.18 111.84Q110.09 110.15 110.09 106.77L110.09 106.77Q110.09 104.25 112.03 102.74Q113.98 101.22 117.14 101.22L117.14 101.22Q120.17 101.22 121.90 102.59Q123.62 103.96 123.62 106.55L123.62 106.55Q123.62 108.28 122.44 109.83Q121.25 111.38 118.94 112.10L118.94 112.10Q119.66 112.24 121.39 112.24L121.39 112.24Q126.36 112.24 128.23 106.48L128.23 106.48L128.59 105.26L111.82 68.18Q110.74 65.73 109.69 64.94Q108.65 64.14 107.64 64.14L107.64 64.14L107.64 62.63Q113.40 63.06 119.38 63.06L119.38 63.06Q124.06 63.06 129.82 62.63L129.82 62.63L129.82 64.14Q127.73 64.14 126.61 64.43Q125.50 64.72 125.50 65.73L125.50 65.73Q125.50 66.30 125.78 66.88L125.78 66.88L134.64 87.98L137.66 78.76Q139.03 74.58 139.03 71.42L139.03 71.42Q139.03 68.03 137.59 66.16Q136.15 64.29 133.78 64.14L133.78 64.14L133.78 62.63Q136.44 62.92 141.34 62.92L141.34 62.92ZM167.18 43.70Q172.37 43.70 175.82 46.36L175.82 46.36Q176.98 47.22 177.73 48.81Q178.49 50.39 178.49 52.34L178.49 52.34Q178.49 54.64 176.80 56.40Q175.10 58.17 172.51 58.17L172.51 58.17Q169.49 58.17 167.76 56.58Q166.03 55.00 166.03 52.19L166.03 52.19Q166.03 50.03 167.29 48.30Q168.55 46.58 171.00 45.78L171.00 45.78Q170.50 45.14 169.06 45.14L169.06 45.14Q166.82 45.14 165.67 46.50L165.67 46.50Q164.95 47.37 164.63 48.84Q164.30 50.32 164.30 53.06L164.30 53.06L164.30 62.70L172.01 62.70L172.01 64.14L164.30 64.14L164.30 92.58Q164.30 95.90 165.85 97.19Q167.40 98.49 170.50 98.49L170.50 98.49L170.50 100L168.41 99.93Q159.77 99.71 157.25 99.71L157.25 99.71Q155.09 99.71 147.31 100L147.31 100L147.31 98.49Q149.54 98.49 150.44 97.37Q151.34 96.26 151.34 93.30L151.34 93.30L151.34 64.14L147.02 64.14L147.02 62.70L151.34 62.70Q151.34 56.44 152.46 53.09Q153.58 49.74 156.46 47.30L156.46 47.30Q158.26 45.78 161.14 44.74Q164.02 43.70 167.18 43.70L167.18 43.70ZM183.02 100.50Q178.42 100.50 176.08 98.02Q173.74 95.54 173.74 91.79L173.74 91.79Q173.74 88.55 175.43 86.43Q177.12 84.30 179.42 83.15Q181.73 82 185.40 80.78L185.40 80.78Q189.29 79.48 191.09 78.40Q192.89 77.32 192.89 75.38L192.89 75.38L192.89 68.97Q192.89 66.66 191.74 64.86Q190.58 63.06 187.78 63.06L187.78 63.06Q185.54 63.06 183.74 64.29L183.74 64.29Q186.19 65.15 187.38 66.84Q188.57 68.54 188.57 70.62L188.57 70.62Q188.57 73.43 186.59 75.12Q184.61 76.82 181.80 76.82L181.80 76.82Q178.99 76.82 177.37 75.05Q175.75 73.29 175.75 70.55L175.75 70.55Q175.75 68.39 176.83 66.81Q177.91 65.22 180.22 63.93L180.22 63.93Q184.25 61.62 191.74 61.62L191.74 61.62Q195.70 61.62 198.58 62.38Q201.46 63.14 203.47 65.22L203.47 65.22Q204.91 66.74 205.38 69.00Q205.85 71.27 205.85 75.30L205.85 75.30L205.85 94.60Q205.85 96.40 206.10 97.05Q206.35 97.70 207.00 97.70L207.00 97.70Q207.50 97.70 208.08 97.37Q208.66 97.05 209.16 96.62L209.16 96.62L209.88 97.84Q206.78 100.50 201.02 100.50L201.02 100.50Q196.70 100.50 194.98 99.03Q193.25 97.55 193.10 95.03L193.10 95.03Q189.72 100.50 183.02 100.50L183.02 100.50ZM190.22 94.74Q191.74 94.74 192.89 93.52L192.89 93.52L192.89 78.33Q192.24 79.41 190.51 81.14L190.51 81.14Q188.57 83.01 187.56 84.77Q186.55 86.54 186.55 89.56L186.55 89.56Q186.55 94.74 190.22 94.74L190.22 94.74ZM221.98 43.70Q225.72 43.70 227.77 45.28Q229.82 46.86 229.82 49.89L229.82 49.89Q229.82 52.91 227.77 54.50Q225.72 56.08 221.98 56.08L221.98 56.08Q218.16 56.08 216.14 54.50Q214.13 52.91 214.13 49.89L214.13 49.89Q214.13 46.86 216.14 45.28Q218.16 43.70 221.98 43.70L221.98 43.70ZM228.89 61.84L228.89 93.30Q228.89 96.26 229.79 97.37Q230.69 98.49 232.92 98.49L232.92 98.49L232.92 100Q225.14 99.71 222.70 99.71L222.70 99.71Q220.25 99.71 211.90 100L211.90 100L211.90 98.49Q214.13 98.49 215.03 97.37Q215.93 96.26 215.93 93.30L215.93 93.30L215.93 70.48Q215.93 67.17 215.03 65.66Q214.13 64.14 211.90 64.14L211.90 64.14L211.90 62.63Q214.20 62.85 216.36 62.85L216.36 62.85Q223.85 62.85 228.89 61.84L228.89 61.84ZM261.94 61.62Q265.46 61.62 267.01 63.78Q268.56 65.94 268.56 68.90L268.56 68.90Q268.56 72.14 266.72 74.04Q264.89 75.95 261.94 75.95L261.94 75.95Q258.84 75.95 257.18 74.55Q255.53 73.14 255.53 70.77L255.53 70.77Q255.53 66.52 259.20 64.07L259.20 64.07Q257.90 64.07 256.90 64.58L256.90 64.58Q255.10 65.37 253.87 67.13Q252.65 68.90 252.65 70.98L252.65 70.98L252.65 92.58Q252.65 95.97 254.05 97.23Q255.46 98.49 258.84 98.49L258.84 98.49L258.84 100Q257.90 100 257.26 99.93L257.26 99.93Q249.70 99.71 247.18 99.71L247.18 99.71Q244.94 99.71 237.17 99.93L237.17 99.93Q236.59 100 235.66 100L235.66 100L235.66 98.49Q237.89 98.49 238.79 97.37Q239.69 96.26 239.69 93.30L239.69 93.30L239.69 70.48Q239.69 67.17 238.79 65.66Q237.89 64.14 235.66 64.14L235.66 64.14L235.66 62.63Q237.96 62.85 240.12 62.85L240.12 62.85Q247.61 62.85 252.65 61.84L252.65 61.84L252.65 67.02Q255.38 61.62 261.94 61.62L261.94 61.62ZM309.31 49.02Q324.22 49.02 331.63 55.40Q339.05 61.77 339.05 73.94L339.05 73.94Q339.05 81.78 335.41 87.65Q331.78 93.52 324.94 96.76Q318.10 100 308.66 100L308.66 100L304.20 99.93Q299.88 99.78 297.86 99.78L297.86 99.78Q289.44 99.78 285.34 100L285.34 100L285.34 98.56Q287.64 98.42 288.68 97.98Q289.73 97.55 290.09 96.33Q290.45 95.10 290.45 92.37L290.45 92.37L290.45 56.66Q290.45 53.92 290.05 52.70Q289.66 51.47 288.65 51.04Q287.64 50.61 285.34 50.46L285.34 50.46L285.34 49.02Q288.65 49.24 295.13 49.24L295.13 49.24L297.72 49.24L300.89 49.17Q306.94 49.02 309.31 49.02L309.31 49.02ZM310.39 50.32Q308.16 50.32 307.04 50.82Q305.93 51.33 305.50 52.62Q305.06 53.92 305.06 56.51L305.06 56.51L305.06 92.51Q305.06 95.10 305.50 96.40Q305.93 97.70 307.04 98.20Q308.16 98.70 310.46 98.70L310.46 98.70Q317.59 98.70 320.76 92.55Q323.93 86.39 323.93 74.22L323.93 74.22Q323.93 62.06 320.65 56.19Q317.38 50.32 310.39 50.32L310.39 50.32ZM353.30 43.70Q357.05 43.70 359.10 45.28Q361.15 46.86 361.15 49.89L361.15 49.89Q361.15 52.91 359.10 54.50Q357.05 56.08 353.30 56.08L353.30 56.08Q349.49 56.08 347.47 54.50Q345.46 52.91 345.46 49.89L345.46 49.89Q345.46 46.86 347.47 45.28Q349.49 43.70 353.30 43.70L353.30 43.70ZM360.22 61.84L360.22 93.30Q360.22 96.26 361.12 97.37Q362.02 98.49 364.25 98.49L364.25 98.49L364.25 100Q356.47 99.71 354.02 99.71L354.02 99.71Q351.58 99.71 343.22 100L343.22 100L343.22 98.49Q345.46 98.49 346.36 97.37Q347.26 96.26 347.26 93.30L347.26 93.30L347.26 70.48Q347.26 67.17 346.36 65.66Q345.46 64.14 343.22 64.14L343.22 64.14L343.22 62.63Q345.53 62.85 347.69 62.85L347.69 62.85Q355.18 62.85 360.22 61.84L360.22 61.84ZM382.10 61.62Q384.91 61.62 387.40 62.24Q389.88 62.85 391.18 63.57L391.18 63.57Q391.97 64.00 392.47 64.00L392.47 64.00Q393.98 64.00 394.27 61.70L394.27 61.70L395.71 61.70Q395.42 65.44 395.42 74.66L395.42 74.66L393.98 74.66Q393.41 69.90 391.28 66.63Q389.16 63.35 385.13 63.35L385.13 63.35Q383.33 63.35 382.10 64.43Q380.88 65.51 380.88 67.38L380.88 67.38Q380.88 69.76 382.46 71.60Q384.05 73.43 387.43 76.10L387.43 76.10Q387.58 76.17 389.52 77.75L389.52 77.75Q393.55 81.06 395.42 83.62Q397.30 86.18 397.30 89.92L397.30 89.92Q397.30 93.09 395.35 95.64Q393.41 98.20 390.06 99.60Q386.71 101.01 382.75 101.01L382.75 101.01Q378.22 101.01 375.34 99.21L375.34 99.21Q374.11 98.56 373.32 98.27Q372.53 97.98 371.74 97.98L371.74 97.98Q370.37 97.98 369.72 100.50L369.72 100.50L368.28 100.50Q368.57 96.40 368.57 86.10L368.57 86.10L370.01 86.10Q370.66 92.01 373.18 95.61Q375.70 99.21 379.51 99.21L379.51 99.21Q381.31 99.21 382.50 98.20Q383.69 97.19 383.69 95.25L383.69 95.25Q383.69 93.23 382.86 91.65Q382.03 90.06 380.84 88.80Q379.66 87.54 376.99 85.17L376.99 85.17Q373.97 82.36 372.38 80.70Q370.80 79.05 369.68 76.85Q368.57 74.66 368.57 71.99L368.57 71.99Q368.57 68.90 370.44 66.52Q372.31 64.14 375.41 62.88Q378.50 61.62 382.10 61.62L382.10 61.62ZM428.69 61.62Q434.30 61.62 437.76 66.23Q441.22 70.84 441.22 79.70L441.22 79.70Q441.22 91.14 436.61 96.08Q432.00 101.01 424.44 101.01L424.44 101.01Q420.26 101.01 417.74 99.64L417.74 99.64L417.74 105.62Q417.74 108.93 419.29 110.22Q420.84 111.52 423.94 111.52L423.94 111.52L423.94 113.03L421.85 112.96Q413.21 112.74 410.69 112.74L410.69 112.74Q408.53 112.74 400.75 113.03L400.75 113.03L400.75 111.52Q402.98 111.52 403.88 110.40Q404.78 109.29 404.78 106.34L404.78 106.34L404.78 70.55Q404.78 67.24 403.88 65.73Q402.98 64.22 400.75 64.22L400.75 64.22L400.75 62.70Q402.98 62.92 405.22 62.92L405.22 62.92Q412.70 62.92 417.74 61.91L417.74 61.91L417.74 67.02Q421.06 61.62 428.69 61.62L428.69 61.62ZM420.26 98.85Q424.22 98.85 425.99 94.56Q427.75 90.28 427.75 81.35L427.75 81.35Q427.75 72.50 426.46 68.93Q425.16 65.37 422.93 65.37L422.93 65.37Q420.84 65.37 419.29 66.84Q417.74 68.32 417.74 70.55L417.74 70.55L417.74 98.27Q418.68 98.85 420.26 98.85L420.26 98.85ZM461.81 43.70L461.81 93.30Q461.81 96.26 462.71 97.37Q463.61 98.49 465.84 98.49L465.84 98.49L465.84 100Q458.06 99.71 455.62 99.71L455.62 99.71Q453.17 99.71 444.82 100L444.82 100L444.82 98.49Q447.05 98.49 447.95 97.37Q448.85 96.26 448.85 93.30L448.85 93.30L448.85 52.34Q448.85 49.02 447.95 47.51Q447.05 46.00 444.82 46.00L444.82 46.00L444.82 44.49Q447.05 44.70 449.28 44.70L449.28 44.70Q456.77 44.70 461.81 43.70L461.81 43.70ZM478.01 100.50Q473.40 100.50 471.06 98.02Q468.72 95.54 468.72 91.79L468.72 91.79Q468.72 88.55 470.41 86.43Q472.10 84.30 474.41 83.15Q476.71 82 480.38 80.78L480.38 80.78Q484.27 79.48 486.07 78.40Q487.87 77.32 487.87 75.38L487.87 75.38L487.87 68.97Q487.87 66.66 486.72 64.86Q485.57 63.06 482.76 63.06L482.76 63.06Q480.53 63.06 478.73 64.29L478.73 64.29Q481.18 65.15 482.36 66.84Q483.55 68.54 483.55 70.62L483.55 70.62Q483.55 73.43 481.57 75.12Q479.59 76.82 476.78 76.82L476.78 76.82Q473.98 76.82 472.36 75.05Q470.74 73.29 470.74 70.55L470.74 70.55Q470.74 68.39 471.82 66.81Q472.90 65.22 475.20 63.93L475.20 63.93Q479.23 61.62 486.72 61.62L486.72 61.62Q490.68 61.62 493.56 62.38Q496.44 63.14 498.46 65.22L498.46 65.22Q499.90 66.74 500.36 69.00Q500.83 71.27 500.83 75.30L500.83 75.30L500.83 94.60Q500.83 96.40 501.08 97.05Q501.34 97.70 501.98 97.70L501.98 97.70Q502.49 97.70 503.06 97.37Q503.64 97.05 504.14 96.62L504.14 96.62L504.86 97.84Q501.77 100.50 496.01 100.50L496.01 100.50Q491.69 100.50 489.96 99.03Q488.23 97.55 488.09 95.03L488.09 95.03Q484.70 100.50 478.01 100.50L478.01 100.50ZM485.21 94.74Q486.72 94.74 487.87 93.52L487.87 93.52L487.87 78.33Q487.22 79.41 485.50 81.14L485.50 81.14Q483.55 83.01 482.54 84.77Q481.54 86.54 481.54 89.56L481.54 89.56Q481.54 94.74 485.21 94.74L485.21 94.74ZM536.83 62.92Q540.94 62.92 542.38 62.63L542.38 62.63L542.38 64.14Q540.86 64.65 539.60 66.23Q538.34 67.82 537.26 71.13L537.26 71.13L528.26 97.91L525.24 106.62Q523.94 110.37 522.07 111.81L522.07 111.81Q519.84 113.54 515.38 113.54L515.38 113.54Q511.78 113.54 508.68 111.84Q505.58 110.15 505.58 106.77L505.58 106.77Q505.58 104.25 507.53 102.74Q509.47 101.22 512.64 101.22L512.64 101.22Q515.66 101.22 517.39 102.59Q519.12 103.96 519.12 106.55L519.12 106.55Q519.12 108.28 517.93 109.83Q516.74 111.38 514.44 112.10L514.44 112.10Q515.16 112.24 516.89 112.24L516.89 112.24Q521.86 112.24 523.73 106.48L523.73 106.48L524.09 105.26L507.31 68.18Q506.23 65.73 505.19 64.94Q504.14 64.14 503.14 64.14L503.14 64.14L503.14 62.63Q508.90 63.06 514.87 63.06L514.87 63.06Q519.55 63.06 525.31 62.63L525.31 62.63L525.31 64.14Q523.22 64.14 522.11 64.43Q520.99 64.72 520.99 65.73L520.99 65.73Q520.99 66.30 521.28 66.88L521.28 66.88L530.14 87.98L533.16 78.76Q534.53 74.58 534.53 71.42L534.53 71.42Q534.53 68.03 533.09 66.16Q531.65 64.29 529.27 64.14L529.27 64.14L529.27 62.63Q531.94 62.92 536.83 62.92L536.83 62.92ZM585.00 61.62Q590.62 61.62 594.07 66.23Q597.53 70.84 597.53 79.70L597.53 79.70Q597.53 91.14 592.92 96.08Q588.31 101.01 580.75 101.01L580.75 101.01Q578.45 101.01 576.90 100.86Q575.35 100.72 574.06 100.14L574.06 100.14Q571.39 99.06 568.51 99.06L568.51 99.06Q566.35 99.06 564.48 99.64Q562.61 100.22 561.60 101.15L561.60 101.15L560.59 100.43Q561.10 98.92 561.10 96.47L561.10 96.47L561.10 52.34Q561.10 49.02 560.20 47.51Q559.30 46.00 557.06 46.00L557.06 46.00L557.06 44.49Q559.30 44.70 561.53 44.70L561.53 44.70Q569.02 44.70 574.06 43.70L574.06 43.70L574.06 67.02Q577.37 61.62 585.00 61.62L585.00 61.62ZM577.44 99.57Q584.06 99.57 584.06 81.35L584.06 81.35Q584.06 72.50 582.77 68.93Q581.47 65.37 579.24 65.37L579.24 65.37Q577.15 65.37 575.60 66.84Q574.06 68.32 574.06 70.55L574.06 70.55L574.06 98.70Q575.71 99.57 577.44 99.57L577.44 99.57ZM617.40 43.70L617.40 93.30Q617.40 96.26 618.30 97.37Q619.20 98.49 621.43 98.49L621.43 98.49L621.43 100Q613.66 99.71 611.21 99.71L611.21 99.71Q608.76 99.71 600.41 100L600.41 100L600.41 98.49Q602.64 98.49 603.54 97.37Q604.44 96.26 604.44 93.30L604.44 93.30L604.44 52.34Q604.44 49.02 603.54 47.51Q602.64 46.00 600.41 46.00L600.41 46.00L600.41 44.49Q602.64 44.70 604.87 44.70L604.87 44.70Q612.36 44.70 617.40 43.70L617.40 43.70ZM633.60 100.50Q628.99 100.50 626.65 98.02Q624.31 95.54 624.31 91.79L624.31 91.79Q624.31 88.55 626.00 86.43Q627.70 84.30 630.00 83.15Q632.30 82 635.98 80.78L635.98 80.78Q639.86 79.48 641.66 78.40Q643.46 77.32 643.46 75.38L643.46 75.38L643.46 68.97Q643.46 66.66 642.31 64.86Q641.16 63.06 638.35 63.06L638.35 63.06Q636.12 63.06 634.32 64.29L634.32 64.29Q636.77 65.15 637.96 66.84Q639.14 68.54 639.14 70.62L639.14 70.62Q639.14 73.43 637.16 75.12Q635.18 76.82 632.38 76.82L632.38 76.82Q629.57 76.82 627.95 75.05Q626.33 73.29 626.33 70.55L626.33 70.55Q626.33 68.39 627.41 66.81Q628.49 65.22 630.79 63.93L630.79 63.93Q634.82 61.62 642.31 61.62L642.31 61.62Q646.27 61.62 649.15 62.38Q652.03 63.14 654.05 65.22L654.05 65.22Q655.49 66.74 655.96 69.00Q656.42 71.27 656.42 75.30L656.42 75.30L656.42 94.60Q656.42 96.40 656.68 97.05Q656.93 97.70 657.58 97.70L657.58 97.70Q658.08 97.70 658.66 97.37Q659.23 97.05 659.74 96.62L659.74 96.62L660.46 97.84Q657.36 100.50 651.60 100.50L651.60 100.50Q647.28 100.50 645.55 99.03Q643.82 97.55 643.68 95.03L643.68 95.03Q640.30 100.50 633.60 100.50L633.60 100.50ZM640.80 94.74Q642.31 94.74 643.46 93.52L643.46 93.52L643.46 78.33Q642.82 79.41 641.09 81.14L641.09 81.14Q639.14 83.01 638.14 84.77Q637.13 86.54 637.13 89.56L637.13 89.56Q637.13 94.74 640.80 94.74L640.80 94.74ZM681.62 61.62Q684.58 61.62 687.06 62.24Q689.54 62.85 691.13 63.78L691.13 63.78Q693.14 64.94 694.30 66.88Q695.45 68.82 695.45 71.27L695.45 71.27Q695.45 74.30 693.50 76.28Q691.56 78.26 688.54 78.26L688.54 78.26Q685.44 78.26 683.68 76.49Q681.91 74.73 681.91 71.78L681.91 71.78Q681.91 69.18 683.60 67.20Q685.30 65.22 687.82 64.58L687.82 64.58Q686.74 63.71 684.94 63.71L684.94 63.71Q680.33 63.71 678.46 68.64Q676.58 73.58 676.58 80.34L676.58 80.34Q676.58 87.26 679.18 90.21Q681.77 93.16 685.58 93.16L685.58 93.16Q690.84 93.16 694.30 88.34L694.30 88.34L695.52 88.77Q693.94 93.81 690.16 97.41Q686.38 101.01 680.47 101.01L680.47 101.01Q672.62 101.01 667.87 96.33Q663.12 91.65 663.12 81.35L663.12 81.35Q663.12 71.49 668.20 66.56Q673.27 61.62 681.62 61.62L681.62 61.62ZM738.29 94.74Q738.43 95.03 738.94 95.97Q739.44 96.90 739.98 97.52Q740.52 98.13 741.17 98.49L741.17 98.49L741.17 100Q734.54 99.71 732.46 99.71L732.46 99.71Q730.08 99.71 722.30 100L722.30 100L722.30 98.49Q724.39 98.49 724.39 97.12L724.39 97.12Q724.39 96.62 724.10 96.04L724.10 96.04L717.77 82.65Q717.34 81.86 716.80 81.50Q716.26 81.14 715.46 81.06L715.46 81.06L715.46 93.30Q715.46 96.26 716.36 97.37Q717.26 98.49 719.50 98.49L719.50 98.49L719.50 100Q711.72 99.71 709.27 99.71L709.27 99.71Q706.82 99.71 698.47 100L698.47 100L698.47 98.49Q700.70 98.49 701.60 97.37Q702.50 96.26 702.50 93.30L702.50 93.30L702.50 52.34Q702.50 49.02 701.60 47.51Q700.70 46.00 698.47 46.00L698.47 46.00L698.47 44.49Q700.70 44.70 702.94 44.70L702.94 44.70Q710.42 44.70 715.46 43.70L715.46 43.70L715.46 79.70Q717.48 79.70 718.56 78.62L718.56 78.62L724.10 73.43Q726.62 71.13 726.62 68.75L726.62 68.75Q726.62 66.88 725.00 65.58Q723.38 64.29 720.86 64.07L720.86 64.07L720.86 62.63Q724.97 62.85 729.50 62.85L729.50 62.85Q736.56 62.85 739.37 62.63L739.37 62.63L739.37 64.07Q734.40 65.44 728.71 71.13L728.71 71.13L726.84 73L738.29 94.74Z"/></svg>