<svg xmlns="http://www.w3.org/2000/svg" viewBox="0.42 -7.84 69.21 9.72"><path d="M2.93-2.86L2.16-2.86L2.16-1.06Q2.16-0.68 2.24-0.51Q2.32-0.34 2.52-0.28Q2.72-0.22 3.17-0.20L3.17-0.20L3.17 0Q2.65-0.03 1.70-0.03L1.70-0.03Q0.84-0.03 0.42 0L0.42 0L0.42-0.20Q0.78-0.22 0.95-0.28Q1.11-0.34 1.17-0.51Q1.23-0.68 1.23-1.06L1.23-1.06L1.23-6.02Q1.23-6.40 1.17-6.57Q1.11-6.74 0.95-6.80Q0.78-6.86 0.42-6.88L0.42-6.88L0.42-7.08Q0.84-7.05 1.64-7.05L1.64-7.05L2.72-7.06Q2.91-7.07 3.15-7.07L3.15-7.07Q4.32-7.07 4.94-6.54Q5.56-6 5.56-5.10L5.56-5.10Q5.56-4.55 5.32-4.04Q5.07-3.54 4.49-3.20Q3.90-2.86 2.93-2.86L2.93-2.86ZM2.90-6.88Q2.59-6.88 2.44-6.81Q2.28-6.74 2.22-6.56Q2.16-6.38 2.16-6.02L2.16-6.02L2.16-3.06L2.83-3.06Q3.81-3.06 4.19-3.58Q4.56-4.11 4.56-4.99L4.56-4.99Q4.56-5.96 4.17-6.42Q3.79-6.88 2.90-6.88L2.90-6.88ZM7.64-7.84L7.64-0.93Q7.64-0.52 7.81-0.36Q7.98-0.21 8.40-0.21L8.40-0.21L8.40 0Q7.48-0.04 7.19-0.04L7.19-0.04Q6.90-0.04 5.98 0L5.98 0L5.98-0.21Q6.40-0.21 6.57-0.36Q6.74-0.52 6.74-0.93L6.74-0.93L6.74-6.64Q6.74-7.10 6.57-7.31Q6.40-7.52 5.98-7.52L5.98-7.52L5.98-7.73Q6.29-7.70 6.60-7.70L6.60-7.70Q7.23-7.70 7.64-7.84L7.64-7.84ZM10.25 0.07Q9.62 0.07 9.32-0.24Q9.01-0.56 9.01-1.12L9.01-1.12Q9.01-1.57 9.26-1.86Q9.50-2.15 9.84-2.32Q10.17-2.49 10.72-2.68L10.72-2.68Q11.28-2.87 11.55-3.03Q11.82-3.19 11.82-3.46L11.82-3.46L11.82-4.08Q11.82-4.66 11.58-4.88Q11.33-5.09 10.89-5.09L10.89-5.09Q10.19-5.09 9.90-4.73L9.90-4.73Q10.10-4.68 10.24-4.52Q10.37-4.36 10.37-4.12L10.37-4.12Q10.37-3.87 10.21-3.73Q10.05-3.58 9.80-3.58L9.80-3.58Q9.52-3.58 9.38-3.75Q9.24-3.93 9.24-4.18L9.24-4.18Q9.24-4.42 9.36-4.58Q9.47-4.74 9.70-4.90L9.70-4.90Q9.94-5.07 10.31-5.18Q10.68-5.29 11.12-5.29L11.12-5.29Q11.90-5.29 12.30-4.92L12.30-4.92Q12.55-4.69 12.64-4.37Q12.72-4.04 12.72-3.51L12.72-3.51L12.72-0.73Q12.72-0.48 12.79-0.37Q12.86-0.26 13.03-0.26L13.03-0.26Q13.15-0.26 13.26-0.32Q13.36-0.37 13.48-0.47L13.48-0.47L13.59-0.30Q13.33-0.10 13.15-0.01Q12.96 0.07 12.68 0.07L12.68 0.07Q12.20 0.07 12.01-0.17Q11.82-0.41 11.82-0.82L11.82-0.82Q11.52-0.32 11.13-0.13Q10.74 0.07 10.25 0.07L10.25 0.07ZM10.69-0.33Q11.35-0.33 11.82-1.09L11.82-1.09L11.82-3.05Q11.73-2.91 11.57-2.82Q11.41-2.73 11.08-2.58L11.08-2.58Q10.70-2.42 10.47-2.27Q10.23-2.13 10.06-1.88Q9.89-1.63 9.89-1.24L9.89-1.24Q9.89-0.79 10.11-0.56Q10.33-0.33 10.69-0.33L10.69-0.33ZM17.72-5.12Q18.16-5.12 18.48-5.15L18.48-5.15L18.48-4.95Q18.28-4.93 18.13-4.77Q17.97-4.61 17.83-4.25L17.83-4.25L16.19 0.05L15.85 0.92Q15.66 1.41 15.42 1.62L15.42 1.62Q15.27 1.76 15.06 1.82Q14.85 1.88 14.64 1.88L14.64 1.88Q14.34 1.88 14.15 1.72Q13.96 1.56 13.96 1.28L13.96 1.28Q13.96 1.04 14.10 0.90Q14.24 0.75 14.49 0.75L14.49 0.75Q14.71 0.75 14.86 0.88Q15 1 15 1.22L15 1.22Q15 1.52 14.73 1.67L14.73 1.67Q14.75 1.68 14.79 1.68L14.79 1.68Q15.34 1.68 15.64 0.90L15.64 0.90L15.99-0.01L14.18-4.38Q14.01-4.72 13.84-4.83Q13.67-4.94 13.50-4.94L13.50-4.94L13.50-5.15Q13.93-5.09 14.48-5.09L14.48-5.09Q14.98-5.09 15.78-5.15L15.78-5.15L15.78-4.94Q15.42-4.94 15.26-4.88Q15.09-4.82 15.09-4.59L15.09-4.59Q15.09-4.38 15.21-4.10L15.21-4.10L16.41-1.12L17.52-4.01Q17.63-4.31 17.63-4.47L17.63-4.47Q17.63-4.70 17.45-4.81Q17.27-4.92 16.88-4.95L16.88-4.95L16.88-5.15Q17.41-5.12 17.72-5.12L17.72-5.12ZM21.27-7.82Q21.79-7.82 22.14-7.55L22.14-7.55Q22.45-7.30 22.45-6.93L22.45-6.93Q22.45-6.70 22.30-6.55Q22.15-6.40 21.92-6.40L21.92-6.40Q21.69-6.40 21.53-6.54Q21.37-6.69 21.37-6.94L21.37-6.94Q21.37-7.15 21.49-7.28Q21.60-7.41 21.79-7.45L21.79-7.45Q21.76-7.55 21.63-7.61Q21.50-7.67 21.30-7.67L21.30-7.67Q21.08-7.67 20.91-7.57Q20.74-7.47 20.65-7.30L20.65-7.30Q20.54-7.10 20.51-6.71Q20.47-6.32 20.47-5.40L20.47-5.40L20.47-5.14L21.54-5.14L21.54-4.94L20.47-4.94L20.47-1.03Q20.47-0.57 20.74-0.39Q21-0.21 21.53-0.21L21.53-0.21L21.53 0L21.29-0.01Q20.27-0.04 19.99-0.04L19.99-0.04Q19.73-0.04 18.81 0L18.81 0L18.81-0.21Q19.23-0.21 19.40-0.36Q19.57-0.52 19.57-0.93L19.57-0.93L19.57-4.94L18.77-4.94L18.77-5.14L19.57-5.14Q19.57-6.02 19.68-6.50Q19.79-6.98 20.08-7.32L20.08-7.32Q20.28-7.55 20.59-7.69Q20.90-7.82 21.27-7.82L21.27-7.82ZM23.46 0.07Q22.83 0.07 22.53-0.24Q22.22-0.56 22.22-1.12L22.22-1.12Q22.22-1.57 22.47-1.86Q22.71-2.15 23.05-2.32Q23.38-2.49 23.93-2.68L23.93-2.68Q24.49-2.87 24.76-3.03Q25.03-3.19 25.03-3.46L25.03-3.46L25.03-4.08Q25.03-4.66 24.79-4.88Q24.54-5.09 24.10-5.09L24.10-5.09Q23.40-5.09 23.11-4.73L23.11-4.73Q23.31-4.68 23.45-4.52Q23.58-4.36 23.58-4.12L23.58-4.12Q23.58-3.87 23.42-3.73Q23.26-3.58 23.01-3.58L23.01-3.58Q22.73-3.58 22.59-3.75Q22.45-3.93 22.45-4.18L22.45-4.18Q22.45-4.42 22.57-4.58Q22.68-4.74 22.91-4.90L22.91-4.90Q23.15-5.07 23.52-5.18Q23.89-5.29 24.33-5.29L24.33-5.29Q25.11-5.29 25.51-4.92L25.51-4.92Q25.76-4.69 25.85-4.37Q25.93-4.04 25.93-3.51L25.93-3.51L25.93-0.73Q25.93-0.48 26-0.37Q26.07-0.26 26.24-0.26L26.24-0.26Q26.36-0.26 26.47-0.32Q26.57-0.37 26.69-0.47L26.69-0.47L26.80-0.30Q26.54-0.10 26.36-0.01Q26.17 0.07 25.89 0.07L25.89 0.07Q25.41 0.07 25.22-0.17Q25.03-0.41 25.03-0.82L25.03-0.82Q24.73-0.32 24.34-0.13Q23.95 0.07 23.46 0.07L23.46 0.07ZM23.90-0.33Q24.56-0.33 25.03-1.09L25.03-1.09L25.03-3.05Q24.94-2.91 24.78-2.82Q24.62-2.73 24.29-2.58L24.29-2.58Q23.91-2.42 23.68-2.27Q23.44-2.13 23.27-1.88Q23.10-1.63 23.10-1.24L23.10-1.24Q23.10-0.79 23.32-0.56Q23.54-0.33 23.90-0.33L23.90-0.33ZM28.24-7.65Q28.50-7.65 28.69-7.46Q28.88-7.27 28.88-7.01L28.88-7.01Q28.88-6.75 28.69-6.56Q28.50-6.37 28.24-6.37L28.24-6.37Q27.98-6.37 27.79-6.56Q27.60-6.75 27.60-7.01L27.60-7.01Q27.60-7.27 27.79-7.46Q27.98-7.65 28.24-7.65L28.24-7.65ZM28.76-5.26L28.76-0.93Q28.76-0.52 28.93-0.36Q29.10-0.21 29.52-0.21L29.52-0.21L29.52 0Q28.60-0.04 28.31-0.04L28.31-0.04Q28.02-0.04 27.10 0L27.10 0L27.10-0.21Q27.52-0.21 27.69-0.36Q27.86-0.52 27.86-0.93L27.86-0.93L27.86-4.06Q27.86-4.52 27.69-4.73Q27.52-4.94 27.10-4.94L27.10-4.94L27.10-5.15Q27.42-5.12 27.72-5.12L27.72-5.12Q28.35-5.12 28.76-5.26L28.76-5.26ZM33.14-5.29Q33.54-5.29 33.80-5.06Q34.05-4.83 34.05-4.50L34.05-4.50Q34.05-4.24 33.90-4.05Q33.74-3.87 33.48-3.87L33.48-3.87Q33.26-3.87 33.11-4.01Q32.95-4.15 32.95-4.39L32.95-4.39Q32.95-4.72 33.29-4.93L33.29-4.93Q33.22-5.03 33.08-5.03L33.08-5.03Q32.69-5.03 32.37-4.73Q32.05-4.42 31.87-3.98Q31.69-3.54 31.69-3.15L31.69-3.15L31.69-1.03Q31.69-0.57 31.96-0.39Q32.22-0.21 32.75-0.21L32.75-0.21L32.75 0L32.51-0.01Q31.49-0.04 31.21-0.04L31.21-0.04Q30.95-0.04 30.03 0L30.03 0L30.03-0.21Q30.45-0.21 30.62-0.36Q30.79-0.52 30.79-0.93L30.79-0.93L30.79-4.06Q30.79-4.52 30.62-4.73Q30.45-4.94 30.03-4.94L30.03-4.94L30.03-5.15Q30.35-5.12 30.65-5.12L30.65-5.12Q31.28-5.12 31.69-5.26L31.69-5.26L31.69-4.01Q31.87-4.51 32.27-4.90Q32.66-5.29 33.14-5.29L33.14-5.29ZM39.62-7.08Q41.39-7.08 42.27-6.20Q43.15-5.31 43.15-3.62L43.15-3.62Q43.15-2.53 42.72-1.71Q42.29-0.89 41.48-0.45Q40.66 0 39.53 0L39.53 0L38.95-0.01Q38.39-0.03 38.13-0.03L38.13-0.03Q37.31-0.03 36.89 0L36.89 0L36.89-0.20Q37.25-0.22 37.42-0.28Q37.58-0.34 37.64-0.51Q37.70-0.68 37.70-1.06L37.70-1.06L37.70-6.02Q37.70-6.40 37.64-6.57Q37.58-6.74 37.42-6.80Q37.25-6.86 36.89-6.88L36.89-6.88L36.89-7.08Q37.24-7.05 37.86-7.05L37.86-7.05L38.71-7.06Q39.39-7.08 39.62-7.08L39.62-7.08ZM39.37-6.90Q39.06-6.90 38.91-6.83Q38.75-6.76 38.69-6.58Q38.63-6.40 38.63-6.04L38.63-6.04L38.63-1.04Q38.63-0.68 38.69-0.50Q38.75-0.32 38.91-0.25Q39.06-0.18 39.38-0.18L39.38-0.18Q40.44-0.18 41.05-0.57Q41.66-0.95 41.91-1.69Q42.15-2.43 42.15-3.58L42.15-3.58Q42.15-4.73 41.88-5.46Q41.61-6.18 41.01-6.54Q40.40-6.90 39.37-6.90L39.37-6.90ZM45.13-7.65Q45.39-7.65 45.58-7.46Q45.77-7.27 45.77-7.01L45.77-7.01Q45.77-6.75 45.58-6.56Q45.39-6.37 45.13-6.37L45.13-6.37Q44.87-6.37 44.68-6.56Q44.49-6.75 44.49-7.01L44.49-7.01Q44.49-7.27 44.68-7.46Q44.87-7.65 45.13-7.65L45.13-7.65ZM45.65-5.26L45.65-0.93Q45.65-0.52 45.82-0.36Q45.99-0.21 46.41-0.21L46.41-0.21L46.41 0Q45.49-0.04 45.20-0.04L45.20-0.04Q44.91-0.04 43.99 0L43.99 0L43.99-0.21Q44.41-0.21 44.58-0.36Q44.75-0.52 44.75-0.93L44.75-0.93L44.75-4.06Q44.75-4.52 44.58-4.73Q44.41-4.94 43.99-4.94L43.99-4.94L43.99-5.15Q44.31-5.12 44.61-5.12L44.61-5.12Q45.24-5.12 45.65-5.26L45.65-5.26ZM48.71-5.29Q49.07-5.29 49.35-5.18Q49.63-5.07 49.80-4.92L49.80-4.92Q49.91-4.84 49.98-4.84L49.98-4.84Q50.16-4.84 50.20-5.28L50.20-5.28L50.43-5.28Q50.39-4.79 50.39-3.58L50.39-3.58L50.16-3.58Q50.05-4.24 49.73-4.67Q49.42-5.10 48.80-5.10L48.80-5.10Q48.44-5.10 48.21-4.90Q47.98-4.69 47.98-4.33L47.98-4.33Q47.98-3.98 48.22-3.75Q48.46-3.51 48.99-3.18L48.99-3.18Q49.08-3.13 49.26-3.01L49.26-3.01Q49.72-2.71 50-2.48Q50.28-2.25 50.46-1.95Q50.63-1.65 50.63-1.26L50.63-1.26Q50.63-0.60 50.14-0.23Q49.64 0.14 48.92 0.14L48.92 0.14Q48.47 0.14 48.13 0L48.13 0Q47.91-0.11 47.72-0.27L47.72-0.27Q47.68-0.31 47.63-0.31L47.63-0.31Q47.56-0.31 47.51-0.21Q47.45-0.11 47.42 0.07L47.42 0.07L47.19 0.07Q47.23-0.50 47.23-1.93L47.23-1.93L47.46-1.93Q47.57-0.99 47.86-0.53Q48.15-0.06 48.85-0.06L48.85-0.06Q49.20-0.06 49.47-0.29Q49.74-0.52 49.74-1.01L49.74-1.01Q49.74-1.40 49.48-1.67Q49.21-1.94 48.61-2.32L48.61-2.32Q48.12-2.63 47.86-2.83Q47.59-3.03 47.41-3.32Q47.23-3.61 47.23-4L47.23-4Q47.23-4.63 47.65-4.96Q48.07-5.29 48.71-5.29L48.71-5.29ZM54.58-5.29Q55.11-5.29 55.54-5Q55.96-4.71 56.20-4.15Q56.44-3.59 56.44-2.81L56.44-2.81Q56.44-2.04 56.20-1.37Q55.95-0.70 55.44-0.28Q54.92 0.14 54.15 0.14L54.15 0.14Q53.77 0.14 53.46-0.01Q53.15-0.16 52.98-0.40L52.98-0.40L52.98 0.88Q52.98 1.29 53.22 1.45Q53.46 1.60 53.94 1.60L53.94 1.60L53.94 1.81L53.71 1.80Q52.78 1.77 52.50 1.77L52.50 1.77Q52.26 1.77 51.42 1.81L51.42 1.81L51.42 1.60Q51.79 1.60 51.94 1.47Q52.08 1.33 52.08 0.98L52.08 0.98L52.08-4.06Q52.08-4.52 51.91-4.73Q51.74-4.94 51.32-4.94L51.32-4.94L51.32-5.15Q51.63-5.12 51.94-5.12L51.94-5.12Q52.57-5.12 52.98-5.26L52.98-5.26L52.98-4.20Q53.20-4.72 53.62-5.00Q54.04-5.29 54.58-5.29L54.58-5.29ZM54.04-0.09Q55.47-0.09 55.47-2.67L55.47-2.67Q55.47-4.99 54.31-4.99L54.31-4.99Q53.86-4.99 53.50-4.67Q53.14-4.34 52.98-3.73L52.98-3.73L52.98-0.73Q53.12-0.44 53.39-0.27Q53.66-0.09 54.04-0.09L54.04-0.09ZM58.79-7.84L58.79-0.93Q58.79-0.52 58.96-0.36Q59.13-0.21 59.55-0.21L59.55-0.21L59.55 0Q58.63-0.04 58.34-0.04L58.34-0.04Q58.05-0.04 57.13 0L57.13 0L57.13-0.21Q57.55-0.21 57.72-0.36Q57.89-0.52 57.89-0.93L57.89-0.93L57.89-6.64Q57.89-7.10 57.72-7.31Q57.55-7.52 57.13-7.52L57.13-7.52L57.13-7.73Q57.44-7.70 57.75-7.70L57.75-7.70Q58.38-7.70 58.79-7.84L58.79-7.84ZM61.40 0.07Q60.77 0.07 60.47-0.24Q60.16-0.56 60.16-1.12L60.16-1.12Q60.16-1.57 60.41-1.86Q60.65-2.15 60.99-2.32Q61.32-2.49 61.87-2.68L61.87-2.68Q62.43-2.87 62.70-3.03Q62.97-3.19 62.97-3.46L62.97-3.46L62.97-4.08Q62.97-4.66 62.73-4.88Q62.48-5.09 62.04-5.09L62.04-5.09Q61.34-5.09 61.05-4.73L61.05-4.73Q61.25-4.68 61.39-4.52Q61.52-4.36 61.52-4.12L61.52-4.12Q61.52-3.87 61.36-3.73Q61.20-3.58 60.95-3.58L60.95-3.58Q60.67-3.58 60.53-3.75Q60.39-3.93 60.39-4.18L60.39-4.18Q60.39-4.42 60.51-4.58Q60.62-4.74 60.85-4.90L60.85-4.90Q61.09-5.07 61.46-5.18Q61.83-5.29 62.27-5.29L62.27-5.29Q63.05-5.29 63.45-4.92L63.45-4.92Q63.70-4.69 63.79-4.37Q63.87-4.04 63.87-3.51L63.87-3.51L63.87-0.73Q63.87-0.48 63.94-0.37Q64.01-0.26 64.18-0.26L64.18-0.26Q64.30-0.26 64.41-0.32Q64.51-0.37 64.63-0.47L64.63-0.47L64.74-0.30Q64.48-0.10 64.30-0.01Q64.11 0.07 63.83 0.07L63.83 0.07Q63.35 0.07 63.16-0.17Q62.97-0.41 62.97-0.82L62.97-0.82Q62.67-0.32 62.28-0.13Q61.89 0.07 61.40 0.07L61.40 0.07ZM61.84-0.33Q62.50-0.33 62.97-1.09L62.97-1.09L62.97-3.05Q62.88-2.91 62.72-2.82Q62.56-2.73 62.23-2.58L62.23-2.58Q61.85-2.42 61.62-2.27Q61.38-2.13 61.21-1.88Q61.04-1.63 61.04-1.24L61.04-1.24Q61.04-0.79 61.26-0.56Q61.48-0.33 61.84-0.33L61.84-0.33ZM68.87-5.12Q69.31-5.12 69.63-5.15L69.63-5.15L69.63-4.95Q69.43-4.93 69.27-4.77Q69.12-4.61 68.98-4.25L68.98-4.25L67.34 0.05L67 0.92Q66.81 1.41 66.57 1.62L66.57 1.62Q66.42 1.76 66.21 1.82Q66 1.88 65.79 1.88L65.79 1.88Q65.49 1.88 65.30 1.72Q65.11 1.56 65.11 1.28L65.11 1.28Q65.11 1.04 65.25 0.90Q65.39 0.75 65.64 0.75L65.64 0.75Q65.86 0.75 66.00 0.88Q66.15 1 66.15 1.22L66.15 1.22Q66.15 1.52 65.88 1.67L65.88 1.67Q65.90 1.68 65.94 1.68L65.94 1.68Q66.49 1.68 66.79 0.90L66.79 0.90L67.14-0.01L65.33-4.38Q65.16-4.72 64.99-4.83Q64.82-4.94 64.65-4.94L64.65-4.94L64.65-5.15Q65.08-5.09 65.63-5.09L65.63-5.09Q66.13-5.09 66.93-5.15L66.93-5.15L66.93-4.94Q66.57-4.94 66.41-4.88Q66.24-4.82 66.24-4.59L66.24-4.59Q66.24-4.38 66.36-4.10L66.36-4.10L67.56-1.12L68.67-4.01Q68.78-4.31 68.78-4.47L68.78-4.47Q68.78-4.70 68.60-4.81Q68.42-4.92 68.03-4.95L68.03-4.95L68.03-5.15Q68.56-5.12 68.87-5.12L68.87-5.12Z"/></svg>