<svg xmlns="http://www.w3.org/2000/svg" viewBox="-3.4560000000000004 42.75999999999999 949.608 70.77600000000001"><path d="M22 80L19 92Q18 94 18 95L18 95Q18 97 19 98Q20 98 23 99L23 99L23 100Q18 100 10 100L10 100Q1 100-3 100L-3 100L-3 99Q-1 98 1 98Q2 98 3 96Q4 95 4 92L4 92L14 57Q14 54 14 53L14 53Q14 52 13 51Q12 51 10 50L10 50L10 49Q14 49 23 49L23 49Q26 49 28 49L28 49L34 49Q43 49 48 52Q52 54 52 60L52 60Q52 65 48 70Q45 74 38 77Q31 79 22 80L22 80ZM28 57L23 78Q28 78 31 75Q34 71 36 67Q37 62 37 58L37 58Q37 54 36 52Q34 50 31 50L31 50Q30 50 30 51Q29 52 29 54L29 54Q29 55 29 55Q29 56 28 57L28 57ZM61 94Q61 95 61 95L61 95Q61 96 61 97Q62 97 62 97L62 97Q63 97 64 96Q65 95 66 92L66 92L67 88L69 88L67 94Q66 98 63 99Q60 101 57 101L57 101Q53 101 51 99Q49 97 49 94L49 94Q49 92 50 89L50 89L61 52Q61 51 61 50L61 50Q61 49 60 48Q59 47 56 47L56 47L57 46Q63 46 67 45Q72 44 76 43L76 43L61 94ZM108 92L109 88L111 88L109 94Q106 101 98 101L98 101Q94 101 92 98L92 98Q91 97 91 94L91 94Q91 93 91 93L91 93Q89 97 87 99Q84 101 80 101L80 101Q76 101 73 99Q71 96 71 92L71 92Q71 85 75 78Q78 71 84 66Q89 62 94 62L94 62Q98 62 99 66L99 66L100 63Q107 63 113 62L113 62L103 94Q103 95 103 96L103 96Q103 97 104 97L104 97Q106 97 108 92L108 92ZM86 96Q88 96 89 94Q91 92 93 86L93 86L98 68Q98 68 98 67L98 67Q98 65 97 65L97 65Q95 65 92 69Q89 74 87 80Q85 86 85 92L85 92Q85 94 85 95Q85 96 86 96L86 96ZM142 62Q148 62 148 69L148 69Q148 75 144 84Q139 93 134 100L134 100Q129 105 124 108Q119 112 114 113L114 113Q112 114 110 114L110 114Q107 114 106 112Q104 111 104 109L104 109Q104 107 106 105Q107 104 110 104L110 104Q115 104 119 110L119 110Q123 108 127 104L127 104L121 69Q121 67 121 66Q120 66 120 66L120 66Q119 66 118 67Q118 67 117 70L117 70L115 74L114 74L116 69Q117 65 119 63Q122 62 125 62L125 62Q129 62 131 64Q133 65 133 70L133 70L137 93Q141 86 144 78L144 78Q141 77 139 74Q137 71 137 68L137 68Q137 65 138 63Q140 62 142 62L142 62ZM178 44Q183 44 186 46Q189 48 189 52L189 52Q189 53 188 55Q187 57 185 58Q183 59 181 59L181 59Q179 59 177 58Q175 56 175 54L175 54Q175 51 177 49Q179 47 182 46L182 46Q181 45 180 45L180 45Q178 45 176 46L176 46Q174 48 173 53L173 53L171 63L178 63L177 64L170 64L157 113Q150 113 144 114L144 114L157 64L152 64L152 63L158 63Q161 51 167 47L167 47Q171 44 178 44L178 44ZM210 92L211 88L213 88L211 94Q208 101 201 101L201 101Q196 101 194 98L194 98Q193 97 193 94L193 94Q193 93 193 93L193 93Q192 97 189 99Q186 101 182 101L182 101Q178 101 176 99Q173 96 173 92L173 92Q173 85 177 78Q181 71 186 66Q192 62 196 62L196 62Q201 62 201 66L201 66L202 63Q209 63 215 62L215 62L205 94Q205 95 205 96L205 96Q205 97 206 97L206 97Q208 97 210 92L210 92ZM189 96Q190 96 192 94Q193 92 195 86L195 86L200 68Q200 68 200 67L200 67Q200 65 199 65L199 65Q197 65 194 69Q191 74 189 80Q187 86 187 92L187 92Q187 94 187 95Q188 96 189 96L189 96ZM228 51Q228 48 230 46Q233 44 237 44L237 44Q240 44 242 45Q243 46 243 49L243 49Q243 52 241 54Q238 56 234 56L234 56Q231 56 230 55Q228 54 228 51L228 51ZM225 69Q225 68 225 67L225 67Q225 66 224 66L224 66Q223 66 222 67Q221 68 220 70L220 70L219 75L217 75L219 69Q222 62 230 62L230 62Q234 62 236 63Q238 65 238 68L238 68Q238 70 237 72L237 72L229 94Q229 95 229 96L229 96Q229 97 230 97L230 97Q232 97 234 92L234 92L236 88L237 88L235 94Q233 101 225 101L225 101Q221 101 219 99Q217 98 217 94L217 94Q217 92 218 89L218 89L225 69ZM271 62Q274 62 276 64Q278 66 278 69L278 69Q278 72 276 75Q273 78 270 78L270 78Q267 78 266 76Q264 75 264 72L264 72Q264 69 267 66Q269 64 272 63L272 63Q271 63 271 63L271 63Q269 63 267 64Q265 65 263 69Q261 72 258 80L258 80L253 100L240 100L249 69Q249 68 249 67L249 67Q249 66 248 66L248 66Q247 66 246 67Q245 68 244 70L244 70L243 75L241 75L243 69Q246 62 254 62L254 62Q258 62 259 63Q261 65 261 68L261 68Q261 69 261 70L261 70Q263 65 265 63Q268 62 271 62L271 62ZM351 67Q351 75 348 82Q344 90 336 95Q327 100 315 100L315 100Q313 100 312 100L312 100Q308 100 304 100L304 100Q296 100 291 100L291 100L292 99Q294 98 295 98Q296 98 297 96Q298 95 299 92L299 92L308 57Q309 55 309 54L309 54Q309 52 308 51Q307 51 304 50L304 50L304 49Q308 49 315 49L315 49L318 49Q324 49 329 49L329 49Q339 49 345 54Q351 58 351 67L351 67ZM316 99Q322 99 327 93Q331 88 334 80Q337 72 337 65L337 65Q337 50 327 50L327 50Q326 50 325 51Q324 51 324 52Q324 53 323 57L323 57L313 93Q312 96 312 97L312 97Q312 98 313 98Q314 99 316 99L316 99ZM364 51Q364 48 367 46Q369 44 373 44L373 44Q376 44 378 45Q380 46 380 49L380 49Q380 52 377 54Q374 56 371 56L371 56Q368 56 366 55Q364 54 364 51L364 51ZM361 69Q362 68 362 67L362 67Q362 66 361 66L361 66Q359 66 359 67Q358 68 357 70L357 70L355 75L354 75L356 69Q358 62 366 62L366 62Q370 62 372 63Q374 65 374 68L374 68Q374 70 373 72L373 72L366 94Q365 95 365 96L365 96Q365 97 367 97L367 97Q369 97 371 92L371 92L372 88L373 88L372 94Q369 101 361 101L361 101Q358 101 356 99Q354 98 354 94L354 94Q354 92 355 89L355 89L361 69ZM382 99Q383 99 385 99L385 99Q387 99 389 98Q390 97 390 94L390 94Q390 92 389 89Q388 87 386 83L386 83Q384 79 383 77Q382 75 382 72L382 72Q382 68 385 65Q389 62 396 62L396 62Q401 62 405 64Q408 65 408 70L408 70Q408 72 407 74Q406 76 403 76L403 76Q401 76 400 75Q399 73 399 70L399 70Q399 68 399 66Q400 65 401 63L401 63Q400 63 399 63L399 63Q397 63 395 65Q394 66 394 69L394 69Q394 71 395 72Q396 74 397 77L397 77L398 79Q401 83 402 85Q403 88 403 90L403 90Q403 93 401 96Q399 98 396 100Q393 101 388 101L388 101Q382 101 379 99Q375 97 375 92L375 92Q375 89 376 87Q377 85 380 85L380 85Q382 85 383 87Q384 89 384 92L384 92Q384 94 384 95Q383 97 382 99L382 99ZM440 62Q445 62 448 65Q450 68 450 73L450 73Q450 79 448 86Q445 92 440 97Q435 101 428 101L428 101Q426 101 425 101Q423 100 422 100L422 100L420 105Q419 107 419 108L419 108Q419 110 421 111Q422 111 425 112L425 112L425 113L423 113Q415 113 412 113L412 113Q410 113 402 113L402 113Q402 113 401 113L401 113L401 112Q404 112 405 111Q406 110 407 107L407 107L420 61Q418 65 415 69Q413 72 409 76L409 76L409 75Q412 72 414 69Q416 66 418 62Q420 59 422 53L422 53Q429 52 435 50L435 50L430 70Q432 66 435 64Q437 62 440 62L440 62ZM424 99Q427 99 430 95Q433 90 435 84Q437 78 437 72L437 72Q437 69 436 68Q436 66 435 66L435 66Q434 66 432 69Q430 71 428 75L428 75L422 98Q423 99 424 99L424 99ZM464 94Q464 95 464 95L464 95Q464 96 464 97Q465 97 465 97L465 97Q466 97 467 96Q468 95 469 92L469 92L471 88L472 88L470 94Q469 98 466 99Q463 101 460 101L460 101Q456 101 454 99Q452 97 452 94L452 94Q452 92 453 89L453 89L464 52Q464 51 464 50L464 50Q464 49 463 48Q462 47 460 47L460 47L460 46Q466 46 470 45Q475 44 479 43L479 43L464 94ZM511 92L512 88L514 88L512 94Q509 101 502 101L502 101Q497 101 495 98L495 98Q494 97 494 94L494 94Q494 93 494 93L494 93Q492 97 490 99Q487 101 483 101L483 101Q479 101 476 99Q474 96 474 92L474 92Q474 85 478 78Q482 71 487 66Q492 62 497 62L497 62Q501 62 502 66L502 66L503 63Q510 63 516 62L516 62L506 94Q506 95 506 96L506 96Q506 97 507 97L507 97Q509 97 511 92L511 92ZM489 96Q491 96 492 94Q494 92 496 86L496 86L501 68Q501 68 501 67L501 67Q501 65 500 65L500 65Q498 65 495 69Q492 74 490 80Q488 86 488 92L488 92Q488 94 488 95Q489 96 489 96L489 96ZM545 62Q551 62 551 69L551 69Q551 75 547 84Q543 93 537 100L537 100Q532 105 527 108Q522 112 517 113L517 113Q515 114 513 114L513 114Q510 114 509 112Q507 111 507 109L507 109Q507 107 509 105Q510 104 513 104L513 104Q518 104 522 110L522 110Q526 108 530 104L530 104L524 69Q524 67 524 66Q523 66 523 66L523 66Q522 66 522 67Q521 67 520 70L520 70L518 74L517 74L519 69Q520 65 523 63Q525 62 528 62L528 62Q532 62 534 64Q536 65 537 70L537 70L540 93Q544 86 547 78L547 78Q544 77 542 74Q540 71 540 68L540 68Q540 65 541 63Q543 62 545 62L545 62ZM600 62Q605 62 607 65Q610 68 610 73L610 73Q610 79 607 86Q604 92 599 97Q593 101 586 101L586 101Q585 101 583 101Q582 100 581 99L581 99Q579 99 578 99L578 99Q574 99 569 101L569 101L568 101Q569 99 569 96L569 96L582 52Q583 51 583 50L583 50Q583 49 582 48Q581 47 578 47L578 47L578 46Q584 46 589 45Q593 44 598 43L598 43L590 69Q592 65 595 63Q597 62 600 62L600 62ZM583 99Q586 99 589 94Q592 90 594 83Q596 76 596 71L596 71Q596 68 596 67Q596 66 595 66L595 66Q593 66 592 68Q590 70 589 73L589 73L581 98Q582 99 583 99L583 99ZM624 94Q623 95 623 95L623 95Q623 96 624 97Q624 97 625 97L625 97Q625 97 626 96Q627 95 628 92L628 92L630 88L631 88L629 94Q628 98 625 99Q622 101 619 101L619 101Q616 101 614 99Q612 97 612 94L612 94Q612 92 612 89L612 89L623 52Q624 51 624 50L624 50Q624 49 623 48Q622 47 619 47L619 47L619 46Q625 46 630 45Q634 44 639 43L639 43L624 94ZM670 92L672 88L673 88L671 94Q669 101 661 101L661 101Q656 101 655 98L655 98Q653 97 653 94L653 94Q653 93 653 93L653 93Q652 97 649 99Q646 101 643 101L643 101Q638 101 636 99Q634 96 634 92L634 92Q634 85 637 78Q641 71 646 66Q652 62 657 62L657 62Q661 62 661 66L661 66L662 63Q669 63 675 62L675 62L665 94Q665 95 665 96L665 96Q665 97 666 97L666 97Q668 97 670 92L670 92ZM649 96Q650 96 652 94Q653 92 655 86L655 86L660 68Q661 68 661 67L661 67Q661 65 659 65L659 65Q657 65 654 69Q651 74 649 80Q647 86 647 92L647 92Q647 94 647 95Q648 96 649 96L649 96ZM704 63Q700 63 697 67Q694 71 692 77Q690 83 690 89L690 89Q690 93 691 95Q693 97 695 97L695 97Q698 97 700 95Q702 94 704 91L704 91L705 91Q699 101 689 101L689 101Q683 101 680 98Q676 95 676 90L676 90Q676 83 679 77Q683 70 689 66Q695 62 703 62L703 62Q707 62 709 64Q712 66 712 69L712 69Q712 71 711 74Q710 76 708 77Q706 79 704 79L704 79Q701 79 700 77Q699 76 699 74L699 74Q699 70 701 67Q703 65 706 64L706 64Q705 63 704 63L704 63ZM739 72Q739 69 741 67Q742 65 745 64L745 64Q745 63 744 63Q744 63 743 63L743 63Q741 63 740 64L740 64Q739 65 738 66Q738 67 737 70L737 70Q736 74 734 76Q733 78 730 79L730 79Q743 79 743 87L743 87Q743 88 743 90L743 90L742 94Q742 95 742 95L742 95Q742 97 743 97L743 97Q745 97 747 92L747 92L748 88L750 88L748 94Q745 101 736 101L736 101Q733 101 731 99Q729 98 729 95L729 95Q729 94 730 92L730 92L731 87Q731 85 731 84L731 84Q731 82 730 81Q730 80 728 80L728 80L722 100L709 100L723 52Q724 51 724 50L724 50Q724 49 723 48Q722 47 719 47L719 47L719 46Q725 46 730 45Q734 44 739 43L739 43L728 78Q730 78 732 76Q733 75 734 74Q735 72 736 69L736 69Q736 67 737 66Q738 64 739 63L739 63Q740 62 741 62Q742 62 744 62L744 62Q748 62 750 64Q752 66 752 70L752 70Q752 73 750 75Q748 77 745 77L745 77Q742 77 740 76Q739 74 739 72L739 72ZM783 51Q783 48 785 46Q788 44 792 44L792 44Q795 44 797 45Q798 46 798 49L798 49Q798 52 796 54Q793 56 789 56L789 56Q786 56 785 55Q783 54 783 51L783 51ZM780 69Q780 68 780 67L780 67Q780 66 779 66L779 66Q778 66 777 67Q776 68 775 70L775 70L774 75L772 75L774 69Q777 62 785 62L785 62Q789 62 791 63Q793 65 793 68L793 68Q793 70 792 72L792 72L785 94Q784 95 784 96L784 96Q784 97 785 97L785 97Q788 97 789 92L789 92L791 88L792 88L790 94Q788 101 780 101L780 101Q776 101 774 99Q772 98 772 94L772 94Q772 92 773 89L773 89L780 69ZM818 64L809 94Q809 95 809 95L809 95Q809 97 810 97L810 97Q812 97 813 95Q815 94 815 91L815 91L817 88L818 88L817 92Q815 96 812 99Q809 101 805 101L805 101Q801 101 799 99Q797 97 797 93L797 93Q797 91 798 89L798 89L805 64L798 64L799 63L805 63L808 52Q816 52 822 51L822 51L818 63L825 63L825 64L818 64ZM857 92L859 88L860 88L858 94Q856 101 848 101L848 101Q844 101 842 98L842 98Q841 97 841 94L841 94Q841 93 841 93L841 93Q839 97 836 99Q834 101 830 101L830 101Q825 101 823 99Q821 96 821 92L821 92Q821 85 825 78Q828 71 834 66Q839 62 844 62L844 62Q848 62 848 66L848 66L849 63Q856 63 862 62L862 62L853 94Q852 95 852 96L852 96Q852 97 854 97L854 97Q856 97 857 92L857 92ZM836 96Q838 96 839 94Q841 92 843 86L843 86L848 68Q848 68 848 67L848 67Q848 65 846 65L846 65Q844 65 842 69Q839 74 836 80Q834 86 834 92L834 92Q834 94 835 95Q835 96 836 96L836 96ZM875 94Q875 95 875 95L875 95Q875 96 876 97Q876 97 877 97L877 97Q877 97 878 96Q879 95 880 92L880 92L882 88L883 88L881 94Q880 98 877 99Q874 101 871 101L871 101Q868 101 866 99Q863 97 863 94L863 94Q863 92 864 89L864 89L875 52Q876 51 876 50L876 50Q876 49 875 48Q874 47 871 47L871 47L871 46Q877 46 882 45Q886 44 891 43L891 43L875 94ZM898 51Q898 48 901 46Q903 44 907 44L907 44Q910 44 912 45Q913 46 913 49L913 49Q913 52 911 54Q908 56 905 56L905 56Q901 56 900 55Q898 54 898 51L898 51ZM895 69Q896 68 896 67L896 67Q896 66 895 66L895 66Q893 66 892 67Q892 68 891 70L891 70L889 75L888 75L890 69Q892 62 900 62L900 62Q904 62 906 63Q908 65 908 68L908 68Q908 70 907 72L907 72L900 94Q899 95 899 96L899 96Q899 97 901 97L901 97Q903 97 904 92L904 92L906 88L907 88L905 94Q903 101 895 101L895 101Q892 101 889 99Q887 98 887 94L887 94Q887 92 889 89L889 89L895 69ZM938 63Q934 63 931 67Q928 71 926 77Q924 83 924 89L924 89Q924 93 925 95Q927 97 930 97L930 97Q932 97 934 95Q936 94 938 91L938 91L940 91Q933 101 923 101L923 101Q917 101 914 98Q910 95 910 90L910 90Q910 83 914 77Q917 70 923 66Q929 62 937 62L937 62Q941 62 944 64Q946 66 946 69L946 69Q946 71 945 74Q944 76 942 77Q940 79 938 79L938 79Q936 79 934 77Q933 76 933 74L933 74Q933 70 935 67Q937 65 940 64L940 64Q939 63 938 63L938 63Z"/></svg>