<svg xmlns="http://www.w3.org/2000/svg" viewBox="5.040000000000001 49.599999999999994 302.04 65.376"><path d="M5.04 100L5.04 53.27L23.76 53.27Q30.60 53.27 34.60 54.21Q38.59 55.14 40.43 57.48Q42.26 59.82 42.26 64.00L42.26 64.00L42.26 72.86Q42.26 77.46 40.28 80.06Q38.30 82.65 34.02 83.73Q29.74 84.81 22.46 84.81L22.46 84.81L16.27 84.81L16.27 100L5.04 100ZM16.27 77.10L23.40 77.10Q27.79 77.10 29.59 76.06Q31.39 75.02 31.39 72.50L31.39 72.50L31.39 65.01Q31.39 62.70 29.66 61.98L29.66 61.98Q28.01 61.26 23.26 61.26L23.26 61.26L16.27 61.26L16.27 77.10ZM50.04 100L50.04 49.60L60.55 49.60L60.55 100L50.04 100ZM79.92 100.72Q75.02 100.72 72.61 99.82Q70.20 98.92 69.23 96.58Q68.26 94.24 68.26 89.56L68.26 89.56Q68.26 85.38 69.30 83.01Q70.34 80.63 72.68 79.59Q75.02 78.54 79.13 78.54L79.13 78.54L90.94 78.54L90.94 76.17Q90.94 73.94 90.32 72.86Q89.71 71.78 88.09 71.34Q86.47 70.91 83.23 70.91L83.23 70.91Q78.77 70.91 70.99 71.78L70.99 71.78L70.99 65.15Q76.68 64.43 84.31 64.43L84.31 64.43Q91.01 64.43 94.64 65.44Q98.28 66.45 99.86 68.90Q101.45 71.34 101.45 76.02L101.45 76.02L101.45 100L91.15 100L91.15 96.83Q89.93 98.92 87.84 99.78L87.84 99.78Q85.75 100.72 79.92 100.72L79.92 100.72ZM84.02 94.17Q87.19 94.17 88.56 93.95L88.56 93.95Q89.57 93.81 89.96 93.52Q90.36 93.23 90.65 92.58L90.65 92.58Q90.94 92.08 90.94 91.07L90.94 91.07L90.94 84.30L83.74 84.30Q81.29 84.30 80.28 84.63Q79.27 84.95 78.91 85.92Q78.55 86.90 78.55 89.34L78.55 89.34Q78.55 91.72 78.91 92.66Q79.27 93.59 80.32 93.88Q81.36 94.17 84.02 94.17L84.02 94.17ZM114.19 114.98L120.53 99.71L106.63 65.15L118.08 65.15L125.93 89.78L133.06 65.15L143.93 65.15L124.85 114.98L114.19 114.98ZM183.31 100.72Q176.69 100.72 172.84 99.35Q168.98 97.98 167.33 95.14Q165.67 92.30 165.67 87.62L165.67 87.62L165.67 49.60L176.18 49.60L176.18 68.61Q177.12 66.23 179.64 65.33Q182.16 64.43 187.49 64.43L187.49 64.43Q192.02 64.43 194.80 65.15Q197.57 65.87 199.01 67.46L199.01 67.46Q200.38 69.04 200.88 70.95Q201.38 72.86 201.38 76.17L201.38 76.17L201.38 87.62Q201.38 94.67 197.14 97.70Q192.89 100.72 183.31 100.72L183.31 100.72ZM183.46 94.17Q186.55 94.17 188.14 93.74Q189.72 93.30 190.30 92.22Q190.87 91.14 190.87 88.98L190.87 88.98L190.87 76.10Q190.87 73.72 190.37 72.68Q189.86 71.63 188.35 71.27Q186.84 70.91 183.38 70.91L183.38 70.91Q180.43 70.91 178.88 71.42Q177.34 71.92 176.76 73Q176.18 74.08 176.18 76.10L176.18 76.10L176.18 88.98Q176.18 91.14 176.72 92.22Q177.26 93.30 178.81 93.74Q180.36 94.17 183.46 94.17L183.46 94.17ZM226.30 100.72Q223.06 100.72 220.97 100.50Q218.88 100.29 216.50 99.64L216.50 99.64Q213.91 98.92 212.33 97.59Q210.74 96.26 209.66 93.81L209.66 93.81Q208.58 91.43 208.58 88.05L208.58 88.05L208.58 77.75Q208.58 74.30 209.66 71.70Q210.74 69.11 212.47 67.67L212.47 67.67Q213.98 66.45 216.47 65.62Q218.95 64.79 221.33 64.58L221.33 64.58Q224.06 64.43 226.30 64.43L226.30 64.43Q229.61 64.43 231.59 64.61Q233.57 64.79 235.94 65.51L235.94 65.51Q238.54 66.30 240.16 67.67Q241.78 69.04 242.93 71.56L242.93 71.56Q244.01 74.15 244.01 77.75L244.01 77.75L244.01 88.05Q244.01 91.29 242.96 93.74Q241.92 96.18 240.26 97.55L240.26 97.55Q238.82 98.78 236.34 99.53Q233.86 100.29 231.48 100.50L231.48 100.50Q229.32 100.72 226.30 100.72L226.30 100.72ZM226.30 94.17Q229.25 94.17 230.76 93.70Q232.27 93.23 232.88 92.22Q233.50 91.22 233.50 89.27L233.50 89.27L233.50 76.10Q233.50 73.22 231.98 72.06Q230.47 70.91 226.30 70.91L226.30 70.91Q222.12 70.91 220.61 72.06Q219.10 73.22 219.10 76.10L219.10 76.10L219.10 89.27Q219.10 91.22 219.71 92.22Q220.32 93.23 221.83 93.70Q223.34 94.17 226.30 94.17L226.30 94.17ZM252.50 100L252.50 49.60L263.02 49.60L263.02 100L252.50 100ZM285.91 100.72Q279.72 100.72 276.77 99.82Q273.82 98.92 272.66 96.40Q271.51 93.88 271.51 88.55L271.51 88.55L271.51 74.94Q271.51 69.18 274.79 66.81Q278.06 64.43 285.41 64.43L285.41 64.43Q288.86 64.43 290.84 64.83Q292.82 65.22 294.05 66.20Q295.27 67.17 296.57 69.04L296.57 69.04L296.57 49.60L307.08 49.60L307.08 100L296.93 100L296.93 96.04Q295.63 98.13 294.59 98.96Q293.54 99.78 291.67 100.22L291.67 100.22Q289.73 100.72 285.91 100.72L285.91 100.72ZM288.58 94.17Q292.10 94.17 293.76 93.81Q295.42 93.45 295.99 92.48Q296.57 91.50 296.57 89.56L296.57 89.56L296.57 75.52Q296.57 73.72 295.96 72.75Q295.34 71.78 293.80 71.34Q292.25 70.91 289.15 70.91L289.15 70.91Q285.84 70.91 284.40 71.31Q282.96 71.70 282.49 72.68Q282.02 73.65 282.02 75.88L282.02 75.88L282.02 89.20Q282.02 91.22 282.49 92.26Q282.96 93.30 284.33 93.74Q285.70 94.17 288.58 94.17L288.58 94.17Z"/></svg>