<svg xmlns="http://www.w3.org/2000/svg" viewBox="-3.0240000000000005 42.75999999999999 878.2560000000002 70.77600000000001"><path d="M19.44 79.55L16.06 92.37Q15.55 94.10 15.55 95.54L15.55 95.54Q15.55 97.05 16.60 97.77Q17.64 98.49 20.30 98.56L20.30 98.56L20.02 100Q15.70 99.78 8.93 99.78L8.93 99.78Q0.79 99.78-3.02 100L-3.02 100L-2.74 98.56Q-0.14 98.42 1.15 97.98Q2.45 97.55 3.20 96.33Q3.96 95.10 4.68 92.37L4.68 92.37L14.18 56.66Q14.69 54.28 14.69 53.27L14.69 53.27Q14.69 51.83 13.64 51.18Q12.60 50.54 9.94 50.46L9.94 50.46L10.30 49.02Q13.97 49.24 21.74 49.24L21.74 49.24Q25.20 49.24 26.93 49.17L26.93 49.17L32.26 49.10Q49.18 49.10 49.18 59.97L49.18 59.97Q49.18 65.58 45.43 70.05Q41.69 74.51 34.92 77.03Q28.15 79.55 19.44 79.55L19.44 79.55ZM25.56 56.66L19.87 78.11L20.16 78.11Q26.14 78.11 29.95 75.23Q33.77 72.35 35.46 67.85Q37.15 63.35 37.15 58.31L37.15 58.31Q37.15 54.35 35.50 52.41Q33.84 50.46 30.17 50.46L30.17 50.46Q28.66 50.46 27.94 50.97Q27.22 51.47 26.75 52.62Q26.28 53.78 25.56 56.66L25.56 56.66ZM56.52 93.88Q56.23 94.82 56.23 95.68L56.23 95.68Q56.23 97.48 57.74 97.48L57.74 97.48Q59.98 97.48 62.06 91.79L62.06 91.79L63.36 88.34L64.73 88.34L62.93 93.59Q61.56 97.62 58.97 99.32Q56.38 101.01 53.35 101.01L53.35 101.01Q50.11 101.01 48.46 99.32Q46.80 97.62 46.80 94.60L46.80 94.60Q46.80 92.37 47.66 89.56L47.66 89.56L58.97 51.98Q59.33 50.68 59.33 49.96L59.33 49.96Q59.33 48.52 58.21 47.87Q57.10 47.22 54.43 47.22L54.43 47.22L54.94 45.71Q59.90 45.64 63.86 44.92Q67.82 44.20 71.64 42.76L71.64 42.76L56.52 93.88ZM102.24 91.79L103.54 88.34L104.90 88.34L103.10 93.59Q101.66 97.62 99.11 99.32Q96.55 101.01 93.60 101.01L93.60 101.01Q89.86 101.01 88.27 98.78L88.27 98.78Q87.26 97.48 87.26 95.18L87.26 95.18Q87.26 93.30 87.91 90.93L87.91 90.93Q85.46 96.26 82.48 98.63Q79.49 101.01 75.89 101.01L75.89 101.01Q71.93 101.01 69.88 98.67Q67.82 96.33 67.82 92.15L67.82 92.15Q67.82 85.74 71.24 78.58Q74.66 71.42 79.92 66.59Q85.18 61.77 90.22 61.77L90.22 61.77Q92.16 61.77 93.35 62.92Q94.54 64.07 94.75 66.38L94.75 66.38L95.76 62.85Q101.52 62.78 106.20 61.77L106.20 61.77L96.77 93.88Q96.41 95.10 96.41 95.90L96.41 95.90Q96.41 97.48 97.78 97.48L97.78 97.48Q100.30 97.48 102.24 91.79L102.24 91.79ZM90.79 80.49L93.96 69.18Q94.03 68.82 94.03 68.10L94.03 68.10Q94.03 66.30 93.42 65.37Q92.81 64.43 91.58 64.43L91.58 64.43Q89.14 64.43 86.00 68.82Q82.87 73.22 80.68 79.84Q78.48 86.46 78.48 92.66L78.48 92.66Q78.48 95.03 78.95 96.08Q79.42 97.12 80.50 97.12L80.50 97.12Q82.08 97.12 83.99 94.92Q85.90 92.73 87.80 88.59Q89.71 84.45 91.15 78.76L91.15 78.76L90.79 80.49ZM137.02 61.77Q141.77 61.77 141.77 68.32L141.77 68.32Q141.77 74.80 137.59 83.76Q133.42 92.73 127.58 99.71L127.58 99.71Q123.91 104.10 119.48 107.49Q115.06 110.87 110.38 112.46L110.38 112.46Q107.50 113.54 105.26 113.54L105.26 113.54Q102.96 113.54 101.63 112.46Q100.30 111.38 100.30 109.50L100.30 109.50Q100.30 107.56 101.70 106.30Q103.10 105.04 105.26 105.04L105.26 105.04Q109.51 105.04 112.97 110.01L112.97 110.01Q118.15 107.49 122.33 103.38L122.33 103.38L116.71 68.97Q116.35 66.95 115.96 66.27Q115.56 65.58 114.84 65.58L114.84 65.58Q114.05 65.58 113.33 66.66Q112.61 67.74 111.46 70.91L111.46 70.91L110.16 74.44L108.79 74.44L110.59 69.18Q112.03 65.08 114.23 63.42Q116.42 61.77 119.45 61.77L119.45 61.77Q122.54 61.77 124.27 63.50Q126.00 65.22 126.65 69.54L126.65 69.54L129.96 94.24Q133.13 89.70 135.43 84.99Q137.74 80.27 138.82 75.95L138.82 75.95Q135.86 74.37 133.99 71.92Q132.12 69.47 132.19 66.66L132.19 66.66Q132.19 64.43 133.49 63.10Q134.78 61.77 137.02 61.77L137.02 61.77ZM171.65 43.70Q176.11 43.70 178.63 45.57Q181.15 47.44 181.15 50.61L181.15 50.61Q181.15 52.98 179.24 54.93Q177.34 56.87 174.53 56.87L174.53 56.87Q172.37 56.87 171.14 55.86Q169.92 54.86 169.92 52.98L169.92 52.98Q169.92 50.61 171.43 48.74Q172.94 46.86 175.46 45.93L175.46 45.93Q175.10 45.50 174.46 45.24Q173.81 44.99 173.02 44.99L173.02 44.99Q170.86 44.99 169.20 46.43L169.20 46.43Q167.90 47.58 166.97 50.10Q166.03 52.62 164.81 57.23L164.81 57.23L163.30 62.78L171 62.78L170.57 64.22L162.94 64.22L149.98 112.53Q143.93 112.60 139.54 113.54L139.54 113.54L152.78 64.22L146.74 64.22L147.17 62.78L153.14 62.78Q154.73 56.94 156.74 53.09Q158.76 49.24 161.50 47.01L161.50 47.01Q165.53 43.70 171.65 43.70L171.65 43.70ZM201.67 91.79L202.97 88.34L204.34 88.34L202.54 93.59Q201.10 97.62 198.54 99.32Q195.98 101.01 193.03 101.01L193.03 101.01Q189.29 101.01 187.70 98.78L187.70 98.78Q186.70 97.48 186.70 95.18L186.70 95.18Q186.70 93.30 187.34 90.93L187.34 90.93Q184.90 96.26 181.91 98.63Q178.92 101.01 175.32 101.01L175.32 101.01Q171.36 101.01 169.31 98.67Q167.26 96.33 167.26 92.15L167.26 92.15Q167.26 85.74 170.68 78.58Q174.10 71.42 179.35 66.59Q184.61 61.77 189.65 61.77L189.65 61.77Q191.59 61.77 192.78 62.92Q193.97 64.07 194.18 66.38L194.18 66.38L195.19 62.85Q200.95 62.78 205.63 61.77L205.63 61.77L196.20 93.88Q195.84 95.10 195.84 95.90L195.84 95.90Q195.84 97.48 197.21 97.48L197.21 97.48Q199.73 97.48 201.67 91.79L201.67 91.79ZM190.22 80.49L193.39 69.18Q193.46 68.82 193.46 68.10L193.46 68.10Q193.46 66.30 192.85 65.37Q192.24 64.43 191.02 64.43L191.02 64.43Q188.57 64.43 185.44 68.82Q182.30 73.22 180.11 79.84Q177.91 86.46 177.91 92.66L177.91 92.66Q177.91 95.03 178.38 96.08Q178.85 97.12 179.93 97.12L179.93 97.12Q181.51 97.12 183.42 94.92Q185.33 92.73 187.24 88.59Q189.14 84.45 190.58 78.76L190.58 78.76L190.22 80.49ZM220.25 50.75Q220.32 47.80 222.41 46.07Q224.50 44.34 227.59 44.34L227.59 44.34Q230.11 44.34 231.52 45.53Q232.92 46.72 232.92 48.81L232.92 48.81Q232.92 51.69 230.76 53.56Q228.60 55.43 225.43 55.43L225.43 55.43Q222.84 55.43 221.47 54.17Q220.10 52.91 220.25 50.75L220.25 50.75ZM217.51 68.90Q218.02 67.24 218.02 66.74L218.02 66.74Q218.02 65.30 216.72 65.30L216.72 65.30Q215.42 65.30 214.34 66.63Q213.26 67.96 212.11 70.98L212.11 70.98L210.67 74.66L209.30 74.66L211.32 69.18Q213.98 61.77 221.33 61.77L221.33 61.77Q224.64 61.77 226.15 63.39Q227.66 65.01 227.66 67.60L227.66 67.60Q227.66 69.69 226.87 71.85L226.87 71.85L219.31 93.88Q218.88 95.18 218.88 95.97L218.88 95.97Q218.88 97.48 220.32 97.48L220.32 97.48Q221.40 97.48 222.52 96.26Q223.63 95.03 224.86 91.79L224.86 91.79L226.15 88.34L227.52 88.34L225.65 93.59Q223.13 101.01 215.93 101.01L215.93 101.01Q209.38 101.01 209.38 95.03L209.38 95.03Q209.38 92.66 210.46 89.56L210.46 89.56L217.51 68.90ZM260.71 61.77Q263.45 61.77 265.00 63.39Q266.54 65.01 266.54 67.60L266.54 67.60Q266.54 70.70 264.56 72.89Q262.58 75.09 259.70 75.09L259.70 75.09Q257.62 75.09 256.46 73.97Q255.31 72.86 255.31 70.77L255.31 70.77Q255.31 68.25 257.04 66.20Q258.77 64.14 261.29 63.57L261.29 63.57Q261.14 63.57 260.86 63.46Q260.57 63.35 260.35 63.35L260.35 63.35Q256.68 63.35 252.86 68.68Q249.05 74.01 245.09 87.69L245.09 87.69L241.92 100L231.77 100L240.55 68.90Q240.91 67.74 240.91 66.66L240.91 66.66Q240.91 65.30 239.76 65.30L239.76 65.30Q238.39 65.30 237.31 66.59Q236.23 67.89 235.08 70.98L235.08 70.98L233.71 74.66L232.34 74.66L234.29 69.18Q236.95 61.77 244.22 61.77L244.22 61.77Q249.77 61.77 249.77 67.60L249.77 67.60Q249.77 69.69 249.19 71.85L249.19 71.85L248.62 74.15Q251.28 67.31 254.05 64.54Q256.82 61.77 260.71 61.77L260.71 61.77ZM337.32 66.23Q337.32 74.51 333.29 82.29Q329.26 90.06 321.23 95.03Q313.20 100 301.82 100L301.82 100L298.30 99.93Q294.12 99.78 290.95 99.78L290.95 99.78Q283.97 99.78 280.15 100L280.15 100L280.37 98.56Q282.82 98.42 284.08 97.98Q285.34 97.55 286.09 96.29Q286.85 95.03 287.57 92.37L287.57 92.37L297.00 56.66Q297.58 54.71 297.58 53.56L297.58 53.56Q297.58 51.98 296.53 51.26Q295.49 50.54 292.82 50.46L292.82 50.46L293.04 49.02Q296.28 49.24 302.54 49.24L302.54 49.24L304.85 49.24Q312.41 49.02 315.58 49.02L315.58 49.02Q326.16 49.02 331.74 53.38Q337.32 57.74 337.32 66.23L337.32 66.23ZM301.82 98.70Q309.17 98.70 314.57 93.59Q319.97 88.48 322.81 80.45Q325.66 72.42 325.66 63.93L325.66 63.93Q325.66 57.16 322.85 53.74Q320.04 50.32 313.99 50.32L313.99 50.32Q312.12 50.32 311.22 50.79Q310.32 51.26 309.74 52.48Q309.17 53.70 308.45 56.51L308.45 56.51L299.02 92.51Q298.22 95.68 298.22 96.47L298.22 96.47Q298.22 97.70 299.05 98.20Q299.88 98.70 301.82 98.70L301.82 98.70ZM351.14 50.75Q351.22 47.80 353.30 46.07Q355.39 44.34 358.49 44.34L358.49 44.34Q361.01 44.34 362.41 45.53Q363.82 46.72 363.82 48.81L363.82 48.81Q363.82 51.69 361.66 53.56Q359.50 55.43 356.33 55.43L356.33 55.43Q353.74 55.43 352.37 54.17Q351.00 52.91 351.14 50.75L351.14 50.75ZM348.41 68.90Q348.91 67.24 348.91 66.74L348.91 66.74Q348.91 65.30 347.62 65.30L347.62 65.30Q346.32 65.30 345.24 66.63Q344.16 67.96 343.01 70.98L343.01 70.98L341.57 74.66L340.20 74.66L342.22 69.18Q344.88 61.77 352.22 61.77L352.22 61.77Q355.54 61.77 357.05 63.39Q358.56 65.01 358.56 67.60L358.56 67.60Q358.56 69.69 357.77 71.85L357.77 71.85L350.21 93.88Q349.78 95.18 349.78 95.97L349.78 95.97Q349.78 97.48 351.22 97.48L351.22 97.48Q352.30 97.48 353.41 96.26Q354.53 95.03 355.75 91.79L355.75 91.79L357.05 88.34L358.42 88.34L356.54 93.59Q354.02 101.01 346.82 101.01L346.82 101.01Q340.27 101.01 340.27 95.03L340.27 95.03Q340.27 92.66 341.35 89.56L341.35 89.56L348.41 68.90ZM366.91 98.99Q367.99 99.50 369.72 99.50L369.72 99.50Q372.46 99.50 374.11 97.84Q375.77 96.18 375.77 93.30L375.77 93.30Q375.77 91 374.76 88.55Q373.75 86.10 371.74 83.01L371.74 83.01Q371.45 82.58 370.04 80.42Q368.64 78.26 367.96 76.28Q367.27 74.30 367.27 72.35L367.27 72.35Q367.27 67.67 370.76 64.72Q374.26 61.77 380.38 61.77L380.38 61.77Q385.06 61.77 388.19 63.46Q391.32 65.15 391.32 69.26L391.32 69.26Q391.32 71.27 390.17 72.93Q389.02 74.58 386.93 74.58L386.93 74.58Q385.13 74.58 384.05 73.22Q382.97 71.85 382.97 69.76L382.97 69.76Q382.97 67.96 383.62 66.41Q384.26 64.86 385.20 63.78L385.20 63.78Q384.26 63.21 382.68 63.21L382.68 63.21Q380.09 63.21 378.61 64.83Q377.14 66.45 377.06 69.33L377.06 69.33Q377.06 71.27 377.82 72.86Q378.58 74.44 380.38 77.32L380.38 77.32L381.38 78.83Q383.69 82.65 384.66 85.10Q385.63 87.54 385.63 89.99L385.63 89.99Q385.63 93.16 383.98 95.64Q382.32 98.13 379.26 99.57Q376.20 101.01 372.10 101.01L372.10 101.01Q366.98 101.01 363.60 99.03Q360.22 97.05 360.22 92.66L360.22 92.66Q360.22 90.50 361.30 88.98Q362.38 87.47 364.25 87.47L364.25 87.47Q366.12 87.47 367.24 89.06Q368.35 90.64 368.35 93.09L368.35 93.09Q368.35 94.67 367.99 95.93Q367.63 97.19 366.91 98.99L366.91 98.99ZM422.71 61.77Q427.10 61.77 429.37 64.61Q431.64 67.46 431.64 72.86L431.64 72.86Q431.64 78.76 429.01 85.35Q426.38 91.94 421.49 96.47Q416.59 101.01 410.11 101.01L410.11 101.01Q408.10 101.01 406.37 100.36Q404.64 99.71 403.63 98.49L403.63 98.49L401.69 105.40Q401.26 106.91 401.26 107.99L401.26 107.99Q401.26 110.01 402.70 110.73Q404.14 111.45 407.23 111.52L407.23 111.52L406.80 113.03L405.14 112.96Q397.80 112.74 395.42 112.74L395.42 112.74Q393.05 112.74 385.27 113.03L385.27 113.03L385.70 111.52Q388.30 111.52 389.45 110.58Q390.60 109.65 391.32 107.06L391.32 107.06L404.35 60.33Q402.34 64.79 399.74 68.36Q397.15 71.92 393.41 75.74L393.41 75.74L392.62 74.80Q395.78 71.34 397.87 68.79Q399.96 66.23 402.08 62.52Q404.21 58.82 406.30 53.49L406.30 53.49L406.51 52.62Q412.34 52.19 417.24 50.61L417.24 50.61L411.05 72.57Q413.64 66.95 416.52 64.36Q419.40 61.77 422.71 61.77L422.71 61.77ZM407.30 98.92Q410.69 98.92 413.89 94.56Q417.10 90.21 419.11 83.76Q421.13 77.32 421.13 71.56L421.13 71.56Q421.13 68.18 420.52 66.88Q419.90 65.58 418.75 65.58L418.75 65.58Q416.59 65.58 413.86 69.76Q411.12 73.94 408.82 80.34L408.82 80.34L403.99 97.26Q405.36 98.92 407.30 98.92L407.30 98.92ZM444.02 93.88Q443.74 94.82 443.74 95.68L443.74 95.68Q443.74 97.48 445.25 97.48L445.25 97.48Q447.48 97.48 449.57 91.79L449.57 91.79L450.86 88.34L452.23 88.34L450.43 93.59Q449.06 97.62 446.47 99.32Q443.88 101.01 440.86 101.01L440.86 101.01Q437.62 101.01 435.96 99.32Q434.30 97.62 434.30 94.60L434.30 94.60Q434.30 92.37 435.17 89.56L435.17 89.56L446.47 51.98Q446.83 50.68 446.83 49.96L446.83 49.96Q446.83 48.52 445.72 47.87Q444.60 47.22 441.94 47.22L441.94 47.22L442.44 45.71Q447.41 45.64 451.37 44.92Q455.33 44.20 459.14 42.76L459.14 42.76L444.02 93.88ZM489.74 91.79L491.04 88.34L492.41 88.34L490.61 93.59Q489.17 97.62 486.61 99.32Q484.06 101.01 481.10 101.01L481.10 101.01Q477.36 101.01 475.78 98.78L475.78 98.78Q474.77 97.48 474.77 95.18L474.77 95.18Q474.77 93.30 475.42 90.93L475.42 90.93Q472.97 96.26 469.98 98.63Q466.99 101.01 463.39 101.01L463.39 101.01Q459.43 101.01 457.38 98.67Q455.33 96.33 455.33 92.15L455.33 92.15Q455.33 85.74 458.75 78.58Q462.17 71.42 467.42 66.59Q472.68 61.77 477.72 61.77L477.72 61.77Q479.66 61.77 480.85 62.92Q482.04 64.07 482.26 66.38L482.26 66.38L483.26 62.85Q489.02 62.78 493.70 61.77L493.70 61.77L484.27 93.88Q483.91 95.10 483.91 95.90L483.91 95.90Q483.91 97.48 485.28 97.48L485.28 97.48Q487.80 97.48 489.74 91.79L489.74 91.79ZM478.30 80.49L481.46 69.18Q481.54 68.82 481.54 68.10L481.54 68.10Q481.54 66.30 480.92 65.37Q480.31 64.43 479.09 64.43L479.09 64.43Q476.64 64.43 473.51 68.82Q470.38 73.22 468.18 79.84Q465.98 86.46 465.98 92.66L465.98 92.66Q465.98 95.03 466.45 96.08Q466.92 97.12 468.00 97.12L468.00 97.12Q469.58 97.12 471.49 94.92Q473.40 92.73 475.31 88.59Q477.22 84.45 478.66 78.76L478.66 78.76L478.30 80.49ZM524.52 61.77Q529.27 61.77 529.27 68.32L529.27 68.32Q529.27 74.80 525.10 83.76Q520.92 92.73 515.09 99.71L515.09 99.71Q511.42 104.10 506.99 107.49Q502.56 110.87 497.88 112.46L497.88 112.46Q495.00 113.54 492.77 113.54L492.77 113.54Q490.46 113.54 489.13 112.46Q487.80 111.38 487.80 109.50L487.80 109.50Q487.80 107.56 489.20 106.30Q490.61 105.04 492.77 105.04L492.77 105.04Q497.02 105.04 500.47 110.01L500.47 110.01Q505.66 107.49 509.83 103.38L509.83 103.38L504.22 68.97Q503.86 66.95 503.46 66.27Q503.06 65.58 502.34 65.58L502.34 65.58Q501.55 65.58 500.83 66.66Q500.11 67.74 498.96 70.91L498.96 70.91L497.66 74.44L496.30 74.44L498.10 69.18Q499.54 65.08 501.73 63.42Q503.93 61.77 506.95 61.77L506.95 61.77Q510.05 61.77 511.78 63.50Q513.50 65.22 514.15 69.54L514.15 69.54L517.46 94.24Q520.63 89.70 522.94 84.99Q525.24 80.27 526.32 75.95L526.32 75.95Q523.37 74.37 521.50 71.92Q519.62 69.47 519.70 66.66L519.70 66.66Q519.70 64.43 520.99 63.10Q522.29 61.77 524.52 61.77L524.52 61.77ZM577.01 61.77Q581.40 61.77 583.67 64.61Q585.94 67.46 585.94 72.86L585.94 72.86Q585.94 78.76 583.16 85.35Q580.39 91.94 575.28 96.47Q570.17 101.01 563.54 101.01L563.54 101.01Q561.53 101.01 559.87 100.22Q558.22 99.42 557.42 97.98L557.42 97.98Q555.41 98.13 553.14 98.96Q550.87 99.78 547.99 101.15L547.99 101.15L546.91 100.65Q547.85 98.70 548.42 96.40L548.42 96.40L561.46 51.98Q561.74 51.04 561.74 49.96L561.74 49.96Q561.74 48.52 560.66 47.87Q559.58 47.22 556.92 47.22L556.92 47.22L557.35 45.71Q562.32 45.64 566.28 44.92Q570.24 44.20 573.98 42.76L573.98 42.76L565.56 71.99Q568.22 66.66 570.96 64.22Q573.70 61.77 577.01 61.77L577.01 61.77ZM561.53 98.92Q564.91 98.92 568.15 94.31Q571.39 89.70 573.41 82.97Q575.42 76.24 575.42 70.55L575.42 70.55Q575.42 67.89 574.81 66.74Q574.20 65.58 572.98 65.58L572.98 65.58Q570.96 65.58 568.48 69.15Q565.99 72.71 563.76 78.40L563.76 78.40L558.29 97.34Q559.66 98.92 561.53 98.92L561.53 98.92ZM588.89 89.13Q588.89 83.22 591.59 76.82Q594.29 70.41 599.58 66.09Q604.87 61.77 612.22 61.77L612.22 61.77Q617.83 61.77 620.86 64.83Q623.88 67.89 623.88 73.65L623.88 73.65Q623.88 79.55 621.18 85.96Q618.48 92.37 613.19 96.69Q607.90 101.01 600.55 101.01L600.55 101.01Q594.94 101.01 591.91 97.95Q588.89 94.89 588.89 89.13L588.89 89.13ZM611.86 63.21Q609.19 63.21 606.02 68.32Q602.86 73.43 600.70 80.85Q598.54 88.26 598.54 94.67L598.54 94.67Q598.54 97.26 599.11 98.42Q599.69 99.57 600.98 99.57L600.98 99.57Q603.65 99.57 606.78 94.60Q609.91 89.63 612.07 82.25Q614.23 74.87 614.23 68.25L614.23 68.25Q614.23 65.44 613.66 64.32Q613.08 63.21 611.86 63.21L611.86 63.21ZM636.34 93.88Q636.05 94.82 636.05 95.68L636.05 95.68Q636.05 97.48 637.56 97.48L637.56 97.48Q639.79 97.48 641.88 91.79L641.88 91.79L643.18 88.34L644.54 88.34L642.74 93.59Q641.38 97.62 638.78 99.32Q636.19 101.01 633.17 101.01L633.17 101.01Q629.93 101.01 628.27 99.32Q626.62 97.62 626.62 94.60L626.62 94.60Q626.62 92.37 627.48 89.56L627.48 89.56L638.78 51.98Q639.14 50.68 639.14 49.96L639.14 49.96Q639.14 48.52 638.03 47.87Q636.91 47.22 634.25 47.22L634.25 47.22L634.75 45.71Q639.72 45.64 643.68 44.92Q647.64 44.20 651.46 42.76L651.46 42.76L636.34 93.88ZM683.64 91.79L684.86 88.34L686.23 88.34L684.50 93.59Q683.21 97.70 680.65 99.35Q678.10 101.01 675.00 101.01L675.00 101.01Q670.54 101.01 669.31 97.70L669.31 97.70Q668.74 96.40 668.74 94.67L668.74 94.67Q668.74 92.58 669.60 89.56L669.60 89.56L669.67 89.27Q666.94 95.39 663.88 98.20Q660.82 101.01 656.57 101.01L656.57 101.01Q652.75 101.01 650.38 98.49Q648.00 95.97 648.00 90.93L648.00 90.93Q648.00 85.10 651.02 78.22Q654.05 71.34 659.52 66.56Q664.99 61.77 671.98 61.77L671.98 61.77Q675.36 61.77 676.37 64.22L676.37 64.22L679.61 51.98Q679.97 50.68 679.97 49.96L679.97 49.96Q679.97 48.52 678.85 47.87Q677.74 47.22 675.07 47.22L675.07 47.22L675.50 45.71Q680.47 45.64 684.54 44.92Q688.61 44.20 692.35 42.76L692.35 42.76L678.24 93.88Q677.88 94.89 677.88 95.82L677.88 95.82Q677.88 97.48 679.25 97.48L679.25 97.48Q680.33 97.48 681.41 96.22Q682.49 94.96 683.64 91.79L683.64 91.79ZM672.26 79.55L675.86 65.94Q675.07 63.42 672.98 63.42L672.98 63.42Q669.89 63.42 666.54 67.85Q663.19 72.28 660.92 79.05Q658.66 85.82 658.66 92.44L658.66 92.44Q658.66 94.96 659.20 96.18Q659.74 97.41 660.96 97.41L660.96 97.41Q662.40 97.41 664.34 95.28Q666.29 93.16 668.41 89.13Q670.54 85.10 672.26 79.55L672.26 79.55ZM720.50 50.75Q720.58 47.80 722.66 46.07Q724.75 44.34 727.85 44.34L727.85 44.34Q730.37 44.34 731.77 45.53Q733.18 46.72 733.18 48.81L733.18 48.81Q733.18 51.69 731.02 53.56Q728.86 55.43 725.69 55.43L725.69 55.43Q723.10 55.43 721.73 54.17Q720.36 52.91 720.50 50.75L720.50 50.75ZM717.77 68.90Q718.27 67.24 718.27 66.74L718.27 66.74Q718.27 65.30 716.98 65.30L716.98 65.30Q715.68 65.30 714.60 66.63Q713.52 67.96 712.37 70.98L712.37 70.98L710.93 74.66L709.56 74.66L711.58 69.18Q714.24 61.77 721.58 61.77L721.58 61.77Q724.90 61.77 726.41 63.39Q727.92 65.01 727.92 67.60L727.92 67.60Q727.92 69.69 727.13 71.85L727.13 71.85L719.57 93.88Q719.14 95.18 719.14 95.97L719.14 95.97Q719.14 97.48 720.58 97.48L720.58 97.48Q721.66 97.48 722.77 96.26Q723.89 95.03 725.11 91.79L725.11 91.79L726.41 88.34L727.78 88.34L725.90 93.59Q723.38 101.01 716.18 101.01L716.18 101.01Q709.63 101.01 709.63 95.03L709.63 95.03Q709.63 92.66 710.71 89.56L710.71 89.56L717.77 68.90ZM751.32 64.22L742.75 93.88Q742.54 94.60 742.54 95.32L742.54 95.32Q742.54 96.40 743.11 96.94Q743.69 97.48 744.70 97.48L744.70 97.48Q746.28 97.48 747.76 95.93Q749.23 94.38 750.38 91.29L750.38 91.29L751.46 88.34L752.83 88.34L751.39 92.51Q748.58 101.01 740.59 101.01L740.59 101.01Q736.92 101.01 735.08 99.10Q733.25 97.19 733.25 93.88L733.25 93.88Q733.25 91.79 733.90 89.56L733.90 89.56L741.17 64.22L734.69 64.22L735.05 62.78L741.60 62.78L744.70 52.05Q750.82 51.98 755.14 51.04L755.14 51.04L751.75 62.78L759.89 62.78L759.67 64.22L751.32 64.22ZM790.70 91.79L792.00 88.34L793.37 88.34L791.57 93.59Q790.13 97.62 787.57 99.32Q785.02 101.01 782.06 101.01L782.06 101.01Q778.32 101.01 776.74 98.78L776.74 98.78Q775.73 97.48 775.73 95.18L775.73 95.18Q775.73 93.30 776.38 90.93L776.38 90.93Q773.93 96.26 770.94 98.63Q767.95 101.01 764.35 101.01L764.35 101.01Q760.39 101.01 758.34 98.67Q756.29 96.33 756.29 92.15L756.29 92.15Q756.29 85.74 759.71 78.58Q763.13 71.42 768.38 66.59Q773.64 61.77 778.68 61.77L778.68 61.77Q780.62 61.77 781.81 62.92Q783.00 64.07 783.22 66.38L783.22 66.38L784.22 62.85Q789.98 62.78 794.66 61.77L794.66 61.77L785.23 93.88Q784.87 95.10 784.87 95.90L784.87 95.90Q784.87 97.48 786.24 97.48L786.24 97.48Q788.76 97.48 790.70 91.79L790.70 91.79ZM779.26 80.49L782.42 69.18Q782.50 68.82 782.50 68.10L782.50 68.10Q782.50 66.30 781.88 65.37Q781.27 64.43 780.05 64.43L780.05 64.43Q777.60 64.43 774.47 68.82Q771.34 73.22 769.14 79.84Q766.94 86.46 766.94 92.66L766.94 92.66Q766.94 95.03 767.41 96.08Q767.88 97.12 768.96 97.12L768.96 97.12Q770.54 97.12 772.45 94.92Q774.36 92.73 776.27 88.59Q778.18 84.45 779.62 78.76L779.62 78.76L779.26 80.49ZM806.76 93.88Q806.47 94.82 806.47 95.68L806.47 95.68Q806.47 97.48 807.98 97.48L807.98 97.48Q810.22 97.48 812.30 91.79L812.30 91.79L813.60 88.34L814.97 88.34L813.17 93.59Q811.80 97.62 809.21 99.32Q806.62 101.01 803.59 101.01L803.59 101.01Q800.35 101.01 798.70 99.32Q797.04 97.62 797.04 94.60L797.04 94.60Q797.04 92.37 797.90 89.56L797.90 89.56L809.21 51.98Q809.57 50.68 809.57 49.96L809.57 49.96Q809.57 48.52 808.45 47.87Q807.34 47.22 804.67 47.22L804.67 47.22L805.18 45.71Q810.14 45.64 814.10 44.92Q818.06 44.20 821.88 42.76L821.88 42.76L806.76 93.88ZM830.88 50.75Q830.95 47.80 833.04 46.07Q835.13 44.34 838.22 44.34L838.22 44.34Q840.74 44.34 842.15 45.53Q843.55 46.72 843.55 48.81L843.55 48.81Q843.55 51.69 841.39 53.56Q839.23 55.43 836.06 55.43L836.06 55.43Q833.47 55.43 832.10 54.17Q830.74 52.91 830.88 50.75L830.88 50.75ZM828.14 68.90Q828.65 67.24 828.65 66.74L828.65 66.74Q828.65 65.30 827.35 65.30L827.35 65.30Q826.06 65.30 824.98 66.63Q823.90 67.96 822.74 70.98L822.74 70.98L821.30 74.66L819.94 74.66L821.95 69.18Q824.62 61.77 831.96 61.77L831.96 61.77Q835.27 61.77 836.78 63.39Q838.30 65.01 838.30 67.60L838.30 67.60Q838.30 69.69 837.50 71.85L837.50 71.85L829.94 93.88Q829.51 95.18 829.51 95.97L829.51 95.97Q829.51 97.48 830.95 97.48L830.95 97.48Q832.03 97.48 833.15 96.26Q834.26 95.03 835.49 91.79L835.49 91.79L836.78 88.34L838.15 88.34L836.28 93.59Q833.76 101.01 826.56 101.01L826.56 101.01Q820.01 101.01 820.01 95.03L820.01 95.03Q820.01 92.66 821.09 89.56L821.09 89.56L828.14 68.90ZM867.10 63.21Q863.57 63.21 860.22 67.06Q856.87 70.91 854.78 77.14Q852.70 83.37 852.70 89.92L852.70 89.92Q852.70 97.12 858.17 97.12L858.17 97.12Q863.35 97.12 867.67 90.78L867.67 90.78L869.11 91.36Q866.52 95.54 862.52 98.27Q858.53 101.01 853.42 101.01L853.42 101.01Q848.16 101.01 845.03 98.20Q841.90 95.39 841.90 89.92L841.90 89.92Q841.90 83.73 844.99 77.14Q848.09 70.55 853.70 66.16Q859.32 61.77 866.45 61.77L866.45 61.77Q870.41 61.77 872.82 63.75Q875.23 65.73 875.23 68.68L875.23 68.68Q875.23 70.62 874.30 72.50Q873.36 74.37 871.70 75.52Q870.05 76.67 868.10 76.67L868.10 76.67Q866.30 76.67 865.15 75.52Q864.00 74.37 864.00 72.50L864.00 72.50Q864.00 69.69 865.94 67.49Q867.89 65.30 870.55 64.65L870.55 64.65Q869.33 63.21 867.10 63.21L867.10 63.21Z"/></svg>