<svg xmlns="http://www.w3.org/2000/svg" viewBox="3.0240000000000005 43.55199999999999 749.4479999999999 69.98400000000001"><path d="M21.10 79.41L15.55 79.41L15.55 92.37Q15.55 95.10 16.13 96.33Q16.70 97.55 18.14 97.98Q19.58 98.42 22.82 98.56L22.82 98.56L22.82 100Q19.08 99.78 12.24 99.78L12.24 99.78Q6.05 99.78 3.02 100L3.02 100L3.02 98.56Q5.62 98.42 6.80 97.98Q7.99 97.55 8.42 96.33Q8.86 95.10 8.86 92.37L8.86 92.37L8.86 56.66Q8.86 53.92 8.42 52.70Q7.99 51.47 6.80 51.04Q5.62 50.61 3.02 50.46L3.02 50.46L3.02 49.02Q6.05 49.24 11.81 49.24L11.81 49.24L19.58 49.17Q20.95 49.10 22.68 49.10L22.68 49.10Q31.10 49.10 35.57 52.95Q40.03 56.80 40.03 63.28L40.03 63.28Q40.03 67.24 38.27 70.88Q36.50 74.51 32.29 76.96Q28.08 79.41 21.10 79.41L21.10 79.41ZM20.88 50.46Q18.65 50.46 17.53 50.97Q16.42 51.47 15.98 52.77Q15.55 54.06 15.55 56.66L15.55 56.66L15.55 77.97L20.38 77.97Q27.43 77.97 30.13 74.19Q32.83 70.41 32.83 64.07L32.83 64.07Q32.83 57.09 30.06 53.78Q27.29 50.46 20.88 50.46L20.88 50.46ZM55.01 43.55L55.01 93.30Q55.01 96.26 56.23 97.37Q57.46 98.49 60.48 98.49L60.48 98.49L60.48 100Q53.86 99.71 51.77 99.71L51.77 99.71Q49.68 99.71 43.06 100L43.06 100L43.06 98.49Q46.08 98.49 47.30 97.37Q48.53 96.26 48.53 93.30L48.53 93.30L48.53 52.19Q48.53 48.88 47.30 47.37Q46.08 45.86 43.06 45.86L43.06 45.86L43.06 44.34Q45.29 44.56 47.52 44.56L47.52 44.56Q52.06 44.56 55.01 43.55L55.01 43.55ZM73.80 100.50Q69.26 100.50 67.07 98.24Q64.87 95.97 64.87 91.94L64.87 91.94Q64.87 88.70 66.64 86.61Q68.40 84.52 70.81 83.30Q73.22 82.07 77.18 80.70L77.18 80.70Q81.22 79.34 83.16 78.18Q85.10 77.03 85.10 75.09L85.10 75.09L85.10 70.62Q85.10 66.45 83.34 64.90Q81.58 63.35 78.41 63.35L78.41 63.35Q73.37 63.35 71.28 65.94L71.28 65.94Q72.72 66.30 73.69 67.46Q74.66 68.61 74.66 70.34L74.66 70.34Q74.66 72.14 73.51 73.18Q72.36 74.22 70.56 74.22L70.56 74.22Q68.54 74.22 67.54 72.96Q66.53 71.70 66.53 69.90L66.53 69.90Q66.53 68.18 67.36 67.02Q68.18 65.87 69.84 64.72L69.84 64.72Q71.57 63.50 74.23 62.70Q76.90 61.91 80.06 61.91L80.06 61.91Q85.68 61.91 88.56 64.58L88.56 64.58Q90.36 66.23 90.97 68.57Q91.58 70.91 91.58 74.73L91.58 74.73L91.58 94.74Q91.58 96.54 92.09 97.34Q92.59 98.13 93.82 98.13L93.82 98.13Q94.68 98.13 95.44 97.73Q96.19 97.34 97.06 96.62L97.06 96.62L97.85 97.84Q95.98 99.28 94.64 99.89Q93.31 100.50 91.30 100.50L91.30 100.50Q87.84 100.50 86.47 98.78Q85.10 97.05 85.10 94.10L85.10 94.10Q82.94 97.70 80.14 99.10Q77.33 100.50 73.80 100.50L73.80 100.50ZM76.97 97.62Q81.72 97.62 85.10 92.15L85.10 92.15L85.10 78.04Q84.46 79.05 83.30 79.70Q82.15 80.34 79.78 81.42L79.78 81.42Q77.04 82.58 75.35 83.62Q73.66 84.66 72.43 86.46Q71.21 88.26 71.21 91.07L71.21 91.07Q71.21 94.31 72.79 95.97Q74.38 97.62 76.97 97.62L76.97 97.62ZM127.58 63.14Q130.75 63.14 133.06 62.92L133.06 62.92L133.06 64.36Q131.62 64.50 130.50 65.66Q129.38 66.81 128.38 69.40L128.38 69.40L116.57 100.36L114.12 106.62Q112.75 110.15 111.02 111.66L111.02 111.66Q109.94 112.67 108.43 113.10Q106.92 113.54 105.41 113.54L105.41 113.54Q103.25 113.54 101.88 112.38Q100.51 111.23 100.51 109.22L100.51 109.22Q100.51 107.49 101.52 106.44Q102.53 105.40 104.33 105.40L104.33 105.40Q105.91 105.40 106.96 106.30Q108.00 107.20 108.00 108.78L108.00 108.78Q108.00 110.94 106.06 112.02L106.06 112.02Q106.20 112.10 106.49 112.10L106.49 112.10Q110.45 112.10 112.61 106.48L112.61 106.48L115.13 99.93L102.10 68.46Q100.87 66.02 99.65 65.22Q98.42 64.43 97.20 64.43L97.20 64.43L97.20 62.92Q100.30 63.35 104.26 63.35L104.26 63.35Q107.86 63.35 113.62 62.92L113.62 62.92L113.62 64.43Q111.02 64.43 109.84 64.86Q108.65 65.30 108.65 66.95L108.65 66.95Q108.65 68.46 109.51 70.48L109.51 70.48L118.15 91.94L126.14 71.13Q126.94 68.97 126.94 67.82L126.94 67.82Q126.94 66.16 125.64 65.37Q124.34 64.58 121.54 64.36L121.54 64.36L121.54 62.92Q125.35 63.14 127.58 63.14L127.58 63.14ZM153.14 43.70Q156.89 43.70 159.41 45.64L159.41 45.64Q161.64 47.44 161.64 50.10L161.64 50.10Q161.64 51.76 160.56 52.84Q159.48 53.92 157.82 53.92L157.82 53.92Q156.17 53.92 155.02 52.88Q153.86 51.83 153.86 50.03L153.86 50.03Q153.86 48.52 154.69 47.58Q155.52 46.65 156.89 46.36L156.89 46.36Q156.67 45.64 155.74 45.21Q154.80 44.78 153.36 44.78L153.36 44.78Q151.78 44.78 150.55 45.50Q149.33 46.22 148.68 47.44L148.68 47.44Q147.89 48.88 147.64 51.69Q147.38 54.50 147.38 61.12L147.38 61.12L147.38 62.99L155.09 62.99L155.09 64.43L147.38 64.43L147.38 92.58Q147.38 95.90 149.29 97.19Q151.20 98.49 155.02 98.49L155.02 98.49L155.02 100L153.29 99.93Q145.94 99.71 143.93 99.71L143.93 99.71Q142.06 99.71 135.43 100L135.43 100L135.43 98.49Q138.46 98.49 139.68 97.37Q140.90 96.26 140.90 93.30L140.90 93.30L140.90 64.43L135.14 64.43L135.14 62.99L140.90 62.99Q140.90 56.66 141.70 53.20Q142.49 49.74 144.58 47.30L144.58 47.30Q146.02 45.64 148.25 44.67Q150.48 43.70 153.14 43.70L153.14 43.70ZM168.91 100.50Q164.38 100.50 162.18 98.24Q159.98 95.97 159.98 91.94L159.98 91.94Q159.98 88.70 161.75 86.61Q163.51 84.52 165.92 83.30Q168.34 82.07 172.30 80.70L172.30 80.70Q176.33 79.34 178.27 78.18Q180.22 77.03 180.22 75.09L180.22 75.09L180.22 70.62Q180.22 66.45 178.45 64.90Q176.69 63.35 173.52 63.35L173.52 63.35Q168.48 63.35 166.39 65.94L166.39 65.94Q167.83 66.30 168.80 67.46Q169.78 68.61 169.78 70.34L169.78 70.34Q169.78 72.14 168.62 73.18Q167.47 74.22 165.67 74.22L165.67 74.22Q163.66 74.22 162.65 72.96Q161.64 71.70 161.64 69.90L161.64 69.90Q161.64 68.18 162.47 67.02Q163.30 65.87 164.95 64.72L164.95 64.72Q166.68 63.50 169.34 62.70Q172.01 61.91 175.18 61.91L175.18 61.91Q180.79 61.91 183.67 64.58L183.67 64.58Q185.47 66.23 186.08 68.57Q186.70 70.91 186.70 74.73L186.70 74.73L186.70 94.74Q186.70 96.54 187.20 97.34Q187.70 98.13 188.93 98.13L188.93 98.13Q189.79 98.13 190.55 97.73Q191.30 97.34 192.17 96.62L192.17 96.62L192.96 97.84Q191.09 99.28 189.76 99.89Q188.42 100.50 186.41 100.50L186.41 100.50Q182.95 100.50 181.58 98.78Q180.22 97.05 180.22 94.10L180.22 94.10Q178.06 97.70 175.25 99.10Q172.44 100.50 168.91 100.50L168.91 100.50ZM172.08 97.62Q176.83 97.62 180.22 92.15L180.22 92.15L180.22 78.04Q179.57 79.05 178.42 79.70Q177.26 80.34 174.89 81.42L174.89 81.42Q172.15 82.58 170.46 83.62Q168.77 84.66 167.54 86.46Q166.32 88.26 166.32 91.07L166.32 91.07Q166.32 94.31 167.90 95.97Q169.49 97.62 172.08 97.62L172.08 97.62ZM203.33 44.92Q205.20 44.92 206.57 46.29Q207.94 47.66 207.94 49.53L207.94 49.53Q207.94 51.40 206.57 52.77Q205.20 54.14 203.33 54.14L203.33 54.14Q201.46 54.14 200.09 52.77Q198.72 51.40 198.72 49.53L198.72 49.53Q198.72 47.66 200.09 46.29Q201.46 44.92 203.33 44.92L203.33 44.92ZM207.07 62.13L207.07 93.30Q207.07 96.26 208.30 97.37Q209.52 98.49 212.54 98.49L212.54 98.49L212.54 100Q205.92 99.71 203.83 99.71L203.83 99.71Q201.74 99.71 195.12 100L195.12 100L195.12 98.49Q198.14 98.49 199.37 97.37Q200.59 96.26 200.59 93.30L200.59 93.30L200.59 70.77Q200.59 67.46 199.37 65.94Q198.14 64.43 195.12 64.43L195.12 64.43L195.12 62.92Q197.42 63.14 199.58 63.14L199.58 63.14Q204.12 63.14 207.07 62.13L207.07 62.13ZM238.61 61.91Q241.49 61.91 243.32 63.57Q245.16 65.22 245.16 67.60L245.16 67.60Q245.16 69.47 244.04 70.80Q242.93 72.14 241.06 72.14L241.06 72.14Q239.47 72.14 238.36 71.13Q237.24 70.12 237.24 68.39L237.24 68.39Q237.24 66.02 239.69 64.50L239.69 64.50Q239.18 63.78 238.18 63.78L238.18 63.78Q235.37 63.78 233.06 65.98Q230.76 68.18 229.46 71.34Q228.17 74.51 228.17 77.32L228.17 77.32L228.17 92.58Q228.17 95.90 230.08 97.19Q231.98 98.49 235.80 98.49L235.80 98.49L235.80 100L234.07 99.93Q226.73 99.71 224.71 99.71L224.71 99.71Q222.84 99.71 216.22 100L216.22 100L216.22 98.49Q219.24 98.49 220.46 97.37Q221.69 96.26 221.69 93.30L221.69 93.30L221.69 70.77Q221.69 67.46 220.46 65.94Q219.24 64.43 216.22 64.43L216.22 64.43L216.22 62.92Q218.52 63.14 220.68 63.14L220.68 63.14Q225.22 63.14 228.17 62.13L228.17 62.13L228.17 71.13Q229.46 67.53 232.31 64.72Q235.15 61.91 238.61 61.91L238.61 61.91ZM285.26 49.02Q298.01 49.02 304.34 55.40Q310.68 61.77 310.68 73.94L310.68 73.94Q310.68 81.78 307.58 87.69Q304.49 93.59 298.62 96.80Q292.75 100 284.62 100L284.62 100L280.44 99.93Q276.41 99.78 274.54 99.78L274.54 99.78Q268.63 99.78 265.61 100L265.61 100L265.61 98.56Q268.20 98.42 269.39 97.98Q270.58 97.55 271.01 96.33Q271.44 95.10 271.44 92.37L271.44 92.37L271.44 56.66Q271.44 53.92 271.01 52.70Q270.58 51.47 269.39 51.04Q268.20 50.61 265.61 50.46L265.61 50.46L265.61 49.02Q268.13 49.24 272.59 49.24L272.59 49.24L278.71 49.17Q283.61 49.02 285.26 49.02L285.26 49.02ZM283.46 50.32Q281.23 50.32 280.12 50.82Q279 51.33 278.57 52.62Q278.14 53.92 278.14 56.51L278.14 56.51L278.14 92.51Q278.14 95.10 278.57 96.40Q279 97.70 280.12 98.20Q281.23 98.70 283.54 98.70L283.54 98.70Q291.17 98.70 295.56 95.93Q299.95 93.16 301.72 87.83Q303.48 82.50 303.48 74.22L303.48 74.22Q303.48 65.94 301.54 60.72Q299.59 55.50 295.24 52.91Q290.88 50.32 283.46 50.32L283.46 50.32ZM324.94 44.92Q326.81 44.92 328.18 46.29Q329.54 47.66 329.54 49.53L329.54 49.53Q329.54 51.40 328.18 52.77Q326.81 54.14 324.94 54.14L324.94 54.14Q323.06 54.14 321.70 52.77Q320.33 51.40 320.33 49.53L320.33 49.53Q320.33 47.66 321.70 46.29Q323.06 44.92 324.94 44.92L324.94 44.92ZM328.68 62.13L328.68 93.30Q328.68 96.26 329.90 97.37Q331.13 98.49 334.15 98.49L334.15 98.49L334.15 100Q327.53 99.71 325.44 99.71L325.44 99.71Q323.35 99.71 316.73 100L316.73 100L316.73 98.49Q319.75 98.49 320.98 97.37Q322.20 96.26 322.20 93.30L322.20 93.30L322.20 70.77Q322.20 67.46 320.98 65.94Q319.75 64.43 316.73 64.43L316.73 64.43L316.73 62.92Q319.03 63.14 321.19 63.14L321.19 63.14Q325.73 63.14 328.68 62.13L328.68 62.13ZM350.71 61.91Q353.30 61.91 355.32 62.70Q357.34 63.50 358.56 64.58L358.56 64.58Q359.35 65.15 359.86 65.15L359.86 65.15Q361.15 65.15 361.44 61.98L361.44 61.98L363.10 61.98Q362.81 65.51 362.81 74.22L362.81 74.22L361.15 74.22Q360.36 69.47 358.09 66.38Q355.82 63.28 351.36 63.28L351.36 63.28Q348.77 63.28 347.11 64.76Q345.46 66.23 345.46 68.82L345.46 68.82Q345.46 71.34 347.18 73.04Q348.91 74.73 352.73 77.10L352.73 77.10Q353.38 77.46 354.67 78.33L354.67 78.33Q357.98 80.49 360 82.14Q362.02 83.80 363.28 85.96Q364.54 88.12 364.54 90.93L364.54 90.93Q364.54 95.68 360.97 98.34Q357.41 101.01 352.22 101.01L352.22 101.01Q348.98 101.01 346.54 100L346.54 100Q344.95 99.21 343.58 98.06L343.58 98.06Q343.30 97.77 342.94 97.77L342.94 97.77Q342.43 97.77 342.04 98.49Q341.64 99.21 341.42 100.50L341.42 100.50L339.77 100.50Q340.06 96.40 340.06 86.10L340.06 86.10L341.71 86.10Q342.50 92.87 344.59 96.22Q346.68 99.57 351.72 99.57L351.72 99.57Q354.24 99.57 356.18 97.91Q358.13 96.26 358.13 92.73L358.13 92.73Q358.13 89.92 356.22 87.98Q354.31 86.03 349.99 83.30L349.99 83.30Q346.46 81.06 344.56 79.62Q342.65 78.18 341.35 76.10Q340.06 74.01 340.06 71.20L340.06 71.20Q340.06 66.66 343.08 64.29Q346.10 61.91 350.71 61.91L350.71 61.91ZM392.98 61.91Q396.79 61.91 399.85 64.00Q402.91 66.09 404.64 70.12Q406.37 74.15 406.37 79.77L406.37 79.77Q406.37 85.31 404.60 90.14Q402.84 94.96 399.13 97.98Q395.42 101.01 389.88 101.01L389.88 101.01Q387.14 101.01 384.91 99.93Q382.68 98.85 381.46 97.12L381.46 97.12L381.46 106.34Q381.46 109.29 383.18 110.40Q384.91 111.52 388.37 111.52L388.37 111.52L388.37 113.03L386.71 112.96Q380.02 112.74 378 112.74L378 112.74Q376.27 112.74 370.22 113.03L370.22 113.03L370.22 111.52Q372.89 111.52 373.93 110.55Q374.98 109.58 374.98 107.06L374.98 107.06L374.98 70.77Q374.98 67.46 373.75 65.94Q372.53 64.43 369.50 64.43L369.50 64.43L369.50 62.92Q371.74 63.14 373.97 63.14L373.97 63.14Q378.50 63.14 381.46 62.13L381.46 62.13L381.46 69.76Q383.04 66.02 386.06 63.96Q389.09 61.91 392.98 61.91L392.98 61.91ZM389.09 99.35Q399.38 99.35 399.38 80.78L399.38 80.78Q399.38 64.07 391.03 64.07L391.03 64.07Q387.79 64.07 385.20 66.41Q382.61 68.75 381.46 73.14L381.46 73.14L381.46 94.74Q382.46 96.83 384.41 98.09Q386.35 99.35 389.09 99.35L389.09 99.35ZM423.29 43.55L423.29 93.30Q423.29 96.26 424.51 97.37Q425.74 98.49 428.76 98.49L428.76 98.49L428.76 100Q422.14 99.71 420.05 99.71L420.05 99.71Q417.96 99.71 411.34 100L411.34 100L411.34 98.49Q414.36 98.49 415.58 97.37Q416.81 96.26 416.81 93.30L416.81 93.30L416.81 52.19Q416.81 48.88 415.58 47.37Q414.36 45.86 411.34 45.86L411.34 45.86L411.34 44.34Q413.57 44.56 415.80 44.56L415.80 44.56Q420.34 44.56 423.29 43.55L423.29 43.55ZM442.08 100.50Q437.54 100.50 435.35 98.24Q433.15 95.97 433.15 91.94L433.15 91.94Q433.15 88.70 434.92 86.61Q436.68 84.52 439.09 83.30Q441.50 82.07 445.46 80.70L445.46 80.70Q449.50 79.34 451.44 78.18Q453.38 77.03 453.38 75.09L453.38 75.09L453.38 70.62Q453.38 66.45 451.62 64.90Q449.86 63.35 446.69 63.35L446.69 63.35Q441.65 63.35 439.56 65.94L439.56 65.94Q441 66.30 441.97 67.46Q442.94 68.61 442.94 70.34L442.94 70.34Q442.94 72.14 441.79 73.18Q440.64 74.22 438.84 74.22L438.84 74.22Q436.82 74.22 435.82 72.96Q434.81 71.70 434.81 69.90L434.81 69.90Q434.81 68.18 435.64 67.02Q436.46 65.87 438.12 64.72L438.12 64.72Q439.85 63.50 442.51 62.70Q445.18 61.91 448.34 61.91L448.34 61.91Q453.96 61.91 456.84 64.58L456.84 64.58Q458.64 66.23 459.25 68.57Q459.86 70.91 459.86 74.73L459.86 74.73L459.86 94.74Q459.86 96.54 460.37 97.34Q460.87 98.13 462.10 98.13L462.10 98.13Q462.96 98.13 463.72 97.73Q464.47 97.34 465.34 96.62L465.34 96.62L466.13 97.84Q464.26 99.28 462.92 99.89Q461.59 100.50 459.58 100.50L459.58 100.50Q456.12 100.50 454.75 98.78Q453.38 97.05 453.38 94.10L453.38 94.10Q451.22 97.70 448.42 99.10Q445.61 100.50 442.08 100.50L442.08 100.50ZM445.25 97.62Q450 97.62 453.38 92.15L453.38 92.15L453.38 78.04Q452.74 79.05 451.58 79.70Q450.43 80.34 448.06 81.42L448.06 81.42Q445.32 82.58 443.63 83.62Q441.94 84.66 440.71 86.46Q439.49 88.26 439.49 91.07L439.49 91.07Q439.49 94.31 441.07 95.97Q442.66 97.62 445.25 97.62L445.25 97.62ZM495.86 63.14Q499.03 63.14 501.34 62.92L501.34 62.92L501.34 64.36Q499.90 64.50 498.78 65.66Q497.66 66.81 496.66 69.40L496.66 69.40L484.85 100.36L482.40 106.62Q481.03 110.15 479.30 111.66L479.30 111.66Q478.22 112.67 476.71 113.10Q475.20 113.54 473.69 113.54L473.69 113.54Q471.53 113.54 470.16 112.38Q468.79 111.23 468.79 109.22L468.79 109.22Q468.79 107.49 469.80 106.44Q470.81 105.40 472.61 105.40L472.61 105.40Q474.19 105.40 475.24 106.30Q476.28 107.20 476.28 108.78L476.28 108.78Q476.28 110.94 474.34 112.02L474.34 112.02Q474.48 112.10 474.77 112.10L474.77 112.10Q478.73 112.10 480.89 106.48L480.89 106.48L483.41 99.93L470.38 68.46Q469.15 66.02 467.93 65.22Q466.70 64.43 465.48 64.43L465.48 64.43L465.48 62.92Q468.58 63.35 472.54 63.35L472.54 63.35Q476.14 63.35 481.90 62.92L481.90 62.92L481.90 64.43Q479.30 64.43 478.12 64.86Q476.93 65.30 476.93 66.95L476.93 66.95Q476.93 68.46 477.79 70.48L477.79 70.48L486.43 91.94L494.42 71.13Q495.22 68.97 495.22 67.82L495.22 67.82Q495.22 66.16 493.92 65.37Q492.62 64.58 489.82 64.36L489.82 64.36L489.82 62.92Q493.63 63.14 495.86 63.14L495.86 63.14ZM542.59 61.91Q545.47 61.91 547.31 63.57Q549.14 65.22 549.14 67.60L549.14 67.60Q549.14 69.47 548.03 70.80Q546.91 72.14 545.04 72.14L545.04 72.14Q543.46 72.14 542.34 71.13Q541.22 70.12 541.22 68.39L541.22 68.39Q541.22 66.02 543.67 64.50L543.67 64.50Q543.17 63.78 542.16 63.78L542.16 63.78Q539.35 63.78 537.05 65.98Q534.74 68.18 533.45 71.34Q532.15 74.51 532.15 77.32L532.15 77.32L532.15 92.58Q532.15 95.90 534.06 97.19Q535.97 98.49 539.78 98.49L539.78 98.49L539.78 100L538.06 99.93Q530.71 99.71 528.70 99.71L528.70 99.71Q526.82 99.71 520.20 100L520.20 100L520.20 98.49Q523.22 98.49 524.45 97.37Q525.67 96.26 525.67 93.30L525.67 93.30L525.67 70.77Q525.67 67.46 524.45 65.94Q523.22 64.43 520.20 64.43L520.20 64.43L520.20 62.92Q522.50 63.14 524.66 63.14L524.66 63.14Q529.20 63.14 532.15 62.13L532.15 62.13L532.15 71.13Q533.45 67.53 536.29 64.72Q539.14 61.91 542.59 61.91L542.59 61.91ZM580.61 90.78L582.05 91.36Q580.75 95.32 577.19 98.16Q573.62 101.01 568.58 101.01L568.58 101.01Q563.47 101.01 559.73 98.67Q555.98 96.33 554.00 92.12Q552.02 87.90 552.02 82.36L552.02 82.36Q552.02 76.10 554.04 71.49Q556.06 66.88 559.73 64.40Q563.40 61.91 568.30 61.91L568.30 61.91Q574.78 61.91 578.27 65.84Q581.76 69.76 581.76 77.75L581.76 77.75L559.22 77.75Q559.01 79.77 559.01 82.36L559.01 82.36Q559.01 87.11 560.56 90.64Q562.10 94.17 564.66 96.08Q567.22 97.98 570.02 97.98L570.02 97.98Q573.48 97.98 576.14 96.33Q578.81 94.67 580.61 90.78L580.61 90.78ZM568.01 63.28Q564.62 63.28 562.18 66.59Q559.73 69.90 559.15 76.38L559.15 76.38L574.85 76.38Q574.99 70.77 573.23 67.02Q571.46 63.28 568.01 63.28L568.01 63.28ZM619.06 69.40Q617.76 69.40 616.86 68.54Q615.96 67.67 615.96 66.02L615.96 66.02Q615.96 64.58 616.68 62.70L616.68 62.70Q614.81 63.50 613.73 64.47Q612.65 65.44 611.78 66.88L611.78 66.88Q613.44 69.40 613.44 73.29L613.44 73.29Q613.44 78.98 609.98 81.82Q606.53 84.66 600.84 84.66L600.84 84.66L600.77 84.66Q598.39 86.03 597.17 87.18Q595.94 88.34 595.94 89.78L595.94 89.78Q595.94 92.08 599.40 92.08L599.40 92.08L608.40 92.08Q613.30 92.08 616.50 94.20Q619.70 96.33 619.70 100.58L619.70 100.58Q619.70 104.03 617.47 106.98Q615.24 109.94 610.92 111.74Q606.60 113.54 600.48 113.54L600.48 113.54Q594.22 113.54 590.00 111.63Q585.79 109.72 585.79 105.98L585.79 105.98Q585.79 103.53 587.77 101.73Q589.75 99.93 593.28 98.92L593.28 98.92L593.71 100.07Q592.13 100.58 591.19 102.09Q590.26 103.60 590.26 105.47L590.26 105.47Q590.26 108.78 593.24 110.55Q596.23 112.31 601.27 112.31L601.27 112.31Q606.82 112.31 610.78 110.19Q614.74 108.06 614.74 103.60L614.74 103.60Q614.74 101.01 612.90 99.57Q611.06 98.13 606.38 98.13L606.38 98.13L601.06 98.13Q596.81 98.13 594.25 97.05Q591.70 95.97 591.70 92.73L591.70 92.73Q591.70 90.50 593.32 88.48Q594.94 86.46 598.68 84.52L598.68 84.52Q593.93 84.02 591.08 81.21Q588.24 78.40 588.24 73.29L588.24 73.29Q588.24 67.60 591.70 64.76Q595.15 61.91 600.84 61.91L600.84 61.91Q607.61 61.91 610.85 65.66L610.85 65.66Q612.22 63.71 614.30 62.45Q616.39 61.19 618.48 61.19L618.48 61.19Q620.35 61.19 621.50 62.27Q622.66 63.35 622.66 65.37L622.66 65.37Q622.66 67.38 621.54 68.39Q620.42 69.40 619.06 69.40L619.06 69.40ZM600.84 83.37Q603.72 83.37 605.20 81.10Q606.67 78.83 606.67 73.29L606.67 73.29Q606.67 67.74 605.20 65.48Q603.72 63.21 600.84 63.21L600.84 63.21Q597.96 63.21 596.48 65.48Q595.01 67.74 595.01 73.29L595.01 73.29Q595.01 78.83 596.48 81.10Q597.96 83.37 600.84 83.37L600.84 83.37ZM657.94 62.13L657.94 92.22Q657.94 95.54 659.16 97.05Q660.38 98.56 663.41 98.56L663.41 98.56L663.41 100.07Q661.18 99.86 658.94 99.86L658.94 99.86Q654.41 99.86 651.46 100.86L651.46 100.86L651.46 92.37Q649.73 96.83 646.56 98.92Q643.39 101.01 639.65 101.01L639.65 101.01Q634.75 101.01 632.16 98.27L632.16 98.27Q630.86 96.83 630.32 94.60Q629.78 92.37 629.78 88.84L629.78 88.84L629.78 70.77Q629.78 67.46 628.56 65.94Q627.34 64.43 624.31 64.43L624.31 64.43L624.31 62.92Q626.54 63.14 628.78 63.14L628.78 63.14Q633.31 63.14 636.26 62.13L636.26 62.13L636.26 90.42Q636.26 93.16 636.59 94.85Q636.91 96.54 638.10 97.62Q639.29 98.70 641.74 98.70L641.74 98.70Q644.47 98.70 646.70 96.98Q648.94 95.25 650.20 92.26Q651.46 89.27 651.46 85.67L651.46 85.67L651.46 70.77Q651.46 67.46 650.23 65.94Q649.01 64.43 645.98 64.43L645.98 64.43L645.98 62.92Q648.22 63.14 650.45 63.14L650.45 63.14Q654.98 63.14 657.94 62.13L657.94 62.13ZM678.53 43.55L678.53 93.30Q678.53 96.26 679.75 97.37Q680.98 98.49 684.00 98.49L684.00 98.49L684.00 100Q677.38 99.71 675.29 99.71L675.29 99.71Q673.20 99.71 666.58 100L666.58 100L666.58 98.49Q669.60 98.49 670.82 97.37Q672.05 96.26 672.05 93.30L672.05 93.30L672.05 52.19Q672.05 48.88 670.82 47.37Q669.60 45.86 666.58 45.86L666.58 45.86L666.58 44.34Q668.81 44.56 671.04 44.56L671.04 44.56Q675.58 44.56 678.53 43.55L678.53 43.55ZM697.32 100.50Q692.78 100.50 690.59 98.24Q688.39 95.97 688.39 91.94L688.39 91.94Q688.39 88.70 690.16 86.61Q691.92 84.52 694.33 83.30Q696.74 82.07 700.70 80.70L700.70 80.70Q704.74 79.34 706.68 78.18Q708.62 77.03 708.62 75.09L708.62 75.09L708.62 70.62Q708.62 66.45 706.86 64.90Q705.10 63.35 701.93 63.35L701.93 63.35Q696.89 63.35 694.80 65.94L694.80 65.94Q696.24 66.30 697.21 67.46Q698.18 68.61 698.18 70.34L698.18 70.34Q698.18 72.14 697.03 73.18Q695.88 74.22 694.08 74.22L694.08 74.22Q692.06 74.22 691.06 72.96Q690.05 71.70 690.05 69.90L690.05 69.90Q690.05 68.18 690.88 67.02Q691.70 65.87 693.36 64.72L693.36 64.72Q695.09 63.50 697.75 62.70Q700.42 61.91 703.58 61.91L703.58 61.91Q709.20 61.91 712.08 64.58L712.08 64.58Q713.88 66.23 714.49 68.57Q715.10 70.91 715.10 74.73L715.10 74.73L715.10 94.74Q715.10 96.54 715.61 97.34Q716.11 98.13 717.34 98.13L717.34 98.13Q718.20 98.13 718.96 97.73Q719.71 97.34 720.58 96.62L720.58 96.62L721.37 97.84Q719.50 99.28 718.16 99.89Q716.83 100.50 714.82 100.50L714.82 100.50Q711.36 100.50 709.99 98.78Q708.62 97.05 708.62 94.10L708.62 94.10Q706.46 97.70 703.66 99.10Q700.85 100.50 697.32 100.50L697.32 100.50ZM700.49 97.62Q705.24 97.62 708.62 92.15L708.62 92.15L708.62 78.04Q707.98 79.05 706.82 79.70Q705.67 80.34 703.30 81.42L703.30 81.42Q700.56 82.58 698.87 83.62Q697.18 84.66 695.95 86.46Q694.73 88.26 694.73 91.07L694.73 91.07Q694.73 94.31 696.31 95.97Q697.90 97.62 700.49 97.62L700.49 97.62ZM745.92 61.91Q748.80 61.91 750.64 63.57Q752.47 65.22 752.47 67.60L752.47 67.60Q752.47 69.47 751.36 70.80Q750.24 72.14 748.37 72.14L748.37 72.14Q746.78 72.14 745.67 71.13Q744.55 70.12 744.55 68.39L744.55 68.39Q744.55 66.02 747.00 64.50L747.00 64.50Q746.50 63.78 745.49 63.78L745.49 63.78Q742.68 63.78 740.38 65.98Q738.07 68.18 736.78 71.34Q735.48 74.51 735.48 77.32L735.48 77.32L735.48 92.58Q735.48 95.90 737.39 97.19Q739.30 98.49 743.11 98.49L743.11 98.49L743.11 100L741.38 99.93Q734.04 99.71 732.02 99.71L732.02 99.71Q730.15 99.71 723.53 100L723.53 100L723.53 98.49Q726.55 98.49 727.78 97.37Q729.00 96.26 729.00 93.30L729.00 93.30L729.00 70.77Q729.00 67.46 727.78 65.94Q726.55 64.43 723.53 64.43L723.53 64.43L723.53 62.92Q725.83 63.14 727.99 63.14L727.99 63.14Q732.53 63.14 735.48 62.13L735.48 62.13L735.48 71.13Q736.78 67.53 739.62 64.72Q742.46 61.91 745.92 61.91L745.92 61.91Z"/></svg>