<svg xmlns="http://www.w3.org/2000/svg" viewBox="2.4480000000000004 43.623999999999995 684.36 69.912"><path d="M23 79L19 79L19 92Q19 95 20 96Q21 97 22 98Q24 98 27 98L27 98L27 100Q18 100 14 100L14 100Q10 100 5 100L5 100L2 100L2 99Q5 98 6 98Q7 98 7 96Q8 95 8 92L8 92L8 57Q8 54 7 53Q7 51 6 51Q5 51 2 50L2 50L2 49Q6 49 13 49L13 49L21 49Q23 49 25 49L25 49Q34 49 40 53Q45 57 45 63L45 63Q45 67 43 71Q41 75 36 77Q31 79 23 79L23 79ZM24 50Q22 50 21 51Q20 51 20 53Q19 54 19 57L19 57L19 78L22 78Q28 78 30 74Q33 70 33 64L33 64Q33 57 31 54Q29 50 24 50L24 50ZM62 44L62 93Q62 96 63 97Q64 98 66 98L66 98L66 100Q59 100 57 100L57 100Q54 100 47 100L47 100L47 98Q49 98 50 97Q51 96 51 93L51 93L51 52Q51 49 50 47Q49 46 47 46L47 46L47 44Q49 45 51 45L51 45Q58 45 62 44L62 44ZM79 101Q74 101 72 98Q70 96 70 92L70 92Q70 89 72 87Q73 84 76 83Q78 82 82 81L82 81Q86 79 88 78Q89 77 89 75L89 75L89 70Q89 67 88 65Q87 63 84 63L84 63Q80 63 78 65L78 65Q80 66 82 67Q83 69 83 70L83 70Q83 73 81 74Q79 76 77 76L77 76Q75 76 73 74Q72 73 72 70L72 70Q72 68 73 67Q74 65 76 64L76 64Q78 63 81 62Q83 62 87 62L87 62Q90 62 93 62Q95 63 97 65L97 65Q99 67 99 69Q100 71 100 75L100 75L100 95Q100 96 100 97Q101 98 101 98L101 98Q103 98 104 97L104 97L105 98Q102 101 97 101L97 101Q93 101 91 99Q90 97 90 95L90 95Q86 101 79 101L79 101ZM85 96Q87 96 89 93L89 93L89 78Q89 80 86 81L86 81Q83 83 82 85Q80 87 80 90L80 90Q80 93 81 94Q83 96 85 96L85 96ZM136 63Q139 63 141 63L141 63L141 64Q140 65 139 66Q138 67 136 70L136 70L124 107Q122 110 120 112L120 112Q118 114 114 114L114 114Q111 114 109 112Q106 111 106 108L106 108Q106 106 108 104Q109 103 112 103L112 103Q114 103 116 104Q117 105 117 107L117 107Q117 109 116 110Q116 111 114 112L114 112Q114 112 115 112L115 112Q120 112 122 106L122 106L123 103L108 68Q107 66 106 65Q105 64 103 64L103 64L103 63Q108 63 113 63L113 63Q118 63 123 63L123 63L123 64Q121 64 120 65Q119 65 119 66L119 66Q119 67 119 68L119 68L128 90L133 76Q134 72 134 70L134 70Q134 65 129 64L129 64L129 63Q132 63 136 63L136 63ZM162 44Q166 44 169 46L169 46Q170 47 171 48Q172 50 172 51L172 51Q172 53 170 55Q169 56 167 56L167 56Q164 56 163 55Q161 54 161 51L161 51Q161 49 162 48Q163 47 165 46L165 46Q165 46 164 45Q164 45 163 45L163 45Q160 45 159 47L159 47Q158 48 158 50Q158 52 158 56L158 56L158 63L165 63L165 64L158 64L158 93Q158 96 159 97Q161 98 164 98L164 98L164 100L162 100Q154 100 152 100L152 100Q150 100 143 100L143 100L143 98Q145 98 146 97Q147 96 147 93L147 93L147 64L142 64L142 63L147 63Q147 57 148 53Q149 50 152 47L152 47Q153 46 156 45Q159 44 162 44L162 44ZM177 101Q173 101 171 98Q168 96 168 92L168 92Q168 89 170 87Q172 84 174 83Q176 82 180 81L180 81Q184 79 186 78Q188 77 188 75L188 75L188 70Q188 67 186 65Q185 63 182 63L182 63Q179 63 177 65L177 65Q179 66 180 67Q181 69 181 70L181 70Q181 73 179 74Q178 76 175 76L175 76Q173 76 172 74Q170 73 170 70L170 70Q170 68 171 67Q172 65 174 64L174 64Q176 63 179 62Q182 62 185 62L185 62Q189 62 191 62Q194 63 196 65L196 65Q197 67 198 69Q198 71 198 75L198 75L198 95Q198 96 199 97Q199 98 200 98L200 98Q201 98 202 97L202 97L203 98Q200 101 195 101L195 101Q191 101 190 99Q188 97 188 95L188 95Q184 101 177 101L177 101ZM183 96Q186 96 188 93L188 93L188 78Q187 80 184 81L184 81Q181 83 180 85Q178 87 178 90L178 90Q178 93 180 94Q181 96 183 96L183 96ZM215 44Q218 44 219 46Q221 47 221 50L221 50Q221 52 219 54Q218 55 215 55L215 55Q212 55 210 54Q208 52 208 50L208 50Q208 47 210 46Q212 44 215 44L215 44ZM220 62L220 93Q220 96 221 97Q222 98 225 98L225 98L225 100Q218 100 215 100L215 100Q213 100 205 100L205 100L205 98Q208 98 209 97Q210 96 210 93L210 93L210 71Q210 67 209 66Q208 64 205 64L205 64L205 63Q208 63 210 63L210 63Q216 63 220 62L220 62ZM253 62Q256 62 258 64Q259 66 259 68L259 68Q259 71 258 73Q256 74 254 74L254 74Q251 74 250 73Q248 72 248 70L248 70Q248 66 251 64L251 64Q251 64 251 64L251 64Q250 64 249 64L249 64Q247 65 245 68Q243 70 243 74L243 74L243 93Q243 96 244 97Q246 98 250 98L250 98L250 100Q249 100 248 100L248 100Q241 100 238 100L238 100Q236 100 229 100L229 100Q229 100 228 100L228 100L228 98Q230 98 231 97Q232 96 232 93L232 93L232 71Q232 67 231 66Q230 64 228 64L228 64L228 63Q230 63 232 63L232 63Q239 63 243 62L243 62L243 69Q244 66 247 64Q249 62 253 62L253 62ZM300 49Q314 49 321 55Q328 62 328 74L328 74Q328 82 324 88Q321 94 314 97Q308 100 299 100L299 100L295 100Q290 100 289 100L289 100Q281 100 277 100L277 100L277 99Q280 98 281 98Q282 98 282 96Q283 95 283 92L283 92L283 57Q283 54 282 53Q282 51 281 51Q280 51 277 50L277 50L277 49Q281 49 286 49L286 49L288 49L291 49Q297 49 300 49L300 49ZM300 50Q297 50 296 51Q295 51 295 53Q294 54 294 57L294 57L294 93Q294 95 295 96Q295 98 296 98Q297 99 300 99L300 99Q308 99 312 93Q316 87 316 74L316 74Q316 62 312 56Q308 50 300 50L300 50ZM342 44Q345 44 347 46Q349 47 349 50L349 50Q349 52 347 54Q345 55 342 55L342 55Q339 55 337 54Q335 52 335 50L335 50Q335 47 337 46Q339 44 342 44L342 44ZM348 62L348 93Q348 96 349 97Q350 98 352 98L352 98L352 100Q345 100 343 100L343 100Q340 100 333 100L333 100L333 98Q335 98 336 97Q337 96 337 93L337 93L337 71Q337 67 336 66Q335 64 333 64L333 64L333 63Q335 63 337 63L337 63Q344 63 348 62L348 62ZM370 62Q372 62 375 62Q377 63 378 64L378 64Q379 65 379 65L379 65Q380 65 381 64Q381 63 381 62L381 62L383 62Q382 66 382 75L382 75L381 75Q380 70 378 67Q376 63 372 63L372 63Q370 63 368 65Q367 66 367 68L367 68Q367 70 368 72Q370 74 374 76L374 76L376 78Q380 81 382 84Q384 86 384 90L384 90Q384 94 382 96Q381 98 377 100Q374 101 371 101L371 101Q367 101 364 99L364 99Q362 98 361 98L361 98Q360 98 359 98Q359 99 358 101L358 101L357 101Q357 96 357 86L357 86L359 86Q360 99 368 99L368 99Q371 99 372 98Q373 97 373 94L373 94Q373 92 373 91Q372 89 370 88Q369 87 366 84L366 84Q363 82 361 80Q360 79 358 77Q357 74 357 72L357 72Q357 67 361 64Q364 62 370 62L370 62ZM414 62Q418 62 421 64Q424 66 426 70Q427 74 427 80L427 80Q427 90 423 96Q418 101 411 101L411 101Q408 101 407 100Q405 100 403 99L403 99L403 106Q403 109 405 110Q406 112 410 112L410 112L410 113L408 113Q400 113 398 113L398 113Q395 113 389 113L389 113L389 112Q391 112 392 110Q393 109 393 107L393 107L393 71Q393 67 392 66Q391 64 388 64L388 64L388 63Q391 63 393 63L393 63Q399 63 403 62L403 62L403 69Q405 65 408 64Q411 62 414 62L414 62ZM408 99Q412 99 414 94Q416 90 416 81L416 81Q416 72 415 69Q413 65 410 65L410 65Q408 65 406 67Q404 68 403 71L403 71L403 97Q405 99 408 99L408 99ZM446 44L446 93Q446 96 447 97Q448 98 451 98L451 98L451 100Q444 100 441 100L441 100Q439 100 431 100L431 100L431 98Q434 98 435 97Q436 96 436 93L436 93L436 52Q436 49 435 47Q434 46 431 46L431 46L431 44Q434 45 436 45L436 45Q442 45 446 44L446 44ZM464 101Q459 101 457 98Q455 96 455 92L455 92Q455 89 456 87Q458 84 460 83Q463 82 466 81L466 81Q470 79 472 78Q474 77 474 75L474 75L474 70Q474 67 473 65Q471 63 468 63L468 63Q465 63 463 65L463 65Q465 66 466 67Q467 69 467 70L467 70Q467 73 466 74Q464 76 462 76L462 76Q459 76 458 74Q456 73 456 70L456 70Q456 68 457 67Q458 65 460 64L460 64Q462 63 465 62Q468 62 471 62L471 62Q475 62 478 62Q480 63 482 65L482 65Q483 67 484 69Q484 71 484 75L484 75L484 95Q484 96 485 97Q485 98 486 98L486 98Q487 98 489 97L489 97L489 98Q486 101 481 101L481 101Q478 101 476 99Q474 97 474 95L474 95Q471 101 464 101L464 101ZM469 96Q472 96 474 93L474 93L474 78Q473 80 470 81L470 81Q468 83 466 85Q465 87 465 90L465 90Q465 93 466 94Q467 96 469 96L469 96ZM520 63Q524 63 526 63L526 63L526 64Q525 65 523 66Q522 67 521 70L521 70L508 107Q507 110 505 112L505 112Q503 114 499 114L499 114Q496 114 493 112Q491 111 491 108L491 108Q491 106 492 104Q494 103 497 103L497 103Q499 103 501 104Q502 105 502 107L502 107Q502 109 501 110Q500 111 498 112L498 112Q499 112 500 112L500 112Q505 112 507 106L507 106L508 103L493 68Q491 66 490 65Q489 64 488 64L488 64L488 63Q493 63 498 63L498 63Q502 63 508 63L508 63L508 64Q506 64 505 65Q503 65 503 66L503 66Q503 67 504 68L504 68L513 90L518 76Q519 72 519 70L519 70Q519 65 514 64L514 64L514 63Q517 63 520 63L520 63ZM568 62Q573 62 577 67Q581 71 581 80L581 80Q581 91 576 96Q571 101 564 101L564 101Q559 101 556 98L556 98Q554 98 551 99Q548 100 547 101L547 101L546 101Q546 99 546 96L546 96L546 52Q546 49 545 48Q544 46 542 46L542 46L542 44Q544 45 546 45L546 45Q552 45 557 44L557 44L557 69Q558 65 561 64Q564 62 568 62L568 62ZM562 99Q566 99 568 95Q570 91 570 81L570 81Q570 73 568 69Q566 65 563 65L563 65Q561 65 559 67Q557 68 557 71L557 71L557 98Q559 99 562 99L562 99ZM604 62Q612 62 617 66Q621 71 621 81L621 81Q621 92 617 96Q612 101 604 101L604 101Q596 101 591 96Q586 92 586 81L586 81Q586 71 591 66Q596 62 604 62L604 62ZM604 63Q601 63 599 68Q597 72 597 81L597 81Q597 91 599 95Q601 100 604 100L604 100Q607 100 609 95Q610 91 610 81L610 81Q610 72 609 68Q607 63 604 63L604 63ZM640 44L640 93Q640 96 641 97Q642 98 644 98L644 98L644 100Q637 100 635 100L635 100Q632 100 625 100L625 100L625 98Q627 98 628 97Q629 96 629 93L629 93L629 52Q629 49 628 47Q627 46 625 46L625 46L625 44Q627 45 629 45L629 45Q636 45 640 44L640 44ZM682 92Q682 95 683 97Q684 98 687 98L687 98L687 100Q685 100 682 100L682 100Q676 100 672 101L672 101L672 95Q669 101 662 101L662 101Q656 101 652 96Q648 91 648 81L648 81Q648 75 650 71Q652 66 656 64Q659 62 664 62L664 62Q669 62 672 65L672 65L672 52Q672 49 671 47Q670 46 667 46L667 46L667 44Q670 45 672 45L672 45Q678 45 682 44L682 44L682 92ZM665 98Q668 98 670 96Q671 94 672 92L672 92L672 66Q670 64 667 64L667 64Q663 64 661 68Q659 73 659 81L659 81Q659 90 660 94Q662 98 665 98L665 98Z"/></svg>