<svg xmlns="http://www.w3.org/2000/svg" viewBox="0.14 -7.5600000000000005 38.590188462999144 10.14"><path d="M2.77-2.94L1.37-2.94L0.85 0L0.14 0L1.38-7.05L3.49-7.05Q4.53-7.05 5.04-6.63Q5.54-6.22 5.54-5.47L5.54-5.47Q5.54-5.27 5.49-4.99L5.49-4.99Q5.32-4.01 4.62-3.48Q3.92-2.94 2.77-2.94L2.77-2.94ZM2.82-3.54Q4.53-3.54 4.78-4.99L4.78-4.99Q4.82-5.25 4.82-5.37L4.82-5.37Q4.82-6.46 3.33-6.46L3.33-6.46L1.99-6.46L1.47-3.54L2.82-3.54ZM9.29-5.53Q10.33-5.53 10.96-4.94Q11.59-4.35 11.59-3.31L11.59-3.31Q11.59-3.01 11.53-2.68L11.53-2.68Q11.38-1.84 10.92-1.22Q10.46-0.59 9.79-0.26Q9.11 0.07 8.34 0.07L8.34 0.07Q7.29 0.07 6.66-0.53Q6.02-1.12 6.02-2.16L6.02-2.16Q6.02-2.45 6.08-2.78L6.08-2.78Q6.23-3.62 6.70-4.25Q7.16-4.87 7.84-5.20Q8.52-5.53 9.29-5.53L9.29-5.53ZM9.20-4.92Q8.66-4.92 8.16-4.68Q7.66-4.44 7.29-3.95Q6.93-3.45 6.80-2.73L6.80-2.73Q6.75-2.41 6.75-2.20L6.75-2.20Q6.75-1.39 7.22-0.97Q7.70-0.55 8.42-0.55L8.42-0.55Q8.96-0.55 9.46-0.79Q9.95-1.03 10.32-1.52Q10.68-2.01 10.81-2.73L10.81-2.73Q10.86-3.05 10.86-3.26L10.86-3.26Q10.86-4.07 10.39-4.50Q9.92-4.92 9.20-4.92L9.20-4.92ZM16.22-5.53Q17.20-5.53 17.77-4.96Q18.34-4.39 18.34-3.38L18.34-3.38Q18.34-3.08 18.28-2.73L18.28-2.73Q18.12-1.88 17.68-1.25Q17.24-0.61 16.61-0.27Q15.97 0.07 15.23 0.07L15.23 0.07Q14.39 0.07 13.88-0.36Q13.37-0.79 13.29-1.50L13.29-1.50L12.56 2.58L11.86 2.58L13.28-5.46L13.98-5.46L13.72-3.96Q14.06-4.67 14.72-5.10Q15.38-5.53 16.22-5.53L16.22-5.53ZM15.15-0.55Q16.07-0.55 16.73-1.14Q17.38-1.72 17.56-2.73L17.56-2.73Q17.61-3.05 17.61-3.26L17.61-3.26Q17.61-4.04 17.16-4.48Q16.71-4.91 15.92-4.91L15.92-4.91Q15.33-4.91 14.82-4.64Q14.31-4.37 13.96-3.88Q13.61-3.38 13.50-2.73L13.50-2.73Q13.45-2.45 13.45-2.24L13.45-2.24Q13.45-1.46 13.92-1.01Q14.38-0.55 15.15-0.55L15.15-0.55ZM22.96-5.53Q23.94-5.53 24.51-4.96Q25.08-4.39 25.08-3.38L25.08-3.38Q25.08-3.08 25.02-2.73L25.02-2.73Q24.86-1.88 24.42-1.25Q23.98-0.61 23.35-0.27Q22.71 0.07 21.97 0.07L21.97 0.07Q21.13 0.07 20.62-0.36Q20.11-0.79 20.03-1.50L20.03-1.50L19.30 2.58L18.60 2.58L20.02-5.46L20.72-5.46L20.46-3.96Q20.80-4.67 21.46-5.10Q22.12-5.53 22.96-5.53L22.96-5.53ZM21.89-0.55Q22.81-0.55 23.47-1.14Q24.12-1.72 24.30-2.73L24.30-2.73Q24.35-3.05 24.35-3.26L24.35-3.26Q24.35-4.04 23.90-4.48Q23.45-4.91 22.66-4.91L22.66-4.91Q22.07-4.91 21.56-4.64Q21.05-4.37 20.70-3.88Q20.35-3.38 20.24-2.73L20.24-2.73Q20.19-2.45 20.19-2.24L20.19-2.24Q20.19-1.46 20.66-1.01Q21.12-0.55 21.89-0.55L21.89-0.55ZM26.86-6.99Q26.86-7.24 27.04-7.40Q27.22-7.56 27.47-7.56L27.47-7.56Q27.67-7.56 27.79-7.46Q27.90-7.35 27.90-7.18L27.90-7.18Q27.90-6.94 27.73-6.78Q27.55-6.61 27.30-6.61L27.30-6.61Q27.10-6.61 26.98-6.71Q26.86-6.82 26.86-6.99L26.86-6.99ZM26.74-5.46L27.45-5.46L26.48 0L25.77 0L26.74-5.46ZM31.72-5.56Q32.54-5.56 33.03-5.11Q33.51-4.66 33.51-3.79L33.51-3.79Q33.51-3.51 33.45-3.18L33.45-3.18L32.88 0L32.19 0L32.74-3.13Q32.79-3.41 32.79-3.62L32.79-3.62Q32.79-4.28 32.42-4.63Q32.04-4.97 31.38-4.97L31.38-4.97Q30.56-4.97 29.99-4.45Q29.41-3.92 29.23-2.90L29.23-2.90L28.72 0L28.01 0L28.98-5.46L29.68-5.46L29.44-4.12Q29.77-4.82 30.39-5.19Q31.01-5.56 31.72-5.56L31.72-5.56ZM36.70-5.53Q37.70-5.53 38.22-5.06Q38.74-4.59 38.73-3.79L38.73-3.79L38.03-3.79Q38.05-4.32 37.70-4.67Q37.35-5.01 36.63-5.01L36.63-5.01Q36.08-5.01 35.75-4.74Q35.41-4.46 35.41-4.01L35.41-4.01Q35.41-3.72 35.59-3.54Q35.76-3.35 36.02-3.25Q36.27-3.14 36.73-3.01L36.73-3.01Q37.27-2.86 37.60-2.71Q37.93-2.57 38.16-2.29Q38.39-2.01 38.39-1.55L38.39-1.55Q38.39-1.44 38.35-1.18L38.35-1.18Q38.25-0.62 37.76-0.28Q37.27 0.07 36.49 0.07L36.49 0.07Q35.48 0.07 34.90-0.40Q34.32-0.86 34.33-1.67L34.33-1.67L35.02-1.67Q34.98-1.13 35.38-0.79Q35.77-0.45 36.56-0.45L36.56-0.45Q37.03-0.45 37.34-0.67Q37.64-0.89 37.70-1.24L37.70-1.24Q37.72-1.40 37.72-1.46L37.72-1.46Q37.72-1.78 37.54-1.99Q37.35-2.19 37.09-2.30Q36.82-2.41 36.35-2.55L36.35-2.55Q35.83-2.70 35.52-2.83Q35.21-2.97 34.99-3.23Q34.77-3.49 34.77-3.92L34.77-3.92Q34.77-4.07 34.80-4.25L34.80-4.25Q34.90-4.83 35.40-5.18Q35.90-5.53 36.70-5.53L36.70-5.53Z"/></svg>