<svg xmlns="http://www.w3.org/2000/svg" viewBox="-0.5760000000000001 41.175999999999995 896.8320000000004 78.12"><path d="M23.54 82.94L16.56 82.94L13.61 100L-0.58 100L8.35 49.02L29.52 49.02Q37.58 49.02 41.72 52.59Q45.86 56.15 45.86 62.34L45.86 62.34Q45.86 63.93 45.50 66.09L45.50 66.09Q44.64 70.91 41.80 74.73Q38.95 78.54 34.27 80.74Q29.59 82.94 23.54 82.94L23.54 82.94ZM23.98 71.78Q27.22 71.78 28.98 70.26Q30.74 68.75 31.18 66.09L31.18 66.09Q31.32 65.08 31.32 64.65L31.32 64.65Q31.32 60.47 25.99 60.47L25.99 60.47L20.59 60.47L18.58 71.78L23.98 71.78ZM71.93 59.10Q77.33 59.10 81.47 61.16Q85.61 63.21 87.91 67.10Q90.22 70.98 90.22 76.31L90.22 76.31Q90.22 78.54 89.78 81.06L89.78 81.06Q88.70 87.04 85.25 91.43Q81.79 95.82 76.68 98.16Q71.57 100.50 65.66 100.50L65.66 100.50Q60.12 100.50 55.94 98.45Q51.77 96.40 49.43 92.48Q47.09 88.55 47.09 83.22L47.09 83.22Q47.09 80.99 47.52 78.54L47.52 78.54Q48.60 72.57 52.09 68.18Q55.58 63.78 60.77 61.44Q65.95 59.10 71.93 59.10L71.93 59.10ZM70.13 71.34Q67.25 71.34 64.94 73.50Q62.64 75.66 61.85 79.77L61.85 79.77Q61.63 81.06 61.63 82.07L61.63 82.07Q61.63 85.10 63.18 86.68Q64.73 88.26 67.18 88.26L67.18 88.26Q70.06 88.26 72.36 86.10Q74.66 83.94 75.46 79.77L75.46 79.77Q75.67 78.47 75.67 77.46L75.67 77.46Q75.67 74.44 74.12 72.89Q72.58 71.34 70.13 71.34L70.13 71.34ZM125.28 59.10Q131.54 59.10 135.36 63.21Q139.18 67.31 139.18 74.51L139.18 74.51Q139.18 77.18 138.67 79.77L138.67 79.77Q137.52 86.10 134.50 90.82Q131.47 95.54 127.15 98.02Q122.83 100.50 118.01 100.50L118.01 100.50Q113.69 100.50 110.95 98.67Q108.22 96.83 107.28 93.59L107.28 93.59L102.74 119.30L88.56 119.30L99.07 59.61L113.26 59.61L112.10 66.02Q114.12 62.78 117.58 60.94Q121.03 59.10 125.28 59.10L125.28 59.10ZM115.49 88.12Q118.80 88.12 121.25 85.92Q123.70 83.73 124.34 79.77L124.34 79.77Q124.56 78.69 124.56 77.68L124.56 77.68Q124.56 74.73 122.90 73.11Q121.25 71.49 118.44 71.49L118.44 71.49Q115.20 71.49 112.79 73.72Q110.38 75.95 109.66 79.77L109.66 79.77Q109.44 80.92 109.44 81.93L109.44 81.93Q109.44 84.88 111.10 86.50Q112.75 88.12 115.49 88.12L115.49 88.12ZM174.24 59.10Q180.50 59.10 184.32 63.21Q188.14 67.31 188.14 74.51L188.14 74.51Q188.14 77.18 187.63 79.77L187.63 79.77Q186.48 86.10 183.46 90.82Q180.43 95.54 176.11 98.02Q171.79 100.50 166.97 100.50L166.97 100.50Q162.65 100.50 159.91 98.67Q157.18 96.83 156.24 93.59L156.24 93.59L151.70 119.30L137.52 119.30L148.03 59.61L162.22 59.61L161.06 66.02Q163.08 62.78 166.54 60.94Q169.99 59.10 174.24 59.10L174.24 59.10ZM164.45 88.12Q167.76 88.12 170.21 85.92Q172.66 83.73 173.30 79.77L173.30 79.77Q173.52 78.69 173.52 77.68L173.52 77.68Q173.52 74.73 171.86 73.11Q170.21 71.49 167.40 71.49L167.40 71.49Q164.16 71.49 161.75 73.72Q159.34 75.95 158.62 79.77L158.62 79.77Q158.40 80.92 158.40 81.93L158.40 81.93Q158.40 84.88 160.06 86.50Q161.71 88.12 164.45 88.12L164.45 88.12ZM197.71 49.60Q197.71 47.30 198.97 45.39Q200.23 43.48 202.46 42.33Q204.70 41.18 207.43 41.18L207.43 41.18Q210.74 41.18 212.62 42.83Q214.49 44.49 214.49 47.15L214.49 47.15Q214.49 49.38 213.23 51.33Q211.97 53.27 209.77 54.39Q207.58 55.50 204.84 55.50L204.84 55.50Q201.46 55.50 199.58 53.85Q197.71 52.19 197.71 49.60L197.71 49.60ZM196.99 59.61L211.18 59.61L204.05 100L189.86 100L196.99 59.61ZM245.95 59.25Q251.78 59.25 255.02 62.63Q258.26 66.02 258.26 72.06L258.26 72.06Q258.26 74.15 257.83 76.53L257.83 76.53L253.73 100L239.62 100L243.43 78.33Q243.58 77.68 243.58 76.46L243.58 76.46Q243.58 73.79 242.10 72.32Q240.62 70.84 237.96 70.84L237.96 70.84Q234.79 70.84 232.60 72.86Q230.40 74.87 229.75 78.54L229.75 78.54L229.75 78.26L225.94 100L211.82 100L218.88 59.61L233.06 59.61L231.84 66.38Q234.22 63.14 237.85 61.19Q241.49 59.25 245.95 59.25L245.95 59.25ZM281.95 59.10Q290.66 59.10 295.27 62.99Q299.88 66.88 300.53 73.29L300.53 73.29L286.63 73.29Q286.56 71.13 284.94 70.05Q283.32 68.97 280.73 68.97L280.73 68.97Q278.86 68.97 277.78 69.58Q276.70 70.19 276.70 71.49L276.70 71.49Q276.70 72.78 278.42 73.58Q280.15 74.37 283.82 75.30L283.82 75.30Q288.22 76.38 291.20 77.57Q294.19 78.76 296.39 81.10Q298.58 83.44 298.58 87.26L298.58 87.26Q298.58 88.77 298.30 89.99L298.30 89.99Q297.36 94.67 292.79 97.59Q288.22 100.50 280.44 100.50L280.44 100.50Q272.09 100.50 266.98 96.80Q261.86 93.09 261.50 86.32L261.50 86.32L275.40 86.32Q275.18 88.48 276.95 89.60Q278.71 90.71 281.59 90.71L281.59 90.71Q285.05 90.71 285.55 88.41L285.55 88.41Q285.84 86.82 284.11 85.96Q282.38 85.10 278.42 84.16L278.42 84.16Q273.96 83.01 271.12 81.93Q268.27 80.85 266.15 78.54Q264.02 76.24 264.02 72.42L264.02 72.42Q264.02 71.63 264.31 69.76L264.31 69.76Q265.10 65.08 269.64 62.09Q274.18 59.10 281.95 59.10L281.95 59.10ZM340.78 59.10Q348.84 59.10 353.45 63.35Q358.06 67.60 358.06 74.87L358.06 74.87Q358.06 76.67 357.70 79.05L357.70 79.05Q357.05 81.50 356.69 82.36L356.69 82.36L330.05 82.36Q329.98 82.94 329.98 84.02L329.98 84.02Q329.98 89.20 334.80 89.20L334.80 89.20Q336.89 89.20 338.44 88.19Q339.98 87.18 340.78 85.53L340.78 85.53L355.75 85.53Q353.30 92.15 347.33 96.33Q341.35 100.50 333.50 100.50L333.50 100.50Q325.58 100.50 320.98 96.11Q316.37 91.72 316.37 84.02L316.37 84.02Q316.37 81.71 316.80 79.12L316.80 79.12Q317.88 73 321.30 68.46Q324.72 63.93 329.76 61.52Q334.80 59.10 340.78 59.10L340.78 59.10ZM343.80 76.46Q343.94 75.88 343.94 74.87L343.94 74.87Q343.94 72.57 342.50 71.38Q341.06 70.19 338.83 70.19L338.83 70.19Q336.02 70.19 334.01 71.78Q331.99 73.36 331.13 76.46L331.13 76.46L343.80 76.46ZM406.80 59.61L389.30 80.27L400.25 100L384.41 100L378.72 89.70L370.94 100L355.39 100L372.60 78.83L361.94 59.61L377.78 59.61L383.47 69.83L391.25 59.61L406.80 59.61ZM425.09 71.42L422.78 84.45Q422.71 84.81 422.71 85.46L422.71 85.46Q422.71 86.75 423.43 87.33Q424.15 87.90 425.81 87.90L425.81 87.90L429.70 87.90L427.46 100L421.70 100Q408.24 100 408.24 88.55L408.24 88.55Q408.24 86.54 408.67 84.16L408.67 84.16L410.98 71.42L405.72 71.42L407.81 59.61L413.06 59.61L414.79 49.82L428.90 49.82L427.18 59.61L434.52 59.61L432.43 71.42L425.09 71.42ZM454.75 67.17Q457.85 63.57 461.77 61.41Q465.70 59.25 469.80 59.25L469.80 59.25L467.06 74.37L463.03 74.37Q458.28 74.37 455.58 76.20Q452.88 78.04 452.09 82.58L452.09 82.58L448.99 100L434.88 100L441.94 59.61L456.12 59.61L454.75 67.17ZM489.02 59.10Q493.56 59.10 496.55 60.98Q499.54 62.85 500.47 66.02L500.47 66.02L501.62 59.61L515.74 59.61L508.54 100L494.50 100L495.65 93.59Q493.63 96.76 490.18 98.63Q486.72 100.50 482.40 100.50L482.40 100.50Q475.85 100.50 472.14 96.29Q468.43 92.08 468.43 84.59L468.43 84.59Q468.43 82 469.01 78.54L469.01 78.54Q470.09 72.57 473.04 68.18Q475.99 63.78 480.17 61.44Q484.34 59.10 489.02 59.10L489.02 59.10ZM492.19 71.49Q488.88 71.49 486.47 73.68Q484.06 75.88 483.34 79.77L483.34 79.77Q483.12 80.85 483.12 81.86L483.12 81.86Q483.12 84.88 484.78 86.50Q486.43 88.12 489.24 88.12L489.24 88.12Q492.41 88.12 494.89 85.89Q497.38 83.66 498.02 79.77L498.02 79.77Q498.24 78.69 498.24 77.68L498.24 77.68Q498.24 74.73 496.58 73.11Q494.93 71.49 492.19 71.49L492.19 71.49ZM543.74 100L529.63 100L539.06 46.72L553.18 46.72L549.79 66.02Q551.88 62.78 555.26 60.94Q558.65 59.10 562.97 59.10L562.97 59.10Q569.23 59.10 573.05 63.21Q576.86 67.31 576.86 74.51L576.86 74.51Q576.86 77.18 576.36 79.77L576.36 79.77Q575.21 86.10 572.15 90.82Q569.09 95.54 564.77 98.02Q560.45 100.50 555.62 100.50L555.62 100.50Q551.38 100.50 548.60 98.67Q545.83 96.83 544.90 93.59L544.90 93.59L543.74 100ZM553.18 88.12Q556.42 88.12 558.86 85.92Q561.31 83.73 561.96 79.77L561.96 79.77Q562.18 78.54 562.18 77.61L562.18 77.61Q562.18 74.73 560.52 73.11Q558.86 71.49 556.13 71.49L556.13 71.49Q552.89 71.49 550.44 73.72Q547.99 75.95 547.27 79.77L547.27 79.77Q547.06 80.85 547.06 81.78L547.06 81.78Q547.06 84.81 548.75 86.46Q550.44 88.12 553.18 88.12L553.18 88.12ZM604.73 59.10Q610.13 59.10 614.27 61.16Q618.41 63.21 620.71 67.10Q623.02 70.98 623.02 76.31L623.02 76.31Q623.02 78.54 622.58 81.06L622.58 81.06Q621.50 87.04 618.05 91.43Q614.59 95.82 609.48 98.16Q604.37 100.50 598.46 100.50L598.46 100.50Q592.92 100.50 588.74 98.45Q584.57 96.40 582.23 92.48Q579.89 88.55 579.89 83.22L579.89 83.22Q579.89 80.99 580.32 78.54L580.32 78.54Q581.40 72.57 584.89 68.18Q588.38 63.78 593.57 61.44Q598.75 59.10 604.73 59.10L604.73 59.10ZM602.93 71.34Q600.05 71.34 597.74 73.50Q595.44 75.66 594.65 79.77L594.65 79.77Q594.43 81.06 594.43 82.07L594.43 82.07Q594.43 85.10 595.98 86.68Q597.53 88.26 599.98 88.26L599.98 88.26Q602.86 88.26 605.16 86.10Q607.46 83.94 608.26 79.77L608.26 79.77Q608.47 78.47 608.47 77.46L608.47 77.46Q608.47 74.44 606.92 72.89Q605.38 71.34 602.93 71.34L602.93 71.34ZM634.18 46.72L648.36 46.72L639.00 100L624.82 100L634.18 46.72ZM682.78 46.72L696.89 46.72L687.46 100L673.34 100L674.50 93.59Q672.48 96.83 669.02 98.67Q665.57 100.50 661.32 100.50L661.32 100.50Q657.22 100.50 654.08 98.56Q650.95 96.62 649.19 92.94Q647.42 89.27 647.42 84.23L647.42 84.23Q647.42 81.35 647.93 78.54L647.93 78.54Q649.01 72.57 651.96 68.18Q654.91 63.78 659.09 61.44Q663.26 59.10 667.94 59.10L667.94 59.10Q672.48 59.10 675.43 60.94Q678.38 62.78 679.32 66.02L679.32 66.02L682.78 46.72ZM671.11 71.49Q667.80 71.49 665.39 73.68Q662.98 75.88 662.26 79.77L662.26 79.77Q662.04 80.85 662.04 81.86L662.04 81.86Q662.04 84.88 663.70 86.50Q665.35 88.12 668.16 88.12L668.16 88.12Q671.33 88.12 673.81 85.89Q676.30 83.66 676.94 79.77L676.94 79.77Q677.16 78.69 677.16 77.75L677.16 77.75Q677.16 74.80 675.50 73.14Q673.85 71.49 671.11 71.49L671.11 71.49ZM716.18 49.60Q716.18 47.30 717.44 45.39Q718.70 43.48 720.94 42.33Q723.17 41.18 725.90 41.18L725.90 41.18Q729.22 41.18 731.09 42.83Q732.96 44.49 732.96 47.15L732.96 47.15Q732.96 49.38 731.70 51.33Q730.44 53.27 728.24 54.39Q726.05 55.50 723.31 55.50L723.31 55.50Q719.93 55.50 718.06 53.85Q716.18 52.19 716.18 49.60L716.18 49.60ZM715.46 59.61L729.65 59.61L722.52 100L708.34 100L715.46 59.61ZM751.03 71.42L748.73 84.45Q748.66 84.81 748.66 85.46L748.66 85.46Q748.66 86.75 749.38 87.33Q750.10 87.90 751.75 87.90L751.75 87.90L755.64 87.90L753.41 100L747.65 100Q734.18 100 734.18 88.55L734.18 88.55Q734.18 86.54 734.62 84.16L734.62 84.16L736.92 71.42L731.66 71.42L733.75 59.61L739.01 59.61L740.74 49.82L754.85 49.82L753.12 59.61L760.46 59.61L758.38 71.42L751.03 71.42ZM782.50 59.10Q787.03 59.10 790.02 60.98Q793.01 62.85 793.94 66.02L793.94 66.02L795.10 59.61L809.21 59.61L802.01 100L787.97 100L789.12 93.59Q787.10 96.76 783.65 98.63Q780.19 100.50 775.87 100.50L775.87 100.50Q769.32 100.50 765.61 96.29Q761.90 92.08 761.90 84.59L761.90 84.59Q761.90 82 762.48 78.54L762.48 78.54Q763.56 72.57 766.51 68.18Q769.46 63.78 773.64 61.44Q777.82 59.10 782.50 59.10L782.50 59.10ZM785.66 71.49Q782.35 71.49 779.94 73.68Q777.53 75.88 776.81 79.77L776.81 79.77Q776.59 80.85 776.59 81.86L776.59 81.86Q776.59 84.88 778.25 86.50Q779.90 88.12 782.71 88.12L782.71 88.12Q785.88 88.12 788.36 85.89Q790.85 83.66 791.50 79.77L791.50 79.77Q791.71 78.69 791.71 77.68L791.71 77.68Q791.71 74.73 790.06 73.11Q788.40 71.49 785.66 71.49L785.66 71.49ZM819.29 46.72L833.47 46.72L824.11 100L809.93 100L819.29 46.72ZM839.38 49.60Q839.38 47.30 840.64 45.39Q841.90 43.48 844.13 42.33Q846.36 41.18 849.10 41.18L849.10 41.18Q852.41 41.18 854.28 42.83Q856.15 44.49 856.15 47.15L856.15 47.15Q856.15 49.38 854.89 51.33Q853.63 53.27 851.44 54.39Q849.24 55.50 846.50 55.50L846.50 55.50Q843.12 55.50 841.25 53.85Q839.38 52.19 839.38 49.60L839.38 49.60ZM838.66 59.61L852.84 59.61L845.71 100L831.53 100L838.66 59.61ZM878.54 59.10Q886.68 59.10 891.43 63.46Q896.18 67.82 896.26 75.52L896.26 75.52L881.28 75.52Q881.06 73.43 879.95 72.32Q878.83 71.20 876.74 71.20L876.74 71.20Q874.15 71.20 872.17 73.36Q870.19 75.52 869.40 79.77L869.40 79.77Q869.11 81.78 869.11 82.50L869.11 82.50Q869.11 85.38 870.37 86.86Q871.63 88.34 873.72 88.34L873.72 88.34Q875.81 88.34 877.32 87.18Q878.83 86.03 879.70 84.02L879.70 84.02L894.74 84.02Q891.94 91.72 885.85 96.11Q879.77 100.50 871.92 100.50L871.92 100.50Q864.00 100.50 859.28 96.00Q854.57 91.50 854.57 83.58L854.57 83.58Q854.57 81.71 855.07 78.54L855.07 78.54Q856.15 72.57 859.46 68.18Q862.78 63.78 867.74 61.44Q872.71 59.10 878.54 59.10L878.54 59.10Z"/></svg>