<svg xmlns="http://www.w3.org/2000/svg" viewBox="0.14400000000000002 43.11999999999999 857.8080000000004 75.88800000000002"><path d="M22 81L14 81L10 100L0 100L9 49L28 49Q35 49 39 52Q43 56 43 62L43 62Q43 64 43 65L43 65Q42 72 36 77Q31 81 22 81L22 81ZM22 73Q31 73 33 65L33 65Q33 65 33 63L33 63Q33 60 31 59Q29 57 25 57L25 57L18 57L15 73L22 73ZM70 60Q75 60 79 62Q83 64 85 67Q87 71 87 76L87 76Q87 78 87 81L87 81Q86 87 82 91Q79 96 74 98Q69 101 63 101L63 101Q58 101 54 99Q50 97 48 93Q46 89 46 84L46 84Q46 82 46 79L46 79Q47 73 50 69Q54 64 59 62Q64 60 70 60L70 60ZM68 68Q64 68 61 71Q57 74 56 80L56 80Q56 81 56 83L56 83Q56 87 58 90Q61 92 64 92L64 92Q69 92 72 89Q76 86 77 80L77 80Q77 79 77 77L77 77Q77 73 74 71Q72 68 68 68L68 68ZM122 60Q128 60 132 64Q136 68 136 75L136 75Q136 77 136 80L136 80Q134 86 131 91Q128 96 124 98Q119 101 114 101L114 101Q109 101 106 98Q103 96 102 92L102 92L97 119L87 119L98 60L108 60L106 68Q109 64 113 62Q117 60 122 60L122 60ZM113 92Q117 92 121 89Q124 85 125 80L125 80Q126 79 126 77L126 77Q126 73 123 71Q121 68 117 68L117 68Q112 68 109 72Q105 75 104 80L104 80Q104 81 104 83L104 83Q104 87 106 89Q109 92 113 92L113 92ZM170 60Q177 60 181 64Q185 68 185 75L185 75Q185 77 184 80L184 80Q183 86 180 91Q177 96 173 98Q168 101 163 101L163 101Q158 101 155 98Q152 96 151 92L151 92L146 119L136 119L146 60L157 60L155 68Q157 64 161 62Q165 60 170 60L170 60ZM161 92Q166 92 170 89Q173 85 174 80L174 80Q174 79 174 77L174 77Q174 73 172 71Q170 68 166 68L166 68Q161 68 157 72Q154 75 153 80L153 80Q153 81 153 83L153 83Q153 87 155 89Q158 92 161 92L161 92ZM196 50Q196 47 198 45Q200 43 203 43L203 43Q206 43 207 44Q208 46 208 48L208 48Q208 50 206 52Q204 54 201 54L201 54Q199 54 197 53Q196 52 196 50L196 50ZM195 60L205 60L198 100L188 100L195 60ZM238 60Q244 60 247 63Q251 66 251 72L251 72Q251 75 250 77L250 77L246 100L236 100L240 78Q240 77 240 75L240 75Q240 72 238 70Q236 68 233 68L233 68Q228 68 225 71Q222 74 221 79L221 79L221 79L218 100L207 100L214 60L224 60L223 68Q225 64 229 62Q233 60 238 60L238 60ZM274 60Q282 60 286 63Q291 67 291 73L291 73L281 73Q281 70 279 68Q277 67 273 67L273 67Q271 67 269 68Q267 69 267 71L267 71Q267 73 269 74Q271 76 276 77L276 77Q280 78 282 79Q285 80 287 82Q289 84 289 88L289 88Q289 89 289 91L289 91Q288 95 284 98Q279 101 273 101L273 101Q265 101 260 97Q255 93 255 87L255 87L265 87Q265 90 267 92Q269 93 273 93L273 93Q276 93 278 92Q279 91 279 89L279 89Q279 87 278 86Q277 85 275 84Q274 84 271 83L271 83Q267 82 264 81Q262 80 260 78Q258 76 258 72L258 72Q258 71 258 70L258 70Q259 65 263 62Q267 60 274 60L274 60ZM328 60Q336 60 340 63Q345 67 345 73L345 73L335 73Q335 70 333 68Q331 67 327 67L327 67Q325 67 323 68Q321 69 321 71L321 71Q321 73 323 74Q325 76 330 77L330 77Q334 78 336 79Q339 80 341 82Q343 84 343 88L343 88Q343 89 343 91L343 91Q342 95 338 98Q334 101 327 101L327 101Q319 101 314 97Q309 93 309 87L309 87L319 87Q319 90 321 92Q323 93 328 93L328 93Q330 93 332 92Q333 91 333 89L333 89Q333 87 332 86Q331 85 330 84Q328 84 325 83L325 83Q321 82 318 81Q316 80 314 78Q312 76 312 72L312 72Q312 71 312 70L312 70Q313 65 317 62Q321 60 328 60L328 60ZM373 60Q380 60 385 64Q389 68 389 75L389 75Q389 76 389 79L389 79Q388 81 388 82L388 82L359 82Q358 83 358 84L358 84Q358 88 361 90Q363 92 366 92L366 92Q370 92 373 91Q375 89 376 86L376 86L387 86Q385 92 379 96Q373 101 365 101L365 101Q358 101 353 96Q349 92 349 84L349 84Q349 82 349 80L349 80Q350 73 354 69Q357 64 362 62Q367 60 373 60L373 60ZM379 78Q379 76 379 75L379 75Q379 71 377 69Q375 68 371 68L371 68Q367 68 364 70Q361 73 359 78L359 78L379 78ZM450 60Q456 60 460 63Q463 66 463 72L463 72Q463 75 463 77L463 77L459 100L449 100L453 78Q453 77 453 76L453 76Q453 72 451 70Q449 68 445 68L445 68Q441 68 438 71Q435 74 434 78L434 78L431 100L420 100L424 78Q425 77 425 76L425 76Q425 72 423 70Q421 68 417 68L417 68Q413 68 410 71Q407 74 406 79L406 79L406 78L402 100L392 100L399 60L409 60L408 68Q410 64 414 62Q418 60 422 60L422 60Q427 60 430 62Q434 64 435 68L435 68Q437 64 441 62Q446 60 450 60L450 60ZM475 50Q475 47 478 45Q480 43 483 43L483 43Q485 43 487 44Q488 46 488 48L488 48Q488 50 486 52Q484 54 481 54L481 54Q478 54 477 53Q475 52 475 50L475 50ZM475 60L485 60L478 100L468 100L475 60ZM512 100L502 100L512 47L522 47L518 68Q520 64 524 62Q528 60 533 60L533 60Q540 60 544 64Q548 68 548 75L548 75Q548 77 547 80L547 80Q546 86 543 91Q540 96 535 98Q531 101 526 101L526 101Q521 101 518 98Q515 96 514 92L514 92L512 100ZM524 92Q529 92 533 88Q536 85 537 80L537 80Q537 79 537 77L537 77Q537 73 535 71Q533 68 528 68L528 68Q524 68 520 72Q517 75 516 80L516 80Q516 81 516 83L516 83Q516 87 518 89Q520 92 524 92L524 92ZM577 60Q582 60 586 62Q590 64 592 67Q594 71 594 76L594 76Q594 78 594 81L594 81Q593 87 590 91Q586 96 581 98Q576 101 570 101L570 101Q565 101 561 99Q557 97 555 93Q553 89 553 84L553 84Q553 82 553 79L553 79Q554 73 558 69Q561 64 566 62Q571 60 577 60L577 60ZM576 68Q571 68 568 71Q564 74 563 80L563 80Q563 81 563 83L563 83Q563 87 565 90Q568 92 571 92L571 92Q576 92 579 89Q583 86 584 80L584 80Q584 79 584 77L584 77Q584 73 582 71Q579 68 576 68L576 68ZM607 47L617 47L608 100L598 100L607 47ZM655 47L665 47L656 100L646 100L647 92Q645 96 641 98Q637 101 632 101L632 101Q625 101 621 96Q617 92 617 84L617 84Q617 82 618 79L618 79Q619 73 622 69Q625 64 629 62Q634 60 639 60L639 60Q644 60 647 62Q651 64 651 68L651 68L655 47ZM641 68Q636 68 633 72Q629 75 628 80L628 80Q628 82 628 83L628 83Q628 87 630 89Q633 92 637 92L637 92Q641 92 645 88Q649 85 649 80L649 80Q650 79 650 77L650 77Q650 73 647 71Q645 68 641 68L641 68ZM689 50Q689 47 691 45Q693 43 696 43L696 43Q699 43 700 44Q701 46 701 48L701 48Q701 50 699 52Q697 54 694 54L694 54Q692 54 690 53Q689 52 689 50L689 50ZM688 60L698 60L691 100L681 100L688 60ZM717 69L714 86Q714 87 714 88L714 88Q714 90 715 91Q716 91 718 91L718 91L722 91L721 100L716 100Q710 100 707 98Q704 95 704 90L704 90Q704 88 704 86L704 86L707 69L702 69L703 60L709 60L710 50L721 50L719 60L728 60L726 69L717 69ZM751 60Q757 60 760 62Q763 64 764 68L764 68L766 60L776 60L769 100L759 100L760 92Q758 96 754 98Q750 101 745 101L745 101Q738 101 734 96Q730 92 730 85L730 85Q730 82 731 79L731 79Q732 73 735 69Q738 64 742 62Q746 60 751 60L751 60ZM754 68Q749 68 745 72Q742 75 741 80L741 80Q741 82 741 83L741 83Q741 87 743 89Q745 92 749 92L749 92Q754 92 758 88Q761 85 762 80L762 80Q762 78 762 77L762 77Q762 73 760 71Q758 68 754 68L754 68ZM787 47L797 47L788 100L778 100L787 47ZM805 50Q805 47 807 45Q809 43 812 43L812 43Q815 43 816 44Q817 46 817 48L817 48Q817 50 815 52Q813 54 810 54L810 54Q808 54 806 53Q805 52 805 50L805 50ZM804 60L814 60L807 100L797 100L804 60ZM841 60Q849 60 853 64Q858 68 858 75L858 75L847 75Q847 72 845 70Q843 68 840 68L840 68Q836 68 832 71Q829 74 828 80L828 80Q828 82 828 83L828 83Q828 87 830 90Q832 92 835 92L835 92Q839 92 842 90Q844 88 845 85L845 85L856 85Q854 92 848 96Q842 101 834 101L834 101Q826 101 822 96Q817 92 817 84L817 84Q817 82 818 79L818 79Q819 73 822 69Q826 64 830 62Q835 60 841 60L841 60Z"/></svg>