<svg xmlns="http://www.w3.org/2000/svg" viewBox="0.59 -8.05 40.39 10.71"><path d="M3.36-2.48L2.30-2.48L2.30 0L0.59 0L0.59-7.07L3.36-7.07Q4.62-7.07 5.28-6.45Q5.94-5.82 5.94-4.76L5.94-4.76Q5.94-4.10 5.65-3.58Q5.35-3.07 4.77-2.77Q4.19-2.48 3.36-2.48L3.36-2.48ZM3.17-3.85Q4.20-3.85 4.20-4.76L4.20-4.76Q4.20-5.69 3.17-5.69L3.17-5.69L2.30-5.69L2.30-3.85L3.17-3.85ZM9.39-5.65Q10.22-5.65 10.88-5.30Q11.53-4.96 11.91-4.31Q12.28-3.66 12.28-2.79L12.28-2.79Q12.28-1.92 11.91-1.27Q11.53-0.62 10.88-0.28Q10.22 0.07 9.39 0.07L9.39 0.07Q8.56 0.07 7.90-0.28Q7.24-0.62 6.87-1.27Q6.49-1.92 6.49-2.79L6.49-2.79Q6.49-3.66 6.87-4.31Q7.24-4.96 7.90-5.30Q8.56-5.65 9.39-5.65L9.39-5.65ZM9.39-4.17Q8.90-4.17 8.57-3.81Q8.23-3.46 8.23-2.79L8.23-2.79Q8.23-2.12 8.57-1.77Q8.90-1.42 9.39-1.42L9.39-1.42Q9.88-1.42 10.21-1.77Q10.54-2.12 10.54-2.79L10.54-2.79Q10.54-3.46 10.21-3.81Q9.88-4.17 9.39-4.17L9.39-4.17ZM16.65-5.65Q17.34-5.65 17.89-5.30Q18.43-4.96 18.75-4.32Q19.06-3.67 19.06-2.79L19.06-2.79Q19.06-1.92 18.75-1.27Q18.43-0.62 17.89-0.28Q17.34 0.07 16.65 0.07L16.65 0.07Q16.01 0.07 15.55-0.22Q15.09-0.51 14.88-1.01L14.88-1.01L14.88 2.66L13.17 2.66L13.17-5.58L14.88-5.58L14.88-4.57Q15.09-5.07 15.55-5.36Q16.01-5.65 16.65-5.65L16.65-5.65ZM16.10-4.15Q15.56-4.15 15.22-3.79Q14.87-3.42 14.87-2.79L14.87-2.79Q14.87-2.17 15.22-1.80Q15.56-1.43 16.10-1.43L16.10-1.43Q16.65-1.43 16.99-1.79Q17.32-2.15 17.32-2.79L17.32-2.79Q17.32-3.43 16.99-3.79Q16.65-4.15 16.10-4.15L16.10-4.15ZM23.43-5.65Q24.12-5.65 24.67-5.30Q25.21-4.96 25.53-4.32Q25.84-3.67 25.84-2.79L25.84-2.79Q25.84-1.92 25.53-1.27Q25.21-0.62 24.67-0.28Q24.12 0.07 23.43 0.07L23.43 0.07Q22.79 0.07 22.33-0.22Q21.87-0.51 21.66-1.01L21.66-1.01L21.66 2.66L19.95 2.66L19.95-5.58L21.66-5.58L21.66-4.57Q21.87-5.07 22.33-5.36Q22.79-5.65 23.43-5.65L23.43-5.65ZM22.88-4.15Q22.34-4.15 22.00-3.79Q21.65-3.42 21.65-2.79L21.65-2.79Q21.65-2.17 22.00-1.80Q22.34-1.43 22.88-1.43L22.88-1.43Q23.43-1.43 23.77-1.79Q24.10-2.15 24.10-2.79L24.10-2.79Q24.10-3.43 23.77-3.79Q23.43-4.15 22.88-4.15L22.88-4.15ZM26.57-7.15Q26.57-7.54 26.85-7.79Q27.13-8.05 27.59-8.05L27.59-8.05Q28.05-8.05 28.33-7.79Q28.61-7.54 28.61-7.15L28.61-7.15Q28.61-6.77 28.33-6.52Q28.05-6.26 27.59-6.26L27.59-6.26Q27.13-6.26 26.85-6.52Q26.57-6.77 26.57-7.15L26.57-7.15ZM26.73-5.58L28.44-5.58L28.44 0L26.73 0L26.73-5.58ZM33.16-5.64Q34.12-5.64 34.69-5Q35.25-4.36 35.25-3.24L35.25-3.24L35.25 0L33.54 0L33.54-3.04Q33.54-3.60 33.25-3.92Q32.95-4.23 32.46-4.23L32.46-4.23Q31.94-4.23 31.64-3.90Q31.33-3.57 31.33-2.96L31.33-2.96L31.33 0L29.62 0L29.62-5.58L31.33-5.58L31.33-4.56Q31.57-5.06 32.05-5.35Q32.52-5.64 33.16-5.64L33.16-5.64ZM38.41-5.65Q39.47-5.65 40.11-5.12Q40.74-4.59 40.90-3.72L40.90-3.72L39.30-3.72Q39.23-4.06 38.99-4.25Q38.74-4.45 38.37-4.45L38.37-4.45Q38.08-4.45 37.93-4.33Q37.78-4.20 37.78-3.97L37.78-3.97Q37.78-3.71 38.06-3.58Q38.33-3.45 38.92-3.32L38.92-3.32Q39.56-3.17 39.97-3.02Q40.38-2.86 40.68-2.51Q40.98-2.16 40.98-1.57L40.98-1.57Q40.98-1.09 40.72-0.72Q40.46-0.35 39.97-0.14Q39.48 0.07 38.81 0.07L38.81 0.07Q37.68 0.07 37.00-0.43Q36.32-0.93 36.17-1.86L36.17-1.86L37.82-1.86Q37.86-1.50 38.13-1.31Q38.39-1.12 38.81-1.12L38.81-1.12Q39.10-1.12 39.25-1.26Q39.40-1.39 39.40-1.61L39.40-1.61Q39.40-1.90 39.13-2.02Q38.85-2.15 38.23-2.29L38.23-2.29Q37.61-2.42 37.21-2.57Q36.81-2.72 36.52-3.06Q36.23-3.39 36.23-3.97L36.23-3.97Q36.23-4.72 36.80-5.19Q37.37-5.65 38.41-5.65L38.41-5.65Z"/></svg>