<svg xmlns="http://www.w3.org/2000/svg" viewBox="1.6560000000000001 46.71999999999999 594.6529230769231 71.56800000000001"><path d="M19 77L7 77L3 100L2 100L11 49L23 49Q37 49 37 60L37 60Q37 62 37 63L37 63Q36 70 31 74Q26 77 19 77L19 77ZM19 76Q27 76 31 72Q35 69 36 63L36 63Q36 62 36 60L36 60Q36 55 33 53Q30 51 23 51L23 51L12 51L7 76L19 76ZM65 61Q72 61 76 65Q81 69 81 76L81 76Q81 78 80 81L80 81Q79 87 76 91Q73 96 68 98Q63 101 58 101L58 101Q51 101 46 96Q42 92 42 85L42 85Q42 83 42 81L42 81Q43 74 47 70Q50 65 55 63Q59 61 65 61L65 61ZM65 62Q60 62 56 64Q51 66 48 70Q45 74 44 81L44 81Q43 83 43 85L43 85Q43 92 48 96Q52 99 58 99L58 99Q63 99 67 97Q71 95 75 91Q78 87 79 81L79 81Q79 78 79 76L79 76Q79 69 75 66Q71 62 65 62L65 62ZM113 61Q121 61 125 65Q129 69 129 76L129 76Q129 78 129 81L129 81Q128 87 124 91Q121 96 117 98Q112 101 106 101L106 101Q100 101 96 97Q92 93 91 87L91 87L86 118L84 118L94 61L96 61L93 74Q96 68 101 64Q107 61 113 61L113 61ZM106 99Q114 99 120 94Q126 89 127 81L127 81Q128 78 128 76L128 76Q128 69 124 66Q120 62 113 62L113 62Q108 62 104 64Q99 67 96 71Q93 75 92 81L92 81Q92 82 92 85L92 85Q92 91 96 95Q100 99 106 99L106 99ZM162 61Q169 61 173 65Q177 69 177 76L177 76Q177 78 177 81L177 81Q176 87 173 91Q170 96 165 98Q160 101 155 101L155 101Q148 101 144 97Q140 93 139 87L139 87L134 118L132 118L143 61L144 61L142 74Q144 68 150 64Q155 61 162 61L162 61ZM155 99Q163 99 168 94Q174 89 176 81L176 81Q176 78 176 76L176 76Q176 69 172 66Q168 62 161 62L161 62Q156 62 152 64Q148 67 145 71Q141 75 141 81L141 81Q140 82 140 85L140 85Q140 91 144 95Q148 99 155 99L155 99ZM192 50Q192 49 192 48Q193 47 194 47L194 47Q194 47 195 48Q195 48 195 49L195 49Q195 50 195 51Q194 51 193 51L193 51Q192 51 192 51Q192 50 192 50L192 50ZM191 61L192 61L185 100L184 100L191 61ZM221 60Q227 60 231 63Q234 67 234 73L234 73Q234 75 234 77L234 77L230 100L228 100L232 77Q233 75 233 73L233 73Q233 67 230 64Q227 62 221 62L221 62Q214 62 209 66Q204 70 203 79L203 79L199 100L197 100L204 61L206 61L204 72Q206 66 211 63Q216 60 221 60L221 60ZM257 61Q264 61 267 64Q270 67 270 72L270 72L269 72Q269 68 266 65Q263 62 257 62L257 62Q252 62 249 65Q246 67 246 71L246 71Q246 74 247 75Q249 77 251 78Q253 78 256 79L256 79Q260 81 262 82Q264 83 266 84Q267 86 267 89L267 89Q267 90 267 92L267 92Q266 96 263 98Q260 101 255 101L255 101Q249 101 245 97Q241 94 241 89L241 89L243 89Q242 93 246 96Q249 99 256 99L256 99Q260 99 262 97Q265 95 266 92L266 92Q266 91 266 90L266 90Q266 87 264 85Q263 84 261 83Q259 82 255 81L255 81Q252 80 250 79Q248 78 246 76Q245 74 245 72L245 72Q245 71 245 69L245 69Q246 65 249 63Q252 61 257 61L257 61ZM305 63L300 90Q300 92 300 93L300 93Q300 96 301 97Q303 99 307 99L307 99L311 99L310 100L306 100Q302 100 300 98Q298 97 298 93L298 93Q298 92 299 90L299 90L303 63L297 63L297 61L304 61L305 51L307 51L305 61L317 61L317 63L305 63ZM344 60Q350 60 354 63Q357 67 357 73L357 73Q357 75 357 77L357 77L353 100L352 100L356 77Q356 75 356 73L356 73Q356 67 353 65Q350 62 344 62L344 62Q337 62 333 66Q328 70 326 78L326 78L322 100L321 100L330 47L331 47L327 72Q329 66 334 63Q339 60 344 60L344 60ZM372 50Q372 49 373 48Q374 47 374 47L374 47Q375 47 376 48Q376 48 376 49L376 49Q376 50 375 51Q375 51 374 51L374 51Q373 51 373 51Q372 50 372 50L372 50ZM371 61L373 61L366 100L364 100L371 61ZM402 60Q408 60 411 63Q415 67 415 73L415 73Q415 75 415 77L415 77L410 100L409 100L413 77Q414 75 414 73L414 73Q414 67 410 64Q407 62 402 62L402 62Q395 62 390 66Q385 70 383 79L383 79L380 100L378 100L385 61L386 61L385 72Q387 66 392 63Q396 60 402 60L402 60ZM451 50Q451 49 452 48Q452 47 453 47L453 47Q454 47 454 48Q455 48 455 49L455 49Q455 50 454 51Q453 51 453 51L453 51Q452 51 451 51Q451 50 451 50L451 50ZM450 61L452 61L445 100L443 100L450 61ZM466 63L461 90Q461 92 461 93L461 93Q461 96 462 97Q464 99 468 99L468 99L472 99L471 100L467 100Q463 100 461 98Q459 97 459 93L459 93Q459 92 460 90L460 90L464 63L458 63L458 61L465 61L466 51L468 51L466 61L478 61L478 63L466 63ZM505 61Q512 61 516 64Q520 68 521 74L521 74L523 61L524 61L517 100L516 100L518 87Q516 93 510 97Q505 101 498 101L498 101Q491 101 487 96Q483 92 483 85L483 85Q483 83 483 81L483 81Q484 74 487 70Q490 65 495 63Q500 61 505 61L505 61ZM505 62Q497 62 492 67Q486 72 484 81L484 81Q484 83 484 85L484 85Q484 92 488 95Q492 99 499 99L499 99Q504 99 508 97Q512 95 515 90Q518 86 519 81L519 81Q520 79 520 76L520 76Q520 70 516 66Q512 62 505 62L505 62ZM539 47L541 47L531 100L530 100L539 47ZM551 50Q551 49 552 48Q552 47 553 47L553 47Q554 47 554 48Q555 48 555 49L555 49Q555 50 554 51Q553 51 553 51L553 51Q552 51 551 51Q551 50 551 50L551 50ZM550 61L552 61L545 100L543 100L550 61ZM581 61Q588 61 592 64Q596 68 596 74L596 74L595 74Q595 69 591 65Q587 62 581 62L581 62Q576 62 572 64Q567 66 564 70Q561 74 560 81L560 81Q560 83 560 85L560 85Q560 92 564 96Q568 99 574 99L574 99Q581 99 586 96Q591 93 593 87L593 87L594 87Q592 93 587 97Q581 101 574 101L574 101Q567 101 562 96Q558 92 558 85L558 85Q558 83 559 81L559 81Q560 74 563 70Q566 65 571 63Q575 61 581 61L581 61Z"/></svg>