<svg xmlns="http://www.w3.org/2000/svg" viewBox="-0.12 -8.290000000000001 42.45 10.990000000000002"><path d="M3.37-2.25L2.49-2.25L2.10 0L-0.12 0L1.12-7.08L4.22-7.08Q5.36-7.08 5.95-6.57Q6.54-6.06 6.54-5.17L6.54-5.17Q6.54-4.95 6.49-4.65L6.49-4.65Q6.37-3.98 5.96-3.44Q5.56-2.89 4.90-2.57Q4.23-2.25 3.37-2.25L3.37-2.25ZM3.43-4Q4.12-4 4.24-4.65L4.24-4.65Q4.25-4.71 4.25-4.81L4.25-4.81Q4.25-5.30 3.66-5.30L3.66-5.30L3.03-5.30L2.80-4L3.43-4ZM10.13-5.71Q10.89-5.71 11.48-5.42Q12.07-5.13 12.39-4.58Q12.72-4.03 12.72-3.28L12.72-3.28Q12.72-2.97 12.66-2.62L12.66-2.62Q12.51-1.80 12.03-1.19Q11.54-0.58 10.82-0.26Q10.10 0.07 9.27 0.07L9.27 0.07Q8.49 0.07 7.90-0.23Q7.30-0.52 6.97-1.07Q6.64-1.62 6.64-2.37L6.64-2.37Q6.64-2.68 6.70-3.02L6.70-3.02Q6.85-3.84 7.34-4.45Q7.83-5.06 8.56-5.38Q9.29-5.71 10.13-5.71L10.13-5.71ZM9.85-3.79Q9.54-3.79 9.29-3.54Q9.04-3.30 8.95-2.82L8.95-2.82Q8.92-2.66 8.92-2.53L8.92-2.53Q8.92-2.19 9.08-2.02Q9.24-1.85 9.51-1.85L9.51-1.85Q9.82-1.85 10.07-2.10Q10.32-2.34 10.41-2.82L10.41-2.82Q10.44-2.97 10.44-3.11L10.44-3.11Q10.44-3.45 10.28-3.62Q10.11-3.79 9.85-3.79L9.85-3.79ZM17.64-5.71Q18.49-5.71 19.01-5.14Q19.53-4.57 19.53-3.56L19.53-3.56Q19.53-3.18 19.46-2.82L19.46-2.82Q19.30-1.93 18.88-1.28Q18.46-0.62 17.87-0.28Q17.28 0.07 16.62 0.07L16.62 0.07Q16.07 0.07 15.72-0.15Q15.36-0.38 15.22-0.77L15.22-0.77L14.61 2.70L12.39 2.70L13.86-5.64L16.08-5.64L15.94-4.87Q16.22-5.26 16.66-5.49Q17.09-5.71 17.64-5.71L17.64-5.71ZM16.22-1.87Q16.58-1.87 16.86-2.12Q17.13-2.37 17.21-2.82L17.21-2.82Q17.23-2.91 17.23-3.06L17.23-3.06Q17.23-3.40 17.05-3.58Q16.87-3.77 16.56-3.77L16.56-3.77Q16.20-3.77 15.93-3.52Q15.65-3.27 15.57-2.82L15.57-2.82Q15.55-2.73 15.55-2.58L15.55-2.58Q15.55-2.24 15.73-2.06Q15.91-1.87 16.22-1.87L16.22-1.87ZM24.45-5.71Q25.30-5.71 25.82-5.14Q26.34-4.57 26.34-3.56L26.34-3.56Q26.34-3.18 26.27-2.82L26.27-2.82Q26.11-1.93 25.69-1.28Q25.27-0.62 24.68-0.28Q24.09 0.07 23.43 0.07L23.43 0.07Q22.88 0.07 22.52-0.15Q22.17-0.38 22.03-0.77L22.03-0.77L21.42 2.70L19.20 2.70L20.67-5.64L22.89-5.64L22.75-4.87Q23.03-5.26 23.46-5.49Q23.90-5.71 24.45-5.71L24.45-5.71ZM23.03-1.87Q23.39-1.87 23.66-2.12Q23.94-2.37 24.02-2.82L24.02-2.82Q24.04-2.91 24.04-3.06L24.04-3.06Q24.04-3.40 23.86-3.58Q23.68-3.77 23.37-3.77L23.37-3.77Q23.01-3.77 22.73-3.52Q22.46-3.27 22.38-2.82L22.38-2.82Q22.36-2.73 22.36-2.58L22.36-2.58Q22.36-2.24 22.54-2.06Q22.72-1.87 23.03-1.87L23.03-1.87ZM27.57-7Q27.57-7.35 27.77-7.65Q27.96-7.94 28.31-8.12Q28.65-8.29 29.07-8.29L29.07-8.29Q29.58-8.29 29.87-8.04Q30.16-7.78 30.16-7.38L30.16-7.38Q30.16-7.03 29.97-6.74Q29.78-6.44 29.44-6.27Q29.10-6.09 28.68-6.09L28.68-6.09Q28.16-6.09 27.87-6.34Q27.57-6.60 27.57-7L27.57-7ZM27.48-5.64L29.70-5.64L28.71 0L26.49 0L27.48-5.64ZM34.64-5.68Q35.46-5.68 35.90-5.21Q36.34-4.73 36.34-3.89L36.34-3.89Q36.34-3.60 36.28-3.27L36.28-3.27L35.70 0L33.49 0L34.02-2.99Q34.04-3.13 34.04-3.20L34.04-3.20Q34.04-3.51 33.87-3.69Q33.69-3.86 33.38-3.86L33.38-3.86Q33.01-3.86 32.76-3.63Q32.51-3.39 32.44-2.99L32.44-2.99L32.44-3.04L31.91 0L29.69 0L30.68-5.64L32.90-5.64L32.75-4.78Q33.09-5.18 33.56-5.43Q34.04-5.68 34.64-5.68L34.64-5.68ZM39.64-5.71Q40.90-5.71 41.57-5.16Q42.23-4.60 42.33-3.69L42.33-3.69L40.16-3.69Q40.11-4.17 39.45-4.17L39.45-4.17Q39.25-4.17 39.14-4.12Q39.02-4.07 39.02-3.94L39.02-3.94Q39.02-3.80 39.24-3.71Q39.45-3.63 39.91-3.52L39.91-3.52Q40.56-3.36 40.99-3.20Q41.42-3.03 41.75-2.69Q42.07-2.35 42.07-1.80L42.07-1.80Q42.07-1.60 42.03-1.43L42.03-1.43Q41.90-0.76 41.24-0.35Q40.57 0.07 39.43 0.07L39.43 0.07Q38.24 0.07 37.51-0.46Q36.78-0.98 36.71-1.95L36.71-1.95L38.88-1.95Q38.86-1.68 39.07-1.57Q39.28-1.46 39.61-1.46L39.61-1.46Q39.99-1.46 40.04-1.68L40.04-1.68Q40.07-1.84 39.87-1.93Q39.66-2.02 39.16-2.13L39.16-2.13Q38.53-2.27 38.11-2.43Q37.68-2.59 37.36-2.93Q37.04-3.26 37.04-3.81L37.04-3.81Q37.04-3.93 37.08-4.19L37.08-4.19Q37.19-4.85 37.85-5.28Q38.51-5.71 39.64-5.71L39.64-5.71Z"/></svg>