<svg xmlns="http://www.w3.org/2000/svg" viewBox="6.120000000000001 46.71999999999999 409.32000000000005 71.56800000000001"><path d="M18.94 77.18L7.56 77.18L7.56 100L6.12 100L6.12 49.31L18.94 49.31Q27.29 49.31 31.21 52.98Q35.14 56.66 35.14 63.28L35.14 63.28Q35.14 70.26 31.03 73.72Q26.93 77.18 18.94 77.18L18.94 77.18ZM18.94 75.66Q26.71 75.66 30.20 72.42Q33.70 69.18 33.70 63.28L33.70 63.28Q33.70 57.09 30.24 53.92Q26.78 50.75 18.94 50.75L18.94 50.75L7.56 50.75L7.56 75.66L18.94 75.66ZM61.34 60.62Q66.74 60.62 71.06 63.03Q75.38 65.44 77.83 69.94Q80.28 74.44 80.28 80.56L80.28 80.56Q80.28 86.68 77.83 91.18Q75.38 95.68 71.06 98.09Q66.74 100.50 61.34 100.50L61.34 100.50Q55.94 100.50 51.62 98.09Q47.30 95.68 44.82 91.18Q42.34 86.68 42.34 80.56L42.34 80.56Q42.34 74.44 44.82 69.94Q47.30 65.44 51.62 63.03Q55.94 60.62 61.34 60.62L61.34 60.62ZM61.34 61.91Q56.66 61.91 52.67 63.96Q48.67 66.02 46.22 70.23Q43.78 74.44 43.78 80.56L43.78 80.56Q43.78 86.68 46.22 90.89Q48.67 95.10 52.67 97.16Q56.66 99.21 61.34 99.21L61.34 99.21Q66.02 99.21 69.98 97.16Q73.94 95.10 76.39 90.93Q78.84 86.75 78.84 80.56L78.84 80.56Q78.84 74.37 76.39 70.19Q73.94 66.02 69.98 63.96Q66.02 61.91 61.34 61.91L61.34 61.91ZM109.66 60.62Q115.20 60.62 119.52 63.03Q123.84 65.44 126.22 69.94Q128.59 74.44 128.59 80.56L128.59 80.56Q128.59 86.68 126.22 91.18Q123.84 95.68 119.52 98.09Q115.20 100.50 109.66 100.50L109.66 100.50Q102.96 100.50 98.32 96.90Q93.67 93.30 92.09 87.47L92.09 87.47L92.09 118.29L90.72 118.29L90.72 61.12L92.09 61.12L92.09 73.65Q93.67 67.82 98.32 64.22Q102.96 60.62 109.66 60.62L109.66 60.62ZM109.66 61.91Q104.62 61.91 100.62 64.25Q96.62 66.59 94.36 70.80Q92.09 75.02 92.09 80.56L92.09 80.56Q92.09 86.10 94.36 90.32Q96.62 94.53 100.62 96.87Q104.62 99.21 109.66 99.21L109.66 99.21Q114.98 99.21 118.91 96.98Q122.83 94.74 124.99 90.53Q127.15 86.32 127.15 80.56L127.15 80.56Q127.15 74.80 124.99 70.59Q122.83 66.38 118.91 64.14Q114.98 61.91 109.66 61.91L109.66 61.91ZM157.97 60.62Q163.51 60.62 167.83 63.03Q172.15 65.44 174.53 69.94Q176.90 74.44 176.90 80.56L176.90 80.56Q176.90 86.68 174.53 91.18Q172.15 95.68 167.83 98.09Q163.51 100.50 157.97 100.50L157.97 100.50Q151.27 100.50 146.63 96.90Q141.98 93.30 140.40 87.47L140.40 87.47L140.40 118.29L139.03 118.29L139.03 61.12L140.40 61.12L140.40 73.65Q141.98 67.82 146.63 64.22Q151.27 60.62 157.97 60.62L157.97 60.62ZM157.97 61.91Q152.93 61.91 148.93 64.25Q144.94 66.59 142.67 70.80Q140.40 75.02 140.40 80.56L140.40 80.56Q140.40 86.10 142.67 90.32Q144.94 94.53 148.93 96.87Q152.93 99.21 157.97 99.21L157.97 99.21Q163.30 99.21 167.22 96.98Q171.14 94.74 173.30 90.53Q175.46 86.32 175.46 80.56L175.46 80.56Q175.46 74.80 173.30 70.59Q171.14 66.38 167.22 64.14Q163.30 61.91 157.97 61.91L157.97 61.91ZM186.19 49.24Q186.19 48.38 186.73 47.84Q187.27 47.30 188.06 47.30L188.06 47.30Q188.86 47.30 189.40 47.84Q189.94 48.38 189.94 49.24L189.94 49.24Q189.94 50.10 189.40 50.64Q188.86 51.18 188.06 51.18L188.06 51.18Q187.27 51.18 186.73 50.64Q186.19 50.10 186.19 49.24L186.19 49.24ZM187.34 61.12L188.78 61.12L188.78 100L187.34 100L187.34 61.12ZM217.73 60.26Q224.57 60.26 228.96 64.50Q233.35 68.75 233.35 77.32L233.35 77.32L233.35 100L231.98 100L231.98 77.18Q231.98 69.54 228.17 65.55Q224.35 61.55 217.73 61.55L217.73 61.55Q210.82 61.55 206.64 66.05Q202.46 70.55 202.46 79.34L202.46 79.34L202.46 100L201.02 100L201.02 61.12L202.46 61.12L202.46 72.06Q203.83 66.16 208.04 63.21Q212.26 60.26 217.73 60.26L217.73 60.26ZM255.67 60.62Q261.43 60.62 265.03 63.78Q268.63 66.95 269.28 72.50L269.28 72.50L267.84 72.50Q267.34 68.03 264.24 64.97Q261.14 61.91 255.67 61.91L255.67 61.91Q250.85 61.91 248.08 64.32Q245.30 66.74 245.30 70.70L245.30 70.70Q245.30 73.65 246.85 75.34Q248.40 77.03 250.63 77.86Q252.86 78.69 256.75 79.62L256.75 79.62Q261 80.63 263.52 81.60Q266.04 82.58 267.80 84.70Q269.57 86.82 269.57 90.42L269.57 90.42Q269.57 94.89 266.44 97.70Q263.30 100.50 258.26 100.50L258.26 100.50Q252.07 100.50 248.08 97.30Q244.08 94.10 243.43 88.62L243.43 88.62L244.87 88.62Q245.30 93.16 248.80 96.18Q252.29 99.21 258.34 99.21L258.34 99.21Q262.94 99.21 265.54 96.76Q268.13 94.31 268.13 90.42L268.13 90.42Q268.13 87.33 266.54 85.49Q264.96 83.66 262.58 82.76Q260.21 81.86 256.32 80.99L256.32 80.99Q252.22 80.06 249.73 79.08Q247.25 78.11 245.56 76.13Q243.86 74.15 243.86 70.70L243.86 70.70Q243.86 66.09 247.10 63.35Q250.34 60.62 255.67 60.62L255.67 60.62ZM316.22 62.56L303.98 62.56L303.98 89.78Q303.98 93.30 304.78 95.18Q305.57 97.05 307.30 97.80Q309.02 98.56 312.12 98.56L312.12 98.56L316.22 98.56L316.22 100L311.98 100Q306.94 100 304.74 97.70Q302.54 95.39 302.54 89.78L302.54 89.78L302.54 62.56L296.21 62.56L296.21 61.12L302.54 61.12L302.54 51.18L303.98 51.18L303.98 61.12L316.22 61.12L316.22 62.56ZM341.93 60.26Q348.77 60.26 353.16 64.50Q357.55 68.75 357.55 77.32L357.55 77.32L357.55 100L356.18 100L356.18 77.18Q356.18 69.54 352.37 65.55Q348.55 61.55 341.93 61.55L341.93 61.55Q335.02 61.55 330.84 66.05Q326.66 70.55 326.66 79.34L326.66 79.34L326.66 100L325.22 100L325.22 46.72L326.66 46.72L326.66 72.06Q328.03 66.16 332.24 63.21Q336.46 60.26 341.93 60.26L341.93 60.26ZM368.28 49.24Q368.28 48.38 368.82 47.84Q369.36 47.30 370.15 47.30L370.15 47.30Q370.94 47.30 371.48 47.84Q372.02 48.38 372.02 49.24L372.02 49.24Q372.02 50.10 371.48 50.64Q370.94 51.18 370.15 51.18L370.15 51.18Q369.36 51.18 368.82 50.64Q368.28 50.10 368.28 49.24L368.28 49.24ZM369.43 61.12L370.87 61.12L370.87 100L369.43 100L369.43 61.12ZM399.82 60.26Q406.66 60.26 411.05 64.50Q415.44 68.75 415.44 77.32L415.44 77.32L415.44 100L414.07 100L414.07 77.18Q414.07 69.54 410.26 65.55Q406.44 61.55 399.82 61.55L399.82 61.55Q392.90 61.55 388.73 66.05Q384.55 70.55 384.55 79.34L384.55 79.34L384.55 100L383.11 100L383.11 61.12L384.55 61.12L384.55 72.06Q385.92 66.16 390.13 63.21Q394.34 60.26 399.82 60.26L399.82 60.26Z"/></svg>