<svg xmlns="http://www.w3.org/2000/svg" viewBox="4.968000000000001 43.983999999999995 603.2880000000002 74.88000000000001"><path d="M22.25 80.27L13.18 80.27L13.18 100L4.97 100L4.97 49.17L22.25 49.17Q31.03 49.17 35.46 53.34Q39.89 57.52 39.89 64.79L39.89 64.79Q39.89 71.99 35.35 76.13Q30.82 80.27 22.25 80.27L22.25 80.27ZM21.38 73.58Q31.54 73.58 31.54 64.79L31.54 64.79Q31.54 60.47 29.12 58.20Q26.71 55.94 21.38 55.94L21.38 55.94L13.18 55.94L13.18 73.58L21.38 73.58ZM65.23 59.82Q70.99 59.82 75.60 62.27Q80.21 64.72 82.80 69.33Q85.39 73.94 85.39 80.13L85.39 80.13Q85.39 86.39 82.80 91Q80.21 95.61 75.60 98.06Q70.99 100.50 65.23 100.50L65.23 100.50Q59.47 100.50 54.90 98.06Q50.33 95.61 47.70 90.96Q45.07 86.32 45.07 80.13L45.07 80.13Q45.07 73.94 47.70 69.33Q50.33 64.72 54.90 62.27Q59.47 59.82 65.23 59.82L65.23 59.82ZM65.23 66.95Q62.06 66.95 59.40 68.39Q56.74 69.83 55.12 72.82Q53.50 75.81 53.50 80.13L53.50 80.13Q53.50 84.52 55.12 87.47Q56.74 90.42 59.40 91.86Q62.06 93.30 65.23 93.30L65.23 93.30Q68.40 93.30 71.06 91.86Q73.73 90.42 75.35 87.47Q76.97 84.52 76.97 80.13L76.97 80.13Q76.97 75.81 75.35 72.82Q73.73 69.83 71.06 68.39Q68.40 66.95 65.23 66.95L65.23 66.95ZM116.06 59.82Q121.25 59.82 125.32 62.27Q129.38 64.72 131.69 69.33Q133.99 73.94 133.99 80.13L133.99 80.13Q133.99 86.39 131.69 91Q129.38 95.61 125.32 98.06Q121.25 100.50 116.06 100.50L116.06 100.50Q110.66 100.50 106.85 97.84Q103.03 95.18 101.52 90.78L101.52 90.78L101.52 118.86L93.31 118.86L93.31 60.33L101.52 60.33L101.52 69.54Q103.03 65.15 106.85 62.49Q110.66 59.82 116.06 59.82L116.06 59.82ZM113.54 67.02Q110.09 67.02 107.35 68.64Q104.62 70.26 103.03 73.25Q101.45 76.24 101.45 80.13L101.45 80.13Q101.45 84.09 103.03 87.04Q104.62 89.99 107.35 91.61Q110.09 93.23 113.54 93.23L113.54 93.23Q119.02 93.23 122.33 89.74Q125.64 86.25 125.64 80.13L125.64 80.13Q125.64 74.08 122.33 70.55Q119.02 67.02 113.54 67.02L113.54 67.02ZM164.66 59.82Q169.85 59.82 173.92 62.27Q177.98 64.72 180.29 69.33Q182.59 73.94 182.59 80.13L182.59 80.13Q182.59 86.39 180.29 91Q177.98 95.61 173.92 98.06Q169.85 100.50 164.66 100.50L164.66 100.50Q159.26 100.50 155.45 97.84Q151.63 95.18 150.12 90.78L150.12 90.78L150.12 118.86L141.91 118.86L141.91 60.33L150.12 60.33L150.12 69.54Q151.63 65.15 155.45 62.49Q159.26 59.82 164.66 59.82L164.66 59.82ZM162.14 67.02Q158.69 67.02 155.95 68.64Q153.22 70.26 151.63 73.25Q150.05 76.24 150.05 80.13L150.05 80.13Q150.05 84.09 151.63 87.04Q153.22 89.99 155.95 91.61Q158.69 93.23 162.14 93.23L162.14 93.23Q167.62 93.23 170.93 89.74Q174.24 86.25 174.24 80.13L174.24 80.13Q174.24 74.08 170.93 70.55Q167.62 67.02 162.14 67.02L162.14 67.02ZM189.36 48.81Q189.36 46.72 190.80 45.35Q192.24 43.98 194.62 43.98L194.62 43.98Q196.99 43.98 198.47 45.35Q199.94 46.72 199.94 48.81L199.94 48.81Q199.94 50.90 198.47 52.19Q196.99 53.49 194.62 53.49L194.62 53.49Q192.24 53.49 190.80 52.19Q189.36 50.90 189.36 48.81L189.36 48.81ZM190.51 60.33L198.72 60.33L198.72 100L190.51 100L190.51 60.33ZM230.83 59.68Q237.74 59.68 241.92 64.14Q246.10 68.61 246.10 76.89L246.10 76.89L246.10 100L237.89 100L237.89 77.75Q237.89 72.42 235.15 69.51Q232.42 66.59 227.66 66.59L227.66 66.59Q222.77 66.59 219.82 69.72Q216.86 72.86 216.86 78.90L216.86 78.90L216.86 100L208.66 100L208.66 60.33L216.86 60.33L216.86 69.04Q218.45 64.58 222.19 62.13Q225.94 59.68 230.83 59.68L230.83 59.68ZM268.70 59.82Q275.69 59.82 279.90 63.39Q284.11 66.95 285.05 72.93L285.05 72.93L277.27 72.93Q276.77 69.69 274.50 67.71Q272.23 65.73 268.49 65.73L268.49 65.73Q265.39 65.73 263.70 67.20Q262.01 68.68 262.01 71.20L262.01 71.20Q262.01 73.07 263.23 74.22Q264.46 75.38 266.29 76.02Q268.13 76.67 271.51 77.46L271.51 77.46Q275.98 78.47 278.75 79.55Q281.52 80.63 283.50 82.97Q285.48 85.31 285.48 89.34L285.48 89.34Q285.48 94.31 281.70 97.41Q277.92 100.50 271.51 100.50L271.51 100.50Q264.10 100.50 259.52 97.05Q254.95 93.59 254.02 87.40L254.02 87.40L262.01 87.40Q262.37 90.64 264.89 92.66Q267.41 94.67 271.51 94.67L271.51 94.67Q274.46 94.67 276.16 93.12Q277.85 91.58 277.85 89.20L277.85 89.20Q277.85 87.11 276.55 85.89Q275.26 84.66 273.31 83.98Q271.37 83.30 267.98 82.58L267.98 82.58Q263.66 81.57 260.96 80.56Q258.26 79.55 256.36 77.28Q254.45 75.02 254.45 71.13L254.45 71.13Q254.45 66.09 258.23 62.96Q262.01 59.82 268.70 59.82L268.70 59.82ZM360.14 59.68Q367.20 59.68 371.41 64.14Q375.62 68.61 375.62 76.89L375.62 76.89L375.62 100L367.42 100L367.42 77.75Q367.42 72.57 364.82 69.72Q362.23 66.88 357.70 66.88L357.70 66.88Q352.87 66.88 350.03 69.94Q347.18 73 347.18 78.90L347.18 78.90L347.18 100L338.98 100L338.98 77.75Q338.98 72.57 336.38 69.72Q333.79 66.88 329.26 66.88L329.26 66.88Q324.43 66.88 321.59 69.94Q318.74 73 318.74 78.90L318.74 78.90L318.74 100L310.54 100L310.54 60.33L318.74 60.33L318.74 68.61Q320.26 64.29 323.78 61.98Q327.31 59.68 332.06 59.68L332.06 59.68Q337.03 59.68 340.67 62.13Q344.30 64.58 345.96 69.18L345.96 69.18Q347.69 64.72 351.50 62.20Q355.32 59.68 360.14 59.68L360.14 59.68ZM422.06 78.26Q422.06 80.27 421.78 81.78L421.78 81.78L391.25 81.78Q391.46 87.90 394.63 90.86Q397.80 93.81 402.48 93.81L402.48 93.81Q406.58 93.81 409.43 91.72Q412.27 89.63 412.92 86.18L412.92 86.18L421.70 86.18Q420.91 90.35 418.39 93.59Q415.87 96.83 411.84 98.67Q407.81 100.50 402.84 100.50L402.84 100.50Q397.08 100.50 392.65 98.06Q388.22 95.61 385.70 91Q383.18 86.39 383.18 80.13L383.18 80.13Q383.18 73.94 385.70 69.33Q388.22 64.72 392.65 62.27Q397.08 59.82 402.84 59.82L402.84 59.82Q408.67 59.82 413.03 62.24Q417.38 64.65 419.72 68.86Q422.06 73.07 422.06 78.26L422.06 78.26ZM413.78 78.04Q413.93 74.15 412.45 71.52Q410.98 68.90 408.42 67.64Q405.86 66.38 402.84 66.38L402.84 66.38Q398.02 66.38 394.78 69.33Q391.54 72.28 391.25 78.04L391.25 78.04L413.78 78.04ZM445.90 59.82Q451.30 59.82 455.11 62.49Q458.93 65.15 460.44 69.54L460.44 69.54L460.44 46.72L468.72 46.72L468.72 100L460.44 100L460.44 90.78Q458.93 95.18 455.11 97.84Q451.30 100.50 445.90 100.50L445.90 100.50Q440.71 100.50 436.64 98.06Q432.58 95.61 430.27 91Q427.97 86.39 427.97 80.13L427.97 80.13Q427.97 73.94 430.27 69.33Q432.58 64.72 436.64 62.27Q440.71 59.82 445.90 59.82L445.90 59.82ZM448.42 67.02Q442.94 67.02 439.67 70.52Q436.39 74.01 436.39 80.13L436.39 80.13Q436.39 86.25 439.67 89.74Q442.94 93.23 448.42 93.23L448.42 93.23Q451.87 93.23 454.61 91.61Q457.34 89.99 458.93 87.04Q460.51 84.09 460.51 80.13L460.51 80.13Q460.51 76.24 458.93 73.25Q457.34 70.26 454.61 68.64Q451.87 67.02 448.42 67.02L448.42 67.02ZM477.43 48.81Q477.43 46.72 478.87 45.35Q480.31 43.98 482.69 43.98L482.69 43.98Q485.06 43.98 486.54 45.35Q488.02 46.72 488.02 48.81L488.02 48.81Q488.02 50.90 486.54 52.19Q485.06 53.49 482.69 53.49L482.69 53.49Q480.31 53.49 478.87 52.19Q477.43 50.90 477.43 48.81L477.43 48.81ZM478.58 60.33L486.79 60.33L486.79 100L478.58 100L478.58 60.33ZM525.02 60.33L533.30 60.33L533.30 100L525.02 100L525.02 91.36Q523.51 95.75 519.77 98.16Q516.02 100.58 511.06 100.58L511.06 100.58Q504.14 100.58 499.97 96.11Q495.79 91.65 495.79 83.37L495.79 83.37L495.79 60.33L504.00 60.33L504.00 82.50Q504.00 87.90 506.74 90.82Q509.47 93.74 514.22 93.74L514.22 93.74Q519.12 93.74 522.07 90.57Q525.02 87.40 525.02 81.35L525.02 81.35L525.02 60.33ZM592.78 59.68Q599.83 59.68 604.04 64.14Q608.26 68.61 608.26 76.89L608.26 76.89L608.26 100L600.05 100L600.05 77.75Q600.05 72.57 597.46 69.72Q594.86 66.88 590.33 66.88L590.33 66.88Q585.50 66.88 582.66 69.94Q579.82 73 579.82 78.90L579.82 78.90L579.82 100L571.61 100L571.61 77.75Q571.61 72.57 569.02 69.72Q566.42 66.88 561.89 66.88L561.89 66.88Q557.06 66.88 554.22 69.94Q551.38 73 551.38 78.90L551.38 78.90L551.38 100L543.17 100L543.17 60.33L551.38 60.33L551.38 68.61Q552.89 64.29 556.42 61.98Q559.94 59.68 564.70 59.68L564.70 59.68Q569.66 59.68 573.30 62.13Q576.94 64.58 578.59 69.18L578.59 69.18Q580.32 64.72 584.14 62.20Q587.95 59.68 592.78 59.68L592.78 59.68Z"/></svg>