<svg xmlns="http://www.w3.org/2000/svg" viewBox="3.8880000000000003 41.175999999999995 449.4240000000001 78.12"><path d="M25.06 82.94L18.07 82.94L18.07 100L3.89 100L3.89 49.02L25.06 49.02Q34.27 49.02 39.13 53.67Q43.99 58.31 43.99 66.09L43.99 66.09Q43.99 70.91 41.83 74.73Q39.67 78.54 35.39 80.74Q31.10 82.94 25.06 82.94L25.06 82.94ZM23.47 71.78Q29.66 71.78 29.66 66.09L29.66 66.09Q29.66 60.47 23.47 60.47L23.47 60.47L18.07 60.47L18.07 71.78L23.47 71.78ZM68.62 59.10Q74.66 59.10 79.45 61.59Q84.24 64.07 86.98 68.79Q89.71 73.50 89.71 79.77L89.71 79.77Q89.71 86.10 86.98 90.78Q84.24 95.46 79.45 97.98Q74.66 100.50 68.62 100.50L68.62 100.50Q62.57 100.50 57.74 97.98Q52.92 95.46 50.18 90.78Q47.45 86.10 47.45 79.77L47.45 79.77Q47.45 73.43 50.18 68.75Q52.92 64.07 57.74 61.59Q62.57 59.10 68.62 59.10L68.62 59.10ZM68.62 71.34Q65.66 71.34 63.72 73.50Q61.78 75.66 61.78 79.77L61.78 79.77Q61.78 83.94 63.72 86.10Q65.66 88.26 68.62 88.26L68.62 88.26Q71.50 88.26 73.44 86.07Q75.38 83.87 75.38 79.77L75.38 79.77Q75.38 75.66 73.44 73.50Q71.50 71.34 68.62 71.34L68.62 71.34ZM121.54 59.10Q126.36 59.10 130.25 61.59Q134.14 64.07 136.37 68.75Q138.60 73.43 138.60 79.77L138.60 79.77Q138.60 86.10 136.37 90.82Q134.14 95.54 130.25 98.02Q126.36 100.50 121.54 100.50L121.54 100.50Q117.29 100.50 114.19 98.67Q111.10 96.83 109.58 93.59L109.58 93.59L109.58 119.30L95.40 119.30L95.40 59.61L109.58 59.61L109.58 66.02Q111.10 62.78 114.19 60.94Q117.29 59.10 121.54 59.10L121.54 59.10ZM116.86 71.49Q113.69 71.49 111.60 73.72Q109.51 75.95 109.51 79.77L109.51 79.77Q109.51 83.66 111.60 85.89Q113.69 88.12 116.86 88.12L116.86 88.12Q120.17 88.12 122.22 85.92Q124.27 83.73 124.27 79.77L124.27 79.77Q124.27 75.88 122.22 73.68Q120.17 71.49 116.86 71.49L116.86 71.49ZM170.42 59.10Q175.25 59.10 179.14 61.59Q183.02 64.07 185.26 68.75Q187.49 73.43 187.49 79.77L187.49 79.77Q187.49 86.10 185.26 90.82Q183.02 95.54 179.14 98.02Q175.25 100.50 170.42 100.50L170.42 100.50Q166.18 100.50 163.08 98.67Q159.98 96.83 158.47 93.59L158.47 93.59L158.47 119.30L144.29 119.30L144.29 59.61L158.47 59.61L158.47 66.02Q159.98 62.78 163.08 60.94Q166.18 59.10 170.42 59.10L170.42 59.10ZM165.74 71.49Q162.58 71.49 160.49 73.72Q158.40 75.95 158.40 79.77L158.40 79.77Q158.40 83.66 160.49 85.89Q162.58 88.12 165.74 88.12L165.74 88.12Q169.06 88.12 171.11 85.92Q173.16 83.73 173.16 79.77L173.16 79.77Q173.16 75.88 171.11 73.68Q169.06 71.49 165.74 71.49L165.74 71.49ZM192.02 48.45Q192.02 45.28 194.33 43.23Q196.63 41.18 200.38 41.18L200.38 41.18Q204.12 41.18 206.35 43.23Q208.58 45.28 208.58 48.45L208.58 48.45Q208.58 51.47 206.32 53.49Q204.05 55.50 200.38 55.50L200.38 55.50Q196.63 55.50 194.33 53.49Q192.02 51.47 192.02 48.45L192.02 48.45ZM193.18 59.61L207.36 59.61L207.36 100L193.18 100L193.18 59.61ZM242.21 59.25Q249.19 59.25 253.15 63.89Q257.11 68.54 257.11 76.53L257.11 76.53L257.11 100L243.07 100L243.07 78.33Q243.07 74.80 241.24 72.82Q239.40 70.84 236.30 70.84L236.30 70.84Q233.14 70.84 231.26 72.89Q229.39 74.94 229.39 78.54L229.39 78.54L229.39 100L215.21 100L215.21 59.61L229.39 59.61L229.39 66.38Q231.12 63.14 234.43 61.19Q237.74 59.25 242.21 59.25L242.21 59.25ZM280.01 59.10Q288.00 59.10 292.75 62.99Q297.50 66.88 298.73 73.29L298.73 73.29L285.48 73.29Q284.98 71.13 283.43 70.05Q281.88 68.97 279.65 68.97L279.65 68.97Q278.06 68.97 277.24 69.65Q276.41 70.34 276.41 71.56L276.41 71.56Q276.41 73.07 278.17 73.83Q279.94 74.58 283.97 75.52L283.97 75.52Q288.65 76.53 291.71 77.68Q294.77 78.83 297.04 81.42Q299.30 84.02 299.30 88.41L299.30 88.41Q299.30 91.94 297.36 94.67Q295.42 97.41 291.71 98.96Q288.00 100.50 282.96 100.50L282.96 100.50Q274.46 100.50 269.42 96.83Q264.38 93.16 263.30 86.32L263.30 86.32L276.91 86.32Q277.20 88.55 278.82 89.63Q280.44 90.71 282.89 90.71L282.89 90.71Q284.54 90.71 285.41 89.99Q286.27 89.27 286.27 88.12L286.27 88.12Q286.27 86.39 284.44 85.60Q282.60 84.81 278.57 84.02L278.57 84.02Q273.96 83.08 271.01 81.96Q268.06 80.85 265.86 78.36Q263.66 75.88 263.66 71.49L263.66 71.49Q263.66 66.02 267.91 62.56Q272.16 59.10 280.01 59.10L280.01 59.10ZM319.61 60.40Q319.61 56.73 321.70 53.45Q323.78 50.18 328.03 48.09Q332.28 46.00 338.33 46.00L338.33 46.00Q344.38 46.00 348.62 48.09Q352.87 50.18 354.96 53.45Q357.05 56.73 357.05 60.40L357.05 60.40Q357.05 64.29 355.28 67.10Q353.52 69.90 350.28 71.42L350.28 71.42Q358.20 75.38 358.20 84.23L358.20 84.23Q358.20 89.56 355.54 93.34Q352.87 97.12 348.34 99.03Q343.80 100.94 338.33 100.94L338.33 100.94Q332.86 100.94 328.32 99.03Q323.78 97.12 321.12 93.34Q318.46 89.56 318.46 84.23L318.46 84.23Q318.46 75.38 326.38 71.42L326.38 71.42Q323.14 69.83 321.37 67.06Q319.61 64.29 319.61 60.40L319.61 60.40ZM333.58 62.78Q333.58 65.30 334.87 66.63Q336.17 67.96 338.33 67.96L338.33 67.96Q340.49 67.96 341.78 66.63Q343.08 65.30 343.08 62.78L343.08 62.78Q343.08 60.33 341.75 58.89Q340.42 57.45 338.33 57.45L338.33 57.45Q336.24 57.45 334.91 58.89Q333.58 60.33 333.58 62.78L333.58 62.78ZM332.21 83.44Q332.21 86.10 333.83 87.72Q335.45 89.34 338.33 89.34L338.33 89.34Q341.21 89.34 342.86 87.72Q344.52 86.10 344.52 83.44L344.52 83.44Q344.52 80.70 342.79 79.08Q341.06 77.46 338.33 77.46L338.33 77.46Q335.59 77.46 333.90 79.08Q332.21 80.70 332.21 83.44L332.21 83.44ZM364.46 73.94Q364.46 85.82 369.54 92.80Q374.62 99.78 385.34 99.78L385.34 99.78Q396.07 99.78 401.18 92.80Q406.30 85.82 406.30 73.94L406.30 73.94Q406.30 62.13 401.18 55.14Q396.07 48.16 385.34 48.16L385.34 48.16Q374.62 48.16 369.54 55.11Q364.46 62.06 364.46 73.94L364.46 73.94ZM392.33 73.94Q392.33 79.91 390.92 83.15Q389.52 86.39 385.34 86.39L385.34 86.39Q381.17 86.39 379.76 83.15Q378.36 79.91 378.36 73.94L378.36 73.94Q378.36 68.03 379.76 64.79Q381.17 61.55 385.34 61.55L385.34 61.55Q389.52 61.55 390.92 64.79Q392.33 68.03 392.33 73.94L392.33 73.94ZM411.48 73.94Q411.48 85.82 416.56 92.80Q421.63 99.78 432.36 99.78L432.36 99.78Q443.09 99.78 448.20 92.80Q453.31 85.82 453.31 73.94L453.31 73.94Q453.31 62.13 448.20 55.14Q443.09 48.16 432.36 48.16L432.36 48.16Q421.63 48.16 416.56 55.11Q411.48 62.06 411.48 73.94L411.48 73.94ZM439.34 73.94Q439.34 79.91 437.94 83.15Q436.54 86.39 432.36 86.39L432.36 86.39Q428.18 86.39 426.78 83.15Q425.38 79.91 425.38 73.94L425.38 73.94Q425.38 68.03 426.78 64.79Q428.18 61.55 432.36 61.55L432.36 61.55Q436.54 61.55 437.94 64.79Q439.34 68.03 439.34 73.94L439.34 73.94Z"/></svg>