<svg xmlns="http://www.w3.org/2000/svg" viewBox="-0.21600000000000003 42.03999999999999 674.1360000000001 77.11200000000001"><path d="M22.82 82.14L15.26 82.14L12.10 100L-0.22 100L8.71 49.10L28.66 49.10Q36.58 49.10 40.64 52.55Q44.71 56.01 44.71 62.13L44.71 62.13Q44.71 63.57 44.35 65.73L44.35 65.73Q43.49 70.48 40.68 74.19Q37.87 77.90 33.34 80.02Q28.80 82.14 22.82 82.14L22.82 82.14ZM23.26 72.28Q30.60 72.28 31.82 65.73L31.82 65.73Q31.97 64.58 31.97 64.07L31.97 64.07Q31.97 59.03 25.56 59.03L25.56 59.03L19.30 59.03L16.99 72.28L23.26 72.28ZM70.92 59.32Q76.25 59.32 80.32 61.34Q84.38 63.35 86.65 67.20Q88.92 71.06 88.92 76.31L88.92 76.31Q88.92 78.47 88.49 80.99L88.49 80.99Q87.41 86.97 83.95 91.36Q80.50 95.75 75.42 98.13Q70.34 100.50 64.51 100.50L64.51 100.50Q59.11 100.50 55.01 98.45Q50.90 96.40 48.64 92.58Q46.37 88.77 46.37 83.51L46.37 83.51Q46.37 81.28 46.80 78.83L46.80 78.83Q47.88 72.86 51.34 68.43Q54.79 64.00 59.94 61.66Q65.09 59.32 70.92 59.32L70.92 59.32ZM69.41 69.98Q65.88 69.98 63.04 72.50Q60.19 75.02 59.33 79.91L59.33 79.91Q59.04 81.78 59.04 82.58L59.04 82.58Q59.04 86.10 60.95 87.94Q62.86 89.78 65.88 89.78L65.88 89.78Q69.41 89.78 72.25 87.26Q75.10 84.74 75.96 79.91L75.96 79.91Q76.18 78.47 76.18 77.25L76.18 77.25Q76.18 73.72 74.27 71.85Q72.36 69.98 69.41 69.98L69.41 69.98ZM123.62 59.32Q130.03 59.32 133.88 63.42Q137.74 67.53 137.74 74.80L137.74 74.80Q137.74 77.18 137.30 79.91L137.30 79.91Q136.15 86.18 133.09 90.86Q130.03 95.54 125.64 98.02Q121.25 100.50 116.35 100.50L116.35 100.50Q111.67 100.50 108.76 98.42Q105.84 96.33 104.98 92.73L104.98 92.73L100.30 119.15L87.91 119.15L98.42 59.82L110.74 59.82L109.44 67.10Q111.60 63.50 115.27 61.41Q118.94 59.32 123.62 59.32L123.62 59.32ZM114.19 89.70Q118.15 89.70 121.03 87.11Q123.91 84.52 124.78 79.91L124.78 79.91Q124.99 78.62 124.99 77.54L124.99 77.54Q124.99 74.01 123.01 72.06Q121.03 70.12 117.72 70.12L117.72 70.12Q113.83 70.12 110.88 72.75Q107.93 75.38 107.14 79.91L107.14 79.91Q106.92 81.06 106.92 82.22L106.92 82.22Q106.92 85.74 108.90 87.72Q110.88 89.70 114.19 89.70L114.19 89.70ZM172.51 59.32Q178.92 59.32 182.77 63.42Q186.62 67.53 186.62 74.80L186.62 74.80Q186.62 77.18 186.19 79.91L186.19 79.91Q185.04 86.18 181.98 90.86Q178.92 95.54 174.53 98.02Q170.14 100.50 165.24 100.50L165.24 100.50Q160.56 100.50 157.64 98.42Q154.73 96.33 153.86 92.73L153.86 92.73L149.18 119.15L136.80 119.15L147.31 59.82L159.62 59.82L158.33 67.10Q160.49 63.50 164.16 61.41Q167.83 59.32 172.51 59.32L172.51 59.32ZM163.08 89.70Q167.04 89.70 169.92 87.11Q172.80 84.52 173.66 79.91L173.66 79.91Q173.88 78.62 173.88 77.54L173.88 77.54Q173.88 74.01 171.90 72.06Q169.92 70.12 166.61 70.12L166.61 70.12Q162.72 70.12 159.77 72.75Q156.82 75.38 156.02 79.91L156.02 79.91Q155.81 81.06 155.81 82.22L155.81 82.22Q155.81 85.74 157.79 87.72Q159.77 89.70 163.08 89.70L163.08 89.70ZM196.92 49.67Q196.92 46.43 199.37 44.24Q201.82 42.04 205.49 42.04L205.49 42.04Q208.37 42.04 210.06 43.52Q211.75 44.99 211.75 47.37L211.75 47.37Q211.75 50.54 209.34 52.73Q206.93 54.93 203.26 54.93L203.26 54.93Q200.30 54.93 198.61 53.45Q196.92 51.98 196.92 49.67L196.92 49.67ZM196.13 59.82L208.51 59.82L201.38 100L189.07 100L196.13 59.82ZM242.50 59.39Q248.40 59.39 251.68 62.74Q254.95 66.09 254.95 72.21L254.95 72.21Q254.95 74.30 254.52 76.67L254.52 76.67L250.34 100L238.10 100L241.92 78.11Q242.14 76.89 242.14 75.88L242.14 75.88Q242.14 72.86 240.41 71.20Q238.68 69.54 235.58 69.54L235.58 69.54Q231.91 69.54 229.28 71.92Q226.66 74.30 225.94 78.69L225.94 78.69L222.19 100L209.81 100L216.86 59.82L229.25 59.82L227.95 67.02Q230.33 63.50 234.11 61.44Q237.89 59.39 242.50 59.39L242.50 59.39ZM278.42 59.32Q286.78 59.32 291.24 63.10Q295.70 66.88 296.21 73.22L296.21 73.22L284.11 73.22Q284.04 70.70 282.24 69.33Q280.44 67.96 277.34 67.96L277.34 67.96Q275.11 67.96 273.71 68.82Q272.30 69.69 272.30 71.34L272.30 71.34Q272.30 73 274.25 73.94Q276.19 74.87 280.15 75.88L280.15 75.88Q284.54 77.10 287.32 78.22Q290.09 79.34 292.10 81.60Q294.12 83.87 294.12 87.54L294.12 87.54Q294.12 89.06 293.83 90.28L293.83 90.28Q292.97 94.82 288.61 97.66Q284.26 100.50 276.91 100.50L276.91 100.50Q268.78 100.50 263.84 96.87Q258.91 93.23 258.62 86.61L258.62 86.61L270.72 86.61Q270.50 89.20 272.52 90.57Q274.54 91.94 277.92 91.94L277.92 91.94Q280.37 91.94 281.59 90.96Q282.82 89.99 282.82 88.41L282.82 88.41Q282.82 86.61 280.94 85.71Q279.07 84.81 274.90 83.66L274.90 83.66Q270.72 82.58 267.98 81.46Q265.25 80.34 263.27 78.15Q261.29 75.95 261.29 72.35L261.29 72.35Q261.29 71.56 261.58 69.69L261.58 69.69Q262.30 65.15 266.69 62.24Q271.08 59.32 278.42 59.32L278.42 59.32ZM324.50 100L312.19 100L321.62 46.72L333.94 46.72L330.34 67.10Q332.50 63.50 336.17 61.41Q339.84 59.32 344.52 59.32L344.52 59.32Q350.93 59.32 354.78 63.42Q358.63 67.53 358.63 74.80L358.63 74.80Q358.63 77.18 358.20 79.91L358.20 79.91Q357.05 86.18 353.99 90.86Q350.93 95.54 346.54 98.02Q342.14 100.50 337.25 100.50L337.25 100.50Q332.57 100.50 329.65 98.42Q326.74 96.33 325.87 92.73L325.87 92.73L324.50 100ZM335.09 89.70Q339.05 89.70 341.96 87.11Q344.88 84.52 345.67 79.91L345.67 79.91Q345.89 78.62 345.89 77.54L345.89 77.54Q345.89 74.01 343.91 72.06Q341.93 70.12 338.62 70.12L338.62 70.12Q334.73 70.12 331.78 72.75Q328.82 75.38 328.03 79.91L328.03 79.91Q327.82 81.06 327.82 82.22L327.82 82.22Q327.82 85.74 329.80 87.72Q331.78 89.70 335.09 89.70L335.09 89.70ZM387.07 59.32Q392.40 59.32 396.47 61.34Q400.54 63.35 402.80 67.20Q405.07 71.06 405.07 76.31L405.07 76.31Q405.07 78.47 404.64 80.99L404.64 80.99Q403.56 86.97 400.10 91.36Q396.65 95.75 391.57 98.13Q386.50 100.50 380.66 100.50L380.66 100.50Q375.26 100.50 371.16 98.45Q367.06 96.40 364.79 92.58Q362.52 88.77 362.52 83.51L362.52 83.51Q362.52 81.28 362.95 78.83L362.95 78.83Q364.03 72.86 367.49 68.43Q370.94 64.00 376.09 61.66Q381.24 59.32 387.07 59.32L387.07 59.32ZM385.56 69.98Q382.03 69.98 379.19 72.50Q376.34 75.02 375.48 79.91L375.48 79.91Q375.19 81.78 375.19 82.58L375.19 82.58Q375.19 86.10 377.10 87.94Q379.01 89.78 382.03 89.78L382.03 89.78Q385.56 89.78 388.40 87.26Q391.25 84.74 392.11 79.91L392.11 79.91Q392.33 78.47 392.33 77.25L392.33 77.25Q392.33 73.72 390.42 71.85Q388.51 69.98 385.56 69.98L385.56 69.98ZM416.88 46.72L429.26 46.72L419.90 100L407.52 100L416.88 46.72ZM465.26 46.72L477.58 46.72L468.14 100L455.83 100L457.13 92.73Q454.97 96.33 451.30 98.42Q447.62 100.50 442.94 100.50L442.94 100.50Q436.54 100.50 432.65 96.18Q428.76 91.86 428.76 84.30L428.76 84.30Q428.76 81.57 429.26 78.83L429.26 78.83Q430.34 72.86 433.33 68.43Q436.32 64.00 440.60 61.66Q444.89 59.32 449.71 59.32L449.71 59.32Q454.54 59.32 457.63 61.41Q460.73 63.50 461.59 67.10L461.59 67.10L465.26 46.72ZM452.38 70.12Q448.42 70.12 445.50 72.71Q442.58 75.30 441.79 79.91L441.79 79.91Q441.58 81.21 441.58 82.29L441.58 82.29Q441.58 85.82 443.56 87.76Q445.54 89.70 448.85 89.70L448.85 89.70Q452.74 89.70 455.69 87.04Q458.64 84.38 459.43 79.91L459.43 79.91Q459.65 78.69 459.65 77.61L459.65 77.61Q459.65 74.08 457.67 72.10Q455.69 70.12 452.38 70.12L452.38 70.12ZM498.82 49.67Q498.82 46.43 501.26 44.24Q503.71 42.04 507.38 42.04L507.38 42.04Q510.26 42.04 511.96 43.52Q513.65 44.99 513.65 47.37L513.65 47.37Q513.65 50.54 511.24 52.73Q508.82 54.93 505.15 54.93L505.15 54.93Q502.20 54.93 500.51 53.45Q498.82 51.98 498.82 49.67L498.82 49.67ZM498.02 59.82L510.41 59.82L503.28 100L490.97 100L498.02 59.82ZM530.78 70.19L528.12 85.17Q527.98 86.18 527.98 86.54L527.98 86.54Q527.98 88.05 528.84 88.73Q529.70 89.42 531.65 89.42L531.65 89.42L535.54 89.42L533.66 100L528.05 100Q522 100 518.72 97.48Q515.45 94.96 515.45 89.20L515.45 89.20Q515.45 86.90 515.81 84.95L515.81 84.95L518.40 70.19L513.07 70.19L514.94 59.82L520.27 59.82L522 49.96L534.38 49.96L532.66 59.82L540.65 59.82L538.85 70.19L530.78 70.19ZM563.47 59.32Q568.30 59.32 571.43 61.44Q574.56 63.57 575.42 67.10L575.42 67.10L576.72 59.82L589.03 59.82L581.90 100L569.59 100L570.96 92.73Q568.80 96.33 565.09 98.42Q561.38 100.50 556.70 100.50L556.70 100.50Q550.15 100.50 546.34 96.29Q542.52 92.08 542.52 84.59L542.52 84.59Q542.52 81.64 543.02 78.83L543.02 78.83Q544.10 72.86 547.09 68.43Q550.08 64.00 554.36 61.66Q558.65 59.32 563.47 59.32L563.47 59.32ZM566.14 70.12Q562.18 70.12 559.26 72.71Q556.34 75.30 555.55 79.91L555.55 79.91Q555.34 81.21 555.34 82.29L555.34 82.29Q555.34 85.82 557.32 87.76Q559.30 89.70 562.61 89.70L562.61 89.70Q566.50 89.70 569.45 87.04Q572.40 84.38 573.19 79.91L573.19 79.91Q573.41 78.69 573.41 77.61L573.41 77.61Q573.41 74.08 571.43 72.10Q569.45 70.12 566.14 70.12L566.14 70.12ZM599.76 46.72L612.14 46.72L602.78 100L590.40 100L599.76 46.72ZM618.70 49.67Q618.70 46.43 621.14 44.24Q623.59 42.04 627.26 42.04L627.26 42.04Q630.14 42.04 631.84 43.52Q633.53 44.99 633.53 47.37L633.53 47.37Q633.53 50.54 631.12 52.73Q628.70 54.93 625.03 54.93L625.03 54.93Q622.08 54.93 620.39 53.45Q618.70 51.98 618.70 49.67L618.70 49.67ZM617.90 59.82L630.29 59.82L623.16 100L610.85 100L617.90 59.82ZM656.57 59.32Q664.56 59.32 669.20 63.60Q673.85 67.89 673.92 75.38L673.92 75.38L660.82 75.38Q660.67 72.78 659.16 71.34Q657.65 69.90 654.91 69.90L654.91 69.90Q651.67 69.90 649.12 72.46Q646.56 75.02 645.70 79.91L645.70 79.91Q645.41 81.35 645.41 82.94L645.41 82.94Q645.41 86.39 647.06 88.16Q648.72 89.92 651.46 89.92L651.46 89.92Q654.19 89.92 656.21 88.48Q658.22 87.04 659.23 84.45L659.23 84.45L672.26 84.45Q669.60 91.94 663.59 96.22Q657.58 100.50 649.80 100.50L649.80 100.50Q642.02 100.50 637.38 96.08Q632.74 91.65 632.74 83.87L632.74 83.87Q632.74 82 633.24 78.83L633.24 78.83Q634.32 72.86 637.63 68.43Q640.94 64.00 645.84 61.66Q650.74 59.32 656.57 59.32L656.57 59.32Z"/></svg>