<svg xmlns="http://www.w3.org/2000/svg" viewBox="-0.08 -8.17 41.82 10.85"><path d="M3.27-2.37L2.30-2.37L1.89 0L-0.08 0L1.16-7.08L4.10-7.08Q5.22-7.08 5.79-6.58Q6.37-6.09 6.37-5.23L6.37-5.23Q6.37-5.01 6.32-4.71L6.32-4.71Q6.20-4.04 5.80-3.51Q5.41-2.98 4.76-2.68Q4.11-2.37 3.27-2.37L3.27-2.37ZM3.33-3.92Q3.78-3.92 4.03-4.13Q4.27-4.34 4.33-4.71L4.33-4.71Q4.35-4.85 4.35-4.91L4.35-4.91Q4.35-5.49 3.61-5.49L3.61-5.49L2.86-5.49L2.58-3.92L3.33-3.92ZM9.99-5.68Q10.74-5.68 11.32-5.40Q11.89-5.11 12.21-4.57Q12.53-4.03 12.53-3.29L12.53-3.29Q12.53-2.98 12.47-2.63L12.47-2.63Q12.32-1.80 11.84-1.19Q11.36-0.58 10.65-0.26Q9.94 0.07 9.12 0.07L9.12 0.07Q8.35 0.07 7.77-0.21Q7.19-0.50 6.87-1.04Q6.54-1.59 6.54-2.33L6.54-2.33Q6.54-2.64 6.60-2.98L6.60-2.98Q6.75-3.81 7.23-4.42Q7.72-5.03 8.44-5.36Q9.16-5.68 9.99-5.68L9.99-5.68ZM9.74-3.98Q9.34-3.98 9.02-3.68Q8.70-3.38 8.59-2.81L8.59-2.81Q8.56-2.63 8.56-2.49L8.56-2.49Q8.56-2.07 8.78-1.85Q8.99-1.63 9.33-1.63L9.33-1.63Q9.73-1.63 10.05-1.93Q10.37-2.23 10.48-2.81L10.48-2.81Q10.51-2.99 10.51-3.13L10.51-3.13Q10.51-3.55 10.29-3.77Q10.08-3.98 9.74-3.98L9.74-3.98ZM17.40-5.68Q18.27-5.68 18.80-5.11Q19.33-4.54 19.33-3.54L19.33-3.54Q19.33-3.17 19.26-2.81L19.26-2.81Q19.10-1.93 18.68-1.28Q18.26-0.62 17.66-0.28Q17.06 0.07 16.39 0.07L16.39 0.07Q15.79 0.07 15.41-0.18Q15.03-0.44 14.90-0.89L14.90-0.89L14.27 2.68L12.30 2.68L13.76-5.61L15.73-5.61L15.57-4.72Q15.85-5.17 16.33-5.42Q16.81-5.68 17.40-5.68L17.40-5.68ZM16.04-1.65Q16.50-1.65 16.84-1.96Q17.18-2.26 17.27-2.81L17.27-2.81Q17.30-2.96 17.30-3.10L17.30-3.10Q17.30-3.51 17.07-3.73Q16.84-3.96 16.45-3.96L16.45-3.96Q16-3.96 15.67-3.65Q15.33-3.34 15.23-2.81L15.23-2.81Q15.20-2.65 15.20-2.51L15.20-2.51Q15.20-2.10 15.43-1.88Q15.66-1.65 16.04-1.65L16.04-1.65ZM24.20-5.68Q25.07-5.68 25.60-5.11Q26.13-4.54 26.13-3.54L26.13-3.54Q26.13-3.17 26.06-2.81L26.06-2.81Q25.90-1.93 25.48-1.28Q25.06-0.62 24.46-0.28Q23.86 0.07 23.19 0.07L23.19 0.07Q22.59 0.07 22.21-0.18Q21.83-0.44 21.70-0.89L21.70-0.89L21.07 2.68L19.10 2.68L20.56-5.61L22.53-5.61L22.37-4.72Q22.65-5.17 23.13-5.42Q23.61-5.68 24.20-5.68L24.20-5.68ZM22.84-1.65Q23.30-1.65 23.64-1.96Q23.98-2.26 24.07-2.81L24.07-2.81Q24.10-2.96 24.10-3.10L24.10-3.10Q24.10-3.51 23.87-3.73Q23.64-3.96 23.25-3.96L23.25-3.96Q22.80-3.96 22.46-3.65Q22.13-3.34 22.03-2.81L22.03-2.81Q22-2.65 22-2.51L22-2.51Q22-2.10 22.23-1.88Q22.46-1.65 22.84-1.65L22.84-1.65ZM27.46-7Q27.46-7.32 27.64-7.58Q27.81-7.85 28.12-8.01Q28.43-8.17 28.81-8.17L28.81-8.17Q29.27-8.17 29.53-7.94Q29.79-7.71 29.79-7.34L29.79-7.34Q29.79-7.03 29.62-6.76Q29.44-6.49 29.14-6.33Q28.83-6.18 28.45-6.18L28.45-6.18Q27.98-6.18 27.72-6.41Q27.46-6.64 27.46-7L27.46-7ZM27.36-5.61L29.33-5.61L28.34 0L26.37 0L27.36-5.61ZM34.16-5.66Q34.97-5.66 35.42-5.19Q35.87-4.72 35.87-3.88L35.87-3.88Q35.87-3.59 35.81-3.26L35.81-3.26L35.24 0L33.28 0L33.81-3.01Q33.83-3.10 33.83-3.27L33.83-3.27Q33.83-3.64 33.63-3.85Q33.42-4.05 33.05-4.05L33.05-4.05Q32.61-4.05 32.30-3.77Q32-3.49 31.91-2.98L31.91-2.98L31.91-3.02L31.38 0L29.42 0L30.40-5.61L32.37-5.61L32.20-4.67Q32.53-5.12 33.04-5.39Q33.54-5.66 34.16-5.66L34.16-5.66ZM39.16-5.68Q40.37-5.68 41.01-5.14Q41.65-4.60 41.74-3.71L41.74-3.71L39.81-3.71Q39.80-4.01 39.58-4.16Q39.35-4.31 38.99-4.31L38.99-4.31Q38.73-4.31 38.58-4.22Q38.43-4.14 38.43-3.96L38.43-3.96Q38.43-3.78 38.67-3.67Q38.91-3.56 39.42-3.43L39.42-3.43Q40.03-3.28 40.45-3.12Q40.86-2.95 41.16-2.63Q41.47-2.30 41.47-1.77L41.47-1.77Q41.47-1.56 41.43-1.39L41.43-1.39Q41.30-0.74 40.66-0.34Q40.03 0.07 38.95 0.07L38.95 0.07Q37.79 0.07 37.08-0.45Q36.37-0.96 36.32-1.90L36.32-1.90L38.25-1.90Q38.22-1.60 38.47-1.45Q38.71-1.29 39.11-1.29L39.11-1.29Q39.59-1.29 39.66-1.61L39.66-1.61Q39.70-1.83 39.46-1.95Q39.22-2.07 38.67-2.20L38.67-2.20Q38.05-2.36 37.66-2.51Q37.26-2.66 36.97-2.98Q36.67-3.30 36.67-3.83L36.67-3.83Q36.67-3.94 36.71-4.20L36.71-4.20Q36.82-4.85 37.45-5.26Q38.08-5.68 39.16-5.68L39.16-5.68Z"/></svg>