<svg xmlns="http://www.w3.org/2000/svg" viewBox="5.832000000000001 46.431999999999995 633.6000000000001 72.72"><path d="M19.80 77.97L9.07 77.97L9.07 100L5.83 100L5.83 49.24L19.80 49.24Q28.22 49.24 32.33 53.06Q36.43 56.87 36.43 63.71L36.43 63.71Q36.43 70.70 32.18 74.33Q27.94 77.97 19.80 77.97L19.80 77.97ZM19.58 75.09Q33.12 75.09 33.12 63.71L33.12 63.71Q33.12 58.02 29.95 55.07Q26.78 52.12 19.58 52.12L19.58 52.12L9.07 52.12L9.07 75.09L19.58 75.09ZM62.35 60.40Q67.90 60.40 72.29 62.81Q76.68 65.22 79.16 69.76Q81.65 74.30 81.65 80.42L81.65 80.42Q81.65 86.61 79.16 91.14Q76.68 95.68 72.29 98.09Q67.90 100.50 62.35 100.50L62.35 100.50Q56.88 100.50 52.49 98.09Q48.10 95.68 45.58 91.11Q43.06 86.54 43.06 80.42L43.06 80.42Q43.06 74.30 45.58 69.76Q48.10 65.22 52.49 62.81Q56.88 60.40 62.35 60.40L62.35 60.40ZM62.35 63.28Q58.10 63.28 54.47 65.15Q50.83 67.02 48.60 70.88Q46.37 74.73 46.37 80.42L46.37 80.42Q46.37 86.10 48.60 89.99Q50.83 93.88 54.47 95.75Q58.10 97.62 62.35 97.62L62.35 97.62Q66.60 97.62 70.24 95.75Q73.87 93.88 76.10 89.99Q78.34 86.10 78.34 80.42L78.34 80.42Q78.34 74.73 76.14 70.88Q73.94 67.02 70.31 65.15Q66.67 63.28 62.35 63.28L62.35 63.28ZM111.38 60.40Q116.86 60.40 121.07 62.81Q125.28 65.22 127.66 69.76Q130.03 74.30 130.03 80.42L130.03 80.42Q130.03 86.54 127.66 91.11Q125.28 95.68 121.07 98.09Q116.86 100.50 111.38 100.50L111.38 100.50Q105.05 100.50 100.62 97.16Q96.19 93.81 94.61 88.34L94.61 88.34L94.61 118.43L91.44 118.43L91.44 60.90L94.61 60.90L94.61 72.57Q96.19 67.10 100.62 63.75Q105.05 60.40 111.38 60.40L111.38 60.40ZM110.74 63.28Q106.13 63.28 102.46 65.40Q98.78 67.53 96.70 71.42Q94.61 75.30 94.61 80.42L94.61 80.42Q94.61 85.53 96.70 89.45Q98.78 93.38 102.46 95.50Q106.13 97.62 110.74 97.62L110.74 97.62Q118.08 97.62 122.44 93.02Q126.79 88.41 126.79 80.42L126.79 80.42Q126.79 72.50 122.44 67.89Q118.08 63.28 110.74 63.28L110.74 63.28ZM159.77 60.40Q165.24 60.40 169.45 62.81Q173.66 65.22 176.04 69.76Q178.42 74.30 178.42 80.42L178.42 80.42Q178.42 86.54 176.04 91.11Q173.66 95.68 169.45 98.09Q165.24 100.50 159.77 100.50L159.77 100.50Q153.43 100.50 149.00 97.16Q144.58 93.81 142.99 88.34L142.99 88.34L142.99 118.43L139.82 118.43L139.82 60.90L142.99 60.90L142.99 72.57Q144.58 67.10 149.00 63.75Q153.43 60.40 159.77 60.40L159.77 60.40ZM159.12 63.28Q154.51 63.28 150.84 65.40Q147.17 67.53 145.08 71.42Q142.99 75.30 142.99 80.42L142.99 80.42Q142.99 85.53 145.08 89.45Q147.17 93.38 150.84 95.50Q154.51 97.62 159.12 97.62L159.12 97.62Q166.46 97.62 170.82 93.02Q175.18 88.41 175.18 80.42L175.18 80.42Q175.18 72.50 170.82 67.89Q166.46 63.28 159.12 63.28L159.12 63.28ZM187.06 49.10Q187.06 47.94 187.81 47.19Q188.57 46.43 189.79 46.43L189.79 46.43Q191.02 46.43 191.81 47.19Q192.60 47.94 192.60 49.10L192.60 49.10Q192.60 50.32 191.81 51.08Q191.02 51.83 189.79 51.83L189.79 51.83Q188.57 51.83 187.81 51.08Q187.06 50.32 187.06 49.10L187.06 49.10ZM188.21 60.90L191.45 60.90L191.45 100L188.21 100L188.21 60.90ZM221.26 60.11Q228.17 60.11 232.49 64.43Q236.81 68.75 236.81 77.18L236.81 77.18L236.81 100L233.57 100L233.57 77.32Q233.57 70.26 230.04 66.56Q226.51 62.85 220.39 62.85L220.39 62.85Q214.06 62.85 210.20 66.99Q206.35 71.13 206.35 79.19L206.35 79.19L206.35 100L203.11 100L203.11 60.90L206.35 60.90L206.35 71.20Q207.79 65.73 211.86 62.92Q215.93 60.11 221.26 60.11L221.26 60.11ZM259.13 60.40Q265.25 60.40 268.99 63.68Q272.74 66.95 273.46 72.64L273.46 72.64L270.36 72.64Q269.93 68.46 267.01 65.69Q264.10 62.92 259.13 62.92L259.13 62.92Q254.74 62.92 252.25 65.08Q249.77 67.24 249.77 70.84L249.77 70.84Q249.77 73.50 251.24 75.09Q252.72 76.67 254.84 77.43Q256.97 78.18 260.78 79.12L260.78 79.12Q265.03 80.06 267.62 81.06Q270.22 82.07 272.02 84.23Q273.82 86.39 273.82 90.14L273.82 90.14Q273.82 94.74 270.50 97.62Q267.19 100.50 261.79 100.50L261.79 100.50Q255.31 100.50 251.17 97.23Q247.03 93.95 246.24 88.26L246.24 88.26L249.48 88.26Q249.91 92.44 253.12 95.21Q256.32 97.98 261.86 97.98L261.86 97.98Q266.04 97.98 268.38 95.79Q270.72 93.59 270.72 90.06L270.72 90.06Q270.72 87.26 269.21 85.56Q267.70 83.87 265.43 83.08Q263.16 82.29 259.42 81.42L259.42 81.42Q255.17 80.42 252.68 79.44Q250.20 78.47 248.44 76.42Q246.67 74.37 246.67 70.84L246.67 70.84Q246.67 66.09 250.06 63.24Q253.44 60.40 259.13 60.40L259.13 60.40ZM320.47 97.77Q326.38 97.77 330.41 94.78Q334.44 91.79 335.30 86.61L335.30 86.61L338.69 86.61Q337.61 92.87 332.82 96.69Q328.03 100.50 320.62 100.50L320.62 100.50Q315.07 100.50 310.79 98.09Q306.50 95.68 304.06 91.14Q301.61 86.61 301.61 80.42L301.61 80.42Q301.61 74.30 304.06 69.76Q306.50 65.22 310.79 62.81Q315.07 60.40 320.62 60.40L320.62 60.40Q326.30 60.40 330.44 62.81Q334.58 65.22 336.71 69.15Q338.83 73.07 338.83 77.54L338.83 77.54Q338.83 79.34 338.47 81.35L338.47 81.35L304.85 81.35Q304.92 86.82 307.12 90.53Q309.31 94.24 312.80 96.00Q316.30 97.77 320.47 97.77L320.47 97.77ZM320.62 63.06Q316.37 63.06 312.84 64.86Q309.31 66.66 307.12 70.34Q304.92 74.01 304.85 79.41L304.85 79.41L335.66 79.41Q335.95 74.01 333.86 70.30Q331.78 66.59 328.25 64.83Q324.72 63.06 320.62 63.06L320.62 63.06ZM373.75 100L370.01 100L358.63 82.72L347.76 100L344.16 100L356.83 79.98L344.30 60.90L348.05 60.90L359.06 77.61L369.79 60.90L373.39 60.90L360.86 80.34L373.75 100ZM397.44 63.86L385.85 63.86L385.85 88.98Q385.85 93.66 387.50 95.36Q389.16 97.05 393.34 97.05L393.34 97.05L397.44 97.05L397.44 100L392.98 100Q387.58 100 385.09 97.48Q382.61 94.96 382.61 88.98L382.61 88.98L382.61 63.86L376.42 63.86L376.42 60.90L382.61 60.90L382.61 50.97L385.85 50.97L385.85 60.90L397.44 60.90L397.44 63.86ZM409.32 69.54Q410.83 64.94 414.65 62.52Q418.46 60.11 424.37 60.11L424.37 60.11L424.37 63.64L423.29 63.64Q417.38 63.64 413.35 66.95Q409.32 70.26 409.32 77.68L409.32 77.68L409.32 100L406.08 100L406.08 60.90L409.32 60.90L409.32 69.54ZM448.34 60.40Q454.75 60.40 459.14 63.75Q463.54 67.10 465.12 72.57L465.12 72.57L465.12 60.90L468.36 60.90L468.36 100L465.12 100L465.12 88.34Q463.54 93.81 459.14 97.16Q454.75 100.50 448.34 100.50L448.34 100.50Q442.87 100.50 438.66 98.09Q434.45 95.68 432.07 91.11Q429.70 86.54 429.70 80.42L429.70 80.42Q429.70 74.30 432.07 69.76Q434.45 65.22 438.66 62.81Q442.87 60.40 448.34 60.40L448.34 60.40ZM449.06 63.28Q441.72 63.28 437.36 67.89Q433.01 72.50 433.01 80.42L433.01 80.42Q433.01 88.41 437.33 93.02Q441.65 97.62 449.06 97.62L449.06 97.62Q453.67 97.62 457.34 95.50Q461.02 93.38 463.07 89.45Q465.12 85.53 465.12 80.42L465.12 80.42Q465.12 75.30 463.07 71.42Q461.02 67.53 457.34 65.40Q453.67 63.28 449.06 63.28L449.06 63.28ZM499.75 46.72L502.99 46.72L502.99 100L499.75 100L499.75 46.72ZM513.50 49.10Q513.50 47.94 514.26 47.19Q515.02 46.43 516.24 46.43L516.24 46.43Q517.46 46.43 518.26 47.19Q519.05 47.94 519.05 49.10L519.05 49.10Q519.05 50.32 518.26 51.08Q517.46 51.83 516.24 51.83L516.24 51.83Q515.02 51.83 514.26 51.08Q513.50 50.32 513.50 49.10L513.50 49.10ZM514.66 60.90L517.90 60.90L517.90 100L514.66 100L514.66 60.90ZM546.34 60.40Q552.74 60.40 557.14 63.75Q561.53 67.10 563.11 72.57L563.11 72.57L563.11 60.90L566.35 60.90L566.35 101.15Q566.35 106.55 564.01 110.66Q561.67 114.76 557.60 116.96Q553.54 119.15 548.64 119.15L548.64 119.15Q541.30 119.15 536.51 115.59Q531.72 112.02 530.14 105.90L530.14 105.90L533.30 105.90Q534.74 110.66 538.63 113.46Q542.52 116.27 548.50 116.27L548.50 116.27Q552.60 116.27 555.95 114.44Q559.30 112.60 561.20 109.18Q563.11 105.76 563.11 101.15L563.11 101.15L563.11 88.34Q561.53 93.81 557.14 97.16Q552.74 100.50 546.34 100.50L546.34 100.50Q540.86 100.50 536.65 98.09Q532.44 95.68 530.06 91.11Q527.69 86.54 527.69 80.42L527.69 80.42Q527.69 74.30 530.06 69.76Q532.44 65.22 536.65 62.81Q540.86 60.40 546.34 60.40L546.34 60.40ZM547.06 63.28Q539.71 63.28 535.36 67.89Q531.00 72.50 531.00 80.42L531.00 80.42Q531.00 88.41 535.32 93.02Q539.64 97.62 547.06 97.62L547.06 97.62Q551.66 97.62 555.34 95.50Q559.01 93.38 561.06 89.45Q563.11 85.53 563.11 80.42L563.11 80.42Q563.11 75.30 561.06 71.42Q559.01 67.53 555.34 65.40Q551.66 63.28 547.06 63.28L547.06 63.28ZM596.09 60.11Q603.00 60.11 607.32 64.43Q611.64 68.75 611.64 77.18L611.64 77.18L611.64 100L608.40 100L608.40 77.32Q608.40 70.26 604.87 66.56Q601.34 62.85 595.22 62.85L595.22 62.85Q588.89 62.85 585.04 66.99Q581.18 71.13 581.18 79.19L581.18 79.19L581.18 100L577.94 100L577.94 46.72L581.18 46.72L581.18 71.20Q582.62 65.73 586.69 62.92Q590.76 60.11 596.09 60.11L596.09 60.11ZM639.43 63.86L627.84 63.86L627.84 88.98Q627.84 93.66 629.50 95.36Q631.15 97.05 635.33 97.05L635.33 97.05L639.43 97.05L639.43 100L634.97 100Q629.57 100 627.08 97.48Q624.60 94.96 624.60 88.98L624.60 88.98L624.60 63.86L618.41 63.86L618.41 60.90L624.60 60.90L624.60 50.97L627.84 50.97L627.84 60.90L639.43 60.90L639.43 63.86Z"/></svg>