<svg xmlns="http://www.w3.org/2000/svg" viewBox="4.6080000000000005 43.11999999999999 656.2080000000002 75.88800000000002"><path d="M23 81L15 81L15 100L5 100L5 49L23 49Q32 49 37 53Q41 58 41 65L41 65Q41 72 37 77Q32 81 23 81L23 81ZM22 73Q31 73 31 65L31 65Q31 61 29 59Q27 57 22 57L22 57L15 57L15 73L22 73ZM66 60Q72 60 77 62Q81 65 84 69Q87 74 87 80L87 80Q87 86 84 91Q81 96 77 98Q72 101 66 101L66 101Q60 101 56 98Q51 96 49 91Q46 86 46 80L46 80Q46 74 49 69Q51 65 56 62Q60 60 66 60L66 60ZM66 68Q62 68 59 71Q56 74 56 80L56 80Q56 86 59 89Q62 92 66 92L66 92Q71 92 74 89Q76 86 76 80L76 80Q76 74 74 71Q71 68 66 68L66 68ZM118 60Q123 60 127 62Q131 65 133 69Q135 74 135 80L135 80Q135 86 133 91Q131 96 127 98Q123 101 118 101L118 101Q113 101 109 98Q106 96 104 92L104 92L104 119L94 119L94 60L104 60L104 68Q106 64 109 62Q113 60 118 60L118 60ZM115 68Q110 68 107 72Q104 75 104 80L104 80Q104 85 107 88Q110 92 115 92L115 92Q119 92 122 89Q125 85 125 80L125 80Q125 75 122 72Q119 68 115 68L115 68ZM166 60Q172 60 176 62Q180 65 182 69Q184 74 184 80L184 80Q184 86 182 91Q180 96 176 98Q172 101 166 101L166 101Q161 101 158 98Q154 96 153 92L153 92L153 119L143 119L143 60L153 60L153 68Q154 64 158 62Q161 60 166 60L166 60ZM163 68Q159 68 156 72Q153 75 153 80L153 80Q153 85 156 88Q159 92 163 92L163 92Q168 92 171 89Q174 85 174 80L174 80Q174 75 171 72Q168 68 163 68L163 68ZM190 49Q190 46 192 45Q194 43 196 43L196 43Q199 43 201 45Q203 46 203 49L203 49Q203 51 201 53Q199 54 196 54L196 54Q194 54 192 53Q190 51 190 49L190 49ZM191 60L201 60L201 100L191 100L191 60ZM234 60Q241 60 245 64Q250 69 250 77L250 77L250 100L239 100L239 78Q239 73 237 71Q235 68 230 68L230 68Q226 68 223 71Q221 74 221 79L221 79L221 100L211 100L211 60L221 60L221 68Q222 64 226 62Q230 60 234 60L234 60ZM272 60Q280 60 284 63Q288 67 289 73L289 73L280 73Q279 70 277 68Q275 67 272 67L272 67Q269 67 268 68Q267 69 267 71L267 71Q267 73 268 74Q269 75 271 76Q272 76 276 77L276 77Q280 78 283 79Q286 80 288 83Q290 85 290 89L290 89Q290 94 286 97Q282 101 275 101L275 101Q267 101 263 97Q258 94 257 87L257 87L267 87Q267 90 269 92Q272 93 275 93L275 93Q278 93 279 92Q280 91 280 89L280 89Q280 87 279 86Q278 85 276 84Q275 84 271 83L271 83Q267 82 264 81Q261 80 259 78Q257 75 257 71L257 71Q257 66 261 63Q265 60 272 60L272 60ZM327 60Q334 60 339 63Q343 67 344 73L344 73L335 73Q334 70 332 68Q330 67 327 67L327 67Q324 67 323 68Q321 69 321 71L321 71Q321 73 322 74Q323 75 325 76Q327 76 330 77L330 77Q335 78 338 79Q340 80 342 83Q345 85 345 89L345 89Q345 94 341 97Q337 101 330 101L330 101Q322 101 317 97Q313 94 312 87L312 87L321 87Q322 90 324 92Q326 93 330 93L330 93Q332 93 334 92Q335 91 335 89L335 89Q335 87 334 86Q333 85 331 84Q329 84 326 83L326 83Q321 82 319 81Q316 80 314 78Q312 75 312 71L312 71Q312 66 316 63Q320 60 327 60L327 60ZM390 79Q390 80 389 82L389 82L360 82Q360 87 363 90Q366 92 370 92L370 92Q373 92 375 91Q378 89 378 86L378 86L389 86Q388 90 386 93Q383 97 379 99Q375 101 370 101L370 101Q364 101 360 98Q355 96 353 91Q350 86 350 80L350 80Q350 74 353 69Q355 65 360 62Q364 60 370 60L370 60Q376 60 380 62Q385 65 387 69Q390 73 390 79L390 79ZM379 78Q380 73 377 70Q374 68 370 68L370 68Q366 68 363 70Q360 73 360 78L360 78L379 78ZM448 60Q455 60 459 64Q463 69 463 77L463 77L463 100L453 100L453 78Q453 73 451 71Q448 68 444 68L444 68Q440 68 438 71Q435 74 435 79L435 79L435 100L425 100L425 78Q425 73 423 71Q420 68 416 68L416 68Q412 68 409 71Q407 74 407 79L407 79L407 100L397 100L397 60L407 60L407 68Q409 64 412 62Q415 60 420 60L420 60Q425 60 428 62Q432 64 434 68L434 68Q436 64 439 62Q443 60 448 60L448 60ZM471 49Q471 46 473 45Q474 43 477 43L477 43Q480 43 482 45Q484 46 484 49L484 49Q484 51 482 53Q480 54 477 54L477 54Q474 54 473 53Q471 51 471 49L471 49ZM472 60L482 60L482 100L472 100L472 60ZM531 60Q536 60 540 62Q544 65 546 69Q549 74 549 80L549 80Q549 86 546 91Q544 96 540 98Q536 101 531 101L531 101Q526 101 522 98Q519 96 517 92L517 92L517 100L507 100L507 47L517 47L517 68Q519 64 522 62Q526 60 531 60L531 60ZM528 68Q523 68 520 72Q517 75 517 80L517 80Q517 85 520 88Q523 92 528 92L528 92Q533 92 536 89Q538 85 538 80L538 80Q538 75 536 72Q533 68 528 68L528 68ZM574 60Q580 60 585 62Q589 65 592 69Q595 74 595 80L595 80Q595 86 592 91Q589 96 585 98Q580 101 574 101L574 101Q569 101 564 98Q559 96 557 91Q554 86 554 80L554 80Q554 74 557 69Q559 65 564 62Q569 60 574 60L574 60ZM574 68Q570 68 567 71Q564 74 564 80L564 80Q564 86 567 89Q570 92 574 92L574 92Q579 92 582 89Q584 86 584 80L584 80Q584 74 582 71Q579 68 574 68L574 68ZM602 47L612 47L612 100L602 100L602 47ZM637 60Q642 60 646 62Q649 64 651 68L651 68L651 47L661 47L661 100L651 100L651 92Q649 96 646 98Q642 101 637 101L637 101Q632 101 628 98Q624 96 622 91Q619 86 619 80L619 80Q619 74 622 69Q624 65 628 62Q632 60 637 60L637 60ZM640 68Q635 68 633 72Q630 75 630 80L630 80Q630 85 633 89Q635 92 640 92L640 92Q645 92 648 88Q651 85 651 80L651 80Q651 75 648 72Q645 68 640 68L640 68Z"/></svg>