<svg xmlns="http://www.w3.org/2000/svg" viewBox="-0.21600000000000003 42.03999999999999 674.1360000000001 77.11200000000001"><path d="M23 82L15 82L12 100L-0 100L9 49L29 49Q37 49 41 53Q45 56 45 62L45 62Q45 64 44 66L44 66Q43 70 41 74Q38 78 33 80Q29 82 23 82L23 82ZM23 72Q31 72 32 66L32 66Q32 65 32 64L32 64Q32 59 26 59L26 59L19 59L17 72L23 72ZM71 59Q76 59 80 61Q84 63 87 67Q89 71 89 76L89 76Q89 78 88 81L88 81Q87 87 84 91Q80 96 75 98Q70 101 65 101L65 101Q59 101 55 98Q51 96 49 93Q46 89 46 84L46 84Q46 81 47 79L47 79Q48 73 51 68Q55 64 60 62Q65 59 71 59L71 59ZM69 70Q66 70 63 72Q60 75 59 80L59 80Q59 82 59 83L59 83Q59 86 61 88Q63 90 66 90L66 90Q69 90 72 87Q75 85 76 80L76 80Q76 78 76 77L76 77Q76 74 74 72Q72 70 69 70L69 70ZM124 59Q130 59 134 63Q138 68 138 75L138 75Q138 77 137 80L137 80Q136 86 133 91Q130 96 126 98Q121 101 116 101L116 101Q112 101 109 98Q106 96 105 93L105 93L100 119L88 119L98 60L111 60L109 67Q112 63 115 61Q119 59 124 59L124 59ZM114 90Q118 90 121 87Q124 85 125 80L125 80Q125 79 125 78L125 78Q125 74 123 72Q121 70 118 70L118 70Q114 70 111 73Q108 75 107 80L107 80Q107 81 107 82L107 82Q107 86 109 88Q111 90 114 90L114 90ZM173 59Q179 59 183 63Q187 68 187 75L187 75Q187 77 186 80L186 80Q185 86 182 91Q179 96 175 98Q170 101 165 101L165 101Q161 101 158 98Q155 96 154 93L154 93L149 119L137 119L147 60L160 60L158 67Q160 63 164 61Q168 59 173 59L173 59ZM163 90Q167 90 170 87Q173 85 174 80L174 80Q174 79 174 78L174 78Q174 74 172 72Q170 70 167 70L167 70Q163 70 160 73Q157 75 156 80L156 80Q156 81 156 82L156 82Q156 86 158 88Q160 90 163 90L163 90ZM197 50Q197 46 199 44Q202 42 205 42L205 42Q208 42 210 44Q212 45 212 47L212 47Q212 51 209 53Q207 55 203 55L203 55Q200 55 199 53Q197 52 197 50L197 50ZM196 60L209 60L201 100L189 100L196 60ZM242 59Q248 59 252 63Q255 66 255 72L255 72Q255 74 255 77L255 77L250 100L238 100L242 78Q242 77 242 76L242 76Q242 73 240 71Q239 70 236 70L236 70Q232 70 229 72Q227 74 226 79L226 79L222 100L210 100L217 60L229 60L228 67Q230 63 234 61Q238 59 242 59L242 59ZM278 59Q287 59 291 63Q296 67 296 73L296 73L284 73Q284 71 282 69Q280 68 277 68L277 68Q275 68 274 69Q272 70 272 71L272 71Q272 73 274 74Q276 75 280 76L280 76Q285 77 287 78Q290 79 292 82Q294 84 294 88L294 88Q294 89 294 90L294 90Q293 95 289 98Q284 101 277 101L277 101Q269 101 264 97Q259 93 259 87L259 87L271 87Q271 89 273 91Q275 92 278 92L278 92Q280 92 282 91Q283 90 283 88L283 88Q283 87 281 86Q279 85 275 84L275 84Q271 83 268 81Q265 80 263 78Q261 76 261 72L261 72Q261 72 262 70L262 70Q262 65 267 62Q271 59 278 59L278 59ZM325 100L312 100L322 47L334 47L330 67Q332 63 336 61Q340 59 345 59L345 59Q351 59 355 63Q359 68 359 75L359 75Q359 77 358 80L358 80Q357 86 354 91Q351 96 347 98Q342 101 337 101L337 101Q333 101 330 98Q327 96 326 93L326 93L325 100ZM335 90Q339 90 342 87Q345 85 346 80L346 80Q346 79 346 78L346 78Q346 74 344 72Q342 70 339 70L339 70Q335 70 332 73Q329 75 328 80L328 80Q328 81 328 82L328 82Q328 86 330 88Q332 90 335 90L335 90ZM387 59Q392 59 396 61Q401 63 403 67Q405 71 405 76L405 76Q405 78 405 81L405 81Q404 87 400 91Q397 96 392 98Q386 101 381 101L381 101Q375 101 371 98Q367 96 365 93Q363 89 363 84L363 84Q363 81 363 79L363 79Q364 73 367 68Q371 64 376 62Q381 59 387 59L387 59ZM386 70Q382 70 379 72Q376 75 375 80L375 80Q375 82 375 83L375 83Q375 86 377 88Q379 90 382 90L382 90Q386 90 388 87Q391 85 392 80L392 80Q392 78 392 77L392 77Q392 74 390 72Q389 70 386 70L386 70ZM417 47L429 47L420 100L408 100L417 47ZM465 47L478 47L468 100L456 100L457 93Q455 96 451 98Q448 101 443 101L443 101Q437 101 433 96Q429 92 429 84L429 84Q429 82 429 79L429 79Q430 73 433 68Q436 64 441 62Q445 59 450 59L450 59Q455 59 458 61Q461 63 462 67L462 67L465 47ZM452 70Q448 70 446 73Q443 75 442 80L442 80Q442 81 442 82L442 82Q442 86 444 88Q446 90 449 90L449 90Q453 90 456 87Q459 84 459 80L459 80Q460 79 460 78L460 78Q460 74 458 72Q456 70 452 70L452 70ZM499 50Q499 46 501 44Q504 42 507 42L507 42Q510 42 512 44Q514 45 514 47L514 47Q514 51 511 53Q509 55 505 55L505 55Q502 55 501 53Q499 52 499 50L499 50ZM498 60L510 60L503 100L491 100L498 60ZM531 70L528 85Q528 86 528 87L528 87Q528 88 529 89Q530 89 532 89L532 89L536 89L534 100L528 100Q522 100 519 97Q515 95 515 89L515 89Q515 87 516 85L516 85L518 70L513 70L515 60L520 60L522 50L534 50L533 60L541 60L539 70L531 70ZM563 59Q568 59 571 61Q575 64 575 67L575 67L577 60L589 60L582 100L570 100L571 93Q569 96 565 98Q561 101 557 101L557 101Q550 101 546 96Q543 92 543 85L543 85Q543 82 543 79L543 79Q544 73 547 68Q550 64 554 62Q559 59 563 59L563 59ZM566 70Q562 70 559 73Q556 75 556 80L556 80Q555 81 555 82L555 82Q555 86 557 88Q559 90 563 90L563 90Q566 90 569 87Q572 84 573 80L573 80Q573 79 573 78L573 78Q573 74 571 72Q569 70 566 70L566 70ZM600 47L612 47L603 100L590 100L600 47ZM619 50Q619 46 621 44Q624 42 627 42L627 42Q630 42 632 44Q634 45 634 47L634 47Q634 51 631 53Q629 55 625 55L625 55Q622 55 620 53Q619 52 619 50L619 50ZM618 60L630 60L623 100L611 100L618 60ZM657 59Q665 59 669 64Q674 68 674 75L674 75L661 75Q661 73 659 71Q658 70 655 70L655 70Q652 70 649 72Q647 75 646 80L646 80Q645 81 645 83L645 83Q645 86 647 88Q649 90 651 90L651 90Q654 90 656 88Q658 87 659 84L659 84L672 84Q670 92 664 96Q658 101 650 101L650 101Q642 101 637 96Q633 92 633 84L633 84Q633 82 633 79L633 79Q634 73 638 68Q641 64 646 62Q651 59 657 59L657 59Z"/></svg>