<svg xmlns="http://www.w3.org/2000/svg" viewBox="0.4 -7.12 31.4 7.24"><path d="M0.40 0L1.87-6.93Q2.25-7.02 2.67-7.05Q3.09-7.08 3.50-7.08L3.50-7.08Q3.96-7.08 4.36-6.98Q4.75-6.88 5.04-6.66Q5.33-6.44 5.50-6.09Q5.66-5.75 5.66-5.27L5.66-5.27Q5.66-4.51 5.38-4Q5.11-3.49 4.67-3.19Q4.22-2.88 3.66-2.75Q3.10-2.62 2.53-2.62L2.53-2.62Q2.48-2.62 2.38-2.62Q2.27-2.62 2.15-2.63Q2.03-2.63 1.92-2.64Q1.81-2.65 1.76-2.66L1.76-2.66L1.20 0L0.40 0ZM3.33-6.36L3.33-6.36Q3.10-6.36 2.89-6.34Q2.67-6.33 2.53-6.30L2.53-6.30L1.92-3.39Q1.96-3.37 2.06-3.37Q2.15-3.36 2.25-3.35Q2.36-3.34 2.46-3.34Q2.56-3.34 2.61-3.34L2.61-3.34Q3.04-3.34 3.44-3.43Q3.84-3.52 4.15-3.74Q4.45-3.96 4.63-4.31Q4.82-4.66 4.82-5.19L4.82-5.19Q4.82-5.55 4.70-5.78Q4.58-6.01 4.38-6.13Q4.17-6.26 3.90-6.31Q3.63-6.36 3.33-6.36ZM11.34-7L11.19-6.26L9.12-6.26L7.80 0L7 0L8.32-6.26L6.27-6.26L6.42-7L11.34-7ZM16.62-1.80L16.62-1.80Q16.62-2.16 16.43-2.41Q16.25-2.66 15.97-2.87Q15.69-3.07 15.36-3.26Q15.04-3.45 14.76-3.70Q14.48-3.95 14.29-4.29Q14.11-4.63 14.11-5.13L14.11-5.13Q14.11-5.66 14.30-6.04Q14.50-6.42 14.83-6.66Q15.17-6.90 15.62-7.01Q16.08-7.12 16.59-7.12L16.59-7.12Q17.17-7.12 17.63-7.03Q18.09-6.94 18.35-6.80L18.35-6.80L17.95-6.09Q17.75-6.20 17.35-6.30Q16.96-6.40 16.44-6.40L16.44-6.40Q15.78-6.40 15.36-6.10Q14.95-5.80 14.95-5.23L14.95-5.23Q14.95-4.86 15.13-4.61Q15.32-4.35 15.60-4.15Q15.88-3.94 16.20-3.75Q16.53-3.56 16.81-3.31Q17.09-3.07 17.27-2.73Q17.46-2.39 17.46-1.90L17.46-1.90Q17.46-0.93 16.76-0.41Q16.06 0.12 14.75 0.12L14.75 0.12Q14.08 0.12 13.61 0.01Q13.15-0.11 12.91-0.25L12.91-0.25L13.32-0.98Q13.55-0.85 13.94-0.72Q14.34-0.60 14.88-0.60L14.88-0.60Q15.19-0.60 15.50-0.66Q15.81-0.71 16.06-0.85Q16.31-0.99 16.46-1.22Q16.62-1.45 16.62-1.80ZM22.56-4.89L21.93-1.97Q21.85-1.60 21.82-1.22Q21.79-0.84 21.79-0.51L21.79-0.51Q21.79-0.36 21.79-0.23Q21.79-0.09 21.81 0.02L21.81 0.02L21.25 0.02L21.11-0.85L21.07-0.85Q20.95-0.68 20.77-0.51Q20.60-0.33 20.39-0.19Q20.18-0.05 19.94 0.04Q19.70 0.12 19.43 0.12L19.43 0.12Q18.24 0.12 18.24-1.43L18.24-1.43Q18.24-2.07 18.40-2.73Q18.57-3.39 18.91-3.92Q19.26-4.45 19.80-4.79Q20.35-5.13 21.12-5.13L21.12-5.13Q21.40-5.13 21.80-5.07Q22.21-5 22.56-4.89L22.56-4.89ZM19.66-0.52L19.66-0.52Q19.90-0.52 20.12-0.64Q20.34-0.75 20.54-0.92Q20.73-1.09 20.88-1.28Q21.03-1.48 21.12-1.65L21.12-1.65L21.68-4.35Q21.38-4.49 20.92-4.49L20.92-4.49Q20.46-4.49 20.11-4.22Q19.76-3.95 19.52-3.52Q19.28-3.08 19.16-2.53Q19.04-1.98 19.04-1.43L19.04-1.43Q19.04-1.05 19.19-0.79Q19.34-0.52 19.66-0.52ZM26.72 0L25.97 0L26.64-3.16Q26.68-3.34 26.71-3.52Q26.74-3.69 26.74-3.83L26.74-3.83Q26.74-4.12 26.61-4.30Q26.47-4.48 26.10-4.48L26.10-4.48Q25.84-4.48 25.59-4.36Q25.34-4.24 25.12-4.05Q24.90-3.87 24.73-3.65Q24.55-3.42 24.43-3.20L24.43-3.20L23.77 0L23.02 0L24.08-5L24.60-5L24.56-4.14L24.60-4.14Q24.73-4.30 24.91-4.48Q25.09-4.65 25.32-4.79Q25.54-4.93 25.82-5.03Q26.10-5.12 26.44-5.12L26.44-5.12Q26.94-5.12 27.23-4.88Q27.52-4.64 27.52-4.04L27.52-4.04Q27.52-3.74 27.43-3.32L27.43-3.32L26.72 0ZM30.47-1.41L30.47-1.41Q30.47-1.67 30.34-1.85Q30.21-2.03 30.01-2.18Q29.81-2.32 29.58-2.46Q29.35-2.60 29.15-2.77Q28.95-2.95 28.82-3.19Q28.69-3.42 28.69-3.77L28.69-3.77Q28.69-4.05 28.82-4.29Q28.96-4.54 29.20-4.73Q29.43-4.91 29.75-5.01Q30.08-5.12 30.46-5.12L30.46-5.12Q30.99-5.12 31.28-5.05Q31.57-4.98 31.80-4.85L31.80-4.85L31.55-4.25Q31.15-4.48 30.46-4.48L30.46-4.48Q30.04-4.48 29.77-4.30Q29.49-4.13 29.49-3.77L29.49-3.77Q29.49-3.56 29.62-3.41Q29.75-3.25 29.95-3.11Q30.15-2.97 30.38-2.83Q30.61-2.68 30.81-2.50Q31.01-2.31 31.14-2.06Q31.27-1.81 31.27-1.47L31.27-1.47Q31.27-0.69 30.74-0.29Q30.22 0.12 29.34 0.12L29.34 0.12Q28.89 0.12 28.52 0.03Q28.14-0.06 27.91-0.20L27.91-0.20L28.19-0.83Q28.39-0.70 28.71-0.61Q29.04-0.52 29.39-0.52L29.39-0.52Q29.88-0.52 30.17-0.73Q30.47-0.95 30.47-1.41Z"/></svg>