<svg xmlns="http://www.w3.org/2000/svg" viewBox="0.85 -7.12 31.910000000000004 7.24"><path d="M0.85 0L0.85-6.93Q1.23-7.02 1.67-7.05Q2.11-7.08 2.54-7.08L2.54-7.08Q3-7.08 3.48-6.99Q3.95-6.90 4.34-6.66Q4.73-6.42 4.98-6Q5.22-5.58 5.22-4.93L5.22-4.93Q5.22-4.29 4.99-3.85Q4.76-3.41 4.38-3.14Q4-2.86 3.51-2.74Q3.02-2.62 2.50-2.62L2.50-2.62Q2.45-2.62 2.33-2.62Q2.22-2.62 2.10-2.63Q1.97-2.63 1.85-2.64Q1.73-2.65 1.68-2.66L1.68-2.66L1.68 0L0.85 0ZM2.56-6.36L2.56-6.36Q2.30-6.36 2.06-6.35Q1.82-6.34 1.68-6.30L1.68-6.30L1.68-3.40Q1.73-3.38 1.84-3.38Q1.95-3.37 2.07-3.37Q2.19-3.36 2.30-3.36Q2.41-3.36 2.46-3.36L2.46-3.36Q2.80-3.36 3.14-3.43Q3.47-3.49 3.74-3.66Q4.01-3.83 4.17-4.14Q4.34-4.45 4.34-4.93L4.34-4.93Q4.34-5.34 4.19-5.62Q4.03-5.89 3.77-6.05Q3.52-6.22 3.20-6.29Q2.88-6.36 2.56-6.36ZM10.80-7L10.80-6.26L8.62-6.26L8.62 0L7.79 0L7.79-6.26L5.61-6.26L5.61-7L10.80-7ZM17.26-1.78L17.26-1.78Q17.26-2.20 17.01-2.46Q16.76-2.73 16.39-2.94Q16.01-3.14 15.57-3.32Q15.13-3.50 14.76-3.75Q14.38-4.01 14.13-4.38Q13.88-4.76 13.88-5.34L13.88-5.34Q13.88-6.16 14.45-6.64Q15.02-7.12 16.07-7.12L16.07-7.12Q16.68-7.12 17.18-7.03Q17.68-6.94 17.96-6.80L17.96-6.80L17.71-6.07Q17.48-6.18 17.04-6.28Q16.59-6.38 16.03-6.38L16.03-6.38Q15.37-6.38 15.04-6.08Q14.71-5.79 14.71-5.39L14.71-5.39Q14.71-5 14.96-4.74Q15.21-4.48 15.59-4.28Q15.96-4.07 16.40-3.87Q16.84-3.67 17.21-3.41Q17.59-3.14 17.84-2.77Q18.09-2.40 18.09-1.85L18.09-1.85Q18.09-1.40 17.93-1.04Q17.77-0.68 17.46-0.42Q17.15-0.16 16.71-0.02Q16.27 0.12 15.71 0.12L15.71 0.12Q14.96 0.12 14.47 0.01Q13.98-0.11 13.71-0.25L13.71-0.25L13.99-1Q14.22-0.87 14.67-0.74Q15.12-0.62 15.68-0.62L15.68-0.62Q16.01-0.62 16.30-0.69Q16.59-0.75 16.80-0.90Q17.01-1.04 17.14-1.26Q17.26-1.48 17.26-1.78ZM19.50-4.03L19.25-4.63Q19.63-4.86 20.14-4.97Q20.64-5.08 21.19-5.08L21.19-5.08Q21.71-5.08 22.03-4.94Q22.34-4.80 22.51-4.58Q22.67-4.35 22.73-4.08Q22.78-3.81 22.78-3.54L22.78-3.54Q22.78-2.94 22.75-2.37Q22.72-1.80 22.72-1.29L22.72-1.29Q22.72-0.92 22.75-0.59Q22.78-0.26 22.86 0.02L22.86 0.02L22.27 0.02L22.06-0.68L22.01-0.68Q21.92-0.54 21.79-0.41Q21.65-0.27 21.46-0.17Q21.27-0.06 21.02 0.01Q20.77 0.08 20.45 0.08L20.45 0.08Q20.13 0.08 19.86-0.02Q19.58-0.12 19.38-0.30Q19.18-0.49 19.07-0.75Q18.95-1.01 18.95-1.34L18.95-1.34Q18.95-1.78 19.13-2.08Q19.31-2.37 19.64-2.54Q19.96-2.72 20.42-2.79Q20.87-2.87 21.42-2.87L21.42-2.87Q21.56-2.87 21.70-2.87Q21.83-2.87 21.97-2.85L21.97-2.85Q22.00-3.15 22.00-3.39L22.00-3.39Q22.00-3.94 21.78-4.16Q21.56-4.38 20.98-4.38L20.98-4.38Q20.81-4.38 20.62-4.36Q20.42-4.33 20.22-4.29Q20.01-4.24 19.83-4.17Q19.64-4.11 19.50-4.03L19.50-4.03ZM20.67-0.62L20.67-0.62Q20.95-0.62 21.17-0.70Q21.39-0.77 21.55-0.89Q21.71-1 21.82-1.14Q21.92-1.28 21.97-1.41L21.97-1.41L21.97-2.24Q21.83-2.25 21.69-2.25Q21.54-2.26 21.40-2.26L21.40-2.26Q21.09-2.26 20.80-2.23Q20.50-2.19 20.28-2.10Q20.05-2 19.92-1.83Q19.78-1.67 19.78-1.42L19.78-1.42Q19.78-1.07 20.03-0.84Q20.28-0.62 20.67-0.62ZM28.30 0L27.50 0L27.50-2.85Q27.50-3.63 27.28-4.03Q27.05-4.42 26.45-4.42L26.45-4.42Q25.92-4.42 25.58-4.13Q25.23-3.85 25.09-3.42L25.09-3.42L25.09 0L24.29 0L24.29-5L24.85-5L25.00-4.39L25.04-4.39Q25.28-4.71 25.69-4.92Q26.09-5.12 26.65-5.12L26.65-5.12Q27.06-5.12 27.37-5.03Q27.68-4.93 27.89-4.69Q28.09-4.45 28.20-4.04Q28.30-3.64 28.30-3.02L28.30-3.02L28.30 0ZM31.96-1.36L31.96-1.36Q31.96-1.66 31.78-1.83Q31.60-2 31.34-2.12Q31.07-2.23 30.76-2.33Q30.44-2.44 30.18-2.60Q29.91-2.77 29.73-3.03Q29.55-3.29 29.55-3.73L29.55-3.73Q29.55-4.45 29.96-4.79Q30.37-5.12 31.10-5.12L31.10-5.12Q31.64-5.12 32.01-5.03Q32.37-4.93 32.64-4.80L32.64-4.80L32.45-4.14Q32.22-4.25 31.90-4.33Q31.57-4.42 31.20-4.42L31.20-4.42Q30.76-4.42 30.56-4.27Q30.35-4.12 30.35-3.75L30.35-3.75Q30.35-3.49 30.53-3.35Q30.71-3.20 30.98-3.08Q31.24-2.97 31.56-2.86Q31.87-2.75 32.14-2.57Q32.40-2.39 32.58-2.12Q32.76-1.84 32.76-1.39L32.76-1.39Q32.76-1.07 32.66-0.79Q32.55-0.51 32.33-0.31Q32.11-0.11 31.79 0.01Q31.46 0.12 31.02 0.12L31.02 0.12Q30.45 0.12 30.05 0.01Q29.65-0.10 29.38-0.25L29.38-0.25L29.62-0.93Q29.85-0.80 30.22-0.69Q30.59-0.58 30.97-0.58L30.97-0.58Q31.40-0.58 31.68-0.75Q31.96-0.92 31.96-1.36Z"/></svg>