<svg xmlns="http://www.w3.org/2000/svg" viewBox="1.4400000000000002 45.855999999999995 443.2320000000001 55.00800000000001"><path d="M18.14 80.78L18.14 95.18Q20.09 95.46 22.00 96.00Q23.90 96.54 25.42 97.26L25.42 97.26L25.42 100L1.44 100L1.44 97.26Q2.81 96.47 4.36 95.97Q5.90 95.46 7.34 95.18L7.34 95.18L7.34 54.42Q5.69 54.14 4.18 53.60Q2.66 53.06 1.44 52.34L1.44 52.34L1.44 49.60L10.51 49.60Q13.39 49.60 17.10 49.31Q20.81 49.02 23.90 49.02L23.90 49.02Q27.72 49.02 31.36 49.78Q34.99 50.54 37.84 52.34Q40.68 54.14 42.41 57.12Q44.14 60.11 44.14 64.58L44.14 64.58Q44.14 68.82 42.44 71.92Q40.75 75.02 37.94 77.03Q35.14 79.05 31.46 80.02Q27.79 80.99 23.90 80.99L23.90 80.99Q23.54 80.99 22.75 80.99Q21.96 80.99 21.06 80.96Q20.16 80.92 19.33 80.88Q18.50 80.85 18.14 80.78L18.14 80.78ZM22.03 53.70L22.03 53.70Q20.59 53.70 19.76 53.81Q18.94 53.92 18.14 54.14L18.14 54.14L18.14 76.02Q18.79 76.24 20.09 76.28Q21.38 76.31 22.18 76.31L22.18 76.31Q24.12 76.31 25.92 75.66Q27.72 75.02 29.12 73.65Q30.53 72.28 31.39 70.12Q32.26 67.96 32.26 64.94L32.26 64.94Q32.26 59.18 29.45 56.44Q26.64 53.70 22.03 53.70ZM82.44 97.26L82.44 100L57.67 100L57.67 97.26Q59.11 96.69 60.95 96.08Q62.78 95.46 64.66 95.18L64.66 95.18L64.66 54.28L56.30 54.28L51.70 66.59L48.74 66.59Q48.46 65.15 48.17 62.92Q47.88 60.69 47.66 58.31Q47.45 55.94 47.30 53.60Q47.16 51.26 47.16 49.60L47.16 49.60L93.02 49.60Q93.02 51.33 92.88 53.63Q92.74 55.94 92.52 58.31Q92.30 60.69 92.02 62.88Q91.73 65.08 91.44 66.59L91.44 66.59L88.42 66.59L83.81 54.28L75.46 54.28L75.46 95.18Q77.33 95.54 79.16 96.04Q81 96.54 82.44 97.26L82.44 97.26ZM121.90 83.44L124.85 94.02Q125.64 94.82 127.08 95.50Q128.52 96.18 130.90 96.18L130.90 96.18Q134.86 96.18 137.48 94.13Q140.11 92.08 140.11 88.41L140.11 88.41Q140.11 85.74 138.42 83.94Q136.73 82.14 134.14 80.63Q131.54 79.12 128.59 77.64Q125.64 76.17 123.05 74.15Q120.46 72.14 118.76 69.36Q117.07 66.59 117.07 62.49L117.07 62.49Q117.07 58.96 118.37 56.37Q119.66 53.78 121.93 52.08Q124.20 50.39 127.30 49.56Q130.39 48.74 133.99 48.74L133.99 48.74Q138.38 48.74 142.16 49.35Q145.94 49.96 148.97 51.26L148.97 51.26Q148.90 52.70 148.72 54.57Q148.54 56.44 148.25 58.28Q147.96 60.11 147.64 61.73Q147.31 63.35 147.02 64.43L147.02 64.43L144.07 64.43L140.76 54.57Q139.90 54.14 138.20 53.78Q136.51 53.42 134.71 53.42L134.71 53.42Q131.69 53.42 129.60 55.00Q127.51 56.58 127.51 59.61L127.51 59.61Q127.51 62.34 129.24 64.25Q130.97 66.16 133.56 67.74Q136.15 69.33 139.21 70.88Q142.27 72.42 144.86 74.44Q147.46 76.46 149.18 79.16Q150.91 81.86 150.91 85.82L150.91 85.82Q150.91 93.02 146.05 96.94Q141.19 100.86 131.76 100.86L131.76 100.86Q129.46 100.86 127.12 100.58Q124.78 100.29 122.69 99.78Q120.60 99.28 118.98 98.70Q117.36 98.13 116.57 97.48L116.57 97.48Q116.64 95.82 116.93 93.92Q117.22 92.01 117.54 90.10Q117.86 88.19 118.22 86.46Q118.58 84.74 118.94 83.44L118.94 83.44L121.90 83.44ZM187.34 92.51L188.71 93.95Q188.14 95.18 186.88 96.44Q185.62 97.70 183.78 98.67Q181.94 99.64 179.53 100.25Q177.12 100.86 174.31 100.86L174.31 100.86Q169.85 100.86 166.39 99.53Q162.94 98.20 160.63 95.72Q158.33 93.23 157.14 89.78Q155.95 86.32 155.95 82L155.95 82Q155.95 72.78 160.78 67.96Q165.60 63.14 174.17 63.14L174.17 63.14Q177.84 63.14 181.04 64.14Q184.25 65.15 186.37 67.46Q188.50 69.76 189.32 73.50Q190.15 77.25 189.22 82.65L189.22 82.65L167.11 82.65Q167.18 88.34 170.03 91.72Q172.87 95.10 178.42 95.10L178.42 95.10Q180.79 95.10 183.35 94.38Q185.90 93.66 187.34 92.51L187.34 92.51ZM173.88 67.24L173.88 67.24Q172.44 67.24 171.32 67.74Q170.21 68.25 169.38 69.58Q168.55 70.91 168.05 73.18Q167.54 75.45 167.33 78.90L167.33 78.90L178.92 78.90Q179.42 73.29 178.27 70.26Q177.12 67.24 173.88 67.24ZM223.13 72.28L213.26 72.28Q212.40 72.71 211.25 73.72Q210.10 74.73 209.16 77.03L209.16 77.03L209.16 95.46Q210.60 95.61 212.04 96.00Q213.48 96.40 214.92 97.19L214.92 97.19L214.92 100L194.04 100L194.04 97.19Q195.34 96.47 196.49 96.11Q197.64 95.75 198.79 95.46L198.79 95.46L198.79 69.11L194.04 68.54L194.04 65.73Q195.19 65.22 196.88 64.79Q198.58 64.36 200.38 64.04Q202.18 63.71 203.87 63.50Q205.56 63.28 206.71 63.14L206.71 63.14L209.16 63.14L209.16 72.71L209.45 72.71Q210.02 71.13 211.14 69.40Q212.26 67.67 213.77 66.23Q215.28 64.79 217.08 63.93Q218.88 63.06 220.82 63.14L220.82 63.14Q221.62 64.14 222.19 65.98Q222.77 67.82 223.13 69.47L223.13 69.47L223.13 72.28ZM245.52 97.19L245.52 100L225.65 100L225.65 97.19Q226.73 96.62 227.88 96.22Q229.03 95.82 230.40 95.46L230.40 95.46L230.40 69.11L225.65 68.54L225.65 65.73Q226.73 65.30 228.35 64.86Q229.97 64.43 231.77 64.11Q233.57 63.78 235.30 63.53Q237.02 63.28 238.32 63.14L238.32 63.14L240.77 63.14L240.77 95.46Q242.21 95.82 243.36 96.22Q244.51 96.62 245.52 97.19L245.52 97.19ZM229.18 52.19L229.18 52.19Q229.18 49.67 230.90 48.23Q232.63 46.79 235.37 46.79L235.37 46.79Q238.10 46.79 239.83 48.23Q241.56 49.67 241.56 52.19L241.56 52.19Q241.56 54.64 239.83 56.08Q238.10 57.52 235.37 57.52L235.37 57.52Q232.63 57.52 230.90 56.08Q229.18 54.64 229.18 52.19ZM270.43 45.86L270.43 45.86Q273.38 45.86 275.72 46.40Q278.06 46.94 279.29 47.44L279.29 47.44Q279.07 49.82 278.35 52.34Q277.63 54.86 277.06 56.51L277.06 56.51L274.61 56.51L271.44 49.67Q269.57 49.67 268.31 50.07Q267.05 50.46 266.29 51.62Q265.54 52.77 265.18 54.89Q264.82 57.02 264.82 60.40L264.82 60.40L264.82 64.00L272.45 64.00L272.45 68.54L264.82 68.54L264.82 95.46Q268.56 95.90 271.73 97.19L271.73 97.19L271.73 100L249.70 100L249.70 97.19Q251.93 95.90 254.45 95.46L254.45 95.46L254.45 68.54L248.98 68.54L248.98 65.73Q251.50 64.14 254.45 63.35L254.45 63.35L254.45 60.83Q254.45 56.37 255.71 53.45Q256.97 50.54 259.13 48.84Q261.29 47.15 264.20 46.50Q267.12 45.86 270.43 45.86ZM298.37 97.91L298.37 51.83L292.90 51.26L292.90 48.45Q293.98 48.02 295.74 47.58Q297.50 47.15 299.41 46.83Q301.32 46.50 303.16 46.25Q304.99 46.00 306.29 45.86L306.29 45.86L308.74 45.86L308.74 70.77L308.88 70.77Q310.32 67.17 313.27 65.15Q316.22 63.14 320.26 63.14L320.26 63.14Q326.59 63.14 330.12 67.53Q333.65 71.92 333.65 80.85L333.65 80.85Q333.65 90.71 328.43 95.68Q323.21 100.65 313.13 100.65L313.13 100.65Q311.33 100.65 309.10 100.40Q306.86 100.14 304.78 99.78Q302.69 99.42 300.92 98.92Q299.16 98.42 298.37 97.91L298.37 97.91ZM315.58 68.90L315.58 68.90Q312.84 68.90 311.18 70.88Q309.53 72.86 308.74 75.88L308.74 75.88L308.74 94.96Q309.74 95.68 311.22 96.11Q312.70 96.54 314.57 96.54L314.57 96.54Q318.67 96.54 320.58 92.87Q322.49 89.20 322.49 81.35L322.49 81.35Q322.49 75.66 320.94 72.28Q319.39 68.90 315.58 68.90ZM338.11 82L338.11 82Q338.11 77.61 339.44 74.12Q340.78 70.62 343.26 68.18Q345.74 65.73 349.27 64.43Q352.80 63.14 357.26 63.14L357.26 63.14Q362.30 63.14 365.94 64.54Q369.58 65.94 371.92 68.43Q374.26 70.91 375.34 74.40Q376.42 77.90 376.42 82L376.42 82Q376.42 86.39 375.12 89.88Q373.82 93.38 371.34 95.82Q368.86 98.27 365.29 99.57Q361.73 100.86 357.26 100.86L357.26 100.86Q352.37 100.86 348.77 99.46Q345.17 98.06 342.79 95.57Q340.42 93.09 339.26 89.60Q338.11 86.10 338.11 82ZM349.27 82L349.27 82Q349.27 85.24 349.67 87.94Q350.06 90.64 351.07 92.51Q352.08 94.38 353.81 95.43Q355.54 96.47 358.27 96.47L358.27 96.47Q359.86 96.47 361.15 95.72Q362.45 94.96 363.38 93.27Q364.32 91.58 364.79 88.80Q365.26 86.03 365.26 82L365.26 82Q365.26 78.69 364.86 76.02Q364.46 73.36 363.49 71.49Q362.52 69.62 360.86 68.57Q359.21 67.53 356.69 67.53L356.69 67.53Q354.82 67.53 353.45 68.28Q352.08 69.04 351.14 70.73Q350.21 72.42 349.74 75.20Q349.27 77.97 349.27 82ZM400.75 97.19L400.75 100L380.88 100L380.88 97.19Q383.26 96.04 385.63 95.46L385.63 95.46L385.63 51.83L380.16 51.26L380.16 48.45Q381.10 48.02 382.75 47.58Q384.41 47.15 386.32 46.83Q388.22 46.50 390.13 46.25Q392.04 46.00 393.55 45.86L393.55 45.86L396.00 45.86L396.00 95.46Q398.38 96.04 400.75 97.19L400.75 97.19ZM429.62 92.87L429.34 92.87Q428.98 94.46 428.04 95.90Q427.10 97.34 425.81 98.45Q424.51 99.57 422.86 100.22Q421.20 100.86 419.33 100.86L419.33 100.86Q412.20 100.86 408.49 96.36Q404.78 91.86 404.78 82.58L404.78 82.58Q404.78 77.82 406.08 74.26Q407.38 70.70 409.72 68.25Q412.06 65.80 415.37 64.58Q418.68 63.35 422.71 63.35L422.71 63.35Q424.01 63.35 424.91 63.42Q425.81 63.50 426.56 63.60Q427.32 63.71 428.00 63.96Q428.69 64.22 429.55 64.50L429.55 64.50L429.55 51.83L424.08 51.26L424.08 48.45Q425.09 48.02 426.85 47.66Q428.62 47.30 430.56 46.97Q432.50 46.65 434.38 46.36Q436.25 46.07 437.47 45.86L437.47 45.86L439.92 45.86L439.92 94.89L444.67 95.46L444.67 97.98Q443.66 98.49 442.08 98.92Q440.50 99.35 438.77 99.71Q437.04 100.07 435.42 100.32Q433.80 100.58 432.72 100.72L432.72 100.72L430.27 100.72L429.62 92.87ZM422.78 95.10L422.78 95.10Q425.30 95.10 427.03 93.52Q428.76 91.94 429.55 88.12L429.55 88.12L429.55 68.75Q428.62 68.18 427.21 67.82Q425.81 67.46 423.72 67.46L423.72 67.46Q419.54 67.46 417.74 71.24Q415.94 75.02 415.94 82.22L415.94 82.22Q415.94 88.05 417.53 91.58Q419.11 95.10 422.78 95.10Z"/></svg>