<svg xmlns="http://www.w3.org/2000/svg" viewBox="6.408 48.663999999999994 835.4880000000002 66.24000000000001"><path d="M6 100L6 50Q9 49 13 49Q17 49 20 49L20 49Q24 49 27 50Q31 50 34 52Q37 54 39 57Q41 60 41 65L41 65Q41 69 40 72Q38 76 35 78Q32 80 28 81Q24 81 20 81L20 81Q20 81 19 81Q18 81 17 81Q16 81 15 81Q14 81 14 81L14 81L14 100L6 100ZM20 55L20 55Q18 55 16 55Q15 55 14 56L14 56L14 75Q14 75 15 75Q16 75 17 75Q17 75 18 75Q19 75 20 75L20 75Q22 75 25 75Q27 75 29 73Q31 72 33 70Q34 68 34 65L34 65Q34 62 33 60Q31 58 29 57Q27 56 25 56Q23 55 20 55ZM86 50L86 56L69 56L69 100L61 100L61 56L44 56L44 50L86 50ZM136 87L136 87Q136 84 134 82Q132 80 129 79Q126 78 123 77Q120 76 117 74Q114 72 112 69Q110 67 110 62L110 62Q110 56 114 52Q119 49 127 49L127 49Q132 49 136 49Q140 50 142 51L142 51L140 57Q138 56 135 56Q131 55 127 55L127 55Q122 55 120 57Q117 59 117 62L117 62Q117 65 119 66Q121 68 124 69Q127 71 130 72Q134 73 137 75Q140 77 141 79Q143 82 143 86L143 86Q143 89 142 92Q141 95 138 97Q136 99 132 100Q129 101 125 101L125 101Q119 101 115 100Q111 99 109 98L109 98L111 92Q113 93 116 94Q120 95 124 95L124 95Q127 95 129 94Q131 94 133 93Q134 92 135 90Q136 89 136 87ZM155 70L153 65Q159 61 169 61L169 61Q173 61 176 63Q178 64 180 65Q181 67 182 69Q182 71 182 74L182 74Q182 77 182 81Q182 85 182 90L182 90Q182 93 182 95Q182 98 183 100L183 100L178 100L176 94L175 94Q175 95 173 97Q172 98 171 99Q169 99 167 100Q165 101 162 101L162 101Q160 101 157 100Q155 99 154 98Q152 96 151 94Q150 92 150 90L150 90Q150 87 152 84Q153 82 155 80Q157 79 160 78Q163 77 166 77L166 77Q168 77 170 78Q171 78 172 78Q173 78 174 78Q175 78 175 78L175 78Q175 77 176 76Q176 75 176 74L176 74Q176 72 175 71Q175 69 174 69Q173 68 171 67Q169 67 167 67L167 67Q166 67 164 67Q162 68 161 68Q159 68 158 69Q156 69 155 70L155 70ZM175 89L175 83Q175 83 174 83Q173 83 172 82Q172 82 170 82Q169 82 167 82L167 82Q162 82 160 84Q157 85 157 89L157 89Q157 92 159 94Q161 95 165 95L165 95Q167 95 169 94Q171 94 172 93Q173 92 174 91Q175 90 175 89L175 89ZM229 100L222 100L222 79Q222 73 220 70Q218 67 213 67L213 67Q209 67 206 69Q203 72 202 75L202 75L202 100L195 100L195 62L200 62L201 67L202 67Q204 65 207 63Q210 61 215 61L215 61Q218 61 221 62Q223 63 225 65Q227 66 228 70Q229 73 229 78L229 78L229 100ZM260 89L260 89Q260 88 260 87Q259 86 258 85Q257 85 255 84Q254 84 252 83L252 83Q250 83 248 82Q246 81 244 80Q242 79 241 77Q240 75 240 72L240 72Q240 67 243 64Q247 61 253 61L253 61Q257 61 260 62Q264 63 266 64L266 64L264 69Q262 69 260 68Q257 67 254 67L254 67Q250 67 248 68Q247 69 247 72L247 72Q247 73 247 74Q248 75 249 76Q250 76 252 77Q253 77 255 78L255 78Q257 78 259 79Q261 80 263 81Q265 82 266 84Q267 86 267 89L267 89Q267 94 263 98Q260 101 253 101L253 101Q248 101 245 100Q241 99 239 98L239 98L241 92Q243 93 246 94Q249 95 252 95L252 95Q256 95 258 94Q260 93 260 89ZM332 92L334 98Q331 100 328 100Q324 101 320 101L320 101Q315 101 311 99Q307 98 303 95Q300 91 298 87Q296 82 296 75L296 75Q296 68 298 63Q300 58 304 55Q307 52 312 50Q316 49 320 49L320 49Q325 49 328 49Q331 50 333 50L333 50L331 57Q328 55 321 55L321 55Q317 55 314 56Q311 57 309 59Q307 62 305 66Q304 69 304 75L304 75Q304 80 305 83Q306 87 309 90Q311 92 314 93Q318 95 322 95L322 95Q325 95 328 94Q330 93 332 92L332 92ZM343 70L341 65Q348 61 357 61L357 61Q362 61 364 63Q367 64 368 65Q370 67 370 69Q371 71 371 74L371 74Q371 77 371 81Q370 85 370 90L370 90Q370 93 371 95Q371 98 371 100L371 100L367 100L365 94L364 94Q363 95 362 97Q361 98 359 99Q358 99 356 100Q354 101 351 101L351 101Q348 101 346 100Q344 99 342 98Q341 96 340 94Q339 92 339 90L339 90Q339 87 340 84Q342 82 344 80Q346 79 349 78Q352 77 355 77L355 77Q357 77 358 78Q360 78 361 78Q362 78 363 78Q363 78 364 78L364 78Q364 77 364 76Q364 75 364 74L364 74Q364 72 364 71Q363 69 362 69Q361 68 360 67Q358 67 356 67L356 67Q354 67 353 67Q351 68 349 68Q348 68 346 69Q345 69 343 70L343 70ZM364 89L364 83Q363 83 363 83Q362 83 361 82Q360 82 359 82Q357 82 356 82L356 82Q351 82 348 84Q346 85 346 89L346 89Q346 92 348 94Q350 95 353 95L353 95Q356 95 357 94Q359 94 361 93Q362 92 363 91Q364 90 364 89L364 89ZM384 114L384 62L388 62L390 67L390 67Q392 64 395 63Q398 61 402 61L402 61Q410 61 414 66Q418 70 418 80L418 80Q418 85 417 89Q416 93 413 95Q411 98 407 100Q404 101 399 101L399 101Q398 101 397 101Q395 101 394 101Q393 100 392 100Q391 100 390 99L390 99L390 114L384 114ZM401 67L401 67Q396 67 394 69Q391 71 390 76L390 76L390 93Q392 94 394 95Q396 95 399 95L399 95Q405 95 408 92Q411 88 411 80L411 80Q411 74 409 70Q407 67 401 67ZM425 68L425 62L431 62L431 55L438 53L438 62L449 62L449 68L438 68L438 87Q438 92 439 94Q440 95 443 95L443 95Q444 95 446 95Q447 95 449 94L449 94L451 99Q448 100 446 100Q443 101 440 101L440 101Q435 101 433 98Q431 96 431 89L431 89L431 68L425 68ZM460 100L460 62L467 62L467 100L460 100ZM459 53L459 53Q459 52 460 50Q461 49 463 49L463 49Q466 49 467 50Q468 52 468 53L468 53Q468 55 467 56Q466 57 463 57L463 57Q461 57 460 56Q459 55 459 53ZM479 81L479 81Q479 76 480 73Q482 69 484 66Q486 64 490 62Q493 61 498 61L498 61Q502 61 506 63Q509 64 511 67Q514 70 515 73Q516 77 516 81L516 81Q516 86 515 89Q513 93 511 96Q509 98 505 100Q502 101 498 101L498 101Q493 101 489 99Q486 98 484 95Q481 93 480 89Q479 85 479 81ZM486 81L486 81Q486 84 487 86Q487 89 489 91Q490 93 492 94Q494 95 498 95L498 95Q509 95 509 81L509 81Q509 78 508 76Q508 73 506 71Q505 69 503 68Q501 67 498 67L498 67Q492 67 489 70Q486 74 486 81ZM560 100L553 100L553 79Q553 73 551 70Q550 67 545 67L545 67Q540 67 537 69Q534 72 533 75L533 75L533 100L527 100L527 62L531 62L532 67L533 67Q535 65 539 63Q542 61 547 61L547 61Q550 61 552 62Q555 63 557 65Q558 66 559 70Q560 73 560 78L560 78L560 100ZM615 62L613 68Q612 68 611 68Q610 68 609 68L609 68Q605 68 603 69Q601 71 600 74L600 74L600 100L594 100L594 62L598 62L600 67L600 67Q602 64 604 63Q606 61 610 61L610 61Q611 61 612 62Q613 62 615 62L615 62ZM649 92L652 97Q649 99 645 100Q642 101 637 101L637 101Q633 101 629 100Q626 98 623 96Q621 93 620 89Q619 86 619 81L619 81Q619 71 624 66Q629 61 637 61L637 61Q640 61 643 62Q646 62 648 64Q650 66 652 69Q653 72 653 76L653 76Q653 78 653 79Q653 81 653 82L653 82L626 82Q626 89 629 92Q632 95 639 95L639 95Q642 95 645 94Q648 93 649 92L649 92ZM626 77L647 77Q647 71 644 69Q642 67 637 67L637 67Q632 67 629 69Q627 71 626 77L626 77ZM696 63L696 100Q696 108 691 111Q687 115 678 115L678 115Q674 115 671 114Q668 114 665 113L665 113L667 107Q668 107 669 108Q670 108 672 108Q673 109 674 109Q676 109 677 109L677 109Q681 109 683 109Q685 108 687 107Q688 105 689 103Q689 101 689 99L689 99L689 96L688 96Q687 98 684 99Q681 100 677 100L677 100Q669 100 665 96Q661 91 661 81L661 81Q661 72 666 66Q671 61 681 61L681 61Q686 61 689 62Q693 62 696 63L696 63ZM679 95L679 95Q683 95 686 92Q688 90 689 86L689 86L689 68Q687 67 685 67Q683 67 680 67L680 67Q675 67 671 70Q668 74 668 81L668 81Q668 88 671 91Q673 95 679 95ZM708 62L715 62L715 83Q715 86 715 88Q716 91 717 92Q718 94 719 95Q721 95 723 95L723 95Q728 95 730 93Q733 90 735 87L735 87L735 62L741 62L741 89Q741 92 741 95Q742 98 742 100L742 100L738 100L736 94L735 94Q733 97 730 99Q727 101 722 101L722 101Q718 101 716 100Q713 99 712 98Q710 96 709 92Q708 89 708 85L708 85L708 62ZM762 50L762 90Q762 93 763 94Q764 95 766 95L766 95Q768 95 769 95Q770 95 771 95L771 95L772 100Q771 100 770 100Q769 100 768 101Q767 101 766 101Q765 101 764 101L764 101Q760 101 758 99Q756 97 756 92L756 92L756 50L762 50ZM780 70L779 65Q785 61 795 61L795 61Q799 61 802 63Q804 64 806 65Q807 67 808 69Q808 71 808 74L808 74Q808 77 808 81Q807 85 807 90L807 90Q807 93 808 95Q808 98 808 100L808 100L804 100L802 94L801 94Q800 95 799 97Q798 98 796 99Q795 99 793 100Q791 101 788 101L788 101Q785 101 783 100Q781 99 779 98Q778 96 777 94Q776 92 776 90L776 90Q776 87 777 84Q779 82 781 80Q783 79 786 78Q789 77 792 77L792 77Q794 77 795 78Q797 78 798 78Q799 78 800 78Q800 78 801 78L801 78Q801 77 801 76Q801 75 801 74L801 74Q801 72 801 71Q800 69 800 69Q799 68 797 67Q795 67 793 67L793 67Q791 67 790 67Q788 68 787 68Q785 68 783 69Q782 69 780 70L780 70ZM801 89L801 83Q800 83 800 83Q799 83 798 82Q797 82 796 82Q795 82 793 82L793 82Q788 82 786 84Q783 85 783 89L783 89Q783 92 785 94Q787 95 790 95L790 95Q793 95 794 94Q796 94 798 93Q799 92 800 91Q801 90 801 89L801 89ZM842 62L841 68Q839 68 838 68Q837 68 836 68L836 68Q832 68 830 69Q828 71 827 74L827 74L827 100L821 100L821 62L825 62L827 67L827 67Q829 64 831 63Q833 61 837 61L837 61Q838 61 839 62Q841 62 842 62L842 62Z"/></svg>