<svg xmlns="http://www.w3.org/2000/svg" viewBox="6.120000000000001 48.736 470.3760000000001 66.52799999999999"><path d="M6.12 100L6.12 50.10Q8.86 49.46 12.02 49.24Q15.19 49.02 18.29 49.02L18.29 49.02Q21.60 49.02 25.02 49.67Q28.44 50.32 31.25 52.05Q34.06 53.78 35.82 56.80Q37.58 59.82 37.58 64.50L37.58 64.50Q37.58 69.11 35.93 72.28Q34.27 75.45 31.54 77.43Q28.80 79.41 25.27 80.27Q21.74 81.14 18.00 81.14L18.00 81.14Q17.64 81.14 16.81 81.14Q15.98 81.14 15.08 81.10Q14.18 81.06 13.32 80.99Q12.46 80.92 12.10 80.85L12.10 80.85L12.10 100L6.12 100ZM18.43 54.21L18.43 54.21Q16.56 54.21 14.83 54.28Q13.10 54.35 12.10 54.64L12.10 54.64L12.10 75.52Q12.46 75.66 13.25 75.70Q14.04 75.74 14.90 75.77Q15.77 75.81 16.56 75.81Q17.35 75.81 17.71 75.81L17.71 75.81Q20.16 75.81 22.57 75.34Q24.98 74.87 26.93 73.65Q28.87 72.42 30.06 70.19Q31.25 67.96 31.25 64.50L31.25 64.50Q31.25 61.55 30.13 59.57Q29.02 57.59 27.18 56.40Q25.34 55.22 23.04 54.71Q20.74 54.21 18.43 54.21ZM77.76 49.60L77.76 54.93L62.06 54.93L62.06 100L56.09 100L56.09 54.93L40.39 54.93L40.39 49.60L77.76 49.60ZM124.27 87.18L124.27 87.18Q124.27 84.16 122.47 82.25Q120.67 80.34 117.97 78.87Q115.27 77.39 112.10 76.10Q108.94 74.80 106.24 72.96Q103.54 71.13 101.74 68.43Q99.94 65.73 99.94 61.55L99.94 61.55Q99.94 55.65 104.04 52.19Q108.14 48.74 115.70 48.74L115.70 48.74Q120.10 48.74 123.70 49.38Q127.30 50.03 129.31 51.04L129.31 51.04L127.51 56.30Q125.86 55.50 122.65 54.78Q119.45 54.06 115.42 54.06L115.42 54.06Q110.66 54.06 108.29 56.19Q105.91 58.31 105.91 61.19L105.91 61.19Q105.91 64.00 107.71 65.87Q109.51 67.74 112.21 69.22Q114.91 70.70 118.08 72.14Q121.25 73.58 123.95 75.48Q126.65 77.39 128.45 80.06Q130.25 82.72 130.25 86.68L130.25 86.68Q130.25 89.92 129.10 92.51Q127.94 95.10 125.71 96.98Q123.48 98.85 120.31 99.86Q117.14 100.86 113.11 100.86L113.11 100.86Q107.71 100.86 104.18 100.04Q100.66 99.21 98.71 98.20L98.71 98.20L100.73 92.80Q102.38 93.74 105.62 94.64Q108.86 95.54 112.90 95.54L112.90 95.54Q115.27 95.54 117.36 95.07Q119.45 94.60 120.96 93.56Q122.47 92.51 123.37 90.93Q124.27 89.34 124.27 87.18ZM140.40 70.98L138.60 66.66Q141.34 65.01 144.97 64.22Q148.61 63.42 152.57 63.42L152.57 63.42Q156.31 63.42 158.58 64.43Q160.85 65.44 162.04 67.06Q163.22 68.68 163.62 70.62Q164.02 72.57 164.02 74.51L164.02 74.51Q164.02 78.83 163.80 82.94Q163.58 87.04 163.58 90.71L163.58 90.71Q163.58 93.38 163.80 95.75Q164.02 98.13 164.59 100.14L164.59 100.14L160.34 100.14L158.83 95.10L158.47 95.10Q157.82 96.11 156.85 97.08Q155.88 98.06 154.51 98.81Q153.14 99.57 151.34 100.07Q149.54 100.58 147.24 100.58L147.24 100.58Q144.94 100.58 142.96 99.86Q140.98 99.14 139.54 97.80Q138.10 96.47 137.27 94.60Q136.44 92.73 136.44 90.35L136.44 90.35Q136.44 87.18 137.74 85.06Q139.03 82.94 141.37 81.68Q143.71 80.42 146.99 79.88Q150.26 79.34 154.22 79.34L154.22 79.34Q155.23 79.34 156.20 79.34Q157.18 79.34 158.18 79.48L158.18 79.48Q158.40 77.32 158.40 75.59L158.40 75.59Q158.40 71.63 156.82 70.05Q155.23 68.46 151.06 68.46L151.06 68.46Q149.83 68.46 148.43 68.64Q147.02 68.82 145.55 69.15Q144.07 69.47 142.74 69.94Q141.41 70.41 140.40 70.98L140.40 70.98ZM148.82 95.54L148.82 95.54Q150.84 95.54 152.42 95.00Q154.01 94.46 155.16 93.63Q156.31 92.80 157.07 91.79Q157.82 90.78 158.18 89.85L158.18 89.85L158.18 83.87Q157.18 83.80 156.13 83.76Q155.09 83.73 154.08 83.73L154.08 83.73Q151.85 83.73 149.72 83.98Q147.60 84.23 145.98 84.92Q144.36 85.60 143.39 86.79Q142.42 87.98 142.42 89.78L142.42 89.78Q142.42 92.30 144.22 93.92Q146.02 95.54 148.82 95.54ZM203.76 100L198.00 100L198.00 79.48Q198.00 73.86 196.38 71.02Q194.76 68.18 190.44 68.18L190.44 68.18Q186.62 68.18 184.14 70.23Q181.66 72.28 180.65 75.38L180.65 75.38L180.65 100L174.89 100L174.89 64.00L178.92 64.00L180.00 68.39L180.29 68.39Q182.02 66.09 184.93 64.61Q187.85 63.14 191.88 63.14L191.88 63.14Q194.83 63.14 197.06 63.82Q199.30 64.50 200.77 66.23Q202.25 67.96 203.00 70.88Q203.76 73.79 203.76 78.26L203.76 78.26L203.76 100ZM230.11 90.21L230.11 90.21Q230.11 88.05 228.82 86.82Q227.52 85.60 225.61 84.77Q223.70 83.94 221.44 83.19Q219.17 82.43 217.26 81.24Q215.35 80.06 214.06 78.18Q212.76 76.31 212.76 73.14L212.76 73.14Q212.76 67.96 215.71 65.55Q218.66 63.14 223.92 63.14L223.92 63.14Q227.81 63.14 230.44 63.82Q233.06 64.50 235.01 65.44L235.01 65.44L233.64 70.19Q231.98 69.40 229.64 68.79Q227.30 68.18 224.64 68.18L224.64 68.18Q221.47 68.18 220.00 69.26Q218.52 70.34 218.52 73L218.52 73Q218.52 74.87 219.82 75.92Q221.11 76.96 223.02 77.79Q224.93 78.62 227.20 79.41Q229.46 80.20 231.37 81.50Q233.28 82.79 234.58 84.77Q235.87 86.75 235.87 89.99L235.87 89.99Q235.87 92.30 235.12 94.31Q234.36 96.33 232.78 97.77Q231.19 99.21 228.85 100.04Q226.51 100.86 223.34 100.86L223.34 100.86Q219.24 100.86 216.36 100.07Q213.48 99.28 211.54 98.20L211.54 98.20L213.26 93.30Q214.92 94.24 217.58 95.03Q220.25 95.82 222.98 95.82L222.98 95.82Q226.08 95.82 228.10 94.60Q230.11 93.38 230.11 90.21ZM282.02 64.00L280.80 69.54Q278.64 68.82 276.70 68.82L276.70 68.82Q273.60 68.82 271.80 70.52Q270.00 72.21 269.57 74.80L269.57 74.80L269.57 100L263.81 100L263.81 64.00L267.84 64.00L268.92 68.39L269.21 68.39Q270.58 65.94 272.48 64.61Q274.39 63.28 277.34 63.28L277.34 63.28Q279.43 63.28 282.02 64.00L282.02 64.00ZM312.41 92.94L314.57 97.12Q312.41 98.85 309.13 99.86Q305.86 100.86 302.18 100.86L302.18 100.86Q298.08 100.86 295.06 99.53Q292.03 98.20 290.09 95.72Q288.14 93.23 287.21 89.78Q286.27 86.32 286.27 82L286.27 82Q286.27 72.78 290.38 67.96Q294.48 63.14 302.11 63.14L302.11 63.14Q304.56 63.14 307.01 63.68Q309.46 64.22 311.40 65.73Q313.34 67.24 314.57 70.01Q315.79 72.78 315.79 77.32L315.79 77.32Q315.79 79.70 315.36 82.58L315.36 82.58L292.25 82.58Q292.25 85.74 292.90 88.19Q293.54 90.64 294.91 92.33Q296.28 94.02 298.48 94.92Q300.67 95.82 303.84 95.82L303.84 95.82Q306.29 95.82 308.74 94.96Q311.18 94.10 312.41 92.94L312.41 92.94ZM302.18 68.18L302.18 68.18Q297.94 68.18 295.38 70.41Q292.82 72.64 292.32 78.04L292.32 78.04L310.18 78.04Q310.18 72.57 308.09 70.37Q306.00 68.18 302.18 68.18ZM351.65 65.51L351.65 101.66Q351.65 108.64 347.94 111.95Q344.23 115.26 336.96 115.26L336.96 115.26Q332.64 115.26 330.01 114.72Q327.38 114.18 325.51 113.32L325.51 113.32L327.02 108.42Q328.68 109.07 330.70 109.65Q332.71 110.22 335.95 110.22L335.95 110.22Q338.98 110.22 340.88 109.68Q342.79 109.14 343.94 107.88Q345.10 106.62 345.53 104.64Q345.96 102.66 345.96 99.93L345.96 99.93L345.96 96.47L345.67 96.47Q344.23 98.56 342.00 99.68Q339.77 100.79 336.17 100.79L336.17 100.79Q328.90 100.79 325.48 96.26Q322.06 91.72 322.06 82.14L322.06 82.14Q322.06 72.93 326.45 68.14Q330.84 63.35 339.41 63.35L339.41 63.35Q343.51 63.35 346.43 64.00Q349.34 64.65 351.65 65.51L351.65 65.51ZM337.18 95.75L337.18 95.75Q340.85 95.75 342.94 93.92Q345.02 92.08 345.89 88.19L345.89 88.19L345.89 69.76Q343.01 68.39 338.54 68.39L338.54 68.39Q333.65 68.39 330.84 71.70Q328.03 75.02 328.03 82.07L328.03 82.07Q328.03 85.10 328.54 87.62Q329.04 90.14 330.12 91.94Q331.20 93.74 332.93 94.74Q334.66 95.75 337.18 95.75ZM362.16 64.00L367.92 64.00L367.92 84.52Q367.92 87.33 368.24 89.45Q368.57 91.58 369.36 92.98Q370.15 94.38 371.52 95.10Q372.89 95.82 374.98 95.82L374.98 95.82Q376.92 95.82 378.43 95.21Q379.94 94.60 381.13 93.52Q382.32 92.44 383.22 91.04Q384.12 89.63 384.70 88.05L384.70 88.05L384.70 64.00L390.46 64.00L390.46 89.78Q390.46 92.37 390.64 95.14Q390.82 97.91 391.25 100L391.25 100L387.29 100L385.85 94.31L385.49 94.31Q383.83 97.12 381.02 98.99Q378.22 100.86 373.90 100.86L373.90 100.86Q371.02 100.86 368.82 100.18Q366.62 99.50 365.15 97.77Q363.67 96.04 362.92 93.12Q362.16 90.21 362.16 85.74L362.16 85.74L362.16 64.00ZM407.95 49.60L407.95 91.14Q407.95 93.66 408.82 94.74Q409.68 95.82 411.26 95.82L411.26 95.82Q412.20 95.82 413.28 95.68Q414.36 95.54 415.73 95.03L415.73 95.03L416.38 99.57Q415.22 100.14 413.17 100.50Q411.12 100.86 409.61 100.86L409.61 100.86Q406.37 100.86 404.28 99.03Q402.19 97.19 402.19 92.80L402.19 92.80L402.19 49.60L407.95 49.60ZM423.79 70.98L421.99 66.66Q424.73 65.01 428.36 64.22Q432.00 63.42 435.96 63.42L435.96 63.42Q439.70 63.42 441.97 64.43Q444.24 65.44 445.43 67.06Q446.62 68.68 447.01 70.62Q447.41 72.57 447.41 74.51L447.41 74.51Q447.41 78.83 447.19 82.94Q446.98 87.04 446.98 90.71L446.98 90.71Q446.98 93.38 447.19 95.75Q447.41 98.13 447.98 100.14L447.98 100.14L443.74 100.14L442.22 95.10L441.86 95.10Q441.22 96.11 440.24 97.08Q439.27 98.06 437.90 98.81Q436.54 99.57 434.74 100.07Q432.94 100.58 430.63 100.58L430.63 100.58Q428.33 100.58 426.35 99.86Q424.37 99.14 422.93 97.80Q421.49 96.47 420.66 94.60Q419.83 92.73 419.83 90.35L419.83 90.35Q419.83 87.18 421.13 85.06Q422.42 82.94 424.76 81.68Q427.10 80.42 430.38 79.88Q433.66 79.34 437.62 79.34L437.62 79.34Q438.62 79.34 439.60 79.34Q440.57 79.34 441.58 79.48L441.58 79.48Q441.79 77.32 441.79 75.59L441.79 75.59Q441.79 71.63 440.21 70.05Q438.62 68.46 434.45 68.46L434.45 68.46Q433.22 68.46 431.82 68.64Q430.42 68.82 428.94 69.15Q427.46 69.47 426.13 69.94Q424.80 70.41 423.79 70.98L423.79 70.98ZM432.22 95.54L432.22 95.54Q434.23 95.54 435.82 95.00Q437.40 94.46 438.55 93.63Q439.70 92.80 440.46 91.79Q441.22 90.78 441.58 89.85L441.58 89.85L441.58 83.87Q440.57 83.80 439.52 83.76Q438.48 83.73 437.47 83.73L437.47 83.73Q435.24 83.73 433.12 83.98Q430.99 84.23 429.37 84.92Q427.75 85.60 426.78 86.79Q425.81 87.98 425.81 89.78L425.81 89.78Q425.81 92.30 427.61 93.92Q429.41 95.54 432.22 95.54ZM476.50 64.00L475.27 69.54Q473.11 68.82 471.17 68.82L471.17 68.82Q468.07 68.82 466.27 70.52Q464.47 72.21 464.04 74.80L464.04 74.80L464.04 100L458.28 100L458.28 64.00L462.31 64.00L463.39 68.39L463.68 68.39Q465.05 65.94 466.96 64.61Q468.86 63.28 471.82 63.28L471.82 63.28Q473.90 63.28 476.50 64.00L476.50 64.00Z"/></svg>