<svg xmlns="http://www.w3.org/2000/svg" viewBox="4.680000000000001 47.367999999999995 727.9200000000002 66.96000000000001"><path d="M5 100L5 50Q8 50 12 49Q16 49 20 49L20 49Q24 49 28 49Q32 50 35 52Q39 54 41 57Q43 60 43 66L43 66Q43 70 41 74Q39 77 36 79Q33 81 29 82Q26 83 22 83L22 83Q21 83 20 83Q19 83 18 83Q17 83 17 83Q16 83 15 83L15 83L15 100L5 100ZM21 58L21 58Q19 58 18 58Q16 58 15 59L15 59L15 74Q16 74 16 74Q17 74 18 74Q18 74 19 74Q20 74 20 74L20 74Q22 74 24 74Q26 73 28 72Q29 71 30 70Q31 68 31 66L31 66Q31 63 31 62Q30 60 28 60Q26 59 25 59Q23 58 21 58ZM87 50L87 59L71 59L71 100L61 100L61 59L45 59L45 50L87 50ZM133 86L133 86Q133 84 131 83Q130 81 127 80Q124 79 121 78Q118 77 115 75Q112 73 110 71Q108 68 108 64L108 64Q108 60 110 57Q111 54 113 52Q116 50 119 50Q123 49 127 49L127 49Q131 49 136 49Q140 50 143 52L143 52L139 61Q139 60 137 60Q136 59 134 59Q132 58 130 58Q129 58 127 58L127 58Q123 58 121 59Q119 60 119 63L119 63Q119 65 121 66Q123 67 125 69Q128 70 131 71Q135 72 137 74Q140 75 142 78Q144 81 144 85L144 85Q144 89 143 92Q141 95 138 97Q136 99 132 100Q129 101 124 101L124 101Q121 101 119 101Q116 100 114 100Q111 99 110 99Q108 98 107 98L107 98L111 89Q111 89 113 90Q114 90 116 91Q118 91 120 92Q122 92 124 92L124 92Q128 92 131 90Q133 89 133 86ZM154 72L151 65Q155 63 159 62Q164 61 169 61L169 61Q173 61 176 62Q178 63 180 65Q182 67 182 69Q183 72 183 75L183 75Q183 79 183 82Q182 86 182 90L182 90Q182 93 183 95Q183 98 184 100L184 100L176 100L174 94L173 94Q171 97 168 99Q165 101 161 101L161 101Q158 101 156 100Q154 99 152 98Q150 96 150 94Q149 92 149 90L149 90Q149 83 153 80Q157 77 166 77L166 77Q168 77 170 77Q172 77 173 77L173 77Q173 76 173 75L173 75Q173 72 172 71Q170 70 166 70L166 70Q163 70 160 70Q156 71 154 72L154 72ZM164 93L164 93Q168 93 170 91Q172 89 173 88L173 88L173 83Q172 83 172 83Q171 83 170 83Q169 83 168 83Q167 82 167 82L167 82Q163 82 161 84Q159 85 159 87L159 87Q159 90 160 91Q162 93 164 93ZM229 100L219 100L219 79Q219 74 217 72Q216 70 212 70L212 70Q209 70 206 72Q204 74 203 76L203 76Q203 82 203 88Q203 94 203 100L203 100L193 100L193 62L201 62L202 68L203 68Q205 65 208 63Q211 61 216 61L216 61Q219 61 222 62Q224 63 226 64Q227 66 228 69Q229 72 229 77L229 77L229 100ZM237 98L239 90Q240 91 242 91Q243 92 244 92Q246 93 248 93Q249 93 251 93L251 93Q253 93 255 92Q256 92 256 89L256 89Q256 88 254 87Q252 86 250 85L250 85Q248 85 245 84Q243 83 241 82Q240 80 238 78Q237 76 237 73L237 73Q237 67 241 64Q244 61 251 61L251 61Q255 61 259 62Q263 63 265 64L265 64L263 71Q261 71 258 70Q255 69 252 69L252 69Q250 69 249 70Q247 71 247 72L247 72Q247 74 249 75Q251 76 254 77L254 77Q256 77 258 78Q260 79 262 80Q264 81 265 83Q266 85 266 88L266 88Q266 94 262 98Q258 101 251 101L251 101Q246 101 243 100Q239 100 237 98L237 98ZM327 89L329 98Q327 99 323 100Q319 101 315 101L315 101Q310 101 306 100Q301 98 298 95Q295 92 293 87Q291 82 291 75L291 75Q291 67 293 62Q295 57 299 54Q302 51 307 50Q311 49 315 49L315 49Q320 49 323 49Q326 50 329 51L329 51L326 59Q325 59 322 58Q320 58 316 58L316 58Q313 58 310 59Q308 60 306 62Q304 64 303 67Q302 71 302 75L302 75Q302 79 303 82Q304 85 306 87Q307 89 310 90Q313 92 317 92L317 92Q321 92 323 91Q325 90 327 89L327 89ZM338 72L335 65Q339 63 343 62Q348 61 353 61L353 61Q357 61 360 62Q362 63 364 65Q366 67 366 69Q367 72 367 75L367 75Q367 79 367 82Q366 86 366 90L366 90Q366 93 367 95Q367 98 368 100L368 100L360 100L358 94L357 94Q355 97 352 99Q349 101 345 101L345 101Q342 101 340 100Q338 99 336 98Q334 96 334 94Q333 92 333 90L333 90Q333 83 337 80Q341 77 350 77L350 77Q352 77 354 77Q356 77 357 77L357 77Q357 76 357 75L357 75Q357 72 356 71Q354 70 350 70L350 70Q347 70 344 70Q340 71 338 72L338 72ZM348 93L348 93Q352 93 354 91Q356 89 357 88L357 88L357 83Q356 83 356 83Q355 83 354 83Q353 83 352 83Q351 82 351 82L351 82Q347 82 345 84Q343 85 343 87L343 87Q343 90 344 91Q346 93 348 93ZM377 114L377 62L385 62L386 67L387 67Q389 64 392 63Q395 61 399 61L399 61Q406 61 410 66Q414 70 414 80L414 80Q414 85 413 89Q412 93 409 95Q407 98 403 100Q400 101 395 101L395 101Q393 101 391 101Q389 100 387 99L387 99L387 114L377 114ZM396 70L396 70Q392 70 390 71Q388 73 387 76L387 76L387 91Q389 92 390 92Q392 93 394 93L394 93Q399 93 401 90Q404 87 404 80L404 80Q404 75 402 72Q400 70 396 70ZM418 71L418 62L423 62L423 57L433 54L433 62L444 62L444 71L433 71L433 84Q433 88 434 90Q435 92 438 92L438 92Q440 92 441 92Q442 92 443 91L443 91L445 99Q443 100 440 100Q437 101 434 101L434 101Q429 101 426 98Q423 96 423 89L423 89L423 71L418 71ZM453 100L453 62L463 62L463 100L453 100ZM451 53L451 53Q451 50 453 49Q454 47 457 47L457 47Q460 47 462 49Q464 51 464 53L464 53Q464 55 462 56Q460 58 457 58L457 58Q454 58 453 56Q451 55 451 53ZM472 81L472 81Q472 72 477 66Q482 61 491 61L491 61Q496 61 500 63Q503 64 506 67Q508 70 509 73Q510 77 510 81L510 81Q510 86 509 89Q508 93 505 96Q503 98 499 100Q496 101 491 101L491 101Q486 101 483 100Q479 98 477 95Q474 93 473 89Q472 85 472 81ZM482 81L482 81Q482 84 483 86Q483 88 484 89Q485 91 487 92Q489 93 491 93L491 93Q500 93 500 81L500 81Q500 79 499 76Q499 74 498 73Q497 71 495 70Q493 70 491 70L491 70Q487 70 485 72Q482 75 482 81ZM554 100L544 100L544 79Q544 74 542 72Q541 70 537 70L537 70Q534 70 532 72Q529 74 528 76L528 76Q528 82 529 88Q529 94 529 100L529 100L518 100L518 62L526 62L527 68L529 68Q530 65 534 63Q537 61 542 61L542 61Q545 61 547 62Q549 63 551 64Q552 66 553 69Q554 72 554 77L554 77L554 100ZM584 98L584 50L594 50L594 65L595 65Q597 63 600 62Q602 61 606 61L606 61Q613 61 617 66Q621 71 621 80L621 80Q621 85 619 89Q618 93 615 95Q613 98 609 100Q605 101 600 101L600 101Q595 101 591 100Q587 99 584 98L584 98ZM594 76L594 91Q596 92 597 92Q599 93 601 93L601 93Q610 93 610 80L610 80Q610 75 608 72Q606 70 603 70L603 70Q599 70 597 71Q595 73 594 76L594 76ZM627 81L627 81Q627 72 632 66Q637 61 646 61L646 61Q651 61 654 63Q658 64 660 67Q663 70 664 73Q665 77 665 81L665 81Q665 86 664 89Q662 93 660 96Q658 98 654 100Q650 101 646 101L646 101Q641 101 637 100Q634 98 631 95Q629 93 628 89Q627 85 627 81ZM637 81L637 81Q637 84 638 86Q638 88 639 89Q640 91 642 92Q643 93 646 93L646 93Q655 93 655 81L655 81Q655 79 654 76Q654 74 653 73Q652 71 650 70Q648 70 646 70L646 70Q642 70 639 72Q637 75 637 81ZM683 50L683 87Q683 92 687 92L687 92Q688 92 689 92Q690 92 691 91L691 91L692 99Q691 100 688 101Q686 101 683 101L683 101Q678 101 676 99Q673 97 673 93L673 93L673 50L683 50ZM732 50L732 87Q732 90 732 93Q732 96 733 100L733 100L726 100L724 95L723 95Q722 98 719 99Q715 101 711 101L711 101Q704 101 699 96Q695 92 695 82L695 82Q695 77 696 73Q698 69 700 67Q702 64 706 63Q709 61 714 61L714 61Q716 61 718 62Q720 62 722 63L722 63L722 50L732 50ZM714 93L714 93Q717 93 719 91Q721 90 722 87L722 87L722 72Q721 71 719 70Q718 70 715 70L715 70Q710 70 708 72Q706 75 706 82L706 82Q706 87 708 90Q710 93 714 93Z"/></svg>