<svg xmlns="http://www.w3.org/2000/svg" viewBox="0.2 -7.140000000000001 32.21 7.28"><path d="M0.20 0L1.67-6.93Q2.09-7.01 2.56-7.05Q3.04-7.10 3.52-7.10L3.52-7.10Q4.03-7.10 4.46-6.99Q4.90-6.87 5.23-6.63Q5.55-6.39 5.73-6.02Q5.91-5.64 5.91-5.12L5.91-5.12Q5.91-4.34 5.64-3.81Q5.37-3.29 4.92-2.96Q4.48-2.64 3.91-2.50Q3.34-2.37 2.75-2.37L2.75-2.37Q2.70-2.37 2.60-2.37Q2.49-2.37 2.38-2.38Q2.26-2.38 2.16-2.39Q2.05-2.40 2-2.41L2-2.41L1.50 0L0.20 0ZM2.74-5.87L2.26-3.59Q2.30-3.58 2.37-3.57Q2.44-3.56 2.52-3.56Q2.61-3.55 2.69-3.55Q2.76-3.55 2.80-3.55L2.80-3.55Q3.14-3.55 3.46-3.63Q3.77-3.70 4.01-3.87Q4.25-4.03 4.40-4.30Q4.54-4.57 4.54-4.96L4.54-4.96Q4.54-5.25 4.45-5.44Q4.35-5.63 4.19-5.74Q4.03-5.84 3.81-5.88Q3.60-5.92 3.36-5.92L3.36-5.92Q3.18-5.92 3.02-5.91Q2.85-5.89 2.74-5.87L2.74-5.87ZM11.81-7L11.56-5.78L9.62-5.78L8.39 0L7.10 0L8.32-5.78L6.38-5.78L6.64-7L11.81-7ZM18.72-6.73L18.06-5.59Q17.87-5.71 17.50-5.83Q17.13-5.96 16.68-5.96L16.68-5.96Q16.45-5.96 16.23-5.92Q16.01-5.87 15.84-5.77Q15.67-5.67 15.57-5.51Q15.47-5.35 15.47-5.13L15.47-5.13Q15.47-4.84 15.65-4.64Q15.83-4.44 16.11-4.26Q16.38-4.09 16.70-3.91Q17.01-3.73 17.29-3.49Q17.56-3.25 17.74-2.92Q17.92-2.58 17.92-2.09L17.92-2.09Q17.92-1.50 17.71-1.07Q17.51-0.65 17.13-0.38Q16.76-0.11 16.23 0.01Q15.71 0.14 15.07 0.14L15.07 0.14Q14.72 0.14 14.40 0.10Q14.09 0.06 13.82 0Q13.55-0.06 13.34-0.14Q13.14-0.21 13.02-0.28L13.02-0.28L13.69-1.44Q13.79-1.38 13.95-1.31Q14.11-1.24 14.31-1.18Q14.52-1.12 14.76-1.08Q15-1.04 15.24-1.04L15.24-1.04Q15.52-1.04 15.77-1.08Q16.02-1.13 16.20-1.24Q16.39-1.34 16.49-1.50Q16.60-1.66 16.60-1.90L16.60-1.90Q16.60-2.17 16.42-2.36Q16.24-2.55 15.96-2.72Q15.69-2.89 15.38-3.08Q15.06-3.26 14.79-3.51Q14.51-3.76 14.33-4.12Q14.15-4.47 14.15-4.98L14.15-4.98Q14.15-5.56 14.35-5.97Q14.56-6.38 14.91-6.64Q15.26-6.90 15.73-7.02Q16.20-7.14 16.74-7.14L16.74-7.14Q17.03-7.14 17.32-7.11Q17.61-7.08 17.87-7.03Q18.13-6.97 18.35-6.90Q18.57-6.82 18.72-6.73L18.72-6.73ZM23.20-4.90L22.58-2Q22.50-1.62 22.46-1.23Q22.43-0.84 22.43-0.49L22.43-0.49Q22.43-0.35 22.44-0.23Q22.44-0.10 22.45 0.01L22.45 0.01L21.54 0.01L21.40-0.85L21.36-0.85Q21.25-0.67 21.07-0.49Q20.90-0.32 20.69-0.18Q20.48-0.03 20.25 0.06Q20.01 0.14 19.76 0.14L19.76 0.14Q19.10 0.14 18.79-0.29Q18.47-0.72 18.47-1.44L18.47-1.44Q18.47-2.17 18.66-2.84Q18.84-3.51 19.23-4.02Q19.62-4.53 20.21-4.83Q20.81-5.14 21.63-5.14L21.63-5.14Q21.98-5.14 22.39-5.08Q22.81-5.01 23.20-4.90L23.20-4.90ZM20.23-0.89L20.23-0.89Q20.41-0.89 20.57-0.96Q20.73-1.04 20.87-1.16Q21-1.28 21.11-1.42Q21.21-1.56 21.29-1.68L21.29-1.68L21.79-4.01Q21.68-4.06 21.54-4.08Q21.39-4.11 21.25-4.11L21.25-4.11Q20.89-4.11 20.61-3.90Q20.33-3.68 20.14-3.33Q19.94-2.99 19.84-2.56Q19.74-2.12 19.74-1.68L19.74-1.68Q19.74-1.36 19.84-1.13Q19.95-0.89 20.23-0.89ZM27.39 0L26.16 0L26.82-3.10Q26.88-3.38 26.88-3.59L26.88-3.59Q26.88-3.81 26.79-3.94Q26.70-4.06 26.46-4.06L26.46-4.06Q26.28-4.06 26.10-3.97Q25.92-3.88 25.76-3.73Q25.60-3.58 25.46-3.40Q25.32-3.21 25.22-3.02L25.22-3.02L24.58 0L23.35 0L24.41-5L25.34-5L25.29-4.12L25.33-4.12Q25.46-4.28 25.64-4.46Q25.81-4.64 26.04-4.79Q26.27-4.94 26.56-5.04Q26.84-5.14 27.20-5.14L27.20-5.14Q27.65-5.14 27.92-4.90Q28.19-4.65 28.19-4.08L28.19-4.08Q28.19-3.93 28.18-3.76Q28.16-3.59 28.11-3.39L28.11-3.39L27.39 0ZM28.37-0.19L28.76-1.17Q28.96-1.06 29.28-0.97Q29.59-0.89 29.94-0.89L29.94-0.89Q30.29-0.89 30.48-1.02Q30.66-1.16 30.67-1.44L30.67-1.44Q30.67-1.64 30.55-1.79Q30.43-1.93 30.25-2.06Q30.06-2.19 29.85-2.33Q29.64-2.46 29.46-2.64Q29.27-2.81 29.15-3.05Q29.03-3.29 29.03-3.63L29.03-3.63Q29.03-3.96 29.16-4.24Q29.29-4.52 29.53-4.72Q29.76-4.92 30.10-5.03Q30.43-5.14 30.85-5.14L30.85-5.14Q31.43-5.14 31.81-5.05Q32.19-4.97 32.41-4.84L32.41-4.84L32.07-3.90Q31.87-3.99 31.59-4.05Q31.30-4.11 30.99-4.11L30.99-4.11Q30.67-4.11 30.49-4Q30.30-3.89 30.30-3.65L30.30-3.65Q30.30-3.49 30.42-3.37Q30.54-3.24 30.73-3.11Q30.91-2.98 31.12-2.85Q31.33-2.71 31.52-2.52Q31.70-2.33 31.82-2.08Q31.94-1.84 31.94-1.50L31.94-1.50Q31.94-0.67 31.40-0.27Q30.86 0.14 29.96 0.14L29.96 0.14Q29.45 0.14 29.03 0.04Q28.60-0.05 28.37-0.19L28.37-0.19Z"/></svg>