<svg xmlns="http://www.w3.org/2000/svg" viewBox="-1.4400000000000002 45.855999999999995 415.8205714273452 69.408"><path d="M15.48 80.27L12.17 96.18Q14.04 96.40 15.66 96.87Q17.28 97.34 18.65 97.91L18.65 97.91L18.29 100L-1.44 100L-1.08 97.91Q0.58 97.19 2.12 96.83Q3.67 96.47 5.26 96.18L5.26 96.18L14.26 53.49Q12.67 53.20 11.30 52.73Q9.94 52.26 8.71 51.69L8.71 51.69L9.22 49.60L15.70 49.60Q18.58 49.60 22.00 49.31Q25.42 49.02 28.51 49.02L28.51 49.02Q31.97 49.02 34.88 49.71Q37.80 50.39 39.85 51.87Q41.90 53.34 43.06 55.54Q44.21 57.74 44.21 60.76L44.21 60.76Q44.21 65.01 42.66 68.61Q41.11 72.21 38.20 74.87Q35.28 77.54 31.18 79.05Q27.07 80.56 22.03 80.56L22.03 80.56Q21.67 80.56 20.84 80.56Q20.02 80.56 19.04 80.52Q18.07 80.49 17.10 80.42Q16.13 80.34 15.48 80.27L15.48 80.27ZM26.64 52.77L26.64 52.77Q24.91 52.77 23.58 52.88Q22.25 52.98 21.24 53.13L21.24 53.13L16.34 76.46Q16.70 76.53 17.39 76.60Q18.07 76.67 18.83 76.71Q19.58 76.74 20.27 76.78Q20.95 76.82 21.38 76.82L21.38 76.82Q28.87 76.82 32.69 72.53Q36.50 68.25 36.50 60.83L36.50 60.83Q36.50 59.03 36.11 57.56Q35.71 56.08 34.60 55.00Q33.48 53.92 31.57 53.34Q29.66 52.77 26.64 52.77ZM71.35 97.91L70.99 100L50.76 100L51.12 97.91Q52.85 97.26 54.54 96.87Q56.23 96.47 58.25 96.18L58.25 96.18L67.32 53.34L56.30 53.34L50.33 63.64L48.46 63.64Q48.53 62.20 48.78 60.36Q49.03 58.53 49.32 56.62Q49.61 54.71 49.93 52.88Q50.26 51.04 50.62 49.60L50.62 49.60L92.38 49.60Q92.09 51.04 91.66 52.84Q91.22 54.64 90.72 56.55Q90.22 58.46 89.68 60.29Q89.14 62.13 88.63 63.64L88.63 63.64L86.76 63.64L85.25 53.34L74.23 53.34L65.16 96.18Q66.89 96.54 68.44 96.90Q69.98 97.26 71.35 97.91L71.35 97.91ZM111.53 84.45L112.25 95.03Q113.04 95.68 114.91 96.44Q116.78 97.19 118.87 97.12L118.87 97.12Q121.25 97.19 123.48 96.76Q125.71 96.33 127.51 95.25Q129.31 94.17 130.39 92.40Q131.47 90.64 131.47 87.98L131.47 87.98Q131.47 85.02 130.07 83.01Q128.66 80.99 126.58 79.44Q124.49 77.90 122.08 76.49Q119.66 75.09 117.58 73.36Q115.49 71.63 114.08 69.29Q112.68 66.95 112.68 63.50L112.68 63.50Q112.68 60.18 113.87 57.48Q115.06 54.78 117.40 52.84Q119.74 50.90 123.12 49.82Q126.50 48.74 130.82 48.74L130.82 48.74Q135.22 48.74 138.67 49.42Q142.13 50.10 144.07 51.11L144.07 51.11Q143.78 52.34 143.24 53.96Q142.70 55.58 142.13 57.30Q141.55 59.03 140.90 60.65Q140.26 62.27 139.75 63.50L139.75 63.50L137.88 63.50L137.02 53.63Q135.79 53.06 133.88 52.77Q131.98 52.48 129.74 52.48L129.74 52.48Q127.58 52.48 125.68 52.98Q123.77 53.49 122.36 54.53Q120.96 55.58 120.17 57.16Q119.38 58.74 119.38 60.90L119.38 60.90Q119.38 63.78 120.78 65.69Q122.18 67.60 124.27 69.11Q126.36 70.62 128.77 72.03Q131.18 73.43 133.27 75.23Q135.36 77.03 136.76 79.59Q138.17 82.14 138.17 85.89L138.17 85.89Q138.17 89.27 136.84 92.01Q135.50 94.74 133.02 96.72Q130.54 98.70 126.90 99.78Q123.26 100.86 118.66 100.86L118.66 100.86Q116.35 100.86 114.23 100.58Q112.10 100.29 110.34 99.78Q108.58 99.28 107.21 98.67Q105.84 98.06 105.12 97.48L105.12 97.48Q105.41 96.18 105.95 94.42Q106.49 92.66 107.14 90.86Q107.78 89.06 108.43 87.36Q109.08 85.67 109.66 84.45L109.66 84.45L111.53 84.45ZM168.55 92.22L169.70 93.59Q169.06 94.96 167.83 96.26Q166.61 97.55 164.95 98.60Q163.30 99.64 161.21 100.25Q159.12 100.86 156.74 100.86L156.74 100.86Q150.77 100.86 147.56 97.44Q144.36 94.02 144.36 87.98L144.36 87.98Q144.36 82.86 145.80 78.33Q147.24 73.79 149.83 70.41Q152.42 67.02 156.13 65.08Q159.84 63.14 164.38 63.14L164.38 63.14Q167.83 63.14 170.32 64.90Q172.80 66.66 172.80 70.12L172.80 70.12Q172.80 75.23 167.72 78.18Q162.65 81.14 151.34 82L151.34 82Q151.06 83.22 150.95 84.38Q150.84 85.53 150.84 86.61L150.84 86.61Q150.84 90.93 153.04 93.66Q155.23 96.40 159.48 96.40L159.48 96.40Q160.85 96.40 162.18 95.97Q163.51 95.54 164.70 94.89Q165.89 94.24 166.86 93.52Q167.83 92.80 168.55 92.22L168.55 92.22ZM162.14 66.23L162.14 66.23Q159.05 66.30 156.38 69.15Q153.72 71.99 151.85 78.90L151.85 78.90Q158.83 78.69 162.72 76.49Q166.61 74.30 166.61 70.41L166.61 70.41Q166.61 68.90 165.71 67.60Q164.81 66.30 162.14 66.23ZM201.82 71.34L196.13 68.39Q194.26 69.11 191.92 72.03Q189.58 74.94 187.78 79.91L187.78 79.91L183.46 100L177.26 100L183.96 68.18L179.57 67.53L179.57 65.73Q182.02 64.58 184.68 63.96Q187.34 63.35 189.50 63.14L189.50 63.14L190.94 64.00L188.93 73.58L189.22 73.58Q191.30 68.82 194.33 65.98Q197.35 63.14 200.81 63.14L200.81 63.14Q201.74 63.14 202.68 63.32Q203.62 63.50 204.48 64.00L204.48 64.00Q204.48 64.65 204.26 65.69Q204.05 66.74 203.65 67.82Q203.26 68.90 202.79 69.87Q202.32 70.84 201.82 71.34L201.82 71.34ZM211.61 68.25L207 67.53L207 65.73Q208.08 65.30 209.45 64.83Q210.82 64.36 212.26 64.00Q213.70 63.64 214.99 63.39Q216.29 63.14 217.30 63.14L217.30 63.14L218.59 64.00L211.82 95.97L217.15 95.97L217.15 97.84Q215.64 98.99 213.62 99.71Q211.61 100.43 209.66 100.43L209.66 100.43Q207.58 100.43 206.68 99.50Q205.78 98.56 205.78 97.34L205.78 97.34Q205.78 95.90 205.99 94.53Q206.21 93.16 206.57 91.50L206.57 91.50L211.61 68.25ZM212.76 51.54L212.76 51.54Q212.76 49.67 213.91 48.59Q215.06 47.51 216.94 47.51L216.94 47.51Q218.95 47.51 220.10 48.59Q221.26 49.67 221.26 51.54L221.26 51.54Q221.26 53.34 220.10 54.35Q218.95 55.36 216.94 55.36L216.94 55.36Q215.06 55.36 213.91 54.35Q212.76 53.34 212.76 51.54ZM226.44 98.27L231.12 67.60L225.86 67.60L225.86 65.73Q227.30 64.94 228.92 64.32Q230.54 63.71 231.98 63.35L231.98 63.35L232.49 60.83Q233.42 56.37 235.04 53.45Q236.66 50.54 238.82 48.84Q240.98 47.15 243.58 46.50Q246.17 45.86 249.12 45.86L249.12 45.86Q250.34 45.86 252.04 46.14Q253.73 46.43 254.88 47.01L254.88 47.01Q254.74 48.59 254.12 50.28Q253.51 51.98 252.07 53.20L252.07 53.20L246.60 48.74Q245.30 49.10 244.22 49.53Q243.14 49.96 242.17 51.15Q241.20 52.34 240.34 54.50Q239.47 56.66 238.68 60.40L238.68 60.40L237.96 64.00L245.95 64.00Q246.31 65.80 245.23 67.60L245.23 67.60L237.24 67.60L232.63 96.90Q231.84 102.02 229.97 105.40Q228.10 108.78 225.97 110.87Q223.85 112.96 221.83 113.97Q219.82 114.98 218.74 115.26L218.74 115.26L218.09 113.68Q218.95 113.25 220.18 112.13Q221.40 111.02 222.59 109.14Q223.78 107.27 224.82 104.57Q225.86 101.87 226.44 98.27L226.44 98.27ZM270.43 68.25L265.82 67.53L265.82 65.73Q266.90 65.30 268.27 64.83Q269.64 64.36 271.08 64.00Q272.52 63.64 273.82 63.39Q275.11 63.14 276.12 63.14L276.12 63.14L277.42 64.00L270.65 95.97L275.98 95.97L275.98 97.84Q274.46 98.99 272.45 99.71Q270.43 100.43 268.49 100.43L268.49 100.43Q266.40 100.43 265.50 99.50Q264.60 98.56 264.60 97.34L264.60 97.34Q264.60 95.90 264.82 94.53Q265.03 93.16 265.39 91.50L265.39 91.50L270.43 68.25ZM271.58 51.54L271.58 51.54Q271.58 49.67 272.74 48.59Q273.89 47.51 275.76 47.51L275.76 47.51Q277.78 47.51 278.93 48.59Q280.08 49.67 280.08 51.54L280.08 51.54Q280.08 53.34 278.93 54.35Q277.78 55.36 275.76 55.36L275.76 55.36Q273.89 55.36 272.74 54.35Q271.58 53.34 271.58 51.54ZM284.47 67.60L284.54 65.73Q285.98 64.94 287.60 64.29Q289.22 63.64 290.81 63.28L290.81 63.28L291.96 57.81Q292.97 57.02 294.30 56.40Q295.63 55.79 297.07 55.22L297.07 55.22L298.58 56.08L296.86 64.00L305.78 64.00Q305.93 64.86 305.78 65.80Q305.64 66.74 305.06 67.60L305.06 67.60L296.14 67.60L291.60 88.48Q291.31 89.85 291.17 90.89Q291.02 91.94 291.02 92.80L291.02 92.80Q291.02 94.67 292.10 95.54Q293.18 96.40 294.48 96.40L294.48 96.40Q296.28 96.40 298.33 95.72Q300.38 95.03 302.11 94.17L302.11 94.17L302.90 95.46Q302.26 96.40 300.96 97.34Q299.66 98.27 298.04 99.06Q296.42 99.86 294.66 100.36Q292.90 100.86 291.31 100.86L291.31 100.86Q288.14 100.86 286.34 99.42Q284.54 97.98 284.54 94.96L284.54 94.96Q284.54 93.95 284.72 92.73Q284.90 91.50 285.19 90.21L285.19 90.21L289.94 67.60L284.47 67.60ZM318.53 96.40L318.53 96.40Q320.47 96.40 322.42 94.56Q324.36 92.73 326.09 90.14Q327.82 87.54 329.18 84.74Q330.55 81.93 331.34 80.06L331.34 80.06L333.65 67.74Q332.64 67.02 331.70 66.74Q330.77 66.45 329.11 66.45L329.11 66.45Q325.80 66.45 323.10 68.50Q320.40 70.55 318.49 73.79Q316.58 77.03 315.54 80.99Q314.50 84.95 314.50 88.77L314.50 88.77Q314.50 92.44 315.40 94.42Q316.30 96.40 318.53 96.40ZM330.19 85.89L329.90 85.89Q328.97 88.48 327.56 91.14Q326.16 93.81 324.32 95.97Q322.49 98.13 320.26 99.50Q318.02 100.86 315.50 100.86L315.50 100.86Q308.02 100.86 308.02 89.99L308.02 89.99Q308.02 84.95 309.46 80.16Q310.90 75.38 313.63 71.63Q316.37 67.89 320.29 65.62Q324.22 63.35 329.18 63.35L329.18 63.35Q330.98 63.35 332.06 63.68Q333.14 64.00 334.66 64.65L334.66 64.65Q337.54 63.14 340.70 63.14L340.70 63.14L334.22 96.04L339.48 96.04L339.48 97.84Q338.04 98.99 336.02 99.71Q334.01 100.43 332.06 100.43L332.06 100.43Q329.98 100.43 329.08 99.53Q328.18 98.63 328.18 97.62L328.18 97.62Q328.18 96.33 328.68 93.38Q329.18 90.42 330.19 85.89L330.19 85.89ZM347.54 91.50L355.97 50.90L350.86 50.25L350.86 48.45Q351.86 48.02 353.20 47.58Q354.53 47.15 356.00 46.76Q357.48 46.36 358.92 46.11Q360.36 45.86 361.51 45.86L361.51 45.86L362.95 46.65L353.02 95.97L358.27 95.97L358.27 97.84Q356.83 98.99 354.78 99.71Q352.73 100.43 350.78 100.43L350.78 100.43Q348.70 100.43 347.72 99.50Q346.75 98.56 346.75 97.34L346.75 97.34Q346.75 95.90 346.97 94.53Q347.18 93.16 347.54 91.50L347.54 91.50ZM373.10 68.25L368.50 67.53L368.50 65.73Q369.58 65.30 370.94 64.83Q372.31 64.36 373.75 64.00Q375.19 63.64 376.49 63.39Q377.78 63.14 378.79 63.14L378.79 63.14L380.09 64.00L373.32 95.97L378.65 95.97L378.65 97.84Q377.14 98.99 375.12 99.71Q373.10 100.43 371.16 100.43L371.16 100.43Q369.07 100.43 368.17 99.50Q367.27 98.56 367.27 97.34L367.27 97.34Q367.27 95.90 367.49 94.53Q367.70 93.16 368.06 91.50L368.06 91.50L373.10 68.25ZM374.26 51.54L374.26 51.54Q374.26 49.67 375.41 48.59Q376.56 47.51 378.43 47.51L378.43 47.51Q380.45 47.51 381.60 48.59Q382.75 49.67 382.75 51.54L382.75 51.54Q382.75 53.34 381.60 54.35Q380.45 55.36 378.43 55.36L378.43 55.36Q376.56 55.36 375.41 54.35Q374.26 53.34 374.26 51.54ZM409.75 92.22L410.83 93.59Q410.04 94.96 408.82 96.26Q407.59 97.55 405.94 98.60Q404.28 99.64 402.23 100.25Q400.18 100.86 397.73 100.86L397.73 100.86Q392.40 100.86 389.30 97.48Q386.21 94.10 386.21 88.26L386.21 88.26Q386.21 83.08 387.86 78.51Q389.52 73.94 392.36 70.52Q395.21 67.10 399.06 65.12Q402.91 63.14 407.30 63.14L407.30 63.14Q410.04 63.14 411.77 63.57Q413.50 64.00 414.36 64.79L414.36 64.79Q414.43 65.58 414.25 66.56Q414.07 67.53 413.68 68.46Q413.28 69.40 412.67 70.19Q412.06 70.98 411.41 71.27L411.41 71.27L406.51 66.23Q404.06 66.30 401.65 67.74Q399.24 69.18 397.33 71.85Q395.42 74.51 394.24 78.29Q393.05 82.07 393.12 86.82L393.12 86.82Q393.05 91.79 395.10 94.10Q397.15 96.40 400.68 96.40L400.68 96.40Q402.19 96.40 403.52 95.97Q404.86 95.54 406.01 94.89Q407.16 94.24 408.10 93.52Q409.03 92.80 409.75 92.22L409.75 92.22Z"/></svg>