<svg xmlns="http://www.w3.org/2000/svg" viewBox="0.39 -7 39.27 8.57"><path d="M5.97 0.93L5.97 0.93Q6.62 0.93 7.18 0.48L7.18 0.48L7.58 1.02Q6.89 1.57 5.96 1.57L5.96 1.57Q5.22 1.57 4.58 1.16L4.58 1.16Q3.94 0.75 3.61 0.07L3.61 0.07Q2.18 0.01 1.28-0.96L1.28-0.96Q0.39-1.90 0.39-3.31L0.39-3.31Q0.39-4.75 1.32-5.71L1.32-5.71Q2.27-6.70 3.75-6.70L3.75-6.70Q5.23-6.70 6.18-5.71L6.18-5.71Q7.11-4.75 7.11-3.31L7.11-3.31Q7.11-2.05 6.35-1.12L6.35-1.12Q5.59-0.18 4.37 0.02L4.37 0.02Q4.66 0.60 5.36 0.84L5.36 0.84Q5.62 0.93 5.97 0.93ZM3.75-0.65L3.75-0.65Q4.93-0.65 5.66-1.42L5.66-1.42Q6.36-2.16 6.36-3.31L6.36-3.31Q6.36-4.46 5.66-5.20L5.66-5.20Q4.93-5.97 3.75-5.97L3.75-5.97Q2.57-5.97 1.84-5.20L1.84-5.20Q1.14-4.46 1.14-3.31L1.14-3.31Q1.14-2.16 1.84-1.42L1.84-1.42Q2.57-0.65 3.75-0.65ZM12.51 0L11.76 0L11.76-0.78Q11.49-0.42 11.10-0.17Q10.71 0.08 10.21 0.08Q9.71 0.08 9.35-0.06Q8.99-0.20 8.72-0.48L8.72-0.48Q8.10-1.09 8.10-2.09L8.10-2.09L8.10-5L8.85-5L8.85-2.11Q8.85-1.42 9.24-1.01Q9.63-0.60 10.25-0.60L10.25-0.60Q10.88-0.60 11.32-1.02L11.32-1.02Q11.76-1.45 11.76-2.12L11.76-2.12L11.76-5L12.51-5L12.51 0ZM16.04-0.60L16.04-0.60Q17.05-0.60 17.49-1.44L17.49-1.44L18.31-1.44Q18.05-0.76 17.48-0.34Q16.92 0.08 16.03 0.08L16.03 0.08Q14.90 0.08 14.19-0.67L14.19-0.67Q13.50-1.40 13.50-2.50L13.50-2.50Q13.50-3.61 14.16-4.33L14.16-4.33Q14.86-5.08 15.98-5.08L15.98-5.08Q17.10-5.08 17.80-4.33L17.80-4.33Q18.46-3.61 18.46-2.50L18.46-2.50L18.46-2.20L14.27-2.20Q14.35-1.51 14.82-1.06L14.82-1.06Q15.30-0.60 16.04-0.60ZM15.98-4.40L15.98-4.40Q15.29-4.40 14.82-3.97L14.82-3.97Q14.38-3.56 14.28-2.90L14.28-2.90L17.68-2.90Q17.58-3.56 17.14-3.97L17.14-3.97Q16.67-4.40 15.98-4.40ZM23.08-3.66L22.32-3.66Q22.22-4.44 21.07-4.44Q19.91-4.44 19.91-3.72L19.91-3.72Q19.91-3.42 20.16-3.27Q20.40-3.11 20.77-3.01Q21.14-2.91 21.57-2.83Q22.01-2.74 22.38-2.58Q22.75-2.43 23.00-2.16Q23.24-1.89 23.24-1.42L23.24-1.42Q23.24-0.69 22.69-0.30Q22.14 0.08 21.20 0.08L21.20 0.08Q20.20 0.08 19.61-0.42L19.61-0.42Q19.07-0.86 19.03-1.57L19.03-1.57L19.81-1.57Q19.88-0.88 20.59-0.64L20.59-0.64Q20.85-0.56 21.11-0.56Q21.36-0.56 21.58-0.59Q21.80-0.62 22.01-0.70L22.01-0.70Q22.49-0.89 22.49-1.35L22.49-1.35Q22.49-1.66 22.25-1.82Q22-1.99 21.63-2.10Q21.26-2.20 20.82-2.29Q20.39-2.37 20.02-2.52Q19.65-2.67 19.41-2.93Q19.16-3.19 19.16-3.65L19.16-3.65Q19.16-4.33 19.66-4.71Q20.15-5.08 21.12-5.08L21.12-5.08Q22.04-5.08 22.57-4.64L22.57-4.64Q23.01-4.27 23.08-3.66L23.08-3.66ZM25.49 0L24.74 0L24.74-4.34L23.72-4.34L23.72-5L24.74-5L24.74-6.79L25.49-6.79L25.49-5L26.64-5L26.64-4.34L25.49-4.34L25.49 0ZM30.05-5.08L30.10-5.08L30.10-4.33L30.01-4.33Q29.20-4.33 28.69-3.68L28.69-3.68Q28.21-3.06 28.21-2.20L28.21-2.20L28.21 0L27.46 0L27.46-5L28.21-5L28.21-3.77Q28.45-4.55 29.25-4.92L29.25-4.92Q29.58-5.08 30.05-5.08L30.05-5.08ZM30.91 0L30.91-5L31.66-5L31.66 0L30.91 0ZM30.88-6.82L31.69-6.82L31.69-5.84L30.88-5.84L30.88-6.82ZM36.86 0L36.86-0.80Q36.26 0.08 35.07 0.08L35.07 0.08Q33.99 0.08 33.31-0.67L33.31-0.67Q32.65-1.41 32.65-2.50L32.65-2.50Q32.65-3.59 33.31-4.33L33.31-4.33Q33.99-5.08 35.12-5.08Q36.25-5.08 36.86-4.19L36.86-4.19L36.86-5L37.61-5L37.61 0L36.86 0ZM35.17-0.60L35.17-0.60Q35.98-0.60 36.45-1.16L36.45-1.16Q36.90-1.69 36.90-2.50L36.90-2.50Q36.90-3.31 36.45-3.84L36.45-3.84Q35.98-4.40 35.17-4.40L35.17-4.40Q34.37-4.40 33.87-3.84L33.87-3.84Q33.40-3.31 33.40-2.50L33.40-2.50Q33.40-1.69 33.87-1.16L33.87-1.16Q34.37-0.60 35.17-0.60ZM39.66-7L39.66 0L38.91 0L38.91-7L39.66-7Z"/></svg>