<svg xmlns="http://www.w3.org/2000/svg" viewBox="3.0960000000000005 46.71999999999999 642.6720000000001 66.888"><path d="M53 103Q55 103 56 104Q57 105 57 106L57 106Q57 108 54 110Q52 111 49 113Q45 114 43 114L43 114Q38 114 35 113Q33 112 30 110L30 110Q28 109 26 108Q25 108 23 108L23 108Q22 108 21 108Q20 108 20 109L20 109Q18 110 16 110L16 110Q15 110 14 109Q13 108 13 106L13 106Q13 104 15 103L15 103L23 100Q17 99 13 96Q8 92 6 87Q3 81 3 75L3 75Q3 68 6 62Q9 56 15 52Q20 49 27 49L27 49Q34 49 40 52Q46 56 49 62Q52 68 52 75L52 75Q52 81 49 86Q47 92 43 95Q38 99 33 100L33 100L27 102Q29 102 30 103Q32 104 34 105L34 105Q37 106 39 107Q41 107 43 107L43 107Q45 107 47 107Q48 106 49 105L49 105Q50 105 51 104Q51 104 52 103Q53 103 53 103L53 103ZM11 75Q11 80 13 85Q15 89 19 91Q23 94 27 94L27 94Q32 94 36 91Q40 89 42 85Q44 80 44 75L44 75Q44 69 42 65Q40 61 36 58Q32 56 27 56L27 56Q23 56 19 58Q15 61 13 65Q11 69 11 75L11 75ZM88 62Q90 62 91 63Q92 64 92 66L92 66L92 85Q92 92 87 97Q83 101 76 101L76 101Q68 101 64 97Q60 92 60 85L60 85L60 66Q60 64 61 63Q62 62 63 62L63 62Q65 62 66 63Q67 64 67 66L67 66L67 85Q67 94 76 94L76 94Q80 94 82 92Q85 90 85 85L85 85L85 66Q85 64 86 63Q87 62 88 62L88 62ZM108 97Q108 98 107 99Q106 100 105 100L105 100Q103 100 102 99Q101 98 101 97L101 97L101 65Q101 64 102 63Q103 62 105 62L105 62Q106 62 107 63Q108 64 108 65L108 65L108 97ZM105 57Q103 57 102 56Q101 56 101 54L101 54L101 53Q101 51 102 50Q103 50 105 50L105 50Q107 50 108 50Q109 51 109 53L109 53L109 54Q109 56 108 56Q107 57 105 57L105 57ZM135 61Q140 61 144 63Q148 65 148 68L148 68Q148 69 147 70Q146 71 145 71L145 71Q144 71 144 71Q143 70 142 70L142 70Q142 69 141 69L141 69Q140 68 138 68Q137 68 135 68L135 68Q132 68 129 69Q126 71 124 74Q123 77 123 81L123 81Q123 85 124 88Q126 91 129 93Q131 94 135 94L135 94Q139 94 141 93L141 93Q142 93 142 92L142 92Q143 92 144 91Q144 91 145 91L145 91Q146 91 147 92Q148 93 148 94L148 94Q148 96 146 97Q144 99 141 100Q138 101 134 101L134 101Q129 101 125 98Q120 96 118 91Q116 87 116 81L116 81Q116 76 118 71Q121 67 125 64Q129 61 135 61L135 61ZM186 94Q187 95 187 97L187 97Q187 98 186 99Q185 100 184 100L184 100Q182 100 181 99L181 99L167 84L163 88L163 97Q163 98 162 99Q161 100 159 100L159 100Q158 100 157 99Q156 98 156 97L156 97L156 50Q156 49 157 48Q158 47 159 47L159 47Q161 47 162 48Q163 49 163 50L163 50L163 79L180 63Q181 62 183 62L183 62Q184 62 185 63Q186 64 186 65L186 65Q186 67 185 68L185 68L172 79L186 94ZM193 94Q192 93 192 92L192 92Q192 91 193 90L193 90Q194 89 195 89L195 89Q196 89 197 90L197 90Q200 93 202 94Q205 95 208 95L208 95Q211 95 213 94Q215 93 215 90L215 90Q215 88 213 86Q211 85 207 84L207 84Q203 83 200 82Q197 80 195 78Q194 76 194 72L194 72Q194 69 195 67Q197 64 200 63Q203 61 207 61L207 61Q210 61 214 63Q217 64 219 67L219 67Q220 68 220 69L220 69Q220 70 219 71L219 71Q218 72 217 72L217 72Q216 72 215 71L215 71Q214 69 212 68Q209 67 207 67L207 67Q204 67 202 68Q200 69 200 72L200 72Q200 75 202 76Q204 77 209 78L209 78Q213 79 215 80Q218 81 219 84Q221 86 221 90L221 90Q221 93 219 96Q217 98 214 99Q211 101 208 101L208 101Q203 101 199 99Q195 98 193 94L193 94ZM260 62Q262 62 263 63Q264 64 264 65L264 65L264 97Q264 98 263 99Q262 100 260 100L260 100Q259 100 258 99Q257 98 257 97L257 97L257 95Q255 97 252 99Q249 101 245 101L245 101Q240 101 236 98Q232 96 230 91Q227 87 227 81L227 81Q227 75 230 71Q232 66 236 64Q240 61 245 61L245 61Q248 61 252 63Q255 65 257 67L257 67L257 65Q257 64 258 63Q259 62 260 62L260 62ZM246 94Q249 94 252 93Q254 91 256 88Q257 85 257 81L257 81Q257 77 256 74Q254 71 252 70Q249 68 246 68L246 68Q242 68 240 69Q237 71 235 74Q234 77 234 81L234 81Q234 85 235 88Q237 91 240 93Q242 94 246 94L246 94ZM293 61Q306 61 306 77L306 77L306 97Q306 98 305 99Q304 100 303 100L303 100Q301 100 300 99Q299 98 299 97L299 97L299 77Q299 73 297 70Q295 68 291 68L291 68Q288 68 286 69Q283 70 282 72Q281 75 281 77L281 77L281 97Q281 98 280 99Q279 100 277 100L277 100Q276 100 275 99Q274 98 274 97L274 97L274 66Q274 64 275 63Q276 62 277 62L277 62Q279 62 280 63Q281 64 281 66L281 66L281 68Q283 65 286 63Q289 61 293 61L293 61ZM347 47Q348 47 349 48Q350 49 350 50L350 50L350 97Q350 98 349 99Q348 100 347 100L347 100Q345 100 344 99Q344 98 344 97L344 97L344 95Q342 97 338 99Q335 101 331 101L331 101Q327 101 323 98Q319 96 316 91Q314 87 314 81L314 81Q314 75 316 71Q319 66 322 64Q326 61 331 61L331 61Q335 61 338 63Q341 65 344 67L344 67L344 50Q344 49 344 48Q345 47 347 47L347 47ZM332 94Q336 94 338 93Q341 91 342 88Q344 85 344 81L344 81Q344 77 342 74Q341 71 338 69Q336 68 332 68L332 68Q329 68 326 69Q324 71 322 74Q321 77 321 81L321 81Q321 85 322 88Q324 91 326 93Q329 94 332 94L332 94ZM424 62Q436 62 436 77L436 77L436 97Q436 98 435 99Q434 100 433 100L433 100Q431 100 430 99Q429 98 429 97L429 97L429 77Q429 68 422 68L422 68Q419 68 416 69Q414 70 413 73Q412 75 412 77L412 77L412 97Q412 98 411 99Q410 100 408 100L408 100Q407 100 406 99Q405 98 405 97L405 97L405 77Q405 73 403 71Q401 68 397 68L397 68Q393 68 390 71Q387 73 387 77L387 77L387 97Q387 98 386 99Q385 100 384 100L384 100Q382 100 381 99Q380 98 380 97L380 97L380 66Q380 64 381 63Q382 62 384 62L384 62Q385 62 386 63Q387 64 387 66L387 66L387 68Q389 65 392 64Q395 62 399 62L399 62Q408 62 411 70L411 70Q412 67 416 64Q420 62 424 62L424 62ZM480 80Q480 81 479 82Q478 83 476 83L476 83L451 83Q451 88 455 91Q458 94 463 94L463 94Q467 94 469 93Q471 92 473 91L473 91Q474 90 475 90L475 90Q476 90 477 91Q478 92 478 93L478 93Q478 95 476 96L476 96Q474 98 471 99Q467 101 464 101L464 101Q458 101 453 98Q449 96 447 91Q444 87 444 81L444 81Q444 75 447 71Q449 66 453 64Q457 61 462 61L462 61Q467 61 471 64Q475 66 477 70Q480 75 480 80L480 80ZM462 68Q458 68 455 70Q452 72 451 77L451 77L472 77L472 76Q472 73 469 70Q466 68 462 68L462 68ZM518 47Q520 47 521 48Q522 49 522 50L522 50L522 97Q522 98 521 99Q520 100 518 100L518 100Q517 100 516 99Q515 98 515 97L515 97L515 95Q513 97 510 99Q506 101 503 101L503 101Q498 101 494 98Q490 96 488 91Q485 87 485 81L485 81Q485 75 488 71Q490 66 494 64Q498 61 502 61L502 61Q506 61 510 63Q513 65 515 67L515 67L515 50Q515 49 516 48Q517 47 518 47L518 47ZM503 94Q507 94 510 93Q512 91 514 88Q515 85 515 81L515 81Q515 77 514 74Q512 71 510 69Q507 68 503 68L503 68Q500 68 497 69Q495 71 493 74Q492 77 492 81L492 81Q492 85 493 88Q495 91 497 93Q500 94 503 94L503 94ZM538 97Q538 98 537 99Q536 100 535 100L535 100Q533 100 532 99Q531 98 531 97L531 97L531 65Q531 64 532 63Q533 62 535 62L535 62Q536 62 537 63Q538 64 538 65L538 65L538 97ZM535 57Q533 57 532 56Q531 56 531 54L531 54L531 53Q531 51 532 50Q533 50 535 50L535 50Q537 50 538 50Q539 51 539 53L539 53L539 54Q539 56 538 56Q537 57 535 57L535 57ZM576 62Q578 62 579 63Q580 64 580 66L580 66L580 85Q580 92 576 97Q571 101 564 101L564 101Q556 101 552 97Q548 92 548 85L548 85L548 66Q548 64 549 63Q550 62 552 62L552 62Q553 62 554 63Q555 64 555 66L555 66L555 85Q555 94 564 94L564 94Q568 94 571 92Q573 90 573 85L573 85L573 66Q573 64 574 63Q575 62 576 62L576 62ZM633 62Q646 62 646 77L646 77L646 97Q646 98 645 99Q644 100 642 100L642 100Q641 100 640 99Q639 98 639 97L639 97L639 77Q639 68 631 68L631 68Q628 68 626 69Q624 70 622 73Q621 75 621 77L621 77L621 97Q621 98 620 99Q619 100 618 100L618 100Q616 100 615 99Q614 98 614 97L614 97L614 77Q614 73 613 71Q611 68 607 68L607 68Q602 68 600 71Q597 73 597 77L597 77L597 97Q597 98 596 99Q595 100 593 100L593 100Q592 100 591 99Q590 98 590 97L590 97L590 66Q590 64 591 63Q592 62 593 62L593 62Q595 62 596 63Q597 64 597 66L597 66L597 68Q599 65 602 64Q605 62 609 62L609 62Q617 62 620 70L620 70Q622 67 625 64Q629 62 633 62L633 62Z"/></svg>