<svg xmlns="http://www.w3.org/2000/svg" viewBox="3.6000000000000005 46.71999999999999 498.6000000000001 67.68"><path d="M56.16 104.68Q56.74 104.68 57.06 105.00Q57.38 105.33 57.38 105.90L57.38 105.90Q57.38 107.27 55.37 108.68Q53.35 110.08 50.36 110.98Q47.38 111.88 44.71 111.88L44.71 111.88Q40.75 111.88 38.02 111.02Q35.28 110.15 31.75 108.42L31.75 108.42Q28.80 106.91 26.64 106.19Q24.48 105.47 21.67 105.47L21.67 105.47Q20.66 105.47 19.84 105.72Q19.01 105.98 17.86 106.48L17.86 106.48Q16.56 107.06 16.13 107.06L16.13 107.06Q15.55 107.06 15.12 106.62Q14.69 106.19 14.69 105.54L14.69 105.54Q14.69 104.68 15.48 104.32L15.48 104.32L25.99 100.65Q19.44 100.29 14.36 96.90Q9.29 93.52 6.44 87.80Q3.60 82.07 3.60 74.80L3.60 74.80Q3.60 67.24 6.66 61.34Q9.72 55.43 15.19 52.16Q20.66 48.88 27.65 48.88L27.65 48.88Q34.63 48.88 40.10 52.16Q45.58 55.43 48.64 61.34Q51.70 67.24 51.70 74.80L51.70 74.80Q51.70 81.28 49.43 86.54Q47.16 91.79 43.02 95.32Q38.88 98.85 33.48 100.07L33.48 100.07L24.62 102.95Q26.86 103.17 28.76 103.89Q30.67 104.61 33.34 105.90L33.34 105.90Q36.79 107.56 39.17 108.35Q41.54 109.14 44.71 109.14L44.71 109.14Q47.38 109.14 49.28 108.46Q51.19 107.78 52.99 106.77L52.99 106.77Q53.57 106.48 54.36 105.69L54.36 105.69Q54.79 105.26 55.26 104.97Q55.73 104.68 56.16 104.68L56.16 104.68ZM6.62 74.80Q6.62 81.57 9.29 86.82Q11.95 92.08 16.74 94.96Q21.53 97.84 27.65 97.84L27.65 97.84Q33.77 97.84 38.56 94.96Q43.34 92.08 46.01 86.82Q48.67 81.57 48.67 74.80L48.67 74.80Q48.67 68.03 46.01 62.78Q43.34 57.52 38.56 54.64Q33.77 51.76 27.65 51.76L27.65 51.76Q21.53 51.76 16.74 54.64Q11.95 57.52 9.29 62.78Q6.62 68.03 6.62 74.80L6.62 74.80ZM89.42 64.07Q90.07 64.07 90.47 64.50Q90.86 64.94 90.86 65.51L90.86 65.51L90.86 86.46Q90.86 93.30 87.01 96.87Q83.16 100.43 76.54 100.43L76.54 100.43Q69.91 100.43 66.10 96.87Q62.28 93.30 62.28 86.46L62.28 86.46L62.28 65.51Q62.28 64.94 62.71 64.50Q63.14 64.07 63.72 64.07L63.72 64.07Q64.37 64.07 64.76 64.50Q65.16 64.94 65.16 65.51L65.16 65.51L65.16 86.46Q65.16 91.86 68.18 94.78Q71.21 97.70 76.54 97.70L76.54 97.70Q81.94 97.70 84.96 94.78Q87.98 91.86 87.98 86.46L87.98 86.46L87.98 65.51Q87.98 64.94 88.38 64.50Q88.78 64.07 89.42 64.07L89.42 64.07ZM105.70 98.56Q105.70 99.14 105.26 99.57Q104.83 100 104.26 100L104.26 100Q103.61 100 103.21 99.57Q102.82 99.14 102.82 98.56L102.82 98.56L102.82 64.36Q102.82 63.78 103.25 63.35Q103.68 62.92 104.26 62.92L104.26 62.92Q104.90 62.92 105.30 63.35Q105.70 63.78 105.70 64.36L105.70 64.36L105.70 98.56ZM104.26 58.02Q103.10 58.02 102.42 57.38Q101.74 56.73 101.74 55.72L101.74 55.72L101.74 55.14Q101.74 54.14 102.46 53.49Q103.18 52.84 104.33 52.84L104.33 52.84Q105.34 52.84 106.02 53.49Q106.70 54.14 106.70 55.14L106.70 55.14L106.70 55.72Q106.70 56.73 106.02 57.38Q105.34 58.02 104.26 58.02L104.26 58.02ZM133.27 62.92Q136.37 62.92 139.28 63.64Q142.20 64.36 143.96 65.55Q145.73 66.74 145.73 68.03L145.73 68.03Q145.73 68.61 145.33 69.04Q144.94 69.47 144.36 69.47L144.36 69.47Q143.71 69.47 143.39 69.26Q143.06 69.04 142.49 68.46L142.49 68.46Q141.55 67.38 140.54 66.88L140.54 66.88Q137.95 65.66 133.20 65.66L133.20 65.66Q129.10 65.66 125.60 67.82Q122.11 69.98 120.06 73.68Q118.01 77.39 118.01 81.78L118.01 81.78Q118.01 86.39 119.92 90.10Q121.82 93.81 125.32 95.90Q128.81 97.98 133.20 97.98L133.20 97.98Q136.08 97.98 137.74 97.48Q139.39 96.98 141.05 96.04L141.05 96.04Q142.20 95.32 143.06 94.46L143.06 94.46Q143.42 94.10 143.78 93.84Q144.14 93.59 144.50 93.59L144.50 93.59Q145.08 93.59 145.40 93.95Q145.73 94.31 145.73 94.89L145.73 94.89Q145.73 95.90 144.07 97.30Q142.42 98.70 139.50 99.71Q136.58 100.72 132.98 100.72L132.98 100.72Q127.80 100.72 123.73 98.27Q119.66 95.82 117.40 91.50Q115.13 87.18 115.13 81.78L115.13 81.78Q115.13 76.74 117.40 72.42Q119.66 68.10 123.80 65.51Q127.94 62.92 133.27 62.92L133.27 62.92ZM182.81 97.48Q183.24 97.91 183.24 98.56L183.24 98.56Q183.24 99.21 182.70 99.60Q182.16 100 181.80 100L181.80 100Q181.22 100 180.72 99.50L180.72 99.50L163.87 81.57L157.82 86.61L157.82 98.56Q157.82 99.14 157.43 99.57Q157.03 100 156.38 100L156.38 100Q155.74 100 155.34 99.57Q154.94 99.14 154.94 98.56L154.94 98.56L154.94 48.16Q154.94 47.58 155.34 47.15Q155.74 46.72 156.38 46.72L156.38 46.72Q157.03 46.72 157.43 47.15Q157.82 47.58 157.82 48.16L157.82 48.16L157.82 83.01L180.43 64.07Q180.86 63.64 181.37 63.64L181.37 63.64Q181.94 63.64 182.38 64.07Q182.81 64.50 182.81 65.15L182.81 65.15Q182.81 65.80 182.30 66.23L182.30 66.23L166.10 79.70L182.81 97.48ZM189.94 94.24Q189.43 93.45 189.43 92.87L189.43 92.87Q189.43 92.37 190.01 91.94L190.01 91.94Q190.37 91.58 190.87 91.58L190.87 91.58Q191.59 91.58 192.02 92.15L192.02 92.15Q196.20 98.13 203.69 98.13L203.69 98.13Q207.50 98.13 210.38 96.22Q213.26 94.31 213.26 91.07L213.26 91.07Q213.26 87.76 210.74 86.10Q208.22 84.45 203.83 83.37L203.83 83.37Q198 81.93 194.65 79.52Q191.30 77.10 191.30 72.71L191.30 72.71Q191.30 68.46 194.69 65.69Q198.07 62.92 203.40 62.92L203.40 62.92Q206.35 62.92 209.27 64.07Q212.18 65.22 214.56 67.74L214.56 67.74Q215.06 68.18 215.06 68.75L215.06 68.75Q215.06 69.40 214.56 69.90L214.56 69.90Q213.98 70.19 213.62 70.19L213.62 70.19Q213.12 70.19 212.76 69.76L212.76 69.76Q209.02 65.66 203.11 65.66L203.11 65.66Q199.30 65.66 196.67 67.53Q194.04 69.40 194.04 72.71L194.04 72.71Q194.26 75.81 196.88 77.50Q199.51 79.19 204.62 80.49L204.62 80.49Q208.30 81.42 210.71 82.54Q213.12 83.66 214.56 85.67Q216 87.69 216 90.93L216 90.93Q216 95.46 212.51 98.09Q209.02 100.72 203.40 100.72L203.40 100.72Q195.19 100.72 189.94 94.24L189.94 94.24ZM255.46 64.07Q256.10 64.07 256.50 64.50Q256.90 64.94 256.90 65.51L256.90 65.51L256.90 98.56Q256.90 99.14 256.46 99.57Q256.03 100 255.46 100L255.46 100Q254.81 100 254.41 99.57Q254.02 99.14 254.02 98.56L254.02 98.56L254.02 92.08Q252.22 95.75 248.47 98.24Q244.73 100.72 240.19 100.72L240.19 100.72Q235.44 100.72 231.62 98.24Q227.81 95.75 225.65 91.40Q223.49 87.04 223.49 81.64L223.49 81.64Q223.49 76.31 225.68 72.03Q227.88 67.74 231.70 65.33Q235.51 62.92 240.19 62.92L240.19 62.92Q244.87 62.92 248.62 65.37Q252.36 67.82 254.02 71.92L254.02 71.92L254.02 65.51Q254.02 64.94 254.41 64.50Q254.81 64.07 255.46 64.07L255.46 64.07ZM240.34 97.98Q244.30 97.98 247.50 95.86Q250.70 93.74 252.50 89.99Q254.30 86.25 254.30 81.64L254.30 81.64Q254.30 77.25 252.50 73.58Q250.70 69.90 247.50 67.78Q244.30 65.66 240.34 65.66L240.34 65.66Q236.38 65.66 233.17 67.71Q229.97 69.76 228.17 73.40Q226.37 77.03 226.37 81.64L226.37 81.64Q226.37 86.25 228.17 89.99Q229.97 93.74 233.14 95.86Q236.30 97.98 240.34 97.98L240.34 97.98ZM285.19 62.92Q291.60 62.92 294.84 66.70Q298.08 70.48 298.08 76.53L298.08 76.53L298.08 98.56Q298.08 99.14 297.65 99.57Q297.22 100 296.64 100L296.64 100Q295.99 100 295.60 99.57Q295.20 99.14 295.20 98.56L295.20 98.56L295.20 76.82Q295.20 71.92 292.64 68.79Q290.09 65.66 284.90 65.66L284.90 65.66Q281.74 65.66 278.68 67.17Q275.62 68.68 273.67 71.27Q271.73 73.86 271.73 76.82L271.73 76.82L271.73 98.56Q271.73 99.14 271.30 99.57Q270.86 100 270.29 100L270.29 100Q269.64 100 269.24 99.57Q268.85 99.14 268.85 98.56L268.85 98.56L268.85 65.51Q268.85 64.94 269.28 64.50Q269.71 64.07 270.29 64.07L270.29 64.07Q270.94 64.07 271.33 64.50Q271.73 64.94 271.73 65.51L271.73 65.51L271.73 70.34Q273.82 67.10 277.60 65.01Q281.38 62.92 285.19 62.92L285.19 62.92ZM339.48 46.72Q340.13 46.72 340.52 47.15Q340.92 47.58 340.92 48.16L340.92 48.16L340.92 98.56Q340.92 99.14 340.49 99.57Q340.06 100 339.48 100L339.48 100Q338.83 100 338.44 99.57Q338.04 99.14 338.04 98.56L338.04 98.56L338.04 91.72Q336.31 95.54 332.57 98.13Q328.82 100.72 324.22 100.72L324.22 100.72Q319.54 100.72 315.72 98.24Q311.90 95.75 309.71 91.43Q307.51 87.11 307.51 81.78L307.51 81.78Q307.51 76.46 309.71 72.14Q311.90 67.82 315.72 65.37Q319.54 62.92 324.22 62.92L324.22 62.92Q328.68 62.92 332.50 65.44Q336.31 67.96 338.04 71.99L338.04 71.99L338.04 48.16Q338.04 47.58 338.44 47.15Q338.83 46.72 339.48 46.72L339.48 46.72ZM324.36 97.98Q328.39 97.98 331.56 95.90Q334.73 93.81 336.53 90.10Q338.33 86.39 338.33 81.78L338.33 81.78Q338.33 77.18 336.53 73.50Q334.73 69.83 331.52 67.74Q328.32 65.66 324.36 65.66L324.36 65.66Q320.47 65.66 317.27 67.74Q314.06 69.83 312.23 73.54Q310.39 77.25 310.39 81.78L310.39 81.78Q310.39 86.39 312.23 90.06Q314.06 93.74 317.23 95.86Q320.40 97.98 324.36 97.98L324.36 97.98ZM375.55 98.56Q375.55 99.14 375.12 99.57Q374.69 100 374.11 100L374.11 100Q373.46 100 373.07 99.57Q372.67 99.14 372.67 98.56L372.67 98.56L372.67 48.16Q372.67 47.58 373.10 47.15Q373.54 46.72 374.11 46.72L374.11 46.72Q374.76 46.72 375.16 47.15Q375.55 47.58 375.55 48.16L375.55 48.16L375.55 98.56ZM390.74 98.56Q390.74 99.14 390.31 99.57Q389.88 100 389.30 100L389.30 100Q388.66 100 388.26 99.57Q387.86 99.14 387.86 98.56L387.86 98.56L387.86 64.36Q387.86 63.78 388.30 63.35Q388.73 62.92 389.30 62.92L389.30 62.92Q389.95 62.92 390.35 63.35Q390.74 63.78 390.74 64.36L390.74 64.36L390.74 98.56ZM389.30 58.02Q388.15 58.02 387.47 57.38Q386.78 56.73 386.78 55.72L386.78 55.72L386.78 55.14Q386.78 54.14 387.50 53.49Q388.22 52.84 389.38 52.84L389.38 52.84Q390.38 52.84 391.07 53.49Q391.75 54.14 391.75 55.14L391.75 55.14L391.75 55.72Q391.75 56.73 391.07 57.38Q390.38 58.02 389.30 58.02L389.30 58.02ZM433.58 64.07Q434.23 64.07 434.63 64.50Q435.02 64.94 435.02 65.51L435.02 65.51L435.02 96.47Q435.02 101.94 432.79 105.98Q430.56 110.01 426.53 112.20Q422.50 114.40 417.31 114.40L417.31 114.40Q414.43 114.40 411.48 113.64Q408.53 112.89 406.62 111.70Q404.71 110.51 404.71 109.29L404.71 109.29Q404.71 108.71 405.04 108.35Q405.36 107.99 405.94 107.99L405.94 107.99Q406.37 107.99 407.23 108.71L407.23 108.71Q408.24 109.72 409.46 110.22L409.46 110.22Q412.99 111.66 417.46 111.66L417.46 111.66Q424.22 111.66 428.18 107.49Q432.14 103.31 432.14 96.47L432.14 96.47L432.14 91.50Q430.20 96.11 426.13 98.42Q422.06 100.72 417.60 100.72L417.60 100.72Q412.70 100.72 408.71 98.24Q404.71 95.75 402.44 91.43Q400.18 87.11 400.18 81.78L400.18 81.78Q400.18 76.46 402.44 72.14Q404.71 67.82 408.71 65.37Q412.70 62.92 417.60 62.92L417.60 62.92Q422.42 62.92 426.42 65.48Q430.42 68.03 432.14 71.63L432.14 71.63L432.14 65.51Q432.14 64.94 432.54 64.50Q432.94 64.07 433.58 64.07L433.58 64.07ZM417.74 97.98Q421.92 97.98 425.27 95.93Q428.62 93.88 430.52 90.21Q432.43 86.54 432.43 81.78L432.43 81.78Q432.43 77.03 430.52 73.36Q428.62 69.69 425.27 67.67Q421.92 65.66 417.74 65.66L417.74 65.66Q413.57 65.66 410.22 67.74Q406.87 69.83 404.96 73.50Q403.06 77.18 403.06 81.78L403.06 81.78Q403.06 86.39 404.96 90.06Q406.87 93.74 410.22 95.86Q413.57 97.98 417.74 97.98L417.74 97.98ZM462.67 63.64Q468.86 63.64 472.18 67.56Q475.49 71.49 475.49 77.54L475.49 77.54L475.49 98.56Q475.49 99.14 475.06 99.57Q474.62 100 474.05 100L474.05 100Q473.40 100 473.00 99.57Q472.61 99.14 472.61 98.56L472.61 98.56L472.61 77.54Q472.61 72.57 470.16 69.47Q467.71 66.38 462.67 66.38L462.67 66.38Q459.58 66.38 456.59 67.89Q453.60 69.40 451.73 71.99Q449.86 74.58 449.86 77.54L449.86 77.54L449.86 98.56Q449.86 99.14 449.42 99.57Q448.99 100 448.42 100L448.42 100Q447.77 100 447.37 99.57Q446.98 99.14 446.98 98.56L446.98 98.56L446.98 48.16Q446.98 47.58 447.41 47.15Q447.84 46.72 448.42 46.72L448.42 46.72Q449.06 46.72 449.46 47.15Q449.86 47.58 449.86 48.16L449.86 48.16L449.86 70.91Q451.87 67.74 455.44 65.69Q459.00 63.64 462.67 63.64L462.67 63.64ZM500.83 63.78Q501.34 63.78 501.77 64.22Q502.20 64.65 502.20 65.15L502.20 65.15Q502.20 65.73 501.80 66.12Q501.41 66.52 500.83 66.52L500.83 66.52L492.91 66.52L492.91 92.15Q492.91 95.32 494.03 96.36Q495.14 97.41 496.87 97.41L496.87 97.41Q497.16 97.41 497.70 97.26Q498.24 97.12 498.60 97.12L498.60 97.12Q499.10 97.12 499.46 97.52Q499.82 97.91 499.82 98.42L499.82 98.42Q499.82 99.06 498.96 99.53Q498.10 100 496.94 100L496.94 100Q495.14 100 493.92 99.75Q492.70 99.50 491.36 97.80Q490.03 96.11 490.03 92.30L490.03 92.30L490.03 66.52L484.13 66.52Q483.62 66.52 483.19 66.09Q482.76 65.66 482.76 65.15L482.76 65.15Q482.76 64.58 483.16 64.18Q483.55 63.78 484.13 63.78L484.13 63.78L490.03 63.78L490.03 54.64Q490.03 54.06 490.46 53.63Q490.90 53.20 491.47 53.20L491.47 53.20Q492.12 53.20 492.52 53.63Q492.91 54.06 492.91 54.64L492.91 54.64L492.91 63.78L500.83 63.78Z"/></svg>