<svg xmlns="http://www.w3.org/2000/svg" viewBox="2.8800000000000003 46.71999999999999 524.4480000000001 67.68"><path d="M52 102Q54 102 55 103Q56 105 56 106L56 106Q56 108 54 110Q51 112 48 113Q44 114 42 114L42 114Q37 114 34 114Q32 113 29 111L29 111Q27 110 26 109Q25 109 23 109L23 109Q22 109 22 109Q21 109 20 110L20 110Q19 110 19 111Q18 111 16 111L16 111Q15 111 14 110Q12 108 12 107L12 107Q12 104 15 103L15 103L22 100Q16 99 12 95Q8 92 5 86Q3 81 3 75L3 75Q3 68 6 62Q9 56 15 52Q20 49 27 49L27 49Q34 49 40 52Q45 56 49 62Q52 68 52 75L52 75Q52 81 49 86Q47 92 43 95Q38 99 33 100L33 100L28 102Q30 102 31 103Q33 103 34 104L34 104Q37 105 38 106Q40 107 42 107L42 107Q44 107 45 106Q47 105 48 104L48 104Q48 104 49 103Q50 103 51 102Q51 102 52 102L52 102ZM12 75Q12 80 14 84Q16 88 19 90Q23 92 27 92L27 92Q32 92 35 90Q39 87 40 84Q42 80 42 75L42 75Q42 70 40 66Q39 62 35 60Q32 58 27 58L27 58Q23 58 19 60Q16 62 14 66Q12 70 12 75L12 75ZM88 61Q89 61 91 63Q92 64 92 66L92 66L92 84Q92 92 88 96Q83 101 75 101L75 101Q68 101 63 96Q59 92 59 84L59 84L59 66Q59 64 60 63Q61 61 63 61L63 61Q65 61 66 63Q68 64 68 66L68 66L68 84Q68 89 70 91Q72 93 75 93L75 93Q79 93 81 91Q83 89 83 84L83 84L83 66Q83 64 85 63Q86 61 88 61L88 61ZM109 96Q109 97 108 99Q107 100 105 100L105 100Q103 100 102 99Q101 97 101 96L101 96L101 66Q101 64 102 63Q103 61 105 61L105 61Q107 61 108 63Q109 64 109 66L109 66L109 96ZM105 57Q103 57 102 56Q101 55 101 53L101 53L101 52Q101 50 102 49Q103 48 105 48L105 48Q108 48 109 49Q110 50 110 52L110 52L110 53Q110 55 109 56Q108 57 105 57L105 57ZM135 61Q141 61 145 63Q149 65 149 68L149 68Q149 69 148 71Q147 72 145 72L145 72Q144 72 143 71Q143 71 142 71Q141 70 141 70L141 70Q140 69 139 69Q137 69 136 69L136 69Q131 69 128 72Q125 75 125 81L125 81Q125 86 128 89Q131 93 136 93L136 93Q139 93 141 92L141 92Q141 92 142 91Q143 91 144 90Q144 90 145 90L145 90Q147 90 148 91Q149 92 149 94L149 94Q149 96 147 97Q145 99 142 100Q138 101 135 101L135 101Q129 101 125 98Q121 96 118 91Q116 86 116 81L116 81Q116 75 119 70Q121 66 125 63Q130 61 135 61L135 61ZM187 92Q189 94 189 96L189 96Q189 97 187 99Q186 100 184 100L184 100Q183 100 181 98L181 98L168 85L165 88L165 96Q165 97 164 99Q162 100 160 100L160 100Q159 100 157 99Q156 97 156 96L156 96L156 51Q156 49 157 48Q159 47 160 47L160 47Q162 47 164 48Q165 49 165 51L165 51L165 78L180 63Q182 61 183 61L183 61Q185 61 186 63Q187 64 187 66L187 66Q187 67 186 69L186 69L175 79L187 92ZM194 94Q193 93 193 92L193 92Q193 90 195 89L195 89Q196 88 197 88L197 88Q199 88 200 89L200 89Q202 92 204 93Q207 94 210 94L210 94Q216 94 216 90L216 90Q216 87 214 86Q212 85 208 84L208 84Q204 83 201 82Q198 81 197 78Q195 76 195 72L195 72Q195 69 197 66Q199 64 202 62Q205 61 209 61L209 61Q212 61 216 62Q220 63 222 66L222 66Q223 67 223 69L223 69Q223 70 221 71L221 71Q220 72 219 72L219 72Q217 72 216 71L216 71Q215 70 213 69Q211 68 208 68L208 68Q203 68 203 72L203 72Q203 73 204 74Q205 75 206 76Q208 76 211 77L211 77Q215 78 217 79Q220 81 222 83Q223 85 223 89L223 89Q223 93 221 95Q219 98 216 99Q213 101 209 101L209 101Q205 101 200 99Q196 98 194 94L194 94ZM262 61Q264 61 266 62Q267 63 267 65L267 65L267 96Q267 97 266 99Q264 100 262 100L262 100Q261 100 259 99Q258 98 258 96L258 96Q256 98 253 99Q250 101 247 101L247 101Q242 101 238 98Q234 96 231 91Q229 87 229 81L229 81Q229 75 231 70Q234 66 238 63Q242 61 247 61L247 61Q250 61 253 62Q256 63 258 65L258 65L258 65Q258 63 259 62Q261 61 262 61L262 61ZM248 93Q253 93 256 89Q258 86 258 81L258 81Q258 76 256 72Q253 69 248 69L248 69Q243 69 240 72Q237 76 237 81L237 81Q237 86 240 89Q243 93 248 93L248 93ZM297 61Q304 61 307 65Q310 69 310 77L310 77L310 96Q310 97 308 99Q307 100 305 100L305 100Q303 100 302 99Q301 97 301 96L301 96L301 77Q301 73 299 71Q298 69 294 69L294 69Q290 69 287 71Q285 74 285 77L285 77L285 96Q285 97 284 99Q282 100 280 100L280 100Q279 100 277 99Q276 97 276 96L276 96L276 66Q276 64 277 63Q279 61 280 61L280 61Q282 61 284 63Q285 64 285 66L285 66L285 67Q287 65 290 63Q293 61 297 61L297 61ZM350 47Q352 47 353 48Q355 49 355 51L355 51L355 96Q355 97 353 99Q352 100 350 100L350 100Q348 100 347 99Q346 98 346 96L346 96Q344 98 341 99Q338 101 335 101L335 101Q330 101 326 98Q322 96 319 91Q317 87 317 81L317 81Q317 75 319 70Q321 66 325 63Q329 61 334 61L334 61Q338 61 341 62Q344 63 346 65L346 65L346 51Q346 49 347 48Q348 47 350 47L350 47ZM336 93Q340 93 343 89Q346 86 346 81L346 81Q346 76 343 72Q340 69 336 69L336 69Q331 69 328 72Q325 76 325 81L325 81Q325 86 328 89Q331 93 336 93L336 93ZM404 61Q409 61 413 63Q417 66 419 70Q422 75 422 81L422 81Q422 86 419 91Q417 96 413 98Q409 101 404 101L404 101Q401 101 398 99Q395 98 393 96L393 96L393 96Q393 98 391 99Q390 101 388 101L388 101Q386 101 385 99Q384 98 384 96L384 96L384 51Q384 49 385 48Q386 47 388 47L388 47Q390 47 391 48Q393 49 393 51L393 51L393 66Q394 64 398 62Q401 61 404 61L404 61ZM403 93Q408 93 410 89Q413 86 413 81L413 81Q413 76 411 72Q408 69 403 69L403 69Q398 69 395 72Q392 76 392 81L392 81Q392 86 395 89Q398 93 403 93L403 93ZM466 81Q466 87 463 91Q461 96 456 98Q452 101 446 101L446 101Q441 101 436 98Q432 96 429 91Q427 87 427 81L427 81Q427 75 429 70Q432 66 436 63Q441 61 446 61L446 61Q452 61 456 63Q461 66 463 70Q466 75 466 81L466 81ZM457 81Q457 77 456 74Q454 72 452 70Q449 69 446 69L446 69Q443 69 441 70Q438 72 437 74Q435 77 435 81L435 81Q435 84 437 87Q438 90 441 91Q443 93 446 93L446 93Q449 93 452 91Q454 90 456 87Q457 84 457 81L457 81ZM482 96Q482 97 481 99Q480 100 478 100L478 100Q476 100 475 99Q474 97 474 96L474 96L474 51Q474 49 475 48Q476 47 478 47L478 47Q480 47 481 48Q482 49 482 51L482 51L482 96ZM523 47Q525 47 526 48Q527 49 527 51L527 51L527 96Q527 97 526 99Q525 100 523 100L523 100Q521 100 520 99Q519 98 519 96L519 96Q517 98 514 99Q511 101 507 101L507 101Q502 101 498 98Q494 96 492 91Q490 87 490 81L490 81Q490 75 492 70Q494 66 498 63Q502 61 507 61L507 61Q511 61 514 62Q517 63 519 65L519 65L519 51Q519 49 520 48Q521 47 523 47L523 47ZM508 93Q513 93 516 89Q519 86 519 81L519 81Q519 76 516 72Q513 69 508 69L508 69Q504 69 501 72Q498 76 498 81L498 81Q498 86 501 89Q504 93 508 93L508 93Z"/></svg>