<svg xmlns="http://www.w3.org/2000/svg" viewBox="1.7280000000000002 47.43999999999999 442.7280000000001 68.68800000000002"><path d="M6.70 100L1.73 100L12.60 48.88L33.12 48.88Q35.78 48.88 37.94 50.00Q40.10 51.11 41.54 52.98Q42.98 54.86 43.78 57.27Q44.57 59.68 44.57 62.20L44.57 62.20Q44.57 65.30 43.42 68.28Q42.26 71.27 40.32 73.72Q38.38 76.17 35.75 77.93Q33.12 79.70 30.17 80.27L30.17 80.27L37.87 100L32.18 100L24.84 81.14L10.73 81.14L6.70 100ZM11.66 76.67L27.43 76.67Q29.88 76.67 32.08 75.45Q34.27 74.22 35.89 72.24Q37.51 70.26 38.45 67.78Q39.38 65.30 39.38 62.78L39.38 62.78Q39.38 60.83 38.84 59.14Q38.30 57.45 37.33 56.15Q36.36 54.86 34.96 54.10Q33.55 53.34 31.90 53.34L31.90 53.34L16.63 53.34L11.66 76.67ZM59.54 100.72L59.54 100.72Q56.38 100.72 53.93 99.46Q51.48 98.20 49.75 96.04Q48.02 93.88 47.12 91.04Q46.22 88.19 46.22 85.02L46.22 85.02Q46.22 80.56 47.95 76.38Q49.68 72.21 52.56 68.97Q55.44 65.73 59.18 63.78Q62.93 61.84 67.03 61.84L67.03 61.84Q71.57 61.84 74.52 64.32Q77.47 66.81 78.70 70.34L78.70 70.34L80.42 62.49L85.32 62.49L78.70 93.59Q78.55 94.17 78.55 94.53L78.55 94.53Q78.55 95.68 79.92 95.68L79.92 95.68L78.98 100Q78.41 100.07 77.90 100.14Q77.40 100.22 77.04 100.22L77.04 100.22Q75.38 100.07 74.56 99.32Q73.73 98.56 73.73 97.34L73.73 97.34Q73.73 96.76 73.91 95.82Q74.09 94.89 74.52 92.73L74.52 92.73Q71.64 96.40 67.57 98.56Q63.50 100.72 59.54 100.72ZM61.56 96.40L61.56 96.40Q63.36 96.40 65.45 95.68Q67.54 94.96 69.44 93.70Q71.35 92.44 72.90 90.75Q74.45 89.06 75.17 87.11L75.17 87.11L77.54 75.52Q77.33 73.58 76.39 71.88Q75.46 70.19 74.09 68.93Q72.72 67.67 70.99 66.92Q69.26 66.16 67.39 66.16L67.39 66.16Q64.15 66.16 61.24 67.78Q58.32 69.40 56.12 71.99Q53.93 74.58 52.63 77.82Q51.34 81.06 51.34 84.30L51.34 84.30Q51.34 86.82 52.06 89.02Q52.78 91.22 54.14 92.84Q55.51 94.46 57.38 95.43Q59.26 96.40 61.56 96.40ZM95.18 100.43L95.18 100.43Q92.52 100.43 91.01 99.06Q89.50 97.70 89.50 95.18L89.50 95.18Q89.50 94.74 89.57 94.24Q89.64 93.74 89.78 93.16L89.78 93.16L99.43 47.44L104.33 47.44L94.97 91.50Q94.90 91.86 94.86 92.15Q94.82 92.44 94.82 92.80L94.82 92.80Q94.82 95.97 98.21 95.97L98.21 95.97Q99.00 95.97 100.08 95.75Q101.16 95.54 102.17 95.18L102.17 95.18L102.02 99.14Q100.58 99.71 98.60 100.07Q96.62 100.43 95.18 100.43ZM122.40 100.72L122.40 100.72Q118.94 100.72 116.24 99.50Q113.54 98.27 111.71 96.11Q109.87 93.95 108.90 91.07Q107.93 88.19 107.93 84.88L107.93 84.88Q107.93 80.42 109.66 76.28Q111.38 72.14 114.41 68.93Q117.43 65.73 121.57 63.78Q125.71 61.84 130.54 61.84L130.54 61.84Q132.98 61.84 135.18 62.49Q137.38 63.14 139.00 64.40Q140.62 65.66 141.55 67.56Q142.49 69.47 142.49 71.92L142.49 71.92Q142.49 77.46 137.59 80.27Q132.70 83.08 122.47 83.08L122.47 83.08Q120.46 83.08 118.12 83.01Q115.78 82.94 113.04 82.72L113.04 82.72Q112.97 83.30 112.93 83.80Q112.90 84.30 112.90 84.81L112.90 84.81Q112.90 87.26 113.54 89.45Q114.19 91.65 115.49 93.34Q116.78 95.03 118.73 96.00Q120.67 96.98 123.26 96.98L123.26 96.98Q124.99 96.98 126.79 96.47Q128.59 95.97 130.21 95.07Q131.83 94.17 133.20 92.87Q134.57 91.58 135.50 89.99L135.50 89.99L139.54 91.22Q138.24 93.30 136.37 95.07Q134.50 96.83 132.23 98.09Q129.96 99.35 127.48 100.04Q124.99 100.72 122.40 100.72ZM130.03 65.66L130.03 65.66Q126.79 65.66 124.13 66.81Q121.46 67.96 119.38 69.83Q117.29 71.70 115.85 74.15Q114.41 76.60 113.69 79.19L113.69 79.19Q116.28 79.34 118.48 79.44Q120.67 79.55 122.69 79.55L122.69 79.55Q126.94 79.55 129.89 78.98Q132.84 78.40 134.64 77.39Q136.44 76.38 137.23 74.94Q138.02 73.50 138.02 71.85L138.02 71.85Q138.02 68.61 135.65 67.13Q133.27 65.66 130.03 65.66ZM154.94 100L147.60 62.49L152.64 62.49L158.69 95.46Q161.57 92.01 164.02 88.44Q166.46 84.88 168.55 81.21L168.55 81.21L164.23 62.49L169.27 62.49L172.01 74.94Q173.59 71.70 174.78 68.61Q175.97 65.51 176.83 62.49L176.83 62.49L181.51 62.49Q180.14 67.17 178.13 71.81Q176.11 76.46 173.45 81.14L173.45 81.14L176.54 95.46Q182.88 87.40 187.31 78.98Q191.74 70.55 193.97 62.49L193.97 62.49L198.72 62.49Q193.18 81.42 178.06 100L178.06 100L172.80 100L169.92 86.75Q167.83 90.14 165.42 93.45Q163.01 96.76 160.20 100L160.20 100L154.94 100ZM212.83 100.72L212.83 100.72Q209.66 100.72 207.22 99.46Q204.77 98.20 203.04 96.04Q201.31 93.88 200.41 91.04Q199.51 88.19 199.51 85.02L199.51 85.02Q199.51 80.56 201.24 76.38Q202.97 72.21 205.85 68.97Q208.73 65.73 212.47 63.78Q216.22 61.84 220.32 61.84L220.32 61.84Q224.86 61.84 227.81 64.32Q230.76 66.81 231.98 70.34L231.98 70.34L233.71 62.49L238.61 62.49L231.98 93.59Q231.84 94.17 231.84 94.53L231.84 94.53Q231.84 95.68 233.21 95.68L233.21 95.68L232.27 100Q231.70 100.07 231.19 100.14Q230.69 100.22 230.33 100.22L230.33 100.22Q228.67 100.07 227.84 99.32Q227.02 98.56 227.02 97.34L227.02 97.34Q227.02 96.76 227.20 95.82Q227.38 94.89 227.81 92.73L227.81 92.73Q224.93 96.40 220.86 98.56Q216.79 100.72 212.83 100.72ZM214.85 96.40L214.85 96.40Q216.65 96.40 218.74 95.68Q220.82 94.96 222.73 93.70Q224.64 92.44 226.19 90.75Q227.74 89.06 228.46 87.11L228.46 87.11L230.83 75.52Q230.62 73.58 229.68 71.88Q228.74 70.19 227.38 68.93Q226.01 67.67 224.28 66.92Q222.55 66.16 220.68 66.16L220.68 66.16Q217.44 66.16 214.52 67.78Q211.61 69.40 209.41 71.99Q207.22 74.58 205.92 77.82Q204.62 81.06 204.62 84.30L204.62 84.30Q204.62 86.82 205.34 89.02Q206.06 91.22 207.43 92.84Q208.80 94.46 210.67 95.43Q212.54 96.40 214.85 96.40ZM238.82 116.13L238.18 112.17Q240.41 111.81 242.03 111.30Q243.65 110.80 244.91 109.86Q246.17 108.93 247.28 107.56Q248.40 106.19 249.77 104.10L249.77 104.10L252.14 100.58L244.44 62.49L249.55 62.49L255.60 95.46L258.55 90.64Q261.65 85.60 263.81 81.78Q265.97 77.97 267.52 74.76Q269.06 71.56 270.11 68.64Q271.15 65.73 272.02 62.49L272.02 62.49L276.84 62.49Q275.83 65.94 274.75 68.93Q273.67 71.92 272.05 75.27Q270.43 78.62 268.02 82.76Q265.61 86.90 262.01 92.58L262.01 92.58L256.18 101.87Q253.66 105.83 251.60 108.50Q249.55 111.16 247.57 112.82Q245.59 114.47 243.50 115.23Q241.42 115.98 238.82 116.13L238.82 116.13ZM293.26 100L301.18 62.49L306.07 62.49L298.15 100L293.26 100ZM302.90 54.64L304.42 47.44L309.31 47.44L307.80 54.64L302.90 54.64ZM317.66 100.43L317.66 100.43Q314.93 100.43 313.16 99.10Q311.40 97.77 311.40 95.03L311.40 95.03Q311.40 94.24 311.62 93.23L311.62 93.23L317.30 66.38L312.34 66.38L313.20 62.49L318.10 62.49L320.83 49.82L325.73 49.82L322.99 62.49L331.20 62.49L330.34 66.38L322.20 66.38L317.02 90.78Q316.87 91.58 316.76 92.01Q316.66 92.44 316.66 92.80L316.66 92.80Q316.66 94.46 317.66 95.18Q318.67 95.90 320.11 95.90L320.11 95.90Q322.06 95.90 323.71 95.21Q325.37 94.53 325.87 94.24L325.87 94.24L326.30 98.20Q325.37 98.85 322.96 99.64Q320.54 100.43 317.66 100.43ZM345.24 100.72L345.24 100.72Q342.07 100.72 339.62 99.46Q337.18 98.20 335.45 96.04Q333.72 93.88 332.82 91.04Q331.92 88.19 331.92 85.02L331.92 85.02Q331.92 80.56 333.65 76.38Q335.38 72.21 338.26 68.97Q341.14 65.73 344.88 63.78Q348.62 61.84 352.73 61.84L352.73 61.84Q357.26 61.84 360.22 64.32Q363.17 66.81 364.39 70.34L364.39 70.34L366.12 62.49L371.02 62.49L364.39 93.59Q364.25 94.17 364.25 94.53L364.25 94.53Q364.25 95.68 365.62 95.68L365.62 95.68L364.68 100Q364.10 100.07 363.60 100.14Q363.10 100.22 362.74 100.22L362.74 100.22Q361.08 100.07 360.25 99.32Q359.42 98.56 359.42 97.34L359.42 97.34Q359.42 96.76 359.60 95.82Q359.78 94.89 360.22 92.73L360.22 92.73Q357.34 96.40 353.27 98.56Q349.20 100.72 345.24 100.72ZM347.26 96.40L347.26 96.40Q349.06 96.40 351.14 95.68Q353.23 94.96 355.14 93.70Q357.05 92.44 358.60 90.75Q360.14 89.06 360.86 87.11L360.86 87.11L363.24 75.52Q363.02 73.58 362.09 71.88Q361.15 70.19 359.78 68.93Q358.42 67.67 356.69 66.92Q354.96 66.16 353.09 66.16L353.09 66.16Q349.85 66.16 346.93 67.78Q344.02 69.40 341.82 71.99Q339.62 74.58 338.33 77.82Q337.03 81.06 337.03 84.30L337.03 84.30Q337.03 86.82 337.75 89.02Q338.47 91.22 339.84 92.84Q341.21 94.46 343.08 95.43Q344.95 96.40 347.26 96.40ZM380.88 100.43L380.88 100.43Q378.22 100.43 376.70 99.06Q375.19 97.70 375.19 95.18L375.19 95.18Q375.19 94.74 375.26 94.24Q375.34 93.74 375.48 93.16L375.48 93.16L385.13 47.44L390.02 47.44L380.66 91.50Q380.59 91.86 380.56 92.15Q380.52 92.44 380.52 92.80L380.52 92.80Q380.52 95.97 383.90 95.97L383.90 95.97Q384.70 95.97 385.78 95.75Q386.86 95.54 387.86 95.18L387.86 95.18L387.72 99.14Q386.28 99.71 384.30 100.07Q382.32 100.43 380.88 100.43ZM392.83 100L400.75 62.49L405.65 62.49L397.73 100L392.83 100ZM402.48 54.64L403.99 47.44L408.89 47.44L407.38 54.64L402.48 54.64ZM423.58 100.72L423.58 100.72Q420.26 100.72 417.60 99.46Q414.94 98.20 413.10 96.04Q411.26 93.88 410.29 91Q409.32 88.12 409.32 84.88L409.32 84.88Q409.32 80.34 411.12 76.17Q412.92 71.99 415.98 68.79Q419.04 65.58 423.11 63.71Q427.18 61.84 431.78 61.84L431.78 61.84Q436.90 61.84 440.17 64.25Q443.45 66.66 444.46 70.77L444.46 70.77L439.42 72.28Q438.55 69.40 436.25 67.78Q433.94 66.16 430.70 66.16L430.70 66.16Q427.54 66.16 424.62 67.60Q421.70 69.04 419.40 71.49Q417.10 73.94 415.73 77.25Q414.36 80.56 414.36 84.23L414.36 84.23Q414.36 86.82 415.08 89.02Q415.80 91.22 417.10 92.87Q418.39 94.53 420.23 95.46Q422.06 96.40 424.30 96.40L424.30 96.40Q426.02 96.40 427.79 95.90Q429.55 95.39 431.14 94.49Q432.72 93.59 433.98 92.44Q435.24 91.29 435.89 89.99L435.89 89.99L440.42 91.43Q439.27 93.45 437.47 95.14Q435.67 96.83 433.44 98.09Q431.21 99.35 428.69 100.04Q426.17 100.72 423.58 100.72Z"/></svg>