<svg xmlns="http://www.w3.org/2000/svg" viewBox="1.9440000000000002 47.43999999999999 587.4480000000001 68.68800000000002"><path d="M5.62 100L1.94 100L12.82 48.88L33.12 48.88Q35.71 48.88 37.80 50.00Q39.89 51.11 41.33 52.95Q42.77 54.78 43.52 57.12Q44.28 59.46 44.28 61.98L44.28 61.98Q44.28 65.15 43.09 68.21Q41.90 71.27 39.85 73.76Q37.80 76.24 35.10 77.97Q32.40 79.70 29.30 80.13L29.30 80.13L37.08 100L32.90 100L25.27 80.70L9.72 80.70L5.62 100ZM10.44 77.32L27.36 77.32Q30.02 77.32 32.44 75.99Q34.85 74.66 36.61 72.53Q38.38 70.41 39.42 67.74Q40.46 65.08 40.46 62.42L40.46 62.42Q40.46 60.40 39.85 58.53Q39.24 56.66 38.16 55.25Q37.08 53.85 35.57 53.02Q34.06 52.19 32.18 52.19L32.18 52.19L15.77 52.19L10.44 77.32ZM59.40 100.72L59.40 100.72Q56.30 100.72 53.82 99.42Q51.34 98.13 49.61 95.97Q47.88 93.81 46.98 90.96Q46.08 88.12 46.08 84.95L46.08 84.95Q46.08 80.56 47.81 76.42Q49.54 72.28 52.45 69.04Q55.37 65.80 59.11 63.86Q62.86 61.91 66.96 61.91L66.96 61.91Q69.34 61.91 71.24 62.63Q73.15 63.35 74.66 64.54Q76.18 65.73 77.26 67.31Q78.34 68.90 78.98 70.70L78.98 70.70L80.71 62.56L84.38 62.56L77.47 94.82Q77.33 95.39 77.33 95.68L77.33 95.68Q77.33 96.76 78.55 96.76L78.55 96.76L77.83 100Q77.47 100.07 77.22 100.11Q76.97 100.14 76.75 100.14L76.75 100.14Q75.31 100.14 74.56 99.42Q73.80 98.70 73.80 97.55L73.80 97.55Q73.80 97.34 73.84 97.01Q73.87 96.69 73.98 96.15Q74.09 95.61 74.23 94.74Q74.38 93.88 74.66 92.51L74.66 92.51Q71.71 96.26 67.61 98.49Q63.50 100.72 59.40 100.72ZM60.70 97.48L60.70 97.48Q62.64 97.48 64.94 96.65Q67.25 95.82 69.37 94.46Q71.50 93.09 73.15 91.25Q74.81 89.42 75.46 87.40L75.46 87.40L78.05 75.09Q77.76 73.07 76.79 71.27Q75.82 69.47 74.34 68.10Q72.86 66.74 70.99 65.94Q69.12 65.15 66.96 65.15L66.96 65.15Q63.50 65.15 60.41 66.88Q57.31 68.61 54.97 71.38Q52.63 74.15 51.23 77.61Q49.82 81.06 49.82 84.52L49.82 84.52Q49.82 87.11 50.62 89.49Q51.41 91.86 52.85 93.63Q54.29 95.39 56.30 96.44Q58.32 97.48 60.70 97.48ZM94.10 100.43L94.10 100.43Q91.66 100.43 90.29 99.10Q88.92 97.77 88.92 95.46L88.92 95.46Q88.92 94.67 89.14 93.66L89.14 93.66L98.93 47.44L102.53 47.44L92.95 92.58Q92.88 92.94 92.84 93.23Q92.81 93.52 92.81 93.88L92.81 93.88Q92.81 95.39 93.71 96.26Q94.61 97.12 96.34 97.12L96.34 97.12Q97.13 97.12 98.21 96.94Q99.29 96.76 100.22 96.40L100.22 96.40L100.22 99.28Q99.00 99.78 97.16 100.11Q95.33 100.43 94.10 100.43ZM120.38 100.72L120.38 100.72Q117.00 100.72 114.37 99.46Q111.74 98.20 109.91 96.04Q108.07 93.88 107.14 91Q106.20 88.12 106.20 84.88L106.20 84.88Q106.20 80.49 107.89 76.35Q109.58 72.21 112.61 69.00Q115.63 65.80 119.70 63.86Q123.77 61.91 128.52 61.91L128.52 61.91Q130.75 61.91 132.84 62.56Q134.93 63.21 136.55 64.47Q138.17 65.73 139.14 67.60Q140.11 69.47 140.11 71.92L140.11 71.92Q140.11 82.72 120.53 82.72L120.53 82.72Q118.22 82.72 115.67 82.65Q113.11 82.58 110.02 82.36L110.02 82.36Q109.94 82.94 109.91 83.58Q109.87 84.23 109.87 84.81L109.87 84.81Q109.87 87.47 110.56 89.85Q111.24 92.22 112.64 93.99Q114.05 95.75 116.17 96.80Q118.30 97.84 121.10 97.84L121.10 97.84Q122.90 97.84 124.81 97.30Q126.72 96.76 128.45 95.79Q130.18 94.82 131.65 93.41Q133.13 92.01 134.14 90.28L134.14 90.28L137.16 91.22Q135.86 93.38 134.03 95.10Q132.19 96.83 130.00 98.09Q127.80 99.35 125.35 100.04Q122.90 100.72 120.38 100.72ZM128.09 64.86L128.09 64.86Q124.70 64.86 121.86 66.12Q119.02 67.38 116.78 69.44Q114.55 71.49 112.97 74.15Q111.38 76.82 110.59 79.62L110.59 79.62Q113.62 79.84 116.03 79.91Q118.44 79.98 120.74 79.98L120.74 79.98Q125.21 79.98 128.27 79.37Q131.33 78.76 133.20 77.68Q135.07 76.60 135.90 75.12Q136.73 73.65 136.73 71.85L136.73 71.85Q136.73 70.05 135.97 68.72Q135.22 67.38 134.03 66.52Q132.84 65.66 131.26 65.26Q129.67 64.86 128.09 64.86ZM152.71 100L145.58 62.56L149.33 62.56L155.45 96.40Q158.83 92.58 161.64 88.41Q164.45 84.23 166.75 79.98L166.75 79.98L163.01 62.56L166.75 62.56L169.27 75.23Q170.93 71.92 172.15 68.75Q173.38 65.58 174.31 62.56L174.31 62.56L177.77 62.56Q175.18 71.13 170.35 80.06L170.35 80.06L173.66 96.40Q180.43 88.34 185.04 79.48Q189.65 70.62 192.02 62.56L192.02 62.56L195.55 62.56Q192.67 71.99 187.56 81.42Q182.45 90.86 174.60 100L174.60 100L170.86 100L167.76 84.38Q165.46 88.34 162.65 92.26Q159.84 96.18 156.46 100L156.46 100L152.71 100ZM209.88 100.72L209.88 100.72Q206.78 100.72 204.30 99.42Q201.82 98.13 200.09 95.97Q198.36 93.81 197.46 90.96Q196.56 88.12 196.56 84.95L196.56 84.95Q196.56 80.56 198.29 76.42Q200.02 72.28 202.93 69.04Q205.85 65.80 209.59 63.86Q213.34 61.91 217.44 61.91L217.44 61.91Q219.82 61.91 221.72 62.63Q223.63 63.35 225.14 64.54Q226.66 65.73 227.74 67.31Q228.82 68.90 229.46 70.70L229.46 70.70L231.19 62.56L234.86 62.56L227.95 94.82Q227.81 95.39 227.81 95.68L227.81 95.68Q227.81 96.76 229.03 96.76L229.03 96.76L228.31 100Q227.95 100.07 227.70 100.11Q227.45 100.14 227.23 100.14L227.23 100.14Q225.79 100.14 225.04 99.42Q224.28 98.70 224.28 97.55L224.28 97.55Q224.28 97.34 224.32 97.01Q224.35 96.69 224.46 96.15Q224.57 95.61 224.71 94.74Q224.86 93.88 225.14 92.51L225.14 92.51Q222.19 96.26 218.09 98.49Q213.98 100.72 209.88 100.72ZM211.18 97.48L211.18 97.48Q213.12 97.48 215.42 96.65Q217.73 95.82 219.85 94.46Q221.98 93.09 223.63 91.25Q225.29 89.42 225.94 87.40L225.94 87.40L228.53 75.09Q228.24 73.07 227.27 71.27Q226.30 69.47 224.82 68.10Q223.34 66.74 221.47 65.94Q219.60 65.15 217.44 65.15L217.44 65.15Q213.98 65.15 210.89 66.88Q207.79 68.61 205.45 71.38Q203.11 74.15 201.71 77.61Q200.30 81.06 200.30 84.52L200.30 84.52Q200.30 87.11 201.10 89.49Q201.89 91.86 203.33 93.63Q204.77 95.39 206.78 96.44Q208.80 97.48 211.18 97.48ZM235.01 116.13L234.58 113.18Q236.81 112.82 238.36 112.20Q239.90 111.59 241.20 110.58Q242.50 109.58 243.68 108.03Q244.87 106.48 246.31 104.25L246.31 104.25L248.90 100.36L240.91 62.56L244.66 62.56L251.42 96.47L254.88 91Q258.12 85.82 260.32 81.96Q262.51 78.11 264.10 74.87Q265.68 71.63 266.76 68.72Q267.84 65.80 268.70 62.56L268.70 62.56L272.30 62.56Q271.30 66.02 270.22 69.00Q269.14 71.99 267.52 75.34Q265.90 78.69 263.48 82.79Q261.07 86.90 257.47 92.58L257.47 92.58L251.57 101.87Q249.05 105.90 247.07 108.53Q245.09 111.16 243.22 112.78Q241.34 114.40 239.40 115.16Q237.46 115.91 235.01 116.13L235.01 116.13ZM295.78 100.43L295.78 100.43Q293.33 100.43 291.96 99.10Q290.59 97.77 290.59 95.46L290.59 95.46Q290.59 94.67 290.81 93.66L290.81 93.66L300.60 47.44L304.20 47.44L294.62 92.58Q294.55 92.94 294.52 93.23Q294.48 93.52 294.48 93.88L294.48 93.88Q294.48 95.39 295.38 96.26Q296.28 97.12 298.01 97.12L298.01 97.12Q298.80 97.12 299.88 96.94Q300.96 96.76 301.90 96.40L301.90 96.40L301.90 99.28Q300.67 99.78 298.84 100.11Q297.00 100.43 295.78 100.43ZM307.15 100L315.07 62.56L318.67 62.56L310.75 100L307.15 100ZM316.94 54.06L318.31 47.44L321.91 47.44L320.54 54.06L316.94 54.06ZM332.64 116.06L332.64 116.06Q326.45 116.06 323.24 113.72Q320.04 111.38 318.67 107.42L318.67 107.42L321.41 105.76Q322.70 109.58 325.94 111.34Q329.18 113.10 333.29 113.10L333.29 113.10Q335.95 113.10 338.54 112.31Q341.14 111.52 343.26 109.97Q345.38 108.42 346.93 106.12Q348.48 103.82 349.13 100.72L349.13 100.72L350.86 92.51Q349.42 94.31 347.62 95.79Q345.82 97.26 343.87 98.34Q341.93 99.42 339.84 100Q337.75 100.58 335.81 100.58L335.81 100.58Q332.71 100.58 330.26 99.28Q327.82 97.98 326.12 95.82Q324.43 93.66 323.53 90.86Q322.63 88.05 322.63 84.95L322.63 84.95Q322.63 80.63 324.36 76.49Q326.09 72.35 329.00 69.11Q331.92 65.87 335.74 63.89Q339.55 61.91 343.80 61.91L343.80 61.91Q348.41 61.91 351.32 64.47Q354.24 67.02 355.90 70.70L355.90 70.70L357.62 62.56L360.86 62.56L352.73 100.72Q351.94 104.54 349.96 107.42Q347.98 110.30 345.24 112.20Q342.50 114.11 339.26 115.08Q336.02 116.06 332.64 116.06ZM337.39 97.48L337.39 97.48Q339.62 97.48 341.96 96.58Q344.30 95.68 346.32 94.24Q348.34 92.80 349.85 91Q351.36 89.20 352.01 87.40L352.01 87.40L354.60 75.09Q354.24 72.93 353.27 71.09Q352.30 69.26 350.86 67.96Q349.42 66.66 347.54 65.91Q345.67 65.15 343.66 65.15L343.66 65.15Q339.98 65.15 336.85 66.95Q333.72 68.75 331.38 71.52Q329.04 74.30 327.71 77.72Q326.38 81.14 326.38 84.38L326.38 84.38Q326.38 87.04 327.17 89.42Q327.96 91.79 329.40 93.59Q330.84 95.39 332.86 96.44Q334.87 97.48 337.39 97.48ZM363.82 100L374.98 47.44L378.58 47.44L373.46 71.49Q376.56 67.10 380.95 64.50Q385.34 61.91 389.81 61.91L389.81 61.91Q394.34 61.91 396.36 64.47Q398.38 67.02 398.38 71.63L398.38 71.63Q398.38 73.14 398.20 74.87Q398.02 76.60 397.58 78.47L397.58 78.47L393.05 100L389.45 100L393.84 79.12Q394.56 75.74 394.56 73.14L394.56 73.14Q394.56 65.22 388.01 65.22L388.01 65.22Q385.85 65.22 383.58 66.09Q381.31 66.95 379.19 68.54Q377.06 70.12 375.26 72.24Q373.46 74.37 372.31 76.82L372.31 76.82L367.42 100L363.82 100ZM411.62 100.43L411.62 100.43Q409.10 100.43 407.45 99.14Q405.79 97.84 405.79 95.32L405.79 95.32Q405.79 94.96 405.83 94.56Q405.86 94.17 405.94 93.74L405.94 93.74L411.98 65.51L406.94 65.51L407.59 62.56L412.63 62.56L415.30 49.74L418.90 49.74L416.23 62.56L424.51 62.56L423.86 65.51L415.58 65.51L410.18 90.86Q409.68 93.16 409.68 93.74L409.68 93.74Q409.68 95.39 410.72 96.22Q411.77 97.05 413.28 97.05L413.28 97.05Q414.36 97.05 415.33 96.83Q416.30 96.62 417.10 96.29Q417.89 95.97 418.43 95.72Q418.97 95.46 419.18 95.32L419.18 95.32L419.62 98.20Q419.33 98.42 418.57 98.78Q417.82 99.14 416.74 99.53Q415.66 99.93 414.36 100.18Q413.06 100.43 411.62 100.43ZM443.30 100L451.22 62.56L454.82 62.56L446.90 100L443.30 100ZM453.10 54.06L454.46 47.44L458.06 47.44L456.70 54.06L453.10 54.06ZM466.20 100.43L466.20 100.43Q463.68 100.43 462.02 99.14Q460.37 97.84 460.37 95.32L460.37 95.32Q460.37 94.96 460.40 94.56Q460.44 94.17 460.51 93.74L460.51 93.74L466.56 65.51L461.52 65.51L462.17 62.56L467.21 62.56L469.87 49.74L473.47 49.74L470.81 62.56L479.09 62.56L478.44 65.51L470.16 65.51L464.76 90.86Q464.26 93.16 464.26 93.74L464.26 93.74Q464.26 95.39 465.30 96.22Q466.34 97.05 467.86 97.05L467.86 97.05Q468.94 97.05 469.91 96.83Q470.88 96.62 471.67 96.29Q472.46 95.97 473.00 95.72Q473.54 95.46 473.76 95.32L473.76 95.32L474.19 98.20Q473.90 98.42 473.15 98.78Q472.39 99.14 471.31 99.53Q470.23 99.93 468.94 100.18Q467.64 100.43 466.20 100.43ZM493.27 100.72L493.27 100.72Q490.18 100.72 487.69 99.42Q485.21 98.13 483.48 95.97Q481.75 93.81 480.85 90.96Q479.95 88.12 479.95 84.95L479.95 84.95Q479.95 80.56 481.68 76.42Q483.41 72.28 486.32 69.04Q489.24 65.80 492.98 63.86Q496.73 61.91 500.83 61.91L500.83 61.91Q503.21 61.91 505.12 62.63Q507.02 63.35 508.54 64.54Q510.05 65.73 511.13 67.31Q512.21 68.90 512.86 70.70L512.86 70.70L514.58 62.56L518.26 62.56L511.34 94.82Q511.20 95.39 511.20 95.68L511.20 95.68Q511.20 96.76 512.42 96.76L512.42 96.76L511.70 100Q511.34 100.07 511.09 100.11Q510.84 100.14 510.62 100.14L510.62 100.14Q509.18 100.14 508.43 99.42Q507.67 98.70 507.67 97.55L507.67 97.55Q507.67 97.34 507.71 97.01Q507.74 96.69 507.85 96.15Q507.96 95.61 508.10 94.74Q508.25 93.88 508.54 92.51L508.54 92.51Q505.58 96.26 501.48 98.49Q497.38 100.72 493.27 100.72ZM494.57 97.48L494.57 97.48Q496.51 97.48 498.82 96.65Q501.12 95.82 503.24 94.46Q505.37 93.09 507.02 91.25Q508.68 89.42 509.33 87.40L509.33 87.40L511.92 75.09Q511.63 73.07 510.66 71.27Q509.69 69.47 508.21 68.10Q506.74 66.74 504.86 65.94Q502.99 65.15 500.83 65.15L500.83 65.15Q497.38 65.15 494.28 66.88Q491.18 68.61 488.84 71.38Q486.50 74.15 485.10 77.61Q483.70 81.06 483.70 84.52L483.70 84.52Q483.70 87.11 484.49 89.49Q485.28 91.86 486.72 93.63Q488.16 95.39 490.18 96.44Q492.19 97.48 494.57 97.48ZM527.98 100.43L527.98 100.43Q525.53 100.43 524.16 99.10Q522.79 97.77 522.79 95.46L522.79 95.46Q522.79 94.67 523.01 93.66L523.01 93.66L532.80 47.44L536.40 47.44L526.82 92.58Q526.75 92.94 526.72 93.23Q526.68 93.52 526.68 93.88L526.68 93.88Q526.68 95.39 527.58 96.26Q528.48 97.12 530.21 97.12L530.21 97.12Q531.00 97.12 532.08 96.94Q533.16 96.76 534.10 96.40L534.10 96.40L534.10 99.28Q532.87 99.78 531.04 100.11Q529.20 100.43 527.98 100.43ZM539.35 100L547.27 62.56L550.87 62.56L542.95 100L539.35 100ZM549.14 54.06L550.51 47.44L554.11 47.44L552.74 54.06L549.14 54.06ZM568.94 100.72L568.94 100.72Q565.70 100.72 563.11 99.50Q560.52 98.27 558.68 96.11Q556.85 93.95 555.88 91.07Q554.90 88.19 554.90 84.88L554.90 84.88Q554.90 80.27 556.70 76.13Q558.50 71.99 561.56 68.82Q564.62 65.66 568.62 63.78Q572.62 61.91 577.08 61.91L577.08 61.91Q581.98 61.91 585.18 64.22Q588.38 66.52 589.39 70.62L589.39 70.62L585.58 71.78Q584.71 68.68 582.19 66.92Q579.67 65.15 576.22 65.15L576.22 65.15Q572.83 65.15 569.66 66.70Q566.50 68.25 564.05 70.88Q561.60 73.50 560.09 77.00Q558.58 80.49 558.58 84.38L558.58 84.38Q558.58 87.11 559.37 89.52Q560.16 91.94 561.56 93.70Q562.97 95.46 564.98 96.47Q567 97.48 569.38 97.48L569.38 97.48Q571.25 97.48 573.19 96.90Q575.14 96.33 576.86 95.39Q578.59 94.46 579.92 93.20Q581.26 91.94 581.98 90.57L581.98 90.57L585.29 91.58Q584.21 93.52 582.44 95.21Q580.68 96.90 578.52 98.13Q576.36 99.35 573.88 100.04Q571.39 100.72 568.94 100.72Z"/></svg>