<svg xmlns="http://www.w3.org/2000/svg" viewBox="0.7200000000000001 47.43999999999999 643.3920000000002 69.048"><path d="M10.58 100L0.72 100L11.59 48.88L33.19 48.88Q36.07 48.88 38.38 50.07Q40.68 51.26 42.26 53.24Q43.85 55.22 44.68 57.77Q45.50 60.33 45.50 62.99L45.50 62.99Q45.50 65.80 44.57 68.50Q43.63 71.20 42.01 73.58Q40.39 75.95 38.20 77.82Q36.00 79.70 33.41 80.78L33.41 80.78L40.32 100L29.09 100L23.04 82.86L14.18 82.86L10.58 100ZM16.06 74.15L27.50 74.15Q28.94 74.15 30.35 73.32Q31.75 72.50 32.83 71.09Q33.91 69.69 34.60 67.85Q35.28 66.02 35.28 64.00L35.28 64.00Q35.28 61.26 33.95 59.43Q32.62 57.59 30.67 57.59L30.67 57.59L19.58 57.59L16.06 74.15ZM59.90 100.72L59.90 100.72Q56.74 100.72 54.25 99.53Q51.77 98.34 50.04 96.26Q48.31 94.17 47.41 91.32Q46.51 88.48 46.51 85.24L46.51 85.24Q46.51 80.56 48.20 76.28Q49.90 71.99 52.74 68.75Q55.58 65.51 59.33 63.57Q63.07 61.62 67.18 61.62L67.18 61.62Q71.06 61.62 73.80 63.64Q76.54 65.66 77.54 68.90L77.54 68.90L78.98 62.42L88.63 62.42L83.02 88.91Q82.80 89.70 82.80 90.21L82.80 90.21Q82.80 91.72 84.53 91.79L84.53 91.79L82.80 100Q81.50 100.22 80.53 100.36Q79.56 100.50 78.84 100.50L78.84 100.50Q76.32 100.50 74.84 99.42Q73.37 98.34 73.37 96.18L73.37 96.18Q73.37 95.32 73.80 93.45L73.80 93.45Q71.06 97.05 67.36 98.88Q63.65 100.72 59.90 100.72ZM64.22 92.51L64.22 92.51Q65.45 92.51 66.85 92.04Q68.26 91.58 69.55 90.71Q70.85 89.85 72 88.70Q73.15 87.54 73.94 86.18L73.94 86.18L75.82 77.18Q75.38 74.01 73.30 71.92Q71.21 69.83 68.47 69.83L68.47 69.83Q66.17 69.83 64.01 71.02Q61.85 72.21 60.23 74.19Q58.61 76.17 57.64 78.65Q56.66 81.14 56.66 83.73L56.66 83.73Q56.66 87.47 58.68 89.99Q60.70 92.51 64.22 92.51ZM99.07 100.58L99.07 100.58Q95.40 100.58 93.46 98.88Q91.51 97.19 91.51 94.02L91.51 94.02Q91.51 93.38 91.58 92.73Q91.66 92.08 91.80 91.29L91.80 91.29L101.16 47.44L110.74 47.44L102.17 87.90Q102.10 88.26 102.06 88.62Q102.02 88.98 102.02 89.34L102.02 89.34Q102.02 92.30 104.98 92.30L104.98 92.30Q105.77 92.30 106.81 92.01Q107.86 91.72 108.79 91.29L108.79 91.29L108.50 98.63Q106.42 99.57 103.79 100.07Q101.16 100.58 99.07 100.58ZM128.81 100.72L128.81 100.72Q125.21 100.72 122.36 99.53Q119.52 98.34 117.50 96.22Q115.49 94.10 114.44 91.18Q113.40 88.26 113.40 84.81L113.40 84.81Q113.40 80.13 115.24 75.92Q117.07 71.70 120.28 68.54Q123.48 65.37 127.84 63.50Q132.19 61.62 137.23 61.62L137.23 61.62Q143.35 61.62 146.99 64.32Q150.62 67.02 150.62 72.14L150.62 72.14Q150.62 84.30 128.88 84.30L128.88 84.30Q127.58 84.30 126.22 84.30Q124.85 84.30 123.34 84.16L123.34 84.16L123.34 85.10Q123.34 88.91 125.06 91.29Q126.79 93.66 130.54 93.66L130.54 93.66Q133.42 93.66 135.97 92.30Q138.53 90.93 140.04 88.48L140.04 88.48L147.67 90.86Q146.23 93.02 144.14 94.85Q142.06 96.69 139.57 97.98Q137.09 99.28 134.35 100Q131.62 100.72 128.81 100.72ZM135.79 68.61L135.79 68.61Q133.70 68.61 131.90 69.36Q130.10 70.12 128.70 71.42Q127.30 72.71 126.22 74.44Q125.14 76.17 124.49 78.11L124.49 78.11Q125.64 78.18 126.72 78.18Q127.80 78.18 128.95 78.18L128.95 78.18Q132.41 78.18 134.82 77.82Q137.23 77.46 138.71 76.74Q140.18 76.02 140.83 75.05Q141.48 74.08 141.48 72.78L141.48 72.78Q141.48 70.70 139.90 69.65Q138.31 68.61 135.79 68.61ZM161.42 100L154.15 62.27L163.58 62.27L168.12 91.36Q168.77 90.57 169.63 89.16Q170.50 87.76 171.36 86.25Q172.22 84.74 173.05 83.33Q173.88 81.93 174.38 81.14L174.38 81.14L170.35 62.27L178.78 62.27L180.65 73.94Q181.08 73.14 181.84 71.52Q182.59 69.90 183.38 68.14Q184.18 66.38 184.82 64.76Q185.47 63.14 185.69 62.27L185.69 62.27L193.54 62.27Q191.81 67.38 189.61 71.92Q187.42 76.46 184.39 81.06L184.39 81.06L186.26 89.70Q189.14 85.82 191.38 82.50Q193.61 79.19 195.34 75.99Q197.06 72.78 198.47 69.47Q199.87 66.16 201.24 62.27L201.24 62.27L210.10 62.27Q206.86 71.70 201.13 81.14Q195.41 90.57 187.42 100L187.42 100L180.14 100L178.06 87.69Q177.55 88.41 176.47 90.17Q175.39 91.94 174.20 93.88Q173.02 95.82 171.90 97.55Q170.78 99.28 170.21 100L170.21 100L161.42 100ZM222.05 100.72L222.05 100.72Q218.88 100.72 216.40 99.53Q213.91 98.34 212.18 96.26Q210.46 94.17 209.56 91.32Q208.66 88.48 208.66 85.24L208.66 85.24Q208.66 80.56 210.35 76.28Q212.04 71.99 214.88 68.75Q217.73 65.51 221.47 63.57Q225.22 61.62 229.32 61.62L229.32 61.62Q233.21 61.62 235.94 63.64Q238.68 65.66 239.69 68.90L239.69 68.90L241.13 62.42L250.78 62.42L245.16 88.91Q244.94 89.70 244.94 90.21L244.94 90.21Q244.94 91.72 246.67 91.79L246.67 91.79L244.94 100Q243.65 100.22 242.68 100.36Q241.70 100.50 240.98 100.50L240.98 100.50Q238.46 100.50 236.99 99.42Q235.51 98.34 235.51 96.18L235.51 96.18Q235.51 95.32 235.94 93.45L235.94 93.45Q233.21 97.05 229.50 98.88Q225.79 100.72 222.05 100.72ZM226.37 92.51L226.37 92.51Q227.59 92.51 229.00 92.04Q230.40 91.58 231.70 90.71Q232.99 89.85 234.14 88.70Q235.30 87.54 236.09 86.18L236.09 86.18L237.96 77.18Q237.53 74.01 235.44 71.92Q233.35 69.83 230.62 69.83L230.62 69.83Q228.31 69.83 226.15 71.02Q223.99 72.21 222.37 74.19Q220.75 76.17 219.78 78.65Q218.81 81.14 218.81 83.73L218.81 83.73Q218.81 87.47 220.82 89.99Q222.84 92.51 226.37 92.51ZM250.49 116.49L249.34 109.07Q251.50 108.86 253.04 108.57Q254.59 108.28 255.78 107.67Q256.97 107.06 257.98 106.08Q258.98 105.11 260.06 103.60L260.06 103.60L262.15 100.79L255.89 62.27L265.75 62.27L268.99 91.65L271.44 87.62Q273.67 83.94 275.33 80.74Q276.98 77.54 278.28 74.51Q279.58 71.49 280.51 68.50Q281.45 65.51 282.24 62.27L282.24 62.27L291.60 62.27Q290.59 65.73 289.51 68.75Q288.43 71.78 286.78 75.16Q285.12 78.54 282.71 82.68Q280.30 86.82 276.77 92.58L276.77 92.58L271.01 101.87Q268.49 105.90 266.15 108.68Q263.81 111.45 261.40 113.18Q258.98 114.90 256.32 115.66Q253.66 116.42 250.49 116.49L250.49 116.49ZM325.94 100.72L325.94 100.72Q321.70 100.72 318.96 98.78Q316.22 96.83 315.14 93.45L315.14 93.45L313.78 100L305.35 100L316.51 47.44L326.16 47.44L321.55 68.90Q324.07 65.58 327.64 63.60Q331.20 61.62 335.09 61.62L335.09 61.62Q338.11 61.62 340.38 62.81Q342.65 64.00 344.23 66.09Q345.82 68.18 346.61 70.95Q347.40 73.72 347.40 76.89L347.40 76.89Q347.40 81.78 345.60 86.10Q343.80 90.42 340.81 93.66Q337.82 96.90 333.94 98.81Q330.05 100.72 325.94 100.72ZM325.22 92.51L325.22 92.51Q327.53 92.51 329.69 91.40Q331.85 90.28 333.54 88.37Q335.23 86.46 336.24 83.98Q337.25 81.50 337.25 78.76L337.25 78.76Q337.25 76.96 336.78 75.34Q336.31 73.72 335.45 72.50Q334.58 71.27 333.29 70.55Q331.99 69.83 330.34 69.83L330.34 69.83Q327.38 69.83 324.54 71.96Q321.70 74.08 319.82 77.18L319.82 77.18L317.88 86.18Q318.31 88.91 320.29 90.71Q322.27 92.51 325.22 92.51ZM366.05 100.72L366.05 100.72Q362.23 100.72 359.39 99.46Q356.54 98.20 354.64 96.04Q352.73 93.88 351.76 91.04Q350.78 88.19 350.78 85.02L350.78 85.02Q350.78 80.56 352.55 76.35Q354.31 72.14 357.44 68.86Q360.58 65.58 364.90 63.60Q369.22 61.62 374.33 61.62L374.33 61.62Q378.07 61.62 380.92 62.88Q383.76 64.14 385.70 66.27Q387.65 68.39 388.62 71.27Q389.59 74.15 389.59 77.39L389.59 77.39Q389.59 81.86 387.83 86.03Q386.06 90.21 382.93 93.48Q379.80 96.76 375.48 98.74Q371.16 100.72 366.05 100.72ZM367.78 92.51L367.78 92.51Q370.01 92.51 372.13 91.40Q374.26 90.28 375.91 88.41Q377.57 86.54 378.58 83.98Q379.58 81.42 379.58 78.54L379.58 78.54Q379.58 74.66 377.71 72.24Q375.84 69.83 372.60 69.83L372.60 69.83Q370.37 69.83 368.24 70.95Q366.12 72.06 364.46 73.97Q362.81 75.88 361.80 78.40Q360.79 80.92 360.79 83.80L360.79 83.80Q360.79 87.69 362.66 90.10Q364.54 92.51 367.78 92.51ZM400.61 100.58L400.61 100.58Q396.94 100.58 394.99 98.88Q393.05 97.19 393.05 94.02L393.05 94.02Q393.05 93.38 393.12 92.73Q393.19 92.08 393.34 91.29L393.34 91.29L402.70 47.44L412.27 47.44L403.70 87.90Q403.63 88.26 403.60 88.62Q403.56 88.98 403.56 89.34L403.56 89.34Q403.56 92.30 406.51 92.30L406.51 92.30Q407.30 92.30 408.35 92.01Q409.39 91.72 410.33 91.29L410.33 91.29L410.04 98.63Q407.95 99.57 405.32 100.07Q402.70 100.58 400.61 100.58ZM428.18 100.72L428.18 100.72Q425.02 100.72 422.53 99.53Q420.05 98.34 418.32 96.26Q416.59 94.17 415.69 91.32Q414.79 88.48 414.79 85.24L414.79 85.24Q414.79 80.56 416.48 76.28Q418.18 71.99 421.02 68.75Q423.86 65.51 427.61 63.57Q431.35 61.62 435.46 61.62L435.46 61.62Q439.34 61.62 442.08 63.64Q444.82 65.66 445.82 68.90L445.82 68.90L450.43 47.44L460.08 47.44L451.30 88.91Q451.08 89.70 451.08 90.21L451.08 90.21Q451.08 91.72 452.81 91.79L452.81 91.79L451.08 100Q449.78 100.22 448.81 100.36Q447.84 100.50 447.12 100.50L447.12 100.50Q444.60 100.50 443.12 99.50Q441.65 98.49 441.65 96.40L441.65 96.40Q441.65 95.82 441.76 95.14Q441.86 94.46 442.08 93.45L442.08 93.45Q439.34 97.05 435.64 98.88Q431.93 100.72 428.18 100.72ZM432.50 92.51L432.50 92.51Q433.73 92.51 435.13 92.04Q436.54 91.58 437.83 90.71Q439.13 89.85 440.28 88.70Q441.43 87.54 442.22 86.18L442.22 86.18L444.10 77.18Q443.66 74.01 441.58 71.92Q439.49 69.83 436.75 69.83L436.75 69.83Q434.45 69.83 432.29 71.02Q430.13 72.21 428.51 74.19Q426.89 76.17 425.92 78.65Q424.94 81.14 424.94 83.73L424.94 83.73Q424.94 87.47 426.96 89.99Q428.98 92.51 432.50 92.51ZM475.34 100L483.34 62.27L492.98 62.27L484.99 100L475.34 100ZM484.49 57.02L486.50 47.44L496.15 47.44L494.14 57.02L484.49 57.02ZM505.08 100.65L505.08 100.65Q501.62 100.65 499.43 99.10Q497.23 97.55 497.23 94.02L497.23 94.02Q497.23 92.58 497.52 91.36L497.52 91.36L502.13 69.69L497.45 69.69L499.03 62.27L503.64 62.27L506.23 50.03L515.88 50.03L513.29 62.27L520.85 62.27L519.26 69.69L511.78 69.69L507.82 88.12Q507.74 88.48 507.71 88.73Q507.67 88.98 507.67 89.27L507.67 89.27Q507.67 90.64 508.43 91.22Q509.18 91.79 510.41 91.79L510.41 91.79Q511.85 91.79 513.25 91.32Q514.66 90.86 515.66 90.42L515.66 90.42L515.95 98.06Q513.86 99.06 510.91 99.86Q507.96 100.65 505.08 100.65ZM534.24 100.72L534.24 100.72Q531.07 100.72 528.59 99.53Q526.10 98.34 524.38 96.26Q522.65 94.17 521.75 91.32Q520.85 88.48 520.85 85.24L520.85 85.24Q520.85 80.56 522.54 76.28Q524.23 71.99 527.08 68.75Q529.92 65.51 533.66 63.57Q537.41 61.62 541.51 61.62L541.51 61.62Q545.40 61.62 548.14 63.64Q550.87 65.66 551.88 68.90L551.88 68.90L553.32 62.42L562.97 62.42L557.35 88.91Q557.14 89.70 557.14 90.21L557.14 90.21Q557.14 91.72 558.86 91.79L558.86 91.79L557.14 100Q555.84 100.22 554.87 100.36Q553.90 100.50 553.18 100.50L553.18 100.50Q550.66 100.50 549.18 99.42Q547.70 98.34 547.70 96.18L547.70 96.18Q547.70 95.32 548.14 93.45L548.14 93.45Q545.40 97.05 541.69 98.88Q537.98 100.72 534.24 100.72ZM538.56 92.51L538.56 92.51Q539.78 92.51 541.19 92.04Q542.59 91.58 543.89 90.71Q545.18 89.85 546.34 88.70Q547.49 87.54 548.28 86.18L548.28 86.18L550.15 77.18Q549.72 74.01 547.63 71.92Q545.54 69.83 542.81 69.83L542.81 69.83Q540.50 69.83 538.34 71.02Q536.18 72.21 534.56 74.19Q532.94 76.17 531.97 78.65Q531.00 81.14 531.00 83.73L531.00 83.73Q531.00 87.47 533.02 89.99Q535.03 92.51 538.56 92.51ZM573.41 100.58L573.41 100.58Q569.74 100.58 567.79 98.88Q565.85 97.19 565.85 94.02L565.85 94.02Q565.85 93.38 565.92 92.73Q565.99 92.08 566.14 91.29L566.14 91.29L575.50 47.44L585.07 47.44L576.50 87.90Q576.43 88.26 576.40 88.62Q576.36 88.98 576.36 89.34L576.36 89.34Q576.36 92.30 579.31 92.30L579.31 92.30Q580.10 92.30 581.15 92.01Q582.19 91.72 583.13 91.29L583.13 91.29L582.84 98.63Q580.75 99.57 578.12 100.07Q575.50 100.58 573.41 100.58ZM586.66 100L594.65 62.27L604.30 62.27L596.30 100L586.66 100ZM595.80 57.02L597.82 47.44L607.46 47.44L605.45 57.02L595.80 57.02ZM621.58 100.72L621.58 100.72Q617.83 100.72 614.95 99.46Q612.07 98.20 610.13 96.04Q608.18 93.88 607.21 91Q606.24 88.12 606.24 84.88L606.24 84.88Q606.24 80.42 608.00 76.20Q609.77 71.99 612.90 68.75Q616.03 65.51 620.39 63.57Q624.74 61.62 629.86 61.62L629.86 61.62Q635.83 61.62 639.40 64.29Q642.96 66.95 644.11 71.27L644.11 71.27L634.18 74.15Q633.46 72.06 631.87 70.95Q630.29 69.83 627.98 69.83L627.98 69.83Q625.75 69.83 623.63 70.88Q621.50 71.92 619.88 73.79Q618.26 75.66 617.26 78.22Q616.25 80.78 616.25 83.73L616.25 83.73Q616.25 87.62 618.16 90.06Q620.06 92.51 623.23 92.51L623.23 92.51Q625.54 92.51 627.80 91.22Q630.07 89.92 631.30 88.05L631.30 88.05L640.08 90.93Q637.27 95.25 632.45 97.98Q627.62 100.72 621.58 100.72Z"/></svg>