<svg xmlns="http://www.w3.org/2000/svg" viewBox="2.3760000000000003 47.43999999999999 546.1920000000001 68.68800000000002"><path d="M3.82 100L2.38 100L13.25 48.88L33.05 48.88Q35.57 48.88 37.58 49.96Q39.60 51.04 40.97 52.84Q42.34 54.64 43.06 56.91Q43.78 59.18 43.78 61.62L43.78 61.62Q43.78 64.94 42.48 68.10Q41.18 71.27 39.02 73.83Q36.86 76.38 33.95 78.04Q31.03 79.70 27.79 79.91L27.79 79.91L35.78 100L34.06 100L26.06 79.91L8.06 79.91L3.82 100ZM8.42 78.47L27.22 78.47Q30.38 78.47 33.12 76.96Q35.86 75.45 37.91 73.07Q39.96 70.70 41.15 67.74Q42.34 64.79 42.34 61.84L42.34 61.84Q42.34 59.54 41.65 57.45Q40.97 55.36 39.71 53.78Q38.45 52.19 36.65 51.26Q34.85 50.32 32.69 50.32L32.69 50.32L14.40 50.32L8.42 78.47ZM59.11 100.72L59.11 100.72Q56.02 100.72 53.53 99.39Q51.05 98.06 49.32 95.86Q47.59 93.66 46.69 90.78Q45.79 87.90 45.79 84.88L45.79 84.88Q45.79 80.56 47.52 76.46Q49.25 72.35 52.16 69.15Q55.08 65.94 58.86 64.00Q62.64 62.06 66.67 62.06L66.67 62.06Q69.19 62.06 71.24 62.81Q73.30 63.57 74.84 64.83Q76.39 66.09 77.54 67.78Q78.70 69.47 79.34 71.34L79.34 71.34L81.22 62.63L82.73 62.63L75.38 96.83Q75.24 97.26 75.24 97.70L75.24 97.70Q75.24 98.56 76.10 98.56L76.10 98.56L75.82 100Q75.38 100 75.17 99.93L75.17 99.93Q73.80 99.50 73.80 97.91L73.80 97.91Q73.80 97.77 73.84 97.55Q73.87 97.34 73.98 96.80Q74.09 96.26 74.30 95.18Q74.52 94.10 74.88 92.22L74.88 92.22Q73.37 94.10 71.50 95.64Q69.62 97.19 67.57 98.34Q65.52 99.50 63.36 100.11Q61.20 100.72 59.11 100.72ZM59.26 99.28L59.26 99.28Q61.56 99.28 64.19 98.34Q66.82 97.41 69.19 95.82Q71.57 94.24 73.37 92.19Q75.17 90.14 75.82 87.83L75.82 87.83L78.70 74.37Q78.41 72.21 77.36 70.26Q76.32 68.32 74.66 66.81Q73.01 65.30 70.81 64.40Q68.62 63.50 66.10 63.50L66.10 63.50Q62.35 63.50 58.93 65.40Q55.51 67.31 52.92 70.41Q50.33 73.50 48.78 77.32Q47.23 81.14 47.23 84.88L47.23 84.88Q47.23 87.76 48.13 90.35Q49.03 92.94 50.65 94.92Q52.27 96.90 54.47 98.09Q56.66 99.28 59.26 99.28ZM92.23 100.36L92.23 100.36Q90.22 100.36 89.06 99.17Q87.91 97.98 87.91 95.97L87.91 95.97Q87.91 95.61 87.91 95.25Q87.91 94.89 88.06 94.46L88.06 94.46L98.06 47.44L99.50 47.44L89.50 94.46Q89.42 94.82 89.39 95.07Q89.35 95.32 89.35 95.61L89.35 95.61Q89.35 98.99 93.10 98.99L93.10 98.99Q93.89 98.99 94.97 98.81Q96.05 98.63 96.98 98.34L96.98 98.34L97.20 99.50Q96.19 99.86 94.72 100.11Q93.24 100.36 92.23 100.36ZM116.93 100.72L116.93 100.72Q113.69 100.72 111.17 99.46Q108.65 98.20 106.92 96.04Q105.19 93.88 104.26 91Q103.32 88.12 103.32 84.88L103.32 84.88Q103.32 80.63 104.98 76.53Q106.63 72.42 109.55 69.22Q112.46 66.02 116.42 64.04Q120.38 62.06 125.06 62.06L125.06 62.06Q126.86 62.06 128.84 62.70Q130.82 63.35 132.41 64.58Q133.99 65.80 135.04 67.64Q136.08 69.47 136.08 71.92L136.08 71.92Q136.08 82.14 117.22 82.14L117.22 82.14Q114.48 82.14 111.60 82.07Q108.72 82 105.05 81.78L105.05 81.78Q104.83 83.30 104.83 84.81L104.83 84.81Q104.83 87.76 105.62 90.39Q106.42 93.02 108.00 95.00Q109.58 96.98 111.96 98.13Q114.34 99.28 117.43 99.28L117.43 99.28Q119.38 99.28 121.46 98.67Q123.55 98.06 125.50 96.98Q127.44 95.90 129.06 94.31Q130.68 92.73 131.76 90.78L131.76 90.78L133.13 91.22Q131.90 93.38 130.14 95.14Q128.38 96.90 126.25 98.13Q124.13 99.35 121.75 100.04Q119.38 100.72 116.93 100.72ZM124.78 63.50L124.78 63.50Q121.25 63.50 118.08 64.90Q114.91 66.30 112.36 68.64Q109.80 70.98 107.96 74.04Q106.13 77.10 105.34 80.34L105.34 80.34Q109.01 80.56 111.85 80.63Q114.70 80.70 117.43 80.70L117.43 80.70Q122.18 80.70 125.46 80.06Q128.74 79.41 130.75 78.22Q132.77 77.03 133.67 75.41Q134.57 73.79 134.57 71.85L134.57 71.85Q134.57 69.69 133.63 68.10Q132.70 66.52 131.26 65.48Q129.82 64.43 128.09 63.96Q126.36 63.50 124.78 63.50ZM148.90 100L142.20 62.63L143.71 62.63L150.05 97.98Q154.22 93.45 157.61 88.30Q160.99 83.15 163.66 77.97L163.66 77.97L160.92 62.63L162.43 62.63L164.74 75.74Q166.39 72.28 167.72 68.97Q169.06 65.66 170.06 62.63L170.06 62.63L171.50 62.63Q170.28 66.52 168.70 70.41Q167.11 74.30 165.17 78.18L165.17 78.18L168.77 97.98Q172.44 94.02 175.54 89.49Q178.63 84.95 181.15 80.31Q183.67 75.66 185.58 71.16Q187.49 66.66 188.78 62.63L188.78 62.63L190.22 62.63Q187.20 72.06 182.12 81.57Q177.05 91.07 168.91 100L168.91 100L167.62 100L164.09 80.34Q161.35 85.38 157.93 90.32Q154.51 95.25 150.19 100L150.19 100L148.90 100ZM204.98 100.72L204.98 100.72Q201.89 100.72 199.40 99.39Q196.92 98.06 195.19 95.86Q193.46 93.66 192.56 90.78Q191.66 87.90 191.66 84.88L191.66 84.88Q191.66 80.56 193.39 76.46Q195.12 72.35 198.04 69.15Q200.95 65.94 204.73 64.00Q208.51 62.06 212.54 62.06L212.54 62.06Q215.06 62.06 217.12 62.81Q219.17 63.57 220.72 64.83Q222.26 66.09 223.42 67.78Q224.57 69.47 225.22 71.34L225.22 71.34L227.09 62.63L228.60 62.63L221.26 96.83Q221.11 97.26 221.11 97.70L221.11 97.70Q221.11 98.56 221.98 98.56L221.98 98.56L221.69 100Q221.26 100 221.04 99.93L221.04 99.93Q219.67 99.50 219.67 97.91L219.67 97.91Q219.67 97.77 219.71 97.55Q219.74 97.34 219.85 96.80Q219.96 96.26 220.18 95.18Q220.39 94.10 220.75 92.22L220.75 92.22Q219.24 94.10 217.37 95.64Q215.50 97.19 213.44 98.34Q211.39 99.50 209.23 100.11Q207.07 100.72 204.98 100.72ZM205.13 99.28L205.13 99.28Q207.43 99.28 210.06 98.34Q212.69 97.41 215.06 95.82Q217.44 94.24 219.24 92.19Q221.04 90.14 221.69 87.83L221.69 87.83L224.57 74.37Q224.28 72.21 223.24 70.26Q222.19 68.32 220.54 66.81Q218.88 65.30 216.68 64.40Q214.49 63.50 211.97 63.50L211.97 63.50Q208.22 63.50 204.80 65.40Q201.38 67.31 198.79 70.41Q196.20 73.50 194.65 77.32Q193.10 81.14 193.10 84.88L193.10 84.88Q193.10 87.76 194.00 90.35Q194.90 92.94 196.52 94.92Q198.14 96.90 200.34 98.09Q202.54 99.28 205.13 99.28ZM228.67 116.13L228.53 114.90Q230.69 114.47 232.24 113.75Q233.78 113.03 235.08 111.84Q236.38 110.66 237.64 108.86Q238.90 107.06 240.55 104.54L240.55 104.54L243.50 100L234.94 62.63L236.52 62.63L244.58 98.20L248.76 91.58Q252.14 86.18 254.48 82.22Q256.82 78.26 258.44 74.98Q260.06 71.70 261.18 68.79Q262.30 65.87 263.23 62.63L263.23 62.63L264.74 62.63Q263.74 66.09 262.66 69.08Q261.58 72.06 259.92 75.38Q258.26 78.69 255.85 82.79Q253.44 86.90 249.84 92.58L249.84 92.58L243.94 101.87Q241.34 105.90 239.51 108.53Q237.67 111.16 235.98 112.71Q234.29 114.26 232.60 115.01Q230.90 115.77 228.67 116.13L228.67 116.13ZM281.52 100L281.81 98.56L291.53 98.56L299.45 61.26Q298.73 62.13 297.18 63.17Q295.63 64.22 293.80 65.19Q291.96 66.16 290.09 66.81Q288.22 67.46 286.85 67.46L286.85 67.46L287.21 65.73Q289.08 65.73 291.28 64.68Q293.47 63.64 295.38 62.42Q297.29 61.19 298.58 60.11Q299.88 59.03 299.95 58.89L299.95 58.89L301.39 58.89L292.97 98.56L301.68 98.56L301.39 100L281.52 100ZM323.14 100.72L323.14 100.72Q320.18 100.72 317.81 99.50Q315.43 98.27 313.78 96.08Q312.12 93.88 311.22 90.82Q310.32 87.76 310.32 84.16L310.32 84.16Q310.32 78.54 312.16 73.61Q313.99 68.68 317.05 65.01Q320.11 61.34 324.11 59.18Q328.10 57.02 332.42 57.02L332.42 57.02Q335.45 57.02 337.82 58.24Q340.20 59.46 341.86 61.66Q343.51 63.86 344.41 66.92Q345.31 69.98 345.31 73.58L345.31 73.58Q345.31 79.19 343.48 84.12Q341.64 89.06 338.58 92.76Q335.52 96.47 331.52 98.60Q327.53 100.72 323.14 100.72ZM323.50 99.28L323.50 99.28Q327.60 99.28 331.31 97.30Q335.02 95.32 337.82 91.86Q340.63 88.41 342.25 83.73Q343.87 79.05 343.87 73.65L343.87 73.65Q343.87 70.26 343.08 67.46Q342.29 64.65 340.78 62.67Q339.26 60.69 337.07 59.57Q334.87 58.46 332.14 58.46L332.14 58.46Q328.03 58.46 324.32 60.47Q320.62 62.49 317.81 65.94Q315.00 69.40 313.38 74.08Q311.76 78.76 311.76 84.16L311.76 84.16Q311.76 87.54 312.55 90.32Q313.34 93.09 314.86 95.10Q316.37 97.12 318.53 98.20Q320.69 99.28 323.50 99.28ZM365.40 100.72L365.40 100.72Q362.45 100.72 360.07 99.50Q357.70 98.27 356.04 96.08Q354.38 93.88 353.48 90.82Q352.58 87.76 352.58 84.16L352.58 84.16Q352.58 78.54 354.42 73.61Q356.26 68.68 359.32 65.01Q362.38 61.34 366.37 59.18Q370.37 57.02 374.69 57.02L374.69 57.02Q377.71 57.02 380.09 58.24Q382.46 59.46 384.12 61.66Q385.78 63.86 386.68 66.92Q387.58 69.98 387.58 73.58L387.58 73.58Q387.58 79.19 385.74 84.12Q383.90 89.06 380.84 92.76Q377.78 96.47 373.79 98.60Q369.79 100.72 365.40 100.72ZM365.76 99.28L365.76 99.28Q369.86 99.28 373.57 97.30Q377.28 95.32 380.09 91.86Q382.90 88.41 384.52 83.73Q386.14 79.05 386.14 73.65L386.14 73.65Q386.14 70.26 385.34 67.46Q384.55 64.65 383.04 62.67Q381.53 60.69 379.33 59.57Q377.14 58.46 374.40 58.46L374.40 58.46Q370.30 58.46 366.59 60.47Q362.88 62.49 360.07 65.94Q357.26 69.40 355.64 74.08Q354.02 78.76 354.02 84.16L354.02 84.16Q354.02 87.54 354.82 90.32Q355.61 93.09 357.12 95.10Q358.63 97.12 360.79 98.20Q362.95 99.28 365.76 99.28ZM410.90 100L418.82 62.63L420.26 62.63L412.34 100L410.90 100ZM420.91 52.98L422.06 47.44L423.50 47.44L422.35 52.98L420.91 52.98ZM431.35 100.36L431.35 100.36Q429.12 100.36 427.68 99.14Q426.24 97.91 426.24 95.82L426.24 95.82Q426.24 95.54 426.28 95.25Q426.31 94.96 426.38 94.60L426.38 94.60L432.86 64.07L427.75 64.07L428.04 62.63L433.22 62.63L435.96 49.60L437.40 49.60L434.66 62.63L443.16 62.63L442.87 64.07L434.30 64.07L428.54 90.93Q428.11 92.94 427.93 93.84Q427.75 94.74 427.75 95.25L427.75 95.25Q427.75 97.05 428.90 97.98Q430.06 98.92 431.71 98.92L431.71 98.92Q432.86 98.92 433.94 98.67Q435.02 98.42 435.85 98.09Q436.68 97.77 437.22 97.48Q437.76 97.19 437.83 97.12L437.83 97.12L438.34 98.27Q438.34 98.27 437.76 98.63Q437.18 98.99 436.21 99.35Q435.24 99.71 433.98 100.04Q432.72 100.36 431.35 100.36ZM457.63 100.72L457.63 100.72Q454.54 100.72 452.05 99.39Q449.57 98.06 447.84 95.86Q446.11 93.66 445.21 90.78Q444.31 87.90 444.31 84.88L444.31 84.88Q444.31 80.56 446.04 76.46Q447.77 72.35 450.68 69.15Q453.60 65.94 457.38 64.00Q461.16 62.06 465.19 62.06L465.19 62.06Q467.71 62.06 469.76 62.81Q471.82 63.57 473.36 64.83Q474.91 66.09 476.06 67.78Q477.22 69.47 477.86 71.34L477.86 71.34L479.74 62.63L481.25 62.63L473.90 96.83Q473.76 97.26 473.76 97.70L473.76 97.70Q473.76 98.56 474.62 98.56L474.62 98.56L474.34 100Q473.90 100 473.69 99.93L473.69 99.93Q472.32 99.50 472.32 97.91L472.32 97.91Q472.32 97.77 472.36 97.55Q472.39 97.34 472.50 96.80Q472.61 96.26 472.82 95.18Q473.04 94.10 473.40 92.22L473.40 92.22Q471.89 94.10 470.02 95.64Q468.14 97.19 466.09 98.34Q464.04 99.50 461.88 100.11Q459.72 100.72 457.63 100.72ZM457.78 99.28L457.78 99.28Q460.08 99.28 462.71 98.34Q465.34 97.41 467.71 95.82Q470.09 94.24 471.89 92.19Q473.69 90.14 474.34 87.83L474.34 87.83L477.22 74.37Q476.93 72.21 475.88 70.26Q474.84 68.32 473.18 66.81Q471.53 65.30 469.33 64.40Q467.14 63.50 464.62 63.50L464.62 63.50Q460.87 63.50 457.45 65.40Q454.03 67.31 451.44 70.41Q448.85 73.50 447.30 77.32Q445.75 81.14 445.75 84.88L445.75 84.88Q445.75 87.76 446.65 90.35Q447.55 92.94 449.17 94.92Q450.79 96.90 452.99 98.09Q455.18 99.28 457.78 99.28ZM490.75 100.36L490.75 100.36Q488.74 100.36 487.58 99.17Q486.43 97.98 486.43 95.97L486.43 95.97Q486.43 95.61 486.43 95.25Q486.43 94.89 486.58 94.46L486.58 94.46L496.58 47.44L498.02 47.44L488.02 94.46Q487.94 94.82 487.91 95.07Q487.87 95.32 487.87 95.61L487.87 95.61Q487.87 98.99 491.62 98.99L491.62 98.99Q492.41 98.99 493.49 98.81Q494.57 98.63 495.50 98.34L495.50 98.34L495.72 99.50Q494.71 99.86 493.24 100.11Q491.76 100.36 490.75 100.36ZM501.19 100L509.11 62.63L510.55 62.63L502.63 100L501.19 100ZM511.20 52.98L512.35 47.44L513.79 47.44L512.64 52.98L511.20 52.98ZM528.84 100.72L528.84 100.72Q525.82 100.72 523.33 99.50Q520.85 98.27 519.05 96.11Q517.25 93.95 516.28 91.07Q515.30 88.19 515.30 84.88L515.30 84.88Q515.30 80.27 517.10 76.10Q518.90 71.92 521.93 68.82Q524.95 65.73 528.88 63.89Q532.80 62.06 536.98 62.06L536.98 62.06Q541.51 62.06 544.54 64.25Q547.56 66.45 548.57 70.41L548.57 70.41L546.98 70.91Q545.98 67.46 543.17 65.48Q540.36 63.50 536.47 63.50L536.47 63.50Q532.73 63.50 529.16 65.19Q525.60 66.88 522.86 69.76Q520.13 72.64 518.44 76.49Q516.74 80.34 516.74 84.59L516.74 84.59Q516.74 87.62 517.64 90.32Q518.54 93.02 520.13 95.00Q521.71 96.98 523.94 98.13Q526.18 99.28 528.91 99.28L528.91 99.28Q531.00 99.28 533.20 98.63Q535.39 97.98 537.34 96.90Q539.28 95.82 540.83 94.38Q542.38 92.94 543.10 91.43L543.10 91.43L544.46 91.86Q543.46 93.74 541.76 95.36Q540.07 96.98 537.95 98.16Q535.82 99.35 533.48 100.04Q531.14 100.72 528.84 100.72Z"/></svg>