<svg xmlns="http://www.w3.org/2000/svg" viewBox="2.16 47.43999999999999 562.8960000000002 68.68800000000002"><path d="M4.68 100L2.16 100L13.03 48.88L33.05 48.88Q35.64 48.88 37.66 49.96Q39.67 51.04 41.08 52.84Q42.48 54.64 43.24 56.98Q43.99 59.32 43.99 61.77L43.99 61.77Q43.99 65.01 42.77 68.14Q41.54 71.27 39.42 73.79Q37.30 76.31 34.49 78.00Q31.68 79.70 28.51 79.98L28.51 79.98L36.36 100L33.48 100L25.70 80.27L8.86 80.27L4.68 100ZM9.36 77.97L27.29 77.97Q30.24 77.97 32.83 76.53Q35.42 75.09 37.33 72.82Q39.24 70.55 40.36 67.74Q41.47 64.94 41.47 62.13L41.47 62.13Q41.47 59.97 40.82 57.99Q40.18 56.01 38.99 54.50Q37.80 52.98 36.14 52.08Q34.49 51.18 32.47 51.18L32.47 51.18L15.05 51.18L9.36 77.97ZM59.18 100.72L59.18 100.72Q56.09 100.72 53.60 99.42Q51.12 98.13 49.39 95.93Q47.66 93.74 46.76 90.89Q45.86 88.05 45.86 84.95L45.86 84.95Q45.86 80.56 47.59 76.42Q49.32 72.28 52.24 69.08Q55.15 65.87 58.93 63.93Q62.71 61.98 66.74 61.98L66.74 61.98Q69.19 61.98 71.17 62.70Q73.15 63.42 74.70 64.68Q76.25 65.94 77.36 67.60Q78.48 69.26 79.13 71.06L79.13 71.06L80.93 62.56L83.45 62.56L76.32 95.90Q76.18 96.33 76.18 96.76L76.18 96.76Q76.18 97.70 77.18 97.70L77.18 97.70L76.68 100Q76.54 100 76.32 100.04Q76.10 100.07 75.96 100.07L75.96 100.07Q74.81 100.07 74.27 99.39Q73.73 98.70 73.73 97.77L73.73 97.77Q73.73 97.55 73.76 97.30Q73.80 97.05 73.91 96.51Q74.02 95.97 74.20 95.00Q74.38 94.02 74.74 92.37L74.74 92.37Q71.71 96.11 67.54 98.42Q63.36 100.72 59.18 100.72ZM59.90 98.42L59.90 98.42Q62.06 98.42 64.51 97.55Q66.96 96.69 69.23 95.18Q71.50 93.66 73.22 91.72Q74.95 89.78 75.60 87.62L75.60 87.62L78.34 74.73Q78.05 72.64 77.04 70.77Q76.03 68.90 74.45 67.46Q72.86 66.02 70.85 65.15Q68.83 64.29 66.46 64.29L66.46 64.29Q62.86 64.29 59.58 66.12Q56.30 67.96 53.82 70.88Q51.34 73.79 49.86 77.43Q48.38 81.06 48.38 84.74L48.38 84.74Q48.38 87.47 49.25 89.96Q50.11 92.44 51.62 94.31Q53.14 96.18 55.26 97.30Q57.38 98.42 59.90 98.42ZM93.02 100.36L93.02 100.36Q90.86 100.36 89.60 99.10Q88.34 97.84 88.34 95.75L88.34 95.75Q88.34 95.39 88.34 94.96Q88.34 94.53 88.49 94.10L88.49 94.10L98.42 47.44L100.87 47.44L91.01 93.59Q90.94 93.95 90.90 94.20Q90.86 94.46 90.86 94.82L90.86 94.82Q90.86 96.40 91.84 97.26Q92.81 98.13 94.54 98.13L94.54 98.13Q95.33 98.13 96.41 97.95Q97.49 97.77 98.42 97.41L98.42 97.41L98.57 99.42Q97.42 99.78 95.80 100.07Q94.18 100.36 93.02 100.36ZM118.51 100.72L118.51 100.72Q115.20 100.72 112.61 99.46Q110.02 98.20 108.25 96.04Q106.49 93.88 105.55 91Q104.62 88.12 104.62 84.88L104.62 84.88Q104.62 80.56 106.31 76.46Q108.00 72.35 110.95 69.11Q113.90 65.87 117.94 63.93Q121.97 61.98 126.65 61.98L126.65 61.98Q128.66 61.98 130.68 62.63Q132.70 63.28 134.32 64.50Q135.94 65.73 136.94 67.60Q137.95 69.47 137.95 71.92L137.95 71.92Q137.95 82.43 118.73 82.43L118.73 82.43Q116.21 82.43 113.47 82.36Q110.74 82.29 107.35 82.07L107.35 82.07Q107.14 83.51 107.14 84.81L107.14 84.81Q107.14 87.62 107.89 90.14Q108.65 92.66 110.16 94.53Q111.67 96.40 113.90 97.52Q116.14 98.63 119.09 98.63L119.09 98.63Q121.03 98.63 123.01 98.06Q124.99 97.48 126.83 96.44Q128.66 95.39 130.25 93.92Q131.83 92.44 132.84 90.57L132.84 90.57L135.00 91.22Q133.78 93.38 131.94 95.10Q130.10 96.83 127.94 98.09Q125.78 99.35 123.37 100.04Q120.96 100.72 118.51 100.72ZM126.29 64.14L126.29 64.14Q122.83 64.14 119.81 65.48Q116.78 66.81 114.37 69.00Q111.96 71.20 110.27 74.08Q108.58 76.96 107.78 79.98L107.78 79.98Q111.10 80.20 113.76 80.27Q116.42 80.34 118.94 80.34L118.94 80.34Q123.55 80.34 126.72 79.73Q129.89 79.12 131.87 77.97Q133.85 76.82 134.71 75.27Q135.58 73.72 135.58 71.85L135.58 71.85Q135.58 69.83 134.71 68.36Q133.85 66.88 132.52 65.94Q131.18 65.01 129.53 64.58Q127.87 64.14 126.29 64.14ZM150.62 100L143.78 62.56L146.30 62.56L152.57 97.26Q156.38 93.09 159.48 88.37Q162.58 83.66 165.10 78.90L165.10 78.90L161.86 62.56L164.38 62.56L166.82 75.52Q168.48 72.06 169.74 68.82Q171.00 65.58 172.01 62.56L172.01 62.56L174.38 62.56Q171.86 70.77 167.54 79.05L167.54 79.05L171.00 97.26Q174.53 93.30 177.52 88.88Q180.50 84.45 182.92 79.91Q185.33 75.38 187.16 70.98Q189.00 66.59 190.30 62.56L190.30 62.56L192.67 62.56Q189.72 71.99 184.64 81.50Q179.57 91 171.58 100L171.58 100L169.13 100L165.74 82.22Q163.22 86.75 160.09 91.22Q156.96 95.68 153.07 100L153.07 100L150.62 100ZM207.22 100.72L207.22 100.72Q204.12 100.72 201.64 99.42Q199.15 98.13 197.42 95.93Q195.70 93.74 194.80 90.89Q193.90 88.05 193.90 84.95L193.90 84.95Q193.90 80.56 195.62 76.42Q197.35 72.28 200.27 69.08Q203.18 65.87 206.96 63.93Q210.74 61.98 214.78 61.98L214.78 61.98Q217.22 61.98 219.20 62.70Q221.18 63.42 222.73 64.68Q224.28 65.94 225.40 67.60Q226.51 69.26 227.16 71.06L227.16 71.06L228.96 62.56L231.48 62.56L224.35 95.90Q224.21 96.33 224.21 96.76L224.21 96.76Q224.21 97.70 225.22 97.70L225.22 97.70L224.71 100Q224.57 100 224.35 100.04Q224.14 100.07 223.99 100.07L223.99 100.07Q222.84 100.07 222.30 99.39Q221.76 98.70 221.76 97.77L221.76 97.77Q221.76 97.55 221.80 97.30Q221.83 97.05 221.94 96.51Q222.05 95.97 222.23 95.00Q222.41 94.02 222.77 92.37L222.77 92.37Q219.74 96.11 215.57 98.42Q211.39 100.72 207.22 100.72ZM207.94 98.42L207.94 98.42Q210.10 98.42 212.54 97.55Q214.99 96.69 217.26 95.18Q219.53 93.66 221.26 91.72Q222.98 89.78 223.63 87.62L223.63 87.62L226.37 74.73Q226.08 72.64 225.07 70.77Q224.06 68.90 222.48 67.46Q220.90 66.02 218.88 65.15Q216.86 64.29 214.49 64.29L214.49 64.29Q210.89 64.29 207.61 66.12Q204.34 67.96 201.85 70.88Q199.37 73.79 197.89 77.43Q196.42 81.06 196.42 84.74L196.42 84.74Q196.42 87.47 197.28 89.96Q198.14 92.44 199.66 94.31Q201.17 96.18 203.29 97.30Q205.42 98.42 207.94 98.42ZM231.55 116.13L231.26 114.11Q233.50 113.68 235.04 113.03Q236.59 112.38 237.89 111.27Q239.18 110.15 240.41 108.46Q241.63 106.77 243.22 104.39L243.22 104.39L245.95 100.14L237.67 62.56L240.26 62.56L247.75 97.41L251.57 91.29Q254.88 86.03 257.18 82.07Q259.49 78.11 261.07 74.87Q262.66 71.63 263.74 68.72Q264.82 65.80 265.75 62.56L265.75 62.56L268.20 62.56Q267.19 66.02 266.11 69.00Q265.03 71.99 263.38 75.34Q261.72 78.69 259.31 82.79Q256.90 86.90 253.30 92.58L253.30 92.58L247.46 101.87Q244.94 105.90 243.00 108.53Q241.06 111.16 239.29 112.74Q237.53 114.33 235.73 115.08Q233.93 115.84 231.55 116.13L231.55 116.13ZM283.82 100L283.82 100Q284.18 98.34 285.01 95.86Q285.84 93.38 287.57 90.71Q289.30 88.05 292.14 85.49Q294.98 82.94 299.38 81.06L299.38 81.06Q303.34 79.41 306.22 78.04Q309.10 76.67 311.00 75.20Q312.91 73.72 313.85 71.96Q314.78 70.19 314.78 67.82L314.78 67.82Q314.78 66.45 314.28 65.15Q313.78 63.86 312.73 62.81Q311.69 61.77 310.03 61.12Q308.38 60.47 306.07 60.47L306.07 60.47Q303.62 60.47 301.50 61.26Q299.38 62.06 297.72 63.10Q296.06 64.14 294.91 65.19Q293.76 66.23 293.33 66.66L293.33 66.66L291.96 65.01Q292.10 64.86 293.29 63.78Q294.48 62.70 296.46 61.44Q298.44 60.18 301.10 59.18Q303.77 58.17 306.79 58.17L306.79 58.17Q309.46 58.17 311.47 58.92Q313.49 59.68 314.82 60.94Q316.15 62.20 316.80 63.86Q317.45 65.51 317.45 67.31L317.45 67.31Q317.45 70.19 316.44 72.28Q315.43 74.37 313.38 76.06Q311.33 77.75 308.27 79.26Q305.21 80.78 301.18 82.50L301.18 82.50Q297.79 83.94 295.27 86.07Q292.75 88.19 291.02 90.39Q289.30 92.58 288.32 94.56Q287.35 96.54 287.06 97.70L287.06 97.70L311.90 97.70L311.33 100L283.82 100ZM335.88 100.72L335.88 100.72Q332.86 100.72 330.48 99.50Q328.10 98.27 326.41 96.08Q324.72 93.88 323.82 90.82Q322.92 87.76 322.92 84.16L322.92 84.16Q322.92 78.54 324.76 73.61Q326.59 68.68 329.65 65.01Q332.71 61.34 336.74 59.18Q340.78 57.02 345.17 57.02L345.17 57.02Q348.19 57.02 350.57 58.24Q352.94 59.46 354.64 61.70Q356.33 63.93 357.23 66.95Q358.13 69.98 358.13 73.65L358.13 73.65Q358.13 79.26 356.29 84.20Q354.46 89.13 351.36 92.80Q348.26 96.47 344.27 98.60Q340.27 100.72 335.88 100.72ZM336.38 98.34L336.38 98.34Q340.27 98.34 343.76 96.44Q347.26 94.53 349.92 91.22Q352.58 87.90 354.13 83.44Q355.68 78.98 355.68 73.79L355.68 73.79Q355.68 70.55 354.92 67.92Q354.17 65.30 352.76 63.39Q351.36 61.48 349.31 60.44Q347.26 59.39 344.66 59.39L344.66 59.39Q340.78 59.39 337.25 61.30Q333.72 63.21 331.09 66.56Q328.46 69.90 326.92 74.37Q325.37 78.83 325.37 84.02L325.37 84.02Q325.37 87.26 326.12 89.88Q326.88 92.51 328.28 94.38Q329.69 96.26 331.74 97.30Q333.79 98.34 336.38 98.34ZM378.22 100.72L378.22 100.72Q375.19 100.72 372.82 99.50Q370.44 98.27 368.75 96.08Q367.06 93.88 366.16 90.82Q365.26 87.76 365.26 84.16L365.26 84.16Q365.26 78.54 367.09 73.61Q368.93 68.68 371.99 65.01Q375.05 61.34 379.08 59.18Q383.11 57.02 387.50 57.02L387.50 57.02Q390.53 57.02 392.90 58.24Q395.28 59.46 396.97 61.70Q398.66 63.93 399.56 66.95Q400.46 69.98 400.46 73.65L400.46 73.65Q400.46 79.26 398.63 84.20Q396.79 89.13 393.70 92.80Q390.60 96.47 386.60 98.60Q382.61 100.72 378.22 100.72ZM378.72 98.34L378.72 98.34Q382.61 98.34 386.10 96.44Q389.59 94.53 392.26 91.22Q394.92 87.90 396.47 83.44Q398.02 78.98 398.02 73.79L398.02 73.79Q398.02 70.55 397.26 67.92Q396.50 65.30 395.10 63.39Q393.70 61.48 391.64 60.44Q389.59 59.39 387.00 59.39L387.00 59.39Q383.11 59.39 379.58 61.30Q376.06 63.21 373.43 66.56Q370.80 69.90 369.25 74.37Q367.70 78.83 367.70 84.02L367.70 84.02Q367.70 87.26 368.46 89.88Q369.22 92.51 370.62 94.38Q372.02 96.26 374.08 97.30Q376.13 98.34 378.72 98.34ZM423.43 100L431.35 62.56L433.80 62.56L425.88 100L423.43 100ZM433.30 53.49L434.59 47.44L437.04 47.44L435.74 53.49L433.30 53.49ZM445.03 100.36L445.03 100.36Q442.66 100.36 441.11 99.10Q439.56 97.84 439.56 95.61L439.56 95.61Q439.56 95.25 439.60 94.89Q439.63 94.53 439.70 94.17L439.70 94.17L445.97 64.72L440.93 64.72L441.36 62.56L446.47 62.56L449.21 49.67L451.66 49.67L448.92 62.56L457.34 62.56L456.84 64.72L448.42 64.72L442.80 90.86Q442.44 92.51 442.30 93.30Q442.15 94.10 442.15 94.53L442.15 94.53Q442.15 96.26 443.27 97.16Q444.38 98.06 445.97 98.06L445.97 98.06Q447.05 98.06 448.09 97.80Q449.14 97.55 449.96 97.23Q450.79 96.90 451.33 96.62Q451.87 96.33 452.02 96.26L452.02 96.26L452.45 98.27Q452.30 98.42 451.66 98.74Q451.01 99.06 450.00 99.42Q448.99 99.78 447.70 100.07Q446.40 100.36 445.03 100.36ZM471.67 100.72L471.67 100.72Q468.58 100.72 466.09 99.42Q463.61 98.13 461.88 95.93Q460.15 93.74 459.25 90.89Q458.35 88.05 458.35 84.95L458.35 84.95Q458.35 80.56 460.08 76.42Q461.81 72.28 464.72 69.08Q467.64 65.87 471.42 63.93Q475.20 61.98 479.23 61.98L479.23 61.98Q481.68 61.98 483.66 62.70Q485.64 63.42 487.19 64.68Q488.74 65.94 489.85 67.60Q490.97 69.26 491.62 71.06L491.62 71.06L493.42 62.56L495.94 62.56L488.81 95.90Q488.66 96.33 488.66 96.76L488.66 96.76Q488.66 97.70 489.67 97.70L489.67 97.70L489.17 100Q489.02 100 488.81 100.04Q488.59 100.07 488.45 100.07L488.45 100.07Q487.30 100.07 486.76 99.39Q486.22 98.70 486.22 97.77L486.22 97.77Q486.22 97.55 486.25 97.30Q486.29 97.05 486.40 96.51Q486.50 95.97 486.68 95.00Q486.86 94.02 487.22 92.37L487.22 92.37Q484.20 96.11 480.02 98.42Q475.85 100.72 471.67 100.72ZM472.39 98.42L472.39 98.42Q474.55 98.42 477.00 97.55Q479.45 96.69 481.72 95.18Q483.98 93.66 485.71 91.72Q487.44 89.78 488.09 87.62L488.09 87.62L490.82 74.73Q490.54 72.64 489.53 70.77Q488.52 68.90 486.94 67.46Q485.35 66.02 483.34 65.15Q481.32 64.29 478.94 64.29L478.94 64.29Q475.34 64.29 472.07 66.12Q468.79 67.96 466.31 70.88Q463.82 73.79 462.35 77.43Q460.87 81.06 460.87 84.74L460.87 84.74Q460.87 87.47 461.74 89.96Q462.60 92.44 464.11 94.31Q465.62 96.18 467.75 97.30Q469.87 98.42 472.39 98.42ZM505.51 100.36L505.51 100.36Q503.35 100.36 502.09 99.10Q500.83 97.84 500.83 95.75L500.83 95.75Q500.83 95.39 500.83 94.96Q500.83 94.53 500.98 94.10L500.98 94.10L510.91 47.44L513.36 47.44L503.50 93.59Q503.42 93.95 503.39 94.20Q503.35 94.46 503.35 94.82L503.35 94.82Q503.35 96.40 504.32 97.26Q505.30 98.13 507.02 98.13L507.02 98.13Q507.82 98.13 508.90 97.95Q509.98 97.77 510.91 97.41L510.91 97.41L511.06 99.42Q509.90 99.78 508.28 100.07Q506.66 100.36 505.51 100.36ZM516.46 100L524.38 62.56L526.82 62.56L518.90 100L516.46 100ZM526.32 53.49L527.62 47.44L530.06 47.44L528.77 53.49L526.32 53.49ZM544.97 100.72L544.97 100.72Q541.87 100.72 539.32 99.50Q536.76 98.27 534.96 96.11Q533.16 93.95 532.19 91.07Q531.22 88.19 531.22 84.88L531.22 84.88Q531.22 80.27 533.02 76.10Q534.82 71.92 537.84 68.79Q540.86 65.66 544.82 63.82Q548.78 61.98 553.10 61.98L553.10 61.98Q557.86 61.98 560.95 64.25Q564.05 66.52 565.06 70.48L565.06 70.48L562.46 71.34Q561.46 68.03 558.79 66.16Q556.13 64.29 552.46 64.29L552.46 64.29Q548.86 64.29 545.51 65.91Q542.16 67.53 539.53 70.30Q536.90 73.07 535.32 76.74Q533.74 80.42 533.74 84.52L533.74 84.52Q533.74 87.40 534.56 89.92Q535.39 92.44 536.90 94.35Q538.42 96.26 540.54 97.34Q542.66 98.42 545.26 98.42L545.26 98.42Q547.20 98.42 549.29 97.80Q551.38 97.19 553.21 96.18Q555.05 95.18 556.49 93.84Q557.93 92.51 558.65 91L558.65 91L560.95 91.72Q559.87 93.66 558.14 95.32Q556.42 96.98 554.29 98.16Q552.17 99.35 549.76 100.04Q547.34 100.72 544.97 100.72Z"/></svg>