<svg xmlns="http://www.w3.org/2000/svg" viewBox="4.896000000000001 47.43999999999999 436.5360000000001 69.19200000000001"><path d="M16.70 100L4.90 100L4.90 48.88L27.94 48.88Q31.54 48.88 34.60 50.39Q37.66 51.90 39.89 54.35Q42.12 56.80 43.38 59.90Q44.64 62.99 44.64 66.16L44.64 66.16Q44.64 68.54 44.06 70.73Q43.49 72.93 42.41 74.87Q41.33 76.82 39.78 78.36Q38.23 79.91 36.29 80.99L36.29 80.99L47.52 100L34.20 100L24.41 83.51L16.70 83.51L16.70 100ZM16.70 59.25L16.70 73.22L27.50 73.22Q29.59 73.22 31.10 71.24Q32.62 69.26 32.62 66.16L32.62 66.16Q32.62 62.99 30.89 61.12Q29.16 59.25 27.14 59.25L27.14 59.25L16.70 59.25ZM62.42 100.72L62.42 100.72Q59.62 100.72 57.20 99.82Q54.79 98.92 53.06 97.30Q51.34 95.68 50.33 93.48Q49.32 91.29 49.32 88.70L49.32 88.70Q49.32 85.89 50.51 83.58Q51.70 81.28 53.86 79.62Q56.02 77.97 58.97 77.03Q61.92 76.10 65.52 76.10L65.52 76.10Q67.90 76.10 70.13 76.49Q72.36 76.89 74.02 77.68L74.02 77.68L74.02 75.95Q74.02 69.40 66.46 69.40L66.46 69.40Q63.36 69.40 60.55 70.44Q57.74 71.49 54.65 73.58L54.65 73.58L51.26 66.38Q55.01 63.93 59.04 62.70Q63.07 61.48 67.61 61.48L67.61 61.48Q76.18 61.48 80.86 65.51Q85.54 69.54 85.54 77.32L85.54 77.32L85.54 87.04Q85.54 88.77 86.08 89.45Q86.62 90.14 87.98 90.28L87.98 90.28L87.98 100Q86.47 100.36 85.25 100.47Q84.02 100.58 83.02 100.58L83.02 100.58Q79.78 100.58 78.12 99.32Q76.46 98.06 76.03 95.75L76.03 95.75L75.82 94.02Q73.30 97.26 69.80 98.99Q66.31 100.72 62.42 100.72ZM65.81 92.44L65.81 92.44Q67.68 92.44 69.44 91.79Q71.21 91.14 72.36 90.06L72.36 90.06Q74.02 88.77 74.02 87.33L74.02 87.33L74.02 83.73Q72.50 83.15 70.74 82.83Q68.98 82.50 67.46 82.50L67.46 82.50Q64.30 82.50 62.24 83.94Q60.19 85.38 60.19 87.69L60.19 87.69Q60.19 89.78 61.78 91.11Q63.36 92.44 65.81 92.44ZM93.74 90.57L93.74 47.44L105.26 47.44L105.26 86.54Q105.26 90.86 108.94 90.86L108.94 90.86Q109.80 90.86 110.84 90.60Q111.89 90.35 112.75 89.85L112.75 89.85L114.26 98.49Q112.10 99.50 109.30 100.07Q106.49 100.65 104.04 100.65L104.04 100.65Q99.07 100.65 96.41 98.06Q93.74 95.46 93.74 90.57L93.74 90.57ZM136.08 100.72L136.08 100.72Q131.33 100.72 127.55 99.17Q123.77 97.62 121.14 94.96Q118.51 92.30 117.14 88.80Q115.78 85.31 115.78 81.50L115.78 81.50Q115.78 77.39 117.14 73.76Q118.51 70.12 121.10 67.38Q123.70 64.65 127.48 63.06Q131.26 61.48 136.08 61.48L136.08 61.48Q140.90 61.48 144.65 63.06Q148.39 64.65 150.98 67.35Q153.58 70.05 154.91 73.58Q156.24 77.10 156.24 80.99L156.24 80.99Q156.24 82 156.17 82.97Q156.10 83.94 155.95 84.66L155.95 84.66L128.02 84.66Q128.30 88.48 130.79 90.46Q133.27 92.44 136.44 92.44L136.44 92.44Q138.96 92.44 141.30 91.22Q143.64 89.99 144.43 87.90L144.43 87.90L154.22 90.64Q151.99 95.10 147.31 97.91Q142.63 100.72 136.08 100.72ZM127.80 77.54L144.07 77.54Q143.71 73.94 141.48 71.85Q139.25 69.76 135.94 69.76L135.94 69.76Q132.55 69.76 130.36 71.88Q128.16 74.01 127.80 77.54L127.80 77.54ZM196.85 89.34L207.07 62.20L218.02 62.20L202.39 100L192.96 100L187.13 84.45L181.30 100L171.86 100L156.24 62.20L167.11 62.20L177.41 89.34L180.94 79.05L174.24 62.20L183.46 62.20L187.13 73.58L190.73 62.20L199.94 62.20L193.32 79.05L196.85 89.34ZM231.48 100.72L231.48 100.72Q228.67 100.72 226.26 99.82Q223.85 98.92 222.12 97.30Q220.39 95.68 219.38 93.48Q218.38 91.29 218.38 88.70L218.38 88.70Q218.38 85.89 219.56 83.58Q220.75 81.28 222.91 79.62Q225.07 77.97 228.02 77.03Q230.98 76.10 234.58 76.10L234.58 76.10Q236.95 76.10 239.18 76.49Q241.42 76.89 243.07 77.68L243.07 77.68L243.07 75.95Q243.07 69.40 235.51 69.40L235.51 69.40Q232.42 69.40 229.61 70.44Q226.80 71.49 223.70 73.58L223.70 73.58L220.32 66.38Q224.06 63.93 228.10 62.70Q232.13 61.48 236.66 61.48L236.66 61.48Q245.23 61.48 249.91 65.51Q254.59 69.54 254.59 77.32L254.59 77.32L254.59 87.04Q254.59 88.77 255.13 89.45Q255.67 90.14 257.04 90.28L257.04 90.28L257.04 100Q255.53 100.36 254.30 100.47Q253.08 100.58 252.07 100.58L252.07 100.58Q248.83 100.58 247.18 99.32Q245.52 98.06 245.09 95.75L245.09 95.75L244.87 94.02Q242.35 97.26 238.86 98.99Q235.37 100.72 231.48 100.72ZM234.86 92.44L234.86 92.44Q236.74 92.44 238.50 91.79Q240.26 91.14 241.42 90.06L241.42 90.06Q243.07 88.77 243.07 87.33L243.07 87.33L243.07 83.73Q241.56 83.15 239.80 82.83Q238.03 82.50 236.52 82.50L236.52 82.50Q233.35 82.50 231.30 83.94Q229.25 85.38 229.25 87.69L229.25 87.69Q229.25 89.78 230.83 91.11Q232.42 92.44 234.86 92.44ZM262.30 115.55L262.30 105.69Q263.74 106.19 265.00 106.41Q266.26 106.62 267.26 106.62L267.26 106.62Q269.35 106.62 270.50 105.18Q271.66 103.74 272.59 100L272.59 100L258.19 62.20L270.07 62.20L278.86 90.14L286.42 62.20L297.22 62.20L282.82 106.12Q281.30 110.80 277.42 113.72Q273.53 116.63 268.20 116.63L268.20 116.63Q266.76 116.63 265.28 116.38Q263.81 116.13 262.30 115.55L262.30 115.55ZM353.38 84.52L353.38 84.52Q353.38 88.19 351.86 91.14Q350.35 94.10 347.80 96.22Q345.24 98.34 341.78 99.50Q338.33 100.65 334.44 100.65L334.44 100.65Q330.62 100.65 327.20 99.46Q323.78 98.27 321.19 96.11Q318.60 93.95 317.09 90.89Q315.58 87.83 315.58 84.09L315.58 84.09Q315.58 82.07 316.22 80.31Q316.87 78.54 317.88 77.10Q318.89 75.66 320.18 74.58Q321.48 73.50 322.70 72.71L322.70 72.71Q320.33 71.42 318.71 68.90Q317.09 66.38 317.09 63.57L317.09 63.57Q317.09 60.04 318.71 57.27Q320.33 54.50 322.85 52.66Q325.37 50.82 328.43 49.85Q331.49 48.88 334.44 48.88L334.44 48.88Q337.39 48.88 340.49 49.82Q343.58 50.75 346.14 52.59Q348.70 54.42 350.32 57.16Q351.94 59.90 351.94 63.42L351.94 63.42Q351.94 64.86 351.47 66.23Q351.00 67.60 350.24 68.86Q349.49 70.12 348.41 71.09Q347.33 72.06 346.18 72.71L346.18 72.71Q347.47 73.50 348.77 74.66Q350.06 75.81 351.11 77.28Q352.15 78.76 352.76 80.56Q353.38 82.36 353.38 84.52ZM341.71 83.80L341.71 83.80Q341.71 82.29 341.10 81.10Q340.49 79.91 339.48 79.12Q338.47 78.33 337.18 77.90Q335.88 77.46 334.44 77.46L334.44 77.46Q331.42 77.46 329.33 79.19Q327.24 80.92 327.24 83.87L327.24 83.87Q327.24 85.31 327.85 86.46Q328.46 87.62 329.47 88.44Q330.48 89.27 331.78 89.74Q333.07 90.21 334.51 90.21L334.51 90.21Q335.95 90.21 337.28 89.74Q338.62 89.27 339.59 88.41Q340.56 87.54 341.14 86.36Q341.71 85.17 341.71 83.80ZM328.75 63.78L328.75 63.78Q328.75 65.08 329.26 66.02Q329.76 66.95 330.59 67.56Q331.42 68.18 332.42 68.50Q333.43 68.82 334.44 68.82L334.44 68.82Q335.45 68.82 336.49 68.50Q337.54 68.18 338.36 67.53Q339.19 66.88 339.70 65.94Q340.20 65.01 340.20 63.78L340.20 63.78Q340.20 61.70 338.51 60.36Q336.82 59.03 334.44 59.03L334.44 59.03Q332.06 59.03 330.41 60.36Q328.75 61.70 328.75 63.78ZM397.22 78.90L397.22 78.90Q397.22 83.66 395.78 87.65Q394.34 91.65 391.82 94.56Q389.30 97.48 385.88 99.10Q382.46 100.72 378.43 100.72L378.43 100.72Q374.40 100.72 370.94 99.10Q367.49 97.48 364.97 94.56Q362.45 91.65 361.04 87.65Q359.64 83.66 359.64 78.90L359.64 78.90Q359.64 74.15 361.04 70.16Q362.45 66.16 364.97 63.24Q367.49 60.33 370.94 58.67Q374.40 57.02 378.43 57.02L378.43 57.02Q382.46 57.02 385.88 58.67Q389.30 60.33 391.82 63.24Q394.34 66.16 395.78 70.16Q397.22 74.15 397.22 78.90ZM385.63 78.90L385.63 78.90Q385.63 73.86 383.62 70.73Q381.60 67.60 378.43 67.60L378.43 67.60Q375.12 67.60 373.14 70.73Q371.16 73.86 371.16 78.90L371.16 78.90Q371.16 83.94 373.14 87.04Q375.12 90.14 378.43 90.14L378.43 90.14Q381.60 90.14 383.62 87.04Q385.63 83.94 385.63 78.90ZM441.43 78.90L441.43 78.90Q441.43 83.66 439.99 87.65Q438.55 91.65 436.03 94.56Q433.51 97.48 430.09 99.10Q426.67 100.72 422.64 100.72L422.64 100.72Q418.61 100.72 415.15 99.10Q411.70 97.48 409.18 94.56Q406.66 91.65 405.25 87.65Q403.85 83.66 403.85 78.90L403.85 78.90Q403.85 74.15 405.25 70.16Q406.66 66.16 409.18 63.24Q411.70 60.33 415.15 58.67Q418.61 57.02 422.64 57.02L422.64 57.02Q426.67 57.02 430.09 58.67Q433.51 60.33 436.03 63.24Q438.55 66.16 439.99 70.16Q441.43 74.15 441.43 78.90ZM429.84 78.90L429.84 78.90Q429.84 73.86 427.82 70.73Q425.81 67.60 422.64 67.60L422.64 67.60Q419.33 67.60 417.35 70.73Q415.37 73.86 415.37 78.90L415.37 78.90Q415.37 83.94 417.35 87.04Q419.33 90.14 422.64 90.14L422.64 90.14Q425.81 90.14 427.82 87.04Q429.84 83.94 429.84 78.90Z"/></svg>