<svg xmlns="http://www.w3.org/2000/svg" viewBox="-0.03 -7.3 42.06 9.64"><path d="M1.92 0L-0.03 0L1.48-7.10L4.60-7.10Q5.03-7.10 5.37-6.92Q5.71-6.75 5.94-6.46Q6.17-6.18 6.29-5.81Q6.42-5.44 6.42-5.05L6.42-5.05Q6.42-4.70 6.32-4.36Q6.22-4.01 6.04-3.69Q5.85-3.37 5.59-3.10Q5.33-2.82 5.01-2.61L5.01-2.61L5.86 0L3.66 0L2.97-2.18L2.38-2.18L1.92 0ZM2.75-3.88L3.83-3.88Q3.91-3.88 4.01-3.95Q4.11-4.02 4.20-4.15Q4.29-4.28 4.35-4.46Q4.41-4.64 4.41-4.85L4.41-4.85Q4.41-5.11 4.32-5.25Q4.22-5.40 4.10-5.40L4.10-5.40L3.07-5.40L2.75-3.88ZM8.30 0.10L8.30 0.10Q7.86 0.10 7.52-0.06Q7.17-0.21 6.93-0.49Q6.69-0.77 6.57-1.16Q6.44-1.55 6.44-2.02L6.44-2.02Q6.44-2.70 6.67-3.31Q6.90-3.91 7.29-4.37Q7.68-4.83 8.20-5.09Q8.71-5.36 9.28-5.36L9.28-5.36Q9.76-5.36 10.11-5.13Q10.45-4.90 10.57-4.48L10.57-4.48L10.73-5.22L12.64-5.22L11.97-2.10Q11.94-1.95 11.94-1.86L11.94-1.86Q11.94-1.61 12.21-1.60L12.21-1.60L11.87 0Q11.37 0.10 11.06 0.10L11.06 0.10Q10.61 0.10 10.35-0.07Q10.09-0.24 10.09-0.67L10.09-0.67Q10.09-0.77 10.10-0.82L10.10-0.82Q9.74-0.34 9.27-0.12Q8.79 0.10 8.30 0.10ZM9.16-1.50L9.16-1.50Q9.40-1.50 9.61-1.64Q9.82-1.77 10.07-2.04L10.07-2.04L10.27-2.98Q10.22-3.33 10.03-3.54Q9.83-3.76 9.56-3.76L9.56-3.76Q9.35-3.76 9.15-3.64Q8.95-3.52 8.79-3.33Q8.63-3.13 8.54-2.87Q8.44-2.61 8.44-2.33L8.44-2.33Q8.44-1.95 8.63-1.73Q8.81-1.50 9.16-1.50ZM14.15 0.10L14.15 0.10Q13.52 0.10 13.20-0.18Q12.88-0.45 12.88-0.97L12.88-0.97Q12.88-1.08 12.89-1.19Q12.90-1.30 12.93-1.42L12.93-1.42L14.18-7.30L16.08-7.30L14.97-2.09Q14.94-1.97 14.94-1.87L14.94-1.87Q14.94-1.49 15.30-1.49L15.30-1.49Q15.41-1.49 15.55-1.53Q15.69-1.57 15.82-1.64L15.82-1.64L15.76-0.24Q15.40-0.08 14.96 0.01Q14.52 0.10 14.15 0.10ZM18.57 0.10L18.57 0.10Q18.06 0.10 17.64-0.06Q17.22-0.22 16.93-0.51Q16.63-0.80 16.47-1.21Q16.31-1.62 16.31-2.13L16.31-2.13Q16.31-2.80 16.58-3.39Q16.85-3.98 17.32-4.42Q17.79-4.86 18.43-5.11Q19.06-5.36 19.78-5.36L19.78-5.36Q20.74-5.36 21.28-4.96Q21.81-4.55 21.81-3.83L21.81-3.83Q21.81-2.94 21.00-2.49Q20.18-2.04 18.58-2.04L18.58-2.04L18.29-2.04Q18.29-1.61 18.44-1.44Q18.58-1.26 18.93-1.26L18.93-1.26Q19.57-1.26 19.91-1.80L19.91-1.80L21.40-1.32Q21.18-1 20.87-0.74Q20.55-0.48 20.18-0.29Q19.80-0.10 19.39 0Q18.98 0.10 18.57 0.10ZM19.44-4.01L19.44-4.01Q19.15-4.01 18.91-3.79Q18.66-3.56 18.50-3.18L18.50-3.18L18.57-3.18Q19.34-3.18 19.65-3.27Q19.95-3.37 19.95-3.62L19.95-3.62Q19.95-3.79 19.81-3.90Q19.67-4.01 19.44-4.01ZM23.05 0L22.12-5.26L23.92-5.26L24.30-1.73L24.82-2.86L24.43-5.26L25.93-5.26L26.02-3.72L26.77-5.26L28.17-5.26Q27.87-4.54 27.57-3.98Q27.27-3.43 26.86-2.86L26.86-2.86L26.93-2.24Q27.20-2.59 27.40-2.85Q27.59-3.12 27.75-3.33Q27.90-3.55 28.02-3.75Q28.14-3.95 28.26-4.17Q28.37-4.38 28.50-4.65Q28.62-4.91 28.78-5.26L28.78-5.26L30.48-5.26Q29.94-3.95 29.05-2.63Q28.16-1.31 26.95 0L26.95 0L25.86 0L25.66-2L24.61 0L23.05 0ZM31.79 0.10L31.79 0.10Q31.35 0.10 31.01-0.06Q30.66-0.21 30.42-0.49Q30.18-0.77 30.06-1.16Q29.93-1.55 29.93-2.02L29.93-2.02Q29.93-2.70 30.16-3.31Q30.39-3.91 30.78-4.37Q31.17-4.83 31.69-5.09Q32.20-5.36 32.77-5.36L32.77-5.36Q33.25-5.36 33.60-5.13Q33.94-4.90 34.06-4.48L34.06-4.48L34.22-5.22L36.13-5.22L35.46-2.10Q35.43-1.95 35.43-1.86L35.43-1.86Q35.43-1.61 35.70-1.60L35.70-1.60L35.36 0Q34.86 0.10 34.55 0.10L34.55 0.10Q34.10 0.10 33.84-0.07Q33.58-0.24 33.58-0.67L33.58-0.67Q33.58-0.77 33.59-0.82L33.59-0.82Q33.23-0.34 32.76-0.12Q32.28 0.10 31.79 0.10ZM32.65-1.50L32.65-1.50Q32.89-1.50 33.10-1.64Q33.31-1.77 33.56-2.04L33.56-2.04L33.76-2.98Q33.71-3.33 33.52-3.54Q33.32-3.76 33.05-3.76L33.05-3.76Q32.84-3.76 32.64-3.64Q32.44-3.52 32.28-3.33Q32.12-3.13 32.03-2.87Q31.93-2.61 31.93-2.33L31.93-2.33Q31.93-1.95 32.12-1.73Q32.30-1.50 32.65-1.50ZM35.94 2.34L35.72 0.93Q36 0.93 36.20 0.91Q36.41 0.89 36.57 0.83Q36.73 0.78 36.86 0.69Q36.98 0.60 37.10 0.45L37.10 0.45L37.39 0.11L36.70-5.26L38.63-5.26L38.75-1.61L39.09-2.17Q39.45-2.77 39.75-3.56Q40.04-4.35 40.21-5.26L40.21-5.26L42.03-5.26Q41.89-4.78 41.74-4.36Q41.59-3.93 41.36-3.46Q41.13-2.99 40.80-2.41Q40.46-1.83 39.97-1.03L39.97-1.03L39.17 0.26Q38.81 0.84 38.45 1.24Q38.10 1.63 37.72 1.88Q37.33 2.12 36.90 2.23Q36.46 2.34 35.94 2.34L35.94 2.34Z"/></svg>