<svg xmlns="http://www.w3.org/2000/svg" viewBox="0.85 -7.3 38.53 9.55"><path d="M1.75 0L0.85 0L0.85-7.10L3.89-7.10Q4.36-7.10 4.75-6.91Q5.15-6.71 5.44-6.38Q5.72-6.06 5.88-5.66Q6.04-5.25 6.04-4.83L6.04-4.83Q6.04-4.46 5.94-4.12Q5.83-3.77 5.63-3.49Q5.44-3.21 5.17-3.01Q4.89-2.81 4.55-2.72L4.55-2.72L6.27 0L5.25 0L3.63-2.55L1.75-2.55L1.75 0ZM1.75-6.30L1.75-3.35L3.90-3.35Q4.18-3.35 4.41-3.47Q4.63-3.59 4.79-3.79Q4.95-4 5.04-4.27Q5.13-4.54 5.13-4.83L5.13-4.83Q5.13-5.13 5.03-5.40Q4.92-5.66 4.75-5.87Q4.57-6.07 4.33-6.19Q4.10-6.30 3.84-6.30L3.84-6.30L1.75-6.30ZM8.54 0.10L8.54 0.10Q8.17 0.10 7.85-0.03Q7.53-0.15 7.29-0.37Q7.06-0.59 6.92-0.89Q6.79-1.18 6.79-1.53L6.79-1.53Q6.79-1.89 6.95-2.19Q7.11-2.48 7.41-2.69Q7.70-2.90 8.11-3.02Q8.51-3.14 8.99-3.14L8.99-3.14Q9.37-3.14 9.76-3.07Q10.15-3 10.45-2.88L10.45-2.88L10.45-3.30Q10.45-3.94 10.09-4.30Q9.73-4.67 9.07-4.67L9.07-4.67Q8.28-4.67 7.41-4.06L7.41-4.06L7.12-4.63Q8.13-5.31 9.15-5.31L9.15-5.31Q10.18-5.31 10.75-4.76Q11.33-4.21 11.33-3.21L11.33-3.21L11.33-1.08Q11.33-0.77 11.61-0.76L11.61-0.76L11.61 0Q11.47 0.02 11.38 0.03Q11.29 0.04 11.19 0.04L11.19 0.04Q10.93 0.04 10.78-0.12Q10.62-0.27 10.59-0.49L10.59-0.49L10.57-0.86Q10.22-0.39 9.69-0.14Q9.15 0.10 8.54 0.10ZM8.77-0.56L8.77-0.56Q9.24-0.56 9.64-0.73Q10.05-0.91 10.26-1.20L10.26-1.20Q10.45-1.39 10.45-1.59L10.45-1.59L10.45-2.36Q9.81-2.61 9.12-2.61L9.12-2.61Q8.46-2.61 8.04-2.33Q7.63-2.05 7.63-1.60L7.63-1.60Q7.63-1.38 7.71-1.19Q7.80-1 7.96-0.86Q8.11-0.72 8.32-0.64Q8.53-0.56 8.77-0.56ZM12.76-1.03L12.76-7.30L13.64-7.30L13.64-1.35Q13.64-1.06 13.80-0.90Q13.95-0.73 14.23-0.73L14.23-0.73Q14.34-0.73 14.49-0.77Q14.64-0.80 14.77-0.85L14.77-0.85L14.91-0.14Q14.69-0.05 14.39 0.01Q14.09 0.07 13.86 0.07L13.86 0.07Q13.35 0.07 13.06-0.22Q12.76-0.51 12.76-1.03L12.76-1.03ZM17.91 0.10L17.91 0.10Q17.32 0.10 16.83-0.12Q16.34-0.33 15.99-0.70Q15.64-1.07 15.45-1.56Q15.25-2.06 15.25-2.61L15.25-2.61Q15.25-3.16 15.45-3.65Q15.64-4.14 16.00-4.51Q16.35-4.88 16.84-5.09Q17.33-5.31 17.92-5.31L17.92-5.31Q18.51-5.31 19.00-5.09Q19.48-4.87 19.82-4.50Q20.16-4.14 20.34-3.66Q20.53-3.17 20.53-2.65L20.53-2.65Q20.53-2.54 20.52-2.45Q20.52-2.36 20.51-2.31L20.51-2.31L16.18-2.31Q16.21-1.92 16.36-1.60Q16.51-1.28 16.75-1.05Q16.99-0.82 17.30-0.69Q17.60-0.56 17.94-0.56L17.94-0.56Q18.18-0.56 18.41-0.63Q18.64-0.69 18.84-0.80Q19.04-0.91 19.20-1.07Q19.35-1.23 19.43-1.43L19.43-1.43L20.19-1.22Q20.06-0.93 19.84-0.69Q19.61-0.45 19.32-0.28Q19.02-0.10 18.66 0Q18.30 0.10 17.91 0.10ZM16.16-2.96L19.70-2.96Q19.67-3.33 19.52-3.65Q19.36-3.96 19.13-4.18Q18.89-4.40 18.58-4.53Q18.27-4.65 17.92-4.65L17.92-4.65Q17.57-4.65 17.26-4.53Q16.95-4.40 16.71-4.17Q16.48-3.95 16.34-3.64Q16.19-3.33 16.16-2.96L16.16-2.96ZM26.12-0.87L27.91-5.22L28.76-5.22L26.54 0L25.81 0L24.76-2.55L23.72 0L22.99 0L20.77-5.22L21.61-5.22L23.41-0.87L24.29-3.04L23.39-5.21L24.12-5.21L24.76-3.54L25.40-5.21L26.13-5.21L25.24-3.04L26.12-0.87ZM30.79 0.10L30.79 0.10Q30.42 0.10 30.10-0.03Q29.78-0.15 29.55-0.37Q29.31-0.59 29.18-0.89Q29.04-1.18 29.04-1.53L29.04-1.53Q29.04-1.89 29.20-2.19Q29.36-2.48 29.66-2.69Q29.95-2.90 30.36-3.02Q30.76-3.14 31.24-3.14L31.24-3.14Q31.62-3.14 32.01-3.07Q32.40-3 32.70-2.88L32.70-2.88L32.70-3.30Q32.70-3.94 32.34-4.30Q31.98-4.67 31.32-4.67L31.32-4.67Q30.53-4.67 29.66-4.06L29.66-4.06L29.37-4.63Q30.38-5.31 31.40-5.31L31.40-5.31Q32.43-5.31 33.01-4.76Q33.58-4.21 33.58-3.21L33.58-3.21L33.58-1.08Q33.58-0.77 33.86-0.76L33.86-0.76L33.86 0Q33.72 0.02 33.63 0.03Q33.54 0.04 33.44 0.04L33.44 0.04Q33.18 0.04 33.03-0.12Q32.87-0.27 32.84-0.49L32.84-0.49L32.82-0.86Q32.47-0.39 31.94-0.14Q31.40 0.10 30.79 0.10ZM31.02-0.56L31.02-0.56Q31.49-0.56 31.90-0.73Q32.30-0.91 32.51-1.20L32.51-1.20Q32.70-1.39 32.70-1.59L32.70-1.59L32.70-2.36Q32.06-2.61 31.37-2.61L31.37-2.61Q30.71-2.61 30.30-2.33Q29.88-2.05 29.88-1.60L29.88-1.60Q29.88-1.38 29.97-1.19Q30.05-1 30.21-0.86Q30.36-0.72 30.57-0.64Q30.78-0.56 31.02-0.56ZM35.06 2.20L35.06 1.42Q35.19 1.44 35.32 1.45Q35.45 1.46 35.52 1.46L35.52 1.46Q35.64 1.46 35.73 1.41Q35.83 1.35 35.92 1.19Q36.02 1.03 36.14 0.74Q36.26 0.46 36.44 0L36.44 0L34.23-5.22L35.14-5.22L36.92-0.79L38.54-5.22L39.38-5.22L36.84 1.37Q36.70 1.72 36.38 1.99Q36.05 2.25 35.48 2.25L35.48 2.25Q35.39 2.25 35.30 2.24Q35.20 2.23 35.06 2.20L35.06 2.20Z"/></svg>