<svg xmlns="http://www.w3.org/2000/svg" viewBox="1.4400000000000002 47.43999999999999 738.432 68.68800000000002"><path d="M8 100L1 100L12 49L33 49Q36 49 38 50Q40 51 42 53Q43 55 44 57Q45 60 45 62L45 62Q45 65 44 68Q43 71 41 74Q39 76 37 78Q34 80 31 80L31 80L39 100L31 100L24 82L12 82L8 100ZM13 76L28 76Q30 76 32 75Q34 74 35 72Q36 70 37 68Q38 66 38 63L38 63Q38 61 38 60Q37 58 36 57Q35 56 34 55Q33 55 32 55L32 55L18 55L13 76ZM60 101L60 101Q56 101 54 99Q51 98 50 96Q48 94 47 91Q46 88 46 85L46 85Q46 81 48 76Q50 72 52 69Q55 66 59 64Q63 62 67 62L67 62Q71 62 74 64Q77 66 78 70L78 70L80 62L86 62L80 92Q80 93 80 93Q80 93 80 93L80 93Q80 94 81 95L81 95L80 100Q79 100 79 100Q78 100 78 100L78 100Q76 100 75 99Q74 98 74 97L74 97Q74 96 74 93L74 93Q71 97 67 99Q63 101 60 101ZM62 95L62 95Q64 95 66 95Q68 94 69 93Q71 92 73 90Q74 89 75 87L75 87L77 76Q77 74 76 73Q75 71 74 70Q72 69 71 68Q69 67 68 67L68 67Q65 67 62 69Q59 70 57 73Q55 75 54 78Q53 81 53 84L53 84Q53 86 53 88Q54 90 55 92Q57 94 58 94Q60 95 62 95ZM96 101L96 101Q93 101 92 99Q90 98 90 95L90 95Q90 94 90 94Q90 93 90 93L90 93L100 47L106 47L97 90Q97 91 97 91Q97 91 97 92L97 92Q97 95 100 95L100 95Q101 95 102 94Q103 94 104 94L104 94L104 99Q102 100 100 100Q98 101 96 101ZM124 101L124 101Q121 101 118 99Q115 98 114 96Q112 94 111 91Q110 88 110 85L110 85Q110 80 111 76Q113 72 116 69Q119 66 124 64Q128 62 133 62L133 62Q138 62 142 64Q145 67 145 72L145 72Q145 78 140 81Q135 84 124 84L124 84Q123 84 121 83Q119 83 116 83L116 83Q116 84 116 84Q116 84 116 85L116 85Q116 87 117 89Q117 91 118 93Q120 94 121 95Q123 96 125 96L125 96Q129 96 132 94Q135 93 137 90L137 90L142 91Q141 93 139 95Q137 97 135 98Q132 99 130 100Q127 101 124 101ZM132 67L132 67Q129 67 126 68Q124 69 122 70Q120 72 119 74Q118 76 117 79L117 79Q119 79 121 79Q123 79 125 79L125 79Q129 79 132 79Q134 78 136 77Q138 76 139 75Q139 73 139 72L139 72Q139 69 137 68Q135 67 132 67ZM157 100L150 62L156 62L162 94Q164 91 166 89Q168 86 170 83L170 83L165 62L172 62L175 75Q178 68 179 62L179 62L185 62Q184 67 182 72Q180 77 177 82L177 82L180 94Q185 86 190 78Q194 70 196 62L196 62L202 62Q199 72 194 81Q189 91 182 100L182 100L175 100L172 89Q168 95 164 100L164 100L157 100ZM216 101L216 101Q213 101 210 99Q208 98 206 96Q204 94 203 91Q202 88 202 85L202 85Q202 81 204 76Q206 72 209 69Q211 66 215 64Q219 62 223 62L223 62Q227 62 230 64Q233 66 234 70L234 70L236 62L242 62L236 92Q236 93 236 93Q236 93 236 93L236 93Q236 94 237 95L237 95L236 100Q236 100 235 100Q234 100 234 100L234 100Q232 100 231 99Q230 98 230 97L230 97Q230 96 230 93L230 93Q228 97 224 99Q220 101 216 101ZM218 95L218 95Q220 95 222 95Q224 94 225 93Q227 92 229 90Q230 89 231 87L231 87L233 76Q233 74 232 73Q231 71 230 70Q229 69 227 68Q226 67 224 67L224 67Q221 67 218 69Q215 70 213 73Q211 75 210 78Q209 81 209 84L209 84Q209 86 210 88Q210 90 212 92Q213 94 215 94Q216 95 218 95ZM243 116L242 111Q244 111 246 110Q247 110 249 109Q250 108 251 107Q252 106 253 104L253 104L255 101L248 62L255 62L260 94L262 90Q265 85 267 82Q269 78 271 75Q272 71 273 69Q274 66 275 62L275 62L282 62Q281 66 279 69Q278 72 277 75Q275 79 273 83Q270 87 267 93L267 93L261 102Q258 106 256 109Q254 111 252 113Q250 115 248 115Q245 116 243 116L243 116ZM297 100L305 62L311 62L309 70Q312 66 316 64Q320 62 324 62L324 62Q329 62 331 64Q333 67 333 71L333 71Q336 66 340 64Q344 62 348 62L348 62Q353 62 355 64Q357 67 357 71L357 71Q357 74 356 78L356 78L351 100L345 100L349 79Q350 76 350 74L350 74Q350 67 345 67L345 67Q343 67 341 68Q339 69 338 70Q336 72 335 73Q333 75 332 77L332 77L327 100L321 100L326 79Q326 76 326 74L326 74Q326 67 321 67L321 67Q317 67 314 70Q311 73 308 77L308 77L304 100L297 100ZM377 101L377 101Q373 101 371 99Q368 98 366 96Q364 94 363 91Q362 88 362 85L362 85Q362 80 364 76Q366 72 369 69Q372 66 376 64Q380 62 385 62L385 62Q391 62 394 64Q397 67 397 72L397 72Q397 78 392 81Q387 84 377 84L377 84Q375 84 373 83Q371 83 369 83L369 83Q368 84 368 84Q368 84 368 85L368 85Q368 87 369 89Q370 91 371 93Q372 94 374 95Q375 96 378 96L378 96Q381 96 384 94Q388 93 389 90L389 90L394 91Q393 93 391 95Q389 97 387 98Q385 99 382 100Q380 101 377 101ZM384 67L384 67Q381 67 379 68Q376 69 375 70Q373 72 371 74Q370 76 369 79L369 79Q372 79 374 79Q375 79 377 79L377 79Q381 79 384 79Q387 78 388 77Q390 76 391 75Q392 73 392 72L392 72Q392 69 390 68Q388 67 384 67ZM414 101L414 101Q411 101 409 99Q406 98 404 96Q403 94 402 91Q401 88 401 85L401 85Q401 81 403 76Q404 72 407 69Q410 66 414 64Q418 62 422 62L422 62Q426 62 429 64Q432 66 433 70L433 70L438 47L444 47L435 92Q434 93 434 93Q434 93 434 93L434 93Q434 94 436 95L436 95L435 100Q434 100 433 100Q433 100 432 100L432 100Q430 100 429 99Q428 98 428 97L428 97Q428 96 428 95Q428 95 429 93L429 93Q426 97 422 99Q418 101 414 101ZM417 95L417 95Q419 95 420 95Q422 94 424 93Q426 92 427 90Q429 89 429 87L429 87L432 76Q431 74 430 73Q430 71 428 70Q427 69 426 68Q424 67 422 67L422 67Q419 67 417 69Q414 70 412 73Q410 75 409 78Q408 81 408 84L408 84Q408 86 408 88Q409 90 410 92Q411 94 413 94Q415 95 417 95ZM443 100L451 62L458 62L450 100L443 100ZM453 55L454 47L461 47L459 55L453 55ZM470 101L470 101Q462 101 462 91L462 91Q462 89 462 85L462 85L467 62L473 62L469 84Q468 87 468 89L468 89Q468 95 474 95L474 95Q477 95 481 93Q485 90 487 86L487 86L492 62L499 62L492 92Q492 93 492 93Q492 93 492 93L492 93Q492 94 494 95L494 95L493 100Q492 100 491 100Q491 100 490 100L490 100Q488 100 487 99Q486 99 486 97L486 97Q486 96 486 95Q486 94 487 92L487 92Q484 96 479 98Q475 101 470 101ZM501 100L509 62L515 62L513 70Q516 66 520 64Q524 62 528 62L528 62Q532 62 535 64Q537 67 537 71L537 71Q540 66 544 64Q548 62 552 62L552 62Q557 62 559 64Q561 67 561 71L561 71Q561 74 560 78L560 78L555 100L549 100L553 79Q554 76 554 74L554 74Q554 67 549 67L549 67Q547 67 545 68Q543 69 542 70Q540 72 538 73Q537 75 536 77L536 77L531 100L525 100L529 79Q530 76 530 74L530 74Q530 67 525 67L525 67Q521 67 518 70Q514 73 512 77L512 77L507 100L501 100ZM582 100L590 62L597 62L589 100L582 100ZM592 55L594 47L600 47L598 55L592 55ZM609 101L609 101Q606 101 604 99Q602 98 602 95L602 95Q602 94 602 93L602 93L607 67L602 67L604 62L608 62L611 50L617 50L615 62L623 62L622 67L614 67L609 91Q609 91 609 92L609 92Q609 93 610 94Q610 95 612 95L612 95Q614 95 615 94Q617 93 617 93L617 93L618 98Q617 99 614 100Q611 101 609 101ZM637 101L637 101Q634 101 632 99Q629 98 627 96Q626 94 625 91Q624 88 624 85L624 85Q624 81 626 76Q627 72 630 69Q633 66 637 64Q641 62 645 62L645 62Q649 62 652 64Q655 66 656 70L656 70L658 62L664 62L658 92Q657 93 657 93Q657 93 657 93L657 93Q657 94 659 95L659 95L658 100Q657 100 656 100Q656 100 655 100L655 100Q653 100 652 99Q651 98 651 97L651 97Q651 96 652 93L652 93Q649 97 645 99Q641 101 637 101ZM640 95L640 95Q642 95 643 95Q645 94 647 93Q649 92 650 90Q652 89 652 87L652 87L655 76Q654 74 653 73Q653 71 651 70Q650 69 649 68Q647 67 645 67L645 67Q642 67 640 69Q637 70 635 73Q633 75 632 78Q631 81 631 84L631 84Q631 86 631 88Q632 90 633 92Q634 94 636 94Q638 95 640 95ZM674 101L674 101Q671 101 669 99Q668 98 668 95L668 95Q668 94 668 94Q668 93 668 93L668 93L678 47L684 47L675 90Q675 91 675 91Q675 91 675 92L675 92Q675 95 678 95L678 95Q679 95 680 94Q681 94 682 94L682 94L682 99Q680 100 678 100Q676 101 674 101ZM686 100L694 62L701 62L693 100L686 100ZM696 55L698 47L704 47L702 55L696 55ZM718 101L718 101Q715 101 712 99Q710 98 708 96Q706 94 705 91Q704 88 704 85L704 85Q704 80 706 76Q707 72 711 69Q714 66 718 64Q722 62 727 62L727 62Q732 62 735 64Q739 67 740 71L740 71L733 73Q733 70 730 69Q728 67 725 67L725 67Q723 67 720 69Q717 70 715 72Q713 74 712 78Q710 81 710 84L710 84Q710 86 711 89Q712 91 713 92Q714 94 716 94Q717 95 719 95L719 95Q721 95 723 95Q724 94 726 94Q727 93 728 92Q729 91 730 89L730 89L736 91Q735 93 733 95Q731 97 729 98Q726 99 724 100Q721 101 718 101Z"/></svg>