<svg xmlns="http://www.w3.org/2000/svg" viewBox="6.120000000000001 47.43999999999999 570.9600000000002 68.76000000000002"><path d="M12.60 100L6.12 100L6.12 48.88L28.01 48.88Q31.39 48.88 34.24 50.28Q37.08 51.69 39.13 54.03Q41.18 56.37 42.34 59.28Q43.49 62.20 43.49 65.22L43.49 65.22Q43.49 67.89 42.73 70.37Q41.98 72.86 40.57 74.87Q39.17 76.89 37.19 78.33Q35.21 79.77 32.76 80.42L32.76 80.42L45.14 100L37.80 100L26.14 81.64L12.60 81.64L12.60 100ZM12.60 54.64L12.60 75.88L28.08 75.88Q30.10 75.88 31.72 75.02Q33.34 74.15 34.49 72.68Q35.64 71.20 36.29 69.26Q36.94 67.31 36.94 65.22L36.94 65.22Q36.94 63.06 36.18 61.16Q35.42 59.25 34.16 57.77Q32.90 56.30 31.21 55.47Q29.52 54.64 27.65 54.64L27.65 54.64L12.60 54.64ZM61.49 100.72L61.49 100.72Q58.82 100.72 56.52 99.82Q54.22 98.92 52.52 97.34Q50.83 95.75 49.86 93.63Q48.89 91.50 48.89 88.98L48.89 88.98Q48.89 86.39 50.04 84.27Q51.19 82.14 53.32 80.63Q55.44 79.12 58.36 78.26Q61.27 77.39 64.73 77.39L64.73 77.39Q67.46 77.39 70.27 77.90Q73.08 78.40 75.24 79.26L75.24 79.26L75.24 76.24Q75.24 71.63 72.65 69.00Q70.06 66.38 65.30 66.38L65.30 66.38Q59.62 66.38 53.35 70.77L53.35 70.77L51.26 66.66Q58.54 61.77 65.88 61.77L65.88 61.77Q73.30 61.77 77.44 65.73Q81.58 69.69 81.58 76.89L81.58 76.89L81.58 92.22Q81.58 94.46 83.59 94.53L83.59 94.53L83.59 100Q82.58 100.14 81.94 100.22Q81.29 100.29 80.57 100.29L80.57 100.29Q78.70 100.29 77.58 99.17Q76.46 98.06 76.25 96.47L76.25 96.47L76.10 93.81Q73.58 97.19 69.73 98.96Q65.88 100.72 61.49 100.72ZM63.14 95.97L63.14 95.97Q66.53 95.97 69.44 94.71Q72.36 93.45 73.87 91.36L73.87 91.36Q75.24 89.99 75.24 88.55L75.24 88.55L75.24 83.01Q70.63 81.21 65.66 81.21L65.66 81.21Q60.91 81.21 57.92 83.22Q54.94 85.24 54.94 88.48L54.94 88.48Q54.94 90.06 55.55 91.43Q56.16 92.80 57.28 93.81Q58.39 94.82 59.90 95.39Q61.42 95.97 63.14 95.97ZM91.87 92.58L91.87 47.44L98.21 47.44L98.21 90.28Q98.21 92.37 99.32 93.56Q100.44 94.74 102.46 94.74L102.46 94.74Q103.25 94.74 104.33 94.49Q105.41 94.24 106.34 93.88L106.34 93.88L107.35 98.99Q105.77 99.64 103.61 100.07Q101.45 100.50 99.79 100.50L99.79 100.50Q96.12 100.50 94.00 98.42Q91.87 96.33 91.87 92.58L91.87 92.58ZM128.95 100.72L128.95 100.72Q124.70 100.72 121.18 99.17Q117.65 97.62 115.13 94.96Q112.61 92.30 111.20 88.73Q109.80 85.17 109.80 81.21L109.80 81.21Q109.80 77.25 111.20 73.72Q112.61 70.19 115.16 67.53Q117.72 64.86 121.25 63.32Q124.78 61.77 129.02 61.77L129.02 61.77Q133.27 61.77 136.76 63.35Q140.26 64.94 142.70 67.56Q145.15 70.19 146.48 73.68Q147.82 77.18 147.82 80.92L147.82 80.92Q147.82 81.71 147.78 82.36Q147.74 83.01 147.67 83.37L147.67 83.37L116.50 83.37Q116.71 86.18 117.79 88.48Q118.87 90.78 120.60 92.44Q122.33 94.10 124.52 95.03Q126.72 95.97 129.17 95.97L129.17 95.97Q130.90 95.97 132.55 95.50Q134.21 95.03 135.65 94.24Q137.09 93.45 138.20 92.30Q139.32 91.14 139.90 89.70L139.90 89.70L145.37 91.22Q144.43 93.30 142.81 95.03Q141.19 96.76 139.07 98.02Q136.94 99.28 134.35 100Q131.76 100.72 128.95 100.72ZM116.35 78.69L141.84 78.69Q141.62 76.02 140.51 73.76Q139.39 71.49 137.70 69.90Q136.01 68.32 133.78 67.42Q131.54 66.52 129.02 66.52L129.02 66.52Q126.50 66.52 124.27 67.42Q122.04 68.32 120.35 69.94Q118.66 71.56 117.61 73.79Q116.57 76.02 116.35 78.69L116.35 78.69ZM188.06 93.74L200.95 62.42L207.07 62.42L191.09 100L185.83 100L178.27 81.64L170.78 100L165.53 100L149.54 62.42L155.59 62.42L168.55 93.74L174.89 78.11L168.41 62.49L173.66 62.49L178.27 74.51L182.88 62.49L188.14 62.49L181.73 78.11L188.06 93.74ZM221.69 100.72L221.69 100.72Q219.02 100.72 216.72 99.82Q214.42 98.92 212.72 97.34Q211.03 95.75 210.06 93.63Q209.09 91.50 209.09 88.98L209.09 88.98Q209.09 86.39 210.24 84.27Q211.39 82.14 213.52 80.63Q215.64 79.12 218.56 78.26Q221.47 77.39 224.93 77.39L224.93 77.39Q227.66 77.39 230.47 77.90Q233.28 78.40 235.44 79.26L235.44 79.26L235.44 76.24Q235.44 71.63 232.85 69.00Q230.26 66.38 225.50 66.38L225.50 66.38Q219.82 66.38 213.55 70.77L213.55 70.77L211.46 66.66Q218.74 61.77 226.08 61.77L226.08 61.77Q233.50 61.77 237.64 65.73Q241.78 69.69 241.78 76.89L241.78 76.89L241.78 92.22Q241.78 94.46 243.79 94.53L243.79 94.53L243.79 100Q242.78 100.14 242.14 100.22Q241.49 100.29 240.77 100.29L240.77 100.29Q238.90 100.29 237.78 99.17Q236.66 98.06 236.45 96.47L236.45 96.47L236.30 93.81Q233.78 97.19 229.93 98.96Q226.08 100.72 221.69 100.72ZM223.34 95.97L223.34 95.97Q226.73 95.97 229.64 94.71Q232.56 93.45 234.07 91.36L234.07 91.36Q235.44 89.99 235.44 88.55L235.44 88.55L235.44 83.01Q230.83 81.21 225.86 81.21L225.86 81.21Q221.11 81.21 218.12 83.22Q215.14 85.24 215.14 88.48L215.14 88.48Q215.14 90.06 215.75 91.43Q216.36 92.80 217.48 93.81Q218.59 94.82 220.10 95.39Q221.62 95.97 223.34 95.97ZM252.43 115.84L252.43 110.22Q253.37 110.37 254.30 110.44Q255.24 110.51 255.74 110.51L255.74 110.51Q256.61 110.51 257.29 110.12Q257.98 109.72 258.66 108.57Q259.34 107.42 260.21 105.36Q261.07 103.31 262.37 100L262.37 100L246.46 62.42L253.01 62.42L265.82 94.31L277.49 62.42L283.54 62.42L265.25 109.86Q264.24 112.38 261.90 114.29Q259.56 116.20 255.46 116.20L255.46 116.20Q254.81 116.20 254.12 116.13Q253.44 116.06 252.43 115.84L252.43 115.84ZM362.88 77.54L362.88 100L356.54 100L356.54 78.98Q356.54 73.07 354.64 70.26Q352.73 67.46 348.98 67.46L348.98 67.46Q345.10 67.46 342.04 70.23Q338.98 73 337.68 77.39L337.68 77.39L337.68 100L331.34 100L331.34 78.98Q331.34 72.93 329.47 70.19Q327.60 67.46 323.86 67.46L323.86 67.46Q320.04 67.46 316.94 70.16Q313.85 72.86 312.55 77.32L312.55 77.32L312.55 100L306.22 100L306.22 62.42L311.98 62.42L311.98 70.48Q314.28 66.30 317.95 64.04Q321.62 61.77 326.23 61.77L326.23 61.77Q330.98 61.77 333.76 64.32Q336.53 66.88 337.18 70.91L337.18 70.91Q342.22 61.77 351.50 61.77L351.50 61.77Q354.74 61.77 356.94 62.96Q359.14 64.14 360.43 66.27Q361.73 68.39 362.30 71.27Q362.88 74.15 362.88 77.54L362.88 77.54ZM389.38 100.72L389.38 100.72Q385.13 100.72 381.60 99.17Q378.07 97.62 375.55 94.96Q373.03 92.30 371.63 88.73Q370.22 85.17 370.22 81.21L370.22 81.21Q370.22 77.25 371.63 73.72Q373.03 70.19 375.59 67.53Q378.14 64.86 381.67 63.32Q385.20 61.77 389.45 61.77L389.45 61.77Q393.70 61.77 397.19 63.35Q400.68 64.94 403.13 67.56Q405.58 70.19 406.91 73.68Q408.24 77.18 408.24 80.92L408.24 80.92Q408.24 81.71 408.20 82.36Q408.17 83.01 408.10 83.37L408.10 83.37L376.92 83.37Q377.14 86.18 378.22 88.48Q379.30 90.78 381.02 92.44Q382.75 94.10 384.95 95.03Q387.14 95.97 389.59 95.97L389.59 95.97Q391.32 95.97 392.98 95.50Q394.63 95.03 396.07 94.24Q397.51 93.45 398.63 92.30Q399.74 91.14 400.32 89.70L400.32 89.70L405.79 91.22Q404.86 93.30 403.24 95.03Q401.62 96.76 399.49 98.02Q397.37 99.28 394.78 100Q392.18 100.72 389.38 100.72ZM376.78 78.69L402.26 78.69Q402.05 76.02 400.93 73.76Q399.82 71.49 398.12 69.90Q396.43 68.32 394.20 67.42Q391.97 66.52 389.45 66.52L389.45 66.52Q386.93 66.52 384.70 67.42Q382.46 68.32 380.77 69.94Q379.08 71.56 378.04 73.79Q376.99 76.02 376.78 78.69L376.78 78.69ZM430.78 100.72L430.78 100.72Q426.89 100.72 423.58 99.14Q420.26 97.55 417.89 94.89Q415.51 92.22 414.18 88.70Q412.85 85.17 412.85 81.28L412.85 81.28Q412.85 77.32 414.11 73.76Q415.37 70.19 417.64 67.53Q419.90 64.86 423.04 63.32Q426.17 61.77 429.91 61.77L429.91 61.77Q434.45 61.77 438.01 64.14Q441.58 66.52 443.66 69.90L443.66 69.90L443.66 47.44L450.00 47.44L450.00 92.22Q450.00 94.46 452.02 94.53L452.02 94.53L452.02 100Q451.01 100.14 450.40 100.22Q449.78 100.29 449.21 100.29L449.21 100.29Q447.34 100.29 445.93 99.03Q444.53 97.77 444.53 96.11L444.53 96.11L444.53 92.94Q442.30 96.62 438.59 98.67Q434.88 100.72 430.78 100.72ZM432.29 95.25L432.29 95.25Q434.02 95.25 435.85 94.60Q437.69 93.95 439.31 92.80Q440.93 91.65 442.12 90.10Q443.30 88.55 443.66 86.82L443.66 86.82L443.66 76.02Q443.02 74.22 441.72 72.60Q440.42 70.98 438.80 69.80Q437.18 68.61 435.35 67.92Q433.51 67.24 431.71 67.24L431.71 67.24Q428.90 67.24 426.64 68.43Q424.37 69.62 422.75 71.60Q421.13 73.58 420.26 76.13Q419.40 78.69 419.40 81.35L419.40 81.35Q419.40 84.16 420.41 86.72Q421.42 89.27 423.14 91.14Q424.87 93.02 427.21 94.13Q429.55 95.25 432.29 95.25ZM466.92 100L460.58 100L460.58 62.42L466.92 62.42L466.92 100ZM466.92 55.36L460.58 55.36L460.58 47.44L466.92 47.44L466.92 55.36ZM488.74 100.72L488.74 100.72Q482.83 100.72 479.81 96.76Q476.78 92.80 476.78 84.95L476.78 84.95L476.78 62.42L483.12 62.42L483.12 83.73Q483.12 95.25 491.11 95.25L491.11 95.25Q495.00 95.25 498.42 92.76Q501.84 90.28 503.50 85.96L503.50 85.96L503.50 62.42L509.83 62.42L509.83 92.22Q509.83 94.46 511.85 94.53L511.85 94.53L511.85 100Q510.77 100.14 510.16 100.18Q509.54 100.22 508.97 100.22L508.97 100.22Q507.10 100.22 505.84 99.10Q504.58 97.98 504.50 96.33L504.50 96.33L504.36 91.94Q501.84 96.18 497.74 98.45Q493.63 100.72 488.74 100.72ZM577.08 77.54L577.08 100L570.74 100L570.74 78.98Q570.74 73.07 568.84 70.26Q566.93 67.46 563.18 67.46L563.18 67.46Q559.30 67.46 556.24 70.23Q553.18 73 551.88 77.39L551.88 77.39L551.88 100L545.54 100L545.54 78.98Q545.54 72.93 543.67 70.19Q541.80 67.46 538.06 67.46L538.06 67.46Q534.24 67.46 531.14 70.16Q528.05 72.86 526.75 77.32L526.75 77.32L526.75 100L520.42 100L520.42 62.42L526.18 62.42L526.18 70.48Q528.48 66.30 532.15 64.04Q535.82 61.77 540.43 61.77L540.43 61.77Q545.18 61.77 547.96 64.32Q550.73 66.88 551.38 70.91L551.38 70.91Q556.42 61.77 565.70 61.77L565.70 61.77Q568.94 61.77 571.14 62.96Q573.34 64.14 574.63 66.27Q575.93 68.39 576.50 71.27Q577.08 74.15 577.08 77.54L577.08 77.54Z"/></svg>