<svg xmlns="http://www.w3.org/2000/svg" viewBox="1.7280000000000002 47.43999999999999 442.7280000000001 68.68800000000002"><path d="M7 100L2 100L13 49L33 49Q36 49 38 50Q40 51 42 53Q43 55 44 57Q45 60 45 62L45 62Q45 65 43 68Q42 71 40 74Q38 76 36 78Q33 80 30 80L30 80L38 100L32 100L25 81L11 81L7 100ZM12 77L27 77Q30 77 32 75Q34 74 36 72Q38 70 38 68Q39 65 39 63L39 63Q39 61 39 59Q38 57 37 56Q36 55 35 54Q34 53 32 53L32 53L17 53L12 77ZM60 101L60 101Q56 101 54 99Q51 98 50 96Q48 94 47 91Q46 88 46 85L46 85Q46 81 48 76Q50 72 53 69Q55 66 59 64Q63 62 67 62L67 62Q72 62 75 64Q77 67 79 70L79 70L80 62L85 62L79 94Q79 94 79 95L79 95Q79 96 80 96L80 96L79 100Q78 100 78 100Q77 100 77 100L77 100Q75 100 75 99Q74 99 74 97L74 97Q74 97 74 96Q74 95 75 93L75 93Q72 96 68 99Q64 101 60 101ZM62 96L62 96Q63 96 65 96Q68 95 69 94Q71 92 73 91Q74 89 75 87L75 87L78 76Q77 74 76 72Q75 70 74 69Q73 68 71 67Q69 66 67 66L67 66Q64 66 61 68Q58 69 56 72Q54 75 53 78Q51 81 51 84L51 84Q51 87 52 89Q53 91 54 93Q56 94 57 95Q59 96 62 96ZM95 100L95 100Q93 100 91 99Q89 98 89 95L89 95Q89 95 90 94Q90 94 90 93L90 93L99 47L104 47L95 92Q95 92 95 92Q95 92 95 93L95 93Q95 96 98 96L98 96Q99 96 100 96Q101 96 102 95L102 95L102 99Q101 100 99 100Q97 100 95 100ZM122 101L122 101Q119 101 116 99Q114 98 112 96Q110 94 109 91Q108 88 108 85L108 85Q108 80 110 76Q111 72 114 69Q117 66 122 64Q126 62 131 62L131 62Q133 62 135 62Q137 63 139 64Q141 66 142 68Q142 69 142 72L142 72Q142 77 138 80Q133 83 122 83L122 83Q120 83 118 83Q116 83 113 83L113 83Q113 83 113 84Q113 84 113 85L113 85Q113 87 114 89Q114 92 115 93Q117 95 119 96Q121 97 123 97L123 97Q125 97 127 96Q129 96 130 95Q132 94 133 93Q135 92 136 90L136 90L140 91Q138 93 136 95Q134 97 132 98Q130 99 127 100Q125 101 122 101ZM130 66L130 66Q127 66 124 67Q121 68 119 70Q117 72 116 74Q114 77 114 79L114 79Q116 79 118 79Q121 80 123 80L123 80Q127 80 130 79Q133 78 135 77Q136 76 137 75Q138 74 138 72L138 72Q138 69 136 67Q133 66 130 66ZM155 100L148 62L153 62L159 95Q162 92 164 88Q166 85 169 81L169 81L164 62L169 62L172 75Q174 72 175 69Q176 66 177 62L177 62L182 62Q180 67 178 72Q176 76 173 81L173 81L177 95Q183 87 187 79Q192 71 194 62L194 62L199 62Q193 81 178 100L178 100L173 100L170 87Q168 90 165 93Q163 97 160 100L160 100L155 100ZM213 101L213 101Q210 101 207 99Q205 98 203 96Q201 94 200 91Q200 88 200 85L200 85Q200 81 201 76Q203 72 206 69Q209 66 212 64Q216 62 220 62L220 62Q225 62 228 64Q231 67 232 70L232 70L234 62L239 62L232 94Q232 94 232 95L232 95Q232 96 233 96L233 96L232 100Q232 100 231 100Q231 100 230 100L230 100Q229 100 228 99Q227 99 227 97L227 97Q227 97 227 96Q227 95 228 93L228 93Q225 96 221 99Q217 101 213 101ZM215 96L215 96Q217 96 219 96Q221 95 223 94Q225 92 226 91Q228 89 228 87L228 87L231 76Q231 74 230 72Q229 70 227 69Q226 68 224 67Q223 66 221 66L221 66Q217 66 215 68Q212 69 209 72Q207 75 206 78Q205 81 205 84L205 84Q205 87 205 89Q206 91 207 93Q209 94 211 95Q213 96 215 96ZM239 116L238 112Q240 112 242 111Q244 111 245 110Q246 109 247 108Q248 106 250 104L250 104L252 101L244 62L250 62L256 95L259 91Q262 86 264 82Q266 78 268 75Q269 72 270 69Q271 66 272 62L272 62L277 62Q276 66 275 69Q274 72 272 75Q270 79 268 83Q266 87 262 93L262 93L256 102Q254 106 252 108Q250 111 248 113Q246 114 244 115Q241 116 239 116L239 116ZM293 100L301 62L306 62L298 100L293 100ZM303 55L304 47L309 47L308 55L303 55ZM318 100L318 100Q315 100 313 99Q311 98 311 95L311 95Q311 94 312 93L312 93L317 66L312 66L313 62L318 62L321 50L326 50L323 62L331 62L330 66L322 66L317 91Q317 92 317 92Q317 92 317 93L317 93Q317 94 318 95Q319 96 320 96L320 96Q322 96 324 95Q325 95 326 94L326 94L326 98Q325 99 323 100Q321 100 318 100ZM345 101L345 101Q342 101 340 99Q337 98 335 96Q334 94 333 91Q332 88 332 85L332 85Q332 81 334 76Q335 72 338 69Q341 66 345 64Q349 62 353 62L353 62Q357 62 360 64Q363 67 364 70L364 70L366 62L371 62L364 94Q364 94 364 95L364 95Q364 96 366 96L366 96L365 100Q364 100 364 100Q363 100 363 100L363 100Q361 100 360 99Q359 99 359 97L359 97Q359 97 360 96Q360 95 360 93L360 93Q357 96 353 99Q349 101 345 101ZM347 96L347 96Q349 96 351 96Q353 95 355 94Q357 92 359 91Q360 89 361 87L361 87L363 76Q363 74 362 72Q361 70 360 69Q358 68 357 67Q355 66 353 66L353 66Q350 66 347 68Q344 69 342 72Q340 75 338 78Q337 81 337 84L337 84Q337 87 338 89Q338 91 340 93Q341 94 343 95Q345 96 347 96ZM381 100L381 100Q378 100 377 99Q375 98 375 95L375 95Q375 95 375 94Q375 94 375 93L375 93L385 47L390 47L381 92Q381 92 381 92Q381 92 381 93L381 93Q381 96 384 96L384 96Q385 96 386 96Q387 96 388 95L388 95L388 99Q386 100 384 100Q382 100 381 100ZM393 100L401 62L406 62L398 100L393 100ZM402 55L404 47L409 47L407 55L402 55ZM424 101L424 101Q420 101 418 99Q415 98 413 96Q411 94 410 91Q409 88 409 85L409 85Q409 80 411 76Q413 72 416 69Q419 66 423 64Q427 62 432 62L432 62Q437 62 440 64Q443 67 444 71L444 71L439 72Q439 69 436 68Q434 66 431 66L431 66Q428 66 425 68Q422 69 419 71Q417 74 416 77Q414 81 414 84L414 84Q414 87 415 89Q416 91 417 93Q418 95 420 95Q422 96 424 96L424 96Q426 96 428 96Q430 95 431 94Q433 94 434 92Q435 91 436 90L436 90L440 91Q439 93 437 95Q436 97 433 98Q431 99 429 100Q426 101 424 101Z"/></svg>