<svg xmlns="http://www.w3.org/2000/svg" viewBox="2.16 47.43999999999999 749.88 68.68800000000002"><path d="M5 100L2 100L13 49L33 49Q36 49 38 50Q40 51 41 53Q42 55 43 57Q44 59 44 62L44 62Q44 65 43 68Q42 71 39 74Q37 76 34 78Q32 80 29 80L29 80L36 100L33 100L26 80L9 80L5 100ZM9 78L27 78Q30 78 33 77Q35 75 37 73Q39 71 40 68Q41 65 41 62L41 62Q41 60 41 58Q40 56 39 54Q38 53 36 52Q34 51 32 51L32 51L15 51L9 78ZM59 101L59 101Q56 101 54 99Q51 98 49 96Q48 94 47 91Q46 88 46 85L46 85Q46 81 48 76Q49 72 52 69Q55 66 59 64Q63 62 67 62L67 62Q69 62 71 63Q73 63 75 65Q76 66 77 68Q78 69 79 71L79 71L81 63L83 63L76 96Q76 96 76 97L76 97Q76 98 77 98L77 98L77 100Q77 100 76 100Q76 100 76 100L76 100Q75 100 74 99Q74 99 74 98L74 98Q74 98 74 97Q74 97 74 97Q74 96 74 95Q74 94 75 92L75 92Q72 96 68 98Q63 101 59 101ZM60 98L60 98Q62 98 65 98Q67 97 69 95Q71 94 73 92Q75 90 76 88L76 88L78 75Q78 73 77 71Q76 69 74 67Q73 66 71 65Q69 64 66 64L66 64Q63 64 60 66Q56 68 54 71Q51 74 50 77Q48 81 48 85L48 85Q48 87 49 90Q50 92 52 94Q53 96 55 97Q57 98 60 98ZM93 100L93 100Q91 100 90 99Q88 98 88 96L88 96Q88 95 88 95Q88 95 88 94L88 94L98 47L101 47L91 94Q91 94 91 94Q91 94 91 95L91 95Q91 96 92 97Q93 98 95 98L95 98Q95 98 96 98Q97 98 98 97L98 97L99 99Q97 100 96 100Q94 100 93 100ZM119 101L119 101Q115 101 113 99Q110 98 108 96Q106 94 106 91Q105 88 105 85L105 85Q105 81 106 76Q108 72 111 69Q114 66 118 64Q122 62 127 62L127 62Q129 62 131 63Q133 63 134 65Q136 66 137 68Q138 69 138 72L138 72Q138 82 119 82L119 82Q116 82 113 82Q111 82 107 82L107 82Q107 84 107 85L107 85Q107 88 108 90Q109 93 110 95Q112 96 114 98Q116 99 119 99L119 99Q121 99 123 98Q125 97 127 96Q129 95 130 94Q132 92 133 91L133 91L135 91Q134 93 132 95Q130 97 128 98Q126 99 123 100Q121 101 119 101ZM126 64L126 64Q123 64 120 65Q117 67 114 69Q112 71 110 74Q109 77 108 80L108 80Q111 80 114 80Q116 80 119 80L119 80Q124 80 127 80Q130 79 132 78Q134 77 135 75Q136 74 136 72L136 72Q136 70 135 68Q134 67 133 66Q131 65 130 65Q128 64 126 64ZM151 100L144 63L146 63L153 97Q156 93 159 88Q163 84 165 79L165 79L162 63L164 63L167 76Q168 72 170 69Q171 66 172 63L172 63L174 63Q172 71 168 79L168 79L171 97Q175 93 178 89Q181 84 183 80Q185 75 187 71Q189 67 190 63L190 63L193 63Q190 72 185 81Q180 91 172 100L172 100L169 100L166 82Q163 87 160 91Q157 96 153 100L153 100L151 100ZM207 101L207 101Q204 101 202 99Q199 98 197 96Q196 94 195 91Q194 88 194 85L194 85Q194 81 196 76Q197 72 200 69Q203 66 207 64Q211 62 215 62L215 62Q217 62 219 63Q221 63 223 65Q224 66 225 68Q227 69 227 71L227 71L229 63L231 63L224 96Q224 96 224 97L224 97Q224 98 225 98L225 98L225 100Q225 100 224 100Q224 100 224 100L224 100Q223 100 222 99Q222 99 222 98L222 98Q222 98 222 97Q222 97 222 97Q222 96 222 95Q222 94 223 92L223 92Q220 96 216 98Q211 101 207 101ZM208 98L208 98Q210 98 213 98Q215 97 217 95Q220 94 221 92Q223 90 224 88L224 88L226 75Q226 73 225 71Q224 69 222 67Q221 66 219 65Q217 64 214 64L214 64Q211 64 208 66Q204 68 202 71Q199 74 198 77Q196 81 196 85L196 85Q196 87 197 90Q198 92 200 94Q201 96 203 97Q205 98 208 98ZM232 116L231 114Q233 114 235 113Q237 112 238 111Q239 110 240 108Q242 107 243 104L243 104L246 100L238 63L240 63L248 97L252 91Q255 86 257 82Q259 78 261 75Q263 72 264 69Q265 66 266 63L266 63L268 63Q267 66 266 69Q265 72 263 75Q262 79 259 83Q257 87 253 93L253 93L247 102Q245 106 243 109Q241 111 239 113Q238 114 236 115Q234 116 232 116L232 116ZM301 101L301 101Q297 101 295 99Q292 98 290 96Q289 94 288 91Q287 88 287 85L287 85Q287 81 288 76Q290 72 293 69Q296 66 300 64Q304 62 309 62L309 62Q311 62 313 63Q315 63 316 65Q318 66 319 68Q320 69 320 72L320 72Q320 82 301 82L301 82Q298 82 295 82Q293 82 289 82L289 82Q289 84 289 85L289 85Q289 88 290 90Q291 93 292 95Q294 96 296 98Q298 99 301 99L301 99Q303 99 305 98Q307 97 309 96Q311 95 312 94Q314 92 315 91L315 91L317 91Q316 93 314 95Q312 97 310 98Q308 99 305 100Q303 101 301 101ZM308 64L308 64Q305 64 302 65Q299 67 296 69Q294 71 292 74Q291 77 290 80L290 80Q293 80 296 80Q298 80 301 80L301 80Q306 80 309 80Q312 79 314 78Q316 77 317 75Q318 74 318 72L318 72Q318 70 317 68Q316 67 315 66Q313 65 312 65Q310 64 308 64ZM319 100L337 81L327 63L329 63L338 79L338 80L355 63L358 63L340 81L350 100L347 100L338 84L338 83L322 100L319 100ZM364 100L364 100Q362 100 360 99Q359 98 359 96L359 96Q359 95 359 95Q359 95 359 94L359 94L365 65L360 65L361 63L366 63L368 50L371 50L368 63L377 63L376 65L368 65L362 91Q362 93 362 93Q361 94 361 95L361 95Q361 96 363 97Q364 98 365 98L365 98Q366 98 367 98Q368 98 369 97Q370 97 371 97Q371 96 371 96L371 96L372 98Q372 98 371 99Q370 99 369 99Q368 100 367 100Q366 100 364 100ZM378 100L385 63L388 63L386 72Q387 70 389 68Q391 66 393 65Q395 64 397 63Q399 63 401 63L401 63Q401 63 402 63L402 63L401 65Q396 65 392 68Q388 71 385 76L385 76L380 100L378 100ZM414 101L414 101Q410 101 408 99Q406 98 404 96Q402 94 401 91Q400 88 400 85L400 85Q400 81 402 76Q404 72 407 69Q410 66 413 64Q417 62 421 62L421 62Q424 62 426 63Q428 63 429 65Q431 66 432 68Q433 69 434 71L434 71L435 63L438 63L431 96Q431 96 431 97L431 97Q431 98 432 98L432 98L431 100Q431 100 431 100Q430 100 430 100L430 100Q429 100 429 99Q428 99 428 98L428 98Q428 98 428 97Q428 97 428 97Q428 96 429 95Q429 94 429 92L429 92Q426 96 422 98Q418 101 414 101ZM414 98L414 98Q416 98 419 98Q421 97 424 95Q426 94 428 92Q429 90 430 88L430 88L433 75Q432 73 431 71Q430 69 429 67Q427 66 425 65Q423 64 421 64L421 64Q417 64 414 66Q411 68 408 71Q406 74 404 77Q403 81 403 85L403 85Q403 87 404 90Q404 92 406 94Q408 96 410 97Q412 98 414 98ZM466 100L466 100Q463 100 462 99Q461 98 461 96L461 96Q461 95 461 95Q461 95 461 94L461 94L471 47L473 47L464 94Q464 94 464 94Q463 94 463 95L463 95Q463 96 464 97Q465 98 467 98L467 98Q468 98 469 98Q470 98 471 97L471 97L471 99Q470 100 468 100Q467 100 466 100ZM477 100L484 63L487 63L479 100L477 100ZM486 53L488 47L490 47L489 53L486 53ZM501 116L501 116Q498 116 496 115Q493 115 492 114Q490 112 489 111Q488 109 487 107L487 107L489 106Q491 110 494 112Q497 114 502 114L502 114Q504 114 507 113Q510 112 512 111Q514 109 516 107Q517 104 518 101L518 101L520 92Q517 96 513 98Q509 101 505 101L505 101Q501 101 499 99Q497 98 495 96Q493 94 492 91Q491 88 491 85L491 85Q491 81 493 77Q495 72 498 69Q500 66 504 64Q508 62 512 62L512 62Q515 62 517 63Q519 63 520 65Q521 66 523 68Q524 69 525 71L525 71L526 63L529 63L520 101Q520 105 518 108Q516 111 513 112Q511 114 507 115Q504 116 501 116ZM506 98L506 98Q508 98 510 97Q513 96 515 95Q517 93 519 91Q520 90 521 88L521 88L524 75Q523 72 522 71Q521 69 520 67Q518 66 516 65Q514 64 512 64L512 64Q508 64 505 66Q502 68 499 71Q497 74 495 78Q494 81 494 85L494 85Q494 87 495 90Q495 92 497 94Q499 96 501 97Q503 98 506 98ZM532 100L543 47L546 47L541 72Q542 70 544 68Q546 66 548 65Q550 63 553 63Q555 62 557 62L557 62Q562 62 564 65Q566 67 566 72L566 72Q566 73 566 75Q565 77 565 79L565 79L561 100L558 100L562 79Q563 75 563 73L563 73Q563 64 556 64L556 64Q554 64 552 65Q549 66 547 68Q545 69 543 72Q541 74 540 77L540 77L535 100L532 100ZM579 100L579 100Q577 100 575 99Q573 98 573 96L573 96Q573 95 574 95Q574 95 574 94L574 94L580 65L575 65L575 63L580 63L583 50L586 50L583 63L591 63L591 65L582 65L577 91Q576 93 576 93Q576 94 576 95L576 95Q576 96 577 97Q578 98 580 98L580 98Q581 98 582 98Q583 98 584 97Q585 97 585 97Q586 96 586 96L586 96L586 98Q586 98 586 99Q585 99 584 99Q583 100 582 100Q580 100 579 100ZM610 100L618 63L621 63L613 100L610 100ZM620 53L622 47L624 47L623 53L620 53ZM632 100L632 100Q630 100 628 99Q627 98 627 96L627 96Q627 95 627 95Q627 95 627 94L627 94L633 65L628 65L628 63L633 63L636 50L639 50L636 63L644 63L644 65L635 65L630 91Q629 93 629 93Q629 94 629 95L629 95Q629 96 630 97Q631 98 633 98L633 98Q634 98 635 98Q636 98 637 97Q638 97 638 97Q639 96 639 96L639 96L639 98Q639 98 639 99Q638 99 637 99Q636 100 635 100Q633 100 632 100ZM659 101L659 101Q656 101 653 99Q651 98 649 96Q647 94 646 91Q645 88 645 85L645 85Q645 81 647 76Q649 72 652 69Q655 66 658 64Q662 62 666 62L666 62Q669 62 671 63Q673 63 674 65Q676 66 677 68Q678 69 679 71L679 71L680 63L683 63L676 96Q676 96 676 97L676 97Q676 98 677 98L677 98L676 100Q676 100 676 100Q676 100 675 100L675 100Q674 100 674 99Q673 99 673 98L673 98Q673 98 673 97Q673 97 673 97Q673 96 674 95Q674 94 674 92L674 92Q671 96 667 98Q663 101 659 101ZM659 98L659 98Q662 98 664 98Q666 97 669 95Q671 94 673 92Q674 90 675 88L675 88L678 75Q678 73 677 71Q676 69 674 67Q672 66 670 65Q668 64 666 64L666 64Q662 64 659 66Q656 68 653 71Q651 74 649 77Q648 81 648 85L648 85Q648 87 649 90Q650 92 651 94Q653 96 655 97Q657 98 659 98ZM692 100L692 100Q690 100 689 99Q688 98 688 96L688 96Q688 95 688 95Q688 95 688 94L688 94L698 47L700 47L690 94Q690 94 690 94Q690 94 690 95L690 95Q690 96 691 97Q692 98 694 98L694 98Q695 98 696 98Q697 98 698 97L698 97L698 99Q697 100 695 100Q694 100 692 100ZM703 100L711 63L714 63L706 100L703 100ZM713 53L715 47L717 47L716 53L713 53ZM732 101L732 101Q729 101 726 99Q724 98 722 96Q720 94 719 91Q718 88 718 85L718 85Q718 80 720 76Q722 72 725 69Q728 66 732 64Q736 62 740 62L740 62Q745 62 748 64Q751 67 752 70L752 70L749 71Q748 68 746 66Q743 64 739 64L739 64Q736 64 732 66Q729 68 727 70Q724 73 722 77Q721 80 721 85L721 85Q721 87 722 90Q722 92 724 94Q725 96 728 97Q730 98 732 98L732 98Q734 98 736 98Q738 97 740 96Q742 95 743 94Q745 93 746 91L746 91L748 92Q747 94 745 95Q743 97 741 98Q739 99 737 100Q734 101 732 101Z"/></svg>