<svg xmlns="http://www.w3.org/2000/svg" viewBox="0.2 -7.3 38.900000000000006 9.54"><path d="M1.10 0L0.20 0L1.71-7.10L4.61-7.10Q4.99-7.10 5.29-6.94Q5.59-6.78 5.80-6.52Q6.01-6.26 6.12-5.92Q6.23-5.58 6.23-5.22L6.23-5.22Q6.23-4.80 6.08-4.40Q5.93-3.99 5.67-3.66Q5.42-3.32 5.08-3.07Q4.73-2.82 4.33-2.72L4.33-2.72L5.38 0L4.36 0L3.38-2.55L1.64-2.55L1.10 0ZM1.81-3.35L3.82-3.35Q4.12-3.35 4.39-3.50Q4.66-3.66 4.86-3.91Q5.06-4.16 5.18-4.48Q5.30-4.79 5.30-5.12L5.30-5.12Q5.30-5.36 5.23-5.58Q5.16-5.79 5.04-5.95Q4.92-6.11 4.75-6.21Q4.59-6.30 4.39-6.30L4.39-6.30L2.44-6.30L1.81-3.35ZM8.27 0.10L8.27 0.10Q7.83 0.10 7.49-0.07Q7.14-0.25 6.90-0.55Q6.66-0.84 6.54-1.24Q6.41-1.63 6.41-2.07L6.41-2.07Q6.41-2.70 6.65-3.29Q6.89-3.87 7.29-4.32Q7.68-4.77 8.21-5.04Q8.73-5.31 9.30-5.31L9.30-5.31Q9.90-5.31 10.30-4.99Q10.69-4.66 10.86-4.18L10.86-4.18L11.09-5.22L11.97-5.22L11.09-1.08Q11.08-1.04 11.07-1.01Q11.07-0.98 11.07-0.95L11.07-0.95Q11.07-0.77 11.29-0.76L11.29-0.76L11.13 0Q11.02 0.02 10.94 0.03Q10.85 0.04 10.78 0.04L10.78 0.04Q10.50 0.04 10.36-0.09Q10.21-0.21 10.21-0.41L10.21-0.41Q10.21-0.57 10.30-0.98L10.30-0.98Q9.91-0.47 9.36-0.18Q8.81 0.10 8.27 0.10ZM8.65-0.66L8.65-0.66Q8.87-0.66 9.13-0.75Q9.38-0.84 9.63-1Q9.87-1.16 10.07-1.38Q10.27-1.59 10.37-1.83L10.37-1.83L10.68-3.33Q10.65-3.58 10.53-3.81Q10.41-4.03 10.23-4.20Q10.06-4.36 9.85-4.46Q9.63-4.55 9.40-4.55L9.40-4.55Q8.98-4.55 8.61-4.34Q8.24-4.14 7.96-3.81Q7.67-3.47 7.51-3.05Q7.34-2.63 7.34-2.21L7.34-2.21Q7.34-1.89 7.43-1.60Q7.52-1.32 7.70-1.11Q7.87-0.90 8.11-0.78Q8.35-0.66 8.65-0.66ZM13.37 0.07L13.37 0.07Q12.95 0.07 12.72-0.14Q12.50-0.34 12.50-0.71L12.50-0.71Q12.50-0.79 12.51-0.87Q12.52-0.95 12.54-1.03L12.54-1.03L13.87-7.30L14.74-7.30L13.48-1.35Q13.47-1.30 13.46-1.26Q13.46-1.21 13.46-1.16L13.46-1.16Q13.46-0.73 13.91-0.73L13.91-0.73Q14.02-0.73 14.17-0.77Q14.32-0.80 14.46-0.85L14.46-0.85L14.43-0.14Q14.20-0.05 13.90 0.01Q13.60 0.07 13.37 0.07ZM17.29 0.10L17.29 0.10Q16.80 0.10 16.42-0.07Q16.04-0.24 15.78-0.54Q15.51-0.84 15.38-1.24Q15.24-1.64 15.24-2.10L15.24-2.10Q15.24-2.73 15.48-3.31Q15.72-3.89 16.15-4.33Q16.58-4.78 17.16-5.04Q17.74-5.31 18.42-5.31L18.42-5.31Q19.19-5.31 19.67-4.96Q20.14-4.60 20.14-3.90L20.14-3.90Q20.14-3.10 19.45-2.69Q18.75-2.29 17.29-2.29L17.29-2.29Q17.05-2.29 16.76-2.30Q16.46-2.31 16.14-2.34L16.14-2.34Q16.13-2.28 16.13-2.22Q16.13-2.16 16.13-2.11L16.13-2.11Q16.13-1.80 16.21-1.52Q16.29-1.24 16.45-1.02Q16.61-0.81 16.86-0.69Q17.10-0.56 17.43-0.56L17.43-0.56Q17.89-0.56 18.33-0.80Q18.77-1.03 19.02-1.43L19.02-1.43L19.73-1.22Q19.55-0.93 19.28-0.69Q19.01-0.45 18.69-0.28Q18.37-0.10 18.02 0Q17.66 0.10 17.29 0.10ZM18.34-4.65L18.34-4.65Q17.91-4.65 17.57-4.50Q17.22-4.36 16.97-4.12Q16.71-3.88 16.54-3.58Q16.36-3.27 16.26-2.95L16.26-2.95Q16.56-2.92 16.83-2.91Q17.09-2.90 17.32-2.90L17.32-2.90Q17.89-2.90 18.28-2.98Q18.66-3.05 18.90-3.19Q19.14-3.32 19.25-3.50Q19.35-3.69 19.35-3.91L19.35-3.91Q19.35-4.29 19.08-4.47Q18.80-4.65 18.34-4.65ZM21.84 0L20.77-5.22L21.68-5.22L22.51-0.77Q22.83-1.19 23.12-1.59Q23.40-2 23.66-2.42L23.66-2.42L22.96-5.22L23.87-5.22L24.27-3.53Q24.69-4.38 24.92-5.22L24.92-5.22L25.76-5.22Q25.56-4.53 25.26-3.83Q24.95-3.14 24.53-2.45L24.53-2.45L24.94-0.77Q25.75-1.89 26.34-3.00Q26.92-4.10 27.21-5.22L27.21-5.22L28.05-5.22Q27.69-3.91 26.97-2.61Q26.24-1.31 25.22 0L25.22 0L24.27 0L23.90-1.47Q23.39-0.73 22.79 0L22.79 0L21.84 0ZM29.96 0.10L29.96 0.10Q29.52 0.10 29.18-0.07Q28.83-0.25 28.59-0.55Q28.35-0.84 28.23-1.24Q28.10-1.63 28.10-2.07L28.10-2.07Q28.10-2.70 28.34-3.29Q28.58-3.87 28.98-4.32Q29.37-4.77 29.90-5.04Q30.42-5.31 30.99-5.31L30.99-5.31Q31.59-5.31 31.99-4.99Q32.38-4.66 32.55-4.18L32.55-4.18L32.78-5.22L33.66-5.22L32.78-1.08Q32.77-1.04 32.77-1.01Q32.76-0.98 32.76-0.95L32.76-0.95Q32.76-0.77 32.98-0.76L32.98-0.76L32.82 0Q32.71 0.02 32.63 0.03Q32.54 0.04 32.47 0.04L32.47 0.04Q32.19 0.04 32.05-0.09Q31.90-0.21 31.90-0.41L31.90-0.41Q31.90-0.57 31.99-0.98L31.99-0.98Q31.60-0.47 31.05-0.18Q30.50 0.10 29.96 0.10ZM30.34-0.66L30.34-0.66Q30.56-0.66 30.82-0.75Q31.07-0.84 31.32-1Q31.56-1.16 31.76-1.38Q31.96-1.59 32.06-1.83L32.06-1.83L32.37-3.33Q32.34-3.58 32.22-3.81Q32.10-4.03 31.93-4.20Q31.75-4.36 31.54-4.46Q31.32-4.55 31.09-4.55L31.09-4.55Q30.67-4.55 30.30-4.34Q29.93-4.14 29.65-3.81Q29.36-3.47 29.20-3.05Q29.03-2.63 29.03-2.21L29.03-2.21Q29.03-1.89 29.12-1.60Q29.21-1.32 29.39-1.11Q29.56-0.90 29.80-0.78Q30.04-0.66 30.34-0.66ZM33.71 2.24L33.59 1.53Q33.90 1.49 34.13 1.43Q34.35 1.36 34.53 1.26Q34.70 1.15 34.85 0.98Q35.00 0.81 35.17 0.55L35.17 0.55L35.46 0.11L34.45-5.22L35.36-5.22L36.08-0.79L36.42-1.35Q36.84-2.04 37.13-2.56Q37.42-3.08 37.63-3.52Q37.83-3.96 37.97-4.37Q38.11-4.77 38.23-5.22L38.23-5.22L39.10-5.22Q38.96-4.74 38.81-4.32Q38.66-3.90 38.43-3.44Q38.20-2.97 37.87-2.40Q37.53-1.83 37.04-1.03L37.04-1.03L36.24 0.26Q35.90 0.81 35.60 1.19Q35.30 1.56 35.01 1.79Q34.71 2.02 34.40 2.13Q34.08 2.23 33.71 2.24L33.71 2.24Z"/></svg>