<svg xmlns="http://www.w3.org/2000/svg" viewBox="6.912000000000001 47.43999999999999 600.552 68.61600000000001"><path d="M9 100L7 100L7 49L28 49Q31 49 34 50Q37 52 38 54Q40 56 41 59Q43 62 43 65L43 65Q43 67 42 70Q41 73 39 75Q37 77 35 78Q33 80 30 80L30 80L43 100L40 100L27 80L9 80L9 100ZM9 51L9 78L28 78Q31 78 33 77Q35 76 37 74Q38 72 39 69Q40 67 40 65L40 65Q40 62 39 59Q38 57 37 55Q35 53 33 52Q30 51 28 51L28 51L9 51ZM61 101L61 101Q58 101 56 100Q54 99 52 97Q50 96 50 94Q49 92 49 89L49 89Q49 87 50 85Q51 83 53 81Q55 80 58 79Q61 78 64 78L64 78Q67 78 70 79Q74 79 76 80L76 80L76 76Q76 71 73 67Q70 64 64 64L64 64Q62 64 59 65Q56 66 52 69L52 69L51 67Q58 62 65 62L65 62Q71 62 75 66Q79 70 79 77L79 77L79 96Q79 98 80 98L80 98L80 100Q80 100 80 100Q79 100 79 100L79 100Q78 100 77 99Q76 98 76 97L76 97L76 94Q74 97 70 99Q66 101 61 101ZM61 99L61 99Q64 99 66 98Q69 97 71 96Q74 95 75 93Q76 91 76 89L76 89L76 82Q71 80 64 80L64 80Q61 80 59 81Q56 82 55 83Q53 84 52 85Q51 87 51 89L51 89Q51 91 52 93Q53 95 54 96Q55 97 57 98Q59 99 61 99ZM90 94L90 47L93 47L93 94Q93 96 94 97Q95 98 97 98L97 98Q98 98 99 98Q100 98 101 97L101 97L102 99Q101 100 99 100Q98 100 96 100L96 100Q94 100 92 99Q90 97 90 94L90 94ZM123 101L123 101Q120 101 116 99Q113 98 110 95Q108 92 107 89Q105 85 105 81L105 81Q105 77 106 74Q108 70 110 68Q113 65 116 63Q119 62 123 62L123 62Q127 62 130 63Q134 65 136 68Q138 70 140 74Q141 77 141 81L141 81Q141 81 141 82Q141 82 141 82L141 82L108 82Q108 86 109 89Q111 92 113 94Q115 96 118 97Q120 99 123 99L123 99Q125 99 127 98Q129 98 131 97Q133 96 134 94Q136 93 136 91L136 91L139 92Q138 94 136 95Q135 97 133 98Q131 99 128 100Q126 101 123 101ZM108 80L139 80Q139 77 137 74Q136 71 134 69Q132 67 129 65Q126 64 123 64L123 64Q120 64 117 65Q114 67 112 69Q110 71 109 74Q108 77 108 80L108 80ZM181 97L196 63L199 63L182 100L180 100L171 80L163 100L160 100L144 63L147 63L162 97L170 77L164 63L166 63L171 75L177 63L179 63L173 77L181 97ZM214 101L214 101Q212 101 209 100Q207 99 205 97Q204 96 203 94Q202 92 202 89L202 89Q202 87 203 85Q204 83 206 81Q208 80 211 79Q214 78 217 78L217 78Q221 78 224 79Q227 79 230 80L230 80L230 76Q230 71 226 67Q223 64 218 64L218 64Q215 64 212 65Q209 66 206 69L206 69L205 67Q212 62 218 62L218 62Q224 62 228 66Q232 70 232 77L232 77L232 96Q232 98 233 98L233 98L233 100Q233 100 233 100Q233 100 233 100L233 100Q231 100 231 99Q230 98 230 97L230 97L230 94Q227 97 223 99Q219 101 214 101ZM214 99L214 99Q217 99 220 98Q223 97 225 96Q227 95 228 93Q230 91 230 89L230 89L230 82Q224 80 218 80L218 80Q215 80 212 81Q210 82 208 83Q206 84 205 85Q204 87 204 89L204 89Q204 91 205 93Q206 95 207 96Q209 97 210 98Q212 99 214 99ZM245 116L245 114Q248 114 249 113L249 113Q249 113 249 112Q250 112 250 110Q251 109 252 107Q253 104 255 100L255 100L238 63L240 63L256 97L271 63L274 63L252 113Q251 115 248 116L248 116Q247 116 247 116Q246 116 245 116L245 116ZM313 101L313 101Q310 101 306 99Q303 98 300 95Q298 92 297 89Q295 85 295 81L295 81Q295 77 296 74Q298 70 300 68Q303 65 306 63Q309 62 313 62L313 62Q317 62 320 63Q324 65 326 68Q328 70 330 74Q331 77 331 81L331 81Q331 81 331 82Q331 82 331 82L331 82L298 82Q298 86 299 89Q301 92 303 94Q305 96 308 97Q310 99 313 99L313 99Q316 99 317 98Q319 98 321 97Q323 96 324 94Q326 93 326 91L326 91L329 92Q328 94 326 95Q325 97 323 98Q321 99 318 100Q316 101 313 101ZM298 80L329 80Q329 77 327 74Q326 71 324 69Q322 67 319 65Q316 64 313 64L313 64Q310 64 307 65Q304 67 302 69Q300 71 299 74Q298 77 298 80L298 80ZM334 63L336 63L349 79L350 80L350 79L363 63L366 63L351 81L366 100L363 100L350 84L350 83L349 84L337 100L334 100L348 81L334 63ZM388 96L389 98Q389 98 388 99Q388 99 387 99Q386 100 384 100Q383 100 382 100L382 100Q379 100 377 99Q375 97 375 94L375 94L375 65L369 65L369 63L375 63L375 50L377 50L377 63L386 63L386 65L377 65L377 94Q377 96 379 97Q380 98 382 98L382 98Q383 98 384 98Q385 98 386 97Q387 97 387 97Q388 96 388 96L388 96ZM412 63L412 65Q407 65 403 68Q399 71 398 76L398 76L398 100L395 100L395 63L398 63L398 72Q400 68 403 66Q406 63 410 63L410 63Q411 63 411 63Q412 63 412 63L412 63ZM428 101L428 101Q425 101 423 100Q421 99 419 97Q417 96 416 94Q416 92 416 89L416 89Q416 87 417 85Q418 83 420 81Q422 80 425 79Q428 78 431 78L431 78Q434 78 437 79Q441 79 443 80L443 80L443 76Q443 71 440 67Q437 64 431 64L431 64Q429 64 426 65Q422 66 419 69L419 69L418 67Q425 62 431 62L431 62Q438 62 442 66Q446 70 446 77L446 77L446 96Q446 98 447 98L447 98L447 100Q447 100 447 100Q446 100 446 100L446 100Q445 100 444 99Q443 98 443 97L443 97L443 94Q441 97 437 99Q433 101 428 101ZM428 99L428 99Q431 99 433 98Q436 97 438 96Q440 95 442 93Q443 91 443 89L443 89L443 82Q438 80 431 80L431 80Q428 80 426 81Q423 82 422 83Q420 84 419 85Q418 87 418 89L418 89Q418 91 419 93Q419 95 421 96Q422 97 424 98Q426 99 428 99ZM476 94L476 47L478 47L478 94Q478 96 480 97Q481 98 483 98L483 98Q484 98 485 98Q486 98 487 97L487 97L488 99Q486 100 485 100Q483 100 482 100L482 100Q479 100 478 99Q476 97 476 94L476 94ZM496 100L493 100L493 63L496 63L496 100ZM496 53L493 53L493 47L496 47L496 53ZM523 101L523 101Q519 101 516 99Q512 97 510 95Q508 92 506 88Q505 85 505 81L505 81Q505 78 506 74Q507 71 510 68Q512 65 515 64Q518 62 522 62L522 62Q525 62 527 63Q529 63 531 65Q533 66 534 68Q536 69 537 71L537 71L537 63L540 63L540 101Q540 105 538 108Q537 111 534 112Q532 114 529 115Q526 116 523 116L523 116Q519 116 517 115Q514 115 512 114Q510 112 509 111Q507 109 506 107L506 107L508 106Q510 110 514 112Q518 114 523 114L523 114Q526 114 528 113Q531 112 533 111Q535 109 536 107Q537 104 537 101L537 101L537 92Q536 94 534 96Q533 97 531 98Q529 99 527 100Q525 101 523 101ZM523 98L523 98Q526 98 528 97Q530 96 532 95Q534 93 536 91Q537 90 537 88L537 88L537 75Q536 72 535 71Q533 69 531 67Q529 66 527 65Q525 64 523 64L523 64Q519 64 516 66Q513 67 511 70Q509 72 508 75Q507 78 507 81L507 81Q507 85 509 88Q510 91 512 93Q514 96 517 97Q520 98 523 98ZM581 79L581 100L579 100L579 79Q579 64 569 64L569 64Q566 64 564 65Q561 66 559 68Q557 69 556 72Q554 74 554 77L554 77L554 100L551 100L551 47L554 47L554 72Q555 70 557 68Q558 66 560 65Q562 63 565 63Q567 62 569 62L569 62Q575 62 578 66Q581 71 581 79L581 79ZM607 96L607 98Q607 98 607 99Q606 99 605 99Q604 100 603 100Q602 100 600 100L600 100Q597 100 595 99Q593 97 593 94L593 94L593 65L588 65L588 63L593 63L593 50L596 50L596 63L605 63L605 65L596 65L596 94Q596 96 597 97Q599 98 601 98L601 98Q602 98 603 98Q604 98 605 97Q605 97 606 97Q606 96 607 96L607 96Z"/></svg>