<svg xmlns="http://www.w3.org/2000/svg" viewBox="4.67578125 45.71875 592.6640625 68.6953125"><path d="M24.86 59.68L14.77 59.68L14.77 79.86L24.86 79.86Q26.93 79.86 28.76 79.06Q30.59 78.27 31.96 76.90Q33.33 75.53 34.12 73.69Q34.91 71.84 34.91 69.77L34.91 69.77Q34.91 67.69 34.12 65.85Q33.33 64 31.96 62.63Q30.59 61.26 28.76 60.47Q26.93 59.68 24.86 59.68L24.86 59.68ZM14.77 89.91L14.77 100L4.68 100L4.68 49.59L24.86 49.59Q27.63 49.59 30.20 50.31Q32.77 51.03 35.00 52.35Q37.23 53.66 39.08 55.51Q40.92 57.36 42.24 59.61Q43.56 61.86 44.28 64.42Q45 66.99 45 69.77L45 69.77Q45 72.37 44.35 74.83Q43.70 77.29 42.49 79.50Q41.27 81.72 39.52 83.58Q37.76 85.45 35.58 86.82L35.58 86.82L41.17 100L30.45 100L26.05 89.84L14.77 89.91ZM61.91 52.12L61.91 52.12Q61.91 53.45 61.40 54.61Q60.89 55.77 60.01 56.63Q59.13 57.50 57.96 58.01Q56.78 58.52 55.44 58.52L55.44 58.52Q54.11 58.52 52.93 58.01Q51.75 57.50 50.89 56.63Q50.03 55.77 49.52 54.61Q49.01 53.45 49.01 52.12L49.01 52.12Q49.01 50.82 49.52 49.64Q50.03 48.46 50.89 47.60Q51.75 46.74 52.93 46.23Q54.11 45.72 55.44 45.72L55.44 45.72Q56.78 45.72 57.96 46.23Q59.13 46.74 60.01 47.60Q60.89 48.46 61.40 49.64Q61.91 50.82 61.91 52.12ZM60.26 62.35L60.26 100L50.59 100L50.59 62.35L60.26 62.35ZM94.36 80.84L94.36 80.84Q94.36 78.87 93.60 77.03Q92.85 75.18 91.55 73.76Q90.25 72.33 88.51 71.47Q86.77 70.61 84.80 70.61L84.80 70.61Q82.83 70.61 81.09 71.28Q79.35 71.95 78.06 73.25Q76.78 74.55 76.04 76.46Q75.30 78.38 75.30 80.84L75.30 80.84Q75.30 83.20 76.04 85.08Q76.78 86.96 78.06 88.29Q79.35 89.63 81.09 90.35Q82.83 91.07 84.80 91.07L84.80 91.07Q86.77 91.07 88.51 90.21Q90.25 89.35 91.55 87.92Q92.85 86.50 93.60 84.65Q94.36 82.81 94.36 80.84ZM104.03 62.42L104.03 95.25Q104.03 99.23 102.52 102.71Q101.00 106.19 98.38 108.79Q95.77 111.39 92.27 112.90Q88.77 114.41 84.80 114.41L84.80 114.41L79.98 114.34L79.98 104.75L84.73 104.82Q86.98 104.82 88.56 104.24Q90.14 103.66 91.23 102.65Q92.32 101.65 92.97 100.35Q93.62 99.05 94.01 97.61L94.01 97.61Q93.45 98.52 92.39 99.10Q91.34 99.68 90.05 100.05Q88.77 100.42 87.38 100.56Q85.99 100.70 84.80 100.70L84.80 100.70Q80.82 100.70 77.33 99.33Q73.83 97.96 71.21 95.41Q68.59 92.86 67.08 89.17Q65.57 85.48 65.57 80.84L65.57 80.84Q65.57 76.59 67.08 72.93Q68.59 69.27 71.21 66.60Q73.83 63.93 77.33 62.42Q80.82 60.91 84.80 60.91L84.80 60.91Q86.63 60.91 88.42 61.36Q90.21 61.82 91.90 62.63Q93.59 63.44 95.12 64.53Q96.64 65.62 97.98 66.88L97.98 66.88L101.71 62.42L104.03 62.42ZM120.94 78.48L120.94 100L111.34 100L111.34 47.37L120.94 47.37L120.94 64Q122.66 62.70 124.49 62.15Q126.32 61.61 128.21 61.61L128.21 61.61Q131.70 61.61 134.75 62.93Q137.81 64.25 140.08 66.55Q142.35 68.85 143.67 71.93Q144.98 75.00 144.98 78.48L144.98 78.48L144.98 100L135.32 100L135.32 78.48L135.39 78.48Q135.39 77.01 134.82 75.69Q134.26 74.37 133.28 73.39Q132.29 72.40 130.99 71.84Q129.69 71.28 128.21 71.28L128.21 71.28Q126.70 71.28 125.37 71.84Q124.03 72.40 123.05 73.39Q122.06 74.37 121.50 75.69Q120.94 77.01 120.94 78.48L120.94 78.48ZM177.47 100L170.19 100Q166.71 100 163.65 98.68Q160.59 97.36 158.29 95.06Q155.99 92.76 154.67 89.70Q153.35 86.64 153.35 83.16L153.35 83.16L153.35 71.98L148.68 71.98L148.68 62.42L153.35 62.42L153.35 47.37L162.91 47.37L162.91 62.42L177.47 62.42L177.47 71.98L162.91 71.98L162.91 83.16Q162.91 84.67 163.48 85.99Q164.04 87.31 165.02 88.29Q166.01 89.28 167.34 89.86Q168.68 90.44 170.19 90.44L170.19 90.44L177.47 90.44L177.47 100ZM215.82 69.10L197.82 90.79Q198.39 90.96 198.95 91.02Q199.51 91.07 200.07 91.07L200.07 91.07Q201.48 91.07 202.78 90.68Q204.08 90.30 205.22 89.58Q206.37 88.86 207.26 87.82Q208.16 86.78 208.72 85.52L208.72 85.52L215.75 92.58Q214.42 94.48 212.68 95.99Q210.94 97.50 208.92 98.56Q206.89 99.61 204.66 100.16Q202.43 100.70 200.07 100.70L200.07 100.70Q196.10 100.70 192.60 99.23Q189.11 97.75 186.49 95.11Q183.87 92.48 182.36 88.84Q180.84 85.20 180.84 80.84L180.84 80.84Q180.84 76.38 182.36 72.68Q183.87 68.99 186.49 66.39Q189.11 63.79 192.60 62.35Q196.10 60.91 200.07 60.91L200.07 60.91Q202.43 60.91 204.68 61.47Q206.93 62.03 208.95 63.09Q210.97 64.14 212.73 65.67Q214.49 67.20 215.82 69.10L215.82 69.10ZM191.57 85.83L202.75 71.00Q202.08 70.75 201.43 70.68Q200.78 70.61 200.07 70.61L200.07 70.61Q198.11 70.61 196.37 71.33Q194.63 72.05 193.34 73.39Q192.06 74.72 191.32 76.60Q190.58 78.48 190.58 80.84L190.58 80.84Q190.58 81.37 190.63 82.04Q190.69 82.70 190.81 83.39Q190.93 84.07 191.11 84.71Q191.29 85.34 191.57 85.83L191.57 85.83ZM256.75 80.84L256.75 80.84Q256.75 85.06 255.23 88.70Q253.72 92.34 251.12 94.99Q248.52 97.64 245.02 99.17Q241.52 100.70 237.52 100.70L237.52 100.70Q233.54 100.70 230.04 99.17Q226.55 97.64 223.93 94.99Q221.31 92.34 219.80 88.70Q218.29 85.06 218.29 80.84L218.29 80.84Q218.29 76.55 219.80 72.89Q221.31 69.24 223.93 66.58Q226.55 63.93 230.04 62.42Q233.54 60.91 237.52 60.91L237.52 60.91Q241.52 60.91 245.02 62.33Q248.52 63.75 251.12 66.37Q253.72 68.99 255.23 72.67Q256.75 76.34 256.75 80.84ZM247.08 80.84L247.08 80.84Q247.08 78.52 246.32 76.64Q245.57 74.76 244.27 73.40Q242.96 72.05 241.22 71.33Q239.48 70.61 237.52 70.61L237.52 70.61Q235.55 70.61 233.81 71.33Q232.07 72.05 230.78 73.40Q229.50 74.76 228.76 76.64Q228.02 78.52 228.02 80.84L228.02 80.84Q228.02 83.02 228.76 84.88Q229.50 86.75 230.78 88.12Q232.07 89.49 233.81 90.28Q235.55 91.07 237.52 91.07L237.52 91.07Q239.48 91.07 241.22 90.33Q242.96 89.59 244.27 88.26Q245.57 86.92 246.32 85.02Q247.08 83.13 247.08 80.84ZM292.89 100L289.72 95.61Q288.56 96.66 287.24 97.59Q285.93 98.52 284.48 99.21Q283.04 99.89 281.51 100.30Q279.98 100.70 278.40 100.70L278.40 100.70Q274.92 100.70 271.86 99.47Q268.80 98.24 266.50 95.97Q264.20 93.71 262.88 90.46Q261.56 87.20 261.56 83.16L261.56 83.16L261.56 62.35L271.13 62.35L271.13 83.16Q271.13 85.06 271.71 86.55Q272.29 88.05 273.27 89.07Q274.25 90.09 275.57 90.61Q276.89 91.14 278.40 91.14L278.40 91.14Q279.88 91.14 281.20 90.46Q282.52 89.77 283.50 88.64Q284.48 87.52 285.05 86.10Q285.61 84.67 285.61 83.16L285.61 83.16L285.61 62.35L295.21 62.35L295.21 100L292.89 100ZM323.19 100L323.19 100L301.25 100L301.25 90.44L323.19 90.44Q324.18 90.44 324.88 89.73Q325.58 89.03 325.58 88.05L325.58 88.05Q325.58 87.03 324.88 86.71Q324.18 86.39 323.19 86.39L323.19 86.39L313.21 86.39Q310.71 86.39 308.53 85.45Q306.35 84.50 304.73 82.86Q303.12 81.23 302.19 79.05Q301.25 76.87 301.25 74.37L301.25 74.37Q301.25 71.88 302.19 69.70Q303.12 67.52 304.73 65.90Q306.35 64.28 308.53 63.35Q310.71 62.42 313.21 62.42L313.21 62.42L332.65 62.42L332.65 71.98L313.21 71.98Q312.22 71.98 311.52 72.68Q310.82 73.39 310.82 74.37L310.82 74.37Q310.82 75.39 311.52 76.11Q312.22 76.83 313.21 76.83L313.21 76.83L323.19 76.83Q325.65 76.83 327.83 77.66Q330.01 78.48 331.63 79.96Q333.25 81.44 334.20 83.51Q335.14 85.59 335.14 88.05L335.14 88.05Q335.14 90.54 334.20 92.71Q333.25 94.87 331.63 96.50Q330.01 98.14 327.83 99.07Q325.65 100 323.19 100ZM369.98 79.26L369.98 100L360.39 100L360.39 62.35L362.71 62.35L365.87 66.81Q368.19 64.70 371.14 63.56Q374.10 62.42 377.26 62.42L377.26 62.42L385.73 62.42L385.73 71.98L377.26 71.98Q375.75 71.98 374.41 72.54Q373.08 73.11 372.09 74.09Q371.11 75.07 370.55 76.41Q369.98 77.75 369.98 79.26L369.98 79.26ZM422.47 69.10L404.47 90.79Q405.04 90.96 405.60 91.02Q406.16 91.07 406.72 91.07L406.72 91.07Q408.13 91.07 409.43 90.68Q410.73 90.30 411.87 89.58Q413.02 88.86 413.91 87.82Q414.81 86.78 415.37 85.52L415.37 85.52L422.40 92.58Q421.07 94.48 419.33 95.99Q417.59 97.50 415.56 98.56Q413.54 99.61 411.31 100.16Q409.08 100.70 406.72 100.70L406.72 100.70Q402.75 100.70 399.25 99.23Q395.75 97.75 393.13 95.11Q390.52 92.48 389.00 88.84Q387.49 85.20 387.49 80.84L387.49 80.84Q387.49 76.38 389.00 72.68Q390.52 68.99 393.13 66.39Q395.75 63.79 399.25 62.35Q402.75 60.91 406.72 60.91L406.72 60.91Q409.08 60.91 411.33 61.47Q413.58 62.03 415.60 63.09Q417.62 64.14 419.38 65.67Q421.14 67.20 422.47 69.10L422.47 69.10ZM398.21 85.83L409.39 71.00Q408.73 70.75 408.08 70.68Q407.43 70.61 406.72 70.61L406.72 70.61Q404.75 70.61 403.01 71.33Q401.27 72.05 399.99 73.39Q398.71 74.72 397.97 76.60Q397.23 78.48 397.23 80.84L397.23 80.84Q397.23 81.37 397.28 82.04Q397.34 82.70 397.46 83.39Q397.58 84.07 397.76 84.71Q397.93 85.34 398.21 85.83L398.21 85.83ZM453.80 80.84L453.80 80.84Q453.80 78.87 453.04 77.03Q452.29 75.18 450.98 73.76Q449.68 72.33 447.94 71.47Q446.20 70.61 444.23 70.61L444.23 70.61Q442.27 70.61 440.53 71.28Q438.79 71.95 437.50 73.25Q436.22 74.55 435.48 76.46Q434.74 78.38 434.74 80.84L434.74 80.84Q434.74 83.20 435.48 85.08Q436.22 86.96 437.50 88.29Q438.79 89.63 440.53 90.35Q442.27 91.07 444.23 91.07L444.23 91.07Q446.20 91.07 447.94 90.21Q449.68 89.35 450.98 87.92Q452.29 86.50 453.04 84.65Q453.80 82.81 453.80 80.84ZM463.46 62.42L463.46 95.25Q463.46 99.23 461.95 102.71Q460.44 106.19 457.82 108.79Q455.20 111.39 451.71 112.90Q448.21 114.41 444.23 114.41L444.23 114.41L439.42 114.34L439.42 104.75L444.16 104.82Q446.41 104.82 448.00 104.24Q449.58 103.66 450.67 102.65Q451.76 101.65 452.41 100.35Q453.06 99.05 453.45 97.61L453.45 97.61Q452.88 98.52 451.83 99.10Q450.77 99.68 449.49 100.05Q448.21 100.42 446.82 100.56Q445.43 100.70 444.23 100.70L444.23 100.70Q440.26 100.70 436.76 99.33Q433.27 97.96 430.65 95.41Q428.03 92.86 426.52 89.17Q425.00 85.48 425.00 80.84L425.00 80.84Q425.00 76.59 426.52 72.93Q428.03 69.27 430.65 66.60Q433.27 63.93 436.76 62.42Q440.26 60.91 444.23 60.91L444.23 60.91Q446.06 60.91 447.86 61.36Q449.65 61.82 451.34 62.63Q453.02 63.44 454.55 64.53Q456.08 65.62 457.42 66.88L457.42 66.88L461.14 62.42L463.46 62.42ZM501.61 100L498.45 95.61Q497.29 96.66 495.97 97.59Q494.65 98.52 493.21 99.21Q491.77 99.89 490.24 100.30Q488.71 100.70 487.13 100.70L487.13 100.70Q483.64 100.70 480.59 99.47Q477.53 98.24 475.22 95.97Q472.92 93.71 471.60 90.46Q470.29 87.20 470.29 83.16L470.29 83.16L470.29 62.35L479.85 62.35L479.85 83.16Q479.85 85.06 480.43 86.55Q481.01 88.05 481.99 89.07Q482.98 90.09 484.29 90.61Q485.61 91.14 487.13 91.14L487.13 91.14Q488.60 91.14 489.92 90.46Q491.24 89.77 492.22 88.64Q493.21 87.52 493.77 86.10Q494.33 84.67 494.33 83.16L494.33 83.16L494.33 62.35L503.93 62.35L503.93 100L501.61 100ZM520.91 47.37L520.91 100L511.24 100L511.24 47.37L520.91 47.37ZM564.68 62.42L564.68 100L562.36 100L558.63 94.83Q557.26 96.06 555.73 97.13Q554.20 98.21 552.52 99.00Q550.83 99.79 549.05 100.25Q547.28 100.70 545.45 100.70L545.45 100.70Q541.48 100.70 537.98 99.37Q534.48 98.03 531.86 95.48Q529.24 92.93 527.73 89.24Q526.22 85.55 526.22 80.84L526.22 80.84Q526.22 76.45 527.73 72.77Q529.24 69.10 531.86 66.46Q534.48 63.82 537.98 62.37Q541.48 60.91 545.45 60.91L545.45 60.91Q547.28 60.91 549.07 61.36Q550.86 61.82 552.55 62.63Q554.24 63.44 555.77 64.53Q557.30 65.62 558.63 66.88L558.63 66.88L562.36 62.42L564.68 62.42ZM555.01 80.84L555.01 80.84Q555.01 78.87 554.26 77.03Q553.50 75.18 552.20 73.76Q550.90 72.33 549.16 71.47Q547.42 70.61 545.45 70.61L545.45 70.61Q543.48 70.61 541.74 71.28Q540 71.95 538.72 73.25Q537.43 74.55 536.70 76.46Q535.96 78.38 535.96 80.84L535.96 80.84Q535.96 83.30 536.70 85.22Q537.43 87.13 538.72 88.43Q540 89.73 541.74 90.40Q543.48 91.07 545.45 91.07L545.45 91.07Q547.42 91.07 549.16 90.21Q550.90 89.35 552.20 87.92Q553.50 86.50 554.26 84.65Q555.01 82.81 555.01 80.84ZM581.59 79.26L581.59 100L571.99 100L571.99 62.35L574.31 62.35L577.48 66.81Q579.80 64.70 582.75 63.56Q585.70 62.42 588.87 62.42L588.87 62.42L597.34 62.42L597.34 71.98L588.87 71.98Q587.36 71.98 586.02 72.54Q584.68 73.11 583.70 74.09Q582.71 75.07 582.15 76.41Q581.59 77.75 581.59 79.26L581.59 79.26Z"/></svg>