<svg xmlns="http://www.w3.org/2000/svg" viewBox="3.0234375 46 504.85657953199046 54.70372086864407"><path d="M35.33 100L25.91 78.10L8.68 78.10L4.89 100L3.02 100L11.85 48.81L27.53 48.81Q32.17 48.85 35.63 50.73Q39.09 52.61 40.64 55.95Q42.19 59.29 41.48 63.58L41.48 63.58Q40.61 68.78 36.86 72.63Q33.12 76.48 27.88 77.64L27.88 77.64L37.34 99.51L37.27 100L35.33 100ZM13.43 50.71L9 76.20L24.05 76.20Q29.85 76.20 34.19 72.65Q38.53 69.10 39.59 63.58L39.59 63.58Q40.64 57.78 37.16 54.24Q33.68 50.71 26.96 50.71L26.96 50.71L13.43 50.71ZM48.87 80.24L48.87 80.24Q49.75 74.93 52.42 70.57Q55.09 66.21 59.10 63.74Q63.11 61.26 67.85 61.26L67.85 61.26Q71.72 61.26 74.71 62.98Q77.70 64.70 79.45 68.10Q81.21 71.49 81.46 75.60L81.46 75.60Q81.56 77.99 81.04 81.72L81.04 81.72Q80.16 87.03 77.47 91.42Q74.78 95.82 70.79 98.26Q66.80 100.70 62.09 100.70L62.09 100.70Q58.18 100.70 55.21 98.96Q52.24 97.22 50.47 93.87Q48.69 90.51 48.48 86.32L48.48 86.32Q48.34 83.97 48.87 80.24ZM50.52 87.77L50.52 87.77Q51.22 92.86 54.28 95.83Q57.34 98.80 62.05 98.80L62.05 98.80Q67.57 98.80 72.02 94.94Q76.46 91.07 78.43 84.50L78.43 84.50Q80.05 79.05 79.38 74.20L79.38 74.20Q78.61 69.10 75.57 66.13Q72.53 63.16 67.89 63.16L67.89 63.16Q62.37 63.16 57.90 67.08Q53.44 71.00 51.47 77.46L51.47 77.46Q49.85 82.84 50.52 87.77ZM101.46 100.70L101.46 100.70Q97.52 100.70 94.48 98.98Q91.44 97.26 89.96 93.99L89.96 93.99L88.88 100L86.98 100L96.29 46L98.19 46L94.11 68.89Q96.75 65.20 100.28 63.23Q103.82 61.26 107.89 61.26L107.89 61.26Q111.59 61.26 114.19 63.09Q116.79 64.91 118.00 68.45Q119.21 71.98 119.07 76.27L119.07 76.27Q118.97 78.52 118.65 80.59L118.65 80.59L118.20 82.91Q116.37 91.18 111.94 95.94Q107.51 100.70 101.46 100.70ZM116.54 81.33L116.68 80.59L117.11 76.83Q117.39 73 116.46 69.73Q115.52 66.46 113.33 64.81Q111.13 63.16 107.93 63.16L107.93 63.16Q103.25 63.16 99.12 65.97Q94.99 68.78 93.59 72.93L93.59 72.93L90.46 90.37Q91.30 94.45 94.24 96.63Q97.17 98.80 101.46 98.80L101.46 98.80Q107.12 98.80 111.06 94.15Q115.00 89.49 116.54 81.33L116.54 81.33ZM126.21 80.24L126.21 80.24Q127.09 74.93 129.76 70.57Q132.43 66.21 136.44 63.74Q140.45 61.26 145.20 61.26L145.20 61.26Q149.06 61.26 152.05 62.98Q155.04 64.70 156.80 68.10Q158.55 71.49 158.80 75.60L158.80 75.60Q158.91 77.99 158.38 81.72L158.38 81.72Q157.50 87.03 154.81 91.42Q152.12 95.82 148.13 98.26Q144.14 100.70 139.43 100.70L139.43 100.70Q135.53 100.70 132.56 98.96Q129.59 97.22 127.81 93.87Q126.04 90.51 125.82 86.32L125.82 86.32Q125.68 83.97 126.21 80.24ZM127.86 87.77L127.86 87.77Q128.57 92.86 131.63 95.83Q134.68 98.80 139.39 98.80L139.39 98.80Q144.91 98.80 149.36 94.94Q153.81 91.07 155.78 84.50L155.78 84.50Q157.39 79.05 156.73 74.20L156.73 74.20Q155.95 69.10 152.91 66.13Q149.87 63.16 145.23 63.16L145.23 63.16Q139.71 63.16 135.25 67.08Q130.78 71.00 128.81 77.46L128.81 77.46Q127.20 82.84 127.86 87.77ZM174.97 51.70L176.91 51.70L175.15 61.96L183.48 61.96L183.23 63.89L174.80 63.89L169.98 91.74L169.84 93.67Q169.73 96.06 170.82 97.42Q171.91 98.77 174.13 98.80L174.13 98.80Q175.11 98.80 177.96 98.49L177.96 98.49L178.03 100.28Q176.41 100.70 174.20 100.70L174.20 100.70Q168.22 100.70 167.98 94.55L167.98 94.55Q167.91 92.76 168.22 90.89L168.22 90.89L172.86 63.89L166.08 63.89L166.36 61.96L173.21 61.96L174.97 51.70ZM186.75 80.24L186.75 80.24Q187.63 74.93 190.30 70.57Q192.97 66.21 196.98 63.74Q200.99 61.26 205.73 61.26L205.73 61.26Q209.60 61.26 212.59 62.98Q215.58 64.70 217.34 68.10Q219.09 71.49 219.34 75.60L219.34 75.60Q219.45 77.99 218.92 81.72L218.92 81.72Q218.04 87.03 215.35 91.42Q212.66 95.82 208.67 98.26Q204.68 100.70 199.97 100.70L199.97 100.70Q196.07 100.70 193.10 98.96Q190.13 97.22 188.35 93.87Q186.57 90.51 186.36 86.32L186.36 86.32Q186.22 83.97 186.75 80.24ZM188.40 87.77L188.40 87.77Q189.11 92.86 192.16 95.83Q195.22 98.80 199.93 98.80L199.93 98.80Q205.45 98.80 209.90 94.94Q214.35 91.07 216.32 84.50L216.32 84.50Q217.93 79.05 217.27 74.20L217.27 74.20Q216.49 69.10 213.45 66.13Q210.41 63.16 205.77 63.16L205.77 63.16Q200.25 63.16 195.79 67.08Q191.32 71.00 189.35 77.46L189.35 77.46Q187.73 82.84 188.40 87.77ZM252.56 51.70L254.50 51.70L252.74 61.96L261.07 61.96L260.82 63.89L252.39 63.89L247.57 91.74L247.43 93.67Q247.32 96.06 248.41 97.42Q249.50 98.77 251.72 98.80L251.72 98.80Q252.70 98.80 255.55 98.49L255.55 98.49L255.62 100.28Q254.00 100.70 251.79 100.70L251.79 100.70Q245.81 100.70 245.57 94.55L245.57 94.55Q245.50 92.76 245.81 90.89L245.81 90.89L250.45 63.89L243.67 63.89L243.95 61.96L250.80 61.96L252.56 51.70ZM275.66 46L271.23 70.82Q274.08 66.21 277.95 63.74Q281.81 61.26 285.93 61.26L285.93 61.26Q290.29 61.26 292.78 63.51Q295.28 65.76 295.66 70.01L295.66 70.01Q295.88 72.68 295.38 75.60L295.38 75.60L291.16 100L289.27 100L293.48 75.60Q293.91 73.14 293.84 70.75L293.84 70.75Q293.66 67.02 291.64 65.05Q289.62 63.09 285.86 63.12L285.86 63.12Q281.04 63.19 276.59 66.87Q272.14 70.54 270.56 75.64L270.56 75.64L266.34 100L264.45 100L273.76 46L275.66 46ZM311.91 61.96L305.37 100L303.47 100L310.01 61.96L311.91 61.96ZM311.13 50.01L311.13 50.01Q311.24 49.30 311.89 48.71Q312.54 48.11 313.28 48.11L313.28 48.11Q314.09 48.11 314.60 48.74Q315.11 49.38 314.96 50.15L314.96 50.15Q314.86 50.85 314.19 51.43Q313.52 52.01 312.79 52.01L312.79 52.01Q311.98 51.98 311.48 51.38Q310.99 50.78 311.13 50.01ZM326.18 61.96L324.53 70.82Q327.38 66.21 331.24 63.74Q335.11 61.26 339.22 61.26L339.22 61.26Q343.58 61.26 346.08 63.51Q348.57 65.76 348.96 70.01L348.96 70.01Q349.17 72.68 348.68 75.60L348.68 75.60L344.46 100L342.56 100L346.78 75.60Q347.20 73.14 347.13 70.75L347.13 70.75Q346.96 67.02 344.94 65.05Q342.91 63.09 339.15 63.12L339.15 63.12Q334.34 63.19 329.89 66.87Q325.44 70.54 323.86 75.64L323.86 75.64L319.64 100L317.74 100L324.28 61.96L326.18 61.96ZM382.25 61.96L375.71 100L373.82 100L380.36 61.96L382.25 61.96ZM381.48 50.01L381.48 50.01Q381.59 49.30 382.24 48.71Q382.89 48.11 383.63 48.11L383.63 48.11Q384.43 48.11 384.94 48.74Q385.45 49.38 385.31 50.15L385.31 50.15Q385.21 50.85 384.54 51.43Q383.87 52.01 383.13 52.01L383.13 52.01Q382.32 51.98 381.83 51.38Q381.34 50.78 381.48 50.01ZM398.67 51.70L400.61 51.70L398.85 61.96L407.18 61.96L406.93 63.89L398.50 63.89L393.68 91.74L393.54 93.67Q393.43 96.06 394.52 97.42Q395.61 98.77 397.83 98.80L397.83 98.80Q398.81 98.80 401.66 98.49L401.66 98.49L401.73 100.28Q400.11 100.70 397.90 100.70L397.90 100.70Q391.92 100.70 391.68 94.55L391.68 94.55Q391.61 92.76 391.92 90.89L391.92 90.89L396.56 63.89L389.78 63.89L390.06 61.96L396.91 61.96L398.67 51.70ZM436.89 100L434.71 100Q434.60 96.91 435.38 93.04L435.38 93.04Q432.42 96.66 428.36 98.70Q424.30 100.74 419.55 100.70L419.55 100.70Q414.77 100.70 411.93 97.75Q409.08 94.80 409.78 90.37L409.78 90.37Q410.66 84.99 415.74 81.96Q420.82 78.94 428.63 78.77L428.63 78.77L437.66 78.77L438.68 73.21Q439.42 68.54 436.82 65.85Q434.21 63.16 429.33 63.16L429.33 63.16Q424.55 63.16 420.68 65.71Q416.81 68.25 415.83 72.40L415.83 72.40L413.93 72.33Q414.91 67.45 419.34 64.35Q423.77 61.26 429.33 61.26L429.33 61.26Q435.13 61.26 438.22 64.54Q441.32 67.83 440.51 73.28L440.51 73.28L437.03 93.60L436.78 95.99Q436.61 97.86 436.92 99.68L436.92 99.68L436.89 100ZM419.52 98.84L419.52 98.84Q424.23 98.91 428.48 96.57Q432.74 94.23 435.73 89.73L435.73 89.73L437.34 80.70L428.84 80.70Q421.73 80.84 417.11 83.42Q412.49 86.01 411.64 90.51L411.64 90.51Q411.01 93.99 413.31 96.38Q415.62 98.77 419.52 98.84ZM459.42 46L450.14 100L448.24 100L457.52 46L459.42 46ZM471.41 61.96L464.87 100L462.97 100L469.51 61.96L471.41 61.96ZM470.64 50.01L470.64 50.01Q470.74 49.30 471.39 48.71Q472.04 48.11 472.78 48.11L472.78 48.11Q473.59 48.11 474.10 48.74Q474.61 49.38 474.47 50.15L474.47 50.15Q474.36 50.85 473.70 51.43Q473.03 52.01 472.29 52.01L472.29 52.01Q471.48 51.98 470.99 51.38Q470.50 50.78 470.64 50.01ZM490.15 98.80L490.15 98.80Q495.14 98.80 498.81 95.96Q502.49 93.11 503.72 88.50L503.72 88.50L505.62 88.50Q504.35 93.95 500.10 97.33Q495.84 100.70 490.18 100.70L490.18 100.70Q484.95 100.70 481.69 97.45Q478.44 94.20 477.77 88.43L477.77 88.43Q477.39 85.09 477.88 81.72L477.88 81.72L478.09 80.24Q479.00 74.65 481.59 70.22Q484.17 65.79 487.85 63.53Q491.52 61.26 495.95 61.26L495.95 61.26Q501.68 61.26 504.97 64.98Q508.25 68.71 507.83 74.51L507.83 74.51L505.93 74.51Q506.39 69.45 503.60 66.30Q500.80 63.16 495.98 63.16L495.98 63.16Q489.34 63.16 484.95 68.59Q480.55 74.02 479.60 83.13L479.60 83.13L479.46 85.69Q479.46 91.88 482.24 95.34Q485.02 98.80 490.15 98.80Z"/></svg>