<svg xmlns="http://www.w3.org/2000/svg" viewBox="2.49609375 46 753.3111139112902 54.744140624999986"><path d="M28.58 100L22.50 79.12L12.45 79.12L8.82 100L2.50 100L11.39 48.81L25.56 48.85Q28.90 48.95 31.71 50.01Q34.52 51.06 36.49 52.98Q38.46 54.89 39.46 57.65Q40.46 60.41 40.18 63.89L40.18 63.89Q39.97 66.53 38.99 68.68Q38.00 70.82 36.44 72.54Q34.88 74.27 32.85 75.57Q30.83 76.87 28.51 77.82L28.51 77.82L35.37 99.54L35.30 100L28.58 100ZM16.77 54.16L13.36 73.77L21.45 73.84Q23.70 73.84 25.80 73.16Q27.91 72.47 29.58 71.19Q31.25 69.91 32.38 68.04Q33.50 66.18 33.79 63.82L33.79 63.82Q34.03 61.68 33.56 59.94Q33.08 58.20 31.97 56.95Q30.87 55.70 29.20 55Q27.53 54.30 25.42 54.19L25.42 54.19L16.77 54.16ZM46.02 81.65L46.13 80.88Q46.44 78.31 47.23 75.83Q48.02 73.35 49.25 71.15Q50.48 68.96 52.15 67.11Q53.82 65.27 55.88 63.95Q57.94 62.63 60.38 61.91Q62.82 61.19 65.64 61.26L65.64 61.26Q69.64 61.36 72.47 63.03Q75.30 64.70 77.03 67.39Q78.75 70.08 79.40 73.51Q80.05 76.94 79.66 80.52L79.66 80.52L79.59 81.33Q79.10 85.16 77.54 88.71Q75.97 92.27 73.48 94.96Q70.98 97.64 67.59 99.23Q64.20 100.81 60.05 100.70L60.05 100.70Q56.07 100.60 53.24 98.96Q50.41 97.33 48.69 94.66Q46.97 91.98 46.30 88.61Q45.63 85.23 46.02 81.65L46.02 81.65ZM52.49 80.88L52.38 81.65Q52.21 83.13 52.22 84.71Q52.24 86.29 52.51 87.80Q52.77 89.31 53.33 90.68Q53.89 92.05 54.84 93.09Q55.79 94.13 57.15 94.76Q58.50 95.39 60.33 95.46L60.33 95.46Q63.25 95.57 65.50 94.30Q67.75 93.04 69.35 91Q70.95 88.96 71.89 86.41Q72.84 83.86 73.23 81.33L73.23 81.33L73.30 80.56Q73.55 78.34 73.39 75.92Q73.23 73.49 72.35 71.44Q71.47 69.38 69.79 68.03Q68.10 66.67 65.36 66.57L65.36 66.57Q62.40 66.46 60.15 67.74Q57.90 69.03 56.32 71.10Q54.74 73.18 53.79 75.76Q52.84 78.34 52.49 80.88L52.49 80.88ZM121.39 80.45L121.32 81.19Q121.01 83.55 120.36 85.92Q119.71 88.29 118.69 90.47Q117.67 92.65 116.26 94.55Q114.86 96.45 113.03 97.86Q111.20 99.26 108.95 100.04Q106.70 100.81 103.99 100.74L103.99 100.74Q100.90 100.67 98.30 99.46Q95.70 98.24 93.97 95.64L93.97 95.64L92.71 100L86.80 100L96.19 46L102.55 46L98.75 66.07Q100.93 63.65 103.64 62.42Q106.35 61.19 109.65 61.26L109.65 61.26Q112.22 61.33 114.17 62.17Q116.12 63.02 117.51 64.44Q118.90 65.86 119.76 67.73Q120.62 69.59 121.06 71.72Q121.50 73.84 121.57 76.08Q121.64 78.31 121.39 80.45L121.39 80.45ZM114.96 81.16L115.07 80.42Q115.31 78.27 115.22 75.90Q115.14 73.53 114.40 71.52Q113.66 69.52 112.08 68.18Q110.50 66.85 107.75 66.78L107.75 66.78Q106.10 66.74 104.70 67.16Q103.29 67.59 102.08 68.38Q100.86 69.17 99.83 70.26Q98.79 71.35 97.91 72.61L97.91 72.61L95.03 89.35Q95.98 91.98 97.91 93.57Q99.84 95.15 102.76 95.22L102.76 95.22Q105.68 95.29 107.82 94.04Q109.97 92.79 111.45 90.75Q112.92 88.71 113.77 86.18Q114.61 83.65 114.96 81.16L114.96 81.16ZM130.54 81.65L130.64 80.88Q130.96 78.31 131.75 75.83Q132.54 73.35 133.77 71.15Q135 68.96 136.67 67.11Q138.34 65.27 140.40 63.95Q142.45 62.63 144.90 61.91Q147.34 61.19 150.15 61.26L150.15 61.26Q154.16 61.36 156.99 63.03Q159.82 64.70 161.54 67.39Q163.27 70.08 163.92 73.51Q164.57 76.94 164.18 80.52L164.18 80.52L164.11 81.33Q163.62 85.16 162.05 88.71Q160.49 92.27 157.99 94.96Q155.50 97.64 152.10 99.23Q148.71 100.81 144.56 100.70L144.56 100.70Q140.59 100.60 137.76 98.96Q134.93 97.33 133.21 94.66Q131.48 91.98 130.82 88.61Q130.15 85.23 130.54 81.65L130.54 81.65ZM137.00 80.88L136.90 81.65Q136.72 83.13 136.74 84.71Q136.76 86.29 137.02 87.80Q137.29 89.31 137.85 90.68Q138.41 92.05 139.36 93.09Q140.31 94.13 141.66 94.76Q143.02 95.39 144.84 95.46L144.84 95.46Q147.76 95.57 150.01 94.30Q152.26 93.04 153.86 91Q155.46 88.96 156.41 86.41Q157.36 83.86 157.75 81.33L157.75 81.33L157.82 80.56Q158.06 78.34 157.90 75.92Q157.75 73.49 156.87 71.44Q155.99 69.38 154.30 68.03Q152.61 66.67 149.87 66.57L149.87 66.57Q146.92 66.46 144.67 67.74Q142.42 69.03 140.84 71.10Q139.25 73.18 138.30 75.76Q137.36 78.34 137.00 80.88L137.00 80.88ZM188.09 52.75L194.48 52.75L192.87 61.96L206.93 61.96L206.05 66.99L191.99 66.99L188.54 87.70Q188.37 89.24 188.56 90.58Q188.75 91.91 189.35 92.90Q189.95 93.88 191.06 94.48Q192.16 95.08 193.85 95.11L193.85 95.11Q195.79 95.18 197.70 94.83Q199.62 94.48 201.52 94.06L201.52 94.06L202.11 98.73Q199.90 99.96 197.19 100.35Q194.48 100.74 191.99 100.67L191.99 100.67Q189.14 100.63 187.17 99.56Q185.20 98.49 184.01 96.71Q182.81 94.94 182.37 92.60Q181.93 90.26 182.18 87.66L182.18 87.66L185.63 66.99L175.92 66.99L176.80 61.96L186.47 61.96L188.09 52.75ZM215.05 81.65L215.16 80.88Q215.47 78.31 216.26 75.83Q217.05 73.35 218.29 71.15Q219.52 68.96 221.19 67.11Q222.86 65.27 224.91 63.95Q226.97 62.63 229.41 61.91Q231.86 61.19 234.67 61.26L234.67 61.26Q238.68 61.36 241.51 63.03Q244.34 64.70 246.06 67.39Q247.78 70.08 248.43 73.51Q249.08 76.94 248.70 80.52L248.70 80.52L248.63 81.33Q248.13 85.16 246.57 88.71Q245.00 92.27 242.51 94.96Q240.01 97.64 236.62 99.23Q233.23 100.81 229.08 100.70L229.08 100.70Q225.11 100.60 222.28 98.96Q219.45 97.33 217.72 94.66Q216 91.98 215.33 88.61Q214.66 85.23 215.05 81.65L215.05 81.65ZM221.52 80.88L221.41 81.65Q221.24 83.13 221.26 84.71Q221.27 86.29 221.54 87.80Q221.80 89.31 222.36 90.68Q222.93 92.05 223.88 93.09Q224.82 94.13 226.18 94.76Q227.53 95.39 229.36 95.46L229.36 95.46Q232.28 95.57 234.53 94.30Q236.78 93.04 238.38 91Q239.98 88.96 240.93 86.41Q241.88 83.86 242.26 81.33L242.26 81.33L242.33 80.56Q242.58 78.34 242.42 75.92Q242.26 73.49 241.38 71.44Q240.50 69.38 238.82 68.03Q237.13 66.67 234.39 66.57L234.39 66.57Q231.43 66.46 229.18 67.74Q226.93 69.03 225.35 71.10Q223.77 73.18 222.82 75.76Q221.87 78.34 221.52 80.88L221.52 80.88ZM306.07 48.81L313.77 48.81L317.39 74.34L330.54 48.81L338.55 48.81L329.70 100L323.51 100L327.09 79.26L331.17 58.80L317.50 85.76L313.80 85.76L310.04 58.62L306.84 79.89L303.36 100L297.18 100L306.07 48.81ZM341.82 81.65L341.93 80.88Q342.25 78.31 343.04 75.83Q343.83 73.35 345.06 71.15Q346.29 68.96 347.96 67.11Q349.63 65.27 351.69 63.95Q353.74 62.63 356.19 61.91Q358.63 61.19 361.44 61.26L361.44 61.26Q365.45 61.36 368.28 63.03Q371.11 64.70 372.83 67.39Q374.55 70.08 375.21 73.51Q375.86 76.94 375.47 80.52L375.47 80.52L375.40 81.33Q374.91 85.16 373.34 88.71Q371.78 92.27 369.28 94.96Q366.79 97.64 363.39 99.23Q360 100.81 355.85 100.70L355.85 100.70Q351.88 100.60 349.05 98.96Q346.22 97.33 344.50 94.66Q342.77 91.98 342.11 88.61Q341.44 85.23 341.82 81.65L341.82 81.65ZM348.29 80.88L348.19 81.65Q348.01 83.13 348.03 84.71Q348.05 86.29 348.31 87.80Q348.57 89.31 349.14 90.68Q349.70 92.05 350.65 93.09Q351.60 94.13 352.95 94.76Q354.30 95.39 356.13 95.46L356.13 95.46Q359.05 95.57 361.30 94.30Q363.55 93.04 365.15 91Q366.75 88.96 367.70 86.41Q368.65 83.86 369.04 81.33L369.04 81.33L369.11 80.56Q369.35 78.34 369.19 75.92Q369.04 73.49 368.16 71.44Q367.28 69.38 365.59 68.03Q363.90 66.67 361.16 66.57L361.16 66.57Q358.21 66.46 355.96 67.74Q353.71 69.03 352.13 71.10Q350.54 73.18 349.59 75.76Q348.64 78.34 348.29 80.88L348.29 80.88ZM389.18 61.96L394.84 61.93L394.03 67.59Q395.19 66.18 396.56 64.98Q397.93 63.79 399.48 62.95Q401.03 62.10 402.75 61.66Q404.47 61.22 406.37 61.26L406.37 61.26Q409.57 61.33 411.75 62.52Q413.93 63.72 415.21 65.71Q416.50 67.69 416.94 70.33Q417.38 72.96 417.06 75.85L417.06 75.85L413.02 100L406.65 100L410.70 75.95Q410.91 74.02 410.71 72.37Q410.52 70.71 409.76 69.48Q409.01 68.25 407.64 67.53Q406.27 66.81 404.16 66.78L404.16 66.78Q402.50 66.74 401.01 67.18Q399.52 67.62 398.21 68.41Q396.91 69.20 395.77 70.31Q394.63 71.42 393.68 72.68L393.68 72.68L388.93 100L382.57 100L389.18 61.96ZM426.34 81.65L426.45 80.88Q426.76 78.31 427.55 75.83Q428.34 73.35 429.57 71.15Q430.80 68.96 432.47 67.11Q434.14 65.27 436.20 63.95Q438.26 62.63 440.70 61.91Q443.14 61.19 445.96 61.26L445.96 61.26Q449.96 61.36 452.79 63.03Q455.63 64.70 457.35 67.39Q459.07 70.08 459.72 73.51Q460.37 76.94 459.98 80.52L459.98 80.52L459.91 81.33Q459.42 85.16 457.86 88.71Q456.29 92.27 453.80 94.96Q451.30 97.64 447.91 99.23Q444.52 100.81 440.37 100.70L440.37 100.70Q436.39 100.60 433.56 98.96Q430.73 97.33 429.01 94.66Q427.29 91.98 426.62 88.61Q425.95 85.23 426.34 81.65L426.34 81.65ZM432.81 80.88L432.70 81.65Q432.53 83.13 432.54 84.71Q432.56 86.29 432.83 87.80Q433.09 89.31 433.65 90.68Q434.21 92.05 435.16 93.09Q436.11 94.13 437.47 94.76Q438.82 95.39 440.65 95.46L440.65 95.46Q443.57 95.57 445.82 94.30Q448.07 93.04 449.67 91Q451.27 88.96 452.21 86.41Q453.16 83.86 453.55 81.33L453.55 81.33L453.62 80.56Q453.87 78.34 453.71 75.92Q453.55 73.49 452.67 71.44Q451.79 69.38 450.11 68.03Q448.42 66.67 445.68 66.57L445.68 66.57Q442.72 66.46 440.47 67.74Q438.22 69.03 436.64 71.10Q435.06 73.18 434.11 75.76Q433.16 78.34 432.81 80.88L432.81 80.88ZM515.95 67.62L516.94 61.96L535.85 61.96L530.23 94.38L542.29 94.38L541.27 100L510.33 100L511.35 94.38L523.86 94.38L528.50 67.62L515.95 67.62ZM530.40 52.08L530.40 52.08Q530.44 50.39 531.49 49.29Q532.55 48.18 534.23 48.11L534.23 48.11Q535.08 48.07 535.76 48.36Q536.45 48.64 536.96 49.13Q537.47 49.62 537.73 50.32Q538.00 51.03 538.00 51.87L538.00 51.87Q538.00 53.56 536.94 54.60Q535.89 55.63 534.20 55.70L534.20 55.70Q532.55 55.77 531.47 54.77Q530.40 53.77 530.40 52.08ZM568.41 52.75L574.80 52.75L573.19 61.96L587.25 61.96L586.37 66.99L572.31 66.99L568.86 87.70Q568.69 89.24 568.88 90.58Q569.07 91.91 569.67 92.90Q570.27 93.88 571.38 94.48Q572.48 95.08 574.17 95.11L574.17 95.11Q576.11 95.18 578.02 94.83Q579.94 94.48 581.84 94.06L581.84 94.06L582.43 98.73Q580.22 99.96 577.51 100.35Q574.80 100.74 572.31 100.67L572.31 100.67Q569.46 100.63 567.49 99.56Q565.52 98.49 564.33 96.71Q563.13 94.94 562.69 92.60Q562.25 90.26 562.50 87.66L562.50 87.66L565.95 66.99L556.24 66.99L557.12 61.96L566.79 61.96L568.41 52.75ZM624.90 100L618.47 100Q618.19 98.95 618.19 97.93Q618.19 96.91 618.29 95.85L618.29 95.85Q615.80 98.07 612.86 99.40Q609.93 100.74 606.52 100.67L606.52 100.67Q604.13 100.63 602.00 99.86Q599.87 99.09 598.31 97.68Q596.74 96.27 595.88 94.27Q595.02 92.27 595.16 89.73L595.16 89.73Q595.30 87.27 596.16 85.38Q597.02 83.48 598.39 82.05Q599.77 80.63 601.56 79.64Q603.35 78.66 605.37 78.04Q607.39 77.43 609.56 77.17Q611.72 76.90 613.83 76.90L613.83 76.90L621.07 76.94L621.53 73.91Q621.74 72.12 621.26 70.75Q620.79 69.38 619.80 68.43Q618.82 67.48 617.40 66.99Q615.97 66.50 614.25 66.46L614.25 66.46Q612.74 66.43 611.28 66.78Q609.82 67.13 608.61 67.87Q607.39 68.61 606.52 69.75Q605.64 70.89 605.29 72.47L605.29 72.47L598.92 72.51Q599.24 69.63 600.79 67.50Q602.33 65.37 604.60 63.96Q606.87 62.56 609.57 61.87Q612.28 61.19 614.88 61.22L614.88 61.22Q617.77 61.29 620.26 62.14Q622.76 62.98 624.53 64.62Q626.31 66.25 627.22 68.61Q628.14 70.96 627.82 74.02L627.82 74.02L624.87 91.70Q624.55 93.64 624.53 95.57Q624.52 97.50 624.97 99.40L624.97 99.40L624.90 100ZM607.75 95.08L607.75 95.08Q611.12 95.15 614.04 93.55Q616.96 91.95 618.93 89.28L618.93 89.28L620.30 81.54L614.85 81.51Q612.91 81.51 610.72 81.75Q608.52 82 606.59 82.77Q604.65 83.55 603.28 84.99Q601.91 86.43 601.63 88.79L601.63 88.79Q601.45 90.30 601.84 91.46Q602.23 92.62 603.07 93.41Q603.91 94.20 605.11 94.62Q606.30 95.04 607.75 95.08ZM645.47 51.66L646.49 46L665.40 46L657 94.38L669.06 94.38L668.04 100L637.10 100L638.12 94.38L650.64 94.38L658.05 51.66L645.47 51.66ZM684.98 67.62L685.97 61.96L704.88 61.96L699.26 94.38L711.32 94.38L710.30 100L679.36 100L680.38 94.38L692.89 94.38L697.54 67.62L684.98 67.62ZM699.43 52.08L699.43 52.08Q699.47 50.39 700.52 49.29Q701.58 48.18 703.27 48.11L703.27 48.11Q704.11 48.07 704.79 48.36Q705.48 48.64 705.99 49.13Q706.50 49.62 706.76 50.32Q707.03 51.03 707.03 51.87L707.03 51.87Q707.03 53.56 705.97 54.60Q704.92 55.63 703.23 55.70L703.23 55.70Q701.58 55.77 700.51 54.77Q699.43 53.77 699.43 52.08ZM737.12 95.46L737.12 95.46Q738.84 95.50 740.53 94.99Q742.22 94.48 743.61 93.51Q745.00 92.55 745.98 91.16Q746.96 89.77 747.35 88.05L747.35 88.05L753.36 88.01Q753.05 90.93 751.46 93.30Q749.88 95.68 747.56 97.35Q745.24 99.02 742.43 99.91Q739.62 100.81 736.84 100.74L736.84 100.74Q732.83 100.63 730.02 99.02Q727.21 97.40 725.48 94.78Q723.76 92.16 723.13 88.79Q722.50 85.41 722.85 81.82L722.85 81.82L723.02 80.31Q723.34 77.75 724.15 75.32Q724.96 72.89 726.21 70.75Q727.45 68.61 729.12 66.83Q730.79 65.05 732.87 63.79Q734.94 62.52 737.37 61.86Q739.79 61.19 742.54 61.26L742.54 61.26Q745.49 61.33 747.98 62.38Q750.48 63.44 752.26 65.25Q754.03 67.06 754.98 69.57Q755.93 72.09 755.79 75.07L755.79 75.07L749.81 75.04Q749.88 73.28 749.39 71.77Q748.90 70.26 747.90 69.12Q746.89 67.97 745.45 67.30Q744.01 66.64 742.18 66.57L742.18 66.57Q739.27 66.46 737.03 67.64Q734.80 68.82 733.22 70.79Q731.64 72.75 730.67 75.25Q729.70 77.75 729.35 80.31L729.35 80.31L729.18 81.79Q729 83.30 729 84.88Q729 86.46 729.26 87.96Q729.53 89.45 730.09 90.81Q730.65 92.16 731.60 93.16Q732.55 94.16 733.90 94.80Q735.26 95.43 737.12 95.46Z"/></svg>