<svg xmlns="http://www.w3.org/2000/svg" viewBox="5.203125 46 502.62890625 54.703125"><path d="M34.28 100L24.01 80.28L14.10 80.28L14.10 100L5.20 100L5.20 48.81L23.20 48.81Q32.06 48.81 36.88 52.79Q41.70 56.76 41.70 64.28L41.70 64.28Q41.70 69.41 39.22 72.88Q36.74 76.34 32.31 78.20L32.31 78.20L43.80 99.54L43.80 100L34.28 100ZM14.10 55.98L14.10 73.14L23.24 73.14Q27.74 73.14 30.27 70.87Q32.80 68.61 32.80 64.67L32.80 64.67Q32.80 60.55 30.46 58.30Q28.13 56.05 23.48 55.98L23.48 55.98L14.10 55.98ZM47.71 81.05L47.71 80.63Q47.71 75.04 49.92 70.56Q52.14 66.07 56.14 63.67Q60.15 61.26 65.36 61.26L65.36 61.26Q73.05 61.26 77.85 66.21Q82.65 71.17 83.04 79.36L83.04 79.36L83.07 81.37Q83.07 86.99 80.91 91.42Q78.75 95.85 74.72 98.28Q70.70 100.70 65.43 100.70L65.43 100.70Q57.38 100.70 52.54 95.34Q47.71 89.98 47.71 81.05L47.71 81.05ZM56.25 81.37L56.25 81.37Q56.25 87.24 58.68 90.56Q61.10 93.88 65.43 93.88Q69.75 93.88 72.16 90.51Q74.57 87.13 74.57 80.63L74.57 80.63Q74.57 74.86 72.09 71.49Q69.61 68.11 65.36 68.11L65.36 68.11Q61.17 68.11 58.71 71.44Q56.25 74.76 56.25 81.37ZM123.68 80.88L123.68 81.37Q123.68 90.23 119.72 95.46Q115.77 100.70 108.84 100.70L108.84 100.70Q102.16 100.70 98.44 95.89L98.44 95.89L98.02 100L90.28 100L90.28 46L98.82 46L98.82 65.62Q102.52 61.26 108.77 61.26L108.77 61.26Q115.73 61.26 119.71 66.43Q123.68 71.59 123.68 80.88L123.68 80.88ZM115.14 81.72L115.14 80.63Q115.14 74.44 112.96 71.35Q110.78 68.25 106.63 68.25L106.63 68.25Q101.07 68.25 98.82 73.11L98.82 73.11L98.82 88.79Q101.11 93.74 106.70 93.74L106.70 93.74Q110.71 93.74 112.89 90.75Q115.07 87.77 115.14 81.72L115.14 81.72ZM129.23 81.05L129.23 80.63Q129.23 75.04 131.45 70.56Q133.66 66.07 137.67 63.67Q141.68 61.26 146.88 61.26L146.88 61.26Q154.58 61.26 159.38 66.21Q164.18 71.17 164.57 79.36L164.57 79.36L164.60 81.37Q164.60 86.99 162.44 91.42Q160.28 95.85 156.25 98.28Q152.23 100.70 146.95 100.70L146.95 100.70Q138.90 100.70 134.07 95.34Q129.23 89.98 129.23 81.05L129.23 81.05ZM137.78 81.37L137.78 81.37Q137.78 87.24 140.20 90.56Q142.63 93.88 146.95 93.88Q151.28 93.88 153.69 90.51Q156.09 87.13 156.09 80.63L156.09 80.63Q156.09 74.86 153.62 71.49Q151.14 68.11 146.88 68.11L146.88 68.11Q142.70 68.11 140.24 71.44Q137.78 74.76 137.78 81.37ZM173.99 52.71L182.53 52.71L182.53 61.96L189.25 61.96L189.25 68.29L182.53 68.29L182.53 89.52Q182.53 91.70 183.39 92.67Q184.25 93.64 186.47 93.64L186.47 93.64Q187.95 93.64 189.46 93.29L189.46 93.29L189.46 99.89Q186.54 100.70 183.83 100.70L183.83 100.70Q173.99 100.70 173.99 89.84L173.99 89.84L173.99 68.29L167.73 68.29L167.73 61.96L173.99 61.96L173.99 52.71ZM193.11 81.05L193.11 80.63Q193.11 75.04 195.33 70.56Q197.54 66.07 201.55 63.67Q205.56 61.26 210.76 61.26L210.76 61.26Q218.46 61.26 223.26 66.21Q228.06 71.17 228.45 79.36L228.45 79.36L228.48 81.37Q228.48 86.99 226.32 91.42Q224.16 95.85 220.13 98.28Q216.11 100.70 210.83 100.70L210.83 100.70Q202.78 100.70 197.95 95.34Q193.11 89.98 193.11 81.05L193.11 81.05ZM201.66 81.37L201.66 81.37Q201.66 87.24 204.08 90.56Q206.51 93.88 210.83 93.88Q215.16 93.88 217.56 90.51Q219.97 87.13 219.97 80.63L219.97 80.63Q219.97 74.86 217.49 71.49Q215.02 68.11 210.76 68.11L210.76 68.11Q206.58 68.11 204.12 71.44Q201.66 74.76 201.66 81.37ZM253.62 61.96L261.67 61.96L261.91 65.93Q265.92 61.26 272.88 61.26L272.88 61.26Q280.51 61.26 283.32 67.09L283.32 67.09Q287.47 61.26 295.00 61.26L295.00 61.26Q301.29 61.26 304.37 64.74Q307.44 68.22 307.51 75.00L307.51 75.00L307.51 100L298.97 100L298.97 75.25Q298.97 71.63 297.39 69.94Q295.80 68.25 292.15 68.25L292.15 68.25Q289.23 68.25 287.38 69.82Q285.54 71.38 284.80 73.91L284.80 73.91L284.84 100L276.29 100L276.29 74.97Q276.12 68.25 269.44 68.25L269.44 68.25Q264.30 68.25 262.16 72.44L262.16 72.44L262.16 100L253.62 100L253.62 61.96ZM333.04 100.70L333.04 100.70Q324.91 100.70 319.87 95.59Q314.82 90.47 314.82 81.96L314.82 81.96L314.82 80.91Q314.82 75.21 317.02 70.73Q319.22 66.25 323.19 63.75Q327.16 61.26 332.05 61.26L332.05 61.26Q339.82 61.26 344.06 66.21Q348.29 71.17 348.29 80.24L348.29 80.24L348.29 83.69L323.44 83.69Q323.82 88.40 326.58 91.14Q329.34 93.88 333.53 93.88L333.53 93.88Q339.40 93.88 343.09 89.14L343.09 89.14L347.70 93.53Q345.41 96.94 341.60 98.82Q337.78 100.70 333.04 100.70ZM332.02 68.11L332.02 68.11Q328.50 68.11 326.34 70.57Q324.18 73.04 323.58 77.43L323.58 77.43L339.86 77.43L339.86 76.80Q339.57 72.51 337.57 70.31Q335.57 68.11 332.02 68.11ZM353.32 80.70L353.32 80.70Q353.32 71.91 357.40 66.58Q361.48 61.26 368.33 61.26L368.33 61.26Q374.38 61.26 378.11 65.48L378.11 65.48L378.11 46L386.65 46L386.65 100L378.91 100L378.49 96.06Q374.66 100.70 368.26 100.70L368.26 100.70Q361.58 100.70 357.45 95.32Q353.32 89.95 353.32 80.70ZM361.86 81.44L361.86 81.44Q361.86 87.24 364.10 90.49Q366.33 93.74 370.44 93.74L370.44 93.74Q375.68 93.74 378.11 89.07L378.11 89.07L378.11 72.82Q375.75 68.25 370.51 68.25L370.51 68.25Q366.36 68.25 364.11 71.54Q361.86 74.83 361.86 81.44ZM404.65 61.96L404.65 100L396.11 100L396.11 61.96L404.65 61.96ZM395.58 52.08L395.58 52.08Q395.58 50.11 396.83 48.81Q398.07 47.51 400.39 47.51Q402.71 47.51 403.98 48.81Q405.25 50.11 405.25 52.08L405.25 52.08Q405.25 54.02 403.98 55.30Q402.71 56.58 400.39 56.58Q398.07 56.58 396.83 55.30Q395.58 54.02 395.58 52.08ZM437.20 100L436.99 96.27Q433.23 100.70 426.30 100.70L426.30 100.70Q420.12 100.70 416.94 97.08Q413.75 93.46 413.75 86.61L413.75 86.61L413.75 61.96L422.30 61.96L422.30 86.50Q422.30 93.74 428.31 93.74L428.31 93.74Q434.53 93.74 436.71 89.28L436.71 89.28L436.71 61.96L445.25 61.96L445.25 100L437.20 100ZM453.94 61.96L461.99 61.96L462.23 65.93Q466.24 61.26 473.20 61.26L473.20 61.26Q480.83 61.26 483.64 67.09L483.64 67.09Q487.79 61.26 495.32 61.26L495.32 61.26Q501.61 61.26 504.69 64.74Q507.76 68.22 507.83 75.00L507.83 75.00L507.83 100L499.29 100L499.29 75.25Q499.29 71.63 497.71 69.94Q496.13 68.25 492.47 68.25L492.47 68.25Q489.55 68.25 487.71 69.82Q485.86 71.38 485.12 73.91L485.12 73.91L485.16 100L476.61 100L476.61 74.97Q476.44 68.25 469.76 68.25L469.76 68.25Q464.63 68.25 462.48 72.44L462.48 72.44L462.48 100L453.94 100L453.94 61.96Z"/></svg>