<svg xmlns="http://www.w3.org/2000/svg" viewBox="6.36328125 46 225.80859375 100.703125"><path d="M37.97 100L25.59 78.70L10.72 78.70L10.72 100L6.36 100L6.36 48.81L22.99 48.81Q31.18 48.81 35.79 52.79Q40.39 56.76 40.39 63.89L40.39 63.89Q40.39 68.82 37.51 72.58Q34.63 76.34 29.78 77.78L29.78 77.78L42.57 99.54L42.57 100L37.97 100ZM10.72 52.50L10.72 75.00L23.98 75.00Q29.43 75.00 32.73 71.91Q36.04 68.82 36.04 63.89L36.04 63.89Q36.04 58.48 32.59 55.49Q29.14 52.50 22.92 52.50L22.92 52.50L10.72 52.50ZM48.87 81.26L48.87 80.42Q48.87 74.93 50.99 70.54Q53.12 66.14 57.01 63.70Q60.89 61.26 65.81 61.26L65.81 61.26Q73.41 61.26 78.12 66.58Q82.83 71.91 82.83 80.70L82.83 80.70L82.83 81.58Q82.83 87.10 80.70 91.51Q78.57 95.92 74.71 98.31Q70.84 100.70 65.88 100.70L65.88 100.70Q58.32 100.70 53.60 95.38Q48.87 90.05 48.87 81.26L48.87 81.26ZM53.09 80.80L53.09 81.58Q53.09 88.40 56.62 92.78Q60.15 97.15 65.88 97.15L65.88 97.15Q71.58 97.15 75.11 92.78Q78.64 88.40 78.64 81.23L78.64 81.23L78.64 80.42Q78.64 76.06 77.03 72.44Q75.41 68.82 72.49 66.83Q69.57 64.84 65.81 64.84L65.81 64.84Q60.19 64.84 56.64 69.26Q53.09 73.67 53.09 80.80L53.09 80.80ZM122.13 80.73L122.13 81.37Q122.13 90.26 118.20 95.48Q114.26 100.70 107.61 100.70L107.61 100.70Q99.67 100.70 95.59 94.80L95.59 94.80L95.41 100L91.48 100L91.48 46L95.66 46L95.66 67.48Q99.67 61.26 107.54 61.26L107.54 61.26Q114.29 61.26 118.21 66.41Q122.13 71.56 122.13 80.73L122.13 80.73ZM117.91 80.63L117.91 80.63Q117.91 73.11 115.00 69.01Q112.08 64.91 106.77 64.91L106.77 64.91Q102.73 64.91 99.91 66.90Q97.10 68.89 95.66 72.72L95.66 72.72L95.66 89.88Q98.82 97.05 106.84 97.05L106.84 97.05Q112.04 97.05 114.98 92.93Q117.91 88.82 117.91 80.63ZM129.09 81.26L129.09 80.42Q129.09 74.93 131.22 70.54Q133.35 66.14 137.23 63.70Q141.12 61.26 146.04 61.26L146.04 61.26Q153.63 61.26 158.34 66.58Q163.05 71.91 163.05 80.70L163.05 80.70L163.05 81.58Q163.05 87.10 160.93 91.51Q158.80 95.92 154.93 98.31Q151.07 100.70 146.11 100.70L146.11 100.70Q138.55 100.70 133.82 95.38Q129.09 90.05 129.09 81.26L129.09 81.26ZM133.31 80.80L133.31 81.58Q133.31 88.40 136.85 92.78Q140.38 97.15 146.11 97.15L146.11 97.15Q151.80 97.15 155.34 92.78Q158.87 88.40 158.87 81.23L158.87 81.23L158.87 80.42Q158.87 76.06 157.25 72.44Q155.64 68.82 152.72 66.83Q149.80 64.84 146.04 64.84L146.04 64.84Q140.41 64.84 136.86 69.26Q133.31 73.67 133.31 80.80L133.31 80.80ZM174.06 52.22L178.28 52.22L178.28 61.96L186.15 61.96L186.15 65.41L178.28 65.41L178.28 90.75Q178.28 93.92 179.42 95.46Q180.56 97.01 183.23 97.01L183.23 97.01Q184.29 97.01 186.64 96.66L186.64 96.66L186.82 100.11Q185.17 100.70 182.32 100.70L182.32 100.70Q178.00 100.70 176.03 98.19Q174.06 95.68 174.06 90.79L174.06 90.79L174.06 65.41L167.06 65.41L167.06 61.96L174.06 61.96L174.06 52.22ZM191.85 81.26L191.85 80.42Q191.85 74.93 193.97 70.54Q196.10 66.14 199.99 63.70Q203.87 61.26 208.79 61.26L208.79 61.26Q216.39 61.26 221.10 66.58Q225.81 71.91 225.81 80.70L225.81 80.70L225.81 81.58Q225.81 87.10 223.68 91.51Q221.55 95.92 217.69 98.31Q213.82 100.70 208.86 100.70L208.86 100.70Q201.30 100.70 196.58 95.38Q191.85 90.05 191.85 81.26L191.85 81.26ZM196.07 80.80L196.07 81.58Q196.07 88.40 199.60 92.78Q203.13 97.15 208.86 97.15L208.86 97.15Q214.56 97.15 218.09 92.78Q221.63 88.40 221.63 81.23L221.63 81.23L221.63 80.42Q221.63 76.06 220.01 72.44Q218.39 68.82 215.47 66.83Q212.55 64.84 208.79 64.84L208.79 64.84Q203.17 64.84 199.62 69.26Q196.07 73.67 196.07 80.80L196.07 80.80Z"/></svg>