<svg xmlns="http://www.w3.org/2000/svg" viewBox="1.37109375 46 669.4453125 54.74300373134328"><path d="M29.81 100L23.27 80.28L13.50 80.28L10.05 100L1.37 100L10.27 48.81L26.40 48.85Q34.73 48.85 39.16 52.86Q43.59 56.86 43.00 64L43.00 64Q42.61 68.96 39.69 72.60Q36.77 76.23 31.50 78.31L31.50 78.31L39.06 99.47L39.02 100L29.81 100ZM17.68 55.98L14.70 73.14L23.10 73.21Q27.63 73.21 30.67 70.84Q33.71 68.46 34.24 64.39L34.24 64.39Q34.77 60.41 32.84 58.29Q30.90 56.16 26.96 56.02L26.96 56.02L17.68 55.98ZM46.41 81.58L46.51 80.84Q47.11 75.25 49.80 70.68Q52.49 66.11 56.71 63.61Q60.93 61.12 66.06 61.26L66.06 61.26Q70.95 61.33 74.50 63.86Q78.05 66.39 79.68 70.79Q81.32 75.18 80.82 80.56L80.82 80.56Q80.26 86.61 77.54 91.25Q74.81 95.89 70.58 98.37Q66.34 100.84 61.17 100.70L61.17 100.70Q56.32 100.63 52.79 98.12Q49.25 95.61 47.60 91.23Q45.95 86.85 46.41 81.58L46.41 81.58ZM54.70 85.66L54.70 85.66Q54.88 89.35 56.65 91.58Q58.43 93.81 61.59 93.92L61.59 93.92Q65.88 94.02 68.78 90.61Q71.68 87.20 72.42 81.30L72.42 81.30L72.63 77.85Q72.63 73.35 70.84 70.79Q69.05 68.22 65.64 68.08L65.64 68.08Q60.29 67.94 57.20 73.32L57.20 73.32Q55.34 76.59 54.84 80.84L54.84 80.84Q54.56 83.79 54.70 85.66ZM120.30 81.16L120.30 81.16Q119.60 86.96 117.19 91.65Q114.79 96.34 111.22 98.59Q107.65 100.84 103.18 100.74L103.18 100.74Q96.82 100.60 93.59 95.85L93.59 95.85L92.25 100L84.62 100L93.97 46L102.34 46L98.54 65.65Q102.80 61.12 108.63 61.26L108.63 61.26Q114.15 61.40 117.26 65.30Q120.38 69.20 120.55 75.99L120.55 75.99Q120.59 78.10 120.30 81.16ZM112.29 76.45L112.29 76.45Q112.29 72.61 110.71 70.45Q109.13 68.29 106.14 68.22L106.14 68.22Q101.11 68.08 97.63 73.07L97.63 73.07L94.89 88.82Q96.43 93.60 101.53 93.78L101.53 93.78Q105.75 93.88 108.47 90.54Q111.20 87.20 111.97 81.12L111.97 81.12Q112.25 78.13 112.29 76.45ZM126.18 81.58L126.28 80.84Q126.88 75.25 129.57 70.68Q132.26 66.11 136.48 63.61Q140.70 61.12 145.83 61.26L145.83 61.26Q150.71 61.33 154.27 63.86Q157.82 66.39 159.45 70.79Q161.09 75.18 160.59 80.56L160.59 80.56Q160.03 86.61 157.31 91.25Q154.58 95.89 150.35 98.37Q146.11 100.84 140.94 100.70L140.94 100.70Q136.09 100.63 132.56 98.12Q129.02 95.61 127.37 91.23Q125.72 86.85 126.18 81.58L126.18 81.58ZM134.47 85.66L134.47 85.66Q134.65 89.35 136.42 91.58Q138.20 93.81 141.36 93.92L141.36 93.92Q145.65 94.02 148.55 90.61Q151.45 87.20 152.19 81.30L152.19 81.30L152.40 77.85Q152.40 73.35 150.61 70.79Q148.82 68.22 145.41 68.08L145.41 68.08Q140.06 67.94 136.97 73.32L136.97 73.32Q135.11 76.59 134.61 80.84L134.61 80.84Q134.33 83.79 134.47 85.66ZM174.69 52.71L183.06 52.71L181.44 61.96L187.95 61.96L186.86 68.29L180.32 68.29L176.73 89.59Q176.63 90.47 176.70 91.18L176.70 91.18Q176.91 93.46 179.51 93.57L179.51 93.57Q180.81 93.57 182.46 93.25L182.46 93.25L181.90 99.93Q179.30 100.67 176.66 100.67L176.66 100.67Q172.30 100.60 170.14 97.70Q167.98 94.80 168.43 90.02L168.43 90.02L171.98 68.29L165.90 68.29L167.03 61.96L173.07 61.96L174.69 52.71ZM188.82 81.58L188.93 80.84Q189.53 75.25 192.22 70.68Q194.91 66.11 199.13 63.61Q203.34 61.12 208.48 61.26L208.48 61.26Q213.36 61.33 216.91 63.86Q220.46 66.39 222.10 70.79Q223.73 75.18 223.24 80.56L223.24 80.56Q222.68 86.61 219.96 91.25Q217.23 95.89 212.99 98.37Q208.76 100.84 203.59 100.70L203.59 100.70Q198.74 100.63 195.21 98.12Q191.67 95.61 190.02 91.23Q188.37 86.85 188.82 81.58L188.82 81.58ZM197.12 85.66L197.12 85.66Q197.30 89.35 199.07 91.58Q200.85 93.81 204.01 93.92L204.01 93.92Q208.30 94.02 211.20 90.61Q214.10 87.20 214.84 81.30L214.84 81.30L215.05 77.85Q215.05 73.35 213.26 70.79Q211.46 68.22 208.05 68.08L208.05 68.08Q202.71 67.94 199.62 73.32L199.62 73.32Q197.75 76.59 197.26 80.84L197.26 80.84Q196.98 83.79 197.12 85.66ZM251.37 61.96L259.17 61.93L258.43 65.97Q263.14 61.12 269.68 61.26L269.68 61.26Q273.27 61.33 275.64 62.91Q278.02 64.49 278.86 67.09L278.86 67.09Q284.13 61.12 290.95 61.26L290.95 61.26Q296.51 61.40 299.20 65.07Q301.89 68.75 301.22 75.36L301.22 75.36L297.11 100L288.77 100L292.92 75.29Q293.10 73.74 292.96 72.44L292.96 72.44Q292.39 68.32 287.75 68.22L287.75 68.22Q282.59 68.08 279.60 73.88L279.60 73.88L279.49 74.65L275.13 100L266.77 100L270.91 75.39Q271.09 73.88 270.95 72.58L270.95 72.58Q270.39 68.32 265.75 68.22L265.75 68.22Q261.07 68.15 257.94 72.40L257.94 72.40L253.13 100L244.79 100L251.37 61.96ZM323.16 100.70L323.16 100.70Q318.20 100.60 314.56 98.21Q310.92 95.82 309.18 91.67Q307.44 87.52 307.86 82.42L307.86 82.42L307.97 80.98Q308.60 75.18 311.36 70.56Q314.12 65.93 318.23 63.54Q322.35 61.15 327.16 61.26L327.16 61.26Q334.30 61.40 337.87 66.57Q341.44 71.73 340.56 80.03L340.56 80.03L340.07 83.69L316.13 83.69Q315.81 88.22 317.95 91Q320.10 93.78 323.86 93.85L323.86 93.85Q329.24 94.02 333.77 89.17L333.77 89.17L337.99 93.60Q335.60 97.01 331.70 98.89Q327.80 100.77 323.16 100.70ZM326.71 68.08L326.71 68.08Q320.10 67.87 316.79 77.43L316.79 77.43L332.58 77.46L332.72 76.73Q332.96 75.11 332.75 73.56L332.75 73.56Q332.37 71.07 330.79 69.63Q329.20 68.18 326.71 68.08ZM345.48 81.68L345.59 80.95Q346.29 75.07 348.75 70.40Q351.21 65.72 354.83 63.42Q358.45 61.12 362.88 61.22L362.88 61.22Q368.68 61.36 371.95 65.55L371.95 65.55L375.61 46L383.98 46L374.59 100L367.14 100L367.70 96.06Q363.27 100.88 357.29 100.74L357.29 100.74Q351.98 100.67 348.80 96.64Q345.62 92.62 345.38 85.94L345.38 85.94Q345.27 83.76 345.48 81.68L345.48 81.68ZM353.67 84.21L353.67 84.21Q353.43 88.57 355.03 91.14Q356.63 93.71 359.79 93.78L359.79 93.78Q364.61 93.92 368.12 89.10L368.12 89.10L370.97 72.75Q369.32 68.36 364.57 68.22L364.57 68.22Q359.79 68.08 356.87 72.44Q353.95 76.80 353.67 84.21ZM398.99 61.96L392.38 100L384.05 100L390.66 61.96L398.99 61.96ZM391.85 52.22L391.85 52.22Q391.85 50.29 393.12 48.92Q394.38 47.55 396.53 47.48L396.53 47.48Q398.57 47.41 399.92 48.72Q401.27 50.04 401.27 51.94L401.27 51.94Q401.27 53.95 399.96 55.25Q398.64 56.55 396.60 56.62L396.60 56.62Q394.59 56.69 393.22 55.40Q391.85 54.12 391.85 52.22ZM424.48 100L425.21 96.24Q420.89 100.84 414.39 100.70L414.39 100.70Q410.70 100.63 408.25 98.88Q405.81 97.12 404.77 93.97Q403.73 90.82 404.16 86.57L404.16 86.57L408.27 61.96L416.60 61.96L412.45 86.68Q412.31 87.98 412.42 89.21L412.42 89.21Q412.77 93.57 416.81 93.74L416.81 93.74Q422.33 93.95 425.74 89.31L425.74 89.31L430.52 61.96L438.86 61.96L432.28 100L424.48 100ZM447.43 61.96L455.24 61.93L454.50 65.97Q459.21 61.12 465.75 61.26L465.75 61.26Q469.34 61.33 471.71 62.91Q474.08 64.49 474.93 67.09L474.93 67.09Q480.20 61.12 487.02 61.26L487.02 61.26Q492.57 61.40 495.26 65.07Q497.95 68.75 497.29 75.36L497.29 75.36L493.17 100L484.84 100L488.99 75.29Q489.16 73.74 489.02 72.44L489.02 72.44Q488.46 68.32 483.82 68.22L483.82 68.22Q478.65 68.08 475.66 73.88L475.66 73.88L475.56 74.65L471.20 100L462.83 100L466.98 75.39Q467.16 73.88 467.02 72.58L467.02 72.58Q466.45 68.32 461.81 68.22L461.81 68.22Q457.14 68.15 454.01 72.40L454.01 72.40L449.19 100L440.86 100L447.43 61.96ZM535.22 61.96L528.61 100L520.28 100L526.89 61.96L535.22 61.96ZM528.08 52.22L528.08 52.22Q528.08 50.29 529.35 48.92Q530.61 47.55 532.76 47.48L532.76 47.48Q534.80 47.41 536.15 48.72Q537.50 50.04 537.50 51.94L537.50 51.94Q537.50 53.95 536.19 55.25Q534.87 56.55 532.83 56.62L532.83 56.62Q530.82 56.69 529.45 55.40Q528.08 54.12 528.08 52.22ZM548.23 52.71L556.59 52.71L554.98 61.96L561.48 61.96L560.39 68.29L553.85 68.29L550.27 89.59Q550.16 90.47 550.23 91.18L550.23 91.18Q550.44 93.46 553.04 93.57L553.04 93.57Q554.34 93.57 556.00 93.25L556.00 93.25L555.43 99.93Q552.83 100.67 550.20 100.67L550.20 100.67Q545.84 100.60 543.67 97.70Q541.51 94.80 541.97 90.02L541.97 90.02L545.52 68.29L539.44 68.29L540.56 61.96L546.61 61.96L548.23 52.71ZM592.38 100L584.12 100Q583.70 98.59 583.77 96.45L583.77 96.45Q579.06 100.84 573.61 100.70L573.61 100.70Q568.65 100.63 565.40 97.52Q562.15 94.41 562.36 89.63L562.36 89.63Q562.64 83.62 567.56 80.17Q572.48 76.73 580.78 76.73L580.78 76.73L586.20 76.80L586.69 74.20Q586.90 72.82 586.69 71.63L586.69 71.63Q585.98 67.83 581.66 67.73L581.66 67.73Q578.99 67.66 576.97 69.08Q574.95 70.50 574.49 72.89L574.49 72.89L566.16 72.96Q566.40 69.45 568.65 66.79Q570.90 64.14 574.63 62.66Q578.36 61.19 582.50 61.26L582.50 61.26Q588.73 61.40 592.21 65.00Q595.69 68.61 595.09 74.34L595.09 74.34L592.17 92.16L591.89 95.32Q591.79 97.40 592.42 99.37L592.42 99.37L592.38 100ZM575.54 93.88L575.54 93.88Q578.18 93.95 580.43 92.67Q582.68 91.39 584.26 89.35L584.26 89.35L585.56 82.14L581.59 82.11Q576.88 82.11 574.07 83.88Q571.25 85.66 570.87 88.75L570.87 88.75Q570.59 91.11 571.90 92.46Q573.22 93.81 575.54 93.88ZM617.91 46L608.52 100L600.19 100L609.57 46L617.91 46ZM633.30 61.96L626.70 100L618.36 100L624.97 61.96L633.30 61.96ZM626.17 52.22L626.17 52.22Q626.17 50.29 627.43 48.92Q628.70 47.55 630.84 47.48L630.84 47.48Q632.88 47.41 634.24 48.72Q635.59 50.04 635.59 51.94L635.59 51.94Q635.59 53.95 634.27 55.25Q632.95 56.55 630.91 56.62L630.91 56.62Q628.91 56.69 627.54 55.40Q626.17 54.12 626.17 52.22ZM652.61 93.92L652.61 93.92Q655.59 93.99 657.90 92.18Q660.20 90.37 660.83 87.45L660.83 87.45L668.71 87.41Q668.32 91.18 665.98 94.27Q663.64 97.36 659.99 99.09Q656.33 100.81 652.36 100.70L652.36 100.70Q647.47 100.63 644.03 98.17Q640.58 95.71 639 91.37Q637.42 87.03 637.95 81.68L637.95 81.68L638.05 80.45Q638.65 74.93 641.27 70.45Q643.89 65.97 648.04 63.54Q652.18 61.12 657.25 61.26L657.25 61.26Q663.43 61.40 667.13 65.35Q670.82 69.31 670.82 75.64L670.82 75.64L663.01 75.64Q663.01 72.37 661.41 70.29Q659.81 68.22 656.79 68.08L656.79 68.08Q651.90 67.94 649.09 72.23Q646.28 76.52 646.07 84.32L646.07 84.32Q645.82 93.78 652.61 93.92Z"/></svg>