<svg xmlns="http://www.w3.org/2000/svg" viewBox="0.1025390625 -7.5 31.0553515625 7.6025390625"><path d="M3.99 0L3.15-2.60L1.99-2.60L1.53 0L0.10 0L1.34-7.11L3.69-7.10Q4.87-7.10 5.51-6.55Q6.15-5.99 6.07-5L6.07-5Q5.97-3.54 4.51-2.96L4.51-2.96L5.51-0.08L5.51 0L3.99 0ZM2.56-5.92L2.19-3.79L3.26-3.78Q3.82-3.79 4.19-4.08Q4.56-4.38 4.63-4.89L4.63-4.89Q4.70-5.36 4.48-5.63Q4.26-5.90 3.78-5.92L3.78-5.92L2.56-5.92ZM9.28-5.38L9.28-5.38Q9.98-5.37 10.48-5.02Q10.99-4.67 11.22-4.06Q11.46-3.45 11.39-2.70L11.39-2.70Q11.28-1.44 10.52-0.66Q9.75 0.12 8.63 0.10L8.63 0.10Q7.94 0.09 7.44-0.26Q6.93-0.60 6.69-1.21Q6.46-1.82 6.52-2.56L6.52-2.56Q6.65-3.87 7.41-4.64Q8.17-5.41 9.28-5.38ZM7.89-2.06L7.89-2.06Q7.90-1.59 8.11-1.32Q8.32-1.04 8.70-1.04L8.70-1.04Q9.33-1.02 9.69-1.62Q10.05-2.22 10.03-3.20L10.03-3.20Q10.01-3.67 9.80-3.95Q9.59-4.23 9.21-4.24L9.21-4.24Q8.59-4.26 8.23-3.66Q7.86-3.07 7.89-2.06ZM16.87-2.63L16.87-2.63Q16.72-1.38 16.10-0.63Q15.49 0.13 14.51 0.10L14.51 0.10Q13.68 0.08 13.24-0.57L13.24-0.57L13.04 0L11.79 0L13.09-7.50L14.47-7.50L13.94-4.80Q14.49-5.40 15.22-5.38L15.22-5.38Q15.99-5.37 16.43-4.83Q16.87-4.29 16.89-3.34L16.89-3.34Q16.90-3.04 16.87-2.63ZM15.47-2.51L15.50-2.73Q15.54-3.14 15.53-3.37L15.53-3.37Q15.47-4.22 14.82-4.24L14.82-4.24Q14.21-4.26 13.81-3.69L13.81-3.69L13.43-1.59Q13.62-1.06 14.22-1.04L14.22-1.04Q15.24-1.01 15.47-2.51L15.47-2.51ZM20.32-5.38L20.32-5.38Q21.02-5.37 21.52-5.02Q22.03-4.67 22.26-4.06Q22.50-3.45 22.43-2.70L22.43-2.70Q22.32-1.44 21.56-0.66Q20.79 0.12 19.67 0.10L19.67 0.10Q18.98 0.09 18.48-0.26Q17.97-0.60 17.73-1.21Q17.50-1.82 17.56-2.56L17.56-2.56Q17.69-3.87 18.45-4.64Q19.21-5.41 20.32-5.38ZM18.93-2.06L18.93-2.06Q18.94-1.59 19.15-1.32Q19.36-1.04 19.74-1.04L19.74-1.04Q20.37-1.02 20.73-1.62Q21.09-2.22 21.07-3.20L21.07-3.20Q21.05-3.67 20.84-3.95Q20.63-4.23 20.25-4.24L20.25-4.24Q19.63-4.26 19.27-3.66Q18.90-3.07 18.93-2.06ZM24.24-6.58L25.62-6.58L25.39-5.28L26.27-5.28L26.09-4.25L25.21-4.25L24.76-1.60Q24.73-1.35 24.80-1.22Q24.87-1.09 25.13-1.08L25.13-1.08Q25.21-1.07 25.55-1.10L25.55-1.10L25.45-0.02Q25.09 0.10 24.66 0.09L24.66 0.09Q23.98 0.08 23.65-0.34Q23.32-0.75 23.38-1.46L23.38-1.46L23.83-4.25L23.09-4.25L23.27-5.28L24.01-5.28L24.24-6.58ZM29.03-5.38L29.03-5.38Q29.73-5.37 30.23-5.02Q30.74-4.67 30.97-4.06Q31.21-3.45 31.14-2.70L31.14-2.70Q31.03-1.44 30.27-0.66Q29.50 0.12 28.38 0.10L28.38 0.10Q27.69 0.09 27.19-0.26Q26.68-0.60 26.45-1.21Q26.21-1.82 26.27-2.56L26.27-2.56Q26.40-3.87 27.16-4.64Q27.92-5.41 29.03-5.38ZM27.64-2.06L27.64-2.06Q27.65-1.59 27.86-1.32Q28.07-1.04 28.45-1.04L28.45-1.04Q29.08-1.02 29.44-1.62Q29.80-2.22 29.78-3.20L29.78-3.20Q29.76-3.67 29.55-3.95Q29.35-4.23 28.96-4.24L28.96-4.24Q28.34-4.26 27.98-3.66Q27.61-3.07 27.64-2.06Z"/></svg>