<svg xmlns="http://www.w3.org/2000/svg" viewBox="2.07421875 46 797.5879934210527 69.19545390271493"><path d="M28 100L21 79L10 79L6 100L2 100L11 49L24 49Q30 49 34 53Q37 57 36 64L36 64Q36 69 33 72Q30 76 25 78L25 78L32 100L32 100L28 100ZM14 53L10 75L21 75Q25 75 29 72Q32 69 32 64L32 64Q33 59 31 56Q29 53 24 53L24 53L14 53ZM58 61L58 61Q64 61 66 65Q69 69 69 75L69 75Q70 78 69 83L69 83Q68 92 63 96Q59 101 53 101L53 101Q48 101 45 97Q42 94 42 88L42 88L42 87Q41 84 42 79Q43 73 45 69Q47 65 51 63Q54 61 58 61ZM46 84L45 86Q45 91 47 94Q49 97 53 97L53 97Q58 97 61 94Q64 90 65 83L65 83L65 79L66 76Q66 71 64 68Q62 65 58 65L58 65Q53 65 50 69Q47 73 46 80L46 80L46 84ZM88 101L88 101Q85 101 83 99Q81 98 80 95L80 95L78 100L75 100L84 46L88 46L84 67Q88 61 94 61L94 61Q99 61 102 65Q104 69 104 75L104 75Q104 78 103 83L103 83Q102 92 98 96Q94 101 88 101ZM99 84L100 79Q100 75 100 73L100 73Q100 69 98 67Q96 65 93 65L93 65Q87 65 83 72L83 72L80 91Q82 97 88 97L88 97Q97 97 99 84L99 84ZM127 61L127 61Q133 61 135 65Q138 69 138 75L138 75Q138 78 138 83L138 83Q136 92 132 96Q128 101 122 101L122 101Q117 101 114 97Q111 94 111 88L111 88L111 87Q110 84 111 79Q112 73 114 69Q116 65 120 63Q123 61 127 61ZM115 84L114 86Q114 91 116 94Q118 97 122 97L122 97Q126 97 130 94Q133 90 134 83L134 83L134 79L135 76Q135 71 133 68Q131 65 127 65L127 65Q122 65 119 69Q116 73 115 80L115 80L115 84ZM154 52L158 52L156 62L162 62L162 65L155 65L151 91L151 93Q151 97 154 97L154 97L157 97L156 100Q155 101 153 101L153 101Q150 101 149 99Q147 97 147 94L147 94Q147 92 147 91L147 91L152 65L146 65L146 62L152 62L154 52ZM182 61L182 61Q187 61 190 65Q193 69 193 75L193 75Q193 78 192 83L192 83Q191 92 187 96Q182 101 176 101L176 101Q171 101 169 97Q166 94 165 88L165 88L165 87Q165 84 166 79Q167 73 169 69Q171 65 174 63Q178 61 182 61ZM169 84L169 86Q169 91 171 94Q173 97 176 97L176 97Q181 97 184 94Q187 90 188 83L188 83L189 79L189 76Q189 71 187 68Q185 65 182 65L182 65Q177 65 174 69Q171 73 170 80L170 80L169 84ZM244 84L248 84Q246 92 241 97Q237 101 230 101L230 101Q224 101 221 97Q218 93 217 86L217 86L217 84Q217 82 217 80L217 80L219 69Q221 59 226 53Q231 48 238 48L238 48Q245 48 248 53Q251 57 251 65L251 65L247 65Q247 58 245 55Q243 52 238 52L238 52Q232 52 228 56Q224 60 223 69L223 69L221 81L221 83Q221 87 222 90Q223 93 225 95Q227 97 230 97L230 97Q235 97 239 94Q242 91 244 84L244 84ZM272 61L272 61Q278 61 280 65Q283 69 283 75L283 75Q284 78 283 83L283 83Q281 92 277 96Q273 101 267 101L267 101Q262 101 259 97Q256 94 256 88L256 88L256 87Q255 84 256 79Q257 73 259 69Q261 65 265 63Q268 61 272 61ZM260 84L259 86Q259 91 261 94Q263 97 267 97L267 97Q271 97 275 94Q278 90 279 83L279 83L279 79L280 76Q280 71 278 68Q276 65 272 65L272 65Q267 65 264 69Q261 73 260 80L260 80L260 84ZM295 62L299 62L298 68Q302 61 309 61L309 61Q316 61 317 70L317 70L317 72L316 75L312 100L308 100L313 75L313 73Q313 65 307 65L307 65Q304 65 301 67Q298 70 297 74L297 74L293 100L289 100L295 62ZM340 61L340 61Q346 62 348 67L348 67L352 46L356 46L347 100L343 100L344 95Q340 101 334 101L334 101Q329 101 327 97Q324 93 324 87L324 87Q324 84 325 79L325 79Q326 70 330 65Q334 61 340 61ZM329 79L328 83Q328 87 328 89L328 89Q329 97 335 97L335 97Q340 97 344 91L344 91L348 71Q346 65 340 65L340 65Q331 65 329 79L329 79ZM370 101L370 101Q364 101 361 96Q358 91 359 83L359 83L359 80Q360 71 365 66Q369 61 375 61L375 61Q380 61 383 64Q385 67 385 72L385 72Q386 75 385 78L385 78L385 81L363 81L363 84Q362 86 363 88L363 88Q363 92 365 95Q367 97 370 97L370 97Q373 97 376 96Q378 95 380 93L380 93L382 96Q377 101 370 101ZM375 65L375 65Q371 65 368 68Q365 71 363 78L363 78L381 78L382 77Q382 75 382 73L382 73Q382 69 380 67Q378 65 375 65ZM396 62L400 62L398 68Q403 61 409 61L409 61Q416 61 417 70L417 70L417 72L417 75L413 100L409 100L413 75L413 73Q414 65 408 65L408 65Q405 65 402 67Q399 70 398 74L398 74L393 100L389 100L396 62ZM444 90L444 90Q444 87 439 84L439 84L437 82L433 80Q428 77 428 72L428 72Q428 67 432 64Q435 61 440 61L440 61Q445 61 448 64Q451 68 450 72L450 72L447 72Q447 69 445 67Q443 65 440 65L440 65Q437 65 435 67Q432 69 432 72L432 72Q431 75 436 77L436 77L442 81Q448 84 448 90L448 90Q447 95 444 98Q440 101 435 101L435 101Q430 101 427 98Q423 95 424 90L424 90L428 90Q428 93 429 95Q431 97 435 97L435 97Q438 97 441 95Q443 93 444 90ZM468 101L468 101Q462 101 459 96Q456 91 457 83L457 83L457 80Q458 71 462 66Q467 61 473 61L473 61Q478 61 480 64Q483 67 483 72L483 72Q483 75 483 78L483 78L483 81L461 81L461 84Q460 86 460 88L460 88Q461 92 463 95Q465 97 468 97L468 97Q471 97 473 96Q476 95 478 93L478 93L479 96Q475 101 468 101ZM473 65L473 65Q469 65 466 68Q463 71 461 78L461 78L479 78L479 77Q480 75 480 73L480 73Q479 69 478 67Q476 65 473 65ZM504 61L504 61Q511 62 513 67L513 67L517 46L521 46L511 100L508 100L509 95Q504 101 498 101L498 101Q494 101 491 97Q489 93 489 87L489 87Q489 84 490 79L490 79Q491 70 495 65Q498 61 504 61ZM493 79L493 83Q493 87 493 89L493 89Q493 97 499 97L499 97Q505 97 509 91L509 91L512 71Q510 65 505 65L505 65Q495 65 493 79L493 79ZM551 46L542 100L538 100L547 46L551 46ZM564 62L557 100L553 100L560 62L564 62ZM561 51L561 51Q561 49 564 48L564 48Q566 49 566 51L566 51Q566 53 563 54L563 54Q561 53 561 51ZM585 61L585 61Q588 61 590 63Q592 64 593 67L593 67L595 62L598 62L592 101Q591 108 587 112Q583 115 577 115L577 115Q574 115 571 114Q568 112 567 110L567 110L569 107Q572 111 577 112L577 112Q582 112 584 109Q587 106 588 101L588 101L589 95Q585 101 579 101L579 101Q574 101 572 97Q569 93 569 87L569 87Q569 84 570 79L570 79Q571 70 575 65Q579 61 585 61ZM574 78L573 83Q573 87 573 89L573 89Q573 97 580 97L580 97Q586 97 589 91L589 91L593 71Q591 65 585 65L585 65Q576 65 574 78L574 78ZM615 46L611 68Q616 61 622 61L622 61Q629 61 630 70L630 70L630 72L630 75L626 100L622 100L626 75L626 73Q626 65 621 65L621 65Q618 65 615 67Q612 70 610 74L610 74L606 100L602 100L611 46L615 46ZM646 52L650 52L648 62L655 62L654 65L648 65L644 91L643 93Q643 97 646 97L646 97L649 97L649 100Q647 101 645 101L645 101Q643 101 641 99Q640 97 640 94L640 94Q640 92 640 91L640 91L644 65L638 65L639 62L644 62L646 52ZM684 62L677 100L673 100L680 62L684 62ZM681 51L681 51Q681 49 684 48L684 48Q686 49 686 51L686 51Q686 53 683 54L683 54Q681 53 681 51ZM698 52L702 52L700 62L706 62L706 65L699 65L695 91L695 93Q695 97 698 97L698 97L701 97L700 100Q699 101 697 101L697 101Q694 101 693 99Q691 97 691 94L691 94Q691 92 691 91L691 91L696 65L690 65L690 62L696 62L698 52ZM732 100L728 100Q728 99 728 97L728 97L728 95Q724 101 718 101L718 101Q713 101 711 98Q708 95 709 90L709 90Q709 85 713 81Q718 78 725 78L725 78L731 78L732 73Q732 69 731 67Q729 65 725 65L725 65Q722 65 720 67Q717 69 716 72L716 72L713 72Q713 67 717 64Q721 61 726 61L726 61Q731 61 734 64Q736 67 736 73L736 73L732 92Q732 94 732 96L732 96L732 100L732 100ZM718 97L718 97Q721 97 724 95Q727 94 729 90L729 90L730 81L725 81Q720 81 716 83Q713 86 713 90L713 90Q712 93 714 95Q715 97 718 97ZM755 46L746 100L742 100L751 46L755 46ZM767 62L761 100L757 100L764 62L767 62ZM765 51L765 51Q765 49 768 48L768 48Q770 49 770 51L770 51Q770 53 767 54L767 54Q765 53 765 51ZM784 97L784 97Q792 97 794 88L794 88L797 88Q796 94 793 97Q789 101 784 101L784 101Q778 101 776 97Q773 94 773 87L773 87Q773 84 774 78L774 78Q775 70 779 65Q783 61 789 61L789 61Q795 61 797 65Q800 69 800 75L800 75L796 75Q796 70 794 68Q793 65 789 65L789 65Q780 65 778 78L778 78L777 84L777 86L777 87Q776 97 784 97Z"/></svg>