<svg xmlns="http://www.w3.org/2000/svg" viewBox="6.36328125 46 372.4453125 69.15234375"><path d="M38 100L26 79L11 79L11 100L6 100L6 49L23 49Q31 49 36 53Q40 57 40 64L40 64Q40 69 38 73Q35 76 30 78L30 78L43 100L43 100L38 100ZM11 53L11 75L24 75Q29 75 33 72Q36 69 36 64L36 64Q36 58 33 55Q29 53 23 53L23 53L11 53ZM49 81L49 80Q49 75 51 71Q53 66 57 64Q61 61 66 61L66 61Q73 61 78 67Q83 72 83 81L83 81L83 82Q83 87 81 92Q79 96 75 98Q71 101 66 101L66 101Q58 101 54 95Q49 90 49 81L49 81ZM53 81L53 82Q53 88 57 93Q60 97 66 97L66 97Q72 97 75 93Q79 88 79 81L79 81L79 80Q79 76 77 72Q75 69 72 67Q70 65 66 65L66 65Q60 65 57 69Q53 74 53 81L53 81ZM122 81L122 81Q122 90 118 95Q114 101 108 101L108 101Q100 101 96 95L96 95L95 100L91 100L91 46L96 46L96 67Q100 61 108 61L108 61Q114 61 118 66Q122 72 122 81L122 81ZM118 81L118 81Q118 73 115 69Q112 65 107 65L107 65Q103 65 100 67Q97 69 96 73L96 73L96 90Q99 97 107 97L107 97Q112 97 115 93Q118 89 118 81ZM129 81L129 80Q129 75 131 71Q133 66 137 64Q141 61 146 61L146 61Q154 61 158 67Q163 72 163 81L163 81L163 82Q163 87 161 92Q159 96 155 98Q151 101 146 101L146 101Q139 101 134 95Q129 90 129 81L129 81ZM133 81L133 82Q133 88 137 93Q140 97 146 97L146 97Q152 97 155 93Q159 88 159 81L159 81L159 80Q159 76 157 72Q156 69 153 67Q150 65 146 65L146 65Q140 65 137 69Q133 74 133 81L133 81ZM174 52L178 52L178 62L186 62L186 65L178 65L178 91Q178 94 179 95Q181 97 183 97L183 97Q184 97 187 97L187 97L187 100Q185 101 182 101L182 101Q178 101 176 98Q174 96 174 91L174 91L174 65L167 65L167 62L174 62L174 52ZM192 81L192 80Q192 75 194 71Q196 66 200 64Q204 61 209 61L209 61Q216 61 221 67Q226 72 226 81L226 81L226 82Q226 87 224 92Q222 96 218 98Q214 101 209 101L209 101Q201 101 197 95Q192 90 192 81L192 81ZM196 81L196 82Q196 88 200 93Q203 97 209 97L209 97Q215 97 218 93Q222 88 222 81L222 81L222 80Q222 76 220 72Q218 69 215 67Q213 65 209 65L209 65Q203 65 200 69Q196 74 196 81L196 81ZM257 46L257 100L252 100L252 46L257 46ZM273 62L273 100L269 100L269 62L273 62ZM268 51L268 51Q268 50 269 49Q269 48 271 48Q272 48 273 49Q274 50 274 51Q274 52 273 53Q272 54 271 54Q269 54 269 53Q268 52 268 51ZM283 81L283 81Q283 72 287 66Q290 61 297 61L297 61Q305 61 309 67L309 67L309 62L313 62L313 99Q313 107 309 111Q305 115 298 115L298 115Q294 115 290 113Q287 112 285 109L285 109L287 106Q292 112 298 112L298 112Q303 112 306 108Q309 105 309 100L309 100L309 95Q305 101 297 101L297 101Q291 101 287 95Q283 90 283 81L283 81ZM287 81L287 81Q287 89 290 93Q293 97 298 97L298 97Q306 97 309 90L309 90L309 72Q308 69 305 67Q302 65 298 65L298 65Q293 65 290 69Q287 73 287 81ZM328 46L328 68Q330 65 334 63Q337 61 341 61L341 61Q347 61 350 65Q353 68 353 75L353 75L353 100L349 100L349 75Q349 70 347 67Q344 65 340 65L340 65Q336 65 333 67Q330 70 328 74L328 74L328 100L324 100L324 46L328 46ZM366 52L370 52L370 62L378 62L378 65L370 65L370 91Q370 94 371 95Q373 97 375 97L375 97Q376 97 379 97L379 97L379 100Q377 101 374 101L374 101Q370 101 368 98Q366 96 366 91L366 91L366 65L359 65L359 62L366 62L366 52Z"/></svg>