<svg xmlns="http://www.w3.org/2000/svg" viewBox="3.8671875 45.96484375 422.9296875 54.73828125"><path d="M31.92 100L22.89 81.93L16.21 81.93L16.21 100L3.87 100L3.87 48.81L24.01 48.81Q33.12 48.81 38.25 52.86Q43.38 56.90 43.38 64.28L43.38 64.28Q43.38 69.63 41.22 73.14Q39.06 76.66 34.45 78.84L34.45 78.84L45.14 99.47L45.14 100L31.92 100ZM16.21 58.34L16.21 72.40L24.01 72.40Q27.53 72.40 29.30 70.56Q31.08 68.71 31.08 65.41Q31.08 62.10 29.29 60.22Q27.49 58.34 24.01 58.34L24.01 58.34L16.21 58.34ZM48.83 82.63L48.80 80.63Q48.80 74.93 51.01 70.49Q53.23 66.04 57.38 63.65Q61.52 61.26 67.11 61.26L67.11 61.26Q75.66 61.26 80.58 66.55Q85.50 71.84 85.50 80.95L85.50 80.95L85.50 81.37Q85.50 90.26 80.56 95.48Q75.62 100.70 67.18 100.70L67.18 100.70Q59.06 100.70 54.14 95.83Q49.22 90.96 48.83 82.63L48.83 82.63ZM60.68 79.22L60.64 81.37Q60.64 86.64 62.30 89.10Q63.95 91.56 67.18 91.56L67.18 91.56Q73.51 91.56 73.65 81.82L73.65 81.82L73.65 80.63Q73.65 70.40 67.11 70.40L67.11 70.40Q61.17 70.40 60.68 79.22L60.68 79.22ZM126.04 80.70L126.04 81.30Q126.04 90.65 122.17 95.68Q118.30 100.70 111.27 100.70L111.27 100.70Q105.47 100.70 101.92 96.10L101.92 96.10L101.43 100L90.81 100L90.81 46L102.66 46L102.66 65.02Q105.96 61.26 111.20 61.26L111.20 61.26Q118.30 61.26 122.17 66.36Q126.04 71.45 126.04 80.70L126.04 80.70ZM114.15 80.56L114.15 80.56Q114.15 75.07 112.69 72.74Q111.23 70.40 108.21 70.40L108.21 70.40Q104.20 70.40 102.66 73.46L102.66 73.46L102.66 88.57Q104.17 91.60 108.28 91.60L108.28 91.60Q112.46 91.60 113.59 87.52L113.59 87.52Q114.15 85.52 114.15 80.56ZM129.80 82.63L129.76 80.63Q129.76 74.93 131.98 70.49Q134.19 66.04 138.34 63.65Q142.49 61.26 148.08 61.26L148.08 61.26Q156.62 61.26 161.54 66.55Q166.46 71.84 166.46 80.95L166.46 80.95L166.46 81.37Q166.46 90.26 161.53 95.48Q156.59 100.70 148.15 100.70L148.15 100.70Q140.03 100.70 135.11 95.83Q130.18 90.96 129.80 82.63L129.80 82.63ZM141.64 79.22L141.61 81.37Q141.61 86.64 143.26 89.10Q144.91 91.56 148.15 91.56L148.15 91.56Q154.48 91.56 154.62 81.82L154.62 81.82L154.62 80.63Q154.62 70.40 148.08 70.40L148.08 70.40Q142.14 70.40 141.64 79.22L141.64 79.22ZM173.64 52.50L185.48 52.50L185.48 61.96L191.74 61.96L191.74 70.19L185.48 70.19L185.48 87.59Q185.48 89.73 186.26 90.58Q187.03 91.42 189.32 91.42L189.32 91.42Q191.07 91.42 192.27 91.21L192.27 91.21L192.27 99.68Q189.07 100.70 185.59 100.70L185.59 100.70Q179.47 100.70 176.55 97.82Q173.64 94.94 173.64 89.07L173.64 89.07L173.64 70.19L168.79 70.19L168.79 61.96L173.64 61.96L173.64 52.50ZM193.89 82.63L193.85 80.63Q193.85 74.93 196.07 70.49Q198.28 66.04 202.43 63.65Q206.58 61.26 212.17 61.26L212.17 61.26Q220.71 61.26 225.63 66.55Q230.55 71.84 230.55 80.95L230.55 80.95L230.55 81.37Q230.55 90.26 225.62 95.48Q220.68 100.70 212.24 100.70L212.24 100.70Q204.12 100.70 199.20 95.83Q194.27 90.96 193.89 82.63L193.89 82.63ZM205.73 79.22L205.70 81.37Q205.70 86.64 207.35 89.10Q209.00 91.56 212.24 91.56L212.24 91.56Q218.57 91.56 218.71 81.82L218.71 81.82L218.71 80.63Q218.71 70.40 212.17 70.40L212.17 70.40Q206.23 70.40 205.73 79.22L205.73 79.22ZM289.02 80.70L289.02 81.30Q289.02 90.65 285.15 95.68Q281.29 100.70 274.25 100.70L274.25 100.70Q268.45 100.70 264.90 96.10L264.90 96.10L264.41 100L253.79 100L253.79 46L265.64 46L265.64 65.02Q268.95 61.26 274.18 61.26L274.18 61.26Q281.29 61.26 285.15 66.36Q289.02 71.45 289.02 80.70L289.02 80.70ZM277.14 80.56L277.14 80.56Q277.14 75.07 275.68 72.74Q274.22 70.40 271.20 70.40L271.20 70.40Q267.19 70.40 265.64 73.46L265.64 73.46L265.64 88.57Q267.15 91.60 271.27 91.60L271.27 91.60Q275.45 91.60 276.57 87.52L276.57 87.52Q277.14 85.52 277.14 80.56ZM306.74 46L306.74 100L294.86 100L294.86 46L306.74 46ZM347.31 100L335.46 100Q334.83 98.84 334.34 96.59L334.34 96.59Q331.07 100.70 325.20 100.70L325.20 100.70Q319.82 100.70 316.05 97.45Q312.29 94.20 312.29 89.28L312.29 89.28Q312.29 83.09 316.86 79.93Q321.43 76.76 330.15 76.76L330.15 76.76L333.81 76.76L333.81 74.76Q333.81 69.52 329.27 69.52L329.27 69.52Q325.05 69.52 325.05 73.67L325.05 73.67L313.21 73.67Q313.21 68.15 317.90 64.70Q322.59 61.26 329.87 61.26Q337.15 61.26 341.37 64.81Q345.59 68.36 345.69 74.55L345.69 74.55L345.69 91.39Q345.76 96.63 347.31 99.40L347.31 99.40L347.31 100ZM328.04 92.27L328.04 92.27Q330.26 92.27 331.72 91.32Q333.18 90.37 333.81 89.17L333.81 89.17L333.81 83.09L330.36 83.09Q324.18 83.09 324.18 88.64L324.18 88.64Q324.18 90.26 325.27 91.26Q326.36 92.27 328.04 92.27ZM368.33 91.56L368.33 91.56Q370.83 91.56 372.20 90.21Q373.57 88.86 373.54 86.43L373.54 86.43L384.64 86.43Q384.64 92.69 380.16 96.70Q375.68 100.70 368.61 100.70L368.61 100.70Q360.32 100.70 355.54 95.50Q350.75 90.30 350.75 81.09L350.75 81.09L350.75 80.59Q350.75 74.83 352.88 70.42Q355.01 66.00 359.02 63.63Q363.02 61.26 368.51 61.26L368.51 61.26Q375.93 61.26 380.29 65.37Q384.64 69.48 384.64 76.52L384.64 76.52L373.54 76.52Q373.54 73.56 372.09 71.98Q370.65 70.40 368.23 70.40L368.23 70.40Q363.62 70.40 362.85 76.27L362.85 76.27Q362.60 78.13 362.60 81.40L362.60 81.40Q362.60 87.13 363.97 89.35Q365.34 91.56 368.33 91.56ZM413.23 100L404.93 85.83L401.59 89.17L401.59 100L389.74 100L389.74 45.96L401.59 45.96L401.59 74.65L402.79 73.07L411.71 61.96L425.92 61.96L412.59 77.61L426.80 100L413.23 100Z"/></svg>