<svg xmlns="http://www.w3.org/2000/svg" viewBox="6.85546875 46 348.3984375 54.703125"><path d="M40 100L27 78L9 78L9 100L7 100L7 49L23 49Q31 49 35 53Q40 57 40 64L40 64Q40 69 37 73Q33 77 28 78L28 78L42 100L42 100L40 100ZM9 51L9 76L25 76Q31 76 34 73Q38 69 38 64L38 64Q38 58 34 54Q30 51 23 51L23 51L9 51ZM50 82L50 80Q50 75 52 70Q54 66 58 64Q62 61 67 61L67 61Q72 61 75 64Q79 66 81 70Q84 75 84 80L84 80L84 82Q84 87 81 92Q79 96 76 98Q72 101 67 101Q62 101 58 98Q55 96 52 92Q50 87 50 82L50 82ZM52 81L52 82Q52 86 54 90Q56 94 59 97Q63 99 67 99L67 99Q73 99 78 94Q82 89 82 81L82 81L82 80Q82 76 80 72Q78 68 75 65Q71 63 67 63L67 63Q60 63 56 68Q52 73 52 81L52 81ZM122 81L122 81Q122 90 118 95Q114 101 108 101L108 101Q103 101 100 99Q97 97 95 94L95 94L95 100L93 100L93 46L95 46L95 69Q97 65 100 63Q103 61 108 61L108 61Q114 61 118 66Q122 71 122 81L122 81ZM120 81L120 81Q120 72 117 68Q113 63 108 63L108 63Q103 63 99 66Q96 68 95 73L95 73L95 90Q96 94 99 97Q103 99 108 99L108 99Q113 99 117 94Q120 89 120 81ZM129 82L129 80Q129 75 131 70Q133 66 137 64Q141 61 146 61L146 61Q151 61 155 64Q158 66 160 70Q163 75 163 80L163 80L163 82Q163 87 161 92Q158 96 155 98Q151 101 146 101Q141 101 137 98Q134 96 131 92Q129 87 129 82L129 82ZM131 81L131 82Q131 86 133 90Q135 94 138 97Q142 99 146 99L146 99Q153 99 157 94Q161 89 161 81L161 81L161 80Q161 76 159 72Q157 68 154 65Q150 63 146 63L146 63Q139 63 135 68Q131 73 131 81L131 81ZM174 52L176 52L176 62L185 62L185 64L176 64L176 91Q176 95 177 97Q179 99 182 99L182 99Q183 99 186 98L186 98L186 100Q185 101 182 101L182 101Q178 101 176 98Q174 96 174 91L174 91L174 64L167 64L167 62L174 62L174 52ZM191 82L191 80Q191 75 193 70Q195 66 199 64Q203 61 208 61L208 61Q212 61 216 64Q220 66 222 70Q224 75 224 80L224 80L224 82Q224 87 222 92Q220 96 216 98Q213 101 208 101Q203 101 199 98Q195 96 193 92Q191 87 191 82L191 82ZM193 81L193 82Q193 86 195 90Q197 94 200 97Q203 99 208 99L208 99Q214 99 218 94Q222 89 222 81L222 81L222 80Q222 76 221 72Q219 68 215 65Q212 63 208 63L208 63Q201 63 197 68Q193 73 193 81L193 81ZM253 52L255 52L255 62L264 62L264 64L255 64L255 91Q255 95 256 97Q258 99 261 99L261 99Q262 99 264 98L264 98L265 100Q264 101 261 101L261 101Q257 101 255 98Q253 96 253 91L253 91L253 64L246 64L246 62L253 62L253 52ZM275 46L275 71Q277 66 281 64Q285 61 289 61L289 61Q295 61 298 65Q301 68 301 75L301 75L301 100L299 100L299 75Q299 69 297 66Q294 63 289 63L289 63Q284 63 280 67Q277 70 275 76L275 76L275 100L274 100L274 46L275 46ZM315 62L315 100L313 100L313 62L315 62ZM312 50L312 50Q312 49 313 49Q314 48 314 48Q315 48 316 49Q316 49 316 50Q316 51 316 51Q315 52 314 52Q314 52 313 51Q312 51 312 50ZM330 62L330 71Q332 66 335 64Q339 61 343 61L343 61Q349 61 352 65Q355 68 355 75L355 75L355 100L353 100L353 75Q353 69 351 66Q348 63 343 63L343 63Q338 63 335 67Q331 70 330 76L330 76L330 100L328 100L328 62L330 62Z"/></svg>