<svg xmlns="http://www.w3.org/2000/svg" viewBox="6.36328125 46 809.0859375 68.9765625"><path d="M33.12 100L23.06 79.12L12.83 79.12L12.83 100L6.36 100L6.36 48.81L21.38 48.81Q24.96 48.88 28.13 49.83Q31.29 50.78 33.66 52.68Q36.04 54.58 37.39 57.44Q38.74 60.31 38.74 64.18L38.74 64.18Q38.74 66.67 38.02 68.75Q37.30 70.82 36.04 72.51Q34.77 74.20 33.01 75.50Q31.25 76.80 29.14 77.71L29.14 77.71L40.01 99.58L39.97 100L33.12 100ZM12.83 54.16L12.83 73.77L21.55 73.77Q23.73 73.74 25.66 73.09Q27.60 72.44 29.06 71.21Q30.52 69.98 31.36 68.20Q32.20 66.43 32.20 64.11L32.20 64.11Q32.20 61.64 31.39 59.80Q30.59 57.95 29.14 56.71Q27.70 55.46 25.72 54.82Q23.73 54.19 21.38 54.16L21.38 54.16L12.83 54.16ZM47.50 81.40L47.50 80.63Q47.50 76.52 48.69 72.98Q49.89 69.45 52.12 66.85Q54.35 64.25 57.55 62.75Q60.75 61.26 64.76 61.26L64.76 61.26Q68.80 61.26 72.02 62.75Q75.23 64.25 77.47 66.85Q79.70 69.45 80.89 72.98Q82.09 76.52 82.09 80.63L82.09 80.63L82.09 81.40Q82.09 85.52 80.89 89.03Q79.70 92.55 77.47 95.15Q75.23 97.75 72.04 99.23Q68.84 100.70 64.83 100.70L64.83 100.70Q60.79 100.70 57.57 99.23Q54.35 97.75 52.12 95.15Q49.89 92.55 48.69 89.03Q47.50 85.52 47.50 81.40L47.50 81.40ZM54 80.63L54 81.40Q54 84.21 54.67 86.76Q55.34 89.31 56.69 91.25Q58.04 93.18 60.08 94.30Q62.12 95.43 64.83 95.43L64.83 95.43Q67.50 95.43 69.52 94.30Q71.54 93.18 72.90 91.25Q74.25 89.31 74.92 86.76Q75.59 84.21 75.59 81.40L75.59 81.40L75.59 80.63Q75.59 77.85 74.90 75.30Q74.21 72.75 72.86 70.82Q71.51 68.89 69.49 67.74Q67.46 66.60 64.76 66.60L64.76 66.60Q62.05 66.60 60.05 67.74Q58.04 68.89 56.69 70.82Q55.34 72.75 54.67 75.30Q54 77.85 54 80.63L54 80.63ZM124.77 80.66L124.77 81.40Q124.77 85.48 123.79 89.01Q122.80 92.55 120.90 95.15Q119.00 97.75 116.21 99.23Q113.41 100.70 109.79 100.70L109.79 100.70Q106.14 100.70 103.45 99.40Q100.76 98.10 98.86 95.68L98.86 95.68L98.54 100L92.57 100L92.57 46L99.07 46L99.07 66.04Q100.93 63.72 103.57 62.49Q106.21 61.26 109.72 61.26L109.72 61.26Q113.38 61.26 116.19 62.70Q119.00 64.14 120.90 66.71Q122.80 69.27 123.79 72.84Q124.77 76.41 124.77 80.66L124.77 80.66ZM118.27 81.40L118.27 80.66Q118.27 77.89 117.72 75.37Q117.18 72.86 115.98 70.94Q114.79 69.03 112.85 67.90Q110.92 66.78 108.11 66.78L108.11 66.78Q106.42 66.78 105.01 67.22Q103.61 67.66 102.50 68.45Q101.39 69.24 100.53 70.31Q99.67 71.38 99.07 72.65L99.07 72.65L99.07 89.28Q99.70 90.54 100.56 91.62Q101.43 92.69 102.55 93.50Q103.68 94.30 105.08 94.74Q106.49 95.18 108.18 95.18L108.18 95.18Q110.85 95.18 112.76 94.08Q114.68 92.97 115.89 91.07Q117.11 89.17 117.69 86.68Q118.27 84.18 118.27 81.40L118.27 81.40ZM133.91 81.40L133.91 80.63Q133.91 76.52 135.11 72.98Q136.30 69.45 138.53 66.85Q140.77 64.25 143.96 62.75Q147.16 61.26 151.17 61.26L151.17 61.26Q155.21 61.26 158.43 62.75Q161.65 64.25 163.88 66.85Q166.11 69.45 167.31 72.98Q168.50 76.52 168.50 80.63L168.50 80.63L168.50 81.40Q168.50 85.52 167.31 89.03Q166.11 92.55 163.88 95.15Q161.65 97.75 158.45 99.23Q155.25 100.70 151.24 100.70L151.24 100.70Q147.20 100.70 143.98 99.23Q140.77 97.75 138.53 95.15Q136.30 92.55 135.11 89.03Q133.91 85.52 133.91 81.40L133.91 81.40ZM140.41 80.63L140.41 81.40Q140.41 84.21 141.08 86.76Q141.75 89.31 143.10 91.25Q144.46 93.18 146.50 94.30Q148.54 95.43 151.24 95.43L151.24 95.43Q153.91 95.43 155.94 94.30Q157.96 93.18 159.31 91.25Q160.66 89.31 161.33 86.76Q162 84.21 162 81.40L162 81.40L162 80.63Q162 77.85 161.31 75.30Q160.63 72.75 159.28 70.82Q157.92 68.89 155.90 67.74Q153.88 66.60 151.17 66.60L151.17 66.60Q148.46 66.60 146.46 67.74Q144.46 68.89 143.10 70.82Q141.75 72.75 141.08 75.30Q140.41 77.85 140.41 80.63L140.41 80.63ZM187.80 52.75L194.34 52.75L194.34 61.96L208.83 61.96L208.83 66.99L194.34 66.99L194.34 87.66Q194.34 89.88 194.91 91.32Q195.47 92.76 196.45 93.62Q197.44 94.48 198.72 94.83Q200.00 95.18 201.45 95.18L201.45 95.18Q202.50 95.18 203.63 95.06Q204.75 94.94 205.82 94.76Q206.89 94.59 207.83 94.39Q208.76 94.20 209.36 94.06L209.36 94.06L210.27 98.66Q209.46 99.16 208.30 99.53Q207.14 99.89 205.77 100.16Q204.40 100.42 202.87 100.56Q201.34 100.70 199.83 100.70L199.83 100.70Q197.30 100.70 195.10 99.98Q192.90 99.26 191.29 97.70Q189.67 96.13 188.74 93.65Q187.80 91.18 187.80 87.66L187.80 87.66L187.80 66.99L177.82 66.99L177.82 61.96L187.80 61.96L187.80 52.75ZM220.32 81.40L220.32 80.63Q220.32 76.52 221.52 72.98Q222.71 69.45 224.95 66.85Q227.18 64.25 230.38 62.75Q233.58 61.26 237.59 61.26L237.59 61.26Q241.63 61.26 244.85 62.75Q248.06 64.25 250.29 66.85Q252.53 69.45 253.72 72.98Q254.92 76.52 254.92 80.63L254.92 80.63L254.92 81.40Q254.92 85.52 253.72 89.03Q252.53 92.55 250.29 95.15Q248.06 97.75 244.86 99.23Q241.66 100.70 237.66 100.70L237.66 100.70Q233.61 100.70 230.40 99.23Q227.18 97.75 224.95 95.15Q222.71 92.55 221.52 89.03Q220.32 85.52 220.32 81.40L220.32 81.40ZM226.83 80.63L226.83 81.40Q226.83 84.21 227.50 86.76Q228.16 89.31 229.52 91.25Q230.87 93.18 232.91 94.30Q234.95 95.43 237.66 95.43L237.66 95.43Q240.33 95.43 242.35 94.30Q244.37 93.18 245.72 91.25Q247.08 89.31 247.75 86.76Q248.41 84.21 248.41 81.40L248.41 81.40L248.41 80.63Q248.41 77.85 247.73 75.30Q247.04 72.75 245.69 70.82Q244.34 68.89 242.31 67.74Q240.29 66.60 237.59 66.60L237.59 66.60Q234.88 66.60 232.88 67.74Q230.87 68.89 229.52 70.82Q228.16 72.75 227.50 75.30Q226.83 77.85 226.83 80.63L226.83 80.63ZM307.65 48.81L315.70 48.81L324.04 74.41L333.04 48.81L341.12 48.81L341.12 100L334.79 100L334.79 79.57L335.32 58.20L325.86 85.76L322.14 85.76L313.45 58.94L313.98 79.57L313.98 100L307.65 100L307.65 48.81ZM349.95 81.40L349.95 80.63Q349.95 76.52 351.14 72.98Q352.34 69.45 354.57 66.85Q356.80 64.25 360 62.75Q363.20 61.26 367.21 61.26L367.21 61.26Q371.25 61.26 374.47 62.75Q377.68 64.25 379.92 66.85Q382.15 69.45 383.34 72.98Q384.54 76.52 384.54 80.63L384.54 80.63L384.54 81.40Q384.54 85.52 383.34 89.03Q382.15 92.55 379.92 95.15Q377.68 97.75 374.48 99.23Q371.29 100.70 367.28 100.70L367.28 100.70Q363.23 100.70 360.02 99.23Q356.80 97.75 354.57 95.15Q352.34 92.55 351.14 89.03Q349.95 85.52 349.95 81.40L349.95 81.40ZM356.45 80.63L356.45 81.40Q356.45 84.21 357.12 86.76Q357.79 89.31 359.14 91.25Q360.49 93.18 362.53 94.30Q364.57 95.43 367.28 95.43L367.28 95.43Q369.95 95.43 371.97 94.30Q373.99 93.18 375.35 91.25Q376.70 89.31 377.37 86.76Q378.04 84.21 378.04 81.40L378.04 81.40L378.04 80.63Q378.04 77.85 377.35 75.30Q376.66 72.75 375.31 70.82Q373.96 68.89 371.94 67.74Q369.91 66.60 367.21 66.60L367.21 66.60Q364.50 66.60 362.50 67.74Q360.49 68.89 359.14 70.82Q357.79 72.75 357.12 75.30Q356.45 77.85 356.45 80.63L356.45 80.63ZM394.98 61.96L400.82 61.96L401.27 67.59Q403.35 64.63 406.37 62.96Q409.39 61.29 413.12 61.26L413.12 61.26Q416.11 61.26 418.55 62.10Q421.00 62.95 422.72 64.74Q424.44 66.53 425.37 69.29Q426.30 72.05 426.30 75.85L426.30 75.85L426.30 100L419.80 100L419.80 75.99Q419.80 73.46 419.24 71.70Q418.68 69.94 417.57 68.85Q416.46 67.76 414.86 67.27Q413.26 66.78 411.19 66.78L411.19 66.78Q407.92 66.78 405.44 68.41Q402.96 70.05 401.48 72.72L401.48 72.72L401.48 100L394.98 100L394.98 61.96ZM436.36 81.40L436.36 80.63Q436.36 76.52 437.55 72.98Q438.75 69.45 440.98 66.85Q443.21 64.25 446.41 62.75Q449.61 61.26 453.62 61.26L453.62 61.26Q457.66 61.26 460.88 62.75Q464.10 64.25 466.33 66.85Q468.56 69.45 469.76 72.98Q470.95 76.52 470.95 80.63L470.95 80.63L470.95 81.40Q470.95 85.52 469.76 89.03Q468.56 92.55 466.33 95.15Q464.10 97.75 460.90 99.23Q457.70 100.70 453.69 100.70L453.69 100.70Q449.65 100.70 446.43 99.23Q443.21 97.75 440.98 95.15Q438.75 92.55 437.55 89.03Q436.36 85.52 436.36 81.40L436.36 81.40ZM442.86 80.63L442.86 81.40Q442.86 84.21 443.53 86.76Q444.20 89.31 445.55 91.25Q446.91 93.18 448.95 94.30Q450.98 95.43 453.69 95.43L453.69 95.43Q456.36 95.43 458.38 94.30Q460.41 93.18 461.76 91.25Q463.11 89.31 463.78 86.76Q464.45 84.21 464.45 81.40L464.45 81.40L464.45 80.63Q464.45 77.85 463.76 75.30Q463.08 72.75 461.72 70.82Q460.37 68.89 458.35 67.74Q456.33 66.60 453.62 66.60L453.62 66.60Q450.91 66.60 448.91 67.74Q446.91 68.89 445.55 70.82Q444.20 72.75 443.53 75.30Q442.86 77.85 442.86 80.63L442.86 80.63ZM549.53 61.26L549.53 61.26Q550.44 61.26 551.43 61.31Q552.41 61.36 553.31 61.49Q554.20 61.61 554.96 61.79Q555.71 61.96 556.21 62.17L556.21 62.17L555.33 68.54Q553.43 68.11 551.72 67.92Q550.02 67.73 548.16 67.73L548.16 67.73Q543.59 67.73 540.76 69.80Q537.93 71.88 536.59 75.60L536.59 75.60L536.59 100L530.05 100L530.05 61.96L536.24 61.96L536.55 68.01Q538.88 64.88 542.13 63.07Q545.38 61.26 549.53 61.26ZM584.61 100.70L584.61 100.70Q580.61 100.70 577.25 99.33Q573.89 97.96 571.50 95.50Q569.11 93.04 567.77 89.66Q566.44 86.29 566.44 82.32L566.44 82.32L566.44 80.84Q566.44 76.23 567.91 72.60Q569.39 68.96 571.83 66.44Q574.28 63.93 577.39 62.59Q580.50 61.26 583.77 61.26L583.77 61.26Q587.88 61.26 590.96 62.68Q594.04 64.11 596.07 66.62Q598.11 69.13 599.12 72.54Q600.12 75.95 600.12 79.93L600.12 79.93L600.12 82.84L572.94 82.84Q573.05 85.45 573.94 87.73Q574.84 90.02 576.40 91.72Q577.97 93.43 580.15 94.41Q582.33 95.39 584.96 95.39L584.96 95.39Q588.45 95.39 591.15 93.99Q593.86 92.58 595.65 90.26L595.65 90.26L599.63 93.36Q598.68 94.80 597.25 96.12Q595.83 97.43 593.96 98.45Q592.10 99.47 589.75 100.09Q587.39 100.70 584.61 100.70ZM583.77 66.60L583.77 66.60Q581.80 66.60 580.04 67.32Q578.29 68.04 576.88 69.43Q575.47 70.82 574.51 72.84Q573.54 74.86 573.15 77.50L573.15 77.50L593.61 77.50L593.61 77.01Q593.51 75.11 592.89 73.25Q592.28 71.38 591.08 69.91Q589.89 68.43 588.08 67.52Q586.27 66.60 583.77 66.60ZM609.82 81.40L609.82 80.66Q609.82 76.41 610.86 72.84Q611.89 69.27 613.86 66.71Q615.83 64.14 618.64 62.70Q621.46 61.26 625.01 61.26L625.01 61.26Q628.52 61.26 631.18 62.51Q633.83 63.75 635.70 66.11L635.70 66.11L636.01 61.96L641.92 61.96L641.92 99.19Q641.92 102.95 640.74 105.87Q639.56 108.79 637.44 110.83Q635.31 112.87 632.36 113.92Q629.40 114.98 625.82 114.98L625.82 114.98Q624.34 114.98 622.44 114.64Q620.54 114.31 618.59 113.55Q616.64 112.80 614.83 111.53Q613.02 110.27 611.72 108.40L611.72 108.40L615.09 104.50Q616.29 105.94 617.55 106.94Q618.82 107.95 620.12 108.54Q621.42 109.14 622.72 109.40Q624.02 109.67 625.32 109.67L625.32 109.67Q627.64 109.67 629.51 109Q631.37 108.33 632.69 107.05Q634.01 105.77 634.71 103.87Q635.41 101.97 635.41 99.51L635.41 99.51L635.41 96.24Q633.52 98.42 630.93 99.56Q628.35 100.70 624.94 100.70L624.94 100.70Q621.46 100.70 618.64 99.23Q615.83 97.75 613.88 95.15Q611.93 92.55 610.88 89.01Q609.82 85.48 609.82 81.40L609.82 81.40ZM616.32 80.66L616.32 81.40Q616.32 84.18 616.90 86.68Q617.48 89.17 618.73 91.07Q619.98 92.97 621.91 94.08Q623.85 95.18 626.55 95.18L626.55 95.18Q628.24 95.18 629.60 94.78Q630.95 94.38 632.02 93.64Q633.09 92.90 633.94 91.88Q634.78 90.86 635.41 89.63L635.41 89.63L635.41 72.19Q634.78 71.00 633.94 70.01Q633.09 69.03 632.00 68.31Q630.91 67.59 629.58 67.18Q628.24 66.78 626.63 66.78L626.63 66.78Q623.88 66.78 621.93 67.90Q619.98 69.03 618.73 70.94Q617.48 72.86 616.90 75.37Q616.32 77.89 616.32 80.66L616.32 80.66ZM679.29 100L678.90 94.76Q677.00 97.57 674.16 99.14Q671.31 100.70 667.58 100.70L667.58 100.70Q664.59 100.70 662.17 99.77Q659.74 98.84 658.02 96.87Q656.30 94.90 655.37 91.86Q654.43 88.82 654.43 84.57L654.43 84.57L654.43 61.96L660.94 61.96L660.94 84.64Q660.94 87.73 661.43 89.77Q661.92 91.81 662.91 93.02Q663.89 94.23 665.31 94.73Q666.74 95.22 668.60 95.22L668.60 95.22Q672.57 95.22 675.02 93.60Q677.46 91.98 678.66 89.24L678.66 89.24L678.66 61.96L685.20 61.96L685.20 100L679.29 100ZM698.45 51.66L698.45 46L717.89 46L717.89 94.38L730.30 94.38L730.30 100L698.45 100L698.45 94.38L711.39 94.38L711.39 51.66L698.45 51.66ZM772.42 100L765.63 100Q765.25 99.26 765.02 98.15Q764.79 97.05 764.68 95.85L764.68 95.85Q763.70 96.84 762.49 97.71Q761.27 98.59 759.81 99.26Q758.36 99.93 756.70 100.32Q755.05 100.70 753.19 100.70L753.19 100.70Q750.16 100.70 747.72 99.82Q745.28 98.95 743.57 97.45Q741.87 95.96 740.94 93.90Q740.00 91.84 740.00 89.45L740.00 89.45Q740.00 86.32 741.25 83.97Q742.50 81.61 744.79 80.05Q747.07 78.48 750.29 77.71Q753.50 76.94 757.48 76.94L757.48 76.94L764.58 76.94L764.58 73.95Q764.58 72.23 763.95 70.86Q763.31 69.48 762.15 68.52Q760.99 67.55 759.32 67.02Q757.65 66.50 755.58 66.50L755.58 66.50Q753.64 66.50 752.12 66.99Q750.59 67.48 749.53 68.29Q748.48 69.10 747.90 70.21Q747.32 71.31 747.32 72.51L747.32 72.51L740.78 72.51Q740.81 70.43 741.85 68.43Q742.89 66.43 744.84 64.83Q746.79 63.23 749.58 62.24Q752.38 61.26 755.93 61.26L755.93 61.26Q759.16 61.26 761.94 62.05Q764.72 62.84 766.74 64.44Q768.76 66.04 769.92 68.43Q771.08 70.82 771.08 74.02L771.08 74.02L771.08 91.70Q771.08 93.60 771.43 95.73Q771.79 97.86 772.42 99.44L772.42 99.44L772.42 100ZM754.14 95.04L754.14 95.04Q756.04 95.04 757.69 94.55Q759.34 94.06 760.69 93.25Q762.05 92.44 763.03 91.40Q764.02 90.37 764.58 89.24L764.58 89.24L764.58 81.54L758.53 81.54Q752.84 81.54 749.67 83.23Q746.51 84.92 746.51 88.54L746.51 88.54Q746.51 89.95 746.98 91.14Q747.46 92.34 748.41 93.20Q749.36 94.06 750.80 94.55Q752.24 95.04 754.14 95.04ZM808.77 61.26L808.77 61.26Q809.68 61.26 810.67 61.31Q811.65 61.36 812.55 61.49Q813.45 61.61 814.20 61.79Q814.96 61.96 815.45 62.17L815.45 62.17L814.57 68.54Q812.67 68.11 810.97 67.92Q809.26 67.73 807.40 67.73L807.40 67.73Q802.83 67.73 800.00 69.80Q797.17 71.88 795.83 75.60L795.83 75.60L795.83 100L789.29 100L789.29 61.96L795.48 61.96L795.80 68.01Q798.12 64.88 801.37 63.07Q804.62 61.26 808.77 61.26Z"/></svg>