<svg xmlns="http://www.w3.org/2000/svg" viewBox="5.37890625 46 769.25390625 54.73828125"><path d="M32 100L22 80L14 80L14 100L5 100L5 49L22 49Q25 49 29 50Q32 51 35 53Q37 55 38 57Q40 60 40 64L40 64Q40 67 39 69Q38 71 37 73Q36 75 34 76Q32 77 30 78L30 78L41 100L41 100L32 100ZM14 56L14 73L22 73Q24 73 25 73Q27 72 28 71Q30 70 30 68Q31 67 31 65L31 65Q31 62 31 61Q30 59 29 58Q27 57 26 56Q24 56 22 56L22 56L14 56ZM47 81L47 81Q47 77 48 73Q50 69 52 67Q54 64 57 63Q61 61 65 61L65 61Q69 61 72 63Q76 64 78 67Q80 69 81 73Q82 77 82 81L82 81L82 81Q82 86 81 89Q80 93 78 95Q76 98 72 99Q69 101 65 101L65 101Q61 101 57 99Q54 98 52 95Q50 93 48 89Q47 86 47 81L47 81ZM56 81L56 81Q56 84 56 86Q57 89 58 90Q59 92 61 93Q62 94 65 94L65 94Q67 94 69 93Q71 92 72 90Q73 89 73 86Q74 84 74 81L74 81L74 81Q74 78 73 76Q73 74 72 72Q71 70 69 69Q67 68 65 68L65 68Q62 68 61 69Q59 70 58 72Q57 74 56 76Q56 78 56 81L56 81ZM125 81L125 81Q125 86 124 89Q123 93 121 95Q120 98 117 99Q114 101 110 101L110 101Q107 101 104 99Q102 98 100 96L100 96L100 100L92 100L92 46L100 46L100 66Q102 64 105 62Q107 61 110 61L110 61Q114 61 117 63Q120 64 121 67Q123 69 124 73Q125 76 125 81L125 81ZM117 81L117 81Q117 78 116 76Q116 74 115 72Q114 70 112 69Q111 68 108 68L108 68Q105 68 103 70Q101 71 100 73L100 73L100 89Q101 91 103 92Q105 94 108 94L108 94Q111 94 112 93Q114 92 115 90Q116 89 116 86Q117 84 117 81L117 81ZM134 81L134 81Q134 77 135 73Q136 69 138 67Q140 64 144 63Q147 61 151 61L151 61Q155 61 159 63Q162 64 164 67Q166 69 168 73Q169 77 169 81L169 81L169 81Q169 86 168 89Q166 93 164 95Q162 98 159 99Q155 101 151 101L151 101Q147 101 144 99Q140 98 138 95Q136 93 135 89Q134 86 134 81L134 81ZM142 81L142 81Q142 84 142 86Q143 89 144 90Q145 92 147 93Q149 94 151 94L151 94Q154 94 155 93Q157 92 158 90Q159 89 160 86Q160 84 160 81L160 81L160 81Q160 78 160 76Q159 74 158 72Q157 70 155 69Q154 68 151 68L151 68Q149 68 147 69Q145 70 144 72Q143 74 142 76Q142 78 142 81L142 81ZM187 53L195 53L195 62L209 62L209 68L195 68L195 86Q195 89 196 90Q196 91 197 92Q198 93 199 93Q200 94 202 94L202 94Q203 94 204 94Q205 94 206 93Q208 93 208 93Q209 93 210 93L210 93L211 98Q210 99 209 99Q208 100 206 100Q205 100 203 101Q201 101 200 101L200 101Q197 101 194 100Q192 99 190 97Q189 96 188 93Q187 91 187 87L187 87L187 68L177 68L177 62L187 62L187 53ZM220 81L220 81Q220 77 221 73Q222 69 225 67Q227 64 230 63Q233 61 238 61L238 61Q242 61 245 63Q248 64 251 67Q253 69 254 73Q255 77 255 81L255 81L255 81Q255 86 254 89Q253 93 251 95Q248 98 245 99Q242 101 238 101L238 101Q233 101 230 99Q227 98 225 95Q222 93 221 89Q220 86 220 81L220 81ZM228 81L228 81Q228 84 229 86Q229 89 231 90Q232 92 233 93Q235 94 238 94L238 94Q240 94 242 93Q243 92 245 90Q246 89 246 86Q247 84 247 81L247 81L247 81Q247 78 246 76Q246 74 245 72Q243 70 242 69Q240 68 238 68L238 68Q235 68 233 69Q232 70 231 72Q229 74 229 76Q228 78 228 81L228 81ZM307 49L318 49L324 71L331 49L342 49L342 100L334 100L334 82L334 60L326 85L322 85L315 61L315 82L315 100L307 100L307 49ZM350 81L350 81Q350 77 351 73Q352 69 354 67Q357 64 360 63Q363 61 367 61L367 61Q371 61 375 63Q378 64 380 67Q383 69 384 73Q385 77 385 81L385 81L385 81Q385 86 384 89Q383 93 380 95Q378 98 375 99Q371 101 367 101L367 101Q363 101 360 99Q357 98 354 95Q352 93 351 89Q350 86 350 81L350 81ZM358 81L358 81Q358 84 359 86Q359 89 360 90Q361 92 363 93Q365 94 367 94L367 94Q370 94 371 93Q373 92 374 90Q375 89 376 86Q376 84 376 81L376 81L376 81Q376 78 376 76Q375 74 374 72Q373 70 371 69Q370 68 367 68L367 68Q365 68 363 69Q361 70 360 72Q359 74 359 76Q358 78 358 81L358 81ZM394 62L402 62L402 67Q405 64 407 63Q410 61 414 61L414 61Q417 61 419 62Q422 63 423 65Q425 67 426 69Q427 72 427 76L427 76L427 100L419 100L419 76Q419 74 418 72Q418 71 417 70Q416 69 414 69Q413 68 411 68L411 68Q408 68 406 69Q404 71 403 73L403 73L403 100L394 100L394 62ZM436 81L436 81Q436 77 437 73Q438 69 441 67Q443 64 446 63Q449 61 454 61L454 61Q458 61 461 63Q464 64 467 67Q469 69 470 73Q471 77 471 81L471 81L471 81Q471 86 470 89Q469 93 467 95Q464 98 461 99Q458 101 454 101L454 101Q450 101 446 99Q443 98 441 95Q438 93 437 89Q436 86 436 81L436 81ZM444 81L444 81Q444 84 445 86Q445 89 447 90Q448 92 450 93Q451 94 454 94L454 94Q456 94 458 93Q460 92 461 90Q462 89 462 86Q463 84 463 81L463 81L463 81Q463 78 462 76Q462 74 461 72Q460 70 458 69Q456 68 454 68L454 68Q451 68 449 69Q448 70 447 72Q445 74 445 76Q444 78 444 81L444 81ZM521 62L529 62L529 66Q530 64 532 63Q534 61 537 61L537 61Q539 61 541 62Q542 63 543 65L543 65Q544 63 546 62Q548 61 550 61L550 61Q552 61 554 62Q555 62 556 64Q557 65 558 67Q559 69 559 72L559 72L559 100L551 100L551 72Q551 70 550 69Q549 68 547 68L547 68Q546 68 545 69Q544 70 544 71L544 71L544 100L536 100L536 72Q536 70 535 69Q534 68 533 68L533 68Q531 68 531 69Q530 69 529 71L529 71L529 100L521 100L521 62ZM585 101L585 101Q581 101 577 99Q574 98 571 95Q569 93 567 90Q566 86 566 82L566 82L566 81Q566 76 567 73Q569 69 571 67Q574 64 577 63Q580 61 584 61L584 61Q588 61 591 63Q594 64 596 67Q599 69 600 73Q601 76 601 80L601 80L601 84L574 84Q575 86 576 88Q576 90 578 91Q579 92 581 93Q583 94 585 94L585 94Q589 94 591 93Q594 91 596 89L596 89L600 94Q599 95 598 96Q596 97 594 98Q593 99 590 100Q588 101 585 101ZM584 68L584 68Q582 68 581 69Q579 69 578 71Q577 72 576 73Q575 75 575 77L575 77L592 77L592 77Q592 75 592 74Q591 72 590 71Q589 70 588 69Q586 68 584 68ZM609 81L609 81Q609 76 610 73Q611 69 613 67Q615 64 618 63Q621 61 624 61L624 61Q627 61 630 62Q632 63 634 65L634 65L634 46L642 46L642 100L635 100L634 96Q633 98 630 100Q628 101 624 101L624 101Q621 101 618 99Q615 98 613 95Q611 93 610 89Q609 86 609 81L609 81ZM618 81L618 81Q618 84 618 86Q619 89 620 90Q621 92 622 93Q624 94 626 94L626 94Q629 94 631 93Q633 91 634 89L634 89L634 73Q633 71 631 69Q629 68 626 68L626 68Q624 68 622 69Q621 70 620 72Q619 74 618 76Q618 78 618 81L618 81ZM655 69L655 62L676 62L676 93L687 93L687 100L655 100L655 93L667 93L667 69L655 69ZM666 52L666 52Q666 50 668 49Q669 48 671 48L671 48Q674 48 675 49Q676 50 676 52L676 52Q676 54 675 55Q674 57 671 57L671 57Q669 57 668 55Q666 54 666 52ZM722 100L721 95Q719 98 716 99Q714 101 710 101L710 101Q707 101 705 100Q702 99 701 97Q699 95 698 92Q697 89 697 84L697 84L697 62L705 62L705 85Q705 87 706 89Q706 91 707 92Q708 93 709 93Q710 94 712 94L712 94Q716 94 718 93Q720 91 721 89L721 89L721 62L729 62L729 100L722 100ZM737 62L745 62L745 66Q746 64 748 63Q750 61 753 61L753 61Q755 61 757 62Q758 63 759 65L759 65Q760 63 762 62Q764 61 766 61L766 61Q768 61 770 62Q771 62 772 64Q773 65 774 67Q775 69 775 72L775 72L775 100L767 100L767 72Q767 70 766 69Q765 68 763 68L763 68Q762 68 761 69Q760 70 760 71L760 71L760 100L752 100L752 72Q752 70 751 69Q750 68 749 68L749 68Q747 68 747 69Q746 69 745 71L745 71L745 100L737 100L737 62Z"/></svg>