<svg xmlns="http://www.w3.org/2000/svg" viewBox="0.0703125 45.96484375 590.8408934471364 54.77907151442308"><path d="M27.56 100L21.94 81.93L15.26 81.93L12.09 100L0.07 100L8.93 48.81L27 48.85Q35.68 48.85 40.38 52.91Q45.07 56.97 44.58 64L44.58 64Q44.19 69.55 41.38 73.19Q38.57 76.83 33.50 78.94L33.50 78.94L40.39 99.40L40.39 100L27.56 100ZM19.34 58.34L16.88 72.40L23.91 72.47Q26.79 72.47 28.92 71.07Q31.04 69.66 31.96 67.22Q32.87 64.77 32.48 62.49L32.48 62.49Q31.78 58.59 27.49 58.38L27.49 58.38L19.34 58.34ZM67.64 61.26L67.64 61.26Q72.74 61.33 76.46 63.81Q80.19 66.29 81.93 70.71Q83.67 75.14 83.18 80.56L83.18 80.56L83.11 81.33Q82.13 90.09 76.61 95.46Q71.09 100.84 62.96 100.70L62.96 100.70Q57.90 100.63 54.21 98.19Q50.52 95.75 48.74 91.35Q46.97 86.96 47.46 81.58L47.46 81.58Q48.34 72.23 53.88 66.67Q59.41 61.12 67.64 61.26ZM59.03 81.58L59.03 81.58L58.92 83.65Q58.43 91.49 63.70 91.63L63.70 91.63Q70.52 91.84 71.61 80.56L71.61 80.56L71.75 77.36Q71.82 74.20 70.58 72.31Q69.33 70.43 66.90 70.36L66.90 70.36Q63.70 70.26 61.65 72.98Q59.59 75.71 59.03 81.58ZM122.70 80.31L122.59 81.05Q121.50 90.30 117.14 95.61Q112.78 100.91 105.68 100.74L105.68 100.74Q100.05 100.60 97.03 96.03L97.03 96.03L95.59 100L85.11 100L94.50 46L106.07 46L102.30 65.09Q106.14 61.19 110.85 61.26L110.85 61.26Q116.44 61.33 119.57 65.25Q122.70 69.17 122.87 75.92L122.87 75.92Q122.91 78.17 122.70 80.31L122.70 80.31ZM111.02 81.09L111.09 80.35Q111.38 78.20 111.41 76.27L111.41 76.27Q111.41 70.61 107.37 70.36L107.37 70.36Q103.78 70.22 101.36 73.42L101.36 73.42L98.61 88.61Q99.70 91.53 103.39 91.60L103.39 91.60Q109.05 91.77 110.53 84.21L110.53 84.21L111.02 81.09ZM146.88 61.26L146.88 61.26Q151.98 61.33 155.71 63.81Q159.43 66.29 161.17 70.71Q162.91 75.14 162.42 80.56L162.42 80.56L162.35 81.33Q161.37 90.09 155.85 95.46Q150.33 100.84 142.21 100.70L142.21 100.70Q137.14 100.63 133.45 98.19Q129.76 95.75 127.99 91.35Q126.21 86.96 126.70 81.58L126.70 81.58Q127.58 72.23 133.12 66.67Q138.66 61.12 146.88 61.26ZM138.27 81.58L138.27 81.58L138.16 83.65Q137.67 91.49 142.95 91.63L142.95 91.63Q149.77 91.84 150.86 80.56L150.86 80.56L151.00 77.36Q151.07 74.20 149.82 72.31Q148.57 70.43 146.14 70.36L146.14 70.36Q142.95 70.26 140.89 72.98Q138.83 75.71 138.27 81.58ZM174.41 52.50L185.98 52.50L184.32 61.96L190.41 61.96L188.96 70.19L182.88 70.19L179.93 87.66Q179.68 89.45 180.16 90.37Q180.63 91.28 182.53 91.35L182.53 91.35Q183.27 91.39 185.55 91.18L185.55 91.18L184.71 99.75Q181.79 100.70 178.49 100.63L178.49 100.63Q173.11 100.56 170.44 97.47Q167.77 94.38 168.26 89.07L168.26 89.07L171.35 70.19L166.64 70.19L168.05 61.96L172.76 61.96L174.41 52.50ZM209.74 61.26L209.74 61.26Q214.84 61.33 218.57 63.81Q222.29 66.29 224.03 70.71Q225.77 75.14 225.28 80.56L225.28 80.56L225.21 81.33Q224.23 90.09 218.71 95.46Q213.19 100.84 205.07 100.70L205.07 100.70Q200.00 100.63 196.31 98.19Q192.62 95.75 190.85 91.35Q189.07 86.96 189.56 81.58L189.56 81.58Q190.44 72.23 195.98 66.67Q201.52 61.12 209.74 61.26ZM201.13 81.58L201.13 81.58L201.02 83.65Q200.53 91.49 205.80 91.63L205.80 91.63Q212.63 91.84 213.71 80.56L213.71 80.56L213.86 77.36Q213.93 74.20 212.68 72.31Q211.43 70.43 209.00 70.36L209.00 70.36Q205.80 70.26 203.75 72.98Q201.69 75.71 201.13 81.58ZM282.55 80.31L282.45 81.05Q281.36 90.30 277.00 95.61Q272.64 100.91 265.54 100.74L265.54 100.74Q259.91 100.60 256.89 96.03L256.89 96.03L255.45 100L244.97 100L254.36 46L265.92 46L262.16 65.09Q265.99 61.19 270.70 61.26L270.70 61.26Q276.29 61.33 279.42 65.25Q282.55 69.17 282.73 75.92L282.73 75.92Q282.76 78.17 282.55 80.31L282.55 80.31ZM270.88 81.09L270.95 80.35Q271.23 78.20 271.27 76.27L271.27 76.27Q271.27 70.61 267.22 70.36L267.22 70.36Q263.64 70.22 261.21 73.42L261.21 73.42L258.47 88.61Q259.56 91.53 263.25 91.60L263.25 91.60Q268.91 91.77 270.39 84.21L270.39 84.21L270.88 81.09ZM306.11 46L296.75 100L285.15 100L294.50 46L306.11 46ZM336.80 100L325.55 100Q325.05 98.63 325.05 96.55L325.05 96.55Q321.15 100.84 315.74 100.70L315.74 100.70Q310.78 100.63 307.51 97.40Q304.24 94.16 304.45 89.56L304.45 89.56Q304.63 83.37 309.62 80.05Q314.61 76.73 323.26 76.73L323.26 76.73L327.13 76.80L327.55 74.65L327.69 72.79Q327.55 69.59 324.49 69.48L324.49 69.48Q320.70 69.41 319.82 73.67L319.82 73.67L308.21 73.70Q308.39 69.87 310.71 67.04Q313.03 64.21 317.02 62.68Q321.01 61.15 325.51 61.26L325.51 61.26Q329.84 61.36 333.09 63.07Q336.34 64.77 337.96 67.81Q339.57 70.86 339.19 74.83L339.19 74.83L336.34 92.72L336.16 94.90Q336.02 97.50 336.83 99.33L336.83 99.33L336.80 100ZM318.94 92.34L318.94 92.34Q322.49 92.48 325.16 89.21L325.16 89.21L326.32 83.09L323.33 83.05Q320.55 83.13 318.55 84.69Q316.55 86.25 316.20 88.96L316.20 88.96Q316.02 90.40 316.74 91.33Q317.46 92.27 318.94 92.34ZM359.12 91.60L359.12 91.60Q361.62 91.67 363.02 90.21Q364.43 88.75 364.82 86.43L364.82 86.43L375.64 86.39Q375.43 90.58 373.17 93.88Q370.90 97.19 367.05 99.00Q363.20 100.81 358.80 100.70L358.80 100.70Q351.21 100.56 347.10 95.24Q342.98 89.91 343.76 81.47L343.76 81.47L343.86 80.63Q344.50 74.86 347.10 70.42Q349.70 65.97 353.94 63.54Q358.17 61.12 363.41 61.26L363.41 61.26Q370.05 61.40 373.90 65.49Q377.75 69.59 377.61 76.55L377.61 76.55L366.79 76.52Q366.96 70.47 362.46 70.36L362.46 70.36Q356.34 70.15 355.43 80.66L355.43 80.66L355.11 84.25L355.08 85.59Q355.08 91.49 359.12 91.60ZM401.34 100L395.79 85.97L391.57 89.63L389.78 100L378.21 100L387.60 45.96L399.16 45.96L393.82 74.79L395.23 73.11L405.74 61.96L420.40 61.96L404.23 78.13L414.04 100L401.34 100ZM453.23 61.96L446.63 100L435.02 100L441.63 61.96L453.23 61.96ZM442.65 52.36L442.65 52.36Q442.58 49.80 444.46 48.07Q446.34 46.35 449.02 46.35L449.02 46.35Q451.72 46.35 453.53 47.90Q455.34 49.45 455.41 51.94L455.41 51.94Q455.48 54.54 453.62 56.25Q451.76 57.95 449.05 57.95L449.05 57.95Q446.41 57.95 444.57 56.42Q442.72 54.89 442.65 52.36ZM464.10 52.50L475.66 52.50L474.01 61.96L480.09 61.96L478.65 70.19L472.57 70.19L469.62 87.66Q469.37 89.45 469.85 90.37Q470.32 91.28 472.22 91.35L472.22 91.35Q472.96 91.39 475.24 91.18L475.24 91.18L474.40 99.75Q471.48 100.70 468.18 100.63L468.18 100.63Q462.80 100.56 460.13 97.47Q457.45 94.38 457.95 89.07L457.95 89.07L461.04 70.19L456.33 70.19L457.73 61.96L462.45 61.96L464.10 52.50ZM511.00 100L499.75 100Q499.25 98.63 499.25 96.55L499.25 96.55Q495.35 100.84 489.94 100.70L489.94 100.70Q484.98 100.63 481.71 97.40Q478.44 94.16 478.65 89.56L478.65 89.56Q478.83 83.37 483.82 80.05Q488.81 76.73 497.46 76.73L497.46 76.73L501.33 76.80L501.75 74.65L501.89 72.79Q501.75 69.59 498.69 69.48L498.69 69.48Q494.89 69.41 494.02 73.67L494.02 73.67L482.41 73.70Q482.59 69.87 484.91 67.04Q487.23 64.21 491.22 62.68Q495.21 61.15 499.71 61.26L499.71 61.26Q504.04 61.36 507.29 63.07Q510.54 64.77 512.16 67.81Q513.77 70.86 513.39 74.83L513.39 74.83L510.54 92.72L510.36 94.90Q510.22 97.50 511.03 99.33L511.03 99.33L511.00 100ZM493.14 92.34L493.14 92.34Q496.69 92.48 499.36 89.21L499.36 89.21L500.52 83.09L497.53 83.05Q494.75 83.13 492.75 84.69Q490.75 86.25 490.39 88.96L490.39 88.96Q490.22 90.40 490.94 91.33Q491.66 92.27 493.14 92.34ZM537.26 46L527.91 100L516.30 100L525.66 46L537.26 46ZM554.06 61.96L547.45 100L535.85 100L542.46 61.96L554.06 61.96ZM543.48 52.36L543.48 52.36Q543.41 49.80 545.29 48.07Q547.17 46.35 549.84 46.35L549.84 46.35Q552.55 46.35 554.36 47.90Q556.17 49.45 556.24 51.94L556.24 51.94Q556.31 54.54 554.45 56.25Q552.59 57.95 549.88 57.95L549.88 57.95Q547.24 57.95 545.40 56.42Q543.55 54.89 543.48 52.36ZM572.41 91.60L572.41 91.60Q574.91 91.67 576.32 90.21Q577.72 88.75 578.11 86.43L578.11 86.43L588.94 86.39Q588.73 90.58 586.46 93.88Q584.19 97.19 580.34 99.00Q576.49 100.81 572.10 100.70L572.10 100.70Q564.50 100.56 560.39 95.24Q556.28 89.91 557.05 81.47L557.05 81.47L557.16 80.63Q557.79 74.86 560.39 70.42Q562.99 65.97 567.23 63.54Q571.46 61.12 576.70 61.26L576.70 61.26Q583.35 61.40 587.20 65.49Q591.05 69.59 590.91 76.55L590.91 76.55L580.08 76.52Q580.25 70.47 575.75 70.36L575.75 70.36Q569.64 70.15 568.72 80.66L568.72 80.66L568.41 84.25L568.37 85.59Q568.37 91.49 572.41 91.60Z"/></svg>