<svg xmlns="http://www.w3.org/2000/svg" viewBox="1.6875 46 676.003622555866 54.7435382593458"><path d="M25.66 100L20.43 79.29L11.60 79.29L7.98 100L1.69 100L10.55 48.81L24.08 48.85Q30.69 49.06 34.00 53.10Q37.30 57.14 36.63 63.93L36.63 63.93Q36.18 68.82 33.57 72.37Q30.97 75.92 26.51 77.92L26.51 77.92L32.45 99.54L32.41 100L25.66 100ZM15.93 54.37L12.55 73.77L19.83 73.84Q23.17 73.77 25.72 72.05Q28.27 70.33 29.50 67.18Q30.73 64.04 30.34 60.34L30.34 60.34Q30.06 57.67 28.42 56.11Q26.79 54.54 23.91 54.40L23.91 54.40L15.93 54.37ZM40.29 82.81L40.71 79.29Q41.87 71.10 46.32 66.09Q50.77 61.08 57.55 61.26L57.55 61.26Q61.77 61.36 64.58 63.70Q67.39 66.04 68.61 70.15Q69.82 74.27 69.26 79.22L69.26 79.22L68.84 82.81Q67.68 90.96 63.21 95.92Q58.75 100.88 52.00 100.70L52.00 100.70Q47.78 100.60 44.96 98.28Q42.15 95.96 40.94 91.84Q39.73 87.73 40.29 82.81L40.29 82.81ZM46.27 83.48L46.16 85.38Q46.05 90.09 47.62 92.69Q49.18 95.29 52.35 95.43L52.35 95.43Q56.43 95.61 59.10 92.53Q61.77 89.45 62.68 83.30L62.68 83.30L63.21 79.19L63.39 76.66Q63.49 71.91 61.89 69.31Q60.29 66.71 57.16 66.57L57.16 66.57Q53.02 66.39 50.26 69.99Q47.50 73.60 46.69 80.00L46.69 80.00L46.27 83.48ZM88.80 100.70L88.80 100.70Q82.97 100.49 80.54 95.46L80.54 95.46L79.24 100L73.65 100L83.04 46L89.09 46L85.25 66.14Q89.02 61.12 94.32 61.26L94.32 61.26Q99.28 61.33 101.79 64.90Q104.31 68.46 104.17 75.29L104.17 75.29Q104.03 79.05 103.32 83.69Q102.62 88.33 101.25 91.63L101.25 91.63Q97.42 100.95 88.80 100.70ZM98.19 73.84L98.19 73.84Q98.02 70.15 96.57 68.46Q95.13 66.78 92.39 66.71L92.39 66.71Q87.93 66.60 84.55 71.95L84.55 71.95L81.46 90.12Q83.11 95.08 87.57 95.25L87.57 95.25Q91.69 95.43 94.18 92.35Q96.68 89.28 97.47 82.62Q98.26 75.95 98.19 73.84ZM110.50 82.81L110.92 79.29Q112.08 71.10 116.53 66.09Q120.97 61.08 127.76 61.26L127.76 61.26Q131.98 61.36 134.79 63.70Q137.60 66.04 138.81 70.15Q140.03 74.27 139.46 79.22L139.46 79.22L139.04 82.81Q137.88 90.96 133.42 95.92Q128.95 100.88 122.20 100.70L122.20 100.70Q117.98 100.60 115.17 98.28Q112.36 95.96 111.15 91.84Q109.93 87.73 110.50 82.81L110.50 82.81ZM116.47 83.48L116.37 85.38Q116.26 90.09 117.83 92.69Q119.39 95.29 122.55 95.43L122.55 95.43Q126.63 95.61 129.30 92.53Q131.98 89.45 132.89 83.30L132.89 83.30L133.42 79.19L133.59 76.66Q133.70 71.91 132.10 69.31Q130.50 66.71 127.37 66.57L127.37 66.57Q123.22 66.39 120.46 69.99Q117.70 73.60 116.89 80.00L116.89 80.00L116.47 83.48ZM153.95 52.75L160.00 52.75L158.38 61.96L163.97 61.96L163.09 66.99L157.54 66.99L153.53 90.65L153.46 92.05Q153.32 95.04 155.60 95.04L155.60 95.04Q156.45 95.08 158.13 94.69L158.13 94.69L157.61 100Q155.64 100.70 153.63 100.63L153.63 100.63Q150.43 100.63 148.82 98.00Q147.20 95.36 147.62 90.54L147.62 90.54L151.49 66.99L145.83 66.99L146.74 61.96L152.33 61.96L153.95 52.75ZM166.18 82.81L166.61 79.29Q167.77 71.10 172.21 66.09Q176.66 61.08 183.45 61.26L183.45 61.26Q187.66 61.36 190.48 63.70Q193.29 66.04 194.50 70.15Q195.71 74.27 195.15 79.22L195.15 79.22L194.73 82.81Q193.57 90.96 189.11 95.92Q184.64 100.88 177.89 100.70L177.89 100.70Q173.67 100.60 170.86 98.28Q168.05 95.96 166.83 91.84Q165.62 87.73 166.18 82.81L166.18 82.81ZM172.16 83.48L172.05 85.38Q171.95 90.09 173.51 92.69Q175.08 95.29 178.24 95.43L178.24 95.43Q182.32 95.61 184.99 92.53Q187.66 89.45 188.58 83.30L188.58 83.30L189.11 79.19L189.28 76.66Q189.39 71.91 187.79 69.31Q186.19 66.71 183.06 66.57L183.06 66.57Q178.91 66.39 176.15 69.99Q173.39 73.60 172.58 80.00L172.58 80.00L172.16 83.48ZM244.27 83.79L250.45 83.72Q249.29 91.74 244.49 96.33Q239.70 100.91 232.35 100.70L232.35 100.70Q228.27 100.60 225.28 98.56Q222.29 96.52 220.69 92.65Q219.09 88.79 219.02 84.04L219.02 84.04Q218.99 81.54 219.30 79.15L219.30 79.15L220.71 70.12Q222.36 59.61 227.67 53.77Q232.98 47.93 240.89 48.11L240.89 48.11Q247.43 48.21 250.86 52.73Q254.29 57.25 253.97 65.30L253.97 65.30L247.64 65.27Q247.78 60.91 247.10 58.62Q246.41 56.34 244.83 55.02Q243.25 53.70 240.50 53.63L240.50 53.63Q235.23 53.45 231.79 57.62Q228.34 61.79 227.07 70.08L227.07 70.08L225.67 79.19Q225.14 82.88 225.32 85.90L225.32 85.90Q225.60 90.51 227.51 92.83Q229.43 95.15 232.70 95.25L232.70 95.25Q237.30 95.43 240.10 92.83Q242.89 90.23 244.27 83.79L244.27 83.79ZM257.87 82.81L258.29 79.29Q259.45 71.10 263.90 66.09Q268.35 61.08 275.13 61.26L275.13 61.26Q279.35 61.36 282.16 63.70Q284.98 66.04 286.19 70.15Q287.40 74.27 286.84 79.22L286.84 79.22L286.42 82.81Q285.26 90.96 280.79 95.92Q276.33 100.88 269.58 100.70L269.58 100.70Q265.36 100.60 262.55 98.28Q259.73 95.96 258.52 91.84Q257.31 87.73 257.87 82.81L257.87 82.81ZM263.85 83.48L263.74 85.38Q263.64 90.09 265.20 92.69Q266.77 95.29 269.93 95.43L269.93 95.43Q274.01 95.61 276.68 92.53Q279.35 89.45 280.27 83.30L280.27 83.30L280.79 79.19L280.97 76.66Q281.07 71.91 279.47 69.31Q277.88 66.71 274.75 66.57L274.75 66.57Q270.60 66.39 267.84 69.99Q265.08 73.60 264.27 80.00L264.27 80.00L263.85 83.48ZM297.81 61.96L303.50 61.93L302.70 66.07Q306.84 61.19 312.12 61.26L312.12 61.26Q315.74 61.29 317.87 63.72Q319.99 66.14 320.27 70.33L320.27 70.33Q320.41 72.75 320.17 75.07L320.17 75.07L316.02 100L309.97 100L314.16 74.97L314.30 72.19Q314.30 66.81 309.87 66.71L309.87 66.71Q306.25 66.60 303.12 70.82L303.12 70.82L302.06 72.33L297.28 100L291.20 100L297.81 61.96ZM342.60 61.29L342.60 61.29Q347.84 61.43 350.40 65.72L350.40 65.72L354.06 46L360.14 46L350.79 100L345.27 100L345.94 95.92Q342.18 100.84 336.90 100.70L336.90 100.70Q332.16 100.63 329.57 97.01Q326.99 93.39 326.99 86.64L326.99 86.64Q326.99 83.51 327.80 78.34Q328.61 73.18 330.29 69.59L330.29 69.59Q334.30 61.05 342.60 61.29ZM333.04 88.15L333.04 88.15Q333.21 95.15 338.84 95.25L338.84 95.25Q340.84 95.32 342.67 94.25Q344.50 93.18 346.36 90.58L346.36 90.58L349.66 71.31Q347.91 66.92 343.79 66.74L343.79 66.74Q335.46 66.32 333.74 78.98L333.74 78.98Q332.89 85.16 333.04 88.15ZM374.55 100.70L374.55 100.70Q368.16 100.63 364.99 96.10Q361.83 91.56 362.67 83.72L362.67 83.72L363.13 79.96Q364.22 71.10 368.53 66.09Q372.83 61.08 379.48 61.26L379.48 61.26Q384.89 61.40 387.62 64.97Q390.34 68.54 390.20 75.00L390.20 75.00L389.88 79.22L389.36 82.84L368.96 82.81Q368.51 85.97 368.54 87.77L368.54 87.77Q368.61 91.32 370.30 93.34Q371.99 95.36 375.12 95.39L375.12 95.39Q377.37 95.46 379.56 94.50Q381.76 93.53 384.19 91.11L384.19 91.11L387.04 95.08Q384.79 98.03 381.48 99.40Q378.18 100.77 374.55 100.70ZM379.09 66.57L379.09 66.57Q372.87 66.29 370.37 74.09L370.37 74.09L369.42 77.50L384.01 77.54L384.19 76.62Q384.40 75.00 384.40 73.25L384.40 73.25Q384.26 66.85 379.09 66.57ZM400.01 61.96L405.70 61.93L404.89 66.07Q409.04 61.19 414.32 61.26L414.32 61.26Q417.94 61.29 420.06 63.72Q422.19 66.14 422.47 70.33L422.47 70.33Q422.61 72.75 422.37 75.07L422.37 75.07L418.22 100L412.17 100L416.36 74.97L416.50 72.19Q416.50 66.81 412.07 66.71L412.07 66.71Q408.45 66.60 405.32 70.82L405.32 70.82L404.26 72.33L399.48 100L393.40 100L400.01 61.96ZM447.36 89.98L447.36 89.98Q447.82 86.64 443.64 84.43L443.64 84.43L438.93 81.96Q435.27 79.93 433.81 77.64Q432.35 75.36 432.53 72.33L432.53 72.33Q432.81 67.52 436.46 64.35Q440.12 61.19 445.39 61.26L445.39 61.26Q450.49 61.40 453.38 64.62Q456.26 67.83 456.05 72.82L456.05 72.82L450.04 72.82Q450.11 69.98 448.77 68.34Q447.43 66.71 445.04 66.64L445.04 66.64Q442.34 66.64 440.58 68.17Q438.82 69.70 438.47 72.12L438.47 72.12Q438.05 74.97 441.25 76.80L441.25 76.80L447.19 79.82Q453.76 83.48 453.41 89.52L453.41 89.52Q453.06 94.69 449.26 97.77Q445.46 100.84 440.02 100.70L440.02 100.70Q434.78 100.63 431.51 97.28Q428.24 93.92 428.45 88.61L428.45 88.61L434.57 88.64Q434.50 91.95 436.01 93.65Q437.52 95.36 440.30 95.36L440.30 95.36Q443.21 95.36 445.13 93.88Q447.05 92.41 447.36 89.98ZM473.91 100.70L473.91 100.70Q467.51 100.63 464.34 96.10Q461.18 91.56 462.02 83.72L462.02 83.72L462.48 79.96Q463.57 71.10 467.88 66.09Q472.18 61.08 478.83 61.26L478.83 61.26Q484.24 61.40 486.97 64.97Q489.69 68.54 489.55 75.00L489.55 75.00L489.23 79.22L488.71 82.84L468.32 82.81Q467.86 85.97 467.89 87.77L467.89 87.77Q467.96 91.32 469.65 93.34Q471.34 95.36 474.47 95.39L474.47 95.39Q476.72 95.46 478.92 94.50Q481.11 93.53 483.54 91.11L483.54 91.11L486.39 95.08Q484.14 98.03 480.83 99.40Q477.53 100.77 473.91 100.70ZM478.44 66.57L478.44 66.57Q472.22 66.29 469.72 74.09L469.72 74.09L468.77 77.50L483.36 77.54L483.54 76.62Q483.75 75.00 483.75 73.25L483.75 73.25Q483.61 66.85 478.44 66.57ZM510.01 61.29L510.01 61.29Q515.25 61.43 517.82 65.72L517.82 65.72L521.47 46L527.55 46L518.20 100L512.68 100L513.35 95.92Q509.59 100.84 504.32 100.70L504.32 100.70Q499.57 100.63 496.99 97.01Q494.40 93.39 494.40 86.64L494.40 86.64Q494.40 83.51 495.21 78.34Q496.02 73.18 497.71 69.59L497.71 69.59Q501.71 61.05 510.01 61.29ZM500.45 88.15L500.45 88.15Q500.63 95.15 506.25 95.25L506.25 95.25Q508.25 95.32 510.08 94.25Q511.91 93.18 513.77 90.58L513.77 90.58L517.08 71.31Q515.32 66.92 511.21 66.74L511.21 66.74Q502.88 66.32 501.15 78.98L501.15 78.98Q500.31 85.16 500.45 88.15ZM557.30 61.96L550.69 100L544.61 100L551.21 61.96L557.30 61.96ZM552.62 51.91L552.62 51.91Q552.69 50.39 553.61 49.27Q554.52 48.14 556.10 48.07L556.10 48.07Q557.61 48.00 558.60 49.09Q559.58 50.18 559.51 51.80L559.51 51.80Q559.44 53.35 558.51 54.46Q557.58 55.56 556.00 55.60L556.00 55.60Q554.45 55.67 553.50 54.58Q552.55 53.49 552.62 51.91ZM570.59 52.75L576.63 52.75L575.02 61.96L580.61 61.96L579.73 66.99L574.17 66.99L570.16 90.65L570.09 92.05Q569.95 95.04 572.24 95.04L572.24 95.04Q573.08 95.08 574.77 94.69L574.77 94.69L574.24 100Q572.27 100.70 570.27 100.63L570.27 100.63Q567.07 100.63 565.45 98.00Q563.84 95.36 564.26 90.54L564.26 90.54L568.13 66.99L562.46 66.99L563.38 61.96L568.97 61.96L570.59 52.75ZM607.08 100L600.96 100Q600.75 98.95 600.79 97.93L600.79 97.93L600.93 95.85Q596.88 100.74 592.21 100.74L592.21 100.74Q587.64 100.74 585.09 97.77Q582.54 94.80 582.82 89.91L582.82 89.91Q583.21 84.00 587.69 80.45Q592.17 76.90 599.45 76.90L599.45 76.90L603.67 76.90L604.27 72.86Q604.90 66.57 599.52 66.57L599.52 66.57Q596.74 66.57 594.90 68.20Q593.05 69.84 592.56 72.47L592.56 72.47L586.55 72.51Q587.00 67.69 590.92 64.42Q594.84 61.15 600.15 61.22L600.15 61.22Q605.29 61.29 608.04 64.37Q610.80 67.45 610.28 72.96L610.28 72.96L607.18 91.70Q606.87 93.71 606.94 95.54L606.94 95.54L607.15 99.40L607.08 100ZM593.47 95.11L593.47 95.11Q598.04 95.11 601.35 90.65L601.35 90.65L602.93 81.54L600.15 81.51Q596.57 81.51 593.79 82.83Q591.01 84.14 589.87 86.48Q588.73 88.82 589.08 91.56L589.08 91.56Q589.54 95.11 593.47 95.11ZM631.23 46L621.84 100L615.76 100L625.15 46L631.23 46ZM644.80 61.96L638.19 100L632.11 100L638.72 61.96L644.80 61.96ZM640.13 51.91L640.13 51.91Q640.20 50.39 641.11 49.27Q642.02 48.14 643.61 48.07L643.61 48.07Q645.12 48.00 646.10 49.09Q647.09 50.18 647.02 51.80L647.02 51.80Q646.95 53.35 646.01 54.46Q645.08 55.56 643.50 55.60L643.50 55.60Q641.95 55.67 641.00 54.58Q640.05 53.49 640.13 51.91ZM661.71 95.46L661.71 95.46Q664.70 95.57 666.74 93.60Q668.78 91.63 669.59 88.05L669.59 88.05L675.32 88.01Q674.51 93.64 670.57 97.26Q666.63 100.88 661.36 100.74L661.36 100.74Q656.33 100.63 653.34 97.71Q650.36 94.80 649.76 89.52L649.76 89.52Q649.41 86.36 649.79 83.16L649.79 83.16L650.29 79.33Q651.45 70.43 655.72 65.76Q659.99 61.08 666.84 61.26L666.84 61.26Q672.12 61.40 675.02 65.13Q677.92 68.85 677.67 75.07L677.67 75.07L671.94 75.04Q672.15 66.78 666.49 66.57L666.49 66.57Q658.23 66.25 656.51 78.34L656.51 78.34Q655.42 85.83 655.63 88.54L655.63 88.54Q655.98 95.36 661.71 95.46Z"/></svg>