<svg xmlns="http://www.w3.org/2000/svg" viewBox="2.0390625 46 390.0234375 54.74300373134328"><path d="M31.25 100L24.08 79.29L12.27 79.29L8.68 100L2.04 100L10.93 48.81L26.33 48.85Q34.38 48.88 38.60 52.93Q42.82 56.97 42.15 63.93L42.15 63.93Q41.77 68.75 38.65 72.40Q35.54 76.06 30.38 77.92L30.38 77.92L38.32 99.54L38.29 100L31.25 100ZM16.59 54.37L13.22 73.77L22.92 73.81Q27.98 73.81 31.46 71.12Q34.95 68.43 35.54 63.93L35.54 63.93Q36.07 59.54 33.79 57.04Q31.50 54.54 26.82 54.40L26.82 54.40L16.59 54.37ZM65.57 61.26L65.57 61.26Q70.35 61.33 73.76 63.86Q77.17 66.39 78.80 70.84Q80.44 75.29 79.91 80.56L79.91 80.56L79.84 81.33Q79.17 86.89 76.54 91.37Q73.90 95.85 69.71 98.35Q65.53 100.84 60.54 100.70L60.54 100.70Q55.79 100.63 52.37 98.10Q48.94 95.57 47.36 91.21Q45.77 86.85 46.23 81.61L46.23 81.61Q46.76 75.71 49.43 71.00Q52.10 66.29 56.30 63.70Q60.50 61.12 65.57 61.26ZM52.70 80.84L52.63 81.65Q52.38 83.86 52.63 86.25L52.63 86.25Q52.98 90.40 55.11 92.86Q57.23 95.32 60.79 95.43L60.79 95.43Q63.95 95.54 66.62 93.87Q69.29 92.20 71.12 88.82Q72.95 85.45 73.48 81.33L73.48 81.33Q73.76 78.10 73.58 75.88L73.58 75.88Q73.16 71.63 71.02 69.17Q68.87 66.71 65.32 66.57L65.32 66.57Q60.40 66.46 56.95 70.43Q53.51 74.41 52.70 80.84L52.70 80.84ZM119.21 80.42L119.14 81.16Q118.44 86.99 115.95 91.67Q113.45 96.34 109.90 98.59Q106.35 100.84 102.02 100.74L102.02 100.74Q95.13 100.60 91.79 95.57L91.79 95.57L90.49 100L84.62 100L94.01 46L100.37 46L96.54 66.18Q101.11 61.12 107.65 61.26L107.65 61.26Q113.13 61.40 116.19 65.30Q119.25 69.20 119.43 76.06L119.43 76.06Q119.46 78.31 119.21 80.42L119.21 80.42ZM113.10 77.46L113.10 77.46Q113.20 72.33 111.38 69.61Q109.55 66.88 105.79 66.74L105.79 66.74Q99.84 66.60 95.73 72.72L95.73 72.72L92.88 89.28Q94.99 95.08 100.79 95.22L100.79 95.22Q104.52 95.36 107.31 93.00Q110.11 90.65 111.55 86.41Q112.99 82.18 113.10 77.46ZM145.30 61.26L145.30 61.26Q150.08 61.33 153.49 63.86Q156.90 66.39 158.54 70.84Q160.17 75.29 159.64 80.56L159.64 80.56L159.57 81.33Q158.91 86.89 156.27 91.37Q153.63 95.85 149.45 98.35Q145.27 100.84 140.27 100.70L140.27 100.70Q135.53 100.63 132.10 98.10Q128.67 95.57 127.09 91.21Q125.51 86.85 125.96 81.61L125.96 81.61Q126.49 75.71 129.16 71.00Q131.84 66.29 136.04 63.70Q140.24 61.12 145.30 61.26ZM132.43 80.84L132.36 81.65Q132.12 83.86 132.36 86.25L132.36 86.25Q132.71 90.40 134.84 92.86Q136.97 95.32 140.52 95.43L140.52 95.43Q143.68 95.54 146.36 93.87Q149.03 92.20 150.86 88.82Q152.68 85.45 153.21 81.33L153.21 81.33Q153.49 78.10 153.32 75.88L153.32 75.88Q152.89 71.63 150.75 69.17Q148.61 66.71 145.05 66.57L145.05 66.57Q140.13 66.46 136.69 70.43Q133.24 74.41 132.43 80.84L132.43 80.84ZM174.83 52.75L181.16 52.75L179.54 61.96L186.47 61.96L185.59 66.99L178.70 66.99L174.73 90.65Q174.62 91.56 174.69 92.34L174.69 92.34Q174.94 95.08 177.68 95.08L177.68 95.08Q178.84 95.08 180.77 94.73L180.77 94.73L180.28 100.04Q178.00 100.67 175.64 100.67L175.64 100.67Q171.84 100.60 169.95 97.87Q168.05 95.15 168.47 90.54L168.47 90.54L172.34 66.99L165.62 66.99L166.50 61.96L173.21 61.96L174.83 52.75ZM207.95 61.26L207.95 61.26Q212.73 61.33 216.14 63.86Q219.55 66.39 221.19 70.84Q222.82 75.29 222.29 80.56L222.29 80.56L222.22 81.33Q221.55 86.89 218.92 91.37Q216.28 95.85 212.10 98.35Q207.91 100.84 202.92 100.70L202.92 100.70Q198.18 100.63 194.75 98.10Q191.32 95.57 189.74 91.21Q188.16 86.85 188.61 81.61L188.61 81.61Q189.14 75.71 191.81 71.00Q194.48 66.29 198.69 63.70Q202.89 61.12 207.95 61.26ZM195.08 80.84L195.01 81.65Q194.77 83.86 195.01 86.25L195.01 86.25Q195.36 90.40 197.49 92.86Q199.62 95.32 203.17 95.43L203.17 95.43Q206.33 95.54 209.00 93.87Q211.68 92.20 213.50 88.82Q215.33 85.45 215.86 81.33L215.86 81.33Q216.14 78.10 215.96 75.88L215.96 75.88Q215.54 71.63 213.40 69.17Q211.25 66.71 207.70 66.57L207.70 66.57Q202.78 66.46 199.34 70.43Q195.89 74.41 195.08 80.84L195.08 80.84ZM258.15 61.96L251.54 100L245.21 100L251.82 61.96L258.15 61.96ZM256.78 48.07L256.78 48.07Q258.40 48.00 259.47 49.04Q260.54 50.08 260.54 51.77L260.54 51.77Q260.51 53.42 259.47 54.47Q258.43 55.53 256.78 55.60Q255.13 55.67 254.07 54.65Q253.02 53.63 253.05 51.98Q253.09 50.32 254.11 49.23Q255.13 48.14 256.78 48.07ZM272.43 52.75L278.75 52.75L277.14 61.96L284.06 61.96L283.18 66.99L276.29 66.99L272.32 90.65Q272.21 91.56 272.29 92.34L272.29 92.34Q272.53 95.08 275.27 95.08L275.27 95.08Q276.43 95.08 278.37 94.73L278.37 94.73L277.88 100.04Q275.59 100.67 273.23 100.67L273.23 100.67Q269.44 100.60 267.54 97.87Q265.64 95.15 266.06 90.54L266.06 90.54L269.93 66.99L263.21 66.99L264.09 61.96L270.81 61.96L272.43 52.75ZM314.86 100L308.39 100Q308.14 98.98 308.14 98.00L308.14 98.00L308.25 95.99Q303.01 100.84 297.14 100.70L297.14 100.70Q292.11 100.63 288.97 97.52Q285.82 94.41 286.10 89.73L286.10 89.73Q286.45 83.69 291.39 80.29Q296.33 76.90 304.38 76.90L304.38 76.90L311.03 76.94L311.45 73.91Q311.80 70.50 310.13 68.52Q308.46 66.53 305.12 66.46L305.12 66.46Q301.85 66.39 299.34 68.06Q296.82 69.73 296.26 72.47L296.26 72.47L289.86 72.51Q290.18 69.17 292.46 66.58Q294.75 64 298.34 62.58Q301.92 61.15 305.75 61.22L305.75 61.22Q311.70 61.36 315 64.83Q318.30 68.29 317.78 74.02L317.78 74.02L314.68 92.86L314.51 95.57Q314.44 97.50 314.93 99.40L314.93 99.40L314.86 100ZM298.41 95.08L298.41 95.08Q301.46 95.15 304.19 93.62Q306.91 92.09 308.88 89.38L308.88 89.38L310.25 81.54L305.44 81.51Q299.43 81.51 296.23 83.41Q293.03 85.30 292.61 88.79L292.61 88.79Q292.29 91.46 293.85 93.23Q295.42 95.01 298.41 95.08ZM339.75 46L330.36 100L324.04 100L333.39 46L339.75 46ZM354.27 61.96L347.66 100L341.33 100L347.94 61.96L354.27 61.96ZM352.90 48.07L352.90 48.07Q354.52 48.00 355.59 49.04Q356.66 50.08 356.66 51.77L356.66 51.77Q356.63 53.42 355.59 54.47Q354.55 55.53 352.90 55.60Q351.25 55.67 350.19 54.65Q349.14 53.63 349.17 51.98Q349.21 50.32 350.23 49.23Q351.25 48.14 352.90 48.07ZM374.13 95.43L374.13 95.43Q377.54 95.50 380.29 93.44Q383.03 91.39 383.87 88.05L383.87 88.05L389.88 88.01Q389.36 91.60 387.02 94.55Q384.68 97.50 381.13 99.16Q377.58 100.81 373.85 100.70L373.85 100.70Q369.11 100.63 365.82 98.22Q362.53 95.82 360.98 91.51Q359.44 87.20 359.93 81.82L359.93 81.82L360.11 80.07Q360.77 74.58 363.30 70.26Q365.84 65.93 369.91 63.53Q373.99 61.12 378.91 61.26L378.91 61.26Q384.89 61.40 388.48 65.27Q392.06 69.13 392.06 75.07L392.06 75.07L386.12 75.04Q386.05 71.31 384.05 69.01Q382.04 66.71 378.63 66.57L378.63 66.57Q373.68 66.46 370.39 70.26Q367.10 74.05 366.29 80.88L366.29 80.88L366.19 81.79Q365.98 84.04 366.12 86.43L366.12 86.43Q366.36 90.54 368.44 92.93Q370.51 95.32 374.13 95.43Z"/></svg>