<svg xmlns="http://www.w3.org/2000/svg" viewBox="0.7470703125 -7.5 64.7119140625 7.6025390625"><path d="M4.46 0L3.11-2.77L1.92-2.77L1.92 0L0.75 0L0.75-7.11L2.99-7.11Q3.54-7.10 4.00-6.97Q4.46-6.84 4.80-6.57Q5.14-6.30 5.32-5.90Q5.51-5.50 5.51-4.97L5.51-4.97Q5.51-4.60 5.41-4.31Q5.32-4.01 5.15-3.77Q4.98-3.54 4.74-3.35Q4.50-3.17 4.21-3.05L4.21-3.05L5.71-0.06L5.71 0L4.46 0ZM1.92-6.16L1.92-3.72L3.00-3.72Q3.29-3.72 3.54-3.80Q3.78-3.89 3.96-4.04Q4.14-4.19 4.23-4.42Q4.33-4.64 4.33-4.93L4.33-4.93Q4.33-5.22 4.24-5.45Q4.15-5.68 3.97-5.84Q3.80-6.00 3.55-6.08Q3.30-6.16 2.99-6.16L2.99-6.16L1.92-6.16ZM6.54-2.59L6.54-2.69Q6.54-3.26 6.71-3.75Q6.88-4.25 7.19-4.61Q7.51-4.97 7.96-5.18Q8.42-5.38 8.99-5.38L8.99-5.38Q9.58-5.38 10.03-5.18Q10.49-4.97 10.80-4.61Q11.12-4.25 11.28-3.75Q11.45-3.26 11.45-2.69L11.45-2.69L11.45-2.59Q11.45-2.01 11.28-1.52Q11.12-1.03 10.80-0.67Q10.49-0.31 10.03-0.10Q9.58 0.10 9.00 0.10L9.00 0.10Q8.42 0.10 7.97-0.10Q7.51-0.31 7.19-0.67Q6.88-1.03 6.71-1.52Q6.54-2.01 6.54-2.59L6.54-2.59ZM7.71-2.69L7.71-2.59Q7.71-2.23 7.79-1.91Q7.86-1.59 8.02-1.35Q8.18-1.11 8.42-0.97Q8.67-0.83 9.00-0.83L9.00-0.83Q9.33-0.83 9.57-0.97Q9.81-1.11 9.97-1.35Q10.13-1.59 10.21-1.91Q10.28-2.23 10.28-2.59L10.28-2.59L10.28-2.69Q10.28-3.04 10.21-3.36Q10.13-3.68 9.97-3.92Q9.81-4.16 9.57-4.30Q9.33-4.44 8.99-4.44L8.99-4.44Q8.66-4.44 8.42-4.30Q8.17-4.16 8.02-3.92Q7.86-3.68 7.79-3.36Q7.71-3.04 7.71-2.69L7.71-2.69ZM17.40-2.69L17.40-2.58Q17.40-2.00 17.27-1.51Q17.13-1.02 16.87-0.66Q16.61-0.30 16.22-0.10Q15.83 0.10 15.33 0.10L15.33 0.10Q14.85 0.10 14.49-0.07Q14.14-0.24 13.89-0.57L13.89-0.57L13.83 0L12.77 0L12.77-7.50L13.94-7.50L13.94-4.78Q14.19-5.07 14.53-5.22Q14.86-5.38 15.32-5.38L15.32-5.38Q15.83-5.38 16.22-5.18Q16.61-4.99 16.87-4.63Q17.13-4.27 17.27-3.78Q17.40-3.28 17.40-2.69L17.40-2.69ZM16.24-2.58L16.24-2.69Q16.24-3.04 16.17-3.35Q16.11-3.67 15.97-3.91Q15.83-4.15 15.60-4.28Q15.37-4.42 15.02-4.42L15.02-4.42Q14.61-4.42 14.35-4.23Q14.08-4.04 13.94-3.74L13.94-3.74L13.94-1.55Q14.08-1.25 14.35-1.05Q14.61-0.85 15.03-0.85L15.03-0.85Q15.37-0.85 15.60-0.99Q15.83-1.12 15.97-1.36Q16.11-1.59 16.17-1.91Q16.24-2.22 16.24-2.58L16.24-2.58ZM18.54-2.59L18.54-2.69Q18.54-3.26 18.71-3.75Q18.88-4.25 19.20-4.61Q19.51-4.97 19.97-5.18Q20.42-5.38 21.00-5.38L21.00-5.38Q21.58-5.38 22.03-5.18Q22.49-4.97 22.81-4.61Q23.12-4.25 23.29-3.75Q23.45-3.26 23.45-2.69L23.45-2.69L23.45-2.59Q23.45-2.01 23.29-1.52Q23.12-1.03 22.81-0.67Q22.49-0.31 22.04-0.10Q21.58 0.10 21.01 0.10L21.01 0.10Q20.42 0.10 19.97-0.10Q19.51-0.31 19.20-0.67Q18.88-1.03 18.71-1.52Q18.54-2.01 18.54-2.59L18.54-2.59ZM19.71-2.69L19.71-2.59Q19.71-2.23 19.79-1.91Q19.86-1.59 20.02-1.35Q20.18-1.11 20.42-0.97Q20.67-0.83 21.01-0.83L21.01-0.83Q21.33-0.83 21.57-0.97Q21.82-1.11 21.98-1.35Q22.13-1.59 22.21-1.91Q22.29-2.23 22.29-2.59L22.29-2.59L22.29-2.69Q22.29-3.04 22.21-3.36Q22.13-3.68 21.98-3.92Q21.82-4.16 21.57-4.30Q21.33-4.44 21.00-4.44L21.00-4.44Q20.66-4.44 20.42-4.30Q20.18-4.16 20.02-3.92Q19.86-3.68 19.79-3.36Q19.71-3.04 19.71-2.69L19.71-2.69ZM25.93-6.56L27.10-6.56L27.10-5.28L29.10-5.28L29.10-4.41L27.10-4.41L27.10-1.88Q27.10-1.58 27.17-1.39Q27.24-1.19 27.37-1.07Q27.50-0.96 27.67-0.91Q27.84-0.86 28.04-0.86L28.04-0.86Q28.19-0.86 28.36-0.88Q28.52-0.90 28.67-0.92Q28.83-0.94 28.96-0.97Q29.09-1.00 29.17-1.02L29.17-1.02L29.31-0.21Q29.18-0.14 29.00-0.08Q28.82-0.02 28.61 0.02Q28.40 0.06 28.18 0.08Q27.95 0.10 27.73 0.10L27.73 0.10Q27.33 0.10 27.00-0.01Q26.67-0.12 26.44-0.35Q26.20-0.58 26.07-0.94Q25.93-1.31 25.93-1.82L25.93-1.82L25.93-4.41L24.64-4.41L24.64-5.28L25.93-5.28L25.93-6.56ZM30.55-2.59L30.55-2.69Q30.55-3.26 30.72-3.75Q30.88-4.25 31.20-4.61Q31.51-4.97 31.97-5.18Q32.42-5.38 33.00-5.38L33.00-5.38Q33.58-5.38 34.04-5.18Q34.49-4.97 34.81-4.61Q35.12-4.25 35.29-3.75Q35.45-3.26 35.45-2.69L35.45-2.69L35.45-2.59Q35.45-2.01 35.29-1.52Q35.12-1.03 34.81-0.67Q34.49-0.31 34.04-0.10Q33.58 0.10 33.01 0.10L33.01 0.10Q32.43 0.10 31.97-0.10Q31.51-0.31 31.20-0.67Q30.88-1.03 30.72-1.52Q30.55-2.01 30.55-2.59L30.55-2.59ZM31.71-2.69L31.71-2.59Q31.71-2.23 31.79-1.91Q31.87-1.59 32.02-1.35Q32.18-1.11 32.43-0.97Q32.67-0.83 33.01-0.83L33.01-0.83Q33.33-0.83 33.58-0.97Q33.82-1.11 33.98-1.35Q34.14-1.59 34.21-1.91Q34.29-2.23 34.29-2.59L34.29-2.59L34.29-2.69Q34.29-3.04 34.21-3.36Q34.14-3.68 33.98-3.92Q33.82-4.16 33.58-4.30Q33.33-4.44 33.00-4.44L33.00-4.44Q32.67-4.44 32.42-4.30Q32.18-4.16 32.02-3.92Q31.87-3.68 31.79-3.36Q31.71-3.04 31.71-2.69L31.71-2.69ZM42.67-7.11L44.12-7.11L45.00-4.04L45.98-7.11L47.44-7.11L47.44 0L46.33 0L46.33-2.44L46.40-5.56L45.31-2.15L44.69-2.15L43.70-5.44L43.77-2.44L43.77 0L42.67 0L42.67-7.11ZM48.55-2.59L48.55-2.69Q48.55-3.26 48.72-3.75Q48.89-4.25 49.20-4.61Q49.52-4.97 49.97-5.18Q50.42-5.38 51.00-5.38L51.00-5.38Q51.58-5.38 52.04-5.18Q52.50-4.97 52.81-4.61Q53.13-4.25 53.29-3.75Q53.46-3.26 53.46-2.69L53.46-2.69L53.46-2.59Q53.46-2.01 53.29-1.52Q53.13-1.03 52.81-0.67Q52.50-0.31 52.04-0.10Q51.59 0.10 51.01 0.10L51.01 0.10Q50.43 0.10 49.97-0.10Q49.52-0.31 49.20-0.67Q48.89-1.03 48.72-1.52Q48.55-2.01 48.55-2.59L48.55-2.59ZM49.72-2.69L49.72-2.59Q49.72-2.23 49.79-1.91Q49.87-1.59 50.03-1.35Q50.19-1.11 50.43-0.97Q50.67-0.83 51.01-0.83L51.01-0.83Q51.34-0.83 51.58-0.97Q51.82-1.11 51.98-1.35Q52.14-1.59 52.21-1.91Q52.29-2.23 52.29-2.59L52.29-2.59L52.29-2.69Q52.29-3.04 52.21-3.36Q52.14-3.68 51.98-3.92Q51.82-4.16 51.58-4.30Q51.34-4.44 51.00-4.44L51.00-4.44Q50.67-4.44 50.42-4.30Q50.18-4.16 50.02-3.92Q49.87-3.68 49.79-3.36Q49.72-3.04 49.72-2.69L49.72-2.69ZM54.77-5.28L55.82-5.28L55.89-4.55Q56.18-4.95 56.59-5.16Q57.00-5.38 57.50-5.38L57.50-5.38Q57.90-5.38 58.23-5.26Q58.57-5.15 58.81-4.90Q59.05-4.65 59.19-4.25Q59.32-3.86 59.32-3.30L59.32-3.30L59.32 0L58.15 0L58.15-3.28Q58.15-3.61 58.08-3.83Q58.00-4.05 57.86-4.18Q57.72-4.31 57.52-4.37Q57.32-4.42 57.07-4.42L57.07-4.42Q56.68-4.42 56.40-4.25Q56.11-4.08 55.94-3.79L55.94-3.79L55.94 0L54.77 0L54.77-5.28ZM60.55-2.59L60.55-2.69Q60.55-3.26 60.72-3.75Q60.89-4.25 61.20-4.61Q61.52-4.97 61.97-5.18Q62.43-5.38 63.00-5.38L63.00-5.38Q63.58-5.38 64.04-5.18Q64.50-4.97 64.81-4.61Q65.13-4.25 65.29-3.75Q65.46-3.26 65.46-2.69L65.46-2.69L65.46-2.59Q65.46-2.01 65.29-1.52Q65.13-1.03 64.81-0.67Q64.50-0.31 64.04-0.10Q63.59 0.10 63.01 0.10L63.01 0.10Q62.43 0.10 61.98-0.10Q61.52-0.31 61.20-0.67Q60.89-1.03 60.72-1.52Q60.55-2.01 60.55-2.59L60.55-2.59ZM61.72-2.69L61.72-2.59Q61.72-2.23 61.79-1.91Q61.87-1.59 62.03-1.35Q62.19-1.11 62.43-0.97Q62.68-0.83 63.01-0.83L63.01-0.83Q63.34-0.83 63.58-0.97Q63.82-1.11 63.98-1.35Q64.14-1.59 64.22-1.91Q64.29-2.23 64.29-2.59L64.29-2.59L64.29-2.69Q64.29-3.04 64.22-3.36Q64.14-3.68 63.98-3.92Q63.82-4.16 63.58-4.30Q63.34-4.44 63.00-4.44L63.00-4.44Q62.67-4.44 62.43-4.30Q62.18-4.16 62.03-3.92Q61.87-3.68 61.79-3.36Q61.72-3.04 61.72-2.69L61.72-2.69Z"/></svg>