<svg xmlns="http://www.w3.org/2000/svg" viewBox="7.98046875 46 676.3359375 54.703125"><path d="M37.27 100L24.86 78.10L9.81 78.10L9.81 100L7.98 100L7.98 48.81L21.87 48.81Q25.03 48.88 27.84 49.96Q30.66 51.03 32.75 52.96Q34.84 54.89 36.05 57.58Q37.27 60.27 37.27 63.58L37.27 63.58Q37.27 66.25 36.47 68.41Q35.68 70.57 34.28 72.30Q32.87 74.02 30.92 75.32Q28.97 76.62 26.65 77.54L26.65 77.54L39.20 99.51L39.20 100L37.27 100ZM9.81 50.71L9.81 76.20L23.41 76.20Q26.02 76.13 28.21 75.11Q30.41 74.09 31.99 72.38Q33.57 70.68 34.47 68.41Q35.37 66.14 35.37 63.58L35.37 63.58Q35.37 60.66 34.29 58.30Q33.22 55.95 31.39 54.28Q29.57 52.61 27.09 51.70Q24.61 50.78 21.83 50.71L21.83 50.71L9.81 50.71ZM48.16 81.72L48.16 80.24Q48.20 76.59 49.32 73.16Q50.45 69.73 52.56 67.09Q54.67 64.46 57.74 62.86Q60.82 61.26 64.79 61.26L64.79 61.26Q68.77 61.26 71.84 62.84Q74.92 64.42 77.04 67.06Q79.17 69.70 80.30 73.12Q81.42 76.55 81.46 80.24L81.46 80.24L81.46 81.72Q81.42 85.38 80.31 88.80Q79.21 92.23 77.10 94.87Q74.99 97.50 71.91 99.10Q68.84 100.70 64.86 100.70L64.86 100.70Q60.89 100.70 57.80 99.12Q54.70 97.54 52.58 94.90Q50.45 92.27 49.32 88.84Q48.20 85.41 48.16 81.72L48.16 81.72ZM50.06 80.24L50.06 81.72Q50.10 84.95 51.10 88.03Q52.10 91.11 53.98 93.50Q55.86 95.89 58.61 97.35Q61.35 98.80 64.86 98.80L64.86 98.80Q68.38 98.80 71.09 97.35Q73.79 95.89 75.67 93.48Q77.55 91.07 78.54 88.01Q79.52 84.95 79.56 81.72L79.56 81.72L79.56 80.24Q79.52 77.04 78.52 73.97Q77.52 70.89 75.64 68.50Q73.76 66.11 71.02 64.63Q68.27 63.16 64.79 63.16L64.79 63.16Q61.31 63.16 58.59 64.63Q55.86 66.11 53.98 68.50Q52.10 70.89 51.10 73.97Q50.10 77.04 50.06 80.24L50.06 80.24ZM123.43 80.59L123.43 81.33Q123.40 83.55 123.05 85.85Q122.70 88.15 121.96 90.30Q121.22 92.44 120.04 94.34Q118.86 96.24 117.19 97.64Q115.52 99.05 113.36 99.88Q111.20 100.70 108.46 100.70L108.46 100.70Q106.73 100.70 104.98 100.28Q103.22 99.86 101.58 99.05Q99.95 98.24 98.56 97.06Q97.17 95.89 96.19 94.38L96.19 94.38L96.19 100L94.29 100L94.29 46L96.19 46L96.19 68.43Q97.14 66.81 98.47 65.48Q99.81 64.14 101.39 63.21Q102.97 62.28 104.75 61.77Q106.52 61.26 108.39 61.26L108.39 61.26Q111.16 61.26 113.36 62.07Q115.56 62.88 117.21 64.26Q118.86 65.65 120.04 67.55Q121.22 69.45 121.97 71.59Q122.73 73.74 123.06 76.04Q123.40 78.34 123.43 80.59L123.43 80.59ZM121.46 81.33L121.46 80.59Q121.43 78.66 121.15 76.60Q120.87 74.55 120.25 72.61Q119.64 70.68 118.65 68.96Q117.67 67.23 116.21 65.95Q114.75 64.67 112.83 63.91Q110.92 63.16 108.42 63.16L108.42 63.16Q106.31 63.16 104.38 63.82Q102.45 64.49 100.85 65.72Q99.25 66.95 98.03 68.66Q96.82 70.36 96.19 72.40L96.19 72.40L96.19 90.82Q96.86 92.76 98.17 94.25Q99.49 95.75 101.14 96.77Q102.80 97.79 104.70 98.29Q106.59 98.80 108.49 98.80L108.49 98.80Q110.95 98.80 112.89 98.05Q114.82 97.29 116.24 95.99Q117.67 94.69 118.67 92.97Q119.67 91.25 120.29 89.31Q120.90 87.38 121.17 85.34Q121.43 83.30 121.46 81.33L121.46 81.33ZM134.58 81.72L134.58 80.24Q134.61 76.59 135.74 73.16Q136.86 69.73 138.97 67.09Q141.08 64.46 144.16 62.86Q147.23 61.26 151.21 61.26L151.21 61.26Q155.18 61.26 158.26 62.84Q161.33 64.42 163.46 67.06Q165.59 69.70 166.71 73.12Q167.84 76.55 167.87 80.24L167.87 80.24L167.87 81.72Q167.84 85.38 166.73 88.80Q165.62 92.23 163.51 94.87Q161.40 97.50 158.33 99.10Q155.25 100.70 151.28 100.70L151.28 100.70Q147.30 100.70 144.21 99.12Q141.12 97.54 138.99 94.90Q136.86 92.27 135.74 88.84Q134.61 85.41 134.58 81.72L134.58 81.72ZM136.48 80.24L136.48 81.72Q136.51 84.95 137.51 88.03Q138.52 91.11 140.40 93.50Q142.28 95.89 145.02 97.35Q147.76 98.80 151.28 98.80L151.28 98.80Q154.79 98.80 157.50 97.35Q160.21 95.89 162.09 93.48Q163.97 91.07 164.95 88.01Q165.94 84.95 165.97 81.72L165.97 81.72L165.97 80.24Q165.94 77.04 164.94 73.97Q163.93 70.89 162.05 68.50Q160.17 66.11 157.43 64.63Q154.69 63.16 151.21 63.16L151.21 63.16Q147.73 63.16 145.00 64.63Q142.28 66.11 140.40 68.50Q138.52 70.89 137.51 73.97Q136.51 77.04 136.48 80.24L136.48 80.24ZM190.93 51.70L192.97 51.70L192.94 61.96L206.65 61.96L206.65 63.89L192.94 63.89L192.94 90.89Q193.01 93.11 193.73 94.60Q194.45 96.10 195.71 97.03Q196.98 97.96 198.69 98.38Q200.39 98.80 202.43 98.80L202.43 98.80Q205.28 98.80 208.02 98.49L208.02 98.49L208.41 100.28Q206.96 100.56 205.52 100.63Q204.08 100.70 202.61 100.70L202.61 100.70Q200.07 100.70 197.96 100.19Q195.86 99.68 194.31 98.52Q192.76 97.36 191.88 95.50Q191.00 93.64 190.93 90.89L190.93 90.89L190.93 63.89L179.75 63.89L179.75 61.96L190.93 61.96L190.93 51.70ZM220.99 81.72L220.99 80.24Q221.03 76.59 222.15 73.16Q223.28 69.73 225.39 67.09Q227.50 64.46 230.57 62.86Q233.65 61.26 237.62 61.26L237.62 61.26Q241.59 61.26 244.67 62.84Q247.75 64.42 249.87 67.06Q252 69.70 253.13 73.12Q254.25 76.55 254.29 80.24L254.29 80.24L254.29 81.72Q254.25 85.38 253.14 88.80Q252.04 92.23 249.93 94.87Q247.82 97.50 244.74 99.10Q241.66 100.70 237.69 100.70L237.69 100.70Q233.72 100.70 230.63 99.12Q227.53 97.54 225.40 94.90Q223.28 92.27 222.15 88.84Q221.03 85.41 220.99 81.72L220.99 81.72ZM222.89 80.24L222.89 81.72Q222.93 84.95 223.93 88.03Q224.93 91.11 226.81 93.50Q228.69 95.89 231.43 97.35Q234.18 98.80 237.69 98.80L237.69 98.80Q241.21 98.80 243.91 97.35Q246.62 95.89 248.50 93.48Q250.38 91.07 251.37 88.01Q252.35 84.95 252.39 81.72L252.39 81.72L252.39 80.24Q252.35 77.04 251.35 73.97Q250.35 70.89 248.47 68.50Q246.59 66.11 243.84 64.63Q241.10 63.16 237.62 63.16L237.62 63.16Q234.14 63.16 231.42 64.63Q228.69 66.11 226.81 68.50Q224.93 70.89 223.93 73.97Q222.93 77.04 222.89 80.24L222.89 80.24ZM308.99 48.81L311.77 48.81L324.04 80.98L337.01 48.81L339.96 48.81L339.96 100L338.06 100L338.06 75.11L338.13 51.38L324.88 83.48L323.12 83.48L310.85 51.73L310.89 75.11L310.89 100L308.99 100L308.99 48.81ZM350.61 81.72L350.61 80.24Q350.65 76.59 351.77 73.16Q352.90 69.73 355.01 67.09Q357.12 64.46 360.19 62.86Q363.27 61.26 367.24 61.26L367.24 61.26Q371.21 61.26 374.29 62.84Q377.37 64.42 379.49 67.06Q381.62 69.70 382.75 73.12Q383.87 76.55 383.91 80.24L383.91 80.24L383.91 81.72Q383.87 85.38 382.76 88.80Q381.66 92.23 379.55 94.87Q377.44 97.50 374.36 99.10Q371.29 100.70 367.31 100.70L367.31 100.70Q363.34 100.70 360.25 99.12Q357.15 97.54 355.03 94.90Q352.90 92.27 351.77 88.84Q350.65 85.41 350.61 81.72L350.61 81.72ZM352.51 80.24L352.51 81.72Q352.55 84.95 353.55 88.03Q354.55 91.11 356.43 93.50Q358.31 95.89 361.05 97.35Q363.80 98.80 367.31 98.80L367.31 98.80Q370.83 98.80 373.54 97.35Q376.24 95.89 378.12 93.48Q380.00 91.07 380.99 88.01Q381.97 84.95 382.01 81.72L382.01 81.72L382.01 80.24Q381.97 77.04 380.97 73.97Q379.97 70.89 378.09 68.50Q376.21 66.11 373.46 64.63Q370.72 63.16 367.24 63.16L367.24 63.16Q363.76 63.16 361.04 64.63Q358.31 66.11 356.43 68.50Q354.55 70.89 353.55 73.97Q352.55 77.04 352.51 80.24L352.51 80.24ZM398.25 71.10L398.25 71.10Q399.16 68.99 400.55 67.18Q401.94 65.37 403.75 64.07Q405.56 62.77 407.74 62.01Q409.92 61.26 412.42 61.26L412.42 61.26Q415.69 61.26 418.06 62.31Q420.43 63.37 421.98 65.25Q423.53 67.13 424.27 69.73Q425.00 72.33 425.04 75.39L425.04 75.39L425.07 100L423.14 100L423.14 75.39Q423.11 72.72 422.49 70.45Q421.88 68.18 420.57 66.55Q419.27 64.91 417.23 64Q415.20 63.09 412.31 63.12L412.31 63.12Q409.75 63.16 407.43 64.14Q405.11 65.13 403.24 66.78Q401.38 68.43 400.08 70.64Q398.78 72.86 398.25 75.32L398.25 75.32L398.25 100L396.32 100L396.32 61.96L398.25 61.96L398.25 71.10ZM437.03 81.72L437.03 80.24Q437.06 76.59 438.19 73.16Q439.31 69.73 441.42 67.09Q443.53 64.46 446.61 62.86Q449.68 61.26 453.66 61.26L453.66 61.26Q457.63 61.26 460.71 62.84Q463.78 64.42 465.91 67.06Q468.04 69.70 469.16 73.12Q470.29 76.55 470.32 80.24L470.32 80.24L470.32 81.72Q470.29 85.38 469.18 88.80Q468.07 92.23 465.96 94.87Q463.85 97.50 460.78 99.10Q457.70 100.70 453.73 100.70L453.73 100.70Q449.75 100.70 446.66 99.12Q443.57 97.54 441.44 94.90Q439.31 92.27 438.19 88.84Q437.06 85.41 437.03 81.72L437.03 81.72ZM438.93 80.24L438.93 81.72Q438.96 84.95 439.96 88.03Q440.96 91.11 442.85 93.50Q444.73 95.89 447.47 97.35Q450.21 98.80 453.73 98.80L453.73 98.80Q457.24 98.80 459.95 97.35Q462.66 95.89 464.54 93.48Q466.42 91.07 467.40 88.01Q468.39 84.95 468.42 81.72L468.42 81.72L468.42 80.24Q468.39 77.04 467.38 73.97Q466.38 70.89 464.50 68.50Q462.62 66.11 459.88 64.63Q457.14 63.16 453.66 63.16L453.66 63.16Q450.18 63.16 447.45 64.63Q444.73 66.11 442.85 68.50Q440.96 70.89 439.96 73.97Q438.96 77.04 438.93 80.24L438.93 80.24ZM536.59 51.70L538.63 51.70L538.59 61.96L552.30 61.96L552.30 63.89L538.59 63.89L538.59 90.89Q538.66 93.11 539.38 94.60Q540.11 96.10 541.37 97.03Q542.64 97.96 544.34 98.38Q546.05 98.80 548.09 98.80L548.09 98.80Q550.93 98.80 553.68 98.49L553.68 98.49L554.06 100.28Q552.62 100.56 551.18 100.63Q549.74 100.70 548.26 100.70L548.26 100.70Q545.73 100.70 543.62 100.19Q541.51 99.68 539.96 98.52Q538.42 97.36 537.54 95.50Q536.66 93.64 536.59 90.89L536.59 90.89L536.59 63.89L525.41 63.89L525.41 61.96L536.59 61.96L536.59 51.70ZM571.11 46L571.11 71.14Q572.03 69.03 573.43 67.22Q574.84 65.41 576.65 64.09Q578.46 62.77 580.64 62.01Q582.82 61.26 585.32 61.26L585.32 61.26Q588.59 61.26 590.98 62.31Q593.37 63.37 594.91 65.25Q596.46 67.13 597.22 69.73Q597.97 72.33 598.01 75.39L598.01 75.39L598.01 100L596.07 100L596.07 75.39Q596.04 72.72 595.42 70.45Q594.81 68.18 593.49 66.55Q592.17 64.91 590.13 64Q588.09 63.09 585.21 63.12L585.21 63.12Q582.64 63.16 580.32 64.14Q578.00 65.13 576.12 66.78Q574.24 68.43 572.94 70.64Q571.64 72.86 571.11 75.32L571.11 75.32L571.11 100L569.18 100L569.18 46L571.11 46ZM613.30 63.86L613.30 61.96L629.16 61.96L629.16 98.10L642.66 98.10L642.66 100L613.30 100L613.30 98.10L627.26 98.10L627.26 63.86L613.30 63.86ZM625.64 51.13L625.64 51.13Q625.64 50.64 625.75 50.17Q625.85 49.69 626.13 49.32Q626.41 48.95 626.89 48.74Q627.36 48.53 628.10 48.53L628.10 48.53Q628.80 48.53 629.28 48.74Q629.75 48.95 630.05 49.32Q630.35 49.69 630.47 50.17Q630.60 50.64 630.60 51.13L630.60 51.13Q630.60 52.08 630.05 52.86Q629.51 53.63 628.10 53.63L628.10 53.63Q626.66 53.63 626.15 52.86Q625.64 52.08 625.64 51.13ZM657.49 71.10L657.49 71.10Q658.41 68.99 659.79 67.18Q661.18 65.37 662.99 64.07Q664.80 62.77 666.98 62.01Q669.16 61.26 671.66 61.26L671.66 61.26Q674.93 61.26 677.30 62.31Q679.68 63.37 681.22 65.25Q682.77 67.13 683.51 69.73Q684.25 72.33 684.28 75.39L684.28 75.39L684.32 100L682.38 100L682.38 75.39Q682.35 72.72 681.73 70.45Q681.12 68.18 679.82 66.55Q678.52 64.91 676.48 64Q674.44 63.09 671.55 63.12L671.55 63.12Q668.99 63.16 666.67 64.14Q664.35 65.13 662.48 66.78Q660.62 68.43 659.32 70.64Q658.02 72.86 657.49 75.32L657.49 75.32L657.49 100L655.56 100L655.56 61.96L657.49 61.96L657.49 71.10Z"/></svg>