<svg xmlns="http://www.w3.org/2000/svg" viewBox="0.341796875 -7.5 30.290081521739136 7.603316580414012"><path d="M4.61 0L3.47-2.96L1.46-2.96L0.94 0L0.34 0L1.58-7.11L3.68-7.10Q4.75-7.10 5.32-6.55Q5.90-6.00 5.81-5.05L5.81-5.05Q5.73-4.34 5.27-3.82Q4.81-3.31 4.04-3.07L4.04-3.07L5.25-0.07L5.25 0L4.61 0ZM2.09-6.60L1.55-3.47L3.31-3.47Q4.06-3.47 4.59-3.91Q5.13-4.35 5.21-5.06L5.21-5.06Q5.29-5.74 4.91-6.16Q4.52-6.57 3.77-6.59L3.77-6.59L2.09-6.60ZM6.56-2.52L6.57-2.69Q6.66-3.46 7.04-4.09Q7.42-4.73 7.99-5.06Q8.56-5.40 9.22-5.38L9.22-5.38Q9.88-5.37 10.34-5.02Q10.80-4.67 11.01-4.07Q11.23-3.47 11.16-2.73L11.16-2.73L11.15-2.64Q11.00-1.39 10.26-0.63Q9.52 0.12 8.49 0.10L8.49 0.10Q7.60 0.08 7.07-0.56Q6.53-1.20 6.54-2.25L6.54-2.25L6.56-2.52ZM7.15-2.61L7.14-2.52Q7.08-1.94 7.22-1.45Q7.37-0.96 7.70-0.68Q8.03-0.41 8.52-0.39L8.52-0.39Q9.04-0.38 9.48-0.66Q9.92-0.94 10.20-1.45Q10.48-1.95 10.57-2.57L10.57-2.57L10.58-2.73Q10.67-3.67 10.29-4.27Q9.91-4.87 9.19-4.88L9.19-4.88Q8.41-4.91 7.84-4.28Q7.28-3.65 7.15-2.61L7.15-2.61ZM16.51-2.72L16.50-2.62Q16.33-1.36 15.70-0.62Q15.07 0.13 14.14 0.10L14.14 0.10Q13.62 0.09 13.23-0.13Q12.83-0.35 12.62-0.72L12.62-0.72L12.46 0L11.91 0L13.21-7.50L13.79-7.50L13.24-4.52Q13.92-5.41 14.95-5.38L14.95-5.38Q15.71-5.36 16.12-4.82Q16.53-4.28 16.54-3.32L16.54-3.32Q16.55-3.01 16.51-2.72L16.51-2.72ZM15.93-2.73L15.93-2.73L15.97-3.19Q15.98-3.99 15.69-4.42Q15.40-4.86 14.81-4.88L14.81-4.88Q13.75-4.90 13.14-3.79L13.14-3.79L12.74-1.40Q12.88-0.93 13.23-0.67Q13.57-0.42 14.06-0.40L14.06-0.40Q14.79-0.39 15.28-0.96Q15.77-1.54 15.93-2.73ZM17.47-2.52L17.48-2.69Q17.57-3.46 17.95-4.09Q18.33-4.73 18.90-5.06Q19.47-5.40 20.13-5.38L20.13-5.38Q20.79-5.37 21.25-5.02Q21.71-4.67 21.92-4.07Q22.13-3.47 22.07-2.73L22.07-2.73L22.06-2.64Q21.91-1.39 21.17-0.63Q20.43 0.12 19.39 0.10L19.39 0.10Q18.51 0.08 17.97-0.56Q17.44-1.20 17.45-2.25L17.45-2.25L17.47-2.52ZM18.06-2.61L18.05-2.52Q17.98-1.94 18.13-1.45Q18.28-0.96 18.61-0.68Q18.94-0.41 19.42-0.39L19.42-0.39Q19.95-0.38 20.39-0.66Q20.83-0.94 21.11-1.45Q21.39-1.95 21.47-2.57L21.47-2.57L21.49-2.73Q21.58-3.67 21.20-4.27Q20.82-4.87 20.10-4.88L20.10-4.88Q19.32-4.91 18.75-4.28Q18.18-3.65 18.06-2.61L18.06-2.61ZM24.29-6.64L24.87-6.64L24.63-5.28L25.69-5.28L25.61-4.80L24.55-4.80L23.96-1.28L23.96-0.98Q23.96-0.44 24.44-0.43L24.44-0.43Q24.59-0.42 24.92-0.46L24.92-0.46L24.89 0.01Q24.60 0.10 24.31 0.09L24.31 0.09Q23.79 0.08 23.56-0.27Q23.33-0.62 23.39-1.28L23.39-1.28L23.97-4.80L23.02-4.80L23.11-5.28L24.05-5.28L24.29-6.64ZM26.02-2.52L26.03-2.69Q26.12-3.46 26.50-4.09Q26.88-4.73 27.45-5.06Q28.02-5.40 28.68-5.38L28.68-5.38Q29.34-5.37 29.80-5.02Q30.26-4.67 30.47-4.07Q30.68-3.47 30.62-2.73L30.62-2.73L30.61-2.64Q30.46-1.39 29.72-0.63Q28.98 0.12 27.94 0.10L27.94 0.10Q27.06 0.08 26.52-0.56Q25.99-1.20 26.00-2.25L26.00-2.25L26.02-2.52ZM26.61-2.61L26.60-2.52Q26.53-1.94 26.68-1.45Q26.83-0.96 27.16-0.68Q27.49-0.41 27.97-0.39L27.97-0.39Q28.50-0.38 28.94-0.66Q29.38-0.94 29.66-1.45Q29.94-1.95 30.02-2.57L30.02-2.57L30.04-2.73Q30.13-3.67 29.75-4.27Q29.37-4.87 28.65-4.88L28.65-4.88Q27.87-4.91 27.30-4.28Q26.73-3.65 26.61-2.61L26.61-2.61Z"/></svg>