<svg xmlns="http://www.w3.org/2000/svg" viewBox="0.3515625 46 826.1666940789474 54.7734375"><path d="M23.03 100L18.81 81.30L13.68 81.30L10.44 100L0.35 100L9.21 48.81L24.68 48.85Q31.54 49.06 35.19 53.07Q38.85 57.07 38.29 64L38.29 64Q37.41 74.51 28.72 78.63L28.72 78.63L33.86 99.44L33.86 100L23.03 100ZM17.82 57.43L15.15 72.68L20.46 72.75Q24.12 72.68 26.23 69.85Q28.34 67.02 28.30 62.35L28.30 62.35Q28.16 57.74 24.26 57.46L24.26 57.46L17.82 57.43ZM58.89 61.26L58.89 61.26Q64.65 61.40 67.89 65.16Q71.12 68.92 71.44 75.25L71.44 75.25L71.44 77.75Q70.98 88.79 66.15 94.85Q61.31 100.91 53.54 100.70L53.54 100.70Q49.01 100.60 46.05 98.26Q43.10 95.92 41.82 91.77Q40.54 87.63 41.10 82.25L41.10 82.25L41.31 80.35Q42.33 71.38 47.04 66.23Q51.75 61.08 58.89 61.26ZM50.66 86.22L50.66 86.22Q50.66 92.30 54.39 92.51L54.39 92.51Q59.45 92.79 60.96 84.78L60.96 84.78L61.35 82.25Q61.84 77.18 61.84 75.74L61.84 75.74Q61.84 69.70 58.01 69.45L58.01 69.45Q55.23 69.31 53.44 72.02Q51.64 74.72 51.15 79.84Q50.66 84.95 50.66 86.22ZM91.51 100.74L91.51 100.74Q86.66 100.53 84.20 96.17L84.20 96.17L82.97 100L73.93 100L83.32 46L93.02 46L89.33 65.09Q92.64 61.15 96.82 61.22L96.82 61.22Q101.81 61.29 104.26 64.95Q106.70 68.61 106.45 75.57L106.45 75.57Q106.17 83.69 104.40 89.58Q102.62 95.46 99.35 98.19Q96.08 100.91 91.51 100.74ZM96.22 82.21L96.89 75.67Q97.00 72.40 96.12 71.03Q95.24 69.66 93.34 69.59L93.34 69.59Q90.63 69.48 88.45 72.40L88.45 72.40L85.43 89.84Q86.48 92.37 89.40 92.51L89.40 92.51Q94.85 92.79 95.91 84.81L95.91 84.81L96.22 82.21ZM128.92 61.26L128.92 61.26Q134.68 61.40 137.92 65.16Q141.15 68.92 141.47 75.25L141.47 75.25L141.47 77.75Q141.01 88.79 136.18 94.85Q131.34 100.91 123.57 100.70L123.57 100.70Q119.04 100.60 116.09 98.26Q113.13 95.92 111.85 91.77Q110.57 87.63 111.13 82.25L111.13 82.25L111.34 80.35Q112.36 71.38 117.07 66.23Q121.78 61.08 128.92 61.26ZM120.69 86.22L120.69 86.22Q120.69 92.30 124.42 92.51L124.42 92.51Q129.48 92.79 130.99 84.78L130.99 84.78L131.38 82.25Q131.87 77.18 131.87 75.74L131.87 75.74Q131.87 69.70 128.04 69.45L128.04 69.45Q125.26 69.31 123.47 72.02Q121.68 74.72 121.18 79.84Q120.69 84.95 120.69 86.22ZM153.77 52.61L163.48 52.61L161.86 61.96L166.78 61.96L165.48 69.45L160.56 69.45L157.32 88.61L157.22 89.73Q157.08 92.09 159.19 92.16L159.19 92.16Q159.79 92.20 161.58 91.98L161.58 91.98L160.70 99.79Q158.52 100.67 155.64 100.67L155.64 100.67Q151.38 100.60 149.24 97.61Q147.09 94.62 147.59 89.45L147.59 89.45L150.86 69.45L146.57 69.45L147.87 61.96L152.12 61.96L153.77 52.61ZM184.75 61.26L184.75 61.26Q190.51 61.40 193.75 65.16Q196.98 68.92 197.30 75.25L197.30 75.25L197.30 77.75Q196.84 88.79 192.01 94.85Q187.17 100.91 179.40 100.70L179.40 100.70Q174.87 100.60 171.91 98.26Q168.96 95.92 167.68 91.77Q166.39 87.63 166.96 82.25L166.96 82.25L167.17 80.35Q168.19 71.38 172.90 66.23Q177.61 61.08 184.75 61.26ZM176.52 86.22L176.52 86.22Q176.52 92.30 180.25 92.51L180.25 92.51Q185.31 92.79 186.82 84.78L186.82 84.78L187.21 82.25Q187.70 77.18 187.70 75.74L187.70 75.74Q187.70 69.70 183.87 69.45L183.87 69.45Q181.09 69.31 179.30 72.02Q177.50 74.72 177.01 79.84Q176.52 84.95 176.52 86.22ZM243.18 82.98L253.05 82.91Q252.11 91.25 246.92 96.08Q241.73 100.91 233.79 100.70L233.79 100.70Q226.97 100.56 223.24 96.20Q219.52 91.84 219.30 84.11L219.30 84.11Q219.23 81.47 219.59 78.80L219.59 78.80L220.89 70.33Q222.54 59.46 228.04 53.70Q233.54 47.93 241.70 48.11L241.70 48.11Q248.84 48.21 252.67 52.84Q256.50 57.46 256.50 66.25L256.50 66.25L246.34 66.21L246.41 62.73Q246.30 56.83 240.89 56.65L240.89 56.65Q236.71 56.51 234.28 59.69Q231.86 62.88 231.01 70.01L231.01 70.01L229.75 78.84Q229.25 83.05 229.22 84.36L229.22 84.36Q228.87 91.95 234.56 92.20L234.56 92.20Q238.11 92.37 240.22 90.31Q242.33 88.26 243.18 82.98L243.18 82.98ZM276.47 61.26L276.47 61.26Q282.23 61.40 285.47 65.16Q288.70 68.92 289.02 75.25L289.02 75.25L289.02 77.75Q288.56 88.79 283.73 94.85Q278.89 100.91 271.13 100.70L271.13 100.70Q266.59 100.60 263.64 98.26Q260.68 95.92 259.40 91.77Q258.12 87.63 258.68 82.25L258.68 82.25L258.89 80.35Q259.91 71.38 264.62 66.23Q269.33 61.08 276.47 61.26ZM268.24 86.22L268.24 86.22Q268.24 92.30 271.97 92.51L271.97 92.51Q277.03 92.79 278.54 84.78L278.54 84.78L278.93 82.25Q279.42 77.18 279.42 75.74L279.42 75.74Q279.42 69.70 275.59 69.45L275.59 69.45Q272.81 69.31 271.02 72.02Q269.23 74.72 268.73 79.84Q268.24 84.95 268.24 86.22ZM297.88 61.96L306.95 61.93L306.25 65.76Q310.25 61.08 315.14 61.22L315.14 61.22Q319.15 61.29 321.24 64.23Q323.33 67.16 323.30 72.58L323.30 72.58L323.09 75.81L319.04 100L309.30 100L313.31 75.74L313.49 73.67Q313.63 69.55 310.39 69.55L310.39 69.55Q308.88 69.55 307.83 70.38Q306.77 71.21 305.86 72.33L305.86 72.33L301.04 100L291.27 100L297.88 61.96ZM343.13 61.22L343.13 61.22Q347.31 61.36 349.91 65.13L349.91 65.13L353.50 46L363.27 46L353.92 100L345.20 100L345.73 96.13Q342.07 100.77 337.68 100.77L337.68 100.77Q332.79 100.70 330.31 97.01Q327.83 93.32 327.94 86.39L327.94 86.39L328.04 84.14Q328.85 72.54 332.63 66.79Q336.41 61.05 343.13 61.22ZM338.24 79.75L337.61 86.25Q337.43 89.31 338.33 90.88Q339.22 92.44 341.09 92.44L341.09 92.44Q343.58 92.51 345.87 89.80L345.87 89.80L348.93 72.33Q347.63 69.66 345.16 69.55L345.16 69.55Q339.96 69.27 338.63 77.08L338.63 77.08L338.24 79.75ZM376.91 100.70L376.91 100.70Q372.30 100.67 369.09 98.45Q365.87 96.24 364.45 92.25Q363.02 88.26 363.59 83.16L363.59 83.16L363.90 80.56Q365.06 71.10 369.65 66.09Q374.24 61.08 381.34 61.26L381.34 61.26Q386.54 61.40 389.51 64.51Q392.48 67.62 392.98 73.21L392.98 73.21Q393.26 76.55 392.84 79.75L392.84 79.75L392.17 84.32L373.18 84.32Q373.01 85.83 373.08 87.24L373.08 87.24Q373.32 92.30 378.04 92.41L378.04 92.41Q382.43 92.55 386.54 89.07L386.54 89.07L389.81 95.11Q387.88 97.75 384.42 99.26Q380.95 100.77 376.91 100.70ZM380.39 69.45L380.39 69.45Q376.21 69.27 374.55 74.79L374.55 74.79L373.85 77.36L383.52 77.39Q383.87 75.36 383.91 74.09L383.91 74.09Q384.05 69.63 380.39 69.45ZM401.38 61.96L410.45 61.93L409.75 65.76Q413.75 61.08 418.64 61.22L418.64 61.22Q422.65 61.29 424.74 64.23Q426.83 67.16 426.80 72.58L426.80 72.58L426.59 75.81L422.54 100L412.80 100L416.81 75.74L416.99 73.67Q417.13 69.55 413.89 69.55L413.89 69.55Q412.38 69.55 411.33 70.38Q410.27 71.21 409.36 72.33L409.36 72.33L404.54 100L394.77 100L401.38 61.96ZM448.07 89.56L448.07 89.56Q448.42 87.10 444.23 85.16Q440.05 83.23 437.96 81.53Q435.87 79.82 434.90 77.75Q433.93 75.67 434.04 73.04L434.04 73.04Q434.29 67.87 438.28 64.51Q442.27 61.15 448.03 61.22L448.03 61.22Q453.73 61.36 457.01 64.62Q460.30 67.87 460.23 73.21L460.23 73.21L450.53 73.21Q450.63 70.71 449.88 69.68Q449.12 68.64 447.50 68.64L447.50 68.64Q445.82 68.64 444.64 69.78Q443.46 70.93 443.18 72.54L443.18 72.54Q442.76 74.83 446.75 76.62Q450.74 78.41 452.50 79.61L452.50 79.61Q457.73 83.09 457.38 89.14L457.38 89.14Q457.17 92.69 455.19 95.34Q453.20 98.00 449.88 99.40Q446.55 100.81 442.69 100.70L442.69 100.70Q437.13 100.56 433.62 97.08Q430.10 93.60 430.17 88.19L430.17 88.19L439.42 88.22Q439.31 90.96 440.30 92.16Q441.28 93.36 443.36 93.36L443.36 93.36Q445.18 93.36 446.47 92.39Q447.75 91.42 448.07 89.56ZM477.49 100.70L477.49 100.70Q472.89 100.67 469.67 98.45Q466.45 96.24 465.03 92.25Q463.61 88.26 464.17 83.16L464.17 83.16L464.48 80.56Q465.64 71.10 470.23 66.09Q474.82 61.08 481.92 61.26L481.92 61.26Q487.13 61.40 490.10 64.51Q493.07 67.62 493.56 73.21L493.56 73.21Q493.84 76.55 493.42 79.75L493.42 79.75L492.75 84.32L473.77 84.32Q473.59 85.83 473.66 87.24L473.66 87.24Q473.91 92.30 478.62 92.41L478.62 92.41Q483.01 92.55 487.13 89.07L487.13 89.07L490.39 95.11Q488.46 97.75 485.00 99.26Q481.54 100.77 477.49 100.70ZM480.97 69.45L480.97 69.45Q476.79 69.27 475.14 74.79L475.14 74.79L474.43 77.36L484.10 77.39Q484.45 75.36 484.49 74.09L484.49 74.09Q484.63 69.63 480.97 69.45ZM512.47 61.22L512.47 61.22Q516.66 61.36 519.26 65.13L519.26 65.13L522.84 46L532.62 46L523.27 100L514.55 100L515.07 96.13Q511.42 100.77 507.02 100.77L507.02 100.77Q502.14 100.70 499.66 97.01Q497.18 93.32 497.29 86.39L497.29 86.39L497.39 84.14Q498.20 72.54 501.98 66.79Q505.76 61.05 512.47 61.22ZM507.59 79.75L506.95 86.25Q506.78 89.31 507.67 90.88Q508.57 92.44 510.43 92.44L510.43 92.44Q512.93 92.51 515.21 89.80L515.21 89.80L518.27 72.33Q516.97 69.66 514.51 69.55L514.51 69.55Q509.31 69.27 507.97 77.08L507.97 77.08L507.59 79.75ZM564.61 100.74L564.61 100.74Q559.76 100.53 557.30 96.17L557.30 96.17L556.07 100L547.03 100L556.42 46L566.12 46L562.43 65.09Q565.73 61.15 569.92 61.22L569.92 61.22Q574.91 61.29 577.35 64.95Q579.80 68.61 579.55 75.57L579.55 75.57Q579.27 83.69 577.49 89.58Q575.72 95.46 572.45 98.19Q569.18 100.91 564.61 100.74ZM569.32 82.21L569.99 75.67Q570.09 72.40 569.21 71.03Q568.34 69.66 566.44 69.59L566.44 69.59Q563.73 69.48 561.55 72.40L561.55 72.40L558.53 89.84Q559.58 92.37 562.50 92.51L562.50 92.51Q567.95 92.79 569.00 84.81L569.00 84.81L569.32 82.21ZM602.02 61.26L602.02 61.26Q607.78 61.40 611.02 65.16Q614.25 68.92 614.57 75.25L614.57 75.25L614.57 77.75Q614.11 88.79 609.28 94.85Q604.44 100.91 596.67 100.70L596.67 100.70Q592.14 100.60 589.18 98.26Q586.23 95.92 584.95 91.77Q583.66 87.63 584.23 82.25L584.23 82.25L584.44 80.35Q585.46 71.38 590.17 66.23Q594.88 61.08 602.02 61.26ZM593.79 86.22L593.79 86.22Q593.79 92.30 597.52 92.51L597.52 92.51Q602.58 92.79 604.09 84.78L604.09 84.78L604.48 82.25Q604.97 77.18 604.97 75.74L604.97 75.74Q604.97 69.70 601.14 69.45L601.14 69.45Q598.36 69.31 596.57 72.02Q594.77 74.72 594.28 79.84Q593.79 84.95 593.79 86.22ZM636.64 46L627.26 100L617.52 100L626.87 46L636.64 46ZM651.90 61.22L651.90 61.22Q656.09 61.36 658.69 65.13L658.69 65.13L662.27 46L672.05 46L662.70 100L653.98 100L654.50 96.13Q650.85 100.77 646.45 100.77L646.45 100.77Q641.57 100.70 639.09 97.01Q636.61 93.32 636.71 86.39L636.71 86.39L636.82 84.14Q637.63 72.54 641.41 66.79Q645.19 61.05 651.90 61.22ZM647.02 79.75L646.38 86.25Q646.21 89.31 647.10 90.88Q648 92.44 649.86 92.44L649.86 92.44Q652.36 92.51 654.64 89.80L654.64 89.80L657.70 72.33Q656.40 69.66 653.94 69.55L653.94 69.55Q648.74 69.27 647.40 77.08L647.40 77.08L647.02 79.75ZM703.27 61.96L696.66 100L686.92 100L693.53 61.96L703.27 61.96ZM694.79 52.29L694.79 52.29Q694.79 49.87 696.32 48.34Q697.85 46.81 700.07 46.81L700.07 46.81Q702.25 46.74 703.78 48.23Q705.30 49.73 705.30 51.94L705.30 51.94Q705.30 54.40 703.78 55.93Q702.25 57.46 700.03 57.46L700.03 57.46Q697.78 57.53 696.29 56.04Q694.79 54.54 694.79 52.29ZM714.23 52.61L723.94 52.61L722.32 61.96L727.24 61.96L725.94 69.45L721.02 69.45L717.79 88.61L717.68 89.73Q717.54 92.09 719.65 92.16L719.65 92.16Q720.25 92.20 722.04 91.98L722.04 91.98L721.16 99.79Q718.98 100.67 716.10 100.67L716.10 100.67Q711.84 100.60 709.70 97.61Q707.55 94.62 708.05 89.45L708.05 89.45L711.32 69.45L707.03 69.45L708.33 61.96L712.58 61.96L714.23 52.61ZM753.86 100L744.33 100Q744.05 98.80 744.05 97.05L744.05 97.05Q740.81 100.74 736.66 100.74L736.66 100.74Q732.27 100.67 729.62 97.50Q726.96 94.34 727.17 89.63L727.17 89.63Q727.49 83.58 731.88 80.15Q736.28 76.73 743.70 76.73L743.70 76.73L746.54 76.73L747 73.63L747.11 72.05Q747.11 68.99 744.64 68.99L744.64 68.99Q741.23 68.89 740.50 73.35L740.50 73.35L730.83 73.42Q731.14 68.01 735.33 64.58Q739.51 61.15 745.52 61.22L745.52 61.22Q751.18 61.36 754.19 64.79Q757.20 68.22 756.63 73.84L756.63 73.84L753.54 93.18L753.40 95.04Q753.26 97.50 753.89 99.37L753.89 99.37L753.86 100ZM739.34 92.97L739.34 92.97Q741.90 93.04 744.12 90.72L744.12 90.72L745.84 82.67L743.73 82.67Q740.92 82.81 739.20 84.57Q737.47 86.32 737.12 89.00L737.12 89.00L737.09 90.33Q737.09 91.46 737.67 92.20Q738.25 92.93 739.34 92.97ZM779.03 46L769.64 100L759.90 100L769.25 46L779.03 46ZM794.21 61.96L787.61 100L777.87 100L784.48 61.96L794.21 61.96ZM785.74 52.29L785.74 52.29Q785.74 49.87 787.27 48.34Q788.80 46.81 791.02 46.81L791.02 46.81Q793.20 46.74 794.72 48.23Q796.25 49.73 796.25 51.94L796.25 51.94Q796.25 54.40 794.72 55.93Q793.20 57.46 790.98 57.46L790.98 57.46Q788.73 57.53 787.24 56.04Q785.74 54.54 785.74 52.29ZM810.28 92.51L810.28 92.51Q814.29 92.62 815.24 86.85L815.24 86.85L824.34 86.82Q823.75 93.14 819.67 97.01Q815.59 100.88 809.72 100.74L809.72 100.74Q804.41 100.60 801.26 97.56Q798.12 94.52 797.52 89.07L797.52 89.07Q796.99 84.64 798.03 78.38Q799.07 72.12 801.88 67.94L801.88 67.94Q806.48 61.05 814.99 61.26L814.99 61.26Q820.76 61.43 823.78 65.42Q826.80 69.41 826.49 76.20L826.49 76.20L817.35 76.16L817.38 73.98Q817.24 69.63 813.94 69.45L813.94 69.45Q808.77 69.17 807.79 77.46L807.79 77.46L807.12 83.83Q806.70 86.68 806.84 88.57L806.84 88.57Q807.08 92.41 810.28 92.51Z"/></svg>