<svg xmlns="http://www.w3.org/2000/svg" viewBox="1.546875 46 1050.2149658203125 54.74501329787233"><path d="M27.67 100L21.69 80.03L13.25 80.03L9.77 100L1.55 100L10.41 48.81L25.70 48.85Q29.14 48.92 32.08 49.92Q35.02 50.92 37.11 52.82Q39.20 54.72 40.27 57.51Q41.34 60.31 41.03 63.96L41.03 63.96Q40.82 66.60 39.88 68.80Q38.95 71.00 37.48 72.74Q36 74.48 34.00 75.83Q31.99 77.18 29.60 78.13L29.60 78.13L36.46 99.54L36.42 100L27.67 100ZM17.47 55.63L14.41 73.21L21.62 73.28Q23.70 73.28 25.59 72.68Q27.49 72.09 28.99 70.93Q30.48 69.77 31.45 68.10Q32.41 66.43 32.70 64.25L32.70 64.25Q33.19 60.38 31.20 58.11Q29.21 55.84 25.38 55.67L25.38 55.67L17.47 55.63ZM45.67 81.61L45.74 80.88Q46.23 76.94 47.79 73.33Q49.36 69.73 51.91 67.02Q54.46 64.32 57.92 62.73Q61.38 61.15 65.64 61.26L65.64 61.26Q69.68 61.36 72.58 63.00Q75.48 64.63 77.26 67.30Q79.03 69.98 79.72 73.40Q80.40 76.83 80.02 80.52L80.02 80.52L79.95 81.30Q79.45 85.23 77.87 88.80Q76.29 92.37 73.74 95.06Q71.19 97.75 67.73 99.30Q64.27 100.84 60.05 100.74L60.05 100.74Q56.04 100.63 53.14 99.02Q50.24 97.40 48.45 94.76Q46.65 92.13 45.97 88.71Q45.28 85.30 45.67 81.61L45.67 81.61ZM53.93 80.88L53.86 81.61Q53.72 82.91 53.70 84.32Q53.68 85.73 53.89 87.10Q54.11 88.47 54.56 89.70Q55.02 90.93 55.83 91.88Q56.64 92.83 57.81 93.43Q58.99 94.02 60.64 94.06L60.64 94.06Q63.28 94.16 65.23 93.00Q67.18 91.84 68.52 89.98Q69.86 88.12 70.65 85.80Q71.44 83.48 71.72 81.26L71.72 81.26L71.79 80.56Q72 78.63 71.89 76.45Q71.79 74.27 71.10 72.42Q70.42 70.57 68.96 69.33Q67.50 68.08 65.04 68.01L65.04 68.01Q62.40 67.94 60.43 69.10Q58.46 70.26 57.13 72.14Q55.79 74.02 55.00 76.34Q54.21 78.66 53.93 80.88L53.93 80.88ZM121.92 80.45L121.82 81.19Q121.54 83.55 120.90 85.92Q120.27 88.29 119.25 90.49Q118.23 92.69 116.84 94.59Q115.45 96.48 113.63 97.87Q111.80 99.26 109.55 100.04Q107.30 100.81 104.59 100.74L104.59 100.74Q101.64 100.67 99.18 99.49Q96.71 98.31 95.03 95.89L95.03 95.89L93.73 100L86.24 100L95.59 46L103.82 46L100.09 65.62Q102.16 63.44 104.66 62.31Q107.16 61.19 110.18 61.26L110.18 61.26Q112.78 61.33 114.73 62.17Q116.68 63.02 118.05 64.44Q119.43 65.86 120.29 67.74Q121.15 69.63 121.59 71.73Q122.03 73.84 122.08 76.08Q122.13 78.31 121.92 80.45L121.92 80.45ZM113.63 81.19L113.73 80.42Q113.87 79.19 113.92 77.80Q113.98 76.41 113.84 75.07Q113.70 73.74 113.31 72.49Q112.92 71.24 112.18 70.29Q111.45 69.34 110.32 68.76Q109.20 68.18 107.54 68.11L107.54 68.11Q104.73 68.04 102.67 69.43Q100.62 70.82 99.11 73.07L99.11 73.07L96.36 88.86Q97.17 91.21 98.86 92.51Q100.55 93.81 103.08 93.88L103.08 93.88Q105.71 93.95 107.60 92.81Q109.48 91.67 110.72 89.82Q111.97 87.98 112.66 85.69Q113.34 83.41 113.63 81.19L113.63 81.19ZM130.18 81.61L130.25 80.88Q130.75 76.94 132.31 73.33Q133.88 69.73 136.42 67.02Q138.97 64.32 142.44 62.73Q145.90 61.15 150.15 61.26L150.15 61.26Q154.20 61.36 157.10 63.00Q160.00 64.63 161.77 67.30Q163.55 69.98 164.23 73.40Q164.92 76.83 164.53 80.52L164.53 80.52L164.46 81.30Q163.97 85.23 162.39 88.80Q160.80 92.37 158.26 95.06Q155.71 97.75 152.24 99.30Q148.78 100.84 144.56 100.74L144.56 100.74Q140.55 100.63 137.65 99.02Q134.75 97.40 132.96 94.76Q131.17 92.13 130.48 88.71Q129.80 85.30 130.18 81.61L130.18 81.61ZM138.45 80.88L138.38 81.61Q138.23 82.91 138.22 84.32Q138.20 85.73 138.41 87.10Q138.62 88.47 139.08 89.70Q139.54 90.93 140.34 91.88Q141.15 92.83 142.33 93.43Q143.51 94.02 145.16 94.06L145.16 94.06Q147.80 94.16 149.75 93.00Q151.70 91.84 153.04 89.98Q154.37 88.12 155.16 85.80Q155.95 83.48 156.23 81.26L156.23 81.26L156.30 80.56Q156.52 78.63 156.41 76.45Q156.30 74.27 155.62 72.42Q154.93 70.57 153.47 69.33Q152.02 68.08 149.55 68.01L149.55 68.01Q146.92 67.94 144.95 69.10Q142.98 70.26 141.64 72.14Q140.31 74.02 139.52 76.34Q138.73 78.66 138.45 80.88L138.45 80.88ZM187.03 52.75L195.22 52.75L193.61 61.96L207.60 61.96L206.47 68.22L192.55 68.22L189.53 86.50Q189.35 88.01 189.49 89.29Q189.63 90.58 190.20 91.54Q190.76 92.51 191.79 93.09Q192.83 93.67 194.48 93.71L194.48 93.71Q196.52 93.78 198.53 93.43Q200.53 93.07 202.54 92.65L202.54 92.65L202.89 98.52Q201.69 99.23 200.32 99.65Q198.95 100.07 197.51 100.32Q196.07 100.56 194.63 100.65Q193.18 100.74 191.81 100.70L191.81 100.70Q188.79 100.67 186.64 99.56Q184.50 98.45 183.22 96.59Q181.93 94.73 181.46 92.25Q180.98 89.77 181.27 86.92L181.27 86.92L184.32 68.22L175.32 68.22L176.41 61.96L185.41 61.96L187.03 52.75ZM214.70 81.61L214.77 80.88Q215.26 76.94 216.83 73.33Q218.39 69.73 220.94 67.02Q223.49 64.32 226.95 62.73Q230.41 61.15 234.67 61.26L234.67 61.26Q238.71 61.36 241.61 63.00Q244.51 64.63 246.29 67.30Q248.06 69.98 248.75 73.40Q249.43 76.83 249.05 80.52L249.05 80.52L248.98 81.30Q248.48 85.23 246.90 88.80Q245.32 92.37 242.77 95.06Q240.22 97.75 236.76 99.30Q233.30 100.84 229.08 100.74L229.08 100.74Q225.07 100.63 222.17 99.02Q219.27 97.40 217.48 94.76Q215.68 92.13 215.00 88.71Q214.31 85.30 214.70 81.61L214.70 81.61ZM222.96 80.88L222.89 81.61Q222.75 82.91 222.73 84.32Q222.71 85.73 222.93 87.10Q223.14 88.47 223.59 89.70Q224.05 90.93 224.86 91.88Q225.67 92.83 226.85 93.43Q228.02 94.02 229.68 94.06L229.68 94.06Q232.31 94.16 234.26 93.00Q236.21 91.84 237.55 89.98Q238.89 88.12 239.68 85.80Q240.47 83.48 240.75 81.26L240.75 81.26L240.82 80.56Q241.03 78.63 240.93 76.45Q240.82 74.27 240.13 72.42Q239.45 70.57 237.99 69.33Q236.53 68.08 234.07 68.01L234.07 68.01Q231.43 67.94 229.46 69.10Q227.50 70.26 226.16 72.14Q224.82 74.02 224.03 76.34Q223.24 78.66 222.96 80.88L222.96 80.88ZM305.61 48.81L315.70 48.81L317.99 70.82L328.64 48.81L338.98 48.81L330.08 100L322.35 100L325.44 82.07L329.66 60.66L318.02 84.53L313.70 84.53L310.85 60.52L307.48 82.77L304.49 100L296.72 100L305.61 48.81ZM341.47 81.61L341.54 80.88Q342.04 76.94 343.60 73.33Q345.16 69.73 347.71 67.02Q350.26 64.32 353.72 62.73Q357.19 61.15 361.44 61.26L361.44 61.26Q365.48 61.36 368.38 63.00Q371.29 64.63 373.06 67.30Q374.84 69.98 375.52 73.40Q376.21 76.83 375.82 80.52L375.82 80.52L375.75 81.30Q375.26 85.23 373.68 88.80Q372.09 92.37 369.54 95.06Q367.00 97.75 363.53 99.30Q360.07 100.84 355.85 100.74L355.85 100.74Q351.84 100.63 348.94 99.02Q346.04 97.40 344.25 94.76Q342.46 92.13 341.77 88.71Q341.09 85.30 341.47 81.61L341.47 81.61ZM349.73 80.88L349.66 81.61Q349.52 82.91 349.51 84.32Q349.49 85.73 349.70 87.10Q349.91 88.47 350.37 89.70Q350.82 90.93 351.63 91.88Q352.44 92.83 353.62 93.43Q354.80 94.02 356.45 94.06L356.45 94.06Q359.09 94.16 361.04 93.00Q362.99 91.84 364.32 89.98Q365.66 88.12 366.45 85.80Q367.24 83.48 367.52 81.26L367.52 81.26L367.59 80.56Q367.80 78.63 367.70 76.45Q367.59 74.27 366.91 72.42Q366.22 70.57 364.76 69.33Q363.30 68.08 360.84 68.01L360.84 68.01Q358.21 67.94 356.24 69.10Q354.27 70.26 352.93 72.14Q351.60 74.02 350.81 76.34Q350.02 78.66 349.73 80.88L349.73 80.88ZM388.55 61.96L395.89 61.93L395.19 67.27Q397.51 64.53 400.48 62.86Q403.45 61.19 407.14 61.26L407.14 61.26Q410.41 61.33 412.59 62.58Q414.77 63.82 416.02 65.88Q417.27 67.94 417.67 70.63Q418.08 73.32 417.76 76.23L417.76 76.23L413.79 100L405.60 100L409.54 76.34Q409.75 74.58 409.57 73.11Q409.39 71.63 408.73 70.54Q408.06 69.45 406.83 68.82Q405.60 68.18 403.66 68.15L403.66 68.15Q402.29 68.11 401.06 68.43Q399.83 68.75 398.76 69.36Q397.69 69.98 396.72 70.82Q395.75 71.66 394.91 72.68L394.91 72.68L390.16 100L381.94 100L388.55 61.96ZM425.99 81.61L426.06 80.88Q426.55 76.94 428.12 73.33Q429.68 69.73 432.23 67.02Q434.78 64.32 438.24 62.73Q441.70 61.15 445.96 61.26L445.96 61.26Q450 61.36 452.90 63.00Q455.80 64.63 457.58 67.30Q459.35 69.98 460.04 73.40Q460.72 76.83 460.34 80.52L460.34 80.52L460.27 81.30Q459.77 85.23 458.19 88.80Q456.61 92.37 454.06 95.06Q451.51 97.75 448.05 99.30Q444.59 100.84 440.37 100.74L440.37 100.74Q436.36 100.63 433.46 99.02Q430.56 97.40 428.77 94.76Q426.97 92.13 426.29 88.71Q425.60 85.30 425.99 81.61L425.99 81.61ZM434.25 80.88L434.18 81.61Q434.04 82.91 434.02 84.32Q434.00 85.73 434.21 87.10Q434.43 88.47 434.88 89.70Q435.34 90.93 436.15 91.88Q436.96 92.83 438.13 93.43Q439.31 94.02 440.96 94.06L440.96 94.06Q443.60 94.16 445.55 93.00Q447.50 91.84 448.84 89.98Q450.18 88.12 450.97 85.80Q451.76 83.48 452.04 81.26L452.04 81.26L452.11 80.56Q452.32 78.63 452.21 76.45Q452.11 74.27 451.42 72.42Q450.74 70.57 449.28 69.33Q447.82 68.08 445.36 68.01L445.36 68.01Q442.72 67.94 440.75 69.10Q438.79 70.26 437.45 72.14Q436.11 74.02 435.32 76.34Q434.53 78.66 434.25 80.88L434.25 80.88ZM512.89 61.96L520.00 61.93L519.22 66.00Q520.63 63.86 522.53 62.54Q524.43 61.22 527.06 61.26L527.06 61.26Q529.17 61.26 530.70 62.19Q532.23 63.12 532.83 65.23L532.83 65.23Q534.27 63.44 536.03 62.33Q537.79 61.22 540.18 61.29L540.18 61.29Q542.43 61.33 543.85 62.33Q545.27 63.33 546.03 64.90Q546.79 66.46 546.98 68.39Q547.17 70.33 547.00 72.23L547.00 72.23L542.39 100L534.76 100L539.44 72.09Q539.51 71.35 539.47 70.64Q539.44 69.94 539.17 69.38Q538.91 68.82 538.37 68.48Q537.82 68.15 536.94 68.15L536.94 68.15Q535.61 68.15 534.73 68.83Q533.85 69.52 533.14 70.61L533.14 70.61L528.05 100L520.59 100L525.30 72.12Q525.38 71.38 525.34 70.68Q525.30 69.98 525.06 69.41Q524.81 68.85 524.30 68.50Q523.79 68.15 522.91 68.15L522.91 68.15Q521.58 68.11 520.66 68.78Q519.75 69.45 519.01 70.47L519.01 70.47L513.91 100L506.29 100L512.89 61.96ZM568.58 100.70L568.58 100.70Q564.71 100.63 561.66 99.17Q558.60 97.71 556.58 95.25Q554.55 92.79 553.61 89.51Q552.66 86.22 553.01 82.46L553.01 82.46L553.18 80.98Q553.46 78.41 554.31 75.92Q555.15 73.42 556.47 71.21Q557.79 68.99 559.55 67.15Q561.30 65.30 563.47 63.96Q565.63 62.63 568.11 61.91Q570.59 61.19 573.36 61.26L573.36 61.26Q577.37 61.36 580.17 62.95Q582.96 64.53 584.63 67.13Q586.30 69.73 586.88 73.09Q587.46 76.45 587.00 80.07L587.00 80.07L586.48 83.62L561.09 83.62Q560.92 85.66 561.39 87.50Q561.87 89.35 562.94 90.77Q564.01 92.20 565.65 93.06Q567.28 93.92 569.46 93.95L569.46 93.95Q572.55 94.06 575.28 92.79Q578.00 91.53 580.11 89.31L580.11 89.31L584.23 93.60Q582.93 95.46 581.15 96.82Q579.38 98.17 577.30 99.05Q575.23 99.93 572.99 100.33Q570.76 100.74 568.58 100.70ZM572.73 68.01L572.73 68.01Q570.62 67.94 568.93 68.75Q567.25 69.55 565.93 70.89Q564.61 72.23 563.63 73.95Q562.64 75.67 561.97 77.43L561.97 77.43L579.27 77.46L579.41 76.73Q579.66 75.00 579.34 73.46Q579.02 71.91 578.14 70.71Q577.27 69.52 575.89 68.80Q574.52 68.08 572.73 68.01ZM595.41 81.68L595.48 80.91Q595.76 78.55 596.43 76.16Q597.09 73.77 598.13 71.56Q599.17 69.34 600.59 67.45Q602.02 65.55 603.86 64.14Q605.71 62.73 607.99 61.96Q610.28 61.19 612.98 61.26L612.98 61.26Q615.69 61.33 617.98 62.35Q620.26 63.37 621.95 65.44L621.95 65.44L625.57 46L633.80 46L624.45 100L617.06 100L617.59 96.13Q615.48 98.38 612.91 99.58Q610.35 100.77 607.18 100.70L607.18 100.70Q604.69 100.63 602.79 99.77Q600.89 98.91 599.50 97.49Q598.11 96.06 597.22 94.18Q596.32 92.30 595.85 90.21Q595.37 88.12 595.28 85.94Q595.20 83.76 595.41 81.68L595.41 81.68ZM603.70 80.95L603.60 81.68Q603.42 83.51 603.47 85.60Q603.53 87.70 604.14 89.51Q604.76 91.32 606.09 92.53Q607.43 93.74 609.82 93.81L609.82 93.81Q612.53 93.88 614.53 92.62Q616.54 91.35 618.05 89.24L618.05 89.24L620.96 72.65Q620.12 70.47 618.47 69.33Q616.82 68.18 614.50 68.11L614.50 68.11Q611.86 68.04 609.93 69.20Q607.99 70.36 606.71 72.23Q605.43 74.09 604.69 76.41Q603.95 78.73 603.70 80.95L603.70 80.95ZM642.62 68.96L643.85 61.96L663.57 61.96L658.20 93.04L669.16 93.04L667.93 100L637.24 100L638.47 93.04L649.90 93.04L654.08 68.96L642.62 68.96ZM656.33 52.26L656.33 52.26Q656.33 51.24 656.68 50.39Q657.04 49.55 657.67 48.92Q658.30 48.29 659.16 47.93Q660.02 47.58 661.04 47.55L661.04 47.55Q662.03 47.51 662.89 47.83Q663.75 48.14 664.40 48.72Q665.05 49.30 665.42 50.13Q665.79 50.96 665.79 51.98L665.79 51.98Q665.79 53.00 665.40 53.86Q665.02 54.72 664.38 55.35Q663.75 55.98 662.87 56.34Q661.99 56.69 661.01 56.69L661.01 56.69Q660.02 56.72 659.16 56.41Q658.30 56.09 657.67 55.51Q657.04 54.93 656.68 54.10Q656.33 53.28 656.33 52.26ZM701.93 100L702.63 94.80Q701.58 96.13 700.33 97.24Q699.08 98.35 697.68 99.14Q696.27 99.93 694.69 100.35Q693.11 100.77 691.35 100.74L691.35 100.74Q687.90 100.67 685.71 99.23Q683.51 97.79 682.33 95.48Q681.15 93.18 680.85 90.30Q680.55 87.41 680.87 84.46L680.87 84.46L684.60 61.96L692.82 61.96L689.06 84.57Q688.89 86.15 688.85 87.78Q688.82 89.42 689.24 90.74Q689.66 92.05 690.71 92.92Q691.77 93.78 693.77 93.81L693.77 93.81Q696.76 93.92 699.03 92.67Q701.30 91.42 702.95 89.00L702.95 89.00L707.66 61.96L715.89 61.96L709.31 100L701.93 100ZM724.18 61.96L731.29 61.93L730.51 66.00Q731.92 63.86 733.82 62.54Q735.71 61.22 738.35 61.26L738.35 61.26Q740.46 61.26 741.99 62.19Q743.52 63.12 744.12 65.23L744.12 65.23Q745.56 63.44 747.32 62.33Q749.07 61.22 751.46 61.29L751.46 61.29Q753.71 61.33 755.14 62.33Q756.56 63.33 757.32 64.90Q758.07 66.46 758.27 68.39Q758.46 70.33 758.29 72.23L758.29 72.23L753.68 100L746.05 100L750.73 72.09Q750.80 71.35 750.76 70.64Q750.73 69.94 750.46 69.38Q750.20 68.82 749.65 68.48Q749.11 68.15 748.23 68.15L748.23 68.15Q746.89 68.15 746.02 68.83Q745.14 69.52 744.43 70.61L744.43 70.61L739.34 100L731.88 100L736.59 72.12Q736.66 71.38 736.63 70.68Q736.59 69.98 736.35 69.41Q736.10 68.85 735.59 68.50Q735.08 68.15 734.20 68.15L734.20 68.15Q732.87 68.11 731.95 68.78Q731.04 69.45 730.30 70.47L730.30 70.47L725.20 100L717.57 100L724.18 61.96ZM811.65 68.96L812.88 61.96L832.61 61.96L827.23 93.04L838.20 93.04L836.96 100L806.27 100L807.50 93.04L818.93 93.04L823.11 68.96L811.65 68.96ZM825.36 52.26L825.36 52.26Q825.36 51.24 825.71 50.39Q826.07 49.55 826.70 48.92Q827.33 48.29 828.19 47.93Q829.05 47.58 830.07 47.55L830.07 47.55Q831.06 47.51 831.92 47.83Q832.78 48.14 833.43 48.72Q834.08 49.30 834.45 50.13Q834.82 50.96 834.82 51.98L834.82 51.98Q834.82 53.00 834.43 53.86Q834.05 54.72 833.41 55.35Q832.78 55.98 831.90 56.34Q831.02 56.69 830.04 56.69L830.04 56.69Q829.05 56.72 828.19 56.41Q827.33 56.09 826.70 55.51Q826.07 54.93 825.71 54.10Q825.36 53.28 825.36 52.26ZM863.16 52.75L871.35 52.75L869.73 61.96L883.72 61.96L882.60 68.22L868.68 68.22L865.65 86.50Q865.48 88.01 865.62 89.29Q865.76 90.58 866.32 91.54Q866.88 92.51 867.92 93.09Q868.96 93.67 870.61 93.71L870.61 93.71Q872.65 93.78 874.65 93.43Q876.66 93.07 878.66 92.65L878.66 92.65L879.01 98.52Q877.82 99.23 876.45 99.65Q875.07 100.07 873.63 100.32Q872.19 100.56 870.75 100.65Q869.31 100.74 867.94 100.70L867.94 100.70Q864.91 100.67 862.77 99.56Q860.63 98.45 859.34 96.59Q858.06 94.73 857.58 92.25Q857.11 89.77 857.39 86.92L857.39 86.92L860.45 68.22L851.45 68.22L852.54 61.96L861.54 61.96L863.16 52.75ZM921.13 100L912.94 100Q912.66 99.09 912.62 98.17Q912.59 97.26 912.62 96.31L912.62 96.31Q910.30 98.38 907.58 99.56Q904.85 100.74 901.69 100.67L901.69 100.67Q899.30 100.63 897.15 99.86Q895.01 99.09 893.43 97.66Q891.84 96.24 890.96 94.22Q890.09 92.20 890.23 89.63L890.23 89.63Q890.37 87.13 891.23 85.20Q892.09 83.27 893.46 81.84Q894.83 80.42 896.64 79.43Q898.45 78.45 900.49 77.83Q902.53 77.22 904.69 76.97Q906.86 76.73 909 76.73L909 76.73L915.22 76.76L915.64 74.20Q915.86 72.65 915.49 71.44Q915.12 70.22 914.27 69.40Q913.43 68.57 912.20 68.13Q910.97 67.69 909.46 67.66L909.46 67.66Q908.12 67.62 906.93 67.92Q905.73 68.22 904.75 68.87Q903.76 69.52 903.09 70.50Q902.43 71.49 902.14 72.86L902.14 72.86L893.95 72.89Q894.20 69.87 895.78 67.66Q897.36 65.44 899.72 64Q902.07 62.56 904.89 61.87Q907.70 61.19 910.41 61.22L910.41 61.22Q913.36 61.29 915.94 62.15Q918.53 63.02 920.39 64.67Q922.25 66.32 923.22 68.75Q924.19 71.17 923.87 74.34L923.87 74.34L921.09 91.32Q920.78 93.32 920.67 95.36Q920.57 97.40 921.20 99.37L921.20 99.37L921.13 100ZM903.73 93.95L903.73 93.95Q906.54 94.02 909 92.76Q911.46 91.49 913.18 89.28L913.18 89.28L914.48 82.11L909.74 82.07Q908.02 82.07 906.15 82.35Q904.29 82.63 902.67 83.35Q901.05 84.07 899.93 85.38Q898.80 86.68 898.56 88.71L898.56 88.71Q898.38 90.02 898.72 90.98Q899.05 91.95 899.75 92.60Q900.46 93.25 901.48 93.58Q902.50 93.92 903.73 93.95ZM940.92 53.00L942.15 46L962.16 46L954 93.04L965.25 93.04L964.02 100L932.77 100L934.00 93.04L945.70 93.04L952.66 53.00L940.92 53.00ZM980.68 68.96L981.91 61.96L1001.64 61.96L996.26 93.04L1007.23 93.04L1006.00 100L975.30 100L976.54 93.04L987.96 93.04L992.14 68.96L980.68 68.96ZM994.39 52.26L994.39 52.26Q994.39 51.24 994.75 50.39Q995.10 49.55 995.73 48.92Q996.36 48.29 997.22 47.93Q998.09 47.58 999.11 47.55L999.11 47.55Q1000.09 47.51 1000.95 47.83Q1001.81 48.14 1002.46 48.72Q1003.11 49.30 1003.48 50.13Q1003.85 50.96 1003.85 51.98L1003.85 51.98Q1003.85 53.00 1003.46 53.86Q1003.08 54.72 1002.45 55.35Q1001.81 55.98 1000.93 56.34Q1000.05 56.69 999.07 56.69L999.07 56.69Q998.09 56.72 997.22 56.41Q996.36 56.09 995.73 55.51Q995.10 54.93 994.75 54.10Q994.39 53.28 994.39 52.26ZM1032.96 94.06L1032.96 94.06Q1034.47 94.09 1035.93 93.65Q1037.39 93.21 1038.57 92.35Q1039.75 91.49 1040.57 90.28Q1041.40 89.07 1041.68 87.52L1041.68 87.52L1049.41 87.48Q1049.17 90.58 1047.59 93.06Q1046.00 95.54 1043.61 97.26Q1041.22 98.98 1038.30 99.89Q1035.39 100.81 1032.50 100.74L1032.50 100.74Q1028.43 100.67 1025.54 99.07Q1022.66 97.47 1020.88 94.85Q1019.11 92.23 1018.44 88.84Q1017.77 85.45 1018.16 81.75L1018.16 81.75L1018.30 80.45Q1018.76 76.52 1020.34 72.98Q1021.92 69.45 1024.47 66.81Q1027.02 64.18 1030.46 62.66Q1033.91 61.15 1038.09 61.26L1038.09 61.26Q1041.22 61.33 1043.81 62.40Q1046.39 63.47 1048.20 65.35Q1050.01 67.23 1050.96 69.84Q1051.91 72.44 1051.73 75.60L1051.73 75.60L1044.04 75.57Q1044.14 74.02 1043.72 72.67Q1043.30 71.31 1042.45 70.29Q1041.61 69.27 1040.34 68.68Q1039.08 68.08 1037.46 68.01L1037.46 68.01Q1034.82 67.90 1032.89 69.01Q1030.96 70.12 1029.62 71.91Q1028.29 73.70 1027.51 75.95Q1026.74 78.20 1026.42 80.45L1026.42 80.45L1026.28 81.72Q1026.14 83.02 1026.12 84.43Q1026.11 85.83 1026.28 87.19Q1026.46 88.54 1026.90 89.77Q1027.34 91 1028.13 91.93Q1028.92 92.86 1030.10 93.44Q1031.27 94.02 1032.96 94.06Z"/></svg>