<svg xmlns="http://www.w3.org/2000/svg" viewBox="5.9765625 46 658.7578125 69.15234375"><path d="M32.24 100L21.97 78.70L10.02 78.70L10.02 100L5.98 100L5.98 48.81L20.00 48.81Q27 48.81 30.85 52.80Q34.70 56.79 34.70 63.89L34.70 63.89Q34.70 68.85 32.31 72.60Q29.92 76.34 25.88 77.78L25.88 77.78L36.53 99.54L36.53 100L32.24 100ZM10.02 52.61L10.02 74.97L20.71 74.97Q25.24 74.97 27.95 71.86Q30.66 68.75 30.66 63.89L30.66 63.89Q30.66 58.52 27.84 55.56Q25.03 52.61 19.97 52.61L19.97 52.61L10.02 52.61ZM43.31 83.55L43.31 79.05Q43.31 70.82 47.04 66.04Q50.77 61.26 57.20 61.26L57.20 61.26Q63.67 61.26 67.38 65.97Q71.09 70.68 71.12 78.94L71.12 78.94L71.12 82.98Q71.12 91.35 67.38 96.03Q63.63 100.70 57.27 100.70Q50.91 100.70 47.18 96.13Q43.45 91.56 43.31 83.55L43.31 83.55ZM47.25 78.77L47.25 82.98Q47.25 89.56 49.90 93.32Q52.56 97.08 57.27 97.08L57.27 97.08Q62.09 97.08 64.63 93.46Q67.18 89.84 67.22 83.09L67.22 83.09L67.22 79.05Q67.22 72.47 64.55 68.69Q61.88 64.91 57.20 64.91L57.20 64.91Q52.66 64.91 49.99 68.61Q47.32 72.30 47.25 78.77L47.25 78.77ZM106.10 78.55L106.10 82.77Q106.10 91.56 103.03 96.13Q99.95 100.70 93.87 100.70L93.87 100.70Q87.15 100.70 83.92 94.90L83.92 94.90L83.74 100L80.12 100L80.12 46L83.99 46L83.99 67.27Q87.19 61.26 93.80 61.26L93.80 61.26Q99.95 61.26 102.97 65.60Q106.00 69.94 106.10 78.55L106.10 78.55ZM102.20 83.02L102.20 79.22Q102.20 71.98 100.05 68.50Q97.91 65.02 93.02 65.02L93.02 65.02Q86.52 65.02 83.99 71.88L83.99 71.88L83.99 90.72Q85.18 93.71 87.50 95.34Q89.82 96.98 93.09 96.98L93.09 96.98Q97.77 96.98 99.97 93.58Q102.16 90.19 102.20 83.02L102.20 83.02ZM113.66 83.55L113.66 79.05Q113.66 70.82 117.39 66.04Q121.11 61.26 127.55 61.26L127.55 61.26Q134.02 61.26 137.72 65.97Q141.43 70.68 141.47 78.94L141.47 78.94L141.47 82.98Q141.47 91.35 137.72 96.03Q133.98 100.70 127.62 100.70Q121.25 100.70 117.53 96.13Q113.80 91.56 113.66 83.55L113.66 83.55ZM117.60 78.77L117.60 82.98Q117.60 89.56 120.25 93.32Q122.91 97.08 127.62 97.08L127.62 97.08Q132.43 97.08 134.98 93.46Q137.53 89.84 137.57 83.09L137.57 83.09L137.57 79.05Q137.57 72.47 134.89 68.69Q132.22 64.91 127.55 64.91L127.55 64.91Q123.01 64.91 120.34 68.61Q117.67 72.30 117.60 78.77L117.60 78.77ZM152.44 52.26L156.34 52.26L156.34 61.96L162.84 61.96L162.84 65.48L156.34 65.48L156.34 90.75Q156.34 93.88 157.27 95.41Q158.20 96.94 160.38 96.94L160.38 96.94Q161.33 96.94 163.20 96.59L163.20 96.59L163.30 100.11Q161.96 100.70 159.47 100.70L159.47 100.70Q152.61 100.70 152.44 91.28L152.44 91.28L152.44 65.48L146.57 65.48L146.57 61.96L152.44 61.96L152.44 52.26ZM169.17 83.55L169.17 79.05Q169.17 70.82 172.90 66.04Q176.63 61.26 183.06 61.26L183.06 61.26Q189.53 61.26 193.24 65.97Q196.95 70.68 196.98 78.94L196.98 78.94L196.98 82.98Q196.98 91.35 193.24 96.03Q189.49 100.70 183.13 100.70Q176.77 100.70 173.04 96.13Q169.31 91.56 169.17 83.55L169.17 83.55ZM173.11 78.77L173.11 82.98Q173.11 89.56 175.76 93.32Q178.42 97.08 183.13 97.08L183.13 97.08Q187.95 97.08 190.49 93.46Q193.04 89.84 193.08 83.09L193.08 83.09L193.08 79.05Q193.08 72.47 190.41 68.69Q187.73 64.91 183.06 64.91L183.06 64.91Q178.52 64.91 175.85 68.61Q173.18 72.30 173.11 78.77L173.11 78.77ZM249.61 84.04L253.69 84.04Q253.13 92.65 249.05 96.68Q244.97 100.70 237.76 100.70L237.76 100.70Q230.34 100.70 226.05 95.10Q221.77 89.49 221.73 79.86L221.73 79.86L221.73 68.75Q221.73 59.08 226.11 53.59Q230.48 48.11 238.08 48.11L238.08 48.11Q245.25 48.11 249.19 52.22Q253.13 56.34 253.69 64.84L253.69 64.84L249.61 64.84Q249.05 57.88 246.32 54.89Q243.60 51.91 238.08 51.91L238.08 51.91Q232.28 51.91 229.04 56.23Q225.81 60.55 225.81 68.78L225.81 68.78L225.81 79.75Q225.81 87.91 228.94 92.44Q232.07 96.98 237.76 96.98L237.76 96.98Q243.74 96.98 246.41 93.99Q249.08 91 249.61 84.04L249.61 84.04ZM261.39 83.55L261.39 79.05Q261.39 70.82 265.11 66.04Q268.84 61.26 275.27 61.26L275.27 61.26Q281.74 61.26 285.45 65.97Q289.16 70.68 289.20 78.94L289.20 78.94L289.20 82.98Q289.20 91.35 285.45 96.03Q281.71 100.70 275.34 100.70Q268.98 100.70 265.25 96.13Q261.53 91.56 261.39 83.55L261.39 83.55ZM265.32 78.77L265.32 82.98Q265.32 89.56 267.98 93.32Q270.63 97.08 275.34 97.08L275.34 97.08Q280.16 97.08 282.71 93.46Q285.26 89.84 285.29 83.09L285.29 83.09L285.29 79.05Q285.29 72.47 282.62 68.69Q279.95 64.91 275.27 64.91L275.27 64.91Q270.74 64.91 268.07 68.61Q265.39 72.30 265.32 78.77L265.32 78.77ZM298.20 61.96L301.92 61.96L302.03 68.01Q303.71 64.91 306.33 63.09Q308.95 61.26 312.29 61.26L312.29 61.26Q322.24 61.26 322.49 74.51L322.49 74.51L322.49 100L318.62 100L318.62 74.93Q318.59 69.84 316.83 67.41Q315.07 64.98 311.31 64.98L311.31 64.98Q308.25 64.98 305.81 67.29Q303.36 69.59 302.10 73.60L302.10 73.60L302.10 100L298.20 100L298.20 61.96ZM331.45 83.16L331.45 79.22Q331.45 70.29 334.58 65.78Q337.71 61.26 343.86 61.26L343.86 61.26Q350.33 61.26 353.53 67.06L353.53 67.06L353.53 46L357.43 46L357.43 100L353.78 100L353.60 95.11Q350.40 100.70 343.83 100.70L343.83 100.70Q337.82 100.70 334.67 96.13Q331.52 91.56 331.45 83.16L331.45 83.16ZM335.43 78.98L335.43 82.77Q335.43 90.09 337.62 93.53Q339.82 96.98 344.60 96.98L344.60 96.98Q350.75 96.98 353.53 91.11L353.53 91.11L353.53 71.38Q350.89 65.02 344.64 65.02L344.64 65.02Q339.86 65.02 337.66 68.43Q335.46 71.84 335.43 78.98L335.43 78.98ZM380.53 100.70L380.53 100.70Q373.82 100.70 370.02 96.31Q366.22 91.91 366.15 83.79L366.15 83.79L366.15 79.15Q366.15 70.79 369.81 66.02Q373.46 61.26 379.86 61.26L379.86 61.26Q386.05 61.26 389.30 65.30Q392.55 69.34 392.63 77.68L392.63 77.68L392.63 81.33L370.02 81.33L370.02 83.48Q370.02 90.02 372.81 93.57Q375.61 97.12 380.71 97.12L380.71 97.12Q386.33 97.12 389.81 93.00L389.81 93.00L391.85 95.61Q388.13 100.70 380.53 100.70ZM379.86 64.91L379.86 64.91Q375.26 64.91 372.78 68.17Q370.30 71.42 370.05 77.68L370.05 77.68L388.72 77.68L388.72 76.66Q388.44 64.91 379.86 64.91ZM400.92 61.96L404.65 61.96L404.75 68.01Q406.44 64.91 409.06 63.09Q411.68 61.26 415.02 61.26L415.02 61.26Q424.97 61.26 425.21 74.51L425.21 74.51L425.21 100L421.35 100L421.35 74.93Q421.31 69.84 419.55 67.41Q417.80 64.98 414.04 64.98L414.04 64.98Q410.98 64.98 408.53 67.29Q406.09 69.59 404.82 73.60L404.82 73.60L404.82 100L400.92 100L400.92 61.96ZM454.61 90.65L454.61 90.65Q454.61 88.19 452.57 86.34Q450.53 84.50 445.66 82.30Q440.79 80.10 438.86 78.64Q436.92 77.18 436.01 75.46Q435.09 73.74 435.09 71.38L435.09 71.38Q435.09 66.99 438.26 64.12Q441.42 61.26 446.45 61.26L446.45 61.26Q451.86 61.26 455.10 64.32Q458.33 67.38 458.33 72.40L458.33 72.40L454.43 72.40Q454.43 69.17 452.21 67.04Q450 64.91 446.45 64.91L446.45 64.91Q443.00 64.91 440.98 66.67Q438.96 68.43 438.96 71.24L438.96 71.24Q438.96 73.53 440.51 74.97Q442.05 76.41 447.19 78.87L447.19 78.87Q452.50 81.19 454.50 82.70Q456.50 84.21 457.52 86.06Q458.54 87.91 458.54 90.44L458.54 90.44Q458.54 95.15 455.27 97.93Q452.00 100.70 446.66 100.70L446.66 100.70Q441 100.70 437.50 97.61Q434.00 94.52 434.00 89.63L434.00 89.63L437.94 89.63Q438.12 93.18 440.31 95.13Q442.51 97.08 446.66 97.08L446.66 97.08Q450.25 97.08 452.43 95.32Q454.61 93.57 454.61 90.65ZM480.27 100.70L480.27 100.70Q473.55 100.70 469.76 96.31Q465.96 91.91 465.89 83.79L465.89 83.79L465.89 79.15Q465.89 70.79 469.55 66.02Q473.20 61.26 479.60 61.26L479.60 61.26Q485.79 61.26 489.04 65.30Q492.29 69.34 492.36 77.68L492.36 77.68L492.36 81.33L469.76 81.33L469.76 83.48Q469.76 90.02 472.55 93.57Q475.35 97.12 480.45 97.12L480.45 97.12Q486.07 97.12 489.55 93.00L489.55 93.00L491.59 95.61Q487.86 100.70 480.27 100.70ZM479.60 64.91L479.60 64.91Q475.00 64.91 472.52 68.17Q470.04 71.42 469.79 77.68L469.79 77.68L488.46 77.68L488.46 76.66Q488.18 64.91 479.60 64.91ZM499.25 83.16L499.25 79.22Q499.25 70.29 502.38 65.78Q505.51 61.26 511.66 61.26L511.66 61.26Q518.13 61.26 521.33 67.06L521.33 67.06L521.33 46L525.23 46L525.23 100L521.58 100L521.40 95.11Q518.20 100.70 511.63 100.70L511.63 100.70Q505.62 100.70 502.47 96.13Q499.32 91.56 499.25 83.16L499.25 83.16ZM503.23 78.98L503.23 82.77Q503.23 90.09 505.42 93.53Q507.62 96.98 512.40 96.98L512.40 96.98Q518.55 96.98 521.33 91.11L521.33 91.11L521.33 71.38Q518.70 65.02 512.44 65.02L512.44 65.02Q507.66 65.02 505.46 68.43Q503.26 71.84 503.23 78.98L503.23 78.98ZM556.31 46L556.31 100L552.38 100L552.38 46L556.31 46ZM571.46 61.96L571.46 100L567.53 100L567.53 61.96L571.46 61.96ZM566.96 50.99L566.96 50.99Q566.96 49.80 567.63 48.95Q568.30 48.11 569.53 48.11Q570.76 48.11 571.45 48.95Q572.13 49.80 572.13 50.99Q572.13 52.19 571.45 53.01Q570.76 53.84 569.53 53.84Q568.30 53.84 567.63 53.01Q566.96 52.19 566.96 50.99ZM580.89 83.34L580.89 79.22Q580.89 70.22 583.98 65.74Q587.07 61.26 593.26 61.26L593.26 61.26Q599.84 61.26 603.04 67.27L603.04 67.27L603.25 61.96L606.87 61.96L606.87 101.09Q606.83 107.98 603.58 111.57Q600.33 115.15 594.11 115.15L594.11 115.15Q590.98 115.15 587.79 113.62Q584.61 112.09 582.96 109.88L582.96 109.88L584.79 107.07Q588.69 111.53 593.82 111.53L593.82 111.53Q598.57 111.53 600.73 109Q602.89 106.47 602.93 101.30L602.93 101.30L602.93 95.25Q599.73 100.70 593.23 100.70L593.23 100.70Q587.29 100.70 584.14 96.24Q580.99 91.77 580.89 83.34L580.89 83.34ZM584.82 78.98L584.82 82.77Q584.82 90.09 587.04 93.53Q589.25 96.98 594 96.98L594 96.98Q600.33 96.98 602.93 90.96L602.93 90.96L602.93 71.52Q600.29 65.02 594.07 65.02L594.07 65.02Q589.29 65.02 587.07 68.43Q584.86 71.84 584.82 78.98L584.82 78.98ZM621.18 46L621.18 67.94Q622.86 64.88 625.45 63.07Q628.03 61.26 631.37 61.26L631.37 61.26Q641.32 61.26 641.57 74.51L641.57 74.51L641.57 100L637.70 100L637.70 74.93Q637.66 69.84 635.91 67.41Q634.15 64.98 630.39 64.98L630.39 64.98Q627.33 64.98 624.88 67.29Q622.44 69.59 621.18 73.60L621.18 73.60L621.18 100L617.27 100L617.27 46L621.18 46ZM653.87 52.26L657.77 52.26L657.77 61.96L664.28 61.96L664.28 65.48L657.77 65.48L657.77 90.75Q657.77 93.88 658.71 95.41Q659.64 96.94 661.82 96.94L661.82 96.94Q662.77 96.94 664.63 96.59L664.63 96.59L664.73 100.11Q663.40 100.70 660.90 100.70L660.90 100.70Q654.05 100.70 653.87 91.28L653.87 91.28L653.87 65.48L648 65.48L648 61.96L653.87 61.96L653.87 52.26Z"/></svg>