<svg xmlns="http://www.w3.org/2000/svg" viewBox="0.73828125 46 223.59853125 54.743808962264154">
<path d="M28.72 100L22.68 81.26L14.31 81.26L11.04 100L0.74 100L9.63 48.81L26.58 48.85Q35.09 48.85 39.67 52.86Q44.26 56.86 43.73 64L43.73 64Q43.00 74.55 32.48 78.66L32.48 78.66L39.69 99.44L39.69 100L28.72 100ZM18.46 57.36L15.79 72.72L23.45 72.79Q27.53 72.72 30.18 70.59Q32.84 68.46 33.36 64.81L33.36 64.81Q33.86 61.40 32.27 59.46Q30.69 57.53 27.25 57.39L27.25 57.39L18.46 57.36ZM66.80 61.26L66.80 61.26Q71.82 61.33 75.46 63.84Q79.10 66.36 80.81 70.77Q82.51 75.18 82.02 80.56L82.02 80.56Q81.21 89.63 75.71 95.24Q70.21 100.84 62.12 100.70L62.12 100.70Q57.16 100.63 53.54 98.15Q49.92 95.68 48.20 91.28Q46.48 86.89 46.97 81.58L46.97 81.58Q47.88 72.16 53.37 66.60Q58.85 61.05 66.80 61.26ZM56.78 85.20L56.78 85.20Q56.85 88.57 58.36 90.53Q59.87 92.48 62.61 92.55L62.61 92.55Q67.18 92.69 69.79 88.35Q72.39 84.00 72.21 76.94L72.21 76.94Q72.07 73.56 70.58 71.54Q69.08 69.52 66.30 69.45L66.30 69.45Q61.88 69.31 59.22 73.62Q56.57 77.92 56.78 85.20ZM121.43 81.09L121.43 81.09Q120.38 90.09 115.95 95.50Q111.52 100.91 104.48 100.74L104.48 100.74Q98.47 100.60 95.34 95.89L95.34 95.89L93.90 100L84.87 100L94.22 46L104.17 46L100.34 65.44Q104.34 61.12 109.62 61.26L109.62 61.26Q115.14 61.33 118.28 65.21Q121.43 69.10 121.64 75.95L121.64 75.95Q121.71 78.13 121.43 81.09ZM111.38 81.89L111.59 80.35Q111.90 77.36 111.80 75.71L111.80 75.71Q111.41 69.59 106.73 69.48L106.73 69.48Q102.34 69.34 99.46 73.46L99.46 73.46L96.71 88.57Q98.05 92.37 102.41 92.51L102.41 92.51Q109.72 92.72 111.38 81.89L111.38 81.89ZM146.29 61.26L146.29 61.26Q151.31 61.33 154.95 63.84Q158.59 66.36 160.29 70.77Q162 75.18 161.51 80.56L161.51 80.56Q160.70 89.63 155.20 95.24Q149.70 100.84 141.61 100.70L141.61 100.70Q136.65 100.63 133.03 98.15Q129.41 95.68 127.69 91.28Q125.96 86.89 126.46 81.58L126.46 81.58Q127.37 72.16 132.86 66.60Q138.34 61.05 146.29 61.26ZM136.27 85.20L136.27 85.20Q136.34 88.57 137.85 90.53Q139.36 92.48 142.10 92.55L142.10 92.55Q146.67 92.69 149.27 88.35Q151.88 84.00 151.70 76.94L151.70 76.94Q151.56 73.56 150.06 71.54Q148.57 69.52 145.79 69.45L145.79 69.45Q141.36 69.31 138.71 73.62Q136.05 77.92 136.27 85.20ZM174.52 52.61L184.46 52.61L182.81 61.96L189.14 61.96L187.84 69.41L181.51 69.41L178.28 88.47Q178.07 90.26 178.56 91.21Q179.05 92.16 180.95 92.23L180.95 92.23Q181.51 92.27 183.97 92.05L183.97 92.05L183.27 99.82Q180.63 100.70 177.57 100.63L177.57 100.63Q172.69 100.56 170.30 97.57Q167.91 94.59 168.33 89.49L168.33 89.49L171.60 69.41L166.22 69.41L167.52 61.96L172.90 61.96L174.52 52.61ZM209.00 61.26L209.00 61.26Q214.03 61.33 217.67 63.84Q221.31 66.36 223.01 70.77Q224.72 75.18 224.23 80.56L224.23 80.56Q223.42 89.63 217.92 95.24Q212.41 100.84 204.33 100.70L204.33 100.70Q199.37 100.63 195.75 98.15Q192.13 95.68 190.41 91.28Q188.68 86.89 189.18 81.58L189.18 81.58Q190.09 72.16 195.57 66.60Q201.06 61.05 209.00 61.26ZM198.98 85.20L198.98 85.20Q199.05 88.57 200.57 90.53Q202.08 92.48 204.82 92.55L204.82 92.55Q209.39 92.69 211.99 88.35Q214.59 84.00 214.42 76.94L214.42 76.94Q214.28 73.56 212.78 71.54Q211.29 69.52 208.51 69.45L208.51 69.45Q204.08 69.31 201.43 73.62Q198.77 77.92 198.98 85.20Z"/>
</svg>
