<svg xmlns="http://www.w3.org/2000/svg" viewBox="1.6875 46 676.003622555866 54.7435382593458"><path d="M26 100L20 79L12 79L8 100L2 100L11 49L24 49Q31 49 34 53Q37 57 37 64L37 64Q36 69 34 72Q31 76 27 78L27 78L32 100L32 100L26 100ZM16 54L13 74L20 74Q23 74 26 72Q28 70 29 67Q31 64 30 60L30 60Q30 58 28 56Q27 55 24 54L24 54L16 54ZM40 83L41 79Q42 71 46 66Q51 61 58 61L58 61Q62 61 65 64Q67 66 69 70Q70 74 69 79L69 79L69 83Q68 91 63 96Q59 101 52 101L52 101Q48 101 45 98Q42 96 41 92Q40 88 40 83L40 83ZM46 83L46 85Q46 90 48 93Q49 95 52 95L52 95Q56 96 59 93Q62 89 63 83L63 83L63 79L63 77Q63 72 62 69Q60 67 57 67L57 67Q53 66 50 70Q47 74 47 80L47 80L46 83ZM89 101L89 101Q83 100 81 95L81 95L79 100L74 100L83 46L89 46L85 66Q89 61 94 61L94 61Q99 61 102 65Q104 68 104 75L104 75Q104 79 103 84Q103 88 101 92L101 92Q97 101 89 101ZM98 74L98 74Q98 70 97 68Q95 67 92 67L92 67Q88 67 85 72L85 72L81 90Q83 95 88 95L88 95Q92 95 94 92Q97 89 97 83Q98 76 98 74ZM110 83L111 79Q112 71 117 66Q121 61 128 61L128 61Q132 61 135 64Q138 66 139 70Q140 74 139 79L139 79L139 83Q138 91 133 96Q129 101 122 101L122 101Q118 101 115 98Q112 96 111 92Q110 88 110 83L110 83ZM116 83L116 85Q116 90 118 93Q119 95 123 95L123 95Q127 96 129 93Q132 89 133 83L133 83L133 79L134 77Q134 72 132 69Q131 67 127 67L127 67Q123 66 120 70Q118 74 117 80L117 80L116 83ZM154 53L160 53L158 62L164 62L163 67L158 67L154 91L153 92Q153 95 156 95L156 95Q156 95 158 95L158 95L158 100Q156 101 154 101L154 101Q150 101 149 98Q147 95 148 91L148 91L151 67L146 67L147 62L152 62L154 53ZM166 83L167 79Q168 71 172 66Q177 61 183 61L183 61Q188 61 190 64Q193 66 195 70Q196 74 195 79L195 79L195 83Q194 91 189 96Q185 101 178 101L178 101Q174 101 171 98Q168 96 167 92Q166 88 166 83L166 83ZM172 83L172 85Q172 90 174 93Q175 95 178 95L178 95Q182 96 185 93Q188 89 189 83L189 83L189 79L189 77Q189 72 188 69Q186 67 183 67L183 67Q179 66 176 70Q173 74 173 80L173 80L172 83ZM244 84L250 84Q249 92 244 96Q240 101 232 101L232 101Q228 101 225 99Q222 97 221 93Q219 89 219 84L219 84Q219 82 219 79L219 79L221 70Q222 60 228 54Q233 48 241 48L241 48Q247 48 251 53Q254 57 254 65L254 65L248 65Q248 61 247 59Q246 56 245 55Q243 54 241 54L241 54Q235 53 232 58Q228 62 227 70L227 70L226 79Q225 83 225 86L225 86Q226 91 228 93Q229 95 233 95L233 95Q237 95 240 93Q243 90 244 84L244 84ZM258 83L258 79Q259 71 264 66Q268 61 275 61L275 61Q279 61 282 64Q285 66 286 70Q287 74 287 79L287 79L286 83Q285 91 281 96Q276 101 270 101L270 101Q265 101 263 98Q260 96 259 92Q257 88 258 83L258 83ZM264 83L264 85Q264 90 265 93Q267 95 270 95L270 95Q274 96 277 93Q279 89 280 83L280 83L281 79L281 77Q281 72 279 69Q278 67 275 67L275 67Q271 66 268 70Q265 74 264 80L264 80L264 83ZM298 62L304 62L303 66Q307 61 312 61L312 61Q316 61 318 64Q320 66 320 70L320 70Q320 73 320 75L320 75L316 100L310 100L314 75L314 72Q314 67 310 67L310 67Q306 67 303 71L303 71L302 72L297 100L291 100L298 62ZM343 61L343 61Q348 61 350 66L350 66L354 46L360 46L351 100L345 100L346 96Q342 101 337 101L337 101Q332 101 330 97Q327 93 327 87L327 87Q327 84 328 78Q329 73 330 70L330 70Q334 61 343 61ZM333 88L333 88Q333 95 339 95L339 95Q341 95 343 94Q344 93 346 91L346 91L350 71Q348 67 344 67L344 67Q335 66 334 79L334 79Q333 85 333 88ZM375 101L375 101Q368 101 365 96Q362 92 363 84L363 84L363 80Q364 71 369 66Q373 61 379 61L379 61Q385 61 388 65Q390 69 390 75L390 75L390 79L389 83L369 83Q369 86 369 88L369 88Q369 91 370 93Q372 95 375 95L375 95Q377 95 380 94Q382 94 384 91L384 91L387 95Q385 98 381 99Q378 101 375 101ZM379 67L379 67Q373 66 370 74L370 74L369 78L384 78L384 77Q384 75 384 73L384 73Q384 67 379 67ZM400 62L406 62L405 66Q409 61 414 61L414 61Q418 61 420 64Q422 66 422 70L422 70Q423 73 422 75L422 75L418 100L412 100L416 75L416 72Q416 67 412 67L412 67Q408 67 405 71L405 71L404 72L399 100L393 100L400 62ZM447 90L447 90Q448 87 444 84L444 84L439 82Q435 80 434 78Q432 75 433 72L433 72Q433 68 436 64Q440 61 445 61L445 61Q450 61 453 65Q456 68 456 73L456 73L450 73Q450 70 449 68Q447 67 445 67L445 67Q442 67 441 68Q439 70 438 72L438 72Q438 75 441 77L441 77L447 80Q454 83 453 90L453 90Q453 95 449 98Q445 101 440 101L440 101Q435 101 432 97Q428 94 428 89L428 89L435 89Q434 92 436 94Q438 95 440 95L440 95Q443 95 445 94Q447 92 447 90ZM474 101L474 101Q468 101 464 96Q461 92 462 84L462 84L462 80Q464 71 468 66Q472 61 479 61L479 61Q484 61 487 65Q490 69 490 75L490 75L489 79L489 83L468 83Q468 86 468 88L468 88Q468 91 470 93Q471 95 474 95L474 95Q477 95 479 94Q481 94 484 91L484 91L486 95Q484 98 481 99Q478 101 474 101ZM478 67L478 67Q472 66 470 74L470 74L469 78L483 78L484 77Q484 75 484 73L484 73Q484 67 478 67ZM510 61L510 61Q515 61 518 66L518 66L521 46L528 46L518 100L513 100L513 96Q510 101 504 101L504 101Q500 101 497 97Q494 93 494 87L494 87Q494 84 495 78Q496 73 498 70L498 70Q502 61 510 61ZM500 88L500 88Q501 95 506 95L506 95Q508 95 510 94Q512 93 514 91L514 91L517 71Q515 67 511 67L511 67Q503 66 501 79L501 79Q500 85 500 88ZM557 62L551 100L545 100L551 62L557 62ZM553 52L553 52Q553 50 554 49Q555 48 556 48L556 48Q558 48 559 49Q560 50 560 52L560 52Q559 53 559 54Q558 56 556 56L556 56Q554 56 554 55Q553 53 553 52ZM571 53L577 53L575 62L581 62L580 67L574 67L570 91L570 92Q570 95 572 95L572 95Q573 95 575 95L575 95L574 100Q572 101 570 101L570 101Q567 101 565 98Q564 95 564 91L564 91L568 67L562 67L563 62L569 62L571 53ZM607 100L601 100Q601 99 601 98L601 98L601 96Q597 101 592 101L592 101Q588 101 585 98Q583 95 583 90L583 90Q583 84 588 80Q592 77 599 77L599 77L604 77L604 73Q605 67 600 67L600 67Q597 67 595 68Q593 70 593 72L593 72L587 73Q587 68 591 64Q595 61 600 61L600 61Q605 61 608 64Q611 67 610 73L610 73L607 92Q607 94 607 96L607 96L607 99L607 100ZM593 95L593 95Q598 95 601 91L601 91L603 82L600 82Q597 82 594 83Q591 84 590 86Q589 89 589 92L589 92Q590 95 593 95ZM631 46L622 100L616 100L625 46L631 46ZM645 62L638 100L632 100L639 62L645 62ZM640 52L640 52Q640 50 641 49Q642 48 644 48L644 48Q645 48 646 49Q647 50 647 52L647 52Q647 53 646 54Q645 56 644 56L644 56Q642 56 641 55Q640 53 640 52ZM662 95L662 95Q665 96 667 94Q669 92 670 88L670 88L675 88Q675 94 671 97Q667 101 661 101L661 101Q656 101 653 98Q650 95 650 90L650 90Q649 86 650 83L650 83L650 79Q651 70 656 66Q660 61 667 61L667 61Q672 61 675 65Q678 69 678 75L678 75L672 75Q672 67 666 67L666 67Q658 66 657 78L657 78Q655 86 656 89L656 89Q656 95 662 95Z"/></svg>