<svg xmlns="http://www.w3.org/2000/svg" viewBox="0.8837890625 -7.5 30.478515625 7.59765625"><path d="M5.27 0L3.55-2.96L1.49-2.96L1.49 0L0.88 0L0.88-7.11L3.19-7.11Q4.33-7.11 4.97-6.56Q5.61-6.01 5.61-5.01L5.61-5.01Q5.61-4.33 5.21-3.81Q4.81-3.29 4.14-3.09L4.14-3.09L5.91-0.06L5.91 0L5.27 0ZM1.49-6.60L1.49-3.47L3.33-3.47Q4.09-3.47 4.55-3.90Q5.00-4.33 5.00-5.01L5.00-5.01Q5.00-5.77 4.53-6.18Q4.05-6.60 3.18-6.60L3.18-6.60L1.49-6.60ZM6.79-2.60L6.79-2.72Q6.79-3.48 7.08-4.09Q7.38-4.70 7.92-5.04Q8.46-5.38 9.14-5.38L9.14-5.38Q10.20-5.38 10.85-4.64Q11.50-3.90 11.50-2.68L11.50-2.68L11.50-2.56Q11.50-1.79 11.21-1.18Q10.91-0.57 10.38-0.23Q9.84 0.10 9.15 0.10L9.15 0.10Q8.10 0.10 7.44-0.64Q6.79-1.38 6.79-2.60L6.79-2.60ZM7.37-2.67L7.37-2.56Q7.37-1.61 7.86-1.00Q8.35-0.40 9.15-0.40L9.15-0.40Q9.94-0.40 10.43-1.00Q10.92-1.61 10.92-2.61L10.92-2.61L10.92-2.72Q10.92-3.33 10.70-3.83Q10.47-4.33 10.07-4.61Q9.66-4.88 9.14-4.88L9.14-4.88Q8.36-4.88 7.87-4.27Q7.37-3.66 7.37-2.67L7.37-2.67ZM16.96-2.68L16.96-2.59Q16.96-1.35 16.42-0.63Q15.87 0.10 14.95 0.10L14.95 0.10Q13.84 0.10 13.28-0.72L13.28-0.72L13.25 0L12.71 0L12.71-7.50L13.29-7.50L13.29-4.52Q13.84-5.38 14.94-5.38L14.94-5.38Q15.87-5.38 16.42-4.67Q16.96-3.95 16.96-2.68L16.96-2.68ZM16.38-2.69L16.38-2.69Q16.38-3.74 15.97-4.30Q15.57-4.87 14.83-4.87L14.83-4.87Q14.27-4.87 13.88-4.60Q13.49-4.32 13.29-3.79L13.29-3.79L13.29-1.41Q13.73-0.41 14.84-0.41L14.84-0.41Q15.56-0.41 15.97-0.98Q16.38-1.55 16.38-2.69ZM17.93-2.60L17.93-2.72Q17.93-3.48 18.23-4.09Q18.52-4.70 19.06-5.04Q19.60-5.38 20.28-5.38L20.28-5.38Q21.34-5.38 21.99-4.64Q22.65-3.90 22.65-2.68L22.65-2.68L22.65-2.56Q22.65-1.79 22.35-1.18Q22.06-0.57 21.52-0.23Q20.98 0.10 20.29 0.10L20.29 0.10Q19.24 0.10 18.59-0.64Q17.93-1.38 17.93-2.60L17.93-2.60ZM18.52-2.67L18.52-2.56Q18.52-1.61 19.01-1.00Q19.50-0.40 20.29-0.40L20.29-0.40Q21.08-0.40 21.57-1.00Q22.07-1.61 22.07-2.61L22.07-2.61L22.07-2.72Q22.07-3.33 21.84-3.83Q21.62-4.33 21.21-4.61Q20.81-4.88 20.28-4.88L20.28-4.88Q19.50-4.88 19.01-4.27Q18.52-3.66 18.52-2.67L18.52-2.67ZM24.17-6.64L24.76-6.64L24.76-5.28L25.85-5.28L25.85-4.80L24.76-4.80L24.76-1.28Q24.76-0.84 24.92-0.63Q25.08-0.42 25.45-0.42L25.45-0.42Q25.60-0.42 25.92-0.46L25.92-0.46L25.95 0.01Q25.72 0.10 25.32 0.10L25.32 0.10Q24.72 0.10 24.45-0.25Q24.17-0.60 24.17-1.28L24.17-1.28L24.17-4.80L23.20-4.80L23.20-5.28L24.17-5.28L24.17-6.64ZM26.65-2.60L26.65-2.72Q26.65-3.48 26.94-4.09Q27.24-4.70 27.78-5.04Q28.32-5.38 29.00-5.38L29.00-5.38Q30.05-5.38 30.71-4.64Q31.36-3.90 31.36-2.68L31.36-2.68L31.36-2.56Q31.36-1.79 31.07-1.18Q30.77-0.57 30.23-0.23Q29.70 0.10 29.01 0.10L29.01 0.10Q27.96 0.10 27.30-0.64Q26.65-1.38 26.65-2.60L26.65-2.60ZM27.23-2.67L27.23-2.56Q27.23-1.61 27.72-1.00Q28.21-0.40 29.01-0.40L29.01-0.40Q29.80-0.40 30.29-1.00Q30.78-1.61 30.78-2.61L30.78-2.61L30.78-2.72Q30.78-3.33 30.56-3.83Q30.33-4.33 29.93-4.61Q29.52-4.88 29.00-4.88L29.00-4.88Q28.22-4.88 27.72-4.27Q27.23-3.66 27.23-2.67L27.23-2.67Z"/></svg>