<svg xmlns="http://www.w3.org/2000/svg" viewBox="4.11328125 46 961.8271874999999 54.71316964285715"><path d="M32.55 100L24.33 78.10L9.70 78.10L5.91 100L4.11 100L12.94 48.81L26.26 48.81Q29.32 48.88 31.87 50.04Q34.42 51.20 36.14 53.19Q37.86 55.18 38.62 57.83Q39.38 60.48 38.85 63.58L38.85 63.58Q38.43 66.21 37.27 68.36Q36.11 70.50 34.42 72.24Q32.73 73.98 30.60 75.30Q28.48 76.62 26.12 77.57L26.12 77.57L34.49 99.51L34.45 100L32.55 100ZM14.45 50.71L10.02 76.20L23.03 76.20Q25.59 76.09 27.91 75.04Q30.23 73.98 32.08 72.28Q33.93 70.57 35.19 68.32Q36.46 66.07 36.95 63.58L36.95 63.58Q37.44 60.87 36.84 58.55Q36.25 56.23 34.79 54.53Q33.33 52.82 31.13 51.80Q28.93 50.78 26.26 50.71L26.26 50.71L14.45 50.71ZM46.55 81.72L46.79 80.24Q47.46 76.69 49.10 73.28Q50.73 69.87 53.21 67.20Q55.69 64.53 58.94 62.89Q62.19 61.26 66.09 61.26L66.09 61.26Q68.70 61.26 70.77 62.03Q72.84 62.80 74.41 64.16Q75.97 65.51 77.04 67.36Q78.12 69.20 78.70 71.31Q79.28 73.42 79.40 75.71Q79.52 77.99 79.17 80.24L79.17 80.24L78.93 81.72Q78.29 85.27 76.66 88.68Q75.02 92.09 72.54 94.76Q70.07 97.43 66.81 99.07Q63.56 100.70 59.66 100.70L59.66 100.70Q57.06 100.70 54.98 99.93Q52.91 99.16 51.35 97.80Q49.78 96.45 48.71 94.60Q47.64 92.76 47.04 90.65Q46.44 88.54 46.32 86.25Q46.20 83.97 46.55 81.72L46.55 81.72ZM48.73 80.24L48.45 81.72Q47.95 84.67 48.36 87.71Q48.76 90.75 50.12 93.21Q51.47 95.68 53.82 97.24Q56.18 98.80 59.66 98.80L59.66 98.80Q63.14 98.80 66.04 97.31Q68.94 95.82 71.17 93.39Q73.41 90.96 74.88 87.91Q76.36 84.85 76.99 81.72L76.99 81.72L77.27 80.24Q77.59 78.27 77.52 76.25Q77.45 74.23 76.97 72.33Q76.50 70.43 75.60 68.76Q74.71 67.09 73.35 65.85Q72 64.60 70.19 63.88Q68.38 63.16 66.09 63.16L66.09 63.16Q62.65 63.16 59.73 64.65Q56.81 66.14 54.58 68.57Q52.35 71.00 50.85 74.05Q49.36 77.11 48.73 80.24L48.73 80.24ZM120.16 80.59L120.06 81.33Q119.64 83.58 118.90 85.90Q118.16 88.22 117.05 90.37Q115.95 92.51 114.49 94.39Q113.03 96.27 111.18 97.68Q109.34 99.09 107.12 99.89Q104.91 100.70 102.30 100.70L102.30 100.70Q100.62 100.70 99 100.28Q97.38 99.86 95.96 99.05Q94.54 98.24 93.38 97.06Q92.21 95.89 91.44 94.38L91.44 94.38L90.39 100L88.52 100L97.80 46L99.70 46L95.70 68.43Q96.86 66.92 98.30 65.62Q99.74 64.32 101.41 63.35Q103.08 62.38 104.91 61.82Q106.73 61.26 108.70 61.26L108.70 61.26Q111.38 61.26 113.34 62.10Q115.31 62.95 116.70 64.37Q118.09 65.79 118.93 67.71Q119.78 69.63 120.16 71.79Q120.55 73.95 120.52 76.20Q120.48 78.45 120.16 80.59L120.16 80.59ZM118.05 81.33L118.20 80.59Q118.51 78.77 118.58 76.76Q118.65 74.76 118.41 72.82Q118.16 70.89 117.51 69.13Q116.86 67.38 115.72 66.06Q114.57 64.74 112.85 63.95Q111.13 63.16 108.77 63.16L108.77 63.16Q106.77 63.16 104.66 63.88Q102.55 64.60 100.67 65.85Q98.79 67.09 97.33 68.78Q95.87 70.47 95.20 72.40L95.20 72.40L91.90 90.82Q92.29 92.69 93.27 94.18Q94.25 95.68 95.63 96.70Q97.00 97.71 98.72 98.26Q100.44 98.80 102.30 98.80L102.30 98.80Q104.66 98.80 106.63 98.05Q108.60 97.29 110.21 96.03Q111.83 94.76 113.13 93.07Q114.43 91.39 115.40 89.45Q116.37 87.52 117.02 85.45Q117.67 83.37 118.05 81.33L118.05 81.33ZM131.06 81.72L131.31 80.24Q131.98 76.69 133.61 73.28Q135.25 69.87 137.72 67.20Q140.20 64.53 143.46 62.89Q146.71 61.26 150.61 61.26L150.61 61.26Q153.21 61.26 155.29 62.03Q157.36 62.80 158.92 64.16Q160.49 65.51 161.56 67.36Q162.63 69.20 163.21 71.31Q163.79 73.42 163.92 75.71Q164.04 77.99 163.69 80.24L163.69 80.24L163.44 81.72Q162.81 85.27 161.17 88.68Q159.54 92.09 157.06 94.76Q154.58 97.43 151.33 99.07Q148.08 100.70 144.18 100.70L144.18 100.70Q141.57 100.70 139.50 99.93Q137.43 99.16 135.86 97.80Q134.30 96.45 133.22 94.60Q132.15 92.76 131.55 90.65Q130.96 88.54 130.83 86.25Q130.71 83.97 131.06 81.72L131.06 81.72ZM133.24 80.24L132.96 81.72Q132.47 84.67 132.87 87.71Q133.28 90.75 134.63 93.21Q135.98 95.68 138.34 97.24Q140.70 98.80 144.18 98.80L144.18 98.80Q147.66 98.80 150.56 97.31Q153.46 95.82 155.69 93.39Q157.92 90.96 159.40 87.91Q160.88 84.85 161.51 81.72L161.51 81.72L161.79 80.24Q162.11 78.27 162.04 76.25Q161.96 74.23 161.49 72.33Q161.02 70.43 160.12 68.76Q159.22 67.09 157.87 65.85Q156.52 64.60 154.71 63.88Q152.89 63.16 150.61 63.16L150.61 63.16Q147.16 63.16 144.25 64.65Q141.33 66.14 139.10 68.57Q136.86 71.00 135.37 74.05Q133.88 77.11 133.24 80.24L133.24 80.24ZM191.29 51.70L193.29 51.70L191.50 61.96L204.79 61.96L204.50 63.89L191.18 63.89L186.47 90.89Q186.15 92.93 186.61 94.41Q187.07 95.89 188.10 96.85Q189.14 97.82 190.69 98.29Q192.23 98.77 194.13 98.80L194.13 98.80Q195.57 98.84 196.96 98.73Q198.35 98.63 199.76 98.49L199.76 98.49L199.90 100.32Q198.49 100.56 197.10 100.65Q195.71 100.74 194.31 100.70L194.31 100.70Q191.95 100.67 190.00 100.09Q188.05 99.51 186.71 98.31Q185.38 97.12 184.76 95.27Q184.15 93.43 184.50 90.89L184.50 90.89L189.18 63.89L178.38 63.89L178.63 61.96L189.49 61.96L191.29 51.70ZM215.58 81.72L215.82 80.24Q216.49 76.69 218.13 73.28Q219.76 69.87 222.24 67.20Q224.72 64.53 227.97 62.89Q231.22 61.26 235.13 61.26L235.13 61.26Q237.73 61.26 239.80 62.03Q241.88 62.80 243.44 64.16Q245.00 65.51 246.08 67.36Q247.15 69.20 247.73 71.31Q248.31 73.42 248.43 75.71Q248.55 77.99 248.20 80.24L248.20 80.24L247.96 81.72Q247.32 85.27 245.69 88.68Q244.05 92.09 241.58 94.76Q239.10 97.43 235.85 99.07Q232.59 100.70 228.69 100.70L228.69 100.70Q226.09 100.70 224.02 99.93Q221.94 99.16 220.38 97.80Q218.81 96.45 217.74 94.60Q216.67 92.76 216.07 90.65Q215.47 88.54 215.35 86.25Q215.23 83.97 215.58 81.72L215.58 81.72ZM217.76 80.24L217.48 81.72Q216.98 84.67 217.39 87.71Q217.79 90.75 219.15 93.21Q220.50 95.68 222.86 97.24Q225.21 98.80 228.69 98.80L228.69 98.80Q232.17 98.80 235.07 97.31Q237.97 95.82 240.21 93.39Q242.44 90.96 243.91 87.91Q245.39 84.85 246.02 81.72L246.02 81.72L246.30 80.24Q246.62 78.27 246.55 76.25Q246.48 74.23 246.01 72.33Q245.53 70.43 244.63 68.76Q243.74 67.09 242.38 65.85Q241.03 64.60 239.22 63.88Q237.41 63.16 235.13 63.16L235.13 63.16Q231.68 63.16 228.76 64.65Q225.84 66.14 223.61 68.57Q221.38 71.00 219.88 74.05Q218.39 77.11 217.76 80.24L217.76 80.24ZM307.34 48.81L310.04 48.81L316.34 80.88L334.48 48.81L337.46 48.81L328.61 100L326.71 100L331.03 74.93L335.14 51.73L316.90 83.48L315.14 83.48L308.74 51.73L304.66 75.29L300.41 100L298.51 100L307.34 48.81ZM342.35 81.72L342.60 80.24Q343.27 76.69 344.90 73.28Q346.54 69.87 349.01 67.20Q351.49 64.53 354.74 62.89Q358.00 61.26 361.90 61.26L361.90 61.26Q364.50 61.26 366.57 62.03Q368.65 62.80 370.21 64.16Q371.78 65.51 372.85 67.36Q373.92 69.20 374.50 71.31Q375.08 73.42 375.21 75.71Q375.33 77.99 374.98 80.24L374.98 80.24L374.73 81.72Q374.10 85.27 372.46 88.68Q370.83 92.09 368.35 94.76Q365.87 97.43 362.62 99.07Q359.37 100.70 355.46 100.70L355.46 100.70Q352.86 100.70 350.79 99.93Q348.71 99.16 347.15 97.80Q345.59 96.45 344.51 94.60Q343.44 92.76 342.84 90.65Q342.25 88.54 342.12 86.25Q342 83.97 342.35 81.72L342.35 81.72ZM344.53 80.24L344.25 81.72Q343.76 84.67 344.16 87.71Q344.57 90.75 345.92 93.21Q347.27 95.68 349.63 97.24Q351.98 98.80 355.46 98.80L355.46 98.80Q358.95 98.80 361.85 97.31Q364.75 95.82 366.98 93.39Q369.21 90.96 370.69 87.91Q372.16 84.85 372.80 81.72L372.80 81.72L373.08 80.24Q373.39 78.27 373.32 76.25Q373.25 74.23 372.78 72.33Q372.30 70.43 371.41 68.76Q370.51 67.09 369.16 65.85Q367.80 64.60 365.99 63.88Q364.18 63.16 361.90 63.16L361.90 63.16Q358.45 63.16 355.54 64.65Q352.62 66.14 350.38 68.57Q348.15 71.00 346.66 74.05Q345.16 77.11 344.53 80.24L344.53 80.24ZM390.66 71.10L390.66 71.10Q391.92 69.06 393.56 67.29Q395.19 65.51 397.14 64.18Q399.09 62.84 401.33 62.05Q403.56 61.26 406.05 61.26L406.05 61.26Q409.18 61.26 411.31 62.42Q413.44 63.58 414.63 65.55Q415.83 67.52 416.14 70.06Q416.46 72.61 416.04 75.39L416.04 75.39L411.86 100L409.92 100L414.18 75.39Q414.56 73.04 414.37 70.80Q414.18 68.57 413.23 66.87Q412.28 65.16 410.50 64.12Q408.73 63.09 405.98 63.12L405.98 63.12Q403.49 63.16 400.97 64.16Q398.46 65.16 396.28 66.85Q394.10 68.54 392.47 70.73Q390.83 72.93 390.09 75.32L390.09 75.32L385.84 100L383.91 100L390.45 61.96L392.38 61.96L390.66 71.10ZM426.87 81.72L427.11 80.24Q427.78 76.69 429.42 73.28Q431.05 69.87 433.53 67.20Q436.01 64.53 439.26 62.89Q442.51 61.26 446.41 61.26L446.41 61.26Q449.02 61.26 451.09 62.03Q453.16 62.80 454.73 64.16Q456.29 65.51 457.37 67.36Q458.44 69.20 459.02 71.31Q459.60 73.42 459.72 75.71Q459.84 77.99 459.49 80.24L459.49 80.24L459.25 81.72Q458.61 85.27 456.98 88.68Q455.34 92.09 452.87 94.76Q450.39 97.43 447.13 99.07Q443.88 100.70 439.98 100.70L439.98 100.70Q437.38 100.70 435.30 99.93Q433.23 99.16 431.67 97.80Q430.10 96.45 429.03 94.60Q427.96 92.76 427.36 90.65Q426.76 88.54 426.64 86.25Q426.52 83.97 426.87 81.72L426.87 81.72ZM429.05 80.24L428.77 81.72Q428.27 84.67 428.68 87.71Q429.08 90.75 430.44 93.21Q431.79 95.68 434.14 97.24Q436.50 98.80 439.98 98.80L439.98 98.80Q443.46 98.80 446.36 97.31Q449.26 95.82 451.49 93.39Q453.73 90.96 455.20 87.91Q456.68 84.85 457.31 81.72L457.31 81.72L457.59 80.24Q457.91 78.27 457.84 76.25Q457.77 74.23 457.29 72.33Q456.82 70.43 455.92 68.76Q455.03 67.09 453.67 65.85Q452.32 64.60 450.51 63.88Q448.70 63.16 446.41 63.16L446.41 63.16Q442.97 63.16 440.05 64.65Q437.13 66.14 434.90 68.57Q432.67 71.00 431.17 74.05Q429.68 77.11 429.05 80.24L429.05 80.24ZM529.35 51.70L531.35 51.70L529.56 61.96L542.85 61.96L542.57 63.89L529.24 63.89L524.53 90.89Q524.21 92.93 524.67 94.41Q525.13 95.89 526.17 96.85Q527.20 97.82 528.75 98.29Q530.30 98.77 532.20 98.80L532.20 98.80Q533.64 98.84 535.03 98.73Q536.41 98.63 537.82 98.49L537.82 98.49L537.96 100.32Q536.55 100.56 535.17 100.65Q533.78 100.74 532.37 100.70L532.37 100.70Q530.02 100.67 528.06 100.09Q526.11 99.51 524.78 98.31Q523.44 97.12 522.83 95.27Q522.21 93.43 522.56 90.89L522.56 90.89L527.24 63.89L516.45 63.89L516.69 61.96L527.55 61.96L529.35 51.70ZM564.19 46L559.72 71.14Q560.99 69.10 562.62 67.30Q564.26 65.51 566.21 64.18Q568.16 62.84 570.41 62.05Q572.66 61.26 575.16 61.26L575.16 61.26Q578.29 61.26 580.41 62.42Q582.54 63.58 583.75 65.53Q584.96 67.48 585.30 70.05Q585.63 72.61 585.21 75.39L585.21 75.39L580.99 100L579.06 100L583.31 75.39Q583.70 73.04 583.51 70.80Q583.31 68.57 582.36 66.87Q581.41 65.16 579.64 64.12Q577.86 63.09 575.09 63.12L575.09 63.12Q572.59 63.16 570.08 64.16Q567.56 65.16 565.37 66.85Q563.17 68.54 561.53 70.73Q559.90 72.93 559.16 75.32L559.16 75.32L554.91 100L552.97 100L562.29 46L564.19 46ZM602.40 63.86L602.65 61.96L618.12 61.96L611.86 98.10L624.90 98.10L624.66 100L596.11 100L596.39 98.10L609.93 98.10L615.90 63.86L602.40 63.86ZM616.54 51.10L616.54 51.10Q616.68 49.97 617.41 49.25Q618.15 48.53 619.28 48.53L619.28 48.53Q620.47 48.53 621.02 49.30Q621.56 50.08 621.39 51.17L621.39 51.17Q621.21 52.22 620.46 52.94Q619.70 53.66 618.57 53.63L618.57 53.63Q617.45 53.56 616.90 52.87Q616.36 52.19 616.54 51.10ZM644.20 71.10L644.20 71.10Q645.47 69.06 647.10 67.29Q648.74 65.51 650.69 64.18Q652.64 62.84 654.87 62.05Q657.11 61.26 659.60 61.26L659.60 61.26Q662.73 61.26 664.86 62.42Q666.98 63.58 668.18 65.55Q669.38 67.52 669.69 70.06Q670.01 72.61 669.59 75.39L669.59 75.39L665.40 100L663.47 100L667.72 75.39Q668.11 73.04 667.92 70.80Q667.72 68.57 666.77 66.87Q665.82 65.16 664.05 64.12Q662.27 63.09 659.53 63.12L659.53 63.12Q657.04 63.16 654.52 64.16Q652.01 65.16 649.83 66.85Q647.65 68.54 646.01 70.73Q644.38 72.93 643.64 75.32L643.64 75.32L639.39 100L637.45 100L643.99 61.96L645.93 61.96L644.20 71.10ZM729.18 63.86L729.42 61.96L744.89 61.96L738.63 98.10L751.68 98.10L751.43 100L722.88 100L723.16 98.10L736.70 98.10L742.68 63.86L729.18 63.86ZM743.31 51.10L743.31 51.10Q743.45 49.97 744.19 49.25Q744.93 48.53 746.05 48.53L746.05 48.53Q747.25 48.53 747.79 49.30Q748.34 50.08 748.16 51.17L748.16 51.17Q747.98 52.22 747.23 52.94Q746.47 53.66 745.35 53.63L745.35 53.63Q744.22 53.56 743.68 52.87Q743.13 52.19 743.31 51.10ZM782.89 51.70L784.90 51.70L783.11 61.96L796.39 61.96L796.11 63.89L782.79 63.89L778.08 90.89Q777.76 92.93 778.22 94.41Q778.68 95.89 779.71 96.85Q780.75 97.82 782.30 98.29Q783.84 98.77 785.74 98.80L785.74 98.80Q787.18 98.84 788.57 98.73Q789.96 98.63 791.37 98.49L791.37 98.49L791.51 100.32Q790.10 100.56 788.71 100.65Q787.32 100.74 785.92 100.70L785.92 100.70Q783.56 100.67 781.61 100.09Q779.66 99.51 778.32 98.31Q776.99 97.12 776.37 95.27Q775.76 93.43 776.11 90.89L776.11 90.89L780.79 63.89L769.99 63.89L770.24 61.96L781.10 61.96L782.89 51.70ZM835.17 100L832.99 100Q832.92 98.17 833.10 96.43Q833.27 94.69 833.63 92.90L833.63 92.90Q832.11 94.73 830.27 96.19Q828.42 97.64 826.33 98.65Q824.24 99.65 821.95 100.19Q819.67 100.74 817.28 100.70L817.28 100.70Q815.06 100.67 813.06 99.95Q811.05 99.23 809.63 97.89Q808.21 96.55 807.49 94.66Q806.77 92.76 807.15 90.37L807.15 90.37Q807.50 88.08 808.54 86.34Q809.58 84.60 811.11 83.32Q812.64 82.04 814.52 81.17Q816.40 80.31 818.44 79.79Q820.48 79.26 822.59 79.03Q824.70 78.80 826.66 78.77L826.66 78.77L835.91 78.77L836.89 73.21Q837.25 70.79 836.63 68.92Q836.02 67.06 834.68 65.78Q833.34 64.49 831.39 63.82Q829.44 63.16 827.16 63.16L827.16 63.16Q824.87 63.16 822.67 63.75Q820.48 64.35 818.60 65.53Q816.71 66.71 815.31 68.43Q813.90 70.15 813.23 72.40L813.23 72.40L811.34 72.33Q812.00 69.70 813.57 67.64Q815.13 65.58 817.28 64.18Q819.42 62.77 821.95 62.01Q824.48 61.26 827.12 61.26L827.12 61.26Q829.79 61.26 832.10 62.07Q834.40 62.88 836.02 64.44Q837.63 66.00 838.39 68.24Q839.14 70.47 838.76 73.28L838.76 73.28L835.45 92.34Q835.17 94.20 835.19 96.01Q835.21 97.82 835.21 99.68L835.21 99.68L835.17 100ZM817.24 98.84L817.24 98.84Q819.81 98.91 822.22 98.26Q824.63 97.61 826.75 96.40Q828.88 95.18 830.71 93.48Q832.54 91.77 833.98 89.70L833.98 89.70L835.59 80.70L826.77 80.70Q825.08 80.70 823.22 80.89Q821.36 81.09 819.49 81.51Q817.63 81.93 815.91 82.63Q814.18 83.34 812.76 84.43Q811.34 85.52 810.35 87.01Q809.37 88.50 809.02 90.51L809.02 90.51Q808.66 92.44 809.26 93.97Q809.86 95.50 811.04 96.57Q812.21 97.64 813.85 98.22Q815.48 98.80 817.24 98.84ZM858.69 47.90L858.97 46L874.58 46L865.55 98.10L878.45 98.10L878.20 100L849.66 100L849.94 98.10L863.61 98.10L872.33 47.90L858.69 47.90ZM898.21 63.86L898.45 61.96L913.92 61.96L907.66 98.10L920.71 98.10L920.46 100L891.91 100L892.20 98.10L905.73 98.10L911.71 63.86L898.21 63.86ZM912.34 51.10L912.34 51.10Q912.48 49.97 913.22 49.25Q913.96 48.53 915.08 48.53L915.08 48.53Q916.28 48.53 916.82 49.30Q917.37 50.08 917.19 51.17L917.19 51.17Q917.02 52.22 916.26 52.94Q915.50 53.66 914.38 53.63L914.38 53.63Q913.25 53.56 912.71 52.87Q912.16 52.19 912.34 51.10ZM947.53 98.80L947.53 98.80Q950.03 98.80 952.24 98.07Q954.46 97.33 956.27 95.97Q958.08 94.62 959.43 92.72Q960.79 90.82 961.56 88.50L961.56 88.50L963.46 88.50Q962.68 91.21 961.17 93.46Q959.66 95.71 957.59 97.31Q955.51 98.91 952.96 99.81Q950.41 100.70 947.57 100.70L947.57 100.70Q944.96 100.70 942.94 99.91Q940.92 99.12 939.43 97.75Q937.93 96.38 936.98 94.53Q936.04 92.69 935.53 90.58Q935.02 88.47 934.96 86.20Q934.91 83.93 935.26 81.72L935.26 81.72L935.51 80.24Q936.14 76.76 937.65 73.37Q939.16 69.98 941.48 67.29Q943.80 64.60 946.93 62.93Q950.06 61.26 953.96 61.26L953.96 61.26Q956.88 61.26 959.17 62.28Q961.45 63.30 963.02 65.07Q964.58 66.85 965.32 69.27Q966.06 71.70 965.92 74.51L965.92 74.51L964.05 74.51Q964.20 72.09 963.60 70.01Q963 67.94 961.70 66.41Q960.40 64.88 958.45 64.02Q956.50 63.16 954 63.16L954 63.16Q951.64 63.16 949.62 63.84Q947.60 64.53 945.90 65.74Q944.19 66.95 942.80 68.59Q941.41 70.22 940.36 72.12Q939.30 74.02 938.57 76.09Q937.83 78.17 937.44 80.24L937.44 80.24L937.16 81.72Q936.84 83.65 936.83 85.67Q936.81 87.70 937.18 89.59Q937.55 91.49 938.32 93.16Q939.09 94.83 940.36 96.08Q941.63 97.33 943.40 98.07Q945.18 98.80 947.53 98.80Z"/></svg>