<svg xmlns="http://www.w3.org/2000/svg" viewBox="0.7734375 46 966.4732142857142 54.74508568548387"><path d="M27.21 100L21.20 80.88L13.75 80.88L10.44 100L0.77 100L9.67 48.81L25.80 48.85Q29.32 48.92 32.36 49.88Q35.40 50.85 37.60 52.71Q39.80 54.58 40.94 57.39Q42.08 60.20 41.77 64L41.77 64Q41.55 66.71 40.68 68.96Q39.80 71.21 38.34 73Q36.88 74.79 34.88 76.15Q32.87 77.50 30.41 78.48L30.41 78.48L37.48 99.47L37.48 100L27.21 100ZM17.93 56.83L15.12 72.86L21.83 72.96Q23.77 72.96 25.51 72.42Q27.25 71.88 28.60 70.82Q29.95 69.77 30.85 68.22Q31.75 66.67 31.99 64.67L31.99 64.67Q32.45 61.08 30.73 59.04Q29.00 57.00 25.42 56.86L25.42 56.86L17.93 56.83ZM45.39 81.61L45.46 80.88Q45.95 76.87 47.55 73.26Q49.15 69.66 51.71 66.95Q54.28 64.25 57.78 62.70Q61.28 61.15 65.57 61.26L65.57 61.26Q69.68 61.33 72.63 62.95Q75.59 64.56 77.43 67.22Q79.28 69.87 79.98 73.32Q80.68 76.76 80.30 80.52L80.30 80.52L80.19 81.30Q79.70 85.30 78.10 88.87Q76.50 92.44 73.93 95.11Q71.37 97.79 67.87 99.31Q64.37 100.84 60.12 100.74L60.12 100.74Q56.04 100.67 53.09 99.07Q50.13 97.47 48.29 94.85Q46.44 92.23 45.72 88.80Q45 85.38 45.39 81.61L45.39 81.61ZM54.98 80.88L54.91 81.61Q54.74 83.37 54.77 85.32Q54.81 87.27 55.39 88.94Q55.97 90.61 57.25 91.76Q58.54 92.90 60.82 92.97L60.82 92.97Q63.21 93.04 64.95 91.97Q66.69 90.89 67.87 89.19Q69.05 87.48 69.70 85.39Q70.35 83.30 70.63 81.30L70.63 81.30L70.70 80.56Q70.80 79.40 70.86 78.12Q70.91 76.83 70.75 75.58Q70.59 74.34 70.22 73.19Q69.86 72.05 69.17 71.17Q68.48 70.29 67.43 69.75Q66.38 69.20 64.86 69.13L64.86 69.13Q62.44 69.06 60.70 70.12Q58.96 71.17 57.78 72.89Q56.60 74.62 55.92 76.73Q55.23 78.84 54.98 80.88L54.98 80.88ZM122.27 80.42L122.17 81.16Q121.89 83.51 121.27 85.92Q120.66 88.33 119.67 90.53Q118.69 92.72 117.32 94.62Q115.95 96.52 114.15 97.89Q112.36 99.26 110.09 100.02Q107.82 100.77 105.08 100.70L105.08 100.70Q102.23 100.63 99.86 99.46Q97.49 98.28 95.91 95.92L95.91 95.92L94.50 100L85.85 100L95.20 46L104.77 46L101.04 65.44Q102.97 63.40 105.33 62.29Q107.68 61.19 110.53 61.26L110.53 61.26Q113.13 61.33 115.08 62.17Q117.04 63.02 118.42 64.42Q119.81 65.83 120.67 67.71Q121.54 69.59 121.96 71.70Q122.38 73.81 122.43 76.04Q122.48 78.27 122.27 80.42L122.27 80.42ZM112.64 81.16L112.71 80.42Q112.82 79.33 112.89 78.08Q112.96 76.83 112.87 75.60Q112.78 74.37 112.48 73.23Q112.18 72.09 111.57 71.21Q110.95 70.33 109.97 69.78Q108.98 69.24 107.51 69.20L107.51 69.20Q105.01 69.13 103.18 70.28Q101.36 71.42 100.02 73.39L100.02 73.39L97.38 88.64Q98.09 90.75 99.60 91.76Q101.11 92.76 103.32 92.83L103.32 92.83Q105.79 92.90 107.46 91.84Q109.13 90.79 110.20 89.10Q111.27 87.41 111.83 85.30Q112.39 83.20 112.64 81.16L112.64 81.16ZM129.90 81.61L129.97 80.88Q130.46 76.87 132.06 73.26Q133.66 69.66 136.23 66.95Q138.80 64.25 142.29 62.70Q145.79 61.15 150.08 61.26L150.08 61.26Q154.20 61.33 157.15 62.95Q160.10 64.56 161.95 67.22Q163.79 69.87 164.50 73.32Q165.20 76.76 164.81 80.52L164.81 80.52L164.71 81.30Q164.21 85.30 162.62 88.87Q161.02 92.44 158.45 95.11Q155.88 97.79 152.38 99.31Q148.89 100.84 144.63 100.74L144.63 100.74Q140.55 100.67 137.60 99.07Q134.65 97.47 132.80 94.85Q130.96 92.23 130.24 88.80Q129.52 85.38 129.90 81.61L129.90 81.61ZM139.50 80.88L139.43 81.61Q139.25 83.37 139.29 85.32Q139.32 87.27 139.90 88.94Q140.48 90.61 141.77 91.76Q143.05 92.90 145.34 92.97L145.34 92.97Q147.73 93.04 149.47 91.97Q151.21 90.89 152.38 89.19Q153.56 87.48 154.21 85.39Q154.86 83.30 155.14 81.30L155.14 81.30L155.21 80.56Q155.32 79.40 155.37 78.12Q155.43 76.83 155.27 75.58Q155.11 74.34 154.74 73.19Q154.37 72.05 153.69 71.17Q153 70.29 151.95 69.75Q150.89 69.20 149.38 69.13L149.38 69.13Q146.95 69.06 145.21 70.12Q143.47 71.17 142.29 72.89Q141.12 74.62 140.43 76.73Q139.75 78.84 139.50 80.88L139.50 80.88ZM186.29 52.64L195.82 52.64L194.20 61.96L207.98 61.96L206.72 69.17L192.94 69.17L190.27 85.55Q190.09 87.06 190.21 88.33Q190.34 89.59 190.88 90.54Q191.43 91.49 192.46 92.05Q193.50 92.62 195.15 92.65L195.15 92.65Q197.19 92.72 199.20 92.41Q201.20 92.09 203.20 91.67L203.20 91.67L203.52 98.45Q202.25 99.16 200.83 99.61Q199.41 100.07 197.91 100.32Q196.42 100.56 194.91 100.65Q193.39 100.74 191.99 100.70L191.99 100.70Q188.79 100.67 186.49 99.56Q184.18 98.45 182.76 96.55Q181.34 94.66 180.79 92.07Q180.25 89.49 180.56 86.46L180.56 86.46L183.41 69.17L174.97 69.17L176.24 61.96L184.68 61.96L186.29 52.64ZM214.42 81.61L214.49 80.88Q214.98 76.87 216.58 73.26Q218.18 69.66 220.75 66.95Q223.31 64.25 226.81 62.70Q230.31 61.15 234.60 61.26L234.60 61.26Q238.71 61.33 241.66 62.95Q244.62 64.56 246.46 67.22Q248.31 69.87 249.01 73.32Q249.71 76.76 249.33 80.52L249.33 80.52L249.22 81.30Q248.73 85.30 247.13 88.87Q245.53 92.44 242.96 95.11Q240.40 97.79 236.90 99.31Q233.40 100.84 229.15 100.74L229.15 100.74Q225.07 100.67 222.12 99.07Q219.16 97.47 217.32 94.85Q215.47 92.23 214.75 88.80Q214.03 85.38 214.42 81.61L214.42 81.61ZM224.02 80.88L223.95 81.61Q223.77 83.37 223.80 85.32Q223.84 87.27 224.42 88.94Q225 90.61 226.28 91.76Q227.57 92.90 229.85 92.97L229.85 92.97Q232.24 93.04 233.98 91.97Q235.72 90.89 236.90 89.19Q238.08 87.48 238.73 85.39Q239.38 83.30 239.66 81.30L239.66 81.30L239.73 80.56Q239.84 79.40 239.89 78.12Q239.94 76.83 239.78 75.58Q239.63 74.34 239.26 73.19Q238.89 72.05 238.20 71.17Q237.52 70.29 236.46 69.75Q235.41 69.20 233.89 69.13L233.89 69.13Q231.47 69.06 229.73 70.12Q227.99 71.17 226.81 72.89Q225.63 74.62 224.95 76.73Q224.26 78.84 224.02 80.88L224.02 80.88ZM305.33 48.81L317.18 48.81L318.52 67.90L327.16 48.81L339.26 48.81L330.36 100L321.50 100L324.21 84.46L328.57 61.68L318.55 83.13L313.73 83.13L311.59 61.50L307.86 85.23L305.30 100L296.44 100L305.33 48.81ZM341.19 81.61L341.26 80.88Q341.75 76.87 343.35 73.26Q344.95 69.66 347.52 66.95Q350.09 64.25 353.58 62.70Q357.08 61.15 361.37 61.26L361.37 61.26Q365.48 61.33 368.44 62.95Q371.39 64.56 373.24 67.22Q375.08 69.87 375.79 73.32Q376.49 76.76 376.10 80.52L376.10 80.52L376.00 81.30Q375.50 85.30 373.90 88.87Q372.30 92.44 369.74 95.11Q367.17 97.79 363.67 99.31Q360.18 100.84 355.92 100.74L355.92 100.74Q351.84 100.67 348.89 99.07Q345.94 97.47 344.09 94.85Q342.25 92.23 341.53 88.80Q340.80 85.38 341.19 81.61L341.19 81.61ZM350.79 80.88L350.72 81.61Q350.54 83.37 350.58 85.32Q350.61 87.27 351.19 88.94Q351.77 90.61 353.06 91.76Q354.34 92.90 356.63 92.97L356.63 92.97Q359.02 93.04 360.76 91.97Q362.50 90.89 363.67 89.19Q364.85 87.48 365.50 85.39Q366.15 83.30 366.43 81.30L366.43 81.30L366.50 80.56Q366.61 79.40 366.66 78.12Q366.71 76.83 366.56 75.58Q366.40 74.34 366.03 73.19Q365.66 72.05 364.97 71.17Q364.29 70.29 363.23 69.75Q362.18 69.20 360.67 69.13L360.67 69.13Q358.24 69.06 356.50 70.12Q354.76 71.17 353.58 72.89Q352.41 74.62 351.72 76.73Q351.04 78.84 350.79 80.88L350.79 80.88ZM388.05 61.96L396.63 61.93L396 67.27Q398.25 64.53 401.19 62.86Q404.12 61.19 407.81 61.26L407.81 61.26Q411.12 61.33 413.28 62.63Q415.44 63.93 416.67 66.07Q417.90 68.22 418.29 70.94Q418.68 73.67 418.36 76.59L418.36 76.59L414.46 100L404.93 100L408.80 76.69Q408.97 75.04 408.81 73.69Q408.66 72.33 408.04 71.35Q407.43 70.36 406.28 69.80Q405.14 69.24 403.35 69.20L403.35 69.20Q400.99 69.17 399.13 70.17Q397.27 71.17 395.75 72.93L395.75 72.93L391.01 100L381.45 100L388.05 61.96ZM425.71 81.61L425.78 80.88Q426.27 76.87 427.87 73.26Q429.47 69.66 432.04 66.95Q434.60 64.25 438.10 62.70Q441.60 61.15 445.89 61.26L445.89 61.26Q450 61.33 452.95 62.95Q455.91 64.56 457.75 67.22Q459.60 69.87 460.30 73.32Q461.00 76.76 460.62 80.52L460.62 80.52L460.51 81.30Q460.02 85.30 458.42 88.87Q456.82 92.44 454.25 95.11Q451.69 97.79 448.19 99.31Q444.69 100.84 440.44 100.74L440.44 100.74Q436.36 100.67 433.41 99.07Q430.45 97.47 428.61 94.85Q426.76 92.23 426.04 88.80Q425.32 85.38 425.71 81.61L425.71 81.61ZM435.30 80.88L435.23 81.61Q435.06 83.37 435.09 85.32Q435.13 87.27 435.71 88.94Q436.29 90.61 437.57 91.76Q438.86 92.90 441.14 92.97L441.14 92.97Q443.53 93.04 445.27 91.97Q447.01 90.89 448.19 89.19Q449.37 87.48 450.02 85.39Q450.67 83.30 450.95 81.30L450.95 81.30L451.02 80.56Q451.13 79.40 451.18 78.12Q451.23 76.83 451.07 75.58Q450.91 74.34 450.54 73.19Q450.18 72.05 449.49 71.17Q448.80 70.29 447.75 69.75Q446.70 69.20 445.18 69.13L445.18 69.13Q442.76 69.06 441.02 70.12Q439.28 71.17 438.10 72.89Q436.92 74.62 436.24 76.73Q435.55 78.84 435.30 80.88L435.30 80.88ZM544.85 80.42L544.75 81.16Q544.46 83.51 543.85 85.92Q543.23 88.33 542.25 90.53Q541.27 92.72 539.89 94.62Q538.52 96.52 536.73 97.89Q534.94 99.26 532.67 100.02Q530.40 100.77 527.66 100.70L527.66 100.70Q524.81 100.63 522.44 99.46Q520.07 98.28 518.48 95.92L518.48 95.92L517.08 100L508.43 100L517.78 46L527.34 46L523.62 65.44Q525.55 63.40 527.91 62.29Q530.26 61.19 533.11 61.26L533.11 61.26Q535.71 61.33 537.66 62.17Q539.61 63.02 541.00 64.42Q542.39 65.83 543.25 67.71Q544.11 69.59 544.54 71.70Q544.96 73.81 545.01 76.04Q545.06 78.27 544.85 80.42L544.85 80.42ZM535.22 81.16L535.29 80.42Q535.39 79.33 535.46 78.08Q535.54 76.83 535.45 75.60Q535.36 74.37 535.06 73.23Q534.76 72.09 534.15 71.21Q533.53 70.33 532.55 69.78Q531.56 69.24 530.09 69.20L530.09 69.20Q527.59 69.13 525.76 70.28Q523.93 71.42 522.60 73.39L522.60 73.39L519.96 88.64Q520.66 90.75 522.18 91.76Q523.69 92.76 525.90 92.83L525.90 92.83Q528.36 92.90 530.03 91.84Q531.70 90.79 532.78 89.10Q533.85 87.41 534.41 85.30Q534.97 83.20 535.22 81.16L535.22 81.16ZM552.48 81.61L552.55 80.88Q553.04 76.87 554.64 73.26Q556.24 69.66 558.81 66.95Q561.38 64.25 564.87 62.70Q568.37 61.15 572.66 61.26L572.66 61.26Q576.77 61.33 579.73 62.95Q582.68 64.56 584.53 67.22Q586.37 69.87 587.07 73.32Q587.78 76.76 587.39 80.52L587.39 80.52L587.29 81.30Q586.79 85.30 585.19 88.87Q583.59 92.44 581.03 95.11Q578.46 97.79 574.96 99.31Q571.46 100.84 567.21 100.74L567.21 100.74Q563.13 100.67 560.18 99.07Q557.23 97.47 555.38 94.85Q553.54 92.23 552.81 88.80Q552.09 85.38 552.48 81.61L552.48 81.61ZM562.08 80.88L562.01 81.61Q561.83 83.37 561.87 85.32Q561.90 87.27 562.48 88.94Q563.06 90.61 564.35 91.76Q565.63 92.90 567.91 92.97L567.91 92.97Q570.30 93.04 572.04 91.97Q573.79 90.89 574.96 89.19Q576.14 87.48 576.79 85.39Q577.44 83.30 577.72 81.30L577.72 81.30L577.79 80.56Q577.90 79.40 577.95 78.12Q578.00 76.83 577.85 75.58Q577.69 74.34 577.32 73.19Q576.95 72.05 576.26 71.17Q575.58 70.29 574.52 69.75Q573.47 69.20 571.96 69.13L571.96 69.13Q569.53 69.06 567.79 70.12Q566.05 71.17 564.87 72.89Q563.70 74.62 563.01 76.73Q562.32 78.84 562.08 80.88L562.08 80.88ZM602.68 53.98L604.09 46L624.76 46L616.78 92.05L627.36 92.05L625.96 100L594.70 100L596.11 92.05L607.15 92.05L613.76 53.98L602.68 53.98ZM637.28 81.68L637.38 80.91Q637.66 78.55 638.30 76.16Q638.93 73.77 639.93 71.56Q640.93 69.34 642.32 67.43Q643.71 65.51 645.54 64.12Q647.37 62.73 649.62 61.96Q651.87 61.19 654.61 61.26L654.61 61.26Q657.25 61.33 659.41 62.37Q661.57 63.40 663.22 65.44L663.22 65.44L666.88 46L676.44 46L667.09 100L658.55 100L659.04 96.03Q657.04 98.24 654.56 99.51Q652.08 100.77 648.98 100.70L648.98 100.70Q646.45 100.63 644.55 99.77Q642.66 98.91 641.29 97.49Q639.91 96.06 639.04 94.20Q638.16 92.34 637.70 90.24Q637.24 88.15 637.15 85.96Q637.07 83.76 637.28 81.68L637.28 81.68ZM646.91 80.95L646.84 81.68Q646.66 83.27 646.65 85.16Q646.63 87.06 647.12 88.73Q647.61 90.40 648.76 91.54Q649.90 92.69 652.04 92.76L652.04 92.76Q654.47 92.83 656.26 91.69Q658.05 90.54 659.43 88.71L659.43 88.71L662.17 73.25Q660.69 69.31 656.37 69.13L656.37 69.13Q653.98 69.10 652.29 70.19Q650.60 71.28 649.48 73Q648.35 74.72 647.75 76.83Q647.16 78.94 646.91 80.95L646.91 80.95ZM727.24 69.94L728.65 61.96L748.79 61.96L743.55 92.05L753.57 92.05L752.17 100L722.04 100L723.41 92.05L733.92 92.05L737.75 69.94L727.24 69.94ZM740.14 52.40L740.14 52.40Q740.14 51.20 740.57 50.22Q740.99 49.23 741.74 48.51Q742.50 47.79 743.50 47.39Q744.50 46.98 745.66 46.98L745.66 46.98Q746.79 46.95 747.77 47.30Q748.76 47.65 749.50 48.32Q750.23 48.99 750.67 49.94Q751.11 50.89 751.11 52.05L751.11 52.05Q751.11 53.24 750.69 54.23Q750.27 55.21 749.53 55.93Q748.79 56.65 747.77 57.06Q746.75 57.46 745.59 57.46L745.59 57.46Q744.47 57.50 743.48 57.14Q742.50 56.79 741.76 56.13Q741.02 55.46 740.58 54.51Q740.14 53.56 740.14 52.40ZM777.90 52.64L787.43 52.64L785.81 61.96L799.59 61.96L798.33 69.17L784.55 69.17L781.88 85.55Q781.70 87.06 781.82 88.33Q781.95 89.59 782.49 90.54Q783.04 91.49 784.07 92.05Q785.11 92.62 786.76 92.65L786.76 92.65Q788.80 92.72 790.80 92.41Q792.81 92.09 794.81 91.67L794.81 91.67L795.13 98.45Q793.86 99.16 792.44 99.61Q791.02 100.07 789.52 100.32Q788.03 100.56 786.52 100.65Q785.00 100.74 783.60 100.70L783.60 100.70Q780.40 100.67 778.10 99.56Q775.79 98.45 774.37 96.55Q772.95 94.66 772.40 92.07Q771.86 89.49 772.17 86.46L772.17 86.46L775.02 69.17L766.58 69.17L767.85 61.96L776.29 61.96L777.90 52.64ZM836.96 100L827.51 100Q827.23 99.09 827.17 98.22Q827.12 97.36 827.16 96.45L827.16 96.45Q824.94 98.52 822.32 99.63Q819.70 100.74 816.61 100.70L816.61 100.70Q814.22 100.67 812.06 99.88Q809.89 99.09 808.29 97.66Q806.70 96.24 805.82 94.20Q804.94 92.16 805.04 89.63L805.04 89.63Q805.15 87.10 806.01 85.16Q806.87 83.23 808.28 81.79Q809.68 80.35 811.51 79.38Q813.34 78.41 815.41 77.82Q817.49 77.22 819.69 76.97Q821.88 76.73 824.03 76.73L824.03 76.73L829.51 76.80L829.97 74.44Q830.18 73.07 829.88 71.98Q829.58 70.89 828.86 70.13Q828.14 69.38 827.05 68.97Q825.96 68.57 824.59 68.54L824.59 68.54Q822.13 68.46 820.48 69.64Q818.82 70.82 818.33 73.25L818.33 73.25L808.80 73.32Q809.02 70.15 810.60 67.85Q812.18 65.55 814.57 64.05Q816.96 62.56 819.86 61.87Q822.76 61.19 825.61 61.22L825.61 61.22Q828.60 61.29 831.27 62.17Q833.94 63.05 835.89 64.72Q837.84 66.39 838.85 68.85Q839.85 71.31 839.53 74.58L839.53 74.58L836.89 90.93Q836.58 93.00 836.42 95.17Q836.26 97.33 837 99.37L837 99.37L836.96 100ZM819.11 93.18L819.11 93.18Q821.60 93.25 823.80 92.16Q826.00 91.07 827.58 89.17L827.58 89.17L828.77 82.60L824.45 82.56Q822.87 82.56 821.25 82.88Q819.63 83.20 818.26 83.92Q816.89 84.64 815.94 85.83Q814.99 87.03 814.75 88.86L814.75 88.86Q814.61 89.95 814.89 90.75Q815.17 91.56 815.77 92.09Q816.36 92.62 817.22 92.90Q818.09 93.18 819.11 93.18ZM856.23 53.98L857.64 46L878.31 46L870.33 92.05L880.91 92.05L879.50 100L848.25 100L849.66 92.05L860.70 92.05L867.30 53.98L856.23 53.98ZM896.27 69.94L897.68 61.96L917.82 61.96L912.59 92.05L922.61 92.05L921.20 100L891.07 100L892.44 92.05L902.95 92.05L906.79 69.94L896.27 69.94ZM909.18 52.40L909.18 52.40Q909.18 51.20 909.60 50.22Q910.02 49.23 910.78 48.51Q911.53 47.79 912.53 47.39Q913.54 46.98 914.70 46.98L914.70 46.98Q915.82 46.95 916.80 47.30Q917.79 47.65 918.53 48.32Q919.27 48.99 919.71 49.94Q920.14 50.89 920.14 52.05L920.14 52.05Q920.14 53.24 919.72 54.23Q919.30 55.21 918.56 55.93Q917.82 56.65 916.80 57.06Q915.79 57.46 914.63 57.46L914.63 57.46Q913.50 57.50 912.52 57.14Q911.53 56.79 910.79 56.13Q910.05 55.46 909.62 54.51Q909.18 53.56 909.18 52.40ZM948.34 92.93L948.34 92.93Q949.75 92.97 951.03 92.58Q952.31 92.20 953.35 91.44Q954.39 90.68 955.11 89.56Q955.83 88.43 956.04 87.03L956.04 87.03L964.97 86.96Q964.79 90.19 963.25 92.78Q961.70 95.36 959.29 97.15Q956.88 98.95 953.91 99.88Q950.94 100.81 947.88 100.74L947.88 100.74Q943.77 100.67 940.83 99.09Q937.90 97.50 936.09 94.88Q934.28 92.27 933.57 88.84Q932.87 85.41 933.26 81.65L933.26 81.65L933.36 80.56Q933.86 76.59 935.44 73.04Q937.02 69.48 939.59 66.83Q942.15 64.18 945.62 62.66Q949.08 61.15 953.30 61.26L953.30 61.26Q956.57 61.33 959.20 62.42Q961.84 63.51 963.69 65.46Q965.53 67.41 966.46 70.10Q967.39 72.79 967.22 76.06L967.22 76.06L958.25 76.02Q958.36 74.62 958.04 73.37Q957.73 72.12 956.99 71.21Q956.25 70.29 955.13 69.75Q954 69.20 952.49 69.13L952.49 69.13Q950.06 69.06 948.36 70.08Q946.65 71.10 945.53 72.77Q944.40 74.44 943.77 76.50Q943.14 78.55 942.89 80.56L942.89 80.56L942.75 81.61Q942.57 83.30 942.57 85.27Q942.57 87.24 943.10 88.91Q943.63 90.58 944.84 91.72Q946.05 92.86 948.34 92.93Z"/></svg>