<svg xmlns="http://www.w3.org/2000/svg" viewBox="3.8671875 45.96484375 422.9296875 54.73828125"><path d="M32 100L23 82L16 82L16 100L4 100L4 49L24 49Q33 49 38 53Q43 57 43 64L43 64Q43 70 41 73Q39 77 34 79L34 79L45 99L45 100L32 100ZM16 58L16 72L24 72Q28 72 29 71Q31 69 31 65Q31 62 29 60Q27 58 24 58L24 58L16 58ZM49 83L49 81Q49 75 51 70Q53 66 57 64Q62 61 67 61L67 61Q76 61 81 67Q86 72 86 81L86 81L86 81Q86 90 81 95Q76 101 67 101L67 101Q59 101 54 96Q49 91 49 83L49 83ZM61 79L61 81Q61 87 62 89Q64 92 67 92L67 92Q74 92 74 82L74 82L74 81Q74 70 67 70L67 70Q61 70 61 79L61 79ZM126 81L126 81Q126 91 122 96Q118 101 111 101L111 101Q105 101 102 96L102 96L101 100L91 100L91 46L103 46L103 65Q106 61 111 61L111 61Q118 61 122 66Q126 71 126 81L126 81ZM114 81L114 81Q114 75 113 73Q111 70 108 70L108 70Q104 70 103 73L103 73L103 89Q104 92 108 92L108 92Q112 92 114 88L114 88Q114 86 114 81ZM130 83L130 81Q130 75 132 70Q134 66 138 64Q142 61 148 61L148 61Q157 61 162 67Q166 72 166 81L166 81L166 81Q166 90 162 95Q157 101 148 101L148 101Q140 101 135 96Q130 91 130 83L130 83ZM142 79L142 81Q142 87 143 89Q145 92 148 92L148 92Q154 92 155 82L155 82L155 81Q155 70 148 70L148 70Q142 70 142 79L142 79ZM174 53L185 53L185 62L192 62L192 70L185 70L185 88Q185 90 186 91Q187 91 189 91L189 91Q191 91 192 91L192 91L192 100Q189 101 186 101L186 101Q179 101 177 98Q174 95 174 89L174 89L174 70L169 70L169 62L174 62L174 53ZM194 83L194 81Q194 75 196 70Q198 66 202 64Q207 61 212 61L212 61Q221 61 226 67Q231 72 231 81L231 81L231 81Q231 90 226 95Q221 101 212 101L212 101Q204 101 199 96Q194 91 194 83L194 83ZM206 79L206 81Q206 87 207 89Q209 92 212 92L212 92Q219 92 219 82L219 82L219 81Q219 70 212 70L212 70Q206 70 206 79L206 79ZM289 81L289 81Q289 91 285 96Q281 101 274 101L274 101Q268 101 265 96L265 96L264 100L254 100L254 46L266 46L266 65Q269 61 274 61L274 61Q281 61 285 66Q289 71 289 81L289 81ZM277 81L277 81Q277 75 276 73Q274 70 271 70L271 70Q267 70 266 73L266 73L266 89Q267 92 271 92L271 92Q275 92 277 88L277 88Q277 86 277 81ZM307 46L307 100L295 100L295 46L307 46ZM347 100L335 100Q335 99 334 97L334 97Q331 101 325 101L325 101Q320 101 316 97Q312 94 312 89L312 89Q312 83 317 80Q321 77 330 77L330 77L334 77L334 75Q334 70 329 70L329 70Q325 70 325 74L325 74L313 74Q313 68 318 65Q323 61 330 61Q337 61 341 65Q346 68 346 75L346 75L346 91Q346 97 347 99L347 99L347 100ZM328 92L328 92Q330 92 332 91Q333 90 334 89L334 89L334 83L330 83Q324 83 324 89L324 89Q324 90 325 91Q326 92 328 92ZM368 92L368 92Q371 92 372 90Q374 89 374 86L374 86L385 86Q385 93 380 97Q376 101 369 101L369 101Q360 101 356 96Q351 90 351 81L351 81L351 81Q351 75 353 70Q355 66 359 64Q363 61 369 61L369 61Q376 61 380 65Q385 69 385 77L385 77L374 77Q374 74 372 72Q371 70 368 70L368 70Q364 70 363 76L363 76Q363 78 363 81L363 81Q363 87 364 89Q365 92 368 92ZM413 100L405 86L402 89L402 100L390 100L390 46L402 46L402 75L403 73L412 62L426 62L413 78L427 100L413 100Z"/></svg>