<svg xmlns="http://www.w3.org/2000/svg" viewBox="4.1484375 46 675.421875 54.703125"><path d="M27.32 100L19.62 81.30L14.48 81.30L14.48 100L4.15 100L4.15 48.81L20.64 48.81Q28.41 48.81 32.64 52.84Q36.88 56.86 36.88 64.28L36.88 64.28Q36.88 74.48 29.46 78.55L29.46 78.55L38.43 99.51L38.43 100L27.32 100ZM14.48 57.43L14.48 72.68L20.36 72.68Q23.45 72.68 25.00 70.63Q26.54 68.57 26.54 65.13L26.54 65.13Q26.54 57.43 20.53 57.43L20.53 57.43L14.48 57.43ZM42.33 82.18L42.33 79.75Q42.33 71.10 46.41 66.18Q50.48 61.26 57.69 61.26L57.69 61.26Q64.97 61.26 69.05 66.18Q73.13 71.10 73.13 79.82L73.13 79.82L73.13 82.25Q73.13 90.93 69.08 95.82Q65.04 100.70 57.76 100.70L57.76 100.70Q50.45 100.70 46.39 95.80Q42.33 90.89 42.33 82.18L42.33 82.18ZM52.31 79.75L52.31 82.25Q52.31 92.44 57.76 92.44L57.76 92.44Q62.79 92.44 63.18 83.93L63.18 83.93L63.21 79.75Q63.21 74.55 61.77 72.03Q60.33 69.52 57.69 69.52L57.69 69.52Q55.16 69.52 53.74 72.03Q52.31 74.55 52.31 79.75L52.31 79.75ZM108.98 79.29L108.98 82.21Q108.98 91.46 106.03 96.08Q103.08 100.70 96.75 100.70L96.75 100.70Q91.79 100.70 88.80 96.24L88.80 96.24L88.49 100L79.31 100L79.31 46L89.26 46L89.26 65.05Q92.07 61.26 96.68 61.26L96.68 61.26Q103.01 61.26 105.96 65.85Q108.91 70.43 108.98 79.29L108.98 79.29ZM99.04 83.34L99.04 79.71Q99.04 73.70 97.88 71.65Q96.71 69.59 93.83 69.59L93.83 69.59Q90.70 69.59 89.26 72.44L89.26 72.44L89.26 89.77Q90.60 92.44 93.90 92.44L93.90 92.44Q96.75 92.44 97.86 90.58Q98.96 88.71 99.04 83.34L99.04 83.34ZM113.80 82.18L113.80 79.75Q113.80 71.10 117.88 66.18Q121.96 61.26 129.16 61.26L129.16 61.26Q136.44 61.26 140.52 66.18Q144.60 71.10 144.60 79.82L144.60 79.82L144.60 82.25Q144.60 90.93 140.55 95.82Q136.51 100.70 129.23 100.70L129.23 100.70Q121.92 100.70 117.86 95.80Q113.80 90.89 113.80 82.18L113.80 82.18ZM123.79 79.75L123.79 82.25Q123.79 92.44 129.23 92.44L129.23 92.44Q134.26 92.44 134.65 83.93L134.65 83.93L134.68 79.75Q134.68 74.55 133.24 72.03Q131.80 69.52 129.16 69.52L129.16 69.52Q126.63 69.52 125.21 72.03Q123.79 74.55 123.79 79.75L123.79 79.75ZM152.40 52.61L162.35 52.61L162.35 61.96L167.45 61.96L167.45 69.45L162.35 69.45L162.35 88.33Q162.35 90.58 162.97 91.42Q163.58 92.27 165.34 92.27L165.34 92.27Q166.78 92.27 167.70 92.02L167.70 92.02L167.63 99.75Q165.09 100.70 162.14 100.70L162.14 100.70Q152.51 100.70 152.40 89.66L152.40 89.66L152.40 69.45L148.01 69.45L148.01 61.96L152.40 61.96L152.40 52.61ZM170.68 82.18L170.68 79.75Q170.68 71.10 174.76 66.18Q178.84 61.26 186.05 61.26L186.05 61.26Q193.32 61.26 197.40 66.18Q201.48 71.10 201.48 79.82L201.48 79.82L201.48 82.25Q201.48 90.93 197.44 95.82Q193.39 100.70 186.12 100.70L186.12 100.70Q178.80 100.70 174.74 95.80Q170.68 90.89 170.68 82.18L170.68 82.18ZM180.67 79.75L180.67 82.25Q180.67 92.44 186.12 92.44L186.12 92.44Q191.14 92.44 191.53 83.93L191.53 83.93L191.57 79.75Q191.57 74.55 190.13 72.03Q188.68 69.52 186.05 69.52L186.05 69.52Q183.52 69.52 182.09 72.03Q180.67 74.55 180.67 79.75L180.67 79.75ZM249.12 82.95L259.45 82.95Q259.07 91.70 254.53 96.20Q250.00 100.70 241.73 100.70L241.73 100.70Q233.05 100.70 228.43 94.99Q223.80 89.28 223.80 78.70L223.80 78.70L223.80 70.08Q223.80 59.54 228.59 53.82Q233.37 48.11 241.88 48.11L241.88 48.11Q250.24 48.11 254.58 52.79Q258.93 57.46 259.52 66.21L259.52 66.21L249.15 66.21Q249.01 60.80 247.48 58.74Q245.95 56.69 241.88 56.69L241.88 56.69Q237.73 56.69 236.00 59.59Q234.28 62.49 234.18 69.13L234.18 69.13L234.18 78.80Q234.18 86.43 235.88 89.28Q237.59 92.13 241.73 92.13L241.73 92.13Q245.81 92.13 247.36 90.14Q248.91 88.15 249.12 82.95L249.12 82.95ZM264.16 82.18L264.16 79.75Q264.16 71.10 268.24 66.18Q272.32 61.26 279.53 61.26L279.53 61.26Q286.80 61.26 290.88 66.18Q294.96 71.10 294.96 79.82L294.96 79.82L294.96 82.25Q294.96 90.93 290.92 95.82Q286.88 100.70 279.60 100.70L279.60 100.70Q272.29 100.70 268.22 95.80Q264.16 90.89 264.16 82.18L264.16 82.18ZM274.15 79.75L274.15 82.25Q274.15 92.44 279.60 92.44L279.60 92.44Q284.63 92.44 285.01 83.93L285.01 83.93L285.05 79.75Q285.05 74.55 283.61 72.03Q282.16 69.52 279.53 69.52L279.53 69.52Q277.00 69.52 275.57 72.03Q274.15 74.55 274.15 79.75L274.15 79.75ZM300.90 61.96L310.25 61.96L310.54 65.72Q313.91 61.26 319.36 61.26L319.36 61.26Q329.17 61.26 329.45 75.00L329.45 75.00L329.45 100L319.46 100L319.46 75.74Q319.46 72.51 318.50 71.05Q317.53 69.59 315.11 69.59L315.11 69.59Q312.40 69.59 310.89 72.37L310.89 72.37L310.89 100L300.90 100L300.90 61.96ZM335.25 82.70L335.25 79.82Q335.25 70.47 338.41 65.86Q341.58 61.26 347.63 61.26L347.63 61.26Q352.02 61.26 354.94 65.05L354.94 65.05L354.94 46L364.96 46L364.96 100L355.92 100L355.46 96.13Q352.41 100.70 347.59 100.70L347.59 100.70Q341.61 100.70 338.47 96.13Q335.32 91.56 335.25 82.70L335.25 82.70ZM345.23 79.68L345.23 82.32Q345.23 87.94 346.43 90.17Q347.63 92.41 350.47 92.41L350.47 92.41Q353.43 92.41 354.94 89.77L354.94 89.77L354.94 72.40Q353.46 69.59 350.51 69.59L350.51 69.59Q347.77 69.59 346.50 71.80Q345.23 74.02 345.23 79.68L345.23 79.68ZM387.63 100.70L387.63 100.70Q379.97 100.70 375.68 96.13Q371.39 91.56 371.39 83.05L371.39 83.05L371.39 80.03Q371.39 71.03 375.33 66.14Q379.27 61.26 386.61 61.26L386.61 61.26Q393.79 61.26 397.41 65.85Q401.03 70.43 401.10 79.43L401.10 79.43L401.10 84.32L381.30 84.32Q381.52 88.54 383.17 90.49Q384.82 92.44 388.27 92.44L388.27 92.44Q393.26 92.44 396.60 89.03L396.60 89.03L400.50 95.04Q398.67 97.57 395.19 99.14Q391.71 100.70 387.63 100.70ZM381.38 77.36L381.38 77.36L391.32 77.36L391.32 76.45Q391.25 73.04 390.20 71.28Q389.14 69.52 386.54 69.52Q383.94 69.52 382.76 71.38Q381.59 73.25 381.38 77.36ZM406.48 61.96L415.83 61.96L416.11 65.72Q419.48 61.26 424.93 61.26L424.93 61.26Q434.74 61.26 435.02 75.00L435.02 75.00L435.02 100L425.04 100L425.04 75.74Q425.04 72.51 424.07 71.05Q423.11 69.59 420.68 69.59L420.68 69.59Q417.97 69.59 416.46 72.37L416.46 72.37L416.46 100L406.48 100L406.48 61.96ZM459 89.80L459 89.80Q459 88.54 457.79 87.47Q456.57 86.39 452.39 84.57L452.39 84.57Q446.24 82.07 443.94 79.40Q441.63 76.73 441.63 72.75L441.63 72.75Q441.63 67.76 445.24 64.51Q448.84 61.26 454.78 61.26L454.78 61.26Q461.04 61.26 464.80 64.49Q468.56 67.73 468.56 73.18L468.56 73.18L458.61 73.18Q458.61 68.54 454.75 68.54L454.75 68.54Q453.16 68.54 452.14 69.52Q451.13 70.50 451.13 72.26L451.13 72.26Q451.13 73.53 452.25 74.49Q453.38 75.46 457.56 77.25L457.56 77.25Q463.64 79.50 466.15 82.26Q468.67 85.02 468.67 89.42L468.67 89.42Q468.67 94.52 464.84 97.61Q461.00 100.70 454.78 100.70L454.78 100.70Q450.60 100.70 447.40 99.07Q444.20 97.43 442.39 94.52Q440.58 91.60 440.58 88.22L440.58 88.22L450.04 88.22Q450.11 90.82 451.25 92.13Q452.39 93.43 454.99 93.43L454.99 93.43Q459 93.43 459 89.80ZM490.22 100.70L490.22 100.70Q482.55 100.70 478.27 96.13Q473.98 91.56 473.98 83.05L473.98 83.05L473.98 80.03Q473.98 71.03 477.91 66.14Q481.85 61.26 489.20 61.26L489.20 61.26Q496.37 61.26 499.99 65.85Q503.61 70.43 503.68 79.43L503.68 79.43L503.68 84.32L483.89 84.32Q484.10 88.54 485.75 90.49Q487.41 92.44 490.85 92.44L490.85 92.44Q495.84 92.44 499.18 89.03L499.18 89.03L503.09 95.04Q501.26 97.57 497.78 99.14Q494.30 100.70 490.22 100.70ZM483.96 77.36L483.96 77.36L493.91 77.36L493.91 76.45Q493.84 73.04 492.79 71.28Q491.73 69.52 489.13 69.52Q486.53 69.52 485.35 71.38Q484.17 73.25 483.96 77.36ZM507.97 82.70L507.97 79.82Q507.97 70.47 511.14 65.86Q514.30 61.26 520.35 61.26L520.35 61.26Q524.74 61.26 527.66 65.05L527.66 65.05L527.66 46L537.68 46L537.68 100L528.64 100L528.19 96.13Q525.13 100.70 520.31 100.70L520.31 100.70Q514.34 100.70 511.19 96.13Q508.04 91.56 507.97 82.70L507.97 82.70ZM517.96 79.68L517.96 82.32Q517.96 87.94 519.15 90.17Q520.35 92.41 523.20 92.41L523.20 92.41Q526.15 92.41 527.66 89.77L527.66 89.77L527.66 72.40Q526.18 69.59 523.23 69.59L523.23 69.59Q520.49 69.59 519.22 71.80Q517.96 74.02 517.96 79.68L517.96 79.68ZM591.26 79.29L591.26 82.21Q591.26 91.46 588.30 96.08Q585.35 100.70 579.02 100.70L579.02 100.70Q574.07 100.70 571.08 96.24L571.08 96.24L570.76 100L561.59 100L561.59 46L571.54 46L571.54 65.05Q574.35 61.26 578.95 61.26L578.95 61.26Q585.28 61.26 588.23 65.85Q591.19 70.43 591.26 79.29L591.26 79.29ZM581.31 83.34L581.31 79.71Q581.31 73.70 580.15 71.65Q578.99 69.59 576.11 69.59L576.11 69.59Q572.98 69.59 571.54 72.44L571.54 72.44L571.54 89.77Q572.87 92.44 576.18 92.44L576.18 92.44Q579.02 92.44 580.13 90.58Q581.24 88.71 581.31 83.34L581.31 83.34ZM596.07 82.18L596.07 79.75Q596.07 71.10 600.15 66.18Q604.23 61.26 611.44 61.26L611.44 61.26Q618.71 61.26 622.79 66.18Q626.87 71.10 626.87 79.82L626.87 79.82L626.87 82.25Q626.87 90.93 622.83 95.82Q618.79 100.70 611.51 100.70L611.51 100.70Q604.20 100.70 600.13 95.80Q596.07 90.89 596.07 82.18L596.07 82.18ZM606.06 79.75L606.06 82.25Q606.06 92.44 611.51 92.44L611.51 92.44Q616.54 92.44 616.92 83.93L616.92 83.93L616.96 79.75Q616.96 74.55 615.52 72.03Q614.07 69.52 611.44 69.52L611.44 69.52Q608.91 69.52 607.48 72.03Q606.06 74.55 606.06 79.75L606.06 79.75ZM643.50 46L643.50 100L633.52 100L633.52 46L643.50 46ZM649.86 82.70L649.86 79.82Q649.86 70.47 653.03 65.86Q656.19 61.26 662.24 61.26L662.24 61.26Q666.63 61.26 669.55 65.05L669.55 65.05L669.55 46L679.57 46L679.57 100L670.54 100L670.08 96.13Q667.02 100.70 662.20 100.70L662.20 100.70Q656.23 100.70 653.08 96.13Q649.93 91.56 649.86 82.70L649.86 82.70ZM659.85 79.68L659.85 82.32Q659.85 87.94 661.04 90.17Q662.24 92.41 665.09 92.41L665.09 92.41Q668.04 92.41 669.55 89.77L669.55 89.77L669.55 72.40Q668.07 69.59 665.12 69.59L665.12 69.59Q662.38 69.59 661.11 71.80Q659.85 74.02 659.85 79.68L659.85 79.68Z"/></svg>