<svg xmlns="http://www.w3.org/2000/svg" viewBox="3.234375 46 1005.4800502232143 69.16089527027027"><path d="M30.52 100L23.41 78.59L11.11 78.59L7.38 100L3.23 100L12.13 48.81L25.91 48.85Q29.07 48.95 31.71 50.08Q34.35 51.20 36.18 53.12Q38.00 55.04 38.92 57.71Q39.83 60.38 39.52 63.61L39.52 63.61Q39.27 66.32 38.23 68.50Q37.20 70.68 35.58 72.42Q33.96 74.16 31.85 75.46Q29.74 76.76 27.35 77.71L27.35 77.71L34.95 99.54L34.88 100L30.52 100ZM15.64 52.40L11.71 75.04L22.29 75.11Q24.75 75.07 27 74.21Q29.25 73.35 31.01 71.82Q32.77 70.29 33.91 68.18Q35.05 66.07 35.33 63.58L35.33 63.58Q35.58 61.22 35.02 59.22Q34.45 57.21 33.19 55.74Q31.92 54.26 30.04 53.40Q28.16 52.54 25.80 52.43L25.80 52.43L15.64 52.40ZM46.30 81.82L46.44 80.66Q46.76 78.17 47.57 75.74Q48.38 73.32 49.61 71.14Q50.84 68.96 52.51 67.11Q54.18 65.27 56.21 63.95Q58.25 62.63 60.64 61.91Q63.04 61.19 65.78 61.26L65.78 61.26Q68.38 61.33 70.47 62.12Q72.56 62.91 74.16 64.25Q75.76 65.58 76.87 67.41Q77.98 69.24 78.61 71.33Q79.24 73.42 79.44 75.71Q79.63 77.99 79.38 80.31L79.38 80.31L79.24 81.51Q78.75 85.27 77.19 88.77Q75.62 92.27 73.14 94.96Q70.66 97.64 67.31 99.23Q63.95 100.81 59.91 100.70L59.91 100.70Q56.04 100.60 53.28 98.95Q50.52 97.29 48.85 94.64Q47.18 91.98 46.55 88.63Q45.91 85.27 46.30 81.82L46.30 81.82ZM50.63 80.66L50.48 81.86Q50.20 84.43 50.52 87.10Q50.84 89.77 51.96 91.98Q53.09 94.20 55.07 95.64Q57.06 97.08 60.12 97.19L60.12 97.19Q63.35 97.29 65.95 95.92Q68.55 94.55 70.45 92.30Q72.35 90.05 73.51 87.20Q74.67 84.36 75.09 81.47L75.09 81.47L75.23 80.35Q75.52 77.78 75.20 75.07Q74.88 72.37 73.76 70.12Q72.63 67.87 70.63 66.39Q68.63 64.91 65.57 64.81L65.57 64.81Q62.30 64.70 59.71 66.11Q57.13 67.52 55.23 69.78Q53.33 72.05 52.17 74.93Q51.01 77.82 50.63 80.66L50.63 80.66ZM120.80 80.42L120.69 81.16Q120.38 83.48 119.71 85.87Q119.04 88.26 117.98 90.46Q116.93 92.65 115.51 94.55Q114.08 96.45 112.25 97.86Q110.43 99.26 108.16 100.04Q105.89 100.81 103.22 100.74L103.22 100.74Q99.95 100.67 97.17 99.19Q94.39 97.71 92.71 94.90L92.71 94.90L91.51 100L87.61 100L96.96 46L101.18 46L97.21 67.27Q99.46 64.42 102.43 62.79Q105.40 61.15 109.09 61.26L109.09 61.26Q111.66 61.33 113.61 62.19Q115.56 63.05 116.93 64.47Q118.30 65.90 119.18 67.76Q120.06 69.63 120.50 71.73Q120.94 73.84 120.99 76.08Q121.04 78.31 120.80 80.42L120.80 80.42ZM116.47 81.16L116.58 80.42Q116.79 78.80 116.81 77.03Q116.82 75.25 116.58 73.56Q116.33 71.88 115.75 70.33Q115.17 68.78 114.15 67.60Q113.13 66.43 111.66 65.71Q110.18 64.98 108.11 64.91L108.11 64.91Q106.14 64.84 104.43 65.41Q102.73 65.97 101.29 66.99Q99.84 68.01 98.65 69.40Q97.45 70.79 96.54 72.37L96.54 72.37L93.55 90.19Q94.57 93.29 96.96 95.13Q99.35 96.98 102.66 97.08L102.66 97.08Q104.84 97.15 106.65 96.50Q108.46 95.85 109.90 94.71Q111.34 93.57 112.45 92.00Q113.55 90.44 114.36 88.64Q115.17 86.85 115.68 84.94Q116.19 83.02 116.47 81.16L116.47 81.16ZM130.82 81.82L130.96 80.66Q131.27 78.17 132.08 75.74Q132.89 73.32 134.12 71.14Q135.35 68.96 137.02 67.11Q138.69 65.27 140.73 63.95Q142.77 62.63 145.16 61.91Q147.55 61.19 150.29 61.26L150.29 61.26Q152.89 61.33 154.99 62.12Q157.08 62.91 158.68 64.25Q160.28 65.58 161.38 67.41Q162.49 69.24 163.13 71.33Q163.76 73.42 163.95 75.71Q164.14 77.99 163.90 80.31L163.90 80.31L163.76 81.51Q163.27 85.27 161.70 88.77Q160.14 92.27 157.66 94.96Q155.18 97.64 151.82 99.23Q148.46 100.81 144.42 100.70L144.42 100.70Q140.55 100.60 137.79 98.95Q135.04 97.29 133.37 94.64Q131.70 91.98 131.06 88.63Q130.43 85.27 130.82 81.82L130.82 81.82ZM135.14 80.66L135 81.86Q134.72 84.43 135.04 87.10Q135.35 89.77 136.48 91.98Q137.60 94.20 139.59 95.64Q141.57 97.08 144.63 97.19L144.63 97.19Q147.87 97.29 150.47 95.92Q153.07 94.55 154.97 92.30Q156.87 90.05 158.03 87.20Q159.19 84.36 159.61 81.47L159.61 81.47L159.75 80.35Q160.03 77.78 159.71 75.07Q159.40 72.37 158.27 70.12Q157.15 67.87 155.14 66.39Q153.14 64.91 150.08 64.81L150.08 64.81Q146.81 64.70 144.23 66.11Q141.64 67.52 139.75 69.78Q137.85 72.05 136.69 74.93Q135.53 77.82 135.14 80.66L135.14 80.66ZM189.67 52.22L193.92 52.22L192.20 61.96L205.91 61.96L205.28 65.41L191.64 65.41L187.63 89.38Q187.24 92.93 188.88 94.90Q190.51 96.87 194.10 96.98L194.10 96.98Q195.79 97.05 197.44 96.82Q199.09 96.59 200.74 96.31L200.74 96.31L201.06 99.54Q199.16 100.21 197.17 100.47Q195.19 100.74 193.18 100.67L193.18 100.67Q190.58 100.63 188.65 99.79Q186.71 98.95 185.47 97.47Q184.22 95.99 183.69 93.92Q183.16 91.84 183.38 89.31L183.38 89.31L187.35 65.41L177.08 65.41L177.71 61.96L187.95 61.96L189.67 52.22ZM215.33 81.82L215.47 80.66Q215.79 78.17 216.60 75.74Q217.41 73.32 218.64 71.14Q219.87 68.96 221.54 67.11Q223.21 65.27 225.25 63.95Q227.29 62.63 229.68 61.91Q232.07 61.19 234.81 61.26L234.81 61.26Q237.41 61.33 239.50 62.12Q241.59 62.91 243.19 64.25Q244.79 65.58 245.90 67.41Q247.01 69.24 247.64 71.33Q248.27 73.42 248.47 75.71Q248.66 77.99 248.41 80.31L248.41 80.31L248.27 81.51Q247.78 85.27 246.22 88.77Q244.65 92.27 242.17 94.96Q239.70 97.64 236.34 99.23Q232.98 100.81 228.94 100.70L228.94 100.70Q225.07 100.60 222.31 98.95Q219.55 97.29 217.88 94.64Q216.21 91.98 215.58 88.63Q214.95 85.27 215.33 81.82L215.33 81.82ZM219.66 80.66L219.52 81.86Q219.23 84.43 219.55 87.10Q219.87 89.77 220.99 91.98Q222.12 94.20 224.10 95.64Q226.09 97.08 229.15 97.19L229.15 97.19Q232.38 97.29 234.98 95.92Q237.59 94.55 239.48 92.30Q241.38 90.05 242.54 87.20Q243.70 84.36 244.13 81.47L244.13 81.47L244.27 80.35Q244.55 77.78 244.23 75.07Q243.91 72.37 242.79 70.12Q241.66 67.87 239.66 66.39Q237.66 64.91 234.60 64.81L234.60 64.81Q231.33 64.70 228.74 66.11Q226.16 67.52 224.26 69.78Q222.36 72.05 221.20 74.93Q220.04 77.82 219.66 80.66L219.66 80.66ZM306.67 48.81L311.94 48.81L316.86 77.64L332.47 48.81L338.03 48.81L329.13 100L325.02 100L328.99 77.22L333.18 55L317.18 84.60L314.44 84.60L309.38 54.96L305.79 77.43L301.89 100L297.77 100L306.67 48.81ZM342.11 81.82L342.25 80.66Q342.56 78.17 343.37 75.74Q344.18 73.32 345.41 71.14Q346.64 68.96 348.31 67.11Q349.98 65.27 352.02 63.95Q354.06 62.63 356.45 61.91Q358.84 61.19 361.58 61.26L361.58 61.26Q364.18 61.33 366.28 62.12Q368.37 62.91 369.97 64.25Q371.57 65.58 372.67 67.41Q373.78 69.24 374.41 71.33Q375.05 73.42 375.24 75.71Q375.43 77.99 375.19 80.31L375.19 80.31L375.05 81.51Q374.55 85.27 372.99 88.77Q371.43 92.27 368.95 94.96Q366.47 97.64 363.11 99.23Q359.75 100.81 355.71 100.70L355.71 100.70Q351.84 100.60 349.08 98.95Q346.32 97.29 344.65 94.64Q342.98 91.98 342.35 88.63Q341.72 85.27 342.11 81.82L342.11 81.82ZM346.43 80.66L346.29 81.86Q346.01 84.43 346.32 87.10Q346.64 89.77 347.77 91.98Q348.89 94.20 350.88 95.64Q352.86 97.08 355.92 97.19L355.92 97.19Q359.16 97.29 361.76 95.92Q364.36 94.55 366.26 92.30Q368.16 90.05 369.32 87.20Q370.48 84.36 370.90 81.47L370.90 81.47L371.04 80.35Q371.32 77.78 371.00 75.07Q370.69 72.37 369.56 70.12Q368.44 67.87 366.43 66.39Q364.43 64.91 361.37 64.81L361.37 64.81Q358.10 64.70 355.52 66.11Q352.93 67.52 351.04 69.78Q349.14 72.05 347.98 74.93Q346.82 77.82 346.43 80.66L346.43 80.66ZM389.81 61.96L393.68 61.96L392.48 69.10Q393.68 67.38 395.14 65.92Q396.60 64.46 398.32 63.40Q400.04 62.35 401.99 61.79Q403.95 61.22 406.13 61.26L406.13 61.26Q409.22 61.33 411.36 62.54Q413.51 63.75 414.74 65.72Q415.97 67.69 416.39 70.26Q416.81 72.82 416.50 75.64L416.50 75.64L412.42 100L408.23 100L412.31 75.67Q412.56 73.56 412.33 71.65Q412.10 69.73 411.26 68.25Q410.41 66.78 408.85 65.88Q407.29 64.98 404.89 64.91L404.89 64.91Q402.71 64.88 400.80 65.56Q398.88 66.25 397.25 67.43Q395.61 68.61 394.28 70.19Q392.94 71.77 391.96 73.56L391.96 73.56L387.39 100L383.20 100L389.81 61.96ZM426.62 81.82L426.76 80.66Q427.08 78.17 427.89 75.74Q428.70 73.32 429.93 71.14Q431.16 68.96 432.83 67.11Q434.50 65.27 436.54 63.95Q438.57 62.63 440.96 61.91Q443.36 61.19 446.10 61.26L446.10 61.26Q448.70 61.33 450.79 62.12Q452.88 62.91 454.48 64.25Q456.08 65.58 457.19 67.41Q458.30 69.24 458.93 71.33Q459.56 73.42 459.76 75.71Q459.95 77.99 459.70 80.31L459.70 80.31L459.56 81.51Q459.07 85.27 457.51 88.77Q455.94 92.27 453.46 94.96Q450.98 97.64 447.63 99.23Q444.27 100.81 440.23 100.70L440.23 100.70Q436.36 100.60 433.60 98.95Q430.84 97.29 429.17 94.64Q427.50 91.98 426.87 88.63Q426.23 85.27 426.62 81.82L426.62 81.82ZM430.95 80.66L430.80 81.86Q430.52 84.43 430.84 87.10Q431.16 89.77 432.28 91.98Q433.41 94.20 435.39 95.64Q437.38 97.08 440.44 97.19L440.44 97.19Q443.67 97.29 446.27 95.92Q448.88 94.55 450.77 92.30Q452.67 90.05 453.83 87.20Q454.99 84.36 455.41 81.47L455.41 81.47L455.55 80.35Q455.84 77.78 455.52 75.07Q455.20 72.37 454.08 70.12Q452.95 67.87 450.95 66.39Q448.95 64.91 445.89 64.81L445.89 64.81Q442.62 64.70 440.03 66.11Q437.45 67.52 435.55 69.78Q433.65 72.05 432.49 74.93Q431.33 77.82 430.95 80.66L430.95 80.66ZM519.64 49.76L520.31 46L537.57 46L528.86 96.27L541.37 96.27L540.70 100L510.93 100L511.59 96.27L524.67 96.27L532.72 49.76L519.64 49.76ZM559.13 65.72L559.79 61.96L577.02 61.96L571.04 96.27L583.63 96.27L582.96 100L553.18 100L553.85 96.27L566.86 96.27L572.17 65.72L559.13 65.72ZM573.43 51.63L573.43 51.63Q573.50 50.22 574.38 49.29Q575.26 48.36 576.70 48.32L576.70 48.32Q578.11 48.29 578.95 49.20Q579.80 50.11 579.73 51.48L579.73 51.48Q579.66 52.86 578.74 53.75Q577.83 54.65 576.46 54.68L576.46 54.68Q575.05 54.72 574.21 53.86Q573.36 53.00 573.43 51.63ZM596.60 81.61L596.71 80.84Q597.02 78.48 597.71 76.11Q598.39 73.74 599.45 71.54Q600.50 69.34 601.93 67.43Q603.35 65.51 605.21 64.11Q607.08 62.70 609.35 61.93Q611.61 61.15 614.32 61.22L614.32 61.22Q617.63 61.33 620.30 62.86Q622.97 64.39 624.59 67.23L624.59 67.23L625.82 61.96L629.75 61.96L623.36 99.33Q622.83 102.71 621.40 105.63Q619.98 108.54 617.77 110.71Q615.55 112.87 612.60 114.06Q609.64 115.26 606.06 115.15L606.06 115.15Q604.23 115.12 602.49 114.64Q600.75 114.17 599.19 113.32Q597.62 112.48 596.29 111.27Q594.95 110.05 593.96 108.51L593.96 108.51L596.53 106.05Q598.22 108.51 600.57 110.04Q602.93 111.57 605.99 111.64L605.99 111.64Q608.77 111.71 610.98 110.79Q613.20 109.88 614.87 108.23Q616.54 106.57 617.61 104.34Q618.68 102.11 619.17 99.54L619.17 99.54L620.05 95.22Q617.73 97.82 614.78 99.30Q611.82 100.77 608.27 100.70L608.27 100.70Q605.78 100.63 603.86 99.77Q601.95 98.91 600.57 97.47Q599.20 96.03 598.32 94.16Q597.45 92.30 596.97 90.19Q596.50 88.08 596.43 85.88Q596.36 83.69 596.60 81.61L596.60 81.61ZM600.89 80.84L600.79 81.58Q600.57 83.20 600.57 84.95Q600.57 86.71 600.84 88.40Q601.10 90.09 601.68 91.63Q602.26 93.18 603.26 94.36Q604.27 95.54 605.74 96.26Q607.22 96.98 609.26 97.05L609.26 97.05Q611.09 97.12 612.74 96.63Q614.39 96.13 615.83 95.24Q617.27 94.34 618.49 93.07Q619.70 91.81 620.65 90.33L620.65 90.33L623.74 72.16Q623.25 70.57 622.44 69.27Q621.63 67.97 620.51 67.01Q619.38 66.04 617.96 65.49Q616.54 64.95 614.85 64.88L614.85 64.88Q612.63 64.81 610.82 65.46Q609.01 66.11 607.55 67.27Q606.09 68.43 604.97 69.99Q603.84 71.56 603.04 73.35Q602.23 75.14 601.70 77.06Q601.17 78.98 600.89 80.84L600.89 80.84ZM650.32 46L646.03 69.31Q647.23 67.55 648.69 66.06Q650.14 64.56 651.88 63.49Q653.63 62.42 655.59 61.82Q657.56 61.22 659.78 61.26L659.78 61.26Q662.91 61.33 665.03 62.54Q667.16 63.75 668.41 65.74Q669.66 67.73 670.06 70.31Q670.46 72.89 670.15 75.71L670.15 75.71L666.07 100L661.89 100L665.96 75.67Q666.21 73.56 665.96 71.65Q665.72 69.73 664.86 68.25Q664.00 66.78 662.45 65.90Q660.90 65.02 658.55 64.95L658.55 64.95Q656.40 64.91 654.50 65.55Q652.61 66.18 650.95 67.32Q649.30 68.46 647.95 70.01Q646.59 71.56 645.54 73.28L645.54 73.28L640.93 100L636.75 100L646.14 46L650.32 46ZM696.76 52.22L701.02 52.22L699.29 61.96L713.00 61.96L712.37 65.41L698.73 65.41L694.72 89.38Q694.34 92.93 695.97 94.90Q697.61 96.87 701.19 96.98L701.19 96.98Q702.88 97.05 704.53 96.82Q706.18 96.59 707.84 96.31L707.84 96.31L708.15 99.54Q706.25 100.21 704.27 100.47Q702.28 100.74 700.28 100.67L700.28 100.67Q697.68 100.63 695.74 99.79Q693.81 98.95 692.56 97.47Q691.31 95.99 690.79 93.92Q690.26 91.84 690.47 89.31L690.47 89.31L694.44 65.41L684.18 65.41L684.81 61.96L695.04 61.96L696.76 52.22ZM770.41 65.72L771.08 61.96L788.31 61.96L782.33 96.27L794.92 96.27L794.25 100L764.47 100L765.14 96.27L778.15 96.27L783.46 65.72L770.41 65.72ZM784.72 51.63L784.72 51.63Q784.79 50.22 785.67 49.29Q786.55 48.36 787.99 48.32L787.99 48.32Q789.40 48.29 790.24 49.20Q791.09 50.11 791.02 51.48L791.02 51.48Q790.95 52.86 790.03 53.75Q789.12 54.65 787.75 54.68L787.75 54.68Q786.34 54.72 785.50 53.86Q784.65 53.00 784.72 51.63ZM823.54 52.22L827.79 52.22L826.07 61.96L839.78 61.96L839.14 65.41L825.50 65.41L821.50 89.38Q821.11 92.93 822.74 94.90Q824.38 96.87 827.96 96.98L827.96 96.98Q829.65 97.05 831.30 96.82Q832.96 96.59 834.61 96.31L834.61 96.31L834.93 99.54Q833.03 100.21 831.04 100.47Q829.05 100.74 827.05 100.67L827.05 100.67Q824.45 100.63 822.52 99.79Q820.58 98.95 819.33 97.47Q818.09 95.99 817.56 93.92Q817.03 91.84 817.24 89.31L817.24 89.31L821.21 65.41L810.95 65.41L811.58 61.96L821.81 61.96L823.54 52.22ZM877.96 100L873.63 100Q873.46 98.63 873.51 97.28Q873.56 95.92 873.77 94.52L873.77 94.52Q871.03 97.40 867.48 99.09Q863.93 100.77 859.85 100.70L859.85 100.70Q857.57 100.63 855.54 99.89Q853.52 99.16 852.03 97.80Q850.54 96.45 849.73 94.53Q848.92 92.62 849.06 90.19L849.06 90.19Q849.20 87.77 850.11 85.90Q851.03 84.04 852.47 82.67Q853.91 81.30 855.79 80.37Q857.67 79.43 859.75 78.89Q861.82 78.34 863.96 78.10Q866.11 77.85 868.15 77.85L868.15 77.85L876.34 77.89L876.97 73.53Q877.18 71.45 876.62 69.85Q876.06 68.25 874.90 67.15Q873.74 66.04 872.09 65.44Q870.43 64.84 868.46 64.77L868.46 64.77Q866.53 64.74 864.70 65.20Q862.88 65.65 861.36 66.62Q859.85 67.59 858.73 69.04Q857.60 70.50 857.11 72.44L857.11 72.44L853.00 72.44Q853.45 69.63 855 67.52Q856.55 65.41 858.73 64Q860.91 62.59 863.54 61.91Q866.18 61.22 868.85 61.26L868.85 61.26Q871.59 61.33 873.97 62.17Q876.34 63.02 878.03 64.60Q879.71 66.18 880.58 68.45Q881.44 70.71 881.16 73.63L881.16 73.63L878.10 92.05Q877.78 93.99 877.85 95.82Q877.92 97.64 877.99 99.54L877.99 99.54L877.96 100ZM860.48 96.98L860.48 96.98Q862.63 97.05 864.63 96.55Q866.64 96.06 868.41 95.08Q870.19 94.09 871.70 92.67Q873.21 91.25 874.37 89.49L874.37 89.49L875.81 81.12L868.68 81.09Q867.16 81.09 865.49 81.21Q863.82 81.33 862.17 81.68Q860.52 82.04 858.97 82.67Q857.43 83.30 856.21 84.27Q855 85.23 854.21 86.61Q853.42 87.98 853.24 89.84L853.24 89.84Q853.07 91.53 853.61 92.83Q854.16 94.13 855.16 95.04Q856.16 95.96 857.55 96.45Q858.94 96.94 860.48 96.98ZM899.96 49.76L900.63 46L917.89 46L909.18 96.27L921.69 96.27L921.02 100L891.25 100L891.91 96.27L904.99 96.27L913.04 49.76L899.96 49.76ZM939.45 65.72L940.11 61.96L957.34 61.96L951.36 96.27L963.95 96.27L963.28 100L933.50 100L934.17 96.27L947.18 96.27L952.49 65.72L939.45 65.72ZM953.75 51.63L953.75 51.63Q953.82 50.22 954.70 49.29Q955.58 48.36 957.02 48.32L957.02 48.32Q958.43 48.29 959.27 49.20Q960.12 50.11 960.05 51.48L960.05 51.48Q959.98 52.86 959.06 53.75Q958.15 54.65 956.78 54.68L956.78 54.68Q955.37 54.72 954.53 53.86Q953.68 53.00 953.75 51.63ZM990.35 97.15L990.35 97.15Q992.50 97.22 994.43 96.61Q996.36 95.99 997.95 94.83Q999.53 93.67 1000.67 92.02Q1001.81 90.37 1002.38 88.29L1002.38 88.29L1006.35 88.29Q1005.82 91.14 1004.29 93.46Q1002.76 95.78 1000.58 97.42Q998.40 99.05 995.70 99.91Q992.99 100.77 990.14 100.70L990.14 100.70Q987.54 100.63 985.46 99.86Q983.39 99.09 981.84 97.75Q980.30 96.41 979.26 94.62Q978.22 92.83 977.64 90.75Q977.06 88.68 976.90 86.39Q976.75 84.11 976.99 81.82L976.99 81.82L977.17 80.31Q977.48 77.85 978.26 75.46Q979.03 73.07 980.23 70.93Q981.42 68.78 983.04 66.97Q984.66 65.16 986.64 63.88Q988.63 62.59 990.98 61.89Q993.34 61.19 996.05 61.26L996.05 61.26Q998.96 61.33 1001.34 62.37Q1003.71 63.40 1005.38 65.21Q1007.05 67.02 1007.93 69.48Q1008.81 71.95 1008.70 74.83L1008.70 74.83L1004.70 74.79Q1004.80 72.72 1004.22 70.93Q1003.64 69.13 1002.50 67.80Q1001.36 66.46 999.67 65.67Q997.98 64.88 995.84 64.81L995.84 64.81Q992.60 64.70 990.07 66.06Q987.54 67.41 985.71 69.63Q983.88 71.84 982.78 74.65Q981.67 77.46 981.28 80.31L981.28 80.31L981.11 81.79Q980.79 84.36 981.04 87.04Q981.28 89.73 982.30 91.95Q983.32 94.16 985.27 95.61Q987.22 97.05 990.35 97.15Z"/></svg>