<svg xmlns="http://www.w3.org/2000/svg" viewBox="5.37890625 46 769.25390625 54.73828125"><path d="M32.13 100L22.39 80.03L13.82 80.03L13.82 100L5.38 100L5.38 48.81L21.55 48.81Q25.49 48.85 28.81 49.81Q32.13 50.78 34.56 52.70Q36.98 54.61 38.32 57.50Q39.66 60.38 39.66 64.25L39.66 64.25Q39.66 66.85 38.97 68.97Q38.29 71.10 37.05 72.82Q35.82 74.55 34.10 75.85Q32.38 77.15 30.30 78.06L30.30 78.06L41.13 99.58L41.13 100L32.13 100ZM13.82 55.63L13.82 73.21L21.59 73.21Q23.70 73.21 25.45 72.61Q27.21 72.02 28.49 70.91Q29.78 69.80 30.48 68.20Q31.18 66.60 31.18 64.53L31.18 64.53Q31.18 62.38 30.52 60.73Q29.85 59.08 28.60 57.95Q27.35 56.83 25.56 56.25Q23.77 55.67 21.55 55.63L21.55 55.63L13.82 55.63ZM47.11 81.37L47.11 80.63Q47.11 76.52 48.32 72.96Q49.54 69.41 51.80 66.81Q54.07 64.21 57.34 62.73Q60.61 61.26 64.76 61.26L64.76 61.26Q68.94 61.26 72.23 62.73Q75.52 64.21 77.78 66.81Q80.05 69.41 81.25 72.96Q82.44 76.52 82.44 80.63L82.44 80.63L82.44 81.37Q82.44 85.52 81.25 89.07Q80.05 92.62 77.78 95.20Q75.52 97.79 72.25 99.26Q68.98 100.74 64.83 100.74L64.83 100.74Q60.64 100.74 57.36 99.26Q54.07 97.79 51.80 95.20Q49.54 92.62 48.32 89.07Q47.11 85.52 47.11 81.37L47.11 81.37ZM55.51 80.63L55.51 81.37Q55.51 83.97 56.06 86.25Q56.60 88.54 57.74 90.28Q58.89 92.02 60.64 93.02Q62.40 94.02 64.83 94.02L64.83 94.02Q67.18 94.02 68.92 93.02Q70.66 92.02 71.81 90.28Q72.95 88.54 73.49 86.25Q74.04 83.97 74.04 81.37L74.04 81.37L74.04 80.63Q74.04 78.10 73.49 75.81Q72.95 73.53 71.81 71.80Q70.66 70.08 68.92 69.06Q67.18 68.04 64.76 68.04L64.76 68.04Q62.37 68.04 60.61 69.06Q58.85 70.08 57.73 71.80Q56.60 73.53 56.06 75.81Q55.51 78.10 55.51 80.63L55.51 80.63ZM125.30 80.66L125.30 81.40Q125.30 85.62 124.33 89.15Q123.36 92.69 121.46 95.25Q119.57 97.82 116.79 99.26Q114.01 100.70 110.39 100.70L110.39 100.70Q106.91 100.70 104.36 99.47Q101.81 98.24 99.98 95.92L99.98 95.92L99.60 100L91.97 100L91.97 46L100.37 46L100.37 65.58Q102.16 63.51 104.59 62.38Q107.02 61.26 110.32 61.26L110.32 61.26Q113.98 61.26 116.77 62.68Q119.57 64.11 121.46 66.67Q123.36 69.24 124.33 72.81Q125.30 76.38 125.30 80.66L125.30 80.66ZM116.89 81.40L116.89 80.66Q116.89 78.13 116.46 75.87Q116.02 73.60 115.01 71.88Q114.01 70.15 112.32 69.15Q110.64 68.15 108.18 68.15L108.18 68.15Q105.19 68.15 103.29 69.52Q101.39 70.89 100.37 73.11L100.37 73.11L100.37 88.82Q101.39 91.04 103.31 92.44Q105.22 93.85 108.25 93.85L108.25 93.85Q110.64 93.85 112.29 92.88Q113.94 91.91 114.96 90.23Q115.98 88.54 116.44 86.27Q116.89 84.00 116.89 81.40L116.89 81.40ZM133.52 81.37L133.52 80.63Q133.52 76.52 134.74 72.96Q135.95 69.41 138.22 66.81Q140.48 64.21 143.75 62.73Q147.02 61.26 151.17 61.26L151.17 61.26Q155.36 61.26 158.64 62.73Q161.93 64.21 164.20 66.81Q166.46 69.41 167.66 72.96Q168.86 76.52 168.86 80.63L168.86 80.63L168.86 81.37Q168.86 85.52 167.66 89.07Q166.46 92.62 164.20 95.20Q161.93 97.79 158.66 99.26Q155.39 100.74 151.24 100.74L151.24 100.74Q147.06 100.74 143.77 99.26Q140.48 97.79 138.22 95.20Q135.95 92.62 134.74 89.07Q133.52 85.52 133.52 81.37L133.52 81.37ZM141.93 80.63L141.93 81.37Q141.93 83.97 142.47 86.25Q143.02 88.54 144.16 90.28Q145.30 92.02 147.06 93.02Q148.82 94.02 151.24 94.02L151.24 94.02Q153.60 94.02 155.34 93.02Q157.08 92.02 158.22 90.28Q159.36 88.54 159.91 86.25Q160.45 83.97 160.45 81.37L160.45 81.37L160.45 80.63Q160.45 78.10 159.91 75.81Q159.36 73.53 158.22 71.80Q157.08 70.08 155.34 69.06Q153.60 68.04 151.17 68.04L151.17 68.04Q148.78 68.04 147.02 69.06Q145.27 70.08 144.14 71.80Q143.02 73.53 142.47 75.81Q141.93 78.10 141.93 80.63L141.93 80.63ZM186.71 52.75L195.12 52.75L195.12 61.96L209.50 61.96L209.50 68.22L195.12 68.22L195.12 86.46Q195.12 88.61 195.63 90.02Q196.14 91.42 197.05 92.27Q197.96 93.11 199.20 93.44Q200.43 93.78 201.90 93.78L201.90 93.78Q202.99 93.78 204.17 93.65Q205.35 93.53 206.46 93.37Q207.56 93.21 208.49 93.02Q209.43 92.83 210.06 92.65L210.06 92.65L211.01 98.45Q210.09 98.98 208.81 99.42Q207.53 99.86 206.02 100.14Q204.50 100.42 202.87 100.58Q201.23 100.74 199.65 100.74L199.65 100.74Q196.80 100.74 194.43 99.95Q192.06 99.16 190.35 97.49Q188.65 95.82 187.68 93.20Q186.71 90.58 186.71 86.92L186.71 86.92L186.71 68.22L177.43 68.22L177.43 61.96L186.71 61.96L186.71 52.75ZM219.94 81.37L219.94 80.63Q219.94 76.52 221.15 72.96Q222.36 69.41 224.63 66.81Q226.90 64.21 230.17 62.73Q233.44 61.26 237.59 61.26L237.59 61.26Q241.77 61.26 245.06 62.73Q248.34 64.21 250.61 66.81Q252.88 69.41 254.07 72.96Q255.27 76.52 255.27 80.63L255.27 80.63L255.27 81.37Q255.27 85.52 254.07 89.07Q252.88 92.62 250.61 95.20Q248.34 97.79 245.07 99.26Q241.80 100.74 237.66 100.74L237.66 100.74Q233.47 100.74 230.19 99.26Q226.90 97.79 224.63 95.20Q222.36 92.62 221.15 89.07Q219.94 85.52 219.94 81.37L219.94 81.37ZM228.34 80.63L228.34 81.37Q228.34 83.97 228.88 86.25Q229.43 88.54 230.57 90.28Q231.71 92.02 233.47 93.02Q235.23 94.02 237.66 94.02L237.66 94.02Q240.01 94.02 241.75 93.02Q243.49 92.02 244.63 90.28Q245.78 88.54 246.32 86.25Q246.87 83.97 246.87 81.37L246.87 81.37L246.87 80.63Q246.87 78.10 246.32 75.81Q245.78 73.53 244.63 71.80Q243.49 70.08 241.75 69.06Q240.01 68.04 237.59 68.04L237.59 68.04Q235.20 68.04 233.44 69.06Q231.68 70.08 230.55 71.80Q229.43 73.53 228.88 75.81Q228.34 78.10 228.34 80.63L228.34 80.63ZM307.20 48.81L317.67 48.81L324.04 70.93L331.07 48.81L341.54 48.81L341.54 100L333.60 100L333.60 82.42L334.09 59.99L326.21 84.53L321.79 84.53L314.65 60.84L315.14 82.42L315.14 100L307.20 100L307.20 48.81ZM349.56 81.37L349.56 80.63Q349.56 76.52 350.77 72.96Q351.98 69.41 354.25 66.81Q356.52 64.21 359.79 62.73Q363.06 61.26 367.21 61.26L367.21 61.26Q371.39 61.26 374.68 62.73Q377.96 64.21 380.23 66.81Q382.50 69.41 383.70 72.96Q384.89 76.52 384.89 80.63L384.89 80.63L384.89 81.37Q384.89 85.52 383.70 89.07Q382.50 92.62 380.23 95.20Q377.96 97.79 374.70 99.26Q371.43 100.74 367.28 100.74L367.28 100.74Q363.09 100.74 359.81 99.26Q356.52 97.79 354.25 95.20Q351.98 92.62 350.77 89.07Q349.56 85.52 349.56 81.37L349.56 81.37ZM357.96 80.63L357.96 81.37Q357.96 83.97 358.51 86.25Q359.05 88.54 360.19 90.28Q361.34 92.02 363.09 93.02Q364.85 94.02 367.28 94.02L367.28 94.02Q369.63 94.02 371.37 93.02Q373.11 92.02 374.26 90.28Q375.40 88.54 375.94 86.25Q376.49 83.97 376.49 81.37L376.49 81.37L376.49 80.63Q376.49 78.10 375.94 75.81Q375.40 73.53 374.26 71.80Q373.11 70.08 371.37 69.06Q369.63 68.04 367.21 68.04L367.21 68.04Q364.82 68.04 363.06 69.06Q361.30 70.08 360.18 71.80Q359.05 73.53 358.51 75.81Q357.96 78.10 357.96 80.63L357.96 80.63ZM394.31 61.96L401.91 61.96L402.43 67.23Q404.51 64.39 407.44 62.82Q410.38 61.26 413.96 61.26L413.96 61.26Q416.88 61.26 419.29 62.10Q421.70 62.95 423.44 64.74Q425.18 66.53 426.15 69.38Q427.11 72.23 427.11 76.23L427.11 76.23L427.11 100L418.71 100L418.71 76.38Q418.71 74.02 418.17 72.44Q417.62 70.86 416.62 69.91Q415.62 68.96 414.18 68.55Q412.73 68.15 410.91 68.15L410.91 68.15Q408.13 68.15 406.07 69.38Q404.02 70.61 402.75 72.72L402.75 72.72L402.75 100L394.31 100L394.31 61.96ZM435.97 81.37L435.97 80.63Q435.97 76.52 437.19 72.96Q438.40 69.41 440.67 66.81Q442.93 64.21 446.20 62.73Q449.47 61.26 453.62 61.26L453.62 61.26Q457.80 61.26 461.09 62.73Q464.38 64.21 466.65 66.81Q468.91 69.41 470.11 72.96Q471.30 76.52 471.30 80.63L471.30 80.63L471.30 81.37Q471.30 85.52 470.11 89.07Q468.91 92.62 466.65 95.20Q464.38 97.79 461.11 99.26Q457.84 100.74 453.69 100.74L453.69 100.74Q449.51 100.74 446.22 99.26Q442.93 97.79 440.67 95.20Q438.40 92.62 437.19 89.07Q435.97 85.52 435.97 81.37L435.97 81.37ZM444.38 80.63L444.38 81.37Q444.38 83.97 444.92 86.25Q445.46 88.54 446.61 90.28Q447.75 92.02 449.51 93.02Q451.27 94.02 453.69 94.02L453.69 94.02Q456.05 94.02 457.79 93.02Q459.53 92.02 460.67 90.28Q461.81 88.54 462.36 86.25Q462.90 83.97 462.90 81.37L462.90 81.37L462.90 80.63Q462.90 78.10 462.36 75.81Q461.81 73.53 460.67 71.80Q459.53 70.08 457.79 69.06Q456.05 68.04 453.62 68.04L453.62 68.04Q451.23 68.04 449.47 69.06Q447.71 70.08 446.59 71.80Q445.46 73.53 444.92 75.81Q444.38 78.10 444.38 80.63L444.38 80.63ZM521.44 61.96L528.79 61.96L529.00 65.97Q530.12 63.75 532.02 62.51Q533.92 61.26 536.59 61.26L536.59 61.26Q539.02 61.26 540.62 62.22Q542.21 63.19 543.02 65.23L543.02 65.23Q544.15 63.40 545.91 62.33Q547.66 61.26 550.16 61.26L550.16 61.26Q552.02 61.26 553.59 61.87Q555.15 62.49 556.26 63.82Q557.37 65.16 557.98 67.23Q558.60 69.31 558.60 72.23L558.60 72.23L558.60 100L550.79 100L550.79 72.16Q550.79 69.87 549.83 69.01Q548.86 68.15 547.35 68.15L547.35 68.15Q545.91 68.15 545.06 68.83Q544.22 69.52 543.83 70.64L543.83 70.64L543.83 100L536.20 100L536.20 72.16Q536.20 69.94 535.31 69.04Q534.41 68.15 532.86 68.15L532.86 68.15Q531.39 68.15 530.54 68.78Q529.70 69.41 529.24 70.50L529.24 70.50L529.24 100L521.44 100L521.44 61.96ZM584.86 100.70L584.86 100.70Q580.64 100.70 577.16 99.30Q573.68 97.89 571.20 95.43Q568.72 92.97 567.35 89.61Q565.98 86.25 565.98 82.35L565.98 82.35L565.98 80.91Q565.98 76.38 567.44 72.75Q568.90 69.13 571.34 66.57Q573.79 64 577.04 62.63Q580.29 61.26 583.88 61.26L583.88 61.26Q588.02 61.26 591.19 62.65Q594.35 64.04 596.48 66.55Q598.61 69.06 599.70 72.51Q600.79 75.95 600.79 80.07L600.79 80.07L600.79 83.62L574.42 83.62Q574.63 85.83 575.51 87.73Q576.39 89.63 577.81 91.02Q579.23 92.41 581.15 93.20Q583.07 93.99 585.35 93.99L585.35 93.99Q588.55 93.99 591.24 92.72Q593.93 91.46 595.62 89.24L595.62 89.24L600.19 93.53Q599.27 94.90 597.83 96.19Q596.39 97.47 594.46 98.47Q592.52 99.47 590.12 100.09Q587.71 100.70 584.86 100.70ZM583.84 68.04L583.84 68.04Q582.08 68.04 580.57 68.68Q579.06 69.31 577.86 70.52Q576.67 71.73 575.84 73.47Q575.02 75.21 574.66 77.43L574.66 77.43L592.49 77.43L592.49 76.80Q592.38 75.11 591.84 73.54Q591.29 71.98 590.24 70.75Q589.18 69.52 587.58 68.78Q585.98 68.04 583.84 68.04ZM609.22 81.44L609.22 80.70Q609.22 76.38 610.28 72.79Q611.33 69.20 613.30 66.64Q615.27 64.07 618.06 62.66Q620.86 61.26 624.34 61.26L624.34 61.26Q627.47 61.26 629.86 62.33Q632.25 63.40 634.04 65.41L634.04 65.41L634.04 46L642.48 46L642.48 100L634.85 100L634.43 96.13Q632.64 98.35 630.12 99.53Q627.61 100.70 624.27 100.70L624.27 100.70Q620.82 100.70 618.05 99.24Q615.27 97.79 613.32 95.22Q611.37 92.65 610.29 89.12Q609.22 85.59 609.22 81.44L609.22 81.44ZM617.63 80.70L617.63 81.44Q617.63 84.00 618.12 86.25Q618.61 88.50 619.68 90.19Q620.75 91.88 622.42 92.85Q624.09 93.81 626.41 93.81L626.41 93.81Q629.30 93.81 631.13 92.56Q632.95 91.32 634.04 89.21L634.04 89.21L634.04 72.68Q632.95 70.61 631.11 69.38Q629.26 68.15 626.48 68.15L626.48 68.15Q624.13 68.15 622.46 69.13Q620.79 70.12 619.72 71.84Q618.64 73.56 618.13 75.85Q617.63 78.13 617.63 80.70L617.63 80.70ZM655.38 68.96L655.38 61.96L675.67 61.96L675.67 93.04L686.95 93.04L686.95 100L655.38 100L655.38 93.04L667.20 93.04L667.20 68.96L655.38 68.96ZM666.49 52.12L666.49 52.12Q666.49 50.15 667.76 48.87Q669.02 47.58 671.31 47.58L671.31 47.58Q673.63 47.58 674.91 48.87Q676.20 50.15 676.20 52.12L676.20 52.12Q676.20 54.09 674.91 55.37Q673.63 56.65 671.31 56.65L671.31 56.65Q669.02 56.65 667.76 55.37Q666.49 54.09 666.49 52.12ZM721.65 100L721.16 94.80Q719.23 97.61 716.47 99.17Q713.71 100.74 710.30 100.74L710.30 100.74Q707.34 100.74 704.90 99.82Q702.46 98.91 700.72 96.92Q698.98 94.94 698.01 91.86Q697.04 88.79 697.04 84.46L697.04 84.46L697.04 61.96L705.45 61.96L705.45 84.53Q705.45 87.27 705.85 89.07Q706.25 90.86 707.10 91.91Q707.94 92.97 709.21 93.41Q710.47 93.85 712.23 93.85L712.23 93.85Q715.61 93.85 717.68 92.53Q719.75 91.21 720.81 88.96L720.81 88.96L720.81 61.96L729.25 61.96L729.25 100L721.65 100ZM737.47 61.96L744.82 61.96L745.03 65.97Q746.16 63.75 748.05 62.51Q749.95 61.26 752.63 61.26L752.63 61.26Q755.05 61.26 756.65 62.22Q758.25 63.19 759.06 65.23L759.06 65.23Q760.18 63.40 761.94 62.33Q763.70 61.26 766.20 61.26L766.20 61.26Q768.06 61.26 769.62 61.87Q771.19 62.49 772.29 63.82Q773.40 65.16 774.02 67.23Q774.63 69.31 774.63 72.23L774.63 72.23L774.63 100L766.83 100L766.83 72.16Q766.83 69.87 765.86 69.01Q764.89 68.15 763.38 68.15L763.38 68.15Q761.94 68.15 761.10 68.83Q760.25 69.52 759.87 70.64L759.87 70.64L759.87 100L752.24 100L752.24 72.16Q752.24 69.94 751.34 69.04Q750.45 68.15 748.90 68.15L748.90 68.15Q747.42 68.15 746.58 68.78Q745.73 69.41 745.28 70.50L745.28 70.50L745.28 100L737.47 100L737.47 61.96Z"/></svg>