<svg xmlns="http://www.w3.org/2000/svg" viewBox="5.51953125 46 745.03125 68.9765625"><path d="M30.09 100L20.99 79.29L11.99 79.29L11.99 100L5.52 100L5.52 48.81L19.86 48.81Q27.39 48.81 31.25 52.73Q35.12 56.65 35.12 64.21L35.12 64.21Q35.12 68.96 33.03 72.49Q30.94 76.02 27.11 77.82L27.11 77.82L37.02 99.58L37.02 100L30.09 100ZM11.99 54.37L11.99 73.77L19.79 73.77Q23.84 73.77 26.24 71.17Q28.65 68.57 28.65 64.21L28.65 64.21Q28.65 54.37 19.72 54.37L19.72 54.37L11.99 54.37ZM41.55 83.37L41.55 79.22Q41.55 70.93 45.58 66.09Q49.61 61.26 56.21 61.26Q62.82 61.26 66.85 65.97Q70.88 70.68 70.98 78.80L70.98 78.80L70.98 82.81Q70.98 91.07 66.97 95.89Q62.96 100.70 56.29 100.70L56.29 100.70Q49.68 100.70 45.69 96.03Q41.70 91.35 41.55 83.37L41.55 83.37ZM47.78 79.19L47.78 82.81Q47.78 88.68 50.08 92.04Q52.38 95.39 56.29 95.39L56.29 95.39Q64.51 95.39 64.76 83.51L64.76 83.51L64.76 79.22Q64.76 73.39 62.44 69.99Q60.12 66.60 56.21 66.60L56.21 66.60Q52.38 66.60 50.08 69.99Q47.78 73.39 47.78 79.19L47.78 79.19ZM106.56 79.05L106.56 82.81Q106.56 91.70 103.36 96.20Q100.16 100.70 94.08 100.70L94.08 100.70Q88.03 100.70 85.01 95.50L85.01 95.50L84.69 100L79.03 100L79.03 46L85.22 46L85.22 66.14Q88.28 61.26 94.01 61.26L94.01 61.26Q100.27 61.26 103.39 65.69Q106.52 70.12 106.56 79.05L106.56 79.05ZM100.37 83.09L100.37 79.26Q100.37 72.51 98.49 69.64Q96.61 66.78 92.39 66.78L92.39 66.78Q87.57 66.78 85.22 71.98L85.22 71.98L85.22 90.09Q87.54 95.22 92.46 95.22L92.46 95.22Q96.68 95.22 98.51 92.27Q100.34 89.31 100.37 83.09L100.37 83.09ZM113.20 83.37L113.20 79.22Q113.20 70.93 117.23 66.09Q121.25 61.26 127.86 61.26Q134.47 61.26 138.50 65.97Q142.52 70.68 142.63 78.80L142.63 78.80L142.63 82.81Q142.63 91.07 138.62 95.89Q134.61 100.70 127.93 100.70L127.93 100.70Q121.32 100.70 117.33 96.03Q113.34 91.35 113.20 83.37L113.20 83.37ZM119.43 79.19L119.43 82.81Q119.43 88.68 121.73 92.04Q124.03 95.39 127.93 95.39L127.93 95.39Q136.16 95.39 136.41 83.51L136.41 83.51L136.41 79.22Q136.41 73.39 134.09 69.99Q131.77 66.60 127.86 66.60L127.86 66.60Q124.03 66.60 121.73 69.99Q119.43 73.39 119.43 79.19L119.43 79.19ZM152.61 52.75L158.80 52.75L158.80 61.96L164.53 61.96L164.53 66.99L158.80 66.99L158.80 90.58Q158.80 92.83 159.54 93.99Q160.28 95.15 162.07 95.15L162.07 95.15Q163.30 95.15 164.57 94.73L164.57 94.73L164.50 100Q162.39 100.70 160.17 100.70L160.17 100.70Q156.48 100.70 154.55 98.07Q152.61 95.43 152.61 90.61L152.61 90.61L152.61 66.99L146.81 66.99L146.81 61.96L152.61 61.96L152.61 52.75ZM169.91 83.37L169.91 79.22Q169.91 70.93 173.94 66.09Q177.96 61.26 184.57 61.26Q191.18 61.26 195.21 65.97Q199.23 70.68 199.34 78.80L199.34 78.80L199.34 82.81Q199.34 91.07 195.33 95.89Q191.32 100.70 184.64 100.70L184.64 100.70Q178.03 100.70 174.04 96.03Q170.05 91.35 169.91 83.37L169.91 83.37ZM176.13 79.19L176.13 82.81Q176.13 88.68 178.44 92.04Q180.74 95.39 184.64 95.39L184.64 95.39Q192.87 95.39 193.11 83.51L193.11 83.51L193.11 79.22Q193.11 73.39 190.79 69.99Q188.47 66.60 184.57 66.60L184.57 66.60Q180.74 66.60 178.44 69.99Q176.13 73.39 176.13 79.19L176.13 79.19ZM250.31 83.76L256.82 83.76Q256.39 91.98 252.19 96.34Q247.99 100.70 240.33 100.70L240.33 100.70Q232.63 100.70 228.09 94.85Q223.56 89.00 223.56 78.98L223.56 78.98L223.56 69.70Q223.56 59.71 228.22 53.91Q232.88 48.11 240.93 48.11L240.93 48.11Q248.34 48.11 252.40 52.56Q256.46 57.00 256.82 65.27L256.82 65.27L250.31 65.27Q249.89 59.01 247.68 56.34Q245.46 53.66 240.93 53.66L240.93 53.66Q235.69 53.66 232.88 57.76Q230.06 61.86 230.06 69.77L230.06 69.77L230.06 79.15Q230.06 86.92 232.68 91.07Q235.30 95.22 240.33 95.22Q245.36 95.22 247.57 92.72Q249.79 90.23 250.31 83.76L250.31 83.76ZM263.36 83.37L263.36 79.22Q263.36 70.93 267.38 66.09Q271.41 61.26 278.02 61.26Q284.63 61.26 288.65 65.97Q292.68 70.68 292.78 78.80L292.78 78.80L292.78 82.81Q292.78 91.07 288.77 95.89Q284.77 100.70 278.09 100.70L278.09 100.70Q271.48 100.70 267.49 96.03Q263.50 91.35 263.36 83.37L263.36 83.37ZM269.58 79.19L269.58 82.81Q269.58 88.68 271.88 92.04Q274.18 95.39 278.09 95.39L278.09 95.39Q286.31 95.39 286.56 83.51L286.56 83.51L286.56 79.22Q286.56 73.39 284.24 69.99Q281.92 66.60 278.02 66.60L278.02 66.60Q274.18 66.60 271.88 69.99Q269.58 73.39 269.58 79.19L269.58 79.19ZM300.80 61.96L306.67 61.96L306.84 66.07Q310.46 61.26 316.09 61.26L316.09 61.26Q326.18 61.26 326.32 74.72L326.32 74.72L326.32 100L320.13 100L320.13 75.00Q320.13 70.54 318.64 68.66Q317.14 66.78 314.16 66.78L314.16 66.78Q311.84 66.78 309.99 68.32Q308.14 69.87 307.02 72.37L307.02 72.37L307.02 100L300.80 100L300.80 61.96ZM334.34 83.16L334.34 79.26Q334.34 70.47 337.62 65.86Q340.91 61.26 347.06 61.26L347.06 61.26Q352.51 61.26 355.57 65.69L355.57 65.69L355.57 46L361.79 46L361.79 100L356.10 100L355.78 95.92Q352.72 100.70 347.03 100.70L347.03 100.70Q341.12 100.70 337.76 96.12Q334.41 91.53 334.34 83.16L334.34 83.16ZM340.56 79.01L340.56 82.81Q340.56 89.21 342.46 92.21Q344.36 95.22 348.64 95.22L348.64 95.22Q353.29 95.22 355.57 90.54L355.57 90.54L355.57 71.35Q353.18 66.78 348.68 66.78L348.68 66.78Q344.39 66.78 342.49 69.78Q340.59 72.79 340.56 79.01L340.56 79.01ZM384.96 100.70L384.96 100.70Q377.86 100.70 374.06 96.47Q370.27 92.23 370.20 84.04L370.20 84.04L370.20 79.43Q370.20 70.93 373.90 66.09Q377.61 61.26 384.26 61.26L384.26 61.26Q390.94 61.26 394.24 65.51Q397.55 69.77 397.62 78.77L397.62 78.77L397.62 82.84L376.38 82.84L376.38 83.72Q376.38 89.84 378.69 92.62Q380.99 95.39 385.31 95.39L385.31 95.39Q388.05 95.39 390.15 94.36Q392.24 93.32 394.07 91.07L394.07 91.07L397.30 95.01Q393.26 100.70 384.96 100.70ZM384.26 66.60L384.26 66.60Q380.39 66.60 378.53 69.26Q376.66 71.91 376.42 77.50L376.42 77.50L391.39 77.50L391.39 76.66Q391.15 71.24 389.44 68.92Q387.74 66.60 384.26 66.60ZM405.07 61.96L410.94 61.96L411.12 66.07Q414.74 61.26 420.36 61.26L420.36 61.26Q430.45 61.26 430.59 74.72L430.59 74.72L430.59 100L424.41 100L424.41 75.00Q424.41 70.54 422.91 68.66Q421.42 66.78 418.43 66.78L418.43 66.78Q416.11 66.78 414.26 68.32Q412.42 69.87 411.29 72.37L411.29 72.37L411.29 100L405.07 100L405.07 61.96ZM458.40 90.26L458.40 90.26Q458.40 88.26 456.89 86.82Q455.38 85.38 451.05 83.44L451.05 83.44Q446.03 81.37 443.97 79.89Q441.91 78.41 440.89 76.53Q439.88 74.65 439.88 72.05L439.88 72.05Q439.88 67.41 443.27 64.33Q446.66 61.26 451.93 61.26L451.93 61.26Q457.49 61.26 460.86 64.49Q464.24 67.73 464.24 72.79L464.24 72.79L458.05 72.79Q458.05 70.22 456.33 68.41Q454.61 66.60 451.93 66.60L451.93 66.60Q449.19 66.60 447.63 68.03Q446.06 69.45 446.06 71.84L446.06 71.84Q446.06 73.74 447.21 74.90Q448.35 76.06 452.71 77.96L452.71 77.96Q459.63 80.66 462.13 83.25Q464.63 85.83 464.63 89.80L464.63 89.80Q464.63 94.76 461.21 97.73Q457.80 100.70 452.07 100.70L452.07 100.70Q446.13 100.70 442.44 97.29Q438.75 93.88 438.75 88.64L438.75 88.64L445.01 88.64Q445.11 91.81 446.94 93.60Q448.77 95.39 452.07 95.39L452.07 95.39Q455.17 95.39 456.79 94.01Q458.40 92.62 458.40 90.26ZM486.32 100.70L486.32 100.70Q479.21 100.70 475.42 96.47Q471.62 92.23 471.55 84.04L471.55 84.04L471.55 79.43Q471.55 70.93 475.26 66.09Q478.97 61.26 485.61 61.26L485.61 61.26Q492.29 61.26 495.60 65.51Q498.90 69.77 498.97 78.77L498.97 78.77L498.97 82.84L477.74 82.84L477.74 83.72Q477.74 89.84 480.04 92.62Q482.34 95.39 486.67 95.39L486.67 95.39Q489.41 95.39 491.50 94.36Q493.59 93.32 495.42 91.07L495.42 91.07L498.66 95.01Q494.61 100.70 486.32 100.70ZM485.61 66.60L485.61 66.60Q481.75 66.60 479.88 69.26Q478.02 71.91 477.77 77.50L477.77 77.50L492.75 77.50L492.75 76.66Q492.50 71.24 490.80 68.92Q489.09 66.60 485.61 66.60ZM505.13 83.16L505.13 79.26Q505.13 70.47 508.41 65.86Q511.70 61.26 517.85 61.26L517.85 61.26Q523.30 61.26 526.36 65.69L526.36 65.69L526.36 46L532.58 46L532.58 100L526.89 100L526.57 95.92Q523.51 100.70 517.82 100.70L517.82 100.70Q511.91 100.70 508.55 96.12Q505.20 91.53 505.13 83.16L505.13 83.16ZM511.35 79.01L511.35 82.81Q511.35 89.21 513.25 92.21Q515.14 95.22 519.43 95.22L519.43 95.22Q524.07 95.22 526.36 90.54L526.36 90.54L526.36 71.35Q523.97 66.78 519.47 66.78L519.47 66.78Q515.18 66.78 513.28 69.78Q511.38 72.79 511.35 79.01L511.35 79.01ZM574.31 61.75L574.35 67.80Q573.05 67.55 571.54 67.55L571.54 67.55Q566.75 67.55 564.86 72.79L564.86 72.79L564.86 100L558.63 100L558.63 61.96L564.68 61.96L564.79 65.83Q567.28 61.26 571.85 61.26L571.85 61.26Q573.33 61.26 574.31 61.75L574.31 61.75ZM593.47 100.70L593.47 100.70Q586.37 100.70 582.57 96.47Q578.78 92.23 578.71 84.04L578.71 84.04L578.71 79.43Q578.71 70.93 582.42 66.09Q586.13 61.26 592.77 61.26L592.77 61.26Q599.45 61.26 602.75 65.51Q606.06 69.77 606.13 78.77L606.13 78.77L606.13 82.84L584.89 82.84L584.89 83.72Q584.89 89.84 587.20 92.62Q589.50 95.39 593.82 95.39L593.82 95.39Q596.57 95.39 598.66 94.36Q600.75 93.32 602.58 91.07L602.58 91.07L605.81 95.01Q601.77 100.70 593.47 100.70ZM592.77 66.60L592.77 66.60Q588.90 66.60 587.04 69.26Q585.18 71.91 584.93 77.50L584.93 77.50L599.91 77.50L599.91 76.66Q599.66 71.24 597.96 68.92Q596.25 66.60 592.77 66.60ZM612.35 83.48L612.35 79.26Q612.35 70.36 615.59 65.81Q618.82 61.26 625.04 61.26L625.04 61.26Q630.84 61.26 633.87 66.21L633.87 66.21L634.18 61.96L639.81 61.96L639.81 100.35Q639.81 107.42 636.19 111.20Q632.57 114.98 626.10 114.98L626.10 114.98Q623.29 114.98 619.79 113.59Q616.29 112.20 614.53 110.16L614.53 110.16L617.06 105.87Q620.93 109.67 625.61 109.67L625.61 109.67Q633.38 109.67 633.59 101.20L633.59 101.20L633.59 96.24Q630.56 100.70 625.01 100.70L625.01 100.70Q619.10 100.70 615.80 96.26Q612.49 91.81 612.35 83.48L612.35 83.48ZM618.57 79.01L618.57 82.81Q618.57 89.21 620.46 92.21Q622.34 95.22 626.63 95.22L626.63 95.22Q631.27 95.22 633.59 90.47L633.59 90.47L633.59 71.45Q631.16 66.78 626.70 66.78L626.70 66.78Q622.41 66.78 620.51 69.78Q618.61 72.79 618.57 79.01L618.57 79.01ZM668.60 100L668.46 96.66Q665.37 100.70 659.43 100.70L659.43 100.70Q654.26 100.70 651.62 97.13Q648.98 93.57 648.95 86.75L648.95 86.75L648.95 61.96L655.14 61.96L655.14 86.29Q655.14 95.18 660.48 95.18L660.48 95.18Q666.14 95.18 668.29 90.12L668.29 90.12L668.29 61.96L674.51 61.96L674.51 100L668.60 100ZM690.57 46L690.57 100L684.35 100L684.35 46L690.57 46ZM726.40 100L719.93 100Q719.37 98.77 719.12 95.85L719.12 95.85Q715.82 100.70 710.68 100.70L710.68 100.70Q705.52 100.70 702.62 97.80Q699.71 94.90 699.71 89.63L699.71 89.63Q699.71 83.83 703.65 80.42Q707.59 77.01 714.45 76.94L714.45 76.94L719.02 76.94L719.02 72.89Q719.02 69.48 717.50 68.04Q715.99 66.60 712.90 66.60L712.90 66.60Q710.09 66.60 708.33 68.27Q706.57 69.94 706.57 72.51L706.57 72.51L700.35 72.51Q700.35 69.59 702.07 66.94Q703.79 64.28 706.71 62.77Q709.63 61.26 713.21 61.26L713.21 61.26Q719.05 61.26 722.09 64.16Q725.13 67.06 725.20 72.61L725.20 72.61L725.20 91.81Q725.24 96.20 726.40 99.44L726.40 99.44L726.40 100ZM711.63 95.04L711.63 95.04Q713.92 95.04 715.99 93.78Q718.07 92.51 719.02 90.61L719.02 90.61L719.02 81.54L715.50 81.54Q711.07 81.61 708.50 83.53Q705.94 85.45 705.94 88.89L705.94 88.89Q705.94 92.13 707.24 93.58Q708.54 95.04 711.63 95.04ZM750.52 61.75L750.55 67.80Q749.25 67.55 747.74 67.55L747.74 67.55Q742.96 67.55 741.06 72.79L741.06 72.79L741.06 100L734.84 100L734.84 61.96L740.88 61.96L740.99 65.83Q743.48 61.26 748.05 61.26L748.05 61.26Q749.53 61.26 750.52 61.75L750.52 61.75Z"/></svg>