<svg xmlns="http://www.w3.org/2000/svg" viewBox="3.8160000000000003 58.74399999999999 520.7760000000001 54.576000000000015"><path d="M3.82 100L3.82 97.70L9.79 97.70L9.79 61.77L3.82 61.77L3.82 59.46L25.63 59.46Q31.61 59.46 34.74 62.49Q37.87 65.51 37.87 70.19L37.87 70.19Q37.87 74.73 35.06 77.68Q32.26 80.63 25.99 80.92L25.99 80.92L36.36 97.70L42.34 97.70L42.34 100L34.13 100L22.61 81.21L15.62 81.21L15.62 78.83L24.05 78.83Q29.88 78.83 32.22 76.31Q34.56 73.79 34.56 70.19L34.56 70.19Q34.56 66.66 32.44 64.22Q30.31 61.77 25.78 61.77L25.78 61.77L13.18 61.77L13.18 97.70L19.15 97.70L19.15 100L3.82 100ZM62.28 100.86Q57.89 100.86 54.47 98.96Q51.05 97.05 49.10 93.59Q47.16 90.14 47.16 85.74L47.16 85.74Q47.16 81.42 49.10 78.04Q51.05 74.66 54.47 72.78Q57.89 70.91 62.28 70.91L62.28 70.91Q66.74 70.91 70.24 72.78Q73.73 74.66 75.67 78.00Q77.62 81.35 77.62 85.67L77.62 85.67Q77.62 90.14 75.67 93.59Q73.73 97.05 70.24 98.96Q66.74 100.86 62.28 100.86L62.28 100.86ZM62.28 98.42Q67.68 98.42 71.06 94.89Q74.45 91.36 74.45 85.67L74.45 85.67Q74.45 80.20 71.06 76.78Q67.68 73.36 62.28 73.36L62.28 73.36Q57.02 73.36 53.71 76.78Q50.40 80.20 50.40 85.74L50.40 85.74Q50.40 91.36 53.71 94.89Q57.02 98.42 62.28 98.42L62.28 98.42ZM95.11 100L81.72 100L81.72 97.70L86.98 97.70L86.98 61.05L81.94 61.05L81.94 58.74L90.14 58.74L90.14 85.02L104.47 74.01L98.93 74.01L98.93 71.70L112.90 71.70L112.90 74.01L108 74.01L93.60 85.24L106.99 97.70L113.11 97.70L113.11 100L105.48 100L90.14 85.53L90.14 97.70L95.11 97.70L95.11 100ZM130.03 100L116.64 100L116.64 97.70L121.90 97.70L121.90 61.05L116.86 61.05L116.86 58.74L125.06 58.74L125.06 85.02L139.39 74.01L133.85 74.01L133.85 71.70L147.82 71.70L147.82 74.01L142.92 74.01L128.52 85.24L141.91 97.70L148.03 97.70L148.03 100L140.40 100L125.06 85.53L125.06 97.70L130.03 97.70L130.03 100ZM157.82 64.72Q156.67 64.72 155.95 64.04Q155.23 63.35 155.23 62.34L155.23 62.34Q155.23 61.34 155.95 60.65Q156.67 59.97 157.82 59.97L157.82 59.97Q158.90 59.97 159.62 60.65Q160.34 61.34 160.34 62.34L160.34 62.34Q160.34 63.35 159.62 64.04Q158.90 64.72 157.82 64.72L157.82 64.72ZM165.82 100L150.84 100L150.84 97.70L156.82 97.70L156.82 74.01L150.91 74.01L150.91 71.70L159.91 71.70L159.91 97.70L165.82 97.70L165.82 100ZM182.38 100Q178.27 100 176.04 98.16Q173.81 96.33 173.81 92.08L173.81 92.08L173.81 74.01L168.70 74.01L168.70 71.70L173.81 71.70L173.81 61.98L176.98 60.83L176.98 71.70L184.97 71.70L184.97 74.01L176.98 74.01L176.98 91.86Q176.98 95.10 178.31 96.40Q179.64 97.70 182.81 97.70L182.81 97.70L186.12 97.70L186.12 100L182.38 100ZM203.11 100Q199.01 100 196.78 98.16Q194.54 96.33 194.54 92.08L194.54 92.08L194.54 74.01L189.43 74.01L189.43 71.70L194.54 71.70L194.54 61.98L197.71 60.83L197.71 71.70L205.70 71.70L205.70 74.01L197.71 74.01L197.71 91.86Q197.71 95.10 199.04 96.40Q200.38 97.70 203.54 97.70L203.54 97.70L206.86 97.70L206.86 100L203.11 100ZM259.42 85.82L259.42 86.61L234.22 86.61Q234.58 91.86 237.92 95.10Q241.27 98.34 246.24 98.34L246.24 98.34Q249.48 98.34 252.61 96.94Q255.74 95.54 257.69 93.30L257.69 93.30L258.77 95.46Q256.32 97.98 253.08 99.39Q249.84 100.79 246.24 100.79L246.24 100.79Q242.14 100.79 238.64 98.96Q235.15 97.12 233.06 93.70Q230.98 90.28 230.98 85.82L230.98 85.82Q230.98 81.21 232.99 77.82Q235.01 74.44 238.36 72.68Q241.70 70.91 245.59 70.91L245.59 70.91Q251.71 70.91 255.56 74.80Q259.42 78.69 259.42 85.82L259.42 85.82ZM234.22 84.45L256.39 84.45Q256.39 79.12 253.26 76.17Q250.13 73.22 245.59 73.22L245.59 73.22Q240.98 73.22 237.78 76.28Q234.58 79.34 234.22 84.45L234.22 84.45ZM276.77 100L263.66 100L263.66 97.70L268.56 97.70L279.07 85.46L269.28 74.01L264.31 74.01L264.31 71.70L277.70 71.70L277.70 74.01L272.45 74.01L280.80 83.87L289.01 74.01L283.82 74.01L283.82 71.70L297.50 71.70L297.50 74.01L291.96 74.01L282.38 85.46L292.82 97.70L297.79 97.70L297.79 100L283.97 100L283.97 97.70L289.73 97.70L280.58 87.04L271.66 97.70L276.77 97.70L276.77 100ZM314.42 100Q310.32 100 308.09 98.16Q305.86 96.33 305.86 92.08L305.86 92.08L305.86 74.01L300.74 74.01L300.74 71.70L305.86 71.70L305.86 61.98L309.02 60.83L309.02 71.70L317.02 71.70L317.02 74.01L309.02 74.01L309.02 91.86Q309.02 95.10 310.36 96.40Q311.69 97.70 314.86 97.70L314.86 97.70L318.17 97.70L318.17 100L314.42 100ZM339.91 71.13Q342.65 71.13 345.31 72.57L345.31 72.57L344.59 75.23Q342.14 73.79 339.84 73.79L339.84 73.79Q336.89 73.79 334.80 76.60Q332.71 79.41 332.71 84.09L332.71 84.09L332.64 97.70L338.33 97.70L338.33 100L323.50 100L323.50 97.70L329.54 97.70L329.54 74.01L323.64 74.01L323.64 71.70L332.64 71.70L332.64 77.32Q333.79 74.08 335.70 72.60Q337.61 71.13 339.91 71.13L339.91 71.13ZM372.74 97.70L377.14 97.70L377.14 100L370.22 100L369.79 97.19Q364.18 100.79 359.21 100.79L359.21 100.79Q354.89 100.79 352.26 98.42Q349.63 96.04 349.63 92.37L349.63 92.37Q349.63 87.90 352.51 85.89Q355.39 83.87 360 83.87L360 83.87Q363.31 83.87 369.65 85.02L369.65 85.02L369.65 81.21Q369.65 77.32 367.56 75.34Q365.47 73.36 361.87 73.36L361.87 73.36Q359.64 73.36 357.05 74.01Q354.46 74.66 352.08 75.74L352.08 75.74L351.14 73.58Q353.74 72.28 356.58 71.63Q359.42 70.98 361.80 70.98L361.80 70.98Q367.42 70.98 370.08 73.76Q372.74 76.53 372.74 80.63L372.74 80.63L372.74 97.70ZM352.58 92.30Q352.58 94.96 354.42 96.76Q356.26 98.56 359.50 98.56L359.50 98.56Q361.87 98.56 364.21 97.73Q366.55 96.90 369.65 95.03L369.65 95.03L369.65 87.04Q364.61 85.89 360.14 85.89L360.14 85.89Q356.83 85.89 354.71 87.44Q352.58 88.98 352.58 92.30L352.58 92.30ZM414.58 100L401.18 100L401.18 97.70L406.44 97.70L406.44 61.05L401.33 61.05L401.33 58.74L409.54 58.74L409.54 97.70L414.58 97.70L414.58 100ZM424.51 64.72Q423.36 64.72 422.64 64.04Q421.92 63.35 421.92 62.34L421.92 62.34Q421.92 61.34 422.64 60.65Q423.36 59.97 424.51 59.97L424.51 59.97Q425.59 59.97 426.31 60.65Q427.03 61.34 427.03 62.34L427.03 62.34Q427.03 63.35 426.31 64.04Q425.59 64.72 424.51 64.72L424.51 64.72ZM432.50 100L417.53 100L417.53 97.70L423.50 97.70L423.50 74.01L417.60 74.01L417.60 71.70L426.60 71.70L426.60 97.70L432.50 97.70L432.50 100ZM461.30 71.70L469.22 71.70L469.22 74.01L464.47 74.01L464.47 100.58Q464.47 107.06 460.84 110.19Q457.20 113.32 450.79 113.32L450.79 113.32Q446.40 113.32 440.50 111.66L440.50 111.66L441.07 109.22Q446.83 110.87 450.79 110.87L450.79 110.87Q455.90 110.87 458.60 108.32Q461.30 105.76 461.30 101.08L461.30 101.08L461.30 96.47Q459.29 98.20 456.48 99.21Q453.67 100.22 450.94 100.22L450.94 100.22Q446.76 100.22 443.38 98.38Q439.99 96.54 438.08 93.23Q436.18 89.92 436.18 85.53L436.18 85.53Q436.18 81.21 438.01 77.90Q439.85 74.58 443.05 72.82Q446.26 71.06 450.36 71.06L450.36 71.06Q453.17 71.06 456.19 72.10Q459.22 73.14 461.30 74.87L461.30 74.87L461.30 71.70ZM439.42 85.89Q439.42 91.29 442.76 94.56Q446.11 97.84 451.37 97.84L451.37 97.84Q453.89 97.84 456.59 96.83Q459.29 95.82 461.30 94.10L461.30 94.10L461.30 77.03Q459.00 75.38 456.16 74.37Q453.31 73.36 450.65 73.36L450.65 73.36Q445.61 73.36 442.51 76.78Q439.42 80.20 439.42 85.89L439.42 85.89ZM499.54 97.70L504.94 97.70L504.94 100L490.82 100L490.82 97.70L496.44 97.70L496.44 79.84Q496.44 76.89 494.75 75.16Q493.06 73.43 490.10 73.43L490.10 73.43Q485.57 73.43 479.23 77.18L479.23 77.18L479.23 97.70L484.20 97.70L484.20 100L470.88 100L470.88 97.70L476.06 97.70L476.06 61.05L471.02 61.05L471.02 58.74L479.23 58.74L479.23 75.02Q482.54 73 485.21 71.99Q487.87 70.98 490.68 70.98L490.68 70.98Q494.71 70.98 497.12 73.36Q499.54 75.74 499.54 79.91L499.54 79.91L499.54 97.70ZM520.85 100Q516.74 100 514.51 98.16Q512.28 96.33 512.28 92.08L512.28 92.08L512.28 74.01L507.17 74.01L507.17 71.70L512.28 71.70L512.28 61.98L515.45 60.83L515.45 71.70L523.44 71.70L523.44 74.01L515.45 74.01L515.45 91.86Q515.45 95.10 516.78 96.40Q518.11 97.70 521.28 97.70L521.28 97.70L524.59 97.70L524.59 100L520.85 100Z"/></svg>