<svg xmlns="http://www.w3.org/2000/svg" viewBox="3.8160000000000003 58.74399999999999 520.7760000000001 54.576000000000015"><path d="M4 100L4 98L10 98L10 62L4 62L4 59L26 59Q32 59 35 62Q38 66 38 70L38 70Q38 75 35 78Q32 81 26 81L26 81L36 98L42 98L42 100L34 100L23 81L16 81L16 79L24 79Q30 79 32 76Q35 74 35 70L35 70Q35 67 32 64Q30 62 26 62L26 62L13 62L13 98L19 98L19 100L4 100ZM62 101Q58 101 54 99Q51 97 49 94Q47 90 47 86L47 86Q47 81 49 78Q51 75 54 73Q58 71 62 71L62 71Q67 71 70 73Q74 75 76 78Q78 81 78 86L78 86Q78 90 76 94Q74 97 70 99Q67 101 62 101L62 101ZM62 98Q68 98 71 95Q74 91 74 86L74 86Q74 80 71 77Q68 73 62 73L62 73Q57 73 54 77Q50 80 50 86L50 86Q50 91 54 95Q57 98 62 98L62 98ZM95 100L82 100L82 98L87 98L87 61L82 61L82 59L90 59L90 85L104 74L99 74L99 72L113 72L113 74L108 74L94 85L107 98L113 98L113 100L105 100L90 86L90 98L95 98L95 100ZM130 100L117 100L117 98L122 98L122 61L117 61L117 59L125 59L125 85L139 74L134 74L134 72L148 72L148 74L143 74L129 85L142 98L148 98L148 100L140 100L125 86L125 98L130 98L130 100ZM158 65Q157 65 156 64Q155 63 155 62L155 62Q155 61 156 61Q157 60 158 60L158 60Q159 60 160 61Q160 61 160 62L160 62Q160 63 160 64Q159 65 158 65L158 65ZM166 100L151 100L151 98L157 98L157 74L151 74L151 72L160 72L160 98L166 98L166 100ZM182 100Q178 100 176 98Q174 96 174 92L174 92L174 74L169 74L169 72L174 72L174 62L177 61L177 72L185 72L185 74L177 74L177 92Q177 95 178 96Q180 98 183 98L183 98L186 98L186 100L182 100ZM203 100Q199 100 197 98Q195 96 195 92L195 92L195 74L189 74L189 72L195 72L195 62L198 61L198 72L206 72L206 74L198 74L198 92Q198 95 199 96Q200 98 204 98L204 98L207 98L207 100L203 100ZM259 86L259 87L234 87Q235 92 238 95Q241 98 246 98L246 98Q249 98 253 97Q256 96 258 93L258 93L259 95Q256 98 253 99Q250 101 246 101L246 101Q242 101 239 99Q235 97 233 94Q231 90 231 86L231 86Q231 81 233 78Q235 74 238 73Q242 71 246 71L246 71Q252 71 256 75Q259 79 259 86L259 86ZM234 84L256 84Q256 79 253 76Q250 73 246 73L246 73Q241 73 238 76Q235 79 234 84L234 84ZM277 100L264 100L264 98L269 98L279 85L269 74L264 74L264 72L278 72L278 74L272 74L281 84L289 74L284 74L284 72L298 72L298 74L292 74L282 85L293 98L298 98L298 100L284 100L284 98L290 98L281 87L272 98L277 98L277 100ZM314 100Q310 100 308 98Q306 96 306 92L306 92L306 74L301 74L301 72L306 72L306 62L309 61L309 72L317 72L317 74L309 74L309 92Q309 95 310 96Q312 98 315 98L315 98L318 98L318 100L314 100ZM340 71Q343 71 345 73L345 73L345 75Q342 74 340 74L340 74Q337 74 335 77Q333 79 333 84L333 84L333 98L338 98L338 100L323 100L323 98L330 98L330 74L324 74L324 72L333 72L333 77Q334 74 336 73Q338 71 340 71L340 71ZM373 98L377 98L377 100L370 100L370 97Q364 101 359 101L359 101Q355 101 352 98Q350 96 350 92L350 92Q350 88 353 86Q355 84 360 84L360 84Q363 84 370 85L370 85L370 81Q370 77 368 75Q365 73 362 73L362 73Q360 73 357 74Q354 75 352 76L352 76L351 74Q354 72 357 72Q359 71 362 71L362 71Q367 71 370 74Q373 77 373 81L373 81L373 98ZM353 92Q353 95 354 97Q356 99 359 99L359 99Q362 99 364 98Q367 97 370 95L370 95L370 87Q365 86 360 86L360 86Q357 86 355 87Q353 89 353 92L353 92ZM415 100L401 100L401 98L406 98L406 61L401 61L401 59L410 59L410 98L415 98L415 100ZM425 65Q423 65 423 64Q422 63 422 62L422 62Q422 61 423 61Q423 60 425 60L425 60Q426 60 426 61Q427 61 427 62L427 62Q427 63 426 64Q426 65 425 65L425 65ZM433 100L418 100L418 98L424 98L424 74L418 74L418 72L427 72L427 98L433 98L433 100ZM461 72L469 72L469 74L464 74L464 101Q464 107 461 110Q457 113 451 113L451 113Q446 113 440 112L440 112L441 109Q447 111 451 111L451 111Q456 111 459 108Q461 106 461 101L461 101L461 96Q459 98 456 99Q454 100 451 100L451 100Q447 100 443 98Q440 97 438 93Q436 90 436 86L436 86Q436 81 438 78Q440 75 443 73Q446 71 450 71L450 71Q453 71 456 72Q459 73 461 75L461 75L461 72ZM439 86Q439 91 443 95Q446 98 451 98L451 98Q454 98 457 97Q459 96 461 94L461 94L461 77Q459 75 456 74Q453 73 451 73L451 73Q446 73 443 77Q439 80 439 86L439 86ZM500 98L505 98L505 100L491 100L491 98L496 98L496 80Q496 77 495 75Q493 73 490 73L490 73Q486 73 479 77L479 77L479 98L484 98L484 100L471 100L471 98L476 98L476 61L471 61L471 59L479 59L479 75Q483 73 485 72Q488 71 491 71L491 71Q495 71 497 73Q500 76 500 80L500 80L500 98ZM521 100Q517 100 515 98Q512 96 512 92L512 92L512 74L507 74L507 72L512 72L512 62L515 61L515 72L523 72L523 74L515 74L515 92Q515 95 517 96Q518 98 521 98L521 98L525 98L525 100L521 100Z"/></svg>