<svg xmlns="http://www.w3.org/2000/svg" viewBox="3.3840000000000003 53.919999999999995 559.1520000000002 46.87200000000001"><path d="M3.38 100L3.38 92.66L7.49 92.66L7.49 65.80L3.38 65.80L3.38 58.38L28.51 58.38Q36.50 58.38 41.15 61.37Q45.79 64.36 45.79 70.77L45.79 70.77Q45.79 79.05 37.30 81.71L37.30 81.71L44.14 92.58L48.31 92.58L48.31 100L35.14 100L25.56 83.15L22.54 83.15L22.54 75.74L27.65 75.74Q30.53 75.74 31.93 74.30Q33.34 72.86 33.34 70.41L33.34 70.41Q33.34 68.32 31.93 67.06Q30.53 65.80 27.94 65.80L27.94 65.80L19.73 65.80L19.73 92.66L23.62 92.66L23.62 100L3.38 100ZM68.11 100.79Q63.36 100.79 59.72 98.88Q56.09 96.98 54.07 93.52Q52.06 90.06 52.06 85.53L52.06 85.53Q52.06 81.06 54.07 77.61Q56.09 74.15 59.72 72.28Q63.36 70.41 68.11 70.41L68.11 70.41Q72.86 70.41 76.50 72.28Q80.14 74.15 82.15 77.61Q84.17 81.06 84.17 85.53L84.17 85.53Q84.17 90.06 82.15 93.52Q80.14 96.98 76.50 98.88Q72.86 100.79 68.11 100.79L68.11 100.79ZM68.11 92.73Q70.92 92.80 72.58 90.86Q74.23 88.91 74.23 85.53L74.23 85.53Q74.23 82.22 72.58 80.31Q70.92 78.40 68.11 78.40L68.11 78.40Q65.23 78.40 63.61 80.31Q61.99 82.22 61.99 85.53L61.99 85.53Q61.99 88.91 63.61 90.86Q65.23 92.80 68.11 92.73L68.11 92.73ZM104.33 100L86.62 100L86.62 93.66L90.36 93.66L90.36 64.00L86.62 64.00L86.62 57.66L100.80 57.66L100.80 84.66L110.16 77.46L106.49 77.46L106.49 71.20L122.83 71.20L122.83 77.46L119.88 77.46L111.24 84.23L120.02 93.66L123.12 93.66L123.12 100L113.04 100L100.80 85.89L100.80 93.66L104.33 93.66L104.33 100ZM142.85 100L125.14 100L125.14 93.66L128.88 93.66L128.88 64.00L125.14 64.00L125.14 57.66L139.32 57.66L139.32 84.66L148.68 77.46L145.01 77.46L145.01 71.20L161.35 71.20L161.35 77.46L158.40 77.46L149.76 84.23L158.54 93.66L161.64 93.66L161.64 100L151.56 100L139.32 85.89L139.32 93.66L142.85 93.66L142.85 100ZM171.94 65.87Q169.13 65.87 167.40 64.22Q165.67 62.56 165.67 59.90L165.67 59.90Q165.67 57.23 167.40 55.58Q169.13 53.92 171.94 53.92L171.94 53.92Q174.74 53.92 176.44 55.54Q178.13 57.16 178.13 59.90L178.13 59.90Q178.20 62.56 176.47 64.22Q174.74 65.87 171.94 65.87L171.94 65.87ZM181.80 100L163.66 100L163.66 93.66L167.40 93.66L167.40 77.46L163.66 77.46L163.66 71.20L178.13 71.20L178.13 93.66L181.80 93.66L181.80 100ZM196.70 100Q187.42 100 187.42 91.43L187.42 91.43L187.42 77.46L183.82 77.46L183.82 71.20L187.34 71.20L187.34 61.84L198.07 60.04L198.07 71.20L204.55 71.20L204.55 77.46L198.07 77.46L198.07 89.63Q198.07 91.72 198.83 92.58Q199.58 93.45 201.46 93.45L201.46 93.45L204.77 93.45L204.77 100L196.70 100ZM220.32 100Q211.03 100 211.03 91.43L211.03 91.43L211.03 77.46L207.43 77.46L207.43 71.20L210.96 71.20L210.96 61.84L221.69 60.04L221.69 71.20L228.17 71.20L228.17 77.46L221.69 77.46L221.69 89.63Q221.69 91.72 222.44 92.58Q223.20 93.45 225.07 93.45L225.07 93.45L228.38 93.45L228.38 100L220.32 100ZM284.04 85.31L284.04 87.26L264.17 87.26Q264.82 89.99 266.87 91.40Q268.92 92.80 271.94 92.80L271.94 92.80Q276.91 92.80 280.87 89.70L280.87 89.70L283.82 96.04Q281.30 98.27 277.88 99.53Q274.46 100.79 270.50 100.79L270.50 100.79Q262.94 100.79 258.44 96.76Q253.94 92.73 253.94 85.60L253.94 85.60Q253.94 81.14 255.96 77.68Q257.98 74.22 261.58 72.32Q265.18 70.41 269.71 70.41L269.71 70.41Q276.41 70.41 280.22 74.51Q284.04 78.62 284.04 85.31L284.04 85.31ZM264.02 82.72L274.18 82.72Q274.18 80.20 272.92 78.76Q271.66 77.32 269.35 77.32L269.35 77.32Q267.12 77.32 265.75 78.72Q264.38 80.13 264.02 82.72L264.02 82.72ZM301.03 100L285.48 100L285.48 93.66L288.22 93.66L296.14 85.38L288.79 77.46L285.98 77.46L285.98 71.20L301.39 71.20L301.39 77.46L299.23 77.46L303.12 81.86L307.01 77.46L304.85 77.46L304.85 71.20L320.26 71.20L320.26 77.46L317.30 77.46L310.03 85.31L318.02 93.66L320.76 93.66L320.76 100L304.99 100L304.99 93.66L307.51 93.66L303.05 88.91L298.58 93.66L301.03 93.66L301.03 100ZM335.59 100Q326.30 100 326.30 91.43L326.30 91.43L326.30 77.46L322.70 77.46L322.70 71.20L326.23 71.20L326.23 61.84L336.96 60.04L336.96 71.20L343.44 71.20L343.44 77.46L336.96 77.46L336.96 89.63Q336.96 91.72 337.72 92.58Q338.47 93.45 340.34 93.45L340.34 93.45L343.66 93.45L343.66 100L335.59 100ZM368.93 70.55Q371.66 70.55 374.40 71.85L374.40 71.85L372.17 80.49Q369.29 78.98 366.26 78.98L366.26 78.98Q364.18 78.98 362.59 80.16Q361.01 81.35 361.01 83.73L361.01 83.73L361.01 93.66L365.11 93.66L365.11 100L346.61 100L346.61 93.66L350.35 93.66L350.35 77.46L346.61 77.46L346.61 71.20L361.01 71.20L361.01 76.82Q363.89 70.55 368.93 70.55L368.93 70.55ZM405.14 93.66L408.60 93.66L408.60 100L396.36 100L395.57 97.48Q391.61 100.72 386.50 100.72L386.50 100.72Q382.10 100.72 379.51 98.42Q376.92 96.11 376.92 92.30L376.92 92.30Q376.92 87.69 380.16 85.53Q383.40 83.37 388.37 83.37L388.37 83.37Q391.75 83.37 394.70 84.23L394.70 84.23L394.70 82.86Q394.70 77.46 389.23 77.46L389.23 77.46Q385.34 77.46 379.73 79.91L379.73 79.91L377.35 73.79Q384.41 70.48 391.82 70.48L391.82 70.48Q398.16 70.48 401.65 73.58Q405.14 76.67 405.14 82.22L405.14 82.22L405.14 93.66ZM386.42 91.65Q386.42 93.30 387.40 94.24Q388.37 95.18 390.17 95.18L390.17 95.18Q392.69 95.18 394.70 93.45L394.70 93.45L394.70 88.62Q392.76 87.98 390.82 87.98L390.82 87.98Q388.94 87.98 387.68 88.88Q386.42 89.78 386.42 91.65L386.42 91.65ZM456.41 70.48Q462.31 70.48 465.80 74.51Q469.30 78.54 469.30 85.24L469.30 85.24Q469.30 92.30 465.59 96.51Q461.88 100.72 455.83 100.72L455.83 100.72Q450.72 100.72 447.05 97.91L447.05 97.91L446.83 100L433.22 100L433.22 93.66L436.97 93.66L436.97 64.00L433.22 64.00L433.22 57.66L447.62 57.66L447.62 73.65Q451.30 70.48 456.41 70.48L456.41 70.48ZM452.09 92.80Q454.90 92.80 456.59 90.82Q458.28 88.84 458.28 85.60L458.28 85.60Q458.28 82.14 456.62 80.27Q454.97 78.40 452.09 78.40L452.09 78.40Q449.71 78.40 447.62 80.06L447.62 80.06L447.62 91.43Q449.78 92.80 452.09 92.80L452.09 92.80ZM488.02 100.79Q483.26 100.79 479.63 98.88Q475.99 96.98 473.98 93.52Q471.96 90.06 471.96 85.53L471.96 85.53Q471.96 81.06 473.98 77.61Q475.99 74.15 479.63 72.28Q483.26 70.41 488.02 70.41L488.02 70.41Q492.77 70.41 496.40 72.28Q500.04 74.15 502.06 77.61Q504.07 81.06 504.07 85.53L504.07 85.53Q504.07 90.06 502.06 93.52Q500.04 96.98 496.40 98.88Q492.77 100.79 488.02 100.79L488.02 100.79ZM488.02 92.73Q490.82 92.80 492.48 90.86Q494.14 88.91 494.14 85.53L494.14 85.53Q494.14 82.22 492.48 80.31Q490.82 78.40 488.02 78.40L488.02 78.40Q485.14 78.40 483.52 80.31Q481.90 82.22 481.90 85.53L481.90 85.53Q481.90 88.91 483.52 90.86Q485.14 92.80 488.02 92.73L488.02 92.73ZM524.30 100L506.52 100L506.52 93.66L510.26 93.66L510.26 64.00L506.52 64.00L506.52 57.66L520.78 57.66L520.78 93.66L524.30 93.66L524.30 100ZM559.01 93.66L562.54 93.66L562.54 100L549.14 100L549.00 97.98Q545.04 100.72 540.00 100.72L540.00 100.72Q536.04 100.72 533.02 98.85Q529.99 96.98 528.30 93.52Q526.61 90.06 526.61 85.46L526.61 85.46Q526.61 80.99 528.30 77.61Q529.99 74.22 533.02 72.35Q536.04 70.48 539.86 70.48L539.86 70.48Q544.90 70.48 548.35 73.43L548.35 73.43L548.35 64.00L543.82 64.00L543.82 57.66L559.01 57.66L559.01 93.66ZM537.62 85.74Q537.62 88.91 539.39 90.86Q541.15 92.80 543.89 92.80L543.89 92.80Q546.41 92.80 548.35 91.50L548.35 91.50L548.35 79.91Q546.41 78.40 543.82 78.40L543.82 78.40Q540.94 78.40 539.28 80.31Q537.62 82.22 537.62 85.74L537.62 85.74Z"/></svg>