<svg xmlns="http://www.w3.org/2000/svg" viewBox="0.5 -6.61 32.06 6.71"><path d="M0.50 0L0.50-1.20L1-1.20L1-4.63L0.50-4.63L0.50-5.83L4.17-5.83Q5.36-5.83 6.05-5.40Q6.75-4.97 6.75-4.03L6.75-4.03Q6.75-2.93 5.67-2.50L5.67-2.50L6.49-1.21L6.99-1.21L6.99 0L5 0L3.73-2.26L3.41-2.26L3.41-3.46L4.06-3.46Q4.36-3.46 4.53-3.62Q4.69-3.78 4.69-4.09L4.69-4.09Q4.69-4.35 4.53-4.49Q4.36-4.63 4.06-4.63L4.06-4.63L3-4.63L3-1.20L3.46-1.20L3.46 0L0.50 0ZM9.77 0.10Q9.10 0.10 8.59-0.17Q8.07-0.43 7.79-0.91Q7.51-1.39 7.51-2.02L7.51-2.02Q7.51-2.65 7.79-3.13Q8.07-3.61 8.59-3.87Q9.10-4.13 9.77-4.13L9.77-4.13Q10.44-4.13 10.96-3.87Q11.47-3.61 11.75-3.13Q12.03-2.65 12.03-2.02L12.03-2.02Q12.03-1.39 11.75-0.91Q11.47-0.43 10.96-0.17Q10.44 0.10 9.77 0.10L9.77 0.10ZM9.77-1.20Q10.08-1.19 10.26-1.41Q10.43-1.63 10.43-2.02L10.43-2.02Q10.43-2.41 10.26-2.62Q10.09-2.83 9.77-2.83L9.77-2.83Q9.45-2.83 9.28-2.62Q9.11-2.41 9.11-2.02L9.11-2.02Q9.11-1.63 9.29-1.41Q9.46-1.19 9.77-1.20L9.77-1.20ZM14.90 0L12.31 0L12.31-1L12.75-1L12.75-4.93L12.31-4.93L12.31-5.93L14.46-5.93L14.46-2.14L15.62-3.03L15.18-3.03L15.18-4.03L17.52-4.03L17.52-3.03L17.17-3.03L16.15-2.24L17.26-1L17.57-1L17.57 0L16.08 0L14.46-1.97L14.46-1L14.90-1L14.90 0ZM20.38 0L17.79 0L17.79-1L18.23-1L18.23-4.93L17.79-4.93L17.79-5.93L19.94-5.93L19.94-2.14L21.10-3.03L20.66-3.03L20.66-4.03L23-4.03L23-3.03L22.65-3.03L21.63-2.24L22.74-1L23.05-1L23.05 0L21.56 0L19.94-1.97L19.94-1L20.38-1L20.38 0ZM24.48-4.72Q24.03-4.72 23.76-4.98Q23.49-5.24 23.49-5.67L23.49-5.67Q23.49-6.10 23.76-6.36Q24.03-6.61 24.48-6.61L24.48-6.61Q24.93-6.61 25.20-6.36Q25.46-6.10 25.46-5.67L25.46-5.67Q25.47-5.24 25.20-4.98Q24.93-4.72 24.48-4.72L24.48-4.72ZM25.92 0L23.29 0L23.29-1L23.73-1L23.73-3.03L23.29-3.03L23.29-4.03L25.48-4.03L25.48-1L25.92-1L25.92 0ZM27.93 0Q26.59 0 26.59-1.20L26.59-1.20L26.59-3.03L26.14-3.03L26.14-4.03L26.58-4.03L26.58-5.31L28.33-5.54L28.33-4.03L29.19-4.03L29.19-3.03L28.33-3.03L28.33-1.53Q28.33-1.26 28.44-1.15Q28.54-1.04 28.79-1.04L28.79-1.04L29.19-1.04L29.19 0L27.93 0ZM31.30 0Q29.96 0 29.96-1.20L29.96-1.20L29.96-3.03L29.51-3.03L29.51-4.03L29.95-4.03L29.95-5.31L31.70-5.54L31.70-4.03L32.56-4.03L32.56-3.03L31.70-3.03L31.70-1.53Q31.70-1.26 31.81-1.15Q31.91-1.04 32.16-1.04L32.16-1.04L32.56-1.04L32.56 0L31.30 0Z"/></svg>