<svg xmlns="http://www.w3.org/2000/svg" viewBox="3.0240000000000005 56.727999999999994 529.488 44.06400000000001"><path d="M3 100L3 95L8 95L8 64L3 64L3 59L26 59Q33 59 37 62Q41 65 41 70L41 70Q41 79 31 81L31 81L39 95L45 95L45 100L34 100L23 82L19 82L19 77L25 77Q29 77 31 75Q32 73 32 70L32 70Q32 68 31 66Q29 64 25 64L25 64L16 64L16 95L21 95L21 100L3 100ZM64 101Q59 101 56 99Q52 97 50 94Q48 90 48 86L48 86Q48 81 50 78Q52 74 56 73Q59 71 64 71L64 71Q68 71 72 73Q76 74 77 78Q79 81 79 86L79 86Q79 90 77 94Q76 97 72 99Q68 101 64 101L64 101ZM64 95Q68 95 70 93Q72 90 72 86L72 86Q72 81 70 79Q68 76 64 76L64 76Q60 76 58 79Q55 81 55 86L55 86Q55 90 58 93Q60 95 64 95L64 95ZM99 100L83 100L83 95L87 95L87 63L83 63L83 58L95 58L95 85L106 76L101 76L101 71L117 71L117 76L113 76L102 85L112 95L117 95L117 100L108 100L95 86L95 95L99 95L99 100ZM136 100L119 100L119 95L124 95L124 63L120 63L120 58L131 58L131 85L143 76L138 76L138 71L153 71L153 76L150 76L139 85L149 95L154 95L154 100L145 100L131 86L131 95L136 95L136 100ZM164 66Q162 66 160 64Q159 63 159 61L159 61Q159 59 160 58Q162 57 164 57L164 57Q166 57 167 58Q168 59 168 61L168 61Q168 63 167 64Q166 66 164 66L164 66ZM173 100L156 100L156 95L161 95L161 76L156 76L156 71L168 71L168 95L173 95L173 100ZM188 100Q180 100 180 92L180 92L180 76L176 76L176 71L180 71L180 62L187 60L187 71L194 71L194 76L187 76L187 91Q187 93 188 94Q189 95 191 95L191 95L195 95L195 100L188 100ZM211 100Q202 100 202 92L202 92L202 76L198 76L198 71L202 71L202 62L209 60L209 71L217 71L217 76L209 76L209 91Q209 93 210 94Q211 95 213 95L213 95L217 95L217 100L211 100ZM260 83Q265 84 268 86Q270 88 270 92L270 92Q270 96 267 99Q264 101 259 101L259 101Q256 101 254 100Q252 99 250 98L250 98L250 100L245 100L245 90L250 90L250 93Q251 95 253 96Q256 96 258 96L258 96Q260 96 262 95Q263 94 263 93L263 93Q263 91 262 90Q261 89 257 89L257 89L254 88Q249 87 247 85Q245 83 245 79L245 79Q245 75 248 73Q251 71 256 71L256 71Q258 71 260 71Q262 72 264 73L264 73L264 71L269 71L269 81L264 81L264 78Q263 76 261 76Q259 75 257 75L257 75Q255 75 253 76Q252 77 252 79L252 79Q252 80 253 81Q254 82 257 82L257 82L260 83ZM304 85L304 87L282 87Q282 91 285 93Q287 95 291 95L291 95Q294 95 296 94Q299 93 301 91L301 91L303 96Q301 98 298 99Q295 101 291 101L291 101Q286 101 282 99Q279 97 277 94Q274 90 274 86L274 86Q274 81 276 78Q278 75 282 73Q285 71 290 71L290 71Q296 71 300 75Q304 79 304 85L304 85ZM282 83L297 83Q297 80 295 78Q293 76 290 76L290 76Q286 76 284 78Q282 80 282 83L282 83ZM358 95L363 95L363 100L347 100L347 95L351 95L351 82Q351 79 350 78Q349 76 346 76L346 76Q343 76 338 79L338 79Q339 80 339 81L339 81L339 95L343 95L343 100L327 100L327 95L331 95L331 82Q331 79 330 78Q329 76 327 76L327 76Q324 76 319 78L319 78L319 95L324 95L324 100L307 100L307 95L312 95L312 76L307 76L307 71L319 71L319 74Q324 71 329 71L329 71Q332 71 334 72Q336 73 337 75L337 75Q340 73 343 72Q346 71 349 71L349 71Q353 71 356 73Q358 76 358 80L358 80L358 95ZM372 66Q370 66 369 64Q368 63 368 61L368 61Q368 59 369 58Q370 57 372 57L372 57Q374 57 376 58Q377 59 377 61L377 61Q377 63 376 64Q374 66 372 66L372 66ZM381 100L365 100L365 95L370 95L370 76L365 76L365 71L377 71L377 95L381 95L381 100ZM428 71Q432 71 435 73Q438 74 440 78Q441 81 441 85L441 85Q441 90 439 94Q438 97 434 99Q431 101 427 101L427 101Q422 101 418 98L418 98L418 100L407 100L407 95L411 95L411 63L407 63L407 58L418 58L418 74Q420 72 423 72Q425 71 428 71L428 71ZM425 95Q429 95 431 93Q434 90 434 86L434 86Q434 81 432 79Q429 76 425 76L425 76Q422 76 418 79L418 79L418 93Q422 95 425 95L425 95ZM460 101Q455 101 452 99Q448 97 447 94Q445 90 445 86L445 86Q445 81 447 78Q448 74 452 73Q455 71 460 71L460 71Q465 71 468 73Q472 74 474 78Q476 81 476 86L476 86Q476 90 474 94Q472 97 468 99Q465 101 460 101L460 101ZM460 95Q464 95 466 93Q469 90 469 86L469 86Q469 81 466 79Q464 76 460 76L460 76Q456 76 454 79Q452 81 452 86L452 86Q452 90 454 93Q456 95 460 95L460 95ZM495 100L479 100L479 95L484 95L484 63L479 63L479 58L491 58L491 95L495 95L495 100ZM528 95L533 95L533 100L521 100L521 98Q518 101 512 101L512 101Q508 101 505 99Q502 97 500 94Q498 90 498 86L498 86Q498 81 500 78Q502 74 505 73Q508 71 512 71L512 71Q517 71 521 74L521 74L521 63L516 63L516 58L528 58L528 95ZM506 86Q506 90 508 93Q511 95 515 95L515 95Q518 95 521 93L521 93L521 79Q518 76 514 76L514 76Q510 76 508 79Q506 81 506 86L506 86Z"/></svg>