<svg xmlns="http://www.w3.org/2000/svg" viewBox="2.8080000000000003 58.16799999999999 444.7440000000001 55.36800000000001"><path d="M3 100L3 96L8 96L8 63L3 63L3 59L24 59Q31 59 34 62Q38 65 38 70L38 70Q38 79 27 81L27 81L37 96L43 96L43 100L33 100L22 81L17 81L17 77L23 77Q28 77 30 75Q32 73 32 70L32 70Q32 67 30 65Q28 63 24 63L24 63L14 63L14 96L20 96L20 100L3 100ZM62 101Q57 101 54 99Q50 97 48 94Q46 90 46 86L46 86Q46 81 48 78Q50 75 54 73Q57 71 62 71L62 71Q66 71 70 73Q73 75 75 78Q77 81 77 86L77 86Q77 90 75 94Q73 97 70 99Q66 101 62 101L62 101ZM62 97Q66 97 69 94Q72 91 72 86L72 86Q72 81 69 78Q66 75 62 75L62 75Q57 75 55 78Q52 81 52 86L52 86Q52 91 55 94Q57 97 62 97L62 97ZM96 100L81 100L81 96L86 96L86 62L81 62L81 59L91 59L91 85L104 76L98 76L98 72L113 72L113 76L109 76L97 85L108 96L114 96L114 100L105 100L91 86L91 96L96 96L96 100ZM132 100L117 100L117 96L122 96L122 62L117 62L117 59L127 59L127 85L139 76L134 76L134 72L149 72L149 76L145 76L133 85L144 96L149 96L149 100L141 100L127 86L127 96L132 96L132 100ZM160 66Q158 66 157 64Q156 63 156 62L156 62Q156 60 157 59Q158 58 160 58L160 58Q161 58 162 59Q163 60 163 62L163 62Q163 63 162 64Q161 66 160 66L160 66ZM168 100L152 100L152 96L158 96L158 76L152 76L152 72L163 72L163 96L168 96L168 100ZM184 100Q176 100 176 92L176 92L176 76L171 76L171 72L176 72L176 62L181 60L181 72L189 72L189 76L181 76L181 91Q181 94 182 95Q183 96 185 96L185 96L189 96L189 100L184 100ZM206 100Q198 100 198 92L198 92L198 76L193 76L193 72L198 72L198 62L203 60L203 72L210 72L210 76L203 76L203 91Q203 94 204 95Q205 96 207 96L207 96L211 96L211 100L206 100ZM256 71Q258 71 261 73L261 73L260 78Q258 76 255 76L255 76Q252 76 250 78Q248 81 248 85L248 85L248 96L253 96L253 100L238 100L238 96L243 96L243 76L238 76L238 72L248 72L248 77Q251 71 256 71L256 71ZM294 86L294 87L270 87Q271 92 273 94Q276 97 280 97L280 97Q286 97 291 92L291 92L293 95Q291 98 288 99Q285 101 281 101L281 101Q276 101 273 99Q269 97 267 94Q265 90 265 86L265 86Q265 81 267 78Q269 75 272 73Q275 71 280 71L280 71Q286 71 290 75Q294 79 294 86L294 86ZM270 84L288 84Q288 80 286 77Q283 75 280 75L280 75Q276 75 273 77Q271 80 270 84L270 84ZM322 72L332 72L332 76L328 76L328 101Q328 107 324 110Q320 114 313 114L313 114Q308 114 302 112L302 112L303 108Q309 109 313 109L313 109Q317 109 320 107Q322 105 322 101L322 101L322 97Q320 99 318 99Q315 100 313 100L313 100Q309 100 305 98Q302 97 300 93Q298 90 298 86L298 86Q298 81 300 78Q302 74 305 73Q309 71 313 71L313 71Q315 71 318 72Q320 73 322 74L322 74L322 72ZM304 86Q304 91 307 94Q309 96 314 96L314 96Q316 96 318 96Q320 95 322 93L322 93L322 78Q320 77 318 76Q315 75 313 75L313 75Q309 75 306 78Q304 81 304 86L304 86ZM364 96L369 96L369 100L359 100L358 97Q353 101 348 101L348 101Q343 101 341 98Q339 95 339 91L339 91L339 76L334 76L334 72L344 72L344 91Q344 93 345 95Q347 96 349 96L349 96Q354 96 358 93L358 93L358 76L353 76L353 72L364 72L364 96ZM387 100L372 100L372 96L377 96L377 62L372 62L372 59L382 59L382 96L387 96L387 100ZM416 96L420 96L420 100L411 100L411 97Q408 99 406 100Q404 101 401 101L401 101Q397 101 394 98Q391 96 391 92L391 92Q391 88 394 86Q398 84 403 84L403 84Q406 84 410 84L410 84L410 81Q410 78 409 77Q407 75 404 75L404 75Q402 75 399 76Q396 76 394 78L394 78L392 74Q395 73 398 72Q401 71 404 71L404 71Q409 71 413 74Q416 76 416 81L416 81L416 96ZM396 92Q396 94 398 96Q399 97 402 97L402 97Q406 97 410 94L410 94L410 88Q407 87 403 87L403 87Q400 87 398 88Q396 89 396 92L396 92ZM442 71Q445 71 448 73L448 73L446 78Q444 76 441 76L441 76Q438 76 437 78Q435 81 435 85L435 85L435 96L440 96L440 100L424 100L424 96L429 96L429 76L424 76L424 72L435 72L435 77Q437 71 442 71L442 71Z"/></svg>