<svg xmlns="http://www.w3.org/2000/svg" viewBox="3.168 55.431999999999995 371.8800000000001 45.36000000000001"><path d="M3 100L3 94L8 94L8 65L3 65L3 59L27 59Q34 59 39 62Q43 65 43 70L43 70Q43 79 34 81L34 81L41 94L46 94L46 100L34 100L24 83L20 83L20 76L26 76Q30 76 31 75Q33 73 33 70L33 70Q33 68 31 66Q30 65 27 65L27 65L18 65L18 94L22 94L22 100L3 100ZM66 101Q61 101 57 99Q54 97 52 94Q50 90 50 86L50 86Q50 81 52 78Q54 74 57 72Q61 71 66 71L66 71Q70 71 74 72Q78 74 80 78Q82 81 82 86L82 86Q82 90 80 94Q78 97 74 99Q70 101 66 101L66 101ZM66 94Q69 94 71 92Q73 90 73 86L73 86Q73 82 71 80Q69 77 66 77L66 77Q62 77 60 80Q58 82 58 86L58 86Q58 90 60 92Q62 94 66 94L66 94ZM101 100L84 100L84 95L89 95L89 63L85 63L85 58L97 58L97 85L108 77L104 77L104 71L119 71L119 77L116 77L106 85L116 95L120 95L120 100L110 100L97 86L97 95L101 95L101 100ZM139 100L122 100L122 95L126 95L126 63L122 63L122 58L135 58L135 85L145 77L141 77L141 71L157 71L157 77L154 77L144 85L153 95L157 95L157 100L148 100L135 86L135 95L139 95L139 100ZM168 66Q165 66 164 64Q162 63 162 61L162 61Q162 58 164 57Q165 55 168 55L168 55Q170 55 171 57Q173 58 173 61L173 61Q173 63 171 64Q170 66 168 66L168 66ZM177 100L160 100L160 95L164 95L164 77L160 77L160 71L173 71L173 95L177 95L177 100ZM192 100Q183 100 183 92L183 92L183 77L179 77L179 71L183 71L183 62L192 60L192 71L199 71L199 77L192 77L192 90Q192 93 193 93Q194 94 196 94L196 94L199 94L199 100L192 100ZM215 100Q206 100 206 92L206 92L206 77L202 77L202 71L206 71L206 62L215 60L215 71L222 71L222 77L215 77L215 90Q215 93 216 93Q217 94 218 94L218 94L222 94L222 100L215 100ZM270 71Q276 71 279 75Q283 79 283 85L283 85Q283 90 281 93Q279 97 276 99Q273 101 269 101L269 101Q264 101 260 98L260 98L260 100L248 100L248 95L252 95L252 63L248 63L248 58L261 58L261 74Q263 72 265 71Q267 71 270 71L270 71ZM266 94Q270 94 272 92Q274 90 274 86L274 86Q274 82 272 79Q270 77 266 77L266 77Q263 77 261 79L261 79L261 92Q263 94 266 94L266 94ZM302 101Q297 101 293 99Q290 97 288 94Q286 90 286 86L286 86Q286 81 288 78Q290 74 293 72Q297 71 302 71L302 71Q306 71 310 72Q314 74 316 78Q318 81 318 86L318 86Q318 90 316 94Q314 97 310 99Q306 101 302 101L302 101ZM302 94Q305 94 307 92Q309 90 309 86L309 86Q309 82 307 80Q305 77 302 77L302 77Q298 77 296 80Q294 82 294 86L294 86Q294 90 296 92Q298 94 302 94L302 94ZM337 100L320 100L320 95L325 95L325 63L321 63L321 58L333 58L333 95L337 95L337 100ZM371 95L375 95L375 100L363 100L363 98Q359 101 354 101L354 101Q350 101 347 99Q344 97 342 94Q340 90 340 86L340 86Q340 81 342 78Q344 74 347 72Q350 71 354 71L354 71Q359 71 362 74L362 74L362 63L358 63L358 58L371 58L371 95ZM349 86Q349 90 351 92Q353 94 357 94L357 94Q360 94 362 93L362 93L362 79Q360 77 356 77L356 77Q353 77 351 79Q349 82 349 86L349 86Z"/></svg>