<svg xmlns="http://www.w3.org/2000/svg" viewBox="0.39 -6.67 38.51 8.52"><path d="M2.89-6.67Q3.89-6.67 4.45-6.22Q5.01-5.77 5.01-5.05L5.01-5.05Q5.01-4.95 4.99-4.77L4.99-4.77L4.96-4.57Q4.88-4.01 4.50-3.58Q4.11-3.15 3.52-2.96L3.52-2.96L4.89 0L3.92 0Q3.45-1.16 3.20-1.74Q2.94-2.32 2.65-2.85L2.65-2.85Q2.14-2.85 1.59-2.93L1.59-2.93L1.24 0L0.39 0L1.20-6.62Q2.13-6.67 2.89-6.67L2.89-6.67ZM2.82-5.96L1.96-5.94L1.67-3.58Q2.20-3.52 2.55-3.52L2.55-3.52Q3.93-3.52 4.12-4.65L4.12-4.65L4.13-4.71Q4.15-4.89 4.15-4.97L4.15-4.97Q4.15-5.45 3.81-5.71Q3.48-5.96 2.82-5.96L2.82-5.96ZM9.27-1.76Q9.15-0.85 8.66-0.36Q8.17 0.12 7.35 0.12L7.35 0.12Q6.55 0.12 6.13-0.27Q5.70-0.66 5.70-1.36L5.70-1.36Q5.70-1.53 5.73-1.72L5.73-1.72L5.93-3.16Q6.05-4.05 6.55-4.53Q7.05-5 7.86-5L7.86-5Q8.65-5 9.07-4.61Q9.49-4.21 9.49-3.52L9.49-3.52Q9.49-3.35 9.46-3.15L9.46-3.15L9.27-1.76ZM8.62-3.22Q8.64-3.38 8.64-3.45L8.64-3.45Q8.64-3.85 8.42-4.07Q8.20-4.29 7.82-4.29L7.82-4.29Q6.94-4.29 6.80-3.27L6.80-3.27L6.57-1.65Q6.55-1.49 6.55-1.43L6.55-1.43Q6.55-1.04 6.78-0.82Q7.00-0.59 7.38-0.59L7.38-0.59Q8.26-0.59 8.39-1.61L8.39-1.61L8.62-3.22ZM13.18-5Q13.70-5 14.00-4.65Q14.31-4.30 14.31-3.63L14.31-3.63Q14.31-3.39 14.24-2.97L14.24-2.97L13.96-1.48Q13.66 0.12 12.39 0.12L12.39 0.12Q12.09 0.12 11.77-0.01Q11.45-0.15 11.21-0.38L11.21-0.38Q11 0.89 10.74 1.85L10.74 1.85L9.90 1.85Q10.20 0.69 10.44-0.97L10.44-0.97L11-4.88L11.80-4.88L11.72-4.30L11.26-2.54L11.28-2.52L11.31-2.54Q11.67-3.77 12.13-4.38Q12.58-5 13.18-5L13.18-5ZM12.98-4.24Q12.65-4.24 12.31-3.83Q11.97-3.41 11.71-2.74Q11.45-2.07 11.35-1.34L11.35-1.34L11.30-0.99Q11.49-0.83 11.73-0.73Q11.98-0.63 12.18-0.63L12.18-0.63Q12.56-0.63 12.79-0.86Q13.03-1.09 13.13-1.60L13.13-1.60L13.39-2.92Q13.45-3.25 13.45-3.49L13.45-3.49Q13.45-3.87 13.32-4.05Q13.19-4.24 12.98-4.24L12.98-4.24ZM17.06-5Q17.40-5 17.71-4.83Q18.02-4.67 18.27-4.38L18.27-4.38L18.33-4.88L19.13-4.88L18.45 0L17.64 0L17.73-0.65L18.14-1.90L18.12-1.92L18.09-1.91Q17.41 0.12 16.25 0.12L16.25 0.12Q15.75 0.12 15.44-0.22Q15.14-0.56 15.14-1.18L15.14-1.18Q15.14-1.43 15.18-1.64L15.18-1.64L15.44-3.27Q15.58-4.12 16.02-4.56Q16.45-5 17.06-5L17.06-5ZM17.17-4.27Q16.46-4.27 16.29-3.22L16.29-3.22L16.05-1.75Q16-1.43 16-1.27L16-1.27Q16-0.93 16.13-0.79Q16.25-0.64 16.49-0.64L16.49-0.64Q17.03-0.64 17.43-1.30Q17.83-1.97 18-2.80L18-2.80L18.13-3.73Q17.93-3.98 17.68-4.13Q17.42-4.27 17.17-4.27L17.17-4.27ZM24.38-3.54Q24.94-3.31 25.21-2.93Q25.49-2.55 25.49-1.99L25.49-1.99Q25.49-1.81 25.46-1.58L25.46-1.58L25.44-1.45Q25.32-0.66 24.82-0.27Q24.33 0.12 23.44 0.12L23.44 0.12Q23.01 0.12 22.50-0.01Q21.99-0.13 21.64-0.30L21.64-0.30L21.74-1.15Q22.43-0.80 23.01-0.66L23.01-0.66Q23.21-0.64 23.44-0.64L23.44-0.64Q23.96-0.64 24.23-0.85Q24.50-1.07 24.58-1.52L24.58-1.52L24.60-1.63Q24.63-1.80 24.63-1.93L24.63-1.93Q24.63-2.25 24.46-2.46Q24.30-2.66 23.93-2.81L23.93-2.81L23.04-3.17Q22.51-3.38 22.23-3.79Q21.95-4.20 21.95-4.75L21.95-4.75Q21.95-5 22.01-5.27L22.01-5.27L22.03-5.36Q22.32-6.67 24.04-6.67L24.04-6.67Q24.35-6.67 24.77-6.61Q25.20-6.54 25.55-6.45L25.55-6.45L25.44-5.64Q24.88-5.80 24.35-5.90L24.35-5.90Q24.20-5.91 24.00-5.91L24.00-5.91Q23.00-5.91 22.88-5.16L22.88-5.16L22.86-5.04Q22.84-4.88 22.84-4.80L22.84-4.80Q22.84-4.48 23.01-4.25Q23.18-4.03 23.55-3.88L23.55-3.88L24.38-3.54ZM28.18-5Q28.52-5 28.83-4.83Q29.14-4.67 29.39-4.38L29.39-4.38L29.45-4.88L30.25-4.88L29.57 0L28.76 0L28.85-0.65L29.26-1.90L29.24-1.92L29.21-1.91Q28.53 0.12 27.37 0.12L27.37 0.12Q26.87 0.12 26.56-0.22Q26.26-0.56 26.26-1.18L26.26-1.18Q26.26-1.43 26.30-1.64L26.30-1.64L26.56-3.27Q26.70-4.12 27.13-4.56Q27.57-5 28.18-5L28.18-5ZM28.29-4.27Q27.58-4.27 27.41-3.22L27.41-3.22L27.17-1.75Q27.12-1.43 27.12-1.27L27.12-1.27Q27.12-0.93 27.24-0.79Q27.37-0.64 27.61-0.64L27.61-0.64Q28.15-0.64 28.55-1.30Q28.95-1.97 29.12-2.80L29.12-2.80L29.25-3.73Q29.05-3.98 28.79-4.13Q28.54-4.27 28.29-4.27L28.29-4.27ZM33.94-5Q34.44-5 34.70-4.71Q34.96-4.42 34.96-3.79L34.96-3.79Q34.96-3.46 34.91-3.16L34.91-3.16L34.43 0L33.58 0L34.08-3.18Q34.12-3.42 34.12-3.64L34.12-3.64Q34.12-3.95 34.01-4.08Q33.91-4.21 33.71-4.21L33.71-4.21Q33.36-4.21 32.99-3.73Q32.62-3.26 32.32-2.38Q32.02-1.49 31.86-0.30L31.86-0.30L31.82 0L30.97 0L31.65-4.88L32.45-4.88L32.34-4.09L31.89-2.40L31.92-2.38L31.95-2.40Q32.30-3.67 32.82-4.33Q33.34-5 33.94-5L33.94-5ZM37.68-5Q37.92-5 38.25-4.95Q38.58-4.89 38.90-4.80L38.90-4.80L38.78-4.03Q38.25-4.23 37.97-4.29L37.97-4.29L37.61-4.31Q36.94-4.31 36.86-3.80L36.86-3.80L36.85-3.74Q36.84-3.70 36.84-3.63L36.84-3.63Q36.84-3.44 36.94-3.29Q37.05-3.14 37.25-3.05L37.25-3.05L38.07-2.67Q38.45-2.50 38.65-2.19Q38.86-1.88 38.86-1.49L38.86-1.49Q38.86-1.38 38.85-1.32L38.85-1.32L38.83-1.16Q38.76-0.58 38.34-0.23Q37.93 0.12 37.22 0.12L37.22 0.12Q36.87 0.12 36.45 0.01Q36.04-0.09 35.72-0.26L35.72-0.26L35.85-1.03Q36.05-0.92 36.32-0.81Q36.60-0.69 36.81-0.63L36.81-0.63Q37.05-0.60 37.20-0.60L37.20-0.60Q37.91-0.60 38.01-1.24L38.01-1.24L38.02-1.30Q38.03-1.34 38.03-1.41L38.03-1.41Q38.03-1.59 37.92-1.75Q37.82-1.90 37.64-1.99L37.64-1.99L36.84-2.36Q36.43-2.55 36.22-2.85Q36.02-3.15 36.02-3.53L36.02-3.53Q36.02-3.70 36.04-3.79L36.04-3.79L36.07-3.95Q36.26-5 37.68-5L37.68-5Z"/></svg>