<svg xmlns="http://www.w3.org/2000/svg" viewBox="0.75 -6.67 37.66 8.52"><path d="M2.49-6.67Q3.67-6.67 4.23-6.21Q4.79-5.75 4.79-4.92L4.79-4.92L4.79-4.67Q4.79-4.09 4.47-3.65Q4.15-3.20 3.55-3.02L3.55-3.02L5.25 0L4.30 0L2.71-2.84Q2.63-2.83 2.39-2.83L2.39-2.83Q1.99-2.83 1.60-2.86L1.60-2.86L1.60 0L0.75 0L0.75-6.63Q1.87-6.67 2.49-6.67L2.49-6.67ZM2.47-5.95Q2.14-5.95 1.60-5.93L1.60-5.93L1.60-3.57Q2.14-3.52 2.50-3.52L2.50-3.52Q3.94-3.52 3.94-4.69L3.94-4.69L3.94-4.89Q3.94-5.43 3.59-5.69Q3.24-5.95 2.47-5.95L2.47-5.95ZM7.61-5Q8.50-5 8.94-4.53Q9.37-4.05 9.37-3.18L9.37-3.18L9.37-1.70Q9.37-0.83 8.94-0.35Q8.50 0.12 7.61 0.12L7.61 0.12Q6.72 0.12 6.29-0.35Q5.85-0.83 5.85-1.70L5.85-1.70L5.85-3.18Q5.85-4.05 6.29-4.53Q6.72-5 7.61-5L7.61-5ZM7.61-4.29Q7.18-4.29 6.94-4.02Q6.70-3.75 6.70-3.25L6.70-3.25L6.70-1.63Q6.70-1.13 6.94-0.86Q7.18-0.59 7.61-0.59L7.61-0.59Q8.04-0.59 8.28-0.86Q8.52-1.13 8.52-1.63L8.52-1.63L8.52-3.26Q8.52-3.76 8.28-4.03Q8.04-4.29 7.61-4.29L7.61-4.29ZM12.79-5Q13.42-5 13.77-4.57Q14.12-4.14 14.12-3.33L14.12-3.33L14.12-1.55Q14.12-0.77 13.71-0.33Q13.31 0.12 12.62 0.12L12.62 0.12Q12.36 0.12 12.06 0.01Q11.77-0.09 11.52-0.23L11.52-0.23L11.52 1.85L10.67 1.85L10.67-4.88L11.47-4.88L11.47-4.17Q12.02-5 12.79-5L12.79-5ZM12.62-4.24Q12.33-4.24 12.03-4.03Q11.74-3.81 11.52-3.44L11.52-3.44L11.52-0.99Q11.73-0.82 11.98-0.72Q12.24-0.63 12.45-0.63L12.45-0.63Q13.27-0.63 13.27-1.67L13.27-1.67L13.27-3.21Q13.27-4.24 12.62-4.24L12.62-4.24ZM16.88-5Q17.74-5 18.13-4.62Q18.53-4.23 18.53-3.39L18.53-3.39L18.53 0L17.72 0L17.72-0.78Q17.14 0.12 16.41 0.12L16.41 0.12Q15.83 0.12 15.48-0.28Q15.14-0.68 15.14-1.37L15.14-1.37L15.14-1.65Q15.14-2.25 15.55-2.65Q15.96-3.04 16.65-3.04L16.65-3.04Q17.03-3.04 17.68-2.91L17.68-2.91L17.68-3.46Q17.68-3.89 17.48-4.08Q17.29-4.27 16.88-4.27L16.88-4.27Q16.40-4.27 15.53-4.12L15.53-4.12L15.53-4.85Q16.47-5 16.88-5L16.88-5ZM16.86-2.38Q16.44-2.38 16.22-2.16Q16-1.94 16-1.54L16-1.54L16-1.43Q16-1.06 16.17-0.85Q16.34-0.64 16.60-0.64L16.60-0.64Q16.87-0.64 17.16-0.88Q17.44-1.11 17.68-1.54L17.68-1.54L17.68-2.31Q17.30-2.38 16.86-2.38L16.86-2.38ZM23.37-6.67Q23.91-6.67 24.78-6.51L24.78-6.51L24.76-5.76Q23.94-5.92 23.37-5.92L23.37-5.92Q22.79-5.92 22.54-5.69Q22.28-5.46 22.28-4.99L22.28-4.99L22.28-4.73Q22.28-4.48 22.34-4.33Q22.41-4.19 22.58-4.08Q22.75-3.98 23.09-3.87L23.09-3.87L24.02-3.56Q24.69-3.33 24.96-2.95Q25.24-2.57 25.24-1.84L25.24-1.84L25.24-1.65Q25.24-0.76 24.73-0.32Q24.21 0.12 23.04 0.12L23.04 0.12Q22.47 0.12 21.58-0.08L21.58-0.08L21.60-0.85Q22.43-0.65 23.02-0.65L23.02-0.65Q23.77-0.65 24.08-0.88Q24.39-1.10 24.39-1.58L24.39-1.58L24.39-1.91Q24.39-2.26 24.23-2.44Q24.08-2.63 23.69-2.76L23.69-2.76L22.66-3.10Q21.97-3.33 21.70-3.70Q21.43-4.06 21.43-4.80L21.43-4.80L21.43-4.91Q21.43-5.78 21.89-6.23Q22.36-6.67 23.37-6.67L23.37-6.67ZM27.78-5Q28.64-5 29.04-4.62Q29.43-4.23 29.43-3.39L29.43-3.39L29.43 0L28.62 0L28.62-0.78Q28.04 0.12 27.31 0.12L27.31 0.12Q26.73 0.12 26.39-0.28Q26.04-0.68 26.04-1.37L26.04-1.37L26.04-1.65Q26.04-2.25 26.45-2.65Q26.86-3.04 27.55-3.04L27.55-3.04Q27.93-3.04 28.58-2.91L28.58-2.91L28.58-3.46Q28.58-3.89 28.38-4.08Q28.19-4.27 27.78-4.27L27.78-4.27Q27.30-4.27 26.43-4.12L26.43-4.12L26.43-4.85Q27.37-5 27.78-5L27.78-5ZM27.76-2.38Q27.34-2.38 27.12-2.16Q26.90-1.94 26.90-1.54L26.90-1.54L26.90-1.43Q26.90-1.06 27.07-0.85Q27.24-0.64 27.50-0.64L27.50-0.64Q27.77-0.64 28.05-0.88Q28.34-1.11 28.58-1.54L28.58-1.54L28.58-2.31Q28.20-2.38 27.76-2.38L27.76-2.38ZM32.91-5Q33.55-5 33.89-4.57Q34.24-4.13 34.24-3.33L34.24-3.33L34.24 0L33.39 0L33.39-3.21Q33.39-4.21 32.74-4.21L32.74-4.21Q32.45-4.21 32.15-3.99Q31.85-3.77 31.63-3.39L31.63-3.39L31.63 0L30.78 0L30.78-4.88L31.58-4.88L31.58-4.15Q31.85-4.56 32.18-4.78Q32.52-5 32.91-5L32.91-5ZM37.04-5Q37.46-5 38.05-4.88L38.05-4.88L38.03-4.16Q37.51-4.28 37.08-4.28L37.08-4.28Q36.18-4.28 36.18-3.70L36.18-3.70L36.18-3.61Q36.18-3.43 36.27-3.32Q36.37-3.21 36.62-3.09L36.62-3.09L37.56-2.65Q38.41-2.25 38.41-1.48L38.41-1.48L38.41-1.26Q38.40-0.57 37.99-0.23Q37.59 0.12 36.72 0.12L36.72 0.12Q36.27 0.12 35.43-0.09L35.43-0.09L35.47-0.85Q36.22-0.63 36.70-0.63L36.70-0.63Q37.19-0.63 37.38-0.77Q37.57-0.90 37.57-1.21L37.57-1.21L37.57-1.31Q37.57-1.55 37.47-1.69Q37.38-1.83 37.16-1.93L37.16-1.93L36.19-2.36Q35.75-2.56 35.54-2.84Q35.34-3.12 35.34-3.49L35.34-3.49L35.34-3.63Q35.36-4.31 35.77-4.66Q36.17-5 37.04-5L37.04-5Z"/></svg>