<svg xmlns="http://www.w3.org/2000/svg" viewBox="5.4 50.82399999999999 481.032 63.36000000000001"><path d="M18 52Q26 52 30 55Q34 59 34 65L34 65L34 66Q34 71 32 74Q30 77 26 78L26 78L38 100L31 100L20 80Q19 80 17 80L17 80Q14 80 12 79L12 79L12 100L5 100L5 52Q13 52 18 52L18 52ZM18 57Q15 57 12 57L12 57L12 74Q15 75 18 75L18 75Q28 75 28 66L28 66L28 65Q28 61 26 59Q23 57 18 57L18 57ZM55 64Q61 64 64 67Q67 71 67 77L67 77L67 88Q67 94 64 97Q61 101 55 101L55 101Q48 101 45 97Q42 94 42 88L42 88L42 77Q42 71 45 67Q48 64 55 64L55 64ZM55 69Q52 69 50 71Q48 73 48 77L48 77L48 88Q48 92 50 94Q52 96 55 96L55 96Q58 96 60 94Q61 92 61 88L61 88L61 77Q61 73 60 71Q58 69 55 69L55 69ZM92 64Q97 64 99 67Q102 70 102 76L102 76L102 89Q102 94 99 98Q96 101 91 101L91 101Q89 101 87 100Q85 99 83 98L83 98L83 113L77 113L77 65L83 65L83 70Q87 64 92 64L92 64ZM91 69Q89 69 87 71Q85 73 83 75L83 75L83 93Q84 94 86 95Q88 95 90 95L90 95Q96 95 96 88L96 88L96 77Q96 69 91 69L91 69ZM122 64Q128 64 131 67Q133 70 133 76L133 76L133 100L128 100L128 94Q123 101 118 101L118 101Q114 101 111 98Q109 95 109 90L109 90L109 88Q109 84 112 81Q115 78 120 78L120 78Q123 78 127 79L127 79L127 75Q127 72 126 71Q124 69 122 69L122 69Q118 69 112 70L112 70L112 65Q119 64 122 64L122 64ZM121 83Q118 83 117 84Q115 86 115 89L115 89L115 90Q115 92 116 94Q118 95 120 95L120 95Q121 95 124 94Q126 92 127 89L127 89L127 83Q125 83 121 83L121 83ZM168 52Q172 52 178 53L178 53L178 59Q172 57 168 57L168 57Q164 57 162 59Q160 61 160 64L160 64L160 66Q160 68 161 69Q161 70 163 71Q164 71 166 72L166 72L173 74Q178 76 180 79Q182 81 182 87L182 87L182 88Q182 95 178 98Q174 101 166 101L166 101Q162 101 155 99L155 99L156 94Q161 95 166 95L166 95Q171 95 173 94Q176 92 176 89L176 89L176 86Q176 84 174 82Q173 81 171 80L171 80L163 78Q158 76 156 73Q154 71 154 65L154 65L154 65Q154 58 158 55Q161 52 168 52L168 52ZM200 64Q206 64 209 67Q212 70 212 76L212 76L212 100L206 100L206 94Q202 101 197 101L197 101Q192 101 190 98Q187 95 187 90L187 90L187 88Q187 84 190 81Q193 78 198 78L198 78Q201 78 206 79L206 79L206 75Q206 72 204 71Q203 69 200 69L200 69Q197 69 190 70L190 70L190 65Q197 64 200 64L200 64ZM200 83Q197 83 195 84Q194 86 194 89L194 89L194 90Q194 92 195 94Q196 95 198 95L198 95Q200 95 202 94Q204 92 206 89L206 89L206 83Q203 83 200 83L200 83ZM237 64Q242 64 244 67Q247 70 247 76L247 76L247 100L240 100L240 77Q240 70 236 70L236 70Q234 70 231 71Q229 73 228 76L228 76L228 100L222 100L222 65L227 65L227 70Q229 67 232 66Q234 64 237 64L237 64ZM267 64Q270 64 274 65L274 65L274 70Q270 69 267 69L267 69Q260 69 260 73L260 73L260 74Q260 75 261 76Q262 77 264 78L264 78L270 81Q277 84 277 89L277 89L277 91Q276 96 274 98Q271 101 264 101L264 101Q261 101 255 99L255 99L255 94Q261 95 264 95L264 95Q268 95 269 94Q271 94 271 91L271 91L271 91Q271 89 270 88Q269 87 268 86L268 86L261 83Q257 82 256 80Q254 78 254 75L254 75L254 74Q255 69 258 66Q260 64 267 64L267 64ZM312 64Q313 64 314 64L314 64L314 71Q313 71 311 71L311 71Q306 71 303 76L303 76L303 100L297 100L297 65L303 65L303 70Q305 67 307 66Q310 64 312 64L312 64ZM331 64Q338 64 341 67Q344 71 344 77L344 77L344 84L325 84L325 89Q325 92 327 94Q329 95 333 95L333 95Q336 95 342 94L342 94L342 100Q336 101 333 101L333 101Q326 101 322 98Q319 95 319 88L319 88L319 77Q319 71 322 67Q325 64 331 64L331 64ZM331 69Q329 69 327 71Q325 73 325 76L325 76L325 79L338 79L338 76Q338 73 336 71Q334 69 331 69L331 69ZM364 64Q367 64 369 65L369 65L381 65L381 70L375 70Q376 73 376 75L376 75L376 77Q376 82 373 85Q370 89 364 89L364 89Q360 89 358 88L358 88Q356 89 356 91L356 91L356 91Q356 93 357 93Q357 94 359 94L359 94L370 95Q374 95 376 97Q378 99 378 103L378 103L378 105Q378 108 376 110Q375 112 372 113Q369 114 363 114L363 114Q360 114 357 114Q354 113 351 112L351 112L351 107Q358 109 363 109L363 109Q367 109 369 108Q370 108 371 107Q372 106 372 104L372 104L372 104Q372 102 371 101Q370 100 368 100L368 100L357 99Q354 99 352 97Q350 96 350 93L350 93L350 91Q350 90 351 88Q352 87 354 86L354 86Q352 84 352 82Q351 80 351 77L351 77L351 75Q351 70 354 67Q358 64 364 64L364 64ZM364 69Q361 69 359 71Q357 72 357 75L357 75L357 77Q357 80 358 81Q358 83 360 83Q361 84 363 84L363 84Q367 84 368 82Q370 80 370 77L370 77L370 75Q370 72 369 70L369 70Q368 70 367 69Q365 69 364 69L364 69ZM411 65L411 100L405 100L405 95Q403 98 401 99Q398 101 396 101L396 101Q391 101 389 98Q386 95 386 89L386 89L386 65L393 65L393 88Q393 92 394 93Q395 95 397 95L397 95Q399 95 401 94Q403 92 405 89L405 89L405 65L411 65ZM421 51L427 51L427 100L421 100L421 51ZM448 64Q454 64 457 67Q460 70 460 76L460 76L460 100L454 100L454 94Q450 101 445 101L445 101Q440 101 438 98Q435 95 435 90L435 90L435 88Q435 84 438 81Q441 78 446 78L446 78Q449 78 454 79L454 79L454 75Q454 72 452 71Q451 69 448 69L448 69Q444 69 438 70L438 70L438 65Q445 64 448 64L448 64ZM448 83Q445 83 443 84Q442 86 442 89L442 89L442 90Q442 92 443 94Q444 95 446 95L446 95Q448 95 450 94Q452 92 454 89L454 89L454 83Q451 83 448 83L448 83ZM485 64Q486 64 486 64L486 64L486 71Q485 71 484 71L484 71Q479 71 476 76L476 76L476 100L470 100L470 65L475 65L475 70Q477 67 480 66Q482 64 485 64L485 64Z"/></svg>