<svg xmlns="http://www.w3.org/2000/svg" viewBox="0.334287109375 -7.2700000000000005 27.065712890624997 7.37"><path d="M0.53 0Q0.42 0 0.37-0.07Q0.32-0.14 0.34-0.24L0.34-0.24L1.72-6.75Q1.74-6.86 1.82-6.93Q1.91-7 2.02-7L2.02-7L4.61-7Q5.67-7 6.25-6.58Q6.82-6.15 6.82-5.35L6.82-5.35Q6.82-5.10 6.76-4.81L6.76-4.81Q6.61-4.08 6.16-3.58Q5.70-3.09 5.02-2.87L5.02-2.87L5.93-0.32Q5.94-0.27 5.93-0.21L5.93-0.21Q5.92-0.12 5.84-0.06Q5.76 0 5.68 0L5.68 0L4.76 0Q4.59 0 4.52-0.07Q4.45-0.15 4.42-0.27L4.42-0.27L3.63-2.64L2.26-2.64L1.75-0.24Q1.73-0.14 1.65-0.07Q1.56 0 1.45 0L1.45 0L0.53 0ZM2.50-3.78L3.90-3.78Q4.49-3.78 4.84-4.04Q5.20-4.31 5.31-4.82L5.31-4.82Q5.34-4.97 5.34-5.11L5.34-5.11Q5.34-5.48 5.09-5.68Q4.84-5.88 4.34-5.88L4.34-5.88L2.94-5.88L2.50-3.78ZM8.78 0.10Q7.97 0.10 7.54-0.31Q7.10-0.72 7.10-1.47L7.10-1.47Q7.10-1.77 7.18-2.15L7.18-2.15L7.77-4.96Q7.79-5.06 7.88-5.13Q7.96-5.20 8.07-5.20L8.07-5.20L8.96-5.20Q9.07-5.20 9.12-5.13Q9.17-5.06 9.15-4.96L9.15-4.96L8.57-2.21Q8.50-1.86 8.50-1.68L8.50-1.68Q8.50-1.33 8.69-1.16Q8.88-0.98 9.31-0.98L9.31-0.98Q9.85-0.98 10.25-1.31Q10.64-1.64 10.77-2.21L10.77-2.21L11.35-4.96Q11.37-5.06 11.46-5.13Q11.54-5.20 11.64-5.20L11.64-5.20L12.54-5.20Q12.64-5.20 12.69-5.13Q12.74-5.06 12.72-4.96L12.72-4.96L11.72-0.24Q11.70-0.14 11.62-0.07Q11.54 0 11.44 0L11.44 0L10.61 0Q10.50 0 10.45-0.07Q10.39-0.14 10.41-0.24L10.41-0.24L10.50-0.65Q10.13-0.25 9.76-0.07Q9.39 0.10 8.78 0.10L8.78 0.10ZM15.92 0.10Q15.37 0.10 14.99-0.10Q14.60-0.29 14.42-0.61L14.42-0.61L14.34-0.24Q14.32-0.13 14.24-0.07Q14.15 0 14.05 0L14.05 0L13.24 0Q13.13 0 13.08-0.07Q13.03-0.14 13.05-0.24L13.05-0.24L14.46-6.86Q14.48-6.97 14.57-7.04Q14.65-7.10 14.75-7.10L14.75-7.10L15.62-7.10Q15.73-7.10 15.78-7.03Q15.83-6.96 15.81-6.86L15.81-6.86L15.34-4.64Q15.68-4.96 16.05-5.13Q16.41-5.30 16.91-5.30L16.91-5.30Q17.78-5.30 18.23-4.82Q18.69-4.33 18.69-3.51L18.69-3.51Q18.69-3.28 18.64-2.96L18.64-2.96Q18.59-2.63 18.49-2.25L18.49-2.25Q18.22-1.16 17.57-0.53Q16.92 0.10 15.92 0.10L15.92 0.10ZM15.69-0.98Q16.72-0.98 17.13-2.30L17.13-2.30Q17.22-2.60 17.25-2.90L17.25-2.90Q17.29-3.22 17.29-3.35L17.29-3.35Q17.29-3.76 17.10-3.99Q16.91-4.22 16.45-4.22L16.45-4.22Q15.89-4.22 15.50-3.87Q15.11-3.51 14.99-3.02L14.99-3.02Q14.89-2.59 14.83-2.25L14.83-2.25Q14.80-2.07 14.80-1.90L14.80-1.90Q14.80-1.49 15.01-1.24Q15.22-0.98 15.69-0.98L15.69-0.98ZM20.61-6.05Q20.51-6.05 20.45-6.12Q20.40-6.19 20.42-6.29L20.42-6.29L20.58-7.02Q20.59-7.12 20.68-7.20Q20.76-7.27 20.87-7.27L20.87-7.27L21.79-7.27Q21.89-7.27 21.95-7.20Q22.01-7.13 21.99-7.02L21.99-7.02L21.83-6.29Q21.81-6.19 21.73-6.12Q21.64-6.05 21.54-6.05L21.54-6.05L20.61-6.05ZM19.37 0Q19.26 0 19.20-0.07Q19.15-0.14 19.17-0.24L19.17-0.24L20.18-4.96Q20.20-5.07 20.29-5.13Q20.37-5.20 20.47-5.20L20.47-5.20L21.32-5.20Q21.42-5.20 21.47-5.13Q21.52-5.06 21.50-4.96L21.50-4.96L20.50-0.24Q20.48-0.14 20.40-0.07Q20.32 0 20.22 0L20.22 0L19.37 0ZM22.02 0Q21.91 0 21.85-0.07Q21.80-0.14 21.82-0.24L21.82-0.24L23.24-6.86Q23.26-6.97 23.34-7.04Q23.42-7.10 23.52-7.10L23.52-7.10L24.35-7.10Q24.46-7.10 24.51-7.03Q24.57-6.96 24.55-6.86L24.55-6.86L23.83-3.49L25.77-5.03Q25.80-5.05 25.88-5.11Q25.95-5.16 26.02-5.18Q26.09-5.20 26.18-5.20L26.18-5.20L27.22-5.20Q27.30-5.20 27.35-5.16Q27.40-5.11 27.40-5.04L27.40-5.04Q27.40-4.90 27.26-4.80L27.26-4.80L24.80-2.80L26.55-0.35Q26.60-0.28 26.60-0.22L26.60-0.22Q26.60-0.13 26.53-0.07Q26.46 0 26.36 0L26.36 0L25.43 0Q25.22 0 25.12-0.16L25.12-0.16L23.57-2.29L23.13-0.24Q23.11-0.13 23.03-0.07Q22.95 0 22.85 0L22.85 0L22.02 0Z"/></svg>