<svg xmlns="http://www.w3.org/2000/svg" viewBox="3.1237031250000005 48.37599999999999 360.40429687499994 52.34400000000001"><path d="M4 100Q4 100 3 100Q3 99 3 98L3 98L13 51Q13 51 14 50Q14 50 15 50L15 50L33 50Q40 50 44 52Q47 55 47 61L47 61Q47 62 47 65L47 65Q46 70 42 74Q39 77 34 79L34 79L41 98Q41 98 41 99L41 99Q41 99 40 100Q40 100 39 100L39 100L36 100Q35 100 34 99Q34 99 33 98L33 98L27 80L14 80L10 98Q10 99 9 100Q9 100 8 100L8 100L4 100ZM15 74L27 74Q38 74 40 65L40 65Q40 63 40 62L40 62Q40 55 31 55L31 55L19 55L15 74ZM63 101Q56 101 53 98Q50 95 50 89L50 89Q50 87 51 85L51 85L55 64Q55 63 56 63Q56 63 57 63L57 63L61 63Q61 63 62 63Q62 63 62 64L62 64L58 84Q57 87 57 89L57 89Q57 92 59 94Q60 95 64 95L64 95Q69 95 73 92Q76 89 77 84L77 84L81 64Q82 63 82 63Q83 63 83 63L83 63L87 63Q87 63 88 63Q88 63 88 64L88 64L81 98Q81 99 80 100Q79 100 79 100L79 100L76 100Q75 100 75 100Q74 99 74 98L74 98L75 95Q72 98 70 99Q67 101 63 101L63 101ZM110 101Q105 101 103 99Q100 98 99 95L99 95L98 98Q98 99 97 100Q97 100 96 100L96 100L93 100Q92 100 92 100Q92 99 92 98L92 98L102 51Q102 50 102 49Q103 49 104 49L104 49L107 49Q108 49 108 49Q109 50 108 51L108 51L105 67Q107 65 110 63Q113 62 117 62L117 62Q123 62 127 65Q130 69 130 75L130 75Q130 77 129 79L129 79Q129 82 128 84L128 84Q126 91 122 96Q117 101 110 101L110 101ZM109 95Q118 95 122 83L122 83Q122 82 123 79L123 79Q123 77 123 75L123 75Q123 72 121 70Q120 67 116 67L116 67Q112 67 109 69Q107 71 105 73Q103 76 102 78L102 78Q102 81 101 84L101 84Q101 85 101 87L101 87Q101 90 103 93Q105 95 109 95L109 95ZM145 56Q144 56 143 55Q143 55 143 54L143 54L144 50Q144 49 145 49Q145 48 146 48L146 48L150 48Q151 48 151 49Q152 49 152 50L152 50L151 54Q151 55 150 55Q150 56 149 56L149 56L145 56ZM136 100Q135 100 135 100Q134 99 134 98L134 98L142 64Q142 63 142 63Q143 63 144 63L144 63L147 63Q147 63 148 63Q148 63 148 64L148 64L141 98Q141 99 140 100Q140 100 139 100L139 100L136 100ZM153 100Q152 100 152 100Q151 99 152 98L152 98L162 51Q162 50 163 49Q163 49 164 49L164 49L167 49Q168 49 168 49Q168 50 168 51L168 51L163 75L179 64Q181 63 181 63Q182 63 183 63L183 63L187 63Q187 63 188 63Q188 63 188 64L188 64Q188 65 187 65L187 65L167 79L182 97Q182 98 182 98L182 98Q182 99 182 100Q181 100 181 100L181 100L177 100Q177 100 176 100Q176 99 175 99Q175 99 175 99L175 99L161 83L158 98Q158 99 157 100Q157 100 156 100L156 100L153 100ZM216 56Q215 56 215 55Q214 55 215 54L215 54L215 50Q216 49 216 49Q217 48 217 48L217 48L222 48Q222 48 223 49Q223 49 223 50L223 50L222 54Q222 55 222 55Q221 56 220 56L220 56L216 56ZM207 100Q206 100 206 100Q206 99 206 98L206 98L213 64Q213 63 214 63Q214 63 215 63L215 63L218 63Q219 63 219 63Q220 63 220 64L220 64L212 98Q212 99 212 100Q211 100 210 100L210 100L207 100ZM238 100Q232 100 230 98Q228 96 228 92L228 92Q228 90 228 87L228 87L232 68L227 68Q226 68 226 68Q225 67 225 67L225 67L226 64Q226 63 227 63Q227 63 228 63L228 63L234 63L236 51Q236 50 237 49Q237 49 238 49L238 49L241 49Q242 49 242 49Q243 50 243 51L243 51L240 63L249 63Q250 63 250 63Q250 63 250 64L250 64L250 67Q250 67 249 68Q248 68 248 68L248 68L239 68L235 87Q234 90 234 91L234 91Q234 93 235 94Q236 94 238 94L238 94L243 94Q244 94 244 95Q244 95 244 96L244 96L244 98Q244 99 243 100Q242 100 242 100L242 100L238 100ZM264 101Q258 101 255 97Q252 94 252 88L252 88Q252 86 252 83L252 83Q252 82 253 79L253 79Q255 71 259 67Q264 62 271 62L271 62Q276 62 278 63Q281 65 282 67L282 67L283 64Q283 63 283 63Q284 63 285 63L285 63L288 63Q288 63 289 63Q289 63 289 64L289 64L282 98Q282 99 281 100Q281 100 280 100L280 100L277 100Q276 100 276 100Q275 99 275 98L275 98L276 95Q273 98 271 99Q268 101 264 101L264 101ZM265 95Q270 95 274 92Q277 88 278 84L278 84Q279 80 280 78L280 78Q280 76 280 76L280 76Q280 72 278 70Q276 67 272 67L272 67Q267 67 264 71Q261 74 260 79L260 79Q259 81 259 83L259 83Q258 86 258 87L258 87Q258 95 265 95L265 95ZM294 100Q293 100 293 100Q292 99 293 98L293 98L303 51Q303 50 304 49Q304 49 305 49L305 49L308 49Q309 49 309 49Q309 50 309 51L309 51L299 98Q299 99 298 100Q298 100 297 100L297 100L294 100ZM320 56Q320 56 319 55Q319 55 319 54L319 54L320 50Q320 49 320 49Q321 48 322 48L322 48L326 48Q327 48 327 49Q328 49 327 50L327 50L327 54Q326 55 326 55Q325 56 325 56L325 56L320 56ZM311 100Q311 100 310 100Q310 99 310 98L310 98L317 64Q317 63 318 63Q319 63 319 63L319 63L322 63Q323 63 324 63Q324 63 324 64L324 64L317 98Q316 99 316 100Q315 100 315 100L315 100L311 100ZM342 101Q336 101 332 97Q328 94 328 88L328 88Q328 86 329 84L329 84Q330 80 330 78L330 78Q332 70 337 66Q342 62 350 62L350 62Q355 62 358 63Q361 65 362 68Q364 70 364 73L364 73Q364 74 363 74L363 74Q363 75 363 75Q363 76 362 76L362 76L358 76Q358 76 357 75Q357 75 357 74L357 74Q357 67 349 67L349 67Q345 67 341 70Q338 73 336 79L336 79L335 84Q335 86 335 87L335 87Q335 95 343 95L343 95Q350 95 354 89L354 89Q354 88 355 88Q355 87 356 87L356 87L359 87Q360 87 360 88Q361 88 360 89L360 89Q359 92 357 94Q355 97 351 99Q348 101 342 101L342 101Z"/></svg>