<svg xmlns="http://www.w3.org/2000/svg" viewBox="0.11500000000000002 -7.5 30.385 7.6"><path d="M0.33 0Q0.22 0 0.16-0.08Q0.10-0.16 0.12-0.27L0.12-0.27L1.49-6.73Q1.51-6.84 1.61-6.92Q1.71-7 1.82-7L1.82-7L4.78-7Q6.03-7 6.71-6.50Q7.38-6.01 7.38-5.12L7.38-5.12Q7.38-4.86 7.32-4.57L7.32-4.57Q7.18-3.92 6.79-3.43Q6.39-2.93 5.83-2.61L5.83-2.61L6.57-0.33Q6.59-0.26 6.58-0.22L6.58-0.22Q6.56-0.13 6.48-0.07Q6.40 0 6.31 0L6.31 0L4.26 0Q4.08 0 4.00-0.09Q3.91-0.17 3.89-0.27L3.89-0.27L3.44-2.18L3.03-2.18L2.62-0.27Q2.60-0.16 2.50-0.08Q2.40 0 2.29 0L2.29 0L0.33 0ZM3.43-4.08L4.16-4.08Q4.42-4.08 4.58-4.28Q4.74-4.48 4.74-4.74L4.74-4.74Q4.74-4.92 4.66-5.03Q4.57-5.14 4.38-5.14L4.38-5.14L3.65-5.14L3.43-4.08ZM9 0.10Q8.31 0.10 7.84-0.31Q7.38-0.72 7.38-1.52L7.38-1.52Q7.38-1.83 7.45-2.17L7.45-2.17L8.03-4.93Q8.05-5.04 8.15-5.12Q8.25-5.20 8.36-5.20L8.36-5.20L10.27-5.20Q10.38-5.20 10.44-5.12Q10.50-5.04 10.48-4.93L10.48-4.93L9.91-2.24Q9.89-2.10 9.89-2.06L9.89-2.06Q9.89-1.69 10.29-1.69L10.29-1.69Q10.53-1.69 10.69-1.83Q10.85-1.97 10.91-2.24L10.91-2.24L11.48-4.93Q11.50-5.04 11.60-5.12Q11.70-5.20 11.81-5.20L11.81-5.20L13.71-5.20Q13.82-5.20 13.88-5.12Q13.94-5.04 13.92-4.93L13.92-4.93L12.93-0.27Q12.91-0.16 12.81-0.08Q12.72 0 12.61 0L12.61 0L10.86 0Q10.75 0 10.68-0.08Q10.62-0.16 10.64-0.27L10.64-0.27L10.71-0.60Q10.38-0.23 9.99-0.07Q9.60 0.10 9 0.10L9 0.10ZM17.57 0.10Q17.06 0.10 16.68-0.06Q16.30-0.22 16.12-0.50L16.12-0.50L16.07-0.27Q16.05-0.16 15.95-0.08Q15.86 0 15.75 0L15.75 0L14.05 0Q13.94 0 13.88-0.08Q13.81-0.16 13.83-0.27L13.83-0.27L15.23-6.83Q15.25-6.94 15.34-7.02Q15.44-7.10 15.55-7.10L15.55-7.10L17.40-7.10Q17.51-7.10 17.57-7.02Q17.64-6.94 17.62-6.83L17.62-6.83L17.19-4.83Q17.50-5.06 17.81-5.18Q18.12-5.30 18.52-5.30L18.52-5.30Q19.32-5.30 19.81-4.86Q20.30-4.42 20.30-3.57L20.30-3.57Q20.30-3.25 20.25-3L20.25-3Q20.18-2.59 20.08-2.21L20.08-2.21Q19.50 0.10 17.57 0.10L17.57 0.10ZM17.02-1.69Q17.28-1.69 17.41-1.83Q17.55-1.97 17.65-2.27L17.65-2.27Q17.76-2.64 17.79-2.93L17.79-2.93L17.80-3.10Q17.80-3.31 17.71-3.41Q17.63-3.51 17.41-3.51L17.41-3.51Q16.94-3.51 16.80-3.01L16.80-3.01Q16.70-2.63 16.65-2.27L16.65-2.27Q16.63-2.11 16.63-2.06L16.63-2.06Q16.63-1.69 17.02-1.69L17.02-1.69ZM21.92-5.75Q21.81-5.75 21.75-5.83Q21.68-5.91 21.70-6.02L21.70-6.02L21.96-7.23Q21.98-7.34 22.08-7.42Q22.18-7.50 22.29-7.50L22.29-7.50L23.98-7.50Q24.09-7.50 24.15-7.42Q24.21-7.34 24.19-7.23L24.19-7.23L23.93-6.02Q23.91-5.91 23.82-5.83Q23.72-5.75 23.61-5.75L23.61-5.75L21.92-5.75ZM20.65 0Q20.54 0 20.48-0.08Q20.41-0.16 20.43-0.27L20.43-0.27L21.42-4.93Q21.44-5.04 21.54-5.12Q21.64-5.20 21.75-5.20L21.75-5.20L23.54-5.20Q23.65-5.20 23.71-5.12Q23.77-5.04 23.75-4.93L23.75-4.93L22.76-0.27Q22.74-0.16 22.64-0.08Q22.55 0 22.44 0L22.44 0L20.65 0ZM23.88 0Q23.77 0 23.71-0.08Q23.64-0.16 23.66-0.27L23.66-0.27L25.06-6.83Q25.08-6.94 25.18-7.02Q25.27-7.10 25.38-7.10L25.38-7.10L27.13-7.10Q27.24-7.10 27.30-7.02Q27.37-6.94 27.35-6.83L27.35-6.83L26.66-3.59L27.84-5.03Q27.98-5.20 28.17-5.20L28.17-5.20L30.29-5.20Q30.39-5.20 30.45-5.15Q30.50-5.10 30.50-5.03L30.50-5.03Q30.50-4.93 30.40-4.81L30.40-4.81L28.62-2.68L29.60-0.37Q29.63-0.31 29.63-0.25L29.63-0.25Q29.63-0.15 29.55-0.07Q29.47 0 29.33 0L29.33 0L27.33 0Q27.12 0 27.05-0.17L27.05-0.17L26.31-2.03L25.95-0.27Q25.93-0.16 25.84-0.08Q25.74 0 25.63 0L25.63 0L23.88 0Z"/></svg>