<svg xmlns="http://www.w3.org/2000/svg" viewBox="2.406857142857143 47.65599999999999 677.4891428571432 53.06400000000001"><path d="M4 100Q3 100 3 99Q2 99 2 98L2 98L12 51Q13 51 13 50Q14 50 15 50L15 50L33 50Q41 50 45 53Q49 56 49 61L49 61Q49 63 49 65L49 65Q48 71 44 74Q41 78 36 79L36 79L43 98Q43 98 43 98L43 98Q43 99 42 100Q41 100 41 100L41 100L34 100Q33 100 33 99Q32 99 32 98L32 98L26 81L16 81L13 98Q12 99 12 99Q11 100 10 100L10 100L4 100ZM18 73L28 73Q32 73 35 71Q37 69 38 65L38 65Q38 64 38 63L38 63Q38 61 37 59Q35 58 31 58L31 58L21 58L18 73ZM63 101Q57 101 54 98Q51 95 51 89L51 89Q51 87 52 85L52 85L56 64Q56 64 57 63Q57 63 58 63L58 63L65 63Q65 63 66 63Q66 64 66 64L66 64L62 84Q61 87 61 88L61 88Q61 90 63 92Q64 93 67 93L67 93Q71 93 74 91Q77 88 78 84L78 84L82 64Q82 64 82 63Q83 63 84 63L84 63L90 63Q91 63 91 63Q92 64 92 64L92 64L84 98Q84 99 84 99Q83 100 82 100L82 100L76 100Q76 100 75 99Q75 99 75 98L75 98L76 95Q73 98 70 99Q68 101 63 101L63 101ZM115 101Q111 101 108 99Q105 98 104 96L104 96L103 98Q103 99 102 100Q102 100 101 100L101 100L95 100Q95 100 94 99Q94 99 94 98L94 98L104 51Q104 50 105 49Q105 49 106 49L106 49L112 49Q113 49 114 49Q114 50 114 51L114 51L110 67Q113 64 116 63Q118 62 122 62L122 62Q128 62 131 65Q135 69 135 75L135 75Q135 76 134 79L134 79Q134 81 133 84L133 84Q131 92 127 96Q122 101 115 101L115 101ZM113 93Q120 93 123 83L123 83Q124 81 124 79L124 79Q124 77 124 76L124 76Q124 73 123 71Q122 70 118 70L118 70Q114 70 112 72Q109 75 108 78L108 78Q107 81 107 84L107 84Q107 85 107 86L107 86Q107 89 108 91Q110 93 113 93L113 93ZM148 56Q148 56 147 56Q147 55 147 55L147 55L148 49Q148 49 149 48Q149 48 150 48L150 48L157 48Q158 48 158 48Q158 49 158 49L158 49L157 55Q157 55 156 56Q156 56 155 56L155 56L148 56ZM139 100Q139 100 138 99Q138 99 138 98L138 98L145 64Q145 63 146 63Q147 63 147 63L147 63L154 63Q154 63 155 63Q155 64 155 64L155 64L148 98Q147 99 147 99Q146 100 146 100L146 100L139 100ZM159 100Q158 100 157 99Q157 99 157 98L157 98L167 51Q167 50 168 49Q169 49 169 49L169 49L175 49Q176 49 177 49Q177 50 177 51L177 51L172 75L186 64Q186 64 186 63Q187 63 187 63Q188 63 188 63L188 63L196 63Q197 63 197 63Q197 63 197 64L197 64Q197 65 196 65L196 65L179 80L191 97Q192 98 192 98L192 98Q192 99 191 100Q191 100 190 100L190 100L183 100Q182 100 181 99L181 99L170 84L167 98Q166 99 166 100Q165 100 165 100L165 100L159 100ZM215 100Q214 100 213 99Q213 99 213 98L213 98L220 64Q221 63 221 63Q222 63 222 63L222 63L228 63Q229 63 229 63Q230 63 229 64L229 64L229 67Q231 64 234 63Q236 62 240 62L240 62Q244 62 247 64Q249 65 250 68L250 68Q256 62 263 62L263 62Q268 62 271 65Q274 68 274 73L274 73Q274 75 273 78L273 78L269 98Q269 99 268 100Q268 100 267 100L267 100L261 100Q260 100 260 99Q259 99 260 98L260 98L264 78Q264 77 264 75L264 75Q264 70 259 70L259 70Q256 70 254 72Q251 74 250 78L250 78L246 98Q246 99 245 100Q245 100 244 100L244 100L238 100Q237 100 237 99Q236 99 236 98L236 98L241 78Q241 77 241 75L241 75Q241 72 240 71Q238 70 236 70L236 70Q233 70 231 72Q228 74 227 78L227 78L223 98Q223 99 222 100Q221 100 221 100L221 100L215 100ZM295 101Q288 101 284 97Q281 94 281 87L281 87Q281 85 281 83L281 83Q281 83 282 79L282 79Q284 71 289 67Q295 62 303 62L303 62Q310 62 314 65Q318 69 318 75L318 75Q318 78 317 81L317 81L317 82Q316 83 316 84Q315 84 314 84L314 84L291 84L290 85Q290 86 290 87L290 87Q290 90 292 92Q293 94 296 94L296 94Q300 94 304 91L304 91Q304 90 305 90Q305 89 306 89L306 89L313 89Q313 89 314 90Q314 90 314 91L314 91Q313 93 311 95Q308 97 304 99Q300 101 295 101L295 101ZM292 78L308 78L308 78Q308 76 308 75L308 75Q308 72 306 70Q305 68 302 68L302 68Q298 68 295 71Q293 74 292 78L292 78L292 78ZM334 101Q327 101 324 97Q321 94 321 88L321 88Q321 86 321 84L321 84Q322 82 322 79L322 79Q324 71 329 67Q334 62 341 62L341 62Q345 62 347 63Q350 64 351 67L351 67L355 51Q355 50 355 49Q356 49 357 49L357 49L363 49Q364 49 364 49Q365 50 364 51L364 51L354 98Q354 99 354 99Q353 100 352 100L352 100L346 100Q346 100 345 99Q345 99 345 98L345 98L346 96Q343 98 340 99Q338 101 334 101L334 101ZM337 93Q341 93 344 90Q347 88 348 84L348 84Q348 81 349 78L349 78Q349 77 349 76L349 76Q349 73 347 71Q346 70 342 70L342 70Q338 70 336 72Q333 75 332 79L332 79Q331 82 331 83L331 83Q331 86 331 86L331 86Q331 93 337 93L337 93ZM374 56Q373 56 373 56Q373 55 373 55L373 55L374 49Q374 49 375 48Q375 48 376 48L376 48L383 48Q383 48 384 48Q384 49 384 49L384 49L383 55Q383 55 382 56Q382 56 381 56L381 56L374 56ZM365 100Q364 100 364 99Q364 99 364 98L364 98L371 64Q371 63 372 63Q372 63 373 63L373 63L379 63Q380 63 380 63Q381 64 381 64L381 64L373 98Q373 99 373 99Q372 100 371 100L371 100L365 100ZM397 101Q391 101 388 98Q385 95 385 89L385 89Q385 87 385 85L385 85L390 64Q390 64 390 63Q391 63 392 63L392 63L398 63Q399 63 399 63Q400 64 400 64L400 64L395 84Q395 87 395 88L395 88Q395 90 396 92Q398 93 401 93L401 93Q405 93 408 91Q410 88 411 84L411 84L416 64Q416 64 416 63Q417 63 418 63L418 63L424 63Q425 63 425 63Q426 64 425 64L425 64L418 98Q418 99 417 99Q417 100 416 100L416 100L410 100Q409 100 409 99Q409 99 409 98L409 98L409 95Q407 98 404 99Q401 101 397 101L397 101ZM429 100Q428 100 428 99Q428 99 428 98L428 98L435 64Q435 63 436 63Q436 63 437 63L437 63L443 63Q443 63 444 63Q444 63 444 64L444 64L444 67Q446 64 448 63Q451 62 454 62L454 62Q458 62 461 64Q464 65 465 68L465 68Q470 62 477 62L477 62Q482 62 485 65Q489 68 489 73L489 73Q489 75 488 78L488 78L484 98Q483 99 483 100Q482 100 482 100L482 100L476 100Q475 100 474 99Q474 99 474 98L474 98L478 78Q479 77 479 75L479 75Q479 70 474 70L474 70Q471 70 468 72Q466 74 465 78L465 78L460 98Q460 99 460 100Q459 100 458 100L458 100L452 100Q452 100 451 99Q451 99 451 98L451 98L455 78Q456 77 456 75L456 75Q456 72 454 71Q453 70 451 70L451 70Q448 70 445 72Q443 74 442 78L442 78L437 98Q437 99 437 100Q436 100 435 100L435 100L429 100ZM520 56Q519 56 519 56Q518 55 518 55L518 55L520 49Q520 49 520 48Q521 48 522 48L522 48L528 48Q529 48 529 48Q530 49 530 49L530 49L529 55Q528 55 528 56Q527 56 527 56L527 56L520 56ZM511 100Q510 100 510 99Q509 99 509 98L509 98L517 64Q517 63 518 63Q518 63 519 63L519 63L525 63Q526 63 526 63Q526 64 526 64L526 64L519 98Q519 99 518 99Q518 100 517 100L517 100L511 100ZM546 100Q540 100 537 98Q534 95 534 91L534 91Q534 89 535 87L535 87L538 70L532 70Q532 70 531 70Q531 69 531 69L531 69L532 64Q532 64 533 63Q533 63 534 63L534 63L540 63L542 51Q542 50 543 49Q544 49 544 49L544 49L550 49Q551 49 551 49Q552 50 552 51L552 51L549 63L558 63Q559 63 559 63Q560 64 559 64L559 64L559 69Q558 69 558 70Q557 70 556 70L556 70L547 70L544 86Q544 88 544 89L544 89Q544 91 544 91Q545 92 547 92L547 92L552 92Q553 92 554 93Q554 93 554 94L554 94L553 98Q553 99 552 100Q552 100 551 100L551 100L546 100ZM573 101Q567 101 564 97Q560 94 560 88L560 88Q560 86 561 84L561 84Q561 82 562 79L562 79Q564 71 568 66Q573 62 580 62L580 62Q585 62 587 63Q589 64 591 67L591 67L591 64Q591 63 592 63Q593 63 593 63L593 63L599 63Q600 63 600 63Q601 64 601 64L601 64L593 98Q593 99 593 100Q592 100 591 100L591 100L586 100Q585 100 584 99Q584 99 584 98L584 98L585 96Q582 98 579 99Q577 101 573 101L573 101ZM576 93Q580 93 583 90Q586 88 587 84L587 84Q587 81 588 78L588 78Q588 77 588 76L588 76Q588 73 587 71Q585 70 582 70L582 70Q574 70 572 79L572 79Q571 81 571 83L571 83Q570 86 570 87L570 87Q570 90 572 91Q573 93 576 93L576 93ZM604 100Q604 100 603 99Q603 99 603 98L603 98L613 51Q613 50 614 49Q614 49 615 49L615 49L621 49Q622 49 622 49Q623 50 623 51L623 51L612 98Q612 99 612 99Q611 100 610 100L610 100L604 100ZM632 56Q632 56 631 56Q631 55 631 55L631 55L632 49Q632 49 633 48Q633 48 634 48L634 48L641 48Q642 48 642 48Q642 49 642 49L642 49L641 55Q641 55 640 56Q640 56 639 56L639 56L632 56ZM623 100Q623 100 622 99Q622 99 622 98L622 98L629 64Q629 63 630 63Q631 63 631 63L631 63L637 63Q638 63 639 63Q639 64 639 64L639 64L632 98Q631 99 631 99Q630 100 630 100L630 100L623 100ZM657 101Q651 101 646 97Q642 94 642 87L642 87Q642 86 643 84L643 84Q643 80 644 78L644 78Q646 70 651 66Q656 62 664 62L664 62Q670 62 673 64Q677 66 678 68Q680 71 680 74L680 74Q680 74 680 75L680 75Q680 75 679 76Q679 76 678 76L678 76L671 76Q671 76 670 76Q670 76 670 75L670 75Q670 69 664 69L664 69Q660 69 657 72Q655 74 654 79L654 79Q653 79 653 84L653 84Q652 85 652 87L652 87Q652 93 658 93L658 93Q664 93 667 88L667 88Q667 87 668 87Q668 86 669 86L669 86L676 86Q676 86 677 87Q677 87 677 88L677 88Q676 91 674 94Q672 97 667 99Q663 101 657 101L657 101Z"/></svg>