<svg xmlns="http://www.w3.org/2000/svg" viewBox="0.88 -7.17 25 7.27"><path d="M1.10 0Q1 0 0.94-0.07Q0.88-0.13 0.88-0.23L0.88-0.23L0.88-6.76Q0.88-6.87 0.94-6.94Q1-7 1.10-7L1.10-7L3.54-7Q4.68-7 5.33-6.46Q5.97-5.93 5.97-4.91L5.97-4.91Q5.97-4.15 5.59-3.66Q5.21-3.17 4.53-2.98L4.53-2.98L6.07-0.31Q6.10-0.25 6.10-0.20L6.10-0.20Q6.10-0.12 6.04-0.06Q5.98 0 5.90 0L5.90 0L5.46 0Q5.31 0 5.23-0.07Q5.14-0.14 5.07-0.27L5.07-0.27L3.60-2.83L1.82-2.83L1.82-0.23Q1.82-0.13 1.75-0.07Q1.68 0 1.58 0L1.58 0L1.10 0ZM1.82-3.65L3.50-3.65Q5.01-3.65 5.01-4.92L5.01-4.92Q5.01-6.19 3.50-6.19L3.50-6.19L1.82-6.19L1.82-3.65ZM9.23 0.10Q8.28 0.10 7.76-0.52Q7.24-1.13 7.24-2.15L7.24-2.15L7.24-4.97Q7.24-5.07 7.30-5.13Q7.37-5.20 7.47-5.20L7.47-5.20L7.93-5.20Q8.03-5.20 8.10-5.13Q8.16-5.07 8.16-4.97L8.16-4.97L8.16-2.20Q8.16-0.68 9.48-0.68L9.48-0.68Q10.12-0.68 10.50-1.08Q10.87-1.49 10.87-2.20L10.87-2.20L10.87-4.97Q10.87-5.07 10.94-5.13Q11-5.20 11.10-5.20L11.10-5.20L11.56-5.20Q11.66-5.20 11.73-5.13Q11.79-5.07 11.79-4.97L11.79-4.97L11.79-0.23Q11.79-0.13 11.73-0.07Q11.66 0 11.56 0L11.56 0L11.13 0Q11.03 0 10.96-0.07Q10.90-0.13 10.90-0.23L10.90-0.23L10.90-0.68Q10.61-0.29 10.22-0.10Q9.83 0.10 9.23 0.10L9.23 0.10ZM15.83 0.10Q14.75 0.10 14.18-0.66L14.18-0.66L14.18-0.23Q14.18-0.13 14.11-0.07Q14.05 0 13.95 0L13.95 0L13.53 0Q13.43 0 13.36-0.07Q13.30-0.13 13.30-0.23L13.30-0.23L13.30-6.87Q13.30-6.98 13.36-7.04Q13.43-7.10 13.53-7.10L13.53-7.10L13.98-7.10Q14.08-7.10 14.14-7.04Q14.21-6.97 14.21-6.87L14.21-6.87L14.21-4.56Q14.77-5.30 15.83-5.30L15.83-5.30Q16.88-5.30 17.41-4.62Q17.93-3.93 17.96-2.90L17.96-2.90Q17.97-2.79 17.97-2.60L17.97-2.60Q17.97-2.41 17.96-2.30L17.96-2.30Q17.93-1.27 17.41-0.58Q16.88 0.10 15.83 0.10L15.83 0.10ZM15.64-0.68Q16.36-0.68 16.69-1.13Q17.02-1.58 17.05-2.31L17.05-2.31Q17.06-2.41 17.06-2.60L17.06-2.60Q17.06-4.52 15.64-4.52L15.64-4.52Q14.96-4.52 14.59-4.08Q14.23-3.63 14.21-3.02L14.21-3.02Q14.20-2.91 14.20-2.63L14.20-2.63Q14.20-2.36 14.21-2.25L14.21-2.25Q14.23-1.61 14.58-1.15Q14.94-0.68 15.64-0.68L15.64-0.68ZM19.38-6.18Q19.28-6.18 19.21-6.25Q19.15-6.31 19.15-6.41L19.15-6.41L19.15-6.93Q19.15-7.03 19.21-7.10Q19.28-7.17 19.38-7.17L19.38-7.17L19.97-7.17Q20.07-7.17 20.14-7.10Q20.21-7.03 20.21-6.93L20.21-6.93L20.21-6.41Q20.21-6.31 20.14-6.25Q20.07-6.18 19.97-6.18L19.97-6.18L19.38-6.18ZM19.46 0Q19.36 0 19.30-0.07Q19.23-0.13 19.23-0.23L19.23-0.23L19.23-4.97Q19.23-5.07 19.30-5.13Q19.36-5.20 19.46-5.20L19.46-5.20L19.90-5.20Q20-5.20 20.07-5.13Q20.13-5.07 20.13-4.97L20.13-4.97L20.13-0.23Q20.13-0.13 20.07-0.07Q20 0 19.90 0L19.90 0L19.46 0ZM21.87 0Q21.77 0 21.70-0.07Q21.64-0.13 21.64-0.23L21.64-0.23L21.64-6.87Q21.64-6.98 21.70-7.04Q21.77-7.10 21.87-7.10L21.87-7.10L22.30-7.10Q22.40-7.10 22.46-7.04Q22.53-6.97 22.53-6.87L22.53-6.87L22.53-3.38L24.53-5.03Q24.68-5.14 24.74-5.17Q24.80-5.20 24.93-5.20L24.93-5.20L25.43-5.20Q25.52-5.20 25.57-5.15Q25.63-5.09 25.63-4.99L25.63-4.99Q25.63-4.90 25.52-4.80L25.52-4.80L23.18-2.88L25.77-0.40Q25.88-0.29 25.88-0.21L25.88-0.21Q25.88-0.12 25.82-0.06Q25.77 0 25.68 0L25.68 0L25.19 0Q25.04 0 24.97-0.03Q24.91-0.06 24.79-0.17L24.79-0.17L22.53-2.31L22.53-0.23Q22.53-0.13 22.46-0.07Q22.40 0 22.30 0L22.30 0L21.87 0Z"/></svg>