<svg xmlns="http://www.w3.org/2000/svg" viewBox="1.7617500000000004 46.93599999999999 573.8062500000001 53.784000000000006"><path d="M3 100Q2 100 2 99Q2 99 2 98L2 98L12 51Q12 51 12 50Q13 50 14 50L14 50L34 50Q42 50 46 53Q51 56 51 62L51 62Q51 64 50 66L50 66Q49 71 46 75Q43 78 39 80L39 80L45 98Q45 98 45 98L45 98Q45 99 44 100Q43 100 43 100L43 100L33 100Q31 100 30 98L30 98L26 82L19 82L15 98Q15 99 14 99Q14 100 13 100L13 100L3 100ZM21 72L29 72Q32 72 34 70Q36 69 36 66L36 66Q37 65 37 64L37 64Q37 62 35 61Q34 60 31 60L31 60L23 60L21 72ZM64 101Q58 101 55 98Q52 95 52 89L52 89Q52 87 53 84L53 84L57 64Q57 64 58 63Q58 63 59 63L59 63L69 63Q69 63 70 63Q70 64 70 64L70 64L66 84Q66 86 66 87L66 87Q66 89 67 90Q68 91 70 91L70 91Q73 91 75 89Q77 87 78 84L78 84L82 64Q82 64 83 63Q84 63 84 63L84 63L94 63Q95 63 95 63Q95 64 95 64L95 64L88 98Q88 99 87 99Q87 100 86 100L86 100L77 100Q76 100 76 99Q76 99 76 98L76 98L76 95Q74 98 71 99Q68 101 64 101L64 101ZM120 101Q116 101 113 99Q110 98 109 96L109 96L109 98Q109 99 108 99Q107 100 106 100L106 100L98 100Q97 100 97 99Q96 99 96 98L96 98L106 51Q107 50 107 49Q108 49 109 49L109 49L118 49Q119 49 119 49Q120 50 119 51L119 51L116 66Q119 64 121 63Q123 62 127 62L127 62Q133 62 136 65Q140 69 140 75L140 75Q140 76 139 79L139 79Q139 82 138 84L138 84Q136 92 131 96Q127 101 120 101L120 101ZM117 91Q120 91 122 89Q124 87 125 84L125 84Q126 81 126 79L126 79Q126 77 126 77L126 77Q126 74 125 73Q124 72 121 72L121 72Q118 72 116 74Q114 76 114 78L114 78Q113 81 112 84L112 84Q112 85 112 86L112 86Q112 91 117 91L117 91ZM152 57Q152 57 151 57Q151 56 151 56L151 56L152 49Q153 48 153 47Q154 47 155 47L155 47L164 47Q164 47 165 47Q165 48 165 49L165 49L164 56Q164 56 163 57Q162 57 161 57L161 57L152 57ZM143 100Q143 100 142 99Q142 99 142 98L142 98L149 64Q149 64 150 63Q151 63 151 63L151 63L160 63Q161 63 162 63Q162 64 162 64L162 64L155 98Q154 99 154 99Q153 100 152 100L152 100L143 100ZM164 100Q164 100 163 99Q163 99 163 98L163 98L173 51Q173 50 174 49Q174 49 175 49L175 49L184 49Q185 49 185 49Q186 50 185 51L185 51L180 75L192 64Q193 63 193 63Q194 63 195 63L195 63L205 63Q206 63 206 63Q207 63 207 64L207 64Q207 65 206 65L206 65L190 80L201 97Q201 98 201 98L201 98Q201 99 200 99Q200 100 199 100L199 100L189 100Q188 100 187 99L187 99L178 84L175 98Q175 99 175 99Q174 100 173 100L173 100L164 100ZM244 101Q240 101 237 99Q235 98 233 96L233 96L233 98Q233 99 232 99Q231 100 231 100L231 100L222 100Q221 100 221 99Q221 99 221 98L221 98L231 51Q231 50 232 49Q232 49 233 49L233 49L242 49Q243 49 243 49Q244 50 244 51L244 51L240 66Q243 64 245 63Q248 62 251 62L251 62Q257 62 260 65Q264 69 264 75L264 75Q264 76 264 79L264 79Q263 82 262 84L262 84Q260 92 256 96Q251 101 244 101L244 101ZM241 91Q245 91 246 89Q248 87 249 84L249 84Q250 81 250 79L250 79Q250 77 250 77L250 77Q250 74 249 73Q248 72 246 72L246 72Q243 72 241 74Q239 76 238 78L238 78Q237 81 237 84L237 84Q237 85 237 86L237 86Q237 91 241 91L241 91ZM284 101Q276 101 272 97Q268 94 268 88L268 88Q268 86 268 85L268 85Q268 81 269 78L269 78Q271 70 277 66Q282 62 291 62L291 62Q299 62 303 65Q308 69 308 75L308 75Q308 77 308 78L308 78Q307 82 306 85L306 85Q304 92 299 97Q293 101 284 101L284 101ZM285 92Q288 92 290 90Q292 88 293 84L293 84Q294 81 294 78L294 78Q295 77 295 76L295 76Q295 73 294 72Q292 71 290 71L290 71Q287 71 285 73Q283 75 282 78L282 78Q282 80 282 81Q281 83 281 84L281 84Q281 86 281 87L281 87Q281 89 282 90Q283 92 285 92L285 92ZM312 100Q311 100 311 99Q310 99 310 98L310 98L320 51Q321 50 321 49Q322 49 323 49L323 49L332 49Q332 49 333 49Q333 50 333 51L333 51L323 98Q323 99 322 99Q322 100 321 100L321 100L312 100ZM345 101Q339 101 336 97Q333 94 333 88L333 88Q333 86 333 84L333 84Q334 81 334 79L334 79Q336 71 341 66Q346 62 352 62L352 62Q356 62 359 63Q361 64 363 66L363 66L366 51Q366 50 367 49Q367 49 368 49L368 49L377 49Q378 49 379 49Q379 50 379 51L379 51L369 98Q368 99 368 99Q367 100 366 100L366 100L358 100Q357 100 357 99Q356 99 356 98L356 98L357 96Q354 98 352 100Q349 101 345 101L345 101ZM351 91Q354 91 356 89Q358 87 359 84L359 84Q360 81 360 78L360 78Q360 77 360 77L360 77Q360 75 359 73Q358 72 355 72L355 72Q352 72 350 74Q348 76 347 79L347 79Q347 81 346 84L346 84Q346 85 346 86L346 86Q346 88 347 89Q348 91 351 91L351 91ZM403 57Q402 57 402 57Q401 56 401 56L401 56L403 49Q403 48 404 47Q404 47 405 47L405 47L414 47Q415 47 415 47Q416 48 416 49L416 49L414 56Q414 56 413 57Q413 57 412 57L412 57L403 57ZM394 100Q393 100 393 99Q392 99 392 98L392 98L399 64Q400 64 400 63Q401 63 402 63L402 63L411 63Q411 63 412 63Q412 64 412 64L412 64L405 98Q405 99 404 99Q404 100 403 100L403 100L394 100ZM433 100Q419 100 419 90L419 90Q419 88 420 86L420 86L423 72L417 72Q416 72 416 72Q416 71 416 71L416 71L417 64Q417 64 418 63Q418 63 419 63L419 63L425 63L427 51Q428 50 428 49Q429 49 430 49L430 49L438 49Q439 49 440 49Q440 50 440 51L440 51L437 63L446 63Q447 63 448 63Q448 64 448 64L448 64L446 71Q446 71 446 72Q445 72 444 72L444 72L435 72L433 85Q432 86 432 87L432 87Q432 88 433 89Q434 90 435 90L435 90L441 90Q442 90 442 90Q443 91 443 92L443 92L441 98Q441 99 440 99Q440 100 439 100L439 100L433 100ZM461 101Q455 101 452 97Q448 94 448 88L448 88Q448 86 449 84L449 84L450 79Q452 71 457 66Q461 62 469 62L469 62Q473 62 475 63Q477 64 479 66L479 66L479 64Q479 64 480 63Q481 63 481 63L481 63L490 63Q491 63 491 63Q491 64 491 64L491 64L484 98Q484 99 483 99Q483 100 482 100L482 100L473 100Q473 100 472 99Q472 99 472 98L472 98L472 96Q470 98 467 100Q465 101 461 101L461 101ZM466 91Q470 91 471 89Q473 87 474 84L474 84Q475 81 475 78L475 78Q476 77 476 77L476 77Q476 74 474 73Q473 72 471 72L471 72Q468 72 466 74Q464 76 463 79L463 79Q462 81 462 84L462 84Q462 85 462 86L462 86Q462 88 463 89Q464 91 466 91L466 91ZM494 100Q493 100 493 99Q492 99 492 98L492 98L502 51Q503 50 503 49Q504 49 505 49L505 49L514 49Q514 49 515 49Q515 50 515 51L515 51L505 98Q505 99 504 99Q504 100 503 100L503 100L494 100ZM524 57Q523 57 523 57Q522 56 522 56L522 56L524 49Q524 48 525 47Q525 47 526 47L526 47L535 47Q536 47 536 47Q537 48 537 49L537 49L535 56Q535 56 534 57Q534 57 533 57L533 57L524 57ZM515 100Q514 100 514 99Q513 99 513 98L513 98L520 64Q521 64 521 63Q522 63 523 63L523 63L532 63Q533 63 533 63Q533 64 533 64L533 64L526 98Q526 99 525 99Q525 100 524 100L524 100L515 100ZM552 101Q547 101 543 99Q540 97 538 94Q536 91 536 87L536 87Q536 86 536 84L536 84L537 78Q539 70 545 66Q550 62 559 62L559 62Q564 62 568 64Q572 66 574 69Q576 72 576 74L576 74L575 75Q575 76 575 76Q574 77 573 77L573 77L564 77Q562 77 562 75L562 75Q562 73 561 72Q560 71 558 71L558 71Q552 71 550 79L550 79Q549 83 549 84L549 84Q549 86 549 87L549 87Q549 89 550 90Q551 91 553 91L553 91Q555 91 557 90Q558 89 559 87L559 87Q560 86 560 86Q561 86 562 86L562 86L571 86Q572 86 573 86Q573 87 573 88L573 88Q572 90 570 93Q567 96 563 98Q558 101 552 101L552 101Z"/></svg>