<svg xmlns="http://www.w3.org/2000/svg" viewBox="0.15 -7.36 32.28 9.57"><path d="M0.15-0.59L0.15-0.59Q0.18-0.92 0.35-1.25Q0.53-1.58 0.77-1.79L0.77-1.79Q1.84-1.14 2.80-1.14L2.80-1.14Q3.22-1.14 3.42-1.33Q3.61-1.52 3.61-1.80L3.61-1.80Q3.61-2.27 2.98-2.54L2.98-2.54L1.80-3.04Q1.11-3.35 0.74-3.79Q0.37-4.22 0.37-4.89L0.37-4.89Q0.37-5.35 0.56-5.73Q0.74-6.11 1.07-6.39Q1.41-6.67 1.87-6.83Q2.33-6.98 2.89-6.98L2.89-6.98Q4.01-6.98 5.15-6.41L5.15-6.41Q5.10-5.64 4.61-5.21L4.61-5.21Q3.59-5.70 2.81-5.70L2.81-5.70Q2.41-5.70 2.21-5.52Q2.01-5.34 2.01-5.11L2.01-5.11Q2.01-4.72 2.60-4.48L2.60-4.48L3.80-3.97Q4.56-3.65 4.94-3.15Q5.31-2.65 5.31-1.99L5.31-1.99Q5.31-1.52 5.14-1.13Q4.97-0.74 4.63-0.46Q4.30-0.17 3.80-0.01Q3.30 0.15 2.63 0.15L2.63 0.15Q1.33 0.15 0.15-0.59ZM7.97-3.84L7.97-3.84L7.97 0Q7.80 0.03 7.60 0.04Q7.40 0.06 7.19 0.06L7.19 0.06Q6.98 0.06 6.78 0.04Q6.57 0.03 6.40 0L6.40 0L6.40-3.31Q6.40-3.89 5.93-3.89L5.93-3.89L5.78-3.89Q5.72-4.08 5.72-4.42L5.72-4.42Q5.72-4.75 5.78-4.98L5.78-4.98Q6.04-5 6.26-5.01Q6.48-5.03 6.66-5.03L6.66-5.03L6.88-5.03Q7.39-5.03 7.68-4.71Q7.97-4.39 7.97-3.84ZM6.22-7L6.22-7Q6.51-7.16 6.97-7.16L6.97-7.16Q7.44-7.16 7.70-7L7.70-7Q7.82-6.73 7.82-6.42L7.82-6.42Q7.82-6.11 7.70-5.84L7.70-5.84Q7.41-5.69 6.94-5.69L6.94-5.69Q6.47-5.69 6.22-5.84L6.22-5.84Q6.10-6.11 6.10-6.42L6.10-6.42Q6.10-6.73 6.22-7ZM12.19-4.67L12.19-4.67Q12.53-5.05 13.13-5.07L13.13-5.07Q13.29-4.95 13.44-4.71Q13.58-4.47 13.61-4.27L13.61-4.27Q13.33-4.08 13.33-3.55L13.33-3.55L13.33-0.91Q13.33 0.01 13.19 0.61Q13.04 1.22 12.75 1.57Q12.45 1.93 12 2.07Q11.55 2.21 10.94 2.21L10.94 2.21Q9.91 2.21 9.06 1.88L9.06 1.88Q9.06 1.60 9.17 1.27Q9.28 0.94 9.44 0.75L9.44 0.75Q10.11 1.05 10.80 1.05L10.80 1.05Q11.81 1.05 11.81 0.04L11.81 0.04L11.81-0.29Q11.27 0.10 10.67 0.10L10.67 0.10Q9.78 0.10 9.33-0.60Q8.87-1.31 8.87-2.52L8.87-2.52Q8.87-3.13 9.03-3.62Q9.18-4.10 9.45-4.44Q9.72-4.78 10.08-4.96Q10.43-5.14 10.83-5.14L10.83-5.14Q11.64-5.14 12.19-4.67ZM11.81-1.50L11.81-1.50L11.81-3.64Q11.46-3.98 11.15-3.98L11.15-3.98Q10.47-3.98 10.47-2.48L10.47-2.48Q10.47-1.16 11.06-1.16L11.06-1.16Q11.47-1.16 11.81-1.50ZM18.81-3.30L18.81-3.30L18.81-1.25Q18.81-0.59 19.05-0.26L19.05-0.26Q18.67 0.08 18.14 0.08L18.14 0.08Q17.62 0.08 17.43-0.16Q17.24-0.40 17.24-0.89L17.24-0.89L17.24-3.02Q17.24-3.36 17.15-3.52Q17.06-3.68 16.80-3.68L16.80-3.68Q16.65-3.68 16.46-3.60Q16.27-3.52 16.07-3.34L16.07-3.34L16.07 0Q15.90 0.03 15.70 0.04Q15.50 0.06 15.29 0.06L15.29 0.06Q15.08 0.06 14.88 0.04Q14.68 0.03 14.51 0L14.51 0L14.51-4.99L14.58-5.06L15.17-5.06Q15.78-5.06 15.99-4.46L15.99-4.46Q16.69-5.08 17.38-5.08L17.38-5.08Q18.08-5.08 18.45-4.59Q18.81-4.11 18.81-3.30ZM21.78-3.84L21.78-3.84L21.78 0Q21.61 0.03 21.41 0.04Q21.21 0.06 21 0.06L21 0.06Q20.79 0.06 20.59 0.04Q20.38 0.03 20.21 0L20.21 0L20.21-3.31Q20.21-3.89 19.74-3.89L19.74-3.89L19.59-3.89Q19.53-4.08 19.53-4.42L19.53-4.42Q19.53-4.75 19.59-4.98L19.59-4.98Q19.85-5 20.07-5.01Q20.29-5.03 20.47-5.03L20.47-5.03L20.69-5.03Q21.20-5.03 21.49-4.71Q21.78-4.39 21.78-3.84ZM20.03-7L20.03-7Q20.32-7.16 20.78-7.16L20.78-7.16Q21.25-7.16 21.51-7L21.51-7Q21.63-6.73 21.63-6.42L21.63-6.42Q21.63-6.11 21.51-5.84L21.51-5.84Q21.22-5.69 20.75-5.69L20.75-5.69Q20.28-5.69 20.03-5.84L20.03-5.84Q19.91-6.11 19.91-6.42L19.91-6.42Q19.91-6.73 20.03-7ZM26.79-1.99L26.79-1.99L27.04-1.26Q27.24-0.60 27.52-0.41L27.52-0.41Q27.08 0.08 26.47 0.08L26.47 0.08Q26.14 0.08 25.97-0.07Q25.80-0.23 25.67-0.62L25.67-0.62L25.37-1.48Q25.27-1.79 25.14-1.90Q25.01-2 24.79-2Q24.57-2 24.48-1.99L24.48-1.99L24.48 0Q24.15 0.06 23.72 0.06Q23.29 0.06 22.96 0L22.96 0L22.96-7.29L23.03-7.36L23.63-7.36Q24.10-7.36 24.29-7.15Q24.48-6.94 24.48-6.42L24.48-6.42L24.48-3.28L24.64-3.28Q24.82-3.28 24.92-3.46L24.92-3.46L25.44-4.46Q25.72-5.03 26.32-5.03L26.32-5.03Q26.61-5.03 27.19-5.01L27.19-5.01L27.25-4.93L26.48-3.44Q26.28-3.06 25.97-2.85L25.97-2.85Q26.57-2.63 26.79-1.99ZM32.43-0.72L32.43-0.72Q32.38-0.51 32.24-0.27Q32.10-0.03 31.95 0.08L31.95 0.08Q31.25 0.06 30.87-0.45L30.87-0.45Q30.22 0.15 29.46 0.15L29.46 0.15Q29.07 0.15 28.78 0.03Q28.49-0.10 28.29-0.31Q28.09-0.52 27.99-0.80Q27.89-1.07 27.89-1.37L27.89-1.37Q27.89-1.80 28.04-2.13Q28.20-2.45 28.47-2.67Q28.74-2.88 29.10-2.99Q29.46-3.10 29.87-3.10L29.87-3.10Q30.10-3.10 30.27-3.10Q30.45-3.09 30.58-3.08L30.58-3.08L30.58-3.27Q30.58-3.90 29.93-3.90L29.93-3.90Q29.51-3.90 28.46-3.58L28.46-3.58Q28.16-3.93 28.08-4.67L28.08-4.67Q28.32-4.76 28.61-4.84Q28.91-4.92 29.22-4.98Q29.53-5.04 29.83-5.08Q30.13-5.11 30.37-5.11L30.37-5.11Q30.72-5.11 31.05-5.01Q31.37-4.91 31.62-4.71Q31.86-4.50 32.01-4.17Q32.15-3.85 32.15-3.40L32.15-3.40L32.15-1.37Q32.15-0.91 32.43-0.72ZM29.41-1.47L29.41-1.47Q29.41-1 29.95-1L29.95-1Q30.23-1 30.58-1.29L30.58-1.29L30.58-2.09Q30.38-2.10 30.25-2.10Q30.11-2.11 30.04-2.11L30.04-2.11Q29.41-2.11 29.41-1.47Z"/></svg>