<svg xmlns="http://www.w3.org/2000/svg" viewBox="2.8080000000000003 47.07999999999999 376.27200000000005 68.76000000000002"><path d="M3 95L3 95Q3 93 5 91L5 91Q13 96 20 96L20 96Q25 96 28 94Q31 92 31 88L31 88Q31 82 23 79L23 79L15 75Q5 71 5 63L5 63Q5 61 6 58Q7 56 9 54Q11 52 14 51Q17 50 21 50L21 50Q28 50 35 53L35 53Q35 56 33 58L33 58Q29 56 26 55Q23 55 21 55L21 55Q18 55 17 55Q15 56 13 57Q12 58 11 59Q11 61 11 62L11 62Q11 66 12 67Q14 69 18 70L18 70L26 74Q36 79 36 87L36 87Q36 93 32 97Q28 101 19 101L19 101Q10 101 3 95ZM52 70L52 70L52 100Q51 100 50 100L50 100Q48 100 47 100L47 100L47 72Q47 70 46 69Q46 69 44 69L44 69L43 69Q43 68 43 67L43 67Q43 66 43 65L43 65Q45 65 46 65Q46 64 47 64L47 64L47 64Q50 64 51 66Q52 67 52 70ZM45 52L45 52Q46 52 48 52L48 52Q51 52 51 52Q52 53 52 55L52 55Q52 57 51 58Q50 58 48 58L48 58Q47 58 46 58Q45 57 45 55L45 55Q45 53 45 52ZM86 68L86 68Q87 65 89 64L89 64Q91 65 92 67L92 67Q90 69 90 75L90 75L90 97Q90 102 89 106Q88 109 86 112Q85 114 82 115Q79 116 76 116L76 116Q69 116 64 113L64 113Q64 111 65 109L65 109Q70 112 75 112L75 112Q78 112 80 111Q82 110 83 108Q84 107 84 105Q85 103 85 100L85 100L85 96Q80 101 74 101L74 101Q68 101 65 96Q62 91 62 82L62 82Q62 78 63 74Q64 71 66 69Q68 66 70 65Q73 64 76 64L76 64Q81 64 86 68ZM85 91L85 91L85 72Q83 70 80 69Q78 68 76 68L76 68Q72 68 70 72Q67 75 67 82L67 82Q67 89 70 93Q72 96 75 96L75 96Q78 96 80 94Q83 93 85 91ZM129 75L129 75L129 93Q129 97 130 99L130 99Q129 100 127 100L127 100Q124 100 124 97L124 97L124 77Q124 73 123 71Q122 69 119 69L119 69Q116 69 113 70Q110 72 108 74L108 74L108 100Q107 100 105 100L105 100Q104 100 102 100L102 100L102 65L103 64L105 64Q107 64 107 65Q108 66 108 68L108 68L108 69Q110 67 114 65Q117 64 120 64L120 64Q125 64 127 67Q129 70 129 75ZM148 70L148 70L148 100Q147 100 145 100L145 100Q143 100 142 100L142 100L142 72Q142 70 142 69Q141 69 139 69L139 69L139 69Q138 68 138 67L138 67Q138 66 139 65L139 65Q140 65 141 65Q142 64 142 64L142 64L143 64Q145 64 146 66Q148 67 148 70ZM141 52L141 52Q142 52 144 52L144 52Q146 52 147 52Q148 53 148 55L148 55Q148 57 147 58Q146 58 144 58L144 58Q142 58 141 58Q140 57 140 55L140 55Q140 53 141 52ZM181 87L181 87L184 93Q186 98 187 99L187 99Q186 100 184 100Q182 100 181 100Q181 99 180 97L180 97L176 89Q175 86 174 85Q172 84 170 84Q167 84 165 84L165 84L165 100Q164 100 163 100Q161 100 160 100L160 100L160 48L161 47L163 47Q164 47 165 48Q165 49 165 51L165 51L165 80L168 79Q169 79 170 78L170 78L178 67Q179 66 180 65Q180 64 181 64Q183 64 185 65L185 65L185 65L176 78Q175 80 174 80L174 80Q177 81 178 83Q180 84 181 87ZM221 98L221 98Q221 100 219 101L219 101Q215 99 214 95L214 95Q209 101 204 101L204 101Q201 101 199 100Q197 99 195 98Q194 96 193 94Q193 93 193 90L193 90Q193 88 194 85Q195 83 196 82Q198 80 200 80Q203 79 205 79L205 79Q211 79 214 79L214 79L214 76Q214 69 208 69L208 69Q203 69 196 71L196 71Q194 70 194 67L194 67Q202 64 208 64L208 64Q219 64 219 76L219 76L219 91Q219 93 220 95Q220 97 221 98ZM214 91L214 91L214 83Q212 83 211 83Q209 83 207 83L207 83Q202 83 200 85Q198 87 198 90L198 90Q198 93 200 95Q201 96 204 96L204 96Q206 96 209 95Q212 93 214 91ZM255 96L255 96L258 96Q259 97 259 97Q259 98 259 99L259 99Q259 99 259 99Q259 100 259 100L259 100Q258 100 257 100Q255 100 254 100L254 100Q251 100 249 99Q247 98 247 94L247 94L247 48L248 47L250 47Q251 47 252 48Q253 49 253 51L253 51L253 93Q253 96 255 96ZM274 70L274 70L274 100Q273 100 271 100L271 100Q270 100 268 100L268 100L268 72Q268 70 268 69Q267 69 266 69L266 69L265 69Q265 68 265 67L265 67Q265 66 265 65L265 65Q266 65 267 65Q268 64 268 64L268 64L269 64Q271 64 273 66Q274 67 274 70ZM267 52L267 52Q268 52 270 52L270 52Q272 52 273 52Q274 53 274 55L274 55Q274 57 273 58Q272 58 270 58L270 58Q268 58 267 58Q266 57 266 55L266 55Q266 53 267 52ZM307 68L307 68Q308 65 311 64L311 64Q313 65 313 67L313 67Q311 69 311 75L311 75L311 97Q311 102 311 106Q310 109 308 112Q306 114 304 115Q301 116 298 116L298 116Q291 116 285 113L285 113Q285 111 287 109L287 109Q292 112 297 112L297 112Q300 112 301 111Q303 110 304 108Q305 107 306 105Q306 103 306 100L306 100L306 96Q302 101 296 101L296 101Q290 101 287 96Q284 91 284 82L284 82Q284 78 285 74Q286 71 288 69Q290 66 292 65Q295 64 297 64L297 64Q303 64 307 68ZM306 91L306 91L306 72Q304 70 302 69Q300 68 298 68L298 68Q294 68 292 72Q289 75 289 82L289 82Q289 89 291 93Q293 96 296 96L296 96Q299 96 302 94Q305 93 306 91ZM351 75L351 75L351 93Q351 97 352 99L352 99Q351 100 348 100L348 100Q346 100 346 97L346 97L346 77Q346 73 345 71Q343 69 340 69L340 69Q338 69 335 71Q331 72 329 75L329 75L329 100Q328 100 327 100L327 100Q325 100 324 100L324 100L324 48L325 47L326 47Q328 47 329 48Q329 49 329 51L329 51L329 69Q332 67 335 66Q338 64 342 64L342 64Q347 64 349 67Q351 70 351 75ZM370 65L379 65Q379 66 379 67Q379 68 379 69L379 69L370 69L370 93Q370 96 373 96L373 96L378 96Q379 97 379 98Q379 100 378 100L378 100Q375 100 372 100L372 100Q365 100 365 94L365 94L365 69L359 69Q359 68 359 67Q359 66 359 65L359 65L365 65L365 57Q365 55 365 54Q366 54 367 54L367 54L369 54L370 54L370 65Z"/></svg>