<svg xmlns="http://www.w3.org/2000/svg" viewBox="2.666666666666667 46.666666666666664 519.1111111111112 70.22222222222223"><path d="M15.73 100.89L15.73 100.89Q8.98 100.89 3.20 98.40L3.20 98.40L3.20 88.44L8 88.44L8 95.02Q11.11 96.18 16.18 96.18L16.18 96.18Q21.07 96.18 23.78 93.91Q26.49 91.64 26.49 87.73L26.49 87.73Q26.49 85.69 25.73 84.22Q24.98 82.76 23.69 81.64Q22.40 80.53 20.44 79.60Q18.49 78.67 16 77.69L16 77.69Q13.60 76.80 11.24 75.78Q8.89 74.76 6.98 73.24Q5.07 71.73 3.87 69.42Q2.67 67.11 2.67 63.91L2.67 63.91Q2.67 58.13 6.93 54.62Q11.20 51.11 18.49 51.11L18.49 51.11Q24.89 51.11 30.22 53.78L30.22 53.78L30.22 63.56L25.42 63.56L25.42 57.16Q22.22 55.82 18.04 55.82L18.04 55.82Q13.16 55.82 10.67 58.13Q8.18 60.44 8.18 63.64L8.18 63.64Q8.18 65.60 8.93 66.98Q9.69 68.36 11.07 69.42Q12.44 70.49 14.44 71.29Q16.44 72.09 18.93 73.07L18.93 73.07Q21.42 74.04 23.78 75.16Q26.13 76.27 27.96 77.82Q29.78 79.38 30.89 81.64Q32 83.91 32 87.38L32 87.38Q32 93.51 27.60 97.20Q23.20 100.89 15.73 100.89ZM37.33 100L37.33 95.56L41.78 95.56L41.78 51.11L37.33 51.11L37.33 46.67L47.11 46.67L47.11 95.56L51.56 95.56L51.56 100L37.33 100ZM58.67 75.11L58.67 67.91Q64.80 64.44 71.20 64.44L71.20 64.44Q76.71 64.44 79.69 66.98Q82.67 69.51 82.67 75.02L82.67 75.02L82.67 95.56L87.11 95.56L87.11 100L77.87 100L77.60 96L77.42 95.91Q73.16 100.89 66.93 100.89L66.93 100.89Q62.31 100.89 59.60 98.18Q56.89 95.47 56.89 91.29L56.89 91.29Q56.89 85.69 61.73 82.93Q66.58 80.18 75.82 80.18L75.82 80.18L77.33 80.18L77.33 74.93Q77.33 71.64 75.78 70.27Q74.22 68.89 70.58 68.89L70.58 68.89Q66.22 68.89 63.29 70.31L63.29 70.31L63.29 75.11L58.67 75.11ZM77.33 84L75.20 84Q69.07 84 65.78 85.56Q62.49 87.11 62.49 91.02L62.49 91.02Q62.49 93.87 64.09 95.16Q65.69 96.44 68.18 96.44L68.18 96.44Q73.51 96.44 77.33 92.09L77.33 92.09L77.33 84ZM100.00 71.82L100.00 95.91Q102.67 96.44 105.24 96.44L105.24 96.44Q110.58 96.44 113.38 93.16Q116.18 89.87 116.18 82.67L116.18 82.67Q116.18 76.27 114.00 72.58Q111.82 68.89 107.38 68.89L107.38 68.89Q103.47 68.89 100.00 71.82L100.00 71.82ZM100.00 46.67L100.00 67.56L100.18 67.64Q103.91 64.44 108.98 64.44L108.98 64.44Q114.76 64.44 118.27 69.33Q121.78 74.22 121.78 81.87L121.78 81.87Q121.78 90.76 117.29 95.82Q112.80 100.89 104.98 100.89L104.98 100.89Q99.91 100.89 94.67 99.20L94.67 99.20L94.67 51.11L90.22 51.11L90.22 46.67L100.00 46.67ZM128.44 82.84L128.44 82.84Q128.44 74.40 132.58 69.42Q136.71 64.44 143.02 64.44L143.02 64.44Q149.33 64.44 153.11 69.07Q156.89 73.69 156.89 82.04L156.89 82.04Q156.89 90.58 152.89 95.73Q148.89 100.89 142.40 100.89L142.40 100.89Q136 100.89 132.22 95.96Q128.44 91.02 128.44 82.84ZM134.04 82.04L134.04 82.04Q134.04 89.07 136.31 92.76Q138.58 96.44 142.84 96.44L142.84 96.44Q146.84 96.44 149.07 93.02Q151.29 89.60 151.29 82.58L151.29 82.58Q151.29 68.89 142.58 68.89L142.58 68.89Q138.40 68.89 136.22 72.04Q134.04 75.20 134.04 82.04ZM198.04 90.22L202.67 90.22L202.67 100L176 100L176 96Q184.36 89.24 189.96 82.27Q195.56 75.29 195.56 70.49L195.56 70.49Q195.56 67.29 194.04 65.42Q192.53 63.56 188.44 63.56L188.44 63.56Q184.98 63.56 181.51 65.07L181.51 65.07L181.51 71.56L176.89 71.56L176.89 62.49Q183.02 59.11 189.07 59.11L189.07 59.11Q194.93 59.11 198.04 62Q201.16 64.89 201.16 69.96L201.16 69.96Q201.16 75.73 195.51 82.84Q189.87 89.96 183.11 95.38L183.11 95.38L183.11 95.56L198.04 95.56L198.04 90.22ZM221.16 108L215.11 108Q215.38 102.40 216.93 96.53Q218.49 90.67 220.71 85.02Q222.93 79.38 225.60 74.18Q228.27 68.98 230.84 64.62L230.84 64.62L230.76 64.44L212.62 64.44L212.62 70.40L208 70.40L208 60L236.44 60L236.44 63.82Q233.33 68.89 230.62 74.22Q227.91 79.56 225.82 85.07Q223.73 90.58 222.49 96.31Q221.24 102.04 221.16 108L221.16 108ZM239.56 65.33L249.07 65.33L249.33 68.18L249.51 68.18Q253.51 64.44 258.49 64.44L258.49 64.44Q264.18 64.44 267.64 69.11Q271.11 73.78 271.11 81.42L271.11 81.42Q271.11 90.13 266.89 95.51Q262.67 100.89 256.18 100.89L256.18 100.89Q252.80 100.89 249.51 99.29L249.51 99.29L249.33 99.38L249.33 111.56L254.67 111.56L254.67 116L239.56 116L239.56 111.56L244 111.56L244 69.78L239.56 69.78L239.56 65.33ZM249.33 72.71L249.33 95.11Q252 96.44 255.56 96.44L255.56 96.44Q260.27 96.44 262.89 92.98Q265.51 89.51 265.51 82.31L265.51 82.31Q265.51 75.38 263.20 72.13Q260.89 68.89 256.98 68.89L256.98 68.89Q252.71 68.89 249.33 72.71L249.33 72.71ZM291.11 78.67L297.24 69.96L297.24 69.78L294.22 69.78L294.22 65.33L306.22 65.33L306.22 69.78L302.04 69.78L293.24 81.96L302.49 95.56L306.67 95.56L306.67 100L293.33 100L293.33 95.56L296.44 95.56L296.44 95.38L290.04 85.96L283.47 95.38L283.47 95.56L287.11 95.56L287.11 100L274.67 100L274.67 95.56L278.67 95.56L287.91 82.58L279.20 69.78L275.11 69.78L275.11 65.33L288 65.33L288 69.78L285.16 69.78L285.16 69.96L291.11 78.67ZM322.67 100L322.67 95.56L327.11 95.56L327.11 69.78L322.67 69.78L322.67 65.33L332.18 65.33L332.44 70.31L332.62 70.31Q334.31 67.47 336.36 66.13Q338.40 64.80 341.24 64.80L341.24 64.80Q342.31 64.80 343.11 64.98L343.11 64.98L343.11 70.58Q341.78 70.31 340.36 70.31L340.36 70.31Q337.78 70.31 335.87 71.51Q333.96 72.71 332.44 75.38L332.44 75.38L332.44 95.56L337.78 95.56L337.78 100L322.67 100ZM372.44 93.33L372.44 93.33L372.44 98.13Q368 100.89 362.04 100.89L362.04 100.89Q355.02 100.89 351.07 96.18Q347.11 91.47 347.11 83.02L347.11 83.02Q347.11 74.31 351.29 69.38Q355.47 64.44 361.78 64.44L361.78 64.44Q366.93 64.44 370.13 68.53Q373.33 72.62 373.33 80.18L373.33 80.18L373.33 82.93L352.62 82.93Q352.80 89.16 355.07 92.62Q357.33 96.09 362.31 96.27L362.31 96.27Q367.82 96.27 372.44 93.33ZM352.71 78.67L368 78.67Q368 73.60 366.13 71.24Q364.27 68.89 360.89 68.89L360.89 68.89Q357.60 68.89 355.38 71.33Q353.16 73.78 352.71 78.67L352.71 78.67ZM379.56 76.98L379.56 76.98Q379.56 71.47 383.02 67.96Q386.49 64.44 391.91 64.44L391.91 64.44Q393.87 64.44 395.47 64.89L395.47 64.89Q396.89 65.33 398.67 65.33L398.67 65.33L407.11 65.33L407.11 69.60L402.04 69.60L402.04 69.69Q403.73 72.62 403.73 76.18L403.73 76.18Q403.73 82.04 400.31 85.69Q396.89 89.33 391.47 89.33L391.47 89.33Q388.98 89.33 387.02 88.62L387.02 88.62Q385.33 90.58 385.33 92.36L385.33 92.36Q385.33 93.42 386.04 94.04Q386.76 94.67 388.27 94.67L388.27 94.67L394.49 94.67Q400.36 94.67 403.51 97.07Q406.67 99.47 406.67 104.18L406.67 104.18Q406.67 109.96 402.04 113.42Q397.42 116.89 390.40 116.89L390.40 116.89Q384.71 116.89 381.24 114.22Q377.78 111.56 377.78 107.38L377.78 107.38Q377.78 102.58 382.58 98.58L382.58 98.58Q380.44 96.80 380.44 93.96L380.44 93.96Q380.44 90.40 384.27 87.20L384.27 87.20Q379.56 83.56 379.56 76.98ZM394.49 100L385.87 100Q383.11 102.67 383.11 106.22L383.11 106.22Q383.11 109.24 385.07 110.98Q387.02 112.71 391.11 112.71L391.11 112.71Q395.91 112.71 398.62 110.71Q401.33 108.71 401.33 105.51L401.33 105.51Q401.33 102.76 399.51 101.38Q397.69 100 394.49 100L394.49 100ZM385.07 76.53L385.07 76.53Q385.07 80.53 386.76 82.80Q388.44 85.07 391.82 85.07L391.82 85.07Q395.02 85.07 396.62 83.02Q398.22 80.98 398.22 76.80L398.22 76.80Q398.22 72.71 396.58 70.80Q394.93 68.89 391.56 68.89L391.56 68.89Q388.36 68.89 386.71 70.76Q385.07 72.62 385.07 76.53ZM433.78 92.27L433.78 69.78L429.33 69.78L429.33 65.33L439.11 65.33L439.11 95.56L443.56 95.56L443.56 100L434.22 100L433.96 96.18L433.78 96.18Q429.87 100.89 423.91 100.89L423.91 100.89Q419.20 100.89 416.71 98.40Q414.22 95.91 414.22 91.20L414.22 91.20L414.22 69.78L409.78 69.78L409.78 65.33L419.56 65.33L419.56 90.31Q419.56 93.87 421.11 95.16Q422.67 96.44 425.33 96.44L425.33 96.44Q430.49 96.44 433.78 92.27L433.78 92.27ZM448 100L448 95.56L452.44 95.56L452.44 51.11L448 51.11L448 46.67L457.78 46.67L457.78 95.56L462.22 95.56L462.22 100L448 100ZM469.33 75.11L469.33 67.91Q475.47 64.44 481.87 64.44L481.87 64.44Q487.38 64.44 490.36 66.98Q493.33 69.51 493.33 75.02L493.33 75.02L493.33 95.56L497.78 95.56L497.78 100L488.53 100L488.27 96L488.09 95.91Q483.82 100.89 477.60 100.89L477.60 100.89Q472.98 100.89 470.27 98.18Q467.56 95.47 467.56 91.29L467.56 91.29Q467.56 85.69 472.40 82.93Q477.24 80.18 486.49 80.18L486.49 80.18L488 80.18L488 74.93Q488 71.64 486.44 70.27Q484.89 68.89 481.24 68.89L481.24 68.89Q476.89 68.89 473.96 70.31L473.96 70.31L473.96 75.11L469.33 75.11ZM488 84L485.87 84Q479.73 84 476.44 85.56Q473.16 87.11 473.16 91.02L473.16 91.02Q473.16 93.87 474.76 95.16Q476.36 96.44 478.84 96.44L478.84 96.44Q484.18 96.44 488 92.09L488 92.09L488 84ZM501.33 100L501.33 95.56L505.78 95.56L505.78 69.78L501.33 69.78L501.33 65.33L510.84 65.33L511.11 70.31L511.29 70.31Q512.98 67.47 515.02 66.13Q517.07 64.80 519.91 64.80L519.91 64.80Q520.98 64.80 521.78 64.98L521.78 64.98L521.78 70.58Q520.44 70.31 519.02 70.31L519.02 70.31Q516.44 70.31 514.53 71.51Q512.62 72.71 511.11 75.38L511.11 75.38L511.11 95.56L516.44 95.56L516.44 100L501.33 100Z"/></svg>