<svg xmlns="http://www.w3.org/2000/svg" viewBox="1.1520000000000001 48.23199999999999 748.44 68.4"><path d="M16 101L16 101Q11 101 8 99Q4 97 1 93L1 93L4 91Q6 95 9 96Q12 98 17 98L17 98Q19 98 21 97Q24 97 25 95Q27 94 28 92Q29 90 29 87L29 87Q29 84 27 82Q25 80 23 78L23 78L17 75Q15 74 14 73Q12 72 11 70Q10 69 10 67Q9 66 9 64L9 64Q9 61 10 59Q11 57 13 55Q15 54 17 53Q20 52 23 52L23 52Q27 52 30 54Q34 55 36 58L36 58L34 60Q32 58 29 56Q26 54 22 54L22 54Q20 54 18 55Q16 56 15 57Q14 59 13 60Q12 62 12 64L12 64Q12 67 14 69Q16 71 19 72L19 72L25 76Q28 78 30 80Q32 83 32 87L32 87Q32 90 31 93Q30 95 28 97Q25 99 23 100Q20 101 16 101ZM50 101L50 101Q45 101 42 97Q39 94 39 87L39 87Q39 82 40 78Q42 74 44 71Q47 68 50 66Q53 65 57 65L57 65Q62 65 65 68Q69 72 69 78L69 78Q69 83 67 87Q66 91 63 94Q60 97 57 99Q54 101 50 101ZM51 98L51 98Q53 98 56 97Q59 95 61 92Q63 90 64 86Q66 83 66 79L66 79Q66 73 63 70Q61 67 57 67L57 67Q54 67 51 69Q48 70 46 73Q44 76 43 79Q42 83 42 87L42 87Q42 92 44 95Q46 98 51 98ZM103 65L106 65L99 100L97 100L97 94L97 94Q94 97 91 99Q88 101 85 101L85 101Q80 101 78 99Q77 96 77 92L77 92Q77 91 77 90Q77 89 77 88L77 88L82 65L85 65L80 87Q80 89 80 90Q80 91 80 92L80 92Q80 95 81 97Q82 98 86 98L86 98Q88 98 91 96Q94 95 98 91L98 91L103 65ZM115 100L112 100L119 65L121 65L120 72L121 72Q123 69 125 67Q128 65 131 65L131 65Q132 65 133 65Q134 65 135 65L135 65L133 68Q133 68 132 68Q132 67 131 67L131 67Q128 67 125 70Q122 72 120 77L120 77L115 100ZM146 101L146 101Q141 101 138 97Q134 94 134 87L134 87Q134 82 136 78Q137 74 140 71Q143 68 146 66Q149 65 153 65L153 65Q156 65 158 66Q160 67 162 69L162 69L160 71Q158 69 157 68Q155 67 153 67L153 67Q150 67 147 69Q144 70 142 73Q140 76 139 79Q137 83 137 87L137 87Q137 92 140 95Q142 98 147 98L147 98Q149 98 152 97Q154 96 156 95L156 95L157 97Q155 98 153 100Q150 101 146 101ZM164 87L164 87Q164 82 166 78Q167 74 170 71Q172 68 176 66Q179 65 182 65L182 65Q185 65 187 65Q189 66 190 68Q191 70 192 72Q192 74 192 77L192 77Q192 79 192 80Q192 82 192 83L192 83L167 83Q167 87 167 90Q168 93 169 95Q171 97 173 97Q175 98 178 98L178 98Q180 98 182 97Q184 96 186 95L186 95L188 97Q186 99 183 100Q180 101 177 101L177 101Q171 101 168 97Q164 94 164 87ZM168 80L168 80L189 80Q190 78 190 76L190 76Q190 75 189 73Q189 71 188 70Q187 69 186 68Q184 67 182 67L182 67Q179 67 177 68Q175 69 173 71Q171 73 170 75Q169 78 168 80ZM225 101L225 101Q220 101 216 99Q212 97 210 93L210 93L212 91Q214 95 218 96Q221 98 225 98L225 98Q228 98 230 97Q232 97 234 95Q236 94 236 92Q237 90 237 87L237 87Q237 84 236 82Q234 80 231 78L231 78L225 75Q224 74 222 73Q221 72 220 70Q219 69 218 67Q218 66 218 64L218 64Q218 61 219 59Q220 57 222 55Q223 54 226 53Q228 52 231 52L231 52Q236 52 239 54Q242 55 244 58L244 58L242 60Q240 58 237 56Q235 54 231 54L231 54Q229 54 227 55Q225 56 224 57Q222 59 222 60Q221 62 221 64L221 64Q221 67 223 69Q225 71 227 72L227 72L233 76Q237 78 239 80Q241 83 241 87L241 87Q241 90 239 93Q238 95 236 97Q234 99 231 100Q228 101 225 101ZM257 101L257 101Q253 101 250 98Q247 95 247 88L247 88Q247 83 249 79Q250 75 253 71Q256 68 259 66Q262 65 266 65L266 65Q269 65 271 66Q274 68 275 70L275 70L275 70L277 65L279 65L272 100L270 100L270 95L270 95Q267 97 264 99Q261 101 257 101ZM258 98L258 98Q261 98 265 96Q268 94 271 91L271 91L275 73Q273 70 271 69Q268 67 266 67L266 67Q263 67 260 69Q257 71 255 74Q253 77 252 80Q250 84 250 88L250 88Q250 93 252 96Q254 98 258 98ZM288 100L285 100L292 65L294 65L294 71L294 71Q297 68 300 66Q303 65 306 65L306 65Q311 65 313 67Q314 69 314 73L314 73Q314 74 314 75Q314 76 314 78L314 78L309 100L306 100L311 78Q311 77 311 76Q311 75 311 74L311 74Q311 70 310 69Q309 67 305 67L305 67Q303 67 300 69Q297 71 293 75L293 75L288 100ZM330 101L330 101Q328 101 327 100Q325 100 323 99Q322 98 321 97Q319 96 319 94L319 94L321 93Q322 95 325 97Q327 98 331 98L331 98Q332 98 334 98Q336 97 337 96Q338 95 339 94Q339 93 339 91L339 91Q339 90 339 89Q339 88 338 87Q337 87 336 86Q335 85 333 84L333 84Q328 81 326 79Q324 77 324 74L324 74Q324 72 325 70Q326 69 328 67Q329 66 331 65Q333 65 335 65L335 65Q338 65 341 66Q343 67 345 69L345 69L343 71Q341 69 340 68Q338 67 335 67L335 67Q334 67 332 68Q331 68 330 69Q328 70 328 71Q327 72 327 74L327 74Q327 75 328 76Q328 77 329 78Q330 79 331 79Q332 80 334 81L334 81Q336 82 338 84Q340 85 341 86Q342 87 342 88Q342 89 342 91L342 91Q342 93 341 95Q340 97 339 98Q337 99 335 100Q333 101 330 101ZM366 100L363 100L373 53L385 53Q392 53 395 55Q399 58 399 64L399 64Q399 68 398 71Q396 74 394 75Q391 77 387 78Q384 79 379 79L379 79L370 79L366 100ZM375 55L371 77L379 77Q387 77 392 74Q396 70 396 64L396 64Q396 59 393 57Q390 55 384 55L384 55L375 55ZM404 100L401 100L408 65L411 65L410 72L410 72Q412 69 415 67Q418 65 421 65L421 65Q422 65 422 65Q423 65 424 65L424 65L423 68Q422 68 422 68Q421 67 420 67L420 67Q417 67 414 70Q411 72 409 77L409 77L404 100ZM436 101L436 101Q430 101 427 97Q424 94 424 87L424 87Q424 82 425 78Q427 74 429 71Q432 68 435 66Q439 65 442 65L442 65Q447 65 451 68Q454 72 454 78L454 78Q454 83 452 87Q451 91 448 94Q446 97 442 99Q439 101 436 101ZM436 98L436 98Q439 98 441 97Q444 95 446 92Q448 90 449 86Q451 83 451 79L451 79Q451 73 448 70Q446 67 442 67L442 67Q439 67 436 69Q434 70 432 73Q429 76 428 79Q427 83 427 87L427 87Q427 92 429 95Q431 98 436 98ZM477 101L477 101Q476 101 475 100Q474 99 474 98L474 98Q474 97 474 96L474 96L484 48L487 48L477 96Q477 96 477 97Q477 97 477 97L477 97Q477 98 478 98L478 98Q479 98 479 98Q479 98 479 98L479 98L480 100Q479 101 479 101Q478 101 477 101ZM493 100L490 100L497 65L500 65L493 100ZM500 57L500 57Q499 57 499 56Q498 56 498 55L498 55Q498 53 499 52Q500 51 501 51L501 51Q502 51 503 52Q503 53 503 54L503 54Q503 55 503 56Q502 57 500 57ZM515 117L515 117Q511 117 509 115Q506 114 503 112L503 112L505 110Q507 112 510 113Q512 114 515 114L515 114Q520 114 523 111Q526 107 527 102L527 102L529 94Q526 97 523 98Q520 100 516 100L516 100Q512 100 509 97Q506 94 506 88L506 88Q506 83 508 79Q509 75 512 71Q515 68 518 66Q521 65 525 65L525 65Q528 65 530 66Q532 68 534 70L534 70L534 70L535 65L538 65L530 103Q529 109 525 113Q521 117 515 117ZM517 97L517 97Q520 97 523 96Q527 94 530 90L530 90L533 73Q531 70 529 69Q527 67 525 67L525 67Q522 67 519 69Q516 71 514 74Q512 76 511 80Q509 84 509 87L509 87Q509 92 511 95Q513 97 517 97ZM547 100L544 100L554 48L557 48L553 67L552 71L552 71Q556 68 559 66Q562 65 565 65L565 65Q569 65 571 67Q573 69 573 73L573 73Q573 74 573 75Q573 76 572 78L572 78L568 100L565 100L570 78Q570 77 570 76Q570 75 570 74L570 74Q570 70 569 69Q567 67 564 67L564 67Q562 67 559 69Q556 71 552 75L552 75L547 100ZM589 101L589 101Q587 101 586 100Q585 100 584 99Q583 98 583 97Q582 95 582 94L582 94Q582 93 582 92Q582 92 582 91L582 91L587 68L582 68L582 66L588 65L590 56L593 56L591 65L600 65L599 68L590 68L585 91Q585 91 585 92Q585 93 585 93L585 93Q585 96 586 97Q587 98 590 98L590 98Q591 98 592 98Q593 97 594 97L594 97L595 99Q594 100 593 100Q591 101 589 101ZM618 100L615 100L622 65L625 65L618 100ZM625 57L625 57Q624 57 624 56Q623 56 623 55L623 55Q623 53 624 52Q625 51 626 51L626 51Q627 51 628 52Q628 53 628 54L628 54Q628 55 627 56Q626 57 625 57ZM640 101L640 101Q638 101 637 100Q636 100 635 99Q634 98 634 97Q633 95 633 94L633 94Q633 93 633 92Q633 92 633 91L633 91L638 68L633 68L633 66L639 65L641 56L644 56L642 65L651 65L650 68L641 68L636 91Q636 91 636 92Q636 93 636 93L636 93Q636 96 637 97Q638 98 641 98L641 98Q642 98 643 98Q644 97 645 97L645 97L646 99Q645 100 644 100Q642 101 640 101ZM662 101L662 101Q657 101 655 98Q652 95 652 88L652 88Q652 83 653 79Q655 75 658 71Q660 68 664 66Q667 65 671 65L671 65Q674 65 676 66Q678 68 680 70L680 70L680 70L681 65L684 65L677 100L674 100L675 95L675 95Q672 97 669 99Q666 101 662 101ZM663 98L663 98Q666 98 669 96Q672 94 676 91L676 91L679 73Q677 70 675 69Q673 67 671 67L671 67Q668 67 665 69Q662 71 660 74Q658 77 656 80Q655 84 655 88L655 88Q655 93 657 96Q659 98 663 98ZM693 101L693 101Q692 101 691 100Q690 99 690 98L690 98Q690 97 690 96L690 96L700 48L703 48L693 96Q693 96 693 97Q693 97 693 97L693 97Q693 98 694 98L694 98Q695 98 695 98Q695 98 696 98L696 98L696 100Q695 101 695 101Q694 101 693 101ZM709 100L706 100L713 65L716 65L709 100ZM717 57L717 57Q716 57 715 56Q714 56 714 55L714 55Q714 53 715 52Q716 51 717 51L717 51Q718 51 719 52Q720 53 720 54L720 54Q720 55 719 56Q718 57 717 57ZM734 101L734 101Q729 101 726 97Q722 94 722 87L722 87Q722 82 724 78Q725 74 728 71Q731 68 734 66Q737 65 741 65L741 65Q744 65 746 66Q748 67 750 69L750 69L748 71Q746 69 745 68Q743 67 741 67L741 67Q738 67 735 69Q732 70 730 73Q728 76 727 79Q725 83 725 87L725 87Q725 92 728 95Q730 98 735 98L735 98Q737 98 740 97Q742 96 744 95L744 95L745 97Q743 98 741 100Q738 101 734 101Z"/></svg>