<svg xmlns="http://www.w3.org/2000/svg" viewBox="0.32 -6.62 71.24000000000001 6.74"><path d="M2.78 0.12L2.78 0.12Q2.16 0.12 1.51-0.10Q0.85-0.33 0.32-0.81L0.32-0.81L1.30-1.99Q1.65-1.71 2.06-1.54Q2.46-1.36 2.82-1.36L2.82-1.36Q3.21-1.36 3.39-1.48Q3.56-1.60 3.56-1.82L3.56-1.82Q3.56-1.94 3.50-2.02Q3.44-2.10 3.33-2.17Q3.21-2.24 3.05-2.31Q2.89-2.37 2.68-2.45L2.68-2.45L1.87-2.79Q1.61-2.89 1.37-3.06Q1.13-3.22 0.95-3.45Q0.77-3.67 0.67-3.96Q0.56-4.25 0.56-4.60L0.56-4.60Q0.56-5.02 0.74-5.38Q0.92-5.75 1.24-6.03Q1.56-6.30 2.00-6.46Q2.45-6.62 2.98-6.62L2.98-6.62Q3.54-6.62 4.12-6.41Q4.69-6.20 5.14-5.75L5.14-5.75L4.28-4.67Q3.95-4.90 3.65-5.02Q3.34-5.14 2.98-5.14L2.98-5.14Q2.66-5.14 2.48-5.03Q2.30-4.92 2.30-4.70L2.30-4.70Q2.30-4.47 2.56-4.34Q2.81-4.22 3.26-4.05L3.26-4.05L4.05-3.74Q4.66-3.50 4.99-3.07Q5.32-2.64 5.32-1.96L5.32-1.96Q5.32-1.55 5.15-1.17Q4.98-0.79 4.66-0.51Q4.33-0.22 3.86-0.05Q3.39 0.12 2.78 0.12ZM8.44 0.12L8.44 0.12Q7.96 0.12 7.51-0.06Q7.06-0.23 6.71-0.57Q6.37-0.90 6.17-1.39Q5.96-1.88 5.96-2.50L5.96-2.50Q5.96-3.12 6.17-3.61Q6.37-4.10 6.71-4.44Q7.06-4.77 7.51-4.95Q7.96-5.12 8.44-5.12L8.44-5.12Q8.92-5.12 9.37-4.95Q9.81-4.77 10.15-4.44Q10.50-4.10 10.71-3.61Q10.92-3.12 10.92-2.50L10.92-2.50Q10.92-1.88 10.71-1.39Q10.50-0.90 10.15-0.57Q9.81-0.23 9.37-0.06Q8.92 0.12 8.44 0.12ZM8.44-1.26L8.44-1.26Q8.83-1.26 8.99-1.59Q9.16-1.93 9.16-2.50L9.16-2.50Q9.16-3.07 8.99-3.41Q8.83-3.74 8.44-3.74L8.44-3.74Q8.05-3.74 7.88-3.41Q7.72-3.07 7.72-2.50L7.72-2.50Q7.72-1.93 7.88-1.59Q8.05-1.26 8.44-1.26ZM13.34 0.12L13.34 0.12Q12.93 0.12 12.63-0.03Q12.34-0.17 12.15-0.43Q11.96-0.70 11.87-1.07Q11.78-1.45 11.78-1.92L11.78-1.92L11.78-5L13.50-5L13.50-2.14Q13.50-1.66 13.62-1.50Q13.74-1.34 14-1.34L14-1.34Q14.24-1.34 14.39-1.44Q14.55-1.54 14.72-1.78L14.72-1.78L14.72-5L16.44-5L16.44 0L15.04 0L14.92-0.66L14.88-0.66Q14.58-0.30 14.21-0.09Q13.85 0.12 13.34 0.12ZM19.32 0L17.60 0L17.60-5L19-5L19.12-4.14L19.16-4.14Q19.44-4.65 19.82-4.88Q20.21-5.12 20.58-5.12L20.58-5.12Q20.81-5.12 20.95-5.09Q21.09-5.07 21.20-5.02L21.20-5.02L20.92-3.54Q20.78-3.57 20.66-3.60Q20.53-3.62 20.36-3.62L20.36-3.62Q20.09-3.62 19.79-3.44Q19.50-3.25 19.32-2.78L19.32-2.78L19.32 0ZM23.94 0.12L23.94 0.12Q23.41 0.12 22.95-0.06Q22.49-0.23 22.15-0.57Q21.81-0.90 21.61-1.39Q21.42-1.88 21.42-2.50L21.42-2.50Q21.42-3.12 21.64-3.61Q21.86-4.10 22.23-4.44Q22.60-4.77 23.08-4.95Q23.57-5.12 24.10-5.12L24.10-5.12Q24.55-5.12 24.91-4.98Q25.27-4.84 25.56-4.60L25.56-4.60L24.76-3.50Q24.59-3.64 24.46-3.69Q24.34-3.74 24.20-3.74L24.20-3.74Q23.72-3.74 23.45-3.41Q23.18-3.07 23.18-2.50L23.18-2.50Q23.18-1.93 23.45-1.59Q23.73-1.26 24.14-1.26L24.14-1.26Q24.35-1.26 24.55-1.35Q24.76-1.44 24.94-1.58L24.94-1.58L25.60-0.46Q25.22-0.13 24.77-0.01Q24.33 0.12 23.94 0.12ZM28.42 0.12L28.42 0.12Q27.87 0.12 27.40-0.06Q26.93-0.23 26.58-0.57Q26.24-0.90 26.04-1.39Q25.84-1.88 25.84-2.50L25.84-2.50Q25.84-3.11 26.04-3.60Q26.25-4.08 26.58-4.42Q26.92-4.76 27.35-4.94Q27.78-5.12 28.24-5.12L28.24-5.12Q28.79-5.12 29.20-4.93Q29.61-4.74 29.88-4.41Q30.15-4.08 30.28-3.64Q30.42-3.20 30.42-2.70L30.42-2.70Q30.42-2.47 30.39-2.27Q30.37-2.07 30.35-1.98L30.35-1.98L27.50-1.98Q27.62-1.53 27.93-1.35Q28.24-1.18 28.66-1.18L28.66-1.18Q28.92-1.18 29.16-1.26Q29.41-1.33 29.68-1.48L29.68-1.48L30.24-0.46Q29.83-0.17 29.33-0.03Q28.84 0.12 28.42 0.12ZM27.48-3.10L27.48-3.10L28.96-3.10Q28.96-3.39 28.81-3.60Q28.67-3.82 28.28-3.82L28.28-3.82Q27.99-3.82 27.77-3.65Q27.56-3.48 27.48-3.10ZM35.56 0.12L35.56 0.12Q34.94 0.12 34.28-0.10Q33.63-0.33 33.10-0.81L33.10-0.81L34.08-1.99Q34.43-1.71 34.83-1.54Q35.24-1.36 35.60-1.36L35.60-1.36Q35.99-1.36 36.16-1.48Q36.34-1.60 36.34-1.82L36.34-1.82Q36.34-1.94 36.28-2.02Q36.22-2.10 36.10-2.17Q35.99-2.24 35.83-2.31Q35.67-2.37 35.46-2.45L35.46-2.45L34.65-2.79Q34.39-2.89 34.15-3.06Q33.91-3.22 33.73-3.45Q33.55-3.67 33.44-3.96Q33.34-4.25 33.34-4.60L33.34-4.60Q33.34-5.02 33.52-5.38Q33.70-5.75 34.02-6.03Q34.34-6.30 34.78-6.46Q35.23-6.62 35.76-6.62L35.76-6.62Q36.32-6.62 36.89-6.41Q37.47-6.20 37.92-5.75L37.92-5.75L37.06-4.67Q36.73-4.90 36.42-5.02Q36.12-5.14 35.76-5.14L35.76-5.14Q35.44-5.14 35.26-5.03Q35.08-4.92 35.08-4.70L35.08-4.70Q35.08-4.47 35.33-4.34Q35.59-4.22 36.04-4.05L36.04-4.05L36.83-3.74Q37.44-3.50 37.77-3.07Q38.10-2.64 38.10-1.96L38.10-1.96Q38.10-1.55 37.93-1.17Q37.76-0.79 37.43-0.51Q37.11-0.22 36.64-0.05Q36.17 0.12 35.56 0.12ZM40.30 0.12L40.30 0.12Q39.95 0.12 39.67-0.01Q39.39-0.13 39.19-0.34Q39.00-0.55 38.90-0.83Q38.80-1.11 38.80-1.42L38.80-1.42Q38.80-2.20 39.44-2.65Q40.08-3.09 41.52-3.24L41.52-3.24Q41.46-3.76 40.82-3.76L40.82-3.76Q40.55-3.76 40.25-3.66Q39.95-3.55 39.56-3.34L39.56-3.34L38.96-4.46Q39.49-4.78 40.03-4.95Q40.57-5.12 41.16-5.12L41.16-5.12Q42.13-5.12 42.68-4.57Q43.24-4.01 43.24-2.78L43.24-2.78L43.24 0L41.84 0L41.72-0.48L41.68-0.48Q41.38-0.21 41.04-0.04Q40.71 0.12 40.30 0.12ZM40.90-1.20L40.90-1.20Q41.11-1.20 41.24-1.29Q41.38-1.39 41.52-1.54L41.52-1.54L41.52-2.22Q40.90-2.13 40.67-1.95Q40.44-1.77 40.44-1.56L40.44-1.56Q40.44-1.20 40.90-1.20ZM46.08 0L44.36 0L44.36-5L45.76-5L45.88-4.40L45.92-4.40Q46.22-4.69 46.60-4.91Q46.99-5.12 47.50-5.12L47.50-5.12Q48.32-5.12 48.69-4.57Q49.06-4.01 49.06-3.08L49.06-3.08L49.06 0L47.34 0L47.34-2.86Q47.34-3.34 47.22-3.50Q47.10-3.66 46.84-3.66L46.84-3.66Q46.60-3.66 46.44-3.56Q46.28-3.46 46.08-3.28L46.08-3.28L46.08 0ZM51.72 0.12L51.72 0.12Q51.24 0.12 50.70-0.07Q50.17-0.26 49.78-0.58L49.78-0.58L50.54-1.64Q51.22-1.14 51.76-1.14L51.76-1.14Q52.03-1.14 52.14-1.22Q52.26-1.29 52.26-1.44L52.26-1.44Q52.26-1.54 52.18-1.61Q52.10-1.69 51.96-1.76Q51.83-1.82 51.66-1.88Q51.49-1.94 51.30-2.02L51.30-2.02Q51.08-2.11 50.85-2.23Q50.63-2.36 50.45-2.54Q50.27-2.72 50.15-2.96Q50.04-3.19 50.04-3.50L50.04-3.50Q50.04-3.87 50.18-4.17Q50.33-4.47 50.59-4.68Q50.85-4.89 51.21-5.00Q51.58-5.12 52.02-5.12L52.02-5.12Q52.64-5.12 53.08-4.92Q53.53-4.71 53.86-4.46L53.86-4.46L53.10-3.44Q52.83-3.64 52.57-3.75Q52.31-3.86 52.08-3.86L52.08-3.86Q51.64-3.86 51.64-3.58L51.64-3.58Q51.64-3.48 51.71-3.41Q51.79-3.34 51.92-3.28Q52.05-3.22 52.22-3.17Q52.39-3.11 52.58-3.04L52.58-3.04Q52.80-2.96 53.03-2.84Q53.26-2.72 53.44-2.54Q53.63-2.37 53.74-2.13Q53.86-1.88 53.86-1.54L53.86-1.54Q53.86-1.19 53.72-0.89Q53.58-0.58 53.31-0.35Q53.04-0.13 52.64-0.01Q52.24 0.12 51.72 0.12ZM58.56 0L56.84 0L56.84-6.50L59.22-6.50Q59.75-6.50 60.23-6.40Q60.71-6.29 61.07-6.04Q61.43-5.78 61.64-5.37Q61.86-4.95 61.86-4.34L61.86-4.34Q61.86-3.74 61.64-3.31Q61.43-2.88 61.07-2.60Q60.71-2.33 60.24-2.19Q59.77-2.06 59.26-2.06L59.26-2.06L58.56-2.06L58.56 0ZM58.56-5.14L58.56-3.42L59.18-3.42Q59.69-3.42 59.93-3.66Q60.18-3.90 60.18-4.34L60.18-4.34Q60.18-4.78 59.91-4.96Q59.64-5.14 59.14-5.14L59.14-5.14L58.56-5.14ZM64.50 0L62.78 0L62.78-5L64.18-5L64.30-4.14L64.34-4.14Q64.62-4.65 65.00-4.88Q65.39-5.12 65.76-5.12L65.76-5.12Q65.99-5.12 66.13-5.09Q66.27-5.07 66.38-5.02L66.38-5.02L66.10-3.54Q65.96-3.57 65.83-3.60Q65.71-3.62 65.54-3.62L65.54-3.62Q65.27-3.62 64.97-3.44Q64.68-3.25 64.50-2.78L64.50-2.78L64.50 0ZM69.08 0.12L69.08 0.12Q68.60 0.12 68.15-0.06Q67.70-0.23 67.36-0.57Q67.01-0.90 66.81-1.39Q66.60-1.88 66.60-2.50L66.60-2.50Q66.60-3.12 66.81-3.61Q67.01-4.10 67.36-4.44Q67.70-4.77 68.15-4.95Q68.60-5.12 69.08-5.12L69.08-5.12Q69.56-5.12 70.00-4.95Q70.45-4.77 70.80-4.44Q71.14-4.10 71.35-3.61Q71.56-3.12 71.56-2.50L71.56-2.50Q71.56-1.88 71.35-1.39Q71.14-0.90 70.80-0.57Q70.45-0.23 70.00-0.06Q69.56 0.12 69.08 0.12ZM69.08-1.26L69.08-1.26Q69.47-1.26 69.64-1.59Q69.80-1.93 69.80-2.50L69.80-2.50Q69.80-3.07 69.64-3.41Q69.47-3.74 69.08-3.74L69.08-3.74Q68.69-3.74 68.53-3.41Q68.36-3.07 68.36-2.50L68.36-2.50Q68.36-1.93 68.53-1.59Q68.69-1.26 69.08-1.26Z"/></svg>