<svg xmlns="http://www.w3.org/2000/svg" viewBox="3.168 49.88799999999999 903.3120000000004 50.97600000000001"><path d="M3.17 94.17L10.22 85.67Q12.89 87.69 15.88 88.95Q18.86 90.21 21.60 90.21L21.60 90.21Q24.84 90.21 26.10 89.34Q27.36 88.48 27.36 86.90L27.36 86.90Q27.36 86.03 26.93 85.46Q26.50 84.88 25.63 84.38Q24.77 83.87 23.51 83.40Q22.25 82.94 20.59 82.36L20.59 82.36L14.76 79.91Q12.74 79.19 10.94 78.00Q9.14 76.82 7.81 75.20Q6.48 73.58 5.69 71.49Q4.90 69.40 4.90 66.88L4.90 66.88Q4.90 63.86 6.19 61.23Q7.49 58.60 9.83 56.62Q12.17 54.64 15.44 53.49Q18.72 52.34 22.75 52.34L22.75 52.34Q26.93 52.34 31.10 53.85Q35.28 55.36 38.74 58.60L38.74 58.60L32.54 66.38Q30.02 64.72 27.79 63.86Q25.56 62.99 22.75 62.99L22.75 62.99Q17.42 62.99 17.42 66.16L17.42 66.16Q17.42 67.82 19.33 68.68Q21.24 69.54 24.77 70.84L24.77 70.84L30.17 73.07Q34.92 74.80 37.48 77.90Q40.03 80.99 40.03 85.89L40.03 85.89Q40.03 88.84 38.81 91.58Q37.58 94.31 35.21 96.36Q32.83 98.42 29.34 99.64Q25.85 100.86 21.31 100.86L21.31 100.86Q16.70 100.86 11.92 99.24Q7.13 97.62 3.17 94.17L3.17 94.17ZM46.22 82L46.22 82Q46.22 77.54 47.77 74.01Q49.32 70.48 51.91 68.07Q54.50 65.66 57.85 64.40Q61.20 63.14 64.80 63.14L64.80 63.14Q68.33 63.14 71.68 64.40Q75.02 65.66 77.62 68.07Q80.21 70.48 81.79 74.01Q83.38 77.54 83.38 82L83.38 82Q83.38 86.46 81.79 89.99Q80.21 93.52 77.62 95.93Q75.02 98.34 71.68 99.60Q68.33 100.86 64.80 100.86L64.80 100.86Q61.20 100.86 57.85 99.60Q54.50 98.34 51.91 95.93Q49.32 93.52 47.77 89.99Q46.22 86.46 46.22 82ZM58.90 82L58.90 82Q58.90 86.10 60.26 88.52Q61.63 90.93 64.80 90.93L64.80 90.93Q67.97 90.93 69.34 88.52Q70.70 86.10 70.70 82L70.70 82Q70.70 77.90 69.34 75.48Q67.97 73.07 64.80 73.07L64.80 73.07Q61.63 73.07 60.26 75.48Q58.90 77.90 58.90 82ZM124.70 64.00L124.70 100L114.62 100L113.76 95.25L113.47 95.25Q111.17 97.84 108.40 99.35Q105.62 100.86 101.81 100.86L101.81 100.86Q95.76 100.86 93.10 96.87Q90.43 92.87 90.43 86.18L90.43 86.18L90.43 64.00L102.82 64.00L102.82 84.59Q102.82 87.62 103.64 88.98Q104.47 90.35 106.92 90.35L106.92 90.35Q108.50 90.35 109.69 89.74Q110.88 89.13 112.32 87.18L112.32 87.18L112.32 64.00L124.70 64.00ZM137.09 100L137.09 64.00L147.24 64.00L148.18 71.63L148.46 71.63Q151.06 67.17 154.73 65.15Q158.40 63.14 162.50 63.14L162.50 63.14Q165.02 63.14 166.43 63.53Q167.83 63.93 169.34 64.58L169.34 64.58L166.90 74.94Q165.24 74.44 163.91 74.19Q162.58 73.94 160.63 73.94L160.63 73.94Q157.54 73.94 154.51 75.77Q151.49 77.61 149.47 82.14L149.47 82.14L149.47 100L137.09 100ZM177.26 82L177.26 82Q177.26 77.54 178.99 74.01Q180.72 70.48 183.64 68.07Q186.55 65.66 190.37 64.40Q194.18 63.14 198.36 63.14L198.36 63.14Q202.61 63.14 206.14 64.43Q209.66 65.73 211.97 67.89L211.97 67.89L206.35 75.52Q204.34 74.15 202.57 73.61Q200.81 73.07 199.08 73.07L199.08 73.07Q194.98 73.07 192.46 75.48Q189.94 77.90 189.94 82L189.94 82Q189.94 86.10 192.38 88.52Q194.83 90.93 198.65 90.93L198.65 90.93Q201.31 90.93 203.51 89.99Q205.70 89.06 207.58 87.90L207.58 87.90L212.47 95.68Q209.09 98.42 205.06 99.64Q201.02 100.86 197.42 100.86L197.42 100.86Q193.18 100.86 189.47 99.60Q185.76 98.34 183.06 95.93Q180.36 93.52 178.81 89.99Q177.26 86.46 177.26 82ZM219.60 82L219.60 82Q219.60 77.61 221.18 74.08Q222.77 70.55 225.40 68.14Q228.02 65.73 231.44 64.43Q234.86 63.14 238.46 63.14L238.46 63.14Q242.71 63.14 245.92 64.50Q249.12 65.87 251.28 68.25Q253.44 70.62 254.52 73.79Q255.60 76.96 255.60 80.56L255.60 80.56Q255.60 82.22 255.42 83.66Q255.24 85.10 255.10 85.74L255.10 85.74L232.27 85.74Q232.56 87.40 233.42 88.52Q234.29 89.63 235.55 90.28Q236.81 90.93 238.32 91.22Q239.83 91.50 241.49 91.50L241.49 91.50Q243.65 91.50 245.70 90.96Q247.75 90.42 250.13 89.34L250.13 89.34L254.16 96.69Q250.92 98.78 247.03 99.82Q243.14 100.86 239.76 100.86L239.76 100.86Q235.51 100.86 231.80 99.60Q228.10 98.34 225.40 95.93Q222.70 93.52 221.15 89.99Q219.60 86.46 219.60 82ZM232.13 77.68L244.37 77.68Q244.37 75.52 243.14 74.01Q241.92 72.50 238.75 72.50L238.75 72.50Q236.45 72.50 234.61 73.68Q232.78 74.87 232.13 77.68L232.13 77.68ZM306.07 76.96L306.07 76.96Q306.07 71.06 307.87 66.48Q309.67 61.91 312.77 58.78Q315.86 55.65 320.04 53.99Q324.22 52.34 328.97 52.34L328.97 52.34Q333.50 52.34 337.10 54.17Q340.70 56.01 343.22 58.38L343.22 58.38L336.46 66.02Q334.80 64.58 333.07 63.78Q331.34 62.99 328.97 62.99L328.97 62.99Q326.81 62.99 324.94 63.93Q323.06 64.86 321.70 66.59Q320.33 68.32 319.54 70.84Q318.74 73.36 318.74 76.53L318.74 76.53Q318.74 83.15 321.77 86.68Q324.79 90.21 329.54 90.21L329.54 90.21Q331.85 90.21 333.68 89.16Q335.52 88.12 337.03 86.46L337.03 86.46L343.80 93.95Q340.78 97.41 336.96 99.14Q333.14 100.86 328.82 100.86L328.82 100.86Q324.22 100.86 320.11 99.39Q316.01 97.91 312.88 94.92Q309.74 91.94 307.91 87.44Q306.07 82.94 306.07 76.96ZM348.62 82L348.62 82Q348.62 77.54 350.17 74.01Q351.72 70.48 354.31 68.07Q356.90 65.66 360.25 64.40Q363.60 63.14 367.20 63.14L367.20 63.14Q370.73 63.14 374.08 64.40Q377.42 65.66 380.02 68.07Q382.61 70.48 384.19 74.01Q385.78 77.54 385.78 82L385.78 82Q385.78 86.46 384.19 89.99Q382.61 93.52 380.02 95.93Q377.42 98.34 374.08 99.60Q370.73 100.86 367.20 100.86L367.20 100.86Q363.60 100.86 360.25 99.60Q356.90 98.34 354.31 95.93Q351.72 93.52 350.17 89.99Q348.62 86.46 348.62 82ZM361.30 82L361.30 82Q361.30 86.10 362.66 88.52Q364.03 90.93 367.20 90.93L367.20 90.93Q370.37 90.93 371.74 88.52Q373.10 86.10 373.10 82L373.10 82Q373.10 77.90 371.74 75.48Q370.37 73.07 367.20 73.07L367.20 73.07Q364.03 73.07 362.66 75.48Q361.30 77.90 361.30 82ZM391.82 82L391.82 82Q391.82 77.61 393.12 74.08Q394.42 70.55 396.50 68.14Q398.59 65.73 401.33 64.43Q404.06 63.14 406.87 63.14L406.87 63.14Q409.90 63.14 411.84 64.11Q413.78 65.08 415.44 66.74L415.44 66.74L415.01 61.55L415.01 49.89L427.39 49.89L427.39 100L417.31 100L416.45 96.69L416.16 96.69Q414.29 98.56 411.80 99.71Q409.32 100.86 406.87 100.86L406.87 100.86Q403.42 100.86 400.64 99.57Q397.87 98.27 395.93 95.82Q393.98 93.38 392.90 89.88Q391.82 86.39 391.82 82ZM404.50 81.86L404.50 81.86Q404.50 86.75 405.97 88.77Q407.45 90.78 410.11 90.78L410.11 90.78Q411.62 90.78 412.81 90.24Q414.00 89.70 415.01 88.19L415.01 88.19L415.01 74.94Q413.93 73.94 412.74 73.58Q411.55 73.22 410.26 73.22L410.26 73.22Q407.95 73.22 406.22 75.16Q404.50 77.10 404.50 81.86ZM435.60 82L435.60 82Q435.60 77.61 437.18 74.08Q438.77 70.55 441.40 68.14Q444.02 65.73 447.44 64.43Q450.86 63.14 454.46 63.14L454.46 63.14Q458.71 63.14 461.92 64.50Q465.12 65.87 467.28 68.25Q469.44 70.62 470.52 73.79Q471.60 76.96 471.60 80.56L471.60 80.56Q471.60 82.22 471.42 83.66Q471.24 85.10 471.10 85.74L471.10 85.74L448.27 85.74Q448.56 87.40 449.42 88.52Q450.29 89.63 451.55 90.28Q452.81 90.93 454.32 91.22Q455.83 91.50 457.49 91.50L457.49 91.50Q459.65 91.50 461.70 90.96Q463.75 90.42 466.13 89.34L466.13 89.34L470.16 96.69Q466.92 98.78 463.03 99.82Q459.14 100.86 455.76 100.86L455.76 100.86Q451.51 100.86 447.80 99.60Q444.10 98.34 441.40 95.93Q438.70 93.52 437.15 89.99Q435.60 86.46 435.60 82ZM448.13 77.68L460.37 77.68Q460.37 75.52 459.14 74.01Q457.92 72.50 454.75 72.50L454.75 72.50Q452.45 72.50 450.61 73.68Q448.78 74.87 448.13 77.68L448.13 77.68ZM522.94 100L522.94 53.20L541.08 53.20Q544.82 53.20 548.24 53.96Q551.66 54.71 554.22 56.55Q556.78 58.38 558.29 61.37Q559.80 64.36 559.80 68.75L559.80 68.75Q559.80 73.07 558.25 76.17Q556.70 79.26 554.11 81.24Q551.52 83.22 548.14 84.20Q544.75 85.17 541.08 85.17L541.08 85.17L535.32 85.17L535.32 100L522.94 100ZM535.32 75.38L540.50 75.38Q544.18 75.38 545.94 73.65Q547.70 71.92 547.70 68.75L547.70 68.75Q547.70 65.58 545.83 64.29Q543.96 62.99 540.50 62.99L540.50 62.99L535.32 62.99L535.32 75.38ZM569.09 100L569.09 64.00L579.24 64.00L580.18 71.63L580.46 71.63Q583.06 67.17 586.73 65.15Q590.40 63.14 594.50 63.14L594.50 63.14Q597.02 63.14 598.43 63.53Q599.83 63.93 601.34 64.58L601.34 64.58L598.90 74.94Q597.24 74.44 595.91 74.19Q594.58 73.94 592.63 73.94L592.63 73.94Q589.54 73.94 586.51 75.77Q583.49 77.61 581.47 82.14L581.47 82.14L581.47 100L569.09 100ZM607.82 82L607.82 82Q607.82 77.54 609.37 74.01Q610.92 70.48 613.51 68.07Q616.10 65.66 619.45 64.40Q622.80 63.14 626.40 63.14L626.40 63.14Q629.93 63.14 633.28 64.40Q636.62 65.66 639.22 68.07Q641.81 70.48 643.39 74.01Q644.98 77.54 644.98 82L644.98 82Q644.98 86.46 643.39 89.99Q641.81 93.52 639.22 95.93Q636.62 98.34 633.28 99.60Q629.93 100.86 626.40 100.86L626.40 100.86Q622.80 100.86 619.45 99.60Q616.10 98.34 613.51 95.93Q610.92 93.52 609.37 89.99Q607.82 86.46 607.82 82ZM620.50 82L620.50 82Q620.50 86.10 621.86 88.52Q623.23 90.93 626.40 90.93L626.40 90.93Q629.57 90.93 630.94 88.52Q632.30 86.10 632.30 82L632.30 82Q632.30 77.90 630.94 75.48Q629.57 73.07 626.40 73.07L626.40 73.07Q623.23 73.07 621.86 75.48Q620.50 77.90 620.50 82ZM695.81 100L695.81 49.89L708.19 49.89L708.19 61.55L707.90 66.74Q709.85 65.01 712.22 64.07Q714.60 63.14 717.05 63.14L717.05 63.14Q720.29 63.14 722.95 64.43Q725.62 65.73 727.49 68.10Q729.36 70.48 730.37 73.86Q731.38 77.25 731.38 81.35L731.38 81.35Q731.38 86.03 730.08 89.67Q728.78 93.30 726.66 95.79Q724.54 98.27 721.76 99.57Q718.99 100.86 716.04 100.86L716.04 100.86Q713.59 100.86 711.22 99.68Q708.84 98.49 706.75 96.11L706.75 96.11L706.46 96.11L705.46 100L695.81 100ZM708.19 75.81L708.19 89.06Q709.34 90.06 710.60 90.42Q711.86 90.78 713.09 90.78L713.09 90.78Q714.24 90.78 715.25 90.32Q716.26 89.85 717.01 88.77Q717.77 87.69 718.24 85.92Q718.70 84.16 718.70 81.57L718.70 81.57Q718.70 77.10 717.37 75.16Q716.04 73.22 713.38 73.22L713.38 73.22Q711.94 73.22 710.71 73.79Q709.49 74.37 708.19 75.81L708.19 75.81ZM738.29 59.54L738.29 49.89L760.46 49.89L760.46 85.60Q760.46 87.18 760.97 88.19Q761.47 89.20 762.23 89.81Q762.98 90.42 763.96 90.68Q764.93 90.93 765.86 90.93L765.86 90.93Q768.10 90.93 771.05 89.92L771.05 89.92L773.71 98.99Q772.27 99.42 771.01 99.78Q769.75 100.14 768.46 100.36Q767.16 100.58 765.72 100.72Q764.28 100.86 762.55 100.86L762.55 100.86Q758.95 100.86 756.25 99.71Q753.55 98.56 751.72 96.51Q749.88 94.46 748.98 91.58Q748.08 88.70 748.08 85.17L748.08 85.17L748.08 59.54L738.29 59.54ZM781.49 89.78L781.49 89.78Q781.49 86.75 782.75 84.45Q784.01 82.14 786.71 80.52Q789.41 78.90 793.73 77.97Q798.05 77.03 804.24 76.67L804.24 76.67Q803.88 74.73 802.12 73.83Q800.35 72.93 797.33 72.93L797.33 72.93Q795.02 72.93 792.61 73.68Q790.20 74.44 786.96 75.95L786.96 75.95L782.64 67.89Q786.74 65.58 790.99 64.36Q795.24 63.14 799.78 63.14L799.78 63.14Q803.59 63.14 806.72 64.11Q809.86 65.08 812.05 67.13Q814.25 69.18 815.44 72.39Q816.62 75.59 816.62 79.98L816.62 79.98L816.62 100L806.54 100L805.68 96.26L805.39 96.26Q802.73 98.20 799.63 99.53Q796.54 100.86 793.15 100.86L793.15 100.86Q790.34 100.86 788.18 99.96Q786.02 99.06 784.51 97.55Q783.00 96.04 782.24 94.02Q781.49 92.01 781.49 89.78ZM793.30 88.77L793.30 88.77Q793.30 91.36 797.18 91.36L797.18 91.36Q799.34 91.36 801.07 90.53Q802.80 89.70 804.24 88.62L804.24 88.62L804.24 84.02Q800.93 84.16 798.80 84.56Q796.68 84.95 795.46 85.60Q794.23 86.25 793.76 87.04Q793.30 87.83 793.30 88.77ZM825.26 82L825.26 82Q825.26 77.54 826.99 74.01Q828.72 70.48 831.64 68.07Q834.55 65.66 838.37 64.40Q842.18 63.14 846.36 63.14L846.36 63.14Q850.61 63.14 854.14 64.43Q857.66 65.73 859.97 67.89L859.97 67.89L854.35 75.52Q852.34 74.15 850.57 73.61Q848.81 73.07 847.08 73.07L847.08 73.07Q842.98 73.07 840.46 75.48Q837.94 77.90 837.94 82L837.94 82Q837.94 86.10 840.38 88.52Q842.83 90.93 846.65 90.93L846.65 90.93Q849.31 90.93 851.51 89.99Q853.70 89.06 855.58 87.90L855.58 87.90L860.47 95.68Q857.09 98.42 853.06 99.64Q849.02 100.86 845.42 100.86L845.42 100.86Q841.18 100.86 837.47 99.60Q833.76 98.34 831.06 95.93Q828.36 93.52 826.81 89.99Q825.26 86.46 825.26 82ZM868.61 100L868.61 49.89L880.99 49.89L880.99 76.82L881.28 76.82L892.22 64.00L905.62 64.00L892.30 78.98L906.48 100L893.09 100L885.17 86.61L880.99 91.22L880.99 100L868.61 100Z"/></svg>