<svg xmlns="http://www.w3.org/2000/svg" viewBox="1.2960000000000003 48.01599999999999 893.304 68.83200000000001"><path d="M16 101L16 101Q11 101 7 99Q4 97 1 93L1 93L3 92Q5 95 9 97Q12 99 17 99L17 99Q19 99 22 98Q24 97 26 96Q27 94 28 92Q29 90 29 87L29 87Q29 84 28 82Q26 80 23 78L23 78L17 74Q15 73 14 72Q13 71 12 70Q11 69 10 67Q9 65 9 64L9 64Q9 61 10 59Q11 57 13 55Q15 54 17 53Q20 52 23 52L23 52Q27 52 30 53Q33 55 35 58L35 58L34 59Q32 57 29 55Q26 53 22 53L22 53Q20 53 18 54Q16 55 14 57Q13 58 12 60Q12 61 12 63L12 63Q12 67 13 69Q15 71 18 72L18 72L24 76Q27 78 29 81Q32 83 32 87L32 87Q32 90 30 93Q29 95 27 97Q25 99 22 100Q20 101 16 101ZM50 101L50 101Q45 101 42 97Q38 94 38 87L38 87Q38 83 40 78Q41 74 44 71Q46 68 50 66Q53 65 56 65L56 65Q62 65 65 68Q68 72 68 78L68 78Q68 83 66 87Q65 91 62 94Q60 97 57 99Q53 101 50 101ZM50 99L50 99Q53 99 56 97Q59 96 61 93Q63 90 64 86Q66 83 66 79L66 79Q66 73 63 70Q61 67 56 67L56 67Q53 67 51 68Q48 70 45 73Q43 75 42 79Q40 83 40 87L40 87Q40 93 43 96Q45 99 50 99ZM103 66L105 66L98 100L96 100L97 94L97 94Q94 97 91 99Q88 101 84 101L84 101Q80 101 78 99Q76 96 76 93L76 93Q76 91 76 90Q76 89 77 88L77 88L81 66L83 66L79 88Q78 89 78 90Q78 91 78 92L78 92Q78 96 80 97Q81 99 85 99L85 99Q87 99 90 97Q94 95 98 91L98 91L103 66ZM113 100L111 100L118 66L120 66L119 72L119 72Q121 69 124 67Q127 65 130 65L130 65Q131 65 131 65Q132 65 133 65L133 65L132 67Q132 67 131 67Q130 67 129 67L129 67Q127 67 123 69Q120 72 118 77L118 77L113 100ZM145 101L145 101Q139 101 136 97Q133 94 133 87L133 87Q133 82 134 78Q136 74 139 71Q141 68 144 66Q148 65 151 65L151 65Q154 65 156 66Q158 67 160 69L160 69L158 70Q157 68 155 67Q153 67 151 67L151 67Q148 67 145 68Q142 70 140 73Q138 75 136 79Q135 83 135 87L135 87Q135 93 137 96Q140 99 145 99L145 99Q148 99 150 98Q152 97 154 95L154 95L155 97Q154 98 151 100Q148 101 145 101ZM163 87L163 87Q163 82 164 78Q166 74 168 71Q171 68 174 66Q177 65 180 65L180 65Q183 65 185 66Q187 67 188 68Q189 70 190 72Q190 74 190 77L190 77Q190 79 190 80Q190 81 190 83L190 83L165 83Q164 87 165 90Q165 93 167 95Q168 97 171 98Q173 99 176 99L176 99Q178 99 180 98Q183 97 185 96L185 96L186 97Q183 99 181 100Q178 101 175 101L175 101Q169 101 166 97Q163 94 163 87ZM165 81L165 81L188 81Q188 80 188 79Q188 78 188 76L188 76Q188 75 188 73Q188 71 187 70Q186 68 184 67Q182 67 180 67L180 67Q178 67 175 68Q173 69 171 71Q169 72 168 75Q166 78 165 81ZM223 101L223 101Q218 101 214 99Q210 97 208 93L208 93L210 92Q212 95 215 97Q218 99 223 99L223 99Q226 99 228 98Q230 97 232 96Q234 94 235 92Q236 90 236 87L236 87Q236 84 234 82Q233 80 230 78L230 78L223 74Q222 73 221 72Q219 71 218 70Q217 69 217 67Q216 65 216 64L216 64Q216 61 217 59Q218 57 220 55Q221 54 224 53Q226 52 229 52L229 52Q233 52 237 53Q240 55 242 58L242 58L240 59Q238 57 236 55Q233 53 229 53L229 53Q226 53 224 54Q222 55 221 57Q220 58 219 60Q218 61 218 63L218 63Q218 67 220 69Q222 71 224 72L224 72L231 76Q234 78 236 81Q238 83 238 87L238 87Q238 90 237 93Q236 95 234 97Q232 99 229 100Q226 101 223 101ZM255 101L255 101Q251 101 248 98Q245 95 245 88L245 88Q245 84 247 79Q248 75 251 72Q253 68 257 67Q260 65 264 65L264 65Q267 65 269 66Q271 68 273 70L273 70L273 70L274 66L276 66L269 100L267 100L268 94L268 94Q265 97 262 99Q259 101 255 101ZM255 99L255 99Q259 99 262 97Q266 95 269 91L269 91L273 73Q271 70 268 68Q266 67 264 67L264 67Q260 67 257 68Q254 70 252 73Q250 76 248 80Q247 84 247 88L247 88Q247 94 249 96Q251 99 255 99ZM285 100L283 100L290 66L291 66L290 71L291 71Q294 68 297 67Q300 65 303 65L303 65Q308 65 309 67Q311 69 311 73L311 73Q311 74 311 75Q311 76 311 78L311 78L306 100L304 100L309 78Q309 76 309 75Q309 74 309 73L309 73Q309 70 308 68Q306 67 303 67L303 67Q300 67 297 68Q294 70 290 74L290 74L285 100ZM327 101L327 101Q325 101 323 100Q322 100 320 99Q319 98 318 97Q316 96 316 95L316 95L317 93Q319 96 321 97Q324 99 327 99L327 99Q329 99 331 98Q333 98 334 97Q335 96 336 94Q337 93 337 91L337 91Q337 90 336 89Q336 88 336 87Q335 86 334 85Q332 85 330 83L330 83Q328 82 326 81Q324 80 323 79Q322 78 322 77Q321 76 321 74L321 74Q321 72 322 70Q323 69 325 67Q326 66 328 65Q330 65 332 65L332 65Q335 65 337 66Q339 67 341 69L341 69L340 70Q338 69 336 68Q335 67 332 67L332 67Q330 67 329 67Q327 68 326 69Q325 70 324 71Q323 72 323 74L323 74Q323 76 325 78Q327 80 330 81L330 81Q333 83 335 84Q336 85 337 86Q338 88 339 89Q339 90 339 91L339 91Q339 93 338 95Q337 97 335 98Q334 99 332 100Q330 101 327 101ZM362 100L360 100L369 52L381 52Q388 52 392 55Q395 58 395 63L395 63Q395 67 394 70Q392 73 390 75Q387 77 384 78Q380 79 375 79L375 79L366 79L362 100ZM371 54L367 77L375 77Q384 77 388 74Q393 70 393 63L393 63Q393 59 390 56Q386 54 380 54L380 54L371 54ZM400 100L398 100L405 66L406 66L405 72L406 72Q408 69 410 67Q413 65 416 65L416 65Q417 65 418 65Q419 65 419 65L419 65L419 67Q418 67 418 67Q417 67 416 67L416 67Q413 67 410 69Q407 72 404 77L404 77L400 100ZM431 101L431 101Q426 101 422 97Q419 94 419 87L419 87Q419 83 421 78Q422 74 425 71Q427 68 431 66Q434 65 437 65L437 65Q443 65 446 68Q449 72 449 78L449 78Q449 83 447 87Q446 91 443 94Q441 97 438 99Q434 101 431 101ZM431 99L431 99Q434 99 437 97Q439 96 442 93Q444 90 445 86Q447 83 447 79L447 79Q447 73 444 70Q442 67 437 67L437 67Q434 67 431 68Q429 70 426 73Q424 75 423 79Q421 83 421 87L421 87Q421 93 424 96Q426 99 431 99ZM469 87L469 87Q469 82 470 78Q472 74 474 71Q477 68 480 66Q483 65 487 65L487 65Q489 65 491 66Q493 67 494 68Q496 70 496 72Q497 74 497 77L497 77Q497 79 496 80Q496 81 496 83L496 83L471 83Q470 87 471 90Q472 93 473 95Q475 97 477 98Q479 99 482 99L482 99Q484 99 487 98Q489 97 491 96L491 96L492 97Q490 99 487 100Q485 101 482 101L482 101Q476 101 472 97Q469 94 469 87ZM472 81L472 81L494 81Q494 80 495 79Q495 78 495 76L495 76Q495 75 494 73Q494 71 493 70Q492 68 490 67Q489 67 486 67L486 67Q484 67 482 68Q479 69 477 71Q475 72 474 75Q472 78 472 81ZM498 100L496 100L512 82L505 66L507 66L511 75Q512 76 512 78Q513 79 513 80L513 80L514 80Q515 79 516 78Q518 76 519 75L519 75L527 66L529 66L515 82L522 100L520 100L516 90Q515 89 515 87Q514 85 513 84L513 84L513 84Q512 85 510 87Q509 88 507 90L507 90L498 100ZM539 101L539 101Q535 101 534 99Q532 97 532 94L532 94Q532 93 532 93Q532 92 532 91L532 91L537 67L532 67L532 66L538 66L540 56L542 56L540 66L549 66L549 67L539 67L534 91Q534 92 534 93Q534 93 534 94L534 94Q534 96 535 98Q536 99 539 99L539 99Q540 99 541 99Q543 98 543 98L543 98L544 99Q543 100 542 100Q540 101 539 101ZM553 100L551 100L558 66L559 66L558 72L559 72Q561 69 563 67Q566 65 569 65L569 65Q570 65 571 65Q571 65 572 65L572 65L571 67Q571 67 570 67Q570 67 569 67L569 67Q566 67 563 69Q560 72 557 77L557 77L553 100ZM582 101L582 101Q578 101 575 98Q572 95 572 88L572 88Q572 84 574 79Q575 75 578 72Q581 68 584 67Q587 65 591 65L591 65Q594 65 596 66Q599 68 600 70L600 70L600 70L602 66L603 66L597 100L595 100L596 94L595 94Q593 97 589 99Q586 101 582 101ZM583 99L583 99Q586 99 590 97Q593 95 596 91L596 91L600 73Q598 70 596 68Q593 67 591 67L591 67Q588 67 585 68Q582 70 579 73Q577 76 576 80Q574 84 574 88L574 88Q574 94 577 96Q579 99 583 99ZM626 101L626 101Q625 101 625 100Q624 100 624 98L624 98Q624 98 624 97Q624 97 624 96L624 96L634 48L636 48L626 97Q626 97 626 97Q626 98 626 98L626 98Q626 99 627 99L627 99Q627 99 627 99Q628 99 628 99L628 99L628 100Q628 101 628 101Q627 101 626 101ZM642 100L640 100L647 66L649 66L642 100ZM650 57L650 57Q649 57 648 56Q647 56 647 55L647 55Q647 53 648 53Q649 52 650 52L650 52Q651 52 652 52Q652 53 652 54L652 54Q652 55 651 56Q651 57 650 57ZM664 117L664 117Q660 117 657 115Q655 114 652 112L652 112L654 111Q656 112 658 114Q661 115 664 115L664 115Q669 115 672 111Q675 108 677 102L677 102L678 94Q675 97 672 99Q669 100 665 100L665 100Q661 100 658 97Q655 94 655 88L655 88Q655 83 657 79Q658 75 661 72Q664 68 667 67Q670 65 674 65L674 65Q677 65 679 66Q681 68 683 70L683 70L683 70L684 66L686 66L678 103Q677 110 673 113Q670 117 664 117ZM665 98L665 98Q668 98 672 96Q676 94 679 91L679 91L682 73Q680 70 678 68Q676 67 673 67L673 67Q670 67 667 68Q665 70 662 73Q660 76 659 80Q657 84 657 88L657 88Q657 93 659 96Q662 98 665 98ZM694 100L692 100L703 48L705 48L701 68L700 71L700 71Q704 68 707 67Q710 65 713 65L713 65Q717 65 719 67Q721 69 721 73L721 73Q721 74 721 75Q721 76 721 78L721 78L716 100L714 100L718 78Q719 76 719 75Q719 74 719 73L719 73Q719 70 718 68Q716 67 713 67L713 67Q710 67 707 68Q704 70 700 74L700 74L694 100ZM737 101L737 101Q733 101 732 99Q730 97 730 94L730 94Q730 93 731 93Q731 92 731 91L731 91L736 67L730 67L730 66L736 66L738 56L740 56L738 66L748 66L747 67L738 67L733 91Q733 92 733 93Q732 93 732 94L732 94Q732 96 734 98Q735 99 737 99L737 99Q739 99 740 99Q741 98 742 98L742 98L743 99Q742 100 740 100Q739 101 737 101ZM765 100L763 100L770 66L772 66L765 100ZM772 57L772 57Q772 57 771 56Q770 56 770 55L770 55Q770 53 771 53Q772 52 773 52L773 52Q774 52 775 52Q775 53 775 54L775 54Q775 55 774 56Q773 57 772 57ZM787 101L787 101Q783 101 782 99Q780 97 780 94L780 94Q780 93 780 93Q780 92 781 91L781 91L785 67L780 67L780 66L786 66L788 56L790 56L788 66L797 66L797 67L787 67L783 91Q782 92 782 93Q782 93 782 94L782 94Q782 96 783 98Q784 99 787 99L787 99Q789 99 790 99Q791 98 792 98L792 98L792 99Q791 100 790 100Q789 101 787 101ZM808 101L808 101Q804 101 801 98Q798 95 798 88L798 88Q798 84 800 79Q802 75 804 72Q807 68 810 67Q814 65 817 65L817 65Q820 65 823 66Q825 68 826 70L826 70L826 70L828 66L830 66L823 100L821 100L822 94L821 94Q819 97 815 99Q812 101 808 101ZM809 99L809 99Q812 99 816 97Q819 95 822 91L822 91L826 73Q824 70 822 68Q820 67 817 67L817 67Q814 67 811 68Q808 70 805 73Q803 76 802 80Q800 84 800 88L800 88Q800 94 803 96Q805 99 809 99ZM839 101L839 101Q838 101 837 100Q836 100 836 98L836 98Q836 98 836 97Q837 97 837 96L837 96L846 48L848 48L839 97Q839 97 839 97Q839 98 839 98L839 98Q839 99 840 99L840 99Q840 99 840 99Q840 99 841 99L841 99L841 100Q840 101 840 101Q840 101 839 101ZM854 100L852 100L859 66L861 66L854 100ZM862 57L862 57Q861 57 861 56Q860 56 860 55L860 55Q860 53 861 53Q862 52 863 52L863 52Q863 52 864 52Q865 53 865 54L865 54Q865 55 864 56Q863 57 862 57ZM880 101L880 101Q874 101 871 97Q868 94 868 87L868 87Q868 82 869 78Q871 74 873 71Q876 68 879 66Q883 65 886 65L886 65Q889 65 891 66Q893 67 895 69L895 69L893 70Q892 68 890 67Q888 67 886 67L886 67Q883 67 880 68Q877 70 875 73Q872 75 871 79Q870 83 870 87L870 87Q870 93 872 96Q875 99 880 99L880 99Q883 99 885 98Q887 97 889 95L889 95L890 97Q888 98 886 100Q883 101 880 101Z"/></svg>