<svg xmlns="http://www.w3.org/2000/svg" viewBox="0.08 -6.66 66.48 6.78"><path d="M2.34 0.12L2.34 0.12Q1.68 0.12 1.10-0.16Q0.53-0.44 0.08-1.07L0.08-1.07L0.86-1.67Q1.15-1.27 1.55-1.03Q1.95-0.80 2.43-0.80L2.43-0.80Q2.94-0.80 3.27-1.06Q3.60-1.33 3.60-1.79L3.60-1.79Q3.60-2.10 3.39-2.31Q3.17-2.51 2.81-2.73L2.81-2.73L2.12-3.15Q1.69-3.41 1.41-3.79Q1.13-4.16 1.13-4.74L1.13-4.74Q1.13-5.13 1.29-5.48Q1.46-5.83 1.76-6.09Q2.05-6.36 2.44-6.51Q2.84-6.66 3.30-6.66L3.30-6.66Q3.89-6.66 4.38-6.40Q4.87-6.13 5.22-5.70L5.22-5.70L4.53-5.07Q4.28-5.35 3.97-5.54Q3.65-5.73 3.24-5.73L3.24-5.73Q2.76-5.73 2.50-5.46Q2.24-5.19 2.24-4.85L2.24-4.85Q2.24-4.53 2.46-4.33Q2.69-4.14 3.07-3.91L3.07-3.91L3.77-3.49Q4.25-3.21 4.49-2.86Q4.72-2.51 4.72-1.94L4.72-1.94Q4.72-1.50 4.55-1.13Q4.38-0.75 4.07-0.47Q3.75-0.19 3.31-0.04Q2.87 0.12 2.34 0.12ZM7.35 0.12L7.35 0.12Q6.94 0.12 6.60-0.02Q6.26-0.16 6.02-0.42Q5.78-0.68 5.65-1.05Q5.52-1.42 5.52-1.88L5.52-1.88Q5.52-2.58 5.75-3.17Q5.99-3.75 6.37-4.16Q6.75-4.57 7.23-4.80Q7.72-5.03 8.22-5.03L8.22-5.03Q9.06-5.03 9.56-4.50Q10.06-3.96 10.06-3.03L10.06-3.03Q10.06-2.33 9.82-1.75Q9.59-1.17 9.21-0.76Q8.83-0.34 8.34-0.11Q7.86 0.12 7.35 0.12ZM7.47-0.75L7.47-0.75Q7.76-0.75 8.03-0.93Q8.30-1.10 8.51-1.41Q8.72-1.71 8.84-2.12Q8.97-2.53 8.97-3L8.97-3Q8.97-3.56 8.75-3.86Q8.53-4.16 8.11-4.16L8.11-4.16Q7.82-4.16 7.54-3.98Q7.27-3.81 7.06-3.51Q6.85-3.21 6.72-2.80Q6.60-2.39 6.60-1.92L6.60-1.92Q6.60-1.36 6.82-1.05Q7.04-0.75 7.47-0.75ZM14.47-4.91L15.54-4.91L14.57 0L13.70 0L13.74-0.70L13.70-0.70Q13.33-0.37 12.92-0.13Q12.51 0.12 12.06 0.12L12.06 0.12Q11.44 0.12 11.16-0.21Q10.89-0.53 10.89-1.12L10.89-1.12Q10.89-1.29 10.91-1.46Q10.93-1.62 10.97-1.81L10.97-1.81L11.59-4.91L12.66-4.91L12.07-1.95Q12.03-1.78 12.01-1.66Q11.99-1.54 11.99-1.43L11.99-1.43Q11.99-0.80 12.60-0.80L12.60-0.80Q13.09-0.80 13.81-1.56L13.81-1.56L14.47-4.91ZM17.09 0L16.01 0L16.99-4.91L17.86-4.91L17.77-3.96L17.81-3.96Q18.10-4.42 18.49-4.73Q18.88-5.03 19.33-5.03L19.33-5.03Q19.62-5.03 19.82-4.94L19.82-4.94L19.46-4Q19.37-4.05 19.25-4.07Q19.13-4.08 19-4.08L19-4.08Q18.65-4.08 18.31-3.81Q17.97-3.54 17.67-2.97L17.67-2.97L17.09 0ZM21.52 0.12L21.52 0.12Q21.11 0.12 20.77-0.01Q20.43-0.15 20.18-0.41Q19.93-0.66 19.79-1.03Q19.65-1.40 19.65-1.88L19.65-1.88Q19.65-2.54 19.87-3.12Q20.10-3.69 20.48-4.12Q20.87-4.54 21.38-4.79Q21.90-5.03 22.47-5.03L22.47-5.03Q22.92-5.03 23.24-4.85Q23.56-4.67 23.76-4.43L23.76-4.43L23.16-3.78Q22.99-3.98 22.82-4.07Q22.65-4.16 22.40-4.16L22.40-4.16Q22.07-4.16 21.77-3.98Q21.47-3.80 21.24-3.50Q21.02-3.19 20.88-2.79Q20.75-2.38 20.75-1.92L20.75-1.92Q20.75-1.36 20.99-1.05Q21.24-0.75 21.74-0.75L21.74-0.75Q22.03-0.75 22.25-0.86Q22.48-0.98 22.67-1.13L22.67-1.13L23.13-0.45Q22.85-0.25 22.46-0.07Q22.08 0.12 21.52 0.12ZM23.89-1.96L23.89-1.96Q23.89-2.65 24.13-3.21Q24.36-3.78 24.74-4.19Q25.13-4.59 25.61-4.81Q26.09-5.03 26.57-5.03L26.57-5.03Q27-5.03 27.29-4.89Q27.59-4.75 27.77-4.50Q27.96-4.26 28.04-3.93Q28.13-3.60 28.13-3.22L28.13-3.22Q28.13-2.90 28.05-2.60Q27.97-2.30 27.92-2.18L27.92-2.18L24.93-2.18Q24.89-1.79 24.97-1.51Q25.05-1.23 25.21-1.05Q25.38-0.87 25.62-0.79Q25.86-0.70 26.14-0.70L26.14-0.70Q26.40-0.70 26.67-0.82Q26.94-0.94 27.14-1.09L27.14-1.09L27.54-0.40Q27.24-0.19 26.81-0.04Q26.39 0.12 25.86 0.12L25.86 0.12Q25.42 0.12 25.06-0.02Q24.70-0.16 24.44-0.42Q24.18-0.69 24.04-1.07Q23.89-1.46 23.89-1.96ZM25.02-2.86L25.02-2.86L27.19-2.86Q27.21-2.96 27.22-3.06Q27.24-3.17 27.24-3.29L27.24-3.29Q27.24-3.65 27.06-3.93Q26.89-4.20 26.44-4.20L26.44-4.20Q25.99-4.20 25.59-3.85Q25.20-3.49 25.02-2.86ZM32.73 0.12L32.73 0.12Q32.07 0.12 31.49-0.16Q30.92-0.44 30.47-1.07L30.47-1.07L31.25-1.67Q31.54-1.27 31.94-1.03Q32.34-0.80 32.82-0.80L32.82-0.80Q33.33-0.80 33.66-1.06Q33.99-1.33 33.99-1.79L33.99-1.79Q33.99-2.10 33.77-2.31Q33.56-2.51 33.20-2.73L33.20-2.73L32.51-3.15Q32.08-3.41 31.80-3.79Q31.52-4.16 31.52-4.74L31.52-4.74Q31.52-5.13 31.68-5.48Q31.85-5.83 32.14-6.09Q32.44-6.36 32.83-6.51Q33.23-6.66 33.69-6.66L33.69-6.66Q34.28-6.66 34.77-6.40Q35.26-6.13 35.61-5.70L35.61-5.70L34.92-5.07Q34.67-5.35 34.35-5.54Q34.04-5.73 33.63-5.73L33.63-5.73Q33.15-5.73 32.89-5.46Q32.63-5.19 32.63-4.85L32.63-4.85Q32.63-4.53 32.85-4.33Q33.08-4.14 33.46-3.91L33.46-3.91L34.16-3.49Q34.64-3.21 34.88-2.86Q35.11-2.51 35.11-1.94L35.11-1.94Q35.11-1.50 34.94-1.13Q34.77-0.75 34.45-0.47Q34.14-0.19 33.70-0.04Q33.26 0.12 32.73 0.12ZM37.32 0.12L37.32 0.12Q36.67 0.12 36.29-0.34Q35.92-0.80 35.92-1.67L35.92-1.67Q35.92-2.37 36.14-2.98Q36.36-3.60 36.73-4.05Q37.10-4.51 37.57-4.77Q38.05-5.03 38.56-5.03L38.56-5.03Q38.92-5.03 39.22-4.84Q39.52-4.66 39.69-4.34L39.69-4.34L39.71-4.34L39.92-4.91L40.78-4.91L39.80 0L38.92 0L38.97-0.68L38.94-0.68Q38.59-0.32 38.16-0.10Q37.74 0.12 37.32 0.12ZM37.76-0.76L37.76-0.76Q38.08-0.76 38.41-0.95Q38.75-1.14 39.05-1.59L39.05-1.59L39.45-3.55Q39.28-3.87 39.06-4.01Q38.85-4.15 38.62-4.15L38.62-4.15Q38.31-4.15 38.02-3.97Q37.73-3.78 37.51-3.46Q37.29-3.14 37.16-2.71Q37.03-2.29 37.03-1.82L37.03-1.82Q37.03-1.28 37.22-1.02Q37.42-0.76 37.76-0.76ZM42.31 0L41.23 0L42.21-4.91L43.08-4.91L43.03-4.22L43.07-4.22Q43.46-4.55 43.87-4.79Q44.29-5.03 44.76-5.03L44.76-5.03Q45.38-5.03 45.65-4.71Q45.92-4.39 45.92-3.79L45.92-3.79Q45.92-3.62 45.90-3.46Q45.89-3.30 45.84-3.10L45.84-3.10L45.22 0L44.15 0L44.75-2.96Q44.78-3.13 44.80-3.25Q44.83-3.37 44.83-3.48L44.83-3.48Q44.83-4.11 44.21-4.11L44.21-4.11Q43.95-4.11 43.65-3.93Q43.36-3.75 42.97-3.35L42.97-3.35L42.31 0ZM48.06 0.12L48.06 0.12Q47.83 0.12 47.58 0.05Q47.34-0.02 47.11-0.14Q46.88-0.26 46.68-0.43Q46.48-0.61 46.34-0.82L46.34-0.82L46.98-1.34Q47.22-1.02 47.51-0.85Q47.81-0.68 48.14-0.68L48.14-0.68Q48.49-0.68 48.74-0.86Q49.00-1.05 49.00-1.32L49.00-1.32Q49.00-1.55 48.79-1.72Q48.58-1.88 48.12-2.14L48.12-2.14Q47.63-2.41 47.35-2.73Q47.07-3.05 47.07-3.50L47.07-3.50Q47.07-3.83 47.21-4.12Q47.35-4.40 47.59-4.60Q47.84-4.80 48.16-4.92Q48.49-5.03 48.86-5.03L48.86-5.03Q49.34-5.03 49.72-4.83Q50.11-4.63 50.40-4.33L50.40-4.33L49.80-3.76Q49.61-3.95 49.38-4.08Q49.15-4.22 48.86-4.22L48.86-4.22Q48.52-4.22 48.30-4.04Q48.08-3.86 48.08-3.60L48.08-3.60Q48.08-3.46 48.15-3.36Q48.22-3.26 48.34-3.17Q48.46-3.08 48.61-3Q48.76-2.92 48.92-2.83L48.92-2.83Q49.47-2.54 49.74-2.22Q50.01-1.90 50.01-1.45L50.01-1.45Q50.01-1.09 49.86-0.80Q49.72-0.51 49.46-0.30Q49.20-0.10 48.84 0.01Q48.48 0.12 48.06 0.12ZM53.88 0L52.80 0L54.10-6.54L56.06-6.54Q56.53-6.54 56.92-6.45Q57.32-6.36 57.60-6.16Q57.89-5.95 58.05-5.63Q58.21-5.32 58.21-4.87L58.21-4.87Q58.21-4.23 57.98-3.77Q57.76-3.31 57.36-3.02Q56.97-2.73 56.43-2.59Q55.89-2.45 55.27-2.45L55.27-2.45L54.36-2.45L53.88 0ZM55-5.68L54.54-3.31L55.36-3.31Q56.23-3.31 56.68-3.67Q57.14-4.02 57.14-4.72L57.14-4.72Q57.14-5.23 56.81-5.46Q56.48-5.68 55.86-5.68L55.86-5.68L55-5.68ZM59.45 0L58.37 0L59.35-4.91L60.22-4.91L60.13-3.96L60.17-3.96Q60.46-4.42 60.85-4.73Q61.24-5.03 61.69-5.03L61.69-5.03Q61.98-5.03 62.18-4.94L62.18-4.94L61.82-4Q61.73-4.05 61.61-4.07Q61.49-4.08 61.36-4.08L61.36-4.08Q61.01-4.08 60.67-3.81Q60.33-3.54 60.03-2.97L60.03-2.97L59.45 0ZM63.85 0.12L63.85 0.12Q63.44 0.12 63.10-0.02Q62.76-0.16 62.52-0.42Q62.28-0.68 62.15-1.05Q62.02-1.42 62.02-1.88L62.02-1.88Q62.02-2.58 62.26-3.17Q62.49-3.75 62.87-4.16Q63.25-4.57 63.73-4.80Q64.22-5.03 64.72-5.03L64.72-5.03Q65.56-5.03 66.06-4.50Q66.56-3.96 66.56-3.03L66.56-3.03Q66.56-2.33 66.33-1.75Q66.09-1.17 65.71-0.76Q65.33-0.34 64.84-0.11Q64.36 0.12 63.85 0.12ZM63.97-0.75L63.97-0.75Q64.26-0.75 64.53-0.93Q64.80-1.10 65.01-1.41Q65.22-1.71 65.34-2.12Q65.47-2.53 65.47-3L65.47-3Q65.47-3.56 65.25-3.86Q65.03-4.16 64.61-4.16L64.61-4.16Q64.32-4.16 64.05-3.98Q63.77-3.81 63.56-3.51Q63.35-3.21 63.23-2.80Q63.10-2.39 63.10-1.92L63.10-1.92Q63.10-1.36 63.32-1.05Q63.54-0.75 63.97-0.75Z"/></svg>