<svg xmlns="http://www.w3.org/2000/svg" viewBox="4.176 47.29599999999999 1069.9200000000005 53.56800000000001"><path d="M4 94L9 88Q12 91 15 92Q18 94 22 94L22 94Q26 94 28 92Q31 90 31 88L31 88Q31 86 30 85Q30 84 28 83Q27 83 26 82Q24 81 23 81L23 81L16 78Q14 77 13 76Q11 75 9 73Q8 72 7 70Q6 68 6 65L6 65Q6 62 7 60Q9 58 11 56Q13 54 16 53Q19 52 23 52L23 52Q27 52 31 54Q35 55 38 58L38 58L33 63Q31 61 28 60Q26 59 23 59L23 59Q19 59 17 61Q15 62 15 65L15 65Q15 66 15 67Q16 68 17 69Q18 70 20 70Q21 71 23 71L23 71L29 74Q31 75 33 76Q35 77 36 79Q38 80 38 82Q39 84 39 87L39 87Q39 90 38 92Q37 95 35 97Q32 99 29 100Q26 101 22 101L22 101Q17 101 12 99Q8 97 4 94L4 94ZM47 82L47 82Q47 78 48 75Q50 71 52 69Q55 66 58 65Q61 64 65 64L65 64Q68 64 71 65Q75 66 77 69Q80 71 81 75Q83 78 83 82L83 82Q83 87 81 90Q80 94 77 96Q75 98 71 100Q68 101 65 101L65 101Q61 101 58 100Q55 98 52 96Q50 94 48 90Q47 87 47 82ZM56 82L56 82Q56 88 58 91Q60 94 65 94L65 94Q69 94 72 91Q74 88 74 82L74 82Q74 77 72 74Q69 71 65 71L65 71Q60 71 58 74Q56 77 56 82ZM123 65L123 100L117 100L116 94L116 94Q113 97 110 99Q107 101 103 101L103 101Q97 101 94 97Q91 93 91 87L91 87L91 65L100 65L100 85Q100 90 101 92Q103 94 106 94L106 94Q109 94 111 93Q113 91 115 88L115 88L115 65L123 65ZM139 100L139 65L146 65L147 73L147 73Q149 68 153 66Q157 64 162 64L162 64Q164 64 165 64Q167 64 169 65L169 65L167 72Q165 72 164 71Q163 71 160 71L160 71Q157 71 153 73Q150 75 147 80L147 80L147 100L139 100ZM178 82L178 82Q178 78 180 75Q181 71 184 69Q187 66 190 65Q194 64 198 64L198 64Q202 64 206 65Q209 67 211 69L211 69L207 74Q205 72 203 71Q201 71 199 71L199 71Q193 71 190 74Q187 77 187 82L187 82Q187 85 187 87Q188 89 190 91Q191 92 194 93Q196 94 198 94L198 94Q201 94 204 93Q206 92 208 90L208 90L212 96Q209 98 205 100Q201 101 198 101L198 101Q193 101 190 100Q186 98 184 96Q181 94 180 90Q178 87 178 82ZM220 82L220 82Q220 78 222 75Q224 71 226 69Q229 66 232 65Q235 64 239 64L239 64Q243 64 246 65Q249 66 251 69Q253 71 254 74Q255 77 255 81L255 81Q255 82 255 83Q255 84 255 85L255 85L229 85Q229 89 233 92Q236 94 241 94L241 94Q244 94 246 94Q248 93 251 92L251 92L254 97Q251 99 247 100Q244 101 240 101L240 101Q236 101 232 100Q229 98 226 96Q223 94 222 90Q220 87 220 82ZM229 79L247 79Q247 75 245 73Q243 70 239 70L239 70Q235 70 232 72Q230 75 229 79L229 79ZM307 77L307 77Q307 71 308 66Q310 62 313 59Q316 55 320 54Q324 52 329 52L329 52Q333 52 336 54Q340 56 342 58L342 58L337 63Q336 61 333 60Q331 59 329 59L329 59Q326 59 323 61Q321 62 319 64Q317 66 316 69Q315 72 315 76L315 76Q315 80 316 84Q317 87 319 89Q321 91 323 92Q326 94 329 94L329 94Q332 94 334 92Q336 91 338 89L338 89L343 94Q340 97 336 99Q333 101 328 101L328 101Q324 101 320 99Q316 98 313 95Q310 92 308 87Q307 82 307 77ZM349 82L349 82Q349 78 351 75Q352 71 355 69Q357 66 361 65Q364 64 367 64L367 64Q371 64 374 65Q377 66 380 69Q382 71 384 75Q385 78 385 82L385 82Q385 87 384 90Q382 94 380 96Q377 98 374 100Q371 101 367 101L367 101Q364 101 361 100Q357 98 355 96Q352 94 351 90Q349 87 349 82ZM358 82L358 82Q358 88 360 91Q363 94 367 94L367 94Q372 94 374 91Q376 88 376 82L376 82Q376 77 374 74Q372 71 367 71L367 71Q363 71 360 74Q358 77 358 82ZM393 82L393 82Q393 78 394 75Q395 71 397 69Q400 66 402 65Q405 64 408 64L408 64Q411 64 414 65Q416 66 418 68L418 68L418 62L418 49L426 49L426 100L419 100L419 96L418 96Q416 98 414 99Q411 101 408 101L408 101Q404 101 402 100Q399 98 397 96Q395 94 394 90Q393 87 393 82ZM401 82L401 82Q401 88 403 91Q406 94 410 94L410 94Q414 94 418 90L418 90L418 74Q416 72 414 71Q412 71 410 71L410 71Q408 71 407 71Q405 72 404 74Q403 75 402 77Q401 79 401 82ZM436 82L436 82Q436 78 438 75Q440 71 442 69Q445 66 448 65Q451 64 455 64L455 64Q459 64 462 65Q465 66 467 69Q469 71 470 74Q471 77 471 81L471 81Q471 82 471 83Q471 84 471 85L471 85L445 85Q445 89 449 92Q452 94 457 94L457 94Q460 94 462 94Q464 93 467 92L467 92L470 97Q467 99 463 100Q460 101 456 101L456 101Q452 101 448 100Q445 98 442 96Q439 94 438 90Q436 87 436 82ZM445 79L463 79Q463 75 461 73Q459 70 455 70L455 70Q451 70 448 72Q446 75 445 79L445 79ZM525 100L525 53L541 53Q544 53 548 54Q551 54 553 56Q556 58 557 61Q558 63 558 67L558 67Q558 71 557 74Q556 77 553 79Q551 81 548 82Q544 83 541 83L541 83L533 83L533 100L525 100ZM533 76L540 76Q550 76 550 67L550 67Q550 63 548 61Q545 60 540 60L540 60L533 60L533 76ZM571 100L571 65L578 65L579 73L579 73Q581 68 585 66Q589 64 594 64L594 64Q596 64 597 64Q599 64 601 65L601 65L599 72Q597 72 596 71Q595 71 592 71L592 71Q589 71 585 73Q582 75 579 80L579 80L579 100L571 100ZM609 82L609 82Q609 78 610 75Q612 71 614 69Q616 66 620 65Q623 64 626 64L626 64Q630 64 633 65Q636 66 639 69Q641 71 643 75Q644 78 644 82L644 82Q644 87 643 90Q641 94 639 96Q636 98 633 100Q630 101 626 101L626 101Q623 101 620 100Q616 98 614 96Q612 94 610 90Q609 87 609 82ZM617 82L617 82Q617 88 620 91Q622 94 626 94L626 94Q631 94 633 91Q636 88 636 82L636 82Q636 77 633 74Q631 71 626 71L626 71Q622 71 620 74Q617 77 617 82ZM696 95L700 90Q703 92 706 93Q709 95 713 95L713 95Q717 95 719 93Q721 92 721 90L721 90Q721 88 719 87Q716 86 711 85L711 85Q708 84 706 83Q704 82 702 81Q700 80 699 78Q698 76 698 74L698 74Q698 70 702 67Q706 64 713 64L713 64Q718 64 722 65Q725 67 728 68L728 68L724 74Q722 72 719 71Q717 70 714 70L714 70Q709 70 708 71Q706 72 706 74L706 74Q706 75 707 76Q708 76 709 77Q710 78 712 78Q714 79 716 79L716 79Q719 80 722 81Q724 82 726 83Q728 84 729 86Q730 88 730 90L730 90Q730 92 728 94Q727 96 725 98Q723 99 720 100Q717 101 713 101L713 101Q708 101 704 99Q699 98 696 95L696 95ZM739 82L739 82Q739 78 740 75Q742 71 744 69Q747 66 750 65Q754 64 757 64L757 64Q761 64 764 65Q767 66 769 69Q771 71 772 74Q773 77 773 81L773 81Q773 82 773 83Q773 84 773 85L773 85L747 85Q748 89 751 92Q754 94 759 94L759 94Q762 94 764 94Q767 93 769 92L769 92L772 97Q769 99 766 100Q762 101 758 101L758 101Q754 101 751 100Q747 98 744 96Q742 94 740 90Q739 87 739 82ZM747 79L766 79Q766 75 764 73Q761 70 757 70L757 70Q754 70 751 72Q748 75 747 79L747 79ZM781 100L781 65L787 65L788 69L788 69Q789 67 791 65Q793 64 796 64L796 64Q801 64 802 70L802 70Q804 67 806 65Q807 64 810 64L810 64Q814 64 816 67Q818 70 818 75L818 75L818 100L810 100L810 76Q810 71 807 71L807 71Q806 71 805 72Q804 73 803 75L803 75L803 100L796 100L796 76Q796 71 793 71L793 71Q792 71 791 72Q790 73 789 75L789 75L789 100L781 100ZM827 71L827 65L850 65L850 100L842 100L842 71L827 71ZM846 58L846 58Q843 58 842 57Q840 55 840 53L840 53Q840 50 842 49Q843 47 846 47L846 47Q848 47 850 49Q852 50 852 53L852 53Q852 55 850 57Q848 58 846 58ZM913 100L913 49L921 49L921 62L921 68Q923 66 926 65Q929 64 932 64L932 64Q936 64 938 65Q941 66 943 69Q945 71 946 74Q947 78 947 82L947 82Q947 86 945 90Q944 93 942 96Q940 98 937 100Q934 101 931 101L931 101Q928 101 926 100Q923 98 921 96L921 96L920 96L920 100L913 100ZM921 75L921 91Q923 93 925 93Q928 94 929 94L929 94Q933 94 935 91Q938 88 938 82L938 82Q938 77 936 74Q934 71 930 71L930 71Q928 71 926 72Q924 73 921 75L921 75ZM954 82L954 82Q954 78 956 75Q957 71 960 69Q962 66 965 65Q969 64 972 64L972 64Q975 64 979 65Q982 66 984 69Q987 71 988 75Q990 78 990 82L990 82Q990 87 988 90Q987 94 984 96Q982 98 979 100Q975 101 972 101L972 101Q969 101 965 100Q962 98 960 96Q957 94 956 90Q954 87 954 82ZM963 82L963 82Q963 88 965 91Q968 94 972 94L972 94Q976 94 979 91Q981 88 981 82L981 82Q981 77 979 74Q976 71 972 71L972 71Q968 71 965 74Q963 77 963 82ZM999 56L999 49L1018 49L1018 88Q1018 91 1020 93Q1022 94 1024 94L1024 94Q1027 94 1031 93L1031 93L1032 99Q1030 100 1028 100Q1026 101 1022 101L1022 101Q1016 101 1013 97Q1010 94 1010 87L1010 87L1010 56L999 56ZM1041 82L1041 82Q1041 78 1042 75Q1043 71 1045 69Q1048 66 1050 65Q1053 64 1056 64L1056 64Q1059 64 1062 65Q1064 66 1066 68L1066 68L1066 62L1066 49L1074 49L1074 100L1067 100L1067 96L1066 96Q1064 98 1062 99Q1059 101 1056 101L1056 101Q1052 101 1050 100Q1047 98 1045 96Q1043 94 1042 90Q1041 87 1041 82ZM1049 82L1049 82Q1049 88 1051 91Q1054 94 1058 94L1058 94Q1062 94 1066 90L1066 90L1066 74Q1064 72 1062 71Q1060 71 1058 71L1058 71Q1056 71 1055 71Q1053 72 1052 74Q1051 75 1050 77Q1049 79 1049 82Z"/></svg>