<svg xmlns="http://www.w3.org/2000/svg" viewBox="2.736 49.023999999999994 805.176 51.84000000000001"><path d="M19.73 100.86L19.73 100.86Q14.98 100.86 10.55 99.06Q6.12 97.26 2.74 93.95L2.74 93.95L7.63 88.26Q10.15 90.64 13.39 92.12Q16.63 93.59 19.87 93.59L19.87 93.59Q23.90 93.59 25.99 91.94Q28.08 90.28 28.08 87.54L28.08 87.54Q28.08 86.10 27.54 85.10Q27.00 84.09 26.03 83.33Q25.06 82.58 23.72 81.93Q22.39 81.28 20.81 80.63L20.81 80.63L14.33 77.82Q12.60 77.10 10.91 76.02Q9.22 74.94 7.85 73.43Q6.48 71.92 5.65 69.90Q4.82 67.89 4.82 65.30L4.82 65.30Q4.82 62.49 6.01 60.08Q7.20 57.66 9.29 55.86Q11.38 54.06 14.29 53.06Q17.21 52.05 20.66 52.05L20.66 52.05Q24.77 52.05 28.58 53.67Q32.40 55.29 35.14 58.02L35.14 58.02L30.89 63.35Q28.58 61.48 26.14 60.40Q23.69 59.32 20.66 59.32L20.66 59.32Q17.28 59.32 15.26 60.80Q13.25 62.27 13.25 64.86L13.25 64.86Q13.25 66.23 13.86 67.20Q14.47 68.18 15.52 68.93Q16.56 69.69 17.93 70.30Q19.30 70.91 20.74 71.49L20.74 71.49L27.14 74.15Q29.23 75.02 30.96 76.17Q32.69 77.32 33.95 78.83Q35.21 80.34 35.93 82.32Q36.65 84.30 36.65 86.90L36.65 86.90Q36.65 89.78 35.50 92.30Q34.34 94.82 32.15 96.72Q29.95 98.63 26.82 99.75Q23.69 100.86 19.73 100.86ZM58.97 100.86L58.97 100.86Q55.66 100.86 52.63 99.64Q49.61 98.42 47.27 96.04Q44.93 93.66 43.56 90.21Q42.19 86.75 42.19 82.36L42.19 82.36Q42.19 77.97 43.56 74.51Q44.93 71.06 47.27 68.68Q49.61 66.30 52.63 65.04Q55.66 63.78 58.97 63.78L58.97 63.78Q62.28 63.78 65.34 65.04Q68.40 66.30 70.70 68.68Q73.01 71.06 74.41 74.51Q75.82 77.97 75.82 82.36L75.82 82.36Q75.82 86.75 74.41 90.21Q73.01 93.66 70.70 96.04Q68.40 98.42 65.34 99.64Q62.28 100.86 58.97 100.86ZM58.97 94.10L58.97 94.10Q62.86 94.10 65.09 90.89Q67.32 87.69 67.32 82.36L67.32 82.36Q67.32 76.96 65.09 73.76Q62.86 70.55 58.97 70.55L58.97 70.55Q55.08 70.55 52.88 73.76Q50.69 76.96 50.69 82.36L50.69 82.36Q50.69 87.69 52.88 90.89Q55.08 94.10 58.97 94.10ZM94.54 100.86L94.54 100.86Q88.85 100.86 86.26 97.23Q83.66 93.59 83.66 86.82L83.66 86.82L83.66 64.65L91.94 64.65L91.94 85.74Q91.94 90.14 93.24 91.94Q94.54 93.74 97.42 93.74L97.42 93.74Q99.72 93.74 101.48 92.58Q103.25 91.43 105.26 88.84L105.26 88.84L105.26 64.65L113.54 64.65L113.54 100L106.78 100L106.13 94.82L105.91 94.82Q103.61 97.55 100.91 99.21Q98.21 100.86 94.54 100.86ZM132.34 100L124.06 100L124.06 64.65L130.90 64.65L131.47 70.91L131.76 70.91Q133.63 67.46 136.30 65.62Q138.96 63.78 141.77 63.78L141.77 63.78Q144.29 63.78 145.80 64.50L145.80 64.50L144.36 71.70Q143.42 71.42 142.63 71.27Q141.84 71.13 140.69 71.13L140.69 71.13Q138.60 71.13 136.30 72.75Q133.99 74.37 132.34 78.40L132.34 78.40L132.34 100ZM164.95 100.86L164.95 100.86Q161.35 100.86 158.22 99.64Q155.09 98.42 152.78 96.04Q150.48 93.66 149.18 90.21Q147.89 86.75 147.89 82.36L147.89 82.36Q147.89 77.97 149.33 74.51Q150.77 71.06 153.22 68.68Q155.66 66.30 158.87 65.04Q162.07 63.78 165.60 63.78L165.60 63.78Q169.06 63.78 171.54 64.94Q174.02 66.09 175.97 67.74L175.97 67.74L171.94 73.14Q170.50 71.92 169.09 71.24Q167.69 70.55 166.03 70.55L166.03 70.55Q161.71 70.55 159.05 73.76Q156.38 76.96 156.38 82.36L156.38 82.36Q156.38 87.69 159.01 90.89Q161.64 94.10 165.82 94.10L165.82 94.10Q167.90 94.10 169.74 93.20Q171.58 92.30 173.09 91.07L173.09 91.07L176.47 96.54Q173.95 98.70 170.96 99.78Q167.98 100.86 164.95 100.86ZM196.85 100.86L196.85 100.86Q193.18 100.86 190.01 99.60Q186.84 98.34 184.46 95.97Q182.09 93.59 180.76 90.17Q179.42 86.75 179.42 82.36L179.42 82.36Q179.42 78.04 180.79 74.58Q182.16 71.13 184.43 68.75Q186.70 66.38 189.65 65.08Q192.60 63.78 195.70 63.78L195.70 63.78Q199.30 63.78 202.03 65.01Q204.77 66.23 206.60 68.46Q208.44 70.70 209.38 73.79Q210.31 76.89 210.31 80.56L210.31 80.56Q210.31 81.78 210.20 82.86Q210.10 83.94 209.95 84.59L209.95 84.59L187.49 84.59Q188.06 89.34 190.84 91.90Q193.61 94.46 197.93 94.46L197.93 94.46Q200.23 94.46 202.21 93.77Q204.19 93.09 206.14 91.86L206.14 91.86L208.94 97.05Q206.42 98.70 203.33 99.78Q200.23 100.86 196.85 100.86ZM187.42 78.98L187.42 78.98L203.11 78.98Q203.11 74.87 201.35 72.53Q199.58 70.19 195.91 70.19L195.91 70.19Q192.74 70.19 190.37 72.42Q187.99 74.66 187.42 78.98ZM247.10 100.86L247.10 100.86Q242.35 100.86 237.92 99.06Q233.50 97.26 230.11 93.95L230.11 93.95L235.01 88.26Q237.53 90.64 240.77 92.12Q244.01 93.59 247.25 93.59L247.25 93.59Q251.28 93.59 253.37 91.94Q255.46 90.28 255.46 87.54L255.46 87.54Q255.46 86.10 254.92 85.10Q254.38 84.09 253.40 83.33Q252.43 82.58 251.10 81.93Q249.77 81.28 248.18 80.63L248.18 80.63L241.70 77.82Q239.98 77.10 238.28 76.02Q236.59 74.94 235.22 73.43Q233.86 71.92 233.03 69.90Q232.20 67.89 232.20 65.30L232.20 65.30Q232.20 62.49 233.39 60.08Q234.58 57.66 236.66 55.86Q238.75 54.06 241.67 53.06Q244.58 52.05 248.04 52.05L248.04 52.05Q252.14 52.05 255.96 53.67Q259.78 55.29 262.51 58.02L262.51 58.02L258.26 63.35Q255.96 61.48 253.51 60.40Q251.06 59.32 248.04 59.32L248.04 59.32Q244.66 59.32 242.64 60.80Q240.62 62.27 240.62 64.86L240.62 64.86Q240.62 66.23 241.24 67.20Q241.85 68.18 242.89 68.93Q243.94 69.69 245.30 70.30Q246.67 70.91 248.11 71.49L248.11 71.49L254.52 74.15Q256.61 75.02 258.34 76.17Q260.06 77.32 261.32 78.83Q262.58 80.34 263.30 82.32Q264.02 84.30 264.02 86.90L264.02 86.90Q264.02 89.78 262.87 92.30Q261.72 94.82 259.52 96.72Q257.33 98.63 254.20 99.75Q251.06 100.86 247.10 100.86ZM280.44 100.86L280.44 100.86Q275.76 100.86 272.88 98.02Q270 95.18 270 90.50L270 90.50Q270 87.69 271.19 85.49Q272.38 83.30 274.93 81.71Q277.49 80.13 281.41 79.05Q285.34 77.97 290.81 77.39L290.81 77.39Q290.74 76.02 290.41 74.76Q290.09 73.50 289.33 72.53Q288.58 71.56 287.35 71.02Q286.13 70.48 284.33 70.48L284.33 70.48Q281.74 70.48 279.25 71.49Q276.77 72.50 274.39 73.94L274.39 73.94L271.37 68.39Q274.32 66.52 277.99 65.15Q281.66 63.78 285.91 63.78L285.91 63.78Q292.54 63.78 295.81 67.71Q299.09 71.63 299.09 79.05L299.09 79.05L299.09 100L292.25 100L291.67 96.11L291.38 96.11Q289.01 98.13 286.31 99.50Q283.61 100.86 280.44 100.86ZM283.10 94.38L283.10 94.38Q285.26 94.38 287.03 93.38Q288.79 92.37 290.81 90.50L290.81 90.50L290.81 82.58Q287.21 83.01 284.76 83.73Q282.31 84.45 280.80 85.35Q279.29 86.25 278.64 87.40Q277.99 88.55 277.99 89.85L277.99 89.85Q277.99 92.22 279.43 93.30Q280.87 94.38 283.10 94.38ZM317.30 100L309.02 100L309.02 64.65L315.86 64.65L316.44 69.40L316.73 69.40Q319.10 67.10 321.88 65.44Q324.65 63.78 328.32 63.78L328.32 63.78Q334.01 63.78 336.60 67.42Q339.19 71.06 339.19 77.82L339.19 77.82L339.19 100L330.91 100L330.91 78.90Q330.91 74.51 329.62 72.71Q328.32 70.91 325.37 70.91L325.37 70.91Q323.06 70.91 321.30 72.03Q319.54 73.14 317.30 75.30L317.30 75.30L317.30 100ZM359.21 100.86L359.21 100.86Q355.54 100.86 351.97 99.46Q348.41 98.06 345.82 95.97L345.82 95.97L349.70 90.64Q352.08 92.51 354.42 93.56Q356.76 94.60 359.50 94.60L359.50 94.60Q362.38 94.60 363.74 93.41Q365.11 92.22 365.11 90.35L365.11 90.35Q365.11 89.27 364.46 88.44Q363.82 87.62 362.74 86.97Q361.66 86.32 360.29 85.78Q358.92 85.24 357.55 84.66L357.55 84.66Q355.82 84.02 354.02 83.15Q352.22 82.29 350.82 81.06Q349.42 79.84 348.52 78.22Q347.62 76.60 347.62 74.37L347.62 74.37Q347.62 69.69 351.07 66.74Q354.53 63.78 360.50 63.78L360.50 63.78Q364.18 63.78 367.13 65.08Q370.08 66.38 372.24 68.03L372.24 68.03L368.42 73.07Q366.55 71.70 364.64 70.88Q362.74 70.05 360.65 70.05L360.65 70.05Q357.98 70.05 356.72 71.16Q355.46 72.28 355.46 73.94L355.46 73.94Q355.46 75.02 356.08 75.77Q356.69 76.53 357.70 77.10Q358.70 77.68 360.04 78.18Q361.37 78.69 362.81 79.19L362.81 79.19Q364.61 79.84 366.41 80.67Q368.21 81.50 369.68 82.72Q371.16 83.94 372.06 85.71Q372.96 87.47 372.96 89.92L372.96 89.92Q372.96 92.22 372.06 94.20Q371.16 96.18 369.43 97.66Q367.70 99.14 365.11 100Q362.52 100.86 359.21 100.86ZM403.85 100L395.50 100L395.50 52.91L410.33 52.91Q414.22 52.91 417.56 53.63Q420.91 54.35 423.36 56.08Q425.81 57.81 427.18 60.58Q428.54 63.35 428.54 67.46L428.54 67.46Q428.54 71.34 427.18 74.22Q425.81 77.10 423.40 79.01Q420.98 80.92 417.71 81.82Q414.43 82.72 410.62 82.72L410.62 82.72L403.85 82.72L403.85 100ZM403.85 59.61L403.85 76.02L409.97 76.02Q420.34 76.02 420.34 67.46L420.34 67.46Q420.34 62.99 417.64 61.30Q414.94 59.61 409.68 59.61L409.68 59.61L403.85 59.61ZM444.96 100L436.68 100L436.68 64.65L443.52 64.65L444.10 70.91L444.38 70.91Q446.26 67.46 448.92 65.62Q451.58 63.78 454.39 63.78L454.39 63.78Q456.91 63.78 458.42 64.50L458.42 64.50L456.98 71.70Q456.05 71.42 455.26 71.27Q454.46 71.13 453.31 71.13L453.31 71.13Q451.22 71.13 448.92 72.75Q446.62 74.37 444.96 78.40L444.96 78.40L444.96 100ZM477.29 100.86L477.29 100.86Q473.98 100.86 470.95 99.64Q467.93 98.42 465.59 96.04Q463.25 93.66 461.88 90.21Q460.51 86.75 460.51 82.36L460.51 82.36Q460.51 77.97 461.88 74.51Q463.25 71.06 465.59 68.68Q467.93 66.30 470.95 65.04Q473.98 63.78 477.29 63.78L477.29 63.78Q480.60 63.78 483.66 65.04Q486.72 66.30 489.02 68.68Q491.33 71.06 492.73 74.51Q494.14 77.97 494.14 82.36L494.14 82.36Q494.14 86.75 492.73 90.21Q491.33 93.66 489.02 96.04Q486.72 98.42 483.66 99.64Q480.60 100.86 477.29 100.86ZM477.29 94.10L477.29 94.10Q481.18 94.10 483.41 90.89Q485.64 87.69 485.64 82.36L485.64 82.36Q485.64 76.96 483.41 73.76Q481.18 70.55 477.29 70.55L477.29 70.55Q473.40 70.55 471.20 73.76Q469.01 76.96 469.01 82.36L469.01 82.36Q469.01 87.69 471.20 90.89Q473.40 94.10 477.29 94.10ZM526.61 100.86L526.61 100.86Q522.94 100.86 519.37 99.46Q515.81 98.06 513.22 95.97L513.22 95.97L517.10 90.64Q519.48 92.51 521.82 93.56Q524.16 94.60 526.90 94.60L526.90 94.60Q529.78 94.60 531.14 93.41Q532.51 92.22 532.51 90.35L532.51 90.35Q532.51 89.27 531.86 88.44Q531.22 87.62 530.14 86.97Q529.06 86.32 527.69 85.78Q526.32 85.24 524.95 84.66L524.95 84.66Q523.22 84.02 521.42 83.15Q519.62 82.29 518.22 81.06Q516.82 79.84 515.92 78.22Q515.02 76.60 515.02 74.37L515.02 74.37Q515.02 69.69 518.47 66.74Q521.93 63.78 527.90 63.78L527.90 63.78Q531.58 63.78 534.53 65.08Q537.48 66.38 539.64 68.03L539.64 68.03L535.82 73.07Q533.95 71.70 532.04 70.88Q530.14 70.05 528.05 70.05L528.05 70.05Q525.38 70.05 524.12 71.16Q522.86 72.28 522.86 73.94L522.86 73.94Q522.86 75.02 523.48 75.77Q524.09 76.53 525.10 77.10Q526.10 77.68 527.44 78.18Q528.77 78.69 530.21 79.19L530.21 79.19Q532.01 79.84 533.81 80.67Q535.61 81.50 537.08 82.72Q538.56 83.94 539.46 85.71Q540.36 87.47 540.36 89.92L540.36 89.92Q540.36 92.22 539.46 94.20Q538.56 96.18 536.83 97.66Q535.10 99.14 532.51 100Q529.92 100.86 526.61 100.86ZM562.90 100.86L562.90 100.86Q559.22 100.86 556.06 99.60Q552.89 98.34 550.51 95.97Q548.14 93.59 546.80 90.17Q545.47 86.75 545.47 82.36L545.47 82.36Q545.47 78.04 546.84 74.58Q548.21 71.13 550.48 68.75Q552.74 66.38 555.70 65.08Q558.65 63.78 561.74 63.78L561.74 63.78Q565.34 63.78 568.08 65.01Q570.82 66.23 572.65 68.46Q574.49 70.70 575.42 73.79Q576.36 76.89 576.36 80.56L576.36 80.56Q576.36 81.78 576.25 82.86Q576.14 83.94 576.00 84.59L576.00 84.59L553.54 84.59Q554.11 89.34 556.88 91.90Q559.66 94.46 563.98 94.46L563.98 94.46Q566.28 94.46 568.26 93.77Q570.24 93.09 572.18 91.86L572.18 91.86L574.99 97.05Q572.47 98.70 569.38 99.78Q566.28 100.86 562.90 100.86ZM553.46 78.98L553.46 78.98L569.16 78.98Q569.16 74.87 567.40 72.53Q565.63 70.19 561.96 70.19L561.96 70.19Q558.79 70.19 556.42 72.42Q554.04 74.66 553.46 78.98ZM592.56 100L584.28 100L584.28 64.65L591.12 64.65L591.70 69.47L591.98 69.47Q594.22 67.10 596.84 65.44Q599.47 63.78 602.78 63.78L602.78 63.78Q606.67 63.78 609.01 65.44Q611.35 67.10 612.58 70.12L612.58 70.12Q615.10 67.38 617.83 65.58Q620.57 63.78 623.95 63.78L623.95 63.78Q629.57 63.78 632.23 67.42Q634.90 71.06 634.90 77.82L634.90 77.82L634.90 100L626.54 100L626.54 78.90Q626.54 74.51 625.21 72.71Q623.88 70.91 621.14 70.91L621.14 70.91Q617.83 70.91 613.73 75.30L613.73 75.30L613.73 100L605.45 100L605.45 78.90Q605.45 74.51 604.12 72.71Q602.78 70.91 599.98 70.91L599.98 70.91Q596.66 70.91 592.56 75.30L592.56 75.30L592.56 100ZM653.26 100L644.98 100L644.98 64.65L653.26 64.65L653.26 100ZM649.15 58.46L649.15 58.46Q646.92 58.46 645.48 57.16Q644.04 55.86 644.04 53.78L644.04 53.78Q644.04 51.69 645.48 50.36Q646.92 49.02 649.15 49.02L649.15 49.02Q651.38 49.02 652.82 50.36Q654.26 51.69 654.26 53.78L654.26 53.78Q654.26 55.86 652.82 57.16Q651.38 58.46 649.15 58.46ZM695.38 100.86L695.38 100.86Q692.93 100.86 690.44 99.68Q687.96 98.49 685.73 96.26L685.73 96.26L685.51 96.26L684.79 100L678.24 100L678.24 49.17L686.52 49.17L686.52 62.27L686.30 68.18Q688.54 66.23 691.16 65.01Q693.79 63.78 696.53 63.78L696.53 63.78Q699.84 63.78 702.43 65.04Q705.02 66.30 706.82 68.64Q708.62 70.98 709.56 74.30Q710.50 77.61 710.50 81.71L710.50 81.71Q710.50 86.25 709.24 89.81Q707.98 93.38 705.89 95.82Q703.80 98.27 701.06 99.57Q698.33 100.86 695.38 100.86ZM693.65 94.02L693.65 94.02Q697.18 94.02 699.55 90.96Q701.93 87.90 701.93 81.86L701.93 81.86Q701.93 76.53 700.13 73.58Q698.33 70.62 694.30 70.62L694.30 70.62Q690.55 70.62 686.52 74.58L686.52 74.58L686.52 91.07Q688.39 92.73 690.23 93.38Q692.06 94.02 693.65 94.02ZM733.25 100.86L733.25 100.86Q729.94 100.86 726.91 99.64Q723.89 98.42 721.55 96.04Q719.21 93.66 717.84 90.21Q716.47 86.75 716.47 82.36L716.47 82.36Q716.47 77.97 717.84 74.51Q719.21 71.06 721.55 68.68Q723.89 66.30 726.91 65.04Q729.94 63.78 733.25 63.78L733.25 63.78Q736.56 63.78 739.62 65.04Q742.68 66.30 744.98 68.68Q747.29 71.06 748.69 74.51Q750.10 77.97 750.10 82.36L750.10 82.36Q750.10 86.75 748.69 90.21Q747.29 93.66 744.98 96.04Q742.68 98.42 739.62 99.64Q736.56 100.86 733.25 100.86ZM733.25 94.10L733.25 94.10Q737.14 94.10 739.37 90.89Q741.60 87.69 741.60 82.36L741.60 82.36Q741.60 76.96 739.37 73.76Q737.14 70.55 733.25 70.55L733.25 70.55Q729.36 70.55 727.16 73.76Q724.97 76.96 724.97 82.36L724.97 82.36Q724.97 87.69 727.16 90.89Q729.36 94.10 733.25 94.10ZM766.37 100.86L766.37 100.86Q761.90 100.86 760.10 98.20Q758.30 95.54 758.30 90.93L758.30 90.93L758.30 49.17L766.58 49.17L766.58 91.36Q766.58 92.87 767.16 93.48Q767.74 94.10 768.38 94.10L768.38 94.10Q768.67 94.10 768.92 94.10Q769.18 94.10 769.68 93.95L769.68 93.95L770.76 100.14Q769.10 100.86 766.37 100.86ZM790.20 100.86L790.20 100.86Q783.50 100.86 779.58 96.00Q775.66 91.14 775.66 82.36L775.66 82.36Q775.66 78.04 776.92 74.58Q778.18 71.13 780.26 68.75Q782.35 66.38 785.05 65.08Q787.75 63.78 790.63 63.78L790.63 63.78Q793.66 63.78 795.74 64.83Q797.83 65.87 799.92 67.67L799.92 67.67L799.63 61.98L799.63 49.17L807.91 49.17L807.91 100L801.07 100L800.50 96.18L800.21 96.18Q798.26 98.13 795.67 99.50Q793.08 100.86 790.20 100.86ZM792.22 94.02L792.22 94.02Q796.18 94.02 799.63 90.06L799.63 90.06L799.63 73.58Q797.76 71.92 796.00 71.27Q794.23 70.62 792.43 70.62L792.43 70.62Q788.98 70.62 786.60 73.65Q784.22 76.67 784.22 82.29L784.22 82.29Q784.22 88.05 786.28 91.04Q788.33 94.02 792.22 94.02Z"/></svg>