<svg xmlns="http://www.w3.org/2000/svg" viewBox="4.5360000000000005 47.943999999999996 942.9840000000005 52.92000000000001"><path d="M4.54 93.88L8.71 88.98Q11.45 91.50 14.87 93.05Q18.29 94.60 21.96 94.60L21.96 94.60Q26.64 94.60 29.12 92.73Q31.61 90.86 31.61 87.69L31.61 87.69Q31.61 86.10 31.00 84.95Q30.38 83.80 29.30 82.97Q28.22 82.14 26.71 81.50Q25.20 80.85 23.40 80.13L23.40 80.13L16.78 77.18Q14.98 76.46 13.18 75.41Q11.38 74.37 9.94 72.89Q8.50 71.42 7.60 69.44Q6.70 67.46 6.70 64.86L6.70 64.86Q6.70 62.13 7.85 59.75Q9.00 57.38 11.12 55.65Q13.25 53.92 16.16 52.95Q19.08 51.98 22.61 51.98L22.61 51.98Q27.00 51.98 30.82 53.56Q34.63 55.14 37.37 57.88L37.37 57.88L33.62 62.49Q31.32 60.47 28.66 59.36Q25.99 58.24 22.61 58.24L22.61 58.24Q18.58 58.24 16.27 59.90Q13.97 61.55 13.97 64.43L13.97 64.43Q13.97 66.02 14.65 67.10Q15.34 68.18 16.49 69.00Q17.64 69.83 19.12 70.44Q20.59 71.06 22.18 71.70L22.18 71.70L28.58 74.51Q30.82 75.38 32.69 76.49Q34.56 77.61 35.96 79.08Q37.37 80.56 38.16 82.54Q38.95 84.52 38.95 87.11L38.95 87.11Q38.95 89.92 37.80 92.44Q36.65 94.96 34.42 96.83Q32.18 98.70 29.02 99.78Q25.85 100.86 21.82 100.86L21.82 100.86Q16.70 100.86 12.31 99.03Q7.92 97.19 4.54 93.88L4.54 93.88ZM47.23 82.43L47.23 82.43Q47.23 78.04 48.67 74.58Q50.11 71.13 52.56 68.75Q55.01 66.38 58.18 65.15Q61.34 63.93 64.80 63.93L64.80 63.93Q68.26 63.93 71.42 65.15Q74.59 66.38 77.04 68.75Q79.49 71.13 80.93 74.58Q82.37 78.04 82.37 82.43L82.37 82.43Q82.37 86.82 80.93 90.24Q79.49 93.66 77.04 96.04Q74.59 98.42 71.42 99.64Q68.26 100.86 64.80 100.86L64.80 100.86Q61.34 100.86 58.18 99.64Q55.01 98.42 52.56 96.04Q50.11 93.66 48.67 90.24Q47.23 86.82 47.23 82.43ZM54.58 82.43L54.58 82.43Q54.58 88.12 57.31 91.58Q60.05 95.03 64.80 95.03L64.80 95.03Q69.55 95.03 72.29 91.58Q75.02 88.12 75.02 82.43L75.02 82.43Q75.02 76.74 72.29 73.29Q69.55 69.83 64.80 69.83L64.80 69.83Q60.05 69.83 57.31 73.29Q54.58 76.74 54.58 82.43ZM123.12 64.79L123.12 100L117.29 100L116.71 94.17L116.42 94.17Q113.83 97.19 110.77 99.03Q107.71 100.86 103.68 100.86L103.68 100.86Q97.42 100.86 94.54 97.23Q91.66 93.59 91.66 86.61L91.66 86.61L91.66 64.79L98.78 64.79L98.78 85.67Q98.78 90.35 100.44 92.55Q102.10 94.74 106.13 94.74L106.13 94.74Q108.86 94.74 111.13 93.41Q113.40 92.08 115.99 88.91L115.99 88.91L115.99 64.79L123.12 64.79ZM139.54 100L139.54 64.79L145.44 64.79L146.02 73L146.23 73Q148.97 68.68 152.89 66.30Q156.82 63.93 161.57 63.93L161.57 63.93Q163.66 63.93 165.24 64.25Q166.82 64.58 168.48 65.37L168.48 65.37L166.90 71.49Q165.10 70.91 163.80 70.62Q162.50 70.34 160.49 70.34L160.49 70.34Q156.67 70.34 153.14 72.50Q149.62 74.66 146.66 79.98L146.66 79.98L146.66 100L139.54 100ZM178.27 82.43L178.27 82.43Q178.27 78.04 179.86 74.58Q181.44 71.13 184.18 68.75Q186.91 66.38 190.48 65.15Q194.04 63.93 198.07 63.93L198.07 63.93Q202.39 63.93 205.63 65.40Q208.87 66.88 211.03 68.97L211.03 68.97L207.58 73.50Q205.49 71.78 203.26 70.80Q201.02 69.83 198.43 69.83L198.43 69.83Q195.62 69.83 193.25 70.73Q190.87 71.63 189.18 73.29Q187.49 74.94 186.55 77.28Q185.62 79.62 185.62 82.43L185.62 82.43Q185.62 85.24 186.52 87.58Q187.42 89.92 189.11 91.58Q190.80 93.23 193.10 94.13Q195.41 95.03 198.22 95.03L198.22 95.03Q201.46 95.03 204.05 93.81Q206.64 92.58 208.73 90.86L208.73 90.86L211.75 95.46Q208.73 98.06 205.13 99.46Q201.53 100.86 197.64 100.86L197.64 100.86Q193.54 100.86 189.97 99.64Q186.41 98.42 183.82 96.04Q181.22 93.66 179.75 90.24Q178.27 86.82 178.27 82.43ZM220.68 82.43L220.68 82.43Q220.68 78.11 222.19 74.69Q223.70 71.27 226.22 68.86Q228.74 66.45 231.98 65.19Q235.22 63.93 238.68 63.93L238.68 63.93Q242.57 63.93 245.56 65.15Q248.54 66.38 250.63 68.57Q252.72 70.77 253.80 73.83Q254.88 76.89 254.88 80.56L254.88 80.56Q254.88 81.64 254.77 82.61Q254.66 83.58 254.52 84.23L254.52 84.23L228.02 84.23Q228.38 89.42 231.88 92.33Q235.37 95.25 240.70 95.25L240.70 95.25Q243.58 95.25 246.06 94.46Q248.54 93.66 250.92 92.22L250.92 92.22L253.44 96.76Q250.70 98.49 247.28 99.68Q243.86 100.86 239.76 100.86L239.76 100.86Q235.80 100.86 232.31 99.60Q228.82 98.34 226.22 95.97Q223.63 93.59 222.16 90.17Q220.68 86.75 220.68 82.43ZM227.95 79.34L248.26 79.34Q248.26 74.58 245.81 72.06Q243.36 69.54 238.82 69.54L238.82 69.54Q234.86 69.54 231.77 72.06Q228.67 74.58 227.95 79.34L227.95 79.34ZM306.94 76.53L306.94 76.53Q306.94 70.77 308.56 66.23Q310.18 61.70 313.02 58.53Q315.86 55.36 319.79 53.67Q323.71 51.98 328.39 51.98L328.39 51.98Q332.71 51.98 336.06 53.74Q339.41 55.50 341.50 57.81L341.50 57.81L337.46 62.34Q335.66 60.47 333.47 59.36Q331.27 58.24 328.39 58.24L328.39 58.24Q325.22 58.24 322.63 59.50Q320.04 60.76 318.20 63.10Q316.37 65.44 315.36 68.79Q314.35 72.14 314.35 76.31L314.35 76.31Q314.35 80.56 315.36 83.94Q316.37 87.33 318.24 89.70Q320.11 92.08 322.70 93.34Q325.30 94.60 328.54 94.60L328.54 94.60Q331.56 94.60 333.97 93.30Q336.38 92.01 338.54 89.63L338.54 89.63L342.58 94.02Q339.70 97.34 336.17 99.10Q332.64 100.86 328.10 100.86L328.10 100.86Q323.64 100.86 319.75 99.24Q315.86 97.62 313.02 94.49Q310.18 91.36 308.56 86.86Q306.94 82.36 306.94 76.53ZM349.63 82.43L349.63 82.43Q349.63 78.04 351.07 74.58Q352.51 71.13 354.96 68.75Q357.41 66.38 360.58 65.15Q363.74 63.93 367.20 63.93L367.20 63.93Q370.66 63.93 373.82 65.15Q376.99 66.38 379.44 68.75Q381.89 71.13 383.33 74.58Q384.77 78.04 384.77 82.43L384.77 82.43Q384.77 86.82 383.33 90.24Q381.89 93.66 379.44 96.04Q376.99 98.42 373.82 99.64Q370.66 100.86 367.20 100.86L367.20 100.86Q363.74 100.86 360.58 99.64Q357.41 98.42 354.96 96.04Q352.51 93.66 351.07 90.24Q349.63 86.82 349.63 82.43ZM356.98 82.43L356.98 82.43Q356.98 88.12 359.71 91.58Q362.45 95.03 367.20 95.03L367.20 95.03Q371.95 95.03 374.69 91.58Q377.42 88.12 377.42 82.43L377.42 82.43Q377.42 76.74 374.69 73.29Q371.95 69.83 367.20 69.83L367.20 69.83Q362.45 69.83 359.71 73.29Q356.98 76.74 356.98 82.43ZM392.83 82.43L392.83 82.43Q392.83 78.11 394.16 74.69Q395.50 71.27 397.69 68.90Q399.89 66.52 402.73 65.22Q405.58 63.93 408.60 63.93L408.60 63.93Q411.84 63.93 414.18 65.08Q416.52 66.23 418.82 68.32L418.82 68.32L418.54 62.06L418.54 48.95L425.66 48.95L425.66 100L419.83 100L419.26 95.68L419.04 95.68Q416.95 97.77 414.07 99.32Q411.19 100.86 408.02 100.86L408.02 100.86Q404.57 100.86 401.80 99.64Q399.02 98.42 397.01 96.04Q394.99 93.66 393.91 90.24Q392.83 86.82 392.83 82.43ZM400.18 82.36L400.18 82.36Q400.18 88.48 402.66 91.72Q405.14 94.96 409.68 94.96L409.68 94.96Q414.43 94.96 418.54 90.21L418.54 90.21L418.54 73.50Q416.45 71.49 414.36 70.70Q412.27 69.90 410.18 69.90L410.18 69.90Q408.10 69.90 406.30 70.77Q404.50 71.63 403.13 73.25Q401.76 74.87 400.97 77.18Q400.18 79.48 400.18 82.36ZM436.68 82.43L436.68 82.43Q436.68 78.11 438.19 74.69Q439.70 71.27 442.22 68.86Q444.74 66.45 447.98 65.19Q451.22 63.93 454.68 63.93L454.68 63.93Q458.57 63.93 461.56 65.15Q464.54 66.38 466.63 68.57Q468.72 70.77 469.80 73.83Q470.88 76.89 470.88 80.56L470.88 80.56Q470.88 81.64 470.77 82.61Q470.66 83.58 470.52 84.23L470.52 84.23L444.02 84.23Q444.38 89.42 447.88 92.33Q451.37 95.25 456.70 95.25L456.70 95.25Q459.58 95.25 462.06 94.46Q464.54 93.66 466.92 92.22L466.92 92.22L469.44 96.76Q466.70 98.49 463.28 99.68Q459.86 100.86 455.76 100.86L455.76 100.86Q451.80 100.86 448.31 99.60Q444.82 98.34 442.22 95.97Q439.63 93.59 438.16 90.17Q436.68 86.75 436.68 82.43ZM443.95 79.34L464.26 79.34Q464.26 74.58 461.81 72.06Q459.36 69.54 454.82 69.54L454.82 69.54Q450.86 69.54 447.77 72.06Q444.67 74.58 443.95 79.34L443.95 79.34ZM525.17 100L525.17 52.84L540.36 52.84Q544.25 52.84 547.49 53.56Q550.73 54.28 553.10 55.97Q555.48 57.66 556.78 60.36Q558.07 63.06 558.07 67.02L558.07 67.02Q558.07 70.84 556.74 73.68Q555.41 76.53 553.03 78.36Q550.66 80.20 547.42 81.10Q544.18 82 540.36 82L540.36 82L532.37 82L532.37 100L525.17 100ZM532.37 76.17L539.64 76.17Q545.40 76.17 548.17 73.97Q550.94 71.78 550.94 67.02L550.94 67.02Q550.94 62.27 548.10 60.44Q545.26 58.60 539.64 58.60L539.64 58.60L532.37 58.60L532.37 76.17ZM571.54 100L571.54 64.79L577.44 64.79L578.02 73L578.23 73Q580.97 68.68 584.89 66.30Q588.82 63.93 593.57 63.93L593.57 63.93Q595.66 63.93 597.24 64.25Q598.82 64.58 600.48 65.37L600.48 65.37L598.90 71.49Q597.10 70.91 595.80 70.62Q594.50 70.34 592.49 70.34L592.49 70.34Q588.67 70.34 585.14 72.50Q581.62 74.66 578.66 79.98L578.66 79.98L578.66 100L571.54 100ZM608.83 82.43L608.83 82.43Q608.83 78.04 610.27 74.58Q611.71 71.13 614.16 68.75Q616.61 66.38 619.78 65.15Q622.94 63.93 626.40 63.93L626.40 63.93Q629.86 63.93 633.02 65.15Q636.19 66.38 638.64 68.75Q641.09 71.13 642.53 74.58Q643.97 78.04 643.97 82.43L643.97 82.43Q643.97 86.82 642.53 90.24Q641.09 93.66 638.64 96.04Q636.19 98.42 633.02 99.64Q629.86 100.86 626.40 100.86L626.40 100.86Q622.94 100.86 619.78 99.64Q616.61 98.42 614.16 96.04Q611.71 93.66 610.27 90.24Q608.83 86.82 608.83 82.43ZM616.18 82.43L616.18 82.43Q616.18 88.12 618.91 91.58Q621.65 95.03 626.40 95.03L626.40 95.03Q631.15 95.03 633.89 91.58Q636.62 88.12 636.62 82.43L636.62 82.43Q636.62 76.74 633.89 73.29Q631.15 69.83 626.40 69.83L626.40 69.83Q621.65 69.83 618.91 73.29Q616.18 76.74 616.18 82.43ZM695.09 100L695.09 64.79L700.56 64.79L701.14 69.40L701.35 69.40Q702.58 67.02 704.34 65.48Q706.10 63.93 709.13 63.93L709.13 63.93Q714.38 63.93 715.68 69.90L715.68 69.90Q717.12 67.24 718.99 65.58Q720.86 63.93 723.82 63.93L723.82 63.93Q727.49 63.93 729.50 66.77Q731.52 69.62 731.52 74.94L731.52 74.94L731.52 100L724.75 100L724.75 75.52Q724.75 70.12 721.44 70.12L721.44 70.12Q719.78 70.12 718.56 71.31Q717.34 72.50 716.11 74.94L716.11 74.94L716.11 100L710.50 100L710.50 75.52Q710.50 70.12 707.04 70.12L707.04 70.12Q705.38 70.12 704.23 71.31Q703.08 72.50 701.86 74.94L701.86 74.94L701.86 100L695.09 100ZM739.08 82.43L739.08 82.43Q739.08 78.11 740.59 74.69Q742.10 71.27 744.62 68.86Q747.14 66.45 750.38 65.19Q753.62 63.93 757.08 63.93L757.08 63.93Q760.97 63.93 763.96 65.15Q766.94 66.38 769.03 68.57Q771.12 70.77 772.20 73.83Q773.28 76.89 773.28 80.56L773.28 80.56Q773.28 81.64 773.17 82.61Q773.06 83.58 772.92 84.23L772.92 84.23L746.42 84.23Q746.78 89.42 750.28 92.33Q753.77 95.25 759.10 95.25L759.10 95.25Q761.98 95.25 764.46 94.46Q766.94 93.66 769.32 92.22L769.32 92.22L771.84 96.76Q769.10 98.49 765.68 99.68Q762.26 100.86 758.16 100.86L758.16 100.86Q754.20 100.86 750.71 99.60Q747.22 98.34 744.62 95.97Q742.03 93.59 740.56 90.17Q739.08 86.75 739.08 82.43ZM746.35 79.34L766.66 79.34Q766.66 74.58 764.21 72.06Q761.76 69.54 757.22 69.54L757.22 69.54Q753.26 69.54 750.17 72.06Q747.07 74.58 746.35 79.34L746.35 79.34ZM781.63 82.43L781.63 82.43Q781.63 78.11 782.96 74.69Q784.30 71.27 786.49 68.90Q788.69 66.52 791.53 65.22Q794.38 63.93 797.40 63.93L797.40 63.93Q800.64 63.93 802.98 65.08Q805.32 66.23 807.62 68.32L807.62 68.32L807.34 62.06L807.34 48.95L814.46 48.95L814.46 100L808.63 100L808.06 95.68L807.84 95.68Q805.75 97.77 802.87 99.32Q799.99 100.86 796.82 100.86L796.82 100.86Q793.37 100.86 790.60 99.64Q787.82 98.42 785.81 96.04Q783.79 93.66 782.71 90.24Q781.63 86.82 781.63 82.43ZM788.98 82.36L788.98 82.36Q788.98 88.48 791.46 91.72Q793.94 94.96 798.48 94.96L798.48 94.96Q803.23 94.96 807.34 90.21L807.34 90.21L807.34 73.50Q805.25 71.49 803.16 70.70Q801.07 69.90 798.98 69.90L798.98 69.90Q796.90 69.90 795.10 70.77Q793.30 71.63 791.93 73.25Q790.56 74.87 789.77 77.18Q788.98 79.48 788.98 82.36ZM827.06 70.55L827.06 64.79L849.96 64.79L849.96 100L842.83 100L842.83 70.55L827.06 70.55ZM845.78 58.10L845.78 58.10Q843.48 58.10 841.97 56.73Q840.46 55.36 840.46 53.06L840.46 53.06Q840.46 50.75 841.97 49.35Q843.48 47.94 845.78 47.94L845.78 47.94Q848.09 47.94 849.60 49.35Q851.11 50.75 851.11 53.06L851.11 53.06Q851.11 55.36 849.60 56.73Q848.09 58.10 845.78 58.10ZM900.72 64.79L900.72 100L894.89 100L894.31 94.17L894.02 94.17Q891.43 97.19 888.37 99.03Q885.31 100.86 881.28 100.86L881.28 100.86Q875.02 100.86 872.14 97.23Q869.26 93.59 869.26 86.61L869.26 86.61L869.26 64.79L876.38 64.79L876.38 85.67Q876.38 90.35 878.04 92.55Q879.70 94.74 883.73 94.74L883.73 94.74Q886.46 94.74 888.73 93.41Q891.00 92.08 893.59 88.91L893.59 88.91L893.59 64.79L900.72 64.79ZM911.09 100L911.09 64.79L916.56 64.79L917.14 69.40L917.35 69.40Q918.58 67.02 920.34 65.48Q922.10 63.93 925.13 63.93L925.13 63.93Q930.38 63.93 931.68 69.90L931.68 69.90Q933.12 67.24 934.99 65.58Q936.86 63.93 939.82 63.93L939.82 63.93Q943.49 63.93 945.50 66.77Q947.52 69.62 947.52 74.94L947.52 74.94L947.52 100L940.75 100L940.75 75.52Q940.75 70.12 937.44 70.12L937.44 70.12Q935.78 70.12 934.56 71.31Q933.34 72.50 932.11 74.94L932.11 74.94L932.11 100L926.50 100L926.50 75.52Q926.50 70.12 923.04 70.12L923.04 70.12Q921.38 70.12 920.23 71.31Q919.08 72.50 917.86 74.94L917.86 74.94L917.86 100L911.09 100Z"/></svg>