<svg xmlns="http://www.w3.org/2000/svg" viewBox="0.76 -7.19 88.57 7.3100000000000005"><path d="M0.76-0.87L1.06-1.19Q1.44-0.78 1.96-0.54Q2.48-0.30 3.09-0.30L3.09-0.30Q3.90-0.30 4.37-0.67Q4.83-1.03 4.83-1.62L4.83-1.62Q4.83-1.93 4.73-2.14Q4.62-2.35 4.45-2.50Q4.27-2.66 4.04-2.77Q3.80-2.89 3.54-3L3.54-3L2.54-3.45Q2.31-3.54 2.06-3.67Q1.81-3.80 1.60-4.00Q1.39-4.19 1.25-4.46Q1.11-4.72 1.11-5.09L1.11-5.09Q1.11-5.45 1.26-5.75Q1.41-6.04 1.68-6.25Q1.95-6.47 2.32-6.59Q2.69-6.71 3.12-6.71L3.12-6.71Q3.75-6.71 4.25-6.48Q4.74-6.24 5.06-5.92L5.06-5.92L4.79-5.61Q4.48-5.92 4.07-6.11Q3.65-6.29 3.12-6.29L3.12-6.29Q2.42-6.29 2.00-5.97Q1.57-5.65 1.57-5.11L1.57-5.11Q1.57-4.82 1.69-4.62Q1.81-4.42 2.00-4.28Q2.18-4.13 2.40-4.03Q2.61-3.92 2.81-3.84L2.81-3.84L3.80-3.40Q4.10-3.28 4.37-3.13Q4.64-2.98 4.84-2.78Q5.05-2.58 5.17-2.31Q5.29-2.03 5.29-1.65L5.29-1.65Q5.29-1.27 5.13-0.95Q4.98-0.62 4.69-0.39Q4.40-0.15 4.00-0.01Q3.59 0.12 3.09 0.12L3.09 0.12Q2.33 0.12 1.75-0.15Q1.17-0.43 0.76-0.87L0.76-0.87ZM6.67-2.39L6.67-2.39Q6.67-2.99 6.86-3.46Q7.04-3.94 7.36-4.26Q7.68-4.58 8.11-4.75Q8.53-4.92 9-4.92L9-4.92Q9.47-4.92 9.89-4.75Q10.32-4.58 10.64-4.26Q10.96-3.94 11.14-3.46Q11.33-2.99 11.33-2.39L11.33-2.39Q11.33-1.79 11.14-1.32Q10.96-0.86 10.64-0.54Q10.32-0.22 9.89-0.05Q9.47 0.12 9 0.12L9 0.12Q8.53 0.12 8.11-0.05Q7.68-0.22 7.36-0.54Q7.04-0.86 6.86-1.32Q6.67-1.79 6.67-2.39ZM7.14-2.39L7.14-2.39Q7.14-1.92 7.28-1.53Q7.42-1.14 7.67-0.86Q7.91-0.58 8.25-0.42Q8.59-0.27 9-0.27L9-0.27Q9.40-0.27 9.75-0.42Q10.09-0.58 10.34-0.86Q10.58-1.14 10.72-1.53Q10.86-1.92 10.86-2.39L10.86-2.39Q10.86-2.87 10.72-3.26Q10.58-3.65 10.34-3.94Q10.09-4.22 9.75-4.38Q9.40-4.53 9-4.53L9-4.53Q8.59-4.53 8.25-4.38Q7.91-4.22 7.67-3.94Q7.42-3.65 7.28-3.26Q7.14-2.87 7.14-2.39ZM16.94-4.80L16.94 0L16.57 0L16.52-0.93L16.48-0.93Q16.09-0.47 15.63-0.18Q15.17 0.12 14.59 0.12L14.59 0.12Q13.71 0.12 13.29-0.35Q12.87-0.83 12.87-1.81L12.87-1.81L12.87-4.80L13.31-4.80L13.31-1.87Q13.31-1.06 13.63-0.67Q13.94-0.28 14.66-0.28L14.66-0.28Q14.91-0.28 15.14-0.35Q15.37-0.41 15.59-0.55Q15.81-0.68 16.03-0.89Q16.25-1.09 16.50-1.37L16.50-1.37L16.50-4.80L16.94-4.80ZM19.63 0L19.63-4.80L20.01-4.80L20.06-3.62L20.08-3.62Q20.47-4.19 21.05-4.55Q21.62-4.92 22.34-4.92L22.34-4.92Q22.58-4.92 22.82-4.88Q23.07-4.84 23.30-4.72L23.30-4.72L23.18-4.33Q22.92-4.42 22.73-4.46Q22.55-4.50 22.27-4.50L22.27-4.50Q21.67-4.50 21.13-4.16Q20.58-3.82 20.08-3L20.08-3L20.08 0L19.63 0ZM24.87-2.39L24.87-2.39Q24.87-2.99 25.07-3.46Q25.28-3.94 25.64-4.26Q26-4.58 26.48-4.75Q26.95-4.92 27.49-4.92L27.49-4.92Q28.09-4.92 28.50-4.70Q28.92-4.48 29.22-4.19L29.22-4.19L28.96-3.89Q28.65-4.18 28.30-4.36Q27.95-4.53 27.50-4.53L27.50-4.53Q27.02-4.53 26.62-4.38Q26.22-4.22 25.93-3.94Q25.65-3.65 25.50-3.26Q25.34-2.87 25.34-2.39L25.34-2.39Q25.34-1.92 25.50-1.53Q25.65-1.14 25.93-0.86Q26.21-0.58 26.61-0.42Q27.01-0.27 27.49-0.27L27.49-0.27Q27.98-0.27 28.38-0.47Q28.79-0.66 29.11-0.96L29.11-0.96L29.34-0.65Q28.97-0.30 28.50-0.09Q28.04 0.12 27.47 0.12L27.47 0.12Q26.91 0.12 26.43-0.05Q25.96-0.22 25.61-0.54Q25.26-0.86 25.07-1.32Q24.87-1.79 24.87-2.39ZM30.77-2.39L30.77-2.39Q30.77-2.98 30.98-3.45Q31.18-3.92 31.52-4.25Q31.85-4.57 32.28-4.75Q32.71-4.92 33.17-4.92L33.17-4.92Q33.66-4.92 34.06-4.76Q34.46-4.61 34.74-4.33Q35.02-4.04 35.17-3.63Q35.32-3.22 35.32-2.70L35.32-2.70Q35.32-2.61 35.32-2.52Q35.32-2.43 35.30-2.34L35.30-2.34L31.23-2.34Q31.24-1.89 31.39-1.51Q31.55-1.12 31.82-0.84Q32.10-0.57 32.48-0.42Q32.87-0.26 33.34-0.26L33.34-0.26Q33.82-0.26 34.21-0.41Q34.60-0.55 34.94-0.78L34.94-0.78L35.12-0.44Q34.79-0.23 34.36-0.06Q33.93 0.12 33.30 0.12L33.30 0.12Q32.78 0.12 32.32-0.05Q31.86-0.22 31.52-0.55Q31.17-0.87 30.97-1.33Q30.77-1.80 30.77-2.39ZM31.23-2.70L34.89-2.70Q34.89-3.61 34.42-4.08Q33.96-4.54 33.18-4.54L33.18-4.54Q32.82-4.54 32.49-4.42Q32.16-4.29 31.90-4.05Q31.64-3.81 31.46-3.47Q31.28-3.13 31.23-2.70L31.23-2.70ZM42.72-3.31L42.72-3.31Q42.72-4.09 42.92-4.72Q43.13-5.35 43.50-5.79Q43.87-6.24 44.40-6.48Q44.92-6.71 45.55-6.71L45.55-6.71Q46.12-6.71 46.55-6.47Q46.99-6.23 47.26-5.92L47.26-5.92L46.98-5.62Q46.72-5.92 46.36-6.11Q46-6.29 45.55-6.29L45.55-6.29Q45.01-6.29 44.58-6.08Q44.14-5.87 43.84-5.49Q43.53-5.10 43.37-4.55Q43.20-4 43.20-3.31L43.20-3.31Q43.20-2.62 43.37-2.06Q43.53-1.51 43.83-1.12Q44.13-0.73 44.56-0.52Q44.99-0.30 45.52-0.30L45.52-0.30Q46.03-0.30 46.42-0.50Q46.81-0.70 47.17-1.11L47.17-1.11L47.44-0.82Q47.06-0.38 46.59-0.13Q46.13 0.12 45.49 0.12L45.49 0.12Q44.88 0.12 44.37-0.12Q43.86-0.36 43.49-0.81Q43.13-1.25 42.92-1.89Q42.72-2.52 42.72-3.31ZM48.67-2.39L48.67-2.39Q48.67-2.99 48.85-3.46Q49.04-3.94 49.36-4.26Q49.68-4.58 50.10-4.75Q50.53-4.92 51-4.92L51-4.92Q51.47-4.92 51.90-4.75Q52.32-4.58 52.64-4.26Q52.96-3.94 53.15-3.46Q53.33-2.99 53.33-2.39L53.33-2.39Q53.33-1.79 53.15-1.32Q52.96-0.86 52.64-0.54Q52.32-0.22 51.90-0.05Q51.47 0.12 51 0.12L51 0.12Q50.53 0.12 50.10-0.05Q49.68-0.22 49.36-0.54Q49.04-0.86 48.85-1.32Q48.67-1.79 48.67-2.39ZM49.14-2.39L49.14-2.39Q49.14-1.92 49.28-1.53Q49.42-1.14 49.66-0.86Q49.91-0.58 50.25-0.42Q50.59-0.27 51-0.27L51-0.27Q51.40-0.27 51.74-0.42Q52.09-0.58 52.34-0.86Q52.58-1.14 52.72-1.53Q52.86-1.92 52.86-2.39L52.86-2.39Q52.86-2.87 52.72-3.26Q52.58-3.65 52.34-3.94Q52.09-4.22 51.74-4.38Q51.40-4.53 51-4.53L51-4.53Q50.59-4.53 50.25-4.38Q49.91-4.22 49.66-3.94Q49.42-3.65 49.28-3.26Q49.14-2.87 49.14-2.39ZM54.67-2.39L54.67-2.39Q54.67-2.97 54.85-3.44Q55.04-3.91 55.35-4.24Q55.67-4.57 56.08-4.75Q56.48-4.92 56.93-4.92L56.93-4.92Q57.40-4.92 57.77-4.74Q58.15-4.56 58.53-4.24L58.53-4.24L58.50-5.21L58.50-7.19L58.95-7.19L58.95 0L58.57 0L58.52-0.71L58.50-0.71Q58.18-0.38 57.74-0.13Q57.30 0.12 56.79 0.12L56.79 0.12Q56.32 0.12 55.93-0.04Q55.54-0.21 55.26-0.53Q54.98-0.85 54.83-1.31Q54.67-1.78 54.67-2.39ZM55.14-2.39L55.14-2.39Q55.14-1.91 55.26-1.52Q55.37-1.13 55.59-0.85Q55.81-0.58 56.13-0.42Q56.45-0.27 56.85-0.27L56.85-0.27Q57.27-0.27 57.69-0.50Q58.10-0.73 58.50-1.15L58.50-1.15L58.50-3.82Q58.09-4.20 57.72-4.37Q57.34-4.53 56.96-4.53L56.96-4.53Q56.58-4.53 56.25-4.37Q55.92-4.20 55.67-3.92Q55.42-3.63 55.28-3.23Q55.14-2.84 55.14-2.39ZM60.77-2.39L60.77-2.39Q60.77-2.98 60.98-3.45Q61.18-3.92 61.52-4.25Q61.85-4.57 62.28-4.75Q62.71-4.92 63.17-4.92L63.17-4.92Q63.66-4.92 64.06-4.76Q64.46-4.61 64.74-4.33Q65.02-4.04 65.17-3.63Q65.32-3.22 65.32-2.70L65.32-2.70Q65.32-2.61 65.32-2.52Q65.32-2.43 65.30-2.34L65.30-2.34L61.23-2.34Q61.24-1.89 61.40-1.51Q61.55-1.12 61.83-0.84Q62.10-0.57 62.48-0.42Q62.87-0.26 63.34-0.26L63.34-0.26Q63.82-0.26 64.21-0.41Q64.60-0.55 64.94-0.78L64.94-0.78L65.12-0.44Q64.79-0.23 64.36-0.06Q63.93 0.12 63.30 0.12L63.30 0.12Q62.78 0.12 62.32-0.05Q61.86-0.22 61.52-0.55Q61.17-0.87 60.97-1.33Q60.77-1.80 60.77-2.39ZM61.23-2.70L64.89-2.70Q64.89-3.61 64.42-4.08Q63.96-4.54 63.18-4.54L63.18-4.54Q62.82-4.54 62.49-4.42Q62.16-4.29 61.90-4.05Q61.64-3.81 61.46-3.47Q61.28-3.13 61.23-2.70L61.23-2.70ZM73.18 0L73.18-6.59L74.98-6.59Q75.53-6.59 75.97-6.50Q76.40-6.40 76.70-6.18Q77.01-5.96 77.17-5.61Q77.33-5.26 77.33-4.75L77.33-4.75Q77.33-3.78 76.71-3.31Q76.09-2.83 74.98-2.83L74.98-2.83L73.64-2.83L73.64 0L73.18 0ZM73.64-3.22L74.86-3.22Q75.88-3.22 76.36-3.58Q76.85-3.94 76.85-4.75L76.85-4.75Q76.85-5.17 76.72-5.45Q76.60-5.72 76.36-5.89Q76.11-6.06 75.73-6.13Q75.36-6.20 74.86-6.20L74.86-6.20L73.64-6.20L73.64-3.22ZM79.63 0L79.63-4.80L80.01-4.80L80.06-3.62L80.08-3.62Q80.47-4.19 81.05-4.55Q81.62-4.92 82.34-4.92L82.34-4.92Q82.58-4.92 82.83-4.88Q83.07-4.84 83.30-4.72L83.30-4.72L83.18-4.33Q82.92-4.42 82.73-4.46Q82.55-4.50 82.27-4.50L82.27-4.50Q81.67-4.50 81.13-4.16Q80.58-3.82 80.08-3L80.08-3L80.08 0L79.63 0ZM84.67-2.39L84.67-2.39Q84.67-2.99 84.86-3.46Q85.04-3.94 85.36-4.26Q85.68-4.58 86.11-4.75Q86.53-4.92 87-4.92L87-4.92Q87.47-4.92 87.89-4.75Q88.32-4.58 88.64-4.26Q88.96-3.94 89.14-3.46Q89.33-2.99 89.33-2.39L89.33-2.39Q89.33-1.79 89.14-1.32Q88.96-0.86 88.64-0.54Q88.32-0.22 87.89-0.05Q87.47 0.12 87 0.12L87 0.12Q86.53 0.12 86.11-0.05Q85.68-0.22 85.36-0.54Q85.04-0.86 84.86-1.32Q84.67-1.79 84.67-2.39ZM85.14-2.39L85.14-2.39Q85.14-1.92 85.28-1.53Q85.42-1.14 85.67-0.86Q85.91-0.58 86.25-0.42Q86.59-0.27 87-0.27L87-0.27Q87.40-0.27 87.75-0.42Q88.09-0.58 88.33-0.86Q88.58-1.14 88.72-1.53Q88.86-1.92 88.86-2.39L88.86-2.39Q88.86-2.87 88.72-3.26Q88.58-3.65 88.33-3.94Q88.09-4.22 87.75-4.38Q87.40-4.53 87-4.53L87-4.53Q86.59-4.53 86.25-4.38Q85.91-4.22 85.67-3.94Q85.42-3.65 85.28-3.26Q85.14-2.87 85.14-2.39Z"/></svg>