<svg xmlns="http://www.w3.org/2000/svg" viewBox="3.4560000000000004 51.61599999999999 575.4240000000001 49.24800000000001"><path d="M19.30 100.86L19.30 100.86Q13.97 100.86 10.08 98.85Q6.19 96.83 3.46 93.66L3.46 93.66L5.04 92.08Q7.63 95.10 11.30 96.90Q14.98 98.70 19.30 98.70L19.30 98.70Q22.18 98.70 24.48 97.95Q26.78 97.19 28.40 95.86Q30.02 94.53 30.92 92.66Q31.82 90.78 31.82 88.48L31.82 88.48Q31.82 86.10 31.10 84.48Q30.38 82.86 29.20 81.68Q28.01 80.49 26.42 79.62Q24.84 78.76 23.04 77.97L23.04 77.97L15.70 74.66Q14.18 74.01 12.49 73.07Q10.80 72.14 9.36 70.80Q7.92 69.47 6.98 67.56Q6.05 65.66 6.05 62.99L6.05 62.99Q6.05 60.47 7.06 58.38Q8.06 56.30 9.86 54.78Q11.66 53.27 14.11 52.44Q16.56 51.62 19.44 51.62L19.44 51.62Q23.76 51.62 27.04 53.31Q30.31 55.00 32.40 57.23L32.40 57.23L30.96 58.82Q28.87 56.51 25.99 55.14Q23.11 53.78 19.44 53.78L19.44 53.78Q14.47 53.78 11.41 56.26Q8.35 58.74 8.35 62.85L8.35 62.85Q8.35 65.08 9.18 66.63Q10.01 68.18 11.27 69.29Q12.53 70.41 13.97 71.16Q15.41 71.92 16.70 72.50L16.70 72.50L24.05 75.81Q25.99 76.67 27.83 77.72Q29.66 78.76 31.07 80.20Q32.47 81.64 33.30 83.62Q34.13 85.60 34.13 88.34L34.13 88.34Q34.13 91.07 33.05 93.34Q31.97 95.61 30.02 97.30Q28.08 98.99 25.34 99.93Q22.61 100.86 19.30 100.86ZM56.30 100.86L56.30 100.86Q53.21 100.86 50.44 99.64Q47.66 98.42 45.58 96.11Q43.49 93.81 42.26 90.46Q41.04 87.11 41.04 82.86L41.04 82.86Q41.04 78.54 42.26 75.16Q43.49 71.78 45.58 69.47Q47.66 67.17 50.44 65.94Q53.21 64.72 56.30 64.72L56.30 64.72Q59.40 64.72 62.17 65.94Q64.94 67.17 67.03 69.47Q69.12 71.78 70.34 75.16Q71.57 78.54 71.57 82.86L71.57 82.86Q71.57 87.11 70.34 90.46Q69.12 93.81 67.03 96.11Q64.94 98.42 62.17 99.64Q59.40 100.86 56.30 100.86ZM56.30 98.85L56.30 98.85Q59.04 98.85 61.42 97.70Q63.79 96.54 65.52 94.42Q67.25 92.30 68.26 89.38Q69.26 86.46 69.26 82.86L69.26 82.86Q69.26 79.34 68.26 76.35Q67.25 73.36 65.52 71.24Q63.79 69.11 61.42 67.92Q59.04 66.74 56.30 66.74L56.30 66.74Q53.57 66.74 51.19 67.92Q48.82 69.11 47.09 71.24Q45.36 73.36 44.35 76.35Q43.34 79.34 43.34 82.86L43.34 82.86Q43.34 86.46 44.35 89.38Q45.36 92.30 47.09 94.42Q48.82 96.54 51.19 97.70Q53.57 98.85 56.30 98.85ZM92.16 100.86L92.16 100.86Q86.83 100.86 84.31 97.70Q81.79 94.53 81.79 87.76L81.79 87.76L81.79 65.58L83.95 65.58L83.95 87.47Q83.95 93.23 85.90 96.04Q87.84 98.85 92.30 98.85L92.30 98.85Q95.54 98.85 98.21 97.05Q100.87 95.25 104.11 91.36L104.11 91.36L104.11 65.58L106.27 65.58L106.27 100L104.40 100L104.11 94.10L103.97 94.10Q101.38 97.12 98.57 98.99Q95.76 100.86 92.16 100.86ZM122.26 100L120.10 100L120.10 65.58L121.97 65.58L122.26 72.06L122.40 72.06Q124.13 68.90 126.58 66.81Q129.02 64.72 132.19 64.72L132.19 64.72Q133.06 64.72 133.85 64.86Q134.64 65.01 135.50 65.44L135.50 65.44L134.93 67.46Q134.06 67.10 133.49 66.99Q132.91 66.88 131.90 66.88L131.90 66.88Q129.53 66.88 126.94 68.93Q124.34 70.98 122.26 76.10L122.26 76.10L122.26 100ZM153.79 100.86L153.79 100.86Q150.48 100.86 147.67 99.64Q144.86 98.42 142.81 96.11Q140.76 93.81 139.57 90.46Q138.38 87.11 138.38 82.86L138.38 82.86Q138.38 78.54 139.64 75.16Q140.90 71.78 143.03 69.47Q145.15 67.17 147.92 65.94Q150.70 64.72 153.79 64.72L153.79 64.72Q157.39 64.72 159.77 66.05Q162.14 67.38 163.87 69.04L163.87 69.04L162.43 70.62Q160.70 68.97 158.62 67.85Q156.53 66.74 153.79 66.74L153.79 66.74Q151.06 66.74 148.64 67.92Q146.23 69.11 144.47 71.24Q142.70 73.36 141.70 76.35Q140.69 79.34 140.69 82.86L140.69 82.86Q140.69 86.46 141.62 89.38Q142.56 92.30 144.29 94.42Q146.02 96.54 148.43 97.70Q150.84 98.85 153.79 98.85L153.79 98.85Q156.74 98.85 159.16 97.62Q161.57 96.40 163.44 94.67L163.44 94.67L164.74 96.26Q162.58 98.20 159.88 99.53Q157.18 100.86 153.79 100.86ZM185.04 100.86L185.04 100.86Q181.80 100.86 178.96 99.64Q176.11 98.42 173.95 96.08Q171.79 93.74 170.57 90.42Q169.34 87.11 169.34 82.86L169.34 82.86Q169.34 78.69 170.60 75.30Q171.86 71.92 173.92 69.58Q175.97 67.24 178.63 65.98Q181.30 64.72 184.18 64.72L184.18 64.72Q190.15 64.72 193.64 68.79Q197.14 72.86 197.14 80.56L197.14 80.56Q197.14 81.14 197.14 81.68Q197.14 82.22 196.99 82.86L196.99 82.86L171.65 82.86Q171.65 86.32 172.62 89.24Q173.59 92.15 175.36 94.31Q177.12 96.47 179.60 97.66Q182.09 98.85 185.18 98.85L185.18 98.85Q188.14 98.85 190.44 97.98Q192.74 97.12 194.69 95.68L194.69 95.68L195.70 97.55Q193.75 98.78 191.34 99.82Q188.93 100.86 185.04 100.86ZM171.65 80.85L171.65 80.85L194.98 80.85Q194.98 73.65 192.02 70.19Q189.07 66.74 184.18 66.74L184.18 66.74Q181.87 66.74 179.71 67.71Q177.55 68.68 175.86 70.52Q174.17 72.35 173.05 74.94Q171.94 77.54 171.65 80.85ZM233.57 100.86L233.57 100.86Q228.24 100.86 224.35 98.85Q220.46 96.83 217.73 93.66L217.73 93.66L219.31 92.08Q221.90 95.10 225.58 96.90Q229.25 98.70 233.57 98.70L233.57 98.70Q236.45 98.70 238.75 97.95Q241.06 97.19 242.68 95.86Q244.30 94.53 245.20 92.66Q246.10 90.78 246.10 88.48L246.10 88.48Q246.10 86.10 245.38 84.48Q244.66 82.86 243.47 81.68Q242.28 80.49 240.70 79.62Q239.11 78.76 237.31 77.97L237.31 77.97L229.97 74.66Q228.46 74.01 226.76 73.07Q225.07 72.14 223.63 70.80Q222.19 69.47 221.26 67.56Q220.32 65.66 220.32 62.99L220.32 62.99Q220.32 60.47 221.33 58.38Q222.34 56.30 224.14 54.78Q225.94 53.27 228.38 52.44Q230.83 51.62 233.71 51.62L233.71 51.62Q238.03 51.62 241.31 53.31Q244.58 55.00 246.67 57.23L246.67 57.23L245.23 58.82Q243.14 56.51 240.26 55.14Q237.38 53.78 233.71 53.78L233.71 53.78Q228.74 53.78 225.68 56.26Q222.62 58.74 222.62 62.85L222.62 62.85Q222.62 65.08 223.45 66.63Q224.28 68.18 225.54 69.29Q226.80 70.41 228.24 71.16Q229.68 71.92 230.98 72.50L230.98 72.50L238.32 75.81Q240.26 76.67 242.10 77.72Q243.94 78.76 245.34 80.20Q246.74 81.64 247.57 83.62Q248.40 85.60 248.40 88.34L248.40 88.34Q248.40 91.07 247.32 93.34Q246.24 95.61 244.30 97.30Q242.35 98.99 239.62 99.93Q236.88 100.86 233.57 100.86ZM265.68 100.86L265.68 100.86Q263.66 100.86 261.86 100.32Q260.06 99.78 258.70 98.67Q257.33 97.55 256.54 95.79Q255.74 94.02 255.74 91.58L255.74 91.58Q255.74 85.82 261.22 82.83Q266.69 79.84 278.35 78.54L278.35 78.54Q278.42 76.46 278.10 74.33Q277.78 72.21 276.84 70.52Q275.90 68.82 274.21 67.78Q272.52 66.74 269.86 66.74L269.86 66.74Q267.98 66.74 266.33 67.13Q264.67 67.53 263.23 68.18Q261.79 68.82 260.60 69.54Q259.42 70.26 258.62 70.91L258.62 70.91L257.47 69.18Q258.26 68.61 259.52 67.82Q260.78 67.02 262.40 66.34Q264.02 65.66 265.97 65.19Q267.91 64.72 270.00 64.72L270.00 64.72Q273.02 64.72 275.04 65.76Q277.06 66.81 278.28 68.61Q279.50 70.41 280.01 72.75Q280.51 75.09 280.51 77.68L280.51 77.68L280.51 100L278.64 100L278.35 95.39L278.21 95.39Q275.47 97.55 272.30 99.21Q269.14 100.86 265.68 100.86ZM265.82 98.85L265.82 98.85Q268.99 98.85 271.94 97.37Q274.90 95.90 278.35 92.94L278.35 92.94L278.35 80.42Q272.66 81.06 268.78 82.04Q264.89 83.01 262.51 84.38Q260.14 85.74 259.09 87.51Q258.05 89.27 258.05 91.50L258.05 91.50Q258.05 93.52 258.66 94.92Q259.27 96.33 260.35 97.19Q261.43 98.06 262.84 98.45Q264.24 98.85 265.82 98.85ZM295.49 100L293.33 100L293.33 65.58L295.20 65.58L295.49 71.06L295.63 71.06Q298.37 68.32 301.18 66.52Q303.98 64.72 307.58 64.72L307.58 64.72Q312.91 64.72 315.43 67.89Q317.95 71.06 317.95 77.82L317.95 77.82L317.95 100L315.79 100L315.79 78.11Q315.79 72.35 313.85 69.54Q311.90 66.74 307.44 66.74L307.44 66.74Q304.20 66.74 301.50 68.46Q298.80 70.19 295.49 73.65L295.49 73.65L295.49 100ZM339.26 100.86L339.26 100.86Q335.38 100.86 332.21 99.46Q329.04 98.06 326.74 96.11L326.74 96.11L328.18 94.38Q330.34 96.26 332.93 97.55Q335.52 98.85 339.41 98.85L339.41 98.85Q341.57 98.85 343.22 98.24Q344.88 97.62 345.96 96.62Q347.04 95.61 347.62 94.28Q348.19 92.94 348.19 91.50L348.19 91.50Q348.19 89.78 347.40 88.52Q346.61 87.26 345.38 86.28Q344.16 85.31 342.61 84.66Q341.06 84.02 339.55 83.44L339.55 83.44Q337.54 82.72 335.56 81.93Q333.58 81.14 331.96 80.06Q330.34 78.98 329.33 77.43Q328.32 75.88 328.32 73.65L328.32 73.65Q328.32 71.85 329.00 70.23Q329.69 68.61 331.06 67.38Q332.42 66.16 334.44 65.44Q336.46 64.72 339.12 64.72L339.12 64.72Q341.71 64.72 344.23 65.69Q346.75 66.66 348.62 68.18L348.62 68.18L347.33 69.90Q345.60 68.61 343.66 67.67Q341.71 66.74 338.98 66.74L338.98 66.74Q336.82 66.74 335.23 67.31Q333.65 67.89 332.64 68.86Q331.63 69.83 331.13 71.02Q330.62 72.21 330.62 73.50L330.62 73.50Q330.62 75.09 331.34 76.20Q332.06 77.32 333.25 78.15Q334.44 78.98 335.92 79.62Q337.39 80.27 338.98 80.85L338.98 80.85Q340.99 81.64 343.08 82.43Q345.17 83.22 346.79 84.34Q348.41 85.46 349.45 87.15Q350.50 88.84 350.50 91.36L350.50 91.36Q350.50 93.23 349.74 94.96Q348.98 96.69 347.58 97.98Q346.18 99.28 344.05 100.07Q341.93 100.86 339.26 100.86ZM376.99 100L374.69 100L374.69 52.48L386.06 52.48Q390.10 52.48 393.26 53.16Q396.43 53.85 398.59 55.40Q400.75 56.94 401.90 59.43Q403.06 61.91 403.06 65.44L403.06 65.44Q403.06 72.28 398.74 75.63Q394.42 78.98 386.35 78.98L386.35 78.98L376.99 78.98L376.99 100ZM376.99 54.50L376.99 76.96L385.49 76.96Q393.19 76.96 396.90 74.30Q400.61 71.63 400.61 65.44L400.61 65.44Q400.61 59.18 396.79 56.84Q392.98 54.50 385.20 54.50L385.20 54.50L376.99 54.50ZM415.58 100L413.42 100L413.42 65.58L415.30 65.58L415.58 72.06L415.73 72.06Q417.46 68.90 419.90 66.81Q422.35 64.72 425.52 64.72L425.52 64.72Q426.38 64.72 427.18 64.86Q427.97 65.01 428.83 65.44L428.83 65.44L428.26 67.46Q427.39 67.10 426.82 66.99Q426.24 66.88 425.23 66.88L425.23 66.88Q422.86 66.88 420.26 68.93Q417.67 70.98 415.58 76.10L415.58 76.10L415.58 100ZM446.98 100.86L446.98 100.86Q443.88 100.86 441.11 99.64Q438.34 98.42 436.25 96.11Q434.16 93.81 432.94 90.46Q431.71 87.11 431.71 82.86L431.71 82.86Q431.71 78.54 432.94 75.16Q434.16 71.78 436.25 69.47Q438.34 67.17 441.11 65.94Q443.88 64.72 446.98 64.72L446.98 64.72Q450.07 64.72 452.84 65.94Q455.62 67.17 457.70 69.47Q459.79 71.78 461.02 75.16Q462.24 78.54 462.24 82.86L462.24 82.86Q462.24 87.11 461.02 90.46Q459.79 93.81 457.70 96.11Q455.62 98.42 452.84 99.64Q450.07 100.86 446.98 100.86ZM446.98 98.85L446.98 98.85Q449.71 98.85 452.09 97.70Q454.46 96.54 456.19 94.42Q457.92 92.30 458.93 89.38Q459.94 86.46 459.94 82.86L459.94 82.86Q459.94 79.34 458.93 76.35Q457.92 73.36 456.19 71.24Q454.46 69.11 452.09 67.92Q449.71 66.74 446.98 66.74L446.98 66.74Q444.24 66.74 441.86 67.92Q439.49 69.11 437.76 71.24Q436.03 73.36 435.02 76.35Q434.02 79.34 434.02 82.86L434.02 82.86Q434.02 86.46 435.02 89.38Q436.03 92.30 437.76 94.42Q439.49 96.54 441.86 97.70Q444.24 98.85 446.98 98.85ZM511.20 100L483.55 100L483.55 98.56Q489.38 92.58 493.70 87.87Q498.02 83.15 500.90 79.26Q503.78 75.38 505.19 72.10Q506.59 68.82 506.59 65.73L506.59 65.73Q506.59 63.50 505.98 61.55Q505.37 59.61 504.07 58.17Q502.78 56.73 500.80 55.90Q498.82 55.07 496.08 55.07L496.08 55.07Q492.84 55.07 490.00 56.80Q487.15 58.53 484.99 61.26L484.99 61.26L483.41 59.82Q485.93 57.02 489.02 55.04Q492.12 53.06 496.22 53.06L496.22 53.06Q502.34 53.06 505.62 56.51Q508.90 59.97 508.90 65.73L508.90 65.73Q508.90 69.26 507.35 72.75Q505.80 76.24 502.96 80.13Q500.11 84.02 496.01 88.44Q491.90 92.87 486.86 98.27L486.86 98.27Q488.81 98.13 490.75 98.06Q492.70 97.98 494.64 97.98L494.64 97.98L511.20 97.98L511.20 100ZM531.50 100.86L531.50 100.86Q524.95 100.86 521.53 94.60Q518.11 88.34 518.11 76.82L518.11 76.82Q518.11 65.30 521.53 59.18Q524.95 53.06 531.50 53.06L531.50 53.06Q538.06 53.06 541.48 59.18Q544.90 65.30 544.90 76.82L544.90 76.82Q544.90 88.34 541.48 94.60Q538.06 100.86 531.50 100.86ZM531.50 98.85L531.50 98.85Q536.62 98.85 539.60 93.20Q542.59 87.54 542.59 76.82L542.59 76.82Q542.59 66.09 539.60 60.58Q536.62 55.07 531.50 55.07L531.50 55.07Q526.39 55.07 523.40 60.58Q520.42 66.09 520.42 76.82L520.42 76.82Q520.42 87.54 523.40 93.20Q526.39 98.85 531.50 98.85ZM565.49 100.86L565.49 100.86Q558.94 100.86 555.52 94.60Q552.10 88.34 552.10 76.82L552.10 76.82Q552.10 65.30 555.52 59.18Q558.94 53.06 565.49 53.06L565.49 53.06Q572.04 53.06 575.46 59.18Q578.88 65.30 578.88 76.82L578.88 76.82Q578.88 88.34 575.46 94.60Q572.04 100.86 565.49 100.86ZM565.49 98.85L565.49 98.85Q570.60 98.85 573.59 93.20Q576.58 87.54 576.58 76.82L576.58 76.82Q576.58 66.09 573.59 60.58Q570.60 55.07 565.49 55.07L565.49 55.07Q560.38 55.07 557.39 60.58Q554.40 66.09 554.40 76.82L554.40 76.82Q554.40 87.54 557.39 93.20Q560.38 98.85 565.49 98.85Z"/></svg>