<svg xmlns="http://www.w3.org/2000/svg" viewBox="2.8800000000000003 46.071999999999996 761.0400000000001 68.976"><path d="M18 72L21 73Q24 74 27 76Q30 77 31 79Q33 81 33 83Q34 85 34 87L34 87Q34 90 33 93Q32 96 29 97Q27 99 24 100Q21 101 17 101L17 101Q13 101 9 100Q5 99 3 97L3 97L3 87L8 87L9 96Q11 97 13 97Q14 97 17 97L17 97Q22 97 25 95Q28 93 28 89L28 89Q28 87 27 86Q27 84 26 83Q25 82 23 82Q21 81 19 80L19 80L16 79Q13 78 11 76Q9 75 7 73Q6 71 5 69Q4 67 4 64L4 64Q4 61 5 59Q6 56 8 54Q11 53 14 52Q16 51 20 51L20 51Q24 51 27 52Q30 53 32 55L32 55L31 64L27 64L25 56Q23 54 20 54L20 54Q15 54 13 57Q10 59 10 63L10 63Q10 66 12 68Q14 70 18 72L18 72ZM57 68L57 68Q52 68 49 72Q47 76 47 83L47 83Q47 90 49 94Q52 98 57 98L57 98Q61 98 64 94Q66 90 66 83L66 83Q66 76 64 72Q61 68 57 68ZM57 65L57 65Q60 65 63 66Q66 67 68 69Q70 72 72 75Q73 79 73 83L73 83Q73 87 72 91Q70 94 68 97Q66 99 63 100Q60 101 57 101L57 101Q53 101 51 100Q48 99 45 97Q43 94 42 91Q40 87 40 83L40 83Q40 79 42 75Q43 72 45 69Q48 67 51 66Q53 65 57 65ZM110 96L115 97L115 100L105 101L105 94Q102 98 98 99Q95 101 92 101L92 101Q90 101 88 100Q86 100 85 98Q84 97 83 94Q82 92 82 88L82 88L83 70L78 69L78 66L88 65L89 66L88 76L88 87Q88 92 90 94Q91 96 94 96L94 96Q99 96 104 91L104 91L105 70L99 69L99 66L110 65L111 66L110 76L110 96ZM131 65L132 74Q134 69 137 67Q140 65 143 65L143 65Q144 65 146 65Q147 66 147 68L147 68Q147 70 146 71Q145 72 143 72L143 72Q141 72 139 70L139 70L139 70Q136 71 135 74Q133 76 132 79L132 79L132 85Q132 87 132 90Q132 94 132 96L132 96L138 97L138 100L121 100L121 97L126 96Q126 94 126 91Q126 87 126 85L126 85L126 81Q126 78 126 76Q126 74 126 72L126 72L120 72L120 69L130 65L131 65ZM179 91L180 92Q179 96 176 99Q172 101 167 101L167 101Q163 101 160 100Q157 99 155 96Q153 94 152 90Q151 87 151 83L151 83Q151 79 152 75Q154 72 156 70Q158 67 161 66Q164 65 167 65L167 65Q170 65 172 65Q174 66 176 67Q178 69 179 70Q180 72 180 74L180 74Q180 77 177 77L177 77Q175 77 174 76Q173 75 173 73L173 73L172 69Q171 68 170 68Q169 68 168 68L168 68Q163 68 160 72Q157 75 157 82L157 82Q157 89 160 93Q164 96 169 96L169 96Q172 96 174 95Q177 94 179 91L179 91ZM193 79L206 79Q208 79 209 78Q210 77 210 76L210 76Q210 74 209 73Q209 71 208 70Q207 69 205 69Q204 68 202 68L202 68Q201 68 199 69Q197 69 196 71Q195 72 194 74Q193 76 193 79L193 79ZM215 83L192 83Q193 89 196 93Q199 96 204 96L204 96Q208 96 210 95Q212 94 214 91L214 91L216 93Q214 97 210 99Q207 101 202 101L202 101Q198 101 195 100Q192 99 190 96Q188 94 187 91Q186 87 186 83L186 83Q186 79 187 76Q189 72 191 70Q193 67 196 66Q199 65 203 65L203 65Q205 65 208 66Q210 67 212 68Q214 70 215 73Q216 75 216 79L216 79Q216 80 216 81Q216 82 215 83L215 83ZM254 72L257 73Q261 74 263 76Q266 77 267 79Q269 81 269 83Q270 85 270 87L270 87Q270 90 269 93Q268 96 265 97Q263 99 260 100Q257 101 253 101L253 101Q249 101 245 100Q241 99 239 97L239 97L239 87L244 87L245 96Q247 97 249 97Q250 97 253 97L253 97Q258 97 261 95Q264 93 264 89L264 89Q264 87 263 86Q263 84 262 83Q261 82 259 82Q257 81 255 80L255 80L252 79Q249 78 247 76Q245 75 243 73Q242 71 241 69Q240 67 240 64L240 64Q240 61 241 59Q242 56 244 54Q247 53 250 52Q253 51 256 51L256 51Q260 51 263 52Q266 53 268 55L268 55L267 64L263 64L262 56Q259 54 256 54L256 54Q251 54 249 57Q246 59 246 63L246 63Q246 66 248 68Q250 70 254 72L254 72ZM283 79L296 79Q299 79 300 78Q300 77 300 76L300 76Q300 74 300 73Q299 71 298 70Q297 69 296 69Q294 68 293 68L293 68Q291 68 289 69Q288 69 287 71Q285 72 284 74Q283 76 283 79L283 79ZM306 83L283 83Q283 89 286 93Q289 96 294 96L294 96Q298 96 300 95Q303 94 304 91L304 91L306 93Q304 97 301 99Q297 101 292 101L292 101Q289 101 286 100Q283 99 281 96Q279 94 277 91Q276 87 276 83L276 83Q276 79 278 76Q279 72 281 70Q283 67 286 66Q290 65 293 65L293 65Q296 65 298 66Q301 67 302 68Q304 70 305 73Q306 75 306 79L306 79Q306 80 306 81Q306 82 306 83L306 83ZM323 65L324 74Q326 69 329 67Q331 65 334 65L334 65Q336 65 338 65Q339 66 339 68L339 68Q339 70 338 71Q337 72 335 72L335 72Q333 72 331 70L331 70L330 70Q328 71 327 74Q325 76 324 79L324 79L324 85Q324 87 324 90Q324 94 324 96L324 96L330 97L330 100L313 100L313 97L318 96Q318 94 318 91Q318 87 318 85L318 85L318 81Q318 78 318 76Q318 74 318 72L318 72L312 72L312 69L322 65L323 65ZM351 57L351 57Q349 57 348 56Q346 54 346 52L346 52Q346 50 348 49Q349 48 351 48L351 48Q353 48 355 49Q356 50 356 52L356 52Q356 54 355 56Q353 57 351 57ZM354 96L359 97L359 100L343 100L343 97L348 96Q348 94 348 90Q348 87 348 85L348 85L348 81Q348 78 348 76Q348 74 348 72L348 72L342 72L342 69L353 65L354 65L354 75L354 85Q354 87 354 90Q354 94 354 96L354 96ZM364 67L370 66Q370 63 371 61Q371 58 372 56Q372 55 373 53Q374 52 375 50L375 50Q377 48 380 47Q383 46 385 46L385 46Q388 46 390 47Q392 48 392 50L392 50Q392 51 391 52Q390 53 388 53L388 53Q386 53 385 53Q384 52 383 51L383 51L381 50Q379 51 378 52L378 52Q377 54 377 58Q376 61 376 66L376 66L386 66L386 70L376 70L376 85Q376 88 376 91Q376 93 376 96L376 96L383 97L383 100L364 100L364 97L370 96Q370 94 370 91Q370 88 370 85L370 85L370 70L364 70L364 67ZM425 55L421 55Q421 60 421 65Q421 69 421 74L421 74L421 78L424 78Q428 78 430 77Q433 76 434 74Q436 73 437 71Q438 69 438 66L438 66Q438 61 435 58Q432 55 425 55L425 55ZM423 81L421 81Q421 85 421 89Q421 92 421 96L421 96L427 97L427 100L407 100L407 97L414 96Q414 92 414 87Q414 82 414 78L414 78L414 74Q414 69 414 65Q414 60 414 56L414 56L407 55L407 52L426 52Q431 52 434 53Q438 54 440 56Q442 58 444 60Q445 63 445 66L445 66Q445 69 443 72Q442 75 440 77Q437 79 433 80Q429 81 423 81L423 81ZM459 65L460 74Q462 69 465 67Q467 65 470 65L470 65Q472 65 473 65Q475 66 475 68L475 68Q475 70 474 71Q473 72 471 72L471 72Q469 72 467 70L467 70L466 70Q464 71 463 74Q461 76 460 79L460 79L460 85Q460 87 460 90Q460 94 460 96L460 96L466 97L466 100L449 100L449 97L454 96Q454 94 454 91Q454 87 454 85L454 85L454 81Q454 78 454 76Q454 74 454 72L454 72L448 72L448 69L458 65L459 65ZM495 68L495 68Q490 68 488 72Q485 76 485 83L485 83Q485 90 488 94Q490 98 495 98L495 98Q500 98 502 94Q505 90 505 83L505 83Q505 76 502 72Q500 68 495 68ZM495 65L495 65Q498 65 501 66Q504 67 506 69Q509 72 510 75Q512 79 512 83L512 83Q512 87 510 91Q509 94 506 97Q504 99 501 100Q498 101 495 101L495 101Q492 101 489 100Q486 99 484 97Q481 94 480 91Q478 87 478 83L478 83Q478 79 480 75Q481 72 484 69Q486 67 489 66Q492 65 495 65ZM545 65L546 74Q548 69 551 67Q553 65 556 65L556 65Q558 65 559 65Q561 66 561 68L561 68Q561 70 560 71Q559 72 557 72L557 72Q555 72 553 70L553 70L552 70Q550 71 548 74Q547 76 546 79L546 79L546 85Q546 87 546 90Q546 94 546 96L546 96L552 97L552 100L535 100L535 97L540 96Q540 94 540 91Q540 87 540 85L540 85L540 81Q540 78 540 76Q540 74 540 72L540 72L534 72L534 69L544 65L545 65ZM571 79L584 79Q587 79 588 78Q589 77 589 76L589 76Q589 74 588 73Q587 71 586 70Q585 69 584 69Q582 68 581 68L581 68Q579 68 578 69Q576 69 575 71Q573 72 572 74Q571 76 571 79L571 79ZM594 83L571 83Q571 89 574 93Q578 96 583 96L583 96Q586 96 588 95Q591 94 593 91L593 91L594 93Q593 97 589 99Q586 101 581 101L581 101Q577 101 574 100Q571 99 569 96Q567 94 566 91Q565 87 565 83L565 83Q565 79 566 76Q567 72 569 70Q572 67 575 66Q578 65 581 65L581 65Q584 65 586 66Q589 67 591 68Q592 70 594 73Q595 75 595 79L595 79Q595 80 594 81Q594 82 594 83L594 83ZM615 85L615 85Q618 85 620 83Q622 80 622 76L622 76Q622 72 620 70Q619 68 615 68L615 68Q612 68 610 70Q608 73 608 77L608 77Q608 80 610 83Q612 85 615 85ZM621 100L613 100Q611 100 609 100L609 100Q608 101 607 103Q606 104 606 106L606 106Q606 109 609 110Q611 112 616 112L616 112Q622 112 625 110Q628 108 628 105L628 105Q628 104 627 103Q627 102 626 102Q625 101 624 100Q623 100 621 100L621 100ZM634 66L634 70L627 70Q628 73 628 76L628 76Q628 79 627 81Q626 84 624 85Q623 87 620 87Q618 88 615 88L615 88Q614 88 612 88Q611 88 610 88L610 88Q609 88 609 89Q609 90 609 91L609 91Q609 93 610 94Q611 95 614 95L614 95L622 95Q628 95 630 97Q633 99 633 103L633 103Q633 105 632 107Q631 110 629 111Q626 113 623 114Q620 115 615 115L615 115Q611 115 609 114Q606 114 604 113Q602 112 601 110Q600 108 600 107L600 107Q600 102 607 99L607 99Q605 98 604 97Q603 95 603 93L603 93Q603 92 604 90Q606 88 608 87L608 87Q605 85 604 83Q602 80 602 76L602 76Q602 74 603 71Q604 69 606 68Q608 66 610 65Q612 65 615 65L615 65Q621 65 624 68L624 68L633 65L634 66ZM670 96L675 97L675 100L665 101L664 94Q661 98 658 99Q655 101 651 101L651 101Q649 101 647 100Q646 100 644 98Q643 97 642 94Q642 92 642 88L642 88L642 70L637 69L637 66L648 65L648 66L648 76L648 87Q648 92 649 94Q651 96 654 96L654 96Q659 96 664 91L664 91L664 70L659 69L659 66L669 65L670 66L670 76L670 96ZM691 96L697 97L697 100L679 100L679 97L685 96Q685 93 685 91Q685 88 685 85L685 85L685 54L679 53L679 51L690 48L691 48L691 58L691 85Q691 88 691 91Q691 94 691 96L691 96ZM721 92L721 81Q719 82 718 82Q716 83 715 83L715 83Q712 84 711 85Q709 86 709 87Q708 88 708 89Q708 90 708 91L708 91Q708 92 708 93Q708 94 709 95L709 95Q711 96 713 96L713 96Q714 96 715 96Q716 96 717 96Q718 95 719 94Q720 94 721 92L721 92ZM733 95L734 97Q733 99 732 100Q730 101 728 101L728 101Q725 101 724 99Q722 98 721 95L721 95Q720 97 719 98Q717 99 716 100Q715 100 714 101Q712 101 711 101L711 101Q709 101 707 101Q705 100 704 99Q703 98 702 96Q701 94 701 92L701 92Q701 90 702 89Q702 88 704 86Q705 85 707 84Q709 82 713 81L713 81Q715 80 717 80Q719 79 721 79L721 79L721 77Q721 74 721 72Q720 71 720 70Q719 69 718 68Q716 68 715 68L715 68Q714 68 713 68Q712 68 711 68L711 68L709 73Q708 77 706 77L706 77Q704 77 703 76Q702 75 702 74L702 74Q703 70 707 67Q711 65 716 65L716 65Q722 65 725 68Q727 70 727 77L727 77L727 93Q727 97 730 97L730 97Q731 97 731 97Q732 96 732 96L732 96L733 95ZM748 65L749 74Q751 69 753 67Q756 65 759 65L759 65Q761 65 762 65Q764 66 764 68L764 68Q764 70 763 71Q761 72 760 72L760 72Q757 72 755 70L755 70L755 70Q753 71 751 74Q750 76 749 79L749 79L749 85Q749 87 749 90Q749 94 749 96L749 96L755 97L755 100L737 100L737 97L743 96Q743 94 743 91Q743 87 743 85L743 85L743 81Q743 78 743 76Q743 74 742 72L742 72L737 72L737 69L747 65L748 65Z"/></svg>