<svg xmlns="http://www.w3.org/2000/svg" viewBox="0.48 -6.72 63.720000000000006 6.84"><path d="M2.68 0.12L2.68 0.12Q1.94 0.12 1.40-0.16Q0.86-0.44 0.48-0.88L0.48-0.88L0.70-1.10Q1.06-0.68 1.57-0.43Q2.08-0.18 2.68-0.18L2.68-0.18Q3.08-0.18 3.40-0.29Q3.72-0.39 3.95-0.58Q4.17-0.76 4.29-1.02Q4.42-1.28 4.42-1.60L4.42-1.60Q4.42-1.93 4.32-2.16Q4.22-2.38 4.05-2.54Q3.89-2.71 3.67-2.83Q3.45-2.95 3.20-3.06L3.20-3.06L2.18-3.52Q1.97-3.61 1.74-3.74Q1.50-3.87 1.30-4.05Q1.10-4.24 0.97-4.50Q0.84-4.77 0.84-5.14L0.84-5.14Q0.84-5.49 0.98-5.78Q1.12-6.07 1.37-6.28Q1.62-6.49 1.96-6.61Q2.30-6.72 2.70-6.72L2.70-6.72Q3.30-6.72 3.75-6.49Q4.21-6.25 4.50-5.94L4.50-5.94L4.30-5.72Q4.01-6.04 3.61-6.23Q3.21-6.42 2.70-6.42L2.70-6.42Q2.01-6.42 1.58-6.08Q1.16-5.73 1.16-5.16L1.16-5.16Q1.16-4.85 1.28-4.63Q1.39-4.42 1.56-4.26Q1.74-4.11 1.94-4.00Q2.14-3.90 2.32-3.82L2.32-3.82L3.34-3.36Q3.61-3.24 3.87-3.10Q4.12-2.95 4.32-2.75Q4.51-2.55 4.63-2.27Q4.74-2 4.74-1.62L4.74-1.62Q4.74-1.24 4.59-0.93Q4.44-0.61 4.17-0.38Q3.90-0.14 3.52-0.01Q3.14 0.12 2.68 0.12ZM7.82 0.12L7.82 0.12Q7.39 0.12 7.00-0.05Q6.62-0.22 6.33-0.54Q6.04-0.86 5.87-1.32Q5.70-1.79 5.70-2.38L5.70-2.38Q5.70-2.98 5.87-3.45Q6.04-3.92 6.33-4.24Q6.62-4.56 7.00-4.73Q7.39-4.90 7.82-4.90L7.82-4.90Q8.25-4.90 8.63-4.73Q9.02-4.56 9.31-4.24Q9.60-3.92 9.77-3.45Q9.94-2.98 9.94-2.38L9.94-2.38Q9.94-1.79 9.77-1.32Q9.60-0.86 9.31-0.54Q9.02-0.22 8.63-0.05Q8.25 0.12 7.82 0.12ZM7.82-0.16L7.82-0.16Q8.20-0.16 8.53-0.32Q8.86-0.48 9.10-0.78Q9.34-1.07 9.48-1.48Q9.62-1.88 9.62-2.38L9.62-2.38Q9.62-2.87 9.48-3.29Q9.34-3.70 9.10-4.00Q8.86-4.29 8.53-4.46Q8.20-4.62 7.82-4.62L7.82-4.62Q7.44-4.62 7.11-4.46Q6.78-4.29 6.54-4.00Q6.30-3.70 6.16-3.29Q6.02-2.87 6.02-2.38L6.02-2.38Q6.02-1.88 6.16-1.48Q6.30-1.07 6.54-0.78Q6.78-0.48 7.11-0.32Q7.44-0.16 7.82-0.16ZM12.80 0.12L12.80 0.12Q12.06 0.12 11.71-0.32Q11.36-0.76 11.36-1.70L11.36-1.70L11.36-4.78L11.66-4.78L11.66-1.74Q11.66-0.94 11.93-0.55Q12.20-0.16 12.82-0.16L12.82-0.16Q13.27-0.16 13.64-0.41Q14.01-0.66 14.46-1.20L14.46-1.20L14.46-4.78L14.76-4.78L14.76 0L14.50 0L14.46-0.82L14.44-0.82Q14.08-0.40 13.69-0.14Q13.30 0.12 12.80 0.12ZM16.98 0L16.68 0L16.68-4.78L16.94-4.78L16.98-3.88L17-3.88Q17.24-4.32 17.58-4.61Q17.92-4.90 18.36-4.90L18.36-4.90Q18.48-4.90 18.59-4.88Q18.70-4.86 18.82-4.80L18.82-4.80L18.74-4.52Q18.62-4.57 18.54-4.58Q18.46-4.60 18.32-4.60L18.32-4.60Q17.99-4.60 17.63-4.32Q17.27-4.03 16.98-3.32L16.98-3.32L16.98 0ZM21.36 0.12L21.36 0.12Q20.90 0.12 20.51-0.05Q20.12-0.22 19.84-0.54Q19.55-0.86 19.38-1.32Q19.22-1.79 19.22-2.38L19.22-2.38Q19.22-2.98 19.39-3.45Q19.57-3.92 19.86-4.24Q20.16-4.56 20.54-4.73Q20.93-4.90 21.36-4.90L21.36-4.90Q21.86-4.90 22.19-4.71Q22.52-4.53 22.76-4.30L22.76-4.30L22.56-4.08Q22.32-4.31 22.03-4.46Q21.74-4.62 21.36-4.62L21.36-4.62Q20.98-4.62 20.64-4.46Q20.31-4.29 20.07-4.00Q19.82-3.70 19.68-3.29Q19.54-2.87 19.54-2.38L19.54-2.38Q19.54-1.88 19.67-1.48Q19.80-1.07 20.04-0.78Q20.28-0.48 20.61-0.32Q20.95-0.16 21.36-0.16L21.36-0.16Q21.77-0.16 22.11-0.33Q22.44-0.50 22.70-0.74L22.70-0.74L22.88-0.52Q22.58-0.25 22.20-0.07Q21.83 0.12 21.36 0.12ZM25.70 0.12L25.70 0.12Q25.25 0.12 24.86-0.05Q24.46-0.22 24.16-0.55Q23.86-0.87 23.69-1.33Q23.52-1.79 23.52-2.38L23.52-2.38Q23.52-2.96 23.70-3.43Q23.87-3.90 24.16-4.22Q24.44-4.55 24.81-4.73Q25.18-4.90 25.58-4.90L25.58-4.90Q26.41-4.90 26.89-4.33Q27.38-3.77 27.38-2.70L27.38-2.70Q27.38-2.62 27.38-2.54Q27.38-2.47 27.36-2.38L27.36-2.38L23.84-2.38Q23.84-1.90 23.98-1.50Q24.11-1.09 24.36-0.79Q24.60-0.49 24.95-0.33Q25.29-0.16 25.72-0.16L25.72-0.16Q26.13-0.16 26.45-0.28Q26.77-0.40 27.04-0.60L27.04-0.60L27.18-0.34Q26.91-0.17 26.57-0.03Q26.24 0.12 25.70 0.12ZM23.84-2.66L23.84-2.66L27.08-2.66Q27.08-3.66 26.67-4.14Q26.26-4.62 25.58-4.62L25.58-4.62Q25.26-4.62 24.96-4.49Q24.66-4.35 24.43-4.09Q24.19-3.84 24.04-3.48Q23.88-3.12 23.84-2.66ZM32.44 0.12L32.44 0.12Q31.70 0.12 31.16-0.16Q30.62-0.44 30.24-0.88L30.24-0.88L30.46-1.10Q30.82-0.68 31.33-0.43Q31.84-0.18 32.44-0.18L32.44-0.18Q32.84-0.18 33.16-0.29Q33.48-0.39 33.70-0.58Q33.93-0.76 34.05-1.02Q34.18-1.28 34.18-1.60L34.18-1.60Q34.18-1.93 34.08-2.16Q33.98-2.38 33.81-2.54Q33.65-2.71 33.43-2.83Q33.21-2.95 32.96-3.06L32.96-3.06L31.94-3.52Q31.73-3.61 31.50-3.74Q31.26-3.87 31.06-4.05Q30.86-4.24 30.73-4.50Q30.60-4.77 30.60-5.14L30.60-5.14Q30.60-5.49 30.74-5.78Q30.88-6.07 31.13-6.28Q31.38-6.49 31.72-6.61Q32.06-6.72 32.46-6.72L32.46-6.72Q33.06-6.72 33.52-6.49Q33.97-6.25 34.26-5.94L34.26-5.94L34.06-5.72Q33.77-6.04 33.37-6.23Q32.97-6.42 32.46-6.42L32.46-6.42Q31.77-6.42 31.35-6.08Q30.92-5.73 30.92-5.16L30.92-5.16Q30.92-4.85 31.04-4.63Q31.15-4.42 31.33-4.26Q31.50-4.11 31.70-4.00Q31.90-3.90 32.08-3.82L32.08-3.82L33.10-3.36Q33.37-3.24 33.63-3.10Q33.88-2.95 34.08-2.75Q34.27-2.55 34.39-2.27Q34.50-2 34.50-1.62L34.50-1.62Q34.50-1.24 34.35-0.93Q34.20-0.61 33.93-0.38Q33.66-0.14 33.28-0.01Q32.90 0.12 32.44 0.12ZM36.90 0.12L36.90 0.12Q36.62 0.12 36.37 0.04Q36.12-0.03 35.93-0.18Q35.74-0.34 35.63-0.58Q35.52-0.83 35.52-1.17L35.52-1.17Q35.52-1.97 36.28-2.39Q37.04-2.80 38.66-2.98L38.66-2.98Q38.67-3.27 38.63-3.56Q38.58-3.86 38.45-4.09Q38.32-4.33 38.09-4.48Q37.85-4.62 37.48-4.62L37.48-4.62Q37.22-4.62 36.99-4.57Q36.76-4.51 36.56-4.42Q36.36-4.33 36.20-4.23Q36.03-4.13 35.92-4.04L35.92-4.04L35.76-4.28Q35.87-4.36 36.05-4.47Q36.22-4.58 36.45-4.67Q36.67-4.77 36.94-4.83Q37.21-4.90 37.50-4.90L37.50-4.90Q37.92-4.90 38.20-4.75Q38.48-4.61 38.65-4.36Q38.82-4.11 38.89-3.79Q38.96-3.46 38.96-3.10L38.96-3.10L38.96 0L38.70 0L38.66-0.64L38.64-0.64Q38.26-0.34 37.82-0.11Q37.38 0.12 36.90 0.12ZM36.92-0.16L36.92-0.16Q37.36-0.16 37.77-0.36Q38.18-0.57 38.66-0.98L38.66-0.98L38.66-2.72Q37.87-2.63 37.33-2.50Q36.79-2.36 36.46-2.17Q36.13-1.98 35.98-1.74Q35.84-1.49 35.84-1.18L35.84-1.18Q35.84-0.90 35.93-0.70Q36.01-0.51 36.16-0.39Q36.31-0.27 36.51-0.21Q36.70-0.16 36.92-0.16ZM41.04 0L40.74 0L40.74-4.78L41-4.78L41.04-4.02L41.06-4.02Q41.44-4.40 41.83-4.65Q42.22-4.90 42.72-4.90L42.72-4.90Q43.46-4.90 43.81-4.46Q44.16-4.02 44.16-3.08L44.16-3.08L44.16 0L43.86 0L43.86-3.04Q43.86-3.84 43.59-4.23Q43.32-4.62 42.70-4.62L42.70-4.62Q42.25-4.62 41.88-4.38Q41.50-4.14 41.04-3.66L41.04-3.66L41.04 0ZM47.12 0.12L47.12 0.12Q46.58 0.12 46.14-0.07Q45.70-0.27 45.38-0.54L45.38-0.54L45.58-0.78Q45.88-0.52 46.24-0.34Q46.60-0.16 47.14-0.16L47.14-0.16Q47.44-0.16 47.67-0.24Q47.90-0.33 48.05-0.47Q48.20-0.61 48.28-0.80Q48.36-0.98 48.36-1.18L48.36-1.18Q48.36-1.42 48.25-1.59Q48.14-1.77 47.97-1.91Q47.80-2.04 47.59-2.13Q47.37-2.22 47.16-2.30L47.16-2.30Q46.88-2.40 46.60-2.51Q46.33-2.62 46.10-2.77Q45.88-2.92 45.74-3.14Q45.60-3.35 45.60-3.66L45.60-3.66Q45.60-3.91 45.70-4.13Q45.79-4.36 45.98-4.53Q46.17-4.70 46.45-4.80Q46.73-4.90 47.10-4.90L47.10-4.90Q47.46-4.90 47.81-4.76Q48.16-4.63 48.42-4.42L48.42-4.42L48.24-4.18Q48-4.36 47.73-4.49Q47.46-4.62 47.08-4.62L47.08-4.62Q46.78-4.62 46.56-4.54Q46.34-4.46 46.20-4.33Q46.06-4.19 45.99-4.03Q45.92-3.86 45.92-3.68L45.92-3.68Q45.92-3.46 46.02-3.31Q46.12-3.15 46.28-3.04Q46.45-2.92 46.66-2.83Q46.86-2.74 47.08-2.66L47.08-2.66Q47.36-2.55 47.65-2.44Q47.94-2.33 48.16-2.18Q48.39-2.02 48.53-1.79Q48.68-1.55 48.68-1.20L48.68-1.20Q48.68-0.94 48.58-0.70Q48.47-0.46 48.27-0.28Q48.08-0.10 47.78 0.01Q47.49 0.12 47.12 0.12ZM52.36 0L52.04 0L52.04-6.60L53.62-6.60Q54.18-6.60 54.62-6.50Q55.06-6.41 55.36-6.20Q55.66-5.98 55.82-5.63Q55.98-5.29 55.98-4.80L55.98-4.80Q55.98-3.85 55.38-3.39Q54.78-2.92 53.66-2.92L53.66-2.92L52.36-2.92L52.36 0ZM52.36-6.32L52.36-3.20L53.54-3.20Q54.61-3.20 55.13-3.57Q55.64-3.94 55.64-4.80L55.64-4.80Q55.64-5.67 55.11-6.00Q54.58-6.32 53.50-6.32L53.50-6.32L52.36-6.32ZM57.72 0L57.42 0L57.42-4.78L57.68-4.78L57.72-3.88L57.74-3.88Q57.98-4.32 58.32-4.61Q58.66-4.90 59.10-4.90L59.10-4.90Q59.22-4.90 59.33-4.88Q59.44-4.86 59.56-4.80L59.56-4.80L59.48-4.52Q59.36-4.57 59.28-4.58Q59.20-4.60 59.06-4.60L59.06-4.60Q58.73-4.60 58.37-4.32Q58.01-4.03 57.72-3.32L57.72-3.32L57.72 0ZM62.08 0.12L62.08 0.12Q61.65 0.12 61.27-0.05Q60.88-0.22 60.59-0.54Q60.30-0.86 60.13-1.32Q59.96-1.79 59.96-2.38L59.96-2.38Q59.96-2.98 60.13-3.45Q60.30-3.92 60.59-4.24Q60.88-4.56 61.27-4.73Q61.65-4.90 62.08-4.90L62.08-4.90Q62.51-4.90 62.90-4.73Q63.28-4.56 63.57-4.24Q63.86-3.92 64.03-3.45Q64.20-2.98 64.20-2.38L64.20-2.38Q64.20-1.79 64.03-1.32Q63.86-0.86 63.57-0.54Q63.28-0.22 62.90-0.05Q62.51 0.12 62.08 0.12ZM62.08-0.16L62.08-0.16Q62.46-0.16 62.79-0.32Q63.12-0.48 63.36-0.78Q63.60-1.07 63.74-1.48Q63.88-1.88 63.88-2.38L63.88-2.38Q63.88-2.87 63.74-3.29Q63.60-3.70 63.36-4.00Q63.12-4.29 62.79-4.46Q62.46-4.62 62.08-4.62L62.08-4.62Q61.70-4.62 61.37-4.46Q61.04-4.29 60.80-4.00Q60.56-3.70 60.42-3.29Q60.28-2.87 60.28-2.38L60.28-2.38Q60.28-1.88 60.42-1.48Q60.56-1.07 60.80-0.78Q61.04-0.48 61.37-0.32Q61.70-0.16 62.08-0.16Z"/></svg>