<svg xmlns="http://www.w3.org/2000/svg" viewBox="3.6000000000000005 49.52799999999999 855.2160000000002 51.33600000000001"><path d="M4 94L10 87Q12 89 16 90Q19 92 22 92L22 92Q25 92 27 90Q29 89 29 87L29 87Q29 86 28 85Q28 85 27 84Q26 83 25 83Q23 82 22 82L22 82L15 79Q14 78 12 77Q10 76 8 74Q7 73 6 71Q5 69 5 66L5 66Q5 63 7 61Q8 58 10 56Q13 54 16 53Q19 52 23 52L23 52Q27 52 31 54Q35 55 38 58L38 58L33 65Q30 63 28 62Q26 61 23 61L23 61Q20 61 18 62Q16 64 16 66L16 66Q16 68 18 69Q21 70 24 71L24 71L30 74Q34 75 37 78Q40 81 40 86L40 86Q40 89 38 92Q37 95 35 97Q33 98 29 100Q26 101 21 101L21 101Q17 101 12 99Q7 97 4 94L4 94ZM47 82L47 82Q47 78 48 74Q50 71 52 68Q55 66 58 65Q61 63 65 63L65 63Q68 63 72 65Q75 66 77 68Q80 71 82 74Q83 78 83 82L83 82Q83 87 82 90Q80 94 77 96Q75 98 72 100Q68 101 65 101L65 101Q61 101 58 100Q55 98 52 96Q50 94 48 90Q47 87 47 82ZM57 82L57 82Q57 87 59 90Q61 92 65 92L65 92Q68 92 70 90Q72 87 72 82L72 82Q72 77 70 75Q68 72 65 72L65 72Q61 72 59 75Q57 77 57 82ZM124 64L124 100L116 100L115 95L114 95Q112 98 109 99Q106 101 102 101L102 101Q96 101 94 97Q91 93 91 86L91 86L91 64L101 64L101 85Q101 89 103 90Q104 92 107 92L107 92Q109 92 110 91Q112 90 114 88L114 88L114 64L124 64ZM138 100L138 64L147 64L147 72L148 72Q150 68 154 66Q158 63 162 63L162 63Q165 63 166 64Q167 64 169 65L169 65L167 74Q165 73 164 73Q163 73 161 73L161 73Q157 73 154 75Q151 77 149 81L149 81L149 100L138 100ZM178 82L178 82Q178 78 179 74Q181 71 184 68Q187 66 190 65Q194 63 198 63L198 63Q203 63 206 65Q209 66 212 68L212 68L207 75Q203 72 199 72L199 72Q194 72 191 75Q188 77 188 82L188 82Q188 87 191 90Q194 92 199 92L199 92Q201 92 204 91Q206 90 208 89L208 89L212 96Q209 98 205 100Q201 101 197 101L197 101Q193 101 190 100Q186 98 183 96Q181 94 179 90Q178 87 178 82ZM220 82L220 82Q220 78 222 74Q223 71 226 68Q228 66 232 65Q235 63 239 63L239 63Q243 63 246 65Q249 66 251 68Q253 71 254 74Q255 77 255 81L255 81Q255 82 255 83Q255 85 255 85L255 85L231 85Q231 89 234 91Q237 93 241 93L241 93Q244 93 246 92Q248 92 250 90L250 90L254 97Q251 99 247 100Q243 101 240 101L240 101Q236 101 232 100Q228 98 226 96Q223 94 222 90Q220 87 220 82ZM231 78L246 78Q246 75 244 73Q242 71 239 71L239 71Q236 71 234 73Q231 75 231 78L231 78ZM306 77L306 77Q306 71 308 66Q310 62 313 59Q316 56 320 54Q324 52 329 52L329 52Q333 52 337 54Q340 56 343 58L343 58L337 65Q335 63 333 62Q331 61 329 61L329 61Q326 61 324 62Q322 63 321 65Q319 67 318 70Q317 73 317 76L317 76Q317 84 321 88Q324 92 329 92L329 92Q332 92 334 91Q336 89 338 88L338 88L343 94Q337 101 329 101L329 101Q324 101 320 99Q316 98 313 95Q310 92 308 87Q306 83 306 77ZM349 82L349 82Q349 78 350 74Q352 71 355 68Q357 66 360 65Q364 63 367 63L367 63Q371 63 374 65Q377 66 380 68Q382 71 384 74Q385 78 385 82L385 82Q385 87 384 90Q382 94 380 96Q377 98 374 100Q371 101 367 101L367 101Q364 101 360 100Q357 98 355 96Q352 94 350 90Q349 87 349 82ZM360 82L360 82Q360 87 362 90Q364 92 367 92L367 92Q371 92 373 90Q375 87 375 82L375 82Q375 77 373 75Q371 72 367 72L367 72Q364 72 362 75Q360 77 360 82ZM392 82L392 82Q392 78 393 74Q395 71 397 68Q399 66 402 65Q404 63 407 63L407 63Q411 63 413 64Q415 66 417 67L417 67L416 62L416 50L427 50L427 100L418 100L417 96L417 96Q415 98 413 100Q410 101 407 101L407 101Q404 101 401 100Q398 98 396 96Q394 93 393 90Q392 87 392 82ZM403 82L403 82Q403 87 405 90Q407 92 410 92L410 92Q412 92 413 91Q415 91 416 89L416 89L416 74Q415 73 413 73Q412 72 410 72L410 72Q407 72 405 75Q403 77 403 82ZM436 82L436 82Q436 78 438 74Q439 71 442 68Q444 66 448 65Q451 63 455 63L455 63Q459 63 462 65Q465 66 467 68Q469 71 470 74Q471 77 471 81L471 81Q471 82 471 83Q471 85 471 85L471 85L447 85Q447 89 450 91Q453 93 457 93L457 93Q460 93 462 92Q464 92 466 90L466 90L470 97Q467 99 463 100Q459 101 456 101L456 101Q452 101 448 100Q444 98 442 96Q439 94 438 90Q436 87 436 82ZM447 78L462 78Q462 75 460 73Q458 71 455 71L455 71Q452 71 450 73Q447 75 447 78L447 78ZM524 100L524 53L541 53Q545 53 548 54Q551 55 554 56Q556 58 558 61Q559 64 559 68L559 68Q559 72 558 75Q556 78 554 80Q551 82 548 83Q545 84 541 84L541 84L534 84L534 100L524 100ZM534 76L540 76Q549 76 549 68L549 68Q549 65 547 63Q544 61 540 61L540 61L534 61L534 76ZM570 100L570 64L579 64L579 72L580 72Q582 68 586 66Q590 63 594 63L594 63Q597 63 598 64Q599 64 601 65L601 65L599 74Q597 73 596 73Q595 73 593 73L593 73Q589 73 586 75Q583 77 581 81L581 81L581 100L570 100ZM608 82L608 82Q608 78 610 74Q611 71 614 68Q616 66 620 65Q623 63 626 63L626 63Q630 63 633 65Q636 66 639 68Q642 71 643 74Q645 78 645 82L645 82Q645 87 643 90Q642 94 639 96Q636 98 633 100Q630 101 626 101L626 101Q623 101 620 100Q616 98 614 96Q611 94 610 90Q608 87 608 82ZM619 82L619 82Q619 87 621 90Q623 92 626 92L626 92Q630 92 632 90Q634 87 634 82L634 82Q634 77 632 75Q630 72 626 72L626 72Q623 72 621 75Q619 77 619 82ZM696 100L696 50L707 50L707 62L707 68Q709 66 711 65Q714 63 717 63L717 63Q720 63 723 65Q725 66 727 68Q729 71 730 74Q731 77 731 81L731 81Q731 86 730 90Q728 93 726 96Q724 98 721 100Q719 101 716 101L716 101Q713 101 711 100Q708 98 706 96L706 96L706 96L705 100L696 100ZM707 75L707 90Q708 91 710 92Q712 92 713 92L713 92Q716 92 718 90Q720 87 720 82L720 82Q720 72 714 72L714 72Q710 72 707 75L707 75ZM738 82L738 82Q738 78 739 74Q741 71 743 68Q746 66 749 65Q752 63 756 63L756 63Q760 63 763 65Q766 66 769 68Q771 71 773 74Q774 78 774 82L774 82Q774 87 773 90Q771 94 769 96Q766 98 763 100Q760 101 756 101L756 101Q752 101 749 100Q746 98 743 96Q741 94 739 90Q738 87 738 82ZM749 82L749 82Q749 87 750 90Q752 92 756 92L756 92Q760 92 762 90Q763 87 763 82L763 82Q763 77 762 75Q760 72 756 72L756 72Q752 72 750 75Q749 77 749 82ZM782 58L782 50L803 50L803 86Q803 88 803 89Q804 90 805 91Q806 92 807 92Q808 92 809 92L809 92Q810 92 811 92Q813 92 814 91L814 91L817 99Q815 99 814 100Q813 100 812 100Q810 101 809 101Q808 101 806 101L806 101Q799 101 796 97Q792 93 792 86L792 86L792 58L782 58ZM824 82L824 82Q824 78 825 74Q827 71 829 68Q831 66 834 65Q836 63 839 63L839 63Q843 63 845 64Q847 66 849 67L849 67L848 62L848 50L859 50L859 100L850 100L849 96L849 96Q847 98 845 100Q842 101 839 101L839 101Q836 101 833 100Q830 98 828 96Q826 93 825 90Q824 87 824 82ZM835 82L835 82Q835 87 837 90Q839 92 842 92L842 92Q844 92 845 91Q847 91 848 89L848 89L848 74Q847 73 845 73Q844 72 842 72L842 72Q839 72 837 75Q835 77 835 82Z"/></svg>