<svg xmlns="http://www.w3.org/2000/svg" viewBox="0.58 -7.0600000000000005 88.89 7.180000000000001"><path d="M0.58-0.84L1.26-1.63Q1.63-1.30 2.10-1.09Q2.56-0.89 3.04-0.89L3.04-0.89Q3.64-0.89 3.95-1.12Q4.26-1.35 4.26-1.73L4.26-1.73Q4.26-1.93 4.18-2.07Q4.10-2.21 3.96-2.31Q3.81-2.42 3.60-2.51Q3.40-2.60 3.16-2.69L3.16-2.69L2.27-3.08Q2.01-3.18 1.76-3.33Q1.51-3.48 1.31-3.69Q1.11-3.90 0.99-4.18Q0.87-4.46 0.87-4.82L0.87-4.82Q0.87-5.21 1.04-5.54Q1.21-5.88 1.51-6.13Q1.81-6.38 2.23-6.52Q2.64-6.66 3.14-6.66L3.14-6.66Q3.74-6.66 4.29-6.44Q4.83-6.21 5.24-5.83L5.24-5.83L4.64-5.09Q4.31-5.35 3.95-5.50Q3.59-5.65 3.14-5.65L3.14-5.65Q2.63-5.65 2.33-5.45Q2.04-5.24 2.04-4.88L2.04-4.88Q2.04-4.69 2.13-4.55Q2.22-4.42 2.38-4.32Q2.53-4.21 2.73-4.13Q2.94-4.05 3.16-3.96L3.16-3.96L4.02-3.59Q4.33-3.47 4.59-3.31Q4.85-3.15 5.04-2.94Q5.23-2.73 5.33-2.46Q5.44-2.18 5.44-1.82L5.44-1.82Q5.44-1.42 5.28-1.07Q5.11-0.72 4.80-0.46Q4.49-0.19 4.04-0.04Q3.59 0.12 3.02 0.12L3.02 0.12Q2.33 0.12 1.70-0.13Q1.07-0.38 0.58-0.84L0.58-0.84ZM6.53-2.45L6.53-2.45Q6.53-3.06 6.74-3.54Q6.94-4.02 7.28-4.35Q7.62-4.68 8.07-4.86Q8.52-5.03 9-5.03L9-5.03Q9.48-5.03 9.93-4.86Q10.38-4.68 10.72-4.35Q11.06-4.02 11.27-3.54Q11.47-3.06 11.47-2.45L11.47-2.45Q11.47-1.84 11.27-1.36Q11.06-0.88 10.72-0.55Q10.38-0.22 9.93-0.05Q9.48 0.12 9 0.12L9 0.12Q8.52 0.12 8.07-0.05Q7.62-0.22 7.28-0.55Q6.94-0.88 6.74-1.36Q6.53-1.84 6.53-2.45ZM7.72-2.45L7.72-2.45Q7.72-1.71 8.06-1.27Q8.40-0.82 9-0.82L9-0.82Q9.60-0.82 9.94-1.27Q10.28-1.71 10.28-2.45L10.28-2.45Q10.28-3.20 9.94-3.65Q9.60-4.09 9-4.09L9-4.09Q8.40-4.09 8.06-3.65Q7.72-3.20 7.72-2.45ZM17.15-4.91L17.15 0L16.21 0L16.12-0.78L16.08-0.78Q15.73-0.37 15.31-0.13Q14.89 0.12 14.34 0.12L14.34 0.12Q13.48 0.12 13.09-0.40Q12.70-0.91 12.70-1.87L12.70-1.87L12.70-4.91L13.85-4.91L13.85-2.02Q13.85-1.42 14.05-1.15Q14.26-0.87 14.77-0.87L14.77-0.87Q15.12-0.87 15.39-1.03Q15.67-1.19 16-1.60L16-1.60L16-4.91L17.15-4.91ZM19.30 0L19.30-4.91L20.25-4.91L20.35-3.80L20.38-3.80Q20.76-4.40 21.30-4.71Q21.83-5.03 22.47-5.03L22.47-5.03Q22.77-5.03 22.98-4.99Q23.20-4.94 23.42-4.83L23.42-4.83L23.18-3.86Q22.94-3.94 22.75-3.98Q22.57-4.01 22.29-4.01L22.29-4.01Q21.78-4.01 21.31-3.72Q20.84-3.43 20.46-2.71L20.46-2.71L20.46 0L19.30 0ZM24.73-2.45L24.73-2.45Q24.73-3.06 24.95-3.54Q25.18-4.02 25.56-4.35Q25.94-4.68 26.45-4.86Q26.96-5.03 27.52-5.03L27.52-5.03Q28.12-5.03 28.57-4.83Q29.03-4.63 29.34-4.34L29.34-4.34L28.79-3.62Q28.50-3.85 28.20-3.97Q27.91-4.09 27.58-4.09L27.58-4.09Q26.84-4.09 26.38-3.65Q25.92-3.20 25.92-2.45L25.92-2.45Q25.92-2.08 26.04-1.78Q26.16-1.48 26.38-1.27Q26.59-1.05 26.89-0.94Q27.19-0.82 27.55-0.82L27.55-0.82Q27.97-0.82 28.32-0.98Q28.66-1.14 28.95-1.36L28.95-1.36L29.43-0.62Q29.01-0.25 28.49-0.07Q27.97 0.12 27.44 0.12L27.44 0.12Q26.86 0.12 26.37-0.05Q25.87-0.22 25.50-0.55Q25.14-0.88 24.93-1.36Q24.73-1.84 24.73-2.45ZM30.62-2.45L30.62-2.45Q30.62-3.05 30.84-3.53Q31.05-4.01 31.40-4.34Q31.75-4.68 32.20-4.86Q32.66-5.03 33.14-5.03L33.14-5.03Q33.69-5.03 34.12-4.86Q34.54-4.68 34.83-4.38Q35.12-4.07 35.27-3.64Q35.42-3.21 35.42-2.70L35.42-2.70Q35.42-2.53 35.41-2.38Q35.39-2.23 35.37-2.14L35.37-2.14L31.80-2.14Q31.86-1.48 32.32-1.13Q32.78-0.77 33.45-0.77L33.45-0.77Q33.83-0.77 34.16-0.88Q34.49-0.98 34.83-1.17L34.83-1.17L35.22-0.45Q34.82-0.20 34.33-0.04Q33.84 0.12 33.30 0.12L33.30 0.12Q32.74 0.12 32.25-0.06Q31.76-0.23 31.40-0.56Q31.04-0.89 30.83-1.36Q30.62-1.84 30.62-2.45ZM31.79-2.92L34.36-2.92Q34.36-3.49 34.06-3.81Q33.76-4.14 33.17-4.14L33.17-4.14Q32.67-4.14 32.28-3.83Q31.89-3.52 31.79-2.92L31.79-2.92ZM42.60-3.25L42.60-3.25Q42.60-4.05 42.83-4.69Q43.06-5.32 43.47-5.76Q43.87-6.20 44.42-6.43Q44.98-6.66 45.63-6.66L45.63-6.66Q46.23-6.66 46.70-6.41Q47.17-6.16 47.49-5.84L47.49-5.84L46.84-5.12Q46.60-5.36 46.30-5.50Q46.01-5.65 45.63-5.65L45.63-5.65Q45.22-5.65 44.88-5.49Q44.54-5.32 44.30-5.01Q44.06-4.71 43.92-4.27Q43.79-3.83 43.79-3.28L43.79-3.28Q43.79-2.72 43.92-2.27Q44.06-1.83 44.30-1.53Q44.55-1.22 44.90-1.05Q45.24-0.89 45.66-0.89L45.66-0.89Q46.06-0.89 46.38-1.06Q46.69-1.23 46.97-1.54L46.97-1.54L47.61-0.83Q47.21-0.37 46.71-0.13Q46.21 0.12 45.59 0.12L45.59 0.12Q44.96 0.12 44.41-0.10Q43.87-0.32 43.47-0.75Q43.06-1.18 42.83-1.81Q42.60-2.44 42.60-3.25ZM48.53-2.45L48.53-2.45Q48.53-3.06 48.73-3.54Q48.94-4.02 49.28-4.35Q49.62-4.68 50.07-4.86Q50.52-5.03 51-5.03L51-5.03Q51.48-5.03 51.93-4.86Q52.38-4.68 52.72-4.35Q53.06-4.02 53.27-3.54Q53.47-3.06 53.47-2.45L53.47-2.45Q53.47-1.84 53.27-1.36Q53.06-0.88 52.72-0.55Q52.38-0.22 51.93-0.05Q51.48 0.12 51 0.12L51 0.12Q50.52 0.12 50.07-0.05Q49.62-0.22 49.28-0.55Q48.94-0.88 48.73-1.36Q48.53-1.84 48.53-2.45ZM49.72-2.45L49.72-2.45Q49.72-1.71 50.06-1.27Q50.40-0.82 51-0.82L51-0.82Q51.60-0.82 51.94-1.27Q52.28-1.71 52.28-2.45L52.28-2.45Q52.28-3.20 51.94-3.65Q51.60-4.09 51-4.09L51-4.09Q50.40-4.09 50.06-3.65Q49.72-3.20 49.72-2.45ZM54.53-2.45L54.53-2.45Q54.53-3.05 54.71-3.53Q54.89-4.01 55.20-4.34Q55.50-4.67 55.89-4.85Q56.28-5.03 56.70-5.03L56.70-5.03Q57.14-5.03 57.45-4.88Q57.77-4.72 58.07-4.45L58.07-4.45L58.02-5.28L58.02-7.06L59.18-7.06L59.18 0L58.23 0L58.14-0.57L58.11-0.57Q57.82-0.28 57.44-0.08Q57.05 0.12 56.63 0.12L56.63 0.12Q56.16 0.12 55.77-0.06Q55.38-0.23 55.10-0.56Q54.83-0.89 54.68-1.36Q54.53-1.84 54.53-2.45ZM55.72-2.46L55.72-2.46Q55.72-1.66 56.03-1.25Q56.34-0.83 56.91-0.83L56.91-0.83Q57.52-0.83 58.02-1.42L58.02-1.42L58.02-3.63Q57.76-3.88 57.50-3.98Q57.24-4.08 56.97-4.08L56.97-4.08Q56.71-4.08 56.48-3.97Q56.26-3.86 56.09-3.66Q55.92-3.45 55.82-3.15Q55.72-2.85 55.72-2.46ZM60.62-2.45L60.62-2.45Q60.62-3.05 60.84-3.53Q61.05-4.01 61.40-4.34Q61.75-4.68 62.20-4.86Q62.66-5.03 63.14-5.03L63.14-5.03Q63.69-5.03 64.11-4.86Q64.54-4.68 64.83-4.38Q65.12-4.07 65.27-3.64Q65.42-3.21 65.42-2.70L65.42-2.70Q65.42-2.53 65.41-2.38Q65.39-2.23 65.37-2.14L65.37-2.14L61.80-2.14Q61.86-1.48 62.32-1.13Q62.78-0.77 63.45-0.77L63.45-0.77Q63.83-0.77 64.16-0.88Q64.49-0.98 64.83-1.17L64.83-1.17L65.22-0.45Q64.82-0.20 64.33-0.04Q63.84 0.12 63.30 0.12L63.30 0.12Q62.74 0.12 62.25-0.06Q61.76-0.23 61.40-0.56Q61.04-0.89 60.83-1.36Q60.62-1.84 60.62-2.45ZM61.79-2.92L64.36-2.92Q64.36-3.49 64.06-3.81Q63.76-4.14 63.17-4.14L63.17-4.14Q62.67-4.14 62.28-3.83Q61.89-3.52 61.79-2.92L61.79-2.92ZM72.87 0L72.87-6.54L75.07-6.54Q75.61-6.54 76.06-6.44Q76.52-6.34 76.86-6.10Q77.19-5.86 77.38-5.48Q77.56-5.09 77.56-4.52L77.56-4.52Q77.56-3.98 77.37-3.58Q77.18-3.18 76.84-2.92Q76.51-2.65 76.06-2.52Q75.60-2.40 75.07-2.40L75.07-2.40L74.03-2.40L74.03 0L72.87 0ZM74.03-3.33L74.98-3.33Q76.42-3.33 76.42-4.52L76.42-4.52Q76.42-5.14 76.06-5.38Q75.70-5.61 74.98-5.61L74.98-5.61L74.03-5.61L74.03-3.33ZM79.30 0L79.30-4.91L80.25-4.91L80.35-3.80L80.38-3.80Q80.76-4.40 81.30-4.71Q81.83-5.03 82.47-5.03L82.47-5.03Q82.77-5.03 82.98-4.99Q83.20-4.94 83.42-4.83L83.42-4.83L83.18-3.86Q82.94-3.94 82.75-3.98Q82.57-4.01 82.29-4.01L82.29-4.01Q81.78-4.01 81.31-3.72Q80.84-3.43 80.46-2.71L80.46-2.71L80.46 0L79.30 0ZM84.53-2.45L84.53-2.45Q84.53-3.06 84.73-3.54Q84.94-4.02 85.28-4.35Q85.62-4.68 86.07-4.86Q86.52-5.03 87-5.03L87-5.03Q87.48-5.03 87.93-4.86Q88.38-4.68 88.72-4.35Q89.06-4.02 89.27-3.54Q89.47-3.06 89.47-2.45L89.47-2.45Q89.47-1.84 89.27-1.36Q89.06-0.88 88.72-0.55Q88.38-0.22 87.93-0.05Q87.48 0.12 87 0.12L87 0.12Q86.52 0.12 86.07-0.05Q85.62-0.22 85.28-0.55Q84.94-0.88 84.73-1.36Q84.53-1.84 84.53-2.45ZM85.72-2.45L85.72-2.45Q85.72-1.71 86.06-1.27Q86.40-0.82 87-0.82L87-0.82Q87.60-0.82 87.94-1.27Q88.28-1.71 88.28-2.45L88.28-2.45Q88.28-3.20 87.94-3.65Q87.60-4.09 87-4.09L87-4.09Q86.40-4.09 86.06-3.65Q85.72-3.20 85.72-2.45Z"/></svg>