<svg xmlns="http://www.w3.org/2000/svg" viewBox="5.472 48.23199999999999 897.6240000000004 68.4"><path d="M5 94L8 91Q10 94 14 96Q18 98 22 98L22 98Q28 98 31 95Q35 93 35 88L35 88Q35 86 34 85Q33 83 32 82Q31 81 29 80Q27 79 25 78L25 78L18 75Q17 75 15 74Q13 73 12 71Q10 70 9 68Q8 66 8 63L8 63Q8 61 9 59Q10 57 12 55Q14 53 17 53Q19 52 22 52L22 52Q27 52 31 53Q34 55 36 57L36 57L34 60Q32 57 29 56Q26 55 22 55L22 55Q17 55 14 57Q11 59 11 63L11 63Q11 65 12 67Q13 68 14 69Q16 70 17 71Q19 72 20 72L20 72L27 76Q30 76 31 77Q33 79 35 80Q36 81 37 83Q38 85 38 88L38 88Q38 91 37 93Q36 96 34 97Q32 99 29 100Q26 101 22 101L22 101Q17 101 13 99Q8 97 5 94L5 94ZM48 83L48 83Q48 78 49 75Q51 72 53 69Q55 67 58 66Q61 65 65 65L65 65Q68 65 71 66Q74 67 77 69Q79 72 80 75Q82 78 82 83L82 83Q82 87 80 90Q79 94 77 96Q74 98 71 100Q68 101 65 101L65 101Q61 101 58 100Q55 98 53 96Q51 94 49 90Q48 87 48 83ZM51 83L51 83Q51 86 52 89Q53 92 55 94Q57 96 59 97Q62 98 65 98L65 98Q68 98 70 97Q73 96 74 94Q76 92 77 89Q78 86 78 83L78 83Q78 79 77 77Q76 74 74 72Q73 70 70 69Q68 67 65 67L65 67Q62 67 59 69Q57 70 55 72Q53 74 52 77Q51 79 51 83ZM122 65L122 100L119 100L119 93L119 93Q116 97 113 99Q109 101 105 101L105 101Q99 101 96 97Q93 94 93 87L93 87L93 65L96 65L96 87Q96 92 98 95Q100 98 106 98L106 98Q107 98 109 98Q111 97 112 96Q114 95 115 94Q117 92 119 90L119 90L119 65L122 65ZM141 100L141 65L144 65L144 74L145 74Q147 70 152 67Q156 65 161 65L161 65Q163 65 164 65Q166 65 168 66L168 66L167 69Q165 68 164 68Q162 68 160 68L160 68Q156 68 152 70Q148 72 145 78L145 78L145 100L141 100ZM179 83L179 83Q179 78 181 75Q182 72 185 69Q187 67 191 66Q194 65 198 65L198 65Q202 65 205 66Q208 68 210 70L210 70L209 72Q206 70 204 69Q201 67 198 67L198 67Q195 67 192 69Q189 70 187 72Q185 74 184 77Q182 79 182 83L182 83Q182 86 184 89Q185 92 187 94Q189 96 192 97Q194 98 198 98L198 98Q201 98 204 97Q207 95 210 93L210 93L211 95Q209 98 205 99Q202 101 198 101L198 101Q194 101 190 100Q187 98 184 96Q182 94 180 90Q179 87 179 83ZM222 83L222 83Q222 79 223 75Q224 72 227 69Q229 67 232 66Q236 65 239 65L239 65Q242 65 245 66Q248 67 250 69Q252 71 253 74Q254 77 254 81L254 81Q254 81 254 82Q254 83 254 83L254 83L225 83Q225 86 226 89Q227 92 229 94Q231 96 234 97Q237 98 240 98L240 98Q244 98 246 97Q249 96 252 94L252 94L253 97Q250 98 247 100Q244 101 240 101L240 101Q236 101 233 100Q229 98 227 96Q224 94 223 90Q222 87 222 83ZM225 81L251 81Q251 74 248 71Q245 67 239 67L239 67Q236 67 234 68Q232 69 230 71Q228 73 227 75Q225 77 225 81L225 81ZM308 76L308 76Q308 71 309 66Q311 61 313 58Q316 55 320 53Q323 52 328 52L328 52Q332 52 335 53Q338 55 340 57L340 57L338 60Q336 57 334 56Q331 55 328 55L328 55Q324 55 321 56Q318 58 316 61Q313 63 312 67Q311 71 311 76L311 76Q311 81 312 85Q313 89 316 92Q318 95 321 96Q324 98 328 98L328 98Q331 98 334 96Q337 95 340 92L340 92L342 94Q339 97 335 99Q332 101 328 101L328 101Q323 101 319 99Q316 97 313 94Q311 91 309 86Q308 82 308 76ZM350 83L350 83Q350 78 352 75Q353 72 355 69Q358 67 361 66Q364 65 367 65L367 65Q371 65 374 66Q377 67 379 69Q381 72 383 75Q384 78 384 83L384 83Q384 87 383 90Q381 94 379 96Q377 98 374 100Q371 101 367 101L367 101Q364 101 361 100Q358 98 355 96Q353 94 352 90Q350 87 350 83ZM354 83L354 83Q354 86 355 89Q356 92 358 94Q359 96 362 97Q364 98 367 98L367 98Q370 98 373 97Q375 96 377 94Q379 92 380 89Q381 86 381 83L381 83Q381 79 380 77Q379 74 377 72Q375 70 373 69Q370 67 367 67L367 67Q364 67 362 69Q359 70 358 72Q356 74 355 77Q354 79 354 83ZM394 83L394 83Q394 79 395 75Q396 72 399 69Q401 67 404 66Q407 65 410 65L410 65Q413 65 416 66Q419 67 421 69L421 69L421 62L421 48L424 48L424 100L422 100L421 95L421 95Q419 97 416 99Q413 101 409 101L409 101Q406 101 403 100Q400 98 398 96Q396 94 395 91Q394 87 394 83ZM397 83L397 83Q397 86 398 89Q399 92 400 94Q402 96 404 97Q406 98 409 98L409 98Q412 98 415 96Q418 95 421 92L421 92L421 72Q418 70 416 69Q413 67 410 67L410 67Q407 67 405 69Q403 70 401 72Q399 74 398 77Q397 80 397 83ZM438 83L438 83Q438 79 439 75Q440 72 443 69Q445 67 448 66Q452 65 455 65L455 65Q458 65 461 66Q464 67 466 69Q468 71 469 74Q470 77 470 81L470 81Q470 81 470 82Q470 83 470 83L470 83L441 83Q441 86 442 89Q443 92 445 94Q447 96 450 97Q453 98 456 98L456 98Q460 98 462 97Q465 96 468 94L468 94L469 97Q466 98 463 100Q460 101 456 101L456 101Q452 101 449 100Q445 98 443 96Q440 94 439 90Q438 87 438 83ZM441 81L467 81Q467 74 464 71Q461 67 455 67L455 67Q452 67 450 68Q448 69 446 71Q444 73 443 75Q441 77 441 81L441 81ZM527 100L527 53L540 53Q544 53 547 53Q550 54 552 56Q554 57 556 60Q557 62 557 66L557 66Q557 73 552 76Q548 80 540 80L540 80L530 80L530 100L527 100ZM530 77L539 77Q546 77 550 74Q553 72 553 66L553 66Q553 63 552 61Q552 59 550 58Q548 56 545 56Q543 55 539 55L539 55L530 55L530 77ZM573 100L573 65L576 65L576 74L577 74Q579 70 584 67Q588 65 593 65L593 65Q595 65 596 65Q598 65 600 66L600 66L599 69Q597 68 596 68Q594 68 592 68L592 68Q588 68 584 70Q580 72 577 78L577 78L577 100L573 100ZM610 83L610 83Q610 78 611 75Q612 72 615 69Q617 67 620 66Q623 65 626 65L626 65Q630 65 633 66Q636 67 638 69Q641 72 642 75Q643 78 643 83L643 83Q643 87 642 90Q641 94 638 96Q636 98 633 100Q630 101 626 101L626 101Q623 101 620 100Q617 98 615 96Q612 94 611 90Q610 87 610 83ZM613 83L613 83Q613 86 614 89Q615 92 617 94Q619 96 621 97Q623 98 626 98L626 98Q629 98 632 97Q634 96 636 94Q638 92 639 89Q640 86 640 83L640 83Q640 79 639 77Q638 74 636 72Q634 70 632 69Q629 67 626 67L626 67Q623 67 621 69Q619 70 617 72Q615 74 614 77Q613 79 613 83ZM698 51L698 48L714 48L714 90Q714 98 721 98L721 98Q725 98 729 96L729 96L730 99Q727 100 725 100Q723 101 721 101L721 101Q716 101 713 98Q711 95 711 90L711 90L711 51L698 51ZM741 68L741 65L762 65L762 100L759 100L759 68L741 68ZM760 57L760 57Q758 57 757 56Q756 55 756 54L756 54Q756 52 757 51Q758 50 760 50L760 50Q761 50 762 51Q763 52 763 54L763 54Q763 55 762 56Q761 57 760 57ZM787 107L787 107Q787 110 790 112Q793 114 800 114L800 114Q803 114 806 113Q809 112 811 111Q813 110 814 108Q815 107 815 105L815 105Q815 102 813 101Q810 100 806 100L806 100L798 100Q796 100 795 100Q794 100 792 99L792 99Q789 101 788 103Q787 105 787 107ZM784 107L784 107Q784 105 785 102Q787 100 789 98L789 98L789 98Q788 98 787 96Q786 95 786 93L786 93Q786 91 787 89Q788 88 790 86L790 86L790 86Q788 84 787 82Q786 80 786 77L786 77Q786 74 787 72Q788 70 790 68Q791 66 794 66Q796 65 799 65L799 65Q802 65 804 65L804 65L818 65L818 68L807 68Q809 70 810 72Q812 74 812 77L812 77Q812 80 811 82Q810 84 808 86Q806 87 804 88Q802 89 799 89L799 89Q797 89 796 89Q794 88 792 87L792 87Q791 88 790 90Q789 91 789 92L789 92Q789 95 791 96Q793 97 797 97L797 97L805 97Q812 97 815 99Q818 101 818 105L818 105Q818 107 817 109Q815 111 813 113Q811 115 807 116Q804 117 800 117L800 117Q792 117 788 114Q784 111 784 107ZM799 86L799 86Q801 86 803 86Q804 85 806 84Q807 83 808 81Q808 79 808 77L808 77Q808 75 808 73Q807 71 806 70Q804 69 803 68Q801 67 799 67L799 67Q797 67 795 68Q793 69 792 70Q791 71 790 73Q789 75 789 77L789 77Q789 79 790 81Q791 83 792 84Q793 85 795 86Q797 86 799 86ZM828 100L828 48L832 48L832 63L831 72Q835 69 838 67Q841 65 845 65L845 65Q858 65 858 78L858 78L858 100L855 100L855 79Q855 73 852 70Q850 67 845 67L845 67Q843 67 841 68Q840 68 838 69Q837 70 835 72Q833 73 832 75L832 75L832 100L828 100ZM880 87L880 68L870 68L870 66L880 65L881 55L883 55L883 65L902 65L902 68L883 68L883 87Q883 90 884 92Q884 94 885 95Q886 97 888 97Q890 98 893 98L893 98Q896 98 898 98Q900 97 902 96L902 96L903 99Q901 100 898 100Q895 101 893 101L893 101Q889 101 887 100Q884 99 883 97Q881 95 881 93Q880 90 880 87L880 87Z"/></svg>