<svg xmlns="http://www.w3.org/2000/svg" viewBox="0.5 -7.01 89.03 7.13"><path d="M0.50-0.82L1.35-1.83Q1.72-1.53 2.16-1.34Q2.59-1.15 3.02-1.15L3.02-1.15Q3.53-1.15 3.77-1.32Q4-1.49 4-1.78L4-1.78Q4-1.93 3.93-2.04Q3.86-2.15 3.73-2.23Q3.60-2.32 3.42-2.40Q3.23-2.47 2.99-2.56L2.99-2.56L2.15-2.92Q1.88-3.02 1.63-3.18Q1.37-3.34 1.18-3.56Q0.99-3.77 0.88-4.05Q0.76-4.34 0.76-4.70L0.76-4.70Q0.76-5.10 0.94-5.46Q1.11-5.81 1.43-6.08Q1.74-6.34 2.18-6.49Q2.62-6.64 3.15-6.64L3.15-6.64Q3.75-6.64 4.31-6.42Q4.87-6.20 5.32-5.78L5.32-5.78L4.57-4.85Q4.23-5.10 3.90-5.24Q3.57-5.37 3.15-5.37L3.15-5.37Q2.72-5.37 2.48-5.21Q2.25-5.06 2.25-4.78L2.25-4.78Q2.25-4.48 2.55-4.33Q2.85-4.18 3.32-4.01L3.32-4.01L4.11-3.67Q4.76-3.43 5.13-3.01Q5.51-2.59 5.51-1.90L5.51-1.90Q5.51-1.49 5.34-1.13Q5.17-0.76 4.85-0.48Q4.53-0.21 4.06-0.04Q3.59 0.12 2.98 0.12L2.98 0.12Q2.32 0.12 1.68-0.12Q1.03-0.35 0.50-0.82L0.50-0.82ZM6.47-2.48L6.47-2.48Q6.47-3.10 6.68-3.58Q6.89-4.07 7.25-4.40Q7.60-4.73 8.05-4.91Q8.51-5.08 9-5.08L9-5.08Q9.49-5.08 9.95-4.91Q10.40-4.73 10.75-4.40Q11.11-4.07 11.32-3.58Q11.53-3.10 11.53-2.48L11.53-2.48Q11.53-1.86 11.32-1.38Q11.11-0.89 10.75-0.56Q10.40-0.23 9.95-0.06Q9.49 0.12 9 0.12L9 0.12Q8.51 0.12 8.05-0.06Q7.60-0.23 7.25-0.56Q6.89-0.89 6.68-1.38Q6.47-1.86 6.47-2.48ZM7.98-2.48L7.98-2.48Q7.98-1.83 8.23-1.45Q8.49-1.07 9-1.07L9-1.07Q9.51-1.07 9.77-1.45Q10.02-1.83 10.02-2.48L10.02-2.48Q10.02-3.13 9.77-3.51Q9.51-3.89 9-3.89L9-3.89Q8.49-3.89 8.23-3.51Q7.98-3.13 7.98-2.48ZM17.25-4.96L17.25 0L16.05 0L15.94-0.71L15.90-0.71Q15.57-0.33 15.17-0.10Q14.77 0.12 14.23 0.12L14.23 0.12Q13.38 0.12 13-0.42Q12.62-0.96 12.62-1.90L12.62-1.90L12.62-4.96L14.09-4.96L14.09-2.09Q14.09-1.59 14.24-1.36Q14.39-1.13 14.81-1.13L14.81-1.13Q15.09-1.13 15.30-1.25Q15.52-1.37 15.78-1.70L15.78-1.70L15.78-4.96L17.25-4.96ZM19.16 0L19.16-4.96L20.36-4.96L20.48-3.88L20.51-3.88Q20.88-4.49 21.40-4.79Q21.92-5.08 22.52-5.08L22.52-5.08Q22.85-5.08 23.05-5.03Q23.26-4.98 23.48-4.88L23.48-4.88L23.18-3.65Q22.95-3.72 22.77-3.75Q22.58-3.79 22.30-3.79L22.30-3.79Q21.84-3.79 21.39-3.52Q20.95-3.25 20.63-2.58L20.63-2.58L20.63 0L19.16 0ZM24.67-2.48L24.67-2.48Q24.67-3.10 24.91-3.58Q25.14-4.07 25.54-4.40Q25.93-4.73 26.45-4.91Q26.97-5.08 27.54-5.08L27.54-5.08Q28.13-5.08 28.61-4.89Q29.08-4.70 29.40-4.41L29.40-4.41L28.72-3.50Q28.17-3.89 27.62-3.89L27.62-3.89Q26.98-3.89 26.58-3.51Q26.18-3.13 26.18-2.48L26.18-2.48Q26.18-1.83 26.57-1.45Q26.95-1.07 27.57-1.07L27.57-1.07Q27.96-1.07 28.29-1.21Q28.62-1.35 28.88-1.54L28.88-1.54L29.48-0.61Q29.03-0.23 28.48-0.06Q27.94 0.12 27.43 0.12L27.43 0.12Q26.84 0.12 26.34-0.06Q25.84-0.23 25.46-0.56Q25.09-0.89 24.88-1.38Q24.67-1.86 24.67-2.48ZM30.55-2.48L30.55-2.48Q30.55-3.09 30.77-3.57Q30.98-4.05 31.34-4.38Q31.70-4.72 32.16-4.90Q32.63-5.08 33.13-5.08L33.13-5.08Q33.70-5.08 34.14-4.90Q34.58-4.72 34.87-4.40Q35.16-4.08 35.31-3.65Q35.46-3.21 35.46-2.70L35.46-2.70Q35.46-2.50 35.44-2.32Q35.42-2.14 35.40-2.05L35.40-2.05L32.06-2.05Q32.14-1.49 32.55-1.25Q32.95-1 33.50-1L33.50-1Q33.84-1 34.15-1.08Q34.45-1.17 34.78-1.34L34.78-1.34L35.26-0.46Q34.84-0.19 34.32-0.04Q33.80 0.12 33.30 0.12L33.30 0.12Q32.72 0.12 32.22-0.06Q31.72-0.23 31.35-0.57Q30.98-0.90 30.77-1.38Q30.55-1.86 30.55-2.48ZM32.04-3.02L34.13-3.02Q34.13-3.44 33.90-3.70Q33.67-3.96 33.16-3.96L33.16-3.96Q32.76-3.96 32.45-3.73Q32.14-3.50 32.04-3.02L32.04-3.02ZM42.55-3.22L42.55-3.22Q42.55-4.03 42.79-4.67Q43.03-5.30 43.45-5.74Q43.87-6.18 44.44-6.41Q45.01-6.64 45.66-6.64L45.66-6.64Q46.29-6.64 46.77-6.38Q47.26-6.13 47.59-5.81L47.59-5.81L46.78-4.90Q46.55-5.11 46.28-5.24Q46.01-5.37 45.66-5.37L45.66-5.37Q45.31-5.37 45.02-5.23Q44.73-5.08 44.52-4.81Q44.30-4.54 44.18-4.15Q44.06-3.76 44.06-3.27L44.06-3.27Q44.06-2.26 44.52-1.71Q44.98-1.15 45.72-1.15L45.72-1.15Q46.07-1.15 46.36-1.31Q46.64-1.47 46.88-1.73L46.88-1.73L47.69-0.84Q46.87 0.12 45.63 0.12L45.63 0.12Q45 0.12 44.44-0.10Q43.88-0.31 43.46-0.73Q43.04-1.15 42.80-1.78Q42.55-2.40 42.55-3.22ZM48.47-2.48L48.47-2.48Q48.47-3.10 48.68-3.58Q48.89-4.07 49.24-4.40Q49.60-4.73 50.05-4.91Q50.51-5.08 51-5.08L51-5.08Q51.49-5.08 51.95-4.91Q52.40-4.73 52.76-4.40Q53.11-4.07 53.32-3.58Q53.53-3.10 53.53-2.48L53.53-2.48Q53.53-1.86 53.32-1.38Q53.11-0.89 52.76-0.56Q52.40-0.23 51.95-0.06Q51.49 0.12 51 0.12L51 0.12Q50.51 0.12 50.05-0.06Q49.60-0.23 49.24-0.56Q48.89-0.89 48.68-1.38Q48.47-1.86 48.47-2.48ZM49.98-2.48L49.98-2.48Q49.98-1.83 50.23-1.45Q50.49-1.07 51-1.07L51-1.07Q51.51-1.07 51.77-1.45Q52.02-1.83 52.02-2.48L52.02-2.48Q52.02-3.13 51.77-3.51Q51.51-3.89 51-3.89L51-3.89Q50.49-3.89 50.23-3.51Q49.98-3.13 49.98-2.48ZM54.47-2.48L54.47-2.48Q54.47-3.09 54.65-3.57Q54.83-4.05 55.13-4.38Q55.42-4.72 55.80-4.90Q56.18-5.08 56.59-5.08L56.59-5.08Q57.02-5.08 57.31-4.94Q57.60-4.79 57.86-4.55L57.86-4.55L57.81-5.32L57.81-7.01L59.28-7.01L59.28 0L58.08 0L57.97-0.51L57.94-0.51Q57.66-0.24 57.30-0.06Q56.94 0.12 56.56 0.12L56.56 0.12Q56.09 0.12 55.70-0.06Q55.32-0.24 55.05-0.58Q54.77-0.91 54.62-1.39Q54.47-1.87 54.47-2.48ZM55.98-2.50L55.98-2.50Q55.98-1.76 56.23-1.42Q56.48-1.08 56.94-1.08L56.94-1.08Q57.19-1.08 57.40-1.19Q57.61-1.29 57.81-1.54L57.81-1.54L57.81-3.55Q57.61-3.73 57.41-3.81Q57.20-3.88 56.98-3.88L56.98-3.88Q56.57-3.88 56.27-3.54Q55.98-3.20 55.98-2.50ZM60.55-2.48L60.55-2.48Q60.55-3.09 60.77-3.57Q60.98-4.05 61.34-4.38Q61.70-4.72 62.16-4.90Q62.63-5.08 63.13-5.08L63.13-5.08Q63.70-5.08 64.14-4.90Q64.58-4.72 64.87-4.40Q65.16-4.08 65.31-3.65Q65.46-3.21 65.46-2.70L65.46-2.70Q65.46-2.50 65.44-2.32Q65.42-2.14 65.40-2.05L65.40-2.05L62.06-2.05Q62.14-1.49 62.55-1.25Q62.95-1 63.50-1L63.50-1Q63.84-1 64.14-1.08Q64.45-1.17 64.78-1.34L64.78-1.34L65.26-0.46Q64.84-0.19 64.32-0.04Q63.80 0.12 63.30 0.12L63.30 0.12Q62.72 0.12 62.22-0.06Q61.72-0.23 61.35-0.57Q60.98-0.90 60.77-1.38Q60.55-1.86 60.55-2.48ZM62.04-3.02L64.13-3.02Q64.13-3.44 63.90-3.70Q63.67-3.96 63.16-3.96L63.16-3.96Q62.76-3.96 62.45-3.73Q62.14-3.50 62.04-3.02L62.04-3.02ZM72.74 0L72.74-6.52L75.12-6.52Q75.65-6.52 76.11-6.42Q76.58-6.31 76.92-6.07Q77.27-5.82 77.47-5.42Q77.67-5.01 77.67-4.42L77.67-4.42Q77.67-3.85 77.47-3.43Q77.26-3.01 76.91-2.74Q76.56-2.47 76.10-2.34Q75.64-2.21 75.12-2.21L75.12-2.21L74.21-2.21L74.21 0L72.74 0ZM74.21-3.38L75.03-3.38Q76.22-3.38 76.22-4.42L76.22-4.42Q76.22-4.93 75.92-5.14Q75.62-5.35 75.03-5.35L75.03-5.35L74.21-5.35L74.21-3.38ZM79.16 0L79.16-4.96L80.36-4.96L80.48-3.88L80.51-3.88Q80.88-4.49 81.40-4.79Q81.92-5.08 82.52-5.08L82.52-5.08Q82.85-5.08 83.06-5.03Q83.26-4.98 83.48-4.88L83.48-4.88L83.18-3.65Q82.95-3.72 82.77-3.75Q82.58-3.79 82.30-3.79L82.30-3.79Q81.84-3.79 81.39-3.52Q80.95-3.25 80.63-2.58L80.63-2.58L80.63 0L79.16 0ZM84.47-2.48L84.47-2.48Q84.47-3.10 84.68-3.58Q84.89-4.07 85.25-4.40Q85.60-4.73 86.06-4.91Q86.51-5.08 87-5.08L87-5.08Q87.49-5.08 87.94-4.91Q88.40-4.73 88.75-4.40Q89.11-4.07 89.32-3.58Q89.53-3.10 89.53-2.48L89.53-2.48Q89.53-1.86 89.32-1.38Q89.11-0.89 88.75-0.56Q88.40-0.23 87.94-0.06Q87.49 0.12 87 0.12L87 0.12Q86.51 0.12 86.06-0.06Q85.60-0.23 85.25-0.56Q84.89-0.89 84.68-1.38Q84.47-1.86 84.47-2.48ZM85.98-2.48L85.98-2.48Q85.98-1.83 86.23-1.45Q86.49-1.07 87-1.07L87-1.07Q87.51-1.07 87.77-1.45Q88.02-1.83 88.02-2.48L88.02-2.48Q88.02-3.13 87.77-3.51Q87.51-3.89 87-3.89L87-3.89Q86.49-3.89 86.23-3.51Q85.98-3.13 85.98-2.48Z"/></svg>