<svg xmlns="http://www.w3.org/2000/svg" viewBox="0.18 -6.72 62.15 6.84"><path d="M2.26 0.12L2.26 0.12Q1.55 0.12 1.03-0.17Q0.51-0.45 0.18-0.98L0.18-0.98L0.42-1.14Q0.74-0.66 1.20-0.40Q1.65-0.14 2.30-0.14L2.30-0.14Q2.67-0.14 3.00-0.26Q3.32-0.37 3.56-0.58Q3.80-0.79 3.94-1.09Q4.08-1.39 4.08-1.76L4.08-1.76Q4.08-2.21 3.85-2.52Q3.61-2.83 3.22-3.06L3.22-3.06L2.34-3.58Q2.14-3.70 1.95-3.85Q1.76-4 1.61-4.18Q1.47-4.36 1.39-4.58Q1.30-4.80 1.30-5.06L1.30-5.06Q1.30-5.39 1.44-5.69Q1.57-5.99 1.81-6.22Q2.05-6.45 2.39-6.58Q2.73-6.72 3.14-6.72L3.14-6.72Q3.74-6.72 4.19-6.46Q4.64-6.20 4.90-5.84L4.90-5.84L4.68-5.66Q4.42-5.99 4.02-6.23Q3.62-6.46 3.08-6.46L3.08-6.46Q2.74-6.46 2.47-6.34Q2.20-6.22 2.00-6.03Q1.81-5.83 1.71-5.59Q1.60-5.35 1.60-5.10L1.60-5.10Q1.60-4.62 1.86-4.33Q2.13-4.04 2.48-3.84L2.48-3.84L3.34-3.34Q3.81-3.07 4.09-2.71Q4.38-2.34 4.38-1.80L4.38-1.80Q4.38-1.36 4.21-1.01Q4.05-0.66 3.77-0.41Q3.48-0.15 3.10-0.01Q2.71 0.12 2.26 0.12ZM6.92 0.12L6.92 0.12Q6.20 0.12 5.77-0.36Q5.34-0.85 5.34-1.76L5.34-1.76Q5.34-2.43 5.55-3.00Q5.76-3.58 6.11-4Q6.45-4.42 6.90-4.66Q7.35-4.90 7.84-4.90L7.84-4.90Q8.56-4.90 8.99-4.42Q9.42-3.93 9.42-3.02L9.42-3.02Q9.42-2.35 9.21-1.78Q9-1.20 8.65-0.78Q8.31-0.36 7.86-0.12Q7.41 0.12 6.92 0.12ZM6.94-0.14L6.94-0.14Q7.34-0.14 7.73-0.36Q8.13-0.59 8.45-0.98Q8.76-1.37 8.95-1.88Q9.14-2.39 9.14-2.96L9.14-2.96Q9.14-3.79 8.79-4.21Q8.45-4.64 7.82-4.64L7.82-4.64Q7.41-4.64 7.02-4.42Q6.63-4.19 6.31-3.80Q6-3.41 5.81-2.90Q5.62-2.39 5.62-1.82L5.62-1.82Q5.62-0.99 5.96-0.57Q6.31-0.14 6.94-0.14ZM14.28-4.78L14.56-4.78L13.60 0L13.36 0L13.48-0.80L13.44-0.80Q12.99-0.41 12.57-0.14Q12.16 0.12 11.72 0.12L11.72 0.12Q11.10 0.12 10.84-0.21Q10.58-0.53 10.58-1.04L10.58-1.04Q10.58-1.22 10.59-1.34Q10.61-1.47 10.66-1.68L10.66-1.68L11.28-4.78L11.56-4.78L10.94-1.72Q10.89-1.49 10.87-1.36Q10.86-1.23 10.86-1.08L10.86-1.08Q10.86-0.61 11.07-0.38Q11.28-0.14 11.76-0.14L11.76-0.14Q12.09-0.14 12.54-0.39Q12.99-0.64 13.56-1.20L13.56-1.20L14.28-4.78ZM15.74 0L15.46 0L16.42-4.78L16.66-4.78L16.50-3.88L16.54-3.88Q16.84-4.30 17.20-4.60Q17.57-4.90 18.04-4.90L18.04-4.90Q18.13-4.90 18.23-4.88Q18.34-4.87 18.46-4.82L18.46-4.82L18.34-4.54Q18.28-4.57 18.20-4.59Q18.12-4.62 17.98-4.62L17.98-4.62Q17.59-4.62 17.15-4.25Q16.71-3.88 16.38-3.22L16.38-3.22L15.74 0ZM20.10 0.12L20.10 0.12Q19.33 0.12 18.89-0.36Q18.44-0.85 18.44-1.76L18.44-1.76Q18.44-2.46 18.66-3.04Q18.88-3.62 19.24-4.04Q19.60-4.45 20.05-4.67Q20.51-4.90 20.98-4.90L20.98-4.90Q21.39-4.90 21.66-4.75Q21.94-4.59 22.18-4.32L22.18-4.32L21.98-4.12Q21.75-4.39 21.53-4.51Q21.31-4.64 20.96-4.64L20.96-4.64Q20.54-4.64 20.14-4.42Q19.73-4.19 19.41-3.80Q19.10-3.41 18.91-2.90Q18.72-2.39 18.72-1.82L18.72-1.82Q18.72-0.99 19.07-0.57Q19.41-0.14 20.12-0.14L20.12-0.14Q20.50-0.14 20.82-0.29Q21.15-0.45 21.42-0.66L21.42-0.66L21.58-0.44Q21.32-0.24 20.96-0.06Q20.60 0.12 20.10 0.12ZM22.57-1.84L22.57-1.84Q22.57-2.52 22.79-3.08Q23.00-3.65 23.35-4.05Q23.69-4.46 24.13-4.68Q24.57-4.90 25.03-4.90L25.03-4.90Q25.41-4.90 25.68-4.78Q25.95-4.65 26.12-4.42Q26.29-4.20 26.37-3.90Q26.45-3.59 26.45-3.22L26.45-3.22Q26.45-2.98 26.42-2.77Q26.38-2.57 26.33-2.42L26.33-2.42L22.91-2.42Q22.80-1.82 22.88-1.39Q22.96-0.96 23.17-0.68Q23.38-0.40 23.70-0.27Q24.01-0.14 24.39-0.14L24.39-0.14Q24.72-0.14 25.04-0.28Q25.36-0.42 25.63-0.62L25.63-0.62L25.77-0.40Q25.48-0.19 25.12-0.04Q24.76 0.12 24.37 0.12L24.37 0.12Q23.54 0.12 23.06-0.38Q22.57-0.87 22.57-1.84ZM22.97-2.68L22.97-2.68L26.11-2.68Q26.14-2.83 26.16-2.97Q26.17-3.11 26.17-3.28L26.17-3.28Q26.17-3.53 26.11-3.77Q26.05-4.02 25.92-4.21Q25.78-4.41 25.56-4.53Q25.33-4.64 25.01-4.64L25.01-4.64Q24.67-4.64 24.35-4.50Q24.02-4.35 23.75-4.09Q23.48-3.83 23.28-3.47Q23.07-3.11 22.97-2.68ZM30.95 0.12L30.95 0.12Q30.24 0.12 29.72-0.17Q29.20-0.45 28.87-0.98L28.87-0.98L29.11-1.14Q29.43-0.66 29.89-0.40Q30.34-0.14 30.99-0.14L30.99-0.14Q31.36-0.14 31.69-0.26Q32.01-0.37 32.25-0.58Q32.49-0.79 32.63-1.09Q32.77-1.39 32.77-1.76L32.77-1.76Q32.77-2.21 32.54-2.52Q32.30-2.83 31.91-3.06L31.91-3.06L31.03-3.58Q30.83-3.70 30.64-3.85Q30.45-4 30.30-4.18Q30.16-4.36 30.08-4.58Q29.99-4.80 29.99-5.06L29.99-5.06Q29.99-5.39 30.13-5.69Q30.26-5.99 30.50-6.22Q30.74-6.45 31.08-6.58Q31.42-6.72 31.83-6.72L31.83-6.72Q32.43-6.72 32.88-6.46Q33.33-6.20 33.59-5.84L33.59-5.84L33.37-5.66Q33.11-5.99 32.71-6.23Q32.31-6.46 31.77-6.46L31.77-6.46Q31.43-6.46 31.16-6.34Q30.89-6.22 30.70-6.03Q30.50-5.83 30.40-5.59Q30.29-5.35 30.29-5.10L30.29-5.10Q30.29-4.62 30.55-4.33Q30.82-4.04 31.17-3.84L31.17-3.84L32.03-3.34Q32.50-3.07 32.79-2.71Q33.07-2.34 33.07-1.80L33.07-1.80Q33.07-1.36 32.91-1.01Q32.74-0.66 32.45-0.41Q32.17-0.15 31.79-0.01Q31.40 0.12 30.95 0.12ZM35.43 0.12L35.43 0.12Q34.80 0.12 34.41-0.32Q34.03-0.75 34.03-1.60L34.03-1.60Q34.03-2.29 34.25-2.89Q34.47-3.49 34.84-3.94Q35.20-4.39 35.66-4.65Q36.13-4.90 36.63-4.90L36.63-4.90Q37.07-4.90 37.38-4.68Q37.69-4.46 37.89-4.10L37.89-4.10L37.93-4.10L38.11-4.78L38.35-4.78L37.39 0L37.15 0L37.27-0.78L37.23-0.78Q36.85-0.39 36.40-0.14Q35.94 0.12 35.43 0.12ZM35.45-0.14L35.45-0.14Q35.95-0.14 36.42-0.42Q36.90-0.71 37.35-1.22L37.35-1.22L37.87-3.72Q37.58-4.22 37.27-4.43Q36.97-4.64 36.61-4.64L36.61-4.64Q36.16-4.64 35.74-4.38Q35.33-4.12 35.01-3.70Q34.69-3.28 34.50-2.75Q34.31-2.21 34.31-1.66L34.31-1.66Q34.31-0.89 34.62-0.52Q34.92-0.14 35.45-0.14ZM39.53 0L39.25 0L40.21-4.78L40.45-4.78L40.33-4L40.37-4Q40.82-4.39 41.23-4.65Q41.65-4.90 42.09-4.90L42.09-4.90Q42.71-4.90 42.97-4.58Q43.23-4.25 43.23-3.74L43.23-3.74Q43.23-3.56 43.22-3.44Q43.20-3.31 43.15-3.10L43.15-3.10L42.53 0L42.25 0L42.87-3.06Q42.92-3.29 42.94-3.42Q42.95-3.55 42.95-3.70L42.95-3.70Q42.95-4.17 42.74-4.41Q42.53-4.64 42.05-4.64L42.05-4.64Q41.72-4.64 41.27-4.39Q40.82-4.14 40.25-3.58L40.25-3.58L39.53 0ZM45.43 0.12L45.43 0.12Q45.17 0.12 44.93 0.04Q44.68-0.04 44.48-0.17Q44.27-0.29 44.11-0.45Q43.95-0.60 43.85-0.76L43.85-0.76L44.07-0.92Q44.27-0.60 44.63-0.37Q44.99-0.14 45.47-0.14L45.47-0.14Q45.73-0.14 45.97-0.23Q46.20-0.31 46.38-0.46Q46.56-0.61 46.66-0.81Q46.77-1 46.77-1.22L46.77-1.22Q46.77-1.37 46.73-1.50Q46.70-1.63 46.60-1.76Q46.50-1.88 46.32-2.02Q46.14-2.15 45.85-2.30L45.85-2.30Q45.51-2.48 45.28-2.64Q45.05-2.79 44.91-2.94Q44.77-3.09 44.71-3.25Q44.65-3.40 44.65-3.58L44.65-3.58Q44.65-3.88 44.77-4.13Q44.89-4.37 45.09-4.54Q45.29-4.71 45.55-4.80Q45.82-4.90 46.11-4.90L46.11-4.90Q46.50-4.90 46.83-4.75Q47.15-4.60 47.39-4.34L47.39-4.34L47.19-4.14Q46.99-4.35 46.73-4.50Q46.47-4.64 46.09-4.64L46.09-4.64Q45.85-4.64 45.64-4.56Q45.43-4.48 45.27-4.34Q45.11-4.21 45.02-4.03Q44.93-3.84 44.93-3.64L44.93-3.64Q44.93-3.28 45.20-3.06Q45.47-2.83 45.83-2.64L45.83-2.64Q46.24-2.41 46.48-2.23Q46.73-2.05 46.86-1.89Q46.98-1.72 47.02-1.57Q47.05-1.43 47.05-1.28L47.05-1.28Q47.05-0.96 46.93-0.70Q46.80-0.44 46.59-0.26Q46.37-0.08 46.07 0.02Q45.77 0.12 45.43 0.12ZM50.27 0L49.97 0L51.29-6.60L52.97-6.60Q53.88-6.60 54.38-6.24Q54.89-5.88 54.89-5.10L54.89-5.10Q54.89-4.56 54.70-4.16Q54.51-3.75 54.15-3.48Q53.79-3.21 53.28-3.08Q52.77-2.94 52.13-2.94L52.13-2.94L50.85-2.94L50.27 0ZM51.53-6.34L50.91-3.20L52.07-3.20Q53.32-3.20 53.95-3.67Q54.59-4.14 54.59-5.08L54.59-5.08Q54.59-5.76 54.13-6.05Q53.68-6.34 52.79-6.34L52.79-6.34L51.53-6.34ZM55.53 0L55.25 0L56.21-4.78L56.45-4.78L56.29-3.88L56.33-3.88Q56.63-4.30 57.00-4.60Q57.36-4.90 57.83-4.90L57.83-4.90Q57.92-4.90 58.03-4.88Q58.13-4.87 58.25-4.82L58.25-4.82L58.13-4.54Q58.07-4.57 57.99-4.59Q57.91-4.62 57.77-4.62L57.77-4.62Q57.38-4.62 56.94-4.25Q56.50-3.88 56.17-3.22L56.17-3.22L55.53 0ZM59.83 0.12L59.83 0.12Q59.11 0.12 58.68-0.36Q58.25-0.85 58.25-1.76L58.25-1.76Q58.25-2.43 58.46-3.00Q58.67-3.58 59.02-4Q59.36-4.42 59.81-4.66Q60.26-4.90 60.75-4.90L60.75-4.90Q61.47-4.90 61.90-4.42Q62.33-3.93 62.33-3.02L62.33-3.02Q62.33-2.35 62.12-1.78Q61.91-1.20 61.56-0.78Q61.22-0.36 60.77-0.12Q60.32 0.12 59.83 0.12ZM59.85-0.14L59.85-0.14Q60.25-0.14 60.64-0.36Q61.04-0.59 61.35-0.98Q61.67-1.37 61.86-1.88Q62.05-2.39 62.05-2.96L62.05-2.96Q62.05-3.79 61.70-4.21Q61.36-4.64 60.73-4.64L60.73-4.64Q60.32-4.64 59.93-4.42Q59.54-4.19 59.23-3.80Q58.91-3.41 58.72-2.90Q58.53-2.39 58.53-1.82L58.53-1.82Q58.53-0.99 58.88-0.57Q59.22-0.14 59.85-0.14Z"/></svg>