<svg xmlns="http://www.w3.org/2000/svg" viewBox="4.5360000000000005 47.943999999999996 942.9840000000005 52.92000000000001"><path d="M5 94L9 89Q11 92 15 93Q18 95 22 95L22 95Q27 95 29 93Q32 91 32 88L32 88Q32 86 31 85Q30 84 29 83Q28 82 27 81Q25 81 23 80L23 80L17 77Q15 76 13 75Q11 74 10 73Q8 71 8 69Q7 67 7 65L7 65Q7 62 8 60Q9 57 11 56Q13 54 16 53Q19 52 23 52L23 52Q27 52 31 54Q35 55 37 58L37 58L34 62Q31 60 29 59Q26 58 23 58L23 58Q19 58 16 60Q14 62 14 64L14 64Q14 66 15 67Q15 68 16 69Q18 70 19 70Q21 71 22 72L22 72L29 75Q31 75 33 76Q35 78 36 79Q37 81 38 83Q39 85 39 87L39 87Q39 90 38 92Q37 95 34 97Q32 99 29 100Q26 101 22 101L22 101Q17 101 12 99Q8 97 5 94L5 94ZM47 82L47 82Q47 78 49 75Q50 71 53 69Q55 66 58 65Q61 64 65 64L65 64Q68 64 71 65Q75 66 77 69Q79 71 81 75Q82 78 82 82L82 82Q82 87 81 90Q79 94 77 96Q75 98 71 100Q68 101 65 101L65 101Q61 101 58 100Q55 98 53 96Q50 94 49 90Q47 87 47 82ZM55 82L55 82Q55 88 57 92Q60 95 65 95L65 95Q70 95 72 92Q75 88 75 82L75 82Q75 77 72 73Q70 70 65 70L65 70Q60 70 57 73Q55 77 55 82ZM123 65L123 100L117 100L117 94L116 94Q114 97 111 99Q108 101 104 101L104 101Q97 101 95 97Q92 94 92 87L92 87L92 65L99 65L99 86Q99 90 100 93Q102 95 106 95L106 95Q109 95 111 93Q113 92 116 89L116 89L116 65L123 65ZM140 100L140 65L145 65L146 73L146 73Q149 69 153 66Q157 64 162 64L162 64Q164 64 165 64Q167 65 168 65L168 65L167 71Q165 71 164 71Q163 70 160 70L160 70Q157 70 153 72Q150 75 147 80L147 80L147 100L140 100ZM178 82L178 82Q178 78 180 75Q181 71 184 69Q187 66 190 65Q194 64 198 64L198 64Q202 64 206 65Q209 67 211 69L211 69L208 74Q205 72 203 71Q201 70 198 70L198 70Q196 70 193 71Q191 72 189 73Q187 75 187 77Q186 80 186 82L186 82Q186 85 187 88Q187 90 189 92Q191 93 193 94Q195 95 198 95L198 95Q201 95 204 94Q207 93 209 91L209 91L212 95Q209 98 205 99Q202 101 198 101L198 101Q194 101 190 100Q186 98 184 96Q181 94 180 90Q178 87 178 82ZM221 82L221 82Q221 78 222 75Q224 71 226 69Q229 66 232 65Q235 64 239 64L239 64Q243 64 246 65Q249 66 251 69Q253 71 254 74Q255 77 255 81L255 81Q255 82 255 83Q255 84 255 84L255 84L228 84Q228 89 232 92Q235 95 241 95L241 95Q244 95 246 94Q249 94 251 92L251 92L253 97Q251 98 247 100Q244 101 240 101L240 101Q236 101 232 100Q229 98 226 96Q224 94 222 90Q221 87 221 82ZM228 79L248 79Q248 75 246 72Q243 70 239 70L239 70Q235 70 232 72Q229 75 228 79L228 79ZM307 77L307 77Q307 71 309 66Q310 62 313 59Q316 55 320 54Q324 52 328 52L328 52Q333 52 336 54Q339 56 341 58L341 58L337 62Q336 60 333 59Q331 58 328 58L328 58Q325 58 323 59Q320 61 318 63Q316 65 315 69Q314 72 314 76L314 76Q314 81 315 84Q316 87 318 90Q320 92 323 93Q325 95 329 95L329 95Q332 95 334 93Q336 92 339 90L339 90L343 94Q340 97 336 99Q333 101 328 101L328 101Q324 101 320 99Q316 98 313 94Q310 91 309 87Q307 82 307 77ZM350 82L350 82Q350 78 351 75Q353 71 355 69Q357 66 361 65Q364 64 367 64L367 64Q371 64 374 65Q377 66 379 69Q382 71 383 75Q385 78 385 82L385 82Q385 87 383 90Q382 94 379 96Q377 98 374 100Q371 101 367 101L367 101Q364 101 361 100Q357 98 355 96Q353 94 351 90Q350 87 350 82ZM357 82L357 82Q357 88 360 92Q362 95 367 95L367 95Q372 95 375 92Q377 88 377 82L377 82Q377 77 375 73Q372 70 367 70L367 70Q362 70 360 73Q357 77 357 82ZM393 82L393 82Q393 78 394 75Q395 71 398 69Q400 67 403 65Q406 64 409 64L409 64Q412 64 414 65Q417 66 419 68L419 68L419 62L419 49L426 49L426 100L420 100L419 96L419 96Q417 98 414 99Q411 101 408 101L408 101Q405 101 402 100Q399 98 397 96Q395 94 394 90Q393 87 393 82ZM400 82L400 82Q400 88 403 92Q405 95 410 95L410 95Q414 95 419 90L419 90L419 74Q416 71 414 71Q412 70 410 70L410 70Q408 70 406 71Q404 72 403 73Q402 75 401 77Q400 79 400 82ZM437 82L437 82Q437 78 438 75Q440 71 442 69Q445 66 448 65Q451 64 455 64L455 64Q459 64 462 65Q465 66 467 69Q469 71 470 74Q471 77 471 81L471 81Q471 82 471 83Q471 84 471 84L471 84L444 84Q444 89 448 92Q451 95 457 95L457 95Q460 95 462 94Q465 94 467 92L467 92L469 97Q467 98 463 100Q460 101 456 101L456 101Q452 101 448 100Q445 98 442 96Q440 94 438 90Q437 87 437 82ZM444 79L464 79Q464 75 462 72Q459 70 455 70L455 70Q451 70 448 72Q445 75 444 79L444 79ZM525 100L525 53L540 53Q544 53 547 54Q551 54 553 56Q555 58 557 60Q558 63 558 67L558 67Q558 71 557 74Q555 77 553 78Q551 80 547 81Q544 82 540 82L540 82L532 82L532 100L525 100ZM532 76L540 76Q545 76 548 74Q551 72 551 67L551 67Q551 62 548 60Q545 59 540 59L540 59L532 59L532 76ZM572 100L572 65L577 65L578 73L578 73Q581 69 585 66Q589 64 594 64L594 64Q596 64 597 64Q599 65 600 65L600 65L599 71Q597 71 596 71Q595 70 592 70L592 70Q589 70 585 72Q582 75 579 80L579 80L579 100L572 100ZM609 82L609 82Q609 78 610 75Q612 71 614 69Q617 66 620 65Q623 64 626 64L626 64Q630 64 633 65Q636 66 639 69Q641 71 643 75Q644 78 644 82L644 82Q644 87 643 90Q641 94 639 96Q636 98 633 100Q630 101 626 101L626 101Q623 101 620 100Q617 98 614 96Q612 94 610 90Q609 87 609 82ZM616 82L616 82Q616 88 619 92Q622 95 626 95L626 95Q631 95 634 92Q637 88 637 82L637 82Q637 77 634 73Q631 70 626 70L626 70Q622 70 619 73Q616 77 616 82ZM695 100L695 65L701 65L701 69L701 69Q703 67 704 65Q706 64 709 64L709 64Q714 64 716 70L716 70Q717 67 719 66Q721 64 724 64L724 64Q727 64 730 67Q732 70 732 75L732 75L732 100L725 100L725 76Q725 70 721 70L721 70Q720 70 719 71Q717 72 716 75L716 75L716 100L710 100L710 76Q710 70 707 70L707 70Q705 70 704 71Q703 72 702 75L702 75L702 100L695 100ZM739 82L739 82Q739 78 741 75Q742 71 745 69Q747 66 750 65Q754 64 757 64L757 64Q761 64 764 65Q767 66 769 69Q771 71 772 74Q773 77 773 81L773 81Q773 82 773 83Q773 84 773 84L773 84L746 84Q747 89 750 92Q754 95 759 95L759 95Q762 95 764 94Q767 94 769 92L769 92L772 97Q769 98 766 100Q762 101 758 101L758 101Q754 101 751 100Q747 98 745 96Q742 94 741 90Q739 87 739 82ZM746 79L767 79Q767 75 764 72Q762 70 757 70L757 70Q753 70 750 72Q747 75 746 79L746 79ZM782 82L782 82Q782 78 783 75Q784 71 786 69Q789 67 792 65Q794 64 797 64L797 64Q801 64 803 65Q805 66 808 68L808 68L807 62L807 49L814 49L814 100L809 100L808 96L808 96Q806 98 803 99Q800 101 797 101L797 101Q793 101 791 100Q788 98 786 96Q784 94 783 90Q782 87 782 82ZM789 82L789 82Q789 88 791 92Q794 95 798 95L798 95Q803 95 807 90L807 90L807 74Q805 71 803 71Q801 70 799 70L799 70Q797 70 795 71Q793 72 792 73Q791 75 790 77Q789 79 789 82ZM827 71L827 65L850 65L850 100L843 100L843 71L827 71ZM846 58L846 58Q843 58 842 57Q840 55 840 53L840 53Q840 51 842 49Q843 48 846 48L846 48Q848 48 850 49Q851 51 851 53L851 53Q851 55 850 57Q848 58 846 58ZM901 65L901 100L895 100L894 94L894 94Q891 97 888 99Q885 101 881 101L881 101Q875 101 872 97Q869 94 869 87L869 87L869 65L876 65L876 86Q876 90 878 93Q880 95 884 95L884 95Q886 95 889 93Q891 92 894 89L894 89L894 65L901 65ZM911 100L911 65L917 65L917 69L917 69Q919 67 920 65Q922 64 925 64L925 64Q930 64 932 70L932 70Q933 67 935 66Q937 64 940 64L940 64Q943 64 946 67Q948 70 948 75L948 75L948 100L941 100L941 76Q941 70 937 70L937 70Q936 70 935 71Q933 72 932 75L932 75L932 100L926 100L926 76Q926 70 923 70L923 70Q921 70 920 71Q919 72 918 75L918 75L918 100L911 100Z"/></svg>