<svg xmlns="http://www.w3.org/2000/svg" viewBox="0.05 -6.640000000000001 68.10000000000001 6.760000000000001"><path d="M2.38 0.12L2.38 0.12Q1.74 0.12 1.14-0.16Q0.53-0.44 0.05-1.10L0.05-1.10L1.03-1.87Q1.29-1.49 1.68-1.27Q2.06-1.05 2.48-1.05L2.48-1.05Q2.90-1.05 3.16-1.25Q3.42-1.45 3.42-1.80L3.42-1.80Q3.42-2.06 3.21-2.23Q3.01-2.39 2.66-2.61L2.66-2.61L2.04-2.99Q1.59-3.27 1.33-3.65Q1.07-4.02 1.07-4.62L1.07-4.62Q1.07-5.04 1.25-5.41Q1.43-5.77 1.74-6.04Q2.04-6.32 2.46-6.48Q2.88-6.64 3.36-6.64L3.36-6.64Q3.94-6.64 4.45-6.37Q4.96-6.10 5.34-5.65L5.34-5.65L4.47-4.84Q4.22-5.10 3.94-5.28Q3.66-5.45 3.30-5.45L3.30-5.45Q2.90-5.45 2.69-5.25Q2.47-5.04 2.47-4.75L2.47-4.75Q2.47-4.50 2.69-4.34Q2.91-4.18 3.29-3.94L3.29-3.94L3.93-3.55Q4.41-3.26 4.63-2.92Q4.84-2.57 4.84-2L4.84-2Q4.84-1.55 4.67-1.17Q4.49-0.78 4.17-0.49Q3.85-0.21 3.40-0.04Q2.94 0.12 2.38 0.12ZM7.51 0.12L7.51 0.12Q7.07 0.12 6.72-0.03Q6.37-0.17 6.12-0.44Q5.86-0.71 5.72-1.08Q5.59-1.46 5.59-1.92L5.59-1.92Q5.59-2.64 5.83-3.23Q6.07-3.81 6.46-4.22Q6.86-4.63 7.36-4.86Q7.86-5.08 8.37-5.08L8.37-5.08Q8.80-5.08 9.16-4.94Q9.51-4.79 9.76-4.52Q10.01-4.25 10.15-3.88Q10.29-3.50 10.29-3.04L10.29-3.04Q10.29-2.32 10.05-1.74Q9.81-1.15 9.41-0.74Q9.02-0.33 8.52-0.10Q8.02 0.12 7.51 0.12ZM7.66-0.98L7.66-0.98Q7.91-0.98 8.13-1.14Q8.36-1.29 8.54-1.56Q8.71-1.83 8.81-2.20Q8.91-2.57 8.91-3.01L8.91-3.01Q8.91-3.47 8.73-3.73Q8.56-3.98 8.21-3.98L8.21-3.98Q7.96-3.98 7.73-3.83Q7.51-3.67 7.34-3.40Q7.17-3.13 7.07-2.75Q6.97-2.38 6.97-1.95L6.97-1.95Q6.97-1.50 7.14-1.24Q7.31-0.98 7.66-0.98ZM14.54-4.96L15.91-4.96L14.93 0L13.82 0L13.84-0.67L13.80-0.67Q13.46-0.35 13.05-0.12Q12.63 0.12 12.18 0.12L12.18 0.12Q11.56 0.12 11.29-0.21Q11.01-0.53 11.01-1.16L11.01-1.16Q11.01-1.33 11.03-1.50Q11.05-1.67 11.09-1.86L11.09-1.86L11.71-4.96L13.07-4.96L12.49-2.03Q12.45-1.88 12.43-1.77Q12.41-1.66 12.41-1.56L12.41-1.56Q12.41-1.05 12.91-1.05L12.91-1.05Q13.33-1.05 13.90-1.69L13.90-1.69L14.54-4.96ZM17.58 0L16.21 0L17.19-4.96L18.30-4.96L18.24-4L18.28-4Q18.57-4.47 18.97-4.78Q19.37-5.08 19.80-5.08L19.80-5.08Q19.99-5.08 20.12-5.05Q20.24-5.03 20.32-4.98L20.32-4.98L19.87-3.80Q19.77-3.85 19.64-3.87Q19.50-3.88 19.38-3.88L19.38-3.88Q19.05-3.88 18.74-3.64Q18.43-3.40 18.14-2.87L18.14-2.87L17.58 0ZM22.04 0.12L22.04 0.12Q21.63 0.12 21.27-0.01Q20.92-0.15 20.66-0.42Q20.40-0.68 20.25-1.06Q20.10-1.44 20.10-1.92L20.10-1.92Q20.10-2.56 20.32-3.14Q20.55-3.71 20.95-4.15Q21.34-4.58 21.88-4.83Q22.41-5.08 23.02-5.08L23.02-5.08Q23.49-5.08 23.82-4.89Q24.16-4.70 24.35-4.47L24.35-4.47L23.59-3.66Q23.44-3.82 23.29-3.90Q23.14-3.98 22.93-3.98L22.93-3.98Q22.63-3.98 22.37-3.82Q22.11-3.66 21.91-3.38Q21.72-3.10 21.61-2.73Q21.50-2.37 21.50-1.95L21.50-1.95Q21.50-1.50 21.71-1.24Q21.92-0.98 22.34-0.98L22.34-0.98Q22.60-0.98 22.79-1.08Q22.97-1.18 23.13-1.30L23.13-1.30L23.70-0.46Q23.42-0.25 23.02-0.07Q22.63 0.12 22.04 0.12ZM24.38-2L24.38-2Q24.38-2.69 24.63-3.25Q24.87-3.82 25.27-4.22Q25.66-4.63 26.15-4.86Q26.64-5.08 27.14-5.08L27.14-5.08Q27.58-5.08 27.89-4.94Q28.20-4.79 28.39-4.54Q28.59-4.28 28.68-3.95Q28.76-3.61 28.76-3.22L28.76-3.22Q28.76-3.04 28.73-2.87Q28.70-2.69 28.66-2.54Q28.62-2.38 28.57-2.27Q28.53-2.15 28.50-2.09L28.50-2.09L25.68-2.09Q25.65-1.47 25.98-1.19Q26.30-0.91 26.79-0.91L26.79-0.91Q27.02-0.91 27.27-1.02Q27.52-1.13 27.71-1.26L27.71-1.26L28.19-0.40Q27.89-0.19 27.44-0.04Q26.99 0.12 26.41 0.12L26.41 0.12Q25.96 0.12 25.59-0.03Q25.21-0.17 24.95-0.45Q24.68-0.72 24.53-1.11Q24.38-1.50 24.38-2ZM25.79-2.93L25.79-2.93L27.59-2.93Q27.64-3.10 27.64-3.30L27.64-3.30Q27.64-3.60 27.50-3.81Q27.35-4.03 26.97-4.03L26.97-4.03Q26.62-4.03 26.29-3.75Q25.96-3.48 25.79-2.93ZM33.41 0.12L33.41 0.12Q32.77 0.12 32.16-0.16Q31.56-0.44 31.08-1.10L31.08-1.10L32.06-1.87Q32.32-1.49 32.70-1.27Q33.09-1.05 33.51-1.05L33.51-1.05Q33.93-1.05 34.19-1.25Q34.45-1.45 34.45-1.80L34.45-1.80Q34.45-2.06 34.25-2.23Q34.04-2.39 33.69-2.61L33.69-2.61L33.07-2.99Q32.62-3.27 32.36-3.65Q32.10-4.02 32.10-4.62L32.10-4.62Q32.10-5.04 32.28-5.41Q32.46-5.77 32.77-6.04Q33.07-6.32 33.49-6.48Q33.91-6.64 34.39-6.64L34.39-6.64Q34.97-6.64 35.48-6.37Q35.99-6.10 36.37-5.65L36.37-5.65L35.50-4.84Q35.25-5.10 34.97-5.28Q34.69-5.45 34.33-5.45L34.33-5.45Q33.93-5.45 33.72-5.25Q33.50-5.04 33.50-4.75L33.50-4.75Q33.50-4.50 33.72-4.34Q33.94-4.18 34.32-3.94L34.32-3.94L34.96-3.55Q35.44-3.26 35.66-2.92Q35.87-2.57 35.87-2L35.87-2Q35.87-1.55 35.70-1.17Q35.52-0.78 35.20-0.49Q34.88-0.21 34.43-0.04Q33.97 0.12 33.41 0.12ZM38.03 0.12L38.03 0.12Q37.37 0.12 37-0.35Q36.63-0.82 36.63-1.70L36.63-1.70Q36.63-2.41 36.85-3.02Q37.07-3.64 37.44-4.10Q37.81-4.56 38.29-4.82Q38.77-5.08 39.28-5.08L39.28-5.08Q39.62-5.08 39.92-4.91Q40.22-4.73 40.36-4.43L40.36-4.43L40.38-4.43L40.60-4.96L41.69-4.96L40.70 0L39.59 0L39.61-0.65L39.58-0.65Q39.24-0.30 38.83-0.09Q38.42 0.12 38.03 0.12ZM38.63-1L38.63-1Q38.88-1 39.16-1.16Q39.45-1.31 39.69-1.73L39.69-1.73L40.04-3.49Q39.92-3.74 39.73-3.85Q39.55-3.96 39.38-3.96L39.38-3.96Q39.12-3.96 38.88-3.80Q38.64-3.64 38.45-3.36Q38.27-3.08 38.16-2.70Q38.05-2.32 38.05-1.87L38.05-1.87Q38.05-1.42 38.20-1.21Q38.36-1 38.63-1ZM43.35 0L41.98 0L42.96-4.96L44.07-4.96L44.05-4.30L44.09-4.30Q44.46-4.62 44.87-4.85Q45.28-5.08 45.76-5.08L45.76-5.08Q46.38-5.08 46.66-4.75Q46.94-4.43 46.94-3.81L46.94-3.81Q46.94-3.64 46.92-3.46Q46.90-3.29 46.86-3.10L46.86-3.10L46.24 0L44.87 0L45.46-2.93Q45.49-3.08 45.52-3.19Q45.54-3.30 45.54-3.40L45.54-3.40Q45.54-3.91 45.03-3.91L45.03-3.91Q44.80-3.91 44.56-3.75Q44.31-3.60 43.99-3.27L43.99-3.27L43.35 0ZM49.06 0.12L49.06 0.12Q48.83 0.12 48.58 0.06Q48.33-0.01 48.10-0.13Q47.86-0.25 47.65-0.43Q47.43-0.61 47.28-0.84L47.28-0.84L48.07-1.50Q48.59-0.88 49.14-0.88L49.14-0.88Q49.43-0.88 49.64-1.02Q49.84-1.15 49.84-1.35L49.84-1.35Q49.84-1.57 49.62-1.71Q49.40-1.85 48.98-2.09L48.98-2.09Q48.56-2.32 48.27-2.66Q47.98-2.99 47.98-3.46L47.98-3.46Q47.98-3.81 48.13-4.11Q48.28-4.41 48.54-4.63Q48.80-4.84 49.15-4.96Q49.50-5.08 49.90-5.08L49.90-5.08Q50.41-5.08 50.82-4.86Q51.22-4.64 51.53-4.32L51.53-4.32L50.78-3.61Q50.60-3.80 50.38-3.93Q50.16-4.06 49.90-4.06L49.90-4.06Q49.61-4.06 49.44-3.93Q49.26-3.79 49.26-3.59L49.26-3.59Q49.26-3.47 49.33-3.38Q49.40-3.29 49.52-3.21Q49.64-3.14 49.79-3.06Q49.93-2.99 50.08-2.90L50.08-2.90Q50.53-2.66 50.83-2.34Q51.12-2.02 51.12-1.51L51.12-1.51Q51.12-1.15 50.97-0.85Q50.81-0.55 50.54-0.34Q50.27-0.12 49.89 0Q49.51 0.12 49.06 0.12ZM55.24 0L53.86 0L55.17-6.52L57.23-6.52Q57.71-6.52 58.12-6.42Q58.52-6.33 58.82-6.13Q59.12-5.92 59.29-5.59Q59.46-5.26 59.46-4.79L59.46-4.79Q59.46-4.11 59.22-3.63Q58.98-3.15 58.57-2.85Q58.16-2.54 57.62-2.40Q57.07-2.26 56.45-2.26L56.45-2.26L55.68-2.26L55.24 0ZM56.31-5.43L55.91-3.35L56.60-3.35Q57.33-3.35 57.72-3.66Q58.11-3.97 58.11-4.59L58.11-4.59Q58.11-5.03 57.83-5.23Q57.54-5.43 57.01-5.43L57.01-5.43L56.31-5.43ZM60.92 0L59.55 0L60.53-4.96L61.64-4.96L61.58-4L61.62-4Q61.91-4.47 62.31-4.78Q62.71-5.08 63.14-5.08L63.14-5.08Q63.33-5.08 63.46-5.05Q63.58-5.03 63.66-4.98L63.66-4.98L63.21-3.80Q63.11-3.85 62.98-3.87Q62.84-3.88 62.72-3.88L62.72-3.88Q62.39-3.88 62.08-3.64Q61.77-3.40 61.48-2.87L61.48-2.87L60.92 0ZM65.37 0.12L65.37 0.12Q64.93 0.12 64.58-0.03Q64.23-0.17 63.98-0.44Q63.72-0.71 63.59-1.08Q63.45-1.46 63.45-1.92L63.45-1.92Q63.45-2.64 63.69-3.23Q63.93-3.81 64.33-4.22Q64.72-4.63 65.22-4.86Q65.72-5.08 66.23-5.08L66.23-5.08Q66.66-5.08 67.02-4.94Q67.37-4.79 67.62-4.52Q67.87-4.25 68.01-3.88Q68.15-3.50 68.15-3.04L68.15-3.04Q68.15-2.32 67.91-1.74Q67.67-1.15 67.28-0.74Q66.88-0.33 66.38-0.10Q65.88 0.12 65.37 0.12ZM65.52-0.98L65.52-0.98Q65.77-0.98 66.00-1.14Q66.22-1.29 66.39-1.56Q66.57-1.83 66.67-2.20Q66.77-2.57 66.77-3.01L66.77-3.01Q66.77-3.47 66.59-3.73Q66.42-3.98 66.07-3.98L66.07-3.98Q65.82-3.98 65.59-3.83Q65.37-3.67 65.20-3.40Q65.03-3.13 64.93-2.75Q64.83-2.38 64.83-1.95L64.83-1.95Q64.83-1.50 65-1.24Q65.17-0.98 65.52-0.98Z"/></svg>