<svg xmlns="http://www.w3.org/2000/svg" viewBox="2.8800000000000003 46.071999999999996 761.0400000000001 68.976"><path d="M18.00 71.78L20.88 72.86Q24.48 74.22 27.00 75.74Q29.52 77.25 31.07 78.98Q32.62 80.70 33.34 82.72Q34.06 84.74 34.06 87.18L34.06 87.18Q34.06 90.42 32.80 92.98Q31.54 95.54 29.27 97.34Q27.00 99.14 23.83 100.11Q20.66 101.08 16.92 101.08L16.92 101.08Q12.82 101.08 9.11 99.96Q5.40 98.85 2.88 97.26L2.88 97.26L3.31 87.18L7.70 87.18L9.14 95.54Q10.87 96.54 12.64 97.01Q14.40 97.48 16.70 97.48L16.70 97.48Q21.82 97.48 24.88 95.18Q27.94 92.87 27.94 88.62L27.94 88.62Q27.94 86.97 27.40 85.71Q26.86 84.45 25.78 83.44Q24.70 82.43 23.00 81.57Q21.31 80.70 19.01 79.84L19.01 79.84L16.20 78.76Q13.39 77.68 11.12 76.31Q8.86 74.94 7.20 73.18Q5.54 71.42 4.64 69.26Q3.74 67.10 3.74 64.36L3.74 64.36Q3.74 61.26 4.97 58.74Q6.19 56.22 8.35 54.42Q10.51 52.62 13.50 51.69Q16.49 50.75 19.94 50.75L19.94 50.75Q23.62 50.75 26.57 51.80Q29.52 52.84 31.82 54.57L31.82 54.57L31.39 64.00L26.93 64.00L25.42 55.79Q22.68 54.42 19.58 54.42L19.58 54.42Q15.41 54.42 12.60 56.51Q9.79 58.60 9.79 62.78L9.79 62.78Q9.79 66.23 11.92 68.25Q14.04 70.26 18.00 71.78L18.00 71.78ZM56.66 67.96L56.66 67.96Q51.91 67.96 49.39 71.81Q46.87 75.66 46.87 83.01L46.87 83.01Q46.87 90.28 49.39 94.06Q51.91 97.84 56.66 97.84L56.66 97.84Q61.34 97.84 63.86 94.06Q66.38 90.28 66.38 83.01L66.38 83.01Q66.38 75.66 63.86 71.81Q61.34 67.96 56.66 67.96ZM56.66 64.65L56.66 64.65Q59.76 64.65 62.75 65.84Q65.74 67.02 68.04 69.36Q70.34 71.70 71.78 75.12Q73.22 78.54 73.22 83.01L73.22 83.01Q73.22 87.47 71.82 90.86Q70.42 94.24 68.08 96.51Q65.74 98.78 62.75 99.93Q59.76 101.08 56.66 101.08L56.66 101.08Q53.50 101.08 50.51 99.93Q47.52 98.78 45.22 96.51Q42.91 94.24 41.51 90.86Q40.10 87.47 40.10 83.01L40.10 83.01Q40.10 78.54 41.51 75.12Q42.91 71.70 45.25 69.36Q47.59 67.02 50.54 65.84Q53.50 64.65 56.66 64.65ZM110.38 96.33L115.34 97.41L115.34 100L105.34 100.72L104.54 94.31Q101.59 97.91 98.35 99.50Q95.11 101.08 91.80 101.08L91.80 101.08Q89.64 101.08 87.88 100.40Q86.11 99.71 84.89 98.16Q83.66 96.62 83.05 94.17Q82.44 91.72 82.44 88.12L82.44 88.12L82.66 69.98L77.54 68.90L77.54 66.38L88.13 65.37L88.85 66.09L88.49 76.17L88.49 87.33Q88.49 92.15 89.89 94.06Q91.30 95.97 94.25 95.97L94.25 95.97Q99.29 95.97 104.33 91.29L104.33 91.29L104.54 69.98L99.43 68.90L99.43 66.38L109.87 65.37L110.59 66.09L110.38 76.17L110.38 96.33ZM131.40 65.37L132.19 73.79Q134.06 69.47 136.84 67.06Q139.61 64.65 142.56 64.65L142.56 64.65Q144.14 64.65 145.62 65.48Q147.10 66.30 147.46 68.18L147.46 68.18Q147.46 69.98 146.23 71.02Q145.01 72.06 143.14 72.06L143.14 72.06Q140.90 72.06 139.03 70.26L139.03 70.26L138.53 69.76Q136.30 71.42 134.78 73.68Q133.27 75.95 132.26 79.19L132.26 79.19L132.26 84.88Q132.26 87.26 132.30 90.42Q132.34 93.59 132.41 96.33L132.41 96.33L138.31 97.41L138.31 100L120.89 100L120.89 97.41L126.07 96.47Q126.14 93.74 126.18 90.53Q126.22 87.33 126.22 84.88L126.22 84.88L126.22 81.21Q126.22 78.26 126.14 76.31Q126.07 74.37 126.00 72.21L126.00 72.21L120.31 71.56L120.31 69.04L130.32 64.65L131.40 65.37ZM178.63 90.86L180.43 91.79Q178.99 96.33 175.57 98.70Q172.15 101.08 166.97 101.08L166.97 101.08Q163.30 101.08 160.31 99.82Q157.32 98.56 155.20 96.18Q153.07 93.81 151.96 90.46Q150.84 87.11 150.84 83.01L150.84 83.01Q150.84 78.76 152.21 75.34Q153.58 71.92 155.92 69.54Q158.26 67.17 161.24 65.91Q164.23 64.65 167.47 64.65L167.47 64.65Q169.92 64.65 172.12 65.37Q174.31 66.09 176.00 67.35Q177.70 68.61 178.78 70.30Q179.86 71.99 180.22 74.01L180.22 74.01Q179.71 76.74 176.90 76.74L176.90 76.74Q175.10 76.74 174.24 75.77Q173.38 74.80 173.02 73.29L173.02 73.29L171.72 68.54Q170.71 68.18 169.70 68.07Q168.70 67.96 167.83 67.96L167.83 67.96Q163.15 67.96 160.16 71.63Q157.18 75.30 157.18 82.29L157.18 82.29Q157.18 89.20 160.38 92.84Q163.58 96.47 168.70 96.47L168.70 96.47Q171.79 96.47 174.38 95.03Q176.98 93.59 178.63 90.86L178.63 90.86ZM192.60 79.48L205.70 79.48Q208.30 79.48 209.16 78.40Q210.02 77.32 210.02 75.74L210.02 75.74Q210.02 74.22 209.41 72.82Q208.80 71.42 207.76 70.34Q206.71 69.26 205.31 68.61Q203.90 67.96 202.25 67.96L202.25 67.96Q200.74 67.96 199.12 68.57Q197.50 69.18 196.16 70.59Q194.83 71.99 193.86 74.19Q192.89 76.38 192.60 79.48L192.60 79.48ZM215.50 82.58L192.46 82.58Q192.60 89.27 195.77 92.87Q198.94 96.47 204.12 96.47L204.12 96.47Q207.58 96.47 209.88 95.03Q212.18 93.59 214.13 91.29L214.13 91.29L215.86 92.66Q213.98 96.54 210.49 98.81Q207 101.08 202.03 101.08L202.03 101.08Q198.36 101.08 195.41 99.86Q192.46 98.63 190.37 96.29Q188.28 93.95 187.13 90.64Q185.98 87.33 185.98 83.22L185.98 83.22Q185.98 79.12 187.27 75.70Q188.57 72.28 190.84 69.83Q193.10 67.38 196.13 66.02Q199.15 64.65 202.54 64.65L202.54 64.65Q205.34 64.65 207.83 65.58Q210.31 66.52 212.11 68.32Q213.91 70.12 214.96 72.71Q216 75.30 216 78.54L216 78.54Q216 79.77 215.86 80.78Q215.71 81.78 215.50 82.58L215.50 82.58ZM254.09 71.78L256.97 72.86Q260.57 74.22 263.09 75.74Q265.61 77.25 267.16 78.98Q268.70 80.70 269.42 82.72Q270.14 84.74 270.14 87.18L270.14 87.18Q270.14 90.42 268.88 92.98Q267.62 95.54 265.36 97.34Q263.09 99.14 259.92 100.11Q256.75 101.08 253.01 101.08L253.01 101.08Q248.90 101.08 245.20 99.96Q241.49 98.85 238.97 97.26L238.97 97.26L239.40 87.18L243.79 87.18L245.23 95.54Q246.96 96.54 248.72 97.01Q250.49 97.48 252.79 97.48L252.79 97.48Q257.90 97.48 260.96 95.18Q264.02 92.87 264.02 88.62L264.02 88.62Q264.02 86.97 263.48 85.71Q262.94 84.45 261.86 83.44Q260.78 82.43 259.09 81.57Q257.40 80.70 255.10 79.84L255.10 79.84L252.29 78.76Q249.48 77.68 247.21 76.31Q244.94 74.94 243.29 73.18Q241.63 71.42 240.73 69.26Q239.83 67.10 239.83 64.36L239.83 64.36Q239.83 61.26 241.06 58.74Q242.28 56.22 244.44 54.42Q246.60 52.62 249.59 51.69Q252.58 50.75 256.03 50.75L256.03 50.75Q259.70 50.75 262.66 51.80Q265.61 52.84 267.91 54.57L267.91 54.57L267.48 64.00L263.02 64.00L261.50 55.79Q258.77 54.42 255.67 54.42L255.67 54.42Q251.50 54.42 248.69 56.51Q245.88 58.60 245.88 62.78L245.88 62.78Q245.88 66.23 248.00 68.25Q250.13 70.26 254.09 71.78L254.09 71.78ZM282.96 79.48L296.06 79.48Q298.66 79.48 299.52 78.40Q300.38 77.32 300.38 75.74L300.38 75.74Q300.38 74.22 299.77 72.82Q299.16 71.42 298.12 70.34Q297.07 69.26 295.67 68.61Q294.26 67.96 292.61 67.96L292.61 67.96Q291.10 67.96 289.48 68.57Q287.86 69.18 286.52 70.59Q285.19 71.99 284.22 74.19Q283.25 76.38 282.96 79.48L282.96 79.48ZM305.86 82.58L282.82 82.58Q282.96 89.27 286.13 92.87Q289.30 96.47 294.48 96.47L294.48 96.47Q297.94 96.47 300.24 95.03Q302.54 93.59 304.49 91.29L304.49 91.29L306.22 92.66Q304.34 96.54 300.85 98.81Q297.36 101.08 292.39 101.08L292.39 101.08Q288.72 101.08 285.77 99.86Q282.82 98.63 280.73 96.29Q278.64 93.95 277.49 90.64Q276.34 87.33 276.34 83.22L276.34 83.22Q276.34 79.12 277.63 75.70Q278.93 72.28 281.20 69.83Q283.46 67.38 286.49 66.02Q289.51 64.65 292.90 64.65L292.90 64.65Q295.70 64.65 298.19 65.58Q300.67 66.52 302.47 68.32Q304.27 70.12 305.32 72.71Q306.36 75.30 306.36 78.54L306.36 78.54Q306.36 79.77 306.22 80.78Q306.07 81.78 305.86 82.58L305.86 82.58ZM323.28 65.37L324.07 73.79Q325.94 69.47 328.72 67.06Q331.49 64.65 334.44 64.65L334.44 64.65Q336.02 64.65 337.50 65.48Q338.98 66.30 339.34 68.18L339.34 68.18Q339.34 69.98 338.11 71.02Q336.89 72.06 335.02 72.06L335.02 72.06Q332.78 72.06 330.91 70.26L330.91 70.26L330.41 69.76Q328.18 71.42 326.66 73.68Q325.15 75.95 324.14 79.19L324.14 79.19L324.14 84.88Q324.14 87.26 324.18 90.42Q324.22 93.59 324.29 96.33L324.29 96.33L330.19 97.41L330.19 100L312.77 100L312.77 97.41L317.95 96.47Q318.02 93.74 318.06 90.53Q318.10 87.33 318.10 84.88L318.10 84.88L318.10 81.21Q318.10 78.26 318.02 76.31Q317.95 74.37 317.88 72.21L317.88 72.21L312.19 71.56L312.19 69.04L322.20 64.65L323.28 65.37ZM351.14 56.94L351.14 56.94Q349.06 56.94 347.69 55.65Q346.32 54.35 346.32 52.26L346.32 52.26Q346.32 50.18 347.69 48.92Q349.06 47.66 351.14 47.66L351.14 47.66Q353.23 47.66 354.60 48.92Q355.97 50.18 355.97 52.26L355.97 52.26Q355.97 54.35 354.60 55.65Q353.23 56.94 351.14 56.94ZM354.38 96.40L359.35 97.41L359.35 100L342.65 100L342.65 97.41L348.05 96.40Q348.12 93.66 348.16 90.46Q348.19 87.26 348.19 84.88L348.19 84.88L348.19 81.28Q348.19 78.33 348.12 76.35Q348.05 74.37 347.98 72.21L347.98 72.21L342.29 71.56L342.29 69.04L353.38 64.65L354.46 65.37L354.24 75.16L354.24 84.88Q354.24 87.26 354.28 90.46Q354.31 93.66 354.38 96.40L354.38 96.40ZM364.10 66.59L370.08 65.80Q370.37 62.92 370.76 60.62Q371.16 58.31 371.74 56.48Q372.31 54.64 373.18 53.16Q374.04 51.69 375.19 50.46L375.19 50.46Q377.50 47.94 380.16 47.01Q382.82 46.07 385.27 46.07L385.27 46.07Q387.86 46.07 389.77 46.94Q391.68 47.80 392.26 49.89L392.26 49.89Q392.11 51.33 390.96 52.26Q389.81 53.20 387.86 53.20L387.86 53.20Q386.50 53.20 385.27 52.62Q384.05 52.05 382.68 50.97L382.68 50.97L380.88 49.53Q379.44 50.61 378.43 52.41L378.43 52.41Q377.28 54.28 376.56 57.52Q375.84 60.76 375.98 65.94L375.98 65.94L385.85 65.94L385.85 69.76L376.13 69.76L376.13 84.88Q376.13 87.76 376.16 90.60Q376.20 93.45 376.27 96.33L376.27 96.33L382.68 97.41L382.68 100L364.18 100L364.18 97.41L369.86 96.40Q369.94 93.52 369.97 90.64Q370.01 87.76 370.01 84.88L370.01 84.88L370.01 69.76L364.10 69.76L364.10 66.59ZM425.09 55.22L420.70 55.22Q420.55 59.90 420.55 64.61Q420.55 69.33 420.55 74.15L420.55 74.15L420.55 77.61L424.01 77.61Q427.68 77.61 430.24 76.78Q432.79 75.95 434.41 74.44Q436.03 72.93 436.79 70.84Q437.54 68.75 437.54 66.16L437.54 66.16Q437.54 60.98 434.59 58.10Q431.64 55.22 425.09 55.22L425.09 55.22ZM422.93 80.99L420.55 80.99Q420.55 84.81 420.55 88.59Q420.55 92.37 420.70 96.26L420.70 96.26L427.39 97.05L427.39 100L407.02 100L407.02 97.05L413.64 96.26Q413.78 91.72 413.78 87.08Q413.78 82.43 413.78 77.68L413.78 77.68L413.78 74.15Q413.78 69.47 413.78 64.86Q413.78 60.26 413.64 55.58L413.64 55.58L407.02 54.78L407.02 51.83L426.38 51.83Q430.92 51.83 434.38 52.88Q437.83 53.92 440.10 55.83Q442.37 57.74 443.52 60.36Q444.67 62.99 444.67 66.16L444.67 66.16Q444.67 69.18 443.48 71.85Q442.30 74.51 439.70 76.56Q437.11 78.62 432.97 79.80Q428.83 80.99 422.93 80.99L422.93 80.99ZM459.14 65.37L459.94 73.79Q461.81 69.47 464.58 67.06Q467.35 64.65 470.30 64.65L470.30 64.65Q471.89 64.65 473.36 65.48Q474.84 66.30 475.20 68.18L475.20 68.18Q475.20 69.98 473.98 71.02Q472.75 72.06 470.88 72.06L470.88 72.06Q468.65 72.06 466.78 70.26L466.78 70.26L466.27 69.76Q464.04 71.42 462.53 73.68Q461.02 75.95 460.01 79.19L460.01 79.19L460.01 84.88Q460.01 87.26 460.04 90.42Q460.08 93.59 460.15 96.33L460.15 96.33L466.06 97.41L466.06 100L448.63 100L448.63 97.41L453.82 96.47Q453.89 93.74 453.92 90.53Q453.96 87.33 453.96 84.88L453.96 84.88L453.96 81.21Q453.96 78.26 453.89 76.31Q453.82 74.37 453.74 72.21L453.74 72.21L448.06 71.56L448.06 69.04L458.06 64.65L459.14 65.37ZM495.00 67.96L495.00 67.96Q490.25 67.96 487.73 71.81Q485.21 75.66 485.21 83.01L485.21 83.01Q485.21 90.28 487.73 94.06Q490.25 97.84 495.00 97.84L495.00 97.84Q499.68 97.84 502.20 94.06Q504.72 90.28 504.72 83.01L504.72 83.01Q504.72 75.66 502.20 71.81Q499.68 67.96 495.00 67.96ZM495.00 64.65L495.00 64.65Q498.10 64.65 501.08 65.84Q504.07 67.02 506.38 69.36Q508.68 71.70 510.12 75.12Q511.56 78.54 511.56 83.01L511.56 83.01Q511.56 87.47 510.16 90.86Q508.75 94.24 506.41 96.51Q504.07 98.78 501.08 99.93Q498.10 101.08 495.00 101.08L495.00 101.08Q491.83 101.08 488.84 99.93Q485.86 98.78 483.55 96.51Q481.25 94.24 479.84 90.86Q478.44 87.47 478.44 83.01L478.44 83.01Q478.44 78.54 479.84 75.12Q481.25 71.70 483.59 69.36Q485.93 67.02 488.88 65.84Q491.83 64.65 495.00 64.65ZM545.11 65.37L545.90 73.79Q547.78 69.47 550.55 67.06Q553.32 64.65 556.27 64.65L556.27 64.65Q557.86 64.65 559.33 65.48Q560.81 66.30 561.17 68.18L561.17 68.18Q561.17 69.98 559.94 71.02Q558.72 72.06 556.85 72.06L556.85 72.06Q554.62 72.06 552.74 70.26L552.74 70.26L552.24 69.76Q550.01 71.42 548.50 73.68Q546.98 75.95 545.98 79.19L545.98 79.19L545.98 84.88Q545.98 87.26 546.01 90.42Q546.05 93.59 546.12 96.33L546.12 96.33L552.02 97.41L552.02 100L534.60 100L534.60 97.41L539.78 96.47Q539.86 93.74 539.89 90.53Q539.93 87.33 539.93 84.88L539.93 84.88L539.93 81.21Q539.93 78.26 539.86 76.31Q539.78 74.37 539.71 72.21L539.71 72.21L534.02 71.56L534.02 69.04L544.03 64.65L545.11 65.37ZM571.18 79.48L584.28 79.48Q586.87 79.48 587.74 78.40Q588.60 77.32 588.60 75.74L588.60 75.74Q588.60 74.22 587.99 72.82Q587.38 71.42 586.33 70.34Q585.29 69.26 583.88 68.61Q582.48 67.96 580.82 67.96L580.82 67.96Q579.31 67.96 577.69 68.57Q576.07 69.18 574.74 70.59Q573.41 71.99 572.44 74.19Q571.46 76.38 571.18 79.48L571.18 79.48ZM594.07 82.58L571.03 82.58Q571.18 89.27 574.34 92.87Q577.51 96.47 582.70 96.47L582.70 96.47Q586.15 96.47 588.46 95.03Q590.76 93.59 592.70 91.29L592.70 91.29L594.43 92.66Q592.56 96.54 589.07 98.81Q585.58 101.08 580.61 101.08L580.61 101.08Q576.94 101.08 573.98 99.86Q571.03 98.63 568.94 96.29Q566.86 93.95 565.70 90.64Q564.55 87.33 564.55 83.22L564.55 83.22Q564.55 79.12 565.85 75.70Q567.14 72.28 569.41 69.83Q571.68 67.38 574.70 66.02Q577.73 64.65 581.11 64.65L581.11 64.65Q583.92 64.65 586.40 65.58Q588.89 66.52 590.69 68.32Q592.49 70.12 593.53 72.71Q594.58 75.30 594.58 78.54L594.58 78.54Q594.58 79.77 594.43 80.78Q594.29 81.78 594.07 82.58L594.07 82.58ZM614.95 85.38L614.95 85.38Q618.41 85.38 620.35 82.86Q622.30 80.34 622.30 76.31L622.30 76.31Q622.30 72.42 620.50 70.01Q618.70 67.60 615.31 67.60L615.31 67.60Q611.86 67.60 609.95 70.08Q608.04 72.57 608.04 76.53L608.04 76.53Q608.04 80.49 609.84 82.94Q611.64 85.38 614.95 85.38ZM620.64 100.07L612.65 100.07Q610.78 100.07 608.98 99.71L608.98 99.71Q607.75 101.15 607.03 102.52Q606.31 103.89 606.31 105.62L606.31 105.62Q606.31 108.86 608.90 110.33Q611.50 111.81 615.67 111.81L615.67 111.81Q621.65 111.81 624.71 109.72Q627.77 107.63 627.77 104.68L627.77 104.68Q627.77 103.82 627.44 102.99Q627.12 102.16 626.29 101.51Q625.46 100.86 624.10 100.47Q622.73 100.07 620.64 100.07L620.64 100.07ZM633.60 65.58L633.60 70.12L626.62 70.12Q628.20 72.86 628.20 76.46L628.20 76.46Q628.20 79.26 627.19 81.46Q626.18 83.66 624.46 85.17Q622.73 86.68 620.35 87.47Q617.98 88.26 615.17 88.26L615.17 88.26Q613.73 88.26 612.43 88.08Q611.14 87.90 609.91 87.54L609.91 87.54Q609.34 88.34 608.94 89.24Q608.54 90.14 608.54 91.14L608.54 91.14Q608.54 92.80 609.77 93.74Q610.99 94.67 614.16 94.67L614.16 94.67L621.65 94.67Q627.55 94.67 630.40 96.76Q633.24 98.85 633.24 102.66L633.24 102.66Q633.24 105.04 632.12 107.27Q631.01 109.50 628.74 111.23Q626.47 112.96 623.12 114.00Q619.78 115.05 615.24 115.05L615.24 115.05Q611.42 115.05 608.62 114.40Q605.81 113.75 603.97 112.64Q602.14 111.52 601.24 110.01Q600.34 108.50 600.34 106.84L600.34 106.84Q600.34 102.38 607.03 98.99L607.03 98.99Q604.94 98.06 604.04 96.58Q603.14 95.10 603.14 93.45L603.14 93.45Q603.14 91.50 604.33 89.85Q605.52 88.19 607.75 86.61L607.75 86.61Q605.23 85.17 603.72 82.65Q602.21 80.13 602.21 76.46L602.21 76.46Q602.21 73.65 603.22 71.45Q604.22 69.26 605.95 67.74Q607.68 66.23 610.06 65.44Q612.43 64.65 615.24 64.65L615.24 64.65Q620.93 64.65 624.46 67.60L624.46 67.60L632.52 64.86L633.60 65.58ZM669.82 96.33L674.78 97.41L674.78 100L664.78 100.72L663.98 94.31Q661.03 97.91 657.79 99.50Q654.55 101.08 651.24 101.08L651.24 101.08Q649.08 101.08 647.32 100.40Q645.55 99.71 644.33 98.16Q643.10 96.62 642.49 94.17Q641.88 91.72 641.88 88.12L641.88 88.12L642.10 69.98L636.98 68.90L636.98 66.38L647.57 65.37L648.29 66.09L647.93 76.17L647.93 87.33Q647.93 92.15 649.33 94.06Q650.74 95.97 653.69 95.97L653.69 95.97Q658.73 95.97 663.77 91.29L663.77 91.29L663.98 69.98L658.87 68.90L658.87 66.38L669.31 65.37L670.03 66.09L669.82 76.17L669.82 96.33ZM691.13 96.40L696.82 97.41L696.82 100L679.10 100L679.10 97.41L684.79 96.40Q684.86 93.45 684.90 90.60Q684.94 87.76 684.94 84.88L684.94 84.88L684.94 53.99L679.03 53.27L679.03 50.75L690.26 47.51L691.27 48.09L690.98 58.31L690.98 84.88Q690.98 87.76 691.02 90.64Q691.06 93.52 691.13 96.40L691.13 96.40ZM721.22 92.44L721.22 81.35Q719.35 81.86 717.59 82.43Q715.82 83.01 714.67 83.44L714.67 83.44Q712.30 84.38 710.89 85.35Q709.49 86.32 708.77 87.26Q708.05 88.19 707.83 89.13Q707.62 90.06 707.62 90.86L707.62 90.86Q707.62 92.30 708.01 93.16Q708.41 94.02 708.98 94.67L708.98 94.67Q710.64 96.33 713.38 96.33L713.38 96.33Q714.24 96.33 715.03 96.15Q715.82 95.97 716.69 95.50Q717.55 95.03 718.63 94.28Q719.71 93.52 721.22 92.44L721.22 92.44ZM732.74 95.32L734.18 96.90Q732.96 99.21 731.52 99.96Q730.08 100.72 728.35 100.72L728.35 100.72Q725.33 100.72 723.60 99.24Q721.87 97.77 721.37 95.32L721.37 95.32Q719.93 96.76 718.70 97.84Q717.48 98.92 716.26 99.64Q715.03 100.36 713.74 100.72Q712.44 101.08 710.86 101.08L710.86 101.08Q708.91 101.08 707.15 100.50Q705.38 99.93 704.05 98.78Q702.72 97.62 701.96 95.93Q701.21 94.24 701.21 92.01L701.21 92.01Q701.21 90.50 701.71 89.06Q702.22 87.62 703.51 86.28Q704.81 84.95 707.15 83.62Q709.49 82.29 713.16 80.99L713.16 80.99Q714.82 80.42 716.94 79.80Q719.06 79.19 721.22 78.62L721.22 78.62L721.22 76.67Q721.22 74.08 720.83 72.39Q720.43 70.70 719.64 69.72Q718.85 68.75 717.59 68.36Q716.33 67.96 714.53 67.96L714.53 67.96Q713.74 67.96 712.84 68.03Q711.94 68.10 710.86 68.32L710.86 68.32L709.42 73.36Q708.41 76.82 705.53 76.82L705.53 76.82Q704.02 76.82 703.15 75.99Q702.29 75.16 702.14 73.72L702.14 73.72Q703.15 69.62 706.90 67.13Q710.64 64.65 716.18 64.65L716.18 64.65Q721.87 64.65 724.61 67.53Q727.34 70.41 727.34 77.32L727.34 77.32L727.34 92.73Q727.34 96.98 729.72 96.98L729.72 96.98Q730.58 96.98 731.23 96.58Q731.88 96.18 732.38 95.75L732.38 95.75L732.74 95.32ZM747.86 65.37L748.66 73.79Q750.53 69.47 753.30 67.06Q756.07 64.65 759.02 64.65L759.02 64.65Q760.61 64.65 762.08 65.48Q763.56 66.30 763.92 68.18L763.92 68.18Q763.92 69.98 762.70 71.02Q761.47 72.06 759.60 72.06L759.60 72.06Q757.37 72.06 755.50 70.26L755.50 70.26L754.99 69.76Q752.76 71.42 751.25 73.68Q749.74 75.95 748.73 79.19L748.73 79.19L748.73 84.88Q748.73 87.26 748.76 90.42Q748.80 93.59 748.87 96.33L748.87 96.33L754.78 97.41L754.78 100L737.35 100L737.35 97.41L742.54 96.47Q742.61 93.74 742.64 90.53Q742.68 87.33 742.68 84.88L742.68 84.88L742.68 81.21Q742.68 78.26 742.61 76.31Q742.54 74.37 742.46 72.21L742.46 72.21L736.78 71.56L736.78 69.04L746.78 64.65L747.86 65.37Z"/></svg>