<svg xmlns="http://www.w3.org/2000/svg" viewBox="0.36000000000000004 48.37599999999999 814.392 52.488000000000014"><path d="M17 101L17 101Q13 101 8 99Q4 97 0 92L0 92L7 87Q9 89 12 91Q15 92 18 92L18 92Q21 92 23 91Q25 90 25 87L25 87Q25 85 23 84Q22 83 19 81L19 81L15 78Q11 76 10 74Q8 71 8 67L8 67Q8 64 9 61Q10 58 12 56Q15 54 18 53Q21 52 24 52L24 52Q28 52 32 54Q36 56 38 59L38 59L32 65Q30 63 28 62Q26 61 24 61L24 61Q21 61 19 62Q18 64 18 66L18 66Q18 68 19 69Q21 70 24 72L24 72L28 74Q32 77 33 79Q35 81 35 86L35 86Q35 89 34 92Q32 94 30 96Q28 98 24 100Q21 101 17 101ZM54 101L54 101Q51 101 48 100Q46 99 44 97Q42 95 41 92Q40 89 40 86L40 86Q40 81 42 77Q44 73 47 70Q49 67 53 65Q57 63 60 63L60 63Q63 63 66 64Q68 66 70 67Q72 69 73 72Q74 75 74 78L74 78Q74 83 72 88Q71 92 68 95Q65 98 61 99Q58 101 54 101ZM55 93L55 93Q57 93 59 92Q60 91 61 89Q63 87 63 84Q64 81 64 78L64 78Q64 75 63 73Q62 71 59 71L59 71Q57 71 56 72Q54 74 53 76Q52 77 51 80Q50 83 50 86L50 86Q50 89 51 91Q53 93 55 93ZM105 64L115 64L107 100L100 100L100 95L99 95Q97 97 94 99Q91 101 88 101L88 101Q83 101 81 99Q79 96 79 92L79 92Q79 90 79 89Q80 88 80 87L80 87L84 64L94 64L90 85Q90 86 89 87Q89 88 89 89L89 89Q89 92 93 92L93 92Q96 92 100 88L100 88L105 64ZM127 100L117 100L124 64L132 64L131 71L132 71Q134 68 137 66Q139 63 143 63L143 63Q144 63 145 64Q146 64 146 64L146 64L143 73Q142 72 141 72Q140 72 140 72L140 72Q137 72 135 74Q133 76 131 79L131 79L127 100ZM159 101L159 101Q156 101 153 100Q151 99 149 97Q147 95 146 92Q145 90 145 86L145 86Q145 82 146 77Q148 73 151 70Q154 67 158 65Q161 63 166 63L166 63Q169 63 172 65Q174 66 175 68L175 68L170 74Q169 72 168 72Q167 71 165 71L165 71Q163 71 161 72Q159 74 158 76Q156 78 156 80Q155 83 155 86L155 86Q155 89 156 91Q158 93 161 93L161 93Q163 93 164 92Q165 92 167 91L167 91L171 97Q169 98 166 100Q163 101 159 101ZM176 86L176 86Q176 81 177 77Q179 72 182 70Q185 67 188 65Q192 63 195 63L195 63Q199 63 201 64Q203 66 204 67Q206 69 206 72Q207 74 207 77L207 77Q207 78 207 79Q207 81 206 82Q206 83 206 84Q205 85 205 85L205 85L185 85Q185 89 187 91Q189 93 193 93L193 93Q195 93 196 93Q198 92 200 91L200 91L203 97Q201 99 198 100Q194 101 190 101L190 101Q187 101 184 100Q182 99 180 97Q178 95 177 92Q176 89 176 86ZM186 79L186 79L199 79Q199 78 199 76L199 76Q199 74 198 73Q197 71 194 71L194 71Q192 71 189 73Q187 75 186 79ZM241 101L241 101Q236 101 232 99Q227 97 224 92L224 92L231 87Q233 89 235 91Q238 92 241 92L241 92Q244 92 246 91Q248 90 248 87L248 87Q248 85 247 84Q245 83 243 81L243 81L238 78Q235 76 233 74Q231 71 231 67L231 67Q231 64 232 61Q234 58 236 56Q238 54 241 53Q244 52 248 52L248 52Q252 52 255 54Q259 56 262 59L262 59L256 65Q254 63 252 62Q250 61 247 61L247 61Q244 61 243 62Q241 64 241 66L241 66Q241 68 243 69Q244 70 247 72L247 72L252 74Q255 77 257 79Q258 81 258 86L258 86Q258 89 257 92Q256 94 253 96Q251 98 248 100Q245 101 241 101ZM274 101L274 101Q269 101 266 97Q264 94 264 88L264 88Q264 83 265 78Q267 74 270 70Q272 67 276 65Q279 63 283 63L283 63Q285 63 287 65Q290 66 291 68L291 68L291 68L292 64L300 64L293 100L285 100L285 95L285 95Q283 98 280 99Q277 101 274 101ZM278 93L278 93Q280 93 282 92Q284 91 286 88L286 88L288 75Q287 73 286 72Q285 71 284 71L284 71Q282 71 280 73Q278 74 277 76Q276 78 275 81Q274 83 274 87L274 87Q274 90 275 91Q276 93 278 93ZM312 100L302 100L309 64L317 64L317 69L317 69Q320 67 323 65Q326 63 329 63L329 63Q334 63 336 66Q338 68 338 73L338 73Q338 74 338 75Q338 76 337 78L337 78L333 100L323 100L327 79Q328 78 328 77Q328 76 328 76L328 76Q328 72 324 72L324 72Q323 72 321 73Q319 74 317 76L317 76L312 100ZM353 101L353 101Q352 101 350 100Q348 100 346 99Q345 98 343 97Q341 96 340 94L340 94L346 89Q350 94 354 94L354 94Q356 94 357 93Q359 92 359 90L359 90Q359 89 357 88Q356 87 353 85L353 85Q350 83 348 81Q345 78 345 75L345 75Q345 73 347 70Q348 68 349 67Q351 65 354 64Q356 63 359 63L359 63Q363 63 366 65Q369 67 371 69L371 69L366 74Q364 73 363 72Q361 71 359 71L359 71Q357 71 356 72Q355 73 355 74L355 74Q355 75 355 76Q356 76 357 77Q357 77 358 78Q359 78 361 79L361 79Q364 81 366 83Q368 85 368 89L368 89Q368 92 367 94Q366 96 364 98Q362 99 359 100Q356 101 353 101ZM398 100L388 100L397 53L412 53Q416 53 418 54Q421 54 424 56Q426 57 427 60Q428 62 428 66L428 66Q428 70 426 74Q425 77 422 80Q419 82 415 83Q411 84 406 84L406 84L401 84L398 100ZM405 61L403 76L408 76Q413 76 416 74Q418 71 418 67L418 67Q418 64 416 62Q414 61 410 61L410 61L405 61ZM439 100L429 100L436 64L444 64L443 71L444 71Q446 68 449 66Q452 63 455 63L455 63Q456 63 457 64Q458 64 458 64L458 64L455 73Q454 72 453 72Q452 72 452 72L452 72Q449 72 447 74Q445 76 443 79L443 79L439 100ZM471 101L471 101Q467 101 465 100Q462 99 461 97Q459 95 458 92Q457 89 457 86L457 86Q457 81 459 77Q460 73 463 70Q466 67 470 65Q473 63 477 63L477 63Q480 63 483 64Q485 66 487 67Q489 69 490 72Q491 75 491 78L491 78Q491 83 489 88Q487 92 484 95Q482 98 478 99Q474 101 471 101ZM472 93L472 93Q474 93 475 92Q477 91 478 89Q479 87 480 84Q481 81 481 78L481 78Q481 75 479 73Q478 71 476 71L476 71Q474 71 472 72Q471 74 469 76Q468 77 467 80Q467 83 467 86L467 86Q467 89 468 91Q469 93 472 93ZM518 96L516 100L508 100L518 50L528 50L526 61L524 68L524 68Q527 66 529 65Q532 63 535 63L535 63Q539 63 542 67Q545 70 545 77L545 77Q545 82 543 86Q542 90 539 94Q536 97 533 99Q529 101 526 101L526 101Q523 101 521 100Q519 98 518 96L518 96L518 96ZM530 71L530 71Q529 71 527 72Q525 73 523 76L523 76L520 89Q521 91 522 92Q524 93 525 93L525 93Q527 93 529 92Q530 90 532 88Q533 86 534 84Q535 81 535 78L535 78Q535 75 533 73Q532 71 530 71ZM563 101L563 101Q560 101 557 100Q555 99 553 97Q551 95 550 92Q549 89 549 86L549 86Q549 81 551 77Q553 73 556 70Q558 67 562 65Q566 63 569 63L569 63Q572 63 575 64Q578 66 579 67Q581 69 582 72Q583 75 583 78L583 78Q583 83 581 88Q580 92 577 95Q574 98 570 99Q567 101 563 101ZM564 93L564 93Q566 93 568 92Q569 91 570 89Q572 87 572 84Q573 81 573 78L573 78Q573 75 572 73Q571 71 568 71L568 71Q566 71 565 72Q563 74 562 76Q561 77 560 80Q559 83 559 86L559 86Q559 89 560 91Q562 93 564 93ZM595 101L595 101Q591 101 590 99Q588 97 588 94L588 94Q588 92 589 89L589 89L597 50L607 50L598 90Q598 90 598 91Q598 91 598 91L598 91Q598 92 599 93Q599 93 600 93L600 93Q600 93 600 93Q600 93 601 93L601 93L601 100Q600 100 598 101Q597 101 595 101ZM634 68L634 68L635 61L637 50L647 50L637 100L629 100L629 95L629 95Q626 98 623 99Q620 101 618 101L618 101Q613 101 610 97Q608 94 608 88L608 88Q608 83 609 78Q611 74 613 70Q616 67 619 65Q623 63 627 63L627 63Q629 63 631 65Q633 66 634 68L634 68ZM622 93L622 93Q624 93 626 92Q628 91 630 88L630 88L632 75Q631 73 630 72Q629 71 627 71L627 71Q625 71 624 73Q622 74 621 76Q619 78 619 81Q618 83 618 87L618 87Q618 90 619 91Q620 93 622 93ZM670 100L660 100L667 64L677 64L670 100ZM674 59L674 59Q672 59 670 58Q669 57 669 54L669 54Q669 53 669 52Q669 51 670 50Q671 49 672 49Q673 48 675 48L675 48Q677 48 678 50Q680 51 680 53L680 53Q680 56 678 57Q676 59 674 59ZM693 101L693 101Q687 101 685 98Q682 96 682 91L682 91Q682 90 683 89Q683 88 683 87L683 87L686 72L681 72L683 65L688 64L691 55L699 55L698 64L706 64L704 72L696 72L693 87Q693 88 693 89Q693 89 693 90L693 90Q693 93 696 93L696 93Q697 93 698 93Q698 93 699 92L699 92L701 99Q699 100 697 100Q695 101 693 101ZM716 101L716 101Q711 101 708 97Q706 94 706 88L706 88Q706 83 707 78Q709 74 712 70Q714 67 718 65Q721 63 725 63L725 63Q727 63 729 65Q732 66 733 68L733 68L733 68L734 64L742 64L735 100L727 100L727 95L727 95Q724 98 722 99Q719 101 716 101ZM720 93L720 93Q722 93 724 92Q726 91 728 88L728 88L730 75Q729 73 728 72Q727 71 725 71L725 71Q724 71 722 73Q720 74 719 76Q717 78 717 81Q716 83 716 87L716 87Q716 90 717 91Q718 93 720 93ZM753 101L753 101Q749 101 748 99Q746 97 746 94L746 94Q746 92 746 89L746 89L754 50L764 50L756 90Q756 90 756 91Q756 91 756 91L756 91Q756 92 756 93Q757 93 757 93L757 93Q758 93 758 93Q758 93 759 93L759 93L758 100Q757 100 756 101Q755 101 753 101ZM774 100L764 100L771 64L781 64L774 100ZM778 59L778 59Q776 59 774 58Q773 57 773 54L773 54Q773 53 773 52Q774 51 774 50Q775 49 776 49Q777 48 779 48L779 48Q781 48 782 50Q784 51 784 53L784 53Q784 56 782 57Q781 59 778 59ZM798 101L798 101Q795 101 793 100Q790 99 788 97Q786 95 785 92Q784 90 784 86L784 86Q784 82 786 77Q787 73 790 70Q793 67 797 65Q801 63 805 63L805 63Q809 63 811 65Q813 66 815 68L815 68L809 74Q808 72 807 72Q806 71 805 71L805 71Q802 71 800 72Q799 74 797 76Q796 78 795 80Q794 83 794 86L794 86Q794 89 796 91Q797 93 800 93L800 93Q802 93 803 92Q805 92 806 91L806 91L810 97Q808 98 805 100Q802 101 798 101Z"/></svg>