<svg xmlns="http://www.w3.org/2000/svg" viewBox="0.36000000000000004 51.831999999999994 261.4320000000001 58.10400000000001"><path d="M0 55L22 55L22 60L14 60L14 100L8 100L8 60L0 60L0 55ZM32 65L32 65L39 65Q46 65 46 71L46 71L46 84L32 84L32 93Q32 94 32 94Q33 95 34 95L34 95L37 95Q38 95 39 94Q39 94 39 93L39 93L39 90L46 90L46 94Q46 100 39 100L39 100L32 100Q25 100 25 94L25 94L25 71Q25 65 32 65ZM32 72L32 80L39 80L39 72Q39 71 39 70Q39 70 37 70L37 70L34 70Q33 70 32 70Q32 71 32 72L32 72ZM67 65L74 65L66 82L74 100L67 100L59 82L67 65ZM58 100L51 100L51 52L58 52L58 100ZM83 65L83 65L91 65Q98 65 98 71L98 71L98 94Q98 100 91 100L91 100L83 100Q77 100 77 94L77 94L77 71Q77 65 83 65ZM91 93L91 93L91 72Q91 71 91 70Q91 70 89 70L89 70L85 70Q84 70 84 70Q83 71 83 72L83 72L83 93Q83 94 84 94Q84 95 85 95L85 95L89 95Q91 95 91 94Q91 94 91 93ZM126 65L126 65L128 65L128 70L125 70Q121 70 121 76L121 76L121 100L114 100L114 65L121 65L121 69Q121 67 123 66Q124 65 126 65ZM138 65L138 65L145 65Q152 65 152 71L152 71L152 84L138 84L138 93Q138 94 138 94Q138 95 140 95L140 95L143 95Q144 95 145 94Q145 94 145 93L145 93L145 90L151 90L151 94Q151 100 145 100L145 100L138 100Q131 100 131 94L131 94L131 71Q131 65 138 65ZM138 72L138 80L145 80L145 72Q145 71 145 70Q145 70 143 70L143 70L140 70Q138 70 138 70Q138 71 138 72L138 72ZM170 68L170 65L177 65L177 104Q177 110 170 110L170 110L158 110L158 105L168 105Q169 105 170 104Q170 104 170 103L170 103L170 97Q169 100 166 100L166 100L163 100Q157 100 157 93L157 93L157 71Q157 65 163 65L163 65L166 65Q169 65 170 68L170 68ZM165 94L165 94L168 94Q169 94 170 94Q170 93 170 92L170 92L170 73Q170 71 170 71Q169 70 168 70L168 70L165 70Q164 70 164 71Q163 71 163 72L163 72L163 92Q163 93 164 94Q164 94 165 94ZM197 92L197 65L203 65L203 100L197 100L197 97Q196 100 192 100L192 100L190 100Q183 100 183 94L183 94L183 65L190 65L190 93Q190 94 190 94Q190 95 192 95L192 95L194 95Q196 95 196 94Q197 94 197 92L197 92ZM216 52L216 100L209 100L209 52L216 52ZM235 68L235 65L242 65L242 100L235 100L235 97Q234 100 231 100L231 100L228 100Q222 100 222 94L222 94L222 71Q222 65 228 65L228 65L231 65Q234 65 235 68L235 68ZM230 95L230 95L233 95Q234 95 235 94Q235 94 235 92L235 92L235 73Q235 71 235 71Q234 70 233 70L233 70L230 70Q229 70 229 71Q228 71 228 72L228 72L228 93Q228 94 229 94Q229 95 230 95ZM260 65L260 65L262 65L262 70L259 70Q255 70 255 76L255 76L255 100L248 100L248 65L255 65L255 69Q255 67 257 66Q258 65 260 65Z"/></svg>