<svg xmlns="http://www.w3.org/2000/svg" viewBox="0.05 -6.69 14.879999999999999 6.69"><path d="M0.05-6.31L3.41-6.31L3.41-5.43L2.30-5.43L2.30 0L1.15 0L1.15-5.43L0.05-5.43L0.05-6.31ZM4.93-4.91L4.93-4.91L5.99-4.91Q7.07-4.91 7.07-3.92L7.07-3.92L7.07-2.13L4.94-2.13L4.94-1.12Q4.94-0.96 5.00-0.91Q5.05-0.85 5.22-0.85L5.22-0.85L5.68-0.85Q5.84-0.85 5.90-0.91Q5.96-0.96 5.96-1.12L5.96-1.12L5.96-1.49L7.06-1.49L7.06-0.99Q7.06 0 5.97 0L5.97 0L4.93 0Q3.84 0 3.84-0.99L3.84-0.99L3.84-3.92Q3.84-4.91 4.93-4.91ZM4.94-3.80L4.94-2.86L5.98-2.86L5.98-3.80Q5.98-3.96 5.92-4.01Q5.86-4.07 5.70-4.07L5.70-4.07L5.22-4.07Q5.06-4.07 5-4.01Q4.94-3.96 4.94-3.80L4.94-3.80ZM10.10-4.91L11.28-4.91L10.18-2.55L11.28 0L10.09 0L9.03-2.55L10.10-4.91ZM8.94 0L7.81 0L7.81-6.69L8.94-6.69L8.94 0ZM12.74-4.91L12.74-4.91L13.87-4.91Q14.93-4.91 14.93-3.92L14.93-3.92L14.93-0.99Q14.93 0 13.87 0L13.87 0L12.74 0Q11.67 0 11.67-0.99L11.67-0.99L11.67-3.92Q11.67-4.91 12.74-4.91ZM13.82-1.12L13.82-1.12L13.82-3.79Q13.82-3.95 13.76-4.00Q13.70-4.06 13.53-4.06L13.53-4.06L13.07-4.06Q12.90-4.06 12.84-4.00Q12.78-3.95 12.78-3.79L12.78-3.79L12.78-1.12Q12.78-0.96 12.84-0.91Q12.90-0.85 13.07-0.85L13.07-0.85L13.53-0.85Q13.70-0.85 13.76-0.91Q13.82-0.96 13.82-1.12Z"/></svg>