<svg xmlns="http://www.w3.org/2000/svg" viewBox="0.36000000000000004 51.831999999999994 266.616 48.168000000000006"><path d="M0.36 53.78L30.74 53.78L30.74 62.78L21.82 62.78L21.82 100L9.22 100L9.22 62.78L0.36 62.78L0.36 53.78ZM43.85 64.07L43.85 64.07L52.63 64.07Q63.22 64.07 63.22 73L63.22 73L63.22 85.24L44.86 85.24L44.86 89.99Q44.86 91.58 46.66 91.58L46.66 91.58L49.82 91.58Q51.62 91.58 51.62 89.85L51.62 89.85L51.62 87.83L63.22 87.83L63.22 91.07Q63.22 100 52.63 100L52.63 100L43.85 100Q33.26 100 33.26 91.07L33.26 91.07L33.26 73Q33.26 64.07 43.85 64.07ZM44.86 74.08L44.86 78.62L51.62 78.62L51.62 74.08Q51.62 72.50 49.82 72.50L49.82 72.50L46.66 72.50Q44.86 72.50 44.86 74.08L44.86 74.08ZM80.14 83.22L80.14 100L67.90 100L67.90 51.83L80.14 51.83L80.14 80.42L86.90 64.07L99.58 64.07L91.87 81.78L99.58 100L86.83 100L80.14 83.22ZM111.96 64.07L111.96 64.07L121.10 64.07Q126.58 64.07 128.95 66.38Q131.33 68.68 131.33 73L131.33 73L131.33 91.07Q131.33 95.39 128.95 97.70Q126.58 100 121.10 100L121.10 100L111.96 100Q106.49 100 104.11 97.70Q101.74 95.39 101.74 91.07L101.74 91.07L101.74 73Q101.74 68.68 104.11 66.38Q106.49 64.07 111.96 64.07ZM119.30 89.92L119.30 89.92L119.30 74.15Q119.30 72.57 117.50 72.57L117.50 72.57L115.56 72.57Q113.76 72.57 113.76 74.15L113.76 74.15L113.76 89.92Q113.76 91.50 115.56 91.50L115.56 91.50L117.50 91.50Q119.30 91.50 119.30 89.92ZM169.70 64.07L169.70 64.07L171.00 64.07Q180.58 64.07 180.58 73L180.58 73L180.58 91.07Q180.58 100 171.00 100L171.00 100L169.70 100Q164.16 100 163.15 95.39L163.15 95.39L163.15 100L151.13 100L151.13 51.83L163.37 51.83L163.37 67.96Q164.74 64.07 169.70 64.07ZM168.34 89.42L168.34 89.42L168.34 74.66Q168.34 73.07 166.54 73.07L166.54 73.07L165.31 73.07Q163.37 73.07 163.37 75.23L163.37 75.23L163.37 88.84Q163.37 91 165.31 91L165.31 91L166.54 91Q168.34 91 168.34 89.42ZM195.48 64.07L195.48 64.07L204.62 64.07Q210.10 64.07 212.47 66.38Q214.85 68.68 214.85 73L214.85 73L214.85 91.07Q214.85 95.39 212.47 97.70Q210.10 100 204.62 100L204.62 100L195.48 100Q190.01 100 187.63 97.70Q185.26 95.39 185.26 91.07L185.26 91.07L185.26 73Q185.26 68.68 187.63 66.38Q190.01 64.07 195.48 64.07ZM202.82 89.92L202.82 89.92L202.82 74.15Q202.82 72.57 201.02 72.57L201.02 72.57L199.08 72.57Q197.28 72.57 197.28 74.15L197.28 74.15L197.28 89.92Q197.28 91.50 199.08 91.50L199.08 91.50L201.02 91.50Q202.82 91.50 202.82 89.92ZM232.49 51.83L232.49 100L220.25 100L220.25 51.83L232.49 51.83ZM254.74 67.96L254.74 51.83L266.98 51.83L266.98 100L254.95 100L254.95 95.39Q253.94 100 248.40 100L248.40 100L247.10 100Q237.53 100 237.53 91.07L237.53 91.07L237.53 73Q237.53 64.07 247.10 64.07L247.10 64.07L248.40 64.07Q253.37 64.07 254.74 67.96L254.74 67.96ZM251.57 91L251.57 91L252.79 91Q254.74 91 254.74 88.84L254.74 88.84L254.74 75.23Q254.74 73.07 252.79 73.07L252.79 73.07L251.57 73.07Q249.77 73.07 249.77 74.66L249.77 74.66L249.77 89.42Q249.77 91 251.57 91Z"/></svg>