<svg xmlns="http://www.w3.org/2000/svg" viewBox="0.09 -6.9 59.39 7.03"><path d="M1.47-4.81L0.09-4.81L0.09-6.70L5.09-6.70L5.09-4.81L3.79-4.81L3.79 0L1.47 0L1.47-4.81ZM7.71 0L5.47 0L5.47-5.05L7.71-5.05L7.71 0ZM7.72-5.37L5.46-5.37L5.46-6.90L7.72-6.90L7.72-5.37ZM11.53-3.24L10.72-3.24L10.72-2.20Q10.72-1.95 10.79-1.86Q10.85-1.78 11.05-1.78L11.05-1.78L11.50-1.79L11.53-0.05Q10.67 0.13 10.21 0.13L10.21 0.13Q9.28 0.13 8.88-0.26Q8.48-0.64 8.48-1.68L8.48-1.68L8.48-3.24L8.09-3.24L8.09-5.05L8.48-5.05L8.48-6.05L10.72-6.05L10.72-5.05L11.53-5.05L11.53-3.24ZM14.22 0L11.98 0L11.98-5.05L14.22-5.05L14.22 0ZM14.23-5.37L11.97-5.37L11.97-6.90L14.23-6.90L14.23-5.37ZM17.02 0L14.78 0L14.78-6.90L17.02-6.90L17.02 0ZM19.82 0L17.58 0L17.58-6.90L19.82-6.90L19.82 0ZM22.62 0L20.38 0L20.38-5.05L22.62-5.05L22.62 0ZM22.63-5.37L20.37-5.37L20.37-6.90L22.63-6.90L22.63-5.37ZM26.15-1.86L26.15-5.05L28.39-5.05L28.39 0L26.17 0L26.17-0.24Q25.53 0.13 25.03 0.13L25.03 0.13Q23.97 0.13 23.55-0.48Q23.13-1.10 23.13-2.44L23.13-2.44L23.13-5.05L25.37-5.05L25.37-2.59Q25.37-2.14 25.45-1.97Q25.53-1.80 25.71-1.80L25.71-1.80L26.15-1.86ZM31.19-3.20L31.19 0L28.95 0L28.95-5.05L31.18-5.05L31.18-4.79Q31.84-5.18 32.48-5.18Q33.11-5.18 33.52-4.73L33.52-4.73Q34.23-5.18 35.02-5.18L35.02-5.18Q36.19-5.18 36.62-4.55Q37.05-3.93 37.05-2.55L37.05-2.55L37.05 0L34.81 0L34.81-2.28Q34.81-3.25 34.48-3.25L34.48-3.25L34.05-3.19Q34.12-2.98 34.12-2.32L34.12-2.32L34.12 0L31.88 0L31.88-2.28Q31.88-3.25 31.56-3.25L31.56-3.25L31.19-3.20ZM43.59 0L40.28 0L39.49-6.70L41.80-6.70L42.12-2.34L42.30-2.34L42.75-6.60L45.28-6.60L45.78-2.34L45.96-2.34L46.16-6.70L48.49-6.70L47.75 0L44.36 0L44.03-4.12L43.93-4.13L43.59 0ZM53.71-1.87L50.82-1.87Q50.83-1.52 51.27-1.52L51.27-1.52Q52.27-1.52 53.27-1.58L53.27-1.58L53.66-1.61L53.71-0.16Q52.38 0.13 51.06 0.13Q49.75 0.13 49.16-0.48Q48.58-1.08 48.58-2.44Q48.58-3.79 49.21-4.49Q49.84-5.18 51.17-5.18Q52.51-5.18 53.16-4.61Q53.81-4.04 53.81-2.86L53.81-2.86L53.71-1.87ZM50.81-3.09L51.57-3.09Q51.57-3.38 51.48-3.50Q51.40-3.62 51.19-3.62Q50.98-3.62 50.90-3.50Q50.82-3.38 50.81-3.09L50.81-3.09ZM57.50-5.18L57.50-5.18Q59.48-5.18 59.48-2.61L59.48-2.61Q59.48-1.07 58.89-0.47Q58.30 0.13 56.74 0.13L56.74 0.13Q56.10 0.13 54.67-0.04L54.67-0.04L54.22-0.10L54.22-6.90L56.46-6.90L56.46-5.02Q57.12-5.18 57.50-5.18ZM56.78-1.68L56.78-1.68Q57.22-1.68 57.22-2.56L57.22-2.56Q57.22-3.03 57.12-3.20Q57.02-3.37 56.78-3.37L56.78-3.37L56.46-3.30L56.46-1.71Q56.59-1.68 56.78-1.68Z"/></svg>