<svg xmlns="http://www.w3.org/2000/svg" viewBox="11.088000000000001 48.303999999999995 510.19199999999995 52.416000000000004"><path d="M24 55L11 55L12 50L44 50L43 55L30 55L20 100L14 100L24 55ZM44 100L39 100L47 64L52 64L44 100ZM54 57L48 57L50 50L55 50L54 57ZM62 93L62 93Q62 96 66 96L66 96L71 96L71 100Q67 101 64 101Q61 101 59 99Q57 97 57 94Q57 91 58 86L58 86L62 69L57 69L59 64L63 64L66 53L71 53L69 64L79 64L77 69L67 69L63 87Q62 90 62 93ZM82 100L76 100L85 64L90 64L82 100ZM92 57L86 57L88 50L93 50L92 57ZM97 100L91 100L103 48L109 48L97 100ZM112 100L107 100L119 48L124 48L112 100ZM127 100L122 100L130 64L136 64L127 100ZM137 57L132 57L134 50L139 50L137 57ZM148 101L148 101Q143 101 141 98Q139 96 139 92Q139 88 141 82L141 82L145 64L150 64L146 82Q145 87 145 91L145 91Q145 96 150 96L150 96Q152 96 154 94Q157 92 159 90L159 90L161 88L166 64L172 64L163 100L158 100L159 94Q159 95 158 96Q157 97 153 99Q150 101 148 101ZM200 73L200 73Q200 68 195 68L195 68Q193 68 190 70Q187 72 185 74L185 74L184 76L178 100L173 100L181 64L186 64L185 70Q187 68 189 66L189 66Q193 63 197 63L197 63Q201 63 203 66L203 66Q204 68 205 70L205 70Q205 69 206 68Q208 67 211 65Q214 63 217 63L217 63Q221 63 223 66Q225 68 225 72Q225 75 224 82L224 82L219 100L214 100L218 82Q220 77 220 74L220 74Q220 68 215 68L215 68Q213 68 210 70Q208 71 206 73L206 73L205 75Q205 78 204 82L204 82L199 100L194 100L198 82Q200 77 200 73ZM251 100L253 50L259 50L256 95L258 95L278 51L284 51L282 95L284 95L303 50L309 50L287 100L277 100L279 59L261 100L251 100ZM310 89Q310 93 311 94Q313 96 316 96L316 96Q321 96 327 95L327 95L328 94L328 99Q322 101 316 101L316 101Q304 101 304 90L304 90Q304 80 309 72L309 72Q311 68 315 66Q319 63 324 63L324 63Q334 63 334 72L334 72Q334 78 329 81Q325 84 314 84L314 84L310 84Q310 86 310 89ZM311 79L315 79Q322 79 326 78Q329 76 329 72L329 72Q329 68 323 68L323 68Q314 68 311 79L311 79ZM359 63L359 63Q365 63 367 66Q369 69 369 74L369 74Q369 81 366 88L366 88Q363 96 357 99L357 99Q354 101 351 101L351 101Q345 101 338 99L338 99L336 99L348 48L353 48L348 69Q352 65 356 64L356 64Q358 63 359 63ZM347 74L342 95Q347 96 350 96Q354 96 356 94Q359 91 360 87L360 87Q363 80 363 76Q363 71 362 70Q361 68 358 68L358 68Q356 68 353 70Q350 71 349 73L349 73L347 74ZM393 100L387 100L396 64L401 64L393 100ZM403 57L397 57L399 50L404 50L403 57ZM411 93L411 93Q411 96 415 96L415 96L420 96L420 100Q416 101 413 101Q410 101 408 99Q406 97 406 94Q406 91 407 86L407 86L411 69L406 69L407 64L412 64L415 53L420 53L417 64L428 64L426 69L416 69L412 87Q411 90 411 93ZM436 101L436 101Q427 101 427 90L427 90Q427 84 429 78Q431 72 435 68Q439 63 445 63L445 63Q449 63 457 65L457 65L460 65L454 88Q453 93 453 98L453 98L452 100L447 100Q448 94 448 92L448 92Q448 93 446 95Q444 97 443 98Q442 99 440 100Q438 101 436 101ZM449 87L453 69Q448 68 445 68Q441 68 438 72Q435 75 434 80Q432 85 432 89Q432 93 434 95Q435 96 437 96Q440 96 443 94Q446 91 447 89L447 89L449 87ZM467 100L461 100L473 48L479 48L467 100ZM482 100L477 100L485 64L490 64L482 100ZM492 57L487 57L488 50L494 50L492 57ZM512 63L512 63Q516 63 520 64L520 64L521 65L520 69Q515 68 512 68L512 68Q508 68 505 71L505 71Q499 77 499 89L499 89Q499 92 501 94Q502 96 506 96L506 96Q509 96 513 95L513 95L514 95L514 99Q509 101 504 101Q499 101 496 98Q493 95 493 90L493 90Q493 74 502 67L502 67Q506 63 512 63Z"/></svg>