<svg xmlns="http://www.w3.org/2000/svg" viewBox="1.6400000000000001 -7.3 47.77 7.39"><path d="M3.73-6.67L1.64-6.67L1.72-7L6.26-7L6.18-6.67L4.09-6.67L2.55 0L2.19 0L3.73-6.67ZM5.85 0L5.50 0L6.66-5L7.01-5L5.85 0ZM7.33-6.38L6.97-6.38L7.11-6.98L7.47-6.98L7.33-6.38ZM8.18-0.82L8.18-0.82Q8.18-0.23 8.82-0.23L8.82-0.23L9.66-0.30L9.64 0.01Q9.13 0.09 8.77 0.09L8.77 0.09Q7.81 0.09 7.81-0.77L7.81-0.77Q7.81-1.14 7.98-1.82L7.98-1.82L8.65-4.68L7.92-4.68L8-5L8.74-5L9.13-6.62L9.48-6.62L9.08-5L10.71-5L10.63-4.68L9-4.68L8.33-1.82Q8.18-1.18 8.18-0.82ZM10.78 0L10.43 0L11.59-5L11.94-5L10.78 0ZM12.26-6.38L11.90-6.38L12.04-6.98L12.40-6.98L12.26-6.38ZM12.67 0L12.32 0L14.01-7.30L14.36-7.30L12.67 0ZM14.62 0L14.27 0L15.96-7.30L16.31-7.30L14.62 0ZM16.50 0L16.15 0L17.31-5L17.66-5L16.50 0ZM17.98-6.38L17.62-6.38L17.76-6.98L18.12-6.98L17.98-6.38ZM21.03 0L21.29-1.13Q20.31 0.09 19.44 0.09L19.44 0.09Q18.91 0.09 18.60-0.22Q18.29-0.53 18.29-1.04Q18.29-1.56 18.48-2.40L18.48-2.40L19.09-5L19.43-5L18.83-2.42Q18.64-1.64 18.64-1.17Q18.64-0.70 18.87-0.47Q19.10-0.24 19.42-0.24Q19.75-0.24 20.04-0.39Q20.33-0.54 20.56-0.76L20.56-0.76Q21.06-1.21 21.31-1.55L21.31-1.55L21.42-1.70L22.19-5L22.54-5L21.38 0L21.03 0ZM24.36-5L24.10-3.87Q25.08-5.09 25.95-5.09L25.95-5.09Q26.26-5.09 26.48-4.99Q26.71-4.88 26.82-4.73L26.82-4.73Q27.04-4.41 27.06-4.18L27.06-4.18L27.07-4.08Q27.17-4.19 27.33-4.36Q27.50-4.53 27.96-4.81Q28.42-5.09 28.88-5.09Q29.35-5.09 29.65-4.78Q29.96-4.47 29.96-3.97Q29.96-3.46 29.76-2.57L29.76-2.57L29.16 0L28.81 0L29.41-2.58Q29.60-3.36 29.60-3.83Q29.60-4.30 29.37-4.53Q29.14-4.76 28.76-4.76Q28.39-4.76 27.97-4.48Q27.56-4.20 27.32-3.92L27.32-3.92L27.08-3.65Q27.07-3.27 26.90-2.57L26.90-2.57L26.30 0L25.95 0L26.55-2.58Q26.74-3.36 26.74-3.83Q26.74-4.31 26.51-4.54Q26.29-4.76 25.96-4.76Q25.64-4.76 25.35-4.61Q25.06-4.46 24.82-4.24L24.82-4.24Q24.33-3.79 24.08-3.45L24.08-3.45L23.97-3.30L23.20 0L22.85 0L24.01-5L24.36-5ZM33.77 0L34.01-7L34.37-7L34.12-0.33L34.47-0.33L37.45-6.90L37.83-6.90L37.74-0.33L38.07-0.33L40.95-7L41.31-7L38.29 0L37.40 0L37.50-6.21L34.68 0L33.77 0ZM41.22-1.37Q41.22-0.84 41.52-0.55Q41.81-0.25 42.24-0.25L42.24-0.25Q42.98-0.25 43.73-0.47L43.73-0.47L43.97-0.54L43.97-0.21Q43.11 0.09 42.25 0.09L42.25 0.09Q41.61 0.09 41.23-0.28Q40.85-0.64 40.85-1.30Q40.85-1.96 41.02-2.61Q41.18-3.26 41.50-3.83Q41.81-4.39 42.34-4.74Q42.86-5.09 43.52-5.09L43.52-5.09Q44.82-5.09 44.82-4.06L44.82-4.06Q44.82-3.21 44.13-2.85Q43.44-2.50 42-2.50L42-2.50L41.37-2.50Q41.22-1.90 41.22-1.37ZM41.44-2.82L42.09-2.82Q43.32-2.82 43.89-3.08Q44.46-3.35 44.46-4.06Q44.46-4.77 43.51-4.77L43.51-4.77Q42.05-4.77 41.44-2.82L41.44-2.82ZM48.18-5.09L48.18-5.09Q48.90-5.09 49.16-4.73Q49.41-4.36 49.41-3.63L49.41-3.63Q49.41-2.84 49.07-1.90L49.07-1.90Q48.88-1.38 48.61-0.94Q48.33-0.50 47.89-0.21Q47.44 0.09 46.90 0.09L46.90 0.09Q46.32 0.09 45.45-0.06L45.45-0.06L45.16-0.11L46.82-7.30L47.17-7.30L46.44-4.16Q46.50-4.23 46.75-4.44Q46.99-4.64 47.18-4.76L47.18-4.76Q47.69-5.09 48.18-5.09ZM46.33-3.67L45.57-0.38Q46.43-0.23 46.95-0.23Q47.46-0.23 47.91-0.65Q48.36-1.07 48.58-1.66L48.58-1.66Q49.04-2.87 49.04-3.54Q49.04-4.21 48.86-4.49Q48.67-4.76 48.08-4.76L48.08-4.76Q47.74-4.76 47.31-4.49Q46.87-4.22 46.60-3.94L46.60-3.94L46.33-3.67Z"/></svg>