<svg xmlns="http://www.w3.org/2000/svg" viewBox="0.13 -7 57.30000000000001 7.12"><path d="M1.95-5.58L0.13-5.58L0.13-6.80L5.13-6.80L5.13-5.58L3.33-5.58L3.33 0L1.95 0L1.95-5.58ZM7.22 0L5.88 0L5.88-5L7.22-5L7.22 0ZM7.22-5.64L5.88-5.64L5.88-7L7.22-7L7.22-5.64ZM11.23-5L11.23-3.86L10-3.86L10-1.81Q10-1.51 10.02-1.39Q10.03-1.26 10.13-1.17Q10.22-1.08 10.42-1.08L10.42-1.08L11.18-1.10L11.24-0.03Q10.57 0.12 10.22 0.12L10.22 0.12Q9.32 0.12 8.99-0.29Q8.66-0.69 8.66-1.78L8.66-1.78L8.66-3.86L8.07-3.86L8.07-5L8.66-5L8.66-6.39L10-6.39L10-5L11.23-5ZM13.44 0L12.10 0L12.10-5L13.44-5L13.44 0ZM13.44-5.64L12.10-5.64L12.10-7L13.44-7L13.44-5.64ZM16.08 0L14.74 0L14.74-7L16.08-7L16.08 0ZM18.78 0L17.44 0L17.44-7L18.78-7L18.78 0ZM21.42 0L20.08 0L20.08-5L21.42-5L21.42 0ZM21.42-5.64L20.08-5.64L20.08-7L21.42-7L21.42-5.64ZM25.61-1.26L25.61-5L26.95-5L26.95 0L25.62 0L25.62-0.28Q24.90 0.12 24.37 0.12L24.37 0.12Q23.33 0.12 22.97-0.46Q22.61-1.03 22.61-2.38L22.61-2.38L22.61-5L23.95-5L23.95-2.36Q23.95-1.62 24.07-1.35Q24.19-1.08 24.65-1.08L24.65-1.08Q25.09-1.08 25.48-1.22L25.48-1.22L25.61-1.26ZM29.53-3.74L29.53 0L28.19 0L28.19-5L29.52-5L29.52-4.72Q30.21-5.12 30.70-5.12L30.70-5.12Q31.51-5.12 31.95-4.65L31.95-4.65Q32.87-5.12 33.63-5.12L33.63-5.12Q34.62-5.12 35.01-4.54Q35.39-3.97 35.39-2.71L35.39-2.71L35.39 0L34.05 0L34.05-2.67Q34.05-3.31 33.91-3.62Q33.77-3.92 33.35-3.92L33.35-3.92Q33.03-3.92 32.57-3.78L32.57-3.78L32.42-3.73Q32.46-2.98 32.46-2.59L32.46-2.59L32.46 0L31.12 0L31.12-2.57Q31.12-3.31 30.99-3.62Q30.86-3.92 30.42-3.92L30.42-3.92Q30.03-3.92 29.65-3.78L29.65-3.78L29.53-3.74ZM39.65 0L38.35-6.80L39.80-6.80L40.64-1.18L40.79-1.18L42.01-6.80L43.61-6.80L44.83-1.18L44.98-1.18L45.82-6.80L47.27-6.80L45.97 0L43.88 0L42.81-5.17L41.74 0L39.65 0ZM48.99-1.93Q49.00-1.47 49.24-1.27Q49.47-1.06 49.91-1.06L49.91-1.06Q50.84-1.06 51.57-1.12L51.57-1.12L51.85-1.15L51.87-0.16Q50.72 0.12 49.79 0.12L49.79 0.12Q48.66 0.12 48.15-0.48Q47.64-1.08 47.64-2.43L47.64-2.43Q47.64-5.12 49.85-5.12L49.85-5.12Q52.03-5.12 52.03-2.86L52.03-2.86L51.93-1.93L48.99-1.93ZM48.98-2.95L50.71-2.95Q50.71-3.55 50.52-3.79Q50.33-4.02 49.86-4.02Q49.38-4.02 49.19-3.77Q48.99-3.53 48.98-2.95L48.98-2.95ZM55.41-5.12L55.41-5.12Q56.46-5.12 56.95-4.54Q57.43-3.97 57.43-2.49Q57.43-1.01 56.87-0.45Q56.31 0.12 54.94 0.12L54.94 0.12Q54.51 0.12 53.37 0.02L53.37 0.02L52.99-0.02L52.99-7L54.33-7L54.33-4.85Q54.97-5.12 55.41-5.12ZM54.94-1.08L54.94-1.08Q55.61-1.08 55.84-1.41Q56.07-1.73 56.07-2.57L56.07-2.57Q56.07-3.92 55.23-3.92L55.23-3.92Q54.83-3.92 54.47-3.82L54.47-3.82L54.33-3.79L54.33-1.12Q54.79-1.08 54.94-1.08Z"/></svg>