<svg xmlns="http://www.w3.org/2000/svg" viewBox="9.936000000000002 49.599999999999994 686.3759999999999 51.26400000000001"><path d="M21 60L10 60L12 51L43 51L41 60L31 60L21 100L11 100L21 60ZM46 100L37 100L45 64L55 64L46 100ZM56 60L46 60L48 50L58 50L56 60ZM67 91L67 91Q67 93 70 93L70 93L74 92L74 99Q70 101 66 101Q62 101 60 99Q57 96 57 93Q57 90 59 86L59 86L62 72L58 72L60 64L64 64L66 55L75 55L73 64L81 64L79 72L71 72L68 87Q67 89 67 91ZM88 100L78 100L86 64L96 64L88 100ZM97 60L87 60L89 50L99 50L97 60ZM105 100L95 100L107 50L117 50L105 100ZM123 100L113 100L125 50L134 50L123 100ZM140 100L131 100L139 64L149 64L140 100ZM149 60L140 60L142 50L152 50L149 60ZM159 101L159 101Q150 101 150 91L150 91Q150 88 152 82L152 82L156 64L166 64L162 81Q160 86 160 88Q160 90 161 92Q162 93 163 93L163 93Q165 93 169 89L169 89L170 88L176 64L185 64L177 100L168 100L168 96Q167 98 164 99Q161 101 159 101ZM205 100L209 83Q210 78 210 76Q210 74 209 72Q209 71 207 71L207 71Q205 71 201 75L201 75L200 76L195 100L185 100L193 64L203 64L202 67Q205 65 209 64L209 64Q210 63 212 63Q214 63 216 64Q218 66 219 67L219 67L219 68Q220 68 221 67Q222 66 225 65Q228 63 230 63L230 63Q239 63 239 73L239 73Q239 77 238 82L238 82L233 100L224 100L228 83Q229 78 229 76Q229 74 229 73Q228 71 227 71Q225 71 224 73Q222 74 221 75L221 75L220 76Q219 80 218 82L218 82L214 100L205 100ZM263 100L265 51L275 51L272 91L273 91L290 52L300 52L298 91L299 91L315 51L325 51L304 100L290 100L292 64L278 100L263 100ZM329 89Q329 90 330 92Q332 93 334 93L334 93Q339 93 344 92L344 92L346 92L345 99Q338 101 332 101Q325 101 322 98Q319 95 319 89Q319 84 320 79Q322 75 324 71Q326 67 330 65Q334 63 339 63L339 63Q352 63 352 74L352 74Q352 81 347 83Q342 86 332 86L332 86L329 86Q329 87 329 89ZM330 79L333 79Q338 79 340 78Q342 77 342 74L342 74Q342 71 339 71L339 71Q332 71 330 79L330 79ZM377 63L377 63Q383 63 386 66Q388 70 388 75L388 75Q388 86 383 93Q378 101 370 101L370 101Q366 101 362 100Q357 100 355 99L355 99L352 98L363 50L373 50L369 67Q371 65 373 64Q375 63 377 63ZM367 75L363 92Q366 93 369 93Q372 93 374 91Q375 89 376 86L376 86Q378 81 378 76Q378 71 375 71L375 71Q373 71 371 72Q369 73 368 74L368 74L367 75ZM431 63L431 63Q437 63 440 66Q442 70 442 75L442 75Q442 86 437 93Q432 101 423 101L423 101Q420 101 415 100Q411 100 408 99L408 99L406 98L417 50L427 50L423 67Q424 65 427 64Q429 63 431 63ZM421 75L417 92Q420 93 423 93Q425 93 427 91Q429 89 430 86L430 86Q432 81 432 76Q432 71 428 71L428 71Q427 71 425 72Q423 73 422 74L422 74L421 75ZM463 63L463 63Q478 63 478 77L478 77Q478 83 476 88Q474 93 469 97Q465 101 459 101L459 101Q445 101 445 87L445 87Q445 81 447 76Q449 71 454 67Q458 63 463 63ZM459 93L459 93Q463 93 466 88Q468 83 468 77L468 77Q468 71 463 71L463 71Q460 71 457 76Q455 81 455 87L455 87Q455 93 459 93ZM489 100L479 100L491 50L500 50L489 100ZM509 101L509 101Q504 101 501 98Q499 94 499 88Q499 82 501 76Q502 71 507 67Q511 63 517 63L517 63Q519 63 524 64L524 64L525 65L529 50L538 50L527 100L517 100L518 96Q517 98 514 99Q511 101 509 101ZM520 87L524 72Q519 71 517 71Q514 71 512 74Q510 77 509 81Q508 85 508 88L508 88Q508 93 512 93L512 93Q513 93 515 91Q517 90 519 89L519 89L520 87ZM560 100L551 100L559 64L569 64L560 100ZM569 60L560 60L562 50L572 50L569 60ZM581 91L581 91Q581 93 583 93L583 93L588 92L587 99Q584 101 580 101Q575 101 573 99Q571 96 571 93Q571 90 572 86L572 86L575 72L572 72L574 64L577 64L580 55L589 55L587 64L595 64L593 72L585 72L582 87Q581 89 581 91ZM604 101L604 101Q598 101 596 97Q594 94 594 88L594 88Q594 79 598 72L598 72Q600 68 604 66Q607 63 612 63L612 63Q617 63 627 65L627 65L630 66L624 89L623 100L613 100Q614 96 614 95L614 95Q611 98 607 100L607 100Q605 101 604 101ZM612 71L612 71Q609 71 607 74L607 74Q603 79 603 88L603 88Q603 90 604 91Q605 93 607 93Q608 93 610 91Q613 89 614 88L614 88L615 86L619 72Q614 71 612 71ZM639 100L630 100L641 50L651 50L639 100ZM657 100L647 100L656 64L665 64L657 100ZM666 60L656 60L659 50L668 50L666 60ZM686 63L686 63Q690 63 695 65L695 65L696 65L694 72Q688 71 685 71L685 71Q681 71 679 76Q677 80 677 87Q677 93 682 93L682 93L690 92L689 99Q684 101 678 101Q673 101 670 98Q667 94 667 88L667 88Q667 77 672 70Q677 63 686 63Z"/></svg>