<svg xmlns="http://www.w3.org/2000/svg" viewBox="1.3800000000000001 -7 52.53999999999999 7.12"><path d="M2.87-5.60L1.38-5.60L1.66-6.80L6.04-6.80L5.76-5.60L4.25-5.60L2.96 0L1.58 0L2.87-5.60ZM6.45 0L5.11 0L6.26-5L7.60-5L6.45 0ZM7.73-5.52L6.37-5.52L6.69-6.89L8.04-6.89L7.73-5.52ZM9.37-1.30L9.37-1.30Q9.37-1.02 9.66-1.02L9.66-1.02L10.34-1.07L10.23-0.11Q9.70 0.12 9.13 0.12Q8.57 0.12 8.28-0.18Q7.98-0.49 7.98-0.93Q7.98-1.36 8.13-1.98L8.13-1.98L8.57-3.86L8.03-3.86L8.33-5L8.84-5L9.13-6.28L10.47-6.28L10.18-5L11.23-5L10.95-3.86L9.91-3.86L9.45-1.86Q9.37-1.52 9.37-1.30ZM12.17 0L10.83 0L11.98-5L13.32-5L12.17 0ZM13.45-5.52L12.09-5.52L12.41-6.89L13.76-6.89L13.45-5.52ZM14.60 0L13.26 0L14.87-7L16.21-7L14.60 0ZM17.04 0L15.70 0L17.31-7L18.65-7L17.04 0ZM19.48 0L18.14 0L19.29-5L20.63-5L19.48 0ZM20.76-5.52L19.40-5.52L19.72-6.89L21.07-6.89L20.76-5.52ZM22.11 0.12L22.11 0.12Q20.89 0.12 20.89-1.29L20.89-1.29Q20.89-1.68 21.10-2.55L21.10-2.55L21.66-5L23-5L22.46-2.65Q22.28-1.90 22.28-1.61Q22.28-1.32 22.36-1.18Q22.45-1.04 22.64-1.04L22.64-1.04Q22.98-1.04 23.48-1.49L23.48-1.49L23.64-1.64L24.41-5L25.75-5L24.60 0L23.32 0L23.38-0.49Q23.15-0.26 22.77-0.07Q22.40 0.12 22.11 0.12ZM28.44 0L28.98-2.35Q29.16-3.10 29.16-3.39Q29.16-3.68 29.07-3.82Q28.99-3.96 28.80-3.96L28.80-3.96Q28.47-3.96 27.97-3.51L27.97-3.51L27.81-3.36L27.04 0L25.70 0L26.85-5L28.13-5L28.08-4.52Q28.46-4.90 28.97-5.06L28.97-5.06Q29.18-5.12 29.47-5.12Q29.76-5.12 30.02-4.94Q30.28-4.76 30.35-4.58L30.35-4.58L30.42-4.41Q30.51-4.49 30.66-4.61Q30.81-4.73 31.22-4.92Q31.64-5.12 31.98-5.12L31.98-5.12Q33.18-5.12 33.18-3.71L33.18-3.71Q33.18-3.26 32.99-2.45L32.99-2.45L32.43 0L31.09 0L31.65-2.35Q31.83-3.10 31.83-3.38Q31.83-3.66 31.75-3.81Q31.67-3.96 31.48-3.96Q31.30-3.96 31.05-3.81Q30.81-3.67 30.65-3.52L30.65-3.52L30.49-3.38Q30.42-2.78 30.34-2.45L30.34-2.45L29.78 0L28.44 0ZM36.54 0L36.85-6.80L38.23-6.80L37.81-1.27L37.95-1.27L40.21-6.70L41.73-6.70L41.40-1.27L41.54-1.27L43.78-6.80L45.16-6.80L42.25 0L40.25 0L40.58-4.94L38.60 0L36.54 0ZM45.69-1.57Q45.69-1.32 45.89-1.17Q46.10-1.02 46.41-1.02L46.41-1.02Q47.10-1.02 47.82-1.12L47.82-1.12L48.08-1.15L47.93-0.16Q47 0.12 46.09 0.12Q45.18 0.12 44.77-0.29Q44.35-0.70 44.35-1.49Q44.35-2.28 44.51-2.90Q44.67-3.52 44.98-4.02Q45.30-4.52 45.84-4.82Q46.39-5.11 47.09-5.11L47.09-5.11Q48.84-5.11 48.84-3.62L48.84-3.62Q48.84-2.67 48.20-2.31Q47.56-1.95 46.07-1.95L46.07-1.95L45.72-1.95Q45.69-1.83 45.69-1.57ZM45.87-2.94L46.28-2.94Q46.97-2.94 47.24-3.09Q47.52-3.24 47.52-3.60L47.52-3.60Q47.52-4.03 47.02-4.03L47.02-4.03Q46.13-4.03 45.87-2.94L45.87-2.94ZM52.42-5.12L52.42-5.12Q53.23-5.12 53.57-4.66Q53.92-4.19 53.92-3.49L53.92-3.49Q53.92-1.92 53.22-0.91Q52.52 0.11 51.32 0.11L51.32 0.11Q50.84 0.11 50.23 0.03Q49.62-0.05 49.25-0.14L49.25-0.14L48.88-0.22L50.44-7L51.78-7L51.23-4.61Q51.46-4.81 51.80-4.96Q52.15-5.12 52.42-5.12ZM50.97-3.48L50.43-1.13Q50.87-1.03 51.24-1.03Q51.62-1.03 51.88-1.28Q52.14-1.53 52.28-1.91L52.28-1.91Q52.55-2.68 52.55-3.33Q52.55-3.98 52.02-3.98L52.02-3.98Q51.82-3.98 51.56-3.85Q51.30-3.73 51.14-3.60L51.14-3.60L50.97-3.48Z"/></svg>