<svg xmlns="http://www.w3.org/2000/svg" viewBox="0.13 -7.18 54.16 7.29"><path d="M2.26-6.23L0.13-6.23L0.13-6.92L5.13-6.92L5.13-6.23L3.02-6.23L3.02 0L2.26 0L2.26-6.23ZM6.73 0L5.98 0L5.98-5L6.73-5L6.73 0ZM6.73-6.13L5.98-6.13L5.98-7L6.73-7L6.73-6.13ZM10.76-5L10.76-4.35L9.17-4.35L9.17-1.96Q9.17-1.10 9.29-0.83Q9.42-0.56 9.89-0.56L9.89-0.56L10.78-0.62L10.83 0Q10.16 0.11 9.81 0.11L9.81 0.11Q9.03 0.11 8.73-0.27Q8.43-0.65 8.43-1.72L8.43-1.72L8.43-4.35L7.72-4.35L7.72-5L8.43-5L8.43-6.53L9.17-6.53L9.17-5L10.76-5ZM12.43 0L11.68 0L11.68-5L12.43-5L12.43 0ZM12.43-6.13L11.68-6.13L11.68-7L12.43-7L12.43-6.13ZM14.68 0L13.93 0L13.93-7.18L14.68-7.18L14.68 0ZM16.99 0L16.24 0L16.24-7.18L16.99-7.18L16.99 0ZM19.24 0L18.49 0L18.49-5L19.24-5L19.24 0ZM19.24-6.13L18.49-6.13L18.49-7L19.24-7L19.24-6.13ZM23.80-0.94L23.80-5L24.55-5L24.55 0L23.80 0L23.80-0.35Q23.05 0.10 22.32 0.10L22.32 0.10Q21.30 0.10 20.96-0.43Q20.63-0.96 20.63-2.39L20.63-2.39L20.63-5L21.38-5L21.38-2.40Q21.38-1.31 21.57-0.94Q21.76-0.57 22.43-0.57L22.43-0.57Q22.76-0.57 23.10-0.67Q23.44-0.76 23.62-0.85L23.62-0.85L23.80-0.94ZM26.74-4.06L26.74 0L25.99 0L25.99-5L26.73-5L26.73-4.65Q27.48-5.10 28.19-5.10L28.19-5.10Q29.12-5.10 29.49-4.59L29.49-4.59Q29.82-4.79 30.35-4.95Q30.87-5.10 31.27-5.10L31.27-5.10Q32.27-5.10 32.62-4.57Q32.96-4.03 32.96-2.64L32.96-2.64L32.96 0L32.21 0L32.21-2.62Q32.21-3.66 32.01-4.04Q31.81-4.43 31.16-4.43L31.16-4.43Q30.83-4.43 30.48-4.33Q30.13-4.24 29.94-4.15L29.94-4.15L29.75-4.06Q29.88-3.73 29.88-2.60L29.88-2.60L29.88 0L29.13 0L29.13-2.58Q29.13-3.66 28.94-4.04Q28.74-4.43 28.08-4.43L28.08-4.43Q27.76-4.43 27.43-4.33Q27.09-4.24 26.91-4.15L26.91-4.15L26.74-4.06ZM37.54 0L36.13-6.92L36.93-6.92L38.11-0.68L38.40-0.68L39.81-6.86L40.71-6.86L42.12-0.68L42.41-0.68L43.59-6.92L44.38-6.92L42.98 0L41.57 0L40.26-5.91L38.95 0L37.54 0ZM48.61-0.62L48.61-0.62L48.90-0.65L48.92-0.06Q47.78 0.10 46.97 0.10L46.97 0.10Q45.89 0.10 45.44-0.53Q44.99-1.15 44.99-2.47L44.99-2.47Q44.99-5.10 47.08-5.10L47.08-5.10Q48.09-5.10 48.59-4.54Q49.09-3.97 49.09-2.76L49.09-2.76L49.05-2.19L45.75-2.19Q45.75-1.36 46.05-0.96Q46.35-0.56 47.09-0.56Q47.84-0.56 48.61-0.62ZM45.74-2.79L48.34-2.79Q48.34-3.71 48.05-4.09Q47.75-4.47 47.09-4.47Q46.42-4.47 46.09-4.07Q45.75-3.67 45.74-2.79L45.74-2.79ZM52.47-5.10L52.47-5.10Q53.48-5.10 53.88-4.53Q54.29-3.95 54.29-2.51Q54.29-1.07 53.78-0.48Q53.28 0.10 51.93 0.10L51.93 0.10Q51.51 0.10 50.54 0.02L50.54 0.02L50.26-0.01L50.26-7.18L51-7.18L51-4.75Q51.76-5.10 52.47-5.10ZM51.92-0.57L51.92-0.57Q52.90-0.57 53.21-1.02Q53.53-1.46 53.53-2.52Q53.53-3.58 53.28-4.00Q53.03-4.43 52.39-4.43L52.39-4.43Q51.81-4.43 51.20-4.21L51.20-4.21L51-4.14L51-0.62Q51.65-0.57 51.92-0.57Z"/></svg>