<svg xmlns="http://www.w3.org/2000/svg" viewBox="0.13 -7.08 55.93 7.19"><path d="M2.08-5.86L0.13-5.86L0.13-6.85L5.13-6.85L5.13-5.86L3.20-5.86L3.20 0L2.08 0L2.08-5.86ZM7.01 0L5.92 0L5.92-5L7.01-5L7.01 0ZM7.01-5.85L5.92-5.85L5.92-7L7.01-7L7.01-5.85ZM11.02-5L11.02-4.07L9.64-4.07L9.64-1.87Q9.64-1.26 9.73-1.06Q9.82-0.86 10.19-0.86L10.19-0.86L11.01-0.89L11.06-0.02Q10.39 0.11 10.04 0.11L10.04 0.11Q9.19 0.11 8.88-0.28Q8.56-0.67 8.56-1.75L8.56-1.75L8.56-4.07L7.92-4.07L7.92-5L8.56-5L8.56-6.45L9.64-6.45L9.64-5L11.02-5ZM13 0L11.91 0L11.91-5L13-5L13 0ZM13-5.85L11.91-5.85L11.91-7L13-7L13-5.85ZM15.47 0L14.38 0L14.38-7.08L15.47-7.08L15.47 0ZM18 0L16.91 0L16.91-7.08L18-7.08L18 0ZM20.47 0L19.38 0L19.38-5L20.47-5L20.47 0ZM20.47-5.85L19.38-5.85L19.38-7L20.47-7L20.47-5.85ZM24.82-1.12L24.82-5L25.90-5L25.90 0L24.82 0L24.82-0.31Q24.09 0.11 23.47 0.11L23.47 0.11Q22.44 0.11 22.09-0.45Q21.74-1 21.74-2.39L21.74-2.39L21.74-5L22.83-5L22.83-2.38Q22.83-1.48 22.98-1.17Q23.13-0.86 23.68-0.86L23.68-0.86Q24.22-0.86 24.67-1.06L24.67-1.06L24.82-1.12ZM28.31-3.88L28.31 0L27.22 0L27.22-5L28.30-5L28.30-4.69Q29.01-5.11 29.60-5.11L29.60-5.11Q30.47-5.11 30.87-4.62L30.87-4.62Q31.78-5.11 32.68-5.11Q33.58-5.11 33.95-4.55Q34.32-4 34.32-2.68L34.32-2.68L34.32 0L33.24 0L33.24-2.65Q33.24-3.46 33.08-3.80Q32.91-4.14 32.39-4.14L32.39-4.14Q31.94-4.14 31.42-3.94L31.42-3.94L31.25-3.87Q31.33-3.67 31.33-2.59L31.33-2.59L31.33 0L30.25 0L30.25-2.57Q30.25-3.46 30.09-3.80Q29.93-4.14 29.39-4.14L29.39-4.14Q28.89-4.14 28.46-3.94L28.46-3.94L28.31-3.88ZM38.72 0L37.38-6.85L38.55-6.85L39.53-0.96L39.74-0.96L41.04-6.83L42.34-6.83L43.64-0.96L43.86-0.96L44.84-6.85L46.01-6.85L44.66 0L42.87 0L41.69-5.49L40.52 0L38.72 0ZM50.27-0.90L50.27-0.90L50.55-0.93L50.57-0.12Q49.43 0.11 48.55 0.11L48.55 0.11Q47.44 0.11 46.96-0.50Q46.47-1.11 46.47-2.45L46.47-2.45Q46.47-5.11 48.64-5.11L48.64-5.11Q50.74-5.11 50.74-2.82L50.74-2.82L50.67-2.04L47.57-2.04Q47.58-1.42 47.84-1.13Q48.10-0.84 48.81-0.84Q49.52-0.84 50.27-0.90ZM47.56-2.88L49.67-2.88Q49.67-3.62 49.44-3.92Q49.20-4.21 48.64-4.21Q48.08-4.21 47.83-3.90Q47.57-3.59 47.56-2.88L47.56-2.88ZM54.12-5.11L54.12-5.11Q55.15-5.11 55.61-4.54Q56.06-3.96 56.06-2.50Q56.06-1.04 55.52-0.47Q54.98 0.11 53.62 0.11L53.62 0.11Q53.15 0.11 52.13 0.02L52.13 0.02L51.79-0.01L51.79-7.08L52.87-7.08L52.87-4.81Q53.56-5.11 54.12-5.11ZM53.62-0.86L53.62-0.86Q54.42-0.86 54.69-1.24Q54.95-1.61 54.95-2.51Q54.95-3.41 54.73-3.77Q54.50-4.14 53.99-4.14L53.99-4.14Q53.51-4.14 53.03-3.99L53.03-3.99L52.87-3.94L52.87-0.90Q53.42-0.86 53.62-0.86Z"/></svg>