<svg xmlns="http://www.w3.org/2000/svg" viewBox="11.304000000000002 48.01599999999999 638.568 69.04800000000002"><path d="M25.27 53.92L11.30 53.92L12.24 49.96L44.64 49.96L43.70 53.92L29.74 53.92L19.08 100L14.69 100L25.27 53.92ZM43.20 100L38.88 100L47.23 64.00L51.55 64.00L43.20 100ZM53.50 55.65L49.10 55.65L50.47 49.89L54.79 49.89L53.50 55.65ZM61.06 93.23L61.06 93.23Q61.06 96.90 65.02 96.90L65.02 96.90L70.78 96.47L70.49 99.86Q66.74 100.72 63.54 100.72Q60.34 100.72 58.43 98.99Q56.52 97.26 56.52 94.38Q56.52 91.50 57.74 86.61L57.74 86.61L62.14 67.82L57.24 67.82L58.18 64.00L63.07 64.00L65.74 52.98L70.06 52.98L67.32 64.00L78.05 64.00L77.11 67.82L66.46 67.82L61.99 86.82Q61.06 90.86 61.06 93.23ZM80.06 100L75.74 100L84.10 64.00L88.42 64.00L80.06 100ZM90.36 55.65L85.97 55.65L87.34 49.89L91.66 49.89L90.36 55.65ZM94.61 100L90.36 100L102.38 48.02L106.63 48.02L94.61 100ZM109.51 100L105.26 100L117.29 48.02L121.54 48.02L109.51 100ZM124.06 100L119.74 100L128.09 64.00L132.41 64.00L124.06 100ZM134.35 55.65L129.96 55.65L131.33 49.89L135.65 49.89L134.35 55.65ZM144.65 100.72L144.65 100.72Q140.62 100.72 138.42 98.34Q136.22 95.97 136.22 92.22Q136.22 88.48 137.66 82.43L137.66 82.43L141.98 64.00L146.23 64.00L141.98 82.14Q140.62 87.98 140.62 90.93L140.62 90.93Q140.62 96.83 146.02 96.83L146.02 96.83Q148.39 96.83 151.42 94.60Q154.44 92.37 156.24 90.14L156.24 90.14L158.11 87.90L163.66 64.00L167.98 64.00L159.62 100L155.45 100L156.96 93.02Q153.36 97.84 148.46 99.86L148.46 99.86Q146.45 100.72 144.65 100.72ZM196.78 72.86L196.78 72.86Q196.78 67.17 191.45 67.17L191.45 67.17Q189.07 67.17 186.05 69.40Q183.02 71.63 181.15 73.94L181.15 73.94L179.35 76.17L173.81 100L169.49 100L177.84 64.00L182.02 64.00L180.58 70.98Q184.25 66.09 189.07 64.14L189.07 64.14Q191.02 63.28 193.00 63.28Q194.98 63.28 196.56 63.96Q198.14 64.65 198.86 65.66L198.86 65.66Q200.45 67.67 200.81 70.05L200.81 70.05Q201.17 69.62 202.93 68.07Q204.70 66.52 206.06 65.58L206.06 65.58Q209.59 63.28 213.34 63.28Q217.08 63.28 219.24 65.66Q221.40 68.03 221.40 71.56Q221.40 75.09 219.96 81.71L219.96 81.71L215.71 100L211.39 100L215.64 81.86Q217.01 76.02 217.01 73.07L217.01 73.07Q217.01 67.17 211.68 67.17L211.68 67.17Q209.52 67.17 206.82 68.93Q204.12 70.70 202.54 72.50L202.54 72.50L200.95 74.22Q200.81 77.32 199.73 81.71L199.73 81.71L195.48 100L191.16 100L195.41 81.86Q196.78 76.02 196.78 72.86ZM247.97 100L249.84 49.96L254.23 49.96L252.14 95.97L254.30 95.97L274.46 50.68L279.22 50.68L278.14 95.97L280.15 95.97L299.74 49.96L304.20 49.96L282.67 100L274.25 100L275.40 57.59L256.61 100L247.97 100ZM304.63 89.85Q304.63 93.09 306.61 94.96Q308.59 96.83 311.47 96.83L311.47 96.83Q317.02 96.83 322.06 95.54L322.06 95.54L323.78 95.03L323.50 98.56Q317.23 100.72 311.54 100.72L311.54 100.72Q300.24 100.72 300.24 90.06L300.24 90.06Q300.24 80.27 304.92 72.14L304.92 72.14Q307.15 68.18 310.97 65.76Q314.78 63.35 319.61 63.35L319.61 63.35Q329.76 63.35 329.76 71.56L329.76 71.56Q329.76 77.90 324.86 80.45Q319.97 83.01 309.53 83.01L309.53 83.01L305.50 83.01Q304.63 86.61 304.63 89.85ZM306.14 79.48L310.39 79.48Q318.31 79.48 321.88 77.79Q325.44 76.10 325.44 71.56Q325.44 67.02 319.39 67.02L319.39 67.02Q309.96 67.02 306.14 79.48L306.14 79.48ZM354.31 63.28L354.31 63.28Q359.64 63.28 361.66 66.09Q363.67 68.90 363.67 74.15L363.67 74.15Q363.67 80.49 361.08 87.33L361.08 87.33Q357.91 95.46 352.37 98.85L352.37 98.85Q349.20 100.72 346.10 100.72L346.10 100.72Q340.56 100.72 333.86 99.42L333.86 99.42L331.63 98.99L343.44 48.02L347.76 48.02L342.79 69.26Q343.44 68.61 344.56 67.60Q345.67 66.59 348.70 64.94Q351.72 63.28 354.31 63.28ZM341.71 73.94L336.67 95.90Q342.07 96.90 345.56 96.90Q349.06 96.90 351.94 94.20Q354.82 91.50 356.33 87.62L356.33 87.62Q359.21 79.84 359.21 75.30Q359.21 70.77 358.02 68.97Q356.83 67.17 353.09 67.17L353.09 67.17Q350.93 67.17 348.08 68.86Q345.24 70.55 343.51 72.21L343.51 72.21L341.71 73.94ZM387.36 100L383.11 100L395.14 48.02L399.38 48.02L387.36 100ZM401.90 100L397.58 100L405.94 64.00L410.26 64.00L401.90 100ZM412.20 55.65L407.81 55.65L409.18 49.89L413.50 49.89L412.20 55.65ZM420.48 117.06L420.48 117.06Q414.86 117.06 411.59 114.51Q408.31 111.95 408.31 107.70L408.31 107.70Q408.31 101.58 418.03 96.40L418.03 96.40Q416.95 95.32 416.95 93.66Q416.95 92.01 417.89 90.24Q418.82 88.48 419.83 87.47L419.83 87.47L420.77 86.39Q415.80 84.16 415.80 78.29Q415.80 72.42 419.72 67.85Q423.65 63.28 430.20 63.28L430.20 63.28Q433.51 63.28 435.89 64.14L435.89 64.14L436.68 64.43L447.34 64.00L446.47 67.82L439.49 67.82Q440.86 69.90 440.86 73.07L440.86 73.07Q440.86 78.47 436.86 83.01Q432.86 87.54 425.66 87.54L425.66 87.54L423.50 87.40Q420.98 90.57 420.98 92.26Q420.98 93.95 422.32 94.49Q423.65 95.03 428.65 95.64Q433.66 96.26 436.14 98.13Q438.62 100 438.62 103.96L438.62 103.96Q438.62 109.29 433.66 113.18Q428.69 117.06 420.48 117.06ZM420.48 98.06Q417.24 99.71 414.86 102.02Q412.49 104.32 412.49 107.02Q412.49 109.72 414.65 111.52Q416.81 113.32 421.60 113.32Q426.38 113.32 430.38 110.80Q434.38 108.28 434.38 104.25L434.38 104.25Q434.38 101.80 432.72 100.76Q431.06 99.71 426.56 99.21Q422.06 98.70 420.48 98.06L420.48 98.06ZM426.24 83.87L426.24 83.87Q431.28 83.87 434.02 80.45Q436.75 77.03 436.75 73.65Q436.75 70.26 435.17 68.64Q433.58 67.02 429.52 67.02Q425.45 67.02 422.71 70.44Q419.98 73.86 419.98 77.68L419.98 77.68Q419.98 83.87 426.24 83.87ZM468.58 63.28L468.58 63.28Q472.61 63.28 474.77 65.66Q476.93 68.03 476.93 71.74Q476.93 75.45 475.49 81.71L475.49 81.71L471.24 100L466.99 100L471.24 81.86Q472.54 76.31 472.54 72.86L472.54 72.86Q472.54 67.17 467.21 67.17L467.21 67.17Q464.83 67.17 461.81 69.44Q458.78 71.70 456.91 73.94L456.91 73.94L455.04 76.24L449.57 100L445.25 100L457.27 48.02L461.59 48.02L456.26 71.06Q459.94 66.16 464.76 64.14L464.76 64.14Q466.78 63.28 468.58 63.28ZM488.45 93.23L488.45 93.23Q488.45 96.90 492.41 96.90L492.41 96.90L498.17 96.47L497.88 99.86Q494.14 100.72 490.93 100.72Q487.73 100.72 485.82 98.99Q483.91 97.26 483.91 94.38Q483.91 91.50 485.14 86.61L485.14 86.61L489.53 67.82L484.63 67.82L485.57 64.00L490.46 64.00L493.13 52.98L497.45 52.98L494.71 64.00L505.44 64.00L504.50 67.82L493.85 67.82L489.38 86.82Q488.45 90.86 488.45 93.23ZM523.30 100L518.98 100L527.33 64.00L531.65 64.00L523.30 100ZM533.59 55.65L529.20 55.65L530.57 49.89L534.89 49.89L533.59 55.65ZM541.15 93.23L541.15 93.23Q541.15 96.90 545.11 96.90L545.11 96.90L550.87 96.47L550.58 99.86Q546.84 100.72 543.64 100.72Q540.43 100.72 538.52 98.99Q536.62 97.26 536.62 94.38Q536.62 91.50 537.84 86.61L537.84 86.61L542.23 67.82L537.34 67.82L538.27 64.00L543.17 64.00L545.83 52.98L550.15 52.98L547.42 64.00L558.14 64.00L557.21 67.82L546.55 67.82L542.09 86.82Q541.15 90.86 541.15 93.23ZM566.50 100.72L566.50 100.72Q557.50 100.72 557.50 90.57L557.50 90.57Q557.50 81.14 562.03 72.64L562.03 72.64Q564.19 68.54 567.76 65.91Q571.32 63.28 575.57 63.28L575.57 63.28Q579.46 63.28 587.02 64.58L587.02 64.58L589.54 65.01L584.06 88.41Q583.06 92.44 582.34 98.06L582.34 98.06L582.05 99.93L577.87 100.07Q578.95 93.38 579.24 91.86L579.24 91.86Q578.95 92.22 578.48 92.84Q578.02 93.45 576.61 94.96Q575.21 96.47 573.77 97.62Q572.33 98.78 570.31 99.75Q568.30 100.72 566.50 100.72ZM580.18 86.75L584.57 68.18Q579.38 67.10 575.39 67.10Q571.39 67.10 568.15 71.06Q564.91 75.02 563.44 80.24Q561.96 85.46 561.96 89.60Q561.96 93.74 563.29 95.32Q564.62 96.90 567.29 96.90Q569.95 96.90 573.05 94.38Q576.14 91.86 578.16 89.34L578.16 89.34L580.18 86.75ZM596.02 100L591.77 100L603.79 48.02L608.04 48.02L596.02 100ZM610.56 100L606.24 100L614.59 64.00L618.91 64.00L610.56 100ZM620.86 55.65L616.46 55.65L617.83 49.89L622.15 49.89L620.86 55.65ZM648.65 64.14L648.65 64.14L649.87 64.43L648.79 67.89Q644.33 67.10 641.16 67.10L641.16 67.10Q636.41 67.10 633.10 70.48L633.10 70.48Q626.76 76.82 626.76 89.42L626.76 89.42Q626.76 93.16 628.63 95.03Q630.50 96.90 634.68 96.90L634.68 96.90Q637.20 96.90 641.45 96.04L641.45 96.04L642.82 95.75L642.60 99.21Q637.70 100.72 633.38 100.72L633.38 100.72Q622.37 100.72 622.37 90.14L622.37 90.14Q622.37 79.26 626.90 71.56L626.90 71.56Q629.21 67.74 632.92 65.51Q636.62 63.28 640.73 63.28Q644.83 63.28 648.65 64.14Z"/></svg>