<svg xmlns="http://www.w3.org/2000/svg" viewBox="0.6480000000000001 50.31999999999999 618.7680000000001 50.616000000000014"><path d="M10.58 65.37L0.65 65.37L0.65 51.76L36.65 51.76L36.65 65.37L27.29 65.37L27.29 100L10.58 100L10.58 65.37ZM55.51 100L39.38 100L39.38 63.64L55.51 63.64L55.51 100ZM55.58 61.34L39.31 61.34L39.31 50.32L55.58 50.32L55.58 61.34ZM83.02 76.67L77.18 76.67L77.18 84.16Q77.18 85.96 77.65 86.57Q78.12 87.18 79.56 87.18L79.56 87.18L82.80 87.11L83.02 99.64Q76.82 100.94 73.51 100.94L73.51 100.94Q66.82 100.94 63.94 98.16Q61.06 95.39 61.06 87.90L61.06 87.90L61.06 76.67L58.25 76.67L58.25 63.64L61.06 63.64L61.06 56.44L77.18 56.44L77.18 63.64L83.02 63.64L83.02 76.67ZM102.38 100L86.26 100L86.26 63.64L102.38 63.64L102.38 100ZM102.46 61.34L86.18 61.34L86.18 50.32L102.46 50.32L102.46 61.34ZM122.54 100L106.42 100L106.42 50.32L122.54 50.32L122.54 100ZM142.70 100L126.58 100L126.58 50.32L142.70 50.32L142.70 100ZM162.86 100L146.74 100L146.74 63.64L162.86 63.64L162.86 100ZM162.94 61.34L146.66 61.34L146.66 50.32L162.94 50.32L162.94 61.34ZM188.28 86.61L188.28 63.64L204.41 63.64L204.41 100L188.42 100L188.42 98.27Q183.82 100.94 180.22 100.94L180.22 100.94Q172.58 100.94 169.56 96.51Q166.54 92.08 166.54 82.43L166.54 82.43L166.54 63.64L182.66 63.64L182.66 81.35Q182.66 84.59 183.24 85.82Q183.82 87.04 185.11 87.04L185.11 87.04L188.28 86.61ZM224.57 76.96L224.57 100L208.44 100L208.44 63.64L224.50 63.64L224.50 65.51Q229.25 62.70 233.82 62.70Q238.39 62.70 241.34 65.94L241.34 65.94Q246.46 62.70 252.14 62.70L252.14 62.70Q260.57 62.70 263.66 67.20Q266.76 71.70 266.76 81.64L266.76 81.64L266.76 100L250.63 100L250.63 83.58Q250.63 76.60 248.26 76.60L248.26 76.60L245.16 77.03Q245.66 78.54 245.66 83.30L245.66 83.30L245.66 100L229.54 100L229.54 83.58Q229.54 76.60 227.23 76.60L227.23 76.60L224.57 76.96ZM313.85 100L290.02 100L284.33 51.76L300.96 51.76L303.26 83.15L304.56 83.15L307.80 52.48L326.02 52.48L329.62 83.15L330.91 83.15L332.35 51.76L349.13 51.76L343.80 100L319.39 100L317.02 70.34L316.30 70.26L313.85 100ZM386.71 86.54L365.90 86.54Q365.98 89.06 369.14 89.06L369.14 89.06Q376.34 89.06 383.54 88.62L383.54 88.62L386.35 88.41L386.71 98.85Q377.14 100.94 367.67 100.94Q358.20 100.94 353.99 96.58Q349.78 92.22 349.78 82.47Q349.78 72.71 354.31 67.71Q358.85 62.70 368.46 62.70Q378.07 62.70 382.75 66.81Q387.43 70.91 387.43 79.41L387.43 79.41L386.71 86.54ZM365.83 77.75L371.30 77.75Q371.30 75.66 370.69 74.80Q370.08 73.94 368.57 73.94Q367.06 73.94 366.48 74.80Q365.90 75.66 365.83 77.75L365.83 77.75ZM414.00 62.70L414.00 62.70Q428.26 62.70 428.26 81.21L428.26 81.21Q428.26 92.30 424.01 96.62Q419.76 100.94 408.53 100.94L408.53 100.94Q403.92 100.94 393.62 99.71L393.62 99.71L390.38 99.28L390.38 50.32L406.51 50.32L406.51 63.86Q411.26 62.70 414.00 62.70ZM408.82 87.90L408.82 87.90Q411.98 87.90 411.98 81.57L411.98 81.57Q411.98 78.18 411.26 76.96Q410.54 75.74 408.82 75.74L408.82 75.74L406.51 76.24L406.51 87.69Q407.45 87.90 408.82 87.90ZM470.45 62.70L470.45 62.70Q484.70 62.70 484.70 81.21L484.70 81.21Q484.70 92.30 480.46 96.62Q476.21 100.94 464.98 100.94L464.98 100.94Q460.37 100.94 450.07 99.71L450.07 99.71L446.83 99.28L446.83 50.32L462.96 50.32L462.96 63.86Q467.71 62.70 470.45 62.70ZM465.26 87.90L465.26 87.90Q468.43 87.90 468.43 81.57L468.43 81.57Q468.43 78.18 467.71 76.96Q466.99 75.74 465.26 75.74L465.26 75.74L462.96 76.24L462.96 87.69Q463.90 87.90 465.26 87.90ZM504.00 100L487.87 100L487.87 50.32L504.00 50.32L504.00 100ZM543.31 75.38L543.31 75.38L543.31 89.06Q543.96 89.56 545.04 89.85L545.04 89.85L544.82 100.07Q539.21 100.94 537.12 100.94Q535.03 100.94 533.30 100.32Q531.58 99.71 531.00 99.06L531.00 99.06L530.42 98.42Q525.96 100.94 519.59 100.94Q513.22 100.94 509.98 98.02Q506.74 95.10 506.74 88.62Q506.74 82.14 510.41 79.95Q514.08 77.75 522.00 77.46L522.00 77.46L527.18 77.25L527.18 76.60Q527.18 75.23 524.16 75.23L524.16 75.23Q517.61 75.23 511.06 75.95L511.06 75.95L508.68 76.17L508.32 65.22Q517.82 62.70 525.67 62.70L525.67 62.70Q533.88 62.70 538.42 65.15L538.42 65.15Q543.31 67.74 543.31 75.38ZM524.45 89.85L524.45 89.85Q525.82 89.85 527.18 88.77L527.18 88.77L527.18 86.10L524.74 86.25Q522.86 86.39 522.86 88.12Q522.86 89.85 524.45 89.85ZM565.27 62.70L565.27 62.70Q570.24 62.70 576.29 64.14L576.29 64.14L578.30 64.58L577.80 77.32Q570.38 76.74 567.86 76.74Q565.34 76.74 564.44 77.86Q563.54 78.98 563.54 81.82Q563.54 84.66 564.44 85.74Q565.34 86.82 567.65 86.82L567.65 86.82L577.94 86.32L578.45 98.92Q571.54 100.94 565.27 100.94L565.27 100.94Q554.90 100.94 551.09 96.65Q547.27 92.37 547.27 81.68Q547.27 70.98 551.38 66.84Q555.48 62.70 565.27 62.70ZM597.74 89.34L597.74 100L581.62 100L581.62 50.32L597.74 50.32L597.74 75.30L599.83 75.30L603.07 63.64L618.98 63.64L613.80 81.21L619.42 100L603.29 100L599.90 89.34L597.74 89.34Z"/></svg>