<svg xmlns="http://www.w3.org/2000/svg" viewBox="0.13 -7.22 53.34 7.33"><path d="M2.33-6.39L0.13-6.39L0.13-6.95L5.13-6.95L5.13-6.39L2.95-6.39L2.95 0L2.33 0L2.33-6.39ZM6.60 0L6.01 0L6.01-5L6.60-5L6.60 0ZM6.60-6.25L6.01-6.25L6.01-7L6.60-7L6.60-6.25ZM10.63-5L10.63-4.47L8.96-4.47L8.96-2Q8.96-1.03 9.10-0.73Q9.24-0.43 9.76-0.43L9.76-0.43L10.68-0.50L10.72 0.01Q10.06 0.11 9.71 0.11L9.71 0.11Q8.95 0.11 8.65-0.27Q8.36-0.64 8.36-1.70L8.36-1.70L8.36-4.47L7.62-4.47L7.62-5L8.36-5L8.36-6.57L8.96-6.57L8.96-5L10.63-5ZM12.16 0L11.57 0L11.57-5L12.16-5L12.16 0ZM12.16-6.25L11.57-6.25L11.57-7L12.16-7L12.16-6.25ZM14.31 0L13.72 0L13.72-7.22L14.31-7.22L14.31 0ZM16.52 0L15.93 0L15.93-7.22L16.52-7.22L16.52 0ZM18.67 0L18.08 0L18.08-5L18.67-5L18.67 0ZM18.67-6.25L18.08-6.25L18.08-7L18.67-7L18.67-6.25ZM23.33-0.86L23.33-5L23.92-5L23.92 0L23.33 0L23.33-0.37Q22.56 0.10 21.79 0.10L21.79 0.10Q20.77 0.10 20.45-0.42Q20.12-0.94 20.12-2.39L20.12-2.39L20.12-5L20.71-5L20.71-2.40Q20.71-1.24 20.93-0.84Q21.14-0.44 21.86-0.44L21.86-0.44Q22.21-0.44 22.58-0.55Q22.95-0.65 23.14-0.76L23.14-0.76L23.33-0.86ZM26.01-4.14L26.01 0L25.42 0L25.42-5L26.01-5L26.01-4.63Q26.77-5.10 27.63-5.10Q28.49-5.10 28.85-4.57L28.85-4.57Q29.21-4.79 29.73-4.95Q30.24-5.10 30.65-5.10L30.65-5.10Q31.65-5.10 31.99-4.58Q32.32-4.05 32.32-2.63L32.32-2.63L32.32 0L31.73 0L31.73-2.60Q31.73-3.75 31.52-4.16Q31.30-4.56 30.58-4.56L30.58-4.56Q30.22-4.56 29.84-4.46Q29.46-4.35 29.26-4.24L29.26-4.24L29.06-4.14Q29.21-3.76 29.21-2.60L29.21-2.60L29.21 0L28.61 0L28.61-2.58Q28.61-3.75 28.40-4.16Q28.18-4.56 27.47-4.56L27.47-4.56Q27.12-4.56 26.76-4.46Q26.39-4.35 26.20-4.24L26.20-4.24L26.01-4.14ZM36.98 0L35.55-6.95L36.18-6.95L37.44-0.55L37.77-0.55L39.23-6.87L39.96-6.87L41.41-0.55L41.74-0.55L43.00-6.95L43.63-6.95L42.20 0L40.96 0L39.59-6.10L38.22 0L36.98 0ZM47.81-0.50L47.81-0.50L48.11-0.53L48.13-0.04Q47.00 0.10 46.22 0.10L46.22 0.10Q45.14 0.09 44.71-0.54Q44.28-1.17 44.28-2.48L44.28-2.48Q44.28-5.10 46.34-5.10L46.34-5.10Q47.33-5.10 47.82-4.54Q48.31-3.97 48.31-2.73L48.31-2.73L48.29-2.25L44.89-2.25Q44.89-1.33 45.21-0.89Q45.52-0.44 46.29-0.44Q47.05-0.44 47.81-0.50ZM44.89-2.75L44.89-2.75L47.71-2.75Q47.71-3.74 47.39-4.16Q47.06-4.58 46.35-4.58Q45.63-4.58 45.26-4.15Q44.89-3.71 44.89-2.75ZM51.69-5.10L51.69-5.10Q52.69-5.10 53.08-4.52Q53.47-3.94 53.47-2.52Q53.47-1.09 52.98-0.49Q52.48 0.10 51.13 0.10L51.13 0.10Q50.57 0.10 49.79 0.02L49.79 0.02L49.53 0L49.53-7.22L50.13-7.22L50.13-4.73Q50.91-5.10 51.69-5.10ZM50.13-4.22L50.13-0.50Q50.83-0.44 51.26-0.44Q51.68-0.44 52.02-0.56Q52.36-0.68 52.55-0.96Q52.73-1.25 52.79-1.61Q52.85-1.98 52.85-2.58L52.85-2.58Q52.85-3.64 52.60-4.10Q52.34-4.56 51.64-4.56L51.64-4.56Q51.30-4.56 50.92-4.48Q50.54-4.39 50.33-4.30L50.33-4.30L50.13-4.22Z"/></svg>