<svg xmlns="http://www.w3.org/2000/svg" viewBox="5.832000000000001 44.12799999999999 490.9680000000001 69.40800000000002"><path d="M25 101L25 101Q20 101 16 100Q13 98 10 95Q8 93 7 89Q6 86 6 81L6 81L6 50L13 50L13 81Q13 88 16 92Q19 95 25 95L25 95Q27 95 30 94Q32 93 33 92Q35 90 36 87Q37 84 37 81L37 81L37 50L44 50L44 81Q44 86 43 89Q41 93 39 95Q37 98 33 100Q30 101 25 101ZM62 44L62 64Q63 63 66 63Q68 62 71 62L71 62Q75 62 79 63Q82 65 84 67Q86 70 87 73Q88 77 88 81L88 81Q88 86 87 89Q86 93 83 96Q81 98 77 99Q74 101 69 101L69 101Q65 101 61 100Q58 100 55 99L55 99L55 45L62 44ZM62 70L62 94Q63 94 65 95Q67 95 69 95L69 95Q75 95 78 91Q81 88 81 81L81 81Q81 78 81 76Q80 73 79 72Q78 70 75 69Q73 68 71 68L71 68Q68 68 66 69Q63 69 62 70L62 70ZM128 63L128 99Q125 99 121 100Q118 101 113 101L113 101Q108 101 105 100Q102 98 101 96Q99 94 98 91Q97 87 97 84L97 84L97 63L104 63L104 82Q104 89 106 92Q108 95 113 95L113 95Q114 95 116 95Q117 95 118 95Q119 95 120 94Q120 94 121 94L121 94L121 63L128 63ZM139 100L139 64Q141 63 145 62Q149 62 154 62L154 62Q158 62 161 63Q164 64 166 67Q168 69 169 72Q169 75 169 79L169 79L169 100L163 100L163 80Q163 77 162 75Q162 72 161 71Q159 69 158 68Q156 68 153 68L153 68Q152 68 151 68Q150 68 149 68Q148 68 147 68Q146 68 146 68L146 68L146 100L139 100ZM187 51L187 63L201 63L201 68L187 68L187 85Q187 88 187 90Q187 92 188 93Q189 94 191 94Q192 95 194 95L194 95Q197 95 198 94Q200 94 201 93L201 93L202 99Q201 99 199 100Q196 101 193 101L193 101Q189 101 187 100Q184 99 183 97Q181 95 181 92Q180 89 180 86L180 86L180 52L187 51ZM239 63L239 99Q237 99 233 100Q229 101 224 101L224 101Q220 101 217 100Q214 98 212 96Q210 94 210 91Q209 87 209 84L209 84L209 63L216 63L216 82Q216 89 218 92Q220 95 225 95L225 95Q226 95 227 95Q228 95 229 95Q230 95 231 94Q232 94 232 94L232 94L232 63L239 63ZM281 62L281 62Q282 62 283 62Q284 62 285 62Q286 62 287 63Q288 63 289 63L289 63L287 69Q287 68 285 68Q283 68 280 68L280 68Q278 68 276 68Q275 68 274 69L274 69L274 100L267 100L267 64Q270 63 273 63Q277 62 281 62ZM293 81L293 81Q293 76 294 73Q296 69 298 67Q301 64 304 63Q307 62 310 62L310 62Q318 62 322 66Q326 71 326 81L326 81Q326 81 326 82Q326 83 326 83L326 83L300 83Q300 89 303 92Q306 95 313 95L313 95Q316 95 318 94Q321 94 322 93L322 93L323 99Q322 99 319 100Q316 101 312 101L312 101Q307 101 303 99Q300 98 298 95Q295 93 294 89Q293 86 293 81ZM300 78L319 78Q319 73 316 70Q314 67 310 67L310 67Q308 67 306 68Q304 69 303 71Q302 72 301 74Q300 76 300 78L300 78ZM359 98L359 96Q358 97 355 98Q353 99 350 99L350 99Q346 99 343 98Q340 96 338 94Q336 92 335 89Q333 85 333 80L333 80Q333 76 334 73Q336 70 338 67Q340 65 344 63Q347 62 351 62L351 62Q356 62 360 62Q363 63 365 64L365 64L365 97Q365 106 361 110Q356 114 347 114L347 114Q344 114 341 113Q338 112 335 112L335 112L337 106Q339 107 341 107Q344 108 348 108L348 108Q354 108 356 105Q359 103 359 98L359 98ZM359 90L359 68Q358 68 356 68Q354 68 351 68L351 68Q346 68 343 71Q340 75 340 81L340 81Q340 84 341 86Q342 88 343 90Q345 91 347 92Q348 93 350 93L350 93Q353 93 355 92Q357 91 359 90L359 90ZM407 63L407 99Q404 99 401 100Q397 101 392 101L392 101Q388 101 385 100Q382 98 380 96Q378 94 377 91Q376 87 376 84L376 84L376 63L383 63L383 82Q383 89 385 92Q388 95 393 95L393 95Q394 95 395 95Q396 95 397 95Q398 95 399 94Q400 94 400 94L400 94L400 63L407 63ZM430 95L429 101Q423 101 421 98Q418 96 418 90L418 90L418 45L425 44L425 89Q425 91 425 92Q425 93 426 94Q427 94 428 95Q429 95 430 95L430 95ZM451 95L451 95Q453 95 455 95Q457 95 458 95L458 95L458 84Q457 83 456 83Q454 83 452 83L452 83Q450 83 448 83Q447 83 445 84Q444 84 443 86Q442 87 442 89L442 89Q442 92 444 94Q447 95 451 95ZM450 62L450 62Q454 62 457 63Q460 64 461 66Q463 68 464 70Q464 73 464 76L464 76L464 99Q464 99 462 100Q460 100 458 100Q457 100 454 101Q452 101 450 101L450 101Q447 101 444 100Q441 99 439 98Q437 97 436 94Q435 92 435 89L435 89Q435 86 437 84Q438 81 440 80Q442 79 445 78Q448 77 451 77L451 77Q452 77 453 77Q454 77 455 78Q456 78 457 78Q458 78 458 78L458 78L458 76Q458 75 457 73Q457 71 456 70Q455 69 454 68Q452 67 449 67L449 67Q446 67 444 68Q441 68 440 69L440 69L439 63Q440 63 443 62Q446 62 450 62ZM489 62L489 62Q490 62 491 62Q492 62 493 62Q495 62 495 63Q496 63 497 63L497 63L496 69Q495 68 493 68Q491 68 488 68L488 68Q486 68 485 68Q483 68 482 69L482 69L482 100L475 100L475 64Q478 63 481 63Q485 62 489 62Z"/></svg>