<svg xmlns="http://www.w3.org/2000/svg" viewBox="9.504000000000001 44.12799999999999 402.76800000000003 56.952000000000005"><path d="M24 101L24 101Q20 101 18 100Q15 99 13 97Q11 95 10 92Q10 90 10 87L10 87Q10 85 10 83Q10 81 10 80L10 80L17 50L24 50L17 80Q17 81 17 83Q16 85 16 86L16 86Q16 88 17 90Q17 91 18 92Q19 94 21 94Q23 95 25 95L25 95Q31 95 35 92Q38 88 40 81L40 81L47 50L54 50L47 81Q46 86 44 89Q43 93 40 95Q38 98 34 100Q30 101 24 101ZM74 44L69 64Q70 63 73 62Q75 62 77 62L77 62Q80 62 83 63Q85 64 86 65Q88 67 89 70Q89 72 89 75L89 75Q89 80 88 84Q86 89 83 93Q80 96 75 99Q70 101 64 101L64 101Q62 101 61 101Q60 101 59 100Q57 100 56 100Q55 99 54 99L54 99L67 45L74 44ZM76 67L76 67Q73 67 71 68Q69 69 67 70L67 70L61 95Q62 95 63 95Q64 95 65 95L65 95Q69 95 72 93Q76 92 78 89Q80 86 82 83Q83 79 83 76L83 76Q83 74 82 72Q82 71 81 70Q80 69 79 68Q78 67 76 67ZM107 101L107 101Q104 101 102 100Q100 99 98 97Q97 96 96 94Q96 92 96 89L96 89Q96 87 96 85Q96 84 97 82L97 82L102 63L108 63L104 80Q104 82 103 84Q102 86 102 89L102 89Q102 90 103 91Q103 92 104 93Q104 94 105 95Q107 95 108 95L108 95Q111 95 114 94Q116 93 118 91L118 91Q118 90 118 88Q118 87 118 86L118 86L124 63L131 63L125 86Q125 88 124 89Q124 91 124 93L124 93Q124 94 124 96Q125 98 125 100L125 100L120 100Q119 100 119 99Q118 98 118 96L118 96Q117 97 116 98Q115 99 114 99Q112 100 111 101Q109 101 107 101ZM147 68L140 100L133 100L142 64Q145 63 149 62Q153 62 156 62L156 62Q159 62 161 63Q164 64 165 65Q166 67 167 69Q168 71 168 74L168 74Q168 75 168 77Q167 79 167 81L167 81L162 100L156 100L160 82Q160 80 161 78Q161 76 161 74L161 74Q161 71 160 69Q158 68 154 68L154 68Q152 68 150 68Q148 68 147 68L147 68ZM185 101L185 101Q180 101 178 99Q175 96 175 92L175 92Q175 89 176 84L176 84L184 52L191 51L188 63L201 63L199 68L187 68L183 85Q182 88 182 91L182 91Q182 93 183 94Q184 95 187 95L187 95Q189 95 191 94Q193 94 195 93L195 93L195 99Q194 99 191 100Q189 101 185 101ZM214 101L214 101Q211 101 209 100Q207 99 206 97Q204 96 204 94Q203 92 203 89L203 89Q203 87 203 85Q204 84 204 82L204 82L209 63L215 63L211 80Q211 82 210 84Q210 86 210 89L210 89Q210 90 210 91Q210 92 211 93Q212 94 213 95Q214 95 216 95L216 95Q219 95 221 94Q223 93 225 91L225 91Q225 90 225 88Q225 87 226 86L226 86L231 63L238 63L232 86Q232 88 232 89Q231 91 231 93L231 93Q231 94 232 96Q232 98 233 100L233 100L227 100Q226 100 226 99Q226 98 226 96L226 96Q225 97 224 98Q223 99 221 99Q220 100 218 101Q216 101 214 101ZM273 63L264 100L257 100L266 63L273 63ZM271 56L271 56Q270 56 269 55Q267 54 267 52L267 52Q267 50 269 48Q270 47 272 47L272 47Q274 47 275 48Q276 49 276 51L276 51Q276 53 275 54Q273 56 271 56ZM288 101L288 101Q282 101 280 99Q277 96 277 92L277 92Q277 89 278 84L278 84L286 52L293 51L290 63L303 63L301 68L289 68L285 85Q284 88 284 91L284 91Q284 93 285 94Q286 95 290 95L290 95Q292 95 294 94Q296 94 297 93L297 93L297 99Q296 99 294 100Q291 101 288 101ZM334 100L328 100Q328 100 327 99Q327 98 327 97L327 97Q325 98 323 99Q320 101 316 101L316 101Q313 101 311 100Q308 99 307 97Q305 95 305 93Q304 90 304 87L304 87Q304 83 306 78Q307 73 311 70Q314 66 319 64Q324 62 330 62L330 62Q332 62 335 62Q337 63 339 64L339 64L334 86Q333 88 333 89Q333 91 333 93L333 93Q333 94 333 96Q333 98 334 100L334 100ZM317 95L317 95Q320 95 323 94Q325 93 326 91L326 91Q326 90 327 88Q327 87 327 86L327 86L331 68Q331 68 330 68Q329 68 329 68L329 68Q325 68 321 69Q318 71 316 73Q313 76 312 79Q311 83 311 87L311 87Q311 88 311 90Q311 91 312 93Q313 94 314 94Q315 95 317 95ZM361 44L352 84Q351 85 351 87Q351 88 351 89L351 89Q351 92 352 93Q353 95 356 95L356 95L355 101Q352 101 350 100Q348 99 346 98Q345 96 345 94Q344 92 344 90L344 90Q344 89 344 87Q345 85 345 83L345 83L354 45L361 44ZM377 63L368 100L362 100L371 63L377 63ZM376 56L376 56Q374 56 373 55Q372 54 372 52L372 52Q372 50 374 48Q375 47 377 47L377 47Q378 47 380 48Q381 49 381 51L381 51Q381 53 379 54Q378 56 376 56ZM381 87L381 87Q381 82 383 77Q384 73 387 69Q390 66 394 64Q398 62 404 62L404 62Q406 62 408 62Q410 62 412 63L412 63L410 69Q409 68 407 68Q406 67 403 67L403 67Q400 67 397 69Q394 71 392 73Q390 76 389 79Q388 82 388 86L388 86Q388 88 388 89Q389 91 390 92Q391 94 392 94Q394 95 397 95L397 95Q398 95 399 95Q401 95 402 94Q403 94 404 93Q405 93 406 93L406 93L406 98Q405 99 402 100Q399 101 395 101L395 101Q392 101 389 100Q387 99 385 97Q383 95 382 92Q381 90 381 87Z"/></svg>