<svg xmlns="http://www.w3.org/2000/svg" viewBox="5.832000000000001 44.12799999999999 490.9680000000001 69.40800000000002"><path d="M24.77 101.08L24.77 101.08Q19.87 101.08 16.27 99.57Q12.67 98.06 10.37 95.43Q8.06 92.80 6.95 89.20Q5.83 85.60 5.83 81.42L5.83 81.42L5.83 50.10L12.82 50.10L12.82 80.63Q12.82 88.12 16.13 91.50Q19.44 94.89 24.77 94.89L24.77 94.89Q27.43 94.89 29.63 94.06Q31.82 93.23 33.41 91.50Q34.99 89.78 35.86 87.08Q36.72 84.38 36.72 80.63L36.72 80.63L36.72 50.10L43.70 50.10L43.70 81.42Q43.70 85.60 42.59 89.20Q41.47 92.80 39.13 95.43Q36.79 98.06 33.23 99.57Q29.66 101.08 24.77 101.08ZM61.99 44.13L61.99 64.22Q63.22 63.42 65.70 62.56Q68.18 61.70 71.42 61.70L71.42 61.70Q75.46 61.70 78.59 63.14Q81.72 64.58 83.88 67.17Q86.04 69.76 87.16 73.36Q88.27 76.96 88.27 81.28L88.27 81.28Q88.27 85.82 86.94 89.45Q85.61 93.09 83.16 95.61Q80.71 98.13 77.26 99.50Q73.80 100.86 69.48 100.86L69.48 100.86Q64.80 100.86 61.20 100.22Q57.60 99.57 55.30 98.92L55.30 98.92L55.30 45.28L61.99 44.13ZM61.99 70.48L61.99 94.17Q63.00 94.46 64.84 94.71Q66.67 94.96 69.41 94.96L69.41 94.96Q74.81 94.96 78.05 91.40Q81.29 87.83 81.29 81.28L81.29 81.28Q81.29 78.40 80.71 75.88Q80.14 73.36 78.84 71.52Q77.54 69.69 75.49 68.64Q73.44 67.60 70.56 67.60L70.56 67.60Q67.82 67.60 65.52 68.54Q63.22 69.47 61.99 70.48L61.99 70.48ZM127.51 62.56L127.51 98.92Q125.21 99.50 121.43 100.14Q117.65 100.79 112.68 100.79L112.68 100.79Q108.36 100.79 105.41 99.53Q102.46 98.27 100.66 95.97Q98.86 93.66 98.06 90.53Q97.27 87.40 97.27 83.58L97.27 83.58L97.27 62.56L103.97 62.56L103.97 82.14Q103.97 88.98 106.13 91.94Q108.29 94.89 113.40 94.89L113.40 94.89Q114.48 94.89 115.63 94.82Q116.78 94.74 117.79 94.64Q118.80 94.53 119.63 94.42Q120.46 94.31 120.82 94.17L120.82 94.17L120.82 62.56L127.51 62.56ZM139.03 100L139.03 63.64Q141.34 63.06 145.15 62.42Q148.97 61.77 153.94 61.77L153.94 61.77Q158.40 61.77 161.35 63.03Q164.30 64.29 166.07 66.56Q167.83 68.82 168.55 71.99Q169.27 75.16 169.27 78.98L169.27 78.98L169.27 100L162.58 100L162.58 80.42Q162.58 76.96 162.11 74.51Q161.64 72.06 160.56 70.55Q159.48 69.04 157.68 68.36Q155.88 67.67 153.22 67.67L153.22 67.67Q152.14 67.67 150.98 67.74Q149.83 67.82 148.79 67.92Q147.74 68.03 146.92 68.18Q146.09 68.32 145.73 68.39L145.73 68.39L145.73 100L139.03 100ZM186.62 50.97L186.62 62.56L200.81 62.56L200.81 68.18L186.62 68.18L186.62 85.46Q186.62 88.26 187.06 90.10Q187.49 91.94 188.35 92.98Q189.22 94.02 190.51 94.46Q191.81 94.89 193.54 94.89L193.54 94.89Q196.56 94.89 198.40 94.20Q200.23 93.52 200.95 93.23L200.95 93.23L202.25 98.78Q201.24 99.28 198.72 100.04Q196.20 100.79 192.96 100.79L192.96 100.79Q189.14 100.79 186.66 99.82Q184.18 98.85 182.66 96.90Q181.15 94.96 180.54 92.12Q179.93 89.27 179.93 85.53L179.93 85.53L179.93 52.12L186.62 50.97ZM239.11 62.56L239.11 98.92Q236.81 99.50 233.03 100.14Q229.25 100.79 224.28 100.79L224.28 100.79Q219.96 100.79 217.01 99.53Q214.06 98.27 212.26 95.97Q210.46 93.66 209.66 90.53Q208.87 87.40 208.87 83.58L208.87 83.58L208.87 62.56L215.57 62.56L215.57 82.14Q215.57 88.98 217.73 91.94Q219.89 94.89 225.00 94.89L225.00 94.89Q226.08 94.89 227.23 94.82Q228.38 94.74 229.39 94.64Q230.40 94.53 231.23 94.42Q232.06 94.31 232.42 94.17L232.42 94.17L232.42 62.56L239.11 62.56ZM281.09 61.77L281.09 61.77Q281.95 61.77 283.07 61.88Q284.18 61.98 285.26 62.16Q286.34 62.34 287.24 62.52Q288.14 62.70 288.58 62.85L288.58 62.85L287.42 68.68Q286.63 68.39 284.80 68.00Q282.96 67.60 280.08 67.60L280.08 67.60Q278.21 67.60 276.37 68.00Q274.54 68.39 273.96 68.54L273.96 68.54L273.96 100L267.26 100L267.26 64.14Q269.64 63.28 273.17 62.52Q276.70 61.77 281.09 61.77ZM292.97 81.35L292.97 81.35Q292.97 76.38 294.41 72.68Q295.85 68.97 298.22 66.52Q300.60 64.07 303.70 62.85Q306.79 61.62 310.03 61.62L310.03 61.62Q317.59 61.62 321.62 66.34Q325.66 71.06 325.66 80.70L325.66 80.70Q325.66 81.14 325.66 81.82Q325.66 82.50 325.58 83.08L325.58 83.08L299.95 83.08Q300.38 88.91 303.34 91.94Q306.29 94.96 312.55 94.96L312.55 94.96Q316.08 94.96 318.49 94.35Q320.90 93.74 322.13 93.16L322.13 93.16L323.06 98.78Q321.84 99.42 318.78 100.14Q315.72 100.86 311.83 100.86L311.83 100.86Q306.94 100.86 303.37 99.39Q299.81 97.91 297.50 95.32Q295.20 92.73 294.08 89.16Q292.97 85.60 292.97 81.35ZM300.10 77.68L318.67 77.68Q318.74 73.14 316.40 70.23Q314.06 67.31 309.96 67.31L309.96 67.31Q307.66 67.31 305.89 68.21Q304.13 69.11 302.90 70.55Q301.68 71.99 301.00 73.86Q300.31 75.74 300.10 77.68L300.10 77.68ZM358.78 97.84L358.78 96.26Q357.91 96.83 355.43 97.73Q352.94 98.63 349.63 98.63L349.63 98.63Q346.25 98.63 343.26 97.55Q340.27 96.47 338.04 94.20Q335.81 91.94 334.51 88.55Q333.22 85.17 333.22 80.49L333.22 80.49Q333.22 76.38 334.44 72.96Q335.66 69.54 338.00 67.06Q340.34 64.58 343.73 63.17Q347.11 61.77 351.36 61.77L351.36 61.77Q356.04 61.77 359.53 62.45Q363.02 63.14 365.40 63.71L365.40 63.71L365.40 97.12Q365.40 105.76 360.94 109.65Q356.47 113.54 347.40 113.54L347.40 113.54Q343.87 113.54 340.74 112.96Q337.61 112.38 335.30 111.59L335.30 111.59L336.53 105.76Q338.54 106.55 341.46 107.16Q344.38 107.78 347.54 107.78L347.54 107.78Q353.52 107.78 356.15 105.40Q358.78 103.02 358.78 97.84L358.78 97.84ZM358.70 90.35L358.70 68.46Q357.70 68.18 356.00 67.92Q354.31 67.67 351.43 67.67L351.43 67.67Q346.03 67.67 343.12 71.20Q340.20 74.73 340.20 80.56L340.20 80.56Q340.20 83.80 341.03 86.10Q341.86 88.41 343.26 89.92Q344.66 91.43 346.50 92.15Q348.34 92.87 350.28 92.87L350.28 92.87Q352.94 92.87 355.18 92.12Q357.41 91.36 358.70 90.35L358.70 90.35ZM406.73 62.56L406.73 98.92Q404.42 99.50 400.64 100.14Q396.86 100.79 391.90 100.79L391.90 100.79Q387.58 100.79 384.62 99.53Q381.67 98.27 379.87 95.97Q378.07 93.66 377.28 90.53Q376.49 87.40 376.49 83.58L376.49 83.58L376.49 62.56L383.18 62.56L383.18 82.14Q383.18 88.98 385.34 91.94Q387.50 94.89 392.62 94.89L392.62 94.89Q393.70 94.89 394.85 94.82Q396 94.74 397.01 94.64Q398.02 94.53 398.84 94.42Q399.67 94.31 400.03 94.17L400.03 94.17L400.03 62.56L406.73 62.56ZM430.42 95.10L429.48 100.72Q423.29 100.58 420.70 98.06Q418.10 95.54 418.10 90.21L418.10 90.21L418.10 45.28L424.80 44.13L424.80 89.13Q424.80 90.78 425.09 91.86Q425.38 92.94 426.02 93.59Q426.67 94.24 427.75 94.56Q428.83 94.89 430.42 95.10L430.42 95.10ZM450.58 95.18L450.58 95.18Q452.95 95.18 454.79 95.07Q456.62 94.96 457.85 94.67L457.85 94.67L457.85 83.51Q457.13 83.15 455.51 82.90Q453.89 82.65 451.58 82.65L451.58 82.65Q450.07 82.65 448.38 82.86Q446.69 83.08 445.28 83.76Q443.88 84.45 442.94 85.64Q442.01 86.82 442.01 88.77L442.01 88.77Q442.01 92.37 444.31 93.77Q446.62 95.18 450.58 95.18ZM450.00 61.62L450.00 61.62Q454.03 61.62 456.80 62.67Q459.58 63.71 461.27 65.62Q462.96 67.53 463.68 70.16Q464.40 72.78 464.40 75.95L464.40 75.95L464.40 99.35Q463.54 99.50 461.99 99.75Q460.44 100 458.50 100.22Q456.55 100.43 454.28 100.61Q452.02 100.79 449.78 100.79L449.78 100.79Q446.62 100.79 443.95 100.14Q441.29 99.50 439.34 98.09Q437.40 96.69 436.32 94.38Q435.24 92.08 435.24 88.84L435.24 88.84Q435.24 85.74 436.50 83.51Q437.76 81.28 439.92 79.91Q442.08 78.54 444.96 77.90Q447.84 77.25 451.01 77.25L451.01 77.25Q452.02 77.25 453.10 77.36Q454.18 77.46 455.15 77.64Q456.12 77.82 456.84 77.97Q457.56 78.11 457.85 78.18L457.85 78.18L457.85 76.31Q457.85 74.66 457.49 73.04Q457.13 71.42 456.19 70.16Q455.26 68.90 453.64 68.14Q452.02 67.38 449.42 67.38L449.42 67.38Q446.11 67.38 443.63 67.85Q441.14 68.32 439.92 68.82L439.92 68.82L439.13 63.28Q440.42 62.70 443.45 62.16Q446.47 61.62 450.00 61.62ZM489.31 61.77L489.31 61.77Q490.18 61.77 491.29 61.88Q492.41 61.98 493.49 62.16Q494.57 62.34 495.47 62.52Q496.37 62.70 496.80 62.85L496.80 62.85L495.65 68.68Q494.86 68.39 493.02 68.00Q491.18 67.60 488.30 67.60L488.30 67.60Q486.43 67.60 484.60 68.00Q482.76 68.39 482.18 68.54L482.18 68.54L482.18 100L475.49 100L475.49 64.14Q477.86 63.28 481.39 62.52Q484.92 61.77 489.31 61.77Z"/></svg>