<svg xmlns="http://www.w3.org/2000/svg" viewBox="6.264000000000001 44.12799999999999 396.5040000000001 69.40800000000002"><path d="M24.48 101.08L24.48 101.08Q19.51 101.08 16.02 99.57Q12.53 98.06 10.37 95.39Q8.21 92.73 7.24 89.16Q6.26 85.60 6.26 81.50L6.26 81.50L6.26 50.10L11.16 50.10L11.16 80.85Q11.16 84.95 12.13 87.94Q13.10 90.93 14.83 92.87Q16.56 94.82 19.01 95.75Q21.46 96.69 24.48 96.69L24.48 96.69Q27.50 96.69 29.95 95.75Q32.40 94.82 34.13 92.87Q35.86 90.93 36.83 87.94Q37.80 84.95 37.80 80.85L37.80 80.85L37.80 50.10L42.70 50.10L42.70 81.50Q42.70 85.60 41.72 89.16Q40.75 92.73 38.59 95.39Q36.43 98.06 32.94 99.57Q29.45 101.08 24.48 101.08ZM59.83 44.13L59.83 65.01Q61.06 64.07 63.76 63.03Q66.46 61.98 70.13 61.98L70.13 61.98Q74.16 61.98 77.29 63.42Q80.42 64.86 82.58 67.46Q84.74 70.05 85.86 73.61Q86.98 77.18 86.98 81.42L86.98 81.42Q86.98 85.96 85.64 89.56Q84.31 93.16 81.90 95.68Q79.49 98.20 76.14 99.53Q72.79 100.86 68.69 100.86L68.69 100.86Q63.72 100.86 60.48 100.22Q57.24 99.57 55.15 98.85L55.15 98.85L55.15 44.99L59.83 44.13ZM59.83 69.54L59.83 95.61Q60.91 95.97 63.04 96.29Q65.16 96.62 68.62 96.62L68.62 96.62Q74.66 96.62 78.34 92.69Q82.01 88.77 82.01 81.42L82.01 81.42Q82.01 78.33 81.36 75.56Q80.71 72.78 79.27 70.73Q77.83 68.68 75.49 67.46Q73.15 66.23 69.70 66.23L69.70 66.23Q68.04 66.23 66.53 66.56Q65.02 66.88 63.72 67.38Q62.42 67.89 61.45 68.46Q60.48 69.04 59.83 69.54L59.83 69.54ZM125.71 62.78L125.71 98.70Q123.62 99.28 120.10 100Q116.57 100.72 111.46 100.72L111.46 100.72Q107.28 100.72 104.47 99.50Q101.66 98.27 99.94 96.04Q98.21 93.81 97.45 90.64Q96.70 87.47 96.70 83.66L96.70 83.66L96.70 62.78L101.38 62.78L101.38 82.14Q101.38 86.10 101.95 88.84Q102.53 91.58 103.82 93.27Q105.12 94.96 107.17 95.72Q109.22 96.47 112.18 96.47L112.18 96.47Q115.49 96.47 117.94 96.11Q120.38 95.75 121.03 95.46L121.03 95.46L121.03 62.78L125.71 62.78ZM138.10 100L138.10 64.07Q140.18 63.50 143.71 62.78Q147.24 62.06 152.35 62.06L152.35 62.06Q156.60 62.06 159.44 63.28Q162.29 64.50 163.98 66.77Q165.67 69.04 166.39 72.21Q167.11 75.38 167.11 79.19L167.11 79.19L167.11 100L162.43 100L162.43 80.70Q162.43 76.74 161.89 74.01Q161.35 71.27 160.09 69.54Q158.83 67.82 156.78 67.06Q154.73 66.30 151.63 66.30L151.63 66.30Q148.32 66.30 145.91 66.66Q143.50 67.02 142.78 67.31L142.78 67.31L142.78 100L138.10 100ZM183.46 50.97L183.46 62.78L198.29 62.78L198.29 66.74L183.46 66.74L183.46 86.54Q183.46 89.70 184.00 91.68Q184.54 93.66 185.54 94.74Q186.55 95.82 187.99 96.18Q189.43 96.54 191.16 96.54L191.16 96.54Q194.11 96.54 195.91 95.86Q197.71 95.18 198.72 94.60L198.72 94.60L199.87 98.49Q198.86 99.14 196.34 99.96Q193.82 100.79 190.87 100.79L190.87 100.79Q187.42 100.79 185.08 99.89Q182.74 98.99 181.33 97.16Q179.93 95.32 179.35 92.58Q178.78 89.85 178.78 86.10L178.78 86.10L178.78 51.83L183.46 50.97ZM235.51 62.78L235.51 98.70Q233.42 99.28 229.90 100Q226.37 100.72 221.26 100.72L221.26 100.72Q217.08 100.72 214.27 99.50Q211.46 98.27 209.74 96.04Q208.01 93.81 207.25 90.64Q206.50 87.47 206.50 83.66L206.50 83.66L206.50 62.78L211.18 62.78L211.18 82.14Q211.18 86.10 211.75 88.84Q212.33 91.58 213.62 93.27Q214.92 94.96 216.97 95.72Q219.02 96.47 221.98 96.47L221.98 96.47Q225.29 96.47 227.74 96.11Q230.18 95.75 230.83 95.46L230.83 95.46L230.83 62.78L235.51 62.78ZM274.39 96.76L273.74 100.65Q271.37 100.58 269.60 100.04Q267.84 99.50 266.65 98.38Q265.46 97.26 264.85 95.50Q264.24 93.74 264.24 91.07L264.24 91.07L264.24 44.99L268.92 44.13L268.92 90.93Q268.92 92.66 269.24 93.70Q269.57 94.74 270.22 95.36Q270.86 95.97 271.91 96.26Q272.95 96.54 274.39 96.76L274.39 96.76ZM287.35 62.78L287.35 100L282.67 100L282.67 62.78L287.35 62.78ZM288.43 51.54L288.43 51.54Q288.43 53.20 287.42 54.17Q286.42 55.14 284.98 55.14L284.98 55.14Q283.54 55.14 282.53 54.17Q281.52 53.20 281.52 51.54L281.52 51.54Q281.52 49.89 282.53 48.92Q283.54 47.94 284.98 47.94L284.98 47.94Q286.42 47.94 287.42 48.92Q288.43 49.89 288.43 51.54ZM324.00 98.13L324.00 95.68Q323.57 96.04 322.70 96.51Q321.84 96.98 320.58 97.48Q319.32 97.98 317.70 98.31Q316.08 98.63 314.06 98.63L314.06 98.63Q310.82 98.63 307.80 97.62Q304.78 96.62 302.51 94.46Q300.24 92.30 298.87 88.88Q297.50 85.46 297.50 80.56L297.50 80.56Q297.50 76.60 298.73 73.22Q299.95 69.83 302.22 67.35Q304.49 64.86 307.76 63.46Q311.04 62.06 315.14 62.06L315.14 62.06Q320.33 62.06 323.46 62.74Q326.59 63.42 328.61 64.07L328.61 64.07L328.61 98.06Q328.61 106.41 324.29 109.97Q319.97 113.54 311.26 113.54L311.26 113.54Q307.66 113.54 304.74 113.00Q301.82 112.46 299.74 111.74L299.74 111.74L300.67 107.49Q302.40 108.28 305.39 108.86Q308.38 109.43 311.40 109.43L311.40 109.43Q318.02 109.43 321.01 106.88Q324.00 104.32 324.00 98.13L324.00 98.13ZM323.93 91.29L323.93 67.31Q322.70 66.95 320.76 66.63Q318.82 66.30 315.22 66.30L315.22 66.30Q312.19 66.30 309.85 67.35Q307.51 68.39 305.86 70.30Q304.20 72.21 303.34 74.84Q302.47 77.46 302.47 80.63L302.47 80.63Q302.47 84.30 303.48 86.93Q304.49 89.56 306.11 91.22Q307.73 92.87 309.82 93.63Q311.90 94.38 314.06 94.38L314.06 94.38Q317.23 94.38 319.86 93.45Q322.49 92.51 323.93 91.29L323.93 91.29ZM345.67 100L340.99 100L340.99 44.99L345.67 44.13L345.67 63.86Q347.98 62.99 350.35 62.52Q352.73 62.06 355.10 62.06L355.10 62.06Q359.42 62.06 362.30 63.28Q365.18 64.50 366.91 66.77Q368.64 69.04 369.32 72.21Q370.01 75.38 370.01 79.19L370.01 79.19L370.01 100L365.33 100L365.33 80.70Q365.33 76.74 364.79 74.01Q364.25 71.27 362.99 69.54Q361.73 67.82 359.64 67.06Q357.55 66.30 354.38 66.30L354.38 66.30Q353.16 66.30 351.76 66.52Q350.35 66.74 349.13 66.99Q347.90 67.24 346.93 67.53Q345.96 67.82 345.67 67.96L345.67 67.96L345.67 100ZM386.35 50.97L386.35 62.78L401.18 62.78L401.18 66.74L386.35 66.74L386.35 86.54Q386.35 89.70 386.89 91.68Q387.43 93.66 388.44 94.74Q389.45 95.82 390.89 96.18Q392.33 96.54 394.06 96.54L394.06 96.54Q397.01 96.54 398.81 95.86Q400.61 95.18 401.62 94.60L401.62 94.60L402.77 98.49Q401.76 99.14 399.24 99.96Q396.72 100.79 393.77 100.79L393.77 100.79Q390.31 100.79 387.97 99.89Q385.63 98.99 384.23 97.16Q382.82 95.32 382.25 92.58Q381.67 89.85 381.67 86.10L381.67 86.10L381.67 51.83L386.35 50.97Z"/></svg>