<svg xmlns="http://www.w3.org/2000/svg" viewBox="5.040000000000001 44.12799999999999 414.21600000000007 56.88"><path d="M25.27 101.01L25.27 101.01Q20.02 101.01 16.20 99.53Q12.38 98.06 9.90 95.43Q7.42 92.80 6.23 89.16Q5.04 85.53 5.04 81.14L5.04 81.14L5.04 50.10L16.27 50.10L16.27 80.20Q16.27 83.22 16.96 85.35Q17.64 87.47 18.83 88.80Q20.02 90.14 21.71 90.71Q23.40 91.29 25.42 91.29L25.42 91.29Q29.52 91.29 32.08 88.77Q34.63 86.25 34.63 80.20L34.63 80.20L34.63 50.10L45.86 50.10L45.86 81.14Q45.86 85.53 44.64 89.20Q43.42 92.87 40.90 95.50Q38.38 98.13 34.49 99.57Q30.60 101.01 25.27 101.01ZM80.21 80.78L80.21 80.78Q80.21 70.41 72.58 70.41L72.58 70.41Q70.92 70.41 69.30 70.84Q67.68 71.27 66.67 71.92L66.67 71.92L66.67 91.43Q67.46 91.58 68.69 91.68Q69.91 91.79 71.35 91.79L71.35 91.79Q75.74 91.79 77.98 88.77Q80.21 85.74 80.21 80.78ZM91.15 81.06L91.15 81.06Q91.15 85.60 89.82 89.27Q88.49 92.94 85.97 95.54Q83.45 98.13 79.78 99.53Q76.10 100.94 71.42 100.94L71.42 100.94Q69.48 100.94 67.36 100.76Q65.23 100.58 63.18 100.29Q61.13 100 59.26 99.60Q57.38 99.21 55.94 98.78L55.94 98.78L55.94 45.86L66.67 44.13L66.67 62.99Q68.47 62.20 70.42 61.77Q72.36 61.34 74.59 61.34L74.59 61.34Q78.62 61.34 81.72 62.74Q84.82 64.14 86.90 66.74Q88.99 69.33 90.07 72.96Q91.15 76.60 91.15 81.06ZM131.76 62.13L131.76 98.70Q129.02 99.50 124.70 100.18Q120.38 100.86 115.63 100.86L115.63 100.86Q110.81 100.86 107.60 99.57Q104.40 98.27 102.53 95.93Q100.66 93.59 99.86 90.35Q99.07 87.11 99.07 83.22L99.07 83.22L99.07 62.13L109.80 62.13L109.80 81.93Q109.80 87.11 111.17 89.42Q112.54 91.72 116.28 91.72L116.28 91.72Q117.43 91.72 118.73 91.61Q120.02 91.50 121.03 91.36L121.03 91.36L121.03 62.13L131.76 62.13ZM141.84 100L141.84 63.42Q144.58 62.63 148.90 61.95Q153.22 61.26 157.97 61.26L157.97 61.26Q162.79 61.26 166.00 62.52Q169.20 63.78 171.07 66.09Q172.94 68.39 173.74 71.56Q174.53 74.73 174.53 78.62L174.53 78.62L174.53 100L163.80 100L163.80 79.91Q163.80 74.73 162.43 72.57Q161.06 70.41 157.32 70.41L157.32 70.41Q156.17 70.41 154.87 70.52Q153.58 70.62 152.57 70.77L152.57 70.77L152.57 100L141.84 100ZM183.89 84.52L183.89 52.70L194.62 50.97L194.62 62.13L207.50 62.13L207.50 71.06L194.62 71.06L194.62 84.38Q194.62 87.76 195.80 89.78Q196.99 91.79 200.59 91.79L200.59 91.79Q202.32 91.79 204.16 91.47Q205.99 91.14 207.50 90.57L207.50 90.57L209.02 98.92Q207.07 99.71 204.70 100.29Q202.32 100.86 198.86 100.86L198.86 100.86Q194.47 100.86 191.59 99.68Q188.71 98.49 186.98 96.36Q185.26 94.24 184.57 91.22Q183.89 88.19 183.89 84.52L183.89 84.52ZM248.54 62.13L248.54 98.70Q245.81 99.50 241.49 100.18Q237.17 100.86 232.42 100.86L232.42 100.86Q227.59 100.86 224.39 99.57Q221.18 98.27 219.31 95.93Q217.44 93.59 216.65 90.35Q215.86 87.11 215.86 83.22L215.86 83.22L215.86 62.13L226.58 62.13L226.58 81.93Q226.58 87.11 227.95 89.42Q229.32 91.72 233.06 91.72L233.06 91.72Q234.22 91.72 235.51 91.61Q236.81 91.50 237.82 91.36L237.82 91.36L237.82 62.13L248.54 62.13ZM300.17 80.78L300.17 80.78Q300.17 70.41 292.54 70.41L292.54 70.41Q290.88 70.41 289.26 70.84Q287.64 71.27 286.63 71.92L286.63 71.92L286.63 91.43Q287.42 91.58 288.65 91.68Q289.87 91.79 291.31 91.79L291.31 91.79Q295.70 91.79 297.94 88.77Q300.17 85.74 300.17 80.78ZM311.11 81.06L311.11 81.06Q311.11 85.60 309.78 89.27Q308.45 92.94 305.93 95.54Q303.41 98.13 299.74 99.53Q296.06 100.94 291.38 100.94L291.38 100.94Q289.44 100.94 287.32 100.76Q285.19 100.58 283.14 100.29Q281.09 100 279.22 99.60Q277.34 99.21 275.90 98.78L275.90 98.78L275.90 45.86L286.63 44.13L286.63 62.99Q288.43 62.20 290.38 61.77Q292.32 61.34 294.55 61.34L294.55 61.34Q298.58 61.34 301.68 62.74Q304.78 64.14 306.86 66.74Q308.95 69.33 310.03 72.96Q311.11 76.60 311.11 81.06ZM354.82 80.99L354.82 80.99Q354.82 85.46 353.52 89.16Q352.22 92.87 349.78 95.50Q347.33 98.13 343.91 99.57Q340.49 101.01 336.24 101.01L336.24 101.01Q332.06 101.01 328.64 99.57Q325.22 98.13 322.78 95.50Q320.33 92.87 318.96 89.16Q317.59 85.46 317.59 80.99L317.59 80.99Q317.59 76.53 319.00 72.86Q320.40 69.18 322.88 66.59Q325.37 64.00 328.79 62.56Q332.21 61.12 336.24 61.12L336.24 61.12Q340.34 61.12 343.76 62.56Q347.18 64.00 349.63 66.59Q352.08 69.18 353.45 72.86Q354.82 76.53 354.82 80.99ZM343.87 80.99L343.87 80.99Q343.87 76.02 341.89 73.18Q339.91 70.34 336.24 70.34L336.24 70.34Q332.57 70.34 330.55 73.18Q328.54 76.02 328.54 80.99L328.54 80.99Q328.54 85.96 330.55 88.88Q332.57 91.79 336.24 91.79L336.24 91.79Q339.91 91.79 341.89 88.88Q343.87 85.96 343.87 80.99ZM379.73 91.86L378.22 100.72Q373.54 100.65 370.62 99.71Q367.70 98.78 366.01 97.08Q364.32 95.39 363.71 92.98Q363.10 90.57 363.10 87.54L363.10 87.54L363.10 45.86L373.82 44.13L373.82 85.38Q373.82 86.82 374.04 87.98Q374.26 89.13 374.87 89.92Q375.48 90.71 376.63 91.22Q377.78 91.72 379.73 91.86L379.73 91.86ZM394.99 80.78L394.99 80.78Q394.99 85.74 397.22 88.77Q399.46 91.79 403.85 91.79L403.85 91.79Q405.29 91.79 406.51 91.68Q407.74 91.58 408.53 91.43L408.53 91.43L408.53 71.92Q407.52 71.27 405.90 70.84Q404.28 70.41 402.62 70.41L402.62 70.41Q394.99 70.41 394.99 80.78ZM419.26 44.13L419.26 98.78Q417.82 99.21 415.94 99.60Q414.07 100 412.02 100.29Q409.97 100.58 407.84 100.76Q405.72 100.94 403.78 100.94L403.78 100.94Q399.10 100.94 395.42 99.57Q391.75 98.20 389.23 95.64Q386.71 93.09 385.38 89.45Q384.05 85.82 384.05 81.28L384.05 81.28Q384.05 76.67 385.20 72.96Q386.35 69.26 388.51 66.66Q390.67 64.07 393.80 62.70Q396.94 61.34 400.97 61.34L400.97 61.34Q403.20 61.34 404.96 61.77Q406.73 62.20 408.53 62.99L408.53 62.99L408.53 45.86L419.26 44.13Z"/></svg>