<svg xmlns="http://www.w3.org/2000/svg" viewBox="1.29 -7.76 32.56 7.91"><path d="M7.65-6.93L6.60-2.55Q6.45-1.91 6.22-1.41Q5.99-0.91 5.63-0.57Q5.26-0.22 4.74-0.04Q4.21 0.15 3.47 0.15L3.47 0.15Q2.89 0.15 2.48-0.01Q2.06-0.16 1.80-0.43Q1.54-0.70 1.42-1.07Q1.29-1.45 1.29-1.89L1.29-1.89Q1.29-2.12 1.32-2.40Q1.36-2.68 1.43-2.94L1.43-2.94L2.38-6.93L3.65-6.93L2.66-2.80Q2.61-2.61 2.58-2.41Q2.55-2.20 2.55-2.01L2.55-2.01Q2.55-1.79 2.60-1.59Q2.66-1.40 2.79-1.26Q2.92-1.12 3.13-1.03Q3.34-0.95 3.65-0.95L3.65-0.95Q4.38-0.95 4.77-1.38Q5.16-1.81 5.36-2.67L5.36-2.67L6.38-6.93L7.65-6.93ZM10.92-5.35L10.92-5.35Q11.38-5.35 11.71-5.20Q12.05-5.04 12.27-4.77Q12.49-4.50 12.60-4.13Q12.71-3.77 12.71-3.35L12.71-3.35Q12.71-2.66 12.47-2.03Q12.23-1.40 11.79-0.92Q11.34-0.44 10.70-0.15Q10.06 0.13 9.26 0.13L9.26 0.13Q9.14 0.13 8.94 0.12Q8.74 0.11 8.50 0.07Q8.26 0.03 8.01-0.04Q7.76-0.11 7.55-0.22L7.55-0.22L9.30-7.56L10.56-7.76L9.92-5.08Q10.14-5.19 10.39-5.27Q10.64-5.35 10.92-5.35ZM9.42-0.89L9.42-0.89Q9.88-0.89 10.27-1.08Q10.65-1.28 10.93-1.61Q11.20-1.94 11.35-2.37Q11.50-2.79 11.50-3.25L11.50-3.25Q11.50-3.48 11.46-3.68Q11.42-3.87 11.32-4.01Q11.22-4.16 11.05-4.25Q10.88-4.33 10.62-4.33L10.62-4.33Q10.40-4.33 10.14-4.25Q9.88-4.17 9.66-4L9.66-4L8.93-0.94Q9.02-0.92 9.14-0.91Q9.25-0.89 9.42-0.89ZM17.33-5.23L18.54-5.23L17.80-2.12Q17.75-1.89 17.73-1.66Q17.70-1.43 17.70-1.20L17.70-1.20Q17.70-0.91 17.75-0.63Q17.79-0.35 17.90-0.08L17.90-0.08L16.82 0.08Q16.76-0.03 16.71-0.17Q16.67-0.30 16.63-0.44L16.63-0.44Q16.38-0.24 16.01-0.06Q15.64 0.13 15.15 0.13L15.15 0.13Q14.71 0.13 14.40 0Q14.09-0.13 13.90-0.35Q13.70-0.58 13.62-0.89Q13.53-1.19 13.53-1.53L13.53-1.53Q13.53-1.97 13.65-2.48L13.65-2.48L14.31-5.23L15.52-5.23L14.87-2.51Q14.74-1.99 14.74-1.66L14.74-1.66Q14.74-1.50 14.77-1.36Q14.80-1.22 14.88-1.11Q14.95-1.01 15.09-0.95Q15.22-0.89 15.42-0.89L15.42-0.89Q15.75-0.89 16.01-1.02Q16.27-1.16 16.49-1.39L16.49-1.39Q16.52-1.82 16.63-2.27L16.63-2.27L17.33-5.23ZM18.86 0L20.06-5.01Q20.46-5.13 20.98-5.24Q21.49-5.34 22.10-5.34L22.10-5.34Q23.02-5.34 23.45-4.89Q23.88-4.44 23.88-3.68L23.88-3.68Q23.88-3.47 23.85-3.23Q23.81-3 23.76-2.75L23.76-2.75L23.10 0L21.89 0L22.51-2.62Q22.56-2.84 22.61-3.07Q22.66-3.30 22.67-3.51L22.67-3.51Q22.68-3.86 22.51-4.09Q22.33-4.32 21.82-4.32L21.82-4.32Q21.39-4.32 21.08-4.23L21.08-4.23L20.07 0L18.86 0ZM24.92-2.31L25.94-6.61L27.20-6.81L26.82-5.23L28.53-5.23L28.29-4.23L26.58-4.23L26.08-2.16Q26.03-1.94 26.01-1.79Q25.99-1.65 25.99-1.53L25.99-1.53Q25.99-1.41 26.02-1.29Q26.04-1.18 26.12-1.09Q26.19-1.01 26.34-0.96Q26.48-0.90 26.73-0.90L26.73-0.90Q27-0.90 27.25-0.97Q27.50-1.04 27.69-1.12L27.69-1.12L27.78-0.15Q27.55-0.05 27.20 0.04Q26.85 0.13 26.38 0.13L26.38 0.13Q25.52 0.13 25.15-0.24Q24.78-0.62 24.78-1.27L24.78-1.27Q24.78-1.51 24.82-1.77Q24.85-2.02 24.92-2.31L24.92-2.31ZM32.64-5.23L33.85-5.23L33.11-2.12Q33.06-1.89 33.04-1.66Q33.01-1.43 33.01-1.20L33.01-1.20Q33.01-0.91 33.06-0.63Q33.10-0.35 33.21-0.08L33.21-0.08L32.13 0.08Q32.07-0.03 32.03-0.17Q31.98-0.30 31.94-0.44L31.94-0.44Q31.69-0.24 31.32-0.06Q30.95 0.13 30.46 0.13L30.46 0.13Q30.02 0.13 29.71 0Q29.40-0.13 29.21-0.35Q29.01-0.58 28.93-0.89Q28.84-1.19 28.84-1.53L28.84-1.53Q28.84-1.97 28.96-2.48L28.96-2.48L29.62-5.23L30.83-5.23L30.18-2.51Q30.05-1.99 30.05-1.66L30.05-1.66Q30.05-1.50 30.08-1.36Q30.11-1.22 30.19-1.11Q30.26-1.01 30.40-0.95Q30.53-0.89 30.73-0.89L30.73-0.89Q31.06-0.89 31.32-1.02Q31.58-1.16 31.80-1.39L31.80-1.39Q31.83-1.82 31.94-2.27L31.94-2.27L32.64-5.23Z"/></svg>