<svg xmlns="http://www.w3.org/2000/svg" viewBox="5.6160000000000005 44.12799999999999 526.1760000000002 56.952000000000005"><path d="M25 101L25 101Q20 101 16 100Q13 98 10 95Q8 93 7 89Q6 86 6 81L6 81L6 50L15 50L15 80Q15 84 16 86Q16 89 18 90Q19 92 21 92Q23 93 25 93L25 93Q28 93 30 92Q32 92 33 90Q34 89 35 86Q36 84 36 80L36 80L36 50L45 50L45 81Q45 86 44 89Q43 93 40 95Q38 98 34 100Q30 101 25 101ZM81 81L81 81Q81 76 79 72Q77 69 72 69L72 69Q70 69 68 70Q66 70 65 71L65 71L65 93Q66 93 67 93Q69 93 71 93L71 93Q76 93 78 90Q81 87 81 81ZM90 81L90 81Q90 86 89 89Q87 93 85 96Q82 98 79 100Q75 101 71 101L71 101Q67 101 63 100Q59 100 56 99L56 99L56 46L65 44L65 64Q66 63 69 62Q71 62 73 62L73 62Q77 62 81 63Q84 64 86 67Q88 70 89 73Q90 77 90 81ZM130 62L130 99Q127 99 123 100Q119 101 115 101L115 101Q110 101 107 100Q104 98 102 96Q100 94 99 90Q99 87 99 83L99 83L99 62L107 62L107 82Q107 88 109 91Q111 93 115 93L115 93Q117 93 119 93Q120 93 121 93L121 93L121 62L130 62ZM141 100L141 64Q144 63 148 62Q152 62 157 62L157 62Q161 62 164 63Q167 64 169 66Q171 69 172 72Q173 75 173 79L173 79L173 100L164 100L164 80Q164 77 163 75Q163 73 162 72Q161 70 160 70Q158 69 156 69L156 69Q154 69 152 69Q151 69 150 70L150 70L150 100L141 100ZM183 85L183 52L191 51L191 62L205 62L205 70L191 70L191 85Q191 89 193 91Q194 93 198 93L198 93Q200 93 202 93Q204 92 205 92L205 92L206 99Q205 99 202 100Q200 101 197 101L197 101Q193 101 190 100Q187 99 186 97Q184 95 183 92Q183 89 183 85L183 85ZM244 62L244 99Q242 99 238 100Q234 101 229 101L229 101Q224 101 221 100Q218 98 216 96Q214 94 214 90Q213 87 213 83L213 83L213 62L222 62L222 82Q222 88 223 91Q225 93 229 93L229 93Q231 93 233 93Q235 93 235 93L235 93L235 62L244 62ZM293 100L293 80Q293 74 292 72Q291 69 286 69L286 69Q285 69 283 69Q282 69 281 70L281 70L281 100L272 100L272 64Q275 63 279 62Q283 62 287 62L287 62Q291 62 294 63Q296 64 298 65L298 65Q299 65 300 64Q301 63 302 63Q304 62 306 62Q307 62 309 62L309 62Q313 62 316 63Q319 64 321 66Q322 69 323 72Q324 75 324 79L324 79L324 100L315 100L315 80Q315 74 313 72Q312 69 308 69L308 69Q306 69 304 70Q302 70 301 71L301 71Q302 73 302 75Q302 77 302 79L302 79L302 100L293 100ZM332 81L332 81Q332 76 334 73Q335 69 338 66Q340 64 343 63Q346 61 350 61L350 61Q357 61 362 66Q366 71 366 81L366 81Q366 81 366 82Q366 83 366 84L366 84L341 84Q342 88 344 91Q347 93 353 93L353 93Q356 93 358 93Q361 92 363 92L363 92L364 99Q363 99 362 99Q361 100 359 100Q357 101 355 101Q354 101 352 101L352 101Q347 101 343 99Q339 98 337 95Q335 93 333 89Q332 86 332 81ZM341 77L357 77Q357 76 357 74Q356 72 356 71Q355 70 353 69Q352 69 350 69L350 69Q348 69 346 69Q345 70 344 71Q343 73 342 74Q341 76 341 77L341 77ZM382 81L382 81Q382 87 385 90Q388 93 393 93L393 93Q395 93 396 93Q398 93 399 93L399 93L399 71Q397 70 395 70Q394 69 391 69L391 69Q387 69 384 72Q382 76 382 81ZM407 44L407 99Q405 100 401 100Q397 101 392 101L392 101Q388 101 384 100Q381 98 378 96Q376 93 375 89Q373 86 373 81L373 81Q373 77 374 73Q376 70 378 67Q380 64 383 63Q386 62 390 62L390 62Q393 62 395 62Q397 63 399 64L399 64L399 46L407 44ZM427 62L427 100L418 100L418 62L427 62ZM428 51L428 51Q428 54 426 55Q425 57 423 57L423 57Q420 57 419 55Q417 54 417 51L417 51Q417 49 419 47Q420 46 423 46L423 46Q425 46 426 47Q428 49 428 51ZM469 62L469 99Q467 99 463 100Q458 101 454 101L454 101Q449 101 446 100Q443 98 441 96Q439 94 439 90Q438 87 438 83L438 83L438 62L446 62L446 82Q446 88 448 91Q450 93 454 93L454 93Q456 93 458 93Q460 93 460 93L460 93L460 62L469 62ZM502 100L502 80Q502 74 500 72Q499 69 495 69L495 69Q493 69 491 69Q490 69 489 70L489 70L489 100L480 100L480 64Q483 63 487 62Q491 62 495 62L495 62Q499 62 502 63Q504 64 506 65L506 65Q507 65 508 64Q509 63 511 63Q512 62 514 62Q516 62 517 62L517 62Q522 62 524 63Q527 64 529 66Q531 69 531 72Q532 75 532 79L532 79L532 100L523 100L523 80Q523 74 522 72Q520 69 516 69L516 69Q514 69 512 70Q510 70 509 71L509 71Q510 73 510 75Q510 77 510 79L510 79L510 100L502 100Z"/></svg>