<svg xmlns="http://www.w3.org/2000/svg" viewBox="0.78 -7.76 68.53 7.91"><path d="M2.72 0.15L2.72 0.15Q1.75 0.15 1.27-0.40Q0.78-0.95 0.78-2.14L0.78-2.14L0.78-6.93L1.68-6.93L1.68-2.22Q1.68-1.43 1.91-1.03Q2.14-0.64 2.74-0.64L2.74-0.64Q3.36-0.64 3.58-1.04Q3.81-1.45 3.81-2.22L3.81-2.22L3.81-6.93L4.71-6.93L4.71-2.14Q4.71-0.97 4.21-0.41Q3.71 0.15 2.72 0.15ZM7.12-4.46L7.12-0.70Q7.26-0.66 7.39-0.65Q7.52-0.63 7.63-0.63L7.63-0.63Q8.21-0.63 8.50-1.09Q8.78-1.56 8.78-2.64L8.78-2.64Q8.78-3.20 8.71-3.58Q8.64-3.96 8.51-4.19Q8.37-4.42 8.18-4.52Q7.99-4.62 7.74-4.62L7.74-4.62Q7.41-4.62 7.12-4.46L7.12-4.46ZM7.12-7.76L7.12-5.21Q7.28-5.29 7.45-5.33Q7.61-5.38 7.84-5.38L7.84-5.38Q8.33-5.38 8.68-5.19Q9.03-4.99 9.25-4.63Q9.47-4.28 9.57-3.77Q9.68-3.27 9.68-2.64L9.68-2.64Q9.68-1.25 9.19-0.56Q8.69 0.13 7.63 0.13L7.63 0.13Q7.26 0.13 6.90 0.06Q6.54-0.02 6.26-0.14L6.26-0.14L6.26-7.61L7.12-7.76ZM14.19-5.25L14.19-0.15Q14.06-0.10 13.88-0.06Q13.69-0.01 13.48 0.03Q13.28 0.06 13.07 0.09Q12.87 0.11 12.70 0.11L12.70 0.11Q12.29 0.11 11.95 0.01Q11.61-0.08 11.37-0.32Q11.13-0.56 11-0.97Q10.87-1.39 10.87-2.02L10.87-2.02L10.87-5.25L11.73-5.25L11.73-2.05Q11.73-1.28 11.96-0.96Q12.20-0.65 12.68-0.65L12.68-0.65Q12.84-0.65 13-0.67Q13.16-0.68 13.33-0.73L13.33-0.73L13.33-5.25L14.19-5.25ZM15.74 0L15.74-5.10Q16.11-5.21 16.54-5.29Q16.97-5.36 17.33-5.36L17.33-5.36Q17.72-5.36 18.04-5.25Q18.36-5.15 18.59-4.90Q18.81-4.65 18.94-4.22Q19.06-3.80 19.06-3.17L19.06-3.17L19.06 0L18.20 0L18.20-3.10Q18.20-3.88 18-4.24Q17.80-4.60 17.25-4.60L17.25-4.60Q16.96-4.60 16.60-4.50L16.60-4.50L16.60 0L15.74 0ZM21.36-6.81L21.36-5.25L22.68-5.25L22.68-4.51L21.36-4.51L21.36-1.62Q21.36-1.08 21.55-0.86Q21.75-0.65 22.08-0.65L22.08-0.65Q22.25-0.65 22.41-0.70Q22.56-0.75 22.67-0.82L22.67-0.82L22.84-0.13Q22.43 0.11 21.97 0.11L21.97 0.11Q21.23 0.11 20.87-0.30Q20.50-0.72 20.50-1.68L20.50-1.68L20.50-6.66L21.36-6.81ZM27.02-5.25L27.02-0.15Q26.89-0.10 26.71-0.06Q26.52-0.01 26.32 0.03Q26.11 0.06 25.91 0.09Q25.70 0.11 25.53 0.11L25.53 0.11Q25.12 0.11 24.78 0.01Q24.44-0.08 24.20-0.32Q23.96-0.56 23.83-0.97Q23.70-1.39 23.70-2.02L23.70-2.02L23.70-5.25L24.56-5.25L24.56-2.05Q24.56-1.28 24.80-0.96Q25.03-0.65 25.51-0.65L25.51-0.65Q25.67-0.65 25.83-0.67Q25.99-0.68 26.16-0.73L26.16-0.73L26.16-5.25L27.02-5.25ZM32.81 0.15L32.81 0.15Q31.59 0.15 30.94-0.76Q30.29-1.67 30.29-3.57L30.29-3.57Q30.29-4.54 30.48-5.21Q30.66-5.88 30.99-6.30Q31.32-6.72 31.77-6.91Q32.22-7.09 32.75-7.09L32.75-7.09Q33.19-7.09 33.57-6.98Q33.95-6.86 34.19-6.69L34.19-6.69L33.92-5.94Q33.68-6.10 33.41-6.20Q33.13-6.30 32.77-6.30L32.77-6.30Q31.97-6.30 31.61-5.63Q31.25-4.97 31.25-3.57L31.25-3.57Q31.25-2.16 31.63-1.40Q32.01-0.64 32.87-0.64L32.87-0.64Q33.28-0.64 33.54-0.74Q33.79-0.84 34.03-1L34.03-1L34.28-0.29Q34.05-0.11 33.68 0.02Q33.30 0.15 32.81 0.15ZM38.49-2.62L38.49-2.62Q38.49-2 38.38-1.50Q38.27-0.99 38.04-0.63Q37.82-0.27 37.47-0.07Q37.13 0.13 36.66 0.13L36.66 0.13Q36.19 0.13 35.84-0.07Q35.49-0.27 35.26-0.63Q35.04-0.99 34.93-1.50Q34.82-2 34.82-2.62L34.82-2.62Q34.82-3.23 34.93-3.74Q35.04-4.25 35.26-4.62Q35.49-4.98 35.84-5.18Q36.19-5.38 36.66-5.38L36.66-5.38Q37.13-5.38 37.47-5.18Q37.82-4.98 38.04-4.62Q38.27-4.25 38.38-3.74Q38.49-3.23 38.49-2.62ZM37.59-2.62L37.59-2.62Q37.59-3.06 37.54-3.43Q37.49-3.79 37.38-4.05Q37.27-4.32 37.09-4.46Q36.91-4.61 36.66-4.61L36.66-4.61Q36.40-4.61 36.22-4.46Q36.05-4.32 35.93-4.05Q35.82-3.79 35.77-3.43Q35.72-3.06 35.72-2.62L35.72-2.62Q35.72-2.18 35.77-1.81Q35.82-1.45 35.93-1.19Q36.05-0.93 36.22-0.79Q36.40-0.64 36.66-0.64L36.66-0.64Q36.91-0.64 37.09-0.79Q37.27-0.93 37.38-1.19Q37.49-1.45 37.54-1.81Q37.59-2.18 37.59-2.62ZM39.75 0L39.75-5.10Q40.12-5.21 40.55-5.29Q40.98-5.36 41.34-5.36L41.34-5.36Q41.73-5.36 42.05-5.25Q42.37-5.15 42.59-4.90Q42.82-4.65 42.95-4.22Q43.07-3.80 43.07-3.17L43.07-3.17L43.07 0L42.21 0L42.21-3.10Q42.21-3.88 42.01-4.24Q41.81-4.60 41.26-4.60L41.26-4.60Q40.97-4.60 40.61-4.50L40.61-4.50L40.61 0L39.75 0ZM46.83-0.70L46.83-4.46Q46.54-4.62 46.21-4.62L46.21-4.62Q45.96-4.62 45.77-4.52Q45.58-4.42 45.45-4.19Q45.31-3.96 45.24-3.58Q45.17-3.20 45.17-2.64L45.17-2.64Q45.17-1.56 45.45-1.09Q45.74-0.63 46.32-0.63L46.32-0.63Q46.43-0.63 46.56-0.65Q46.69-0.66 46.83-0.70L46.83-0.70ZM46.83-5.21L46.83-7.61L47.69-7.76L47.69-0.14Q47.41-0.02 47.05 0.06Q46.69 0.13 46.32 0.13L46.32 0.13Q45.24 0.13 44.76-0.56Q44.27-1.25 44.27-2.64L44.27-2.64Q44.27-3.27 44.38-3.77Q44.48-4.28 44.70-4.63Q44.93-4.99 45.28-5.19Q45.63-5.38 46.11-5.38L46.11-5.38Q46.34-5.38 46.50-5.33Q46.67-5.29 46.83-5.21L46.83-5.21ZM52.32-2.37L49.83-2.37Q49.84-1.99 49.90-1.68Q49.96-1.36 50.09-1.13Q50.23-0.89 50.45-0.76Q50.68-0.63 51.03-0.63L51.03-0.63Q51.32-0.63 51.56-0.71Q51.81-0.80 51.92-0.86L51.92-0.86L52.08-0.17Q51.95-0.08 51.65 0.03Q51.34 0.13 50.92 0.13L50.92 0.13Q50.37 0.13 50.00-0.07Q49.62-0.27 49.38-0.63Q49.15-0.99 49.05-1.49Q48.95-1.99 48.95-2.59L48.95-2.59Q48.95-4.04 49.43-4.71Q49.91-5.38 50.70-5.38L50.70-5.38Q51.59-5.38 51.96-4.71Q52.33-4.04 52.33-2.83L52.33-2.83Q52.33-2.72 52.33-2.60Q52.33-2.49 52.32-2.37L52.32-2.37ZM50.70-4.65L50.70-4.65Q50.27-4.65 50.08-4.22Q49.88-3.79 49.84-3.07L49.84-3.07L51.43-3.07Q51.43-3.80 51.28-4.22Q51.13-4.65 50.70-4.65ZM53.60 0L53.60-5.10Q53.97-5.21 54.40-5.29Q54.83-5.36 55.19-5.36L55.19-5.36Q55.58-5.36 55.90-5.25Q56.22-5.15 56.45-4.90Q56.67-4.65 56.80-4.22Q56.92-3.80 56.92-3.17L56.92-3.17L56.92 0L56.06 0L56.06-3.10Q56.06-3.88 55.86-4.24Q55.66-4.60 55.11-4.60L55.11-4.60Q54.82-4.60 54.46-4.50L54.46-4.50L54.46 0L53.60 0ZM59.15-0.61L59.15-0.61Q59.53-0.61 59.73-0.83Q59.92-1.04 59.92-1.39L59.92-1.39Q59.92-1.61 59.84-1.77Q59.76-1.92 59.63-2.04Q59.50-2.16 59.33-2.25Q59.16-2.35 58.99-2.46L58.99-2.46Q58.82-2.56 58.66-2.69Q58.50-2.83 58.38-3.00Q58.25-3.18 58.17-3.41Q58.10-3.63 58.10-3.93L58.10-3.93Q58.10-4.58 58.51-4.98Q58.91-5.38 59.60-5.38L59.60-5.38Q59.89-5.38 60.15-5.30Q60.41-5.23 60.58-5.14L60.58-5.14L60.39-4.45Q60.21-4.55 60.03-4.60Q59.85-4.65 59.64-4.65L59.64-4.65Q59.32-4.65 59.13-4.46Q58.94-4.28 58.94-3.93L58.94-3.93Q58.94-3.73 59.01-3.58Q59.08-3.44 59.20-3.33Q59.31-3.21 59.45-3.11Q59.60-3.01 59.76-2.92L59.76-2.92Q59.95-2.81 60.13-2.68Q60.32-2.55 60.47-2.38Q60.61-2.20 60.70-1.97Q60.79-1.73 60.79-1.40L60.79-1.40Q60.79-0.71 60.38-0.29Q59.98 0.13 59.20 0.13L59.20 0.13Q58.80 0.13 58.48 0.02Q58.16-0.09 58-0.18L58-0.18L58.18-0.89Q58.33-0.81 58.59-0.71Q58.84-0.61 59.15-0.61ZM64.91-2.37L62.42-2.37Q62.43-1.99 62.49-1.68Q62.55-1.36 62.68-1.13Q62.82-0.89 63.04-0.76Q63.27-0.63 63.62-0.63L63.62-0.63Q63.91-0.63 64.16-0.71Q64.40-0.80 64.51-0.86L64.51-0.86L64.67-0.17Q64.54-0.08 64.23 0.03Q63.93 0.13 63.51 0.13L63.51 0.13Q62.96 0.13 62.58-0.07Q62.21-0.27 61.97-0.63Q61.74-0.99 61.64-1.49Q61.54-1.99 61.54-2.59L61.54-2.59Q61.54-4.04 62.02-4.71Q62.50-5.38 63.29-5.38L63.29-5.38Q64.18-5.38 64.55-4.71Q64.92-4.04 64.92-2.83L64.92-2.83Q64.92-2.72 64.92-2.60Q64.92-2.49 64.91-2.37L64.91-2.37ZM63.29-4.65L63.29-4.65Q62.86-4.65 62.66-4.22Q62.47-3.79 62.43-3.07L62.43-3.07L64.02-3.07Q64.02-3.80 63.87-4.22Q63.72-4.65 63.29-4.65ZM68.45-0.70L68.45-4.46Q68.16-4.62 67.83-4.62L67.83-4.62Q67.58-4.62 67.39-4.52Q67.20-4.42 67.06-4.19Q66.93-3.96 66.86-3.58Q66.79-3.20 66.79-2.64L66.79-2.64Q66.79-1.56 67.08-1.09Q67.36-0.63 67.94-0.63L67.94-0.63Q68.05-0.63 68.18-0.65Q68.31-0.66 68.45-0.70L68.45-0.70ZM68.45-5.21L68.45-7.61L69.31-7.76L69.31-0.14Q69.03-0.02 68.67 0.06Q68.31 0.13 67.94 0.13L67.94 0.13Q66.86 0.13 66.38-0.56Q65.89-1.25 65.89-2.64L65.89-2.64Q65.89-3.27 65.99-3.77Q66.10-4.28 66.33-4.63Q66.55-4.99 66.90-5.19Q67.25-5.38 67.73-5.38L67.73-5.38Q67.96-5.38 68.13-5.33Q68.29-5.29 68.45-5.21L68.45-5.21Z"/></svg>