<svg xmlns="http://www.w3.org/2000/svg" viewBox="0.7000000000000001 -7.76 33.82 7.8999999999999995"><path d="M3.51 0.14L3.51 0.14Q2.78 0.14 2.25-0.07Q1.72-0.27 1.38-0.64Q1.03-1 0.86-1.51Q0.70-2.01 0.70-2.62L0.70-2.62L0.70-6.93L2.26-6.93L2.26-2.75Q2.26-2.33 2.35-2.04Q2.45-1.74 2.62-1.55Q2.78-1.37 3.02-1.29Q3.25-1.21 3.53-1.21L3.53-1.21Q4.10-1.21 4.46-1.56Q4.81-1.91 4.81-2.75L4.81-2.75L4.81-6.93L6.37-6.93L6.37-2.62Q6.37-2.01 6.20-1.50Q6.03-0.99 5.68-0.63Q5.33-0.26 4.79-0.06Q4.25 0.14 3.51 0.14ZM11.14-2.67L11.14-2.67Q11.14-4.11 10.08-4.11L10.08-4.11Q9.85-4.11 9.63-4.05Q9.40-3.99 9.26-3.90L9.26-3.90L9.26-1.19Q9.37-1.17 9.54-1.16Q9.71-1.14 9.91-1.14L9.91-1.14Q10.52-1.14 10.83-1.56Q11.14-1.98 11.14-2.67ZM12.66-2.63L12.66-2.63Q12.66-2 12.48-1.49Q12.29-0.98 11.94-0.62Q11.59-0.26 11.08-0.07Q10.57 0.13 9.92 0.13L9.92 0.13Q9.65 0.13 9.36 0.10Q9.06 0.08 8.78 0.04Q8.49 0 8.23-0.06Q7.97-0.11 7.77-0.17L7.77-0.17L7.77-7.52L9.26-7.76L9.26-5.14Q9.51-5.25 9.78-5.31Q10.05-5.37 10.36-5.37L10.36-5.37Q10.92-5.37 11.35-5.17Q11.78-4.98 12.07-4.62Q12.36-4.26 12.51-3.75Q12.66-3.25 12.66-2.63ZM18.30-5.26L18.30-0.18Q17.92-0.07 17.32 0.03Q16.72 0.12 16.06 0.12L16.06 0.12Q15.39 0.12 14.95-0.06Q14.50-0.24 14.24-0.57Q13.98-0.89 13.87-1.34Q13.76-1.79 13.76-2.33L13.76-2.33L13.76-5.26L15.25-5.26L15.25-2.51Q15.25-1.79 15.44-1.47Q15.63-1.15 16.15-1.15L16.15-1.15Q16.31-1.15 16.49-1.17Q16.67-1.18 16.81-1.20L16.81-1.20L16.81-5.26L18.30-5.26ZM19.70 0L19.70-5.08Q20.08-5.19 20.68-5.29Q21.28-5.38 21.94-5.38L21.94-5.38Q22.61-5.38 23.05-5.21Q23.50-5.03 23.76-4.71Q24.02-4.39 24.13-3.95Q24.24-3.51 24.24-2.97L24.24-2.97L24.24 0L22.75 0L22.75-2.79Q22.75-3.51 22.56-3.81Q22.37-4.11 21.85-4.11L21.85-4.11Q21.69-4.11 21.51-4.09Q21.33-4.08 21.19-4.06L21.19-4.06L21.19 0L19.70 0ZM25.54-2.15L25.54-6.57L27.03-6.81L27.03-5.26L28.82-5.26L28.82-4.02L27.03-4.02L27.03-2.17Q27.03-1.70 27.20-1.42Q27.36-1.14 27.86-1.14L27.86-1.14Q28.10-1.14 28.36-1.19Q28.61-1.23 28.82-1.31L28.82-1.31L29.03-0.15Q28.76-0.04 28.43 0.04Q28.10 0.12 27.62 0.12L27.62 0.12Q27.01 0.12 26.61-0.04Q26.21-0.21 25.97-0.51Q25.73-0.80 25.64-1.22Q25.54-1.64 25.54-2.15L25.54-2.15ZM34.52-5.26L34.52-0.18Q34.14-0.07 33.54 0.03Q32.94 0.12 32.28 0.12L32.28 0.12Q31.61 0.12 31.17-0.06Q30.72-0.24 30.46-0.57Q30.20-0.89 30.09-1.34Q29.98-1.79 29.98-2.33L29.98-2.33L29.98-5.26L31.47-5.26L31.47-2.51Q31.47-1.79 31.66-1.47Q31.85-1.15 32.37-1.15L32.37-1.15Q32.53-1.15 32.71-1.17Q32.89-1.18 33.03-1.20L33.03-1.20L33.03-5.26L34.52-5.26Z"/></svg>