<svg xmlns="http://www.w3.org/2000/svg" viewBox="5.040000000000001 44.12799999999999 414.21600000000007 56.88"><path d="M25 101L25 101Q20 101 16 100Q12 98 10 95Q7 93 6 89Q5 86 5 81L5 81L5 50L16 50L16 80Q16 83 17 85Q18 87 19 89Q20 90 22 91Q23 91 25 91L25 91Q30 91 32 89Q35 86 35 80L35 80L35 50L46 50L46 81Q46 86 45 89Q43 93 41 96Q38 98 34 100Q31 101 25 101ZM80 81L80 81Q80 70 73 70L73 70Q71 70 69 71Q68 71 67 72L67 72L67 91Q67 92 69 92Q70 92 71 92L71 92Q76 92 78 89Q80 86 80 81ZM91 81L91 81Q91 86 90 89Q88 93 86 96Q83 98 80 100Q76 101 71 101L71 101Q69 101 67 101Q65 101 63 100Q61 100 59 100Q57 99 56 99L56 99L56 46L67 44L67 63Q68 62 70 62Q72 61 75 61L75 61Q79 61 82 63Q85 64 87 67Q89 69 90 73Q91 77 91 81ZM132 62L132 99Q129 99 125 100Q120 101 116 101L116 101Q111 101 108 100Q104 98 103 96Q101 94 100 90Q99 87 99 83L99 83L99 62L110 62L110 82Q110 87 111 89Q113 92 116 92L116 92Q117 92 119 92Q120 92 121 91L121 91L121 62L132 62ZM142 100L142 63Q145 63 149 62Q153 61 158 61L158 61Q163 61 166 63Q169 64 171 66Q173 68 174 72Q175 75 175 79L175 79L175 100L164 100L164 80Q164 75 162 73Q161 70 157 70L157 70Q156 70 155 71Q154 71 153 71L153 71L153 100L142 100ZM184 85L184 53L195 51L195 62L208 62L208 71L195 71L195 84Q195 88 196 90Q197 92 201 92L201 92Q202 92 204 91Q206 91 208 91L208 91L209 99Q207 100 205 100Q202 101 199 101L199 101Q194 101 192 100Q189 98 187 96Q185 94 185 91Q184 88 184 85L184 85ZM249 62L249 99Q246 99 241 100Q237 101 232 101L232 101Q228 101 224 100Q221 98 219 96Q217 94 217 90Q216 87 216 83L216 83L216 62L227 62L227 82Q227 87 228 89Q229 92 233 92L233 92Q234 92 236 92Q237 92 238 91L238 91L238 62L249 62ZM300 81L300 81Q300 70 293 70L293 70Q291 70 289 71Q288 71 287 72L287 72L287 91Q287 92 289 92Q290 92 291 92L291 92Q296 92 298 89Q300 86 300 81ZM311 81L311 81Q311 86 310 89Q308 93 306 96Q303 98 300 100Q296 101 291 101L291 101Q289 101 287 101Q285 101 283 100Q281 100 279 100Q277 99 276 99L276 99L276 46L287 44L287 63Q288 62 290 62Q292 61 295 61L295 61Q299 61 302 63Q305 64 307 67Q309 69 310 73Q311 77 311 81ZM355 81L355 81Q355 85 354 89Q352 93 350 96Q347 98 344 100Q340 101 336 101L336 101Q332 101 329 100Q325 98 323 96Q320 93 319 89Q318 85 318 81L318 81Q318 77 319 73Q320 69 323 67Q325 64 329 63Q332 61 336 61L336 61Q340 61 344 63Q347 64 350 67Q352 69 353 73Q355 77 355 81ZM344 81L344 81Q344 76 342 73Q340 70 336 70L336 70Q333 70 331 73Q329 76 329 81L329 81Q329 86 331 89Q333 92 336 92L336 92Q340 92 342 89Q344 86 344 81ZM380 92L378 101Q374 101 371 100Q368 99 366 97Q364 95 364 93Q363 91 363 88L363 88L363 46L374 44L374 85Q374 87 374 88Q374 89 375 90Q375 91 377 91Q378 92 380 92L380 92ZM395 81L395 81Q395 86 397 89Q399 92 404 92L404 92Q405 92 407 92Q408 92 409 91L409 91L409 72Q408 71 406 71Q404 70 403 70L403 70Q395 70 395 81ZM419 44L419 99Q418 99 416 100Q414 100 412 100Q410 101 408 101Q406 101 404 101L404 101Q399 101 395 100Q392 98 389 96Q387 93 385 89Q384 86 384 81L384 81Q384 77 385 73Q386 69 389 67Q391 64 394 63Q397 61 401 61L401 61Q403 61 405 62Q407 62 409 63L409 63L409 46L419 44Z"/></svg>