<svg xmlns="http://www.w3.org/2000/svg" viewBox="0.81 -7.76 32.4 7.91"><path d="M3.44 0.15L3.44 0.15Q2.76 0.15 2.26-0.06Q1.76-0.27 1.44-0.64Q1.12-1 0.96-1.50Q0.81-2 0.81-2.58L0.81-2.58L0.81-6.93L1.78-6.93L1.78-2.69Q1.78-1.65 2.24-1.18Q2.70-0.71 3.44-0.71L3.44-0.71Q3.81-0.71 4.12-0.83Q4.42-0.94 4.64-1.18Q4.86-1.42 4.98-1.79Q5.10-2.17 5.10-2.69L5.10-2.69L5.10-6.93L6.07-6.93L6.07-2.58Q6.07-2 5.92-1.50Q5.76-1 5.44-0.64Q5.11-0.27 4.62-0.06Q4.12 0.15 3.44 0.15ZM8.61-7.76L8.61-4.97Q8.78-5.08 9.13-5.20Q9.47-5.32 9.92-5.32L9.92-5.32Q10.48-5.32 10.91-5.12Q11.35-4.92 11.65-4.56Q11.95-4.20 12.11-3.70Q12.26-3.20 12.26-2.60L12.26-2.60Q12.26-1.97 12.07-1.47Q11.89-0.96 11.55-0.61Q11.21-0.26 10.73-0.07Q10.25 0.12 9.65 0.12L9.65 0.12Q9 0.12 8.50 0.03Q8-0.06 7.68-0.15L7.68-0.15L7.68-7.60L8.61-7.76ZM8.61-4.10L8.61-0.81Q8.75-0.77 9.00-0.73Q9.26-0.70 9.64-0.70L9.64-0.70Q10.39-0.70 10.84-1.20Q11.29-1.69 11.29-2.60L11.29-2.60Q11.29-3 11.21-3.35Q11.13-3.70 10.95-3.96Q10.77-4.21 10.48-4.36Q10.20-4.50 9.80-4.50L9.80-4.50Q9.42-4.50 9.10-4.37Q8.78-4.24 8.61-4.10L8.61-4.10ZM17.71-5.20L17.71-0.15Q17.39-0.07 16.86 0.02Q16.34 0.11 15.65 0.11L15.65 0.11Q15.05 0.11 14.64-0.07Q14.23-0.24 13.98-0.56Q13.73-0.88 13.62-1.31Q13.51-1.75 13.51-2.28L13.51-2.28L13.51-5.20L14.44-5.20L14.44-2.48Q14.44-1.53 14.74-1.12Q15.04-0.71 15.75-0.71L15.75-0.71Q15.90-0.71 16.06-0.72Q16.22-0.73 16.36-0.74Q16.50-0.76 16.61-0.78Q16.73-0.79 16.78-0.81L16.78-0.81L16.78-5.20L17.71-5.20ZM19.31 0L19.31-5.05Q19.63-5.13 20.16-5.22Q20.69-5.31 21.38-5.31L21.38-5.31Q22-5.31 22.41-5.13Q22.82-4.96 23.06-4.65Q23.31-4.33 23.41-3.89Q23.51-3.45 23.51-2.92L23.51-2.92L23.51 0L22.58 0L22.58-2.72Q22.58-3.20 22.51-3.54Q22.45-3.88 22.30-4.09Q22.15-4.30 21.90-4.40Q21.65-4.49 21.28-4.49L21.28-4.49Q21.13-4.49 20.97-4.48Q20.81-4.47 20.66-4.46Q20.52-4.44 20.40-4.42Q20.29-4.40 20.24-4.39L20.24-4.39L20.24 0L19.31 0ZM25.92-6.81L25.92-5.20L27.89-5.20L27.89-4.42L25.92-4.42L25.92-2.02Q25.92-1.63 25.98-1.38Q26.04-1.12 26.16-0.97Q26.28-0.83 26.46-0.77Q26.64-0.71 26.88-0.71L26.88-0.71Q27.30-0.71 27.55-0.81Q27.81-0.90 27.91-0.94L27.91-0.94L28.09-0.17Q27.95-0.10 27.60 0.01Q27.25 0.11 26.80 0.11L26.80 0.11Q26.27 0.11 25.93-0.03Q25.58-0.16 25.37-0.43Q25.16-0.70 25.07-1.09Q24.99-1.49 24.99-2.01L24.99-2.01L24.99-6.65L25.92-6.81ZM33.21-5.20L33.21-0.15Q32.89-0.07 32.37 0.02Q31.84 0.11 31.15 0.11L31.15 0.11Q30.55 0.11 30.14-0.07Q29.73-0.24 29.48-0.56Q29.23-0.88 29.12-1.31Q29.01-1.75 29.01-2.28L29.01-2.28L29.01-5.20L29.94-5.20L29.94-2.48Q29.94-1.53 30.24-1.12Q30.54-0.71 31.25-0.71L31.25-0.71Q31.40-0.71 31.56-0.72Q31.72-0.73 31.86-0.74Q32-0.76 32.12-0.78Q32.23-0.79 32.28-0.81L32.28-0.81L32.28-5.20L33.21-5.20Z"/></svg>