<svg xmlns="http://www.w3.org/2000/svg" viewBox="0.24 -7.3500000000000005 62.72 7.45"><path d="M3.36 0.05Q2.95 0.05 2.74-0.41L2.74-0.41L0.27-6.40Q0.24-6.48 0.24-6.57L0.24-6.57Q0.24-6.78 0.36-6.91Q0.48-7.03 0.69-7.03L0.69-7.03Q0.83-7.03 0.95-6.95Q1.06-6.86 1.12-6.72L1.12-6.72L3.47-0.86L5.82-6.72Q5.88-6.86 6.00-6.95Q6.11-7.03 6.25-7.03L6.25-7.03Q6.46-7.03 6.58-6.91Q6.70-6.78 6.70-6.57L6.70-6.57Q6.70-6.48 6.67-6.40L6.67-6.40L4.20-0.41Q3.99 0.05 3.58 0.05L3.58 0.05L3.36 0.05ZM8.48 0.10Q8.04 0.10 7.67-0.08Q7.29-0.26 7.07-0.60Q6.85-0.95 6.85-1.40L6.85-1.40Q6.85-2.14 7.44-2.58Q8.02-3.02 9.15-3.02L9.15-3.02L10.36-3.02L10.36-3.10Q10.36-3.76 10.04-4.05Q9.71-4.34 9.02-4.34L9.02-4.34Q8.64-4.34 8.35-4.28Q8.05-4.22 7.69-4.10L7.69-4.10Q7.61-4.08 7.56-4.08L7.56-4.08Q7.41-4.08 7.30-4.19Q7.19-4.30 7.19-4.46L7.19-4.46Q7.19-4.73 7.45-4.84L7.45-4.84Q8.30-5.20 9.18-5.20L9.18-5.20Q9.87-5.20 10.35-4.92Q10.82-4.64 11.05-4.20Q11.27-3.75 11.27-3.23L11.27-3.23L11.27-0.40Q11.27-0.21 11.14-0.08Q11 0.05 10.81 0.05L10.81 0.05Q10.62 0.05 10.49-0.08Q10.36-0.21 10.36-0.40L10.36-0.40L10.36-0.66Q9.62 0.10 8.48 0.10L8.48 0.10ZM8.82-0.70Q9.26-0.70 9.67-0.92Q10.08-1.13 10.36-1.45L10.36-1.45L10.36-2.29L9.27-2.29Q7.76-2.29 7.76-1.50L7.76-1.50Q7.76-1.14 8.01-0.92Q8.25-0.70 8.82-0.70L8.82-0.70ZM13.25 0.05Q13.06 0.05 12.93-0.08Q12.80-0.21 12.80-0.40L12.80-0.40L12.80-4.69Q12.80-4.88 12.93-5.01Q13.06-5.15 13.25-5.15L13.25-5.15Q13.44-5.15 13.58-5.01Q13.71-4.88 13.71-4.69L13.71-4.69L13.71-4.26Q14.41-5.20 15.28-5.20L15.28-5.20L15.33-5.20Q15.52-5.20 15.65-5.07Q15.77-4.94 15.77-4.75L15.77-4.75Q15.77-4.56 15.64-4.44Q15.51-4.32 15.31-4.32L15.31-4.32L15.26-4.32Q14.78-4.32 14.38-4.08Q13.98-3.85 13.71-3.44L13.71-3.44L13.71-0.40Q13.71-0.21 13.58-0.08Q13.44 0.05 13.25 0.05L13.25 0.05ZM18.76 0.10Q17.54 0.10 16.86-0.59Q16.17-1.29 16.17-2.55L16.17-2.55Q16.17-3.26 16.43-3.86Q16.69-4.46 17.23-4.83Q17.77-5.20 18.56-5.20L18.56-5.20Q19.30-5.20 19.84-4.86Q20.38-4.51 20.66-3.94Q20.94-3.36 20.94-2.68L20.94-2.68Q20.94-2.49 20.82-2.36Q20.69-2.23 20.48-2.23L20.48-2.23L17.09-2.23Q17.17-1.53 17.61-1.14Q18.05-0.75 18.84-0.75L18.84-0.75Q19.26-0.75 19.58-0.83Q19.89-0.91 20.19-1.06L20.19-1.06Q20.27-1.10 20.37-1.10L20.37-1.10Q20.53-1.10 20.65-0.99Q20.77-0.88 20.77-0.71L20.77-0.71Q20.77-0.49 20.51-0.34L20.51-0.34Q20.12-0.12 19.74-0.01Q19.36 0.10 18.76 0.10L18.76 0.10ZM17.09-2.97L20.04-2.97Q20.01-3.46 19.79-3.79Q19.56-4.12 19.23-4.28Q18.90-4.43 18.56-4.43L18.56-4.43Q18.22-4.43 17.89-4.28Q17.56-4.12 17.34-3.79Q17.12-3.46 17.09-2.97L17.09-2.97ZM22.59 0.05Q22.40 0.05 22.27-0.08Q22.14-0.21 22.14-0.40L22.14-0.40L22.14-6.89Q22.14-7.08 22.27-7.21Q22.40-7.35 22.59-7.35L22.59-7.35Q22.79-7.35 22.92-7.22Q23.05-7.09 23.05-6.89L23.05-6.89L23.05-0.40Q23.05-0.21 22.92-0.08Q22.78 0.05 22.59 0.05L22.59 0.05ZM25.93 0.10Q25.49 0.10 25.12-0.08Q24.74-0.26 24.52-0.60Q24.30-0.95 24.30-1.40L24.30-1.40Q24.30-2.14 24.89-2.58Q25.47-3.02 26.60-3.02L26.60-3.02L27.81-3.02L27.81-3.10Q27.81-3.76 27.49-4.05Q27.16-4.34 26.47-4.34L26.47-4.34Q26.09-4.34 25.80-4.28Q25.50-4.22 25.14-4.10L25.14-4.10Q25.06-4.08 25.01-4.08L25.01-4.08Q24.86-4.08 24.75-4.19Q24.64-4.30 24.64-4.46L24.64-4.46Q24.64-4.73 24.90-4.84L24.90-4.84Q25.75-5.20 26.63-5.20L26.63-5.20Q27.32-5.20 27.80-4.92Q28.27-4.64 28.50-4.20Q28.72-3.75 28.72-3.23L28.72-3.23L28.72-0.40Q28.72-0.21 28.59-0.08Q28.45 0.05 28.26 0.05L28.26 0.05Q28.07 0.05 27.94-0.08Q27.81-0.21 27.81-0.40L27.81-0.40L27.81-0.66Q27.07 0.10 25.93 0.10L25.93 0.10ZM26.27-0.70Q26.71-0.70 27.12-0.92Q27.53-1.13 27.81-1.45L27.81-1.45L27.81-2.29L26.72-2.29Q25.21-2.29 25.21-1.50L25.21-1.50Q25.21-1.14 25.46-0.92Q25.70-0.70 26.27-0.70L26.27-0.70ZM33.48 0.05Q33.29 0.05 33.16-0.08Q33.03-0.21 33.03-0.40L33.03-0.40L33.03-6.52Q33.03-6.71 33.16-6.84Q33.29-6.98 33.48-6.98L33.48-6.98L35.81-6.98Q37.17-6.98 37.85-6.42Q38.53-5.86 38.53-4.95L38.53-4.95Q38.53-4.35 38.20-3.85Q37.86-3.36 37.22-3.14L37.22-3.14Q37.94-2.95 38.21-2.25Q38.47-1.54 38.47-0.86L38.47-0.86L38.47-0.40Q38.47-0.21 38.34-0.08Q38.21 0.05 38.02 0.05L38.02 0.05Q37.81 0.05 37.69-0.07Q37.56-0.20 37.56-0.40L37.56-0.40L37.56-0.70Q37.56-1.20 37.47-1.63Q37.38-2.05 37.04-2.39Q36.70-2.72 36.01-2.72L36.01-2.72L33.94-2.72L33.94-0.40Q33.94-0.21 33.80-0.08Q33.67 0.05 33.48 0.05L33.48 0.05ZM33.94-3.58L35.75-3.58Q36.61-3.58 37.12-3.92Q37.62-4.26 37.62-4.88L37.62-4.88Q37.62-5.48 37.19-5.80Q36.75-6.12 35.70-6.12L35.70-6.12L33.94-6.12L33.94-3.58ZM42.22 0.10Q41.45 0.10 40.87-0.23Q40.29-0.56 39.98-1.17Q39.66-1.77 39.66-2.55L39.66-2.55Q39.66-3.33 39.98-3.94Q40.29-4.54 40.87-4.87Q41.45-5.20 42.22-5.20L42.22-5.20Q42.98-5.20 43.56-4.87Q44.14-4.54 44.46-3.94Q44.78-3.33 44.78-2.55L44.78-2.55Q44.78-1.77 44.46-1.17Q44.14-0.56 43.56-0.23Q42.98 0.10 42.22 0.10L42.22 0.10ZM42.22-0.73Q42.63-0.73 43.01-0.92Q43.38-1.11 43.63-1.52Q43.87-1.93 43.87-2.56L43.87-2.56Q43.87-3.18 43.63-3.59Q43.38-4 43.01-4.19Q42.63-4.37 42.22-4.37L42.22-4.37Q41.80-4.37 41.42-4.19Q41.05-4 40.81-3.59Q40.57-3.18 40.57-2.56L40.57-2.56Q40.57-1.93 40.81-1.52Q41.05-1.11 41.42-0.92Q41.80-0.73 42.22-0.73L42.22-0.73ZM47.79 0.10Q47.24 0.10 46.84-0.16Q46.43-0.42 46.21-0.87Q46-1.32 46-1.86L46-1.86L46-4.70Q46-4.89 46.13-5.02Q46.27-5.15 46.46-5.15L46.46-5.15Q46.65-5.15 46.78-5.02Q46.91-4.89 46.91-4.70L46.91-4.70L46.91-1.96Q46.91-0.74 48.01-0.74L48.01-0.74Q48.51-0.74 48.91-1Q49.30-1.26 49.65-1.70L49.65-1.70L49.65-4.70Q49.65-4.89 49.78-5.02Q49.92-5.15 50.11-5.15L50.11-5.15Q50.30-5.15 50.43-5.02Q50.56-4.89 50.56-4.70L50.56-4.70L50.56-0.41Q50.56-0.22 50.43-0.09Q50.30 0.05 50.11 0.05L50.11 0.05Q49.92 0.05 49.78-0.09Q49.65-0.22 49.65-0.41L49.65-0.41L49.65-0.82Q49.27-0.40 48.83-0.15Q48.39 0.10 47.79 0.10L47.79 0.10ZM52.59 0.05Q52.40 0.05 52.27-0.08Q52.14-0.21 52.14-0.40L52.14-0.40L52.14-4.69Q52.14-4.88 52.27-5.01Q52.40-5.15 52.59-5.15L52.59-5.15Q52.78-5.15 52.91-5.01Q53.05-4.88 53.05-4.69L53.05-4.69L53.05-4.28Q53.43-4.70 53.87-4.95Q54.31-5.20 54.91-5.20L54.91-5.20Q55.46-5.20 55.86-4.94Q56.27-4.68 56.48-4.23Q56.70-3.78 56.70-3.24L56.70-3.24L56.70-0.40Q56.70-0.21 56.56-0.08Q56.43 0.05 56.24 0.05L56.24 0.05Q56.05 0.05 55.92-0.08Q55.79-0.21 55.79-0.40L55.79-0.40L55.79-3.14Q55.79-4.36 54.69-4.36L54.69-4.36Q54.19-4.36 53.79-4.10Q53.40-3.84 53.05-3.40L53.05-3.40L53.05-0.40Q53.05-0.21 52.91-0.08Q52.78 0.05 52.59 0.05L52.59 0.05ZM60.34 0.10Q59.72 0.10 59.16-0.21Q58.61-0.53 58.27-1.14Q57.92-1.74 57.92-2.55L57.92-2.55Q57.92-3.36 58.27-3.97Q58.61-4.57 59.16-4.88Q59.72-5.20 60.34-5.20L60.34-5.20Q61.32-5.20 62.05-4.44L62.05-4.44L62.05-6.89Q62.05-7.09 62.18-7.22Q62.32-7.35 62.51-7.35L62.51-7.35Q62.70-7.35 62.83-7.21Q62.96-7.08 62.96-6.89L62.96-6.89L62.96-0.40Q62.96-0.21 62.83-0.08Q62.70 0.05 62.51 0.05L62.51 0.05Q62.32 0.05 62.18-0.08Q62.05-0.21 62.05-0.40L62.05-0.40L62.05-0.66Q61.32 0.10 60.34 0.10L60.34 0.10ZM60.47-0.75Q60.93-0.75 61.34-0.96Q61.74-1.16 62.05-1.50L62.05-1.50L62.05-3.60Q61.74-3.94 61.34-4.15Q60.93-4.35 60.47-4.35L60.47-4.35Q59.73-4.35 59.28-3.88Q58.83-3.41 58.83-2.55L58.83-2.55Q58.83-1.69 59.28-1.22Q59.73-0.75 60.47-0.75L60.47-0.75Z"/></svg>