<svg xmlns="http://www.w3.org/2000/svg" viewBox="6.408 48.879999999999995 703.4399999999999 51.768"><path d="M48 51Q52 51 55 51L55 51Q55 54 54 57L54 57Q53 57 52 58Q51 59 50 60Q49 62 48 65L48 65Q39 83 28 100L28 100Q26 101 22 101L22 101Q17 83 12 64L12 64Q11 61 10 60Q10 58 9 58Q8 57 7 57L7 57Q6 55 6 54L6 54Q6 52 7 51L7 51Q10 51 18 51L18 51Q26 51 31 51L31 51Q31 54 30 57L30 57Q28 57 27 58Q26 59 26 60L26 60Q26 62 27 64L27 64Q29 75 31 84L31 84Q38 73 41 65L41 65Q43 61 43 60L43 60Q43 58 42 58Q41 57 39 57L39 57Q39 56 39 54L39 54Q39 52 39 51L39 51Q42 51 48 51L48 51ZM64 101Q55 101 51 97Q46 93 46 87L46 87Q46 85 47 83L47 83Q48 75 54 71Q59 66 69 66L69 66Q77 66 82 70Q86 74 86 81L86 81Q86 82 86 84L86 84Q85 92 79 96Q73 101 64 101L64 101ZM65 95Q67 95 69 92Q71 89 72 84L72 84Q72 81 72 79L72 79Q72 76 71 74Q70 72 68 72L68 72Q65 72 64 75Q62 78 61 83L61 83Q61 86 61 88L61 88Q61 92 62 94Q63 95 65 95L65 95ZM100 101Q95 101 93 99Q91 97 91 93L91 93Q91 91 92 86Q93 81 96 64L96 64Q97 61 97 60L97 60Q97 58 96 58Q95 57 93 57L93 57Q93 54 94 52L94 52Q103 52 110 49L110 49Q111 50 112 51Q112 52 112 53L112 53Q112 54 112 55L112 55Q109 71 106 87L106 87Q105 89 105 91L105 91Q105 92 106 92Q106 93 106 93L106 93Q107 93 109 92L109 92Q110 92 110 94Q111 95 111 96L111 96Q109 98 106 100Q103 101 100 101L100 101ZM125 101Q120 101 118 99Q116 97 116 93L116 93Q116 91 117 86Q118 81 121 64L121 64Q122 61 122 60L122 60Q122 58 121 58Q120 57 118 57L118 57Q118 54 119 52L119 52Q128 52 135 49L135 49Q136 50 137 51Q137 52 137 53L137 53Q137 54 137 55L137 55Q134 71 131 87L131 87Q131 89 131 91L131 91Q131 92 131 92Q131 93 132 93L132 93Q132 93 134 92L134 92Q135 92 135 94Q136 95 136 96L136 96Q134 98 131 100Q128 101 125 101L125 101ZM181 75Q180 78 177 80Q175 83 169 85L169 85Q170 86 171 87Q171 88 172 89L172 89Q173 91 174 92Q174 92 175 92L175 92Q176 92 177 92L177 92Q178 92 178 94Q179 95 179 96L179 96Q175 101 168 101L168 101Q165 101 163 99Q161 98 160 95L160 95Q158 92 158 91Q157 90 156 88L156 88Q156 89 156 91L156 91L154 100L140 100L147 64Q147 61 147 60L147 60Q147 58 146 58Q145 57 143 57L143 57Q143 54 144 52L144 52Q153 52 160 49L160 49Q161 50 162 51Q162 52 162 53L162 53Q162 54 162 55L162 55Q160 64 159 68Q159 71 156 78L156 78L156 78Q159 73 164 70Q168 66 173 66L173 66Q177 66 179 68Q181 70 181 73L181 73Q181 73 181 75L181 75ZM165 75Q164 75 162 76Q160 77 159 80Q157 82 156 85L156 85Q162 84 165 82Q167 81 168 78L168 78Q168 78 168 77L168 77Q168 76 167 76Q167 75 165 75L165 75ZM201 101Q192 101 188 97Q183 93 183 87L183 87Q183 85 184 83L184 83Q185 75 190 71Q196 66 206 66L206 66Q214 66 219 70Q223 74 223 81L223 81Q223 82 223 84L223 84Q222 92 216 96Q210 101 201 101L201 101ZM202 95Q204 95 206 92Q208 89 209 84L209 84Q209 81 209 79L209 79Q209 76 208 74Q207 72 205 72L205 72Q202 72 201 75Q199 78 198 83L198 83Q198 86 198 88L198 88Q198 92 199 94Q200 95 202 95L202 95ZM243 66Q245 67 245 68Q246 69 246 70L246 70Q246 71 245 72L245 72Q245 74 244 77Q243 80 242 82L242 82L242 82L244 78Q246 73 250 70Q254 66 259 66L259 66Q261 66 263 67L263 67Q261 70 261 74Q260 79 260 82L260 82Q257 83 254 83L254 83Q253 83 252 83L252 83Q252 83 252 83L252 83Q252 82 252 81Q251 80 250 80L250 80Q248 80 247 83L247 83Q244 87 242 96L242 96L241 100L228 100L231 81Q232 78 232 77L232 77Q232 76 231 75Q230 75 227 75L227 75Q227 72 228 69L228 69Q233 69 236 69Q240 68 243 66L243 66ZM306 92Q307 92 307 94Q308 95 308 96L308 96Q306 98 303 100Q300 101 297 101L297 101Q292 101 290 99Q288 97 288 93L288 93Q288 91 289 88L289 88L290 83Q291 81 291 80L291 80Q291 77 289 77L289 77Q287 77 285 79Q283 81 281 86Q280 90 278 96L278 96L278 100L264 100L267 81Q268 78 268 77L268 77Q268 76 267 75Q266 75 264 75L264 75Q264 72 265 69L265 69Q274 69 281 66L281 66Q283 68 283 70L283 70Q283 71 283 71L283 71Q283 73 282 75Q282 77 281 80L281 80L281 80L282 78Q284 73 288 69Q293 66 298 66L298 66Q301 66 303 69Q305 71 305 75L305 75Q305 78 305 81L305 81L303 87Q303 90 303 91L303 91Q303 92 303 92Q303 93 304 93L304 93Q304 93 306 92L306 92ZM357 66Q362 66 365 70Q367 73 367 78L367 78Q367 81 367 84L367 84Q365 91 360 96Q354 101 345 101L345 101Q339 101 334 99Q329 97 326 94L326 94Q327 93 328 90Q329 88 329 84L329 84L333 64Q333 61 333 60L333 60Q333 58 332 58Q331 57 329 57L329 57Q329 54 330 52L330 52Q339 52 346 49L346 49Q348 50 348 51Q348 52 348 53L348 53Q348 54 348 55L348 55Q346 66 345 71Q344 76 342 80L342 80L342 80Q345 73 348 70Q352 66 357 66L357 66ZM352 86Q353 83 353 80L353 80Q353 76 350 76L350 76Q348 76 346 80Q343 83 342 91L342 91L341 95Q342 95 343 95Q344 95 345 95L345 95Q348 95 349 93Q351 90 352 86L352 86ZM380 101Q376 101 374 99Q372 97 372 93L372 93Q372 91 373 86Q374 81 377 64L377 64Q377 61 377 60L377 60Q377 58 377 58Q376 57 373 57L373 57Q373 54 374 52L374 52Q384 52 391 49L391 49Q392 50 392 51Q393 52 393 53L393 53Q393 54 392 55L392 55Q390 71 387 87L387 87Q386 89 386 91L386 91Q386 92 386 92Q387 93 387 93L387 93Q388 93 390 92L390 92Q390 92 391 94Q392 95 392 96L392 96Q390 98 386 100Q383 101 380 101L380 101ZM435 92Q435 92 436 94Q437 95 437 96L437 96Q434 99 432 100Q429 101 426 101L426 101Q422 101 420 99Q418 97 418 94L418 94Q418 93 418 92L418 92Q419 89 420 87L420 87L420 87Q417 94 413 97Q410 101 405 101L405 101Q400 101 397 97Q395 94 395 89L395 89Q395 86 395 83L395 83Q397 76 402 71Q408 66 417 66L417 66Q422 66 426 68L426 68Q430 67 433 66L433 66Q436 68 436 71L436 71Q436 71 435 73L435 73L432 87Q431 90 431 91L431 91Q431 93 432 93L432 93Q433 93 435 92L435 92ZM412 91Q414 91 416 87Q419 84 420 76L420 76L421 72Q420 72 419 72Q418 72 417 72L417 72Q414 72 413 74Q411 77 410 81L410 81Q409 84 409 87L409 87Q409 91 412 91L412 91ZM455 101Q447 101 443 97Q440 94 440 88L440 88Q440 86 440 83L440 83Q442 76 447 71Q452 66 462 66L462 66Q465 66 468 67Q470 68 472 69L472 69Q471 73 471 77L471 77Q469 77 467 77L467 77Q466 77 464 77L464 77Q465 72 461 72L461 72Q459 72 458 74Q456 76 455 80L455 80Q455 84 455 86L455 86Q455 93 460 93L460 93Q464 93 468 91L468 91Q469 92 470 93Q470 95 470 97L470 97Q466 99 463 100Q460 101 455 101L455 101ZM513 75Q513 78 510 80Q507 83 502 85L502 85Q503 86 504 87Q504 88 505 89L505 89Q506 91 507 92Q507 92 508 92L508 92Q509 92 510 92L510 92Q511 92 511 94Q512 95 512 96L512 96Q508 101 501 101L501 101Q497 101 496 99Q494 98 492 95L492 95Q491 92 491 91Q490 90 489 88L489 88Q489 89 489 91L489 91L487 100L473 100L479 64Q480 61 480 60L480 60Q480 58 479 58Q478 57 475 57L475 57Q475 54 476 52L476 52Q486 52 493 49L493 49Q494 50 495 51Q495 52 495 53L495 53Q495 54 495 55L495 55Q493 64 492 68Q491 71 489 78L489 78L489 78Q492 73 496 70Q501 66 506 66L506 66Q509 66 511 68Q514 70 514 73L514 73Q514 73 513 75L513 75ZM498 75Q497 75 495 76Q493 77 491 80Q490 82 489 85L489 85Q495 84 498 82Q500 81 501 78L501 78Q501 78 501 77L501 77Q501 76 500 76Q499 75 498 75L498 75ZM543 63Q540 63 538 62Q536 60 536 58L536 58Q536 54 539 52Q541 50 545 50L545 50Q548 50 550 52Q552 53 552 56L552 56Q552 57 552 57L552 57Q551 63 543 63L543 63ZM541 101Q536 101 534 99Q533 97 533 93L533 93Q533 91 533 88L533 88L535 81Q535 79 535 77L535 77Q535 76 534 75Q533 75 531 75L531 75Q531 72 532 69L532 69Q541 69 548 66L548 66Q549 67 550 68Q550 69 550 71L550 71Q550 72 550 73L550 73L548 87Q547 90 547 91L547 91Q547 92 547 92Q547 93 548 93L548 93Q549 93 550 92L550 92Q551 92 552 94Q552 95 552 96L552 96Q550 98 547 100Q544 101 541 101L541 101ZM575 75L573 83Q572 87 572 89L572 89Q572 91 573 92Q573 92 574 92L574 92Q575 92 576 92Q577 92 578 91L578 91Q579 92 579 93Q580 95 580 96L580 96Q578 98 574 99Q571 101 568 101L568 101Q563 101 560 98Q558 95 558 90L558 90Q558 87 559 83L559 83L561 74Q558 73 556 73L556 73Q556 69 557 68L557 68L563 68L563 67Q564 61 565 58L565 58Q567 58 570 57Q573 56 575 55L575 55Q578 56 578 60L578 60Q578 62 577 67L577 67L577 68L583 68Q583 72 582 74L582 74Q578 74 575 75L575 75ZM623 92Q624 92 624 94Q625 95 625 96L625 96Q623 99 620 100Q617 101 614 101L614 101Q610 101 609 99Q607 97 607 94L607 94Q607 93 607 92L607 92Q607 89 608 87L608 87L608 87Q606 94 602 97Q598 101 593 101L593 101Q588 101 586 97Q583 94 583 89L583 89Q583 86 584 83L584 83Q585 76 591 71Q596 66 606 66L606 66Q610 66 614 68L614 68Q619 67 622 66L622 66Q624 68 624 71L624 71Q624 71 624 73L624 73L620 87Q620 90 620 91L620 91Q620 93 621 93L621 93Q622 93 623 92L623 92ZM600 91Q603 91 605 87Q607 84 609 76L609 76L610 72Q609 72 608 72Q606 72 605 72L605 72Q603 72 601 74Q600 77 599 81L599 81Q598 84 598 87L598 87Q598 91 600 91L600 91ZM638 101Q633 101 632 99Q630 97 630 93L630 93Q630 91 631 86Q632 81 635 64L635 64Q635 61 635 60L635 60Q635 58 634 58Q633 57 631 57L631 57Q631 54 632 52L632 52Q641 52 648 49L648 49Q650 50 650 51Q650 52 650 53L650 53Q650 54 650 55L650 55Q647 71 644 87L644 87Q644 89 644 91L644 91Q644 92 644 92Q644 93 645 93L645 93Q646 93 647 92L647 92Q648 92 649 94Q650 95 650 96L650 96Q647 98 644 100Q641 101 638 101L638 101ZM665 63Q662 63 660 62Q659 60 659 58L659 58Q659 54 661 52Q663 50 668 50L668 50Q670 50 672 52Q674 53 674 56L674 56Q674 57 674 57L674 57Q673 63 665 63L665 63ZM663 101Q659 101 657 99Q655 97 655 93L655 93Q655 91 656 88L656 88L657 81Q657 79 657 77L657 77Q657 76 656 75Q656 75 653 75L653 75Q653 72 654 69L654 69Q663 69 670 66L670 66Q671 67 672 68Q673 69 673 71L673 71Q673 72 672 73L672 73L670 87Q669 90 669 91L669 91Q669 92 669 92Q670 93 670 93L670 93Q671 93 672 92L672 92Q673 92 674 94Q674 95 675 96L675 96Q672 98 669 100Q666 101 663 101L663 101ZM692 101Q685 101 681 97Q678 94 678 88L678 88Q678 86 678 83L678 83Q679 76 685 71Q690 66 700 66L700 66Q703 66 705 67Q708 68 710 69L710 69Q708 73 708 77L708 77Q707 77 705 77L705 77Q703 77 702 77L702 77Q703 72 699 72L699 72Q697 72 695 74Q694 76 693 80L693 80Q692 84 692 86L692 86Q692 93 698 93L698 93Q702 93 706 91L706 91Q707 92 707 93Q708 95 707 97L707 97Q704 99 701 100Q697 101 692 101L692 101Z"/></svg>