<svg xmlns="http://www.w3.org/2000/svg" viewBox="1.1952000000000003 48.37599999999999 463.9248 52.272000000000006"><path d="M42 51Q46 51 49 51L49 51Q49 53 48 56L48 56Q47 56 45 58Q44 59 42 63L42 63Q36 79 28 100L28 100Q26 101 23 101L23 101Q15 79 8 64L8 64Q6 60 5 59Q4 57 4 56Q3 56 2 56L2 56Q1 54 1 51L1 51Q4 51 12 51L12 51Q19 51 22 51L22 51Q22 53 22 56L22 56Q20 56 19 56Q18 57 18 58L18 58Q18 60 20 63L20 63Q25 76 28 87L28 87Q34 74 38 63L38 63Q38 60 38 59L38 59Q38 56 35 56L35 56Q34 54 35 51L35 51Q37 51 42 51L42 51ZM63 101Q55 101 50 96Q45 92 45 84L45 84Q45 78 48 75Q50 71 54 68Q59 66 64 66L64 66Q73 66 77 71Q82 76 82 83L82 83Q82 88 80 92Q77 96 73 99Q69 101 63 101L63 101ZM64 96Q68 96 69 93Q71 90 71 85L71 85Q71 80 70 77Q69 74 67 72Q65 71 63 71L63 71Q60 71 58 74Q56 77 56 82L56 82Q56 88 58 92Q61 96 64 96L64 96ZM86 100Q86 97 86 96L86 96Q89 96 90 94Q91 93 91 89L91 89L91 60Q91 57 90 56Q89 55 86 55L86 55Q86 52 87 51L87 51Q90 51 94 50Q98 49 100 48L100 48Q102 49 102 52L102 52L102 89Q102 93 103 94Q104 96 106 96L106 96Q107 97 107 100L107 100Q104 100 96 100L96 100Q89 100 86 100L86 100ZM111 100Q111 97 111 96L111 96Q114 96 115 94Q116 93 116 89L116 89L116 60Q116 57 115 56Q114 55 111 55L111 55Q111 52 111 51L111 51Q115 51 119 50Q123 49 124 48L124 48Q127 49 127 52L127 52L127 89Q127 93 127 94Q128 96 131 96L131 96Q131 97 131 100L131 100Q128 100 121 100L121 100Q114 100 111 100L111 100ZM170 92Q172 94 173 95Q174 95 176 96L176 96Q176 98 175 100L175 100Q168 100 164 101L164 101Q162 98 158 93Q155 89 151 85L151 85L151 89Q151 93 152 94Q153 96 155 96L155 96Q155 97 155 100L155 100Q152 100 146 100L146 100Q138 100 135 100L135 100Q135 97 136 96L136 96Q139 96 140 94Q141 93 141 89L141 89L141 60Q141 57 140 56Q139 55 135 55L135 55Q135 52 136 51L136 51Q140 51 144 50Q147 49 149 48L149 48Q151 49 151 52L151 52L151 81L156 77Q160 74 160 72L160 72Q160 72 159 72Q159 71 158 71L158 71Q157 69 157 67L157 67Q162 67 167 67L167 67Q170 67 174 67L174 67Q174 70 173 71L173 71Q170 71 169 72Q167 73 164 76L164 76L160 80Q164 84 170 92L170 92ZM197 101Q188 101 183 96Q179 92 179 84L179 84Q179 78 181 75Q183 71 188 68Q192 66 197 66L197 66Q206 66 210 71Q215 76 215 83L215 83Q215 88 213 92Q211 96 206 99Q202 101 197 101L197 101ZM198 96Q201 96 203 93Q204 90 204 85L204 85Q204 80 203 77Q202 74 200 72Q198 71 196 71L196 71Q193 71 191 74Q190 77 190 82L190 82Q190 88 192 92Q194 96 198 96L198 96ZM250 69Q250 73 250 77L250 77Q250 79 250 79L250 79Q248 80 244 80L244 80Q244 77 243 76Q242 75 241 75L241 75Q239 75 238 76Q237 77 236 80Q235 82 235 84L235 84L235 87Q235 91 236 92Q237 94 238 95Q240 96 243 96L243 96Q243 97 243 100L243 100Q239 100 232 100L232 100Q224 100 220 100L220 100Q220 97 220 96L220 96Q222 96 223 95Q224 94 224 93Q225 91 225 88L225 88L225 79Q225 77 225 75Q224 74 223 74Q222 73 220 73L220 73Q220 70 221 69L221 69Q224 69 228 68Q232 67 233 66L233 66Q235 67 235 70L235 70Q235 72 235 74Q235 75 234 77L234 77Q235 74 236 73L236 73Q238 70 240 68Q242 67 245 67L245 67Q248 67 250 69L250 69ZM296 96Q297 97 297 100L297 100Q291 100 288 100L288 100Q281 100 278 100L278 100Q278 97 278 96L278 96Q280 96 281 94Q282 93 282 89L282 89L282 81Q282 77 281 75Q280 73 277 73L277 73Q274 73 272 76Q270 79 270 85L270 85L270 89Q270 93 271 94Q272 96 274 96L274 96Q275 97 275 100L275 100Q271 100 265 100L265 100Q257 100 254 100L254 100Q254 97 255 96L255 96Q257 96 258 94Q259 93 259 89L259 89L259 79Q259 77 259 75Q259 74 258 74Q256 73 254 73L254 73Q254 70 255 69L255 69Q259 69 262 68Q266 67 268 66L268 66Q270 67 270 70L270 70Q270 72 269 75L269 75Q269 74 270 73Q270 72 271 71L271 71Q273 69 275 68Q278 67 281 67L281 67Q286 67 289 70Q293 72 293 78L293 78L293 89Q293 93 294 94Q294 96 296 96L296 96ZM340 66Q347 66 351 70Q355 74 355 82L355 82Q355 87 352 91Q350 96 345 98Q341 101 335 101L335 101Q329 101 325 99Q320 98 318 96L318 96Q318 95 319 93Q319 91 319 88L319 88L319 60Q319 57 318 56Q317 55 314 55L314 55Q314 52 315 51L315 51Q318 51 322 50Q326 49 328 48L328 48Q330 49 330 52L330 52L330 67Q330 70 329 72L329 72Q330 71 331 70L331 70Q332 69 335 68Q337 66 340 66L340 66ZM335 96Q339 96 341 93Q344 90 344 83L344 83Q344 78 342 75Q340 72 337 72L337 72Q334 72 332 75Q330 78 330 85L330 85L330 94Q331 95 332 96Q333 96 335 96L335 96ZM378 101Q369 101 364 96Q360 92 360 84L360 84Q360 78 362 75Q364 71 368 68Q373 66 378 66L378 66Q387 66 391 71Q396 76 396 83L396 83Q396 88 394 92Q391 96 387 99Q383 101 378 101L378 101ZM379 96Q382 96 383 93Q385 90 385 85L385 85Q385 80 384 77Q383 74 381 72Q379 71 377 71L377 71Q374 71 372 74Q370 77 370 82L370 82Q370 88 373 92Q375 96 379 96L379 96ZM400 100Q400 97 401 96L401 96Q403 96 404 94Q405 93 405 89L405 89L405 60Q405 57 404 56Q403 55 400 55L400 55Q400 52 401 51L401 51Q404 51 408 50Q412 49 414 48L414 48Q416 49 416 52L416 52L416 89Q416 93 417 94Q418 96 420 96L420 96Q421 97 421 100L421 100Q418 100 411 100L411 100Q403 100 400 100L400 100ZM465 94L465 95Q465 97 464 98L464 98Q462 98 459 99Q456 100 454 101L454 101Q452 100 452 99Q451 98 451 97L451 97Q451 95 452 93L452 93Q451 95 449 97L449 97Q448 98 445 99Q443 101 439 101L439 101Q433 101 429 97Q425 93 425 85L425 85Q425 80 428 76Q430 71 435 69Q439 66 445 66L445 66Q448 66 450 67L450 67L450 60Q450 57 449 56Q448 55 445 55L445 55Q445 52 446 51L446 51Q449 51 453 50Q457 49 459 48L459 48Q461 49 461 52L461 52L461 88Q461 90 461 91Q461 93 462 93Q463 94 465 94L465 94ZM443 95Q446 95 448 92Q450 89 450 83L450 83L450 73Q449 72 448 71Q447 71 445 71L445 71Q442 71 439 74Q436 77 436 84L436 84Q436 89 438 92Q440 95 443 95L443 95Z"/></svg>