<svg xmlns="http://www.w3.org/2000/svg" viewBox="1.01 -7.1000000000000005 32.17 7.19"><path d="M6.30-6.76Q6.86-6.76 7.24-6.79L7.24-6.79Q7.24-6.57 7.15-6.36L7.15-6.36Q6.91-6.24 6.74-6.01Q6.56-5.78 6.21-5.10L6.21-5.10Q4.80-2.34 3.42 0L3.42 0Q3.32 0.07 3.14 0.07L3.14 0.07Q3.05 0.07 3.01 0.06L3.01 0.06Q2.22-3.34 1.70-5.29L1.70-5.29Q1.58-5.73 1.50-5.94Q1.41-6.15 1.31-6.24Q1.21-6.32 1.03-6.37L1.03-6.37Q1.01-6.44 1.01-6.59L1.01-6.59Q1.01-6.72 1.02-6.79L1.02-6.79Q1.47-6.76 2.17-6.76L2.17-6.76Q2.95-6.76 3.42-6.79L3.42-6.79Q3.42-6.56 3.33-6.35L3.33-6.35Q2.92-6.30 2.77-6.21Q2.62-6.12 2.62-5.87L2.62-5.87Q2.62-5.67 2.73-5.23L2.73-5.23Q3.26-3.29 3.66-1.41L3.66-1.41Q4.80-3.36 5.70-5.22L5.70-5.22Q5.84-5.51 5.90-5.67Q5.96-5.84 5.96-5.95L5.96-5.95Q5.96-6.11 5.83-6.20Q5.70-6.29 5.40-6.36L5.40-6.36Q5.38-6.44 5.38-6.59L5.38-6.59Q5.38-6.72 5.39-6.79L5.39-6.79Q5.67-6.76 6.30-6.76L6.30-6.76ZM7.65 0.09Q6.92 0.09 6.50-0.39Q6.09-0.87 6.09-1.65L6.09-1.65Q6.09-1.90 6.16-2.30L6.16-2.30Q6.29-3 6.64-3.54Q7-4.07 7.51-4.37Q8.02-4.67 8.61-4.67L8.61-4.67Q9.35-4.67 9.75-4.21Q10.16-3.74 10.16-2.96L10.16-2.96Q10.16-2.63 10.11-2.38L10.11-2.38Q9.99-1.67 9.63-1.11Q9.28-0.55 8.76-0.23Q8.24 0.09 7.65 0.09L7.65 0.09ZM7.78-0.39Q8.22-0.39 8.59-0.93Q8.97-1.46 9.12-2.28L9.12-2.28Q9.19-2.64 9.19-2.99L9.19-2.99Q9.19-3.55 9-3.87Q8.81-4.19 8.46-4.19L8.46-4.19Q8.03-4.19 7.67-3.70Q7.31-3.20 7.15-2.40L7.15-2.40Q7.07-2.03 7.07-1.61L7.07-1.61Q7.07-1.05 7.26-0.72Q7.45-0.39 7.78-0.39L7.78-0.39ZM11.44 0.09Q10.76 0.09 10.76-0.66L10.76-0.66Q10.76-0.95 10.80-1.28Q10.85-1.62 11.05-2.65Q11.25-3.68 11.58-5.34L11.58-5.34Q11.67-5.78 11.67-5.97L11.67-5.97Q11.67-6.20 11.55-6.25Q11.43-6.31 11.07-6.31L11.07-6.31Q11.07-6.59 11.13-6.69L11.13-6.69Q11.37-6.71 11.81-6.85Q12.26-6.99 12.48-7.10L12.48-7.10Q12.71-7.03 12.71-6.70L12.71-6.70Q12.71-6.64 12.69-6.46L12.69-6.46Q12.40-4.86 11.88-2.24L11.88-2.24Q11.70-1.33 11.70-0.94L11.70-0.94Q11.70-0.75 11.74-0.68Q11.79-0.61 11.88-0.61L11.88-0.61Q12.09-0.61 12.39-0.90L12.39-0.90Q12.52-0.78 12.57-0.60L12.57-0.60Q12.32-0.30 12.01-0.10Q11.71 0.09 11.44 0.09L11.44 0.09ZM13.94 0.09Q13.26 0.09 13.26-0.66L13.26-0.66Q13.26-0.95 13.30-1.28Q13.35-1.62 13.55-2.65Q13.75-3.68 14.08-5.34L14.08-5.34Q14.17-5.78 14.17-5.97L14.17-5.97Q14.17-6.20 14.05-6.25Q13.93-6.31 13.57-6.31L13.57-6.31Q13.57-6.59 13.63-6.69L13.63-6.69Q13.87-6.71 14.31-6.85Q14.76-6.99 14.98-7.10L14.98-7.10Q15.21-7.03 15.21-6.70L15.21-6.70Q15.21-6.64 15.19-6.46L15.19-6.46Q14.90-4.86 14.38-2.24L14.38-2.24Q14.20-1.33 14.20-0.94L14.20-0.94Q14.20-0.75 14.24-0.68Q14.29-0.61 14.38-0.61L14.38-0.61Q14.59-0.61 14.89-0.90L14.89-0.90Q15.02-0.78 15.07-0.60L15.07-0.60Q14.82-0.30 14.51-0.10Q14.21 0.09 13.94 0.09L13.94 0.09ZM19.70-3.60Q19.50-2.65 17.77-2.09L17.77-2.09Q17.92-1.93 18.08-1.68Q18.25-1.43 18.47-1.07L18.47-1.07Q18.64-0.79 18.75-0.70Q18.86-0.62 18.99-0.62L18.99-0.62Q19.12-0.62 19.23-0.69Q19.34-0.75 19.51-0.91L19.51-0.91Q19.66-0.78 19.70-0.59L19.70-0.59Q19.42-0.28 19.13-0.10Q18.85 0.09 18.52 0.09L18.52 0.09Q18.29 0.09 18.13-0.01Q17.97-0.12 17.85-0.29Q17.74-0.47 17.56-0.83L17.56-0.83Q17.30-1.34 16.87-1.90L16.87-1.90L16.81-1.53L16.54 0L15.63 0L16.57-5.34Q16.65-5.80 16.65-5.98L16.65-5.98Q16.65-6.20 16.54-6.25Q16.42-6.31 16.06-6.31L16.06-6.31Q16.04-6.55 16.12-6.69L16.12-6.69Q16.43-6.74 16.82-6.86Q17.21-6.97 17.47-7.10L17.47-7.10Q17.70-7.03 17.70-6.70L17.70-6.70Q17.70-6.64 17.68-6.46L17.68-6.46Q17.42-4.97 17.29-4.34Q17.15-3.72 16.97-3.09L16.97-3.09L16.98-3.09Q17.32-3.81 17.79-4.24Q18.25-4.67 18.81-4.67L18.81-4.67Q19.24-4.67 19.48-4.43Q19.72-4.19 19.72-3.82L19.72-3.82Q19.72-3.68 19.70-3.60L19.70-3.60ZM18.72-3.42Q18.74-3.54 18.74-3.60L18.74-3.60Q18.74-3.78 18.65-3.90Q18.57-4.01 18.41-4.01L18.41-4.01Q18.18-4.01 17.89-3.78Q17.61-3.55 17.35-3.14Q17.09-2.72 16.93-2.21L16.93-2.21Q17.73-2.40 18.18-2.69Q18.63-2.98 18.72-3.42L18.72-3.42ZM21.83 0.09Q21.10 0.09 20.68-0.39Q20.27-0.87 20.27-1.65L20.27-1.65Q20.27-1.90 20.34-2.30L20.34-2.30Q20.47-3 20.82-3.54Q21.18-4.07 21.69-4.37Q22.20-4.67 22.79-4.67L22.79-4.67Q23.53-4.67 23.93-4.21Q24.34-3.74 24.34-2.96L24.34-2.96Q24.34-2.63 24.29-2.38L24.29-2.38Q24.17-1.67 23.81-1.11Q23.46-0.55 22.94-0.23Q22.42 0.09 21.83 0.09L21.83 0.09ZM21.96-0.39Q22.40-0.39 22.77-0.93Q23.15-1.46 23.30-2.28L23.30-2.28Q23.37-2.64 23.37-2.99L23.37-2.99Q23.37-3.55 23.18-3.87Q22.99-4.19 22.64-4.19L22.64-4.19Q22.21-4.19 21.85-3.70Q21.49-3.20 21.33-2.40L21.33-2.40Q21.25-2.03 21.25-1.61L21.25-1.61Q21.25-1.05 21.44-0.72Q21.63-0.39 21.96-0.39L21.96-0.39ZM26.46-4.67Q26.69-4.59 26.69-4.29L26.69-4.29Q26.69-3.81 26.22-2.71L26.22-2.71L26.24-2.71L26.41-3.08Q26.80-3.89 27.11-4.28Q27.43-4.67 27.84-4.67L27.84-4.67Q28.13-4.67 28.35-4.49L28.35-4.49Q28.18-3.96 28.11-3.33L28.11-3.33Q27.92-3.23 27.62-3.25L27.62-3.25Q27.63-3.34 27.63-3.48L27.63-3.48Q27.63-3.83 27.51-3.83L27.51-3.83Q27.39-3.83 27.20-3.62Q27.02-3.41 26.79-2.97L26.79-2.97Q26.25-1.88 26.06-0.89L26.06-0.89L25.89 0L24.97 0L25.53-2.91Q25.63-3.41 25.63-3.57L25.63-3.57Q25.63-3.77 25.51-3.83Q25.39-3.88 25.04-3.88L25.04-3.88Q25.04-4.14 25.11-4.26L25.11-4.26Q25.35-4.28 25.79-4.42Q26.24-4.56 26.46-4.67L26.46-4.67ZM33-0.90Q33.14-0.76 33.18-0.58L33.18-0.58Q32.84-0.24 32.56-0.07Q32.29 0.09 32.03 0.09L32.03 0.09Q31.69 0.09 31.54-0.06Q31.40-0.21 31.40-0.52L31.40-0.52Q31.40-0.81 31.56-1.52L31.56-1.52L31.83-2.71Q31.94-3.19 31.94-3.50L31.94-3.50Q31.94-3.94 31.68-3.94L31.68-3.94Q31.42-3.94 31.05-3.60Q30.69-3.25 30.37-2.65Q30.05-2.04 29.91-1.30L29.91-1.30L29.66 0L28.75 0L29.30-2.91Q29.39-3.34 29.39-3.55L29.39-3.55Q29.39-3.77 29.27-3.83Q29.15-3.88 28.79-3.88L28.79-3.88Q28.79-4.16 28.85-4.26L28.85-4.26Q29.09-4.28 29.54-4.42Q29.99-4.56 30.21-4.67L30.21-4.67Q30.44-4.60 30.44-4.26L30.44-4.26Q30.44-4.20 30.42-4.02L30.42-4.02Q30.29-3.35 30.05-2.78L30.05-2.78L30.05-2.77L30.21-3.11Q30.37-3.45 30.68-3.81Q31-4.18 31.37-4.42Q31.74-4.67 32.07-4.67L32.07-4.67Q32.39-4.67 32.63-4.42Q32.88-4.18 32.88-3.59L32.88-3.59Q32.88-3.20 32.77-2.75L32.77-2.75L32.48-1.53Q32.32-0.85 32.32-0.70L32.32-0.70Q32.32-0.63 32.34-0.61Q32.37-0.59 32.44-0.59L32.44-0.59Q32.54-0.59 32.71-0.69Q32.88-0.78 33-0.90L33-0.90Z"/></svg>