<svg xmlns="http://www.w3.org/2000/svg" viewBox="7.272000000000001 48.879999999999995 383.47200000000004 51.768"><path d="M45 51Q49 51 52 51L52 51Q52 53 51 54L51 54Q50 55 48 57Q47 58 45 63L45 63Q35 83 25 100L25 100Q24 101 23 101L23 101Q22 101 22 100L22 100Q16 76 12 62L12 62Q11 59 11 57Q10 56 9 55Q9 54 7 54L7 54Q7 54 7 53L7 53Q7 52 7 51L7 51Q11 51 16 51L16 51Q21 51 25 51L25 51Q25 53 24 54L24 54Q21 55 20 55Q19 56 19 58L19 58Q19 59 20 62L20 62Q23 76 26 90L26 90Q35 76 41 62L41 62Q42 60 42 59Q43 58 43 57L43 57Q43 56 42 55Q41 55 39 54L39 54Q39 54 39 53L39 53Q39 52 39 51L39 51Q41 51 45 51L45 51ZM55 101Q50 101 47 97Q44 94 44 88L44 88Q44 86 44 83L44 83Q45 78 48 75Q50 71 54 69Q58 66 62 66L62 66Q67 66 70 70Q73 73 73 79L73 79Q73 81 73 83L73 83Q72 88 69 92Q67 96 63 98Q59 101 55 101L55 101ZM56 97Q59 97 62 93Q65 89 66 84L66 84Q66 81 66 78L66 78Q66 74 65 72Q63 70 61 70L61 70Q58 70 55 73Q53 77 51 83L51 83Q51 85 51 88L51 88Q51 92 52 95Q54 97 56 97L56 97ZM82 101Q77 101 77 95L77 95Q77 93 78 91Q78 88 80 81Q81 74 83 62L83 62Q84 58 84 57L84 57Q84 55 83 55Q82 55 80 55L80 55Q80 53 80 52L80 52Q82 52 85 51Q88 50 90 49L90 49Q92 49 92 52L92 52Q92 52 91 53L91 53Q89 65 86 84L86 84Q84 90 84 93L84 93Q84 95 85 95Q85 96 86 96L86 96Q87 96 89 94L89 94Q90 94 91 96L91 96Q89 98 87 99Q84 101 82 101L82 101ZM100 101Q95 101 95 95L95 95Q95 93 96 91Q96 88 98 81Q99 74 101 62L101 62Q102 58 102 57L102 57Q102 55 101 55Q100 55 98 55L98 55Q98 53 98 52L98 52Q100 52 103 51Q106 50 108 49L108 49Q110 49 110 52L110 52Q110 52 109 53L109 53Q107 65 104 84L104 84Q102 90 102 93L102 93Q102 95 103 95Q103 96 104 96L104 96Q105 96 107 94L107 94Q108 94 109 96L109 96Q107 98 105 99Q102 101 100 101L100 101ZM142 74Q140 81 128 85L128 85Q129 86 130 88Q131 90 133 92L133 92Q134 94 135 95Q136 96 137 96L137 96Q138 96 138 95Q139 95 140 93L140 93Q142 94 142 96L142 96Q140 98 138 99Q136 101 133 101L133 101Q132 101 131 100Q129 99 129 98Q128 97 126 94L126 94Q125 90 121 86L121 86L121 89L119 100L113 100L119 62Q120 58 120 57L120 57Q120 55 119 55Q118 55 116 55L116 55Q115 53 116 52L116 52Q118 51 121 51Q124 50 126 49L126 49Q127 49 127 52L127 52Q127 52 127 53L127 53Q125 64 124 69Q123 73 122 78L122 78L122 78Q125 73 128 69Q131 66 135 66L135 66Q139 66 140 68Q142 70 142 72L142 72Q142 74 142 74L142 74ZM135 75Q135 75 135 74L135 74Q135 73 134 72Q134 71 133 71L133 71Q131 71 129 73Q127 74 125 77Q123 80 122 84L122 84Q128 83 131 81Q134 79 135 75L135 75ZM157 101Q152 101 149 97Q146 94 146 88L146 88Q146 86 146 83L146 83Q147 78 150 75Q152 71 156 69Q160 66 164 66L164 66Q169 66 172 70Q175 73 175 79L175 79Q175 81 175 83L175 83Q174 88 171 92Q169 96 165 98Q161 101 157 101L157 101ZM158 97Q161 97 164 93Q167 89 168 84L168 84Q168 81 168 78L168 78Q168 74 167 72Q166 70 163 70L163 70Q160 70 157 73Q155 77 154 83L154 83Q153 85 153 88L153 88Q153 92 154 95Q156 97 158 97L158 97ZM191 66Q192 67 192 69L192 69Q192 73 189 80L189 80L189 80L190 78Q193 72 195 69Q197 66 200 66L200 66Q203 66 204 68L204 68Q203 71 202 76L202 76Q201 77 199 77L199 77Q199 76 199 75L199 75Q199 72 198 72L198 72Q197 72 196 74Q195 75 193 79L193 79Q189 86 188 94L188 94L186 100L180 100L184 79Q185 75 185 74L185 74Q185 73 184 72Q183 72 180 72L180 72Q180 70 181 69L181 69Q183 69 186 68Q189 67 191 66L191 66ZM238 94Q239 95 239 96L239 96Q236 98 234 99Q232 101 231 101L231 101Q228 101 227 100Q226 98 226 96L226 96Q226 94 227 89L227 89L229 80Q230 77 230 75L230 75Q230 72 228 72L228 72Q226 72 224 74Q221 77 219 81Q216 85 215 91L215 91L214 100L207 100L211 79Q212 76 212 74L212 74Q212 73 211 72Q210 72 207 72L207 72Q207 70 208 69L208 69Q209 69 213 68Q216 67 218 66L218 66Q219 67 219 69L219 69Q219 70 219 71L219 71Q218 76 216 80L216 80L216 80L218 78Q219 75 221 73Q223 70 226 68Q229 66 231 66L231 66Q233 66 235 68Q237 70 237 74L237 74Q237 77 236 80L236 80L234 89Q233 94 233 95L233 95Q233 95 233 96Q233 96 234 96L234 96Q234 96 236 95Q237 94 238 94L238 94ZM268 58Q266 58 265 58Q265 57 265 55L265 55Q265 55 265 54L265 54Q265 52 266 51Q268 50 269 50L269 50Q271 50 272 51Q273 52 273 53L273 53Q273 55 271 57Q270 58 268 58L268 58ZM261 101Q257 101 257 95L257 95Q257 93 257 90L257 90L260 80Q262 76 262 74L262 74Q262 73 261 72Q260 72 258 72L258 72Q257 70 258 69L258 69Q260 69 262 68Q265 67 266 66L266 66Q268 67 268 68Q269 69 269 71L269 71Q269 73 268 76L268 76L264 90Q263 93 263 94L263 94Q263 95 264 95Q264 96 265 96L265 96Q266 96 268 94L268 94Q269 94 270 96L270 96Q265 101 261 101L261 101ZM287 71L284 85Q283 89 283 92L283 92Q283 96 286 96L286 96Q287 96 288 95Q290 94 291 93L291 93Q292 93 292 94Q292 95 293 95L293 95Q291 97 288 99Q286 101 283 101L283 101Q280 101 278 99Q276 97 276 93L276 93Q276 90 277 86L277 86L281 71Q277 71 275 71L275 71Q275 69 276 68L276 68L282 68L282 67Q283 60 284 57L284 57Q285 57 287 56Q288 56 289 55L289 55Q290 56 290 56Q290 56 290 57L290 57Q290 59 289 64L289 64L288 68L296 68Q296 69 296 71L296 71Q291 71 287 71L287 71ZM326 94Q326 94 327 96L327 96Q322 101 319 101L319 101Q316 101 315 99Q314 98 314 95L314 95Q314 93 315 91L315 91Q315 90 316 87L316 87L317 86L317 86Q315 92 311 96Q306 101 302 101L302 101Q299 101 298 99Q296 97 296 92L296 92Q296 90 297 85L297 85Q298 80 301 76Q304 71 308 69Q312 66 316 66L316 66Q319 66 320 67L320 67Q323 67 325 66L325 66Q325 67 325 67Q326 67 326 68L326 68Q326 70 325 73L325 73L321 89Q320 93 320 94L320 94Q320 95 321 95Q321 96 322 96L322 96Q322 96 323 95Q324 95 326 94L326 94ZM306 95Q308 95 310 92Q312 90 314 86Q317 81 318 76L318 76L319 71Q317 70 315 70L315 70Q310 70 308 73Q305 76 304 82L304 82Q303 86 303 89L303 89Q303 92 304 93Q305 95 306 95L306 95ZM337 101Q332 101 332 95L332 95Q332 93 332 91Q332 88 334 81Q335 74 338 62L338 62Q338 58 338 57L338 57Q338 55 338 55Q337 55 334 55L334 55Q334 53 335 52L335 52Q336 52 339 51Q343 50 344 49L344 49Q346 49 346 52L346 52Q346 52 346 53L346 53Q344 65 340 84L340 84Q339 90 339 93L339 93Q339 95 339 95Q339 96 340 96L340 96Q341 96 344 94L344 94Q345 94 345 96L345 96Q343 98 341 99Q339 101 337 101L337 101ZM361 58Q359 58 358 58Q358 57 358 55L358 55Q358 55 358 54L358 54Q358 52 359 51Q361 50 362 50L362 50Q364 50 365 51Q366 52 366 53L366 53Q366 55 364 57Q363 58 361 58L361 58ZM354 101Q350 101 350 95L350 95Q350 93 350 90L350 90L353 80Q355 76 355 74L355 74Q355 73 354 72Q353 72 351 72L351 72Q350 70 351 69L351 69Q353 69 355 68Q358 67 359 66L359 66Q361 67 361 68Q362 69 362 71L362 71Q362 73 361 76L361 76L357 90Q356 93 356 94L356 94Q356 95 357 95Q357 96 358 96L358 96Q359 96 361 94L361 94Q362 94 363 96L363 96Q358 101 354 101L354 101ZM375 101Q371 101 369 98Q367 95 367 90L367 90Q367 86 367 83L367 83Q369 75 373 71Q377 66 384 66L384 66Q386 66 388 67Q390 67 391 68L391 68Q390 72 389 76L389 76Q388 76 387 76L387 76Q386 76 386 76L386 76Q386 76 386 75L386 75Q386 72 385 71Q384 70 382 70L382 70Q376 70 374 82L374 82Q373 86 373 88L373 88Q373 91 374 93Q376 96 379 96L379 96Q383 96 386 92L386 92Q387 92 388 94L388 94Q385 97 382 99Q378 101 375 101L375 101Z"/></svg>