<svg xmlns="http://www.w3.org/2000/svg" viewBox="0.9400000000000001 -7.1000000000000005 37.580000000000005 7.19"><path d="M6.49-6.76Q7.08-6.76 7.48-6.79L7.48-6.79Q7.46-6.45 7.36-6.17L7.36-6.17Q7.18-6.11 7.07-6.00Q6.95-5.90 6.82-5.67Q6.68-5.44 6.43-4.94L6.43-4.94Q5.10-2.31 3.71 0L3.71 0Q3.47 0.10 3.02 0.08L3.02 0.08Q2.38-2.62 1.67-5.13L1.67-5.13Q1.55-5.56 1.46-5.76Q1.37-5.96 1.27-6.04Q1.17-6.12 0.97-6.17L0.97-6.17Q0.94-6.31 0.94-6.51L0.94-6.51Q0.94-6.59 0.96-6.79L0.96-6.79Q1.45-6.76 2.35-6.76L2.35-6.76Q3.33-6.76 3.89-6.79L3.89-6.79Q3.89-6.45 3.77-6.16L3.77-6.16Q3.44-6.12 3.30-6.02Q3.16-5.91 3.16-5.67L3.16-5.67Q3.16-5.46 3.27-5.07L3.27-5.07Q3.68-3.59 4.02-1.84L4.02-1.84Q4.54-2.71 5.00-3.60Q5.47-4.48 5.71-5.01L5.71-5.01Q5.94-5.53 5.94-5.76L5.94-5.76Q5.94-5.93 5.82-6.02Q5.70-6.11 5.44-6.17L5.44-6.17Q5.41-6.32 5.41-6.49L5.41-6.49Q5.41-6.59 5.43-6.79L5.43-6.79Q5.74-6.76 6.49-6.76L6.49-6.76ZM8.33 0.09Q7.34 0.09 6.82-0.42Q6.29-0.93 6.29-1.79L6.29-1.79Q6.29-2.06 6.33-2.30L6.33-2.30Q6.51-3.40 7.26-4.04Q8-4.67 9.12-4.67L9.12-4.67Q10.11-4.67 10.64-4.17Q11.16-3.67 11.16-2.81L11.16-2.81Q11.16-2.55 11.12-2.32L11.12-2.32Q10.95-1.21 10.20-0.56Q9.44 0.09 8.33 0.09L8.33 0.09ZM8.44-0.52Q8.82-0.52 9.14-0.99Q9.45-1.46 9.58-2.26L9.58-2.26Q9.64-2.62 9.64-2.92L9.64-2.92Q9.64-3.45 9.47-3.75Q9.30-4.06 8.99-4.06L8.99-4.06Q8.61-4.06 8.32-3.60Q8.02-3.15 7.89-2.39L7.89-2.39Q7.82-2.01 7.82-1.65L7.82-1.65Q7.82-1.12 7.99-0.82Q8.15-0.52 8.44-0.52L8.44-0.52ZM12.75 0.09Q12.25 0.09 12.04-0.15Q11.82-0.39 11.82-0.84L11.82-0.84Q11.82-1.16 11.86-1.45Q11.91-1.73 12.09-2.67L12.09-2.67Q12.20-3.18 12.58-5.18L12.58-5.18Q12.65-5.53 12.65-5.74L12.65-5.74Q12.65-5.96 12.52-6.03Q12.40-6.10 12.06-6.10L12.06-6.10Q12.06-6.48 12.16-6.69L12.16-6.69Q12.60-6.70 13.13-6.82Q13.65-6.94 14.02-7.10L14.02-7.10Q14.16-7.01 14.22-6.90Q14.29-6.78 14.29-6.61L14.29-6.61Q14.29-6.50 14.26-6.33L14.26-6.33Q13.98-4.71 13.50-2.29L13.50-2.29Q13.49-2.20 13.45-2.02L13.45-2.02Q13.33-1.43 13.33-1.13L13.33-1.13Q13.33-0.97 13.37-0.91Q13.41-0.85 13.49-0.85L13.49-0.85Q13.65-0.85 13.90-1.06L13.90-1.06Q13.99-0.97 14.06-0.83Q14.14-0.69 14.16-0.56L14.16-0.56Q13.88-0.25 13.50-0.08Q13.13 0.09 12.75 0.09L12.75 0.09ZM15.79 0.09Q15.29 0.09 15.07-0.15Q14.86-0.39 14.86-0.84L14.86-0.84Q14.86-1.16 14.90-1.45Q14.95-1.73 15.13-2.67L15.13-2.67Q15.24-3.18 15.62-5.18L15.62-5.18Q15.69-5.53 15.69-5.74L15.69-5.74Q15.69-5.96 15.56-6.03Q15.44-6.10 15.10-6.10L15.10-6.10Q15.10-6.48 15.20-6.69L15.20-6.69Q15.64-6.70 16.16-6.82Q16.69-6.94 17.06-7.10L17.06-7.10Q17.20-7.01 17.27-6.90Q17.33-6.78 17.33-6.61L17.33-6.61Q17.33-6.50 17.30-6.33L17.30-6.33Q17.02-4.71 16.54-2.29L16.54-2.29Q16.53-2.20 16.49-2.02L16.49-2.02Q16.37-1.43 16.37-1.13L16.37-1.13Q16.37-0.97 16.41-0.91Q16.45-0.85 16.53-0.85L16.53-0.85Q16.69-0.85 16.94-1.06L16.94-1.06Q17.03-0.97 17.11-0.83Q17.18-0.69 17.20-0.56L17.20-0.56Q16.92-0.25 16.55-0.08Q16.17 0.09 15.79 0.09L15.79 0.09ZM22.68-3.57Q22.59-3.07 22.16-2.73Q21.72-2.38 20.93-2.10L20.93-2.10Q21.17-1.85 21.49-1.31L21.49-1.31Q21.64-1.06 21.73-0.97Q21.82-0.89 21.95-0.89L21.95-0.89Q22.12-0.89 22.30-1.06L22.30-1.06Q22.40-0.98 22.48-0.83Q22.56-0.69 22.57-0.55L22.57-0.55Q21.93 0.09 21.21 0.09L21.21 0.09Q20.76 0.09 20.53-0.12Q20.30-0.33 20.10-0.77L20.10-0.77Q19.86-1.30 19.54-1.76L19.54-1.76L19.48-1.40L19.22 0L17.74 0L18.65-5.18Q18.72-5.62 18.72-5.74L18.72-5.74Q18.72-5.97 18.60-6.04Q18.48-6.10 18.13-6.10L18.13-6.10Q18.13-6.45 18.23-6.69L18.23-6.69Q18.71-6.72 19.21-6.83Q19.71-6.94 20.10-7.10L20.10-7.10Q20.25-6.99 20.31-6.88Q20.37-6.78 20.37-6.62L20.37-6.62Q20.37-6.50 20.34-6.33L20.34-6.33Q20.09-4.95 19.96-4.40Q19.84-3.85 19.59-3.07L19.59-3.07L19.60-3.07Q19.95-3.78 20.50-4.22Q21.05-4.67 21.70-4.67L21.70-4.67Q22.15-4.67 22.43-4.43Q22.70-4.19 22.70-3.79L22.70-3.79Q22.70-3.73 22.68-3.57L22.68-3.57ZM21.26-3.20Q21.28-3.30 21.28-3.35L21.28-3.35Q21.28-3.52 21.18-3.62Q21.09-3.72 20.91-3.72L20.91-3.72Q20.70-3.72 20.43-3.52Q20.17-3.32 19.93-2.96Q19.70-2.60 19.57-2.15L19.57-2.15Q20.38-2.31 20.78-2.55Q21.18-2.79 21.26-3.20L21.26-3.20ZM25.18 0.09Q24.19 0.09 23.66-0.42Q23.14-0.93 23.14-1.79L23.14-1.79Q23.14-2.06 23.18-2.30L23.18-2.30Q23.36-3.40 24.10-4.04Q24.85-4.67 25.97-4.67L25.97-4.67Q26.96-4.67 27.48-4.17Q28.01-3.67 28.01-2.81L28.01-2.81Q28.01-2.55 27.97-2.32L27.97-2.32Q27.80-1.21 27.04-0.56Q26.29 0.09 25.18 0.09L25.18 0.09ZM25.29-0.52Q25.67-0.52 25.98-0.99Q26.30-1.46 26.43-2.26L26.43-2.26Q26.49-2.62 26.49-2.92L26.49-2.92Q26.49-3.45 26.32-3.75Q26.15-4.06 25.84-4.06L25.84-4.06Q25.46-4.06 25.16-3.60Q24.87-3.15 24.74-2.39L24.74-2.39Q24.67-2.01 24.67-1.65L24.67-1.65Q24.67-1.12 24.83-0.82Q25.00-0.52 25.29-0.52L25.29-0.52ZM30.51-4.67Q30.78-4.54 30.78-4.20L30.78-4.20Q30.78-4.15 30.76-3.97L30.76-3.97Q30.72-3.71 30.60-3.33Q30.48-2.94 30.31-2.57L30.31-2.57L30.33-2.57L30.57-3.10Q30.90-3.81 31.34-4.24Q31.79-4.67 32.31-4.67L32.31-4.67Q32.62-4.67 32.84-4.52L32.84-4.52Q32.71-4.16 32.63-3.71Q32.55-3.26 32.53-2.86L32.53-2.86Q32.17-2.70 31.71-2.73L31.71-2.73Q31.72-2.78 31.72-2.86L31.72-2.86Q31.72-3.03 31.65-3.13Q31.59-3.23 31.49-3.23L31.49-3.23Q31.24-3.23 30.91-2.66L30.91-2.66Q30.72-2.33 30.53-1.79Q30.35-1.26 30.24-0.67L30.24-0.67L30.12 0L28.64 0L29.16-2.75Q29.24-3.15 29.24-3.32L29.24-3.32Q29.24-3.54 29.11-3.60Q28.99-3.67 28.65-3.67L28.65-3.67Q28.65-4.02 28.75-4.26L28.75-4.26Q29.18-4.28 29.65-4.40Q30.12-4.51 30.51-4.67L30.51-4.67ZM38.26-1.06Q38.35-0.96 38.42-0.82Q38.50-0.68 38.52-0.55L38.52-0.55Q37.88 0.09 37.10 0.09L37.10 0.09Q36.61 0.09 36.41-0.13Q36.20-0.34 36.20-0.76L36.20-0.76Q36.20-1.06 36.32-1.63L36.32-1.63L36.52-2.52Q36.60-2.85 36.60-3.12L36.60-3.12Q36.60-3.53 36.34-3.53L36.34-3.53Q36.10-3.53 35.78-3.21Q35.47-2.89 35.19-2.28Q34.91-1.67 34.76-0.86L34.76-0.86L34.60 0L33.12 0L33.64-2.75Q33.71-3.10 33.71-3.31L33.71-3.31Q33.71-3.53 33.59-3.60Q33.46-3.67 33.12-3.67L33.12-3.67Q33.12-4.05 33.22-4.26L33.22-4.26Q33.66-4.27 34.19-4.39Q34.71-4.51 35.09-4.67L35.09-4.67Q35.38-4.54 35.38-4.19L35.38-4.19Q35.38-4.14 35.36-4.02L35.36-4.02Q35.29-3.66 35.20-3.39Q35.12-3.11 34.98-2.78L34.98-2.78L34.98-2.75L35.15-3.11Q35.45-3.73 36.03-4.20Q36.61-4.67 37.20-4.67L37.20-4.67Q37.63-4.67 37.91-4.40Q38.18-4.12 38.18-3.52L38.18-3.52Q38.18-3.20 38.07-2.71L38.07-2.71L37.83-1.70Q37.70-1.15 37.70-0.99L37.70-0.99Q37.70-0.90 37.73-0.87Q37.76-0.84 37.83-0.84L37.83-0.84Q37.99-0.84 38.26-1.06L38.26-1.06Z"/></svg>