<svg xmlns="http://www.w3.org/2000/svg" viewBox="-0.08 -7 52.86000000000001 7.1"><path d="M4.86-2.48L4.35 0L1.79 0L-0.08-6.60L2.43-6.60L3.20-1.83L4.13-6.60L6.13-6.60L7.11-1.86L7.86-6.60L10.28-6.60L8.40 0L5.93 0L5.41-2.48L5.15-4.17L5.12-4.17L4.86-2.48ZM12.54-5.10Q13.87-5.10 14.60-4.42Q15.33-3.74 15.33-2.50L15.33-2.50Q15.33-1.26 14.60-0.58Q13.87 0.10 12.54 0.10L12.54 0.10Q11.21 0.10 10.48-0.58Q9.75-1.26 9.75-2.50L9.75-2.50Q9.75-3.74 10.48-4.42Q11.21-5.10 12.54-5.10L12.54-5.10ZM12.54-3.55Q12.34-3.55 12.24-3.46Q12.14-3.37 12.10-3.15Q12.06-2.93 12.06-2.50L12.06-2.50Q12.06-2.07 12.10-1.85Q12.14-1.63 12.24-1.54Q12.34-1.45 12.54-1.45L12.54-1.45Q12.74-1.45 12.84-1.54Q12.94-1.63 12.98-1.85Q13.02-2.07 13.02-2.50L13.02-2.50Q13.02-2.93 12.98-3.15Q12.94-3.37 12.84-3.46Q12.74-3.55 12.54-3.55L12.54-3.55ZM19.51-5.10Q19.86-5.10 20.03-4.98L20.03-4.98L19.84-3.10Q19.75-3.17 19.58-3.21Q19.41-3.26 19.21-3.26L19.21-3.26Q18.75-3.26 18.48-3.04Q18.22-2.82 18.22-2.40L18.22-2.40L18.22 0L15.92 0L15.92-5L17.99-5L18.04-3.75Q18.40-5.10 19.51-5.10L19.51-5.10ZM24.20 0L23.30-1.75L22.66-0.97L22.66 0L20.36 0L20.36-7L22.66-7L22.66-3.23L24.12-5L26.59-5L24.81-3.04L26.70 0L24.20 0ZM32.32-6.70Q33.30-6.70 33.99-6.47Q34.68-6.24 35.36-5.65L35.36-5.65L34.34-4.20Q33.89-4.62 33.43-4.80Q32.96-4.99 32.39-4.99L32.39-4.99Q32.04-4.99 31.83-4.88Q31.62-4.78 31.62-4.61L31.62-4.61Q31.62-4.50 31.82-4.44Q32.02-4.38 32.52-4.29L32.52-4.29Q33.97-4.03 34.61-3.50Q35.24-2.98 35.24-2.03L35.24-2.03Q35.24-1.35 34.85-0.87Q34.46-0.39 33.79-0.14Q33.12 0.10 32.29 0.10L32.29 0.10Q31.12 0.10 30.42-0.12Q29.72-0.34 29.05-0.83L29.05-0.83L30.05-2.41Q30.47-2 30.97-1.80Q31.47-1.61 32.12-1.61L32.12-1.61Q32.85-1.61 32.85-1.91L32.85-1.91Q32.85-2.07 32.62-2.15Q32.39-2.23 31.87-2.32L31.87-2.32Q31.11-2.46 30.58-2.64Q30.04-2.82 29.64-3.25Q29.23-3.68 29.23-4.43L29.23-4.43Q29.23-5.11 29.59-5.62Q29.95-6.13 30.65-6.42Q31.34-6.70 32.32-6.70L32.32-6.70ZM41.13-1.23Q41.30-1.23 41.38-1.27L41.38-1.27L41.20-0.10Q40.86 0.10 40.46 0.10L40.46 0.10Q39.85 0.10 39.44-0.12Q39.03-0.33 38.89-0.74L38.89-0.74Q38.66-0.35 38.22-0.13Q37.77 0.10 37.11 0.10L37.11 0.10Q36.33 0.10 35.95-0.21Q35.57-0.51 35.57-1.09L35.57-1.09Q35.57-1.72 36.02-2.10Q36.47-2.47 37.52-2.70L37.52-2.70L38.51-2.92L38.51-3.12Q38.51-3.35 38.40-3.48Q38.28-3.61 38.06-3.61L38.06-3.61Q37.82-3.61 37.68-3.48Q37.54-3.34 37.53-3L37.53-3L35.63-3.29Q35.71-4.15 36.35-4.63Q36.99-5.10 38.19-5.10L38.19-5.10Q39.52-5.10 40.16-4.59Q40.79-4.08 40.79-3.04L40.79-3.04L40.79-1.64Q40.79-1.23 41.13-1.23L41.13-1.23ZM38.08-1.15Q38.27-1.15 38.39-1.28Q38.51-1.40 38.51-1.64L38.51-1.64L38.51-2.12L38.18-2.02Q37.97-1.96 37.85-1.82Q37.73-1.69 37.73-1.50L37.73-1.50Q37.73-1.33 37.83-1.24Q37.93-1.15 38.08-1.15L38.08-1.15ZM45.54-5.10Q46.28-5.10 46.70-4.66Q47.11-4.22 47.11-3.42L47.11-3.42L47.11 0L44.81 0L44.81-2.82Q44.81-3.15 44.73-3.27Q44.65-3.40 44.46-3.40L44.46-3.40Q44.21-3.40 44.10-3.21Q43.98-3.02 43.98-2.62L43.98-2.62L43.98 0L41.68 0L41.68-5L43.75-5L43.80-3.91Q44.02-4.49 44.46-4.79Q44.90-5.10 45.54-5.10L45.54-5.10ZM50.20 0.10Q49.27 0.10 48.63-0.07Q47.99-0.25 47.55-0.64L47.55-0.64L48.56-1.86Q48.85-1.60 49.23-1.44Q49.61-1.28 50.03-1.28L50.03-1.28Q50.22-1.28 50.35-1.31Q50.47-1.35 50.47-1.43L50.47-1.43Q50.47-1.52 50.30-1.59Q50.13-1.67 49.72-1.75L49.72-1.75Q48.64-1.96 48.15-2.35Q47.65-2.75 47.65-3.36L47.65-3.36Q47.65-3.80 47.95-4.20Q48.24-4.59 48.85-4.84Q49.46-5.10 50.36-5.10L50.36-5.10Q51.24-5.10 51.84-4.89Q52.43-4.68 52.77-4.37L52.77-4.37L51.83-3.26Q51.37-3.72 50.47-3.72L50.47-3.72Q50.20-3.72 50.08-3.67Q49.96-3.62 49.96-3.54L49.96-3.54Q49.96-3.42 50.57-3.34L50.57-3.34Q51.72-3.18 52.25-2.79Q52.78-2.39 52.78-1.70L52.78-1.70Q52.78-0.92 52.14-0.41Q51.50 0.10 50.20 0.10L50.20 0.10Z"/></svg>