<svg xmlns="http://www.w3.org/2000/svg" viewBox="2.16 47.43999999999999 518.6880000000001 68.04000000000002"><path d="M31 67L21 100L17 100L2 52L6 52L19 97L32 52L36 52L48 97L62 52L65 52L50 100L46 100L36 67L34 56L34 56L31 67ZM86 63Q94 63 99 68Q103 73 103 82L103 82Q103 91 99 96Q94 101 86 101L86 101Q78 101 74 96Q69 91 69 82L69 82Q69 73 74 68Q78 63 86 63L86 63ZM86 66Q80 66 76 71Q73 75 73 82L73 82Q73 89 76 93Q80 98 86 98L86 98Q93 98 96 93Q100 89 100 82L100 82Q100 75 96 71Q93 66 86 66L86 66ZM129 63Q132 63 134 65L134 65L133 68Q131 67 128 67L128 67Q125 67 123 68Q120 70 119 73Q118 76 118 80L118 80L118 100L114 100L114 64L117 64L117 71Q119 68 122 65Q125 63 129 63L129 63ZM167 100L153 81L145 89L145 100L141 100L141 47L145 47L145 85L166 64L171 64L156 78L171 100L167 100ZM216 52Q229 52 234 62L234 62L231 65Q229 60 226 57Q222 55 216 55L216 55Q212 55 209 56Q206 58 204 60Q203 62 203 65L203 65Q203 68 204 69Q205 71 209 73Q212 74 218 75L218 75Q227 76 231 79Q235 82 235 88L235 88Q235 92 232 95Q230 97 226 99Q222 101 217 101L217 101Q209 101 204 98Q199 95 197 89L197 89L200 87Q202 92 206 95Q210 97 217 97L217 97Q223 97 227 95Q231 92 231 88L231 88Q231 84 228 82Q224 80 217 78L217 78Q210 77 206 76Q202 74 200 71Q199 69 199 65L199 65Q199 62 201 59Q203 55 207 54Q211 52 216 52L216 52ZM273 98Q275 98 276 97L276 97L276 100Q275 101 273 101L273 101Q270 101 268 99Q267 98 267 95L267 95Q265 97 261 99Q258 101 254 101L254 101Q248 101 245 98Q242 96 242 92L242 92Q242 83 256 81L256 81L267 79L267 76Q267 71 264 69Q261 66 257 66L257 66Q248 66 245 74L245 74L242 72Q244 68 248 66Q251 63 257 63L257 63Q263 63 267 66Q270 69 270 75L270 75L270 94Q270 98 273 98L273 98ZM254 98Q257 98 260 97Q263 95 265 93Q267 91 267 88L267 88L267 82L257 84Q251 85 248 87Q246 89 246 92L246 92Q246 94 248 96Q250 98 254 98L254 98ZM300 63Q307 63 310 67Q314 70 314 77L314 77L314 100L311 100L311 78Q311 72 308 69Q305 66 300 66L300 66Q297 66 294 68Q291 70 289 73Q287 76 287 80L287 80L287 100L284 100L284 64L287 64L287 71Q289 67 292 65Q296 63 300 63L300 63ZM338 101Q333 101 329 99Q325 96 323 92L323 92L326 90Q327 94 331 96Q334 98 339 98L339 98Q344 98 347 96Q349 94 349 91L349 91Q349 88 347 86Q345 85 339 84L339 84Q331 82 328 80Q325 78 325 74L325 74Q325 71 327 68Q328 66 331 65Q335 63 339 63L339 63Q344 63 348 65Q351 68 352 72L352 72L349 74Q347 66 339 66L339 66Q336 66 333 67Q331 68 330 70Q328 71 328 73L328 73Q328 76 331 78Q333 79 339 81L339 81Q347 82 350 84Q353 86 353 91L353 91Q353 95 349 98Q345 101 338 101L338 101ZM389 47L389 91Q389 95 390 96Q391 97 393 97L393 97Q395 97 396 97Q397 97 398 96L398 96L398 100Q396 101 393 101L393 101Q389 101 387 99Q385 96 385 92L385 92L385 47L389 47ZM407 57Q406 57 405 56Q404 55 404 54L404 54Q404 53 405 52Q406 51 407 51L407 51Q408 51 409 52Q410 53 410 54L410 54Q410 55 409 56Q408 57 407 57L407 57ZM409 64L409 100L405 100L405 64L409 64ZM440 96Q446 96 449 99Q452 101 452 105L452 105Q452 108 450 110Q447 113 444 114Q440 115 435 115L435 115Q427 115 422 113Q418 110 418 106L418 106Q418 103 420 101Q421 99 424 98L424 98Q422 97 421 96Q420 94 420 92L420 92Q420 89 421 88Q423 86 426 85L426 85Q423 83 421 81Q420 78 420 75L420 75Q420 70 424 66Q428 63 434 63L434 63Q439 63 443 65L443 65Q443 61 445 59Q448 57 452 57L452 57L452 61Q449 61 447 62Q445 64 445 66L445 66Q449 70 449 75L449 75Q449 80 445 84Q441 87 434 87L434 87Q432 87 430 86L430 86Q427 87 425 88Q423 89 423 91L423 91Q423 94 425 95Q427 96 431 96L431 96L440 96ZM423 75Q423 79 426 81Q429 84 434 84L434 84Q439 84 442 81Q445 79 445 75L445 75Q445 71 442 69Q439 66 434 66L434 66Q429 66 426 69Q423 71 423 75L423 75ZM435 112Q441 112 445 110Q449 108 449 105L449 105Q449 102 446 101Q444 99 439 99L439 99L430 99Q426 99 424 101Q421 103 421 105L421 105Q421 109 425 111Q428 112 435 112L435 112ZM476 63Q482 63 486 67Q489 70 489 77L489 77L489 100L486 100L486 78Q486 72 483 69Q480 66 475 66L475 66Q472 66 469 68Q466 70 464 73Q462 76 462 80L462 80L462 100L459 100L459 47L462 47L462 71Q464 67 468 65Q471 63 476 63L476 63ZM520 95L521 98Q519 99 517 100Q515 101 513 101L513 101Q508 101 506 98Q503 96 503 91L503 91L503 67L496 67L496 64L503 64L503 55L507 54L507 64L520 64L520 67L507 67L507 90Q507 94 509 96Q510 97 513 97L513 97Q517 97 520 95L520 95Z"/></svg>