<svg xmlns="http://www.w3.org/2000/svg" viewBox="0.19 -7.19 51.61999999999999 7.29"><path d="M4.61-3.60L3.70 0L2.11 0L0.19-6.60L1.68-6.60L2.96-1.09L4.28-6.60L5.60-6.60L6.94-1.09L8.22-6.60L9.64-6.60L7.72 0L6.17 0L5.25-3.60L4.94-5.16L4.92-5.16L4.61-3.60ZM12.40-5.10Q13.61-5.10 14.29-4.41Q14.96-3.72 14.96-2.50L14.96-2.50Q14.96-1.28 14.29-0.59Q13.61 0.10 12.40 0.10L12.40 0.10Q11.19 0.10 10.51-0.59Q9.84-1.28 9.84-2.50L9.84-2.50Q9.84-3.72 10.51-4.41Q11.19-5.10 12.40-5.10L12.40-5.10ZM12.40-4.08Q11.82-4.08 11.51-3.69Q11.21-3.29 11.21-2.50L11.21-2.50Q11.21-1.71 11.51-1.31Q11.82-0.92 12.40-0.92L12.40-0.92Q12.98-0.92 13.29-1.31Q13.59-1.71 13.59-2.50L13.59-2.50Q13.59-3.29 13.29-3.69Q12.98-4.08 12.40-4.08L12.40-4.08ZM18.97-5.10Q19.32-5.10 19.51-4.99L19.51-4.99L19.34-3.79Q19.11-3.94 18.71-3.94L18.71-3.94Q18.22-3.94 17.86-3.58Q17.51-3.23 17.51-2.59L17.51-2.59L17.51 0L16.14 0L16.14-5L17.33-5L17.42-4.02Q17.83-5.10 18.97-5.10L18.97-5.10ZM24.02 0L22.64-2.21L21.73-1.24L21.73 0L20.36 0L20.36-7.19L21.73-7.19L21.73-2.72L23.90-5L25.45-5L23.57-3.04L25.57 0L24.02 0ZM31.82-6.70Q32.74-6.70 33.40-6.40Q34.06-6.09 34.56-5.43L34.56-5.43L33.61-4.50Q33.35-5.04 32.92-5.30Q32.49-5.57 31.83-5.57L31.83-5.57Q31.23-5.57 30.90-5.34Q30.58-5.12 30.58-4.75L30.58-4.75Q30.58-4.41 30.91-4.21Q31.24-4.01 32.10-3.86L32.10-3.86Q33.00-3.69 33.53-3.44Q34.06-3.19 34.30-2.81Q34.55-2.44 34.55-1.88L34.55-1.88Q34.55-1.27 34.20-0.83Q33.86-0.38 33.24-0.14Q32.63 0.10 31.84 0.10L31.84 0.10Q30.75 0.10 30.05-0.21Q29.36-0.51 28.93-1.13L28.93-1.13L29.75-2.11Q30.12-1.50 30.60-1.27Q31.08-1.03 31.79-1.03L31.79-1.03Q32.43-1.03 32.76-1.23Q33.10-1.43 33.10-1.80L33.10-1.80Q33.10-2.07 32.78-2.25Q32.47-2.43 31.66-2.59L31.66-2.59Q30.73-2.78 30.17-3.04Q29.62-3.30 29.37-3.68Q29.12-4.06 29.12-4.62L29.12-4.62Q29.12-5.21 29.44-5.69Q29.76-6.16 30.37-6.43Q30.99-6.70 31.82-6.70L31.82-6.70ZM40.21-0.83Q40.42-0.83 40.55-0.87L40.55-0.87L40.45-0.04Q40.17 0.10 39.80 0.10L39.80 0.10Q38.84 0.10 38.65-0.65L38.65-0.65Q38.43-0.28 37.97-0.09Q37.51 0.10 36.88 0.10L36.88 0.10Q36.15 0.10 35.74-0.23Q35.33-0.56 35.33-1.18L35.33-1.18Q35.33-2.40 37.28-2.76L37.28-2.76L38.48-2.99L38.48-3.23Q38.48-3.63 38.25-3.87Q38.03-4.10 37.63-4.10L37.63-4.10Q37.17-4.10 36.88-3.90Q36.59-3.70 36.48-3.25L36.48-3.25L35.39-3.71Q35.55-4.36 36.11-4.73Q36.67-5.10 37.57-5.10L37.57-5.10Q38.64-5.10 39.24-4.63Q39.84-4.17 39.84-3.26L39.84-3.26L39.84-1.21Q39.84-1.01 39.93-0.92Q40.02-0.83 40.21-0.83L40.21-0.83ZM37.31-0.83Q37.75-0.83 38.11-1.04Q38.48-1.26 38.48-1.63L38.48-1.63L38.48-2.15L37.41-1.91Q37.07-1.83 36.90-1.70Q36.74-1.56 36.74-1.32L36.74-1.32Q36.74-1.08 36.89-0.96Q37.04-0.83 37.31-0.83L37.31-0.83ZM44.36-5.10Q45.17-5.10 45.66-4.63Q46.16-4.16 46.16-3.28L46.16-3.28L46.16 0L44.79 0L44.79-2.88Q44.79-4.02 43.90-4.02L43.90-4.02Q43.42-4.02 43.08-3.68Q42.75-3.34 42.75-2.64L42.75-2.64L42.75 0L41.38 0L41.38-5L42.61-5L42.65-4.11Q42.90-4.60 43.34-4.85Q43.78-5.10 44.36-5.10L44.36-5.10ZM49.51 0.10Q47.84 0.10 47.19-0.86L47.19-0.86L47.99-1.68Q48.19-1.25 48.56-1.07Q48.94-0.90 49.49-0.90L49.49-0.90Q49.93-0.90 50.17-1.02Q50.41-1.14 50.41-1.35L50.41-1.35Q50.41-1.52 50.18-1.64Q49.96-1.76 49.41-1.87L49.41-1.87Q48.26-2.10 47.79-2.48Q47.33-2.85 47.33-3.49L47.33-3.49Q47.33-3.91 47.59-4.28Q47.85-4.65 48.36-4.88Q48.87-5.10 49.58-5.10L49.58-5.10Q50.42-5.10 50.94-4.84Q51.46-4.59 51.81-4.04L51.81-4.04L50.96-3.32Q50.74-3.72 50.41-3.91Q50.09-4.10 49.60-4.10L49.60-4.10Q49.19-4.10 48.94-3.96Q48.70-3.82 48.70-3.62L48.70-3.62Q48.70-3.41 48.94-3.27Q49.18-3.13 49.79-3.01L49.79-3.01Q50.88-2.79 51.33-2.44Q51.79-2.08 51.79-1.45L51.79-1.45Q51.79-0.75 51.19-0.33Q50.60 0.10 49.51 0.10L49.51 0.10Z"/></svg>