<svg xmlns="http://www.w3.org/2000/svg" viewBox="2.016 47.8 677.592 52.92"><path d="M32.62 71.49L25.13 100L15.98 100L2.02 52.48L10.37 52.48L20.74 93.88L31.18 52.48L39.10 52.48L49.61 93.95L60.05 52.48L67.97 52.48L54.07 100L45.00 100L37.44 71.49L35.06 60.54L34.99 60.54L32.62 71.49ZM88.92 63.28Q97.34 63.28 102.10 68.25Q106.85 73.22 106.85 82L106.85 82Q106.85 90.78 102.10 95.75Q97.34 100.72 88.92 100.72L88.92 100.72Q80.50 100.72 75.74 95.75Q70.99 90.78 70.99 82L70.99 82Q70.99 73.22 75.74 68.25Q80.50 63.28 88.92 63.28L88.92 63.28ZM88.92 69.33Q84.02 69.33 81.40 72.60Q78.77 75.88 78.77 82L78.77 82Q78.77 88.12 81.40 91.40Q84.02 94.67 88.92 94.67L88.92 94.67Q93.82 94.67 96.48 91.36Q99.14 88.05 99.14 82L99.14 82Q99.14 75.95 96.48 72.64Q93.82 69.33 88.92 69.33L88.92 69.33ZM135.29 63.28Q137.81 63.28 139.25 64.00L139.25 64.00L138.02 71.06Q136.37 70.12 133.49 70.12L133.49 70.12Q131.18 70.12 129.13 71.34Q127.08 72.57 125.75 75.02Q124.42 77.46 124.42 80.92L124.42 80.92L124.42 100L116.71 100L116.71 64.00L123.26 64.00L123.91 70.48Q126.94 63.28 135.29 63.28L135.29 63.28ZM172.44 100L161.35 83.08L154.22 90.42L154.22 100L146.52 100L146.52 47.80L154.22 47.80L154.22 81.64L171.43 64.00L180.50 64.00L166.75 78.11L181.37 100L172.44 100ZM227.74 51.76Q234.29 51.76 238.93 54.14Q243.58 56.51 246.74 61.41L246.74 61.41L240.91 66.66Q238.90 62.34 235.87 60.40Q232.85 58.46 227.81 58.46L227.81 58.46Q222.84 58.46 220.10 60.44Q217.37 62.42 217.37 65.51L217.37 65.51Q217.37 68.39 220.03 70.08Q222.70 71.78 229.54 73L229.54 73Q235.94 74.15 239.72 75.92Q243.50 77.68 245.23 80.31Q246.96 82.94 246.96 86.82L246.96 86.82Q246.96 91 244.58 94.17Q242.21 97.34 237.92 99.03Q233.64 100.72 228.02 100.72L228.02 100.72Q213.55 100.72 207.58 91.07L207.58 91.07L212.98 85.67Q215.28 89.99 218.92 92.01Q222.55 94.02 227.95 94.02L227.95 94.02Q233.06 94.02 235.98 92.26Q238.90 90.50 238.90 87.26L238.90 87.26Q238.90 84.66 236.27 83.08Q233.64 81.50 227.09 80.27L227.09 80.27Q220.54 79.05 216.65 77.25Q212.76 75.45 211.00 72.78Q209.23 70.12 209.23 66.30L209.23 66.30Q209.23 62.27 211.46 58.96Q213.70 55.65 217.91 53.70Q222.12 51.76 227.74 51.76L227.74 51.76ZM287.21 94.96Q288.79 94.96 289.87 94.67L289.87 94.67L289.37 99.86Q287.42 100.72 284.90 100.72L284.90 100.72Q281.81 100.72 279.97 99.50Q278.14 98.27 277.56 95.39L277.56 95.39Q275.90 97.91 272.66 99.32Q269.42 100.72 265.39 100.72L265.39 100.72Q260.14 100.72 256.90 98.27Q253.66 95.82 253.66 91.29L253.66 91.29Q253.66 87.04 257.18 84.12Q260.71 81.21 267.70 79.98L267.70 79.98L276.84 78.40L276.84 76.46Q276.84 73.14 274.90 71.24Q272.95 69.33 269.50 69.33L269.50 69.33Q262.37 69.33 260.21 75.81L260.21 75.81L254.23 72.64Q255.53 68.32 259.52 65.80Q263.52 63.28 269.35 63.28L269.35 63.28Q276.34 63.28 280.44 66.52Q284.54 69.76 284.54 76.02L284.54 76.02L284.54 92.30Q284.54 93.66 285.16 94.31Q285.77 94.96 287.21 94.96L287.21 94.96ZM267.05 94.89Q270.94 94.89 273.89 93.02Q276.84 91.14 276.84 88.05L276.84 88.05L276.84 83.73L268.99 85.31Q265.25 86.03 263.45 87.33Q261.65 88.62 261.65 90.78L261.65 90.78Q261.65 92.80 263.05 93.84Q264.46 94.89 267.05 94.89L267.05 94.89ZM316.51 63.28Q322.49 63.28 326.27 66.74Q330.05 70.19 330.05 76.67L330.05 76.67L330.05 100L322.34 100L322.34 79.12Q322.34 69.62 314.64 69.62L314.64 69.62Q310.61 69.62 307.73 72.39Q304.85 75.16 304.85 80.92L304.85 80.92L304.85 100L297.14 100L297.14 64.00L303.98 64.00L304.34 69.98Q306.14 66.59 309.31 64.94Q312.48 63.28 316.51 63.28L316.51 63.28ZM354.74 100.72Q349.27 100.72 345.06 98.85Q340.85 96.98 338.69 93.16L338.69 93.16L343.87 88.70Q345.24 91.79 348.12 93.23Q351 94.67 355.03 94.67L355.03 94.67Q358.70 94.67 360.72 93.48Q362.74 92.30 362.74 90.35L362.74 90.35Q362.74 88.62 360.86 87.58Q358.99 86.54 354.38 85.60L354.38 85.60Q346.39 84.09 343.15 81.57Q339.91 79.05 339.91 74.44L339.91 74.44Q339.91 71.49 341.71 68.93Q343.51 66.38 346.93 64.83Q350.35 63.28 355.03 63.28L355.03 63.28Q361.01 63.28 364.61 65.26Q368.21 67.24 370.15 71.42L370.15 71.42L364.68 75.45Q363.38 72.28 361.04 70.80Q358.70 69.33 355.10 69.33L355.10 69.33Q351.86 69.33 349.74 70.66Q347.62 71.99 347.62 73.72L347.62 73.72Q347.62 75.66 349.52 76.82Q351.43 77.97 356.47 78.90L356.47 78.90Q364.10 80.27 367.27 82.79Q370.44 85.31 370.44 89.85L370.44 89.85Q370.44 94.67 366.26 97.70Q362.09 100.72 354.74 100.72L354.74 100.72ZM446.62 63.28Q450.22 63.28 453.24 64.76Q456.26 66.23 458.06 69.26Q459.86 72.28 459.86 76.67L459.86 76.67L459.86 100L452.16 100L452.16 77.90Q452.16 73.65 450.14 71.63Q448.13 69.62 444.74 69.62L444.74 69.62Q440.78 69.62 438.08 72.50Q435.38 75.38 435.38 80.42L435.38 80.42L435.38 100L427.68 100L427.68 77.90Q427.68 73.65 425.66 71.63Q423.65 69.62 420.26 69.62L420.26 69.62Q417.96 69.62 415.80 70.80Q413.64 71.99 412.27 74.51Q410.90 77.03 410.90 80.85L410.90 80.85L410.90 100L403.20 100L403.20 64.00L410.04 64.00L410.40 69.98Q412.20 66.66 415.30 64.97Q418.39 63.28 422.06 63.28L422.06 63.28Q426.10 63.28 429.37 65.12Q432.65 66.95 434.23 70.48L434.23 70.48Q435.89 66.95 439.31 65.12Q442.73 63.28 446.62 63.28L446.62 63.28ZM503.71 80.92Q503.71 83.01 503.42 84.88L503.42 84.88L477.07 84.88Q477.72 89.63 480.46 92.12Q483.19 94.60 487.51 94.60L487.51 94.60Q491.04 94.60 493.38 93.34Q495.72 92.08 496.58 89.70L496.58 89.70L502.99 92.37Q498.96 100.72 487.51 100.72L487.51 100.72Q479.02 100.72 474.23 95.75Q469.44 90.78 469.44 82L469.44 82Q469.44 73.14 474.05 68.21Q478.66 63.28 487.01 63.28L487.01 63.28Q494.93 63.28 499.32 68.10Q503.71 72.93 503.71 80.92L503.71 80.92ZM487.01 69.40Q482.83 69.40 480.28 71.85Q477.72 74.30 477.07 78.98L477.07 78.98L496.51 78.98Q495.94 74.44 493.45 71.92Q490.97 69.40 487.01 69.40L487.01 69.40ZM538.99 47.80L546.70 47.80L546.70 100L539.93 100L539.50 93.59Q537.91 96.83 534.71 98.78Q531.50 100.72 527.40 100.72L527.40 100.72Q519.98 100.72 515.70 95.79Q511.42 90.86 511.42 82.07L511.42 82.07Q511.42 73.29 515.70 68.28Q519.98 63.28 527.40 63.28L527.40 63.28Q531.36 63.28 534.38 65.04Q537.41 66.81 538.99 69.83L538.99 69.83L538.99 47.80ZM529.13 94.53Q533.66 94.53 536.33 91.29Q538.99 88.05 538.99 82.43L538.99 82.43L538.99 81.57Q538.99 75.95 536.33 72.75Q533.66 69.54 529.13 69.54L529.13 69.54Q524.45 69.54 521.82 72.82Q519.19 76.10 519.19 82L519.19 82Q519.19 87.90 521.82 91.22Q524.45 94.53 529.13 94.53L529.13 94.53ZM562.54 57.95Q560.09 57.95 558.72 56.69Q557.35 55.43 557.35 53.13L557.35 53.13Q557.35 50.82 558.72 49.60Q560.09 48.38 562.54 48.38L562.54 48.38Q564.98 48.38 566.32 49.60Q567.65 50.82 567.65 53.13L567.65 53.13Q567.65 55.43 566.32 56.69Q564.98 57.95 562.54 57.95L562.54 57.95ZM566.35 64.00L566.35 100L558.65 100L558.65 64.00L566.35 64.00ZM603.29 64.00L610.99 64.00L610.99 100L604.15 100L603.86 94.17Q600.19 100.72 591.05 100.72L591.05 100.72Q585.22 100.72 581.65 97.52Q578.09 94.31 578.09 87.69L578.09 87.69L578.09 64.00L585.79 64.00L585.79 85.67Q585.79 90.42 587.66 92.40Q589.54 94.38 593.21 94.38L593.21 94.38Q597.60 94.38 600.44 91.61Q603.29 88.84 603.29 83.44L603.29 83.44L603.29 64.00ZM666.36 63.28Q669.96 63.28 672.98 64.76Q676.01 66.23 677.81 69.26Q679.61 72.28 679.61 76.67L679.61 76.67L679.61 100L671.90 100L671.90 77.90Q671.90 73.65 669.89 71.63Q667.87 69.62 664.49 69.62L664.49 69.62Q660.53 69.62 657.83 72.50Q655.13 75.38 655.13 80.42L655.13 80.42L655.13 100L647.42 100L647.42 77.90Q647.42 73.65 645.41 71.63Q643.39 69.62 640.01 69.62L640.01 69.62Q637.70 69.62 635.54 70.80Q633.38 71.99 632.02 74.51Q630.65 77.03 630.65 80.85L630.65 80.85L630.65 100L622.94 100L622.94 64.00L629.78 64.00L630.14 69.98Q631.94 66.66 635.04 64.97Q638.14 63.28 641.81 63.28L641.81 63.28Q645.84 63.28 649.12 65.12Q652.39 66.95 653.98 70.48L653.98 70.48Q655.63 66.95 659.05 65.12Q662.47 63.28 666.36 63.28L666.36 63.28Z"/></svg>