<svg xmlns="http://www.w3.org/2000/svg" viewBox="1.368 48.23199999999999 738.3600000000001 52.48800000000001"><path d="M33.19 74.08L26.64 100L15.19 100L1.37 52.48L12.10 52.48L21.31 92.15L30.82 52.48L40.32 52.48L49.97 92.15L59.18 52.48L69.41 52.48L55.58 100L44.42 100L37.80 74.08L35.57 62.85L35.42 62.85L33.19 74.08ZM89.28 63.28Q97.99 63.28 102.85 68.25Q107.71 73.22 107.71 82L107.71 82Q107.71 90.78 102.85 95.75Q97.99 100.72 89.28 100.72L89.28 100.72Q80.57 100.72 75.71 95.75Q70.85 90.78 70.85 82L70.85 82Q70.85 73.22 75.71 68.25Q80.57 63.28 89.28 63.28L89.28 63.28ZM89.28 70.62Q85.10 70.62 82.91 73.47Q80.71 76.31 80.71 82L80.71 82Q80.71 87.69 82.91 90.53Q85.10 93.38 89.28 93.38L89.28 93.38Q93.46 93.38 95.65 90.53Q97.85 87.69 97.85 82L97.85 82Q97.85 76.31 95.65 73.47Q93.46 70.62 89.28 70.62L89.28 70.62ZM136.58 63.28Q139.10 63.28 140.47 64.07L140.47 64.07L139.25 72.71Q137.59 71.63 134.71 71.63L134.71 71.63Q131.18 71.63 128.63 74.19Q126.07 76.74 126.07 81.35L126.07 81.35L126.07 100L116.21 100L116.21 64.00L124.78 64.00L125.42 71.06Q128.38 63.28 136.58 63.28L136.58 63.28ZM172.94 100L163.01 84.09L156.46 91.07L156.46 100L146.59 100L146.59 48.23L156.46 48.23L156.46 80.42L172.08 64.00L183.24 64.00L169.70 78.11L184.10 100L172.94 100ZM229.10 51.76Q235.73 51.76 240.48 53.96Q245.23 56.15 248.83 60.90L248.83 60.90L241.99 67.60Q240.12 63.71 237.02 61.80Q233.93 59.90 229.18 59.90L229.18 59.90Q224.86 59.90 222.52 61.52Q220.18 63.14 220.18 65.80L220.18 65.80Q220.18 68.25 222.55 69.69Q224.93 71.13 231.12 72.21L231.12 72.21Q237.60 73.43 241.42 75.23Q245.23 77.03 247.00 79.73Q248.76 82.43 248.76 86.46L248.76 86.46Q248.76 90.86 246.28 94.06Q243.79 97.26 239.36 98.99Q234.94 100.72 229.25 100.72L229.25 100.72Q221.40 100.72 216.40 98.52Q211.39 96.33 208.30 91.86L208.30 91.86L214.20 84.81Q216.86 89.20 220.32 90.89Q223.78 92.58 228.89 92.58L228.89 92.58Q233.50 92.58 235.91 91.14Q238.32 89.70 238.32 87.04L238.32 87.04Q238.32 85.10 236.05 83.80Q233.78 82.50 227.95 81.35L227.95 81.35Q221.26 79.98 217.26 78.11Q213.26 76.24 211.46 73.50Q209.66 70.77 209.66 66.74L209.66 66.74Q209.66 62.49 211.97 59.07Q214.27 55.65 218.70 53.70Q223.13 51.76 229.10 51.76L229.10 51.76ZM289.51 94.02Q291.02 94.02 291.96 93.74L291.96 93.74L291.24 99.71Q289.22 100.72 286.56 100.72L286.56 100.72Q279.65 100.72 278.28 95.32L278.28 95.32Q276.70 97.98 273.38 99.35Q270.07 100.72 265.54 100.72L265.54 100.72Q260.28 100.72 257.33 98.34Q254.38 95.97 254.38 91.50L254.38 91.50Q254.38 82.72 268.42 80.13L268.42 80.13L277.06 78.47L277.06 76.74Q277.06 73.86 275.44 72.17Q273.82 70.48 270.94 70.48L270.94 70.48Q267.62 70.48 265.54 71.92Q263.45 73.36 262.66 76.60L262.66 76.60L254.81 73.29Q255.96 68.61 259.99 65.94Q264.02 63.28 270.50 63.28L270.50 63.28Q278.21 63.28 282.53 66.63Q286.85 69.98 286.85 76.53L286.85 76.53L286.85 91.29Q286.85 92.73 287.50 93.38Q288.14 94.02 289.51 94.02L289.51 94.02ZM268.63 94.02Q271.80 94.02 274.43 92.48Q277.06 90.93 277.06 88.26L277.06 88.26L277.06 84.52L269.35 86.25Q266.90 86.82 265.72 87.80Q264.53 88.77 264.53 90.50L264.53 90.50Q264.53 92.22 265.61 93.12Q266.69 94.02 268.63 94.02L268.63 94.02ZM319.39 63.28Q325.22 63.28 328.79 66.66Q332.35 70.05 332.35 76.38L332.35 76.38L332.35 100L322.49 100L322.49 79.26Q322.49 71.06 316.08 71.06L316.08 71.06Q312.62 71.06 310.21 73.50Q307.80 75.95 307.80 80.99L307.80 80.99L307.80 100L297.94 100L297.94 64.00L306.79 64.00L307.08 70.41Q308.88 66.88 312.05 65.08Q315.22 63.28 319.39 63.28L319.39 63.28ZM356.47 100.72Q344.45 100.72 339.77 93.81L339.77 93.81L345.53 87.90Q346.97 91 349.67 92.26Q352.37 93.52 356.33 93.52L356.33 93.52Q359.50 93.52 361.22 92.66Q362.95 91.79 362.95 90.28L362.95 90.28Q362.95 89.06 361.33 88.19Q359.71 87.33 355.75 86.54L355.75 86.54Q347.47 84.88 344.12 82.18Q340.78 79.48 340.78 74.87L340.78 74.87Q340.78 71.85 342.65 69.18Q344.52 66.52 348.19 64.90Q351.86 63.28 356.98 63.28L356.98 63.28Q363.02 63.28 366.77 65.12Q370.51 66.95 373.03 70.91L373.03 70.91L366.91 76.10Q365.33 73.22 362.99 71.85Q360.65 70.48 357.12 70.48L357.12 70.48Q354.17 70.48 352.40 71.49Q350.64 72.50 350.64 73.94L350.64 73.94Q350.64 75.45 352.37 76.46Q354.10 77.46 358.49 78.33L358.49 78.33Q366.34 79.91 369.61 82.47Q372.89 85.02 372.89 89.56L372.89 89.56Q372.89 94.60 368.60 97.66Q364.32 100.72 356.47 100.72L356.47 100.72ZM416.74 100.72Q404.71 100.72 400.03 93.81L400.03 93.81L405.79 87.90Q407.23 91 409.93 92.26Q412.63 93.52 416.59 93.52L416.59 93.52Q419.76 93.52 421.49 92.66Q423.22 91.79 423.22 90.28L423.22 90.28Q423.22 89.06 421.60 88.19Q419.98 87.33 416.02 86.54L416.02 86.54Q407.74 84.88 404.39 82.18Q401.04 79.48 401.04 74.87L401.04 74.87Q401.04 71.85 402.91 69.18Q404.78 66.52 408.46 64.90Q412.13 63.28 417.24 63.28L417.24 63.28Q423.29 63.28 427.03 65.12Q430.78 66.95 433.30 70.91L433.30 70.91L427.18 76.10Q425.59 73.22 423.25 71.85Q420.91 70.48 417.38 70.48L417.38 70.48Q414.43 70.48 412.67 71.49Q410.90 72.50 410.90 73.94L410.90 73.94Q410.90 75.45 412.63 76.46Q414.36 77.46 418.75 78.33L418.75 78.33Q426.60 79.91 429.88 82.47Q433.15 85.02 433.15 89.56L433.15 89.56Q433.15 94.60 428.87 97.66Q424.58 100.72 416.74 100.72L416.74 100.72ZM474.48 81.86Q474.48 83.87 474.19 85.74L474.19 85.74L448.70 85.74Q450.22 93.38 457.70 93.38L457.70 93.38Q460.80 93.38 462.82 92.22Q464.83 91.07 465.62 88.91L465.62 88.91L473.69 91.86Q471.96 96.18 467.89 98.45Q463.82 100.72 457.70 100.72L457.70 100.72Q448.78 100.72 443.88 95.79Q438.98 90.86 438.98 82L438.98 82Q438.98 73.14 443.74 68.21Q448.49 63.28 457.13 63.28L457.13 63.28Q465.48 63.28 469.98 68.10Q474.48 72.93 474.48 81.86L474.48 81.86ZM457.06 70.55Q453.46 70.55 451.33 72.64Q449.21 74.73 448.63 78.83L448.63 78.83L465.41 78.83Q464.83 74.80 462.67 72.68Q460.51 70.55 457.06 70.55L457.06 70.55ZM527.83 63.28Q533.38 63.28 537.01 66.66Q540.65 70.05 540.65 76.38L540.65 76.38L540.65 100L530.78 100L530.78 78.33Q530.78 74.58 529.13 72.82Q527.47 71.06 524.59 71.06L524.59 71.06Q521.14 71.06 518.90 73.58Q516.67 76.10 516.67 80.63L516.67 80.63L516.67 100L506.81 100L506.81 78.33Q506.81 74.58 505.15 72.82Q503.50 71.06 500.54 71.06L500.54 71.06Q497.30 71.06 494.96 73.54Q492.62 76.02 492.62 80.92L492.62 80.92L492.62 100L482.76 100L482.76 64.00L491.62 64.00L491.90 70.41Q493.70 66.88 496.84 65.08Q499.97 63.28 503.86 63.28L503.86 63.28Q507.89 63.28 511.02 65.15Q514.15 67.02 515.59 70.55L515.59 70.55Q517.32 67.02 520.63 65.15Q523.94 63.28 527.83 63.28L527.83 63.28ZM555.77 58.82Q549.65 58.82 549.65 53.56L549.65 53.56Q549.65 48.23 555.77 48.23L555.77 48.23Q561.89 48.23 561.89 53.56L561.89 53.56Q561.89 58.82 555.77 58.82L555.77 58.82ZM560.66 64.00L560.66 100L550.80 100L550.80 64.00L560.66 64.00ZM614.30 63.28Q621.50 63.28 625.61 68.25Q629.71 73.22 629.71 82.07L629.71 82.07Q629.71 90.86 625.61 95.79Q621.50 100.72 614.30 100.72L614.30 100.72Q610.06 100.72 606.92 98.60Q603.79 96.47 602.21 92.87L602.21 92.87L601.85 100L593.14 100L593.14 48.23L603.00 48.23L603.00 69.90Q604.66 66.81 607.54 65.04Q610.42 63.28 614.30 63.28L614.30 63.28ZM611.35 93.16Q615.38 93.16 617.62 90.28Q619.85 87.40 619.85 82L619.85 82Q619.85 76.60 617.62 73.72Q615.38 70.84 611.35 70.84L611.35 70.84Q607.75 70.84 605.52 73.36Q603.29 75.88 603.00 80.42L603.00 80.42L603.00 83.58Q603.29 88.19 605.52 90.68Q607.75 93.16 611.35 93.16L611.35 93.16ZM654.98 63.28Q663.70 63.28 668.56 68.25Q673.42 73.22 673.42 82L673.42 82Q673.42 90.78 668.56 95.75Q663.70 100.72 654.98 100.72L654.98 100.72Q646.27 100.72 641.41 95.75Q636.55 90.78 636.55 82L636.55 82Q636.55 73.22 641.41 68.25Q646.27 63.28 654.98 63.28L654.98 63.28ZM654.98 70.62Q650.81 70.62 648.61 73.47Q646.42 76.31 646.42 82L646.42 82Q646.42 87.69 648.61 90.53Q650.81 93.38 654.98 93.38L654.98 93.38Q659.16 93.38 661.36 90.53Q663.55 87.69 663.55 82L663.55 82Q663.55 76.31 661.36 73.47Q659.16 70.62 654.98 70.62L654.98 70.62ZM691.63 48.23L691.63 88.55Q691.63 91.14 692.39 92.15Q693.14 93.16 695.16 93.16L695.16 93.16Q696.38 93.16 697.28 92.98Q698.18 92.80 699.41 92.37L699.41 92.37L698.54 99.21Q697.39 99.93 695.52 100.32Q693.65 100.72 691.85 100.72L691.85 100.72Q686.59 100.72 684.18 98.16Q681.77 95.61 681.77 89.99L681.77 89.99L681.77 48.23L691.63 48.23ZM729.86 48.23L739.73 48.23L739.73 100L730.94 100L730.51 93.30Q728.93 96.69 725.80 98.70Q722.66 100.72 718.63 100.72L718.63 100.72Q711.43 100.72 707.33 95.79Q703.22 90.86 703.22 82.07L703.22 82.07Q703.22 73.22 707.33 68.25Q711.43 63.28 718.63 63.28L718.63 63.28Q722.52 63.28 725.40 65.04Q728.28 66.81 729.86 69.90L729.86 69.90L729.86 48.23ZM721.51 93.16Q725.40 93.16 727.63 90.35Q729.86 87.54 729.86 82.36L729.86 82.36L729.86 81.64Q729.86 76.53 727.63 73.68Q725.40 70.84 721.51 70.84L721.51 70.84Q717.55 70.84 715.32 73.72Q713.09 76.60 713.09 82L713.09 82Q713.09 87.40 715.32 90.28Q717.55 93.16 721.51 93.16L721.51 93.16Z"/></svg>