<svg xmlns="http://www.w3.org/2000/svg" viewBox="0.7200000000000001 48.736 550.3679999999999 51.984"><path d="M34 77L28 100L14 100L1 52L14 52L22 90L30 52L42 52L50 90L58 52L71 52L57 100L44 100L38 77L36 65L36 65L34 77ZM90 63Q99 63 104 68Q109 73 109 82L109 82Q109 91 104 96Q99 101 90 101L90 101Q81 101 76 96Q71 91 71 82L71 82Q71 73 76 68Q81 63 90 63L90 63ZM90 72Q86 72 85 74Q83 77 83 82L83 82Q83 87 85 90Q86 92 90 92L90 92Q93 92 95 90Q96 87 96 82L96 82Q96 77 95 74Q93 72 90 72L90 72ZM138 63Q140 63 142 64L142 64L141 74Q140 74 139 74Q137 73 136 73L136 73Q133 73 130 76Q128 78 128 82L128 82L128 100L116 100L116 64L127 64L127 72Q128 68 131 65Q134 63 138 63L138 63ZM173 100L165 85L159 92L159 100L147 100L147 49L159 49L159 79L173 64L186 64L173 78L187 100L173 100ZM230 52Q237 52 242 54Q247 56 251 60L251 60L244 68Q241 65 238 63Q235 61 231 61L231 61Q227 61 225 63Q223 64 223 66L223 66Q223 68 225 69Q227 70 232 71L232 71Q242 73 246 76Q250 80 250 86L250 86Q250 91 248 94Q245 97 241 99Q236 101 230 101L230 101Q222 101 217 99Q212 97 209 93L209 93L215 84Q218 88 221 89Q225 91 230 91L230 91Q234 91 236 90Q238 89 238 87L238 87Q238 85 236 84Q233 83 228 82L228 82Q222 81 218 79Q214 77 212 75Q210 72 210 67L210 67Q210 63 212 59Q215 56 219 54Q224 52 230 52L230 52ZM292 93Q293 93 294 93L294 93L293 100Q291 101 288 101L288 101Q280 101 279 95L279 95Q276 101 266 101L266 101Q261 101 258 98Q255 96 255 92L255 92Q255 87 258 84Q262 81 269 80L269 80L277 78L277 77Q277 75 276 73Q274 72 272 72L272 72Q269 72 268 73Q266 74 265 77L265 77L255 74Q256 69 261 66Q265 63 272 63L272 63Q280 63 285 67Q289 70 289 77L289 77L289 90Q289 93 292 93L292 93ZM271 93Q273 93 275 91Q277 90 277 88L277 88L277 85L271 86Q269 87 268 87Q267 88 267 90L267 90Q267 91 268 92Q269 93 271 93L271 93ZM322 63Q328 63 332 67Q335 70 335 76L335 76L335 100L323 100L323 79Q323 76 321 74Q320 73 318 73L318 73Q315 73 313 75Q311 77 311 81L311 81L311 100L299 100L299 64L310 64L310 71Q312 67 315 65Q318 63 322 63L322 63ZM358 101Q346 101 341 94L341 94L347 87Q350 93 358 93L358 93Q360 93 362 92Q363 91 363 90L363 90Q363 89 362 88Q360 88 357 87L357 87Q349 85 345 83Q342 80 342 75L342 75Q342 72 344 69Q346 67 350 65Q354 63 359 63L359 63Q365 63 369 65Q373 67 376 70L376 70L369 76Q368 74 365 73Q363 71 359 71L359 71Q357 71 355 72Q354 73 354 74L354 74Q354 75 356 76Q357 77 361 77L361 77Q369 79 372 82Q376 84 376 89L376 89Q376 94 371 97Q367 101 358 101L358 101ZM426 63Q433 63 436 68Q440 73 440 82L440 82Q440 91 437 96Q433 101 426 101L426 101Q421 101 418 98Q415 96 414 92L414 92L413 100L402 100L402 49L415 49L415 70Q416 67 419 65Q422 63 426 63L426 63ZM421 92Q425 92 426 89Q428 87 428 82L428 82Q428 77 426 75Q425 72 421 72L421 72Q418 72 416 75Q415 77 415 82L415 82L415 82Q415 87 416 89Q418 92 421 92L421 92ZM465 63Q474 63 479 68Q484 73 484 82L484 82Q484 91 479 96Q474 101 465 101L465 101Q456 101 451 96Q446 91 446 82L446 82Q446 73 451 68Q456 63 465 63L465 63ZM465 72Q462 72 460 74Q458 77 458 82L458 82Q458 87 460 90Q462 92 465 92L465 92Q468 92 470 90Q472 87 472 82L472 82Q472 77 470 74Q468 72 465 72L465 72ZM503 49L503 88Q503 90 504 91Q505 92 506 92L506 92Q508 92 510 91L510 91L509 99Q508 100 506 100Q504 101 502 101L502 101Q496 101 493 98Q491 95 491 89L491 89L491 49L503 49ZM539 49L551 49L551 100L540 100L540 93Q538 97 535 99Q532 101 528 101L528 101Q521 101 517 96Q513 91 513 82L513 82Q513 73 517 68Q521 63 528 63L528 63Q532 63 535 65Q537 67 539 70L539 70L539 49ZM532 92Q535 92 537 90Q539 87 539 83L539 83L539 81Q539 77 537 74Q535 72 532 72L532 72Q529 72 527 75Q525 77 525 82L525 82Q525 87 527 89Q529 92 532 92L532 92Z"/></svg>