<svg xmlns="http://www.w3.org/2000/svg" viewBox="1.368 48.23199999999999 738.3600000000001 52.48800000000001"><path d="M33 74L27 100L15 100L1 52L12 52L21 92L31 52L40 52L50 92L59 52L69 52L56 100L44 100L38 74L36 63L35 63L33 74ZM89 63Q98 63 103 68Q108 73 108 82L108 82Q108 91 103 96Q98 101 89 101L89 101Q81 101 76 96Q71 91 71 82L71 82Q71 73 76 68Q81 63 89 63L89 63ZM89 71Q85 71 83 73Q81 76 81 82L81 82Q81 88 83 91Q85 93 89 93L89 93Q93 93 96 91Q98 88 98 82L98 82Q98 76 96 73Q93 71 89 71L89 71ZM137 63Q139 63 140 64L140 64L139 73Q138 72 135 72L135 72Q131 72 129 74Q126 77 126 81L126 81L126 100L116 100L116 64L125 64L125 71Q128 63 137 63L137 63ZM173 100L163 84L156 91L156 100L147 100L147 48L156 48L156 80L172 64L183 64L170 78L184 100L173 100ZM229 52Q236 52 240 54Q245 56 249 61L249 61L242 68Q240 64 237 62Q234 60 229 60L229 60Q225 60 223 62Q220 63 220 66L220 66Q220 68 223 70Q225 71 231 72L231 72Q238 73 241 75Q245 77 247 80Q249 82 249 86L249 86Q249 91 246 94Q244 97 239 99Q235 101 229 101L229 101Q221 101 216 99Q211 96 208 92L208 92L214 85Q217 89 220 91Q224 93 229 93L229 93Q233 93 236 91Q238 90 238 87L238 87Q238 85 236 84Q234 83 228 81L228 81Q221 80 217 78Q213 76 211 74Q210 71 210 67L210 67Q210 62 212 59Q214 56 219 54Q223 52 229 52L229 52ZM290 94Q291 94 292 94L292 94L291 100Q289 101 287 101L287 101Q280 101 278 95L278 95Q277 98 273 99Q270 101 266 101L266 101Q260 101 257 98Q254 96 254 92L254 92Q254 83 268 80L268 80L277 78L277 77Q277 74 275 72Q274 70 271 70L271 70Q268 70 266 72Q263 73 263 77L263 77L255 73Q256 69 260 66Q264 63 271 63L271 63Q278 63 283 67Q287 70 287 77L287 77L287 91Q287 93 287 93Q288 94 290 94L290 94ZM269 94Q272 94 274 92Q277 91 277 88L277 88L277 85L269 86Q267 87 266 88Q265 89 265 90L265 90Q265 92 266 93Q267 94 269 94L269 94ZM319 63Q325 63 329 67Q332 70 332 76L332 76L332 100L322 100L322 79Q322 71 316 71L316 71Q313 71 310 74Q308 76 308 81L308 81L308 100L298 100L298 64L307 64L307 70Q309 67 312 65Q315 63 319 63L319 63ZM356 101Q344 101 340 94L340 94L346 88Q347 91 350 92Q352 94 356 94L356 94Q359 94 361 93Q363 92 363 90L363 90Q363 89 361 88Q360 87 356 87L356 87Q347 85 344 82Q341 79 341 75L341 75Q341 72 343 69Q345 67 348 65Q352 63 357 63L357 63Q363 63 367 65Q371 67 373 71L373 71L367 76Q365 73 363 72Q361 70 357 70L357 70Q354 70 352 71Q351 72 351 74L351 74Q351 75 352 76Q354 77 358 78L358 78Q366 80 370 82Q373 85 373 90L373 90Q373 95 369 98Q364 101 356 101L356 101ZM417 101Q405 101 400 94L400 94L406 88Q407 91 410 92Q413 94 417 94L417 94Q420 94 421 93Q423 92 423 90L423 90Q423 89 422 88Q420 87 416 87L416 87Q408 85 404 82Q401 79 401 75L401 75Q401 72 403 69Q405 67 408 65Q412 63 417 63L417 63Q423 63 427 65Q431 67 433 71L433 71L427 76Q426 73 423 72Q421 70 417 70L417 70Q414 70 413 71Q411 72 411 74L411 74Q411 75 413 76Q414 77 419 78L419 78Q427 80 430 82Q433 85 433 90L433 90Q433 95 429 98Q425 101 417 101L417 101ZM474 82Q474 84 474 86L474 86L449 86Q450 93 458 93L458 93Q461 93 463 92Q465 91 466 89L466 89L474 92Q472 96 468 98Q464 101 458 101L458 101Q449 101 444 96Q439 91 439 82L439 82Q439 73 444 68Q448 63 457 63L457 63Q465 63 470 68Q474 73 474 82L474 82ZM457 71Q453 71 451 73Q449 75 449 79L449 79L465 79Q465 75 463 73Q461 71 457 71L457 71ZM528 63Q533 63 537 67Q541 70 541 76L541 76L541 100L531 100L531 78Q531 75 529 73Q527 71 525 71L525 71Q521 71 519 74Q517 76 517 81L517 81L517 100L507 100L507 78Q507 75 505 73Q503 71 501 71L501 71Q497 71 495 74Q493 76 493 81L493 81L493 100L483 100L483 64L492 64L492 70Q494 67 497 65Q500 63 504 63L504 63Q508 63 511 65Q514 67 516 71L516 71Q517 67 521 65Q524 63 528 63L528 63ZM556 59Q550 59 550 54L550 54Q550 48 556 48L556 48Q562 48 562 54L562 54Q562 59 556 59L556 59ZM561 64L561 100L551 100L551 64L561 64ZM614 63Q622 63 626 68Q630 73 630 82L630 82Q630 91 626 96Q622 101 614 101L614 101Q610 101 607 99Q604 96 602 93L602 93L602 100L593 100L593 48L603 48L603 70Q605 67 608 65Q610 63 614 63L614 63ZM611 93Q615 93 618 90Q620 87 620 82L620 82Q620 77 618 74Q615 71 611 71L611 71Q608 71 606 73Q603 76 603 80L603 80L603 84Q603 88 606 91Q608 93 611 93L611 93ZM655 63Q664 63 669 68Q673 73 673 82L673 82Q673 91 669 96Q664 101 655 101L655 101Q646 101 641 96Q637 91 637 82L637 82Q637 73 641 68Q646 63 655 63L655 63ZM655 71Q651 71 649 73Q646 76 646 82L646 82Q646 88 649 91Q651 93 655 93L655 93Q659 93 661 91Q664 88 664 82L664 82Q664 76 661 73Q659 71 655 71L655 71ZM692 48L692 89Q692 91 692 92Q693 93 695 93L695 93Q696 93 697 93Q698 93 699 92L699 92L699 99Q697 100 696 100Q694 101 692 101L692 101Q687 101 684 98Q682 96 682 90L682 90L682 48L692 48ZM730 48L740 48L740 100L731 100L731 93Q729 97 726 99Q723 101 719 101L719 101Q711 101 707 96Q703 91 703 82L703 82Q703 73 707 68Q711 63 719 63L719 63Q723 63 725 65Q728 67 730 70L730 70L730 48ZM722 93Q725 93 728 90Q730 88 730 82L730 82L730 82Q730 77 728 74Q725 71 722 71L722 71Q718 71 715 74Q713 77 713 82L713 82Q713 87 715 90Q718 93 722 93L722 93Z"/></svg>