<svg xmlns="http://www.w3.org/2000/svg" viewBox="1.6560000000000001 47.43999999999999 469.51200000000006 53.28000000000001"><path d="M30 64L19 100L17 100L2 52L3 52L18 99L32 52L33 52L47 99L63 52L64 52L48 100L47 100L33 54L33 54L30 64ZM83 63Q91 63 96 68Q100 73 100 82L100 82Q100 91 96 96Q91 101 83 101L83 101Q76 101 71 96Q67 91 67 82L67 82Q67 73 71 68Q76 63 83 63L83 63ZM83 64Q76 64 72 69Q68 74 68 82L68 82Q68 90 72 95Q76 100 83 100L83 100Q91 100 95 95Q99 90 99 82L99 82Q99 74 95 69Q91 64 83 64L83 64ZM123 63Q126 63 128 65L128 65L127 66Q127 65 126 65Q125 64 123 64L123 64Q120 64 117 66Q114 68 113 72Q111 75 111 79L111 79L111 100L110 100L110 64L111 64L111 73Q112 69 116 66Q119 63 123 63L123 63ZM161 100L145 79L136 88L136 100L135 100L135 47L136 47L136 87L160 64L162 64L146 79L162 100L161 100ZM204 52Q218 52 221 63L221 63L220 63Q217 53 204 53L204 53Q199 53 196 54Q192 56 190 59Q188 61 188 65L188 65Q188 68 190 70Q191 72 195 74Q199 75 205 76L205 76Q211 77 215 79Q219 80 220 83Q222 85 222 88L222 88Q222 92 220 95Q218 98 214 99Q210 101 205 101L205 101Q197 101 192 98Q187 94 186 88L186 88L187 87Q188 94 193 97Q197 100 205 100L205 100Q212 100 216 97Q221 94 221 88L221 88Q221 84 217 81Q214 79 205 77L205 77Q198 76 194 75Q190 73 189 71Q187 68 187 65L187 65Q187 61 189 58Q191 55 195 54Q199 52 204 52L204 52ZM260 100Q262 100 263 99L263 99L262 100Q262 101 260 101L260 101Q258 101 256 99Q255 98 255 94L255 94L255 93Q253 97 249 99Q245 101 240 101L240 101Q235 101 232 98Q229 96 229 92L229 92Q229 88 232 86Q235 83 242 82L242 82L255 79L255 75Q255 70 252 67Q249 64 243 64L243 64Q238 64 235 66Q232 68 230 73L230 73L229 72Q231 68 234 65Q238 63 243 63L243 63Q249 63 253 66Q256 69 256 75L256 75L256 95Q256 97 257 98Q258 100 260 100L260 100ZM240 100Q243 100 247 99Q250 97 252 95Q255 93 255 89L255 89L255 80L243 83Q236 84 233 86Q230 89 230 92L230 92Q230 96 233 98Q235 100 240 100L240 100ZM285 63Q291 63 295 67Q298 70 298 76L298 76L298 100L297 100L297 76Q297 71 294 67Q290 64 285 64L285 64Q281 64 277 66Q274 68 272 71Q270 75 270 78L270 78L270 100L269 100L269 64L270 64L270 74Q271 69 275 66Q279 63 285 63L285 63ZM321 101Q315 101 312 98Q308 96 307 92L307 92L308 92Q309 95 312 98Q316 100 321 100L321 100Q327 100 330 97Q334 95 334 91L334 91Q334 88 331 86Q328 84 322 83L322 83Q314 81 311 79Q308 77 308 73L308 73Q308 70 310 68Q312 66 315 65Q318 63 321 63L321 63Q333 63 335 72L335 72L334 73Q332 64 321 64L321 64Q318 64 315 65Q312 67 311 68Q309 70 309 73L309 73Q309 76 312 78Q315 80 322 82L322 82Q329 83 332 85Q335 87 335 91L335 91Q335 96 331 98Q328 101 321 101L321 101ZM380 97L381 98Q380 99 378 100Q376 101 374 101L374 101Q365 101 365 91L365 91L365 65L358 65L358 64L365 64L365 55L366 54L366 64L380 64L380 65L366 65L366 91Q366 95 368 98Q370 100 374 100L374 100Q378 100 380 97L380 97ZM403 63Q409 63 413 67Q416 70 416 76L416 76L416 100L415 100L415 76Q415 71 412 67Q409 64 403 64L403 64Q399 64 395 66Q392 68 390 71Q388 75 388 78L388 78L388 100L387 100L387 47L388 47L388 74Q389 69 393 66Q398 63 403 63L403 63ZM429 57Q428 57 428 57Q427 56 427 55L427 55Q427 55 428 54Q428 54 429 54L429 54Q430 54 430 54Q430 55 430 55L430 55Q430 56 430 57Q430 57 429 57L429 57ZM429 64L429 100L428 100L428 64L429 64ZM458 63Q464 63 468 67Q471 70 471 76L471 76L471 100L470 100L470 76Q470 71 467 67Q463 64 458 64L458 64Q453 64 450 66Q447 68 445 71Q443 75 443 78L443 78L443 100L442 100L442 64L443 64L443 74Q444 69 448 66Q452 63 458 63L458 63Z"/></svg>