<svg xmlns="http://www.w3.org/2000/svg" viewBox="0.3 -7.3 48.71000000000001 7.3999999999999995"><path d="M4.31-4.63L2.98 0L2.36 0L0.30-6.60L0.84-6.60L2.67-0.41L4.40-6.60L4.98-6.60L6.71-0.40L8.56-6.60L9.07-6.60L7.01 0L6.39 0L5.06-4.63L4.69-6.06L4.68-6.06L4.31-4.63ZM11.98-5.10Q13.09-5.10 13.73-4.41Q14.36-3.71 14.36-2.50L14.36-2.50Q14.36-1.29 13.73-0.59Q13.09 0.10 11.98 0.10L11.98 0.10Q10.87 0.10 10.24-0.59Q9.60-1.29 9.60-2.50L9.60-2.50Q9.60-3.71 10.24-4.41Q10.87-5.10 11.98-5.10L11.98-5.10ZM11.98-4.67Q11.10-4.67 10.60-4.09Q10.10-3.51 10.10-2.50L10.10-2.50Q10.10-1.49 10.60-0.91Q11.10-0.33 11.98-0.33L11.98-0.33Q12.86-0.33 13.36-0.91Q13.86-1.49 13.86-2.50L13.86-2.50Q13.86-3.51 13.36-4.09Q12.86-4.67 11.98-4.67L11.98-4.67ZM17.92-5.10Q18.32-5.10 18.55-4.93L18.55-4.93L18.42-4.46Q18.19-4.64 17.78-4.64L17.78-4.64Q17.40-4.64 17.07-4.41Q16.73-4.17 16.53-3.75Q16.32-3.32 16.32-2.80L16.32-2.80L16.32 0L15.82 0L15.82-5L16.24-5L16.30-3.98Q16.51-4.51 16.93-4.80Q17.34-5.10 17.92-5.10L17.92-5.10ZM23.19 0L21.28-2.65L20.10-1.51L20.10 0L19.60 0L19.60-7.30L20.10-7.30L20.10-2.14L23.07-5L23.72-5L21.65-3L23.80 0L23.19 0ZM30.01-6.70Q31.87-6.70 32.50-5.24L32.50-5.24L32.07-4.89Q31.82-5.60 31.32-5.92Q30.83-6.24 30.02-6.24L30.02-6.24Q29.44-6.24 29.01-6.06Q28.58-5.88 28.36-5.57Q28.13-5.26 28.13-4.87L28.13-4.87Q28.13-4.49 28.32-4.24Q28.51-3.99 28.96-3.81Q29.42-3.64 30.22-3.50L30.22-3.50Q31.51-3.28 32.05-2.86Q32.59-2.44 32.59-1.70L32.59-1.70Q32.59-1.17 32.28-0.76Q31.97-0.35 31.41-0.13Q30.84 0.10 30.11 0.10L30.11 0.10Q29.07 0.10 28.36-0.32Q27.64-0.73 27.38-1.48L27.38-1.48L27.82-1.82Q28.02-1.11 28.63-0.73Q29.23-0.36 30.12-0.36L30.12-0.36Q30.98-0.36 31.52-0.71Q32.07-1.06 32.07-1.67L32.07-1.67Q32.07-2.20 31.63-2.51Q31.18-2.82 30.08-3.01L30.08-3.01Q29.15-3.17 28.61-3.40Q28.07-3.63 27.84-3.97Q27.60-4.31 27.60-4.82L27.60-4.82Q27.60-5.33 27.89-5.76Q28.19-6.19 28.73-6.45Q29.28-6.70 30.01-6.70L30.01-6.70ZM37.98-0.33Q38.23-0.33 38.37-0.40L38.37-0.40L38.34 0Q38.16 0.10 37.85 0.10L37.85 0.10Q37.50 0.10 37.28-0.09Q37.06-0.28 37.03-0.75L37.03-0.75Q36.80-0.35 36.29-0.13Q35.78 0.10 35.22 0.10L35.22 0.10Q34.48 0.10 34.04-0.23Q33.59-0.56 33.59-1.17L33.59-1.17Q33.59-2.33 35.49-2.67L35.49-2.67L37.02-2.94L37.02-3.38Q37.02-3.98 36.66-4.32Q36.31-4.66 35.66-4.66L35.66-4.66Q34.47-4.66 34.06-3.60L34.06-3.60L33.68-3.88Q33.90-4.47 34.41-4.79Q34.92-5.10 35.66-5.10L35.66-5.10Q36.53-5.10 37.02-4.67Q37.52-4.25 37.52-3.44L37.52-3.44L37.52-0.86Q37.52-0.33 37.98-0.33L37.98-0.33ZM35.27-0.34Q35.69-0.34 36.09-0.48Q36.49-0.63 36.76-0.92Q37.02-1.20 37.02-1.60L37.02-1.60L37.02-2.53L35.65-2.28Q34.84-2.13 34.47-1.86Q34.10-1.59 34.10-1.17L34.10-1.17Q34.10-0.77 34.41-0.56Q34.72-0.34 35.27-0.34L35.27-0.34ZM41.73-5.10Q42.59-5.10 43.12-4.62Q43.64-4.14 43.64-3.24L43.64-3.24L43.64 0L43.14 0L43.14-3.08Q43.14-3.88 42.75-4.27Q42.36-4.66 41.68-4.66L41.68-4.66Q41.20-4.66 40.79-4.44Q40.38-4.22 40.13-3.80Q39.89-3.38 39.89-2.82L39.89-2.82L39.89 0L39.39 0L39.39-5L39.84-5L39.86-3.99Q40.10-4.53 40.59-4.82Q41.09-5.10 41.73-5.10L41.73-5.10ZM47.00 0.10Q46.24 0.10 45.68-0.20Q45.12-0.50 44.91-1.07L44.91-1.07L45.32-1.34Q45.47-0.84 45.93-0.59Q46.39-0.34 47.06-0.34L47.06-0.34Q47.74-0.34 48.13-0.60Q48.51-0.86 48.51-1.29L48.51-1.29Q48.51-1.66 48.18-1.88Q47.85-2.10 47.02-2.25L47.02-2.25Q45.97-2.44 45.54-2.76Q45.11-3.08 45.11-3.67L45.11-3.67Q45.11-4.06 45.35-4.39Q45.59-4.72 46.03-4.91Q46.47-5.10 47.03-5.10L47.03-5.10Q47.82-5.10 48.30-4.80Q48.77-4.50 48.95-3.88L48.95-3.88L48.52-3.63Q48.24-4.66 47.03-4.66L47.03-4.66Q46.63-4.66 46.31-4.53Q45.98-4.40 45.80-4.19Q45.61-3.97 45.61-3.72L45.61-3.72Q45.61-3.31 45.95-3.08Q46.29-2.85 47.15-2.70L47.15-2.70Q48.17-2.53 48.59-2.21Q49.01-1.89 49.01-1.31L49.01-1.31Q49.01-0.67 48.47-0.29Q47.92 0.10 47.00 0.10L47.00 0.10Z"/></svg>