<svg xmlns="http://www.w3.org/2000/svg" viewBox="0 49.16799999999999 760.176 51.55200000000001"><path d="M34 80L30 100L14 100L0 52L16 52L23 88L30 52L43 52L51 88L57 52L73 52L59 100L43 100L39 80L37 68L36 68L34 80ZM90 63Q99 63 104 68Q110 73 110 82L110 82Q110 91 104 96Q99 101 90 101L90 101Q81 101 76 96Q70 91 70 82L70 82Q70 73 76 68Q81 63 90 63L90 63ZM90 73Q87 73 86 75Q85 77 85 82L85 82Q85 87 86 89Q87 91 90 91L90 91Q93 91 94 89Q95 87 95 82L95 82Q95 77 94 75Q93 73 90 73L90 73ZM139 63Q142 63 143 64L143 64L142 76Q141 76 140 75Q139 75 137 75L137 75Q134 75 132 77Q130 79 130 82L130 82L130 100L115 100L115 64L128 64L129 72Q130 68 133 66Q135 63 139 63L139 63ZM174 100L166 86L161 92L161 100L147 100L147 49L161 49L161 78L173 64L189 64L176 78L190 100L174 100ZM232 52Q238 52 243 54Q248 55 253 60L253 60L246 69Q243 66 240 64Q236 63 232 63L232 63Q229 63 227 64Q225 65 225 67L225 67Q225 68 227 69Q229 69 233 70L233 70Q240 71 244 73Q248 75 250 78Q252 81 252 86L252 86Q252 90 249 94Q247 97 242 99Q237 101 231 101L231 101Q223 101 218 99Q213 97 209 93L209 93L216 83Q219 87 222 88Q226 90 231 90L231 90Q237 90 237 86L237 86Q237 85 235 84Q233 84 229 83L229 83Q223 82 219 80Q215 79 213 76Q210 73 210 68L210 68Q210 63 213 59Q215 56 220 54Q225 52 232 52L232 52ZM294 92Q295 92 296 92L296 92L295 99Q293 101 290 101L290 101Q286 101 283 99Q280 98 280 95L280 95Q278 98 275 99Q272 101 267 101L267 101Q261 101 258 98Q256 96 256 92L256 92Q256 87 259 85Q262 82 270 80L270 80L277 79L277 77Q277 75 276 74Q275 73 273 73L273 73Q271 73 270 74Q268 75 268 78L268 78L256 75Q257 70 261 66Q266 63 274 63L274 63Q292 63 292 78L292 78L292 89Q292 92 294 92L294 92ZM273 92Q274 92 276 91Q277 90 277 88L277 88L277 85L273 86Q269 87 269 89L269 89Q269 91 270 92Q271 92 273 92L273 92ZM325 63Q331 63 334 67Q337 70 337 76L337 76L337 100L323 100L323 80Q323 77 322 75Q321 74 319 74L319 74Q317 74 315 76Q314 78 314 81L314 81L314 100L300 100L300 64L313 64L313 71Q315 67 318 65Q321 63 325 63L325 63ZM360 101Q354 101 349 99Q345 98 342 95L342 95L348 87Q350 89 353 90Q356 92 359 92L359 92Q361 92 362 91Q363 91 363 90L363 90Q363 89 362 88Q361 88 357 87L357 87Q349 86 346 83Q343 80 343 76L343 76Q343 72 345 70Q347 67 351 65Q355 63 361 63L361 63Q373 63 378 69L378 69L371 76Q368 72 362 72L362 72Q359 72 358 73Q357 74 357 74L357 74Q357 75 358 76Q360 76 363 77L363 77Q371 78 374 81Q378 83 378 88L378 88Q378 94 373 97Q369 101 360 101L360 101ZM438 81Q438 84 438 85L438 85L414 85Q415 88 416 90Q418 91 421 91L421 91Q425 91 426 87L426 87L438 91Q436 96 432 98Q427 101 421 101L421 101Q411 101 406 96Q400 91 400 82L400 82Q400 73 405 68Q411 63 420 63L420 63Q429 63 434 68Q438 73 438 81L438 81ZM420 73Q417 73 416 75Q415 76 414 79L414 79L425 79Q424 76 423 75Q422 73 420 73L420 73ZM482 100L466 100L460 88L454 100L438 100L451 82L438 64L455 64L460 75L466 64L482 64L470 82L482 100ZM512 90L513 98Q512 99 509 100Q506 101 503 101L503 101Q496 101 492 98Q488 95 488 88L488 88L488 74L483 74L483 64L488 64L488 56L503 52L503 64L513 64L513 74L503 74L503 86Q503 89 504 90Q505 91 508 91L508 91Q510 91 512 90L512 90ZM542 63Q544 63 545 64L545 64L544 76Q543 76 542 75Q541 75 539 75L539 75Q536 75 534 77Q532 79 532 82L532 82L532 100L517 100L517 64L530 64L531 72Q532 68 535 66Q537 63 542 63L542 63ZM585 92Q587 92 587 92L587 92L586 99Q584 101 581 101L581 101Q577 101 574 99Q572 98 571 95L571 95Q569 98 566 99Q563 101 558 101L558 101Q552 101 550 98Q547 96 547 92L547 92Q547 87 550 85Q553 82 561 80L561 80L568 79L568 77Q568 75 567 74Q566 73 564 73L564 73Q562 73 561 74Q559 75 559 78L559 78L547 75Q548 70 552 66Q557 63 565 63L565 63Q583 63 583 78L583 78L583 89Q583 92 585 92L585 92ZM564 92Q566 92 567 91Q568 90 568 88L568 88L568 85L564 86Q561 87 561 89L561 89Q561 91 561 92Q562 92 564 92L564 92ZM635 63Q641 63 645 68Q649 73 649 82L649 82Q649 91 645 96Q642 101 635 101L635 101Q630 101 627 98Q624 96 623 92L623 92L622 100L610 100L610 49L624 49L624 70Q626 67 628 65Q631 63 635 63L635 63ZM629 90Q632 90 633 88Q634 86 634 82L634 82Q634 78 633 76Q632 74 629 74L629 74Q624 74 624 81L624 81L624 83Q624 90 629 90L629 90ZM673 63Q682 63 687 68Q692 73 692 82L692 82Q692 91 687 96Q682 101 673 101L673 101Q664 101 658 96Q653 91 653 82L653 82Q653 73 658 68Q664 63 673 63L673 63ZM673 73Q670 73 669 75Q668 77 668 82L668 82Q668 87 669 89Q670 91 673 91L673 91Q676 91 677 89Q678 87 678 82L678 82Q678 77 677 75Q676 73 673 73L673 73ZM713 49L713 87Q713 89 713 90Q714 91 716 91L716 91Q717 91 719 90L719 90L718 99Q717 100 714 100Q712 101 710 101L710 101Q703 101 701 98Q698 95 698 89L698 89L698 49L713 49ZM746 49L760 49L760 100L747 100L747 93Q745 97 742 99Q739 101 735 101L735 101Q728 101 725 96Q721 91 721 82L721 82Q721 73 725 68Q728 63 735 63L735 63Q739 63 742 65Q744 67 746 70L746 70L746 49ZM741 90Q746 90 746 82L746 82L746 82Q746 74 741 74L741 74Q738 74 737 76Q736 78 736 82L736 82Q736 86 737 88Q738 90 741 90L741 90Z"/></svg>