<svg xmlns="http://www.w3.org/2000/svg" viewBox="0.28 -7.25 51.17 7.35"><path d="M4.53-3.96L3.49 0L2.22 0L0.28-6.60L1.44-6.60L2.88-0.85L4.33-6.60L5.43-6.60L6.89-0.84L8.34-6.60L9.44-6.60L7.51 0L6.25 0L5.20-3.96L4.87-5.48L4.86-5.48L4.53-3.96ZM12.35-5.10Q13.52-5.10 14.18-4.41Q14.84-3.72 14.84-2.50L14.84-2.50Q14.84-1.28 14.18-0.59Q13.52 0.10 12.35 0.10L12.35 0.10Q11.18 0.10 10.52-0.59Q9.86-1.28 9.86-2.50L9.86-2.50Q9.86-3.72 10.52-4.41Q11.18-5.10 12.35-5.10L12.35-5.10ZM12.35-4.26Q11.67-4.26 11.30-3.81Q10.94-3.35 10.94-2.50L10.94-2.50Q10.94-1.65 11.30-1.20Q11.67-0.74 12.35-0.74L12.35-0.74Q13.03-0.74 13.40-1.20Q13.77-1.66 13.77-2.50L13.77-2.50Q13.77-3.34 13.40-3.80Q13.03-4.26 12.35-4.26L12.35-4.26ZM18.79-5.10Q19.14-5.10 19.34-5L19.34-5L19.17-4.02Q18.94-4.15 18.54-4.15L18.54-4.15Q18.22-4.15 17.94-3.98Q17.65-3.81 17.46-3.47Q17.28-3.13 17.28-2.65L17.28-2.65L17.28 0L16.21 0L16.21-5L17.12-5L17.21-4.10Q17.63-5.10 18.79-5.10L18.79-5.10ZM23.95 0L22.41-2.35L21.42-1.33L21.42 0L20.35 0L20.35-7.25L21.42-7.25L21.42-2.55L23.81-5L25.07-5L23.16-3.04L25.19 0L23.95 0ZM31.63-6.70Q32.54-6.70 33.19-6.37Q33.83-6.04 34.27-5.36L34.27-5.36L33.46-4.63Q33.18-5.23 32.76-5.50Q32.34-5.77 31.64-5.77L31.64-5.77Q30.95-5.77 30.57-5.50Q30.19-5.22 30.19-4.79L30.19-4.79Q30.19-4.39 30.56-4.16Q30.93-3.92 31.88-3.75L31.88-3.75Q32.77-3.59 33.30-3.35Q33.82-3.10 34.06-2.73Q34.30-2.37 34.30-1.83L34.30-1.83Q34.30-1.25 33.97-0.81Q33.64-0.37 33.05-0.14Q32.45 0.10 31.67 0.10L31.67 0.10Q29.66 0.10 28.83-1.24L28.83-1.24L29.58-1.99Q29.90-1.39 30.41-1.11Q30.91-0.83 31.66-0.83L31.66-0.83Q32.37-0.83 32.78-1.07Q33.18-1.32 33.18-1.77L33.18-1.77Q33.18-2.13 32.82-2.35Q32.45-2.57 31.54-2.74L31.54-2.74Q30.63-2.91 30.09-3.16Q29.55-3.41 29.31-3.78Q29.06-4.15 29.06-4.68L29.06-4.68Q29.06-5.24 29.37-5.70Q29.68-6.16 30.27-6.43Q30.85-6.70 31.63-6.70L31.63-6.70ZM39.89-0.70Q40.11-0.70 40.26-0.74L40.26-0.74L40.19-0.02Q39.92 0.10 39.57 0.10L39.57 0.10Q39.14 0.10 38.89-0.07Q38.63-0.24 38.55-0.64L38.55-0.64Q38.32-0.29 37.87-0.10Q37.42 0.10 36.86 0.10L36.86 0.10Q36.13 0.10 35.68-0.24Q35.23-0.58 35.23-1.21L35.23-1.21Q35.23-1.80 35.72-2.21Q36.21-2.61 37.18-2.78L37.18-2.78L38.45-3L38.45-3.27Q38.45-3.73 38.18-4.00Q37.91-4.26 37.43-4.26L37.43-4.26Q36.44-4.26 36.14-3.36L36.14-3.36L35.31-3.80Q35.49-4.40 36.05-4.75Q36.60-5.10 37.41-5.10L37.41-5.10Q38.38-5.10 38.95-4.65Q39.52-4.20 39.52-3.33L39.52-3.33L39.52-1.07Q39.52-0.88 39.61-0.79Q39.69-0.70 39.89-0.70L39.89-0.70ZM37.09-0.71Q37.63-0.71 38.04-0.97Q38.45-1.23 38.45-1.66L38.45-1.66L38.45-2.26L37.36-2.04Q36.84-1.94 36.59-1.76Q36.34-1.58 36.34-1.28L36.34-1.28Q36.34-1 36.54-0.85Q36.73-0.71 37.09-0.71L37.09-0.71ZM43.96-5.10Q44.79-5.10 45.32-4.62Q45.84-4.14 45.84-3.24L45.84-3.24L45.84 0L44.77 0L44.77-2.90Q44.77-4.22 43.70-4.22L43.70-4.22Q43.14-4.22 42.74-3.83Q42.34-3.45 42.34-2.65L42.34-2.65L42.34 0L41.27 0L41.27-5L42.22-5L42.27-4.17Q42.52-4.64 42.96-4.87Q43.40-5.10 43.96-5.10L43.96-5.10ZM49.27 0.10Q48.51 0.10 47.93-0.16Q47.34-0.42 47.04-0.95L47.04-0.95L47.76-1.57Q47.95-1.14 48.35-0.94Q48.75-0.74 49.31-0.74L49.31-0.74Q49.82-0.74 50.10-0.91Q50.38-1.07 50.38-1.34L50.38-1.34Q50.38-1.58 50.12-1.73Q49.86-1.87 49.22-2L49.22-2Q48.11-2.21 47.66-2.56Q47.21-2.91 47.21-3.55L47.21-3.55Q47.21-3.96 47.46-4.32Q47.71-4.67 48.19-4.88Q48.66-5.10 49.31-5.10L49.31-5.10Q50.14-5.10 50.64-4.83Q51.14-4.55 51.41-3.97L51.41-3.97L50.65-3.41Q50.47-3.85 50.15-4.05Q49.82-4.26 49.32-4.26L49.32-4.26Q48.87-4.26 48.58-4.08Q48.28-3.89 48.28-3.65L48.28-3.65Q48.28-3.38 48.55-3.22Q48.81-3.06 49.51-2.93L49.51-2.93Q50.57-2.74 51.01-2.39Q51.45-2.04 51.45-1.41L51.45-1.41Q51.45-0.74 50.87-0.32Q50.29 0.10 49.27 0.10L49.27 0.10Z"/></svg>