<svg xmlns="http://www.w3.org/2000/svg" viewBox="0.05333333333333334 -7.390000000000001 55.39666666666667 7.49"><path d="M2.25-2.90L2.25-0.16Q2.25-0.07 2.21-0.04Q2.18-0.01 1.98-0.01Q1.78 0 1.44 0L1.44 0L1.44-2.85L0.06-6.87Q0.04-6.94 0.08-6.96Q0.12-6.99 0.35-7.00Q0.58-7 0.97-7L0.97-7L1.37-5.63Q1.52-5.16 1.69-4.46Q1.85-3.76 1.87-3.53L1.87-3.53Q1.89-3.75 2.06-4.46Q2.23-5.16 2.38-5.63L2.38-5.63L2.73-6.85Q2.75-6.93 2.79-6.96Q2.84-6.99 3.04-7.00Q3.25-7 3.60-7L3.60-7L2.25-2.90ZM4.77 0.10Q4.13 0.10 3.77-0.21Q3.40-0.51 3.40-1.42L3.40-1.42Q3.40-2.37 3.77-2.71Q4.13-3.06 4.74-3.06L4.74-3.06Q5.21-3.06 5.47-2.93L5.47-2.93L5.47-3.72Q5.47-4.06 5.32-4.19Q5.17-4.32 4.85-4.32L4.85-4.32Q4.49-4.32 4.12-4.25Q3.75-4.19 3.52-4.09L3.52-4.09Q3.41-4.30 3.41-4.56L3.41-4.56Q3.41-4.76 3.52-4.83L3.52-4.83Q3.67-4.93 4.10-5.01Q4.53-5.10 5.05-5.10L5.05-5.10Q5.70-5.10 5.99-4.82Q6.28-4.54 6.28-3.88L6.28-3.88L6.28-3.35Q6.28-1.15 6.22-0.24L6.22-0.24Q5.98-0.09 5.61 0.01Q5.24 0.10 4.77 0.10L4.77 0.10ZM4.91-0.58Q5.07-0.58 5.22-0.63Q5.37-0.68 5.44-0.74L5.44-0.74Q5.47-1.08 5.47-2.36L5.47-2.36Q5.28-2.46 5-2.46L5-2.46Q4.64-2.46 4.44-2.25Q4.24-2.04 4.24-1.44L4.24-1.44Q4.24-0.93 4.41-0.76Q4.57-0.58 4.91-0.58L4.91-0.58ZM7.10 0L7.10-4.76Q7.41-4.90 7.86-5Q8.31-5.10 8.69-5.10L8.69-5.10Q9.47-5.10 9.78-4.79Q10.09-4.49 10.09-3.76L10.09-3.76L10.09-0.16Q10.09-0.07 10.05-0.04Q10.01-0.01 9.80-0.01Q9.60 0 9.26 0L9.26 0L9.26-3.52Q9.26-4.02 9.14-4.21Q9.02-4.40 8.66-4.40L8.66-4.40Q8.48-4.40 8.27-4.36Q8.06-4.31 7.91-4.22L7.91-4.22L7.91-0.16Q7.91-0.07 7.87-0.04Q7.83-0.01 7.63-0.01Q7.43 0 7.10 0L7.10 0ZM12.42 0.10Q11.86 0.10 11.53-0.09Q11.20-0.28 11.03-0.84Q10.85-1.41 10.85-2.50L10.85-2.50Q10.85-5.10 12.52-5.10L12.52-5.10Q13.07-5.10 13.40-4.88Q13.73-4.65 13.90-4.08Q14.07-3.52 14.07-2.52L14.07-2.52Q14.07-1.16 13.66-0.53Q13.24 0.10 12.42 0.10L12.42 0.10ZM12.44-0.58Q12.80-0.58 13.00-1Q13.19-1.42 13.19-2.52L13.19-2.52Q13.19-3.30 13.12-3.71Q13.04-4.12 12.89-4.27Q12.74-4.42 12.49-4.42L12.49-4.42Q12.12-4.42 11.93-4Q11.73-3.58 11.73-2.48L11.73-2.48Q11.73-1.68 11.81-1.27Q11.89-0.86 12.04-0.72Q12.19-0.58 12.44-0.58L12.44-0.58ZM14.79 0L14.79-4.76Q15.10-4.90 15.55-5Q16-5.10 16.38-5.10L16.38-5.10Q17.16-5.10 17.47-4.79Q17.78-4.49 17.78-3.76L17.78-3.76L17.78-0.16Q17.78-0.07 17.74-0.04Q17.70-0.01 17.50-0.01Q17.29 0 16.95 0L16.95 0L16.95-3.52Q16.95-4.02 16.83-4.21Q16.71-4.40 16.35-4.40L16.35-4.40Q16.17-4.40 15.96-4.36Q15.75-4.31 15.60-4.22L15.60-4.22L15.60-0.16Q15.60-0.07 15.56-0.04Q15.52-0.01 15.32-0.01Q15.12 0 14.79 0L14.79 0ZM20.34-0.68Q20.94-0.68 21.48-1L21.48-1Q21.55-0.78 21.55-0.45L21.55-0.45Q21.55-0.22 21.15-0.06Q20.74 0.10 20.17 0.10L20.17 0.10Q19.66 0.10 19.32-0.09Q18.97-0.28 18.77-0.79Q18.57-1.30 18.57-2.24L18.57-2.24Q18.57-3.41 18.82-4.04Q19.06-4.67 19.44-4.88Q19.82-5.10 20.34-5.10L20.34-5.10Q21.61-5.10 21.61-3.50L21.61-3.50Q21.61-2.70 21.50-2.20L21.50-2.20Q21.06-2.11 20.48-2.08Q19.89-2.04 19.40-2.04L19.40-2.04Q19.42-1.50 19.53-1.21Q19.63-0.92 19.83-0.80Q20.02-0.68 20.34-0.68L20.34-0.68ZM20.25-4.39Q19.89-4.39 19.67-4.01Q19.45-3.64 19.41-2.68L19.41-2.68Q20.40-2.68 20.78-2.80L20.78-2.80Q20.83-3.03 20.83-3.40L20.83-3.40Q20.82-3.96 20.70-4.17Q20.58-4.39 20.25-4.39L20.25-4.39ZM26.81-7.01Q27.17-7.01 27.17-6.86L27.17-6.86Q27.17-6.82 27.14-6.77L27.14-6.77L25.52-3.98Q26.72-3.07 27.13-0.18L27.13-0.18Q27.14-0.06 27.08-0.02Q27.01 0.02 26.80 0.02L26.80 0.02Q26.54 0.02 26.24-0.01L26.24-0.01Q26-1.28 25.75-2.02Q25.50-2.75 25.10-3.18L25.10-3.18Q24.97-3.33 24.70-3.45L24.70-3.45L24.70-0.16Q24.70-0.07 24.66-0.04Q24.63-0.01 24.43-0.01Q24.23 0 23.88 0L23.88 0L23.88-6.84Q23.88-6.93 23.91-6.96Q23.95-6.99 24.15-7.00Q24.35-7 24.70-7L24.70-7L24.70-3.98L26.30-6.95Q26.59-7.01 26.81-7.01L26.81-7.01ZM29.01 0.10Q28.37 0.10 28.01-0.21Q27.64-0.51 27.64-1.42L27.64-1.42Q27.64-2.37 28.01-2.71Q28.37-3.06 28.98-3.06L28.98-3.06Q29.45-3.06 29.71-2.93L29.71-2.93L29.71-3.72Q29.71-4.06 29.56-4.19Q29.41-4.32 29.09-4.32L29.09-4.32Q28.73-4.32 28.36-4.25Q27.99-4.19 27.76-4.09L27.76-4.09Q27.65-4.30 27.65-4.56L27.65-4.56Q27.65-4.76 27.76-4.83L27.76-4.83Q27.91-4.93 28.34-5.01Q28.77-5.10 29.29-5.10L29.29-5.10Q29.94-5.10 30.23-4.82Q30.52-4.54 30.52-3.88L30.52-3.88L30.52-3.35Q30.52-1.15 30.46-0.24L30.46-0.24Q30.22-0.09 29.85 0.01Q29.48 0.10 29.01 0.10L29.01 0.10ZM29.15-0.58Q29.31-0.58 29.46-0.63Q29.61-0.68 29.68-0.74L29.68-0.74Q29.71-1.08 29.71-2.36L29.71-2.36Q29.52-2.46 29.24-2.46L29.24-2.46Q28.88-2.46 28.68-2.25Q28.48-2.04 28.48-1.44L28.48-1.44Q28.48-0.93 28.65-0.76Q28.81-0.58 29.15-0.58L29.15-0.58ZM35.35-7.39Q35.84-7.39 36.06-7.28Q36.28-7.16 36.28-6.92L36.28-6.92Q36.28-6.75 36.19-6.54L36.19-6.54Q35.90-6.66 35.48-6.66L35.48-6.66Q35.01-6.66 34.75-6.46Q34.48-6.26 34.48-5.67L34.48-5.67L34.48-5L35.38-5Q35.38-4.73 35.37-4.57Q35.36-4.40 35.33-4.36Q35.30-4.32 35.21-4.32L35.21-4.32L34.48-4.32L34.48-0.16Q34.48-0.12 34.45-0.06Q34.42 0 34.31 0L34.31 0L33.67 0L33.67-4.32L32.45-4.32L32.45-0.16Q32.45-0.12 32.42-0.06Q32.39 0 32.28 0L32.28 0L31.65 0L31.65-4.32L30.96-4.32Q30.96-4.59 30.97-4.75Q30.98-4.92 31.02-4.96Q31.05-5 31.16-5L31.16-5L31.65-5L31.65-5.69Q31.65-7.34 33.21-7.34L33.21-7.34Q33.75-7.34 34.21-7.07L34.21-7.07Q34.61-7.39 35.35-7.39L35.35-7.39ZM33.67-5L33.67-5.61Q33.67-6.16 33.82-6.52L33.82-6.52Q33.57-6.66 33.22-6.66L33.22-6.66Q32.45-6.66 32.45-5.78L32.45-5.78L32.45-5L33.67-5ZM37.30-0.68Q37.90-0.68 38.44-1L38.44-1Q38.51-0.78 38.51-0.45L38.51-0.45Q38.51-0.22 38.11-0.06Q37.70 0.10 37.13 0.10L37.13 0.10Q36.62 0.10 36.28-0.09Q35.93-0.28 35.73-0.79Q35.53-1.30 35.53-2.24L35.53-2.24Q35.53-3.41 35.78-4.04Q36.02-4.67 36.40-4.88Q36.78-5.10 37.30-5.10L37.30-5.10Q38.57-5.10 38.57-3.50L38.57-3.50Q38.57-2.70 38.46-2.20L38.46-2.20Q38.02-2.11 37.44-2.08Q36.85-2.04 36.36-2.04L36.36-2.04Q36.38-1.50 36.49-1.21Q36.59-0.92 36.79-0.80Q36.98-0.68 37.30-0.68L37.30-0.68ZM37.21-4.39Q36.85-4.39 36.63-4.01Q36.41-3.64 36.37-2.68L36.37-2.68Q37.36-2.68 37.74-2.80L37.74-2.80Q37.79-3.03 37.79-3.40L37.79-3.40Q37.78-3.96 37.66-4.17Q37.54-4.39 37.21-4.39L37.21-4.39ZM40.91-0.68Q41.51-0.68 42.05-1L42.05-1Q42.12-0.78 42.12-0.45L42.12-0.45Q42.12-0.22 41.72-0.06Q41.31 0.10 40.74 0.10L40.74 0.10Q40.23 0.10 39.89-0.09Q39.54-0.28 39.34-0.79Q39.14-1.30 39.14-2.24L39.14-2.24Q39.14-3.41 39.39-4.04Q39.63-4.67 40.01-4.88Q40.39-5.10 40.91-5.10L40.91-5.10Q42.18-5.10 42.18-3.50L42.18-3.50Q42.18-2.70 42.07-2.20L42.07-2.20Q41.63-2.11 41.05-2.08Q40.46-2.04 39.97-2.04L39.97-2.04Q39.99-1.50 40.10-1.21Q40.20-0.92 40.40-0.80Q40.59-0.68 40.91-0.68L40.91-0.68ZM40.82-4.39Q40.46-4.39 40.24-4.01Q40.02-3.64 39.98-2.68L39.98-2.68Q40.97-2.68 41.35-2.80L41.35-2.80Q41.40-3.03 41.40-3.40L41.40-3.40Q41.39-3.96 41.27-4.17Q41.15-4.39 40.82-4.39L40.82-4.39ZM43.97 0.10Q43.42 0.10 43.09-0.03Q42.75-0.16 42.75-0.40L42.75-0.40Q42.75-0.64 42.90-0.87L42.90-0.87Q43.31-0.63 43.89-0.63L43.89-0.63Q44.28-0.63 44.50-0.79Q44.71-0.94 44.71-1.24L44.71-1.24Q44.71-1.46 44.62-1.65Q44.53-1.84 44.31-2.03L44.31-2.03L43.34-2.86Q42.76-3.33 42.76-3.92L42.76-3.92Q42.76-4.47 43.18-4.79Q43.59-5.10 44.40-5.10L44.40-5.10Q45.08-5.10 45.37-4.92Q45.65-4.74 45.65-4.54L45.65-4.54Q45.65-4.45 45.60-4.33Q45.55-4.22 45.48-4.13L45.48-4.13Q45.04-4.40 44.49-4.40L44.49-4.40Q44.13-4.40 43.92-4.27Q43.70-4.14 43.70-3.91L43.70-3.91Q43.70-3.76 43.78-3.63Q43.86-3.49 44.10-3.29L44.10-3.29L45.03-2.54Q45.36-2.22 45.50-1.94Q45.63-1.66 45.63-1.29L45.63-1.29Q45.63-0.63 45.19-0.27Q44.74 0.10 43.97 0.10L43.97 0.10ZM47.57 0.10Q46.93 0.10 46.57-0.21Q46.20-0.51 46.20-1.42L46.20-1.42Q46.20-2.37 46.57-2.71Q46.93-3.06 47.54-3.06L47.54-3.06Q48.01-3.06 48.27-2.93L48.27-2.93L48.27-3.72Q48.27-4.06 48.12-4.19Q47.97-4.32 47.65-4.32L47.65-4.32Q47.29-4.32 46.92-4.25Q46.55-4.19 46.32-4.09L46.32-4.09Q46.21-4.30 46.21-4.56L46.21-4.56Q46.21-4.76 46.32-4.83L46.32-4.83Q46.47-4.93 46.90-5.01Q47.33-5.10 47.85-5.10L47.85-5.10Q48.50-5.10 48.79-4.82Q49.08-4.54 49.08-3.88L49.08-3.88L49.08-3.35Q49.08-1.15 49.02-0.24L49.02-0.24Q48.78-0.09 48.41 0.01Q48.04 0.10 47.57 0.10L47.57 0.10ZM47.71-0.58Q47.87-0.58 48.02-0.63Q48.17-0.68 48.24-0.74L48.24-0.74Q48.27-1.08 48.27-2.36L48.27-2.36Q48.08-2.46 47.80-2.46L47.80-2.46Q47.44-2.46 47.24-2.25Q47.04-2.04 47.04-1.44L47.04-1.44Q47.04-0.93 47.21-0.76Q47.37-0.58 47.71-0.58L47.71-0.58ZM51.21 0.10Q50.80 0.10 50.59-0.07Q50.39-0.25 50.33-0.57Q50.26-0.88 50.26-1.39L50.26-1.39L50.26-4.31L49.58-4.31Q49.58-4.58 49.59-4.75Q49.60-4.91 49.63-4.96Q49.67-5 49.75-5L49.75-5L50.26-5L50.26-6.52Q50.26-6.66 50.33-6.71Q50.39-6.77 50.54-6.79Q50.68-6.80 51.06-6.80L51.06-6.80L51.06-5L52.10-5Q52.10-4.73 52.09-4.56Q52.08-4.39 52.05-4.35Q52.01-4.31 51.93-4.31L51.93-4.31L51.06-4.31L51.06-1.39Q51.06-0.98 51.13-0.79Q51.19-0.59 51.43-0.59L51.43-0.59Q51.59-0.59 51.71-0.63Q51.83-0.66 52.01-0.74L52.01-0.74Q52.07-0.54 52.07-0.34L52.07-0.34Q52.07-0.10 51.82 0Q51.57 0.10 51.21 0.10L51.21 0.10ZM52.65 0Q52.64-0.01 52.61-0.06Q52.58-0.10 52.55-0.19Q52.52-0.28 52.52-0.40L52.52-0.40Q52.52-0.58 52.59-0.70L52.59-0.70L54.54-4.32L53.51-4.32Q52.94-4.32 52.59-4.27L52.59-4.27Q52.56-4.44 52.56-4.65L52.56-4.65Q52.56-4.83 52.62-4.92Q52.68-5 52.82-5L52.82-5L55.37-5Q55.38-4.99 55.41-4.92Q55.45-4.86 55.45-4.75L55.45-4.75Q55.45-4.56 55.36-4.36L55.36-4.36L53.46-0.75L54.35-0.75Q55.01-0.75 55.41-0.85L55.41-0.85Q55.43-0.77 55.43-0.50L55.43-0.50Q55.43-0.23 55.37-0.12Q55.30 0 55.11 0L55.11 0L52.65 0Z"/></svg>