<svg xmlns="http://www.w3.org/2000/svg" viewBox="0.36956250000000007 46.71999999999999 537.1104375 67.536"><path d="M14.69 79.34L14.69 99.14Q14.69 99.64 14.54 99.78Q14.40 99.93 13.61 99.96Q12.82 100 11.45 100L11.45 100L11.45 79.34L0.43 50.18Q0.29 49.89 0.47 49.78Q0.65 49.67 1.55 49.64Q2.45 49.60 4.03 49.60L4.03 49.60L7.78 60.04Q9.29 64.07 11.20 69.94Q13.10 75.81 13.18 76.46L13.18 76.46Q13.25 75.95 15.01 70.48Q16.78 65.01 18.50 60.04L18.50 60.04L21.96 50.25Q22.10 49.89 22.28 49.78Q22.46 49.67 23.33 49.64Q24.19 49.60 25.56 49.60L25.56 49.60L14.69 79.34ZM35.86 100.72Q31.10 100.86 28.30 98.78Q25.49 96.69 25.49 90.06L25.49 90.06Q25.49 83.15 28.51 80.78Q31.54 78.40 36.65 78.40L36.65 78.40Q40.54 78.40 42.70 79.19L42.70 79.19L42.70 72.64Q42.70 69.04 41.15 67.74Q39.60 66.45 36.58 66.45L36.58 66.45Q33.19 66.45 30.35 66.99Q27.50 67.53 25.92 68.25L25.92 68.25Q25.49 67.38 25.49 66.38L25.49 66.38Q25.49 65.37 25.99 65.08L25.99 65.08Q27.22 64.36 30.42 63.82Q33.62 63.28 37.30 63.28L37.30 63.28Q41.69 63.28 43.81 65.26Q45.94 67.24 45.94 71.99L45.94 71.99L45.94 76.46Q45.94 89.63 45.50 98.06L45.50 98.06Q41.40 100.72 35.86 100.72L35.86 100.72ZM36.43 97.84Q38.23 97.84 39.92 97.26Q41.62 96.69 42.34 96.04L42.34 96.04Q42.70 92.01 42.70 81.71L42.70 81.71Q40.61 80.99 37.58 80.99L37.58 80.99Q34.85 80.99 33.01 81.60Q31.18 82.22 29.99 84.16Q28.80 86.10 28.80 89.99L28.80 89.99Q28.80 93.45 29.81 95.18Q30.82 96.90 32.40 97.37Q33.98 97.84 36.43 97.84L36.43 97.84ZM53.71 100L53.71 65.80Q59.90 63.28 65.45 63.28L65.45 63.28Q71.06 63.28 73.15 65.62Q75.24 67.96 75.24 73.29L75.24 73.29L75.24 99.14Q75.24 99.64 75.10 99.78Q74.95 99.93 74.12 99.96Q73.30 100 71.93 100L71.93 100L71.93 74.08Q71.93 69.76 70.60 68.00Q69.26 66.23 65.38 66.23L65.38 66.23Q63.43 66.23 61.06 66.70Q58.68 67.17 56.95 68.03L56.95 68.03L56.95 99.14Q56.95 99.64 56.81 99.78Q56.66 99.93 55.87 99.96Q55.08 100 53.71 100L53.71 100ZM93.31 100.72Q89.42 100.72 87.05 99.39Q84.67 98.06 83.38 93.99Q82.08 89.92 82.08 82.07L82.08 82.07Q82.08 63.28 94.10 63.28L94.10 63.28Q97.99 63.28 100.40 64.94Q102.82 66.59 104.04 70.70Q105.26 74.80 105.26 82L105.26 82Q105.26 91.43 102.20 96.08Q99.14 100.72 93.31 100.72L93.31 100.72ZM93.38 97.84Q97.42 97.84 99.61 93.95Q101.81 90.06 101.81 81.86L101.81 81.86Q101.81 75.66 100.91 72.21Q100.01 68.75 98.32 67.46Q96.62 66.16 93.96 66.16L93.96 66.16Q89.86 66.16 87.70 69.87Q85.54 73.58 85.54 82.43L85.54 82.43Q85.54 88.62 86.44 91.97Q87.34 95.32 88.99 96.58Q90.65 97.84 93.38 97.84L93.38 97.84ZM112.03 100L112.03 65.80Q118.22 63.28 123.77 63.28L123.77 63.28Q129.38 63.28 131.47 65.62Q133.56 67.96 133.56 73.29L133.56 73.29L133.56 99.14Q133.56 99.64 133.42 99.78Q133.27 99.93 132.44 99.96Q131.62 100 130.25 100L130.25 100L130.25 74.08Q130.25 69.76 128.92 68.00Q127.58 66.23 123.70 66.23L123.70 66.23Q121.75 66.23 119.38 66.70Q117 67.17 115.27 68.03L115.27 68.03L115.27 99.14Q115.27 99.64 115.13 99.78Q114.98 99.93 114.19 99.96Q113.40 100 112.03 100L112.03 100ZM153.14 97.55Q155.66 97.55 158.00 96.87Q160.34 96.18 162.00 95.03L162.00 95.03Q162.43 96.18 162.43 97.34L162.43 97.34Q162.43 98.06 161.06 98.88Q159.70 99.71 157.46 100.22Q155.23 100.72 152.71 100.72L152.71 100.72Q148.82 100.72 146.30 99.50Q143.78 98.27 142.31 94.60Q140.83 90.93 140.83 84.02L140.83 84.02Q140.83 75.30 142.70 70.73Q144.58 66.16 147.35 64.72Q150.12 63.28 153.72 63.28L153.72 63.28Q158.33 63.28 160.52 66.27Q162.72 69.26 162.72 74.66L162.72 74.66Q162.72 79.91 162.14 83.01L162.14 83.01Q157.90 83.80 152.71 84.05Q147.53 84.30 144.07 84.23L144.07 84.23Q144.07 89.85 145.15 92.73Q146.23 95.61 148.18 96.58Q150.12 97.55 153.14 97.55L153.14 97.55ZM153.50 66.23Q149.69 66.23 147.10 69.22Q144.50 72.21 144.14 81.42L144.14 81.42L146.45 81.42Q155.09 81.42 159.26 80.42L159.26 80.42Q159.55 78.04 159.55 75.45L159.55 75.45Q159.48 70.70 158.18 68.46Q156.89 66.23 153.50 66.23L153.50 66.23ZM204.55 98.92Q204.62 99.06 204.62 99.35L204.62 99.35Q204.62 100.07 203.33 100.07L203.33 100.07Q201.96 100.07 201.31 100L201.31 100Q198.14 90.06 195.30 84.74Q192.46 79.41 189.22 76.17L189.22 76.17Q187.70 74.66 185.47 73.72L185.47 73.72L185.47 99.14Q185.47 99.64 185.33 99.78Q185.18 99.93 184.39 99.96Q183.60 100 182.23 100L182.23 100L182.23 50.46Q182.23 49.96 182.38 49.82Q182.52 49.67 183.31 49.64Q184.10 49.60 185.47 49.60L185.47 49.60L185.47 71.42L201.10 49.74Q201.82 49.60 203.11 49.60L203.11 49.60Q204.55 49.60 204.55 50.25L204.55 50.25Q204.55 50.32 204.26 50.90L204.26 50.90L188.71 71.63Q193.46 74.51 197.53 81.28Q201.60 88.05 204.55 98.92L204.55 98.92ZM219.31 100.72Q214.56 100.86 211.75 98.78Q208.94 96.69 208.94 90.06L208.94 90.06Q208.94 83.15 211.97 80.78Q214.99 78.40 220.10 78.40L220.10 78.40Q223.99 78.40 226.15 79.19L226.15 79.19L226.15 72.64Q226.15 69.04 224.60 67.74Q223.06 66.45 220.03 66.45L220.03 66.45Q216.65 66.45 213.80 66.99Q210.96 67.53 209.38 68.25L209.38 68.25Q208.94 67.38 208.94 66.38L208.94 66.38Q208.94 65.37 209.45 65.08L209.45 65.08Q210.67 64.36 213.88 63.82Q217.08 63.28 220.75 63.28L220.75 63.28Q225.14 63.28 227.27 65.26Q229.39 67.24 229.39 71.99L229.39 71.99L229.39 76.46Q229.39 89.63 228.96 98.06L228.96 98.06Q224.86 100.72 219.31 100.72L219.31 100.72ZM219.89 97.84Q221.69 97.84 223.38 97.26Q225.07 96.69 225.79 96.04L225.79 96.04Q226.15 92.01 226.15 81.71L226.15 81.71Q224.06 80.99 221.04 80.99L221.04 80.99Q218.30 80.99 216.47 81.60Q214.63 82.22 213.44 84.16Q212.26 86.10 212.26 89.99L212.26 89.99Q212.26 93.45 213.26 95.18Q214.27 96.90 215.86 97.37Q217.44 97.84 219.89 97.84L219.89 97.84ZM266.83 46.72Q269.78 46.72 271.33 47.33Q272.88 47.94 272.88 48.95L272.88 48.95Q272.88 49.46 272.45 50.61L272.45 50.61Q269.86 49.74 267.05 49.74L267.05 49.74Q263.16 49.74 260.82 51.62Q258.48 53.49 258.48 59.39L258.48 59.39L258.48 64.00L266.40 64.00Q266.40 66.02 266.26 66.45Q266.11 66.88 265.46 66.88L265.46 66.88L258.48 66.88L258.48 99.14Q258.48 99.35 258.30 99.68Q258.12 100 257.54 100L257.54 100L255.24 100L255.24 66.88L242.78 66.88L242.78 99.14Q242.78 99.35 242.64 99.68Q242.50 100 241.92 100L241.92 100L239.54 100L239.54 66.88L233.86 66.88Q233.86 65.73 233.89 65.04Q233.93 64.36 234.14 64.18Q234.36 64.00 234.86 64.00L234.86 64.00L239.54 64.00L239.54 58.60Q239.54 51.47 242.96 49.28Q246.38 47.08 250.78 47.08L250.78 47.08Q254.81 47.08 258.41 49.46L258.41 49.46Q260.06 47.80 262.22 47.26Q264.38 46.72 266.83 46.72L266.83 46.72ZM255.24 64.00L255.24 59.32Q255.24 54.93 256.68 51.90L256.68 51.90Q255.38 50.90 253.94 50.46Q252.50 50.03 250.42 50.03L250.42 50.03Q247.39 50.03 245.09 51.62Q242.78 53.20 242.78 58.53L242.78 58.53L242.78 64.00L255.24 64.00ZM280.44 97.55Q282.96 97.55 285.30 96.87Q287.64 96.18 289.30 95.03L289.30 95.03Q289.73 96.18 289.73 97.34L289.73 97.34Q289.73 98.06 288.36 98.88Q286.99 99.71 284.76 100.22Q282.53 100.72 280.01 100.72L280.01 100.72Q276.12 100.72 273.60 99.50Q271.08 98.27 269.60 94.60Q268.13 90.93 268.13 84.02L268.13 84.02Q268.13 75.30 270.00 70.73Q271.87 66.16 274.64 64.72Q277.42 63.28 281.02 63.28L281.02 63.28Q285.62 63.28 287.82 66.27Q290.02 69.26 290.02 74.66L290.02 74.66Q290.02 79.91 289.44 83.01L289.44 83.01Q285.19 83.80 280.01 84.05Q274.82 84.30 271.37 84.23L271.37 84.23Q271.37 89.85 272.45 92.73Q273.53 95.61 275.47 96.58Q277.42 97.55 280.44 97.55L280.44 97.55ZM280.80 66.23Q276.98 66.23 274.39 69.22Q271.80 72.21 271.44 81.42L271.44 81.42L273.74 81.42Q282.38 81.42 286.56 80.42L286.56 80.42Q286.85 78.04 286.85 75.45L286.85 75.45Q286.78 70.70 285.48 68.46Q284.18 66.23 280.80 66.23L280.80 66.23ZM307.73 97.55Q310.25 97.55 312.59 96.87Q314.93 96.18 316.58 95.03L316.58 95.03Q317.02 96.18 317.02 97.34L317.02 97.34Q317.02 98.06 315.65 98.88Q314.28 99.71 312.05 100.22Q309.82 100.72 307.30 100.72L307.30 100.72Q303.41 100.72 300.89 99.50Q298.37 98.27 296.89 94.60Q295.42 90.93 295.42 84.02L295.42 84.02Q295.42 75.30 297.29 70.73Q299.16 66.16 301.93 64.72Q304.70 63.28 308.30 63.28L308.30 63.28Q312.91 63.28 315.11 66.27Q317.30 69.26 317.30 74.66L317.30 74.66Q317.30 79.91 316.73 83.01L316.73 83.01Q312.48 83.80 307.30 84.05Q302.11 84.30 298.66 84.23L298.66 84.23Q298.66 89.85 299.74 92.73Q300.82 95.61 302.76 96.58Q304.70 97.55 307.73 97.55L307.73 97.55ZM308.09 66.23Q304.27 66.23 301.68 69.22Q299.09 72.21 298.73 81.42L298.73 81.42L301.03 81.42Q309.67 81.42 313.85 80.42L313.85 80.42Q314.14 78.04 314.14 75.45L314.14 75.45Q314.06 70.70 312.77 68.46Q311.47 66.23 308.09 66.23L308.09 66.23ZM331.99 100.72Q327.89 100.72 325.37 99.86Q322.85 98.99 322.85 97.77L322.85 97.77Q322.85 96.54 323.57 95.75L323.57 95.75Q325.22 96.76 327.13 97.23Q329.04 97.70 331.78 97.70L331.78 97.70Q335.74 97.70 337.97 96.18Q340.20 94.67 340.20 91.65L340.20 91.65Q340.20 89.42 339.16 87.62Q338.11 85.82 335.81 84.16L335.81 84.16L327.96 78.90Q325.01 76.96 324.04 75.27Q323.06 73.58 323.06 71.34L323.06 71.34Q323.06 67.60 326.23 65.44Q329.40 63.28 334.66 63.28L334.66 63.28Q337.68 63.28 339.80 63.89Q341.93 64.50 342.94 65.30Q343.94 66.09 343.94 66.74L343.94 66.74Q343.94 67.53 343.08 68.61L343.08 68.61Q341.14 67.38 339.23 66.81Q337.32 66.23 334.94 66.23L334.94 66.23Q331.27 66.23 328.93 67.56Q326.59 68.90 326.59 71.27L326.59 71.27Q326.59 72.78 327.38 73.97Q328.18 75.16 330.41 76.67L330.41 76.67L338.62 82.14Q341.28 84.23 342.50 86.36Q343.73 88.48 343.73 91.14L343.73 91.14Q343.73 95.82 340.63 98.27Q337.54 100.72 331.99 100.72L331.99 100.72ZM360.07 100.72Q355.32 100.86 352.51 98.78Q349.70 96.69 349.70 90.06L349.70 90.06Q349.70 83.15 352.73 80.78Q355.75 78.40 360.86 78.40L360.86 78.40Q364.75 78.40 366.91 79.19L366.91 79.19L366.91 72.64Q366.91 69.04 365.36 67.74Q363.82 66.45 360.79 66.45L360.79 66.45Q357.41 66.45 354.56 66.99Q351.72 67.53 350.14 68.25L350.14 68.25Q349.70 67.38 349.70 66.38L349.70 66.38Q349.70 65.37 350.21 65.08L350.21 65.08Q351.43 64.36 354.64 63.82Q357.84 63.28 361.51 63.28L361.51 63.28Q365.90 63.28 368.03 65.26Q370.15 67.24 370.15 71.99L370.15 71.99L370.15 76.46Q370.15 89.63 369.72 98.06L369.72 98.06Q365.62 100.72 360.07 100.72L360.07 100.72ZM360.65 97.84Q362.45 97.84 364.14 97.26Q365.83 96.69 366.55 96.04L366.55 96.04Q366.91 92.01 366.91 81.71L366.91 81.71Q364.82 80.99 361.80 80.99L361.80 80.99Q359.06 80.99 357.23 81.60Q355.39 82.22 354.20 84.16Q353.02 86.10 353.02 89.99L353.02 89.99Q353.02 93.45 354.02 95.18Q355.03 96.90 356.62 97.37Q358.20 97.84 360.65 97.84L360.65 97.84ZM387.43 100.72Q384.62 100.72 383.29 99.32Q381.96 97.91 381.60 95.61Q381.24 93.30 381.24 89.34L381.24 89.34L381.24 66.95L375.70 66.95Q375.70 65.01 375.84 64.50Q375.98 64.00 376.49 64.00L376.49 64.00L381.24 64.00L381.24 52.48Q381.24 51.47 381.78 51.26Q382.32 51.04 384.48 51.04L384.48 51.04L384.48 64.00L393.62 64.00Q393.62 66.02 393.52 66.48Q393.41 66.95 392.90 66.95L392.90 66.95L384.48 66.95L384.48 89.49Q384.48 92.44 384.66 94.10Q384.84 95.75 385.63 96.76Q386.42 97.77 388.08 97.77L388.08 97.77Q389.52 97.77 390.49 97.48Q391.46 97.19 392.83 96.54L392.83 96.54Q393.12 97.34 393.12 98.34L393.12 98.34Q393.12 99.50 391.43 100.11Q389.74 100.72 387.43 100.72L387.43 100.72ZM398.02 100Q397.94 99.93 397.73 99.46Q397.51 98.99 397.51 98.34L397.51 98.34Q397.51 97.55 397.80 96.98L397.80 96.98L415.87 66.88L406.66 66.88Q401.04 66.88 397.94 67.24L397.94 67.24Q397.87 66.45 397.87 65.58L397.87 65.58Q397.87 64.00 398.95 64.00L398.95 64.00L419.33 64.00Q419.40 64.07 419.58 64.36Q419.76 64.65 419.76 65.08L419.76 65.08Q419.76 66.02 419.33 66.88L419.33 66.88L401.33 96.90L410.47 96.90Q416.66 96.90 419.54 96.40L419.54 96.40Q419.62 96.76 419.62 97.98L419.62 97.98Q419.62 99.14 419.36 99.57Q419.11 100 418.32 100L418.32 100L398.02 100ZM439.34 100L439.34 48.74Q439.34 47.58 439.92 47.33Q440.50 47.08 442.58 47.08L442.58 47.08L442.58 99.14Q442.58 99.64 442.44 99.78Q442.30 99.93 441.50 99.96Q440.71 100 439.34 100L439.34 100ZM451.51 100L451.51 65.66Q451.51 64.50 452.09 64.25Q452.66 64.00 454.75 64.00L454.75 64.00L454.75 99.14Q454.75 99.64 454.61 99.78Q454.46 99.93 453.67 99.96Q452.88 100 451.51 100L451.51 100ZM453.02 56.94Q452.02 56.94 451.58 56.26Q451.15 55.58 451.15 54.06L451.15 54.06Q451.30 51.18 453.24 51.18L453.24 51.18Q454.32 51.18 454.75 51.87Q455.18 52.55 455.18 54.06L455.18 54.06Q455.04 56.94 453.02 56.94L453.02 56.94ZM477.58 95.97Q482.18 96.62 484.70 98.24Q487.22 99.86 487.22 103.74L487.22 103.74Q487.22 106.48 485.68 108.89Q484.13 111.30 480.96 112.78Q477.79 114.26 473.26 114.26L473.26 114.26Q466.78 114.26 464.33 112.13Q461.88 110.01 461.88 106.62L461.88 106.62Q461.88 104.18 463.68 101.66Q465.48 99.14 468.00 97.34L468.00 97.34Q463.03 96.04 463.03 93.66L463.03 93.66Q463.03 92.30 464.36 90.57Q465.70 88.84 467.64 87.33L467.64 87.33Q463.03 84.59 463.03 76.24L463.03 76.24Q463.03 69.90 466.34 66.59Q469.66 63.28 474.84 63.28L474.84 63.28Q476.42 63.28 478.22 63.71L478.22 63.71L487.01 63.71Q487.37 64.22 487.37 65.15L487.37 65.15Q487.37 66.52 485.86 66.52L485.86 66.52Q484.42 66.52 481.39 66.09L481.39 66.09Q483.55 67.24 484.74 69.58Q485.93 71.92 485.93 75.38L485.93 75.38Q485.93 81.35 483.05 85.13Q480.17 88.91 474.26 88.91L474.26 88.91Q471.82 88.91 469.87 88.34L469.87 88.34Q468.50 89.42 467.46 90.68Q466.42 91.94 466.42 92.87L466.42 92.87Q466.42 94.67 477.58 95.97L477.58 95.97ZM474.70 65.94Q471.10 65.94 468.72 68.57Q466.34 71.20 466.34 76.24L466.34 76.24Q466.34 80.92 468.00 83.55Q469.66 86.18 474.48 86.18L474.48 86.18Q478.51 86.18 480.60 82.94Q482.69 79.70 482.69 74.87L482.69 74.87Q482.69 70.41 480.60 68.18Q478.51 65.94 474.70 65.94L474.70 65.94ZM473.47 111.16Q476.78 111.16 479.16 110.15Q481.54 109.14 482.76 107.52Q483.98 105.90 483.98 104.10L483.98 104.10Q483.98 101.22 481.97 100.14Q479.95 99.06 475.85 98.70L475.85 98.70Q472.46 98.27 470.74 97.98L470.74 97.98Q468.50 99.50 466.81 101.80Q465.12 104.10 465.12 106.12L465.12 106.12Q465.12 108.50 466.88 109.83Q468.65 111.16 473.47 111.16L473.47 111.16ZM492.62 100L492.62 48.74Q492.62 47.58 493.20 47.33Q493.78 47.08 495.86 47.08L495.86 47.08L495.86 66.45Q497.95 64.86 500.44 64.07Q502.92 63.28 505.37 63.28L505.37 63.28Q510.34 63.28 512.14 65.69Q513.94 68.10 513.94 73L513.94 73L513.94 99.14Q513.94 99.64 513.79 99.78Q513.65 99.93 512.82 99.96Q511.99 100 510.62 100L510.62 100L510.62 73.58Q510.62 70.05 509.29 68.21Q507.96 66.38 504.36 66.38L504.36 66.38Q502.20 66.38 499.90 67.17Q497.59 67.96 495.86 69.62L495.86 69.62L495.86 99.14Q495.86 99.64 495.72 99.78Q495.58 99.93 494.78 99.96Q493.99 100 492.62 100L492.62 100ZM531.29 100.72Q528.48 100.72 527.15 99.32Q525.82 97.91 525.46 95.61Q525.10 93.30 525.10 89.34L525.10 89.34L525.10 66.95L519.55 66.95Q519.55 65.01 519.70 64.50Q519.84 64.00 520.34 64.00L520.34 64.00L525.10 64.00L525.10 52.48Q525.10 51.47 525.64 51.26Q526.18 51.04 528.34 51.04L528.34 51.04L528.34 64.00L537.48 64.00Q537.48 66.02 537.37 66.48Q537.26 66.95 536.76 66.95L536.76 66.95L528.34 66.95L528.34 89.49Q528.34 92.44 528.52 94.10Q528.70 95.75 529.49 96.76Q530.28 97.77 531.94 97.77L531.94 97.77Q533.38 97.77 534.35 97.48Q535.32 97.19 536.69 96.54L536.69 96.54Q536.98 97.34 536.98 98.34L536.98 98.34Q536.98 99.50 535.28 100.11Q533.59 100.72 531.29 100.72L531.29 100.72Z"/></svg>