<svg xmlns="http://www.w3.org/2000/svg" viewBox="0.36956250000000007 46.71999999999999 537.1104375 67.536"><path d="M15 79L15 99Q15 100 15 100Q14 100 14 100Q13 100 11 100L11 100L11 79L0 50Q0 50 0 50Q1 50 2 50Q2 50 4 50L4 50L8 60Q9 64 11 70Q13 76 13 76L13 76Q13 76 15 70Q17 65 19 60L19 60L22 50Q22 50 22 50Q22 50 23 50Q24 50 26 50L26 50L15 79ZM36 101Q31 101 28 99Q25 97 25 90L25 90Q25 83 29 81Q32 78 37 78L37 78Q41 78 43 79L43 79L43 73Q43 69 41 68Q40 66 37 66L37 66Q33 66 30 67Q28 68 26 68L26 68Q25 67 25 66L25 66Q25 65 26 65L26 65Q27 64 30 64Q34 63 37 63L37 63Q42 63 44 65Q46 67 46 72L46 72L46 76Q46 90 46 98L46 98Q41 101 36 101L36 101ZM36 98Q38 98 40 97Q42 97 42 96L42 96Q43 92 43 82L43 82Q41 81 38 81L38 81Q35 81 33 82Q31 82 30 84Q29 86 29 90L29 90Q29 93 30 95Q31 97 32 97Q34 98 36 98L36 98ZM54 100L54 66Q60 63 65 63L65 63Q71 63 73 66Q75 68 75 73L75 73L75 99Q75 100 75 100Q75 100 74 100Q73 100 72 100L72 100L72 74Q72 70 71 68Q69 66 65 66L65 66Q63 66 61 67Q59 67 57 68L57 68L57 99Q57 100 57 100Q57 100 56 100Q55 100 54 100L54 100ZM93 101Q89 101 87 99Q85 98 83 94Q82 90 82 82L82 82Q82 63 94 63L94 63Q98 63 100 65Q103 67 104 71Q105 75 105 82L105 82Q105 91 102 96Q99 101 93 101L93 101ZM93 98Q97 98 100 94Q102 90 102 82L102 82Q102 76 101 72Q100 69 98 67Q97 66 94 66L94 66Q90 66 88 70Q86 74 86 82L86 82Q86 89 86 92Q87 95 89 97Q91 98 93 98L93 98ZM112 100L112 66Q118 63 124 63L124 63Q129 63 131 66Q134 68 134 73L134 73L134 99Q134 100 133 100Q133 100 132 100Q132 100 130 100L130 100L130 74Q130 70 129 68Q128 66 124 66L124 66Q122 66 119 67Q117 67 115 68L115 68L115 99Q115 100 115 100Q115 100 114 100Q113 100 112 100L112 100ZM153 98Q156 98 158 97Q160 96 162 95L162 95Q162 96 162 97L162 97Q162 98 161 99Q160 100 157 100Q155 101 153 101L153 101Q149 101 146 99Q144 98 142 95Q141 91 141 84L141 84Q141 75 143 71Q145 66 147 65Q150 63 154 63L154 63Q158 63 161 66Q163 69 163 75L163 75Q163 80 162 83L162 83Q158 84 153 84Q148 84 144 84L144 84Q144 90 145 93Q146 96 148 97Q150 98 153 98L153 98ZM154 66Q150 66 147 69Q145 72 144 81L144 81L146 81Q155 81 159 80L159 80Q160 78 160 75L160 75Q159 71 158 68Q157 66 154 66L154 66ZM205 99Q205 99 205 99L205 99Q205 100 203 100L203 100Q202 100 201 100L201 100Q198 90 195 85Q192 79 189 76L189 76Q188 75 185 74L185 74L185 99Q185 100 185 100Q185 100 184 100Q184 100 182 100L182 100L182 50Q182 50 182 50Q183 50 183 50Q184 50 185 50L185 50L185 71L201 50Q202 50 203 50L203 50Q205 50 205 50L205 50Q205 50 204 51L204 51L189 72Q193 75 198 81Q202 88 205 99L205 99ZM219 101Q215 101 212 99Q209 97 209 90L209 90Q209 83 212 81Q215 78 220 78L220 78Q224 78 226 79L226 79L226 73Q226 69 225 68Q223 66 220 66L220 66Q217 66 214 67Q211 68 209 68L209 68Q209 67 209 66L209 66Q209 65 209 65L209 65Q211 64 214 64Q217 63 221 63L221 63Q225 63 227 65Q229 67 229 72L229 72L229 76Q229 90 229 98L229 98Q225 101 219 101L219 101ZM220 98Q222 98 223 97Q225 97 226 96L226 96Q226 92 226 82L226 82Q224 81 221 81L221 81Q218 81 216 82Q215 82 213 84Q212 86 212 90L212 90Q212 93 213 95Q214 97 216 97Q217 98 220 98L220 98ZM267 47Q270 47 271 47Q273 48 273 49L273 49Q273 49 272 51L272 51Q270 50 267 50L267 50Q263 50 261 52Q258 53 258 59L258 59L258 64L266 64Q266 66 266 66Q266 67 265 67L265 67L258 67L258 99Q258 99 258 100Q258 100 258 100L258 100L255 100L255 67L243 67L243 99Q243 99 243 100Q242 100 242 100L242 100L240 100L240 67L234 67Q234 66 234 65Q234 64 234 64Q234 64 235 64L235 64L240 64L240 59Q240 51 243 49Q246 47 251 47L251 47Q255 47 258 49L258 49Q260 48 262 47Q264 47 267 47L267 47ZM255 64L255 59Q255 55 257 52L257 52Q255 51 254 50Q253 50 250 50L250 50Q247 50 245 52Q243 53 243 59L243 59L243 64L255 64ZM280 98Q283 98 285 97Q288 96 289 95L289 95Q290 96 290 97L290 97Q290 98 288 99Q287 100 285 100Q283 101 280 101L280 101Q276 101 274 99Q271 98 270 95Q268 91 268 84L268 84Q268 75 270 71Q272 66 275 65Q277 63 281 63L281 63Q286 63 288 66Q290 69 290 75L290 75Q290 80 289 83L289 83Q285 84 280 84Q275 84 271 84L271 84Q271 90 272 93Q274 96 275 97Q277 98 280 98L280 98ZM281 66Q277 66 274 69Q272 72 271 81L271 81L274 81Q282 81 287 80L287 80Q287 78 287 75L287 75Q287 71 285 68Q284 66 281 66L281 66ZM308 98Q310 98 313 97Q315 96 317 95L317 95Q317 96 317 97L317 97Q317 98 316 99Q314 100 312 100Q310 101 307 101L307 101Q303 101 301 99Q298 98 297 95Q295 91 295 84L295 84Q295 75 297 71Q299 66 302 65Q305 63 308 63L308 63Q313 63 315 66Q317 69 317 75L317 75Q317 80 317 83L317 83Q312 84 307 84Q302 84 299 84L299 84Q299 90 300 93Q301 96 303 97Q305 98 308 98L308 98ZM308 66Q304 66 302 69Q299 72 299 81L299 81L301 81Q310 81 314 80L314 80Q314 78 314 75L314 75Q314 71 313 68Q311 66 308 66L308 66ZM332 101Q328 101 325 100Q323 99 323 98L323 98Q323 97 324 96L324 96Q325 97 327 97Q329 98 332 98L332 98Q336 98 338 96Q340 95 340 92L340 92Q340 89 339 88Q338 86 336 84L336 84L328 79Q325 77 324 75Q323 74 323 71L323 71Q323 68 326 65Q329 63 335 63L335 63Q338 63 340 64Q342 65 343 65Q344 66 344 67L344 67Q344 68 343 69L343 69Q341 67 339 67Q337 66 335 66L335 66Q331 66 329 68Q327 69 327 71L327 71Q327 73 327 74Q328 75 330 77L330 77L339 82Q341 84 343 86Q344 88 344 91L344 91Q344 96 341 98Q338 101 332 101L332 101ZM360 101Q355 101 353 99Q350 97 350 90L350 90Q350 83 353 81Q356 78 361 78L361 78Q365 78 367 79L367 79L367 73Q367 69 365 68Q364 66 361 66L361 66Q357 66 355 67Q352 68 350 68L350 68Q350 67 350 66L350 66Q350 65 350 65L350 65Q351 64 355 64Q358 63 362 63L362 63Q366 63 368 65Q370 67 370 72L370 72L370 76Q370 90 370 98L370 98Q366 101 360 101L360 101ZM361 98Q362 98 364 97Q366 97 367 96L367 96Q367 92 367 82L367 82Q365 81 362 81L362 81Q359 81 357 82Q355 82 354 84Q353 86 353 90L353 90Q353 93 354 95Q355 97 357 97Q358 98 361 98L361 98ZM387 101Q385 101 383 99Q382 98 382 96Q381 93 381 89L381 89L381 67L376 67Q376 65 376 65Q376 64 376 64L376 64L381 64L381 52Q381 51 382 51Q382 51 384 51L384 51L384 64L394 64Q394 66 394 66Q393 67 393 67L393 67L384 67L384 89Q384 92 385 94Q385 96 386 97Q386 98 388 98L388 98Q390 98 390 97Q391 97 393 97L393 97Q393 97 393 98L393 98Q393 99 391 100Q390 101 387 101L387 101ZM398 100Q398 100 398 99Q398 99 398 98L398 98Q398 98 398 97L398 97L416 67L407 67Q401 67 398 67L398 67Q398 66 398 66L398 66Q398 64 399 64L399 64L419 64Q419 64 420 64Q420 65 420 65L420 65Q420 66 419 67L419 67L401 97L410 97Q417 97 420 96L420 96Q420 97 420 98L420 98Q420 99 419 100Q419 100 418 100L418 100L398 100ZM439 100L439 49Q439 48 440 47Q440 47 443 47L443 47L443 99Q443 100 442 100Q442 100 442 100Q441 100 439 100L439 100ZM452 100L452 66Q452 65 452 64Q453 64 455 64L455 64L455 99Q455 100 455 100Q454 100 454 100Q453 100 452 100L452 100ZM453 57Q452 57 452 56Q451 56 451 54L451 54Q451 51 453 51L453 51Q454 51 455 52Q455 53 455 54L455 54Q455 57 453 57L453 57ZM478 96Q482 97 485 98Q487 100 487 104L487 104Q487 106 486 109Q484 111 481 113Q478 114 473 114L473 114Q467 114 464 112Q462 110 462 107L462 107Q462 104 464 102Q465 99 468 97L468 97Q463 96 463 94L463 94Q463 92 464 91Q466 89 468 87L468 87Q463 85 463 76L463 76Q463 70 466 67Q470 63 475 63L475 63Q476 63 478 64L478 64L487 64Q487 64 487 65L487 65Q487 67 486 67L486 67Q484 67 481 66L481 66Q484 67 485 70Q486 72 486 75L486 75Q486 81 483 85Q480 89 474 89L474 89Q472 89 470 88L470 88Q469 89 467 91Q466 92 466 93L466 93Q466 95 478 96L478 96ZM475 66Q471 66 469 69Q466 71 466 76L466 76Q466 81 468 84Q470 86 474 86L474 86Q479 86 481 83Q483 80 483 75L483 75Q483 70 481 68Q479 66 475 66L475 66ZM473 111Q477 111 479 110Q482 109 483 108Q484 106 484 104L484 104Q484 101 482 100Q480 99 476 99L476 99Q472 98 471 98L471 98Q469 99 467 102Q465 104 465 106L465 106Q465 108 467 110Q469 111 473 111L473 111ZM493 100L493 49Q493 48 493 47Q494 47 496 47L496 47L496 66Q498 65 500 64Q503 63 505 63L505 63Q510 63 512 66Q514 68 514 73L514 73L514 99Q514 100 514 100Q514 100 513 100Q512 100 511 100L511 100L511 74Q511 70 509 68Q508 66 504 66L504 66Q502 66 500 67Q498 68 496 70L496 70L496 99Q496 100 496 100Q496 100 495 100Q494 100 493 100L493 100ZM531 101Q528 101 527 99Q526 98 525 96Q525 93 525 89L525 89L525 67L520 67Q520 65 520 65Q520 64 520 64L520 64L525 64L525 52Q525 51 526 51Q526 51 528 51L528 51L528 64L537 64Q537 66 537 66Q537 67 537 67L537 67L528 67L528 89Q528 92 529 94Q529 96 529 97Q530 98 532 98L532 98Q533 98 534 97Q535 97 537 97L537 97Q537 97 537 98L537 98Q537 99 535 100Q534 101 531 101L531 101Z"/></svg>