<svg xmlns="http://www.w3.org/2000/svg" viewBox="0.051250000000000004 -7.38 52.93874999999999 7.4799999999999995"><path d="M2.42-2.92L2.42-0.20Q2.42-0.09 2.38-0.06Q2.33-0.02 2.06-0.01Q1.78 0 1.31 0L1.31 0L1.31-2.88L0.06-6.83Q0.03-6.92 0.09-6.95Q0.14-6.98 0.46-6.99Q0.78-7 1.33-7L1.33-7L1.62-5.69Q1.70-5.34 1.79-4.73Q1.88-4.12 1.91-3.76L1.91-3.76Q1.94-4.11 2.04-4.73Q2.13-5.34 2.21-5.70L2.21-5.70L2.45-6.80Q2.48-6.91 2.54-6.95Q2.61-6.98 2.89-6.99Q3.16-7 3.64-7L3.64-7L2.42-2.92ZM4.70 0.10Q4.27 0.10 3.96-0.01Q3.66-0.12 3.47-0.47Q3.28-0.81 3.28-1.46L3.28-1.46Q3.28-2.40 3.60-2.75Q3.92-3.11 4.44-3.11L4.44-3.11Q4.59-3.11 4.78-3.08Q4.96-3.04 5.08-2.96L5.08-2.96L5.08-3.65Q5.08-3.85 4.99-3.94Q4.89-4.03 4.66-4.03L4.66-4.03Q4.38-4.03 4.04-3.97Q3.70-3.91 3.45-3.82L3.45-3.82Q3.30-4.11 3.30-4.46L3.30-4.46Q3.30-4.56 3.34-4.66Q3.38-4.76 3.44-4.81L3.44-4.81Q3.57-4.91 3.98-5.00Q4.39-5.10 4.93-5.10L4.93-5.10Q5.62-5.10 5.91-4.83Q6.19-4.55 6.19-3.88L6.19-3.88L6.19-3.41Q6.19-0.96 6.14-0.22L6.14-0.22Q5.60 0.10 4.70 0.10L4.70 0.10ZM4.78-0.81Q4.97-0.81 5.06-0.91L5.06-0.91Q5.08-1.14 5.08-2.21L5.08-2.21Q4.98-2.30 4.81-2.30L4.81-2.30Q4.63-2.30 4.54-2.13Q4.45-1.95 4.45-1.49L4.45-1.49Q4.45-1.12 4.52-0.96Q4.59-0.81 4.78-0.81L4.78-0.81ZM6.80 0L6.80-4.77Q7.06-4.89 7.53-5.00Q7.99-5.10 8.35-5.10L8.35-5.10Q9.13-5.10 9.46-4.82Q9.79-4.54 9.79-3.81L9.79-3.81L9.79-0.20Q9.79-0.09 9.74-0.06Q9.68-0.02 9.40-0.01Q9.11 0 8.64 0L8.64 0L8.64-3.46Q8.64-3.87 8.58-4.01Q8.51-4.15 8.31-4.15L8.31-4.15Q8.09-4.15 7.91-4.03L7.91-4.03L7.91-0.20Q7.91-0.09 7.86-0.06Q7.80-0.02 7.53-0.01Q7.26 0 6.80 0L6.80 0ZM11.97 0.10Q11.38 0.10 11.05-0.10Q10.72-0.29 10.55-0.85Q10.39-1.41 10.39-2.51L10.39-2.51Q10.39-5.10 12.05-5.10L12.05-5.10Q12.61-5.10 12.95-4.88Q13.28-4.65 13.45-4.10Q13.61-3.55 13.61-2.55L13.61-2.55Q13.61-1.14 13.21-0.52Q12.80 0.10 11.97 0.10L11.97 0.10ZM12-0.82Q12.12-0.82 12.20-0.94Q12.28-1.05 12.33-1.43Q12.39-1.80 12.39-2.52L12.39-2.52Q12.39-3.25 12.36-3.60Q12.33-3.94 12.25-4.06Q12.17-4.18 12.01-4.18L12.01-4.18Q11.82-4.18 11.71-3.84Q11.61-3.50 11.61-2.52L11.61-2.52Q11.61-1.77 11.65-1.41Q11.70-1.04 11.78-0.93Q11.86-0.82 12-0.82L12-0.82ZM14.14 0L14.14-4.77Q14.40-4.89 14.86-5.00Q15.33-5.10 15.69-5.10L15.69-5.10Q16.47-5.10 16.80-4.82Q17.13-4.54 17.13-3.81L17.13-3.81L17.13-0.20Q17.13-0.09 17.07-0.06Q17.02-0.02 16.73-0.01Q16.45 0 15.98 0L15.98 0L15.98-3.46Q15.98-3.87 15.91-4.01Q15.85-4.15 15.65-4.15L15.65-4.15Q15.43-4.15 15.25-4.03L15.25-4.03L15.25-0.20Q15.25-0.09 15.19-0.06Q15.14-0.02 14.87-0.01Q14.60 0 14.14 0L14.14 0ZM19.55-0.98Q20.03-0.98 20.61-1.26L20.61-1.26Q20.70-0.96 20.70-0.52L20.70-0.52Q20.70-0.23 20.30-0.07Q19.89 0.10 19.28 0.10L19.28 0.10Q18.53 0.10 18.13-0.42Q17.73-0.93 17.73-2.26L17.73-2.26Q17.73-3.40 17.96-4.03Q18.20-4.66 18.58-4.88Q18.96-5.10 19.49-5.10L19.49-5.10Q20.77-5.10 20.77-3.47L20.77-3.47Q20.77-2.60 20.63-2.05L20.63-2.05Q20.06-1.93 18.89-1.91L18.89-1.91Q18.92-1.40 19.06-1.19Q19.20-0.98 19.55-0.98L19.55-0.98ZM19.35-4.14Q19.12-4.14 19.02-3.81Q18.91-3.48 18.89-2.78L18.89-2.78Q19.45-2.78 19.64-2.87L19.64-2.87Q19.69-3.02 19.69-3.39L19.69-3.39Q19.69-3.85 19.62-4.00Q19.55-4.14 19.35-4.14L19.35-4.14ZM25.62-7.01Q26.12-7.01 26.12-6.82L26.12-6.82Q26.12-6.79 26.10-6.73L26.10-6.73L24.94-4.01Q25.48-3.51 25.76-2.54Q26.03-1.56 26.04-0.21L26.04-0.21Q26.04-0.07 25.96-0.03Q25.87 0.02 25.58 0.02L25.58 0.02Q25.20 0.02 24.78-0.01L24.78-0.01Q24.77-1.11 24.64-1.86Q24.50-2.62 24.11-3.06L24.11-3.06Q23.97-3.21 23.80-3.29L23.80-3.29L23.80-0.20Q23.80-0.09 23.75-0.06Q23.70-0.02 23.43-0.01Q23.15 0 22.67 0L22.67 0L22.67-6.80Q22.67-6.91 22.72-6.95Q22.77-6.98 23.05-6.99Q23.32-7 23.80-7L23.80-7L23.80-4.11L24.91-6.93Q25.27-7.01 25.62-7.01L25.62-7.01ZM27.89 0.10Q27.46 0.10 27.16-0.01Q26.85-0.12 26.66-0.47Q26.47-0.81 26.47-1.46L26.47-1.46Q26.47-2.40 26.79-2.75Q27.11-3.11 27.63-3.11L27.63-3.11Q27.78-3.11 27.96-3.08Q28.15-3.04 28.27-2.96L28.27-2.96L28.27-3.65Q28.27-3.85 28.18-3.94Q28.08-4.03 27.85-4.03L27.85-4.03Q27.57-4.03 27.23-3.97Q26.89-3.91 26.64-3.82L26.64-3.82Q26.49-4.11 26.49-4.46L26.49-4.46Q26.49-4.56 26.53-4.66Q26.57-4.76 26.63-4.81L26.63-4.81Q26.76-4.91 27.17-5.00Q27.58-5.10 28.12-5.10L28.12-5.10Q28.81-5.10 29.09-4.83Q29.38-4.55 29.38-3.88L29.38-3.88L29.38-3.41Q29.38-0.96 29.33-0.22L29.33-0.22Q28.79 0.10 27.89 0.10L27.89 0.10ZM27.97-0.81Q28.16-0.81 28.25-0.91L28.25-0.91Q28.27-1.14 28.27-2.21L28.27-2.21Q28.17-2.30 28-2.30L28-2.30Q27.82-2.30 27.73-2.13Q27.64-1.95 27.64-1.49L27.64-1.49Q27.64-1.12 27.71-0.96Q27.78-0.81 27.97-0.81L27.97-0.81ZM33.91-7.38Q34.45-7.38 34.67-7.24Q34.90-7.10 34.90-6.78L34.90-6.78Q34.90-6.70 34.87-6.54Q34.84-6.39 34.79-6.26L34.79-6.26Q34.52-6.39 34.11-6.39L34.11-6.39Q33.70-6.39 33.49-6.24Q33.28-6.09 33.28-5.69L33.28-5.69L33.28-5L34-5Q34-4.55 33.98-4.37Q33.97-4.19 33.93-4.13Q33.89-4.08 33.79-4.08L33.79-4.08L33.28-4.08L33.28-0.20Q33.28-0.15 33.24-0.07Q33.21 0 33.08 0L33.08 0L32.17 0L32.17-4.08L31.37-4.08L31.37-0.20Q31.37-0.15 31.33-0.07Q31.30 0 31.17 0L31.17 0L30.26 0L30.26-4.08L29.66-4.08Q29.66-4.56 29.67-4.73Q29.68-4.90 29.73-4.95Q29.79-5 29.93-5L29.93-5L30.26-5L30.26-5.64Q30.26-6.63 30.73-6.99Q31.20-7.34 31.84-7.34L31.84-7.34Q32.35-7.34 32.80-7.10L32.80-7.10Q33.21-7.38 33.91-7.38L33.91-7.38ZM32.17-5L32.17-5.57Q32.17-6 32.27-6.35L32.27-6.35Q32.12-6.41 31.89-6.41L31.89-6.41Q31.37-6.41 31.37-5.79L31.37-5.79L31.37-5L32.17-5ZM35.88-0.98Q36.36-0.98 36.94-1.26L36.94-1.26Q37.03-0.96 37.03-0.52L37.03-0.52Q37.03-0.23 36.63-0.07Q36.22 0.10 35.61 0.10L35.61 0.10Q34.86 0.10 34.46-0.42Q34.06-0.93 34.06-2.26L34.06-2.26Q34.06-3.40 34.30-4.03Q34.53-4.66 34.91-4.88Q35.29-5.10 35.82-5.10L35.82-5.10Q37.10-5.10 37.10-3.47L37.10-3.47Q37.10-2.60 36.96-2.05L36.96-2.05Q36.39-1.93 35.22-1.91L35.22-1.91Q35.25-1.40 35.39-1.19Q35.53-0.98 35.88-0.98L35.88-0.98ZM35.68-4.14Q35.45-4.14 35.34-3.81Q35.24-3.48 35.22-2.78L35.22-2.78Q35.78-2.78 35.97-2.87L35.97-2.87Q36.02-3.02 36.02-3.39L36.02-3.39Q36.02-3.85 35.95-4.00Q35.88-4.14 35.68-4.14L35.68-4.14ZM39.33-0.98Q39.81-0.98 40.39-1.26L40.39-1.26Q40.48-0.96 40.48-0.52L40.48-0.52Q40.48-0.23 40.08-0.07Q39.67 0.10 39.06 0.10L39.06 0.10Q38.31 0.10 37.91-0.42Q37.51-0.93 37.51-2.26L37.51-2.26Q37.51-3.40 37.75-4.03Q37.98-4.66 38.36-4.88Q38.74-5.10 39.27-5.10L39.27-5.10Q40.55-5.10 40.55-3.47L40.55-3.47Q40.55-2.60 40.41-2.05L40.41-2.05Q39.84-1.93 38.67-1.91L38.67-1.91Q38.70-1.40 38.84-1.19Q38.98-0.98 39.33-0.98L39.33-0.98ZM39.13-4.14Q38.90-4.14 38.80-3.81Q38.69-3.48 38.67-2.78L38.67-2.78Q39.23-2.78 39.42-2.87L39.42-2.87Q39.47-3.02 39.47-3.39L39.47-3.39Q39.47-3.85 39.40-4.00Q39.33-4.14 39.13-4.14L39.13-4.14ZM42.13 0.10Q40.95 0.10 40.95-0.49L40.95-0.49Q40.95-0.78 41.13-1.11L41.13-1.11Q41.54-0.89 42.01-0.89L42.01-0.89Q42.27-0.89 42.40-1.01Q42.53-1.12 42.53-1.32L42.53-1.32Q42.53-1.62 42.30-1.88L42.30-1.88L41.43-2.80Q41.18-3.06 41.06-3.34Q40.94-3.62 40.94-3.86L40.94-3.86Q40.94-4.43 41.33-4.76Q41.72-5.10 42.59-5.10L42.59-5.10Q43.33-5.10 43.58-4.92Q43.82-4.73 43.82-4.47L43.82-4.47Q43.82-4.34 43.77-4.20Q43.71-4.05 43.61-3.94L43.61-3.94Q43.22-4.15 42.74-4.15L42.74-4.15Q42.26-4.15 42.26-3.84L42.26-3.84Q42.26-3.74 42.32-3.63Q42.38-3.52 42.56-3.34L42.56-3.34L43.30-2.59Q43.59-2.25 43.70-1.99Q43.80-1.72 43.80-1.34L43.80-1.34Q43.80-0.67 43.35-0.29Q42.90 0.10 42.13 0.10L42.13 0.10ZM45.57 0.10Q45.14 0.10 44.84-0.01Q44.53-0.12 44.34-0.47Q44.15-0.81 44.15-1.46L44.15-1.46Q44.15-2.40 44.47-2.75Q44.79-3.11 45.31-3.11L45.31-3.11Q45.46-3.11 45.65-3.08Q45.83-3.04 45.95-2.96L45.95-2.96L45.95-3.65Q45.95-3.85 45.86-3.94Q45.76-4.03 45.53-4.03L45.53-4.03Q45.25-4.03 44.91-3.97Q44.57-3.91 44.32-3.82L44.32-3.82Q44.17-4.11 44.17-4.46L44.17-4.46Q44.17-4.56 44.21-4.66Q44.25-4.76 44.31-4.81L44.31-4.81Q44.44-4.91 44.85-5.00Q45.26-5.10 45.80-5.10L45.80-5.10Q46.49-5.10 46.78-4.83Q47.06-4.55 47.06-3.88L47.06-3.88L47.06-3.41Q47.06-0.96 47.01-0.22L47.01-0.22Q46.47 0.10 45.57 0.10L45.57 0.10ZM45.65-0.81Q45.84-0.81 45.93-0.91L45.93-0.91Q45.95-1.14 45.95-2.21L45.95-2.21Q45.85-2.30 45.68-2.30L45.68-2.30Q45.50-2.30 45.41-2.13Q45.32-1.95 45.32-1.49L45.32-1.49Q45.32-1.12 45.39-0.96Q45.46-0.81 45.65-0.81L45.65-0.81ZM48.97 0.10Q48.54 0.10 48.32-0.06Q48.10-0.22 48.02-0.52Q47.94-0.82 47.94-1.31L47.94-1.31L47.94-4.06L47.33-4.06Q47.33-4.52 47.34-4.70Q47.35-4.88 47.40-4.94Q47.44-5 47.56-5L47.56-5L47.94-5L47.94-6.45Q47.94-6.63 48.03-6.70Q48.12-6.77 48.33-6.79Q48.53-6.80 49.05-6.80L49.05-6.80L49.05-5L49.87-5Q49.87-4.53 49.86-4.36Q49.85-4.18 49.80-4.12Q49.76-4.06 49.65-4.06L49.65-4.06L49.05-4.06L49.05-1.33Q49.05-1.09 49.09-0.96Q49.13-0.84 49.29-0.84L49.29-0.84Q49.54-0.84 49.81-0.97L49.81-0.97Q49.88-0.64 49.88-0.44L49.88-0.44Q49.88 0.10 48.97 0.10L48.97 0.10ZM50.37 0Q50.35-0.01 50.30-0.07Q50.26-0.13 50.22-0.26Q50.18-0.38 50.18-0.55L50.18-0.55Q50.18-0.75 50.27-0.94L50.27-0.94L51.75-4.08L50.93-4.08Q50.54-4.08 50.26-4.03L50.26-4.03Q50.22-4.26 50.22-4.53L50.22-4.53Q50.22-4.78 50.30-4.89Q50.38-5 50.57-5L50.57-5L52.88-5Q52.89-4.99 52.91-4.95Q52.94-4.91 52.96-4.84Q52.99-4.77 52.99-4.67L52.99-4.67Q52.99-4.45 52.86-4.15L52.86-4.15L51.48-1.02L52.04-1.02Q52.59-1.02 52.93-1.16L52.93-1.16Q52.97-1 52.97-0.68L52.97-0.68Q52.96-0.31 52.87-0.15Q52.78 0 52.52 0L52.52 0L50.37 0Z"/></svg>