<svg xmlns="http://www.w3.org/2000/svg" viewBox="0.05 -7.4 59.919999999999995 7.500972222222223"><path d="M3.52-7L1.92-2.87L1.92-0.10Q1.92-0.03 1.89-0.01Q1.86 0 1.68 0L1.68 0L1.68-2.87L0.06-6.95L0.05-6.97Q0.05-6.99 0.12-7.00Q0.18-7 0.32-7L0.32-7L0.91-5.51Q1.14-4.93 1.43-4.14Q1.71-3.35 1.80-3.11L1.80-3.11Q1.89-3.35 2.15-4.04Q2.40-4.74 2.69-5.51L2.69-5.51L3.24-6.95Q3.25-6.99 3.31-7.00Q3.37-7 3.52-7L3.52-7ZM5.07 0.10Q4.64 0.11 4.33 0.02Q4.02-0.07 3.82-0.40Q3.62-0.72 3.62-1.35L3.62-1.35Q3.62-2.32 4.07-2.65Q4.52-2.97 5.29-2.97L5.29-2.97Q5.86-2.97 6.20-2.87L6.20-2.87L6.20-3.85Q6.20-4.44 5.95-4.65Q5.69-4.86 5.21-4.86L5.21-4.86Q4.68-4.86 4.27-4.78Q3.85-4.70 3.65-4.60L3.65-4.60Q3.61-4.67 3.61-4.73L3.61-4.73Q3.61-4.84 3.66-4.86L3.66-4.86Q3.84-4.95 4.30-5.03Q4.76-5.10 5.26-5.10L5.26-5.10Q5.84-5.10 6.14-4.82Q6.44-4.54 6.44-3.89L6.44-3.89L6.44-3.23Q6.44-1.88 6.38-0.28L6.38-0.28Q6.13-0.12 5.84-0.01Q5.55 0.10 5.07 0.10L5.07 0.10ZM5.14-0.14Q5.45-0.14 5.74-0.24Q6.02-0.33 6.14-0.43L6.14-0.43Q6.20-1.23 6.20-2.64L6.20-2.64Q5.81-2.75 5.34-2.75L5.34-2.75Q4.88-2.75 4.57-2.66Q4.26-2.57 4.06-2.27Q3.86-1.96 3.86-1.36L3.86-1.36Q3.86-0.80 4.03-0.54Q4.20-0.27 4.46-0.21Q4.72-0.14 5.14-0.14L5.14-0.14ZM7.67 0L7.67-4.74Q8.55-5.10 9.32-5.10L9.32-5.10Q9.86-5.10 10.16-4.94Q10.45-4.78 10.55-4.48Q10.66-4.17 10.66-3.68L10.66-3.68L10.66-0.10Q10.66-0.03 10.63-0.01Q10.60 0 10.42 0L10.42 0L10.42-3.64Q10.42-4.08 10.33-4.34Q10.24-4.60 10.00-4.73Q9.77-4.86 9.33-4.86L9.33-4.86Q9.01-4.86 8.61-4.79Q8.20-4.71 7.91-4.57L7.91-4.57L7.91-0.10Q7.91-0.03 7.88-0.01Q7.85 0 7.67 0L7.67 0ZM13.27 0.10Q12.75 0.10 12.42-0.09Q12.09-0.27 11.90-0.83Q11.72-1.39 11.72-2.48L11.72-2.48Q11.72-5.10 13.39-5.10L13.39-5.10Q13.92-5.10 14.25-4.87Q14.59-4.63 14.76-4.06Q14.93-3.49 14.93-2.48L14.93-2.48Q14.93-1.20 14.50-0.55Q14.07 0.10 13.27 0.10L13.27 0.10ZM13.28-0.14Q13.95-0.14 14.32-0.74Q14.69-1.35 14.69-2.52L14.69-2.52Q14.69-3.43 14.53-3.95Q14.38-4.46 14.09-4.66Q13.81-4.86 13.38-4.86L13.38-4.86Q12.70-4.86 12.33-4.29Q11.96-3.71 11.96-2.41L11.96-2.41Q11.96-1.52 12.11-1.02Q12.26-0.53 12.54-0.34Q12.83-0.14 13.28-0.14L13.28-0.14ZM16.00 0L16.00-4.74Q16.88-5.10 17.65-5.10L17.65-5.10Q18.19-5.10 18.48-4.94Q18.78-4.78 18.88-4.48Q18.99-4.17 18.99-3.68L18.99-3.68L18.99-0.10Q18.99-0.03 18.96-0.01Q18.93 0 18.75 0L18.75 0L18.75-3.64Q18.75-4.08 18.66-4.34Q18.57-4.60 18.33-4.73Q18.10-4.86 17.66-4.86L17.66-4.86Q17.34-4.86 16.93-4.79Q16.53-4.71 16.24-4.57L16.24-4.57L16.24-0.10Q16.24-0.03 16.21-0.01Q16.18 0 16.00 0L16.00 0ZM21.80-0.14Q22.17-0.14 22.52-0.24Q22.86-0.33 23.08-0.51L23.08-0.51Q23.13-0.41 23.13-0.32L23.13-0.32Q23.13-0.24 22.94-0.14Q22.75-0.04 22.45 0.03Q22.14 0.10 21.81 0.10L21.81 0.10Q21.25 0.10 20.89-0.06Q20.54-0.22 20.33-0.72Q20.12-1.23 20.12-2.21L20.12-2.21Q20.12-3.44 20.39-4.08Q20.66-4.71 21.04-4.91Q21.43-5.10 21.92-5.10L21.92-5.10Q22.57-5.10 22.87-4.69Q23.17-4.27 23.17-3.54L23.17-3.54Q23.17-2.88 23.10-2.46L23.10-2.46Q22.14-2.27 20.75-2.27L20.75-2.27L20.36-2.28L20.36-2.17Q20.36-1.29 20.54-0.85Q20.73-0.41 21.03-0.28Q21.33-0.14 21.80-0.14L21.80-0.14ZM21.93-4.86Q21.52-4.86 21.20-4.73Q20.89-4.59 20.65-4.08Q20.41-3.56 20.37-2.52L20.37-2.52L20.81-2.51Q22.13-2.51 22.89-2.67L22.89-2.67Q22.93-3.07 22.93-3.42L22.93-3.42Q22.91-4.14 22.70-4.50Q22.48-4.86 21.93-4.86L21.93-4.86ZM29.15-0.13Q29.17-0.07 29.17-0.06L29.17-0.06Q29.17 0.01 29.08 0.01L29.08 0.01Q28.99 0.01 28.95 0L28.95 0Q28.57-1.02 28.22-1.68Q27.88-2.33 27.59-2.69Q27.31-3.05 26.96-3.39L26.96-3.39Q26.75-3.60 26.37-3.76L26.37-3.76L26.37-0.10Q26.37-0.03 26.34-0.01Q26.31 0 26.13 0L26.13 0L26.13-6.90Q26.13-6.98 26.16-6.99Q26.19-7 26.37-7L26.37-7L26.37-3.99L28.87-6.99Q28.92-7 29.02-7L29.02-7Q29.13-7 29.13-6.94L29.13-6.94Q29.13-6.92 29.08-6.85L29.08-6.85L26.60-3.92Q27.31-3.56 27.96-2.63Q28.62-1.69 29.15-0.13L29.15-0.13ZM31.27 0.10Q30.84 0.11 30.53 0.02Q30.22-0.07 30.02-0.40Q29.82-0.72 29.82-1.35L29.82-1.35Q29.82-2.32 30.27-2.65Q30.72-2.97 31.49-2.97L31.49-2.97Q32.06-2.97 32.40-2.87L32.40-2.87L32.40-3.85Q32.40-4.44 32.14-4.65Q31.89-4.86 31.41-4.86L31.41-4.86Q30.88-4.86 30.46-4.78Q30.05-4.70 29.85-4.60L29.85-4.60Q29.81-4.67 29.81-4.73L29.81-4.73Q29.81-4.84 29.86-4.86L29.86-4.86Q30.04-4.95 30.50-5.03Q30.96-5.10 31.46-5.10L31.46-5.10Q32.04-5.10 32.34-4.82Q32.64-4.54 32.64-3.89L32.64-3.89L32.64-3.23Q32.64-1.88 32.58-0.28L32.58-0.28Q32.33-0.12 32.04-0.01Q31.75 0.10 31.27 0.10L31.27 0.10ZM31.34-0.14Q31.65-0.14 31.93-0.24Q32.22-0.33 32.34-0.43L32.34-0.43Q32.40-1.23 32.40-2.64L32.40-2.64Q32.01-2.75 31.54-2.75L31.54-2.75Q31.08-2.75 30.77-2.66Q30.46-2.57 30.26-2.27Q30.06-1.96 30.06-1.36L30.06-1.36Q30.06-0.80 30.23-0.54Q30.40-0.27 30.66-0.21Q30.92-0.14 31.34-0.14L31.34-0.14ZM38.05-7.40Q38.42-7.40 38.63-7.33Q38.84-7.27 38.84-7.18L38.84-7.18Q38.84-7.14 38.82-7.11Q38.81-7.07 38.80-7.05L38.80-7.05Q38.42-7.16 38.03-7.16L38.03-7.16Q37.66-7.16 37.38-7.07Q37.11-6.97 36.91-6.63Q36.72-6.29 36.72-5.63L36.72-5.63L36.72-5L37.94-5Q37.94-4.83 37.92-4.79Q37.91-4.76 37.84-4.76L37.84-4.76L36.72-4.76L36.72-0.10Q36.72-0.08 36.70-0.04Q36.68 0 36.62 0L36.62 0L36.48 0L36.48-4.76L34.46-4.76L34.46-0.10Q34.46-0.08 34.44-0.04Q34.42 0 34.36 0L34.36 0L34.22 0L34.22-4.76L33.37-4.76Q33.37-4.93 33.38-4.96Q33.40-5 33.47-5L33.47-5L34.22-5L34.22-5.79Q34.22-6.78 34.69-7.07Q35.16-7.35 35.77-7.35L35.77-7.35Q36.07-7.35 36.36-7.25Q36.65-7.15 36.86-6.98L36.86-6.98Q37.09-7.24 37.39-7.32Q37.70-7.40 38.05-7.40L38.05-7.40ZM36.48-5.67Q36.48-6.34 36.72-6.79L36.72-6.79L36.71-6.77Q36.50-6.96 36.26-7.04Q36.03-7.11 35.69-7.11L35.69-7.11Q35.20-7.11 34.83-6.86Q34.46-6.60 34.46-5.75L34.46-5.75L34.46-5L36.48-5L36.48-5.67ZM39.91-0.14Q40.28-0.14 40.63-0.24Q40.97-0.33 41.19-0.51L41.19-0.51Q41.24-0.41 41.24-0.32L41.24-0.32Q41.24-0.24 41.05-0.14Q40.86-0.04 40.55 0.03Q40.25 0.10 39.92 0.10L39.92 0.10Q39.36 0.10 39.00-0.06Q38.65-0.22 38.44-0.72Q38.23-1.23 38.23-2.21L38.23-2.21Q38.23-3.44 38.50-4.08Q38.77-4.71 39.16-4.91Q39.54-5.10 40.03-5.10L40.03-5.10Q40.68-5.10 40.98-4.69Q41.28-4.27 41.28-3.54L41.28-3.54Q41.28-2.88 41.21-2.46L41.21-2.46Q40.25-2.27 38.86-2.27L38.86-2.27L38.47-2.28L38.47-2.17Q38.47-1.29 38.66-0.85Q38.84-0.41 39.14-0.28Q39.44-0.14 39.91-0.14L39.91-0.14ZM40.04-4.86Q39.63-4.86 39.31-4.73Q39-4.59 38.76-4.08Q38.52-3.56 38.48-2.52L38.48-2.52L38.92-2.51Q40.24-2.51 41-2.67L41-2.67Q41.04-3.07 41.04-3.42L41.04-3.42Q41.02-4.14 40.80-4.50Q40.59-4.86 40.04-4.86L40.04-4.86ZM43.81-0.14Q44.18-0.14 44.52-0.24Q44.87-0.33 45.09-0.51L45.09-0.51Q45.14-0.41 45.14-0.32L45.14-0.32Q45.14-0.24 44.95-0.14Q44.76-0.04 44.45 0.03Q44.15 0.10 43.82 0.10L43.82 0.10Q43.26 0.10 42.90-0.06Q42.55-0.22 42.34-0.72Q42.13-1.23 42.13-2.21L42.13-2.21Q42.13-3.44 42.40-4.08Q42.67-4.71 43.05-4.91Q43.44-5.10 43.93-5.10L43.93-5.10Q44.58-5.10 44.88-4.69Q45.18-4.27 45.18-3.54L45.18-3.54Q45.18-2.88 45.11-2.46L45.11-2.46Q44.15-2.27 42.76-2.27L42.76-2.27L42.37-2.28L42.37-2.17Q42.37-1.29 42.55-0.85Q42.74-0.41 43.04-0.28Q43.34-0.14 43.81-0.14L43.81-0.14ZM43.94-4.86Q43.53-4.86 43.21-4.73Q42.90-4.59 42.66-4.08Q42.42-3.56 42.38-2.52L42.38-2.52L42.82-2.51Q44.14-2.51 44.90-2.67L44.90-2.67Q44.94-3.07 44.94-3.42L44.94-3.42Q44.92-4.14 44.70-4.50Q44.49-4.86 43.94-4.86L43.94-4.86ZM47.37 0.10Q46.98 0.10 46.68 0.04Q46.38-0.01 46.22-0.10Q46.06-0.18 46.06-0.25L46.06-0.25Q46.06-0.37 46.14-0.43L46.14-0.43Q46.38-0.28 46.65-0.21Q46.93-0.14 47.36-0.14L47.36-0.14Q48.00-0.14 48.37-0.38Q48.74-0.62 48.74-1.11L48.74-1.11Q48.74-1.48 48.56-1.76Q48.38-2.04 48.00-2.30L48.00-2.30L46.85-2.97Q46.39-3.24 46.24-3.46Q46.10-3.69 46.10-4.02L46.10-4.02Q46.10-4.53 46.55-4.82Q47.01-5.10 47.71-5.10L47.71-5.10Q48.10-5.10 48.39-5.02Q48.69-4.94 48.85-4.83Q49.01-4.73 49.01-4.67L49.01-4.67Q49.01-4.60 48.92-4.49L48.92-4.49Q48.63-4.68 48.35-4.77Q48.08-4.86 47.71-4.86L47.71-4.86Q47.12-4.86 46.73-4.64Q46.34-4.42 46.34-4.03L46.34-4.03Q46.34-3.79 46.46-3.60Q46.59-3.42 46.94-3.21L46.94-3.21L48.21-2.44Q48.60-2.17 48.79-1.87Q48.98-1.57 48.98-1.20L48.98-1.20Q48.98-0.56 48.56-0.23Q48.15 0.10 47.37 0.10L47.37 0.10ZM51.41 0.10Q50.98 0.11 50.67 0.02Q50.36-0.07 50.16-0.40Q49.96-0.72 49.96-1.35L49.96-1.35Q49.96-2.32 50.41-2.65Q50.86-2.97 51.63-2.97L51.63-2.97Q52.20-2.97 52.54-2.87L52.54-2.87L52.54-3.85Q52.54-4.44 52.28-4.65Q52.03-4.86 51.55-4.86L51.55-4.86Q51.02-4.86 50.60-4.78Q50.19-4.70 49.99-4.60L49.99-4.60Q49.95-4.67 49.95-4.73L49.95-4.73Q49.95-4.84 50-4.86L50-4.86Q50.18-4.95 50.64-5.03Q51.10-5.10 51.60-5.10L51.60-5.10Q52.18-5.10 52.48-4.82Q52.78-4.54 52.78-3.89L52.78-3.89L52.78-3.23Q52.78-1.88 52.72-0.28L52.72-0.28Q52.47-0.12 52.18-0.01Q51.89 0.10 51.41 0.10L51.41 0.10ZM51.48-0.14Q51.79-0.14 52.07-0.24Q52.36-0.33 52.48-0.43L52.48-0.43Q52.54-1.23 52.54-2.64L52.54-2.64Q52.15-2.75 51.68-2.75L51.68-2.75Q51.22-2.75 50.91-2.66Q50.60-2.57 50.40-2.27Q50.20-1.96 50.20-1.36L50.20-1.36Q50.20-0.80 50.37-0.54Q50.54-0.27 50.80-0.21Q51.06-0.14 51.48-0.14L51.48-0.14ZM55.33 0.10Q54.95 0.10 54.78-0.10Q54.61-0.31 54.57-0.63Q54.53-0.94 54.53-1.53L54.53-1.53L54.53-4.76L53.70-4.76Q53.70-4.92 53.71-4.96Q53.73-5 53.78-5L53.78-5L54.53-5L54.53-6.65Q54.53-6.76 54.56-6.78Q54.60-6.80 54.77-6.80L54.77-6.80L54.77-5L56.18-5Q56.18-4.84 56.17-4.80Q56.16-4.76 56.12-4.76L56.12-4.76L54.77-4.76L54.77-1.50Q54.77-1.02 54.80-0.74Q54.83-0.47 54.95-0.30Q55.08-0.14 55.35-0.14L55.35-0.14Q55.57-0.14 55.71-0.18Q55.85-0.22 56.06-0.32L56.06-0.32Q56.09-0.25 56.09-0.17L56.09-0.17Q56.09-0.06 55.86 0.02Q55.64 0.10 55.33 0.10L55.33 0.10ZM56.83 0Q56.82-0.01 56.80-0.04Q56.79-0.08 56.79-0.13L56.79-0.13Q56.79-0.22 56.82-0.26L56.82-0.26L59.65-4.76L58.23-4.76Q57.22-4.76 56.85-4.72L56.85-4.72L56.84-4.86Q56.84-4.92 56.86-4.96Q56.89-5 56.93-5L56.93-5L59.93-5Q59.94-4.99 59.95-4.96Q59.97-4.94 59.97-4.90L59.97-4.90Q59.97-4.81 59.93-4.74L59.93-4.74L57.08-0.24L58.57-0.24Q59.53-0.24 59.95-0.29L59.95-0.29L59.95-0.15Q59.95-0.07 59.93-0.04Q59.91 0 59.86 0L59.86 0L56.83 0Z"/></svg>